{
    "header": {
      "keySignatures": [
        {
          "key": "C",
          "scale": "major",
          "ticks": 0
        }
      ],
      "meta": [
        {
          "text": "Billy Jean, Michael Jackson",
          "ticks": 1925,
          "type": "marker"
        }
      ],
      "name": "",
      "ppq": 480,
      "tempos": [
        {
          "bpm": 116.99988885010559,
          "ticks": 0
        }
      ],
      "timeSignatures": [
        {
          "ticks": 0,
          "timeSignature": [
            4,
            4
          ],
          "measures": 0
        }
      ]
    },
    "tracks": [
      {
        "channel": 0,
        "controlChanges": {},
        "pitchBends": [],
        "instrument": {
          "family": "piano",
          "number": 0,
          "name": "acoustic grand piano"
        },
        "name": "          ",
        "notes": [],
        "endOfTrackTicks": 1920
      },
      {
        "channel": 0,
        "controlChanges": {
          "0": [
            {
              "number": 0,
              "ticks": 485,
              "time": 0.5181628854166667,
              "value": 0.06299212598425197
            }
          ],
          "32": [
            {
              "number": 32,
              "ticks": 488,
              "time": 0.5213680166666667,
              "value": 0
            }
          ],
          "121": [
            {
              "number": 121,
              "ticks": 485,
              "time": 0.5181628854166667,
              "value": 0
            }
          ]
        },
        "pitchBends": [],
        "instrument": {
          "family": "piano",
          "number": 0,
          "name": "acoustic grand piano"
        },
        "name": "       ",
        "notes": [],
        "endOfTrackTicks": 161280
      },
      {
        "channel": 0,
        "controlChanges": {
          "7": [
            {
              "number": 7,
              "ticks": 493,
              "time": 0.5267099020833333,
              "value": 0.968503937007874
            }
          ],
          "10": [
            {
              "number": 10,
              "ticks": 493,
              "time": 0.5267099020833333,
              "value": 0.5039370078740157
            }
          ],
          "11": [
            {
              "number": 11,
              "ticks": 1300,
              "time": 1.3888902083333334,
              "value": 1
            }
          ],
          "91": [
            {
              "number": 91,
              "ticks": 965,
              "time": 1.0309838854166666,
              "value": 0.3937007874015748
            }
          ],
          "93": [
            {
              "number": 93,
              "ticks": 1085,
              "time": 1.1591891354166666,
              "value": 0.23622047244094488
            }
          ],
          "120": [
            {
              "number": 120,
              "ticks": 160690,
              "time": 171.67751352083332,
              "value": 0
            }
          ],
          "123": [
            {
              "number": 123,
              "ticks": 160873,
              "time": 171.8730265270833,
              "value": 0
            }
          ]
        },
        "pitchBends": [],
        "instrument": {
          "family": "piano",
          "number": 5,
          "name": "electric piano 2"
        },
        "name": "",
        "notes": [
          {
            "duration": 1.282052500000006,
            "durationTicks": 1200,
            "midi": 50,
            "name": "D3",
            "ticks": 67200,
            "time": 71.79494,
            "velocity": 0.9291338582677166
          },
          {
            "duration": 2.0299164583333322,
            "durationTicks": 1900,
            "midi": 57,
            "name": "A3",
            "ticks": 67200,
            "time": 71.79494,
            "velocity": 0.9448818897637795
          },
          {
            "duration": 2.0192326874999935,
            "durationTicks": 1890,
            "midi": 62,
            "name": "D4",
            "ticks": 67200,
            "time": 71.79494,
            "velocity": 0.8661417322834646
          },
          {
            "duration": 0.3846157499999947,
            "durationTicks": 360,
            "midi": 52,
            "name": "E3",
            "ticks": 68400,
            "time": 73.0769925,
            "velocity": 0.9921259842519685
          },
          {
            "duration": 0.3846157499999947,
            "durationTicks": 360,
            "midi": 50,
            "name": "D3",
            "ticks": 68760,
            "time": 73.46160825,
            "velocity": 0.9921259842519685
          },
          {
            "duration": 2.0512840000000097,
            "durationTicks": 1920,
            "midi": 49,
            "name": "C#3",
            "ticks": 69120,
            "time": 73.84622399999999,
            "velocity": 0.905511811023622
          },
          {
            "duration": 2.0512840000000097,
            "durationTicks": 1920,
            "midi": 54,
            "name": "F#3",
            "ticks": 69120,
            "time": 73.84622399999999,
            "velocity": 0.9921259842519685
          },
          {
            "duration": 1.2393174166666512,
            "durationTicks": 1160,
            "midi": 50,
            "name": "D3",
            "ticks": 71040,
            "time": 75.897508,
            "velocity": 0.8976377952755905
          },
          {
            "duration": 2.0192326874999935,
            "durationTicks": 1890,
            "midi": 57,
            "name": "A3",
            "ticks": 71040,
            "time": 75.897508,
            "velocity": 0.8267716535433071
          },
          {
            "duration": 2.008548916666655,
            "durationTicks": 1880,
            "midi": 62,
            "name": "D4",
            "ticks": 71040,
            "time": 75.897508,
            "velocity": 0.889763779527559
          },
          {
            "duration": 0.3846157500000089,
            "durationTicks": 360,
            "midi": 52,
            "name": "E3",
            "ticks": 72240,
            "time": 77.1795605,
            "velocity": 0.9921259842519685
          },
          {
            "duration": 0.3846157499999947,
            "durationTicks": 360,
            "midi": 50,
            "name": "D3",
            "ticks": 72600,
            "time": 77.56417625,
            "velocity": 0.9921259842519685
          },
          {
            "duration": 2.0512839999999954,
            "durationTicks": 1920,
            "midi": 54,
            "name": "F#3",
            "ticks": 72960,
            "time": 77.948792,
            "velocity": 0.937007874015748
          },
          {
            "duration": 2.0512839999999954,
            "durationTicks": 1920,
            "midi": 57,
            "name": "A3",
            "ticks": 72960,
            "time": 77.948792,
            "velocity": 0.9921259842519685
          },
          {
            "duration": 1.1538472499999983,
            "durationTicks": 1080,
            "midi": 50,
            "name": "D3",
            "ticks": 74880,
            "time": 80.00007599999999,
            "velocity": 0.8976377952755905
          },
          {
            "duration": 2.0192326875000077,
            "durationTicks": 1890,
            "midi": 57,
            "name": "A3",
            "ticks": 74880,
            "time": 80.00007599999999,
            "velocity": 0.8740157480314961
          },
          {
            "duration": 2.008548916666669,
            "durationTicks": 1880,
            "midi": 62,
            "name": "D4",
            "ticks": 74880,
            "time": 80.00007599999999,
            "velocity": 0.8818897637795275
          },
          {
            "duration": 0.3632482083333315,
            "durationTicks": 340,
            "midi": 52,
            "name": "E3",
            "ticks": 76080,
            "time": 81.2821285,
            "velocity": 0.9921259842519685
          },
          {
            "duration": 0.3846157499999947,
            "durationTicks": 360,
            "midi": 50,
            "name": "D3",
            "ticks": 76440,
            "time": 81.66674425,
            "velocity": 0.9921259842519685
          },
          {
            "duration": 1.282052500000006,
            "durationTicks": 1200,
            "midi": 49,
            "name": "C#3",
            "ticks": 76800,
            "time": 82.05135999999999,
            "velocity": 0.9133858267716536
          },
          {
            "duration": 1.282052500000006,
            "durationTicks": 1200,
            "midi": 54,
            "name": "F#3",
            "ticks": 76800,
            "time": 82.05135999999999,
            "velocity": 0.9606299212598425
          },
          {
            "duration": 0.7692315000000036,
            "durationTicks": 720,
            "midi": 49,
            "name": "C#3",
            "ticks": 78000,
            "time": 83.3334125,
            "velocity": 0.84251968503937
          },
          {
            "duration": 0.7692315000000036,
            "durationTicks": 720,
            "midi": 54,
            "name": "F#3",
            "ticks": 78000,
            "time": 83.3334125,
            "velocity": 0.8740157480314961
          },
          {
            "duration": 1.2393174166666654,
            "durationTicks": 1160,
            "midi": 50,
            "name": "D3",
            "ticks": 78720,
            "time": 84.102644,
            "velocity": 0.9212598425196851
          },
          {
            "duration": 2.008548916666655,
            "durationTicks": 1880,
            "midi": 57,
            "name": "A3",
            "ticks": 78720,
            "time": 84.102644,
            "velocity": 0.8740157480314961
          },
          {
            "duration": 2.008548916666655,
            "durationTicks": 1880,
            "midi": 62,
            "name": "D4",
            "ticks": 78720,
            "time": 84.102644,
            "velocity": 0.9212598425196851
          },
          {
            "duration": 0.352564437500007,
            "durationTicks": 330,
            "midi": 52,
            "name": "E3",
            "ticks": 79920,
            "time": 85.38469649999999,
            "velocity": 0.9921259842519685
          },
          {
            "duration": 0.3717952249999996,
            "durationTicks": 348,
            "midi": 50,
            "name": "D3",
            "ticks": 80280,
            "time": 85.76931225,
            "velocity": 0.9921259842519685
          },
          {
            "duration": 0.7029921208333434,
            "durationTicks": 658,
            "midi": 49,
            "name": "C#3",
            "ticks": 80640,
            "time": 86.153928,
            "velocity": 0.952755905511811
          },
          {
            "duration": 0.7051288749999998,
            "durationTicks": 660,
            "midi": 56,
            "name": "G#3",
            "ticks": 80640,
            "time": 86.153928,
            "velocity": 0.9921259842519685
          },
          {
            "duration": 0.7051288749999998,
            "durationTicks": 660,
            "midi": 59,
            "name": "B3",
            "ticks": 80640,
            "time": 86.153928,
            "velocity": 0.9921259842519685
          },
          {
            "duration": 0.5128210000000024,
            "durationTicks": 480,
            "midi": 49,
            "name": "C#3",
            "ticks": 81360,
            "time": 86.9231595,
            "velocity": 0.7637795275590551
          },
          {
            "duration": 0.49679534374999434,
            "durationTicks": 465,
            "midi": 56,
            "name": "G#3",
            "ticks": 81360,
            "time": 86.9231595,
            "velocity": 0.9763779527559056
          },
          {
            "duration": 0.49679534374999434,
            "durationTicks": 465,
            "midi": 59,
            "name": "B3",
            "ticks": 81360,
            "time": 86.9231595,
            "velocity": 0.7322834645669292
          },
          {
            "duration": 0.23824808958333676,
            "durationTicks": 223,
            "midi": 49,
            "name": "C#3",
            "ticks": 81840,
            "time": 87.4359805,
            "velocity": 0.6220472440944882
          },
          {
            "duration": 0.23824808958333676,
            "durationTicks": 223,
            "midi": 56,
            "name": "G#3",
            "ticks": 81840,
            "time": 87.4359805,
            "velocity": 0.7874015748031497
          },
          {
            "duration": 0.2329062041666674,
            "durationTicks": 218,
            "midi": 59,
            "name": "B3",
            "ticks": 81840,
            "time": 87.4359805,
            "velocity": 0.6614173228346457
          },
          {
            "duration": 0.16880357916666355,
            "durationTicks": 158,
            "midi": 49,
            "name": "C#3",
            "ticks": 82080,
            "time": 87.692391,
            "velocity": 0.7480314960629921
          },
          {
            "duration": 0.18482923541667162,
            "durationTicks": 173,
            "midi": 56,
            "name": "G#3",
            "ticks": 82080,
            "time": 87.692391,
            "velocity": 0.937007874015748
          },
          {
            "duration": 0.17948734999998806,
            "durationTicks": 168,
            "midi": 59,
            "name": "B3",
            "ticks": 82080,
            "time": 87.692391,
            "velocity": 0.7165354330708661
          },
          {
            "duration": 0.186965989583328,
            "durationTicks": 175,
            "midi": 49,
            "name": "C#3",
            "ticks": 82320,
            "time": 87.9488015,
            "velocity": 0.8110236220472441
          },
          {
            "duration": 0.1976497604166525,
            "durationTicks": 185,
            "midi": 56,
            "name": "G#3",
            "ticks": 82320,
            "time": 87.9488015,
            "velocity": 1
          },
          {
            "duration": 0.19017112083332677,
            "durationTicks": 178,
            "midi": 59,
            "name": "B3",
            "ticks": 82320,
            "time": 87.9488015,
            "velocity": 0.8582677165354331
          },
          {
            "duration": 1.2820525000000202,
            "durationTicks": 1200,
            "midi": 50,
            "name": "D3",
            "ticks": 144000,
            "time": 153.84629999999999,
            "velocity": 0.6614173228346457
          },
          {
            "duration": 2.0299164583333322,
            "durationTicks": 1900,
            "midi": 57,
            "name": "A3",
            "ticks": 144000,
            "time": 153.84629999999999,
            "velocity": 0.5984251968503937
          },
          {
            "duration": 2.0192326874999935,
            "durationTicks": 1890,
            "midi": 62,
            "name": "D4",
            "ticks": 144000,
            "time": 153.84629999999999,
            "velocity": 0.5354330708661418
          },
          {
            "duration": 0.3846157499999947,
            "durationTicks": 360,
            "midi": 52,
            "name": "E3",
            "ticks": 145200,
            "time": 155.1283525,
            "velocity": 0.9921259842519685
          },
          {
            "duration": 0.3846157499999947,
            "durationTicks": 360,
            "midi": 50,
            "name": "D3",
            "ticks": 145560,
            "time": 155.51296825,
            "velocity": 0.9921259842519685
          },
          {
            "duration": 2.0512840000000097,
            "durationTicks": 1920,
            "midi": 49,
            "name": "C#3",
            "ticks": 145920,
            "time": 155.897584,
            "velocity": 0.8818897637795275
          },
          {
            "duration": 2.0512840000000097,
            "durationTicks": 1920,
            "midi": 54,
            "name": "F#3",
            "ticks": 145920,
            "time": 155.897584,
            "velocity": 0.984251968503937
          },
          {
            "duration": 1.2393174166666654,
            "durationTicks": 1160,
            "midi": 50,
            "name": "D3",
            "ticks": 147840,
            "time": 157.948868,
            "velocity": 0.5826771653543307
          },
          {
            "duration": 2.0192326874999935,
            "durationTicks": 1890,
            "midi": 57,
            "name": "A3",
            "ticks": 147840,
            "time": 157.948868,
            "velocity": 0.6377952755905512
          },
          {
            "duration": 2.008548916666655,
            "durationTicks": 1880,
            "midi": 62,
            "name": "D4",
            "ticks": 147840,
            "time": 157.948868,
            "velocity": 0.8976377952755905
          },
          {
            "duration": 0.3846157499999947,
            "durationTicks": 360,
            "midi": 52,
            "name": "E3",
            "ticks": 149040,
            "time": 159.2309205,
            "velocity": 0.9921259842519685
          },
          {
            "duration": 0.3846157499999947,
            "durationTicks": 360,
            "midi": 50,
            "name": "D3",
            "ticks": 149400,
            "time": 159.61553625,
            "velocity": 0.9921259842519685
          },
          {
            "duration": 2.0512840000000097,
            "durationTicks": 1920,
            "midi": 54,
            "name": "F#3",
            "ticks": 149760,
            "time": 160.00015199999999,
            "velocity": 0.9133858267716536
          },
          {
            "duration": 2.0512840000000097,
            "durationTicks": 1920,
            "midi": 57,
            "name": "A3",
            "ticks": 149760,
            "time": 160.00015199999999,
            "velocity": 0.984251968503937
          },
          {
            "duration": 1.1538472499999841,
            "durationTicks": 1080,
            "midi": 50,
            "name": "D3",
            "ticks": 151680,
            "time": 162.051436,
            "velocity": 0.7322834645669292
          },
          {
            "duration": 2.0192326874999935,
            "durationTicks": 1890,
            "midi": 57,
            "name": "A3",
            "ticks": 151680,
            "time": 162.051436,
            "velocity": 0.6771653543307087
          },
          {
            "duration": 2.0085489166666832,
            "durationTicks": 1880,
            "midi": 62,
            "name": "D4",
            "ticks": 151680,
            "time": 162.051436,
            "velocity": 0.7874015748031497
          },
          {
            "duration": 0.3632482083333173,
            "durationTicks": 340,
            "midi": 52,
            "name": "E3",
            "ticks": 152880,
            "time": 163.3334885,
            "velocity": 0.9921259842519685
          },
          {
            "duration": 0.3846157499999947,
            "durationTicks": 360,
            "midi": 50,
            "name": "D3",
            "ticks": 153240,
            "time": 163.71810424999998,
            "velocity": 0.9921259842519685
          },
          {
            "duration": 1.2820525000000202,
            "durationTicks": 1200,
            "midi": 49,
            "name": "C#3",
            "ticks": 153600,
            "time": 164.10271999999998,
            "velocity": 0.889763779527559
          },
          {
            "duration": 1.2820525000000202,
            "durationTicks": 1200,
            "midi": 54,
            "name": "F#3",
            "ticks": 153600,
            "time": 164.10271999999998,
            "velocity": 0.937007874015748
          },
          {
            "duration": 0.7692314999999894,
            "durationTicks": 720,
            "midi": 49,
            "name": "C#3",
            "ticks": 154800,
            "time": 165.3847725,
            "velocity": 0.8188976377952756
          },
          {
            "duration": 0.7692314999999894,
            "durationTicks": 720,
            "midi": 54,
            "name": "F#3",
            "ticks": 154800,
            "time": 165.3847725,
            "velocity": 0.8503937007874016
          },
          {
            "duration": 0.9401718333333235,
            "durationTicks": 880,
            "midi": 50,
            "name": "D3",
            "ticks": 155520,
            "time": 166.154004,
            "velocity": 0.9921259842519685
          },
          {
            "duration": 0.9487188500000059,
            "durationTicks": 888,
            "midi": 57,
            "name": "A3",
            "ticks": 155520,
            "time": 166.154004,
            "velocity": 0.9921259842519685
          },
          {
            "duration": 0.9594026208333446,
            "durationTicks": 898,
            "midi": 62,
            "name": "D4",
            "ticks": 155520,
            "time": 166.154004,
            "velocity": 0.9921259842519685
          },
          {
            "duration": 0.20299164583332185,
            "durationTicks": 190,
            "midi": 50,
            "name": "D3",
            "ticks": 156480,
            "time": 167.179646,
            "velocity": 0.5196850393700787
          },
          {
            "duration": 0.20085489166666548,
            "durationTicks": 188,
            "midi": 57,
            "name": "A3",
            "ticks": 156480,
            "time": 167.179646,
            "velocity": 0.7165354330708661
          },
          {
            "duration": 0.20299164583332185,
            "durationTicks": 190,
            "midi": 62,
            "name": "D4",
            "ticks": 156480,
            "time": 167.179646,
            "velocity": 0.6220472440944882
          },
          {
            "duration": 0.17094033333333414,
            "durationTicks": 160,
            "midi": 50,
            "name": "D3",
            "ticks": 156720,
            "time": 167.43605649999998,
            "velocity": 0.7952755905511811
          },
          {
            "duration": 0.1762822187500035,
            "durationTicks": 165,
            "midi": 57,
            "name": "A3",
            "ticks": 156720,
            "time": 167.43605649999998,
            "velocity": 0.7795275590551181
          },
          {
            "duration": 0.17094033333333414,
            "durationTicks": 160,
            "midi": 62,
            "name": "D4",
            "ticks": 156720,
            "time": 167.43605649999998,
            "velocity": 0.7244094488188977
          },
          {
            "duration": 0.17094033333333414,
            "durationTicks": 160,
            "midi": 50,
            "name": "D3",
            "ticks": 156960,
            "time": 167.692467,
            "velocity": 0.8661417322834646
          },
          {
            "duration": 0.1848292354166574,
            "durationTicks": 173,
            "midi": 57,
            "name": "A3",
            "ticks": 156960,
            "time": 167.692467,
            "velocity": 0.9921259842519685
          },
          {
            "duration": 0.17948735000001648,
            "durationTicks": 168,
            "midi": 62,
            "name": "D4",
            "ticks": 156960,
            "time": 167.692467,
            "velocity": 0.8740157480314961
          },
          {
            "duration": 0.15811980833333905,
            "durationTicks": 148,
            "midi": 50,
            "name": "D3",
            "ticks": 157200,
            "time": 167.94887749999998,
            "velocity": 0.8110236220472441
          },
          {
            "duration": 0.15491467708332607,
            "durationTicks": 145,
            "midi": 57,
            "name": "A3",
            "ticks": 157200,
            "time": 167.94887749999998,
            "velocity": 0.9921259842519685
          },
          {
            "duration": 0.14743603750002876,
            "durationTicks": 138,
            "midi": 62,
            "name": "D4",
            "ticks": 157200,
            "time": 167.94887749999998,
            "velocity": 0.9212598425196851
          },
          {
            "duration": 1.4615398500000083,
            "durationTicks": 1368,
            "midi": 49,
            "name": "C#3",
            "ticks": 157440,
            "time": 168.205288,
            "velocity": 0.9921259842519685
          },
          {
            "duration": 1.4668817354166492,
            "durationTicks": 1373,
            "midi": 56,
            "name": "G#3",
            "ticks": 157440,
            "time": 168.205288,
            "velocity": 0.9921259842519685
          },
          {
            "duration": 1.4615398500000083,
            "durationTicks": 1368,
            "midi": 59,
            "name": "B3",
            "ticks": 157440,
            "time": 168.205288,
            "velocity": 0.9921259842519685
          },
          {
            "duration": 0.19230787499998314,
            "durationTicks": 180,
            "midi": 49,
            "name": "C#3",
            "ticks": 158880,
            "time": 169.743751,
            "velocity": 0.9921259842519685
          },
          {
            "duration": 0.20619677708333484,
            "durationTicks": 193,
            "midi": 56,
            "name": "G#3",
            "ticks": 158880,
            "time": 169.743751,
            "velocity": 0.9921259842519685
          },
          {
            "duration": 0.19551300624999612,
            "durationTicks": 183,
            "midi": 59,
            "name": "B3",
            "ticks": 158880,
            "time": 169.743751,
            "velocity": 0.9921259842519685
          }
        ]
      },
      {
        "channel": 0,
        "controlChanges": {
          "0": [
            {
              "number": 0,
              "ticks": 498,
              "time": 0.5320517875,
              "value": 0
            }
          ],
          "32": [
            {
              "number": 32,
              "ticks": 500,
              "time": 0.5341885416666666,
              "value": 0
            }
          ],
          "121": [
            {
              "number": 121,
              "ticks": 485,
              "time": 0.5181628854166667,
              "value": 0
            }
          ]
        },
        "pitchBends": [],
        "instrument": {
          "family": "piano",
          "number": 0,
          "name": "acoustic grand piano"
        },
        "name": "       ",
        "notes": [],
        "endOfTrackTicks": 274560
      },
      {
        "channel": 1,
        "controlChanges": {
          "6": [
            {
              "number": 6,
              "ticks": 1608,
              "time": 1.71795035,
              "value": 0
            },
            {
              "number": 6,
              "ticks": 1623,
              "time": 1.73397600625,
              "value": 0.031496062992125984
            },
            {
              "number": 6,
              "ticks": 1638,
              "time": 1.7500016624999999,
              "value": 0.06299212598425197
            },
            {
              "number": 6,
              "ticks": 1653,
              "time": 1.76602731875,
              "value": 0.09448818897637795
            },
            {
              "number": 6,
              "ticks": 1668,
              "time": 1.782052975,
              "value": 0.12598425196850394
            },
            {
              "number": 6,
              "ticks": 1683,
              "time": 1.79807863125,
              "value": 0.15748031496062992
            },
            {
              "number": 6,
              "ticks": 1698,
              "time": 1.8141042875,
              "value": 0.1889763779527559
            },
            {
              "number": 6,
              "ticks": 1708,
              "time": 1.8247880583333331,
              "value": 0.2125984251968504
            },
            {
              "number": 6,
              "ticks": 2607,
              "time": 2.78525905625,
              "value": 0.2204724409448819
            },
            {
              "number": 6,
              "ticks": 3056,
              "time": 3.2649603666666662,
              "value": 0.2283464566929134
            },
            {
              "number": 6,
              "ticks": 3507,
              "time": 3.74679843125,
              "value": 0.23622047244094488
            },
            {
              "number": 6,
              "ticks": 3956,
              "time": 4.226499741666666,
              "value": 0.2440944881889764
            },
            {
              "number": 6,
              "ticks": 4405,
              "time": 4.706201052083333,
              "value": 0.25196850393700787
            },
            {
              "number": 6,
              "ticks": 4856,
              "time": 5.188039116666666,
              "value": 0.25984251968503935
            },
            {
              "number": 6,
              "ticks": 5305,
              "time": 5.667740427083333,
              "value": 0.2677165354330709
            },
            {
              "number": 6,
              "ticks": 5754,
              "time": 6.1474417375,
              "value": 0.2755905511811024
            },
            {
              "number": 6,
              "ticks": 6205,
              "time": 6.6292798020833335,
              "value": 0.28346456692913385
            },
            {
              "number": 6,
              "ticks": 6654,
              "time": 7.1089811124999995,
              "value": 0.29133858267716534
            },
            {
              "number": 6,
              "ticks": 7103,
              "time": 7.5886824229166665,
              "value": 0.2992125984251969
            },
            {
              "number": 6,
              "ticks": 7553,
              "time": 8.069452110416666,
              "value": 0.30708661417322836
            },
            {
              "number": 6,
              "ticks": 8003,
              "time": 8.550221797916667,
              "value": 0.31496062992125984
            },
            {
              "number": 6,
              "ticks": 8452,
              "time": 9.029923108333334,
              "value": 0.3228346456692913
            },
            {
              "number": 6,
              "ticks": 8902,
              "time": 9.510692795833334,
              "value": 0.33070866141732286
            },
            {
              "number": 6,
              "ticks": 9352,
              "time": 9.991462483333333,
              "value": 0.33858267716535434
            },
            {
              "number": 6,
              "ticks": 9801,
              "time": 10.47116379375,
              "value": 0.3464566929133858
            },
            {
              "number": 6,
              "ticks": 10251,
              "time": 10.951933481249998,
              "value": 0.3543307086614173
            },
            {
              "number": 6,
              "ticks": 10701,
              "time": 11.432703168749999,
              "value": 0.36220472440944884
            },
            {
              "number": 6,
              "ticks": 11150,
              "time": 11.912404479166666,
              "value": 0.3700787401574803
            },
            {
              "number": 6,
              "ticks": 11600,
              "time": 12.393174166666666,
              "value": 0.3779527559055118
            },
            {
              "number": 6,
              "ticks": 12049,
              "time": 12.872875477083332,
              "value": 0.3858267716535433
            },
            {
              "number": 6,
              "ticks": 12499,
              "time": 13.353645164583332,
              "value": 0.3937007874015748
            },
            {
              "number": 6,
              "ticks": 12949,
              "time": 13.834414852083333,
              "value": 0.4015748031496063
            },
            {
              "number": 6,
              "ticks": 13398,
              "time": 14.3141161625,
              "value": 0.4094488188976378
            },
            {
              "number": 6,
              "ticks": 13848,
              "time": 14.79488585,
              "value": 0.41732283464566927
            },
            {
              "number": 6,
              "ticks": 14298,
              "time": 15.2756555375,
              "value": 0.4251968503937008
            },
            {
              "number": 6,
              "ticks": 14747,
              "time": 15.755356847916666,
              "value": 0.4330708661417323
            },
            {
              "number": 6,
              "ticks": 15197,
              "time": 16.236126535416666,
              "value": 0.4409448818897638
            },
            {
              "number": 6,
              "ticks": 15647,
              "time": 16.716896222916667,
              "value": 0.44881889763779526
            },
            {
              "number": 6,
              "ticks": 16096,
              "time": 17.196597533333332,
              "value": 0.4566929133858268
            },
            {
              "number": 6,
              "ticks": 16546,
              "time": 17.677367220833332,
              "value": 0.4645669291338583
            },
            {
              "number": 6,
              "ticks": 16996,
              "time": 18.158136908333333,
              "value": 0.47244094488188976
            },
            {
              "number": 6,
              "ticks": 17445,
              "time": 18.637838218749998,
              "value": 0.48031496062992124
            },
            {
              "number": 6,
              "ticks": 17895,
              "time": 19.11860790625,
              "value": 0.4881889763779528
            },
            {
              "number": 6,
              "ticks": 18345,
              "time": 19.59937759375,
              "value": 0.49606299212598426
            },
            {
              "number": 6,
              "ticks": 18794,
              "time": 20.079078904166668,
              "value": 0.5039370078740157
            },
            {
              "number": 6,
              "ticks": 19244,
              "time": 20.55984859166667,
              "value": 0.5118110236220472
            },
            {
              "number": 6,
              "ticks": 19694,
              "time": 21.040618279166665,
              "value": 0.5196850393700787
            },
            {
              "number": 6,
              "ticks": 20143,
              "time": 21.52031958958333,
              "value": 0.5275590551181102
            },
            {
              "number": 6,
              "ticks": 20593,
              "time": 22.00108927708333,
              "value": 0.5354330708661418
            },
            {
              "number": 6,
              "ticks": 21042,
              "time": 22.4807905875,
              "value": 0.5433070866141733
            },
            {
              "number": 6,
              "ticks": 21042,
              "time": 22.4807905875,
              "value": 0.5511811023622047
            },
            {
              "number": 6,
              "ticks": 28724,
              "time": 30.688063341666666,
              "value": 0.5433070866141733
            },
            {
              "number": 6,
              "ticks": 36405,
              "time": 38.89426771875,
              "value": 0.5354330708661418
            },
            {
              "number": 6,
              "ticks": 44086,
              "time": 47.10047209583333,
              "value": 0.5275590551181102
            },
            {
              "number": 6,
              "ticks": 51768,
              "time": 55.30774484999999,
              "value": 0.5196850393700787
            },
            {
              "number": 6,
              "ticks": 59449,
              "time": 63.51394922708333,
              "value": 0.5118110236220472
            },
            {
              "number": 6,
              "ticks": 67130,
              "time": 71.72015360416665,
              "value": 0.5039370078740157
            },
            {
              "number": 6,
              "ticks": 69689,
              "time": 74.45413056041666,
              "value": 0.5118110236220472
            },
            {
              "number": 6,
              "ticks": 72248,
              "time": 77.18810751666668,
              "value": 0.5196850393700787
            },
            {
              "number": 6,
              "ticks": 74806,
              "time": 79.92101609583332,
              "value": 0.5275590551181102
            },
            {
              "number": 6,
              "ticks": 77365,
              "time": 82.65499305208333,
              "value": 0.5354330708661418
            },
            {
              "number": 6,
              "ticks": 79924,
              "time": 85.38897000833333,
              "value": 0.5433070866141733
            },
            {
              "number": 6,
              "ticks": 82483,
              "time": 88.12294696458333,
              "value": 0.5511811023622047
            },
            {
              "number": 6,
              "ticks": 92724,
              "time": 99.064196675,
              "value": 0.5433070866141733
            },
            {
              "number": 6,
              "ticks": 102965,
              "time": 110.00544638541666,
              "value": 0.5354330708661418
            },
            {
              "number": 6,
              "ticks": 113206,
              "time": 120.94669609583333,
              "value": 0.5275590551181102
            },
            {
              "number": 6,
              "ticks": 123448,
              "time": 131.88901418333333,
              "value": 0.5196850393700787
            },
            {
              "number": 6,
              "ticks": 133689,
              "time": 142.83026389375,
              "value": 0.5118110236220472
            },
            {
              "number": 6,
              "ticks": 143930,
              "time": 153.77151360416667,
              "value": 0.5039370078740157
            },
            {
              "number": 6,
              "ticks": 146491,
              "time": 156.50762731458335,
              "value": 0.5118110236220472
            },
            {
              "number": 6,
              "ticks": 149053,
              "time": 159.24480940208332,
              "value": 0.5196850393700787
            },
            {
              "number": 6,
              "ticks": 151614,
              "time": 161.9809231125,
              "value": 0.5275590551181102
            },
            {
              "number": 6,
              "ticks": 154175,
              "time": 164.71703682291667,
              "value": 0.5354330708661418
            },
            {
              "number": 6,
              "ticks": 156736,
              "time": 167.45315053333334,
              "value": 0.5433070866141733
            },
            {
              "number": 6,
              "ticks": 159298,
              "time": 170.19033262083332,
              "value": 0.5511811023622047
            }
          ],
          "7": [
            {
              "number": 7,
              "ticks": 505,
              "time": 0.5395304270833333,
              "value": 0.7165354330708661
            }
          ],
          "10": [
            {
              "number": 10,
              "ticks": 505,
              "time": 0.5395304270833333,
              "value": 0.5039370078740157
            }
          ],
          "11": [
            {
              "number": 11,
              "ticks": 1300,
              "time": 1.3888902083333334,
              "value": 1
            },
            {
              "number": 11,
              "ticks": 21035,
              "time": 22.473311947916663,
              "value": 1
            },
            {
              "number": 11,
              "ticks": 67103,
              "time": 71.69130742291667,
              "value": 1
            },
            {
              "number": 11,
              "ticks": 82475,
              "time": 88.11439994791665,
              "value": 1
            },
            {
              "number": 11,
              "ticks": 143925,
              "time": 153.76617171875,
              "value": 1
            },
            {
              "number": 11,
              "ticks": 159283,
              "time": 170.17430696458334,
              "value": 1
            },
            {
              "number": 11,
              "ticks": 259245,
              "time": 276.97141696874996,
              "value": 1
            },
            {
              "number": 11,
              "ticks": 259365,
              "time": 277.09962221874997,
              "value": 0.9921259842519685
            },
            {
              "number": 11,
              "ticks": 259465,
              "time": 277.20645992708336,
              "value": 0.984251968503937
            },
            {
              "number": 11,
              "ticks": 259565,
              "time": 277.31329763541663,
              "value": 0.9763779527559056
            },
            {
              "number": 11,
              "ticks": 259665,
              "time": 277.42013534374996,
              "value": 0.968503937007874
            },
            {
              "number": 11,
              "ticks": 259785,
              "time": 277.54834059374997,
              "value": 0.9606299212598425
            },
            {
              "number": 11,
              "ticks": 259885,
              "time": 277.65517830208336,
              "value": 0.952755905511811
            },
            {
              "number": 11,
              "ticks": 259985,
              "time": 277.76201601041663,
              "value": 0.9448818897637795
            },
            {
              "number": 11,
              "ticks": 260085,
              "time": 277.86885371874996,
              "value": 0.937007874015748
            },
            {
              "number": 11,
              "ticks": 260205,
              "time": 277.99705896874997,
              "value": 0.9291338582677166
            },
            {
              "number": 11,
              "ticks": 260305,
              "time": 278.10389667708336,
              "value": 0.9212598425196851
            },
            {
              "number": 11,
              "ticks": 260405,
              "time": 278.21073438541663,
              "value": 0.9133858267716536
            },
            {
              "number": 11,
              "ticks": 260505,
              "time": 278.31757209374996,
              "value": 0.905511811023622
            },
            {
              "number": 11,
              "ticks": 260625,
              "time": 278.44577734374997,
              "value": 0.8976377952755905
            },
            {
              "number": 11,
              "ticks": 260725,
              "time": 278.55261505208335,
              "value": 0.889763779527559
            },
            {
              "number": 11,
              "ticks": 260825,
              "time": 278.6594527604166,
              "value": 0.8818897637795275
            },
            {
              "number": 11,
              "ticks": 260925,
              "time": 278.76629046874996,
              "value": 0.8740157480314961
            },
            {
              "number": 11,
              "ticks": 261045,
              "time": 278.89449571874997,
              "value": 0.8661417322834646
            },
            {
              "number": 11,
              "ticks": 261145,
              "time": 279.00133342708335,
              "value": 0.8582677165354331
            },
            {
              "number": 11,
              "ticks": 261245,
              "time": 279.1081711354166,
              "value": 0.8503937007874016
            },
            {
              "number": 11,
              "ticks": 261345,
              "time": 279.21500884374996,
              "value": 0.84251968503937
            },
            {
              "number": 11,
              "ticks": 261465,
              "time": 279.34321409374996,
              "value": 0.8346456692913385
            },
            {
              "number": 11,
              "ticks": 261565,
              "time": 279.45005180208335,
              "value": 0.8267716535433071
            },
            {
              "number": 11,
              "ticks": 261665,
              "time": 279.5568895104166,
              "value": 0.8188976377952756
            },
            {
              "number": 11,
              "ticks": 261765,
              "time": 279.66372721875,
              "value": 0.8110236220472441
            },
            {
              "number": 11,
              "ticks": 261885,
              "time": 279.79193246874996,
              "value": 0.8031496062992126
            },
            {
              "number": 11,
              "ticks": 261985,
              "time": 279.89877017708335,
              "value": 0.7952755905511811
            },
            {
              "number": 11,
              "ticks": 262085,
              "time": 280.0056078854166,
              "value": 0.7874015748031497
            },
            {
              "number": 11,
              "ticks": 262185,
              "time": 280.11244559375,
              "value": 0.7795275590551181
            },
            {
              "number": 11,
              "ticks": 262305,
              "time": 280.24065084374996,
              "value": 0.7716535433070866
            },
            {
              "number": 11,
              "ticks": 262405,
              "time": 280.34748855208335,
              "value": 0.7637795275590551
            },
            {
              "number": 11,
              "ticks": 262505,
              "time": 280.4543262604166,
              "value": 0.7559055118110236
            },
            {
              "number": 11,
              "ticks": 262605,
              "time": 280.56116396875,
              "value": 0.7480314960629921
            },
            {
              "number": 11,
              "ticks": 262705,
              "time": 280.66800167708334,
              "value": 0.7401574803149606
            },
            {
              "number": 11,
              "ticks": 262825,
              "time": 280.79620692708335,
              "value": 0.7322834645669292
            },
            {
              "number": 11,
              "ticks": 262925,
              "time": 280.9030446354166,
              "value": 0.7244094488188977
            },
            {
              "number": 11,
              "ticks": 263025,
              "time": 281.00988234375,
              "value": 0.7165354330708661
            },
            {
              "number": 11,
              "ticks": 263125,
              "time": 281.11672005208334,
              "value": 0.7086614173228346
            },
            {
              "number": 11,
              "ticks": 263245,
              "time": 281.24492530208335,
              "value": 0.7007874015748031
            },
            {
              "number": 11,
              "ticks": 263345,
              "time": 281.3517630104166,
              "value": 0.6929133858267716
            },
            {
              "number": 11,
              "ticks": 263445,
              "time": 281.45860071875,
              "value": 0.6850393700787402
            },
            {
              "number": 11,
              "ticks": 263545,
              "time": 281.56543842708334,
              "value": 0.6771653543307087
            },
            {
              "number": 11,
              "ticks": 263665,
              "time": 281.69364367708334,
              "value": 0.6692913385826772
            },
            {
              "number": 11,
              "ticks": 263765,
              "time": 281.8004813854166,
              "value": 0.6614173228346457
            },
            {
              "number": 11,
              "ticks": 263865,
              "time": 281.90731909375,
              "value": 0.6535433070866141
            },
            {
              "number": 11,
              "ticks": 263965,
              "time": 282.01415680208333,
              "value": 0.6456692913385826
            },
            {
              "number": 11,
              "ticks": 264085,
              "time": 282.14236205208334,
              "value": 0.6377952755905512
            },
            {
              "number": 11,
              "ticks": 264185,
              "time": 282.2491997604166,
              "value": 0.6299212598425197
            },
            {
              "number": 11,
              "ticks": 264285,
              "time": 282.35603746875,
              "value": 0.6220472440944882
            },
            {
              "number": 11,
              "ticks": 264385,
              "time": 282.46287517708333,
              "value": 0.6141732283464567
            },
            {
              "number": 11,
              "ticks": 264505,
              "time": 282.59108042708334,
              "value": 0.6062992125984252
            },
            {
              "number": 11,
              "ticks": 264605,
              "time": 282.6979181354166,
              "value": 0.5984251968503937
            },
            {
              "number": 11,
              "ticks": 264705,
              "time": 282.80475584375,
              "value": 0.5905511811023622
            },
            {
              "number": 11,
              "ticks": 264805,
              "time": 282.91159355208333,
              "value": 0.5826771653543307
            },
            {
              "number": 11,
              "ticks": 264925,
              "time": 283.03979880208334,
              "value": 0.5748031496062992
            },
            {
              "number": 11,
              "ticks": 265025,
              "time": 283.1466365104166,
              "value": 0.5669291338582677
            },
            {
              "number": 11,
              "ticks": 265125,
              "time": 283.25347421875,
              "value": 0.5590551181102362
            },
            {
              "number": 11,
              "ticks": 265225,
              "time": 283.36031192708333,
              "value": 0.5511811023622047
            },
            {
              "number": 11,
              "ticks": 265345,
              "time": 283.48851717708334,
              "value": 0.5433070866141733
            },
            {
              "number": 11,
              "ticks": 265445,
              "time": 283.5953548854166,
              "value": 0.5354330708661418
            },
            {
              "number": 11,
              "ticks": 265545,
              "time": 283.70219259375,
              "value": 0.5275590551181102
            },
            {
              "number": 11,
              "ticks": 265645,
              "time": 283.80903030208333,
              "value": 0.5196850393700787
            },
            {
              "number": 11,
              "ticks": 265765,
              "time": 283.93723555208334,
              "value": 0.5118110236220472
            },
            {
              "number": 11,
              "ticks": 265865,
              "time": 284.0440732604166,
              "value": 0.5039370078740157
            },
            {
              "number": 11,
              "ticks": 265965,
              "time": 284.15091096875,
              "value": 0.49606299212598426
            },
            {
              "number": 11,
              "ticks": 266065,
              "time": 284.2577486770833,
              "value": 0.4881889763779528
            },
            {
              "number": 11,
              "ticks": 266165,
              "time": 284.36458638541666,
              "value": 0.48031496062992124
            },
            {
              "number": 11,
              "ticks": 266285,
              "time": 284.4927916354166,
              "value": 0.47244094488188976
            },
            {
              "number": 11,
              "ticks": 266385,
              "time": 284.59962934375,
              "value": 0.4645669291338583
            },
            {
              "number": 11,
              "ticks": 266485,
              "time": 284.7064670520833,
              "value": 0.4566929133858268
            },
            {
              "number": 11,
              "ticks": 266585,
              "time": 284.81330476041666,
              "value": 0.44881889763779526
            },
            {
              "number": 11,
              "ticks": 266705,
              "time": 284.9415100104166,
              "value": 0.4409448818897638
            },
            {
              "number": 11,
              "ticks": 266805,
              "time": 285.04834771875,
              "value": 0.4330708661417323
            },
            {
              "number": 11,
              "ticks": 266905,
              "time": 285.1551854270833,
              "value": 0.4251968503937008
            },
            {
              "number": 11,
              "ticks": 267005,
              "time": 285.26202313541665,
              "value": 0.41732283464566927
            },
            {
              "number": 11,
              "ticks": 267125,
              "time": 285.3902283854166,
              "value": 0.4094488188976378
            },
            {
              "number": 11,
              "ticks": 267225,
              "time": 285.49706609375,
              "value": 0.4015748031496063
            },
            {
              "number": 11,
              "ticks": 267325,
              "time": 285.6039038020833,
              "value": 0.3937007874015748
            },
            {
              "number": 11,
              "ticks": 267425,
              "time": 285.71074151041665,
              "value": 0.3858267716535433
            },
            {
              "number": 11,
              "ticks": 267545,
              "time": 285.8389467604166,
              "value": 0.3779527559055118
            },
            {
              "number": 11,
              "ticks": 267645,
              "time": 285.94578446875,
              "value": 0.3700787401574803
            },
            {
              "number": 11,
              "ticks": 267745,
              "time": 286.0526221770833,
              "value": 0.36220472440944884
            },
            {
              "number": 11,
              "ticks": 267845,
              "time": 286.15945988541665,
              "value": 0.3543307086614173
            },
            {
              "number": 11,
              "ticks": 267965,
              "time": 286.2876651354166,
              "value": 0.3464566929133858
            },
            {
              "number": 11,
              "ticks": 268065,
              "time": 286.39450284375,
              "value": 0.33858267716535434
            },
            {
              "number": 11,
              "ticks": 268165,
              "time": 286.5013405520833,
              "value": 0.33070866141732286
            },
            {
              "number": 11,
              "ticks": 268265,
              "time": 286.60817826041665,
              "value": 0.3228346456692913
            },
            {
              "number": 11,
              "ticks": 268385,
              "time": 286.73638351041666,
              "value": 0.31496062992125984
            },
            {
              "number": 11,
              "ticks": 268485,
              "time": 286.84322121875,
              "value": 0.30708661417322836
            },
            {
              "number": 11,
              "ticks": 268585,
              "time": 286.9500589270833,
              "value": 0.2992125984251969
            },
            {
              "number": 11,
              "ticks": 268685,
              "time": 287.05689663541665,
              "value": 0.29133858267716534
            },
            {
              "number": 11,
              "ticks": 268805,
              "time": 287.18510188541666,
              "value": 0.28346456692913385
            },
            {
              "number": 11,
              "ticks": 268905,
              "time": 287.29193959375,
              "value": 0.2755905511811024
            },
            {
              "number": 11,
              "ticks": 269005,
              "time": 287.3987773020833,
              "value": 0.2677165354330709
            },
            {
              "number": 11,
              "ticks": 269105,
              "time": 287.50561501041665,
              "value": 0.25984251968503935
            },
            {
              "number": 11,
              "ticks": 269225,
              "time": 287.63382026041666,
              "value": 0.25196850393700787
            },
            {
              "number": 11,
              "ticks": 269325,
              "time": 287.74065796875,
              "value": 0.2440944881889764
            },
            {
              "number": 11,
              "ticks": 269425,
              "time": 287.8474956770833,
              "value": 0.23622047244094488
            },
            {
              "number": 11,
              "ticks": 269525,
              "time": 287.95433338541665,
              "value": 0.2283464566929134
            },
            {
              "number": 11,
              "ticks": 269625,
              "time": 288.06117109375,
              "value": 0.2204724409448819
            },
            {
              "number": 11,
              "ticks": 269745,
              "time": 288.18937634375,
              "value": 0.2125984251968504
            },
            {
              "number": 11,
              "ticks": 269845,
              "time": 288.2962140520833,
              "value": 0.2047244094488189
            },
            {
              "number": 11,
              "ticks": 269945,
              "time": 288.40305176041664,
              "value": 0.1968503937007874
            },
            {
              "number": 11,
              "ticks": 270045,
              "time": 288.50988946875,
              "value": 0.1889763779527559
            },
            {
              "number": 11,
              "ticks": 270165,
              "time": 288.63809471875,
              "value": 0.18110236220472442
            },
            {
              "number": 11,
              "ticks": 270265,
              "time": 288.7449324270833,
              "value": 0.1732283464566929
            },
            {
              "number": 11,
              "ticks": 270365,
              "time": 288.85177013541664,
              "value": 0.16535433070866143
            },
            {
              "number": 11,
              "ticks": 270465,
              "time": 288.95860784375,
              "value": 0.15748031496062992
            },
            {
              "number": 11,
              "ticks": 270585,
              "time": 289.08681309375,
              "value": 0.14960629921259844
            },
            {
              "number": 11,
              "ticks": 270685,
              "time": 289.1936508020833,
              "value": 0.14173228346456693
            },
            {
              "number": 11,
              "ticks": 270785,
              "time": 289.30048851041664,
              "value": 0.13385826771653545
            },
            {
              "number": 11,
              "ticks": 270885,
              "time": 289.40732621875,
              "value": 0.12598425196850394
            },
            {
              "number": 11,
              "ticks": 271005,
              "time": 289.53553146875,
              "value": 0.11811023622047244
            },
            {
              "number": 11,
              "ticks": 271105,
              "time": 289.6423691770833,
              "value": 0.11023622047244094
            },
            {
              "number": 11,
              "ticks": 271205,
              "time": 289.74920688541664,
              "value": 0.10236220472440945
            },
            {
              "number": 11,
              "ticks": 271305,
              "time": 289.85604459374997,
              "value": 0.09448818897637795
            },
            {
              "number": 11,
              "ticks": 271425,
              "time": 289.98424984375,
              "value": 0.08661417322834646
            },
            {
              "number": 11,
              "ticks": 271525,
              "time": 290.0910875520833,
              "value": 0.07874015748031496
            },
            {
              "number": 11,
              "ticks": 271625,
              "time": 290.19792526041664,
              "value": 0.07086614173228346
            },
            {
              "number": 11,
              "ticks": 271725,
              "time": 290.30476296874997,
              "value": 0.06299212598425197
            },
            {
              "number": 11,
              "ticks": 271845,
              "time": 290.43296821875,
              "value": 0.05511811023622047
            },
            {
              "number": 11,
              "ticks": 271945,
              "time": 290.53980592708336,
              "value": 0.047244094488188976
            },
            {
              "number": 11,
              "ticks": 272045,
              "time": 290.64664363541664,
              "value": 0.03937007874015748
            },
            {
              "number": 11,
              "ticks": 272145,
              "time": 290.75348134374997,
              "value": 0.031496062992125984
            },
            {
              "number": 11,
              "ticks": 272265,
              "time": 290.88168659375,
              "value": 0.023622047244094488
            },
            {
              "number": 11,
              "ticks": 272365,
              "time": 290.98852430208336,
              "value": 0.015748031496062992
            },
            {
              "number": 11,
              "ticks": 272465,
              "time": 291.09536201041664,
              "value": 0.007874015748031496
            },
            {
              "number": 11,
              "ticks": 272565,
              "time": 291.20219971874997,
              "value": 0
            }
          ],
          "38": [
            {
              "number": 38,
              "ticks": 1610,
              "time": 1.7200871041666665,
              "value": 0
            },
            {
              "number": 38,
              "ticks": 1710,
              "time": 1.8269248125,
              "value": 0
            },
            {
              "number": 38,
              "ticks": 21045,
              "time": 22.48399571875,
              "value": 0
            },
            {
              "number": 38,
              "ticks": 67133,
              "time": 71.72335873541667,
              "value": 0
            },
            {
              "number": 38,
              "ticks": 82485,
              "time": 88.12508371874999,
              "value": 0
            },
            {
              "number": 38,
              "ticks": 143933,
              "time": 153.77471873541666,
              "value": 0
            },
            {
              "number": 38,
              "ticks": 159300,
              "time": 170.192469375,
              "value": 0
            }
          ],
          "91": [
            {
              "number": 91,
              "ticks": 965,
              "time": 1.0309838854166666,
              "value": 0.23622047244094488
            }
          ],
          "93": [
            {
              "number": 93,
              "ticks": 1085,
              "time": 1.1591891354166666,
              "value": 0
            }
          ],
          "98": [
            {
              "number": 98,
              "ticks": 1605,
              "time": 1.7147452187499999,
              "value": 0.7795275590551181
            },
            {
              "number": 98,
              "ticks": 1620,
              "time": 1.730770875,
              "value": 0.7007874015748031
            },
            {
              "number": 98,
              "ticks": 1635,
              "time": 1.74679653125,
              "value": 0.6220472440944882
            },
            {
              "number": 98,
              "ticks": 1650,
              "time": 1.7628221874999999,
              "value": 0.5433070866141733
            },
            {
              "number": 98,
              "ticks": 1665,
              "time": 1.77884784375,
              "value": 0.4645669291338583
            },
            {
              "number": 98,
              "ticks": 1680,
              "time": 1.7948735,
              "value": 0.3858267716535433
            },
            {
              "number": 98,
              "ticks": 1695,
              "time": 1.8108991562499999,
              "value": 0.30708661417322836
            },
            {
              "number": 98,
              "ticks": 1705,
              "time": 1.8215829270833332,
              "value": 0.25196850393700787
            },
            {
              "number": 98,
              "ticks": 21040,
              "time": 22.478653833333333,
              "value": 0.25984251968503935
            },
            {
              "number": 98,
              "ticks": 67128,
              "time": 71.71801685,
              "value": 0.25984251968503935
            },
            {
              "number": 98,
              "ticks": 82480,
              "time": 88.11974183333334,
              "value": 0.25984251968503935
            },
            {
              "number": 98,
              "ticks": 143928,
              "time": 153.76937685000001,
              "value": 0.25984251968503935
            },
            {
              "number": 98,
              "ticks": 159295,
              "time": 170.1871274895833,
              "value": 0.25984251968503935
            }
          ],
          "99": [
            {
              "number": 99,
              "ticks": 1603,
              "time": 1.712608464583333,
              "value": 0.007874015748031496
            },
            {
              "number": 99,
              "ticks": 1703,
              "time": 1.8194461729166664,
              "value": 0.007874015748031496
            },
            {
              "number": 99,
              "ticks": 21038,
              "time": 22.476517079166666,
              "value": 0.007874015748031496
            },
            {
              "number": 99,
              "ticks": 67125,
              "time": 71.71481171875,
              "value": 0.007874015748031496
            },
            {
              "number": 99,
              "ticks": 82478,
              "time": 88.11760507916667,
              "value": 0.007874015748031496
            },
            {
              "number": 99,
              "ticks": 143925,
              "time": 153.76617171875,
              "value": 0.007874015748031496
            },
            {
              "number": 99,
              "ticks": 159293,
              "time": 170.18499073541665,
              "value": 0.007874015748031496
            }
          ],
          "120": [
            {
              "number": 120,
              "ticks": 273285,
              "time": 291.97143121874996,
              "value": 0
            }
          ],
          "123": [
            {
              "number": 123,
              "ticks": 273355,
              "time": 292.0462176145833,
              "value": 0
            }
          ]
        },
        "pitchBends": [
          {
            "ticks": 69023,
            "time": 73.74259142291668,
            "value": 0.40625
          },
          {
            "ticks": 69030,
            "time": 73.7500700625,
            "value": 0.4185791015625
          },
          {
            "ticks": 69038,
            "time": 73.75861707916667,
            "value": 0.430908203125
          },
          {
            "ticks": 69045,
            "time": 73.76609571875,
            "value": 0.4432373046875
          },
          {
            "ticks": 69053,
            "time": 73.77464273541666,
            "value": 0.45556640625
          },
          {
            "ticks": 69060,
            "time": 73.782121375,
            "value": 0.4678955078125
          },
          {
            "ticks": 69068,
            "time": 73.79066839166667,
            "value": 0.480224609375
          },
          {
            "ticks": 69070,
            "time": 73.79280514583333,
            "value": 0.484375
          },
          {
            "ticks": 69078,
            "time": 73.8013521625,
            "value": 0.536376953125
          },
          {
            "ticks": 69085,
            "time": 73.80883080208334,
            "value": 0.5885009765625
          },
          {
            "ticks": 69093,
            "time": 73.81737781874999,
            "value": 0.640625
          },
          {
            "ticks": 69100,
            "time": 73.82485645833333,
            "value": 0.560546875
          },
          {
            "ticks": 69108,
            "time": 73.833403475,
            "value": 0.48046875
          },
          {
            "ticks": 69115,
            "time": 73.84088211458334,
            "value": 0.400390625
          },
          {
            "ticks": 69123,
            "time": 73.84942913124999,
            "value": 0.3203125
          },
          {
            "ticks": 69130,
            "time": 73.85690777083333,
            "value": 0.240234375
          },
          {
            "ticks": 69138,
            "time": 73.8654547875,
            "value": 0.16015625
          },
          {
            "ticks": 69145,
            "time": 73.87293342708334,
            "value": 0.080078125
          },
          {
            "ticks": 69153,
            "time": 73.88148044375,
            "value": 0
          },
          {
            "ticks": 69160,
            "time": 73.88895908333333,
            "value": 0.0003662109375
          },
          {
            "ticks": 69168,
            "time": 73.89750609999999,
            "value": 0.000732421875
          },
          {
            "ticks": 69175,
            "time": 73.90498473958334,
            "value": 0.001220703125
          },
          {
            "ticks": 69183,
            "time": 73.91353175625,
            "value": 0.0015869140625
          },
          {
            "ticks": 69190,
            "time": 73.92101039583333,
            "value": 0.0020751953125
          },
          {
            "ticks": 69198,
            "time": 73.92955741249999,
            "value": 0.00244140625
          },
          {
            "ticks": 69205,
            "time": 73.93703605208333,
            "value": 0.0028076171875
          },
          {
            "ticks": 69213,
            "time": 73.94558306875,
            "value": 0.0032958984375
          },
          {
            "ticks": 69220,
            "time": 73.95306170833334,
            "value": 0.003662109375
          },
          {
            "ticks": 69228,
            "time": 73.96160872499999,
            "value": 0.004150390625
          },
          {
            "ticks": 69235,
            "time": 73.96908736458333,
            "value": 0.0045166015625
          },
          {
            "ticks": 69243,
            "time": 73.97763438125,
            "value": 0.0048828125
          },
          {
            "ticks": 69250,
            "time": 73.98511302083334,
            "value": 0.00537109375
          },
          {
            "ticks": 69258,
            "time": 73.99366003749999,
            "value": 0.0057373046875
          },
          {
            "ticks": 69265,
            "time": 74.00113867708333,
            "value": 0.0062255859375
          },
          {
            "ticks": 69273,
            "time": 74.00968569374999,
            "value": 0.006591796875
          },
          {
            "ticks": 69280,
            "time": 74.01716433333334,
            "value": 0.0069580078125
          },
          {
            "ticks": 69288,
            "time": 74.02571135,
            "value": 0.0074462890625
          },
          {
            "ticks": 69295,
            "time": 74.03318998958333,
            "value": 0.0078125
          },
          {
            "ticks": 69303,
            "time": 74.04173700624999,
            "value": 0.00830078125
          },
          {
            "ticks": 69310,
            "time": 74.04921564583333,
            "value": 0.0086669921875
          },
          {
            "ticks": 69318,
            "time": 74.0577626625,
            "value": 0.009033203125
          },
          {
            "ticks": 69325,
            "time": 74.06524130208334,
            "value": 0.009521484375
          },
          {
            "ticks": 69333,
            "time": 74.07378831874999,
            "value": 0.0098876953125
          },
          {
            "ticks": 69340,
            "time": 74.08126695833333,
            "value": 0.0103759765625
          },
          {
            "ticks": 69348,
            "time": 74.089813975,
            "value": 0.0107421875
          },
          {
            "ticks": 69355,
            "time": 74.09729261458334,
            "value": 0.0111083984375
          },
          {
            "ticks": 69363,
            "time": 74.10583963124999,
            "value": 0.0115966796875
          },
          {
            "ticks": 69370,
            "time": 74.11331827083333,
            "value": 0.011962890625
          },
          {
            "ticks": 69378,
            "time": 74.12186528749999,
            "value": 0.012451171875
          },
          {
            "ticks": 69385,
            "time": 74.12934392708334,
            "value": 0.0128173828125
          },
          {
            "ticks": 69393,
            "time": 74.13789094375,
            "value": 0.01318359375
          },
          {
            "ticks": 69400,
            "time": 74.14536958333333,
            "value": 0.013671875
          },
          {
            "ticks": 69408,
            "time": 74.15391659999999,
            "value": 0.0140380859375
          },
          {
            "ticks": 69415,
            "time": 74.16139523958333,
            "value": 0.0145263671875
          },
          {
            "ticks": 69423,
            "time": 74.16994225625,
            "value": 0.014892578125
          },
          {
            "ticks": 69430,
            "time": 74.17742089583334,
            "value": 0.0152587890625
          },
          {
            "ticks": 69438,
            "time": 74.18596791249999,
            "value": 0.0157470703125
          },
          {
            "ticks": 69445,
            "time": 74.19344655208333,
            "value": 0.01611328125
          },
          {
            "ticks": 69453,
            "time": 74.20199356875,
            "value": 0.0166015625
          },
          {
            "ticks": 69460,
            "time": 74.20947220833334,
            "value": 0.0169677734375
          },
          {
            "ticks": 69468,
            "time": 74.21801922499999,
            "value": 0.017333984375
          },
          {
            "ticks": 69475,
            "time": 74.22549786458333,
            "value": 0.017822265625
          },
          {
            "ticks": 69483,
            "time": 74.23404488125,
            "value": 0.0181884765625
          },
          {
            "ticks": 69490,
            "time": 74.24152352083334,
            "value": 0.0186767578125
          },
          {
            "ticks": 69498,
            "time": 74.2500705375,
            "value": 0.01904296875
          },
          {
            "ticks": 69505,
            "time": 74.25754917708333,
            "value": 0.0194091796875
          },
          {
            "ticks": 69513,
            "time": 74.26609619374999,
            "value": 0.0198974609375
          },
          {
            "ticks": 69520,
            "time": 74.27357483333333,
            "value": 0.020263671875
          },
          {
            "ticks": 69528,
            "time": 74.28212185,
            "value": 0.020751953125
          },
          {
            "ticks": 69535,
            "time": 74.28960048958334,
            "value": 0.0211181640625
          },
          {
            "ticks": 69543,
            "time": 74.29814750624999,
            "value": 0.021484375
          },
          {
            "ticks": 69550,
            "time": 74.30562614583333,
            "value": 0.02197265625
          },
          {
            "ticks": 69558,
            "time": 74.3141731625,
            "value": 0.0223388671875
          },
          {
            "ticks": 69565,
            "time": 74.32165180208334,
            "value": 0.0228271484375
          },
          {
            "ticks": 69573,
            "time": 74.33019881874999,
            "value": 0.023193359375
          },
          {
            "ticks": 69580,
            "time": 74.33767745833333,
            "value": 0.0235595703125
          },
          {
            "ticks": 69588,
            "time": 74.346224475,
            "value": 0.0240478515625
          },
          {
            "ticks": 69595,
            "time": 74.35370311458334,
            "value": 0.0244140625
          },
          {
            "ticks": 69603,
            "time": 74.36225013125,
            "value": 0.02490234375
          },
          {
            "ticks": 69610,
            "time": 74.36972877083333,
            "value": 0.0252685546875
          },
          {
            "ticks": 69618,
            "time": 74.37827578749999,
            "value": 0.025634765625
          },
          {
            "ticks": 69625,
            "time": 74.38575442708333,
            "value": 0.026123046875
          },
          {
            "ticks": 69633,
            "time": 74.39430144375,
            "value": 0.0264892578125
          },
          {
            "ticks": 69640,
            "time": 74.40178008333334,
            "value": 0.0269775390625
          },
          {
            "ticks": 69648,
            "time": 74.41032709999999,
            "value": 0.02734375
          },
          {
            "ticks": 69655,
            "time": 74.41780573958333,
            "value": 0.0277099609375
          },
          {
            "ticks": 69663,
            "time": 74.42635275625,
            "value": 0.0281982421875
          },
          {
            "ticks": 69670,
            "time": 74.43383139583334,
            "value": 0.028564453125
          },
          {
            "ticks": 69678,
            "time": 74.44237841249999,
            "value": 0.029052734375
          },
          {
            "ticks": 69685,
            "time": 74.44985705208333,
            "value": 0.0294189453125
          },
          {
            "ticks": 69693,
            "time": 74.45840406875,
            "value": 0.02978515625
          },
          {
            "ticks": 69700,
            "time": 74.46588270833334,
            "value": 0.0302734375
          },
          {
            "ticks": 69708,
            "time": 74.474429725,
            "value": 0.0306396484375
          },
          {
            "ticks": 69715,
            "time": 74.48190836458333,
            "value": 0.0311279296875
          },
          {
            "ticks": 69723,
            "time": 74.49045538124999,
            "value": 0.031494140625
          },
          {
            "ticks": 69730,
            "time": 74.49793402083333,
            "value": 0.0318603515625
          },
          {
            "ticks": 69738,
            "time": 74.5064810375,
            "value": 0.0323486328125
          },
          {
            "ticks": 69745,
            "time": 74.51395967708334,
            "value": 0.03271484375
          },
          {
            "ticks": 69753,
            "time": 74.52250669374999,
            "value": 0.033203125
          },
          {
            "ticks": 69760,
            "time": 74.52998533333333,
            "value": 0.0335693359375
          },
          {
            "ticks": 69768,
            "time": 74.53853235,
            "value": 0.033935546875
          },
          {
            "ticks": 69775,
            "time": 74.54601098958334,
            "value": 0.034423828125
          },
          {
            "ticks": 69783,
            "time": 74.55455800624999,
            "value": 0.0347900390625
          },
          {
            "ticks": 69790,
            "time": 74.56203664583333,
            "value": 0.0352783203125
          },
          {
            "ticks": 69798,
            "time": 74.5705836625,
            "value": 0.03564453125
          },
          {
            "ticks": 69805,
            "time": 74.57806230208334,
            "value": 0.0360107421875
          },
          {
            "ticks": 69813,
            "time": 74.58660931874999,
            "value": 0.0364990234375
          },
          {
            "ticks": 69820,
            "time": 74.59408795833333,
            "value": 0.036865234375
          },
          {
            "ticks": 69828,
            "time": 74.60263497499999,
            "value": 0.037353515625
          },
          {
            "ticks": 69835,
            "time": 74.61011361458334,
            "value": 0.0377197265625
          },
          {
            "ticks": 69843,
            "time": 74.61866063125,
            "value": 0.0380859375
          },
          {
            "ticks": 69850,
            "time": 74.62613927083333,
            "value": 0.03857421875
          },
          {
            "ticks": 69858,
            "time": 74.63468628749999,
            "value": 0.0389404296875
          },
          {
            "ticks": 69865,
            "time": 74.64216492708333,
            "value": 0.0394287109375
          },
          {
            "ticks": 69873,
            "time": 74.65071194375,
            "value": 0.039794921875
          },
          {
            "ticks": 69880,
            "time": 74.65819058333334,
            "value": 0.0401611328125
          },
          {
            "ticks": 69888,
            "time": 74.66673759999999,
            "value": 0.0406494140625
          },
          {
            "ticks": 69895,
            "time": 74.67421623958333,
            "value": 0.041015625
          },
          {
            "ticks": 69903,
            "time": 74.68276325625,
            "value": 0.04150390625
          },
          {
            "ticks": 69910,
            "time": 74.69024189583334,
            "value": 0.0418701171875
          },
          {
            "ticks": 69918,
            "time": 74.69878891249999,
            "value": 0.042236328125
          },
          {
            "ticks": 69925,
            "time": 74.70626755208333,
            "value": 0.042724609375
          },
          {
            "ticks": 69933,
            "time": 74.71481456874999,
            "value": 0.0430908203125
          },
          {
            "ticks": 69940,
            "time": 74.72229320833334,
            "value": 0.0435791015625
          },
          {
            "ticks": 69948,
            "time": 74.730840225,
            "value": 0.0439453125
          },
          {
            "ticks": 69955,
            "time": 74.73831886458333,
            "value": 0.0443115234375
          },
          {
            "ticks": 69963,
            "time": 74.74686588124999,
            "value": 0.0447998046875
          },
          {
            "ticks": 69970,
            "time": 74.75434452083333,
            "value": 0.045166015625
          },
          {
            "ticks": 69978,
            "time": 74.7628915375,
            "value": 0.045654296875
          },
          {
            "ticks": 69985,
            "time": 74.77037017708334,
            "value": 0.0460205078125
          },
          {
            "ticks": 69993,
            "time": 74.77891719374999,
            "value": 0.04638671875
          },
          {
            "ticks": 70000,
            "time": 74.78639583333333,
            "value": 0.046875
          },
          {
            "ticks": 70008,
            "time": 74.79494285,
            "value": 0.0472412109375
          },
          {
            "ticks": 70015,
            "time": 74.80242148958334,
            "value": 0.0477294921875
          },
          {
            "ticks": 70023,
            "time": 74.81096850624999,
            "value": 0.048095703125
          },
          {
            "ticks": 70030,
            "time": 74.81844714583333,
            "value": 0.0484619140625
          },
          {
            "ticks": 70038,
            "time": 74.82699416249999,
            "value": 0.0489501953125
          },
          {
            "ticks": 70045,
            "time": 74.83447280208334,
            "value": 0.04931640625
          },
          {
            "ticks": 70053,
            "time": 74.84301981875,
            "value": 0.0498046875
          },
          {
            "ticks": 70060,
            "time": 74.85049845833333,
            "value": 0.0501708984375
          },
          {
            "ticks": 70068,
            "time": 74.85904547499999,
            "value": 0.050537109375
          },
          {
            "ticks": 70075,
            "time": 74.86652411458333,
            "value": 0.051025390625
          },
          {
            "ticks": 70083,
            "time": 74.87507113125,
            "value": 0.0513916015625
          },
          {
            "ticks": 70090,
            "time": 74.88254977083334,
            "value": 0.0518798828125
          },
          {
            "ticks": 70098,
            "time": 74.89109678749999,
            "value": 0.05224609375
          },
          {
            "ticks": 70105,
            "time": 74.89857542708333,
            "value": 0.0526123046875
          },
          {
            "ticks": 70113,
            "time": 74.90712244375,
            "value": 0.0531005859375
          },
          {
            "ticks": 70120,
            "time": 74.91460108333334,
            "value": 0.053466796875
          },
          {
            "ticks": 70128,
            "time": 74.92314809999999,
            "value": 0.053955078125
          },
          {
            "ticks": 70135,
            "time": 74.93062673958333,
            "value": 0.0543212890625
          },
          {
            "ticks": 70143,
            "time": 74.93917375625,
            "value": 0.0546875
          },
          {
            "ticks": 70150,
            "time": 74.94665239583334,
            "value": 0.05517578125
          },
          {
            "ticks": 70158,
            "time": 74.9551994125,
            "value": 0.0555419921875
          },
          {
            "ticks": 70165,
            "time": 74.96267805208333,
            "value": 0.0560302734375
          },
          {
            "ticks": 70173,
            "time": 74.97122506874999,
            "value": 0.056396484375
          },
          {
            "ticks": 70180,
            "time": 74.97870370833333,
            "value": 0.0567626953125
          },
          {
            "ticks": 70188,
            "time": 74.987250725,
            "value": 0.0572509765625
          },
          {
            "ticks": 70195,
            "time": 74.99472936458334,
            "value": 0.0576171875
          },
          {
            "ticks": 70203,
            "time": 75.00327638124999,
            "value": 0.05810546875
          },
          {
            "ticks": 70210,
            "time": 75.01075502083333,
            "value": 0.0584716796875
          },
          {
            "ticks": 70218,
            "time": 75.0193020375,
            "value": 0.058837890625
          },
          {
            "ticks": 70225,
            "time": 75.02678067708334,
            "value": 0.059326171875
          },
          {
            "ticks": 70233,
            "time": 75.03532769374999,
            "value": 0.0596923828125
          },
          {
            "ticks": 70240,
            "time": 75.04280633333333,
            "value": 0.0601806640625
          },
          {
            "ticks": 70248,
            "time": 75.05135335,
            "value": 0.060546875
          },
          {
            "ticks": 70255,
            "time": 75.05883198958334,
            "value": 0.0609130859375
          },
          {
            "ticks": 70263,
            "time": 75.06737900625,
            "value": 0.0614013671875
          },
          {
            "ticks": 70270,
            "time": 75.07485764583333,
            "value": 0.061767578125
          },
          {
            "ticks": 70278,
            "time": 75.08340466249999,
            "value": 0.062255859375
          },
          {
            "ticks": 70285,
            "time": 75.09088330208333,
            "value": 0.0626220703125
          },
          {
            "ticks": 70293,
            "time": 75.09943031875,
            "value": 0.06298828125
          },
          {
            "ticks": 70300,
            "time": 75.10690895833334,
            "value": 0.0634765625
          },
          {
            "ticks": 70308,
            "time": 75.11545597499999,
            "value": 0.0638427734375
          },
          {
            "ticks": 70315,
            "time": 75.12293461458333,
            "value": 0.0643310546875
          },
          {
            "ticks": 70323,
            "time": 75.13148163125,
            "value": 0.064697265625
          },
          {
            "ticks": 70330,
            "time": 75.13896027083334,
            "value": 0.0650634765625
          },
          {
            "ticks": 70338,
            "time": 75.14750728749999,
            "value": 0.0655517578125
          },
          {
            "ticks": 70345,
            "time": 75.15498592708333,
            "value": 0.06591796875
          },
          {
            "ticks": 70353,
            "time": 75.16353294375,
            "value": 0.06640625
          },
          {
            "ticks": 70360,
            "time": 75.17101158333334,
            "value": 0.0667724609375
          },
          {
            "ticks": 70368,
            "time": 75.1795586,
            "value": 0.067138671875
          },
          {
            "ticks": 70375,
            "time": 75.18703723958333,
            "value": 0.067626953125
          },
          {
            "ticks": 70383,
            "time": 75.19558425624999,
            "value": 0.0679931640625
          },
          {
            "ticks": 70390,
            "time": 75.20306289583334,
            "value": 0.0684814453125
          },
          {
            "ticks": 70398,
            "time": 75.2116099125,
            "value": 0.06884765625
          },
          {
            "ticks": 70405,
            "time": 75.21908855208333,
            "value": 0.0692138671875
          },
          {
            "ticks": 70413,
            "time": 75.22763556874999,
            "value": 0.0697021484375
          },
          {
            "ticks": 70420,
            "time": 75.23511420833333,
            "value": 0.070068359375
          },
          {
            "ticks": 70428,
            "time": 75.243661225,
            "value": 0.070556640625
          },
          {
            "ticks": 70435,
            "time": 75.25113986458334,
            "value": 0.0709228515625
          },
          {
            "ticks": 70443,
            "time": 75.25968688124999,
            "value": 0.0712890625
          },
          {
            "ticks": 70450,
            "time": 75.26716552083333,
            "value": 0.07177734375
          },
          {
            "ticks": 70458,
            "time": 75.2757125375,
            "value": 0.0721435546875
          },
          {
            "ticks": 70465,
            "time": 75.28319117708334,
            "value": 0.0726318359375
          },
          {
            "ticks": 70473,
            "time": 75.29173819374999,
            "value": 0.072998046875
          },
          {
            "ticks": 70480,
            "time": 75.29921683333333,
            "value": 0.0733642578125
          },
          {
            "ticks": 70488,
            "time": 75.30776384999999,
            "value": 0.0738525390625
          },
          {
            "ticks": 70495,
            "time": 75.31524248958334,
            "value": 0.07421875
          },
          {
            "ticks": 70503,
            "time": 75.32378950625,
            "value": 0.07470703125
          },
          {
            "ticks": 70510,
            "time": 75.33126814583333,
            "value": 0.0750732421875
          },
          {
            "ticks": 70518,
            "time": 75.33981516249999,
            "value": 0.075439453125
          },
          {
            "ticks": 70525,
            "time": 75.34729380208333,
            "value": 0.075927734375
          },
          {
            "ticks": 70533,
            "time": 75.35584081875,
            "value": 0.0762939453125
          },
          {
            "ticks": 70540,
            "time": 75.36331945833334,
            "value": 0.0767822265625
          },
          {
            "ticks": 70548,
            "time": 75.37186647499999,
            "value": 0.0771484375
          },
          {
            "ticks": 70555,
            "time": 75.37934511458333,
            "value": 0.0775146484375
          },
          {
            "ticks": 70563,
            "time": 75.38789213125,
            "value": 0.0780029296875
          },
          {
            "ticks": 70570,
            "time": 75.39537077083334,
            "value": 0.078369140625
          },
          {
            "ticks": 70578,
            "time": 75.40391778749999,
            "value": 0.078857421875
          },
          {
            "ticks": 70585,
            "time": 75.41139642708333,
            "value": 0.0792236328125
          },
          {
            "ticks": 70593,
            "time": 75.41994344374999,
            "value": 0.07958984375
          },
          {
            "ticks": 70600,
            "time": 75.42742208333334,
            "value": 0.080078125
          },
          {
            "ticks": 70608,
            "time": 75.4359691,
            "value": 0.0804443359375
          },
          {
            "ticks": 70615,
            "time": 75.44344773958333,
            "value": 0.0809326171875
          },
          {
            "ticks": 70623,
            "time": 75.45199475624999,
            "value": 0.081298828125
          },
          {
            "ticks": 70630,
            "time": 75.45947339583333,
            "value": 0.0816650390625
          },
          {
            "ticks": 70638,
            "time": 75.4680204125,
            "value": 0.0821533203125
          },
          {
            "ticks": 70645,
            "time": 75.47549905208334,
            "value": 0.08251953125
          },
          {
            "ticks": 70653,
            "time": 75.48404606874999,
            "value": 0.0830078125
          },
          {
            "ticks": 70660,
            "time": 75.49152470833333,
            "value": 0.0833740234375
          },
          {
            "ticks": 70668,
            "time": 75.500071725,
            "value": 0.083740234375
          },
          {
            "ticks": 70675,
            "time": 75.50755036458334,
            "value": 0.084228515625
          },
          {
            "ticks": 70683,
            "time": 75.51609738124999,
            "value": 0.0845947265625
          },
          {
            "ticks": 70690,
            "time": 75.52357602083333,
            "value": 0.0850830078125
          },
          {
            "ticks": 70698,
            "time": 75.5321230375,
            "value": 0.08544921875
          },
          {
            "ticks": 70705,
            "time": 75.53960167708334,
            "value": 0.0858154296875
          },
          {
            "ticks": 70713,
            "time": 75.54814869375,
            "value": 0.0863037109375
          },
          {
            "ticks": 70720,
            "time": 75.55562733333333,
            "value": 0.086669921875
          },
          {
            "ticks": 70728,
            "time": 75.56417434999999,
            "value": 0.087158203125
          },
          {
            "ticks": 70735,
            "time": 75.57165298958333,
            "value": 0.0875244140625
          },
          {
            "ticks": 70743,
            "time": 75.58020000625,
            "value": 0.087890625
          },
          {
            "ticks": 70750,
            "time": 75.58767864583334,
            "value": 0.08837890625
          },
          {
            "ticks": 70758,
            "time": 75.59622566249999,
            "value": 0.0887451171875
          },
          {
            "ticks": 70765,
            "time": 75.60370430208333,
            "value": 0.0892333984375
          },
          {
            "ticks": 70773,
            "time": 75.61225131875,
            "value": 0.089599609375
          },
          {
            "ticks": 70780,
            "time": 75.61972995833334,
            "value": 0.0899658203125
          },
          {
            "ticks": 70788,
            "time": 75.62827697499999,
            "value": 0.0904541015625
          },
          {
            "ticks": 70795,
            "time": 75.63575561458333,
            "value": 0.0908203125
          },
          {
            "ticks": 70803,
            "time": 75.64430263125,
            "value": 0.09130859375
          },
          {
            "ticks": 70810,
            "time": 75.65178127083334,
            "value": 0.0916748046875
          },
          {
            "ticks": 70818,
            "time": 75.6603282875,
            "value": 0.092041015625
          },
          {
            "ticks": 70825,
            "time": 75.66780692708333,
            "value": 0.092529296875
          },
          {
            "ticks": 70833,
            "time": 75.67635394374999,
            "value": 0.0928955078125
          },
          {
            "ticks": 70840,
            "time": 75.68383258333333,
            "value": 0.0933837890625
          },
          {
            "ticks": 70848,
            "time": 75.6923796,
            "value": 0.09375
          },
          {
            "ticks": 70855,
            "time": 75.69985823958334,
            "value": 0.0941162109375
          },
          {
            "ticks": 70863,
            "time": 75.70840525624999,
            "value": 0.0946044921875
          },
          {
            "ticks": 70870,
            "time": 75.71588389583333,
            "value": 0.094970703125
          },
          {
            "ticks": 70878,
            "time": 75.7244309125,
            "value": 0.095458984375
          },
          {
            "ticks": 70885,
            "time": 75.73190955208334,
            "value": 0.0958251953125
          },
          {
            "ticks": 70893,
            "time": 75.74045656874999,
            "value": 0.09619140625
          },
          {
            "ticks": 70900,
            "time": 75.74793520833333,
            "value": 0.0966796875
          },
          {
            "ticks": 70908,
            "time": 75.756482225,
            "value": 0.0970458984375
          },
          {
            "ticks": 70915,
            "time": 75.76396086458334,
            "value": 0.0975341796875
          },
          {
            "ticks": 70923,
            "time": 75.77250788125,
            "value": 0.097900390625
          },
          {
            "ticks": 70930,
            "time": 75.77998652083333,
            "value": 0.0982666015625
          },
          {
            "ticks": 70938,
            "time": 75.78853353749999,
            "value": 0.0987548828125
          },
          {
            "ticks": 70945,
            "time": 75.79601217708334,
            "value": 0.09912109375
          },
          {
            "ticks": 70953,
            "time": 75.80455919375,
            "value": 0.099609375
          },
          {
            "ticks": 70960,
            "time": 75.81203783333333,
            "value": 0.0999755859375
          },
          {
            "ticks": 70968,
            "time": 75.82058484999999,
            "value": 0.100341796875
          },
          {
            "ticks": 70975,
            "time": 75.82806348958333,
            "value": 0.100830078125
          },
          {
            "ticks": 70983,
            "time": 75.83661050625,
            "value": 0.1011962890625
          },
          {
            "ticks": 70990,
            "time": 75.84408914583334,
            "value": 0.1016845703125
          },
          {
            "ticks": 70998,
            "time": 75.85263616249999,
            "value": 0.10205078125
          },
          {
            "ticks": 71005,
            "time": 75.86011480208333,
            "value": 0.1024169921875
          },
          {
            "ticks": 71013,
            "time": 75.86866181875,
            "value": 0.1029052734375
          },
          {
            "ticks": 71020,
            "time": 75.87614045833334,
            "value": 0.103271484375
          },
          {
            "ticks": 71028,
            "time": 75.88468747499999,
            "value": 0.103759765625
          },
          {
            "ticks": 71035,
            "time": 75.89216611458333,
            "value": 0.1041259765625
          },
          {
            "ticks": 71043,
            "time": 75.90071313124999,
            "value": 0.1044921875
          },
          {
            "ticks": 71050,
            "time": 75.90819177083334,
            "value": 0.10498046875
          },
          {
            "ticks": 71058,
            "time": 75.9167387875,
            "value": 0.1053466796875
          },
          {
            "ticks": 71065,
            "time": 75.92421742708333,
            "value": 0.1058349609375
          },
          {
            "ticks": 71073,
            "time": 75.93276444374999,
            "value": 0.106201171875
          },
          {
            "ticks": 71080,
            "time": 75.94024308333333,
            "value": 0.1065673828125
          },
          {
            "ticks": 71088,
            "time": 75.9487901,
            "value": 0.1070556640625
          },
          {
            "ticks": 71095,
            "time": 75.95626873958334,
            "value": 0.107421875
          },
          {
            "ticks": 71103,
            "time": 75.96481575624999,
            "value": 0.10791015625
          },
          {
            "ticks": 71110,
            "time": 75.97229439583333,
            "value": 0.1082763671875
          },
          {
            "ticks": 71118,
            "time": 75.9808414125,
            "value": 0.108642578125
          },
          {
            "ticks": 71125,
            "time": 75.98832005208334,
            "value": 0.109130859375
          },
          {
            "ticks": 71133,
            "time": 75.99686706874999,
            "value": 0.1094970703125
          },
          {
            "ticks": 71140,
            "time": 76.00434570833333,
            "value": 0.1099853515625
          },
          {
            "ticks": 71148,
            "time": 76.01289272499999,
            "value": 0.1103515625
          },
          {
            "ticks": 71155,
            "time": 76.02037136458334,
            "value": 0.1107177734375
          },
          {
            "ticks": 71163,
            "time": 76.02891838125,
            "value": 0.1112060546875
          },
          {
            "ticks": 71170,
            "time": 76.03639702083333,
            "value": 0.111572265625
          },
          {
            "ticks": 71178,
            "time": 76.04494403749999,
            "value": 0.112060546875
          },
          {
            "ticks": 71185,
            "time": 76.05242267708333,
            "value": 0.1124267578125
          },
          {
            "ticks": 71193,
            "time": 76.06096969375,
            "value": 0.11279296875
          },
          {
            "ticks": 71200,
            "time": 76.06844833333334,
            "value": 0.11328125
          },
          {
            "ticks": 71208,
            "time": 76.07699534999999,
            "value": 0.1136474609375
          },
          {
            "ticks": 71215,
            "time": 76.08447398958333,
            "value": 0.1141357421875
          },
          {
            "ticks": 71223,
            "time": 76.09302100625,
            "value": 0.114501953125
          },
          {
            "ticks": 71230,
            "time": 76.10049964583334,
            "value": 0.1148681640625
          },
          {
            "ticks": 71238,
            "time": 76.10904666249999,
            "value": 0.1153564453125
          },
          {
            "ticks": 71245,
            "time": 76.11652530208333,
            "value": 0.11572265625
          },
          {
            "ticks": 71253,
            "time": 76.12507231874999,
            "value": 0.1162109375
          },
          {
            "ticks": 71260,
            "time": 76.13255095833334,
            "value": 0.1165771484375
          },
          {
            "ticks": 71268,
            "time": 76.141097975,
            "value": 0.116943359375
          },
          {
            "ticks": 71275,
            "time": 76.14857661458333,
            "value": 0.117431640625
          },
          {
            "ticks": 71283,
            "time": 76.15712363124999,
            "value": 0.1177978515625
          },
          {
            "ticks": 71290,
            "time": 76.16460227083333,
            "value": 0.1182861328125
          },
          {
            "ticks": 71298,
            "time": 76.1731492875,
            "value": 0.11865234375
          },
          {
            "ticks": 71305,
            "time": 76.18062792708334,
            "value": 0.1190185546875
          },
          {
            "ticks": 71313,
            "time": 76.18917494374999,
            "value": 0.1195068359375
          },
          {
            "ticks": 71320,
            "time": 76.19665358333333,
            "value": 0.119873046875
          },
          {
            "ticks": 71328,
            "time": 76.2052006,
            "value": 0.120361328125
          },
          {
            "ticks": 71335,
            "time": 76.21267923958334,
            "value": 0.1207275390625
          },
          {
            "ticks": 71343,
            "time": 76.22122625624999,
            "value": 0.12109375
          },
          {
            "ticks": 71350,
            "time": 76.22870489583333,
            "value": 0.12158203125
          },
          {
            "ticks": 71358,
            "time": 76.2372519125,
            "value": 0.1219482421875
          },
          {
            "ticks": 71365,
            "time": 76.24473055208334,
            "value": 0.1224365234375
          },
          {
            "ticks": 71373,
            "time": 76.25327756875,
            "value": 0.122802734375
          },
          {
            "ticks": 71380,
            "time": 76.26075620833333,
            "value": 0.1231689453125
          },
          {
            "ticks": 71388,
            "time": 76.26930322499999,
            "value": 0.1236572265625
          },
          {
            "ticks": 71395,
            "time": 76.27678186458333,
            "value": 0.1240234375
          },
          {
            "ticks": 71403,
            "time": 76.28532888125,
            "value": 0.12451171875
          },
          {
            "ticks": 71410,
            "time": 76.29280752083334,
            "value": 0.1248779296875
          },
          {
            "ticks": 71418,
            "time": 76.30135453749999,
            "value": 0.125244140625
          },
          {
            "ticks": 71425,
            "time": 76.30883317708333,
            "value": 0.125732421875
          },
          {
            "ticks": 71433,
            "time": 76.31738019375,
            "value": 0.1260986328125
          },
          {
            "ticks": 71440,
            "time": 76.32485883333334,
            "value": 0.1265869140625
          },
          {
            "ticks": 71448,
            "time": 76.33340584999999,
            "value": 0.126953125
          },
          {
            "ticks": 71455,
            "time": 76.34088448958333,
            "value": 0.1273193359375
          },
          {
            "ticks": 71463,
            "time": 76.34943150625,
            "value": 0.1278076171875
          },
          {
            "ticks": 71470,
            "time": 76.35691014583334,
            "value": 0.128173828125
          },
          {
            "ticks": 71478,
            "time": 76.3654571625,
            "value": 0.128662109375
          },
          {
            "ticks": 71485,
            "time": 76.37293580208333,
            "value": 0.1290283203125
          },
          {
            "ticks": 71493,
            "time": 76.38148281874999,
            "value": 0.12939453125
          },
          {
            "ticks": 71500,
            "time": 76.38896145833333,
            "value": 0.1298828125
          },
          {
            "ticks": 71508,
            "time": 76.397508475,
            "value": 0.1302490234375
          },
          {
            "ticks": 71515,
            "time": 76.40498711458334,
            "value": 0.1307373046875
          },
          {
            "ticks": 71523,
            "time": 76.41353413124999,
            "value": 0.131103515625
          },
          {
            "ticks": 71530,
            "time": 76.42101277083333,
            "value": 0.1314697265625
          },
          {
            "ticks": 71538,
            "time": 76.4295597875,
            "value": 0.1319580078125
          },
          {
            "ticks": 71545,
            "time": 76.43703842708334,
            "value": 0.13232421875
          },
          {
            "ticks": 71553,
            "time": 76.44558544374999,
            "value": 0.1328125
          },
          {
            "ticks": 71560,
            "time": 76.45306408333333,
            "value": 0.1331787109375
          },
          {
            "ticks": 71568,
            "time": 76.4616111,
            "value": 0.133544921875
          },
          {
            "ticks": 71575,
            "time": 76.46908973958334,
            "value": 0.134033203125
          },
          {
            "ticks": 71583,
            "time": 76.47763675624999,
            "value": 0.1343994140625
          },
          {
            "ticks": 71590,
            "time": 76.48511539583333,
            "value": 0.1348876953125
          },
          {
            "ticks": 71598,
            "time": 76.49366241249999,
            "value": 0.13525390625
          },
          {
            "ticks": 71605,
            "time": 76.50114105208334,
            "value": 0.1356201171875
          },
          {
            "ticks": 71613,
            "time": 76.50968806875,
            "value": 0.1361083984375
          },
          {
            "ticks": 71620,
            "time": 76.51716670833333,
            "value": 0.136474609375
          },
          {
            "ticks": 71628,
            "time": 76.52571372499999,
            "value": 0.136962890625
          },
          {
            "ticks": 71635,
            "time": 76.53319236458333,
            "value": 0.1373291015625
          },
          {
            "ticks": 71643,
            "time": 76.54173938125,
            "value": 0.1376953125
          },
          {
            "ticks": 71650,
            "time": 76.54921802083334,
            "value": 0.13818359375
          },
          {
            "ticks": 71658,
            "time": 76.55776503749999,
            "value": 0.1385498046875
          },
          {
            "ticks": 71665,
            "time": 76.56524367708333,
            "value": 0.1390380859375
          },
          {
            "ticks": 71673,
            "time": 76.57379069375,
            "value": 0.139404296875
          },
          {
            "ticks": 71680,
            "time": 76.58126933333334,
            "value": 0.1397705078125
          },
          {
            "ticks": 71688,
            "time": 76.58981634999999,
            "value": 0.1402587890625
          },
          {
            "ticks": 71695,
            "time": 76.59729498958333,
            "value": 0.140625
          },
          {
            "ticks": 71703,
            "time": 76.60584200624999,
            "value": 0.14111328125
          },
          {
            "ticks": 71710,
            "time": 76.61332064583334,
            "value": 0.1414794921875
          },
          {
            "ticks": 71718,
            "time": 76.6218676625,
            "value": 0.141845703125
          },
          {
            "ticks": 71725,
            "time": 76.62934630208333,
            "value": 0.142333984375
          },
          {
            "ticks": 71733,
            "time": 76.63789331874999,
            "value": 0.1427001953125
          },
          {
            "ticks": 71740,
            "time": 76.64537195833333,
            "value": 0.1431884765625
          },
          {
            "ticks": 71748,
            "time": 76.653918975,
            "value": 0.1435546875
          },
          {
            "ticks": 71755,
            "time": 76.66139761458334,
            "value": 0.1439208984375
          },
          {
            "ticks": 71763,
            "time": 76.66994463124999,
            "value": 0.1444091796875
          },
          {
            "ticks": 71770,
            "time": 76.67742327083333,
            "value": 0.144775390625
          },
          {
            "ticks": 71778,
            "time": 76.6859702875,
            "value": 0.145263671875
          },
          {
            "ticks": 71785,
            "time": 76.69344892708334,
            "value": 0.1456298828125
          },
          {
            "ticks": 71793,
            "time": 76.70199594374999,
            "value": 0.14599609375
          },
          {
            "ticks": 71800,
            "time": 76.70947458333333,
            "value": 0.146484375
          },
          {
            "ticks": 71808,
            "time": 76.71802159999999,
            "value": 0.1468505859375
          },
          {
            "ticks": 71815,
            "time": 76.72550023958334,
            "value": 0.1473388671875
          },
          {
            "ticks": 71823,
            "time": 76.73404725625,
            "value": 0.147705078125
          },
          {
            "ticks": 71830,
            "time": 76.74152589583333,
            "value": 0.1480712890625
          },
          {
            "ticks": 71838,
            "time": 76.75007291249999,
            "value": 0.1485595703125
          },
          {
            "ticks": 71845,
            "time": 76.75755155208333,
            "value": 0.14892578125
          },
          {
            "ticks": 71853,
            "time": 76.76609856875,
            "value": 0.1494140625
          },
          {
            "ticks": 71860,
            "time": 76.77357720833334,
            "value": 0.1497802734375
          },
          {
            "ticks": 71868,
            "time": 76.78212422499999,
            "value": 0.150146484375
          },
          {
            "ticks": 71875,
            "time": 76.78960286458333,
            "value": 0.150634765625
          },
          {
            "ticks": 71883,
            "time": 76.79814988125,
            "value": 0.1510009765625
          },
          {
            "ticks": 71890,
            "time": 76.80562852083334,
            "value": 0.1514892578125
          },
          {
            "ticks": 71898,
            "time": 76.81417553749999,
            "value": 0.15185546875
          },
          {
            "ticks": 71905,
            "time": 76.82165417708333,
            "value": 0.15234375
          },
          {
            "ticks": 71913,
            "time": 76.83020119375,
            "value": 0.1527099609375
          },
          {
            "ticks": 71920,
            "time": 76.83767983333334,
            "value": 0.153076171875
          },
          {
            "ticks": 71928,
            "time": 76.84622685,
            "value": 0.153564453125
          },
          {
            "ticks": 71935,
            "time": 76.85370548958333,
            "value": 0.1539306640625
          },
          {
            "ticks": 71943,
            "time": 76.86225250624999,
            "value": 0.1544189453125
          },
          {
            "ticks": 71950,
            "time": 76.86973114583333,
            "value": 0.15478515625
          },
          {
            "ticks": 71958,
            "time": 76.8782781625,
            "value": 0.1551513671875
          },
          {
            "ticks": 71965,
            "time": 76.88575680208334,
            "value": 0.1556396484375
          },
          {
            "ticks": 71973,
            "time": 76.89430381874999,
            "value": 0.156005859375
          },
          {
            "ticks": 71980,
            "time": 76.90178245833333,
            "value": 0.156494140625
          },
          {
            "ticks": 71988,
            "time": 76.910329475,
            "value": 0.1568603515625
          },
          {
            "ticks": 71995,
            "time": 76.91780811458334,
            "value": 0.1572265625
          },
          {
            "ticks": 72003,
            "time": 76.92635513124999,
            "value": 0.15771484375
          },
          {
            "ticks": 72010,
            "time": 76.93383377083333,
            "value": 0.1580810546875
          },
          {
            "ticks": 72018,
            "time": 76.9423807875,
            "value": 0.1585693359375
          },
          {
            "ticks": 72025,
            "time": 76.94985942708334,
            "value": 0.158935546875
          },
          {
            "ticks": 72033,
            "time": 76.95840644375,
            "value": 0.1593017578125
          },
          {
            "ticks": 72040,
            "time": 76.96588508333333,
            "value": 0.1597900390625
          },
          {
            "ticks": 72048,
            "time": 76.97443209999999,
            "value": 0.16015625
          },
          {
            "ticks": 72055,
            "time": 76.98191073958333,
            "value": 0.16064453125
          },
          {
            "ticks": 72063,
            "time": 76.99045775625,
            "value": 0.1610107421875
          },
          {
            "ticks": 72070,
            "time": 76.99793639583334,
            "value": 0.161376953125
          },
          {
            "ticks": 72078,
            "time": 77.00648341249999,
            "value": 0.161865234375
          },
          {
            "ticks": 72085,
            "time": 77.01396205208333,
            "value": 0.1622314453125
          },
          {
            "ticks": 72093,
            "time": 77.02250906875,
            "value": 0.1627197265625
          },
          {
            "ticks": 72100,
            "time": 77.02998770833334,
            "value": 0.1630859375
          },
          {
            "ticks": 72108,
            "time": 77.03853472499999,
            "value": 0.1634521484375
          },
          {
            "ticks": 72115,
            "time": 77.04601336458333,
            "value": 0.1639404296875
          },
          {
            "ticks": 72123,
            "time": 77.05456038125,
            "value": 0.164306640625
          },
          {
            "ticks": 72130,
            "time": 77.06203902083334,
            "value": 0.164794921875
          },
          {
            "ticks": 72138,
            "time": 77.0705860375,
            "value": 0.1651611328125
          },
          {
            "ticks": 72145,
            "time": 77.07806467708333,
            "value": 0.16552734375
          },
          {
            "ticks": 72153,
            "time": 77.08661169374999,
            "value": 0.166015625
          },
          {
            "ticks": 72160,
            "time": 77.09409033333334,
            "value": 0.1663818359375
          },
          {
            "ticks": 72168,
            "time": 77.10263735,
            "value": 0.1668701171875
          },
          {
            "ticks": 72175,
            "time": 77.11011598958333,
            "value": 0.167236328125
          },
          {
            "ticks": 72183,
            "time": 77.11866300624999,
            "value": 0.1676025390625
          },
          {
            "ticks": 72190,
            "time": 77.12614164583333,
            "value": 0.1680908203125
          },
          {
            "ticks": 72198,
            "time": 77.1346886625,
            "value": 0.16845703125
          },
          {
            "ticks": 72205,
            "time": 77.14216730208334,
            "value": 0.1689453125
          },
          {
            "ticks": 72213,
            "time": 77.15071431874999,
            "value": 0.1693115234375
          },
          {
            "ticks": 72220,
            "time": 77.15819295833333,
            "value": 0.169677734375
          },
          {
            "ticks": 72228,
            "time": 77.166739975,
            "value": 0.170166015625
          },
          {
            "ticks": 72235,
            "time": 77.17421861458334,
            "value": 0.1705322265625
          },
          {
            "ticks": 72243,
            "time": 77.18276563124999,
            "value": 0.1710205078125
          },
          {
            "ticks": 72250,
            "time": 77.19024427083333,
            "value": 0.17138671875
          },
          {
            "ticks": 72258,
            "time": 77.19879128749999,
            "value": 0.1717529296875
          },
          {
            "ticks": 72265,
            "time": 77.20626992708334,
            "value": 0.1722412109375
          },
          {
            "ticks": 72273,
            "time": 77.21481694375,
            "value": 0.172607421875
          },
          {
            "ticks": 72280,
            "time": 77.22229558333333,
            "value": 0.173095703125
          },
          {
            "ticks": 72288,
            "time": 77.23084259999999,
            "value": 0.1734619140625
          },
          {
            "ticks": 72295,
            "time": 77.23832123958333,
            "value": 0.173828125
          },
          {
            "ticks": 72303,
            "time": 77.24686825625,
            "value": 0.17431640625
          },
          {
            "ticks": 72310,
            "time": 77.25434689583334,
            "value": 0.1746826171875
          },
          {
            "ticks": 72318,
            "time": 77.26289391249999,
            "value": 0.1751708984375
          },
          {
            "ticks": 72325,
            "time": 77.27037255208333,
            "value": 0.175537109375
          },
          {
            "ticks": 72333,
            "time": 77.27891956875,
            "value": 0.1759033203125
          },
          {
            "ticks": 72340,
            "time": 77.28639820833334,
            "value": 0.1763916015625
          },
          {
            "ticks": 72348,
            "time": 77.29494522499999,
            "value": 0.1767578125
          },
          {
            "ticks": 72355,
            "time": 77.30242386458333,
            "value": 0.17724609375
          },
          {
            "ticks": 72363,
            "time": 77.31097088124999,
            "value": 0.1776123046875
          },
          {
            "ticks": 72370,
            "time": 77.31844952083334,
            "value": 0.177978515625
          },
          {
            "ticks": 72378,
            "time": 77.3269965375,
            "value": 0.178466796875
          },
          {
            "ticks": 72385,
            "time": 77.33447517708333,
            "value": 0.1788330078125
          },
          {
            "ticks": 72393,
            "time": 77.34302219374999,
            "value": 0.1793212890625
          },
          {
            "ticks": 72400,
            "time": 77.35050083333333,
            "value": 0.1796875
          },
          {
            "ticks": 72408,
            "time": 77.35904785,
            "value": 0.1800537109375
          },
          {
            "ticks": 72415,
            "time": 77.36652648958334,
            "value": 0.1805419921875
          },
          {
            "ticks": 72423,
            "time": 77.37507350624999,
            "value": 0.180908203125
          },
          {
            "ticks": 72430,
            "time": 77.38255214583333,
            "value": 0.181396484375
          },
          {
            "ticks": 72438,
            "time": 77.3910991625,
            "value": 0.1817626953125
          },
          {
            "ticks": 72445,
            "time": 77.39857780208334,
            "value": 0.18212890625
          },
          {
            "ticks": 72453,
            "time": 77.40712481874999,
            "value": 0.1826171875
          },
          {
            "ticks": 72460,
            "time": 77.41460345833333,
            "value": 0.1829833984375
          },
          {
            "ticks": 72468,
            "time": 77.42315047499999,
            "value": 0.1834716796875
          },
          {
            "ticks": 72475,
            "time": 77.43062911458334,
            "value": 0.183837890625
          },
          {
            "ticks": 72483,
            "time": 77.43917613125,
            "value": 0.1842041015625
          },
          {
            "ticks": 72490,
            "time": 77.44665477083333,
            "value": 0.1846923828125
          },
          {
            "ticks": 72498,
            "time": 77.45520178749999,
            "value": 0.18505859375
          },
          {
            "ticks": 72505,
            "time": 77.46268042708333,
            "value": 0.185546875
          },
          {
            "ticks": 72513,
            "time": 77.47122744375,
            "value": 0.1859130859375
          },
          {
            "ticks": 72520,
            "time": 77.47870608333334,
            "value": 0.186279296875
          },
          {
            "ticks": 72528,
            "time": 77.48725309999999,
            "value": 0.186767578125
          },
          {
            "ticks": 72535,
            "time": 77.49473173958333,
            "value": 0.1871337890625
          },
          {
            "ticks": 72543,
            "time": 77.50327875625,
            "value": 0.1876220703125
          },
          {
            "ticks": 72550,
            "time": 77.51075739583334,
            "value": 0.18798828125
          },
          {
            "ticks": 72558,
            "time": 77.51930441249999,
            "value": 0.1883544921875
          },
          {
            "ticks": 72565,
            "time": 77.52678305208333,
            "value": 0.1888427734375
          },
          {
            "ticks": 72573,
            "time": 77.53533006875,
            "value": 0.189208984375
          },
          {
            "ticks": 72580,
            "time": 77.54280870833334,
            "value": 0.189697265625
          },
          {
            "ticks": 72588,
            "time": 77.551355725,
            "value": 0.1900634765625
          },
          {
            "ticks": 72595,
            "time": 77.55883436458333,
            "value": 0.1904296875
          },
          {
            "ticks": 72603,
            "time": 77.56738138124999,
            "value": 0.19091796875
          },
          {
            "ticks": 72610,
            "time": 77.57486002083333,
            "value": 0.1912841796875
          },
          {
            "ticks": 72618,
            "time": 77.5834070375,
            "value": 0.1917724609375
          },
          {
            "ticks": 72625,
            "time": 77.59088567708334,
            "value": 0.192138671875
          },
          {
            "ticks": 72633,
            "time": 77.59943269374999,
            "value": 0.1925048828125
          },
          {
            "ticks": 72640,
            "time": 77.60691133333333,
            "value": 0.1929931640625
          },
          {
            "ticks": 72648,
            "time": 77.61545835,
            "value": 0.193359375
          },
          {
            "ticks": 72655,
            "time": 77.62293698958334,
            "value": 0.19384765625
          },
          {
            "ticks": 72663,
            "time": 77.63148400624999,
            "value": 0.1942138671875
          },
          {
            "ticks": 72670,
            "time": 77.63896264583333,
            "value": 0.194580078125
          },
          {
            "ticks": 72678,
            "time": 77.6475096625,
            "value": 0.195068359375
          },
          {
            "ticks": 72685,
            "time": 77.65498830208334,
            "value": 0.1954345703125
          },
          {
            "ticks": 72693,
            "time": 77.66353531875,
            "value": 0.1959228515625
          },
          {
            "ticks": 72700,
            "time": 77.67101395833333,
            "value": 0.1962890625
          },
          {
            "ticks": 72708,
            "time": 77.67956097499999,
            "value": 0.1966552734375
          },
          {
            "ticks": 72715,
            "time": 77.68703961458333,
            "value": 0.1971435546875
          },
          {
            "ticks": 72723,
            "time": 77.69558663125,
            "value": 0.197509765625
          },
          {
            "ticks": 72730,
            "time": 77.70306527083333,
            "value": 0.197998046875
          },
          {
            "ticks": 72738,
            "time": 77.71161228749999,
            "value": 0.1983642578125
          },
          {
            "ticks": 72745,
            "time": 77.71909092708333,
            "value": 0.19873046875
          },
          {
            "ticks": 72753,
            "time": 77.72763794375,
            "value": 0.19921875
          },
          {
            "ticks": 72760,
            "time": 77.73511658333334,
            "value": 0.1995849609375
          },
          {
            "ticks": 72768,
            "time": 77.74366359999999,
            "value": 0.2000732421875
          },
          {
            "ticks": 72775,
            "time": 77.75114223958333,
            "value": 0.200439453125
          },
          {
            "ticks": 72783,
            "time": 77.75968925625,
            "value": 0.2008056640625
          },
          {
            "ticks": 72790,
            "time": 77.76716789583334,
            "value": 0.2012939453125
          },
          {
            "ticks": 72798,
            "time": 77.77571491249999,
            "value": 0.20166015625
          },
          {
            "ticks": 72805,
            "time": 77.78319355208333,
            "value": 0.2021484375
          },
          {
            "ticks": 72813,
            "time": 77.79174056874999,
            "value": 0.2025146484375
          },
          {
            "ticks": 72820,
            "time": 77.79921920833334,
            "value": 0.202880859375
          },
          {
            "ticks": 72823,
            "time": 77.80242433958333,
            "value": 0.203125
          },
          {
            "ticks": 72829,
            "time": 77.80883460208332,
            "value": 0.3155517578125
          },
          {
            "ticks": 72835,
            "time": 77.81524486458333,
            "value": 0.4375
          },
          {
            "ticks": 72843,
            "time": 77.82379188124999,
            "value": 0.6048583984375
          },
          {
            "ticks": 72850,
            "time": 77.83127052083333,
            "value": 0.772216796875
          },
          {
            "ticks": 72853,
            "time": 77.83447565208333,
            "value": 0.828125
          },
          {
            "ticks": 72860,
            "time": 77.84195429166665,
            "value": 0.846435546875
          },
          {
            "ticks": 72868,
            "time": 77.85050130833334,
            "value": 0.8648681640625
          },
          {
            "ticks": 72875,
            "time": 77.85797994791666,
            "value": 0.88330078125
          },
          {
            "ticks": 72883,
            "time": 77.86652696458333,
            "value": 0.9017333984375
          },
          {
            "ticks": 72890,
            "time": 77.87400560416665,
            "value": 0.9200439453125
          },
          {
            "ticks": 72898,
            "time": 77.88255262083334,
            "value": 0.9384765625
          },
          {
            "ticks": 72905,
            "time": 77.89003126041666,
            "value": 0.9569091796875
          },
          {
            "ticks": 72913,
            "time": 77.89857827708333,
            "value": 0.975341796875
          },
          {
            "ticks": 72920,
            "time": 77.90605691666666,
            "value": 0.99365234375
          },
          {
            "ticks": 72923,
            "time": 77.90926204791667,
            "value": 0.9998779296875
          },
          {
            "ticks": 72930,
            "time": 77.9167406875,
            "value": 0.896484375
          },
          {
            "ticks": 72938,
            "time": 77.92528770416666,
            "value": 0.7930908203125
          },
          {
            "ticks": 72945,
            "time": 77.93276634374999,
            "value": 0.6895751953125
          },
          {
            "ticks": 72953,
            "time": 77.94131336041667,
            "value": 0.586181640625
          },
          {
            "ticks": 72960,
            "time": 77.948792,
            "value": 0.4827880859375
          },
          {
            "ticks": 72968,
            "time": 77.95733901666667,
            "value": 0.3792724609375
          },
          {
            "ticks": 72975,
            "time": 77.96481765624999,
            "value": 0.27587890625
          },
          {
            "ticks": 72983,
            "time": 77.97336467291667,
            "value": 0.1724853515625
          },
          {
            "ticks": 72990,
            "time": 77.9808433125,
            "value": 0.0689697265625
          },
          {
            "ticks": 72995,
            "time": 77.98618519791665,
            "value": 0
          },
          {
            "ticks": 73003,
            "time": 77.99473221458334,
            "value": 0.0008544921875
          },
          {
            "ticks": 73010,
            "time": 78.00221085416666,
            "value": 0.0018310546875
          },
          {
            "ticks": 73018,
            "time": 78.01075787083333,
            "value": 0.0028076171875
          },
          {
            "ticks": 73025,
            "time": 78.01823651041666,
            "value": 0.0037841796875
          },
          {
            "ticks": 73033,
            "time": 78.02678352708332,
            "value": 0.0047607421875
          },
          {
            "ticks": 73040,
            "time": 78.03426216666666,
            "value": 0.005615234375
          },
          {
            "ticks": 73048,
            "time": 78.04280918333333,
            "value": 0.006591796875
          },
          {
            "ticks": 73055,
            "time": 78.05028782291666,
            "value": 0.007568359375
          },
          {
            "ticks": 73063,
            "time": 78.05883483958333,
            "value": 0.008544921875
          },
          {
            "ticks": 73070,
            "time": 78.06631347916665,
            "value": 0.009521484375
          },
          {
            "ticks": 73078,
            "time": 78.07486049583333,
            "value": 0.0103759765625
          },
          {
            "ticks": 73085,
            "time": 78.08233913541666,
            "value": 0.0113525390625
          },
          {
            "ticks": 73093,
            "time": 78.09088615208333,
            "value": 0.0123291015625
          },
          {
            "ticks": 73100,
            "time": 78.09836479166665,
            "value": 0.0133056640625
          },
          {
            "ticks": 73108,
            "time": 78.10691180833334,
            "value": 0.0142822265625
          },
          {
            "ticks": 73115,
            "time": 78.11439044791666,
            "value": 0.01513671875
          },
          {
            "ticks": 73123,
            "time": 78.12293746458333,
            "value": 0.01611328125
          },
          {
            "ticks": 73130,
            "time": 78.13041610416666,
            "value": 0.01708984375
          },
          {
            "ticks": 73138,
            "time": 78.13896312083332,
            "value": 0.01806640625
          },
          {
            "ticks": 73145,
            "time": 78.14644176041666,
            "value": 0.01904296875
          },
          {
            "ticks": 73153,
            "time": 78.15498877708333,
            "value": 0.0198974609375
          },
          {
            "ticks": 73160,
            "time": 78.16246741666666,
            "value": 0.0208740234375
          },
          {
            "ticks": 73168,
            "time": 78.17101443333333,
            "value": 0.0218505859375
          },
          {
            "ticks": 73175,
            "time": 78.17849307291665,
            "value": 0.0228271484375
          },
          {
            "ticks": 73183,
            "time": 78.18704008958333,
            "value": 0.0238037109375
          },
          {
            "ticks": 73190,
            "time": 78.19451872916666,
            "value": 0.024658203125
          },
          {
            "ticks": 73198,
            "time": 78.20306574583333,
            "value": 0.025634765625
          },
          {
            "ticks": 73205,
            "time": 78.21054438541665,
            "value": 0.026611328125
          },
          {
            "ticks": 73213,
            "time": 78.21909140208334,
            "value": 0.027587890625
          },
          {
            "ticks": 73220,
            "time": 78.22657004166666,
            "value": 0.028564453125
          },
          {
            "ticks": 73228,
            "time": 78.23511705833333,
            "value": 0.0294189453125
          },
          {
            "ticks": 73235,
            "time": 78.24259569791666,
            "value": 0.0303955078125
          },
          {
            "ticks": 73243,
            "time": 78.25114271458332,
            "value": 0.0313720703125
          },
          {
            "ticks": 73250,
            "time": 78.25862135416666,
            "value": 0.0323486328125
          },
          {
            "ticks": 73258,
            "time": 78.26716837083333,
            "value": 0.0333251953125
          },
          {
            "ticks": 73265,
            "time": 78.27464701041666,
            "value": 0.0341796875
          },
          {
            "ticks": 73273,
            "time": 78.28319402708333,
            "value": 0.03515625
          },
          {
            "ticks": 73280,
            "time": 78.29067266666665,
            "value": 0.0361328125
          },
          {
            "ticks": 73288,
            "time": 78.29921968333333,
            "value": 0.037109375
          },
          {
            "ticks": 73295,
            "time": 78.30669832291666,
            "value": 0.0380859375
          },
          {
            "ticks": 73303,
            "time": 78.31524533958333,
            "value": 0.0390625
          },
          {
            "ticks": 73310,
            "time": 78.32272397916665,
            "value": 0.0399169921875
          },
          {
            "ticks": 73318,
            "time": 78.33127099583334,
            "value": 0.0408935546875
          },
          {
            "ticks": 73325,
            "time": 78.33874963541666,
            "value": 0.0418701171875
          },
          {
            "ticks": 73333,
            "time": 78.34729665208333,
            "value": 0.0428466796875
          },
          {
            "ticks": 73340,
            "time": 78.35477529166666,
            "value": 0.0438232421875
          },
          {
            "ticks": 73348,
            "time": 78.36332230833334,
            "value": 0.044677734375
          },
          {
            "ticks": 73355,
            "time": 78.37080094791666,
            "value": 0.045654296875
          },
          {
            "ticks": 73363,
            "time": 78.37934796458333,
            "value": 0.046630859375
          },
          {
            "ticks": 73370,
            "time": 78.38682660416666,
            "value": 0.047607421875
          },
          {
            "ticks": 73378,
            "time": 78.39537362083333,
            "value": 0.048583984375
          },
          {
            "ticks": 73385,
            "time": 78.40285226041665,
            "value": 0.0494384765625
          },
          {
            "ticks": 73393,
            "time": 78.41139927708333,
            "value": 0.0504150390625
          },
          {
            "ticks": 73400,
            "time": 78.41887791666666,
            "value": 0.0513916015625
          },
          {
            "ticks": 73408,
            "time": 78.42742493333333,
            "value": 0.0523681640625
          },
          {
            "ticks": 73415,
            "time": 78.43490357291665,
            "value": 0.0533447265625
          },
          {
            "ticks": 73423,
            "time": 78.44345058958334,
            "value": 0.05419921875
          },
          {
            "ticks": 73430,
            "time": 78.45092922916666,
            "value": 0.05517578125
          },
          {
            "ticks": 73438,
            "time": 78.45947624583333,
            "value": 0.05615234375
          },
          {
            "ticks": 73445,
            "time": 78.46695488541665,
            "value": 0.05712890625
          },
          {
            "ticks": 73453,
            "time": 78.47550190208334,
            "value": 0.05810546875
          },
          {
            "ticks": 73460,
            "time": 78.48298054166666,
            "value": 0.0589599609375
          },
          {
            "ticks": 73468,
            "time": 78.49152755833333,
            "value": 0.0599365234375
          },
          {
            "ticks": 73475,
            "time": 78.49900619791666,
            "value": 0.0609130859375
          },
          {
            "ticks": 73483,
            "time": 78.50755321458333,
            "value": 0.0618896484375
          },
          {
            "ticks": 73490,
            "time": 78.51503185416665,
            "value": 0.0628662109375
          },
          {
            "ticks": 73498,
            "time": 78.52357887083333,
            "value": 0.063720703125
          },
          {
            "ticks": 73505,
            "time": 78.53105751041666,
            "value": 0.064697265625
          },
          {
            "ticks": 73513,
            "time": 78.53960452708333,
            "value": 0.065673828125
          },
          {
            "ticks": 73520,
            "time": 78.54708316666665,
            "value": 0.066650390625
          },
          {
            "ticks": 73528,
            "time": 78.55563018333334,
            "value": 0.067626953125
          },
          {
            "ticks": 73535,
            "time": 78.56310882291666,
            "value": 0.0684814453125
          },
          {
            "ticks": 73543,
            "time": 78.57165583958333,
            "value": 0.0694580078125
          },
          {
            "ticks": 73550,
            "time": 78.57913447916665,
            "value": 0.0704345703125
          },
          {
            "ticks": 73558,
            "time": 78.58768149583334,
            "value": 0.0714111328125
          },
          {
            "ticks": 73565,
            "time": 78.59516013541666,
            "value": 0.0723876953125
          },
          {
            "ticks": 73573,
            "time": 78.60370715208333,
            "value": 0.0732421875
          },
          {
            "ticks": 73580,
            "time": 78.61118579166666,
            "value": 0.07421875
          },
          {
            "ticks": 73588,
            "time": 78.61973280833332,
            "value": 0.0751953125
          },
          {
            "ticks": 73595,
            "time": 78.62721144791665,
            "value": 0.076171875
          },
          {
            "ticks": 73603,
            "time": 78.63575846458333,
            "value": 0.0771484375
          },
          {
            "ticks": 73610,
            "time": 78.64323710416666,
            "value": 0.078125
          },
          {
            "ticks": 73618,
            "time": 78.65178412083333,
            "value": 0.0789794921875
          },
          {
            "ticks": 73625,
            "time": 78.65926276041665,
            "value": 0.0799560546875
          },
          {
            "ticks": 73633,
            "time": 78.66780977708333,
            "value": 0.0809326171875
          },
          {
            "ticks": 73640,
            "time": 78.67528841666666,
            "value": 0.0819091796875
          },
          {
            "ticks": 73648,
            "time": 78.68383543333333,
            "value": 0.0828857421875
          },
          {
            "ticks": 73655,
            "time": 78.69131407291665,
            "value": 0.083740234375
          },
          {
            "ticks": 73663,
            "time": 78.69986108958334,
            "value": 0.084716796875
          },
          {
            "ticks": 73670,
            "time": 78.70733972916666,
            "value": 0.085693359375
          },
          {
            "ticks": 73678,
            "time": 78.71588674583333,
            "value": 0.086669921875
          },
          {
            "ticks": 73685,
            "time": 78.72336538541666,
            "value": 0.087646484375
          },
          {
            "ticks": 73693,
            "time": 78.73191240208332,
            "value": 0.0885009765625
          },
          {
            "ticks": 73700,
            "time": 78.73939104166666,
            "value": 0.0894775390625
          },
          {
            "ticks": 73708,
            "time": 78.74793805833333,
            "value": 0.0904541015625
          },
          {
            "ticks": 73715,
            "time": 78.75541669791666,
            "value": 0.0914306640625
          },
          {
            "ticks": 73723,
            "time": 78.76396371458333,
            "value": 0.0924072265625
          },
          {
            "ticks": 73730,
            "time": 78.77144235416665,
            "value": 0.09326171875
          },
          {
            "ticks": 73738,
            "time": 78.77998937083333,
            "value": 0.09423828125
          },
          {
            "ticks": 73745,
            "time": 78.78746801041666,
            "value": 0.09521484375
          },
          {
            "ticks": 73753,
            "time": 78.79601502708333,
            "value": 0.09619140625
          },
          {
            "ticks": 73760,
            "time": 78.80349366666665,
            "value": 0.09716796875
          },
          {
            "ticks": 73768,
            "time": 78.81204068333334,
            "value": 0.0980224609375
          },
          {
            "ticks": 73775,
            "time": 78.81951932291666,
            "value": 0.0989990234375
          },
          {
            "ticks": 73783,
            "time": 78.82806633958333,
            "value": 0.0999755859375
          },
          {
            "ticks": 73790,
            "time": 78.83554497916666,
            "value": 0.1009521484375
          },
          {
            "ticks": 73798,
            "time": 78.84409199583332,
            "value": 0.1019287109375
          },
          {
            "ticks": 73805,
            "time": 78.85157063541666,
            "value": 0.102783203125
          },
          {
            "ticks": 73813,
            "time": 78.86011765208333,
            "value": 0.103759765625
          },
          {
            "ticks": 73820,
            "time": 78.86759629166666,
            "value": 0.104736328125
          },
          {
            "ticks": 73828,
            "time": 78.87614330833333,
            "value": 0.105712890625
          },
          {
            "ticks": 73835,
            "time": 78.88362194791665,
            "value": 0.106689453125
          },
          {
            "ticks": 73843,
            "time": 78.89216896458333,
            "value": 0.1075439453125
          },
          {
            "ticks": 73850,
            "time": 78.89964760416666,
            "value": 0.1085205078125
          },
          {
            "ticks": 73858,
            "time": 78.90819462083333,
            "value": 0.1094970703125
          },
          {
            "ticks": 73865,
            "time": 78.91567326041665,
            "value": 0.1104736328125
          },
          {
            "ticks": 73873,
            "time": 78.92422027708334,
            "value": 0.1114501953125
          },
          {
            "ticks": 73880,
            "time": 78.93169891666666,
            "value": 0.1123046875
          },
          {
            "ticks": 73888,
            "time": 78.94024593333333,
            "value": 0.11328125
          },
          {
            "ticks": 73895,
            "time": 78.94772457291666,
            "value": 0.1142578125
          },
          {
            "ticks": 73903,
            "time": 78.95627158958334,
            "value": 0.115234375
          },
          {
            "ticks": 73910,
            "time": 78.96375022916666,
            "value": 0.1162109375
          },
          {
            "ticks": 73918,
            "time": 78.97229724583333,
            "value": 0.1171875
          },
          {
            "ticks": 73925,
            "time": 78.97977588541666,
            "value": 0.1180419921875
          },
          {
            "ticks": 73933,
            "time": 78.98832290208333,
            "value": 0.1190185546875
          },
          {
            "ticks": 73940,
            "time": 78.99580154166665,
            "value": 0.1199951171875
          },
          {
            "ticks": 73948,
            "time": 79.00434855833333,
            "value": 0.1209716796875
          },
          {
            "ticks": 73955,
            "time": 79.01182719791666,
            "value": 0.1219482421875
          },
          {
            "ticks": 73963,
            "time": 79.02037421458333,
            "value": 0.122802734375
          },
          {
            "ticks": 73970,
            "time": 79.02785285416665,
            "value": 0.123779296875
          },
          {
            "ticks": 73978,
            "time": 79.03639987083334,
            "value": 0.124755859375
          },
          {
            "ticks": 73985,
            "time": 79.04387851041666,
            "value": 0.125732421875
          },
          {
            "ticks": 73993,
            "time": 79.05242552708333,
            "value": 0.126708984375
          },
          {
            "ticks": 74000,
            "time": 79.05990416666666,
            "value": 0.1275634765625
          },
          {
            "ticks": 74008,
            "time": 79.06845118333334,
            "value": 0.1285400390625
          },
          {
            "ticks": 74015,
            "time": 79.07592982291666,
            "value": 0.1295166015625
          },
          {
            "ticks": 74023,
            "time": 79.08447683958333,
            "value": 0.1304931640625
          },
          {
            "ticks": 74030,
            "time": 79.09195547916666,
            "value": 0.1314697265625
          },
          {
            "ticks": 74038,
            "time": 79.10050249583333,
            "value": 0.13232421875
          },
          {
            "ticks": 74045,
            "time": 79.10798113541665,
            "value": 0.13330078125
          },
          {
            "ticks": 74053,
            "time": 79.11652815208333,
            "value": 0.13427734375
          },
          {
            "ticks": 74060,
            "time": 79.12400679166666,
            "value": 0.13525390625
          },
          {
            "ticks": 74068,
            "time": 79.13255380833333,
            "value": 0.13623046875
          },
          {
            "ticks": 74075,
            "time": 79.14003244791665,
            "value": 0.1370849609375
          },
          {
            "ticks": 74083,
            "time": 79.14857946458334,
            "value": 0.1380615234375
          },
          {
            "ticks": 74090,
            "time": 79.15605810416666,
            "value": 0.1390380859375
          },
          {
            "ticks": 74098,
            "time": 79.16460512083333,
            "value": 0.1400146484375
          },
          {
            "ticks": 74105,
            "time": 79.17208376041665,
            "value": 0.1409912109375
          },
          {
            "ticks": 74113,
            "time": 79.18063077708334,
            "value": 0.141845703125
          },
          {
            "ticks": 74120,
            "time": 79.18810941666666,
            "value": 0.142822265625
          },
          {
            "ticks": 74128,
            "time": 79.19665643333333,
            "value": 0.143798828125
          },
          {
            "ticks": 74135,
            "time": 79.20413507291666,
            "value": 0.144775390625
          },
          {
            "ticks": 74143,
            "time": 79.21268208958332,
            "value": 0.145751953125
          },
          {
            "ticks": 74150,
            "time": 79.22016072916665,
            "value": 0.1466064453125
          },
          {
            "ticks": 74158,
            "time": 79.22870774583333,
            "value": 0.1475830078125
          },
          {
            "ticks": 74165,
            "time": 79.23618638541666,
            "value": 0.1485595703125
          },
          {
            "ticks": 74173,
            "time": 79.24473340208333,
            "value": 0.1495361328125
          },
          {
            "ticks": 74180,
            "time": 79.25221204166665,
            "value": 0.1505126953125
          },
          {
            "ticks": 74188,
            "time": 79.26075905833333,
            "value": 0.1513671875
          },
          {
            "ticks": 74195,
            "time": 79.26823769791666,
            "value": 0.15234375
          },
          {
            "ticks": 74203,
            "time": 79.27678471458333,
            "value": 0.1533203125
          },
          {
            "ticks": 74210,
            "time": 79.28426335416665,
            "value": 0.154296875
          },
          {
            "ticks": 74218,
            "time": 79.29281037083334,
            "value": 0.1552734375
          },
          {
            "ticks": 74225,
            "time": 79.30028901041666,
            "value": 0.15625
          },
          {
            "ticks": 74233,
            "time": 79.30883602708333,
            "value": 0.1571044921875
          },
          {
            "ticks": 74240,
            "time": 79.31631466666666,
            "value": 0.1580810546875
          },
          {
            "ticks": 74248,
            "time": 79.32486168333332,
            "value": 0.1590576171875
          },
          {
            "ticks": 74255,
            "time": 79.33234032291666,
            "value": 0.1600341796875
          },
          {
            "ticks": 74263,
            "time": 79.34088733958333,
            "value": 0.1610107421875
          },
          {
            "ticks": 74270,
            "time": 79.34836597916666,
            "value": 0.161865234375
          },
          {
            "ticks": 74278,
            "time": 79.35691299583333,
            "value": 0.162841796875
          },
          {
            "ticks": 74285,
            "time": 79.36439163541665,
            "value": 0.163818359375
          },
          {
            "ticks": 74293,
            "time": 79.37293865208333,
            "value": 0.164794921875
          },
          {
            "ticks": 74300,
            "time": 79.38041729166666,
            "value": 0.165771484375
          },
          {
            "ticks": 74308,
            "time": 79.38896430833333,
            "value": 0.1666259765625
          },
          {
            "ticks": 74315,
            "time": 79.39644294791665,
            "value": 0.1676025390625
          },
          {
            "ticks": 74323,
            "time": 79.40498996458334,
            "value": 0.1685791015625
          },
          {
            "ticks": 74330,
            "time": 79.41246860416666,
            "value": 0.1695556640625
          },
          {
            "ticks": 74338,
            "time": 79.42101562083333,
            "value": 0.1705322265625
          },
          {
            "ticks": 74345,
            "time": 79.42849426041666,
            "value": 0.17138671875
          },
          {
            "ticks": 74353,
            "time": 79.43704127708332,
            "value": 0.17236328125
          },
          {
            "ticks": 74360,
            "time": 79.44451991666666,
            "value": 0.17333984375
          },
          {
            "ticks": 74368,
            "time": 79.45306693333333,
            "value": 0.17431640625
          },
          {
            "ticks": 74375,
            "time": 79.46054557291666,
            "value": 0.17529296875
          },
          {
            "ticks": 74383,
            "time": 79.46909258958333,
            "value": 0.1761474609375
          },
          {
            "ticks": 74390,
            "time": 79.47657122916665,
            "value": 0.1771240234375
          },
          {
            "ticks": 74398,
            "time": 79.48511824583333,
            "value": 0.1781005859375
          },
          {
            "ticks": 74405,
            "time": 79.49259688541666,
            "value": 0.1790771484375
          },
          {
            "ticks": 74413,
            "time": 79.50114390208333,
            "value": 0.1800537109375
          },
          {
            "ticks": 74420,
            "time": 79.50862254166665,
            "value": 0.180908203125
          },
          {
            "ticks": 74428,
            "time": 79.51716955833334,
            "value": 0.181884765625
          },
          {
            "ticks": 74435,
            "time": 79.52464819791666,
            "value": 0.182861328125
          },
          {
            "ticks": 74443,
            "time": 79.53319521458333,
            "value": 0.183837890625
          },
          {
            "ticks": 74450,
            "time": 79.54067385416666,
            "value": 0.184814453125
          },
          {
            "ticks": 74458,
            "time": 79.54922087083334,
            "value": 0.1856689453125
          },
          {
            "ticks": 74465,
            "time": 79.55669951041666,
            "value": 0.1866455078125
          },
          {
            "ticks": 74473,
            "time": 79.56524652708333,
            "value": 0.1876220703125
          },
          {
            "ticks": 74480,
            "time": 79.57272516666666,
            "value": 0.1885986328125
          },
          {
            "ticks": 74488,
            "time": 79.58127218333333,
            "value": 0.1895751953125
          },
          {
            "ticks": 74495,
            "time": 79.58875082291665,
            "value": 0.1904296875
          },
          {
            "ticks": 74503,
            "time": 79.59729783958333,
            "value": 0.19140625
          },
          {
            "ticks": 74510,
            "time": 79.60477647916666,
            "value": 0.1923828125
          },
          {
            "ticks": 74518,
            "time": 79.61332349583333,
            "value": 0.193359375
          },
          {
            "ticks": 74525,
            "time": 79.62080213541665,
            "value": 0.1943359375
          },
          {
            "ticks": 74533,
            "time": 79.62934915208334,
            "value": 0.1953125
          },
          {
            "ticks": 74540,
            "time": 79.63682779166666,
            "value": 0.1961669921875
          },
          {
            "ticks": 74548,
            "time": 79.64537480833333,
            "value": 0.1971435546875
          },
          {
            "ticks": 74555,
            "time": 79.65285344791666,
            "value": 0.1981201171875
          },
          {
            "ticks": 74563,
            "time": 79.66140046458334,
            "value": 0.1990966796875
          },
          {
            "ticks": 74570,
            "time": 79.66887910416666,
            "value": 0.2000732421875
          },
          {
            "ticks": 74578,
            "time": 79.67742612083333,
            "value": 0.200927734375
          },
          {
            "ticks": 74585,
            "time": 79.68490476041666,
            "value": 0.201904296875
          },
          {
            "ticks": 74593,
            "time": 79.69345177708333,
            "value": 0.202880859375
          },
          {
            "ticks": 74600,
            "time": 79.70093041666665,
            "value": 0.203857421875
          },
          {
            "ticks": 74608,
            "time": 79.70947743333333,
            "value": 0.204833984375
          },
          {
            "ticks": 74615,
            "time": 79.71695607291666,
            "value": 0.2056884765625
          },
          {
            "ticks": 74623,
            "time": 79.72550308958333,
            "value": 0.2066650390625
          },
          {
            "ticks": 74630,
            "time": 79.73298172916665,
            "value": 0.2076416015625
          },
          {
            "ticks": 74638,
            "time": 79.74152874583334,
            "value": 0.2086181640625
          },
          {
            "ticks": 74645,
            "time": 79.74900738541666,
            "value": 0.2095947265625
          },
          {
            "ticks": 74653,
            "time": 79.75755440208333,
            "value": 0.21044921875
          },
          {
            "ticks": 74660,
            "time": 79.76503304166665,
            "value": 0.21142578125
          },
          {
            "ticks": 74668,
            "time": 79.77358005833334,
            "value": 0.21240234375
          },
          {
            "ticks": 74675,
            "time": 79.78105869791666,
            "value": 0.21337890625
          },
          {
            "ticks": 74683,
            "time": 79.78960571458333,
            "value": 0.21435546875
          },
          {
            "ticks": 74690,
            "time": 79.79708435416666,
            "value": 0.2152099609375
          },
          {
            "ticks": 74698,
            "time": 79.80563137083332,
            "value": 0.2161865234375
          },
          {
            "ticks": 74705,
            "time": 79.81311001041665,
            "value": 0.2171630859375
          },
          {
            "ticks": 74713,
            "time": 79.82165702708333,
            "value": 0.2181396484375
          },
          {
            "ticks": 74720,
            "time": 79.82913566666666,
            "value": 0.2191162109375
          },
          {
            "ticks": 74728,
            "time": 79.83768268333333,
            "value": 0.219970703125
          },
          {
            "ticks": 74735,
            "time": 79.84516132291665,
            "value": 0.220947265625
          },
          {
            "ticks": 74743,
            "time": 79.85370833958333,
            "value": 0.221923828125
          },
          {
            "ticks": 74750,
            "time": 79.86118697916666,
            "value": 0.222900390625
          },
          {
            "ticks": 74758,
            "time": 79.86973399583333,
            "value": 0.223876953125
          },
          {
            "ticks": 74765,
            "time": 79.87721263541665,
            "value": 0.2247314453125
          },
          {
            "ticks": 74773,
            "time": 79.88575965208334,
            "value": 0.2257080078125
          },
          {
            "ticks": 74780,
            "time": 79.89323829166666,
            "value": 0.2266845703125
          },
          {
            "ticks": 74788,
            "time": 79.90178530833333,
            "value": 0.2276611328125
          },
          {
            "ticks": 74795,
            "time": 79.90926394791666,
            "value": 0.2286376953125
          },
          {
            "ticks": 74803,
            "time": 79.91781096458332,
            "value": 0.2294921875
          },
          {
            "ticks": 74810,
            "time": 79.92528960416665,
            "value": 0.23046875
          },
          {
            "ticks": 74818,
            "time": 79.93383662083333,
            "value": 0.2314453125
          },
          {
            "ticks": 74825,
            "time": 79.94131526041666,
            "value": 0.232421875
          },
          {
            "ticks": 74833,
            "time": 79.94986227708333,
            "value": 0.2333984375
          },
          {
            "ticks": 74840,
            "time": 79.95734091666665,
            "value": 0.234375
          },
          {
            "ticks": 74848,
            "time": 79.96588793333333,
            "value": 0.2352294921875
          },
          {
            "ticks": 74855,
            "time": 79.97336657291666,
            "value": 0.2362060546875
          },
          {
            "ticks": 74863,
            "time": 79.98191358958333,
            "value": 0.2371826171875
          },
          {
            "ticks": 74870,
            "time": 79.98939222916665,
            "value": 0.2381591796875
          },
          {
            "ticks": 74878,
            "time": 79.99793924583334,
            "value": 0.2391357421875
          },
          {
            "ticks": 74885,
            "time": 80.00541788541666,
            "value": 0.239990234375
          },
          {
            "ticks": 74893,
            "time": 80.01396490208333,
            "value": 0.240966796875
          },
          {
            "ticks": 74900,
            "time": 80.02144354166666,
            "value": 0.241943359375
          },
          {
            "ticks": 74908,
            "time": 80.02999055833332,
            "value": 0.242919921875
          },
          {
            "ticks": 74915,
            "time": 80.03746919791666,
            "value": 0.243896484375
          },
          {
            "ticks": 74923,
            "time": 80.04601621458333,
            "value": 0.2447509765625
          },
          {
            "ticks": 74930,
            "time": 80.05349485416666,
            "value": 0.2457275390625
          },
          {
            "ticks": 74938,
            "time": 80.06204187083333,
            "value": 0.2467041015625
          },
          {
            "ticks": 74945,
            "time": 80.06952051041665,
            "value": 0.2476806640625
          },
          {
            "ticks": 74953,
            "time": 80.07806752708333,
            "value": 0.2486572265625
          },
          {
            "ticks": 74960,
            "time": 80.08554616666666,
            "value": 0.24951171875
          },
          {
            "ticks": 74968,
            "time": 80.09409318333333,
            "value": 0.25048828125
          },
          {
            "ticks": 74975,
            "time": 80.10157182291665,
            "value": 0.25146484375
          },
          {
            "ticks": 74983,
            "time": 80.11011883958334,
            "value": 0.25244140625
          },
          {
            "ticks": 74990,
            "time": 80.11759747916666,
            "value": 0.25341796875
          },
          {
            "ticks": 74998,
            "time": 80.12614449583333,
            "value": 0.2542724609375
          },
          {
            "ticks": 75005,
            "time": 80.13362313541666,
            "value": 0.2552490234375
          },
          {
            "ticks": 75013,
            "time": 80.14217015208332,
            "value": 0.2562255859375
          },
          {
            "ticks": 75020,
            "time": 80.14964879166666,
            "value": 0.2572021484375
          },
          {
            "ticks": 75028,
            "time": 80.15819580833333,
            "value": 0.2581787109375
          },
          {
            "ticks": 75035,
            "time": 80.16567444791666,
            "value": 0.259033203125
          },
          {
            "ticks": 75043,
            "time": 80.17422146458333,
            "value": 0.260009765625
          },
          {
            "ticks": 75050,
            "time": 80.18170010416665,
            "value": 0.260986328125
          },
          {
            "ticks": 75058,
            "time": 80.19024712083333,
            "value": 0.261962890625
          },
          {
            "ticks": 75065,
            "time": 80.19772576041666,
            "value": 0.262939453125
          },
          {
            "ticks": 75073,
            "time": 80.20627277708333,
            "value": 0.2637939453125
          },
          {
            "ticks": 75080,
            "time": 80.21375141666665,
            "value": 0.2647705078125
          },
          {
            "ticks": 75088,
            "time": 80.22229843333334,
            "value": 0.2657470703125
          },
          {
            "ticks": 75095,
            "time": 80.22977707291666,
            "value": 0.2667236328125
          },
          {
            "ticks": 75103,
            "time": 80.23832408958333,
            "value": 0.2677001953125
          },
          {
            "ticks": 75110,
            "time": 80.24580272916666,
            "value": 0.2685546875
          },
          {
            "ticks": 75118,
            "time": 80.25434974583334,
            "value": 0.26953125
          },
          {
            "ticks": 75125,
            "time": 80.26182838541666,
            "value": 0.2705078125
          },
          {
            "ticks": 75133,
            "time": 80.27037540208333,
            "value": 0.271484375
          },
          {
            "ticks": 75140,
            "time": 80.27785404166666,
            "value": 0.2724609375
          },
          {
            "ticks": 75148,
            "time": 80.28640105833333,
            "value": 0.2734375
          },
          {
            "ticks": 75155,
            "time": 80.29387969791665,
            "value": 0.2742919921875
          },
          {
            "ticks": 75163,
            "time": 80.30242671458333,
            "value": 0.2752685546875
          },
          {
            "ticks": 75170,
            "time": 80.30990535416666,
            "value": 0.2762451171875
          },
          {
            "ticks": 75178,
            "time": 80.31845237083333,
            "value": 0.2772216796875
          },
          {
            "ticks": 75185,
            "time": 80.32593101041665,
            "value": 0.2781982421875
          },
          {
            "ticks": 75193,
            "time": 80.33447802708334,
            "value": 0.279052734375
          },
          {
            "ticks": 75200,
            "time": 80.34195666666666,
            "value": 0.280029296875
          },
          {
            "ticks": 75208,
            "time": 80.35050368333333,
            "value": 0.281005859375
          },
          {
            "ticks": 75215,
            "time": 80.35798232291665,
            "value": 0.281982421875
          },
          {
            "ticks": 75223,
            "time": 80.36652933958334,
            "value": 0.282958984375
          },
          {
            "ticks": 75230,
            "time": 80.37400797916666,
            "value": 0.2838134765625
          },
          {
            "ticks": 75238,
            "time": 80.38255499583333,
            "value": 0.2847900390625
          },
          {
            "ticks": 75245,
            "time": 80.39003363541666,
            "value": 0.2857666015625
          },
          {
            "ticks": 75253,
            "time": 80.39858065208333,
            "value": 0.2867431640625
          },
          {
            "ticks": 75260,
            "time": 80.40605929166665,
            "value": 0.2877197265625
          },
          {
            "ticks": 75268,
            "time": 80.41460630833333,
            "value": 0.28857421875
          },
          {
            "ticks": 75275,
            "time": 80.42208494791666,
            "value": 0.28955078125
          },
          {
            "ticks": 75283,
            "time": 80.43063196458333,
            "value": 0.29052734375
          },
          {
            "ticks": 75290,
            "time": 80.43811060416665,
            "value": 0.29150390625
          },
          {
            "ticks": 75298,
            "time": 80.44665762083334,
            "value": 0.29248046875
          },
          {
            "ticks": 75305,
            "time": 80.45413626041666,
            "value": 0.2933349609375
          },
          {
            "ticks": 75313,
            "time": 80.46268327708333,
            "value": 0.2943115234375
          },
          {
            "ticks": 75320,
            "time": 80.47016191666665,
            "value": 0.2952880859375
          },
          {
            "ticks": 75328,
            "time": 80.47870893333334,
            "value": 0.2962646484375
          },
          {
            "ticks": 75335,
            "time": 80.48618757291666,
            "value": 0.2972412109375
          },
          {
            "ticks": 75343,
            "time": 80.49473458958333,
            "value": 0.298095703125
          },
          {
            "ticks": 75350,
            "time": 80.50221322916666,
            "value": 0.299072265625
          },
          {
            "ticks": 75358,
            "time": 80.51076024583332,
            "value": 0.300048828125
          },
          {
            "ticks": 75365,
            "time": 80.51823888541665,
            "value": 0.301025390625
          },
          {
            "ticks": 75373,
            "time": 80.52678590208333,
            "value": 0.302001953125
          },
          {
            "ticks": 75380,
            "time": 80.53426454166666,
            "value": 0.3028564453125
          },
          {
            "ticks": 75388,
            "time": 80.54281155833333,
            "value": 0.3038330078125
          },
          {
            "ticks": 75395,
            "time": 80.55029019791665,
            "value": 0.3048095703125
          },
          {
            "ticks": 75403,
            "time": 80.55883721458333,
            "value": 0.3057861328125
          },
          {
            "ticks": 75410,
            "time": 80.56631585416666,
            "value": 0.3067626953125
          },
          {
            "ticks": 75418,
            "time": 80.57486287083333,
            "value": 0.3076171875
          },
          {
            "ticks": 75425,
            "time": 80.58234151041665,
            "value": 0.30859375
          },
          {
            "ticks": 75433,
            "time": 80.59088852708334,
            "value": 0.3095703125
          },
          {
            "ticks": 75440,
            "time": 80.59836716666666,
            "value": 0.310546875
          },
          {
            "ticks": 75448,
            "time": 80.60691418333333,
            "value": 0.3115234375
          },
          {
            "ticks": 75455,
            "time": 80.61439282291666,
            "value": 0.3125
          },
          {
            "ticks": 75463,
            "time": 80.62293983958332,
            "value": 0.3133544921875
          },
          {
            "ticks": 75470,
            "time": 80.63041847916666,
            "value": 0.3143310546875
          },
          {
            "ticks": 75478,
            "time": 80.63896549583333,
            "value": 0.3153076171875
          },
          {
            "ticks": 75485,
            "time": 80.64644413541666,
            "value": 0.3162841796875
          },
          {
            "ticks": 75493,
            "time": 80.65499115208333,
            "value": 0.3172607421875
          },
          {
            "ticks": 75500,
            "time": 80.66246979166665,
            "value": 0.318115234375
          },
          {
            "ticks": 75508,
            "time": 80.67101680833333,
            "value": 0.319091796875
          },
          {
            "ticks": 75515,
            "time": 80.67849544791666,
            "value": 0.320068359375
          },
          {
            "ticks": 75523,
            "time": 80.68704246458333,
            "value": 0.321044921875
          },
          {
            "ticks": 75530,
            "time": 80.69452110416665,
            "value": 0.322021484375
          },
          {
            "ticks": 75538,
            "time": 80.70306812083334,
            "value": 0.3228759765625
          },
          {
            "ticks": 75545,
            "time": 80.71054676041666,
            "value": 0.3238525390625
          },
          {
            "ticks": 75553,
            "time": 80.71909377708333,
            "value": 0.3248291015625
          },
          {
            "ticks": 75560,
            "time": 80.72657241666666,
            "value": 0.3258056640625
          },
          {
            "ticks": 75568,
            "time": 80.73511943333332,
            "value": 0.3267822265625
          },
          {
            "ticks": 75575,
            "time": 80.74259807291666,
            "value": 0.32763671875
          },
          {
            "ticks": 75583,
            "time": 80.75114508958333,
            "value": 0.32861328125
          },
          {
            "ticks": 75590,
            "time": 80.75862372916666,
            "value": 0.32958984375
          },
          {
            "ticks": 75598,
            "time": 80.76717074583333,
            "value": 0.33056640625
          },
          {
            "ticks": 75605,
            "time": 80.77464938541665,
            "value": 0.33154296875
          },
          {
            "ticks": 75613,
            "time": 80.78319640208333,
            "value": 0.3323974609375
          },
          {
            "ticks": 75620,
            "time": 80.79067504166666,
            "value": 0.3333740234375
          },
          {
            "ticks": 75628,
            "time": 80.79922205833333,
            "value": 0.3343505859375
          },
          {
            "ticks": 75635,
            "time": 80.80670069791665,
            "value": 0.3353271484375
          },
          {
            "ticks": 75643,
            "time": 80.81524771458334,
            "value": 0.3363037109375
          },
          {
            "ticks": 75650,
            "time": 80.82272635416666,
            "value": 0.337158203125
          },
          {
            "ticks": 75658,
            "time": 80.83127337083333,
            "value": 0.338134765625
          },
          {
            "ticks": 75665,
            "time": 80.83875201041666,
            "value": 0.339111328125
          },
          {
            "ticks": 75673,
            "time": 80.84729902708334,
            "value": 0.340087890625
          },
          {
            "ticks": 75680,
            "time": 80.85477766666666,
            "value": 0.341064453125
          },
          {
            "ticks": 75688,
            "time": 80.86332468333333,
            "value": 0.3419189453125
          },
          {
            "ticks": 75695,
            "time": 80.87080332291666,
            "value": 0.3428955078125
          },
          {
            "ticks": 75703,
            "time": 80.87935033958333,
            "value": 0.3438720703125
          },
          {
            "ticks": 75710,
            "time": 80.88682897916665,
            "value": 0.3448486328125
          },
          {
            "ticks": 75718,
            "time": 80.89537599583333,
            "value": 0.3458251953125
          },
          {
            "ticks": 75725,
            "time": 80.90285463541666,
            "value": 0.3466796875
          },
          {
            "ticks": 75733,
            "time": 80.91140165208333,
            "value": 0.34765625
          },
          {
            "ticks": 75740,
            "time": 80.91888029166665,
            "value": 0.3486328125
          },
          {
            "ticks": 75748,
            "time": 80.92742730833334,
            "value": 0.349609375
          },
          {
            "ticks": 75755,
            "time": 80.93490594791666,
            "value": 0.3505859375
          },
          {
            "ticks": 75763,
            "time": 80.94345296458333,
            "value": 0.3515625
          },
          {
            "ticks": 75770,
            "time": 80.95093160416666,
            "value": 0.3524169921875
          },
          {
            "ticks": 75778,
            "time": 80.95947862083334,
            "value": 0.3533935546875
          },
          {
            "ticks": 75785,
            "time": 80.96695726041666,
            "value": 0.3543701171875
          },
          {
            "ticks": 75793,
            "time": 80.97550427708333,
            "value": 0.3553466796875
          },
          {
            "ticks": 75800,
            "time": 80.98298291666666,
            "value": 0.3563232421875
          },
          {
            "ticks": 75808,
            "time": 80.99152993333333,
            "value": 0.357177734375
          },
          {
            "ticks": 75815,
            "time": 80.99900857291665,
            "value": 0.358154296875
          },
          {
            "ticks": 75823,
            "time": 81.00755558958333,
            "value": 0.359130859375
          },
          {
            "ticks": 75830,
            "time": 81.01503422916666,
            "value": 0.360107421875
          },
          {
            "ticks": 75838,
            "time": 81.02358124583333,
            "value": 0.361083984375
          },
          {
            "ticks": 75845,
            "time": 81.03105988541665,
            "value": 0.3619384765625
          },
          {
            "ticks": 75853,
            "time": 81.03960690208334,
            "value": 0.3629150390625
          },
          {
            "ticks": 75860,
            "time": 81.04708554166666,
            "value": 0.3638916015625
          },
          {
            "ticks": 75868,
            "time": 81.05563255833333,
            "value": 0.3648681640625
          },
          {
            "ticks": 75875,
            "time": 81.06311119791665,
            "value": 0.3658447265625
          },
          {
            "ticks": 75883,
            "time": 81.07165821458334,
            "value": 0.36669921875
          },
          {
            "ticks": 75890,
            "time": 81.07913685416666,
            "value": 0.36767578125
          },
          {
            "ticks": 75898,
            "time": 81.08768387083333,
            "value": 0.36865234375
          },
          {
            "ticks": 75905,
            "time": 81.09516251041666,
            "value": 0.36962890625
          },
          {
            "ticks": 75913,
            "time": 81.10370952708332,
            "value": 0.37060546875
          },
          {
            "ticks": 75920,
            "time": 81.11118816666665,
            "value": 0.3714599609375
          },
          {
            "ticks": 75928,
            "time": 81.11973518333333,
            "value": 0.3724365234375
          },
          {
            "ticks": 75935,
            "time": 81.12721382291666,
            "value": 0.3734130859375
          },
          {
            "ticks": 75943,
            "time": 81.13576083958333,
            "value": 0.3743896484375
          },
          {
            "ticks": 75950,
            "time": 81.14323947916665,
            "value": 0.3753662109375
          },
          {
            "ticks": 75958,
            "time": 81.15178649583333,
            "value": 0.376220703125
          },
          {
            "ticks": 75965,
            "time": 81.15926513541666,
            "value": 0.377197265625
          },
          {
            "ticks": 75973,
            "time": 81.16781215208333,
            "value": 0.378173828125
          },
          {
            "ticks": 75980,
            "time": 81.17529079166665,
            "value": 0.379150390625
          },
          {
            "ticks": 75988,
            "time": 81.18383780833334,
            "value": 0.380126953125
          },
          {
            "ticks": 75995,
            "time": 81.19131644791666,
            "value": 0.3809814453125
          },
          {
            "ticks": 76003,
            "time": 81.19986346458333,
            "value": 0.3819580078125
          },
          {
            "ticks": 76010,
            "time": 81.20734210416666,
            "value": 0.3829345703125
          },
          {
            "ticks": 76018,
            "time": 81.21588912083332,
            "value": 0.3839111328125
          },
          {
            "ticks": 76025,
            "time": 81.22336776041665,
            "value": 0.3848876953125
          },
          {
            "ticks": 76033,
            "time": 81.23191477708333,
            "value": 0.3857421875
          },
          {
            "ticks": 76040,
            "time": 81.23939341666666,
            "value": 0.38671875
          },
          {
            "ticks": 76048,
            "time": 81.24794043333333,
            "value": 0.3876953125
          },
          {
            "ticks": 76055,
            "time": 81.25541907291665,
            "value": 0.388671875
          },
          {
            "ticks": 76063,
            "time": 81.26396608958333,
            "value": 0.3896484375
          },
          {
            "ticks": 76070,
            "time": 81.27144472916666,
            "value": 0.390625
          },
          {
            "ticks": 76078,
            "time": 81.27999174583333,
            "value": 0.3914794921875
          },
          {
            "ticks": 76085,
            "time": 81.28747038541665,
            "value": 0.3924560546875
          },
          {
            "ticks": 76093,
            "time": 81.29601740208334,
            "value": 0.3934326171875
          },
          {
            "ticks": 76100,
            "time": 81.30349604166666,
            "value": 0.3944091796875
          },
          {
            "ticks": 76108,
            "time": 81.31204305833333,
            "value": 0.3953857421875
          },
          {
            "ticks": 76115,
            "time": 81.31952169791666,
            "value": 0.396240234375
          },
          {
            "ticks": 76123,
            "time": 81.32806871458332,
            "value": 0.397216796875
          },
          {
            "ticks": 76130,
            "time": 81.33554735416666,
            "value": 0.398193359375
          },
          {
            "ticks": 76138,
            "time": 81.34409437083333,
            "value": 0.399169921875
          },
          {
            "ticks": 76145,
            "time": 81.35157301041666,
            "value": 0.400146484375
          },
          {
            "ticks": 76153,
            "time": 81.36012002708333,
            "value": 0.4010009765625
          },
          {
            "ticks": 76160,
            "time": 81.36759866666665,
            "value": 0.4019775390625
          },
          {
            "ticks": 76168,
            "time": 81.37614568333333,
            "value": 0.4029541015625
          },
          {
            "ticks": 76175,
            "time": 81.38362432291666,
            "value": 0.4039306640625
          },
          {
            "ticks": 76183,
            "time": 81.39217133958333,
            "value": 0.4049072265625
          },
          {
            "ticks": 76190,
            "time": 81.39964997916665,
            "value": 0.40576171875
          },
          {
            "ticks": 76198,
            "time": 81.40819699583334,
            "value": 0.40673828125
          },
          {
            "ticks": 76205,
            "time": 81.41567563541666,
            "value": 0.40771484375
          },
          {
            "ticks": 76213,
            "time": 81.42422265208333,
            "value": 0.40869140625
          },
          {
            "ticks": 76220,
            "time": 81.43170129166666,
            "value": 0.40966796875
          },
          {
            "ticks": 76228,
            "time": 81.44024830833332,
            "value": 0.4105224609375
          },
          {
            "ticks": 76235,
            "time": 81.44772694791666,
            "value": 0.4114990234375
          },
          {
            "ticks": 76243,
            "time": 81.45627396458333,
            "value": 0.4124755859375
          },
          {
            "ticks": 76250,
            "time": 81.46375260416666,
            "value": 0.4134521484375
          },
          {
            "ticks": 76258,
            "time": 81.47229962083333,
            "value": 0.4144287109375
          },
          {
            "ticks": 76265,
            "time": 81.47977826041665,
            "value": 0.415283203125
          },
          {
            "ticks": 76273,
            "time": 81.48832527708333,
            "value": 0.416259765625
          },
          {
            "ticks": 76280,
            "time": 81.49580391666666,
            "value": 0.417236328125
          },
          {
            "ticks": 76288,
            "time": 81.50435093333333,
            "value": 0.418212890625
          },
          {
            "ticks": 76295,
            "time": 81.51182957291665,
            "value": 0.419189453125
          },
          {
            "ticks": 76303,
            "time": 81.52037658958334,
            "value": 0.4200439453125
          },
          {
            "ticks": 76310,
            "time": 81.52785522916666,
            "value": 0.4210205078125
          },
          {
            "ticks": 76318,
            "time": 81.53640224583333,
            "value": 0.4219970703125
          },
          {
            "ticks": 76325,
            "time": 81.54388088541666,
            "value": 0.4229736328125
          },
          {
            "ticks": 76333,
            "time": 81.55242790208334,
            "value": 0.4239501953125
          },
          {
            "ticks": 76340,
            "time": 81.55990654166666,
            "value": 0.4248046875
          },
          {
            "ticks": 76348,
            "time": 81.56845355833333,
            "value": 0.42578125
          },
          {
            "ticks": 76355,
            "time": 81.57593219791666,
            "value": 0.4267578125
          },
          {
            "ticks": 76363,
            "time": 81.58447921458333,
            "value": 0.427734375
          },
          {
            "ticks": 76370,
            "time": 81.59195785416665,
            "value": 0.4287109375
          },
          {
            "ticks": 76378,
            "time": 81.60050487083333,
            "value": 0.4296875
          },
          {
            "ticks": 76385,
            "time": 81.60798351041666,
            "value": 0.4305419921875
          },
          {
            "ticks": 76393,
            "time": 81.61653052708333,
            "value": 0.4315185546875
          },
          {
            "ticks": 76400,
            "time": 81.62400916666665,
            "value": 0.4324951171875
          },
          {
            "ticks": 76408,
            "time": 81.63255618333334,
            "value": 0.4334716796875
          },
          {
            "ticks": 76415,
            "time": 81.64003482291666,
            "value": 0.4344482421875
          },
          {
            "ticks": 76423,
            "time": 81.64858183958333,
            "value": 0.435302734375
          },
          {
            "ticks": 76430,
            "time": 81.65606047916665,
            "value": 0.436279296875
          },
          {
            "ticks": 76438,
            "time": 81.66460749583334,
            "value": 0.437255859375
          },
          {
            "ticks": 76445,
            "time": 81.67208613541666,
            "value": 0.438232421875
          },
          {
            "ticks": 76453,
            "time": 81.68063315208333,
            "value": 0.439208984375
          },
          {
            "ticks": 76460,
            "time": 81.68811179166666,
            "value": 0.4400634765625
          },
          {
            "ticks": 76468,
            "time": 81.69665880833332,
            "value": 0.4410400390625
          },
          {
            "ticks": 76475,
            "time": 81.70413744791665,
            "value": 0.4420166015625
          },
          {
            "ticks": 76483,
            "time": 81.71268446458333,
            "value": 0.4429931640625
          },
          {
            "ticks": 76490,
            "time": 81.72016310416666,
            "value": 0.4439697265625
          },
          {
            "ticks": 76498,
            "time": 81.72871012083333,
            "value": 0.44482421875
          },
          {
            "ticks": 76505,
            "time": 81.73618876041665,
            "value": 0.44580078125
          },
          {
            "ticks": 76513,
            "time": 81.74473577708333,
            "value": 0.44677734375
          },
          {
            "ticks": 76520,
            "time": 81.75221441666666,
            "value": 0.44775390625
          },
          {
            "ticks": 76528,
            "time": 81.76076143333333,
            "value": 0.44873046875
          },
          {
            "ticks": 76535,
            "time": 81.76824007291665,
            "value": 0.4495849609375
          },
          {
            "ticks": 76543,
            "time": 81.77678708958334,
            "value": 0.4505615234375
          },
          {
            "ticks": 76550,
            "time": 81.78426572916666,
            "value": 0.4515380859375
          },
          {
            "ticks": 76558,
            "time": 81.79281274583333,
            "value": 0.4525146484375
          },
          {
            "ticks": 76565,
            "time": 81.80029138541666,
            "value": 0.4534912109375
          },
          {
            "ticks": 76573,
            "time": 81.80883840208332,
            "value": 0.454345703125
          },
          {
            "ticks": 76580,
            "time": 81.81631704166665,
            "value": 0.455322265625
          },
          {
            "ticks": 76588,
            "time": 81.82486405833333,
            "value": 0.456298828125
          },
          {
            "ticks": 76595,
            "time": 81.83234269791666,
            "value": 0.457275390625
          },
          {
            "ticks": 76603,
            "time": 81.84088971458333,
            "value": 0.458251953125
          },
          {
            "ticks": 76610,
            "time": 81.84836835416665,
            "value": 0.4591064453125
          },
          {
            "ticks": 76618,
            "time": 81.85691537083333,
            "value": 0.4600830078125
          },
          {
            "ticks": 76625,
            "time": 81.86439401041666,
            "value": 0.4610595703125
          },
          {
            "ticks": 76633,
            "time": 81.87294102708333,
            "value": 0.4620361328125
          },
          {
            "ticks": 76640,
            "time": 81.88041966666665,
            "value": 0.4630126953125
          },
          {
            "ticks": 76648,
            "time": 81.88896668333334,
            "value": 0.4638671875
          },
          {
            "ticks": 76655,
            "time": 81.89644532291666,
            "value": 0.46484375
          },
          {
            "ticks": 76663,
            "time": 81.90499233958333,
            "value": 0.4658203125
          },
          {
            "ticks": 76670,
            "time": 81.91247097916666,
            "value": 0.466796875
          },
          {
            "ticks": 76678,
            "time": 81.92101799583332,
            "value": 0.4677734375
          },
          {
            "ticks": 76685,
            "time": 81.92849663541666,
            "value": 0.46875
          },
          {
            "ticks": 76693,
            "time": 81.93704365208333,
            "value": 0.5557861328125
          },
          {
            "ticks": 76700,
            "time": 81.94452229166666,
            "value": 0.642822265625
          },
          {
            "ticks": 76703,
            "time": 81.94772742291667,
            "value": 0.671875
          },
          {
            "ticks": 76710,
            "time": 81.9552060625,
            "value": 0.73046875
          },
          {
            "ticks": 76718,
            "time": 81.96375307916666,
            "value": 0.7890625
          },
          {
            "ticks": 76725,
            "time": 81.97123171874999,
            "value": 0.84765625
          },
          {
            "ticks": 76733,
            "time": 81.97977873541667,
            "value": 0.90625
          },
          {
            "ticks": 76740,
            "time": 81.987257375,
            "value": 0.96484375
          },
          {
            "ticks": 76743,
            "time": 81.99046250625,
            "value": 0.984375
          },
          {
            "ticks": 76750,
            "time": 81.99794114583334,
            "value": 0.875
          },
          {
            "ticks": 76758,
            "time": 82.00648816249999,
            "value": 0.765625
          },
          {
            "ticks": 76765,
            "time": 82.01396680208333,
            "value": 0.65625
          },
          {
            "ticks": 76773,
            "time": 82.02251381875,
            "value": 0.546875
          },
          {
            "ticks": 76780,
            "time": 82.02999245833334,
            "value": 0.4375
          },
          {
            "ticks": 76788,
            "time": 82.038539475,
            "value": 0.328125
          },
          {
            "ticks": 76795,
            "time": 82.04601811458333,
            "value": 0.21875
          },
          {
            "ticks": 76803,
            "time": 82.05456513124999,
            "value": 0.109375
          },
          {
            "ticks": 76810,
            "time": 82.06204377083333,
            "value": 0
          },
          {
            "ticks": 76818,
            "time": 82.0705907875,
            "value": 0.0008544921875
          },
          {
            "ticks": 76825,
            "time": 82.07806942708334,
            "value": 0.001708984375
          },
          {
            "ticks": 76833,
            "time": 82.08661644374999,
            "value": 0.0025634765625
          },
          {
            "ticks": 76840,
            "time": 82.09409508333333,
            "value": 0.0035400390625
          },
          {
            "ticks": 76848,
            "time": 82.1026421,
            "value": 0.00439453125
          },
          {
            "ticks": 76855,
            "time": 82.11012073958334,
            "value": 0.0052490234375
          },
          {
            "ticks": 76863,
            "time": 82.11866775624999,
            "value": 0.0062255859375
          },
          {
            "ticks": 76870,
            "time": 82.12614639583333,
            "value": 0.007080078125
          },
          {
            "ticks": 76878,
            "time": 82.1346934125,
            "value": 0.0079345703125
          },
          {
            "ticks": 76885,
            "time": 82.14217205208334,
            "value": 0.0089111328125
          },
          {
            "ticks": 76893,
            "time": 82.15071906874999,
            "value": 0.009765625
          },
          {
            "ticks": 76900,
            "time": 82.15819770833333,
            "value": 0.0106201171875
          },
          {
            "ticks": 76908,
            "time": 82.16674472499999,
            "value": 0.0115966796875
          },
          {
            "ticks": 76915,
            "time": 82.17422336458333,
            "value": 0.012451171875
          },
          {
            "ticks": 76923,
            "time": 82.18277038125,
            "value": 0.0133056640625
          },
          {
            "ticks": 76930,
            "time": 82.19024902083333,
            "value": 0.0142822265625
          },
          {
            "ticks": 76938,
            "time": 82.19879603749999,
            "value": 0.01513671875
          },
          {
            "ticks": 76945,
            "time": 82.20627467708333,
            "value": 0.0159912109375
          },
          {
            "ticks": 76953,
            "time": 82.21482169375,
            "value": 0.016845703125
          },
          {
            "ticks": 76960,
            "time": 82.22230033333334,
            "value": 0.017822265625
          },
          {
            "ticks": 76968,
            "time": 82.23084734999999,
            "value": 0.0186767578125
          },
          {
            "ticks": 76975,
            "time": 82.23832598958333,
            "value": 0.01953125
          },
          {
            "ticks": 76983,
            "time": 82.24687300625,
            "value": 0.0205078125
          },
          {
            "ticks": 76990,
            "time": 82.25435164583334,
            "value": 0.0213623046875
          },
          {
            "ticks": 76998,
            "time": 82.26289866249999,
            "value": 0.022216796875
          },
          {
            "ticks": 77005,
            "time": 82.27037730208333,
            "value": 0.023193359375
          },
          {
            "ticks": 77013,
            "time": 82.27892431874999,
            "value": 0.0240478515625
          },
          {
            "ticks": 77020,
            "time": 82.28640295833334,
            "value": 0.02490234375
          },
          {
            "ticks": 77028,
            "time": 82.294949975,
            "value": 0.02587890625
          },
          {
            "ticks": 77035,
            "time": 82.30242861458333,
            "value": 0.0267333984375
          },
          {
            "ticks": 77043,
            "time": 82.31097563124999,
            "value": 0.027587890625
          },
          {
            "ticks": 77050,
            "time": 82.31845427083333,
            "value": 0.028564453125
          },
          {
            "ticks": 77058,
            "time": 82.3270012875,
            "value": 0.0294189453125
          },
          {
            "ticks": 77065,
            "time": 82.33447992708334,
            "value": 0.0302734375
          },
          {
            "ticks": 77073,
            "time": 82.34302694374999,
            "value": 0.03125
          },
          {
            "ticks": 77080,
            "time": 82.35050558333333,
            "value": 0.0321044921875
          },
          {
            "ticks": 77088,
            "time": 82.3590526,
            "value": 0.032958984375
          },
          {
            "ticks": 77095,
            "time": 82.36653123958334,
            "value": 0.0338134765625
          },
          {
            "ticks": 77103,
            "time": 82.37507825624999,
            "value": 0.0347900390625
          },
          {
            "ticks": 77110,
            "time": 82.38255689583333,
            "value": 0.03564453125
          },
          {
            "ticks": 77118,
            "time": 82.39110391249999,
            "value": 0.0364990234375
          },
          {
            "ticks": 77125,
            "time": 82.39858255208334,
            "value": 0.0374755859375
          },
          {
            "ticks": 77133,
            "time": 82.40712956875,
            "value": 0.038330078125
          },
          {
            "ticks": 77140,
            "time": 82.41460820833333,
            "value": 0.0391845703125
          },
          {
            "ticks": 77148,
            "time": 82.42315522499999,
            "value": 0.0401611328125
          },
          {
            "ticks": 77155,
            "time": 82.43063386458333,
            "value": 0.041015625
          },
          {
            "ticks": 77163,
            "time": 82.43918088125,
            "value": 0.0418701171875
          },
          {
            "ticks": 77170,
            "time": 82.44665952083334,
            "value": 0.0428466796875
          },
          {
            "ticks": 77178,
            "time": 82.45520653749999,
            "value": 0.043701171875
          },
          {
            "ticks": 77185,
            "time": 82.46268517708333,
            "value": 0.0445556640625
          },
          {
            "ticks": 77193,
            "time": 82.47123219375,
            "value": 0.0455322265625
          },
          {
            "ticks": 77200,
            "time": 82.47871083333334,
            "value": 0.04638671875
          },
          {
            "ticks": 77208,
            "time": 82.48725784999999,
            "value": 0.0472412109375
          },
          {
            "ticks": 77215,
            "time": 82.49473648958333,
            "value": 0.048095703125
          },
          {
            "ticks": 77223,
            "time": 82.50328350624999,
            "value": 0.049072265625
          },
          {
            "ticks": 77230,
            "time": 82.51076214583334,
            "value": 0.0499267578125
          },
          {
            "ticks": 77238,
            "time": 82.5193091625,
            "value": 0.05078125
          },
          {
            "ticks": 77245,
            "time": 82.52678780208333,
            "value": 0.0517578125
          },
          {
            "ticks": 77253,
            "time": 82.53533481874999,
            "value": 0.0526123046875
          },
          {
            "ticks": 77260,
            "time": 82.54281345833333,
            "value": 0.053466796875
          },
          {
            "ticks": 77268,
            "time": 82.551360475,
            "value": 0.054443359375
          },
          {
            "ticks": 77275,
            "time": 82.55883911458334,
            "value": 0.0552978515625
          },
          {
            "ticks": 77283,
            "time": 82.56738613124999,
            "value": 0.05615234375
          },
          {
            "ticks": 77290,
            "time": 82.57486477083333,
            "value": 0.05712890625
          },
          {
            "ticks": 77298,
            "time": 82.5834117875,
            "value": 0.0579833984375
          },
          {
            "ticks": 77305,
            "time": 82.59089042708334,
            "value": 0.058837890625
          },
          {
            "ticks": 77313,
            "time": 82.59943744374999,
            "value": 0.059814453125
          },
          {
            "ticks": 77320,
            "time": 82.60691608333333,
            "value": 0.0606689453125
          },
          {
            "ticks": 77328,
            "time": 82.6154631,
            "value": 0.0615234375
          },
          {
            "ticks": 77335,
            "time": 82.62294173958334,
            "value": 0.0625
          },
          {
            "ticks": 77343,
            "time": 82.63148875625,
            "value": 0.0633544921875
          },
          {
            "ticks": 77350,
            "time": 82.63896739583333,
            "value": 0.064208984375
          },
          {
            "ticks": 77358,
            "time": 82.64751441249999,
            "value": 0.0650634765625
          },
          {
            "ticks": 77365,
            "time": 82.65499305208333,
            "value": 0.0660400390625
          },
          {
            "ticks": 77373,
            "time": 82.66354006875,
            "value": 0.06689453125
          },
          {
            "ticks": 77380,
            "time": 82.67101870833334,
            "value": 0.0677490234375
          },
          {
            "ticks": 77388,
            "time": 82.67956572499999,
            "value": 0.0687255859375
          },
          {
            "ticks": 77395,
            "time": 82.68704436458333,
            "value": 0.069580078125
          },
          {
            "ticks": 77403,
            "time": 82.69559138125,
            "value": 0.0704345703125
          },
          {
            "ticks": 77410,
            "time": 82.70307002083334,
            "value": 0.0714111328125
          },
          {
            "ticks": 77418,
            "time": 82.71161703749999,
            "value": 0.072265625
          },
          {
            "ticks": 77425,
            "time": 82.71909567708333,
            "value": 0.0731201171875
          },
          {
            "ticks": 77433,
            "time": 82.72764269375,
            "value": 0.0740966796875
          },
          {
            "ticks": 77440,
            "time": 82.73512133333334,
            "value": 0.074951171875
          },
          {
            "ticks": 77448,
            "time": 82.74366835,
            "value": 0.0758056640625
          },
          {
            "ticks": 77455,
            "time": 82.75114698958333,
            "value": 0.0767822265625
          },
          {
            "ticks": 77463,
            "time": 82.75969400624999,
            "value": 0.07763671875
          },
          {
            "ticks": 77470,
            "time": 82.76717264583333,
            "value": 0.0784912109375
          },
          {
            "ticks": 77478,
            "time": 82.7757196625,
            "value": 0.079345703125
          },
          {
            "ticks": 77485,
            "time": 82.78319830208333,
            "value": 0.080322265625
          },
          {
            "ticks": 77493,
            "time": 82.79174531874999,
            "value": 0.0811767578125
          },
          {
            "ticks": 77500,
            "time": 82.79922395833333,
            "value": 0.08203125
          },
          {
            "ticks": 77508,
            "time": 82.807770975,
            "value": 0.0830078125
          },
          {
            "ticks": 77515,
            "time": 82.81524961458334,
            "value": 0.0838623046875
          },
          {
            "ticks": 77523,
            "time": 82.82379663124999,
            "value": 0.084716796875
          },
          {
            "ticks": 77530,
            "time": 82.83127527083333,
            "value": 0.085693359375
          },
          {
            "ticks": 77538,
            "time": 82.8398222875,
            "value": 0.0865478515625
          },
          {
            "ticks": 77545,
            "time": 82.84730092708334,
            "value": 0.08740234375
          },
          {
            "ticks": 77553,
            "time": 82.85584794374999,
            "value": 0.08837890625
          },
          {
            "ticks": 77560,
            "time": 82.86332658333333,
            "value": 0.0892333984375
          },
          {
            "ticks": 77568,
            "time": 82.87187359999999,
            "value": 0.090087890625
          },
          {
            "ticks": 77575,
            "time": 82.87935223958334,
            "value": 0.091064453125
          },
          {
            "ticks": 77583,
            "time": 82.88789925625,
            "value": 0.0919189453125
          },
          {
            "ticks": 77590,
            "time": 82.89537789583333,
            "value": 0.0927734375
          },
          {
            "ticks": 77598,
            "time": 82.90392491249999,
            "value": 0.09375
          },
          {
            "ticks": 77605,
            "time": 82.91140355208333,
            "value": 0.0946044921875
          },
          {
            "ticks": 77613,
            "time": 82.91995056875,
            "value": 0.095458984375
          },
          {
            "ticks": 77620,
            "time": 82.92742920833334,
            "value": 0.0963134765625
          },
          {
            "ticks": 77628,
            "time": 82.93597622499999,
            "value": 0.0972900390625
          },
          {
            "ticks": 77635,
            "time": 82.94345486458333,
            "value": 0.09814453125
          },
          {
            "ticks": 77643,
            "time": 82.95200188125,
            "value": 0.0989990234375
          },
          {
            "ticks": 77650,
            "time": 82.95948052083334,
            "value": 0.0999755859375
          },
          {
            "ticks": 77658,
            "time": 82.96802753749999,
            "value": 0.100830078125
          },
          {
            "ticks": 77665,
            "time": 82.97550617708333,
            "value": 0.1016845703125
          },
          {
            "ticks": 77673,
            "time": 82.98405319374999,
            "value": 0.1026611328125
          },
          {
            "ticks": 77680,
            "time": 82.99153183333334,
            "value": 0.103515625
          },
          {
            "ticks": 77688,
            "time": 83.00007885,
            "value": 0.1043701171875
          },
          {
            "ticks": 77695,
            "time": 83.00755748958333,
            "value": 0.1053466796875
          },
          {
            "ticks": 77703,
            "time": 83.01610450624999,
            "value": 0.106201171875
          },
          {
            "ticks": 77710,
            "time": 83.02358314583333,
            "value": 0.1070556640625
          },
          {
            "ticks": 77718,
            "time": 83.0321301625,
            "value": 0.1080322265625
          },
          {
            "ticks": 77725,
            "time": 83.03960880208334,
            "value": 0.10888671875
          },
          {
            "ticks": 77733,
            "time": 83.04815581874999,
            "value": 0.1097412109375
          },
          {
            "ticks": 77740,
            "time": 83.05563445833333,
            "value": 0.110595703125
          },
          {
            "ticks": 77748,
            "time": 83.064181475,
            "value": 0.111572265625
          },
          {
            "ticks": 77755,
            "time": 83.07166011458334,
            "value": 0.1124267578125
          },
          {
            "ticks": 77763,
            "time": 83.08020713124999,
            "value": 0.11328125
          },
          {
            "ticks": 77770,
            "time": 83.08768577083333,
            "value": 0.1142578125
          },
          {
            "ticks": 77778,
            "time": 83.09623278749999,
            "value": 0.1151123046875
          },
          {
            "ticks": 77785,
            "time": 83.10371142708334,
            "value": 0.115966796875
          },
          {
            "ticks": 77793,
            "time": 83.11225844375,
            "value": 0.116943359375
          },
          {
            "ticks": 77800,
            "time": 83.11973708333333,
            "value": 0.1177978515625
          },
          {
            "ticks": 77808,
            "time": 83.12828409999999,
            "value": 0.11865234375
          },
          {
            "ticks": 77815,
            "time": 83.13576273958333,
            "value": 0.11962890625
          },
          {
            "ticks": 77823,
            "time": 83.14430975625,
            "value": 0.1204833984375
          },
          {
            "ticks": 77830,
            "time": 83.15178839583334,
            "value": 0.121337890625
          },
          {
            "ticks": 77838,
            "time": 83.16033541249999,
            "value": 0.122314453125
          },
          {
            "ticks": 77845,
            "time": 83.16781405208333,
            "value": 0.1231689453125
          },
          {
            "ticks": 77853,
            "time": 83.17636106875,
            "value": 0.1240234375
          },
          {
            "ticks": 77860,
            "time": 83.18383970833334,
            "value": 0.125
          },
          {
            "ticks": 77868,
            "time": 83.19238672499999,
            "value": 0.1258544921875
          },
          {
            "ticks": 77875,
            "time": 83.19986536458333,
            "value": 0.126708984375
          },
          {
            "ticks": 77883,
            "time": 83.20841238124999,
            "value": 0.1275634765625
          },
          {
            "ticks": 77890,
            "time": 83.21589102083334,
            "value": 0.1285400390625
          },
          {
            "ticks": 77898,
            "time": 83.2244380375,
            "value": 0.12939453125
          },
          {
            "ticks": 77905,
            "time": 83.23191667708333,
            "value": 0.1302490234375
          },
          {
            "ticks": 77913,
            "time": 83.24046369374999,
            "value": 0.1312255859375
          },
          {
            "ticks": 77920,
            "time": 83.24794233333333,
            "value": 0.132080078125
          },
          {
            "ticks": 77928,
            "time": 83.25648935,
            "value": 0.1329345703125
          },
          {
            "ticks": 77935,
            "time": 83.26396798958334,
            "value": 0.1339111328125
          },
          {
            "ticks": 77943,
            "time": 83.27251500624999,
            "value": 0.134765625
          },
          {
            "ticks": 77950,
            "time": 83.27999364583333,
            "value": 0.1356201171875
          },
          {
            "ticks": 77958,
            "time": 83.2885406625,
            "value": 0.1365966796875
          },
          {
            "ticks": 77965,
            "time": 83.29601930208334,
            "value": 0.137451171875
          },
          {
            "ticks": 77973,
            "time": 83.30456631874999,
            "value": 0.1383056640625
          },
          {
            "ticks": 77980,
            "time": 83.31204495833333,
            "value": 0.1392822265625
          },
          {
            "ticks": 77988,
            "time": 83.320591975,
            "value": 0.14013671875
          },
          {
            "ticks": 77995,
            "time": 83.32807061458334,
            "value": 0.1409912109375
          },
          {
            "ticks": 78003,
            "time": 83.33661763125,
            "value": 0.141845703125
          },
          {
            "ticks": 78010,
            "time": 83.34409627083333,
            "value": 0.142822265625
          },
          {
            "ticks": 78018,
            "time": 83.35264328749999,
            "value": 0.1436767578125
          },
          {
            "ticks": 78025,
            "time": 83.36012192708333,
            "value": 0.14453125
          },
          {
            "ticks": 78033,
            "time": 83.36866894375,
            "value": 0.1455078125
          },
          {
            "ticks": 78040,
            "time": 83.37614758333333,
            "value": 0.1463623046875
          },
          {
            "ticks": 78048,
            "time": 83.38469459999999,
            "value": 0.147216796875
          },
          {
            "ticks": 78055,
            "time": 83.39217323958333,
            "value": 0.148193359375
          },
          {
            "ticks": 78063,
            "time": 83.40072025625,
            "value": 0.1490478515625
          },
          {
            "ticks": 78070,
            "time": 83.40819889583334,
            "value": 0.14990234375
          },
          {
            "ticks": 78078,
            "time": 83.41674591249999,
            "value": 0.15087890625
          },
          {
            "ticks": 78085,
            "time": 83.42422455208333,
            "value": 0.1517333984375
          },
          {
            "ticks": 78093,
            "time": 83.43277156875,
            "value": 0.152587890625
          },
          {
            "ticks": 78100,
            "time": 83.44025020833334,
            "value": 0.153564453125
          },
          {
            "ticks": 78108,
            "time": 83.44879722499999,
            "value": 0.1544189453125
          },
          {
            "ticks": 78115,
            "time": 83.45627586458333,
            "value": 0.1552734375
          },
          {
            "ticks": 78123,
            "time": 83.46482288124999,
            "value": 0.15625
          },
          {
            "ticks": 78130,
            "time": 83.47230152083333,
            "value": 0.1571044921875
          },
          {
            "ticks": 78138,
            "time": 83.4808485375,
            "value": 0.157958984375
          },
          {
            "ticks": 78145,
            "time": 83.48832717708333,
            "value": 0.1588134765625
          },
          {
            "ticks": 78153,
            "time": 83.49687419374999,
            "value": 0.1597900390625
          },
          {
            "ticks": 78160,
            "time": 83.50435283333333,
            "value": 0.16064453125
          },
          {
            "ticks": 78168,
            "time": 83.51289985,
            "value": 0.1614990234375
          },
          {
            "ticks": 78175,
            "time": 83.52037848958334,
            "value": 0.1624755859375
          },
          {
            "ticks": 78183,
            "time": 83.52892550624999,
            "value": 0.163330078125
          },
          {
            "ticks": 78190,
            "time": 83.53640414583333,
            "value": 0.1641845703125
          },
          {
            "ticks": 78198,
            "time": 83.5449511625,
            "value": 0.1651611328125
          },
          {
            "ticks": 78205,
            "time": 83.55242980208334,
            "value": 0.166015625
          },
          {
            "ticks": 78213,
            "time": 83.56097681874999,
            "value": 0.1668701171875
          },
          {
            "ticks": 78220,
            "time": 83.56845545833333,
            "value": 0.1678466796875
          },
          {
            "ticks": 78228,
            "time": 83.57700247499999,
            "value": 0.168701171875
          },
          {
            "ticks": 78235,
            "time": 83.58448111458334,
            "value": 0.1695556640625
          },
          {
            "ticks": 78243,
            "time": 83.59302813125,
            "value": 0.1705322265625
          },
          {
            "ticks": 78250,
            "time": 83.60050677083333,
            "value": 0.17138671875
          },
          {
            "ticks": 78258,
            "time": 83.60905378749999,
            "value": 0.1722412109375
          },
          {
            "ticks": 78265,
            "time": 83.61653242708333,
            "value": 0.173095703125
          },
          {
            "ticks": 78273,
            "time": 83.62507944375,
            "value": 0.174072265625
          },
          {
            "ticks": 78280,
            "time": 83.63255808333334,
            "value": 0.1749267578125
          },
          {
            "ticks": 78288,
            "time": 83.64110509999999,
            "value": 0.17578125
          },
          {
            "ticks": 78295,
            "time": 83.64858373958333,
            "value": 0.1767578125
          },
          {
            "ticks": 78303,
            "time": 83.65713075625,
            "value": 0.1776123046875
          },
          {
            "ticks": 78310,
            "time": 83.66460939583334,
            "value": 0.178466796875
          },
          {
            "ticks": 78318,
            "time": 83.67315641249999,
            "value": 0.179443359375
          },
          {
            "ticks": 78325,
            "time": 83.68063505208333,
            "value": 0.1802978515625
          },
          {
            "ticks": 78333,
            "time": 83.68918206874999,
            "value": 0.18115234375
          },
          {
            "ticks": 78340,
            "time": 83.69666070833334,
            "value": 0.18212890625
          },
          {
            "ticks": 78348,
            "time": 83.705207725,
            "value": 0.1829833984375
          },
          {
            "ticks": 78355,
            "time": 83.71268636458333,
            "value": 0.183837890625
          },
          {
            "ticks": 78363,
            "time": 83.72123338124999,
            "value": 0.184814453125
          },
          {
            "ticks": 78370,
            "time": 83.72871202083333,
            "value": 0.1856689453125
          },
          {
            "ticks": 78378,
            "time": 83.7372590375,
            "value": 0.1865234375
          },
          {
            "ticks": 78385,
            "time": 83.74473767708334,
            "value": 0.1875
          },
          {
            "ticks": 78393,
            "time": 83.75328469374999,
            "value": 0.1883544921875
          },
          {
            "ticks": 78400,
            "time": 83.76076333333333,
            "value": 0.189208984375
          },
          {
            "ticks": 78408,
            "time": 83.76931035,
            "value": 0.1900634765625
          },
          {
            "ticks": 78415,
            "time": 83.77678898958334,
            "value": 0.1910400390625
          },
          {
            "ticks": 78423,
            "time": 83.78533600624999,
            "value": 0.19189453125
          },
          {
            "ticks": 78430,
            "time": 83.79281464583333,
            "value": 0.1927490234375
          },
          {
            "ticks": 78438,
            "time": 83.80136166249999,
            "value": 0.1937255859375
          },
          {
            "ticks": 78445,
            "time": 83.80884030208334,
            "value": 0.194580078125
          },
          {
            "ticks": 78453,
            "time": 83.81738731875,
            "value": 0.1954345703125
          },
          {
            "ticks": 78460,
            "time": 83.82486595833333,
            "value": 0.1964111328125
          },
          {
            "ticks": 78468,
            "time": 83.83341297499999,
            "value": 0.197265625
          },
          {
            "ticks": 78475,
            "time": 83.84089161458333,
            "value": 0.1981201171875
          },
          {
            "ticks": 78483,
            "time": 83.84943863125,
            "value": 0.1990966796875
          },
          {
            "ticks": 78490,
            "time": 83.85691727083334,
            "value": 0.199951171875
          },
          {
            "ticks": 78498,
            "time": 83.86546428749999,
            "value": 0.2008056640625
          },
          {
            "ticks": 78505,
            "time": 83.87294292708333,
            "value": 0.2017822265625
          },
          {
            "ticks": 78513,
            "time": 83.88148994375,
            "value": 0.20263671875
          },
          {
            "ticks": 78520,
            "time": 83.88896858333334,
            "value": 0.2034912109375
          },
          {
            "ticks": 78528,
            "time": 83.89751559999999,
            "value": 0.204345703125
          },
          {
            "ticks": 78535,
            "time": 83.90499423958333,
            "value": 0.205322265625
          },
          {
            "ticks": 78543,
            "time": 83.91354125625,
            "value": 0.2061767578125
          },
          {
            "ticks": 78550,
            "time": 83.92101989583334,
            "value": 0.20703125
          },
          {
            "ticks": 78558,
            "time": 83.9295669125,
            "value": 0.2080078125
          },
          {
            "ticks": 78565,
            "time": 83.93704555208333,
            "value": 0.2088623046875
          },
          {
            "ticks": 78573,
            "time": 83.94559256874999,
            "value": 0.209716796875
          },
          {
            "ticks": 78580,
            "time": 83.95307120833333,
            "value": 0.210693359375
          },
          {
            "ticks": 78588,
            "time": 83.961618225,
            "value": 0.2115478515625
          },
          {
            "ticks": 78595,
            "time": 83.96909686458334,
            "value": 0.21240234375
          },
          {
            "ticks": 78603,
            "time": 83.97764388124999,
            "value": 0.21337890625
          },
          {
            "ticks": 78610,
            "time": 83.98512252083333,
            "value": 0.2142333984375
          },
          {
            "ticks": 78618,
            "time": 83.9936695375,
            "value": 0.215087890625
          },
          {
            "ticks": 78625,
            "time": 84.00114817708334,
            "value": 0.216064453125
          },
          {
            "ticks": 78633,
            "time": 84.00969519374999,
            "value": 0.2169189453125
          },
          {
            "ticks": 78640,
            "time": 84.01717383333333,
            "value": 0.2177734375
          },
          {
            "ticks": 78648,
            "time": 84.02572085,
            "value": 0.21875
          },
          {
            "ticks": 78655,
            "time": 84.03319948958334,
            "value": 0.294921875
          },
          {
            "ticks": 78663,
            "time": 84.04174650624999,
            "value": 0.37109375
          },
          {
            "ticks": 78668,
            "time": 84.04708839166666,
            "value": 0.421875
          },
          {
            "ticks": 78675,
            "time": 84.05456703125,
            "value": 0.53564453125
          },
          {
            "ticks": 78683,
            "time": 84.06311404791667,
            "value": 0.6495361328125
          },
          {
            "ticks": 78685,
            "time": 84.06525080208333,
            "value": 0.6875
          },
          {
            "ticks": 78691,
            "time": 84.07166106458332,
            "value": 0.762451171875
          },
          {
            "ticks": 78698,
            "time": 84.07913970416666,
            "value": 0.84375
          },
          {
            "ticks": 78705,
            "time": 84.08661834374999,
            "value": 0.703125
          },
          {
            "ticks": 78713,
            "time": 84.09516536041667,
            "value": 0.5625
          },
          {
            "ticks": 78720,
            "time": 84.102644,
            "value": 0.421875
          },
          {
            "ticks": 78728,
            "time": 84.11119101666667,
            "value": 0.28125
          },
          {
            "ticks": 78735,
            "time": 84.11866965624999,
            "value": 0.140625
          },
          {
            "ticks": 78743,
            "time": 84.12721667291667,
            "value": 0
          },
          {
            "ticks": 145773,
            "time": 155.74053256875,
            "value": 0
          },
          {
            "ticks": 145780,
            "time": 155.7480112083333,
            "value": 0.0372314453125
          },
          {
            "ticks": 145788,
            "time": 155.756558225,
            "value": 0.074462890625
          },
          {
            "ticks": 145795,
            "time": 155.76403686458332,
            "value": 0.1116943359375
          },
          {
            "ticks": 145803,
            "time": 155.77258388125,
            "value": 0.14892578125
          },
          {
            "ticks": 145810,
            "time": 155.78006252083333,
            "value": 0.186279296875
          },
          {
            "ticks": 145818,
            "time": 155.7886095375,
            "value": 0.2235107421875
          },
          {
            "ticks": 145825,
            "time": 155.7960881770833,
            "value": 0.2607421875
          },
          {
            "ticks": 145833,
            "time": 155.80463519375002,
            "value": 0.2979736328125
          },
          {
            "ticks": 145840,
            "time": 155.8121138333333,
            "value": 0.3353271484375
          },
          {
            "ticks": 145848,
            "time": 155.82066085,
            "value": 0.37255859375
          },
          {
            "ticks": 145855,
            "time": 155.82813948958332,
            "value": 0.4097900390625
          },
          {
            "ticks": 145863,
            "time": 155.83668650625,
            "value": 0.447021484375
          },
          {
            "ticks": 145870,
            "time": 155.8441651458333,
            "value": 0.484375
          },
          {
            "ticks": 145878,
            "time": 155.8527121625,
            "value": 0.536376953125
          },
          {
            "ticks": 145885,
            "time": 155.8601908020833,
            "value": 0.5885009765625
          },
          {
            "ticks": 145893,
            "time": 155.86873781875,
            "value": 0.640625
          },
          {
            "ticks": 145900,
            "time": 155.87621645833332,
            "value": 0.560546875
          },
          {
            "ticks": 145908,
            "time": 155.884763475,
            "value": 0.48046875
          },
          {
            "ticks": 145915,
            "time": 155.89224211458333,
            "value": 0.400390625
          },
          {
            "ticks": 145923,
            "time": 155.90078913125,
            "value": 0.3203125
          },
          {
            "ticks": 145930,
            "time": 155.9082677708333,
            "value": 0.240234375
          },
          {
            "ticks": 145938,
            "time": 155.91681478750002,
            "value": 0.16015625
          },
          {
            "ticks": 145945,
            "time": 155.9242934270833,
            "value": 0.080078125
          },
          {
            "ticks": 145953,
            "time": 155.93284044375,
            "value": 0
          },
          {
            "ticks": 145960,
            "time": 155.94031908333332,
            "value": 0.0003662109375
          },
          {
            "ticks": 145968,
            "time": 155.9488661,
            "value": 0.000732421875
          },
          {
            "ticks": 145975,
            "time": 155.9563447395833,
            "value": 0.001220703125
          },
          {
            "ticks": 145983,
            "time": 155.96489175625,
            "value": 0.0015869140625
          },
          {
            "ticks": 145990,
            "time": 155.9723703958333,
            "value": 0.0020751953125
          },
          {
            "ticks": 145998,
            "time": 155.9809174125,
            "value": 0.00244140625
          },
          {
            "ticks": 146005,
            "time": 155.98839605208332,
            "value": 0.0028076171875
          },
          {
            "ticks": 146013,
            "time": 155.99694306875,
            "value": 0.0032958984375
          },
          {
            "ticks": 146020,
            "time": 156.00442170833333,
            "value": 0.003662109375
          },
          {
            "ticks": 146028,
            "time": 156.012968725,
            "value": 0.004150390625
          },
          {
            "ticks": 146035,
            "time": 156.0204473645833,
            "value": 0.0045166015625
          },
          {
            "ticks": 146043,
            "time": 156.02899438125002,
            "value": 0.0048828125
          },
          {
            "ticks": 146050,
            "time": 156.0364730208333,
            "value": 0.00537109375
          },
          {
            "ticks": 146058,
            "time": 156.0450200375,
            "value": 0.0057373046875
          },
          {
            "ticks": 146065,
            "time": 156.05249867708332,
            "value": 0.0062255859375
          },
          {
            "ticks": 146073,
            "time": 156.06104569375,
            "value": 0.006591796875
          },
          {
            "ticks": 146080,
            "time": 156.06852433333333,
            "value": 0.0069580078125
          },
          {
            "ticks": 146088,
            "time": 156.07707135,
            "value": 0.0074462890625
          },
          {
            "ticks": 146095,
            "time": 156.0845499895833,
            "value": 0.0078125
          },
          {
            "ticks": 146103,
            "time": 156.09309700625,
            "value": 0.00830078125
          },
          {
            "ticks": 146110,
            "time": 156.10057564583332,
            "value": 0.0086669921875
          },
          {
            "ticks": 146118,
            "time": 156.1091226625,
            "value": 0.009033203125
          },
          {
            "ticks": 146125,
            "time": 156.11660130208332,
            "value": 0.009521484375
          },
          {
            "ticks": 146133,
            "time": 156.12514831875,
            "value": 0.0098876953125
          },
          {
            "ticks": 146140,
            "time": 156.1326269583333,
            "value": 0.0103759765625
          },
          {
            "ticks": 146148,
            "time": 156.14117397500002,
            "value": 0.0107421875
          },
          {
            "ticks": 146155,
            "time": 156.1486526145833,
            "value": 0.0111083984375
          },
          {
            "ticks": 146163,
            "time": 156.15719963125,
            "value": 0.0115966796875
          },
          {
            "ticks": 146170,
            "time": 156.16467827083332,
            "value": 0.011962890625
          },
          {
            "ticks": 146178,
            "time": 156.1732252875,
            "value": 0.012451171875
          },
          {
            "ticks": 146185,
            "time": 156.18070392708333,
            "value": 0.0128173828125
          },
          {
            "ticks": 146193,
            "time": 156.18925094375,
            "value": 0.01318359375
          },
          {
            "ticks": 146200,
            "time": 156.1967295833333,
            "value": 0.013671875
          },
          {
            "ticks": 146208,
            "time": 156.2052766,
            "value": 0.0140380859375
          },
          {
            "ticks": 146215,
            "time": 156.21275523958332,
            "value": 0.0145263671875
          },
          {
            "ticks": 146223,
            "time": 156.22130225625,
            "value": 0.014892578125
          },
          {
            "ticks": 146230,
            "time": 156.22878089583332,
            "value": 0.0152587890625
          },
          {
            "ticks": 146238,
            "time": 156.2373279125,
            "value": 0.0157470703125
          },
          {
            "ticks": 146245,
            "time": 156.2448065520833,
            "value": 0.01611328125
          },
          {
            "ticks": 146253,
            "time": 156.25335356875001,
            "value": 0.0166015625
          },
          {
            "ticks": 146260,
            "time": 156.2608322083333,
            "value": 0.0169677734375
          },
          {
            "ticks": 146268,
            "time": 156.269379225,
            "value": 0.017333984375
          },
          {
            "ticks": 146275,
            "time": 156.27685786458332,
            "value": 0.017822265625
          },
          {
            "ticks": 146283,
            "time": 156.28540488125,
            "value": 0.0181884765625
          },
          {
            "ticks": 146290,
            "time": 156.29288352083333,
            "value": 0.0186767578125
          },
          {
            "ticks": 146298,
            "time": 156.3014305375,
            "value": 0.01904296875
          },
          {
            "ticks": 146305,
            "time": 156.3089091770833,
            "value": 0.0194091796875
          },
          {
            "ticks": 146313,
            "time": 156.31745619375,
            "value": 0.0198974609375
          },
          {
            "ticks": 146320,
            "time": 156.32493483333332,
            "value": 0.020263671875
          },
          {
            "ticks": 146328,
            "time": 156.33348185,
            "value": 0.020751953125
          },
          {
            "ticks": 146335,
            "time": 156.34096048958332,
            "value": 0.0211181640625
          },
          {
            "ticks": 146343,
            "time": 156.34950750625,
            "value": 0.021484375
          },
          {
            "ticks": 146350,
            "time": 156.3569861458333,
            "value": 0.02197265625
          },
          {
            "ticks": 146358,
            "time": 156.36553316250001,
            "value": 0.0223388671875
          },
          {
            "ticks": 146365,
            "time": 156.3730118020833,
            "value": 0.0228271484375
          },
          {
            "ticks": 146373,
            "time": 156.38155881875,
            "value": 0.023193359375
          },
          {
            "ticks": 146380,
            "time": 156.38903745833332,
            "value": 0.0235595703125
          },
          {
            "ticks": 146388,
            "time": 156.397584475,
            "value": 0.0240478515625
          },
          {
            "ticks": 146395,
            "time": 156.40506311458333,
            "value": 0.0244140625
          },
          {
            "ticks": 146403,
            "time": 156.41361013125,
            "value": 0.02490234375
          },
          {
            "ticks": 146410,
            "time": 156.4210887708333,
            "value": 0.0252685546875
          },
          {
            "ticks": 146418,
            "time": 156.4296357875,
            "value": 0.025634765625
          },
          {
            "ticks": 146425,
            "time": 156.43711442708332,
            "value": 0.026123046875
          },
          {
            "ticks": 146433,
            "time": 156.44566144375,
            "value": 0.0264892578125
          },
          {
            "ticks": 146440,
            "time": 156.45314008333332,
            "value": 0.0269775390625
          },
          {
            "ticks": 146448,
            "time": 156.4616871,
            "value": 0.02734375
          },
          {
            "ticks": 146455,
            "time": 156.4691657395833,
            "value": 0.0277099609375
          },
          {
            "ticks": 146463,
            "time": 156.47771275625,
            "value": 0.0281982421875
          },
          {
            "ticks": 146470,
            "time": 156.4851913958333,
            "value": 0.028564453125
          },
          {
            "ticks": 146478,
            "time": 156.4937384125,
            "value": 0.029052734375
          },
          {
            "ticks": 146485,
            "time": 156.50121705208332,
            "value": 0.0294189453125
          },
          {
            "ticks": 146493,
            "time": 156.50976406875,
            "value": 0.02978515625
          },
          {
            "ticks": 146500,
            "time": 156.51724270833333,
            "value": 0.0302734375
          },
          {
            "ticks": 146508,
            "time": 156.525789725,
            "value": 0.0306396484375
          },
          {
            "ticks": 146515,
            "time": 156.5332683645833,
            "value": 0.0311279296875
          },
          {
            "ticks": 146523,
            "time": 156.54181538125,
            "value": 0.031494140625
          },
          {
            "ticks": 146530,
            "time": 156.54929402083332,
            "value": 0.0318603515625
          },
          {
            "ticks": 146538,
            "time": 156.5578410375,
            "value": 0.0323486328125
          },
          {
            "ticks": 146545,
            "time": 156.56531967708332,
            "value": 0.03271484375
          },
          {
            "ticks": 146553,
            "time": 156.57386669375,
            "value": 0.033203125
          },
          {
            "ticks": 146560,
            "time": 156.5813453333333,
            "value": 0.0335693359375
          },
          {
            "ticks": 146568,
            "time": 156.58989235,
            "value": 0.033935546875
          },
          {
            "ticks": 146575,
            "time": 156.5973709895833,
            "value": 0.034423828125
          },
          {
            "ticks": 146583,
            "time": 156.60591800625,
            "value": 0.0347900390625
          },
          {
            "ticks": 146590,
            "time": 156.61339664583332,
            "value": 0.0352783203125
          },
          {
            "ticks": 146598,
            "time": 156.6219436625,
            "value": 0.03564453125
          },
          {
            "ticks": 146605,
            "time": 156.62942230208333,
            "value": 0.0360107421875
          },
          {
            "ticks": 146613,
            "time": 156.63796931875,
            "value": 0.0364990234375
          },
          {
            "ticks": 146620,
            "time": 156.6454479583333,
            "value": 0.036865234375
          },
          {
            "ticks": 146628,
            "time": 156.653994975,
            "value": 0.037353515625
          },
          {
            "ticks": 146635,
            "time": 156.66147361458331,
            "value": 0.0377197265625
          },
          {
            "ticks": 146643,
            "time": 156.67002063125,
            "value": 0.0380859375
          },
          {
            "ticks": 146650,
            "time": 156.67749927083332,
            "value": 0.03857421875
          },
          {
            "ticks": 146658,
            "time": 156.6860462875,
            "value": 0.0389404296875
          },
          {
            "ticks": 146665,
            "time": 156.6935249270833,
            "value": 0.0394287109375
          },
          {
            "ticks": 146673,
            "time": 156.70207194375,
            "value": 0.039794921875
          },
          {
            "ticks": 146680,
            "time": 156.7095505833333,
            "value": 0.0401611328125
          },
          {
            "ticks": 146688,
            "time": 156.7180976,
            "value": 0.0406494140625
          },
          {
            "ticks": 146695,
            "time": 156.72557623958332,
            "value": 0.041015625
          },
          {
            "ticks": 146703,
            "time": 156.73412325625,
            "value": 0.04150390625
          },
          {
            "ticks": 146710,
            "time": 156.74160189583333,
            "value": 0.0418701171875
          },
          {
            "ticks": 146718,
            "time": 156.7501489125,
            "value": 0.042236328125
          },
          {
            "ticks": 146725,
            "time": 156.7576275520833,
            "value": 0.042724609375
          },
          {
            "ticks": 146733,
            "time": 156.76617456875,
            "value": 0.0430908203125
          },
          {
            "ticks": 146740,
            "time": 156.77365320833331,
            "value": 0.0435791015625
          },
          {
            "ticks": 146748,
            "time": 156.782200225,
            "value": 0.0439453125
          },
          {
            "ticks": 146755,
            "time": 156.78967886458332,
            "value": 0.0443115234375
          },
          {
            "ticks": 146763,
            "time": 156.79822588125,
            "value": 0.0447998046875
          },
          {
            "ticks": 146770,
            "time": 156.8057045208333,
            "value": 0.045166015625
          },
          {
            "ticks": 146778,
            "time": 156.8142515375,
            "value": 0.045654296875
          },
          {
            "ticks": 146785,
            "time": 156.8217301770833,
            "value": 0.0460205078125
          },
          {
            "ticks": 146793,
            "time": 156.83027719375,
            "value": 0.04638671875
          },
          {
            "ticks": 146800,
            "time": 156.83775583333332,
            "value": 0.046875
          },
          {
            "ticks": 146808,
            "time": 156.84630285,
            "value": 0.0472412109375
          },
          {
            "ticks": 146815,
            "time": 156.85378148958333,
            "value": 0.0477294921875
          },
          {
            "ticks": 146823,
            "time": 156.86232850625,
            "value": 0.048095703125
          },
          {
            "ticks": 146830,
            "time": 156.8698071458333,
            "value": 0.0484619140625
          },
          {
            "ticks": 146838,
            "time": 156.87835416250002,
            "value": 0.0489501953125
          },
          {
            "ticks": 146845,
            "time": 156.8858328020833,
            "value": 0.04931640625
          },
          {
            "ticks": 146853,
            "time": 156.89437981875,
            "value": 0.0498046875
          },
          {
            "ticks": 146860,
            "time": 156.90185845833332,
            "value": 0.0501708984375
          },
          {
            "ticks": 146868,
            "time": 156.910405475,
            "value": 0.050537109375
          },
          {
            "ticks": 146875,
            "time": 156.9178841145833,
            "value": 0.051025390625
          },
          {
            "ticks": 146883,
            "time": 156.92643113125,
            "value": 0.0513916015625
          },
          {
            "ticks": 146890,
            "time": 156.9339097708333,
            "value": 0.0518798828125
          },
          {
            "ticks": 146898,
            "time": 156.9424567875,
            "value": 0.05224609375
          },
          {
            "ticks": 146905,
            "time": 156.94993542708332,
            "value": 0.0526123046875
          },
          {
            "ticks": 146913,
            "time": 156.95848244375,
            "value": 0.0531005859375
          },
          {
            "ticks": 146920,
            "time": 156.96596108333333,
            "value": 0.053466796875
          },
          {
            "ticks": 146928,
            "time": 156.9745081,
            "value": 0.053955078125
          },
          {
            "ticks": 146935,
            "time": 156.9819867395833,
            "value": 0.0543212890625
          },
          {
            "ticks": 146943,
            "time": 156.99053375625002,
            "value": 0.0546875
          },
          {
            "ticks": 146950,
            "time": 156.9980123958333,
            "value": 0.05517578125
          },
          {
            "ticks": 146958,
            "time": 157.0065594125,
            "value": 0.0555419921875
          },
          {
            "ticks": 146965,
            "time": 157.01403805208332,
            "value": 0.0560302734375
          },
          {
            "ticks": 146973,
            "time": 157.02258506875,
            "value": 0.056396484375
          },
          {
            "ticks": 146980,
            "time": 157.0300637083333,
            "value": 0.0567626953125
          },
          {
            "ticks": 146988,
            "time": 157.038610725,
            "value": 0.0572509765625
          },
          {
            "ticks": 146995,
            "time": 157.0460893645833,
            "value": 0.0576171875
          },
          {
            "ticks": 147003,
            "time": 157.05463638125,
            "value": 0.05810546875
          },
          {
            "ticks": 147010,
            "time": 157.06211502083332,
            "value": 0.0584716796875
          },
          {
            "ticks": 147018,
            "time": 157.0706620375,
            "value": 0.058837890625
          },
          {
            "ticks": 147025,
            "time": 157.07814067708333,
            "value": 0.059326171875
          },
          {
            "ticks": 147033,
            "time": 157.08668769375,
            "value": 0.0596923828125
          },
          {
            "ticks": 147040,
            "time": 157.0941663333333,
            "value": 0.0601806640625
          },
          {
            "ticks": 147048,
            "time": 157.10271335000002,
            "value": 0.060546875
          },
          {
            "ticks": 147055,
            "time": 157.1101919895833,
            "value": 0.0609130859375
          },
          {
            "ticks": 147063,
            "time": 157.11873900625,
            "value": 0.0614013671875
          },
          {
            "ticks": 147070,
            "time": 157.12621764583332,
            "value": 0.061767578125
          },
          {
            "ticks": 147078,
            "time": 157.1347646625,
            "value": 0.062255859375
          },
          {
            "ticks": 147085,
            "time": 157.1422433020833,
            "value": 0.0626220703125
          },
          {
            "ticks": 147093,
            "time": 157.15079031875,
            "value": 0.06298828125
          },
          {
            "ticks": 147100,
            "time": 157.1582689583333,
            "value": 0.0634765625
          },
          {
            "ticks": 147108,
            "time": 157.166815975,
            "value": 0.0638427734375
          },
          {
            "ticks": 147115,
            "time": 157.17429461458332,
            "value": 0.0643310546875
          },
          {
            "ticks": 147123,
            "time": 157.18284163125,
            "value": 0.064697265625
          },
          {
            "ticks": 147130,
            "time": 157.19032027083333,
            "value": 0.0650634765625
          },
          {
            "ticks": 147138,
            "time": 157.1988672875,
            "value": 0.0655517578125
          },
          {
            "ticks": 147145,
            "time": 157.2063459270833,
            "value": 0.06591796875
          },
          {
            "ticks": 147153,
            "time": 157.21489294375002,
            "value": 0.06640625
          },
          {
            "ticks": 147160,
            "time": 157.2223715833333,
            "value": 0.0667724609375
          },
          {
            "ticks": 147168,
            "time": 157.2309186,
            "value": 0.067138671875
          },
          {
            "ticks": 147175,
            "time": 157.23839723958332,
            "value": 0.067626953125
          },
          {
            "ticks": 147183,
            "time": 157.24694425625,
            "value": 0.0679931640625
          },
          {
            "ticks": 147190,
            "time": 157.2544228958333,
            "value": 0.0684814453125
          },
          {
            "ticks": 147198,
            "time": 157.2629699125,
            "value": 0.06884765625
          },
          {
            "ticks": 147205,
            "time": 157.2704485520833,
            "value": 0.0692138671875
          },
          {
            "ticks": 147213,
            "time": 157.27899556875,
            "value": 0.0697021484375
          },
          {
            "ticks": 147220,
            "time": 157.28647420833332,
            "value": 0.070068359375
          },
          {
            "ticks": 147228,
            "time": 157.295021225,
            "value": 0.070556640625
          },
          {
            "ticks": 147235,
            "time": 157.30249986458333,
            "value": 0.0709228515625
          },
          {
            "ticks": 147243,
            "time": 157.31104688125,
            "value": 0.0712890625
          },
          {
            "ticks": 147250,
            "time": 157.3185255208333,
            "value": 0.07177734375
          },
          {
            "ticks": 147258,
            "time": 157.32707253750002,
            "value": 0.0721435546875
          },
          {
            "ticks": 147265,
            "time": 157.3345511770833,
            "value": 0.0726318359375
          },
          {
            "ticks": 147273,
            "time": 157.34309819375,
            "value": 0.072998046875
          },
          {
            "ticks": 147280,
            "time": 157.35057683333332,
            "value": 0.0733642578125
          },
          {
            "ticks": 147288,
            "time": 157.35912385,
            "value": 0.0738525390625
          },
          {
            "ticks": 147295,
            "time": 157.36660248958333,
            "value": 0.07421875
          },
          {
            "ticks": 147303,
            "time": 157.37514950625,
            "value": 0.07470703125
          },
          {
            "ticks": 147310,
            "time": 157.3826281458333,
            "value": 0.0750732421875
          },
          {
            "ticks": 147318,
            "time": 157.3911751625,
            "value": 0.075439453125
          },
          {
            "ticks": 147325,
            "time": 157.39865380208332,
            "value": 0.075927734375
          },
          {
            "ticks": 147333,
            "time": 157.40720081875,
            "value": 0.0762939453125
          },
          {
            "ticks": 147340,
            "time": 157.41467945833332,
            "value": 0.0767822265625
          },
          {
            "ticks": 147348,
            "time": 157.423226475,
            "value": 0.0771484375
          },
          {
            "ticks": 147355,
            "time": 157.4307051145833,
            "value": 0.0775146484375
          },
          {
            "ticks": 147363,
            "time": 157.43925213125002,
            "value": 0.0780029296875
          },
          {
            "ticks": 147370,
            "time": 157.4467307708333,
            "value": 0.078369140625
          },
          {
            "ticks": 147378,
            "time": 157.4552777875,
            "value": 0.078857421875
          },
          {
            "ticks": 147385,
            "time": 157.46275642708332,
            "value": 0.0792236328125
          },
          {
            "ticks": 147393,
            "time": 157.47130344375,
            "value": 0.07958984375
          },
          {
            "ticks": 147400,
            "time": 157.47878208333333,
            "value": 0.080078125
          },
          {
            "ticks": 147408,
            "time": 157.4873291,
            "value": 0.0804443359375
          },
          {
            "ticks": 147415,
            "time": 157.4948077395833,
            "value": 0.0809326171875
          },
          {
            "ticks": 147423,
            "time": 157.50335475625,
            "value": 0.081298828125
          },
          {
            "ticks": 147430,
            "time": 157.51083339583332,
            "value": 0.0816650390625
          },
          {
            "ticks": 147438,
            "time": 157.5193804125,
            "value": 0.0821533203125
          },
          {
            "ticks": 147445,
            "time": 157.52685905208332,
            "value": 0.08251953125
          },
          {
            "ticks": 147453,
            "time": 157.53540606875,
            "value": 0.0830078125
          },
          {
            "ticks": 147460,
            "time": 157.5428847083333,
            "value": 0.0833740234375
          },
          {
            "ticks": 147468,
            "time": 157.55143172500001,
            "value": 0.083740234375
          },
          {
            "ticks": 147475,
            "time": 157.5589103645833,
            "value": 0.084228515625
          },
          {
            "ticks": 147483,
            "time": 157.56745738125,
            "value": 0.0845947265625
          },
          {
            "ticks": 147490,
            "time": 157.57493602083332,
            "value": 0.0850830078125
          },
          {
            "ticks": 147498,
            "time": 157.5834830375,
            "value": 0.08544921875
          },
          {
            "ticks": 147505,
            "time": 157.59096167708333,
            "value": 0.0858154296875
          },
          {
            "ticks": 147513,
            "time": 157.59950869375,
            "value": 0.0863037109375
          },
          {
            "ticks": 147520,
            "time": 157.6069873333333,
            "value": 0.086669921875
          },
          {
            "ticks": 147528,
            "time": 157.61553435,
            "value": 0.087158203125
          },
          {
            "ticks": 147535,
            "time": 157.62301298958332,
            "value": 0.0875244140625
          },
          {
            "ticks": 147543,
            "time": 157.63156000625,
            "value": 0.087890625
          },
          {
            "ticks": 147550,
            "time": 157.63903864583332,
            "value": 0.08837890625
          },
          {
            "ticks": 147558,
            "time": 157.6475856625,
            "value": 0.0887451171875
          },
          {
            "ticks": 147565,
            "time": 157.6550643020833,
            "value": 0.0892333984375
          },
          {
            "ticks": 147573,
            "time": 157.66361131875001,
            "value": 0.089599609375
          },
          {
            "ticks": 147580,
            "time": 157.6710899583333,
            "value": 0.0899658203125
          },
          {
            "ticks": 147588,
            "time": 157.679636975,
            "value": 0.0904541015625
          },
          {
            "ticks": 147595,
            "time": 157.68711561458332,
            "value": 0.0908203125
          },
          {
            "ticks": 147603,
            "time": 157.69566263125,
            "value": 0.09130859375
          },
          {
            "ticks": 147610,
            "time": 157.70314127083333,
            "value": 0.0916748046875
          },
          {
            "ticks": 147618,
            "time": 157.7116882875,
            "value": 0.092041015625
          },
          {
            "ticks": 147625,
            "time": 157.7191669270833,
            "value": 0.092529296875
          },
          {
            "ticks": 147633,
            "time": 157.72771394375,
            "value": 0.0928955078125
          },
          {
            "ticks": 147640,
            "time": 157.73519258333332,
            "value": 0.0933837890625
          },
          {
            "ticks": 147648,
            "time": 157.7437396,
            "value": 0.09375
          },
          {
            "ticks": 147655,
            "time": 157.75121823958332,
            "value": 0.0941162109375
          },
          {
            "ticks": 147663,
            "time": 157.75976525625,
            "value": 0.0946044921875
          },
          {
            "ticks": 147670,
            "time": 157.7672438958333,
            "value": 0.094970703125
          },
          {
            "ticks": 147678,
            "time": 157.7757909125,
            "value": 0.095458984375
          },
          {
            "ticks": 147685,
            "time": 157.7832695520833,
            "value": 0.0958251953125
          },
          {
            "ticks": 147693,
            "time": 157.79181656875,
            "value": 0.09619140625
          },
          {
            "ticks": 147700,
            "time": 157.79929520833332,
            "value": 0.0966796875
          },
          {
            "ticks": 147708,
            "time": 157.807842225,
            "value": 0.0970458984375
          },
          {
            "ticks": 147715,
            "time": 157.81532086458333,
            "value": 0.0975341796875
          },
          {
            "ticks": 147723,
            "time": 157.82386788125,
            "value": 0.097900390625
          },
          {
            "ticks": 147730,
            "time": 157.8313465208333,
            "value": 0.0982666015625
          },
          {
            "ticks": 147738,
            "time": 157.8398935375,
            "value": 0.0987548828125
          },
          {
            "ticks": 147745,
            "time": 157.84737217708332,
            "value": 0.09912109375
          },
          {
            "ticks": 147753,
            "time": 157.85591919375,
            "value": 0.099609375
          },
          {
            "ticks": 147760,
            "time": 157.86339783333332,
            "value": 0.0999755859375
          },
          {
            "ticks": 147768,
            "time": 157.87194485,
            "value": 0.100341796875
          },
          {
            "ticks": 147775,
            "time": 157.8794234895833,
            "value": 0.100830078125
          },
          {
            "ticks": 147783,
            "time": 157.88797050625,
            "value": 0.1011962890625
          },
          {
            "ticks": 147790,
            "time": 157.8954491458333,
            "value": 0.1016845703125
          },
          {
            "ticks": 147798,
            "time": 157.9039961625,
            "value": 0.10205078125
          },
          {
            "ticks": 147805,
            "time": 157.91147480208332,
            "value": 0.1024169921875
          },
          {
            "ticks": 147813,
            "time": 157.92002181875,
            "value": 0.1029052734375
          },
          {
            "ticks": 147820,
            "time": 157.92750045833333,
            "value": 0.103271484375
          },
          {
            "ticks": 147828,
            "time": 157.936047475,
            "value": 0.103759765625
          },
          {
            "ticks": 147835,
            "time": 157.9435261145833,
            "value": 0.1041259765625
          },
          {
            "ticks": 147843,
            "time": 157.95207313125,
            "value": 0.1044921875
          },
          {
            "ticks": 147850,
            "time": 157.95955177083331,
            "value": 0.10498046875
          },
          {
            "ticks": 147858,
            "time": 157.9680987875,
            "value": 0.1053466796875
          },
          {
            "ticks": 147865,
            "time": 157.97557742708332,
            "value": 0.1058349609375
          },
          {
            "ticks": 147873,
            "time": 157.98412444375,
            "value": 0.106201171875
          },
          {
            "ticks": 147880,
            "time": 157.9916030833333,
            "value": 0.1065673828125
          },
          {
            "ticks": 147888,
            "time": 158.0001501,
            "value": 0.1070556640625
          },
          {
            "ticks": 147895,
            "time": 158.0076287395833,
            "value": 0.107421875
          },
          {
            "ticks": 147903,
            "time": 158.01617575625,
            "value": 0.10791015625
          },
          {
            "ticks": 147910,
            "time": 158.02365439583332,
            "value": 0.1082763671875
          },
          {
            "ticks": 147918,
            "time": 158.0322014125,
            "value": 0.108642578125
          },
          {
            "ticks": 147925,
            "time": 158.03968005208333,
            "value": 0.109130859375
          },
          {
            "ticks": 147933,
            "time": 158.04822706875,
            "value": 0.1094970703125
          },
          {
            "ticks": 147940,
            "time": 158.0557057083333,
            "value": 0.1099853515625
          },
          {
            "ticks": 147948,
            "time": 158.064252725,
            "value": 0.1103515625
          },
          {
            "ticks": 147955,
            "time": 158.07173136458331,
            "value": 0.1107177734375
          },
          {
            "ticks": 147963,
            "time": 158.08027838125,
            "value": 0.1112060546875
          },
          {
            "ticks": 147970,
            "time": 158.08775702083332,
            "value": 0.111572265625
          },
          {
            "ticks": 147978,
            "time": 158.0963040375,
            "value": 0.112060546875
          },
          {
            "ticks": 147985,
            "time": 158.1037826770833,
            "value": 0.1124267578125
          },
          {
            "ticks": 147993,
            "time": 158.11232969375,
            "value": 0.11279296875
          },
          {
            "ticks": 148000,
            "time": 158.1198083333333,
            "value": 0.11328125
          },
          {
            "ticks": 148008,
            "time": 158.12835535,
            "value": 0.1136474609375
          },
          {
            "ticks": 148015,
            "time": 158.13583398958332,
            "value": 0.1141357421875
          },
          {
            "ticks": 148023,
            "time": 158.14438100625,
            "value": 0.114501953125
          },
          {
            "ticks": 148030,
            "time": 158.15185964583333,
            "value": 0.1148681640625
          },
          {
            "ticks": 148038,
            "time": 158.1604066625,
            "value": 0.1153564453125
          },
          {
            "ticks": 148045,
            "time": 158.1678853020833,
            "value": 0.11572265625
          },
          {
            "ticks": 148053,
            "time": 158.17643231875002,
            "value": 0.1162109375
          },
          {
            "ticks": 148060,
            "time": 158.1839109583333,
            "value": 0.1165771484375
          },
          {
            "ticks": 148068,
            "time": 158.192457975,
            "value": 0.116943359375
          },
          {
            "ticks": 148075,
            "time": 158.19993661458332,
            "value": 0.117431640625
          },
          {
            "ticks": 148083,
            "time": 158.20848363125,
            "value": 0.1177978515625
          },
          {
            "ticks": 148090,
            "time": 158.2159622708333,
            "value": 0.1182861328125
          },
          {
            "ticks": 148098,
            "time": 158.2245092875,
            "value": 0.11865234375
          },
          {
            "ticks": 148105,
            "time": 158.2319879270833,
            "value": 0.1190185546875
          },
          {
            "ticks": 148113,
            "time": 158.24053494375,
            "value": 0.1195068359375
          },
          {
            "ticks": 148120,
            "time": 158.24801358333332,
            "value": 0.119873046875
          },
          {
            "ticks": 148128,
            "time": 158.2565606,
            "value": 0.120361328125
          },
          {
            "ticks": 148135,
            "time": 158.26403923958333,
            "value": 0.1207275390625
          },
          {
            "ticks": 148143,
            "time": 158.27258625625,
            "value": 0.12109375
          },
          {
            "ticks": 148150,
            "time": 158.2800648958333,
            "value": 0.12158203125
          },
          {
            "ticks": 148158,
            "time": 158.28861191250002,
            "value": 0.1219482421875
          },
          {
            "ticks": 148165,
            "time": 158.2960905520833,
            "value": 0.1224365234375
          },
          {
            "ticks": 148173,
            "time": 158.30463756875,
            "value": 0.122802734375
          },
          {
            "ticks": 148180,
            "time": 158.31211620833332,
            "value": 0.1231689453125
          },
          {
            "ticks": 148188,
            "time": 158.320663225,
            "value": 0.1236572265625
          },
          {
            "ticks": 148195,
            "time": 158.3281418645833,
            "value": 0.1240234375
          },
          {
            "ticks": 148203,
            "time": 158.33668888125,
            "value": 0.12451171875
          },
          {
            "ticks": 148210,
            "time": 158.3441675208333,
            "value": 0.1248779296875
          },
          {
            "ticks": 148218,
            "time": 158.3527145375,
            "value": 0.125244140625
          },
          {
            "ticks": 148225,
            "time": 158.36019317708332,
            "value": 0.125732421875
          },
          {
            "ticks": 148233,
            "time": 158.36874019375,
            "value": 0.1260986328125
          },
          {
            "ticks": 148240,
            "time": 158.37621883333333,
            "value": 0.1265869140625
          },
          {
            "ticks": 148248,
            "time": 158.38476585,
            "value": 0.126953125
          },
          {
            "ticks": 148255,
            "time": 158.3922444895833,
            "value": 0.1273193359375
          },
          {
            "ticks": 148263,
            "time": 158.40079150625002,
            "value": 0.1278076171875
          },
          {
            "ticks": 148270,
            "time": 158.4082701458333,
            "value": 0.128173828125
          },
          {
            "ticks": 148278,
            "time": 158.4168171625,
            "value": 0.128662109375
          },
          {
            "ticks": 148285,
            "time": 158.42429580208332,
            "value": 0.1290283203125
          },
          {
            "ticks": 148293,
            "time": 158.43284281875,
            "value": 0.12939453125
          },
          {
            "ticks": 148300,
            "time": 158.4403214583333,
            "value": 0.1298828125
          },
          {
            "ticks": 148308,
            "time": 158.448868475,
            "value": 0.1302490234375
          },
          {
            "ticks": 148315,
            "time": 158.4563471145833,
            "value": 0.1307373046875
          },
          {
            "ticks": 148323,
            "time": 158.46489413125,
            "value": 0.131103515625
          },
          {
            "ticks": 148330,
            "time": 158.47237277083332,
            "value": 0.1314697265625
          },
          {
            "ticks": 148338,
            "time": 158.4809197875,
            "value": 0.1319580078125
          },
          {
            "ticks": 148345,
            "time": 158.48839842708333,
            "value": 0.13232421875
          },
          {
            "ticks": 148353,
            "time": 158.49694544375,
            "value": 0.1328125
          },
          {
            "ticks": 148360,
            "time": 158.5044240833333,
            "value": 0.1331787109375
          },
          {
            "ticks": 148368,
            "time": 158.51297110000002,
            "value": 0.133544921875
          },
          {
            "ticks": 148375,
            "time": 158.5204497395833,
            "value": 0.134033203125
          },
          {
            "ticks": 148383,
            "time": 158.52899675625,
            "value": 0.1343994140625
          },
          {
            "ticks": 148390,
            "time": 158.53647539583332,
            "value": 0.1348876953125
          },
          {
            "ticks": 148398,
            "time": 158.5450224125,
            "value": 0.13525390625
          },
          {
            "ticks": 148405,
            "time": 158.5525010520833,
            "value": 0.1356201171875
          },
          {
            "ticks": 148413,
            "time": 158.56104806875,
            "value": 0.1361083984375
          },
          {
            "ticks": 148420,
            "time": 158.5685267083333,
            "value": 0.136474609375
          },
          {
            "ticks": 148428,
            "time": 158.577073725,
            "value": 0.136962890625
          },
          {
            "ticks": 148435,
            "time": 158.58455236458332,
            "value": 0.1373291015625
          },
          {
            "ticks": 148443,
            "time": 158.59309938125,
            "value": 0.1376953125
          },
          {
            "ticks": 148450,
            "time": 158.60057802083332,
            "value": 0.13818359375
          },
          {
            "ticks": 148458,
            "time": 158.6091250375,
            "value": 0.1385498046875
          },
          {
            "ticks": 148465,
            "time": 158.6166036770833,
            "value": 0.1390380859375
          },
          {
            "ticks": 148473,
            "time": 158.62515069375002,
            "value": 0.139404296875
          },
          {
            "ticks": 148480,
            "time": 158.6326293333333,
            "value": 0.1397705078125
          },
          {
            "ticks": 148488,
            "time": 158.64117635,
            "value": 0.1402587890625
          },
          {
            "ticks": 148495,
            "time": 158.64865498958332,
            "value": 0.140625
          },
          {
            "ticks": 148503,
            "time": 158.65720200625,
            "value": 0.14111328125
          },
          {
            "ticks": 148510,
            "time": 158.66468064583333,
            "value": 0.1414794921875
          },
          {
            "ticks": 148518,
            "time": 158.6732276625,
            "value": 0.141845703125
          },
          {
            "ticks": 148525,
            "time": 158.6807063020833,
            "value": 0.142333984375
          },
          {
            "ticks": 148533,
            "time": 158.68925331875,
            "value": 0.1427001953125
          },
          {
            "ticks": 148540,
            "time": 158.69673195833332,
            "value": 0.1431884765625
          },
          {
            "ticks": 148548,
            "time": 158.705278975,
            "value": 0.1435546875
          },
          {
            "ticks": 148555,
            "time": 158.71275761458332,
            "value": 0.1439208984375
          },
          {
            "ticks": 148563,
            "time": 158.72130463125,
            "value": 0.1444091796875
          },
          {
            "ticks": 148570,
            "time": 158.7287832708333,
            "value": 0.144775390625
          },
          {
            "ticks": 148578,
            "time": 158.73733028750001,
            "value": 0.145263671875
          },
          {
            "ticks": 148585,
            "time": 158.7448089270833,
            "value": 0.1456298828125
          },
          {
            "ticks": 148593,
            "time": 158.75335594375,
            "value": 0.14599609375
          },
          {
            "ticks": 148600,
            "time": 158.76083458333332,
            "value": 0.146484375
          },
          {
            "ticks": 148608,
            "time": 158.7693816,
            "value": 0.1468505859375
          },
          {
            "ticks": 148615,
            "time": 158.77686023958333,
            "value": 0.1473388671875
          },
          {
            "ticks": 148623,
            "time": 158.78540725625,
            "value": 0.147705078125
          },
          {
            "ticks": 148630,
            "time": 158.7928858958333,
            "value": 0.1480712890625
          },
          {
            "ticks": 148638,
            "time": 158.8014329125,
            "value": 0.1485595703125
          },
          {
            "ticks": 148645,
            "time": 158.80891155208332,
            "value": 0.14892578125
          },
          {
            "ticks": 148653,
            "time": 158.81745856875,
            "value": 0.1494140625
          },
          {
            "ticks": 148660,
            "time": 158.82493720833332,
            "value": 0.1497802734375
          },
          {
            "ticks": 148668,
            "time": 158.833484225,
            "value": 0.150146484375
          },
          {
            "ticks": 148675,
            "time": 158.8409628645833,
            "value": 0.150634765625
          },
          {
            "ticks": 148683,
            "time": 158.84950988125001,
            "value": 0.1510009765625
          },
          {
            "ticks": 148690,
            "time": 158.8569885208333,
            "value": 0.1514892578125
          },
          {
            "ticks": 148698,
            "time": 158.8655355375,
            "value": 0.15185546875
          },
          {
            "ticks": 148705,
            "time": 158.87301417708332,
            "value": 0.15234375
          },
          {
            "ticks": 148713,
            "time": 158.88156119375,
            "value": 0.1527099609375
          },
          {
            "ticks": 148720,
            "time": 158.88903983333333,
            "value": 0.153076171875
          },
          {
            "ticks": 148728,
            "time": 158.89758685,
            "value": 0.153564453125
          },
          {
            "ticks": 148735,
            "time": 158.9050654895833,
            "value": 0.1539306640625
          },
          {
            "ticks": 148743,
            "time": 158.91361250625,
            "value": 0.1544189453125
          },
          {
            "ticks": 148750,
            "time": 158.92109114583332,
            "value": 0.15478515625
          },
          {
            "ticks": 148758,
            "time": 158.9296381625,
            "value": 0.1551513671875
          },
          {
            "ticks": 148765,
            "time": 158.93711680208332,
            "value": 0.1556396484375
          },
          {
            "ticks": 148773,
            "time": 158.94566381875,
            "value": 0.156005859375
          },
          {
            "ticks": 148780,
            "time": 158.9531424583333,
            "value": 0.156494140625
          },
          {
            "ticks": 148788,
            "time": 158.96168947500001,
            "value": 0.1568603515625
          },
          {
            "ticks": 148795,
            "time": 158.9691681145833,
            "value": 0.1572265625
          },
          {
            "ticks": 148803,
            "time": 158.97771513125,
            "value": 0.15771484375
          },
          {
            "ticks": 148810,
            "time": 158.98519377083332,
            "value": 0.1580810546875
          },
          {
            "ticks": 148818,
            "time": 158.9937407875,
            "value": 0.1585693359375
          },
          {
            "ticks": 148825,
            "time": 159.00121942708333,
            "value": 0.158935546875
          },
          {
            "ticks": 148833,
            "time": 159.00976644375,
            "value": 0.1593017578125
          },
          {
            "ticks": 148840,
            "time": 159.0172450833333,
            "value": 0.1597900390625
          },
          {
            "ticks": 148848,
            "time": 159.0257921,
            "value": 0.16015625
          },
          {
            "ticks": 148855,
            "time": 159.03327073958332,
            "value": 0.16064453125
          },
          {
            "ticks": 148863,
            "time": 159.04181775625,
            "value": 0.1610107421875
          },
          {
            "ticks": 148870,
            "time": 159.04929639583332,
            "value": 0.161376953125
          },
          {
            "ticks": 148878,
            "time": 159.0578434125,
            "value": 0.161865234375
          },
          {
            "ticks": 148885,
            "time": 159.0653220520833,
            "value": 0.1622314453125
          },
          {
            "ticks": 148893,
            "time": 159.07386906875,
            "value": 0.1627197265625
          },
          {
            "ticks": 148900,
            "time": 159.0813477083333,
            "value": 0.1630859375
          },
          {
            "ticks": 148908,
            "time": 159.089894725,
            "value": 0.1634521484375
          },
          {
            "ticks": 148915,
            "time": 159.09737336458332,
            "value": 0.1639404296875
          },
          {
            "ticks": 148923,
            "time": 159.10592038125,
            "value": 0.164306640625
          },
          {
            "ticks": 148930,
            "time": 159.11339902083333,
            "value": 0.164794921875
          },
          {
            "ticks": 148938,
            "time": 159.1219460375,
            "value": 0.1651611328125
          },
          {
            "ticks": 148945,
            "time": 159.1294246770833,
            "value": 0.16552734375
          },
          {
            "ticks": 148953,
            "time": 159.13797169375,
            "value": 0.166015625
          },
          {
            "ticks": 148960,
            "time": 159.14545033333332,
            "value": 0.1663818359375
          },
          {
            "ticks": 148968,
            "time": 159.15399735,
            "value": 0.1668701171875
          },
          {
            "ticks": 148975,
            "time": 159.16147598958332,
            "value": 0.167236328125
          },
          {
            "ticks": 148983,
            "time": 159.17002300625,
            "value": 0.1676025390625
          },
          {
            "ticks": 148990,
            "time": 159.1775016458333,
            "value": 0.1680908203125
          },
          {
            "ticks": 148998,
            "time": 159.1860486625,
            "value": 0.16845703125
          },
          {
            "ticks": 149005,
            "time": 159.1935273020833,
            "value": 0.1689453125
          },
          {
            "ticks": 149013,
            "time": 159.20207431875,
            "value": 0.1693115234375
          },
          {
            "ticks": 149020,
            "time": 159.20955295833332,
            "value": 0.169677734375
          },
          {
            "ticks": 149028,
            "time": 159.218099975,
            "value": 0.170166015625
          },
          {
            "ticks": 149035,
            "time": 159.22557861458333,
            "value": 0.1705322265625
          },
          {
            "ticks": 149043,
            "time": 159.23412563125,
            "value": 0.1710205078125
          },
          {
            "ticks": 149050,
            "time": 159.2416042708333,
            "value": 0.17138671875
          },
          {
            "ticks": 149058,
            "time": 159.2501512875,
            "value": 0.1717529296875
          },
          {
            "ticks": 149065,
            "time": 159.25762992708331,
            "value": 0.1722412109375
          },
          {
            "ticks": 149073,
            "time": 159.26617694375,
            "value": 0.172607421875
          },
          {
            "ticks": 149080,
            "time": 159.27365558333332,
            "value": 0.173095703125
          },
          {
            "ticks": 149088,
            "time": 159.2822026,
            "value": 0.1734619140625
          },
          {
            "ticks": 149095,
            "time": 159.2896812395833,
            "value": 0.173828125
          },
          {
            "ticks": 149103,
            "time": 159.29822825625,
            "value": 0.17431640625
          },
          {
            "ticks": 149110,
            "time": 159.3057068958333,
            "value": 0.1746826171875
          },
          {
            "ticks": 149118,
            "time": 159.3142539125,
            "value": 0.1751708984375
          },
          {
            "ticks": 149125,
            "time": 159.32173255208332,
            "value": 0.175537109375
          },
          {
            "ticks": 149133,
            "time": 159.33027956875,
            "value": 0.1759033203125
          },
          {
            "ticks": 149140,
            "time": 159.33775820833333,
            "value": 0.1763916015625
          },
          {
            "ticks": 149148,
            "time": 159.346305225,
            "value": 0.1767578125
          },
          {
            "ticks": 149155,
            "time": 159.3537838645833,
            "value": 0.17724609375
          },
          {
            "ticks": 149163,
            "time": 159.36233088125,
            "value": 0.1776123046875
          },
          {
            "ticks": 149170,
            "time": 159.36980952083331,
            "value": 0.177978515625
          },
          {
            "ticks": 149178,
            "time": 159.3783565375,
            "value": 0.178466796875
          },
          {
            "ticks": 149185,
            "time": 159.38583517708332,
            "value": 0.1788330078125
          },
          {
            "ticks": 149193,
            "time": 159.39438219375,
            "value": 0.1793212890625
          },
          {
            "ticks": 149200,
            "time": 159.4018608333333,
            "value": 0.1796875
          },
          {
            "ticks": 149208,
            "time": 159.41040785,
            "value": 0.1800537109375
          },
          {
            "ticks": 149215,
            "time": 159.4178864895833,
            "value": 0.1805419921875
          },
          {
            "ticks": 149223,
            "time": 159.42643350625,
            "value": 0.180908203125
          },
          {
            "ticks": 149230,
            "time": 159.43391214583332,
            "value": 0.181396484375
          },
          {
            "ticks": 149238,
            "time": 159.4424591625,
            "value": 0.1817626953125
          },
          {
            "ticks": 149245,
            "time": 159.44993780208333,
            "value": 0.18212890625
          },
          {
            "ticks": 149253,
            "time": 159.45848481875,
            "value": 0.1826171875
          },
          {
            "ticks": 149260,
            "time": 159.4659634583333,
            "value": 0.1829833984375
          },
          {
            "ticks": 149268,
            "time": 159.47451047500002,
            "value": 0.1834716796875
          },
          {
            "ticks": 149275,
            "time": 159.4819891145833,
            "value": 0.183837890625
          },
          {
            "ticks": 149283,
            "time": 159.49053613125,
            "value": 0.1842041015625
          },
          {
            "ticks": 149290,
            "time": 159.49801477083332,
            "value": 0.1846923828125
          },
          {
            "ticks": 149298,
            "time": 159.5065617875,
            "value": 0.18505859375
          },
          {
            "ticks": 149305,
            "time": 159.5140404270833,
            "value": 0.185546875
          },
          {
            "ticks": 149313,
            "time": 159.52258744375,
            "value": 0.1859130859375
          },
          {
            "ticks": 149320,
            "time": 159.5300660833333,
            "value": 0.186279296875
          },
          {
            "ticks": 149328,
            "time": 159.5386131,
            "value": 0.186767578125
          },
          {
            "ticks": 149335,
            "time": 159.54609173958332,
            "value": 0.1871337890625
          },
          {
            "ticks": 149343,
            "time": 159.55463875625,
            "value": 0.1876220703125
          },
          {
            "ticks": 149350,
            "time": 159.56211739583333,
            "value": 0.18798828125
          },
          {
            "ticks": 149358,
            "time": 159.5706644125,
            "value": 0.1883544921875
          },
          {
            "ticks": 149365,
            "time": 159.5781430520833,
            "value": 0.1888427734375
          },
          {
            "ticks": 149373,
            "time": 159.58669006875002,
            "value": 0.189208984375
          },
          {
            "ticks": 149380,
            "time": 159.5941687083333,
            "value": 0.189697265625
          },
          {
            "ticks": 149388,
            "time": 159.602715725,
            "value": 0.1900634765625
          },
          {
            "ticks": 149395,
            "time": 159.61019436458332,
            "value": 0.1904296875
          },
          {
            "ticks": 149403,
            "time": 159.61874138125,
            "value": 0.19091796875
          },
          {
            "ticks": 149410,
            "time": 159.6262200208333,
            "value": 0.1912841796875
          },
          {
            "ticks": 149418,
            "time": 159.6347670375,
            "value": 0.1917724609375
          },
          {
            "ticks": 149425,
            "time": 159.6422456770833,
            "value": 0.192138671875
          },
          {
            "ticks": 149433,
            "time": 159.65079269375,
            "value": 0.1925048828125
          },
          {
            "ticks": 149440,
            "time": 159.65827133333332,
            "value": 0.1929931640625
          },
          {
            "ticks": 149448,
            "time": 159.66681835,
            "value": 0.193359375
          },
          {
            "ticks": 149455,
            "time": 159.67429698958333,
            "value": 0.19384765625
          },
          {
            "ticks": 149463,
            "time": 159.68284400625,
            "value": 0.1942138671875
          },
          {
            "ticks": 149470,
            "time": 159.6903226458333,
            "value": 0.194580078125
          },
          {
            "ticks": 149478,
            "time": 159.69886966250002,
            "value": 0.195068359375
          },
          {
            "ticks": 149485,
            "time": 159.7063483020833,
            "value": 0.1954345703125
          },
          {
            "ticks": 149493,
            "time": 159.71489531875,
            "value": 0.1959228515625
          },
          {
            "ticks": 149500,
            "time": 159.72237395833332,
            "value": 0.1962890625
          },
          {
            "ticks": 149508,
            "time": 159.730920975,
            "value": 0.1966552734375
          },
          {
            "ticks": 149515,
            "time": 159.7383996145833,
            "value": 0.1971435546875
          },
          {
            "ticks": 149523,
            "time": 159.74694663125,
            "value": 0.197509765625
          },
          {
            "ticks": 149530,
            "time": 159.7544252708333,
            "value": 0.197998046875
          },
          {
            "ticks": 149538,
            "time": 159.7629722875,
            "value": 0.1983642578125
          },
          {
            "ticks": 149545,
            "time": 159.77045092708332,
            "value": 0.19873046875
          },
          {
            "ticks": 149553,
            "time": 159.77899794375,
            "value": 0.19921875
          },
          {
            "ticks": 149560,
            "time": 159.78647658333333,
            "value": 0.1995849609375
          },
          {
            "ticks": 149568,
            "time": 159.7950236,
            "value": 0.2000732421875
          },
          {
            "ticks": 149575,
            "time": 159.8025022395833,
            "value": 0.200439453125
          },
          {
            "ticks": 149583,
            "time": 159.81104925625002,
            "value": 0.2008056640625
          },
          {
            "ticks": 149590,
            "time": 159.8185278958333,
            "value": 0.2012939453125
          },
          {
            "ticks": 149598,
            "time": 159.8270749125,
            "value": 0.20166015625
          },
          {
            "ticks": 149605,
            "time": 159.83455355208332,
            "value": 0.2021484375
          },
          {
            "ticks": 149613,
            "time": 159.84310056875,
            "value": 0.2025146484375
          },
          {
            "ticks": 149620,
            "time": 159.8505792083333,
            "value": 0.202880859375
          },
          {
            "ticks": 149623,
            "time": 159.8537843395833,
            "value": 0.203125
          },
          {
            "ticks": 149629,
            "time": 159.8601946020833,
            "value": 0.3155517578125
          },
          {
            "ticks": 149635,
            "time": 159.8666048645833,
            "value": 0.4375
          },
          {
            "ticks": 149643,
            "time": 159.87515188125,
            "value": 0.484375
          },
          {
            "ticks": 149650,
            "time": 159.88263052083332,
            "value": 0.53125
          },
          {
            "ticks": 149658,
            "time": 159.8911775375,
            "value": 0.578125
          },
          {
            "ticks": 149665,
            "time": 159.89865617708332,
            "value": 0.625
          },
          {
            "ticks": 149673,
            "time": 159.90720319375,
            "value": 0.671875
          },
          {
            "ticks": 149680,
            "time": 159.9146818333333,
            "value": 0.71875
          },
          {
            "ticks": 149688,
            "time": 159.92322885000002,
            "value": 0.765625
          },
          {
            "ticks": 149695,
            "time": 159.9307074895833,
            "value": 0.8125
          },
          {
            "ticks": 149703,
            "time": 159.93925450625,
            "value": 0.859375
          },
          {
            "ticks": 149710,
            "time": 159.94673314583332,
            "value": 0.90625
          },
          {
            "ticks": 149718,
            "time": 159.9552801625,
            "value": 0.953125
          },
          {
            "ticks": 149723,
            "time": 159.96062204791664,
            "value": 0.984375
          },
          {
            "ticks": 149730,
            "time": 159.9681006875,
            "value": 0.882568359375
          },
          {
            "ticks": 149738,
            "time": 159.97664770416665,
            "value": 0.78076171875
          },
          {
            "ticks": 149745,
            "time": 159.98412634374998,
            "value": 0.678955078125
          },
          {
            "ticks": 149753,
            "time": 159.99267336041666,
            "value": 0.5771484375
          },
          {
            "ticks": 149760,
            "time": 160.00015199999999,
            "value": 0.4752197265625
          },
          {
            "ticks": 149768,
            "time": 160.00869901666664,
            "value": 0.3734130859375
          },
          {
            "ticks": 149775,
            "time": 160.01617765625,
            "value": 0.2716064453125
          },
          {
            "ticks": 149783,
            "time": 160.02472467291665,
            "value": 0.1697998046875
          },
          {
            "ticks": 149790,
            "time": 160.0322033125,
            "value": 0.0679931640625
          },
          {
            "ticks": 149795,
            "time": 160.03754519791667,
            "value": 0
          },
          {
            "ticks": 149803,
            "time": 160.04609221458333,
            "value": 0.000732421875
          },
          {
            "ticks": 149810,
            "time": 160.05357085416668,
            "value": 0.0015869140625
          },
          {
            "ticks": 149818,
            "time": 160.06211787083333,
            "value": 0.00244140625
          },
          {
            "ticks": 149825,
            "time": 160.06959651041666,
            "value": 0.0032958984375
          },
          {
            "ticks": 149833,
            "time": 160.0781435270833,
            "value": 0.0040283203125
          },
          {
            "ticks": 149840,
            "time": 160.08562216666667,
            "value": 0.0048828125
          },
          {
            "ticks": 149848,
            "time": 160.09416918333332,
            "value": 0.0057373046875
          },
          {
            "ticks": 149855,
            "time": 160.10164782291668,
            "value": 0.006591796875
          },
          {
            "ticks": 149863,
            "time": 160.11019483958333,
            "value": 0.0074462890625
          },
          {
            "ticks": 149870,
            "time": 160.11767347916665,
            "value": 0.0081787109375
          },
          {
            "ticks": 149878,
            "time": 160.12622049583334,
            "value": 0.009033203125
          },
          {
            "ticks": 149885,
            "time": 160.13369913541666,
            "value": 0.0098876953125
          },
          {
            "ticks": 149893,
            "time": 160.14224615208332,
            "value": 0.0107421875
          },
          {
            "ticks": 149900,
            "time": 160.14972479166667,
            "value": 0.0115966796875
          },
          {
            "ticks": 149908,
            "time": 160.15827180833332,
            "value": 0.0123291015625
          },
          {
            "ticks": 149915,
            "time": 160.16575044791668,
            "value": 0.01318359375
          },
          {
            "ticks": 149923,
            "time": 160.17429746458333,
            "value": 0.0140380859375
          },
          {
            "ticks": 149930,
            "time": 160.18177610416666,
            "value": 0.014892578125
          },
          {
            "ticks": 149938,
            "time": 160.1903231208333,
            "value": 0.0157470703125
          },
          {
            "ticks": 149945,
            "time": 160.19780176041667,
            "value": 0.0164794921875
          },
          {
            "ticks": 149953,
            "time": 160.20634877708332,
            "value": 0.017333984375
          },
          {
            "ticks": 149960,
            "time": 160.21382741666667,
            "value": 0.0181884765625
          },
          {
            "ticks": 149968,
            "time": 160.22237443333333,
            "value": 0.01904296875
          },
          {
            "ticks": 149975,
            "time": 160.22985307291665,
            "value": 0.0198974609375
          },
          {
            "ticks": 149983,
            "time": 160.23840008958334,
            "value": 0.0206298828125
          },
          {
            "ticks": 149990,
            "time": 160.24587872916666,
            "value": 0.021484375
          },
          {
            "ticks": 149998,
            "time": 160.25442574583332,
            "value": 0.0223388671875
          },
          {
            "ticks": 150005,
            "time": 160.26190438541667,
            "value": 0.023193359375
          },
          {
            "ticks": 150013,
            "time": 160.27045140208332,
            "value": 0.0240478515625
          },
          {
            "ticks": 150020,
            "time": 160.27793004166668,
            "value": 0.0247802734375
          },
          {
            "ticks": 150028,
            "time": 160.28647705833333,
            "value": 0.025634765625
          },
          {
            "ticks": 150035,
            "time": 160.29395569791666,
            "value": 0.0264892578125
          },
          {
            "ticks": 150043,
            "time": 160.3025027145833,
            "value": 0.02734375
          },
          {
            "ticks": 150050,
            "time": 160.30998135416667,
            "value": 0.0281982421875
          },
          {
            "ticks": 150058,
            "time": 160.31852837083332,
            "value": 0.0289306640625
          },
          {
            "ticks": 150065,
            "time": 160.32600701041667,
            "value": 0.02978515625
          },
          {
            "ticks": 150073,
            "time": 160.33455402708333,
            "value": 0.0306396484375
          },
          {
            "ticks": 150080,
            "time": 160.34203266666665,
            "value": 0.031494140625
          },
          {
            "ticks": 150088,
            "time": 160.35057968333334,
            "value": 0.0323486328125
          },
          {
            "ticks": 150095,
            "time": 160.35805832291666,
            "value": 0.0330810546875
          },
          {
            "ticks": 150103,
            "time": 160.36660533958332,
            "value": 0.033935546875
          },
          {
            "ticks": 150110,
            "time": 160.37408397916667,
            "value": 0.0347900390625
          },
          {
            "ticks": 150118,
            "time": 160.38263099583332,
            "value": 0.03564453125
          },
          {
            "ticks": 150125,
            "time": 160.39010963541668,
            "value": 0.0364990234375
          },
          {
            "ticks": 150133,
            "time": 160.39865665208333,
            "value": 0.0372314453125
          },
          {
            "ticks": 150140,
            "time": 160.40613529166666,
            "value": 0.0380859375
          },
          {
            "ticks": 150148,
            "time": 160.41468230833334,
            "value": 0.0389404296875
          },
          {
            "ticks": 150155,
            "time": 160.42216094791667,
            "value": 0.039794921875
          },
          {
            "ticks": 150163,
            "time": 160.43070796458332,
            "value": 0.0406494140625
          },
          {
            "ticks": 150170,
            "time": 160.43818660416667,
            "value": 0.0413818359375
          },
          {
            "ticks": 150178,
            "time": 160.44673362083333,
            "value": 0.042236328125
          },
          {
            "ticks": 150185,
            "time": 160.45421226041665,
            "value": 0.0430908203125
          },
          {
            "ticks": 150193,
            "time": 160.46275927708334,
            "value": 0.0439453125
          },
          {
            "ticks": 150200,
            "time": 160.47023791666666,
            "value": 0.0447998046875
          },
          {
            "ticks": 150208,
            "time": 160.47878493333332,
            "value": 0.0455322265625
          },
          {
            "ticks": 150215,
            "time": 160.48626357291667,
            "value": 0.04638671875
          },
          {
            "ticks": 150223,
            "time": 160.49481058958332,
            "value": 0.0472412109375
          },
          {
            "ticks": 150230,
            "time": 160.50228922916668,
            "value": 0.048095703125
          },
          {
            "ticks": 150238,
            "time": 160.51083624583333,
            "value": 0.048828125
          },
          {
            "ticks": 150245,
            "time": 160.51831488541666,
            "value": 0.0496826171875
          },
          {
            "ticks": 150253,
            "time": 160.52686190208334,
            "value": 0.050537109375
          },
          {
            "ticks": 150260,
            "time": 160.53434054166667,
            "value": 0.0513916015625
          },
          {
            "ticks": 150268,
            "time": 160.54288755833332,
            "value": 0.05224609375
          },
          {
            "ticks": 150275,
            "time": 160.55036619791667,
            "value": 0.052978515625
          },
          {
            "ticks": 150283,
            "time": 160.55891321458333,
            "value": 0.0538330078125
          },
          {
            "ticks": 150290,
            "time": 160.56639185416665,
            "value": 0.0546875
          },
          {
            "ticks": 150298,
            "time": 160.57493887083334,
            "value": 0.0555419921875
          },
          {
            "ticks": 150305,
            "time": 160.58241751041666,
            "value": 0.056396484375
          },
          {
            "ticks": 150313,
            "time": 160.59096452708332,
            "value": 0.05712890625
          },
          {
            "ticks": 150320,
            "time": 160.59844316666667,
            "value": 0.0579833984375
          },
          {
            "ticks": 150328,
            "time": 160.60699018333332,
            "value": 0.058837890625
          },
          {
            "ticks": 150335,
            "time": 160.61446882291668,
            "value": 0.0596923828125
          },
          {
            "ticks": 150343,
            "time": 160.62301583958333,
            "value": 0.060546875
          },
          {
            "ticks": 150350,
            "time": 160.63049447916666,
            "value": 0.061279296875
          },
          {
            "ticks": 150358,
            "time": 160.63904149583334,
            "value": 0.0621337890625
          },
          {
            "ticks": 150365,
            "time": 160.64652013541667,
            "value": 0.06298828125
          },
          {
            "ticks": 150373,
            "time": 160.65506715208332,
            "value": 0.0638427734375
          },
          {
            "ticks": 150380,
            "time": 160.66254579166667,
            "value": 0.064697265625
          },
          {
            "ticks": 150388,
            "time": 160.67109280833333,
            "value": 0.0654296875
          },
          {
            "ticks": 150395,
            "time": 160.67857144791668,
            "value": 0.0662841796875
          },
          {
            "ticks": 150403,
            "time": 160.68711846458334,
            "value": 0.067138671875
          },
          {
            "ticks": 150410,
            "time": 160.69459710416666,
            "value": 0.0679931640625
          },
          {
            "ticks": 150418,
            "time": 160.70314412083331,
            "value": 0.06884765625
          },
          {
            "ticks": 150425,
            "time": 160.71062276041667,
            "value": 0.069580078125
          },
          {
            "ticks": 150433,
            "time": 160.71916977708332,
            "value": 0.0704345703125
          },
          {
            "ticks": 150440,
            "time": 160.72664841666668,
            "value": 0.0712890625
          },
          {
            "ticks": 150448,
            "time": 160.73519543333333,
            "value": 0.0721435546875
          },
          {
            "ticks": 150455,
            "time": 160.74267407291666,
            "value": 0.072998046875
          },
          {
            "ticks": 150463,
            "time": 160.75122108958334,
            "value": 0.07373046875
          },
          {
            "ticks": 150470,
            "time": 160.75869972916666,
            "value": 0.0745849609375
          },
          {
            "ticks": 150478,
            "time": 160.76724674583332,
            "value": 0.075439453125
          },
          {
            "ticks": 150485,
            "time": 160.77472538541667,
            "value": 0.0762939453125
          },
          {
            "ticks": 150493,
            "time": 160.78327240208333,
            "value": 0.0771484375
          },
          {
            "ticks": 150500,
            "time": 160.79075104166668,
            "value": 0.077880859375
          },
          {
            "ticks": 150508,
            "time": 160.79929805833333,
            "value": 0.0787353515625
          },
          {
            "ticks": 150515,
            "time": 160.80677669791666,
            "value": 0.07958984375
          },
          {
            "ticks": 150523,
            "time": 160.81532371458331,
            "value": 0.0804443359375
          },
          {
            "ticks": 150530,
            "time": 160.82280235416667,
            "value": 0.081298828125
          },
          {
            "ticks": 150538,
            "time": 160.83134937083332,
            "value": 0.08203125
          },
          {
            "ticks": 150545,
            "time": 160.83882801041668,
            "value": 0.0828857421875
          },
          {
            "ticks": 150553,
            "time": 160.84737502708333,
            "value": 0.083740234375
          },
          {
            "ticks": 150560,
            "time": 160.85485366666666,
            "value": 0.0845947265625
          },
          {
            "ticks": 150568,
            "time": 160.86340068333334,
            "value": 0.08544921875
          },
          {
            "ticks": 150575,
            "time": 160.87087932291666,
            "value": 0.086181640625
          },
          {
            "ticks": 150583,
            "time": 160.87942633958332,
            "value": 0.0870361328125
          },
          {
            "ticks": 150590,
            "time": 160.88690497916667,
            "value": 0.087890625
          },
          {
            "ticks": 150598,
            "time": 160.89545199583333,
            "value": 0.0887451171875
          },
          {
            "ticks": 150605,
            "time": 160.90293063541668,
            "value": 0.089599609375
          },
          {
            "ticks": 150613,
            "time": 160.91147765208333,
            "value": 0.09033203125
          },
          {
            "ticks": 150620,
            "time": 160.91895629166666,
            "value": 0.0911865234375
          },
          {
            "ticks": 150628,
            "time": 160.9275033083333,
            "value": 0.092041015625
          },
          {
            "ticks": 150635,
            "time": 160.93498194791667,
            "value": 0.0928955078125
          },
          {
            "ticks": 150643,
            "time": 160.94352896458332,
            "value": 0.09375
          },
          {
            "ticks": 150650,
            "time": 160.95100760416668,
            "value": 0.094482421875
          },
          {
            "ticks": 150658,
            "time": 160.95955462083333,
            "value": 0.0953369140625
          },
          {
            "ticks": 150665,
            "time": 160.96703326041666,
            "value": 0.09619140625
          },
          {
            "ticks": 150673,
            "time": 160.97558027708334,
            "value": 0.0970458984375
          },
          {
            "ticks": 150680,
            "time": 160.98305891666666,
            "value": 0.0977783203125
          },
          {
            "ticks": 150688,
            "time": 160.99160593333332,
            "value": 0.0986328125
          },
          {
            "ticks": 150695,
            "time": 160.99908457291667,
            "value": 0.0994873046875
          },
          {
            "ticks": 150703,
            "time": 161.00763158958333,
            "value": 0.100341796875
          },
          {
            "ticks": 150710,
            "time": 161.01511022916668,
            "value": 0.1011962890625
          },
          {
            "ticks": 150718,
            "time": 161.02365724583333,
            "value": 0.1019287109375
          },
          {
            "ticks": 150725,
            "time": 161.03113588541666,
            "value": 0.102783203125
          },
          {
            "ticks": 150733,
            "time": 161.0396829020833,
            "value": 0.1036376953125
          },
          {
            "ticks": 150740,
            "time": 161.04716154166667,
            "value": 0.1044921875
          },
          {
            "ticks": 150748,
            "time": 161.05570855833332,
            "value": 0.1053466796875
          },
          {
            "ticks": 150755,
            "time": 161.06318719791668,
            "value": 0.1060791015625
          },
          {
            "ticks": 150763,
            "time": 161.07173421458333,
            "value": 0.10693359375
          },
          {
            "ticks": 150770,
            "time": 161.07921285416666,
            "value": 0.1077880859375
          },
          {
            "ticks": 150778,
            "time": 161.08775987083334,
            "value": 0.108642578125
          },
          {
            "ticks": 150785,
            "time": 161.09523851041666,
            "value": 0.1094970703125
          },
          {
            "ticks": 150793,
            "time": 161.10378552708332,
            "value": 0.1102294921875
          },
          {
            "ticks": 150800,
            "time": 161.11126416666667,
            "value": 0.111083984375
          },
          {
            "ticks": 150808,
            "time": 161.11981118333333,
            "value": 0.1119384765625
          },
          {
            "ticks": 150815,
            "time": 161.12728982291668,
            "value": 0.11279296875
          },
          {
            "ticks": 150823,
            "time": 161.13583683958333,
            "value": 0.1136474609375
          },
          {
            "ticks": 150830,
            "time": 161.14331547916666,
            "value": 0.1143798828125
          },
          {
            "ticks": 150838,
            "time": 161.1518624958333,
            "value": 0.115234375
          },
          {
            "ticks": 150845,
            "time": 161.15934113541667,
            "value": 0.1160888671875
          },
          {
            "ticks": 150853,
            "time": 161.16788815208332,
            "value": 0.116943359375
          },
          {
            "ticks": 150860,
            "time": 161.17536679166668,
            "value": 0.1177978515625
          },
          {
            "ticks": 150868,
            "time": 161.18391380833333,
            "value": 0.1185302734375
          },
          {
            "ticks": 150875,
            "time": 161.19139244791666,
            "value": 0.119384765625
          },
          {
            "ticks": 150883,
            "time": 161.19993946458334,
            "value": 0.1202392578125
          },
          {
            "ticks": 150890,
            "time": 161.20741810416666,
            "value": 0.12109375
          },
          {
            "ticks": 150898,
            "time": 161.21596512083332,
            "value": 0.1219482421875
          },
          {
            "ticks": 150905,
            "time": 161.22344376041667,
            "value": 0.1226806640625
          },
          {
            "ticks": 150913,
            "time": 161.23199077708333,
            "value": 0.12353515625
          },
          {
            "ticks": 150920,
            "time": 161.23946941666668,
            "value": 0.1243896484375
          },
          {
            "ticks": 150928,
            "time": 161.24801643333333,
            "value": 0.125244140625
          },
          {
            "ticks": 150935,
            "time": 161.25549507291666,
            "value": 0.1260986328125
          },
          {
            "ticks": 150943,
            "time": 161.2640420895833,
            "value": 0.1268310546875
          },
          {
            "ticks": 150950,
            "time": 161.27152072916667,
            "value": 0.127685546875
          },
          {
            "ticks": 150958,
            "time": 161.28006774583332,
            "value": 0.1285400390625
          },
          {
            "ticks": 150965,
            "time": 161.28754638541668,
            "value": 0.12939453125
          },
          {
            "ticks": 150973,
            "time": 161.29609340208333,
            "value": 0.1302490234375
          },
          {
            "ticks": 150980,
            "time": 161.30357204166665,
            "value": 0.1309814453125
          },
          {
            "ticks": 150988,
            "time": 161.31211905833334,
            "value": 0.1318359375
          },
          {
            "ticks": 150995,
            "time": 161.31959769791666,
            "value": 0.1326904296875
          },
          {
            "ticks": 151003,
            "time": 161.32814471458332,
            "value": 0.133544921875
          },
          {
            "ticks": 151010,
            "time": 161.33562335416667,
            "value": 0.1343994140625
          },
          {
            "ticks": 151018,
            "time": 161.34417037083333,
            "value": 0.1351318359375
          },
          {
            "ticks": 151025,
            "time": 161.35164901041668,
            "value": 0.135986328125
          },
          {
            "ticks": 151033,
            "time": 161.36019602708333,
            "value": 0.1368408203125
          },
          {
            "ticks": 151040,
            "time": 161.36767466666666,
            "value": 0.1376953125
          },
          {
            "ticks": 151048,
            "time": 161.3762216833333,
            "value": 0.1385498046875
          },
          {
            "ticks": 151055,
            "time": 161.38370032291667,
            "value": 0.1392822265625
          },
          {
            "ticks": 151063,
            "time": 161.39224733958332,
            "value": 0.14013671875
          },
          {
            "ticks": 151070,
            "time": 161.39972597916667,
            "value": 0.1409912109375
          },
          {
            "ticks": 151078,
            "time": 161.40827299583333,
            "value": 0.141845703125
          },
          {
            "ticks": 151085,
            "time": 161.41575163541665,
            "value": 0.142578125
          },
          {
            "ticks": 151093,
            "time": 161.42429865208334,
            "value": 0.1434326171875
          },
          {
            "ticks": 151100,
            "time": 161.43177729166666,
            "value": 0.144287109375
          },
          {
            "ticks": 151108,
            "time": 161.44032430833332,
            "value": 0.1451416015625
          },
          {
            "ticks": 151115,
            "time": 161.44780294791667,
            "value": 0.14599609375
          },
          {
            "ticks": 151123,
            "time": 161.45634996458332,
            "value": 0.146728515625
          },
          {
            "ticks": 151130,
            "time": 161.46382860416668,
            "value": 0.1475830078125
          },
          {
            "ticks": 151138,
            "time": 161.47237562083333,
            "value": 0.1484375
          },
          {
            "ticks": 151145,
            "time": 161.47985426041666,
            "value": 0.1492919921875
          },
          {
            "ticks": 151153,
            "time": 161.4884012770833,
            "value": 0.150146484375
          },
          {
            "ticks": 151160,
            "time": 161.49587991666667,
            "value": 0.15087890625
          },
          {
            "ticks": 151168,
            "time": 161.50442693333332,
            "value": 0.1517333984375
          },
          {
            "ticks": 151175,
            "time": 161.51190557291667,
            "value": 0.152587890625
          },
          {
            "ticks": 151183,
            "time": 161.52045258958333,
            "value": 0.1534423828125
          },
          {
            "ticks": 151190,
            "time": 161.52793122916665,
            "value": 0.154296875
          },
          {
            "ticks": 151198,
            "time": 161.53647824583334,
            "value": 0.155029296875
          },
          {
            "ticks": 151205,
            "time": 161.54395688541666,
            "value": 0.1558837890625
          },
          {
            "ticks": 151213,
            "time": 161.55250390208332,
            "value": 0.15673828125
          },
          {
            "ticks": 151220,
            "time": 161.55998254166667,
            "value": 0.1575927734375
          },
          {
            "ticks": 151228,
            "time": 161.56852955833332,
            "value": 0.158447265625
          },
          {
            "ticks": 151235,
            "time": 161.57600819791668,
            "value": 0.1591796875
          },
          {
            "ticks": 151243,
            "time": 161.58455521458333,
            "value": 0.1600341796875
          },
          {
            "ticks": 151250,
            "time": 161.59203385416666,
            "value": 0.160888671875
          },
          {
            "ticks": 151258,
            "time": 161.60058087083334,
            "value": 0.1617431640625
          },
          {
            "ticks": 151265,
            "time": 161.60805951041667,
            "value": 0.16259765625
          },
          {
            "ticks": 151273,
            "time": 161.61660652708332,
            "value": 0.163330078125
          },
          {
            "ticks": 151280,
            "time": 161.62408516666667,
            "value": 0.1641845703125
          },
          {
            "ticks": 151288,
            "time": 161.63263218333333,
            "value": 0.1650390625
          },
          {
            "ticks": 151295,
            "time": 161.64011082291665,
            "value": 0.1658935546875
          },
          {
            "ticks": 151303,
            "time": 161.64865783958334,
            "value": 0.166748046875
          },
          {
            "ticks": 151310,
            "time": 161.65613647916666,
            "value": 0.16748046875
          },
          {
            "ticks": 151318,
            "time": 161.66468349583332,
            "value": 0.1683349609375
          },
          {
            "ticks": 151325,
            "time": 161.67216213541667,
            "value": 0.169189453125
          },
          {
            "ticks": 151333,
            "time": 161.68070915208332,
            "value": 0.1700439453125
          },
          {
            "ticks": 151340,
            "time": 161.68818779166668,
            "value": 0.1708984375
          },
          {
            "ticks": 151348,
            "time": 161.69673480833333,
            "value": 0.171630859375
          },
          {
            "ticks": 151355,
            "time": 161.70421344791666,
            "value": 0.1724853515625
          },
          {
            "ticks": 151363,
            "time": 161.71276046458334,
            "value": 0.17333984375
          },
          {
            "ticks": 151370,
            "time": 161.72023910416667,
            "value": 0.1741943359375
          },
          {
            "ticks": 151378,
            "time": 161.72878612083332,
            "value": 0.175048828125
          },
          {
            "ticks": 151385,
            "time": 161.73626476041667,
            "value": 0.17578125
          },
          {
            "ticks": 151393,
            "time": 161.74481177708333,
            "value": 0.1766357421875
          },
          {
            "ticks": 151400,
            "time": 161.75229041666665,
            "value": 0.177490234375
          },
          {
            "ticks": 151408,
            "time": 161.76083743333334,
            "value": 0.1783447265625
          },
          {
            "ticks": 151415,
            "time": 161.76831607291666,
            "value": 0.17919921875
          },
          {
            "ticks": 151423,
            "time": 161.77686308958332,
            "value": 0.179931640625
          },
          {
            "ticks": 151430,
            "time": 161.78434172916667,
            "value": 0.1807861328125
          },
          {
            "ticks": 151438,
            "time": 161.79288874583332,
            "value": 0.181640625
          },
          {
            "ticks": 151445,
            "time": 161.80036738541668,
            "value": 0.1824951171875
          },
          {
            "ticks": 151453,
            "time": 161.80891440208333,
            "value": 0.183349609375
          },
          {
            "ticks": 151460,
            "time": 161.81639304166666,
            "value": 0.18408203125
          },
          {
            "ticks": 151468,
            "time": 161.82494005833334,
            "value": 0.1849365234375
          },
          {
            "ticks": 151475,
            "time": 161.83241869791667,
            "value": 0.185791015625
          },
          {
            "ticks": 151483,
            "time": 161.84096571458332,
            "value": 0.1866455078125
          },
          {
            "ticks": 151490,
            "time": 161.84844435416667,
            "value": 0.1875
          },
          {
            "ticks": 151498,
            "time": 161.85699137083333,
            "value": 0.188232421875
          },
          {
            "ticks": 151505,
            "time": 161.86447001041665,
            "value": 0.1890869140625
          },
          {
            "ticks": 151513,
            "time": 161.87301702708334,
            "value": 0.18994140625
          },
          {
            "ticks": 151520,
            "time": 161.88049566666666,
            "value": 0.1907958984375
          },
          {
            "ticks": 151528,
            "time": 161.88904268333332,
            "value": 0.1915283203125
          },
          {
            "ticks": 151535,
            "time": 161.89652132291667,
            "value": 0.1923828125
          },
          {
            "ticks": 151543,
            "time": 161.90506833958332,
            "value": 0.1932373046875
          },
          {
            "ticks": 151550,
            "time": 161.91254697916668,
            "value": 0.194091796875
          },
          {
            "ticks": 151558,
            "time": 161.92109399583333,
            "value": 0.1949462890625
          },
          {
            "ticks": 151565,
            "time": 161.92857263541666,
            "value": 0.1956787109375
          },
          {
            "ticks": 151573,
            "time": 161.93711965208334,
            "value": 0.196533203125
          },
          {
            "ticks": 151580,
            "time": 161.94459829166667,
            "value": 0.1973876953125
          },
          {
            "ticks": 151588,
            "time": 161.95314530833332,
            "value": 0.1982421875
          },
          {
            "ticks": 151595,
            "time": 161.96062394791667,
            "value": 0.1990966796875
          },
          {
            "ticks": 151603,
            "time": 161.96917096458333,
            "value": 0.1998291015625
          },
          {
            "ticks": 151610,
            "time": 161.97664960416668,
            "value": 0.20068359375
          },
          {
            "ticks": 151618,
            "time": 161.98519662083334,
            "value": 0.2015380859375
          },
          {
            "ticks": 151625,
            "time": 161.99267526041666,
            "value": 0.202392578125
          },
          {
            "ticks": 151633,
            "time": 162.00122227708331,
            "value": 0.2032470703125
          },
          {
            "ticks": 151640,
            "time": 162.00870091666667,
            "value": 0.2039794921875
          },
          {
            "ticks": 151648,
            "time": 162.01724793333332,
            "value": 0.204833984375
          },
          {
            "ticks": 151655,
            "time": 162.02472657291668,
            "value": 0.2056884765625
          },
          {
            "ticks": 151663,
            "time": 162.03327358958333,
            "value": 0.20654296875
          },
          {
            "ticks": 151670,
            "time": 162.04075222916666,
            "value": 0.2073974609375
          },
          {
            "ticks": 151678,
            "time": 162.04929924583334,
            "value": 0.2081298828125
          },
          {
            "ticks": 151685,
            "time": 162.05677788541666,
            "value": 0.208984375
          },
          {
            "ticks": 151693,
            "time": 162.06532490208332,
            "value": 0.2098388671875
          },
          {
            "ticks": 151700,
            "time": 162.07280354166667,
            "value": 0.210693359375
          },
          {
            "ticks": 151708,
            "time": 162.08135055833333,
            "value": 0.2115478515625
          },
          {
            "ticks": 151715,
            "time": 162.08882919791668,
            "value": 0.2122802734375
          },
          {
            "ticks": 151723,
            "time": 162.09737621458333,
            "value": 0.213134765625
          },
          {
            "ticks": 151730,
            "time": 162.10485485416666,
            "value": 0.2139892578125
          },
          {
            "ticks": 151738,
            "time": 162.11340187083331,
            "value": 0.21484375
          },
          {
            "ticks": 151745,
            "time": 162.12088051041667,
            "value": 0.2156982421875
          },
          {
            "ticks": 151753,
            "time": 162.12942752708332,
            "value": 0.2164306640625
          },
          {
            "ticks": 151760,
            "time": 162.13690616666668,
            "value": 0.21728515625
          },
          {
            "ticks": 151768,
            "time": 162.14545318333333,
            "value": 0.2181396484375
          },
          {
            "ticks": 151775,
            "time": 162.15293182291666,
            "value": 0.218994140625
          },
          {
            "ticks": 151783,
            "time": 162.16147883958334,
            "value": 0.2198486328125
          },
          {
            "ticks": 151790,
            "time": 162.16895747916666,
            "value": 0.2205810546875
          },
          {
            "ticks": 151798,
            "time": 162.17750449583332,
            "value": 0.221435546875
          },
          {
            "ticks": 151805,
            "time": 162.18498313541667,
            "value": 0.2222900390625
          },
          {
            "ticks": 151813,
            "time": 162.19353015208333,
            "value": 0.22314453125
          },
          {
            "ticks": 151820,
            "time": 162.20100879166668,
            "value": 0.2239990234375
          },
          {
            "ticks": 151828,
            "time": 162.20955580833333,
            "value": 0.2247314453125
          },
          {
            "ticks": 151835,
            "time": 162.21703444791666,
            "value": 0.2255859375
          },
          {
            "ticks": 151843,
            "time": 162.2255814645833,
            "value": 0.2264404296875
          },
          {
            "ticks": 151850,
            "time": 162.23306010416667,
            "value": 0.227294921875
          },
          {
            "ticks": 151858,
            "time": 162.24160712083332,
            "value": 0.2281494140625
          },
          {
            "ticks": 151865,
            "time": 162.24908576041668,
            "value": 0.2288818359375
          },
          {
            "ticks": 151873,
            "time": 162.25763277708333,
            "value": 0.229736328125
          },
          {
            "ticks": 151880,
            "time": 162.26511141666666,
            "value": 0.2305908203125
          },
          {
            "ticks": 151888,
            "time": 162.27365843333334,
            "value": 0.2314453125
          },
          {
            "ticks": 151895,
            "time": 162.28113707291666,
            "value": 0.2322998046875
          },
          {
            "ticks": 151903,
            "time": 162.28968408958332,
            "value": 0.2330322265625
          },
          {
            "ticks": 151910,
            "time": 162.29716272916667,
            "value": 0.23388671875
          },
          {
            "ticks": 151918,
            "time": 162.30570974583333,
            "value": 0.2347412109375
          },
          {
            "ticks": 151925,
            "time": 162.31318838541668,
            "value": 0.235595703125
          },
          {
            "ticks": 151933,
            "time": 162.32173540208333,
            "value": 0.236328125
          },
          {
            "ticks": 151940,
            "time": 162.32921404166666,
            "value": 0.2371826171875
          },
          {
            "ticks": 151948,
            "time": 162.3377610583333,
            "value": 0.238037109375
          },
          {
            "ticks": 151955,
            "time": 162.34523969791667,
            "value": 0.2388916015625
          },
          {
            "ticks": 151963,
            "time": 162.35378671458332,
            "value": 0.23974609375
          },
          {
            "ticks": 151970,
            "time": 162.36126535416668,
            "value": 0.240478515625
          },
          {
            "ticks": 151978,
            "time": 162.36981237083333,
            "value": 0.2413330078125
          },
          {
            "ticks": 151985,
            "time": 162.37729101041666,
            "value": 0.2421875
          },
          {
            "ticks": 151993,
            "time": 162.38583802708334,
            "value": 0.2430419921875
          },
          {
            "ticks": 152000,
            "time": 162.39331666666666,
            "value": 0.243896484375
          },
          {
            "ticks": 152008,
            "time": 162.40186368333332,
            "value": 0.24462890625
          },
          {
            "ticks": 152015,
            "time": 162.40934232291667,
            "value": 0.2454833984375
          },
          {
            "ticks": 152023,
            "time": 162.41788933958333,
            "value": 0.246337890625
          },
          {
            "ticks": 152030,
            "time": 162.42536797916668,
            "value": 0.2471923828125
          },
          {
            "ticks": 152038,
            "time": 162.43391499583333,
            "value": 0.248046875
          },
          {
            "ticks": 152045,
            "time": 162.44139363541666,
            "value": 0.248779296875
          },
          {
            "ticks": 152053,
            "time": 162.4499406520833,
            "value": 0.2496337890625
          },
          {
            "ticks": 152060,
            "time": 162.45741929166667,
            "value": 0.25048828125
          },
          {
            "ticks": 152068,
            "time": 162.46596630833332,
            "value": 0.2513427734375
          },
          {
            "ticks": 152075,
            "time": 162.47344494791668,
            "value": 0.252197265625
          },
          {
            "ticks": 152083,
            "time": 162.48199196458333,
            "value": 0.2529296875
          },
          {
            "ticks": 152090,
            "time": 162.48947060416666,
            "value": 0.2537841796875
          },
          {
            "ticks": 152098,
            "time": 162.49801762083334,
            "value": 0.254638671875
          },
          {
            "ticks": 152105,
            "time": 162.50549626041666,
            "value": 0.2554931640625
          },
          {
            "ticks": 152113,
            "time": 162.51404327708332,
            "value": 0.25634765625
          },
          {
            "ticks": 152120,
            "time": 162.52152191666667,
            "value": 0.257080078125
          },
          {
            "ticks": 152128,
            "time": 162.53006893333333,
            "value": 0.2579345703125
          },
          {
            "ticks": 152135,
            "time": 162.53754757291668,
            "value": 0.2587890625
          },
          {
            "ticks": 152143,
            "time": 162.54609458958333,
            "value": 0.2596435546875
          },
          {
            "ticks": 152150,
            "time": 162.55357322916666,
            "value": 0.260498046875
          },
          {
            "ticks": 152158,
            "time": 162.5621202458333,
            "value": 0.26123046875
          },
          {
            "ticks": 152165,
            "time": 162.56959888541667,
            "value": 0.2620849609375
          },
          {
            "ticks": 152173,
            "time": 162.57814590208332,
            "value": 0.262939453125
          },
          {
            "ticks": 152180,
            "time": 162.58562454166668,
            "value": 0.2637939453125
          },
          {
            "ticks": 152188,
            "time": 162.59417155833333,
            "value": 0.2646484375
          },
          {
            "ticks": 152195,
            "time": 162.60165019791665,
            "value": 0.265380859375
          },
          {
            "ticks": 152203,
            "time": 162.61019721458334,
            "value": 0.2662353515625
          },
          {
            "ticks": 152210,
            "time": 162.61767585416666,
            "value": 0.26708984375
          },
          {
            "ticks": 152218,
            "time": 162.62622287083332,
            "value": 0.2679443359375
          },
          {
            "ticks": 152225,
            "time": 162.63370151041667,
            "value": 0.268798828125
          },
          {
            "ticks": 152233,
            "time": 162.64224852708332,
            "value": 0.26953125
          },
          {
            "ticks": 152240,
            "time": 162.64972716666668,
            "value": 0.2703857421875
          },
          {
            "ticks": 152248,
            "time": 162.65827418333333,
            "value": 0.271240234375
          },
          {
            "ticks": 152255,
            "time": 162.66575282291666,
            "value": 0.2720947265625
          },
          {
            "ticks": 152263,
            "time": 162.6742998395833,
            "value": 0.27294921875
          },
          {
            "ticks": 152270,
            "time": 162.68177847916667,
            "value": 0.273681640625
          },
          {
            "ticks": 152278,
            "time": 162.69032549583332,
            "value": 0.2745361328125
          },
          {
            "ticks": 152285,
            "time": 162.69780413541667,
            "value": 0.275390625
          },
          {
            "ticks": 152293,
            "time": 162.70635115208333,
            "value": 0.2762451171875
          },
          {
            "ticks": 152300,
            "time": 162.71382979166665,
            "value": 0.277099609375
          },
          {
            "ticks": 152308,
            "time": 162.72237680833334,
            "value": 0.27783203125
          },
          {
            "ticks": 152315,
            "time": 162.72985544791666,
            "value": 0.2786865234375
          },
          {
            "ticks": 152323,
            "time": 162.73840246458332,
            "value": 0.279541015625
          },
          {
            "ticks": 152330,
            "time": 162.74588110416667,
            "value": 0.2803955078125
          },
          {
            "ticks": 152338,
            "time": 162.75442812083332,
            "value": 0.28125
          },
          {
            "ticks": 152345,
            "time": 162.76190676041668,
            "value": 0.281982421875
          },
          {
            "ticks": 152353,
            "time": 162.77045377708333,
            "value": 0.2828369140625
          },
          {
            "ticks": 152360,
            "time": 162.77793241666666,
            "value": 0.28369140625
          },
          {
            "ticks": 152368,
            "time": 162.7864794333333,
            "value": 0.2845458984375
          },
          {
            "ticks": 152375,
            "time": 162.79395807291667,
            "value": 0.2852783203125
          },
          {
            "ticks": 152383,
            "time": 162.80250508958332,
            "value": 0.2861328125
          },
          {
            "ticks": 152390,
            "time": 162.80998372916667,
            "value": 0.2869873046875
          },
          {
            "ticks": 152398,
            "time": 162.81853074583333,
            "value": 0.287841796875
          },
          {
            "ticks": 152405,
            "time": 162.82600938541665,
            "value": 0.2886962890625
          },
          {
            "ticks": 152413,
            "time": 162.83455640208334,
            "value": 0.2894287109375
          },
          {
            "ticks": 152420,
            "time": 162.84203504166666,
            "value": 0.290283203125
          },
          {
            "ticks": 152428,
            "time": 162.85058205833332,
            "value": 0.2911376953125
          },
          {
            "ticks": 152435,
            "time": 162.85806069791667,
            "value": 0.2919921875
          },
          {
            "ticks": 152443,
            "time": 162.86660771458332,
            "value": 0.2928466796875
          },
          {
            "ticks": 152450,
            "time": 162.87408635416668,
            "value": 0.2935791015625
          },
          {
            "ticks": 152458,
            "time": 162.88263337083333,
            "value": 0.29443359375
          },
          {
            "ticks": 152465,
            "time": 162.89011201041666,
            "value": 0.2952880859375
          },
          {
            "ticks": 152473,
            "time": 162.89865902708334,
            "value": 0.296142578125
          },
          {
            "ticks": 152480,
            "time": 162.90613766666667,
            "value": 0.2969970703125
          },
          {
            "ticks": 152488,
            "time": 162.91468468333332,
            "value": 0.2977294921875
          },
          {
            "ticks": 152495,
            "time": 162.92216332291667,
            "value": 0.298583984375
          },
          {
            "ticks": 152503,
            "time": 162.93071033958333,
            "value": 0.2994384765625
          },
          {
            "ticks": 152510,
            "time": 162.93818897916665,
            "value": 0.30029296875
          },
          {
            "ticks": 152518,
            "time": 162.94673599583334,
            "value": 0.3011474609375
          },
          {
            "ticks": 152525,
            "time": 162.95421463541666,
            "value": 0.3018798828125
          },
          {
            "ticks": 152533,
            "time": 162.96276165208332,
            "value": 0.302734375
          },
          {
            "ticks": 152540,
            "time": 162.97024029166667,
            "value": 0.3035888671875
          },
          {
            "ticks": 152548,
            "time": 162.97878730833332,
            "value": 0.304443359375
          },
          {
            "ticks": 152555,
            "time": 162.98626594791668,
            "value": 0.3052978515625
          },
          {
            "ticks": 152563,
            "time": 162.99481296458333,
            "value": 0.3060302734375
          },
          {
            "ticks": 152570,
            "time": 163.00229160416666,
            "value": 0.306884765625
          },
          {
            "ticks": 152578,
            "time": 163.01083862083334,
            "value": 0.3077392578125
          },
          {
            "ticks": 152585,
            "time": 163.01831726041667,
            "value": 0.30859375
          },
          {
            "ticks": 152593,
            "time": 163.02686427708332,
            "value": 0.3094482421875
          },
          {
            "ticks": 152600,
            "time": 163.03434291666667,
            "value": 0.3101806640625
          },
          {
            "ticks": 152608,
            "time": 163.04288993333333,
            "value": 0.31103515625
          },
          {
            "ticks": 152615,
            "time": 163.05036857291665,
            "value": 0.3118896484375
          },
          {
            "ticks": 152623,
            "time": 163.05891558958334,
            "value": 0.312744140625
          },
          {
            "ticks": 152630,
            "time": 163.06639422916666,
            "value": 0.3135986328125
          },
          {
            "ticks": 152638,
            "time": 163.07494124583332,
            "value": 0.3143310546875
          },
          {
            "ticks": 152645,
            "time": 163.08241988541667,
            "value": 0.315185546875
          },
          {
            "ticks": 152653,
            "time": 163.09096690208332,
            "value": 0.3160400390625
          },
          {
            "ticks": 152660,
            "time": 163.09844554166668,
            "value": 0.31689453125
          },
          {
            "ticks": 152668,
            "time": 163.10699255833333,
            "value": 0.3177490234375
          },
          {
            "ticks": 152675,
            "time": 163.11447119791666,
            "value": 0.3184814453125
          },
          {
            "ticks": 152683,
            "time": 163.12301821458334,
            "value": 0.3193359375
          },
          {
            "ticks": 152690,
            "time": 163.13049685416667,
            "value": 0.3201904296875
          },
          {
            "ticks": 152698,
            "time": 163.13904387083332,
            "value": 0.321044921875
          },
          {
            "ticks": 152705,
            "time": 163.14652251041667,
            "value": 0.3218994140625
          },
          {
            "ticks": 152713,
            "time": 163.15506952708333,
            "value": 0.3226318359375
          },
          {
            "ticks": 152720,
            "time": 163.16254816666665,
            "value": 0.323486328125
          },
          {
            "ticks": 152728,
            "time": 163.17109518333334,
            "value": 0.3243408203125
          },
          {
            "ticks": 152735,
            "time": 163.17857382291666,
            "value": 0.3251953125
          },
          {
            "ticks": 152743,
            "time": 163.18712083958332,
            "value": 0.3260498046875
          },
          {
            "ticks": 152750,
            "time": 163.19459947916667,
            "value": 0.3267822265625
          },
          {
            "ticks": 152758,
            "time": 163.20314649583332,
            "value": 0.32763671875
          },
          {
            "ticks": 152765,
            "time": 163.21062513541668,
            "value": 0.3284912109375
          },
          {
            "ticks": 152773,
            "time": 163.21917215208333,
            "value": 0.329345703125
          },
          {
            "ticks": 152780,
            "time": 163.22665079166666,
            "value": 0.330078125
          },
          {
            "ticks": 152788,
            "time": 163.23519780833334,
            "value": 0.3309326171875
          },
          {
            "ticks": 152795,
            "time": 163.24267644791666,
            "value": 0.331787109375
          },
          {
            "ticks": 152803,
            "time": 163.25122346458332,
            "value": 0.3326416015625
          },
          {
            "ticks": 152810,
            "time": 163.25870210416667,
            "value": 0.33349609375
          },
          {
            "ticks": 152818,
            "time": 163.26724912083333,
            "value": 0.334228515625
          },
          {
            "ticks": 152825,
            "time": 163.27472776041668,
            "value": 0.3350830078125
          },
          {
            "ticks": 152833,
            "time": 163.28327477708334,
            "value": 0.3359375
          },
          {
            "ticks": 152840,
            "time": 163.29075341666666,
            "value": 0.3367919921875
          },
          {
            "ticks": 152848,
            "time": 163.29930043333331,
            "value": 0.337646484375
          },
          {
            "ticks": 152855,
            "time": 163.30677907291667,
            "value": 0.33837890625
          },
          {
            "ticks": 152863,
            "time": 163.31532608958332,
            "value": 0.3392333984375
          },
          {
            "ticks": 152870,
            "time": 163.32280472916668,
            "value": 0.340087890625
          },
          {
            "ticks": 152878,
            "time": 163.33135174583333,
            "value": 0.3409423828125
          },
          {
            "ticks": 152885,
            "time": 163.33883038541666,
            "value": 0.341796875
          },
          {
            "ticks": 152893,
            "time": 163.34737740208334,
            "value": 0.342529296875
          },
          {
            "ticks": 152900,
            "time": 163.35485604166666,
            "value": 0.3433837890625
          },
          {
            "ticks": 152908,
            "time": 163.36340305833332,
            "value": 0.34423828125
          },
          {
            "ticks": 152915,
            "time": 163.37088169791667,
            "value": 0.3450927734375
          },
          {
            "ticks": 152923,
            "time": 163.37942871458333,
            "value": 0.345947265625
          },
          {
            "ticks": 152930,
            "time": 163.38690735416668,
            "value": 0.3466796875
          },
          {
            "ticks": 152938,
            "time": 163.39545437083333,
            "value": 0.3475341796875
          },
          {
            "ticks": 152945,
            "time": 163.40293301041666,
            "value": 0.348388671875
          },
          {
            "ticks": 152953,
            "time": 163.41148002708331,
            "value": 0.3492431640625
          },
          {
            "ticks": 152960,
            "time": 163.41895866666667,
            "value": 0.35009765625
          },
          {
            "ticks": 152968,
            "time": 163.42750568333332,
            "value": 0.350830078125
          },
          {
            "ticks": 152975,
            "time": 163.43498432291668,
            "value": 0.3516845703125
          },
          {
            "ticks": 152983,
            "time": 163.44353133958333,
            "value": 0.3525390625
          },
          {
            "ticks": 152990,
            "time": 163.45100997916666,
            "value": 0.3533935546875
          },
          {
            "ticks": 152998,
            "time": 163.45955699583334,
            "value": 0.354248046875
          },
          {
            "ticks": 153005,
            "time": 163.46703563541666,
            "value": 0.35498046875
          },
          {
            "ticks": 153013,
            "time": 163.47558265208332,
            "value": 0.3558349609375
          },
          {
            "ticks": 153020,
            "time": 163.48306129166667,
            "value": 0.356689453125
          },
          {
            "ticks": 153028,
            "time": 163.49160830833333,
            "value": 0.3575439453125
          },
          {
            "ticks": 153035,
            "time": 163.49908694791668,
            "value": 0.3583984375
          },
          {
            "ticks": 153043,
            "time": 163.50763396458333,
            "value": 0.359130859375
          },
          {
            "ticks": 153050,
            "time": 163.51511260416666,
            "value": 0.3599853515625
          },
          {
            "ticks": 153058,
            "time": 163.5236596208333,
            "value": 0.36083984375
          },
          {
            "ticks": 153065,
            "time": 163.53113826041667,
            "value": 0.3616943359375
          },
          {
            "ticks": 153073,
            "time": 163.53968527708332,
            "value": 0.362548828125
          },
          {
            "ticks": 153080,
            "time": 163.54716391666668,
            "value": 0.36328125
          },
          {
            "ticks": 153088,
            "time": 163.55571093333333,
            "value": 0.3641357421875
          },
          {
            "ticks": 153095,
            "time": 163.56318957291666,
            "value": 0.364990234375
          },
          {
            "ticks": 153103,
            "time": 163.57173658958334,
            "value": 0.3658447265625
          },
          {
            "ticks": 153110,
            "time": 163.57921522916666,
            "value": 0.36669921875
          },
          {
            "ticks": 153118,
            "time": 163.58776224583332,
            "value": 0.367431640625
          },
          {
            "ticks": 153125,
            "time": 163.59524088541667,
            "value": 0.3682861328125
          },
          {
            "ticks": 153133,
            "time": 163.60378790208333,
            "value": 0.369140625
          },
          {
            "ticks": 153140,
            "time": 163.61126654166668,
            "value": 0.3699951171875
          },
          {
            "ticks": 153148,
            "time": 163.61981355833333,
            "value": 0.370849609375
          },
          {
            "ticks": 153155,
            "time": 163.62729219791666,
            "value": 0.37158203125
          },
          {
            "ticks": 153163,
            "time": 163.6358392145833,
            "value": 0.3724365234375
          },
          {
            "ticks": 153170,
            "time": 163.64331785416667,
            "value": 0.373291015625
          },
          {
            "ticks": 153178,
            "time": 163.65186487083332,
            "value": 0.3741455078125
          },
          {
            "ticks": 153185,
            "time": 163.65934351041668,
            "value": 0.375
          },
          {
            "ticks": 153193,
            "time": 163.66789052708333,
            "value": 0.375732421875
          },
          {
            "ticks": 153200,
            "time": 163.67536916666666,
            "value": 0.3765869140625
          },
          {
            "ticks": 153208,
            "time": 163.68391618333334,
            "value": 0.37744140625
          },
          {
            "ticks": 153215,
            "time": 163.69139482291666,
            "value": 0.3782958984375
          },
          {
            "ticks": 153223,
            "time": 163.69994183958332,
            "value": 0.3790283203125
          },
          {
            "ticks": 153230,
            "time": 163.70742047916667,
            "value": 0.3798828125
          },
          {
            "ticks": 153238,
            "time": 163.71596749583333,
            "value": 0.3807373046875
          },
          {
            "ticks": 153245,
            "time": 163.72344613541668,
            "value": 0.381591796875
          },
          {
            "ticks": 153253,
            "time": 163.73199315208333,
            "value": 0.3824462890625
          },
          {
            "ticks": 153260,
            "time": 163.73947179166666,
            "value": 0.3831787109375
          },
          {
            "ticks": 153268,
            "time": 163.7480188083333,
            "value": 0.384033203125
          },
          {
            "ticks": 153275,
            "time": 163.75549744791667,
            "value": 0.3848876953125
          },
          {
            "ticks": 153283,
            "time": 163.76404446458332,
            "value": 0.3857421875
          },
          {
            "ticks": 153290,
            "time": 163.77152310416668,
            "value": 0.3865966796875
          },
          {
            "ticks": 153298,
            "time": 163.78007012083333,
            "value": 0.3873291015625
          },
          {
            "ticks": 153305,
            "time": 163.78754876041666,
            "value": 0.38818359375
          },
          {
            "ticks": 153313,
            "time": 163.79609577708334,
            "value": 0.3890380859375
          },
          {
            "ticks": 153320,
            "time": 163.80357441666666,
            "value": 0.389892578125
          },
          {
            "ticks": 153328,
            "time": 163.81212143333332,
            "value": 0.3907470703125
          },
          {
            "ticks": 153335,
            "time": 163.81960007291667,
            "value": 0.3914794921875
          },
          {
            "ticks": 153343,
            "time": 163.82814708958333,
            "value": 0.392333984375
          },
          {
            "ticks": 153350,
            "time": 163.83562572916668,
            "value": 0.3931884765625
          },
          {
            "ticks": 153358,
            "time": 163.84417274583333,
            "value": 0.39404296875
          },
          {
            "ticks": 153365,
            "time": 163.85165138541666,
            "value": 0.3948974609375
          },
          {
            "ticks": 153373,
            "time": 163.8601984020833,
            "value": 0.3956298828125
          },
          {
            "ticks": 153380,
            "time": 163.86767704166667,
            "value": 0.396484375
          },
          {
            "ticks": 153388,
            "time": 163.87622405833332,
            "value": 0.3973388671875
          },
          {
            "ticks": 153395,
            "time": 163.88370269791668,
            "value": 0.398193359375
          },
          {
            "ticks": 153403,
            "time": 163.89224971458333,
            "value": 0.3990478515625
          },
          {
            "ticks": 153410,
            "time": 163.89972835416665,
            "value": 0.3997802734375
          },
          {
            "ticks": 153418,
            "time": 163.90827537083334,
            "value": 0.400634765625
          },
          {
            "ticks": 153425,
            "time": 163.91575401041666,
            "value": 0.4014892578125
          },
          {
            "ticks": 153433,
            "time": 163.92430102708332,
            "value": 0.40234375
          },
          {
            "ticks": 153440,
            "time": 163.93177966666667,
            "value": 0.4031982421875
          },
          {
            "ticks": 153448,
            "time": 163.94032668333332,
            "value": 0.4039306640625
          },
          {
            "ticks": 153455,
            "time": 163.94780532291668,
            "value": 0.40478515625
          },
          {
            "ticks": 153463,
            "time": 163.95635233958333,
            "value": 0.4056396484375
          },
          {
            "ticks": 153468,
            "time": 163.961694225,
            "value": 0.40625
          },
          {
            "ticks": 153475,
            "time": 163.96917286458333,
            "value": 0.52001953125
          },
          {
            "ticks": 153483,
            "time": 163.97771988125,
            "value": 0.6339111328125
          },
          {
            "ticks": 153490,
            "time": 163.9851985208333,
            "value": 0.7476806640625
          },
          {
            "ticks": 153498,
            "time": 163.9937455375,
            "value": 0.861572265625
          },
          {
            "ticks": 153503,
            "time": 163.99908742291666,
            "value": 0.9375
          },
          {
            "ticks": 153510,
            "time": 164.00656606249999,
            "value": 0.9462890625
          },
          {
            "ticks": 153518,
            "time": 164.01511307916664,
            "value": 0.955078125
          },
          {
            "ticks": 153525,
            "time": 164.02259171875,
            "value": 0.9638671875
          },
          {
            "ticks": 153533,
            "time": 164.03113873541665,
            "value": 0.97265625
          },
          {
            "ticks": 153540,
            "time": 164.038617375,
            "value": 0.9814453125
          },
          {
            "ticks": 153543,
            "time": 164.04182250625,
            "value": 0.984375
          },
          {
            "ticks": 153550,
            "time": 164.0493011458333,
            "value": 0.875
          },
          {
            "ticks": 153558,
            "time": 164.0578481625,
            "value": 0.765625
          },
          {
            "ticks": 153565,
            "time": 164.06532680208332,
            "value": 0.65625
          },
          {
            "ticks": 153573,
            "time": 164.07387381875,
            "value": 0.546875
          },
          {
            "ticks": 153580,
            "time": 164.08135245833333,
            "value": 0.4375
          },
          {
            "ticks": 153588,
            "time": 164.089899475,
            "value": 0.328125
          },
          {
            "ticks": 153595,
            "time": 164.0973781145833,
            "value": 0.21875
          },
          {
            "ticks": 153603,
            "time": 164.10592513125,
            "value": 0.109375
          },
          {
            "ticks": 153610,
            "time": 164.11340377083332,
            "value": 0
          },
          {
            "ticks": 153618,
            "time": 164.1219507875,
            "value": 0.0008544921875
          },
          {
            "ticks": 153625,
            "time": 164.12942942708332,
            "value": 0.001708984375
          },
          {
            "ticks": 153633,
            "time": 164.13797644375,
            "value": 0.0025634765625
          },
          {
            "ticks": 153640,
            "time": 164.1454550833333,
            "value": 0.0035400390625
          },
          {
            "ticks": 153648,
            "time": 164.1540021,
            "value": 0.00439453125
          },
          {
            "ticks": 153655,
            "time": 164.1614807395833,
            "value": 0.0052490234375
          },
          {
            "ticks": 153663,
            "time": 164.17002775625,
            "value": 0.0062255859375
          },
          {
            "ticks": 153670,
            "time": 164.17750639583332,
            "value": 0.007080078125
          },
          {
            "ticks": 153678,
            "time": 164.1860534125,
            "value": 0.0079345703125
          },
          {
            "ticks": 153685,
            "time": 164.19353205208333,
            "value": 0.0089111328125
          },
          {
            "ticks": 153693,
            "time": 164.20207906875,
            "value": 0.009765625
          },
          {
            "ticks": 153700,
            "time": 164.2095577083333,
            "value": 0.0106201171875
          },
          {
            "ticks": 153708,
            "time": 164.218104725,
            "value": 0.0115966796875
          },
          {
            "ticks": 153715,
            "time": 164.22558336458331,
            "value": 0.012451171875
          },
          {
            "ticks": 153723,
            "time": 164.23413038125,
            "value": 0.0133056640625
          },
          {
            "ticks": 153730,
            "time": 164.24160902083332,
            "value": 0.0142822265625
          },
          {
            "ticks": 153738,
            "time": 164.2501560375,
            "value": 0.01513671875
          },
          {
            "ticks": 153745,
            "time": 164.2576346770833,
            "value": 0.0159912109375
          },
          {
            "ticks": 153753,
            "time": 164.26618169375,
            "value": 0.016845703125
          },
          {
            "ticks": 153760,
            "time": 164.2736603333333,
            "value": 0.017822265625
          },
          {
            "ticks": 153768,
            "time": 164.28220735,
            "value": 0.0186767578125
          },
          {
            "ticks": 153775,
            "time": 164.28968598958332,
            "value": 0.01953125
          },
          {
            "ticks": 153783,
            "time": 164.29823300625,
            "value": 0.0205078125
          },
          {
            "ticks": 153790,
            "time": 164.30571164583333,
            "value": 0.0213623046875
          },
          {
            "ticks": 153798,
            "time": 164.3142586625,
            "value": 0.022216796875
          },
          {
            "ticks": 153805,
            "time": 164.3217373020833,
            "value": 0.023193359375
          },
          {
            "ticks": 153813,
            "time": 164.33028431875,
            "value": 0.0240478515625
          },
          {
            "ticks": 153820,
            "time": 164.33776295833331,
            "value": 0.02490234375
          },
          {
            "ticks": 153828,
            "time": 164.346309975,
            "value": 0.02587890625
          },
          {
            "ticks": 153835,
            "time": 164.35378861458332,
            "value": 0.0267333984375
          },
          {
            "ticks": 153843,
            "time": 164.36233563125,
            "value": 0.027587890625
          },
          {
            "ticks": 153850,
            "time": 164.3698142708333,
            "value": 0.028564453125
          },
          {
            "ticks": 153858,
            "time": 164.3783612875,
            "value": 0.0294189453125
          },
          {
            "ticks": 153865,
            "time": 164.3858399270833,
            "value": 0.0302734375
          },
          {
            "ticks": 153873,
            "time": 164.39438694375,
            "value": 0.03125
          },
          {
            "ticks": 153880,
            "time": 164.40186558333332,
            "value": 0.0321044921875
          },
          {
            "ticks": 153888,
            "time": 164.4104126,
            "value": 0.032958984375
          },
          {
            "ticks": 153895,
            "time": 164.41789123958333,
            "value": 0.0338134765625
          },
          {
            "ticks": 153903,
            "time": 164.42643825625,
            "value": 0.0347900390625
          },
          {
            "ticks": 153910,
            "time": 164.4339168958333,
            "value": 0.03564453125
          },
          {
            "ticks": 153918,
            "time": 164.4424639125,
            "value": 0.0364990234375
          },
          {
            "ticks": 153925,
            "time": 164.44994255208331,
            "value": 0.0374755859375
          },
          {
            "ticks": 153933,
            "time": 164.45848956875,
            "value": 0.038330078125
          },
          {
            "ticks": 153940,
            "time": 164.46596820833332,
            "value": 0.0391845703125
          },
          {
            "ticks": 153948,
            "time": 164.474515225,
            "value": 0.0401611328125
          },
          {
            "ticks": 153955,
            "time": 164.4819938645833,
            "value": 0.041015625
          },
          {
            "ticks": 153963,
            "time": 164.49054088125,
            "value": 0.0418701171875
          },
          {
            "ticks": 153970,
            "time": 164.4980195208333,
            "value": 0.0428466796875
          },
          {
            "ticks": 153978,
            "time": 164.5065665375,
            "value": 0.043701171875
          },
          {
            "ticks": 153985,
            "time": 164.51404517708332,
            "value": 0.0445556640625
          },
          {
            "ticks": 153993,
            "time": 164.52259219375,
            "value": 0.0455322265625
          },
          {
            "ticks": 154000,
            "time": 164.53007083333333,
            "value": 0.04638671875
          },
          {
            "ticks": 154008,
            "time": 164.53861785,
            "value": 0.0472412109375
          },
          {
            "ticks": 154015,
            "time": 164.5460964895833,
            "value": 0.048095703125
          },
          {
            "ticks": 154023,
            "time": 164.55464350625002,
            "value": 0.049072265625
          },
          {
            "ticks": 154030,
            "time": 164.5621221458333,
            "value": 0.0499267578125
          },
          {
            "ticks": 154038,
            "time": 164.5706691625,
            "value": 0.05078125
          },
          {
            "ticks": 154045,
            "time": 164.57814780208332,
            "value": 0.0517578125
          },
          {
            "ticks": 154053,
            "time": 164.58669481875,
            "value": 0.0526123046875
          },
          {
            "ticks": 154060,
            "time": 164.5941734583333,
            "value": 0.053466796875
          },
          {
            "ticks": 154068,
            "time": 164.602720475,
            "value": 0.054443359375
          },
          {
            "ticks": 154075,
            "time": 164.6101991145833,
            "value": 0.0552978515625
          },
          {
            "ticks": 154083,
            "time": 164.61874613125,
            "value": 0.05615234375
          },
          {
            "ticks": 154090,
            "time": 164.62622477083332,
            "value": 0.05712890625
          },
          {
            "ticks": 154098,
            "time": 164.6347717875,
            "value": 0.0579833984375
          },
          {
            "ticks": 154105,
            "time": 164.64225042708333,
            "value": 0.058837890625
          },
          {
            "ticks": 154113,
            "time": 164.65079744375,
            "value": 0.059814453125
          },
          {
            "ticks": 154120,
            "time": 164.6582760833333,
            "value": 0.0606689453125
          },
          {
            "ticks": 154128,
            "time": 164.66682310000002,
            "value": 0.0615234375
          },
          {
            "ticks": 154135,
            "time": 164.6743017395833,
            "value": 0.0625
          },
          {
            "ticks": 154143,
            "time": 164.68284875625,
            "value": 0.0633544921875
          },
          {
            "ticks": 154150,
            "time": 164.69032739583332,
            "value": 0.064208984375
          },
          {
            "ticks": 154158,
            "time": 164.6988744125,
            "value": 0.0650634765625
          },
          {
            "ticks": 154165,
            "time": 164.7063530520833,
            "value": 0.0660400390625
          },
          {
            "ticks": 154173,
            "time": 164.71490006875,
            "value": 0.06689453125
          },
          {
            "ticks": 154180,
            "time": 164.7223787083333,
            "value": 0.0677490234375
          },
          {
            "ticks": 154188,
            "time": 164.730925725,
            "value": 0.0687255859375
          },
          {
            "ticks": 154195,
            "time": 164.73840436458332,
            "value": 0.069580078125
          },
          {
            "ticks": 154203,
            "time": 164.74695138125,
            "value": 0.0704345703125
          },
          {
            "ticks": 154210,
            "time": 164.75443002083333,
            "value": 0.0714111328125
          },
          {
            "ticks": 154218,
            "time": 164.7629770375,
            "value": 0.072265625
          },
          {
            "ticks": 154225,
            "time": 164.7704556770833,
            "value": 0.0731201171875
          },
          {
            "ticks": 154233,
            "time": 164.77900269375002,
            "value": 0.0740966796875
          },
          {
            "ticks": 154240,
            "time": 164.7864813333333,
            "value": 0.074951171875
          },
          {
            "ticks": 154248,
            "time": 164.79502835,
            "value": 0.0758056640625
          },
          {
            "ticks": 154255,
            "time": 164.80250698958332,
            "value": 0.0767822265625
          },
          {
            "ticks": 154263,
            "time": 164.81105400625,
            "value": 0.07763671875
          },
          {
            "ticks": 154270,
            "time": 164.8185326458333,
            "value": 0.0784912109375
          },
          {
            "ticks": 154278,
            "time": 164.8270796625,
            "value": 0.079345703125
          },
          {
            "ticks": 154285,
            "time": 164.8345583020833,
            "value": 0.080322265625
          },
          {
            "ticks": 154293,
            "time": 164.84310531875,
            "value": 0.0811767578125
          },
          {
            "ticks": 154300,
            "time": 164.85058395833332,
            "value": 0.08203125
          },
          {
            "ticks": 154308,
            "time": 164.859130975,
            "value": 0.0830078125
          },
          {
            "ticks": 154315,
            "time": 164.86660961458333,
            "value": 0.0838623046875
          },
          {
            "ticks": 154323,
            "time": 164.87515663125,
            "value": 0.084716796875
          },
          {
            "ticks": 154330,
            "time": 164.8826352708333,
            "value": 0.085693359375
          },
          {
            "ticks": 154338,
            "time": 164.89118228750002,
            "value": 0.0865478515625
          },
          {
            "ticks": 154345,
            "time": 164.8986609270833,
            "value": 0.08740234375
          },
          {
            "ticks": 154353,
            "time": 164.90720794375,
            "value": 0.08837890625
          },
          {
            "ticks": 154360,
            "time": 164.91468658333332,
            "value": 0.0892333984375
          },
          {
            "ticks": 154368,
            "time": 164.9232336,
            "value": 0.090087890625
          },
          {
            "ticks": 154375,
            "time": 164.9307122395833,
            "value": 0.091064453125
          },
          {
            "ticks": 154383,
            "time": 164.93925925625,
            "value": 0.0919189453125
          },
          {
            "ticks": 154390,
            "time": 164.9467378958333,
            "value": 0.0927734375
          },
          {
            "ticks": 154398,
            "time": 164.9552849125,
            "value": 0.09375
          },
          {
            "ticks": 154405,
            "time": 164.96276355208332,
            "value": 0.0946044921875
          },
          {
            "ticks": 154413,
            "time": 164.97131056875,
            "value": 0.095458984375
          },
          {
            "ticks": 154420,
            "time": 164.97878920833332,
            "value": 0.0963134765625
          },
          {
            "ticks": 154428,
            "time": 164.987336225,
            "value": 0.0972900390625
          },
          {
            "ticks": 154435,
            "time": 164.9948148645833,
            "value": 0.09814453125
          },
          {
            "ticks": 154443,
            "time": 165.00336188125002,
            "value": 0.0989990234375
          },
          {
            "ticks": 154450,
            "time": 165.0108405208333,
            "value": 0.0999755859375
          },
          {
            "ticks": 154458,
            "time": 165.0193875375,
            "value": 0.100830078125
          },
          {
            "ticks": 154465,
            "time": 165.02686617708332,
            "value": 0.1016845703125
          },
          {
            "ticks": 154473,
            "time": 165.03541319375,
            "value": 0.1026611328125
          },
          {
            "ticks": 154480,
            "time": 165.04289183333333,
            "value": 0.103515625
          },
          {
            "ticks": 154488,
            "time": 165.05143885,
            "value": 0.1043701171875
          },
          {
            "ticks": 154495,
            "time": 165.0589174895833,
            "value": 0.1053466796875
          },
          {
            "ticks": 154503,
            "time": 165.06746450625,
            "value": 0.106201171875
          },
          {
            "ticks": 154510,
            "time": 165.07494314583332,
            "value": 0.1070556640625
          },
          {
            "ticks": 154518,
            "time": 165.0834901625,
            "value": 0.1080322265625
          },
          {
            "ticks": 154525,
            "time": 165.09096880208332,
            "value": 0.10888671875
          },
          {
            "ticks": 154533,
            "time": 165.09951581875,
            "value": 0.1097412109375
          },
          {
            "ticks": 154540,
            "time": 165.1069944583333,
            "value": 0.110595703125
          },
          {
            "ticks": 154548,
            "time": 165.11554147500001,
            "value": 0.111572265625
          },
          {
            "ticks": 154555,
            "time": 165.1230201145833,
            "value": 0.1124267578125
          },
          {
            "ticks": 154563,
            "time": 165.13156713125,
            "value": 0.11328125
          },
          {
            "ticks": 154570,
            "time": 165.13904577083332,
            "value": 0.1142578125
          },
          {
            "ticks": 154578,
            "time": 165.1475927875,
            "value": 0.1151123046875
          },
          {
            "ticks": 154585,
            "time": 165.15507142708333,
            "value": 0.115966796875
          },
          {
            "ticks": 154593,
            "time": 165.16361844375,
            "value": 0.116943359375
          },
          {
            "ticks": 154600,
            "time": 165.1710970833333,
            "value": 0.1177978515625
          },
          {
            "ticks": 154608,
            "time": 165.1796441,
            "value": 0.11865234375
          },
          {
            "ticks": 154615,
            "time": 165.18712273958332,
            "value": 0.11962890625
          },
          {
            "ticks": 154623,
            "time": 165.19566975625,
            "value": 0.1204833984375
          },
          {
            "ticks": 154630,
            "time": 165.20314839583332,
            "value": 0.121337890625
          },
          {
            "ticks": 154638,
            "time": 165.2116954125,
            "value": 0.122314453125
          },
          {
            "ticks": 154645,
            "time": 165.2191740520833,
            "value": 0.1231689453125
          },
          {
            "ticks": 154653,
            "time": 165.22772106875001,
            "value": 0.1240234375
          },
          {
            "ticks": 154660,
            "time": 165.2351997083333,
            "value": 0.125
          },
          {
            "ticks": 154668,
            "time": 165.243746725,
            "value": 0.1258544921875
          },
          {
            "ticks": 154675,
            "time": 165.25122536458332,
            "value": 0.126708984375
          },
          {
            "ticks": 154683,
            "time": 165.25977238125,
            "value": 0.1275634765625
          },
          {
            "ticks": 154690,
            "time": 165.26725102083333,
            "value": 0.1285400390625
          },
          {
            "ticks": 154698,
            "time": 165.2757980375,
            "value": 0.12939453125
          },
          {
            "ticks": 154705,
            "time": 165.2832766770833,
            "value": 0.1302490234375
          },
          {
            "ticks": 154713,
            "time": 165.29182369375,
            "value": 0.1312255859375
          },
          {
            "ticks": 154720,
            "time": 165.29930233333332,
            "value": 0.132080078125
          },
          {
            "ticks": 154728,
            "time": 165.30784935,
            "value": 0.1329345703125
          },
          {
            "ticks": 154735,
            "time": 165.31532798958332,
            "value": 0.1339111328125
          },
          {
            "ticks": 154743,
            "time": 165.32387500625,
            "value": 0.134765625
          },
          {
            "ticks": 154750,
            "time": 165.3313536458333,
            "value": 0.1356201171875
          },
          {
            "ticks": 154758,
            "time": 165.3399006625,
            "value": 0.1365966796875
          },
          {
            "ticks": 154765,
            "time": 165.3473793020833,
            "value": 0.137451171875
          },
          {
            "ticks": 154773,
            "time": 165.35592631875,
            "value": 0.1383056640625
          },
          {
            "ticks": 154780,
            "time": 165.36340495833332,
            "value": 0.1392822265625
          },
          {
            "ticks": 154788,
            "time": 165.371951975,
            "value": 0.14013671875
          },
          {
            "ticks": 154795,
            "time": 165.37943061458333,
            "value": 0.1409912109375
          },
          {
            "ticks": 154803,
            "time": 165.38797763125,
            "value": 0.141845703125
          },
          {
            "ticks": 154810,
            "time": 165.3954562708333,
            "value": 0.142822265625
          },
          {
            "ticks": 154818,
            "time": 165.4040032875,
            "value": 0.1436767578125
          },
          {
            "ticks": 154825,
            "time": 165.41148192708332,
            "value": 0.14453125
          },
          {
            "ticks": 154833,
            "time": 165.42002894375,
            "value": 0.1455078125
          },
          {
            "ticks": 154840,
            "time": 165.42750758333332,
            "value": 0.1463623046875
          },
          {
            "ticks": 154848,
            "time": 165.4360546,
            "value": 0.147216796875
          },
          {
            "ticks": 154855,
            "time": 165.4435332395833,
            "value": 0.148193359375
          },
          {
            "ticks": 154863,
            "time": 165.45208025625,
            "value": 0.1490478515625
          },
          {
            "ticks": 154870,
            "time": 165.4595588958333,
            "value": 0.14990234375
          },
          {
            "ticks": 154878,
            "time": 165.4681059125,
            "value": 0.15087890625
          },
          {
            "ticks": 154885,
            "time": 165.47558455208332,
            "value": 0.1517333984375
          },
          {
            "ticks": 154893,
            "time": 165.48413156875,
            "value": 0.152587890625
          },
          {
            "ticks": 154900,
            "time": 165.49161020833333,
            "value": 0.153564453125
          },
          {
            "ticks": 154908,
            "time": 165.500157225,
            "value": 0.1544189453125
          },
          {
            "ticks": 154915,
            "time": 165.5076358645833,
            "value": 0.1552734375
          },
          {
            "ticks": 154923,
            "time": 165.51618288125,
            "value": 0.15625
          },
          {
            "ticks": 154930,
            "time": 165.52366152083331,
            "value": 0.1571044921875
          },
          {
            "ticks": 154938,
            "time": 165.5322085375,
            "value": 0.157958984375
          },
          {
            "ticks": 154945,
            "time": 165.53968717708332,
            "value": 0.1588134765625
          },
          {
            "ticks": 154953,
            "time": 165.54823419375,
            "value": 0.1597900390625
          },
          {
            "ticks": 154960,
            "time": 165.5557128333333,
            "value": 0.16064453125
          },
          {
            "ticks": 154968,
            "time": 165.56425985,
            "value": 0.1614990234375
          },
          {
            "ticks": 154975,
            "time": 165.5717384895833,
            "value": 0.1624755859375
          },
          {
            "ticks": 154983,
            "time": 165.58028550625,
            "value": 0.163330078125
          },
          {
            "ticks": 154990,
            "time": 165.58776414583332,
            "value": 0.1641845703125
          },
          {
            "ticks": 154998,
            "time": 165.5963111625,
            "value": 0.1651611328125
          },
          {
            "ticks": 155005,
            "time": 165.60378980208333,
            "value": 0.166015625
          },
          {
            "ticks": 155013,
            "time": 165.61233681875,
            "value": 0.1668701171875
          },
          {
            "ticks": 155020,
            "time": 165.6198154583333,
            "value": 0.1678466796875
          },
          {
            "ticks": 155028,
            "time": 165.628362475,
            "value": 0.168701171875
          },
          {
            "ticks": 155035,
            "time": 165.63584111458331,
            "value": 0.1695556640625
          },
          {
            "ticks": 155043,
            "time": 165.64438813125,
            "value": 0.1705322265625
          },
          {
            "ticks": 155050,
            "time": 165.65186677083332,
            "value": 0.17138671875
          },
          {
            "ticks": 155058,
            "time": 165.6604137875,
            "value": 0.1722412109375
          },
          {
            "ticks": 155065,
            "time": 165.6678924270833,
            "value": 0.173095703125
          },
          {
            "ticks": 155073,
            "time": 165.67643944375,
            "value": 0.174072265625
          },
          {
            "ticks": 155080,
            "time": 165.6839180833333,
            "value": 0.1749267578125
          },
          {
            "ticks": 155088,
            "time": 165.6924651,
            "value": 0.17578125
          },
          {
            "ticks": 155095,
            "time": 165.69994373958332,
            "value": 0.1767578125
          },
          {
            "ticks": 155103,
            "time": 165.70849075625,
            "value": 0.1776123046875
          },
          {
            "ticks": 155110,
            "time": 165.71596939583333,
            "value": 0.178466796875
          },
          {
            "ticks": 155118,
            "time": 165.7245164125,
            "value": 0.179443359375
          },
          {
            "ticks": 155125,
            "time": 165.7319950520833,
            "value": 0.1802978515625
          },
          {
            "ticks": 155133,
            "time": 165.74054206875,
            "value": 0.18115234375
          },
          {
            "ticks": 155140,
            "time": 165.7480207083333,
            "value": 0.18212890625
          },
          {
            "ticks": 155148,
            "time": 165.756567725,
            "value": 0.1829833984375
          },
          {
            "ticks": 155155,
            "time": 165.76404636458332,
            "value": 0.183837890625
          },
          {
            "ticks": 155163,
            "time": 165.77259338125,
            "value": 0.184814453125
          },
          {
            "ticks": 155170,
            "time": 165.7800720208333,
            "value": 0.1856689453125
          },
          {
            "ticks": 155178,
            "time": 165.7886190375,
            "value": 0.1865234375
          },
          {
            "ticks": 155185,
            "time": 165.7960976770833,
            "value": 0.1875
          },
          {
            "ticks": 155193,
            "time": 165.80464469375,
            "value": 0.1883544921875
          },
          {
            "ticks": 155200,
            "time": 165.81212333333332,
            "value": 0.189208984375
          },
          {
            "ticks": 155208,
            "time": 165.82067035,
            "value": 0.1900634765625
          },
          {
            "ticks": 155215,
            "time": 165.82814898958333,
            "value": 0.1910400390625
          },
          {
            "ticks": 155223,
            "time": 165.83669600625,
            "value": 0.19189453125
          },
          {
            "ticks": 155230,
            "time": 165.8441746458333,
            "value": 0.1927490234375
          },
          {
            "ticks": 155238,
            "time": 165.85272166250002,
            "value": 0.1937255859375
          },
          {
            "ticks": 155245,
            "time": 165.8602003020833,
            "value": 0.194580078125
          },
          {
            "ticks": 155253,
            "time": 165.86874731875,
            "value": 0.1954345703125
          },
          {
            "ticks": 155260,
            "time": 165.87622595833332,
            "value": 0.1964111328125
          },
          {
            "ticks": 155268,
            "time": 165.884772975,
            "value": 0.197265625
          },
          {
            "ticks": 155275,
            "time": 165.8922516145833,
            "value": 0.1981201171875
          },
          {
            "ticks": 155283,
            "time": 165.90079863125,
            "value": 0.1990966796875
          },
          {
            "ticks": 155290,
            "time": 165.9082772708333,
            "value": 0.199951171875
          },
          {
            "ticks": 155298,
            "time": 165.9168242875,
            "value": 0.2008056640625
          },
          {
            "ticks": 155305,
            "time": 165.92430292708332,
            "value": 0.2017822265625
          },
          {
            "ticks": 155313,
            "time": 165.93284994375,
            "value": 0.20263671875
          },
          {
            "ticks": 155320,
            "time": 165.94032858333333,
            "value": 0.2034912109375
          },
          {
            "ticks": 155328,
            "time": 165.9488756,
            "value": 0.204345703125
          },
          {
            "ticks": 155335,
            "time": 165.9563542395833,
            "value": 0.205322265625
          },
          {
            "ticks": 155343,
            "time": 165.96490125625002,
            "value": 0.2061767578125
          },
          {
            "ticks": 155350,
            "time": 165.9723798958333,
            "value": 0.20703125
          },
          {
            "ticks": 155358,
            "time": 165.9809269125,
            "value": 0.2080078125
          },
          {
            "ticks": 155365,
            "time": 165.98840555208332,
            "value": 0.2088623046875
          },
          {
            "ticks": 155373,
            "time": 165.99695256875,
            "value": 0.209716796875
          },
          {
            "ticks": 155380,
            "time": 166.0044312083333,
            "value": 0.210693359375
          },
          {
            "ticks": 155388,
            "time": 166.012978225,
            "value": 0.2115478515625
          },
          {
            "ticks": 155395,
            "time": 166.0204568645833,
            "value": 0.21240234375
          },
          {
            "ticks": 155403,
            "time": 166.02900388125,
            "value": 0.21337890625
          },
          {
            "ticks": 155410,
            "time": 166.03648252083332,
            "value": 0.2142333984375
          },
          {
            "ticks": 155418,
            "time": 166.0450295375,
            "value": 0.215087890625
          },
          {
            "ticks": 155425,
            "time": 166.05250817708333,
            "value": 0.216064453125
          },
          {
            "ticks": 155433,
            "time": 166.06105519375,
            "value": 0.2169189453125
          },
          {
            "ticks": 155440,
            "time": 166.0685338333333,
            "value": 0.2177734375
          },
          {
            "ticks": 155448,
            "time": 166.07708085000002,
            "value": 0.21875
          },
          {
            "ticks": 155455,
            "time": 166.0845594895833,
            "value": 0.294921875
          },
          {
            "ticks": 155463,
            "time": 166.09310650625,
            "value": 0.37109375
          },
          {
            "ticks": 155468,
            "time": 166.09844839166664,
            "value": 0.421875
          },
          {
            "ticks": 155475,
            "time": 166.10592703125,
            "value": 0.53564453125
          },
          {
            "ticks": 155483,
            "time": 166.11447404791664,
            "value": 0.6495361328125
          },
          {
            "ticks": 155485,
            "time": 166.1166108020833,
            "value": 0.6875
          },
          {
            "ticks": 155491,
            "time": 166.12302106458333,
            "value": 0.762451171875
          },
          {
            "ticks": 155498,
            "time": 166.13049970416665,
            "value": 0.84375
          },
          {
            "ticks": 155505,
            "time": 166.13797834374998,
            "value": 0.703125
          },
          {
            "ticks": 155513,
            "time": 166.14652536041666,
            "value": 0.5625
          },
          {
            "ticks": 155520,
            "time": 166.154004,
            "value": 0.421875
          },
          {
            "ticks": 155528,
            "time": 166.16255101666664,
            "value": 0.28125
          },
          {
            "ticks": 155535,
            "time": 166.17002965625,
            "value": 0.140625
          },
          {
            "ticks": 155543,
            "time": 166.17857667291665,
            "value": 0
          }
        ],
        "instrument": {
          "family": "bass",
          "number": 35,
          "name": "fretless bass"
        },
        "name": "",
        "notes": [
          {
            "duration": 0.003205131250000104,
            "durationTicks": 3,
            "midi": 72,
            "name": "C5",
            "ticks": 3720,
            "time": 3.9743627499999996,
            "velocity": 0.007874015748031496
          },
          {
            "duration": 0.1335471354166664,
            "durationTicks": 125,
            "midi": 54,
            "name": "F#3",
            "ticks": 7680,
            "time": 8.205136,
            "velocity": 1
          },
          {
            "duration": 0.138889020833334,
            "durationTicks": 130,
            "midi": 49,
            "name": "C#3",
            "ticks": 7920,
            "time": 8.461546499999999,
            "velocity": 1
          },
          {
            "duration": 0.14743603750000034,
            "durationTicks": 138,
            "midi": 52,
            "name": "E3",
            "ticks": 8160,
            "time": 8.717957,
            "velocity": 1
          },
          {
            "duration": 0.13675226666666518,
            "durationTicks": 128,
            "midi": 54,
            "name": "F#3",
            "ticks": 8400,
            "time": 8.9743675,
            "velocity": 1
          },
          {
            "duration": 0.14957279166666737,
            "durationTicks": 140,
            "midi": 52,
            "name": "E3",
            "ticks": 8640,
            "time": 9.230777999999999,
            "velocity": 1
          },
          {
            "duration": 0.13675226666666518,
            "durationTicks": 128,
            "midi": 49,
            "name": "C#3",
            "ticks": 8880,
            "time": 9.4871885,
            "velocity": 1
          },
          {
            "duration": 0.1634616937500013,
            "durationTicks": 153,
            "midi": 47,
            "name": "B2",
            "ticks": 9120,
            "time": 9.743599,
            "velocity": 1
          },
          {
            "duration": 0.1442309062499998,
            "durationTicks": 135,
            "midi": 49,
            "name": "C#3",
            "ticks": 9360,
            "time": 10.000009499999999,
            "velocity": 1
          },
          {
            "duration": 0.12606849583333357,
            "durationTicks": 118,
            "midi": 54,
            "name": "F#3",
            "ticks": 9600,
            "time": 10.256419999999999,
            "velocity": 1
          },
          {
            "duration": 0.12820524999999883,
            "durationTicks": 120,
            "midi": 49,
            "name": "C#3",
            "ticks": 9840,
            "time": 10.5128305,
            "velocity": 1
          },
          {
            "duration": 0.14209415208333454,
            "durationTicks": 133,
            "midi": 52,
            "name": "E3",
            "ticks": 10080,
            "time": 10.769241,
            "velocity": 1
          },
          {
            "duration": 0.12286336458333302,
            "durationTicks": 115,
            "midi": 54,
            "name": "F#3",
            "ticks": 10320,
            "time": 11.025651499999999,
            "velocity": 1
          },
          {
            "duration": 0.15811980833333372,
            "durationTicks": 148,
            "midi": 52,
            "name": "E3",
            "ticks": 10560,
            "time": 11.282062,
            "velocity": 1
          },
          {
            "duration": 0.1442309062499998,
            "durationTicks": 135,
            "midi": 49,
            "name": "C#3",
            "ticks": 10800,
            "time": 11.5384725,
            "velocity": 1
          },
          {
            "duration": 0.17414546458333469,
            "durationTicks": 163,
            "midi": 47,
            "name": "B2",
            "ticks": 11040,
            "time": 11.794882999999999,
            "velocity": 1
          },
          {
            "duration": 0.13675226666666518,
            "durationTicks": 128,
            "midi": 49,
            "name": "C#3",
            "ticks": 11280,
            "time": 12.0512935,
            "velocity": 1
          },
          {
            "duration": 0.1335471354166664,
            "durationTicks": 125,
            "midi": 54,
            "name": "F#3",
            "ticks": 11520,
            "time": 12.307704,
            "velocity": 1
          },
          {
            "duration": 0.138889020833334,
            "durationTicks": 130,
            "midi": 49,
            "name": "C#3",
            "ticks": 11760,
            "time": 12.564114499999999,
            "velocity": 1
          },
          {
            "duration": 0.14743603750000034,
            "durationTicks": 138,
            "midi": 52,
            "name": "E3",
            "ticks": 12000,
            "time": 12.820525,
            "velocity": 1
          },
          {
            "duration": 0.13675226666666518,
            "durationTicks": 128,
            "midi": 54,
            "name": "F#3",
            "ticks": 12240,
            "time": 13.0769355,
            "velocity": 1
          },
          {
            "duration": 0.14957279166666737,
            "durationTicks": 140,
            "midi": 52,
            "name": "E3",
            "ticks": 12480,
            "time": 13.333345999999999,
            "velocity": 1
          },
          {
            "duration": 0.13675226666666518,
            "durationTicks": 128,
            "midi": 49,
            "name": "C#3",
            "ticks": 12720,
            "time": 13.5897565,
            "velocity": 1
          },
          {
            "duration": 0.1634616937500013,
            "durationTicks": 153,
            "midi": 47,
            "name": "B2",
            "ticks": 12960,
            "time": 13.846167,
            "velocity": 1
          },
          {
            "duration": 0.1442309062499998,
            "durationTicks": 135,
            "midi": 49,
            "name": "C#3",
            "ticks": 13200,
            "time": 14.102577499999999,
            "velocity": 1
          },
          {
            "duration": 0.1260684958333318,
            "durationTicks": 118,
            "midi": 54,
            "name": "F#3",
            "ticks": 13440,
            "time": 14.358988,
            "velocity": 1
          },
          {
            "duration": 0.12820524999999883,
            "durationTicks": 120,
            "midi": 49,
            "name": "C#3",
            "ticks": 13680,
            "time": 14.6153985,
            "velocity": 1
          },
          {
            "duration": 0.14209415208333454,
            "durationTicks": 133,
            "midi": 52,
            "name": "E3",
            "ticks": 13920,
            "time": 14.871808999999999,
            "velocity": 1
          },
          {
            "duration": 0.12286336458333302,
            "durationTicks": 115,
            "midi": 54,
            "name": "F#3",
            "ticks": 14160,
            "time": 15.128219499999998,
            "velocity": 1
          },
          {
            "duration": 0.15811980833333372,
            "durationTicks": 148,
            "midi": 52,
            "name": "E3",
            "ticks": 14400,
            "time": 15.38463,
            "velocity": 1
          },
          {
            "duration": 0.1442309062499998,
            "durationTicks": 135,
            "midi": 49,
            "name": "C#3",
            "ticks": 14640,
            "time": 15.641040499999999,
            "velocity": 1
          },
          {
            "duration": 0.17414546458333469,
            "durationTicks": 163,
            "midi": 47,
            "name": "B2",
            "ticks": 14880,
            "time": 15.897450999999998,
            "velocity": 1
          },
          {
            "duration": 0.13675226666666873,
            "durationTicks": 128,
            "midi": 49,
            "name": "C#3",
            "ticks": 15120,
            "time": 16.153861499999998,
            "velocity": 1
          },
          {
            "duration": 0.1335471354166664,
            "durationTicks": 125,
            "midi": 54,
            "name": "F#3",
            "ticks": 15360,
            "time": 16.410272,
            "velocity": 1
          },
          {
            "duration": 0.1388890208333322,
            "durationTicks": 130,
            "midi": 49,
            "name": "C#3",
            "ticks": 15600,
            "time": 16.6666825,
            "velocity": 1
          },
          {
            "duration": 0.14743603750000034,
            "durationTicks": 138,
            "midi": 52,
            "name": "E3",
            "ticks": 15840,
            "time": 16.923092999999998,
            "velocity": 1
          },
          {
            "duration": 0.13675226666666518,
            "durationTicks": 128,
            "midi": 54,
            "name": "F#3",
            "ticks": 16080,
            "time": 17.1795035,
            "velocity": 1
          },
          {
            "duration": 0.14957279166666382,
            "durationTicks": 140,
            "midi": 52,
            "name": "E3",
            "ticks": 16320,
            "time": 17.435914,
            "velocity": 1
          },
          {
            "duration": 0.13675226666666873,
            "durationTicks": 128,
            "midi": 49,
            "name": "C#3",
            "ticks": 16560,
            "time": 17.692324499999998,
            "velocity": 1
          },
          {
            "duration": 0.1634616937500013,
            "durationTicks": 153,
            "midi": 47,
            "name": "B2",
            "ticks": 16800,
            "time": 17.948735,
            "velocity": 1
          },
          {
            "duration": 0.14423090624999801,
            "durationTicks": 135,
            "midi": 49,
            "name": "C#3",
            "ticks": 17040,
            "time": 18.2051455,
            "velocity": 1
          },
          {
            "duration": 0.12606849583333357,
            "durationTicks": 118,
            "midi": 54,
            "name": "F#3",
            "ticks": 17280,
            "time": 18.461555999999998,
            "velocity": 1
          },
          {
            "duration": 0.1282052500000006,
            "durationTicks": 120,
            "midi": 49,
            "name": "C#3",
            "ticks": 17520,
            "time": 18.7179665,
            "velocity": 1
          },
          {
            "duration": 0.14209415208333098,
            "durationTicks": 133,
            "midi": 52,
            "name": "E3",
            "ticks": 17760,
            "time": 18.974377,
            "velocity": 1
          },
          {
            "duration": 0.1228633645833348,
            "durationTicks": 115,
            "midi": 54,
            "name": "F#3",
            "ticks": 18000,
            "time": 19.230787499999998,
            "velocity": 1
          },
          {
            "duration": 0.15811980833333195,
            "durationTicks": 148,
            "midi": 52,
            "name": "E3",
            "ticks": 18240,
            "time": 19.487198,
            "velocity": 1
          },
          {
            "duration": 0.14423090624999801,
            "durationTicks": 135,
            "midi": 49,
            "name": "C#3",
            "ticks": 18480,
            "time": 19.7436085,
            "velocity": 1
          },
          {
            "duration": 0.1741454645833329,
            "durationTicks": 163,
            "midi": 47,
            "name": "B2",
            "ticks": 18720,
            "time": 20.000018999999998,
            "velocity": 1
          },
          {
            "duration": 0.13675226666666518,
            "durationTicks": 128,
            "midi": 49,
            "name": "C#3",
            "ticks": 18960,
            "time": 20.2564295,
            "velocity": 1
          },
          {
            "duration": 0.1335471354166664,
            "durationTicks": 125,
            "midi": 54,
            "name": "F#3",
            "ticks": 19200,
            "time": 20.512839999999997,
            "velocity": 1
          },
          {
            "duration": 0.13888902083333576,
            "durationTicks": 130,
            "midi": 49,
            "name": "C#3",
            "ticks": 19440,
            "time": 20.7692505,
            "velocity": 1
          },
          {
            "duration": 0.14743603750000034,
            "durationTicks": 138,
            "midi": 52,
            "name": "E3",
            "ticks": 19680,
            "time": 21.025661,
            "velocity": 1
          },
          {
            "duration": 0.13675226666666873,
            "durationTicks": 128,
            "midi": 54,
            "name": "F#3",
            "ticks": 19920,
            "time": 21.282071499999997,
            "velocity": 1
          },
          {
            "duration": 0.14957279166666737,
            "durationTicks": 140,
            "midi": 52,
            "name": "E3",
            "ticks": 20160,
            "time": 21.538482,
            "velocity": 1
          },
          {
            "duration": 0.13675226666666518,
            "durationTicks": 128,
            "midi": 49,
            "name": "C#3",
            "ticks": 20400,
            "time": 21.7948925,
            "velocity": 1
          },
          {
            "duration": 0.1634616937500013,
            "durationTicks": 153,
            "midi": 47,
            "name": "B2",
            "ticks": 20640,
            "time": 22.051302999999997,
            "velocity": 1
          },
          {
            "duration": 0.12606849583333357,
            "durationTicks": 118,
            "midi": 49,
            "name": "C#3",
            "ticks": 20880,
            "time": 22.3077135,
            "velocity": 1
          },
          {
            "duration": 0.12606849583333002,
            "durationTicks": 118,
            "midi": 54,
            "name": "F#3",
            "ticks": 21120,
            "time": 22.564124,
            "velocity": 1
          },
          {
            "duration": 0.1282052500000006,
            "durationTicks": 120,
            "midi": 49,
            "name": "C#3",
            "ticks": 21360,
            "time": 22.820534499999997,
            "velocity": 1
          },
          {
            "duration": 0.14209415208333098,
            "durationTicks": 133,
            "midi": 52,
            "name": "E3",
            "ticks": 21600,
            "time": 23.076945,
            "velocity": 1
          },
          {
            "duration": 0.1228633645833348,
            "durationTicks": 115,
            "midi": 54,
            "name": "F#3",
            "ticks": 21840,
            "time": 23.3333555,
            "velocity": 1
          },
          {
            "duration": 0.15811980833333195,
            "durationTicks": 148,
            "midi": 52,
            "name": "E3",
            "ticks": 22080,
            "time": 23.589765999999997,
            "velocity": 1
          },
          {
            "duration": 0.14423090625000157,
            "durationTicks": 135,
            "midi": 49,
            "name": "C#3",
            "ticks": 22320,
            "time": 23.8461765,
            "velocity": 1
          },
          {
            "duration": 0.17414546458332936,
            "durationTicks": 163,
            "midi": 47,
            "name": "B2",
            "ticks": 22560,
            "time": 24.102587,
            "velocity": 1
          },
          {
            "duration": 0.13675226666666873,
            "durationTicks": 128,
            "midi": 49,
            "name": "C#3",
            "ticks": 22800,
            "time": 24.358997499999997,
            "velocity": 1
          },
          {
            "duration": 0.1335471354166664,
            "durationTicks": 125,
            "midi": 54,
            "name": "F#3",
            "ticks": 23040,
            "time": 24.615408,
            "velocity": 1
          },
          {
            "duration": 0.1388890208333322,
            "durationTicks": 130,
            "midi": 49,
            "name": "C#3",
            "ticks": 23280,
            "time": 24.8718185,
            "velocity": 1
          },
          {
            "duration": 0.14743603750000034,
            "durationTicks": 138,
            "midi": 52,
            "name": "E3",
            "ticks": 23520,
            "time": 25.128228999999997,
            "velocity": 1
          },
          {
            "duration": 0.13675226666666518,
            "durationTicks": 128,
            "midi": 54,
            "name": "F#3",
            "ticks": 23760,
            "time": 25.3846395,
            "velocity": 1
          },
          {
            "duration": 0.14957279166666382,
            "durationTicks": 140,
            "midi": 52,
            "name": "E3",
            "ticks": 24000,
            "time": 25.64105,
            "velocity": 1
          },
          {
            "duration": 0.13675226666666873,
            "durationTicks": 128,
            "midi": 49,
            "name": "C#3",
            "ticks": 24240,
            "time": 25.897460499999998,
            "velocity": 1
          },
          {
            "duration": 0.1634616937500013,
            "durationTicks": 153,
            "midi": 47,
            "name": "B2",
            "ticks": 24480,
            "time": 26.153871,
            "velocity": 1
          },
          {
            "duration": 0.14423090624999801,
            "durationTicks": 135,
            "midi": 49,
            "name": "C#3",
            "ticks": 24720,
            "time": 26.4102815,
            "velocity": 1
          },
          {
            "duration": 0.12606849583333357,
            "durationTicks": 118,
            "midi": 54,
            "name": "F#3",
            "ticks": 24960,
            "time": 26.666691999999998,
            "velocity": 1
          },
          {
            "duration": 0.1282052500000006,
            "durationTicks": 120,
            "midi": 49,
            "name": "C#3",
            "ticks": 25200,
            "time": 26.9231025,
            "velocity": 1
          },
          {
            "duration": 0.14209415208333098,
            "durationTicks": 133,
            "midi": 52,
            "name": "E3",
            "ticks": 25440,
            "time": 27.179513,
            "velocity": 1
          },
          {
            "duration": 0.1228633645833348,
            "durationTicks": 115,
            "midi": 54,
            "name": "F#3",
            "ticks": 25680,
            "time": 27.435923499999998,
            "velocity": 1
          },
          {
            "duration": 0.15811980833333195,
            "durationTicks": 148,
            "midi": 52,
            "name": "E3",
            "ticks": 25920,
            "time": 27.692334,
            "velocity": 1
          },
          {
            "duration": 0.14423090624999801,
            "durationTicks": 135,
            "midi": 49,
            "name": "C#3",
            "ticks": 26160,
            "time": 27.9487445,
            "velocity": 1
          },
          {
            "duration": 0.1741454645833329,
            "durationTicks": 163,
            "midi": 47,
            "name": "B2",
            "ticks": 26400,
            "time": 28.205154999999998,
            "velocity": 1
          },
          {
            "duration": 0.13675226666666518,
            "durationTicks": 128,
            "midi": 49,
            "name": "C#3",
            "ticks": 26640,
            "time": 28.4615655,
            "velocity": 1
          },
          {
            "duration": 0.13354713541666285,
            "durationTicks": 125,
            "midi": 54,
            "name": "F#3",
            "ticks": 26880,
            "time": 28.717976,
            "velocity": 1
          },
          {
            "duration": 0.13888902083333576,
            "durationTicks": 130,
            "midi": 49,
            "name": "C#3",
            "ticks": 27120,
            "time": 28.974386499999998,
            "velocity": 1
          },
          {
            "duration": 0.14743603750000034,
            "durationTicks": 138,
            "midi": 52,
            "name": "E3",
            "ticks": 27360,
            "time": 29.230797,
            "velocity": 1
          },
          {
            "duration": 0.13675226666666873,
            "durationTicks": 128,
            "midi": 54,
            "name": "F#3",
            "ticks": 27600,
            "time": 29.487207499999997,
            "velocity": 1
          },
          {
            "duration": 0.14957279166666737,
            "durationTicks": 140,
            "midi": 52,
            "name": "E3",
            "ticks": 27840,
            "time": 29.743617999999998,
            "velocity": 1
          },
          {
            "duration": 0.13675226666666518,
            "durationTicks": 128,
            "midi": 49,
            "name": "C#3",
            "ticks": 28080,
            "time": 30.0000285,
            "velocity": 1
          },
          {
            "duration": 0.1634616937500013,
            "durationTicks": 153,
            "midi": 47,
            "name": "B2",
            "ticks": 28320,
            "time": 30.256438999999997,
            "velocity": 1
          },
          {
            "duration": 0.14423090625000157,
            "durationTicks": 135,
            "midi": 49,
            "name": "C#3",
            "ticks": 28560,
            "time": 30.512849499999998,
            "velocity": 1
          },
          {
            "duration": 0.12606849583333002,
            "durationTicks": 118,
            "midi": 54,
            "name": "F#3",
            "ticks": 28800,
            "time": 30.76926,
            "velocity": 1
          },
          {
            "duration": 0.1282052500000006,
            "durationTicks": 120,
            "midi": 49,
            "name": "C#3",
            "ticks": 29040,
            "time": 31.025670499999997,
            "velocity": 1
          },
          {
            "duration": 0.14209415208333098,
            "durationTicks": 133,
            "midi": 52,
            "name": "E3",
            "ticks": 29280,
            "time": 31.282080999999998,
            "velocity": 1
          },
          {
            "duration": 0.1228633645833348,
            "durationTicks": 115,
            "midi": 54,
            "name": "F#3",
            "ticks": 29520,
            "time": 31.5384915,
            "velocity": 1
          },
          {
            "duration": 0.15811980833333195,
            "durationTicks": 148,
            "midi": 52,
            "name": "E3",
            "ticks": 29760,
            "time": 31.794901999999997,
            "velocity": 1
          },
          {
            "duration": 0.14423090624999446,
            "durationTicks": 135,
            "midi": 49,
            "name": "C#3",
            "ticks": 30000,
            "time": 32.0513125,
            "velocity": 1
          },
          {
            "duration": 0.1741454645833329,
            "durationTicks": 163,
            "midi": 47,
            "name": "B2",
            "ticks": 30240,
            "time": 32.307722999999996,
            "velocity": 1
          },
          {
            "duration": 0.13675226666666873,
            "durationTicks": 128,
            "midi": 49,
            "name": "C#3",
            "ticks": 30480,
            "time": 32.5641335,
            "velocity": 1
          },
          {
            "duration": 0.13354713541666996,
            "durationTicks": 125,
            "midi": 54,
            "name": "F#3",
            "ticks": 30720,
            "time": 32.820544,
            "velocity": 1
          },
          {
            "duration": 0.1388890208333322,
            "durationTicks": 130,
            "midi": 49,
            "name": "C#3",
            "ticks": 30960,
            "time": 33.0769545,
            "velocity": 1
          },
          {
            "duration": 0.14743603749999323,
            "durationTicks": 138,
            "midi": 52,
            "name": "E3",
            "ticks": 31200,
            "time": 33.333365,
            "velocity": 1
          },
          {
            "duration": 0.13675226666666873,
            "durationTicks": 128,
            "midi": 54,
            "name": "F#3",
            "ticks": 31440,
            "time": 33.589775499999995,
            "velocity": 1
          },
          {
            "duration": 0.14957279166667092,
            "durationTicks": 140,
            "midi": 52,
            "name": "E3",
            "ticks": 31680,
            "time": 33.846185999999996,
            "velocity": 1
          },
          {
            "duration": 0.13675226666666873,
            "durationTicks": 128,
            "midi": 49,
            "name": "C#3",
            "ticks": 31920,
            "time": 34.1025965,
            "velocity": 1
          },
          {
            "duration": 0.1634616937499942,
            "durationTicks": 153,
            "midi": 47,
            "name": "B2",
            "ticks": 32160,
            "time": 34.359007,
            "velocity": 1
          },
          {
            "duration": 0.14423090625000157,
            "durationTicks": 135,
            "midi": 49,
            "name": "C#3",
            "ticks": 32400,
            "time": 34.6154175,
            "velocity": 1
          },
          {
            "duration": 0.12606849583333002,
            "durationTicks": 118,
            "midi": 54,
            "name": "F#3",
            "ticks": 32640,
            "time": 34.871828,
            "velocity": 1
          },
          {
            "duration": 0.1282052500000006,
            "durationTicks": 120,
            "midi": 49,
            "name": "C#3",
            "ticks": 32880,
            "time": 35.128238499999995,
            "velocity": 1
          },
          {
            "duration": 0.1420941520833381,
            "durationTicks": 133,
            "midi": 52,
            "name": "E3",
            "ticks": 33120,
            "time": 35.384648999999996,
            "velocity": 1
          },
          {
            "duration": 0.12286336458333125,
            "durationTicks": 115,
            "midi": 54,
            "name": "F#3",
            "ticks": 33360,
            "time": 35.6410595,
            "velocity": 1
          },
          {
            "duration": 0.15811980833333195,
            "durationTicks": 148,
            "midi": 52,
            "name": "E3",
            "ticks": 33600,
            "time": 35.89747,
            "velocity": 1
          },
          {
            "duration": 0.14423090625000157,
            "durationTicks": 135,
            "midi": 49,
            "name": "C#3",
            "ticks": 33840,
            "time": 36.1538805,
            "velocity": 1
          },
          {
            "duration": 0.1741454645833329,
            "durationTicks": 163,
            "midi": 47,
            "name": "B2",
            "ticks": 34080,
            "time": 36.410291,
            "velocity": 1
          },
          {
            "duration": 0.13675226666666873,
            "durationTicks": 128,
            "midi": 49,
            "name": "C#3",
            "ticks": 34320,
            "time": 36.666701499999995,
            "velocity": 1
          },
          {
            "duration": 0.13354713541666996,
            "durationTicks": 125,
            "midi": 54,
            "name": "F#3",
            "ticks": 34560,
            "time": 36.923111999999996,
            "velocity": 1
          },
          {
            "duration": 0.1388890208333322,
            "durationTicks": 130,
            "midi": 49,
            "name": "C#3",
            "ticks": 34800,
            "time": 37.1795225,
            "velocity": 1
          },
          {
            "duration": 0.14743603749999323,
            "durationTicks": 138,
            "midi": 52,
            "name": "E3",
            "ticks": 35040,
            "time": 37.435933,
            "velocity": 1
          },
          {
            "duration": 0.13675226666666163,
            "durationTicks": 128,
            "midi": 54,
            "name": "F#3",
            "ticks": 35280,
            "time": 37.6923435,
            "velocity": 1
          },
          {
            "duration": 0.14957279166666382,
            "durationTicks": 140,
            "midi": 52,
            "name": "E3",
            "ticks": 35520,
            "time": 37.948754,
            "velocity": 1
          },
          {
            "duration": 0.13675226666666873,
            "durationTicks": 128,
            "midi": 49,
            "name": "C#3",
            "ticks": 35760,
            "time": 38.205164499999995,
            "velocity": 1
          },
          {
            "duration": 0.1634616937500013,
            "durationTicks": 153,
            "midi": 47,
            "name": "B2",
            "ticks": 36000,
            "time": 38.461574999999996,
            "velocity": 1
          },
          {
            "duration": 0.14423090625000157,
            "durationTicks": 135,
            "midi": 49,
            "name": "C#3",
            "ticks": 36240,
            "time": 38.7179855,
            "velocity": 1
          },
          {
            "duration": 0.1282052500000006,
            "durationTicks": 120,
            "midi": 59,
            "name": "B3",
            "ticks": 36480,
            "time": 38.974396,
            "velocity": 1
          },
          {
            "duration": 0.0940171833333352,
            "durationTicks": 88,
            "midi": 54,
            "name": "F#3",
            "ticks": 36720,
            "time": 39.2308065,
            "velocity": 1
          },
          {
            "duration": 0.1388890208333251,
            "durationTicks": 130,
            "midi": 57,
            "name": "A3",
            "ticks": 36960,
            "time": 39.487217,
            "velocity": 1
          },
          {
            "duration": 0.1869659895833351,
            "durationTicks": 175,
            "midi": 59,
            "name": "B3",
            "ticks": 37200,
            "time": 39.743627499999995,
            "velocity": 1
          },
          {
            "duration": 0.14957279166667092,
            "durationTicks": 140,
            "midi": 54,
            "name": "F#3",
            "ticks": 37680,
            "time": 40.2564485,
            "velocity": 1
          },
          {
            "duration": 0.16025656249999543,
            "durationTicks": 150,
            "midi": 52,
            "name": "E3",
            "ticks": 37920,
            "time": 40.512859,
            "velocity": 1
          },
          {
            "duration": 0.1388890208333251,
            "durationTicks": 130,
            "midi": 54,
            "name": "F#3",
            "ticks": 38160,
            "time": 40.7692695,
            "velocity": 1
          },
          {
            "duration": 0.13141038124999938,
            "durationTicks": 123,
            "midi": 59,
            "name": "B3",
            "ticks": 38400,
            "time": 41.025679999999994,
            "velocity": 1
          },
          {
            "duration": 0.13354713541666996,
            "durationTicks": 125,
            "midi": 54,
            "name": "F#3",
            "ticks": 38640,
            "time": 41.282090499999995,
            "velocity": 1
          },
          {
            "duration": 0.1527779229166697,
            "durationTicks": 143,
            "midi": 57,
            "name": "A3",
            "ticks": 38880,
            "time": 41.538501,
            "velocity": 1
          },
          {
            "duration": 0.18162410416666575,
            "durationTicks": 170,
            "midi": 59,
            "name": "B3",
            "ticks": 39120,
            "time": 41.7949115,
            "velocity": 1
          },
          {
            "duration": 0.16880357916666355,
            "durationTicks": 158,
            "midi": 54,
            "name": "F#3",
            "ticks": 39600,
            "time": 42.3077325,
            "velocity": 1
          },
          {
            "duration": 0.16025656250000253,
            "durationTicks": 150,
            "midi": 52,
            "name": "E3",
            "ticks": 39840,
            "time": 42.564142999999994,
            "velocity": 1
          },
          {
            "duration": 0.16880357916667066,
            "durationTicks": 158,
            "midi": 49,
            "name": "C#3",
            "ticks": 40080,
            "time": 42.820553499999995,
            "velocity": 1
          },
          {
            "duration": 0.13354713541666996,
            "durationTicks": 125,
            "midi": 54,
            "name": "F#3",
            "ticks": 40320,
            "time": 43.076964,
            "velocity": 1
          },
          {
            "duration": 0.1388890208333322,
            "durationTicks": 130,
            "midi": 49,
            "name": "C#3",
            "ticks": 40560,
            "time": 43.3333745,
            "velocity": 1
          },
          {
            "duration": 0.14743603749999323,
            "durationTicks": 138,
            "midi": 52,
            "name": "E3",
            "ticks": 40800,
            "time": 43.589785,
            "velocity": 1
          },
          {
            "duration": 0.13675226666666163,
            "durationTicks": 128,
            "midi": 54,
            "name": "F#3",
            "ticks": 41040,
            "time": 43.8461955,
            "velocity": 1
          },
          {
            "duration": 0.14957279166667092,
            "durationTicks": 140,
            "midi": 52,
            "name": "E3",
            "ticks": 41280,
            "time": 44.102605999999994,
            "velocity": 1
          },
          {
            "duration": 0.13675226666666873,
            "durationTicks": 128,
            "midi": 49,
            "name": "C#3",
            "ticks": 41520,
            "time": 44.359016499999996,
            "velocity": 1
          },
          {
            "duration": 0.1634616937499942,
            "durationTicks": 153,
            "midi": 47,
            "name": "B2",
            "ticks": 41760,
            "time": 44.615427,
            "velocity": 1
          },
          {
            "duration": 0.14423090625000157,
            "durationTicks": 135,
            "midi": 49,
            "name": "C#3",
            "ticks": 42000,
            "time": 44.8718375,
            "velocity": 1
          },
          {
            "duration": 0.12606849583333002,
            "durationTicks": 118,
            "midi": 54,
            "name": "F#3",
            "ticks": 42240,
            "time": 45.128248,
            "velocity": 1
          },
          {
            "duration": 0.1282052499999935,
            "durationTicks": 120,
            "midi": 49,
            "name": "C#3",
            "ticks": 42480,
            "time": 45.3846585,
            "velocity": 1
          },
          {
            "duration": 0.1420941520833381,
            "durationTicks": 133,
            "midi": 52,
            "name": "E3",
            "ticks": 42720,
            "time": 45.641068999999995,
            "velocity": 1
          },
          {
            "duration": 0.12286336458333125,
            "durationTicks": 115,
            "midi": 54,
            "name": "F#3",
            "ticks": 42960,
            "time": 45.897479499999996,
            "velocity": 1
          },
          {
            "duration": 0.15811980833333905,
            "durationTicks": 148,
            "midi": 52,
            "name": "E3",
            "ticks": 43200,
            "time": 46.15389,
            "velocity": 1
          },
          {
            "duration": 0.14423090625000157,
            "durationTicks": 135,
            "midi": 49,
            "name": "C#3",
            "ticks": 43440,
            "time": 46.4103005,
            "velocity": 1
          },
          {
            "duration": 0.1741454645833329,
            "durationTicks": 163,
            "midi": 47,
            "name": "B2",
            "ticks": 43680,
            "time": 46.666711,
            "velocity": 1
          },
          {
            "duration": 0.13675226666666163,
            "durationTicks": 128,
            "midi": 49,
            "name": "C#3",
            "ticks": 43920,
            "time": 46.9231215,
            "velocity": 1
          },
          {
            "duration": 0.1282052500000006,
            "durationTicks": 120,
            "midi": 59,
            "name": "B3",
            "ticks": 44160,
            "time": 47.179531999999995,
            "velocity": 1
          },
          {
            "duration": 0.0940171833333352,
            "durationTicks": 88,
            "midi": 54,
            "name": "F#3",
            "ticks": 44400,
            "time": 47.435942499999996,
            "velocity": 1
          },
          {
            "duration": 0.1388890208333322,
            "durationTicks": 130,
            "midi": 57,
            "name": "A3",
            "ticks": 44640,
            "time": 47.692353,
            "velocity": 1
          },
          {
            "duration": 0.186965989583328,
            "durationTicks": 175,
            "midi": 59,
            "name": "B3",
            "ticks": 44880,
            "time": 47.9487635,
            "velocity": 1
          },
          {
            "duration": 0.14957279166666382,
            "durationTicks": 140,
            "midi": 54,
            "name": "F#3",
            "ticks": 45360,
            "time": 48.4615845,
            "velocity": 1
          },
          {
            "duration": 0.16025656250000253,
            "durationTicks": 150,
            "midi": 52,
            "name": "E3",
            "ticks": 45600,
            "time": 48.717994999999995,
            "velocity": 1
          },
          {
            "duration": 0.1388890208333322,
            "durationTicks": 130,
            "midi": 54,
            "name": "F#3",
            "ticks": 45840,
            "time": 48.974405499999996,
            "velocity": 1
          },
          {
            "duration": 0.13141038124999938,
            "durationTicks": 123,
            "midi": 59,
            "name": "B3",
            "ticks": 46080,
            "time": 49.230816,
            "velocity": 1
          },
          {
            "duration": 0.13354713541666996,
            "durationTicks": 125,
            "midi": 54,
            "name": "F#3",
            "ticks": 46320,
            "time": 49.4872265,
            "velocity": 1
          },
          {
            "duration": 0.1527779229166626,
            "durationTicks": 143,
            "midi": 57,
            "name": "A3",
            "ticks": 46560,
            "time": 49.743637,
            "velocity": 1
          },
          {
            "duration": 0.18162410416667285,
            "durationTicks": 170,
            "midi": 59,
            "name": "B3",
            "ticks": 46800,
            "time": 50.000047499999994,
            "velocity": 1
          },
          {
            "duration": 0.16880357916667066,
            "durationTicks": 158,
            "midi": 54,
            "name": "F#3",
            "ticks": 47280,
            "time": 50.512868499999996,
            "velocity": 1
          },
          {
            "duration": 0.16025656250000253,
            "durationTicks": 150,
            "midi": 52,
            "name": "E3",
            "ticks": 47520,
            "time": 50.769279,
            "velocity": 1
          },
          {
            "duration": 0.16880357916666355,
            "durationTicks": 158,
            "midi": 49,
            "name": "C#3",
            "ticks": 47760,
            "time": 51.0256895,
            "velocity": 1
          },
          {
            "duration": 0.13354713541666996,
            "durationTicks": 125,
            "midi": 54,
            "name": "F#3",
            "ticks": 48000,
            "time": 51.2821,
            "velocity": 1
          },
          {
            "duration": 0.1388890208333322,
            "durationTicks": 130,
            "midi": 49,
            "name": "C#3",
            "ticks": 48240,
            "time": 51.538510499999994,
            "velocity": 1
          },
          {
            "duration": 0.14743603750000034,
            "durationTicks": 138,
            "midi": 52,
            "name": "E3",
            "ticks": 48480,
            "time": 51.794920999999995,
            "velocity": 1
          },
          {
            "duration": 0.13675226666666873,
            "durationTicks": 128,
            "midi": 54,
            "name": "F#3",
            "ticks": 48720,
            "time": 52.051331499999996,
            "velocity": 1
          },
          {
            "duration": 0.14957279166667092,
            "durationTicks": 140,
            "midi": 52,
            "name": "E3",
            "ticks": 48960,
            "time": 52.307742,
            "velocity": 1
          },
          {
            "duration": 0.13675226666666163,
            "durationTicks": 128,
            "midi": 49,
            "name": "C#3",
            "ticks": 49200,
            "time": 52.5641525,
            "velocity": 1
          },
          {
            "duration": 0.1634616937499942,
            "durationTicks": 153,
            "midi": 47,
            "name": "B2",
            "ticks": 49440,
            "time": 52.820563,
            "velocity": 1
          },
          {
            "duration": 0.14423090625000157,
            "durationTicks": 135,
            "midi": 49,
            "name": "C#3",
            "ticks": 49680,
            "time": 53.076973499999994,
            "velocity": 1
          },
          {
            "duration": 0.12606849583333712,
            "durationTicks": 118,
            "midi": 54,
            "name": "F#3",
            "ticks": 49920,
            "time": 53.333383999999995,
            "velocity": 1
          },
          {
            "duration": 0.1282052500000006,
            "durationTicks": 120,
            "midi": 49,
            "name": "C#3",
            "ticks": 50160,
            "time": 53.589794499999996,
            "velocity": 1
          },
          {
            "duration": 0.1420941520833381,
            "durationTicks": 133,
            "midi": 52,
            "name": "E3",
            "ticks": 50400,
            "time": 53.846205,
            "velocity": 1
          },
          {
            "duration": 0.12286336458333125,
            "durationTicks": 115,
            "midi": 54,
            "name": "F#3",
            "ticks": 50640,
            "time": 54.1026155,
            "velocity": 1
          },
          {
            "duration": 0.15811980833333195,
            "durationTicks": 148,
            "midi": 52,
            "name": "E3",
            "ticks": 50880,
            "time": 54.359026,
            "velocity": 1
          },
          {
            "duration": 0.14423090625000157,
            "durationTicks": 135,
            "midi": 49,
            "name": "C#3",
            "ticks": 51120,
            "time": 54.615436499999994,
            "velocity": 1
          },
          {
            "duration": 0.17414546458334001,
            "durationTicks": 163,
            "midi": 47,
            "name": "B2",
            "ticks": 51360,
            "time": 54.871846999999995,
            "velocity": 1
          },
          {
            "duration": 0.13675226666666873,
            "durationTicks": 128,
            "midi": 49,
            "name": "C#3",
            "ticks": 51600,
            "time": 55.1282575,
            "velocity": 1
          },
          {
            "duration": 0.13354713541666996,
            "durationTicks": 125,
            "midi": 54,
            "name": "F#3",
            "ticks": 51840,
            "time": 55.384668,
            "velocity": 1
          },
          {
            "duration": 0.1388890208333322,
            "durationTicks": 130,
            "midi": 49,
            "name": "C#3",
            "ticks": 52080,
            "time": 55.6410785,
            "velocity": 1
          },
          {
            "duration": 0.14743603749999323,
            "durationTicks": 138,
            "midi": 52,
            "name": "E3",
            "ticks": 52320,
            "time": 55.897489,
            "velocity": 1
          },
          {
            "duration": 0.13675226666666873,
            "durationTicks": 128,
            "midi": 54,
            "name": "F#3",
            "ticks": 52560,
            "time": 56.153899499999994,
            "velocity": 1
          },
          {
            "duration": 0.14957279166667092,
            "durationTicks": 140,
            "midi": 52,
            "name": "E3",
            "ticks": 52800,
            "time": 56.410309999999996,
            "velocity": 1
          },
          {
            "duration": 0.13675226666666873,
            "durationTicks": 128,
            "midi": 49,
            "name": "C#3",
            "ticks": 53040,
            "time": 56.6667205,
            "velocity": 1
          },
          {
            "duration": 0.1634616937499942,
            "durationTicks": 153,
            "midi": 47,
            "name": "B2",
            "ticks": 53280,
            "time": 56.923131,
            "velocity": 1
          },
          {
            "duration": 0.14423090624999446,
            "durationTicks": 135,
            "midi": 49,
            "name": "C#3",
            "ticks": 53520,
            "time": 57.1795415,
            "velocity": 1
          },
          {
            "duration": 0.12606849583333002,
            "durationTicks": 118,
            "midi": 54,
            "name": "F#3",
            "ticks": 53760,
            "time": 57.435952,
            "velocity": 1
          },
          {
            "duration": 0.1282052500000006,
            "durationTicks": 120,
            "midi": 49,
            "name": "C#3",
            "ticks": 54000,
            "time": 57.692362499999994,
            "velocity": 1
          },
          {
            "duration": 0.1420941520833381,
            "durationTicks": 133,
            "midi": 52,
            "name": "E3",
            "ticks": 54240,
            "time": 57.948772999999996,
            "velocity": 1
          },
          {
            "duration": 0.12286336458333125,
            "durationTicks": 115,
            "midi": 54,
            "name": "F#3",
            "ticks": 54480,
            "time": 58.2051835,
            "velocity": 1
          },
          {
            "duration": 0.15811980833333195,
            "durationTicks": 148,
            "midi": 52,
            "name": "E3",
            "ticks": 54720,
            "time": 58.461594,
            "velocity": 1
          },
          {
            "duration": 0.14423090624999446,
            "durationTicks": 135,
            "midi": 49,
            "name": "C#3",
            "ticks": 54960,
            "time": 58.7180045,
            "velocity": 1
          },
          {
            "duration": 0.17414546458334001,
            "durationTicks": 163,
            "midi": 47,
            "name": "B2",
            "ticks": 55200,
            "time": 58.97441499999999,
            "velocity": 1
          },
          {
            "duration": 0.13675226666666873,
            "durationTicks": 128,
            "midi": 49,
            "name": "C#3",
            "ticks": 55440,
            "time": 59.230825499999995,
            "velocity": 1
          },
          {
            "duration": 0.13354713541666996,
            "durationTicks": 125,
            "midi": 54,
            "name": "F#3",
            "ticks": 55680,
            "time": 59.487235999999996,
            "velocity": 1
          },
          {
            "duration": 0.1388890208333322,
            "durationTicks": 130,
            "midi": 49,
            "name": "C#3",
            "ticks": 55920,
            "time": 59.7436465,
            "velocity": 1
          },
          {
            "duration": 0.14743603749999323,
            "durationTicks": 138,
            "midi": 52,
            "name": "E3",
            "ticks": 56160,
            "time": 60.000057,
            "velocity": 1
          },
          {
            "duration": 0.13675226666666163,
            "durationTicks": 128,
            "midi": 54,
            "name": "F#3",
            "ticks": 56400,
            "time": 60.2564675,
            "velocity": 1
          },
          {
            "duration": 0.14957279166667092,
            "durationTicks": 140,
            "midi": 52,
            "name": "E3",
            "ticks": 56640,
            "time": 60.51287799999999,
            "velocity": 1
          },
          {
            "duration": 0.13675226666666873,
            "durationTicks": 128,
            "midi": 49,
            "name": "C#3",
            "ticks": 56880,
            "time": 60.769288499999995,
            "velocity": 1
          },
          {
            "duration": 0.1634616937499942,
            "durationTicks": 153,
            "midi": 47,
            "name": "B2",
            "ticks": 57120,
            "time": 61.025698999999996,
            "velocity": 1
          },
          {
            "duration": 0.14423090625000157,
            "durationTicks": 135,
            "midi": 49,
            "name": "C#3",
            "ticks": 57360,
            "time": 61.2821095,
            "velocity": 1
          },
          {
            "duration": 0.12606849583333002,
            "durationTicks": 118,
            "midi": 54,
            "name": "F#3",
            "ticks": 57600,
            "time": 61.53852,
            "velocity": 1
          },
          {
            "duration": 0.1282052499999935,
            "durationTicks": 120,
            "midi": 49,
            "name": "C#3",
            "ticks": 57840,
            "time": 61.7949305,
            "velocity": 1
          },
          {
            "duration": 0.1420941520833381,
            "durationTicks": 133,
            "midi": 52,
            "name": "E3",
            "ticks": 58080,
            "time": 62.051340999999994,
            "velocity": 1
          },
          {
            "duration": 0.12286336458333125,
            "durationTicks": 115,
            "midi": 54,
            "name": "F#3",
            "ticks": 58320,
            "time": 62.307751499999995,
            "velocity": 1
          },
          {
            "duration": 0.15811980833333905,
            "durationTicks": 148,
            "midi": 52,
            "name": "E3",
            "ticks": 58560,
            "time": 62.564161999999996,
            "velocity": 1
          },
          {
            "duration": 0.14423090625000157,
            "durationTicks": 135,
            "midi": 49,
            "name": "C#3",
            "ticks": 58800,
            "time": 62.8205725,
            "velocity": 1
          },
          {
            "duration": 0.1741454645833329,
            "durationTicks": 163,
            "midi": 47,
            "name": "B2",
            "ticks": 59040,
            "time": 63.076983,
            "velocity": 1
          },
          {
            "duration": 0.13675226666666163,
            "durationTicks": 128,
            "midi": 49,
            "name": "C#3",
            "ticks": 59280,
            "time": 63.3333935,
            "velocity": 1
          },
          {
            "duration": 0.1282052500000006,
            "durationTicks": 120,
            "midi": 59,
            "name": "B3",
            "ticks": 59520,
            "time": 63.589803999999994,
            "velocity": 1
          },
          {
            "duration": 0.0940171833333352,
            "durationTicks": 88,
            "midi": 54,
            "name": "F#3",
            "ticks": 59760,
            "time": 63.846214499999995,
            "velocity": 1
          },
          {
            "duration": 0.138889020833318,
            "durationTicks": 130,
            "midi": 57,
            "name": "A3",
            "ticks": 60000,
            "time": 64.102625,
            "velocity": 1
          },
          {
            "duration": 0.1869659895833422,
            "durationTicks": 175,
            "midi": 59,
            "name": "B3",
            "ticks": 60240,
            "time": 64.35903549999999,
            "velocity": 1
          },
          {
            "duration": 0.14957279166667092,
            "durationTicks": 140,
            "midi": 54,
            "name": "F#3",
            "ticks": 60720,
            "time": 64.87185649999999,
            "velocity": 1
          },
          {
            "duration": 0.16025656249999543,
            "durationTicks": 150,
            "midi": 52,
            "name": "E3",
            "ticks": 60960,
            "time": 65.128267,
            "velocity": 1
          },
          {
            "duration": 0.1388890208333322,
            "durationTicks": 130,
            "midi": 54,
            "name": "F#3",
            "ticks": 61200,
            "time": 65.3846775,
            "velocity": 1
          },
          {
            "duration": 0.13141038124999227,
            "durationTicks": 123,
            "midi": 59,
            "name": "B3",
            "ticks": 61440,
            "time": 65.641088,
            "velocity": 1
          },
          {
            "duration": 0.13354713541666285,
            "durationTicks": 125,
            "midi": 54,
            "name": "F#3",
            "ticks": 61680,
            "time": 65.8974985,
            "velocity": 1
          },
          {
            "duration": 0.1527779229166697,
            "durationTicks": 143,
            "midi": 57,
            "name": "A3",
            "ticks": 61920,
            "time": 66.153909,
            "velocity": 1
          },
          {
            "duration": 0.18162410416665864,
            "durationTicks": 170,
            "midi": 59,
            "name": "B3",
            "ticks": 62160,
            "time": 66.4103195,
            "velocity": 1
          },
          {
            "duration": 0.16880357916666355,
            "durationTicks": 158,
            "midi": 54,
            "name": "F#3",
            "ticks": 62640,
            "time": 66.9231405,
            "velocity": 1
          },
          {
            "duration": 0.16025656250000964,
            "durationTicks": 150,
            "midi": 52,
            "name": "E3",
            "ticks": 62880,
            "time": 67.17955099999999,
            "velocity": 1
          },
          {
            "duration": 0.16880357916667776,
            "durationTicks": 158,
            "midi": 49,
            "name": "C#3",
            "ticks": 63120,
            "time": 67.43596149999999,
            "velocity": 1
          },
          {
            "duration": 0.13354713541666285,
            "durationTicks": 125,
            "midi": 54,
            "name": "F#3",
            "ticks": 63360,
            "time": 67.69237199999999,
            "velocity": 1
          },
          {
            "duration": 0.13888902083334642,
            "durationTicks": 130,
            "midi": 49,
            "name": "C#3",
            "ticks": 63600,
            "time": 67.9487825,
            "velocity": 1
          },
          {
            "duration": 0.14743603750000034,
            "durationTicks": 138,
            "midi": 52,
            "name": "E3",
            "ticks": 63840,
            "time": 68.205193,
            "velocity": 1
          },
          {
            "duration": 0.13675226666667584,
            "durationTicks": 128,
            "midi": 54,
            "name": "F#3",
            "ticks": 64080,
            "time": 68.4616035,
            "velocity": 1
          },
          {
            "duration": 0.1495727916666567,
            "durationTicks": 140,
            "midi": 52,
            "name": "E3",
            "ticks": 64320,
            "time": 68.718014,
            "velocity": 1
          },
          {
            "duration": 0.13675226666667584,
            "durationTicks": 128,
            "midi": 49,
            "name": "C#3",
            "ticks": 64560,
            "time": 68.9744245,
            "velocity": 1
          },
          {
            "duration": 0.1634616937499942,
            "durationTicks": 153,
            "midi": 47,
            "name": "B2",
            "ticks": 64800,
            "time": 69.230835,
            "velocity": 1
          },
          {
            "duration": 0.14423090625000157,
            "durationTicks": 135,
            "midi": 49,
            "name": "C#3",
            "ticks": 65040,
            "time": 69.4872455,
            "velocity": 1
          },
          {
            "duration": 0.1260684958333229,
            "durationTicks": 118,
            "midi": 54,
            "name": "F#3",
            "ticks": 65280,
            "time": 69.743656,
            "velocity": 1
          },
          {
            "duration": 0.1282052499999935,
            "durationTicks": 120,
            "midi": 49,
            "name": "C#3",
            "ticks": 65520,
            "time": 70.0000665,
            "velocity": 1
          },
          {
            "duration": 0.1420941520833452,
            "durationTicks": 133,
            "midi": 52,
            "name": "E3",
            "ticks": 65760,
            "time": 70.25647699999999,
            "velocity": 1
          },
          {
            "duration": 0.12286336458333835,
            "durationTicks": 115,
            "midi": 54,
            "name": "F#3",
            "ticks": 66000,
            "time": 70.51288749999999,
            "velocity": 1
          },
          {
            "duration": 0.15811980833333905,
            "durationTicks": 148,
            "midi": 52,
            "name": "E3",
            "ticks": 66240,
            "time": 70.76929799999999,
            "velocity": 1
          },
          {
            "duration": 0.14423090625000157,
            "durationTicks": 135,
            "midi": 49,
            "name": "C#3",
            "ticks": 66480,
            "time": 71.0257085,
            "velocity": 1
          },
          {
            "duration": 0.1741454645833329,
            "durationTicks": 163,
            "midi": 47,
            "name": "B2",
            "ticks": 66720,
            "time": 71.282119,
            "velocity": 1
          },
          {
            "duration": 0.10470095416667391,
            "durationTicks": 98,
            "midi": 49,
            "name": "C#3",
            "ticks": 66960,
            "time": 71.5385295,
            "velocity": 1
          },
          {
            "duration": 0.8173084687499994,
            "durationTicks": 765,
            "midi": 50,
            "name": "D3",
            "ticks": 67200,
            "time": 71.79494,
            "velocity": 1
          },
          {
            "duration": 0.11538472499999841,
            "durationTicks": 108,
            "midi": 50,
            "name": "D3",
            "ticks": 68040,
            "time": 72.69237675,
            "velocity": 1
          },
          {
            "duration": 0.6709408083333273,
            "durationTicks": 628,
            "midi": 50,
            "name": "D3",
            "ticks": 68160,
            "time": 72.820582,
            "velocity": 1
          },
          {
            "duration": 0.26495751666668355,
            "durationTicks": 248,
            "midi": 50,
            "name": "D3",
            "ticks": 68880,
            "time": 73.58981349999999,
            "velocity": 1
          },
          {
            "duration": 0.7831204020833411,
            "durationTicks": 733,
            "midi": 54,
            "name": "F#3",
            "ticks": 69120,
            "time": 73.84622399999999,
            "velocity": 1
          },
          {
            "duration": 0.1068377083333445,
            "durationTicks": 100,
            "midi": 42,
            "name": "F#2",
            "ticks": 69960,
            "time": 74.74366074999999,
            "velocity": 1
          },
          {
            "duration": 0.5427355583333338,
            "durationTicks": 508,
            "midi": 42,
            "name": "F#2",
            "ticks": 70080,
            "time": 74.871866,
            "velocity": 1
          },
          {
            "duration": 0.235042958333338,
            "durationTicks": 220,
            "midi": 47,
            "name": "B2",
            "ticks": 70800,
            "time": 75.6410975,
            "velocity": 1
          },
          {
            "duration": 0.7745733854166588,
            "durationTicks": 725,
            "midi": 50,
            "name": "D3",
            "ticks": 71040,
            "time": 75.897508,
            "velocity": 1
          },
          {
            "duration": 0.1282052499999935,
            "durationTicks": 120,
            "midi": 50,
            "name": "D3",
            "ticks": 71880,
            "time": 76.79494475,
            "velocity": 1
          },
          {
            "duration": 0.694445104166661,
            "durationTicks": 650,
            "midi": 50,
            "name": "D3",
            "ticks": 72000,
            "time": 76.92314999999999,
            "velocity": 1
          },
          {
            "duration": 0.2542737458333306,
            "durationTicks": 238,
            "midi": 50,
            "name": "D3",
            "ticks": 72720,
            "time": 77.6923815,
            "velocity": 1
          },
          {
            "duration": 0.7959409270833362,
            "durationTicks": 745,
            "midi": 54,
            "name": "F#3",
            "ticks": 72960,
            "time": 77.948792,
            "velocity": 1
          },
          {
            "duration": 0.09935906875000455,
            "durationTicks": 93,
            "midi": 42,
            "name": "F#2",
            "ticks": 73800,
            "time": 78.84622875,
            "velocity": 1
          },
          {
            "duration": 0.7350434333333311,
            "durationTicks": 688,
            "midi": 42,
            "name": "F#2",
            "ticks": 73920,
            "time": 78.974434,
            "velocity": 1
          },
          {
            "duration": 0.24358997500000612,
            "durationTicks": 228,
            "midi": 47,
            "name": "B2",
            "ticks": 74640,
            "time": 79.74366549999999,
            "velocity": 1
          },
          {
            "duration": 0.7617528604166779,
            "durationTicks": 713,
            "midi": 50,
            "name": "D3",
            "ticks": 74880,
            "time": 80.00007599999999,
            "velocity": 1
          },
          {
            "duration": 0.10149582291666093,
            "durationTicks": 95,
            "midi": 50,
            "name": "D3",
            "ticks": 75720,
            "time": 80.89751274999999,
            "velocity": 1
          },
          {
            "duration": 0.6196587083333327,
            "durationTicks": 580,
            "midi": 50,
            "name": "D3",
            "ticks": 75840,
            "time": 81.025718,
            "velocity": 1
          },
          {
            "duration": 0.24893186041666127,
            "durationTicks": 233,
            "midi": 50,
            "name": "D3",
            "ticks": 76560,
            "time": 81.7949495,
            "velocity": 1
          },
          {
            "duration": 0.8012828125000055,
            "durationTicks": 750,
            "midi": 54,
            "name": "F#3",
            "ticks": 76800,
            "time": 82.05135999999999,
            "velocity": 1
          },
          {
            "duration": 0.11217959374999964,
            "durationTicks": 105,
            "midi": 42,
            "name": "F#2",
            "ticks": 77640,
            "time": 82.94879675,
            "velocity": 1
          },
          {
            "duration": 0.6410262499999959,
            "durationTicks": 600,
            "midi": 42,
            "name": "F#2",
            "ticks": 77760,
            "time": 83.077002,
            "velocity": 1
          },
          {
            "duration": 0.24893186041667548,
            "durationTicks": 233,
            "midi": 47,
            "name": "B2",
            "ticks": 78480,
            "time": 83.8462335,
            "velocity": 1
          },
          {
            "duration": 0.7457272041666698,
            "durationTicks": 698,
            "midi": 50,
            "name": "D3",
            "ticks": 78720,
            "time": 84.102644,
            "velocity": 1
          },
          {
            "duration": 0.1282052499999935,
            "durationTicks": 120,
            "midi": 50,
            "name": "D3",
            "ticks": 79560,
            "time": 85.00008075,
            "velocity": 1
          },
          {
            "duration": 0.41453030833334026,
            "durationTicks": 388,
            "midi": 50,
            "name": "D3",
            "ticks": 79680,
            "time": 85.12828599999999,
            "velocity": 1
          },
          {
            "duration": 0.24038484375000735,
            "durationTicks": 225,
            "midi": 50,
            "name": "D3",
            "ticks": 80160,
            "time": 85.64110699999999,
            "velocity": 1
          },
          {
            "duration": 0.22435918749999928,
            "durationTicks": 210,
            "midi": 45,
            "name": "A2",
            "ticks": 80400,
            "time": 85.89751749999999,
            "velocity": 1
          },
          {
            "duration": 0.1527779229166697,
            "durationTicks": 143,
            "midi": 49,
            "name": "C#3",
            "ticks": 80640,
            "time": 86.153928,
            "velocity": 1
          },
          {
            "duration": 0.2457267291666625,
            "durationTicks": 230,
            "midi": 49,
            "name": "C#3",
            "ticks": 80880,
            "time": 86.4103385,
            "velocity": 0.968503937007874
          },
          {
            "duration": 0.19551300624999612,
            "durationTicks": 183,
            "midi": 49,
            "name": "C#3",
            "ticks": 81120,
            "time": 86.666749,
            "velocity": 1
          },
          {
            "duration": 0.15811980833333905,
            "durationTicks": 148,
            "midi": 49,
            "name": "C#3",
            "ticks": 81360,
            "time": 86.9231595,
            "velocity": 1
          },
          {
            "duration": 0.19230787499999735,
            "durationTicks": 180,
            "midi": 49,
            "name": "C#3",
            "ticks": 81600,
            "time": 87.17957,
            "velocity": 1
          },
          {
            "duration": 0.19551300624999612,
            "durationTicks": 183,
            "midi": 49,
            "name": "C#3",
            "ticks": 81840,
            "time": 87.4359805,
            "velocity": 1
          },
          {
            "duration": 0.1388890208333322,
            "durationTicks": 130,
            "midi": 49,
            "name": "C#3",
            "ticks": 82080,
            "time": 87.692391,
            "velocity": 1
          },
          {
            "duration": 0.1153847249999842,
            "durationTicks": 108,
            "midi": 49,
            "name": "C#3",
            "ticks": 82320,
            "time": 87.9488015,
            "velocity": 1
          },
          {
            "duration": 0.13354713541666285,
            "durationTicks": 125,
            "midi": 54,
            "name": "F#3",
            "ticks": 82560,
            "time": 88.20521199999999,
            "velocity": 1
          },
          {
            "duration": 0.13888902083334642,
            "durationTicks": 130,
            "midi": 49,
            "name": "C#3",
            "ticks": 82800,
            "time": 88.46162249999999,
            "velocity": 1
          },
          {
            "duration": 0.14743603750000034,
            "durationTicks": 138,
            "midi": 52,
            "name": "E3",
            "ticks": 83040,
            "time": 88.71803299999999,
            "velocity": 1
          },
          {
            "duration": 0.13675226666667584,
            "durationTicks": 128,
            "midi": 54,
            "name": "F#3",
            "ticks": 83280,
            "time": 88.97444349999999,
            "velocity": 1
          },
          {
            "duration": 0.1495727916666567,
            "durationTicks": 140,
            "midi": 52,
            "name": "E3",
            "ticks": 83520,
            "time": 89.230854,
            "velocity": 1
          },
          {
            "duration": 0.13675226666667584,
            "durationTicks": 128,
            "midi": 49,
            "name": "C#3",
            "ticks": 83760,
            "time": 89.4872645,
            "velocity": 1
          },
          {
            "duration": 0.1634616937499942,
            "durationTicks": 153,
            "midi": 47,
            "name": "B2",
            "ticks": 84000,
            "time": 89.743675,
            "velocity": 1
          },
          {
            "duration": 0.14423090625000157,
            "durationTicks": 135,
            "midi": 49,
            "name": "C#3",
            "ticks": 84240,
            "time": 90.0000855,
            "velocity": 1
          },
          {
            "duration": 0.12606849583333712,
            "durationTicks": 118,
            "midi": 54,
            "name": "F#3",
            "ticks": 84480,
            "time": 90.256496,
            "velocity": 1
          },
          {
            "duration": 0.1282052499999935,
            "durationTicks": 120,
            "midi": 49,
            "name": "C#3",
            "ticks": 84720,
            "time": 90.5129065,
            "velocity": 1
          },
          {
            "duration": 0.14209415208333098,
            "durationTicks": 133,
            "midi": 52,
            "name": "E3",
            "ticks": 84960,
            "time": 90.769317,
            "velocity": 1
          },
          {
            "duration": 0.12286336458333835,
            "durationTicks": 115,
            "midi": 54,
            "name": "F#3",
            "ticks": 85200,
            "time": 91.02572749999999,
            "velocity": 1
          },
          {
            "duration": 0.15811980833333905,
            "durationTicks": 148,
            "midi": 52,
            "name": "E3",
            "ticks": 85440,
            "time": 91.28213799999999,
            "velocity": 1
          },
          {
            "duration": 0.14423090625000157,
            "durationTicks": 135,
            "midi": 49,
            "name": "C#3",
            "ticks": 85680,
            "time": 91.53854849999999,
            "velocity": 1
          },
          {
            "duration": 0.1741454645833329,
            "durationTicks": 163,
            "midi": 47,
            "name": "B2",
            "ticks": 85920,
            "time": 91.79495899999999,
            "velocity": 1
          },
          {
            "duration": 0.13675226666667584,
            "durationTicks": 128,
            "midi": 49,
            "name": "C#3",
            "ticks": 86160,
            "time": 92.05136949999999,
            "velocity": 1
          },
          {
            "duration": 0.13354713541666285,
            "durationTicks": 125,
            "midi": 54,
            "name": "F#3",
            "ticks": 86400,
            "time": 92.30778,
            "velocity": 1
          },
          {
            "duration": 0.1388890208333322,
            "durationTicks": 130,
            "midi": 49,
            "name": "C#3",
            "ticks": 86640,
            "time": 92.5641905,
            "velocity": 1
          },
          {
            "duration": 0.14743603750000034,
            "durationTicks": 138,
            "midi": 52,
            "name": "E3",
            "ticks": 86880,
            "time": 92.820601,
            "velocity": 1
          },
          {
            "duration": 0.13675226666667584,
            "durationTicks": 128,
            "midi": 54,
            "name": "F#3",
            "ticks": 87120,
            "time": 93.0770115,
            "velocity": 1
          },
          {
            "duration": 0.1495727916666567,
            "durationTicks": 140,
            "midi": 52,
            "name": "E3",
            "ticks": 87360,
            "time": 93.333422,
            "velocity": 1
          },
          {
            "duration": 0.13675226666666163,
            "durationTicks": 128,
            "midi": 49,
            "name": "C#3",
            "ticks": 87600,
            "time": 93.5898325,
            "velocity": 1
          },
          {
            "duration": 0.1634616937499942,
            "durationTicks": 153,
            "midi": 47,
            "name": "B2",
            "ticks": 87840,
            "time": 93.846243,
            "velocity": 1
          },
          {
            "duration": 0.14423090625000157,
            "durationTicks": 135,
            "midi": 49,
            "name": "C#3",
            "ticks": 88080,
            "time": 94.10265349999999,
            "velocity": 1
          },
          {
            "duration": 0.12606849583333712,
            "durationTicks": 118,
            "midi": 54,
            "name": "F#3",
            "ticks": 88320,
            "time": 94.35906399999999,
            "velocity": 1
          },
          {
            "duration": 0.1282052500000077,
            "durationTicks": 120,
            "midi": 49,
            "name": "C#3",
            "ticks": 88560,
            "time": 94.61547449999999,
            "velocity": 1
          },
          {
            "duration": 0.1420941520833452,
            "durationTicks": 133,
            "midi": 52,
            "name": "E3",
            "ticks": 88800,
            "time": 94.87188499999999,
            "velocity": 1
          },
          {
            "duration": 0.12286336458333835,
            "durationTicks": 115,
            "midi": 54,
            "name": "F#3",
            "ticks": 89040,
            "time": 95.1282955,
            "velocity": 1
          },
          {
            "duration": 0.15811980833333905,
            "durationTicks": 148,
            "midi": 52,
            "name": "E3",
            "ticks": 89280,
            "time": 95.384706,
            "velocity": 1
          },
          {
            "duration": 0.14423090625000157,
            "durationTicks": 135,
            "midi": 49,
            "name": "C#3",
            "ticks": 89520,
            "time": 95.6411165,
            "velocity": 1
          },
          {
            "duration": 0.1741454645833329,
            "durationTicks": 163,
            "midi": 47,
            "name": "B2",
            "ticks": 89760,
            "time": 95.897527,
            "velocity": 1
          },
          {
            "duration": 0.13675226666667584,
            "durationTicks": 128,
            "midi": 49,
            "name": "C#3",
            "ticks": 90000,
            "time": 96.1539375,
            "velocity": 1
          },
          {
            "duration": 0.1282052499999935,
            "durationTicks": 120,
            "midi": 59,
            "name": "B3",
            "ticks": 90240,
            "time": 96.410348,
            "velocity": 1
          },
          {
            "duration": 0.0940171833333352,
            "durationTicks": 88,
            "midi": 54,
            "name": "F#3",
            "ticks": 90480,
            "time": 96.6667585,
            "velocity": 1
          },
          {
            "duration": 0.1388890208333322,
            "durationTicks": 130,
            "midi": 57,
            "name": "A3",
            "ticks": 90720,
            "time": 96.923169,
            "velocity": 1
          },
          {
            "duration": 0.1869659895833422,
            "durationTicks": 175,
            "midi": 59,
            "name": "B3",
            "ticks": 90960,
            "time": 97.17957949999999,
            "velocity": 1
          },
          {
            "duration": 0.14957279166667092,
            "durationTicks": 140,
            "midi": 54,
            "name": "F#3",
            "ticks": 91440,
            "time": 97.69240049999999,
            "velocity": 1
          },
          {
            "duration": 0.16025656249999543,
            "durationTicks": 150,
            "midi": 52,
            "name": "E3",
            "ticks": 91680,
            "time": 97.94881099999999,
            "velocity": 1
          },
          {
            "duration": 0.13888902083334642,
            "durationTicks": 130,
            "midi": 54,
            "name": "F#3",
            "ticks": 91920,
            "time": 98.2052215,
            "velocity": 1
          },
          {
            "duration": 0.13141038124999227,
            "durationTicks": 123,
            "midi": 59,
            "name": "B3",
            "ticks": 92160,
            "time": 98.461632,
            "velocity": 1
          },
          {
            "duration": 0.13354713541666285,
            "durationTicks": 125,
            "midi": 54,
            "name": "F#3",
            "ticks": 92400,
            "time": 98.7180425,
            "velocity": 1
          },
          {
            "duration": 0.1527779229166697,
            "durationTicks": 143,
            "midi": 57,
            "name": "A3",
            "ticks": 92640,
            "time": 98.974453,
            "velocity": 1
          },
          {
            "duration": 0.18162410416665864,
            "durationTicks": 170,
            "midi": 59,
            "name": "B3",
            "ticks": 92880,
            "time": 99.2308635,
            "velocity": 1
          },
          {
            "duration": 0.16880357916666355,
            "durationTicks": 158,
            "midi": 54,
            "name": "F#3",
            "ticks": 93360,
            "time": 99.7436845,
            "velocity": 1
          },
          {
            "duration": 0.16025656250000964,
            "durationTicks": 150,
            "midi": 52,
            "name": "E3",
            "ticks": 93600,
            "time": 100.00009499999999,
            "velocity": 1
          },
          {
            "duration": 0.16880357916667776,
            "durationTicks": 158,
            "midi": 49,
            "name": "C#3",
            "ticks": 93840,
            "time": 100.25650549999999,
            "velocity": 1
          },
          {
            "duration": 0.13354713541666285,
            "durationTicks": 125,
            "midi": 54,
            "name": "F#3",
            "ticks": 94080,
            "time": 100.51291599999999,
            "velocity": 1
          },
          {
            "duration": 0.13888902083334642,
            "durationTicks": 130,
            "midi": 49,
            "name": "C#3",
            "ticks": 94320,
            "time": 100.76932649999999,
            "velocity": 1
          },
          {
            "duration": 0.14743603750000034,
            "durationTicks": 138,
            "midi": 52,
            "name": "E3",
            "ticks": 94560,
            "time": 101.02573699999999,
            "velocity": 1
          },
          {
            "duration": 0.13675226666667584,
            "durationTicks": 128,
            "midi": 54,
            "name": "F#3",
            "ticks": 94800,
            "time": 101.2821475,
            "velocity": 1
          },
          {
            "duration": 0.1495727916666567,
            "durationTicks": 140,
            "midi": 52,
            "name": "E3",
            "ticks": 95040,
            "time": 101.538558,
            "velocity": 1
          },
          {
            "duration": 0.13675226666667584,
            "durationTicks": 128,
            "midi": 49,
            "name": "C#3",
            "ticks": 95280,
            "time": 101.7949685,
            "velocity": 1
          },
          {
            "duration": 0.1634616937499942,
            "durationTicks": 153,
            "midi": 47,
            "name": "B2",
            "ticks": 95520,
            "time": 102.051379,
            "velocity": 1
          },
          {
            "duration": 0.14423090625000157,
            "durationTicks": 135,
            "midi": 49,
            "name": "C#3",
            "ticks": 95760,
            "time": 102.3077895,
            "velocity": 1
          },
          {
            "duration": 0.1260684958333229,
            "durationTicks": 118,
            "midi": 54,
            "name": "F#3",
            "ticks": 96000,
            "time": 102.5642,
            "velocity": 1
          },
          {
            "duration": 0.1282052499999935,
            "durationTicks": 120,
            "midi": 49,
            "name": "C#3",
            "ticks": 96240,
            "time": 102.8206105,
            "velocity": 1
          },
          {
            "duration": 0.1420941520833452,
            "durationTicks": 133,
            "midi": 52,
            "name": "E3",
            "ticks": 96480,
            "time": 103.07702099999999,
            "velocity": 1
          },
          {
            "duration": 0.12286336458333835,
            "durationTicks": 115,
            "midi": 54,
            "name": "F#3",
            "ticks": 96720,
            "time": 103.33343149999999,
            "velocity": 1
          },
          {
            "duration": 0.15811980833333905,
            "durationTicks": 148,
            "midi": 52,
            "name": "E3",
            "ticks": 96960,
            "time": 103.58984199999999,
            "velocity": 1
          },
          {
            "duration": 0.14423090625000157,
            "durationTicks": 135,
            "midi": 49,
            "name": "C#3",
            "ticks": 97200,
            "time": 103.84625249999999,
            "velocity": 1
          },
          {
            "duration": 0.1741454645833329,
            "durationTicks": 163,
            "midi": 47,
            "name": "B2",
            "ticks": 97440,
            "time": 104.10266299999999,
            "velocity": 1
          },
          {
            "duration": 0.13675226666667584,
            "durationTicks": 128,
            "midi": 49,
            "name": "C#3",
            "ticks": 97680,
            "time": 104.3590735,
            "velocity": 1
          },
          {
            "duration": 0.1282052499999935,
            "durationTicks": 120,
            "midi": 59,
            "name": "B3",
            "ticks": 97920,
            "time": 104.615484,
            "velocity": 1
          },
          {
            "duration": 0.0940171833333352,
            "durationTicks": 88,
            "midi": 54,
            "name": "F#3",
            "ticks": 98160,
            "time": 104.8718945,
            "velocity": 1
          },
          {
            "duration": 0.1388890208333322,
            "durationTicks": 130,
            "midi": 57,
            "name": "A3",
            "ticks": 98400,
            "time": 105.128305,
            "velocity": 1
          },
          {
            "duration": 0.186965989583328,
            "durationTicks": 175,
            "midi": 59,
            "name": "B3",
            "ticks": 98640,
            "time": 105.3847155,
            "velocity": 1
          },
          {
            "duration": 0.1495727916666567,
            "durationTicks": 140,
            "midi": 54,
            "name": "F#3",
            "ticks": 99120,
            "time": 105.8975365,
            "velocity": 1
          },
          {
            "duration": 0.16025656250000964,
            "durationTicks": 150,
            "midi": 52,
            "name": "E3",
            "ticks": 99360,
            "time": 106.15394699999999,
            "velocity": 1
          },
          {
            "duration": 0.13888902083334642,
            "durationTicks": 130,
            "midi": 54,
            "name": "F#3",
            "ticks": 99600,
            "time": 106.41035749999999,
            "velocity": 1
          },
          {
            "duration": 0.13141038125000648,
            "durationTicks": 123,
            "midi": 59,
            "name": "B3",
            "ticks": 99840,
            "time": 106.66676799999999,
            "velocity": 1
          },
          {
            "duration": 0.13354713541666285,
            "durationTicks": 125,
            "midi": 54,
            "name": "F#3",
            "ticks": 100080,
            "time": 106.92317849999999,
            "velocity": 1
          },
          {
            "duration": 0.1527779229166697,
            "durationTicks": 143,
            "midi": 57,
            "name": "A3",
            "ticks": 100320,
            "time": 107.17958899999999,
            "velocity": 1
          },
          {
            "duration": 0.18162410416665864,
            "durationTicks": 170,
            "midi": 59,
            "name": "B3",
            "ticks": 100560,
            "time": 107.4359995,
            "velocity": 1
          },
          {
            "duration": 0.16880357916667776,
            "durationTicks": 158,
            "midi": 54,
            "name": "F#3",
            "ticks": 101040,
            "time": 107.9488205,
            "velocity": 1
          },
          {
            "duration": 0.16025656249999543,
            "durationTicks": 150,
            "midi": 52,
            "name": "E3",
            "ticks": 101280,
            "time": 108.205231,
            "velocity": 1
          },
          {
            "duration": 0.16880357916666355,
            "durationTicks": 158,
            "midi": 49,
            "name": "C#3",
            "ticks": 101520,
            "time": 108.4616415,
            "velocity": 1
          },
          {
            "duration": 0.13354713541664864,
            "durationTicks": 125,
            "midi": 54,
            "name": "F#3",
            "ticks": 101760,
            "time": 108.718052,
            "velocity": 1
          },
          {
            "duration": 0.13888902083334642,
            "durationTicks": 130,
            "midi": 49,
            "name": "C#3",
            "ticks": 102000,
            "time": 108.97446249999999,
            "velocity": 1
          },
          {
            "duration": 0.14743603750000034,
            "durationTicks": 138,
            "midi": 52,
            "name": "E3",
            "ticks": 102240,
            "time": 109.23087299999999,
            "velocity": 1
          },
          {
            "duration": 0.13675226666667584,
            "durationTicks": 128,
            "midi": 54,
            "name": "F#3",
            "ticks": 102480,
            "time": 109.48728349999999,
            "velocity": 1
          },
          {
            "duration": 0.14957279166667092,
            "durationTicks": 140,
            "midi": 52,
            "name": "E3",
            "ticks": 102720,
            "time": 109.74369399999999,
            "velocity": 1
          },
          {
            "duration": 0.13675226666667584,
            "durationTicks": 128,
            "midi": 49,
            "name": "C#3",
            "ticks": 102960,
            "time": 110.00010449999999,
            "velocity": 1
          },
          {
            "duration": 0.1634616937499942,
            "durationTicks": 153,
            "midi": 47,
            "name": "B2",
            "ticks": 103200,
            "time": 110.256515,
            "velocity": 1
          },
          {
            "duration": 0.14423090625000157,
            "durationTicks": 135,
            "midi": 49,
            "name": "C#3",
            "ticks": 103440,
            "time": 110.5129255,
            "velocity": 1
          },
          {
            "duration": 0.12606849583333712,
            "durationTicks": 118,
            "midi": 54,
            "name": "F#3",
            "ticks": 103680,
            "time": 110.769336,
            "velocity": 1
          },
          {
            "duration": 0.1282052499999935,
            "durationTicks": 120,
            "midi": 49,
            "name": "C#3",
            "ticks": 103920,
            "time": 111.0257465,
            "velocity": 1
          },
          {
            "duration": 0.14209415208333098,
            "durationTicks": 133,
            "midi": 52,
            "name": "E3",
            "ticks": 104160,
            "time": 111.282157,
            "velocity": 1
          },
          {
            "duration": 0.12286336458333835,
            "durationTicks": 115,
            "midi": 54,
            "name": "F#3",
            "ticks": 104400,
            "time": 111.5385675,
            "velocity": 1
          },
          {
            "duration": 0.15811980833332484,
            "durationTicks": 148,
            "midi": 52,
            "name": "E3",
            "ticks": 104640,
            "time": 111.794978,
            "velocity": 1
          },
          {
            "duration": 0.14423090625000157,
            "durationTicks": 135,
            "midi": 49,
            "name": "C#3",
            "ticks": 104880,
            "time": 112.05138849999999,
            "velocity": 1
          },
          {
            "duration": 0.17414546458334712,
            "durationTicks": 163,
            "midi": 47,
            "name": "B2",
            "ticks": 105120,
            "time": 112.30779899999999,
            "velocity": 1
          },
          {
            "duration": 0.13675226666667584,
            "durationTicks": 128,
            "midi": 49,
            "name": "C#3",
            "ticks": 105360,
            "time": 112.56420949999999,
            "velocity": 1
          },
          {
            "duration": 0.12606849583333712,
            "durationTicks": 118,
            "midi": 54,
            "name": "F#3",
            "ticks": 105600,
            "time": 112.82061999999999,
            "velocity": 1
          },
          {
            "duration": 0.1282052500000077,
            "durationTicks": 120,
            "midi": 49,
            "name": "C#3",
            "ticks": 105840,
            "time": 113.07703049999999,
            "velocity": 1
          },
          {
            "duration": 0.14209415208333098,
            "durationTicks": 133,
            "midi": 52,
            "name": "E3",
            "ticks": 106080,
            "time": 113.333441,
            "velocity": 1
          },
          {
            "duration": 0.12286336458333835,
            "durationTicks": 115,
            "midi": 54,
            "name": "F#3",
            "ticks": 106320,
            "time": 113.5898515,
            "velocity": 1
          },
          {
            "duration": 0.15811980833333905,
            "durationTicks": 148,
            "midi": 52,
            "name": "E3",
            "ticks": 106560,
            "time": 113.846262,
            "velocity": 1
          },
          {
            "duration": 0.14423090625000157,
            "durationTicks": 135,
            "midi": 49,
            "name": "C#3",
            "ticks": 106800,
            "time": 114.1026725,
            "velocity": 1
          },
          {
            "duration": 0.1741454645833329,
            "durationTicks": 163,
            "midi": 47,
            "name": "B2",
            "ticks": 107040,
            "time": 114.359083,
            "velocity": 1
          },
          {
            "duration": 0.13675226666666163,
            "durationTicks": 128,
            "midi": 49,
            "name": "C#3",
            "ticks": 107280,
            "time": 114.6154935,
            "velocity": 1
          },
          {
            "duration": 0.13354713541664864,
            "durationTicks": 125,
            "midi": 54,
            "name": "F#3",
            "ticks": 107520,
            "time": 114.871904,
            "velocity": 1
          },
          {
            "duration": 0.13888902083334642,
            "durationTicks": 130,
            "midi": 49,
            "name": "C#3",
            "ticks": 107760,
            "time": 115.12831449999999,
            "velocity": 1
          },
          {
            "duration": 0.14743603750000034,
            "durationTicks": 138,
            "midi": 52,
            "name": "E3",
            "ticks": 108000,
            "time": 115.38472499999999,
            "velocity": 1
          },
          {
            "duration": 0.13675226666667584,
            "durationTicks": 128,
            "midi": 54,
            "name": "F#3",
            "ticks": 108240,
            "time": 115.64113549999999,
            "velocity": 1
          },
          {
            "duration": 0.14957279166667092,
            "durationTicks": 140,
            "midi": 52,
            "name": "E3",
            "ticks": 108480,
            "time": 115.89754599999999,
            "velocity": 1
          },
          {
            "duration": 0.13675226666667584,
            "durationTicks": 128,
            "midi": 49,
            "name": "C#3",
            "ticks": 108720,
            "time": 116.15395649999999,
            "velocity": 1
          },
          {
            "duration": 0.1634616937499942,
            "durationTicks": 153,
            "midi": 47,
            "name": "B2",
            "ticks": 108960,
            "time": 116.410367,
            "velocity": 1
          },
          {
            "duration": 0.14423090625000157,
            "durationTicks": 135,
            "midi": 49,
            "name": "C#3",
            "ticks": 109200,
            "time": 116.6667775,
            "velocity": 1
          },
          {
            "duration": 0.12606849583333712,
            "durationTicks": 118,
            "midi": 54,
            "name": "F#3",
            "ticks": 109440,
            "time": 116.923188,
            "velocity": 1
          },
          {
            "duration": 0.1282052499999935,
            "durationTicks": 120,
            "midi": 49,
            "name": "C#3",
            "ticks": 109680,
            "time": 117.1795985,
            "velocity": 1
          },
          {
            "duration": 0.14209415208333098,
            "durationTicks": 133,
            "midi": 52,
            "name": "E3",
            "ticks": 109920,
            "time": 117.436009,
            "velocity": 1
          },
          {
            "duration": 0.12286336458333835,
            "durationTicks": 115,
            "midi": 54,
            "name": "F#3",
            "ticks": 110160,
            "time": 117.6924195,
            "velocity": 1
          },
          {
            "duration": 0.15811980833333905,
            "durationTicks": 148,
            "midi": 52,
            "name": "E3",
            "ticks": 110400,
            "time": 117.94882999999999,
            "velocity": 1
          },
          {
            "duration": 0.14423090625000157,
            "durationTicks": 135,
            "midi": 49,
            "name": "C#3",
            "ticks": 110640,
            "time": 118.20524049999999,
            "velocity": 1
          },
          {
            "duration": 0.1741454645833329,
            "durationTicks": 163,
            "midi": 47,
            "name": "B2",
            "ticks": 110880,
            "time": 118.46165099999999,
            "velocity": 1
          },
          {
            "duration": 0.13675226666667584,
            "durationTicks": 128,
            "midi": 49,
            "name": "C#3",
            "ticks": 111120,
            "time": 118.71806149999999,
            "velocity": 1
          },
          {
            "duration": 0.13354713541666285,
            "durationTicks": 125,
            "midi": 54,
            "name": "F#3",
            "ticks": 111360,
            "time": 118.97447199999999,
            "velocity": 1
          },
          {
            "duration": 0.1388890208333322,
            "durationTicks": 130,
            "midi": 49,
            "name": "C#3",
            "ticks": 111600,
            "time": 119.23088249999999,
            "velocity": 1
          },
          {
            "duration": 0.14743603750000034,
            "durationTicks": 138,
            "midi": 52,
            "name": "E3",
            "ticks": 111840,
            "time": 119.487293,
            "velocity": 1
          },
          {
            "duration": 0.13675226666667584,
            "durationTicks": 128,
            "midi": 54,
            "name": "F#3",
            "ticks": 112080,
            "time": 119.7437035,
            "velocity": 1
          },
          {
            "duration": 0.1495727916666567,
            "durationTicks": 140,
            "midi": 52,
            "name": "E3",
            "ticks": 112320,
            "time": 120.000114,
            "velocity": 1
          },
          {
            "duration": 0.13675226666667584,
            "durationTicks": 128,
            "midi": 49,
            "name": "C#3",
            "ticks": 112560,
            "time": 120.2565245,
            "velocity": 1
          },
          {
            "duration": 0.1634616937499942,
            "durationTicks": 153,
            "midi": 47,
            "name": "B2",
            "ticks": 112800,
            "time": 120.512935,
            "velocity": 1
          },
          {
            "duration": 0.14423090624998736,
            "durationTicks": 135,
            "midi": 49,
            "name": "C#3",
            "ticks": 113040,
            "time": 120.7693455,
            "velocity": 1
          },
          {
            "duration": 0.1282052500000077,
            "durationTicks": 120,
            "midi": 59,
            "name": "B3",
            "ticks": 113280,
            "time": 121.02575599999999,
            "velocity": 1
          },
          {
            "duration": 0.0940171833333352,
            "durationTicks": 88,
            "midi": 54,
            "name": "F#3",
            "ticks": 113520,
            "time": 121.28216649999999,
            "velocity": 1
          },
          {
            "duration": 0.13888902083334642,
            "durationTicks": 130,
            "midi": 57,
            "name": "A3",
            "ticks": 113760,
            "time": 121.53857699999999,
            "velocity": 1
          },
          {
            "duration": 0.1869659895833422,
            "durationTicks": 175,
            "midi": 59,
            "name": "B3",
            "ticks": 114000,
            "time": 121.79498749999999,
            "velocity": 1
          },
          {
            "duration": 0.1495727916666567,
            "durationTicks": 140,
            "midi": 54,
            "name": "F#3",
            "ticks": 114480,
            "time": 122.3078085,
            "velocity": 1
          },
          {
            "duration": 0.16025656249999543,
            "durationTicks": 150,
            "midi": 52,
            "name": "E3",
            "ticks": 114720,
            "time": 122.564219,
            "velocity": 1
          },
          {
            "duration": 0.1388890208333322,
            "durationTicks": 130,
            "midi": 54,
            "name": "F#3",
            "ticks": 114960,
            "time": 122.8206295,
            "velocity": 1
          },
          {
            "duration": 0.13141038124999227,
            "durationTicks": 123,
            "midi": 59,
            "name": "B3",
            "ticks": 115200,
            "time": 123.07704,
            "velocity": 1
          },
          {
            "duration": 0.13354713541666285,
            "durationTicks": 125,
            "midi": 54,
            "name": "F#3",
            "ticks": 115440,
            "time": 123.3334505,
            "velocity": 1
          },
          {
            "duration": 0.1527779229166697,
            "durationTicks": 143,
            "midi": 57,
            "name": "A3",
            "ticks": 115680,
            "time": 123.589861,
            "velocity": 1
          },
          {
            "duration": 0.18162410416667285,
            "durationTicks": 170,
            "midi": 59,
            "name": "B3",
            "ticks": 115920,
            "time": 123.84627149999999,
            "velocity": 1
          },
          {
            "duration": 0.16880357916667776,
            "durationTicks": 158,
            "midi": 54,
            "name": "F#3",
            "ticks": 116400,
            "time": 124.35909249999999,
            "velocity": 1
          },
          {
            "duration": 0.16025656250000964,
            "durationTicks": 150,
            "midi": 52,
            "name": "E3",
            "ticks": 116640,
            "time": 124.61550299999999,
            "velocity": 1
          },
          {
            "duration": 0.16880357916667776,
            "durationTicks": 158,
            "midi": 49,
            "name": "C#3",
            "ticks": 116880,
            "time": 124.87191349999999,
            "velocity": 1
          },
          {
            "duration": 0.13354713541666285,
            "durationTicks": 125,
            "midi": 54,
            "name": "F#3",
            "ticks": 117120,
            "time": 125.12832399999999,
            "velocity": 1
          },
          {
            "duration": 0.1388890208333322,
            "durationTicks": 130,
            "midi": 49,
            "name": "C#3",
            "ticks": 117360,
            "time": 125.3847345,
            "velocity": 1
          },
          {
            "duration": 0.14743603750000034,
            "durationTicks": 138,
            "midi": 52,
            "name": "E3",
            "ticks": 117600,
            "time": 125.641145,
            "velocity": 1
          },
          {
            "duration": 0.13675226666667584,
            "durationTicks": 128,
            "midi": 54,
            "name": "F#3",
            "ticks": 117840,
            "time": 125.8975555,
            "velocity": 1
          },
          {
            "duration": 0.1495727916666567,
            "durationTicks": 140,
            "midi": 52,
            "name": "E3",
            "ticks": 118080,
            "time": 126.153966,
            "velocity": 1
          },
          {
            "duration": 0.13675226666666163,
            "durationTicks": 128,
            "midi": 49,
            "name": "C#3",
            "ticks": 118320,
            "time": 126.4103765,
            "velocity": 1
          },
          {
            "duration": 0.1634616937499942,
            "durationTicks": 153,
            "midi": 47,
            "name": "B2",
            "ticks": 118560,
            "time": 126.666787,
            "velocity": 1
          },
          {
            "duration": 0.14423090625000157,
            "durationTicks": 135,
            "midi": 49,
            "name": "C#3",
            "ticks": 118800,
            "time": 126.92319749999999,
            "velocity": 1
          },
          {
            "duration": 0.12606849583333712,
            "durationTicks": 118,
            "midi": 54,
            "name": "F#3",
            "ticks": 119040,
            "time": 127.17960799999999,
            "velocity": 1
          },
          {
            "duration": 0.1282052500000077,
            "durationTicks": 120,
            "midi": 49,
            "name": "C#3",
            "ticks": 119280,
            "time": 127.43601849999999,
            "velocity": 1
          },
          {
            "duration": 0.1420941520833452,
            "durationTicks": 133,
            "midi": 52,
            "name": "E3",
            "ticks": 119520,
            "time": 127.69242899999999,
            "velocity": 1
          },
          {
            "duration": 0.12286336458333835,
            "durationTicks": 115,
            "midi": 54,
            "name": "F#3",
            "ticks": 119760,
            "time": 127.94883949999999,
            "velocity": 1
          },
          {
            "duration": 0.15811980833331063,
            "durationTicks": 148,
            "midi": 52,
            "name": "E3",
            "ticks": 120000,
            "time": 128.20525,
            "velocity": 1
          },
          {
            "duration": 0.14423090624998736,
            "durationTicks": 135,
            "midi": 49,
            "name": "C#3",
            "ticks": 120240,
            "time": 128.4616605,
            "velocity": 1
          },
          {
            "duration": 0.17414546458334712,
            "durationTicks": 163,
            "midi": 47,
            "name": "B2",
            "ticks": 120480,
            "time": 128.71807099999998,
            "velocity": 1
          },
          {
            "duration": 0.13675226666666163,
            "durationTicks": 128,
            "midi": 49,
            "name": "C#3",
            "ticks": 120720,
            "time": 128.9744815,
            "velocity": 1
          },
          {
            "duration": 0.1282052500000077,
            "durationTicks": 120,
            "midi": 59,
            "name": "B3",
            "ticks": 120960,
            "time": 129.23089199999998,
            "velocity": 1
          },
          {
            "duration": 0.0940171833333352,
            "durationTicks": 88,
            "midi": 54,
            "name": "F#3",
            "ticks": 121200,
            "time": 129.4873025,
            "velocity": 1
          },
          {
            "duration": 0.13888902083334642,
            "durationTicks": 130,
            "midi": 57,
            "name": "A3",
            "ticks": 121440,
            "time": 129.74371299999999,
            "velocity": 1
          },
          {
            "duration": 0.1869659895833422,
            "durationTicks": 175,
            "midi": 59,
            "name": "B3",
            "ticks": 121680,
            "time": 130.0001235,
            "velocity": 1
          },
          {
            "duration": 0.1495727916666567,
            "durationTicks": 140,
            "midi": 54,
            "name": "F#3",
            "ticks": 122160,
            "time": 130.5129445,
            "velocity": 1
          },
          {
            "duration": 0.16025656249999543,
            "durationTicks": 150,
            "midi": 52,
            "name": "E3",
            "ticks": 122400,
            "time": 130.769355,
            "velocity": 1
          },
          {
            "duration": 0.138889020833318,
            "durationTicks": 130,
            "midi": 54,
            "name": "F#3",
            "ticks": 122640,
            "time": 131.0257655,
            "velocity": 1
          },
          {
            "duration": 0.1314103812500207,
            "durationTicks": 123,
            "midi": 59,
            "name": "B3",
            "ticks": 122880,
            "time": 131.282176,
            "velocity": 1
          },
          {
            "duration": 0.13354713541667707,
            "durationTicks": 125,
            "midi": 54,
            "name": "F#3",
            "ticks": 123120,
            "time": 131.53858649999998,
            "velocity": 1
          },
          {
            "duration": 0.1527779229166697,
            "durationTicks": 143,
            "midi": 57,
            "name": "A3",
            "ticks": 123360,
            "time": 131.794997,
            "velocity": 1
          },
          {
            "duration": 0.18162410416667285,
            "durationTicks": 170,
            "midi": 59,
            "name": "B3",
            "ticks": 123600,
            "time": 132.05140749999998,
            "velocity": 1
          },
          {
            "duration": 0.16880357916667776,
            "durationTicks": 158,
            "midi": 54,
            "name": "F#3",
            "ticks": 124080,
            "time": 132.56422849999998,
            "velocity": 1
          },
          {
            "duration": 0.16025656249999543,
            "durationTicks": 150,
            "midi": 52,
            "name": "E3",
            "ticks": 124320,
            "time": 132.820639,
            "velocity": 1
          },
          {
            "duration": 0.16880357916667776,
            "durationTicks": 158,
            "midi": 49,
            "name": "C#3",
            "ticks": 124560,
            "time": 133.0770495,
            "velocity": 1
          },
          {
            "duration": 0.13354713541667707,
            "durationTicks": 125,
            "midi": 54,
            "name": "F#3",
            "ticks": 124800,
            "time": 133.33346,
            "velocity": 1
          },
          {
            "duration": 0.138889020833318,
            "durationTicks": 130,
            "midi": 49,
            "name": "C#3",
            "ticks": 125040,
            "time": 133.5898705,
            "velocity": 1
          },
          {
            "duration": 0.14743603750000034,
            "durationTicks": 138,
            "midi": 52,
            "name": "E3",
            "ticks": 125280,
            "time": 133.846281,
            "velocity": 1
          },
          {
            "duration": 0.13675226666666163,
            "durationTicks": 128,
            "midi": 54,
            "name": "F#3",
            "ticks": 125520,
            "time": 134.1026915,
            "velocity": 1
          },
          {
            "duration": 0.14957279166668513,
            "durationTicks": 140,
            "midi": 52,
            "name": "E3",
            "ticks": 125760,
            "time": 134.35910199999998,
            "velocity": 1
          },
          {
            "duration": 0.13675226666666163,
            "durationTicks": 128,
            "midi": 49,
            "name": "C#3",
            "ticks": 126000,
            "time": 134.6155125,
            "velocity": 1
          },
          {
            "duration": 0.16346169375003683,
            "durationTicks": 153,
            "midi": 47,
            "name": "B2",
            "ticks": 126240,
            "time": 134.87192299999998,
            "velocity": 1
          },
          {
            "duration": 0.14423090624998736,
            "durationTicks": 135,
            "midi": 49,
            "name": "C#3",
            "ticks": 126480,
            "time": 135.1283335,
            "velocity": 1
          },
          {
            "duration": 0.12606849583335134,
            "durationTicks": 118,
            "midi": 54,
            "name": "F#3",
            "ticks": 126720,
            "time": 135.38474399999998,
            "velocity": 1
          },
          {
            "duration": 0.1282052499999793,
            "durationTicks": 120,
            "midi": 49,
            "name": "C#3",
            "ticks": 126960,
            "time": 135.6411545,
            "velocity": 1
          },
          {
            "duration": 0.14209415208333098,
            "durationTicks": 133,
            "midi": 52,
            "name": "E3",
            "ticks": 127200,
            "time": 135.897565,
            "velocity": 1
          },
          {
            "duration": 0.12286336458330993,
            "durationTicks": 115,
            "midi": 54,
            "name": "F#3",
            "ticks": 127440,
            "time": 136.1539755,
            "velocity": 1
          },
          {
            "duration": 0.15811980833333905,
            "durationTicks": 148,
            "midi": 52,
            "name": "E3",
            "ticks": 127680,
            "time": 136.410386,
            "velocity": 1
          },
          {
            "duration": 0.14423090624998736,
            "durationTicks": 135,
            "midi": 49,
            "name": "C#3",
            "ticks": 127920,
            "time": 136.6667965,
            "velocity": 1
          },
          {
            "duration": 0.17414546458334712,
            "durationTicks": 163,
            "midi": 47,
            "name": "B2",
            "ticks": 128160,
            "time": 136.923207,
            "velocity": 1
          },
          {
            "duration": 0.1367522666666332,
            "durationTicks": 128,
            "midi": 49,
            "name": "C#3",
            "ticks": 128400,
            "time": 137.1796175,
            "velocity": 1
          },
          {
            "duration": 0.13354713541667707,
            "durationTicks": 125,
            "midi": 54,
            "name": "F#3",
            "ticks": 128640,
            "time": 137.436028,
            "velocity": 1
          },
          {
            "duration": 0.13888902083334642,
            "durationTicks": 130,
            "midi": 49,
            "name": "C#3",
            "ticks": 128880,
            "time": 137.69243849999998,
            "velocity": 1
          },
          {
            "duration": 0.14743603750000034,
            "durationTicks": 138,
            "midi": 52,
            "name": "E3",
            "ticks": 129120,
            "time": 137.948849,
            "velocity": 1
          },
          {
            "duration": 0.13675226666666163,
            "durationTicks": 128,
            "midi": 54,
            "name": "F#3",
            "ticks": 129360,
            "time": 138.20525949999998,
            "velocity": 1
          },
          {
            "duration": 0.1495727916666567,
            "durationTicks": 140,
            "midi": 52,
            "name": "E3",
            "ticks": 129600,
            "time": 138.46167,
            "velocity": 1
          },
          {
            "duration": 0.13675226666666163,
            "durationTicks": 128,
            "midi": 49,
            "name": "C#3",
            "ticks": 129840,
            "time": 138.71808049999999,
            "velocity": 1
          },
          {
            "duration": 0.1634616937500084,
            "durationTicks": 153,
            "midi": 47,
            "name": "B2",
            "ticks": 130080,
            "time": 138.974491,
            "velocity": 1
          },
          {
            "duration": 0.14423090625001578,
            "durationTicks": 135,
            "midi": 49,
            "name": "C#3",
            "ticks": 130320,
            "time": 139.2309015,
            "velocity": 1
          },
          {
            "duration": 0.1260684958333229,
            "durationTicks": 118,
            "midi": 54,
            "name": "F#3",
            "ticks": 130560,
            "time": 139.487312,
            "velocity": 1
          },
          {
            "duration": 0.1282052500000077,
            "durationTicks": 120,
            "midi": 49,
            "name": "C#3",
            "ticks": 130800,
            "time": 139.7437225,
            "velocity": 1
          },
          {
            "duration": 0.14209415208333098,
            "durationTicks": 133,
            "midi": 52,
            "name": "E3",
            "ticks": 131040,
            "time": 140.000133,
            "velocity": 1
          },
          {
            "duration": 0.12286336458330993,
            "durationTicks": 115,
            "midi": 54,
            "name": "F#3",
            "ticks": 131280,
            "time": 140.2565435,
            "velocity": 1
          },
          {
            "duration": 0.15811980833333905,
            "durationTicks": 148,
            "midi": 52,
            "name": "E3",
            "ticks": 131520,
            "time": 140.51295399999998,
            "velocity": 1
          },
          {
            "duration": 0.14423090624998736,
            "durationTicks": 135,
            "midi": 49,
            "name": "C#3",
            "ticks": 131760,
            "time": 140.7693645,
            "velocity": 1
          },
          {
            "duration": 0.17414546458334712,
            "durationTicks": 163,
            "midi": 47,
            "name": "B2",
            "ticks": 132000,
            "time": 141.02577499999998,
            "velocity": 1
          },
          {
            "duration": 0.13675226666666163,
            "durationTicks": 128,
            "midi": 49,
            "name": "C#3",
            "ticks": 132240,
            "time": 141.2821855,
            "velocity": 1
          },
          {
            "duration": 0.13354713541667707,
            "durationTicks": 125,
            "midi": 54,
            "name": "F#3",
            "ticks": 132480,
            "time": 141.53859599999998,
            "velocity": 1
          },
          {
            "duration": 0.138889020833318,
            "durationTicks": 130,
            "midi": 49,
            "name": "C#3",
            "ticks": 132720,
            "time": 141.7950065,
            "velocity": 1
          },
          {
            "duration": 0.14743603750002876,
            "durationTicks": 138,
            "midi": 52,
            "name": "E3",
            "ticks": 132960,
            "time": 142.051417,
            "velocity": 1
          },
          {
            "duration": 0.13675226666666163,
            "durationTicks": 128,
            "midi": 54,
            "name": "F#3",
            "ticks": 133200,
            "time": 142.3078275,
            "velocity": 1
          },
          {
            "duration": 0.14957279166668513,
            "durationTicks": 140,
            "midi": 52,
            "name": "E3",
            "ticks": 133440,
            "time": 142.564238,
            "velocity": 1
          },
          {
            "duration": 0.1367522666666332,
            "durationTicks": 128,
            "midi": 49,
            "name": "C#3",
            "ticks": 133680,
            "time": 142.8206485,
            "velocity": 1
          },
          {
            "duration": 0.1634616937500084,
            "durationTicks": 153,
            "midi": 47,
            "name": "B2",
            "ticks": 133920,
            "time": 143.077059,
            "velocity": 1
          },
          {
            "duration": 0.14423090625001578,
            "durationTicks": 135,
            "midi": 49,
            "name": "C#3",
            "ticks": 134160,
            "time": 143.33346949999998,
            "velocity": 1
          },
          {
            "duration": 0.1260684958333229,
            "durationTicks": 118,
            "midi": 54,
            "name": "F#3",
            "ticks": 134400,
            "time": 143.58988,
            "velocity": 1
          },
          {
            "duration": 0.1282052500000077,
            "durationTicks": 120,
            "midi": 49,
            "name": "C#3",
            "ticks": 134640,
            "time": 143.84629049999998,
            "velocity": 1
          },
          {
            "duration": 0.14209415208333098,
            "durationTicks": 133,
            "midi": 52,
            "name": "E3",
            "ticks": 134880,
            "time": 144.102701,
            "velocity": 1
          },
          {
            "duration": 0.12286336458333835,
            "durationTicks": 115,
            "midi": 54,
            "name": "F#3",
            "ticks": 135120,
            "time": 144.35911149999998,
            "velocity": 1
          },
          {
            "duration": 0.15811980833333905,
            "durationTicks": 148,
            "midi": 52,
            "name": "E3",
            "ticks": 135360,
            "time": 144.615522,
            "velocity": 1
          },
          {
            "duration": 0.14423090625001578,
            "durationTicks": 135,
            "midi": 49,
            "name": "C#3",
            "ticks": 135600,
            "time": 144.87193249999999,
            "velocity": 1
          },
          {
            "duration": 0.1741454645833187,
            "durationTicks": 163,
            "midi": 47,
            "name": "B2",
            "ticks": 135840,
            "time": 145.128343,
            "velocity": 1
          },
          {
            "duration": 0.13675226666666163,
            "durationTicks": 128,
            "midi": 49,
            "name": "C#3",
            "ticks": 136080,
            "time": 145.3847535,
            "velocity": 1
          },
          {
            "duration": 0.1282052499999793,
            "durationTicks": 120,
            "midi": 59,
            "name": "B3",
            "ticks": 136320,
            "time": 145.641164,
            "velocity": 1
          },
          {
            "duration": 0.0940171833333352,
            "durationTicks": 88,
            "midi": 54,
            "name": "F#3",
            "ticks": 136560,
            "time": 145.8975745,
            "velocity": 1
          },
          {
            "duration": 0.138889020833318,
            "durationTicks": 130,
            "midi": 57,
            "name": "A3",
            "ticks": 136800,
            "time": 146.153985,
            "velocity": 1
          },
          {
            "duration": 0.18696598958331379,
            "durationTicks": 175,
            "midi": 59,
            "name": "B3",
            "ticks": 137040,
            "time": 146.4103955,
            "velocity": 1
          },
          {
            "duration": 0.14957279166668513,
            "durationTicks": 140,
            "midi": 54,
            "name": "F#3",
            "ticks": 137520,
            "time": 146.9232165,
            "velocity": 1
          },
          {
            "duration": 0.16025656249999543,
            "durationTicks": 150,
            "midi": 52,
            "name": "E3",
            "ticks": 137760,
            "time": 147.17962699999998,
            "velocity": 1
          },
          {
            "duration": 0.138889020833318,
            "durationTicks": 130,
            "midi": 54,
            "name": "F#3",
            "ticks": 138000,
            "time": 147.4360375,
            "velocity": 1
          },
          {
            "duration": 0.1314103812500207,
            "durationTicks": 123,
            "midi": 59,
            "name": "B3",
            "ticks": 138240,
            "time": 147.69244799999998,
            "velocity": 1
          },
          {
            "duration": 0.13354713541667707,
            "durationTicks": 125,
            "midi": 54,
            "name": "F#3",
            "ticks": 138480,
            "time": 147.9488585,
            "velocity": 1
          },
          {
            "duration": 0.1527779229166697,
            "durationTicks": 143,
            "midi": 57,
            "name": "A3",
            "ticks": 138720,
            "time": 148.205269,
            "velocity": 1
          },
          {
            "duration": 0.18162410416667285,
            "durationTicks": 170,
            "midi": 59,
            "name": "B3",
            "ticks": 138960,
            "time": 148.4616795,
            "velocity": 1
          },
          {
            "duration": 0.16880357916664934,
            "durationTicks": 158,
            "midi": 54,
            "name": "F#3",
            "ticks": 139440,
            "time": 148.9745005,
            "velocity": 1
          },
          {
            "duration": 0.16025656249999543,
            "durationTicks": 150,
            "midi": 52,
            "name": "E3",
            "ticks": 139680,
            "time": 149.230911,
            "velocity": 1
          },
          {
            "duration": 0.16880357916667776,
            "durationTicks": 158,
            "midi": 49,
            "name": "C#3",
            "ticks": 139920,
            "time": 149.48732149999998,
            "velocity": 1
          },
          {
            "duration": 0.13354713541667707,
            "durationTicks": 125,
            "midi": 54,
            "name": "F#3",
            "ticks": 140160,
            "time": 149.743732,
            "velocity": 1
          },
          {
            "duration": 0.13888902083334642,
            "durationTicks": 130,
            "midi": 49,
            "name": "C#3",
            "ticks": 140400,
            "time": 150.00014249999998,
            "velocity": 1
          },
          {
            "duration": 0.14743603750000034,
            "durationTicks": 138,
            "midi": 52,
            "name": "E3",
            "ticks": 140640,
            "time": 150.256553,
            "velocity": 1
          },
          {
            "duration": 0.13675226666666163,
            "durationTicks": 128,
            "midi": 54,
            "name": "F#3",
            "ticks": 140880,
            "time": 150.51296349999998,
            "velocity": 1
          },
          {
            "duration": 0.1495727916666567,
            "durationTicks": 140,
            "midi": 52,
            "name": "E3",
            "ticks": 141120,
            "time": 150.769374,
            "velocity": 1
          },
          {
            "duration": 0.13675226666666163,
            "durationTicks": 128,
            "midi": 49,
            "name": "C#3",
            "ticks": 141360,
            "time": 151.0257845,
            "velocity": 1
          },
          {
            "duration": 0.1634616937500084,
            "durationTicks": 153,
            "midi": 47,
            "name": "B2",
            "ticks": 141600,
            "time": 151.282195,
            "velocity": 1
          },
          {
            "duration": 0.14423090625001578,
            "durationTicks": 135,
            "midi": 49,
            "name": "C#3",
            "ticks": 141840,
            "time": 151.5386055,
            "velocity": 1
          },
          {
            "duration": 0.1260684958333229,
            "durationTicks": 118,
            "midi": 54,
            "name": "F#3",
            "ticks": 142080,
            "time": 151.795016,
            "velocity": 1
          },
          {
            "duration": 0.1282052500000077,
            "durationTicks": 120,
            "midi": 49,
            "name": "C#3",
            "ticks": 142320,
            "time": 152.0514265,
            "velocity": 1
          },
          {
            "duration": 0.1420941520833594,
            "durationTicks": 133,
            "midi": 52,
            "name": "E3",
            "ticks": 142560,
            "time": 152.30783699999998,
            "velocity": 1
          },
          {
            "duration": 0.12286336458330993,
            "durationTicks": 115,
            "midi": 54,
            "name": "F#3",
            "ticks": 142800,
            "time": 152.5642475,
            "velocity": 1
          },
          {
            "duration": 0.15811980833333905,
            "durationTicks": 148,
            "midi": 52,
            "name": "E3",
            "ticks": 143040,
            "time": 152.82065799999998,
            "velocity": 1
          },
          {
            "duration": 0.14423090624998736,
            "durationTicks": 135,
            "midi": 49,
            "name": "C#3",
            "ticks": 143280,
            "time": 153.0770685,
            "velocity": 1
          },
          {
            "duration": 0.17414546458334712,
            "durationTicks": 163,
            "midi": 47,
            "name": "B2",
            "ticks": 143520,
            "time": 153.33347899999998,
            "velocity": 1
          },
          {
            "duration": 0.1260684958333229,
            "durationTicks": 118,
            "midi": 49,
            "name": "C#3",
            "ticks": 143760,
            "time": 153.5898895,
            "velocity": 1
          },
          {
            "duration": 0.8173084687500136,
            "durationTicks": 765,
            "midi": 50,
            "name": "D3",
            "ticks": 144000,
            "time": 153.84629999999999,
            "velocity": 1
          },
          {
            "duration": 0.11538472500001262,
            "durationTicks": 108,
            "midi": 50,
            "name": "D3",
            "ticks": 144840,
            "time": 154.74373674999998,
            "velocity": 1
          },
          {
            "duration": 0.6709408083333415,
            "durationTicks": 628,
            "midi": 50,
            "name": "D3",
            "ticks": 144960,
            "time": 154.871942,
            "velocity": 1
          },
          {
            "duration": 0.26495751666666933,
            "durationTicks": 248,
            "midi": 50,
            "name": "D3",
            "ticks": 145680,
            "time": 155.64117349999998,
            "velocity": 1
          },
          {
            "duration": 0.7831204020833411,
            "durationTicks": 733,
            "midi": 54,
            "name": "F#3",
            "ticks": 145920,
            "time": 155.897584,
            "velocity": 1
          },
          {
            "duration": 0.10683770833333028,
            "durationTicks": 100,
            "midi": 42,
            "name": "F#2",
            "ticks": 146760,
            "time": 156.79502075,
            "velocity": 1
          },
          {
            "duration": 0.5427355583333338,
            "durationTicks": 508,
            "midi": 42,
            "name": "F#2",
            "ticks": 146880,
            "time": 156.923226,
            "velocity": 1
          },
          {
            "duration": 0.235042958333338,
            "durationTicks": 220,
            "midi": 47,
            "name": "B2",
            "ticks": 147600,
            "time": 157.6924575,
            "velocity": 1
          },
          {
            "duration": 0.7745733854166588,
            "durationTicks": 725,
            "midi": 50,
            "name": "D3",
            "ticks": 147840,
            "time": 157.948868,
            "velocity": 1
          },
          {
            "duration": 0.1282052499999793,
            "durationTicks": 120,
            "midi": 50,
            "name": "D3",
            "ticks": 148680,
            "time": 158.84630475,
            "velocity": 1
          },
          {
            "duration": 0.6944451041666753,
            "durationTicks": 650,
            "midi": 50,
            "name": "D3",
            "ticks": 148800,
            "time": 158.97450999999998,
            "velocity": 1
          },
          {
            "duration": 0.2542737458333306,
            "durationTicks": 238,
            "midi": 50,
            "name": "D3",
            "ticks": 149520,
            "time": 159.7437415,
            "velocity": 1
          },
          {
            "duration": 0.7959409270833362,
            "durationTicks": 745,
            "midi": 54,
            "name": "F#3",
            "ticks": 149760,
            "time": 160.00015199999999,
            "velocity": 1
          },
          {
            "duration": 0.09935906875003298,
            "durationTicks": 93,
            "midi": 42,
            "name": "F#2",
            "ticks": 150600,
            "time": 160.89758874999998,
            "velocity": 1
          },
          {
            "duration": 0.7350434333333453,
            "durationTicks": 688,
            "midi": 42,
            "name": "F#2",
            "ticks": 150720,
            "time": 161.025794,
            "velocity": 1
          },
          {
            "duration": 0.24358997500002033,
            "durationTicks": 228,
            "midi": 47,
            "name": "B2",
            "ticks": 151440,
            "time": 161.79502549999998,
            "velocity": 1
          },
          {
            "duration": 0.7617528604166637,
            "durationTicks": 713,
            "midi": 50,
            "name": "D3",
            "ticks": 151680,
            "time": 162.051436,
            "velocity": 1
          },
          {
            "duration": 0.10149582291666093,
            "durationTicks": 95,
            "midi": 50,
            "name": "D3",
            "ticks": 152520,
            "time": 162.94887275,
            "velocity": 1
          },
          {
            "duration": 0.6196587083333043,
            "durationTicks": 580,
            "midi": 50,
            "name": "D3",
            "ticks": 152640,
            "time": 163.077078,
            "velocity": 1
          },
          {
            "duration": 0.24893186041666127,
            "durationTicks": 233,
            "midi": 50,
            "name": "D3",
            "ticks": 153360,
            "time": 163.8463095,
            "velocity": 1
          },
          {
            "duration": 0.8012828125000055,
            "durationTicks": 750,
            "midi": 54,
            "name": "F#3",
            "ticks": 153600,
            "time": 164.10271999999998,
            "velocity": 1
          },
          {
            "duration": 0.11217959374999964,
            "durationTicks": 105,
            "midi": 42,
            "name": "F#2",
            "ticks": 154440,
            "time": 165.00015675,
            "velocity": 1
          },
          {
            "duration": 0.6410262500000101,
            "durationTicks": 600,
            "midi": 42,
            "name": "F#2",
            "ticks": 154560,
            "time": 165.12836199999998,
            "velocity": 1
          },
          {
            "duration": 0.24893186041666127,
            "durationTicks": 233,
            "midi": 47,
            "name": "B2",
            "ticks": 155280,
            "time": 165.8975935,
            "velocity": 1
          },
          {
            "duration": 0.7457272041666556,
            "durationTicks": 698,
            "midi": 50,
            "name": "D3",
            "ticks": 155520,
            "time": 166.154004,
            "velocity": 1
          },
          {
            "duration": 0.1282052500000077,
            "durationTicks": 120,
            "midi": 50,
            "name": "D3",
            "ticks": 156360,
            "time": 167.05144074999998,
            "velocity": 1
          },
          {
            "duration": 0.41453030833332605,
            "durationTicks": 388,
            "midi": 50,
            "name": "D3",
            "ticks": 156480,
            "time": 167.179646,
            "velocity": 1
          },
          {
            "duration": 0.24038484375000735,
            "durationTicks": 225,
            "midi": 50,
            "name": "D3",
            "ticks": 156960,
            "time": 167.692467,
            "velocity": 1
          },
          {
            "duration": 0.22435918749999928,
            "durationTicks": 210,
            "midi": 45,
            "name": "A2",
            "ticks": 157200,
            "time": 167.94887749999998,
            "velocity": 1
          },
          {
            "duration": 0.15277792291664127,
            "durationTicks": 143,
            "midi": 49,
            "name": "C#3",
            "ticks": 157440,
            "time": 168.205288,
            "velocity": 1
          },
          {
            "duration": 0.2457267291666767,
            "durationTicks": 230,
            "midi": 49,
            "name": "C#3",
            "ticks": 157680,
            "time": 168.46169849999998,
            "velocity": 0.968503937007874
          },
          {
            "duration": 0.19551300624999612,
            "durationTicks": 183,
            "midi": 49,
            "name": "C#3",
            "ticks": 157920,
            "time": 168.718109,
            "velocity": 1
          },
          {
            "duration": 0.15811980833333905,
            "durationTicks": 148,
            "midi": 49,
            "name": "C#3",
            "ticks": 158160,
            "time": 168.97451949999999,
            "velocity": 1
          },
          {
            "duration": 0.19230787499998314,
            "durationTicks": 180,
            "midi": 49,
            "name": "C#3",
            "ticks": 158400,
            "time": 169.23093,
            "velocity": 1
          },
          {
            "duration": 0.19551300625002455,
            "durationTicks": 183,
            "midi": 49,
            "name": "C#3",
            "ticks": 158640,
            "time": 169.4873405,
            "velocity": 1
          },
          {
            "duration": 0.138889020833318,
            "durationTicks": 130,
            "midi": 49,
            "name": "C#3",
            "ticks": 158880,
            "time": 169.743751,
            "velocity": 1
          },
          {
            "duration": 0.1260684958333229,
            "durationTicks": 118,
            "midi": 49,
            "name": "C#3",
            "ticks": 159120,
            "time": 170.0001615,
            "velocity": 1
          },
          {
            "duration": 0.13354713541667707,
            "durationTicks": 125,
            "midi": 54,
            "name": "F#3",
            "ticks": 159360,
            "time": 170.25657199999998,
            "velocity": 1
          },
          {
            "duration": 0.138889020833318,
            "durationTicks": 130,
            "midi": 49,
            "name": "C#3",
            "ticks": 159600,
            "time": 170.5129825,
            "velocity": 1
          },
          {
            "duration": 0.14743603750002876,
            "durationTicks": 138,
            "midi": 52,
            "name": "E3",
            "ticks": 159840,
            "time": 170.76939299999998,
            "velocity": 1
          },
          {
            "duration": 0.13675226666666163,
            "durationTicks": 128,
            "midi": 54,
            "name": "F#3",
            "ticks": 160080,
            "time": 171.0258035,
            "velocity": 1
          },
          {
            "duration": 0.14957279166668513,
            "durationTicks": 140,
            "midi": 52,
            "name": "E3",
            "ticks": 160320,
            "time": 171.28221399999998,
            "velocity": 1
          },
          {
            "duration": 0.13675226666666163,
            "durationTicks": 128,
            "midi": 49,
            "name": "C#3",
            "ticks": 160560,
            "time": 171.5386245,
            "velocity": 1
          },
          {
            "duration": 0.1634616937500084,
            "durationTicks": 153,
            "midi": 47,
            "name": "B2",
            "ticks": 160800,
            "time": 171.79503499999998,
            "velocity": 1
          },
          {
            "duration": 0.14423090624998736,
            "durationTicks": 135,
            "midi": 49,
            "name": "C#3",
            "ticks": 161040,
            "time": 172.0514455,
            "velocity": 1
          },
          {
            "duration": 0.12606849583335134,
            "durationTicks": 118,
            "midi": 54,
            "name": "F#3",
            "ticks": 161280,
            "time": 172.307856,
            "velocity": 1
          },
          {
            "duration": 0.1282052499999793,
            "durationTicks": 120,
            "midi": 49,
            "name": "C#3",
            "ticks": 161520,
            "time": 172.5642665,
            "velocity": 1
          },
          {
            "duration": 0.14209415208333098,
            "durationTicks": 133,
            "midi": 52,
            "name": "E3",
            "ticks": 161760,
            "time": 172.820677,
            "velocity": 1
          },
          {
            "duration": 0.12286336458333835,
            "durationTicks": 115,
            "midi": 54,
            "name": "F#3",
            "ticks": 162000,
            "time": 173.07708749999998,
            "velocity": 1
          },
          {
            "duration": 0.15811980833333905,
            "durationTicks": 148,
            "midi": 52,
            "name": "E3",
            "ticks": 162240,
            "time": 173.333498,
            "velocity": 1
          },
          {
            "duration": 0.14423090625001578,
            "durationTicks": 135,
            "midi": 49,
            "name": "C#3",
            "ticks": 162480,
            "time": 173.58990849999998,
            "velocity": 1
          },
          {
            "duration": 0.1741454645833187,
            "durationTicks": 163,
            "midi": 47,
            "name": "B2",
            "ticks": 162720,
            "time": 173.846319,
            "velocity": 1
          },
          {
            "duration": 0.13675226666666163,
            "durationTicks": 128,
            "midi": 49,
            "name": "C#3",
            "ticks": 162960,
            "time": 174.10272949999998,
            "velocity": 1
          },
          {
            "duration": 0.13354713541667707,
            "durationTicks": 125,
            "midi": 54,
            "name": "F#3",
            "ticks": 163200,
            "time": 174.35914,
            "velocity": 1
          },
          {
            "duration": 0.138889020833318,
            "durationTicks": 130,
            "midi": 49,
            "name": "C#3",
            "ticks": 163440,
            "time": 174.61555049999998,
            "velocity": 1
          },
          {
            "duration": 0.14743603750000034,
            "durationTicks": 138,
            "midi": 52,
            "name": "E3",
            "ticks": 163680,
            "time": 174.871961,
            "velocity": 1
          },
          {
            "duration": 0.13675226666666163,
            "durationTicks": 128,
            "midi": 54,
            "name": "F#3",
            "ticks": 163920,
            "time": 175.1283715,
            "velocity": 1
          },
          {
            "duration": 0.1495727916666567,
            "durationTicks": 140,
            "midi": 52,
            "name": "E3",
            "ticks": 164160,
            "time": 175.384782,
            "velocity": 1
          },
          {
            "duration": 0.13675226666666163,
            "durationTicks": 128,
            "midi": 49,
            "name": "C#3",
            "ticks": 164400,
            "time": 175.6411925,
            "velocity": 1
          },
          {
            "duration": 0.1634616937500084,
            "durationTicks": 153,
            "midi": 47,
            "name": "B2",
            "ticks": 164640,
            "time": 175.897603,
            "velocity": 1
          },
          {
            "duration": 0.14423090624998736,
            "durationTicks": 135,
            "midi": 49,
            "name": "C#3",
            "ticks": 164880,
            "time": 176.1540135,
            "velocity": 1
          },
          {
            "duration": 0.12606849583335134,
            "durationTicks": 118,
            "midi": 54,
            "name": "F#3",
            "ticks": 165120,
            "time": 176.41042399999998,
            "velocity": 1
          },
          {
            "duration": 0.1282052500000077,
            "durationTicks": 120,
            "midi": 49,
            "name": "C#3",
            "ticks": 165360,
            "time": 176.6668345,
            "velocity": 1
          },
          {
            "duration": 0.1420941520833594,
            "durationTicks": 133,
            "midi": 52,
            "name": "E3",
            "ticks": 165600,
            "time": 176.92324499999998,
            "velocity": 1
          },
          {
            "duration": 0.12286336458330993,
            "durationTicks": 115,
            "midi": 54,
            "name": "F#3",
            "ticks": 165840,
            "time": 177.1796555,
            "velocity": 1
          },
          {
            "duration": 0.15811980833333905,
            "durationTicks": 148,
            "midi": 52,
            "name": "E3",
            "ticks": 166080,
            "time": 177.43606599999998,
            "velocity": 1
          },
          {
            "duration": 0.14423090624998736,
            "durationTicks": 135,
            "midi": 49,
            "name": "C#3",
            "ticks": 166320,
            "time": 177.6924765,
            "velocity": 1
          },
          {
            "duration": 0.17414546458334712,
            "durationTicks": 163,
            "midi": 47,
            "name": "B2",
            "ticks": 166560,
            "time": 177.94888699999998,
            "velocity": 1
          },
          {
            "duration": 0.13675226666666163,
            "durationTicks": 128,
            "midi": 49,
            "name": "C#3",
            "ticks": 166800,
            "time": 178.2052975,
            "velocity": 1
          },
          {
            "duration": 0.1282052500000077,
            "durationTicks": 120,
            "midi": 59,
            "name": "B3",
            "ticks": 167040,
            "time": 178.461708,
            "velocity": 1
          },
          {
            "duration": 0.0940171833333352,
            "durationTicks": 88,
            "midi": 54,
            "name": "F#3",
            "ticks": 167280,
            "time": 178.7181185,
            "velocity": 1
          },
          {
            "duration": 0.138889020833318,
            "durationTicks": 130,
            "midi": 57,
            "name": "A3",
            "ticks": 167520,
            "time": 178.974529,
            "velocity": 1
          },
          {
            "duration": 0.1869659895833422,
            "durationTicks": 175,
            "midi": 59,
            "name": "B3",
            "ticks": 167760,
            "time": 179.23093949999998,
            "velocity": 1
          },
          {
            "duration": 0.14957279166668513,
            "durationTicks": 140,
            "midi": 54,
            "name": "F#3",
            "ticks": 168240,
            "time": 179.74376049999998,
            "velocity": 1
          },
          {
            "duration": 0.16025656249999543,
            "durationTicks": 150,
            "midi": 52,
            "name": "E3",
            "ticks": 168480,
            "time": 180.000171,
            "velocity": 1
          },
          {
            "duration": 0.138889020833318,
            "durationTicks": 130,
            "midi": 54,
            "name": "F#3",
            "ticks": 168720,
            "time": 180.25658149999998,
            "velocity": 1
          },
          {
            "duration": 0.13141038124999227,
            "durationTicks": 123,
            "midi": 59,
            "name": "B3",
            "ticks": 168960,
            "time": 180.512992,
            "velocity": 1
          },
          {
            "duration": 0.13354713541667707,
            "durationTicks": 125,
            "midi": 54,
            "name": "F#3",
            "ticks": 169200,
            "time": 180.76940249999998,
            "velocity": 1
          },
          {
            "duration": 0.15277792291664127,
            "durationTicks": 143,
            "midi": 57,
            "name": "A3",
            "ticks": 169440,
            "time": 181.025813,
            "velocity": 1
          },
          {
            "duration": 0.18162410416667285,
            "durationTicks": 170,
            "midi": 59,
            "name": "B3",
            "ticks": 169680,
            "time": 181.2822235,
            "velocity": 1
          },
          {
            "duration": 0.16880357916664934,
            "durationTicks": 158,
            "midi": 54,
            "name": "F#3",
            "ticks": 170160,
            "time": 181.7950445,
            "velocity": 1
          },
          {
            "duration": 0.16025656250002385,
            "durationTicks": 150,
            "midi": 52,
            "name": "E3",
            "ticks": 170400,
            "time": 182.05145499999998,
            "velocity": 1
          },
          {
            "duration": 0.16880357916664934,
            "durationTicks": 158,
            "midi": 49,
            "name": "C#3",
            "ticks": 170640,
            "time": 182.3078655,
            "velocity": 1
          },
          {
            "duration": 0.13354713541667707,
            "durationTicks": 125,
            "midi": 54,
            "name": "F#3",
            "ticks": 170880,
            "time": 182.56427599999998,
            "velocity": 1
          },
          {
            "duration": 0.138889020833318,
            "durationTicks": 130,
            "midi": 49,
            "name": "C#3",
            "ticks": 171120,
            "time": 182.8206865,
            "velocity": 1
          },
          {
            "duration": 0.14743603750002876,
            "durationTicks": 138,
            "midi": 52,
            "name": "E3",
            "ticks": 171360,
            "time": 183.07709699999998,
            "velocity": 1
          },
          {
            "duration": 0.13675226666666163,
            "durationTicks": 128,
            "midi": 54,
            "name": "F#3",
            "ticks": 171600,
            "time": 183.3335075,
            "velocity": 1
          },
          {
            "duration": 0.14957279166668513,
            "durationTicks": 140,
            "midi": 52,
            "name": "E3",
            "ticks": 171840,
            "time": 183.58991799999998,
            "velocity": 1
          },
          {
            "duration": 0.13675226666666163,
            "durationTicks": 128,
            "midi": 49,
            "name": "C#3",
            "ticks": 172080,
            "time": 183.8463285,
            "velocity": 1
          },
          {
            "duration": 0.1634616937500084,
            "durationTicks": 153,
            "midi": 47,
            "name": "B2",
            "ticks": 172320,
            "time": 184.10273899999999,
            "velocity": 1
          },
          {
            "duration": 0.14423090624998736,
            "durationTicks": 135,
            "midi": 49,
            "name": "C#3",
            "ticks": 172560,
            "time": 184.3591495,
            "velocity": 1
          },
          {
            "duration": 0.1260684958333229,
            "durationTicks": 118,
            "midi": 54,
            "name": "F#3",
            "ticks": 172800,
            "time": 184.61556,
            "velocity": 1
          },
          {
            "duration": 0.1282052499999793,
            "durationTicks": 120,
            "midi": 49,
            "name": "C#3",
            "ticks": 173040,
            "time": 184.8719705,
            "velocity": 1
          },
          {
            "duration": 0.14209415208333098,
            "durationTicks": 133,
            "midi": 52,
            "name": "E3",
            "ticks": 173280,
            "time": 185.128381,
            "velocity": 1
          },
          {
            "duration": 0.12286336458333835,
            "durationTicks": 115,
            "midi": 54,
            "name": "F#3",
            "ticks": 173520,
            "time": 185.38479149999998,
            "velocity": 1
          },
          {
            "duration": 0.15811980833333905,
            "durationTicks": 148,
            "midi": 52,
            "name": "E3",
            "ticks": 173760,
            "time": 185.641202,
            "velocity": 1
          },
          {
            "duration": 0.14423090625001578,
            "durationTicks": 135,
            "midi": 49,
            "name": "C#3",
            "ticks": 174000,
            "time": 185.89761249999998,
            "velocity": 1
          },
          {
            "duration": 0.1741454645833187,
            "durationTicks": 163,
            "midi": 47,
            "name": "B2",
            "ticks": 174240,
            "time": 186.154023,
            "velocity": 1
          },
          {
            "duration": 0.13675226666666163,
            "durationTicks": 128,
            "midi": 49,
            "name": "C#3",
            "ticks": 174480,
            "time": 186.41043349999998,
            "velocity": 1
          },
          {
            "duration": 0.13354713541667707,
            "durationTicks": 125,
            "midi": 54,
            "name": "F#3",
            "ticks": 174720,
            "time": 186.666844,
            "velocity": 1
          },
          {
            "duration": 0.138889020833318,
            "durationTicks": 130,
            "midi": 49,
            "name": "C#3",
            "ticks": 174960,
            "time": 186.92325449999998,
            "velocity": 1
          },
          {
            "duration": 0.14743603750000034,
            "durationTicks": 138,
            "midi": 52,
            "name": "E3",
            "ticks": 175200,
            "time": 187.179665,
            "velocity": 1
          },
          {
            "duration": 0.13675226666666163,
            "durationTicks": 128,
            "midi": 54,
            "name": "F#3",
            "ticks": 175440,
            "time": 187.4360755,
            "velocity": 1
          },
          {
            "duration": 0.1495727916666567,
            "durationTicks": 140,
            "midi": 52,
            "name": "E3",
            "ticks": 175680,
            "time": 187.692486,
            "velocity": 1
          },
          {
            "duration": 0.13675226666666163,
            "durationTicks": 128,
            "midi": 49,
            "name": "C#3",
            "ticks": 175920,
            "time": 187.9488965,
            "velocity": 1
          },
          {
            "duration": 0.16346169375003683,
            "durationTicks": 153,
            "midi": 47,
            "name": "B2",
            "ticks": 176160,
            "time": 188.20530699999998,
            "velocity": 1
          },
          {
            "duration": 0.14423090624998736,
            "durationTicks": 135,
            "midi": 49,
            "name": "C#3",
            "ticks": 176400,
            "time": 188.4617175,
            "velocity": 1
          },
          {
            "duration": 0.12606849583335134,
            "durationTicks": 118,
            "midi": 54,
            "name": "F#3",
            "ticks": 176640,
            "time": 188.71812799999998,
            "velocity": 1
          },
          {
            "duration": 0.1282052500000077,
            "durationTicks": 120,
            "midi": 49,
            "name": "C#3",
            "ticks": 176880,
            "time": 188.9745385,
            "velocity": 1
          },
          {
            "duration": 0.14209415208333098,
            "durationTicks": 133,
            "midi": 52,
            "name": "E3",
            "ticks": 177120,
            "time": 189.23094899999998,
            "velocity": 1
          },
          {
            "duration": 0.12286336458330993,
            "durationTicks": 115,
            "midi": 54,
            "name": "F#3",
            "ticks": 177360,
            "time": 189.4873595,
            "velocity": 1
          },
          {
            "duration": 0.15811980833333905,
            "durationTicks": 148,
            "midi": 52,
            "name": "E3",
            "ticks": 177600,
            "time": 189.74376999999998,
            "velocity": 1
          },
          {
            "duration": 0.14423090624998736,
            "durationTicks": 135,
            "midi": 49,
            "name": "C#3",
            "ticks": 177840,
            "time": 190.0001805,
            "velocity": 1
          },
          {
            "duration": 0.17414546458334712,
            "durationTicks": 163,
            "midi": 47,
            "name": "B2",
            "ticks": 178080,
            "time": 190.256591,
            "velocity": 1
          },
          {
            "duration": 0.1367522666666332,
            "durationTicks": 128,
            "midi": 49,
            "name": "C#3",
            "ticks": 178320,
            "time": 190.5130015,
            "velocity": 1
          },
          {
            "duration": 0.13354713541667707,
            "durationTicks": 125,
            "midi": 54,
            "name": "F#3",
            "ticks": 178560,
            "time": 190.769412,
            "velocity": 1
          },
          {
            "duration": 0.13888902083334642,
            "durationTicks": 130,
            "midi": 49,
            "name": "C#3",
            "ticks": 178800,
            "time": 191.02582249999998,
            "velocity": 1
          },
          {
            "duration": 0.14743603750000034,
            "durationTicks": 138,
            "midi": 52,
            "name": "E3",
            "ticks": 179040,
            "time": 191.282233,
            "velocity": 1
          },
          {
            "duration": 0.13675226666666163,
            "durationTicks": 128,
            "midi": 54,
            "name": "F#3",
            "ticks": 179280,
            "time": 191.53864349999998,
            "velocity": 1
          },
          {
            "duration": 0.14957279166668513,
            "durationTicks": 140,
            "midi": 52,
            "name": "E3",
            "ticks": 179520,
            "time": 191.795054,
            "velocity": 1
          },
          {
            "duration": 0.13675226666666163,
            "durationTicks": 128,
            "midi": 49,
            "name": "C#3",
            "ticks": 179760,
            "time": 192.05146449999998,
            "velocity": 1
          },
          {
            "duration": 0.1634616937500084,
            "durationTicks": 153,
            "midi": 47,
            "name": "B2",
            "ticks": 180000,
            "time": 192.307875,
            "velocity": 1
          },
          {
            "duration": 0.14423090625001578,
            "durationTicks": 135,
            "midi": 49,
            "name": "C#3",
            "ticks": 180240,
            "time": 192.56428549999998,
            "velocity": 1
          },
          {
            "duration": 0.1260684958333229,
            "durationTicks": 118,
            "midi": 54,
            "name": "F#3",
            "ticks": 180480,
            "time": 192.820696,
            "velocity": 1
          },
          {
            "duration": 0.1282052500000077,
            "durationTicks": 120,
            "midi": 49,
            "name": "C#3",
            "ticks": 180720,
            "time": 193.07710649999999,
            "velocity": 1
          },
          {
            "duration": 0.14209415208333098,
            "durationTicks": 133,
            "midi": 52,
            "name": "E3",
            "ticks": 180960,
            "time": 193.333517,
            "velocity": 1
          },
          {
            "duration": 0.12286336458333835,
            "durationTicks": 115,
            "midi": 54,
            "name": "F#3",
            "ticks": 181200,
            "time": 193.5899275,
            "velocity": 1
          },
          {
            "duration": 0.15811980833331063,
            "durationTicks": 148,
            "midi": 52,
            "name": "E3",
            "ticks": 181440,
            "time": 193.846338,
            "velocity": 1
          },
          {
            "duration": 0.14423090624998736,
            "durationTicks": 135,
            "midi": 49,
            "name": "C#3",
            "ticks": 181680,
            "time": 194.1027485,
            "velocity": 1
          },
          {
            "duration": 0.17414546458334712,
            "durationTicks": 163,
            "midi": 47,
            "name": "B2",
            "ticks": 181920,
            "time": 194.35915899999998,
            "velocity": 1
          },
          {
            "duration": 0.13675226666666163,
            "durationTicks": 128,
            "midi": 49,
            "name": "C#3",
            "ticks": 182160,
            "time": 194.6155695,
            "velocity": 1
          },
          {
            "duration": 0.1282052500000077,
            "durationTicks": 120,
            "midi": 59,
            "name": "B3",
            "ticks": 182400,
            "time": 194.87197999999998,
            "velocity": 1
          },
          {
            "duration": 0.0940171833333352,
            "durationTicks": 88,
            "midi": 54,
            "name": "F#3",
            "ticks": 182640,
            "time": 195.1283905,
            "velocity": 1
          },
          {
            "duration": 0.138889020833318,
            "durationTicks": 130,
            "midi": 57,
            "name": "A3",
            "ticks": 182880,
            "time": 195.38480099999998,
            "velocity": 1
          },
          {
            "duration": 0.18696598958331379,
            "durationTicks": 175,
            "midi": 59,
            "name": "B3",
            "ticks": 183120,
            "time": 195.6412115,
            "velocity": 1
          },
          {
            "duration": 0.1495727916666567,
            "durationTicks": 140,
            "midi": 54,
            "name": "F#3",
            "ticks": 183600,
            "time": 196.1540325,
            "velocity": 1
          },
          {
            "duration": 0.16025656249999543,
            "durationTicks": 150,
            "midi": 52,
            "name": "E3",
            "ticks": 183840,
            "time": 196.410443,
            "velocity": 1
          },
          {
            "duration": 0.138889020833318,
            "durationTicks": 130,
            "midi": 54,
            "name": "F#3",
            "ticks": 184080,
            "time": 196.6668535,
            "velocity": 1
          },
          {
            "duration": 0.1314103812500207,
            "durationTicks": 123,
            "midi": 59,
            "name": "B3",
            "ticks": 184320,
            "time": 196.923264,
            "velocity": 1
          },
          {
            "duration": 0.13354713541667707,
            "durationTicks": 125,
            "midi": 54,
            "name": "F#3",
            "ticks": 184560,
            "time": 197.17967449999998,
            "velocity": 1
          },
          {
            "duration": 0.1527779229166697,
            "durationTicks": 143,
            "midi": 57,
            "name": "A3",
            "ticks": 184800,
            "time": 197.436085,
            "velocity": 1
          },
          {
            "duration": 0.18162410416667285,
            "durationTicks": 170,
            "midi": 59,
            "name": "B3",
            "ticks": 185040,
            "time": 197.69249549999998,
            "velocity": 1
          },
          {
            "duration": 0.16880357916667776,
            "durationTicks": 158,
            "midi": 54,
            "name": "F#3",
            "ticks": 185520,
            "time": 198.20531649999998,
            "velocity": 1
          },
          {
            "duration": 0.16025656249999543,
            "durationTicks": 150,
            "midi": 52,
            "name": "E3",
            "ticks": 185760,
            "time": 198.461727,
            "velocity": 1
          },
          {
            "duration": 0.16880357916667776,
            "durationTicks": 158,
            "midi": 49,
            "name": "C#3",
            "ticks": 186000,
            "time": 198.71813749999998,
            "velocity": 1
          },
          {
            "duration": 0.13354713541667707,
            "durationTicks": 125,
            "midi": 54,
            "name": "F#3",
            "ticks": 186240,
            "time": 198.974548,
            "velocity": 1
          },
          {
            "duration": 0.138889020833318,
            "durationTicks": 130,
            "midi": 49,
            "name": "C#3",
            "ticks": 186480,
            "time": 199.23095849999999,
            "velocity": 1
          },
          {
            "duration": 0.14743603750000034,
            "durationTicks": 138,
            "midi": 52,
            "name": "E3",
            "ticks": 186720,
            "time": 199.487369,
            "velocity": 1
          },
          {
            "duration": 0.13675226666666163,
            "durationTicks": 128,
            "midi": 54,
            "name": "F#3",
            "ticks": 186960,
            "time": 199.7437795,
            "velocity": 1
          },
          {
            "duration": 0.14957279166668513,
            "durationTicks": 140,
            "midi": 52,
            "name": "E3",
            "ticks": 187200,
            "time": 200.00018999999998,
            "velocity": 1
          },
          {
            "duration": 0.13675226666666163,
            "durationTicks": 128,
            "midi": 49,
            "name": "C#3",
            "ticks": 187440,
            "time": 200.2566005,
            "velocity": 1
          },
          {
            "duration": 0.16346169375003683,
            "durationTicks": 153,
            "midi": 47,
            "name": "B2",
            "ticks": 187680,
            "time": 200.51301099999998,
            "velocity": 1
          },
          {
            "duration": 0.14423090624998736,
            "durationTicks": 135,
            "midi": 49,
            "name": "C#3",
            "ticks": 187920,
            "time": 200.7694215,
            "velocity": 1
          },
          {
            "duration": 0.12606849583335134,
            "durationTicks": 118,
            "midi": 54,
            "name": "F#3",
            "ticks": 188160,
            "time": 201.02583199999998,
            "velocity": 1
          },
          {
            "duration": 0.1282052499999793,
            "durationTicks": 120,
            "midi": 49,
            "name": "C#3",
            "ticks": 188400,
            "time": 201.2822425,
            "velocity": 1
          },
          {
            "duration": 0.14209415208333098,
            "durationTicks": 133,
            "midi": 52,
            "name": "E3",
            "ticks": 188640,
            "time": 201.53865299999998,
            "velocity": 1
          },
          {
            "duration": 0.12286336458330993,
            "durationTicks": 115,
            "midi": 54,
            "name": "F#3",
            "ticks": 188880,
            "time": 201.7950635,
            "velocity": 1
          },
          {
            "duration": 0.15811980833333905,
            "durationTicks": 148,
            "midi": 52,
            "name": "E3",
            "ticks": 189120,
            "time": 202.05147399999998,
            "velocity": 1
          },
          {
            "duration": 0.14423090624998736,
            "durationTicks": 135,
            "midi": 49,
            "name": "C#3",
            "ticks": 189360,
            "time": 202.3078845,
            "velocity": 1
          },
          {
            "duration": 0.17414546458334712,
            "durationTicks": 163,
            "midi": 47,
            "name": "B2",
            "ticks": 189600,
            "time": 202.564295,
            "velocity": 1
          },
          {
            "duration": 0.1367522666666332,
            "durationTicks": 128,
            "midi": 49,
            "name": "C#3",
            "ticks": 189840,
            "time": 202.8207055,
            "velocity": 1
          },
          {
            "duration": 0.1282052500000077,
            "durationTicks": 120,
            "midi": 59,
            "name": "B3",
            "ticks": 190080,
            "time": 203.077116,
            "velocity": 1
          },
          {
            "duration": 0.0940171833333352,
            "durationTicks": 88,
            "midi": 54,
            "name": "F#3",
            "ticks": 190320,
            "time": 203.33352649999998,
            "velocity": 1
          },
          {
            "duration": 0.138889020833318,
            "durationTicks": 130,
            "midi": 57,
            "name": "A3",
            "ticks": 190560,
            "time": 203.589937,
            "velocity": 1
          },
          {
            "duration": 0.1869659895833422,
            "durationTicks": 175,
            "midi": 59,
            "name": "B3",
            "ticks": 190800,
            "time": 203.84634749999998,
            "velocity": 1
          },
          {
            "duration": 0.14957279166668513,
            "durationTicks": 140,
            "midi": 54,
            "name": "F#3",
            "ticks": 191280,
            "time": 204.35916849999998,
            "velocity": 1
          },
          {
            "duration": 0.16025656249999543,
            "durationTicks": 150,
            "midi": 52,
            "name": "E3",
            "ticks": 191520,
            "time": 204.615579,
            "velocity": 1
          },
          {
            "duration": 0.138889020833318,
            "durationTicks": 130,
            "midi": 54,
            "name": "F#3",
            "ticks": 191760,
            "time": 204.87198949999998,
            "velocity": 1
          },
          {
            "duration": 0.13141038124999227,
            "durationTicks": 123,
            "midi": 59,
            "name": "B3",
            "ticks": 192000,
            "time": 205.1284,
            "velocity": 1
          },
          {
            "duration": 0.13354713541667707,
            "durationTicks": 125,
            "midi": 54,
            "name": "F#3",
            "ticks": 192240,
            "time": 205.3848105,
            "velocity": 1
          },
          {
            "duration": 0.15277792291664127,
            "durationTicks": 143,
            "midi": 57,
            "name": "A3",
            "ticks": 192480,
            "time": 205.641221,
            "velocity": 1
          },
          {
            "duration": 0.18162410416667285,
            "durationTicks": 170,
            "midi": 59,
            "name": "B3",
            "ticks": 192720,
            "time": 205.8976315,
            "velocity": 1
          },
          {
            "duration": 0.16880357916664934,
            "durationTicks": 158,
            "midi": 54,
            "name": "F#3",
            "ticks": 193200,
            "time": 206.4104525,
            "velocity": 1
          },
          {
            "duration": 0.16025656250002385,
            "durationTicks": 150,
            "midi": 52,
            "name": "E3",
            "ticks": 193440,
            "time": 206.66686299999998,
            "velocity": 1
          },
          {
            "duration": 0.16880357916664934,
            "durationTicks": 158,
            "midi": 49,
            "name": "C#3",
            "ticks": 193680,
            "time": 206.9232735,
            "velocity": 1
          },
          {
            "duration": 0.13354713541667707,
            "durationTicks": 125,
            "midi": 54,
            "name": "F#3",
            "ticks": 193920,
            "time": 207.17968399999998,
            "velocity": 1
          },
          {
            "duration": 0.138889020833318,
            "durationTicks": 130,
            "midi": 49,
            "name": "C#3",
            "ticks": 194160,
            "time": 207.4360945,
            "velocity": 1
          },
          {
            "duration": 0.14743603750002876,
            "durationTicks": 138,
            "midi": 52,
            "name": "E3",
            "ticks": 194400,
            "time": 207.69250499999998,
            "velocity": 1
          },
          {
            "duration": 0.13675226666666163,
            "durationTicks": 128,
            "midi": 54,
            "name": "F#3",
            "ticks": 194640,
            "time": 207.9489155,
            "velocity": 1
          },
          {
            "duration": 0.14957279166668513,
            "durationTicks": 140,
            "midi": 52,
            "name": "E3",
            "ticks": 194880,
            "time": 208.20532599999999,
            "velocity": 1
          },
          {
            "duration": 0.1367522666666332,
            "durationTicks": 128,
            "midi": 49,
            "name": "C#3",
            "ticks": 195120,
            "time": 208.4617365,
            "velocity": 1
          },
          {
            "duration": 0.1634616937500084,
            "durationTicks": 153,
            "midi": 47,
            "name": "B2",
            "ticks": 195360,
            "time": 208.718147,
            "velocity": 1
          },
          {
            "duration": 0.14423090625001578,
            "durationTicks": 135,
            "midi": 49,
            "name": "C#3",
            "ticks": 195600,
            "time": 208.97455749999997,
            "velocity": 1
          },
          {
            "duration": 0.1260684958333229,
            "durationTicks": 118,
            "midi": 54,
            "name": "F#3",
            "ticks": 195840,
            "time": 209.230968,
            "velocity": 1
          },
          {
            "duration": 0.1282052500000077,
            "durationTicks": 120,
            "midi": 49,
            "name": "C#3",
            "ticks": 196080,
            "time": 209.48737849999998,
            "velocity": 1
          },
          {
            "duration": 0.14209415208333098,
            "durationTicks": 133,
            "midi": 52,
            "name": "E3",
            "ticks": 196320,
            "time": 209.743789,
            "velocity": 1
          },
          {
            "duration": 0.12286336458333835,
            "durationTicks": 115,
            "midi": 54,
            "name": "F#3",
            "ticks": 196560,
            "time": 210.00019949999998,
            "velocity": 1
          },
          {
            "duration": 0.15811980833333905,
            "durationTicks": 148,
            "midi": 52,
            "name": "E3",
            "ticks": 196800,
            "time": 210.25661,
            "velocity": 1
          },
          {
            "duration": 0.14423090625001578,
            "durationTicks": 135,
            "midi": 49,
            "name": "C#3",
            "ticks": 197040,
            "time": 210.51302049999998,
            "velocity": 1
          },
          {
            "duration": 0.1741454645833187,
            "durationTicks": 163,
            "midi": 47,
            "name": "B2",
            "ticks": 197280,
            "time": 210.769431,
            "velocity": 1
          },
          {
            "duration": 0.13675226666666163,
            "durationTicks": 128,
            "midi": 49,
            "name": "C#3",
            "ticks": 197520,
            "time": 211.02584149999998,
            "velocity": 1
          },
          {
            "duration": 0.13354713541667707,
            "durationTicks": 125,
            "midi": 54,
            "name": "F#3",
            "ticks": 197760,
            "time": 211.282252,
            "velocity": 1
          },
          {
            "duration": 0.138889020833318,
            "durationTicks": 130,
            "midi": 49,
            "name": "C#3",
            "ticks": 198000,
            "time": 211.5386625,
            "velocity": 1
          },
          {
            "duration": 0.14743603750000034,
            "durationTicks": 138,
            "midi": 52,
            "name": "E3",
            "ticks": 198240,
            "time": 211.795073,
            "velocity": 1
          },
          {
            "duration": 0.13675226666666163,
            "durationTicks": 128,
            "midi": 54,
            "name": "F#3",
            "ticks": 198480,
            "time": 212.0514835,
            "velocity": 1
          },
          {
            "duration": 0.14957279166668513,
            "durationTicks": 140,
            "midi": 52,
            "name": "E3",
            "ticks": 198720,
            "time": 212.30789399999998,
            "velocity": 1
          },
          {
            "duration": 0.13675226666666163,
            "durationTicks": 128,
            "midi": 49,
            "name": "C#3",
            "ticks": 198960,
            "time": 212.5643045,
            "velocity": 1
          },
          {
            "duration": 0.1634616937500084,
            "durationTicks": 153,
            "midi": 47,
            "name": "B2",
            "ticks": 199200,
            "time": 212.82071499999998,
            "velocity": 1
          },
          {
            "duration": 0.14423090624998736,
            "durationTicks": 135,
            "midi": 49,
            "name": "C#3",
            "ticks": 199440,
            "time": 213.0771255,
            "velocity": 1
          },
          {
            "duration": 0.12606849583335134,
            "durationTicks": 118,
            "midi": 54,
            "name": "F#3",
            "ticks": 199680,
            "time": 213.33353599999998,
            "velocity": 1
          },
          {
            "duration": 0.1282052499999793,
            "durationTicks": 120,
            "midi": 49,
            "name": "C#3",
            "ticks": 199920,
            "time": 213.5899465,
            "velocity": 1
          },
          {
            "duration": 0.14209415208333098,
            "durationTicks": 133,
            "midi": 52,
            "name": "E3",
            "ticks": 200160,
            "time": 213.84635699999998,
            "velocity": 1
          },
          {
            "duration": 0.12286336458330993,
            "durationTicks": 115,
            "midi": 54,
            "name": "F#3",
            "ticks": 200400,
            "time": 214.1027675,
            "velocity": 1
          },
          {
            "duration": 0.15811980833333905,
            "durationTicks": 148,
            "midi": 52,
            "name": "E3",
            "ticks": 200640,
            "time": 214.35917799999999,
            "velocity": 1
          },
          {
            "duration": 0.14423090624998736,
            "durationTicks": 135,
            "midi": 49,
            "name": "C#3",
            "ticks": 200880,
            "time": 214.6155885,
            "velocity": 1
          },
          {
            "duration": 0.17414546458334712,
            "durationTicks": 163,
            "midi": 47,
            "name": "B2",
            "ticks": 201120,
            "time": 214.871999,
            "velocity": 1
          },
          {
            "duration": 0.13675226666666163,
            "durationTicks": 128,
            "midi": 49,
            "name": "C#3",
            "ticks": 201360,
            "time": 215.12840949999998,
            "velocity": 1
          },
          {
            "duration": 0.13354713541667707,
            "durationTicks": 125,
            "midi": 54,
            "name": "F#3",
            "ticks": 201600,
            "time": 215.38482,
            "velocity": 1
          },
          {
            "duration": 0.13888902083334642,
            "durationTicks": 130,
            "midi": 49,
            "name": "C#3",
            "ticks": 201840,
            "time": 215.64123049999998,
            "velocity": 1
          },
          {
            "duration": 0.14743603750000034,
            "durationTicks": 138,
            "midi": 52,
            "name": "E3",
            "ticks": 202080,
            "time": 215.897641,
            "velocity": 1
          },
          {
            "duration": 0.13675226666666163,
            "durationTicks": 128,
            "midi": 54,
            "name": "F#3",
            "ticks": 202320,
            "time": 216.15405149999998,
            "velocity": 1
          },
          {
            "duration": 0.1495727916666567,
            "durationTicks": 140,
            "midi": 52,
            "name": "E3",
            "ticks": 202560,
            "time": 216.410462,
            "velocity": 1
          },
          {
            "duration": 0.13675226666666163,
            "durationTicks": 128,
            "midi": 49,
            "name": "C#3",
            "ticks": 202800,
            "time": 216.66687249999998,
            "velocity": 1
          },
          {
            "duration": 0.1634616937500084,
            "durationTicks": 153,
            "midi": 47,
            "name": "B2",
            "ticks": 203040,
            "time": 216.923283,
            "velocity": 1
          },
          {
            "duration": 0.14423090625001578,
            "durationTicks": 135,
            "midi": 49,
            "name": "C#3",
            "ticks": 203280,
            "time": 217.17969349999998,
            "velocity": 1
          },
          {
            "duration": 0.1260684958333229,
            "durationTicks": 118,
            "midi": 54,
            "name": "F#3",
            "ticks": 203520,
            "time": 217.436104,
            "velocity": 1
          },
          {
            "duration": 0.1282052500000077,
            "durationTicks": 120,
            "midi": 49,
            "name": "C#3",
            "ticks": 203760,
            "time": 217.6925145,
            "velocity": 1
          },
          {
            "duration": 0.1420941520833594,
            "durationTicks": 133,
            "midi": 52,
            "name": "E3",
            "ticks": 204000,
            "time": 217.94892499999997,
            "velocity": 1
          },
          {
            "duration": 0.12286336458330993,
            "durationTicks": 115,
            "midi": 54,
            "name": "F#3",
            "ticks": 204240,
            "time": 218.2053355,
            "velocity": 1
          },
          {
            "duration": 0.15811980833333905,
            "durationTicks": 148,
            "midi": 52,
            "name": "E3",
            "ticks": 204480,
            "time": 218.46174599999998,
            "velocity": 1
          },
          {
            "duration": 0.14423090624998736,
            "durationTicks": 135,
            "midi": 49,
            "name": "C#3",
            "ticks": 204720,
            "time": 218.7181565,
            "velocity": 1
          },
          {
            "duration": 0.17414546458334712,
            "durationTicks": 163,
            "midi": 47,
            "name": "B2",
            "ticks": 204960,
            "time": 218.97456699999998,
            "velocity": 1
          },
          {
            "duration": 0.13675226666666163,
            "durationTicks": 128,
            "midi": 49,
            "name": "C#3",
            "ticks": 205200,
            "time": 219.2309775,
            "velocity": 1
          },
          {
            "duration": 0.13354713541667707,
            "durationTicks": 125,
            "midi": 54,
            "name": "F#3",
            "ticks": 205440,
            "time": 219.48738799999998,
            "velocity": 1
          },
          {
            "duration": 0.138889020833318,
            "durationTicks": 130,
            "midi": 49,
            "name": "C#3",
            "ticks": 205680,
            "time": 219.7437985,
            "velocity": 1
          },
          {
            "duration": 0.14743603750002876,
            "durationTicks": 138,
            "midi": 52,
            "name": "E3",
            "ticks": 205920,
            "time": 220.00020899999998,
            "velocity": 1
          },
          {
            "duration": 0.1367522666666332,
            "durationTicks": 128,
            "midi": 54,
            "name": "F#3",
            "ticks": 206160,
            "time": 220.2566195,
            "velocity": 1
          },
          {
            "duration": 0.14957279166668513,
            "durationTicks": 140,
            "midi": 52,
            "name": "E3",
            "ticks": 206400,
            "time": 220.51303,
            "velocity": 1
          },
          {
            "duration": 0.1367522666666332,
            "durationTicks": 128,
            "midi": 49,
            "name": "C#3",
            "ticks": 206640,
            "time": 220.7694405,
            "velocity": 1
          },
          {
            "duration": 0.1634616937500084,
            "durationTicks": 153,
            "midi": 47,
            "name": "B2",
            "ticks": 206880,
            "time": 221.025851,
            "velocity": 1
          },
          {
            "duration": 0.14423090625001578,
            "durationTicks": 135,
            "midi": 49,
            "name": "C#3",
            "ticks": 207120,
            "time": 221.28226149999998,
            "velocity": 1
          },
          {
            "duration": 0.1260684958333229,
            "durationTicks": 118,
            "midi": 54,
            "name": "F#3",
            "ticks": 207360,
            "time": 221.538672,
            "velocity": 1
          },
          {
            "duration": 0.1282052500000077,
            "durationTicks": 120,
            "midi": 49,
            "name": "C#3",
            "ticks": 207600,
            "time": 221.79508249999998,
            "velocity": 1
          },
          {
            "duration": 0.14209415208333098,
            "durationTicks": 133,
            "midi": 52,
            "name": "E3",
            "ticks": 207840,
            "time": 222.051493,
            "velocity": 1
          },
          {
            "duration": 0.12286336458333835,
            "durationTicks": 115,
            "midi": 54,
            "name": "F#3",
            "ticks": 208080,
            "time": 222.30790349999998,
            "velocity": 1
          },
          {
            "duration": 0.15811980833333905,
            "durationTicks": 148,
            "midi": 52,
            "name": "E3",
            "ticks": 208320,
            "time": 222.564314,
            "velocity": 1
          },
          {
            "duration": 0.14423090625001578,
            "durationTicks": 135,
            "midi": 49,
            "name": "C#3",
            "ticks": 208560,
            "time": 222.82072449999998,
            "velocity": 1
          },
          {
            "duration": 0.1741454645833187,
            "durationTicks": 163,
            "midi": 47,
            "name": "B2",
            "ticks": 208800,
            "time": 223.077135,
            "velocity": 1
          },
          {
            "duration": 0.13675226666666163,
            "durationTicks": 128,
            "midi": 49,
            "name": "C#3",
            "ticks": 209040,
            "time": 223.33354549999999,
            "velocity": 1
          },
          {
            "duration": 0.13354713541667707,
            "durationTicks": 125,
            "midi": 54,
            "name": "F#3",
            "ticks": 209280,
            "time": 223.589956,
            "velocity": 1
          },
          {
            "duration": 0.138889020833318,
            "durationTicks": 130,
            "midi": 49,
            "name": "C#3",
            "ticks": 209520,
            "time": 223.8463665,
            "velocity": 1
          },
          {
            "duration": 0.14743603750002876,
            "durationTicks": 138,
            "midi": 52,
            "name": "E3",
            "ticks": 209760,
            "time": 224.10277699999997,
            "velocity": 1
          },
          {
            "duration": 0.13675226666666163,
            "durationTicks": 128,
            "midi": 54,
            "name": "F#3",
            "ticks": 210000,
            "time": 224.3591875,
            "velocity": 1
          },
          {
            "duration": 0.14957279166668513,
            "durationTicks": 140,
            "midi": 52,
            "name": "E3",
            "ticks": 210240,
            "time": 224.61559799999998,
            "velocity": 1
          },
          {
            "duration": 0.13675226666666163,
            "durationTicks": 128,
            "midi": 49,
            "name": "C#3",
            "ticks": 210480,
            "time": 224.8720085,
            "velocity": 1
          },
          {
            "duration": 0.1634616937500084,
            "durationTicks": 153,
            "midi": 47,
            "name": "B2",
            "ticks": 210720,
            "time": 225.12841899999998,
            "velocity": 1
          },
          {
            "duration": 0.14423090624998736,
            "durationTicks": 135,
            "midi": 49,
            "name": "C#3",
            "ticks": 210960,
            "time": 225.3848295,
            "velocity": 1
          },
          {
            "duration": 0.12606849583335134,
            "durationTicks": 118,
            "midi": 54,
            "name": "F#3",
            "ticks": 211200,
            "time": 225.64123999999998,
            "velocity": 1
          },
          {
            "duration": 0.1282052499999793,
            "durationTicks": 120,
            "midi": 49,
            "name": "C#3",
            "ticks": 211440,
            "time": 225.8976505,
            "velocity": 1
          },
          {
            "duration": 0.14209415208333098,
            "durationTicks": 133,
            "midi": 52,
            "name": "E3",
            "ticks": 211680,
            "time": 226.15406099999998,
            "velocity": 1
          },
          {
            "duration": 0.12286336458330993,
            "durationTicks": 115,
            "midi": 54,
            "name": "F#3",
            "ticks": 211920,
            "time": 226.4104715,
            "velocity": 1
          },
          {
            "duration": 0.15811980833333905,
            "durationTicks": 148,
            "midi": 52,
            "name": "E3",
            "ticks": 212160,
            "time": 226.666882,
            "velocity": 1
          },
          {
            "duration": 0.14423090625001578,
            "durationTicks": 135,
            "midi": 49,
            "name": "C#3",
            "ticks": 212400,
            "time": 226.92329249999997,
            "velocity": 1
          },
          {
            "duration": 0.17414546458334712,
            "durationTicks": 163,
            "midi": 47,
            "name": "B2",
            "ticks": 212640,
            "time": 227.179703,
            "velocity": 1
          },
          {
            "duration": 0.13675226666666163,
            "durationTicks": 128,
            "midi": 49,
            "name": "C#3",
            "ticks": 212880,
            "time": 227.43611349999998,
            "velocity": 1
          },
          {
            "duration": 0.1282052500000077,
            "durationTicks": 120,
            "midi": 59,
            "name": "B3",
            "ticks": 213120,
            "time": 227.692524,
            "velocity": 1
          },
          {
            "duration": 0.0940171833333352,
            "durationTicks": 88,
            "midi": 54,
            "name": "F#3",
            "ticks": 213360,
            "time": 227.94893449999998,
            "velocity": 1
          },
          {
            "duration": 0.138889020833318,
            "durationTicks": 130,
            "midi": 57,
            "name": "A3",
            "ticks": 213600,
            "time": 228.205345,
            "velocity": 1
          },
          {
            "duration": 0.1869659895833422,
            "durationTicks": 175,
            "midi": 59,
            "name": "B3",
            "ticks": 213840,
            "time": 228.46175549999998,
            "velocity": 1
          },
          {
            "duration": 0.14957279166668513,
            "durationTicks": 140,
            "midi": 54,
            "name": "F#3",
            "ticks": 214320,
            "time": 228.97457649999998,
            "velocity": 1
          },
          {
            "duration": 0.16025656249999543,
            "durationTicks": 150,
            "midi": 52,
            "name": "E3",
            "ticks": 214560,
            "time": 229.230987,
            "velocity": 1
          },
          {
            "duration": 0.138889020833318,
            "durationTicks": 130,
            "midi": 54,
            "name": "F#3",
            "ticks": 214800,
            "time": 229.4873975,
            "velocity": 1
          },
          {
            "duration": 0.13141038124999227,
            "durationTicks": 123,
            "midi": 59,
            "name": "B3",
            "ticks": 215040,
            "time": 229.743808,
            "velocity": 1
          },
          {
            "duration": 0.13354713541667707,
            "durationTicks": 125,
            "midi": 54,
            "name": "F#3",
            "ticks": 215280,
            "time": 230.0002185,
            "velocity": 1
          },
          {
            "duration": 0.1527779229166697,
            "durationTicks": 143,
            "midi": 57,
            "name": "A3",
            "ticks": 215520,
            "time": 230.25662899999998,
            "velocity": 1
          },
          {
            "duration": 0.18162410416667285,
            "durationTicks": 170,
            "midi": 59,
            "name": "B3",
            "ticks": 215760,
            "time": 230.5130395,
            "velocity": 1
          },
          {
            "duration": 0.16880357916664934,
            "durationTicks": 158,
            "midi": 54,
            "name": "F#3",
            "ticks": 216240,
            "time": 231.0258605,
            "velocity": 1
          },
          {
            "duration": 0.16025656249999543,
            "durationTicks": 150,
            "midi": 52,
            "name": "E3",
            "ticks": 216480,
            "time": 231.28227099999998,
            "velocity": 1
          },
          {
            "duration": 0.16880357916664934,
            "durationTicks": 158,
            "midi": 49,
            "name": "C#3",
            "ticks": 216720,
            "time": 231.5386815,
            "velocity": 1
          },
          {
            "duration": 0.13354713541667707,
            "durationTicks": 125,
            "midi": 54,
            "name": "F#3",
            "ticks": 216960,
            "time": 231.79509199999998,
            "velocity": 1
          },
          {
            "duration": 0.138889020833318,
            "durationTicks": 130,
            "midi": 49,
            "name": "C#3",
            "ticks": 217200,
            "time": 232.0515025,
            "velocity": 1
          },
          {
            "duration": 0.14743603750000034,
            "durationTicks": 138,
            "midi": 52,
            "name": "E3",
            "ticks": 217440,
            "time": 232.30791299999999,
            "velocity": 1
          },
          {
            "duration": 0.1367522666666332,
            "durationTicks": 128,
            "midi": 54,
            "name": "F#3",
            "ticks": 217680,
            "time": 232.5643235,
            "velocity": 1
          },
          {
            "duration": 0.14957279166668513,
            "durationTicks": 140,
            "midi": 52,
            "name": "E3",
            "ticks": 217920,
            "time": 232.820734,
            "velocity": 1
          },
          {
            "duration": 0.13675226666666163,
            "durationTicks": 128,
            "midi": 49,
            "name": "C#3",
            "ticks": 218160,
            "time": 233.07714449999997,
            "velocity": 1
          },
          {
            "duration": 0.1634616937500084,
            "durationTicks": 153,
            "midi": 47,
            "name": "B2",
            "ticks": 218400,
            "time": 233.333555,
            "velocity": 1
          },
          {
            "duration": 0.14423090625001578,
            "durationTicks": 135,
            "midi": 49,
            "name": "C#3",
            "ticks": 218640,
            "time": 233.58996549999998,
            "velocity": 1
          },
          {
            "duration": 0.1260684958333229,
            "durationTicks": 118,
            "midi": 54,
            "name": "F#3",
            "ticks": 218880,
            "time": 233.846376,
            "velocity": 1
          },
          {
            "duration": 0.1282052500000077,
            "durationTicks": 120,
            "midi": 49,
            "name": "C#3",
            "ticks": 219120,
            "time": 234.10278649999998,
            "velocity": 1
          },
          {
            "duration": 0.14209415208333098,
            "durationTicks": 133,
            "midi": 52,
            "name": "E3",
            "ticks": 219360,
            "time": 234.359197,
            "velocity": 1
          },
          {
            "duration": 0.12286336458333835,
            "durationTicks": 115,
            "midi": 54,
            "name": "F#3",
            "ticks": 219600,
            "time": 234.61560749999998,
            "velocity": 1
          },
          {
            "duration": 0.15811980833333905,
            "durationTicks": 148,
            "midi": 52,
            "name": "E3",
            "ticks": 219840,
            "time": 234.872018,
            "velocity": 1
          },
          {
            "duration": 0.14423090625001578,
            "durationTicks": 135,
            "midi": 49,
            "name": "C#3",
            "ticks": 220080,
            "time": 235.12842849999998,
            "velocity": 1
          },
          {
            "duration": 0.1741454645833187,
            "durationTicks": 163,
            "midi": 47,
            "name": "B2",
            "ticks": 220320,
            "time": 235.384839,
            "velocity": 1
          },
          {
            "duration": 0.13675226666666163,
            "durationTicks": 128,
            "midi": 49,
            "name": "C#3",
            "ticks": 220560,
            "time": 235.6412495,
            "velocity": 1
          },
          {
            "duration": 0.13354713541667707,
            "durationTicks": 125,
            "midi": 54,
            "name": "F#3",
            "ticks": 220800,
            "time": 235.89765999999997,
            "velocity": 1
          },
          {
            "duration": 0.138889020833318,
            "durationTicks": 130,
            "midi": 49,
            "name": "C#3",
            "ticks": 221040,
            "time": 236.1540705,
            "velocity": 1
          },
          {
            "duration": 0.14743603750002876,
            "durationTicks": 138,
            "midi": 52,
            "name": "E3",
            "ticks": 221280,
            "time": 236.41048099999998,
            "velocity": 1
          },
          {
            "duration": 0.13675226666666163,
            "durationTicks": 128,
            "midi": 54,
            "name": "F#3",
            "ticks": 221520,
            "time": 236.6668915,
            "velocity": 1
          },
          {
            "duration": 0.14957279166668513,
            "durationTicks": 140,
            "midi": 52,
            "name": "E3",
            "ticks": 221760,
            "time": 236.92330199999998,
            "velocity": 1
          },
          {
            "duration": 0.13675226666666163,
            "durationTicks": 128,
            "midi": 49,
            "name": "C#3",
            "ticks": 222000,
            "time": 237.1797125,
            "velocity": 1
          },
          {
            "duration": 0.1634616937500084,
            "durationTicks": 153,
            "midi": 47,
            "name": "B2",
            "ticks": 222240,
            "time": 237.43612299999998,
            "velocity": 1
          },
          {
            "duration": 0.14423090624998736,
            "durationTicks": 135,
            "midi": 49,
            "name": "C#3",
            "ticks": 222480,
            "time": 237.6925335,
            "velocity": 1
          },
          {
            "duration": 0.12606849583335134,
            "durationTicks": 118,
            "midi": 54,
            "name": "F#3",
            "ticks": 222720,
            "time": 237.94894399999998,
            "velocity": 1
          },
          {
            "duration": 0.1282052499999793,
            "durationTicks": 120,
            "midi": 49,
            "name": "C#3",
            "ticks": 222960,
            "time": 238.2053545,
            "velocity": 1
          },
          {
            "duration": 0.14209415208333098,
            "durationTicks": 133,
            "midi": 52,
            "name": "E3",
            "ticks": 223200,
            "time": 238.46176499999999,
            "velocity": 1
          },
          {
            "duration": 0.12286336458333835,
            "durationTicks": 115,
            "midi": 54,
            "name": "F#3",
            "ticks": 223440,
            "time": 238.71817549999997,
            "velocity": 1
          },
          {
            "duration": 0.15811980833333905,
            "durationTicks": 148,
            "midi": 52,
            "name": "E3",
            "ticks": 223680,
            "time": 238.974586,
            "velocity": 1
          },
          {
            "duration": 0.14423090625001578,
            "durationTicks": 135,
            "midi": 49,
            "name": "C#3",
            "ticks": 223920,
            "time": 239.23099649999997,
            "velocity": 1
          },
          {
            "duration": 0.1741454645833187,
            "durationTicks": 163,
            "midi": 47,
            "name": "B2",
            "ticks": 224160,
            "time": 239.487407,
            "velocity": 1
          },
          {
            "duration": 0.13675226666666163,
            "durationTicks": 128,
            "midi": 49,
            "name": "C#3",
            "ticks": 224400,
            "time": 239.74381749999998,
            "velocity": 1
          },
          {
            "duration": 0.13354713541667707,
            "durationTicks": 125,
            "midi": 54,
            "name": "F#3",
            "ticks": 224640,
            "time": 240.000228,
            "velocity": 1
          },
          {
            "duration": 0.138889020833318,
            "durationTicks": 130,
            "midi": 49,
            "name": "C#3",
            "ticks": 224880,
            "time": 240.25663849999998,
            "velocity": 1
          },
          {
            "duration": 0.14743603750000034,
            "durationTicks": 138,
            "midi": 52,
            "name": "E3",
            "ticks": 225120,
            "time": 240.513049,
            "velocity": 1
          },
          {
            "duration": 0.13675226666666163,
            "durationTicks": 128,
            "midi": 54,
            "name": "F#3",
            "ticks": 225360,
            "time": 240.76945949999998,
            "velocity": 1
          },
          {
            "duration": 0.1495727916666567,
            "durationTicks": 140,
            "midi": 52,
            "name": "E3",
            "ticks": 225600,
            "time": 241.02587,
            "velocity": 1
          },
          {
            "duration": 0.13675226666666163,
            "durationTicks": 128,
            "midi": 49,
            "name": "C#3",
            "ticks": 225840,
            "time": 241.28228049999998,
            "velocity": 1
          },
          {
            "duration": 0.1634616937500084,
            "durationTicks": 153,
            "midi": 47,
            "name": "B2",
            "ticks": 226080,
            "time": 241.538691,
            "velocity": 1
          },
          {
            "duration": 0.14423090624998736,
            "durationTicks": 135,
            "midi": 49,
            "name": "C#3",
            "ticks": 226320,
            "time": 241.7951015,
            "velocity": 1
          },
          {
            "duration": 0.12606849583335134,
            "durationTicks": 118,
            "midi": 54,
            "name": "F#3",
            "ticks": 226560,
            "time": 242.05151199999997,
            "velocity": 1
          },
          {
            "duration": 0.1282052500000077,
            "durationTicks": 120,
            "midi": 49,
            "name": "C#3",
            "ticks": 226800,
            "time": 242.3079225,
            "velocity": 1
          },
          {
            "duration": 0.1420941520833594,
            "durationTicks": 133,
            "midi": 52,
            "name": "E3",
            "ticks": 227040,
            "time": 242.56433299999998,
            "velocity": 1
          },
          {
            "duration": 0.12286336458330993,
            "durationTicks": 115,
            "midi": 54,
            "name": "F#3",
            "ticks": 227280,
            "time": 242.8207435,
            "velocity": 1
          },
          {
            "duration": 0.15811980833333905,
            "durationTicks": 148,
            "midi": 52,
            "name": "E3",
            "ticks": 227520,
            "time": 243.07715399999998,
            "velocity": 1
          },
          {
            "duration": 0.14423090624998736,
            "durationTicks": 135,
            "midi": 49,
            "name": "C#3",
            "ticks": 227760,
            "time": 243.3335645,
            "velocity": 1
          },
          {
            "duration": 0.17414546458334712,
            "durationTicks": 163,
            "midi": 47,
            "name": "B2",
            "ticks": 228000,
            "time": 243.58997499999998,
            "velocity": 1
          },
          {
            "duration": 0.13675226666666163,
            "durationTicks": 128,
            "midi": 49,
            "name": "C#3",
            "ticks": 228240,
            "time": 243.8463855,
            "velocity": 1
          },
          {
            "duration": 0.1282052500000077,
            "durationTicks": 120,
            "midi": 59,
            "name": "B3",
            "ticks": 228480,
            "time": 244.10279599999998,
            "velocity": 1
          },
          {
            "duration": 0.0940171833333352,
            "durationTicks": 88,
            "midi": 54,
            "name": "F#3",
            "ticks": 228720,
            "time": 244.3592065,
            "velocity": 1
          },
          {
            "duration": 0.138889020833318,
            "durationTicks": 130,
            "midi": 57,
            "name": "A3",
            "ticks": 228960,
            "time": 244.615617,
            "velocity": 1
          },
          {
            "duration": 0.1869659895833422,
            "durationTicks": 175,
            "midi": 59,
            "name": "B3",
            "ticks": 229200,
            "time": 244.87202749999997,
            "velocity": 1
          },
          {
            "duration": 0.14957279166668513,
            "durationTicks": 140,
            "midi": 54,
            "name": "F#3",
            "ticks": 229680,
            "time": 245.38484849999998,
            "velocity": 1
          },
          {
            "duration": 0.16025656249999543,
            "durationTicks": 150,
            "midi": 52,
            "name": "E3",
            "ticks": 229920,
            "time": 245.641259,
            "velocity": 1
          },
          {
            "duration": 0.138889020833318,
            "durationTicks": 130,
            "midi": 54,
            "name": "F#3",
            "ticks": 230160,
            "time": 245.89766949999998,
            "velocity": 1
          },
          {
            "duration": 0.13141038124999227,
            "durationTicks": 123,
            "midi": 59,
            "name": "B3",
            "ticks": 230400,
            "time": 246.15408,
            "velocity": 1
          },
          {
            "duration": 0.13354713541667707,
            "durationTicks": 125,
            "midi": 54,
            "name": "F#3",
            "ticks": 230640,
            "time": 246.41049049999998,
            "velocity": 1
          },
          {
            "duration": 0.15277792291664127,
            "durationTicks": 143,
            "midi": 57,
            "name": "A3",
            "ticks": 230880,
            "time": 246.666901,
            "velocity": 1
          },
          {
            "duration": 0.18162410416667285,
            "durationTicks": 170,
            "midi": 59,
            "name": "B3",
            "ticks": 231120,
            "time": 246.92331149999998,
            "velocity": 1
          },
          {
            "duration": 0.16880357916664934,
            "durationTicks": 158,
            "midi": 54,
            "name": "F#3",
            "ticks": 231600,
            "time": 247.43613249999999,
            "velocity": 1
          },
          {
            "duration": 0.16025656250002385,
            "durationTicks": 150,
            "midi": 52,
            "name": "E3",
            "ticks": 231840,
            "time": 247.69254299999997,
            "velocity": 1
          },
          {
            "duration": 0.16880357916664934,
            "durationTicks": 158,
            "midi": 49,
            "name": "C#3",
            "ticks": 232080,
            "time": 247.9489535,
            "velocity": 1
          },
          {
            "duration": 0.13354713541667707,
            "durationTicks": 125,
            "midi": 54,
            "name": "F#3",
            "ticks": 232320,
            "time": 248.20536399999997,
            "velocity": 1
          },
          {
            "duration": 0.138889020833318,
            "durationTicks": 130,
            "midi": 49,
            "name": "C#3",
            "ticks": 232560,
            "time": 248.4617745,
            "velocity": 1
          },
          {
            "duration": 0.14743603750002876,
            "durationTicks": 138,
            "midi": 52,
            "name": "E3",
            "ticks": 232800,
            "time": 248.71818499999998,
            "velocity": 1
          },
          {
            "duration": 0.13675226666666163,
            "durationTicks": 128,
            "midi": 54,
            "name": "F#3",
            "ticks": 233040,
            "time": 248.9745955,
            "velocity": 1
          },
          {
            "duration": 0.14957279166668513,
            "durationTicks": 140,
            "midi": 52,
            "name": "E3",
            "ticks": 233280,
            "time": 249.23100599999998,
            "velocity": 1
          },
          {
            "duration": 0.13675226666666163,
            "durationTicks": 128,
            "midi": 49,
            "name": "C#3",
            "ticks": 233520,
            "time": 249.4874165,
            "velocity": 1
          },
          {
            "duration": 0.1634616937500084,
            "durationTicks": 153,
            "midi": 47,
            "name": "B2",
            "ticks": 233760,
            "time": 249.74382699999998,
            "velocity": 1
          },
          {
            "duration": 0.14423090624998736,
            "durationTicks": 135,
            "midi": 49,
            "name": "C#3",
            "ticks": 234000,
            "time": 250.0002375,
            "velocity": 1
          },
          {
            "duration": 0.1260684958333229,
            "durationTicks": 118,
            "midi": 54,
            "name": "F#3",
            "ticks": 234240,
            "time": 250.25664799999998,
            "velocity": 1
          },
          {
            "duration": 0.1282052499999793,
            "durationTicks": 120,
            "midi": 49,
            "name": "C#3",
            "ticks": 234480,
            "time": 250.5130585,
            "velocity": 1
          },
          {
            "duration": 0.14209415208333098,
            "durationTicks": 133,
            "midi": 52,
            "name": "E3",
            "ticks": 234720,
            "time": 250.769469,
            "velocity": 1
          },
          {
            "duration": 0.12286336458333835,
            "durationTicks": 115,
            "midi": 54,
            "name": "F#3",
            "ticks": 234960,
            "time": 251.02587949999997,
            "velocity": 1
          },
          {
            "duration": 0.15811980833333905,
            "durationTicks": 148,
            "midi": 52,
            "name": "E3",
            "ticks": 235200,
            "time": 251.28229,
            "velocity": 1
          },
          {
            "duration": 0.14423090625001578,
            "durationTicks": 135,
            "midi": 49,
            "name": "C#3",
            "ticks": 235440,
            "time": 251.53870049999998,
            "velocity": 1
          },
          {
            "duration": 0.1741454645833187,
            "durationTicks": 163,
            "midi": 47,
            "name": "B2",
            "ticks": 235680,
            "time": 251.795111,
            "velocity": 1
          },
          {
            "duration": 0.13675226666666163,
            "durationTicks": 128,
            "midi": 49,
            "name": "C#3",
            "ticks": 235920,
            "time": 252.05152149999998,
            "velocity": 1
          },
          {
            "duration": 0.1282052499999793,
            "durationTicks": 120,
            "midi": 59,
            "name": "B3",
            "ticks": 236160,
            "time": 252.307932,
            "velocity": 1
          },
          {
            "duration": 0.0940171833333352,
            "durationTicks": 88,
            "midi": 54,
            "name": "F#3",
            "ticks": 236400,
            "time": 252.56434249999998,
            "velocity": 1
          },
          {
            "duration": 0.138889020833318,
            "durationTicks": 130,
            "midi": 57,
            "name": "A3",
            "ticks": 236640,
            "time": 252.820753,
            "velocity": 1
          },
          {
            "duration": 0.18696598958331379,
            "durationTicks": 175,
            "midi": 59,
            "name": "B3",
            "ticks": 236880,
            "time": 253.07716349999998,
            "velocity": 1
          },
          {
            "duration": 0.14957279166668513,
            "durationTicks": 140,
            "midi": 54,
            "name": "F#3",
            "ticks": 237360,
            "time": 253.58998449999999,
            "velocity": 1
          },
          {
            "duration": 0.16025656250002385,
            "durationTicks": 150,
            "midi": 52,
            "name": "E3",
            "ticks": 237600,
            "time": 253.84639499999997,
            "velocity": 1
          },
          {
            "duration": 0.138889020833318,
            "durationTicks": 130,
            "midi": 54,
            "name": "F#3",
            "ticks": 237840,
            "time": 254.1028055,
            "velocity": 1
          },
          {
            "duration": 0.1314103812500207,
            "durationTicks": 123,
            "midi": 59,
            "name": "B3",
            "ticks": 238080,
            "time": 254.35921599999998,
            "velocity": 1
          },
          {
            "duration": 0.13354713541667707,
            "durationTicks": 125,
            "midi": 54,
            "name": "F#3",
            "ticks": 238320,
            "time": 254.6156265,
            "velocity": 1
          },
          {
            "duration": 0.1527779229166697,
            "durationTicks": 143,
            "midi": 57,
            "name": "A3",
            "ticks": 238560,
            "time": 254.87203699999998,
            "velocity": 1
          },
          {
            "duration": 0.18162410416667285,
            "durationTicks": 170,
            "midi": 59,
            "name": "B3",
            "ticks": 238800,
            "time": 255.1284475,
            "velocity": 1
          },
          {
            "duration": 0.16880357916664934,
            "durationTicks": 158,
            "midi": 54,
            "name": "F#3",
            "ticks": 239280,
            "time": 255.6412685,
            "velocity": 1
          },
          {
            "duration": 0.16025656250002385,
            "durationTicks": 150,
            "midi": 52,
            "name": "E3",
            "ticks": 239520,
            "time": 255.89767899999998,
            "velocity": 1
          },
          {
            "duration": 0.16880357916664934,
            "durationTicks": 158,
            "midi": 49,
            "name": "C#3",
            "ticks": 239760,
            "time": 256.1540895,
            "velocity": 1
          },
          {
            "duration": 0.13354713541667707,
            "durationTicks": 125,
            "midi": 54,
            "name": "F#3",
            "ticks": 240000,
            "time": 256.4105,
            "velocity": 1
          },
          {
            "duration": 0.13888902083334642,
            "durationTicks": 130,
            "midi": 49,
            "name": "C#3",
            "ticks": 240240,
            "time": 256.6669105,
            "velocity": 1
          },
          {
            "duration": 0.14743603750002876,
            "durationTicks": 138,
            "midi": 52,
            "name": "E3",
            "ticks": 240480,
            "time": 256.923321,
            "velocity": 1
          },
          {
            "duration": 0.1367522666666332,
            "durationTicks": 128,
            "midi": 54,
            "name": "F#3",
            "ticks": 240720,
            "time": 257.1797315,
            "velocity": 1
          },
          {
            "duration": 0.14957279166668513,
            "durationTicks": 140,
            "midi": 52,
            "name": "E3",
            "ticks": 240960,
            "time": 257.43614199999996,
            "velocity": 1
          },
          {
            "duration": 0.13675226666669005,
            "durationTicks": 128,
            "midi": 49,
            "name": "C#3",
            "ticks": 241200,
            "time": 257.6925525,
            "velocity": 1
          },
          {
            "duration": 0.16346169374997999,
            "durationTicks": 153,
            "midi": 47,
            "name": "B2",
            "ticks": 241440,
            "time": 257.948963,
            "velocity": 1
          },
          {
            "duration": 0.14423090624995893,
            "durationTicks": 135,
            "midi": 49,
            "name": "C#3",
            "ticks": 241680,
            "time": 258.2053735,
            "velocity": 1
          },
          {
            "duration": 0.12606849583335134,
            "durationTicks": 118,
            "midi": 54,
            "name": "F#3",
            "ticks": 241920,
            "time": 258.46178399999997,
            "velocity": 1
          },
          {
            "duration": 0.1282052500000077,
            "durationTicks": 120,
            "midi": 49,
            "name": "C#3",
            "ticks": 242160,
            "time": 258.7181945,
            "velocity": 1
          },
          {
            "duration": 0.14209415208330256,
            "durationTicks": 133,
            "midi": 52,
            "name": "E3",
            "ticks": 242400,
            "time": 258.974605,
            "velocity": 1
          },
          {
            "duration": 0.12286336458328151,
            "durationTicks": 115,
            "midi": 54,
            "name": "F#3",
            "ticks": 242640,
            "time": 259.2310155,
            "velocity": 1
          },
          {
            "duration": 0.15811980833336747,
            "durationTicks": 148,
            "midi": 52,
            "name": "E3",
            "ticks": 242880,
            "time": 259.48742599999997,
            "velocity": 1
          },
          {
            "duration": 0.14423090625001578,
            "durationTicks": 135,
            "midi": 49,
            "name": "C#3",
            "ticks": 243120,
            "time": 259.7438365,
            "velocity": 1
          },
          {
            "duration": 0.1741454645833187,
            "durationTicks": 163,
            "midi": 47,
            "name": "B2",
            "ticks": 243360,
            "time": 260.000247,
            "velocity": 1
          },
          {
            "duration": 0.13675226666669005,
            "durationTicks": 128,
            "midi": 49,
            "name": "C#3",
            "ticks": 243600,
            "time": 260.25665749999996,
            "velocity": 1
          },
          {
            "duration": 0.13354713541667707,
            "durationTicks": 125,
            "midi": 54,
            "name": "F#3",
            "ticks": 243840,
            "time": 260.513068,
            "velocity": 1
          },
          {
            "duration": 0.13888902083328958,
            "durationTicks": 130,
            "midi": 49,
            "name": "C#3",
            "ticks": 244080,
            "time": 260.7694785,
            "velocity": 1
          },
          {
            "duration": 0.14743603749997192,
            "durationTicks": 138,
            "midi": 52,
            "name": "E3",
            "ticks": 244320,
            "time": 261.025889,
            "velocity": 1
          },
          {
            "duration": 0.13675226666669005,
            "durationTicks": 128,
            "midi": 54,
            "name": "F#3",
            "ticks": 244560,
            "time": 261.28229949999997,
            "velocity": 1
          },
          {
            "duration": 0.14957279166668513,
            "durationTicks": 140,
            "midi": 52,
            "name": "E3",
            "ticks": 244800,
            "time": 261.53871,
            "velocity": 1
          },
          {
            "duration": 0.1367522666666332,
            "durationTicks": 128,
            "midi": 49,
            "name": "C#3",
            "ticks": 245040,
            "time": 261.7951205,
            "velocity": 1
          },
          {
            "duration": 0.16346169374997999,
            "durationTicks": 153,
            "midi": 47,
            "name": "B2",
            "ticks": 245280,
            "time": 262.051531,
            "velocity": 1
          },
          {
            "duration": 0.14423090625001578,
            "durationTicks": 135,
            "midi": 49,
            "name": "C#3",
            "ticks": 245520,
            "time": 262.30794149999997,
            "velocity": 1
          },
          {
            "duration": 0.1260684958332945,
            "durationTicks": 118,
            "midi": 54,
            "name": "F#3",
            "ticks": 245760,
            "time": 262.564352,
            "velocity": 1
          },
          {
            "duration": 0.1282052500000077,
            "durationTicks": 120,
            "midi": 49,
            "name": "C#3",
            "ticks": 246000,
            "time": 262.8207625,
            "velocity": 1
          },
          {
            "duration": 0.1420941520833594,
            "durationTicks": 133,
            "midi": 52,
            "name": "E3",
            "ticks": 246240,
            "time": 263.07717299999996,
            "velocity": 1
          },
          {
            "duration": 0.12286336458333835,
            "durationTicks": 115,
            "midi": 54,
            "name": "F#3",
            "ticks": 246480,
            "time": 263.3335835,
            "velocity": 1
          },
          {
            "duration": 0.15811980833331063,
            "durationTicks": 148,
            "midi": 52,
            "name": "E3",
            "ticks": 246720,
            "time": 263.589994,
            "velocity": 1
          },
          {
            "duration": 0.14423090624995893,
            "durationTicks": 135,
            "midi": 49,
            "name": "C#3",
            "ticks": 246960,
            "time": 263.8464045,
            "velocity": 1
          },
          {
            "duration": 0.1741454645833187,
            "durationTicks": 163,
            "midi": 47,
            "name": "B2",
            "ticks": 247200,
            "time": 264.10281499999996,
            "velocity": 1
          },
          {
            "duration": 0.13675226666669005,
            "durationTicks": 128,
            "midi": 49,
            "name": "C#3",
            "ticks": 247440,
            "time": 264.3592255,
            "velocity": 1
          },
          {
            "duration": 0.13354713541662022,
            "durationTicks": 125,
            "midi": 54,
            "name": "F#3",
            "ticks": 247680,
            "time": 264.615636,
            "velocity": 1
          },
          {
            "duration": 0.13888902083334642,
            "durationTicks": 130,
            "midi": 49,
            "name": "C#3",
            "ticks": 247920,
            "time": 264.8720465,
            "velocity": 1
          },
          {
            "duration": 0.14743603750002876,
            "durationTicks": 138,
            "midi": 52,
            "name": "E3",
            "ticks": 248160,
            "time": 265.12845699999997,
            "velocity": 1
          },
          {
            "duration": 0.1367522666666332,
            "durationTicks": 128,
            "midi": 54,
            "name": "F#3",
            "ticks": 248400,
            "time": 265.3848675,
            "velocity": 1
          },
          {
            "duration": 0.1495727916666283,
            "durationTicks": 140,
            "midi": 52,
            "name": "E3",
            "ticks": 248640,
            "time": 265.641278,
            "velocity": 1
          },
          {
            "duration": 0.13675226666669005,
            "durationTicks": 128,
            "midi": 49,
            "name": "C#3",
            "ticks": 248880,
            "time": 265.89768849999996,
            "velocity": 1
          },
          {
            "duration": 0.16346169375003683,
            "durationTicks": 153,
            "midi": 47,
            "name": "B2",
            "ticks": 249120,
            "time": 266.154099,
            "velocity": 1
          },
          {
            "duration": 0.14423090625001578,
            "durationTicks": 135,
            "midi": 49,
            "name": "C#3",
            "ticks": 249360,
            "time": 266.4105095,
            "velocity": 1
          },
          {
            "duration": 0.1260684958332945,
            "durationTicks": 118,
            "midi": 54,
            "name": "F#3",
            "ticks": 249600,
            "time": 266.66692,
            "velocity": 1
          },
          {
            "duration": 0.1282052500000077,
            "durationTicks": 120,
            "midi": 49,
            "name": "C#3",
            "ticks": 249840,
            "time": 266.92333049999996,
            "velocity": 1
          },
          {
            "duration": 0.14209415208330256,
            "durationTicks": 133,
            "midi": 52,
            "name": "E3",
            "ticks": 250080,
            "time": 267.179741,
            "velocity": 1
          },
          {
            "duration": 0.12286336458333835,
            "durationTicks": 115,
            "midi": 54,
            "name": "F#3",
            "ticks": 250320,
            "time": 267.4361515,
            "velocity": 1
          },
          {
            "duration": 0.1581198083332538,
            "durationTicks": 148,
            "midi": 52,
            "name": "E3",
            "ticks": 250560,
            "time": 267.692562,
            "velocity": 1
          },
          {
            "duration": 0.14423090625001578,
            "durationTicks": 135,
            "midi": 49,
            "name": "C#3",
            "ticks": 250800,
            "time": 267.94897249999997,
            "velocity": 1
          },
          {
            "duration": 0.1741454645833187,
            "durationTicks": 163,
            "midi": 47,
            "name": "B2",
            "ticks": 251040,
            "time": 268.205383,
            "velocity": 1
          },
          {
            "duration": 0.1367522666666332,
            "durationTicks": 128,
            "midi": 49,
            "name": "C#3",
            "ticks": 251280,
            "time": 268.4617935,
            "velocity": 1
          },
          {
            "duration": 0.13354713541667707,
            "durationTicks": 125,
            "midi": 54,
            "name": "F#3",
            "ticks": 251520,
            "time": 268.71820399999996,
            "velocity": 1
          },
          {
            "duration": 0.13888902083334642,
            "durationTicks": 130,
            "midi": 49,
            "name": "C#3",
            "ticks": 251760,
            "time": 268.9746145,
            "velocity": 1
          },
          {
            "duration": 0.14743603750002876,
            "durationTicks": 138,
            "midi": 52,
            "name": "E3",
            "ticks": 252000,
            "time": 269.231025,
            "velocity": 1
          },
          {
            "duration": 0.1367522666666332,
            "durationTicks": 128,
            "midi": 54,
            "name": "F#3",
            "ticks": 252240,
            "time": 269.4874355,
            "velocity": 1
          },
          {
            "duration": 0.14957279166668513,
            "durationTicks": 140,
            "midi": 52,
            "name": "E3",
            "ticks": 252480,
            "time": 269.74384599999996,
            "velocity": 1
          },
          {
            "duration": 0.13675226666669005,
            "durationTicks": 128,
            "midi": 49,
            "name": "C#3",
            "ticks": 252720,
            "time": 270.0002565,
            "velocity": 1
          },
          {
            "duration": 0.16346169374997999,
            "durationTicks": 153,
            "midi": 47,
            "name": "B2",
            "ticks": 252960,
            "time": 270.256667,
            "velocity": 1
          },
          {
            "duration": 0.14423090624995893,
            "durationTicks": 135,
            "midi": 49,
            "name": "C#3",
            "ticks": 253200,
            "time": 270.5130775,
            "velocity": 1
          },
          {
            "duration": 0.12606849583335134,
            "durationTicks": 118,
            "midi": 54,
            "name": "F#3",
            "ticks": 253440,
            "time": 270.76948799999997,
            "velocity": 1
          },
          {
            "duration": 0.1282052500000077,
            "durationTicks": 120,
            "midi": 49,
            "name": "C#3",
            "ticks": 253680,
            "time": 271.0258985,
            "velocity": 1
          },
          {
            "duration": 0.14209415208330256,
            "durationTicks": 133,
            "midi": 52,
            "name": "E3",
            "ticks": 253920,
            "time": 271.282309,
            "velocity": 1
          },
          {
            "duration": 0.1228633645833952,
            "durationTicks": 115,
            "midi": 54,
            "name": "F#3",
            "ticks": 254160,
            "time": 271.53871949999996,
            "velocity": 1
          },
          {
            "duration": 0.15811980833331063,
            "durationTicks": 148,
            "midi": 52,
            "name": "E3",
            "ticks": 254400,
            "time": 271.79513,
            "velocity": 1
          },
          {
            "duration": 0.14423090625001578,
            "durationTicks": 135,
            "midi": 49,
            "name": "C#3",
            "ticks": 254640,
            "time": 272.0515405,
            "velocity": 1
          },
          {
            "duration": 0.17414546458326186,
            "durationTicks": 163,
            "midi": 47,
            "name": "B2",
            "ticks": 254880,
            "time": 272.307951,
            "velocity": 1
          },
          {
            "duration": 0.13675226666669005,
            "durationTicks": 128,
            "midi": 49,
            "name": "C#3",
            "ticks": 255120,
            "time": 272.56436149999996,
            "velocity": 1
          },
          {
            "duration": 0.13354713541667707,
            "durationTicks": 125,
            "midi": 54,
            "name": "F#3",
            "ticks": 255360,
            "time": 272.820772,
            "velocity": 1
          },
          {
            "duration": 0.13888902083334642,
            "durationTicks": 130,
            "midi": 49,
            "name": "C#3",
            "ticks": 255600,
            "time": 273.0771825,
            "velocity": 1
          },
          {
            "duration": 0.14743603749997192,
            "durationTicks": 138,
            "midi": 52,
            "name": "E3",
            "ticks": 255840,
            "time": 273.333593,
            "velocity": 1
          },
          {
            "duration": 0.13675226666669005,
            "durationTicks": 128,
            "midi": 54,
            "name": "F#3",
            "ticks": 256080,
            "time": 273.59000349999997,
            "velocity": 1
          },
          {
            "duration": 0.1495727916666283,
            "durationTicks": 140,
            "midi": 52,
            "name": "E3",
            "ticks": 256320,
            "time": 273.846414,
            "velocity": 1
          },
          {
            "duration": 0.1367522666666332,
            "durationTicks": 128,
            "midi": 49,
            "name": "C#3",
            "ticks": 256560,
            "time": 274.1028245,
            "velocity": 1
          },
          {
            "duration": 0.16346169374997999,
            "durationTicks": 153,
            "midi": 47,
            "name": "B2",
            "ticks": 256800,
            "time": 274.359235,
            "velocity": 1
          },
          {
            "duration": 0.14423090625001578,
            "durationTicks": 135,
            "midi": 49,
            "name": "C#3",
            "ticks": 257040,
            "time": 274.61564549999997,
            "velocity": 1
          },
          {
            "duration": 0.1260684958332945,
            "durationTicks": 118,
            "midi": 54,
            "name": "F#3",
            "ticks": 257280,
            "time": 274.872056,
            "velocity": 1
          },
          {
            "duration": 0.1282052500000077,
            "durationTicks": 120,
            "midi": 49,
            "name": "C#3",
            "ticks": 257520,
            "time": 275.1284665,
            "velocity": 1
          },
          {
            "duration": 0.14209415208330256,
            "durationTicks": 133,
            "midi": 52,
            "name": "E3",
            "ticks": 257760,
            "time": 275.38487699999996,
            "velocity": 1
          },
          {
            "duration": 0.12286336458333835,
            "durationTicks": 115,
            "midi": 54,
            "name": "F#3",
            "ticks": 258000,
            "time": 275.6412875,
            "velocity": 1
          },
          {
            "duration": 0.15811980833331063,
            "durationTicks": 148,
            "midi": 52,
            "name": "E3",
            "ticks": 258240,
            "time": 275.897698,
            "velocity": 1
          },
          {
            "duration": 0.14423090624995893,
            "durationTicks": 135,
            "midi": 49,
            "name": "C#3",
            "ticks": 258480,
            "time": 276.1541085,
            "velocity": 1
          },
          {
            "duration": 0.1741454645833187,
            "durationTicks": 163,
            "midi": 47,
            "name": "B2",
            "ticks": 258720,
            "time": 276.41051899999997,
            "velocity": 1
          },
          {
            "duration": 0.13675226666669005,
            "durationTicks": 128,
            "midi": 49,
            "name": "C#3",
            "ticks": 258960,
            "time": 276.6669295,
            "velocity": 1
          },
          {
            "duration": 0.13354713541662022,
            "durationTicks": 125,
            "midi": 54,
            "name": "F#3",
            "ticks": 259200,
            "time": 276.92334,
            "velocity": 1
          },
          {
            "duration": 0.13888902083334642,
            "durationTicks": 130,
            "midi": 49,
            "name": "C#3",
            "ticks": 259440,
            "time": 277.1797505,
            "velocity": 1
          },
          {
            "duration": 0.14743603750002876,
            "durationTicks": 138,
            "midi": 52,
            "name": "E3",
            "ticks": 259680,
            "time": 277.43616099999997,
            "velocity": 1
          },
          {
            "duration": 0.1367522666666332,
            "durationTicks": 128,
            "midi": 54,
            "name": "F#3",
            "ticks": 259920,
            "time": 277.6925715,
            "velocity": 1
          },
          {
            "duration": 0.1495727916666283,
            "durationTicks": 140,
            "midi": 52,
            "name": "E3",
            "ticks": 260160,
            "time": 277.948982,
            "velocity": 1
          },
          {
            "duration": 0.13675226666669005,
            "durationTicks": 128,
            "midi": 49,
            "name": "C#3",
            "ticks": 260400,
            "time": 278.20539249999996,
            "velocity": 1
          },
          {
            "duration": 0.16346169375003683,
            "durationTicks": 153,
            "midi": 47,
            "name": "B2",
            "ticks": 260640,
            "time": 278.461803,
            "velocity": 1
          },
          {
            "duration": 0.14423090625001578,
            "durationTicks": 135,
            "midi": 49,
            "name": "C#3",
            "ticks": 260880,
            "time": 278.7182135,
            "velocity": 1
          },
          {
            "duration": 0.1260684958332945,
            "durationTicks": 118,
            "midi": 54,
            "name": "F#3",
            "ticks": 261120,
            "time": 278.974624,
            "velocity": 1
          },
          {
            "duration": 0.1282052500000077,
            "durationTicks": 120,
            "midi": 49,
            "name": "C#3",
            "ticks": 261360,
            "time": 279.23103449999996,
            "velocity": 1
          },
          {
            "duration": 0.14209415208330256,
            "durationTicks": 133,
            "midi": 52,
            "name": "E3",
            "ticks": 261600,
            "time": 279.487445,
            "velocity": 1
          },
          {
            "duration": 0.12286336458333835,
            "durationTicks": 115,
            "midi": 54,
            "name": "F#3",
            "ticks": 261840,
            "time": 279.7438555,
            "velocity": 1
          },
          {
            "duration": 0.1581198083332538,
            "durationTicks": 148,
            "midi": 52,
            "name": "E3",
            "ticks": 262080,
            "time": 280.000266,
            "velocity": 1
          },
          {
            "duration": 0.14423090625001578,
            "durationTicks": 135,
            "midi": 49,
            "name": "C#3",
            "ticks": 262320,
            "time": 280.25667649999997,
            "velocity": 1
          },
          {
            "duration": 0.1741454645833187,
            "durationTicks": 163,
            "midi": 47,
            "name": "B2",
            "ticks": 262560,
            "time": 280.513087,
            "velocity": 1
          },
          {
            "duration": 0.1367522666666332,
            "durationTicks": 128,
            "midi": 49,
            "name": "C#3",
            "ticks": 262800,
            "time": 280.7694975,
            "velocity": 1
          },
          {
            "duration": 0.13354713541667707,
            "durationTicks": 125,
            "midi": 54,
            "name": "F#3",
            "ticks": 263040,
            "time": 281.02590799999996,
            "velocity": 1
          },
          {
            "duration": 0.13888902083334642,
            "durationTicks": 130,
            "midi": 49,
            "name": "C#3",
            "ticks": 263280,
            "time": 281.2823185,
            "velocity": 1
          },
          {
            "duration": 0.14743603750002876,
            "durationTicks": 138,
            "midi": 52,
            "name": "E3",
            "ticks": 263520,
            "time": 281.538729,
            "velocity": 1
          },
          {
            "duration": 0.1367522666666332,
            "durationTicks": 128,
            "midi": 54,
            "name": "F#3",
            "ticks": 263760,
            "time": 281.7951395,
            "velocity": 1
          },
          {
            "duration": 0.14957279166668513,
            "durationTicks": 140,
            "midi": 52,
            "name": "E3",
            "ticks": 264000,
            "time": 282.05154999999996,
            "velocity": 1
          },
          {
            "duration": 0.13675226666669005,
            "durationTicks": 128,
            "midi": 49,
            "name": "C#3",
            "ticks": 264240,
            "time": 282.3079605,
            "velocity": 1
          },
          {
            "duration": 0.16346169374997999,
            "durationTicks": 153,
            "midi": 47,
            "name": "B2",
            "ticks": 264480,
            "time": 282.564371,
            "velocity": 1
          },
          {
            "duration": 0.14423090624995893,
            "durationTicks": 135,
            "midi": 49,
            "name": "C#3",
            "ticks": 264720,
            "time": 282.8207815,
            "velocity": 1
          },
          {
            "duration": 0.1260684958332945,
            "durationTicks": 118,
            "midi": 54,
            "name": "F#3",
            "ticks": 264960,
            "time": 283.07719199999997,
            "velocity": 1
          },
          {
            "duration": 0.1282052500000077,
            "durationTicks": 120,
            "midi": 49,
            "name": "C#3",
            "ticks": 265200,
            "time": 283.3336025,
            "velocity": 1
          },
          {
            "duration": 0.14209415208330256,
            "durationTicks": 133,
            "midi": 52,
            "name": "E3",
            "ticks": 265440,
            "time": 283.590013,
            "velocity": 1
          },
          {
            "duration": 0.1228633645833952,
            "durationTicks": 115,
            "midi": 54,
            "name": "F#3",
            "ticks": 265680,
            "time": 283.84642349999996,
            "velocity": 1
          },
          {
            "duration": 0.15811980833331063,
            "durationTicks": 148,
            "midi": 52,
            "name": "E3",
            "ticks": 265920,
            "time": 284.102834,
            "velocity": 1
          },
          {
            "duration": 0.14423090625001578,
            "durationTicks": 135,
            "midi": 49,
            "name": "C#3",
            "ticks": 266160,
            "time": 284.3592445,
            "velocity": 1
          },
          {
            "duration": 0.17414546458326186,
            "durationTicks": 163,
            "midi": 47,
            "name": "B2",
            "ticks": 266400,
            "time": 284.615655,
            "velocity": 1
          },
          {
            "duration": 0.13675226666669005,
            "durationTicks": 128,
            "midi": 49,
            "name": "C#3",
            "ticks": 266640,
            "time": 284.87206549999996,
            "velocity": 1
          },
          {
            "duration": 0.13354713541667707,
            "durationTicks": 125,
            "midi": 54,
            "name": "F#3",
            "ticks": 266880,
            "time": 285.128476,
            "velocity": 1
          },
          {
            "duration": 0.13888902083334642,
            "durationTicks": 130,
            "midi": 49,
            "name": "C#3",
            "ticks": 267120,
            "time": 285.3848865,
            "velocity": 1
          },
          {
            "duration": 0.14743603749997192,
            "durationTicks": 138,
            "midi": 52,
            "name": "E3",
            "ticks": 267360,
            "time": 285.641297,
            "velocity": 1
          },
          {
            "duration": 0.13675226666669005,
            "durationTicks": 128,
            "midi": 54,
            "name": "F#3",
            "ticks": 267600,
            "time": 285.89770749999997,
            "velocity": 1
          },
          {
            "duration": 0.1495727916666283,
            "durationTicks": 140,
            "midi": 52,
            "name": "E3",
            "ticks": 267840,
            "time": 286.154118,
            "velocity": 1
          },
          {
            "duration": 0.1367522666666332,
            "durationTicks": 128,
            "midi": 49,
            "name": "C#3",
            "ticks": 268080,
            "time": 286.4105285,
            "velocity": 1
          },
          {
            "duration": 0.16346169375003683,
            "durationTicks": 153,
            "midi": 47,
            "name": "B2",
            "ticks": 268320,
            "time": 286.66693899999996,
            "velocity": 1
          },
          {
            "duration": 0.14423090625001578,
            "durationTicks": 135,
            "midi": 49,
            "name": "C#3",
            "ticks": 268560,
            "time": 286.9233495,
            "velocity": 1
          },
          {
            "duration": 0.1260684958332945,
            "durationTicks": 118,
            "midi": 54,
            "name": "F#3",
            "ticks": 268800,
            "time": 287.17976,
            "velocity": 1
          },
          {
            "duration": 0.1282052500000077,
            "durationTicks": 120,
            "midi": 49,
            "name": "C#3",
            "ticks": 269040,
            "time": 287.4361705,
            "velocity": 1
          },
          {
            "duration": 0.14209415208330256,
            "durationTicks": 133,
            "midi": 52,
            "name": "E3",
            "ticks": 269280,
            "time": 287.69258099999996,
            "velocity": 1
          },
          {
            "duration": 0.12286336458333835,
            "durationTicks": 115,
            "midi": 54,
            "name": "F#3",
            "ticks": 269520,
            "time": 287.9489915,
            "velocity": 1
          },
          {
            "duration": 0.15811980833331063,
            "durationTicks": 148,
            "midi": 52,
            "name": "E3",
            "ticks": 269760,
            "time": 288.205402,
            "velocity": 1
          },
          {
            "duration": 0.14423090624995893,
            "durationTicks": 135,
            "midi": 49,
            "name": "C#3",
            "ticks": 270000,
            "time": 288.4618125,
            "velocity": 1
          },
          {
            "duration": 0.1741454645833187,
            "durationTicks": 163,
            "midi": 47,
            "name": "B2",
            "ticks": 270240,
            "time": 288.71822299999997,
            "velocity": 1
          },
          {
            "duration": 0.1367522666666332,
            "durationTicks": 128,
            "midi": 49,
            "name": "C#3",
            "ticks": 270480,
            "time": 288.9746335,
            "velocity": 1
          },
          {
            "duration": 0.13354713541662022,
            "durationTicks": 125,
            "midi": 54,
            "name": "F#3",
            "ticks": 270720,
            "time": 289.231044,
            "velocity": 0.3700787401574803
          },
          {
            "duration": 0.13888902083340326,
            "durationTicks": 130,
            "midi": 49,
            "name": "C#3",
            "ticks": 270960,
            "time": 289.48745449999996,
            "velocity": 1
          },
          {
            "duration": 0.14743603750002876,
            "durationTicks": 138,
            "midi": 52,
            "name": "E3",
            "ticks": 271200,
            "time": 289.74386499999997,
            "velocity": 1
          },
          {
            "duration": 0.1367522666666332,
            "durationTicks": 128,
            "midi": 54,
            "name": "F#3",
            "ticks": 271440,
            "time": 290.0002755,
            "velocity": 1
          },
          {
            "duration": 0.1495727916666283,
            "durationTicks": 140,
            "midi": 52,
            "name": "E3",
            "ticks": 271680,
            "time": 290.256686,
            "velocity": 1
          },
          {
            "duration": 0.13675226666669005,
            "durationTicks": 128,
            "midi": 49,
            "name": "C#3",
            "ticks": 271920,
            "time": 290.51309649999996,
            "velocity": 1
          },
          {
            "duration": 0.16346169375003683,
            "durationTicks": 153,
            "midi": 47,
            "name": "B2",
            "ticks": 272160,
            "time": 290.769507,
            "velocity": 1
          },
          {
            "duration": 0.14423090625001578,
            "durationTicks": 135,
            "midi": 49,
            "name": "C#3",
            "ticks": 272400,
            "time": 291.0259175,
            "velocity": 1
          }
        ]
      },
      {
        "channel": 0,
        "controlChanges": {
          "0": [
            {
              "number": 0,
              "ticks": 510,
              "time": 0.5448723125,
              "value": 0
            }
          ],
          "32": [
            {
              "number": 32,
              "ticks": 513,
              "time": 0.54807744375,
              "value": 0
            }
          ],
          "121": [
            {
              "number": 121,
              "ticks": 485,
              "time": 0.5181628854166667,
              "value": 0
            }
          ]
        },
        "pitchBends": [],
        "instrument": {
          "family": "piano",
          "number": 0,
          "name": "acoustic grand piano"
        },
        "name": "       ",
        "notes": [],
        "endOfTrackTicks": 274560
      },
      {
        "channel": 2,
        "controlChanges": {
          "6": [
            {
              "number": 6,
              "ticks": 1573,
              "time": 1.6805571520833331,
              "value": 0.4409448818897638
            },
            {
              "number": 6,
              "ticks": 1694,
              "time": 1.8098307791666666,
              "value": 0.44881889763779526
            },
            {
              "number": 6,
              "ticks": 1755,
              "time": 1.87500178125,
              "value": 0.4566929133858268
            },
            {
              "number": 6,
              "ticks": 1755,
              "time": 1.87500178125,
              "value": 0.4645669291338583
            }
          ],
          "7": [
            {
              "number": 7,
              "ticks": 518,
              "time": 0.5534193291666666,
              "value": 0.7165354330708661
            }
          ],
          "10": [
            {
              "number": 10,
              "ticks": 518,
              "time": 0.5534193291666666,
              "value": 0.5039370078740157
            }
          ],
          "11": [
            {
              "number": 11,
              "ticks": 1300,
              "time": 1.3888902083333334,
              "value": 1
            },
            {
              "number": 11,
              "ticks": 46565,
              "time": 49.74897888541667,
              "value": 1
            },
            {
              "number": 11,
              "ticks": 46580,
              "time": 49.76500454166666,
              "value": 0.9606299212598425
            },
            {
              "number": 11,
              "ticks": 46595,
              "time": 49.781030197916664,
              "value": 0.9133858267716536
            },
            {
              "number": 11,
              "ticks": 46610,
              "time": 49.797055854166665,
              "value": 0.8661417322834646
            },
            {
              "number": 11,
              "ticks": 46625,
              "time": 49.813081510416666,
              "value": 0.8188976377952756
            },
            {
              "number": 11,
              "ticks": 46640,
              "time": 49.82910716666667,
              "value": 0.7795275590551181
            },
            {
              "number": 11,
              "ticks": 46655,
              "time": 49.84513282291667,
              "value": 0.7322834645669292
            },
            {
              "number": 11,
              "ticks": 46670,
              "time": 49.86115847916667,
              "value": 0.6850393700787402
            },
            {
              "number": 11,
              "ticks": 46685,
              "time": 49.87718413541667,
              "value": 0.6377952755905512
            },
            {
              "number": 11,
              "ticks": 46745,
              "time": 49.941286760416666,
              "value": 0.6535433070866141
            },
            {
              "number": 11,
              "ticks": 46805,
              "time": 50.00538938541666,
              "value": 0.6771653543307087
            },
            {
              "number": 11,
              "ticks": 46835,
              "time": 50.037440697916665,
              "value": 0.6850393700787402
            },
            {
              "number": 11,
              "ticks": 46865,
              "time": 50.06949201041667,
              "value": 0.7007874015748031
            },
            {
              "number": 11,
              "ticks": 46895,
              "time": 50.10154332291667,
              "value": 0.7086614173228346
            },
            {
              "number": 11,
              "ticks": 46925,
              "time": 50.133594635416664,
              "value": 0.7244094488188977
            },
            {
              "number": 11,
              "ticks": 46985,
              "time": 50.19769726041667,
              "value": 0.7401574803149606
            },
            {
              "number": 11,
              "ticks": 47045,
              "time": 50.261799885416664,
              "value": 0.7637795275590551
            },
            {
              "number": 11,
              "ticks": 47075,
              "time": 50.293851197916666,
              "value": 0.7716535433070866
            },
            {
              "number": 11,
              "ticks": 47105,
              "time": 50.32590251041667,
              "value": 0.7874015748031497
            },
            {
              "number": 11,
              "ticks": 47135,
              "time": 50.35795382291666,
              "value": 0.7952755905511811
            },
            {
              "number": 11,
              "ticks": 47165,
              "time": 50.390005135416665,
              "value": 0.8110236220472441
            },
            {
              "number": 11,
              "ticks": 47225,
              "time": 50.45410776041667,
              "value": 0.8267716535433071
            },
            {
              "number": 11,
              "ticks": 47285,
              "time": 50.518210385416666,
              "value": 0.8503937007874016
            },
            {
              "number": 11,
              "ticks": 47315,
              "time": 50.55026169791667,
              "value": 0.8582677165354331
            },
            {
              "number": 11,
              "ticks": 47345,
              "time": 50.58231301041667,
              "value": 0.8740157480314961
            },
            {
              "number": 11,
              "ticks": 47375,
              "time": 50.614364322916664,
              "value": 0.8818897637795275
            },
            {
              "number": 11,
              "ticks": 47405,
              "time": 50.646415635416666,
              "value": 0.8976377952755905
            },
            {
              "number": 11,
              "ticks": 47465,
              "time": 50.71051826041666,
              "value": 0.9133858267716536
            },
            {
              "number": 11,
              "ticks": 47525,
              "time": 50.77462088541667,
              "value": 0.937007874015748
            },
            {
              "number": 11,
              "ticks": 47555,
              "time": 50.80667219791667,
              "value": 0.952755905511811
            },
            {
              "number": 11,
              "ticks": 47585,
              "time": 50.83872351041666,
              "value": 0.968503937007874
            },
            {
              "number": 11,
              "ticks": 47615,
              "time": 50.870774822916665,
              "value": 0.984251968503937
            },
            {
              "number": 11,
              "ticks": 47645,
              "time": 50.90282613541667,
              "value": 1
            },
            {
              "number": 11,
              "ticks": 61925,
              "time": 66.15925088541665,
              "value": 1
            },
            {
              "number": 11,
              "ticks": 61940,
              "time": 66.17527654166666,
              "value": 0.9606299212598425
            },
            {
              "number": 11,
              "ticks": 61955,
              "time": 66.19130219791666,
              "value": 0.9133858267716536
            },
            {
              "number": 11,
              "ticks": 61970,
              "time": 66.20732785416666,
              "value": 0.8661417322834646
            },
            {
              "number": 11,
              "ticks": 61985,
              "time": 66.22335351041666,
              "value": 0.8188976377952756
            },
            {
              "number": 11,
              "ticks": 62000,
              "time": 66.23937916666665,
              "value": 0.7795275590551181
            },
            {
              "number": 11,
              "ticks": 62015,
              "time": 66.25540482291666,
              "value": 0.7322834645669292
            },
            {
              "number": 11,
              "ticks": 62030,
              "time": 66.27143047916665,
              "value": 0.6850393700787402
            },
            {
              "number": 11,
              "ticks": 62045,
              "time": 66.28745613541666,
              "value": 0.6377952755905512
            },
            {
              "number": 11,
              "ticks": 62075,
              "time": 66.31950744791666,
              "value": 0.6456692913385826
            },
            {
              "number": 11,
              "ticks": 62105,
              "time": 66.35155876041665,
              "value": 0.6614173228346457
            },
            {
              "number": 11,
              "ticks": 62135,
              "time": 66.38361007291665,
              "value": 0.6692913385826772
            },
            {
              "number": 11,
              "ticks": 62165,
              "time": 66.41566138541666,
              "value": 0.6850393700787402
            },
            {
              "number": 11,
              "ticks": 62195,
              "time": 66.44771269791666,
              "value": 0.6929133858267716
            },
            {
              "number": 11,
              "ticks": 62225,
              "time": 66.47976401041666,
              "value": 0.7086614173228346
            },
            {
              "number": 11,
              "ticks": 62255,
              "time": 66.51181532291666,
              "value": 0.7165354330708661
            },
            {
              "number": 11,
              "ticks": 62285,
              "time": 66.54386663541666,
              "value": 0.7322834645669292
            },
            {
              "number": 11,
              "ticks": 62315,
              "time": 66.57591794791666,
              "value": 0.7401574803149606
            },
            {
              "number": 11,
              "ticks": 62345,
              "time": 66.60796926041665,
              "value": 0.7559055118110236
            },
            {
              "number": 11,
              "ticks": 62375,
              "time": 66.64002057291665,
              "value": 0.7716535433070866
            },
            {
              "number": 11,
              "ticks": 62405,
              "time": 66.67207188541666,
              "value": 0.7874015748031497
            },
            {
              "number": 11,
              "ticks": 62435,
              "time": 66.70412319791666,
              "value": 0.7952755905511811
            },
            {
              "number": 11,
              "ticks": 62465,
              "time": 66.73617451041666,
              "value": 0.8110236220472441
            },
            {
              "number": 11,
              "ticks": 62495,
              "time": 66.76822582291666,
              "value": 0.8188976377952756
            },
            {
              "number": 11,
              "ticks": 62525,
              "time": 66.80027713541666,
              "value": 0.8346456692913385
            },
            {
              "number": 11,
              "ticks": 62555,
              "time": 66.83232844791665,
              "value": 0.84251968503937
            },
            {
              "number": 11,
              "ticks": 62585,
              "time": 66.86437976041665,
              "value": 0.8582677165354331
            },
            {
              "number": 11,
              "ticks": 62615,
              "time": 66.89643107291666,
              "value": 0.8661417322834646
            },
            {
              "number": 11,
              "ticks": 62645,
              "time": 66.92848238541666,
              "value": 0.8818897637795275
            },
            {
              "number": 11,
              "ticks": 62675,
              "time": 66.96053369791666,
              "value": 0.889763779527559
            },
            {
              "number": 11,
              "ticks": 62705,
              "time": 66.99258501041666,
              "value": 0.905511811023622
            },
            {
              "number": 11,
              "ticks": 62735,
              "time": 67.02463632291666,
              "value": 0.9133858267716536
            },
            {
              "number": 11,
              "ticks": 62765,
              "time": 67.05668763541665,
              "value": 0.9291338582677166
            },
            {
              "number": 11,
              "ticks": 62795,
              "time": 67.08873894791665,
              "value": 0.9448818897637795
            },
            {
              "number": 11,
              "ticks": 62825,
              "time": 67.12079026041665,
              "value": 0.9606299212598425
            },
            {
              "number": 11,
              "ticks": 62855,
              "time": 67.15284157291666,
              "value": 0.9763779527559056
            },
            {
              "number": 11,
              "ticks": 62885,
              "time": 67.18489288541666,
              "value": 1
            },
            {
              "number": 11,
              "ticks": 259245,
              "time": 276.97141696874996,
              "value": 1
            },
            {
              "number": 11,
              "ticks": 259365,
              "time": 277.09962221874997,
              "value": 0.9921259842519685
            },
            {
              "number": 11,
              "ticks": 259465,
              "time": 277.20645992708336,
              "value": 0.984251968503937
            },
            {
              "number": 11,
              "ticks": 259565,
              "time": 277.31329763541663,
              "value": 0.9763779527559056
            },
            {
              "number": 11,
              "ticks": 259685,
              "time": 277.44150288541664,
              "value": 0.968503937007874
            },
            {
              "number": 11,
              "ticks": 259785,
              "time": 277.54834059374997,
              "value": 0.9606299212598425
            },
            {
              "number": 11,
              "ticks": 259885,
              "time": 277.65517830208336,
              "value": 0.952755905511811
            },
            {
              "number": 11,
              "ticks": 259985,
              "time": 277.76201601041663,
              "value": 0.9448818897637795
            },
            {
              "number": 11,
              "ticks": 260105,
              "time": 277.89022126041664,
              "value": 0.937007874015748
            },
            {
              "number": 11,
              "ticks": 260205,
              "time": 277.99705896874997,
              "value": 0.9291338582677166
            },
            {
              "number": 11,
              "ticks": 260305,
              "time": 278.10389667708336,
              "value": 0.9212598425196851
            },
            {
              "number": 11,
              "ticks": 260405,
              "time": 278.21073438541663,
              "value": 0.9133858267716536
            },
            {
              "number": 11,
              "ticks": 260525,
              "time": 278.33893963541664,
              "value": 0.905511811023622
            },
            {
              "number": 11,
              "ticks": 260625,
              "time": 278.44577734374997,
              "value": 0.8976377952755905
            },
            {
              "number": 11,
              "ticks": 260725,
              "time": 278.55261505208335,
              "value": 0.889763779527559
            },
            {
              "number": 11,
              "ticks": 260825,
              "time": 278.6594527604166,
              "value": 0.8818897637795275
            },
            {
              "number": 11,
              "ticks": 260945,
              "time": 278.78765801041664,
              "value": 0.8740157480314961
            },
            {
              "number": 11,
              "ticks": 261045,
              "time": 278.89449571874997,
              "value": 0.8661417322834646
            },
            {
              "number": 11,
              "ticks": 261145,
              "time": 279.00133342708335,
              "value": 0.8582677165354331
            },
            {
              "number": 11,
              "ticks": 261245,
              "time": 279.1081711354166,
              "value": 0.8503937007874016
            },
            {
              "number": 11,
              "ticks": 261365,
              "time": 279.23637638541663,
              "value": 0.84251968503937
            },
            {
              "number": 11,
              "ticks": 261465,
              "time": 279.34321409374996,
              "value": 0.8346456692913385
            },
            {
              "number": 11,
              "ticks": 261565,
              "time": 279.45005180208335,
              "value": 0.8267716535433071
            },
            {
              "number": 11,
              "ticks": 261665,
              "time": 279.5568895104166,
              "value": 0.8188976377952756
            },
            {
              "number": 11,
              "ticks": 261785,
              "time": 279.68509476041663,
              "value": 0.8110236220472441
            },
            {
              "number": 11,
              "ticks": 261885,
              "time": 279.79193246874996,
              "value": 0.8031496062992126
            },
            {
              "number": 11,
              "ticks": 261985,
              "time": 279.89877017708335,
              "value": 0.7952755905511811
            },
            {
              "number": 11,
              "ticks": 262085,
              "time": 280.0056078854166,
              "value": 0.7874015748031497
            },
            {
              "number": 11,
              "ticks": 262205,
              "time": 280.13381313541663,
              "value": 0.7795275590551181
            },
            {
              "number": 11,
              "ticks": 262305,
              "time": 280.24065084374996,
              "value": 0.7716535433070866
            },
            {
              "number": 11,
              "ticks": 262405,
              "time": 280.34748855208335,
              "value": 0.7637795275590551
            },
            {
              "number": 11,
              "ticks": 262505,
              "time": 280.4543262604166,
              "value": 0.7559055118110236
            },
            {
              "number": 11,
              "ticks": 262625,
              "time": 280.58253151041663,
              "value": 0.7480314960629921
            },
            {
              "number": 11,
              "ticks": 262725,
              "time": 280.68936921874996,
              "value": 0.7401574803149606
            },
            {
              "number": 11,
              "ticks": 262825,
              "time": 280.79620692708335,
              "value": 0.7322834645669292
            },
            {
              "number": 11,
              "ticks": 262925,
              "time": 280.9030446354166,
              "value": 0.7244094488188977
            },
            {
              "number": 11,
              "ticks": 263045,
              "time": 281.0312498854166,
              "value": 0.7165354330708661
            },
            {
              "number": 11,
              "ticks": 263145,
              "time": 281.13808759374996,
              "value": 0.7086614173228346
            },
            {
              "number": 11,
              "ticks": 263245,
              "time": 281.24492530208335,
              "value": 0.7007874015748031
            },
            {
              "number": 11,
              "ticks": 263345,
              "time": 281.3517630104166,
              "value": 0.6929133858267716
            },
            {
              "number": 11,
              "ticks": 263465,
              "time": 281.4799682604166,
              "value": 0.6850393700787402
            },
            {
              "number": 11,
              "ticks": 263565,
              "time": 281.58680596874996,
              "value": 0.6771653543307087
            },
            {
              "number": 11,
              "ticks": 263665,
              "time": 281.69364367708334,
              "value": 0.6692913385826772
            },
            {
              "number": 11,
              "ticks": 263765,
              "time": 281.8004813854166,
              "value": 0.6614173228346457
            },
            {
              "number": 11,
              "ticks": 263885,
              "time": 281.9286866354166,
              "value": 0.6535433070866141
            },
            {
              "number": 11,
              "ticks": 263985,
              "time": 282.03552434375,
              "value": 0.6456692913385826
            },
            {
              "number": 11,
              "ticks": 264085,
              "time": 282.14236205208334,
              "value": 0.6377952755905512
            },
            {
              "number": 11,
              "ticks": 264185,
              "time": 282.2491997604166,
              "value": 0.6299212598425197
            },
            {
              "number": 11,
              "ticks": 264305,
              "time": 282.3774050104166,
              "value": 0.6220472440944882
            },
            {
              "number": 11,
              "ticks": 264405,
              "time": 282.48424271875,
              "value": 0.6141732283464567
            },
            {
              "number": 11,
              "ticks": 264505,
              "time": 282.59108042708334,
              "value": 0.6062992125984252
            },
            {
              "number": 11,
              "ticks": 264605,
              "time": 282.6979181354166,
              "value": 0.5984251968503937
            },
            {
              "number": 11,
              "ticks": 264725,
              "time": 282.8261233854166,
              "value": 0.5905511811023622
            },
            {
              "number": 11,
              "ticks": 264825,
              "time": 282.93296109375,
              "value": 0.5826771653543307
            },
            {
              "number": 11,
              "ticks": 264925,
              "time": 283.03979880208334,
              "value": 0.5748031496062992
            },
            {
              "number": 11,
              "ticks": 265025,
              "time": 283.1466365104166,
              "value": 0.5669291338582677
            },
            {
              "number": 11,
              "ticks": 265145,
              "time": 283.2748417604166,
              "value": 0.5590551181102362
            },
            {
              "number": 11,
              "ticks": 265245,
              "time": 283.38167946875,
              "value": 0.5511811023622047
            },
            {
              "number": 11,
              "ticks": 265345,
              "time": 283.48851717708334,
              "value": 0.5433070866141733
            },
            {
              "number": 11,
              "ticks": 265445,
              "time": 283.5953548854166,
              "value": 0.5354330708661418
            },
            {
              "number": 11,
              "ticks": 265565,
              "time": 283.7235601354166,
              "value": 0.5275590551181102
            },
            {
              "number": 11,
              "ticks": 265665,
              "time": 283.83039784375,
              "value": 0.5196850393700787
            },
            {
              "number": 11,
              "ticks": 265765,
              "time": 283.93723555208334,
              "value": 0.5118110236220472
            },
            {
              "number": 11,
              "ticks": 265865,
              "time": 284.0440732604166,
              "value": 0.5039370078740157
            },
            {
              "number": 11,
              "ticks": 265985,
              "time": 284.1722785104166,
              "value": 0.49606299212598426
            },
            {
              "number": 11,
              "ticks": 266085,
              "time": 284.27911621875,
              "value": 0.4881889763779528
            },
            {
              "number": 11,
              "ticks": 266185,
              "time": 284.38595392708334,
              "value": 0.48031496062992124
            },
            {
              "number": 11,
              "ticks": 266285,
              "time": 284.4927916354166,
              "value": 0.47244094488188976
            },
            {
              "number": 11,
              "ticks": 266405,
              "time": 284.6209968854166,
              "value": 0.4645669291338583
            },
            {
              "number": 11,
              "ticks": 266505,
              "time": 284.72783459375,
              "value": 0.4566929133858268
            },
            {
              "number": 11,
              "ticks": 266605,
              "time": 284.83467230208333,
              "value": 0.44881889763779526
            },
            {
              "number": 11,
              "ticks": 266705,
              "time": 284.9415100104166,
              "value": 0.4409448818897638
            },
            {
              "number": 11,
              "ticks": 266825,
              "time": 285.0697152604166,
              "value": 0.4330708661417323
            },
            {
              "number": 11,
              "ticks": 266925,
              "time": 285.17655296875,
              "value": 0.4251968503937008
            },
            {
              "number": 11,
              "ticks": 267025,
              "time": 285.28339067708333,
              "value": 0.41732283464566927
            },
            {
              "number": 11,
              "ticks": 267125,
              "time": 285.3902283854166,
              "value": 0.4094488188976378
            },
            {
              "number": 11,
              "ticks": 267245,
              "time": 285.5184336354166,
              "value": 0.4015748031496063
            },
            {
              "number": 11,
              "ticks": 267345,
              "time": 285.62527134375,
              "value": 0.3937007874015748
            },
            {
              "number": 11,
              "ticks": 267445,
              "time": 285.73210905208333,
              "value": 0.3858267716535433
            },
            {
              "number": 11,
              "ticks": 267545,
              "time": 285.8389467604166,
              "value": 0.3779527559055118
            },
            {
              "number": 11,
              "ticks": 267665,
              "time": 285.9671520104166,
              "value": 0.3700787401574803
            },
            {
              "number": 11,
              "ticks": 267765,
              "time": 286.07398971875,
              "value": 0.36220472440944884
            },
            {
              "number": 11,
              "ticks": 267865,
              "time": 286.18082742708333,
              "value": 0.3543307086614173
            },
            {
              "number": 11,
              "ticks": 267965,
              "time": 286.2876651354166,
              "value": 0.3464566929133858
            },
            {
              "number": 11,
              "ticks": 268085,
              "time": 286.4158703854166,
              "value": 0.33858267716535434
            },
            {
              "number": 11,
              "ticks": 268185,
              "time": 286.52270809375,
              "value": 0.33070866141732286
            },
            {
              "number": 11,
              "ticks": 268285,
              "time": 286.6295458020833,
              "value": 0.3228346456692913
            },
            {
              "number": 11,
              "ticks": 268385,
              "time": 286.73638351041666,
              "value": 0.31496062992125984
            },
            {
              "number": 11,
              "ticks": 268505,
              "time": 286.8645887604166,
              "value": 0.30708661417322836
            },
            {
              "number": 11,
              "ticks": 268605,
              "time": 286.97142646875,
              "value": 0.2992125984251969
            },
            {
              "number": 11,
              "ticks": 268705,
              "time": 287.0782641770833,
              "value": 0.29133858267716534
            },
            {
              "number": 11,
              "ticks": 268805,
              "time": 287.18510188541666,
              "value": 0.28346456692913385
            },
            {
              "number": 11,
              "ticks": 268925,
              "time": 287.3133071354166,
              "value": 0.2755905511811024
            },
            {
              "number": 11,
              "ticks": 269025,
              "time": 287.42014484375,
              "value": 0.2677165354330709
            },
            {
              "number": 11,
              "ticks": 269125,
              "time": 287.5269825520833,
              "value": 0.25984251968503935
            },
            {
              "number": 11,
              "ticks": 269225,
              "time": 287.63382026041666,
              "value": 0.25196850393700787
            },
            {
              "number": 11,
              "ticks": 269345,
              "time": 287.7620255104166,
              "value": 0.2440944881889764
            },
            {
              "number": 11,
              "ticks": 269445,
              "time": 287.86886321875,
              "value": 0.23622047244094488
            },
            {
              "number": 11,
              "ticks": 269545,
              "time": 287.9757009270833,
              "value": 0.2283464566929134
            },
            {
              "number": 11,
              "ticks": 269645,
              "time": 288.08253863541665,
              "value": 0.2204724409448819
            },
            {
              "number": 11,
              "ticks": 269765,
              "time": 288.2107438854166,
              "value": 0.2125984251968504
            },
            {
              "number": 11,
              "ticks": 269865,
              "time": 288.31758159375,
              "value": 0.2047244094488189
            },
            {
              "number": 11,
              "ticks": 269965,
              "time": 288.4244193020833,
              "value": 0.1968503937007874
            },
            {
              "number": 11,
              "ticks": 270065,
              "time": 288.53125701041665,
              "value": 0.1889763779527559
            },
            {
              "number": 11,
              "ticks": 270185,
              "time": 288.6594622604166,
              "value": 0.18110236220472442
            },
            {
              "number": 11,
              "ticks": 270285,
              "time": 288.76629996875,
              "value": 0.1732283464566929
            },
            {
              "number": 11,
              "ticks": 270385,
              "time": 288.8731376770833,
              "value": 0.16535433070866143
            },
            {
              "number": 11,
              "ticks": 270485,
              "time": 288.97997538541665,
              "value": 0.15748031496062992
            },
            {
              "number": 11,
              "ticks": 270605,
              "time": 289.10818063541666,
              "value": 0.14960629921259844
            },
            {
              "number": 11,
              "ticks": 270705,
              "time": 289.21501834375,
              "value": 0.14173228346456693
            },
            {
              "number": 11,
              "ticks": 270805,
              "time": 289.3218560520833,
              "value": 0.13385826771653545
            },
            {
              "number": 11,
              "ticks": 270905,
              "time": 289.42869376041665,
              "value": 0.12598425196850394
            },
            {
              "number": 11,
              "ticks": 271025,
              "time": 289.55689901041666,
              "value": 0.11811023622047244
            },
            {
              "number": 11,
              "ticks": 271125,
              "time": 289.66373671875,
              "value": 0.11023622047244094
            },
            {
              "number": 11,
              "ticks": 271225,
              "time": 289.7705744270833,
              "value": 0.10236220472440945
            },
            {
              "number": 11,
              "ticks": 271325,
              "time": 289.87741213541665,
              "value": 0.09448818897637795
            },
            {
              "number": 11,
              "ticks": 271445,
              "time": 290.00561738541666,
              "value": 0.08661417322834646
            },
            {
              "number": 11,
              "ticks": 271545,
              "time": 290.11245509375,
              "value": 0.07874015748031496
            },
            {
              "number": 11,
              "ticks": 271645,
              "time": 290.2192928020833,
              "value": 0.07086614173228346
            },
            {
              "number": 11,
              "ticks": 271745,
              "time": 290.32613051041665,
              "value": 0.06299212598425197
            },
            {
              "number": 11,
              "ticks": 271865,
              "time": 290.45433576041665,
              "value": 0.05511811023622047
            },
            {
              "number": 11,
              "ticks": 271965,
              "time": 290.56117346875,
              "value": 0.047244094488188976
            },
            {
              "number": 11,
              "ticks": 272065,
              "time": 290.6680111770833,
              "value": 0.03937007874015748
            },
            {
              "number": 11,
              "ticks": 272165,
              "time": 290.77484888541665,
              "value": 0.031496062992125984
            },
            {
              "number": 11,
              "ticks": 272285,
              "time": 290.90305413541665,
              "value": 0.023622047244094488
            },
            {
              "number": 11,
              "ticks": 272385,
              "time": 291.00989184375,
              "value": 0.015748031496062992
            },
            {
              "number": 11,
              "ticks": 272485,
              "time": 291.1167295520833,
              "value": 0.007874015748031496
            },
            {
              "number": 11,
              "ticks": 272585,
              "time": 291.22356726041664,
              "value": 0
            }
          ],
          "38": [
            {
              "number": 38,
              "ticks": 1575,
              "time": 1.68269390625,
              "value": 0
            },
            {
              "number": 38,
              "ticks": 1758,
              "time": 1.8782069125,
              "value": 0
            }
          ],
          "91": [
            {
              "number": 91,
              "ticks": 968,
              "time": 1.0341890166666665,
              "value": 0.8661417322834646
            }
          ],
          "93": [
            {
              "number": 93,
              "ticks": 1085,
              "time": 1.1591891354166666,
              "value": 0.23622047244094488
            }
          ],
          "98": [
            {
              "number": 98,
              "ticks": 1570,
              "time": 1.6773520208333332,
              "value": 0.7795275590551181
            },
            {
              "number": 98,
              "ticks": 1585,
              "time": 1.6933776770833333,
              "value": 0.7401574803149606
            },
            {
              "number": 98,
              "ticks": 1600,
              "time": 1.7094033333333334,
              "value": 0.6929133858267716
            },
            {
              "number": 98,
              "ticks": 1615,
              "time": 1.7254289895833332,
              "value": 0.6535433070866141
            },
            {
              "number": 98,
              "ticks": 1630,
              "time": 1.7414546458333333,
              "value": 0.6062992125984252
            },
            {
              "number": 98,
              "ticks": 1645,
              "time": 1.7574803020833334,
              "value": 0.5669291338582677
            },
            {
              "number": 98,
              "ticks": 1660,
              "time": 1.7735059583333332,
              "value": 0.5196850393700787
            },
            {
              "number": 98,
              "ticks": 1675,
              "time": 1.7895316145833333,
              "value": 0.48031496062992124
            },
            {
              "number": 98,
              "ticks": 1690,
              "time": 1.8055572708333334,
              "value": 0.4330708661417323
            },
            {
              "number": 98,
              "ticks": 1705,
              "time": 1.8215829270833332,
              "value": 0.3937007874015748
            },
            {
              "number": 98,
              "ticks": 1720,
              "time": 1.8376085833333333,
              "value": 0.3464566929133858
            },
            {
              "number": 98,
              "ticks": 1735,
              "time": 1.8536342395833334,
              "value": 0.30708661417322836
            },
            {
              "number": 98,
              "ticks": 1750,
              "time": 1.8696598958333333,
              "value": 0.25984251968503935
            },
            {
              "number": 98,
              "ticks": 1753,
              "time": 1.8728650270833331,
              "value": 0.25196850393700787
            }
          ],
          "99": [
            {
              "number": 99,
              "ticks": 1568,
              "time": 1.6752152666666666,
              "value": 0.007874015748031496
            },
            {
              "number": 99,
              "ticks": 1750,
              "time": 1.8696598958333333,
              "value": 0.007874015748031496
            }
          ],
          "120": [
            {
              "number": 120,
              "ticks": 272865,
              "time": 291.52271284374996,
              "value": 0
            }
          ],
          "123": [
            {
              "number": 123,
              "ticks": 272935,
              "time": 291.5974992395833,
              "value": 0
            }
          ]
        },
        "pitchBends": [],
        "instrument": {
          "family": "ensemble",
          "number": 50,
          "name": "synthstrings 1"
        },
        "name": "",
        "notes": [
          {
            "duration": 0.1282052500000006,
            "durationTicks": 120,
            "midi": 57,
            "name": "A3",
            "ticks": 21120,
            "time": 22.564124,
            "velocity": 0.968503937007874
          },
          {
            "duration": 0.1282052500000006,
            "durationTicks": 120,
            "midi": 61,
            "name": "C#4",
            "ticks": 21120,
            "time": 22.564124,
            "velocity": 0.968503937007874
          },
          {
            "duration": 0.1282052500000006,
            "durationTicks": 120,
            "midi": 66,
            "name": "F#4",
            "ticks": 21120,
            "time": 22.564124,
            "velocity": 0.968503937007874
          },
          {
            "duration": 0.1282052500000006,
            "durationTicks": 120,
            "midi": 59,
            "name": "B3",
            "ticks": 21840,
            "time": 23.3333555,
            "velocity": 0.968503937007874
          },
          {
            "duration": 0.1282052500000006,
            "durationTicks": 120,
            "midi": 63,
            "name": "D#4",
            "ticks": 21840,
            "time": 23.3333555,
            "velocity": 0.968503937007874
          },
          {
            "duration": 0.1282052500000006,
            "durationTicks": 120,
            "midi": 68,
            "name": "G#4",
            "ticks": 21840,
            "time": 23.3333555,
            "velocity": 0.968503937007874
          },
          {
            "duration": 0.1282052500000006,
            "durationTicks": 120,
            "midi": 61,
            "name": "C#4",
            "ticks": 23040,
            "time": 24.615408,
            "velocity": 0.968503937007874
          },
          {
            "duration": 0.1282052500000006,
            "durationTicks": 120,
            "midi": 64,
            "name": "E4",
            "ticks": 23040,
            "time": 24.615408,
            "velocity": 0.968503937007874
          },
          {
            "duration": 0.1282052500000006,
            "durationTicks": 120,
            "midi": 69,
            "name": "A4",
            "ticks": 23040,
            "time": 24.615408,
            "velocity": 0.968503937007874
          },
          {
            "duration": 0.1282052500000006,
            "durationTicks": 120,
            "midi": 59,
            "name": "B3",
            "ticks": 23760,
            "time": 25.3846395,
            "velocity": 0.968503937007874
          },
          {
            "duration": 0.1282052500000006,
            "durationTicks": 120,
            "midi": 63,
            "name": "D#4",
            "ticks": 23760,
            "time": 25.3846395,
            "velocity": 0.968503937007874
          },
          {
            "duration": 0.1282052500000006,
            "durationTicks": 120,
            "midi": 68,
            "name": "G#4",
            "ticks": 23760,
            "time": 25.3846395,
            "velocity": 0.968503937007874
          },
          {
            "duration": 0.1282052500000006,
            "durationTicks": 120,
            "midi": 57,
            "name": "A3",
            "ticks": 24960,
            "time": 26.666691999999998,
            "velocity": 0.968503937007874
          },
          {
            "duration": 0.1282052500000006,
            "durationTicks": 120,
            "midi": 61,
            "name": "C#4",
            "ticks": 24960,
            "time": 26.666691999999998,
            "velocity": 0.968503937007874
          },
          {
            "duration": 0.1282052500000006,
            "durationTicks": 120,
            "midi": 66,
            "name": "F#4",
            "ticks": 24960,
            "time": 26.666691999999998,
            "velocity": 0.968503937007874
          },
          {
            "duration": 0.1282052500000006,
            "durationTicks": 120,
            "midi": 59,
            "name": "B3",
            "ticks": 25680,
            "time": 27.435923499999998,
            "velocity": 0.968503937007874
          },
          {
            "duration": 0.1282052500000006,
            "durationTicks": 120,
            "midi": 63,
            "name": "D#4",
            "ticks": 25680,
            "time": 27.435923499999998,
            "velocity": 0.968503937007874
          },
          {
            "duration": 0.1282052500000006,
            "durationTicks": 120,
            "midi": 68,
            "name": "G#4",
            "ticks": 25680,
            "time": 27.435923499999998,
            "velocity": 0.968503937007874
          },
          {
            "duration": 0.12820524999999705,
            "durationTicks": 120,
            "midi": 61,
            "name": "C#4",
            "ticks": 26880,
            "time": 28.717976,
            "velocity": 0.968503937007874
          },
          {
            "duration": 0.12820524999999705,
            "durationTicks": 120,
            "midi": 64,
            "name": "E4",
            "ticks": 26880,
            "time": 28.717976,
            "velocity": 0.968503937007874
          },
          {
            "duration": 0.12820524999999705,
            "durationTicks": 120,
            "midi": 69,
            "name": "A4",
            "ticks": 26880,
            "time": 28.717976,
            "velocity": 0.968503937007874
          },
          {
            "duration": 0.1282052500000006,
            "durationTicks": 120,
            "midi": 59,
            "name": "B3",
            "ticks": 27600,
            "time": 29.487207499999997,
            "velocity": 0.968503937007874
          },
          {
            "duration": 0.1282052500000006,
            "durationTicks": 120,
            "midi": 63,
            "name": "D#4",
            "ticks": 27600,
            "time": 29.487207499999997,
            "velocity": 0.968503937007874
          },
          {
            "duration": 0.1282052500000006,
            "durationTicks": 120,
            "midi": 68,
            "name": "G#4",
            "ticks": 27600,
            "time": 29.487207499999997,
            "velocity": 0.968503937007874
          },
          {
            "duration": 0.1282052500000006,
            "durationTicks": 120,
            "midi": 57,
            "name": "A3",
            "ticks": 28800,
            "time": 30.76926,
            "velocity": 0.968503937007874
          },
          {
            "duration": 0.1282052500000006,
            "durationTicks": 120,
            "midi": 61,
            "name": "C#4",
            "ticks": 28800,
            "time": 30.76926,
            "velocity": 0.968503937007874
          },
          {
            "duration": 0.1282052500000006,
            "durationTicks": 120,
            "midi": 66,
            "name": "F#4",
            "ticks": 28800,
            "time": 30.76926,
            "velocity": 0.968503937007874
          },
          {
            "duration": 0.1282052500000006,
            "durationTicks": 120,
            "midi": 59,
            "name": "B3",
            "ticks": 29520,
            "time": 31.5384915,
            "velocity": 0.968503937007874
          },
          {
            "duration": 0.1282052500000006,
            "durationTicks": 120,
            "midi": 63,
            "name": "D#4",
            "ticks": 29520,
            "time": 31.5384915,
            "velocity": 0.968503937007874
          },
          {
            "duration": 0.1282052500000006,
            "durationTicks": 120,
            "midi": 68,
            "name": "G#4",
            "ticks": 29520,
            "time": 31.5384915,
            "velocity": 0.968503937007874
          },
          {
            "duration": 0.1282052500000006,
            "durationTicks": 120,
            "midi": 61,
            "name": "C#4",
            "ticks": 30720,
            "time": 32.820544,
            "velocity": 0.968503937007874
          },
          {
            "duration": 0.1282052500000006,
            "durationTicks": 120,
            "midi": 64,
            "name": "E4",
            "ticks": 30720,
            "time": 32.820544,
            "velocity": 0.968503937007874
          },
          {
            "duration": 0.1282052500000006,
            "durationTicks": 120,
            "midi": 69,
            "name": "A4",
            "ticks": 30720,
            "time": 32.820544,
            "velocity": 0.968503937007874
          },
          {
            "duration": 0.1282052500000006,
            "durationTicks": 120,
            "midi": 59,
            "name": "B3",
            "ticks": 31440,
            "time": 33.589775499999995,
            "velocity": 0.968503937007874
          },
          {
            "duration": 0.1282052500000006,
            "durationTicks": 120,
            "midi": 63,
            "name": "D#4",
            "ticks": 31440,
            "time": 33.589775499999995,
            "velocity": 0.968503937007874
          },
          {
            "duration": 0.1282052500000006,
            "durationTicks": 120,
            "midi": 68,
            "name": "G#4",
            "ticks": 31440,
            "time": 33.589775499999995,
            "velocity": 0.968503937007874
          },
          {
            "duration": 0.1282052500000006,
            "durationTicks": 120,
            "midi": 57,
            "name": "A3",
            "ticks": 32640,
            "time": 34.871828,
            "velocity": 0.968503937007874
          },
          {
            "duration": 0.1282052500000006,
            "durationTicks": 120,
            "midi": 61,
            "name": "C#4",
            "ticks": 32640,
            "time": 34.871828,
            "velocity": 0.968503937007874
          },
          {
            "duration": 0.1282052500000006,
            "durationTicks": 120,
            "midi": 66,
            "name": "F#4",
            "ticks": 32640,
            "time": 34.871828,
            "velocity": 0.968503937007874
          },
          {
            "duration": 0.1282052500000006,
            "durationTicks": 120,
            "midi": 59,
            "name": "B3",
            "ticks": 33360,
            "time": 35.6410595,
            "velocity": 0.968503937007874
          },
          {
            "duration": 0.1282052500000006,
            "durationTicks": 120,
            "midi": 63,
            "name": "D#4",
            "ticks": 33360,
            "time": 35.6410595,
            "velocity": 0.968503937007874
          },
          {
            "duration": 0.1282052500000006,
            "durationTicks": 120,
            "midi": 68,
            "name": "G#4",
            "ticks": 33360,
            "time": 35.6410595,
            "velocity": 0.968503937007874
          },
          {
            "duration": 0.1282052500000006,
            "durationTicks": 120,
            "midi": 61,
            "name": "C#4",
            "ticks": 34560,
            "time": 36.923111999999996,
            "velocity": 0.968503937007874
          },
          {
            "duration": 0.1282052500000006,
            "durationTicks": 120,
            "midi": 64,
            "name": "E4",
            "ticks": 34560,
            "time": 36.923111999999996,
            "velocity": 0.968503937007874
          },
          {
            "duration": 0.1282052500000006,
            "durationTicks": 120,
            "midi": 69,
            "name": "A4",
            "ticks": 34560,
            "time": 36.923111999999996,
            "velocity": 0.968503937007874
          },
          {
            "duration": 0.1282052500000006,
            "durationTicks": 120,
            "midi": 59,
            "name": "B3",
            "ticks": 35280,
            "time": 37.6923435,
            "velocity": 0.968503937007874
          },
          {
            "duration": 0.1282052500000006,
            "durationTicks": 120,
            "midi": 63,
            "name": "D#4",
            "ticks": 35280,
            "time": 37.6923435,
            "velocity": 0.968503937007874
          },
          {
            "duration": 0.1282052500000006,
            "durationTicks": 120,
            "midi": 68,
            "name": "G#4",
            "ticks": 35280,
            "time": 37.6923435,
            "velocity": 0.968503937007874
          },
          {
            "duration": 0.1282052500000006,
            "durationTicks": 120,
            "midi": 57,
            "name": "A3",
            "ticks": 36480,
            "time": 38.974396,
            "velocity": 0.968503937007874
          },
          {
            "duration": 0.1282052500000006,
            "durationTicks": 120,
            "midi": 62,
            "name": "D4",
            "ticks": 36480,
            "time": 38.974396,
            "velocity": 0.968503937007874
          },
          {
            "duration": 0.1282052500000006,
            "durationTicks": 120,
            "midi": 66,
            "name": "F#4",
            "ticks": 36480,
            "time": 38.974396,
            "velocity": 0.968503937007874
          },
          {
            "duration": 0.1282052500000006,
            "durationTicks": 120,
            "midi": 57,
            "name": "A3",
            "ticks": 37200,
            "time": 39.743627499999995,
            "velocity": 0.968503937007874
          },
          {
            "duration": 0.1282052500000006,
            "durationTicks": 120,
            "midi": 62,
            "name": "D4",
            "ticks": 37200,
            "time": 39.743627499999995,
            "velocity": 0.968503937007874
          },
          {
            "duration": 0.1282052500000006,
            "durationTicks": 120,
            "midi": 66,
            "name": "F#4",
            "ticks": 37200,
            "time": 39.743627499999995,
            "velocity": 0.968503937007874
          },
          {
            "duration": 0.1282052500000006,
            "durationTicks": 120,
            "midi": 57,
            "name": "A3",
            "ticks": 38400,
            "time": 41.025679999999994,
            "velocity": 0.968503937007874
          },
          {
            "duration": 0.1282052500000006,
            "durationTicks": 120,
            "midi": 62,
            "name": "D4",
            "ticks": 38400,
            "time": 41.025679999999994,
            "velocity": 0.968503937007874
          },
          {
            "duration": 0.1282052500000006,
            "durationTicks": 120,
            "midi": 66,
            "name": "F#4",
            "ticks": 38400,
            "time": 41.025679999999994,
            "velocity": 0.968503937007874
          },
          {
            "duration": 0.1282052500000006,
            "durationTicks": 120,
            "midi": 57,
            "name": "A3",
            "ticks": 39120,
            "time": 41.7949115,
            "velocity": 0.968503937007874
          },
          {
            "duration": 0.1282052500000006,
            "durationTicks": 120,
            "midi": 62,
            "name": "D4",
            "ticks": 39120,
            "time": 41.7949115,
            "velocity": 0.968503937007874
          },
          {
            "duration": 0.1282052500000006,
            "durationTicks": 120,
            "midi": 66,
            "name": "F#4",
            "ticks": 39120,
            "time": 41.7949115,
            "velocity": 0.968503937007874
          },
          {
            "duration": 0.1282052500000006,
            "durationTicks": 120,
            "midi": 57,
            "name": "A3",
            "ticks": 40320,
            "time": 43.076964,
            "velocity": 0.968503937007874
          },
          {
            "duration": 0.1282052500000006,
            "durationTicks": 120,
            "midi": 61,
            "name": "C#4",
            "ticks": 40320,
            "time": 43.076964,
            "velocity": 0.968503937007874
          },
          {
            "duration": 0.1282052500000006,
            "durationTicks": 120,
            "midi": 66,
            "name": "F#4",
            "ticks": 40320,
            "time": 43.076964,
            "velocity": 0.968503937007874
          },
          {
            "duration": 0.1282052500000006,
            "durationTicks": 120,
            "midi": 59,
            "name": "B3",
            "ticks": 41040,
            "time": 43.8461955,
            "velocity": 0.968503937007874
          },
          {
            "duration": 0.1282052500000006,
            "durationTicks": 120,
            "midi": 63,
            "name": "D#4",
            "ticks": 41040,
            "time": 43.8461955,
            "velocity": 0.968503937007874
          },
          {
            "duration": 0.1282052500000006,
            "durationTicks": 120,
            "midi": 68,
            "name": "G#4",
            "ticks": 41040,
            "time": 43.8461955,
            "velocity": 0.968503937007874
          },
          {
            "duration": 0.1282052500000006,
            "durationTicks": 120,
            "midi": 61,
            "name": "C#4",
            "ticks": 42240,
            "time": 45.128248,
            "velocity": 0.968503937007874
          },
          {
            "duration": 0.1282052500000006,
            "durationTicks": 120,
            "midi": 64,
            "name": "E4",
            "ticks": 42240,
            "time": 45.128248,
            "velocity": 0.968503937007874
          },
          {
            "duration": 0.1282052500000006,
            "durationTicks": 120,
            "midi": 69,
            "name": "A4",
            "ticks": 42240,
            "time": 45.128248,
            "velocity": 0.968503937007874
          },
          {
            "duration": 0.1282052500000006,
            "durationTicks": 120,
            "midi": 59,
            "name": "B3",
            "ticks": 42960,
            "time": 45.897479499999996,
            "velocity": 0.968503937007874
          },
          {
            "duration": 0.1282052500000006,
            "durationTicks": 120,
            "midi": 63,
            "name": "D#4",
            "ticks": 42960,
            "time": 45.897479499999996,
            "velocity": 0.968503937007874
          },
          {
            "duration": 0.1282052500000006,
            "durationTicks": 120,
            "midi": 68,
            "name": "G#4",
            "ticks": 42960,
            "time": 45.897479499999996,
            "velocity": 0.968503937007874
          },
          {
            "duration": 0.1282052500000006,
            "durationTicks": 120,
            "midi": 57,
            "name": "A3",
            "ticks": 44160,
            "time": 47.179531999999995,
            "velocity": 0.968503937007874
          },
          {
            "duration": 0.1282052500000006,
            "durationTicks": 120,
            "midi": 62,
            "name": "D4",
            "ticks": 44160,
            "time": 47.179531999999995,
            "velocity": 0.968503937007874
          },
          {
            "duration": 0.1282052500000006,
            "durationTicks": 120,
            "midi": 66,
            "name": "F#4",
            "ticks": 44160,
            "time": 47.179531999999995,
            "velocity": 0.968503937007874
          },
          {
            "duration": 0.1282052500000006,
            "durationTicks": 120,
            "midi": 57,
            "name": "A3",
            "ticks": 44880,
            "time": 47.9487635,
            "velocity": 0.968503937007874
          },
          {
            "duration": 0.1282052500000006,
            "durationTicks": 120,
            "midi": 62,
            "name": "D4",
            "ticks": 44880,
            "time": 47.9487635,
            "velocity": 0.968503937007874
          },
          {
            "duration": 0.1282052500000006,
            "durationTicks": 120,
            "midi": 66,
            "name": "F#4",
            "ticks": 44880,
            "time": 47.9487635,
            "velocity": 0.968503937007874
          },
          {
            "duration": 0.1282052500000006,
            "durationTicks": 120,
            "midi": 57,
            "name": "A3",
            "ticks": 46080,
            "time": 49.230816,
            "velocity": 0.968503937007874
          },
          {
            "duration": 0.1282052500000006,
            "durationTicks": 120,
            "midi": 62,
            "name": "D4",
            "ticks": 46080,
            "time": 49.230816,
            "velocity": 0.968503937007874
          },
          {
            "duration": 0.1282052500000006,
            "durationTicks": 120,
            "midi": 66,
            "name": "F#4",
            "ticks": 46080,
            "time": 49.230816,
            "velocity": 0.968503937007874
          },
          {
            "duration": 1.1538472500000054,
            "durationTicks": 1080,
            "midi": 57,
            "name": "A3",
            "ticks": 46800,
            "time": 50.000047499999994,
            "velocity": 1
          },
          {
            "duration": 1.1538472500000054,
            "durationTicks": 1080,
            "midi": 62,
            "name": "D4",
            "ticks": 46800,
            "time": 50.000047499999994,
            "velocity": 1
          },
          {
            "duration": 1.1538472500000054,
            "durationTicks": 1080,
            "midi": 66,
            "name": "F#4",
            "ticks": 46800,
            "time": 50.000047499999994,
            "velocity": 1
          },
          {
            "duration": 0.1282052500000006,
            "durationTicks": 120,
            "midi": 57,
            "name": "A3",
            "ticks": 48000,
            "time": 51.2821,
            "velocity": 0.968503937007874
          },
          {
            "duration": 0.1282052500000006,
            "durationTicks": 120,
            "midi": 61,
            "name": "C#4",
            "ticks": 48000,
            "time": 51.2821,
            "velocity": 0.968503937007874
          },
          {
            "duration": 0.1282052500000006,
            "durationTicks": 120,
            "midi": 66,
            "name": "F#4",
            "ticks": 48000,
            "time": 51.2821,
            "velocity": 0.968503937007874
          },
          {
            "duration": 0.1282052500000006,
            "durationTicks": 120,
            "midi": 59,
            "name": "B3",
            "ticks": 48720,
            "time": 52.051331499999996,
            "velocity": 0.968503937007874
          },
          {
            "duration": 0.1282052500000006,
            "durationTicks": 120,
            "midi": 63,
            "name": "D#4",
            "ticks": 48720,
            "time": 52.051331499999996,
            "velocity": 0.968503937007874
          },
          {
            "duration": 0.1282052500000006,
            "durationTicks": 120,
            "midi": 68,
            "name": "G#4",
            "ticks": 48720,
            "time": 52.051331499999996,
            "velocity": 0.968503937007874
          },
          {
            "duration": 0.1282052500000006,
            "durationTicks": 120,
            "midi": 61,
            "name": "C#4",
            "ticks": 49920,
            "time": 53.333383999999995,
            "velocity": 0.968503937007874
          },
          {
            "duration": 0.1282052500000006,
            "durationTicks": 120,
            "midi": 64,
            "name": "E4",
            "ticks": 49920,
            "time": 53.333383999999995,
            "velocity": 0.968503937007874
          },
          {
            "duration": 0.1282052500000006,
            "durationTicks": 120,
            "midi": 69,
            "name": "A4",
            "ticks": 49920,
            "time": 53.333383999999995,
            "velocity": 0.968503937007874
          },
          {
            "duration": 0.1282052500000006,
            "durationTicks": 120,
            "midi": 59,
            "name": "B3",
            "ticks": 50640,
            "time": 54.1026155,
            "velocity": 0.968503937007874
          },
          {
            "duration": 0.1282052500000006,
            "durationTicks": 120,
            "midi": 63,
            "name": "D#4",
            "ticks": 50640,
            "time": 54.1026155,
            "velocity": 0.968503937007874
          },
          {
            "duration": 0.1282052500000006,
            "durationTicks": 120,
            "midi": 68,
            "name": "G#4",
            "ticks": 50640,
            "time": 54.1026155,
            "velocity": 0.968503937007874
          },
          {
            "duration": 0.1282052500000006,
            "durationTicks": 120,
            "midi": 57,
            "name": "A3",
            "ticks": 51840,
            "time": 55.384668,
            "velocity": 0.968503937007874
          },
          {
            "duration": 0.1282052500000006,
            "durationTicks": 120,
            "midi": 61,
            "name": "C#4",
            "ticks": 51840,
            "time": 55.384668,
            "velocity": 0.968503937007874
          },
          {
            "duration": 0.1282052500000006,
            "durationTicks": 120,
            "midi": 66,
            "name": "F#4",
            "ticks": 51840,
            "time": 55.384668,
            "velocity": 0.968503937007874
          },
          {
            "duration": 0.1282052500000006,
            "durationTicks": 120,
            "midi": 59,
            "name": "B3",
            "ticks": 52560,
            "time": 56.153899499999994,
            "velocity": 0.968503937007874
          },
          {
            "duration": 0.1282052500000006,
            "durationTicks": 120,
            "midi": 63,
            "name": "D#4",
            "ticks": 52560,
            "time": 56.153899499999994,
            "velocity": 0.968503937007874
          },
          {
            "duration": 0.1282052500000006,
            "durationTicks": 120,
            "midi": 68,
            "name": "G#4",
            "ticks": 52560,
            "time": 56.153899499999994,
            "velocity": 0.968503937007874
          },
          {
            "duration": 0.1282052499999935,
            "durationTicks": 120,
            "midi": 61,
            "name": "C#4",
            "ticks": 53760,
            "time": 57.435952,
            "velocity": 0.968503937007874
          },
          {
            "duration": 0.1282052499999935,
            "durationTicks": 120,
            "midi": 64,
            "name": "E4",
            "ticks": 53760,
            "time": 57.435952,
            "velocity": 0.968503937007874
          },
          {
            "duration": 0.1282052499999935,
            "durationTicks": 120,
            "midi": 69,
            "name": "A4",
            "ticks": 53760,
            "time": 57.435952,
            "velocity": 0.968503937007874
          },
          {
            "duration": 0.1282052500000006,
            "durationTicks": 120,
            "midi": 59,
            "name": "B3",
            "ticks": 54480,
            "time": 58.2051835,
            "velocity": 0.968503937007874
          },
          {
            "duration": 0.1282052500000006,
            "durationTicks": 120,
            "midi": 63,
            "name": "D#4",
            "ticks": 54480,
            "time": 58.2051835,
            "velocity": 0.968503937007874
          },
          {
            "duration": 0.1282052500000006,
            "durationTicks": 120,
            "midi": 68,
            "name": "G#4",
            "ticks": 54480,
            "time": 58.2051835,
            "velocity": 0.968503937007874
          },
          {
            "duration": 0.1282052500000006,
            "durationTicks": 120,
            "midi": 57,
            "name": "A3",
            "ticks": 55680,
            "time": 59.487235999999996,
            "velocity": 0.968503937007874
          },
          {
            "duration": 0.1282052500000006,
            "durationTicks": 120,
            "midi": 61,
            "name": "C#4",
            "ticks": 55680,
            "time": 59.487235999999996,
            "velocity": 0.968503937007874
          },
          {
            "duration": 0.1282052500000006,
            "durationTicks": 120,
            "midi": 66,
            "name": "F#4",
            "ticks": 55680,
            "time": 59.487235999999996,
            "velocity": 0.968503937007874
          },
          {
            "duration": 0.1282052500000006,
            "durationTicks": 120,
            "midi": 59,
            "name": "B3",
            "ticks": 56400,
            "time": 60.2564675,
            "velocity": 0.968503937007874
          },
          {
            "duration": 0.1282052500000006,
            "durationTicks": 120,
            "midi": 63,
            "name": "D#4",
            "ticks": 56400,
            "time": 60.2564675,
            "velocity": 0.968503937007874
          },
          {
            "duration": 0.1282052500000006,
            "durationTicks": 120,
            "midi": 68,
            "name": "G#4",
            "ticks": 56400,
            "time": 60.2564675,
            "velocity": 0.968503937007874
          },
          {
            "duration": 0.1282052500000006,
            "durationTicks": 120,
            "midi": 61,
            "name": "C#4",
            "ticks": 57600,
            "time": 61.53852,
            "velocity": 0.968503937007874
          },
          {
            "duration": 0.1282052500000006,
            "durationTicks": 120,
            "midi": 64,
            "name": "E4",
            "ticks": 57600,
            "time": 61.53852,
            "velocity": 0.968503937007874
          },
          {
            "duration": 0.1282052500000006,
            "durationTicks": 120,
            "midi": 69,
            "name": "A4",
            "ticks": 57600,
            "time": 61.53852,
            "velocity": 0.968503937007874
          },
          {
            "duration": 0.1282052500000006,
            "durationTicks": 120,
            "midi": 59,
            "name": "B3",
            "ticks": 58320,
            "time": 62.307751499999995,
            "velocity": 0.968503937007874
          },
          {
            "duration": 0.1282052500000006,
            "durationTicks": 120,
            "midi": 63,
            "name": "D#4",
            "ticks": 58320,
            "time": 62.307751499999995,
            "velocity": 0.968503937007874
          },
          {
            "duration": 0.1282052500000006,
            "durationTicks": 120,
            "midi": 68,
            "name": "G#4",
            "ticks": 58320,
            "time": 62.307751499999995,
            "velocity": 0.968503937007874
          },
          {
            "duration": 0.1282052500000006,
            "durationTicks": 120,
            "midi": 57,
            "name": "A3",
            "ticks": 59520,
            "time": 63.589803999999994,
            "velocity": 0.968503937007874
          },
          {
            "duration": 0.1282052500000006,
            "durationTicks": 120,
            "midi": 62,
            "name": "D4",
            "ticks": 59520,
            "time": 63.589803999999994,
            "velocity": 0.968503937007874
          },
          {
            "duration": 0.1282052500000006,
            "durationTicks": 120,
            "midi": 66,
            "name": "F#4",
            "ticks": 59520,
            "time": 63.589803999999994,
            "velocity": 0.968503937007874
          },
          {
            "duration": 0.1282052500000077,
            "durationTicks": 120,
            "midi": 57,
            "name": "A3",
            "ticks": 60240,
            "time": 64.35903549999999,
            "velocity": 0.968503937007874
          },
          {
            "duration": 0.1282052500000077,
            "durationTicks": 120,
            "midi": 62,
            "name": "D4",
            "ticks": 60240,
            "time": 64.35903549999999,
            "velocity": 0.968503937007874
          },
          {
            "duration": 0.1282052500000077,
            "durationTicks": 120,
            "midi": 66,
            "name": "F#4",
            "ticks": 60240,
            "time": 64.35903549999999,
            "velocity": 0.968503937007874
          },
          {
            "duration": 0.1282052499999935,
            "durationTicks": 120,
            "midi": 57,
            "name": "A3",
            "ticks": 61440,
            "time": 65.641088,
            "velocity": 0.968503937007874
          },
          {
            "duration": 0.1282052499999935,
            "durationTicks": 120,
            "midi": 62,
            "name": "D4",
            "ticks": 61440,
            "time": 65.641088,
            "velocity": 0.968503937007874
          },
          {
            "duration": 0.1282052499999935,
            "durationTicks": 120,
            "midi": 66,
            "name": "F#4",
            "ticks": 61440,
            "time": 65.641088,
            "velocity": 0.968503937007874
          },
          {
            "duration": 1.1538472499999983,
            "durationTicks": 1080,
            "midi": 57,
            "name": "A3",
            "ticks": 62160,
            "time": 66.4103195,
            "velocity": 1
          },
          {
            "duration": 1.1538472499999983,
            "durationTicks": 1080,
            "midi": 62,
            "name": "D4",
            "ticks": 62160,
            "time": 66.4103195,
            "velocity": 1
          },
          {
            "duration": 1.1538472499999983,
            "durationTicks": 1080,
            "midi": 66,
            "name": "F#4",
            "ticks": 62160,
            "time": 66.4103195,
            "velocity": 1
          },
          {
            "duration": 0.1282052500000077,
            "durationTicks": 120,
            "midi": 57,
            "name": "A3",
            "ticks": 63360,
            "time": 67.69237199999999,
            "velocity": 0.968503937007874
          },
          {
            "duration": 0.1282052500000077,
            "durationTicks": 120,
            "midi": 61,
            "name": "C#4",
            "ticks": 63360,
            "time": 67.69237199999999,
            "velocity": 0.968503937007874
          },
          {
            "duration": 0.1282052500000077,
            "durationTicks": 120,
            "midi": 66,
            "name": "F#4",
            "ticks": 63360,
            "time": 67.69237199999999,
            "velocity": 0.968503937007874
          },
          {
            "duration": 0.1282052500000077,
            "durationTicks": 120,
            "midi": 59,
            "name": "B3",
            "ticks": 64080,
            "time": 68.4616035,
            "velocity": 0.968503937007874
          },
          {
            "duration": 0.1282052500000077,
            "durationTicks": 120,
            "midi": 63,
            "name": "D#4",
            "ticks": 64080,
            "time": 68.4616035,
            "velocity": 0.968503937007874
          },
          {
            "duration": 0.1282052500000077,
            "durationTicks": 120,
            "midi": 68,
            "name": "G#4",
            "ticks": 64080,
            "time": 68.4616035,
            "velocity": 0.968503937007874
          },
          {
            "duration": 0.1282052499999935,
            "durationTicks": 120,
            "midi": 61,
            "name": "C#4",
            "ticks": 65280,
            "time": 69.743656,
            "velocity": 0.968503937007874
          },
          {
            "duration": 0.1282052499999935,
            "durationTicks": 120,
            "midi": 64,
            "name": "E4",
            "ticks": 65280,
            "time": 69.743656,
            "velocity": 0.968503937007874
          },
          {
            "duration": 0.1282052499999935,
            "durationTicks": 120,
            "midi": 69,
            "name": "A4",
            "ticks": 65280,
            "time": 69.743656,
            "velocity": 0.968503937007874
          },
          {
            "duration": 0.1282052500000077,
            "durationTicks": 120,
            "midi": 59,
            "name": "B3",
            "ticks": 66000,
            "time": 70.51288749999999,
            "velocity": 0.968503937007874
          },
          {
            "duration": 0.1282052500000077,
            "durationTicks": 120,
            "midi": 63,
            "name": "D#4",
            "ticks": 66000,
            "time": 70.51288749999999,
            "velocity": 0.968503937007874
          },
          {
            "duration": 0.1282052500000077,
            "durationTicks": 120,
            "midi": 68,
            "name": "G#4",
            "ticks": 66000,
            "time": 70.51288749999999,
            "velocity": 0.968503937007874
          },
          {
            "duration": 0.6410262500000101,
            "durationTicks": 600,
            "midi": 57,
            "name": "A3",
            "ticks": 82560,
            "time": 88.20521199999999,
            "velocity": 0.7874015748031497
          },
          {
            "duration": 0.6410262500000101,
            "durationTicks": 600,
            "midi": 61,
            "name": "C#4",
            "ticks": 82560,
            "time": 88.20521199999999,
            "velocity": 0.7874015748031497
          },
          {
            "duration": 0.6410262500000101,
            "durationTicks": 600,
            "midi": 66,
            "name": "F#4",
            "ticks": 82560,
            "time": 88.20521199999999,
            "velocity": 0.7874015748031497
          },
          {
            "duration": 1.0256420000000048,
            "durationTicks": 960,
            "midi": 59,
            "name": "B3",
            "ticks": 83280,
            "time": 88.97444349999999,
            "velocity": 0.7874015748031497
          },
          {
            "duration": 1.0256420000000048,
            "durationTicks": 960,
            "midi": 63,
            "name": "D#4",
            "ticks": 83280,
            "time": 88.97444349999999,
            "velocity": 0.7874015748031497
          },
          {
            "duration": 1.0256420000000048,
            "durationTicks": 960,
            "midi": 68,
            "name": "G#4",
            "ticks": 83280,
            "time": 88.97444349999999,
            "velocity": 0.7874015748031497
          },
          {
            "duration": 0.6410262499999959,
            "durationTicks": 600,
            "midi": 61,
            "name": "C#4",
            "ticks": 84480,
            "time": 90.256496,
            "velocity": 0.7874015748031497
          },
          {
            "duration": 0.6410262499999959,
            "durationTicks": 600,
            "midi": 64,
            "name": "E4",
            "ticks": 84480,
            "time": 90.256496,
            "velocity": 0.7874015748031497
          },
          {
            "duration": 0.6410262499999959,
            "durationTicks": 600,
            "midi": 69,
            "name": "A4",
            "ticks": 84480,
            "time": 90.256496,
            "velocity": 0.7874015748031497
          },
          {
            "duration": 1.0256420000000048,
            "durationTicks": 960,
            "midi": 59,
            "name": "B3",
            "ticks": 85200,
            "time": 91.02572749999999,
            "velocity": 0.7874015748031497
          },
          {
            "duration": 1.0256420000000048,
            "durationTicks": 960,
            "midi": 63,
            "name": "D#4",
            "ticks": 85200,
            "time": 91.02572749999999,
            "velocity": 0.7874015748031497
          },
          {
            "duration": 1.0256420000000048,
            "durationTicks": 960,
            "midi": 68,
            "name": "G#4",
            "ticks": 85200,
            "time": 91.02572749999999,
            "velocity": 0.7874015748031497
          },
          {
            "duration": 0.6410262499999959,
            "durationTicks": 600,
            "midi": 57,
            "name": "A3",
            "ticks": 86400,
            "time": 92.30778,
            "velocity": 0.7874015748031497
          },
          {
            "duration": 0.6410262499999959,
            "durationTicks": 600,
            "midi": 61,
            "name": "C#4",
            "ticks": 86400,
            "time": 92.30778,
            "velocity": 0.7874015748031497
          },
          {
            "duration": 0.6410262499999959,
            "durationTicks": 600,
            "midi": 66,
            "name": "F#4",
            "ticks": 86400,
            "time": 92.30778,
            "velocity": 0.7874015748031497
          },
          {
            "duration": 1.0256419999999906,
            "durationTicks": 960,
            "midi": 59,
            "name": "B3",
            "ticks": 87120,
            "time": 93.0770115,
            "velocity": 0.7874015748031497
          },
          {
            "duration": 1.0256419999999906,
            "durationTicks": 960,
            "midi": 63,
            "name": "D#4",
            "ticks": 87120,
            "time": 93.0770115,
            "velocity": 0.7874015748031497
          },
          {
            "duration": 1.0256419999999906,
            "durationTicks": 960,
            "midi": 68,
            "name": "G#4",
            "ticks": 87120,
            "time": 93.0770115,
            "velocity": 0.7874015748031497
          },
          {
            "duration": 0.6410262500000101,
            "durationTicks": 600,
            "midi": 61,
            "name": "C#4",
            "ticks": 88320,
            "time": 94.35906399999999,
            "velocity": 0.7874015748031497
          },
          {
            "duration": 0.6410262500000101,
            "durationTicks": 600,
            "midi": 64,
            "name": "E4",
            "ticks": 88320,
            "time": 94.35906399999999,
            "velocity": 0.7874015748031497
          },
          {
            "duration": 0.6410262500000101,
            "durationTicks": 600,
            "midi": 69,
            "name": "A4",
            "ticks": 88320,
            "time": 94.35906399999999,
            "velocity": 0.7874015748031497
          },
          {
            "duration": 1.1538472499999983,
            "durationTicks": 1080,
            "midi": 59,
            "name": "B3",
            "ticks": 89040,
            "time": 95.1282955,
            "velocity": 0.7874015748031497
          },
          {
            "duration": 1.1538472499999983,
            "durationTicks": 1080,
            "midi": 63,
            "name": "D#4",
            "ticks": 89040,
            "time": 95.1282955,
            "velocity": 0.7874015748031497
          },
          {
            "duration": 1.1538472499999983,
            "durationTicks": 1080,
            "midi": 68,
            "name": "G#4",
            "ticks": 89040,
            "time": 95.1282955,
            "velocity": 0.7874015748031497
          },
          {
            "duration": 4.006414062499999,
            "durationTicks": 3750,
            "midi": 57,
            "name": "A3",
            "ticks": 90240,
            "time": 96.410348,
            "velocity": 0.7874015748031497
          },
          {
            "duration": 4.038465375000001,
            "durationTicks": 3780,
            "midi": 62,
            "name": "D4",
            "ticks": 90240,
            "time": 96.410348,
            "velocity": 0.7874015748031497
          },
          {
            "duration": 4.017097833333338,
            "durationTicks": 3760,
            "midi": 66,
            "name": "F#4",
            "ticks": 90240,
            "time": 96.410348,
            "velocity": 0.7874015748031497
          },
          {
            "duration": 0.1282052500000077,
            "durationTicks": 120,
            "midi": 57,
            "name": "A3",
            "ticks": 94080,
            "time": 100.51291599999999,
            "velocity": 0.968503937007874
          },
          {
            "duration": 0.1282052500000077,
            "durationTicks": 120,
            "midi": 61,
            "name": "C#4",
            "ticks": 94080,
            "time": 100.51291599999999,
            "velocity": 0.968503937007874
          },
          {
            "duration": 0.1282052500000077,
            "durationTicks": 120,
            "midi": 66,
            "name": "F#4",
            "ticks": 94080,
            "time": 100.51291599999999,
            "velocity": 0.968503937007874
          },
          {
            "duration": 0.1282052500000077,
            "durationTicks": 120,
            "midi": 59,
            "name": "B3",
            "ticks": 94800,
            "time": 101.2821475,
            "velocity": 0.968503937007874
          },
          {
            "duration": 0.1282052500000077,
            "durationTicks": 120,
            "midi": 63,
            "name": "D#4",
            "ticks": 94800,
            "time": 101.2821475,
            "velocity": 0.968503937007874
          },
          {
            "duration": 0.1282052500000077,
            "durationTicks": 120,
            "midi": 68,
            "name": "G#4",
            "ticks": 94800,
            "time": 101.2821475,
            "velocity": 0.968503937007874
          },
          {
            "duration": 0.1282052499999935,
            "durationTicks": 120,
            "midi": 61,
            "name": "C#4",
            "ticks": 96000,
            "time": 102.5642,
            "velocity": 0.968503937007874
          },
          {
            "duration": 0.1282052499999935,
            "durationTicks": 120,
            "midi": 64,
            "name": "E4",
            "ticks": 96000,
            "time": 102.5642,
            "velocity": 0.968503937007874
          },
          {
            "duration": 0.1282052499999935,
            "durationTicks": 120,
            "midi": 69,
            "name": "A4",
            "ticks": 96000,
            "time": 102.5642,
            "velocity": 0.968503937007874
          },
          {
            "duration": 0.1282052500000077,
            "durationTicks": 120,
            "midi": 59,
            "name": "B3",
            "ticks": 96720,
            "time": 103.33343149999999,
            "velocity": 0.968503937007874
          },
          {
            "duration": 0.1282052500000077,
            "durationTicks": 120,
            "midi": 63,
            "name": "D#4",
            "ticks": 96720,
            "time": 103.33343149999999,
            "velocity": 0.968503937007874
          },
          {
            "duration": 0.1282052500000077,
            "durationTicks": 120,
            "midi": 68,
            "name": "G#4",
            "ticks": 96720,
            "time": 103.33343149999999,
            "velocity": 0.968503937007874
          },
          {
            "duration": 4.0598329166666645,
            "durationTicks": 3800,
            "midi": 57,
            "name": "A3",
            "ticks": 97920,
            "time": 104.615484,
            "velocity": 0.7874015748031497
          },
          {
            "duration": 4.0598329166666645,
            "durationTicks": 3800,
            "midi": 62,
            "name": "D4",
            "ticks": 97920,
            "time": 104.615484,
            "velocity": 0.7874015748031497
          },
          {
            "duration": 4.04914914583334,
            "durationTicks": 3790,
            "midi": 66,
            "name": "F#4",
            "ticks": 97920,
            "time": 104.615484,
            "velocity": 0.7874015748031497
          },
          {
            "duration": 0.1388890208333322,
            "durationTicks": 130,
            "midi": 57,
            "name": "A3",
            "ticks": 101760,
            "time": 108.718052,
            "velocity": 0.968503937007874
          },
          {
            "duration": 0.14743603749998613,
            "durationTicks": 138,
            "midi": 61,
            "name": "C#4",
            "ticks": 101760,
            "time": 108.718052,
            "velocity": 0.968503937007874
          },
          {
            "duration": 0.14743603749998613,
            "durationTicks": 138,
            "midi": 66,
            "name": "F#4",
            "ticks": 101760,
            "time": 108.718052,
            "velocity": 0.968503937007874
          },
          {
            "duration": 0.1282052500000077,
            "durationTicks": 120,
            "midi": 59,
            "name": "B3",
            "ticks": 102480,
            "time": 109.48728349999999,
            "velocity": 0.968503937007874
          },
          {
            "duration": 0.1282052500000077,
            "durationTicks": 120,
            "midi": 63,
            "name": "D#4",
            "ticks": 102480,
            "time": 109.48728349999999,
            "velocity": 0.968503937007874
          },
          {
            "duration": 0.1282052500000077,
            "durationTicks": 120,
            "midi": 68,
            "name": "G#4",
            "ticks": 102480,
            "time": 109.48728349999999,
            "velocity": 0.968503937007874
          },
          {
            "duration": 0.1282052499999935,
            "durationTicks": 120,
            "midi": 61,
            "name": "C#4",
            "ticks": 103680,
            "time": 110.769336,
            "velocity": 0.968503937007874
          },
          {
            "duration": 0.1282052499999935,
            "durationTicks": 120,
            "midi": 64,
            "name": "E4",
            "ticks": 103680,
            "time": 110.769336,
            "velocity": 0.968503937007874
          },
          {
            "duration": 0.1282052499999935,
            "durationTicks": 120,
            "midi": 69,
            "name": "A4",
            "ticks": 103680,
            "time": 110.769336,
            "velocity": 0.968503937007874
          },
          {
            "duration": 0.1282052499999935,
            "durationTicks": 120,
            "midi": 59,
            "name": "B3",
            "ticks": 104400,
            "time": 111.5385675,
            "velocity": 0.968503937007874
          },
          {
            "duration": 0.1282052499999935,
            "durationTicks": 120,
            "midi": 63,
            "name": "D#4",
            "ticks": 104400,
            "time": 111.5385675,
            "velocity": 0.968503937007874
          },
          {
            "duration": 0.1282052499999935,
            "durationTicks": 120,
            "midi": 68,
            "name": "G#4",
            "ticks": 104400,
            "time": 111.5385675,
            "velocity": 0.968503937007874
          },
          {
            "duration": 0.1282052500000077,
            "durationTicks": 120,
            "midi": 57,
            "name": "A3",
            "ticks": 105600,
            "time": 112.82061999999999,
            "velocity": 0.968503937007874
          },
          {
            "duration": 0.1282052500000077,
            "durationTicks": 120,
            "midi": 61,
            "name": "C#4",
            "ticks": 105600,
            "time": 112.82061999999999,
            "velocity": 0.968503937007874
          },
          {
            "duration": 0.1282052500000077,
            "durationTicks": 120,
            "midi": 66,
            "name": "F#4",
            "ticks": 105600,
            "time": 112.82061999999999,
            "velocity": 0.968503937007874
          },
          {
            "duration": 0.1282052499999935,
            "durationTicks": 120,
            "midi": 59,
            "name": "B3",
            "ticks": 106320,
            "time": 113.5898515,
            "velocity": 0.968503937007874
          },
          {
            "duration": 0.1282052499999935,
            "durationTicks": 120,
            "midi": 63,
            "name": "D#4",
            "ticks": 106320,
            "time": 113.5898515,
            "velocity": 0.968503937007874
          },
          {
            "duration": 0.1282052499999935,
            "durationTicks": 120,
            "midi": 68,
            "name": "G#4",
            "ticks": 106320,
            "time": 113.5898515,
            "velocity": 0.968503937007874
          },
          {
            "duration": 0.1282052499999935,
            "durationTicks": 120,
            "midi": 61,
            "name": "C#4",
            "ticks": 107520,
            "time": 114.871904,
            "velocity": 0.968503937007874
          },
          {
            "duration": 0.1282052499999935,
            "durationTicks": 120,
            "midi": 64,
            "name": "E4",
            "ticks": 107520,
            "time": 114.871904,
            "velocity": 0.968503937007874
          },
          {
            "duration": 0.1282052499999935,
            "durationTicks": 120,
            "midi": 69,
            "name": "A4",
            "ticks": 107520,
            "time": 114.871904,
            "velocity": 0.968503937007874
          },
          {
            "duration": 0.1282052500000077,
            "durationTicks": 120,
            "midi": 59,
            "name": "B3",
            "ticks": 108240,
            "time": 115.64113549999999,
            "velocity": 0.968503937007874
          },
          {
            "duration": 0.1282052500000077,
            "durationTicks": 120,
            "midi": 63,
            "name": "D#4",
            "ticks": 108240,
            "time": 115.64113549999999,
            "velocity": 0.968503937007874
          },
          {
            "duration": 0.1282052500000077,
            "durationTicks": 120,
            "midi": 68,
            "name": "G#4",
            "ticks": 108240,
            "time": 115.64113549999999,
            "velocity": 0.968503937007874
          },
          {
            "duration": 0.1282052499999935,
            "durationTicks": 120,
            "midi": 57,
            "name": "A3",
            "ticks": 109440,
            "time": 116.923188,
            "velocity": 0.968503937007874
          },
          {
            "duration": 0.1282052499999935,
            "durationTicks": 120,
            "midi": 61,
            "name": "C#4",
            "ticks": 109440,
            "time": 116.923188,
            "velocity": 0.968503937007874
          },
          {
            "duration": 0.1282052499999935,
            "durationTicks": 120,
            "midi": 66,
            "name": "F#4",
            "ticks": 109440,
            "time": 116.923188,
            "velocity": 0.968503937007874
          },
          {
            "duration": 0.1282052499999935,
            "durationTicks": 120,
            "midi": 59,
            "name": "B3",
            "ticks": 110160,
            "time": 117.6924195,
            "velocity": 0.968503937007874
          },
          {
            "duration": 0.1282052499999935,
            "durationTicks": 120,
            "midi": 63,
            "name": "D#4",
            "ticks": 110160,
            "time": 117.6924195,
            "velocity": 0.968503937007874
          },
          {
            "duration": 0.1282052499999935,
            "durationTicks": 120,
            "midi": 68,
            "name": "G#4",
            "ticks": 110160,
            "time": 117.6924195,
            "velocity": 0.968503937007874
          },
          {
            "duration": 0.1282052500000077,
            "durationTicks": 120,
            "midi": 61,
            "name": "C#4",
            "ticks": 111360,
            "time": 118.97447199999999,
            "velocity": 0.968503937007874
          },
          {
            "duration": 0.1282052500000077,
            "durationTicks": 120,
            "midi": 64,
            "name": "E4",
            "ticks": 111360,
            "time": 118.97447199999999,
            "velocity": 0.968503937007874
          },
          {
            "duration": 0.1282052500000077,
            "durationTicks": 120,
            "midi": 69,
            "name": "A4",
            "ticks": 111360,
            "time": 118.97447199999999,
            "velocity": 0.968503937007874
          },
          {
            "duration": 0.1282052499999935,
            "durationTicks": 120,
            "midi": 59,
            "name": "B3",
            "ticks": 112080,
            "time": 119.7437035,
            "velocity": 0.968503937007874
          },
          {
            "duration": 0.1282052499999935,
            "durationTicks": 120,
            "midi": 63,
            "name": "D#4",
            "ticks": 112080,
            "time": 119.7437035,
            "velocity": 0.968503937007874
          },
          {
            "duration": 0.1282052499999935,
            "durationTicks": 120,
            "midi": 68,
            "name": "G#4",
            "ticks": 112080,
            "time": 119.7437035,
            "velocity": 0.968503937007874
          },
          {
            "duration": 0.1282052500000077,
            "durationTicks": 120,
            "midi": 57,
            "name": "A3",
            "ticks": 113280,
            "time": 121.02575599999999,
            "velocity": 0.968503937007874
          },
          {
            "duration": 0.1282052500000077,
            "durationTicks": 120,
            "midi": 62,
            "name": "D4",
            "ticks": 113280,
            "time": 121.02575599999999,
            "velocity": 0.968503937007874
          },
          {
            "duration": 0.1282052500000077,
            "durationTicks": 120,
            "midi": 66,
            "name": "F#4",
            "ticks": 113280,
            "time": 121.02575599999999,
            "velocity": 0.968503937007874
          },
          {
            "duration": 0.1282052500000077,
            "durationTicks": 120,
            "midi": 57,
            "name": "A3",
            "ticks": 114000,
            "time": 121.79498749999999,
            "velocity": 0.968503937007874
          },
          {
            "duration": 0.1282052500000077,
            "durationTicks": 120,
            "midi": 62,
            "name": "D4",
            "ticks": 114000,
            "time": 121.79498749999999,
            "velocity": 0.968503937007874
          },
          {
            "duration": 0.1282052500000077,
            "durationTicks": 120,
            "midi": 66,
            "name": "F#4",
            "ticks": 114000,
            "time": 121.79498749999999,
            "velocity": 0.968503937007874
          },
          {
            "duration": 0.1282052499999935,
            "durationTicks": 120,
            "midi": 57,
            "name": "A3",
            "ticks": 115200,
            "time": 123.07704,
            "velocity": 0.968503937007874
          },
          {
            "duration": 0.1282052499999935,
            "durationTicks": 120,
            "midi": 62,
            "name": "D4",
            "ticks": 115200,
            "time": 123.07704,
            "velocity": 0.968503937007874
          },
          {
            "duration": 0.1282052499999935,
            "durationTicks": 120,
            "midi": 66,
            "name": "F#4",
            "ticks": 115200,
            "time": 123.07704,
            "velocity": 0.968503937007874
          },
          {
            "duration": 0.1282052500000077,
            "durationTicks": 120,
            "midi": 57,
            "name": "A3",
            "ticks": 115920,
            "time": 123.84627149999999,
            "velocity": 0.968503937007874
          },
          {
            "duration": 0.1282052500000077,
            "durationTicks": 120,
            "midi": 62,
            "name": "D4",
            "ticks": 115920,
            "time": 123.84627149999999,
            "velocity": 0.968503937007874
          },
          {
            "duration": 0.1282052500000077,
            "durationTicks": 120,
            "midi": 66,
            "name": "F#4",
            "ticks": 115920,
            "time": 123.84627149999999,
            "velocity": 0.968503937007874
          },
          {
            "duration": 0.1282052500000077,
            "durationTicks": 120,
            "midi": 57,
            "name": "A3",
            "ticks": 117120,
            "time": 125.12832399999999,
            "velocity": 0.968503937007874
          },
          {
            "duration": 0.1282052500000077,
            "durationTicks": 120,
            "midi": 61,
            "name": "C#4",
            "ticks": 117120,
            "time": 125.12832399999999,
            "velocity": 0.968503937007874
          },
          {
            "duration": 0.1282052500000077,
            "durationTicks": 120,
            "midi": 66,
            "name": "F#4",
            "ticks": 117120,
            "time": 125.12832399999999,
            "velocity": 0.968503937007874
          },
          {
            "duration": 0.1282052499999935,
            "durationTicks": 120,
            "midi": 59,
            "name": "B3",
            "ticks": 117840,
            "time": 125.8975555,
            "velocity": 0.968503937007874
          },
          {
            "duration": 0.1282052499999935,
            "durationTicks": 120,
            "midi": 63,
            "name": "D#4",
            "ticks": 117840,
            "time": 125.8975555,
            "velocity": 0.968503937007874
          },
          {
            "duration": 0.1282052499999935,
            "durationTicks": 120,
            "midi": 68,
            "name": "G#4",
            "ticks": 117840,
            "time": 125.8975555,
            "velocity": 0.968503937007874
          },
          {
            "duration": 0.1282052500000077,
            "durationTicks": 120,
            "midi": 61,
            "name": "C#4",
            "ticks": 119040,
            "time": 127.17960799999999,
            "velocity": 0.968503937007874
          },
          {
            "duration": 0.1282052500000077,
            "durationTicks": 120,
            "midi": 64,
            "name": "E4",
            "ticks": 119040,
            "time": 127.17960799999999,
            "velocity": 0.968503937007874
          },
          {
            "duration": 0.1282052500000077,
            "durationTicks": 120,
            "midi": 69,
            "name": "A4",
            "ticks": 119040,
            "time": 127.17960799999999,
            "velocity": 0.968503937007874
          },
          {
            "duration": 0.1282052500000077,
            "durationTicks": 120,
            "midi": 59,
            "name": "B3",
            "ticks": 119760,
            "time": 127.94883949999999,
            "velocity": 0.968503937007874
          },
          {
            "duration": 0.1282052500000077,
            "durationTicks": 120,
            "midi": 63,
            "name": "D#4",
            "ticks": 119760,
            "time": 127.94883949999999,
            "velocity": 0.968503937007874
          },
          {
            "duration": 0.1282052500000077,
            "durationTicks": 120,
            "midi": 68,
            "name": "G#4",
            "ticks": 119760,
            "time": 127.94883949999999,
            "velocity": 0.968503937007874
          },
          {
            "duration": 0.1282052500000077,
            "durationTicks": 120,
            "midi": 57,
            "name": "A3",
            "ticks": 120960,
            "time": 129.23089199999998,
            "velocity": 0.968503937007874
          },
          {
            "duration": 0.1282052500000077,
            "durationTicks": 120,
            "midi": 62,
            "name": "D4",
            "ticks": 120960,
            "time": 129.23089199999998,
            "velocity": 0.968503937007874
          },
          {
            "duration": 0.1282052500000077,
            "durationTicks": 120,
            "midi": 66,
            "name": "F#4",
            "ticks": 120960,
            "time": 129.23089199999998,
            "velocity": 0.968503937007874
          },
          {
            "duration": 0.1282052499999793,
            "durationTicks": 120,
            "midi": 57,
            "name": "A3",
            "ticks": 121680,
            "time": 130.0001235,
            "velocity": 0.968503937007874
          },
          {
            "duration": 0.1282052499999793,
            "durationTicks": 120,
            "midi": 62,
            "name": "D4",
            "ticks": 121680,
            "time": 130.0001235,
            "velocity": 0.968503937007874
          },
          {
            "duration": 0.1282052499999793,
            "durationTicks": 120,
            "midi": 66,
            "name": "F#4",
            "ticks": 121680,
            "time": 130.0001235,
            "velocity": 0.968503937007874
          },
          {
            "duration": 0.1282052500000077,
            "durationTicks": 120,
            "midi": 57,
            "name": "A3",
            "ticks": 122880,
            "time": 131.282176,
            "velocity": 0.968503937007874
          },
          {
            "duration": 0.1282052500000077,
            "durationTicks": 120,
            "midi": 62,
            "name": "D4",
            "ticks": 122880,
            "time": 131.282176,
            "velocity": 0.968503937007874
          },
          {
            "duration": 0.1282052500000077,
            "durationTicks": 120,
            "midi": 66,
            "name": "F#4",
            "ticks": 122880,
            "time": 131.282176,
            "velocity": 0.968503937007874
          },
          {
            "duration": 0.1282052500000077,
            "durationTicks": 120,
            "midi": 57,
            "name": "A3",
            "ticks": 123600,
            "time": 132.05140749999998,
            "velocity": 0.968503937007874
          },
          {
            "duration": 0.1282052500000077,
            "durationTicks": 120,
            "midi": 62,
            "name": "D4",
            "ticks": 123600,
            "time": 132.05140749999998,
            "velocity": 0.968503937007874
          },
          {
            "duration": 0.1282052500000077,
            "durationTicks": 120,
            "midi": 66,
            "name": "F#4",
            "ticks": 123600,
            "time": 132.05140749999998,
            "velocity": 0.968503937007874
          },
          {
            "duration": 0.1282052499999793,
            "durationTicks": 120,
            "midi": 57,
            "name": "A3",
            "ticks": 124800,
            "time": 133.33346,
            "velocity": 0.968503937007874
          },
          {
            "duration": 0.1282052499999793,
            "durationTicks": 120,
            "midi": 61,
            "name": "C#4",
            "ticks": 124800,
            "time": 133.33346,
            "velocity": 0.968503937007874
          },
          {
            "duration": 0.1282052499999793,
            "durationTicks": 120,
            "midi": 66,
            "name": "F#4",
            "ticks": 124800,
            "time": 133.33346,
            "velocity": 0.968503937007874
          },
          {
            "duration": 0.1282052500000077,
            "durationTicks": 120,
            "midi": 59,
            "name": "B3",
            "ticks": 125520,
            "time": 134.1026915,
            "velocity": 0.968503937007874
          },
          {
            "duration": 0.1282052500000077,
            "durationTicks": 120,
            "midi": 63,
            "name": "D#4",
            "ticks": 125520,
            "time": 134.1026915,
            "velocity": 0.968503937007874
          },
          {
            "duration": 0.1282052500000077,
            "durationTicks": 120,
            "midi": 68,
            "name": "G#4",
            "ticks": 125520,
            "time": 134.1026915,
            "velocity": 0.968503937007874
          },
          {
            "duration": 0.1282052500000077,
            "durationTicks": 120,
            "midi": 61,
            "name": "C#4",
            "ticks": 126720,
            "time": 135.38474399999998,
            "velocity": 0.968503937007874
          },
          {
            "duration": 0.1282052500000077,
            "durationTicks": 120,
            "midi": 64,
            "name": "E4",
            "ticks": 126720,
            "time": 135.38474399999998,
            "velocity": 0.968503937007874
          },
          {
            "duration": 0.1282052500000077,
            "durationTicks": 120,
            "midi": 69,
            "name": "A4",
            "ticks": 126720,
            "time": 135.38474399999998,
            "velocity": 0.968503937007874
          },
          {
            "duration": 0.1282052499999793,
            "durationTicks": 120,
            "midi": 59,
            "name": "B3",
            "ticks": 127440,
            "time": 136.1539755,
            "velocity": 0.968503937007874
          },
          {
            "duration": 0.1282052499999793,
            "durationTicks": 120,
            "midi": 63,
            "name": "D#4",
            "ticks": 127440,
            "time": 136.1539755,
            "velocity": 0.968503937007874
          },
          {
            "duration": 0.1282052499999793,
            "durationTicks": 120,
            "midi": 68,
            "name": "G#4",
            "ticks": 127440,
            "time": 136.1539755,
            "velocity": 0.968503937007874
          },
          {
            "duration": 0.1282052500000077,
            "durationTicks": 120,
            "midi": 57,
            "name": "A3",
            "ticks": 128640,
            "time": 137.436028,
            "velocity": 0.968503937007874
          },
          {
            "duration": 0.1282052500000077,
            "durationTicks": 120,
            "midi": 61,
            "name": "C#4",
            "ticks": 128640,
            "time": 137.436028,
            "velocity": 0.968503937007874
          },
          {
            "duration": 0.1282052500000077,
            "durationTicks": 120,
            "midi": 66,
            "name": "F#4",
            "ticks": 128640,
            "time": 137.436028,
            "velocity": 0.968503937007874
          },
          {
            "duration": 0.1282052500000077,
            "durationTicks": 120,
            "midi": 59,
            "name": "B3",
            "ticks": 129360,
            "time": 138.20525949999998,
            "velocity": 0.968503937007874
          },
          {
            "duration": 0.1282052500000077,
            "durationTicks": 120,
            "midi": 63,
            "name": "D#4",
            "ticks": 129360,
            "time": 138.20525949999998,
            "velocity": 0.968503937007874
          },
          {
            "duration": 0.1282052500000077,
            "durationTicks": 120,
            "midi": 68,
            "name": "G#4",
            "ticks": 129360,
            "time": 138.20525949999998,
            "velocity": 0.968503937007874
          },
          {
            "duration": 0.1282052499999793,
            "durationTicks": 120,
            "midi": 61,
            "name": "C#4",
            "ticks": 130560,
            "time": 139.487312,
            "velocity": 0.968503937007874
          },
          {
            "duration": 0.1282052499999793,
            "durationTicks": 120,
            "midi": 64,
            "name": "E4",
            "ticks": 130560,
            "time": 139.487312,
            "velocity": 0.968503937007874
          },
          {
            "duration": 0.1282052499999793,
            "durationTicks": 120,
            "midi": 69,
            "name": "A4",
            "ticks": 130560,
            "time": 139.487312,
            "velocity": 0.968503937007874
          },
          {
            "duration": 0.1282052500000077,
            "durationTicks": 120,
            "midi": 59,
            "name": "B3",
            "ticks": 131280,
            "time": 140.2565435,
            "velocity": 0.968503937007874
          },
          {
            "duration": 0.1282052500000077,
            "durationTicks": 120,
            "midi": 63,
            "name": "D#4",
            "ticks": 131280,
            "time": 140.2565435,
            "velocity": 0.968503937007874
          },
          {
            "duration": 0.1282052500000077,
            "durationTicks": 120,
            "midi": 68,
            "name": "G#4",
            "ticks": 131280,
            "time": 140.2565435,
            "velocity": 0.968503937007874
          },
          {
            "duration": 0.1282052500000077,
            "durationTicks": 120,
            "midi": 57,
            "name": "A3",
            "ticks": 132480,
            "time": 141.53859599999998,
            "velocity": 0.968503937007874
          },
          {
            "duration": 0.1282052500000077,
            "durationTicks": 120,
            "midi": 61,
            "name": "C#4",
            "ticks": 132480,
            "time": 141.53859599999998,
            "velocity": 0.968503937007874
          },
          {
            "duration": 0.1282052500000077,
            "durationTicks": 120,
            "midi": 66,
            "name": "F#4",
            "ticks": 132480,
            "time": 141.53859599999998,
            "velocity": 0.968503937007874
          },
          {
            "duration": 0.1282052499999793,
            "durationTicks": 120,
            "midi": 59,
            "name": "B3",
            "ticks": 133200,
            "time": 142.3078275,
            "velocity": 0.968503937007874
          },
          {
            "duration": 0.1282052499999793,
            "durationTicks": 120,
            "midi": 63,
            "name": "D#4",
            "ticks": 133200,
            "time": 142.3078275,
            "velocity": 0.968503937007874
          },
          {
            "duration": 0.1282052499999793,
            "durationTicks": 120,
            "midi": 68,
            "name": "G#4",
            "ticks": 133200,
            "time": 142.3078275,
            "velocity": 0.968503937007874
          },
          {
            "duration": 0.1282052500000077,
            "durationTicks": 120,
            "midi": 61,
            "name": "C#4",
            "ticks": 134400,
            "time": 143.58988,
            "velocity": 0.968503937007874
          },
          {
            "duration": 0.1282052500000077,
            "durationTicks": 120,
            "midi": 64,
            "name": "E4",
            "ticks": 134400,
            "time": 143.58988,
            "velocity": 0.968503937007874
          },
          {
            "duration": 0.1282052500000077,
            "durationTicks": 120,
            "midi": 69,
            "name": "A4",
            "ticks": 134400,
            "time": 143.58988,
            "velocity": 0.968503937007874
          },
          {
            "duration": 0.1282052500000077,
            "durationTicks": 120,
            "midi": 59,
            "name": "B3",
            "ticks": 135120,
            "time": 144.35911149999998,
            "velocity": 0.968503937007874
          },
          {
            "duration": 0.1282052500000077,
            "durationTicks": 120,
            "midi": 63,
            "name": "D#4",
            "ticks": 135120,
            "time": 144.35911149999998,
            "velocity": 0.968503937007874
          },
          {
            "duration": 0.1282052500000077,
            "durationTicks": 120,
            "midi": 68,
            "name": "G#4",
            "ticks": 135120,
            "time": 144.35911149999998,
            "velocity": 0.968503937007874
          },
          {
            "duration": 0.1282052499999793,
            "durationTicks": 120,
            "midi": 57,
            "name": "A3",
            "ticks": 136320,
            "time": 145.641164,
            "velocity": 0.968503937007874
          },
          {
            "duration": 0.1282052499999793,
            "durationTicks": 120,
            "midi": 62,
            "name": "D4",
            "ticks": 136320,
            "time": 145.641164,
            "velocity": 0.968503937007874
          },
          {
            "duration": 0.1282052499999793,
            "durationTicks": 120,
            "midi": 66,
            "name": "F#4",
            "ticks": 136320,
            "time": 145.641164,
            "velocity": 0.968503937007874
          },
          {
            "duration": 0.1282052500000077,
            "durationTicks": 120,
            "midi": 57,
            "name": "A3",
            "ticks": 137040,
            "time": 146.4103955,
            "velocity": 0.968503937007874
          },
          {
            "duration": 0.1282052500000077,
            "durationTicks": 120,
            "midi": 62,
            "name": "D4",
            "ticks": 137040,
            "time": 146.4103955,
            "velocity": 0.968503937007874
          },
          {
            "duration": 0.1282052500000077,
            "durationTicks": 120,
            "midi": 66,
            "name": "F#4",
            "ticks": 137040,
            "time": 146.4103955,
            "velocity": 0.968503937007874
          },
          {
            "duration": 0.1282052500000077,
            "durationTicks": 120,
            "midi": 57,
            "name": "A3",
            "ticks": 138240,
            "time": 147.69244799999998,
            "velocity": 0.968503937007874
          },
          {
            "duration": 0.1282052500000077,
            "durationTicks": 120,
            "midi": 62,
            "name": "D4",
            "ticks": 138240,
            "time": 147.69244799999998,
            "velocity": 0.968503937007874
          },
          {
            "duration": 0.1282052500000077,
            "durationTicks": 120,
            "midi": 66,
            "name": "F#4",
            "ticks": 138240,
            "time": 147.69244799999998,
            "velocity": 0.968503937007874
          },
          {
            "duration": 0.1282052499999793,
            "durationTicks": 120,
            "midi": 57,
            "name": "A3",
            "ticks": 138960,
            "time": 148.4616795,
            "velocity": 0.968503937007874
          },
          {
            "duration": 0.1282052499999793,
            "durationTicks": 120,
            "midi": 62,
            "name": "D4",
            "ticks": 138960,
            "time": 148.4616795,
            "velocity": 0.968503937007874
          },
          {
            "duration": 0.1282052499999793,
            "durationTicks": 120,
            "midi": 66,
            "name": "F#4",
            "ticks": 138960,
            "time": 148.4616795,
            "velocity": 0.968503937007874
          },
          {
            "duration": 0.1282052500000077,
            "durationTicks": 120,
            "midi": 57,
            "name": "A3",
            "ticks": 140160,
            "time": 149.743732,
            "velocity": 0.968503937007874
          },
          {
            "duration": 0.1282052500000077,
            "durationTicks": 120,
            "midi": 61,
            "name": "C#4",
            "ticks": 140160,
            "time": 149.743732,
            "velocity": 0.968503937007874
          },
          {
            "duration": 0.1282052500000077,
            "durationTicks": 120,
            "midi": 66,
            "name": "F#4",
            "ticks": 140160,
            "time": 149.743732,
            "velocity": 0.968503937007874
          },
          {
            "duration": 0.1282052500000077,
            "durationTicks": 120,
            "midi": 59,
            "name": "B3",
            "ticks": 140880,
            "time": 150.51296349999998,
            "velocity": 0.968503937007874
          },
          {
            "duration": 0.1282052500000077,
            "durationTicks": 120,
            "midi": 63,
            "name": "D#4",
            "ticks": 140880,
            "time": 150.51296349999998,
            "velocity": 0.968503937007874
          },
          {
            "duration": 0.1282052500000077,
            "durationTicks": 120,
            "midi": 68,
            "name": "G#4",
            "ticks": 140880,
            "time": 150.51296349999998,
            "velocity": 0.968503937007874
          },
          {
            "duration": 0.1282052499999793,
            "durationTicks": 120,
            "midi": 61,
            "name": "C#4",
            "ticks": 142080,
            "time": 151.795016,
            "velocity": 0.968503937007874
          },
          {
            "duration": 0.1282052499999793,
            "durationTicks": 120,
            "midi": 64,
            "name": "E4",
            "ticks": 142080,
            "time": 151.795016,
            "velocity": 0.968503937007874
          },
          {
            "duration": 0.1282052499999793,
            "durationTicks": 120,
            "midi": 69,
            "name": "A4",
            "ticks": 142080,
            "time": 151.795016,
            "velocity": 0.968503937007874
          },
          {
            "duration": 0.1282052500000077,
            "durationTicks": 120,
            "midi": 59,
            "name": "B3",
            "ticks": 142800,
            "time": 152.5642475,
            "velocity": 0.968503937007874
          },
          {
            "duration": 0.1282052500000077,
            "durationTicks": 120,
            "midi": 63,
            "name": "D#4",
            "ticks": 142800,
            "time": 152.5642475,
            "velocity": 0.968503937007874
          },
          {
            "duration": 0.1282052500000077,
            "durationTicks": 120,
            "midi": 68,
            "name": "G#4",
            "ticks": 142800,
            "time": 152.5642475,
            "velocity": 0.968503937007874
          },
          {
            "duration": 0.6410262500000101,
            "durationTicks": 600,
            "midi": 57,
            "name": "A3",
            "ticks": 159360,
            "time": 170.25657199999998,
            "velocity": 0.7874015748031497
          },
          {
            "duration": 0.6410262500000101,
            "durationTicks": 600,
            "midi": 61,
            "name": "C#4",
            "ticks": 159360,
            "time": 170.25657199999998,
            "velocity": 0.7874015748031497
          },
          {
            "duration": 0.6410262500000101,
            "durationTicks": 600,
            "midi": 66,
            "name": "F#4",
            "ticks": 159360,
            "time": 170.25657199999998,
            "velocity": 0.7874015748031497
          },
          {
            "duration": 1.0256420000000048,
            "durationTicks": 960,
            "midi": 59,
            "name": "B3",
            "ticks": 160080,
            "time": 171.0258035,
            "velocity": 0.7874015748031497
          },
          {
            "duration": 1.0256420000000048,
            "durationTicks": 960,
            "midi": 63,
            "name": "D#4",
            "ticks": 160080,
            "time": 171.0258035,
            "velocity": 0.7874015748031497
          },
          {
            "duration": 1.0256420000000048,
            "durationTicks": 960,
            "midi": 68,
            "name": "G#4",
            "ticks": 160080,
            "time": 171.0258035,
            "velocity": 0.7874015748031497
          },
          {
            "duration": 0.6410262500000101,
            "durationTicks": 600,
            "midi": 61,
            "name": "C#4",
            "ticks": 161280,
            "time": 172.307856,
            "velocity": 0.7874015748031497
          },
          {
            "duration": 0.6410262500000101,
            "durationTicks": 600,
            "midi": 64,
            "name": "E4",
            "ticks": 161280,
            "time": 172.307856,
            "velocity": 0.7874015748031497
          },
          {
            "duration": 0.6410262500000101,
            "durationTicks": 600,
            "midi": 69,
            "name": "A4",
            "ticks": 161280,
            "time": 172.307856,
            "velocity": 0.7874015748031497
          },
          {
            "duration": 1.0256420000000048,
            "durationTicks": 960,
            "midi": 59,
            "name": "B3",
            "ticks": 162000,
            "time": 173.07708749999998,
            "velocity": 0.7874015748031497
          },
          {
            "duration": 1.0256420000000048,
            "durationTicks": 960,
            "midi": 63,
            "name": "D#4",
            "ticks": 162000,
            "time": 173.07708749999998,
            "velocity": 0.7874015748031497
          },
          {
            "duration": 1.0256420000000048,
            "durationTicks": 960,
            "midi": 68,
            "name": "G#4",
            "ticks": 162000,
            "time": 173.07708749999998,
            "velocity": 0.7874015748031497
          },
          {
            "duration": 0.6410262499999817,
            "durationTicks": 600,
            "midi": 57,
            "name": "A3",
            "ticks": 163200,
            "time": 174.35914,
            "velocity": 0.7874015748031497
          },
          {
            "duration": 0.6410262499999817,
            "durationTicks": 600,
            "midi": 61,
            "name": "C#4",
            "ticks": 163200,
            "time": 174.35914,
            "velocity": 0.7874015748031497
          },
          {
            "duration": 0.6410262499999817,
            "durationTicks": 600,
            "midi": 66,
            "name": "F#4",
            "ticks": 163200,
            "time": 174.35914,
            "velocity": 0.7874015748031497
          },
          {
            "duration": 1.0256420000000048,
            "durationTicks": 960,
            "midi": 59,
            "name": "B3",
            "ticks": 163920,
            "time": 175.1283715,
            "velocity": 0.7874015748031497
          },
          {
            "duration": 1.0256420000000048,
            "durationTicks": 960,
            "midi": 63,
            "name": "D#4",
            "ticks": 163920,
            "time": 175.1283715,
            "velocity": 0.7874015748031497
          },
          {
            "duration": 1.0256420000000048,
            "durationTicks": 960,
            "midi": 68,
            "name": "G#4",
            "ticks": 163920,
            "time": 175.1283715,
            "velocity": 0.7874015748031497
          },
          {
            "duration": 0.6410262500000101,
            "durationTicks": 600,
            "midi": 61,
            "name": "C#4",
            "ticks": 165120,
            "time": 176.41042399999998,
            "velocity": 0.7874015748031497
          },
          {
            "duration": 0.6410262500000101,
            "durationTicks": 600,
            "midi": 64,
            "name": "E4",
            "ticks": 165120,
            "time": 176.41042399999998,
            "velocity": 0.7874015748031497
          },
          {
            "duration": 0.6410262500000101,
            "durationTicks": 600,
            "midi": 69,
            "name": "A4",
            "ticks": 165120,
            "time": 176.41042399999998,
            "velocity": 0.7874015748031497
          },
          {
            "duration": 1.1538472499999841,
            "durationTicks": 1080,
            "midi": 59,
            "name": "B3",
            "ticks": 165840,
            "time": 177.1796555,
            "velocity": 0.7874015748031497
          },
          {
            "duration": 1.1538472499999841,
            "durationTicks": 1080,
            "midi": 63,
            "name": "D#4",
            "ticks": 165840,
            "time": 177.1796555,
            "velocity": 0.7874015748031497
          },
          {
            "duration": 1.1538472499999841,
            "durationTicks": 1080,
            "midi": 68,
            "name": "G#4",
            "ticks": 165840,
            "time": 177.1796555,
            "velocity": 0.7874015748031497
          },
          {
            "duration": 4.006414062499999,
            "durationTicks": 3750,
            "midi": 57,
            "name": "A3",
            "ticks": 167040,
            "time": 178.461708,
            "velocity": 0.7874015748031497
          },
          {
            "duration": 4.0384653750000155,
            "durationTicks": 3780,
            "midi": 62,
            "name": "D4",
            "ticks": 167040,
            "time": 178.461708,
            "velocity": 0.7874015748031497
          },
          {
            "duration": 4.017097833333338,
            "durationTicks": 3760,
            "midi": 66,
            "name": "F#4",
            "ticks": 167040,
            "time": 178.461708,
            "velocity": 0.7874015748031497
          },
          {
            "duration": 0.1282052500000077,
            "durationTicks": 120,
            "midi": 57,
            "name": "A3",
            "ticks": 170880,
            "time": 182.56427599999998,
            "velocity": 0.968503937007874
          },
          {
            "duration": 0.1282052500000077,
            "durationTicks": 120,
            "midi": 61,
            "name": "C#4",
            "ticks": 170880,
            "time": 182.56427599999998,
            "velocity": 0.968503937007874
          },
          {
            "duration": 0.1282052500000077,
            "durationTicks": 120,
            "midi": 66,
            "name": "F#4",
            "ticks": 170880,
            "time": 182.56427599999998,
            "velocity": 0.968503937007874
          },
          {
            "duration": 0.1282052500000077,
            "durationTicks": 120,
            "midi": 59,
            "name": "B3",
            "ticks": 171600,
            "time": 183.3335075,
            "velocity": 0.968503937007874
          },
          {
            "duration": 0.1282052500000077,
            "durationTicks": 120,
            "midi": 63,
            "name": "D#4",
            "ticks": 171600,
            "time": 183.3335075,
            "velocity": 0.968503937007874
          },
          {
            "duration": 0.1282052500000077,
            "durationTicks": 120,
            "midi": 68,
            "name": "G#4",
            "ticks": 171600,
            "time": 183.3335075,
            "velocity": 0.968503937007874
          },
          {
            "duration": 0.1282052500000077,
            "durationTicks": 120,
            "midi": 61,
            "name": "C#4",
            "ticks": 172800,
            "time": 184.61556,
            "velocity": 0.968503937007874
          },
          {
            "duration": 0.1282052500000077,
            "durationTicks": 120,
            "midi": 64,
            "name": "E4",
            "ticks": 172800,
            "time": 184.61556,
            "velocity": 0.968503937007874
          },
          {
            "duration": 0.1282052500000077,
            "durationTicks": 120,
            "midi": 69,
            "name": "A4",
            "ticks": 172800,
            "time": 184.61556,
            "velocity": 0.968503937007874
          },
          {
            "duration": 0.1282052500000077,
            "durationTicks": 120,
            "midi": 59,
            "name": "B3",
            "ticks": 173520,
            "time": 185.38479149999998,
            "velocity": 0.968503937007874
          },
          {
            "duration": 0.1282052500000077,
            "durationTicks": 120,
            "midi": 63,
            "name": "D#4",
            "ticks": 173520,
            "time": 185.38479149999998,
            "velocity": 0.968503937007874
          },
          {
            "duration": 0.1282052500000077,
            "durationTicks": 120,
            "midi": 68,
            "name": "G#4",
            "ticks": 173520,
            "time": 185.38479149999998,
            "velocity": 0.968503937007874
          },
          {
            "duration": 0.6410262499999817,
            "durationTicks": 600,
            "midi": 57,
            "name": "A3",
            "ticks": 174720,
            "time": 186.666844,
            "velocity": 0.7874015748031497
          },
          {
            "duration": 0.6410262499999817,
            "durationTicks": 600,
            "midi": 61,
            "name": "C#4",
            "ticks": 174720,
            "time": 186.666844,
            "velocity": 0.7874015748031497
          },
          {
            "duration": 0.6410262499999817,
            "durationTicks": 600,
            "midi": 66,
            "name": "F#4",
            "ticks": 174720,
            "time": 186.666844,
            "velocity": 0.7874015748031497
          },
          {
            "duration": 1.0256420000000048,
            "durationTicks": 960,
            "midi": 59,
            "name": "B3",
            "ticks": 175440,
            "time": 187.4360755,
            "velocity": 0.7874015748031497
          },
          {
            "duration": 1.0256420000000048,
            "durationTicks": 960,
            "midi": 63,
            "name": "D#4",
            "ticks": 175440,
            "time": 187.4360755,
            "velocity": 0.7874015748031497
          },
          {
            "duration": 1.0256420000000048,
            "durationTicks": 960,
            "midi": 68,
            "name": "G#4",
            "ticks": 175440,
            "time": 187.4360755,
            "velocity": 0.7874015748031497
          },
          {
            "duration": 0.6410262500000101,
            "durationTicks": 600,
            "midi": 61,
            "name": "C#4",
            "ticks": 176640,
            "time": 188.71812799999998,
            "velocity": 0.7874015748031497
          },
          {
            "duration": 0.6410262500000101,
            "durationTicks": 600,
            "midi": 64,
            "name": "E4",
            "ticks": 176640,
            "time": 188.71812799999998,
            "velocity": 0.7874015748031497
          },
          {
            "duration": 0.6410262500000101,
            "durationTicks": 600,
            "midi": 69,
            "name": "A4",
            "ticks": 176640,
            "time": 188.71812799999998,
            "velocity": 0.7874015748031497
          },
          {
            "duration": 1.0256420000000048,
            "durationTicks": 960,
            "midi": 59,
            "name": "B3",
            "ticks": 177360,
            "time": 189.4873595,
            "velocity": 0.7874015748031497
          },
          {
            "duration": 1.0256420000000048,
            "durationTicks": 960,
            "midi": 63,
            "name": "D#4",
            "ticks": 177360,
            "time": 189.4873595,
            "velocity": 0.7874015748031497
          },
          {
            "duration": 1.0256420000000048,
            "durationTicks": 960,
            "midi": 68,
            "name": "G#4",
            "ticks": 177360,
            "time": 189.4873595,
            "velocity": 0.7874015748031497
          },
          {
            "duration": 0.6410262500000101,
            "durationTicks": 600,
            "midi": 57,
            "name": "A3",
            "ticks": 178560,
            "time": 190.769412,
            "velocity": 0.7874015748031497
          },
          {
            "duration": 0.6410262500000101,
            "durationTicks": 600,
            "midi": 61,
            "name": "C#4",
            "ticks": 178560,
            "time": 190.769412,
            "velocity": 0.7874015748031497
          },
          {
            "duration": 0.6410262500000101,
            "durationTicks": 600,
            "midi": 66,
            "name": "F#4",
            "ticks": 178560,
            "time": 190.769412,
            "velocity": 0.7874015748031497
          },
          {
            "duration": 1.0256420000000048,
            "durationTicks": 960,
            "midi": 59,
            "name": "B3",
            "ticks": 179280,
            "time": 191.53864349999998,
            "velocity": 0.7874015748031497
          },
          {
            "duration": 1.0256420000000048,
            "durationTicks": 960,
            "midi": 63,
            "name": "D#4",
            "ticks": 179280,
            "time": 191.53864349999998,
            "velocity": 0.7874015748031497
          },
          {
            "duration": 1.0256420000000048,
            "durationTicks": 960,
            "midi": 68,
            "name": "G#4",
            "ticks": 179280,
            "time": 191.53864349999998,
            "velocity": 0.7874015748031497
          },
          {
            "duration": 0.6410262499999817,
            "durationTicks": 600,
            "midi": 61,
            "name": "C#4",
            "ticks": 180480,
            "time": 192.820696,
            "velocity": 0.7874015748031497
          },
          {
            "duration": 0.6410262499999817,
            "durationTicks": 600,
            "midi": 64,
            "name": "E4",
            "ticks": 180480,
            "time": 192.820696,
            "velocity": 0.7874015748031497
          },
          {
            "duration": 0.6410262499999817,
            "durationTicks": 600,
            "midi": 69,
            "name": "A4",
            "ticks": 180480,
            "time": 192.820696,
            "velocity": 0.7874015748031497
          },
          {
            "duration": 1.1538472500000125,
            "durationTicks": 1080,
            "midi": 59,
            "name": "B3",
            "ticks": 181200,
            "time": 193.5899275,
            "velocity": 0.7874015748031497
          },
          {
            "duration": 1.1538472500000125,
            "durationTicks": 1080,
            "midi": 63,
            "name": "D#4",
            "ticks": 181200,
            "time": 193.5899275,
            "velocity": 0.7874015748031497
          },
          {
            "duration": 1.1538472500000125,
            "durationTicks": 1080,
            "midi": 68,
            "name": "G#4",
            "ticks": 181200,
            "time": 193.5899275,
            "velocity": 0.7874015748031497
          },
          {
            "duration": 4.006414062499999,
            "durationTicks": 3750,
            "midi": 57,
            "name": "A3",
            "ticks": 182400,
            "time": 194.87197999999998,
            "velocity": 0.7874015748031497
          },
          {
            "duration": 4.0384653750000155,
            "durationTicks": 3780,
            "midi": 62,
            "name": "D4",
            "ticks": 182400,
            "time": 194.87197999999998,
            "velocity": 0.7874015748031497
          },
          {
            "duration": 4.017097833333338,
            "durationTicks": 3760,
            "midi": 66,
            "name": "F#4",
            "ticks": 182400,
            "time": 194.87197999999998,
            "velocity": 0.7874015748031497
          },
          {
            "duration": 0.1282052499999793,
            "durationTicks": 120,
            "midi": 57,
            "name": "A3",
            "ticks": 186240,
            "time": 198.974548,
            "velocity": 0.968503937007874
          },
          {
            "duration": 0.1282052499999793,
            "durationTicks": 120,
            "midi": 61,
            "name": "C#4",
            "ticks": 186240,
            "time": 198.974548,
            "velocity": 0.968503937007874
          },
          {
            "duration": 0.1282052499999793,
            "durationTicks": 120,
            "midi": 66,
            "name": "F#4",
            "ticks": 186240,
            "time": 198.974548,
            "velocity": 0.968503937007874
          },
          {
            "duration": 0.1282052500000077,
            "durationTicks": 120,
            "midi": 59,
            "name": "B3",
            "ticks": 186960,
            "time": 199.7437795,
            "velocity": 0.968503937007874
          },
          {
            "duration": 0.1282052500000077,
            "durationTicks": 120,
            "midi": 63,
            "name": "D#4",
            "ticks": 186960,
            "time": 199.7437795,
            "velocity": 0.968503937007874
          },
          {
            "duration": 0.1282052500000077,
            "durationTicks": 120,
            "midi": 68,
            "name": "G#4",
            "ticks": 186960,
            "time": 199.7437795,
            "velocity": 0.968503937007874
          },
          {
            "duration": 0.1282052500000077,
            "durationTicks": 120,
            "midi": 61,
            "name": "C#4",
            "ticks": 188160,
            "time": 201.02583199999998,
            "velocity": 0.968503937007874
          },
          {
            "duration": 0.1282052500000077,
            "durationTicks": 120,
            "midi": 64,
            "name": "E4",
            "ticks": 188160,
            "time": 201.02583199999998,
            "velocity": 0.968503937007874
          },
          {
            "duration": 0.1282052500000077,
            "durationTicks": 120,
            "midi": 69,
            "name": "A4",
            "ticks": 188160,
            "time": 201.02583199999998,
            "velocity": 0.968503937007874
          },
          {
            "duration": 0.1282052499999793,
            "durationTicks": 120,
            "midi": 59,
            "name": "B3",
            "ticks": 188880,
            "time": 201.7950635,
            "velocity": 0.968503937007874
          },
          {
            "duration": 0.1282052499999793,
            "durationTicks": 120,
            "midi": 63,
            "name": "D#4",
            "ticks": 188880,
            "time": 201.7950635,
            "velocity": 0.968503937007874
          },
          {
            "duration": 0.1282052499999793,
            "durationTicks": 120,
            "midi": 68,
            "name": "G#4",
            "ticks": 188880,
            "time": 201.7950635,
            "velocity": 0.968503937007874
          },
          {
            "duration": 4.0598329166666645,
            "durationTicks": 3800,
            "midi": 57,
            "name": "A3",
            "ticks": 190080,
            "time": 203.077116,
            "velocity": 0.7874015748031497
          },
          {
            "duration": 4.0598329166666645,
            "durationTicks": 3800,
            "midi": 62,
            "name": "D4",
            "ticks": 190080,
            "time": 203.077116,
            "velocity": 0.7874015748031497
          },
          {
            "duration": 4.049149145833326,
            "durationTicks": 3790,
            "midi": 66,
            "name": "F#4",
            "ticks": 190080,
            "time": 203.077116,
            "velocity": 0.7874015748031497
          },
          {
            "duration": 0.138889020833318,
            "durationTicks": 130,
            "midi": 57,
            "name": "A3",
            "ticks": 193920,
            "time": 207.17968399999998,
            "velocity": 0.968503937007874
          },
          {
            "duration": 0.14743603750002876,
            "durationTicks": 138,
            "midi": 61,
            "name": "C#4",
            "ticks": 193920,
            "time": 207.17968399999998,
            "velocity": 0.968503937007874
          },
          {
            "duration": 0.14743603750002876,
            "durationTicks": 138,
            "midi": 66,
            "name": "F#4",
            "ticks": 193920,
            "time": 207.17968399999998,
            "velocity": 0.968503937007874
          },
          {
            "duration": 0.1282052499999793,
            "durationTicks": 120,
            "midi": 59,
            "name": "B3",
            "ticks": 194640,
            "time": 207.9489155,
            "velocity": 0.968503937007874
          },
          {
            "duration": 0.1282052499999793,
            "durationTicks": 120,
            "midi": 63,
            "name": "D#4",
            "ticks": 194640,
            "time": 207.9489155,
            "velocity": 0.968503937007874
          },
          {
            "duration": 0.1282052499999793,
            "durationTicks": 120,
            "midi": 68,
            "name": "G#4",
            "ticks": 194640,
            "time": 207.9489155,
            "velocity": 0.968503937007874
          },
          {
            "duration": 0.1282052500000077,
            "durationTicks": 120,
            "midi": 61,
            "name": "C#4",
            "ticks": 195840,
            "time": 209.230968,
            "velocity": 0.968503937007874
          },
          {
            "duration": 0.1282052500000077,
            "durationTicks": 120,
            "midi": 64,
            "name": "E4",
            "ticks": 195840,
            "time": 209.230968,
            "velocity": 0.968503937007874
          },
          {
            "duration": 0.1282052500000077,
            "durationTicks": 120,
            "midi": 69,
            "name": "A4",
            "ticks": 195840,
            "time": 209.230968,
            "velocity": 0.968503937007874
          },
          {
            "duration": 0.1282052500000077,
            "durationTicks": 120,
            "midi": 59,
            "name": "B3",
            "ticks": 196560,
            "time": 210.00019949999998,
            "velocity": 0.968503937007874
          },
          {
            "duration": 0.1282052500000077,
            "durationTicks": 120,
            "midi": 63,
            "name": "D#4",
            "ticks": 196560,
            "time": 210.00019949999998,
            "velocity": 0.968503937007874
          },
          {
            "duration": 0.1282052500000077,
            "durationTicks": 120,
            "midi": 68,
            "name": "G#4",
            "ticks": 196560,
            "time": 210.00019949999998,
            "velocity": 0.968503937007874
          },
          {
            "duration": 0.6410262499999817,
            "durationTicks": 600,
            "midi": 57,
            "name": "A3",
            "ticks": 197760,
            "time": 211.282252,
            "velocity": 0.7874015748031497
          },
          {
            "duration": 0.6410262499999817,
            "durationTicks": 600,
            "midi": 61,
            "name": "C#4",
            "ticks": 197760,
            "time": 211.282252,
            "velocity": 0.7874015748031497
          },
          {
            "duration": 0.6410262499999817,
            "durationTicks": 600,
            "midi": 66,
            "name": "F#4",
            "ticks": 197760,
            "time": 211.282252,
            "velocity": 0.7874015748031497
          },
          {
            "duration": 1.0256420000000048,
            "durationTicks": 960,
            "midi": 59,
            "name": "B3",
            "ticks": 198480,
            "time": 212.0514835,
            "velocity": 0.7874015748031497
          },
          {
            "duration": 1.0256420000000048,
            "durationTicks": 960,
            "midi": 63,
            "name": "D#4",
            "ticks": 198480,
            "time": 212.0514835,
            "velocity": 0.7874015748031497
          },
          {
            "duration": 1.0256420000000048,
            "durationTicks": 960,
            "midi": 68,
            "name": "G#4",
            "ticks": 198480,
            "time": 212.0514835,
            "velocity": 0.7874015748031497
          },
          {
            "duration": 0.6410262500000101,
            "durationTicks": 600,
            "midi": 61,
            "name": "C#4",
            "ticks": 199680,
            "time": 213.33353599999998,
            "velocity": 0.7874015748031497
          },
          {
            "duration": 0.6410262500000101,
            "durationTicks": 600,
            "midi": 64,
            "name": "E4",
            "ticks": 199680,
            "time": 213.33353599999998,
            "velocity": 0.7874015748031497
          },
          {
            "duration": 0.6410262500000101,
            "durationTicks": 600,
            "midi": 69,
            "name": "A4",
            "ticks": 199680,
            "time": 213.33353599999998,
            "velocity": 0.7874015748031497
          },
          {
            "duration": 1.0256419999999764,
            "durationTicks": 960,
            "midi": 59,
            "name": "B3",
            "ticks": 200400,
            "time": 214.1027675,
            "velocity": 0.7874015748031497
          },
          {
            "duration": 1.0256419999999764,
            "durationTicks": 960,
            "midi": 63,
            "name": "D#4",
            "ticks": 200400,
            "time": 214.1027675,
            "velocity": 0.7874015748031497
          },
          {
            "duration": 1.0256419999999764,
            "durationTicks": 960,
            "midi": 68,
            "name": "G#4",
            "ticks": 200400,
            "time": 214.1027675,
            "velocity": 0.7874015748031497
          },
          {
            "duration": 0.6410262500000101,
            "durationTicks": 600,
            "midi": 57,
            "name": "A3",
            "ticks": 201600,
            "time": 215.38482,
            "velocity": 0.7874015748031497
          },
          {
            "duration": 0.6410262500000101,
            "durationTicks": 600,
            "midi": 61,
            "name": "C#4",
            "ticks": 201600,
            "time": 215.38482,
            "velocity": 0.7874015748031497
          },
          {
            "duration": 0.6410262500000101,
            "durationTicks": 600,
            "midi": 66,
            "name": "F#4",
            "ticks": 201600,
            "time": 215.38482,
            "velocity": 0.7874015748031497
          },
          {
            "duration": 1.0256420000000048,
            "durationTicks": 960,
            "midi": 59,
            "name": "B3",
            "ticks": 202320,
            "time": 216.15405149999998,
            "velocity": 0.7874015748031497
          },
          {
            "duration": 1.0256420000000048,
            "durationTicks": 960,
            "midi": 63,
            "name": "D#4",
            "ticks": 202320,
            "time": 216.15405149999998,
            "velocity": 0.7874015748031497
          },
          {
            "duration": 1.0256420000000048,
            "durationTicks": 960,
            "midi": 68,
            "name": "G#4",
            "ticks": 202320,
            "time": 216.15405149999998,
            "velocity": 0.7874015748031497
          },
          {
            "duration": 0.6410262499999817,
            "durationTicks": 600,
            "midi": 61,
            "name": "C#4",
            "ticks": 203520,
            "time": 217.436104,
            "velocity": 0.7874015748031497
          },
          {
            "duration": 0.6410262499999817,
            "durationTicks": 600,
            "midi": 64,
            "name": "E4",
            "ticks": 203520,
            "time": 217.436104,
            "velocity": 0.7874015748031497
          },
          {
            "duration": 0.6410262499999817,
            "durationTicks": 600,
            "midi": 69,
            "name": "A4",
            "ticks": 203520,
            "time": 217.436104,
            "velocity": 0.7874015748031497
          },
          {
            "duration": 1.1538472499999841,
            "durationTicks": 1080,
            "midi": 59,
            "name": "B3",
            "ticks": 204240,
            "time": 218.2053355,
            "velocity": 0.7874015748031497
          },
          {
            "duration": 1.1538472499999841,
            "durationTicks": 1080,
            "midi": 63,
            "name": "D#4",
            "ticks": 204240,
            "time": 218.2053355,
            "velocity": 0.7874015748031497
          },
          {
            "duration": 1.1538472499999841,
            "durationTicks": 1080,
            "midi": 68,
            "name": "G#4",
            "ticks": 204240,
            "time": 218.2053355,
            "velocity": 0.7874015748031497
          },
          {
            "duration": 0.6410262500000101,
            "durationTicks": 600,
            "midi": 57,
            "name": "A3",
            "ticks": 205440,
            "time": 219.48738799999998,
            "velocity": 0.7874015748031497
          },
          {
            "duration": 0.6410262500000101,
            "durationTicks": 600,
            "midi": 61,
            "name": "C#4",
            "ticks": 205440,
            "time": 219.48738799999998,
            "velocity": 0.7874015748031497
          },
          {
            "duration": 0.6410262500000101,
            "durationTicks": 600,
            "midi": 66,
            "name": "F#4",
            "ticks": 205440,
            "time": 219.48738799999998,
            "velocity": 0.7874015748031497
          },
          {
            "duration": 1.0256419999999764,
            "durationTicks": 960,
            "midi": 59,
            "name": "B3",
            "ticks": 206160,
            "time": 220.2566195,
            "velocity": 0.7874015748031497
          },
          {
            "duration": 1.0256419999999764,
            "durationTicks": 960,
            "midi": 63,
            "name": "D#4",
            "ticks": 206160,
            "time": 220.2566195,
            "velocity": 0.7874015748031497
          },
          {
            "duration": 1.0256419999999764,
            "durationTicks": 960,
            "midi": 68,
            "name": "G#4",
            "ticks": 206160,
            "time": 220.2566195,
            "velocity": 0.7874015748031497
          },
          {
            "duration": 0.6410262500000101,
            "durationTicks": 600,
            "midi": 61,
            "name": "C#4",
            "ticks": 207360,
            "time": 221.538672,
            "velocity": 0.7874015748031497
          },
          {
            "duration": 0.6410262500000101,
            "durationTicks": 600,
            "midi": 64,
            "name": "E4",
            "ticks": 207360,
            "time": 221.538672,
            "velocity": 0.7874015748031497
          },
          {
            "duration": 0.6410262500000101,
            "durationTicks": 600,
            "midi": 69,
            "name": "A4",
            "ticks": 207360,
            "time": 221.538672,
            "velocity": 0.7874015748031497
          },
          {
            "duration": 1.0256420000000048,
            "durationTicks": 960,
            "midi": 59,
            "name": "B3",
            "ticks": 208080,
            "time": 222.30790349999998,
            "velocity": 0.7874015748031497
          },
          {
            "duration": 1.0256420000000048,
            "durationTicks": 960,
            "midi": 63,
            "name": "D#4",
            "ticks": 208080,
            "time": 222.30790349999998,
            "velocity": 0.7874015748031497
          },
          {
            "duration": 1.0256420000000048,
            "durationTicks": 960,
            "midi": 68,
            "name": "G#4",
            "ticks": 208080,
            "time": 222.30790349999998,
            "velocity": 0.7874015748031497
          },
          {
            "duration": 0.6410262499999817,
            "durationTicks": 600,
            "midi": 57,
            "name": "A3",
            "ticks": 209280,
            "time": 223.589956,
            "velocity": 0.7874015748031497
          },
          {
            "duration": 0.6410262499999817,
            "durationTicks": 600,
            "midi": 61,
            "name": "C#4",
            "ticks": 209280,
            "time": 223.589956,
            "velocity": 0.7874015748031497
          },
          {
            "duration": 0.6410262499999817,
            "durationTicks": 600,
            "midi": 66,
            "name": "F#4",
            "ticks": 209280,
            "time": 223.589956,
            "velocity": 0.7874015748031497
          },
          {
            "duration": 1.0256420000000048,
            "durationTicks": 960,
            "midi": 59,
            "name": "B3",
            "ticks": 210000,
            "time": 224.3591875,
            "velocity": 0.7874015748031497
          },
          {
            "duration": 1.0256420000000048,
            "durationTicks": 960,
            "midi": 63,
            "name": "D#4",
            "ticks": 210000,
            "time": 224.3591875,
            "velocity": 0.7874015748031497
          },
          {
            "duration": 1.0256420000000048,
            "durationTicks": 960,
            "midi": 68,
            "name": "G#4",
            "ticks": 210000,
            "time": 224.3591875,
            "velocity": 0.7874015748031497
          },
          {
            "duration": 0.6410262500000101,
            "durationTicks": 600,
            "midi": 61,
            "name": "C#4",
            "ticks": 211200,
            "time": 225.64123999999998,
            "velocity": 0.7874015748031497
          },
          {
            "duration": 0.6410262500000101,
            "durationTicks": 600,
            "midi": 64,
            "name": "E4",
            "ticks": 211200,
            "time": 225.64123999999998,
            "velocity": 0.7874015748031497
          },
          {
            "duration": 0.6410262500000101,
            "durationTicks": 600,
            "midi": 69,
            "name": "A4",
            "ticks": 211200,
            "time": 225.64123999999998,
            "velocity": 0.7874015748031497
          },
          {
            "duration": 1.1538472499999841,
            "durationTicks": 1080,
            "midi": 59,
            "name": "B3",
            "ticks": 211920,
            "time": 226.4104715,
            "velocity": 0.7874015748031497
          },
          {
            "duration": 1.1538472499999841,
            "durationTicks": 1080,
            "midi": 63,
            "name": "D#4",
            "ticks": 211920,
            "time": 226.4104715,
            "velocity": 0.7874015748031497
          },
          {
            "duration": 1.1538472499999841,
            "durationTicks": 1080,
            "midi": 68,
            "name": "G#4",
            "ticks": 211920,
            "time": 226.4104715,
            "velocity": 0.7874015748031497
          },
          {
            "duration": 4.0598329166666645,
            "durationTicks": 3800,
            "midi": 57,
            "name": "A3",
            "ticks": 213120,
            "time": 227.692524,
            "velocity": 0.7874015748031497
          },
          {
            "duration": 4.0598329166666645,
            "durationTicks": 3800,
            "midi": 62,
            "name": "D4",
            "ticks": 213120,
            "time": 227.692524,
            "velocity": 0.7874015748031497
          },
          {
            "duration": 4.049149145833326,
            "durationTicks": 3790,
            "midi": 66,
            "name": "F#4",
            "ticks": 213120,
            "time": 227.692524,
            "velocity": 0.7874015748031497
          },
          {
            "duration": 0.138889020833318,
            "durationTicks": 130,
            "midi": 57,
            "name": "A3",
            "ticks": 216960,
            "time": 231.79509199999998,
            "velocity": 0.968503937007874
          },
          {
            "duration": 0.14743603750002876,
            "durationTicks": 138,
            "midi": 61,
            "name": "C#4",
            "ticks": 216960,
            "time": 231.79509199999998,
            "velocity": 0.968503937007874
          },
          {
            "duration": 0.14743603750002876,
            "durationTicks": 138,
            "midi": 66,
            "name": "F#4",
            "ticks": 216960,
            "time": 231.79509199999998,
            "velocity": 0.968503937007874
          },
          {
            "duration": 0.1282052499999793,
            "durationTicks": 120,
            "midi": 59,
            "name": "B3",
            "ticks": 217680,
            "time": 232.5643235,
            "velocity": 0.968503937007874
          },
          {
            "duration": 0.1282052499999793,
            "durationTicks": 120,
            "midi": 63,
            "name": "D#4",
            "ticks": 217680,
            "time": 232.5643235,
            "velocity": 0.968503937007874
          },
          {
            "duration": 0.1282052499999793,
            "durationTicks": 120,
            "midi": 68,
            "name": "G#4",
            "ticks": 217680,
            "time": 232.5643235,
            "velocity": 0.968503937007874
          },
          {
            "duration": 0.1282052500000077,
            "durationTicks": 120,
            "midi": 61,
            "name": "C#4",
            "ticks": 218880,
            "time": 233.846376,
            "velocity": 0.968503937007874
          },
          {
            "duration": 0.1282052500000077,
            "durationTicks": 120,
            "midi": 64,
            "name": "E4",
            "ticks": 218880,
            "time": 233.846376,
            "velocity": 0.968503937007874
          },
          {
            "duration": 0.1282052500000077,
            "durationTicks": 120,
            "midi": 69,
            "name": "A4",
            "ticks": 218880,
            "time": 233.846376,
            "velocity": 0.968503937007874
          },
          {
            "duration": 0.1282052500000077,
            "durationTicks": 120,
            "midi": 59,
            "name": "B3",
            "ticks": 219600,
            "time": 234.61560749999998,
            "velocity": 0.968503937007874
          },
          {
            "duration": 0.1282052500000077,
            "durationTicks": 120,
            "midi": 63,
            "name": "D#4",
            "ticks": 219600,
            "time": 234.61560749999998,
            "velocity": 0.968503937007874
          },
          {
            "duration": 0.1282052500000077,
            "durationTicks": 120,
            "midi": 68,
            "name": "G#4",
            "ticks": 219600,
            "time": 234.61560749999998,
            "velocity": 0.968503937007874
          },
          {
            "duration": 0.6410262500000101,
            "durationTicks": 600,
            "midi": 57,
            "name": "A3",
            "ticks": 220800,
            "time": 235.89765999999997,
            "velocity": 0.7874015748031497
          },
          {
            "duration": 0.6410262500000101,
            "durationTicks": 600,
            "midi": 61,
            "name": "C#4",
            "ticks": 220800,
            "time": 235.89765999999997,
            "velocity": 0.7874015748031497
          },
          {
            "duration": 0.6410262500000101,
            "durationTicks": 600,
            "midi": 66,
            "name": "F#4",
            "ticks": 220800,
            "time": 235.89765999999997,
            "velocity": 0.7874015748031497
          },
          {
            "duration": 1.0256420000000048,
            "durationTicks": 960,
            "midi": 59,
            "name": "B3",
            "ticks": 221520,
            "time": 236.6668915,
            "velocity": 0.7874015748031497
          },
          {
            "duration": 1.0256420000000048,
            "durationTicks": 960,
            "midi": 63,
            "name": "D#4",
            "ticks": 221520,
            "time": 236.6668915,
            "velocity": 0.7874015748031497
          },
          {
            "duration": 1.0256420000000048,
            "durationTicks": 960,
            "midi": 68,
            "name": "G#4",
            "ticks": 221520,
            "time": 236.6668915,
            "velocity": 0.7874015748031497
          },
          {
            "duration": 0.6410262500000101,
            "durationTicks": 600,
            "midi": 61,
            "name": "C#4",
            "ticks": 222720,
            "time": 237.94894399999998,
            "velocity": 0.7874015748031497
          },
          {
            "duration": 0.6410262500000101,
            "durationTicks": 600,
            "midi": 64,
            "name": "E4",
            "ticks": 222720,
            "time": 237.94894399999998,
            "velocity": 0.7874015748031497
          },
          {
            "duration": 0.6410262500000101,
            "durationTicks": 600,
            "midi": 69,
            "name": "A4",
            "ticks": 222720,
            "time": 237.94894399999998,
            "velocity": 0.7874015748031497
          },
          {
            "duration": 1.0256420000000048,
            "durationTicks": 960,
            "midi": 59,
            "name": "B3",
            "ticks": 223440,
            "time": 238.71817549999997,
            "velocity": 0.7874015748031497
          },
          {
            "duration": 1.0256420000000048,
            "durationTicks": 960,
            "midi": 63,
            "name": "D#4",
            "ticks": 223440,
            "time": 238.71817549999997,
            "velocity": 0.7874015748031497
          },
          {
            "duration": 1.0256420000000048,
            "durationTicks": 960,
            "midi": 68,
            "name": "G#4",
            "ticks": 223440,
            "time": 238.71817549999997,
            "velocity": 0.7874015748031497
          },
          {
            "duration": 0.6410262499999817,
            "durationTicks": 600,
            "midi": 57,
            "name": "A3",
            "ticks": 224640,
            "time": 240.000228,
            "velocity": 0.7874015748031497
          },
          {
            "duration": 0.6410262499999817,
            "durationTicks": 600,
            "midi": 61,
            "name": "C#4",
            "ticks": 224640,
            "time": 240.000228,
            "velocity": 0.7874015748031497
          },
          {
            "duration": 0.6410262499999817,
            "durationTicks": 600,
            "midi": 66,
            "name": "F#4",
            "ticks": 224640,
            "time": 240.000228,
            "velocity": 0.7874015748031497
          },
          {
            "duration": 1.0256420000000048,
            "durationTicks": 960,
            "midi": 59,
            "name": "B3",
            "ticks": 225360,
            "time": 240.76945949999998,
            "velocity": 0.7874015748031497
          },
          {
            "duration": 1.0256420000000048,
            "durationTicks": 960,
            "midi": 63,
            "name": "D#4",
            "ticks": 225360,
            "time": 240.76945949999998,
            "velocity": 0.7874015748031497
          },
          {
            "duration": 1.0256420000000048,
            "durationTicks": 960,
            "midi": 68,
            "name": "G#4",
            "ticks": 225360,
            "time": 240.76945949999998,
            "velocity": 0.7874015748031497
          },
          {
            "duration": 0.6410262500000101,
            "durationTicks": 600,
            "midi": 61,
            "name": "C#4",
            "ticks": 226560,
            "time": 242.05151199999997,
            "velocity": 0.7874015748031497
          },
          {
            "duration": 0.6410262500000101,
            "durationTicks": 600,
            "midi": 64,
            "name": "E4",
            "ticks": 226560,
            "time": 242.05151199999997,
            "velocity": 0.7874015748031497
          },
          {
            "duration": 0.6410262500000101,
            "durationTicks": 600,
            "midi": 69,
            "name": "A4",
            "ticks": 226560,
            "time": 242.05151199999997,
            "velocity": 0.7874015748031497
          },
          {
            "duration": 1.1538472499999841,
            "durationTicks": 1080,
            "midi": 59,
            "name": "B3",
            "ticks": 227280,
            "time": 242.8207435,
            "velocity": 0.7874015748031497
          },
          {
            "duration": 1.1538472499999841,
            "durationTicks": 1080,
            "midi": 63,
            "name": "D#4",
            "ticks": 227280,
            "time": 242.8207435,
            "velocity": 0.7874015748031497
          },
          {
            "duration": 1.1538472499999841,
            "durationTicks": 1080,
            "midi": 68,
            "name": "G#4",
            "ticks": 227280,
            "time": 242.8207435,
            "velocity": 0.7874015748031497
          },
          {
            "duration": 4.006414062499999,
            "durationTicks": 3750,
            "midi": 57,
            "name": "A3",
            "ticks": 228480,
            "time": 244.10279599999998,
            "velocity": 0.7874015748031497
          },
          {
            "duration": 4.0384653750000155,
            "durationTicks": 3780,
            "midi": 62,
            "name": "D4",
            "ticks": 228480,
            "time": 244.10279599999998,
            "velocity": 0.7874015748031497
          },
          {
            "duration": 4.017097833333338,
            "durationTicks": 3760,
            "midi": 66,
            "name": "F#4",
            "ticks": 228480,
            "time": 244.10279599999998,
            "velocity": 0.7874015748031497
          },
          {
            "duration": 0.1282052500000077,
            "durationTicks": 120,
            "midi": 57,
            "name": "A3",
            "ticks": 232320,
            "time": 248.20536399999997,
            "velocity": 0.968503937007874
          },
          {
            "duration": 0.1282052500000077,
            "durationTicks": 120,
            "midi": 61,
            "name": "C#4",
            "ticks": 232320,
            "time": 248.20536399999997,
            "velocity": 0.968503937007874
          },
          {
            "duration": 0.1282052500000077,
            "durationTicks": 120,
            "midi": 66,
            "name": "F#4",
            "ticks": 232320,
            "time": 248.20536399999997,
            "velocity": 0.968503937007874
          },
          {
            "duration": 0.1282052500000077,
            "durationTicks": 120,
            "midi": 59,
            "name": "B3",
            "ticks": 233040,
            "time": 248.9745955,
            "velocity": 0.968503937007874
          },
          {
            "duration": 0.1282052500000077,
            "durationTicks": 120,
            "midi": 63,
            "name": "D#4",
            "ticks": 233040,
            "time": 248.9745955,
            "velocity": 0.968503937007874
          },
          {
            "duration": 0.1282052500000077,
            "durationTicks": 120,
            "midi": 68,
            "name": "G#4",
            "ticks": 233040,
            "time": 248.9745955,
            "velocity": 0.968503937007874
          },
          {
            "duration": 0.1282052500000077,
            "durationTicks": 120,
            "midi": 61,
            "name": "C#4",
            "ticks": 234240,
            "time": 250.25664799999998,
            "velocity": 0.968503937007874
          },
          {
            "duration": 0.1282052500000077,
            "durationTicks": 120,
            "midi": 64,
            "name": "E4",
            "ticks": 234240,
            "time": 250.25664799999998,
            "velocity": 0.968503937007874
          },
          {
            "duration": 0.1282052500000077,
            "durationTicks": 120,
            "midi": 69,
            "name": "A4",
            "ticks": 234240,
            "time": 250.25664799999998,
            "velocity": 0.968503937007874
          },
          {
            "duration": 0.1282052500000077,
            "durationTicks": 120,
            "midi": 59,
            "name": "B3",
            "ticks": 234960,
            "time": 251.02587949999997,
            "velocity": 0.968503937007874
          },
          {
            "duration": 0.1282052500000077,
            "durationTicks": 120,
            "midi": 63,
            "name": "D#4",
            "ticks": 234960,
            "time": 251.02587949999997,
            "velocity": 0.968503937007874
          },
          {
            "duration": 0.1282052500000077,
            "durationTicks": 120,
            "midi": 68,
            "name": "G#4",
            "ticks": 234960,
            "time": 251.02587949999997,
            "velocity": 0.968503937007874
          },
          {
            "duration": 4.0598329166666645,
            "durationTicks": 3800,
            "midi": 57,
            "name": "A3",
            "ticks": 236160,
            "time": 252.307932,
            "velocity": 0.7874015748031497
          },
          {
            "duration": 4.0598329166666645,
            "durationTicks": 3800,
            "midi": 62,
            "name": "D4",
            "ticks": 236160,
            "time": 252.307932,
            "velocity": 0.7874015748031497
          },
          {
            "duration": 4.049149145833326,
            "durationTicks": 3790,
            "midi": 66,
            "name": "F#4",
            "ticks": 236160,
            "time": 252.307932,
            "velocity": 0.7874015748031497
          },
          {
            "duration": 0.13888902083328958,
            "durationTicks": 130,
            "midi": 57,
            "name": "A3",
            "ticks": 240000,
            "time": 256.4105,
            "velocity": 0.968503937007874
          },
          {
            "duration": 0.14743603749997192,
            "durationTicks": 138,
            "midi": 61,
            "name": "C#4",
            "ticks": 240000,
            "time": 256.4105,
            "velocity": 0.968503937007874
          },
          {
            "duration": 0.14743603749997192,
            "durationTicks": 138,
            "midi": 66,
            "name": "F#4",
            "ticks": 240000,
            "time": 256.4105,
            "velocity": 0.968503937007874
          },
          {
            "duration": 0.1282052500000077,
            "durationTicks": 120,
            "midi": 59,
            "name": "B3",
            "ticks": 240720,
            "time": 257.1797315,
            "velocity": 0.968503937007874
          },
          {
            "duration": 0.1282052500000077,
            "durationTicks": 120,
            "midi": 63,
            "name": "D#4",
            "ticks": 240720,
            "time": 257.1797315,
            "velocity": 0.968503937007874
          },
          {
            "duration": 0.1282052500000077,
            "durationTicks": 120,
            "midi": 68,
            "name": "G#4",
            "ticks": 240720,
            "time": 257.1797315,
            "velocity": 0.968503937007874
          },
          {
            "duration": 0.1282052500000077,
            "durationTicks": 120,
            "midi": 61,
            "name": "C#4",
            "ticks": 241920,
            "time": 258.46178399999997,
            "velocity": 0.968503937007874
          },
          {
            "duration": 0.1282052500000077,
            "durationTicks": 120,
            "midi": 64,
            "name": "E4",
            "ticks": 241920,
            "time": 258.46178399999997,
            "velocity": 0.968503937007874
          },
          {
            "duration": 0.1282052500000077,
            "durationTicks": 120,
            "midi": 69,
            "name": "A4",
            "ticks": 241920,
            "time": 258.46178399999997,
            "velocity": 0.968503937007874
          },
          {
            "duration": 0.12820524999995087,
            "durationTicks": 120,
            "midi": 59,
            "name": "B3",
            "ticks": 242640,
            "time": 259.2310155,
            "velocity": 0.968503937007874
          },
          {
            "duration": 0.12820524999995087,
            "durationTicks": 120,
            "midi": 63,
            "name": "D#4",
            "ticks": 242640,
            "time": 259.2310155,
            "velocity": 0.968503937007874
          },
          {
            "duration": 0.12820524999995087,
            "durationTicks": 120,
            "midi": 68,
            "name": "G#4",
            "ticks": 242640,
            "time": 259.2310155,
            "velocity": 0.968503937007874
          },
          {
            "duration": 0.6410262499999817,
            "durationTicks": 600,
            "midi": 57,
            "name": "A3",
            "ticks": 243840,
            "time": 260.513068,
            "velocity": 0.7874015748031497
          },
          {
            "duration": 0.6410262499999817,
            "durationTicks": 600,
            "midi": 61,
            "name": "C#4",
            "ticks": 243840,
            "time": 260.513068,
            "velocity": 0.7874015748031497
          },
          {
            "duration": 0.6410262499999817,
            "durationTicks": 600,
            "midi": 66,
            "name": "F#4",
            "ticks": 243840,
            "time": 260.513068,
            "velocity": 0.7874015748031497
          },
          {
            "duration": 1.0256420000000048,
            "durationTicks": 960,
            "midi": 59,
            "name": "B3",
            "ticks": 244560,
            "time": 261.28229949999997,
            "velocity": 0.7874015748031497
          },
          {
            "duration": 1.0256420000000048,
            "durationTicks": 960,
            "midi": 63,
            "name": "D#4",
            "ticks": 244560,
            "time": 261.28229949999997,
            "velocity": 0.7874015748031497
          },
          {
            "duration": 1.0256420000000048,
            "durationTicks": 960,
            "midi": 68,
            "name": "G#4",
            "ticks": 244560,
            "time": 261.28229949999997,
            "velocity": 0.7874015748031497
          },
          {
            "duration": 0.6410262499999817,
            "durationTicks": 600,
            "midi": 61,
            "name": "C#4",
            "ticks": 245760,
            "time": 262.564352,
            "velocity": 0.7874015748031497
          },
          {
            "duration": 0.6410262499999817,
            "durationTicks": 600,
            "midi": 64,
            "name": "E4",
            "ticks": 245760,
            "time": 262.564352,
            "velocity": 0.7874015748031497
          },
          {
            "duration": 0.6410262499999817,
            "durationTicks": 600,
            "midi": 69,
            "name": "A4",
            "ticks": 245760,
            "time": 262.564352,
            "velocity": 0.7874015748031497
          },
          {
            "duration": 1.0256420000000048,
            "durationTicks": 960,
            "midi": 59,
            "name": "B3",
            "ticks": 246480,
            "time": 263.3335835,
            "velocity": 0.7874015748031497
          },
          {
            "duration": 1.0256420000000048,
            "durationTicks": 960,
            "midi": 63,
            "name": "D#4",
            "ticks": 246480,
            "time": 263.3335835,
            "velocity": 0.7874015748031497
          },
          {
            "duration": 1.0256420000000048,
            "durationTicks": 960,
            "midi": 68,
            "name": "G#4",
            "ticks": 246480,
            "time": 263.3335835,
            "velocity": 0.7874015748031497
          },
          {
            "duration": 0.6410262499999817,
            "durationTicks": 600,
            "midi": 57,
            "name": "A3",
            "ticks": 247680,
            "time": 264.615636,
            "velocity": 0.7874015748031497
          },
          {
            "duration": 0.6410262499999817,
            "durationTicks": 600,
            "midi": 61,
            "name": "C#4",
            "ticks": 247680,
            "time": 264.615636,
            "velocity": 0.7874015748031497
          },
          {
            "duration": 0.6410262499999817,
            "durationTicks": 600,
            "midi": 66,
            "name": "F#4",
            "ticks": 247680,
            "time": 264.615636,
            "velocity": 0.7874015748031497
          },
          {
            "duration": 1.0256420000000048,
            "durationTicks": 960,
            "midi": 59,
            "name": "B3",
            "ticks": 248400,
            "time": 265.3848675,
            "velocity": 0.7874015748031497
          },
          {
            "duration": 1.0256420000000048,
            "durationTicks": 960,
            "midi": 63,
            "name": "D#4",
            "ticks": 248400,
            "time": 265.3848675,
            "velocity": 0.7874015748031497
          },
          {
            "duration": 1.0256420000000048,
            "durationTicks": 960,
            "midi": 68,
            "name": "G#4",
            "ticks": 248400,
            "time": 265.3848675,
            "velocity": 0.7874015748031497
          },
          {
            "duration": 0.6410262499999817,
            "durationTicks": 600,
            "midi": 61,
            "name": "C#4",
            "ticks": 249600,
            "time": 266.66692,
            "velocity": 0.7874015748031497
          },
          {
            "duration": 0.6410262499999817,
            "durationTicks": 600,
            "midi": 64,
            "name": "E4",
            "ticks": 249600,
            "time": 266.66692,
            "velocity": 0.7874015748031497
          },
          {
            "duration": 0.6410262499999817,
            "durationTicks": 600,
            "midi": 69,
            "name": "A4",
            "ticks": 249600,
            "time": 266.66692,
            "velocity": 0.7874015748031497
          },
          {
            "duration": 1.1538472500000125,
            "durationTicks": 1080,
            "midi": 59,
            "name": "B3",
            "ticks": 250320,
            "time": 267.4361515,
            "velocity": 0.7874015748031497
          },
          {
            "duration": 1.1538472500000125,
            "durationTicks": 1080,
            "midi": 63,
            "name": "D#4",
            "ticks": 250320,
            "time": 267.4361515,
            "velocity": 0.7874015748031497
          },
          {
            "duration": 1.1538472500000125,
            "durationTicks": 1080,
            "midi": 68,
            "name": "G#4",
            "ticks": 250320,
            "time": 267.4361515,
            "velocity": 0.7874015748031497
          },
          {
            "duration": 0.6410262500000385,
            "durationTicks": 600,
            "midi": 57,
            "name": "A3",
            "ticks": 251520,
            "time": 268.71820399999996,
            "velocity": 0.7874015748031497
          },
          {
            "duration": 0.6410262500000385,
            "durationTicks": 600,
            "midi": 61,
            "name": "C#4",
            "ticks": 251520,
            "time": 268.71820399999996,
            "velocity": 0.7874015748031497
          },
          {
            "duration": 0.6410262500000385,
            "durationTicks": 600,
            "midi": 66,
            "name": "F#4",
            "ticks": 251520,
            "time": 268.71820399999996,
            "velocity": 0.7874015748031497
          },
          {
            "duration": 1.0256420000000048,
            "durationTicks": 960,
            "midi": 59,
            "name": "B3",
            "ticks": 252240,
            "time": 269.4874355,
            "velocity": 0.7874015748031497
          },
          {
            "duration": 1.0256420000000048,
            "durationTicks": 960,
            "midi": 63,
            "name": "D#4",
            "ticks": 252240,
            "time": 269.4874355,
            "velocity": 0.7874015748031497
          },
          {
            "duration": 1.0256420000000048,
            "durationTicks": 960,
            "midi": 68,
            "name": "G#4",
            "ticks": 252240,
            "time": 269.4874355,
            "velocity": 0.7874015748031497
          },
          {
            "duration": 0.6410262500000385,
            "durationTicks": 600,
            "midi": 61,
            "name": "C#4",
            "ticks": 253440,
            "time": 270.76948799999997,
            "velocity": 0.7874015748031497
          },
          {
            "duration": 0.6410262500000385,
            "durationTicks": 600,
            "midi": 64,
            "name": "E4",
            "ticks": 253440,
            "time": 270.76948799999997,
            "velocity": 0.7874015748031497
          },
          {
            "duration": 0.6410262500000385,
            "durationTicks": 600,
            "midi": 69,
            "name": "A4",
            "ticks": 253440,
            "time": 270.76948799999997,
            "velocity": 0.7874015748031497
          },
          {
            "duration": 1.0256420000000048,
            "durationTicks": 960,
            "midi": 59,
            "name": "B3",
            "ticks": 254160,
            "time": 271.53871949999996,
            "velocity": 0.7874015748031497
          },
          {
            "duration": 1.0256420000000048,
            "durationTicks": 960,
            "midi": 63,
            "name": "D#4",
            "ticks": 254160,
            "time": 271.53871949999996,
            "velocity": 0.7874015748031497
          },
          {
            "duration": 1.0256420000000048,
            "durationTicks": 960,
            "midi": 68,
            "name": "G#4",
            "ticks": 254160,
            "time": 271.53871949999996,
            "velocity": 0.7874015748031497
          },
          {
            "duration": 0.6410262499999817,
            "durationTicks": 600,
            "midi": 57,
            "name": "A3",
            "ticks": 255360,
            "time": 272.820772,
            "velocity": 0.7874015748031497
          },
          {
            "duration": 0.6410262499999817,
            "durationTicks": 600,
            "midi": 61,
            "name": "C#4",
            "ticks": 255360,
            "time": 272.820772,
            "velocity": 0.7874015748031497
          },
          {
            "duration": 0.6410262499999817,
            "durationTicks": 600,
            "midi": 66,
            "name": "F#4",
            "ticks": 255360,
            "time": 272.820772,
            "velocity": 0.7874015748031497
          },
          {
            "duration": 1.0256420000000048,
            "durationTicks": 960,
            "midi": 59,
            "name": "B3",
            "ticks": 256080,
            "time": 273.59000349999997,
            "velocity": 0.7874015748031497
          },
          {
            "duration": 1.0256420000000048,
            "durationTicks": 960,
            "midi": 63,
            "name": "D#4",
            "ticks": 256080,
            "time": 273.59000349999997,
            "velocity": 0.7874015748031497
          },
          {
            "duration": 1.0256420000000048,
            "durationTicks": 960,
            "midi": 68,
            "name": "G#4",
            "ticks": 256080,
            "time": 273.59000349999997,
            "velocity": 0.7874015748031497
          },
          {
            "duration": 0.6410262499999817,
            "durationTicks": 600,
            "midi": 61,
            "name": "C#4",
            "ticks": 257280,
            "time": 274.872056,
            "velocity": 0.7874015748031497
          },
          {
            "duration": 0.6410262499999817,
            "durationTicks": 600,
            "midi": 64,
            "name": "E4",
            "ticks": 257280,
            "time": 274.872056,
            "velocity": 0.7874015748031497
          },
          {
            "duration": 0.6410262499999817,
            "durationTicks": 600,
            "midi": 69,
            "name": "A4",
            "ticks": 257280,
            "time": 274.872056,
            "velocity": 0.7874015748031497
          },
          {
            "duration": 1.1538472500000125,
            "durationTicks": 1080,
            "midi": 59,
            "name": "B3",
            "ticks": 258000,
            "time": 275.6412875,
            "velocity": 0.7874015748031497
          },
          {
            "duration": 1.1538472500000125,
            "durationTicks": 1080,
            "midi": 63,
            "name": "D#4",
            "ticks": 258000,
            "time": 275.6412875,
            "velocity": 0.7874015748031497
          },
          {
            "duration": 1.1538472500000125,
            "durationTicks": 1080,
            "midi": 68,
            "name": "G#4",
            "ticks": 258000,
            "time": 275.6412875,
            "velocity": 0.7874015748031497
          },
          {
            "duration": 0.6410262499999817,
            "durationTicks": 600,
            "midi": 57,
            "name": "A3",
            "ticks": 259200,
            "time": 276.92334,
            "velocity": 0.7874015748031497
          },
          {
            "duration": 0.6410262499999817,
            "durationTicks": 600,
            "midi": 61,
            "name": "C#4",
            "ticks": 259200,
            "time": 276.92334,
            "velocity": 0.7874015748031497
          },
          {
            "duration": 0.6410262499999817,
            "durationTicks": 600,
            "midi": 66,
            "name": "F#4",
            "ticks": 259200,
            "time": 276.92334,
            "velocity": 0.7874015748031497
          },
          {
            "duration": 1.0256420000000048,
            "durationTicks": 960,
            "midi": 59,
            "name": "B3",
            "ticks": 259920,
            "time": 277.6925715,
            "velocity": 0.7874015748031497
          },
          {
            "duration": 1.0256420000000048,
            "durationTicks": 960,
            "midi": 63,
            "name": "D#4",
            "ticks": 259920,
            "time": 277.6925715,
            "velocity": 0.7874015748031497
          },
          {
            "duration": 1.0256420000000048,
            "durationTicks": 960,
            "midi": 68,
            "name": "G#4",
            "ticks": 259920,
            "time": 277.6925715,
            "velocity": 0.7874015748031497
          },
          {
            "duration": 0.6410262499999817,
            "durationTicks": 600,
            "midi": 61,
            "name": "C#4",
            "ticks": 261120,
            "time": 278.974624,
            "velocity": 0.7874015748031497
          },
          {
            "duration": 0.6410262499999817,
            "durationTicks": 600,
            "midi": 64,
            "name": "E4",
            "ticks": 261120,
            "time": 278.974624,
            "velocity": 0.7874015748031497
          },
          {
            "duration": 0.6410262499999817,
            "durationTicks": 600,
            "midi": 69,
            "name": "A4",
            "ticks": 261120,
            "time": 278.974624,
            "velocity": 0.7874015748031497
          },
          {
            "duration": 1.0256420000000048,
            "durationTicks": 960,
            "midi": 59,
            "name": "B3",
            "ticks": 261840,
            "time": 279.7438555,
            "velocity": 0.7874015748031497
          },
          {
            "duration": 1.0256420000000048,
            "durationTicks": 960,
            "midi": 63,
            "name": "D#4",
            "ticks": 261840,
            "time": 279.7438555,
            "velocity": 0.7874015748031497
          },
          {
            "duration": 1.0256420000000048,
            "durationTicks": 960,
            "midi": 68,
            "name": "G#4",
            "ticks": 261840,
            "time": 279.7438555,
            "velocity": 0.7874015748031497
          },
          {
            "duration": 0.6410262500000385,
            "durationTicks": 600,
            "midi": 57,
            "name": "A3",
            "ticks": 263040,
            "time": 281.02590799999996,
            "velocity": 0.7874015748031497
          },
          {
            "duration": 0.6410262500000385,
            "durationTicks": 600,
            "midi": 61,
            "name": "C#4",
            "ticks": 263040,
            "time": 281.02590799999996,
            "velocity": 0.7874015748031497
          },
          {
            "duration": 0.6410262500000385,
            "durationTicks": 600,
            "midi": 66,
            "name": "F#4",
            "ticks": 263040,
            "time": 281.02590799999996,
            "velocity": 0.7874015748031497
          },
          {
            "duration": 1.0256420000000048,
            "durationTicks": 960,
            "midi": 59,
            "name": "B3",
            "ticks": 263760,
            "time": 281.7951395,
            "velocity": 0.7874015748031497
          },
          {
            "duration": 1.0256420000000048,
            "durationTicks": 960,
            "midi": 63,
            "name": "D#4",
            "ticks": 263760,
            "time": 281.7951395,
            "velocity": 0.7874015748031497
          },
          {
            "duration": 1.0256420000000048,
            "durationTicks": 960,
            "midi": 68,
            "name": "G#4",
            "ticks": 263760,
            "time": 281.7951395,
            "velocity": 0.7874015748031497
          },
          {
            "duration": 0.6410262500000385,
            "durationTicks": 600,
            "midi": 61,
            "name": "C#4",
            "ticks": 264960,
            "time": 283.07719199999997,
            "velocity": 0.7874015748031497
          },
          {
            "duration": 0.6410262500000385,
            "durationTicks": 600,
            "midi": 64,
            "name": "E4",
            "ticks": 264960,
            "time": 283.07719199999997,
            "velocity": 0.7874015748031497
          },
          {
            "duration": 0.6410262500000385,
            "durationTicks": 600,
            "midi": 69,
            "name": "A4",
            "ticks": 264960,
            "time": 283.07719199999997,
            "velocity": 0.7874015748031497
          },
          {
            "duration": 1.1538472500000125,
            "durationTicks": 1080,
            "midi": 59,
            "name": "B3",
            "ticks": 265680,
            "time": 283.84642349999996,
            "velocity": 0.7874015748031497
          },
          {
            "duration": 1.1538472500000125,
            "durationTicks": 1080,
            "midi": 63,
            "name": "D#4",
            "ticks": 265680,
            "time": 283.84642349999996,
            "velocity": 0.7874015748031497
          },
          {
            "duration": 1.1538472500000125,
            "durationTicks": 1080,
            "midi": 68,
            "name": "G#4",
            "ticks": 265680,
            "time": 283.84642349999996,
            "velocity": 0.7874015748031497
          },
          {
            "duration": 0.6410262499999817,
            "durationTicks": 600,
            "midi": 57,
            "name": "A3",
            "ticks": 266880,
            "time": 285.128476,
            "velocity": 0.7874015748031497
          },
          {
            "duration": 0.6410262499999817,
            "durationTicks": 600,
            "midi": 61,
            "name": "C#4",
            "ticks": 266880,
            "time": 285.128476,
            "velocity": 0.7874015748031497
          },
          {
            "duration": 0.6410262499999817,
            "durationTicks": 600,
            "midi": 66,
            "name": "F#4",
            "ticks": 266880,
            "time": 285.128476,
            "velocity": 0.7874015748031497
          },
          {
            "duration": 1.0256420000000048,
            "durationTicks": 960,
            "midi": 59,
            "name": "B3",
            "ticks": 267600,
            "time": 285.89770749999997,
            "velocity": 0.7874015748031497
          },
          {
            "duration": 1.0256420000000048,
            "durationTicks": 960,
            "midi": 63,
            "name": "D#4",
            "ticks": 267600,
            "time": 285.89770749999997,
            "velocity": 0.7874015748031497
          },
          {
            "duration": 1.0256420000000048,
            "durationTicks": 960,
            "midi": 68,
            "name": "G#4",
            "ticks": 267600,
            "time": 285.89770749999997,
            "velocity": 0.7874015748031497
          },
          {
            "duration": 0.6410262499999817,
            "durationTicks": 600,
            "midi": 61,
            "name": "C#4",
            "ticks": 268800,
            "time": 287.17976,
            "velocity": 0.7874015748031497
          },
          {
            "duration": 0.6410262499999817,
            "durationTicks": 600,
            "midi": 64,
            "name": "E4",
            "ticks": 268800,
            "time": 287.17976,
            "velocity": 0.7874015748031497
          },
          {
            "duration": 0.6410262499999817,
            "durationTicks": 600,
            "midi": 69,
            "name": "A4",
            "ticks": 268800,
            "time": 287.17976,
            "velocity": 0.7874015748031497
          },
          {
            "duration": 1.0256420000000048,
            "durationTicks": 960,
            "midi": 59,
            "name": "B3",
            "ticks": 269520,
            "time": 287.9489915,
            "velocity": 0.7874015748031497
          },
          {
            "duration": 1.0256420000000048,
            "durationTicks": 960,
            "midi": 63,
            "name": "D#4",
            "ticks": 269520,
            "time": 287.9489915,
            "velocity": 0.7874015748031497
          },
          {
            "duration": 1.0256420000000048,
            "durationTicks": 960,
            "midi": 68,
            "name": "G#4",
            "ticks": 269520,
            "time": 287.9489915,
            "velocity": 0.7874015748031497
          },
          {
            "duration": 0.6410262499999817,
            "durationTicks": 600,
            "midi": 57,
            "name": "A3",
            "ticks": 270720,
            "time": 289.231044,
            "velocity": 0.4566929133858268
          },
          {
            "duration": 0.6410262499999817,
            "durationTicks": 600,
            "midi": 61,
            "name": "C#4",
            "ticks": 270720,
            "time": 289.231044,
            "velocity": 0.4566929133858268
          },
          {
            "duration": 0.6410262499999817,
            "durationTicks": 600,
            "midi": 66,
            "name": "F#4",
            "ticks": 270720,
            "time": 289.231044,
            "velocity": 0.4251968503937008
          },
          {
            "duration": 0.5448723124999901,
            "durationTicks": 510,
            "midi": 59,
            "name": "B3",
            "ticks": 271440,
            "time": 290.0002755,
            "velocity": 0.4881889763779528
          },
          {
            "duration": 0.5448723124999901,
            "durationTicks": 510,
            "midi": 63,
            "name": "D#4",
            "ticks": 271440,
            "time": 290.0002755,
            "velocity": 0.4881889763779528
          },
          {
            "duration": 0.5448723124999901,
            "durationTicks": 510,
            "midi": 68,
            "name": "G#4",
            "ticks": 271440,
            "time": 290.0002755,
            "velocity": 0.4881889763779528
          }
        ]
      },
      {
        "channel": 0,
        "controlChanges": {
          "0": [
            {
              "number": 0,
              "ticks": 523,
              "time": 0.5587612145833333,
              "value": 0
            }
          ],
          "32": [
            {
              "number": 32,
              "ticks": 525,
              "time": 0.56089796875,
              "value": 0
            }
          ],
          "121": [
            {
              "number": 121,
              "ticks": 485,
              "time": 0.5181628854166667,
              "value": 0
            }
          ]
        },
        "pitchBends": [],
        "instrument": {
          "family": "piano",
          "number": 0,
          "name": "acoustic grand piano"
        },
        "name": "       ",
        "notes": [],
        "endOfTrackTicks": 274560
      },
      {
        "channel": 3,
        "controlChanges": {
          "7": [
            {
              "number": 7,
              "ticks": 530,
              "time": 0.5662398541666667,
              "value": 0.9763779527559056
            }
          ],
          "10": [
            {
              "number": 10,
              "ticks": 530,
              "time": 0.5662398541666667,
              "value": 0.5039370078740157
            }
          ],
          "11": [
            {
              "number": 11,
              "ticks": 1300,
              "time": 1.3888902083333334,
              "value": 1
            },
            {
              "number": 11,
              "ticks": 259205,
              "time": 276.9286818854166,
              "value": 1
            },
            {
              "number": 11,
              "ticks": 259325,
              "time": 277.0568871354166,
              "value": 0.9921259842519685
            },
            {
              "number": 11,
              "ticks": 259425,
              "time": 277.16372484375,
              "value": 0.984251968503937
            },
            {
              "number": 11,
              "ticks": 259525,
              "time": 277.27056255208333,
              "value": 0.9763779527559056
            },
            {
              "number": 11,
              "ticks": 259645,
              "time": 277.39876780208334,
              "value": 0.968503937007874
            },
            {
              "number": 11,
              "ticks": 259745,
              "time": 277.5056055104166,
              "value": 0.9606299212598425
            },
            {
              "number": 11,
              "ticks": 259845,
              "time": 277.61244321875,
              "value": 0.952755905511811
            },
            {
              "number": 11,
              "ticks": 259945,
              "time": 277.71928092708333,
              "value": 0.9448818897637795
            },
            {
              "number": 11,
              "ticks": 260065,
              "time": 277.84748617708334,
              "value": 0.937007874015748
            },
            {
              "number": 11,
              "ticks": 260165,
              "time": 277.9543238854166,
              "value": 0.9291338582677166
            },
            {
              "number": 11,
              "ticks": 260265,
              "time": 278.06116159375,
              "value": 0.9212598425196851
            },
            {
              "number": 11,
              "ticks": 260365,
              "time": 278.16799930208333,
              "value": 0.9133858267716536
            },
            {
              "number": 11,
              "ticks": 260485,
              "time": 278.29620455208334,
              "value": 0.905511811023622
            },
            {
              "number": 11,
              "ticks": 260585,
              "time": 278.4030422604166,
              "value": 0.8976377952755905
            },
            {
              "number": 11,
              "ticks": 260685,
              "time": 278.50987996875,
              "value": 0.889763779527559
            },
            {
              "number": 11,
              "ticks": 260785,
              "time": 278.61671767708333,
              "value": 0.8818897637795275
            },
            {
              "number": 11,
              "ticks": 260905,
              "time": 278.74492292708334,
              "value": 0.8740157480314961
            },
            {
              "number": 11,
              "ticks": 261005,
              "time": 278.8517606354166,
              "value": 0.8661417322834646
            },
            {
              "number": 11,
              "ticks": 261105,
              "time": 278.95859834375,
              "value": 0.8582677165354331
            },
            {
              "number": 11,
              "ticks": 261205,
              "time": 279.0654360520833,
              "value": 0.8503937007874016
            },
            {
              "number": 11,
              "ticks": 261325,
              "time": 279.19364130208334,
              "value": 0.84251968503937
            },
            {
              "number": 11,
              "ticks": 261425,
              "time": 279.3004790104166,
              "value": 0.8346456692913385
            },
            {
              "number": 11,
              "ticks": 261525,
              "time": 279.40731671875,
              "value": 0.8267716535433071
            },
            {
              "number": 11,
              "ticks": 261625,
              "time": 279.5141544270833,
              "value": 0.8188976377952756
            },
            {
              "number": 11,
              "ticks": 261745,
              "time": 279.64235967708333,
              "value": 0.8110236220472441
            },
            {
              "number": 11,
              "ticks": 261845,
              "time": 279.7491973854166,
              "value": 0.8031496062992126
            },
            {
              "number": 11,
              "ticks": 261945,
              "time": 279.85603509375,
              "value": 0.7952755905511811
            },
            {
              "number": 11,
              "ticks": 262045,
              "time": 279.9628728020833,
              "value": 0.7874015748031497
            },
            {
              "number": 11,
              "ticks": 262165,
              "time": 280.09107805208333,
              "value": 0.7795275590551181
            },
            {
              "number": 11,
              "ticks": 262265,
              "time": 280.1979157604166,
              "value": 0.7716535433070866
            },
            {
              "number": 11,
              "ticks": 262365,
              "time": 280.30475346875,
              "value": 0.7637795275590551
            },
            {
              "number": 11,
              "ticks": 262465,
              "time": 280.4115911770833,
              "value": 0.7559055118110236
            },
            {
              "number": 11,
              "ticks": 262585,
              "time": 280.53979642708333,
              "value": 0.7480314960629921
            },
            {
              "number": 11,
              "ticks": 262685,
              "time": 280.6466341354166,
              "value": 0.7401574803149606
            },
            {
              "number": 11,
              "ticks": 262785,
              "time": 280.75347184375,
              "value": 0.7322834645669292
            },
            {
              "number": 11,
              "ticks": 262905,
              "time": 280.88167709375,
              "value": 0.7244094488188977
            },
            {
              "number": 11,
              "ticks": 263005,
              "time": 280.98851480208333,
              "value": 0.7165354330708661
            },
            {
              "number": 11,
              "ticks": 263105,
              "time": 281.0953525104166,
              "value": 0.7086614173228346
            },
            {
              "number": 11,
              "ticks": 263205,
              "time": 281.20219021875,
              "value": 0.7007874015748031
            },
            {
              "number": 11,
              "ticks": 263325,
              "time": 281.33039546875,
              "value": 0.6929133858267716
            },
            {
              "number": 11,
              "ticks": 263425,
              "time": 281.43723317708333,
              "value": 0.6850393700787402
            },
            {
              "number": 11,
              "ticks": 263525,
              "time": 281.54407088541666,
              "value": 0.6771653543307087
            },
            {
              "number": 11,
              "ticks": 263625,
              "time": 281.65090859375,
              "value": 0.6692913385826772
            },
            {
              "number": 11,
              "ticks": 263745,
              "time": 281.77911384375,
              "value": 0.6614173228346457
            },
            {
              "number": 11,
              "ticks": 263845,
              "time": 281.8859515520833,
              "value": 0.6535433070866141
            },
            {
              "number": 11,
              "ticks": 263945,
              "time": 281.99278926041666,
              "value": 0.6456692913385826
            },
            {
              "number": 11,
              "ticks": 264045,
              "time": 282.09962696875,
              "value": 0.6377952755905512
            },
            {
              "number": 11,
              "ticks": 264165,
              "time": 282.22783221875,
              "value": 0.6299212598425197
            },
            {
              "number": 11,
              "ticks": 264265,
              "time": 282.3346699270833,
              "value": 0.6220472440944882
            },
            {
              "number": 11,
              "ticks": 264365,
              "time": 282.44150763541666,
              "value": 0.6141732283464567
            },
            {
              "number": 11,
              "ticks": 264465,
              "time": 282.54834534375,
              "value": 0.6062992125984252
            },
            {
              "number": 11,
              "ticks": 264585,
              "time": 282.67655059375,
              "value": 0.5984251968503937
            },
            {
              "number": 11,
              "ticks": 264685,
              "time": 282.7833883020833,
              "value": 0.5905511811023622
            },
            {
              "number": 11,
              "ticks": 264785,
              "time": 282.89022601041665,
              "value": 0.5826771653543307
            },
            {
              "number": 11,
              "ticks": 264885,
              "time": 282.99706371875,
              "value": 0.5748031496062992
            },
            {
              "number": 11,
              "ticks": 265005,
              "time": 283.12526896875,
              "value": 0.5669291338582677
            },
            {
              "number": 11,
              "ticks": 265105,
              "time": 283.2321066770833,
              "value": 0.5590551181102362
            },
            {
              "number": 11,
              "ticks": 265205,
              "time": 283.33894438541665,
              "value": 0.5511811023622047
            },
            {
              "number": 11,
              "ticks": 265305,
              "time": 283.44578209375,
              "value": 0.5433070866141733
            },
            {
              "number": 11,
              "ticks": 265425,
              "time": 283.57398734375,
              "value": 0.5354330708661418
            },
            {
              "number": 11,
              "ticks": 265525,
              "time": 283.6808250520833,
              "value": 0.5275590551181102
            },
            {
              "number": 11,
              "ticks": 265625,
              "time": 283.78766276041665,
              "value": 0.5196850393700787
            },
            {
              "number": 11,
              "ticks": 265725,
              "time": 283.89450046875,
              "value": 0.5118110236220472
            },
            {
              "number": 11,
              "ticks": 265845,
              "time": 284.02270571875,
              "value": 0.5039370078740157
            },
            {
              "number": 11,
              "ticks": 265945,
              "time": 284.1295434270833,
              "value": 0.49606299212598426
            },
            {
              "number": 11,
              "ticks": 266045,
              "time": 284.23638113541665,
              "value": 0.4881889763779528
            },
            {
              "number": 11,
              "ticks": 266165,
              "time": 284.36458638541666,
              "value": 0.48031496062992124
            },
            {
              "number": 11,
              "ticks": 266265,
              "time": 284.47142409375,
              "value": 0.47244094488188976
            },
            {
              "number": 11,
              "ticks": 266365,
              "time": 284.5782618020833,
              "value": 0.4645669291338583
            },
            {
              "number": 11,
              "ticks": 266465,
              "time": 284.68509951041665,
              "value": 0.4566929133858268
            },
            {
              "number": 11,
              "ticks": 266585,
              "time": 284.81330476041666,
              "value": 0.44881889763779526
            },
            {
              "number": 11,
              "ticks": 266685,
              "time": 284.92014246875,
              "value": 0.4409448818897638
            },
            {
              "number": 11,
              "ticks": 266785,
              "time": 285.0269801770833,
              "value": 0.4330708661417323
            },
            {
              "number": 11,
              "ticks": 266885,
              "time": 285.13381788541665,
              "value": 0.4251968503937008
            },
            {
              "number": 11,
              "ticks": 267005,
              "time": 285.26202313541665,
              "value": 0.41732283464566927
            },
            {
              "number": 11,
              "ticks": 267105,
              "time": 285.36886084375,
              "value": 0.4094488188976378
            },
            {
              "number": 11,
              "ticks": 267205,
              "time": 285.4756985520833,
              "value": 0.4015748031496063
            },
            {
              "number": 11,
              "ticks": 267305,
              "time": 285.58253626041665,
              "value": 0.3937007874015748
            },
            {
              "number": 11,
              "ticks": 267425,
              "time": 285.71074151041665,
              "value": 0.3858267716535433
            },
            {
              "number": 11,
              "ticks": 267525,
              "time": 285.81757921875,
              "value": 0.3779527559055118
            },
            {
              "number": 11,
              "ticks": 267625,
              "time": 285.9244169270833,
              "value": 0.3700787401574803
            },
            {
              "number": 11,
              "ticks": 267725,
              "time": 286.03125463541664,
              "value": 0.36220472440944884
            },
            {
              "number": 11,
              "ticks": 267845,
              "time": 286.15945988541665,
              "value": 0.3543307086614173
            },
            {
              "number": 11,
              "ticks": 267945,
              "time": 286.26629759375,
              "value": 0.3464566929133858
            },
            {
              "number": 11,
              "ticks": 268045,
              "time": 286.3731353020833,
              "value": 0.33858267716535434
            },
            {
              "number": 11,
              "ticks": 268145,
              "time": 286.47997301041664,
              "value": 0.33070866141732286
            },
            {
              "number": 11,
              "ticks": 268265,
              "time": 286.60817826041665,
              "value": 0.3228346456692913
            },
            {
              "number": 11,
              "ticks": 268365,
              "time": 286.71501596875,
              "value": 0.31496062992125984
            },
            {
              "number": 11,
              "ticks": 268465,
              "time": 286.8218536770833,
              "value": 0.30708661417322836
            },
            {
              "number": 11,
              "ticks": 268565,
              "time": 286.92869138541664,
              "value": 0.2992125984251969
            },
            {
              "number": 11,
              "ticks": 268685,
              "time": 287.05689663541665,
              "value": 0.29133858267716534
            },
            {
              "number": 11,
              "ticks": 268785,
              "time": 287.16373434375,
              "value": 0.28346456692913385
            },
            {
              "number": 11,
              "ticks": 268885,
              "time": 287.2705720520833,
              "value": 0.2755905511811024
            },
            {
              "number": 11,
              "ticks": 268985,
              "time": 287.37740976041664,
              "value": 0.2677165354330709
            },
            {
              "number": 11,
              "ticks": 269105,
              "time": 287.50561501041665,
              "value": 0.25984251968503935
            },
            {
              "number": 11,
              "ticks": 269205,
              "time": 287.61245271875,
              "value": 0.25196850393700787
            },
            {
              "number": 11,
              "ticks": 269305,
              "time": 287.7192904270833,
              "value": 0.2440944881889764
            },
            {
              "number": 11,
              "ticks": 269425,
              "time": 287.8474956770833,
              "value": 0.23622047244094488
            },
            {
              "number": 11,
              "ticks": 269525,
              "time": 287.95433338541665,
              "value": 0.2283464566929134
            },
            {
              "number": 11,
              "ticks": 269625,
              "time": 288.06117109375,
              "value": 0.2204724409448819
            },
            {
              "number": 11,
              "ticks": 269725,
              "time": 288.16800880208336,
              "value": 0.2125984251968504
            },
            {
              "number": 11,
              "ticks": 269845,
              "time": 288.2962140520833,
              "value": 0.2047244094488189
            },
            {
              "number": 11,
              "ticks": 269945,
              "time": 288.40305176041664,
              "value": 0.1968503937007874
            },
            {
              "number": 11,
              "ticks": 270045,
              "time": 288.50988946875,
              "value": 0.1889763779527559
            },
            {
              "number": 11,
              "ticks": 270145,
              "time": 288.61672717708336,
              "value": 0.18110236220472442
            },
            {
              "number": 11,
              "ticks": 270265,
              "time": 288.7449324270833,
              "value": 0.1732283464566929
            },
            {
              "number": 11,
              "ticks": 270365,
              "time": 288.85177013541664,
              "value": 0.16535433070866143
            },
            {
              "number": 11,
              "ticks": 270465,
              "time": 288.95860784375,
              "value": 0.15748031496062992
            },
            {
              "number": 11,
              "ticks": 270565,
              "time": 289.06544555208336,
              "value": 0.14960629921259844
            },
            {
              "number": 11,
              "ticks": 270685,
              "time": 289.1936508020833,
              "value": 0.14173228346456693
            },
            {
              "number": 11,
              "ticks": 270785,
              "time": 289.30048851041664,
              "value": 0.13385826771653545
            },
            {
              "number": 11,
              "ticks": 270885,
              "time": 289.40732621875,
              "value": 0.12598425196850394
            },
            {
              "number": 11,
              "ticks": 270985,
              "time": 289.51416392708336,
              "value": 0.11811023622047244
            },
            {
              "number": 11,
              "ticks": 271105,
              "time": 289.6423691770833,
              "value": 0.11023622047244094
            },
            {
              "number": 11,
              "ticks": 271205,
              "time": 289.74920688541664,
              "value": 0.10236220472440945
            },
            {
              "number": 11,
              "ticks": 271305,
              "time": 289.85604459374997,
              "value": 0.09448818897637795
            },
            {
              "number": 11,
              "ticks": 271405,
              "time": 289.96288230208336,
              "value": 0.08661417322834646
            },
            {
              "number": 11,
              "ticks": 271525,
              "time": 290.0910875520833,
              "value": 0.07874015748031496
            },
            {
              "number": 11,
              "ticks": 271625,
              "time": 290.19792526041664,
              "value": 0.07086614173228346
            },
            {
              "number": 11,
              "ticks": 271725,
              "time": 290.30476296874997,
              "value": 0.06299212598425197
            },
            {
              "number": 11,
              "ticks": 271825,
              "time": 290.41160067708336,
              "value": 0.05511811023622047
            },
            {
              "number": 11,
              "ticks": 271945,
              "time": 290.53980592708336,
              "value": 0.047244094488188976
            },
            {
              "number": 11,
              "ticks": 272045,
              "time": 290.64664363541664,
              "value": 0.03937007874015748
            },
            {
              "number": 11,
              "ticks": 272145,
              "time": 290.75348134374997,
              "value": 0.031496062992125984
            },
            {
              "number": 11,
              "ticks": 272245,
              "time": 290.86031905208336,
              "value": 0.023622047244094488
            },
            {
              "number": 11,
              "ticks": 272365,
              "time": 290.98852430208336,
              "value": 0.015748031496062992
            },
            {
              "number": 11,
              "ticks": 272465,
              "time": 291.09536201041664,
              "value": 0.007874015748031496
            }
          ],
          "91": [
            {
              "number": 91,
              "ticks": 968,
              "time": 1.0341890166666665,
              "value": 0.5511811023622047
            }
          ],
          "93": [
            {
              "number": 93,
              "ticks": 1085,
              "time": 1.1591891354166666,
              "value": 0.2992125984251969
            }
          ],
          "120": [
            {
              "number": 120,
              "ticks": 272655,
              "time": 291.29835365624996,
              "value": 0
            }
          ],
          "123": [
            {
              "number": 123,
              "ticks": 272785,
              "time": 291.43724267708336,
              "value": 0
            }
          ]
        },
        "pitchBends": [],
        "instrument": {
          "family": "ensemble",
          "number": 53,
          "name": "voice oohs"
        },
        "name": "",
        "notes": [
          {
            "duration": 0.17948735000000227,
            "durationTicks": 168,
            "midi": 61,
            "name": "C#4",
            "ticks": 29280,
            "time": 31.282080999999998,
            "velocity": 1
          },
          {
            "duration": 0.25961563125,
            "durationTicks": 243,
            "midi": 61,
            "name": "C#4",
            "ticks": 29520,
            "time": 31.5384915,
            "velocity": 0.9291338582677166
          },
          {
            "duration": 0.18482923541666807,
            "durationTicks": 173,
            "midi": 61,
            "name": "C#4",
            "ticks": 29760,
            "time": 31.794901999999997,
            "velocity": 1
          },
          {
            "duration": 0.20833353124999832,
            "durationTicks": 195,
            "midi": 59,
            "name": "B3",
            "ticks": 30000,
            "time": 32.0513125,
            "velocity": 0.968503937007874
          },
          {
            "duration": 0.20619677708333484,
            "durationTicks": 193,
            "midi": 57,
            "name": "A3",
            "ticks": 30240,
            "time": 32.307722999999996,
            "velocity": 0.8582677165354331
          },
          {
            "duration": 0.4113251770833344,
            "durationTicks": 385,
            "midi": 59,
            "name": "B3",
            "ticks": 30480,
            "time": 32.5641335,
            "velocity": 1
          },
          {
            "duration": 0.1634616937499942,
            "durationTicks": 153,
            "midi": 57,
            "name": "A3",
            "ticks": 30960,
            "time": 33.0769545,
            "velocity": 0.7165354330708661
          },
          {
            "duration": 0.1762822187499964,
            "durationTicks": 165,
            "midi": 61,
            "name": "C#4",
            "ticks": 31200,
            "time": 33.333365,
            "velocity": 1
          },
          {
            "duration": 0.08012828125000482,
            "durationTicks": 75,
            "midi": 57,
            "name": "A3",
            "ticks": 31440,
            "time": 33.589775499999995,
            "velocity": 0.937007874015748
          },
          {
            "duration": 0.08547016666667417,
            "durationTicks": 80,
            "midi": 57,
            "name": "A3",
            "ticks": 31560,
            "time": 33.717980749999995,
            "velocity": 0.6141732283464567
          },
          {
            "duration": 0.16880357916667066,
            "durationTicks": 158,
            "midi": 59,
            "name": "B3",
            "ticks": 31680,
            "time": 33.846185999999996,
            "velocity": 1
          },
          {
            "duration": 0.18482923541666452,
            "durationTicks": 173,
            "midi": 57,
            "name": "A3",
            "ticks": 31920,
            "time": 34.1025965,
            "velocity": 1
          },
          {
            "duration": 0.3258550104166673,
            "durationTicks": 305,
            "midi": 61,
            "name": "C#4",
            "ticks": 32160,
            "time": 34.359007,
            "velocity": 1
          },
          {
            "duration": 0.20833353125000542,
            "durationTicks": 195,
            "midi": 61,
            "name": "C#4",
            "ticks": 32880,
            "time": 35.128238499999995,
            "velocity": 1
          },
          {
            "duration": 0.2222224333333358,
            "durationTicks": 208,
            "midi": 61,
            "name": "C#4",
            "ticks": 33120,
            "time": 35.384648999999996,
            "velocity": 1
          },
          {
            "duration": 0.2457267291666696,
            "durationTicks": 230,
            "midi": 61,
            "name": "C#4",
            "ticks": 33360,
            "time": 35.6410595,
            "velocity": 1
          },
          {
            "duration": 0.20085489166666548,
            "durationTicks": 188,
            "midi": 61,
            "name": "C#4",
            "ticks": 33600,
            "time": 35.89747,
            "velocity": 1
          },
          {
            "duration": 0.19017112083333387,
            "durationTicks": 178,
            "midi": 59,
            "name": "B3",
            "ticks": 33840,
            "time": 36.1538805,
            "velocity": 1
          },
          {
            "duration": 0.20619677708333484,
            "durationTicks": 193,
            "midi": 57,
            "name": "A3",
            "ticks": 34080,
            "time": 36.410291,
            "velocity": 1
          },
          {
            "duration": 0.20085489166667259,
            "durationTicks": 188,
            "midi": 59,
            "name": "B3",
            "ticks": 34320,
            "time": 36.666701499999995,
            "velocity": 1
          },
          {
            "duration": 0.14743603750000034,
            "durationTicks": 138,
            "midi": 57,
            "name": "A3",
            "ticks": 34560,
            "time": 36.923111999999996,
            "velocity": 1
          },
          {
            "duration": 0.4807696875000005,
            "durationTicks": 450,
            "midi": 61,
            "name": "C#4",
            "ticks": 34800,
            "time": 37.1795225,
            "velocity": 1
          },
          {
            "duration": 0.4465816208333351,
            "durationTicks": 418,
            "midi": 59,
            "name": "B3",
            "ticks": 35280,
            "time": 37.6923435,
            "velocity": 1
          },
          {
            "duration": 0.20299164583333607,
            "durationTicks": 190,
            "midi": 57,
            "name": "A3",
            "ticks": 35760,
            "time": 38.205164499999995,
            "velocity": 1
          },
          {
            "duration": 0.20085489166666548,
            "durationTicks": 188,
            "midi": 56,
            "name": "G#3",
            "ticks": 36000,
            "time": 38.461574999999996,
            "velocity": 1
          },
          {
            "duration": 0.40384653749999444,
            "durationTicks": 378,
            "midi": 54,
            "name": "F#3",
            "ticks": 36300,
            "time": 38.782088125,
            "velocity": 1
          },
          {
            "duration": 0.11538472499999841,
            "durationTicks": 108,
            "midi": 54,
            "name": "F#3",
            "ticks": 37920,
            "time": 40.512859,
            "velocity": 1
          },
          {
            "duration": 0.07799152708333423,
            "durationTicks": 73,
            "midi": 56,
            "name": "G#3",
            "ticks": 38040,
            "time": 40.64106425,
            "velocity": 1
          },
          {
            "duration": 0.3023507145833335,
            "durationTicks": 283,
            "midi": 54,
            "name": "F#3",
            "ticks": 38160,
            "time": 40.7692695,
            "velocity": 1
          },
          {
            "duration": 0.10149582291666803,
            "durationTicks": 95,
            "midi": 54,
            "name": "F#3",
            "ticks": 38880,
            "time": 41.538501,
            "velocity": 1
          },
          {
            "duration": 0.05662398541666391,
            "durationTicks": 53,
            "midi": 56,
            "name": "G#3",
            "ticks": 39000,
            "time": 41.66670625,
            "velocity": 0.9133858267716536
          },
          {
            "duration": 0.3183763708333345,
            "durationTicks": 298,
            "midi": 54,
            "name": "F#3",
            "ticks": 39120,
            "time": 41.7949115,
            "velocity": 1
          },
          {
            "duration": 0.08867529791667295,
            "durationTicks": 83,
            "midi": 54,
            "name": "F#3",
            "ticks": 39840,
            "time": 42.564142999999994,
            "velocity": 1
          },
          {
            "duration": 0.04594021458333941,
            "durationTicks": 43,
            "midi": 56,
            "name": "G#3",
            "ticks": 39960,
            "time": 42.692348249999995,
            "velocity": 0.937007874015748
          },
          {
            "duration": 0.2809831729166703,
            "durationTicks": 263,
            "midi": 54,
            "name": "F#3",
            "ticks": 40080,
            "time": 42.820553499999995,
            "velocity": 1
          },
          {
            "duration": 0.1388890208333251,
            "durationTicks": 130,
            "midi": 54,
            "name": "F#3",
            "ticks": 42480,
            "time": 45.3846585,
            "velocity": 1
          },
          {
            "duration": 0.20619677708333484,
            "durationTicks": 193,
            "midi": 57,
            "name": "A3",
            "ticks": 42720,
            "time": 45.641068999999995,
            "velocity": 1
          },
          {
            "duration": 0.43803460416667406,
            "durationTicks": 410,
            "midi": 59,
            "name": "B3",
            "ticks": 42960,
            "time": 45.897479499999996,
            "velocity": 1
          },
          {
            "duration": 0.17948734999999516,
            "durationTicks": 168,
            "midi": 57,
            "name": "A3",
            "ticks": 43440,
            "time": 46.4103005,
            "velocity": 1
          },
          {
            "duration": 0.20085489166666548,
            "durationTicks": 188,
            "midi": 56,
            "name": "G#3",
            "ticks": 43680,
            "time": 46.666711,
            "velocity": 1
          },
          {
            "duration": 0.7777785166666646,
            "durationTicks": 728,
            "midi": 54,
            "name": "F#3",
            "ticks": 43920,
            "time": 46.9231215,
            "velocity": 1
          },
          {
            "duration": 0.10683770833333028,
            "durationTicks": 100,
            "midi": 57,
            "name": "A3",
            "ticks": 45600,
            "time": 48.717994999999995,
            "velocity": 1
          },
          {
            "duration": 0.11538472499999841,
            "durationTicks": 108,
            "midi": 56,
            "name": "G#3",
            "ticks": 45720,
            "time": 48.846200249999995,
            "velocity": 1
          },
          {
            "duration": 0.6089749375000011,
            "durationTicks": 570,
            "midi": 54,
            "name": "F#3",
            "ticks": 45840,
            "time": 48.974405499999996,
            "velocity": 1
          },
          {
            "duration": 0.10683770833333028,
            "durationTicks": 100,
            "midi": 57,
            "name": "A3",
            "ticks": 46560,
            "time": 49.743637,
            "velocity": 1
          },
          {
            "duration": 0.08333341249999648,
            "durationTicks": 78,
            "midi": 56,
            "name": "G#3",
            "ticks": 46680,
            "time": 49.87184225,
            "velocity": 1
          },
          {
            "duration": 0.6282057250000008,
            "durationTicks": 588,
            "midi": 54,
            "name": "F#3",
            "ticks": 46800,
            "time": 50.000047499999994,
            "velocity": 1
          },
          {
            "duration": 0.11538472499999841,
            "durationTicks": 108,
            "midi": 57,
            "name": "A3",
            "ticks": 47520,
            "time": 50.769279,
            "velocity": 1
          },
          {
            "duration": 0.11538472499999841,
            "durationTicks": 108,
            "midi": 56,
            "name": "G#3",
            "ticks": 47640,
            "time": 50.89748425,
            "velocity": 1
          },
          {
            "duration": 0.43803460416666695,
            "durationTicks": 410,
            "midi": 54,
            "name": "F#3",
            "ticks": 47760,
            "time": 51.0256895,
            "velocity": 1
          },
          {
            "duration": 0.17948734999999516,
            "durationTicks": 168,
            "midi": 61,
            "name": "C#4",
            "ticks": 52320,
            "time": 55.897489,
            "velocity": 1
          },
          {
            "duration": 0.25961563125,
            "durationTicks": 243,
            "midi": 61,
            "name": "C#4",
            "ticks": 52560,
            "time": 56.153899499999994,
            "velocity": 0.9291338582677166
          },
          {
            "duration": 0.18482923541666452,
            "durationTicks": 173,
            "midi": 61,
            "name": "C#4",
            "ticks": 52800,
            "time": 56.410309999999996,
            "velocity": 1
          },
          {
            "duration": 0.20833353124999832,
            "durationTicks": 195,
            "midi": 59,
            "name": "B3",
            "ticks": 53040,
            "time": 56.6667205,
            "velocity": 0.968503937007874
          },
          {
            "duration": 0.20619677708333484,
            "durationTicks": 193,
            "midi": 57,
            "name": "A3",
            "ticks": 53280,
            "time": 56.923131,
            "velocity": 0.8582677165354331
          },
          {
            "duration": 0.4113251770833273,
            "durationTicks": 385,
            "midi": 59,
            "name": "B3",
            "ticks": 53520,
            "time": 57.1795415,
            "velocity": 1
          },
          {
            "duration": 0.1634616937500013,
            "durationTicks": 153,
            "midi": 57,
            "name": "A3",
            "ticks": 54000,
            "time": 57.692362499999994,
            "velocity": 0.7165354330708661
          },
          {
            "duration": 0.1762822187500035,
            "durationTicks": 165,
            "midi": 61,
            "name": "C#4",
            "ticks": 54240,
            "time": 57.948772999999996,
            "velocity": 1
          },
          {
            "duration": 0.08012828124999771,
            "durationTicks": 75,
            "midi": 57,
            "name": "A3",
            "ticks": 54480,
            "time": 58.2051835,
            "velocity": 0.937007874015748
          },
          {
            "duration": 0.08547016666666707,
            "durationTicks": 80,
            "midi": 57,
            "name": "A3",
            "ticks": 54600,
            "time": 58.33338875,
            "velocity": 0.6141732283464567
          },
          {
            "duration": 0.16880357916666355,
            "durationTicks": 158,
            "midi": 59,
            "name": "B3",
            "ticks": 54720,
            "time": 58.461594,
            "velocity": 1
          },
          {
            "duration": 0.18482923541666452,
            "durationTicks": 173,
            "midi": 57,
            "name": "A3",
            "ticks": 54960,
            "time": 58.7180045,
            "velocity": 1
          },
          {
            "duration": 0.3258550104166744,
            "durationTicks": 305,
            "midi": 61,
            "name": "C#4",
            "ticks": 55200,
            "time": 58.97441499999999,
            "velocity": 1
          },
          {
            "duration": 0.20833353124999832,
            "durationTicks": 195,
            "midi": 61,
            "name": "C#4",
            "ticks": 55920,
            "time": 59.7436465,
            "velocity": 1
          },
          {
            "duration": 0.2222224333333358,
            "durationTicks": 208,
            "midi": 61,
            "name": "C#4",
            "ticks": 56160,
            "time": 60.000057,
            "velocity": 1
          },
          {
            "duration": 0.2457267291666696,
            "durationTicks": 230,
            "midi": 61,
            "name": "C#4",
            "ticks": 56400,
            "time": 60.2564675,
            "velocity": 1
          },
          {
            "duration": 0.20085489166667259,
            "durationTicks": 188,
            "midi": 61,
            "name": "C#4",
            "ticks": 56640,
            "time": 60.51287799999999,
            "velocity": 1
          },
          {
            "duration": 0.19017112083333387,
            "durationTicks": 178,
            "midi": 59,
            "name": "B3",
            "ticks": 56880,
            "time": 60.769288499999995,
            "velocity": 1
          },
          {
            "duration": 0.20619677708333484,
            "durationTicks": 193,
            "midi": 57,
            "name": "A3",
            "ticks": 57120,
            "time": 61.025698999999996,
            "velocity": 1
          },
          {
            "duration": 0.20085489166666548,
            "durationTicks": 188,
            "midi": 59,
            "name": "B3",
            "ticks": 57360,
            "time": 61.2821095,
            "velocity": 1
          },
          {
            "duration": 0.14743603749999323,
            "durationTicks": 138,
            "midi": 57,
            "name": "A3",
            "ticks": 57600,
            "time": 61.53852,
            "velocity": 1
          },
          {
            "duration": 0.4807696875000005,
            "durationTicks": 450,
            "midi": 61,
            "name": "C#4",
            "ticks": 57840,
            "time": 61.7949305,
            "velocity": 1
          },
          {
            "duration": 0.4465816208333351,
            "durationTicks": 418,
            "midi": 59,
            "name": "B3",
            "ticks": 58320,
            "time": 62.307751499999995,
            "velocity": 1
          },
          {
            "duration": 0.20299164583332896,
            "durationTicks": 190,
            "midi": 57,
            "name": "A3",
            "ticks": 58800,
            "time": 62.8205725,
            "velocity": 1
          },
          {
            "duration": 0.20085489166666548,
            "durationTicks": 188,
            "midi": 56,
            "name": "G#3",
            "ticks": 59040,
            "time": 63.076983,
            "velocity": 1
          },
          {
            "duration": 0.20085489166666548,
            "durationTicks": 188,
            "midi": 54,
            "name": "F#3",
            "ticks": 59340,
            "time": 63.397496124999996,
            "velocity": 1
          },
          {
            "duration": 0.11538472499999841,
            "durationTicks": 108,
            "midi": 54,
            "name": "F#3",
            "ticks": 60960,
            "time": 65.128267,
            "velocity": 1
          },
          {
            "duration": 0.07799152708332713,
            "durationTicks": 73,
            "midi": 56,
            "name": "G#3",
            "ticks": 61080,
            "time": 65.25647225,
            "velocity": 0.5511811023622047
          },
          {
            "duration": 0.3023507145833406,
            "durationTicks": 283,
            "midi": 54,
            "name": "F#3",
            "ticks": 61200,
            "time": 65.3846775,
            "velocity": 1
          },
          {
            "duration": 0.10149582291666093,
            "durationTicks": 95,
            "midi": 54,
            "name": "F#3",
            "ticks": 61920,
            "time": 66.153909,
            "velocity": 1
          },
          {
            "duration": 0.056623985416678124,
            "durationTicks": 53,
            "midi": 56,
            "name": "G#3",
            "ticks": 62040,
            "time": 66.28211424999999,
            "velocity": 0.9133858267716536
          },
          {
            "duration": 0.3183763708333345,
            "durationTicks": 298,
            "midi": 54,
            "name": "F#3",
            "ticks": 62160,
            "time": 66.4103195,
            "velocity": 1
          },
          {
            "duration": 0.08867529791668005,
            "durationTicks": 83,
            "midi": 54,
            "name": "F#3",
            "ticks": 62880,
            "time": 67.17955099999999,
            "velocity": 1
          },
          {
            "duration": 0.07478639583334257,
            "durationTicks": 70,
            "midi": 56,
            "name": "G#3",
            "ticks": 63000,
            "time": 67.30775625,
            "velocity": 0.7086614173228346
          },
          {
            "duration": 0.2809831729166774,
            "durationTicks": 263,
            "midi": 54,
            "name": "F#3",
            "ticks": 63120,
            "time": 67.43596149999999,
            "velocity": 1
          },
          {
            "duration": 0.22435918749999928,
            "durationTicks": 210,
            "midi": 66,
            "name": "F#4",
            "ticks": 67200,
            "time": 71.79494,
            "velocity": 0.9291338582677166
          },
          {
            "duration": 0.08547016666665286,
            "durationTicks": 80,
            "midi": 64,
            "name": "E4",
            "ticks": 67440,
            "time": 72.0513505,
            "velocity": 0.8740157480314961
          },
          {
            "duration": 0.22970107291666864,
            "durationTicks": 215,
            "midi": 66,
            "name": "F#4",
            "ticks": 67560,
            "time": 72.17955574999999,
            "velocity": 1
          },
          {
            "duration": 0.09615393750000578,
            "durationTicks": 90,
            "midi": 64,
            "name": "E4",
            "ticks": 67800,
            "time": 72.43596624999999,
            "velocity": 0.5039370078740157
          },
          {
            "duration": 0.4305559645833341,
            "durationTicks": 403,
            "midi": 66,
            "name": "F#4",
            "ticks": 67920,
            "time": 72.5641715,
            "velocity": 1
          },
          {
            "duration": 0.47329104791666055,
            "durationTicks": 443,
            "midi": 69,
            "name": "A4",
            "ticks": 68400,
            "time": 73.0769925,
            "velocity": 1
          },
          {
            "duration": 0.21901730208334413,
            "durationTicks": 205,
            "midi": 66,
            "name": "F#4",
            "ticks": 68880,
            "time": 73.58981349999999,
            "velocity": 1
          },
          {
            "duration": 0.2222224333333429,
            "durationTicks": 208,
            "midi": 69,
            "name": "A4",
            "ticks": 69120,
            "time": 73.84622399999999,
            "velocity": 1
          },
          {
            "duration": 0.10149582291666093,
            "durationTicks": 95,
            "midi": 66,
            "name": "F#4",
            "ticks": 69360,
            "time": 74.1026345,
            "velocity": 1
          },
          {
            "duration": 0.21153866249998998,
            "durationTicks": 198,
            "midi": 66,
            "name": "F#4",
            "ticks": 69480,
            "time": 74.23083975,
            "velocity": 1
          },
          {
            "duration": 0.08867529791666584,
            "durationTicks": 83,
            "midi": 64,
            "name": "E4",
            "ticks": 69720,
            "time": 74.48725025,
            "velocity": 1
          },
          {
            "duration": 0.20833353125000542,
            "durationTicks": 195,
            "midi": 66,
            "name": "F#4",
            "ticks": 69840,
            "time": 74.6154555,
            "velocity": 1
          },
          {
            "duration": 0.11217959374999964,
            "durationTicks": 105,
            "midi": 61,
            "name": "C#4",
            "ticks": 70800,
            "time": 75.6410975,
            "velocity": 0.9921259842519685
          },
          {
            "duration": 0.11004283958334327,
            "durationTicks": 103,
            "midi": 66,
            "name": "F#4",
            "ticks": 70920,
            "time": 75.76930275,
            "velocity": 1
          },
          {
            "duration": 0.08547016666665286,
            "durationTicks": 80,
            "midi": 64,
            "name": "E4",
            "ticks": 71040,
            "time": 75.897508,
            "velocity": 1
          },
          {
            "duration": 0.08547016666666707,
            "durationTicks": 80,
            "midi": 66,
            "name": "F#4",
            "ticks": 71160,
            "time": 76.02571325,
            "velocity": 1
          },
          {
            "duration": 0.49465858958333797,
            "durationTicks": 463,
            "midi": 66,
            "name": "F#4",
            "ticks": 71280,
            "time": 76.15391849999999,
            "velocity": 1
          },
          {
            "duration": 0.0940171833333352,
            "durationTicks": 88,
            "midi": 66,
            "name": "F#4",
            "ticks": 71760,
            "time": 76.66673949999999,
            "velocity": 1
          },
          {
            "duration": 0.08012828124999771,
            "durationTicks": 75,
            "midi": 64,
            "name": "E4",
            "ticks": 71880,
            "time": 76.79494475,
            "velocity": 1
          },
          {
            "duration": 0.21688054791667355,
            "durationTicks": 203,
            "midi": 66,
            "name": "F#4",
            "ticks": 72000,
            "time": 76.92314999999999,
            "velocity": 1
          },
          {
            "duration": 0.4113251770833415,
            "durationTicks": 385,
            "midi": 68,
            "name": "G#4",
            "ticks": 72300,
            "time": 77.243663125,
            "velocity": 1
          },
          {
            "duration": 0.38247899583333833,
            "durationTicks": 358,
            "midi": 66,
            "name": "F#4",
            "ticks": 72720,
            "time": 77.6923815,
            "velocity": 1
          },
          {
            "duration": 0.21688054791667355,
            "durationTicks": 203,
            "midi": 64,
            "name": "E4",
            "ticks": 74640,
            "time": 79.74366549999999,
            "velocity": 1
          },
          {
            "duration": 0.1976497604166667,
            "durationTicks": 185,
            "midi": 66,
            "name": "F#4",
            "ticks": 74880,
            "time": 80.00007599999999,
            "velocity": 1
          },
          {
            "duration": 0.07478639583334257,
            "durationTicks": 70,
            "midi": 64,
            "name": "E4",
            "ticks": 75120,
            "time": 80.2564865,
            "velocity": 1
          },
          {
            "duration": 0.21367541666666057,
            "durationTicks": 200,
            "midi": 66,
            "name": "F#4",
            "ticks": 75240,
            "time": 80.38469175,
            "velocity": 1
          },
          {
            "duration": 0.09615393750000578,
            "durationTicks": 90,
            "midi": 64,
            "name": "E4",
            "ticks": 75480,
            "time": 80.64110224999999,
            "velocity": 1
          },
          {
            "duration": 0.2670942708333399,
            "durationTicks": 250,
            "midi": 66,
            "name": "F#4",
            "ticks": 75600,
            "time": 80.7693075,
            "velocity": 1
          },
          {
            "duration": 0.16880357916666355,
            "durationTicks": 158,
            "midi": 66,
            "name": "F#4",
            "ticks": 75900,
            "time": 81.089820625,
            "velocity": 1
          },
          {
            "duration": 0.069444510416659,
            "durationTicks": 65,
            "midi": 66,
            "name": "F#4",
            "ticks": 76560,
            "time": 81.7949495,
            "velocity": 1
          },
          {
            "duration": 0.11004283958332906,
            "durationTicks": 103,
            "midi": 66,
            "name": "F#4",
            "ticks": 76680,
            "time": 81.92315475,
            "velocity": 1
          },
          {
            "duration": 0.24358997500000612,
            "durationTicks": 228,
            "midi": 69,
            "name": "A4",
            "ticks": 76800,
            "time": 82.05135999999999,
            "velocity": 1
          },
          {
            "duration": 0.11004283958334327,
            "durationTicks": 103,
            "midi": 66,
            "name": "F#4",
            "ticks": 77040,
            "time": 82.30777049999999,
            "velocity": 1
          },
          {
            "duration": 0.235042958333338,
            "durationTicks": 220,
            "midi": 66,
            "name": "F#4",
            "ticks": 77160,
            "time": 82.43597575,
            "velocity": 1
          },
          {
            "duration": 0.09615393749999157,
            "durationTicks": 90,
            "midi": 64,
            "name": "E4",
            "ticks": 77460,
            "time": 82.756488875,
            "velocity": 1
          },
          {
            "duration": 0.2777780416666644,
            "durationTicks": 260,
            "midi": 66,
            "name": "F#4",
            "ticks": 77580,
            "time": 82.884694125,
            "velocity": 1
          },
          {
            "duration": 0.0940171833333352,
            "durationTicks": 88,
            "midi": 61,
            "name": "C#4",
            "ticks": 78480,
            "time": 83.8462335,
            "velocity": 1
          },
          {
            "duration": 0.08867529791668005,
            "durationTicks": 83,
            "midi": 66,
            "name": "F#4",
            "ticks": 78600,
            "time": 83.97443874999999,
            "velocity": 1
          },
          {
            "duration": 0.21688054791667355,
            "durationTicks": 203,
            "midi": 62,
            "name": "D4",
            "ticks": 78720,
            "time": 84.102644,
            "velocity": 1
          },
          {
            "duration": 0.07478639583332836,
            "durationTicks": 70,
            "midi": 62,
            "name": "D4",
            "ticks": 78960,
            "time": 84.3590545,
            "velocity": 1
          },
          {
            "duration": 0.11217959374999964,
            "durationTicks": 105,
            "midi": 62,
            "name": "D4",
            "ticks": 79080,
            "time": 84.48725974999999,
            "velocity": 1
          },
          {
            "duration": 0.13141038124999227,
            "durationTicks": 123,
            "midi": 62,
            "name": "D4",
            "ticks": 79200,
            "time": 84.615465,
            "velocity": 1
          },
          {
            "duration": 0.3717952249999996,
            "durationTicks": 348,
            "midi": 64,
            "name": "E4",
            "ticks": 79320,
            "time": 84.74367025,
            "velocity": 1
          },
          {
            "duration": 0.542735558333348,
            "durationTicks": 508,
            "midi": 66,
            "name": "F#4",
            "ticks": 79680,
            "time": 85.12828599999999,
            "velocity": 1
          },
          {
            "duration": 0.22756431874999805,
            "durationTicks": 213,
            "midi": 66,
            "name": "F#4",
            "ticks": 80400,
            "time": 85.89751749999999,
            "velocity": 1
          },
          {
            "duration": 0.22756431874999805,
            "durationTicks": 213,
            "midi": 65,
            "name": "F4",
            "ticks": 80640,
            "time": 86.153928,
            "velocity": 1
          },
          {
            "duration": 0.08867529791668005,
            "durationTicks": 83,
            "midi": 65,
            "name": "F4",
            "ticks": 80880,
            "time": 86.4103385,
            "velocity": 1
          },
          {
            "duration": 0.09401718333334941,
            "durationTicks": 88,
            "midi": 65,
            "name": "F4",
            "ticks": 81000,
            "time": 86.53854374999999,
            "velocity": 1
          },
          {
            "duration": 0.09081205208333643,
            "durationTicks": 85,
            "midi": 65,
            "name": "F4",
            "ticks": 81120,
            "time": 86.666749,
            "velocity": 1
          },
          {
            "duration": 0.3611114541666751,
            "durationTicks": 338,
            "midi": 66,
            "name": "F#4",
            "ticks": 81240,
            "time": 86.79495424999999,
            "velocity": 1
          },
          {
            "duration": 0.2809831729166774,
            "durationTicks": 263,
            "midi": 68,
            "name": "G#4",
            "ticks": 81600,
            "time": 87.17957,
            "velocity": 1
          },
          {
            "duration": 0.186965989583328,
            "durationTicks": 175,
            "midi": 66,
            "name": "F#4",
            "ticks": 82080,
            "time": 87.692391,
            "velocity": 1
          },
          {
            "duration": 0.17948734999998806,
            "durationTicks": 168,
            "midi": 68,
            "name": "G#4",
            "ticks": 82320,
            "time": 87.9488015,
            "velocity": 1
          },
          {
            "duration": 0.1527779229166839,
            "durationTicks": 143,
            "midi": 66,
            "name": "F#4",
            "ticks": 83040,
            "time": 88.71803299999999,
            "velocity": 1
          },
          {
            "duration": 0.23290620416668162,
            "durationTicks": 218,
            "midi": 66,
            "name": "F#4",
            "ticks": 83280,
            "time": 88.97444349999999,
            "velocity": 1
          },
          {
            "duration": 0.2564105000000012,
            "durationTicks": 240,
            "midi": 64,
            "name": "E4",
            "ticks": 83520,
            "time": 89.230854,
            "velocity": 0.984251968503937
          },
          {
            "duration": 0.4572653916666667,
            "durationTicks": 428,
            "midi": 61,
            "name": "C#4",
            "ticks": 83760,
            "time": 89.4872645,
            "velocity": 1
          },
          {
            "duration": 0.19551300624999612,
            "durationTicks": 183,
            "midi": 61,
            "name": "C#4",
            "ticks": 84240,
            "time": 90.0000855,
            "velocity": 1
          },
          {
            "duration": 0.14209415208333098,
            "durationTicks": 133,
            "midi": 66,
            "name": "F#4",
            "ticks": 84480,
            "time": 90.256496,
            "velocity": 1
          },
          {
            "duration": 0.21367541666666057,
            "durationTicks": 200,
            "midi": 66,
            "name": "F#4",
            "ticks": 84720,
            "time": 90.5129065,
            "velocity": 1
          },
          {
            "duration": 0.48611157291666984,
            "durationTicks": 455,
            "midi": 64,
            "name": "E4",
            "ticks": 85200,
            "time": 91.02572749999999,
            "velocity": 0.9448818897637795
          },
          {
            "duration": 0.5053423604166767,
            "durationTicks": 473,
            "midi": 61,
            "name": "C#4",
            "ticks": 85680,
            "time": 91.53854849999999,
            "velocity": 1
          },
          {
            "duration": 0.2222224333333287,
            "durationTicks": 208,
            "midi": 66,
            "name": "F#4",
            "ticks": 86640,
            "time": 92.5641905,
            "velocity": 1
          },
          {
            "duration": 0.2222224333333287,
            "durationTicks": 208,
            "midi": 66,
            "name": "F#4",
            "ticks": 86880,
            "time": 92.820601,
            "velocity": 1
          },
          {
            "duration": 0.21367541666666057,
            "durationTicks": 200,
            "midi": 66,
            "name": "F#4",
            "ticks": 87120,
            "time": 93.0770115,
            "velocity": 1
          },
          {
            "duration": 0.21688054791667355,
            "durationTicks": 203,
            "midi": 64,
            "name": "E4",
            "ticks": 87360,
            "time": 93.333422,
            "velocity": 1
          },
          {
            "duration": 0.19551300624999612,
            "durationTicks": 183,
            "midi": 61,
            "name": "C#4",
            "ticks": 87600,
            "time": 93.5898325,
            "velocity": 1
          },
          {
            "duration": 0.26495751666666933,
            "durationTicks": 248,
            "midi": 61,
            "name": "C#4",
            "ticks": 87840,
            "time": 93.846243,
            "velocity": 1
          },
          {
            "duration": 0.22435918749999928,
            "durationTicks": 210,
            "midi": 66,
            "name": "F#4",
            "ticks": 88320,
            "time": 94.35906399999999,
            "velocity": 1
          },
          {
            "duration": 0.20833353125000542,
            "durationTicks": 195,
            "midi": 69,
            "name": "A4",
            "ticks": 88620,
            "time": 94.679577125,
            "velocity": 1
          },
          {
            "duration": 0.44871837499999856,
            "durationTicks": 420,
            "midi": 71,
            "name": "B4",
            "ticks": 89040,
            "time": 95.1282955,
            "velocity": 1
          },
          {
            "duration": 0.20299164583333607,
            "durationTicks": 190,
            "midi": 69,
            "name": "A4",
            "ticks": 89520,
            "time": 95.6411165,
            "velocity": 1
          },
          {
            "duration": 0.19551300624999612,
            "durationTicks": 183,
            "midi": 68,
            "name": "G#4",
            "ticks": 89760,
            "time": 95.897527,
            "velocity": 1
          },
          {
            "duration": 0.4006414062500028,
            "durationTicks": 375,
            "midi": 66,
            "name": "F#4",
            "ticks": 90000,
            "time": 96.1539375,
            "velocity": 1
          },
          {
            "duration": 0.29700882916667126,
            "durationTicks": 278,
            "midi": 66,
            "name": "F#4",
            "ticks": 91440,
            "time": 97.69240049999999,
            "velocity": 1
          },
          {
            "duration": 0.20833353125000542,
            "durationTicks": 195,
            "midi": 66,
            "name": "F#4",
            "ticks": 91920,
            "time": 98.2052215,
            "velocity": 1
          },
          {
            "duration": 0.19551300624999612,
            "durationTicks": 183,
            "midi": 73,
            "name": "C#5",
            "ticks": 92160,
            "time": 98.461632,
            "velocity": 1
          },
          {
            "duration": 0.235042958333338,
            "durationTicks": 220,
            "midi": 71,
            "name": "B4",
            "ticks": 92400,
            "time": 98.7180425,
            "velocity": 1
          },
          {
            "duration": 0.34508579791666705,
            "durationTicks": 323,
            "midi": 71,
            "name": "B4",
            "ticks": 92700,
            "time": 99.038555625,
            "velocity": 1
          },
          {
            "duration": 0.18482923541667162,
            "durationTicks": 173,
            "midi": 66,
            "name": "F#4",
            "ticks": 93120,
            "time": 99.487274,
            "velocity": 1
          },
          {
            "duration": 0.4433764895833434,
            "durationTicks": 415,
            "midi": 62,
            "name": "D4",
            "ticks": 93420,
            "time": 99.80778712499999,
            "velocity": 1
          },
          {
            "duration": 0.7831204020833411,
            "durationTicks": 733,
            "midi": 61,
            "name": "C#4",
            "ticks": 93900,
            "time": 100.32060812499999,
            "velocity": 1
          },
          {
            "duration": 0.19017112083332677,
            "durationTicks": 178,
            "midi": 66,
            "name": "F#4",
            "ticks": 96240,
            "time": 102.8206105,
            "velocity": 1
          },
          {
            "duration": 0.22970107291666864,
            "durationTicks": 215,
            "midi": 69,
            "name": "A4",
            "ticks": 96480,
            "time": 103.07702099999999,
            "velocity": 1
          },
          {
            "duration": 0.4433764895833434,
            "durationTicks": 415,
            "midi": 71,
            "name": "B4",
            "ticks": 96720,
            "time": 103.33343149999999,
            "velocity": 1
          },
          {
            "duration": 0.20299164583333607,
            "durationTicks": 190,
            "midi": 69,
            "name": "A4",
            "ticks": 97200,
            "time": 103.84625249999999,
            "velocity": 1
          },
          {
            "duration": 0.20833353125000542,
            "durationTicks": 195,
            "midi": 68,
            "name": "G#4",
            "ticks": 97440,
            "time": 104.10266299999999,
            "velocity": 1
          },
          {
            "duration": 0.4572653916666667,
            "durationTicks": 428,
            "midi": 66,
            "name": "F#4",
            "ticks": 97680,
            "time": 104.3590735,
            "velocity": 1
          },
          {
            "duration": 0.23824808958332255,
            "durationTicks": 223,
            "midi": 66,
            "name": "F#4",
            "ticks": 99120,
            "time": 105.8975365,
            "velocity": 1
          },
          {
            "duration": 0.22970107291666864,
            "durationTicks": 215,
            "midi": 66,
            "name": "F#4",
            "ticks": 99600,
            "time": 106.41035749999999,
            "velocity": 1
          },
          {
            "duration": 0.19230787499999735,
            "durationTicks": 180,
            "midi": 73,
            "name": "C#5",
            "ticks": 99840,
            "time": 106.66676799999999,
            "velocity": 1
          },
          {
            "duration": 0.20299164583333607,
            "durationTicks": 190,
            "midi": 71,
            "name": "B4",
            "ticks": 100080,
            "time": 106.92317849999999,
            "velocity": 1
          },
          {
            "duration": 0.29700882916667126,
            "durationTicks": 278,
            "midi": 71,
            "name": "B4",
            "ticks": 100320,
            "time": 107.17958899999999,
            "velocity": 1
          },
          {
            "duration": 0.2670942708333399,
            "durationTicks": 250,
            "midi": 66,
            "name": "F#4",
            "ticks": 100800,
            "time": 107.69241,
            "velocity": 1
          },
          {
            "duration": 0.44123973541667283,
            "durationTicks": 413,
            "midi": 62,
            "name": "D4",
            "ticks": 101040,
            "time": 107.9488205,
            "velocity": 1
          },
          {
            "duration": 0.8012828124999913,
            "durationTicks": 750,
            "midi": 61,
            "name": "C#4",
            "ticks": 101520,
            "time": 108.4616415,
            "velocity": 1
          },
          {
            "duration": 0.17948735000000227,
            "durationTicks": 168,
            "midi": 61,
            "name": "C#4",
            "ticks": 106080,
            "time": 113.333441,
            "velocity": 1
          },
          {
            "duration": 0.25961563125,
            "durationTicks": 243,
            "midi": 61,
            "name": "C#4",
            "ticks": 106320,
            "time": 113.5898515,
            "velocity": 0.9291338582677166
          },
          {
            "duration": 0.18482923541667162,
            "durationTicks": 173,
            "midi": 61,
            "name": "C#4",
            "ticks": 106560,
            "time": 113.846262,
            "velocity": 1
          },
          {
            "duration": 0.2083335312499912,
            "durationTicks": 195,
            "midi": 59,
            "name": "B3",
            "ticks": 106800,
            "time": 114.1026725,
            "velocity": 0.968503937007874
          },
          {
            "duration": 0.20619677708333484,
            "durationTicks": 193,
            "midi": 57,
            "name": "A3",
            "ticks": 107040,
            "time": 114.359083,
            "velocity": 0.8582677165354331
          },
          {
            "duration": 0.4113251770833273,
            "durationTicks": 385,
            "midi": 59,
            "name": "B3",
            "ticks": 107280,
            "time": 114.6154935,
            "velocity": 1
          },
          {
            "duration": 0.1634616937500084,
            "durationTicks": 153,
            "midi": 57,
            "name": "A3",
            "ticks": 107760,
            "time": 115.12831449999999,
            "velocity": 0.7165354330708661
          },
          {
            "duration": 0.1762822187500035,
            "durationTicks": 165,
            "midi": 61,
            "name": "C#4",
            "ticks": 108000,
            "time": 115.38472499999999,
            "velocity": 1
          },
          {
            "duration": 0.08012828124999771,
            "durationTicks": 75,
            "midi": 57,
            "name": "A3",
            "ticks": 108240,
            "time": 115.64113549999999,
            "velocity": 0.937007874015748
          },
          {
            "duration": 0.08547016666665286,
            "durationTicks": 80,
            "midi": 57,
            "name": "A3",
            "ticks": 108360,
            "time": 115.76934075,
            "velocity": 0.6141732283464567
          },
          {
            "duration": 0.16880357916667776,
            "durationTicks": 158,
            "midi": 59,
            "name": "B3",
            "ticks": 108480,
            "time": 115.89754599999999,
            "velocity": 1
          },
          {
            "duration": 0.18482923541667162,
            "durationTicks": 173,
            "midi": 57,
            "name": "A3",
            "ticks": 108720,
            "time": 116.15395649999999,
            "velocity": 1
          },
          {
            "duration": 0.3258550104166602,
            "durationTicks": 305,
            "midi": 61,
            "name": "C#4",
            "ticks": 108960,
            "time": 116.410367,
            "velocity": 1
          },
          {
            "duration": 0.2083335312499912,
            "durationTicks": 195,
            "midi": 61,
            "name": "C#4",
            "ticks": 109680,
            "time": 117.1795985,
            "velocity": 1
          },
          {
            "duration": 0.2222224333333287,
            "durationTicks": 208,
            "midi": 61,
            "name": "C#4",
            "ticks": 109920,
            "time": 117.436009,
            "velocity": 1
          },
          {
            "duration": 0.2457267291666625,
            "durationTicks": 230,
            "midi": 61,
            "name": "C#4",
            "ticks": 110160,
            "time": 117.6924195,
            "velocity": 1
          },
          {
            "duration": 0.2008548916666797,
            "durationTicks": 188,
            "midi": 61,
            "name": "C#4",
            "ticks": 110400,
            "time": 117.94882999999999,
            "velocity": 1
          },
          {
            "duration": 0.19017112083334098,
            "durationTicks": 178,
            "midi": 59,
            "name": "B3",
            "ticks": 110640,
            "time": 118.20524049999999,
            "velocity": 1
          },
          {
            "duration": 0.20619677708333484,
            "durationTicks": 193,
            "midi": 57,
            "name": "A3",
            "ticks": 110880,
            "time": 118.46165099999999,
            "velocity": 1
          },
          {
            "duration": 0.2008548916666797,
            "durationTicks": 188,
            "midi": 59,
            "name": "B3",
            "ticks": 111120,
            "time": 118.71806149999999,
            "velocity": 1
          },
          {
            "duration": 0.14743603750000034,
            "durationTicks": 138,
            "midi": 57,
            "name": "A3",
            "ticks": 111360,
            "time": 118.97447199999999,
            "velocity": 1
          },
          {
            "duration": 0.4807696875000005,
            "durationTicks": 450,
            "midi": 61,
            "name": "C#4",
            "ticks": 111600,
            "time": 119.23088249999999,
            "velocity": 1
          },
          {
            "duration": 0.446581620833328,
            "durationTicks": 418,
            "midi": 59,
            "name": "B3",
            "ticks": 112080,
            "time": 119.7437035,
            "velocity": 1
          },
          {
            "duration": 0.20299164583333607,
            "durationTicks": 190,
            "midi": 57,
            "name": "A3",
            "ticks": 112560,
            "time": 120.2565245,
            "velocity": 1
          },
          {
            "duration": 0.20085489166666548,
            "durationTicks": 188,
            "midi": 56,
            "name": "G#3",
            "ticks": 112800,
            "time": 120.512935,
            "velocity": 1
          },
          {
            "duration": 0.40384653750000155,
            "durationTicks": 378,
            "midi": 54,
            "name": "F#3",
            "ticks": 113100,
            "time": 120.83344812499999,
            "velocity": 1
          },
          {
            "duration": 0.11538472499999841,
            "durationTicks": 108,
            "midi": 54,
            "name": "F#3",
            "ticks": 114720,
            "time": 122.564219,
            "velocity": 1
          },
          {
            "duration": 0.07799152708334134,
            "durationTicks": 73,
            "midi": 56,
            "name": "G#3",
            "ticks": 114840,
            "time": 122.69242424999999,
            "velocity": 1
          },
          {
            "duration": 0.3023507145833264,
            "durationTicks": 283,
            "midi": 54,
            "name": "F#3",
            "ticks": 114960,
            "time": 122.8206295,
            "velocity": 1
          },
          {
            "duration": 0.10149582291666093,
            "durationTicks": 95,
            "midi": 54,
            "name": "F#3",
            "ticks": 115680,
            "time": 123.589861,
            "velocity": 1
          },
          {
            "duration": 0.056623985416678124,
            "durationTicks": 53,
            "midi": 56,
            "name": "G#3",
            "ticks": 115800,
            "time": 123.71806624999999,
            "velocity": 0.9133858267716536
          },
          {
            "duration": 0.3183763708333487,
            "durationTicks": 298,
            "midi": 54,
            "name": "F#3",
            "ticks": 115920,
            "time": 123.84627149999999,
            "velocity": 1
          },
          {
            "duration": 0.08867529791668005,
            "durationTicks": 83,
            "midi": 54,
            "name": "F#3",
            "ticks": 116640,
            "time": 124.61550299999999,
            "velocity": 1
          },
          {
            "duration": 0.0459402145833252,
            "durationTicks": 43,
            "midi": 56,
            "name": "G#3",
            "ticks": 116760,
            "time": 124.74370825,
            "velocity": 0.937007874015748
          },
          {
            "duration": 0.2809831729166774,
            "durationTicks": 263,
            "midi": 54,
            "name": "F#3",
            "ticks": 116880,
            "time": 124.87191349999999,
            "velocity": 1
          },
          {
            "duration": 0.13888902083334642,
            "durationTicks": 130,
            "midi": 54,
            "name": "F#3",
            "ticks": 119280,
            "time": 127.43601849999999,
            "velocity": 1
          },
          {
            "duration": 0.20619677708333484,
            "durationTicks": 193,
            "midi": 57,
            "name": "A3",
            "ticks": 119520,
            "time": 127.69242899999999,
            "velocity": 1
          },
          {
            "duration": 0.43803460416665985,
            "durationTicks": 410,
            "midi": 59,
            "name": "B3",
            "ticks": 119760,
            "time": 127.94883949999999,
            "velocity": 1
          },
          {
            "duration": 0.17948734999998806,
            "durationTicks": 168,
            "midi": 57,
            "name": "A3",
            "ticks": 120240,
            "time": 128.4616605,
            "velocity": 1
          },
          {
            "duration": 0.2008548916666939,
            "durationTicks": 188,
            "midi": 56,
            "name": "G#3",
            "ticks": 120480,
            "time": 128.71807099999998,
            "velocity": 1
          },
          {
            "duration": 0.7777785166666717,
            "durationTicks": 728,
            "midi": 54,
            "name": "F#3",
            "ticks": 120720,
            "time": 128.9744815,
            "velocity": 1
          },
          {
            "duration": 0.10683770833333028,
            "durationTicks": 100,
            "midi": 57,
            "name": "A3",
            "ticks": 122400,
            "time": 130.769355,
            "velocity": 1
          },
          {
            "duration": 0.1153847249999842,
            "durationTicks": 108,
            "midi": 56,
            "name": "G#3",
            "ticks": 122520,
            "time": 130.89756025,
            "velocity": 1
          },
          {
            "duration": 0.608974937499994,
            "durationTicks": 570,
            "midi": 54,
            "name": "F#3",
            "ticks": 122640,
            "time": 131.0257655,
            "velocity": 1
          },
          {
            "duration": 0.10683770833333028,
            "durationTicks": 100,
            "midi": 57,
            "name": "A3",
            "ticks": 123360,
            "time": 131.794997,
            "velocity": 1
          },
          {
            "duration": 0.08333341249999648,
            "durationTicks": 78,
            "midi": 56,
            "name": "G#3",
            "ticks": 123480,
            "time": 131.92320225,
            "velocity": 1
          },
          {
            "duration": 0.628205725000015,
            "durationTicks": 588,
            "midi": 54,
            "name": "F#3",
            "ticks": 123600,
            "time": 132.05140749999998,
            "velocity": 1
          },
          {
            "duration": 0.11538472500001262,
            "durationTicks": 108,
            "midi": 57,
            "name": "A3",
            "ticks": 124320,
            "time": 132.820639,
            "velocity": 1
          },
          {
            "duration": 0.11538472500001262,
            "durationTicks": 108,
            "midi": 56,
            "name": "G#3",
            "ticks": 124440,
            "time": 132.94884424999998,
            "velocity": 1
          },
          {
            "duration": 0.43803460416668827,
            "durationTicks": 410,
            "midi": 54,
            "name": "F#3",
            "ticks": 124560,
            "time": 133.0770495,
            "velocity": 1
          },
          {
            "duration": 0.17948735000001648,
            "durationTicks": 168,
            "midi": 61,
            "name": "C#4",
            "ticks": 129120,
            "time": 137.948849,
            "velocity": 1
          },
          {
            "duration": 0.2596156312500284,
            "durationTicks": 243,
            "midi": 61,
            "name": "C#4",
            "ticks": 129360,
            "time": 138.20525949999998,
            "velocity": 0.9291338582677166
          },
          {
            "duration": 0.1848292354166574,
            "durationTicks": 173,
            "midi": 61,
            "name": "C#4",
            "ticks": 129600,
            "time": 138.46167,
            "velocity": 1
          },
          {
            "duration": 0.20833353125001963,
            "durationTicks": 195,
            "midi": 59,
            "name": "B3",
            "ticks": 129840,
            "time": 138.71808049999999,
            "velocity": 0.968503937007874
          },
          {
            "duration": 0.20619677708333484,
            "durationTicks": 193,
            "midi": 57,
            "name": "A3",
            "ticks": 130080,
            "time": 138.974491,
            "velocity": 0.8582677165354331
          },
          {
            "duration": 0.4113251770833415,
            "durationTicks": 385,
            "midi": 59,
            "name": "B3",
            "ticks": 130320,
            "time": 139.2309015,
            "velocity": 1
          },
          {
            "duration": 0.1634616937500084,
            "durationTicks": 153,
            "midi": 57,
            "name": "A3",
            "ticks": 130800,
            "time": 139.7437225,
            "velocity": 0.7165354330708661
          },
          {
            "duration": 0.17628221874997507,
            "durationTicks": 165,
            "midi": 61,
            "name": "C#4",
            "ticks": 131040,
            "time": 140.000133,
            "velocity": 1
          },
          {
            "duration": 0.08012828125001192,
            "durationTicks": 75,
            "midi": 57,
            "name": "A3",
            "ticks": 131280,
            "time": 140.2565435,
            "velocity": 0.937007874015748
          },
          {
            "duration": 0.08547016666668128,
            "durationTicks": 80,
            "midi": 57,
            "name": "A3",
            "ticks": 131400,
            "time": 140.38474875,
            "velocity": 0.6141732283464567
          },
          {
            "duration": 0.16880357916667776,
            "durationTicks": 158,
            "midi": 59,
            "name": "B3",
            "ticks": 131520,
            "time": 140.51295399999998,
            "velocity": 1
          },
          {
            "duration": 0.1848292354166574,
            "durationTicks": 173,
            "midi": 57,
            "name": "A3",
            "ticks": 131760,
            "time": 140.7693645,
            "velocity": 1
          },
          {
            "duration": 0.32585501041668863,
            "durationTicks": 305,
            "midi": 61,
            "name": "C#4",
            "ticks": 132000,
            "time": 141.02577499999998,
            "velocity": 1
          },
          {
            "duration": 0.2083335312499912,
            "durationTicks": 195,
            "midi": 61,
            "name": "C#4",
            "ticks": 132720,
            "time": 141.7950065,
            "velocity": 1
          },
          {
            "duration": 0.2222224333333429,
            "durationTicks": 208,
            "midi": 61,
            "name": "C#4",
            "ticks": 132960,
            "time": 142.051417,
            "velocity": 1
          },
          {
            "duration": 0.2457267291666767,
            "durationTicks": 230,
            "midi": 61,
            "name": "C#4",
            "ticks": 133200,
            "time": 142.3078275,
            "velocity": 1
          },
          {
            "duration": 0.20085489166666548,
            "durationTicks": 188,
            "midi": 61,
            "name": "C#4",
            "ticks": 133440,
            "time": 142.564238,
            "velocity": 1
          },
          {
            "duration": 0.19017112083332677,
            "durationTicks": 178,
            "midi": 59,
            "name": "B3",
            "ticks": 133680,
            "time": 142.8206485,
            "velocity": 1
          },
          {
            "duration": 0.20619677708333484,
            "durationTicks": 193,
            "midi": 57,
            "name": "A3",
            "ticks": 133920,
            "time": 143.077059,
            "velocity": 1
          },
          {
            "duration": 0.20085489166666548,
            "durationTicks": 188,
            "midi": 59,
            "name": "B3",
            "ticks": 134160,
            "time": 143.33346949999998,
            "velocity": 1
          },
          {
            "duration": 0.14743603750000034,
            "durationTicks": 138,
            "midi": 57,
            "name": "A3",
            "ticks": 134400,
            "time": 143.58988,
            "velocity": 1
          },
          {
            "duration": 0.4807696875000147,
            "durationTicks": 450,
            "midi": 61,
            "name": "C#4",
            "ticks": 134640,
            "time": 143.84629049999998,
            "velocity": 1
          },
          {
            "duration": 0.4465816208333422,
            "durationTicks": 418,
            "midi": 59,
            "name": "B3",
            "ticks": 135120,
            "time": 144.35911149999998,
            "velocity": 1
          },
          {
            "duration": 0.20299164583332185,
            "durationTicks": 190,
            "midi": 57,
            "name": "A3",
            "ticks": 135600,
            "time": 144.87193249999999,
            "velocity": 1
          },
          {
            "duration": 0.20085489166663706,
            "durationTicks": 188,
            "midi": 56,
            "name": "G#3",
            "ticks": 135840,
            "time": 145.128343,
            "velocity": 1
          },
          {
            "duration": 0.20085489166666548,
            "durationTicks": 188,
            "midi": 54,
            "name": "F#3",
            "ticks": 136140,
            "time": 145.448856125,
            "velocity": 1
          },
          {
            "duration": 0.11538472500001262,
            "durationTicks": 108,
            "midi": 54,
            "name": "F#3",
            "ticks": 137760,
            "time": 147.17962699999998,
            "velocity": 1
          },
          {
            "duration": 0.07799152708332713,
            "durationTicks": 73,
            "midi": 56,
            "name": "G#3",
            "ticks": 137880,
            "time": 147.30783225,
            "velocity": 0.5511811023622047
          },
          {
            "duration": 0.3023507145833264,
            "durationTicks": 283,
            "midi": 54,
            "name": "F#3",
            "ticks": 138000,
            "time": 147.4360375,
            "velocity": 1
          },
          {
            "duration": 0.10149582291668935,
            "durationTicks": 95,
            "midi": 54,
            "name": "F#3",
            "ticks": 138720,
            "time": 148.205269,
            "velocity": 1
          },
          {
            "duration": 0.0566239854166497,
            "durationTicks": 53,
            "midi": 56,
            "name": "G#3",
            "ticks": 138840,
            "time": 148.33347425,
            "velocity": 0.9133858267716536
          },
          {
            "duration": 0.3183763708333345,
            "durationTicks": 298,
            "midi": 54,
            "name": "F#3",
            "ticks": 138960,
            "time": 148.4616795,
            "velocity": 1
          },
          {
            "duration": 0.08867529791666584,
            "durationTicks": 83,
            "midi": 54,
            "name": "F#3",
            "ticks": 139680,
            "time": 149.230911,
            "velocity": 1
          },
          {
            "duration": 0.07478639583331415,
            "durationTicks": 70,
            "midi": 56,
            "name": "G#3",
            "ticks": 139800,
            "time": 149.35911625,
            "velocity": 0.7086614173228346
          },
          {
            "duration": 0.2809831729166774,
            "durationTicks": 263,
            "midi": 54,
            "name": "F#3",
            "ticks": 139920,
            "time": 149.48732149999998,
            "velocity": 1
          },
          {
            "duration": 0.22435918749999928,
            "durationTicks": 210,
            "midi": 66,
            "name": "F#4",
            "ticks": 144000,
            "time": 153.84629999999999,
            "velocity": 0.9291338582677166
          },
          {
            "duration": 0.08547016666668128,
            "durationTicks": 80,
            "midi": 64,
            "name": "E4",
            "ticks": 144240,
            "time": 154.1027105,
            "velocity": 0.8740157480314961
          },
          {
            "duration": 0.22970107291669706,
            "durationTicks": 215,
            "midi": 66,
            "name": "F#4",
            "ticks": 144360,
            "time": 154.23091574999998,
            "velocity": 1
          },
          {
            "duration": 0.09615393749999157,
            "durationTicks": 90,
            "midi": 64,
            "name": "E4",
            "ticks": 144600,
            "time": 154.48732625,
            "velocity": 0.5039370078740157
          },
          {
            "duration": 0.4305559645833341,
            "durationTicks": 403,
            "midi": 66,
            "name": "F#4",
            "ticks": 144720,
            "time": 154.6155315,
            "velocity": 1
          },
          {
            "duration": 0.4732910479166321,
            "durationTicks": 443,
            "midi": 69,
            "name": "A4",
            "ticks": 145200,
            "time": 155.1283525,
            "velocity": 1
          },
          {
            "duration": 0.21901730208332992,
            "durationTicks": 205,
            "midi": 66,
            "name": "F#4",
            "ticks": 145680,
            "time": 155.64117349999998,
            "velocity": 1
          },
          {
            "duration": 0.2222224333333429,
            "durationTicks": 208,
            "midi": 69,
            "name": "A4",
            "ticks": 145920,
            "time": 155.897584,
            "velocity": 1
          },
          {
            "duration": 0.10149582291668935,
            "durationTicks": 95,
            "midi": 66,
            "name": "F#4",
            "ticks": 146160,
            "time": 156.15399449999998,
            "velocity": 1
          },
          {
            "duration": 0.2115386625000042,
            "durationTicks": 198,
            "midi": 66,
            "name": "F#4",
            "ticks": 146280,
            "time": 156.28219975,
            "velocity": 1
          },
          {
            "duration": 0.08867529791663742,
            "durationTicks": 83,
            "midi": 64,
            "name": "E4",
            "ticks": 146520,
            "time": 156.53861025,
            "velocity": 1
          },
          {
            "duration": 0.20833353125001963,
            "durationTicks": 195,
            "midi": 66,
            "name": "F#4",
            "ticks": 146640,
            "time": 156.66681549999998,
            "velocity": 1
          },
          {
            "duration": 0.11217959374999964,
            "durationTicks": 105,
            "midi": 61,
            "name": "C#4",
            "ticks": 147600,
            "time": 157.6924575,
            "velocity": 0.9921259842519685
          },
          {
            "duration": 0.11004283958334327,
            "durationTicks": 103,
            "midi": 66,
            "name": "F#4",
            "ticks": 147720,
            "time": 157.82066275,
            "velocity": 1
          },
          {
            "duration": 0.08547016666665286,
            "durationTicks": 80,
            "midi": 64,
            "name": "E4",
            "ticks": 147840,
            "time": 157.948868,
            "velocity": 1
          },
          {
            "duration": 0.08547016666668128,
            "durationTicks": 80,
            "midi": 66,
            "name": "F#4",
            "ticks": 147960,
            "time": 158.07707324999998,
            "velocity": 1
          },
          {
            "duration": 0.49465858958333797,
            "durationTicks": 463,
            "midi": 66,
            "name": "F#4",
            "ticks": 148080,
            "time": 158.2052785,
            "velocity": 1
          },
          {
            "duration": 0.0940171833333352,
            "durationTicks": 88,
            "midi": 66,
            "name": "F#4",
            "ticks": 148560,
            "time": 158.7180995,
            "velocity": 1
          },
          {
            "duration": 0.0801282812499835,
            "durationTicks": 75,
            "midi": 64,
            "name": "E4",
            "ticks": 148680,
            "time": 158.84630475,
            "velocity": 1
          },
          {
            "duration": 0.21688054791667355,
            "durationTicks": 203,
            "midi": 66,
            "name": "F#4",
            "ticks": 148800,
            "time": 158.97450999999998,
            "velocity": 1
          },
          {
            "duration": 0.41132517708331306,
            "durationTicks": 385,
            "midi": 68,
            "name": "G#4",
            "ticks": 149100,
            "time": 159.295023125,
            "velocity": 1
          },
          {
            "duration": 0.38247899583333833,
            "durationTicks": 358,
            "midi": 66,
            "name": "F#4",
            "ticks": 149520,
            "time": 159.7437415,
            "velocity": 1
          },
          {
            "duration": 0.21688054791667355,
            "durationTicks": 203,
            "midi": 64,
            "name": "E4",
            "ticks": 151440,
            "time": 161.79502549999998,
            "velocity": 1
          },
          {
            "duration": 0.19764976041668092,
            "durationTicks": 185,
            "midi": 66,
            "name": "F#4",
            "ticks": 151680,
            "time": 162.051436,
            "velocity": 1
          },
          {
            "duration": 0.07478639583334257,
            "durationTicks": 70,
            "midi": 64,
            "name": "E4",
            "ticks": 151920,
            "time": 162.30784649999998,
            "velocity": 1
          },
          {
            "duration": 0.213675416666689,
            "durationTicks": 200,
            "midi": 66,
            "name": "F#4",
            "ticks": 152040,
            "time": 162.43605175,
            "velocity": 1
          },
          {
            "duration": 0.09615393750001999,
            "durationTicks": 90,
            "midi": 64,
            "name": "E4",
            "ticks": 152280,
            "time": 162.69246224999998,
            "velocity": 1
          },
          {
            "duration": 0.2670942708333257,
            "durationTicks": 250,
            "midi": 66,
            "name": "F#4",
            "ticks": 152400,
            "time": 162.82066749999998,
            "velocity": 1
          },
          {
            "duration": 0.16880357916664934,
            "durationTicks": 158,
            "midi": 66,
            "name": "F#4",
            "ticks": 152700,
            "time": 163.141180625,
            "velocity": 1
          },
          {
            "duration": 0.06944451041667321,
            "durationTicks": 65,
            "midi": 66,
            "name": "F#4",
            "ticks": 153360,
            "time": 163.8463095,
            "velocity": 1
          },
          {
            "duration": 0.11004283958331484,
            "durationTicks": 103,
            "midi": 66,
            "name": "F#4",
            "ticks": 153480,
            "time": 163.97451475,
            "velocity": 1
          },
          {
            "duration": 0.24358997500002033,
            "durationTicks": 228,
            "midi": 69,
            "name": "A4",
            "ticks": 153600,
            "time": 164.10271999999998,
            "velocity": 1
          },
          {
            "duration": 0.11004283958334327,
            "durationTicks": 103,
            "midi": 66,
            "name": "F#4",
            "ticks": 153840,
            "time": 164.3591305,
            "velocity": 1
          },
          {
            "duration": 0.23504295833330957,
            "durationTicks": 220,
            "midi": 66,
            "name": "F#4",
            "ticks": 153960,
            "time": 164.48733575,
            "velocity": 1
          },
          {
            "duration": 0.09615393749999157,
            "durationTicks": 90,
            "midi": 64,
            "name": "E4",
            "ticks": 154260,
            "time": 164.807848875,
            "velocity": 1
          },
          {
            "duration": 0.2777780416666644,
            "durationTicks": 260,
            "midi": 66,
            "name": "F#4",
            "ticks": 154380,
            "time": 164.936054125,
            "velocity": 1
          },
          {
            "duration": 0.0940171833333352,
            "durationTicks": 88,
            "midi": 61,
            "name": "C#4",
            "ticks": 155280,
            "time": 165.8975935,
            "velocity": 1
          },
          {
            "duration": 0.08867529791666584,
            "durationTicks": 83,
            "midi": 66,
            "name": "F#4",
            "ticks": 155400,
            "time": 166.02579874999998,
            "velocity": 1
          },
          {
            "duration": 0.21688054791667355,
            "durationTicks": 203,
            "midi": 62,
            "name": "D4",
            "ticks": 155520,
            "time": 166.154004,
            "velocity": 1
          },
          {
            "duration": 0.07478639583331415,
            "durationTicks": 70,
            "midi": 62,
            "name": "D4",
            "ticks": 155760,
            "time": 166.4104145,
            "velocity": 1
          },
          {
            "duration": 0.11217959374999964,
            "durationTicks": 105,
            "midi": 62,
            "name": "D4",
            "ticks": 155880,
            "time": 166.53861974999998,
            "velocity": 1
          },
          {
            "duration": 0.1314103812500207,
            "durationTicks": 123,
            "midi": 62,
            "name": "D4",
            "ticks": 156000,
            "time": 166.666825,
            "velocity": 1
          },
          {
            "duration": 0.3717952249999996,
            "durationTicks": 348,
            "midi": 64,
            "name": "E4",
            "ticks": 156120,
            "time": 166.79503025,
            "velocity": 1
          },
          {
            "duration": 0.5427355583333338,
            "durationTicks": 508,
            "midi": 66,
            "name": "F#4",
            "ticks": 156480,
            "time": 167.179646,
            "velocity": 1
          },
          {
            "duration": 0.22756431875001226,
            "durationTicks": 213,
            "midi": 66,
            "name": "F#4",
            "ticks": 157200,
            "time": 167.94887749999998,
            "velocity": 1
          },
          {
            "duration": 0.22756431875001226,
            "durationTicks": 213,
            "midi": 65,
            "name": "F4",
            "ticks": 157440,
            "time": 168.205288,
            "velocity": 1
          },
          {
            "duration": 0.08867529791666584,
            "durationTicks": 83,
            "midi": 65,
            "name": "F4",
            "ticks": 157680,
            "time": 168.46169849999998,
            "velocity": 1
          },
          {
            "duration": 0.0940171833333352,
            "durationTicks": 88,
            "midi": 65,
            "name": "F4",
            "ticks": 157800,
            "time": 168.58990375,
            "velocity": 1
          },
          {
            "duration": 0.09081205208332221,
            "durationTicks": 85,
            "midi": 65,
            "name": "F4",
            "ticks": 157920,
            "time": 168.718109,
            "velocity": 1
          },
          {
            "duration": 0.3611114541666609,
            "durationTicks": 338,
            "midi": 66,
            "name": "F#4",
            "ticks": 158040,
            "time": 168.84631424999998,
            "velocity": 1
          },
          {
            "duration": 0.280983172916649,
            "durationTicks": 263,
            "midi": 68,
            "name": "G#4",
            "ticks": 158400,
            "time": 169.23093,
            "velocity": 1
          },
          {
            "duration": 0.18696598958331379,
            "durationTicks": 175,
            "midi": 66,
            "name": "F#4",
            "ticks": 158880,
            "time": 169.743751,
            "velocity": 1
          },
          {
            "duration": 0.17948735000001648,
            "durationTicks": 168,
            "midi": 68,
            "name": "G#4",
            "ticks": 159120,
            "time": 170.0001615,
            "velocity": 1
          },
          {
            "duration": 0.1527779229166697,
            "durationTicks": 143,
            "midi": 66,
            "name": "F#4",
            "ticks": 159840,
            "time": 170.76939299999998,
            "velocity": 1
          },
          {
            "duration": 0.2329062041666532,
            "durationTicks": 218,
            "midi": 66,
            "name": "F#4",
            "ticks": 160080,
            "time": 171.0258035,
            "velocity": 1
          },
          {
            "duration": 0.2564105000000154,
            "durationTicks": 240,
            "midi": 64,
            "name": "E4",
            "ticks": 160320,
            "time": 171.28221399999998,
            "velocity": 0.984251968503937
          },
          {
            "duration": 0.4572653916666525,
            "durationTicks": 428,
            "midi": 61,
            "name": "C#4",
            "ticks": 160560,
            "time": 171.5386245,
            "velocity": 1
          },
          {
            "duration": 0.19551300624999612,
            "durationTicks": 183,
            "midi": 61,
            "name": "C#4",
            "ticks": 161040,
            "time": 172.0514455,
            "velocity": 1
          },
          {
            "duration": 0.14209415208333098,
            "durationTicks": 133,
            "midi": 66,
            "name": "F#4",
            "ticks": 161280,
            "time": 172.307856,
            "velocity": 1
          },
          {
            "duration": 0.21367541666666057,
            "durationTicks": 200,
            "midi": 66,
            "name": "F#4",
            "ticks": 161520,
            "time": 172.5642665,
            "velocity": 1
          },
          {
            "duration": 0.48611157291668405,
            "durationTicks": 455,
            "midi": 64,
            "name": "E4",
            "ticks": 162000,
            "time": 173.07708749999998,
            "velocity": 0.9448818897637795
          },
          {
            "duration": 0.5053423604166767,
            "durationTicks": 473,
            "midi": 61,
            "name": "C#4",
            "ticks": 162480,
            "time": 173.58990849999998,
            "velocity": 1
          },
          {
            "duration": 0.2222224333333429,
            "durationTicks": 208,
            "midi": 66,
            "name": "F#4",
            "ticks": 163440,
            "time": 174.61555049999998,
            "velocity": 1
          },
          {
            "duration": 0.22222243333331448,
            "durationTicks": 208,
            "midi": 66,
            "name": "F#4",
            "ticks": 163680,
            "time": 174.871961,
            "velocity": 1
          },
          {
            "duration": 0.213675416666689,
            "durationTicks": 200,
            "midi": 66,
            "name": "F#4",
            "ticks": 163920,
            "time": 175.1283715,
            "velocity": 1
          },
          {
            "duration": 0.21688054791664513,
            "durationTicks": 203,
            "midi": 64,
            "name": "E4",
            "ticks": 164160,
            "time": 175.384782,
            "velocity": 1
          },
          {
            "duration": 0.19551300625002455,
            "durationTicks": 183,
            "midi": 61,
            "name": "C#4",
            "ticks": 164400,
            "time": 175.6411925,
            "velocity": 1
          },
          {
            "duration": 0.2649575166666409,
            "durationTicks": 248,
            "midi": 61,
            "name": "C#4",
            "ticks": 164640,
            "time": 175.897603,
            "velocity": 1
          },
          {
            "duration": 0.22435918749999928,
            "durationTicks": 210,
            "midi": 66,
            "name": "F#4",
            "ticks": 165120,
            "time": 176.41042399999998,
            "velocity": 1
          },
          {
            "duration": 0.2083335312499912,
            "durationTicks": 195,
            "midi": 69,
            "name": "A4",
            "ticks": 165420,
            "time": 176.730937125,
            "velocity": 1
          },
          {
            "duration": 0.44871837499999856,
            "durationTicks": 420,
            "midi": 71,
            "name": "B4",
            "ticks": 165840,
            "time": 177.1796555,
            "velocity": 1
          },
          {
            "duration": 0.20299164583332185,
            "durationTicks": 190,
            "midi": 69,
            "name": "A4",
            "ticks": 166320,
            "time": 177.6924765,
            "velocity": 1
          },
          {
            "duration": 0.19551300625002455,
            "durationTicks": 183,
            "midi": 68,
            "name": "G#4",
            "ticks": 166560,
            "time": 177.94888699999998,
            "velocity": 1
          },
          {
            "duration": 0.4006414062500028,
            "durationTicks": 375,
            "midi": 66,
            "name": "F#4",
            "ticks": 166800,
            "time": 178.2052975,
            "velocity": 1
          },
          {
            "duration": 0.29700882916665705,
            "durationTicks": 278,
            "midi": 66,
            "name": "F#4",
            "ticks": 168240,
            "time": 179.74376049999998,
            "velocity": 1
          },
          {
            "duration": 0.20833353125001963,
            "durationTicks": 195,
            "midi": 66,
            "name": "F#4",
            "ticks": 168720,
            "time": 180.25658149999998,
            "velocity": 1
          },
          {
            "duration": 0.19551300624999612,
            "durationTicks": 183,
            "midi": 73,
            "name": "C#5",
            "ticks": 168960,
            "time": 180.512992,
            "velocity": 1
          },
          {
            "duration": 0.235042958333338,
            "durationTicks": 220,
            "midi": 71,
            "name": "B4",
            "ticks": 169200,
            "time": 180.76940249999998,
            "velocity": 1
          },
          {
            "duration": 0.34508579791665284,
            "durationTicks": 323,
            "midi": 71,
            "name": "B4",
            "ticks": 169500,
            "time": 181.089915625,
            "velocity": 1
          },
          {
            "duration": 0.1848292354166574,
            "durationTicks": 173,
            "midi": 66,
            "name": "F#4",
            "ticks": 169920,
            "time": 181.538634,
            "velocity": 1
          },
          {
            "duration": 0.4433764895833292,
            "durationTicks": 415,
            "midi": 62,
            "name": "D4",
            "ticks": 170220,
            "time": 181.859147125,
            "velocity": 1
          },
          {
            "duration": 0.7831204020833411,
            "durationTicks": 733,
            "midi": 61,
            "name": "C#4",
            "ticks": 170700,
            "time": 182.371968125,
            "velocity": 1
          },
          {
            "duration": 0.15277792291664127,
            "durationTicks": 143,
            "midi": 66,
            "name": "F#4",
            "ticks": 175200,
            "time": 187.179665,
            "velocity": 1
          },
          {
            "duration": 0.2329062041666532,
            "durationTicks": 218,
            "midi": 66,
            "name": "F#4",
            "ticks": 175440,
            "time": 187.4360755,
            "velocity": 1
          },
          {
            "duration": 0.256410499999987,
            "durationTicks": 240,
            "midi": 64,
            "name": "E4",
            "ticks": 175680,
            "time": 187.692486,
            "velocity": 0.984251968503937
          },
          {
            "duration": 0.4572653916666525,
            "durationTicks": 428,
            "midi": 61,
            "name": "C#4",
            "ticks": 175920,
            "time": 187.9488965,
            "velocity": 1
          },
          {
            "duration": 0.19551300624999612,
            "durationTicks": 183,
            "midi": 61,
            "name": "C#4",
            "ticks": 176400,
            "time": 188.4617175,
            "velocity": 1
          },
          {
            "duration": 0.1420941520833594,
            "durationTicks": 133,
            "midi": 66,
            "name": "F#4",
            "ticks": 176640,
            "time": 188.71812799999998,
            "velocity": 1
          },
          {
            "duration": 0.21367541666666057,
            "durationTicks": 200,
            "midi": 66,
            "name": "F#4",
            "ticks": 176880,
            "time": 188.9745385,
            "velocity": 1
          },
          {
            "duration": 0.48611157291665563,
            "durationTicks": 455,
            "midi": 64,
            "name": "E4",
            "ticks": 177360,
            "time": 189.4873595,
            "velocity": 0.9448818897637795
          },
          {
            "duration": 0.5053423604166483,
            "durationTicks": 473,
            "midi": 61,
            "name": "C#4",
            "ticks": 177840,
            "time": 190.0001805,
            "velocity": 1
          },
          {
            "duration": 0.2222224333333429,
            "durationTicks": 208,
            "midi": 66,
            "name": "F#4",
            "ticks": 178800,
            "time": 191.02582249999998,
            "velocity": 1
          },
          {
            "duration": 0.2222224333333429,
            "durationTicks": 208,
            "midi": 66,
            "name": "F#4",
            "ticks": 179040,
            "time": 191.282233,
            "velocity": 1
          },
          {
            "duration": 0.213675416666689,
            "durationTicks": 200,
            "midi": 66,
            "name": "F#4",
            "ticks": 179280,
            "time": 191.53864349999998,
            "velocity": 1
          },
          {
            "duration": 0.21688054791664513,
            "durationTicks": 203,
            "midi": 64,
            "name": "E4",
            "ticks": 179520,
            "time": 191.795054,
            "velocity": 1
          },
          {
            "duration": 0.19551300625002455,
            "durationTicks": 183,
            "midi": 61,
            "name": "C#4",
            "ticks": 179760,
            "time": 192.05146449999998,
            "velocity": 1
          },
          {
            "duration": 0.2649575166666409,
            "durationTicks": 248,
            "midi": 61,
            "name": "C#4",
            "ticks": 180000,
            "time": 192.307875,
            "velocity": 1
          },
          {
            "duration": 0.22435918749999928,
            "durationTicks": 210,
            "midi": 66,
            "name": "F#4",
            "ticks": 180480,
            "time": 192.820696,
            "velocity": 1
          },
          {
            "duration": 0.2083335312499912,
            "durationTicks": 195,
            "midi": 69,
            "name": "A4",
            "ticks": 180780,
            "time": 193.141209125,
            "velocity": 1
          },
          {
            "duration": 0.44871837499999856,
            "durationTicks": 420,
            "midi": 71,
            "name": "B4",
            "ticks": 181200,
            "time": 193.5899275,
            "velocity": 1
          },
          {
            "duration": 0.20299164583332185,
            "durationTicks": 190,
            "midi": 69,
            "name": "A4",
            "ticks": 181680,
            "time": 194.1027485,
            "velocity": 1
          },
          {
            "duration": 0.19551300625002455,
            "durationTicks": 183,
            "midi": 68,
            "name": "G#4",
            "ticks": 181920,
            "time": 194.35915899999998,
            "velocity": 1
          },
          {
            "duration": 0.4006414062500028,
            "durationTicks": 375,
            "midi": 66,
            "name": "F#4",
            "ticks": 182160,
            "time": 194.6155695,
            "velocity": 1
          },
          {
            "duration": 0.29700882916665705,
            "durationTicks": 278,
            "midi": 66,
            "name": "F#4",
            "ticks": 183600,
            "time": 196.1540325,
            "velocity": 1
          },
          {
            "duration": 0.2083335312499912,
            "durationTicks": 195,
            "midi": 66,
            "name": "F#4",
            "ticks": 184080,
            "time": 196.6668535,
            "velocity": 1
          },
          {
            "duration": 0.19551300625002455,
            "durationTicks": 183,
            "midi": 73,
            "name": "C#5",
            "ticks": 184320,
            "time": 196.923264,
            "velocity": 1
          },
          {
            "duration": 0.235042958333338,
            "durationTicks": 220,
            "midi": 71,
            "name": "B4",
            "ticks": 184560,
            "time": 197.17967449999998,
            "velocity": 1
          },
          {
            "duration": 0.34508579791665284,
            "durationTicks": 323,
            "midi": 71,
            "name": "B4",
            "ticks": 184860,
            "time": 197.500187625,
            "velocity": 1
          },
          {
            "duration": 0.1848292354166574,
            "durationTicks": 173,
            "midi": 66,
            "name": "F#4",
            "ticks": 185280,
            "time": 197.948906,
            "velocity": 1
          },
          {
            "duration": 0.4433764895833292,
            "durationTicks": 415,
            "midi": 62,
            "name": "D4",
            "ticks": 185580,
            "time": 198.26941912499998,
            "velocity": 1
          },
          {
            "duration": 0.7831204020833411,
            "durationTicks": 733,
            "midi": 61,
            "name": "C#4",
            "ticks": 186060,
            "time": 198.782240125,
            "velocity": 1
          },
          {
            "duration": 0.19017112083332677,
            "durationTicks": 178,
            "midi": 66,
            "name": "F#4",
            "ticks": 188400,
            "time": 201.2822425,
            "velocity": 1
          },
          {
            "duration": 0.22970107291666864,
            "durationTicks": 215,
            "midi": 69,
            "name": "A4",
            "ticks": 188640,
            "time": 201.53865299999998,
            "velocity": 1
          },
          {
            "duration": 0.4433764895833008,
            "durationTicks": 415,
            "midi": 71,
            "name": "B4",
            "ticks": 188880,
            "time": 201.7950635,
            "velocity": 1
          },
          {
            "duration": 0.20299164583332185,
            "durationTicks": 190,
            "midi": 69,
            "name": "A4",
            "ticks": 189360,
            "time": 202.3078845,
            "velocity": 1
          },
          {
            "duration": 0.2083335312499912,
            "durationTicks": 195,
            "midi": 68,
            "name": "G#4",
            "ticks": 189600,
            "time": 202.564295,
            "velocity": 1
          },
          {
            "duration": 0.4572653916666525,
            "durationTicks": 428,
            "midi": 66,
            "name": "F#4",
            "ticks": 189840,
            "time": 202.8207055,
            "velocity": 1
          },
          {
            "duration": 0.23824808958335097,
            "durationTicks": 223,
            "midi": 66,
            "name": "F#4",
            "ticks": 191280,
            "time": 204.35916849999998,
            "velocity": 1
          },
          {
            "duration": 0.22970107291666864,
            "durationTicks": 215,
            "midi": 66,
            "name": "F#4",
            "ticks": 191760,
            "time": 204.87198949999998,
            "velocity": 1
          },
          {
            "duration": 0.19230787499998314,
            "durationTicks": 180,
            "midi": 73,
            "name": "C#5",
            "ticks": 192000,
            "time": 205.1284,
            "velocity": 1
          },
          {
            "duration": 0.20299164583332185,
            "durationTicks": 190,
            "midi": 71,
            "name": "B4",
            "ticks": 192240,
            "time": 205.3848105,
            "velocity": 1
          },
          {
            "duration": 0.29700882916665705,
            "durationTicks": 278,
            "midi": 71,
            "name": "B4",
            "ticks": 192480,
            "time": 205.641221,
            "velocity": 1
          },
          {
            "duration": 0.2670942708333257,
            "durationTicks": 250,
            "midi": 66,
            "name": "F#4",
            "ticks": 192960,
            "time": 206.15404199999998,
            "velocity": 1
          },
          {
            "duration": 0.4412397354166444,
            "durationTicks": 413,
            "midi": 62,
            "name": "D4",
            "ticks": 193200,
            "time": 206.4104525,
            "velocity": 1
          },
          {
            "duration": 0.8012828125000055,
            "durationTicks": 750,
            "midi": 61,
            "name": "C#4",
            "ticks": 193680,
            "time": 206.9232735,
            "velocity": 1
          },
          {
            "duration": 0.19017112083332677,
            "durationTicks": 178,
            "midi": 66,
            "name": "F#4",
            "ticks": 211440,
            "time": 225.8976505,
            "velocity": 1
          },
          {
            "duration": 0.22970107291666864,
            "durationTicks": 215,
            "midi": 69,
            "name": "A4",
            "ticks": 211680,
            "time": 226.15406099999998,
            "velocity": 1
          },
          {
            "duration": 0.4433764895833008,
            "durationTicks": 415,
            "midi": 71,
            "name": "B4",
            "ticks": 211920,
            "time": 226.4104715,
            "velocity": 1
          },
          {
            "duration": 0.20299164583335028,
            "durationTicks": 190,
            "midi": 69,
            "name": "A4",
            "ticks": 212400,
            "time": 226.92329249999997,
            "velocity": 1
          },
          {
            "duration": 0.2083335312499912,
            "durationTicks": 195,
            "midi": 68,
            "name": "G#4",
            "ticks": 212640,
            "time": 227.179703,
            "velocity": 1
          },
          {
            "duration": 0.4572653916666809,
            "durationTicks": 428,
            "midi": 66,
            "name": "F#4",
            "ticks": 212880,
            "time": 227.43611349999998,
            "velocity": 1
          },
          {
            "duration": 0.23824808958335097,
            "durationTicks": 223,
            "midi": 66,
            "name": "F#4",
            "ticks": 214320,
            "time": 228.97457649999998,
            "velocity": 1
          },
          {
            "duration": 0.22970107291666864,
            "durationTicks": 215,
            "midi": 66,
            "name": "F#4",
            "ticks": 214800,
            "time": 229.4873975,
            "velocity": 1
          },
          {
            "duration": 0.19230787499998314,
            "durationTicks": 180,
            "midi": 73,
            "name": "C#5",
            "ticks": 215040,
            "time": 229.743808,
            "velocity": 1
          },
          {
            "duration": 0.20299164583332185,
            "durationTicks": 190,
            "midi": 71,
            "name": "B4",
            "ticks": 215280,
            "time": 230.0002185,
            "velocity": 1
          },
          {
            "duration": 0.29700882916665705,
            "durationTicks": 278,
            "midi": 71,
            "name": "B4",
            "ticks": 215520,
            "time": 230.25662899999998,
            "velocity": 1
          },
          {
            "duration": 0.2670942708333257,
            "durationTicks": 250,
            "midi": 66,
            "name": "F#4",
            "ticks": 216000,
            "time": 230.76944999999998,
            "velocity": 1
          },
          {
            "duration": 0.4412397354166444,
            "durationTicks": 413,
            "midi": 62,
            "name": "D4",
            "ticks": 216240,
            "time": 231.0258605,
            "velocity": 1
          },
          {
            "duration": 0.8012828125000055,
            "durationTicks": 750,
            "midi": 61,
            "name": "C#4",
            "ticks": 216720,
            "time": 231.5386815,
            "velocity": 1
          },
          {
            "duration": 0.1527779229166697,
            "durationTicks": 143,
            "midi": 66,
            "name": "F#4",
            "ticks": 221280,
            "time": 236.41048099999998,
            "velocity": 1
          },
          {
            "duration": 0.2329062041666532,
            "durationTicks": 218,
            "midi": 66,
            "name": "F#4",
            "ticks": 221520,
            "time": 236.6668915,
            "velocity": 1
          },
          {
            "duration": 0.2564105000000154,
            "durationTicks": 240,
            "midi": 64,
            "name": "E4",
            "ticks": 221760,
            "time": 236.92330199999998,
            "velocity": 0.984251968503937
          },
          {
            "duration": 0.4572653916666525,
            "durationTicks": 428,
            "midi": 61,
            "name": "C#4",
            "ticks": 222000,
            "time": 237.1797125,
            "velocity": 1
          },
          {
            "duration": 0.19551300624999612,
            "durationTicks": 183,
            "midi": 61,
            "name": "C#4",
            "ticks": 222480,
            "time": 237.6925335,
            "velocity": 1
          },
          {
            "duration": 0.14209415208333098,
            "durationTicks": 133,
            "midi": 66,
            "name": "F#4",
            "ticks": 222720,
            "time": 237.94894399999998,
            "velocity": 1
          },
          {
            "duration": 0.21367541666666057,
            "durationTicks": 200,
            "midi": 66,
            "name": "F#4",
            "ticks": 222960,
            "time": 238.2053545,
            "velocity": 1
          },
          {
            "duration": 0.48611157291668405,
            "durationTicks": 455,
            "midi": 64,
            "name": "E4",
            "ticks": 223440,
            "time": 238.71817549999997,
            "velocity": 0.9448818897637795
          },
          {
            "duration": 0.5053423604166767,
            "durationTicks": 473,
            "midi": 61,
            "name": "C#4",
            "ticks": 223920,
            "time": 239.23099649999997,
            "velocity": 1
          },
          {
            "duration": 0.2222224333333429,
            "durationTicks": 208,
            "midi": 66,
            "name": "F#4",
            "ticks": 224880,
            "time": 240.25663849999998,
            "velocity": 1
          },
          {
            "duration": 0.22222243333331448,
            "durationTicks": 208,
            "midi": 66,
            "name": "F#4",
            "ticks": 225120,
            "time": 240.513049,
            "velocity": 1
          },
          {
            "duration": 0.213675416666689,
            "durationTicks": 200,
            "midi": 66,
            "name": "F#4",
            "ticks": 225360,
            "time": 240.76945949999998,
            "velocity": 1
          },
          {
            "duration": 0.21688054791664513,
            "durationTicks": 203,
            "midi": 64,
            "name": "E4",
            "ticks": 225600,
            "time": 241.02587,
            "velocity": 1
          },
          {
            "duration": 0.19551300625002455,
            "durationTicks": 183,
            "midi": 61,
            "name": "C#4",
            "ticks": 225840,
            "time": 241.28228049999998,
            "velocity": 1
          },
          {
            "duration": 0.2649575166666409,
            "durationTicks": 248,
            "midi": 61,
            "name": "C#4",
            "ticks": 226080,
            "time": 241.538691,
            "velocity": 1
          },
          {
            "duration": 0.22435918749999928,
            "durationTicks": 210,
            "midi": 66,
            "name": "F#4",
            "ticks": 226560,
            "time": 242.05151199999997,
            "velocity": 1
          },
          {
            "duration": 0.2083335312499912,
            "durationTicks": 195,
            "midi": 69,
            "name": "A4",
            "ticks": 226860,
            "time": 242.372025125,
            "velocity": 1
          },
          {
            "duration": 0.44871837499999856,
            "durationTicks": 420,
            "midi": 71,
            "name": "B4",
            "ticks": 227280,
            "time": 242.8207435,
            "velocity": 1
          },
          {
            "duration": 0.20299164583332185,
            "durationTicks": 190,
            "midi": 69,
            "name": "A4",
            "ticks": 227760,
            "time": 243.3335645,
            "velocity": 1
          },
          {
            "duration": 0.19551300625002455,
            "durationTicks": 183,
            "midi": 68,
            "name": "G#4",
            "ticks": 228000,
            "time": 243.58997499999998,
            "velocity": 1
          },
          {
            "duration": 0.4006414062500028,
            "durationTicks": 375,
            "midi": 66,
            "name": "F#4",
            "ticks": 228240,
            "time": 243.8463855,
            "velocity": 1
          },
          {
            "duration": 0.29700882916665705,
            "durationTicks": 278,
            "midi": 66,
            "name": "F#4",
            "ticks": 229680,
            "time": 245.38484849999998,
            "velocity": 1
          },
          {
            "duration": 0.20833353125001963,
            "durationTicks": 195,
            "midi": 66,
            "name": "F#4",
            "ticks": 230160,
            "time": 245.89766949999998,
            "velocity": 1
          },
          {
            "duration": 0.19551300624999612,
            "durationTicks": 183,
            "midi": 73,
            "name": "C#5",
            "ticks": 230400,
            "time": 246.15408,
            "velocity": 1
          },
          {
            "duration": 0.235042958333338,
            "durationTicks": 220,
            "midi": 71,
            "name": "B4",
            "ticks": 230640,
            "time": 246.41049049999998,
            "velocity": 1
          },
          {
            "duration": 0.34508579791665284,
            "durationTicks": 323,
            "midi": 71,
            "name": "B4",
            "ticks": 230940,
            "time": 246.731003625,
            "velocity": 1
          },
          {
            "duration": 0.1848292354166574,
            "durationTicks": 173,
            "midi": 66,
            "name": "F#4",
            "ticks": 231360,
            "time": 247.179722,
            "velocity": 1
          },
          {
            "duration": 0.4433764895833292,
            "durationTicks": 415,
            "midi": 62,
            "name": "D4",
            "ticks": 231660,
            "time": 247.500235125,
            "velocity": 1
          },
          {
            "duration": 0.7831204020833411,
            "durationTicks": 733,
            "midi": 61,
            "name": "C#4",
            "ticks": 232140,
            "time": 248.013056125,
            "velocity": 1
          },
          {
            "duration": 0.19017112083332677,
            "durationTicks": 178,
            "midi": 66,
            "name": "F#4",
            "ticks": 234480,
            "time": 250.5130585,
            "velocity": 1
          },
          {
            "duration": 0.22970107291666864,
            "durationTicks": 215,
            "midi": 69,
            "name": "A4",
            "ticks": 234720,
            "time": 250.769469,
            "velocity": 1
          },
          {
            "duration": 0.4433764895833292,
            "durationTicks": 415,
            "midi": 71,
            "name": "B4",
            "ticks": 234960,
            "time": 251.02587949999997,
            "velocity": 1
          },
          {
            "duration": 0.20299164583332185,
            "durationTicks": 190,
            "midi": 69,
            "name": "A4",
            "ticks": 235440,
            "time": 251.53870049999998,
            "velocity": 1
          },
          {
            "duration": 0.2083335312499912,
            "durationTicks": 195,
            "midi": 68,
            "name": "G#4",
            "ticks": 235680,
            "time": 251.795111,
            "velocity": 1
          },
          {
            "duration": 0.4572653916666525,
            "durationTicks": 428,
            "midi": 66,
            "name": "F#4",
            "ticks": 235920,
            "time": 252.05152149999998,
            "velocity": 1
          },
          {
            "duration": 0.23824808958332255,
            "durationTicks": 223,
            "midi": 66,
            "name": "F#4",
            "ticks": 237360,
            "time": 253.58998449999999,
            "velocity": 1
          },
          {
            "duration": 0.22970107291666864,
            "durationTicks": 215,
            "midi": 66,
            "name": "F#4",
            "ticks": 237840,
            "time": 254.1028055,
            "velocity": 1
          },
          {
            "duration": 0.19230787500001156,
            "durationTicks": 180,
            "midi": 73,
            "name": "C#5",
            "ticks": 238080,
            "time": 254.35921599999998,
            "velocity": 1
          },
          {
            "duration": 0.20299164583332185,
            "durationTicks": 190,
            "midi": 71,
            "name": "B4",
            "ticks": 238320,
            "time": 254.6156265,
            "velocity": 1
          },
          {
            "duration": 0.29700882916665705,
            "durationTicks": 278,
            "midi": 71,
            "name": "B4",
            "ticks": 238560,
            "time": 254.87203699999998,
            "velocity": 1
          },
          {
            "duration": 0.2670942708333257,
            "durationTicks": 250,
            "midi": 66,
            "name": "F#4",
            "ticks": 239040,
            "time": 255.38485799999998,
            "velocity": 1
          },
          {
            "duration": 0.4412397354166444,
            "durationTicks": 413,
            "midi": 62,
            "name": "D4",
            "ticks": 239280,
            "time": 255.6412685,
            "velocity": 1
          },
          {
            "duration": 0.8012828125000055,
            "durationTicks": 750,
            "midi": 61,
            "name": "C#4",
            "ticks": 239760,
            "time": 256.1540895,
            "velocity": 1
          },
          {
            "duration": 0.15277792291664127,
            "durationTicks": 143,
            "midi": 66,
            "name": "F#4",
            "ticks": 244320,
            "time": 261.025889,
            "velocity": 1
          },
          {
            "duration": 0.23290620416668162,
            "durationTicks": 218,
            "midi": 66,
            "name": "F#4",
            "ticks": 244560,
            "time": 261.28229949999997,
            "velocity": 1
          },
          {
            "duration": 0.2564105000000154,
            "durationTicks": 240,
            "midi": 64,
            "name": "E4",
            "ticks": 244800,
            "time": 261.53871,
            "velocity": 0.984251968503937
          },
          {
            "duration": 0.45726539166662405,
            "durationTicks": 428,
            "midi": 61,
            "name": "C#4",
            "ticks": 245040,
            "time": 261.7951205,
            "velocity": 1
          },
          {
            "duration": 0.19551300625005297,
            "durationTicks": 183,
            "midi": 61,
            "name": "C#4",
            "ticks": 245520,
            "time": 262.30794149999997,
            "velocity": 1
          },
          {
            "duration": 0.14209415208330256,
            "durationTicks": 133,
            "midi": 66,
            "name": "F#4",
            "ticks": 245760,
            "time": 262.564352,
            "velocity": 1
          },
          {
            "duration": 0.21367541666660372,
            "durationTicks": 200,
            "midi": 66,
            "name": "F#4",
            "ticks": 246000,
            "time": 262.8207625,
            "velocity": 1
          },
          {
            "duration": 0.48611157291668405,
            "durationTicks": 455,
            "midi": 64,
            "name": "E4",
            "ticks": 246480,
            "time": 263.3335835,
            "velocity": 0.9448818897637795
          },
          {
            "duration": 0.5053423604166483,
            "durationTicks": 473,
            "midi": 61,
            "name": "C#4",
            "ticks": 246960,
            "time": 263.8464045,
            "velocity": 1
          },
          {
            "duration": 0.15277792291669812,
            "durationTicks": 143,
            "midi": 66,
            "name": "F#4",
            "ticks": 248160,
            "time": 265.12845699999997,
            "velocity": 1
          },
          {
            "duration": 0.23290620416668162,
            "durationTicks": 218,
            "midi": 66,
            "name": "F#4",
            "ticks": 248400,
            "time": 265.3848675,
            "velocity": 1
          },
          {
            "duration": 0.2564104999999586,
            "durationTicks": 240,
            "midi": 64,
            "name": "E4",
            "ticks": 248640,
            "time": 265.641278,
            "velocity": 0.984251968503937
          },
          {
            "duration": 0.4572653916666809,
            "durationTicks": 428,
            "midi": 61,
            "name": "C#4",
            "ticks": 248880,
            "time": 265.89768849999996,
            "velocity": 1
          },
          {
            "duration": 0.19551300624999612,
            "durationTicks": 183,
            "midi": 61,
            "name": "C#4",
            "ticks": 249360,
            "time": 266.4105095,
            "velocity": 1
          },
          {
            "duration": 0.14209415208330256,
            "durationTicks": 133,
            "midi": 66,
            "name": "F#4",
            "ticks": 249600,
            "time": 266.66692,
            "velocity": 1
          },
          {
            "duration": 0.21367541666666057,
            "durationTicks": 200,
            "midi": 66,
            "name": "F#4",
            "ticks": 249840,
            "time": 266.92333049999996,
            "velocity": 1
          },
          {
            "duration": 0.4861115729166272,
            "durationTicks": 455,
            "midi": 64,
            "name": "E4",
            "ticks": 250320,
            "time": 267.4361515,
            "velocity": 0.9448818897637795
          },
          {
            "duration": 0.5053423604166483,
            "durationTicks": 473,
            "midi": 61,
            "name": "C#4",
            "ticks": 250800,
            "time": 267.94897249999997,
            "velocity": 1
          },
          {
            "duration": 0.15277792291664127,
            "durationTicks": 143,
            "midi": 66,
            "name": "F#4",
            "ticks": 252000,
            "time": 269.231025,
            "velocity": 1
          },
          {
            "duration": 0.23290620416662478,
            "durationTicks": 218,
            "midi": 66,
            "name": "F#4",
            "ticks": 252240,
            "time": 269.4874355,
            "velocity": 1
          },
          {
            "duration": 0.2564105000000154,
            "durationTicks": 240,
            "midi": 64,
            "name": "E4",
            "ticks": 252480,
            "time": 269.74384599999996,
            "velocity": 0.984251968503937
          },
          {
            "duration": 0.4572653916666809,
            "durationTicks": 428,
            "midi": 61,
            "name": "C#4",
            "ticks": 252720,
            "time": 270.0002565,
            "velocity": 1
          },
          {
            "duration": 0.19551300624999612,
            "durationTicks": 183,
            "midi": 61,
            "name": "C#4",
            "ticks": 253200,
            "time": 270.5130775,
            "velocity": 1
          },
          {
            "duration": 0.14209415208330256,
            "durationTicks": 133,
            "midi": 66,
            "name": "F#4",
            "ticks": 253440,
            "time": 270.76948799999997,
            "velocity": 1
          },
          {
            "duration": 0.21367541666666057,
            "durationTicks": 200,
            "midi": 66,
            "name": "F#4",
            "ticks": 253680,
            "time": 271.0258985,
            "velocity": 1
          },
          {
            "duration": 0.48611157291668405,
            "durationTicks": 455,
            "midi": 64,
            "name": "E4",
            "ticks": 254160,
            "time": 271.53871949999996,
            "velocity": 0.9448818897637795
          },
          {
            "duration": 0.5053423604166483,
            "durationTicks": 473,
            "midi": 61,
            "name": "C#4",
            "ticks": 254640,
            "time": 272.0515405,
            "velocity": 1
          },
          {
            "duration": 0.15277792291664127,
            "durationTicks": 143,
            "midi": 66,
            "name": "F#4",
            "ticks": 255840,
            "time": 273.333593,
            "velocity": 1
          },
          {
            "duration": 0.23290620416668162,
            "durationTicks": 218,
            "midi": 66,
            "name": "F#4",
            "ticks": 256080,
            "time": 273.59000349999997,
            "velocity": 1
          },
          {
            "duration": 0.2564105000000154,
            "durationTicks": 240,
            "midi": 64,
            "name": "E4",
            "ticks": 256320,
            "time": 273.846414,
            "velocity": 0.984251968503937
          },
          {
            "duration": 0.45726539166662405,
            "durationTicks": 428,
            "midi": 61,
            "name": "C#4",
            "ticks": 256560,
            "time": 274.1028245,
            "velocity": 1
          },
          {
            "duration": 0.19551300625005297,
            "durationTicks": 183,
            "midi": 61,
            "name": "C#4",
            "ticks": 257040,
            "time": 274.61564549999997,
            "velocity": 1
          },
          {
            "duration": 0.14209415208330256,
            "durationTicks": 133,
            "midi": 66,
            "name": "F#4",
            "ticks": 257280,
            "time": 274.872056,
            "velocity": 1
          },
          {
            "duration": 0.21367541666660372,
            "durationTicks": 200,
            "midi": 66,
            "name": "F#4",
            "ticks": 257520,
            "time": 275.1284665,
            "velocity": 1
          },
          {
            "duration": 0.48611157291668405,
            "durationTicks": 455,
            "midi": 64,
            "name": "E4",
            "ticks": 258000,
            "time": 275.6412875,
            "velocity": 0.9448818897637795
          },
          {
            "duration": 0.5053423604166483,
            "durationTicks": 473,
            "midi": 61,
            "name": "C#4",
            "ticks": 258480,
            "time": 276.1541085,
            "velocity": 1
          },
          {
            "duration": 0.15277792291669812,
            "durationTicks": 143,
            "midi": 66,
            "name": "F#4",
            "ticks": 259680,
            "time": 277.43616099999997,
            "velocity": 1
          },
          {
            "duration": 0.23290620416668162,
            "durationTicks": 218,
            "midi": 66,
            "name": "F#4",
            "ticks": 259920,
            "time": 277.6925715,
            "velocity": 1
          },
          {
            "duration": 0.2564104999999586,
            "durationTicks": 240,
            "midi": 64,
            "name": "E4",
            "ticks": 260160,
            "time": 277.948982,
            "velocity": 0.984251968503937
          },
          {
            "duration": 0.4572653916666809,
            "durationTicks": 428,
            "midi": 61,
            "name": "C#4",
            "ticks": 260400,
            "time": 278.20539249999996,
            "velocity": 1
          },
          {
            "duration": 0.19551300624999612,
            "durationTicks": 183,
            "midi": 61,
            "name": "C#4",
            "ticks": 260880,
            "time": 278.7182135,
            "velocity": 1
          },
          {
            "duration": 0.14209415208330256,
            "durationTicks": 133,
            "midi": 66,
            "name": "F#4",
            "ticks": 261120,
            "time": 278.974624,
            "velocity": 1
          },
          {
            "duration": 0.21367541666666057,
            "durationTicks": 200,
            "midi": 66,
            "name": "F#4",
            "ticks": 261360,
            "time": 279.23103449999996,
            "velocity": 1
          },
          {
            "duration": 0.4861115729166272,
            "durationTicks": 455,
            "midi": 64,
            "name": "E4",
            "ticks": 261840,
            "time": 279.7438555,
            "velocity": 0.9448818897637795
          },
          {
            "duration": 0.5053423604166483,
            "durationTicks": 473,
            "midi": 61,
            "name": "C#4",
            "ticks": 262320,
            "time": 280.25667649999997,
            "velocity": 1
          },
          {
            "duration": 0.15277792291664127,
            "durationTicks": 143,
            "midi": 66,
            "name": "F#4",
            "ticks": 263520,
            "time": 281.538729,
            "velocity": 1
          },
          {
            "duration": 0.23290620416662478,
            "durationTicks": 218,
            "midi": 66,
            "name": "F#4",
            "ticks": 263760,
            "time": 281.7951395,
            "velocity": 1
          },
          {
            "duration": 0.2564105000000154,
            "durationTicks": 240,
            "midi": 64,
            "name": "E4",
            "ticks": 264000,
            "time": 282.05154999999996,
            "velocity": 0.984251968503937
          },
          {
            "duration": 0.4572653916666809,
            "durationTicks": 428,
            "midi": 61,
            "name": "C#4",
            "ticks": 264240,
            "time": 282.3079605,
            "velocity": 1
          },
          {
            "duration": 0.19551300624999612,
            "durationTicks": 183,
            "midi": 61,
            "name": "C#4",
            "ticks": 264720,
            "time": 282.8207815,
            "velocity": 1
          },
          {
            "duration": 0.14209415208330256,
            "durationTicks": 133,
            "midi": 66,
            "name": "F#4",
            "ticks": 264960,
            "time": 283.07719199999997,
            "velocity": 1
          },
          {
            "duration": 0.21367541666666057,
            "durationTicks": 200,
            "midi": 66,
            "name": "F#4",
            "ticks": 265200,
            "time": 283.3336025,
            "velocity": 1
          },
          {
            "duration": 0.48611157291668405,
            "durationTicks": 455,
            "midi": 64,
            "name": "E4",
            "ticks": 265680,
            "time": 283.84642349999996,
            "velocity": 0.9448818897637795
          },
          {
            "duration": 0.5053423604166483,
            "durationTicks": 473,
            "midi": 61,
            "name": "C#4",
            "ticks": 266160,
            "time": 284.3592445,
            "velocity": 1
          },
          {
            "duration": 0.15277792291664127,
            "durationTicks": 143,
            "midi": 66,
            "name": "F#4",
            "ticks": 267360,
            "time": 285.641297,
            "velocity": 1
          },
          {
            "duration": 0.23290620416668162,
            "durationTicks": 218,
            "midi": 66,
            "name": "F#4",
            "ticks": 267600,
            "time": 285.89770749999997,
            "velocity": 1
          },
          {
            "duration": 0.2564105000000154,
            "durationTicks": 240,
            "midi": 64,
            "name": "E4",
            "ticks": 267840,
            "time": 286.154118,
            "velocity": 0.984251968503937
          },
          {
            "duration": 0.45726539166662405,
            "durationTicks": 428,
            "midi": 61,
            "name": "C#4",
            "ticks": 268080,
            "time": 286.4105285,
            "velocity": 1
          },
          {
            "duration": 0.19551300624999612,
            "durationTicks": 183,
            "midi": 61,
            "name": "C#4",
            "ticks": 268560,
            "time": 286.9233495,
            "velocity": 1
          },
          {
            "duration": 0.14209415208330256,
            "durationTicks": 133,
            "midi": 66,
            "name": "F#4",
            "ticks": 268800,
            "time": 287.17976,
            "velocity": 1
          },
          {
            "duration": 0.21367541666660372,
            "durationTicks": 200,
            "midi": 66,
            "name": "F#4",
            "ticks": 269040,
            "time": 287.4361705,
            "velocity": 1
          },
          {
            "duration": 0.4861115729166272,
            "durationTicks": 455,
            "midi": 64,
            "name": "E4",
            "ticks": 269520,
            "time": 287.9489915,
            "velocity": 0.9448818897637795
          },
          {
            "duration": 0.5053423604166483,
            "durationTicks": 473,
            "midi": 61,
            "name": "C#4",
            "ticks": 270000,
            "time": 288.4618125,
            "velocity": 1
          }
        ]
      },
      {
        "channel": 0,
        "controlChanges": {
          "0": [
            {
              "number": 0,
              "ticks": 535,
              "time": 0.5715817395833332,
              "value": 0
            }
          ],
          "32": [
            {
              "number": 32,
              "ticks": 538,
              "time": 0.5747868708333334,
              "value": 0
            }
          ],
          "121": [
            {
              "number": 121,
              "ticks": 485,
              "time": 0.5181628854166667,
              "value": 0
            }
          ]
        },
        "pitchBends": [],
        "instrument": {
          "family": "piano",
          "number": 0,
          "name": "acoustic grand piano"
        },
        "name": "       ",
        "notes": [],
        "endOfTrackTicks": 274560
      },
      {
        "channel": 4,
        "controlChanges": {
          "0": [
            {
              "number": 0,
              "ticks": 174015,
              "time": 185.91363815625,
              "value": 0
            },
            {
              "number": 0,
              "ticks": 174015,
              "time": 185.91363815625,
              "value": 0
            },
            {
              "number": 0,
              "ticks": 196445,
              "time": 209.87733613541667,
              "value": 0
            },
            {
              "number": 0,
              "ticks": 196445,
              "time": 209.87733613541667,
              "value": 0
            },
            {
              "number": 0,
              "ticks": 243015,
              "time": 259.63165690625,
              "value": 0
            },
            {
              "number": 0,
              "ticks": 243015,
              "time": 259.63165690625,
              "value": 0
            }
          ],
          "7": [
            {
              "number": 7,
              "ticks": 543,
              "time": 0.58012875625,
              "value": 0.5511811023622047
            },
            {
              "number": 7,
              "ticks": 678,
              "time": 0.7243596625000001,
              "value": 0.5511811023622047
            },
            {
              "number": 7,
              "ticks": 814,
              "time": 0.8696589458333333,
              "value": 0.5511811023622047
            },
            {
              "number": 7,
              "ticks": 950,
              "time": 1.0149582291666666,
              "value": 0.5511811023622047
            },
            {
              "number": 7,
              "ticks": 1085,
              "time": 1.1591891354166666,
              "value": 0.5511811023622047
            },
            {
              "number": 7,
              "ticks": 1222,
              "time": 1.3055567958333334,
              "value": 0.5511811023622047
            },
            {
              "number": 7,
              "ticks": 1357,
              "time": 1.4497877020833332,
              "value": 0.5511811023622047
            },
            {
              "number": 7,
              "ticks": 1492,
              "time": 1.5940186083333332,
              "value": 0.5511811023622047
            },
            {
              "number": 7,
              "ticks": 1629,
              "time": 1.7403862687499998,
              "value": 0.5511811023622047
            },
            {
              "number": 7,
              "ticks": 1764,
              "time": 1.8846171749999998,
              "value": 0.5511811023622047
            },
            {
              "number": 7,
              "ticks": 1900,
              "time": 2.029916458333333,
              "value": 0.5511811023622047
            },
            {
              "number": 7,
              "ticks": 2035,
              "time": 2.174147364583333,
              "value": 0.5511811023622047
            },
            {
              "number": 7,
              "ticks": 2171,
              "time": 2.319446647916666,
              "value": 0.5511811023622047
            },
            {
              "number": 7,
              "ticks": 2307,
              "time": 2.46474593125,
              "value": 0.5511811023622047
            },
            {
              "number": 7,
              "ticks": 2442,
              "time": 2.6089768375,
              "value": 0.5511811023622047
            },
            {
              "number": 7,
              "ticks": 2579,
              "time": 2.7553444979166666,
              "value": 0.5511811023622047
            },
            {
              "number": 7,
              "ticks": 2714,
              "time": 2.8995754041666664,
              "value": 0.5511811023622047
            },
            {
              "number": 7,
              "ticks": 2849,
              "time": 3.0438063104166666,
              "value": 0.5511811023622047
            },
            {
              "number": 7,
              "ticks": 2986,
              "time": 3.190173970833333,
              "value": 0.5511811023622047
            },
            {
              "number": 7,
              "ticks": 3121,
              "time": 3.334404877083333,
              "value": 0.5511811023622047
            },
            {
              "number": 7,
              "ticks": 3257,
              "time": 3.4797041604166665,
              "value": 0.5511811023622047
            },
            {
              "number": 7,
              "ticks": 3392,
              "time": 3.6239350666666663,
              "value": 0.5511811023622047
            },
            {
              "number": 7,
              "ticks": 3529,
              "time": 3.770302727083333,
              "value": 0.5511811023622047
            },
            {
              "number": 7,
              "ticks": 3664,
              "time": 3.9145336333333334,
              "value": 0.5511811023622047
            },
            {
              "number": 7,
              "ticks": 3799,
              "time": 4.058764539583334,
              "value": 0.5511811023622047
            },
            {
              "number": 7,
              "ticks": 3936,
              "time": 4.2051321999999995,
              "value": 0.5511811023622047
            },
            {
              "number": 7,
              "ticks": 4071,
              "time": 4.349363106249999,
              "value": 0.5511811023622047
            },
            {
              "number": 7,
              "ticks": 4207,
              "time": 4.494662389583333,
              "value": 0.5511811023622047
            },
            {
              "number": 7,
              "ticks": 4342,
              "time": 4.638893295833332,
              "value": 0.5511811023622047
            },
            {
              "number": 7,
              "ticks": 4478,
              "time": 4.784192579166667,
              "value": 0.5511811023622047
            },
            {
              "number": 7,
              "ticks": 4614,
              "time": 4.9294918625,
              "value": 0.5511811023622047
            },
            {
              "number": 7,
              "ticks": 4749,
              "time": 5.07372276875,
              "value": 0.5511811023622047
            },
            {
              "number": 7,
              "ticks": 4886,
              "time": 5.2200904291666665,
              "value": 0.5511811023622047
            },
            {
              "number": 7,
              "ticks": 5021,
              "time": 5.364321335416666,
              "value": 0.5511811023622047
            },
            {
              "number": 7,
              "ticks": 5156,
              "time": 5.508552241666667,
              "value": 0.5511811023622047
            },
            {
              "number": 7,
              "ticks": 5293,
              "time": 5.654919902083333,
              "value": 0.5511811023622047
            },
            {
              "number": 7,
              "ticks": 5428,
              "time": 5.799150808333333,
              "value": 0.5511811023622047
            },
            {
              "number": 7,
              "ticks": 5564,
              "time": 5.944450091666666,
              "value": 0.5511811023622047
            },
            {
              "number": 7,
              "ticks": 5699,
              "time": 6.088680997916667,
              "value": 0.5511811023622047
            },
            {
              "number": 7,
              "ticks": 5835,
              "time": 6.23398028125,
              "value": 0.5511811023622047
            },
            {
              "number": 7,
              "ticks": 5971,
              "time": 6.379279564583333,
              "value": 0.5511811023622047
            },
            {
              "number": 7,
              "ticks": 6106,
              "time": 6.523510470833333,
              "value": 0.5511811023622047
            },
            {
              "number": 7,
              "ticks": 6243,
              "time": 6.669878131249999,
              "value": 0.5511811023622047
            },
            {
              "number": 7,
              "ticks": 6378,
              "time": 6.8141090375,
              "value": 0.5511811023622047
            },
            {
              "number": 7,
              "ticks": 6514,
              "time": 6.959408320833333,
              "value": 0.5511811023622047
            },
            {
              "number": 7,
              "ticks": 6649,
              "time": 7.103639227083333,
              "value": 0.5511811023622047
            },
            {
              "number": 7,
              "ticks": 6785,
              "time": 7.248938510416666,
              "value": 0.5511811023622047
            },
            {
              "number": 7,
              "ticks": 6921,
              "time": 7.3942377937499995,
              "value": 0.5511811023622047
            },
            {
              "number": 7,
              "ticks": 7056,
              "time": 7.538468699999999,
              "value": 0.5511811023622047
            },
            {
              "number": 7,
              "ticks": 7193,
              "time": 7.684836360416667,
              "value": 0.5511811023622047
            },
            {
              "number": 7,
              "ticks": 7328,
              "time": 7.829067266666667,
              "value": 0.5511811023622047
            },
            {
              "number": 7,
              "ticks": 7463,
              "time": 7.9732981729166665,
              "value": 0.5511811023622047
            },
            {
              "number": 7,
              "ticks": 7599,
              "time": 8.11859745625,
              "value": 0.5511811023622047
            },
            {
              "number": 7,
              "ticks": 7735,
              "time": 8.263896739583332,
              "value": 0.5511811023622047
            },
            {
              "number": 7,
              "ticks": 7871,
              "time": 8.409196022916666,
              "value": 0.5511811023622047
            },
            {
              "number": 7,
              "ticks": 8006,
              "time": 8.553426929166667,
              "value": 0.5511811023622047
            },
            {
              "number": 7,
              "ticks": 8142,
              "time": 8.698726212499999,
              "value": 0.5511811023622047
            },
            {
              "number": 7,
              "ticks": 8278,
              "time": 8.844025495833334,
              "value": 0.5511811023622047
            },
            {
              "number": 7,
              "ticks": 8413,
              "time": 8.988256402083334,
              "value": 0.5511811023622047
            },
            {
              "number": 7,
              "ticks": 8550,
              "time": 9.1346240625,
              "value": 0.5511811023622047
            },
            {
              "number": 7,
              "ticks": 8685,
              "time": 9.27885496875,
              "value": 0.5511811023622047
            },
            {
              "number": 7,
              "ticks": 8821,
              "time": 9.424154252083333,
              "value": 0.5511811023622047
            },
            {
              "number": 7,
              "ticks": 8956,
              "time": 9.568385158333333,
              "value": 0.5511811023622047
            },
            {
              "number": 7,
              "ticks": 9092,
              "time": 9.713684441666667,
              "value": 0.5511811023622047
            },
            {
              "number": 7,
              "ticks": 9228,
              "time": 9.858983725,
              "value": 0.5511811023622047
            },
            {
              "number": 7,
              "ticks": 9363,
              "time": 10.00321463125,
              "value": 0.5511811023622047
            },
            {
              "number": 7,
              "ticks": 9500,
              "time": 10.149582291666666,
              "value": 0.5511811023622047
            },
            {
              "number": 7,
              "ticks": 9635,
              "time": 10.293813197916666,
              "value": 0.5511811023622047
            },
            {
              "number": 7,
              "ticks": 9770,
              "time": 10.438044104166666,
              "value": 0.5511811023622047
            },
            {
              "number": 7,
              "ticks": 9907,
              "time": 10.584411764583333,
              "value": 0.5511811023622047
            },
            {
              "number": 7,
              "ticks": 10042,
              "time": 10.728642670833333,
              "value": 0.5511811023622047
            },
            {
              "number": 7,
              "ticks": 10178,
              "time": 10.873941954166666,
              "value": 0.5511811023622047
            },
            {
              "number": 7,
              "ticks": 10313,
              "time": 11.018172860416666,
              "value": 0.5511811023622047
            },
            {
              "number": 7,
              "ticks": 10449,
              "time": 11.163472143749999,
              "value": 0.5511811023622047
            },
            {
              "number": 7,
              "ticks": 10585,
              "time": 11.308771427083332,
              "value": 0.5511811023622047
            },
            {
              "number": 7,
              "ticks": 10720,
              "time": 11.453002333333332,
              "value": 0.5511811023622047
            },
            {
              "number": 7,
              "ticks": 10857,
              "time": 11.599369993749999,
              "value": 0.5511811023622047
            },
            {
              "number": 7,
              "ticks": 10992,
              "time": 11.743600899999999,
              "value": 0.5511811023622047
            },
            {
              "number": 7,
              "ticks": 11127,
              "time": 11.887831806249999,
              "value": 0.5511811023622047
            },
            {
              "number": 7,
              "ticks": 11264,
              "time": 12.034199466666665,
              "value": 0.5511811023622047
            },
            {
              "number": 7,
              "ticks": 11399,
              "time": 12.178430372916665,
              "value": 0.5511811023622047
            },
            {
              "number": 7,
              "ticks": 11535,
              "time": 12.323729656249998,
              "value": 0.5511811023622047
            },
            {
              "number": 7,
              "ticks": 11670,
              "time": 12.4679605625,
              "value": 0.5511811023622047
            },
            {
              "number": 7,
              "ticks": 11807,
              "time": 12.614328222916665,
              "value": 0.5511811023622047
            },
            {
              "number": 7,
              "ticks": 11942,
              "time": 12.758559129166667,
              "value": 0.5511811023622047
            },
            {
              "number": 7,
              "ticks": 12077,
              "time": 12.902790035416666,
              "value": 0.5511811023622047
            },
            {
              "number": 7,
              "ticks": 12214,
              "time": 13.049157695833332,
              "value": 0.5511811023622047
            },
            {
              "number": 7,
              "ticks": 12349,
              "time": 13.193388602083333,
              "value": 0.5511811023622047
            },
            {
              "number": 7,
              "ticks": 12485,
              "time": 13.338687885416666,
              "value": 0.5511811023622047
            },
            {
              "number": 7,
              "ticks": 12620,
              "time": 13.482918791666666,
              "value": 0.5511811023622047
            },
            {
              "number": 7,
              "ticks": 12756,
              "time": 13.628218075,
              "value": 0.5511811023622047
            },
            {
              "number": 7,
              "ticks": 12892,
              "time": 13.773517358333333,
              "value": 0.5511811023622047
            },
            {
              "number": 7,
              "ticks": 13027,
              "time": 13.917748264583333,
              "value": 0.5511811023622047
            },
            {
              "number": 7,
              "ticks": 13164,
              "time": 14.064115925,
              "value": 0.5511811023622047
            },
            {
              "number": 7,
              "ticks": 13299,
              "time": 14.20834683125,
              "value": 0.5511811023622047
            },
            {
              "number": 7,
              "ticks": 13434,
              "time": 14.352577737499999,
              "value": 0.5511811023622047
            },
            {
              "number": 7,
              "ticks": 13571,
              "time": 14.498945397916666,
              "value": 0.5511811023622047
            },
            {
              "number": 7,
              "ticks": 13706,
              "time": 14.643176304166666,
              "value": 0.5511811023622047
            },
            {
              "number": 7,
              "ticks": 13842,
              "time": 14.788475587499999,
              "value": 0.5511811023622047
            },
            {
              "number": 7,
              "ticks": 13977,
              "time": 14.932706493749999,
              "value": 0.5511811023622047
            },
            {
              "number": 7,
              "ticks": 14114,
              "time": 15.079074154166666,
              "value": 0.5511811023622047
            },
            {
              "number": 7,
              "ticks": 14249,
              "time": 15.223305060416665,
              "value": 0.5511811023622047
            },
            {
              "number": 7,
              "ticks": 14384,
              "time": 15.367535966666665,
              "value": 0.5511811023622047
            },
            {
              "number": 7,
              "ticks": 14521,
              "time": 15.513903627083334,
              "value": 0.5511811023622047
            },
            {
              "number": 7,
              "ticks": 14656,
              "time": 15.658134533333333,
              "value": 0.5511811023622047
            },
            {
              "number": 7,
              "ticks": 14792,
              "time": 15.803433816666665,
              "value": 0.5511811023622047
            },
            {
              "number": 7,
              "ticks": 14927,
              "time": 15.947664722916665,
              "value": 0.5511811023622047
            },
            {
              "number": 7,
              "ticks": 15063,
              "time": 16.09296400625,
              "value": 0.5511811023622047
            },
            {
              "number": 7,
              "ticks": 15199,
              "time": 16.238263289583333,
              "value": 0.5511811023622047
            },
            {
              "number": 7,
              "ticks": 15334,
              "time": 16.38249419583333,
              "value": 0.5511811023622047
            },
            {
              "number": 7,
              "ticks": 15471,
              "time": 16.52886185625,
              "value": 0.5511811023622047
            },
            {
              "number": 7,
              "ticks": 15606,
              "time": 16.6730927625,
              "value": 0.5511811023622047
            },
            {
              "number": 7,
              "ticks": 15741,
              "time": 16.81732366875,
              "value": 0.5511811023622047
            },
            {
              "number": 7,
              "ticks": 15878,
              "time": 16.963691329166664,
              "value": 0.5511811023622047
            },
            {
              "number": 7,
              "ticks": 16013,
              "time": 17.107922235416666,
              "value": 0.5511811023622047
            },
            {
              "number": 7,
              "ticks": 16149,
              "time": 17.25322151875,
              "value": 0.5511811023622047
            },
            {
              "number": 7,
              "ticks": 16284,
              "time": 17.397452424999997,
              "value": 0.5511811023622047
            },
            {
              "number": 7,
              "ticks": 16420,
              "time": 17.542751708333334,
              "value": 0.5511811023622047
            },
            {
              "number": 7,
              "ticks": 16556,
              "time": 17.688050991666667,
              "value": 0.5511811023622047
            },
            {
              "number": 7,
              "ticks": 16691,
              "time": 17.832281897916666,
              "value": 0.5511811023622047
            },
            {
              "number": 7,
              "ticks": 16828,
              "time": 17.97864955833333,
              "value": 0.5511811023622047
            },
            {
              "number": 7,
              "ticks": 16963,
              "time": 18.122880464583332,
              "value": 0.5511811023622047
            },
            {
              "number": 7,
              "ticks": 17099,
              "time": 18.268179747916665,
              "value": 0.5511811023622047
            },
            {
              "number": 7,
              "ticks": 17234,
              "time": 18.412410654166667,
              "value": 0.5511811023622047
            },
            {
              "number": 7,
              "ticks": 17370,
              "time": 18.5577099375,
              "value": 0.5511811023622047
            },
            {
              "number": 7,
              "ticks": 17506,
              "time": 18.70300922083333,
              "value": 0.5511811023622047
            },
            {
              "number": 7,
              "ticks": 17641,
              "time": 18.84724012708333,
              "value": 0.5511811023622047
            },
            {
              "number": 7,
              "ticks": 17778,
              "time": 18.9936077875,
              "value": 0.5511811023622047
            },
            {
              "number": 7,
              "ticks": 17913,
              "time": 19.13783869375,
              "value": 0.5511811023622047
            },
            {
              "number": 7,
              "ticks": 18048,
              "time": 19.2820696,
              "value": 0.5511811023622047
            },
            {
              "number": 7,
              "ticks": 18185,
              "time": 19.428437260416665,
              "value": 0.5511811023622047
            },
            {
              "number": 7,
              "ticks": 18320,
              "time": 19.572668166666663,
              "value": 0.5511811023622047
            },
            {
              "number": 7,
              "ticks": 18456,
              "time": 19.71796745,
              "value": 0.5511811023622047
            },
            {
              "number": 7,
              "ticks": 18591,
              "time": 19.86219835625,
              "value": 0.5511811023622047
            },
            {
              "number": 7,
              "ticks": 18727,
              "time": 20.00749763958333,
              "value": 0.5511811023622047
            },
            {
              "number": 7,
              "ticks": 18863,
              "time": 20.152796922916664,
              "value": 0.5511811023622047
            },
            {
              "number": 7,
              "ticks": 18998,
              "time": 20.297027829166666,
              "value": 0.5511811023622047
            },
            {
              "number": 7,
              "ticks": 19135,
              "time": 20.443395489583335,
              "value": 0.5511811023622047
            },
            {
              "number": 7,
              "ticks": 19270,
              "time": 20.587626395833333,
              "value": 0.5511811023622047
            },
            {
              "number": 7,
              "ticks": 19406,
              "time": 20.732925679166666,
              "value": 0.5511811023622047
            },
            {
              "number": 7,
              "ticks": 19541,
              "time": 20.877156585416667,
              "value": 0.5511811023622047
            },
            {
              "number": 7,
              "ticks": 19677,
              "time": 21.022455868749997,
              "value": 0.5511811023622047
            },
            {
              "number": 7,
              "ticks": 19813,
              "time": 21.16775515208333,
              "value": 0.5511811023622047
            },
            {
              "number": 7,
              "ticks": 19948,
              "time": 21.311986058333332,
              "value": 0.5511811023622047
            },
            {
              "number": 7,
              "ticks": 20085,
              "time": 21.458353718749997,
              "value": 0.5511811023622047
            },
            {
              "number": 7,
              "ticks": 20220,
              "time": 21.602584625,
              "value": 0.5511811023622047
            },
            {
              "number": 7,
              "ticks": 20355,
              "time": 21.74681553125,
              "value": 0.5511811023622047
            },
            {
              "number": 7,
              "ticks": 20492,
              "time": 21.89318319166667,
              "value": 0.5511811023622047
            },
            {
              "number": 7,
              "ticks": 20627,
              "time": 22.037414097916667,
              "value": 0.5511811023622047
            },
            {
              "number": 7,
              "ticks": 20763,
              "time": 22.18271338125,
              "value": 0.5511811023622047
            },
            {
              "number": 7,
              "ticks": 20898,
              "time": 22.326944287499998,
              "value": 0.5511811023622047
            },
            {
              "number": 7,
              "ticks": 21034,
              "time": 22.47224357083333,
              "value": 0.5511811023622047
            },
            {
              "number": 7,
              "ticks": 21170,
              "time": 22.617542854166665,
              "value": 0.5511811023622047
            },
            {
              "number": 7,
              "ticks": 21305,
              "time": 22.761773760416663,
              "value": 0.5511811023622047
            },
            {
              "number": 7,
              "ticks": 21442,
              "time": 22.90814142083333,
              "value": 0.5511811023622047
            },
            {
              "number": 7,
              "ticks": 21577,
              "time": 23.052372327083333,
              "value": 0.5511811023622047
            },
            {
              "number": 7,
              "ticks": 21712,
              "time": 23.19660323333333,
              "value": 0.5511811023622047
            },
            {
              "number": 7,
              "ticks": 21849,
              "time": 23.342970893749996,
              "value": 0.5511811023622047
            },
            {
              "number": 7,
              "ticks": 21984,
              "time": 23.487201799999998,
              "value": 0.5511811023622047
            },
            {
              "number": 7,
              "ticks": 22120,
              "time": 23.632501083333334,
              "value": 0.5511811023622047
            },
            {
              "number": 7,
              "ticks": 22255,
              "time": 23.776731989583332,
              "value": 0.5511811023622047
            },
            {
              "number": 7,
              "ticks": 22392,
              "time": 23.923099649999997,
              "value": 0.5511811023622047
            },
            {
              "number": 7,
              "ticks": 22527,
              "time": 24.06733055625,
              "value": 0.5511811023622047
            },
            {
              "number": 7,
              "ticks": 22662,
              "time": 24.211561462499997,
              "value": 0.5511811023622047
            },
            {
              "number": 7,
              "ticks": 22799,
              "time": 24.357929122916666,
              "value": 0.5511811023622047
            },
            {
              "number": 7,
              "ticks": 22934,
              "time": 24.502160029166667,
              "value": 0.5511811023622047
            },
            {
              "number": 7,
              "ticks": 23070,
              "time": 24.647459312499997,
              "value": 0.5511811023622047
            },
            {
              "number": 7,
              "ticks": 23205,
              "time": 24.79169021875,
              "value": 0.5511811023622047
            },
            {
              "number": 7,
              "ticks": 23341,
              "time": 24.936989502083332,
              "value": 0.5511811023622047
            },
            {
              "number": 7,
              "ticks": 23477,
              "time": 25.08228878541667,
              "value": 0.5511811023622047
            },
            {
              "number": 7,
              "ticks": 23612,
              "time": 25.226519691666667,
              "value": 0.5511811023622047
            },
            {
              "number": 7,
              "ticks": 23749,
              "time": 25.372887352083332,
              "value": 0.5511811023622047
            },
            {
              "number": 7,
              "ticks": 23884,
              "time": 25.517118258333333,
              "value": 0.5511811023622047
            },
            {
              "number": 7,
              "ticks": 24019,
              "time": 25.66134916458333,
              "value": 0.5511811023622047
            },
            {
              "number": 7,
              "ticks": 24156,
              "time": 25.807716825,
              "value": 0.5511811023622047
            },
            {
              "number": 7,
              "ticks": 24291,
              "time": 25.95194773125,
              "value": 0.5511811023622047
            },
            {
              "number": 7,
              "ticks": 24427,
              "time": 26.09724701458333,
              "value": 0.5511811023622047
            },
            {
              "number": 7,
              "ticks": 24562,
              "time": 26.241477920833333,
              "value": 0.5511811023622047
            },
            {
              "number": 7,
              "ticks": 24699,
              "time": 26.387845581249998,
              "value": 0.5511811023622047
            },
            {
              "number": 7,
              "ticks": 24834,
              "time": 26.532076487499996,
              "value": 0.5511811023622047
            },
            {
              "number": 7,
              "ticks": 24969,
              "time": 26.676307393749997,
              "value": 0.5511811023622047
            },
            {
              "number": 7,
              "ticks": 25106,
              "time": 26.822675054166666,
              "value": 0.5511811023622047
            },
            {
              "number": 7,
              "ticks": 25241,
              "time": 26.966905960416664,
              "value": 0.5511811023622047
            },
            {
              "number": 7,
              "ticks": 25377,
              "time": 27.112205243749997,
              "value": 0.5511811023622047
            },
            {
              "number": 7,
              "ticks": 25512,
              "time": 27.25643615,
              "value": 0.5511811023622047
            },
            {
              "number": 7,
              "ticks": 25648,
              "time": 27.40173543333333,
              "value": 0.5511811023622047
            },
            {
              "number": 7,
              "ticks": 25784,
              "time": 27.547034716666666,
              "value": 0.5511811023622047
            },
            {
              "number": 7,
              "ticks": 25919,
              "time": 27.691265622916667,
              "value": 0.5511811023622047
            },
            {
              "number": 7,
              "ticks": 26056,
              "time": 27.837633283333332,
              "value": 0.5511811023622047
            },
            {
              "number": 7,
              "ticks": 26191,
              "time": 27.98186418958333,
              "value": 0.5511811023622047
            },
            {
              "number": 7,
              "ticks": 26326,
              "time": 28.126095095833332,
              "value": 0.5511811023622047
            },
            {
              "number": 7,
              "ticks": 26463,
              "time": 28.27246275625,
              "value": 0.5511811023622047
            },
            {
              "number": 7,
              "ticks": 26598,
              "time": 28.4166936625,
              "value": 0.5511811023622047
            },
            {
              "number": 7,
              "ticks": 26734,
              "time": 28.56199294583333,
              "value": 0.5511811023622047
            },
            {
              "number": 7,
              "ticks": 26869,
              "time": 28.70622385208333,
              "value": 0.5511811023622047
            },
            {
              "number": 7,
              "ticks": 27005,
              "time": 28.851523135416663,
              "value": 0.5511811023622047
            },
            {
              "number": 7,
              "ticks": 27141,
              "time": 28.99682241875,
              "value": 0.5511811023622047
            },
            {
              "number": 7,
              "ticks": 27276,
              "time": 29.141053325,
              "value": 0.5511811023622047
            },
            {
              "number": 7,
              "ticks": 27413,
              "time": 29.287420985416663,
              "value": 0.5511811023622047
            },
            {
              "number": 7,
              "ticks": 27548,
              "time": 29.431651891666665,
              "value": 0.5511811023622047
            },
            {
              "number": 7,
              "ticks": 27684,
              "time": 29.576951174999998,
              "value": 0.5511811023622047
            },
            {
              "number": 7,
              "ticks": 27819,
              "time": 29.721182081249996,
              "value": 0.5511811023622047
            },
            {
              "number": 7,
              "ticks": 27955,
              "time": 29.866481364583333,
              "value": 0.5511811023622047
            },
            {
              "number": 7,
              "ticks": 28091,
              "time": 30.011780647916666,
              "value": 0.5511811023622047
            },
            {
              "number": 7,
              "ticks": 28226,
              "time": 30.156011554166664,
              "value": 0.5511811023622047
            },
            {
              "number": 7,
              "ticks": 28362,
              "time": 30.301310837499997,
              "value": 0.5511811023622047
            },
            {
              "number": 7,
              "ticks": 28498,
              "time": 30.44661012083333,
              "value": 0.5511811023622047
            },
            {
              "number": 7,
              "ticks": 28633,
              "time": 30.59084102708333,
              "value": 0.5511811023622047
            },
            {
              "number": 7,
              "ticks": 28770,
              "time": 30.737208687499997,
              "value": 0.5511811023622047
            },
            {
              "number": 7,
              "ticks": 28905,
              "time": 30.88143959375,
              "value": 0.5511811023622047
            },
            {
              "number": 7,
              "ticks": 29041,
              "time": 31.026738877083332,
              "value": 0.5511811023622047
            },
            {
              "number": 7,
              "ticks": 29176,
              "time": 31.17096978333333,
              "value": 0.5511811023622047
            },
            {
              "number": 7,
              "ticks": 29312,
              "time": 31.316269066666667,
              "value": 0.5511811023622047
            },
            {
              "number": 7,
              "ticks": 29448,
              "time": 31.46156835,
              "value": 0.5511811023622047
            },
            {
              "number": 7,
              "ticks": 29583,
              "time": 31.60579925625,
              "value": 0.5511811023622047
            },
            {
              "number": 7,
              "ticks": 29720,
              "time": 31.752166916666663,
              "value": 0.5511811023622047
            },
            {
              "number": 7,
              "ticks": 29855,
              "time": 31.896397822916665,
              "value": 0.5511811023622047
            },
            {
              "number": 7,
              "ticks": 29991,
              "time": 32.04169710625,
              "value": 0.5511811023622047
            },
            {
              "number": 7,
              "ticks": 30126,
              "time": 32.1859280125,
              "value": 0.5511811023622047
            },
            {
              "number": 7,
              "ticks": 30262,
              "time": 32.33122729583333,
              "value": 0.5511811023622047
            },
            {
              "number": 7,
              "ticks": 30398,
              "time": 32.476526579166666,
              "value": 0.5511811023622047
            },
            {
              "number": 7,
              "ticks": 30533,
              "time": 32.62075748541666,
              "value": 0.5511811023622047
            },
            {
              "number": 7,
              "ticks": 30670,
              "time": 32.76712514583333,
              "value": 0.5511811023622047
            },
            {
              "number": 7,
              "ticks": 30805,
              "time": 32.91135605208333,
              "value": 0.5511811023622047
            },
            {
              "number": 7,
              "ticks": 30940,
              "time": 33.05558695833333,
              "value": 0.5511811023622047
            },
            {
              "number": 7,
              "ticks": 31077,
              "time": 33.20195461875,
              "value": 0.5511811023622047
            },
            {
              "number": 7,
              "ticks": 31212,
              "time": 33.346185525,
              "value": 0.5511811023622047
            },
            {
              "number": 7,
              "ticks": 31348,
              "time": 33.49148480833333,
              "value": 0.5511811023622047
            },
            {
              "number": 7,
              "ticks": 31483,
              "time": 33.635715714583334,
              "value": 0.5511811023622047
            },
            {
              "number": 7,
              "ticks": 31619,
              "time": 33.781014997916664,
              "value": 0.5511811023622047
            },
            {
              "number": 7,
              "ticks": 31755,
              "time": 33.92631428125,
              "value": 0.5511811023622047
            },
            {
              "number": 7,
              "ticks": 31890,
              "time": 34.070545187499995,
              "value": 0.5511811023622047
            },
            {
              "number": 7,
              "ticks": 32027,
              "time": 34.21691284791666,
              "value": 0.5511811023622047
            },
            {
              "number": 7,
              "ticks": 32162,
              "time": 34.36114375416666,
              "value": 0.5511811023622047
            },
            {
              "number": 7,
              "ticks": 32297,
              "time": 34.50537466041666,
              "value": 0.5511811023622047
            },
            {
              "number": 7,
              "ticks": 32434,
              "time": 34.651742320833335,
              "value": 0.5511811023622047
            },
            {
              "number": 7,
              "ticks": 32569,
              "time": 34.79597322708334,
              "value": 0.5511811023622047
            },
            {
              "number": 7,
              "ticks": 32705,
              "time": 34.94127251041667,
              "value": 0.5511811023622047
            },
            {
              "number": 7,
              "ticks": 32840,
              "time": 35.08550341666667,
              "value": 0.5511811023622047
            },
            {
              "number": 7,
              "ticks": 32977,
              "time": 35.23187107708333,
              "value": 0.5511811023622047
            },
            {
              "number": 7,
              "ticks": 33112,
              "time": 35.376101983333335,
              "value": 0.5511811023622047
            },
            {
              "number": 7,
              "ticks": 33247,
              "time": 35.52033288958333,
              "value": 0.5511811023622047
            },
            {
              "number": 7,
              "ticks": 33384,
              "time": 35.666700549999995,
              "value": 0.5511811023622047
            },
            {
              "number": 7,
              "ticks": 33519,
              "time": 35.810931456249996,
              "value": 0.5511811023622047
            },
            {
              "number": 7,
              "ticks": 33655,
              "time": 35.956230739583326,
              "value": 0.5511811023622047
            },
            {
              "number": 7,
              "ticks": 33790,
              "time": 36.10046164583333,
              "value": 0.5511811023622047
            },
            {
              "number": 7,
              "ticks": 33926,
              "time": 36.245760929166664,
              "value": 0.5511811023622047
            },
            {
              "number": 7,
              "ticks": 34062,
              "time": 36.3910602125,
              "value": 0.5511811023622047
            },
            {
              "number": 7,
              "ticks": 34197,
              "time": 36.53529111875,
              "value": 0.5511811023622047
            },
            {
              "number": 7,
              "ticks": 34334,
              "time": 36.68165877916667,
              "value": 0.5511811023622047
            },
            {
              "number": 7,
              "ticks": 34469,
              "time": 36.82588968541666,
              "value": 0.5511811023622047
            },
            {
              "number": 7,
              "ticks": 34604,
              "time": 36.970120591666664,
              "value": 0.5511811023622047
            },
            {
              "number": 7,
              "ticks": 34741,
              "time": 37.11648825208333,
              "value": 0.5511811023622047
            },
            {
              "number": 7,
              "ticks": 34876,
              "time": 37.26071915833333,
              "value": 0.5511811023622047
            },
            {
              "number": 7,
              "ticks": 35012,
              "time": 37.40601844166666,
              "value": 0.5511811023622047
            },
            {
              "number": 7,
              "ticks": 35147,
              "time": 37.55024934791666,
              "value": 0.5511811023622047
            },
            {
              "number": 7,
              "ticks": 35283,
              "time": 37.69554863124999,
              "value": 0.5590551181102362
            },
            {
              "number": 7,
              "ticks": 35419,
              "time": 37.840847914583335,
              "value": 0.5590551181102362
            },
            {
              "number": 7,
              "ticks": 35554,
              "time": 37.98507882083334,
              "value": 0.5590551181102362
            },
            {
              "number": 7,
              "ticks": 35691,
              "time": 38.13144648125,
              "value": 0.5590551181102362
            },
            {
              "number": 7,
              "ticks": 35826,
              "time": 38.2756773875,
              "value": 0.5590551181102362
            },
            {
              "number": 7,
              "ticks": 35962,
              "time": 38.42097667083333,
              "value": 0.5590551181102362
            },
            {
              "number": 7,
              "ticks": 36097,
              "time": 38.565207577083335,
              "value": 0.5590551181102362
            },
            {
              "number": 7,
              "ticks": 36233,
              "time": 38.710506860416665,
              "value": 0.5590551181102362
            },
            {
              "number": 7,
              "ticks": 36369,
              "time": 38.855806143749994,
              "value": 0.5590551181102362
            },
            {
              "number": 7,
              "ticks": 36504,
              "time": 39.000037049999996,
              "value": 0.5590551181102362
            },
            {
              "number": 7,
              "ticks": 36641,
              "time": 39.14640471041666,
              "value": 0.5590551181102362
            },
            {
              "number": 7,
              "ticks": 36776,
              "time": 39.29063561666666,
              "value": 0.5590551181102362
            },
            {
              "number": 7,
              "ticks": 36911,
              "time": 39.434866522916664,
              "value": 0.5590551181102362
            },
            {
              "number": 7,
              "ticks": 37048,
              "time": 39.581234183333336,
              "value": 0.5590551181102362
            },
            {
              "number": 7,
              "ticks": 37183,
              "time": 39.72546508958333,
              "value": 0.5590551181102362
            },
            {
              "number": 7,
              "ticks": 37319,
              "time": 39.87076437291667,
              "value": 0.5590551181102362
            },
            {
              "number": 7,
              "ticks": 37454,
              "time": 40.01499527916666,
              "value": 0.5590551181102362
            },
            {
              "number": 7,
              "ticks": 37590,
              "time": 40.1602945625,
              "value": 0.5590551181102362
            },
            {
              "number": 7,
              "ticks": 37726,
              "time": 40.30559384583333,
              "value": 0.5590551181102362
            },
            {
              "number": 7,
              "ticks": 37861,
              "time": 40.44982475208333,
              "value": 0.5590551181102362
            },
            {
              "number": 7,
              "ticks": 37998,
              "time": 40.596192412499995,
              "value": 0.5590551181102362
            },
            {
              "number": 7,
              "ticks": 38133,
              "time": 40.74042331875,
              "value": 0.5590551181102362
            },
            {
              "number": 7,
              "ticks": 38269,
              "time": 40.885722602083334,
              "value": 0.5590551181102362
            },
            {
              "number": 7,
              "ticks": 38404,
              "time": 41.029953508333335,
              "value": 0.5590551181102362
            },
            {
              "number": 7,
              "ticks": 38540,
              "time": 41.175252791666665,
              "value": 0.5590551181102362
            },
            {
              "number": 7,
              "ticks": 38676,
              "time": 41.320552075,
              "value": 0.5590551181102362
            },
            {
              "number": 7,
              "ticks": 38811,
              "time": 41.464782981249996,
              "value": 0.5590551181102362
            },
            {
              "number": 7,
              "ticks": 38948,
              "time": 41.61115064166666,
              "value": 0.5590551181102362
            },
            {
              "number": 7,
              "ticks": 39083,
              "time": 41.75538154791666,
              "value": 0.5590551181102362
            },
            {
              "number": 7,
              "ticks": 39218,
              "time": 41.899612454166665,
              "value": 0.5590551181102362
            },
            {
              "number": 7,
              "ticks": 39355,
              "time": 42.04598011458333,
              "value": 0.5590551181102362
            },
            {
              "number": 7,
              "ticks": 39490,
              "time": 42.19021102083333,
              "value": 0.5590551181102362
            },
            {
              "number": 7,
              "ticks": 39626,
              "time": 42.33551030416666,
              "value": 0.5590551181102362
            },
            {
              "number": 7,
              "ticks": 39761,
              "time": 42.47974121041666,
              "value": 0.5590551181102362
            },
            {
              "number": 7,
              "ticks": 39897,
              "time": 42.62504049375,
              "value": 0.5590551181102362
            },
            {
              "number": 7,
              "ticks": 40033,
              "time": 42.770339777083336,
              "value": 0.5590551181102362
            },
            {
              "number": 7,
              "ticks": 40168,
              "time": 42.91457068333333,
              "value": 0.5590551181102362
            },
            {
              "number": 7,
              "ticks": 40305,
              "time": 43.060938343749996,
              "value": 0.5590551181102362
            },
            {
              "number": 7,
              "ticks": 40440,
              "time": 43.20516925,
              "value": 0.5590551181102362
            },
            {
              "number": 7,
              "ticks": 40575,
              "time": 43.34940015625,
              "value": 0.5590551181102362
            },
            {
              "number": 7,
              "ticks": 40712,
              "time": 43.495767816666664,
              "value": 0.5590551181102362
            },
            {
              "number": 7,
              "ticks": 40847,
              "time": 43.639998722916665,
              "value": 0.5590551181102362
            },
            {
              "number": 7,
              "ticks": 40983,
              "time": 43.785298006249995,
              "value": 0.5590551181102362
            },
            {
              "number": 7,
              "ticks": 41118,
              "time": 43.9295289125,
              "value": 0.5590551181102362
            },
            {
              "number": 7,
              "ticks": 41255,
              "time": 44.07589657291667,
              "value": 0.5590551181102362
            },
            {
              "number": 7,
              "ticks": 41390,
              "time": 44.22012747916666,
              "value": 0.5590551181102362
            },
            {
              "number": 7,
              "ticks": 41525,
              "time": 44.364358385416665,
              "value": 0.5590551181102362
            },
            {
              "number": 7,
              "ticks": 41662,
              "time": 44.51072604583333,
              "value": 0.5590551181102362
            },
            {
              "number": 7,
              "ticks": 41797,
              "time": 44.65495695208333,
              "value": 0.5590551181102362
            },
            {
              "number": 7,
              "ticks": 41933,
              "time": 44.80025623541666,
              "value": 0.5590551181102362
            },
            {
              "number": 7,
              "ticks": 42068,
              "time": 44.94448714166666,
              "value": 0.5590551181102362
            },
            {
              "number": 7,
              "ticks": 42204,
              "time": 45.08978642499999,
              "value": 0.5590551181102362
            },
            {
              "number": 7,
              "ticks": 42340,
              "time": 45.23508570833333,
              "value": 0.5590551181102362
            },
            {
              "number": 7,
              "ticks": 42475,
              "time": 45.37931661458333,
              "value": 0.5590551181102362
            },
            {
              "number": 7,
              "ticks": 42612,
              "time": 45.525684275,
              "value": 0.5590551181102362
            },
            {
              "number": 7,
              "ticks": 42747,
              "time": 45.66991518125,
              "value": 0.5590551181102362
            },
            {
              "number": 7,
              "ticks": 42882,
              "time": 45.8141460875,
              "value": 0.5590551181102362
            },
            {
              "number": 7,
              "ticks": 43019,
              "time": 45.960513747916664,
              "value": 0.5590551181102362
            },
            {
              "number": 7,
              "ticks": 43154,
              "time": 46.104744654166666,
              "value": 0.5590551181102362
            },
            {
              "number": 7,
              "ticks": 43290,
              "time": 46.250043937499996,
              "value": 0.5590551181102362
            },
            {
              "number": 7,
              "ticks": 43425,
              "time": 46.39427484375,
              "value": 0.5590551181102362
            },
            {
              "number": 7,
              "ticks": 43562,
              "time": 46.54064250416666,
              "value": 0.5590551181102362
            },
            {
              "number": 7,
              "ticks": 43697,
              "time": 46.684873410416664,
              "value": 0.5590551181102362
            },
            {
              "number": 7,
              "ticks": 43832,
              "time": 46.829104316666665,
              "value": 0.5590551181102362
            },
            {
              "number": 7,
              "ticks": 43968,
              "time": 46.974403599999995,
              "value": 0.5590551181102362
            },
            {
              "number": 7,
              "ticks": 44104,
              "time": 47.11970288333333,
              "value": 0.5590551181102362
            },
            {
              "number": 7,
              "ticks": 44240,
              "time": 47.26500216666667,
              "value": 0.5590551181102362
            },
            {
              "number": 7,
              "ticks": 44375,
              "time": 47.40923307291666,
              "value": 0.5590551181102362
            },
            {
              "number": 7,
              "ticks": 44511,
              "time": 47.55453235625,
              "value": 0.5590551181102362
            },
            {
              "number": 7,
              "ticks": 44647,
              "time": 47.69983163958333,
              "value": 0.5590551181102362
            },
            {
              "number": 7,
              "ticks": 44782,
              "time": 47.84406254583333,
              "value": 0.5590551181102362
            },
            {
              "number": 7,
              "ticks": 44919,
              "time": 47.99043020625,
              "value": 0.5590551181102362
            },
            {
              "number": 7,
              "ticks": 45054,
              "time": 48.1346611125,
              "value": 0.5590551181102362
            },
            {
              "number": 7,
              "ticks": 45189,
              "time": 48.27889201874999,
              "value": 0.5590551181102362
            },
            {
              "number": 7,
              "ticks": 45326,
              "time": 48.42525967916666,
              "value": 0.5590551181102362
            },
            {
              "number": 7,
              "ticks": 45461,
              "time": 48.56949058541666,
              "value": 0.5590551181102362
            },
            {
              "number": 7,
              "ticks": 45597,
              "time": 48.71478986875,
              "value": 0.5590551181102362
            },
            {
              "number": 7,
              "ticks": 45732,
              "time": 48.859020775,
              "value": 0.5590551181102362
            },
            {
              "number": 7,
              "ticks": 45868,
              "time": 49.004320058333334,
              "value": 0.5590551181102362
            },
            {
              "number": 7,
              "ticks": 46004,
              "time": 49.149619341666664,
              "value": 0.5590551181102362
            },
            {
              "number": 7,
              "ticks": 46139,
              "time": 49.293850247916666,
              "value": 0.5590551181102362
            },
            {
              "number": 7,
              "ticks": 46276,
              "time": 49.44021790833333,
              "value": 0.5590551181102362
            },
            {
              "number": 7,
              "ticks": 46411,
              "time": 49.58444881458333,
              "value": 0.5590551181102362
            },
            {
              "number": 7,
              "ticks": 46547,
              "time": 49.72974809791666,
              "value": 0.5590551181102362
            },
            {
              "number": 7,
              "ticks": 46682,
              "time": 49.873979004166664,
              "value": 0.5590551181102362
            },
            {
              "number": 7,
              "ticks": 46818,
              "time": 50.01927828749999,
              "value": 0.5590551181102362
            },
            {
              "number": 7,
              "ticks": 46954,
              "time": 50.16457757083334,
              "value": 0.5590551181102362
            },
            {
              "number": 7,
              "ticks": 47089,
              "time": 50.30880847708333,
              "value": 0.5590551181102362
            },
            {
              "number": 7,
              "ticks": 47226,
              "time": 50.4551761375,
              "value": 0.5590551181102362
            },
            {
              "number": 7,
              "ticks": 47361,
              "time": 50.59940704375,
              "value": 0.5590551181102362
            },
            {
              "number": 7,
              "ticks": 47496,
              "time": 50.74363795,
              "value": 0.5590551181102362
            },
            {
              "number": 7,
              "ticks": 47633,
              "time": 50.890005610416665,
              "value": 0.5590551181102362
            },
            {
              "number": 7,
              "ticks": 47768,
              "time": 51.03423651666667,
              "value": 0.5590551181102362
            },
            {
              "number": 7,
              "ticks": 47904,
              "time": 51.1795358,
              "value": 0.5590551181102362
            },
            {
              "number": 7,
              "ticks": 48039,
              "time": 51.32376670625,
              "value": 0.5590551181102362
            },
            {
              "number": 7,
              "ticks": 48175,
              "time": 51.46906598958333,
              "value": 0.5590551181102362
            },
            {
              "number": 7,
              "ticks": 48311,
              "time": 51.61436527291666,
              "value": 0.5590551181102362
            },
            {
              "number": 7,
              "ticks": 48446,
              "time": 51.75859617916666,
              "value": 0.5590551181102362
            },
            {
              "number": 7,
              "ticks": 48583,
              "time": 51.90496383958333,
              "value": 0.5590551181102362
            },
            {
              "number": 7,
              "ticks": 48718,
              "time": 52.04919474583333,
              "value": 0.5590551181102362
            },
            {
              "number": 7,
              "ticks": 48854,
              "time": 52.19449402916666,
              "value": 0.5590551181102362
            },
            {
              "number": 7,
              "ticks": 48989,
              "time": 52.338724935416664,
              "value": 0.5590551181102362
            },
            {
              "number": 7,
              "ticks": 49125,
              "time": 52.484024218749994,
              "value": 0.5590551181102362
            },
            {
              "number": 7,
              "ticks": 49261,
              "time": 52.62932350208333,
              "value": 0.5590551181102362
            },
            {
              "number": 7,
              "ticks": 49396,
              "time": 52.77355440833333,
              "value": 0.5590551181102362
            },
            {
              "number": 7,
              "ticks": 49533,
              "time": 52.91992206875,
              "value": 0.5590551181102362
            },
            {
              "number": 7,
              "ticks": 49668,
              "time": 53.06415297499999,
              "value": 0.5590551181102362
            },
            {
              "number": 7,
              "ticks": 49803,
              "time": 53.20838388124999,
              "value": 0.5590551181102362
            },
            {
              "number": 7,
              "ticks": 49940,
              "time": 53.354751541666666,
              "value": 0.5590551181102362
            },
            {
              "number": 7,
              "ticks": 50075,
              "time": 53.49898244791667,
              "value": 0.5590551181102362
            },
            {
              "number": 7,
              "ticks": 50211,
              "time": 53.64428173125,
              "value": 0.5590551181102362
            },
            {
              "number": 7,
              "ticks": 50346,
              "time": 53.7885126375,
              "value": 0.5590551181102362
            },
            {
              "number": 7,
              "ticks": 50482,
              "time": 53.93381192083333,
              "value": 0.5590551181102362
            },
            {
              "number": 7,
              "ticks": 50618,
              "time": 54.079111204166665,
              "value": 0.5590551181102362
            },
            {
              "number": 7,
              "ticks": 50753,
              "time": 54.22334211041667,
              "value": 0.5590551181102362
            },
            {
              "number": 7,
              "ticks": 50890,
              "time": 54.369709770833325,
              "value": 0.5590551181102362
            },
            {
              "number": 7,
              "ticks": 51025,
              "time": 54.513940677083326,
              "value": 0.5590551181102362
            },
            {
              "number": 7,
              "ticks": 51160,
              "time": 54.65817158333333,
              "value": 0.5590551181102362
            },
            {
              "number": 7,
              "ticks": 51297,
              "time": 54.80453924375,
              "value": 0.5590551181102362
            },
            {
              "number": 7,
              "ticks": 51432,
              "time": 54.94877015,
              "value": 0.5590551181102362
            },
            {
              "number": 7,
              "ticks": 51568,
              "time": 55.09406943333333,
              "value": 0.5590551181102362
            },
            {
              "number": 7,
              "ticks": 51703,
              "time": 55.23830033958333,
              "value": 0.5590551181102362
            },
            {
              "number": 7,
              "ticks": 51840,
              "time": 55.384668,
              "value": 0.5590551181102362
            },
            {
              "number": 7,
              "ticks": 51975,
              "time": 55.52889890625,
              "value": 0.5590551181102362
            },
            {
              "number": 7,
              "ticks": 52110,
              "time": 55.673129812499994,
              "value": 0.5590551181102362
            },
            {
              "number": 7,
              "ticks": 52247,
              "time": 55.81949747291666,
              "value": 0.5590551181102362
            },
            {
              "number": 7,
              "ticks": 52382,
              "time": 55.96372837916666,
              "value": 0.5590551181102362
            },
            {
              "number": 7,
              "ticks": 52518,
              "time": 56.1090276625,
              "value": 0.5590551181102362
            },
            {
              "number": 7,
              "ticks": 52653,
              "time": 56.25325856874999,
              "value": 0.5590551181102362
            },
            {
              "number": 7,
              "ticks": 52789,
              "time": 56.398557852083336,
              "value": 0.5590551181102362
            },
            {
              "number": 7,
              "ticks": 52925,
              "time": 56.543857135416665,
              "value": 0.5590551181102362
            },
            {
              "number": 7,
              "ticks": 53060,
              "time": 56.68808804166667,
              "value": 0.5590551181102362
            },
            {
              "number": 7,
              "ticks": 53197,
              "time": 56.83445570208333,
              "value": 0.5590551181102362
            },
            {
              "number": 7,
              "ticks": 53332,
              "time": 56.978686608333334,
              "value": 0.5590551181102362
            },
            {
              "number": 7,
              "ticks": 53467,
              "time": 57.12291751458333,
              "value": 0.5590551181102362
            },
            {
              "number": 7,
              "ticks": 53604,
              "time": 57.26928517499999,
              "value": 0.5590551181102362
            },
            {
              "number": 7,
              "ticks": 53739,
              "time": 57.413516081249995,
              "value": 0.5590551181102362
            },
            {
              "number": 7,
              "ticks": 53875,
              "time": 57.558815364583324,
              "value": 0.5590551181102362
            },
            {
              "number": 7,
              "ticks": 54010,
              "time": 57.703046270833326,
              "value": 0.5590551181102362
            },
            {
              "number": 7,
              "ticks": 54147,
              "time": 57.84941393125,
              "value": 0.5590551181102362
            },
            {
              "number": 7,
              "ticks": 54282,
              "time": 57.9936448375,
              "value": 0.5590551181102362
            },
            {
              "number": 7,
              "ticks": 54417,
              "time": 58.13787574375,
              "value": 0.5590551181102362
            },
            {
              "number": 7,
              "ticks": 54554,
              "time": 58.284243404166666,
              "value": 0.5590551181102362
            },
            {
              "number": 7,
              "ticks": 54689,
              "time": 58.42847431041666,
              "value": 0.5590551181102362
            },
            {
              "number": 7,
              "ticks": 54825,
              "time": 58.57377359375,
              "value": 0.5590551181102362
            },
            {
              "number": 7,
              "ticks": 54960,
              "time": 58.7180045,
              "value": 0.5590551181102362
            },
            {
              "number": 7,
              "ticks": 55096,
              "time": 58.86330378333333,
              "value": 0.5590551181102362
            },
            {
              "number": 7,
              "ticks": 55232,
              "time": 59.00860306666666,
              "value": 0.5590551181102362
            },
            {
              "number": 7,
              "ticks": 55367,
              "time": 59.15283397291666,
              "value": 0.5590551181102362
            },
            {
              "number": 7,
              "ticks": 55504,
              "time": 59.29920163333333,
              "value": 0.5590551181102362
            },
            {
              "number": 7,
              "ticks": 55639,
              "time": 59.443432539583334,
              "value": 0.5590551181102362
            },
            {
              "number": 7,
              "ticks": 55774,
              "time": 59.587663445833336,
              "value": 0.5590551181102362
            },
            {
              "number": 7,
              "ticks": 55911,
              "time": 59.73403110625,
              "value": 0.5590551181102362
            },
            {
              "number": 7,
              "ticks": 56046,
              "time": 59.878262012499995,
              "value": 0.5590551181102362
            },
            {
              "number": 7,
              "ticks": 56182,
              "time": 60.02356129583333,
              "value": 0.5590551181102362
            },
            {
              "number": 7,
              "ticks": 56317,
              "time": 60.167792202083334,
              "value": 0.5590551181102362
            },
            {
              "number": 7,
              "ticks": 56453,
              "time": 60.31309148541666,
              "value": 0.5590551181102362
            },
            {
              "number": 7,
              "ticks": 56589,
              "time": 60.45839076874999,
              "value": 0.5590551181102362
            },
            {
              "number": 7,
              "ticks": 56724,
              "time": 60.602621674999995,
              "value": 0.5590551181102362
            },
            {
              "number": 7,
              "ticks": 56861,
              "time": 60.74898933541666,
              "value": 0.5590551181102362
            },
            {
              "number": 7,
              "ticks": 56996,
              "time": 60.89322024166666,
              "value": 0.5590551181102362
            },
            {
              "number": 7,
              "ticks": 57132,
              "time": 61.038519525,
              "value": 0.5590551181102362
            },
            {
              "number": 7,
              "ticks": 57267,
              "time": 61.18275043125,
              "value": 0.5590551181102362
            },
            {
              "number": 7,
              "ticks": 57403,
              "time": 61.32804971458333,
              "value": 0.5590551181102362
            },
            {
              "number": 7,
              "ticks": 57539,
              "time": 61.473348997916666,
              "value": 0.5590551181102362
            },
            {
              "number": 7,
              "ticks": 57674,
              "time": 61.61757990416666,
              "value": 0.5590551181102362
            },
            {
              "number": 7,
              "ticks": 57811,
              "time": 61.763947564583326,
              "value": 0.5590551181102362
            },
            {
              "number": 7,
              "ticks": 57946,
              "time": 61.90817847083333,
              "value": 0.5590551181102362
            },
            {
              "number": 7,
              "ticks": 58081,
              "time": 62.05240937708333,
              "value": 0.5590551181102362
            },
            {
              "number": 7,
              "ticks": 58218,
              "time": 62.198777037499994,
              "value": 0.5590551181102362
            },
            {
              "number": 7,
              "ticks": 58353,
              "time": 62.343007943749996,
              "value": 0.5590551181102362
            },
            {
              "number": 7,
              "ticks": 58489,
              "time": 62.48830722708333,
              "value": 0.5590551181102362
            },
            {
              "number": 7,
              "ticks": 58624,
              "time": 62.632538133333334,
              "value": 0.5590551181102362
            },
            {
              "number": 7,
              "ticks": 58760,
              "time": 62.777837416666664,
              "value": 0.5590551181102362
            },
            {
              "number": 7,
              "ticks": 58896,
              "time": 62.9231367,
              "value": 0.5590551181102362
            },
            {
              "number": 7,
              "ticks": 59031,
              "time": 63.067367606249995,
              "value": 0.5590551181102362
            },
            {
              "number": 7,
              "ticks": 59168,
              "time": 63.21373526666666,
              "value": 0.5590551181102362
            },
            {
              "number": 7,
              "ticks": 59303,
              "time": 63.35796617291666,
              "value": 0.5590551181102362
            },
            {
              "number": 7,
              "ticks": 59439,
              "time": 63.50326545625,
              "value": 0.5590551181102362
            },
            {
              "number": 7,
              "ticks": 59574,
              "time": 63.64749636249999,
              "value": 0.5590551181102362
            },
            {
              "number": 7,
              "ticks": 59710,
              "time": 63.79279564583333,
              "value": 0.5590551181102362
            },
            {
              "number": 7,
              "ticks": 59846,
              "time": 63.93809492916666,
              "value": 0.5590551181102362
            },
            {
              "number": 7,
              "ticks": 59981,
              "time": 64.08232583541665,
              "value": 0.5590551181102362
            },
            {
              "number": 7,
              "ticks": 60118,
              "time": 64.22869349583333,
              "value": 0.5590551181102362
            },
            {
              "number": 7,
              "ticks": 60253,
              "time": 64.37292440208333,
              "value": 0.5590551181102362
            },
            {
              "number": 7,
              "ticks": 60388,
              "time": 64.51715530833333,
              "value": 0.5590551181102362
            },
            {
              "number": 7,
              "ticks": 60525,
              "time": 64.66352296875,
              "value": 0.5590551181102362
            },
            {
              "number": 7,
              "ticks": 60660,
              "time": 64.807753875,
              "value": 0.5590551181102362
            },
            {
              "number": 7,
              "ticks": 60796,
              "time": 64.95305315833333,
              "value": 0.5590551181102362
            },
            {
              "number": 7,
              "ticks": 60931,
              "time": 65.09728406458333,
              "value": 0.5590551181102362
            },
            {
              "number": 7,
              "ticks": 61067,
              "time": 65.24258334791666,
              "value": 0.5590551181102362
            },
            {
              "number": 7,
              "ticks": 61203,
              "time": 65.38788263125,
              "value": 0.5590551181102362
            },
            {
              "number": 7,
              "ticks": 61338,
              "time": 65.5321135375,
              "value": 0.5590551181102362
            },
            {
              "number": 7,
              "ticks": 61475,
              "time": 65.67848119791665,
              "value": 0.5590551181102362
            },
            {
              "number": 7,
              "ticks": 61610,
              "time": 65.82271210416665,
              "value": 0.5590551181102362
            },
            {
              "number": 7,
              "ticks": 61745,
              "time": 65.96694301041666,
              "value": 0.5590551181102362
            },
            {
              "number": 7,
              "ticks": 61882,
              "time": 66.11331067083333,
              "value": 0.5590551181102362
            },
            {
              "number": 7,
              "ticks": 62017,
              "time": 66.25754157708332,
              "value": 0.5590551181102362
            },
            {
              "number": 7,
              "ticks": 62153,
              "time": 66.40284086041667,
              "value": 0.5590551181102362
            },
            {
              "number": 7,
              "ticks": 62288,
              "time": 66.54707176666668,
              "value": 0.5590551181102362
            },
            {
              "number": 7,
              "ticks": 62425,
              "time": 66.69343942708333,
              "value": 0.5590551181102362
            },
            {
              "number": 7,
              "ticks": 62560,
              "time": 66.83767033333334,
              "value": 0.5590551181102362
            },
            {
              "number": 7,
              "ticks": 62695,
              "time": 66.98190123958334,
              "value": 0.5590551181102362
            },
            {
              "number": 7,
              "ticks": 62832,
              "time": 67.1282689,
              "value": 0.5590551181102362
            },
            {
              "number": 7,
              "ticks": 62967,
              "time": 67.27249980625,
              "value": 0.5590551181102362
            },
            {
              "number": 7,
              "ticks": 63103,
              "time": 67.41779908958333,
              "value": 0.5590551181102362
            },
            {
              "number": 7,
              "ticks": 63238,
              "time": 67.56202999583333,
              "value": 0.5590551181102362
            },
            {
              "number": 7,
              "ticks": 63374,
              "time": 67.70732927916666,
              "value": 0.5590551181102362
            },
            {
              "number": 7,
              "ticks": 63510,
              "time": 67.8526285625,
              "value": 0.5590551181102362
            },
            {
              "number": 7,
              "ticks": 63645,
              "time": 67.99685946875,
              "value": 0.5590551181102362
            },
            {
              "number": 7,
              "ticks": 63782,
              "time": 68.14322712916666,
              "value": 0.5590551181102362
            },
            {
              "number": 7,
              "ticks": 63917,
              "time": 68.28745803541666,
              "value": 0.5590551181102362
            },
            {
              "number": 7,
              "ticks": 64052,
              "time": 68.43168894166666,
              "value": 0.5590551181102362
            },
            {
              "number": 7,
              "ticks": 64189,
              "time": 68.57805660208332,
              "value": 0.5590551181102362
            },
            {
              "number": 7,
              "ticks": 64324,
              "time": 68.72228750833332,
              "value": 0.5590551181102362
            },
            {
              "number": 7,
              "ticks": 64460,
              "time": 68.86758679166665,
              "value": 0.5590551181102362
            },
            {
              "number": 7,
              "ticks": 64595,
              "time": 69.01181769791665,
              "value": 0.5590551181102362
            },
            {
              "number": 7,
              "ticks": 64732,
              "time": 69.15818535833333,
              "value": 0.5590551181102362
            },
            {
              "number": 7,
              "ticks": 64867,
              "time": 69.30241626458333,
              "value": 0.5590551181102362
            },
            {
              "number": 7,
              "ticks": 65002,
              "time": 69.44664717083332,
              "value": 0.5590551181102362
            },
            {
              "number": 7,
              "ticks": 65139,
              "time": 69.59301483125,
              "value": 0.5590551181102362
            },
            {
              "number": 7,
              "ticks": 65274,
              "time": 69.7372457375,
              "value": 0.5590551181102362
            },
            {
              "number": 7,
              "ticks": 65410,
              "time": 69.88254502083333,
              "value": 0.5590551181102362
            },
            {
              "number": 7,
              "ticks": 65545,
              "time": 70.02677592708334,
              "value": 0.5590551181102362
            },
            {
              "number": 7,
              "ticks": 65681,
              "time": 70.17207521041666,
              "value": 0.5590551181102362
            },
            {
              "number": 7,
              "ticks": 65817,
              "time": 70.31737449375,
              "value": 0.5590551181102362
            },
            {
              "number": 7,
              "ticks": 65952,
              "time": 70.4616054,
              "value": 0.5590551181102362
            },
            {
              "number": 7,
              "ticks": 66089,
              "time": 70.60797306041667,
              "value": 0.5590551181102362
            },
            {
              "number": 7,
              "ticks": 66224,
              "time": 70.75220396666667,
              "value": 0.5590551181102362
            },
            {
              "number": 7,
              "ticks": 66359,
              "time": 70.89643487291666,
              "value": 0.5590551181102362
            },
            {
              "number": 7,
              "ticks": 66496,
              "time": 71.04280253333333,
              "value": 0.5590551181102362
            },
            {
              "number": 7,
              "ticks": 66631,
              "time": 71.18703343958333,
              "value": 0.5590551181102362
            },
            {
              "number": 7,
              "ticks": 66767,
              "time": 71.33233272291666,
              "value": 0.5590551181102362
            },
            {
              "number": 7,
              "ticks": 66902,
              "time": 71.47656362916666,
              "value": 0.5590551181102362
            },
            {
              "number": 7,
              "ticks": 67038,
              "time": 71.62186291249999,
              "value": 0.5590551181102362
            },
            {
              "number": 7,
              "ticks": 67174,
              "time": 71.76716219583332,
              "value": 0.5590551181102362
            },
            {
              "number": 7,
              "ticks": 67309,
              "time": 71.91139310208332,
              "value": 0.5590551181102362
            },
            {
              "number": 7,
              "ticks": 67446,
              "time": 72.0577607625,
              "value": 0.5590551181102362
            },
            {
              "number": 7,
              "ticks": 67581,
              "time": 72.20199166875,
              "value": 0.5590551181102362
            },
            {
              "number": 7,
              "ticks": 67717,
              "time": 72.34729095208333,
              "value": 0.5590551181102362
            },
            {
              "number": 7,
              "ticks": 67852,
              "time": 72.49152185833333,
              "value": 0.5590551181102362
            },
            {
              "number": 7,
              "ticks": 67988,
              "time": 72.63682114166667,
              "value": 0.5590551181102362
            },
            {
              "number": 7,
              "ticks": 68124,
              "time": 72.782120425,
              "value": 0.5590551181102362
            },
            {
              "number": 7,
              "ticks": 68259,
              "time": 72.92635133125,
              "value": 0.5590551181102362
            },
            {
              "number": 7,
              "ticks": 68396,
              "time": 73.07271899166666,
              "value": 0.5590551181102362
            },
            {
              "number": 7,
              "ticks": 68531,
              "time": 73.21694989791666,
              "value": 0.5590551181102362
            },
            {
              "number": 7,
              "ticks": 68666,
              "time": 73.36118080416666,
              "value": 0.5590551181102362
            },
            {
              "number": 7,
              "ticks": 68803,
              "time": 73.50754846458334,
              "value": 0.5590551181102362
            },
            {
              "number": 7,
              "ticks": 68938,
              "time": 73.65177937083332,
              "value": 0.5590551181102362
            },
            {
              "number": 7,
              "ticks": 69074,
              "time": 73.79707865416667,
              "value": 0.5590551181102362
            },
            {
              "number": 7,
              "ticks": 69209,
              "time": 73.94130956041667,
              "value": 0.5590551181102362
            },
            {
              "number": 7,
              "ticks": 69345,
              "time": 74.08660884375,
              "value": 0.5590551181102362
            },
            {
              "number": 7,
              "ticks": 69481,
              "time": 74.23190812708333,
              "value": 0.5590551181102362
            },
            {
              "number": 7,
              "ticks": 69616,
              "time": 74.37613903333333,
              "value": 0.5590551181102362
            },
            {
              "number": 7,
              "ticks": 69753,
              "time": 74.52250669374999,
              "value": 0.5590551181102362
            },
            {
              "number": 7,
              "ticks": 69888,
              "time": 74.66673759999999,
              "value": 0.5590551181102362
            },
            {
              "number": 7,
              "ticks": 70024,
              "time": 74.81203688333332,
              "value": 0.5669291338582677
            },
            {
              "number": 7,
              "ticks": 70159,
              "time": 74.95626778958332,
              "value": 0.5669291338582677
            },
            {
              "number": 7,
              "ticks": 70295,
              "time": 75.10156707291665,
              "value": 0.5669291338582677
            },
            {
              "number": 7,
              "ticks": 70431,
              "time": 75.24686635625,
              "value": 0.5669291338582677
            },
            {
              "number": 7,
              "ticks": 70566,
              "time": 75.39109726249998,
              "value": 0.5669291338582677
            },
            {
              "number": 7,
              "ticks": 70703,
              "time": 75.53746492291667,
              "value": 0.5669291338582677
            },
            {
              "number": 7,
              "ticks": 70838,
              "time": 75.68169582916667,
              "value": 0.5669291338582677
            },
            {
              "number": 7,
              "ticks": 70973,
              "time": 75.82592673541667,
              "value": 0.5669291338582677
            },
            {
              "number": 7,
              "ticks": 71110,
              "time": 75.97229439583333,
              "value": 0.5669291338582677
            },
            {
              "number": 7,
              "ticks": 71245,
              "time": 76.11652530208333,
              "value": 0.5669291338582677
            },
            {
              "number": 7,
              "ticks": 71381,
              "time": 76.26182458541666,
              "value": 0.5669291338582677
            },
            {
              "number": 7,
              "ticks": 71516,
              "time": 76.40605549166666,
              "value": 0.5669291338582677
            },
            {
              "number": 7,
              "ticks": 71652,
              "time": 76.551354775,
              "value": 0.5669291338582677
            },
            {
              "number": 7,
              "ticks": 71788,
              "time": 76.69665405833334,
              "value": 0.5669291338582677
            },
            {
              "number": 7,
              "ticks": 71923,
              "time": 76.84088496458332,
              "value": 0.5669291338582677
            },
            {
              "number": 7,
              "ticks": 72060,
              "time": 76.987252625,
              "value": 0.5669291338582677
            },
            {
              "number": 7,
              "ticks": 72195,
              "time": 77.13148353125,
              "value": 0.5669291338582677
            },
            {
              "number": 7,
              "ticks": 72330,
              "time": 77.2757144375,
              "value": 0.5669291338582677
            },
            {
              "number": 7,
              "ticks": 72467,
              "time": 77.42208209791666,
              "value": 0.5669291338582677
            },
            {
              "number": 7,
              "ticks": 72602,
              "time": 77.56631300416666,
              "value": 0.5669291338582677
            },
            {
              "number": 7,
              "ticks": 72738,
              "time": 77.71161228749999,
              "value": 0.5669291338582677
            },
            {
              "number": 7,
              "ticks": 72873,
              "time": 77.85584319374999,
              "value": 0.5669291338582677
            },
            {
              "number": 7,
              "ticks": 73010,
              "time": 78.00221085416666,
              "value": 0.5669291338582677
            },
            {
              "number": 7,
              "ticks": 73145,
              "time": 78.14644176041666,
              "value": 0.5669291338582677
            },
            {
              "number": 7,
              "ticks": 73280,
              "time": 78.29067266666665,
              "value": 0.5669291338582677
            },
            {
              "number": 7,
              "ticks": 73417,
              "time": 78.43704032708332,
              "value": 0.5669291338582677
            },
            {
              "number": 7,
              "ticks": 73552,
              "time": 78.58127123333333,
              "value": 0.5669291338582677
            },
            {
              "number": 7,
              "ticks": 73688,
              "time": 78.72657051666667,
              "value": 0.5669291338582677
            },
            {
              "number": 7,
              "ticks": 73823,
              "time": 78.87080142291667,
              "value": 0.5669291338582677
            },
            {
              "number": 7,
              "ticks": 73959,
              "time": 79.01610070625,
              "value": 0.5669291338582677
            },
            {
              "number": 7,
              "ticks": 74095,
              "time": 79.16139998958333,
              "value": 0.5669291338582677
            },
            {
              "number": 7,
              "ticks": 74230,
              "time": 79.30563089583333,
              "value": 0.5669291338582677
            },
            {
              "number": 7,
              "ticks": 74367,
              "time": 79.45199855625,
              "value": 0.5669291338582677
            },
            {
              "number": 7,
              "ticks": 74502,
              "time": 79.5962294625,
              "value": 0.5669291338582677
            },
            {
              "number": 7,
              "ticks": 74637,
              "time": 79.74046036874999,
              "value": 0.5669291338582677
            },
            {
              "number": 7,
              "ticks": 74774,
              "time": 79.88682802916667,
              "value": 0.5669291338582677
            },
            {
              "number": 7,
              "ticks": 74909,
              "time": 80.03105893541667,
              "value": 0.5669291338582677
            },
            {
              "number": 7,
              "ticks": 75045,
              "time": 80.17635821875,
              "value": 0.5669291338582677
            },
            {
              "number": 7,
              "ticks": 75180,
              "time": 80.320589125,
              "value": 0.5669291338582677
            },
            {
              "number": 7,
              "ticks": 75316,
              "time": 80.46588840833333,
              "value": 0.5669291338582677
            },
            {
              "number": 7,
              "ticks": 75452,
              "time": 80.61118769166666,
              "value": 0.5669291338582677
            },
            {
              "number": 7,
              "ticks": 75587,
              "time": 80.75541859791666,
              "value": 0.5669291338582677
            },
            {
              "number": 7,
              "ticks": 75724,
              "time": 80.90178625833333,
              "value": 0.5669291338582677
            },
            {
              "number": 7,
              "ticks": 75859,
              "time": 81.04601716458332,
              "value": 0.5669291338582677
            },
            {
              "number": 7,
              "ticks": 75995,
              "time": 81.19131644791666,
              "value": 0.5669291338582677
            },
            {
              "number": 7,
              "ticks": 76130,
              "time": 81.33554735416666,
              "value": 0.5669291338582677
            },
            {
              "number": 7,
              "ticks": 76266,
              "time": 81.4808466375,
              "value": 0.5669291338582677
            },
            {
              "number": 7,
              "ticks": 76402,
              "time": 81.62614592083332,
              "value": 0.5669291338582677
            },
            {
              "number": 7,
              "ticks": 76537,
              "time": 81.77037682708333,
              "value": 0.5669291338582677
            },
            {
              "number": 7,
              "ticks": 76674,
              "time": 81.9167444875,
              "value": 0.5669291338582677
            },
            {
              "number": 7,
              "ticks": 76809,
              "time": 82.06097539375,
              "value": 0.5669291338582677
            },
            {
              "number": 7,
              "ticks": 76944,
              "time": 82.2052063,
              "value": 0.5669291338582677
            },
            {
              "number": 7,
              "ticks": 77081,
              "time": 82.35157396041667,
              "value": 0.5669291338582677
            },
            {
              "number": 7,
              "ticks": 77216,
              "time": 82.49580486666666,
              "value": 0.5669291338582677
            },
            {
              "number": 7,
              "ticks": 77352,
              "time": 82.64110415,
              "value": 0.5669291338582677
            },
            {
              "number": 7,
              "ticks": 77487,
              "time": 82.78533505624999,
              "value": 0.5669291338582677
            },
            {
              "number": 7,
              "ticks": 77623,
              "time": 82.93063433958334,
              "value": 0.5669291338582677
            },
            {
              "number": 7,
              "ticks": 77759,
              "time": 83.07593362291666,
              "value": 0.5669291338582677
            },
            {
              "number": 7,
              "ticks": 77894,
              "time": 83.22016452916667,
              "value": 0.5669291338582677
            },
            {
              "number": 7,
              "ticks": 78031,
              "time": 83.36653218958332,
              "value": 0.5669291338582677
            },
            {
              "number": 7,
              "ticks": 78166,
              "time": 83.51076309583333,
              "value": 0.5669291338582677
            },
            {
              "number": 7,
              "ticks": 78302,
              "time": 83.65606237916666,
              "value": 0.5669291338582677
            },
            {
              "number": 7,
              "ticks": 78437,
              "time": 83.80029328541666,
              "value": 0.5669291338582677
            },
            {
              "number": 7,
              "ticks": 78573,
              "time": 83.94559256874999,
              "value": 0.5669291338582677
            },
            {
              "number": 7,
              "ticks": 78709,
              "time": 84.09089185208333,
              "value": 0.5669291338582677
            },
            {
              "number": 7,
              "ticks": 78844,
              "time": 84.23512275833332,
              "value": 0.5669291338582677
            },
            {
              "number": 7,
              "ticks": 78981,
              "time": 84.38149041874999,
              "value": 0.5669291338582677
            },
            {
              "number": 7,
              "ticks": 79116,
              "time": 84.52572132499999,
              "value": 0.5669291338582677
            },
            {
              "number": 7,
              "ticks": 79251,
              "time": 84.66995223125,
              "value": 0.5669291338582677
            },
            {
              "number": 7,
              "ticks": 79388,
              "time": 84.81631989166667,
              "value": 0.5669291338582677
            },
            {
              "number": 7,
              "ticks": 79523,
              "time": 84.96055079791667,
              "value": 0.5669291338582677
            },
            {
              "number": 7,
              "ticks": 79659,
              "time": 85.10585008125,
              "value": 0.5669291338582677
            },
            {
              "number": 7,
              "ticks": 79794,
              "time": 85.2500809875,
              "value": 0.5669291338582677
            },
            {
              "number": 7,
              "ticks": 79930,
              "time": 85.39538027083333,
              "value": 0.5669291338582677
            },
            {
              "number": 7,
              "ticks": 80066,
              "time": 85.54067955416667,
              "value": 0.5669291338582677
            },
            {
              "number": 7,
              "ticks": 80201,
              "time": 85.68491046041666,
              "value": 0.5669291338582677
            },
            {
              "number": 7,
              "ticks": 80338,
              "time": 85.83127812083333,
              "value": 0.5669291338582677
            },
            {
              "number": 7,
              "ticks": 80473,
              "time": 85.97550902708333,
              "value": 0.5669291338582677
            },
            {
              "number": 7,
              "ticks": 80608,
              "time": 86.11973993333334,
              "value": 0.5669291338582677
            },
            {
              "number": 7,
              "ticks": 80745,
              "time": 86.26610759375,
              "value": 0.5669291338582677
            },
            {
              "number": 7,
              "ticks": 80880,
              "time": 86.4103385,
              "value": 0.5669291338582677
            },
            {
              "number": 7,
              "ticks": 81016,
              "time": 86.55563778333332,
              "value": 0.5669291338582677
            },
            {
              "number": 7,
              "ticks": 81151,
              "time": 86.69986868958333,
              "value": 0.5669291338582677
            },
            {
              "number": 7,
              "ticks": 81288,
              "time": 86.84623635,
              "value": 0.5669291338582677
            },
            {
              "number": 7,
              "ticks": 81423,
              "time": 86.99046725624999,
              "value": 0.5669291338582677
            },
            {
              "number": 7,
              "ticks": 81558,
              "time": 87.13469816249999,
              "value": 0.5669291338582677
            },
            {
              "number": 7,
              "ticks": 81695,
              "time": 87.28106582291666,
              "value": 0.5669291338582677
            },
            {
              "number": 7,
              "ticks": 81830,
              "time": 87.42529672916666,
              "value": 0.5669291338582677
            },
            {
              "number": 7,
              "ticks": 81966,
              "time": 87.57059601249999,
              "value": 0.5669291338582677
            },
            {
              "number": 7,
              "ticks": 82101,
              "time": 87.71482691874999,
              "value": 0.5669291338582677
            },
            {
              "number": 7,
              "ticks": 82237,
              "time": 87.86012620208332,
              "value": 0.5669291338582677
            },
            {
              "number": 7,
              "ticks": 82373,
              "time": 88.00542548541667,
              "value": 0.5669291338582677
            },
            {
              "number": 7,
              "ticks": 82508,
              "time": 88.14965639166667,
              "value": 0.5669291338582677
            },
            {
              "number": 7,
              "ticks": 82645,
              "time": 88.29602405208334,
              "value": 0.5669291338582677
            },
            {
              "number": 7,
              "ticks": 82780,
              "time": 88.44025495833333,
              "value": 0.5669291338582677
            },
            {
              "number": 7,
              "ticks": 82915,
              "time": 88.58448586458333,
              "value": 0.5669291338582677
            },
            {
              "number": 7,
              "ticks": 83052,
              "time": 88.730853525,
              "value": 0.5669291338582677
            },
            {
              "number": 7,
              "ticks": 83187,
              "time": 88.87508443125,
              "value": 0.5669291338582677
            },
            {
              "number": 7,
              "ticks": 83323,
              "time": 89.02038371458333,
              "value": 0.5669291338582677
            },
            {
              "number": 7,
              "ticks": 83458,
              "time": 89.16461462083333,
              "value": 0.5669291338582677
            },
            {
              "number": 7,
              "ticks": 83595,
              "time": 89.31098228124999,
              "value": 0.5669291338582677
            },
            {
              "number": 7,
              "ticks": 83730,
              "time": 89.4552131875,
              "value": 0.5669291338582677
            },
            {
              "number": 7,
              "ticks": 83865,
              "time": 89.59944409375,
              "value": 0.5669291338582677
            },
            {
              "number": 7,
              "ticks": 84002,
              "time": 89.74581175416667,
              "value": 0.5669291338582677
            },
            {
              "number": 7,
              "ticks": 84137,
              "time": 89.89004266041665,
              "value": 0.5669291338582677
            },
            {
              "number": 7,
              "ticks": 84273,
              "time": 90.03534194375,
              "value": 0.5669291338582677
            },
            {
              "number": 7,
              "ticks": 84408,
              "time": 90.17957284999999,
              "value": 0.5669291338582677
            },
            {
              "number": 7,
              "ticks": 84544,
              "time": 90.32487213333333,
              "value": 0.5669291338582677
            },
            {
              "number": 7,
              "ticks": 84680,
              "time": 90.47017141666666,
              "value": 0.5669291338582677
            },
            {
              "number": 7,
              "ticks": 84815,
              "time": 90.61440232291666,
              "value": 0.5669291338582677
            },
            {
              "number": 7,
              "ticks": 84952,
              "time": 90.76076998333332,
              "value": 0.5669291338582677
            },
            {
              "number": 7,
              "ticks": 85087,
              "time": 90.90500088958332,
              "value": 0.5669291338582677
            },
            {
              "number": 7,
              "ticks": 85222,
              "time": 91.04923179583332,
              "value": 0.5669291338582677
            },
            {
              "number": 7,
              "ticks": 85359,
              "time": 91.19559945625,
              "value": 0.5669291338582677
            },
            {
              "number": 7,
              "ticks": 85494,
              "time": 91.3398303625,
              "value": 0.5669291338582677
            },
            {
              "number": 7,
              "ticks": 85630,
              "time": 91.48512964583334,
              "value": 0.5669291338582677
            },
            {
              "number": 7,
              "ticks": 85765,
              "time": 91.62936055208333,
              "value": 0.5669291338582677
            },
            {
              "number": 7,
              "ticks": 85901,
              "time": 91.77465983541667,
              "value": 0.5669291338582677
            },
            {
              "number": 7,
              "ticks": 86037,
              "time": 91.91995911875,
              "value": 0.5669291338582677
            },
            {
              "number": 7,
              "ticks": 86172,
              "time": 92.064190025,
              "value": 0.5669291338582677
            },
            {
              "number": 7,
              "ticks": 86309,
              "time": 92.21055768541666,
              "value": 0.5669291338582677
            },
            {
              "number": 7,
              "ticks": 86444,
              "time": 92.35478859166666,
              "value": 0.5669291338582677
            },
            {
              "number": 7,
              "ticks": 86580,
              "time": 92.50008787499999,
              "value": 0.5669291338582677
            },
            {
              "number": 7,
              "ticks": 86715,
              "time": 92.64431878124999,
              "value": 0.5669291338582677
            },
            {
              "number": 7,
              "ticks": 86851,
              "time": 92.78961806458332,
              "value": 0.5669291338582677
            },
            {
              "number": 7,
              "ticks": 86987,
              "time": 92.93491734791667,
              "value": 0.5669291338582677
            },
            {
              "number": 7,
              "ticks": 87122,
              "time": 93.07914825416665,
              "value": 0.5669291338582677
            },
            {
              "number": 7,
              "ticks": 87259,
              "time": 93.22551591458333,
              "value": 0.5669291338582677
            },
            {
              "number": 7,
              "ticks": 87394,
              "time": 93.36974682083333,
              "value": 0.5669291338582677
            },
            {
              "number": 7,
              "ticks": 87529,
              "time": 93.51397772708333,
              "value": 0.5669291338582677
            },
            {
              "number": 7,
              "ticks": 87666,
              "time": 93.66034538749999,
              "value": 0.5669291338582677
            },
            {
              "number": 7,
              "ticks": 87801,
              "time": 93.80457629374999,
              "value": 0.5669291338582677
            },
            {
              "number": 7,
              "ticks": 87937,
              "time": 93.94987557708332,
              "value": 0.5669291338582677
            },
            {
              "number": 7,
              "ticks": 88072,
              "time": 94.09410648333332,
              "value": 0.5669291338582677
            },
            {
              "number": 7,
              "ticks": 88208,
              "time": 94.23940576666666,
              "value": 0.5669291338582677
            },
            {
              "number": 7,
              "ticks": 88344,
              "time": 94.38470505,
              "value": 0.5669291338582677
            },
            {
              "number": 7,
              "ticks": 88479,
              "time": 94.52893595625,
              "value": 0.5669291338582677
            },
            {
              "number": 7,
              "ticks": 88616,
              "time": 94.67530361666667,
              "value": 0.5669291338582677
            },
            {
              "number": 7,
              "ticks": 88751,
              "time": 94.81953452291667,
              "value": 0.5669291338582677
            },
            {
              "number": 7,
              "ticks": 88887,
              "time": 94.96483380625,
              "value": 0.5669291338582677
            },
            {
              "number": 7,
              "ticks": 89022,
              "time": 95.1090647125,
              "value": 0.5669291338582677
            },
            {
              "number": 7,
              "ticks": 89158,
              "time": 95.25436399583333,
              "value": 0.5669291338582677
            },
            {
              "number": 7,
              "ticks": 89294,
              "time": 95.39966327916666,
              "value": 0.5669291338582677
            },
            {
              "number": 7,
              "ticks": 89429,
              "time": 95.54389418541666,
              "value": 0.5669291338582677
            },
            {
              "number": 7,
              "ticks": 89566,
              "time": 95.69026184583333,
              "value": 0.5669291338582677
            },
            {
              "number": 7,
              "ticks": 89701,
              "time": 95.83449275208332,
              "value": 0.5669291338582677
            },
            {
              "number": 7,
              "ticks": 89836,
              "time": 95.97872365833332,
              "value": 0.5669291338582677
            },
            {
              "number": 7,
              "ticks": 89973,
              "time": 96.12509131875,
              "value": 0.5669291338582677
            },
            {
              "number": 7,
              "ticks": 90108,
              "time": 96.269322225,
              "value": 0.5669291338582677
            },
            {
              "number": 7,
              "ticks": 90244,
              "time": 96.41462150833333,
              "value": 0.5669291338582677
            },
            {
              "number": 7,
              "ticks": 90379,
              "time": 96.55885241458333,
              "value": 0.5669291338582677
            },
            {
              "number": 7,
              "ticks": 90515,
              "time": 96.70415169791666,
              "value": 0.5669291338582677
            },
            {
              "number": 7,
              "ticks": 90651,
              "time": 96.84945098124999,
              "value": 0.5669291338582677
            },
            {
              "number": 7,
              "ticks": 90786,
              "time": 96.99368188749999,
              "value": 0.5669291338582677
            },
            {
              "number": 7,
              "ticks": 90923,
              "time": 97.14004954791668,
              "value": 0.5669291338582677
            },
            {
              "number": 7,
              "ticks": 91058,
              "time": 97.28428045416666,
              "value": 0.5669291338582677
            },
            {
              "number": 7,
              "ticks": 91193,
              "time": 97.42851136041666,
              "value": 0.5669291338582677
            },
            {
              "number": 7,
              "ticks": 91329,
              "time": 97.57381064375,
              "value": 0.5669291338582677
            },
            {
              "number": 7,
              "ticks": 91465,
              "time": 97.71910992708334,
              "value": 0.5669291338582677
            },
            {
              "number": 7,
              "ticks": 91601,
              "time": 97.86440921041667,
              "value": 0.5669291338582677
            },
            {
              "number": 7,
              "ticks": 91736,
              "time": 98.00864011666667,
              "value": 0.5669291338582677
            },
            {
              "number": 7,
              "ticks": 91872,
              "time": 98.1539394,
              "value": 0.5669291338582677
            },
            {
              "number": 7,
              "ticks": 92008,
              "time": 98.29923868333333,
              "value": 0.5669291338582677
            },
            {
              "number": 7,
              "ticks": 92143,
              "time": 98.44346958958333,
              "value": 0.5669291338582677
            },
            {
              "number": 7,
              "ticks": 92279,
              "time": 98.58876887291666,
              "value": 0.5669291338582677
            },
            {
              "number": 7,
              "ticks": 92415,
              "time": 98.73406815624999,
              "value": 0.5669291338582677
            },
            {
              "number": 7,
              "ticks": 92551,
              "time": 98.87936743958333,
              "value": 0.5669291338582677
            },
            {
              "number": 7,
              "ticks": 92686,
              "time": 99.02359834583332,
              "value": 0.5669291338582677
            },
            {
              "number": 7,
              "ticks": 92822,
              "time": 99.16889762916666,
              "value": 0.5669291338582677
            },
            {
              "number": 7,
              "ticks": 92958,
              "time": 99.3141969125,
              "value": 0.5669291338582677
            },
            {
              "number": 7,
              "ticks": 93093,
              "time": 99.45842781875,
              "value": 0.5669291338582677
            },
            {
              "number": 7,
              "ticks": 93229,
              "time": 99.60372710208333,
              "value": 0.5669291338582677
            },
            {
              "number": 7,
              "ticks": 93365,
              "time": 99.74902638541666,
              "value": 0.5669291338582677
            },
            {
              "number": 7,
              "ticks": 93500,
              "time": 99.89325729166666,
              "value": 0.5669291338582677
            },
            {
              "number": 7,
              "ticks": 93636,
              "time": 100.03855657499999,
              "value": 0.5669291338582677
            },
            {
              "number": 7,
              "ticks": 93772,
              "time": 100.18385585833332,
              "value": 0.5669291338582677
            },
            {
              "number": 7,
              "ticks": 93908,
              "time": 100.32915514166667,
              "value": 0.5669291338582677
            },
            {
              "number": 7,
              "ticks": 94043,
              "time": 100.47338604791666,
              "value": 0.5669291338582677
            },
            {
              "number": 7,
              "ticks": 94179,
              "time": 100.61868533125,
              "value": 0.5669291338582677
            },
            {
              "number": 7,
              "ticks": 94315,
              "time": 100.76398461458334,
              "value": 0.5669291338582677
            },
            {
              "number": 7,
              "ticks": 94450,
              "time": 100.90821552083334,
              "value": 0.5669291338582677
            },
            {
              "number": 7,
              "ticks": 94587,
              "time": 101.05458318125,
              "value": 0.5669291338582677
            },
            {
              "number": 7,
              "ticks": 94722,
              "time": 101.1988140875,
              "value": 0.5669291338582677
            },
            {
              "number": 7,
              "ticks": 94858,
              "time": 101.34411337083333,
              "value": 0.5669291338582677
            },
            {
              "number": 7,
              "ticks": 94993,
              "time": 101.48834427708333,
              "value": 0.5669291338582677
            },
            {
              "number": 7,
              "ticks": 95129,
              "time": 101.63364356041666,
              "value": 0.5669291338582677
            },
            {
              "number": 7,
              "ticks": 95265,
              "time": 101.77894284374999,
              "value": 0.5669291338582677
            },
            {
              "number": 7,
              "ticks": 95400,
              "time": 101.92317374999999,
              "value": 0.5669291338582677
            },
            {
              "number": 7,
              "ticks": 95537,
              "time": 102.06954141041666,
              "value": 0.5669291338582677
            },
            {
              "number": 7,
              "ticks": 95672,
              "time": 102.21377231666666,
              "value": 0.5669291338582677
            },
            {
              "number": 7,
              "ticks": 95807,
              "time": 102.35800322291666,
              "value": 0.5669291338582677
            },
            {
              "number": 7,
              "ticks": 95944,
              "time": 102.50437088333332,
              "value": 0.5669291338582677
            },
            {
              "number": 7,
              "ticks": 96079,
              "time": 102.64860178958332,
              "value": 0.5669291338582677
            },
            {
              "number": 7,
              "ticks": 96215,
              "time": 102.79390107291665,
              "value": 0.5669291338582677
            },
            {
              "number": 7,
              "ticks": 96350,
              "time": 102.93813197916666,
              "value": 0.5669291338582677
            },
            {
              "number": 7,
              "ticks": 96486,
              "time": 103.08343126249999,
              "value": 0.5669291338582677
            },
            {
              "number": 7,
              "ticks": 96622,
              "time": 103.22873054583332,
              "value": 0.5669291338582677
            },
            {
              "number": 7,
              "ticks": 96757,
              "time": 103.37296145208332,
              "value": 0.5669291338582677
            },
            {
              "number": 7,
              "ticks": 96894,
              "time": 103.5193291125,
              "value": 0.5669291338582677
            },
            {
              "number": 7,
              "ticks": 97029,
              "time": 103.66356001875,
              "value": 0.5669291338582677
            },
            {
              "number": 7,
              "ticks": 97165,
              "time": 103.80885930208333,
              "value": 0.5669291338582677
            },
            {
              "number": 7,
              "ticks": 97300,
              "time": 103.95309020833334,
              "value": 0.5669291338582677
            },
            {
              "number": 7,
              "ticks": 97436,
              "time": 104.09838949166667,
              "value": 0.5669291338582677
            },
            {
              "number": 7,
              "ticks": 97572,
              "time": 104.243688775,
              "value": 0.5669291338582677
            },
            {
              "number": 7,
              "ticks": 97707,
              "time": 104.38791968125,
              "value": 0.5669291338582677
            },
            {
              "number": 7,
              "ticks": 97843,
              "time": 104.53321896458333,
              "value": 0.5669291338582677
            },
            {
              "number": 7,
              "ticks": 97979,
              "time": 104.67851824791666,
              "value": 0.5669291338582677
            },
            {
              "number": 7,
              "ticks": 98114,
              "time": 104.82274915416666,
              "value": 0.5669291338582677
            },
            {
              "number": 7,
              "ticks": 98250,
              "time": 104.96804843749999,
              "value": 0.5669291338582677
            },
            {
              "number": 7,
              "ticks": 98386,
              "time": 105.11334772083333,
              "value": 0.5669291338582677
            },
            {
              "number": 7,
              "ticks": 98522,
              "time": 105.25864700416666,
              "value": 0.5669291338582677
            },
            {
              "number": 7,
              "ticks": 98657,
              "time": 105.40287791041666,
              "value": 0.5669291338582677
            },
            {
              "number": 7,
              "ticks": 98793,
              "time": 105.54817719374999,
              "value": 0.5669291338582677
            },
            {
              "number": 7,
              "ticks": 98929,
              "time": 105.69347647708332,
              "value": 0.5669291338582677
            },
            {
              "number": 7,
              "ticks": 99064,
              "time": 105.83770738333332,
              "value": 0.5669291338582677
            },
            {
              "number": 7,
              "ticks": 99200,
              "time": 105.98300666666665,
              "value": 0.5669291338582677
            },
            {
              "number": 7,
              "ticks": 99336,
              "time": 106.12830594999998,
              "value": 0.5669291338582677
            },
            {
              "number": 7,
              "ticks": 99472,
              "time": 106.27360523333333,
              "value": 0.5669291338582677
            },
            {
              "number": 7,
              "ticks": 99607,
              "time": 106.41783613958332,
              "value": 0.5669291338582677
            },
            {
              "number": 7,
              "ticks": 99743,
              "time": 106.56313542291667,
              "value": 0.5669291338582677
            },
            {
              "number": 7,
              "ticks": 99879,
              "time": 106.70843470625,
              "value": 0.5669291338582677
            },
            {
              "number": 7,
              "ticks": 100014,
              "time": 106.8526656125,
              "value": 0.5669291338582677
            },
            {
              "number": 7,
              "ticks": 100150,
              "time": 106.99796489583333,
              "value": 0.5669291338582677
            },
            {
              "number": 7,
              "ticks": 100286,
              "time": 107.14326417916666,
              "value": 0.5669291338582677
            },
            {
              "number": 7,
              "ticks": 100421,
              "time": 107.28749508541667,
              "value": 0.5669291338582677
            },
            {
              "number": 7,
              "ticks": 100558,
              "time": 107.43386274583332,
              "value": 0.5669291338582677
            },
            {
              "number": 7,
              "ticks": 100693,
              "time": 107.57809365208333,
              "value": 0.5669291338582677
            },
            {
              "number": 7,
              "ticks": 100829,
              "time": 107.72339293541665,
              "value": 0.5669291338582677
            },
            {
              "number": 7,
              "ticks": 100964,
              "time": 107.86762384166666,
              "value": 0.5669291338582677
            },
            {
              "number": 7,
              "ticks": 101100,
              "time": 108.012923125,
              "value": 0.5669291338582677
            },
            {
              "number": 7,
              "ticks": 101236,
              "time": 108.15822240833333,
              "value": 0.5669291338582677
            },
            {
              "number": 7,
              "ticks": 101371,
              "time": 108.30245331458333,
              "value": 0.5669291338582677
            },
            {
              "number": 7,
              "ticks": 101508,
              "time": 108.44882097499999,
              "value": 0.5669291338582677
            },
            {
              "number": 7,
              "ticks": 101643,
              "time": 108.59305188124999,
              "value": 0.5669291338582677
            },
            {
              "number": 7,
              "ticks": 101778,
              "time": 108.73728278749999,
              "value": 0.5669291338582677
            },
            {
              "number": 7,
              "ticks": 101914,
              "time": 108.88258207083332,
              "value": 0.5669291338582677
            },
            {
              "number": 7,
              "ticks": 102050,
              "time": 109.02788135416665,
              "value": 0.5669291338582677
            },
            {
              "number": 7,
              "ticks": 102186,
              "time": 109.17318063749998,
              "value": 0.5669291338582677
            },
            {
              "number": 7,
              "ticks": 102321,
              "time": 109.31741154374998,
              "value": 0.5669291338582677
            },
            {
              "number": 7,
              "ticks": 102458,
              "time": 109.46377920416667,
              "value": 0.5669291338582677
            },
            {
              "number": 7,
              "ticks": 102593,
              "time": 109.60801011041667,
              "value": 0.5669291338582677
            },
            {
              "number": 7,
              "ticks": 102728,
              "time": 109.75224101666667,
              "value": 0.5669291338582677
            },
            {
              "number": 7,
              "ticks": 102865,
              "time": 109.89860867708333,
              "value": 0.5669291338582677
            },
            {
              "number": 7,
              "ticks": 103000,
              "time": 110.04283958333333,
              "value": 0.5669291338582677
            },
            {
              "number": 7,
              "ticks": 103136,
              "time": 110.18813886666666,
              "value": 0.5669291338582677
            },
            {
              "number": 7,
              "ticks": 103271,
              "time": 110.33236977291666,
              "value": 0.5669291338582677
            },
            {
              "number": 7,
              "ticks": 103407,
              "time": 110.47766905625,
              "value": 0.5669291338582677
            },
            {
              "number": 7,
              "ticks": 103543,
              "time": 110.62296833958332,
              "value": 0.5669291338582677
            },
            {
              "number": 7,
              "ticks": 103678,
              "time": 110.76719924583332,
              "value": 0.5669291338582677
            },
            {
              "number": 7,
              "ticks": 103815,
              "time": 110.91356690625,
              "value": 0.5669291338582677
            },
            {
              "number": 7,
              "ticks": 103950,
              "time": 111.0577978125,
              "value": 0.5669291338582677
            },
            {
              "number": 7,
              "ticks": 104085,
              "time": 111.20202871875,
              "value": 0.5669291338582677
            },
            {
              "number": 7,
              "ticks": 104222,
              "time": 111.34839637916666,
              "value": 0.5669291338582677
            },
            {
              "number": 7,
              "ticks": 104357,
              "time": 111.49262728541666,
              "value": 0.5669291338582677
            },
            {
              "number": 7,
              "ticks": 104493,
              "time": 111.63792656874999,
              "value": 0.5669291338582677
            },
            {
              "number": 7,
              "ticks": 104628,
              "time": 111.78215747499999,
              "value": 0.5669291338582677
            },
            {
              "number": 7,
              "ticks": 104764,
              "time": 111.92745675833332,
              "value": 0.5748031496062992
            },
            {
              "number": 7,
              "ticks": 104900,
              "time": 112.07275604166665,
              "value": 0.5748031496062992
            },
            {
              "number": 7,
              "ticks": 105035,
              "time": 112.21698694791665,
              "value": 0.5748031496062992
            },
            {
              "number": 7,
              "ticks": 105172,
              "time": 112.36335460833332,
              "value": 0.5748031496062992
            },
            {
              "number": 7,
              "ticks": 105307,
              "time": 112.50758551458333,
              "value": 0.5748031496062992
            },
            {
              "number": 7,
              "ticks": 105443,
              "time": 112.65288479791667,
              "value": 0.5748031496062992
            },
            {
              "number": 7,
              "ticks": 105578,
              "time": 112.79711570416667,
              "value": 0.5748031496062992
            },
            {
              "number": 7,
              "ticks": 105714,
              "time": 112.9424149875,
              "value": 0.5748031496062992
            },
            {
              "number": 7,
              "ticks": 105850,
              "time": 113.08771427083333,
              "value": 0.5748031496062992
            },
            {
              "number": 7,
              "ticks": 105985,
              "time": 113.23194517708333,
              "value": 0.5748031496062992
            },
            {
              "number": 7,
              "ticks": 106122,
              "time": 113.37831283749999,
              "value": 0.5748031496062992
            },
            {
              "number": 7,
              "ticks": 106257,
              "time": 113.52254374374999,
              "value": 0.5748031496062992
            },
            {
              "number": 7,
              "ticks": 106392,
              "time": 113.66677465,
              "value": 0.5748031496062992
            },
            {
              "number": 7,
              "ticks": 106529,
              "time": 113.81314231041667,
              "value": 0.5748031496062992
            },
            {
              "number": 7,
              "ticks": 106664,
              "time": 113.95737321666667,
              "value": 0.5748031496062992
            },
            {
              "number": 7,
              "ticks": 106800,
              "time": 114.1026725,
              "value": 0.5748031496062992
            },
            {
              "number": 7,
              "ticks": 106935,
              "time": 114.24690340625,
              "value": 0.5748031496062992
            },
            {
              "number": 7,
              "ticks": 107071,
              "time": 114.39220268958333,
              "value": 0.5748031496062992
            },
            {
              "number": 7,
              "ticks": 107207,
              "time": 114.53750197291666,
              "value": 0.5748031496062992
            },
            {
              "number": 7,
              "ticks": 107342,
              "time": 114.68173287916666,
              "value": 0.5748031496062992
            },
            {
              "number": 7,
              "ticks": 107479,
              "time": 114.82810053958332,
              "value": 0.5748031496062992
            },
            {
              "number": 7,
              "ticks": 107614,
              "time": 114.97233144583332,
              "value": 0.5748031496062992
            },
            {
              "number": 7,
              "ticks": 107750,
              "time": 115.11763072916665,
              "value": 0.5748031496062992
            },
            {
              "number": 7,
              "ticks": 107885,
              "time": 115.26186163541665,
              "value": 0.5748031496062992
            },
            {
              "number": 7,
              "ticks": 108021,
              "time": 115.40716091875,
              "value": 0.5748031496062992
            },
            {
              "number": 7,
              "ticks": 108157,
              "time": 115.55246020208332,
              "value": 0.5748031496062992
            },
            {
              "number": 7,
              "ticks": 108292,
              "time": 115.69669110833333,
              "value": 0.5748031496062992
            },
            {
              "number": 7,
              "ticks": 108429,
              "time": 115.84305876875,
              "value": 0.5748031496062992
            },
            {
              "number": 7,
              "ticks": 108564,
              "time": 115.987289675,
              "value": 0.5748031496062992
            },
            {
              "number": 7,
              "ticks": 108699,
              "time": 116.13152058125,
              "value": 0.5748031496062992
            },
            {
              "number": 7,
              "ticks": 108836,
              "time": 116.27788824166666,
              "value": 0.5748031496062992
            },
            {
              "number": 7,
              "ticks": 108971,
              "time": 116.42211914791666,
              "value": 0.5748031496062992
            },
            {
              "number": 7,
              "ticks": 109107,
              "time": 116.56741843124999,
              "value": 0.5748031496062992
            },
            {
              "number": 7,
              "ticks": 109242,
              "time": 116.71164933749999,
              "value": 0.5748031496062992
            },
            {
              "number": 7,
              "ticks": 109378,
              "time": 116.85694862083332,
              "value": 0.5748031496062992
            },
            {
              "number": 7,
              "ticks": 109514,
              "time": 117.00224790416667,
              "value": 0.5748031496062992
            },
            {
              "number": 7,
              "ticks": 109649,
              "time": 117.14647881041667,
              "value": 0.5748031496062992
            },
            {
              "number": 7,
              "ticks": 109786,
              "time": 117.29284647083333,
              "value": 0.5748031496062992
            },
            {
              "number": 7,
              "ticks": 109921,
              "time": 117.43707737708333,
              "value": 0.5748031496062992
            },
            {
              "number": 7,
              "ticks": 110056,
              "time": 117.58130828333333,
              "value": 0.5748031496062992
            },
            {
              "number": 7,
              "ticks": 110193,
              "time": 117.72767594374999,
              "value": 0.5748031496062992
            },
            {
              "number": 7,
              "ticks": 110328,
              "time": 117.87190684999999,
              "value": 0.5748031496062992
            },
            {
              "number": 7,
              "ticks": 110464,
              "time": 118.01720613333332,
              "value": 0.5748031496062992
            },
            {
              "number": 7,
              "ticks": 110599,
              "time": 118.16143703958332,
              "value": 0.5748031496062992
            },
            {
              "number": 7,
              "ticks": 110736,
              "time": 118.30780469999999,
              "value": 0.5748031496062992
            },
            {
              "number": 7,
              "ticks": 110871,
              "time": 118.45203560624999,
              "value": 0.5748031496062992
            },
            {
              "number": 7,
              "ticks": 111006,
              "time": 118.5962665125,
              "value": 0.5748031496062992
            },
            {
              "number": 7,
              "ticks": 111143,
              "time": 118.74263417291667,
              "value": 0.5748031496062992
            },
            {
              "number": 7,
              "ticks": 111278,
              "time": 118.88686507916667,
              "value": 0.5748031496062992
            },
            {
              "number": 7,
              "ticks": 111414,
              "time": 119.0321643625,
              "value": 0.5748031496062992
            },
            {
              "number": 7,
              "ticks": 111549,
              "time": 119.17639526875,
              "value": 0.5748031496062992
            },
            {
              "number": 7,
              "ticks": 111685,
              "time": 119.32169455208333,
              "value": 0.5748031496062992
            },
            {
              "number": 7,
              "ticks": 111821,
              "time": 119.46699383541666,
              "value": 0.5748031496062992
            },
            {
              "number": 7,
              "ticks": 111956,
              "time": 119.61122474166666,
              "value": 0.5748031496062992
            },
            {
              "number": 7,
              "ticks": 112093,
              "time": 119.75759240208333,
              "value": 0.5748031496062992
            },
            {
              "number": 7,
              "ticks": 112228,
              "time": 119.90182330833333,
              "value": 0.5748031496062992
            },
            {
              "number": 7,
              "ticks": 112363,
              "time": 120.04605421458332,
              "value": 0.5748031496062992
            },
            {
              "number": 7,
              "ticks": 112500,
              "time": 120.192421875,
              "value": 0.5748031496062992
            },
            {
              "number": 7,
              "ticks": 112635,
              "time": 120.33665278125,
              "value": 0.5748031496062992
            },
            {
              "number": 7,
              "ticks": 112771,
              "time": 120.48195206458333,
              "value": 0.5748031496062992
            },
            {
              "number": 7,
              "ticks": 112906,
              "time": 120.62618297083333,
              "value": 0.5748031496062992
            },
            {
              "number": 7,
              "ticks": 113043,
              "time": 120.77255063124998,
              "value": 0.5748031496062992
            },
            {
              "number": 7,
              "ticks": 113178,
              "time": 120.91678153749999,
              "value": 0.5748031496062992
            },
            {
              "number": 7,
              "ticks": 113313,
              "time": 121.06101244374999,
              "value": 0.5748031496062992
            },
            {
              "number": 7,
              "ticks": 113450,
              "time": 121.20738010416666,
              "value": 0.5748031496062992
            },
            {
              "number": 7,
              "ticks": 113585,
              "time": 121.35161101041666,
              "value": 0.5748031496062992
            },
            {
              "number": 7,
              "ticks": 113721,
              "time": 121.49691029374999,
              "value": 0.5748031496062992
            },
            {
              "number": 7,
              "ticks": 113856,
              "time": 121.64114119999999,
              "value": 0.5748031496062992
            },
            {
              "number": 7,
              "ticks": 113992,
              "time": 121.78644048333332,
              "value": 0.5748031496062992
            },
            {
              "number": 7,
              "ticks": 114128,
              "time": 121.93173976666667,
              "value": 0.5748031496062992
            },
            {
              "number": 7,
              "ticks": 114263,
              "time": 122.07597067291667,
              "value": 0.5748031496062992
            },
            {
              "number": 7,
              "ticks": 114400,
              "time": 122.22233833333333,
              "value": 0.5748031496062992
            },
            {
              "number": 7,
              "ticks": 114535,
              "time": 122.36656923958333,
              "value": 0.5748031496062992
            },
            {
              "number": 7,
              "ticks": 114670,
              "time": 122.51080014583333,
              "value": 0.5748031496062992
            },
            {
              "number": 7,
              "ticks": 114807,
              "time": 122.65716780625,
              "value": 0.5748031496062992
            },
            {
              "number": 7,
              "ticks": 114942,
              "time": 122.8013987125,
              "value": 0.5748031496062992
            },
            {
              "number": 7,
              "ticks": 115078,
              "time": 122.94669799583333,
              "value": 0.5748031496062992
            },
            {
              "number": 7,
              "ticks": 115213,
              "time": 123.09092890208333,
              "value": 0.5748031496062992
            },
            {
              "number": 7,
              "ticks": 115349,
              "time": 123.23622818541666,
              "value": 0.5748031496062992
            },
            {
              "number": 7,
              "ticks": 115485,
              "time": 123.38152746875,
              "value": 0.5748031496062992
            },
            {
              "number": 7,
              "ticks": 115620,
              "time": 123.525758375,
              "value": 0.5748031496062992
            },
            {
              "number": 7,
              "ticks": 115757,
              "time": 123.67212603541665,
              "value": 0.5748031496062992
            },
            {
              "number": 7,
              "ticks": 115892,
              "time": 123.81635694166665,
              "value": 0.5748031496062992
            },
            {
              "number": 7,
              "ticks": 116028,
              "time": 123.96165622499998,
              "value": 0.5748031496062992
            },
            {
              "number": 7,
              "ticks": 116163,
              "time": 124.10588713124999,
              "value": 0.5748031496062992
            },
            {
              "number": 7,
              "ticks": 116299,
              "time": 124.25118641458332,
              "value": 0.5748031496062992
            },
            {
              "number": 7,
              "ticks": 116435,
              "time": 124.39648569791666,
              "value": 0.5748031496062992
            },
            {
              "number": 7,
              "ticks": 116570,
              "time": 124.54071660416666,
              "value": 0.5748031496062992
            },
            {
              "number": 7,
              "ticks": 116707,
              "time": 124.68708426458332,
              "value": 0.5748031496062992
            },
            {
              "number": 7,
              "ticks": 116842,
              "time": 124.83131517083332,
              "value": 0.5748031496062992
            },
            {
              "number": 7,
              "ticks": 116977,
              "time": 124.97554607708332,
              "value": 0.5748031496062992
            },
            {
              "number": 7,
              "ticks": 117114,
              "time": 125.1219137375,
              "value": 0.5748031496062992
            },
            {
              "number": 7,
              "ticks": 117249,
              "time": 125.26614464375,
              "value": 0.5748031496062992
            },
            {
              "number": 7,
              "ticks": 117385,
              "time": 125.41144392708333,
              "value": 0.5748031496062992
            },
            {
              "number": 7,
              "ticks": 117520,
              "time": 125.55567483333333,
              "value": 0.5748031496062992
            },
            {
              "number": 7,
              "ticks": 117656,
              "time": 125.70097411666666,
              "value": 0.5748031496062992
            },
            {
              "number": 7,
              "ticks": 117792,
              "time": 125.8462734,
              "value": 0.5748031496062992
            },
            {
              "number": 7,
              "ticks": 117927,
              "time": 125.99050430625,
              "value": 0.5748031496062992
            },
            {
              "number": 7,
              "ticks": 118064,
              "time": 126.13687196666666,
              "value": 0.5748031496062992
            },
            {
              "number": 7,
              "ticks": 118199,
              "time": 126.28110287291666,
              "value": 0.5748031496062992
            },
            {
              "number": 7,
              "ticks": 118335,
              "time": 126.42640215624999,
              "value": 0.5748031496062992
            },
            {
              "number": 7,
              "ticks": 118470,
              "time": 126.5706330625,
              "value": 0.5748031496062992
            },
            {
              "number": 7,
              "ticks": 118606,
              "time": 126.71593234583332,
              "value": 0.5748031496062992
            },
            {
              "number": 7,
              "ticks": 118742,
              "time": 126.86123162916665,
              "value": 0.5748031496062992
            },
            {
              "number": 7,
              "ticks": 118877,
              "time": 127.00546253541665,
              "value": 0.5748031496062992
            },
            {
              "number": 7,
              "ticks": 119014,
              "time": 127.15183019583333,
              "value": 0.5748031496062992
            },
            {
              "number": 7,
              "ticks": 119149,
              "time": 127.29606110208333,
              "value": 0.5748031496062992
            },
            {
              "number": 7,
              "ticks": 119284,
              "time": 127.44029200833332,
              "value": 0.5748031496062992
            },
            {
              "number": 7,
              "ticks": 119421,
              "time": 127.58665966874999,
              "value": 0.5748031496062992
            },
            {
              "number": 7,
              "ticks": 119556,
              "time": 127.73089057499999,
              "value": 0.5748031496062992
            },
            {
              "number": 7,
              "ticks": 119692,
              "time": 127.87618985833332,
              "value": 0.5748031496062992
            },
            {
              "number": 7,
              "ticks": 119827,
              "time": 128.02042076458332,
              "value": 0.5748031496062992
            },
            {
              "number": 7,
              "ticks": 119963,
              "time": 128.16572004791666,
              "value": 0.5748031496062992
            },
            {
              "number": 7,
              "ticks": 120099,
              "time": 128.31101933125,
              "value": 0.5748031496062992
            },
            {
              "number": 7,
              "ticks": 120234,
              "time": 128.4552502375,
              "value": 0.5748031496062992
            },
            {
              "number": 7,
              "ticks": 120371,
              "time": 128.60161789791667,
              "value": 0.5748031496062992
            },
            {
              "number": 7,
              "ticks": 120506,
              "time": 128.74584880416666,
              "value": 0.5748031496062992
            },
            {
              "number": 7,
              "ticks": 120641,
              "time": 128.89007971041667,
              "value": 0.5748031496062992
            },
            {
              "number": 7,
              "ticks": 120778,
              "time": 129.03644737083332,
              "value": 0.5748031496062992
            },
            {
              "number": 7,
              "ticks": 120913,
              "time": 129.18067827708333,
              "value": 0.5748031496062992
            },
            {
              "number": 7,
              "ticks": 121049,
              "time": 129.32597756041665,
              "value": 0.5748031496062992
            },
            {
              "number": 7,
              "ticks": 121184,
              "time": 129.47020846666666,
              "value": 0.5748031496062992
            },
            {
              "number": 7,
              "ticks": 121321,
              "time": 129.61657612708333,
              "value": 0.5748031496062992
            },
            {
              "number": 7,
              "ticks": 121456,
              "time": 129.76080703333332,
              "value": 0.5748031496062992
            },
            {
              "number": 7,
              "ticks": 121591,
              "time": 129.90503793958334,
              "value": 0.5748031496062992
            },
            {
              "number": 7,
              "ticks": 121728,
              "time": 130.05140559999998,
              "value": 0.5748031496062992
            },
            {
              "number": 7,
              "ticks": 121863,
              "time": 130.19563650625,
              "value": 0.5748031496062992
            },
            {
              "number": 7,
              "ticks": 121999,
              "time": 130.3409357895833,
              "value": 0.5748031496062992
            },
            {
              "number": 7,
              "ticks": 122134,
              "time": 130.48516669583333,
              "value": 0.5748031496062992
            },
            {
              "number": 7,
              "ticks": 122270,
              "time": 130.63046597916664,
              "value": 0.5748031496062992
            },
            {
              "number": 7,
              "ticks": 122406,
              "time": 130.7757652625,
              "value": 0.5748031496062992
            },
            {
              "number": 7,
              "ticks": 122541,
              "time": 130.91999616874998,
              "value": 0.5748031496062992
            },
            {
              "number": 7,
              "ticks": 122678,
              "time": 131.06636382916668,
              "value": 0.5748031496062992
            },
            {
              "number": 7,
              "ticks": 122813,
              "time": 131.21059473541666,
              "value": 0.5748031496062992
            },
            {
              "number": 7,
              "ticks": 122948,
              "time": 131.35482564166665,
              "value": 0.5748031496062992
            },
            {
              "number": 7,
              "ticks": 123085,
              "time": 131.50119330208332,
              "value": 0.5748031496062992
            },
            {
              "number": 7,
              "ticks": 123220,
              "time": 131.6454242083333,
              "value": 0.5748031496062992
            },
            {
              "number": 7,
              "ticks": 123356,
              "time": 131.79072349166665,
              "value": 0.5748031496062992
            },
            {
              "number": 7,
              "ticks": 123491,
              "time": 131.93495439791667,
              "value": 0.5748031496062992
            },
            {
              "number": 7,
              "ticks": 123628,
              "time": 132.08132205833334,
              "value": 0.5748031496062992
            },
            {
              "number": 7,
              "ticks": 123763,
              "time": 132.22555296458333,
              "value": 0.5748031496062992
            },
            {
              "number": 7,
              "ticks": 123898,
              "time": 132.36978387083332,
              "value": 0.5748031496062992
            },
            {
              "number": 7,
              "ticks": 124035,
              "time": 132.51615153125,
              "value": 0.5748031496062992
            },
            {
              "number": 7,
              "ticks": 124170,
              "time": 132.6603824375,
              "value": 0.5748031496062992
            },
            {
              "number": 7,
              "ticks": 124306,
              "time": 132.80568172083335,
              "value": 0.5748031496062992
            },
            {
              "number": 7,
              "ticks": 124441,
              "time": 132.94991262708334,
              "value": 0.5748031496062992
            },
            {
              "number": 7,
              "ticks": 124577,
              "time": 133.09521191041665,
              "value": 0.5748031496062992
            },
            {
              "number": 7,
              "ticks": 124713,
              "time": 133.24051119375,
              "value": 0.5748031496062992
            },
            {
              "number": 7,
              "ticks": 124848,
              "time": 133.3847421,
              "value": 0.5748031496062992
            },
            {
              "number": 7,
              "ticks": 124985,
              "time": 133.53110976041665,
              "value": 0.5748031496062992
            },
            {
              "number": 7,
              "ticks": 125120,
              "time": 133.67534066666667,
              "value": 0.5748031496062992
            },
            {
              "number": 7,
              "ticks": 125255,
              "time": 133.81957157291666,
              "value": 0.5748031496062992
            },
            {
              "number": 7,
              "ticks": 125392,
              "time": 133.96593923333333,
              "value": 0.5748031496062992
            },
            {
              "number": 7,
              "ticks": 125527,
              "time": 134.11017013958335,
              "value": 0.5748031496062992
            },
            {
              "number": 7,
              "ticks": 125663,
              "time": 134.25546942291666,
              "value": 0.5748031496062992
            },
            {
              "number": 7,
              "ticks": 125798,
              "time": 134.39970032916665,
              "value": 0.5748031496062992
            },
            {
              "number": 7,
              "ticks": 125934,
              "time": 134.5449996125,
              "value": 0.5748031496062992
            },
            {
              "number": 7,
              "ticks": 126070,
              "time": 134.6902988958333,
              "value": 0.5748031496062992
            },
            {
              "number": 7,
              "ticks": 126205,
              "time": 134.83452980208332,
              "value": 0.5748031496062992
            },
            {
              "number": 7,
              "ticks": 126342,
              "time": 134.98089746249997,
              "value": 0.5748031496062992
            },
            {
              "number": 7,
              "ticks": 126477,
              "time": 135.12512836874998,
              "value": 0.5748031496062992
            },
            {
              "number": 7,
              "ticks": 126613,
              "time": 135.27042765208333,
              "value": 0.5748031496062992
            },
            {
              "number": 7,
              "ticks": 126748,
              "time": 135.41465855833331,
              "value": 0.5748031496062992
            },
            {
              "number": 7,
              "ticks": 126884,
              "time": 135.55995784166666,
              "value": 0.5748031496062992
            },
            {
              "number": 7,
              "ticks": 127020,
              "time": 135.705257125,
              "value": 0.5748031496062992
            },
            {
              "number": 7,
              "ticks": 127155,
              "time": 135.84948803125,
              "value": 0.5748031496062992
            },
            {
              "number": 7,
              "ticks": 127292,
              "time": 135.99585569166666,
              "value": 0.5748031496062992
            },
            {
              "number": 7,
              "ticks": 127427,
              "time": 136.14008659791665,
              "value": 0.5748031496062992
            },
            {
              "number": 7,
              "ticks": 127562,
              "time": 136.28431750416667,
              "value": 0.5748031496062992
            },
            {
              "number": 7,
              "ticks": 127699,
              "time": 136.4306851645833,
              "value": 0.5748031496062992
            },
            {
              "number": 7,
              "ticks": 127834,
              "time": 136.57491607083332,
              "value": 0.5748031496062992
            },
            {
              "number": 7,
              "ticks": 127970,
              "time": 136.72021535416667,
              "value": 0.5748031496062992
            },
            {
              "number": 7,
              "ticks": 128105,
              "time": 136.86444626041666,
              "value": 0.5748031496062992
            },
            {
              "number": 7,
              "ticks": 128241,
              "time": 137.00974554375,
              "value": 0.5748031496062992
            },
            {
              "number": 7,
              "ticks": 128377,
              "time": 137.15504482708334,
              "value": 0.5748031496062992
            },
            {
              "number": 7,
              "ticks": 128512,
              "time": 137.29927573333333,
              "value": 0.5748031496062992
            },
            {
              "number": 7,
              "ticks": 128649,
              "time": 137.44564339375,
              "value": 0.5748031496062992
            },
            {
              "number": 7,
              "ticks": 128784,
              "time": 137.5898743,
              "value": 0.5748031496062992
            },
            {
              "number": 7,
              "ticks": 128920,
              "time": 137.7351735833333,
              "value": 0.5748031496062992
            },
            {
              "number": 7,
              "ticks": 129055,
              "time": 137.87940448958332,
              "value": 0.5748031496062992
            },
            {
              "number": 7,
              "ticks": 129191,
              "time": 138.02470377291667,
              "value": 0.5748031496062992
            },
            {
              "number": 7,
              "ticks": 129327,
              "time": 138.17000305624998,
              "value": 0.5748031496062992
            },
            {
              "number": 7,
              "ticks": 129462,
              "time": 138.31423396249997,
              "value": 0.5748031496062992
            },
            {
              "number": 7,
              "ticks": 129599,
              "time": 138.46060162291664,
              "value": 0.5748031496062992
            },
            {
              "number": 7,
              "ticks": 129734,
              "time": 138.60483252916666,
              "value": 0.5748031496062992
            },
            {
              "number": 7,
              "ticks": 129869,
              "time": 138.74906343541664,
              "value": 0.5748031496062992
            },
            {
              "number": 7,
              "ticks": 130006,
              "time": 138.89543109583335,
              "value": 0.5748031496062992
            },
            {
              "number": 7,
              "ticks": 130141,
              "time": 139.03966200208333,
              "value": 0.5748031496062992
            },
            {
              "number": 7,
              "ticks": 130277,
              "time": 139.18496128541665,
              "value": 0.5748031496062992
            },
            {
              "number": 7,
              "ticks": 130412,
              "time": 139.32919219166666,
              "value": 0.5748031496062992
            },
            {
              "number": 7,
              "ticks": 130548,
              "time": 139.474491475,
              "value": 0.5748031496062992
            },
            {
              "number": 7,
              "ticks": 130684,
              "time": 139.61979075833332,
              "value": 0.5748031496062992
            },
            {
              "number": 7,
              "ticks": 130819,
              "time": 139.7640216645833,
              "value": 0.5748031496062992
            },
            {
              "number": 7,
              "ticks": 130956,
              "time": 139.91038932499998,
              "value": 0.5748031496062992
            },
            {
              "number": 7,
              "ticks": 131091,
              "time": 140.05462023125,
              "value": 0.5748031496062992
            },
            {
              "number": 7,
              "ticks": 131226,
              "time": 140.1988511375,
              "value": 0.5748031496062992
            },
            {
              "number": 7,
              "ticks": 131363,
              "time": 140.34521879791666,
              "value": 0.5748031496062992
            },
            {
              "number": 7,
              "ticks": 131498,
              "time": 140.48944970416665,
              "value": 0.5748031496062992
            },
            {
              "number": 7,
              "ticks": 131634,
              "time": 140.6347489875,
              "value": 0.5748031496062992
            },
            {
              "number": 7,
              "ticks": 131769,
              "time": 140.77897989375,
              "value": 0.5748031496062992
            },
            {
              "number": 7,
              "ticks": 131906,
              "time": 140.92534755416665,
              "value": 0.5748031496062992
            },
            {
              "number": 7,
              "ticks": 132041,
              "time": 141.06957846041666,
              "value": 0.5748031496062992
            },
            {
              "number": 7,
              "ticks": 132176,
              "time": 141.21380936666665,
              "value": 0.5748031496062992
            },
            {
              "number": 7,
              "ticks": 132313,
              "time": 141.36017702708332,
              "value": 0.5748031496062992
            },
            {
              "number": 7,
              "ticks": 132448,
              "time": 141.50440793333334,
              "value": 0.5748031496062992
            },
            {
              "number": 7,
              "ticks": 132584,
              "time": 141.64970721666666,
              "value": 0.5748031496062992
            },
            {
              "number": 7,
              "ticks": 132719,
              "time": 141.79393812291664,
              "value": 0.5748031496062992
            },
            {
              "number": 7,
              "ticks": 132855,
              "time": 141.93923740625,
              "value": 0.5748031496062992
            },
            {
              "number": 7,
              "ticks": 132991,
              "time": 142.08453668958333,
              "value": 0.5748031496062992
            },
            {
              "number": 7,
              "ticks": 133126,
              "time": 142.22876759583335,
              "value": 0.5748031496062992
            },
            {
              "number": 7,
              "ticks": 133263,
              "time": 142.37513525625,
              "value": 0.5748031496062992
            },
            {
              "number": 7,
              "ticks": 133398,
              "time": 142.5193661625,
              "value": 0.5748031496062992
            },
            {
              "number": 7,
              "ticks": 133533,
              "time": 142.66359706875,
              "value": 0.5748031496062992
            },
            {
              "number": 7,
              "ticks": 133670,
              "time": 142.80996472916667,
              "value": 0.5748031496062992
            },
            {
              "number": 7,
              "ticks": 133805,
              "time": 142.95419563541668,
              "value": 0.5748031496062992
            },
            {
              "number": 7,
              "ticks": 133941,
              "time": 143.09949491875,
              "value": 0.5748031496062992
            },
            {
              "number": 7,
              "ticks": 134076,
              "time": 143.24372582499998,
              "value": 0.5748031496062992
            },
            {
              "number": 7,
              "ticks": 134213,
              "time": 143.39009348541666,
              "value": 0.5748031496062992
            },
            {
              "number": 7,
              "ticks": 134348,
              "time": 143.53432439166664,
              "value": 0.5748031496062992
            },
            {
              "number": 7,
              "ticks": 134483,
              "time": 143.67855529791666,
              "value": 0.5748031496062992
            },
            {
              "number": 7,
              "ticks": 134620,
              "time": 143.8249229583333,
              "value": 0.5748031496062992
            },
            {
              "number": 7,
              "ticks": 134755,
              "time": 143.96915386458332,
              "value": 0.5748031496062992
            },
            {
              "number": 7,
              "ticks": 134891,
              "time": 144.11445314791666,
              "value": 0.5748031496062992
            },
            {
              "number": 7,
              "ticks": 135026,
              "time": 144.25868405416665,
              "value": 0.5748031496062992
            },
            {
              "number": 7,
              "ticks": 135162,
              "time": 144.4039833375,
              "value": 0.5748031496062992
            },
            {
              "number": 7,
              "ticks": 135298,
              "time": 144.54928262083334,
              "value": 0.5748031496062992
            },
            {
              "number": 7,
              "ticks": 135433,
              "time": 144.69351352708333,
              "value": 0.5748031496062992
            },
            {
              "number": 7,
              "ticks": 135570,
              "time": 144.8398811875,
              "value": 0.5748031496062992
            },
            {
              "number": 7,
              "ticks": 135705,
              "time": 144.98411209374999,
              "value": 0.5748031496062992
            },
            {
              "number": 7,
              "ticks": 135840,
              "time": 145.128343,
              "value": 0.5748031496062992
            },
            {
              "number": 7,
              "ticks": 135977,
              "time": 145.27471066041664,
              "value": 0.5748031496062992
            },
            {
              "number": 7,
              "ticks": 136112,
              "time": 145.41894156666666,
              "value": 0.5748031496062992
            },
            {
              "number": 7,
              "ticks": 136248,
              "time": 145.56424085,
              "value": 0.5748031496062992
            },
            {
              "number": 7,
              "ticks": 136383,
              "time": 145.70847175625,
              "value": 0.5748031496062992
            },
            {
              "number": 7,
              "ticks": 136519,
              "time": 145.8537710395833,
              "value": 0.5748031496062992
            },
            {
              "number": 7,
              "ticks": 136655,
              "time": 145.99907032291668,
              "value": 0.5748031496062992
            },
            {
              "number": 7,
              "ticks": 136790,
              "time": 146.14330122916667,
              "value": 0.5748031496062992
            },
            {
              "number": 7,
              "ticks": 136927,
              "time": 146.28966888958334,
              "value": 0.5748031496062992
            },
            {
              "number": 7,
              "ticks": 137062,
              "time": 146.43389979583333,
              "value": 0.5748031496062992
            },
            {
              "number": 7,
              "ticks": 137198,
              "time": 146.57919907916664,
              "value": 0.5748031496062992
            },
            {
              "number": 7,
              "ticks": 137333,
              "time": 146.72342998541666,
              "value": 0.5748031496062992
            },
            {
              "number": 7,
              "ticks": 137469,
              "time": 146.86872926875,
              "value": 0.5748031496062992
            },
            {
              "number": 7,
              "ticks": 137605,
              "time": 147.01402855208332,
              "value": 0.5748031496062992
            },
            {
              "number": 7,
              "ticks": 137740,
              "time": 147.1582594583333,
              "value": 0.5748031496062992
            },
            {
              "number": 7,
              "ticks": 137877,
              "time": 147.30462711874998,
              "value": 0.5748031496062992
            },
            {
              "number": 7,
              "ticks": 138012,
              "time": 147.448858025,
              "value": 0.5748031496062992
            },
            {
              "number": 7,
              "ticks": 138147,
              "time": 147.59308893124998,
              "value": 0.5748031496062992
            },
            {
              "number": 7,
              "ticks": 138284,
              "time": 147.73945659166665,
              "value": 0.5748031496062992
            },
            {
              "number": 7,
              "ticks": 138419,
              "time": 147.88368749791664,
              "value": 0.5748031496062992
            },
            {
              "number": 7,
              "ticks": 138555,
              "time": 148.02898678124998,
              "value": 0.5748031496062992
            },
            {
              "number": 7,
              "ticks": 138690,
              "time": 148.1732176875,
              "value": 0.5748031496062992
            },
            {
              "number": 7,
              "ticks": 138826,
              "time": 148.31851697083334,
              "value": 0.5748031496062992
            },
            {
              "number": 7,
              "ticks": 138962,
              "time": 148.46381625416666,
              "value": 0.5748031496062992
            },
            {
              "number": 7,
              "ticks": 139097,
              "time": 148.60804716041665,
              "value": 0.5748031496062992
            },
            {
              "number": 7,
              "ticks": 139234,
              "time": 148.75441482083332,
              "value": 0.5748031496062992
            },
            {
              "number": 7,
              "ticks": 139369,
              "time": 148.89864572708333,
              "value": 0.5748031496062992
            },
            {
              "number": 7,
              "ticks": 139505,
              "time": 149.04394501041668,
              "value": 0.5826771653543307
            },
            {
              "number": 7,
              "ticks": 139640,
              "time": 149.18817591666667,
              "value": 0.5826771653543307
            },
            {
              "number": 7,
              "ticks": 139776,
              "time": 149.33347519999998,
              "value": 0.5826771653543307
            },
            {
              "number": 7,
              "ticks": 139912,
              "time": 149.47877448333332,
              "value": 0.5826771653543307
            },
            {
              "number": 7,
              "ticks": 140047,
              "time": 149.62300538958334,
              "value": 0.5826771653543307
            },
            {
              "number": 7,
              "ticks": 140184,
              "time": 149.76937304999998,
              "value": 0.5826771653543307
            },
            {
              "number": 7,
              "ticks": 140319,
              "time": 149.91360395625,
              "value": 0.5826771653543307
            },
            {
              "number": 7,
              "ticks": 140454,
              "time": 150.0578348625,
              "value": 0.5826771653543307
            },
            {
              "number": 7,
              "ticks": 140591,
              "time": 150.20420252291666,
              "value": 0.5826771653543307
            },
            {
              "number": 7,
              "ticks": 140726,
              "time": 150.34843342916668,
              "value": 0.5826771653543307
            },
            {
              "number": 7,
              "ticks": 140862,
              "time": 150.4937327125,
              "value": 0.5826771653543307
            },
            {
              "number": 7,
              "ticks": 140997,
              "time": 150.63796361874998,
              "value": 0.5826771653543307
            },
            {
              "number": 7,
              "ticks": 141133,
              "time": 150.78326290208332,
              "value": 0.5826771653543307
            },
            {
              "number": 7,
              "ticks": 141269,
              "time": 150.92856218541664,
              "value": 0.5826771653543307
            },
            {
              "number": 7,
              "ticks": 141404,
              "time": 151.07279309166665,
              "value": 0.5826771653543307
            },
            {
              "number": 7,
              "ticks": 141541,
              "time": 151.21916075208333,
              "value": 0.5826771653543307
            },
            {
              "number": 7,
              "ticks": 141676,
              "time": 151.36339165833334,
              "value": 0.5826771653543307
            },
            {
              "number": 7,
              "ticks": 141811,
              "time": 151.50762256458333,
              "value": 0.5826771653543307
            },
            {
              "number": 7,
              "ticks": 141948,
              "time": 151.653990225,
              "value": 0.5826771653543307
            },
            {
              "number": 7,
              "ticks": 142083,
              "time": 151.79822113125002,
              "value": 0.5826771653543307
            },
            {
              "number": 7,
              "ticks": 142219,
              "time": 151.94352041458333,
              "value": 0.5826771653543307
            },
            {
              "number": 7,
              "ticks": 142354,
              "time": 152.08775132083332,
              "value": 0.5826771653543307
            },
            {
              "number": 7,
              "ticks": 142491,
              "time": 152.23411898125,
              "value": 0.5826771653543307
            },
            {
              "number": 7,
              "ticks": 142626,
              "time": 152.37834988749998,
              "value": 0.5826771653543307
            },
            {
              "number": 7,
              "ticks": 142761,
              "time": 152.52258079375,
              "value": 0.5826771653543307
            },
            {
              "number": 7,
              "ticks": 142898,
              "time": 152.66894845416664,
              "value": 0.5826771653543307
            },
            {
              "number": 7,
              "ticks": 143033,
              "time": 152.81317936041665,
              "value": 0.5826771653543307
            },
            {
              "number": 7,
              "ticks": 143169,
              "time": 152.95847864375,
              "value": 0.5826771653543307
            },
            {
              "number": 7,
              "ticks": 143304,
              "time": 153.10270955,
              "value": 0.5826771653543307
            },
            {
              "number": 7,
              "ticks": 143440,
              "time": 153.2480088333333,
              "value": 0.5826771653543307
            },
            {
              "number": 7,
              "ticks": 143576,
              "time": 153.39330811666667,
              "value": 0.5826771653543307
            },
            {
              "number": 7,
              "ticks": 143711,
              "time": 153.53753902291666,
              "value": 0.5826771653543307
            },
            {
              "number": 7,
              "ticks": 143848,
              "time": 153.68390668333333,
              "value": 0.5826771653543307
            },
            {
              "number": 7,
              "ticks": 143983,
              "time": 153.82813758958332,
              "value": 0.5826771653543307
            },
            {
              "number": 7,
              "ticks": 144118,
              "time": 153.97236849583334,
              "value": 0.5826771653543307
            },
            {
              "number": 7,
              "ticks": 144255,
              "time": 154.11873615624998,
              "value": 0.5826771653543307
            },
            {
              "number": 7,
              "ticks": 144390,
              "time": 154.2629670625,
              "value": 0.5826771653543307
            },
            {
              "number": 7,
              "ticks": 144526,
              "time": 154.40826634583334,
              "value": 0.5826771653543307
            },
            {
              "number": 7,
              "ticks": 144661,
              "time": 154.55249725208333,
              "value": 0.5826771653543307
            },
            {
              "number": 7,
              "ticks": 144797,
              "time": 154.69779653541664,
              "value": 0.5826771653543307
            },
            {
              "number": 7,
              "ticks": 144933,
              "time": 154.84309581875002,
              "value": 0.5826771653543307
            },
            {
              "number": 7,
              "ticks": 145068,
              "time": 154.987326725,
              "value": 0.5826771653543307
            },
            {
              "number": 7,
              "ticks": 145205,
              "time": 155.13369438541667,
              "value": 0.5826771653543307
            },
            {
              "number": 7,
              "ticks": 145340,
              "time": 155.27792529166666,
              "value": 0.5826771653543307
            },
            {
              "number": 7,
              "ticks": 145476,
              "time": 155.42322457499998,
              "value": 0.5826771653543307
            },
            {
              "number": 7,
              "ticks": 145611,
              "time": 155.56745548125,
              "value": 0.5826771653543307
            },
            {
              "number": 7,
              "ticks": 145747,
              "time": 155.71275476458334,
              "value": 0.5826771653543307
            },
            {
              "number": 7,
              "ticks": 145883,
              "time": 155.85805404791665,
              "value": 0.5826771653543307
            },
            {
              "number": 7,
              "ticks": 146018,
              "time": 156.00228495416664,
              "value": 0.5826771653543307
            },
            {
              "number": 7,
              "ticks": 146155,
              "time": 156.1486526145833,
              "value": 0.5826771653543307
            },
            {
              "number": 7,
              "ticks": 146290,
              "time": 156.29288352083333,
              "value": 0.5826771653543307
            },
            {
              "number": 7,
              "ticks": 146425,
              "time": 156.43711442708332,
              "value": 0.5826771653543307
            },
            {
              "number": 7,
              "ticks": 146562,
              "time": 156.5834820875,
              "value": 0.5826771653543307
            },
            {
              "number": 7,
              "ticks": 146697,
              "time": 156.72771299374998,
              "value": 0.5826771653543307
            },
            {
              "number": 7,
              "ticks": 146833,
              "time": 156.87301227708332,
              "value": 0.5826771653543307
            },
            {
              "number": 7,
              "ticks": 146968,
              "time": 157.01724318333333,
              "value": 0.5826771653543307
            },
            {
              "number": 7,
              "ticks": 147104,
              "time": 157.16254246666665,
              "value": 0.5826771653543307
            },
            {
              "number": 7,
              "ticks": 147240,
              "time": 157.30784175,
              "value": 0.5826771653543307
            },
            {
              "number": 7,
              "ticks": 147375,
              "time": 157.45207265624998,
              "value": 0.5826771653543307
            },
            {
              "number": 7,
              "ticks": 147512,
              "time": 157.59844031666665,
              "value": 0.5826771653543307
            },
            {
              "number": 7,
              "ticks": 147647,
              "time": 157.74267122291667,
              "value": 0.5826771653543307
            },
            {
              "number": 7,
              "ticks": 147783,
              "time": 157.88797050625,
              "value": 0.5826771653543307
            },
            {
              "number": 7,
              "ticks": 147918,
              "time": 158.0322014125,
              "value": 0.5826771653543307
            },
            {
              "number": 7,
              "ticks": 148054,
              "time": 158.17750069583332,
              "value": 0.5826771653543307
            },
            {
              "number": 7,
              "ticks": 148190,
              "time": 158.32279997916666,
              "value": 0.5826771653543307
            },
            {
              "number": 7,
              "ticks": 148325,
              "time": 158.46703088541668,
              "value": 0.5826771653543307
            },
            {
              "number": 7,
              "ticks": 148462,
              "time": 158.61339854583332,
              "value": 0.5826771653543307
            },
            {
              "number": 7,
              "ticks": 148597,
              "time": 158.75762945208334,
              "value": 0.5826771653543307
            },
            {
              "number": 7,
              "ticks": 148732,
              "time": 158.90186035833332,
              "value": 0.5826771653543307
            },
            {
              "number": 7,
              "ticks": 148869,
              "time": 159.04822801875,
              "value": 0.5826771653543307
            },
            {
              "number": 7,
              "ticks": 149004,
              "time": 159.192458925,
              "value": 0.5826771653543307
            },
            {
              "number": 7,
              "ticks": 149140,
              "time": 159.33775820833333,
              "value": 0.5826771653543307
            },
            {
              "number": 7,
              "ticks": 149275,
              "time": 159.4819891145833,
              "value": 0.5826771653543307
            },
            {
              "number": 7,
              "ticks": 149411,
              "time": 159.62728839791666,
              "value": 0.5826771653543307
            },
            {
              "number": 7,
              "ticks": 149547,
              "time": 159.77258768124997,
              "value": 0.5826771653543307
            },
            {
              "number": 7,
              "ticks": 149682,
              "time": 159.9168185875,
              "value": 0.5826771653543307
            },
            {
              "number": 7,
              "ticks": 149819,
              "time": 160.06318624791663,
              "value": 0.5826771653543307
            },
            {
              "number": 7,
              "ticks": 149954,
              "time": 160.20741715416665,
              "value": 0.5826771653543307
            },
            {
              "number": 7,
              "ticks": 150089,
              "time": 160.35164806041664,
              "value": 0.5826771653543307
            },
            {
              "number": 7,
              "ticks": 150226,
              "time": 160.49801572083334,
              "value": 0.5826771653543307
            },
            {
              "number": 7,
              "ticks": 150361,
              "time": 160.64224662708332,
              "value": 0.5826771653543307
            },
            {
              "number": 7,
              "ticks": 150497,
              "time": 160.78754591041667,
              "value": 0.5826771653543307
            },
            {
              "number": 7,
              "ticks": 150632,
              "time": 160.93177681666666,
              "value": 0.5826771653543307
            },
            {
              "number": 7,
              "ticks": 150769,
              "time": 161.07814447708333,
              "value": 0.5826771653543307
            },
            {
              "number": 7,
              "ticks": 150904,
              "time": 161.22237538333331,
              "value": 0.5826771653543307
            },
            {
              "number": 7,
              "ticks": 151039,
              "time": 161.36660628958333,
              "value": 0.5826771653543307
            },
            {
              "number": 7,
              "ticks": 151176,
              "time": 161.51297394999997,
              "value": 0.5826771653543307
            },
            {
              "number": 7,
              "ticks": 151311,
              "time": 161.65720485625,
              "value": 0.5826771653543307
            },
            {
              "number": 7,
              "ticks": 151447,
              "time": 161.80250413958333,
              "value": 0.5826771653543307
            },
            {
              "number": 7,
              "ticks": 151582,
              "time": 161.94673504583332,
              "value": 0.5826771653543307
            },
            {
              "number": 7,
              "ticks": 151718,
              "time": 162.09203432916664,
              "value": 0.5826771653543307
            },
            {
              "number": 7,
              "ticks": 151854,
              "time": 162.2373336125,
              "value": 0.5826771653543307
            },
            {
              "number": 7,
              "ticks": 151989,
              "time": 162.38156451875,
              "value": 0.5826771653543307
            },
            {
              "number": 7,
              "ticks": 152126,
              "time": 162.52793217916667,
              "value": 0.5826771653543307
            },
            {
              "number": 7,
              "ticks": 152261,
              "time": 162.67216308541666,
              "value": 0.5826771653543307
            },
            {
              "number": 7,
              "ticks": 152396,
              "time": 162.81639399166667,
              "value": 0.5826771653543307
            },
            {
              "number": 7,
              "ticks": 152533,
              "time": 162.96276165208332,
              "value": 0.5826771653543307
            },
            {
              "number": 7,
              "ticks": 152668,
              "time": 163.10699255833333,
              "value": 0.5826771653543307
            },
            {
              "number": 7,
              "ticks": 152804,
              "time": 163.25229184166665,
              "value": 0.5826771653543307
            },
            {
              "number": 7,
              "ticks": 152939,
              "time": 163.39652274791663,
              "value": 0.5826771653543307
            },
            {
              "number": 7,
              "ticks": 153076,
              "time": 163.54289040833334,
              "value": 0.5826771653543307
            },
            {
              "number": 7,
              "ticks": 153211,
              "time": 163.68712131458335,
              "value": 0.5826771653543307
            },
            {
              "number": 7,
              "ticks": 153346,
              "time": 163.83135222083334,
              "value": 0.5826771653543307
            },
            {
              "number": 7,
              "ticks": 153483,
              "time": 163.97771988125,
              "value": 0.5826771653543307
            },
            {
              "number": 7,
              "ticks": 153618,
              "time": 164.1219507875,
              "value": 0.5826771653543307
            },
            {
              "number": 7,
              "ticks": 153754,
              "time": 164.2672500708333,
              "value": 0.5826771653543307
            },
            {
              "number": 7,
              "ticks": 153889,
              "time": 164.41148097708333,
              "value": 0.5826771653543307
            },
            {
              "number": 7,
              "ticks": 154025,
              "time": 164.55678026041667,
              "value": 0.5826771653543307
            },
            {
              "number": 7,
              "ticks": 154161,
              "time": 164.70207954375,
              "value": 0.5826771653543307
            },
            {
              "number": 7,
              "ticks": 154296,
              "time": 164.84631044999998,
              "value": 0.5826771653543307
            },
            {
              "number": 7,
              "ticks": 154433,
              "time": 164.99267811041665,
              "value": 0.5826771653543307
            },
            {
              "number": 7,
              "ticks": 154568,
              "time": 165.13690901666666,
              "value": 0.5826771653543307
            },
            {
              "number": 7,
              "ticks": 154703,
              "time": 165.28113992291665,
              "value": 0.5826771653543307
            },
            {
              "number": 7,
              "ticks": 154840,
              "time": 165.42750758333332,
              "value": 0.5826771653543307
            },
            {
              "number": 7,
              "ticks": 154975,
              "time": 165.5717384895833,
              "value": 0.5826771653543307
            },
            {
              "number": 7,
              "ticks": 155111,
              "time": 165.71703777291665,
              "value": 0.5826771653543307
            },
            {
              "number": 7,
              "ticks": 155246,
              "time": 165.86126867916667,
              "value": 0.5826771653543307
            },
            {
              "number": 7,
              "ticks": 155382,
              "time": 166.0065679625,
              "value": 0.5826771653543307
            },
            {
              "number": 7,
              "ticks": 155518,
              "time": 166.15186724583333,
              "value": 0.5826771653543307
            },
            {
              "number": 7,
              "ticks": 155653,
              "time": 166.29609815208332,
              "value": 0.5826771653543307
            },
            {
              "number": 7,
              "ticks": 155790,
              "time": 166.4424658125,
              "value": 0.5826771653543307
            },
            {
              "number": 7,
              "ticks": 155925,
              "time": 166.58669671874998,
              "value": 0.5826771653543307
            },
            {
              "number": 7,
              "ticks": 156061,
              "time": 166.73199600208335,
              "value": 0.5826771653543307
            },
            {
              "number": 7,
              "ticks": 156196,
              "time": 166.87622690833334,
              "value": 0.5826771653543307
            },
            {
              "number": 7,
              "ticks": 156332,
              "time": 167.02152619166665,
              "value": 0.5826771653543307
            },
            {
              "number": 7,
              "ticks": 156468,
              "time": 167.166825475,
              "value": 0.5826771653543307
            },
            {
              "number": 7,
              "ticks": 156603,
              "time": 167.31105638125,
              "value": 0.5826771653543307
            },
            {
              "number": 7,
              "ticks": 156740,
              "time": 167.45742404166666,
              "value": 0.5826771653543307
            },
            {
              "number": 7,
              "ticks": 156875,
              "time": 167.60165494791667,
              "value": 0.5826771653543307
            },
            {
              "number": 7,
              "ticks": 157010,
              "time": 167.74588585416666,
              "value": 0.5826771653543307
            },
            {
              "number": 7,
              "ticks": 157147,
              "time": 167.89225351458333,
              "value": 0.5826771653543307
            },
            {
              "number": 7,
              "ticks": 157282,
              "time": 168.03648442083332,
              "value": 0.5826771653543307
            },
            {
              "number": 7,
              "ticks": 157418,
              "time": 168.18178370416666,
              "value": 0.5826771653543307
            },
            {
              "number": 7,
              "ticks": 157553,
              "time": 168.32601461041665,
              "value": 0.5826771653543307
            },
            {
              "number": 7,
              "ticks": 157689,
              "time": 168.47131389375,
              "value": 0.5826771653543307
            },
            {
              "number": 7,
              "ticks": 157825,
              "time": 168.6166131770833,
              "value": 0.5826771653543307
            },
            {
              "number": 7,
              "ticks": 157960,
              "time": 168.76084408333332,
              "value": 0.5826771653543307
            },
            {
              "number": 7,
              "ticks": 158097,
              "time": 168.90721174374997,
              "value": 0.5826771653543307
            },
            {
              "number": 7,
              "ticks": 158232,
              "time": 169.05144264999998,
              "value": 0.5826771653543307
            },
            {
              "number": 7,
              "ticks": 158368,
              "time": 169.19674193333333,
              "value": 0.5826771653543307
            },
            {
              "number": 7,
              "ticks": 158503,
              "time": 169.34097283958332,
              "value": 0.5826771653543307
            },
            {
              "number": 7,
              "ticks": 158639,
              "time": 169.48627212291663,
              "value": 0.5826771653543307
            },
            {
              "number": 7,
              "ticks": 158775,
              "time": 169.63157140625,
              "value": 0.5826771653543307
            },
            {
              "number": 7,
              "ticks": 158910,
              "time": 169.7758023125,
              "value": 0.5826771653543307
            },
            {
              "number": 7,
              "ticks": 159047,
              "time": 169.92216997291666,
              "value": 0.5826771653543307
            },
            {
              "number": 7,
              "ticks": 159182,
              "time": 170.06640087916665,
              "value": 0.5826771653543307
            },
            {
              "number": 7,
              "ticks": 159317,
              "time": 170.21063178541667,
              "value": 0.5826771653543307
            },
            {
              "number": 7,
              "ticks": 159454,
              "time": 170.3569994458333,
              "value": 0.5826771653543307
            },
            {
              "number": 7,
              "ticks": 159589,
              "time": 170.50123035208333,
              "value": 0.5826771653543307
            },
            {
              "number": 7,
              "ticks": 159725,
              "time": 170.64652963541667,
              "value": 0.5826771653543307
            },
            {
              "number": 7,
              "ticks": 159860,
              "time": 170.79076054166666,
              "value": 0.5826771653543307
            },
            {
              "number": 7,
              "ticks": 159996,
              "time": 170.93605982499997,
              "value": 0.5826771653543307
            },
            {
              "number": 7,
              "ticks": 160132,
              "time": 171.08135910833334,
              "value": 0.5826771653543307
            },
            {
              "number": 7,
              "ticks": 160268,
              "time": 171.22665839166666,
              "value": 0.5826771653543307
            },
            {
              "number": 7,
              "ticks": 160403,
              "time": 171.37088929791665,
              "value": 0.5826771653543307
            },
            {
              "number": 7,
              "ticks": 160539,
              "time": 171.51618858125,
              "value": 0.5826771653543307
            },
            {
              "number": 7,
              "ticks": 160674,
              "time": 171.6604194875,
              "value": 0.5826771653543307
            },
            {
              "number": 7,
              "ticks": 160811,
              "time": 171.80678714791665,
              "value": 0.5826771653543307
            },
            {
              "number": 7,
              "ticks": 160946,
              "time": 171.95101805416667,
              "value": 0.5826771653543307
            },
            {
              "number": 7,
              "ticks": 161082,
              "time": 172.09631733749998,
              "value": 0.5826771653543307
            },
            {
              "number": 7,
              "ticks": 161217,
              "time": 172.24054824374997,
              "value": 0.5826771653543307
            },
            {
              "number": 7,
              "ticks": 161354,
              "time": 172.38691590416664,
              "value": 0.5826771653543307
            },
            {
              "number": 7,
              "ticks": 161489,
              "time": 172.53114681041663,
              "value": 0.5826771653543307
            },
            {
              "number": 7,
              "ticks": 161624,
              "time": 172.67537771666665,
              "value": 0.5826771653543307
            },
            {
              "number": 7,
              "ticks": 161761,
              "time": 172.82174537708335,
              "value": 0.5826771653543307
            },
            {
              "number": 7,
              "ticks": 161896,
              "time": 172.96597628333333,
              "value": 0.5826771653543307
            },
            {
              "number": 7,
              "ticks": 162032,
              "time": 173.11127556666665,
              "value": 0.5826771653543307
            },
            {
              "number": 7,
              "ticks": 162167,
              "time": 173.25550647291666,
              "value": 0.5826771653543307
            },
            {
              "number": 7,
              "ticks": 162303,
              "time": 173.40080575625,
              "value": 0.5826771653543307
            },
            {
              "number": 7,
              "ticks": 162439,
              "time": 173.54610503958332,
              "value": 0.5826771653543307
            },
            {
              "number": 7,
              "ticks": 162574,
              "time": 173.6903359458333,
              "value": 0.5826771653543307
            },
            {
              "number": 7,
              "ticks": 162711,
              "time": 173.83670360624998,
              "value": 0.5826771653543307
            },
            {
              "number": 7,
              "ticks": 162846,
              "time": 173.98093451249997,
              "value": 0.5826771653543307
            },
            {
              "number": 7,
              "ticks": 162981,
              "time": 174.12516541875,
              "value": 0.5826771653543307
            },
            {
              "number": 7,
              "ticks": 163118,
              "time": 174.27153307916666,
              "value": 0.5826771653543307
            },
            {
              "number": 7,
              "ticks": 163253,
              "time": 174.41576398541665,
              "value": 0.5826771653543307
            },
            {
              "number": 7,
              "ticks": 163389,
              "time": 174.56106326875,
              "value": 0.5826771653543307
            },
            {
              "number": 7,
              "ticks": 163524,
              "time": 174.705294175,
              "value": 0.5826771653543307
            },
            {
              "number": 7,
              "ticks": 163661,
              "time": 174.85166183541665,
              "value": 0.5826771653543307
            },
            {
              "number": 7,
              "ticks": 163796,
              "time": 174.99589274166667,
              "value": 0.5826771653543307
            },
            {
              "number": 7,
              "ticks": 163931,
              "time": 175.14012364791665,
              "value": 0.5826771653543307
            },
            {
              "number": 7,
              "ticks": 164068,
              "time": 175.28649130833332,
              "value": 0.5826771653543307
            },
            {
              "number": 7,
              "ticks": 164203,
              "time": 175.4307222145833,
              "value": 0.5826771653543307
            },
            {
              "number": 7,
              "ticks": 164339,
              "time": 175.57602149791666,
              "value": 0.5826771653543307
            },
            {
              "number": 7,
              "ticks": 164474,
              "time": 175.72025240416664,
              "value": 0.5826771653543307
            },
            {
              "number": 7,
              "ticks": 164610,
              "time": 175.8655516875,
              "value": 0.5826771653543307
            },
            {
              "number": 7,
              "ticks": 164746,
              "time": 176.01085097083333,
              "value": 0.5826771653543307
            },
            {
              "number": 7,
              "ticks": 164881,
              "time": 176.15508187708335,
              "value": 0.5826771653543307
            },
            {
              "number": 7,
              "ticks": 165018,
              "time": 176.3014495375,
              "value": 0.5826771653543307
            },
            {
              "number": 7,
              "ticks": 165153,
              "time": 176.44568044375,
              "value": 0.5826771653543307
            },
            {
              "number": 7,
              "ticks": 165288,
              "time": 176.58991135,
              "value": 0.5826771653543307
            },
            {
              "number": 7,
              "ticks": 165425,
              "time": 176.73627901041667,
              "value": 0.5826771653543307
            },
            {
              "number": 7,
              "ticks": 165560,
              "time": 176.88050991666665,
              "value": 0.5826771653543307
            },
            {
              "number": 7,
              "ticks": 165696,
              "time": 177.0258092,
              "value": 0.5826771653543307
            },
            {
              "number": 7,
              "ticks": 165831,
              "time": 177.17004010624999,
              "value": 0.5826771653543307
            },
            {
              "number": 7,
              "ticks": 165967,
              "time": 177.31533938958333,
              "value": 0.5826771653543307
            },
            {
              "number": 7,
              "ticks": 166103,
              "time": 177.46063867291664,
              "value": 0.5826771653543307
            },
            {
              "number": 7,
              "ticks": 166238,
              "time": 177.60486957916666,
              "value": 0.5826771653543307
            },
            {
              "number": 7,
              "ticks": 166375,
              "time": 177.7512372395833,
              "value": 0.5826771653543307
            },
            {
              "number": 7,
              "ticks": 166510,
              "time": 177.89546814583332,
              "value": 0.5826771653543307
            },
            {
              "number": 7,
              "ticks": 166646,
              "time": 178.04076742916666,
              "value": 0.5826771653543307
            },
            {
              "number": 7,
              "ticks": 166781,
              "time": 178.18499833541665,
              "value": 0.5826771653543307
            },
            {
              "number": 7,
              "ticks": 166917,
              "time": 178.33029761874997,
              "value": 0.5826771653543307
            },
            {
              "number": 7,
              "ticks": 167053,
              "time": 178.47559690208334,
              "value": 0.5826771653543307
            },
            {
              "number": 7,
              "ticks": 167188,
              "time": 178.61982780833333,
              "value": 0.5826771653543307
            },
            {
              "number": 7,
              "ticks": 167324,
              "time": 178.76512709166664,
              "value": 0.5826771653543307
            },
            {
              "number": 7,
              "ticks": 167460,
              "time": 178.910426375,
              "value": 0.5826771653543307
            },
            {
              "number": 7,
              "ticks": 167595,
              "time": 179.05465728125,
              "value": 0.5826771653543307
            },
            {
              "number": 7,
              "ticks": 167731,
              "time": 179.19995656458335,
              "value": 0.5826771653543307
            },
            {
              "number": 7,
              "ticks": 167867,
              "time": 179.34525584791666,
              "value": 0.5826771653543307
            },
            {
              "number": 7,
              "ticks": 168003,
              "time": 179.49055513125,
              "value": 0.5826771653543307
            },
            {
              "number": 7,
              "ticks": 168138,
              "time": 179.6347860375,
              "value": 0.5826771653543307
            },
            {
              "number": 7,
              "ticks": 168274,
              "time": 179.7800853208333,
              "value": 0.5826771653543307
            },
            {
              "number": 7,
              "ticks": 168410,
              "time": 179.92538460416668,
              "value": 0.5826771653543307
            },
            {
              "number": 7,
              "ticks": 168545,
              "time": 180.06961551041667,
              "value": 0.5826771653543307
            },
            {
              "number": 7,
              "ticks": 168681,
              "time": 180.21491479374998,
              "value": 0.5826771653543307
            },
            {
              "number": 7,
              "ticks": 168817,
              "time": 180.36021407708333,
              "value": 0.5826771653543307
            },
            {
              "number": 7,
              "ticks": 168953,
              "time": 180.50551336041664,
              "value": 0.5826771653543307
            },
            {
              "number": 7,
              "ticks": 169088,
              "time": 180.64974426666666,
              "value": 0.5826771653543307
            },
            {
              "number": 7,
              "ticks": 169224,
              "time": 180.79504355,
              "value": 0.5826771653543307
            },
            {
              "number": 7,
              "ticks": 169360,
              "time": 180.94034283333332,
              "value": 0.5826771653543307
            },
            {
              "number": 7,
              "ticks": 169495,
              "time": 181.0845737395833,
              "value": 0.5826771653543307
            },
            {
              "number": 7,
              "ticks": 169631,
              "time": 181.22987302291665,
              "value": 0.5826771653543307
            },
            {
              "number": 7,
              "ticks": 169767,
              "time": 181.37517230624997,
              "value": 0.5826771653543307
            },
            {
              "number": 7,
              "ticks": 169902,
              "time": 181.51940321249998,
              "value": 0.5826771653543307
            },
            {
              "number": 7,
              "ticks": 170038,
              "time": 181.66470249583332,
              "value": 0.5826771653543307
            },
            {
              "number": 7,
              "ticks": 170174,
              "time": 181.81000177916664,
              "value": 0.5826771653543307
            },
            {
              "number": 7,
              "ticks": 170310,
              "time": 181.95530106249998,
              "value": 0.5826771653543307
            },
            {
              "number": 7,
              "ticks": 170445,
              "time": 182.09953196875,
              "value": 0.5826771653543307
            },
            {
              "number": 7,
              "ticks": 170581,
              "time": 182.24483125208334,
              "value": 0.5826771653543307
            },
            {
              "number": 7,
              "ticks": 170717,
              "time": 182.39013053541666,
              "value": 0.5826771653543307
            },
            {
              "number": 7,
              "ticks": 170852,
              "time": 182.53436144166665,
              "value": 0.5826771653543307
            },
            {
              "number": 7,
              "ticks": 170988,
              "time": 182.679660725,
              "value": 0.5826771653543307
            },
            {
              "number": 7,
              "ticks": 171124,
              "time": 182.8249600083333,
              "value": 0.5826771653543307
            },
            {
              "number": 7,
              "ticks": 171259,
              "time": 182.96919091458332,
              "value": 0.5826771653543307
            },
            {
              "number": 7,
              "ticks": 171396,
              "time": 183.115558575,
              "value": 0.5826771653543307
            },
            {
              "number": 7,
              "ticks": 171531,
              "time": 183.25978948124998,
              "value": 0.5826771653543307
            },
            {
              "number": 7,
              "ticks": 171667,
              "time": 183.40508876458333,
              "value": 0.5826771653543307
            },
            {
              "number": 7,
              "ticks": 171802,
              "time": 183.54931967083334,
              "value": 0.5826771653543307
            },
            {
              "number": 7,
              "ticks": 171939,
              "time": 183.69568733124999,
              "value": 0.5826771653543307
            },
            {
              "number": 7,
              "ticks": 172074,
              "time": 183.8399182375,
              "value": 0.5826771653543307
            },
            {
              "number": 7,
              "ticks": 172209,
              "time": 183.98414914375,
              "value": 0.5826771653543307
            },
            {
              "number": 7,
              "ticks": 172346,
              "time": 184.13051680416666,
              "value": 0.5826771653543307
            },
            {
              "number": 7,
              "ticks": 172481,
              "time": 184.27474771041665,
              "value": 0.5826771653543307
            },
            {
              "number": 7,
              "ticks": 172617,
              "time": 184.42004699375,
              "value": 0.5826771653543307
            },
            {
              "number": 7,
              "ticks": 172752,
              "time": 184.56427789999998,
              "value": 0.5826771653543307
            },
            {
              "number": 7,
              "ticks": 172888,
              "time": 184.70957718333332,
              "value": 0.5826771653543307
            },
            {
              "number": 7,
              "ticks": 173024,
              "time": 184.85487646666664,
              "value": 0.5826771653543307
            },
            {
              "number": 7,
              "ticks": 173159,
              "time": 184.99910737291665,
              "value": 0.5826771653543307
            },
            {
              "number": 7,
              "ticks": 173296,
              "time": 185.14547503333333,
              "value": 0.5826771653543307
            },
            {
              "number": 7,
              "ticks": 173431,
              "time": 185.28970593958334,
              "value": 0.5826771653543307
            },
            {
              "number": 7,
              "ticks": 173566,
              "time": 185.43393684583333,
              "value": 0.5826771653543307
            },
            {
              "number": 7,
              "ticks": 173703,
              "time": 185.58030450625,
              "value": 0.5826771653543307
            },
            {
              "number": 7,
              "ticks": 173838,
              "time": 185.7245354125,
              "value": 0.5826771653543307
            },
            {
              "number": 7,
              "ticks": 173974,
              "time": 185.86983469583333,
              "value": 0.5826771653543307
            },
            {
              "number": 7,
              "ticks": 182134,
              "time": 194.58779169583332,
              "value": 0.5511811023622047
            },
            {
              "number": 7,
              "ticks": 182185,
              "time": 194.6422789270833,
              "value": 0.5511811023622047
            },
            {
              "number": 7,
              "ticks": 182235,
              "time": 194.69569778124998,
              "value": 0.5511811023622047
            },
            {
              "number": 7,
              "ticks": 182285,
              "time": 194.74911663541667,
              "value": 0.5511811023622047
            },
            {
              "number": 7,
              "ticks": 189485,
              "time": 202.44143163541668,
              "value": 0.5511811023622047
            },
            {
              "number": 7,
              "ticks": 189495,
              "time": 202.45211540625,
              "value": 0.5511811023622047
            },
            {
              "number": 7,
              "ticks": 189504,
              "time": 202.4617308,
              "value": 0.5511811023622047
            },
            {
              "number": 7,
              "ticks": 189514,
              "time": 202.4724145708333,
              "value": 0.5511811023622047
            },
            {
              "number": 7,
              "ticks": 189523,
              "time": 202.48202996458332,
              "value": 0.5511811023622047
            },
            {
              "number": 7,
              "ticks": 189534,
              "time": 202.49378211249999,
              "value": 0.5511811023622047
            },
            {
              "number": 7,
              "ticks": 189543,
              "time": 202.50339750625,
              "value": 0.5511811023622047
            },
            {
              "number": 7,
              "ticks": 189552,
              "time": 202.51301289999998,
              "value": 0.5511811023622047
            },
            {
              "number": 7,
              "ticks": 189562,
              "time": 202.52369667083332,
              "value": 0.5511811023622047
            },
            {
              "number": 7,
              "ticks": 189572,
              "time": 202.53438044166666,
              "value": 0.5511811023622047
            },
            {
              "number": 7,
              "ticks": 189581,
              "time": 202.54399583541667,
              "value": 0.5511811023622047
            },
            {
              "number": 7,
              "ticks": 189591,
              "time": 202.55467960624998,
              "value": 0.5511811023622047
            },
            {
              "number": 7,
              "ticks": 189600,
              "time": 202.564295,
              "value": 0.5511811023622047
            },
            {
              "number": 7,
              "ticks": 189611,
              "time": 202.57604714791665,
              "value": 0.5511811023622047
            },
            {
              "number": 7,
              "ticks": 189620,
              "time": 202.58566254166666,
              "value": 0.5511811023622047
            },
            {
              "number": 7,
              "ticks": 189629,
              "time": 202.59527793541665,
              "value": 0.5511811023622047
            },
            {
              "number": 7,
              "ticks": 189639,
              "time": 202.60596170624999,
              "value": 0.5511811023622047
            },
            {
              "number": 7,
              "ticks": 189649,
              "time": 202.61664547708332,
              "value": 0.5511811023622047
            },
            {
              "number": 7,
              "ticks": 189658,
              "time": 202.62626087083333,
              "value": 0.5511811023622047
            },
            {
              "number": 7,
              "ticks": 189668,
              "time": 202.63694464166664,
              "value": 0.5511811023622047
            },
            {
              "number": 7,
              "ticks": 189677,
              "time": 202.64656003541666,
              "value": 0.5511811023622047
            },
            {
              "number": 7,
              "ticks": 189688,
              "time": 202.65831218333332,
              "value": 0.5511811023622047
            },
            {
              "number": 7,
              "ticks": 189697,
              "time": 202.66792757708333,
              "value": 0.5511811023622047
            },
            {
              "number": 7,
              "ticks": 189706,
              "time": 202.67754297083334,
              "value": 0.5511811023622047
            },
            {
              "number": 7,
              "ticks": 189716,
              "time": 202.68822674166665,
              "value": 0.5511811023622047
            },
            {
              "number": 7,
              "ticks": 189725,
              "time": 202.69784213541666,
              "value": 0.5511811023622047
            },
            {
              "number": 7,
              "ticks": 189736,
              "time": 202.70959428333333,
              "value": 0.5511811023622047
            },
            {
              "number": 7,
              "ticks": 189745,
              "time": 202.7192096770833,
              "value": 0.5511811023622047
            },
            {
              "number": 7,
              "ticks": 189754,
              "time": 202.72882507083332,
              "value": 0.5511811023622047
            },
            {
              "number": 7,
              "ticks": 189764,
              "time": 202.73950884166663,
              "value": 0.5511811023622047
            },
            {
              "number": 7,
              "ticks": 189774,
              "time": 202.7501926125,
              "value": 0.5511811023622047
            },
            {
              "number": 7,
              "ticks": 189783,
              "time": 202.75980800625,
              "value": 0.5511811023622047
            },
            {
              "number": 7,
              "ticks": 189793,
              "time": 202.77049177708332,
              "value": 0.5511811023622047
            },
            {
              "number": 7,
              "ticks": 189802,
              "time": 202.78010717083333,
              "value": 0.5590551181102362
            },
            {
              "number": 7,
              "ticks": 189813,
              "time": 202.79185931875,
              "value": 0.5590551181102362
            },
            {
              "number": 7,
              "ticks": 189822,
              "time": 202.80147471249998,
              "value": 0.5590551181102362
            },
            {
              "number": 7,
              "ticks": 189831,
              "time": 202.81109010625,
              "value": 0.5590551181102362
            },
            {
              "number": 7,
              "ticks": 189840,
              "time": 202.8207055,
              "value": 0.5590551181102362
            },
            {
              "number": 7,
              "ticks": 189851,
              "time": 202.83245764791667,
              "value": 0.5590551181102362
            },
            {
              "number": 7,
              "ticks": 189860,
              "time": 202.84207304166665,
              "value": 0.5590551181102362
            },
            {
              "number": 7,
              "ticks": 189870,
              "time": 202.8527568125,
              "value": 0.5590551181102362
            },
            {
              "number": 7,
              "ticks": 189879,
              "time": 202.86237220625,
              "value": 0.5590551181102362
            },
            {
              "number": 7,
              "ticks": 189890,
              "time": 202.87412435416667,
              "value": 0.5590551181102362
            },
            {
              "number": 7,
              "ticks": 189899,
              "time": 202.88373974791665,
              "value": 0.5590551181102362
            },
            {
              "number": 7,
              "ticks": 189908,
              "time": 202.89335514166666,
              "value": 0.5590551181102362
            },
            {
              "number": 7,
              "ticks": 189918,
              "time": 202.9040389125,
              "value": 0.5590551181102362
            },
            {
              "number": 7,
              "ticks": 189927,
              "time": 202.91365430624998,
              "value": 0.5590551181102362
            },
            {
              "number": 7,
              "ticks": 189938,
              "time": 202.92540645416665,
              "value": 0.5590551181102362
            },
            {
              "number": 7,
              "ticks": 189947,
              "time": 202.93502184791666,
              "value": 0.5590551181102362
            },
            {
              "number": 7,
              "ticks": 189956,
              "time": 202.94463724166667,
              "value": 0.5590551181102362
            },
            {
              "number": 7,
              "ticks": 189966,
              "time": 202.95532101249998,
              "value": 0.5590551181102362
            },
            {
              "number": 7,
              "ticks": 189976,
              "time": 202.96600478333335,
              "value": 0.5590551181102362
            },
            {
              "number": 7,
              "ticks": 189985,
              "time": 202.9756201770833,
              "value": 0.5590551181102362
            },
            {
              "number": 7,
              "ticks": 189995,
              "time": 202.98630394791667,
              "value": 0.5590551181102362
            },
            {
              "number": 7,
              "ticks": 190004,
              "time": 202.99591934166665,
              "value": 0.5590551181102362
            },
            {
              "number": 7,
              "ticks": 190015,
              "time": 203.00767148958332,
              "value": 0.5590551181102362
            },
            {
              "number": 7,
              "ticks": 190024,
              "time": 203.01728688333333,
              "value": 0.5590551181102362
            },
            {
              "number": 7,
              "ticks": 190033,
              "time": 203.02690227708334,
              "value": 0.5590551181102362
            },
            {
              "number": 7,
              "ticks": 190043,
              "time": 203.03758604791665,
              "value": 0.5590551181102362
            },
            {
              "number": 7,
              "ticks": 190053,
              "time": 203.04826981875,
              "value": 0.5590551181102362
            },
            {
              "number": 7,
              "ticks": 190062,
              "time": 203.05788521249997,
              "value": 0.5590551181102362
            },
            {
              "number": 7,
              "ticks": 190072,
              "time": 203.06856898333334,
              "value": 0.5590551181102362
            },
            {
              "number": 7,
              "ticks": 190081,
              "time": 203.07818437708335,
              "value": 0.5590551181102362
            },
            {
              "number": 7,
              "ticks": 190092,
              "time": 203.08993652499998,
              "value": 0.5590551181102362
            },
            {
              "number": 7,
              "ticks": 190101,
              "time": 203.09955191875,
              "value": 0.5590551181102362
            },
            {
              "number": 7,
              "ticks": 190110,
              "time": 203.10916731249998,
              "value": 0.5669291338582677
            },
            {
              "number": 7,
              "ticks": 190120,
              "time": 203.11985108333332,
              "value": 0.5669291338582677
            },
            {
              "number": 7,
              "ticks": 190130,
              "time": 203.13053485416665,
              "value": 0.5669291338582677
            },
            {
              "number": 7,
              "ticks": 190139,
              "time": 203.14015024791664,
              "value": 0.5669291338582677
            },
            {
              "number": 7,
              "ticks": 190149,
              "time": 203.15083401875,
              "value": 0.5669291338582677
            },
            {
              "number": 7,
              "ticks": 190158,
              "time": 203.16044941250001,
              "value": 0.5669291338582677
            },
            {
              "number": 7,
              "ticks": 190168,
              "time": 203.17113318333332,
              "value": 0.5669291338582677
            },
            {
              "number": 7,
              "ticks": 190178,
              "time": 203.18181695416664,
              "value": 0.5669291338582677
            },
            {
              "number": 7,
              "ticks": 190187,
              "time": 203.19143234791665,
              "value": 0.5669291338582677
            },
            {
              "number": 7,
              "ticks": 190197,
              "time": 203.20211611874998,
              "value": 0.5669291338582677
            },
            {
              "number": 7,
              "ticks": 190206,
              "time": 203.2117315125,
              "value": 0.5669291338582677
            },
            {
              "number": 7,
              "ticks": 190217,
              "time": 203.22348366041666,
              "value": 0.5669291338582677
            },
            {
              "number": 7,
              "ticks": 190226,
              "time": 203.23309905416667,
              "value": 0.5669291338582677
            },
            {
              "number": 7,
              "ticks": 190235,
              "time": 203.24271444791665,
              "value": 0.5669291338582677
            },
            {
              "number": 7,
              "ticks": 190245,
              "time": 203.25339821875,
              "value": 0.5669291338582677
            },
            {
              "number": 7,
              "ticks": 190255,
              "time": 203.2640819895833,
              "value": 0.5669291338582677
            },
            {
              "number": 7,
              "ticks": 190264,
              "time": 203.2736973833333,
              "value": 0.5669291338582677
            },
            {
              "number": 7,
              "ticks": 190274,
              "time": 203.28438115416665,
              "value": 0.5669291338582677
            },
            {
              "number": 7,
              "ticks": 190283,
              "time": 203.29399654791663,
              "value": 0.5669291338582677
            },
            {
              "number": 7,
              "ticks": 190294,
              "time": 203.30574869583333,
              "value": 0.5669291338582677
            },
            {
              "number": 7,
              "ticks": 190303,
              "time": 203.3153640895833,
              "value": 0.5669291338582677
            },
            {
              "number": 7,
              "ticks": 190312,
              "time": 203.32497948333332,
              "value": 0.5669291338582677
            },
            {
              "number": 7,
              "ticks": 190322,
              "time": 203.33566325416666,
              "value": 0.5669291338582677
            },
            {
              "number": 7,
              "ticks": 190332,
              "time": 203.34634702499997,
              "value": 0.5669291338582677
            },
            {
              "number": 7,
              "ticks": 190341,
              "time": 203.35596241874998,
              "value": 0.5669291338582677
            },
            {
              "number": 7,
              "ticks": 190351,
              "time": 203.36664618958335,
              "value": 0.5669291338582677
            },
            {
              "number": 7,
              "ticks": 190360,
              "time": 203.3762615833333,
              "value": 0.5669291338582677
            },
            {
              "number": 7,
              "ticks": 190370,
              "time": 203.38694535416667,
              "value": 0.5669291338582677
            },
            {
              "number": 7,
              "ticks": 190380,
              "time": 203.39762912499998,
              "value": 0.5669291338582677
            },
            {
              "number": 7,
              "ticks": 190389,
              "time": 203.40724451875,
              "value": 0.5669291338582677
            },
            {
              "number": 7,
              "ticks": 190399,
              "time": 203.41792828958333,
              "value": 0.5669291338582677
            },
            {
              "number": 7,
              "ticks": 190408,
              "time": 203.4275436833333,
              "value": 0.5669291338582677
            },
            {
              "number": 7,
              "ticks": 190419,
              "time": 203.43929583125,
              "value": 0.5748031496062992
            },
            {
              "number": 7,
              "ticks": 190428,
              "time": 203.448911225,
              "value": 0.5748031496062992
            },
            {
              "number": 7,
              "ticks": 190437,
              "time": 203.45852661874997,
              "value": 0.5748031496062992
            },
            {
              "number": 7,
              "ticks": 190447,
              "time": 203.46921038958334,
              "value": 0.5748031496062992
            },
            {
              "number": 7,
              "ticks": 190457,
              "time": 203.47989416041665,
              "value": 0.5748031496062992
            },
            {
              "number": 7,
              "ticks": 190466,
              "time": 203.48950955416666,
              "value": 0.5748031496062992
            },
            {
              "number": 7,
              "ticks": 190476,
              "time": 203.50019332499997,
              "value": 0.5748031496062992
            },
            {
              "number": 7,
              "ticks": 190485,
              "time": 203.50980871874998,
              "value": 0.5748031496062992
            },
            {
              "number": 7,
              "ticks": 190496,
              "time": 203.52156086666665,
              "value": 0.5748031496062992
            },
            {
              "number": 7,
              "ticks": 190505,
              "time": 203.53117626041666,
              "value": 0.5748031496062992
            },
            {
              "number": 7,
              "ticks": 190514,
              "time": 203.54079165416664,
              "value": 0.5748031496062992
            },
            {
              "number": 7,
              "ticks": 190524,
              "time": 203.551475425,
              "value": 0.5748031496062992
            },
            {
              "number": 7,
              "ticks": 190534,
              "time": 203.56215919583332,
              "value": 0.5748031496062992
            },
            {
              "number": 7,
              "ticks": 190543,
              "time": 203.57177458958333,
              "value": 0.5748031496062992
            },
            {
              "number": 7,
              "ticks": 190553,
              "time": 203.58245836041664,
              "value": 0.5748031496062992
            },
            {
              "number": 7,
              "ticks": 190562,
              "time": 203.59207375416665,
              "value": 0.5748031496062992
            },
            {
              "number": 7,
              "ticks": 190573,
              "time": 203.60382590208332,
              "value": 0.5748031496062992
            },
            {
              "number": 7,
              "ticks": 190582,
              "time": 203.61344129583333,
              "value": 0.5748031496062992
            },
            {
              "number": 7,
              "ticks": 190591,
              "time": 203.62305668958334,
              "value": 0.5748031496062992
            },
            {
              "number": 7,
              "ticks": 190601,
              "time": 203.63374046041665,
              "value": 0.5748031496062992
            },
            {
              "number": 7,
              "ticks": 190610,
              "time": 203.64335585416666,
              "value": 0.5748031496062992
            },
            {
              "number": 7,
              "ticks": 190621,
              "time": 203.65510800208332,
              "value": 0.5748031496062992
            },
            {
              "number": 7,
              "ticks": 190630,
              "time": 203.6647233958333,
              "value": 0.5748031496062992
            },
            {
              "number": 7,
              "ticks": 190639,
              "time": 203.67433878958332,
              "value": 0.5748031496062992
            },
            {
              "number": 7,
              "ticks": 190649,
              "time": 203.68502256041666,
              "value": 0.5748031496062992
            },
            {
              "number": 7,
              "ticks": 190659,
              "time": 203.69570633125,
              "value": 0.5748031496062992
            },
            {
              "number": 7,
              "ticks": 190668,
              "time": 203.705321725,
              "value": 0.5748031496062992
            },
            {
              "number": 7,
              "ticks": 190678,
              "time": 203.71600549583331,
              "value": 0.5748031496062992
            },
            {
              "number": 7,
              "ticks": 190687,
              "time": 203.72562088958333,
              "value": 0.5748031496062992
            },
            {
              "number": 7,
              "ticks": 190698,
              "time": 203.7373730375,
              "value": 0.5748031496062992
            },
            {
              "number": 7,
              "ticks": 190707,
              "time": 203.74698843124997,
              "value": 0.5748031496062992
            },
            {
              "number": 7,
              "ticks": 190716,
              "time": 203.75660382499998,
              "value": 0.5748031496062992
            },
            {
              "number": 7,
              "ticks": 190726,
              "time": 203.76728759583332,
              "value": 0.5826771653543307
            },
            {
              "number": 7,
              "ticks": 190736,
              "time": 203.77797136666666,
              "value": 0.5826771653543307
            },
            {
              "number": 7,
              "ticks": 190745,
              "time": 203.78758676041667,
              "value": 0.5826771653543307
            },
            {
              "number": 7,
              "ticks": 190755,
              "time": 203.79827053124998,
              "value": 0.5826771653543307
            },
            {
              "number": 7,
              "ticks": 190764,
              "time": 203.807885925,
              "value": 0.5826771653543307
            },
            {
              "number": 7,
              "ticks": 190775,
              "time": 203.81963807291666,
              "value": 0.5826771653543307
            },
            {
              "number": 7,
              "ticks": 190784,
              "time": 203.82925346666664,
              "value": 0.5826771653543307
            },
            {
              "number": 7,
              "ticks": 190793,
              "time": 203.83886886041665,
              "value": 0.5826771653543307
            },
            {
              "number": 7,
              "ticks": 190803,
              "time": 203.84955263125,
              "value": 0.5826771653543307
            },
            {
              "number": 7,
              "ticks": 190812,
              "time": 203.85916802499997,
              "value": 0.5826771653543307
            },
            {
              "number": 7,
              "ticks": 190823,
              "time": 203.87092017291664,
              "value": 0.5826771653543307
            },
            {
              "number": 7,
              "ticks": 190832,
              "time": 203.88053556666665,
              "value": 0.5826771653543307
            },
            {
              "number": 7,
              "ticks": 190841,
              "time": 203.89015096041666,
              "value": 0.5826771653543307
            },
            {
              "number": 7,
              "ticks": 190851,
              "time": 203.90083473124997,
              "value": 0.5826771653543307
            },
            {
              "number": 7,
              "ticks": 190861,
              "time": 203.91151850208334,
              "value": 0.5826771653543307
            },
            {
              "number": 7,
              "ticks": 190870,
              "time": 203.92113389583332,
              "value": 0.5826771653543307
            },
            {
              "number": 7,
              "ticks": 190880,
              "time": 203.93181766666666,
              "value": 0.5826771653543307
            },
            {
              "number": 7,
              "ticks": 190889,
              "time": 203.94143306041664,
              "value": 0.5826771653543307
            },
            {
              "number": 7,
              "ticks": 190900,
              "time": 203.9531852083333,
              "value": 0.5826771653543307
            },
            {
              "number": 7,
              "ticks": 190909,
              "time": 203.96280060208332,
              "value": 0.5826771653543307
            },
            {
              "number": 7,
              "ticks": 190918,
              "time": 203.97241599583333,
              "value": 0.5826771653543307
            },
            {
              "number": 7,
              "ticks": 190928,
              "time": 203.98309976666664,
              "value": 0.5826771653543307
            },
            {
              "number": 7,
              "ticks": 190938,
              "time": 203.9937835375,
              "value": 0.5826771653543307
            },
            {
              "number": 7,
              "ticks": 190947,
              "time": 204.00339893125,
              "value": 0.5826771653543307
            },
            {
              "number": 7,
              "ticks": 190957,
              "time": 204.01408270208333,
              "value": 0.5826771653543307
            },
            {
              "number": 7,
              "ticks": 190966,
              "time": 204.02369809583334,
              "value": 0.5826771653543307
            },
            {
              "number": 7,
              "ticks": 190977,
              "time": 204.03545024374998,
              "value": 0.5826771653543307
            },
            {
              "number": 7,
              "ticks": 190986,
              "time": 204.0450656375,
              "value": 0.5826771653543307
            },
            {
              "number": 7,
              "ticks": 190995,
              "time": 204.05468103125,
              "value": 0.5826771653543307
            },
            {
              "number": 7,
              "ticks": 191005,
              "time": 204.0653648020833,
              "value": 0.5826771653543307
            },
            {
              "number": 7,
              "ticks": 191015,
              "time": 204.07604857291668,
              "value": 0.5826771653543307
            },
            {
              "number": 7,
              "ticks": 191024,
              "time": 204.08566396666663,
              "value": 0.5826771653543307
            },
            {
              "number": 7,
              "ticks": 191034,
              "time": 204.0963477375,
              "value": 0.5905511811023622
            },
            {
              "number": 7,
              "ticks": 191043,
              "time": 204.10596313125,
              "value": 0.5905511811023622
            },
            {
              "number": 7,
              "ticks": 191053,
              "time": 204.11664690208332,
              "value": 0.5905511811023622
            },
            {
              "number": 7,
              "ticks": 191063,
              "time": 204.12733067291666,
              "value": 0.5905511811023622
            },
            {
              "number": 7,
              "ticks": 191072,
              "time": 204.13694606666667,
              "value": 0.5905511811023622
            },
            {
              "number": 7,
              "ticks": 191082,
              "time": 204.14762983749998,
              "value": 0.5905511811023622
            },
            {
              "number": 7,
              "ticks": 191091,
              "time": 204.15724523125,
              "value": 0.5905511811023622
            },
            {
              "number": 7,
              "ticks": 191102,
              "time": 204.16899737916665,
              "value": 0.5905511811023622
            },
            {
              "number": 7,
              "ticks": 191111,
              "time": 204.17861277291667,
              "value": 0.5905511811023622
            },
            {
              "number": 7,
              "ticks": 191120,
              "time": 204.18822816666668,
              "value": 0.5905511811023622
            },
            {
              "number": 7,
              "ticks": 191130,
              "time": 204.1989119375,
              "value": 0.5905511811023622
            },
            {
              "number": 7,
              "ticks": 191140,
              "time": 204.20959570833332,
              "value": 0.5905511811023622
            },
            {
              "number": 7,
              "ticks": 191149,
              "time": 204.2192111020833,
              "value": 0.5905511811023622
            },
            {
              "number": 7,
              "ticks": 191159,
              "time": 204.22989487291665,
              "value": 0.5905511811023622
            },
            {
              "number": 7,
              "ticks": 191168,
              "time": 204.23951026666666,
              "value": 0.5905511811023622
            },
            {
              "number": 7,
              "ticks": 191179,
              "time": 204.25126241458332,
              "value": 0.5905511811023622
            },
            {
              "number": 7,
              "ticks": 191188,
              "time": 204.26087780833333,
              "value": 0.5905511811023622
            },
            {
              "number": 7,
              "ticks": 191197,
              "time": 204.27049320208332,
              "value": 0.5905511811023622
            },
            {
              "number": 7,
              "ticks": 191207,
              "time": 204.28117697291665,
              "value": 0.5905511811023622
            },
            {
              "number": 7,
              "ticks": 191217,
              "time": 204.29186074374996,
              "value": 0.5905511811023622
            },
            {
              "number": 7,
              "ticks": 191226,
              "time": 204.30147613749998,
              "value": 0.5905511811023622
            },
            {
              "number": 7,
              "ticks": 191236,
              "time": 204.31215990833334,
              "value": 0.5905511811023622
            },
            {
              "number": 7,
              "ticks": 191245,
              "time": 204.32177530208332,
              "value": 0.5905511811023622
            },
            {
              "number": 7,
              "ticks": 191255,
              "time": 204.33245907291666,
              "value": 0.5905511811023622
            },
            {
              "number": 7,
              "ticks": 191265,
              "time": 204.34314284375,
              "value": 0.5905511811023622
            },
            {
              "number": 7,
              "ticks": 191274,
              "time": 204.35275823749998,
              "value": 0.5905511811023622
            },
            {
              "number": 7,
              "ticks": 191284,
              "time": 204.36344200833332,
              "value": 0.5905511811023622
            },
            {
              "number": 7,
              "ticks": 191293,
              "time": 204.37305740208333,
              "value": 0.5905511811023622
            },
            {
              "number": 7,
              "ticks": 191304,
              "time": 204.38480955,
              "value": 0.5905511811023622
            },
            {
              "number": 7,
              "ticks": 191313,
              "time": 204.39442494375,
              "value": 0.5905511811023622
            },
            {
              "number": 7,
              "ticks": 191322,
              "time": 204.40404033749996,
              "value": 0.5905511811023622
            },
            {
              "number": 7,
              "ticks": 191332,
              "time": 204.41472410833333,
              "value": 0.5905511811023622
            },
            {
              "number": 7,
              "ticks": 191342,
              "time": 204.42540787916664,
              "value": 0.5984251968503937
            },
            {
              "number": 7,
              "ticks": 191351,
              "time": 204.43502327291665,
              "value": 0.5984251968503937
            },
            {
              "number": 7,
              "ticks": 191361,
              "time": 204.44570704375,
              "value": 0.5984251968503937
            },
            {
              "number": 7,
              "ticks": 191370,
              "time": 204.4553224375,
              "value": 0.5984251968503937
            },
            {
              "number": 7,
              "ticks": 191381,
              "time": 204.46707458541667,
              "value": 0.5984251968503937
            },
            {
              "number": 7,
              "ticks": 191390,
              "time": 204.47668997916668,
              "value": 0.5984251968503937
            },
            {
              "number": 7,
              "ticks": 191399,
              "time": 204.48630537291663,
              "value": 0.5984251968503937
            },
            {
              "number": 7,
              "ticks": 191409,
              "time": 204.49698914375,
              "value": 0.5984251968503937
            },
            {
              "number": 7,
              "ticks": 191419,
              "time": 204.5076729145833,
              "value": 0.5984251968503937
            },
            {
              "number": 7,
              "ticks": 191428,
              "time": 204.51728830833332,
              "value": 0.5984251968503937
            },
            {
              "number": 7,
              "ticks": 191438,
              "time": 204.52797207916666,
              "value": 0.5984251968503937
            },
            {
              "number": 7,
              "ticks": 191447,
              "time": 204.53758747291664,
              "value": 0.5984251968503937
            },
            {
              "number": 7,
              "ticks": 191458,
              "time": 204.54933962083334,
              "value": 0.5984251968503937
            },
            {
              "number": 7,
              "ticks": 191467,
              "time": 204.55895501458332,
              "value": 0.5984251968503937
            },
            {
              "number": 7,
              "ticks": 191476,
              "time": 204.56857040833333,
              "value": 0.5984251968503937
            },
            {
              "number": 7,
              "ticks": 191486,
              "time": 204.57925417916667,
              "value": 0.5984251968503937
            },
            {
              "number": 7,
              "ticks": 191495,
              "time": 204.58886957291668,
              "value": 0.5984251968503937
            },
            {
              "number": 7,
              "ticks": 191506,
              "time": 204.60062172083335,
              "value": 0.5984251968503937
            },
            {
              "number": 7,
              "ticks": 191515,
              "time": 204.6102371145833,
              "value": 0.5984251968503937
            },
            {
              "number": 7,
              "ticks": 191524,
              "time": 204.6198525083333,
              "value": 0.5984251968503937
            },
            {
              "number": 7,
              "ticks": 191534,
              "time": 204.63053627916665,
              "value": 0.5984251968503937
            },
            {
              "number": 7,
              "ticks": 191544,
              "time": 204.64122005,
              "value": 0.5984251968503937
            },
            {
              "number": 7,
              "ticks": 191553,
              "time": 204.65083544375,
              "value": 0.5984251968503937
            },
            {
              "number": 7,
              "ticks": 191563,
              "time": 204.66151921458334,
              "value": 0.5984251968503937
            },
            {
              "number": 7,
              "ticks": 191572,
              "time": 204.67113460833332,
              "value": 0.5984251968503937
            },
            {
              "number": 7,
              "ticks": 191583,
              "time": 204.68288675625,
              "value": 0.5984251968503937
            },
            {
              "number": 7,
              "ticks": 191592,
              "time": 204.69250214999997,
              "value": 0.5984251968503937
            },
            {
              "number": 7,
              "ticks": 191601,
              "time": 204.70211754374998,
              "value": 0.5984251968503937
            },
            {
              "number": 7,
              "ticks": 191611,
              "time": 204.71280131458334,
              "value": 0.5984251968503937
            },
            {
              "number": 7,
              "ticks": 191621,
              "time": 204.72348508541666,
              "value": 0.5984251968503937
            },
            {
              "number": 7,
              "ticks": 191630,
              "time": 204.73310047916667,
              "value": 0.5984251968503937
            },
            {
              "number": 7,
              "ticks": 191640,
              "time": 204.74378424999998,
              "value": 0.5984251968503937
            },
            {
              "number": 7,
              "ticks": 191649,
              "time": 204.75339964375,
              "value": 0.6062992125984252
            },
            {
              "number": 7,
              "ticks": 191660,
              "time": 204.76515179166665,
              "value": 0.6062992125984252
            },
            {
              "number": 7,
              "ticks": 191669,
              "time": 204.77476718541664,
              "value": 0.6062992125984252
            },
            {
              "number": 7,
              "ticks": 191678,
              "time": 204.78438257916665,
              "value": 0.6062992125984252
            },
            {
              "number": 7,
              "ticks": 191688,
              "time": 204.79506635,
              "value": 0.6062992125984252
            },
            {
              "number": 7,
              "ticks": 191697,
              "time": 204.80468174374997,
              "value": 0.6062992125984252
            },
            {
              "number": 7,
              "ticks": 191708,
              "time": 204.81643389166663,
              "value": 0.6062992125984252
            },
            {
              "number": 7,
              "ticks": 191717,
              "time": 204.82604928541664,
              "value": 0.6062992125984252
            },
            {
              "number": 7,
              "ticks": 191726,
              "time": 204.83566467916665,
              "value": 0.6062992125984252
            },
            {
              "number": 7,
              "ticks": 191736,
              "time": 204.84634845,
              "value": 0.6062992125984252
            },
            {
              "number": 7,
              "ticks": 191746,
              "time": 204.85703222083333,
              "value": 0.6062992125984252
            },
            {
              "number": 7,
              "ticks": 191755,
              "time": 204.86664761458331,
              "value": 0.6062992125984252
            },
            {
              "number": 7,
              "ticks": 191765,
              "time": 204.87733138541665,
              "value": 0.6062992125984252
            },
            {
              "number": 7,
              "ticks": 191774,
              "time": 204.88694677916664,
              "value": 0.6062992125984252
            },
            {
              "number": 7,
              "ticks": 191785,
              "time": 204.8986989270833,
              "value": 0.6062992125984252
            },
            {
              "number": 7,
              "ticks": 191794,
              "time": 204.9083143208333,
              "value": 0.6062992125984252
            },
            {
              "number": 7,
              "ticks": 191803,
              "time": 204.91792971458332,
              "value": 0.6062992125984252
            },
            {
              "number": 7,
              "ticks": 191813,
              "time": 204.92861348541663,
              "value": 0.6062992125984252
            },
            {
              "number": 7,
              "ticks": 191823,
              "time": 204.93929725625,
              "value": 0.6062992125984252
            },
            {
              "number": 7,
              "ticks": 191832,
              "time": 204.94891264999998,
              "value": 0.6062992125984252
            },
            {
              "number": 7,
              "ticks": 191842,
              "time": 204.95959642083332,
              "value": 0.6062992125984252
            },
            {
              "number": 7,
              "ticks": 191851,
              "time": 204.96921181458333,
              "value": 0.6062992125984252
            },
            {
              "number": 7,
              "ticks": 191862,
              "time": 204.98096396249997,
              "value": 0.6062992125984252
            },
            {
              "number": 7,
              "ticks": 191871,
              "time": 204.99057935624998,
              "value": 0.6062992125984252
            },
            {
              "number": 7,
              "ticks": 191880,
              "time": 205.00019475,
              "value": 0.6062992125984252
            },
            {
              "number": 7,
              "ticks": 191890,
              "time": 205.0108785208333,
              "value": 0.6062992125984252
            },
            {
              "number": 7,
              "ticks": 191900,
              "time": 205.02156229166667,
              "value": 0.6062992125984252
            },
            {
              "number": 7,
              "ticks": 191909,
              "time": 205.03117768541665,
              "value": 0.6062992125984252
            },
            {
              "number": 7,
              "ticks": 191919,
              "time": 205.04186145625,
              "value": 0.6062992125984252
            },
            {
              "number": 7,
              "ticks": 191928,
              "time": 205.05147685,
              "value": 0.6062992125984252
            },
            {
              "number": 7,
              "ticks": 191938,
              "time": 205.0621606208333,
              "value": 0.6062992125984252
            },
            {
              "number": 7,
              "ticks": 191948,
              "time": 205.07284439166665,
              "value": 0.6062992125984252
            },
            {
              "number": 7,
              "ticks": 191957,
              "time": 205.08245978541666,
              "value": 0.6141732283464567
            },
            {
              "number": 7,
              "ticks": 191967,
              "time": 205.09314355624997,
              "value": 0.6141732283464567
            },
            {
              "number": 7,
              "ticks": 191976,
              "time": 205.10275894999998,
              "value": 0.6141732283464567
            },
            {
              "number": 7,
              "ticks": 191987,
              "time": 205.11451109791665,
              "value": 0.6141732283464567
            },
            {
              "number": 7,
              "ticks": 191996,
              "time": 205.12412649166666,
              "value": 0.6141732283464567
            },
            {
              "number": 7,
              "ticks": 192005,
              "time": 205.13374188541667,
              "value": 0.6141732283464567
            },
            {
              "number": 7,
              "ticks": 192015,
              "time": 205.14442565624998,
              "value": 0.6141732283464567
            },
            {
              "number": 7,
              "ticks": 192025,
              "time": 205.15510942708332,
              "value": 0.6141732283464567
            },
            {
              "number": 7,
              "ticks": 192034,
              "time": 205.16472482083333,
              "value": 0.6141732283464567
            },
            {
              "number": 7,
              "ticks": 192044,
              "time": 205.17540859166664,
              "value": 0.6141732283464567
            },
            {
              "number": 7,
              "ticks": 192053,
              "time": 205.18502398541665,
              "value": 0.6141732283464567
            },
            {
              "number": 7,
              "ticks": 192064,
              "time": 205.19677613333332,
              "value": 0.6141732283464567
            },
            {
              "number": 7,
              "ticks": 192073,
              "time": 205.20639152708333,
              "value": 0.6141732283464567
            },
            {
              "number": 7,
              "ticks": 192082,
              "time": 205.21600692083334,
              "value": 0.6141732283464567
            },
            {
              "number": 7,
              "ticks": 192092,
              "time": 205.22669069166665,
              "value": 0.6141732283464567
            },
            {
              "number": 7,
              "ticks": 192102,
              "time": 205.2373744625,
              "value": 0.6141732283464567
            },
            {
              "number": 7,
              "ticks": 192111,
              "time": 205.24698985625,
              "value": 0.6141732283464567
            },
            {
              "number": 7,
              "ticks": 192121,
              "time": 205.25767362708334,
              "value": 0.6141732283464567
            },
            {
              "number": 7,
              "ticks": 192130,
              "time": 205.26728902083332,
              "value": 0.6141732283464567
            },
            {
              "number": 7,
              "ticks": 192140,
              "time": 205.27797279166666,
              "value": 0.6141732283464567
            },
            {
              "number": 7,
              "ticks": 192150,
              "time": 205.2886565625,
              "value": 0.6141732283464567
            },
            {
              "number": 7,
              "ticks": 192159,
              "time": 205.29827195625,
              "value": 0.6141732283464567
            },
            {
              "number": 7,
              "ticks": 192169,
              "time": 205.30895572708332,
              "value": 0.6141732283464567
            },
            {
              "number": 7,
              "ticks": 192178,
              "time": 205.31857112083333,
              "value": 0.6141732283464567
            },
            {
              "number": 7,
              "ticks": 192189,
              "time": 205.33032326875,
              "value": 0.6141732283464567
            },
            {
              "number": 7,
              "ticks": 192198,
              "time": 205.3399386625,
              "value": 0.6141732283464567
            },
            {
              "number": 7,
              "ticks": 192207,
              "time": 205.34955405624999,
              "value": 0.6141732283464567
            },
            {
              "number": 7,
              "ticks": 192217,
              "time": 205.36023782708332,
              "value": 0.6141732283464567
            },
            {
              "number": 7,
              "ticks": 192227,
              "time": 205.37092159791666,
              "value": 0.6141732283464567
            },
            {
              "number": 7,
              "ticks": 192236,
              "time": 205.38053699166665,
              "value": 0.6141732283464567
            },
            {
              "number": 7,
              "ticks": 192246,
              "time": 205.39122076249998,
              "value": 0.6141732283464567
            },
            {
              "number": 7,
              "ticks": 192255,
              "time": 205.40083615625,
              "value": 0.6141732283464567
            },
            {
              "number": 7,
              "ticks": 192266,
              "time": 205.41258830416666,
              "value": 0.6220472440944882
            },
            {
              "number": 7,
              "ticks": 192275,
              "time": 205.42220369791667,
              "value": 0.6220472440944882
            },
            {
              "number": 7,
              "ticks": 192284,
              "time": 205.43181909166665,
              "value": 0.6220472440944882
            },
            {
              "number": 7,
              "ticks": 192294,
              "time": 205.4425028625,
              "value": 0.6220472440944882
            },
            {
              "number": 7,
              "ticks": 192304,
              "time": 205.45318663333333,
              "value": 0.6220472440944882
            },
            {
              "number": 7,
              "ticks": 192313,
              "time": 205.4628020270833,
              "value": 0.6220472440944882
            },
            {
              "number": 7,
              "ticks": 192323,
              "time": 205.47348579791665,
              "value": 0.6220472440944882
            },
            {
              "number": 7,
              "ticks": 192332,
              "time": 205.48310119166666,
              "value": 0.6220472440944882
            },
            {
              "number": 7,
              "ticks": 192343,
              "time": 205.49485333958333,
              "value": 0.6220472440944882
            },
            {
              "number": 7,
              "ticks": 192352,
              "time": 205.50446873333334,
              "value": 0.6220472440944882
            },
            {
              "number": 7,
              "ticks": 192361,
              "time": 205.51408412708332,
              "value": 0.6220472440944882
            },
            {
              "number": 7,
              "ticks": 192371,
              "time": 205.52476789791666,
              "value": 0.6220472440944882
            },
            {
              "number": 7,
              "ticks": 192380,
              "time": 205.53438329166667,
              "value": 0.6220472440944882
            },
            {
              "number": 7,
              "ticks": 192391,
              "time": 205.54613543958334,
              "value": 0.6220472440944882
            },
            {
              "number": 7,
              "ticks": 192400,
              "time": 205.55575083333332,
              "value": 0.6220472440944882
            },
            {
              "number": 7,
              "ticks": 192409,
              "time": 205.56536622708333,
              "value": 0.6220472440944882
            },
            {
              "number": 7,
              "ticks": 192419,
              "time": 205.57604999791664,
              "value": 0.6220472440944882
            },
            {
              "number": 7,
              "ticks": 192429,
              "time": 205.58673376875,
              "value": 0.6220472440944882
            },
            {
              "number": 7,
              "ticks": 192438,
              "time": 205.5963491625,
              "value": 0.6220472440944882
            },
            {
              "number": 7,
              "ticks": 192448,
              "time": 205.60703293333333,
              "value": 0.6220472440944882
            },
            {
              "number": 7,
              "ticks": 192457,
              "time": 205.61664832708334,
              "value": 0.6220472440944882
            },
            {
              "number": 7,
              "ticks": 192468,
              "time": 205.628400475,
              "value": 0.6220472440944882
            },
            {
              "number": 7,
              "ticks": 192477,
              "time": 205.63801586875,
              "value": 0.6220472440944882
            },
            {
              "number": 7,
              "ticks": 192486,
              "time": 205.64763126249997,
              "value": 0.6220472440944882
            },
            {
              "number": 7,
              "ticks": 192496,
              "time": 205.65831503333334,
              "value": 0.6220472440944882
            },
            {
              "number": 7,
              "ticks": 192506,
              "time": 205.66899880416665,
              "value": 0.6220472440944882
            },
            {
              "number": 7,
              "ticks": 192515,
              "time": 205.67861419791666,
              "value": 0.6220472440944882
            },
            {
              "number": 7,
              "ticks": 192525,
              "time": 205.68929796875,
              "value": 0.6220472440944882
            },
            {
              "number": 7,
              "ticks": 192534,
              "time": 205.6989133625,
              "value": 0.6220472440944882
            },
            {
              "number": 7,
              "ticks": 192545,
              "time": 205.71066551041667,
              "value": 0.6220472440944882
            },
            {
              "number": 7,
              "ticks": 192554,
              "time": 205.72028090416663,
              "value": 0.6220472440944882
            },
            {
              "number": 7,
              "ticks": 192563,
              "time": 205.72989629791664,
              "value": 0.6220472440944882
            },
            {
              "number": 7,
              "ticks": 192573,
              "time": 205.74058006875,
              "value": 0.6299212598425197
            },
            {
              "number": 7,
              "ticks": 192582,
              "time": 205.7501954625,
              "value": 0.6299212598425197
            },
            {
              "number": 7,
              "ticks": 192593,
              "time": 205.76194761041666,
              "value": 0.6299212598425197
            },
            {
              "number": 7,
              "ticks": 192602,
              "time": 205.77156300416667,
              "value": 0.6299212598425197
            },
            {
              "number": 7,
              "ticks": 192611,
              "time": 205.78117839791665,
              "value": 0.6299212598425197
            },
            {
              "number": 7,
              "ticks": 192621,
              "time": 205.79186216875,
              "value": 0.6299212598425197
            },
            {
              "number": 7,
              "ticks": 192631,
              "time": 205.80254593958333,
              "value": 0.6299212598425197
            },
            {
              "number": 7,
              "ticks": 192640,
              "time": 205.8121613333333,
              "value": 0.6299212598425197
            },
            {
              "number": 7,
              "ticks": 192650,
              "time": 205.82284510416667,
              "value": 0.6299212598425197
            },
            {
              "number": 7,
              "ticks": 192659,
              "time": 205.83246049791663,
              "value": 0.6299212598425197
            },
            {
              "number": 7,
              "ticks": 192670,
              "time": 205.84421264583332,
              "value": 0.6299212598425197
            },
            {
              "number": 7,
              "ticks": 192679,
              "time": 205.8538280395833,
              "value": 0.6299212598425197
            },
            {
              "number": 7,
              "ticks": 192688,
              "time": 205.86344343333332,
              "value": 0.6299212598425197
            },
            {
              "number": 7,
              "ticks": 192698,
              "time": 205.87412720416665,
              "value": 0.6299212598425197
            },
            {
              "number": 7,
              "ticks": 192708,
              "time": 205.884810975,
              "value": 0.6299212598425197
            },
            {
              "number": 7,
              "ticks": 192717,
              "time": 205.89442636874998,
              "value": 0.6299212598425197
            },
            {
              "number": 7,
              "ticks": 192727,
              "time": 205.90511013958334,
              "value": 0.6299212598425197
            },
            {
              "number": 7,
              "ticks": 192736,
              "time": 205.91472553333332,
              "value": 0.6299212598425197
            },
            {
              "number": 7,
              "ticks": 192747,
              "time": 205.92647768124996,
              "value": 0.6299212598425197
            },
            {
              "number": 7,
              "ticks": 192756,
              "time": 205.93609307499997,
              "value": 0.6299212598425197
            },
            {
              "number": 7,
              "ticks": 192765,
              "time": 205.94570846874998,
              "value": 0.6299212598425197
            },
            {
              "number": 7,
              "ticks": 192775,
              "time": 205.95639223958332,
              "value": 0.6299212598425197
            },
            {
              "number": 7,
              "ticks": 192785,
              "time": 205.96707601041666,
              "value": 0.6299212598425197
            },
            {
              "number": 7,
              "ticks": 192794,
              "time": 205.97669140416664,
              "value": 0.6299212598425197
            },
            {
              "number": 7,
              "ticks": 192804,
              "time": 205.98737517499998,
              "value": 0.6299212598425197
            },
            {
              "number": 7,
              "ticks": 192813,
              "time": 205.99699056875,
              "value": 0.6299212598425197
            },
            {
              "number": 7,
              "ticks": 192823,
              "time": 206.00767433958333,
              "value": 0.6299212598425197
            },
            {
              "number": 7,
              "ticks": 192833,
              "time": 206.01835811041664,
              "value": 0.6299212598425197
            },
            {
              "number": 7,
              "ticks": 192842,
              "time": 206.02797350416665,
              "value": 0.6299212598425197
            },
            {
              "number": 7,
              "ticks": 192852,
              "time": 206.03865727499996,
              "value": 0.6299212598425197
            },
            {
              "number": 7,
              "ticks": 192861,
              "time": 206.04827266874997,
              "value": 0.6299212598425197
            },
            {
              "number": 7,
              "ticks": 192871,
              "time": 206.05895643958334,
              "value": 0.6299212598425197
            },
            {
              "number": 7,
              "ticks": 192881,
              "time": 206.06964021041665,
              "value": 0.6377952755905512
            },
            {
              "number": 7,
              "ticks": 192890,
              "time": 206.07925560416666,
              "value": 0.6377952755905512
            },
            {
              "number": 7,
              "ticks": 192900,
              "time": 206.089939375,
              "value": 0.6377952755905512
            },
            {
              "number": 7,
              "ticks": 192910,
              "time": 206.1006231458333,
              "value": 0.6377952755905512
            },
            {
              "number": 7,
              "ticks": 192919,
              "time": 206.11023853958332,
              "value": 0.6377952755905512
            },
            {
              "number": 7,
              "ticks": 192929,
              "time": 206.12092231041663,
              "value": 0.6377952755905512
            },
            {
              "number": 7,
              "ticks": 192938,
              "time": 206.13053770416664,
              "value": 0.6377952755905512
            },
            {
              "number": 7,
              "ticks": 192949,
              "time": 206.1422898520833,
              "value": 0.6377952755905512
            },
            {
              "number": 7,
              "ticks": 192958,
              "time": 206.15190524583332,
              "value": 0.6377952755905512
            },
            {
              "number": 7,
              "ticks": 192967,
              "time": 206.16152063958333,
              "value": 0.6377952755905512
            },
            {
              "number": 7,
              "ticks": 192977,
              "time": 206.17220441041664,
              "value": 0.6377952755905512
            },
            {
              "number": 7,
              "ticks": 192987,
              "time": 206.18288818124998,
              "value": 0.6377952755905512
            },
            {
              "number": 7,
              "ticks": 192996,
              "time": 206.192503575,
              "value": 0.6377952755905512
            },
            {
              "number": 7,
              "ticks": 193006,
              "time": 206.20318734583333,
              "value": 0.6377952755905512
            },
            {
              "number": 7,
              "ticks": 193015,
              "time": 206.2128027395833,
              "value": 0.6377952755905512
            },
            {
              "number": 7,
              "ticks": 193025,
              "time": 206.22348651041668,
              "value": 0.6377952755905512
            },
            {
              "number": 7,
              "ticks": 193035,
              "time": 206.23417028125,
              "value": 0.6377952755905512
            },
            {
              "number": 7,
              "ticks": 193044,
              "time": 206.243785675,
              "value": 0.6377952755905512
            },
            {
              "number": 7,
              "ticks": 193054,
              "time": 206.2544694458333,
              "value": 0.6377952755905512
            },
            {
              "number": 7,
              "ticks": 193063,
              "time": 206.26408483958332,
              "value": 0.6377952755905512
            },
            {
              "number": 7,
              "ticks": 193074,
              "time": 206.27583698749999,
              "value": 0.6377952755905512
            },
            {
              "number": 7,
              "ticks": 193083,
              "time": 206.28545238125,
              "value": 0.6377952755905512
            },
            {
              "number": 7,
              "ticks": 193092,
              "time": 206.29506777499998,
              "value": 0.6377952755905512
            },
            {
              "number": 7,
              "ticks": 193102,
              "time": 206.30575154583332,
              "value": 0.6377952755905512
            },
            {
              "number": 7,
              "ticks": 193112,
              "time": 206.31643531666666,
              "value": 0.6377952755905512
            },
            {
              "number": 7,
              "ticks": 193121,
              "time": 206.32605071041667,
              "value": 0.6377952755905512
            },
            {
              "number": 7,
              "ticks": 193131,
              "time": 206.33673448124998,
              "value": 0.6377952755905512
            },
            {
              "number": 7,
              "ticks": 193140,
              "time": 206.346349875,
              "value": 0.6377952755905512
            },
            {
              "number": 7,
              "ticks": 193151,
              "time": 206.35810202291665,
              "value": 0.6377952755905512
            },
            {
              "number": 7,
              "ticks": 193160,
              "time": 206.36771741666666,
              "value": 0.6377952755905512
            },
            {
              "number": 7,
              "ticks": 193169,
              "time": 206.37733281041665,
              "value": 0.6377952755905512
            },
            {
              "number": 7,
              "ticks": 193179,
              "time": 206.38801658124999,
              "value": 0.6377952755905512
            },
            {
              "number": 7,
              "ticks": 193189,
              "time": 206.39870035208332,
              "value": 0.6456692913385826
            },
            {
              "number": 7,
              "ticks": 193198,
              "time": 206.40831574583333,
              "value": 0.6456692913385826
            },
            {
              "number": 7,
              "ticks": 193208,
              "time": 206.41899951666664,
              "value": 0.6456692913385826
            },
            {
              "number": 7,
              "ticks": 193217,
              "time": 206.42861491041666,
              "value": 0.6456692913385826
            },
            {
              "number": 7,
              "ticks": 193228,
              "time": 206.44036705833332,
              "value": 0.6456692913385826
            },
            {
              "number": 7,
              "ticks": 193237,
              "time": 206.44998245208333,
              "value": 0.6456692913385826
            },
            {
              "number": 7,
              "ticks": 193246,
              "time": 206.45959784583334,
              "value": 0.6456692913385826
            },
            {
              "number": 7,
              "ticks": 193256,
              "time": 206.47028161666665,
              "value": 0.6456692913385826
            },
            {
              "number": 7,
              "ticks": 193265,
              "time": 206.47989701041666,
              "value": 0.6456692913385826
            },
            {
              "number": 7,
              "ticks": 193276,
              "time": 206.49164915833333,
              "value": 0.6456692913385826
            },
            {
              "number": 7,
              "ticks": 193285,
              "time": 206.5012645520833,
              "value": 0.6456692913385826
            },
            {
              "number": 7,
              "ticks": 193294,
              "time": 206.51087994583332,
              "value": 0.6456692913385826
            },
            {
              "number": 7,
              "ticks": 193304,
              "time": 206.52156371666663,
              "value": 0.6456692913385826
            },
            {
              "number": 7,
              "ticks": 193314,
              "time": 206.5322474875,
              "value": 0.6456692913385826
            },
            {
              "number": 7,
              "ticks": 193323,
              "time": 206.54186288125,
              "value": 0.6456692913385826
            },
            {
              "number": 7,
              "ticks": 193333,
              "time": 206.55254665208332,
              "value": 0.6456692913385826
            },
            {
              "number": 7,
              "ticks": 193342,
              "time": 206.56216204583333,
              "value": 0.6456692913385826
            },
            {
              "number": 7,
              "ticks": 193353,
              "time": 206.57391419375,
              "value": 0.6456692913385826
            },
            {
              "number": 7,
              "ticks": 193362,
              "time": 206.58352958749998,
              "value": 0.6456692913385826
            },
            {
              "number": 7,
              "ticks": 193371,
              "time": 206.59314498125,
              "value": 0.6456692913385826
            },
            {
              "number": 7,
              "ticks": 193381,
              "time": 206.60382875208333,
              "value": 0.6456692913385826
            },
            {
              "number": 7,
              "ticks": 193391,
              "time": 206.61451252291667,
              "value": 0.6456692913385826
            },
            {
              "number": 7,
              "ticks": 193400,
              "time": 206.62412791666665,
              "value": 0.6456692913385826
            },
            {
              "number": 7,
              "ticks": 193410,
              "time": 206.6348116875,
              "value": 0.6456692913385826
            },
            {
              "number": 7,
              "ticks": 193419,
              "time": 206.64442708125,
              "value": 0.6456692913385826
            },
            {
              "number": 7,
              "ticks": 193430,
              "time": 206.65617922916667,
              "value": 0.6456692913385826
            },
            {
              "number": 7,
              "ticks": 193439,
              "time": 206.66579462291665,
              "value": 0.6456692913385826
            },
            {
              "number": 7,
              "ticks": 193448,
              "time": 206.67541001666666,
              "value": 0.6456692913385826
            },
            {
              "number": 7,
              "ticks": 193458,
              "time": 206.6860937875,
              "value": 0.6456692913385826
            },
            {
              "number": 7,
              "ticks": 193467,
              "time": 206.69570918124998,
              "value": 0.6456692913385826
            },
            {
              "number": 7,
              "ticks": 193478,
              "time": 206.70746132916665,
              "value": 0.6456692913385826
            },
            {
              "number": 7,
              "ticks": 193487,
              "time": 206.71707672291666,
              "value": 0.6456692913385826
            },
            {
              "number": 7,
              "ticks": 193496,
              "time": 206.72669211666667,
              "value": 0.6535433070866141
            },
            {
              "number": 7,
              "ticks": 193506,
              "time": 206.73737588749998,
              "value": 0.6535433070866141
            },
            {
              "number": 7,
              "ticks": 193516,
              "time": 206.74805965833335,
              "value": 0.6535433070866141
            },
            {
              "number": 7,
              "ticks": 193525,
              "time": 206.7576750520833,
              "value": 0.6535433070866141
            },
            {
              "number": 7,
              "ticks": 193535,
              "time": 206.76835882291667,
              "value": 0.6535433070866141
            },
            {
              "number": 7,
              "ticks": 193544,
              "time": 206.77797421666665,
              "value": 0.6535433070866141
            },
            {
              "number": 7,
              "ticks": 193555,
              "time": 206.78972636458332,
              "value": 0.6535433070866141
            },
            {
              "number": 7,
              "ticks": 193564,
              "time": 206.79934175833333,
              "value": 0.6535433070866141
            },
            {
              "number": 7,
              "ticks": 193573,
              "time": 206.80895715208334,
              "value": 0.6535433070866141
            },
            {
              "number": 7,
              "ticks": 193583,
              "time": 206.81964092291665,
              "value": 0.6535433070866141
            },
            {
              "number": 7,
              "ticks": 193593,
              "time": 206.83032469375,
              "value": 0.6535433070866141
            },
            {
              "number": 7,
              "ticks": 193602,
              "time": 206.83994008749997,
              "value": 0.6535433070866141
            },
            {
              "number": 7,
              "ticks": 193612,
              "time": 206.85062385833334,
              "value": 0.6535433070866141
            },
            {
              "number": 7,
              "ticks": 193621,
              "time": 206.86023925208335,
              "value": 0.6535433070866141
            },
            {
              "number": 7,
              "ticks": 193632,
              "time": 206.87199139999998,
              "value": 0.6535433070866141
            },
            {
              "number": 7,
              "ticks": 193641,
              "time": 206.88160679375,
              "value": 0.6535433070866141
            },
            {
              "number": 7,
              "ticks": 193650,
              "time": 206.89122218749998,
              "value": 0.6535433070866141
            },
            {
              "number": 7,
              "ticks": 193660,
              "time": 206.90190595833332,
              "value": 0.6535433070866141
            },
            {
              "number": 7,
              "ticks": 193670,
              "time": 206.91258972916665,
              "value": 0.6535433070866141
            },
            {
              "number": 7,
              "ticks": 193679,
              "time": 206.92220512291664,
              "value": 0.6535433070866141
            },
            {
              "number": 7,
              "ticks": 193689,
              "time": 206.93288889375,
              "value": 0.6535433070866141
            },
            {
              "number": 7,
              "ticks": 193698,
              "time": 206.9425042875,
              "value": 0.6535433070866141
            },
            {
              "number": 7,
              "ticks": 193708,
              "time": 206.95318805833332,
              "value": 0.6535433070866141
            },
            {
              "number": 7,
              "ticks": 193718,
              "time": 206.96387182916664,
              "value": 0.6535433070866141
            },
            {
              "number": 7,
              "ticks": 193727,
              "time": 206.97348722291665,
              "value": 0.6535433070866141
            },
            {
              "number": 7,
              "ticks": 193737,
              "time": 206.98417099374998,
              "value": 0.6535433070866141
            },
            {
              "number": 7,
              "ticks": 193746,
              "time": 206.9937863875,
              "value": 0.6535433070866141
            },
            {
              "number": 7,
              "ticks": 193757,
              "time": 207.00553853541666,
              "value": 0.6535433070866141
            },
            {
              "number": 7,
              "ticks": 193766,
              "time": 207.01515392916667,
              "value": 0.6535433070866141
            },
            {
              "number": 7,
              "ticks": 193775,
              "time": 207.02476932291665,
              "value": 0.6535433070866141
            },
            {
              "number": 7,
              "ticks": 193785,
              "time": 207.03545309375,
              "value": 0.6535433070866141
            },
            {
              "number": 7,
              "ticks": 193795,
              "time": 207.0461368645833,
              "value": 0.6535433070866141
            },
            {
              "number": 7,
              "ticks": 193804,
              "time": 207.0557522583333,
              "value": 0.6614173228346457
            },
            {
              "number": 7,
              "ticks": 193814,
              "time": 207.06643602916665,
              "value": 0.6614173228346457
            },
            {
              "number": 7,
              "ticks": 193823,
              "time": 207.07605142291663,
              "value": 0.6614173228346457
            },
            {
              "number": 7,
              "ticks": 193834,
              "time": 207.08780357083333,
              "value": 0.6614173228346457
            },
            {
              "number": 7,
              "ticks": 193843,
              "time": 207.0974189645833,
              "value": 0.6614173228346457
            },
            {
              "number": 7,
              "ticks": 193852,
              "time": 207.10703435833332,
              "value": 0.6614173228346457
            },
            {
              "number": 7,
              "ticks": 193862,
              "time": 207.11771812916666,
              "value": 0.6614173228346457
            },
            {
              "number": 7,
              "ticks": 193872,
              "time": 207.12840189999997,
              "value": 0.6614173228346457
            },
            {
              "number": 7,
              "ticks": 193881,
              "time": 207.13801729374998,
              "value": 0.6614173228346457
            },
            {
              "number": 7,
              "ticks": 193891,
              "time": 207.14870106458335,
              "value": 0.6614173228346457
            },
            {
              "number": 7,
              "ticks": 193900,
              "time": 207.1583164583333,
              "value": 0.6614173228346457
            },
            {
              "number": 7,
              "ticks": 193910,
              "time": 207.16900022916667,
              "value": 0.6614173228346457
            },
            {
              "number": 7,
              "ticks": 193920,
              "time": 207.17968399999998,
              "value": 0.6614173228346457
            },
            {
              "number": 7,
              "ticks": 193929,
              "time": 207.18929939375,
              "value": 0.6614173228346457
            },
            {
              "number": 7,
              "ticks": 193939,
              "time": 207.19998316458333,
              "value": 0.6614173228346457
            },
            {
              "number": 7,
              "ticks": 193948,
              "time": 207.2095985583333,
              "value": 0.6614173228346457
            },
            {
              "number": 7,
              "ticks": 193959,
              "time": 207.22135070625,
              "value": 0.6614173228346457
            },
            {
              "number": 7,
              "ticks": 193968,
              "time": 207.2309661,
              "value": 0.6614173228346457
            },
            {
              "number": 7,
              "ticks": 193977,
              "time": 207.24058149374997,
              "value": 0.6614173228346457
            },
            {
              "number": 7,
              "ticks": 193987,
              "time": 207.25126526458334,
              "value": 0.6614173228346457
            },
            {
              "number": 7,
              "ticks": 193997,
              "time": 207.26194903541665,
              "value": 0.6614173228346457
            },
            {
              "number": 7,
              "ticks": 194006,
              "time": 207.27156442916666,
              "value": 0.6614173228346457
            },
            {
              "number": 7,
              "ticks": 194016,
              "time": 207.28224819999997,
              "value": 0.6614173228346457
            },
            {
              "number": 7,
              "ticks": 194025,
              "time": 207.29186359374998,
              "value": 0.6614173228346457
            },
            {
              "number": 7,
              "ticks": 194036,
              "time": 207.30361574166665,
              "value": 0.6614173228346457
            },
            {
              "number": 7,
              "ticks": 194045,
              "time": 207.31323113541666,
              "value": 0.6614173228346457
            },
            {
              "number": 7,
              "ticks": 194054,
              "time": 207.32284652916664,
              "value": 0.6614173228346457
            },
            {
              "number": 7,
              "ticks": 194064,
              "time": 207.3335303,
              "value": 0.6614173228346457
            },
            {
              "number": 7,
              "ticks": 194074,
              "time": 207.34421407083332,
              "value": 0.6614173228346457
            },
            {
              "number": 7,
              "ticks": 194083,
              "time": 207.35382946458333,
              "value": 0.6614173228346457
            },
            {
              "number": 7,
              "ticks": 194093,
              "time": 207.36451323541664,
              "value": 0.6614173228346457
            },
            {
              "number": 7,
              "ticks": 194102,
              "time": 207.37412862916665,
              "value": 0.6614173228346457
            },
            {
              "number": 7,
              "ticks": 194113,
              "time": 207.38588077708332,
              "value": 0.6692913385826772
            },
            {
              "number": 7,
              "ticks": 194122,
              "time": 207.39549617083333,
              "value": 0.6692913385826772
            },
            {
              "number": 7,
              "ticks": 194131,
              "time": 207.40511156458334,
              "value": 0.6692913385826772
            },
            {
              "number": 7,
              "ticks": 194141,
              "time": 207.41579533541665,
              "value": 0.6692913385826772
            },
            {
              "number": 7,
              "ticks": 194150,
              "time": 207.42541072916666,
              "value": 0.6692913385826772
            },
            {
              "number": 7,
              "ticks": 194161,
              "time": 207.43716287708332,
              "value": 0.6692913385826772
            },
            {
              "number": 7,
              "ticks": 194170,
              "time": 207.4467782708333,
              "value": 0.6692913385826772
            },
            {
              "number": 7,
              "ticks": 194179,
              "time": 207.45639366458332,
              "value": 0.6692913385826772
            },
            {
              "number": 7,
              "ticks": 194189,
              "time": 207.46707743541666,
              "value": 0.6692913385826772
            },
            {
              "number": 7,
              "ticks": 194199,
              "time": 207.47776120625,
              "value": 0.6692913385826772
            },
            {
              "number": 7,
              "ticks": 194208,
              "time": 207.4873766,
              "value": 0.6692913385826772
            },
            {
              "number": 7,
              "ticks": 194218,
              "time": 207.49806037083331,
              "value": 0.6692913385826772
            },
            {
              "number": 7,
              "ticks": 194227,
              "time": 207.50767576458333,
              "value": 0.6692913385826772
            },
            {
              "number": 7,
              "ticks": 194238,
              "time": 207.5194279125,
              "value": 0.6692913385826772
            },
            {
              "number": 7,
              "ticks": 194247,
              "time": 207.52904330624997,
              "value": 0.6692913385826772
            },
            {
              "number": 7,
              "ticks": 194256,
              "time": 207.53865869999998,
              "value": 0.6692913385826772
            },
            {
              "number": 7,
              "ticks": 194266,
              "time": 207.54934247083332,
              "value": 0.6692913385826772
            },
            {
              "number": 7,
              "ticks": 194276,
              "time": 207.56002624166666,
              "value": 0.6692913385826772
            },
            {
              "number": 7,
              "ticks": 194285,
              "time": 207.56964163541667,
              "value": 0.6692913385826772
            },
            {
              "number": 7,
              "ticks": 194295,
              "time": 207.58032540624998,
              "value": 0.6692913385826772
            },
            {
              "number": 7,
              "ticks": 194304,
              "time": 207.5899408,
              "value": 0.6692913385826772
            },
            {
              "number": 7,
              "ticks": 194315,
              "time": 207.60169294791666,
              "value": 0.6692913385826772
            },
            {
              "number": 7,
              "ticks": 194324,
              "time": 207.61130834166664,
              "value": 0.6692913385826772
            },
            {
              "number": 7,
              "ticks": 194333,
              "time": 207.62092373541665,
              "value": 0.6692913385826772
            },
            {
              "number": 7,
              "ticks": 194343,
              "time": 207.63160750625,
              "value": 0.6692913385826772
            },
            {
              "number": 7,
              "ticks": 194352,
              "time": 207.64122289999997,
              "value": 0.6692913385826772
            },
            {
              "number": 7,
              "ticks": 194363,
              "time": 207.65297504791664,
              "value": 0.6692913385826772
            },
            {
              "number": 7,
              "ticks": 194372,
              "time": 207.66259044166665,
              "value": 0.6692913385826772
            },
            {
              "number": 7,
              "ticks": 194381,
              "time": 207.67220583541666,
              "value": 0.6692913385826772
            },
            {
              "number": 7,
              "ticks": 194391,
              "time": 207.68288960624997,
              "value": 0.6692913385826772
            },
            {
              "number": 7,
              "ticks": 194401,
              "time": 207.69357337708334,
              "value": 0.6692913385826772
            },
            {
              "number": 7,
              "ticks": 194410,
              "time": 207.70318877083332,
              "value": 0.6692913385826772
            },
            {
              "number": 7,
              "ticks": 194420,
              "time": 207.71387254166666,
              "value": 0.6771653543307087
            },
            {
              "number": 7,
              "ticks": 194429,
              "time": 207.72348793541664,
              "value": 0.6771653543307087
            },
            {
              "number": 7,
              "ticks": 194440,
              "time": 207.7352400833333,
              "value": 0.6771653543307087
            },
            {
              "number": 7,
              "ticks": 194449,
              "time": 207.74485547708332,
              "value": 0.6771653543307087
            },
            {
              "number": 7,
              "ticks": 194458,
              "time": 207.75447087083333,
              "value": 0.6771653543307087
            },
            {
              "number": 7,
              "ticks": 194468,
              "time": 207.76515464166664,
              "value": 0.6771653543307087
            },
            {
              "number": 7,
              "ticks": 194478,
              "time": 207.7758384125,
              "value": 0.6771653543307087
            },
            {
              "number": 7,
              "ticks": 194487,
              "time": 207.78545380625,
              "value": 0.6771653543307087
            },
            {
              "number": 7,
              "ticks": 194497,
              "time": 207.79613757708333,
              "value": 0.6771653543307087
            },
            {
              "number": 7,
              "ticks": 194506,
              "time": 207.80575297083334,
              "value": 0.6771653543307087
            },
            {
              "number": 7,
              "ticks": 194517,
              "time": 207.81750511874998,
              "value": 0.6771653543307087
            },
            {
              "number": 7,
              "ticks": 194526,
              "time": 207.8271205125,
              "value": 0.6771653543307087
            },
            {
              "number": 7,
              "ticks": 194535,
              "time": 207.83673590625,
              "value": 0.6771653543307087
            },
            {
              "number": 7,
              "ticks": 194545,
              "time": 207.8474196770833,
              "value": 0.6771653543307087
            },
            {
              "number": 7,
              "ticks": 194555,
              "time": 207.85810344791668,
              "value": 0.6771653543307087
            },
            {
              "number": 7,
              "ticks": 194564,
              "time": 207.86771884166663,
              "value": 0.6771653543307087
            },
            {
              "number": 7,
              "ticks": 194574,
              "time": 207.8784026125,
              "value": 0.6771653543307087
            },
            {
              "number": 7,
              "ticks": 194583,
              "time": 207.88801800625,
              "value": 0.6771653543307087
            },
            {
              "number": 7,
              "ticks": 194593,
              "time": 207.89870177708332,
              "value": 0.6771653543307087
            },
            {
              "number": 7,
              "ticks": 194603,
              "time": 207.90938554791666,
              "value": 0.6771653543307087
            },
            {
              "number": 7,
              "ticks": 194612,
              "time": 207.91900094166667,
              "value": 0.6771653543307087
            },
            {
              "number": 7,
              "ticks": 194622,
              "time": 207.92968471249998,
              "value": 0.6771653543307087
            },
            {
              "number": 7,
              "ticks": 194631,
              "time": 207.93930010625,
              "value": 0.6771653543307087
            },
            {
              "number": 7,
              "ticks": 194642,
              "time": 207.95105225416665,
              "value": 0.6771653543307087
            },
            {
              "number": 7,
              "ticks": 194651,
              "time": 207.96066764791667,
              "value": 0.6771653543307087
            },
            {
              "number": 7,
              "ticks": 194661,
              "time": 207.97135141874998,
              "value": 0.6771653543307087
            },
            {
              "number": 7,
              "ticks": 194670,
              "time": 207.9809668125,
              "value": 0.6771653543307087
            },
            {
              "number": 7,
              "ticks": 194680,
              "time": 207.99165058333332,
              "value": 0.6771653543307087
            },
            {
              "number": 7,
              "ticks": 194689,
              "time": 208.0012659770833,
              "value": 0.6771653543307087
            },
            {
              "number": 7,
              "ticks": 194699,
              "time": 208.01194974791665,
              "value": 0.6771653543307087
            },
            {
              "number": 7,
              "ticks": 194708,
              "time": 208.02156514166666,
              "value": 0.6771653543307087
            },
            {
              "number": 7,
              "ticks": 194719,
              "time": 208.03331728958332,
              "value": 0.6771653543307087
            },
            {
              "number": 7,
              "ticks": 194728,
              "time": 208.04293268333333,
              "value": 0.6850393700787402
            },
            {
              "number": 7,
              "ticks": 194737,
              "time": 208.05254807708332,
              "value": 0.6850393700787402
            },
            {
              "number": 7,
              "ticks": 194747,
              "time": 208.06323184791665,
              "value": 0.6850393700787402
            },
            {
              "number": 7,
              "ticks": 194757,
              "time": 208.07391561874996,
              "value": 0.6850393700787402
            },
            {
              "number": 7,
              "ticks": 194766,
              "time": 208.08353101249998,
              "value": 0.6850393700787402
            },
            {
              "number": 7,
              "ticks": 194776,
              "time": 208.09421478333334,
              "value": 0.6850393700787402
            },
            {
              "number": 7,
              "ticks": 194785,
              "time": 208.10383017708332,
              "value": 0.6850393700787402
            },
            {
              "number": 7,
              "ticks": 194795,
              "time": 208.11451394791666,
              "value": 0.6850393700787402
            },
            {
              "number": 7,
              "ticks": 194805,
              "time": 208.12519771875,
              "value": 0.6850393700787402
            },
            {
              "number": 7,
              "ticks": 194814,
              "time": 208.13481311249998,
              "value": 0.6850393700787402
            },
            {
              "number": 7,
              "ticks": 194824,
              "time": 208.14549688333332,
              "value": 0.6850393700787402
            },
            {
              "number": 7,
              "ticks": 194833,
              "time": 208.15511227708333,
              "value": 0.6850393700787402
            },
            {
              "number": 7,
              "ticks": 194844,
              "time": 208.166864425,
              "value": 0.6850393700787402
            },
            {
              "number": 7,
              "ticks": 194853,
              "time": 208.17647981875,
              "value": 0.6850393700787402
            },
            {
              "number": 7,
              "ticks": 194862,
              "time": 208.18609521249996,
              "value": 0.6850393700787402
            },
            {
              "number": 7,
              "ticks": 194872,
              "time": 208.19677898333333,
              "value": 0.6850393700787402
            },
            {
              "number": 7,
              "ticks": 194882,
              "time": 208.20746275416664,
              "value": 0.6850393700787402
            },
            {
              "number": 7,
              "ticks": 194891,
              "time": 208.21707814791665,
              "value": 0.6850393700787402
            },
            {
              "number": 7,
              "ticks": 194901,
              "time": 208.22776191875,
              "value": 0.6850393700787402
            },
            {
              "number": 7,
              "ticks": 194910,
              "time": 208.2373773125,
              "value": 0.6850393700787402
            },
            {
              "number": 7,
              "ticks": 194921,
              "time": 208.24912946041667,
              "value": 0.6850393700787402
            },
            {
              "number": 7,
              "ticks": 194930,
              "time": 208.25874485416668,
              "value": 0.6850393700787402
            },
            {
              "number": 7,
              "ticks": 194939,
              "time": 208.26836024791663,
              "value": 0.6850393700787402
            },
            {
              "number": 7,
              "ticks": 194949,
              "time": 208.27904401875,
              "value": 0.6850393700787402
            },
            {
              "number": 7,
              "ticks": 194959,
              "time": 208.2897277895833,
              "value": 0.6850393700787402
            },
            {
              "number": 7,
              "ticks": 194968,
              "time": 208.29934318333332,
              "value": 0.6850393700787402
            },
            {
              "number": 7,
              "ticks": 194978,
              "time": 208.31002695416666,
              "value": 0.6850393700787402
            },
            {
              "number": 7,
              "ticks": 194987,
              "time": 208.31964234791664,
              "value": 0.6850393700787402
            },
            {
              "number": 7,
              "ticks": 194998,
              "time": 208.33139449583334,
              "value": 0.6850393700787402
            },
            {
              "number": 7,
              "ticks": 195007,
              "time": 208.34100988958332,
              "value": 0.6850393700787402
            },
            {
              "number": 7,
              "ticks": 195016,
              "time": 208.35062528333333,
              "value": 0.6850393700787402
            },
            {
              "number": 7,
              "ticks": 195026,
              "time": 208.36130905416667,
              "value": 0.6850393700787402
            },
            {
              "number": 7,
              "ticks": 195035,
              "time": 208.37092444791668,
              "value": 0.6929133858267716
            },
            {
              "number": 7,
              "ticks": 195046,
              "time": 208.38267659583335,
              "value": 0.6929133858267716
            },
            {
              "number": 7,
              "ticks": 195055,
              "time": 208.3922919895833,
              "value": 0.6929133858267716
            },
            {
              "number": 7,
              "ticks": 195064,
              "time": 208.4019073833333,
              "value": 0.6929133858267716
            },
            {
              "number": 7,
              "ticks": 195074,
              "time": 208.41259115416665,
              "value": 0.6929133858267716
            },
            {
              "number": 7,
              "ticks": 195084,
              "time": 208.423274925,
              "value": 0.6929133858267716
            },
            {
              "number": 7,
              "ticks": 195093,
              "time": 208.43289031875,
              "value": 0.6929133858267716
            },
            {
              "number": 7,
              "ticks": 195103,
              "time": 208.44357408958334,
              "value": 0.6929133858267716
            },
            {
              "number": 7,
              "ticks": 195112,
              "time": 208.45318948333332,
              "value": 0.6929133858267716
            },
            {
              "number": 7,
              "ticks": 195123,
              "time": 208.46494163125,
              "value": 0.6929133858267716
            },
            {
              "number": 7,
              "ticks": 195132,
              "time": 208.47455702499997,
              "value": 0.6929133858267716
            },
            {
              "number": 7,
              "ticks": 195141,
              "time": 208.48417241874998,
              "value": 0.6929133858267716
            },
            {
              "number": 7,
              "ticks": 195151,
              "time": 208.49485618958334,
              "value": 0.6929133858267716
            },
            {
              "number": 7,
              "ticks": 195161,
              "time": 208.50553996041666,
              "value": 0.6929133858267716
            },
            {
              "number": 7,
              "ticks": 195170,
              "time": 208.51515535416667,
              "value": 0.6929133858267716
            },
            {
              "number": 7,
              "ticks": 195180,
              "time": 208.52583912499998,
              "value": 0.6929133858267716
            },
            {
              "number": 7,
              "ticks": 195189,
              "time": 208.53545451875,
              "value": 0.6929133858267716
            },
            {
              "number": 7,
              "ticks": 195200,
              "time": 208.54720666666665,
              "value": 0.6929133858267716
            },
            {
              "number": 7,
              "ticks": 195209,
              "time": 208.55682206041664,
              "value": 0.6929133858267716
            },
            {
              "number": 7,
              "ticks": 195218,
              "time": 208.56643745416665,
              "value": 0.6929133858267716
            },
            {
              "number": 7,
              "ticks": 195228,
              "time": 208.577121225,
              "value": 0.6929133858267716
            },
            {
              "number": 7,
              "ticks": 195237,
              "time": 208.58673661874997,
              "value": 0.6929133858267716
            },
            {
              "number": 7,
              "ticks": 195248,
              "time": 208.59848876666663,
              "value": 0.6929133858267716
            },
            {
              "number": 7,
              "ticks": 195257,
              "time": 208.60810416041664,
              "value": 0.6929133858267716
            },
            {
              "number": 7,
              "ticks": 195266,
              "time": 208.61771955416665,
              "value": 0.6929133858267716
            },
            {
              "number": 7,
              "ticks": 195276,
              "time": 208.628403325,
              "value": 0.6929133858267716
            },
            {
              "number": 7,
              "ticks": 195286,
              "time": 208.63908709583333,
              "value": 0.6929133858267716
            },
            {
              "number": 7,
              "ticks": 195295,
              "time": 208.64870248958331,
              "value": 0.6929133858267716
            },
            {
              "number": 7,
              "ticks": 195305,
              "time": 208.65938626041665,
              "value": 0.6929133858267716
            },
            {
              "number": 7,
              "ticks": 195314,
              "time": 208.66900165416664,
              "value": 0.6929133858267716
            },
            {
              "number": 7,
              "ticks": 195325,
              "time": 208.6807538020833,
              "value": 0.6929133858267716
            },
            {
              "number": 7,
              "ticks": 195334,
              "time": 208.6903691958333,
              "value": 0.6929133858267716
            },
            {
              "number": 7,
              "ticks": 195343,
              "time": 208.69998458958332,
              "value": 0.7007874015748031
            },
            {
              "number": 7,
              "ticks": 195353,
              "time": 208.71066836041663,
              "value": 0.7007874015748031
            },
            {
              "number": 7,
              "ticks": 195363,
              "time": 208.72135213125,
              "value": 0.7007874015748031
            },
            {
              "number": 7,
              "ticks": 195372,
              "time": 208.73096752499998,
              "value": 0.7007874015748031
            },
            {
              "number": 7,
              "ticks": 195382,
              "time": 208.74165129583332,
              "value": 0.7007874015748031
            },
            {
              "number": 7,
              "ticks": 195391,
              "time": 208.75126668958333,
              "value": 0.7007874015748031
            },
            {
              "number": 7,
              "ticks": 195402,
              "time": 208.76301883749997,
              "value": 0.7007874015748031
            },
            {
              "number": 7,
              "ticks": 195411,
              "time": 208.77263423124998,
              "value": 0.7007874015748031
            },
            {
              "number": 7,
              "ticks": 195420,
              "time": 208.782249625,
              "value": 0.7007874015748031
            },
            {
              "number": 7,
              "ticks": 195430,
              "time": 208.7929333958333,
              "value": 0.7007874015748031
            },
            {
              "number": 7,
              "ticks": 195440,
              "time": 208.80361716666667,
              "value": 0.7007874015748031
            },
            {
              "number": 7,
              "ticks": 195449,
              "time": 208.81323256041665,
              "value": 0.7007874015748031
            },
            {
              "number": 7,
              "ticks": 195459,
              "time": 208.82391633125,
              "value": 0.7007874015748031
            },
            {
              "number": 7,
              "ticks": 195468,
              "time": 208.833531725,
              "value": 0.7007874015748031
            },
            {
              "number": 7,
              "ticks": 195478,
              "time": 208.8442154958333,
              "value": 0.7007874015748031
            },
            {
              "number": 7,
              "ticks": 195488,
              "time": 208.85489926666665,
              "value": 0.7007874015748031
            },
            {
              "number": 7,
              "ticks": 195497,
              "time": 208.86451466041666,
              "value": 0.7007874015748031
            },
            {
              "number": 7,
              "ticks": 195507,
              "time": 208.87519843124997,
              "value": 0.7007874015748031
            },
            {
              "number": 7,
              "ticks": 195516,
              "time": 208.88481382499998,
              "value": 0.7007874015748031
            },
            {
              "number": 7,
              "ticks": 195527,
              "time": 208.89656597291665,
              "value": 0.7007874015748031
            },
            {
              "number": 7,
              "ticks": 195536,
              "time": 208.90618136666666,
              "value": 0.7007874015748031
            },
            {
              "number": 7,
              "ticks": 195545,
              "time": 208.91579676041667,
              "value": 0.7007874015748031
            },
            {
              "number": 7,
              "ticks": 195555,
              "time": 208.92648053124998,
              "value": 0.7007874015748031
            },
            {
              "number": 7,
              "ticks": 195565,
              "time": 208.93716430208332,
              "value": 0.7007874015748031
            },
            {
              "number": 7,
              "ticks": 195574,
              "time": 208.94677969583333,
              "value": 0.7007874015748031
            },
            {
              "number": 7,
              "ticks": 195584,
              "time": 208.95746346666664,
              "value": 0.7007874015748031
            },
            {
              "number": 7,
              "ticks": 195593,
              "time": 208.96707886041665,
              "value": 0.7007874015748031
            },
            {
              "number": 7,
              "ticks": 195604,
              "time": 208.97883100833332,
              "value": 0.7007874015748031
            },
            {
              "number": 7,
              "ticks": 195613,
              "time": 208.98844640208333,
              "value": 0.7007874015748031
            },
            {
              "number": 7,
              "ticks": 195622,
              "time": 208.99806179583334,
              "value": 0.7007874015748031
            },
            {
              "number": 7,
              "ticks": 195632,
              "time": 209.00874556666665,
              "value": 0.7007874015748031
            },
            {
              "number": 7,
              "ticks": 195642,
              "time": 209.0194293375,
              "value": 0.7007874015748031
            },
            {
              "number": 7,
              "ticks": 195651,
              "time": 209.02904473125,
              "value": 0.7086614173228346
            },
            {
              "number": 7,
              "ticks": 195661,
              "time": 209.03972850208334,
              "value": 0.7086614173228346
            },
            {
              "number": 7,
              "ticks": 195670,
              "time": 209.04934389583332,
              "value": 0.7086614173228346
            },
            {
              "number": 7,
              "ticks": 195680,
              "time": 209.06002766666666,
              "value": 0.7086614173228346
            },
            {
              "number": 7,
              "ticks": 195690,
              "time": 209.0707114375,
              "value": 0.7086614173228346
            },
            {
              "number": 7,
              "ticks": 195699,
              "time": 209.08032683125,
              "value": 0.7086614173228346
            },
            {
              "number": 7,
              "ticks": 195709,
              "time": 209.09101060208332,
              "value": 0.7086614173228346
            },
            {
              "number": 7,
              "ticks": 195718,
              "time": 209.10062599583333,
              "value": 0.7086614173228346
            },
            {
              "number": 7,
              "ticks": 195729,
              "time": 209.11237814375,
              "value": 0.7086614173228346
            },
            {
              "number": 7,
              "ticks": 195738,
              "time": 209.1219935375,
              "value": 0.7086614173228346
            },
            {
              "number": 7,
              "ticks": 195747,
              "time": 209.13160893124999,
              "value": 0.7086614173228346
            },
            {
              "number": 7,
              "ticks": 195757,
              "time": 209.14229270208332,
              "value": 0.7086614173228346
            },
            {
              "number": 7,
              "ticks": 195767,
              "time": 209.15297647291666,
              "value": 0.7086614173228346
            },
            {
              "number": 7,
              "ticks": 195776,
              "time": 209.16259186666665,
              "value": 0.7086614173228346
            },
            {
              "number": 7,
              "ticks": 195786,
              "time": 209.17327563749998,
              "value": 0.7086614173228346
            },
            {
              "number": 7,
              "ticks": 195795,
              "time": 209.18289103125,
              "value": 0.7086614173228346
            },
            {
              "number": 7,
              "ticks": 195806,
              "time": 209.19464317916666,
              "value": 0.7086614173228346
            },
            {
              "number": 7,
              "ticks": 195815,
              "time": 209.20425857291667,
              "value": 0.7086614173228346
            },
            {
              "number": 7,
              "ticks": 195824,
              "time": 209.21387396666665,
              "value": 0.7086614173228346
            },
            {
              "number": 7,
              "ticks": 195834,
              "time": 209.2245577375,
              "value": 0.7086614173228346
            },
            {
              "number": 7,
              "ticks": 195844,
              "time": 209.23524150833333,
              "value": 0.7086614173228346
            },
            {
              "number": 7,
              "ticks": 195853,
              "time": 209.2448569020833,
              "value": 0.7086614173228346
            },
            {
              "number": 7,
              "ticks": 195863,
              "time": 209.25554067291665,
              "value": 0.7086614173228346
            },
            {
              "number": 7,
              "ticks": 195872,
              "time": 209.26515606666666,
              "value": 0.7086614173228346
            },
            {
              "number": 7,
              "ticks": 195883,
              "time": 209.27690821458333,
              "value": 0.7086614173228346
            },
            {
              "number": 7,
              "ticks": 195892,
              "time": 209.28652360833334,
              "value": 0.7086614173228346
            },
            {
              "number": 7,
              "ticks": 195901,
              "time": 209.29613900208332,
              "value": 0.7086614173228346
            },
            {
              "number": 7,
              "ticks": 195911,
              "time": 209.30682277291666,
              "value": 0.7086614173228346
            },
            {
              "number": 7,
              "ticks": 195920,
              "time": 209.31643816666667,
              "value": 0.7086614173228346
            },
            {
              "number": 7,
              "ticks": 195931,
              "time": 209.32819031458334,
              "value": 0.7086614173228346
            },
            {
              "number": 7,
              "ticks": 195940,
              "time": 209.33780570833332,
              "value": 0.7086614173228346
            },
            {
              "number": 7,
              "ticks": 195949,
              "time": 209.34742110208333,
              "value": 0.7086614173228346
            },
            {
              "number": 7,
              "ticks": 195959,
              "time": 209.35810487291664,
              "value": 0.7165354330708661
            },
            {
              "number": 7,
              "ticks": 195969,
              "time": 209.36878864375,
              "value": 0.7165354330708661
            },
            {
              "number": 7,
              "ticks": 195978,
              "time": 209.3784040375,
              "value": 0.7165354330708661
            },
            {
              "number": 7,
              "ticks": 195988,
              "time": 209.38908780833333,
              "value": 0.7165354330708661
            },
            {
              "number": 7,
              "ticks": 195997,
              "time": 209.39870320208334,
              "value": 0.7165354330708661
            },
            {
              "number": 7,
              "ticks": 196008,
              "time": 209.41045535,
              "value": 0.7165354330708661
            },
            {
              "number": 7,
              "ticks": 196017,
              "time": 209.42007074375,
              "value": 0.7165354330708661
            },
            {
              "number": 7,
              "ticks": 196026,
              "time": 209.42968613749997,
              "value": 0.7165354330708661
            },
            {
              "number": 7,
              "ticks": 196036,
              "time": 209.44036990833334,
              "value": 0.7165354330708661
            },
            {
              "number": 7,
              "ticks": 196046,
              "time": 209.45105367916665,
              "value": 0.7165354330708661
            },
            {
              "number": 7,
              "ticks": 196055,
              "time": 209.46066907291666,
              "value": 0.7165354330708661
            },
            {
              "number": 7,
              "ticks": 196065,
              "time": 209.47135284375,
              "value": 0.7165354330708661
            },
            {
              "number": 7,
              "ticks": 196074,
              "time": 209.4809682375,
              "value": 0.7165354330708661
            },
            {
              "number": 7,
              "ticks": 196085,
              "time": 209.49272038541667,
              "value": 0.7165354330708661
            },
            {
              "number": 7,
              "ticks": 196094,
              "time": 209.50233577916663,
              "value": 0.7165354330708661
            },
            {
              "number": 7,
              "ticks": 196103,
              "time": 209.51195117291664,
              "value": 0.7165354330708661
            },
            {
              "number": 7,
              "ticks": 196113,
              "time": 209.52263494375,
              "value": 0.7165354330708661
            },
            {
              "number": 7,
              "ticks": 196122,
              "time": 209.5322503375,
              "value": 0.7165354330708661
            },
            {
              "number": 7,
              "ticks": 196133,
              "time": 209.54400248541666,
              "value": 0.7165354330708661
            },
            {
              "number": 7,
              "ticks": 196142,
              "time": 209.55361787916667,
              "value": 0.7165354330708661
            },
            {
              "number": 7,
              "ticks": 196151,
              "time": 209.56323327291665,
              "value": 0.7165354330708661
            },
            {
              "number": 7,
              "ticks": 196161,
              "time": 209.57391704375,
              "value": 0.7165354330708661
            },
            {
              "number": 7,
              "ticks": 196171,
              "time": 209.58460081458333,
              "value": 0.7165354330708661
            },
            {
              "number": 7,
              "ticks": 196180,
              "time": 209.5942162083333,
              "value": 0.7165354330708661
            },
            {
              "number": 7,
              "ticks": 196190,
              "time": 209.60489997916667,
              "value": 0.7165354330708661
            },
            {
              "number": 7,
              "ticks": 196199,
              "time": 209.61451537291663,
              "value": 0.7165354330708661
            },
            {
              "number": 7,
              "ticks": 196210,
              "time": 209.62626752083332,
              "value": 0.7165354330708661
            },
            {
              "number": 7,
              "ticks": 196219,
              "time": 209.6358829145833,
              "value": 0.7165354330708661
            },
            {
              "number": 7,
              "ticks": 196228,
              "time": 209.64549830833332,
              "value": 0.7165354330708661
            },
            {
              "number": 7,
              "ticks": 196238,
              "time": 209.65618207916665,
              "value": 0.7165354330708661
            },
            {
              "number": 7,
              "ticks": 196248,
              "time": 209.66686585,
              "value": 0.7165354330708661
            },
            {
              "number": 7,
              "ticks": 196257,
              "time": 209.67648124374998,
              "value": 0.7165354330708661
            },
            {
              "number": 7,
              "ticks": 196267,
              "time": 209.68716501458334,
              "value": 0.7244094488188977
            },
            {
              "number": 7,
              "ticks": 196276,
              "time": 209.69678040833332,
              "value": 0.7244094488188977
            },
            {
              "number": 7,
              "ticks": 196287,
              "time": 209.70853255624996,
              "value": 0.7244094488188977
            },
            {
              "number": 7,
              "ticks": 196296,
              "time": 209.71814794999997,
              "value": 0.7244094488188977
            },
            {
              "number": 7,
              "ticks": 196305,
              "time": 209.72776334374998,
              "value": 0.7244094488188977
            },
            {
              "number": 7,
              "ticks": 196315,
              "time": 209.73844711458332,
              "value": 0.7244094488188977
            },
            {
              "number": 7,
              "ticks": 196325,
              "time": 209.74913088541666,
              "value": 0.7244094488188977
            },
            {
              "number": 7,
              "ticks": 196334,
              "time": 209.75874627916664,
              "value": 0.7244094488188977
            },
            {
              "number": 7,
              "ticks": 196344,
              "time": 209.76943004999998,
              "value": 0.7244094488188977
            },
            {
              "number": 7,
              "ticks": 196353,
              "time": 209.77904544375,
              "value": 0.7244094488188977
            },
            {
              "number": 7,
              "ticks": 196363,
              "time": 209.78972921458333,
              "value": 0.7244094488188977
            },
            {
              "number": 7,
              "ticks": 196373,
              "time": 209.80041298541664,
              "value": 0.7244094488188977
            },
            {
              "number": 7,
              "ticks": 196382,
              "time": 209.81002837916665,
              "value": 0.7244094488188977
            },
            {
              "number": 7,
              "ticks": 196392,
              "time": 209.82071214999996,
              "value": 0.7244094488188977
            },
            {
              "number": 7,
              "ticks": 196401,
              "time": 209.83032754374997,
              "value": 0.7244094488188977
            },
            {
              "number": 7,
              "ticks": 196412,
              "time": 209.84207969166664,
              "value": 0.7244094488188977
            },
            {
              "number": 7,
              "ticks": 196421,
              "time": 209.85169508541665,
              "value": 0.7244094488188977
            },
            {
              "number": 7,
              "ticks": 196430,
              "time": 209.86131047916666,
              "value": 0.7244094488188977
            },
            {
              "number": 7,
              "ticks": 196440,
              "time": 209.87199425,
              "value": 0.7244094488188977
            },
            {
              "number": 7,
              "ticks": 213107,
              "time": 227.67863509791664,
              "value": 0.5511811023622047
            },
            {
              "number": 7,
              "ticks": 213264,
              "time": 227.8463703,
              "value": 0.5511811023622047
            },
            {
              "number": 7,
              "ticks": 213422,
              "time": 228.01517387916664,
              "value": 0.5511811023622047
            },
            {
              "number": 7,
              "ticks": 213579,
              "time": 228.18290908125,
              "value": 0.5511811023622047
            },
            {
              "number": 7,
              "ticks": 213736,
              "time": 228.35064428333334,
              "value": 0.5511811023622047
            },
            {
              "number": 7,
              "ticks": 213893,
              "time": 228.51837948541666,
              "value": 0.5511811023622047
            },
            {
              "number": 7,
              "ticks": 214050,
              "time": 228.68611468749998,
              "value": 0.5511811023622047
            },
            {
              "number": 7,
              "ticks": 214208,
              "time": 228.85491826666666,
              "value": 0.5511811023622047
            },
            {
              "number": 7,
              "ticks": 214365,
              "time": 229.02265346874998,
              "value": 0.5511811023622047
            },
            {
              "number": 7,
              "ticks": 214522,
              "time": 229.19038867083333,
              "value": 0.5511811023622047
            },
            {
              "number": 7,
              "ticks": 214679,
              "time": 229.35812387291665,
              "value": 0.5511811023622047
            },
            {
              "number": 7,
              "ticks": 214837,
              "time": 229.52692745208333,
              "value": 0.5511811023622047
            },
            {
              "number": 7,
              "ticks": 214994,
              "time": 229.69466265416665,
              "value": 0.5511811023622047
            },
            {
              "number": 7,
              "ticks": 215151,
              "time": 229.86239785624997,
              "value": 0.5511811023622047
            },
            {
              "number": 7,
              "ticks": 215308,
              "time": 230.03013305833332,
              "value": 0.5511811023622047
            },
            {
              "number": 7,
              "ticks": 215465,
              "time": 230.19786826041667,
              "value": 0.5511811023622047
            },
            {
              "number": 7,
              "ticks": 215623,
              "time": 230.36667183958332,
              "value": 0.5511811023622047
            },
            {
              "number": 7,
              "ticks": 215780,
              "time": 230.53440704166667,
              "value": 0.5511811023622047
            },
            {
              "number": 7,
              "ticks": 215937,
              "time": 230.70214224375,
              "value": 0.5511811023622047
            },
            {
              "number": 7,
              "ticks": 216094,
              "time": 230.8698774458333,
              "value": 0.5511811023622047
            },
            {
              "number": 7,
              "ticks": 216251,
              "time": 231.03761264791666,
              "value": 0.5511811023622047
            },
            {
              "number": 7,
              "ticks": 216409,
              "time": 231.2064162270833,
              "value": 0.5511811023622047
            },
            {
              "number": 7,
              "ticks": 216566,
              "time": 231.37415142916666,
              "value": 0.5511811023622047
            },
            {
              "number": 7,
              "ticks": 216723,
              "time": 231.54188663125,
              "value": 0.5511811023622047
            },
            {
              "number": 7,
              "ticks": 216880,
              "time": 231.7096218333333,
              "value": 0.5511811023622047
            },
            {
              "number": 7,
              "ticks": 217038,
              "time": 231.8784254125,
              "value": 0.5511811023622047
            },
            {
              "number": 7,
              "ticks": 217195,
              "time": 232.0461606145833,
              "value": 0.5511811023622047
            },
            {
              "number": 7,
              "ticks": 217352,
              "time": 232.21389581666665,
              "value": 0.5511811023622047
            },
            {
              "number": 7,
              "ticks": 217509,
              "time": 232.38163101875,
              "value": 0.5511811023622047
            },
            {
              "number": 7,
              "ticks": 217666,
              "time": 232.54936622083332,
              "value": 0.5511811023622047
            },
            {
              "number": 7,
              "ticks": 217824,
              "time": 232.7181698,
              "value": 0.5511811023622047
            },
            {
              "number": 7,
              "ticks": 217981,
              "time": 232.88590500208335,
              "value": 0.5511811023622047
            },
            {
              "number": 7,
              "ticks": 218138,
              "time": 233.05364020416664,
              "value": 0.5590551181102362
            },
            {
              "number": 7,
              "ticks": 218295,
              "time": 233.22137540625,
              "value": 0.5590551181102362
            },
            {
              "number": 7,
              "ticks": 218452,
              "time": 233.38911060833334,
              "value": 0.5590551181102362
            },
            {
              "number": 7,
              "ticks": 218610,
              "time": 233.5579141875,
              "value": 0.5590551181102362
            },
            {
              "number": 7,
              "ticks": 218767,
              "time": 233.72564938958334,
              "value": 0.5590551181102362
            },
            {
              "number": 7,
              "ticks": 218924,
              "time": 233.89338459166663,
              "value": 0.5590551181102362
            },
            {
              "number": 7,
              "ticks": 219081,
              "time": 234.06111979374998,
              "value": 0.5590551181102362
            },
            {
              "number": 7,
              "ticks": 219239,
              "time": 234.22992337291663,
              "value": 0.5590551181102362
            },
            {
              "number": 7,
              "ticks": 219396,
              "time": 234.39765857499998,
              "value": 0.5590551181102362
            },
            {
              "number": 7,
              "ticks": 219553,
              "time": 234.56539377708333,
              "value": 0.5590551181102362
            },
            {
              "number": 7,
              "ticks": 219710,
              "time": 234.73312897916665,
              "value": 0.5590551181102362
            },
            {
              "number": 7,
              "ticks": 219867,
              "time": 234.90086418124997,
              "value": 0.5590551181102362
            },
            {
              "number": 7,
              "ticks": 220025,
              "time": 235.06966776041665,
              "value": 0.5590551181102362
            },
            {
              "number": 7,
              "ticks": 220182,
              "time": 235.23740296249997,
              "value": 0.5590551181102362
            },
            {
              "number": 7,
              "ticks": 220339,
              "time": 235.40513816458332,
              "value": 0.5590551181102362
            },
            {
              "number": 7,
              "ticks": 220496,
              "time": 235.57287336666667,
              "value": 0.5590551181102362
            },
            {
              "number": 7,
              "ticks": 220653,
              "time": 235.74060856875,
              "value": 0.5590551181102362
            },
            {
              "number": 7,
              "ticks": 220811,
              "time": 235.90941214791667,
              "value": 0.5590551181102362
            },
            {
              "number": 7,
              "ticks": 220968,
              "time": 236.07714735,
              "value": 0.5590551181102362
            },
            {
              "number": 7,
              "ticks": 221125,
              "time": 236.2448825520833,
              "value": 0.5590551181102362
            },
            {
              "number": 7,
              "ticks": 221282,
              "time": 236.41261775416666,
              "value": 0.5590551181102362
            },
            {
              "number": 7,
              "ticks": 221440,
              "time": 236.5814213333333,
              "value": 0.5590551181102362
            },
            {
              "number": 7,
              "ticks": 221597,
              "time": 236.74915653541666,
              "value": 0.5590551181102362
            },
            {
              "number": 7,
              "ticks": 221754,
              "time": 236.91689173749998,
              "value": 0.5590551181102362
            },
            {
              "number": 7,
              "ticks": 221911,
              "time": 237.08462693958333,
              "value": 0.5590551181102362
            },
            {
              "number": 7,
              "ticks": 222068,
              "time": 237.25236214166665,
              "value": 0.5590551181102362
            },
            {
              "number": 7,
              "ticks": 222226,
              "time": 237.42116572083333,
              "value": 0.5590551181102362
            },
            {
              "number": 7,
              "ticks": 222383,
              "time": 237.58890092291665,
              "value": 0.5590551181102362
            },
            {
              "number": 7,
              "ticks": 222540,
              "time": 237.756636125,
              "value": 0.5590551181102362
            },
            {
              "number": 7,
              "ticks": 222697,
              "time": 237.92437132708332,
              "value": 0.5590551181102362
            },
            {
              "number": 7,
              "ticks": 222854,
              "time": 238.09210652916664,
              "value": 0.5590551181102362
            },
            {
              "number": 7,
              "ticks": 223012,
              "time": 238.26091010833332,
              "value": 0.5590551181102362
            },
            {
              "number": 7,
              "ticks": 223169,
              "time": 238.42864531041664,
              "value": 0.5669291338582677
            },
            {
              "number": 7,
              "ticks": 223326,
              "time": 238.5963805125,
              "value": 0.5669291338582677
            },
            {
              "number": 7,
              "ticks": 223483,
              "time": 238.7641157145833,
              "value": 0.5669291338582677
            },
            {
              "number": 7,
              "ticks": 223641,
              "time": 238.93291929375,
              "value": 0.5669291338582677
            },
            {
              "number": 7,
              "ticks": 223798,
              "time": 239.1006544958333,
              "value": 0.5669291338582677
            },
            {
              "number": 7,
              "ticks": 223955,
              "time": 239.26838969791666,
              "value": 0.5669291338582677
            },
            {
              "number": 7,
              "ticks": 224112,
              "time": 239.43612489999998,
              "value": 0.5669291338582677
            },
            {
              "number": 7,
              "ticks": 224269,
              "time": 239.6038601020833,
              "value": 0.5669291338582677
            },
            {
              "number": 7,
              "ticks": 224427,
              "time": 239.77266368124998,
              "value": 0.5669291338582677
            },
            {
              "number": 7,
              "ticks": 224584,
              "time": 239.94039888333333,
              "value": 0.5669291338582677
            },
            {
              "number": 7,
              "ticks": 224741,
              "time": 240.10813408541665,
              "value": 0.5669291338582677
            },
            {
              "number": 7,
              "ticks": 224898,
              "time": 240.2758692875,
              "value": 0.5669291338582677
            },
            {
              "number": 7,
              "ticks": 225055,
              "time": 240.44360448958332,
              "value": 0.5669291338582677
            },
            {
              "number": 7,
              "ticks": 225213,
              "time": 240.61240806875,
              "value": 0.5669291338582677
            },
            {
              "number": 7,
              "ticks": 225370,
              "time": 240.78014327083332,
              "value": 0.5669291338582677
            },
            {
              "number": 7,
              "ticks": 225527,
              "time": 240.94787847291664,
              "value": 0.5669291338582677
            },
            {
              "number": 7,
              "ticks": 225684,
              "time": 241.115613675,
              "value": 0.5669291338582677
            },
            {
              "number": 7,
              "ticks": 225842,
              "time": 241.28441725416664,
              "value": 0.5669291338582677
            },
            {
              "number": 7,
              "ticks": 225999,
              "time": 241.45215245625,
              "value": 0.5669291338582677
            },
            {
              "number": 7,
              "ticks": 226156,
              "time": 241.61988765833334,
              "value": 0.5669291338582677
            },
            {
              "number": 7,
              "ticks": 226313,
              "time": 241.78762286041663,
              "value": 0.5669291338582677
            },
            {
              "number": 7,
              "ticks": 226470,
              "time": 241.95535806249998,
              "value": 0.5669291338582677
            },
            {
              "number": 7,
              "ticks": 226628,
              "time": 242.12416164166663,
              "value": 0.5669291338582677
            },
            {
              "number": 7,
              "ticks": 226785,
              "time": 242.29189684374998,
              "value": 0.5669291338582677
            },
            {
              "number": 7,
              "ticks": 226942,
              "time": 242.45963204583333,
              "value": 0.5669291338582677
            },
            {
              "number": 7,
              "ticks": 227099,
              "time": 242.62736724791665,
              "value": 0.5669291338582677
            },
            {
              "number": 7,
              "ticks": 227256,
              "time": 242.79510244999997,
              "value": 0.5669291338582677
            },
            {
              "number": 7,
              "ticks": 227414,
              "time": 242.96390602916665,
              "value": 0.5669291338582677
            },
            {
              "number": 7,
              "ticks": 227571,
              "time": 243.13164123124997,
              "value": 0.5669291338582677
            },
            {
              "number": 7,
              "ticks": 227728,
              "time": 243.29937643333332,
              "value": 0.5669291338582677
            },
            {
              "number": 7,
              "ticks": 227885,
              "time": 243.46711163541667,
              "value": 0.5669291338582677
            },
            {
              "number": 7,
              "ticks": 228042,
              "time": 243.63484683749996,
              "value": 0.5669291338582677
            },
            {
              "number": 7,
              "ticks": 228200,
              "time": 243.80365041666667,
              "value": 0.5748031496062992
            },
            {
              "number": 7,
              "ticks": 228357,
              "time": 243.97138561874996,
              "value": 0.5748031496062992
            },
            {
              "number": 7,
              "ticks": 228514,
              "time": 244.1391208208333,
              "value": 0.5748031496062992
            },
            {
              "number": 7,
              "ticks": 228671,
              "time": 244.30685602291666,
              "value": 0.5748031496062992
            },
            {
              "number": 7,
              "ticks": 228829,
              "time": 244.4756596020833,
              "value": 0.5748031496062992
            },
            {
              "number": 7,
              "ticks": 228986,
              "time": 244.64339480416666,
              "value": 0.5748031496062992
            },
            {
              "number": 7,
              "ticks": 229143,
              "time": 244.81113000625,
              "value": 0.5748031496062992
            },
            {
              "number": 7,
              "ticks": 229300,
              "time": 244.9788652083333,
              "value": 0.5748031496062992
            },
            {
              "number": 7,
              "ticks": 229457,
              "time": 245.14660041041665,
              "value": 0.5748031496062992
            },
            {
              "number": 7,
              "ticks": 229615,
              "time": 245.3154039895833,
              "value": 0.5748031496062992
            },
            {
              "number": 7,
              "ticks": 229772,
              "time": 245.48313919166665,
              "value": 0.5748031496062992
            },
            {
              "number": 7,
              "ticks": 229929,
              "time": 245.65087439375,
              "value": 0.5748031496062992
            },
            {
              "number": 7,
              "ticks": 230086,
              "time": 245.81860959583332,
              "value": 0.5748031496062992
            },
            {
              "number": 7,
              "ticks": 230243,
              "time": 245.98634479791664,
              "value": 0.5748031496062992
            },
            {
              "number": 7,
              "ticks": 230400,
              "time": 246.15408,
              "value": 0.5748031496062992
            },
            {
              "number": 7,
              "ticks": 230558,
              "time": 246.32288357916664,
              "value": 0.5748031496062992
            },
            {
              "number": 7,
              "ticks": 230715,
              "time": 246.49061878125,
              "value": 0.5748031496062992
            },
            {
              "number": 7,
              "ticks": 230872,
              "time": 246.6583539833333,
              "value": 0.5748031496062992
            },
            {
              "number": 7,
              "ticks": 231030,
              "time": 246.8271575625,
              "value": 0.5748031496062992
            },
            {
              "number": 7,
              "ticks": 231187,
              "time": 246.99489276458334,
              "value": 0.5748031496062992
            },
            {
              "number": 7,
              "ticks": 231344,
              "time": 247.16262796666663,
              "value": 0.5748031496062992
            },
            {
              "number": 7,
              "ticks": 231501,
              "time": 247.33036316874998,
              "value": 0.5748031496062992
            },
            {
              "number": 7,
              "ticks": 231658,
              "time": 247.49809837083333,
              "value": 0.5748031496062992
            },
            {
              "number": 7,
              "ticks": 231816,
              "time": 247.66690194999998,
              "value": 0.5748031496062992
            },
            {
              "number": 7,
              "ticks": 231973,
              "time": 247.83463715208333,
              "value": 0.5748031496062992
            },
            {
              "number": 7,
              "ticks": 232130,
              "time": 248.00237235416665,
              "value": 0.5748031496062992
            },
            {
              "number": 7,
              "ticks": 232287,
              "time": 248.17010755624997,
              "value": 0.5748031496062992
            },
            {
              "number": 7,
              "ticks": 232444,
              "time": 248.33784275833332,
              "value": 0.5748031496062992
            },
            {
              "number": 7,
              "ticks": 232602,
              "time": 248.50664633749997,
              "value": 0.5748031496062992
            },
            {
              "number": 7,
              "ticks": 232759,
              "time": 248.67438153958332,
              "value": 0.5748031496062992
            },
            {
              "number": 7,
              "ticks": 232916,
              "time": 248.84211674166664,
              "value": 0.5748031496062992
            },
            {
              "number": 7,
              "ticks": 233073,
              "time": 249.00985194375,
              "value": 0.5748031496062992
            },
            {
              "number": 7,
              "ticks": 233231,
              "time": 249.17865552291664,
              "value": 0.5826771653543307
            },
            {
              "number": 7,
              "ticks": 233388,
              "time": 249.346390725,
              "value": 0.5826771653543307
            },
            {
              "number": 7,
              "ticks": 233545,
              "time": 249.5141259270833,
              "value": 0.5826771653543307
            },
            {
              "number": 7,
              "ticks": 233702,
              "time": 249.68186112916666,
              "value": 0.5826771653543307
            },
            {
              "number": 7,
              "ticks": 233859,
              "time": 249.84959633124998,
              "value": 0.5826771653543307
            },
            {
              "number": 7,
              "ticks": 234017,
              "time": 250.01839991041666,
              "value": 0.5826771653543307
            },
            {
              "number": 7,
              "ticks": 234174,
              "time": 250.18613511249998,
              "value": 0.5826771653543307
            },
            {
              "number": 7,
              "ticks": 234331,
              "time": 250.35387031458333,
              "value": 0.5826771653543307
            },
            {
              "number": 7,
              "ticks": 234488,
              "time": 250.52160551666665,
              "value": 0.5826771653543307
            },
            {
              "number": 7,
              "ticks": 234645,
              "time": 250.68934071874997,
              "value": 0.5826771653543307
            },
            {
              "number": 7,
              "ticks": 234803,
              "time": 250.85814429791665,
              "value": 0.5826771653543307
            },
            {
              "number": 7,
              "ticks": 234960,
              "time": 251.02587949999997,
              "value": 0.5826771653543307
            },
            {
              "number": 7,
              "ticks": 235117,
              "time": 251.19361470208332,
              "value": 0.5826771653543307
            },
            {
              "number": 7,
              "ticks": 235274,
              "time": 251.36134990416664,
              "value": 0.5826771653543307
            },
            {
              "number": 7,
              "ticks": 235432,
              "time": 251.53015348333332,
              "value": 0.5826771653543307
            },
            {
              "number": 7,
              "ticks": 235589,
              "time": 251.69788868541664,
              "value": 0.5826771653543307
            },
            {
              "number": 7,
              "ticks": 235746,
              "time": 251.8656238875,
              "value": 0.5826771653543307
            },
            {
              "number": 7,
              "ticks": 235903,
              "time": 252.0333590895833,
              "value": 0.5826771653543307
            },
            {
              "number": 7,
              "ticks": 236060,
              "time": 252.20109429166666,
              "value": 0.5826771653543307
            },
            {
              "number": 7,
              "ticks": 236218,
              "time": 252.3698978708333,
              "value": 0.5826771653543307
            },
            {
              "number": 7,
              "ticks": 236375,
              "time": 252.53763307291666,
              "value": 0.5826771653543307
            },
            {
              "number": 7,
              "ticks": 236532,
              "time": 252.70536827499998,
              "value": 0.5826771653543307
            },
            {
              "number": 7,
              "ticks": 236689,
              "time": 252.8731034770833,
              "value": 0.5826771653543307
            },
            {
              "number": 7,
              "ticks": 236846,
              "time": 253.04083867916665,
              "value": 0.5826771653543307
            },
            {
              "number": 7,
              "ticks": 237004,
              "time": 253.2096422583333,
              "value": 0.5826771653543307
            },
            {
              "number": 7,
              "ticks": 237161,
              "time": 253.37737746041665,
              "value": 0.5826771653543307
            },
            {
              "number": 7,
              "ticks": 237318,
              "time": 253.5451126625,
              "value": 0.5826771653543307
            },
            {
              "number": 7,
              "ticks": 237475,
              "time": 253.7128478645833,
              "value": 0.5826771653543307
            },
            {
              "number": 7,
              "ticks": 237633,
              "time": 253.88165144375,
              "value": 0.5826771653543307
            },
            {
              "number": 7,
              "ticks": 237790,
              "time": 254.04938664583332,
              "value": 0.5826771653543307
            },
            {
              "number": 7,
              "ticks": 237947,
              "time": 254.21712184791664,
              "value": 0.5826771653543307
            },
            {
              "number": 7,
              "ticks": 238104,
              "time": 254.38485705,
              "value": 0.5826771653543307
            },
            {
              "number": 7,
              "ticks": 238261,
              "time": 254.55259225208334,
              "value": 0.5905511811023622
            },
            {
              "number": 7,
              "ticks": 238419,
              "time": 254.72139583125,
              "value": 0.5905511811023622
            },
            {
              "number": 7,
              "ticks": 238576,
              "time": 254.88913103333334,
              "value": 0.5905511811023622
            },
            {
              "number": 7,
              "ticks": 238733,
              "time": 255.05686623541663,
              "value": 0.5905511811023622
            },
            {
              "number": 7,
              "ticks": 238890,
              "time": 255.22460143749998,
              "value": 0.5905511811023622
            },
            {
              "number": 7,
              "ticks": 239047,
              "time": 255.39233663958333,
              "value": 0.5905511811023622
            },
            {
              "number": 7,
              "ticks": 239205,
              "time": 255.56114021874998,
              "value": 0.5905511811023622
            },
            {
              "number": 7,
              "ticks": 239362,
              "time": 255.72887542083333,
              "value": 0.5905511811023622
            },
            {
              "number": 7,
              "ticks": 239519,
              "time": 255.89661062291663,
              "value": 0.5905511811023622
            },
            {
              "number": 7,
              "ticks": 239676,
              "time": 256.064345825,
              "value": 0.5905511811023622
            },
            {
              "number": 7,
              "ticks": 239834,
              "time": 256.2331494041666,
              "value": 0.5905511811023622
            },
            {
              "number": 7,
              "ticks": 239991,
              "time": 256.40088460625,
              "value": 0.5905511811023622
            },
            {
              "number": 7,
              "ticks": 240148,
              "time": 256.5686198083333,
              "value": 0.5905511811023622
            },
            {
              "number": 7,
              "ticks": 240305,
              "time": 256.7363550104167,
              "value": 0.5905511811023622
            },
            {
              "number": 7,
              "ticks": 240462,
              "time": 256.90409021249997,
              "value": 0.5905511811023622
            },
            {
              "number": 7,
              "ticks": 240620,
              "time": 257.0728937916667,
              "value": 0.5905511811023622
            },
            {
              "number": 7,
              "ticks": 240777,
              "time": 257.24062899374997,
              "value": 0.5905511811023622
            },
            {
              "number": 7,
              "ticks": 240934,
              "time": 257.4083641958333,
              "value": 0.5905511811023622
            },
            {
              "number": 7,
              "ticks": 241091,
              "time": 257.57609939791666,
              "value": 0.5905511811023622
            },
            {
              "number": 7,
              "ticks": 241248,
              "time": 257.7438346,
              "value": 0.5905511811023622
            },
            {
              "number": 7,
              "ticks": 241406,
              "time": 257.91263817916666,
              "value": 0.5905511811023622
            },
            {
              "number": 7,
              "ticks": 241563,
              "time": 258.08037338125,
              "value": 0.5905511811023622
            },
            {
              "number": 7,
              "ticks": 241720,
              "time": 258.2481085833333,
              "value": 0.5905511811023622
            },
            {
              "number": 7,
              "ticks": 241877,
              "time": 258.41584378541666,
              "value": 0.5905511811023622
            },
            {
              "number": 7,
              "ticks": 242035,
              "time": 258.5846473645833,
              "value": 0.5905511811023622
            },
            {
              "number": 7,
              "ticks": 242192,
              "time": 258.75238256666665,
              "value": 0.5905511811023622
            },
            {
              "number": 7,
              "ticks": 242349,
              "time": 258.92011776875,
              "value": 0.5905511811023622
            },
            {
              "number": 7,
              "ticks": 242506,
              "time": 259.08785297083335,
              "value": 0.5905511811023622
            },
            {
              "number": 7,
              "ticks": 242663,
              "time": 259.25558817291665,
              "value": 0.5905511811023622
            },
            {
              "number": 7,
              "ticks": 242821,
              "time": 259.42439175208335,
              "value": 0.5905511811023622
            },
            {
              "number": 7,
              "ticks": 242978,
              "time": 259.59212695416664,
              "value": 0.5905511811023622
            }
          ],
          "10": [
            {
              "number": 10,
              "ticks": 543,
              "time": 0.58012875625,
              "value": 0.5039370078740157
            },
            {
              "number": 10,
              "ticks": 7486,
              "time": 7.997870845833333,
              "value": 0.49606299212598426
            },
            {
              "number": 10,
              "ticks": 14430,
              "time": 15.4166813125,
              "value": 0.4881889763779528
            },
            {
              "number": 10,
              "ticks": 21372,
              "time": 22.833355025,
              "value": 0.48031496062992124
            },
            {
              "number": 10,
              "ticks": 28316,
              "time": 30.252165491666666,
              "value": 0.47244094488188976
            },
            {
              "number": 10,
              "ticks": 35259,
              "time": 37.669907581249994,
              "value": 0.4645669291338583
            },
            {
              "number": 10,
              "ticks": 42202,
              "time": 45.08764967083333,
              "value": 0.4566929133858268
            },
            {
              "number": 10,
              "ticks": 49146,
              "time": 52.5064601375,
              "value": 0.44881889763779526
            },
            {
              "number": 10,
              "ticks": 56089,
              "time": 59.924202227083335,
              "value": 0.4409448818897638
            },
            {
              "number": 10,
              "ticks": 63032,
              "time": 67.34194431666666,
              "value": 0.4330708661417323
            },
            {
              "number": 10,
              "ticks": 69975,
              "time": 74.75968640625,
              "value": 0.4251968503937008
            },
            {
              "number": 10,
              "ticks": 76919,
              "time": 82.17849687291667,
              "value": 0.41732283464566927
            },
            {
              "number": 10,
              "ticks": 83862,
              "time": 89.5962389625,
              "value": 0.4094488188976378
            },
            {
              "number": 10,
              "ticks": 90805,
              "time": 97.01398105208334,
              "value": 0.4015748031496063
            },
            {
              "number": 10,
              "ticks": 97749,
              "time": 104.43279151875,
              "value": 0.3937007874015748
            },
            {
              "number": 10,
              "ticks": 104692,
              "time": 111.85053360833332,
              "value": 0.3858267716535433
            },
            {
              "number": 10,
              "ticks": 111635,
              "time": 119.26827569791665,
              "value": 0.3779527559055118
            },
            {
              "number": 10,
              "ticks": 118579,
              "time": 126.68708616458332,
              "value": 0.3700787401574803
            },
            {
              "number": 10,
              "ticks": 125522,
              "time": 134.10482825416665,
              "value": 0.36220472440944884
            },
            {
              "number": 10,
              "ticks": 132465,
              "time": 141.52257034375,
              "value": 0.3543307086614173
            },
            {
              "number": 10,
              "ticks": 139408,
              "time": 148.94031243333333,
              "value": 0.3464566929133858
            },
            {
              "number": 10,
              "ticks": 146352,
              "time": 156.3591229,
              "value": 0.33858267716535434
            },
            {
              "number": 10,
              "ticks": 153295,
              "time": 163.77686498958332,
              "value": 0.33070866141732286
            },
            {
              "number": 10,
              "ticks": 160238,
              "time": 171.19460707916664,
              "value": 0.3228346456692913
            },
            {
              "number": 10,
              "ticks": 167182,
              "time": 178.61341754583333,
              "value": 0.31496062992125984
            },
            {
              "number": 10,
              "ticks": 182215,
              "time": 194.67433023958333,
              "value": 0.49606299212598426
            },
            {
              "number": 10,
              "ticks": 182215,
              "time": 194.67433023958333,
              "value": 0.5039370078740157
            }
          ],
          "11": [
            {
              "number": 11,
              "ticks": 1300,
              "time": 1.3888902083333334,
              "value": 1
            }
          ],
          "32": [
            {
              "number": 32,
              "ticks": 22222,
              "time": 23.74147554583333,
              "value": 0.007874015748031496
            },
            {
              "number": 32,
              "ticks": 43907,
              "time": 46.90923259791666,
              "value": 0.015748031496062992
            },
            {
              "number": 32,
              "ticks": 65592,
              "time": 70.07698965,
              "value": 0.023622047244094488
            },
            {
              "number": 32,
              "ticks": 87277,
              "time": 93.24474670208332,
              "value": 0.031496062992125984
            },
            {
              "number": 32,
              "ticks": 108961,
              "time": 116.41143537708332,
              "value": 0.03937007874015748
            },
            {
              "number": 32,
              "ticks": 130646,
              "time": 139.57919242916665,
              "value": 0.047244094488188976
            },
            {
              "number": 32,
              "ticks": 152330,
              "time": 162.74588110416667,
              "value": 0.05511811023622047
            },
            {
              "number": 32,
              "ticks": 174015,
              "time": 185.91363815625,
              "value": 0.06299212598425197
            },
            {
              "number": 32,
              "ticks": 174015,
              "time": 185.91363815625,
              "value": 0.06299212598425197
            },
            {
              "number": 32,
              "ticks": 183911,
              "time": 196.48629777291666,
              "value": 0.007874015748031496
            },
            {
              "number": 32,
              "ticks": 185701,
              "time": 198.39869275208335,
              "value": 0.015748031496062992
            },
            {
              "number": 32,
              "ticks": 187492,
              "time": 200.31215610833334,
              "value": 0.023622047244094488
            },
            {
              "number": 32,
              "ticks": 189283,
              "time": 202.22561946458333,
              "value": 0.031496062992125984
            },
            {
              "number": 32,
              "ticks": 191072,
              "time": 204.13694606666667,
              "value": 0.03937007874015748
            },
            {
              "number": 32,
              "ticks": 192864,
              "time": 206.0514778,
              "value": 0.047244094488188976
            },
            {
              "number": 32,
              "ticks": 194654,
              "time": 207.96387277916665,
              "value": 0.05511811023622047
            },
            {
              "number": 32,
              "ticks": 196445,
              "time": 209.87733613541667,
              "value": 0.06299212598425197
            },
            {
              "number": 32,
              "ticks": 196445,
              "time": 209.87733613541667,
              "value": 0.06299212598425197
            },
            {
              "number": 32,
              "ticks": 243015,
              "time": 259.63165690625,
              "value": 0.06299212598425197
            },
            {
              "number": 32,
              "ticks": 243015,
              "time": 259.63165690625,
              "value": 0.06299212598425197
            }
          ],
          "91": [
            {
              "number": 91,
              "ticks": 968,
              "time": 1.0341890166666665,
              "value": 0.7874015748031497
            }
          ],
          "93": [
            {
              "number": 93,
              "ticks": 1085,
              "time": 1.1591891354166666,
              "value": 0.47244094488188976
            }
          ]
        },
        "pitchBends": [],
        "instrument": {
          "family": "guitar",
          "number": 27,
          "name": "electric guitar (clean)"
        },
        "name": "",
        "notes": [
          {
            "duration": 0.0940171833333352,
            "durationTicks": 88,
            "midi": 54,
            "name": "F#3",
            "ticks": 90240,
            "time": 96.410348,
            "velocity": 0.84251968503937
          },
          {
            "duration": 0.09081205208333643,
            "durationTicks": 85,
            "midi": 66,
            "name": "F#4",
            "ticks": 90240,
            "time": 96.410348,
            "velocity": 1
          },
          {
            "duration": 0.0032051312499845608,
            "durationTicks": 3,
            "midi": 54,
            "name": "F#3",
            "ticks": 90480,
            "time": 96.6667585,
            "velocity": 0.6377952755905512
          },
          {
            "duration": 0.0032051312499845608,
            "durationTicks": 3,
            "midi": 66,
            "name": "F#4",
            "ticks": 90480,
            "time": 96.6667585,
            "velocity": 0.6692913385826772
          },
          {
            "duration": 0.0032051312499987716,
            "durationTicks": 3,
            "midi": 54,
            "name": "F#3",
            "ticks": 90600,
            "time": 96.79496375,
            "velocity": 0.6692913385826772
          },
          {
            "duration": 0.0032051312499987716,
            "durationTicks": 3,
            "midi": 66,
            "name": "F#4",
            "ticks": 90600,
            "time": 96.79496375,
            "velocity": 0.6692913385826772
          },
          {
            "duration": 0.08333341249999648,
            "durationTicks": 78,
            "midi": 54,
            "name": "F#3",
            "ticks": 90720,
            "time": 96.923169,
            "velocity": 0.952755905511811
          },
          {
            "duration": 0.08012828124999771,
            "durationTicks": 75,
            "midi": 66,
            "name": "F#4",
            "ticks": 90720,
            "time": 96.923169,
            "velocity": 1
          },
          {
            "duration": 0.0032051312499987716,
            "durationTicks": 3,
            "midi": 54,
            "name": "F#3",
            "ticks": 90960,
            "time": 97.17957949999999,
            "velocity": 0.6692913385826772
          },
          {
            "duration": 0.0032051312499987716,
            "durationTicks": 3,
            "midi": 66,
            "name": "F#4",
            "ticks": 90960,
            "time": 97.17957949999999,
            "velocity": 0.6692913385826772
          },
          {
            "duration": 0.0032051312499987716,
            "durationTicks": 3,
            "midi": 54,
            "name": "F#3",
            "ticks": 91080,
            "time": 97.30778475,
            "velocity": 0.6692913385826772
          },
          {
            "duration": 0.0032051312499987716,
            "durationTicks": 3,
            "midi": 66,
            "name": "F#4",
            "ticks": 91080,
            "time": 97.30778475,
            "velocity": 0.6692913385826772
          },
          {
            "duration": 0.08547016666666707,
            "durationTicks": 80,
            "midi": 54,
            "name": "F#3",
            "ticks": 91200,
            "time": 97.43598999999999,
            "velocity": 0.84251968503937
          },
          {
            "duration": 0.09615393750000578,
            "durationTicks": 90,
            "midi": 66,
            "name": "F#4",
            "ticks": 91200,
            "time": 97.43598999999999,
            "velocity": 1
          },
          {
            "duration": 0.0032051312499987716,
            "durationTicks": 3,
            "midi": 54,
            "name": "F#3",
            "ticks": 91440,
            "time": 97.69240049999999,
            "velocity": 0.6377952755905512
          },
          {
            "duration": 0.0032051312499987716,
            "durationTicks": 3,
            "midi": 66,
            "name": "F#4",
            "ticks": 91440,
            "time": 97.69240049999999,
            "velocity": 0.6062992125984252
          },
          {
            "duration": 0.0032051312499987716,
            "durationTicks": 3,
            "midi": 54,
            "name": "F#3",
            "ticks": 91560,
            "time": 97.82060575,
            "velocity": 0.6062992125984252
          },
          {
            "duration": 0.0032051312499987716,
            "durationTicks": 3,
            "midi": 66,
            "name": "F#4",
            "ticks": 91560,
            "time": 97.82060575,
            "velocity": 0.6062992125984252
          },
          {
            "duration": 0.0940171833333352,
            "durationTicks": 88,
            "midi": 54,
            "name": "F#3",
            "ticks": 91680,
            "time": 97.94881099999999,
            "velocity": 0.84251968503937
          },
          {
            "duration": 0.09081205208333643,
            "durationTicks": 85,
            "midi": 66,
            "name": "F#4",
            "ticks": 91680,
            "time": 97.94881099999999,
            "velocity": 1
          },
          {
            "duration": 0.0032051312499987716,
            "durationTicks": 3,
            "midi": 54,
            "name": "F#3",
            "ticks": 91920,
            "time": 98.2052215,
            "velocity": 0.5748031496062992
          },
          {
            "duration": 0.0032051312499987716,
            "durationTicks": 3,
            "midi": 66,
            "name": "F#4",
            "ticks": 91920,
            "time": 98.2052215,
            "velocity": 0.5748031496062992
          },
          {
            "duration": 0.0032051312499845608,
            "durationTicks": 3,
            "midi": 54,
            "name": "F#3",
            "ticks": 92040,
            "time": 98.33342675,
            "velocity": 0.5748031496062992
          },
          {
            "duration": 0.0032051312499845608,
            "durationTicks": 3,
            "midi": 66,
            "name": "F#4",
            "ticks": 92040,
            "time": 98.33342675,
            "velocity": 0.5748031496062992
          },
          {
            "duration": 0.0940171833333352,
            "durationTicks": 88,
            "midi": 54,
            "name": "F#3",
            "ticks": 92160,
            "time": 98.461632,
            "velocity": 0.84251968503937
          },
          {
            "duration": 0.09081205208333643,
            "durationTicks": 85,
            "midi": 66,
            "name": "F#4",
            "ticks": 92160,
            "time": 98.461632,
            "velocity": 1
          },
          {
            "duration": 0.0032051312499987716,
            "durationTicks": 3,
            "midi": 54,
            "name": "F#3",
            "ticks": 92400,
            "time": 98.7180425,
            "velocity": 0.5748031496062992
          },
          {
            "duration": 0.0032051312499987716,
            "durationTicks": 3,
            "midi": 66,
            "name": "F#4",
            "ticks": 92400,
            "time": 98.7180425,
            "velocity": 0.6377952755905512
          },
          {
            "duration": 0.0032051312499987716,
            "durationTicks": 3,
            "midi": 54,
            "name": "F#3",
            "ticks": 92520,
            "time": 98.84624774999999,
            "velocity": 0.6062992125984252
          },
          {
            "duration": 0.0032051312499987716,
            "durationTicks": 3,
            "midi": 66,
            "name": "F#4",
            "ticks": 92520,
            "time": 98.84624774999999,
            "velocity": 0.6377952755905512
          },
          {
            "duration": 0.0940171833333352,
            "durationTicks": 88,
            "midi": 54,
            "name": "F#3",
            "ticks": 92640,
            "time": 98.974453,
            "velocity": 0.8031496062992126
          },
          {
            "duration": 0.07478639583334257,
            "durationTicks": 70,
            "midi": 66,
            "name": "F#4",
            "ticks": 92640,
            "time": 98.974453,
            "velocity": 1
          },
          {
            "duration": 0.0032051312499987716,
            "durationTicks": 3,
            "midi": 54,
            "name": "F#3",
            "ticks": 92880,
            "time": 99.2308635,
            "velocity": 0.6062992125984252
          },
          {
            "duration": 0.0032051312499987716,
            "durationTicks": 3,
            "midi": 66,
            "name": "F#4",
            "ticks": 92880,
            "time": 99.2308635,
            "velocity": 0.6377952755905512
          },
          {
            "duration": 0.0032051312499987716,
            "durationTicks": 3,
            "midi": 54,
            "name": "F#3",
            "ticks": 93000,
            "time": 99.35906874999999,
            "velocity": 0.6377952755905512
          },
          {
            "duration": 0.0032051312499987716,
            "durationTicks": 3,
            "midi": 66,
            "name": "F#4",
            "ticks": 93000,
            "time": 99.35906874999999,
            "velocity": 0.6377952755905512
          },
          {
            "duration": 0.08012828124999771,
            "durationTicks": 75,
            "midi": 54,
            "name": "F#3",
            "ticks": 93120,
            "time": 99.487274,
            "velocity": 0.84251968503937
          },
          {
            "duration": 0.08547016666665286,
            "durationTicks": 80,
            "midi": 66,
            "name": "F#4",
            "ticks": 93120,
            "time": 99.487274,
            "velocity": 1
          },
          {
            "duration": 0.0032051312499845608,
            "durationTicks": 3,
            "midi": 54,
            "name": "F#3",
            "ticks": 93360,
            "time": 99.7436845,
            "velocity": 0.5984251968503937
          },
          {
            "duration": 0.0032051312499845608,
            "durationTicks": 3,
            "midi": 66,
            "name": "F#4",
            "ticks": 93360,
            "time": 99.7436845,
            "velocity": 0.5748031496062992
          },
          {
            "duration": 0.0032051312499987716,
            "durationTicks": 3,
            "midi": 54,
            "name": "F#3",
            "ticks": 93480,
            "time": 99.87188975,
            "velocity": 0.5748031496062992
          },
          {
            "duration": 0.0032051312499987716,
            "durationTicks": 3,
            "midi": 66,
            "name": "F#4",
            "ticks": 93480,
            "time": 99.87188975,
            "velocity": 0.5748031496062992
          },
          {
            "duration": 0.0726496416666862,
            "durationTicks": 68,
            "midi": 54,
            "name": "F#3",
            "ticks": 93600,
            "time": 100.00009499999999,
            "velocity": 0.84251968503937
          },
          {
            "duration": 0.07799152708334134,
            "durationTicks": 73,
            "midi": 66,
            "name": "F#4",
            "ticks": 93600,
            "time": 100.00009499999999,
            "velocity": 1
          },
          {
            "duration": 0.0032051312499987716,
            "durationTicks": 3,
            "midi": 54,
            "name": "F#3",
            "ticks": 93840,
            "time": 100.25650549999999,
            "velocity": 0.5748031496062992
          },
          {
            "duration": 0.0032051312499987716,
            "durationTicks": 3,
            "midi": 66,
            "name": "F#4",
            "ticks": 93840,
            "time": 100.25650549999999,
            "velocity": 0.5748031496062992
          },
          {
            "duration": 0.0032051312499987716,
            "durationTicks": 3,
            "midi": 54,
            "name": "F#3",
            "ticks": 93960,
            "time": 100.38471075,
            "velocity": 0.6062992125984252
          },
          {
            "duration": 0.0032051312499987716,
            "durationTicks": 3,
            "midi": 66,
            "name": "F#4",
            "ticks": 93960,
            "time": 100.38471075,
            "velocity": 0.6062992125984252
          },
          {
            "duration": 0.08012828124999771,
            "durationTicks": 75,
            "midi": 54,
            "name": "F#3",
            "ticks": 94080,
            "time": 100.51291599999999,
            "velocity": 0.84251968503937
          },
          {
            "duration": 0.06944451041667321,
            "durationTicks": 65,
            "midi": 66,
            "name": "F#4",
            "ticks": 94080,
            "time": 100.51291599999999,
            "velocity": 1
          },
          {
            "duration": 0.0032051312499987716,
            "durationTicks": 3,
            "midi": 54,
            "name": "F#3",
            "ticks": 97680,
            "time": 104.3590735,
            "velocity": 0.6771653543307087
          },
          {
            "duration": 0.0032051312499987716,
            "durationTicks": 3,
            "midi": 66,
            "name": "F#4",
            "ticks": 97680,
            "time": 104.3590735,
            "velocity": 0.5984251968503937
          },
          {
            "duration": 0.0032051312499987716,
            "durationTicks": 3,
            "midi": 54,
            "name": "F#3",
            "ticks": 97800,
            "time": 104.48727874999999,
            "velocity": 0.6850393700787402
          },
          {
            "duration": 0.0032051312499987716,
            "durationTicks": 3,
            "midi": 66,
            "name": "F#4",
            "ticks": 97800,
            "time": 104.48727874999999,
            "velocity": 0.5984251968503937
          },
          {
            "duration": 0.0940171833333352,
            "durationTicks": 88,
            "midi": 54,
            "name": "F#3",
            "ticks": 97920,
            "time": 104.615484,
            "velocity": 0.84251968503937
          },
          {
            "duration": 0.09081205208333643,
            "durationTicks": 85,
            "midi": 66,
            "name": "F#4",
            "ticks": 97920,
            "time": 104.615484,
            "velocity": 1
          },
          {
            "duration": 0.0032051312499987716,
            "durationTicks": 3,
            "midi": 54,
            "name": "F#3",
            "ticks": 98160,
            "time": 104.8718945,
            "velocity": 0.6377952755905512
          },
          {
            "duration": 0.0032051312499987716,
            "durationTicks": 3,
            "midi": 66,
            "name": "F#4",
            "ticks": 98160,
            "time": 104.8718945,
            "velocity": 0.6692913385826772
          },
          {
            "duration": 0.0032051312499987716,
            "durationTicks": 3,
            "midi": 54,
            "name": "F#3",
            "ticks": 98280,
            "time": 105.00009974999999,
            "velocity": 0.6692913385826772
          },
          {
            "duration": 0.0032051312499987716,
            "durationTicks": 3,
            "midi": 66,
            "name": "F#4",
            "ticks": 98280,
            "time": 105.00009974999999,
            "velocity": 0.6692913385826772
          },
          {
            "duration": 0.08333341249999648,
            "durationTicks": 78,
            "midi": 54,
            "name": "F#3",
            "ticks": 98400,
            "time": 105.128305,
            "velocity": 0.952755905511811
          },
          {
            "duration": 0.08012828124999771,
            "durationTicks": 75,
            "midi": 66,
            "name": "F#4",
            "ticks": 98400,
            "time": 105.128305,
            "velocity": 1
          },
          {
            "duration": 0.0032051312499987716,
            "durationTicks": 3,
            "midi": 54,
            "name": "F#3",
            "ticks": 98640,
            "time": 105.3847155,
            "velocity": 0.6692913385826772
          },
          {
            "duration": 0.0032051312499987716,
            "durationTicks": 3,
            "midi": 66,
            "name": "F#4",
            "ticks": 98640,
            "time": 105.3847155,
            "velocity": 0.6692913385826772
          },
          {
            "duration": 0.0032051312499987716,
            "durationTicks": 3,
            "midi": 54,
            "name": "F#3",
            "ticks": 98760,
            "time": 105.51292074999999,
            "velocity": 0.6692913385826772
          },
          {
            "duration": 0.0032051312499987716,
            "durationTicks": 3,
            "midi": 66,
            "name": "F#4",
            "ticks": 98760,
            "time": 105.51292074999999,
            "velocity": 0.6692913385826772
          },
          {
            "duration": 0.08547016666665286,
            "durationTicks": 80,
            "midi": 54,
            "name": "F#3",
            "ticks": 98880,
            "time": 105.641126,
            "velocity": 0.84251968503937
          },
          {
            "duration": 0.09615393749999157,
            "durationTicks": 90,
            "midi": 66,
            "name": "F#4",
            "ticks": 98880,
            "time": 105.641126,
            "velocity": 1
          },
          {
            "duration": 0.0032051312499845608,
            "durationTicks": 3,
            "midi": 54,
            "name": "F#3",
            "ticks": 99120,
            "time": 105.8975365,
            "velocity": 0.6377952755905512
          },
          {
            "duration": 0.0032051312499845608,
            "durationTicks": 3,
            "midi": 66,
            "name": "F#4",
            "ticks": 99120,
            "time": 105.8975365,
            "velocity": 0.6062992125984252
          },
          {
            "duration": 0.0032051312499987716,
            "durationTicks": 3,
            "midi": 54,
            "name": "F#3",
            "ticks": 99240,
            "time": 106.02574175,
            "velocity": 0.6062992125984252
          },
          {
            "duration": 0.0032051312499987716,
            "durationTicks": 3,
            "midi": 66,
            "name": "F#4",
            "ticks": 99240,
            "time": 106.02574175,
            "velocity": 0.6062992125984252
          },
          {
            "duration": 0.0940171833333352,
            "durationTicks": 88,
            "midi": 54,
            "name": "F#3",
            "ticks": 99360,
            "time": 106.15394699999999,
            "velocity": 0.84251968503937
          },
          {
            "duration": 0.09081205208335064,
            "durationTicks": 85,
            "midi": 66,
            "name": "F#4",
            "ticks": 99360,
            "time": 106.15394699999999,
            "velocity": 1
          },
          {
            "duration": 0.0032051312499987716,
            "durationTicks": 3,
            "midi": 54,
            "name": "F#3",
            "ticks": 99600,
            "time": 106.41035749999999,
            "velocity": 0.5748031496062992
          },
          {
            "duration": 0.0032051312499987716,
            "durationTicks": 3,
            "midi": 66,
            "name": "F#4",
            "ticks": 99600,
            "time": 106.41035749999999,
            "velocity": 0.5748031496062992
          },
          {
            "duration": 0.0032051312499987716,
            "durationTicks": 3,
            "midi": 54,
            "name": "F#3",
            "ticks": 99720,
            "time": 106.53856275,
            "velocity": 0.5748031496062992
          },
          {
            "duration": 0.0032051312499987716,
            "durationTicks": 3,
            "midi": 66,
            "name": "F#4",
            "ticks": 99720,
            "time": 106.53856275,
            "velocity": 0.5748031496062992
          },
          {
            "duration": 0.0940171833333352,
            "durationTicks": 88,
            "midi": 54,
            "name": "F#3",
            "ticks": 99840,
            "time": 106.66676799999999,
            "velocity": 0.84251968503937
          },
          {
            "duration": 0.09081205208333643,
            "durationTicks": 85,
            "midi": 66,
            "name": "F#4",
            "ticks": 99840,
            "time": 106.66676799999999,
            "velocity": 1
          },
          {
            "duration": 0.0032051312499987716,
            "durationTicks": 3,
            "midi": 54,
            "name": "F#3",
            "ticks": 100080,
            "time": 106.92317849999999,
            "velocity": 0.5748031496062992
          },
          {
            "duration": 0.0032051312499987716,
            "durationTicks": 3,
            "midi": 66,
            "name": "F#4",
            "ticks": 100080,
            "time": 106.92317849999999,
            "velocity": 0.6377952755905512
          },
          {
            "duration": 0.0032051312499987716,
            "durationTicks": 3,
            "midi": 54,
            "name": "F#3",
            "ticks": 100200,
            "time": 107.05138375,
            "velocity": 0.6062992125984252
          },
          {
            "duration": 0.0032051312499987716,
            "durationTicks": 3,
            "midi": 66,
            "name": "F#4",
            "ticks": 100200,
            "time": 107.05138375,
            "velocity": 0.6377952755905512
          },
          {
            "duration": 0.0940171833333352,
            "durationTicks": 88,
            "midi": 54,
            "name": "F#3",
            "ticks": 100320,
            "time": 107.17958899999999,
            "velocity": 0.8031496062992126
          },
          {
            "duration": 0.07478639583334257,
            "durationTicks": 70,
            "midi": 66,
            "name": "F#4",
            "ticks": 100320,
            "time": 107.17958899999999,
            "velocity": 1
          },
          {
            "duration": 0.0032051312499987716,
            "durationTicks": 3,
            "midi": 54,
            "name": "F#3",
            "ticks": 100560,
            "time": 107.4359995,
            "velocity": 0.6062992125984252
          },
          {
            "duration": 0.0032051312499987716,
            "durationTicks": 3,
            "midi": 66,
            "name": "F#4",
            "ticks": 100560,
            "time": 107.4359995,
            "velocity": 0.6377952755905512
          },
          {
            "duration": 0.0032051312499987716,
            "durationTicks": 3,
            "midi": 54,
            "name": "F#3",
            "ticks": 100680,
            "time": 107.56420474999999,
            "velocity": 0.6377952755905512
          },
          {
            "duration": 0.0032051312499987716,
            "durationTicks": 3,
            "midi": 66,
            "name": "F#4",
            "ticks": 100680,
            "time": 107.56420474999999,
            "velocity": 0.6377952755905512
          },
          {
            "duration": 0.08012828124999771,
            "durationTicks": 75,
            "midi": 54,
            "name": "F#3",
            "ticks": 100800,
            "time": 107.69241,
            "velocity": 0.84251968503937
          },
          {
            "duration": 0.08547016666666707,
            "durationTicks": 80,
            "midi": 66,
            "name": "F#4",
            "ticks": 100800,
            "time": 107.69241,
            "velocity": 1
          },
          {
            "duration": 0.0032051312499987716,
            "durationTicks": 3,
            "midi": 54,
            "name": "F#3",
            "ticks": 101040,
            "time": 107.9488205,
            "velocity": 0.5984251968503937
          },
          {
            "duration": 0.0032051312499987716,
            "durationTicks": 3,
            "midi": 66,
            "name": "F#4",
            "ticks": 101040,
            "time": 107.9488205,
            "velocity": 0.5748031496062992
          },
          {
            "duration": 0.0032051312499987716,
            "durationTicks": 3,
            "midi": 54,
            "name": "F#3",
            "ticks": 101160,
            "time": 108.07702574999999,
            "velocity": 0.5748031496062992
          },
          {
            "duration": 0.0032051312499987716,
            "durationTicks": 3,
            "midi": 66,
            "name": "F#4",
            "ticks": 101160,
            "time": 108.07702574999999,
            "velocity": 0.5748031496062992
          },
          {
            "duration": 0.07264964166667198,
            "durationTicks": 68,
            "midi": 54,
            "name": "F#3",
            "ticks": 101280,
            "time": 108.205231,
            "velocity": 0.84251968503937
          },
          {
            "duration": 0.07799152708332713,
            "durationTicks": 73,
            "midi": 66,
            "name": "F#4",
            "ticks": 101280,
            "time": 108.205231,
            "velocity": 1
          },
          {
            "duration": 0.0032051312499987716,
            "durationTicks": 3,
            "midi": 54,
            "name": "F#3",
            "ticks": 101520,
            "time": 108.4616415,
            "velocity": 0.5748031496062992
          },
          {
            "duration": 0.0032051312499987716,
            "durationTicks": 3,
            "midi": 66,
            "name": "F#4",
            "ticks": 101520,
            "time": 108.4616415,
            "velocity": 0.5748031496062992
          },
          {
            "duration": 0.0032051312499987716,
            "durationTicks": 3,
            "midi": 54,
            "name": "F#3",
            "ticks": 101640,
            "time": 108.58984674999999,
            "velocity": 0.6062992125984252
          },
          {
            "duration": 0.0032051312499987716,
            "durationTicks": 3,
            "midi": 66,
            "name": "F#4",
            "ticks": 101640,
            "time": 108.58984674999999,
            "velocity": 0.6062992125984252
          },
          {
            "duration": 0.08012828124999771,
            "durationTicks": 75,
            "midi": 54,
            "name": "F#3",
            "ticks": 101760,
            "time": 108.718052,
            "velocity": 0.84251968503937
          },
          {
            "duration": 0.069444510416659,
            "durationTicks": 65,
            "midi": 66,
            "name": "F#4",
            "ticks": 101760,
            "time": 108.718052,
            "velocity": 1
          },
          {
            "duration": 0.0032051312499987716,
            "durationTicks": 3,
            "midi": 54,
            "name": "F#3",
            "ticks": 105360,
            "time": 112.56420949999999,
            "velocity": 0.6771653543307087
          },
          {
            "duration": 0.0032051312499987716,
            "durationTicks": 3,
            "midi": 66,
            "name": "F#4",
            "ticks": 105360,
            "time": 112.56420949999999,
            "velocity": 0.5984251968503937
          },
          {
            "duration": 0.0032051312499987716,
            "durationTicks": 3,
            "midi": 54,
            "name": "F#3",
            "ticks": 105480,
            "time": 112.69241475,
            "velocity": 0.6850393700787402
          },
          {
            "duration": 0.0032051312499987716,
            "durationTicks": 3,
            "midi": 66,
            "name": "F#4",
            "ticks": 105480,
            "time": 112.69241475,
            "velocity": 0.5984251968503937
          },
          {
            "duration": 0.0940171833333352,
            "durationTicks": 88,
            "midi": 54,
            "name": "F#3",
            "ticks": 167040,
            "time": 178.461708,
            "velocity": 0.8031496062992126
          },
          {
            "duration": 0.09081205208332221,
            "durationTicks": 85,
            "midi": 66,
            "name": "F#4",
            "ticks": 167040,
            "time": 178.461708,
            "velocity": 1
          },
          {
            "duration": 0.0032051312500129825,
            "durationTicks": 3,
            "midi": 54,
            "name": "F#3",
            "ticks": 167280,
            "time": 178.7181185,
            "velocity": 0.5984251968503937
          },
          {
            "duration": 0.0032051312500129825,
            "durationTicks": 3,
            "midi": 66,
            "name": "F#4",
            "ticks": 167280,
            "time": 178.7181185,
            "velocity": 0.6299212598425197
          },
          {
            "duration": 0.0032051312500129825,
            "durationTicks": 3,
            "midi": 54,
            "name": "F#3",
            "ticks": 167400,
            "time": 178.84632374999998,
            "velocity": 0.6299212598425197
          },
          {
            "duration": 0.0032051312500129825,
            "durationTicks": 3,
            "midi": 66,
            "name": "F#4",
            "ticks": 167400,
            "time": 178.84632374999998,
            "velocity": 0.6299212598425197
          },
          {
            "duration": 0.0833334125000249,
            "durationTicks": 78,
            "midi": 54,
            "name": "F#3",
            "ticks": 167520,
            "time": 178.974529,
            "velocity": 0.9133858267716536
          },
          {
            "duration": 0.08012828125001192,
            "durationTicks": 75,
            "midi": 66,
            "name": "F#4",
            "ticks": 167520,
            "time": 178.974529,
            "velocity": 1
          },
          {
            "duration": 0.0032051312500129825,
            "durationTicks": 3,
            "midi": 54,
            "name": "F#3",
            "ticks": 167760,
            "time": 179.23093949999998,
            "velocity": 0.6299212598425197
          },
          {
            "duration": 0.0032051312500129825,
            "durationTicks": 3,
            "midi": 66,
            "name": "F#4",
            "ticks": 167760,
            "time": 179.23093949999998,
            "velocity": 0.6299212598425197
          },
          {
            "duration": 0.0032051312500129825,
            "durationTicks": 3,
            "midi": 54,
            "name": "F#3",
            "ticks": 167880,
            "time": 179.35914474999998,
            "velocity": 0.6299212598425197
          },
          {
            "duration": 0.0032051312500129825,
            "durationTicks": 3,
            "midi": 66,
            "name": "F#4",
            "ticks": 167880,
            "time": 179.35914474999998,
            "velocity": 0.6299212598425197
          },
          {
            "duration": 0.08547016666668128,
            "durationTicks": 80,
            "midi": 54,
            "name": "F#3",
            "ticks": 168000,
            "time": 179.48735,
            "velocity": 0.8031496062992126
          },
          {
            "duration": 0.09615393749999157,
            "durationTicks": 90,
            "midi": 66,
            "name": "F#4",
            "ticks": 168000,
            "time": 179.48735,
            "velocity": 1
          },
          {
            "duration": 0.0032051312500129825,
            "durationTicks": 3,
            "midi": 54,
            "name": "F#3",
            "ticks": 168240,
            "time": 179.74376049999998,
            "velocity": 0.5984251968503937
          },
          {
            "duration": 0.0032051312500129825,
            "durationTicks": 3,
            "midi": 66,
            "name": "F#4",
            "ticks": 168240,
            "time": 179.74376049999998,
            "velocity": 0.5669291338582677
          },
          {
            "duration": 0.0032051312500129825,
            "durationTicks": 3,
            "midi": 54,
            "name": "F#3",
            "ticks": 168360,
            "time": 179.87196575,
            "velocity": 0.5669291338582677
          },
          {
            "duration": 0.0032051312500129825,
            "durationTicks": 3,
            "midi": 66,
            "name": "F#4",
            "ticks": 168360,
            "time": 179.87196575,
            "velocity": 0.5669291338582677
          },
          {
            "duration": 0.0940171833333352,
            "durationTicks": 88,
            "midi": 54,
            "name": "F#3",
            "ticks": 168480,
            "time": 180.000171,
            "velocity": 0.8031496062992126
          },
          {
            "duration": 0.09081205208332221,
            "durationTicks": 85,
            "midi": 66,
            "name": "F#4",
            "ticks": 168480,
            "time": 180.000171,
            "velocity": 1
          },
          {
            "duration": 0.0032051312500129825,
            "durationTicks": 3,
            "midi": 54,
            "name": "F#3",
            "ticks": 168720,
            "time": 180.25658149999998,
            "velocity": 0.5354330708661418
          },
          {
            "duration": 0.0032051312500129825,
            "durationTicks": 3,
            "midi": 66,
            "name": "F#4",
            "ticks": 168720,
            "time": 180.25658149999998,
            "velocity": 0.5354330708661418
          },
          {
            "duration": 0.0032051312500129825,
            "durationTicks": 3,
            "midi": 54,
            "name": "F#3",
            "ticks": 168840,
            "time": 180.38478675,
            "velocity": 0.5354330708661418
          },
          {
            "duration": 0.0032051312500129825,
            "durationTicks": 3,
            "midi": 66,
            "name": "F#4",
            "ticks": 168840,
            "time": 180.38478675,
            "velocity": 0.5354330708661418
          },
          {
            "duration": 0.0940171833333352,
            "durationTicks": 88,
            "midi": 54,
            "name": "F#3",
            "ticks": 168960,
            "time": 180.512992,
            "velocity": 0.8031496062992126
          },
          {
            "duration": 0.09081205208332221,
            "durationTicks": 85,
            "midi": 66,
            "name": "F#4",
            "ticks": 168960,
            "time": 180.512992,
            "velocity": 1
          },
          {
            "duration": 0.0032051312500129825,
            "durationTicks": 3,
            "midi": 54,
            "name": "F#3",
            "ticks": 169200,
            "time": 180.76940249999998,
            "velocity": 0.5354330708661418
          },
          {
            "duration": 0.0032051312500129825,
            "durationTicks": 3,
            "midi": 66,
            "name": "F#4",
            "ticks": 169200,
            "time": 180.76940249999998,
            "velocity": 0.5984251968503937
          },
          {
            "duration": 0.0032051312500129825,
            "durationTicks": 3,
            "midi": 54,
            "name": "F#3",
            "ticks": 169320,
            "time": 180.89760775,
            "velocity": 0.5669291338582677
          },
          {
            "duration": 0.0032051312500129825,
            "durationTicks": 3,
            "midi": 66,
            "name": "F#4",
            "ticks": 169320,
            "time": 180.89760775,
            "velocity": 0.5984251968503937
          },
          {
            "duration": 0.0940171833333352,
            "durationTicks": 88,
            "midi": 54,
            "name": "F#3",
            "ticks": 169440,
            "time": 181.025813,
            "velocity": 0.7637795275590551
          },
          {
            "duration": 0.07478639583331415,
            "durationTicks": 70,
            "midi": 66,
            "name": "F#4",
            "ticks": 169440,
            "time": 181.025813,
            "velocity": 1
          },
          {
            "duration": 0.0032051312500129825,
            "durationTicks": 3,
            "midi": 54,
            "name": "F#3",
            "ticks": 169680,
            "time": 181.2822235,
            "velocity": 0.5669291338582677
          },
          {
            "duration": 0.0032051312500129825,
            "durationTicks": 3,
            "midi": 66,
            "name": "F#4",
            "ticks": 169680,
            "time": 181.2822235,
            "velocity": 0.5984251968503937
          },
          {
            "duration": 0.0032051312500129825,
            "durationTicks": 3,
            "midi": 54,
            "name": "F#3",
            "ticks": 169800,
            "time": 181.41042875,
            "velocity": 0.5984251968503937
          },
          {
            "duration": 0.0032051312500129825,
            "durationTicks": 3,
            "midi": 66,
            "name": "F#4",
            "ticks": 169800,
            "time": 181.41042875,
            "velocity": 0.5984251968503937
          },
          {
            "duration": 0.0801282812499835,
            "durationTicks": 75,
            "midi": 54,
            "name": "F#3",
            "ticks": 169920,
            "time": 181.538634,
            "velocity": 0.8031496062992126
          },
          {
            "duration": 0.08547016666665286,
            "durationTicks": 80,
            "midi": 66,
            "name": "F#4",
            "ticks": 169920,
            "time": 181.538634,
            "velocity": 1
          },
          {
            "duration": 0.0032051312500129825,
            "durationTicks": 3,
            "midi": 54,
            "name": "F#3",
            "ticks": 170160,
            "time": 181.7950445,
            "velocity": 0.5590551181102362
          },
          {
            "duration": 0.0032051312500129825,
            "durationTicks": 3,
            "midi": 66,
            "name": "F#4",
            "ticks": 170160,
            "time": 181.7950445,
            "velocity": 0.5354330708661418
          },
          {
            "duration": 0.0032051312500129825,
            "durationTicks": 3,
            "midi": 54,
            "name": "F#3",
            "ticks": 170280,
            "time": 181.92324975,
            "velocity": 0.5354330708661418
          },
          {
            "duration": 0.0032051312500129825,
            "durationTicks": 3,
            "midi": 66,
            "name": "F#4",
            "ticks": 170280,
            "time": 181.92324975,
            "velocity": 0.5354330708661418
          },
          {
            "duration": 0.0726496416666862,
            "durationTicks": 68,
            "midi": 54,
            "name": "F#3",
            "ticks": 170400,
            "time": 182.05145499999998,
            "velocity": 0.8031496062992126
          },
          {
            "duration": 0.07799152708335555,
            "durationTicks": 73,
            "midi": 66,
            "name": "F#4",
            "ticks": 170400,
            "time": 182.05145499999998,
            "velocity": 1
          },
          {
            "duration": 0.0032051312500129825,
            "durationTicks": 3,
            "midi": 54,
            "name": "F#3",
            "ticks": 170640,
            "time": 182.3078655,
            "velocity": 0.5354330708661418
          },
          {
            "duration": 0.0032051312500129825,
            "durationTicks": 3,
            "midi": 66,
            "name": "F#4",
            "ticks": 170640,
            "time": 182.3078655,
            "velocity": 0.5354330708661418
          },
          {
            "duration": 0.0032051312500129825,
            "durationTicks": 3,
            "midi": 54,
            "name": "F#3",
            "ticks": 170760,
            "time": 182.43607075,
            "velocity": 0.5669291338582677
          },
          {
            "duration": 0.0032051312500129825,
            "durationTicks": 3,
            "midi": 66,
            "name": "F#4",
            "ticks": 170760,
            "time": 182.43607075,
            "velocity": 0.5669291338582677
          },
          {
            "duration": 0.08012828125001192,
            "durationTicks": 75,
            "midi": 54,
            "name": "F#3",
            "ticks": 170880,
            "time": 182.56427599999998,
            "velocity": 0.8031496062992126
          },
          {
            "duration": 0.06944451041670163,
            "durationTicks": 65,
            "midi": 66,
            "name": "F#4",
            "ticks": 170880,
            "time": 182.56427599999998,
            "velocity": 1
          },
          {
            "duration": 0.0940171833333352,
            "durationTicks": 88,
            "midi": 54,
            "name": "F#3",
            "ticks": 182400,
            "time": 194.87197999999998,
            "velocity": 0.8031496062992126
          },
          {
            "duration": 0.09081205208332221,
            "durationTicks": 85,
            "midi": 66,
            "name": "F#4",
            "ticks": 182400,
            "time": 194.87197999999998,
            "velocity": 1
          },
          {
            "duration": 0.0032051312500129825,
            "durationTicks": 3,
            "midi": 54,
            "name": "F#3",
            "ticks": 182640,
            "time": 195.1283905,
            "velocity": 0.5984251968503937
          },
          {
            "duration": 0.0032051312500129825,
            "durationTicks": 3,
            "midi": 66,
            "name": "F#4",
            "ticks": 182640,
            "time": 195.1283905,
            "velocity": 0.6299212598425197
          },
          {
            "duration": 0.0032051312499845608,
            "durationTicks": 3,
            "midi": 54,
            "name": "F#3",
            "ticks": 182760,
            "time": 195.25659575,
            "velocity": 0.6299212598425197
          },
          {
            "duration": 0.0032051312499845608,
            "durationTicks": 3,
            "midi": 66,
            "name": "F#4",
            "ticks": 182760,
            "time": 195.25659575,
            "velocity": 0.6299212598425197
          },
          {
            "duration": 0.0833334125000249,
            "durationTicks": 78,
            "midi": 54,
            "name": "F#3",
            "ticks": 182880,
            "time": 195.38480099999998,
            "velocity": 0.9133858267716536
          },
          {
            "duration": 0.08012828125001192,
            "durationTicks": 75,
            "midi": 66,
            "name": "F#4",
            "ticks": 182880,
            "time": 195.38480099999998,
            "velocity": 1
          },
          {
            "duration": 0.0032051312500129825,
            "durationTicks": 3,
            "midi": 54,
            "name": "F#3",
            "ticks": 183120,
            "time": 195.6412115,
            "velocity": 0.6299212598425197
          },
          {
            "duration": 0.0032051312500129825,
            "durationTicks": 3,
            "midi": 66,
            "name": "F#4",
            "ticks": 183120,
            "time": 195.6412115,
            "velocity": 0.6299212598425197
          },
          {
            "duration": 0.0032051312500129825,
            "durationTicks": 3,
            "midi": 54,
            "name": "F#3",
            "ticks": 183240,
            "time": 195.76941674999998,
            "velocity": 0.6299212598425197
          },
          {
            "duration": 0.0032051312500129825,
            "durationTicks": 3,
            "midi": 66,
            "name": "F#4",
            "ticks": 183240,
            "time": 195.76941674999998,
            "velocity": 0.6299212598425197
          },
          {
            "duration": 0.08547016666668128,
            "durationTicks": 80,
            "midi": 54,
            "name": "F#3",
            "ticks": 183360,
            "time": 195.89762199999998,
            "velocity": 0.8031496062992126
          },
          {
            "duration": 0.09615393749999157,
            "durationTicks": 90,
            "midi": 66,
            "name": "F#4",
            "ticks": 183360,
            "time": 195.89762199999998,
            "velocity": 1
          },
          {
            "duration": 0.0032051312500129825,
            "durationTicks": 3,
            "midi": 54,
            "name": "F#3",
            "ticks": 183600,
            "time": 196.1540325,
            "velocity": 0.5984251968503937
          },
          {
            "duration": 0.0032051312500129825,
            "durationTicks": 3,
            "midi": 66,
            "name": "F#4",
            "ticks": 183600,
            "time": 196.1540325,
            "velocity": 0.5669291338582677
          },
          {
            "duration": 0.0032051312500129825,
            "durationTicks": 3,
            "midi": 54,
            "name": "F#3",
            "ticks": 183720,
            "time": 196.28223774999998,
            "velocity": 0.5669291338582677
          },
          {
            "duration": 0.0032051312500129825,
            "durationTicks": 3,
            "midi": 66,
            "name": "F#4",
            "ticks": 183720,
            "time": 196.28223774999998,
            "velocity": 0.5669291338582677
          },
          {
            "duration": 0.0940171833333352,
            "durationTicks": 88,
            "midi": 54,
            "name": "F#3",
            "ticks": 183840,
            "time": 196.410443,
            "velocity": 0.8031496062992126
          },
          {
            "duration": 0.09081205208332221,
            "durationTicks": 85,
            "midi": 66,
            "name": "F#4",
            "ticks": 183840,
            "time": 196.410443,
            "velocity": 1
          },
          {
            "duration": 0.0032051312499845608,
            "durationTicks": 3,
            "midi": 54,
            "name": "F#3",
            "ticks": 184080,
            "time": 196.6668535,
            "velocity": 0.5354330708661418
          },
          {
            "duration": 0.0032051312499845608,
            "durationTicks": 3,
            "midi": 66,
            "name": "F#4",
            "ticks": 184080,
            "time": 196.6668535,
            "velocity": 0.5354330708661418
          },
          {
            "duration": 0.0032051312500129825,
            "durationTicks": 3,
            "midi": 54,
            "name": "F#3",
            "ticks": 184200,
            "time": 196.79505874999998,
            "velocity": 0.5354330708661418
          },
          {
            "duration": 0.0032051312500129825,
            "durationTicks": 3,
            "midi": 66,
            "name": "F#4",
            "ticks": 184200,
            "time": 196.79505874999998,
            "velocity": 0.5354330708661418
          },
          {
            "duration": 0.0940171833333352,
            "durationTicks": 88,
            "midi": 54,
            "name": "F#3",
            "ticks": 184320,
            "time": 196.923264,
            "velocity": 0.8031496062992126
          },
          {
            "duration": 0.09081205208332221,
            "durationTicks": 85,
            "midi": 66,
            "name": "F#4",
            "ticks": 184320,
            "time": 196.923264,
            "velocity": 1
          },
          {
            "duration": 0.0032051312500129825,
            "durationTicks": 3,
            "midi": 54,
            "name": "F#3",
            "ticks": 184560,
            "time": 197.17967449999998,
            "velocity": 0.5354330708661418
          },
          {
            "duration": 0.0032051312500129825,
            "durationTicks": 3,
            "midi": 66,
            "name": "F#4",
            "ticks": 184560,
            "time": 197.17967449999998,
            "velocity": 0.5984251968503937
          },
          {
            "duration": 0.0032051312500129825,
            "durationTicks": 3,
            "midi": 54,
            "name": "F#3",
            "ticks": 184680,
            "time": 197.30787974999998,
            "velocity": 0.5669291338582677
          },
          {
            "duration": 0.0032051312500129825,
            "durationTicks": 3,
            "midi": 66,
            "name": "F#4",
            "ticks": 184680,
            "time": 197.30787974999998,
            "velocity": 0.5984251968503937
          },
          {
            "duration": 0.0940171833333352,
            "durationTicks": 88,
            "midi": 54,
            "name": "F#3",
            "ticks": 184800,
            "time": 197.436085,
            "velocity": 0.7637795275590551
          },
          {
            "duration": 0.07478639583331415,
            "durationTicks": 70,
            "midi": 66,
            "name": "F#4",
            "ticks": 184800,
            "time": 197.436085,
            "velocity": 1
          },
          {
            "duration": 0.0032051312500129825,
            "durationTicks": 3,
            "midi": 54,
            "name": "F#3",
            "ticks": 185040,
            "time": 197.69249549999998,
            "velocity": 0.5669291338582677
          },
          {
            "duration": 0.0032051312500129825,
            "durationTicks": 3,
            "midi": 66,
            "name": "F#4",
            "ticks": 185040,
            "time": 197.69249549999998,
            "velocity": 0.5984251968503937
          },
          {
            "duration": 0.0032051312500129825,
            "durationTicks": 3,
            "midi": 54,
            "name": "F#3",
            "ticks": 185160,
            "time": 197.82070075,
            "velocity": 0.5984251968503937
          },
          {
            "duration": 0.0032051312500129825,
            "durationTicks": 3,
            "midi": 66,
            "name": "F#4",
            "ticks": 185160,
            "time": 197.82070075,
            "velocity": 0.5984251968503937
          },
          {
            "duration": 0.0801282812499835,
            "durationTicks": 75,
            "midi": 54,
            "name": "F#3",
            "ticks": 185280,
            "time": 197.948906,
            "velocity": 0.8031496062992126
          },
          {
            "duration": 0.08547016666668128,
            "durationTicks": 80,
            "midi": 66,
            "name": "F#4",
            "ticks": 185280,
            "time": 197.948906,
            "velocity": 1
          },
          {
            "duration": 0.0032051312500129825,
            "durationTicks": 3,
            "midi": 54,
            "name": "F#3",
            "ticks": 185520,
            "time": 198.20531649999998,
            "velocity": 0.5590551181102362
          },
          {
            "duration": 0.0032051312500129825,
            "durationTicks": 3,
            "midi": 66,
            "name": "F#4",
            "ticks": 185520,
            "time": 198.20531649999998,
            "velocity": 0.5354330708661418
          },
          {
            "duration": 0.0032051312500129825,
            "durationTicks": 3,
            "midi": 54,
            "name": "F#3",
            "ticks": 185640,
            "time": 198.33352175,
            "velocity": 0.5354330708661418
          },
          {
            "duration": 0.0032051312500129825,
            "durationTicks": 3,
            "midi": 66,
            "name": "F#4",
            "ticks": 185640,
            "time": 198.33352175,
            "velocity": 0.5354330708661418
          },
          {
            "duration": 0.07264964166665777,
            "durationTicks": 68,
            "midi": 54,
            "name": "F#3",
            "ticks": 185760,
            "time": 198.461727,
            "velocity": 0.8031496062992126
          },
          {
            "duration": 0.07799152708332713,
            "durationTicks": 73,
            "midi": 66,
            "name": "F#4",
            "ticks": 185760,
            "time": 198.461727,
            "velocity": 1
          },
          {
            "duration": 0.0032051312500129825,
            "durationTicks": 3,
            "midi": 54,
            "name": "F#3",
            "ticks": 186000,
            "time": 198.71813749999998,
            "velocity": 0.5354330708661418
          },
          {
            "duration": 0.0032051312500129825,
            "durationTicks": 3,
            "midi": 66,
            "name": "F#4",
            "ticks": 186000,
            "time": 198.71813749999998,
            "velocity": 0.5354330708661418
          },
          {
            "duration": 0.0032051312500129825,
            "durationTicks": 3,
            "midi": 54,
            "name": "F#3",
            "ticks": 186120,
            "time": 198.84634275,
            "velocity": 0.5669291338582677
          },
          {
            "duration": 0.0032051312500129825,
            "durationTicks": 3,
            "midi": 66,
            "name": "F#4",
            "ticks": 186120,
            "time": 198.84634275,
            "velocity": 0.5669291338582677
          },
          {
            "duration": 0.0801282812499835,
            "durationTicks": 75,
            "midi": 54,
            "name": "F#3",
            "ticks": 186240,
            "time": 198.974548,
            "velocity": 0.8031496062992126
          },
          {
            "duration": 0.06944451041667321,
            "durationTicks": 65,
            "midi": 66,
            "name": "F#4",
            "ticks": 186240,
            "time": 198.974548,
            "velocity": 1
          },
          {
            "duration": 0.0032051312499845608,
            "durationTicks": 3,
            "midi": 54,
            "name": "F#3",
            "ticks": 189840,
            "time": 202.8207055,
            "velocity": 0.6771653543307087
          },
          {
            "duration": 0.0032051312499845608,
            "durationTicks": 3,
            "midi": 66,
            "name": "F#4",
            "ticks": 189840,
            "time": 202.8207055,
            "velocity": 0.5984251968503937
          },
          {
            "duration": 0.0032051312500129825,
            "durationTicks": 3,
            "midi": 54,
            "name": "F#3",
            "ticks": 189960,
            "time": 202.94891074999998,
            "velocity": 0.6850393700787402
          },
          {
            "duration": 0.0032051312500129825,
            "durationTicks": 3,
            "midi": 66,
            "name": "F#4",
            "ticks": 189960,
            "time": 202.94891074999998,
            "velocity": 0.5984251968503937
          },
          {
            "duration": 0.0940171833333352,
            "durationTicks": 88,
            "midi": 54,
            "name": "F#3",
            "ticks": 190080,
            "time": 203.077116,
            "velocity": 0.8188976377952756
          },
          {
            "duration": 0.09081205208332221,
            "durationTicks": 85,
            "midi": 66,
            "name": "F#4",
            "ticks": 190080,
            "time": 203.077116,
            "velocity": 1
          },
          {
            "duration": 0.0021367541666847956,
            "durationTicks": 2,
            "midi": 54,
            "name": "F#3",
            "ticks": 190320,
            "time": 203.33352649999998,
            "velocity": 0.6141732283464567
          },
          {
            "duration": 0.0021367541666847956,
            "durationTicks": 2,
            "midi": 66,
            "name": "F#4",
            "ticks": 190320,
            "time": 203.33352649999998,
            "velocity": 0.6456692913385826
          },
          {
            "duration": 0.0032051312500129825,
            "durationTicks": 3,
            "midi": 54,
            "name": "F#3",
            "ticks": 190440,
            "time": 203.46173174999998,
            "velocity": 0.6456692913385826
          },
          {
            "duration": 0.0032051312500129825,
            "durationTicks": 3,
            "midi": 66,
            "name": "F#4",
            "ticks": 190440,
            "time": 203.46173174999998,
            "velocity": 0.6456692913385826
          },
          {
            "duration": 0.08333341249999648,
            "durationTicks": 78,
            "midi": 54,
            "name": "F#3",
            "ticks": 190560,
            "time": 203.589937,
            "velocity": 0.9291338582677166
          },
          {
            "duration": 0.0801282812499835,
            "durationTicks": 75,
            "midi": 66,
            "name": "F#4",
            "ticks": 190560,
            "time": 203.589937,
            "velocity": 1
          },
          {
            "duration": 0.0032051312500129825,
            "durationTicks": 3,
            "midi": 54,
            "name": "F#3",
            "ticks": 190800,
            "time": 203.84634749999998,
            "velocity": 0.6456692913385826
          },
          {
            "duration": 0.0032051312500129825,
            "durationTicks": 3,
            "midi": 66,
            "name": "F#4",
            "ticks": 190800,
            "time": 203.84634749999998,
            "velocity": 0.6456692913385826
          },
          {
            "duration": 0.0032051312500129825,
            "durationTicks": 3,
            "midi": 54,
            "name": "F#3",
            "ticks": 190920,
            "time": 203.97455275,
            "velocity": 0.6456692913385826
          },
          {
            "duration": 0.0032051312500129825,
            "durationTicks": 3,
            "midi": 66,
            "name": "F#4",
            "ticks": 190920,
            "time": 203.97455275,
            "velocity": 0.6456692913385826
          },
          {
            "duration": 0.08547016666668128,
            "durationTicks": 80,
            "midi": 54,
            "name": "F#3",
            "ticks": 191040,
            "time": 204.102758,
            "velocity": 0.8188976377952756
          },
          {
            "duration": 0.09615393749999157,
            "durationTicks": 90,
            "midi": 66,
            "name": "F#4",
            "ticks": 191040,
            "time": 204.102758,
            "velocity": 1
          },
          {
            "duration": 0.0032051312500129825,
            "durationTicks": 3,
            "midi": 54,
            "name": "F#3",
            "ticks": 191280,
            "time": 204.35916849999998,
            "velocity": 0.6141732283464567
          },
          {
            "duration": 0.0032051312500129825,
            "durationTicks": 3,
            "midi": 66,
            "name": "F#4",
            "ticks": 191280,
            "time": 204.35916849999998,
            "velocity": 0.5826771653543307
          },
          {
            "duration": 0.004273508333369591,
            "durationTicks": 4,
            "midi": 54,
            "name": "F#3",
            "ticks": 191399,
            "time": 204.48630537291663,
            "velocity": 0.5826771653543307
          },
          {
            "duration": 0.004273508333369591,
            "durationTicks": 4,
            "midi": 66,
            "name": "F#4",
            "ticks": 191399,
            "time": 204.48630537291663,
            "velocity": 0.5826771653543307
          },
          {
            "duration": 0.0940171833333352,
            "durationTicks": 88,
            "midi": 54,
            "name": "F#3",
            "ticks": 191520,
            "time": 204.615579,
            "velocity": 0.8188976377952756
          },
          {
            "duration": 0.09081205208332221,
            "durationTicks": 85,
            "midi": 66,
            "name": "F#4",
            "ticks": 191520,
            "time": 204.615579,
            "velocity": 1
          },
          {
            "duration": 0.0032051312500129825,
            "durationTicks": 3,
            "midi": 54,
            "name": "F#3",
            "ticks": 191760,
            "time": 204.87198949999998,
            "velocity": 0.5511811023622047
          },
          {
            "duration": 0.0032051312500129825,
            "durationTicks": 3,
            "midi": 66,
            "name": "F#4",
            "ticks": 191760,
            "time": 204.87198949999998,
            "velocity": 0.5511811023622047
          },
          {
            "duration": 0.0032051312500129825,
            "durationTicks": 3,
            "midi": 54,
            "name": "F#3",
            "ticks": 191880,
            "time": 205.00019475,
            "velocity": 0.5511811023622047
          },
          {
            "duration": 0.0032051312500129825,
            "durationTicks": 3,
            "midi": 66,
            "name": "F#4",
            "ticks": 191880,
            "time": 205.00019475,
            "velocity": 0.5511811023622047
          },
          {
            "duration": 0.0940171833333352,
            "durationTicks": 88,
            "midi": 54,
            "name": "F#3",
            "ticks": 192000,
            "time": 205.1284,
            "velocity": 0.8188976377952756
          },
          {
            "duration": 0.09081205208332221,
            "durationTicks": 85,
            "midi": 66,
            "name": "F#4",
            "ticks": 192000,
            "time": 205.1284,
            "velocity": 1
          },
          {
            "duration": 0.0032051312500129825,
            "durationTicks": 3,
            "midi": 54,
            "name": "F#3",
            "ticks": 192240,
            "time": 205.3848105,
            "velocity": 0.5511811023622047
          },
          {
            "duration": 0.0032051312500129825,
            "durationTicks": 3,
            "midi": 66,
            "name": "F#4",
            "ticks": 192240,
            "time": 205.3848105,
            "velocity": 0.6141732283464567
          },
          {
            "duration": 0.0032051312500129825,
            "durationTicks": 3,
            "midi": 54,
            "name": "F#3",
            "ticks": 192360,
            "time": 205.51301575,
            "velocity": 0.5826771653543307
          },
          {
            "duration": 0.0032051312500129825,
            "durationTicks": 3,
            "midi": 66,
            "name": "F#4",
            "ticks": 192360,
            "time": 205.51301575,
            "velocity": 0.6141732283464567
          },
          {
            "duration": 0.0940171833333352,
            "durationTicks": 88,
            "midi": 54,
            "name": "F#3",
            "ticks": 192480,
            "time": 205.641221,
            "velocity": 0.7795275590551181
          },
          {
            "duration": 0.07478639583331415,
            "durationTicks": 70,
            "midi": 66,
            "name": "F#4",
            "ticks": 192480,
            "time": 205.641221,
            "velocity": 1
          },
          {
            "duration": 0.0032051312500129825,
            "durationTicks": 3,
            "midi": 54,
            "name": "F#3",
            "ticks": 192720,
            "time": 205.8976315,
            "velocity": 0.5826771653543307
          },
          {
            "duration": 0.0032051312500129825,
            "durationTicks": 3,
            "midi": 66,
            "name": "F#4",
            "ticks": 192720,
            "time": 205.8976315,
            "velocity": 0.6141732283464567
          },
          {
            "duration": 0.002136754166656374,
            "durationTicks": 2,
            "midi": 54,
            "name": "F#3",
            "ticks": 192840,
            "time": 206.02583675,
            "velocity": 0.6141732283464567
          },
          {
            "duration": 0.002136754166656374,
            "durationTicks": 2,
            "midi": 66,
            "name": "F#4",
            "ticks": 192840,
            "time": 206.02583675,
            "velocity": 0.6141732283464567
          },
          {
            "duration": 0.08012828125001192,
            "durationTicks": 75,
            "midi": 54,
            "name": "F#3",
            "ticks": 192960,
            "time": 206.15404199999998,
            "velocity": 0.8188976377952756
          },
          {
            "duration": 0.08547016666668128,
            "durationTicks": 80,
            "midi": 66,
            "name": "F#4",
            "ticks": 192960,
            "time": 206.15404199999998,
            "velocity": 1
          },
          {
            "duration": 0.0032051312500129825,
            "durationTicks": 3,
            "midi": 54,
            "name": "F#3",
            "ticks": 193200,
            "time": 206.4104525,
            "velocity": 0.5748031496062992
          },
          {
            "duration": 0.0032051312500129825,
            "durationTicks": 3,
            "midi": 66,
            "name": "F#4",
            "ticks": 193200,
            "time": 206.4104525,
            "velocity": 0.5511811023622047
          },
          {
            "duration": 0.0032051312500129825,
            "durationTicks": 3,
            "midi": 54,
            "name": "F#3",
            "ticks": 193320,
            "time": 206.53865775,
            "velocity": 0.5511811023622047
          },
          {
            "duration": 0.0032051312500129825,
            "durationTicks": 3,
            "midi": 66,
            "name": "F#4",
            "ticks": 193320,
            "time": 206.53865775,
            "velocity": 0.5511811023622047
          },
          {
            "duration": 0.07264964166665777,
            "durationTicks": 68,
            "midi": 54,
            "name": "F#3",
            "ticks": 193440,
            "time": 206.66686299999998,
            "velocity": 0.8188976377952756
          },
          {
            "duration": 0.07799152708335555,
            "durationTicks": 73,
            "midi": 66,
            "name": "F#4",
            "ticks": 193440,
            "time": 206.66686299999998,
            "velocity": 1
          },
          {
            "duration": 0.004273508333369591,
            "durationTicks": 4,
            "midi": 54,
            "name": "F#3",
            "ticks": 193679,
            "time": 206.92220512291664,
            "velocity": 0.5511811023622047
          },
          {
            "duration": 0.004273508333369591,
            "durationTicks": 4,
            "midi": 66,
            "name": "F#4",
            "ticks": 193679,
            "time": 206.92220512291664,
            "velocity": 0.5511811023622047
          },
          {
            "duration": 0.0032051312500129825,
            "durationTicks": 3,
            "midi": 54,
            "name": "F#3",
            "ticks": 193800,
            "time": 207.05147875,
            "velocity": 0.5826771653543307
          },
          {
            "duration": 0.0032051312500129825,
            "durationTicks": 3,
            "midi": 66,
            "name": "F#4",
            "ticks": 193800,
            "time": 207.05147875,
            "velocity": 0.5826771653543307
          },
          {
            "duration": 0.08012828125001192,
            "durationTicks": 75,
            "midi": 54,
            "name": "F#3",
            "ticks": 193920,
            "time": 207.17968399999998,
            "velocity": 0.8188976377952756
          },
          {
            "duration": 0.06944451041667321,
            "durationTicks": 65,
            "midi": 66,
            "name": "F#4",
            "ticks": 193920,
            "time": 207.17968399999998,
            "velocity": 1
          },
          {
            "duration": 0.0940171833333352,
            "durationTicks": 88,
            "midi": 54,
            "name": "F#3",
            "ticks": 213120,
            "time": 227.692524,
            "velocity": 0.8031496062992126
          },
          {
            "duration": 0.09081205208332221,
            "durationTicks": 85,
            "midi": 66,
            "name": "F#4",
            "ticks": 213120,
            "time": 227.692524,
            "velocity": 1
          },
          {
            "duration": 0.0032051312500129825,
            "durationTicks": 3,
            "midi": 54,
            "name": "F#3",
            "ticks": 213360,
            "time": 227.94893449999998,
            "velocity": 0.5984251968503937
          },
          {
            "duration": 0.0032051312500129825,
            "durationTicks": 3,
            "midi": 66,
            "name": "F#4",
            "ticks": 213360,
            "time": 227.94893449999998,
            "velocity": 0.6299212598425197
          },
          {
            "duration": 0.0032051312500129825,
            "durationTicks": 3,
            "midi": 54,
            "name": "F#3",
            "ticks": 213480,
            "time": 228.07713975,
            "velocity": 0.6299212598425197
          },
          {
            "duration": 0.0032051312500129825,
            "durationTicks": 3,
            "midi": 66,
            "name": "F#4",
            "ticks": 213480,
            "time": 228.07713975,
            "velocity": 0.6299212598425197
          },
          {
            "duration": 0.08333341249999648,
            "durationTicks": 78,
            "midi": 54,
            "name": "F#3",
            "ticks": 213600,
            "time": 228.205345,
            "velocity": 0.9133858267716536
          },
          {
            "duration": 0.0801282812499835,
            "durationTicks": 75,
            "midi": 66,
            "name": "F#4",
            "ticks": 213600,
            "time": 228.205345,
            "velocity": 1
          },
          {
            "duration": 0.0032051312500129825,
            "durationTicks": 3,
            "midi": 54,
            "name": "F#3",
            "ticks": 213840,
            "time": 228.46175549999998,
            "velocity": 0.6299212598425197
          },
          {
            "duration": 0.0032051312500129825,
            "durationTicks": 3,
            "midi": 66,
            "name": "F#4",
            "ticks": 213840,
            "time": 228.46175549999998,
            "velocity": 0.6299212598425197
          },
          {
            "duration": 0.0032051312500129825,
            "durationTicks": 3,
            "midi": 54,
            "name": "F#3",
            "ticks": 213960,
            "time": 228.58996075,
            "velocity": 0.6299212598425197
          },
          {
            "duration": 0.0032051312500129825,
            "durationTicks": 3,
            "midi": 66,
            "name": "F#4",
            "ticks": 213960,
            "time": 228.58996075,
            "velocity": 0.6299212598425197
          },
          {
            "duration": 0.08547016666665286,
            "durationTicks": 80,
            "midi": 54,
            "name": "F#3",
            "ticks": 214080,
            "time": 228.718166,
            "velocity": 0.8031496062992126
          },
          {
            "duration": 0.09615393749999157,
            "durationTicks": 90,
            "midi": 66,
            "name": "F#4",
            "ticks": 214080,
            "time": 228.718166,
            "velocity": 1
          },
          {
            "duration": 0.0032051312500129825,
            "durationTicks": 3,
            "midi": 54,
            "name": "F#3",
            "ticks": 214320,
            "time": 228.97457649999998,
            "velocity": 0.5984251968503937
          },
          {
            "duration": 0.0032051312500129825,
            "durationTicks": 3,
            "midi": 66,
            "name": "F#4",
            "ticks": 214320,
            "time": 228.97457649999998,
            "velocity": 0.5669291338582677
          },
          {
            "duration": 0.0032051312500129825,
            "durationTicks": 3,
            "midi": 54,
            "name": "F#3",
            "ticks": 214440,
            "time": 229.10278175,
            "velocity": 0.5669291338582677
          },
          {
            "duration": 0.0032051312500129825,
            "durationTicks": 3,
            "midi": 66,
            "name": "F#4",
            "ticks": 214440,
            "time": 229.10278175,
            "velocity": 0.5669291338582677
          },
          {
            "duration": 0.0940171833333352,
            "durationTicks": 88,
            "midi": 54,
            "name": "F#3",
            "ticks": 214560,
            "time": 229.230987,
            "velocity": 0.8031496062992126
          },
          {
            "duration": 0.09081205208332221,
            "durationTicks": 85,
            "midi": 66,
            "name": "F#4",
            "ticks": 214560,
            "time": 229.230987,
            "velocity": 1
          },
          {
            "duration": 0.0032051312500129825,
            "durationTicks": 3,
            "midi": 54,
            "name": "F#3",
            "ticks": 214800,
            "time": 229.4873975,
            "velocity": 0.5354330708661418
          },
          {
            "duration": 0.0032051312500129825,
            "durationTicks": 3,
            "midi": 66,
            "name": "F#4",
            "ticks": 214800,
            "time": 229.4873975,
            "velocity": 0.5354330708661418
          },
          {
            "duration": 0.0032051312500129825,
            "durationTicks": 3,
            "midi": 54,
            "name": "F#3",
            "ticks": 214920,
            "time": 229.61560275,
            "velocity": 0.5354330708661418
          },
          {
            "duration": 0.0032051312500129825,
            "durationTicks": 3,
            "midi": 66,
            "name": "F#4",
            "ticks": 214920,
            "time": 229.61560275,
            "velocity": 0.5354330708661418
          },
          {
            "duration": 0.0940171833333352,
            "durationTicks": 88,
            "midi": 54,
            "name": "F#3",
            "ticks": 215040,
            "time": 229.743808,
            "velocity": 0.8031496062992126
          },
          {
            "duration": 0.09081205208332221,
            "durationTicks": 85,
            "midi": 66,
            "name": "F#4",
            "ticks": 215040,
            "time": 229.743808,
            "velocity": 1
          },
          {
            "duration": 0.0032051312500129825,
            "durationTicks": 3,
            "midi": 54,
            "name": "F#3",
            "ticks": 215280,
            "time": 230.0002185,
            "velocity": 0.5354330708661418
          },
          {
            "duration": 0.0032051312500129825,
            "durationTicks": 3,
            "midi": 66,
            "name": "F#4",
            "ticks": 215280,
            "time": 230.0002185,
            "velocity": 0.5984251968503937
          },
          {
            "duration": 0.0032051312500129825,
            "durationTicks": 3,
            "midi": 54,
            "name": "F#3",
            "ticks": 215400,
            "time": 230.12842375,
            "velocity": 0.5669291338582677
          },
          {
            "duration": 0.0032051312500129825,
            "durationTicks": 3,
            "midi": 66,
            "name": "F#4",
            "ticks": 215400,
            "time": 230.12842375,
            "velocity": 0.5984251968503937
          },
          {
            "duration": 0.0940171833333352,
            "durationTicks": 88,
            "midi": 54,
            "name": "F#3",
            "ticks": 215520,
            "time": 230.25662899999998,
            "velocity": 0.7637795275590551
          },
          {
            "duration": 0.07478639583334257,
            "durationTicks": 70,
            "midi": 66,
            "name": "F#4",
            "ticks": 215520,
            "time": 230.25662899999998,
            "velocity": 1
          },
          {
            "duration": 0.0032051312500129825,
            "durationTicks": 3,
            "midi": 54,
            "name": "F#3",
            "ticks": 215760,
            "time": 230.5130395,
            "velocity": 0.5669291338582677
          },
          {
            "duration": 0.0032051312500129825,
            "durationTicks": 3,
            "midi": 66,
            "name": "F#4",
            "ticks": 215760,
            "time": 230.5130395,
            "velocity": 0.5984251968503937
          },
          {
            "duration": 0.0032051312500129825,
            "durationTicks": 3,
            "midi": 54,
            "name": "F#3",
            "ticks": 215880,
            "time": 230.64124475,
            "velocity": 0.5984251968503937
          },
          {
            "duration": 0.0032051312500129825,
            "durationTicks": 3,
            "midi": 66,
            "name": "F#4",
            "ticks": 215880,
            "time": 230.64124475,
            "velocity": 0.5984251968503937
          },
          {
            "duration": 0.08012828125001192,
            "durationTicks": 75,
            "midi": 54,
            "name": "F#3",
            "ticks": 216000,
            "time": 230.76944999999998,
            "velocity": 0.8031496062992126
          },
          {
            "duration": 0.08547016666668128,
            "durationTicks": 80,
            "midi": 66,
            "name": "F#4",
            "ticks": 216000,
            "time": 230.76944999999998,
            "velocity": 1
          },
          {
            "duration": 0.0032051312500129825,
            "durationTicks": 3,
            "midi": 54,
            "name": "F#3",
            "ticks": 216240,
            "time": 231.0258605,
            "velocity": 0.5590551181102362
          },
          {
            "duration": 0.0032051312500129825,
            "durationTicks": 3,
            "midi": 66,
            "name": "F#4",
            "ticks": 216240,
            "time": 231.0258605,
            "velocity": 0.5354330708661418
          },
          {
            "duration": 0.0032051312499845608,
            "durationTicks": 3,
            "midi": 54,
            "name": "F#3",
            "ticks": 216360,
            "time": 231.15406575,
            "velocity": 0.5354330708661418
          },
          {
            "duration": 0.0032051312499845608,
            "durationTicks": 3,
            "midi": 66,
            "name": "F#4",
            "ticks": 216360,
            "time": 231.15406575,
            "velocity": 0.5354330708661418
          },
          {
            "duration": 0.07264964166665777,
            "durationTicks": 68,
            "midi": 54,
            "name": "F#3",
            "ticks": 216480,
            "time": 231.28227099999998,
            "velocity": 0.8031496062992126
          },
          {
            "duration": 0.07799152708335555,
            "durationTicks": 73,
            "midi": 66,
            "name": "F#4",
            "ticks": 216480,
            "time": 231.28227099999998,
            "velocity": 1
          },
          {
            "duration": 0.0032051312500129825,
            "durationTicks": 3,
            "midi": 54,
            "name": "F#3",
            "ticks": 216720,
            "time": 231.5386815,
            "velocity": 0.5354330708661418
          },
          {
            "duration": 0.0032051312500129825,
            "durationTicks": 3,
            "midi": 66,
            "name": "F#4",
            "ticks": 216720,
            "time": 231.5386815,
            "velocity": 0.5354330708661418
          },
          {
            "duration": 0.0032051312500129825,
            "durationTicks": 3,
            "midi": 54,
            "name": "F#3",
            "ticks": 216840,
            "time": 231.66688674999997,
            "velocity": 0.5669291338582677
          },
          {
            "duration": 0.0032051312500129825,
            "durationTicks": 3,
            "midi": 66,
            "name": "F#4",
            "ticks": 216840,
            "time": 231.66688674999997,
            "velocity": 0.5669291338582677
          },
          {
            "duration": 0.08012828125001192,
            "durationTicks": 75,
            "midi": 54,
            "name": "F#3",
            "ticks": 216960,
            "time": 231.79509199999998,
            "velocity": 0.8031496062992126
          },
          {
            "duration": 0.06944451041667321,
            "durationTicks": 65,
            "midi": 66,
            "name": "F#4",
            "ticks": 216960,
            "time": 231.79509199999998,
            "velocity": 1
          },
          {
            "duration": 0.0940171833333352,
            "durationTicks": 88,
            "midi": 54,
            "name": "F#3",
            "ticks": 228480,
            "time": 244.10279599999998,
            "velocity": 0.8031496062992126
          },
          {
            "duration": 0.09081205208332221,
            "durationTicks": 85,
            "midi": 66,
            "name": "F#4",
            "ticks": 228480,
            "time": 244.10279599999998,
            "velocity": 1
          },
          {
            "duration": 0.0032051312500129825,
            "durationTicks": 3,
            "midi": 54,
            "name": "F#3",
            "ticks": 228720,
            "time": 244.3592065,
            "velocity": 0.5984251968503937
          },
          {
            "duration": 0.0032051312500129825,
            "durationTicks": 3,
            "midi": 66,
            "name": "F#4",
            "ticks": 228720,
            "time": 244.3592065,
            "velocity": 0.6299212598425197
          },
          {
            "duration": 0.0032051312500129825,
            "durationTicks": 3,
            "midi": 54,
            "name": "F#3",
            "ticks": 228840,
            "time": 244.48741174999998,
            "velocity": 0.6299212598425197
          },
          {
            "duration": 0.0032051312500129825,
            "durationTicks": 3,
            "midi": 66,
            "name": "F#4",
            "ticks": 228840,
            "time": 244.48741174999998,
            "velocity": 0.6299212598425197
          },
          {
            "duration": 0.0833334125000249,
            "durationTicks": 78,
            "midi": 54,
            "name": "F#3",
            "ticks": 228960,
            "time": 244.615617,
            "velocity": 0.9133858267716536
          },
          {
            "duration": 0.08012828125001192,
            "durationTicks": 75,
            "midi": 66,
            "name": "F#4",
            "ticks": 228960,
            "time": 244.615617,
            "velocity": 1
          },
          {
            "duration": 0.0032051312500129825,
            "durationTicks": 3,
            "midi": 54,
            "name": "F#3",
            "ticks": 229200,
            "time": 244.87202749999997,
            "velocity": 0.6299212598425197
          },
          {
            "duration": 0.0032051312500129825,
            "durationTicks": 3,
            "midi": 66,
            "name": "F#4",
            "ticks": 229200,
            "time": 244.87202749999997,
            "velocity": 0.6299212598425197
          },
          {
            "duration": 0.0032051312500129825,
            "durationTicks": 3,
            "midi": 54,
            "name": "F#3",
            "ticks": 229320,
            "time": 245.00023274999998,
            "velocity": 0.6299212598425197
          },
          {
            "duration": 0.0032051312500129825,
            "durationTicks": 3,
            "midi": 66,
            "name": "F#4",
            "ticks": 229320,
            "time": 245.00023274999998,
            "velocity": 0.6299212598425197
          },
          {
            "duration": 0.08547016666668128,
            "durationTicks": 80,
            "midi": 54,
            "name": "F#3",
            "ticks": 229440,
            "time": 245.128438,
            "velocity": 0.8031496062992126
          },
          {
            "duration": 0.09615393749999157,
            "durationTicks": 90,
            "midi": 66,
            "name": "F#4",
            "ticks": 229440,
            "time": 245.128438,
            "velocity": 1
          },
          {
            "duration": 0.0032051312500129825,
            "durationTicks": 3,
            "midi": 54,
            "name": "F#3",
            "ticks": 229680,
            "time": 245.38484849999998,
            "velocity": 0.5984251968503937
          },
          {
            "duration": 0.0032051312500129825,
            "durationTicks": 3,
            "midi": 66,
            "name": "F#4",
            "ticks": 229680,
            "time": 245.38484849999998,
            "velocity": 0.5669291338582677
          },
          {
            "duration": 0.0032051312500129825,
            "durationTicks": 3,
            "midi": 54,
            "name": "F#3",
            "ticks": 229800,
            "time": 245.51305374999998,
            "velocity": 0.5669291338582677
          },
          {
            "duration": 0.0032051312500129825,
            "durationTicks": 3,
            "midi": 66,
            "name": "F#4",
            "ticks": 229800,
            "time": 245.51305374999998,
            "velocity": 0.5669291338582677
          },
          {
            "duration": 0.0940171833333352,
            "durationTicks": 88,
            "midi": 54,
            "name": "F#3",
            "ticks": 229920,
            "time": 245.641259,
            "velocity": 0.8031496062992126
          },
          {
            "duration": 0.09081205208332221,
            "durationTicks": 85,
            "midi": 66,
            "name": "F#4",
            "ticks": 229920,
            "time": 245.641259,
            "velocity": 1
          },
          {
            "duration": 0.0032051312500129825,
            "durationTicks": 3,
            "midi": 54,
            "name": "F#3",
            "ticks": 230160,
            "time": 245.89766949999998,
            "velocity": 0.5354330708661418
          },
          {
            "duration": 0.0032051312500129825,
            "durationTicks": 3,
            "midi": 66,
            "name": "F#4",
            "ticks": 230160,
            "time": 245.89766949999998,
            "velocity": 0.5354330708661418
          },
          {
            "duration": 0.0032051312500129825,
            "durationTicks": 3,
            "midi": 54,
            "name": "F#3",
            "ticks": 230280,
            "time": 246.02587474999999,
            "velocity": 0.5354330708661418
          },
          {
            "duration": 0.0032051312500129825,
            "durationTicks": 3,
            "midi": 66,
            "name": "F#4",
            "ticks": 230280,
            "time": 246.02587474999999,
            "velocity": 0.5354330708661418
          },
          {
            "duration": 0.0940171833333352,
            "durationTicks": 88,
            "midi": 54,
            "name": "F#3",
            "ticks": 230400,
            "time": 246.15408,
            "velocity": 0.8031496062992126
          },
          {
            "duration": 0.09081205208332221,
            "durationTicks": 85,
            "midi": 66,
            "name": "F#4",
            "ticks": 230400,
            "time": 246.15408,
            "velocity": 1
          },
          {
            "duration": 0.0032051312500129825,
            "durationTicks": 3,
            "midi": 54,
            "name": "F#3",
            "ticks": 230640,
            "time": 246.41049049999998,
            "velocity": 0.5354330708661418
          },
          {
            "duration": 0.0032051312500129825,
            "durationTicks": 3,
            "midi": 66,
            "name": "F#4",
            "ticks": 230640,
            "time": 246.41049049999998,
            "velocity": 0.5984251968503937
          },
          {
            "duration": 0.0032051312500129825,
            "durationTicks": 3,
            "midi": 54,
            "name": "F#3",
            "ticks": 230760,
            "time": 246.53869575,
            "velocity": 0.5669291338582677
          },
          {
            "duration": 0.0032051312500129825,
            "durationTicks": 3,
            "midi": 66,
            "name": "F#4",
            "ticks": 230760,
            "time": 246.53869575,
            "velocity": 0.5984251968503937
          },
          {
            "duration": 0.0940171833333352,
            "durationTicks": 88,
            "midi": 54,
            "name": "F#3",
            "ticks": 230880,
            "time": 246.666901,
            "velocity": 0.7637795275590551
          },
          {
            "duration": 0.07478639583331415,
            "durationTicks": 70,
            "midi": 66,
            "name": "F#4",
            "ticks": 230880,
            "time": 246.666901,
            "velocity": 1
          },
          {
            "duration": 0.0032051312500129825,
            "durationTicks": 3,
            "midi": 54,
            "name": "F#3",
            "ticks": 231120,
            "time": 246.92331149999998,
            "velocity": 0.5669291338582677
          },
          {
            "duration": 0.0032051312500129825,
            "durationTicks": 3,
            "midi": 66,
            "name": "F#4",
            "ticks": 231120,
            "time": 246.92331149999998,
            "velocity": 0.5984251968503937
          },
          {
            "duration": 0.0032051312500129825,
            "durationTicks": 3,
            "midi": 54,
            "name": "F#3",
            "ticks": 231240,
            "time": 247.05151675,
            "velocity": 0.5984251968503937
          },
          {
            "duration": 0.0032051312500129825,
            "durationTicks": 3,
            "midi": 66,
            "name": "F#4",
            "ticks": 231240,
            "time": 247.05151675,
            "velocity": 0.5984251968503937
          },
          {
            "duration": 0.0801282812499835,
            "durationTicks": 75,
            "midi": 54,
            "name": "F#3",
            "ticks": 231360,
            "time": 247.179722,
            "velocity": 0.8031496062992126
          },
          {
            "duration": 0.08547016666665286,
            "durationTicks": 80,
            "midi": 66,
            "name": "F#4",
            "ticks": 231360,
            "time": 247.179722,
            "velocity": 1
          },
          {
            "duration": 0.0032051312500129825,
            "durationTicks": 3,
            "midi": 54,
            "name": "F#3",
            "ticks": 231600,
            "time": 247.43613249999999,
            "velocity": 0.5590551181102362
          },
          {
            "duration": 0.0032051312500129825,
            "durationTicks": 3,
            "midi": 66,
            "name": "F#4",
            "ticks": 231600,
            "time": 247.43613249999999,
            "velocity": 0.5354330708661418
          },
          {
            "duration": 0.0032051312500129825,
            "durationTicks": 3,
            "midi": 54,
            "name": "F#3",
            "ticks": 231720,
            "time": 247.56433775,
            "velocity": 0.5354330708661418
          },
          {
            "duration": 0.0032051312500129825,
            "durationTicks": 3,
            "midi": 66,
            "name": "F#4",
            "ticks": 231720,
            "time": 247.56433775,
            "velocity": 0.5354330708661418
          },
          {
            "duration": 0.0726496416666862,
            "durationTicks": 68,
            "midi": 54,
            "name": "F#3",
            "ticks": 231840,
            "time": 247.69254299999997,
            "velocity": 0.8031496062992126
          },
          {
            "duration": 0.07799152708335555,
            "durationTicks": 73,
            "midi": 66,
            "name": "F#4",
            "ticks": 231840,
            "time": 247.69254299999997,
            "velocity": 1
          },
          {
            "duration": 0.0032051312500129825,
            "durationTicks": 3,
            "midi": 54,
            "name": "F#3",
            "ticks": 232080,
            "time": 247.9489535,
            "velocity": 0.5354330708661418
          },
          {
            "duration": 0.0032051312500129825,
            "durationTicks": 3,
            "midi": 66,
            "name": "F#4",
            "ticks": 232080,
            "time": 247.9489535,
            "velocity": 0.5354330708661418
          },
          {
            "duration": 0.0032051312500129825,
            "durationTicks": 3,
            "midi": 54,
            "name": "F#3",
            "ticks": 232200,
            "time": 248.07715875,
            "velocity": 0.5669291338582677
          },
          {
            "duration": 0.0032051312500129825,
            "durationTicks": 3,
            "midi": 66,
            "name": "F#4",
            "ticks": 232200,
            "time": 248.07715875,
            "velocity": 0.5669291338582677
          },
          {
            "duration": 0.08012828125001192,
            "durationTicks": 75,
            "midi": 54,
            "name": "F#3",
            "ticks": 232320,
            "time": 248.20536399999997,
            "velocity": 0.8031496062992126
          },
          {
            "duration": 0.06944451041670163,
            "durationTicks": 65,
            "midi": 66,
            "name": "F#4",
            "ticks": 232320,
            "time": 248.20536399999997,
            "velocity": 1
          },
          {
            "duration": 0.0032051312500129825,
            "durationTicks": 3,
            "midi": 54,
            "name": "F#3",
            "ticks": 235920,
            "time": 252.05152149999998,
            "velocity": 0.6771653543307087
          },
          {
            "duration": 0.0032051312500129825,
            "durationTicks": 3,
            "midi": 66,
            "name": "F#4",
            "ticks": 235920,
            "time": 252.05152149999998,
            "velocity": 0.5984251968503937
          },
          {
            "duration": 0.0032051312500129825,
            "durationTicks": 3,
            "midi": 54,
            "name": "F#3",
            "ticks": 236040,
            "time": 252.17972675,
            "velocity": 0.6850393700787402
          },
          {
            "duration": 0.0032051312500129825,
            "durationTicks": 3,
            "midi": 66,
            "name": "F#4",
            "ticks": 236040,
            "time": 252.17972675,
            "velocity": 0.5984251968503937
          },
          {
            "duration": 0.0940171833333352,
            "durationTicks": 88,
            "midi": 54,
            "name": "F#3",
            "ticks": 236160,
            "time": 252.307932,
            "velocity": 0.8031496062992126
          },
          {
            "duration": 0.09081205208332221,
            "durationTicks": 85,
            "midi": 66,
            "name": "F#4",
            "ticks": 236160,
            "time": 252.307932,
            "velocity": 1
          },
          {
            "duration": 0.0032051312500129825,
            "durationTicks": 3,
            "midi": 54,
            "name": "F#3",
            "ticks": 236400,
            "time": 252.56434249999998,
            "velocity": 0.5984251968503937
          },
          {
            "duration": 0.0032051312500129825,
            "durationTicks": 3,
            "midi": 66,
            "name": "F#4",
            "ticks": 236400,
            "time": 252.56434249999998,
            "velocity": 0.6299212598425197
          },
          {
            "duration": 0.0032051312500129825,
            "durationTicks": 3,
            "midi": 54,
            "name": "F#3",
            "ticks": 236520,
            "time": 252.69254775,
            "velocity": 0.6299212598425197
          },
          {
            "duration": 0.0032051312500129825,
            "durationTicks": 3,
            "midi": 66,
            "name": "F#4",
            "ticks": 236520,
            "time": 252.69254775,
            "velocity": 0.6299212598425197
          },
          {
            "duration": 0.08333341249999648,
            "durationTicks": 78,
            "midi": 54,
            "name": "F#3",
            "ticks": 236640,
            "time": 252.820753,
            "velocity": 0.9133858267716536
          },
          {
            "duration": 0.0801282812499835,
            "durationTicks": 75,
            "midi": 66,
            "name": "F#4",
            "ticks": 236640,
            "time": 252.820753,
            "velocity": 1
          },
          {
            "duration": 0.0032051312500129825,
            "durationTicks": 3,
            "midi": 54,
            "name": "F#3",
            "ticks": 236880,
            "time": 253.07716349999998,
            "velocity": 0.6299212598425197
          },
          {
            "duration": 0.0032051312500129825,
            "durationTicks": 3,
            "midi": 66,
            "name": "F#4",
            "ticks": 236880,
            "time": 253.07716349999998,
            "velocity": 0.6299212598425197
          },
          {
            "duration": 0.0032051312500129825,
            "durationTicks": 3,
            "midi": 54,
            "name": "F#3",
            "ticks": 237000,
            "time": 253.20536875,
            "velocity": 0.6299212598425197
          },
          {
            "duration": 0.0032051312500129825,
            "durationTicks": 3,
            "midi": 66,
            "name": "F#4",
            "ticks": 237000,
            "time": 253.20536875,
            "velocity": 0.6299212598425197
          },
          {
            "duration": 0.08547016666665286,
            "durationTicks": 80,
            "midi": 54,
            "name": "F#3",
            "ticks": 237120,
            "time": 253.333574,
            "velocity": 0.8031496062992126
          },
          {
            "duration": 0.09615393749999157,
            "durationTicks": 90,
            "midi": 66,
            "name": "F#4",
            "ticks": 237120,
            "time": 253.333574,
            "velocity": 1
          },
          {
            "duration": 0.0032051312500129825,
            "durationTicks": 3,
            "midi": 54,
            "name": "F#3",
            "ticks": 237360,
            "time": 253.58998449999999,
            "velocity": 0.5984251968503937
          },
          {
            "duration": 0.0032051312500129825,
            "durationTicks": 3,
            "midi": 66,
            "name": "F#4",
            "ticks": 237360,
            "time": 253.58998449999999,
            "velocity": 0.5669291338582677
          },
          {
            "duration": 0.0032051312500129825,
            "durationTicks": 3,
            "midi": 54,
            "name": "F#3",
            "ticks": 237480,
            "time": 253.71818975,
            "velocity": 0.5669291338582677
          },
          {
            "duration": 0.0032051312500129825,
            "durationTicks": 3,
            "midi": 66,
            "name": "F#4",
            "ticks": 237480,
            "time": 253.71818975,
            "velocity": 0.5669291338582677
          },
          {
            "duration": 0.0940171833333352,
            "durationTicks": 88,
            "midi": 54,
            "name": "F#3",
            "ticks": 237600,
            "time": 253.84639499999997,
            "velocity": 0.8031496062992126
          },
          {
            "duration": 0.09081205208335064,
            "durationTicks": 85,
            "midi": 66,
            "name": "F#4",
            "ticks": 237600,
            "time": 253.84639499999997,
            "velocity": 1
          },
          {
            "duration": 0.0032051312500129825,
            "durationTicks": 3,
            "midi": 54,
            "name": "F#3",
            "ticks": 237840,
            "time": 254.1028055,
            "velocity": 0.5354330708661418
          },
          {
            "duration": 0.0032051312500129825,
            "durationTicks": 3,
            "midi": 66,
            "name": "F#4",
            "ticks": 237840,
            "time": 254.1028055,
            "velocity": 0.5354330708661418
          },
          {
            "duration": 0.0032051312500129825,
            "durationTicks": 3,
            "midi": 54,
            "name": "F#3",
            "ticks": 237960,
            "time": 254.23101075,
            "velocity": 0.5354330708661418
          },
          {
            "duration": 0.0032051312500129825,
            "durationTicks": 3,
            "midi": 66,
            "name": "F#4",
            "ticks": 237960,
            "time": 254.23101075,
            "velocity": 0.5354330708661418
          },
          {
            "duration": 0.0940171833333352,
            "durationTicks": 88,
            "midi": 54,
            "name": "F#3",
            "ticks": 238080,
            "time": 254.35921599999998,
            "velocity": 0.8031496062992126
          },
          {
            "duration": 0.09081205208332221,
            "durationTicks": 85,
            "midi": 66,
            "name": "F#4",
            "ticks": 238080,
            "time": 254.35921599999998,
            "velocity": 1
          },
          {
            "duration": 0.0032051312500129825,
            "durationTicks": 3,
            "midi": 54,
            "name": "F#3",
            "ticks": 238320,
            "time": 254.6156265,
            "velocity": 0.5354330708661418
          },
          {
            "duration": 0.0032051312500129825,
            "durationTicks": 3,
            "midi": 66,
            "name": "F#4",
            "ticks": 238320,
            "time": 254.6156265,
            "velocity": 0.5984251968503937
          },
          {
            "duration": 0.0032051312500129825,
            "durationTicks": 3,
            "midi": 54,
            "name": "F#3",
            "ticks": 238440,
            "time": 254.74383175,
            "velocity": 0.5669291338582677
          },
          {
            "duration": 0.0032051312500129825,
            "durationTicks": 3,
            "midi": 66,
            "name": "F#4",
            "ticks": 238440,
            "time": 254.74383175,
            "velocity": 0.5984251968503937
          },
          {
            "duration": 0.0940171833333352,
            "durationTicks": 88,
            "midi": 54,
            "name": "F#3",
            "ticks": 238560,
            "time": 254.87203699999998,
            "velocity": 0.7637795275590551
          },
          {
            "duration": 0.07478639583334257,
            "durationTicks": 70,
            "midi": 66,
            "name": "F#4",
            "ticks": 238560,
            "time": 254.87203699999998,
            "velocity": 1
          },
          {
            "duration": 0.0032051312500129825,
            "durationTicks": 3,
            "midi": 54,
            "name": "F#3",
            "ticks": 238800,
            "time": 255.1284475,
            "velocity": 0.5669291338582677
          },
          {
            "duration": 0.0032051312500129825,
            "durationTicks": 3,
            "midi": 66,
            "name": "F#4",
            "ticks": 238800,
            "time": 255.1284475,
            "velocity": 0.5984251968503937
          },
          {
            "duration": 0.0032051312500129825,
            "durationTicks": 3,
            "midi": 54,
            "name": "F#3",
            "ticks": 238920,
            "time": 255.25665274999997,
            "velocity": 0.5984251968503937
          },
          {
            "duration": 0.0032051312500129825,
            "durationTicks": 3,
            "midi": 66,
            "name": "F#4",
            "ticks": 238920,
            "time": 255.25665274999997,
            "velocity": 0.5984251968503937
          },
          {
            "duration": 0.08012828125001192,
            "durationTicks": 75,
            "midi": 54,
            "name": "F#3",
            "ticks": 239040,
            "time": 255.38485799999998,
            "velocity": 0.8031496062992126
          },
          {
            "duration": 0.08547016666668128,
            "durationTicks": 80,
            "midi": 66,
            "name": "F#4",
            "ticks": 239040,
            "time": 255.38485799999998,
            "velocity": 1
          },
          {
            "duration": 0.0032051312500129825,
            "durationTicks": 3,
            "midi": 54,
            "name": "F#3",
            "ticks": 239280,
            "time": 255.6412685,
            "velocity": 0.5590551181102362
          },
          {
            "duration": 0.0032051312500129825,
            "durationTicks": 3,
            "midi": 66,
            "name": "F#4",
            "ticks": 239280,
            "time": 255.6412685,
            "velocity": 0.5354330708661418
          },
          {
            "duration": 0.0032051312500129825,
            "durationTicks": 3,
            "midi": 54,
            "name": "F#3",
            "ticks": 239400,
            "time": 255.76947374999997,
            "velocity": 0.5354330708661418
          },
          {
            "duration": 0.0032051312500129825,
            "durationTicks": 3,
            "midi": 66,
            "name": "F#4",
            "ticks": 239400,
            "time": 255.76947374999997,
            "velocity": 0.5354330708661418
          },
          {
            "duration": 0.07371801875001438,
            "durationTicks": 69,
            "midi": 54,
            "name": "F#3",
            "ticks": 239519,
            "time": 255.89661062291663,
            "velocity": 0.8031496062992126
          },
          {
            "duration": 0.07905990416668374,
            "durationTicks": 74,
            "midi": 66,
            "name": "F#4",
            "ticks": 239519,
            "time": 255.89661062291663,
            "velocity": 1
          },
          {
            "duration": 0.0032051312500129825,
            "durationTicks": 3,
            "midi": 54,
            "name": "F#3",
            "ticks": 239760,
            "time": 256.1540895,
            "velocity": 0.5354330708661418
          },
          {
            "duration": 0.0032051312500129825,
            "durationTicks": 3,
            "midi": 66,
            "name": "F#4",
            "ticks": 239760,
            "time": 256.1540895,
            "velocity": 0.5354330708661418
          },
          {
            "duration": 0.0032051312500129825,
            "durationTicks": 3,
            "midi": 54,
            "name": "F#3",
            "ticks": 239880,
            "time": 256.28229475,
            "velocity": 0.5669291338582677
          },
          {
            "duration": 0.0032051312500129825,
            "durationTicks": 3,
            "midi": 66,
            "name": "F#4",
            "ticks": 239880,
            "time": 256.28229475,
            "velocity": 0.5669291338582677
          },
          {
            "duration": 0.0801282812499835,
            "durationTicks": 75,
            "midi": 54,
            "name": "F#3",
            "ticks": 240000,
            "time": 256.4105,
            "velocity": 0.8031496062992126
          },
          {
            "duration": 0.06944451041664479,
            "durationTicks": 65,
            "midi": 66,
            "name": "F#4",
            "ticks": 240000,
            "time": 256.4105,
            "velocity": 1
          }
        ]
      },
      {
        "channel": 4,
        "controlChanges": {
          "0": [
            {
              "number": 0,
              "ticks": 182120,
              "time": 194.57283441666667,
              "value": 0
            },
            {
              "number": 0,
              "ticks": 182120,
              "time": 194.57283441666667,
              "value": 0
            },
            {
              "number": 0,
              "ticks": 212893,
              "time": 227.45000240208333,
              "value": 0
            },
            {
              "number": 0,
              "ticks": 213025,
              "time": 227.5910281770833,
              "value": 0
            }
          ],
          "7": [
            {
              "number": 7,
              "ticks": 174109,
              "time": 186.01406560208332,
              "value": 0.5826771653543307
            },
            {
              "number": 7,
              "ticks": 174245,
              "time": 186.15936488541666,
              "value": 0.5905511811023622
            },
            {
              "number": 7,
              "ticks": 174295,
              "time": 186.2127837395833,
              "value": 0.5826771653543307
            },
            {
              "number": 7,
              "ticks": 174346,
              "time": 186.26727097083332,
              "value": 0.5826771653543307
            },
            {
              "number": 7,
              "ticks": 174396,
              "time": 186.320689825,
              "value": 0.5826771653543307
            },
            {
              "number": 7,
              "ticks": 174446,
              "time": 186.37410867916665,
              "value": 0.5826771653543307
            },
            {
              "number": 7,
              "ticks": 174496,
              "time": 186.42752753333335,
              "value": 0.5826771653543307
            },
            {
              "number": 7,
              "ticks": 174547,
              "time": 186.48201476458334,
              "value": 0.5826771653543307
            },
            {
              "number": 7,
              "ticks": 174597,
              "time": 186.53543361874998,
              "value": 0.5826771653543307
            },
            {
              "number": 7,
              "ticks": 174647,
              "time": 186.58885247291664,
              "value": 0.5826771653543307
            },
            {
              "number": 7,
              "ticks": 174697,
              "time": 186.64227132708334,
              "value": 0.5826771653543307
            },
            {
              "number": 7,
              "ticks": 174748,
              "time": 186.69675855833333,
              "value": 0.5826771653543307
            },
            {
              "number": 7,
              "ticks": 174798,
              "time": 186.7501774125,
              "value": 0.5826771653543307
            },
            {
              "number": 7,
              "ticks": 174848,
              "time": 186.80359626666666,
              "value": 0.5826771653543307
            },
            {
              "number": 7,
              "ticks": 174898,
              "time": 186.85701512083332,
              "value": 0.5826771653543307
            },
            {
              "number": 7,
              "ticks": 174949,
              "time": 186.91150235208332,
              "value": 0.5826771653543307
            },
            {
              "number": 7,
              "ticks": 174999,
              "time": 186.96492120624998,
              "value": 0.5826771653543307
            },
            {
              "number": 7,
              "ticks": 175049,
              "time": 187.01834006041665,
              "value": 0.5826771653543307
            },
            {
              "number": 7,
              "ticks": 175099,
              "time": 187.0717589145833,
              "value": 0.5826771653543307
            },
            {
              "number": 7,
              "ticks": 175150,
              "time": 187.1262461458333,
              "value": 0.5826771653543307
            },
            {
              "number": 7,
              "ticks": 175200,
              "time": 187.179665,
              "value": 0.5826771653543307
            },
            {
              "number": 7,
              "ticks": 175250,
              "time": 187.23308385416667,
              "value": 0.5826771653543307
            },
            {
              "number": 7,
              "ticks": 175300,
              "time": 187.2865027083333,
              "value": 0.5826771653543307
            },
            {
              "number": 7,
              "ticks": 175351,
              "time": 187.34098993958332,
              "value": 0.5826771653543307
            },
            {
              "number": 7,
              "ticks": 175401,
              "time": 187.39440879375,
              "value": 0.5826771653543307
            },
            {
              "number": 7,
              "ticks": 175451,
              "time": 187.44782764791665,
              "value": 0.5826771653543307
            },
            {
              "number": 7,
              "ticks": 175501,
              "time": 187.50124650208335,
              "value": 0.5826771653543307
            },
            {
              "number": 7,
              "ticks": 175552,
              "time": 187.55573373333334,
              "value": 0.5826771653543307
            },
            {
              "number": 7,
              "ticks": 175602,
              "time": 187.60915258749998,
              "value": 0.5826771653543307
            },
            {
              "number": 7,
              "ticks": 175652,
              "time": 187.66257144166664,
              "value": 0.5826771653543307
            },
            {
              "number": 7,
              "ticks": 175702,
              "time": 187.71599029583334,
              "value": 0.5826771653543307
            },
            {
              "number": 7,
              "ticks": 175753,
              "time": 187.77047752708333,
              "value": 0.5826771653543307
            },
            {
              "number": 7,
              "ticks": 175803,
              "time": 187.82389638125,
              "value": 0.5826771653543307
            },
            {
              "number": 7,
              "ticks": 175853,
              "time": 187.87731523541666,
              "value": 0.5826771653543307
            },
            {
              "number": 7,
              "ticks": 175903,
              "time": 187.93073408958332,
              "value": 0.5748031496062992
            },
            {
              "number": 7,
              "ticks": 175954,
              "time": 187.98522132083332,
              "value": 0.5748031496062992
            },
            {
              "number": 7,
              "ticks": 176004,
              "time": 188.03864017499998,
              "value": 0.5748031496062992
            },
            {
              "number": 7,
              "ticks": 176054,
              "time": 188.09205902916665,
              "value": 0.5748031496062992
            },
            {
              "number": 7,
              "ticks": 176104,
              "time": 188.1454778833333,
              "value": 0.5748031496062992
            },
            {
              "number": 7,
              "ticks": 176155,
              "time": 188.1999651145833,
              "value": 0.5748031496062992
            },
            {
              "number": 7,
              "ticks": 176205,
              "time": 188.25338396875,
              "value": 0.5748031496062992
            },
            {
              "number": 7,
              "ticks": 176255,
              "time": 188.30680282291667,
              "value": 0.5748031496062992
            },
            {
              "number": 7,
              "ticks": 176305,
              "time": 188.3602216770833,
              "value": 0.5748031496062992
            },
            {
              "number": 7,
              "ticks": 176356,
              "time": 188.41470890833332,
              "value": 0.5748031496062992
            },
            {
              "number": 7,
              "ticks": 176406,
              "time": 188.4681277625,
              "value": 0.5748031496062992
            },
            {
              "number": 7,
              "ticks": 176456,
              "time": 188.52154661666665,
              "value": 0.5748031496062992
            },
            {
              "number": 7,
              "ticks": 176506,
              "time": 188.57496547083335,
              "value": 0.5748031496062992
            },
            {
              "number": 7,
              "ticks": 176557,
              "time": 188.62945270208334,
              "value": 0.5748031496062992
            },
            {
              "number": 7,
              "ticks": 176607,
              "time": 188.68287155624998,
              "value": 0.5748031496062992
            },
            {
              "number": 7,
              "ticks": 176657,
              "time": 188.73629041041664,
              "value": 0.5748031496062992
            },
            {
              "number": 7,
              "ticks": 176707,
              "time": 188.78970926458334,
              "value": 0.5748031496062992
            },
            {
              "number": 7,
              "ticks": 176758,
              "time": 188.84419649583333,
              "value": 0.5748031496062992
            },
            {
              "number": 7,
              "ticks": 176808,
              "time": 188.89761535,
              "value": 0.5748031496062992
            },
            {
              "number": 7,
              "ticks": 176858,
              "time": 188.95103420416666,
              "value": 0.5748031496062992
            },
            {
              "number": 7,
              "ticks": 176908,
              "time": 189.00445305833333,
              "value": 0.5748031496062992
            },
            {
              "number": 7,
              "ticks": 176959,
              "time": 189.05894028958332,
              "value": 0.5748031496062992
            },
            {
              "number": 7,
              "ticks": 177009,
              "time": 189.11235914374998,
              "value": 0.5748031496062992
            },
            {
              "number": 7,
              "ticks": 177059,
              "time": 189.16577799791665,
              "value": 0.5748031496062992
            },
            {
              "number": 7,
              "ticks": 177109,
              "time": 189.21919685208331,
              "value": 0.5748031496062992
            },
            {
              "number": 7,
              "ticks": 177160,
              "time": 189.2736840833333,
              "value": 0.5748031496062992
            },
            {
              "number": 7,
              "ticks": 177210,
              "time": 189.3271029375,
              "value": 0.5748031496062992
            },
            {
              "number": 7,
              "ticks": 177260,
              "time": 189.38052179166667,
              "value": 0.5748031496062992
            },
            {
              "number": 7,
              "ticks": 177310,
              "time": 189.4339406458333,
              "value": 0.5748031496062992
            },
            {
              "number": 7,
              "ticks": 177360,
              "time": 189.4873595,
              "value": 0.5748031496062992
            },
            {
              "number": 7,
              "ticks": 177411,
              "time": 189.54184673125,
              "value": 0.5748031496062992
            },
            {
              "number": 7,
              "ticks": 177461,
              "time": 189.59526558541666,
              "value": 0.5748031496062992
            },
            {
              "number": 7,
              "ticks": 177511,
              "time": 189.64868443958335,
              "value": 0.5669291338582677
            },
            {
              "number": 7,
              "ticks": 177562,
              "time": 189.70317167083334,
              "value": 0.5669291338582677
            },
            {
              "number": 7,
              "ticks": 177612,
              "time": 189.75659052499998,
              "value": 0.5669291338582677
            },
            {
              "number": 7,
              "ticks": 177662,
              "time": 189.81000937916664,
              "value": 0.5669291338582677
            },
            {
              "number": 7,
              "ticks": 177712,
              "time": 189.86342823333334,
              "value": 0.5669291338582677
            },
            {
              "number": 7,
              "ticks": 177763,
              "time": 189.91791546458333,
              "value": 0.5669291338582677
            },
            {
              "number": 7,
              "ticks": 177813,
              "time": 189.97133431875,
              "value": 0.5669291338582677
            },
            {
              "number": 7,
              "ticks": 177863,
              "time": 190.02475317291666,
              "value": 0.5669291338582677
            },
            {
              "number": 7,
              "ticks": 177913,
              "time": 190.07817202708333,
              "value": 0.5669291338582677
            },
            {
              "number": 7,
              "ticks": 177964,
              "time": 190.13265925833332,
              "value": 0.5669291338582677
            },
            {
              "number": 7,
              "ticks": 178014,
              "time": 190.18607811249998,
              "value": 0.5669291338582677
            },
            {
              "number": 7,
              "ticks": 178064,
              "time": 190.23949696666665,
              "value": 0.5669291338582677
            },
            {
              "number": 7,
              "ticks": 178114,
              "time": 190.29291582083331,
              "value": 0.5669291338582677
            },
            {
              "number": 7,
              "ticks": 178165,
              "time": 190.3474030520833,
              "value": 0.5669291338582677
            },
            {
              "number": 7,
              "ticks": 178215,
              "time": 190.40082190625,
              "value": 0.5669291338582677
            },
            {
              "number": 7,
              "ticks": 178265,
              "time": 190.45424076041667,
              "value": 0.5669291338582677
            },
            {
              "number": 7,
              "ticks": 178315,
              "time": 190.5076596145833,
              "value": 0.5669291338582677
            },
            {
              "number": 7,
              "ticks": 178366,
              "time": 190.56214684583333,
              "value": 0.5669291338582677
            },
            {
              "number": 7,
              "ticks": 178416,
              "time": 190.6155657,
              "value": 0.5669291338582677
            },
            {
              "number": 7,
              "ticks": 178466,
              "time": 190.66898455416666,
              "value": 0.5669291338582677
            },
            {
              "number": 7,
              "ticks": 178516,
              "time": 190.72240340833335,
              "value": 0.5669291338582677
            },
            {
              "number": 7,
              "ticks": 178567,
              "time": 190.77689063958334,
              "value": 0.5669291338582677
            },
            {
              "number": 7,
              "ticks": 178617,
              "time": 190.83030949374998,
              "value": 0.5669291338582677
            },
            {
              "number": 7,
              "ticks": 178667,
              "time": 190.88372834791664,
              "value": 0.5669291338582677
            },
            {
              "number": 7,
              "ticks": 178717,
              "time": 190.93714720208334,
              "value": 0.5669291338582677
            },
            {
              "number": 7,
              "ticks": 178768,
              "time": 190.99163443333333,
              "value": 0.5669291338582677
            },
            {
              "number": 7,
              "ticks": 178818,
              "time": 191.0450532875,
              "value": 0.5669291338582677
            },
            {
              "number": 7,
              "ticks": 178868,
              "time": 191.09847214166666,
              "value": 0.5669291338582677
            },
            {
              "number": 7,
              "ticks": 178918,
              "time": 191.15189099583333,
              "value": 0.5669291338582677
            },
            {
              "number": 7,
              "ticks": 178969,
              "time": 191.20637822708332,
              "value": 0.5669291338582677
            },
            {
              "number": 7,
              "ticks": 179019,
              "time": 191.25979708124999,
              "value": 0.5669291338582677
            },
            {
              "number": 7,
              "ticks": 179069,
              "time": 191.31321593541665,
              "value": 0.5669291338582677
            },
            {
              "number": 7,
              "ticks": 179119,
              "time": 191.36663478958332,
              "value": 0.5590551181102362
            },
            {
              "number": 7,
              "ticks": 179170,
              "time": 191.4211220208333,
              "value": 0.5590551181102362
            },
            {
              "number": 7,
              "ticks": 179220,
              "time": 191.474540875,
              "value": 0.5590551181102362
            },
            {
              "number": 7,
              "ticks": 179270,
              "time": 191.52795972916667,
              "value": 0.5590551181102362
            },
            {
              "number": 7,
              "ticks": 179320,
              "time": 191.5813785833333,
              "value": 0.5590551181102362
            },
            {
              "number": 7,
              "ticks": 179371,
              "time": 191.63586581458333,
              "value": 0.5590551181102362
            },
            {
              "number": 7,
              "ticks": 179421,
              "time": 191.68928466875,
              "value": 0.5590551181102362
            },
            {
              "number": 7,
              "ticks": 179471,
              "time": 191.74270352291666,
              "value": 0.5590551181102362
            },
            {
              "number": 7,
              "ticks": 179521,
              "time": 191.79612237708335,
              "value": 0.5590551181102362
            },
            {
              "number": 7,
              "ticks": 179572,
              "time": 191.85060960833334,
              "value": 0.5590551181102362
            },
            {
              "number": 7,
              "ticks": 179622,
              "time": 191.90402846249998,
              "value": 0.5590551181102362
            },
            {
              "number": 7,
              "ticks": 179672,
              "time": 191.95744731666665,
              "value": 0.5590551181102362
            },
            {
              "number": 7,
              "ticks": 179722,
              "time": 192.01086617083334,
              "value": 0.5590551181102362
            },
            {
              "number": 7,
              "ticks": 179773,
              "time": 192.06535340208333,
              "value": 0.5590551181102362
            },
            {
              "number": 7,
              "ticks": 179823,
              "time": 192.11877225625,
              "value": 0.5590551181102362
            },
            {
              "number": 7,
              "ticks": 179873,
              "time": 192.17219111041666,
              "value": 0.5590551181102362
            },
            {
              "number": 7,
              "ticks": 179923,
              "time": 192.22560996458333,
              "value": 0.5590551181102362
            },
            {
              "number": 7,
              "ticks": 179974,
              "time": 192.28009719583332,
              "value": 0.5590551181102362
            },
            {
              "number": 7,
              "ticks": 180024,
              "time": 192.33351605,
              "value": 0.5590551181102362
            },
            {
              "number": 7,
              "ticks": 180074,
              "time": 192.38693490416665,
              "value": 0.5590551181102362
            },
            {
              "number": 7,
              "ticks": 180124,
              "time": 192.44035375833332,
              "value": 0.5590551181102362
            },
            {
              "number": 7,
              "ticks": 180175,
              "time": 192.4948409895833,
              "value": 0.5590551181102362
            },
            {
              "number": 7,
              "ticks": 180225,
              "time": 192.54825984375,
              "value": 0.5590551181102362
            },
            {
              "number": 7,
              "ticks": 180275,
              "time": 192.60167869791667,
              "value": 0.5590551181102362
            },
            {
              "number": 7,
              "ticks": 180325,
              "time": 192.6550975520833,
              "value": 0.5590551181102362
            },
            {
              "number": 7,
              "ticks": 180376,
              "time": 192.70958478333333,
              "value": 0.5590551181102362
            },
            {
              "number": 7,
              "ticks": 180426,
              "time": 192.7630036375,
              "value": 0.5590551181102362
            },
            {
              "number": 7,
              "ticks": 180476,
              "time": 192.81642249166666,
              "value": 0.5590551181102362
            },
            {
              "number": 7,
              "ticks": 180526,
              "time": 192.86984134583332,
              "value": 0.5590551181102362
            },
            {
              "number": 7,
              "ticks": 180577,
              "time": 192.92432857708334,
              "value": 0.5590551181102362
            },
            {
              "number": 7,
              "ticks": 180627,
              "time": 192.97774743124998,
              "value": 0.5590551181102362
            },
            {
              "number": 7,
              "ticks": 180677,
              "time": 193.03116628541665,
              "value": 0.5590551181102362
            },
            {
              "number": 7,
              "ticks": 180727,
              "time": 193.08458513958334,
              "value": 0.5511811023622047
            },
            {
              "number": 7,
              "ticks": 180778,
              "time": 193.13907237083333,
              "value": 0.5511811023622047
            },
            {
              "number": 7,
              "ticks": 180828,
              "time": 193.192491225,
              "value": 0.5511811023622047
            },
            {
              "number": 7,
              "ticks": 180878,
              "time": 193.24591007916663,
              "value": 0.5511811023622047
            },
            {
              "number": 7,
              "ticks": 180928,
              "time": 193.29932893333333,
              "value": 0.5511811023622047
            },
            {
              "number": 7,
              "ticks": 180979,
              "time": 193.35381616458332,
              "value": 0.5511811023622047
            },
            {
              "number": 7,
              "ticks": 181029,
              "time": 193.40723501875,
              "value": 0.5511811023622047
            },
            {
              "number": 7,
              "ticks": 181079,
              "time": 193.46065387291665,
              "value": 0.5511811023622047
            },
            {
              "number": 7,
              "ticks": 181129,
              "time": 193.51407272708332,
              "value": 0.5511811023622047
            },
            {
              "number": 7,
              "ticks": 181180,
              "time": 193.5685599583333,
              "value": 0.5511811023622047
            },
            {
              "number": 7,
              "ticks": 181230,
              "time": 193.62197881249998,
              "value": 0.5511811023622047
            },
            {
              "number": 7,
              "ticks": 181280,
              "time": 193.67539766666667,
              "value": 0.5511811023622047
            },
            {
              "number": 7,
              "ticks": 181330,
              "time": 193.7288165208333,
              "value": 0.5511811023622047
            },
            {
              "number": 7,
              "ticks": 181381,
              "time": 193.78330375208333,
              "value": 0.5511811023622047
            },
            {
              "number": 7,
              "ticks": 181431,
              "time": 193.83672260625,
              "value": 0.5511811023622047
            },
            {
              "number": 7,
              "ticks": 181481,
              "time": 193.89014146041666,
              "value": 0.5511811023622047
            },
            {
              "number": 7,
              "ticks": 181531,
              "time": 193.94356031458332,
              "value": 0.5511811023622047
            },
            {
              "number": 7,
              "ticks": 181582,
              "time": 193.99804754583334,
              "value": 0.5511811023622047
            },
            {
              "number": 7,
              "ticks": 181632,
              "time": 194.05146639999998,
              "value": 0.5511811023622047
            },
            {
              "number": 7,
              "ticks": 181682,
              "time": 194.10488525416665,
              "value": 0.5511811023622047
            },
            {
              "number": 7,
              "ticks": 181732,
              "time": 194.15830410833334,
              "value": 0.5511811023622047
            },
            {
              "number": 7,
              "ticks": 181783,
              "time": 194.21279133958333,
              "value": 0.5511811023622047
            },
            {
              "number": 7,
              "ticks": 181833,
              "time": 194.26621019375,
              "value": 0.5511811023622047
            },
            {
              "number": 7,
              "ticks": 181883,
              "time": 194.31962904791664,
              "value": 0.5511811023622047
            },
            {
              "number": 7,
              "ticks": 181934,
              "time": 194.37411627916663,
              "value": 0.5511811023622047
            },
            {
              "number": 7,
              "ticks": 181984,
              "time": 194.42753513333332,
              "value": 0.5511811023622047
            },
            {
              "number": 7,
              "ticks": 182034,
              "time": 194.4809539875,
              "value": 0.5511811023622047
            },
            {
              "number": 7,
              "ticks": 182084,
              "time": 194.53437284166665,
              "value": 0.5511811023622047
            },
            {
              "number": 7,
              "ticks": 196450,
              "time": 209.8826780208333,
              "value": 0.7244094488188977
            },
            {
              "number": 7,
              "ticks": 196459,
              "time": 209.89229341458332,
              "value": 0.7244094488188977
            },
            {
              "number": 7,
              "ticks": 196469,
              "time": 209.90297718541663,
              "value": 0.7244094488188977
            },
            {
              "number": 7,
              "ticks": 196478,
              "time": 209.91259257916664,
              "value": 0.7244094488188977
            },
            {
              "number": 7,
              "ticks": 196489,
              "time": 209.9243447270833,
              "value": 0.7244094488188977
            },
            {
              "number": 7,
              "ticks": 196498,
              "time": 209.93396012083332,
              "value": 0.7244094488188977
            },
            {
              "number": 7,
              "ticks": 196507,
              "time": 209.94357551458333,
              "value": 0.7244094488188977
            },
            {
              "number": 7,
              "ticks": 196517,
              "time": 209.95425928541664,
              "value": 0.7244094488188977
            },
            {
              "number": 7,
              "ticks": 196527,
              "time": 209.96494305624998,
              "value": 0.7244094488188977
            },
            {
              "number": 7,
              "ticks": 196536,
              "time": 209.97455845,
              "value": 0.7244094488188977
            },
            {
              "number": 7,
              "ticks": 196546,
              "time": 209.98524222083333,
              "value": 0.7244094488188977
            },
            {
              "number": 7,
              "ticks": 196555,
              "time": 209.9948576145833,
              "value": 0.7244094488188977
            },
            {
              "number": 7,
              "ticks": 196565,
              "time": 210.00554138541668,
              "value": 0.7244094488188977
            },
            {
              "number": 7,
              "ticks": 196565,
              "time": 210.00554138541668,
              "value": 0.7322834645669292
            },
            {
              "number": 7,
              "ticks": 196587,
              "time": 210.02904568124998,
              "value": 0.7244094488188977
            },
            {
              "number": 7,
              "ticks": 196610,
              "time": 210.05361835416667,
              "value": 0.7244094488188977
            },
            {
              "number": 7,
              "ticks": 196632,
              "time": 210.07712264999998,
              "value": 0.7244094488188977
            },
            {
              "number": 7,
              "ticks": 196654,
              "time": 210.1006269458333,
              "value": 0.7244094488188977
            },
            {
              "number": 7,
              "ticks": 196676,
              "time": 210.12413124166665,
              "value": 0.7244094488188977
            },
            {
              "number": 7,
              "ticks": 196699,
              "time": 210.1487039145833,
              "value": 0.7244094488188977
            },
            {
              "number": 7,
              "ticks": 196721,
              "time": 210.17220821041667,
              "value": 0.7244094488188977
            },
            {
              "number": 7,
              "ticks": 196743,
              "time": 210.19571250625,
              "value": 0.7244094488188977
            },
            {
              "number": 7,
              "ticks": 196765,
              "time": 210.2192168020833,
              "value": 0.7244094488188977
            },
            {
              "number": 7,
              "ticks": 196788,
              "time": 210.243789475,
              "value": 0.7244094488188977
            },
            {
              "number": 7,
              "ticks": 196810,
              "time": 210.2672937708333,
              "value": 0.7244094488188977
            },
            {
              "number": 7,
              "ticks": 196832,
              "time": 210.29079806666664,
              "value": 0.7244094488188977
            },
            {
              "number": 7,
              "ticks": 196854,
              "time": 210.3143023625,
              "value": 0.7244094488188977
            },
            {
              "number": 7,
              "ticks": 196877,
              "time": 210.33887503541666,
              "value": 0.7244094488188977
            },
            {
              "number": 7,
              "ticks": 196899,
              "time": 210.36237933125,
              "value": 0.7244094488188977
            },
            {
              "number": 7,
              "ticks": 196921,
              "time": 210.38588362708333,
              "value": 0.7244094488188977
            },
            {
              "number": 7,
              "ticks": 196943,
              "time": 210.40938792291664,
              "value": 0.7244094488188977
            },
            {
              "number": 7,
              "ticks": 196966,
              "time": 210.43396059583333,
              "value": 0.7244094488188977
            },
            {
              "number": 7,
              "ticks": 196988,
              "time": 210.45746489166666,
              "value": 0.7244094488188977
            },
            {
              "number": 7,
              "ticks": 197010,
              "time": 210.4809691875,
              "value": 0.7244094488188977
            },
            {
              "number": 7,
              "ticks": 197033,
              "time": 210.50554186041666,
              "value": 0.7244094488188977
            },
            {
              "number": 7,
              "ticks": 197055,
              "time": 210.52904615625,
              "value": 0.7244094488188977
            },
            {
              "number": 7,
              "ticks": 197077,
              "time": 210.55255045208332,
              "value": 0.7244094488188977
            },
            {
              "number": 7,
              "ticks": 197099,
              "time": 210.57605474791663,
              "value": 0.7244094488188977
            },
            {
              "number": 7,
              "ticks": 197122,
              "time": 210.60062742083332,
              "value": 0.7244094488188977
            },
            {
              "number": 7,
              "ticks": 197144,
              "time": 210.62413171666665,
              "value": 0.7244094488188977
            },
            {
              "number": 7,
              "ticks": 197166,
              "time": 210.6476360125,
              "value": 0.7244094488188977
            },
            {
              "number": 7,
              "ticks": 197188,
              "time": 210.67114030833332,
              "value": 0.7244094488188977
            },
            {
              "number": 7,
              "ticks": 197211,
              "time": 210.69571298124998,
              "value": 0.7244094488188977
            },
            {
              "number": 7,
              "ticks": 197233,
              "time": 210.71921727708332,
              "value": 0.7244094488188977
            },
            {
              "number": 7,
              "ticks": 197255,
              "time": 210.74272157291665,
              "value": 0.7244094488188977
            },
            {
              "number": 7,
              "ticks": 197277,
              "time": 210.76622586874998,
              "value": 0.7244094488188977
            },
            {
              "number": 7,
              "ticks": 197300,
              "time": 210.79079854166667,
              "value": 0.7165354330708661
            },
            {
              "number": 7,
              "ticks": 197322,
              "time": 210.81430283749998,
              "value": 0.7165354330708661
            },
            {
              "number": 7,
              "ticks": 197344,
              "time": 210.8378071333333,
              "value": 0.7165354330708661
            },
            {
              "number": 7,
              "ticks": 197366,
              "time": 210.86131142916665,
              "value": 0.7165354330708661
            },
            {
              "number": 7,
              "ticks": 197389,
              "time": 210.8858841020833,
              "value": 0.7165354330708661
            },
            {
              "number": 7,
              "ticks": 197411,
              "time": 210.90938839791667,
              "value": 0.7165354330708661
            },
            {
              "number": 7,
              "ticks": 197433,
              "time": 210.93289269375,
              "value": 0.7165354330708661
            },
            {
              "number": 7,
              "ticks": 197455,
              "time": 210.9563969895833,
              "value": 0.7165354330708661
            },
            {
              "number": 7,
              "ticks": 197478,
              "time": 210.9809696625,
              "value": 0.7165354330708661
            },
            {
              "number": 7,
              "ticks": 197500,
              "time": 211.0044739583333,
              "value": 0.7165354330708661
            },
            {
              "number": 7,
              "ticks": 197522,
              "time": 211.02797825416664,
              "value": 0.7165354330708661
            },
            {
              "number": 7,
              "ticks": 197545,
              "time": 211.0525509270833,
              "value": 0.7165354330708661
            },
            {
              "number": 7,
              "ticks": 197567,
              "time": 211.07605522291666,
              "value": 0.7165354330708661
            },
            {
              "number": 7,
              "ticks": 197589,
              "time": 211.09955951875,
              "value": 0.7165354330708661
            },
            {
              "number": 7,
              "ticks": 197611,
              "time": 211.12306381458333,
              "value": 0.7165354330708661
            },
            {
              "number": 7,
              "ticks": 197634,
              "time": 211.1476364875,
              "value": 0.7165354330708661
            },
            {
              "number": 7,
              "ticks": 197656,
              "time": 211.17114078333333,
              "value": 0.7165354330708661
            },
            {
              "number": 7,
              "ticks": 197678,
              "time": 211.19464507916663,
              "value": 0.7165354330708661
            },
            {
              "number": 7,
              "ticks": 197700,
              "time": 211.218149375,
              "value": 0.7165354330708661
            },
            {
              "number": 7,
              "ticks": 197723,
              "time": 211.24272204791666,
              "value": 0.7165354330708661
            },
            {
              "number": 7,
              "ticks": 197745,
              "time": 211.26622634375,
              "value": 0.7165354330708661
            },
            {
              "number": 7,
              "ticks": 197767,
              "time": 211.28973063958333,
              "value": 0.7165354330708661
            },
            {
              "number": 7,
              "ticks": 197789,
              "time": 211.31323493541663,
              "value": 0.7165354330708661
            },
            {
              "number": 7,
              "ticks": 197812,
              "time": 211.33780760833332,
              "value": 0.7165354330708661
            },
            {
              "number": 7,
              "ticks": 197834,
              "time": 211.36131190416666,
              "value": 0.7165354330708661
            },
            {
              "number": 7,
              "ticks": 197856,
              "time": 211.3848162,
              "value": 0.7165354330708661
            },
            {
              "number": 7,
              "ticks": 197878,
              "time": 211.40832049583332,
              "value": 0.7165354330708661
            },
            {
              "number": 7,
              "ticks": 197901,
              "time": 211.43289316874998,
              "value": 0.7165354330708661
            },
            {
              "number": 7,
              "ticks": 197923,
              "time": 211.45639746458332,
              "value": 0.7165354330708661
            },
            {
              "number": 7,
              "ticks": 197945,
              "time": 211.47990176041665,
              "value": 0.7165354330708661
            },
            {
              "number": 7,
              "ticks": 197968,
              "time": 211.5044744333333,
              "value": 0.7165354330708661
            },
            {
              "number": 7,
              "ticks": 197990,
              "time": 211.52797872916668,
              "value": 0.7165354330708661
            },
            {
              "number": 7,
              "ticks": 198012,
              "time": 211.55148302499998,
              "value": 0.7086614173228346
            },
            {
              "number": 7,
              "ticks": 198034,
              "time": 211.57498732083332,
              "value": 0.7086614173228346
            },
            {
              "number": 7,
              "ticks": 198057,
              "time": 211.59955999374998,
              "value": 0.7086614173228346
            },
            {
              "number": 7,
              "ticks": 198079,
              "time": 211.6230642895833,
              "value": 0.7086614173228346
            },
            {
              "number": 7,
              "ticks": 198101,
              "time": 211.64656858541665,
              "value": 0.7086614173228346
            },
            {
              "number": 7,
              "ticks": 198123,
              "time": 211.67007288125,
              "value": 0.7086614173228346
            },
            {
              "number": 7,
              "ticks": 198146,
              "time": 211.69464555416667,
              "value": 0.7086614173228346
            },
            {
              "number": 7,
              "ticks": 198168,
              "time": 211.71814985,
              "value": 0.7086614173228346
            },
            {
              "number": 7,
              "ticks": 198190,
              "time": 211.7416541458333,
              "value": 0.7086614173228346
            },
            {
              "number": 7,
              "ticks": 198212,
              "time": 211.76515844166664,
              "value": 0.7086614173228346
            },
            {
              "number": 7,
              "ticks": 198235,
              "time": 211.7897311145833,
              "value": 0.7086614173228346
            },
            {
              "number": 7,
              "ticks": 198257,
              "time": 211.81323541041667,
              "value": 0.7086614173228346
            },
            {
              "number": 7,
              "ticks": 198279,
              "time": 211.83673970625,
              "value": 0.7086614173228346
            },
            {
              "number": 7,
              "ticks": 198301,
              "time": 211.86024400208333,
              "value": 0.7086614173228346
            },
            {
              "number": 7,
              "ticks": 198324,
              "time": 211.884816675,
              "value": 0.7086614173228346
            },
            {
              "number": 7,
              "ticks": 198346,
              "time": 211.90832097083333,
              "value": 0.7086614173228346
            },
            {
              "number": 7,
              "ticks": 198368,
              "time": 211.93182526666664,
              "value": 0.7086614173228346
            },
            {
              "number": 7,
              "ticks": 198391,
              "time": 211.95639793958333,
              "value": 0.7086614173228346
            },
            {
              "number": 7,
              "ticks": 198413,
              "time": 211.97990223541666,
              "value": 0.7086614173228346
            },
            {
              "number": 7,
              "ticks": 198435,
              "time": 212.00340653125,
              "value": 0.7086614173228346
            },
            {
              "number": 7,
              "ticks": 198457,
              "time": 212.02691082708333,
              "value": 0.7086614173228346
            },
            {
              "number": 7,
              "ticks": 198480,
              "time": 212.0514835,
              "value": 0.7086614173228346
            },
            {
              "number": 7,
              "ticks": 198502,
              "time": 212.07498779583332,
              "value": 0.7086614173228346
            },
            {
              "number": 7,
              "ticks": 198524,
              "time": 212.09849209166663,
              "value": 0.7086614173228346
            },
            {
              "number": 7,
              "ticks": 198546,
              "time": 212.1219963875,
              "value": 0.7086614173228346
            },
            {
              "number": 7,
              "ticks": 198569,
              "time": 212.14656906041665,
              "value": 0.7086614173228346
            },
            {
              "number": 7,
              "ticks": 198591,
              "time": 212.17007335625,
              "value": 0.7086614173228346
            },
            {
              "number": 7,
              "ticks": 198613,
              "time": 212.19357765208332,
              "value": 0.7086614173228346
            },
            {
              "number": 7,
              "ticks": 198635,
              "time": 212.21708194791665,
              "value": 0.7086614173228346
            },
            {
              "number": 7,
              "ticks": 198658,
              "time": 212.24165462083332,
              "value": 0.7086614173228346
            },
            {
              "number": 7,
              "ticks": 198680,
              "time": 212.26515891666668,
              "value": 0.7086614173228346
            },
            {
              "number": 7,
              "ticks": 198702,
              "time": 212.28866321249998,
              "value": 0.7086614173228346
            },
            {
              "number": 7,
              "ticks": 198724,
              "time": 212.31216750833332,
              "value": 0.7007874015748031
            },
            {
              "number": 7,
              "ticks": 198747,
              "time": 212.33674018124998,
              "value": 0.7007874015748031
            },
            {
              "number": 7,
              "ticks": 198769,
              "time": 212.3602444770833,
              "value": 0.7007874015748031
            },
            {
              "number": 7,
              "ticks": 198791,
              "time": 212.38374877291665,
              "value": 0.7007874015748031
            },
            {
              "number": 7,
              "ticks": 198813,
              "time": 212.40725306875,
              "value": 0.7007874015748031
            },
            {
              "number": 7,
              "ticks": 198836,
              "time": 212.43182574166667,
              "value": 0.7007874015748031
            },
            {
              "number": 7,
              "ticks": 198858,
              "time": 212.4553300375,
              "value": 0.7007874015748031
            },
            {
              "number": 7,
              "ticks": 198880,
              "time": 212.4788343333333,
              "value": 0.7007874015748031
            },
            {
              "number": 7,
              "ticks": 198903,
              "time": 212.50340700625,
              "value": 0.7007874015748031
            },
            {
              "number": 7,
              "ticks": 198925,
              "time": 212.5269113020833,
              "value": 0.7007874015748031
            },
            {
              "number": 7,
              "ticks": 198947,
              "time": 212.55041559791664,
              "value": 0.7007874015748031
            },
            {
              "number": 7,
              "ticks": 198969,
              "time": 212.57391989375,
              "value": 0.7007874015748031
            },
            {
              "number": 7,
              "ticks": 198992,
              "time": 212.59849256666666,
              "value": 0.7007874015748031
            },
            {
              "number": 7,
              "ticks": 199014,
              "time": 212.6219968625,
              "value": 0.7007874015748031
            },
            {
              "number": 7,
              "ticks": 199036,
              "time": 212.64550115833333,
              "value": 0.7007874015748031
            },
            {
              "number": 7,
              "ticks": 199058,
              "time": 212.66900545416664,
              "value": 0.7007874015748031
            },
            {
              "number": 7,
              "ticks": 199081,
              "time": 212.69357812708333,
              "value": 0.7007874015748031
            },
            {
              "number": 7,
              "ticks": 199103,
              "time": 212.71708242291663,
              "value": 0.7007874015748031
            },
            {
              "number": 7,
              "ticks": 199125,
              "time": 212.74058671875,
              "value": 0.7007874015748031
            },
            {
              "number": 7,
              "ticks": 199147,
              "time": 212.76409101458333,
              "value": 0.7007874015748031
            },
            {
              "number": 7,
              "ticks": 199170,
              "time": 212.7886636875,
              "value": 0.7007874015748031
            },
            {
              "number": 7,
              "ticks": 199192,
              "time": 212.81216798333332,
              "value": 0.7007874015748031
            },
            {
              "number": 7,
              "ticks": 199214,
              "time": 212.83567227916663,
              "value": 0.7007874015748031
            },
            {
              "number": 7,
              "ticks": 199236,
              "time": 212.859176575,
              "value": 0.7007874015748031
            },
            {
              "number": 7,
              "ticks": 199259,
              "time": 212.88374924791665,
              "value": 0.7007874015748031
            },
            {
              "number": 7,
              "ticks": 199281,
              "time": 212.90725354375,
              "value": 0.7007874015748031
            },
            {
              "number": 7,
              "ticks": 199303,
              "time": 212.93075783958332,
              "value": 0.7007874015748031
            },
            {
              "number": 7,
              "ticks": 199326,
              "time": 212.95533051249998,
              "value": 0.7007874015748031
            },
            {
              "number": 7,
              "ticks": 199348,
              "time": 212.97883480833332,
              "value": 0.7007874015748031
            },
            {
              "number": 7,
              "ticks": 199370,
              "time": 213.00233910416665,
              "value": 0.7007874015748031
            },
            {
              "number": 7,
              "ticks": 199392,
              "time": 213.02584339999999,
              "value": 0.7007874015748031
            },
            {
              "number": 7,
              "ticks": 199415,
              "time": 213.05041607291668,
              "value": 0.7007874015748031
            },
            {
              "number": 7,
              "ticks": 199437,
              "time": 213.07392036874998,
              "value": 0.6929133858267716
            },
            {
              "number": 7,
              "ticks": 199459,
              "time": 213.09742466458331,
              "value": 0.6929133858267716
            },
            {
              "number": 7,
              "ticks": 199481,
              "time": 213.12092896041665,
              "value": 0.6929133858267716
            },
            {
              "number": 7,
              "ticks": 199504,
              "time": 213.1455016333333,
              "value": 0.6929133858267716
            },
            {
              "number": 7,
              "ticks": 199526,
              "time": 213.16900592916667,
              "value": 0.6929133858267716
            },
            {
              "number": 7,
              "ticks": 199548,
              "time": 213.192510225,
              "value": 0.6929133858267716
            },
            {
              "number": 7,
              "ticks": 199570,
              "time": 213.2160145208333,
              "value": 0.6929133858267716
            },
            {
              "number": 7,
              "ticks": 199593,
              "time": 213.24058719375,
              "value": 0.6929133858267716
            },
            {
              "number": 7,
              "ticks": 199615,
              "time": 213.2640914895833,
              "value": 0.6929133858267716
            },
            {
              "number": 7,
              "ticks": 199637,
              "time": 213.28759578541664,
              "value": 0.6929133858267716
            },
            {
              "number": 7,
              "ticks": 199659,
              "time": 213.31110008125,
              "value": 0.6929133858267716
            },
            {
              "number": 7,
              "ticks": 199682,
              "time": 213.33567275416667,
              "value": 0.6929133858267716
            },
            {
              "number": 7,
              "ticks": 199704,
              "time": 213.35917705,
              "value": 0.6929133858267716
            },
            {
              "number": 7,
              "ticks": 199726,
              "time": 213.38268134583333,
              "value": 0.6929133858267716
            },
            {
              "number": 7,
              "ticks": 199748,
              "time": 213.40618564166664,
              "value": 0.6929133858267716
            },
            {
              "number": 7,
              "ticks": 199771,
              "time": 213.43075831458333,
              "value": 0.6929133858267716
            },
            {
              "number": 7,
              "ticks": 199793,
              "time": 213.45426261041663,
              "value": 0.6929133858267716
            },
            {
              "number": 7,
              "ticks": 199815,
              "time": 213.47776690625,
              "value": 0.6929133858267716
            },
            {
              "number": 7,
              "ticks": 199838,
              "time": 213.50233957916666,
              "value": 0.6929133858267716
            },
            {
              "number": 7,
              "ticks": 199860,
              "time": 213.525843875,
              "value": 0.6929133858267716
            },
            {
              "number": 7,
              "ticks": 199882,
              "time": 213.54934817083333,
              "value": 0.6929133858267716
            },
            {
              "number": 7,
              "ticks": 199904,
              "time": 213.57285246666663,
              "value": 0.6929133858267716
            },
            {
              "number": 7,
              "ticks": 199927,
              "time": 213.59742513958332,
              "value": 0.6929133858267716
            },
            {
              "number": 7,
              "ticks": 199949,
              "time": 213.62092943541663,
              "value": 0.6929133858267716
            },
            {
              "number": 7,
              "ticks": 199971,
              "time": 213.64443373125,
              "value": 0.6929133858267716
            },
            {
              "number": 7,
              "ticks": 199993,
              "time": 213.66793802708332,
              "value": 0.6929133858267716
            },
            {
              "number": 7,
              "ticks": 200016,
              "time": 213.69251069999999,
              "value": 0.6929133858267716
            },
            {
              "number": 7,
              "ticks": 200038,
              "time": 213.71601499583332,
              "value": 0.6929133858267716
            },
            {
              "number": 7,
              "ticks": 200060,
              "time": 213.73951929166665,
              "value": 0.6929133858267716
            },
            {
              "number": 7,
              "ticks": 200082,
              "time": 213.7630235875,
              "value": 0.6929133858267716
            },
            {
              "number": 7,
              "ticks": 200105,
              "time": 213.78759626041668,
              "value": 0.6929133858267716
            },
            {
              "number": 7,
              "ticks": 200127,
              "time": 213.81110055624998,
              "value": 0.6929133858267716
            },
            {
              "number": 7,
              "ticks": 200149,
              "time": 213.83460485208332,
              "value": 0.6850393700787402
            },
            {
              "number": 7,
              "ticks": 200171,
              "time": 213.85810914791665,
              "value": 0.6850393700787402
            },
            {
              "number": 7,
              "ticks": 200194,
              "time": 213.8826818208333,
              "value": 0.6850393700787402
            },
            {
              "number": 7,
              "ticks": 200216,
              "time": 213.90618611666665,
              "value": 0.6850393700787402
            },
            {
              "number": 7,
              "ticks": 200238,
              "time": 213.9296904125,
              "value": 0.6850393700787402
            },
            {
              "number": 7,
              "ticks": 200261,
              "time": 213.95426308541667,
              "value": 0.6850393700787402
            },
            {
              "number": 7,
              "ticks": 200283,
              "time": 213.97776738125,
              "value": 0.6850393700787402
            },
            {
              "number": 7,
              "ticks": 200305,
              "time": 214.0012716770833,
              "value": 0.6850393700787402
            },
            {
              "number": 7,
              "ticks": 200327,
              "time": 214.02477597291664,
              "value": 0.6850393700787402
            },
            {
              "number": 7,
              "ticks": 200350,
              "time": 214.0493486458333,
              "value": 0.6850393700787402
            },
            {
              "number": 7,
              "ticks": 200372,
              "time": 214.07285294166664,
              "value": 0.6850393700787402
            },
            {
              "number": 7,
              "ticks": 200394,
              "time": 214.0963572375,
              "value": 0.6850393700787402
            },
            {
              "number": 7,
              "ticks": 200416,
              "time": 214.11986153333334,
              "value": 0.6850393700787402
            },
            {
              "number": 7,
              "ticks": 200439,
              "time": 214.14443420625,
              "value": 0.6850393700787402
            },
            {
              "number": 7,
              "ticks": 200461,
              "time": 214.16793850208333,
              "value": 0.6850393700787402
            },
            {
              "number": 7,
              "ticks": 200483,
              "time": 214.19144279791664,
              "value": 0.6850393700787402
            },
            {
              "number": 7,
              "ticks": 200505,
              "time": 214.21494709375,
              "value": 0.6850393700787402
            },
            {
              "number": 7,
              "ticks": 200528,
              "time": 214.23951976666666,
              "value": 0.6850393700787402
            },
            {
              "number": 7,
              "ticks": 200550,
              "time": 214.2630240625,
              "value": 0.6850393700787402
            },
            {
              "number": 7,
              "ticks": 200572,
              "time": 214.28652835833333,
              "value": 0.6850393700787402
            },
            {
              "number": 7,
              "ticks": 200594,
              "time": 214.31003265416663,
              "value": 0.6850393700787402
            },
            {
              "number": 7,
              "ticks": 200617,
              "time": 214.33460532708332,
              "value": 0.6850393700787402
            },
            {
              "number": 7,
              "ticks": 200639,
              "time": 214.35810962291663,
              "value": 0.6850393700787402
            },
            {
              "number": 7,
              "ticks": 200661,
              "time": 214.38161391875,
              "value": 0.6850393700787402
            },
            {
              "number": 7,
              "ticks": 200684,
              "time": 214.40618659166665,
              "value": 0.6850393700787402
            },
            {
              "number": 7,
              "ticks": 200706,
              "time": 214.4296908875,
              "value": 0.6850393700787402
            },
            {
              "number": 7,
              "ticks": 200728,
              "time": 214.45319518333332,
              "value": 0.6850393700787402
            },
            {
              "number": 7,
              "ticks": 200750,
              "time": 214.47669947916665,
              "value": 0.6850393700787402
            },
            {
              "number": 7,
              "ticks": 200773,
              "time": 214.50127215208332,
              "value": 0.6850393700787402
            },
            {
              "number": 7,
              "ticks": 200795,
              "time": 214.52477644791665,
              "value": 0.6850393700787402
            },
            {
              "number": 7,
              "ticks": 200817,
              "time": 214.54828074374998,
              "value": 0.6850393700787402
            },
            {
              "number": 7,
              "ticks": 200839,
              "time": 214.57178503958332,
              "value": 0.6850393700787402
            },
            {
              "number": 7,
              "ticks": 200862,
              "time": 214.59635771249998,
              "value": 0.6771653543307087
            },
            {
              "number": 7,
              "ticks": 200884,
              "time": 214.6198620083333,
              "value": 0.6771653543307087
            },
            {
              "number": 7,
              "ticks": 200906,
              "time": 214.64336630416665,
              "value": 0.6771653543307087
            },
            {
              "number": 7,
              "ticks": 200928,
              "time": 214.6668706,
              "value": 0.6771653543307087
            },
            {
              "number": 7,
              "ticks": 200951,
              "time": 214.69144327291667,
              "value": 0.6771653543307087
            },
            {
              "number": 7,
              "ticks": 200973,
              "time": 214.71494756875,
              "value": 0.6771653543307087
            },
            {
              "number": 7,
              "ticks": 200995,
              "time": 214.7384518645833,
              "value": 0.6771653543307087
            },
            {
              "number": 7,
              "ticks": 201017,
              "time": 214.76195616041664,
              "value": 0.6771653543307087
            },
            {
              "number": 7,
              "ticks": 201040,
              "time": 214.7865288333333,
              "value": 0.6771653543307087
            },
            {
              "number": 7,
              "ticks": 201062,
              "time": 214.81003312916664,
              "value": 0.6771653543307087
            },
            {
              "number": 7,
              "ticks": 201084,
              "time": 214.833537425,
              "value": 0.6771653543307087
            },
            {
              "number": 7,
              "ticks": 201106,
              "time": 214.85704172083334,
              "value": 0.6771653543307087
            },
            {
              "number": 7,
              "ticks": 201129,
              "time": 214.88161439375,
              "value": 0.6771653543307087
            },
            {
              "number": 7,
              "ticks": 201151,
              "time": 214.90511868958333,
              "value": 0.6771653543307087
            },
            {
              "number": 7,
              "ticks": 201173,
              "time": 214.92862298541664,
              "value": 0.6771653543307087
            },
            {
              "number": 7,
              "ticks": 201196,
              "time": 214.95319565833333,
              "value": 0.6771653543307087
            },
            {
              "number": 7,
              "ticks": 201218,
              "time": 214.97669995416663,
              "value": 0.6771653543307087
            },
            {
              "number": 7,
              "ticks": 201240,
              "time": 215.00020425,
              "value": 0.6771653543307087
            },
            {
              "number": 7,
              "ticks": 201262,
              "time": 215.02370854583333,
              "value": 0.6771653543307087
            },
            {
              "number": 7,
              "ticks": 201285,
              "time": 215.04828121875,
              "value": 0.6771653543307087
            },
            {
              "number": 7,
              "ticks": 201307,
              "time": 215.07178551458333,
              "value": 0.6771653543307087
            },
            {
              "number": 7,
              "ticks": 201329,
              "time": 215.09528981041663,
              "value": 0.6771653543307087
            },
            {
              "number": 7,
              "ticks": 201351,
              "time": 215.11879410625,
              "value": 0.6771653543307087
            },
            {
              "number": 7,
              "ticks": 201374,
              "time": 215.14336677916666,
              "value": 0.6771653543307087
            },
            {
              "number": 7,
              "ticks": 201396,
              "time": 215.166871075,
              "value": 0.6771653543307087
            },
            {
              "number": 7,
              "ticks": 201418,
              "time": 215.19037537083332,
              "value": 0.6771653543307087
            },
            {
              "number": 7,
              "ticks": 201440,
              "time": 215.21387966666666,
              "value": 0.6771653543307087
            },
            {
              "number": 7,
              "ticks": 201463,
              "time": 215.23845233958332,
              "value": 0.6771653543307087
            },
            {
              "number": 7,
              "ticks": 201485,
              "time": 215.26195663541665,
              "value": 0.6771653543307087
            },
            {
              "number": 7,
              "ticks": 201507,
              "time": 215.28546093125,
              "value": 0.6771653543307087
            },
            {
              "number": 7,
              "ticks": 201529,
              "time": 215.30896522708332,
              "value": 0.6771653543307087
            },
            {
              "number": 7,
              "ticks": 201552,
              "time": 215.33353789999998,
              "value": 0.6771653543307087
            },
            {
              "number": 7,
              "ticks": 201574,
              "time": 215.35704219583332,
              "value": 0.6692913385826772
            },
            {
              "number": 7,
              "ticks": 201596,
              "time": 215.38054649166665,
              "value": 0.6692913385826772
            },
            {
              "number": 7,
              "ticks": 201619,
              "time": 215.4051191645833,
              "value": 0.6692913385826772
            },
            {
              "number": 7,
              "ticks": 201641,
              "time": 215.42862346041665,
              "value": 0.6692913385826772
            },
            {
              "number": 7,
              "ticks": 201663,
              "time": 215.45212775625,
              "value": 0.6692913385826772
            },
            {
              "number": 7,
              "ticks": 201685,
              "time": 215.4756320520833,
              "value": 0.6692913385826772
            },
            {
              "number": 7,
              "ticks": 201708,
              "time": 215.500204725,
              "value": 0.6692913385826772
            },
            {
              "number": 7,
              "ticks": 201730,
              "time": 215.5237090208333,
              "value": 0.6692913385826772
            },
            {
              "number": 7,
              "ticks": 201752,
              "time": 215.54721331666664,
              "value": 0.6692913385826772
            },
            {
              "number": 7,
              "ticks": 201774,
              "time": 215.5707176125,
              "value": 0.6692913385826772
            },
            {
              "number": 7,
              "ticks": 201797,
              "time": 215.59529028541667,
              "value": 0.6692913385826772
            },
            {
              "number": 7,
              "ticks": 201819,
              "time": 215.61879458125,
              "value": 0.6692913385826772
            },
            {
              "number": 7,
              "ticks": 201841,
              "time": 215.64229887708333,
              "value": 0.6692913385826772
            },
            {
              "number": 7,
              "ticks": 201863,
              "time": 215.66580317291664,
              "value": 0.6692913385826772
            },
            {
              "number": 7,
              "ticks": 201886,
              "time": 215.69037584583333,
              "value": 0.6692913385826772
            },
            {
              "number": 7,
              "ticks": 201908,
              "time": 215.71388014166664,
              "value": 0.6692913385826772
            },
            {
              "number": 7,
              "ticks": 201930,
              "time": 215.7373844375,
              "value": 0.6692913385826772
            },
            {
              "number": 7,
              "ticks": 201952,
              "time": 215.76088873333333,
              "value": 0.6692913385826772
            },
            {
              "number": 7,
              "ticks": 201975,
              "time": 215.78546140625,
              "value": 0.6692913385826772
            },
            {
              "number": 7,
              "ticks": 201997,
              "time": 215.80896570208333,
              "value": 0.6692913385826772
            },
            {
              "number": 7,
              "ticks": 202019,
              "time": 215.83246999791663,
              "value": 0.6692913385826772
            },
            {
              "number": 7,
              "ticks": 202042,
              "time": 215.85704267083332,
              "value": 0.6692913385826772
            },
            {
              "number": 7,
              "ticks": 202064,
              "time": 215.88054696666663,
              "value": 0.6692913385826772
            },
            {
              "number": 7,
              "ticks": 202086,
              "time": 215.9040512625,
              "value": 0.6692913385826772
            },
            {
              "number": 7,
              "ticks": 202108,
              "time": 215.92755555833332,
              "value": 0.6692913385826772
            },
            {
              "number": 7,
              "ticks": 202131,
              "time": 215.95212823125,
              "value": 0.6692913385826772
            },
            {
              "number": 7,
              "ticks": 202153,
              "time": 215.97563252708332,
              "value": 0.6692913385826772
            },
            {
              "number": 7,
              "ticks": 202175,
              "time": 215.99913682291665,
              "value": 0.6692913385826772
            },
            {
              "number": 7,
              "ticks": 202197,
              "time": 216.02264111875,
              "value": 0.6692913385826772
            },
            {
              "number": 7,
              "ticks": 202220,
              "time": 216.04721379166668,
              "value": 0.6692913385826772
            },
            {
              "number": 7,
              "ticks": 202242,
              "time": 216.07071808749998,
              "value": 0.6692913385826772
            },
            {
              "number": 7,
              "ticks": 202264,
              "time": 216.09422238333332,
              "value": 0.6692913385826772
            },
            {
              "number": 7,
              "ticks": 202286,
              "time": 216.11772667916665,
              "value": 0.6614173228346457
            },
            {
              "number": 7,
              "ticks": 202309,
              "time": 216.1422993520833,
              "value": 0.6614173228346457
            },
            {
              "number": 7,
              "ticks": 202331,
              "time": 216.16580364791665,
              "value": 0.6614173228346457
            },
            {
              "number": 7,
              "ticks": 202353,
              "time": 216.18930794375,
              "value": 0.6614173228346457
            },
            {
              "number": 7,
              "ticks": 202375,
              "time": 216.21281223958331,
              "value": 0.6614173228346457
            },
            {
              "number": 7,
              "ticks": 202398,
              "time": 216.2373849125,
              "value": 0.6614173228346457
            },
            {
              "number": 7,
              "ticks": 202420,
              "time": 216.2608892083333,
              "value": 0.6614173228346457
            },
            {
              "number": 7,
              "ticks": 202442,
              "time": 216.28439350416664,
              "value": 0.6614173228346457
            },
            {
              "number": 7,
              "ticks": 202464,
              "time": 216.3078978,
              "value": 0.6614173228346457
            },
            {
              "number": 7,
              "ticks": 202487,
              "time": 216.33247047291664,
              "value": 0.6614173228346457
            },
            {
              "number": 7,
              "ticks": 202509,
              "time": 216.35597476875,
              "value": 0.6614173228346457
            },
            {
              "number": 7,
              "ticks": 202531,
              "time": 216.37947906458334,
              "value": 0.6614173228346457
            },
            {
              "number": 7,
              "ticks": 202554,
              "time": 216.4040517375,
              "value": 0.6614173228346457
            },
            {
              "number": 7,
              "ticks": 202576,
              "time": 216.42755603333333,
              "value": 0.6614173228346457
            },
            {
              "number": 7,
              "ticks": 202598,
              "time": 216.45106032916664,
              "value": 0.6614173228346457
            },
            {
              "number": 7,
              "ticks": 202620,
              "time": 216.474564625,
              "value": 0.6614173228346457
            },
            {
              "number": 7,
              "ticks": 202643,
              "time": 216.49913729791663,
              "value": 0.6614173228346457
            },
            {
              "number": 7,
              "ticks": 202665,
              "time": 216.52264159375,
              "value": 0.6614173228346457
            },
            {
              "number": 7,
              "ticks": 202687,
              "time": 216.54614588958333,
              "value": 0.6614173228346457
            },
            {
              "number": 7,
              "ticks": 202709,
              "time": 216.56965018541663,
              "value": 0.6614173228346457
            },
            {
              "number": 7,
              "ticks": 202732,
              "time": 216.59422285833332,
              "value": 0.6614173228346457
            },
            {
              "number": 7,
              "ticks": 202754,
              "time": 216.61772715416663,
              "value": 0.6614173228346457
            },
            {
              "number": 7,
              "ticks": 202776,
              "time": 216.64123145,
              "value": 0.6614173228346457
            },
            {
              "number": 7,
              "ticks": 202798,
              "time": 216.66473574583333,
              "value": 0.6614173228346457
            },
            {
              "number": 7,
              "ticks": 202821,
              "time": 216.68930841875,
              "value": 0.6614173228346457
            },
            {
              "number": 7,
              "ticks": 202843,
              "time": 216.71281271458332,
              "value": 0.6614173228346457
            },
            {
              "number": 7,
              "ticks": 202865,
              "time": 216.73631701041666,
              "value": 0.6614173228346457
            },
            {
              "number": 7,
              "ticks": 202887,
              "time": 216.75982130625,
              "value": 0.6614173228346457
            },
            {
              "number": 7,
              "ticks": 202910,
              "time": 216.78439397916665,
              "value": 0.6614173228346457
            },
            {
              "number": 7,
              "ticks": 202932,
              "time": 216.80789827499999,
              "value": 0.6614173228346457
            },
            {
              "number": 7,
              "ticks": 202954,
              "time": 216.83140257083332,
              "value": 0.6614173228346457
            },
            {
              "number": 7,
              "ticks": 202977,
              "time": 216.85597524374998,
              "value": 0.6614173228346457
            },
            {
              "number": 7,
              "ticks": 202999,
              "time": 216.87947953958331,
              "value": 0.6535433070866141
            },
            {
              "number": 7,
              "ticks": 203021,
              "time": 216.90298383541665,
              "value": 0.6535433070866141
            },
            {
              "number": 7,
              "ticks": 203043,
              "time": 216.92648813125,
              "value": 0.6535433070866141
            },
            {
              "number": 7,
              "ticks": 203066,
              "time": 216.95106080416664,
              "value": 0.6535433070866141
            },
            {
              "number": 7,
              "ticks": 203088,
              "time": 216.9745651,
              "value": 0.6535433070866141
            },
            {
              "number": 7,
              "ticks": 203110,
              "time": 216.9980693958333,
              "value": 0.6535433070866141
            },
            {
              "number": 7,
              "ticks": 203132,
              "time": 217.02157369166665,
              "value": 0.6535433070866141
            },
            {
              "number": 7,
              "ticks": 203155,
              "time": 217.0461463645833,
              "value": 0.6535433070866141
            },
            {
              "number": 7,
              "ticks": 203177,
              "time": 217.06965066041664,
              "value": 0.6535433070866141
            },
            {
              "number": 7,
              "ticks": 203199,
              "time": 217.09315495625,
              "value": 0.6535433070866141
            },
            {
              "number": 7,
              "ticks": 203221,
              "time": 217.11665925208334,
              "value": 0.6535433070866141
            },
            {
              "number": 7,
              "ticks": 203244,
              "time": 217.141231925,
              "value": 0.6535433070866141
            },
            {
              "number": 7,
              "ticks": 203266,
              "time": 217.16473622083333,
              "value": 0.6535433070866141
            },
            {
              "number": 7,
              "ticks": 203288,
              "time": 217.18824051666664,
              "value": 0.6535433070866141
            },
            {
              "number": 7,
              "ticks": 203310,
              "time": 217.2117448125,
              "value": 0.6535433070866141
            },
            {
              "number": 7,
              "ticks": 203333,
              "time": 217.23631748541663,
              "value": 0.6535433070866141
            },
            {
              "number": 7,
              "ticks": 203355,
              "time": 217.25982178125,
              "value": 0.6535433070866141
            },
            {
              "number": 7,
              "ticks": 203377,
              "time": 217.28332607708333,
              "value": 0.6535433070866141
            },
            {
              "number": 7,
              "ticks": 203400,
              "time": 217.30789875,
              "value": 0.6535433070866141
            },
            {
              "number": 7,
              "ticks": 203422,
              "time": 217.33140304583333,
              "value": 0.6535433070866141
            },
            {
              "number": 7,
              "ticks": 203444,
              "time": 217.35490734166663,
              "value": 0.6535433070866141
            },
            {
              "number": 7,
              "ticks": 203466,
              "time": 217.3784116375,
              "value": 0.6535433070866141
            },
            {
              "number": 7,
              "ticks": 203489,
              "time": 217.40298431041663,
              "value": 0.6535433070866141
            },
            {
              "number": 7,
              "ticks": 203511,
              "time": 217.42648860625,
              "value": 0.6535433070866141
            },
            {
              "number": 7,
              "ticks": 203533,
              "time": 217.44999290208332,
              "value": 0.6535433070866141
            },
            {
              "number": 7,
              "ticks": 203555,
              "time": 217.47349719791666,
              "value": 0.6535433070866141
            },
            {
              "number": 7,
              "ticks": 203578,
              "time": 217.49806987083332,
              "value": 0.6535433070866141
            },
            {
              "number": 7,
              "ticks": 203600,
              "time": 217.52157416666665,
              "value": 0.6535433070866141
            },
            {
              "number": 7,
              "ticks": 203622,
              "time": 217.5450784625,
              "value": 0.6535433070866141
            },
            {
              "number": 7,
              "ticks": 203644,
              "time": 217.56858275833332,
              "value": 0.6535433070866141
            },
            {
              "number": 7,
              "ticks": 203667,
              "time": 217.59315543124998,
              "value": 0.6535433070866141
            },
            {
              "number": 7,
              "ticks": 203689,
              "time": 217.61665972708332,
              "value": 0.6535433070866141
            },
            {
              "number": 7,
              "ticks": 203711,
              "time": 217.64016402291665,
              "value": 0.6456692913385826
            },
            {
              "number": 7,
              "ticks": 203733,
              "time": 217.66366831875,
              "value": 0.6456692913385826
            },
            {
              "number": 7,
              "ticks": 203756,
              "time": 217.68824099166665,
              "value": 0.6456692913385826
            },
            {
              "number": 7,
              "ticks": 203778,
              "time": 217.7117452875,
              "value": 0.6456692913385826
            },
            {
              "number": 7,
              "ticks": 203800,
              "time": 217.7352495833333,
              "value": 0.6456692913385826
            },
            {
              "number": 7,
              "ticks": 203822,
              "time": 217.75875387916665,
              "value": 0.6456692913385826
            },
            {
              "number": 7,
              "ticks": 203845,
              "time": 217.7833265520833,
              "value": 0.6456692913385826
            },
            {
              "number": 7,
              "ticks": 203867,
              "time": 217.80683084791664,
              "value": 0.6456692913385826
            },
            {
              "number": 7,
              "ticks": 203889,
              "time": 217.83033514375,
              "value": 0.6456692913385826
            },
            {
              "number": 7,
              "ticks": 203912,
              "time": 217.85490781666664,
              "value": 0.6456692913385826
            },
            {
              "number": 7,
              "ticks": 203934,
              "time": 217.8784121125,
              "value": 0.6456692913385826
            },
            {
              "number": 7,
              "ticks": 203956,
              "time": 217.90191640833334,
              "value": 0.6456692913385826
            },
            {
              "number": 7,
              "ticks": 203978,
              "time": 217.92542070416664,
              "value": 0.6456692913385826
            },
            {
              "number": 7,
              "ticks": 204001,
              "time": 217.94999337708333,
              "value": 0.6456692913385826
            },
            {
              "number": 7,
              "ticks": 204023,
              "time": 217.97349767291664,
              "value": 0.6456692913385826
            },
            {
              "number": 7,
              "ticks": 204045,
              "time": 217.99700196875,
              "value": 0.6456692913385826
            },
            {
              "number": 7,
              "ticks": 204067,
              "time": 218.02050626458333,
              "value": 0.6456692913385826
            },
            {
              "number": 7,
              "ticks": 204090,
              "time": 218.0450789375,
              "value": 0.6456692913385826
            },
            {
              "number": 7,
              "ticks": 204112,
              "time": 218.06858323333333,
              "value": 0.6456692913385826
            },
            {
              "number": 7,
              "ticks": 204134,
              "time": 218.09208752916663,
              "value": 0.6456692913385826
            },
            {
              "number": 7,
              "ticks": 204156,
              "time": 218.115591825,
              "value": 0.6456692913385826
            },
            {
              "number": 7,
              "ticks": 204179,
              "time": 218.14016449791663,
              "value": 0.6456692913385826
            },
            {
              "number": 7,
              "ticks": 204201,
              "time": 218.16366879375,
              "value": 0.6456692913385826
            },
            {
              "number": 7,
              "ticks": 204223,
              "time": 218.18717308958333,
              "value": 0.6456692913385826
            },
            {
              "number": 7,
              "ticks": 204245,
              "time": 218.21067738541666,
              "value": 0.6456692913385826
            },
            {
              "number": 7,
              "ticks": 204268,
              "time": 218.23525005833332,
              "value": 0.6456692913385826
            },
            {
              "number": 7,
              "ticks": 204290,
              "time": 218.25875435416665,
              "value": 0.6456692913385826
            },
            {
              "number": 7,
              "ticks": 204312,
              "time": 218.28225865,
              "value": 0.6456692913385826
            },
            {
              "number": 7,
              "ticks": 204335,
              "time": 218.30683132291665,
              "value": 0.6456692913385826
            },
            {
              "number": 7,
              "ticks": 204357,
              "time": 218.33033561874998,
              "value": 0.6456692913385826
            },
            {
              "number": 7,
              "ticks": 204379,
              "time": 218.35383991458332,
              "value": 0.6456692913385826
            },
            {
              "number": 7,
              "ticks": 204401,
              "time": 218.37734421041665,
              "value": 0.6456692913385826
            },
            {
              "number": 7,
              "ticks": 204424,
              "time": 218.4019168833333,
              "value": 0.6377952755905512
            },
            {
              "number": 7,
              "ticks": 204446,
              "time": 218.42542117916665,
              "value": 0.6377952755905512
            },
            {
              "number": 7,
              "ticks": 204468,
              "time": 218.448925475,
              "value": 0.6377952755905512
            },
            {
              "number": 7,
              "ticks": 204490,
              "time": 218.47242977083332,
              "value": 0.6377952755905512
            },
            {
              "number": 7,
              "ticks": 204513,
              "time": 218.49700244375,
              "value": 0.6377952755905512
            },
            {
              "number": 7,
              "ticks": 204535,
              "time": 218.5205067395833,
              "value": 0.6377952755905512
            },
            {
              "number": 7,
              "ticks": 204557,
              "time": 218.54401103541664,
              "value": 0.6377952755905512
            },
            {
              "number": 7,
              "ticks": 204579,
              "time": 218.56751533125,
              "value": 0.6377952755905512
            },
            {
              "number": 7,
              "ticks": 204602,
              "time": 218.59208800416664,
              "value": 0.6377952755905512
            },
            {
              "number": 7,
              "ticks": 204624,
              "time": 218.6155923,
              "value": 0.6377952755905512
            },
            {
              "number": 7,
              "ticks": 204646,
              "time": 218.63909659583334,
              "value": 0.6377952755905512
            },
            {
              "number": 7,
              "ticks": 204668,
              "time": 218.66260089166664,
              "value": 0.6377952755905512
            },
            {
              "number": 7,
              "ticks": 204691,
              "time": 218.68717356458333,
              "value": 0.6377952755905512
            },
            {
              "number": 7,
              "ticks": 204713,
              "time": 218.71067786041664,
              "value": 0.6377952755905512
            },
            {
              "number": 7,
              "ticks": 204735,
              "time": 218.73418215625,
              "value": 0.6377952755905512
            },
            {
              "number": 7,
              "ticks": 204757,
              "time": 218.75768645208333,
              "value": 0.6377952755905512
            },
            {
              "number": 7,
              "ticks": 204780,
              "time": 218.782259125,
              "value": 0.6377952755905512
            },
            {
              "number": 7,
              "ticks": 204802,
              "time": 218.80576342083333,
              "value": 0.6377952755905512
            },
            {
              "number": 7,
              "ticks": 204824,
              "time": 218.82926771666664,
              "value": 0.6377952755905512
            },
            {
              "number": 7,
              "ticks": 204847,
              "time": 218.85384038958333,
              "value": 0.6377952755905512
            },
            {
              "number": 7,
              "ticks": 204869,
              "time": 218.87734468541663,
              "value": 0.6377952755905512
            },
            {
              "number": 7,
              "ticks": 204891,
              "time": 218.90084898125,
              "value": 0.6377952755905512
            },
            {
              "number": 7,
              "ticks": 204913,
              "time": 218.92435327708333,
              "value": 0.6377952755905512
            },
            {
              "number": 7,
              "ticks": 204936,
              "time": 218.94892595,
              "value": 0.6377952755905512
            },
            {
              "number": 7,
              "ticks": 204958,
              "time": 218.97243024583332,
              "value": 0.6377952755905512
            },
            {
              "number": 7,
              "ticks": 204980,
              "time": 218.99593454166666,
              "value": 0.6377952755905512
            },
            {
              "number": 7,
              "ticks": 205002,
              "time": 219.01943883749996,
              "value": 0.6377952755905512
            },
            {
              "number": 7,
              "ticks": 205025,
              "time": 219.04401151041665,
              "value": 0.6377952755905512
            },
            {
              "number": 7,
              "ticks": 205047,
              "time": 219.06751580625,
              "value": 0.6377952755905512
            },
            {
              "number": 7,
              "ticks": 205069,
              "time": 219.09102010208332,
              "value": 0.6377952755905512
            },
            {
              "number": 7,
              "ticks": 205091,
              "time": 219.11452439791665,
              "value": 0.6377952755905512
            },
            {
              "number": 7,
              "ticks": 205114,
              "time": 219.13909707083332,
              "value": 0.6377952755905512
            },
            {
              "number": 7,
              "ticks": 205136,
              "time": 219.16260136666665,
              "value": 0.6299212598425197
            },
            {
              "number": 7,
              "ticks": 205158,
              "time": 219.1861056625,
              "value": 0.6299212598425197
            },
            {
              "number": 7,
              "ticks": 205180,
              "time": 219.20960995833332,
              "value": 0.6299212598425197
            },
            {
              "number": 7,
              "ticks": 205203,
              "time": 219.23418263125,
              "value": 0.6299212598425197
            },
            {
              "number": 7,
              "ticks": 205225,
              "time": 219.2576869270833,
              "value": 0.6299212598425197
            },
            {
              "number": 7,
              "ticks": 205247,
              "time": 219.28119122291665,
              "value": 0.6299212598425197
            },
            {
              "number": 7,
              "ticks": 205270,
              "time": 219.3057638958333,
              "value": 0.6299212598425197
            },
            {
              "number": 7,
              "ticks": 205292,
              "time": 219.32926819166664,
              "value": 0.6299212598425197
            },
            {
              "number": 7,
              "ticks": 205314,
              "time": 219.3527724875,
              "value": 0.6299212598425197
            },
            {
              "number": 7,
              "ticks": 205336,
              "time": 219.37627678333334,
              "value": 0.6299212598425197
            },
            {
              "number": 7,
              "ticks": 205359,
              "time": 219.40084945625,
              "value": 0.6299212598425197
            },
            {
              "number": 7,
              "ticks": 205381,
              "time": 219.42435375208333,
              "value": 0.6299212598425197
            },
            {
              "number": 7,
              "ticks": 205403,
              "time": 219.44785804791664,
              "value": 0.6299212598425197
            },
            {
              "number": 7,
              "ticks": 205425,
              "time": 219.47136234375,
              "value": 0.6299212598425197
            },
            {
              "number": 7,
              "ticks": 205448,
              "time": 219.49593501666664,
              "value": 0.6299212598425197
            },
            {
              "number": 7,
              "ticks": 205470,
              "time": 219.5194393125,
              "value": 0.6299212598425197
            },
            {
              "number": 7,
              "ticks": 205492,
              "time": 219.54294360833333,
              "value": 0.6299212598425197
            },
            {
              "number": 7,
              "ticks": 205514,
              "time": 219.56644790416664,
              "value": 0.6299212598425197
            },
            {
              "number": 7,
              "ticks": 205537,
              "time": 219.59102057708333,
              "value": 0.6299212598425197
            },
            {
              "number": 7,
              "ticks": 205559,
              "time": 219.61452487291663,
              "value": 0.6299212598425197
            },
            {
              "number": 7,
              "ticks": 205581,
              "time": 219.63802916875,
              "value": 0.6299212598425197
            },
            {
              "number": 7,
              "ticks": 205603,
              "time": 219.66153346458333,
              "value": 0.6299212598425197
            },
            {
              "number": 7,
              "ticks": 205626,
              "time": 219.6861061375,
              "value": 0.6299212598425197
            },
            {
              "number": 7,
              "ticks": 205648,
              "time": 219.70961043333332,
              "value": 0.6299212598425197
            },
            {
              "number": 7,
              "ticks": 205670,
              "time": 219.73311472916666,
              "value": 0.6299212598425197
            },
            {
              "number": 7,
              "ticks": 205693,
              "time": 219.75768740208332,
              "value": 0.6299212598425197
            },
            {
              "number": 7,
              "ticks": 205715,
              "time": 219.78119169791665,
              "value": 0.6299212598425197
            },
            {
              "number": 7,
              "ticks": 205737,
              "time": 219.80469599375,
              "value": 0.6299212598425197
            },
            {
              "number": 7,
              "ticks": 205759,
              "time": 219.82820028958332,
              "value": 0.6299212598425197
            },
            {
              "number": 7,
              "ticks": 205782,
              "time": 219.85277296249998,
              "value": 0.6299212598425197
            },
            {
              "number": 7,
              "ticks": 205804,
              "time": 219.87627725833332,
              "value": 0.6299212598425197
            },
            {
              "number": 7,
              "ticks": 205826,
              "time": 219.89978155416665,
              "value": 0.6299212598425197
            },
            {
              "number": 7,
              "ticks": 205848,
              "time": 219.92328585,
              "value": 0.6220472440944882
            },
            {
              "number": 7,
              "ticks": 205871,
              "time": 219.94785852291665,
              "value": 0.6220472440944882
            },
            {
              "number": 7,
              "ticks": 205893,
              "time": 219.97136281875,
              "value": 0.6220472440944882
            },
            {
              "number": 7,
              "ticks": 205915,
              "time": 219.99486711458331,
              "value": 0.6220472440944882
            },
            {
              "number": 7,
              "ticks": 205937,
              "time": 220.01837141041665,
              "value": 0.6220472440944882
            },
            {
              "number": 7,
              "ticks": 205960,
              "time": 220.0429440833333,
              "value": 0.6220472440944882
            },
            {
              "number": 7,
              "ticks": 205982,
              "time": 220.06644837916664,
              "value": 0.6220472440944882
            },
            {
              "number": 7,
              "ticks": 206004,
              "time": 220.089952675,
              "value": 0.6220472440944882
            },
            {
              "number": 7,
              "ticks": 206026,
              "time": 220.11345697083334,
              "value": 0.6220472440944882
            },
            {
              "number": 7,
              "ticks": 206049,
              "time": 220.13802964375,
              "value": 0.6220472440944882
            },
            {
              "number": 7,
              "ticks": 206071,
              "time": 220.16153393958334,
              "value": 0.6220472440944882
            },
            {
              "number": 7,
              "ticks": 206093,
              "time": 220.18503823541664,
              "value": 0.6220472440944882
            },
            {
              "number": 7,
              "ticks": 206115,
              "time": 220.20854253124998,
              "value": 0.6220472440944882
            },
            {
              "number": 7,
              "ticks": 206138,
              "time": 220.23311520416664,
              "value": 0.6220472440944882
            },
            {
              "number": 7,
              "ticks": 206160,
              "time": 220.2566195,
              "value": 0.6220472440944882
            },
            {
              "number": 7,
              "ticks": 206182,
              "time": 220.28012379583333,
              "value": 0.6220472440944882
            },
            {
              "number": 7,
              "ticks": 206205,
              "time": 220.30469646875,
              "value": 0.6220472440944882
            },
            {
              "number": 7,
              "ticks": 206227,
              "time": 220.32820076458333,
              "value": 0.6220472440944882
            },
            {
              "number": 7,
              "ticks": 206249,
              "time": 220.35170506041663,
              "value": 0.6220472440944882
            },
            {
              "number": 7,
              "ticks": 206271,
              "time": 220.37520935624997,
              "value": 0.6220472440944882
            },
            {
              "number": 7,
              "ticks": 206294,
              "time": 220.39978202916663,
              "value": 0.6220472440944882
            },
            {
              "number": 7,
              "ticks": 206316,
              "time": 220.423286325,
              "value": 0.6220472440944882
            },
            {
              "number": 7,
              "ticks": 206338,
              "time": 220.44679062083333,
              "value": 0.6220472440944882
            },
            {
              "number": 7,
              "ticks": 206360,
              "time": 220.47029491666666,
              "value": 0.6220472440944882
            },
            {
              "number": 7,
              "ticks": 206383,
              "time": 220.49486758958332,
              "value": 0.6220472440944882
            },
            {
              "number": 7,
              "ticks": 206405,
              "time": 220.51837188541666,
              "value": 0.6220472440944882
            },
            {
              "number": 7,
              "ticks": 206427,
              "time": 220.54187618125,
              "value": 0.6220472440944882
            },
            {
              "number": 7,
              "ticks": 206449,
              "time": 220.56538047708332,
              "value": 0.6220472440944882
            },
            {
              "number": 7,
              "ticks": 206472,
              "time": 220.58995314999999,
              "value": 0.6220472440944882
            },
            {
              "number": 7,
              "ticks": 206494,
              "time": 220.61345744583332,
              "value": 0.6220472440944882
            },
            {
              "number": 7,
              "ticks": 206516,
              "time": 220.63696174166665,
              "value": 0.6220472440944882
            },
            {
              "number": 7,
              "ticks": 206538,
              "time": 220.6604660375,
              "value": 0.6220472440944882
            },
            {
              "number": 7,
              "ticks": 206561,
              "time": 220.68503871041665,
              "value": 0.6141732283464567
            },
            {
              "number": 7,
              "ticks": 206583,
              "time": 220.70854300625,
              "value": 0.6141732283464567
            },
            {
              "number": 7,
              "ticks": 206605,
              "time": 220.73204730208332,
              "value": 0.6141732283464567
            },
            {
              "number": 7,
              "ticks": 206628,
              "time": 220.756619975,
              "value": 0.6141732283464567
            },
            {
              "number": 7,
              "ticks": 206650,
              "time": 220.7801242708333,
              "value": 0.6141732283464567
            },
            {
              "number": 7,
              "ticks": 206672,
              "time": 220.80362856666665,
              "value": 0.6141732283464567
            },
            {
              "number": 7,
              "ticks": 206694,
              "time": 220.82713286249998,
              "value": 0.6141732283464567
            },
            {
              "number": 7,
              "ticks": 206717,
              "time": 220.85170553541664,
              "value": 0.6141732283464567
            },
            {
              "number": 7,
              "ticks": 206739,
              "time": 220.87520983125,
              "value": 0.6141732283464567
            },
            {
              "number": 7,
              "ticks": 206761,
              "time": 220.89871412708334,
              "value": 0.6141732283464567
            },
            {
              "number": 7,
              "ticks": 206783,
              "time": 220.92221842291664,
              "value": 0.6141732283464567
            },
            {
              "number": 7,
              "ticks": 206806,
              "time": 220.94679109583333,
              "value": 0.6141732283464567
            },
            {
              "number": 7,
              "ticks": 206828,
              "time": 220.97029539166664,
              "value": 0.6141732283464567
            },
            {
              "number": 7,
              "ticks": 206850,
              "time": 220.9937996875,
              "value": 0.6141732283464567
            },
            {
              "number": 7,
              "ticks": 206872,
              "time": 221.01730398333333,
              "value": 0.6141732283464567
            },
            {
              "number": 7,
              "ticks": 206895,
              "time": 221.04187665625,
              "value": 0.6141732283464567
            },
            {
              "number": 7,
              "ticks": 206917,
              "time": 221.06538095208333,
              "value": 0.6141732283464567
            },
            {
              "number": 7,
              "ticks": 206939,
              "time": 221.08888524791664,
              "value": 0.6141732283464567
            },
            {
              "number": 7,
              "ticks": 206961,
              "time": 221.11238954374997,
              "value": 0.6141732283464567
            },
            {
              "number": 7,
              "ticks": 206984,
              "time": 221.13696221666663,
              "value": 0.6141732283464567
            },
            {
              "number": 7,
              "ticks": 207006,
              "time": 221.1604665125,
              "value": 0.6141732283464567
            },
            {
              "number": 7,
              "ticks": 207028,
              "time": 221.18397080833333,
              "value": 0.6141732283464567
            },
            {
              "number": 7,
              "ticks": 207051,
              "time": 221.20854348125,
              "value": 0.6141732283464567
            },
            {
              "number": 7,
              "ticks": 207073,
              "time": 221.23204777708332,
              "value": 0.6141732283464567
            },
            {
              "number": 7,
              "ticks": 207095,
              "time": 221.25555207291666,
              "value": 0.6141732283464567
            },
            {
              "number": 7,
              "ticks": 207117,
              "time": 221.27905636874996,
              "value": 0.6141732283464567
            },
            {
              "number": 7,
              "ticks": 207140,
              "time": 221.30362904166665,
              "value": 0.6141732283464567
            },
            {
              "number": 7,
              "ticks": 207162,
              "time": 221.3271333375,
              "value": 0.6141732283464567
            },
            {
              "number": 7,
              "ticks": 207184,
              "time": 221.35063763333332,
              "value": 0.6141732283464567
            },
            {
              "number": 7,
              "ticks": 207206,
              "time": 221.37414192916665,
              "value": 0.6141732283464567
            },
            {
              "number": 7,
              "ticks": 207229,
              "time": 221.39871460208332,
              "value": 0.6141732283464567
            },
            {
              "number": 7,
              "ticks": 207251,
              "time": 221.42221889791665,
              "value": 0.6141732283464567
            },
            {
              "number": 7,
              "ticks": 207273,
              "time": 221.44572319375,
              "value": 0.6062992125984252
            },
            {
              "number": 7,
              "ticks": 207295,
              "time": 221.46922748958332,
              "value": 0.6062992125984252
            },
            {
              "number": 7,
              "ticks": 207318,
              "time": 221.4938001625,
              "value": 0.6062992125984252
            },
            {
              "number": 7,
              "ticks": 207340,
              "time": 221.5173044583333,
              "value": 0.6062992125984252
            },
            {
              "number": 7,
              "ticks": 207362,
              "time": 221.54080875416665,
              "value": 0.6062992125984252
            },
            {
              "number": 7,
              "ticks": 207384,
              "time": 221.56431304999998,
              "value": 0.6062992125984252
            },
            {
              "number": 7,
              "ticks": 207407,
              "time": 221.58888572291664,
              "value": 0.6062992125984252
            },
            {
              "number": 7,
              "ticks": 207429,
              "time": 221.61239001875,
              "value": 0.6062992125984252
            },
            {
              "number": 7,
              "ticks": 207451,
              "time": 221.63589431458334,
              "value": 0.6062992125984252
            },
            {
              "number": 7,
              "ticks": 207473,
              "time": 221.65939861041664,
              "value": 0.6062992125984252
            },
            {
              "number": 7,
              "ticks": 207496,
              "time": 221.68397128333334,
              "value": 0.6062992125984252
            },
            {
              "number": 7,
              "ticks": 207518,
              "time": 221.70747557916664,
              "value": 0.6062992125984252
            },
            {
              "number": 7,
              "ticks": 207540,
              "time": 221.73097987499997,
              "value": 0.6062992125984252
            },
            {
              "number": 7,
              "ticks": 207563,
              "time": 221.75555254791664,
              "value": 0.6062992125984252
            },
            {
              "number": 7,
              "ticks": 207585,
              "time": 221.77905684375,
              "value": 0.6062992125984252
            },
            {
              "number": 7,
              "ticks": 207607,
              "time": 221.80256113958333,
              "value": 0.6062992125984252
            },
            {
              "number": 7,
              "ticks": 207629,
              "time": 221.82606543541664,
              "value": 0.6062992125984252
            },
            {
              "number": 7,
              "ticks": 207652,
              "time": 221.85063810833333,
              "value": 0.6062992125984252
            },
            {
              "number": 7,
              "ticks": 207674,
              "time": 221.87414240416663,
              "value": 0.6062992125984252
            },
            {
              "number": 7,
              "ticks": 207696,
              "time": 221.8976467,
              "value": 0.6062992125984252
            },
            {
              "number": 7,
              "ticks": 207718,
              "time": 221.92115099583333,
              "value": 0.6062992125984252
            },
            {
              "number": 7,
              "ticks": 207741,
              "time": 221.94572366875,
              "value": 0.6062992125984252
            },
            {
              "number": 7,
              "ticks": 207763,
              "time": 221.96922796458333,
              "value": 0.6062992125984252
            },
            {
              "number": 7,
              "ticks": 207785,
              "time": 221.99273226041666,
              "value": 0.6062992125984252
            },
            {
              "number": 7,
              "ticks": 207807,
              "time": 222.01623655624996,
              "value": 0.6062992125984252
            },
            {
              "number": 7,
              "ticks": 207830,
              "time": 222.04080922916665,
              "value": 0.6062992125984252
            },
            {
              "number": 7,
              "ticks": 207852,
              "time": 222.064313525,
              "value": 0.6062992125984252
            },
            {
              "number": 7,
              "ticks": 207874,
              "time": 222.08781782083332,
              "value": 0.6062992125984252
            },
            {
              "number": 7,
              "ticks": 207896,
              "time": 222.11132211666666,
              "value": 0.6062992125984252
            },
            {
              "number": 7,
              "ticks": 207919,
              "time": 222.13589478958332,
              "value": 0.6062992125984252
            },
            {
              "number": 7,
              "ticks": 207941,
              "time": 222.15939908541665,
              "value": 0.6062992125984252
            },
            {
              "number": 7,
              "ticks": 207963,
              "time": 222.18290338125,
              "value": 0.6062992125984252
            },
            {
              "number": 7,
              "ticks": 207986,
              "time": 222.20747605416665,
              "value": 0.5984251968503937
            },
            {
              "number": 7,
              "ticks": 208008,
              "time": 222.23098035,
              "value": 0.5984251968503937
            },
            {
              "number": 7,
              "ticks": 208030,
              "time": 222.25448464583332,
              "value": 0.5984251968503937
            },
            {
              "number": 7,
              "ticks": 208052,
              "time": 222.27798894166665,
              "value": 0.5984251968503937
            },
            {
              "number": 7,
              "ticks": 208075,
              "time": 222.3025616145833,
              "value": 0.5984251968503937
            },
            {
              "number": 7,
              "ticks": 208097,
              "time": 222.32606591041665,
              "value": 0.5984251968503937
            },
            {
              "number": 7,
              "ticks": 208119,
              "time": 222.34957020625,
              "value": 0.5984251968503937
            },
            {
              "number": 7,
              "ticks": 208141,
              "time": 222.37307450208334,
              "value": 0.5984251968503937
            },
            {
              "number": 7,
              "ticks": 208164,
              "time": 222.397647175,
              "value": 0.5984251968503937
            },
            {
              "number": 7,
              "ticks": 208186,
              "time": 222.42115147083334,
              "value": 0.5984251968503937
            },
            {
              "number": 7,
              "ticks": 208208,
              "time": 222.44465576666664,
              "value": 0.5984251968503937
            },
            {
              "number": 7,
              "ticks": 208230,
              "time": 222.46816006249998,
              "value": 0.5984251968503937
            },
            {
              "number": 7,
              "ticks": 208253,
              "time": 222.49273273541664,
              "value": 0.5984251968503937
            },
            {
              "number": 7,
              "ticks": 208275,
              "time": 222.51623703125,
              "value": 0.5984251968503937
            },
            {
              "number": 7,
              "ticks": 208297,
              "time": 222.53974132708333,
              "value": 0.5984251968503937
            },
            {
              "number": 7,
              "ticks": 208319,
              "time": 222.56324562291664,
              "value": 0.5984251968503937
            },
            {
              "number": 7,
              "ticks": 208342,
              "time": 222.58781829583333,
              "value": 0.5984251968503937
            },
            {
              "number": 7,
              "ticks": 208364,
              "time": 222.61132259166664,
              "value": 0.5984251968503937
            },
            {
              "number": 7,
              "ticks": 208386,
              "time": 222.63482688749997,
              "value": 0.5984251968503937
            },
            {
              "number": 7,
              "ticks": 208409,
              "time": 222.65939956041663,
              "value": 0.5984251968503937
            },
            {
              "number": 7,
              "ticks": 208431,
              "time": 222.68290385625,
              "value": 0.5984251968503937
            },
            {
              "number": 7,
              "ticks": 208453,
              "time": 222.70640815208333,
              "value": 0.5984251968503937
            },
            {
              "number": 7,
              "ticks": 208475,
              "time": 222.72991244791666,
              "value": 0.5984251968503937
            },
            {
              "number": 7,
              "ticks": 208498,
              "time": 222.75448512083332,
              "value": 0.5984251968503937
            },
            {
              "number": 7,
              "ticks": 208520,
              "time": 222.77798941666666,
              "value": 0.5984251968503937
            },
            {
              "number": 7,
              "ticks": 208542,
              "time": 222.80149371249996,
              "value": 0.5984251968503937
            },
            {
              "number": 7,
              "ticks": 208564,
              "time": 222.82499800833332,
              "value": 0.5984251968503937
            },
            {
              "number": 7,
              "ticks": 208587,
              "time": 222.84957068125,
              "value": 0.5984251968503937
            },
            {
              "number": 7,
              "ticks": 208609,
              "time": 222.87307497708332,
              "value": 0.5984251968503937
            },
            {
              "number": 7,
              "ticks": 208631,
              "time": 222.89657927291665,
              "value": 0.5984251968503937
            },
            {
              "number": 7,
              "ticks": 208653,
              "time": 222.92008356875,
              "value": 0.5984251968503937
            },
            {
              "number": 7,
              "ticks": 208676,
              "time": 222.94465624166665,
              "value": 0.5984251968503937
            },
            {
              "number": 7,
              "ticks": 208698,
              "time": 222.9681605375,
              "value": 0.5905511811023622
            },
            {
              "number": 7,
              "ticks": 208720,
              "time": 222.99166483333332,
              "value": 0.5905511811023622
            },
            {
              "number": 7,
              "ticks": 208742,
              "time": 223.01516912916665,
              "value": 0.5905511811023622
            },
            {
              "number": 7,
              "ticks": 208765,
              "time": 223.0397418020833,
              "value": 0.5905511811023622
            },
            {
              "number": 7,
              "ticks": 208787,
              "time": 223.06324609791665,
              "value": 0.5905511811023622
            },
            {
              "number": 7,
              "ticks": 208809,
              "time": 223.08675039374998,
              "value": 0.5905511811023622
            },
            {
              "number": 7,
              "ticks": 208831,
              "time": 223.11025468958334,
              "value": 0.5905511811023622
            },
            {
              "number": 7,
              "ticks": 208854,
              "time": 223.1348273625,
              "value": 0.5905511811023622
            },
            {
              "number": 7,
              "ticks": 208876,
              "time": 223.15833165833334,
              "value": 0.5905511811023622
            },
            {
              "number": 7,
              "ticks": 208898,
              "time": 223.18183595416664,
              "value": 0.5905511811023622
            },
            {
              "number": 7,
              "ticks": 208920,
              "time": 223.20534024999998,
              "value": 0.5905511811023622
            },
            {
              "number": 7,
              "ticks": 208943,
              "time": 223.22991292291664,
              "value": 0.5905511811023622
            },
            {
              "number": 7,
              "ticks": 208965,
              "time": 223.25341721874997,
              "value": 0.5905511811023622
            },
            {
              "number": 7,
              "ticks": 208987,
              "time": 223.27692151458334,
              "value": 0.5905511811023622
            },
            {
              "number": 7,
              "ticks": 209010,
              "time": 223.3014941875,
              "value": 0.5905511811023622
            },
            {
              "number": 7,
              "ticks": 209032,
              "time": 223.32499848333333,
              "value": 0.5905511811023622
            },
            {
              "number": 7,
              "ticks": 209054,
              "time": 223.34850277916664,
              "value": 0.5905511811023622
            },
            {
              "number": 7,
              "ticks": 209076,
              "time": 223.37200707499997,
              "value": 0.5905511811023622
            },
            {
              "number": 7,
              "ticks": 209099,
              "time": 223.39657974791663,
              "value": 0.5905511811023622
            },
            {
              "number": 7,
              "ticks": 209121,
              "time": 223.42008404375,
              "value": 0.5905511811023622
            },
            {
              "number": 7,
              "ticks": 209143,
              "time": 223.44358833958333,
              "value": 0.5905511811023622
            },
            {
              "number": 7,
              "ticks": 209165,
              "time": 223.46709263541666,
              "value": 0.5905511811023622
            },
            {
              "number": 7,
              "ticks": 209188,
              "time": 223.49166530833332,
              "value": 0.5905511811023622
            },
            {
              "number": 7,
              "ticks": 209210,
              "time": 223.51516960416666,
              "value": 0.5905511811023622
            },
            {
              "number": 7,
              "ticks": 209232,
              "time": 223.53867389999996,
              "value": 0.5905511811023622
            },
            {
              "number": 7,
              "ticks": 209254,
              "time": 223.56217819583333,
              "value": 0.5905511811023622
            },
            {
              "number": 7,
              "ticks": 209277,
              "time": 223.58675086875,
              "value": 0.5905511811023622
            },
            {
              "number": 7,
              "ticks": 209299,
              "time": 223.61025516458332,
              "value": 0.5905511811023622
            },
            {
              "number": 7,
              "ticks": 209321,
              "time": 223.63375946041666,
              "value": 0.5905511811023622
            },
            {
              "number": 7,
              "ticks": 209344,
              "time": 223.65833213333332,
              "value": 0.5905511811023622
            },
            {
              "number": 7,
              "ticks": 209366,
              "time": 223.68183642916665,
              "value": 0.5905511811023622
            },
            {
              "number": 7,
              "ticks": 209388,
              "time": 223.70534072499999,
              "value": 0.5905511811023622
            },
            {
              "number": 7,
              "ticks": 209410,
              "time": 223.72884502083332,
              "value": 0.5826771653543307
            },
            {
              "number": 7,
              "ticks": 209433,
              "time": 223.75341769375,
              "value": 0.5826771653543307
            },
            {
              "number": 7,
              "ticks": 209455,
              "time": 223.77692198958331,
              "value": 0.5826771653543307
            },
            {
              "number": 7,
              "ticks": 209477,
              "time": 223.80042628541665,
              "value": 0.5826771653543307
            },
            {
              "number": 7,
              "ticks": 209499,
              "time": 223.82393058124998,
              "value": 0.5826771653543307
            },
            {
              "number": 7,
              "ticks": 209522,
              "time": 223.84850325416664,
              "value": 0.5826771653543307
            },
            {
              "number": 7,
              "ticks": 209544,
              "time": 223.87200755,
              "value": 0.5826771653543307
            },
            {
              "number": 7,
              "ticks": 209566,
              "time": 223.89551184583334,
              "value": 0.5826771653543307
            },
            {
              "number": 7,
              "ticks": 209588,
              "time": 223.91901614166665,
              "value": 0.5826771653543307
            },
            {
              "number": 7,
              "ticks": 209611,
              "time": 223.94358881458334,
              "value": 0.5826771653543307
            },
            {
              "number": 7,
              "ticks": 209633,
              "time": 223.96709311041664,
              "value": 0.5826771653543307
            },
            {
              "number": 7,
              "ticks": 209655,
              "time": 223.99059740624998,
              "value": 0.5826771653543307
            },
            {
              "number": 7,
              "ticks": 209677,
              "time": 224.01410170208334,
              "value": 0.5826771653543307
            },
            {
              "number": 7,
              "ticks": 209700,
              "time": 224.038674375,
              "value": 0.5826771653543307
            },
            {
              "number": 7,
              "ticks": 209722,
              "time": 224.06217867083333,
              "value": 0.5826771653543307
            },
            {
              "number": 7,
              "ticks": 209744,
              "time": 224.08568296666664,
              "value": 0.5826771653543307
            },
            {
              "number": 7,
              "ticks": 209766,
              "time": 224.10918726249997,
              "value": 0.5826771653543307
            },
            {
              "number": 7,
              "ticks": 209789,
              "time": 224.13375993541663,
              "value": 0.5826771653543307
            },
            {
              "number": 7,
              "ticks": 209811,
              "time": 224.15726423124997,
              "value": 0.5826771653543307
            },
            {
              "number": 7,
              "ticks": 209833,
              "time": 224.18076852708333,
              "value": 0.5826771653543307
            },
            {
              "number": 7,
              "ticks": 209856,
              "time": 224.2053412,
              "value": 0.5826771653543307
            },
            {
              "number": 7,
              "ticks": 209878,
              "time": 224.22884549583333,
              "value": 0.5826771653543307
            },
            {
              "number": 7,
              "ticks": 209900,
              "time": 224.25234979166666,
              "value": 0.5826771653543307
            },
            {
              "number": 7,
              "ticks": 209922,
              "time": 224.27585408749997,
              "value": 0.5826771653543307
            },
            {
              "number": 7,
              "ticks": 209945,
              "time": 224.30042676041666,
              "value": 0.5826771653543307
            },
            {
              "number": 7,
              "ticks": 209967,
              "time": 224.32393105625,
              "value": 0.5826771653543307
            },
            {
              "number": 7,
              "ticks": 209989,
              "time": 224.34743535208332,
              "value": 0.5826771653543307
            },
            {
              "number": 7,
              "ticks": 210011,
              "time": 224.37093964791666,
              "value": 0.5826771653543307
            },
            {
              "number": 7,
              "ticks": 210034,
              "time": 224.39551232083332,
              "value": 0.5826771653543307
            },
            {
              "number": 7,
              "ticks": 210055,
              "time": 224.41794823958332,
              "value": 0.5826771653543307
            },
            {
              "number": 7,
              "ticks": 210078,
              "time": 224.4425209125,
              "value": 0.5826771653543307
            },
            {
              "number": 7,
              "ticks": 210100,
              "time": 224.46602520833332,
              "value": 0.5826771653543307
            },
            {
              "number": 7,
              "ticks": 210123,
              "time": 224.49059788125,
              "value": 0.5748031496062992
            },
            {
              "number": 7,
              "ticks": 210145,
              "time": 224.51410217708332,
              "value": 0.5748031496062992
            },
            {
              "number": 7,
              "ticks": 210167,
              "time": 224.53760647291665,
              "value": 0.5748031496062992
            },
            {
              "number": 7,
              "ticks": 210189,
              "time": 224.56111076874998,
              "value": 0.5748031496062992
            },
            {
              "number": 7,
              "ticks": 210212,
              "time": 224.58568344166665,
              "value": 0.5748031496062992
            },
            {
              "number": 7,
              "ticks": 210234,
              "time": 224.60918773749998,
              "value": 0.5748031496062992
            },
            {
              "number": 7,
              "ticks": 210256,
              "time": 224.63269203333334,
              "value": 0.5748031496062992
            },
            {
              "number": 7,
              "ticks": 210279,
              "time": 224.65726470625,
              "value": 0.5748031496062992
            },
            {
              "number": 7,
              "ticks": 210301,
              "time": 224.68076900208334,
              "value": 0.5748031496062992
            },
            {
              "number": 7,
              "ticks": 210323,
              "time": 224.70427329791664,
              "value": 0.5748031496062992
            },
            {
              "number": 7,
              "ticks": 210345,
              "time": 224.72777759374998,
              "value": 0.5748031496062992
            },
            {
              "number": 7,
              "ticks": 210368,
              "time": 224.75235026666664,
              "value": 0.5748031496062992
            },
            {
              "number": 7,
              "ticks": 210390,
              "time": 224.7758545625,
              "value": 0.5748031496062992
            },
            {
              "number": 7,
              "ticks": 210412,
              "time": 224.79935885833333,
              "value": 0.5748031496062992
            },
            {
              "number": 7,
              "ticks": 210434,
              "time": 224.82286315416664,
              "value": 0.5748031496062992
            },
            {
              "number": 7,
              "ticks": 210457,
              "time": 224.84743582708333,
              "value": 0.5748031496062992
            },
            {
              "number": 7,
              "ticks": 210479,
              "time": 224.87094012291664,
              "value": 0.5748031496062992
            },
            {
              "number": 7,
              "ticks": 210501,
              "time": 224.89444441874997,
              "value": 0.5748031496062992
            },
            {
              "number": 7,
              "ticks": 210523,
              "time": 224.91794871458333,
              "value": 0.5748031496062992
            },
            {
              "number": 7,
              "ticks": 210546,
              "time": 224.9425213875,
              "value": 0.5748031496062992
            },
            {
              "number": 7,
              "ticks": 210568,
              "time": 224.96602568333333,
              "value": 0.5748031496062992
            },
            {
              "number": 7,
              "ticks": 210590,
              "time": 224.98952997916666,
              "value": 0.5748031496062992
            },
            {
              "number": 7,
              "ticks": 210612,
              "time": 225.01303427499997,
              "value": 0.5748031496062992
            },
            {
              "number": 7,
              "ticks": 210635,
              "time": 225.03760694791666,
              "value": 0.5748031496062992
            },
            {
              "number": 7,
              "ticks": 210657,
              "time": 225.06111124374996,
              "value": 0.5748031496062992
            },
            {
              "number": 7,
              "ticks": 210679,
              "time": 225.08461553958333,
              "value": 0.5748031496062992
            },
            {
              "number": 7,
              "ticks": 210702,
              "time": 225.1091882125,
              "value": 0.5748031496062992
            },
            {
              "number": 7,
              "ticks": 210724,
              "time": 225.13269250833332,
              "value": 0.5748031496062992
            },
            {
              "number": 7,
              "ticks": 210746,
              "time": 225.15619680416665,
              "value": 0.5748031496062992
            },
            {
              "number": 7,
              "ticks": 210768,
              "time": 225.1797011,
              "value": 0.5748031496062992
            },
            {
              "number": 7,
              "ticks": 210791,
              "time": 225.20427377291665,
              "value": 0.5748031496062992
            },
            {
              "number": 7,
              "ticks": 210813,
              "time": 225.22777806875,
              "value": 0.5748031496062992
            },
            {
              "number": 7,
              "ticks": 210835,
              "time": 225.25128236458332,
              "value": 0.5669291338582677
            },
            {
              "number": 7,
              "ticks": 210857,
              "time": 225.27478666041665,
              "value": 0.5669291338582677
            },
            {
              "number": 7,
              "ticks": 210880,
              "time": 225.2993593333333,
              "value": 0.5669291338582677
            },
            {
              "number": 7,
              "ticks": 210902,
              "time": 225.32286362916665,
              "value": 0.5669291338582677
            },
            {
              "number": 7,
              "ticks": 210924,
              "time": 225.34636792499998,
              "value": 0.5669291338582677
            },
            {
              "number": 7,
              "ticks": 210946,
              "time": 225.36987222083334,
              "value": 0.5669291338582677
            },
            {
              "number": 7,
              "ticks": 210969,
              "time": 225.39444489375,
              "value": 0.5669291338582677
            },
            {
              "number": 7,
              "ticks": 210991,
              "time": 225.41794918958334,
              "value": 0.5669291338582677
            },
            {
              "number": 7,
              "ticks": 211013,
              "time": 225.44145348541664,
              "value": 0.5669291338582677
            },
            {
              "number": 7,
              "ticks": 211035,
              "time": 225.46495778124998,
              "value": 0.5669291338582677
            },
            {
              "number": 7,
              "ticks": 211058,
              "time": 225.48953045416664,
              "value": 0.5669291338582677
            },
            {
              "number": 7,
              "ticks": 211080,
              "time": 225.51303474999997,
              "value": 0.5669291338582677
            },
            {
              "number": 7,
              "ticks": 211102,
              "time": 225.53653904583334,
              "value": 0.5669291338582677
            },
            {
              "number": 7,
              "ticks": 211124,
              "time": 225.56004334166664,
              "value": 0.5669291338582677
            },
            {
              "number": 7,
              "ticks": 211147,
              "time": 225.58461601458333,
              "value": 0.5669291338582677
            },
            {
              "number": 7,
              "ticks": 211169,
              "time": 225.60812031041664,
              "value": 0.5669291338582677
            },
            {
              "number": 7,
              "ticks": 211191,
              "time": 225.63162460624997,
              "value": 0.5669291338582677
            },
            {
              "number": 7,
              "ticks": 211214,
              "time": 225.65619727916663,
              "value": 0.5669291338582677
            },
            {
              "number": 7,
              "ticks": 211236,
              "time": 225.679701575,
              "value": 0.5669291338582677
            },
            {
              "number": 7,
              "ticks": 211258,
              "time": 225.70320587083333,
              "value": 0.5669291338582677
            },
            {
              "number": 7,
              "ticks": 211280,
              "time": 225.72671016666666,
              "value": 0.5669291338582677
            },
            {
              "number": 7,
              "ticks": 211303,
              "time": 225.75128283958333,
              "value": 0.5669291338582677
            },
            {
              "number": 7,
              "ticks": 211325,
              "time": 225.77478713541666,
              "value": 0.5669291338582677
            },
            {
              "number": 7,
              "ticks": 211347,
              "time": 225.79829143124996,
              "value": 0.5669291338582677
            },
            {
              "number": 7,
              "ticks": 211369,
              "time": 225.82179572708333,
              "value": 0.5669291338582677
            },
            {
              "number": 7,
              "ticks": 211392,
              "time": 225.8463684,
              "value": 0.5669291338582677
            },
            {
              "number": 7,
              "ticks": 211414,
              "time": 225.86987269583332,
              "value": 0.5669291338582677
            },
            {
              "number": 7,
              "ticks": 211436,
              "time": 225.89337699166666,
              "value": 0.5669291338582677
            },
            {
              "number": 7,
              "ticks": 211458,
              "time": 225.9168812875,
              "value": 0.5669291338582677
            },
            {
              "number": 7,
              "ticks": 211481,
              "time": 225.94145396041665,
              "value": 0.5669291338582677
            },
            {
              "number": 7,
              "ticks": 211503,
              "time": 225.96495825625,
              "value": 0.5669291338582677
            },
            {
              "number": 7,
              "ticks": 211525,
              "time": 225.98846255208332,
              "value": 0.5669291338582677
            },
            {
              "number": 7,
              "ticks": 211547,
              "time": 226.01196684791665,
              "value": 0.5590551181102362
            },
            {
              "number": 7,
              "ticks": 211570,
              "time": 226.03653952083332,
              "value": 0.5590551181102362
            },
            {
              "number": 7,
              "ticks": 211592,
              "time": 226.06004381666665,
              "value": 0.5590551181102362
            },
            {
              "number": 7,
              "ticks": 211614,
              "time": 226.08354811249998,
              "value": 0.5590551181102362
            },
            {
              "number": 7,
              "ticks": 211637,
              "time": 226.10812078541665,
              "value": 0.5590551181102362
            },
            {
              "number": 7,
              "ticks": 211659,
              "time": 226.13162508125,
              "value": 0.5590551181102362
            },
            {
              "number": 7,
              "ticks": 211681,
              "time": 226.15512937708334,
              "value": 0.5590551181102362
            },
            {
              "number": 7,
              "ticks": 211703,
              "time": 226.17863367291665,
              "value": 0.5590551181102362
            },
            {
              "number": 7,
              "ticks": 211726,
              "time": 226.20320634583334,
              "value": 0.5590551181102362
            },
            {
              "number": 7,
              "ticks": 211748,
              "time": 226.22671064166664,
              "value": 0.5590551181102362
            },
            {
              "number": 7,
              "ticks": 211770,
              "time": 226.25021493749998,
              "value": 0.5590551181102362
            },
            {
              "number": 7,
              "ticks": 211792,
              "time": 226.27371923333334,
              "value": 0.5590551181102362
            },
            {
              "number": 7,
              "ticks": 211815,
              "time": 226.29829190625,
              "value": 0.5590551181102362
            },
            {
              "number": 7,
              "ticks": 211837,
              "time": 226.32179620208333,
              "value": 0.5590551181102362
            },
            {
              "number": 7,
              "ticks": 211859,
              "time": 226.34530049791664,
              "value": 0.5590551181102362
            },
            {
              "number": 7,
              "ticks": 211881,
              "time": 226.36880479374997,
              "value": 0.5590551181102362
            },
            {
              "number": 7,
              "ticks": 211904,
              "time": 226.39337746666664,
              "value": 0.5590551181102362
            },
            {
              "number": 7,
              "ticks": 211926,
              "time": 226.41688176249997,
              "value": 0.5590551181102362
            },
            {
              "number": 7,
              "ticks": 211948,
              "time": 226.44038605833333,
              "value": 0.5590551181102362
            },
            {
              "number": 7,
              "ticks": 211970,
              "time": 226.46389035416667,
              "value": 0.5590551181102362
            },
            {
              "number": 7,
              "ticks": 211993,
              "time": 226.48846302708333,
              "value": 0.5590551181102362
            },
            {
              "number": 7,
              "ticks": 212015,
              "time": 226.51196732291666,
              "value": 0.5590551181102362
            },
            {
              "number": 7,
              "ticks": 212037,
              "time": 226.53547161874997,
              "value": 0.5590551181102362
            },
            {
              "number": 7,
              "ticks": 212060,
              "time": 226.56004429166666,
              "value": 0.5590551181102362
            },
            {
              "number": 7,
              "ticks": 212082,
              "time": 226.58354858749996,
              "value": 0.5590551181102362
            },
            {
              "number": 7,
              "ticks": 212104,
              "time": 226.60705288333332,
              "value": 0.5590551181102362
            },
            {
              "number": 7,
              "ticks": 212126,
              "time": 226.63055717916666,
              "value": 0.5590551181102362
            },
            {
              "number": 7,
              "ticks": 212149,
              "time": 226.65512985208332,
              "value": 0.5590551181102362
            },
            {
              "number": 7,
              "ticks": 212171,
              "time": 226.67863414791665,
              "value": 0.5590551181102362
            },
            {
              "number": 7,
              "ticks": 212193,
              "time": 226.70213844375,
              "value": 0.5590551181102362
            },
            {
              "number": 7,
              "ticks": 212215,
              "time": 226.72564273958332,
              "value": 0.5590551181102362
            },
            {
              "number": 7,
              "ticks": 212238,
              "time": 226.7502154125,
              "value": 0.5590551181102362
            },
            {
              "number": 7,
              "ticks": 212260,
              "time": 226.77371970833332,
              "value": 0.5511811023622047
            },
            {
              "number": 7,
              "ticks": 212282,
              "time": 226.79722400416665,
              "value": 0.5511811023622047
            },
            {
              "number": 7,
              "ticks": 212304,
              "time": 226.82072829999998,
              "value": 0.5511811023622047
            },
            {
              "number": 7,
              "ticks": 212327,
              "time": 226.84530097291665,
              "value": 0.5511811023622047
            },
            {
              "number": 7,
              "ticks": 212349,
              "time": 226.86880526874998,
              "value": 0.5511811023622047
            },
            {
              "number": 7,
              "ticks": 212371,
              "time": 226.89230956458334,
              "value": 0.5511811023622047
            },
            {
              "number": 7,
              "ticks": 212393,
              "time": 226.91581386041665,
              "value": 0.5511811023622047
            },
            {
              "number": 7,
              "ticks": 212416,
              "time": 226.94038653333334,
              "value": 0.5511811023622047
            },
            {
              "number": 7,
              "ticks": 212438,
              "time": 226.96389082916664,
              "value": 0.5511811023622047
            },
            {
              "number": 7,
              "ticks": 212460,
              "time": 226.98739512499998,
              "value": 0.5511811023622047
            },
            {
              "number": 7,
              "ticks": 212482,
              "time": 227.01089942083334,
              "value": 0.5511811023622047
            },
            {
              "number": 7,
              "ticks": 212505,
              "time": 227.03547209374997,
              "value": 0.5511811023622047
            },
            {
              "number": 7,
              "ticks": 212527,
              "time": 227.05897638958334,
              "value": 0.5511811023622047
            },
            {
              "number": 7,
              "ticks": 212549,
              "time": 227.08248068541664,
              "value": 0.5511811023622047
            },
            {
              "number": 7,
              "ticks": 212572,
              "time": 227.10705335833333,
              "value": 0.5511811023622047
            },
            {
              "number": 7,
              "ticks": 212594,
              "time": 227.13055765416664,
              "value": 0.5511811023622047
            },
            {
              "number": 7,
              "ticks": 212616,
              "time": 227.15406194999997,
              "value": 0.5511811023622047
            },
            {
              "number": 7,
              "ticks": 212638,
              "time": 227.17756624583333,
              "value": 0.5511811023622047
            },
            {
              "number": 7,
              "ticks": 212661,
              "time": 227.20213891875,
              "value": 0.5511811023622047
            },
            {
              "number": 7,
              "ticks": 212683,
              "time": 227.22564321458333,
              "value": 0.5511811023622047
            },
            {
              "number": 7,
              "ticks": 212705,
              "time": 227.24914751041666,
              "value": 0.5511811023622047
            },
            {
              "number": 7,
              "ticks": 212727,
              "time": 227.27265180624997,
              "value": 0.5511811023622047
            },
            {
              "number": 7,
              "ticks": 212750,
              "time": 227.29722447916666,
              "value": 0.5511811023622047
            },
            {
              "number": 7,
              "ticks": 212772,
              "time": 227.32072877499996,
              "value": 0.5511811023622047
            },
            {
              "number": 7,
              "ticks": 212794,
              "time": 227.34423307083333,
              "value": 0.5511811023622047
            },
            {
              "number": 7,
              "ticks": 212816,
              "time": 227.36773736666666,
              "value": 0.5511811023622047
            },
            {
              "number": 7,
              "ticks": 212839,
              "time": 227.39231003958332,
              "value": 0.5511811023622047
            },
            {
              "number": 7,
              "ticks": 212861,
              "time": 227.41581433541666,
              "value": 0.5511811023622047
            },
            {
              "number": 7,
              "ticks": 212883,
              "time": 227.43931863125,
              "value": 0.5511811023622047
            },
            {
              "number": 7,
              "ticks": 212905,
              "time": 227.46282292708332,
              "value": 0.5511811023622047
            },
            {
              "number": 7,
              "ticks": 212928,
              "time": 227.48739559999999,
              "value": 0.5511811023622047
            },
            {
              "number": 7,
              "ticks": 212950,
              "time": 227.51089989583332,
              "value": 0.5511811023622047
            },
            {
              "number": 7,
              "ticks": 212950,
              "time": 227.51089989583332,
              "value": 0.5511811023622047
            },
            {
              "number": 7,
              "ticks": 243135,
              "time": 259.75986215625,
              "value": 0.5905511811023622
            },
            {
              "number": 7,
              "ticks": 243135,
              "time": 259.75986215625,
              "value": 0.5984251968503937
            }
          ],
          "10": [
            {
              "number": 10,
              "ticks": 174125,
              "time": 186.03115963541666,
              "value": 0.30708661417322836
            },
            {
              "number": 10,
              "ticks": 174125,
              "time": 186.03115963541666,
              "value": 0.30708661417322836
            },
            {
              "number": 10,
              "ticks": 174449,
              "time": 186.37731381041664,
              "value": 0.30708661417322836
            },
            {
              "number": 10,
              "ticks": 174772,
              "time": 186.72239960833332,
              "value": 0.31496062992125984
            },
            {
              "number": 10,
              "ticks": 175096,
              "time": 187.06855378333333,
              "value": 0.3228346456692913
            },
            {
              "number": 10,
              "ticks": 175419,
              "time": 187.41363958124998,
              "value": 0.33070866141732286
            },
            {
              "number": 10,
              "ticks": 175743,
              "time": 187.75979375625,
              "value": 0.33858267716535434
            },
            {
              "number": 10,
              "ticks": 176067,
              "time": 188.10594793124997,
              "value": 0.3464566929133858
            },
            {
              "number": 10,
              "ticks": 176390,
              "time": 188.45103372916665,
              "value": 0.3543307086614173
            },
            {
              "number": 10,
              "ticks": 176714,
              "time": 188.79718790416663,
              "value": 0.36220472440944884
            },
            {
              "number": 10,
              "ticks": 177037,
              "time": 189.14227370208334,
              "value": 0.3700787401574803
            },
            {
              "number": 10,
              "ticks": 177360,
              "time": 189.4873595,
              "value": 0.3779527559055118
            },
            {
              "number": 10,
              "ticks": 177685,
              "time": 189.8345820520833,
              "value": 0.3858267716535433
            },
            {
              "number": 10,
              "ticks": 178008,
              "time": 190.17966785,
              "value": 0.3937007874015748
            },
            {
              "number": 10,
              "ticks": 178332,
              "time": 190.52582202499997,
              "value": 0.4015748031496063
            },
            {
              "number": 10,
              "ticks": 178656,
              "time": 190.87197619999998,
              "value": 0.4094488188976378
            },
            {
              "number": 10,
              "ticks": 178979,
              "time": 191.21706199791663,
              "value": 0.41732283464566927
            },
            {
              "number": 10,
              "ticks": 179303,
              "time": 191.56321617291664,
              "value": 0.4251968503937008
            },
            {
              "number": 10,
              "ticks": 179626,
              "time": 191.90830197083335,
              "value": 0.4330708661417323
            },
            {
              "number": 10,
              "ticks": 179950,
              "time": 192.2544561458333,
              "value": 0.4409448818897638
            },
            {
              "number": 10,
              "ticks": 180273,
              "time": 192.59954194375,
              "value": 0.44881889763779526
            },
            {
              "number": 10,
              "ticks": 180597,
              "time": 192.94569611874996,
              "value": 0.4566929133858268
            },
            {
              "number": 10,
              "ticks": 180921,
              "time": 193.29185029374997,
              "value": 0.4645669291338583
            },
            {
              "number": 10,
              "ticks": 181244,
              "time": 193.63693609166666,
              "value": 0.47244094488188976
            },
            {
              "number": 10,
              "ticks": 181568,
              "time": 193.98309026666664,
              "value": 0.48031496062992124
            },
            {
              "number": 10,
              "ticks": 181891,
              "time": 194.32817606458335,
              "value": 0.4881889763779528
            }
          ],
          "11": [
            {
              "number": 11,
              "ticks": 259225,
              "time": 276.95004942708334,
              "value": 1
            },
            {
              "number": 11,
              "ticks": 259345,
              "time": 277.07825467708335,
              "value": 0.9921259842519685
            },
            {
              "number": 11,
              "ticks": 259445,
              "time": 277.1850923854166,
              "value": 0.984251968503937
            },
            {
              "number": 11,
              "ticks": 259545,
              "time": 277.29193009375,
              "value": 0.9763779527559056
            },
            {
              "number": 11,
              "ticks": 259665,
              "time": 277.42013534374996,
              "value": 0.968503937007874
            },
            {
              "number": 11,
              "ticks": 259765,
              "time": 277.52697305208335,
              "value": 0.9606299212598425
            },
            {
              "number": 11,
              "ticks": 259865,
              "time": 277.6338107604166,
              "value": 0.952755905511811
            },
            {
              "number": 11,
              "ticks": 259965,
              "time": 277.74064846875,
              "value": 0.9448818897637795
            },
            {
              "number": 11,
              "ticks": 260085,
              "time": 277.86885371874996,
              "value": 0.937007874015748
            },
            {
              "number": 11,
              "ticks": 260185,
              "time": 277.97569142708335,
              "value": 0.9291338582677166
            },
            {
              "number": 11,
              "ticks": 260285,
              "time": 278.0825291354166,
              "value": 0.9212598425196851
            },
            {
              "number": 11,
              "ticks": 260385,
              "time": 278.18936684375,
              "value": 0.9133858267716536
            },
            {
              "number": 11,
              "ticks": 260505,
              "time": 278.31757209374996,
              "value": 0.905511811023622
            },
            {
              "number": 11,
              "ticks": 260605,
              "time": 278.42440980208335,
              "value": 0.8976377952755905
            },
            {
              "number": 11,
              "ticks": 260705,
              "time": 278.5312475104166,
              "value": 0.889763779527559
            },
            {
              "number": 11,
              "ticks": 260805,
              "time": 278.63808521875,
              "value": 0.8818897637795275
            },
            {
              "number": 11,
              "ticks": 260925,
              "time": 278.76629046874996,
              "value": 0.8740157480314961
            },
            {
              "number": 11,
              "ticks": 261025,
              "time": 278.87312817708334,
              "value": 0.8661417322834646
            },
            {
              "number": 11,
              "ticks": 261125,
              "time": 278.9799658854166,
              "value": 0.8582677165354331
            },
            {
              "number": 11,
              "ticks": 261225,
              "time": 279.08680359375,
              "value": 0.8503937007874016
            },
            {
              "number": 11,
              "ticks": 261345,
              "time": 279.21500884374996,
              "value": 0.84251968503937
            },
            {
              "number": 11,
              "ticks": 261445,
              "time": 279.32184655208334,
              "value": 0.8346456692913385
            },
            {
              "number": 11,
              "ticks": 261545,
              "time": 279.4286842604166,
              "value": 0.8267716535433071
            },
            {
              "number": 11,
              "ticks": 261645,
              "time": 279.53552196875,
              "value": 0.8188976377952756
            },
            {
              "number": 11,
              "ticks": 261765,
              "time": 279.66372721875,
              "value": 0.8110236220472441
            },
            {
              "number": 11,
              "ticks": 261865,
              "time": 279.77056492708334,
              "value": 0.8031496062992126
            },
            {
              "number": 11,
              "ticks": 261965,
              "time": 279.8774026354166,
              "value": 0.7952755905511811
            },
            {
              "number": 11,
              "ticks": 262065,
              "time": 279.98424034375,
              "value": 0.7874015748031497
            },
            {
              "number": 11,
              "ticks": 262185,
              "time": 280.11244559375,
              "value": 0.7795275590551181
            },
            {
              "number": 11,
              "ticks": 262285,
              "time": 280.21928330208334,
              "value": 0.7716535433070866
            },
            {
              "number": 11,
              "ticks": 262385,
              "time": 280.3261210104166,
              "value": 0.7637795275590551
            },
            {
              "number": 11,
              "ticks": 262485,
              "time": 280.43295871875,
              "value": 0.7559055118110236
            },
            {
              "number": 11,
              "ticks": 262605,
              "time": 280.56116396875,
              "value": 0.7480314960629921
            },
            {
              "number": 11,
              "ticks": 262705,
              "time": 280.66800167708334,
              "value": 0.7401574803149606
            },
            {
              "number": 11,
              "ticks": 262805,
              "time": 280.7748393854166,
              "value": 0.7322834645669292
            },
            {
              "number": 11,
              "ticks": 262905,
              "time": 280.88167709375,
              "value": 0.7244094488188977
            },
            {
              "number": 11,
              "ticks": 263025,
              "time": 281.00988234375,
              "value": 0.7165354330708661
            },
            {
              "number": 11,
              "ticks": 263125,
              "time": 281.11672005208334,
              "value": 0.7086614173228346
            },
            {
              "number": 11,
              "ticks": 263225,
              "time": 281.2235577604166,
              "value": 0.7007874015748031
            },
            {
              "number": 11,
              "ticks": 263325,
              "time": 281.33039546875,
              "value": 0.6929133858267716
            },
            {
              "number": 11,
              "ticks": 263445,
              "time": 281.45860071875,
              "value": 0.6850393700787402
            },
            {
              "number": 11,
              "ticks": 263545,
              "time": 281.56543842708334,
              "value": 0.6771653543307087
            },
            {
              "number": 11,
              "ticks": 263645,
              "time": 281.6722761354166,
              "value": 0.6692913385826772
            },
            {
              "number": 11,
              "ticks": 263745,
              "time": 281.77911384375,
              "value": 0.6614173228346457
            },
            {
              "number": 11,
              "ticks": 263865,
              "time": 281.90731909375,
              "value": 0.6535433070866141
            },
            {
              "number": 11,
              "ticks": 263965,
              "time": 282.01415680208333,
              "value": 0.6456692913385826
            },
            {
              "number": 11,
              "ticks": 264065,
              "time": 282.1209945104166,
              "value": 0.6377952755905512
            },
            {
              "number": 11,
              "ticks": 264165,
              "time": 282.22783221875,
              "value": 0.6299212598425197
            },
            {
              "number": 11,
              "ticks": 264285,
              "time": 282.35603746875,
              "value": 0.6220472440944882
            },
            {
              "number": 11,
              "ticks": 264385,
              "time": 282.46287517708333,
              "value": 0.6141732283464567
            },
            {
              "number": 11,
              "ticks": 264485,
              "time": 282.5697128854166,
              "value": 0.6062992125984252
            },
            {
              "number": 11,
              "ticks": 264585,
              "time": 282.67655059375,
              "value": 0.5984251968503937
            },
            {
              "number": 11,
              "ticks": 264705,
              "time": 282.80475584375,
              "value": 0.5905511811023622
            },
            {
              "number": 11,
              "ticks": 264805,
              "time": 282.91159355208333,
              "value": 0.5826771653543307
            },
            {
              "number": 11,
              "ticks": 264905,
              "time": 283.0184312604166,
              "value": 0.5748031496062992
            },
            {
              "number": 11,
              "ticks": 265005,
              "time": 283.12526896875,
              "value": 0.5669291338582677
            },
            {
              "number": 11,
              "ticks": 265125,
              "time": 283.25347421875,
              "value": 0.5590551181102362
            },
            {
              "number": 11,
              "ticks": 265225,
              "time": 283.36031192708333,
              "value": 0.5511811023622047
            },
            {
              "number": 11,
              "ticks": 265325,
              "time": 283.4671496354166,
              "value": 0.5433070866141733
            },
            {
              "number": 11,
              "ticks": 265425,
              "time": 283.57398734375,
              "value": 0.5354330708661418
            },
            {
              "number": 11,
              "ticks": 265545,
              "time": 283.70219259375,
              "value": 0.5275590551181102
            },
            {
              "number": 11,
              "ticks": 265645,
              "time": 283.80903030208333,
              "value": 0.5196850393700787
            },
            {
              "number": 11,
              "ticks": 265745,
              "time": 283.91586801041666,
              "value": 0.5118110236220472
            },
            {
              "number": 11,
              "ticks": 265845,
              "time": 284.02270571875,
              "value": 0.5039370078740157
            },
            {
              "number": 11,
              "ticks": 265965,
              "time": 284.15091096875,
              "value": 0.49606299212598426
            },
            {
              "number": 11,
              "ticks": 266065,
              "time": 284.2577486770833,
              "value": 0.4881889763779528
            },
            {
              "number": 11,
              "ticks": 266165,
              "time": 284.36458638541666,
              "value": 0.48031496062992124
            },
            {
              "number": 11,
              "ticks": 266265,
              "time": 284.47142409375,
              "value": 0.47244094488188976
            },
            {
              "number": 11,
              "ticks": 266385,
              "time": 284.59962934375,
              "value": 0.4645669291338583
            },
            {
              "number": 11,
              "ticks": 266485,
              "time": 284.7064670520833,
              "value": 0.4566929133858268
            },
            {
              "number": 11,
              "ticks": 266585,
              "time": 284.81330476041666,
              "value": 0.44881889763779526
            },
            {
              "number": 11,
              "ticks": 266685,
              "time": 284.92014246875,
              "value": 0.4409448818897638
            },
            {
              "number": 11,
              "ticks": 266805,
              "time": 285.04834771875,
              "value": 0.4330708661417323
            },
            {
              "number": 11,
              "ticks": 266905,
              "time": 285.1551854270833,
              "value": 0.4251968503937008
            },
            {
              "number": 11,
              "ticks": 267005,
              "time": 285.26202313541665,
              "value": 0.41732283464566927
            },
            {
              "number": 11,
              "ticks": 267105,
              "time": 285.36886084375,
              "value": 0.4094488188976378
            },
            {
              "number": 11,
              "ticks": 267225,
              "time": 285.49706609375,
              "value": 0.4015748031496063
            },
            {
              "number": 11,
              "ticks": 267325,
              "time": 285.6039038020833,
              "value": 0.3937007874015748
            },
            {
              "number": 11,
              "ticks": 267425,
              "time": 285.71074151041665,
              "value": 0.3858267716535433
            },
            {
              "number": 11,
              "ticks": 267525,
              "time": 285.81757921875,
              "value": 0.3779527559055118
            },
            {
              "number": 11,
              "ticks": 267645,
              "time": 285.94578446875,
              "value": 0.3700787401574803
            },
            {
              "number": 11,
              "ticks": 267745,
              "time": 286.0526221770833,
              "value": 0.36220472440944884
            },
            {
              "number": 11,
              "ticks": 267845,
              "time": 286.15945988541665,
              "value": 0.3543307086614173
            },
            {
              "number": 11,
              "ticks": 267945,
              "time": 286.26629759375,
              "value": 0.3464566929133858
            },
            {
              "number": 11,
              "ticks": 268065,
              "time": 286.39450284375,
              "value": 0.33858267716535434
            },
            {
              "number": 11,
              "ticks": 268165,
              "time": 286.5013405520833,
              "value": 0.33070866141732286
            },
            {
              "number": 11,
              "ticks": 268265,
              "time": 286.60817826041665,
              "value": 0.3228346456692913
            },
            {
              "number": 11,
              "ticks": 268365,
              "time": 286.71501596875,
              "value": 0.31496062992125984
            },
            {
              "number": 11,
              "ticks": 268485,
              "time": 286.84322121875,
              "value": 0.30708661417322836
            },
            {
              "number": 11,
              "ticks": 268585,
              "time": 286.9500589270833,
              "value": 0.2992125984251969
            },
            {
              "number": 11,
              "ticks": 268685,
              "time": 287.05689663541665,
              "value": 0.29133858267716534
            },
            {
              "number": 11,
              "ticks": 268785,
              "time": 287.16373434375,
              "value": 0.28346456692913385
            },
            {
              "number": 11,
              "ticks": 268905,
              "time": 287.29193959375,
              "value": 0.2755905511811024
            },
            {
              "number": 11,
              "ticks": 269005,
              "time": 287.3987773020833,
              "value": 0.2677165354330709
            },
            {
              "number": 11,
              "ticks": 269105,
              "time": 287.50561501041665,
              "value": 0.25984251968503935
            },
            {
              "number": 11,
              "ticks": 269205,
              "time": 287.61245271875,
              "value": 0.25196850393700787
            },
            {
              "number": 11,
              "ticks": 269325,
              "time": 287.74065796875,
              "value": 0.2440944881889764
            },
            {
              "number": 11,
              "ticks": 269425,
              "time": 287.8474956770833,
              "value": 0.23622047244094488
            },
            {
              "number": 11,
              "ticks": 269525,
              "time": 287.95433338541665,
              "value": 0.2283464566929134
            },
            {
              "number": 11,
              "ticks": 269625,
              "time": 288.06117109375,
              "value": 0.2204724409448819
            },
            {
              "number": 11,
              "ticks": 269745,
              "time": 288.18937634375,
              "value": 0.2125984251968504
            },
            {
              "number": 11,
              "ticks": 269845,
              "time": 288.2962140520833,
              "value": 0.2047244094488189
            },
            {
              "number": 11,
              "ticks": 269945,
              "time": 288.40305176041664,
              "value": 0.1968503937007874
            },
            {
              "number": 11,
              "ticks": 270045,
              "time": 288.50988946875,
              "value": 0.1889763779527559
            },
            {
              "number": 11,
              "ticks": 270165,
              "time": 288.63809471875,
              "value": 0.18110236220472442
            },
            {
              "number": 11,
              "ticks": 270265,
              "time": 288.7449324270833,
              "value": 0.1732283464566929
            },
            {
              "number": 11,
              "ticks": 270365,
              "time": 288.85177013541664,
              "value": 0.16535433070866143
            },
            {
              "number": 11,
              "ticks": 270465,
              "time": 288.95860784375,
              "value": 0.15748031496062992
            },
            {
              "number": 11,
              "ticks": 270585,
              "time": 289.08681309375,
              "value": 0.14960629921259844
            },
            {
              "number": 11,
              "ticks": 270685,
              "time": 289.1936508020833,
              "value": 0.14173228346456693
            },
            {
              "number": 11,
              "ticks": 270785,
              "time": 289.30048851041664,
              "value": 0.13385826771653545
            },
            {
              "number": 11,
              "ticks": 270885,
              "time": 289.40732621875,
              "value": 0.12598425196850394
            },
            {
              "number": 11,
              "ticks": 271005,
              "time": 289.53553146875,
              "value": 0.11811023622047244
            },
            {
              "number": 11,
              "ticks": 271105,
              "time": 289.6423691770833,
              "value": 0.11023622047244094
            },
            {
              "number": 11,
              "ticks": 271205,
              "time": 289.74920688541664,
              "value": 0.10236220472440945
            },
            {
              "number": 11,
              "ticks": 271305,
              "time": 289.85604459374997,
              "value": 0.09448818897637795
            },
            {
              "number": 11,
              "ticks": 271425,
              "time": 289.98424984375,
              "value": 0.08661417322834646
            },
            {
              "number": 11,
              "ticks": 271525,
              "time": 290.0910875520833,
              "value": 0.07874015748031496
            },
            {
              "number": 11,
              "ticks": 271625,
              "time": 290.19792526041664,
              "value": 0.07086614173228346
            },
            {
              "number": 11,
              "ticks": 271725,
              "time": 290.30476296874997,
              "value": 0.06299212598425197
            },
            {
              "number": 11,
              "ticks": 271845,
              "time": 290.43296821875,
              "value": 0.05511811023622047
            },
            {
              "number": 11,
              "ticks": 271945,
              "time": 290.53980592708336,
              "value": 0.047244094488188976
            },
            {
              "number": 11,
              "ticks": 272045,
              "time": 290.64664363541664,
              "value": 0.03937007874015748
            },
            {
              "number": 11,
              "ticks": 272145,
              "time": 290.75348134374997,
              "value": 0.031496062992125984
            },
            {
              "number": 11,
              "ticks": 272265,
              "time": 290.88168659375,
              "value": 0.023622047244094488
            },
            {
              "number": 11,
              "ticks": 272365,
              "time": 290.98852430208336,
              "value": 0.015748031496062992
            },
            {
              "number": 11,
              "ticks": 272465,
              "time": 291.09536201041664,
              "value": 0.007874015748031496
            },
            {
              "number": 11,
              "ticks": 272565,
              "time": 291.20219971874997,
              "value": 0
            }
          ],
          "32": [
            {
              "number": 32,
              "ticks": 175028,
              "time": 186.99590414166664,
              "value": 0.05511811023622047
            },
            {
              "number": 32,
              "ticks": 176041,
              "time": 188.07817012708333,
              "value": 0.047244094488188976
            },
            {
              "number": 32,
              "ticks": 177055,
              "time": 189.1615044895833,
              "value": 0.03937007874015748
            },
            {
              "number": 32,
              "ticks": 178068,
              "time": 190.243770475,
              "value": 0.031496062992125984
            },
            {
              "number": 32,
              "ticks": 179081,
              "time": 191.32603646041667,
              "value": 0.023622047244094488
            },
            {
              "number": 32,
              "ticks": 180094,
              "time": 192.40830244583333,
              "value": 0.015748031496062992
            },
            {
              "number": 32,
              "ticks": 181107,
              "time": 193.49056843124998,
              "value": 0.007874015748031496
            },
            {
              "number": 32,
              "ticks": 182120,
              "time": 194.57283441666667,
              "value": 0
            },
            {
              "number": 32,
              "ticks": 182120,
              "time": 194.57283441666667,
              "value": 0
            }
          ],
          "120": [
            {
              "number": 120,
              "ticks": 272865,
              "time": 291.52271284374996,
              "value": 0
            }
          ],
          "123": [
            {
              "number": 123,
              "ticks": 272935,
              "time": 291.5974992395833,
              "value": 0
            }
          ]
        },
        "pitchBends": [],
        "instrument": {
          "family": "guitar",
          "number": 28,
          "name": "electric guitar (muted)"
        },
        "name": "",
        "notes": [
          {
            "duration": 0.0032051312500129825,
            "durationTicks": 3,
            "midi": 54,
            "name": "F#3",
            "ticks": 174480,
            "time": 186.41043349999998,
            "velocity": 0.6771653543307087
          },
          {
            "duration": 0.0032051312500129825,
            "durationTicks": 3,
            "midi": 66,
            "name": "F#4",
            "ticks": 174480,
            "time": 186.41043349999998,
            "velocity": 0.5984251968503937
          },
          {
            "duration": 0.0032051312500129825,
            "durationTicks": 3,
            "midi": 54,
            "name": "F#3",
            "ticks": 174600,
            "time": 186.53863875,
            "velocity": 0.6850393700787402
          },
          {
            "duration": 0.0032051312500129825,
            "durationTicks": 3,
            "midi": 66,
            "name": "F#4",
            "ticks": 174600,
            "time": 186.53863875,
            "velocity": 0.5984251968503937
          },
          {
            "duration": 0.06196587083331906,
            "durationTicks": 58,
            "midi": 61,
            "name": "C#4",
            "ticks": 174720,
            "time": 186.666844,
            "velocity": 0.9448818897637795
          },
          {
            "duration": 0.06410262500000385,
            "durationTicks": 60,
            "midi": 61,
            "name": "C#4",
            "ticks": 174840,
            "time": 186.79504924999998,
            "velocity": 0.9448818897637795
          },
          {
            "duration": 0.03205131250001614,
            "durationTicks": 30,
            "midi": 61,
            "name": "C#4",
            "ticks": 174960,
            "time": 186.92325449999998,
            "velocity": 0.6377952755905512
          },
          {
            "duration": 0.0801282812499835,
            "durationTicks": 75,
            "midi": 59,
            "name": "B3",
            "ticks": 175080,
            "time": 187.05145975,
            "velocity": 0.9448818897637795
          },
          {
            "duration": 0.0587607395833345,
            "durationTicks": 55,
            "midi": 57,
            "name": "A3",
            "ticks": 175320,
            "time": 187.30787024999998,
            "velocity": 0.7480314960629921
          },
          {
            "duration": 0.06196587083334748,
            "durationTicks": 58,
            "midi": 60,
            "name": "C4",
            "ticks": 175440,
            "time": 187.4360755,
            "velocity": 0.9448818897637795
          },
          {
            "duration": 0.8119665833333158,
            "durationTicks": 760,
            "midi": 61,
            "name": "C#4",
            "ticks": 175500,
            "time": 187.500178125,
            "velocity": 0.9448818897637795
          },
          {
            "duration": 0.06196587083334748,
            "durationTicks": 58,
            "midi": 61,
            "name": "C#4",
            "ticks": 176640,
            "time": 188.71812799999998,
            "velocity": 0.9448818897637795
          },
          {
            "duration": 0.06196587083334748,
            "durationTicks": 58,
            "midi": 61,
            "name": "C#4",
            "ticks": 176760,
            "time": 188.84633325,
            "velocity": 0.9448818897637795
          },
          {
            "duration": 0.0566239854166497,
            "durationTicks": 53,
            "midi": 61,
            "name": "C#4",
            "ticks": 176880,
            "time": 188.9745385,
            "velocity": 0.6220472440944882
          },
          {
            "duration": 0.06410262499997543,
            "durationTicks": 60,
            "midi": 59,
            "name": "B3",
            "ticks": 177000,
            "time": 189.10274375,
            "velocity": 0.9448818897637795
          },
          {
            "duration": 0.07264964166665777,
            "durationTicks": 68,
            "midi": 57,
            "name": "A3",
            "ticks": 177240,
            "time": 189.35915425,
            "velocity": 0.8267716535433071
          },
          {
            "duration": 0.7831204020833411,
            "durationTicks": 733,
            "midi": 61,
            "name": "C#4",
            "ticks": 177360,
            "time": 189.4873595,
            "velocity": 0.9448818897637795
          },
          {
            "duration": 0.06089749374999087,
            "durationTicks": 57,
            "midi": 61,
            "name": "C#4",
            "ticks": 178560,
            "time": 190.769412,
            "velocity": 0.9448818897637795
          },
          {
            "duration": 0.07264964166665777,
            "durationTicks": 68,
            "midi": 61,
            "name": "C#4",
            "ticks": 178680,
            "time": 190.89761725,
            "velocity": 0.9448818897637795
          },
          {
            "duration": 0.056623985416678124,
            "durationTicks": 53,
            "midi": 61,
            "name": "C#4",
            "ticks": 178800,
            "time": 191.02582249999998,
            "velocity": 0.7007874015748031
          },
          {
            "duration": 0.07478639583334257,
            "durationTicks": 70,
            "midi": 59,
            "name": "B3",
            "ticks": 178920,
            "time": 191.15402774999998,
            "velocity": 0.9448818897637795
          },
          {
            "duration": 0.048076968749995785,
            "durationTicks": 45,
            "midi": 57,
            "name": "A3",
            "ticks": 179160,
            "time": 191.41043825,
            "velocity": 0.7401574803149606
          },
          {
            "duration": 0.021367541666677425,
            "durationTicks": 20,
            "midi": 60,
            "name": "C4",
            "ticks": 179220,
            "time": 191.474540875,
            "velocity": 0.49606299212598426
          },
          {
            "duration": 1.0149582291666945,
            "durationTicks": 950,
            "midi": 61,
            "name": "C#4",
            "ticks": 179280,
            "time": 191.53864349999998,
            "velocity": 0.9448818897637795
          },
          {
            "duration": 0.06944451041667321,
            "durationTicks": 65,
            "midi": 61,
            "name": "C#4",
            "ticks": 180480,
            "time": 192.820696,
            "velocity": 0.9448818897637795
          },
          {
            "duration": 0.06730775625001684,
            "durationTicks": 63,
            "midi": 61,
            "name": "C#4",
            "ticks": 180600,
            "time": 192.94890124999998,
            "velocity": 0.9448818897637795
          },
          {
            "duration": 0.048076968749995785,
            "durationTicks": 45,
            "midi": 61,
            "name": "C#4",
            "ticks": 180720,
            "time": 193.07710649999999,
            "velocity": 0.6456692913385826
          },
          {
            "duration": 0.07264964166665777,
            "durationTicks": 68,
            "midi": 59,
            "name": "B3",
            "ticks": 180840,
            "time": 193.20531175,
            "velocity": 0.9448818897637795
          },
          {
            "duration": 0.06944451041667321,
            "durationTicks": 65,
            "midi": 57,
            "name": "A3",
            "ticks": 181080,
            "time": 193.46172224999998,
            "velocity": 0.7244094488188977
          },
          {
            "duration": 0.8012828125000055,
            "durationTicks": 750,
            "midi": 61,
            "name": "C#4",
            "ticks": 181200,
            "time": 193.5899275,
            "velocity": 0.9448818897637795
          },
          {
            "duration": 0.002136754166656374,
            "durationTicks": 2,
            "midi": 54,
            "name": "F#3",
            "ticks": 197520,
            "time": 211.02584149999998,
            "velocity": 1
          },
          {
            "duration": 0.0032051312500129825,
            "durationTicks": 3,
            "midi": 54,
            "name": "F#3",
            "ticks": 197640,
            "time": 211.15404675,
            "velocity": 1
          },
          {
            "duration": 0.07478639583331415,
            "durationTicks": 70,
            "midi": 61,
            "name": "C#4",
            "ticks": 197760,
            "time": 211.282252,
            "velocity": 1
          },
          {
            "duration": 0.08547016666668128,
            "durationTicks": 80,
            "midi": 61,
            "name": "C#4",
            "ticks": 197880,
            "time": 211.41045724999998,
            "velocity": 1
          },
          {
            "duration": 0.01602565625000807,
            "durationTicks": 15,
            "midi": 50,
            "name": "D3",
            "ticks": 198000,
            "time": 211.5386625,
            "velocity": 0.5590551181102362
          },
          {
            "duration": 0.15811980833333905,
            "durationTicks": 148,
            "midi": 59,
            "name": "B3",
            "ticks": 198120,
            "time": 211.66686775,
            "velocity": 1
          },
          {
            "duration": 0.056623985416678124,
            "durationTicks": 53,
            "midi": 57,
            "name": "A3",
            "ticks": 198360,
            "time": 211.92327824999998,
            "velocity": 1
          },
          {
            "duration": 0.04273508333332643,
            "durationTicks": 40,
            "midi": 60,
            "name": "C4",
            "ticks": 198480,
            "time": 212.0514835,
            "velocity": 1
          },
          {
            "duration": 0.8311973708333369,
            "durationTicks": 778,
            "midi": 61,
            "name": "C#4",
            "ticks": 198480,
            "time": 212.0514835,
            "velocity": 1
          },
          {
            "duration": 0.0032051312500129825,
            "durationTicks": 3,
            "midi": 54,
            "name": "F#3",
            "ticks": 199440,
            "time": 213.0771255,
            "velocity": 0.952755905511811
          },
          {
            "duration": 0.0032051312499845608,
            "durationTicks": 3,
            "midi": 54,
            "name": "F#3",
            "ticks": 199560,
            "time": 213.20533075,
            "velocity": 0.9448818897637795
          },
          {
            "duration": 0.0833334125000249,
            "durationTicks": 78,
            "midi": 61,
            "name": "C#4",
            "ticks": 199680,
            "time": 213.33353599999998,
            "velocity": 1
          },
          {
            "duration": 0.09935906875000455,
            "durationTicks": 93,
            "midi": 61,
            "name": "C#4",
            "ticks": 199800,
            "time": 213.46174125,
            "velocity": 1
          },
          {
            "duration": 0.03739319791665707,
            "durationTicks": 35,
            "midi": 50,
            "name": "D3",
            "ticks": 199920,
            "time": 213.5899465,
            "velocity": 0.5590551181102362
          },
          {
            "duration": 0.1282052500000077,
            "durationTicks": 120,
            "midi": 59,
            "name": "B3",
            "ticks": 200040,
            "time": 213.71815174999998,
            "velocity": 1
          },
          {
            "duration": 0.07478639583331415,
            "durationTicks": 70,
            "midi": 57,
            "name": "A3",
            "ticks": 200280,
            "time": 213.97456225,
            "velocity": 1
          },
          {
            "duration": 0.005341885416669356,
            "durationTicks": 5,
            "midi": 59,
            "name": "B3",
            "ticks": 200340,
            "time": 214.038664875,
            "velocity": 0.8031496062992126
          },
          {
            "duration": 0.032051312499987716,
            "durationTicks": 30,
            "midi": 60,
            "name": "C4",
            "ticks": 200400,
            "time": 214.1027675,
            "velocity": 0.8661417322834646
          },
          {
            "duration": 0.881411093749989,
            "durationTicks": 825,
            "midi": 61,
            "name": "C#4",
            "ticks": 200400,
            "time": 214.1027675,
            "velocity": 1
          },
          {
            "duration": 0.03205131250001614,
            "durationTicks": 30,
            "midi": 54,
            "name": "F#3",
            "ticks": 201360,
            "time": 215.12840949999998,
            "velocity": 0.952755905511811
          },
          {
            "duration": 0.03205131250001614,
            "durationTicks": 30,
            "midi": 54,
            "name": "F#3",
            "ticks": 201480,
            "time": 215.25661474999998,
            "velocity": 0.9606299212598425
          },
          {
            "duration": 0.08333341249999648,
            "durationTicks": 78,
            "midi": 61,
            "name": "C#4",
            "ticks": 201600,
            "time": 215.38482,
            "velocity": 1
          },
          {
            "duration": 0.09935906875000455,
            "durationTicks": 93,
            "midi": 61,
            "name": "C#4",
            "ticks": 201720,
            "time": 215.51302525,
            "velocity": 1
          },
          {
            "duration": 0.1282052500000077,
            "durationTicks": 120,
            "midi": 59,
            "name": "B3",
            "ticks": 201960,
            "time": 215.76943574999999,
            "velocity": 1
          },
          {
            "duration": 0.05341885416666514,
            "durationTicks": 50,
            "midi": 57,
            "name": "A3",
            "ticks": 202200,
            "time": 216.02584625,
            "velocity": 0.8031496062992126
          },
          {
            "duration": 0.9294880625000133,
            "durationTicks": 870,
            "midi": 61,
            "name": "C#4",
            "ticks": 202320,
            "time": 216.15405149999998,
            "velocity": 1
          },
          {
            "duration": 0.0032051312500129825,
            "durationTicks": 3,
            "midi": 54,
            "name": "F#3",
            "ticks": 203280,
            "time": 217.17969349999998,
            "velocity": 0.9448818897637795
          },
          {
            "duration": 0.0032051312500129825,
            "durationTicks": 3,
            "midi": 54,
            "name": "F#3",
            "ticks": 203400,
            "time": 217.30789875,
            "velocity": 0.952755905511811
          },
          {
            "duration": 0.08333341249999648,
            "durationTicks": 78,
            "midi": 61,
            "name": "C#4",
            "ticks": 203520,
            "time": 217.436104,
            "velocity": 1
          },
          {
            "duration": 0.08012828125001192,
            "durationTicks": 75,
            "midi": 61,
            "name": "C#4",
            "ticks": 203640,
            "time": 217.56430924999998,
            "velocity": 1
          },
          {
            "duration": 0.010683770833310291,
            "durationTicks": 10,
            "midi": 50,
            "name": "D3",
            "ticks": 203820,
            "time": 217.756617125,
            "velocity": 0.2755905511811024
          },
          {
            "duration": 0.14209415208333098,
            "durationTicks": 133,
            "midi": 59,
            "name": "B3",
            "ticks": 203880,
            "time": 217.82071975,
            "velocity": 1
          },
          {
            "duration": 0.08012828125001192,
            "durationTicks": 75,
            "midi": 57,
            "name": "A3",
            "ticks": 204120,
            "time": 218.07713024999998,
            "velocity": 1
          },
          {
            "duration": 0.0032051312500129825,
            "durationTicks": 3,
            "midi": 54,
            "name": "F#3",
            "ticks": 204240,
            "time": 218.2053355,
            "velocity": 0.9448818897637795
          },
          {
            "duration": 0.0032051312500129825,
            "durationTicks": 3,
            "midi": 54,
            "name": "F#3",
            "ticks": 204360,
            "time": 218.33354075,
            "velocity": 0.952755905511811
          },
          {
            "duration": 0.07264964166665777,
            "durationTicks": 68,
            "midi": 61,
            "name": "C#4",
            "ticks": 204480,
            "time": 218.46174599999998,
            "velocity": 1
          },
          {
            "duration": 0.12286336458333835,
            "durationTicks": 115,
            "midi": 61,
            "name": "C#4",
            "ticks": 204600,
            "time": 218.58995124999998,
            "velocity": 1
          },
          {
            "duration": 0.09081205208332221,
            "durationTicks": 85,
            "midi": 59,
            "name": "B3",
            "ticks": 204840,
            "time": 218.84636175,
            "velocity": 1
          },
          {
            "duration": 0.0940171833333352,
            "durationTicks": 88,
            "midi": 57,
            "name": "A3",
            "ticks": 205080,
            "time": 219.10277225,
            "velocity": 1
          },
          {
            "duration": 0.0032051312500129825,
            "durationTicks": 3,
            "midi": 54,
            "name": "F#3",
            "ticks": 205200,
            "time": 219.2309775,
            "velocity": 0.9448818897637795
          },
          {
            "duration": 0.0032051312500129825,
            "durationTicks": 3,
            "midi": 54,
            "name": "F#3",
            "ticks": 205320,
            "time": 219.35918274999997,
            "velocity": 0.952755905511811
          },
          {
            "duration": 0.07478639583334257,
            "durationTicks": 70,
            "midi": 61,
            "name": "C#4",
            "ticks": 205440,
            "time": 219.48738799999998,
            "velocity": 1
          },
          {
            "duration": 0.12286336458330993,
            "durationTicks": 115,
            "midi": 61,
            "name": "C#4",
            "ticks": 205560,
            "time": 219.61559325,
            "velocity": 1
          },
          {
            "duration": 0.029914558333331343,
            "durationTicks": 28,
            "midi": 59,
            "name": "B3",
            "ticks": 205740,
            "time": 219.807901125,
            "velocity": 0.25196850393700787
          },
          {
            "duration": 0.15811980833333905,
            "durationTicks": 148,
            "midi": 59,
            "name": "B3",
            "ticks": 205800,
            "time": 219.87200374999998,
            "velocity": 1
          },
          {
            "duration": 0.05341885416666514,
            "durationTicks": 50,
            "midi": 57,
            "name": "A3",
            "ticks": 206040,
            "time": 220.12841425,
            "velocity": 1
          },
          {
            "duration": 0.048076968749995785,
            "durationTicks": 45,
            "midi": 60,
            "name": "C4",
            "ticks": 206160,
            "time": 220.2566195,
            "velocity": 0.8503937007874016
          },
          {
            "duration": 0.8867529791666584,
            "durationTicks": 830,
            "midi": 61,
            "name": "C#4",
            "ticks": 206160,
            "time": 220.2566195,
            "velocity": 1
          },
          {
            "duration": 0.0032051312500129825,
            "durationTicks": 3,
            "midi": 54,
            "name": "F#3",
            "ticks": 207120,
            "time": 221.28226149999998,
            "velocity": 0.9448818897637795
          },
          {
            "duration": 0.0032051312500129825,
            "durationTicks": 3,
            "midi": 54,
            "name": "F#3",
            "ticks": 207240,
            "time": 221.41046674999998,
            "velocity": 0.952755905511811
          },
          {
            "duration": 0.08333341249999648,
            "durationTicks": 78,
            "midi": 61,
            "name": "C#4",
            "ticks": 207360,
            "time": 221.538672,
            "velocity": 1
          },
          {
            "duration": 0.0801282812499835,
            "durationTicks": 75,
            "midi": 61,
            "name": "C#4",
            "ticks": 207480,
            "time": 221.66687725,
            "velocity": 1
          },
          {
            "duration": 0.010683770833338713,
            "durationTicks": 10,
            "midi": 49,
            "name": "C#3",
            "ticks": 207600,
            "time": 221.79508249999998,
            "velocity": 0.6141732283464567
          },
          {
            "duration": 0.09935906875000455,
            "durationTicks": 93,
            "midi": 59,
            "name": "B3",
            "ticks": 207720,
            "time": 221.92328775,
            "velocity": 1
          },
          {
            "duration": 0.0801282812499835,
            "durationTicks": 75,
            "midi": 57,
            "name": "A3",
            "ticks": 207960,
            "time": 222.17969825,
            "velocity": 1
          },
          {
            "duration": 0.03205131250001614,
            "durationTicks": 30,
            "midi": 54,
            "name": "F#3",
            "ticks": 208080,
            "time": 222.30790349999998,
            "velocity": 0.952755905511811
          },
          {
            "duration": 0.02670942708331836,
            "durationTicks": 25,
            "midi": 54,
            "name": "F#3",
            "ticks": 208200,
            "time": 222.43610875,
            "velocity": 0.9448818897637795
          },
          {
            "duration": 0.07371801875001438,
            "durationTicks": 69,
            "midi": 61,
            "name": "C#4",
            "ticks": 208319,
            "time": 222.56324562291664,
            "velocity": 1
          },
          {
            "duration": 0.12286336458333835,
            "durationTicks": 115,
            "midi": 61,
            "name": "C#4",
            "ticks": 208440,
            "time": 222.69251924999998,
            "velocity": 1
          },
          {
            "duration": 0.0940171833333352,
            "durationTicks": 88,
            "midi": 59,
            "name": "B3",
            "ticks": 208740,
            "time": 223.013032375,
            "velocity": 1
          },
          {
            "duration": 0.09081205208332221,
            "durationTicks": 85,
            "midi": 57,
            "name": "A3",
            "ticks": 208920,
            "time": 223.20534024999998,
            "velocity": 1
          },
          {
            "duration": 0.0032051312500129825,
            "durationTicks": 3,
            "midi": 54,
            "name": "F#3",
            "ticks": 209040,
            "time": 223.33354549999999,
            "velocity": 0.9448818897637795
          },
          {
            "duration": 0.0032051312500129825,
            "durationTicks": 3,
            "midi": 54,
            "name": "F#3",
            "ticks": 209160,
            "time": 223.46175075,
            "velocity": 0.9448818897637795
          },
          {
            "duration": 0.07478639583331415,
            "durationTicks": 70,
            "midi": 61,
            "name": "C#4",
            "ticks": 209280,
            "time": 223.589956,
            "velocity": 1
          },
          {
            "duration": 0.12286336458333835,
            "durationTicks": 115,
            "midi": 61,
            "name": "C#4",
            "ticks": 209400,
            "time": 223.71816124999998,
            "velocity": 1
          },
          {
            "duration": 0.029914558333331343,
            "durationTicks": 28,
            "midi": 59,
            "name": "B3",
            "ticks": 209580,
            "time": 223.910469125,
            "velocity": 0.25196850393700787
          },
          {
            "duration": 0.138889020833318,
            "durationTicks": 130,
            "midi": 59,
            "name": "B3",
            "ticks": 209640,
            "time": 223.97457175,
            "velocity": 1
          },
          {
            "duration": 0.05341885416669356,
            "durationTicks": 50,
            "midi": 57,
            "name": "A3",
            "ticks": 209880,
            "time": 224.23098224999998,
            "velocity": 1
          },
          {
            "duration": 0.0587607395833345,
            "durationTicks": 55,
            "midi": 60,
            "name": "C4",
            "ticks": 210000,
            "time": 224.3591875,
            "velocity": 1
          },
          {
            "duration": 0.9081205208333074,
            "durationTicks": 850,
            "midi": 61,
            "name": "C#4",
            "ticks": 210060,
            "time": 224.423290125,
            "velocity": 1
          },
          {
            "duration": 0.0032051312500129825,
            "durationTicks": 3,
            "midi": 54,
            "name": "F#3",
            "ticks": 210960,
            "time": 225.3848295,
            "velocity": 0.9448818897637795
          },
          {
            "duration": 0.0032051312500129825,
            "durationTicks": 3,
            "midi": 54,
            "name": "F#3",
            "ticks": 211080,
            "time": 225.51303474999997,
            "velocity": 0.952755905511811
          },
          {
            "duration": 0.08012828125001192,
            "durationTicks": 75,
            "midi": 61,
            "name": "C#4",
            "ticks": 211200,
            "time": 225.64123999999998,
            "velocity": 1
          },
          {
            "duration": 0.14957279166668513,
            "durationTicks": 140,
            "midi": 61,
            "name": "C#4",
            "ticks": 211320,
            "time": 225.76944525,
            "velocity": 1
          },
          {
            "duration": 0.12606849583335134,
            "durationTicks": 118,
            "midi": 59,
            "name": "B3",
            "ticks": 211560,
            "time": 226.02585574999998,
            "velocity": 1
          },
          {
            "duration": 0.0801282812499835,
            "durationTicks": 75,
            "midi": 57,
            "name": "A3",
            "ticks": 211800,
            "time": 226.28226625,
            "velocity": 1
          },
          {
            "duration": 0.05128210000000877,
            "durationTicks": 48,
            "midi": 60,
            "name": "C4",
            "ticks": 211920,
            "time": 226.4104715,
            "velocity": 0.8661417322834646
          },
          {
            "duration": 0.9914539333333323,
            "durationTicks": 928,
            "midi": 61,
            "name": "C#4",
            "ticks": 211920,
            "time": 226.4104715,
            "velocity": 1
          },
          {
            "duration": 0.0032051312500129825,
            "durationTicks": 3,
            "midi": 54,
            "name": "F#3",
            "ticks": 243600,
            "time": 260.25665749999996,
            "velocity": 0.6771653543307087
          },
          {
            "duration": 0.0032051312500129825,
            "durationTicks": 3,
            "midi": 66,
            "name": "F#4",
            "ticks": 243600,
            "time": 260.25665749999996,
            "velocity": 0.5984251968503937
          },
          {
            "duration": 0.0032051312500129825,
            "durationTicks": 3,
            "midi": 54,
            "name": "F#3",
            "ticks": 243720,
            "time": 260.38486274999997,
            "velocity": 0.6850393700787402
          },
          {
            "duration": 0.0032051312500129825,
            "durationTicks": 3,
            "midi": 66,
            "name": "F#4",
            "ticks": 243720,
            "time": 260.38486274999997,
            "velocity": 0.5984251968503937
          },
          {
            "duration": 0.07478639583331415,
            "durationTicks": 70,
            "midi": 61,
            "name": "C#4",
            "ticks": 243840,
            "time": 260.513068,
            "velocity": 1
          },
          {
            "duration": 0.08547016666665286,
            "durationTicks": 80,
            "midi": 61,
            "name": "C#4",
            "ticks": 243960,
            "time": 260.64127325,
            "velocity": 1
          },
          {
            "duration": 0.01602565625000807,
            "durationTicks": 15,
            "midi": 50,
            "name": "D3",
            "ticks": 244080,
            "time": 260.7694785,
            "velocity": 0.5590551181102362
          },
          {
            "duration": 0.15811980833331063,
            "durationTicks": 148,
            "midi": 59,
            "name": "B3",
            "ticks": 244200,
            "time": 260.89768375,
            "velocity": 1
          },
          {
            "duration": 0.056623985416706546,
            "durationTicks": 53,
            "midi": 57,
            "name": "A3",
            "ticks": 244440,
            "time": 261.15409424999996,
            "velocity": 1
          },
          {
            "duration": 0.04273508333335485,
            "durationTicks": 40,
            "midi": 60,
            "name": "C4",
            "ticks": 244560,
            "time": 261.28229949999997,
            "velocity": 1
          },
          {
            "duration": 0.8311973708333653,
            "durationTicks": 778,
            "midi": 61,
            "name": "C#4",
            "ticks": 244560,
            "time": 261.28229949999997,
            "velocity": 1
          },
          {
            "duration": 0.0032051312500129825,
            "durationTicks": 3,
            "midi": 54,
            "name": "F#3",
            "ticks": 245520,
            "time": 262.30794149999997,
            "velocity": 0.952755905511811
          },
          {
            "duration": 0.0032051312500129825,
            "durationTicks": 3,
            "midi": 54,
            "name": "F#3",
            "ticks": 245640,
            "time": 262.43614675,
            "velocity": 0.9448818897637795
          },
          {
            "duration": 0.08333341249999648,
            "durationTicks": 78,
            "midi": 61,
            "name": "C#4",
            "ticks": 245760,
            "time": 262.564352,
            "velocity": 1
          },
          {
            "duration": 0.09935906875000455,
            "durationTicks": 93,
            "midi": 61,
            "name": "C#4",
            "ticks": 245880,
            "time": 262.69255725,
            "velocity": 1
          },
          {
            "duration": 0.03739319791662865,
            "durationTicks": 35,
            "midi": 50,
            "name": "D3",
            "ticks": 246000,
            "time": 262.8207625,
            "velocity": 0.5590551181102362
          },
          {
            "duration": 0.12820524999995087,
            "durationTicks": 120,
            "midi": 59,
            "name": "B3",
            "ticks": 246120,
            "time": 262.94896775,
            "velocity": 1
          },
          {
            "duration": 0.07478639583337099,
            "durationTicks": 70,
            "midi": 57,
            "name": "A3",
            "ticks": 246360,
            "time": 263.20537824999997,
            "velocity": 1
          },
          {
            "duration": 0.005341885416612513,
            "durationTicks": 5,
            "midi": 59,
            "name": "B3",
            "ticks": 246420,
            "time": 263.269480875,
            "velocity": 0.8031496062992126
          },
          {
            "duration": 0.03205131250001614,
            "durationTicks": 30,
            "midi": 60,
            "name": "C4",
            "ticks": 246480,
            "time": 263.3335835,
            "velocity": 0.8661417322834646
          },
          {
            "duration": 0.881411093749989,
            "durationTicks": 825,
            "midi": 61,
            "name": "C#4",
            "ticks": 246480,
            "time": 263.3335835,
            "velocity": 1
          },
          {
            "duration": 0.03205131250001614,
            "durationTicks": 30,
            "midi": 54,
            "name": "F#3",
            "ticks": 247440,
            "time": 264.3592255,
            "velocity": 0.952755905511811
          },
          {
            "duration": 0.03205131250001614,
            "durationTicks": 30,
            "midi": 54,
            "name": "F#3",
            "ticks": 247560,
            "time": 264.48743075,
            "velocity": 0.9606299212598425
          },
          {
            "duration": 0.08333341249999648,
            "durationTicks": 78,
            "midi": 61,
            "name": "C#4",
            "ticks": 247680,
            "time": 264.615636,
            "velocity": 1
          },
          {
            "duration": 0.09935906875000455,
            "durationTicks": 93,
            "midi": 61,
            "name": "C#4",
            "ticks": 247800,
            "time": 264.74384125,
            "velocity": 1
          },
          {
            "duration": 0.1282052500000077,
            "durationTicks": 120,
            "midi": 59,
            "name": "B3",
            "ticks": 248040,
            "time": 265.00025174999996,
            "velocity": 1
          },
          {
            "duration": 0.05341885416663672,
            "durationTicks": 50,
            "midi": 57,
            "name": "A3",
            "ticks": 248280,
            "time": 265.25666225,
            "velocity": 0.8031496062992126
          },
          {
            "duration": 0.9294880625000133,
            "durationTicks": 870,
            "midi": 61,
            "name": "C#4",
            "ticks": 248400,
            "time": 265.3848675,
            "velocity": 1
          },
          {
            "duration": 0.0032051312500129825,
            "durationTicks": 3,
            "midi": 54,
            "name": "F#3",
            "ticks": 249360,
            "time": 266.4105095,
            "velocity": 0.9448818897637795
          },
          {
            "duration": 0.0032051312500129825,
            "durationTicks": 3,
            "midi": 54,
            "name": "F#3",
            "ticks": 249480,
            "time": 266.53871475,
            "velocity": 0.952755905511811
          },
          {
            "duration": 0.08333341249999648,
            "durationTicks": 78,
            "midi": 61,
            "name": "C#4",
            "ticks": 249600,
            "time": 266.66692,
            "velocity": 1
          },
          {
            "duration": 0.0801282812499835,
            "durationTicks": 75,
            "midi": 61,
            "name": "C#4",
            "ticks": 249720,
            "time": 266.79512525,
            "velocity": 1
          },
          {
            "duration": 0.010683770833338713,
            "durationTicks": 10,
            "midi": 50,
            "name": "D3",
            "ticks": 249900,
            "time": 266.987433125,
            "velocity": 0.2755905511811024
          },
          {
            "duration": 0.14209415208330256,
            "durationTicks": 133,
            "midi": 59,
            "name": "B3",
            "ticks": 249960,
            "time": 267.05153574999997,
            "velocity": 1
          },
          {
            "duration": 0.0801282812499835,
            "durationTicks": 75,
            "midi": 57,
            "name": "A3",
            "ticks": 250200,
            "time": 267.30794625,
            "velocity": 1
          },
          {
            "duration": 0.0032051312500129825,
            "durationTicks": 3,
            "midi": 54,
            "name": "F#3",
            "ticks": 250320,
            "time": 267.4361515,
            "velocity": 0.9448818897637795
          },
          {
            "duration": 0.0032051312500129825,
            "durationTicks": 3,
            "midi": 54,
            "name": "F#3",
            "ticks": 250440,
            "time": 267.56435675,
            "velocity": 0.952755905511811
          },
          {
            "duration": 0.07264964166665777,
            "durationTicks": 68,
            "midi": 61,
            "name": "C#4",
            "ticks": 250560,
            "time": 267.692562,
            "velocity": 1
          },
          {
            "duration": 0.1228633645833952,
            "durationTicks": 115,
            "midi": 61,
            "name": "C#4",
            "ticks": 250680,
            "time": 267.82076724999996,
            "velocity": 1
          },
          {
            "duration": 0.09081205208337906,
            "durationTicks": 85,
            "midi": 59,
            "name": "B3",
            "ticks": 250920,
            "time": 268.07717775,
            "velocity": 1
          },
          {
            "duration": 0.09401718333327835,
            "durationTicks": 88,
            "midi": 57,
            "name": "A3",
            "ticks": 251160,
            "time": 268.33358825,
            "velocity": 1
          },
          {
            "duration": 0.0032051312500129825,
            "durationTicks": 3,
            "midi": 54,
            "name": "F#3",
            "ticks": 251280,
            "time": 268.4617935,
            "velocity": 0.9448818897637795
          },
          {
            "duration": 0.0032051312500129825,
            "durationTicks": 3,
            "midi": 54,
            "name": "F#3",
            "ticks": 251400,
            "time": 268.58999875,
            "velocity": 0.952755905511811
          },
          {
            "duration": 0.07478639583337099,
            "durationTicks": 70,
            "midi": 61,
            "name": "C#4",
            "ticks": 251520,
            "time": 268.71820399999996,
            "velocity": 1
          },
          {
            "duration": 0.08547016666665286,
            "durationTicks": 80,
            "midi": 61,
            "name": "C#4",
            "ticks": 251640,
            "time": 268.84640924999997,
            "velocity": 1
          },
          {
            "duration": 0.01602565625000807,
            "durationTicks": 15,
            "midi": 50,
            "name": "D3",
            "ticks": 251760,
            "time": 268.9746145,
            "velocity": 0.5590551181102362
          },
          {
            "duration": 0.15811980833331063,
            "durationTicks": 148,
            "midi": 59,
            "name": "B3",
            "ticks": 251880,
            "time": 269.10281975,
            "velocity": 1
          },
          {
            "duration": 0.0566239854166497,
            "durationTicks": 53,
            "midi": 57,
            "name": "A3",
            "ticks": 252120,
            "time": 269.35923025,
            "velocity": 1
          },
          {
            "duration": 0.04273508333335485,
            "durationTicks": 40,
            "midi": 60,
            "name": "C4",
            "ticks": 252240,
            "time": 269.4874355,
            "velocity": 1
          },
          {
            "duration": 0.8311973708333085,
            "durationTicks": 778,
            "midi": 61,
            "name": "C#4",
            "ticks": 252240,
            "time": 269.4874355,
            "velocity": 1
          },
          {
            "duration": 0.0032051312500129825,
            "durationTicks": 3,
            "midi": 54,
            "name": "F#3",
            "ticks": 253200,
            "time": 270.5130775,
            "velocity": 0.952755905511811
          },
          {
            "duration": 0.0032051312500129825,
            "durationTicks": 3,
            "midi": 54,
            "name": "F#3",
            "ticks": 253320,
            "time": 270.64128274999996,
            "velocity": 0.9448818897637795
          },
          {
            "duration": 0.07478639583337099,
            "durationTicks": 70,
            "midi": 61,
            "name": "C#4",
            "ticks": 253440,
            "time": 270.76948799999997,
            "velocity": 1
          },
          {
            "duration": 0.08547016666665286,
            "durationTicks": 80,
            "midi": 61,
            "name": "C#4",
            "ticks": 253560,
            "time": 270.89769325,
            "velocity": 1
          },
          {
            "duration": 0.01602565625000807,
            "durationTicks": 15,
            "midi": 50,
            "name": "D3",
            "ticks": 253680,
            "time": 271.0258985,
            "velocity": 0.5590551181102362
          },
          {
            "duration": 0.15811980833331063,
            "durationTicks": 148,
            "midi": 59,
            "name": "B3",
            "ticks": 253800,
            "time": 271.15410375,
            "velocity": 1
          },
          {
            "duration": 0.0566239854166497,
            "durationTicks": 53,
            "midi": 57,
            "name": "A3",
            "ticks": 254040,
            "time": 271.41051425,
            "velocity": 1
          },
          {
            "duration": 0.04273508333335485,
            "durationTicks": 40,
            "midi": 60,
            "name": "C4",
            "ticks": 254160,
            "time": 271.53871949999996,
            "velocity": 1
          },
          {
            "duration": 0.8311973708333085,
            "durationTicks": 778,
            "midi": 61,
            "name": "C#4",
            "ticks": 254160,
            "time": 271.53871949999996,
            "velocity": 1
          },
          {
            "duration": 0.0032051312500129825,
            "durationTicks": 3,
            "midi": 54,
            "name": "F#3",
            "ticks": 255120,
            "time": 272.56436149999996,
            "velocity": 0.952755905511811
          },
          {
            "duration": 0.0032051312500129825,
            "durationTicks": 3,
            "midi": 54,
            "name": "F#3",
            "ticks": 255240,
            "time": 272.69256674999997,
            "velocity": 0.9448818897637795
          },
          {
            "duration": 0.07478639583337099,
            "durationTicks": 70,
            "midi": 61,
            "name": "C#4",
            "ticks": 255360,
            "time": 272.820772,
            "velocity": 1
          },
          {
            "duration": 0.12286336458333835,
            "durationTicks": 115,
            "midi": 61,
            "name": "C#4",
            "ticks": 255480,
            "time": 272.94897725,
            "velocity": 1
          },
          {
            "duration": 0.02991455833330292,
            "durationTicks": 28,
            "midi": 59,
            "name": "B3",
            "ticks": 255660,
            "time": 273.14128512499997,
            "velocity": 0.25196850393700787
          },
          {
            "duration": 0.15811980833331063,
            "durationTicks": 148,
            "midi": 59,
            "name": "B3",
            "ticks": 255720,
            "time": 273.20538775,
            "velocity": 1
          },
          {
            "duration": 0.05341885416669356,
            "durationTicks": 50,
            "midi": 57,
            "name": "A3",
            "ticks": 255960,
            "time": 273.46179824999996,
            "velocity": 1
          },
          {
            "duration": 0.04807696875002421,
            "durationTicks": 45,
            "midi": 60,
            "name": "C4",
            "ticks": 256080,
            "time": 273.59000349999997,
            "velocity": 0.8503937007874016
          },
          {
            "duration": 0.8867529791666584,
            "durationTicks": 830,
            "midi": 61,
            "name": "C#4",
            "ticks": 256080,
            "time": 273.59000349999997,
            "velocity": 1
          },
          {
            "duration": 0.0032051312500129825,
            "durationTicks": 3,
            "midi": 54,
            "name": "F#3",
            "ticks": 257040,
            "time": 274.61564549999997,
            "velocity": 0.9448818897637795
          },
          {
            "duration": 0.0032051312500129825,
            "durationTicks": 3,
            "midi": 54,
            "name": "F#3",
            "ticks": 257160,
            "time": 274.74385075,
            "velocity": 0.952755905511811
          },
          {
            "duration": 0.08333341249999648,
            "durationTicks": 78,
            "midi": 61,
            "name": "C#4",
            "ticks": 257280,
            "time": 274.872056,
            "velocity": 1
          },
          {
            "duration": 0.0801282812499835,
            "durationTicks": 75,
            "midi": 61,
            "name": "C#4",
            "ticks": 257400,
            "time": 275.00026125,
            "velocity": 1
          },
          {
            "duration": 0.010683770833338713,
            "durationTicks": 10,
            "midi": 49,
            "name": "C#3",
            "ticks": 257520,
            "time": 275.1284665,
            "velocity": 0.6141732283464567
          },
          {
            "duration": 0.09935906875000455,
            "durationTicks": 93,
            "midi": 59,
            "name": "B3",
            "ticks": 257640,
            "time": 275.25667175,
            "velocity": 1
          },
          {
            "duration": 0.08012828125004035,
            "durationTicks": 75,
            "midi": 57,
            "name": "A3",
            "ticks": 257880,
            "time": 275.51308224999997,
            "velocity": 1
          },
          {
            "duration": 0.03205131250001614,
            "durationTicks": 30,
            "midi": 54,
            "name": "F#3",
            "ticks": 258000,
            "time": 275.6412875,
            "velocity": 0.952755905511811
          },
          {
            "duration": 0.02670942708334678,
            "durationTicks": 25,
            "midi": 54,
            "name": "F#3",
            "ticks": 258120,
            "time": 275.76949275,
            "velocity": 0.9448818897637795
          },
          {
            "duration": 0.07264964166665777,
            "durationTicks": 68,
            "midi": 61,
            "name": "C#4",
            "ticks": 258240,
            "time": 275.897698,
            "velocity": 1
          },
          {
            "duration": 0.12286336458333835,
            "durationTicks": 115,
            "midi": 61,
            "name": "C#4",
            "ticks": 258360,
            "time": 276.02590325,
            "velocity": 1
          },
          {
            "duration": 0.09401718333327835,
            "durationTicks": 88,
            "midi": 59,
            "name": "B3",
            "ticks": 258660,
            "time": 276.346416375,
            "velocity": 1
          },
          {
            "duration": 0.09081205208337906,
            "durationTicks": 85,
            "midi": 57,
            "name": "A3",
            "ticks": 258840,
            "time": 276.53872425,
            "velocity": 1
          },
          {
            "duration": 0.0032051312500129825,
            "durationTicks": 3,
            "midi": 54,
            "name": "F#3",
            "ticks": 258960,
            "time": 276.6669295,
            "velocity": 0.9448818897637795
          },
          {
            "duration": 0.0032051312500129825,
            "durationTicks": 3,
            "midi": 54,
            "name": "F#3",
            "ticks": 259080,
            "time": 276.79513475,
            "velocity": 0.9448818897637795
          },
          {
            "duration": 0.07478639583331415,
            "durationTicks": 70,
            "midi": 61,
            "name": "C#4",
            "ticks": 259200,
            "time": 276.92334,
            "velocity": 1
          },
          {
            "duration": 0.12286336458333835,
            "durationTicks": 115,
            "midi": 61,
            "name": "C#4",
            "ticks": 259320,
            "time": 277.05154525,
            "velocity": 1
          },
          {
            "duration": 0.02991455833330292,
            "durationTicks": 28,
            "midi": 59,
            "name": "B3",
            "ticks": 259500,
            "time": 277.243853125,
            "velocity": 0.25196850393700787
          },
          {
            "duration": 0.13888902083340326,
            "durationTicks": 130,
            "midi": 59,
            "name": "B3",
            "ticks": 259560,
            "time": 277.30795574999996,
            "velocity": 1
          },
          {
            "duration": 0.05341885416663672,
            "durationTicks": 50,
            "midi": 57,
            "name": "A3",
            "ticks": 259800,
            "time": 277.56436625,
            "velocity": 1
          },
          {
            "duration": 0.05876073958336292,
            "durationTicks": 55,
            "midi": 60,
            "name": "C4",
            "ticks": 259920,
            "time": 277.6925715,
            "velocity": 1
          },
          {
            "duration": 0.9081205208333927,
            "durationTicks": 850,
            "midi": 61,
            "name": "C#4",
            "ticks": 259980,
            "time": 277.75667412499996,
            "velocity": 1
          },
          {
            "duration": 0.0032051312500129825,
            "durationTicks": 3,
            "midi": 54,
            "name": "F#3",
            "ticks": 260880,
            "time": 278.7182135,
            "velocity": 0.9448818897637795
          },
          {
            "duration": 0.0032051312500129825,
            "durationTicks": 3,
            "midi": 54,
            "name": "F#3",
            "ticks": 261000,
            "time": 278.84641875,
            "velocity": 0.952755905511811
          },
          {
            "duration": 0.07478639583331415,
            "durationTicks": 70,
            "midi": 61,
            "name": "C#4",
            "ticks": 261120,
            "time": 278.974624,
            "velocity": 1
          },
          {
            "duration": 0.08547016666665286,
            "durationTicks": 80,
            "midi": 61,
            "name": "C#4",
            "ticks": 261240,
            "time": 279.10282924999996,
            "velocity": 1
          },
          {
            "duration": 0.01602565625000807,
            "durationTicks": 15,
            "midi": 50,
            "name": "D3",
            "ticks": 261360,
            "time": 279.23103449999996,
            "velocity": 0.5590551181102362
          },
          {
            "duration": 0.15811980833331063,
            "durationTicks": 148,
            "midi": 59,
            "name": "B3",
            "ticks": 261480,
            "time": 279.35923975,
            "velocity": 1
          },
          {
            "duration": 0.0566239854166497,
            "durationTicks": 53,
            "midi": 57,
            "name": "A3",
            "ticks": 261720,
            "time": 279.61565025,
            "velocity": 1
          },
          {
            "duration": 0.04273508333335485,
            "durationTicks": 40,
            "midi": 60,
            "name": "C4",
            "ticks": 261840,
            "time": 279.7438555,
            "velocity": 1
          },
          {
            "duration": 0.8311973708333085,
            "durationTicks": 778,
            "midi": 61,
            "name": "C#4",
            "ticks": 261840,
            "time": 279.7438555,
            "velocity": 1
          },
          {
            "duration": 0.0032051312500129825,
            "durationTicks": 3,
            "midi": 54,
            "name": "F#3",
            "ticks": 262800,
            "time": 280.7694975,
            "velocity": 0.952755905511811
          },
          {
            "duration": 0.0032051312500129825,
            "durationTicks": 3,
            "midi": 54,
            "name": "F#3",
            "ticks": 262920,
            "time": 280.89770275,
            "velocity": 0.9448818897637795
          },
          {
            "duration": 0.07478639583337099,
            "durationTicks": 70,
            "midi": 61,
            "name": "C#4",
            "ticks": 263040,
            "time": 281.02590799999996,
            "velocity": 1
          },
          {
            "duration": 0.08547016666665286,
            "durationTicks": 80,
            "midi": 61,
            "name": "C#4",
            "ticks": 263160,
            "time": 281.15411324999997,
            "velocity": 1
          },
          {
            "duration": 0.01602565625000807,
            "durationTicks": 15,
            "midi": 50,
            "name": "D3",
            "ticks": 263280,
            "time": 281.2823185,
            "velocity": 0.5590551181102362
          },
          {
            "duration": 0.15811980833331063,
            "durationTicks": 148,
            "midi": 59,
            "name": "B3",
            "ticks": 263400,
            "time": 281.41052375,
            "velocity": 1
          },
          {
            "duration": 0.0566239854166497,
            "durationTicks": 53,
            "midi": 57,
            "name": "A3",
            "ticks": 263640,
            "time": 281.66693425,
            "velocity": 1
          },
          {
            "duration": 0.04273508333335485,
            "durationTicks": 40,
            "midi": 60,
            "name": "C4",
            "ticks": 263760,
            "time": 281.7951395,
            "velocity": 1
          },
          {
            "duration": 0.8311973708333085,
            "durationTicks": 778,
            "midi": 61,
            "name": "C#4",
            "ticks": 263760,
            "time": 281.7951395,
            "velocity": 1
          },
          {
            "duration": 0.0032051312500129825,
            "durationTicks": 3,
            "midi": 54,
            "name": "F#3",
            "ticks": 264720,
            "time": 282.8207815,
            "velocity": 0.952755905511811
          },
          {
            "duration": 0.0032051312500129825,
            "durationTicks": 3,
            "midi": 54,
            "name": "F#3",
            "ticks": 264840,
            "time": 282.94898674999996,
            "velocity": 0.9448818897637795
          },
          {
            "duration": 0.07478639583337099,
            "durationTicks": 70,
            "midi": 61,
            "name": "C#4",
            "ticks": 264960,
            "time": 283.07719199999997,
            "velocity": 1
          },
          {
            "duration": 0.08547016666665286,
            "durationTicks": 80,
            "midi": 61,
            "name": "C#4",
            "ticks": 265080,
            "time": 283.20539725,
            "velocity": 1
          },
          {
            "duration": 0.01602565625000807,
            "durationTicks": 15,
            "midi": 50,
            "name": "D3",
            "ticks": 265200,
            "time": 283.3336025,
            "velocity": 0.5590551181102362
          },
          {
            "duration": 0.15811980833331063,
            "durationTicks": 148,
            "midi": 59,
            "name": "B3",
            "ticks": 265320,
            "time": 283.46180775,
            "velocity": 1
          },
          {
            "duration": 0.0566239854166497,
            "durationTicks": 53,
            "midi": 57,
            "name": "A3",
            "ticks": 265560,
            "time": 283.71821825,
            "velocity": 1
          },
          {
            "duration": 0.04273508333335485,
            "durationTicks": 40,
            "midi": 60,
            "name": "C4",
            "ticks": 265680,
            "time": 283.84642349999996,
            "velocity": 1
          },
          {
            "duration": 0.8311973708333085,
            "durationTicks": 778,
            "midi": 61,
            "name": "C#4",
            "ticks": 265680,
            "time": 283.84642349999996,
            "velocity": 1
          },
          {
            "duration": 0.0032051312500129825,
            "durationTicks": 3,
            "midi": 54,
            "name": "F#3",
            "ticks": 266640,
            "time": 284.87206549999996,
            "velocity": 0.952755905511811
          },
          {
            "duration": 0.0032051312500129825,
            "durationTicks": 3,
            "midi": 54,
            "name": "F#3",
            "ticks": 266760,
            "time": 285.00027074999997,
            "velocity": 0.9448818897637795
          },
          {
            "duration": 0.07478639583337099,
            "durationTicks": 70,
            "midi": 61,
            "name": "C#4",
            "ticks": 266880,
            "time": 285.128476,
            "velocity": 1
          },
          {
            "duration": 0.08547016666665286,
            "durationTicks": 80,
            "midi": 61,
            "name": "C#4",
            "ticks": 267000,
            "time": 285.25668125,
            "velocity": 1
          },
          {
            "duration": 0.01602565625000807,
            "durationTicks": 15,
            "midi": 50,
            "name": "D3",
            "ticks": 267120,
            "time": 285.3848865,
            "velocity": 0.5590551181102362
          },
          {
            "duration": 0.15811980833331063,
            "durationTicks": 148,
            "midi": 59,
            "name": "B3",
            "ticks": 267240,
            "time": 285.51309175,
            "velocity": 1
          },
          {
            "duration": 0.056623985416706546,
            "durationTicks": 53,
            "midi": 57,
            "name": "A3",
            "ticks": 267480,
            "time": 285.76950224999996,
            "velocity": 1
          },
          {
            "duration": 0.04273508333335485,
            "durationTicks": 40,
            "midi": 60,
            "name": "C4",
            "ticks": 267600,
            "time": 285.89770749999997,
            "velocity": 1
          },
          {
            "duration": 0.8311973708333085,
            "durationTicks": 778,
            "midi": 61,
            "name": "C#4",
            "ticks": 267600,
            "time": 285.89770749999997,
            "velocity": 1
          },
          {
            "duration": 0.0032051312500129825,
            "durationTicks": 3,
            "midi": 54,
            "name": "F#3",
            "ticks": 268560,
            "time": 286.9233495,
            "velocity": 0.952755905511811
          },
          {
            "duration": 0.0032051312500129825,
            "durationTicks": 3,
            "midi": 54,
            "name": "F#3",
            "ticks": 268680,
            "time": 287.05155475,
            "velocity": 0.9448818897637795
          },
          {
            "duration": 0.07478639583337099,
            "durationTicks": 70,
            "midi": 61,
            "name": "C#4",
            "ticks": 268800,
            "time": 287.17976,
            "velocity": 1
          },
          {
            "duration": 0.08547016666665286,
            "durationTicks": 80,
            "midi": 61,
            "name": "C#4",
            "ticks": 268920,
            "time": 287.30796525,
            "velocity": 1
          },
          {
            "duration": 0.01602565625000807,
            "durationTicks": 15,
            "midi": 50,
            "name": "D3",
            "ticks": 269040,
            "time": 287.4361705,
            "velocity": 0.5590551181102362
          },
          {
            "duration": 0.1581198083332538,
            "durationTicks": 148,
            "midi": 59,
            "name": "B3",
            "ticks": 269160,
            "time": 287.56437575,
            "velocity": 1
          },
          {
            "duration": 0.0566239854166497,
            "durationTicks": 53,
            "midi": 57,
            "name": "A3",
            "ticks": 269400,
            "time": 287.82078624999997,
            "velocity": 1
          },
          {
            "duration": 0.04273508333335485,
            "durationTicks": 40,
            "midi": 60,
            "name": "C4",
            "ticks": 269520,
            "time": 287.9489915,
            "velocity": 1
          },
          {
            "duration": 0.8311973708333085,
            "durationTicks": 778,
            "midi": 61,
            "name": "C#4",
            "ticks": 269520,
            "time": 287.9489915,
            "velocity": 1
          },
          {
            "duration": 0.0032051312500129825,
            "durationTicks": 3,
            "midi": 54,
            "name": "F#3",
            "ticks": 270480,
            "time": 288.9746335,
            "velocity": 0.952755905511811
          },
          {
            "duration": 0.0032051312500129825,
            "durationTicks": 3,
            "midi": 54,
            "name": "F#3",
            "ticks": 270600,
            "time": 289.10283875,
            "velocity": 0.9448818897637795
          },
          {
            "duration": 0.07478639583331415,
            "durationTicks": 70,
            "midi": 61,
            "name": "C#4",
            "ticks": 270720,
            "time": 289.231044,
            "velocity": 1
          },
          {
            "duration": 0.08547016666665286,
            "durationTicks": 80,
            "midi": 61,
            "name": "C#4",
            "ticks": 270840,
            "time": 289.35924925,
            "velocity": 1
          },
          {
            "duration": 0.01602565625000807,
            "durationTicks": 15,
            "midi": 50,
            "name": "D3",
            "ticks": 270960,
            "time": 289.48745449999996,
            "velocity": 0.5590551181102362
          },
          {
            "duration": 0.15811980833331063,
            "durationTicks": 148,
            "midi": 59,
            "name": "B3",
            "ticks": 271080,
            "time": 289.61565974999996,
            "velocity": 1
          },
          {
            "duration": 0.0566239854166497,
            "durationTicks": 53,
            "midi": 57,
            "name": "A3",
            "ticks": 271320,
            "time": 289.87207025,
            "velocity": 1
          },
          {
            "duration": 0.04273508333335485,
            "durationTicks": 40,
            "midi": 60,
            "name": "C4",
            "ticks": 271440,
            "time": 290.0002755,
            "velocity": 1
          },
          {
            "duration": 0.8311973708333085,
            "durationTicks": 778,
            "midi": 61,
            "name": "C#4",
            "ticks": 271440,
            "time": 290.0002755,
            "velocity": 1
          }
        ]
      },
      {
        "channel": 0,
        "controlChanges": {
          "0": [
            {
              "number": 0,
              "ticks": 560,
              "time": 0.5982911666666667,
              "value": 0
            }
          ],
          "32": [
            {
              "number": 32,
              "ticks": 563,
              "time": 0.6014962979166666,
              "value": 0
            }
          ],
          "121": [
            {
              "number": 121,
              "ticks": 485,
              "time": 0.5181628854166667,
              "value": 0
            }
          ]
        },
        "pitchBends": [],
        "instrument": {
          "family": "piano",
          "number": 0,
          "name": "acoustic grand piano"
        },
        "name": "       ",
        "notes": [],
        "endOfTrackTicks": 274560
      },
      {
        "channel": 6,
        "controlChanges": {
          "6": [
            {
              "number": 6,
              "ticks": 1580,
              "time": 1.6880357916666664,
              "value": 0.4094488188976378
            }
          ],
          "7": [
            {
              "number": 7,
              "ticks": 568,
              "time": 0.6068381833333333,
              "value": 0.6614173228346457
            }
          ],
          "10": [
            {
              "number": 10,
              "ticks": 568,
              "time": 0.6068381833333333,
              "value": 0.5039370078740157
            },
            {
              "number": 10,
              "ticks": 3240,
              "time": 3.46154175,
              "value": 0.49606299212598426
            },
            {
              "number": 10,
              "ticks": 5912,
              "time": 6.3162453166666666,
              "value": 0.4881889763779528
            },
            {
              "number": 10,
              "ticks": 8585,
              "time": 9.172017260416666,
              "value": 0.48031496062992124
            },
            {
              "number": 10,
              "ticks": 11257,
              "time": 12.026720827083333,
              "value": 0.47244094488188976
            },
            {
              "number": 10,
              "ticks": 13930,
              "time": 14.882492770833332,
              "value": 0.4645669291338583
            },
            {
              "number": 10,
              "ticks": 16602,
              "time": 17.7371963375,
              "value": 0.4566929133858268
            },
            {
              "number": 10,
              "ticks": 19275,
              "time": 20.59296828125,
              "value": 0.44881889763779526
            },
            {
              "number": 10,
              "ticks": 21947,
              "time": 23.447671847916666,
              "value": 0.4409448818897638
            },
            {
              "number": 10,
              "ticks": 24620,
              "time": 26.303443791666663,
              "value": 0.4330708661417323
            },
            {
              "number": 10,
              "ticks": 27292,
              "time": 29.15814735833333,
              "value": 0.4251968503937008
            },
            {
              "number": 10,
              "ticks": 29965,
              "time": 32.01391930208333,
              "value": 0.41732283464566927
            },
            {
              "number": 10,
              "ticks": 32637,
              "time": 34.86862286875,
              "value": 0.4094488188976378
            },
            {
              "number": 10,
              "ticks": 35309,
              "time": 37.723326435416666,
              "value": 0.4015748031496063
            },
            {
              "number": 10,
              "ticks": 37982,
              "time": 40.57909837916666,
              "value": 0.3937007874015748
            },
            {
              "number": 10,
              "ticks": 40654,
              "time": 43.43380194583334,
              "value": 0.3858267716535433
            },
            {
              "number": 10,
              "ticks": 43327,
              "time": 46.28957388958333,
              "value": 0.3779527559055118
            },
            {
              "number": 10,
              "ticks": 45999,
              "time": 49.144277456249995,
              "value": 0.3700787401574803
            },
            {
              "number": 10,
              "ticks": 48672,
              "time": 52.0000494,
              "value": 0.36220472440944884
            },
            {
              "number": 10,
              "ticks": 51344,
              "time": 54.854752966666666,
              "value": 0.3543307086614173
            },
            {
              "number": 10,
              "ticks": 54017,
              "time": 57.71052491041666,
              "value": 0.3464566929133858
            },
            {
              "number": 10,
              "ticks": 56689,
              "time": 60.56522847708333,
              "value": 0.33858267716535434
            },
            {
              "number": 10,
              "ticks": 59362,
              "time": 63.42100042083333,
              "value": 0.33070866141732286
            },
            {
              "number": 10,
              "ticks": 62034,
              "time": 66.27570398750001,
              "value": 0.3228346456692913
            },
            {
              "number": 10,
              "ticks": 64707,
              "time": 69.13147593125,
              "value": 0.31496062992125984
            },
            {
              "number": 10,
              "ticks": 67379,
              "time": 71.98617949791667,
              "value": 0.30708661417322836
            },
            {
              "number": 10,
              "ticks": 70051,
              "time": 74.84088306458332,
              "value": 0.2992125984251969
            },
            {
              "number": 10,
              "ticks": 72724,
              "time": 77.69665500833332,
              "value": 0.29133858267716534
            },
            {
              "number": 10,
              "ticks": 75396,
              "time": 80.551358575,
              "value": 0.28346456692913385
            },
            {
              "number": 10,
              "ticks": 78069,
              "time": 83.40713051875,
              "value": 0.2755905511811024
            },
            {
              "number": 10,
              "ticks": 80741,
              "time": 86.26183408541667,
              "value": 0.2677165354330709
            },
            {
              "number": 10,
              "ticks": 83414,
              "time": 89.11760602916667,
              "value": 0.25984251968503935
            },
            {
              "number": 10,
              "ticks": 86086,
              "time": 91.97230959583332,
              "value": 0.25196850393700787
            },
            {
              "number": 10,
              "ticks": 88759,
              "time": 94.82808153958332,
              "value": 0.2440944881889764
            },
            {
              "number": 10,
              "ticks": 91431,
              "time": 97.68278510625,
              "value": 0.23622047244094488
            },
            {
              "number": 10,
              "ticks": 94104,
              "time": 100.53855705,
              "value": 0.2283464566929134
            },
            {
              "number": 10,
              "ticks": 96776,
              "time": 103.39326061666667,
              "value": 0.2204724409448819
            },
            {
              "number": 10,
              "ticks": 99449,
              "time": 106.24903256041667,
              "value": 0.2125984251968504
            },
            {
              "number": 10,
              "ticks": 102121,
              "time": 109.10373612708332,
              "value": 0.2047244094488189
            },
            {
              "number": 10,
              "ticks": 104793,
              "time": 111.95843969375,
              "value": 0.1968503937007874
            },
            {
              "number": 10,
              "ticks": 107466,
              "time": 114.8142116375,
              "value": 0.1889763779527559
            },
            {
              "number": 10,
              "ticks": 110138,
              "time": 117.66891520416667,
              "value": 0.18110236220472442
            },
            {
              "number": 10,
              "ticks": 112810,
              "time": 120.52361877083334,
              "value": 0.1732283464566929
            },
            {
              "number": 10,
              "ticks": 115483,
              "time": 123.37939071458332,
              "value": 0.16535433070866143
            },
            {
              "number": 10,
              "ticks": 118156,
              "time": 126.23516265833332,
              "value": 0.15748031496062992
            },
            {
              "number": 10,
              "ticks": 120828,
              "time": 129.08986622499998,
              "value": 0.14960629921259844
            },
            {
              "number": 10,
              "ticks": 123501,
              "time": 131.94563816874998,
              "value": 0.14173228346456693
            },
            {
              "number": 10,
              "ticks": 126173,
              "time": 134.80034173541665,
              "value": 0.13385826771653545
            },
            {
              "number": 10,
              "ticks": 128846,
              "time": 137.65611367916665,
              "value": 0.12598425196850394
            },
            {
              "number": 10,
              "ticks": 131518,
              "time": 140.51081724583332,
              "value": 0.11811023622047244
            },
            {
              "number": 10,
              "ticks": 134191,
              "time": 143.36658918958335,
              "value": 0.11023622047244094
            },
            {
              "number": 10,
              "ticks": 136863,
              "time": 146.22129275625,
              "value": 0.10236220472440945
            },
            {
              "number": 10,
              "ticks": 139535,
              "time": 149.07599632291667,
              "value": 0.09448818897637795
            },
            {
              "number": 10,
              "ticks": 142208,
              "time": 151.93176826666664,
              "value": 0.08661417322834646
            },
            {
              "number": 10,
              "ticks": 144880,
              "time": 154.7864718333333,
              "value": 0.07874015748031496
            },
            {
              "number": 10,
              "ticks": 147553,
              "time": 157.64224377708334,
              "value": 0.07086614173228346
            },
            {
              "number": 10,
              "ticks": 150225,
              "time": 160.49694734374998,
              "value": 0.06299212598425197
            },
            {
              "number": 10,
              "ticks": 152898,
              "time": 163.3527192875,
              "value": 0.05511811023622047
            },
            {
              "number": 10,
              "ticks": 155570,
              "time": 166.20742285416668,
              "value": 0.047244094488188976
            },
            {
              "number": 10,
              "ticks": 158243,
              "time": 169.06319479791665,
              "value": 0.03937007874015748
            },
            {
              "number": 10,
              "ticks": 160915,
              "time": 171.91789836458332,
              "value": 0.031496062992125984
            },
            {
              "number": 10,
              "ticks": 163588,
              "time": 174.77367030833332,
              "value": 0.023622047244094488
            },
            {
              "number": 10,
              "ticks": 166260,
              "time": 177.628373875,
              "value": 0.015748031496062992
            },
            {
              "number": 10,
              "ticks": 168933,
              "time": 180.48414581875,
              "value": 0.007874015748031496
            },
            {
              "number": 10,
              "ticks": 171605,
              "time": 183.33884938541667,
              "value": 0
            },
            {
              "number": 10,
              "ticks": 171621,
              "time": 183.35594341874997,
              "value": 0
            },
            {
              "number": 10,
              "ticks": 171636,
              "time": 183.37196907499998,
              "value": 0.007874015748031496
            },
            {
              "number": 10,
              "ticks": 171652,
              "time": 183.38906310833332,
              "value": 0.015748031496062992
            },
            {
              "number": 10,
              "ticks": 171667,
              "time": 183.40508876458333,
              "value": 0.023622047244094488
            },
            {
              "number": 10,
              "ticks": 171683,
              "time": 183.42218279791666,
              "value": 0.031496062992125984
            },
            {
              "number": 10,
              "ticks": 171698,
              "time": 183.43820845416664,
              "value": 0.03937007874015748
            },
            {
              "number": 10,
              "ticks": 171714,
              "time": 183.4553024875,
              "value": 0.047244094488188976
            },
            {
              "number": 10,
              "ticks": 171729,
              "time": 183.47132814375,
              "value": 0.05511811023622047
            },
            {
              "number": 10,
              "ticks": 171745,
              "time": 183.48842217708332,
              "value": 0.06299212598425197
            },
            {
              "number": 10,
              "ticks": 171760,
              "time": 183.5044478333333,
              "value": 0.07086614173228346
            },
            {
              "number": 10,
              "ticks": 171776,
              "time": 183.52154186666667,
              "value": 0.07874015748031496
            },
            {
              "number": 10,
              "ticks": 171791,
              "time": 183.53756752291665,
              "value": 0.08661417322834646
            },
            {
              "number": 10,
              "ticks": 171807,
              "time": 183.55466155624998,
              "value": 0.09448818897637795
            },
            {
              "number": 10,
              "ticks": 171822,
              "time": 183.5706872125,
              "value": 0.10236220472440945
            },
            {
              "number": 10,
              "ticks": 171838,
              "time": 183.58778124583333,
              "value": 0.11023622047244094
            },
            {
              "number": 10,
              "ticks": 171853,
              "time": 183.60380690208333,
              "value": 0.11811023622047244
            },
            {
              "number": 10,
              "ticks": 171869,
              "time": 183.62090093541664,
              "value": 0.12598425196850394
            },
            {
              "number": 10,
              "ticks": 171884,
              "time": 183.63692659166665,
              "value": 0.13385826771653545
            },
            {
              "number": 10,
              "ticks": 171900,
              "time": 183.654020625,
              "value": 0.14173228346456693
            },
            {
              "number": 10,
              "ticks": 171915,
              "time": 183.67004628125,
              "value": 0.14960629921259844
            },
            {
              "number": 10,
              "ticks": 171931,
              "time": 183.68714031458333,
              "value": 0.15748031496062992
            },
            {
              "number": 10,
              "ticks": 171946,
              "time": 183.70316597083334,
              "value": 0.16535433070866143
            },
            {
              "number": 10,
              "ticks": 171962,
              "time": 183.72026000416665,
              "value": 0.1732283464566929
            },
            {
              "number": 10,
              "ticks": 171977,
              "time": 183.73628566041666,
              "value": 0.18110236220472442
            },
            {
              "number": 10,
              "ticks": 171993,
              "time": 183.75337969375,
              "value": 0.1889763779527559
            },
            {
              "number": 10,
              "ticks": 172008,
              "time": 183.76940535,
              "value": 0.1968503937007874
            },
            {
              "number": 10,
              "ticks": 172024,
              "time": 183.7864993833333,
              "value": 0.2047244094488189
            },
            {
              "number": 10,
              "ticks": 172039,
              "time": 183.80252503958332,
              "value": 0.2125984251968504
            },
            {
              "number": 10,
              "ticks": 172055,
              "time": 183.81961907291668,
              "value": 0.2204724409448819
            },
            {
              "number": 10,
              "ticks": 172070,
              "time": 183.83564472916666,
              "value": 0.2283464566929134
            },
            {
              "number": 10,
              "ticks": 172086,
              "time": 183.8527387625,
              "value": 0.23622047244094488
            },
            {
              "number": 10,
              "ticks": 172101,
              "time": 183.86876441874998,
              "value": 0.2440944881889764
            },
            {
              "number": 10,
              "ticks": 172117,
              "time": 183.88585845208334,
              "value": 0.25196850393700787
            },
            {
              "number": 10,
              "ticks": 172132,
              "time": 183.90188410833332,
              "value": 0.25984251968503935
            },
            {
              "number": 10,
              "ticks": 172148,
              "time": 183.91897814166666,
              "value": 0.2677165354330709
            },
            {
              "number": 10,
              "ticks": 172163,
              "time": 183.93500379791664,
              "value": 0.2755905511811024
            },
            {
              "number": 10,
              "ticks": 172179,
              "time": 183.95209783125,
              "value": 0.28346456692913385
            },
            {
              "number": 10,
              "ticks": 172194,
              "time": 183.9681234875,
              "value": 0.29133858267716534
            },
            {
              "number": 10,
              "ticks": 172210,
              "time": 183.98521752083332,
              "value": 0.2992125984251969
            },
            {
              "number": 10,
              "ticks": 172225,
              "time": 184.00124317708332,
              "value": 0.30708661417322836
            },
            {
              "number": 10,
              "ticks": 172241,
              "time": 184.01833721041666,
              "value": 0.31496062992125984
            },
            {
              "number": 10,
              "ticks": 172256,
              "time": 184.03436286666667,
              "value": 0.3228346456692913
            },
            {
              "number": 10,
              "ticks": 172273,
              "time": 184.05252527708333,
              "value": 0.33070866141732286
            },
            {
              "number": 10,
              "ticks": 172288,
              "time": 184.0685509333333,
              "value": 0.33858267716535434
            },
            {
              "number": 10,
              "ticks": 172303,
              "time": 184.08457658958332,
              "value": 0.3464566929133858
            },
            {
              "number": 10,
              "ticks": 172319,
              "time": 184.10167062291663,
              "value": 0.3543307086614173
            },
            {
              "number": 10,
              "ticks": 172334,
              "time": 184.11769627916664,
              "value": 0.36220472440944884
            },
            {
              "number": 10,
              "ticks": 172350,
              "time": 184.1347903125,
              "value": 0.3700787401574803
            },
            {
              "number": 10,
              "ticks": 172365,
              "time": 184.15081596874998,
              "value": 0.3779527559055118
            },
            {
              "number": 10,
              "ticks": 172381,
              "time": 184.16791000208335,
              "value": 0.3858267716535433
            },
            {
              "number": 10,
              "ticks": 172396,
              "time": 184.18393565833333,
              "value": 0.3937007874015748
            },
            {
              "number": 10,
              "ticks": 172412,
              "time": 184.20102969166666,
              "value": 0.4015748031496063
            },
            {
              "number": 10,
              "ticks": 172427,
              "time": 184.21705534791664,
              "value": 0.4094488188976378
            },
            {
              "number": 10,
              "ticks": 172443,
              "time": 184.23414938125,
              "value": 0.41732283464566927
            },
            {
              "number": 10,
              "ticks": 172458,
              "time": 184.25017503750001,
              "value": 0.4251968503937008
            },
            {
              "number": 10,
              "ticks": 172474,
              "time": 184.26726907083332,
              "value": 0.4330708661417323
            },
            {
              "number": 10,
              "ticks": 172489,
              "time": 184.28329472708333,
              "value": 0.4409448818897638
            },
            {
              "number": 10,
              "ticks": 172505,
              "time": 184.30038876041667,
              "value": 0.44881889763779526
            },
            {
              "number": 10,
              "ticks": 172520,
              "time": 184.31641441666667,
              "value": 0.4566929133858268
            },
            {
              "number": 10,
              "ticks": 172536,
              "time": 184.33350844999998,
              "value": 0.4645669291338583
            },
            {
              "number": 10,
              "ticks": 172551,
              "time": 184.34953410625,
              "value": 0.47244094488188976
            },
            {
              "number": 10,
              "ticks": 172567,
              "time": 184.36662813958333,
              "value": 0.48031496062992124
            },
            {
              "number": 10,
              "ticks": 172582,
              "time": 184.38265379583333,
              "value": 0.4881889763779528
            },
            {
              "number": 10,
              "ticks": 172598,
              "time": 184.39974782916664,
              "value": 0.49606299212598426
            },
            {
              "number": 10,
              "ticks": 172613,
              "time": 184.41577348541665,
              "value": 0.5039370078740157
            },
            {
              "number": 10,
              "ticks": 172629,
              "time": 184.43286751875,
              "value": 0.5118110236220472
            },
            {
              "number": 10,
              "ticks": 172644,
              "time": 184.448893175,
              "value": 0.5196850393700787
            },
            {
              "number": 10,
              "ticks": 172660,
              "time": 184.4659872083333,
              "value": 0.5275590551181102
            },
            {
              "number": 10,
              "ticks": 172675,
              "time": 184.4820128645833,
              "value": 0.5354330708661418
            },
            {
              "number": 10,
              "ticks": 172691,
              "time": 184.49910689791665,
              "value": 0.5433070866141733
            },
            {
              "number": 10,
              "ticks": 172706,
              "time": 184.51513255416666,
              "value": 0.5511811023622047
            },
            {
              "number": 10,
              "ticks": 172722,
              "time": 184.5322265875,
              "value": 0.5590551181102362
            },
            {
              "number": 10,
              "ticks": 172737,
              "time": 184.54825224374997,
              "value": 0.5669291338582677
            },
            {
              "number": 10,
              "ticks": 172753,
              "time": 184.56534627708334,
              "value": 0.5748031496062992
            },
            {
              "number": 10,
              "ticks": 172768,
              "time": 184.58137193333332,
              "value": 0.5826771653543307
            },
            {
              "number": 10,
              "ticks": 172784,
              "time": 184.59846596666665,
              "value": 0.5905511811023622
            },
            {
              "number": 10,
              "ticks": 172799,
              "time": 184.61449162291663,
              "value": 0.5984251968503937
            },
            {
              "number": 10,
              "ticks": 172815,
              "time": 184.63158565625,
              "value": 0.6062992125984252
            },
            {
              "number": 10,
              "ticks": 172830,
              "time": 184.64761131249998,
              "value": 0.6141732283464567
            },
            {
              "number": 10,
              "ticks": 172846,
              "time": 184.66470534583334,
              "value": 0.6220472440944882
            },
            {
              "number": 10,
              "ticks": 172861,
              "time": 184.68073100208335,
              "value": 0.6299212598425197
            },
            {
              "number": 10,
              "ticks": 172877,
              "time": 184.69782503541666,
              "value": 0.6377952755905512
            },
            {
              "number": 10,
              "ticks": 172892,
              "time": 184.71385069166666,
              "value": 0.6456692913385826
            },
            {
              "number": 10,
              "ticks": 172908,
              "time": 184.730944725,
              "value": 0.6535433070866141
            },
            {
              "number": 10,
              "ticks": 172924,
              "time": 184.7480387583333,
              "value": 0.6614173228346457
            },
            {
              "number": 10,
              "ticks": 172939,
              "time": 184.76406441458332,
              "value": 0.6692913385826772
            },
            {
              "number": 10,
              "ticks": 172955,
              "time": 184.78115844791665,
              "value": 0.6771653543307087
            },
            {
              "number": 10,
              "ticks": 172970,
              "time": 184.79718410416666,
              "value": 0.6850393700787402
            },
            {
              "number": 10,
              "ticks": 172986,
              "time": 184.8142781375,
              "value": 0.6929133858267716
            },
            {
              "number": 10,
              "ticks": 173001,
              "time": 184.83030379374998,
              "value": 0.7007874015748031
            },
            {
              "number": 10,
              "ticks": 173017,
              "time": 184.84739782708334,
              "value": 0.7086614173228346
            },
            {
              "number": 10,
              "ticks": 173032,
              "time": 184.86342348333332,
              "value": 0.7165354330708661
            },
            {
              "number": 10,
              "ticks": 173048,
              "time": 184.88051751666666,
              "value": 0.7244094488188977
            },
            {
              "number": 10,
              "ticks": 173063,
              "time": 184.89654317291664,
              "value": 0.7322834645669292
            },
            {
              "number": 10,
              "ticks": 173079,
              "time": 184.91363720625,
              "value": 0.7401574803149606
            },
            {
              "number": 10,
              "ticks": 173094,
              "time": 184.9296628625,
              "value": 0.7480314960629921
            },
            {
              "number": 10,
              "ticks": 173110,
              "time": 184.94675689583332,
              "value": 0.7559055118110236
            },
            {
              "number": 10,
              "ticks": 173125,
              "time": 184.96278255208333,
              "value": 0.7637795275590551
            },
            {
              "number": 10,
              "ticks": 173141,
              "time": 184.97987658541666,
              "value": 0.7716535433070866
            },
            {
              "number": 10,
              "ticks": 173156,
              "time": 184.99590224166667,
              "value": 0.7795275590551181
            },
            {
              "number": 10,
              "ticks": 173172,
              "time": 185.01299627499998,
              "value": 0.7874015748031497
            },
            {
              "number": 10,
              "ticks": 173187,
              "time": 185.02902193124999,
              "value": 0.7952755905511811
            },
            {
              "number": 10,
              "ticks": 173203,
              "time": 185.04611596458332,
              "value": 0.8031496062992126
            },
            {
              "number": 10,
              "ticks": 173218,
              "time": 185.06214162083333,
              "value": 0.8110236220472441
            },
            {
              "number": 10,
              "ticks": 173234,
              "time": 185.07923565416664,
              "value": 0.8188976377952756
            },
            {
              "number": 10,
              "ticks": 173249,
              "time": 185.09526131041665,
              "value": 0.8267716535433071
            },
            {
              "number": 10,
              "ticks": 173265,
              "time": 185.11235534374998,
              "value": 0.8346456692913385
            },
            {
              "number": 10,
              "ticks": 173280,
              "time": 185.128381,
              "value": 0.84251968503937
            },
            {
              "number": 10,
              "ticks": 173296,
              "time": 185.14547503333333,
              "value": 0.8503937007874016
            },
            {
              "number": 10,
              "ticks": 173311,
              "time": 185.16150068958333,
              "value": 0.8582677165354331
            },
            {
              "number": 10,
              "ticks": 173327,
              "time": 185.17859472291664,
              "value": 0.8661417322834646
            },
            {
              "number": 10,
              "ticks": 173342,
              "time": 185.19462037916665,
              "value": 0.8740157480314961
            },
            {
              "number": 10,
              "ticks": 173358,
              "time": 185.21171441250002,
              "value": 0.8818897637795275
            },
            {
              "number": 10,
              "ticks": 173373,
              "time": 185.22774006875,
              "value": 0.889763779527559
            },
            {
              "number": 10,
              "ticks": 173389,
              "time": 185.24483410208333,
              "value": 0.8976377952755905
            },
            {
              "number": 10,
              "ticks": 173404,
              "time": 185.2608597583333,
              "value": 0.905511811023622
            },
            {
              "number": 10,
              "ticks": 173420,
              "time": 185.27795379166668,
              "value": 0.9133858267716536
            },
            {
              "number": 10,
              "ticks": 173435,
              "time": 185.29397944791666,
              "value": 0.9212598425196851
            },
            {
              "number": 10,
              "ticks": 173451,
              "time": 185.31107348125,
              "value": 0.9291338582677166
            },
            {
              "number": 10,
              "ticks": 173466,
              "time": 185.32709913749997,
              "value": 0.937007874015748
            },
            {
              "number": 10,
              "ticks": 173482,
              "time": 185.34419317083334,
              "value": 0.9448818897637795
            },
            {
              "number": 10,
              "ticks": 173497,
              "time": 185.36021882708334,
              "value": 0.952755905511811
            },
            {
              "number": 10,
              "ticks": 173513,
              "time": 185.37731286041665,
              "value": 0.9606299212598425
            },
            {
              "number": 10,
              "ticks": 173528,
              "time": 185.39333851666666,
              "value": 0.968503937007874
            },
            {
              "number": 10,
              "ticks": 173544,
              "time": 185.41043255,
              "value": 0.9763779527559056
            },
            {
              "number": 10,
              "ticks": 173559,
              "time": 185.42645820625,
              "value": 0.984251968503937
            },
            {
              "number": 10,
              "ticks": 173575,
              "time": 185.4435522395833,
              "value": 0.9921259842519685
            },
            {
              "number": 10,
              "ticks": 173575,
              "time": 185.4435522395833,
              "value": 1
            },
            {
              "number": 10,
              "ticks": 173588,
              "time": 185.45744114166664,
              "value": 0.9921259842519685
            },
            {
              "number": 10,
              "ticks": 173600,
              "time": 185.47026166666666,
              "value": 0.984251968503937
            },
            {
              "number": 10,
              "ticks": 173614,
              "time": 185.4852189458333,
              "value": 0.9763779527559056
            },
            {
              "number": 10,
              "ticks": 173626,
              "time": 185.49803947083333,
              "value": 0.968503937007874
            },
            {
              "number": 10,
              "ticks": 173638,
              "time": 185.51085999583333,
              "value": 0.9606299212598425
            },
            {
              "number": 10,
              "ticks": 173652,
              "time": 185.52581727499998,
              "value": 0.952755905511811
            },
            {
              "number": 10,
              "ticks": 173664,
              "time": 185.5386378,
              "value": 0.9448818897637795
            },
            {
              "number": 10,
              "ticks": 173677,
              "time": 185.55252670208333,
              "value": 0.937007874015748
            },
            {
              "number": 10,
              "ticks": 173689,
              "time": 185.56534722708332,
              "value": 0.9291338582677166
            },
            {
              "number": 10,
              "ticks": 173702,
              "time": 185.57923612916665,
              "value": 0.9212598425196851
            },
            {
              "number": 10,
              "ticks": 173715,
              "time": 185.59312503125,
              "value": 0.9133858267716536
            },
            {
              "number": 10,
              "ticks": 173727,
              "time": 185.60594555625,
              "value": 0.905511811023622
            },
            {
              "number": 10,
              "ticks": 173741,
              "time": 185.62090283541667,
              "value": 0.8976377952755905
            },
            {
              "number": 10,
              "ticks": 173753,
              "time": 185.63372336041664,
              "value": 0.889763779527559
            },
            {
              "number": 10,
              "ticks": 173765,
              "time": 185.64654388541666,
              "value": 0.8818897637795275
            },
            {
              "number": 10,
              "ticks": 173779,
              "time": 185.6615011645833,
              "value": 0.8740157480314961
            },
            {
              "number": 10,
              "ticks": 173791,
              "time": 185.67432168958334,
              "value": 0.8661417322834646
            },
            {
              "number": 10,
              "ticks": 173804,
              "time": 185.68821059166663,
              "value": 0.8582677165354331
            },
            {
              "number": 10,
              "ticks": 173816,
              "time": 185.70103111666666,
              "value": 0.8503937007874016
            },
            {
              "number": 10,
              "ticks": 173829,
              "time": 185.71492001875,
              "value": 0.84251968503937
            },
            {
              "number": 10,
              "ticks": 173842,
              "time": 185.72880892083333,
              "value": 0.8346456692913385
            },
            {
              "number": 10,
              "ticks": 173854,
              "time": 185.74162944583333,
              "value": 0.8267716535433071
            },
            {
              "number": 10,
              "ticks": 173868,
              "time": 185.756586725,
              "value": 0.8188976377952756
            },
            {
              "number": 10,
              "ticks": 173880,
              "time": 185.76940725,
              "value": 0.8110236220472441
            },
            {
              "number": 10,
              "ticks": 173892,
              "time": 185.78222777499997,
              "value": 0.8031496062992126
            },
            {
              "number": 10,
              "ticks": 173905,
              "time": 185.79611667708332,
              "value": 0.7952755905511811
            },
            {
              "number": 10,
              "ticks": 173918,
              "time": 185.81000557916664,
              "value": 0.7874015748031497
            },
            {
              "number": 10,
              "ticks": 173931,
              "time": 185.82389448125,
              "value": 0.7795275590551181
            },
            {
              "number": 10,
              "ticks": 173943,
              "time": 185.83671500625,
              "value": 0.7716535433070866
            },
            {
              "number": 10,
              "ticks": 173956,
              "time": 185.85060390833334,
              "value": 0.7637795275590551
            },
            {
              "number": 10,
              "ticks": 173969,
              "time": 185.86449281041664,
              "value": 0.7559055118110236
            },
            {
              "number": 10,
              "ticks": 173981,
              "time": 185.87731333541666,
              "value": 0.7480314960629921
            },
            {
              "number": 10,
              "ticks": 173995,
              "time": 185.8922706145833,
              "value": 0.7401574803149606
            },
            {
              "number": 10,
              "ticks": 174007,
              "time": 185.90509113958333,
              "value": 0.7322834645669292
            },
            {
              "number": 10,
              "ticks": 174019,
              "time": 185.91791166458333,
              "value": 0.7244094488188977
            },
            {
              "number": 10,
              "ticks": 174033,
              "time": 185.93286894375,
              "value": 0.7165354330708661
            },
            {
              "number": 10,
              "ticks": 174045,
              "time": 185.94568946874998,
              "value": 0.7086614173228346
            },
            {
              "number": 10,
              "ticks": 174058,
              "time": 185.95957837083333,
              "value": 0.7007874015748031
            },
            {
              "number": 10,
              "ticks": 174070,
              "time": 185.97239889583332,
              "value": 0.6929133858267716
            },
            {
              "number": 10,
              "ticks": 174083,
              "time": 185.98628779791665,
              "value": 0.6850393700787402
            },
            {
              "number": 10,
              "ticks": 174096,
              "time": 186.0001767,
              "value": 0.6771653543307087
            },
            {
              "number": 10,
              "ticks": 174108,
              "time": 186.012997225,
              "value": 0.6692913385826772
            },
            {
              "number": 10,
              "ticks": 174122,
              "time": 186.02795450416664,
              "value": 0.6614173228346457
            },
            {
              "number": 10,
              "ticks": 174134,
              "time": 186.04077502916664,
              "value": 0.6535433070866141
            },
            {
              "number": 10,
              "ticks": 174146,
              "time": 186.05359555416666,
              "value": 0.6456692913385826
            },
            {
              "number": 10,
              "ticks": 174160,
              "time": 186.0685528333333,
              "value": 0.6377952755905512
            },
            {
              "number": 10,
              "ticks": 174172,
              "time": 186.08137335833334,
              "value": 0.6299212598425197
            },
            {
              "number": 10,
              "ticks": 174185,
              "time": 186.09526226041666,
              "value": 0.6220472440944882
            },
            {
              "number": 10,
              "ticks": 174197,
              "time": 186.10808278541666,
              "value": 0.6141732283464567
            },
            {
              "number": 10,
              "ticks": 174210,
              "time": 186.12197168749998,
              "value": 0.6062992125984252
            },
            {
              "number": 10,
              "ticks": 174223,
              "time": 186.13586058958333,
              "value": 0.5984251968503937
            },
            {
              "number": 10,
              "ticks": 174235,
              "time": 186.14868111458333,
              "value": 0.5905511811023622
            },
            {
              "number": 10,
              "ticks": 174249,
              "time": 186.16363839375,
              "value": 0.5826771653543307
            },
            {
              "number": 10,
              "ticks": 174261,
              "time": 186.17645891874997,
              "value": 0.5748031496062992
            },
            {
              "number": 10,
              "ticks": 174273,
              "time": 186.18927944375,
              "value": 0.5669291338582677
            },
            {
              "number": 10,
              "ticks": 174287,
              "time": 186.20423672291665,
              "value": 0.5590551181102362
            },
            {
              "number": 10,
              "ticks": 174299,
              "time": 186.21705724791664,
              "value": 0.5511811023622047
            },
            {
              "number": 10,
              "ticks": 174312,
              "time": 186.23094614999997,
              "value": 0.5433070866141733
            },
            {
              "number": 10,
              "ticks": 174324,
              "time": 186.243766675,
              "value": 0.5354330708661418
            },
            {
              "number": 10,
              "ticks": 174337,
              "time": 186.25765557708334,
              "value": 0.5275590551181102
            },
            {
              "number": 10,
              "ticks": 174350,
              "time": 186.27154447916666,
              "value": 0.5196850393700787
            },
            {
              "number": 10,
              "ticks": 174362,
              "time": 186.28436500416666,
              "value": 0.5118110236220472
            },
            {
              "number": 10,
              "ticks": 174375,
              "time": 186.29825390624998,
              "value": 0.5039370078740157
            },
            {
              "number": 10,
              "ticks": 174375,
              "time": 186.29825390624998,
              "value": 0.5039370078740157
            },
            {
              "number": 10,
              "ticks": 174572,
              "time": 186.50872419166666,
              "value": 0.49606299212598426
            },
            {
              "number": 10,
              "ticks": 174768,
              "time": 186.7181261,
              "value": 0.4881889763779528
            },
            {
              "number": 10,
              "ticks": 174966,
              "time": 186.92966476249998,
              "value": 0.48031496062992124
            },
            {
              "number": 10,
              "ticks": 175162,
              "time": 187.13906667083333,
              "value": 0.47244094488188976
            },
            {
              "number": 10,
              "ticks": 175359,
              "time": 187.34953695625,
              "value": 0.4645669291338583
            },
            {
              "number": 10,
              "ticks": 175555,
              "time": 187.55893886458333,
              "value": 0.4566929133858268
            },
            {
              "number": 10,
              "ticks": 175753,
              "time": 187.77047752708333,
              "value": 0.44881889763779526
            },
            {
              "number": 10,
              "ticks": 175949,
              "time": 187.97987943541665,
              "value": 0.4409448818897638
            },
            {
              "number": 10,
              "ticks": 176145,
              "time": 188.18928134375,
              "value": 0.4330708661417323
            },
            {
              "number": 10,
              "ticks": 176343,
              "time": 188.40082000625,
              "value": 0.4251968503937008
            },
            {
              "number": 10,
              "ticks": 176539,
              "time": 188.61022191458332,
              "value": 0.41732283464566927
            },
            {
              "number": 10,
              "ticks": 176736,
              "time": 188.8206922,
              "value": 0.4094488188976378
            },
            {
              "number": 10,
              "ticks": 176932,
              "time": 189.03009410833334,
              "value": 0.4015748031496063
            },
            {
              "number": 10,
              "ticks": 177130,
              "time": 189.24163277083332,
              "value": 0.3937007874015748
            },
            {
              "number": 10,
              "ticks": 177326,
              "time": 189.45103467916667,
              "value": 0.3858267716535433
            },
            {
              "number": 10,
              "ticks": 177523,
              "time": 189.66150496458332,
              "value": 0.3779527559055118
            },
            {
              "number": 10,
              "ticks": 177719,
              "time": 189.87090687291663,
              "value": 0.3700787401574803
            },
            {
              "number": 10,
              "ticks": 177916,
              "time": 190.08137715833334,
              "value": 0.36220472440944884
            },
            {
              "number": 10,
              "ticks": 178113,
              "time": 190.29184744375002,
              "value": 0.3543307086614173
            },
            {
              "number": 10,
              "ticks": 178309,
              "time": 190.5012493520833,
              "value": 0.3464566929133858
            },
            {
              "number": 10,
              "ticks": 178507,
              "time": 190.71278801458334,
              "value": 0.33858267716535434
            },
            {
              "number": 10,
              "ticks": 178703,
              "time": 190.92218992291666,
              "value": 0.33070866141732286
            },
            {
              "number": 10,
              "ticks": 178900,
              "time": 191.1326602083333,
              "value": 0.3228346456692913
            },
            {
              "number": 10,
              "ticks": 179096,
              "time": 191.34206211666665,
              "value": 0.31496062992125984
            },
            {
              "number": 10,
              "ticks": 179293,
              "time": 191.55253240208333,
              "value": 0.30708661417322836
            },
            {
              "number": 10,
              "ticks": 179490,
              "time": 191.76300268749998,
              "value": 0.2992125984251969
            },
            {
              "number": 10,
              "ticks": 179686,
              "time": 191.97240459583332,
              "value": 0.29133858267716534
            },
            {
              "number": 10,
              "ticks": 179884,
              "time": 192.18394325833333,
              "value": 0.28346456692913385
            },
            {
              "number": 10,
              "ticks": 180080,
              "time": 192.39334516666668,
              "value": 0.2755905511811024
            },
            {
              "number": 10,
              "ticks": 180277,
              "time": 192.60381545208332,
              "value": 0.2677165354330709
            },
            {
              "number": 10,
              "ticks": 180473,
              "time": 192.81321736041664,
              "value": 0.25984251968503935
            },
            {
              "number": 10,
              "ticks": 180670,
              "time": 193.02368764583332,
              "value": 0.25196850393700787
            },
            {
              "number": 10,
              "ticks": 180867,
              "time": 193.23415793124997,
              "value": 0.2440944881889764
            },
            {
              "number": 10,
              "ticks": 181063,
              "time": 193.44355983958332,
              "value": 0.23622047244094488
            },
            {
              "number": 10,
              "ticks": 181260,
              "time": 193.654030125,
              "value": 0.2283464566929134
            },
            {
              "number": 10,
              "ticks": 181457,
              "time": 193.86450041041667,
              "value": 0.2204724409448819
            },
            {
              "number": 10,
              "ticks": 181654,
              "time": 194.07497069583331,
              "value": 0.2125984251968504
            },
            {
              "number": 10,
              "ticks": 181850,
              "time": 194.28437260416666,
              "value": 0.2047244094488189
            },
            {
              "number": 10,
              "ticks": 182047,
              "time": 194.49484288958334,
              "value": 0.1968503937007874
            },
            {
              "number": 10,
              "ticks": 182244,
              "time": 194.705313175,
              "value": 0.1889763779527559
            },
            {
              "number": 10,
              "ticks": 182440,
              "time": 194.9147150833333,
              "value": 0.18110236220472442
            },
            {
              "number": 10,
              "ticks": 182638,
              "time": 195.12625374583334,
              "value": 0.1732283464566929
            },
            {
              "number": 10,
              "ticks": 182834,
              "time": 195.33565565416663,
              "value": 0.16535433070866143
            },
            {
              "number": 10,
              "ticks": 183031,
              "time": 195.54612593958333,
              "value": 0.15748031496062992
            },
            {
              "number": 10,
              "ticks": 183227,
              "time": 195.75552784791665,
              "value": 0.14960629921259844
            },
            {
              "number": 10,
              "ticks": 183425,
              "time": 195.96706651041666,
              "value": 0.14173228346456693
            },
            {
              "number": 10,
              "ticks": 183621,
              "time": 196.17646841874998,
              "value": 0.13385826771653545
            },
            {
              "number": 10,
              "ticks": 183818,
              "time": 196.38693870416665,
              "value": 0.12598425196850394
            },
            {
              "number": 10,
              "ticks": 184014,
              "time": 196.5963406125,
              "value": 0.11811023622047244
            },
            {
              "number": 10,
              "ticks": 184211,
              "time": 196.80681089791665,
              "value": 0.11023622047244094
            },
            {
              "number": 10,
              "ticks": 184408,
              "time": 197.01728118333332,
              "value": 0.10236220472440945
            },
            {
              "number": 10,
              "ticks": 184604,
              "time": 197.22668309166664,
              "value": 0.09448818897637795
            },
            {
              "number": 10,
              "ticks": 184802,
              "time": 197.43822175416665,
              "value": 0.08661417322834646
            },
            {
              "number": 10,
              "ticks": 184998,
              "time": 197.6476236625,
              "value": 0.07874015748031496
            },
            {
              "number": 10,
              "ticks": 185195,
              "time": 197.85809394791667,
              "value": 0.07086614173228346
            },
            {
              "number": 10,
              "ticks": 185391,
              "time": 198.06749585625,
              "value": 0.06299212598425197
            },
            {
              "number": 10,
              "ticks": 185588,
              "time": 198.27796614166664,
              "value": 0.05511811023622047
            },
            {
              "number": 10,
              "ticks": 185785,
              "time": 198.48843642708331,
              "value": 0.047244094488188976
            },
            {
              "number": 10,
              "ticks": 185981,
              "time": 198.69783833541666,
              "value": 0.03937007874015748
            },
            {
              "number": 10,
              "ticks": 186179,
              "time": 198.90937699791664,
              "value": 0.031496062992125984
            },
            {
              "number": 10,
              "ticks": 186375,
              "time": 199.11877890625,
              "value": 0.023622047244094488
            },
            {
              "number": 10,
              "ticks": 186572,
              "time": 199.32924919166666,
              "value": 0.015748031496062992
            },
            {
              "number": 10,
              "ticks": 186768,
              "time": 199.5386511,
              "value": 0.007874015748031496
            },
            {
              "number": 10,
              "ticks": 186965,
              "time": 199.74912138541666,
              "value": 0
            },
            {
              "number": 10,
              "ticks": 186981,
              "time": 199.76621541875,
              "value": 0
            },
            {
              "number": 10,
              "ticks": 186996,
              "time": 199.78224107499997,
              "value": 0.007874015748031496
            },
            {
              "number": 10,
              "ticks": 187012,
              "time": 199.79933510833334,
              "value": 0.015748031496062992
            },
            {
              "number": 10,
              "ticks": 187027,
              "time": 199.81536076458332,
              "value": 0.023622047244094488
            },
            {
              "number": 10,
              "ticks": 187043,
              "time": 199.83245479791665,
              "value": 0.031496062992125984
            },
            {
              "number": 10,
              "ticks": 187058,
              "time": 199.84848045416663,
              "value": 0.03937007874015748
            },
            {
              "number": 10,
              "ticks": 187074,
              "time": 199.8655744875,
              "value": 0.047244094488188976
            },
            {
              "number": 10,
              "ticks": 187089,
              "time": 199.88160014375,
              "value": 0.05511811023622047
            },
            {
              "number": 10,
              "ticks": 187105,
              "time": 199.8986941770833,
              "value": 0.06299212598425197
            },
            {
              "number": 10,
              "ticks": 187120,
              "time": 199.91471983333332,
              "value": 0.07086614173228346
            },
            {
              "number": 10,
              "ticks": 187136,
              "time": 199.93181386666666,
              "value": 0.07874015748031496
            },
            {
              "number": 10,
              "ticks": 187151,
              "time": 199.94783952291667,
              "value": 0.08661417322834646
            },
            {
              "number": 10,
              "ticks": 187167,
              "time": 199.96493355624997,
              "value": 0.09448818897637795
            },
            {
              "number": 10,
              "ticks": 187182,
              "time": 199.98095921249998,
              "value": 0.10236220472440945
            },
            {
              "number": 10,
              "ticks": 187198,
              "time": 199.99805324583332,
              "value": 0.11023622047244094
            },
            {
              "number": 10,
              "ticks": 187213,
              "time": 200.01407890208333,
              "value": 0.11811023622047244
            },
            {
              "number": 10,
              "ticks": 187229,
              "time": 200.03117293541663,
              "value": 0.12598425196850394
            },
            {
              "number": 10,
              "ticks": 187244,
              "time": 200.04719859166664,
              "value": 0.13385826771653545
            },
            {
              "number": 10,
              "ticks": 187260,
              "time": 200.06429262499998,
              "value": 0.14173228346456693
            },
            {
              "number": 10,
              "ticks": 187275,
              "time": 200.08031828125,
              "value": 0.14960629921259844
            },
            {
              "number": 10,
              "ticks": 187291,
              "time": 200.09741231458332,
              "value": 0.15748031496062992
            },
            {
              "number": 10,
              "ticks": 187306,
              "time": 200.11343797083333,
              "value": 0.16535433070866143
            },
            {
              "number": 10,
              "ticks": 187322,
              "time": 200.13053200416667,
              "value": 0.1732283464566929
            },
            {
              "number": 10,
              "ticks": 187337,
              "time": 200.14655766041665,
              "value": 0.18110236220472442
            },
            {
              "number": 10,
              "ticks": 187353,
              "time": 200.16365169375,
              "value": 0.1889763779527559
            },
            {
              "number": 10,
              "ticks": 187368,
              "time": 200.17967735,
              "value": 0.1968503937007874
            },
            {
              "number": 10,
              "ticks": 187384,
              "time": 200.19677138333333,
              "value": 0.2047244094488189
            },
            {
              "number": 10,
              "ticks": 187399,
              "time": 200.2127970395833,
              "value": 0.2125984251968504
            },
            {
              "number": 10,
              "ticks": 187415,
              "time": 200.22989107291667,
              "value": 0.2204724409448819
            },
            {
              "number": 10,
              "ticks": 187430,
              "time": 200.24591672916665,
              "value": 0.2283464566929134
            },
            {
              "number": 10,
              "ticks": 187446,
              "time": 200.2630107625,
              "value": 0.23622047244094488
            },
            {
              "number": 10,
              "ticks": 187461,
              "time": 200.27903641875,
              "value": 0.2440944881889764
            },
            {
              "number": 10,
              "ticks": 187477,
              "time": 200.29613045208333,
              "value": 0.25196850393700787
            },
            {
              "number": 10,
              "ticks": 187492,
              "time": 200.31215610833334,
              "value": 0.25984251968503935
            },
            {
              "number": 10,
              "ticks": 187508,
              "time": 200.32925014166665,
              "value": 0.2677165354330709
            },
            {
              "number": 10,
              "ticks": 187523,
              "time": 200.34527579791666,
              "value": 0.2755905511811024
            },
            {
              "number": 10,
              "ticks": 187539,
              "time": 200.36236983125,
              "value": 0.28346456692913385
            },
            {
              "number": 10,
              "ticks": 187554,
              "time": 200.3783954875,
              "value": 0.29133858267716534
            },
            {
              "number": 10,
              "ticks": 187570,
              "time": 200.3954895208333,
              "value": 0.2992125984251969
            },
            {
              "number": 10,
              "ticks": 187585,
              "time": 200.41151517708332,
              "value": 0.30708661417322836
            },
            {
              "number": 10,
              "ticks": 187601,
              "time": 200.42860921041665,
              "value": 0.31496062992125984
            },
            {
              "number": 10,
              "ticks": 187616,
              "time": 200.44463486666666,
              "value": 0.3228346456692913
            },
            {
              "number": 10,
              "ticks": 187633,
              "time": 200.46279727708333,
              "value": 0.33070866141732286
            },
            {
              "number": 10,
              "ticks": 187648,
              "time": 200.47882293333333,
              "value": 0.33858267716535434
            },
            {
              "number": 10,
              "ticks": 187663,
              "time": 200.4948485895833,
              "value": 0.3464566929133858
            },
            {
              "number": 10,
              "ticks": 187679,
              "time": 200.51194262291665,
              "value": 0.3543307086614173
            },
            {
              "number": 10,
              "ticks": 187694,
              "time": 200.52796827916663,
              "value": 0.36220472440944884
            },
            {
              "number": 10,
              "ticks": 187710,
              "time": 200.5450623125,
              "value": 0.3700787401574803
            },
            {
              "number": 10,
              "ticks": 187725,
              "time": 200.56108796875,
              "value": 0.3779527559055118
            },
            {
              "number": 10,
              "ticks": 187741,
              "time": 200.57818200208334,
              "value": 0.3858267716535433
            },
            {
              "number": 10,
              "ticks": 187756,
              "time": 200.59420765833335,
              "value": 0.3937007874015748
            },
            {
              "number": 10,
              "ticks": 187772,
              "time": 200.61130169166665,
              "value": 0.4015748031496063
            },
            {
              "number": 10,
              "ticks": 187787,
              "time": 200.62732734791666,
              "value": 0.4094488188976378
            },
            {
              "number": 10,
              "ticks": 187803,
              "time": 200.64442138125,
              "value": 0.41732283464566927
            },
            {
              "number": 10,
              "ticks": 187818,
              "time": 200.6604470375,
              "value": 0.4251968503937008
            },
            {
              "number": 10,
              "ticks": 187834,
              "time": 200.6775410708333,
              "value": 0.4330708661417323
            },
            {
              "number": 10,
              "ticks": 187849,
              "time": 200.69356672708332,
              "value": 0.4409448818897638
            },
            {
              "number": 10,
              "ticks": 187865,
              "time": 200.71066076041666,
              "value": 0.44881889763779526
            },
            {
              "number": 10,
              "ticks": 187880,
              "time": 200.72668641666667,
              "value": 0.4566929133858268
            },
            {
              "number": 10,
              "ticks": 187896,
              "time": 200.74378044999997,
              "value": 0.4645669291338583
            },
            {
              "number": 10,
              "ticks": 187911,
              "time": 200.75980610624998,
              "value": 0.47244094488188976
            },
            {
              "number": 10,
              "ticks": 187927,
              "time": 200.77690013958332,
              "value": 0.48031496062992124
            },
            {
              "number": 10,
              "ticks": 187942,
              "time": 200.79292579583333,
              "value": 0.4881889763779528
            },
            {
              "number": 10,
              "ticks": 187958,
              "time": 200.81001982916663,
              "value": 0.49606299212598426
            },
            {
              "number": 10,
              "ticks": 187973,
              "time": 200.82604548541664,
              "value": 0.5039370078740157
            },
            {
              "number": 10,
              "ticks": 187989,
              "time": 200.84313951875,
              "value": 0.5118110236220472
            },
            {
              "number": 10,
              "ticks": 188004,
              "time": 200.859165175,
              "value": 0.5196850393700787
            },
            {
              "number": 10,
              "ticks": 188020,
              "time": 200.87625920833332,
              "value": 0.5275590551181102
            },
            {
              "number": 10,
              "ticks": 188035,
              "time": 200.8922848645833,
              "value": 0.5354330708661418
            },
            {
              "number": 10,
              "ticks": 188051,
              "time": 200.90937889791667,
              "value": 0.5433070866141733
            },
            {
              "number": 10,
              "ticks": 188066,
              "time": 200.92540455416665,
              "value": 0.5511811023622047
            },
            {
              "number": 10,
              "ticks": 188082,
              "time": 200.94249858749998,
              "value": 0.5590551181102362
            },
            {
              "number": 10,
              "ticks": 188097,
              "time": 200.95852424374996,
              "value": 0.5669291338582677
            },
            {
              "number": 10,
              "ticks": 188113,
              "time": 200.97561827708333,
              "value": 0.5748031496062992
            },
            {
              "number": 10,
              "ticks": 188128,
              "time": 200.99164393333334,
              "value": 0.5826771653543307
            },
            {
              "number": 10,
              "ticks": 188144,
              "time": 201.00873796666664,
              "value": 0.5905511811023622
            },
            {
              "number": 10,
              "ticks": 188159,
              "time": 201.02476362291665,
              "value": 0.5984251968503937
            },
            {
              "number": 10,
              "ticks": 188175,
              "time": 201.04185765625,
              "value": 0.6062992125984252
            },
            {
              "number": 10,
              "ticks": 188190,
              "time": 201.0578833125,
              "value": 0.6141732283464567
            },
            {
              "number": 10,
              "ticks": 188206,
              "time": 201.07497734583333,
              "value": 0.6220472440944882
            },
            {
              "number": 10,
              "ticks": 188221,
              "time": 201.09100300208334,
              "value": 0.6299212598425197
            },
            {
              "number": 10,
              "ticks": 188237,
              "time": 201.10809703541665,
              "value": 0.6377952755905512
            },
            {
              "number": 10,
              "ticks": 188252,
              "time": 201.12412269166666,
              "value": 0.6456692913385826
            },
            {
              "number": 10,
              "ticks": 188268,
              "time": 201.141216725,
              "value": 0.6535433070866141
            },
            {
              "number": 10,
              "ticks": 188284,
              "time": 201.15831075833333,
              "value": 0.6614173228346457
            },
            {
              "number": 10,
              "ticks": 188299,
              "time": 201.1743364145833,
              "value": 0.6692913385826772
            },
            {
              "number": 10,
              "ticks": 188315,
              "time": 201.19143044791667,
              "value": 0.6771653543307087
            },
            {
              "number": 10,
              "ticks": 188330,
              "time": 201.20745610416665,
              "value": 0.6850393700787402
            },
            {
              "number": 10,
              "ticks": 188346,
              "time": 201.2245501375,
              "value": 0.6929133858267716
            },
            {
              "number": 10,
              "ticks": 188361,
              "time": 201.24057579375,
              "value": 0.7007874015748031
            },
            {
              "number": 10,
              "ticks": 188377,
              "time": 201.25766982708333,
              "value": 0.7086614173228346
            },
            {
              "number": 10,
              "ticks": 188392,
              "time": 201.27369548333334,
              "value": 0.7165354330708661
            },
            {
              "number": 10,
              "ticks": 188408,
              "time": 201.29078951666665,
              "value": 0.7244094488188977
            },
            {
              "number": 10,
              "ticks": 188423,
              "time": 201.30681517291666,
              "value": 0.7322834645669292
            },
            {
              "number": 10,
              "ticks": 188439,
              "time": 201.32390920625,
              "value": 0.7401574803149606
            },
            {
              "number": 10,
              "ticks": 188454,
              "time": 201.3399348625,
              "value": 0.7480314960629921
            },
            {
              "number": 10,
              "ticks": 188470,
              "time": 201.3570288958333,
              "value": 0.7559055118110236
            },
            {
              "number": 10,
              "ticks": 188485,
              "time": 201.37305455208332,
              "value": 0.7637795275590551
            },
            {
              "number": 10,
              "ticks": 188501,
              "time": 201.39014858541665,
              "value": 0.7716535433070866
            },
            {
              "number": 10,
              "ticks": 188516,
              "time": 201.40617424166666,
              "value": 0.7795275590551181
            },
            {
              "number": 10,
              "ticks": 188532,
              "time": 201.42326827499997,
              "value": 0.7874015748031497
            },
            {
              "number": 10,
              "ticks": 188547,
              "time": 201.43929393124998,
              "value": 0.7952755905511811
            },
            {
              "number": 10,
              "ticks": 188563,
              "time": 201.4563879645833,
              "value": 0.8031496062992126
            },
            {
              "number": 10,
              "ticks": 188578,
              "time": 201.47241362083332,
              "value": 0.8110236220472441
            },
            {
              "number": 10,
              "ticks": 188594,
              "time": 201.48950765416663,
              "value": 0.8188976377952756
            },
            {
              "number": 10,
              "ticks": 188609,
              "time": 201.50553331041664,
              "value": 0.8267716535433071
            },
            {
              "number": 10,
              "ticks": 188625,
              "time": 201.52262734375,
              "value": 0.8346456692913385
            },
            {
              "number": 10,
              "ticks": 188640,
              "time": 201.53865299999998,
              "value": 0.84251968503937
            },
            {
              "number": 10,
              "ticks": 188656,
              "time": 201.55574703333335,
              "value": 0.8503937007874016
            },
            {
              "number": 10,
              "ticks": 188671,
              "time": 201.57177268958333,
              "value": 0.8582677165354331
            },
            {
              "number": 10,
              "ticks": 188687,
              "time": 201.58886672291666,
              "value": 0.8661417322834646
            },
            {
              "number": 10,
              "ticks": 188702,
              "time": 201.60489237916664,
              "value": 0.8740157480314961
            },
            {
              "number": 10,
              "ticks": 188718,
              "time": 201.6219864125,
              "value": 0.8818897637795275
            },
            {
              "number": 10,
              "ticks": 188733,
              "time": 201.63801206875,
              "value": 0.889763779527559
            },
            {
              "number": 10,
              "ticks": 188749,
              "time": 201.65510610208332,
              "value": 0.8976377952755905
            },
            {
              "number": 10,
              "ticks": 188764,
              "time": 201.67113175833333,
              "value": 0.905511811023622
            },
            {
              "number": 10,
              "ticks": 188780,
              "time": 201.68822579166667,
              "value": 0.9133858267716536
            },
            {
              "number": 10,
              "ticks": 188795,
              "time": 201.70425144791668,
              "value": 0.9212598425196851
            },
            {
              "number": 10,
              "ticks": 188811,
              "time": 201.72134548124998,
              "value": 0.9291338582677166
            },
            {
              "number": 10,
              "ticks": 188826,
              "time": 201.7373711375,
              "value": 0.937007874015748
            },
            {
              "number": 10,
              "ticks": 188842,
              "time": 201.75446517083333,
              "value": 0.9448818897637795
            },
            {
              "number": 10,
              "ticks": 188857,
              "time": 201.77049082708334,
              "value": 0.952755905511811
            },
            {
              "number": 10,
              "ticks": 188873,
              "time": 201.78758486041664,
              "value": 0.9606299212598425
            },
            {
              "number": 10,
              "ticks": 188888,
              "time": 201.80361051666665,
              "value": 0.968503937007874
            },
            {
              "number": 10,
              "ticks": 188904,
              "time": 201.82070455,
              "value": 0.9763779527559056
            },
            {
              "number": 10,
              "ticks": 188919,
              "time": 201.83673020625,
              "value": 0.984251968503937
            },
            {
              "number": 10,
              "ticks": 188935,
              "time": 201.8538242395833,
              "value": 0.9921259842519685
            },
            {
              "number": 10,
              "ticks": 188935,
              "time": 201.8538242395833,
              "value": 1
            },
            {
              "number": 10,
              "ticks": 188948,
              "time": 201.86771314166666,
              "value": 0.9921259842519685
            },
            {
              "number": 10,
              "ticks": 188960,
              "time": 201.88053366666668,
              "value": 0.984251968503937
            },
            {
              "number": 10,
              "ticks": 188974,
              "time": 201.89549094583333,
              "value": 0.9763779527559056
            },
            {
              "number": 10,
              "ticks": 188986,
              "time": 201.90831147083333,
              "value": 0.968503937007874
            },
            {
              "number": 10,
              "ticks": 188998,
              "time": 201.92113199583332,
              "value": 0.9606299212598425
            },
            {
              "number": 10,
              "ticks": 189012,
              "time": 201.93608927499997,
              "value": 0.952755905511811
            },
            {
              "number": 10,
              "ticks": 189024,
              "time": 201.9489098,
              "value": 0.9448818897637795
            },
            {
              "number": 10,
              "ticks": 189037,
              "time": 201.96279870208332,
              "value": 0.937007874015748
            },
            {
              "number": 10,
              "ticks": 189049,
              "time": 201.9756192270833,
              "value": 0.9291338582677166
            },
            {
              "number": 10,
              "ticks": 189062,
              "time": 201.98950812916667,
              "value": 0.9212598425196851
            },
            {
              "number": 10,
              "ticks": 189075,
              "time": 202.00339703125,
              "value": 0.9133858267716536
            },
            {
              "number": 10,
              "ticks": 189087,
              "time": 202.01621755624998,
              "value": 0.905511811023622
            },
            {
              "number": 10,
              "ticks": 189101,
              "time": 202.03117483541666,
              "value": 0.8976377952755905
            },
            {
              "number": 10,
              "ticks": 189113,
              "time": 202.04399536041666,
              "value": 0.889763779527559
            },
            {
              "number": 10,
              "ticks": 189125,
              "time": 202.05681588541665,
              "value": 0.8818897637795275
            },
            {
              "number": 10,
              "ticks": 189139,
              "time": 202.0717731645833,
              "value": 0.8740157480314961
            },
            {
              "number": 10,
              "ticks": 189151,
              "time": 202.08459368958333,
              "value": 0.8661417322834646
            },
            {
              "number": 10,
              "ticks": 189164,
              "time": 202.09848259166665,
              "value": 0.8582677165354331
            },
            {
              "number": 10,
              "ticks": 189176,
              "time": 202.11130311666665,
              "value": 0.8503937007874016
            },
            {
              "number": 10,
              "ticks": 189189,
              "time": 202.12519201875,
              "value": 0.84251968503937
            },
            {
              "number": 10,
              "ticks": 189202,
              "time": 202.13908092083332,
              "value": 0.8346456692913385
            },
            {
              "number": 10,
              "ticks": 189214,
              "time": 202.15190144583332,
              "value": 0.8267716535433071
            },
            {
              "number": 10,
              "ticks": 189228,
              "time": 202.166858725,
              "value": 0.8188976377952756
            },
            {
              "number": 10,
              "ticks": 189240,
              "time": 202.17967925,
              "value": 0.8110236220472441
            },
            {
              "number": 10,
              "ticks": 189252,
              "time": 202.192499775,
              "value": 0.8031496062992126
            },
            {
              "number": 10,
              "ticks": 189265,
              "time": 202.2063886770833,
              "value": 0.7952755905511811
            },
            {
              "number": 10,
              "ticks": 189278,
              "time": 202.22027757916663,
              "value": 0.7874015748031497
            },
            {
              "number": 10,
              "ticks": 189291,
              "time": 202.23416648124999,
              "value": 0.7795275590551181
            },
            {
              "number": 10,
              "ticks": 189303,
              "time": 202.24698700625,
              "value": 0.7716535433070866
            },
            {
              "number": 10,
              "ticks": 189316,
              "time": 202.26087590833333,
              "value": 0.7637795275590551
            },
            {
              "number": 10,
              "ticks": 189329,
              "time": 202.27476481041666,
              "value": 0.7559055118110236
            },
            {
              "number": 10,
              "ticks": 189341,
              "time": 202.28758533541665,
              "value": 0.7480314960629921
            },
            {
              "number": 10,
              "ticks": 189355,
              "time": 202.3025426145833,
              "value": 0.7401574803149606
            },
            {
              "number": 10,
              "ticks": 189367,
              "time": 202.31536313958333,
              "value": 0.7322834645669292
            },
            {
              "number": 10,
              "ticks": 189379,
              "time": 202.32818366458332,
              "value": 0.7244094488188977
            },
            {
              "number": 10,
              "ticks": 189393,
              "time": 202.34314094375,
              "value": 0.7165354330708661
            },
            {
              "number": 10,
              "ticks": 189405,
              "time": 202.35596146875,
              "value": 0.7086614173228346
            },
            {
              "number": 10,
              "ticks": 189418,
              "time": 202.36985037083332,
              "value": 0.7007874015748031
            },
            {
              "number": 10,
              "ticks": 189430,
              "time": 202.38267089583331,
              "value": 0.6929133858267716
            },
            {
              "number": 10,
              "ticks": 189443,
              "time": 202.39655979791664,
              "value": 0.6850393700787402
            },
            {
              "number": 10,
              "ticks": 189456,
              "time": 202.4104487,
              "value": 0.6771653543307087
            },
            {
              "number": 10,
              "ticks": 189468,
              "time": 202.423269225,
              "value": 0.6692913385826772
            },
            {
              "number": 10,
              "ticks": 189482,
              "time": 202.43822650416666,
              "value": 0.6614173228346457
            },
            {
              "number": 10,
              "ticks": 189494,
              "time": 202.45104702916663,
              "value": 0.6535433070866141
            },
            {
              "number": 10,
              "ticks": 189506,
              "time": 202.46386755416665,
              "value": 0.6456692913385826
            },
            {
              "number": 10,
              "ticks": 189520,
              "time": 202.4788248333333,
              "value": 0.6377952755905512
            },
            {
              "number": 10,
              "ticks": 189532,
              "time": 202.49164535833333,
              "value": 0.6299212598425197
            },
            {
              "number": 10,
              "ticks": 189545,
              "time": 202.50553426041665,
              "value": 0.6220472440944882
            },
            {
              "number": 10,
              "ticks": 189557,
              "time": 202.51835478541665,
              "value": 0.6141732283464567
            },
            {
              "number": 10,
              "ticks": 189570,
              "time": 202.5322436875,
              "value": 0.6062992125984252
            },
            {
              "number": 10,
              "ticks": 189583,
              "time": 202.54613258958332,
              "value": 0.5984251968503937
            },
            {
              "number": 10,
              "ticks": 189595,
              "time": 202.55895311458332,
              "value": 0.5905511811023622
            },
            {
              "number": 10,
              "ticks": 189609,
              "time": 202.57391039375,
              "value": 0.5826771653543307
            },
            {
              "number": 10,
              "ticks": 189621,
              "time": 202.58673091875,
              "value": 0.5748031496062992
            },
            {
              "number": 10,
              "ticks": 189633,
              "time": 202.59955144375,
              "value": 0.5669291338582677
            },
            {
              "number": 10,
              "ticks": 189647,
              "time": 202.61450872291664,
              "value": 0.5590551181102362
            },
            {
              "number": 10,
              "ticks": 189659,
              "time": 202.62732924791663,
              "value": 0.5511811023622047
            },
            {
              "number": 10,
              "ticks": 189672,
              "time": 202.64121815,
              "value": 0.5433070866141733
            },
            {
              "number": 10,
              "ticks": 189684,
              "time": 202.65403867499998,
              "value": 0.5354330708661418
            },
            {
              "number": 10,
              "ticks": 189697,
              "time": 202.66792757708333,
              "value": 0.5275590551181102
            },
            {
              "number": 10,
              "ticks": 189710,
              "time": 202.68181647916666,
              "value": 0.5196850393700787
            },
            {
              "number": 10,
              "ticks": 189722,
              "time": 202.69463700416665,
              "value": 0.5118110236220472
            },
            {
              "number": 10,
              "ticks": 189735,
              "time": 202.70852590624997,
              "value": 0.5039370078740157
            },
            {
              "number": 10,
              "ticks": 189735,
              "time": 202.70852590624997,
              "value": 0.5039370078740157
            },
            {
              "number": 10,
              "ticks": 189812,
              "time": 202.79079094166664,
              "value": 0.49606299212598426
            },
            {
              "number": 10,
              "ticks": 189888,
              "time": 202.8719876,
              "value": 0.4881889763779528
            },
            {
              "number": 10,
              "ticks": 189966,
              "time": 202.95532101249998,
              "value": 0.48031496062992124
            },
            {
              "number": 10,
              "ticks": 190042,
              "time": 203.03651767083332,
              "value": 0.47244094488188976
            },
            {
              "number": 10,
              "ticks": 190119,
              "time": 203.11878270625,
              "value": 0.4645669291338583
            },
            {
              "number": 10,
              "ticks": 190195,
              "time": 203.1999793645833,
              "value": 0.4566929133858268
            },
            {
              "number": 10,
              "ticks": 190273,
              "time": 203.28331277708332,
              "value": 0.44881889763779526
            },
            {
              "number": 10,
              "ticks": 190349,
              "time": 203.36450943541664,
              "value": 0.4409448818897638
            },
            {
              "number": 10,
              "ticks": 190425,
              "time": 203.44570609374998,
              "value": 0.4330708661417323
            },
            {
              "number": 10,
              "ticks": 190503,
              "time": 203.52903950625,
              "value": 0.4251968503937008
            },
            {
              "number": 10,
              "ticks": 190579,
              "time": 203.6102361645833,
              "value": 0.41732283464566927
            },
            {
              "number": 10,
              "ticks": 190656,
              "time": 203.69250119999998,
              "value": 0.4094488188976378
            },
            {
              "number": 10,
              "ticks": 190732,
              "time": 203.77369785833332,
              "value": 0.4015748031496063
            },
            {
              "number": 10,
              "ticks": 190810,
              "time": 203.85703127083332,
              "value": 0.3937007874015748
            },
            {
              "number": 10,
              "ticks": 190886,
              "time": 203.93822792916666,
              "value": 0.3858267716535433
            },
            {
              "number": 10,
              "ticks": 190963,
              "time": 204.02049296458333,
              "value": 0.3779527559055118
            },
            {
              "number": 10,
              "ticks": 191039,
              "time": 204.10168962291664,
              "value": 0.3700787401574803
            },
            {
              "number": 10,
              "ticks": 191116,
              "time": 204.18395465833333,
              "value": 0.36220472440944884
            },
            {
              "number": 10,
              "ticks": 191193,
              "time": 204.26621969375,
              "value": 0.3543307086614173
            },
            {
              "number": 10,
              "ticks": 191269,
              "time": 204.34741635208331,
              "value": 0.3464566929133858
            },
            {
              "number": 10,
              "ticks": 191347,
              "time": 204.43074976458334,
              "value": 0.33858267716535434
            },
            {
              "number": 10,
              "ticks": 191423,
              "time": 204.51194642291665,
              "value": 0.33070866141732286
            },
            {
              "number": 10,
              "ticks": 191500,
              "time": 204.59421145833332,
              "value": 0.3228346456692913
            },
            {
              "number": 10,
              "ticks": 191576,
              "time": 204.67540811666666,
              "value": 0.31496062992125984
            },
            {
              "number": 10,
              "ticks": 191653,
              "time": 204.75767315208333,
              "value": 0.30708661417322836
            },
            {
              "number": 10,
              "ticks": 191730,
              "time": 204.8399381875,
              "value": 0.2992125984251969
            },
            {
              "number": 10,
              "ticks": 191806,
              "time": 204.92113484583334,
              "value": 0.29133858267716534
            },
            {
              "number": 10,
              "ticks": 191884,
              "time": 205.0044682583333,
              "value": 0.28346456692913385
            },
            {
              "number": 10,
              "ticks": 191960,
              "time": 205.08566491666667,
              "value": 0.2755905511811024
            },
            {
              "number": 10,
              "ticks": 192037,
              "time": 205.16792995208334,
              "value": 0.2677165354330709
            },
            {
              "number": 10,
              "ticks": 192113,
              "time": 205.24912661041665,
              "value": 0.25984251968503935
            },
            {
              "number": 10,
              "ticks": 192190,
              "time": 205.33139164583332,
              "value": 0.25196850393700787
            },
            {
              "number": 10,
              "ticks": 192267,
              "time": 205.41365668125,
              "value": 0.2440944881889764
            },
            {
              "number": 10,
              "ticks": 192343,
              "time": 205.49485333958333,
              "value": 0.23622047244094488
            },
            {
              "number": 10,
              "ticks": 192421,
              "time": 205.57818675208333,
              "value": 0.2283464566929134
            },
            {
              "number": 10,
              "ticks": 192497,
              "time": 205.65938341041667,
              "value": 0.2204724409448819
            },
            {
              "number": 10,
              "ticks": 192574,
              "time": 205.7416484458333,
              "value": 0.2125984251968504
            },
            {
              "number": 10,
              "ticks": 192650,
              "time": 205.82284510416667,
              "value": 0.2047244094488189
            },
            {
              "number": 10,
              "ticks": 192728,
              "time": 205.90617851666664,
              "value": 0.1968503937007874
            },
            {
              "number": 10,
              "ticks": 192804,
              "time": 205.98737517499998,
              "value": 0.1889763779527559
            },
            {
              "number": 10,
              "ticks": 192880,
              "time": 206.06857183333332,
              "value": 0.18110236220472442
            },
            {
              "number": 10,
              "ticks": 192958,
              "time": 206.15190524583332,
              "value": 0.1732283464566929
            },
            {
              "number": 10,
              "ticks": 193034,
              "time": 206.23310190416663,
              "value": 0.16535433070866143
            },
            {
              "number": 10,
              "ticks": 193111,
              "time": 206.31536693958333,
              "value": 0.15748031496062992
            },
            {
              "number": 10,
              "ticks": 193187,
              "time": 206.39656359791664,
              "value": 0.14960629921259844
            },
            {
              "number": 10,
              "ticks": 193265,
              "time": 206.47989701041666,
              "value": 0.14173228346456693
            },
            {
              "number": 10,
              "ticks": 193341,
              "time": 206.56109366874998,
              "value": 0.13385826771653545
            },
            {
              "number": 10,
              "ticks": 193418,
              "time": 206.64335870416664,
              "value": 0.12598425196850394
            },
            {
              "number": 10,
              "ticks": 193494,
              "time": 206.72455536249998,
              "value": 0.11811023622047244
            },
            {
              "number": 10,
              "ticks": 193571,
              "time": 206.80682039791665,
              "value": 0.11023622047244094
            },
            {
              "number": 10,
              "ticks": 193648,
              "time": 206.88908543333332,
              "value": 0.10236220472440945
            },
            {
              "number": 10,
              "ticks": 193724,
              "time": 206.97028209166663,
              "value": 0.09448818897637795
            },
            {
              "number": 10,
              "ticks": 193802,
              "time": 207.05361550416666,
              "value": 0.08661417322834646
            },
            {
              "number": 10,
              "ticks": 193878,
              "time": 207.1348121625,
              "value": 0.07874015748031496
            },
            {
              "number": 10,
              "ticks": 193955,
              "time": 207.21707719791667,
              "value": 0.07086614173228346
            },
            {
              "number": 10,
              "ticks": 194031,
              "time": 207.29827385624998,
              "value": 0.06299212598425197
            },
            {
              "number": 10,
              "ticks": 194108,
              "time": 207.38053889166665,
              "value": 0.05511811023622047
            },
            {
              "number": 10,
              "ticks": 194185,
              "time": 207.4628039270833,
              "value": 0.047244094488188976
            },
            {
              "number": 10,
              "ticks": 194261,
              "time": 207.54400058541665,
              "value": 0.03937007874015748
            },
            {
              "number": 10,
              "ticks": 194339,
              "time": 207.62733399791665,
              "value": 0.031496062992125984
            },
            {
              "number": 10,
              "ticks": 194415,
              "time": 207.70853065625,
              "value": 0.023622047244094488
            },
            {
              "number": 10,
              "ticks": 194492,
              "time": 207.79079569166666,
              "value": 0.015748031496062992
            },
            {
              "number": 10,
              "ticks": 194568,
              "time": 207.87199235,
              "value": 0.007874015748031496
            },
            {
              "number": 10,
              "ticks": 194645,
              "time": 207.95425738541667,
              "value": 0
            },
            {
              "number": 10,
              "ticks": 194661,
              "time": 207.97135141874998,
              "value": 0
            },
            {
              "number": 10,
              "ticks": 194676,
              "time": 207.98737707499998,
              "value": 0.007874015748031496
            },
            {
              "number": 10,
              "ticks": 194692,
              "time": 208.00447110833332,
              "value": 0.015748031496062992
            },
            {
              "number": 10,
              "ticks": 194707,
              "time": 208.02049676458333,
              "value": 0.023622047244094488
            },
            {
              "number": 10,
              "ticks": 194723,
              "time": 208.03759079791664,
              "value": 0.031496062992125984
            },
            {
              "number": 10,
              "ticks": 194738,
              "time": 208.05361645416664,
              "value": 0.03937007874015748
            },
            {
              "number": 10,
              "ticks": 194754,
              "time": 208.07071048749998,
              "value": 0.047244094488188976
            },
            {
              "number": 10,
              "ticks": 194769,
              "time": 208.08673614375,
              "value": 0.05511811023622047
            },
            {
              "number": 10,
              "ticks": 194785,
              "time": 208.10383017708332,
              "value": 0.06299212598425197
            },
            {
              "number": 10,
              "ticks": 194800,
              "time": 208.1198558333333,
              "value": 0.07086614173228346
            },
            {
              "number": 10,
              "ticks": 194816,
              "time": 208.13694986666667,
              "value": 0.07874015748031496
            },
            {
              "number": 10,
              "ticks": 194831,
              "time": 208.15297552291665,
              "value": 0.08661417322834646
            },
            {
              "number": 10,
              "ticks": 194847,
              "time": 208.17006955624998,
              "value": 0.09448818897637795
            },
            {
              "number": 10,
              "ticks": 194862,
              "time": 208.18609521249996,
              "value": 0.10236220472440945
            },
            {
              "number": 10,
              "ticks": 194878,
              "time": 208.20318924583333,
              "value": 0.11023622047244094
            },
            {
              "number": 10,
              "ticks": 194893,
              "time": 208.21921490208334,
              "value": 0.11811023622047244
            },
            {
              "number": 10,
              "ticks": 194909,
              "time": 208.23630893541664,
              "value": 0.12598425196850394
            },
            {
              "number": 10,
              "ticks": 194924,
              "time": 208.25233459166665,
              "value": 0.13385826771653545
            },
            {
              "number": 10,
              "ticks": 194940,
              "time": 208.269428625,
              "value": 0.14173228346456693
            },
            {
              "number": 10,
              "ticks": 194955,
              "time": 208.28545428125,
              "value": 0.14960629921259844
            },
            {
              "number": 10,
              "ticks": 194971,
              "time": 208.30254831458333,
              "value": 0.15748031496062992
            },
            {
              "number": 10,
              "ticks": 194986,
              "time": 208.31857397083334,
              "value": 0.16535433070866143
            },
            {
              "number": 10,
              "ticks": 195002,
              "time": 208.33566800416665,
              "value": 0.1732283464566929
            },
            {
              "number": 10,
              "ticks": 195017,
              "time": 208.35169366041666,
              "value": 0.18110236220472442
            },
            {
              "number": 10,
              "ticks": 195033,
              "time": 208.36878769375,
              "value": 0.1889763779527559
            },
            {
              "number": 10,
              "ticks": 195048,
              "time": 208.38481335,
              "value": 0.1968503937007874
            },
            {
              "number": 10,
              "ticks": 195064,
              "time": 208.4019073833333,
              "value": 0.2047244094488189
            },
            {
              "number": 10,
              "ticks": 195079,
              "time": 208.41793303958332,
              "value": 0.2125984251968504
            },
            {
              "number": 10,
              "ticks": 195095,
              "time": 208.43502707291665,
              "value": 0.2204724409448819
            },
            {
              "number": 10,
              "ticks": 195110,
              "time": 208.45105272916666,
              "value": 0.2283464566929134
            },
            {
              "number": 10,
              "ticks": 195126,
              "time": 208.46814676249997,
              "value": 0.23622047244094488
            },
            {
              "number": 10,
              "ticks": 195141,
              "time": 208.48417241874998,
              "value": 0.2440944881889764
            },
            {
              "number": 10,
              "ticks": 195157,
              "time": 208.50126645208334,
              "value": 0.25196850393700787
            },
            {
              "number": 10,
              "ticks": 195172,
              "time": 208.51729210833332,
              "value": 0.25984251968503935
            },
            {
              "number": 10,
              "ticks": 195188,
              "time": 208.53438614166666,
              "value": 0.2677165354330709
            },
            {
              "number": 10,
              "ticks": 195203,
              "time": 208.55041179791664,
              "value": 0.2755905511811024
            },
            {
              "number": 10,
              "ticks": 195219,
              "time": 208.56750583125,
              "value": 0.28346456692913385
            },
            {
              "number": 10,
              "ticks": 195234,
              "time": 208.58353148749998,
              "value": 0.29133858267716534
            },
            {
              "number": 10,
              "ticks": 195250,
              "time": 208.60062552083332,
              "value": 0.2992125984251969
            },
            {
              "number": 10,
              "ticks": 195265,
              "time": 208.6166511770833,
              "value": 0.30708661417322836
            },
            {
              "number": 10,
              "ticks": 195281,
              "time": 208.63374521041666,
              "value": 0.31496062992125984
            },
            {
              "number": 10,
              "ticks": 195296,
              "time": 208.64977086666667,
              "value": 0.3228346456692913
            },
            {
              "number": 10,
              "ticks": 195313,
              "time": 208.66793327708334,
              "value": 0.33070866141732286
            },
            {
              "number": 10,
              "ticks": 195328,
              "time": 208.68395893333332,
              "value": 0.33858267716535434
            },
            {
              "number": 10,
              "ticks": 195343,
              "time": 208.69998458958332,
              "value": 0.3464566929133858
            },
            {
              "number": 10,
              "ticks": 195359,
              "time": 208.71707862291663,
              "value": 0.3543307086614173
            },
            {
              "number": 10,
              "ticks": 195374,
              "time": 208.73310427916664,
              "value": 0.36220472440944884
            },
            {
              "number": 10,
              "ticks": 195390,
              "time": 208.75019831249998,
              "value": 0.3700787401574803
            },
            {
              "number": 10,
              "ticks": 195405,
              "time": 208.76622396874998,
              "value": 0.3779527559055118
            },
            {
              "number": 10,
              "ticks": 195421,
              "time": 208.78331800208335,
              "value": 0.3858267716535433
            },
            {
              "number": 10,
              "ticks": 195436,
              "time": 208.79934365833333,
              "value": 0.3937007874015748
            },
            {
              "number": 10,
              "ticks": 195452,
              "time": 208.81643769166666,
              "value": 0.4015748031496063
            },
            {
              "number": 10,
              "ticks": 195467,
              "time": 208.83246334791664,
              "value": 0.4094488188976378
            },
            {
              "number": 10,
              "ticks": 195483,
              "time": 208.84955738125,
              "value": 0.41732283464566927
            },
            {
              "number": 10,
              "ticks": 195498,
              "time": 208.8655830375,
              "value": 0.4251968503937008
            },
            {
              "number": 10,
              "ticks": 195514,
              "time": 208.88267707083332,
              "value": 0.4330708661417323
            },
            {
              "number": 10,
              "ticks": 195529,
              "time": 208.8987027270833,
              "value": 0.4409448818897638
            },
            {
              "number": 10,
              "ticks": 195545,
              "time": 208.91579676041667,
              "value": 0.44881889763779526
            },
            {
              "number": 10,
              "ticks": 195560,
              "time": 208.93182241666668,
              "value": 0.4566929133858268
            },
            {
              "number": 10,
              "ticks": 195576,
              "time": 208.94891644999998,
              "value": 0.4645669291338583
            },
            {
              "number": 10,
              "ticks": 195591,
              "time": 208.96494210625,
              "value": 0.47244094488188976
            },
            {
              "number": 10,
              "ticks": 195607,
              "time": 208.98203613958333,
              "value": 0.48031496062992124
            },
            {
              "number": 10,
              "ticks": 195622,
              "time": 208.99806179583334,
              "value": 0.4881889763779528
            },
            {
              "number": 10,
              "ticks": 195638,
              "time": 209.01515582916664,
              "value": 0.49606299212598426
            },
            {
              "number": 10,
              "ticks": 195653,
              "time": 209.03118148541665,
              "value": 0.5039370078740157
            },
            {
              "number": 10,
              "ticks": 195669,
              "time": 209.04827551875,
              "value": 0.5118110236220472
            },
            {
              "number": 10,
              "ticks": 195684,
              "time": 209.064301175,
              "value": 0.5196850393700787
            },
            {
              "number": 10,
              "ticks": 195700,
              "time": 209.0813952083333,
              "value": 0.5275590551181102
            },
            {
              "number": 10,
              "ticks": 195715,
              "time": 209.0974208645833,
              "value": 0.5354330708661418
            },
            {
              "number": 10,
              "ticks": 195731,
              "time": 209.11451489791665,
              "value": 0.5433070866141733
            },
            {
              "number": 10,
              "ticks": 195746,
              "time": 209.13054055416666,
              "value": 0.5511811023622047
            },
            {
              "number": 10,
              "ticks": 195762,
              "time": 209.14763458749997,
              "value": 0.5590551181102362
            },
            {
              "number": 10,
              "ticks": 195777,
              "time": 209.16366024374997,
              "value": 0.5669291338582677
            },
            {
              "number": 10,
              "ticks": 195793,
              "time": 209.1807542770833,
              "value": 0.5748031496062992
            },
            {
              "number": 10,
              "ticks": 195808,
              "time": 209.19677993333332,
              "value": 0.5826771653543307
            },
            {
              "number": 10,
              "ticks": 195824,
              "time": 209.21387396666665,
              "value": 0.5905511811023622
            },
            {
              "number": 10,
              "ticks": 195839,
              "time": 209.22989962291663,
              "value": 0.5984251968503937
            },
            {
              "number": 10,
              "ticks": 195855,
              "time": 209.24699365625,
              "value": 0.6062992125984252
            },
            {
              "number": 10,
              "ticks": 195870,
              "time": 209.26301931249998,
              "value": 0.6141732283464567
            },
            {
              "number": 10,
              "ticks": 195886,
              "time": 209.28011334583334,
              "value": 0.6220472440944882
            },
            {
              "number": 10,
              "ticks": 195901,
              "time": 209.29613900208332,
              "value": 0.6299212598425197
            },
            {
              "number": 10,
              "ticks": 195917,
              "time": 209.31323303541666,
              "value": 0.6377952755905512
            },
            {
              "number": 10,
              "ticks": 195932,
              "time": 209.32925869166667,
              "value": 0.6456692913385826
            },
            {
              "number": 10,
              "ticks": 195948,
              "time": 209.346352725,
              "value": 0.6535433070866141
            },
            {
              "number": 10,
              "ticks": 195964,
              "time": 209.3634467583333,
              "value": 0.6614173228346457
            },
            {
              "number": 10,
              "ticks": 195979,
              "time": 209.37947241458332,
              "value": 0.6692913385826772
            },
            {
              "number": 10,
              "ticks": 195995,
              "time": 209.39656644791665,
              "value": 0.6771653543307087
            },
            {
              "number": 10,
              "ticks": 196010,
              "time": 209.41259210416666,
              "value": 0.6850393700787402
            },
            {
              "number": 10,
              "ticks": 196026,
              "time": 209.42968613749997,
              "value": 0.6929133858267716
            },
            {
              "number": 10,
              "ticks": 196041,
              "time": 209.44571179374998,
              "value": 0.7007874015748031
            },
            {
              "number": 10,
              "ticks": 196057,
              "time": 209.46280582708334,
              "value": 0.7086614173228346
            },
            {
              "number": 10,
              "ticks": 196072,
              "time": 209.47883148333332,
              "value": 0.7165354330708661
            },
            {
              "number": 10,
              "ticks": 196088,
              "time": 209.49592551666666,
              "value": 0.7244094488188977
            },
            {
              "number": 10,
              "ticks": 196103,
              "time": 209.51195117291664,
              "value": 0.7322834645669292
            },
            {
              "number": 10,
              "ticks": 196119,
              "time": 209.52904520625,
              "value": 0.7401574803149606
            },
            {
              "number": 10,
              "ticks": 196134,
              "time": 209.54507086249998,
              "value": 0.7480314960629921
            },
            {
              "number": 10,
              "ticks": 196150,
              "time": 209.56216489583332,
              "value": 0.7559055118110236
            },
            {
              "number": 10,
              "ticks": 196165,
              "time": 209.5781905520833,
              "value": 0.7637795275590551
            },
            {
              "number": 10,
              "ticks": 196181,
              "time": 209.59528458541666,
              "value": 0.7716535433070866
            },
            {
              "number": 10,
              "ticks": 196196,
              "time": 209.61131024166667,
              "value": 0.7795275590551181
            },
            {
              "number": 10,
              "ticks": 196212,
              "time": 209.62840427499998,
              "value": 0.7874015748031497
            },
            {
              "number": 10,
              "ticks": 196227,
              "time": 209.64442993125,
              "value": 0.7952755905511811
            },
            {
              "number": 10,
              "ticks": 196243,
              "time": 209.66152396458332,
              "value": 0.8031496062992126
            },
            {
              "number": 10,
              "ticks": 196258,
              "time": 209.67754962083333,
              "value": 0.8110236220472441
            },
            {
              "number": 10,
              "ticks": 196274,
              "time": 209.69464365416664,
              "value": 0.8188976377952756
            },
            {
              "number": 10,
              "ticks": 196289,
              "time": 209.71066931041665,
              "value": 0.8267716535433071
            },
            {
              "number": 10,
              "ticks": 196305,
              "time": 209.72776334374998,
              "value": 0.8346456692913385
            },
            {
              "number": 10,
              "ticks": 196320,
              "time": 209.743789,
              "value": 0.84251968503937
            },
            {
              "number": 10,
              "ticks": 196336,
              "time": 209.76088303333333,
              "value": 0.8503937007874016
            },
            {
              "number": 10,
              "ticks": 196351,
              "time": 209.77690868958334,
              "value": 0.8582677165354331
            },
            {
              "number": 10,
              "ticks": 196367,
              "time": 209.79400272291664,
              "value": 0.8661417322834646
            },
            {
              "number": 10,
              "ticks": 196382,
              "time": 209.81002837916665,
              "value": 0.8740157480314961
            },
            {
              "number": 10,
              "ticks": 196398,
              "time": 209.8271224125,
              "value": 0.8818897637795275
            },
            {
              "number": 10,
              "ticks": 196413,
              "time": 209.84314806875,
              "value": 0.889763779527559
            },
            {
              "number": 10,
              "ticks": 196429,
              "time": 209.8602421020833,
              "value": 0.8976377952755905
            },
            {
              "number": 10,
              "ticks": 196444,
              "time": 209.8762677583333,
              "value": 0.905511811023622
            },
            {
              "number": 10,
              "ticks": 196460,
              "time": 209.89336179166668,
              "value": 0.9133858267716536
            },
            {
              "number": 10,
              "ticks": 196475,
              "time": 209.90938744791666,
              "value": 0.9212598425196851
            },
            {
              "number": 10,
              "ticks": 196491,
              "time": 209.92648148125,
              "value": 0.9291338582677166
            },
            {
              "number": 10,
              "ticks": 196506,
              "time": 209.94250713749997,
              "value": 0.937007874015748
            },
            {
              "number": 10,
              "ticks": 196522,
              "time": 209.95960117083334,
              "value": 0.9448818897637795
            },
            {
              "number": 10,
              "ticks": 196537,
              "time": 209.97562682708332,
              "value": 0.952755905511811
            },
            {
              "number": 10,
              "ticks": 196553,
              "time": 209.99272086041665,
              "value": 0.9606299212598425
            },
            {
              "number": 10,
              "ticks": 196568,
              "time": 210.00874651666663,
              "value": 0.968503937007874
            },
            {
              "number": 10,
              "ticks": 196584,
              "time": 210.02584055,
              "value": 0.9763779527559056
            },
            {
              "number": 10,
              "ticks": 196599,
              "time": 210.04186620625,
              "value": 0.984251968503937
            },
            {
              "number": 10,
              "ticks": 196615,
              "time": 210.0589602395833,
              "value": 0.9921259842519685
            },
            {
              "number": 10,
              "ticks": 196615,
              "time": 210.0589602395833,
              "value": 1
            },
            {
              "number": 10,
              "ticks": 196628,
              "time": 210.07284914166664,
              "value": 0.9921259842519685
            },
            {
              "number": 10,
              "ticks": 196640,
              "time": 210.08566966666666,
              "value": 0.984251968503937
            },
            {
              "number": 10,
              "ticks": 196654,
              "time": 210.1006269458333,
              "value": 0.9763779527559056
            },
            {
              "number": 10,
              "ticks": 196666,
              "time": 210.11344747083334,
              "value": 0.968503937007874
            },
            {
              "number": 10,
              "ticks": 196678,
              "time": 210.12626799583333,
              "value": 0.9606299212598425
            },
            {
              "number": 10,
              "ticks": 196692,
              "time": 210.14122527499998,
              "value": 0.952755905511811
            },
            {
              "number": 10,
              "ticks": 196704,
              "time": 210.1540458,
              "value": 0.9448818897637795
            },
            {
              "number": 10,
              "ticks": 196717,
              "time": 210.16793470208333,
              "value": 0.937007874015748
            },
            {
              "number": 10,
              "ticks": 196729,
              "time": 210.18075522708332,
              "value": 0.9291338582677166
            },
            {
              "number": 10,
              "ticks": 196742,
              "time": 210.19464412916665,
              "value": 0.9212598425196851
            },
            {
              "number": 10,
              "ticks": 196755,
              "time": 210.20853303125,
              "value": 0.9133858267716536
            },
            {
              "number": 10,
              "ticks": 196767,
              "time": 210.22135355624997,
              "value": 0.905511811023622
            },
            {
              "number": 10,
              "ticks": 196781,
              "time": 210.23631083541665,
              "value": 0.8976377952755905
            },
            {
              "number": 10,
              "ticks": 196793,
              "time": 210.24913136041664,
              "value": 0.889763779527559
            },
            {
              "number": 10,
              "ticks": 196805,
              "time": 210.26195188541666,
              "value": 0.8818897637795275
            },
            {
              "number": 10,
              "ticks": 196819,
              "time": 210.27690916458332,
              "value": 0.8740157480314961
            },
            {
              "number": 10,
              "ticks": 196831,
              "time": 210.28972968958334,
              "value": 0.8661417322834646
            },
            {
              "number": 10,
              "ticks": 196844,
              "time": 210.30361859166663,
              "value": 0.8582677165354331
            },
            {
              "number": 10,
              "ticks": 196856,
              "time": 210.31643911666666,
              "value": 0.8503937007874016
            },
            {
              "number": 10,
              "ticks": 196869,
              "time": 210.33032801874998,
              "value": 0.84251968503937
            },
            {
              "number": 10,
              "ticks": 196882,
              "time": 210.34421692083333,
              "value": 0.8346456692913385
            },
            {
              "number": 10,
              "ticks": 196894,
              "time": 210.35703744583333,
              "value": 0.8267716535433071
            },
            {
              "number": 10,
              "ticks": 196908,
              "time": 210.371994725,
              "value": 0.8188976377952756
            },
            {
              "number": 10,
              "ticks": 196920,
              "time": 210.38481524999997,
              "value": 0.8110236220472441
            },
            {
              "number": 10,
              "ticks": 196932,
              "time": 210.39763577499997,
              "value": 0.8031496062992126
            },
            {
              "number": 10,
              "ticks": 196945,
              "time": 210.41152467708332,
              "value": 0.7952755905511811
            },
            {
              "number": 10,
              "ticks": 196958,
              "time": 210.42541357916664,
              "value": 0.7874015748031497
            },
            {
              "number": 10,
              "ticks": 196971,
              "time": 210.43930248125,
              "value": 0.7795275590551181
            },
            {
              "number": 10,
              "ticks": 196983,
              "time": 210.45212300625,
              "value": 0.7716535433070866
            },
            {
              "number": 10,
              "ticks": 196996,
              "time": 210.46601190833334,
              "value": 0.7637795275590551
            },
            {
              "number": 10,
              "ticks": 197009,
              "time": 210.47990081041664,
              "value": 0.7559055118110236
            },
            {
              "number": 10,
              "ticks": 197021,
              "time": 210.49272133541666,
              "value": 0.7480314960629921
            },
            {
              "number": 10,
              "ticks": 197035,
              "time": 210.5076786145833,
              "value": 0.7401574803149606
            },
            {
              "number": 10,
              "ticks": 197047,
              "time": 210.52049913958334,
              "value": 0.7322834645669292
            },
            {
              "number": 10,
              "ticks": 197059,
              "time": 210.53331966458333,
              "value": 0.7244094488188977
            },
            {
              "number": 10,
              "ticks": 197073,
              "time": 210.54827694375,
              "value": 0.7165354330708661
            },
            {
              "number": 10,
              "ticks": 197085,
              "time": 210.56109746874998,
              "value": 0.7086614173228346
            },
            {
              "number": 10,
              "ticks": 197098,
              "time": 210.57498637083333,
              "value": 0.7007874015748031
            },
            {
              "number": 10,
              "ticks": 197110,
              "time": 210.58780689583332,
              "value": 0.6929133858267716
            },
            {
              "number": 10,
              "ticks": 197123,
              "time": 210.60169579791665,
              "value": 0.6850393700787402
            },
            {
              "number": 10,
              "ticks": 197136,
              "time": 210.61558469999997,
              "value": 0.6771653543307087
            },
            {
              "number": 10,
              "ticks": 197148,
              "time": 210.628405225,
              "value": 0.6692913385826772
            },
            {
              "number": 10,
              "ticks": 197162,
              "time": 210.64336250416665,
              "value": 0.6614173228346457
            },
            {
              "number": 10,
              "ticks": 197174,
              "time": 210.65618302916664,
              "value": 0.6535433070866141
            },
            {
              "number": 10,
              "ticks": 197186,
              "time": 210.66900355416666,
              "value": 0.6456692913385826
            },
            {
              "number": 10,
              "ticks": 197200,
              "time": 210.68396083333332,
              "value": 0.6377952755905512
            },
            {
              "number": 10,
              "ticks": 197212,
              "time": 210.69678135833334,
              "value": 0.6299212598425197
            },
            {
              "number": 10,
              "ticks": 197225,
              "time": 210.71067026041666,
              "value": 0.6220472440944882
            },
            {
              "number": 10,
              "ticks": 197237,
              "time": 210.72349078541666,
              "value": 0.6141732283464567
            },
            {
              "number": 10,
              "ticks": 197250,
              "time": 210.73737968749998,
              "value": 0.6062992125984252
            },
            {
              "number": 10,
              "ticks": 197263,
              "time": 210.75126858958333,
              "value": 0.5984251968503937
            },
            {
              "number": 10,
              "ticks": 197275,
              "time": 210.7640891145833,
              "value": 0.5905511811023622
            },
            {
              "number": 10,
              "ticks": 197289,
              "time": 210.77904639375,
              "value": 0.5826771653543307
            },
            {
              "number": 10,
              "ticks": 197301,
              "time": 210.79186691874997,
              "value": 0.5748031496062992
            },
            {
              "number": 10,
              "ticks": 197313,
              "time": 210.80468744375,
              "value": 0.5669291338582677
            },
            {
              "number": 10,
              "ticks": 197327,
              "time": 210.81964472291665,
              "value": 0.5590551181102362
            },
            {
              "number": 10,
              "ticks": 197339,
              "time": 210.83246524791664,
              "value": 0.5511811023622047
            },
            {
              "number": 10,
              "ticks": 197352,
              "time": 210.84635414999997,
              "value": 0.5433070866141733
            },
            {
              "number": 10,
              "ticks": 197364,
              "time": 210.859174675,
              "value": 0.5354330708661418
            },
            {
              "number": 10,
              "ticks": 197377,
              "time": 210.87306357708334,
              "value": 0.5275590551181102
            },
            {
              "number": 10,
              "ticks": 197390,
              "time": 210.88695247916667,
              "value": 0.5196850393700787
            },
            {
              "number": 10,
              "ticks": 197402,
              "time": 210.89977300416666,
              "value": 0.5118110236220472
            },
            {
              "number": 10,
              "ticks": 197415,
              "time": 210.91366190624998,
              "value": 0.5039370078740157
            },
            {
              "number": 10,
              "ticks": 197415,
              "time": 210.91366190624998,
              "value": 0.5039370078740157
            },
            {
              "number": 10,
              "ticks": 197528,
              "time": 211.03438851666664,
              "value": 0.49606299212598426
            },
            {
              "number": 10,
              "ticks": 197641,
              "time": 211.15511512708335,
              "value": 0.4881889763779528
            },
            {
              "number": 10,
              "ticks": 197754,
              "time": 211.2758417375,
              "value": 0.48031496062992124
            },
            {
              "number": 10,
              "ticks": 197867,
              "time": 211.39656834791666,
              "value": 0.47244094488188976
            },
            {
              "number": 10,
              "ticks": 197980,
              "time": 211.5172949583333,
              "value": 0.4645669291338583
            },
            {
              "number": 10,
              "ticks": 198093,
              "time": 211.63802156875,
              "value": 0.4566929133858268
            },
            {
              "number": 10,
              "ticks": 198206,
              "time": 211.75874817916664,
              "value": 0.44881889763779526
            },
            {
              "number": 10,
              "ticks": 198318,
              "time": 211.8784064125,
              "value": 0.4409448818897638
            },
            {
              "number": 10,
              "ticks": 198431,
              "time": 211.99913302291665,
              "value": 0.4330708661417323
            },
            {
              "number": 10,
              "ticks": 198544,
              "time": 212.1198596333333,
              "value": 0.4251968503937008
            },
            {
              "number": 10,
              "ticks": 198658,
              "time": 212.24165462083332,
              "value": 0.41732283464566927
            },
            {
              "number": 10,
              "ticks": 198770,
              "time": 212.36131285416667,
              "value": 0.4094488188976378
            },
            {
              "number": 10,
              "ticks": 198884,
              "time": 212.48310784166665,
              "value": 0.4015748031496063
            },
            {
              "number": 10,
              "ticks": 198996,
              "time": 212.60276607499998,
              "value": 0.3937007874015748
            },
            {
              "number": 10,
              "ticks": 199109,
              "time": 212.72349268541663,
              "value": 0.3858267716535433
            },
            {
              "number": 10,
              "ticks": 199222,
              "time": 212.84421929583334,
              "value": 0.3779527559055118
            },
            {
              "number": 10,
              "ticks": 199335,
              "time": 212.96494590625,
              "value": 0.3700787401574803
            },
            {
              "number": 10,
              "ticks": 199448,
              "time": 213.08567251666665,
              "value": 0.36220472440944884
            },
            {
              "number": 10,
              "ticks": 199561,
              "time": 213.20639912708333,
              "value": 0.3543307086614173
            },
            {
              "number": 10,
              "ticks": 199674,
              "time": 213.32712573749998,
              "value": 0.3464566929133858
            },
            {
              "number": 10,
              "ticks": 199787,
              "time": 213.44785234791667,
              "value": 0.33858267716535434
            },
            {
              "number": 10,
              "ticks": 199899,
              "time": 213.56751058125,
              "value": 0.33070866141732286
            },
            {
              "number": 10,
              "ticks": 200013,
              "time": 213.68930556875,
              "value": 0.3228346456692913
            },
            {
              "number": 10,
              "ticks": 200125,
              "time": 213.8089638020833,
              "value": 0.31496062992125984
            },
            {
              "number": 10,
              "ticks": 200239,
              "time": 213.9307587895833,
              "value": 0.30708661417322836
            },
            {
              "number": 10,
              "ticks": 200351,
              "time": 214.05041702291666,
              "value": 0.2992125984251969
            },
            {
              "number": 10,
              "ticks": 200464,
              "time": 214.17114363333332,
              "value": 0.29133858267716534
            },
            {
              "number": 10,
              "ticks": 200578,
              "time": 214.29293862083333,
              "value": 0.28346456692913385
            },
            {
              "number": 10,
              "ticks": 200690,
              "time": 214.41259685416665,
              "value": 0.2755905511811024
            },
            {
              "number": 10,
              "ticks": 200803,
              "time": 214.53332346458333,
              "value": 0.2677165354330709
            },
            {
              "number": 10,
              "ticks": 200916,
              "time": 214.654050075,
              "value": 0.25984251968503935
            },
            {
              "number": 10,
              "ticks": 201029,
              "time": 214.77477668541664,
              "value": 0.25196850393700787
            },
            {
              "number": 10,
              "ticks": 201142,
              "time": 214.89550329583332,
              "value": 0.2440944881889764
            },
            {
              "number": 10,
              "ticks": 201255,
              "time": 215.01622990624998,
              "value": 0.23622047244094488
            },
            {
              "number": 10,
              "ticks": 201368,
              "time": 215.13695651666666,
              "value": 0.2283464566929134
            },
            {
              "number": 10,
              "ticks": 201480,
              "time": 215.25661474999998,
              "value": 0.2204724409448819
            },
            {
              "number": 10,
              "ticks": 201594,
              "time": 215.3784097375,
              "value": 0.2125984251968504
            },
            {
              "number": 10,
              "ticks": 201706,
              "time": 215.49806797083335,
              "value": 0.2047244094488189
            },
            {
              "number": 10,
              "ticks": 201820,
              "time": 215.6198629583333,
              "value": 0.1968503937007874
            },
            {
              "number": 10,
              "ticks": 201932,
              "time": 215.73952119166665,
              "value": 0.1889763779527559
            },
            {
              "number": 10,
              "ticks": 202046,
              "time": 215.86131617916666,
              "value": 0.18110236220472442
            },
            {
              "number": 10,
              "ticks": 202158,
              "time": 215.9809744125,
              "value": 0.1732283464566929
            },
            {
              "number": 10,
              "ticks": 202271,
              "time": 216.10170102291667,
              "value": 0.16535433070866143
            },
            {
              "number": 10,
              "ticks": 202384,
              "time": 216.22242763333333,
              "value": 0.15748031496062992
            },
            {
              "number": 10,
              "ticks": 202497,
              "time": 216.34315424374998,
              "value": 0.14960629921259844
            },
            {
              "number": 10,
              "ticks": 202610,
              "time": 216.46388085416666,
              "value": 0.14173228346456693
            },
            {
              "number": 10,
              "ticks": 202723,
              "time": 216.5846074645833,
              "value": 0.13385826771653545
            },
            {
              "number": 10,
              "ticks": 202836,
              "time": 216.705334075,
              "value": 0.12598425196850394
            },
            {
              "number": 10,
              "ticks": 202949,
              "time": 216.82606068541665,
              "value": 0.11811023622047244
            },
            {
              "number": 10,
              "ticks": 203061,
              "time": 216.94571891874998,
              "value": 0.11023622047244094
            },
            {
              "number": 10,
              "ticks": 203174,
              "time": 217.06644552916663,
              "value": 0.10236220472440945
            },
            {
              "number": 10,
              "ticks": 203288,
              "time": 217.18824051666664,
              "value": 0.09448818897637795
            },
            {
              "number": 10,
              "ticks": 203400,
              "time": 217.30789875,
              "value": 0.08661417322834646
            },
            {
              "number": 10,
              "ticks": 203514,
              "time": 217.4296937375,
              "value": 0.07874015748031496
            },
            {
              "number": 10,
              "ticks": 203626,
              "time": 217.54935197083333,
              "value": 0.07086614173228346
            },
            {
              "number": 10,
              "ticks": 203740,
              "time": 217.6711469583333,
              "value": 0.06299212598425197
            },
            {
              "number": 10,
              "ticks": 203852,
              "time": 217.79080519166666,
              "value": 0.05511811023622047
            },
            {
              "number": 10,
              "ticks": 203965,
              "time": 217.91153180208332,
              "value": 0.047244094488188976
            },
            {
              "number": 10,
              "ticks": 204078,
              "time": 218.0322584125,
              "value": 0.03937007874015748
            },
            {
              "number": 10,
              "ticks": 204191,
              "time": 218.15298502291665,
              "value": 0.031496062992125984
            },
            {
              "number": 10,
              "ticks": 204304,
              "time": 218.2737116333333,
              "value": 0.023622047244094488
            },
            {
              "number": 10,
              "ticks": 204417,
              "time": 218.39443824375,
              "value": 0.015748031496062992
            },
            {
              "number": 10,
              "ticks": 204530,
              "time": 218.51516485416667,
              "value": 0.007874015748031496
            },
            {
              "number": 10,
              "ticks": 204643,
              "time": 218.63589146458332,
              "value": 0
            },
            {
              "number": 10,
              "ticks": 204650,
              "time": 218.64337010416668,
              "value": 0
            },
            {
              "number": 10,
              "ticks": 204658,
              "time": 218.65191712083333,
              "value": 0.007874015748031496
            },
            {
              "number": 10,
              "ticks": 204666,
              "time": 218.66046413749999,
              "value": 0.015748031496062992
            },
            {
              "number": 10,
              "ticks": 204673,
              "time": 218.6679427770833,
              "value": 0.023622047244094488
            },
            {
              "number": 10,
              "ticks": 204681,
              "time": 218.67648979375,
              "value": 0.031496062992125984
            },
            {
              "number": 10,
              "ticks": 204689,
              "time": 218.68503681041665,
              "value": 0.03937007874015748
            },
            {
              "number": 10,
              "ticks": 204696,
              "time": 218.69251544999997,
              "value": 0.047244094488188976
            },
            {
              "number": 10,
              "ticks": 204705,
              "time": 218.70213084374998,
              "value": 0.05511811023622047
            },
            {
              "number": 10,
              "ticks": 204712,
              "time": 218.70960948333334,
              "value": 0.06299212598425197
            },
            {
              "number": 10,
              "ticks": 204719,
              "time": 218.71708812291664,
              "value": 0.07086614173228346
            },
            {
              "number": 10,
              "ticks": 204728,
              "time": 218.72670351666665,
              "value": 0.07874015748031496
            },
            {
              "number": 10,
              "ticks": 204735,
              "time": 218.73418215625,
              "value": 0.08661417322834646
            },
            {
              "number": 10,
              "ticks": 204743,
              "time": 218.74272917291665,
              "value": 0.09448818897637795
            },
            {
              "number": 10,
              "ticks": 204750,
              "time": 218.75020781249998,
              "value": 0.10236220472440945
            },
            {
              "number": 10,
              "ticks": 204758,
              "time": 218.75875482916663,
              "value": 0.11023622047244094
            },
            {
              "number": 10,
              "ticks": 204766,
              "time": 218.76730184583334,
              "value": 0.11811023622047244
            },
            {
              "number": 10,
              "ticks": 204773,
              "time": 218.77478048541664,
              "value": 0.12598425196850394
            },
            {
              "number": 10,
              "ticks": 204782,
              "time": 218.78439587916665,
              "value": 0.13385826771653545
            },
            {
              "number": 10,
              "ticks": 204789,
              "time": 218.79187451875,
              "value": 0.14173228346456693
            },
            {
              "number": 10,
              "ticks": 204796,
              "time": 218.79935315833333,
              "value": 0.14960629921259844
            },
            {
              "number": 10,
              "ticks": 204805,
              "time": 218.80896855208331,
              "value": 0.15748031496062992
            },
            {
              "number": 10,
              "ticks": 204812,
              "time": 218.81644719166664,
              "value": 0.16535433070866143
            },
            {
              "number": 10,
              "ticks": 204819,
              "time": 218.82392583125,
              "value": 0.1732283464566929
            },
            {
              "number": 10,
              "ticks": 204827,
              "time": 218.83247284791665,
              "value": 0.18110236220472442
            },
            {
              "number": 10,
              "ticks": 204835,
              "time": 218.8410198645833,
              "value": 0.1889763779527559
            },
            {
              "number": 10,
              "ticks": 204843,
              "time": 218.84956688125,
              "value": 0.1968503937007874
            },
            {
              "number": 10,
              "ticks": 204850,
              "time": 218.8570455208333,
              "value": 0.2047244094488189
            },
            {
              "number": 10,
              "ticks": 204858,
              "time": 218.8655925375,
              "value": 0.2125984251968504
            },
            {
              "number": 10,
              "ticks": 204866,
              "time": 218.87413955416665,
              "value": 0.2204724409448819
            },
            {
              "number": 10,
              "ticks": 204873,
              "time": 218.88161819375,
              "value": 0.2283464566929134
            },
            {
              "number": 10,
              "ticks": 204882,
              "time": 218.89123358749998,
              "value": 0.23622047244094488
            },
            {
              "number": 10,
              "ticks": 204889,
              "time": 218.8987122270833,
              "value": 0.2440944881889764
            },
            {
              "number": 10,
              "ticks": 204896,
              "time": 218.90619086666666,
              "value": 0.25196850393700787
            },
            {
              "number": 10,
              "ticks": 204905,
              "time": 218.91580626041667,
              "value": 0.25984251968503935
            },
            {
              "number": 10,
              "ticks": 204912,
              "time": 218.92328489999997,
              "value": 0.2677165354330709
            },
            {
              "number": 10,
              "ticks": 204920,
              "time": 218.93183191666665,
              "value": 0.2755905511811024
            },
            {
              "number": 10,
              "ticks": 204927,
              "time": 218.93931055624998,
              "value": 0.28346456692913385
            },
            {
              "number": 10,
              "ticks": 204935,
              "time": 218.94785757291666,
              "value": 0.29133858267716534
            },
            {
              "number": 10,
              "ticks": 204943,
              "time": 218.95640458958331,
              "value": 0.2992125984251969
            },
            {
              "number": 10,
              "ticks": 204950,
              "time": 218.96388322916667,
              "value": 0.30708661417322836
            },
            {
              "number": 10,
              "ticks": 204959,
              "time": 218.97349862291665,
              "value": 0.31496062992125984
            },
            {
              "number": 10,
              "ticks": 204966,
              "time": 218.98097726249998,
              "value": 0.3228346456692913
            },
            {
              "number": 10,
              "ticks": 204973,
              "time": 218.98845590208333,
              "value": 0.33070866141732286
            },
            {
              "number": 10,
              "ticks": 204982,
              "time": 218.99807129583334,
              "value": 0.33858267716535434
            },
            {
              "number": 10,
              "ticks": 204989,
              "time": 219.00554993541664,
              "value": 0.3464566929133858
            },
            {
              "number": 10,
              "ticks": 204996,
              "time": 219.013028575,
              "value": 0.3543307086614173
            },
            {
              "number": 10,
              "ticks": 205005,
              "time": 219.02264396874997,
              "value": 0.36220472440944884
            },
            {
              "number": 10,
              "ticks": 205012,
              "time": 219.03012260833333,
              "value": 0.3700787401574803
            },
            {
              "number": 10,
              "ticks": 205020,
              "time": 219.03866962499998,
              "value": 0.3779527559055118
            },
            {
              "number": 10,
              "ticks": 205027,
              "time": 219.04614826458334,
              "value": 0.3858267716535433
            },
            {
              "number": 10,
              "ticks": 205035,
              "time": 219.05469528125,
              "value": 0.3937007874015748
            },
            {
              "number": 10,
              "ticks": 205043,
              "time": 219.06324229791664,
              "value": 0.4015748031496063
            },
            {
              "number": 10,
              "ticks": 205050,
              "time": 219.0707209375,
              "value": 0.4094488188976378
            },
            {
              "number": 10,
              "ticks": 205059,
              "time": 219.08033633124998,
              "value": 0.41732283464566927
            },
            {
              "number": 10,
              "ticks": 205066,
              "time": 219.08781497083334,
              "value": 0.4251968503937008
            },
            {
              "number": 10,
              "ticks": 205073,
              "time": 219.09529361041663,
              "value": 0.4330708661417323
            },
            {
              "number": 10,
              "ticks": 205082,
              "time": 219.10490900416664,
              "value": 0.4409448818897638
            },
            {
              "number": 10,
              "ticks": 205089,
              "time": 219.11238764375,
              "value": 0.44881889763779526
            },
            {
              "number": 10,
              "ticks": 205097,
              "time": 219.12093466041665,
              "value": 0.4566929133858268
            },
            {
              "number": 10,
              "ticks": 205104,
              "time": 219.1284133,
              "value": 0.4645669291338583
            },
            {
              "number": 10,
              "ticks": 205112,
              "time": 219.13696031666666,
              "value": 0.47244094488188976
            },
            {
              "number": 10,
              "ticks": 205120,
              "time": 219.1455073333333,
              "value": 0.48031496062992124
            },
            {
              "number": 10,
              "ticks": 205127,
              "time": 219.15298597291664,
              "value": 0.4881889763779528
            },
            {
              "number": 10,
              "ticks": 205135,
              "time": 219.16153298958332,
              "value": 0.5039370078740157
            },
            {
              "number": 10,
              "ticks": 205187,
              "time": 219.21708859791664,
              "value": 0.49606299212598426
            },
            {
              "number": 10,
              "ticks": 205240,
              "time": 219.27371258333332,
              "value": 0.4881889763779528
            },
            {
              "number": 10,
              "ticks": 205292,
              "time": 219.32926819166664,
              "value": 0.48031496062992124
            },
            {
              "number": 10,
              "ticks": 205344,
              "time": 219.3848238,
              "value": 0.47244094488188976
            },
            {
              "number": 10,
              "ticks": 205397,
              "time": 219.44144778541664,
              "value": 0.4645669291338583
            },
            {
              "number": 10,
              "ticks": 205449,
              "time": 219.49700339375,
              "value": 0.4566929133858268
            },
            {
              "number": 10,
              "ticks": 205501,
              "time": 219.55255900208334,
              "value": 0.44881889763779526
            },
            {
              "number": 10,
              "ticks": 205553,
              "time": 219.60811461041664,
              "value": 0.4409448818897638
            },
            {
              "number": 10,
              "ticks": 205606,
              "time": 219.66473859583334,
              "value": 0.4330708661417323
            },
            {
              "number": 10,
              "ticks": 205658,
              "time": 219.72029420416663,
              "value": 0.4251968503937008
            },
            {
              "number": 10,
              "ticks": 205710,
              "time": 219.77584981249998,
              "value": 0.41732283464566927
            },
            {
              "number": 10,
              "ticks": 205763,
              "time": 219.83247379791663,
              "value": 0.4094488188976378
            },
            {
              "number": 10,
              "ticks": 205815,
              "time": 219.88802940624998,
              "value": 0.4015748031496063
            },
            {
              "number": 10,
              "ticks": 205867,
              "time": 219.94358501458333,
              "value": 0.3937007874015748
            },
            {
              "number": 10,
              "ticks": 205920,
              "time": 220.00020899999998,
              "value": 0.3858267716535433
            },
            {
              "number": 10,
              "ticks": 205972,
              "time": 220.05576460833333,
              "value": 0.3779527559055118
            },
            {
              "number": 10,
              "ticks": 206024,
              "time": 220.11132021666663,
              "value": 0.3700787401574803
            },
            {
              "number": 10,
              "ticks": 206076,
              "time": 220.16687582499998,
              "value": 0.36220472440944884
            },
            {
              "number": 10,
              "ticks": 206129,
              "time": 220.22349981041663,
              "value": 0.3543307086614173
            },
            {
              "number": 10,
              "ticks": 206181,
              "time": 220.27905541874998,
              "value": 0.3464566929133858
            },
            {
              "number": 10,
              "ticks": 206233,
              "time": 220.33461102708333,
              "value": 0.33858267716535434
            },
            {
              "number": 10,
              "ticks": 206286,
              "time": 220.39123501249998,
              "value": 0.33070866141732286
            },
            {
              "number": 10,
              "ticks": 206338,
              "time": 220.44679062083333,
              "value": 0.3228346456692913
            },
            {
              "number": 10,
              "ticks": 206390,
              "time": 220.50234622916668,
              "value": 0.31496062992125984
            },
            {
              "number": 10,
              "ticks": 206443,
              "time": 220.55897021458333,
              "value": 0.30708661417322836
            },
            {
              "number": 10,
              "ticks": 206495,
              "time": 220.61452582291668,
              "value": 0.2992125984251969
            },
            {
              "number": 10,
              "ticks": 206547,
              "time": 220.67008143124997,
              "value": 0.29133858267716534
            },
            {
              "number": 10,
              "ticks": 206600,
              "time": 220.72670541666668,
              "value": 0.28346456692913385
            },
            {
              "number": 10,
              "ticks": 206652,
              "time": 220.78226102499997,
              "value": 0.2755905511811024
            },
            {
              "number": 10,
              "ticks": 206704,
              "time": 220.83781663333332,
              "value": 0.2677165354330709
            },
            {
              "number": 10,
              "ticks": 206756,
              "time": 220.89337224166667,
              "value": 0.25984251968503935
            },
            {
              "number": 10,
              "ticks": 206809,
              "time": 220.94999622708332,
              "value": 0.25196850393700787
            },
            {
              "number": 10,
              "ticks": 206861,
              "time": 221.00555183541667,
              "value": 0.2440944881889764
            },
            {
              "number": 10,
              "ticks": 206913,
              "time": 221.06110744375,
              "value": 0.23622047244094488
            },
            {
              "number": 10,
              "ticks": 206966,
              "time": 221.11773142916667,
              "value": 0.2283464566929134
            },
            {
              "number": 10,
              "ticks": 207018,
              "time": 221.1732870375,
              "value": 0.2204724409448819
            },
            {
              "number": 10,
              "ticks": 207070,
              "time": 221.2288426458333,
              "value": 0.2125984251968504
            },
            {
              "number": 10,
              "ticks": 207123,
              "time": 221.28546663125,
              "value": 0.2047244094488189
            },
            {
              "number": 10,
              "ticks": 207175,
              "time": 221.3410222395833,
              "value": 0.1968503937007874
            },
            {
              "number": 10,
              "ticks": 207227,
              "time": 221.39657784791666,
              "value": 0.1889763779527559
            },
            {
              "number": 10,
              "ticks": 207279,
              "time": 221.45213345624998,
              "value": 0.18110236220472442
            },
            {
              "number": 10,
              "ticks": 207332,
              "time": 221.50875744166666,
              "value": 0.1732283464566929
            },
            {
              "number": 10,
              "ticks": 207384,
              "time": 221.56431304999998,
              "value": 0.16535433070866143
            },
            {
              "number": 10,
              "ticks": 207436,
              "time": 221.61986865833333,
              "value": 0.15748031496062992
            },
            {
              "number": 10,
              "ticks": 207489,
              "time": 221.67649264374998,
              "value": 0.14960629921259844
            },
            {
              "number": 10,
              "ticks": 207541,
              "time": 221.73204825208333,
              "value": 0.14173228346456693
            },
            {
              "number": 10,
              "ticks": 207593,
              "time": 221.78760386041665,
              "value": 0.13385826771653545
            },
            {
              "number": 10,
              "ticks": 207646,
              "time": 221.84422784583333,
              "value": 0.12598425196850394
            },
            {
              "number": 10,
              "ticks": 207698,
              "time": 221.89978345416665,
              "value": 0.11811023622047244
            },
            {
              "number": 10,
              "ticks": 207750,
              "time": 221.95533906249997,
              "value": 0.11023622047244094
            },
            {
              "number": 10,
              "ticks": 207803,
              "time": 222.01196304791665,
              "value": 0.10236220472440945
            },
            {
              "number": 10,
              "ticks": 207855,
              "time": 222.06751865625,
              "value": 0.09448818897637795
            },
            {
              "number": 10,
              "ticks": 207907,
              "time": 222.12307426458332,
              "value": 0.08661417322834646
            },
            {
              "number": 10,
              "ticks": 207959,
              "time": 222.17862987291664,
              "value": 0.07874015748031496
            },
            {
              "number": 10,
              "ticks": 208012,
              "time": 222.23525385833332,
              "value": 0.07086614173228346
            },
            {
              "number": 10,
              "ticks": 208064,
              "time": 222.29080946666664,
              "value": 0.06299212598425197
            },
            {
              "number": 10,
              "ticks": 208116,
              "time": 222.346365075,
              "value": 0.05511811023622047
            },
            {
              "number": 10,
              "ticks": 208169,
              "time": 222.40298906041664,
              "value": 0.047244094488188976
            },
            {
              "number": 10,
              "ticks": 208221,
              "time": 222.45854466875,
              "value": 0.03937007874015748
            },
            {
              "number": 10,
              "ticks": 208273,
              "time": 222.51410027708332,
              "value": 0.031496062992125984
            },
            {
              "number": 10,
              "ticks": 208326,
              "time": 222.5707242625,
              "value": 0.023622047244094488
            },
            {
              "number": 10,
              "ticks": 208378,
              "time": 222.62627987083332,
              "value": 0.015748031496062992
            },
            {
              "number": 10,
              "ticks": 208430,
              "time": 222.68183547916666,
              "value": 0.007874015748031496
            },
            {
              "number": 10,
              "ticks": 208483,
              "time": 222.73845946458331,
              "value": 0
            },
            {
              "number": 10,
              "ticks": 208490,
              "time": 222.74593810416667,
              "value": 0
            },
            {
              "number": 10,
              "ticks": 208499,
              "time": 222.75555349791665,
              "value": 0.007874015748031496
            },
            {
              "number": 10,
              "ticks": 208506,
              "time": 222.76303213749998,
              "value": 0.015748031496062992
            },
            {
              "number": 10,
              "ticks": 208514,
              "time": 222.77157915416663,
              "value": 0.023622047244094488
            },
            {
              "number": 10,
              "ticks": 208522,
              "time": 222.78012617083334,
              "value": 0.031496062992125984
            },
            {
              "number": 10,
              "ticks": 208530,
              "time": 222.7886731875,
              "value": 0.03937007874015748
            },
            {
              "number": 10,
              "ticks": 208537,
              "time": 222.79615182708332,
              "value": 0.047244094488188976
            },
            {
              "number": 10,
              "ticks": 208546,
              "time": 222.80576722083333,
              "value": 0.05511811023622047
            },
            {
              "number": 10,
              "ticks": 208553,
              "time": 222.81324586041666,
              "value": 0.06299212598425197
            },
            {
              "number": 10,
              "ticks": 208561,
              "time": 222.82179287708334,
              "value": 0.07086614173228346
            },
            {
              "number": 10,
              "ticks": 208569,
              "time": 222.83033989375,
              "value": 0.07874015748031496
            },
            {
              "number": 10,
              "ticks": 208577,
              "time": 222.83888691041665,
              "value": 0.08661417322834646
            },
            {
              "number": 10,
              "ticks": 208585,
              "time": 222.8474339270833,
              "value": 0.09448818897637795
            },
            {
              "number": 10,
              "ticks": 208592,
              "time": 222.85491256666666,
              "value": 0.10236220472440945
            },
            {
              "number": 10,
              "ticks": 208601,
              "time": 222.86452796041667,
              "value": 0.11023622047244094
            },
            {
              "number": 10,
              "ticks": 208608,
              "time": 222.8720066,
              "value": 0.11811023622047244
            },
            {
              "number": 10,
              "ticks": 208616,
              "time": 222.88055361666665,
              "value": 0.12598425196850394
            },
            {
              "number": 10,
              "ticks": 208624,
              "time": 222.88910063333333,
              "value": 0.13385826771653545
            },
            {
              "number": 10,
              "ticks": 208632,
              "time": 222.89764764999998,
              "value": 0.14173228346456693
            },
            {
              "number": 10,
              "ticks": 208640,
              "time": 222.90619466666666,
              "value": 0.14960629921259844
            },
            {
              "number": 10,
              "ticks": 208647,
              "time": 222.91367330625,
              "value": 0.15748031496062992
            },
            {
              "number": 10,
              "ticks": 208656,
              "time": 222.92328869999997,
              "value": 0.16535433070866143
            },
            {
              "number": 10,
              "ticks": 208663,
              "time": 222.93076733958333,
              "value": 0.1732283464566929
            },
            {
              "number": 10,
              "ticks": 208671,
              "time": 222.93931435624998,
              "value": 0.18110236220472442
            },
            {
              "number": 10,
              "ticks": 208679,
              "time": 222.94786137291663,
              "value": 0.1889763779527559
            },
            {
              "number": 10,
              "ticks": 208687,
              "time": 222.95640838958332,
              "value": 0.1968503937007874
            },
            {
              "number": 10,
              "ticks": 208694,
              "time": 222.96388702916664,
              "value": 0.2047244094488189
            },
            {
              "number": 10,
              "ticks": 208703,
              "time": 222.97350242291665,
              "value": 0.2125984251968504
            },
            {
              "number": 10,
              "ticks": 208710,
              "time": 222.98098106249998,
              "value": 0.2204724409448819
            },
            {
              "number": 10,
              "ticks": 208719,
              "time": 222.99059645625,
              "value": 0.2283464566929134
            },
            {
              "number": 10,
              "ticks": 208726,
              "time": 222.99807509583334,
              "value": 0.23622047244094488
            },
            {
              "number": 10,
              "ticks": 208734,
              "time": 223.0066221125,
              "value": 0.2440944881889764
            },
            {
              "number": 10,
              "ticks": 208742,
              "time": 223.01516912916665,
              "value": 0.25196850393700787
            },
            {
              "number": 10,
              "ticks": 208749,
              "time": 223.02264776875,
              "value": 0.25984251968503935
            },
            {
              "number": 10,
              "ticks": 208758,
              "time": 223.0322631625,
              "value": 0.2677165354330709
            },
            {
              "number": 10,
              "ticks": 208765,
              "time": 223.0397418020833,
              "value": 0.2755905511811024
            },
            {
              "number": 10,
              "ticks": 208774,
              "time": 223.04935719583332,
              "value": 0.28346456692913385
            },
            {
              "number": 10,
              "ticks": 208781,
              "time": 223.05683583541665,
              "value": 0.29133858267716534
            },
            {
              "number": 10,
              "ticks": 208789,
              "time": 223.0653828520833,
              "value": 0.2992125984251969
            },
            {
              "number": 10,
              "ticks": 208797,
              "time": 223.07392986874999,
              "value": 0.30708661417322836
            },
            {
              "number": 10,
              "ticks": 208804,
              "time": 223.0814085083333,
              "value": 0.31496062992125984
            },
            {
              "number": 10,
              "ticks": 208813,
              "time": 223.09102390208332,
              "value": 0.3228346456692913
            },
            {
              "number": 10,
              "ticks": 208820,
              "time": 223.09850254166668,
              "value": 0.33070866141732286
            },
            {
              "number": 10,
              "ticks": 208828,
              "time": 223.10704955833333,
              "value": 0.33858267716535434
            },
            {
              "number": 10,
              "ticks": 208836,
              "time": 223.11559657499998,
              "value": 0.3464566929133858
            },
            {
              "number": 10,
              "ticks": 208844,
              "time": 223.12414359166664,
              "value": 0.3543307086614173
            },
            {
              "number": 10,
              "ticks": 208852,
              "time": 223.13269060833332,
              "value": 0.36220472440944884
            },
            {
              "number": 10,
              "ticks": 208859,
              "time": 223.14016924791665,
              "value": 0.3700787401574803
            },
            {
              "number": 10,
              "ticks": 208868,
              "time": 223.14978464166666,
              "value": 0.3779527559055118
            },
            {
              "number": 10,
              "ticks": 208875,
              "time": 223.15726328124998,
              "value": 0.3858267716535433
            },
            {
              "number": 10,
              "ticks": 208883,
              "time": 223.16581029791664,
              "value": 0.3937007874015748
            },
            {
              "number": 10,
              "ticks": 208891,
              "time": 223.17435731458335,
              "value": 0.4015748031496063
            },
            {
              "number": 10,
              "ticks": 208899,
              "time": 223.18290433125,
              "value": 0.4094488188976378
            },
            {
              "number": 10,
              "ticks": 208906,
              "time": 223.19038297083333,
              "value": 0.41732283464566927
            },
            {
              "number": 10,
              "ticks": 208915,
              "time": 223.1999983645833,
              "value": 0.4251968503937008
            },
            {
              "number": 10,
              "ticks": 208922,
              "time": 223.20747700416666,
              "value": 0.4330708661417323
            },
            {
              "number": 10,
              "ticks": 208931,
              "time": 223.21709239791664,
              "value": 0.4409448818897638
            },
            {
              "number": 10,
              "ticks": 208938,
              "time": 223.2245710375,
              "value": 0.44881889763779526
            },
            {
              "number": 10,
              "ticks": 208946,
              "time": 223.23311805416665,
              "value": 0.4566929133858268
            },
            {
              "number": 10,
              "ticks": 208954,
              "time": 223.2416650708333,
              "value": 0.4645669291338583
            },
            {
              "number": 10,
              "ticks": 208961,
              "time": 223.24914371041666,
              "value": 0.47244094488188976
            },
            {
              "number": 10,
              "ticks": 208970,
              "time": 223.25875910416667,
              "value": 0.48031496062992124
            },
            {
              "number": 10,
              "ticks": 208977,
              "time": 223.26623774374997,
              "value": 0.4881889763779528
            },
            {
              "number": 10,
              "ticks": 208985,
              "time": 223.27478476041665,
              "value": 0.5039370078740157
            },
            {
              "number": 10,
              "ticks": 209121,
              "time": 223.42008404375,
              "value": 0.49606299212598426
            },
            {
              "number": 10,
              "ticks": 209257,
              "time": 223.56538332708334,
              "value": 0.4881889763779528
            },
            {
              "number": 10,
              "ticks": 209393,
              "time": 223.71068261041665,
              "value": 0.48031496062992124
            },
            {
              "number": 10,
              "ticks": 209529,
              "time": 223.85598189375,
              "value": 0.47244094488188976
            },
            {
              "number": 10,
              "ticks": 209665,
              "time": 224.0012811770833,
              "value": 0.4645669291338583
            },
            {
              "number": 10,
              "ticks": 209801,
              "time": 224.14658046041666,
              "value": 0.4566929133858268
            },
            {
              "number": 10,
              "ticks": 209937,
              "time": 224.29187974374997,
              "value": 0.44881889763779526
            },
            {
              "number": 10,
              "ticks": 210073,
              "time": 224.43717902708332,
              "value": 0.4409448818897638
            },
            {
              "number": 10,
              "ticks": 210208,
              "time": 224.58140993333333,
              "value": 0.4330708661417323
            },
            {
              "number": 10,
              "ticks": 210345,
              "time": 224.72777759374998,
              "value": 0.4251968503937008
            },
            {
              "number": 10,
              "ticks": 210480,
              "time": 224.8720085,
              "value": 0.41732283464566927
            },
            {
              "number": 10,
              "ticks": 210617,
              "time": 225.01837616041666,
              "value": 0.4094488188976378
            },
            {
              "number": 10,
              "ticks": 210752,
              "time": 225.16260706666665,
              "value": 0.4015748031496063
            },
            {
              "number": 10,
              "ticks": 210889,
              "time": 225.30897472708332,
              "value": 0.3937007874015748
            },
            {
              "number": 10,
              "ticks": 211024,
              "time": 225.4532056333333,
              "value": 0.3858267716535433
            },
            {
              "number": 10,
              "ticks": 211160,
              "time": 225.59850491666666,
              "value": 0.3779527559055118
            },
            {
              "number": 10,
              "ticks": 211296,
              "time": 225.74380419999997,
              "value": 0.3700787401574803
            },
            {
              "number": 10,
              "ticks": 211432,
              "time": 225.88910348333332,
              "value": 0.36220472440944884
            },
            {
              "number": 10,
              "ticks": 211568,
              "time": 226.03440276666666,
              "value": 0.3543307086614173
            },
            {
              "number": 10,
              "ticks": 211704,
              "time": 226.17970205,
              "value": 0.3464566929133858
            },
            {
              "number": 10,
              "ticks": 211840,
              "time": 226.32500133333332,
              "value": 0.33858267716535434
            },
            {
              "number": 10,
              "ticks": 211976,
              "time": 226.47030061666666,
              "value": 0.33070866141732286
            },
            {
              "number": 10,
              "ticks": 212112,
              "time": 226.61559989999998,
              "value": 0.3228346456692913
            },
            {
              "number": 10,
              "ticks": 212248,
              "time": 226.76089918333332,
              "value": 0.31496062992125984
            },
            {
              "number": 10,
              "ticks": 212383,
              "time": 226.9051300895833,
              "value": 0.30708661417322836
            },
            {
              "number": 10,
              "ticks": 212520,
              "time": 227.05149774999998,
              "value": 0.2992125984251969
            },
            {
              "number": 10,
              "ticks": 212655,
              "time": 227.19572865625,
              "value": 0.29133858267716534
            },
            {
              "number": 10,
              "ticks": 212792,
              "time": 227.34209631666664,
              "value": 0.28346456692913385
            },
            {
              "number": 10,
              "ticks": 212927,
              "time": 227.48632722291666,
              "value": 0.2755905511811024
            },
            {
              "number": 10,
              "ticks": 213064,
              "time": 227.63269488333333,
              "value": 0.2677165354330709
            },
            {
              "number": 10,
              "ticks": 213199,
              "time": 227.77692578958332,
              "value": 0.25984251968503935
            },
            {
              "number": 10,
              "ticks": 213335,
              "time": 227.92222507291666,
              "value": 0.25196850393700787
            },
            {
              "number": 10,
              "ticks": 213471,
              "time": 228.06752435624998,
              "value": 0.2440944881889764
            },
            {
              "number": 10,
              "ticks": 213607,
              "time": 228.21282363958332,
              "value": 0.23622047244094488
            },
            {
              "number": 10,
              "ticks": 213743,
              "time": 228.35812292291664,
              "value": 0.2283464566929134
            },
            {
              "number": 10,
              "ticks": 213879,
              "time": 228.50342220624998,
              "value": 0.2204724409448819
            },
            {
              "number": 10,
              "ticks": 214015,
              "time": 228.64872148958332,
              "value": 0.2125984251968504
            },
            {
              "number": 10,
              "ticks": 214151,
              "time": 228.79402077291667,
              "value": 0.2047244094488189
            },
            {
              "number": 10,
              "ticks": 214287,
              "time": 228.93932005624998,
              "value": 0.1968503937007874
            },
            {
              "number": 10,
              "ticks": 214423,
              "time": 229.08461933958333,
              "value": 0.1889763779527559
            },
            {
              "number": 10,
              "ticks": 214558,
              "time": 229.2288502458333,
              "value": 0.18110236220472442
            },
            {
              "number": 10,
              "ticks": 214695,
              "time": 229.37521790625,
              "value": 0.1732283464566929
            },
            {
              "number": 10,
              "ticks": 214830,
              "time": 229.51944881249997,
              "value": 0.16535433070866143
            },
            {
              "number": 10,
              "ticks": 214967,
              "time": 229.66581647291665,
              "value": 0.15748031496062992
            },
            {
              "number": 10,
              "ticks": 215102,
              "time": 229.81004737916666,
              "value": 0.14960629921259844
            },
            {
              "number": 10,
              "ticks": 215239,
              "time": 229.9564150395833,
              "value": 0.14173228346456693
            },
            {
              "number": 10,
              "ticks": 215374,
              "time": 230.10064594583332,
              "value": 0.13385826771653545
            },
            {
              "number": 10,
              "ticks": 215510,
              "time": 230.24594522916667,
              "value": 0.12598425196850394
            },
            {
              "number": 10,
              "ticks": 215646,
              "time": 230.39124451249998,
              "value": 0.11811023622047244
            },
            {
              "number": 10,
              "ticks": 215782,
              "time": 230.53654379583332,
              "value": 0.11023622047244094
            },
            {
              "number": 10,
              "ticks": 215918,
              "time": 230.68184307916664,
              "value": 0.10236220472440945
            },
            {
              "number": 10,
              "ticks": 216054,
              "time": 230.82714236249998,
              "value": 0.09448818897637795
            },
            {
              "number": 10,
              "ticks": 216190,
              "time": 230.9724416458333,
              "value": 0.08661417322834646
            },
            {
              "number": 10,
              "ticks": 216326,
              "time": 231.11774092916664,
              "value": 0.07874015748031496
            },
            {
              "number": 10,
              "ticks": 216462,
              "time": 231.2630402125,
              "value": 0.07086614173228346
            },
            {
              "number": 10,
              "ticks": 216598,
              "time": 231.40833949583333,
              "value": 0.06299212598425197
            },
            {
              "number": 10,
              "ticks": 216733,
              "time": 231.55257040208332,
              "value": 0.05511811023622047
            },
            {
              "number": 10,
              "ticks": 216870,
              "time": 231.6989380625,
              "value": 0.047244094488188976
            },
            {
              "number": 10,
              "ticks": 217005,
              "time": 231.84316896874998,
              "value": 0.03937007874015748
            },
            {
              "number": 10,
              "ticks": 217142,
              "time": 231.98953662916665,
              "value": 0.031496062992125984
            },
            {
              "number": 10,
              "ticks": 217277,
              "time": 232.13376753541664,
              "value": 0.023622047244094488
            },
            {
              "number": 10,
              "ticks": 217414,
              "time": 232.2801351958333,
              "value": 0.015748031496062992
            },
            {
              "number": 10,
              "ticks": 217549,
              "time": 232.42436610208333,
              "value": 0.007874015748031496
            },
            {
              "number": 10,
              "ticks": 217685,
              "time": 232.56966538541667,
              "value": 0
            },
            {
              "number": 10,
              "ticks": 217701,
              "time": 232.58675941874998,
              "value": 0
            },
            {
              "number": 10,
              "ticks": 217716,
              "time": 232.60278507499999,
              "value": 0.007874015748031496
            },
            {
              "number": 10,
              "ticks": 217732,
              "time": 232.61987910833332,
              "value": 0.015748031496062992
            },
            {
              "number": 10,
              "ticks": 217747,
              "time": 232.63590476458333,
              "value": 0.023622047244094488
            },
            {
              "number": 10,
              "ticks": 217763,
              "time": 232.65299879791664,
              "value": 0.031496062992125984
            },
            {
              "number": 10,
              "ticks": 217778,
              "time": 232.66902445416665,
              "value": 0.03937007874015748
            },
            {
              "number": 10,
              "ticks": 217794,
              "time": 232.68611848749998,
              "value": 0.047244094488188976
            },
            {
              "number": 10,
              "ticks": 217809,
              "time": 232.70214414375,
              "value": 0.05511811023622047
            },
            {
              "number": 10,
              "ticks": 217825,
              "time": 232.7192381770833,
              "value": 0.06299212598425197
            },
            {
              "number": 10,
              "ticks": 217840,
              "time": 232.7352638333333,
              "value": 0.07086614173228346
            },
            {
              "number": 10,
              "ticks": 217856,
              "time": 232.75235786666667,
              "value": 0.07874015748031496
            },
            {
              "number": 10,
              "ticks": 217871,
              "time": 232.76838352291665,
              "value": 0.08661417322834646
            },
            {
              "number": 10,
              "ticks": 217887,
              "time": 232.78547755625,
              "value": 0.09448818897637795
            },
            {
              "number": 10,
              "ticks": 217902,
              "time": 232.80150321249997,
              "value": 0.10236220472440945
            },
            {
              "number": 10,
              "ticks": 217918,
              "time": 232.81859724583333,
              "value": 0.11023622047244094
            },
            {
              "number": 10,
              "ticks": 217933,
              "time": 232.8346229020833,
              "value": 0.11811023622047244
            },
            {
              "number": 10,
              "ticks": 217949,
              "time": 232.85171693541665,
              "value": 0.12598425196850394
            },
            {
              "number": 10,
              "ticks": 217964,
              "time": 232.86774259166663,
              "value": 0.13385826771653545
            },
            {
              "number": 10,
              "ticks": 217980,
              "time": 232.884836625,
              "value": 0.14173228346456693
            },
            {
              "number": 10,
              "ticks": 217995,
              "time": 232.90086228125,
              "value": 0.14960629921259844
            },
            {
              "number": 10,
              "ticks": 218011,
              "time": 232.91795631458334,
              "value": 0.15748031496062992
            },
            {
              "number": 10,
              "ticks": 218026,
              "time": 232.93398197083334,
              "value": 0.16535433070866143
            },
            {
              "number": 10,
              "ticks": 218042,
              "time": 232.95107600416665,
              "value": 0.1732283464566929
            },
            {
              "number": 10,
              "ticks": 218057,
              "time": 232.96710166041666,
              "value": 0.18110236220472442
            },
            {
              "number": 10,
              "ticks": 218073,
              "time": 232.98419569375,
              "value": 0.1889763779527559
            },
            {
              "number": 10,
              "ticks": 218088,
              "time": 233.00022135,
              "value": 0.1968503937007874
            },
            {
              "number": 10,
              "ticks": 218104,
              "time": 233.0173153833333,
              "value": 0.2047244094488189
            },
            {
              "number": 10,
              "ticks": 218119,
              "time": 233.03334103958332,
              "value": 0.2125984251968504
            },
            {
              "number": 10,
              "ticks": 218135,
              "time": 233.05043507291666,
              "value": 0.2204724409448819
            },
            {
              "number": 10,
              "ticks": 218150,
              "time": 233.06646072916666,
              "value": 0.2283464566929134
            },
            {
              "number": 10,
              "ticks": 218166,
              "time": 233.08355476249997,
              "value": 0.23622047244094488
            },
            {
              "number": 10,
              "ticks": 218181,
              "time": 233.09958041874998,
              "value": 0.2440944881889764
            },
            {
              "number": 10,
              "ticks": 218197,
              "time": 233.11667445208332,
              "value": 0.25196850393700787
            },
            {
              "number": 10,
              "ticks": 218212,
              "time": 233.13270010833332,
              "value": 0.25984251968503935
            },
            {
              "number": 10,
              "ticks": 218228,
              "time": 233.14979414166663,
              "value": 0.2677165354330709
            },
            {
              "number": 10,
              "ticks": 218243,
              "time": 233.16581979791664,
              "value": 0.2755905511811024
            },
            {
              "number": 10,
              "ticks": 218259,
              "time": 233.18291383125,
              "value": 0.28346456692913385
            },
            {
              "number": 10,
              "ticks": 218274,
              "time": 233.19893948749998,
              "value": 0.29133858267716534
            },
            {
              "number": 10,
              "ticks": 218290,
              "time": 233.21603352083332,
              "value": 0.2992125984251969
            },
            {
              "number": 10,
              "ticks": 218305,
              "time": 233.2320591770833,
              "value": 0.30708661417322836
            },
            {
              "number": 10,
              "ticks": 218321,
              "time": 233.24915321041667,
              "value": 0.31496062992125984
            },
            {
              "number": 10,
              "ticks": 218336,
              "time": 233.26517886666664,
              "value": 0.3228346456692913
            },
            {
              "number": 10,
              "ticks": 218353,
              "time": 233.2833412770833,
              "value": 0.33070866141732286
            },
            {
              "number": 10,
              "ticks": 218368,
              "time": 233.29936693333332,
              "value": 0.33858267716535434
            },
            {
              "number": 10,
              "ticks": 218383,
              "time": 233.31539258958333,
              "value": 0.3464566929133858
            },
            {
              "number": 10,
              "ticks": 218399,
              "time": 233.33248662291663,
              "value": 0.3543307086614173
            },
            {
              "number": 10,
              "ticks": 218414,
              "time": 233.34851227916664,
              "value": 0.36220472440944884
            },
            {
              "number": 10,
              "ticks": 218430,
              "time": 233.36560631249998,
              "value": 0.3700787401574803
            },
            {
              "number": 10,
              "ticks": 218445,
              "time": 233.38163196874999,
              "value": 0.3779527559055118
            },
            {
              "number": 10,
              "ticks": 218461,
              "time": 233.39872600208332,
              "value": 0.3858267716535433
            },
            {
              "number": 10,
              "ticks": 218476,
              "time": 233.41475165833333,
              "value": 0.3937007874015748
            },
            {
              "number": 10,
              "ticks": 218492,
              "time": 233.43184569166664,
              "value": 0.4015748031496063
            },
            {
              "number": 10,
              "ticks": 218507,
              "time": 233.44787134791665,
              "value": 0.4094488188976378
            },
            {
              "number": 10,
              "ticks": 218523,
              "time": 233.46496538125,
              "value": 0.41732283464566927
            },
            {
              "number": 10,
              "ticks": 218538,
              "time": 233.4809910375,
              "value": 0.4251968503937008
            },
            {
              "number": 10,
              "ticks": 218554,
              "time": 233.49808507083333,
              "value": 0.4330708661417323
            },
            {
              "number": 10,
              "ticks": 218569,
              "time": 233.5141107270833,
              "value": 0.4409448818897638
            },
            {
              "number": 10,
              "ticks": 218585,
              "time": 233.53120476041667,
              "value": 0.44881889763779526
            },
            {
              "number": 10,
              "ticks": 218600,
              "time": 233.54723041666665,
              "value": 0.4566929133858268
            },
            {
              "number": 10,
              "ticks": 218616,
              "time": 233.56432445,
              "value": 0.4645669291338583
            },
            {
              "number": 10,
              "ticks": 218631,
              "time": 233.58035010625,
              "value": 0.47244094488188976
            },
            {
              "number": 10,
              "ticks": 218647,
              "time": 233.59744413958333,
              "value": 0.48031496062992124
            },
            {
              "number": 10,
              "ticks": 218662,
              "time": 233.61346979583334,
              "value": 0.4881889763779528
            },
            {
              "number": 10,
              "ticks": 218678,
              "time": 233.63056382916665,
              "value": 0.49606299212598426
            },
            {
              "number": 10,
              "ticks": 218693,
              "time": 233.64658948541665,
              "value": 0.5039370078740157
            },
            {
              "number": 10,
              "ticks": 218709,
              "time": 233.66368351875,
              "value": 0.5118110236220472
            },
            {
              "number": 10,
              "ticks": 218724,
              "time": 233.679709175,
              "value": 0.5196850393700787
            },
            {
              "number": 10,
              "ticks": 218740,
              "time": 233.6968032083333,
              "value": 0.5275590551181102
            },
            {
              "number": 10,
              "ticks": 218755,
              "time": 233.71282886458332,
              "value": 0.5354330708661418
            },
            {
              "number": 10,
              "ticks": 218771,
              "time": 233.72992289791665,
              "value": 0.5433070866141733
            },
            {
              "number": 10,
              "ticks": 218786,
              "time": 233.74594855416666,
              "value": 0.5511811023622047
            },
            {
              "number": 10,
              "ticks": 218802,
              "time": 233.76304258749997,
              "value": 0.5590551181102362
            },
            {
              "number": 10,
              "ticks": 218817,
              "time": 233.77906824374998,
              "value": 0.5669291338582677
            },
            {
              "number": 10,
              "ticks": 218833,
              "time": 233.7961622770833,
              "value": 0.5748031496062992
            },
            {
              "number": 10,
              "ticks": 218848,
              "time": 233.81218793333332,
              "value": 0.5826771653543307
            },
            {
              "number": 10,
              "ticks": 218864,
              "time": 233.82928196666663,
              "value": 0.5905511811023622
            },
            {
              "number": 10,
              "ticks": 218879,
              "time": 233.84530762291664,
              "value": 0.5984251968503937
            },
            {
              "number": 10,
              "ticks": 218895,
              "time": 233.86240165625,
              "value": 0.6062992125984252
            },
            {
              "number": 10,
              "ticks": 218910,
              "time": 233.87842731249998,
              "value": 0.6141732283464567
            },
            {
              "number": 10,
              "ticks": 218926,
              "time": 233.89552134583334,
              "value": 0.6220472440944882
            },
            {
              "number": 10,
              "ticks": 218941,
              "time": 233.91154700208332,
              "value": 0.6299212598425197
            },
            {
              "number": 10,
              "ticks": 218957,
              "time": 233.92864103541666,
              "value": 0.6377952755905512
            },
            {
              "number": 10,
              "ticks": 218972,
              "time": 233.94466669166664,
              "value": 0.6456692913385826
            },
            {
              "number": 10,
              "ticks": 218988,
              "time": 233.961760725,
              "value": 0.6535433070866141
            },
            {
              "number": 10,
              "ticks": 219004,
              "time": 233.9788547583333,
              "value": 0.6614173228346457
            },
            {
              "number": 10,
              "ticks": 219019,
              "time": 233.99488041458332,
              "value": 0.6692913385826772
            },
            {
              "number": 10,
              "ticks": 219035,
              "time": 234.01197444791666,
              "value": 0.6771653543307087
            },
            {
              "number": 10,
              "ticks": 219050,
              "time": 234.02800010416667,
              "value": 0.6850393700787402
            },
            {
              "number": 10,
              "ticks": 219066,
              "time": 234.04509413749997,
              "value": 0.6929133858267716
            },
            {
              "number": 10,
              "ticks": 219081,
              "time": 234.06111979374998,
              "value": 0.7007874015748031
            },
            {
              "number": 10,
              "ticks": 219097,
              "time": 234.07821382708332,
              "value": 0.7086614173228346
            },
            {
              "number": 10,
              "ticks": 219112,
              "time": 234.09423948333333,
              "value": 0.7165354330708661
            },
            {
              "number": 10,
              "ticks": 219128,
              "time": 234.11133351666663,
              "value": 0.7244094488188977
            },
            {
              "number": 10,
              "ticks": 219143,
              "time": 234.12735917291664,
              "value": 0.7322834645669292
            },
            {
              "number": 10,
              "ticks": 219159,
              "time": 234.14445320625,
              "value": 0.7401574803149606
            },
            {
              "number": 10,
              "ticks": 219174,
              "time": 234.16047886249999,
              "value": 0.7480314960629921
            },
            {
              "number": 10,
              "ticks": 219190,
              "time": 234.17757289583332,
              "value": 0.7559055118110236
            },
            {
              "number": 10,
              "ticks": 219205,
              "time": 234.1935985520833,
              "value": 0.7637795275590551
            },
            {
              "number": 10,
              "ticks": 219221,
              "time": 234.21069258541667,
              "value": 0.7716535433070866
            },
            {
              "number": 10,
              "ticks": 219236,
              "time": 234.22671824166665,
              "value": 0.7795275590551181
            },
            {
              "number": 10,
              "ticks": 219252,
              "time": 234.24381227499998,
              "value": 0.7874015748031497
            },
            {
              "number": 10,
              "ticks": 219267,
              "time": 234.25983793124996,
              "value": 0.7952755905511811
            },
            {
              "number": 10,
              "ticks": 219283,
              "time": 234.27693196458333,
              "value": 0.8031496062992126
            },
            {
              "number": 10,
              "ticks": 219298,
              "time": 234.29295762083333,
              "value": 0.8110236220472441
            },
            {
              "number": 10,
              "ticks": 219314,
              "time": 234.31005165416664,
              "value": 0.8188976377952756
            },
            {
              "number": 10,
              "ticks": 219329,
              "time": 234.32607731041665,
              "value": 0.8267716535433071
            },
            {
              "number": 10,
              "ticks": 219345,
              "time": 234.34317134375,
              "value": 0.8346456692913385
            },
            {
              "number": 10,
              "ticks": 219360,
              "time": 234.359197,
              "value": 0.84251968503937
            },
            {
              "number": 10,
              "ticks": 219376,
              "time": 234.37629103333333,
              "value": 0.8503937007874016
            },
            {
              "number": 10,
              "ticks": 219391,
              "time": 234.39231668958334,
              "value": 0.8582677165354331
            },
            {
              "number": 10,
              "ticks": 219407,
              "time": 234.40941072291665,
              "value": 0.8661417322834646
            },
            {
              "number": 10,
              "ticks": 219422,
              "time": 234.42543637916665,
              "value": 0.8740157480314961
            },
            {
              "number": 10,
              "ticks": 219438,
              "time": 234.4425304125,
              "value": 0.8818897637795275
            },
            {
              "number": 10,
              "ticks": 219453,
              "time": 234.45855606875,
              "value": 0.889763779527559
            },
            {
              "number": 10,
              "ticks": 219469,
              "time": 234.4756501020833,
              "value": 0.8976377952755905
            },
            {
              "number": 10,
              "ticks": 219484,
              "time": 234.49167575833332,
              "value": 0.905511811023622
            },
            {
              "number": 10,
              "ticks": 219500,
              "time": 234.50876979166665,
              "value": 0.9133858267716536
            },
            {
              "number": 10,
              "ticks": 219515,
              "time": 234.52479544791666,
              "value": 0.9212598425196851
            },
            {
              "number": 10,
              "ticks": 219531,
              "time": 234.54188948124997,
              "value": 0.9291338582677166
            },
            {
              "number": 10,
              "ticks": 219546,
              "time": 234.55791513749998,
              "value": 0.937007874015748
            },
            {
              "number": 10,
              "ticks": 219562,
              "time": 234.57500917083334,
              "value": 0.9448818897637795
            },
            {
              "number": 10,
              "ticks": 219577,
              "time": 234.59103482708332,
              "value": 0.952755905511811
            },
            {
              "number": 10,
              "ticks": 219593,
              "time": 234.60812886041666,
              "value": 0.9606299212598425
            },
            {
              "number": 10,
              "ticks": 219608,
              "time": 234.62415451666664,
              "value": 0.968503937007874
            },
            {
              "number": 10,
              "ticks": 219624,
              "time": 234.64124855,
              "value": 0.9763779527559056
            },
            {
              "number": 10,
              "ticks": 219639,
              "time": 234.65727420624998,
              "value": 0.984251968503937
            },
            {
              "number": 10,
              "ticks": 219655,
              "time": 234.67436823958332,
              "value": 0.9921259842519685
            },
            {
              "number": 10,
              "ticks": 219655,
              "time": 234.67436823958332,
              "value": 1
            },
            {
              "number": 10,
              "ticks": 219668,
              "time": 234.68825714166664,
              "value": 0.9921259842519685
            },
            {
              "number": 10,
              "ticks": 219680,
              "time": 234.70107766666666,
              "value": 0.984251968503937
            },
            {
              "number": 10,
              "ticks": 219694,
              "time": 234.71603494583331,
              "value": 0.9763779527559056
            },
            {
              "number": 10,
              "ticks": 219706,
              "time": 234.72885547083334,
              "value": 0.968503937007874
            },
            {
              "number": 10,
              "ticks": 219718,
              "time": 234.74167599583333,
              "value": 0.9606299212598425
            },
            {
              "number": 10,
              "ticks": 219732,
              "time": 234.75663327499998,
              "value": 0.952755905511811
            },
            {
              "number": 10,
              "ticks": 219744,
              "time": 234.76945379999998,
              "value": 0.9448818897637795
            },
            {
              "number": 10,
              "ticks": 219757,
              "time": 234.78334270208333,
              "value": 0.937007874015748
            },
            {
              "number": 10,
              "ticks": 219769,
              "time": 234.79616322708333,
              "value": 0.9291338582677166
            },
            {
              "number": 10,
              "ticks": 219782,
              "time": 234.81005212916665,
              "value": 0.9212598425196851
            },
            {
              "number": 10,
              "ticks": 219795,
              "time": 234.82394103124997,
              "value": 0.9133858267716536
            },
            {
              "number": 10,
              "ticks": 219807,
              "time": 234.83676155624997,
              "value": 0.905511811023622
            },
            {
              "number": 10,
              "ticks": 219821,
              "time": 234.85171883541665,
              "value": 0.8976377952755905
            },
            {
              "number": 10,
              "ticks": 219833,
              "time": 234.86453936041664,
              "value": 0.889763779527559
            },
            {
              "number": 10,
              "ticks": 219845,
              "time": 234.87735988541667,
              "value": 0.8818897637795275
            },
            {
              "number": 10,
              "ticks": 219859,
              "time": 234.89231716458332,
              "value": 0.8740157480314961
            },
            {
              "number": 10,
              "ticks": 219871,
              "time": 234.90513768958334,
              "value": 0.8661417322834646
            },
            {
              "number": 10,
              "ticks": 219884,
              "time": 234.91902659166664,
              "value": 0.8582677165354331
            },
            {
              "number": 10,
              "ticks": 219896,
              "time": 234.93184711666666,
              "value": 0.8503937007874016
            },
            {
              "number": 10,
              "ticks": 219909,
              "time": 234.94573601874998,
              "value": 0.84251968503937
            },
            {
              "number": 10,
              "ticks": 219922,
              "time": 234.95962492083333,
              "value": 0.8346456692913385
            },
            {
              "number": 10,
              "ticks": 219934,
              "time": 234.97244544583333,
              "value": 0.8267716535433071
            },
            {
              "number": 10,
              "ticks": 219948,
              "time": 234.987402725,
              "value": 0.8188976377952756
            },
            {
              "number": 10,
              "ticks": 219960,
              "time": 235.00022324999998,
              "value": 0.8110236220472441
            },
            {
              "number": 10,
              "ticks": 219972,
              "time": 235.01304377499997,
              "value": 0.8031496062992126
            },
            {
              "number": 10,
              "ticks": 219985,
              "time": 235.02693267708332,
              "value": 0.7952755905511811
            },
            {
              "number": 10,
              "ticks": 219998,
              "time": 235.04082157916665,
              "value": 0.7874015748031497
            },
            {
              "number": 10,
              "ticks": 220011,
              "time": 235.05471048124997,
              "value": 0.7795275590551181
            },
            {
              "number": 10,
              "ticks": 220023,
              "time": 235.06753100625,
              "value": 0.7716535433070866
            },
            {
              "number": 10,
              "ticks": 220036,
              "time": 235.08141990833334,
              "value": 0.7637795275590551
            },
            {
              "number": 10,
              "ticks": 220049,
              "time": 235.09530881041664,
              "value": 0.7559055118110236
            },
            {
              "number": 10,
              "ticks": 220061,
              "time": 235.10812933541666,
              "value": 0.7480314960629921
            },
            {
              "number": 10,
              "ticks": 220075,
              "time": 235.12308661458331,
              "value": 0.7401574803149606
            },
            {
              "number": 10,
              "ticks": 220087,
              "time": 235.13590713958334,
              "value": 0.7322834645669292
            },
            {
              "number": 10,
              "ticks": 220099,
              "time": 235.1487276645833,
              "value": 0.7244094488188977
            },
            {
              "number": 10,
              "ticks": 220113,
              "time": 235.16368494374998,
              "value": 0.7165354330708661
            },
            {
              "number": 10,
              "ticks": 220125,
              "time": 235.17650546874998,
              "value": 0.7086614173228346
            },
            {
              "number": 10,
              "ticks": 220138,
              "time": 235.19039437083333,
              "value": 0.7007874015748031
            },
            {
              "number": 10,
              "ticks": 220150,
              "time": 235.2032148958333,
              "value": 0.6929133858267716
            },
            {
              "number": 10,
              "ticks": 220163,
              "time": 235.21710379791665,
              "value": 0.6850393700787402
            },
            {
              "number": 10,
              "ticks": 220176,
              "time": 235.23099269999997,
              "value": 0.6771653543307087
            },
            {
              "number": 10,
              "ticks": 220188,
              "time": 235.243813225,
              "value": 0.6692913385826772
            },
            {
              "number": 10,
              "ticks": 220202,
              "time": 235.25877050416665,
              "value": 0.6614173228346457
            },
            {
              "number": 10,
              "ticks": 220214,
              "time": 235.27159102916664,
              "value": 0.6535433070866141
            },
            {
              "number": 10,
              "ticks": 220226,
              "time": 235.28441155416667,
              "value": 0.6456692913385826
            },
            {
              "number": 10,
              "ticks": 220240,
              "time": 235.29936883333332,
              "value": 0.6377952755905512
            },
            {
              "number": 10,
              "ticks": 220252,
              "time": 235.31218935833334,
              "value": 0.6299212598425197
            },
            {
              "number": 10,
              "ticks": 220265,
              "time": 235.32607826041666,
              "value": 0.6220472440944882
            },
            {
              "number": 10,
              "ticks": 220277,
              "time": 235.33889878541666,
              "value": 0.6141732283464567
            },
            {
              "number": 10,
              "ticks": 220290,
              "time": 235.35278768749998,
              "value": 0.6062992125984252
            },
            {
              "number": 10,
              "ticks": 220303,
              "time": 235.36667658958334,
              "value": 0.5984251968503937
            },
            {
              "number": 10,
              "ticks": 220315,
              "time": 235.3794971145833,
              "value": 0.5905511811023622
            },
            {
              "number": 10,
              "ticks": 220329,
              "time": 235.39445439374998,
              "value": 0.5826771653543307
            },
            {
              "number": 10,
              "ticks": 220341,
              "time": 235.40727491874998,
              "value": 0.5748031496062992
            },
            {
              "number": 10,
              "ticks": 220353,
              "time": 235.42009544375,
              "value": 0.5669291338582677
            },
            {
              "number": 10,
              "ticks": 220367,
              "time": 235.43505272291665,
              "value": 0.5590551181102362
            },
            {
              "number": 10,
              "ticks": 220379,
              "time": 235.44787324791665,
              "value": 0.5511811023622047
            },
            {
              "number": 10,
              "ticks": 220392,
              "time": 235.46176214999997,
              "value": 0.5433070866141733
            },
            {
              "number": 10,
              "ticks": 220404,
              "time": 235.474582675,
              "value": 0.5354330708661418
            },
            {
              "number": 10,
              "ticks": 220417,
              "time": 235.48847157708332,
              "value": 0.5275590551181102
            },
            {
              "number": 10,
              "ticks": 220430,
              "time": 235.50236047916667,
              "value": 0.5196850393700787
            },
            {
              "number": 10,
              "ticks": 220442,
              "time": 235.51518100416666,
              "value": 0.5118110236220472
            },
            {
              "number": 10,
              "ticks": 220455,
              "time": 235.52906990625,
              "value": 0.5039370078740157
            },
            {
              "number": 10,
              "ticks": 220455,
              "time": 235.52906990625,
              "value": 0.5039370078740157
            },
            {
              "number": 10,
              "ticks": 220652,
              "time": 235.73954019166666,
              "value": 0.49606299212598426
            },
            {
              "number": 10,
              "ticks": 220848,
              "time": 235.9489421,
              "value": 0.4881889763779528
            },
            {
              "number": 10,
              "ticks": 221046,
              "time": 236.1604807625,
              "value": 0.48031496062992124
            },
            {
              "number": 10,
              "ticks": 221242,
              "time": 236.36988267083333,
              "value": 0.47244094488188976
            },
            {
              "number": 10,
              "ticks": 221439,
              "time": 236.58035295624998,
              "value": 0.4645669291338583
            },
            {
              "number": 10,
              "ticks": 221635,
              "time": 236.7897548645833,
              "value": 0.4566929133858268
            },
            {
              "number": 10,
              "ticks": 221833,
              "time": 237.00129352708333,
              "value": 0.44881889763779526
            },
            {
              "number": 10,
              "ticks": 222029,
              "time": 237.21069543541665,
              "value": 0.4409448818897638
            },
            {
              "number": 10,
              "ticks": 222225,
              "time": 237.42009734374997,
              "value": 0.4330708661417323
            },
            {
              "number": 10,
              "ticks": 222423,
              "time": 237.63163600625,
              "value": 0.4251968503937008
            },
            {
              "number": 10,
              "ticks": 222619,
              "time": 237.84103791458332,
              "value": 0.41732283464566927
            },
            {
              "number": 10,
              "ticks": 222816,
              "time": 238.05150819999997,
              "value": 0.4094488188976378
            },
            {
              "number": 10,
              "ticks": 223012,
              "time": 238.26091010833332,
              "value": 0.4015748031496063
            },
            {
              "number": 10,
              "ticks": 223210,
              "time": 238.47244877083332,
              "value": 0.3937007874015748
            },
            {
              "number": 10,
              "ticks": 223406,
              "time": 238.68185067916664,
              "value": 0.3858267716535433
            },
            {
              "number": 10,
              "ticks": 223603,
              "time": 238.89232096458332,
              "value": 0.3779527559055118
            },
            {
              "number": 10,
              "ticks": 223799,
              "time": 239.10172287291664,
              "value": 0.3700787401574803
            },
            {
              "number": 10,
              "ticks": 223996,
              "time": 239.31219315833334,
              "value": 0.36220472440944884
            },
            {
              "number": 10,
              "ticks": 224193,
              "time": 239.52266344375,
              "value": 0.3543307086614173
            },
            {
              "number": 10,
              "ticks": 224389,
              "time": 239.7320653520833,
              "value": 0.3464566929133858
            },
            {
              "number": 10,
              "ticks": 224587,
              "time": 239.94360401458331,
              "value": 0.33858267716535434
            },
            {
              "number": 10,
              "ticks": 224783,
              "time": 240.15300592291663,
              "value": 0.33070866141732286
            },
            {
              "number": 10,
              "ticks": 224980,
              "time": 240.3634762083333,
              "value": 0.3228346456692913
            },
            {
              "number": 10,
              "ticks": 225176,
              "time": 240.57287811666666,
              "value": 0.31496062992125984
            },
            {
              "number": 10,
              "ticks": 225373,
              "time": 240.78334840208333,
              "value": 0.30708661417322836
            },
            {
              "number": 10,
              "ticks": 225570,
              "time": 240.99381868749998,
              "value": 0.2992125984251969
            },
            {
              "number": 10,
              "ticks": 225766,
              "time": 241.20322059583333,
              "value": 0.29133858267716534
            },
            {
              "number": 10,
              "ticks": 225964,
              "time": 241.4147592583333,
              "value": 0.28346456692913385
            },
            {
              "number": 10,
              "ticks": 226160,
              "time": 241.62416116666665,
              "value": 0.2755905511811024
            },
            {
              "number": 10,
              "ticks": 226357,
              "time": 241.83463145208333,
              "value": 0.2677165354330709
            },
            {
              "number": 10,
              "ticks": 226553,
              "time": 242.04403336041665,
              "value": 0.25984251968503935
            },
            {
              "number": 10,
              "ticks": 226750,
              "time": 242.2545036458333,
              "value": 0.25196850393700787
            },
            {
              "number": 10,
              "ticks": 226947,
              "time": 242.46497393124997,
              "value": 0.2440944881889764
            },
            {
              "number": 10,
              "ticks": 227143,
              "time": 242.67437583958332,
              "value": 0.23622047244094488
            },
            {
              "number": 10,
              "ticks": 227340,
              "time": 242.884846125,
              "value": 0.2283464566929134
            },
            {
              "number": 10,
              "ticks": 227537,
              "time": 243.09531641041664,
              "value": 0.2204724409448819
            },
            {
              "number": 10,
              "ticks": 227734,
              "time": 243.30578669583332,
              "value": 0.2125984251968504
            },
            {
              "number": 10,
              "ticks": 227930,
              "time": 243.51518860416667,
              "value": 0.2047244094488189
            },
            {
              "number": 10,
              "ticks": 228127,
              "time": 243.72565888958331,
              "value": 0.1968503937007874
            },
            {
              "number": 10,
              "ticks": 228324,
              "time": 243.936129175,
              "value": 0.1889763779527559
            },
            {
              "number": 10,
              "ticks": 228520,
              "time": 244.1455310833333,
              "value": 0.18110236220472442
            },
            {
              "number": 10,
              "ticks": 228718,
              "time": 244.35706974583331,
              "value": 0.1732283464566929
            },
            {
              "number": 10,
              "ticks": 228914,
              "time": 244.56647165416663,
              "value": 0.16535433070866143
            },
            {
              "number": 10,
              "ticks": 229111,
              "time": 244.77694193958334,
              "value": 0.15748031496062992
            },
            {
              "number": 10,
              "ticks": 229307,
              "time": 244.98634384791666,
              "value": 0.14960629921259844
            },
            {
              "number": 10,
              "ticks": 229505,
              "time": 245.19788251041666,
              "value": 0.14173228346456693
            },
            {
              "number": 10,
              "ticks": 229701,
              "time": 245.40728441874998,
              "value": 0.13385826771653545
            },
            {
              "number": 10,
              "ticks": 229898,
              "time": 245.61775470416666,
              "value": 0.12598425196850394
            },
            {
              "number": 10,
              "ticks": 230094,
              "time": 245.8271566125,
              "value": 0.11811023622047244
            },
            {
              "number": 10,
              "ticks": 230291,
              "time": 246.03762689791665,
              "value": 0.11023622047244094
            },
            {
              "number": 10,
              "ticks": 230488,
              "time": 246.24809718333333,
              "value": 0.10236220472440945
            },
            {
              "number": 10,
              "ticks": 230684,
              "time": 246.45749909166665,
              "value": 0.09448818897637795
            },
            {
              "number": 10,
              "ticks": 230882,
              "time": 246.66903775416665,
              "value": 0.08661417322834646
            },
            {
              "number": 10,
              "ticks": 231078,
              "time": 246.8784396625,
              "value": 0.07874015748031496
            },
            {
              "number": 10,
              "ticks": 231275,
              "time": 247.08890994791668,
              "value": 0.07086614173228346
            },
            {
              "number": 10,
              "ticks": 231471,
              "time": 247.29831185624997,
              "value": 0.06299212598425197
            },
            {
              "number": 10,
              "ticks": 231668,
              "time": 247.50878214166664,
              "value": 0.05511811023622047
            },
            {
              "number": 10,
              "ticks": 231865,
              "time": 247.71925242708332,
              "value": 0.047244094488188976
            },
            {
              "number": 10,
              "ticks": 232061,
              "time": 247.92865433541667,
              "value": 0.03937007874015748
            },
            {
              "number": 10,
              "ticks": 232259,
              "time": 248.14019299791664,
              "value": 0.031496062992125984
            },
            {
              "number": 10,
              "ticks": 232455,
              "time": 248.34959490625,
              "value": 0.023622047244094488
            },
            {
              "number": 10,
              "ticks": 232652,
              "time": 248.56006519166664,
              "value": 0.015748031496062992
            },
            {
              "number": 10,
              "ticks": 232848,
              "time": 248.76946709999999,
              "value": 0.007874015748031496
            },
            {
              "number": 10,
              "ticks": 233045,
              "time": 248.97993738541666,
              "value": 0
            },
            {
              "number": 10,
              "ticks": 233061,
              "time": 248.99703141874997,
              "value": 0
            },
            {
              "number": 10,
              "ticks": 233076,
              "time": 249.01305707499998,
              "value": 0.007874015748031496
            },
            {
              "number": 10,
              "ticks": 233092,
              "time": 249.0301511083333,
              "value": 0.015748031496062992
            },
            {
              "number": 10,
              "ticks": 233107,
              "time": 249.04617676458332,
              "value": 0.023622047244094488
            },
            {
              "number": 10,
              "ticks": 233123,
              "time": 249.06327079791666,
              "value": 0.031496062992125984
            },
            {
              "number": 10,
              "ticks": 233138,
              "time": 249.07929645416664,
              "value": 0.03937007874015748
            },
            {
              "number": 10,
              "ticks": 233154,
              "time": 249.0963904875,
              "value": 0.047244094488188976
            },
            {
              "number": 10,
              "ticks": 233169,
              "time": 249.11241614374998,
              "value": 0.05511811023622047
            },
            {
              "number": 10,
              "ticks": 233185,
              "time": 249.12951017708332,
              "value": 0.06299212598425197
            },
            {
              "number": 10,
              "ticks": 233200,
              "time": 249.1455358333333,
              "value": 0.07086614173228346
            },
            {
              "number": 10,
              "ticks": 233216,
              "time": 249.16262986666666,
              "value": 0.07874015748031496
            },
            {
              "number": 10,
              "ticks": 233231,
              "time": 249.17865552291664,
              "value": 0.08661417322834646
            },
            {
              "number": 10,
              "ticks": 233247,
              "time": 249.19574955624998,
              "value": 0.09448818897637795
            },
            {
              "number": 10,
              "ticks": 233262,
              "time": 249.2117752125,
              "value": 0.10236220472440945
            },
            {
              "number": 10,
              "ticks": 233278,
              "time": 249.22886924583332,
              "value": 0.11023622047244094
            },
            {
              "number": 10,
              "ticks": 233293,
              "time": 249.24489490208333,
              "value": 0.11811023622047244
            },
            {
              "number": 10,
              "ticks": 233309,
              "time": 249.26198893541664,
              "value": 0.12598425196850394
            },
            {
              "number": 10,
              "ticks": 233324,
              "time": 249.27801459166665,
              "value": 0.13385826771653545
            },
            {
              "number": 10,
              "ticks": 233340,
              "time": 249.29510862499998,
              "value": 0.14173228346456693
            },
            {
              "number": 10,
              "ticks": 233355,
              "time": 249.31113428125,
              "value": 0.14960629921259844
            },
            {
              "number": 10,
              "ticks": 233371,
              "time": 249.32822831458333,
              "value": 0.15748031496062992
            },
            {
              "number": 10,
              "ticks": 233386,
              "time": 249.34425397083334,
              "value": 0.16535433070866143
            },
            {
              "number": 10,
              "ticks": 233402,
              "time": 249.36134800416664,
              "value": 0.1732283464566929
            },
            {
              "number": 10,
              "ticks": 233417,
              "time": 249.37737366041665,
              "value": 0.18110236220472442
            },
            {
              "number": 10,
              "ticks": 233433,
              "time": 249.39446769375,
              "value": 0.1889763779527559
            },
            {
              "number": 10,
              "ticks": 233448,
              "time": 249.41049335,
              "value": 0.1968503937007874
            },
            {
              "number": 10,
              "ticks": 233464,
              "time": 249.4275873833333,
              "value": 0.2047244094488189
            },
            {
              "number": 10,
              "ticks": 233479,
              "time": 249.4436130395833,
              "value": 0.2125984251968504
            },
            {
              "number": 10,
              "ticks": 233495,
              "time": 249.46070707291668,
              "value": 0.2204724409448819
            },
            {
              "number": 10,
              "ticks": 233510,
              "time": 249.47673272916666,
              "value": 0.2283464566929134
            },
            {
              "number": 10,
              "ticks": 233526,
              "time": 249.4938267625,
              "value": 0.23622047244094488
            },
            {
              "number": 10,
              "ticks": 233541,
              "time": 249.50985241874997,
              "value": 0.2440944881889764
            },
            {
              "number": 10,
              "ticks": 233557,
              "time": 249.52694645208334,
              "value": 0.25196850393700787
            },
            {
              "number": 10,
              "ticks": 233572,
              "time": 249.54297210833332,
              "value": 0.25984251968503935
            },
            {
              "number": 10,
              "ticks": 233588,
              "time": 249.56006614166665,
              "value": 0.2677165354330709
            },
            {
              "number": 10,
              "ticks": 233603,
              "time": 249.57609179791663,
              "value": 0.2755905511811024
            },
            {
              "number": 10,
              "ticks": 233619,
              "time": 249.59318583125,
              "value": 0.28346456692913385
            },
            {
              "number": 10,
              "ticks": 233634,
              "time": 249.6092114875,
              "value": 0.29133858267716534
            },
            {
              "number": 10,
              "ticks": 233650,
              "time": 249.6263055208333,
              "value": 0.2992125984251969
            },
            {
              "number": 10,
              "ticks": 233665,
              "time": 249.64233117708332,
              "value": 0.30708661417322836
            },
            {
              "number": 10,
              "ticks": 233681,
              "time": 249.65942521041666,
              "value": 0.31496062992125984
            },
            {
              "number": 10,
              "ticks": 233696,
              "time": 249.67545086666667,
              "value": 0.3228346456692913
            },
            {
              "number": 10,
              "ticks": 233713,
              "time": 249.69361327708333,
              "value": 0.33070866141732286
            },
            {
              "number": 10,
              "ticks": 233728,
              "time": 249.7096389333333,
              "value": 0.33858267716535434
            },
            {
              "number": 10,
              "ticks": 233743,
              "time": 249.72566458958332,
              "value": 0.3464566929133858
            },
            {
              "number": 10,
              "ticks": 233759,
              "time": 249.74275862291663,
              "value": 0.3543307086614173
            },
            {
              "number": 10,
              "ticks": 233774,
              "time": 249.75878427916663,
              "value": 0.36220472440944884
            },
            {
              "number": 10,
              "ticks": 233790,
              "time": 249.7758783125,
              "value": 0.3700787401574803
            },
            {
              "number": 10,
              "ticks": 233805,
              "time": 249.79190396874998,
              "value": 0.3779527559055118
            },
            {
              "number": 10,
              "ticks": 233821,
              "time": 249.80899800208334,
              "value": 0.3858267716535433
            },
            {
              "number": 10,
              "ticks": 233836,
              "time": 249.82502365833332,
              "value": 0.3937007874015748
            },
            {
              "number": 10,
              "ticks": 233852,
              "time": 249.84211769166666,
              "value": 0.4015748031496063
            },
            {
              "number": 10,
              "ticks": 233867,
              "time": 249.85814334791664,
              "value": 0.4094488188976378
            },
            {
              "number": 10,
              "ticks": 233883,
              "time": 249.87523738125,
              "value": 0.41732283464566927
            },
            {
              "number": 10,
              "ticks": 233898,
              "time": 249.8912630375,
              "value": 0.4251968503937008
            },
            {
              "number": 10,
              "ticks": 233914,
              "time": 249.90835707083332,
              "value": 0.4330708661417323
            },
            {
              "number": 10,
              "ticks": 233929,
              "time": 249.92438272708333,
              "value": 0.4409448818897638
            },
            {
              "number": 10,
              "ticks": 233945,
              "time": 249.94147676041666,
              "value": 0.44881889763779526
            },
            {
              "number": 10,
              "ticks": 233960,
              "time": 249.95750241666667,
              "value": 0.4566929133858268
            },
            {
              "number": 10,
              "ticks": 233976,
              "time": 249.97459644999998,
              "value": 0.4645669291338583
            },
            {
              "number": 10,
              "ticks": 233991,
              "time": 249.99062210625,
              "value": 0.47244094488188976
            },
            {
              "number": 10,
              "ticks": 234007,
              "time": 250.00771613958332,
              "value": 0.48031496062992124
            },
            {
              "number": 10,
              "ticks": 234022,
              "time": 250.02374179583333,
              "value": 0.4881889763779528
            },
            {
              "number": 10,
              "ticks": 234038,
              "time": 250.04083582916664,
              "value": 0.49606299212598426
            },
            {
              "number": 10,
              "ticks": 234053,
              "time": 250.05686148541665,
              "value": 0.5039370078740157
            },
            {
              "number": 10,
              "ticks": 234069,
              "time": 250.07395551874998,
              "value": 0.5118110236220472
            },
            {
              "number": 10,
              "ticks": 234084,
              "time": 250.089981175,
              "value": 0.5196850393700787
            },
            {
              "number": 10,
              "ticks": 234100,
              "time": 250.1070752083333,
              "value": 0.5275590551181102
            },
            {
              "number": 10,
              "ticks": 234115,
              "time": 250.1231008645833,
              "value": 0.5354330708661418
            },
            {
              "number": 10,
              "ticks": 234131,
              "time": 250.14019489791664,
              "value": 0.5433070866141733
            },
            {
              "number": 10,
              "ticks": 234146,
              "time": 250.15622055416665,
              "value": 0.5511811023622047
            },
            {
              "number": 10,
              "ticks": 234162,
              "time": 250.1733145875,
              "value": 0.5590551181102362
            },
            {
              "number": 10,
              "ticks": 234177,
              "time": 250.18934024374997,
              "value": 0.5669291338582677
            },
            {
              "number": 10,
              "ticks": 234193,
              "time": 250.20643427708333,
              "value": 0.5748031496062992
            },
            {
              "number": 10,
              "ticks": 234208,
              "time": 250.2224599333333,
              "value": 0.5826771653543307
            },
            {
              "number": 10,
              "ticks": 234224,
              "time": 250.23955396666665,
              "value": 0.5905511811023622
            },
            {
              "number": 10,
              "ticks": 234239,
              "time": 250.25557962291663,
              "value": 0.5984251968503937
            },
            {
              "number": 10,
              "ticks": 234255,
              "time": 250.27267365625,
              "value": 0.6062992125984252
            },
            {
              "number": 10,
              "ticks": 234270,
              "time": 250.28869931249997,
              "value": 0.6141732283464567
            },
            {
              "number": 10,
              "ticks": 234286,
              "time": 250.30579334583334,
              "value": 0.6220472440944882
            },
            {
              "number": 10,
              "ticks": 234301,
              "time": 250.32181900208334,
              "value": 0.6299212598425197
            },
            {
              "number": 10,
              "ticks": 234317,
              "time": 250.33891303541665,
              "value": 0.6377952755905512
            },
            {
              "number": 10,
              "ticks": 234332,
              "time": 250.35493869166666,
              "value": 0.6456692913385826
            },
            {
              "number": 10,
              "ticks": 234348,
              "time": 250.372032725,
              "value": 0.6535433070866141
            },
            {
              "number": 10,
              "ticks": 234364,
              "time": 250.3891267583333,
              "value": 0.6614173228346457
            },
            {
              "number": 10,
              "ticks": 234379,
              "time": 250.4051524145833,
              "value": 0.6692913385826772
            },
            {
              "number": 10,
              "ticks": 234395,
              "time": 250.42224644791665,
              "value": 0.6771653543307087
            },
            {
              "number": 10,
              "ticks": 234410,
              "time": 250.43827210416666,
              "value": 0.6850393700787402
            },
            {
              "number": 10,
              "ticks": 234426,
              "time": 250.4553661375,
              "value": 0.6929133858267716
            },
            {
              "number": 10,
              "ticks": 234441,
              "time": 250.47139179374997,
              "value": 0.7007874015748031
            },
            {
              "number": 10,
              "ticks": 234457,
              "time": 250.48848582708334,
              "value": 0.7086614173228346
            },
            {
              "number": 10,
              "ticks": 234472,
              "time": 250.50451148333332,
              "value": 0.7165354330708661
            },
            {
              "number": 10,
              "ticks": 234488,
              "time": 250.52160551666665,
              "value": 0.7244094488188977
            },
            {
              "number": 10,
              "ticks": 234503,
              "time": 250.53763117291663,
              "value": 0.7322834645669292
            },
            {
              "number": 10,
              "ticks": 234519,
              "time": 250.55472520625,
              "value": 0.7401574803149606
            },
            {
              "number": 10,
              "ticks": 234534,
              "time": 250.5707508625,
              "value": 0.7480314960629921
            },
            {
              "number": 10,
              "ticks": 234550,
              "time": 250.5878448958333,
              "value": 0.7559055118110236
            },
            {
              "number": 10,
              "ticks": 234565,
              "time": 250.60387055208332,
              "value": 0.7637795275590551
            },
            {
              "number": 10,
              "ticks": 234581,
              "time": 250.62096458541666,
              "value": 0.7716535433070866
            },
            {
              "number": 10,
              "ticks": 234596,
              "time": 250.63699024166667,
              "value": 0.7795275590551181
            },
            {
              "number": 10,
              "ticks": 234612,
              "time": 250.65408427499997,
              "value": 0.7874015748031497
            },
            {
              "number": 10,
              "ticks": 234627,
              "time": 250.67010993124998,
              "value": 0.7952755905511811
            },
            {
              "number": 10,
              "ticks": 234643,
              "time": 250.68720396458332,
              "value": 0.8031496062992126
            },
            {
              "number": 10,
              "ticks": 234658,
              "time": 250.70322962083333,
              "value": 0.8110236220472441
            },
            {
              "number": 10,
              "ticks": 234674,
              "time": 250.72032365416663,
              "value": 0.8188976377952756
            },
            {
              "number": 10,
              "ticks": 234689,
              "time": 250.73634931041664,
              "value": 0.8267716535433071
            },
            {
              "number": 10,
              "ticks": 234705,
              "time": 250.75344334374998,
              "value": 0.8346456692913385
            },
            {
              "number": 10,
              "ticks": 234720,
              "time": 250.769469,
              "value": 0.84251968503937
            },
            {
              "number": 10,
              "ticks": 234736,
              "time": 250.78656303333332,
              "value": 0.8503937007874016
            },
            {
              "number": 10,
              "ticks": 234751,
              "time": 250.80258868958333,
              "value": 0.8582677165354331
            },
            {
              "number": 10,
              "ticks": 234767,
              "time": 250.81968272291664,
              "value": 0.8661417322834646
            },
            {
              "number": 10,
              "ticks": 234782,
              "time": 250.83570837916665,
              "value": 0.8740157480314961
            },
            {
              "number": 10,
              "ticks": 234798,
              "time": 250.8528024125,
              "value": 0.8818897637795275
            },
            {
              "number": 10,
              "ticks": 234813,
              "time": 250.86882806875,
              "value": 0.889763779527559
            },
            {
              "number": 10,
              "ticks": 234829,
              "time": 250.88592210208333,
              "value": 0.8976377952755905
            },
            {
              "number": 10,
              "ticks": 234844,
              "time": 250.9019477583333,
              "value": 0.905511811023622
            },
            {
              "number": 10,
              "ticks": 234860,
              "time": 250.91904179166667,
              "value": 0.9133858267716536
            },
            {
              "number": 10,
              "ticks": 234875,
              "time": 250.93506744791665,
              "value": 0.9212598425196851
            },
            {
              "number": 10,
              "ticks": 234891,
              "time": 250.95216148125,
              "value": 0.9291338582677166
            },
            {
              "number": 10,
              "ticks": 234906,
              "time": 250.96818713749997,
              "value": 0.937007874015748
            },
            {
              "number": 10,
              "ticks": 234922,
              "time": 250.98528117083333,
              "value": 0.9448818897637795
            },
            {
              "number": 10,
              "ticks": 234937,
              "time": 251.00130682708334,
              "value": 0.952755905511811
            },
            {
              "number": 10,
              "ticks": 234953,
              "time": 251.01840086041665,
              "value": 0.9606299212598425
            },
            {
              "number": 10,
              "ticks": 234968,
              "time": 251.03442651666666,
              "value": 0.968503937007874
            },
            {
              "number": 10,
              "ticks": 234984,
              "time": 251.05152055,
              "value": 0.9763779527559056
            },
            {
              "number": 10,
              "ticks": 234999,
              "time": 251.06754620625,
              "value": 0.984251968503937
            },
            {
              "number": 10,
              "ticks": 235015,
              "time": 251.0846402395833,
              "value": 0.9921259842519685
            },
            {
              "number": 10,
              "ticks": 235015,
              "time": 251.0846402395833,
              "value": 1
            },
            {
              "number": 10,
              "ticks": 235028,
              "time": 251.09852914166663,
              "value": 0.9921259842519685
            },
            {
              "number": 10,
              "ticks": 235040,
              "time": 251.11134966666665,
              "value": 0.984251968503937
            },
            {
              "number": 10,
              "ticks": 235054,
              "time": 251.1263069458333,
              "value": 0.9763779527559056
            },
            {
              "number": 10,
              "ticks": 235066,
              "time": 251.13912747083333,
              "value": 0.968503937007874
            },
            {
              "number": 10,
              "ticks": 235078,
              "time": 251.15194799583332,
              "value": 0.9606299212598425
            },
            {
              "number": 10,
              "ticks": 235092,
              "time": 251.16690527499998,
              "value": 0.952755905511811
            },
            {
              "number": 10,
              "ticks": 235104,
              "time": 251.1797258,
              "value": 0.9448818897637795
            },
            {
              "number": 10,
              "ticks": 235117,
              "time": 251.19361470208332,
              "value": 0.937007874015748
            },
            {
              "number": 10,
              "ticks": 235129,
              "time": 251.20643522708332,
              "value": 0.9291338582677166
            },
            {
              "number": 10,
              "ticks": 235142,
              "time": 251.22032412916664,
              "value": 0.9212598425196851
            },
            {
              "number": 10,
              "ticks": 235155,
              "time": 251.23421303125,
              "value": 0.9133858267716536
            },
            {
              "number": 10,
              "ticks": 235167,
              "time": 251.24703355625,
              "value": 0.905511811023622
            },
            {
              "number": 10,
              "ticks": 235181,
              "time": 251.26199083541667,
              "value": 0.8976377952755905
            },
            {
              "number": 10,
              "ticks": 235193,
              "time": 251.27481136041663,
              "value": 0.889763779527559
            },
            {
              "number": 10,
              "ticks": 235205,
              "time": 251.28763188541666,
              "value": 0.8818897637795275
            },
            {
              "number": 10,
              "ticks": 235219,
              "time": 251.3025891645833,
              "value": 0.8740157480314961
            },
            {
              "number": 10,
              "ticks": 235231,
              "time": 251.31540968958333,
              "value": 0.8661417322834646
            },
            {
              "number": 10,
              "ticks": 235244,
              "time": 251.32929859166663,
              "value": 0.8582677165354331
            },
            {
              "number": 10,
              "ticks": 235256,
              "time": 251.34211911666665,
              "value": 0.8503937007874016
            },
            {
              "number": 10,
              "ticks": 235269,
              "time": 251.35600801875,
              "value": 0.84251968503937
            },
            {
              "number": 10,
              "ticks": 235282,
              "time": 251.36989692083333,
              "value": 0.8346456692913385
            },
            {
              "number": 10,
              "ticks": 235294,
              "time": 251.38271744583332,
              "value": 0.8267716535433071
            },
            {
              "number": 10,
              "ticks": 235308,
              "time": 251.397674725,
              "value": 0.8188976377952756
            },
            {
              "number": 10,
              "ticks": 235320,
              "time": 251.41049525,
              "value": 0.8110236220472441
            },
            {
              "number": 10,
              "ticks": 235332,
              "time": 251.42331577499996,
              "value": 0.8031496062992126
            },
            {
              "number": 10,
              "ticks": 235345,
              "time": 251.43720467708332,
              "value": 0.7952755905511811
            },
            {
              "number": 10,
              "ticks": 235358,
              "time": 251.45109357916664,
              "value": 0.7874015748031497
            },
            {
              "number": 10,
              "ticks": 235371,
              "time": 251.46498248125,
              "value": 0.7795275590551181
            },
            {
              "number": 10,
              "ticks": 235383,
              "time": 251.47780300624999,
              "value": 0.7716535433070866
            },
            {
              "number": 10,
              "ticks": 235396,
              "time": 251.49169190833334,
              "value": 0.7637795275590551
            },
            {
              "number": 10,
              "ticks": 235409,
              "time": 251.50558081041663,
              "value": 0.7559055118110236
            },
            {
              "number": 10,
              "ticks": 235421,
              "time": 251.51840133541666,
              "value": 0.7480314960629921
            },
            {
              "number": 10,
              "ticks": 235435,
              "time": 251.5333586145833,
              "value": 0.7401574803149606
            },
            {
              "number": 10,
              "ticks": 235447,
              "time": 251.54617913958333,
              "value": 0.7322834645669292
            },
            {
              "number": 10,
              "ticks": 235459,
              "time": 251.55899966458333,
              "value": 0.7244094488188977
            },
            {
              "number": 10,
              "ticks": 235473,
              "time": 251.57395694375,
              "value": 0.7165354330708661
            },
            {
              "number": 10,
              "ticks": 235485,
              "time": 251.58677746874997,
              "value": 0.7086614173228346
            },
            {
              "number": 10,
              "ticks": 235498,
              "time": 251.60066637083332,
              "value": 0.7007874015748031
            },
            {
              "number": 10,
              "ticks": 235510,
              "time": 251.61348689583332,
              "value": 0.6929133858267716
            },
            {
              "number": 10,
              "ticks": 235523,
              "time": 251.62737579791664,
              "value": 0.6850393700787402
            },
            {
              "number": 10,
              "ticks": 235536,
              "time": 251.6412647,
              "value": 0.6771653543307087
            },
            {
              "number": 10,
              "ticks": 235548,
              "time": 251.654085225,
              "value": 0.6692913385826772
            },
            {
              "number": 10,
              "ticks": 235562,
              "time": 251.66904250416664,
              "value": 0.6614173228346457
            },
            {
              "number": 10,
              "ticks": 235574,
              "time": 251.68186302916664,
              "value": 0.6535433070866141
            },
            {
              "number": 10,
              "ticks": 235586,
              "time": 251.69468355416666,
              "value": 0.6456692913385826
            },
            {
              "number": 10,
              "ticks": 235600,
              "time": 251.7096408333333,
              "value": 0.6377952755905512
            },
            {
              "number": 10,
              "ticks": 235612,
              "time": 251.72246135833333,
              "value": 0.6299212598425197
            },
            {
              "number": 10,
              "ticks": 235625,
              "time": 251.73635026041666,
              "value": 0.6220472440944882
            },
            {
              "number": 10,
              "ticks": 235637,
              "time": 251.74917078541665,
              "value": 0.6141732283464567
            },
            {
              "number": 10,
              "ticks": 235650,
              "time": 251.76305968749998,
              "value": 0.6062992125984252
            },
            {
              "number": 10,
              "ticks": 235663,
              "time": 251.77694858958333,
              "value": 0.5984251968503937
            },
            {
              "number": 10,
              "ticks": 235675,
              "time": 251.78976911458332,
              "value": 0.5905511811023622
            },
            {
              "number": 10,
              "ticks": 235689,
              "time": 251.80472639375,
              "value": 0.5826771653543307
            },
            {
              "number": 10,
              "ticks": 235701,
              "time": 251.81754691874997,
              "value": 0.5748031496062992
            },
            {
              "number": 10,
              "ticks": 235713,
              "time": 251.83036744375,
              "value": 0.5669291338582677
            },
            {
              "number": 10,
              "ticks": 235727,
              "time": 251.84532472291664,
              "value": 0.5590551181102362
            },
            {
              "number": 10,
              "ticks": 235739,
              "time": 251.85814524791664,
              "value": 0.5511811023622047
            },
            {
              "number": 10,
              "ticks": 235752,
              "time": 251.87203414999996,
              "value": 0.5433070866141733
            },
            {
              "number": 10,
              "ticks": 235764,
              "time": 251.88485467499999,
              "value": 0.5354330708661418
            },
            {
              "number": 10,
              "ticks": 235777,
              "time": 251.89874357708334,
              "value": 0.5275590551181102
            },
            {
              "number": 10,
              "ticks": 235790,
              "time": 251.91263247916666,
              "value": 0.5196850393700787
            },
            {
              "number": 10,
              "ticks": 235802,
              "time": 251.92545300416666,
              "value": 0.5118110236220472
            },
            {
              "number": 10,
              "ticks": 235815,
              "time": 251.93934190624998,
              "value": 0.5039370078740157
            },
            {
              "number": 10,
              "ticks": 235815,
              "time": 251.93934190624998,
              "value": 0.5039370078740157
            },
            {
              "number": 10,
              "ticks": 235892,
              "time": 252.02160694166665,
              "value": 0.49606299212598426
            },
            {
              "number": 10,
              "ticks": 235968,
              "time": 252.1028036,
              "value": 0.4881889763779528
            },
            {
              "number": 10,
              "ticks": 236046,
              "time": 252.18613701249998,
              "value": 0.48031496062992124
            },
            {
              "number": 10,
              "ticks": 236122,
              "time": 252.26733367083332,
              "value": 0.47244094488188976
            },
            {
              "number": 10,
              "ticks": 236199,
              "time": 252.34959870625,
              "value": 0.4645669291338583
            },
            {
              "number": 10,
              "ticks": 236275,
              "time": 252.4307953645833,
              "value": 0.4566929133858268
            },
            {
              "number": 10,
              "ticks": 236353,
              "time": 252.51412877708333,
              "value": 0.44881889763779526
            },
            {
              "number": 10,
              "ticks": 236429,
              "time": 252.59532543541664,
              "value": 0.4409448818897638
            },
            {
              "number": 10,
              "ticks": 236505,
              "time": 252.67652209374998,
              "value": 0.4330708661417323
            },
            {
              "number": 10,
              "ticks": 236583,
              "time": 252.75985550625,
              "value": 0.4251968503937008
            },
            {
              "number": 10,
              "ticks": 236659,
              "time": 252.84105216458332,
              "value": 0.41732283464566927
            },
            {
              "number": 10,
              "ticks": 236736,
              "time": 252.92331719999999,
              "value": 0.4094488188976378
            },
            {
              "number": 10,
              "ticks": 236812,
              "time": 253.00451385833333,
              "value": 0.4015748031496063
            },
            {
              "number": 10,
              "ticks": 236890,
              "time": 253.08784727083332,
              "value": 0.3937007874015748
            },
            {
              "number": 10,
              "ticks": 236966,
              "time": 253.16904392916666,
              "value": 0.3858267716535433
            },
            {
              "number": 10,
              "ticks": 237043,
              "time": 253.25130896458333,
              "value": 0.3779527559055118
            },
            {
              "number": 10,
              "ticks": 237119,
              "time": 253.33250562291664,
              "value": 0.3700787401574803
            },
            {
              "number": 10,
              "ticks": 237196,
              "time": 253.41477065833334,
              "value": 0.36220472440944884
            },
            {
              "number": 10,
              "ticks": 237273,
              "time": 253.49703569375,
              "value": 0.3543307086614173
            },
            {
              "number": 10,
              "ticks": 237349,
              "time": 253.57823235208332,
              "value": 0.3464566929133858
            },
            {
              "number": 10,
              "ticks": 237427,
              "time": 253.66156576458332,
              "value": 0.33858267716535434
            },
            {
              "number": 10,
              "ticks": 237503,
              "time": 253.74276242291666,
              "value": 0.33070866141732286
            },
            {
              "number": 10,
              "ticks": 237580,
              "time": 253.8250274583333,
              "value": 0.3228346456692913
            },
            {
              "number": 10,
              "ticks": 237656,
              "time": 253.90622411666666,
              "value": 0.31496062992125984
            },
            {
              "number": 10,
              "ticks": 237733,
              "time": 253.98848915208333,
              "value": 0.30708661417322836
            },
            {
              "number": 10,
              "ticks": 237810,
              "time": 254.07075418749997,
              "value": 0.2992125984251969
            },
            {
              "number": 10,
              "ticks": 237886,
              "time": 254.15195084583334,
              "value": 0.29133858267716534
            },
            {
              "number": 10,
              "ticks": 237964,
              "time": 254.2352842583333,
              "value": 0.28346456692913385
            },
            {
              "number": 10,
              "ticks": 238040,
              "time": 254.31648091666665,
              "value": 0.2755905511811024
            },
            {
              "number": 10,
              "ticks": 238117,
              "time": 254.39874595208332,
              "value": 0.2677165354330709
            },
            {
              "number": 10,
              "ticks": 238193,
              "time": 254.47994261041666,
              "value": 0.25984251968503935
            },
            {
              "number": 10,
              "ticks": 238270,
              "time": 254.5622076458333,
              "value": 0.25196850393700787
            },
            {
              "number": 10,
              "ticks": 238347,
              "time": 254.64447268124997,
              "value": 0.2440944881889764
            },
            {
              "number": 10,
              "ticks": 238423,
              "time": 254.72566933958333,
              "value": 0.23622047244094488
            },
            {
              "number": 10,
              "ticks": 238501,
              "time": 254.80900275208333,
              "value": 0.2283464566929134
            },
            {
              "number": 10,
              "ticks": 238577,
              "time": 254.89019941041664,
              "value": 0.2204724409448819
            },
            {
              "number": 10,
              "ticks": 238654,
              "time": 254.9724644458333,
              "value": 0.2125984251968504
            },
            {
              "number": 10,
              "ticks": 238730,
              "time": 255.05366110416665,
              "value": 0.2047244094488189
            },
            {
              "number": 10,
              "ticks": 238808,
              "time": 255.13699451666665,
              "value": 0.1968503937007874
            },
            {
              "number": 10,
              "ticks": 238884,
              "time": 255.218191175,
              "value": 0.1889763779527559
            },
            {
              "number": 10,
              "ticks": 238960,
              "time": 255.2993878333333,
              "value": 0.18110236220472442
            },
            {
              "number": 10,
              "ticks": 239038,
              "time": 255.38272124583332,
              "value": 0.1732283464566929
            },
            {
              "number": 10,
              "ticks": 239114,
              "time": 255.46391790416664,
              "value": 0.16535433070866143
            },
            {
              "number": 10,
              "ticks": 239191,
              "time": 255.54618293958333,
              "value": 0.15748031496062992
            },
            {
              "number": 10,
              "ticks": 239267,
              "time": 255.62737959791664,
              "value": 0.14960629921259844
            },
            {
              "number": 10,
              "ticks": 239345,
              "time": 255.71071301041667,
              "value": 0.14173228346456693
            },
            {
              "number": 10,
              "ticks": 239421,
              "time": 255.79190966874998,
              "value": 0.13385826771653545
            },
            {
              "number": 10,
              "ticks": 239498,
              "time": 255.87417470416665,
              "value": 0.12598425196850394
            },
            {
              "number": 10,
              "ticks": 239574,
              "time": 255.9553713625,
              "value": 0.11811023622047244
            },
            {
              "number": 10,
              "ticks": 239651,
              "time": 256.03763639791663,
              "value": 0.11023622047244094
            },
            {
              "number": 10,
              "ticks": 239728,
              "time": 256.1199014333333,
              "value": 0.10236220472440945
            },
            {
              "number": 10,
              "ticks": 239804,
              "time": 256.20109809166667,
              "value": 0.09448818897637795
            },
            {
              "number": 10,
              "ticks": 239882,
              "time": 256.28443150416666,
              "value": 0.08661417322834646
            },
            {
              "number": 10,
              "ticks": 239958,
              "time": 256.3656281625,
              "value": 0.07874015748031496
            },
            {
              "number": 10,
              "ticks": 240035,
              "time": 256.44789319791664,
              "value": 0.07086614173228346
            },
            {
              "number": 10,
              "ticks": 240111,
              "time": 256.52908985625,
              "value": 0.06299212598425197
            },
            {
              "number": 10,
              "ticks": 240188,
              "time": 256.6113548916666,
              "value": 0.05511811023622047
            },
            {
              "number": 10,
              "ticks": 240265,
              "time": 256.6936199270833,
              "value": 0.047244094488188976
            },
            {
              "number": 10,
              "ticks": 240341,
              "time": 256.77481658541666,
              "value": 0.03937007874015748
            },
            {
              "number": 10,
              "ticks": 240419,
              "time": 256.85814999791666,
              "value": 0.031496062992125984
            },
            {
              "number": 10,
              "ticks": 240495,
              "time": 256.93934665625,
              "value": 0.023622047244094488
            },
            {
              "number": 10,
              "ticks": 240572,
              "time": 257.02161169166664,
              "value": 0.015748031496062992
            },
            {
              "number": 10,
              "ticks": 240648,
              "time": 257.10280835,
              "value": 0.007874015748031496
            },
            {
              "number": 10,
              "ticks": 240725,
              "time": 257.1850733854167,
              "value": 0
            },
            {
              "number": 10,
              "ticks": 240741,
              "time": 257.20216741875,
              "value": 0
            },
            {
              "number": 10,
              "ticks": 240756,
              "time": 257.218193075,
              "value": 0.007874015748031496
            },
            {
              "number": 10,
              "ticks": 240772,
              "time": 257.23528710833335,
              "value": 0.015748031496062992
            },
            {
              "number": 10,
              "ticks": 240787,
              "time": 257.2513127645833,
              "value": 0.023622047244094488
            },
            {
              "number": 10,
              "ticks": 240803,
              "time": 257.26840679791667,
              "value": 0.031496062992125984
            },
            {
              "number": 10,
              "ticks": 240818,
              "time": 257.2844324541666,
              "value": 0.03937007874015748
            },
            {
              "number": 10,
              "ticks": 240834,
              "time": 257.3015264875,
              "value": 0.047244094488188976
            },
            {
              "number": 10,
              "ticks": 240849,
              "time": 257.31755214375,
              "value": 0.05511811023622047
            },
            {
              "number": 10,
              "ticks": 240865,
              "time": 257.3346461770833,
              "value": 0.06299212598425197
            },
            {
              "number": 10,
              "ticks": 240880,
              "time": 257.3506718333333,
              "value": 0.07086614173228346
            },
            {
              "number": 10,
              "ticks": 240896,
              "time": 257.3677658666667,
              "value": 0.07874015748031496
            },
            {
              "number": 10,
              "ticks": 240911,
              "time": 257.3837915229167,
              "value": 0.08661417322834646
            },
            {
              "number": 10,
              "ticks": 240927,
              "time": 257.40088555625,
              "value": 0.09448818897637795
            },
            {
              "number": 10,
              "ticks": 240942,
              "time": 257.4169112125,
              "value": 0.10236220472440945
            },
            {
              "number": 10,
              "ticks": 240958,
              "time": 257.4340052458333,
              "value": 0.11023622047244094
            },
            {
              "number": 10,
              "ticks": 240973,
              "time": 257.4500309020833,
              "value": 0.11811023622047244
            },
            {
              "number": 10,
              "ticks": 240989,
              "time": 257.4671249354166,
              "value": 0.12598425196850394
            },
            {
              "number": 10,
              "ticks": 241004,
              "time": 257.48315059166663,
              "value": 0.13385826771653545
            },
            {
              "number": 10,
              "ticks": 241020,
              "time": 257.500244625,
              "value": 0.14173228346456693
            },
            {
              "number": 10,
              "ticks": 241035,
              "time": 257.51627028125,
              "value": 0.14960629921259844
            },
            {
              "number": 10,
              "ticks": 241051,
              "time": 257.5333643145833,
              "value": 0.15748031496062992
            },
            {
              "number": 10,
              "ticks": 241066,
              "time": 257.5493899708333,
              "value": 0.16535433070866143
            },
            {
              "number": 10,
              "ticks": 241082,
              "time": 257.5664840041666,
              "value": 0.1732283464566929
            },
            {
              "number": 10,
              "ticks": 241097,
              "time": 257.58250966041663,
              "value": 0.18110236220472442
            },
            {
              "number": 10,
              "ticks": 241113,
              "time": 257.59960369375,
              "value": 0.1889763779527559
            },
            {
              "number": 10,
              "ticks": 241128,
              "time": 257.61562935,
              "value": 0.1968503937007874
            },
            {
              "number": 10,
              "ticks": 241144,
              "time": 257.6327233833333,
              "value": 0.2047244094488189
            },
            {
              "number": 10,
              "ticks": 241159,
              "time": 257.6487490395833,
              "value": 0.2125984251968504
            },
            {
              "number": 10,
              "ticks": 241175,
              "time": 257.6658430729167,
              "value": 0.2204724409448819
            },
            {
              "number": 10,
              "ticks": 241190,
              "time": 257.68186872916664,
              "value": 0.2283464566929134
            },
            {
              "number": 10,
              "ticks": 241206,
              "time": 257.6989627625,
              "value": 0.23622047244094488
            },
            {
              "number": 10,
              "ticks": 241221,
              "time": 257.71498841874995,
              "value": 0.2440944881889764
            },
            {
              "number": 10,
              "ticks": 241237,
              "time": 257.7320824520833,
              "value": 0.25196850393700787
            },
            {
              "number": 10,
              "ticks": 241252,
              "time": 257.7481081083333,
              "value": 0.25984251968503935
            },
            {
              "number": 10,
              "ticks": 241268,
              "time": 257.76520214166663,
              "value": 0.2677165354330709
            },
            {
              "number": 10,
              "ticks": 241283,
              "time": 257.78122779791664,
              "value": 0.2755905511811024
            },
            {
              "number": 10,
              "ticks": 241299,
              "time": 257.79832183125,
              "value": 0.28346456692913385
            },
            {
              "number": 10,
              "ticks": 241314,
              "time": 257.8143474875,
              "value": 0.29133858267716534
            },
            {
              "number": 10,
              "ticks": 241330,
              "time": 257.8314415208333,
              "value": 0.2992125984251969
            },
            {
              "number": 10,
              "ticks": 241345,
              "time": 257.84746717708333,
              "value": 0.30708661417322836
            },
            {
              "number": 10,
              "ticks": 241361,
              "time": 257.86456121041664,
              "value": 0.31496062992125984
            },
            {
              "number": 10,
              "ticks": 241376,
              "time": 257.88058686666665,
              "value": 0.3228346456692913
            },
            {
              "number": 10,
              "ticks": 241393,
              "time": 257.8987492770833,
              "value": 0.33070866141732286
            },
            {
              "number": 10,
              "ticks": 241408,
              "time": 257.9147749333333,
              "value": 0.33858267716535434
            },
            {
              "number": 10,
              "ticks": 241423,
              "time": 257.9308005895833,
              "value": 0.3464566929133858
            },
            {
              "number": 10,
              "ticks": 241439,
              "time": 257.94789462291664,
              "value": 0.3543307086614173
            },
            {
              "number": 10,
              "ticks": 241454,
              "time": 257.96392027916664,
              "value": 0.36220472440944884
            },
            {
              "number": 10,
              "ticks": 241470,
              "time": 257.9810143125,
              "value": 0.3700787401574803
            },
            {
              "number": 10,
              "ticks": 241485,
              "time": 257.99703996874996,
              "value": 0.3779527559055118
            },
            {
              "number": 10,
              "ticks": 241501,
              "time": 258.0141340020833,
              "value": 0.3858267716535433
            },
            {
              "number": 10,
              "ticks": 241516,
              "time": 258.03015965833333,
              "value": 0.3937007874015748
            },
            {
              "number": 10,
              "ticks": 241532,
              "time": 258.04725369166664,
              "value": 0.4015748031496063
            },
            {
              "number": 10,
              "ticks": 241547,
              "time": 258.06327934791665,
              "value": 0.4094488188976378
            },
            {
              "number": 10,
              "ticks": 241563,
              "time": 258.08037338125,
              "value": 0.41732283464566927
            },
            {
              "number": 10,
              "ticks": 241578,
              "time": 258.0963990375,
              "value": 0.4251968503937008
            },
            {
              "number": 10,
              "ticks": 241594,
              "time": 258.11349307083333,
              "value": 0.4330708661417323
            },
            {
              "number": 10,
              "ticks": 241609,
              "time": 258.12951872708334,
              "value": 0.4409448818897638
            },
            {
              "number": 10,
              "ticks": 241625,
              "time": 258.14661276041664,
              "value": 0.44881889763779526
            },
            {
              "number": 10,
              "ticks": 241640,
              "time": 258.16263841666665,
              "value": 0.4566929133858268
            },
            {
              "number": 10,
              "ticks": 241656,
              "time": 258.17973244999996,
              "value": 0.4645669291338583
            },
            {
              "number": 10,
              "ticks": 241671,
              "time": 258.19575810624997,
              "value": 0.47244094488188976
            },
            {
              "number": 10,
              "ticks": 241687,
              "time": 258.21285213958333,
              "value": 0.48031496062992124
            },
            {
              "number": 10,
              "ticks": 241702,
              "time": 258.22887779583334,
              "value": 0.4881889763779528
            },
            {
              "number": 10,
              "ticks": 241718,
              "time": 258.24597182916665,
              "value": 0.49606299212598426
            },
            {
              "number": 10,
              "ticks": 241733,
              "time": 258.26199748541666,
              "value": 0.5039370078740157
            },
            {
              "number": 10,
              "ticks": 241749,
              "time": 258.27909151874996,
              "value": 0.5118110236220472
            },
            {
              "number": 10,
              "ticks": 241764,
              "time": 258.295117175,
              "value": 0.5196850393700787
            },
            {
              "number": 10,
              "ticks": 241780,
              "time": 258.3122112083333,
              "value": 0.5275590551181102
            },
            {
              "number": 10,
              "ticks": 241795,
              "time": 258.3282368645833,
              "value": 0.5354330708661418
            },
            {
              "number": 10,
              "ticks": 241811,
              "time": 258.34533089791665,
              "value": 0.5433070866141733
            },
            {
              "number": 10,
              "ticks": 241826,
              "time": 258.36135655416666,
              "value": 0.5511811023622047
            },
            {
              "number": 10,
              "ticks": 241842,
              "time": 258.37845058749997,
              "value": 0.5590551181102362
            },
            {
              "number": 10,
              "ticks": 241857,
              "time": 258.39447624375,
              "value": 0.5669291338582677
            },
            {
              "number": 10,
              "ticks": 241873,
              "time": 258.41157027708334,
              "value": 0.5748031496062992
            },
            {
              "number": 10,
              "ticks": 241888,
              "time": 258.4275959333333,
              "value": 0.5826771653543307
            },
            {
              "number": 10,
              "ticks": 241904,
              "time": 258.44468996666666,
              "value": 0.5905511811023622
            },
            {
              "number": 10,
              "ticks": 241919,
              "time": 258.46071562291667,
              "value": 0.5984251968503937
            },
            {
              "number": 10,
              "ticks": 241935,
              "time": 258.47780965625,
              "value": 0.6062992125984252
            },
            {
              "number": 10,
              "ticks": 241950,
              "time": 258.4938353125,
              "value": 0.6141732283464567
            },
            {
              "number": 10,
              "ticks": 241966,
              "time": 258.51092934583335,
              "value": 0.6220472440944882
            },
            {
              "number": 10,
              "ticks": 241981,
              "time": 258.52695500208335,
              "value": 0.6299212598425197
            },
            {
              "number": 10,
              "ticks": 241997,
              "time": 258.54404903541666,
              "value": 0.6377952755905512
            },
            {
              "number": 10,
              "ticks": 242012,
              "time": 258.56007469166667,
              "value": 0.6456692913385826
            },
            {
              "number": 10,
              "ticks": 242028,
              "time": 258.577168725,
              "value": 0.6535433070866141
            },
            {
              "number": 10,
              "ticks": 242044,
              "time": 258.59426275833334,
              "value": 0.6614173228346457
            },
            {
              "number": 10,
              "ticks": 242059,
              "time": 258.6102884145833,
              "value": 0.6692913385826772
            },
            {
              "number": 10,
              "ticks": 242075,
              "time": 258.62738244791666,
              "value": 0.6771653543307087
            },
            {
              "number": 10,
              "ticks": 242090,
              "time": 258.64340810416667,
              "value": 0.6850393700787402
            },
            {
              "number": 10,
              "ticks": 242106,
              "time": 258.6605021375,
              "value": 0.6929133858267716
            },
            {
              "number": 10,
              "ticks": 242121,
              "time": 258.67652779375,
              "value": 0.7007874015748031
            },
            {
              "number": 10,
              "ticks": 242137,
              "time": 258.69362182708335,
              "value": 0.7086614173228346
            },
            {
              "number": 10,
              "ticks": 242152,
              "time": 258.7096474833333,
              "value": 0.7165354330708661
            },
            {
              "number": 10,
              "ticks": 242168,
              "time": 258.72674151666666,
              "value": 0.7244094488188977
            },
            {
              "number": 10,
              "ticks": 242183,
              "time": 258.7427671729167,
              "value": 0.7322834645669292
            },
            {
              "number": 10,
              "ticks": 242199,
              "time": 258.75986120625,
              "value": 0.7401574803149606
            },
            {
              "number": 10,
              "ticks": 242214,
              "time": 258.7758868625,
              "value": 0.7480314960629921
            },
            {
              "number": 10,
              "ticks": 242230,
              "time": 258.7929808958333,
              "value": 0.7559055118110236
            },
            {
              "number": 10,
              "ticks": 242245,
              "time": 258.8090065520833,
              "value": 0.7637795275590551
            },
            {
              "number": 10,
              "ticks": 242261,
              "time": 258.82610058541667,
              "value": 0.7716535433070866
            },
            {
              "number": 10,
              "ticks": 242276,
              "time": 258.8421262416667,
              "value": 0.7795275590551181
            },
            {
              "number": 10,
              "ticks": 242292,
              "time": 258.859220275,
              "value": 0.7874015748031497
            },
            {
              "number": 10,
              "ticks": 242307,
              "time": 258.87524593125,
              "value": 0.7952755905511811
            },
            {
              "number": 10,
              "ticks": 242323,
              "time": 258.8923399645833,
              "value": 0.8031496062992126
            },
            {
              "number": 10,
              "ticks": 242338,
              "time": 258.9083656208333,
              "value": 0.8110236220472441
            },
            {
              "number": 10,
              "ticks": 242354,
              "time": 258.9254596541666,
              "value": 0.8188976377952756
            },
            {
              "number": 10,
              "ticks": 242369,
              "time": 258.9414853104166,
              "value": 0.8267716535433071
            },
            {
              "number": 10,
              "ticks": 242385,
              "time": 258.95857934375,
              "value": 0.8346456692913385
            },
            {
              "number": 10,
              "ticks": 242400,
              "time": 258.974605,
              "value": 0.84251968503937
            },
            {
              "number": 10,
              "ticks": 242416,
              "time": 258.9916990333333,
              "value": 0.8503937007874016
            },
            {
              "number": 10,
              "ticks": 242431,
              "time": 259.0077246895833,
              "value": 0.8582677165354331
            },
            {
              "number": 10,
              "ticks": 242447,
              "time": 259.0248187229167,
              "value": 0.8661417322834646
            },
            {
              "number": 10,
              "ticks": 242462,
              "time": 259.04084437916663,
              "value": 0.8740157480314961
            },
            {
              "number": 10,
              "ticks": 242478,
              "time": 259.0579384125,
              "value": 0.8818897637795275
            },
            {
              "number": 10,
              "ticks": 242493,
              "time": 259.07396406875,
              "value": 0.889763779527559
            },
            {
              "number": 10,
              "ticks": 242509,
              "time": 259.0910581020833,
              "value": 0.8976377952755905
            },
            {
              "number": 10,
              "ticks": 242524,
              "time": 259.1070837583333,
              "value": 0.905511811023622
            },
            {
              "number": 10,
              "ticks": 242540,
              "time": 259.1241777916667,
              "value": 0.9133858267716536
            },
            {
              "number": 10,
              "ticks": 242555,
              "time": 259.1402034479167,
              "value": 0.9212598425196851
            },
            {
              "number": 10,
              "ticks": 242571,
              "time": 259.15729748125,
              "value": 0.9291338582677166
            },
            {
              "number": 10,
              "ticks": 242586,
              "time": 259.1733231375,
              "value": 0.937007874015748
            },
            {
              "number": 10,
              "ticks": 242602,
              "time": 259.1904171708333,
              "value": 0.9448818897637795
            },
            {
              "number": 10,
              "ticks": 242617,
              "time": 259.2064428270833,
              "value": 0.952755905511811
            },
            {
              "number": 10,
              "ticks": 242633,
              "time": 259.22353686041663,
              "value": 0.9606299212598425
            },
            {
              "number": 10,
              "ticks": 242648,
              "time": 259.23956251666664,
              "value": 0.968503937007874
            },
            {
              "number": 10,
              "ticks": 242664,
              "time": 259.25665655,
              "value": 0.9763779527559056
            },
            {
              "number": 10,
              "ticks": 242679,
              "time": 259.27268220625,
              "value": 0.984251968503937
            },
            {
              "number": 10,
              "ticks": 242695,
              "time": 259.2897762395833,
              "value": 0.9921259842519685
            },
            {
              "number": 10,
              "ticks": 242695,
              "time": 259.2897762395833,
              "value": 1
            },
            {
              "number": 10,
              "ticks": 242708,
              "time": 259.30366514166667,
              "value": 0.9921259842519685
            },
            {
              "number": 10,
              "ticks": 242720,
              "time": 259.31648566666667,
              "value": 0.984251968503937
            },
            {
              "number": 10,
              "ticks": 242734,
              "time": 259.3314429458333,
              "value": 0.9763779527559056
            },
            {
              "number": 10,
              "ticks": 242746,
              "time": 259.3442634708333,
              "value": 0.968503937007874
            },
            {
              "number": 10,
              "ticks": 242758,
              "time": 259.3570839958333,
              "value": 0.9606299212598425
            },
            {
              "number": 10,
              "ticks": 242772,
              "time": 259.37204127499996,
              "value": 0.952755905511811
            },
            {
              "number": 10,
              "ticks": 242784,
              "time": 259.3848618,
              "value": 0.9448818897637795
            },
            {
              "number": 10,
              "ticks": 242797,
              "time": 259.3987507020833,
              "value": 0.937007874015748
            },
            {
              "number": 10,
              "ticks": 242809,
              "time": 259.4115712270833,
              "value": 0.9291338582677166
            },
            {
              "number": 10,
              "ticks": 242822,
              "time": 259.42546012916665,
              "value": 0.9212598425196851
            },
            {
              "number": 10,
              "ticks": 242835,
              "time": 259.43934903125,
              "value": 0.9133858267716536
            },
            {
              "number": 10,
              "ticks": 242847,
              "time": 259.45216955625,
              "value": 0.905511811023622
            },
            {
              "number": 10,
              "ticks": 242861,
              "time": 259.46712683541665,
              "value": 0.8976377952755905
            },
            {
              "number": 10,
              "ticks": 242873,
              "time": 259.47994736041665,
              "value": 0.889763779527559
            },
            {
              "number": 10,
              "ticks": 242885,
              "time": 259.49276788541664,
              "value": 0.8818897637795275
            },
            {
              "number": 10,
              "ticks": 242899,
              "time": 259.5077251645833,
              "value": 0.8740157480314961
            },
            {
              "number": 10,
              "ticks": 242911,
              "time": 259.52054568958334,
              "value": 0.8661417322834646
            },
            {
              "number": 10,
              "ticks": 242924,
              "time": 259.53443459166664,
              "value": 0.8582677165354331
            },
            {
              "number": 10,
              "ticks": 242936,
              "time": 259.54725511666663,
              "value": 0.8503937007874016
            },
            {
              "number": 10,
              "ticks": 242949,
              "time": 259.56114401875,
              "value": 0.84251968503937
            },
            {
              "number": 10,
              "ticks": 242962,
              "time": 259.57503292083334,
              "value": 0.8346456692913385
            },
            {
              "number": 10,
              "ticks": 242974,
              "time": 259.58785344583333,
              "value": 0.8267716535433071
            },
            {
              "number": 10,
              "ticks": 242988,
              "time": 259.602810725,
              "value": 0.8188976377952756
            },
            {
              "number": 10,
              "ticks": 243000,
              "time": 259.61563125,
              "value": 0.8110236220472441
            },
            {
              "number": 10,
              "ticks": 243012,
              "time": 259.628451775,
              "value": 0.8031496062992126
            },
            {
              "number": 10,
              "ticks": 243025,
              "time": 259.6423406770833,
              "value": 0.7952755905511811
            },
            {
              "number": 10,
              "ticks": 243038,
              "time": 259.6562295791666,
              "value": 0.7874015748031497
            },
            {
              "number": 10,
              "ticks": 243051,
              "time": 259.67011848125,
              "value": 0.7795275590551181
            },
            {
              "number": 10,
              "ticks": 243063,
              "time": 259.68293900625,
              "value": 0.7716535433070866
            },
            {
              "number": 10,
              "ticks": 243076,
              "time": 259.6968279083333,
              "value": 0.7637795275590551
            },
            {
              "number": 10,
              "ticks": 243089,
              "time": 259.7107168104166,
              "value": 0.7559055118110236
            },
            {
              "number": 10,
              "ticks": 243101,
              "time": 259.72353733541667,
              "value": 0.7480314960629921
            },
            {
              "number": 10,
              "ticks": 243115,
              "time": 259.7384946145833,
              "value": 0.7401574803149606
            },
            {
              "number": 10,
              "ticks": 243127,
              "time": 259.7513151395833,
              "value": 0.7322834645669292
            },
            {
              "number": 10,
              "ticks": 243139,
              "time": 259.7641356645833,
              "value": 0.7244094488188977
            },
            {
              "number": 10,
              "ticks": 243153,
              "time": 259.77909294375,
              "value": 0.7165354330708661
            },
            {
              "number": 10,
              "ticks": 243165,
              "time": 259.79191346875,
              "value": 0.7086614173228346
            },
            {
              "number": 10,
              "ticks": 243178,
              "time": 259.8058023708333,
              "value": 0.7007874015748031
            },
            {
              "number": 10,
              "ticks": 243190,
              "time": 259.8186228958333,
              "value": 0.6929133858267716
            },
            {
              "number": 10,
              "ticks": 243203,
              "time": 259.83251179791665,
              "value": 0.6850393700787402
            },
            {
              "number": 10,
              "ticks": 243216,
              "time": 259.8464007,
              "value": 0.6771653543307087
            },
            {
              "number": 10,
              "ticks": 243228,
              "time": 259.859221225,
              "value": 0.6692913385826772
            },
            {
              "number": 10,
              "ticks": 243242,
              "time": 259.87417850416665,
              "value": 0.6614173228346457
            },
            {
              "number": 10,
              "ticks": 243254,
              "time": 259.88699902916665,
              "value": 0.6535433070866141
            },
            {
              "number": 10,
              "ticks": 243266,
              "time": 259.89981955416664,
              "value": 0.6456692913385826
            },
            {
              "number": 10,
              "ticks": 243280,
              "time": 259.9147768333333,
              "value": 0.6377952755905512
            },
            {
              "number": 10,
              "ticks": 243292,
              "time": 259.92759735833334,
              "value": 0.6299212598425197
            },
            {
              "number": 10,
              "ticks": 243305,
              "time": 259.94148626041664,
              "value": 0.6220472440944882
            },
            {
              "number": 10,
              "ticks": 243317,
              "time": 259.95430678541663,
              "value": 0.6141732283464567
            },
            {
              "number": 10,
              "ticks": 243330,
              "time": 259.9681956875,
              "value": 0.6062992125984252
            },
            {
              "number": 10,
              "ticks": 243343,
              "time": 259.98208458958334,
              "value": 0.5984251968503937
            },
            {
              "number": 10,
              "ticks": 243355,
              "time": 259.99490511458333,
              "value": 0.5905511811023622
            },
            {
              "number": 10,
              "ticks": 243369,
              "time": 260.00986239375,
              "value": 0.5826771653543307
            },
            {
              "number": 10,
              "ticks": 243381,
              "time": 260.02268291875,
              "value": 0.5748031496062992
            },
            {
              "number": 10,
              "ticks": 243393,
              "time": 260.03550344375,
              "value": 0.5669291338582677
            },
            {
              "number": 10,
              "ticks": 243407,
              "time": 260.0504607229166,
              "value": 0.5590551181102362
            },
            {
              "number": 10,
              "ticks": 243419,
              "time": 260.0632812479166,
              "value": 0.5511811023622047
            },
            {
              "number": 10,
              "ticks": 243432,
              "time": 260.07717015,
              "value": 0.5433070866141733
            },
            {
              "number": 10,
              "ticks": 243444,
              "time": 260.08999067499997,
              "value": 0.5354330708661418
            },
            {
              "number": 10,
              "ticks": 243457,
              "time": 260.1038795770833,
              "value": 0.5275590551181102
            },
            {
              "number": 10,
              "ticks": 243470,
              "time": 260.11776847916667,
              "value": 0.5196850393700787
            },
            {
              "number": 10,
              "ticks": 243482,
              "time": 260.13058900416667,
              "value": 0.5118110236220472
            },
            {
              "number": 10,
              "ticks": 243495,
              "time": 260.14447790624996,
              "value": 0.5039370078740157
            },
            {
              "number": 10,
              "ticks": 243495,
              "time": 260.14447790624996,
              "value": 0.5039370078740157
            },
            {
              "number": 10,
              "ticks": 243608,
              "time": 260.26520451666664,
              "value": 0.49606299212598426
            },
            {
              "number": 10,
              "ticks": 243721,
              "time": 260.3859311270833,
              "value": 0.4881889763779528
            },
            {
              "number": 10,
              "ticks": 243834,
              "time": 260.5066577375,
              "value": 0.48031496062992124
            },
            {
              "number": 10,
              "ticks": 243947,
              "time": 260.62738434791663,
              "value": 0.47244094488188976
            },
            {
              "number": 10,
              "ticks": 244060,
              "time": 260.7481109583333,
              "value": 0.4645669291338583
            },
            {
              "number": 10,
              "ticks": 244173,
              "time": 260.86883756875,
              "value": 0.4566929133858268
            },
            {
              "number": 10,
              "ticks": 244286,
              "time": 260.9895641791667,
              "value": 0.44881889763779526
            },
            {
              "number": 10,
              "ticks": 244398,
              "time": 261.1092224125,
              "value": 0.4409448818897638
            },
            {
              "number": 10,
              "ticks": 244511,
              "time": 261.2299490229166,
              "value": 0.4330708661417323
            },
            {
              "number": 10,
              "ticks": 244624,
              "time": 261.3506756333333,
              "value": 0.4251968503937008
            },
            {
              "number": 10,
              "ticks": 244738,
              "time": 261.47247062083335,
              "value": 0.41732283464566927
            },
            {
              "number": 10,
              "ticks": 244850,
              "time": 261.5921288541667,
              "value": 0.4094488188976378
            },
            {
              "number": 10,
              "ticks": 244964,
              "time": 261.71392384166666,
              "value": 0.4015748031496063
            },
            {
              "number": 10,
              "ticks": 245076,
              "time": 261.833582075,
              "value": 0.3937007874015748
            },
            {
              "number": 10,
              "ticks": 245189,
              "time": 261.95430868541666,
              "value": 0.3858267716535433
            },
            {
              "number": 10,
              "ticks": 245302,
              "time": 262.07503529583335,
              "value": 0.3779527559055118
            },
            {
              "number": 10,
              "ticks": 245415,
              "time": 262.19576190624997,
              "value": 0.3700787401574803
            },
            {
              "number": 10,
              "ticks": 245528,
              "time": 262.31648851666665,
              "value": 0.36220472440944884
            },
            {
              "number": 10,
              "ticks": 245641,
              "time": 262.43721512708333,
              "value": 0.3543307086614173
            },
            {
              "number": 10,
              "ticks": 245754,
              "time": 262.5579417375,
              "value": 0.3464566929133858
            },
            {
              "number": 10,
              "ticks": 245867,
              "time": 262.6786683479167,
              "value": 0.33858267716535434
            },
            {
              "number": 10,
              "ticks": 245979,
              "time": 262.79832658124997,
              "value": 0.33070866141732286
            },
            {
              "number": 10,
              "ticks": 246093,
              "time": 262.92012156875,
              "value": 0.3228346456692913
            },
            {
              "number": 10,
              "ticks": 246205,
              "time": 263.03977980208333,
              "value": 0.31496062992125984
            },
            {
              "number": 10,
              "ticks": 246319,
              "time": 263.1615747895833,
              "value": 0.30708661417322836
            },
            {
              "number": 10,
              "ticks": 246431,
              "time": 263.28123302291664,
              "value": 0.2992125984251969
            },
            {
              "number": 10,
              "ticks": 246544,
              "time": 263.4019596333333,
              "value": 0.29133858267716534
            },
            {
              "number": 10,
              "ticks": 246658,
              "time": 263.5237546208333,
              "value": 0.28346456692913385
            },
            {
              "number": 10,
              "ticks": 246770,
              "time": 263.6434128541666,
              "value": 0.2755905511811024
            },
            {
              "number": 10,
              "ticks": 246883,
              "time": 263.7641394645833,
              "value": 0.2677165354330709
            },
            {
              "number": 10,
              "ticks": 246996,
              "time": 263.884866075,
              "value": 0.25984251968503935
            },
            {
              "number": 10,
              "ticks": 247109,
              "time": 264.0055926854167,
              "value": 0.25196850393700787
            },
            {
              "number": 10,
              "ticks": 247222,
              "time": 264.1263192958333,
              "value": 0.2440944881889764
            },
            {
              "number": 10,
              "ticks": 247335,
              "time": 264.24704590625,
              "value": 0.23622047244094488
            },
            {
              "number": 10,
              "ticks": 247448,
              "time": 264.36777251666666,
              "value": 0.2283464566929134
            },
            {
              "number": 10,
              "ticks": 247560,
              "time": 264.48743075,
              "value": 0.2204724409448819
            },
            {
              "number": 10,
              "ticks": 247674,
              "time": 264.60922573749997,
              "value": 0.2125984251968504
            },
            {
              "number": 10,
              "ticks": 247786,
              "time": 264.7288839708333,
              "value": 0.2047244094488189
            },
            {
              "number": 10,
              "ticks": 247900,
              "time": 264.85067895833333,
              "value": 0.1968503937007874
            },
            {
              "number": 10,
              "ticks": 248012,
              "time": 264.97033719166666,
              "value": 0.1889763779527559
            },
            {
              "number": 10,
              "ticks": 248126,
              "time": 265.09213217916664,
              "value": 0.18110236220472442
            },
            {
              "number": 10,
              "ticks": 248238,
              "time": 265.2117904125,
              "value": 0.1732283464566929
            },
            {
              "number": 10,
              "ticks": 248351,
              "time": 265.33251702291665,
              "value": 0.16535433070866143
            },
            {
              "number": 10,
              "ticks": 248464,
              "time": 265.45324363333333,
              "value": 0.15748031496062992
            },
            {
              "number": 10,
              "ticks": 248577,
              "time": 265.57397024374995,
              "value": 0.14960629921259844
            },
            {
              "number": 10,
              "ticks": 248690,
              "time": 265.69469685416664,
              "value": 0.14173228346456693
            },
            {
              "number": 10,
              "ticks": 248803,
              "time": 265.8154234645833,
              "value": 0.13385826771653545
            },
            {
              "number": 10,
              "ticks": 248916,
              "time": 265.936150075,
              "value": 0.12598425196850394
            },
            {
              "number": 10,
              "ticks": 249029,
              "time": 266.0568766854167,
              "value": 0.11811023622047244
            },
            {
              "number": 10,
              "ticks": 249141,
              "time": 266.17653491875,
              "value": 0.11023622047244094
            },
            {
              "number": 10,
              "ticks": 249254,
              "time": 266.2972615291667,
              "value": 0.10236220472440945
            },
            {
              "number": 10,
              "ticks": 249368,
              "time": 266.41905651666667,
              "value": 0.09448818897637795
            },
            {
              "number": 10,
              "ticks": 249480,
              "time": 266.53871475,
              "value": 0.08661417322834646
            },
            {
              "number": 10,
              "ticks": 249594,
              "time": 266.6605097375,
              "value": 0.07874015748031496
            },
            {
              "number": 10,
              "ticks": 249706,
              "time": 266.7801679708333,
              "value": 0.07086614173228346
            },
            {
              "number": 10,
              "ticks": 249820,
              "time": 266.90196295833334,
              "value": 0.06299212598425197
            },
            {
              "number": 10,
              "ticks": 249932,
              "time": 267.02162119166667,
              "value": 0.05511811023622047
            },
            {
              "number": 10,
              "ticks": 250045,
              "time": 267.14234780208335,
              "value": 0.047244094488188976
            },
            {
              "number": 10,
              "ticks": 250158,
              "time": 267.2630744125,
              "value": 0.03937007874015748
            },
            {
              "number": 10,
              "ticks": 250271,
              "time": 267.38380102291666,
              "value": 0.031496062992125984
            },
            {
              "number": 10,
              "ticks": 250384,
              "time": 267.50452763333334,
              "value": 0.023622047244094488
            },
            {
              "number": 10,
              "ticks": 250497,
              "time": 267.62525424374996,
              "value": 0.015748031496062992
            },
            {
              "number": 10,
              "ticks": 250610,
              "time": 267.74598085416665,
              "value": 0.007874015748031496
            },
            {
              "number": 10,
              "ticks": 250723,
              "time": 267.86670746458327,
              "value": 0
            },
            {
              "number": 10,
              "ticks": 250730,
              "time": 267.87418610416665,
              "value": 0
            },
            {
              "number": 10,
              "ticks": 250738,
              "time": 267.8827331208333,
              "value": 0.007874015748031496
            },
            {
              "number": 10,
              "ticks": 250746,
              "time": 267.8912801375,
              "value": 0.015748031496062992
            },
            {
              "number": 10,
              "ticks": 250753,
              "time": 267.8987587770833,
              "value": 0.023622047244094488
            },
            {
              "number": 10,
              "ticks": 250761,
              "time": 267.90730579375,
              "value": 0.031496062992125984
            },
            {
              "number": 10,
              "ticks": 250769,
              "time": 267.91585281041665,
              "value": 0.03937007874015748
            },
            {
              "number": 10,
              "ticks": 250776,
              "time": 267.92333145000003,
              "value": 0.047244094488188976
            },
            {
              "number": 10,
              "ticks": 250785,
              "time": 267.93294684374996,
              "value": 0.05511811023622047
            },
            {
              "number": 10,
              "ticks": 250792,
              "time": 267.94042548333334,
              "value": 0.06299212598425197
            },
            {
              "number": 10,
              "ticks": 250799,
              "time": 267.94790412291667,
              "value": 0.07086614173228346
            },
            {
              "number": 10,
              "ticks": 250808,
              "time": 267.95751951666665,
              "value": 0.07874015748031496
            },
            {
              "number": 10,
              "ticks": 250815,
              "time": 267.96499815625,
              "value": 0.08661417322834646
            },
            {
              "number": 10,
              "ticks": 250823,
              "time": 267.97354517291666,
              "value": 0.09448818897637795
            },
            {
              "number": 10,
              "ticks": 250830,
              "time": 267.9810238125,
              "value": 0.10236220472440945
            },
            {
              "number": 10,
              "ticks": 250838,
              "time": 267.98957082916667,
              "value": 0.11023622047244094
            },
            {
              "number": 10,
              "ticks": 250846,
              "time": 267.9981178458333,
              "value": 0.11811023622047244
            },
            {
              "number": 10,
              "ticks": 250853,
              "time": 268.0055964854166,
              "value": 0.12598425196850394
            },
            {
              "number": 10,
              "ticks": 250862,
              "time": 268.01521187916666,
              "value": 0.13385826771653545
            },
            {
              "number": 10,
              "ticks": 250869,
              "time": 268.02269051875,
              "value": 0.14173228346456693
            },
            {
              "number": 10,
              "ticks": 250876,
              "time": 268.0301691583333,
              "value": 0.14960629921259844
            },
            {
              "number": 10,
              "ticks": 250885,
              "time": 268.03978455208335,
              "value": 0.15748031496062992
            },
            {
              "number": 10,
              "ticks": 250892,
              "time": 268.0472631916667,
              "value": 0.16535433070866143
            },
            {
              "number": 10,
              "ticks": 250899,
              "time": 268.05474183124994,
              "value": 0.1732283464566929
            },
            {
              "number": 10,
              "ticks": 250907,
              "time": 268.0632888479167,
              "value": 0.18110236220472442
            },
            {
              "number": 10,
              "ticks": 250915,
              "time": 268.07183586458336,
              "value": 0.1889763779527559
            },
            {
              "number": 10,
              "ticks": 250923,
              "time": 268.08038288125,
              "value": 0.1968503937007874
            },
            {
              "number": 10,
              "ticks": 250930,
              "time": 268.0878615208333,
              "value": 0.2047244094488189
            },
            {
              "number": 10,
              "ticks": 250938,
              "time": 268.0964085375,
              "value": 0.2125984251968504
            },
            {
              "number": 10,
              "ticks": 250946,
              "time": 268.1049555541667,
              "value": 0.2204724409448819
            },
            {
              "number": 10,
              "ticks": 250953,
              "time": 268.11243419375,
              "value": 0.2283464566929134
            },
            {
              "number": 10,
              "ticks": 250962,
              "time": 268.1220495875,
              "value": 0.23622047244094488
            },
            {
              "number": 10,
              "ticks": 250969,
              "time": 268.1295282270833,
              "value": 0.2440944881889764
            },
            {
              "number": 10,
              "ticks": 250976,
              "time": 268.13700686666664,
              "value": 0.25196850393700787
            },
            {
              "number": 10,
              "ticks": 250985,
              "time": 268.1466222604166,
              "value": 0.25984251968503935
            },
            {
              "number": 10,
              "ticks": 250992,
              "time": 268.15410089999995,
              "value": 0.2677165354330709
            },
            {
              "number": 10,
              "ticks": 251000,
              "time": 268.16264791666663,
              "value": 0.2755905511811024
            },
            {
              "number": 10,
              "ticks": 251007,
              "time": 268.17012655624995,
              "value": 0.28346456692913385
            },
            {
              "number": 10,
              "ticks": 251015,
              "time": 268.17867357291664,
              "value": 0.29133858267716534
            },
            {
              "number": 10,
              "ticks": 251023,
              "time": 268.1872205895833,
              "value": 0.2992125984251969
            },
            {
              "number": 10,
              "ticks": 251030,
              "time": 268.19469922916664,
              "value": 0.30708661417322836
            },
            {
              "number": 10,
              "ticks": 251039,
              "time": 268.2043146229167,
              "value": 0.31496062992125984
            },
            {
              "number": 10,
              "ticks": 251046,
              "time": 268.2117932625,
              "value": 0.3228346456692913
            },
            {
              "number": 10,
              "ticks": 251053,
              "time": 268.2192719020833,
              "value": 0.33070866141732286
            },
            {
              "number": 10,
              "ticks": 251062,
              "time": 268.2288872958333,
              "value": 0.33858267716535434
            },
            {
              "number": 10,
              "ticks": 251069,
              "time": 268.23636593541664,
              "value": 0.3464566929133858
            },
            {
              "number": 10,
              "ticks": 251076,
              "time": 268.243844575,
              "value": 0.3543307086614173
            },
            {
              "number": 10,
              "ticks": 251085,
              "time": 268.25345996875,
              "value": 0.36220472440944884
            },
            {
              "number": 10,
              "ticks": 251092,
              "time": 268.26093860833333,
              "value": 0.3700787401574803
            },
            {
              "number": 10,
              "ticks": 251100,
              "time": 268.26948562499996,
              "value": 0.3779527559055118
            },
            {
              "number": 10,
              "ticks": 251107,
              "time": 268.27696426458334,
              "value": 0.3858267716535433
            },
            {
              "number": 10,
              "ticks": 251115,
              "time": 268.28551128124997,
              "value": 0.3937007874015748
            },
            {
              "number": 10,
              "ticks": 251123,
              "time": 268.29405829791665,
              "value": 0.4015748031496063
            },
            {
              "number": 10,
              "ticks": 251130,
              "time": 268.3015369375,
              "value": 0.4094488188976378
            },
            {
              "number": 10,
              "ticks": 251139,
              "time": 268.31115233124996,
              "value": 0.41732283464566927
            },
            {
              "number": 10,
              "ticks": 251146,
              "time": 268.3186309708333,
              "value": 0.4251968503937008
            },
            {
              "number": 10,
              "ticks": 251153,
              "time": 268.32610961041667,
              "value": 0.4330708661417323
            },
            {
              "number": 10,
              "ticks": 251162,
              "time": 268.3357250041667,
              "value": 0.4409448818897638
            },
            {
              "number": 10,
              "ticks": 251169,
              "time": 268.34320364375,
              "value": 0.44881889763779526
            },
            {
              "number": 10,
              "ticks": 251177,
              "time": 268.35175066041666,
              "value": 0.4566929133858268
            },
            {
              "number": 10,
              "ticks": 251184,
              "time": 268.3592293,
              "value": 0.4645669291338583
            },
            {
              "number": 10,
              "ticks": 251192,
              "time": 268.36777631666666,
              "value": 0.47244094488188976
            },
            {
              "number": 10,
              "ticks": 251200,
              "time": 268.37632333333335,
              "value": 0.48031496062992124
            },
            {
              "number": 10,
              "ticks": 251207,
              "time": 268.3838019729167,
              "value": 0.4881889763779528
            },
            {
              "number": 10,
              "ticks": 251215,
              "time": 268.39234898958335,
              "value": 0.5039370078740157
            },
            {
              "number": 10,
              "ticks": 251327,
              "time": 268.5120072229167,
              "value": 0.49606299212598426
            },
            {
              "number": 10,
              "ticks": 251440,
              "time": 268.63273383333336,
              "value": 0.4881889763779528
            },
            {
              "number": 10,
              "ticks": 251552,
              "time": 268.7523920666667,
              "value": 0.48031496062992124
            },
            {
              "number": 10,
              "ticks": 251664,
              "time": 268.87205029999996,
              "value": 0.47244094488188976
            },
            {
              "number": 10,
              "ticks": 251777,
              "time": 268.9927769104167,
              "value": 0.4645669291338583
            },
            {
              "number": 10,
              "ticks": 251889,
              "time": 269.11243514374996,
              "value": 0.4566929133858268
            },
            {
              "number": 10,
              "ticks": 252001,
              "time": 269.2320933770833,
              "value": 0.44881889763779526
            },
            {
              "number": 10,
              "ticks": 252113,
              "time": 269.35175161041667,
              "value": 0.4409448818897638
            },
            {
              "number": 10,
              "ticks": 252226,
              "time": 269.4724782208333,
              "value": 0.4330708661417323
            },
            {
              "number": 10,
              "ticks": 252338,
              "time": 269.5921364541666,
              "value": 0.4251968503937008
            },
            {
              "number": 10,
              "ticks": 252450,
              "time": 269.7117946875,
              "value": 0.41732283464566927
            },
            {
              "number": 10,
              "ticks": 252563,
              "time": 269.8325212979166,
              "value": 0.4094488188976378
            },
            {
              "number": 10,
              "ticks": 252675,
              "time": 269.95217953125,
              "value": 0.4015748031496063
            },
            {
              "number": 10,
              "ticks": 252787,
              "time": 270.07183776458334,
              "value": 0.3937007874015748
            },
            {
              "number": 10,
              "ticks": 252900,
              "time": 270.19256437499996,
              "value": 0.3858267716535433
            },
            {
              "number": 10,
              "ticks": 253012,
              "time": 270.31222260833334,
              "value": 0.3779527559055118
            },
            {
              "number": 10,
              "ticks": 253124,
              "time": 270.43188084166667,
              "value": 0.3700787401574803
            },
            {
              "number": 10,
              "ticks": 253236,
              "time": 270.551539075,
              "value": 0.36220472440944884
            },
            {
              "number": 10,
              "ticks": 253349,
              "time": 270.6722656854167,
              "value": 0.3543307086614173
            },
            {
              "number": 10,
              "ticks": 253461,
              "time": 270.79192391875,
              "value": 0.3464566929133858
            },
            {
              "number": 10,
              "ticks": 253573,
              "time": 270.91158215208327,
              "value": 0.33858267716535434
            },
            {
              "number": 10,
              "ticks": 253686,
              "time": 271.0323087625,
              "value": 0.33070866141732286
            },
            {
              "number": 10,
              "ticks": 253798,
              "time": 271.1519669958333,
              "value": 0.3228346456692913
            },
            {
              "number": 10,
              "ticks": 253910,
              "time": 271.27162522916666,
              "value": 0.31496062992125984
            },
            {
              "number": 10,
              "ticks": 254023,
              "time": 271.3923518395833,
              "value": 0.30708661417322836
            },
            {
              "number": 10,
              "ticks": 254135,
              "time": 271.5120100729166,
              "value": 0.2992125984251969
            },
            {
              "number": 10,
              "ticks": 254247,
              "time": 271.63166830625,
              "value": 0.29133858267716534
            },
            {
              "number": 10,
              "ticks": 254360,
              "time": 271.7523949166666,
              "value": 0.28346456692913385
            },
            {
              "number": 10,
              "ticks": 254472,
              "time": 271.87205315,
              "value": 0.2755905511811024
            },
            {
              "number": 10,
              "ticks": 254584,
              "time": 271.9917113833333,
              "value": 0.2677165354330709
            },
            {
              "number": 10,
              "ticks": 254696,
              "time": 272.11136961666665,
              "value": 0.25984251968503935
            },
            {
              "number": 10,
              "ticks": 254809,
              "time": 272.23209622708333,
              "value": 0.25196850393700787
            },
            {
              "number": 10,
              "ticks": 254921,
              "time": 272.35175446041666,
              "value": 0.2440944881889764
            },
            {
              "number": 10,
              "ticks": 255033,
              "time": 272.47141269375,
              "value": 0.23622047244094488
            },
            {
              "number": 10,
              "ticks": 255146,
              "time": 272.59213930416666,
              "value": 0.2283464566929134
            },
            {
              "number": 10,
              "ticks": 255258,
              "time": 272.7117975375,
              "value": 0.2204724409448819
            },
            {
              "number": 10,
              "ticks": 255370,
              "time": 272.8314557708333,
              "value": 0.2125984251968504
            },
            {
              "number": 10,
              "ticks": 255483,
              "time": 272.95218238125,
              "value": 0.2047244094488189
            },
            {
              "number": 10,
              "ticks": 255595,
              "time": 273.0718406145833,
              "value": 0.1968503937007874
            },
            {
              "number": 10,
              "ticks": 255707,
              "time": 273.1914988479167,
              "value": 0.1889763779527559
            },
            {
              "number": 10,
              "ticks": 255819,
              "time": 273.31115708125,
              "value": 0.18110236220472442
            },
            {
              "number": 10,
              "ticks": 255932,
              "time": 273.43188369166666,
              "value": 0.1732283464566929
            },
            {
              "number": 10,
              "ticks": 256044,
              "time": 273.551541925,
              "value": 0.16535433070866143
            },
            {
              "number": 10,
              "ticks": 256156,
              "time": 273.6712001583333,
              "value": 0.15748031496062992
            },
            {
              "number": 10,
              "ticks": 256269,
              "time": 273.79192676875,
              "value": 0.14960629921259844
            },
            {
              "number": 10,
              "ticks": 256381,
              "time": 273.9115850020833,
              "value": 0.14173228346456693
            },
            {
              "number": 10,
              "ticks": 256493,
              "time": 274.03124323541664,
              "value": 0.13385826771653545
            },
            {
              "number": 10,
              "ticks": 256606,
              "time": 274.1519698458333,
              "value": 0.12598425196850394
            },
            {
              "number": 10,
              "ticks": 256718,
              "time": 274.27162807916665,
              "value": 0.11811023622047244
            },
            {
              "number": 10,
              "ticks": 256830,
              "time": 274.3912863125,
              "value": 0.11023622047244094
            },
            {
              "number": 10,
              "ticks": 256943,
              "time": 274.51201292291665,
              "value": 0.10236220472440945
            },
            {
              "number": 10,
              "ticks": 257055,
              "time": 274.63167115625,
              "value": 0.09448818897637795
            },
            {
              "number": 10,
              "ticks": 257167,
              "time": 274.7513293895833,
              "value": 0.08661417322834646
            },
            {
              "number": 10,
              "ticks": 257279,
              "time": 274.8709876229167,
              "value": 0.07874015748031496
            },
            {
              "number": 10,
              "ticks": 257392,
              "time": 274.9917142333333,
              "value": 0.07086614173228346
            },
            {
              "number": 10,
              "ticks": 257504,
              "time": 275.1113724666667,
              "value": 0.06299212598425197
            },
            {
              "number": 10,
              "ticks": 257616,
              "time": 275.2310307,
              "value": 0.05511811023622047
            },
            {
              "number": 10,
              "ticks": 257729,
              "time": 275.35175731041664,
              "value": 0.047244094488188976
            },
            {
              "number": 10,
              "ticks": 257841,
              "time": 275.47141554375,
              "value": 0.03937007874015748
            },
            {
              "number": 10,
              "ticks": 257953,
              "time": 275.5910737770833,
              "value": 0.031496062992125984
            },
            {
              "number": 10,
              "ticks": 258066,
              "time": 275.71180038750003,
              "value": 0.023622047244094488
            },
            {
              "number": 10,
              "ticks": 258178,
              "time": 275.8314586208333,
              "value": 0.015748031496062992
            },
            {
              "number": 10,
              "ticks": 258290,
              "time": 275.9511168541666,
              "value": 0.007874015748031496
            },
            {
              "number": 10,
              "ticks": 258403,
              "time": 276.0718434645833,
              "value": 0
            },
            {
              "number": 10,
              "ticks": 258410,
              "time": 276.07932210416664,
              "value": 0
            },
            {
              "number": 10,
              "ticks": 258418,
              "time": 276.0878691208333,
              "value": 0.007874015748031496
            },
            {
              "number": 10,
              "ticks": 258426,
              "time": 276.0964161375,
              "value": 0.015748031496062992
            },
            {
              "number": 10,
              "ticks": 258433,
              "time": 276.10389477708327,
              "value": 0.023622047244094488
            },
            {
              "number": 10,
              "ticks": 258441,
              "time": 276.11244179375,
              "value": 0.031496062992125984
            },
            {
              "number": 10,
              "ticks": 258449,
              "time": 276.1209888104167,
              "value": 0.03937007874015748
            },
            {
              "number": 10,
              "ticks": 258456,
              "time": 276.12846745,
              "value": 0.047244094488188976
            },
            {
              "number": 10,
              "ticks": 258465,
              "time": 276.13808284375,
              "value": 0.05511811023622047
            },
            {
              "number": 10,
              "ticks": 258472,
              "time": 276.1455614833333,
              "value": 0.06299212598425197
            },
            {
              "number": 10,
              "ticks": 258479,
              "time": 276.15304012291665,
              "value": 0.07086614173228346
            },
            {
              "number": 10,
              "ticks": 258488,
              "time": 276.16265551666663,
              "value": 0.07874015748031496
            },
            {
              "number": 10,
              "ticks": 258495,
              "time": 276.17013415624996,
              "value": 0.08661417322834646
            },
            {
              "number": 10,
              "ticks": 258503,
              "time": 276.17868117291664,
              "value": 0.09448818897637795
            },
            {
              "number": 10,
              "ticks": 258510,
              "time": 276.18615981249997,
              "value": 0.10236220472440945
            },
            {
              "number": 10,
              "ticks": 258518,
              "time": 276.19470682916665,
              "value": 0.11023622047244094
            },
            {
              "number": 10,
              "ticks": 258526,
              "time": 276.20325384583333,
              "value": 0.11811023622047244
            },
            {
              "number": 10,
              "ticks": 258533,
              "time": 276.21073248541666,
              "value": 0.12598425196850394
            },
            {
              "number": 10,
              "ticks": 258542,
              "time": 276.2203478791667,
              "value": 0.13385826771653545
            },
            {
              "number": 10,
              "ticks": 258549,
              "time": 276.22782651874996,
              "value": 0.14173228346456693
            },
            {
              "number": 10,
              "ticks": 258556,
              "time": 276.2353051583333,
              "value": 0.14960629921259844
            },
            {
              "number": 10,
              "ticks": 258565,
              "time": 276.24492055208333,
              "value": 0.15748031496062992
            },
            {
              "number": 10,
              "ticks": 258572,
              "time": 276.25239919166665,
              "value": 0.16535433070866143
            },
            {
              "number": 10,
              "ticks": 258579,
              "time": 276.25987783125,
              "value": 0.1732283464566929
            },
            {
              "number": 10,
              "ticks": 258587,
              "time": 276.26842484791666,
              "value": 0.18110236220472442
            },
            {
              "number": 10,
              "ticks": 258595,
              "time": 276.27697186458334,
              "value": 0.1889763779527559
            },
            {
              "number": 10,
              "ticks": 258603,
              "time": 276.28551888124997,
              "value": 0.1968503937007874
            },
            {
              "number": 10,
              "ticks": 258610,
              "time": 276.29299752083335,
              "value": 0.2047244094488189
            },
            {
              "number": 10,
              "ticks": 258618,
              "time": 276.3015445375,
              "value": 0.2125984251968504
            },
            {
              "number": 10,
              "ticks": 258626,
              "time": 276.31009155416666,
              "value": 0.2204724409448819
            },
            {
              "number": 10,
              "ticks": 258633,
              "time": 276.31757019375,
              "value": 0.2283464566929134
            },
            {
              "number": 10,
              "ticks": 258642,
              "time": 276.32718558749997,
              "value": 0.23622047244094488
            },
            {
              "number": 10,
              "ticks": 258649,
              "time": 276.3346642270833,
              "value": 0.2440944881889764
            },
            {
              "number": 10,
              "ticks": 258656,
              "time": 276.3421428666667,
              "value": 0.25196850393700787
            },
            {
              "number": 10,
              "ticks": 258665,
              "time": 276.35175826041666,
              "value": 0.25984251968503935
            },
            {
              "number": 10,
              "ticks": 258672,
              "time": 276.3592369,
              "value": 0.2677165354330709
            },
            {
              "number": 10,
              "ticks": 258680,
              "time": 276.3677839166666,
              "value": 0.2755905511811024
            },
            {
              "number": 10,
              "ticks": 258687,
              "time": 276.37526255625,
              "value": 0.28346456692913385
            },
            {
              "number": 10,
              "ticks": 258695,
              "time": 276.3838095729166,
              "value": 0.29133858267716534
            },
            {
              "number": 10,
              "ticks": 258703,
              "time": 276.3923565895833,
              "value": 0.2992125984251969
            },
            {
              "number": 10,
              "ticks": 258710,
              "time": 276.3998352291666,
              "value": 0.30708661417322836
            },
            {
              "number": 10,
              "ticks": 258719,
              "time": 276.40945062291667,
              "value": 0.31496062992125984
            },
            {
              "number": 10,
              "ticks": 258726,
              "time": 276.4169292625,
              "value": 0.3228346456692913
            },
            {
              "number": 10,
              "ticks": 258733,
              "time": 276.4244079020833,
              "value": 0.33070866141732286
            },
            {
              "number": 10,
              "ticks": 258742,
              "time": 276.4340232958333,
              "value": 0.33858267716535434
            },
            {
              "number": 10,
              "ticks": 258749,
              "time": 276.4415019354167,
              "value": 0.3464566929133858
            },
            {
              "number": 10,
              "ticks": 258756,
              "time": 276.448980575,
              "value": 0.3543307086614173
            },
            {
              "number": 10,
              "ticks": 258765,
              "time": 276.45859596875,
              "value": 0.36220472440944884
            },
            {
              "number": 10,
              "ticks": 258772,
              "time": 276.4660746083333,
              "value": 0.3700787401574803
            },
            {
              "number": 10,
              "ticks": 258780,
              "time": 276.474621625,
              "value": 0.3779527559055118
            },
            {
              "number": 10,
              "ticks": 258787,
              "time": 276.4821002645833,
              "value": 0.3858267716535433
            },
            {
              "number": 10,
              "ticks": 258795,
              "time": 276.49064728125,
              "value": 0.3937007874015748
            },
            {
              "number": 10,
              "ticks": 258803,
              "time": 276.49919429791663,
              "value": 0.4015748031496063
            },
            {
              "number": 10,
              "ticks": 258810,
              "time": 276.50667293749996,
              "value": 0.4094488188976378
            },
            {
              "number": 10,
              "ticks": 258819,
              "time": 276.51628833124994,
              "value": 0.41732283464566927
            },
            {
              "number": 10,
              "ticks": 258826,
              "time": 276.5237669708333,
              "value": 0.4251968503937008
            },
            {
              "number": 10,
              "ticks": 258833,
              "time": 276.53124561041665,
              "value": 0.4330708661417323
            },
            {
              "number": 10,
              "ticks": 258842,
              "time": 276.5408610041667,
              "value": 0.4409448818897638
            },
            {
              "number": 10,
              "ticks": 258849,
              "time": 276.54833964374996,
              "value": 0.44881889763779526
            },
            {
              "number": 10,
              "ticks": 258857,
              "time": 276.5568866604167,
              "value": 0.4566929133858268
            },
            {
              "number": 10,
              "ticks": 258864,
              "time": 276.56436529999996,
              "value": 0.4645669291338583
            },
            {
              "number": 10,
              "ticks": 258872,
              "time": 276.5729123166667,
              "value": 0.47244094488188976
            },
            {
              "number": 10,
              "ticks": 258880,
              "time": 276.5814593333333,
              "value": 0.48031496062992124
            },
            {
              "number": 10,
              "ticks": 258887,
              "time": 276.58893797291665,
              "value": 0.4881889763779528
            },
            {
              "number": 10,
              "ticks": 258895,
              "time": 276.59748498958334,
              "value": 0.5039370078740157
            },
            {
              "number": 10,
              "ticks": 259007,
              "time": 276.71714322291666,
              "value": 0.49606299212598426
            },
            {
              "number": 10,
              "ticks": 259120,
              "time": 276.83786983333334,
              "value": 0.4881889763779528
            },
            {
              "number": 10,
              "ticks": 259232,
              "time": 276.95752806666667,
              "value": 0.48031496062992124
            },
            {
              "number": 10,
              "ticks": 259344,
              "time": 277.07718629999994,
              "value": 0.47244094488188976
            },
            {
              "number": 10,
              "ticks": 259457,
              "time": 277.1979129104167,
              "value": 0.4645669291338583
            },
            {
              "number": 10,
              "ticks": 259569,
              "time": 277.31757114374994,
              "value": 0.4566929133858268
            },
            {
              "number": 10,
              "ticks": 259681,
              "time": 277.4372293770833,
              "value": 0.44881889763779526
            },
            {
              "number": 10,
              "ticks": 259793,
              "time": 277.55688761041665,
              "value": 0.4409448818897638
            },
            {
              "number": 10,
              "ticks": 259906,
              "time": 277.6776142208333,
              "value": 0.4330708661417323
            },
            {
              "number": 10,
              "ticks": 260018,
              "time": 277.79727245416666,
              "value": 0.4251968503937008
            },
            {
              "number": 10,
              "ticks": 260130,
              "time": 277.9169306875,
              "value": 0.41732283464566927
            },
            {
              "number": 10,
              "ticks": 260243,
              "time": 278.03765729791667,
              "value": 0.4094488188976378
            },
            {
              "number": 10,
              "ticks": 260355,
              "time": 278.15731553125,
              "value": 0.4015748031496063
            },
            {
              "number": 10,
              "ticks": 260467,
              "time": 278.2769737645833,
              "value": 0.3937007874015748
            },
            {
              "number": 10,
              "ticks": 260580,
              "time": 278.397700375,
              "value": 0.3858267716535433
            },
            {
              "number": 10,
              "ticks": 260692,
              "time": 278.5173586083333,
              "value": 0.3779527559055118
            },
            {
              "number": 10,
              "ticks": 260804,
              "time": 278.63701684166665,
              "value": 0.3700787401574803
            },
            {
              "number": 10,
              "ticks": 260916,
              "time": 278.75667507500003,
              "value": 0.36220472440944884
            },
            {
              "number": 10,
              "ticks": 261029,
              "time": 278.87740168541666,
              "value": 0.3543307086614173
            },
            {
              "number": 10,
              "ticks": 261141,
              "time": 278.99705991875,
              "value": 0.3464566929133858
            },
            {
              "number": 10,
              "ticks": 261253,
              "time": 279.1167181520833,
              "value": 0.33858267716535434
            },
            {
              "number": 10,
              "ticks": 261366,
              "time": 279.2374447625,
              "value": 0.33070866141732286
            },
            {
              "number": 10,
              "ticks": 261478,
              "time": 279.3571029958333,
              "value": 0.3228346456692913
            },
            {
              "number": 10,
              "ticks": 261590,
              "time": 279.47676122916664,
              "value": 0.31496062992125984
            },
            {
              "number": 10,
              "ticks": 261703,
              "time": 279.59748783958327,
              "value": 0.30708661417322836
            },
            {
              "number": 10,
              "ticks": 261815,
              "time": 279.71714607291665,
              "value": 0.2992125984251969
            },
            {
              "number": 10,
              "ticks": 261927,
              "time": 279.83680430625,
              "value": 0.29133858267716534
            },
            {
              "number": 10,
              "ticks": 262040,
              "time": 279.95753091666666,
              "value": 0.28346456692913385
            },
            {
              "number": 10,
              "ticks": 262152,
              "time": 280.07718915,
              "value": 0.2755905511811024
            },
            {
              "number": 10,
              "ticks": 262264,
              "time": 280.1968473833333,
              "value": 0.2677165354330709
            },
            {
              "number": 10,
              "ticks": 262376,
              "time": 280.31650561666663,
              "value": 0.25984251968503935
            },
            {
              "number": 10,
              "ticks": 262489,
              "time": 280.4372322270833,
              "value": 0.25196850393700787
            },
            {
              "number": 10,
              "ticks": 262601,
              "time": 280.55689046041664,
              "value": 0.2440944881889764
            },
            {
              "number": 10,
              "ticks": 262713,
              "time": 280.67654869375,
              "value": 0.23622047244094488
            },
            {
              "number": 10,
              "ticks": 262826,
              "time": 280.79727530416665,
              "value": 0.2283464566929134
            },
            {
              "number": 10,
              "ticks": 262938,
              "time": 280.9169335375,
              "value": 0.2204724409448819
            },
            {
              "number": 10,
              "ticks": 263050,
              "time": 281.03659177083335,
              "value": 0.2125984251968504
            },
            {
              "number": 10,
              "ticks": 263163,
              "time": 281.15731838125,
              "value": 0.2047244094488189
            },
            {
              "number": 10,
              "ticks": 263275,
              "time": 281.27697661458336,
              "value": 0.1968503937007874
            },
            {
              "number": 10,
              "ticks": 263387,
              "time": 281.3966348479167,
              "value": 0.1889763779527559
            },
            {
              "number": 10,
              "ticks": 263499,
              "time": 281.51629308124996,
              "value": 0.18110236220472442
            },
            {
              "number": 10,
              "ticks": 263612,
              "time": 281.6370196916667,
              "value": 0.1732283464566929
            },
            {
              "number": 10,
              "ticks": 263724,
              "time": 281.75667792499996,
              "value": 0.16535433070866143
            },
            {
              "number": 10,
              "ticks": 263836,
              "time": 281.8763361583333,
              "value": 0.15748031496062992
            },
            {
              "number": 10,
              "ticks": 263949,
              "time": 281.99706276874997,
              "value": 0.14960629921259844
            },
            {
              "number": 10,
              "ticks": 264061,
              "time": 282.1167210020833,
              "value": 0.14173228346456693
            },
            {
              "number": 10,
              "ticks": 264173,
              "time": 282.2363792354166,
              "value": 0.13385826771653545
            },
            {
              "number": 10,
              "ticks": 264285,
              "time": 282.35603746875,
              "value": 0.12598425196850394
            },
            {
              "number": 10,
              "ticks": 264398,
              "time": 282.4767640791666,
              "value": 0.11811023622047244
            },
            {
              "number": 10,
              "ticks": 264510,
              "time": 282.5964223125,
              "value": 0.11023622047244094
            },
            {
              "number": 10,
              "ticks": 264623,
              "time": 282.71714892291664,
              "value": 0.10236220472440945
            },
            {
              "number": 10,
              "ticks": 264735,
              "time": 282.83680715624996,
              "value": 0.09448818897637795
            },
            {
              "number": 10,
              "ticks": 264847,
              "time": 282.95646538958334,
              "value": 0.08661417322834646
            },
            {
              "number": 10,
              "ticks": 264959,
              "time": 283.07612362291667,
              "value": 0.07874015748031496
            },
            {
              "number": 10,
              "ticks": 265072,
              "time": 283.19685023333335,
              "value": 0.07086614173228346
            },
            {
              "number": 10,
              "ticks": 265184,
              "time": 283.3165084666667,
              "value": 0.06299212598425197
            },
            {
              "number": 10,
              "ticks": 265296,
              "time": 283.4361667,
              "value": 0.05511811023622047
            },
            {
              "number": 10,
              "ticks": 265409,
              "time": 283.5568933104167,
              "value": 0.047244094488188976
            },
            {
              "number": 10,
              "ticks": 265521,
              "time": 283.67655154375,
              "value": 0.03937007874015748
            },
            {
              "number": 10,
              "ticks": 265633,
              "time": 283.7962097770833,
              "value": 0.031496062992125984
            },
            {
              "number": 10,
              "ticks": 265745,
              "time": 283.91586801041666,
              "value": 0.023622047244094488
            },
            {
              "number": 10,
              "ticks": 265858,
              "time": 284.0365946208333,
              "value": 0.015748031496062992
            },
            {
              "number": 10,
              "ticks": 265970,
              "time": 284.1562528541666,
              "value": 0.007874015748031496
            },
            {
              "number": 10,
              "ticks": 266083,
              "time": 284.2769794645833,
              "value": 0
            },
            {
              "number": 10,
              "ticks": 266090,
              "time": 284.2844581041666,
              "value": 0
            },
            {
              "number": 10,
              "ticks": 266098,
              "time": 284.2930051208333,
              "value": 0.007874015748031496
            },
            {
              "number": 10,
              "ticks": 266106,
              "time": 284.3015521375,
              "value": 0.015748031496062992
            },
            {
              "number": 10,
              "ticks": 266113,
              "time": 284.3090307770833,
              "value": 0.023622047244094488
            },
            {
              "number": 10,
              "ticks": 266121,
              "time": 284.31757779375,
              "value": 0.031496062992125984
            },
            {
              "number": 10,
              "ticks": 266129,
              "time": 284.3261248104167,
              "value": 0.03937007874015748
            },
            {
              "number": 10,
              "ticks": 266136,
              "time": 284.33360345,
              "value": 0.047244094488188976
            },
            {
              "number": 10,
              "ticks": 266145,
              "time": 284.34321884375,
              "value": 0.05511811023622047
            },
            {
              "number": 10,
              "ticks": 266152,
              "time": 284.3506974833333,
              "value": 0.06299212598425197
            },
            {
              "number": 10,
              "ticks": 266159,
              "time": 284.3581761229167,
              "value": 0.07086614173228346
            },
            {
              "number": 10,
              "ticks": 266167,
              "time": 284.3667231395833,
              "value": 0.07874015748031496
            },
            {
              "number": 10,
              "ticks": 266175,
              "time": 284.37527015625,
              "value": 0.08661417322834646
            },
            {
              "number": 10,
              "ticks": 266183,
              "time": 284.3838171729166,
              "value": 0.09448818897637795
            },
            {
              "number": 10,
              "ticks": 266190,
              "time": 284.3912958125,
              "value": 0.10236220472440945
            },
            {
              "number": 10,
              "ticks": 266198,
              "time": 284.39984282916663,
              "value": 0.11023622047244094
            },
            {
              "number": 10,
              "ticks": 266206,
              "time": 284.4083898458333,
              "value": 0.11811023622047244
            },
            {
              "number": 10,
              "ticks": 266213,
              "time": 284.41586848541664,
              "value": 0.12598425196850394
            },
            {
              "number": 10,
              "ticks": 266222,
              "time": 284.4254838791667,
              "value": 0.13385826771653545
            },
            {
              "number": 10,
              "ticks": 266229,
              "time": 284.43296251874995,
              "value": 0.14173228346456693
            },
            {
              "number": 10,
              "ticks": 266236,
              "time": 284.44044115833333,
              "value": 0.14960629921259844
            },
            {
              "number": 10,
              "ticks": 266245,
              "time": 284.4500565520833,
              "value": 0.15748031496062992
            },
            {
              "number": 10,
              "ticks": 266252,
              "time": 284.4575351916667,
              "value": 0.16535433070866143
            },
            {
              "number": 10,
              "ticks": 266259,
              "time": 284.46501383124996,
              "value": 0.1732283464566929
            },
            {
              "number": 10,
              "ticks": 266267,
              "time": 284.4735608479167,
              "value": 0.18110236220472442
            },
            {
              "number": 10,
              "ticks": 266275,
              "time": 284.4821078645833,
              "value": 0.1889763779527559
            },
            {
              "number": 10,
              "ticks": 266283,
              "time": 284.49065488125,
              "value": 0.1968503937007874
            },
            {
              "number": 10,
              "ticks": 266290,
              "time": 284.49813352083333,
              "value": 0.2047244094488189
            },
            {
              "number": 10,
              "ticks": 266298,
              "time": 284.5066805375,
              "value": 0.2125984251968504
            },
            {
              "number": 10,
              "ticks": 266306,
              "time": 284.51522755416664,
              "value": 0.2204724409448819
            },
            {
              "number": 10,
              "ticks": 266313,
              "time": 284.52270619374997,
              "value": 0.2283464566929134
            },
            {
              "number": 10,
              "ticks": 266322,
              "time": 284.53232158749995,
              "value": 0.23622047244094488
            },
            {
              "number": 10,
              "ticks": 266329,
              "time": 284.53980022708333,
              "value": 0.2440944881889764
            },
            {
              "number": 10,
              "ticks": 266336,
              "time": 284.54727886666666,
              "value": 0.25196850393700787
            },
            {
              "number": 10,
              "ticks": 266345,
              "time": 284.55689426041664,
              "value": 0.25984251968503935
            },
            {
              "number": 10,
              "ticks": 266352,
              "time": 284.56437289999997,
              "value": 0.2677165354330709
            },
            {
              "number": 10,
              "ticks": 266360,
              "time": 284.57291991666665,
              "value": 0.2755905511811024
            },
            {
              "number": 10,
              "ticks": 266367,
              "time": 284.58039855625,
              "value": 0.28346456692913385
            },
            {
              "number": 10,
              "ticks": 266375,
              "time": 284.58894557291666,
              "value": 0.29133858267716534
            },
            {
              "number": 10,
              "ticks": 266383,
              "time": 284.5974925895833,
              "value": 0.2992125984251969
            },
            {
              "number": 10,
              "ticks": 266390,
              "time": 284.6049712291666,
              "value": 0.30708661417322836
            },
            {
              "number": 10,
              "ticks": 266399,
              "time": 284.61458662291665,
              "value": 0.31496062992125984
            },
            {
              "number": 10,
              "ticks": 266406,
              "time": 284.62206526250003,
              "value": 0.3228346456692913
            },
            {
              "number": 10,
              "ticks": 266413,
              "time": 284.6295439020833,
              "value": 0.33070866141732286
            },
            {
              "number": 10,
              "ticks": 266422,
              "time": 284.63915929583334,
              "value": 0.33858267716535434
            },
            {
              "number": 10,
              "ticks": 266429,
              "time": 284.64663793541666,
              "value": 0.3464566929133858
            },
            {
              "number": 10,
              "ticks": 266436,
              "time": 284.654116575,
              "value": 0.3543307086614173
            },
            {
              "number": 10,
              "ticks": 266445,
              "time": 284.66373196874997,
              "value": 0.36220472440944884
            },
            {
              "number": 10,
              "ticks": 266452,
              "time": 284.6712106083333,
              "value": 0.3700787401574803
            },
            {
              "number": 10,
              "ticks": 266460,
              "time": 284.679757625,
              "value": 0.3779527559055118
            },
            {
              "number": 10,
              "ticks": 266467,
              "time": 284.6872362645833,
              "value": 0.3858267716535433
            },
            {
              "number": 10,
              "ticks": 266475,
              "time": 284.69578328125,
              "value": 0.3937007874015748
            },
            {
              "number": 10,
              "ticks": 266483,
              "time": 284.70433029791667,
              "value": 0.4015748031496063
            },
            {
              "number": 10,
              "ticks": 266490,
              "time": 284.7118089375,
              "value": 0.4094488188976378
            },
            {
              "number": 10,
              "ticks": 266499,
              "time": 284.72142433125,
              "value": 0.41732283464566927
            },
            {
              "number": 10,
              "ticks": 266506,
              "time": 284.7289029708333,
              "value": 0.4251968503937008
            },
            {
              "number": 10,
              "ticks": 266513,
              "time": 284.73638161041663,
              "value": 0.4330708661417323
            },
            {
              "number": 10,
              "ticks": 266522,
              "time": 284.74599700416667,
              "value": 0.4409448818897638
            },
            {
              "number": 10,
              "ticks": 266529,
              "time": 284.75347564374994,
              "value": 0.44881889763779526
            },
            {
              "number": 10,
              "ticks": 266537,
              "time": 284.7620226604167,
              "value": 0.4566929133858268
            },
            {
              "number": 10,
              "ticks": 266544,
              "time": 284.76950129999994,
              "value": 0.4645669291338583
            },
            {
              "number": 10,
              "ticks": 266552,
              "time": 284.7780483166667,
              "value": 0.47244094488188976
            },
            {
              "number": 10,
              "ticks": 266560,
              "time": 284.7865953333333,
              "value": 0.48031496062992124
            },
            {
              "number": 10,
              "ticks": 266567,
              "time": 284.7940739729167,
              "value": 0.4881889763779528
            },
            {
              "number": 10,
              "ticks": 266575,
              "time": 284.8026209895833,
              "value": 0.5039370078740157
            }
          ],
          "11": [
            {
              "number": 11,
              "ticks": 1300,
              "time": 1.3888902083333334,
              "value": 1
            },
            {
              "number": 11,
              "ticks": 259225,
              "time": 276.95004942708334,
              "value": 1
            },
            {
              "number": 11,
              "ticks": 259344,
              "time": 277.07718629999994,
              "value": 0.9921259842519685
            },
            {
              "number": 11,
              "ticks": 259445,
              "time": 277.1850923854166,
              "value": 0.984251968503937
            },
            {
              "number": 11,
              "ticks": 259545,
              "time": 277.29193009375,
              "value": 0.9763779527559056
            },
            {
              "number": 11,
              "ticks": 259665,
              "time": 277.42013534374996,
              "value": 0.968503937007874
            },
            {
              "number": 11,
              "ticks": 259765,
              "time": 277.52697305208335,
              "value": 0.9606299212598425
            },
            {
              "number": 11,
              "ticks": 259865,
              "time": 277.6338107604166,
              "value": 0.952755905511811
            },
            {
              "number": 11,
              "ticks": 259965,
              "time": 277.74064846875,
              "value": 0.9448818897637795
            },
            {
              "number": 11,
              "ticks": 260085,
              "time": 277.86885371874996,
              "value": 0.937007874015748
            },
            {
              "number": 11,
              "ticks": 260185,
              "time": 277.97569142708335,
              "value": 0.9291338582677166
            },
            {
              "number": 11,
              "ticks": 260285,
              "time": 278.0825291354166,
              "value": 0.9212598425196851
            },
            {
              "number": 11,
              "ticks": 260385,
              "time": 278.18936684375,
              "value": 0.9133858267716536
            },
            {
              "number": 11,
              "ticks": 260505,
              "time": 278.31757209374996,
              "value": 0.905511811023622
            },
            {
              "number": 11,
              "ticks": 260605,
              "time": 278.42440980208335,
              "value": 0.8976377952755905
            },
            {
              "number": 11,
              "ticks": 260705,
              "time": 278.5312475104166,
              "value": 0.889763779527559
            },
            {
              "number": 11,
              "ticks": 260804,
              "time": 278.63701684166665,
              "value": 0.8818897637795275
            },
            {
              "number": 11,
              "ticks": 260925,
              "time": 278.76629046874996,
              "value": 0.8740157480314961
            },
            {
              "number": 11,
              "ticks": 261025,
              "time": 278.87312817708334,
              "value": 0.8661417322834646
            },
            {
              "number": 11,
              "ticks": 261125,
              "time": 278.9799658854166,
              "value": 0.8582677165354331
            },
            {
              "number": 11,
              "ticks": 261225,
              "time": 279.08680359375,
              "value": 0.8503937007874016
            },
            {
              "number": 11,
              "ticks": 261345,
              "time": 279.21500884374996,
              "value": 0.84251968503937
            },
            {
              "number": 11,
              "ticks": 261445,
              "time": 279.32184655208334,
              "value": 0.8346456692913385
            },
            {
              "number": 11,
              "ticks": 261545,
              "time": 279.4286842604166,
              "value": 0.8267716535433071
            },
            {
              "number": 11,
              "ticks": 261645,
              "time": 279.53552196875,
              "value": 0.8188976377952756
            },
            {
              "number": 11,
              "ticks": 261765,
              "time": 279.66372721875,
              "value": 0.8110236220472441
            },
            {
              "number": 11,
              "ticks": 261865,
              "time": 279.77056492708334,
              "value": 0.8031496062992126
            },
            {
              "number": 11,
              "ticks": 261965,
              "time": 279.8774026354166,
              "value": 0.7952755905511811
            },
            {
              "number": 11,
              "ticks": 262065,
              "time": 279.98424034375,
              "value": 0.7874015748031497
            },
            {
              "number": 11,
              "ticks": 262185,
              "time": 280.11244559375,
              "value": 0.7795275590551181
            },
            {
              "number": 11,
              "ticks": 262285,
              "time": 280.21928330208334,
              "value": 0.7716535433070866
            },
            {
              "number": 11,
              "ticks": 262385,
              "time": 280.3261210104166,
              "value": 0.7637795275590551
            },
            {
              "number": 11,
              "ticks": 262485,
              "time": 280.43295871875,
              "value": 0.7559055118110236
            },
            {
              "number": 11,
              "ticks": 262605,
              "time": 280.56116396875,
              "value": 0.7480314960629921
            },
            {
              "number": 11,
              "ticks": 262705,
              "time": 280.66800167708334,
              "value": 0.7401574803149606
            },
            {
              "number": 11,
              "ticks": 262805,
              "time": 280.7748393854166,
              "value": 0.7322834645669292
            },
            {
              "number": 11,
              "ticks": 262905,
              "time": 280.88167709375,
              "value": 0.7244094488188977
            },
            {
              "number": 11,
              "ticks": 263025,
              "time": 281.00988234375,
              "value": 0.7165354330708661
            },
            {
              "number": 11,
              "ticks": 263125,
              "time": 281.11672005208334,
              "value": 0.7086614173228346
            },
            {
              "number": 11,
              "ticks": 263225,
              "time": 281.2235577604166,
              "value": 0.7007874015748031
            },
            {
              "number": 11,
              "ticks": 263325,
              "time": 281.33039546875,
              "value": 0.6929133858267716
            },
            {
              "number": 11,
              "ticks": 263445,
              "time": 281.45860071875,
              "value": 0.6850393700787402
            },
            {
              "number": 11,
              "ticks": 263545,
              "time": 281.56543842708334,
              "value": 0.6771653543307087
            },
            {
              "number": 11,
              "ticks": 263645,
              "time": 281.6722761354166,
              "value": 0.6692913385826772
            },
            {
              "number": 11,
              "ticks": 263745,
              "time": 281.77911384375,
              "value": 0.6614173228346457
            },
            {
              "number": 11,
              "ticks": 263865,
              "time": 281.90731909375,
              "value": 0.6535433070866141
            },
            {
              "number": 11,
              "ticks": 263965,
              "time": 282.01415680208333,
              "value": 0.6456692913385826
            },
            {
              "number": 11,
              "ticks": 264065,
              "time": 282.1209945104166,
              "value": 0.6377952755905512
            },
            {
              "number": 11,
              "ticks": 264165,
              "time": 282.22783221875,
              "value": 0.6299212598425197
            },
            {
              "number": 11,
              "ticks": 264285,
              "time": 282.35603746875,
              "value": 0.6220472440944882
            },
            {
              "number": 11,
              "ticks": 264385,
              "time": 282.46287517708333,
              "value": 0.6141732283464567
            },
            {
              "number": 11,
              "ticks": 264485,
              "time": 282.5697128854166,
              "value": 0.6062992125984252
            },
            {
              "number": 11,
              "ticks": 264585,
              "time": 282.67655059375,
              "value": 0.5984251968503937
            },
            {
              "number": 11,
              "ticks": 264705,
              "time": 282.80475584375,
              "value": 0.5905511811023622
            },
            {
              "number": 11,
              "ticks": 264805,
              "time": 282.91159355208333,
              "value": 0.5826771653543307
            },
            {
              "number": 11,
              "ticks": 264905,
              "time": 283.0184312604166,
              "value": 0.5748031496062992
            },
            {
              "number": 11,
              "ticks": 265005,
              "time": 283.12526896875,
              "value": 0.5669291338582677
            },
            {
              "number": 11,
              "ticks": 265125,
              "time": 283.25347421875,
              "value": 0.5590551181102362
            },
            {
              "number": 11,
              "ticks": 265225,
              "time": 283.36031192708333,
              "value": 0.5511811023622047
            },
            {
              "number": 11,
              "ticks": 265325,
              "time": 283.4671496354166,
              "value": 0.5433070866141733
            },
            {
              "number": 11,
              "ticks": 265425,
              "time": 283.57398734375,
              "value": 0.5354330708661418
            },
            {
              "number": 11,
              "ticks": 265545,
              "time": 283.70219259375,
              "value": 0.5275590551181102
            },
            {
              "number": 11,
              "ticks": 265645,
              "time": 283.80903030208333,
              "value": 0.5196850393700787
            },
            {
              "number": 11,
              "ticks": 265745,
              "time": 283.91586801041666,
              "value": 0.5118110236220472
            },
            {
              "number": 11,
              "ticks": 265845,
              "time": 284.02270571875,
              "value": 0.5039370078740157
            },
            {
              "number": 11,
              "ticks": 265965,
              "time": 284.15091096875,
              "value": 0.49606299212598426
            },
            {
              "number": 11,
              "ticks": 266065,
              "time": 284.2577486770833,
              "value": 0.4881889763779528
            },
            {
              "number": 11,
              "ticks": 266165,
              "time": 284.36458638541666,
              "value": 0.48031496062992124
            },
            {
              "number": 11,
              "ticks": 266265,
              "time": 284.47142409375,
              "value": 0.47244094488188976
            },
            {
              "number": 11,
              "ticks": 266385,
              "time": 284.59962934375,
              "value": 0.4645669291338583
            },
            {
              "number": 11,
              "ticks": 266485,
              "time": 284.7064670520833,
              "value": 0.4566929133858268
            },
            {
              "number": 11,
              "ticks": 266585,
              "time": 284.81330476041666,
              "value": 0.44881889763779526
            },
            {
              "number": 11,
              "ticks": 266685,
              "time": 284.92014246875,
              "value": 0.4409448818897638
            },
            {
              "number": 11,
              "ticks": 266805,
              "time": 285.04834771875,
              "value": 0.4330708661417323
            },
            {
              "number": 11,
              "ticks": 266905,
              "time": 285.1551854270833,
              "value": 0.4251968503937008
            },
            {
              "number": 11,
              "ticks": 267005,
              "time": 285.26202313541665,
              "value": 0.41732283464566927
            },
            {
              "number": 11,
              "ticks": 267105,
              "time": 285.36886084375,
              "value": 0.4094488188976378
            },
            {
              "number": 11,
              "ticks": 267225,
              "time": 285.49706609375,
              "value": 0.4015748031496063
            },
            {
              "number": 11,
              "ticks": 267325,
              "time": 285.6039038020833,
              "value": 0.3937007874015748
            },
            {
              "number": 11,
              "ticks": 267425,
              "time": 285.71074151041665,
              "value": 0.3858267716535433
            },
            {
              "number": 11,
              "ticks": 267525,
              "time": 285.81757921875,
              "value": 0.3779527559055118
            },
            {
              "number": 11,
              "ticks": 267645,
              "time": 285.94578446875,
              "value": 0.3700787401574803
            },
            {
              "number": 11,
              "ticks": 267745,
              "time": 286.0526221770833,
              "value": 0.36220472440944884
            },
            {
              "number": 11,
              "ticks": 267845,
              "time": 286.15945988541665,
              "value": 0.3543307086614173
            },
            {
              "number": 11,
              "ticks": 267945,
              "time": 286.26629759375,
              "value": 0.3464566929133858
            },
            {
              "number": 11,
              "ticks": 268065,
              "time": 286.39450284375,
              "value": 0.33858267716535434
            },
            {
              "number": 11,
              "ticks": 268165,
              "time": 286.5013405520833,
              "value": 0.33070866141732286
            },
            {
              "number": 11,
              "ticks": 268265,
              "time": 286.60817826041665,
              "value": 0.3228346456692913
            },
            {
              "number": 11,
              "ticks": 268365,
              "time": 286.71501596875,
              "value": 0.31496062992125984
            },
            {
              "number": 11,
              "ticks": 268485,
              "time": 286.84322121875,
              "value": 0.30708661417322836
            },
            {
              "number": 11,
              "ticks": 268585,
              "time": 286.9500589270833,
              "value": 0.2992125984251969
            },
            {
              "number": 11,
              "ticks": 268685,
              "time": 287.05689663541665,
              "value": 0.29133858267716534
            },
            {
              "number": 11,
              "ticks": 268785,
              "time": 287.16373434375,
              "value": 0.28346456692913385
            },
            {
              "number": 11,
              "ticks": 268905,
              "time": 287.29193959375,
              "value": 0.2755905511811024
            },
            {
              "number": 11,
              "ticks": 269005,
              "time": 287.3987773020833,
              "value": 0.2677165354330709
            },
            {
              "number": 11,
              "ticks": 269105,
              "time": 287.50561501041665,
              "value": 0.25984251968503935
            },
            {
              "number": 11,
              "ticks": 269205,
              "time": 287.61245271875,
              "value": 0.25196850393700787
            },
            {
              "number": 11,
              "ticks": 269325,
              "time": 287.74065796875,
              "value": 0.2440944881889764
            },
            {
              "number": 11,
              "ticks": 269425,
              "time": 287.8474956770833,
              "value": 0.23622047244094488
            },
            {
              "number": 11,
              "ticks": 269525,
              "time": 287.95433338541665,
              "value": 0.2283464566929134
            },
            {
              "number": 11,
              "ticks": 269625,
              "time": 288.06117109375,
              "value": 0.2204724409448819
            },
            {
              "number": 11,
              "ticks": 269745,
              "time": 288.18937634375,
              "value": 0.2125984251968504
            },
            {
              "number": 11,
              "ticks": 269845,
              "time": 288.2962140520833,
              "value": 0.2047244094488189
            },
            {
              "number": 11,
              "ticks": 269945,
              "time": 288.40305176041664,
              "value": 0.1968503937007874
            },
            {
              "number": 11,
              "ticks": 270045,
              "time": 288.50988946875,
              "value": 0.1889763779527559
            },
            {
              "number": 11,
              "ticks": 270165,
              "time": 288.63809471875,
              "value": 0.18110236220472442
            },
            {
              "number": 11,
              "ticks": 270265,
              "time": 288.7449324270833,
              "value": 0.1732283464566929
            },
            {
              "number": 11,
              "ticks": 270365,
              "time": 288.85177013541664,
              "value": 0.16535433070866143
            },
            {
              "number": 11,
              "ticks": 270465,
              "time": 288.95860784375,
              "value": 0.15748031496062992
            },
            {
              "number": 11,
              "ticks": 270585,
              "time": 289.08681309375,
              "value": 0.14960629921259844
            },
            {
              "number": 11,
              "ticks": 270685,
              "time": 289.1936508020833,
              "value": 0.14173228346456693
            },
            {
              "number": 11,
              "ticks": 270785,
              "time": 289.30048851041664,
              "value": 0.13385826771653545
            },
            {
              "number": 11,
              "ticks": 270885,
              "time": 289.40732621875,
              "value": 0.12598425196850394
            },
            {
              "number": 11,
              "ticks": 271005,
              "time": 289.53553146875,
              "value": 0.11811023622047244
            },
            {
              "number": 11,
              "ticks": 271105,
              "time": 289.6423691770833,
              "value": 0.11023622047244094
            },
            {
              "number": 11,
              "ticks": 271205,
              "time": 289.74920688541664,
              "value": 0.10236220472440945
            },
            {
              "number": 11,
              "ticks": 271305,
              "time": 289.85604459374997,
              "value": 0.09448818897637795
            },
            {
              "number": 11,
              "ticks": 271425,
              "time": 289.98424984375,
              "value": 0.08661417322834646
            },
            {
              "number": 11,
              "ticks": 271525,
              "time": 290.0910875520833,
              "value": 0.07874015748031496
            },
            {
              "number": 11,
              "ticks": 271625,
              "time": 290.19792526041664,
              "value": 0.07086614173228346
            },
            {
              "number": 11,
              "ticks": 271725,
              "time": 290.30476296874997,
              "value": 0.06299212598425197
            },
            {
              "number": 11,
              "ticks": 271845,
              "time": 290.43296821875,
              "value": 0.05511811023622047
            },
            {
              "number": 11,
              "ticks": 271945,
              "time": 290.53980592708336,
              "value": 0.047244094488188976
            },
            {
              "number": 11,
              "ticks": 272045,
              "time": 290.64664363541664,
              "value": 0.03937007874015748
            },
            {
              "number": 11,
              "ticks": 272145,
              "time": 290.75348134374997,
              "value": 0.031496062992125984
            },
            {
              "number": 11,
              "ticks": 272265,
              "time": 290.88168659375,
              "value": 0.023622047244094488
            },
            {
              "number": 11,
              "ticks": 272365,
              "time": 290.98852430208336,
              "value": 0.015748031496062992
            },
            {
              "number": 11,
              "ticks": 272425,
              "time": 291.05262692708334,
              "value": 0.007874015748031496
            },
            {
              "number": 11,
              "ticks": 272465,
              "time": 291.09536201041664,
              "value": 0
            }
          ],
          "38": [
            {
              "number": 38,
              "ticks": 1583,
              "time": 1.6912409229166665,
              "value": 0
            }
          ],
          "91": [
            {
              "number": 91,
              "ticks": 968,
              "time": 1.0341890166666665,
              "value": 1
            }
          ],
          "93": [
            {
              "number": 93,
              "ticks": 1085,
              "time": 1.1591891354166666,
              "value": 0.23622047244094488
            }
          ],
          "98": [
            {
              "number": 98,
              "ticks": 1578,
              "time": 1.6858990375,
              "value": 0.7795275590551181
            }
          ],
          "99": [
            {
              "number": 99,
              "ticks": 1575,
              "time": 1.68269390625,
              "value": 0.007874015748031496
            }
          ],
          "120": [
            {
              "number": 120,
              "ticks": 272655,
              "time": 291.29835365624996,
              "value": 0
            }
          ],
          "123": [
            {
              "number": 123,
              "ticks": 272785,
              "time": 291.43724267708336,
              "value": 0
            }
          ]
        },
        "pitchBends": [],
        "instrument": {
          "family": "ensemble",
          "number": 49,
          "name": "string ensemble 2"
        },
        "name": "",
        "notes": [
          {
            "duration": 3.0769260000000003,
            "durationTicks": 2880,
            "midi": 74,
            "name": "D5",
            "ticks": 78720,
            "time": 84.102644,
            "velocity": 0.6220472440944882
          },
          {
            "duration": 3.0769260000000003,
            "durationTicks": 2880,
            "midi": 78,
            "name": "F#5",
            "ticks": 78720,
            "time": 84.102644,
            "velocity": 0.6220472440944882
          },
          {
            "duration": 2.0512839999999954,
            "durationTicks": 1920,
            "midi": 81,
            "name": "A5",
            "ticks": 78720,
            "time": 84.102644,
            "velocity": 0.6220472440944882
          },
          {
            "duration": 1.0256420000000048,
            "durationTicks": 960,
            "midi": 83,
            "name": "B5",
            "ticks": 80640,
            "time": 86.153928,
            "velocity": 0.6299212598425197
          },
          {
            "duration": 1.0256419999999906,
            "durationTicks": 960,
            "midi": 77,
            "name": "F5",
            "ticks": 81600,
            "time": 87.17957,
            "velocity": 0.6220472440944882
          },
          {
            "duration": 1.014958229166652,
            "durationTicks": 950,
            "midi": 80,
            "name": "G#5",
            "ticks": 81600,
            "time": 87.17957,
            "velocity": 0.6220472440944882
          },
          {
            "duration": 1.0256419999999906,
            "durationTicks": 960,
            "midi": 85,
            "name": "C#6",
            "ticks": 81600,
            "time": 87.17957,
            "velocity": 0.6299212598425197
          },
          {
            "duration": 0.6410262500000101,
            "durationTicks": 600,
            "midi": 61,
            "name": "C#4",
            "ticks": 82560,
            "time": 88.20521199999999,
            "velocity": 0.6062992125984252
          },
          {
            "duration": 0.6410262500000101,
            "durationTicks": 600,
            "midi": 66,
            "name": "F#4",
            "ticks": 82560,
            "time": 88.20521199999999,
            "velocity": 0.6062992125984252
          },
          {
            "duration": 1.0256420000000048,
            "durationTicks": 960,
            "midi": 63,
            "name": "D#4",
            "ticks": 83280,
            "time": 88.97444349999999,
            "velocity": 0.6062992125984252
          },
          {
            "duration": 1.0256420000000048,
            "durationTicks": 960,
            "midi": 68,
            "name": "G#4",
            "ticks": 83280,
            "time": 88.97444349999999,
            "velocity": 0.6062992125984252
          },
          {
            "duration": 0.6410262499999959,
            "durationTicks": 600,
            "midi": 64,
            "name": "E4",
            "ticks": 84480,
            "time": 90.256496,
            "velocity": 0.6062992125984252
          },
          {
            "duration": 0.6356843645833408,
            "durationTicks": 595,
            "midi": 69,
            "name": "A4",
            "ticks": 84480,
            "time": 90.256496,
            "velocity": 0.6062992125984252
          },
          {
            "duration": 0.90812052083335,
            "durationTicks": 850,
            "midi": 63,
            "name": "D#4",
            "ticks": 85200,
            "time": 91.02572749999999,
            "velocity": 0.6062992125984252
          },
          {
            "duration": 0.9113256520833488,
            "durationTicks": 853,
            "midi": 68,
            "name": "G#4",
            "ticks": 85200,
            "time": 91.02572749999999,
            "velocity": 0.6062992125984252
          },
          {
            "duration": 0.6356843645833408,
            "durationTicks": 595,
            "midi": 61,
            "name": "C#4",
            "ticks": 86400,
            "time": 92.30778,
            "velocity": 0.6062992125984252
          },
          {
            "duration": 0.6410262499999959,
            "durationTicks": 600,
            "midi": 66,
            "name": "F#4",
            "ticks": 86400,
            "time": 92.30778,
            "velocity": 0.6062992125984252
          },
          {
            "duration": 0.7959409270833362,
            "durationTicks": 745,
            "midi": 63,
            "name": "D#4",
            "ticks": 87120,
            "time": 93.0770115,
            "velocity": 0.6062992125984252
          },
          {
            "duration": 0.7831204020833269,
            "durationTicks": 733,
            "midi": 68,
            "name": "G#4",
            "ticks": 87120,
            "time": 93.0770115,
            "velocity": 0.6062992125984252
          },
          {
            "duration": 0.5694449854166805,
            "durationTicks": 533,
            "midi": 64,
            "name": "E4",
            "ticks": 88320,
            "time": 94.35906399999999,
            "velocity": 0.6062992125984252
          },
          {
            "duration": 0.5694449854166805,
            "durationTicks": 533,
            "midi": 69,
            "name": "A4",
            "ticks": 88320,
            "time": 94.35906399999999,
            "velocity": 0.6062992125984252
          },
          {
            "duration": 0.7457272041666698,
            "durationTicks": 698,
            "midi": 63,
            "name": "D#4",
            "ticks": 89040,
            "time": 95.1282955,
            "velocity": 0.6062992125984252
          },
          {
            "duration": 0.7510690895833392,
            "durationTicks": 703,
            "midi": 68,
            "name": "G#4",
            "ticks": 89040,
            "time": 95.1282955,
            "velocity": 0.6062992125984252
          },
          {
            "duration": 4.102567999999991,
            "durationTicks": 3840,
            "midi": 74,
            "name": "D5",
            "ticks": 90240,
            "time": 96.410348,
            "velocity": 0.6062992125984252
          },
          {
            "duration": 4.102567999999991,
            "durationTicks": 3840,
            "midi": 78,
            "name": "F#5",
            "ticks": 90240,
            "time": 96.410348,
            "velocity": 0.6220472440944882
          },
          {
            "duration": 4.102568000000005,
            "durationTicks": 3840,
            "midi": 74,
            "name": "D5",
            "ticks": 97920,
            "time": 104.615484,
            "velocity": 0.6062992125984252
          },
          {
            "duration": 4.102568000000005,
            "durationTicks": 3840,
            "midi": 78,
            "name": "F#5",
            "ticks": 97920,
            "time": 104.615484,
            "velocity": 0.6220472440944882
          },
          {
            "duration": 3.0609003437500064,
            "durationTicks": 2865,
            "midi": 61,
            "name": "C#4",
            "ticks": 105600,
            "time": 112.82061999999999,
            "velocity": 0.984251968503937
          },
          {
            "duration": 0.5427355583333338,
            "durationTicks": 508,
            "midi": 63,
            "name": "D#4",
            "ticks": 108480,
            "time": 115.89754599999999,
            "velocity": 0.984251968503937
          },
          {
            "duration": 0.5267099020833399,
            "durationTicks": 493,
            "midi": 59,
            "name": "B3",
            "ticks": 108960,
            "time": 116.410367,
            "velocity": 0.984251968503937
          },
          {
            "duration": 3.0534217041666665,
            "durationTicks": 2858,
            "midi": 61,
            "name": "C#4",
            "ticks": 109440,
            "time": 116.923188,
            "velocity": 0.984251968503937
          },
          {
            "duration": 0.5235047708333411,
            "durationTicks": 490,
            "midi": 59,
            "name": "B3",
            "ticks": 112320,
            "time": 120.000114,
            "velocity": 0.984251968503937
          },
          {
            "duration": 0.5106842458333318,
            "durationTicks": 478,
            "midi": 57,
            "name": "A3",
            "ticks": 112800,
            "time": 120.512935,
            "velocity": 0.984251968503937
          },
          {
            "duration": 4.091884229166666,
            "durationTicks": 3830,
            "midi": 54,
            "name": "F#3",
            "ticks": 113280,
            "time": 121.02575599999999,
            "velocity": 0.984251968503937
          },
          {
            "duration": 3.0320541625000033,
            "durationTicks": 2838,
            "midi": 61,
            "name": "C#4",
            "ticks": 128640,
            "time": 137.436028,
            "velocity": 0.984251968503937
          },
          {
            "duration": 0.532051787499995,
            "durationTicks": 498,
            "midi": 63,
            "name": "D#4",
            "ticks": 131460,
            "time": 140.448851375,
            "velocity": 0.984251968503937
          },
          {
            "duration": 0.5128210000000024,
            "durationTicks": 480,
            "midi": 59,
            "name": "B3",
            "ticks": 132000,
            "time": 141.02577499999998,
            "velocity": 0.984251968503937
          },
          {
            "duration": 3.0160285062500236,
            "durationTicks": 2823,
            "midi": 61,
            "name": "C#4",
            "ticks": 132480,
            "time": 141.53859599999998,
            "velocity": 0.984251968503937
          },
          {
            "duration": 0.5747868708333215,
            "durationTicks": 538,
            "midi": 59,
            "name": "B3",
            "ticks": 135300,
            "time": 144.551419375,
            "velocity": 0.984251968503937
          },
          {
            "duration": 0.532051787499995,
            "durationTicks": 498,
            "midi": 57,
            "name": "A3",
            "ticks": 135840,
            "time": 145.128343,
            "velocity": 0.9212598425196851
          },
          {
            "duration": 4.068379933333318,
            "durationTicks": 3808,
            "midi": 54,
            "name": "F#3",
            "ticks": 136320,
            "time": 145.641164,
            "velocity": 0.984251968503937
          },
          {
            "duration": 3.2852595312500057,
            "durationTicks": 3075,
            "midi": 78,
            "name": "F#5",
            "ticks": 144000,
            "time": 153.84629999999999,
            "velocity": 0.7165354330708661
          },
          {
            "duration": 0.2831199270833338,
            "durationTicks": 265,
            "midi": 80,
            "name": "G#5",
            "ticks": 147120,
            "time": 157.1796365,
            "velocity": 0.7716535433070866
          },
          {
            "duration": 0.2649575166666409,
            "durationTicks": 248,
            "midi": 81,
            "name": "A5",
            "ticks": 147360,
            "time": 157.436047,
            "velocity": 0.7716535433070866
          },
          {
            "duration": 0.3023507145833264,
            "durationTicks": 283,
            "midi": 85,
            "name": "C#6",
            "ticks": 147600,
            "time": 157.6924575,
            "velocity": 0.7716535433070866
          },
          {
            "duration": 1.2638900895833558,
            "durationTicks": 1183,
            "midi": 78,
            "name": "F#5",
            "ticks": 147900,
            "time": 158.01297062499998,
            "velocity": 0.7165354330708661
          },
          {
            "duration": 0.37713711041664055,
            "durationTicks": 353,
            "midi": 76,
            "name": "E5",
            "ticks": 149100,
            "time": 159.295023125,
            "velocity": 0.7716535433070866
          },
          {
            "duration": 0.38995763541666406,
            "durationTicks": 365,
            "midi": 74,
            "name": "D5",
            "ticks": 149460,
            "time": 159.679638875,
            "velocity": 0.7322834645669292
          },
          {
            "duration": 2.0299164583333322,
            "durationTicks": 1900,
            "midi": 73,
            "name": "C#5",
            "ticks": 149820,
            "time": 160.064254625,
            "velocity": 0.6614173228346457
          },
          {
            "duration": 3.3418835166666554,
            "durationTicks": 3128,
            "midi": 78,
            "name": "F#5",
            "ticks": 151680,
            "time": 162.051436,
            "velocity": 0.7165354330708661
          },
          {
            "duration": 0.27243615624999507,
            "durationTicks": 255,
            "midi": 80,
            "name": "G#5",
            "ticks": 154800,
            "time": 165.3847725,
            "velocity": 0.7716535433070866
          },
          {
            "duration": 0.25106861458331764,
            "durationTicks": 235,
            "midi": 81,
            "name": "A5",
            "ticks": 155040,
            "time": 165.64118299999998,
            "velocity": 0.7716535433070866
          },
          {
            "duration": 0.29700882916665705,
            "durationTicks": 278,
            "midi": 85,
            "name": "C#6",
            "ticks": 155280,
            "time": 165.8975935,
            "velocity": 0.7716535433070866
          },
          {
            "duration": 2.003207031250014,
            "durationTicks": 1875,
            "midi": 78,
            "name": "F#5",
            "ticks": 155580,
            "time": 166.218106625,
            "velocity": 0.6141732283464567
          },
          {
            "duration": 1.8322666979166797,
            "durationTicks": 1715,
            "midi": 81,
            "name": "A5",
            "ticks": 155580,
            "time": 166.218106625,
            "velocity": 0.6377952755905512
          },
          {
            "duration": 0.9433769645833365,
            "durationTicks": 883,
            "midi": 77,
            "name": "F5",
            "ticks": 157440,
            "time": 168.205288,
            "velocity": 0.6299212598425197
          },
          {
            "duration": 1.9049163395833375,
            "durationTicks": 1783,
            "midi": 80,
            "name": "G#5",
            "ticks": 157440,
            "time": 168.205288,
            "velocity": 0.6299212598425197
          },
          {
            "duration": 0.5288466562499821,
            "durationTicks": 495,
            "midi": 78,
            "name": "F#5",
            "ticks": 158400,
            "time": 169.23093,
            "velocity": 0.6299212598425197
          },
          {
            "duration": 0.470085916666676,
            "durationTicks": 440,
            "midi": 77,
            "name": "F5",
            "ticks": 158880,
            "time": 169.743751,
            "velocity": 0.6299212598425197
          },
          {
            "duration": 0.6410262500000101,
            "durationTicks": 600,
            "midi": 61,
            "name": "C#4",
            "ticks": 159360,
            "time": 170.25657199999998,
            "velocity": 0.5590551181102362
          },
          {
            "duration": 0.6410262500000101,
            "durationTicks": 600,
            "midi": 66,
            "name": "F#4",
            "ticks": 159360,
            "time": 170.25657199999998,
            "velocity": 0.5590551181102362
          },
          {
            "duration": 1.0256420000000048,
            "durationTicks": 960,
            "midi": 63,
            "name": "D#4",
            "ticks": 160080,
            "time": 171.0258035,
            "velocity": 0.5590551181102362
          },
          {
            "duration": 1.0256420000000048,
            "durationTicks": 960,
            "midi": 68,
            "name": "G#4",
            "ticks": 160080,
            "time": 171.0258035,
            "velocity": 0.5590551181102362
          },
          {
            "duration": 0.6410262500000101,
            "durationTicks": 600,
            "midi": 64,
            "name": "E4",
            "ticks": 161280,
            "time": 172.307856,
            "velocity": 0.5590551181102362
          },
          {
            "duration": 0.6356843645833408,
            "durationTicks": 595,
            "midi": 69,
            "name": "A4",
            "ticks": 161280,
            "time": 172.307856,
            "velocity": 0.5590551181102362
          },
          {
            "duration": 0.9081205208333358,
            "durationTicks": 850,
            "midi": 63,
            "name": "D#4",
            "ticks": 162000,
            "time": 173.07708749999998,
            "velocity": 0.5590551181102362
          },
          {
            "duration": 0.9113256520833488,
            "durationTicks": 853,
            "midi": 68,
            "name": "G#4",
            "ticks": 162000,
            "time": 173.07708749999998,
            "velocity": 0.5590551181102362
          },
          {
            "duration": 0.6356843645833123,
            "durationTicks": 595,
            "midi": 61,
            "name": "C#4",
            "ticks": 163200,
            "time": 174.35914,
            "velocity": 0.5590551181102362
          },
          {
            "duration": 0.6410262499999817,
            "durationTicks": 600,
            "midi": 66,
            "name": "F#4",
            "ticks": 163200,
            "time": 174.35914,
            "velocity": 0.5590551181102362
          },
          {
            "duration": 0.7959409270833362,
            "durationTicks": 745,
            "midi": 63,
            "name": "D#4",
            "ticks": 163920,
            "time": 175.1283715,
            "velocity": 0.5590551181102362
          },
          {
            "duration": 0.7831204020833411,
            "durationTicks": 733,
            "midi": 68,
            "name": "G#4",
            "ticks": 163920,
            "time": 175.1283715,
            "velocity": 0.5590551181102362
          },
          {
            "duration": 0.5694449854166805,
            "durationTicks": 533,
            "midi": 64,
            "name": "E4",
            "ticks": 165120,
            "time": 176.41042399999998,
            "velocity": 0.5590551181102362
          },
          {
            "duration": 0.5694449854166805,
            "durationTicks": 533,
            "midi": 69,
            "name": "A4",
            "ticks": 165120,
            "time": 176.41042399999998,
            "velocity": 0.5590551181102362
          },
          {
            "duration": 0.7457272041666556,
            "durationTicks": 698,
            "midi": 63,
            "name": "D#4",
            "ticks": 165840,
            "time": 177.1796555,
            "velocity": 0.5590551181102362
          },
          {
            "duration": 0.751069089583325,
            "durationTicks": 703,
            "midi": 68,
            "name": "G#4",
            "ticks": 165840,
            "time": 177.1796555,
            "velocity": 0.5590551181102362
          },
          {
            "duration": 4.102567999999991,
            "durationTicks": 3840,
            "midi": 74,
            "name": "D5",
            "ticks": 167040,
            "time": 178.461708,
            "velocity": 0.5669291338582677
          },
          {
            "duration": 4.102567999999991,
            "durationTicks": 3840,
            "midi": 78,
            "name": "F#5",
            "ticks": 167040,
            "time": 178.461708,
            "velocity": 0.5748031496062992
          },
          {
            "duration": 0.1282052500000077,
            "durationTicks": 120,
            "midi": 85,
            "name": "C#6",
            "ticks": 171840,
            "time": 183.58991799999998,
            "velocity": 1
          },
          {
            "duration": 0.1282052500000077,
            "durationTicks": 120,
            "midi": 81,
            "name": "A5",
            "ticks": 171960,
            "time": 183.71812325,
            "velocity": 1
          },
          {
            "duration": 0.1282052499999793,
            "durationTicks": 120,
            "midi": 78,
            "name": "F#5",
            "ticks": 172080,
            "time": 183.8463285,
            "velocity": 1
          },
          {
            "duration": 0.1282052500000077,
            "durationTicks": 120,
            "midi": 74,
            "name": "D5",
            "ticks": 172200,
            "time": 183.97453374999998,
            "velocity": 1
          },
          {
            "duration": 1.2799157458333354,
            "durationTicks": 1198,
            "midi": 73,
            "name": "C#5",
            "ticks": 172320,
            "time": 184.10273899999999,
            "velocity": 0.7716535433070866
          },
          {
            "duration": 0.21901730208332992,
            "durationTicks": 205,
            "midi": 64,
            "name": "E4",
            "ticks": 173700,
            "time": 185.577099375,
            "velocity": 0.8976377952755905
          },
          {
            "duration": 0.16025656250002385,
            "durationTicks": 150,
            "midi": 66,
            "name": "F#4",
            "ticks": 173940,
            "time": 185.83350987499998,
            "velocity": 0.8976377952755905
          },
          {
            "duration": 0.6410262499999817,
            "durationTicks": 600,
            "midi": 61,
            "name": "C#4",
            "ticks": 174720,
            "time": 186.666844,
            "velocity": 0.5590551181102362
          },
          {
            "duration": 0.6410262499999817,
            "durationTicks": 600,
            "midi": 66,
            "name": "F#4",
            "ticks": 174720,
            "time": 186.666844,
            "velocity": 0.5590551181102362
          },
          {
            "duration": 1.0256420000000048,
            "durationTicks": 960,
            "midi": 63,
            "name": "D#4",
            "ticks": 175440,
            "time": 187.4360755,
            "velocity": 0.5590551181102362
          },
          {
            "duration": 1.0256420000000048,
            "durationTicks": 960,
            "midi": 68,
            "name": "G#4",
            "ticks": 175440,
            "time": 187.4360755,
            "velocity": 0.5590551181102362
          },
          {
            "duration": 0.6410262500000101,
            "durationTicks": 600,
            "midi": 64,
            "name": "E4",
            "ticks": 176640,
            "time": 188.71812799999998,
            "velocity": 0.5590551181102362
          },
          {
            "duration": 0.6356843645833408,
            "durationTicks": 595,
            "midi": 69,
            "name": "A4",
            "ticks": 176640,
            "time": 188.71812799999998,
            "velocity": 0.5590551181102362
          },
          {
            "duration": 0.9081205208333074,
            "durationTicks": 850,
            "midi": 63,
            "name": "D#4",
            "ticks": 177360,
            "time": 189.4873595,
            "velocity": 0.5590551181102362
          },
          {
            "duration": 0.9113256520833204,
            "durationTicks": 853,
            "midi": 68,
            "name": "G#4",
            "ticks": 177360,
            "time": 189.4873595,
            "velocity": 0.5590551181102362
          },
          {
            "duration": 0.6356843645833123,
            "durationTicks": 595,
            "midi": 61,
            "name": "C#4",
            "ticks": 178560,
            "time": 190.769412,
            "velocity": 0.5590551181102362
          },
          {
            "duration": 0.6410262500000101,
            "durationTicks": 600,
            "midi": 66,
            "name": "F#4",
            "ticks": 178560,
            "time": 190.769412,
            "velocity": 0.5590551181102362
          },
          {
            "duration": 0.7959409270833362,
            "durationTicks": 745,
            "midi": 63,
            "name": "D#4",
            "ticks": 179280,
            "time": 191.53864349999998,
            "velocity": 0.5590551181102362
          },
          {
            "duration": 0.7831204020833411,
            "durationTicks": 733,
            "midi": 68,
            "name": "G#4",
            "ticks": 179280,
            "time": 191.53864349999998,
            "velocity": 0.5590551181102362
          },
          {
            "duration": 0.5694449854166521,
            "durationTicks": 533,
            "midi": 64,
            "name": "E4",
            "ticks": 180480,
            "time": 192.820696,
            "velocity": 0.5590551181102362
          },
          {
            "duration": 0.5694449854166521,
            "durationTicks": 533,
            "midi": 69,
            "name": "A4",
            "ticks": 180480,
            "time": 192.820696,
            "velocity": 0.5590551181102362
          },
          {
            "duration": 0.7457272041666556,
            "durationTicks": 698,
            "midi": 63,
            "name": "D#4",
            "ticks": 181200,
            "time": 193.5899275,
            "velocity": 0.5590551181102362
          },
          {
            "duration": 0.751069089583325,
            "durationTicks": 703,
            "midi": 68,
            "name": "G#4",
            "ticks": 181200,
            "time": 193.5899275,
            "velocity": 0.5590551181102362
          },
          {
            "duration": 4.102568000000019,
            "durationTicks": 3840,
            "midi": 74,
            "name": "D5",
            "ticks": 182400,
            "time": 194.87197999999998,
            "velocity": 0.5511811023622047
          },
          {
            "duration": 4.102568000000019,
            "durationTicks": 3840,
            "midi": 78,
            "name": "F#5",
            "ticks": 182400,
            "time": 194.87197999999998,
            "velocity": 0.5748031496062992
          },
          {
            "duration": 0.1282052500000077,
            "durationTicks": 120,
            "midi": 85,
            "name": "C#6",
            "ticks": 187200,
            "time": 200.00018999999998,
            "velocity": 1
          },
          {
            "duration": 0.1282052500000077,
            "durationTicks": 120,
            "midi": 81,
            "name": "A5",
            "ticks": 187320,
            "time": 200.12839524999998,
            "velocity": 1
          },
          {
            "duration": 0.1282052500000077,
            "durationTicks": 120,
            "midi": 78,
            "name": "F#5",
            "ticks": 187440,
            "time": 200.2566005,
            "velocity": 1
          },
          {
            "duration": 0.1282052499999793,
            "durationTicks": 120,
            "midi": 74,
            "name": "D5",
            "ticks": 187560,
            "time": 200.38480575,
            "velocity": 1
          },
          {
            "duration": 1.2799157458333354,
            "durationTicks": 1198,
            "midi": 73,
            "name": "C#5",
            "ticks": 187680,
            "time": 200.51301099999998,
            "velocity": 0.7716535433070866
          },
          {
            "duration": 0.21901730208332992,
            "durationTicks": 205,
            "midi": 64,
            "name": "E4",
            "ticks": 189060,
            "time": 201.98737137499998,
            "velocity": 0.8976377952755905
          },
          {
            "duration": 0.16025656249999543,
            "durationTicks": 150,
            "midi": 66,
            "name": "F#4",
            "ticks": 189300,
            "time": 202.243781875,
            "velocity": 0.8976377952755905
          },
          {
            "duration": 4.102567999999991,
            "durationTicks": 3840,
            "midi": 74,
            "name": "D5",
            "ticks": 190080,
            "time": 203.077116,
            "velocity": 0.5433070866141733
          },
          {
            "duration": 4.102567999999991,
            "durationTicks": 3840,
            "midi": 78,
            "name": "F#5",
            "ticks": 190080,
            "time": 203.077116,
            "velocity": 0.5748031496062992
          },
          {
            "duration": 0.1282052500000077,
            "durationTicks": 120,
            "midi": 85,
            "name": "C#6",
            "ticks": 194880,
            "time": 208.20532599999999,
            "velocity": 1
          },
          {
            "duration": 0.1282052500000077,
            "durationTicks": 120,
            "midi": 81,
            "name": "A5",
            "ticks": 195000,
            "time": 208.33353125,
            "velocity": 1
          },
          {
            "duration": 0.1282052499999793,
            "durationTicks": 120,
            "midi": 78,
            "name": "F#5",
            "ticks": 195120,
            "time": 208.4617365,
            "velocity": 1
          },
          {
            "duration": 0.1282052500000077,
            "durationTicks": 120,
            "midi": 74,
            "name": "D5",
            "ticks": 195240,
            "time": 208.58994174999998,
            "velocity": 1
          },
          {
            "duration": 1.2799157458333354,
            "durationTicks": 1198,
            "midi": 73,
            "name": "C#5",
            "ticks": 195360,
            "time": 208.718147,
            "velocity": 0.7716535433070866
          },
          {
            "duration": 0.21901730208332992,
            "durationTicks": 205,
            "midi": 64,
            "name": "E4",
            "ticks": 196740,
            "time": 210.192507375,
            "velocity": 0.8976377952755905
          },
          {
            "duration": 0.16025656250002385,
            "durationTicks": 150,
            "midi": 66,
            "name": "F#4",
            "ticks": 196980,
            "time": 210.44891787499998,
            "velocity": 0.8976377952755905
          },
          {
            "duration": 0.6410262499999817,
            "durationTicks": 600,
            "midi": 61,
            "name": "C#4",
            "ticks": 197760,
            "time": 211.282252,
            "velocity": 0.5590551181102362
          },
          {
            "duration": 0.6410262499999817,
            "durationTicks": 600,
            "midi": 66,
            "name": "F#4",
            "ticks": 197760,
            "time": 211.282252,
            "velocity": 0.5590551181102362
          },
          {
            "duration": 1.0256420000000048,
            "durationTicks": 960,
            "midi": 63,
            "name": "D#4",
            "ticks": 198480,
            "time": 212.0514835,
            "velocity": 0.5590551181102362
          },
          {
            "duration": 1.0256420000000048,
            "durationTicks": 960,
            "midi": 68,
            "name": "G#4",
            "ticks": 198480,
            "time": 212.0514835,
            "velocity": 0.5590551181102362
          },
          {
            "duration": 0.6410262500000101,
            "durationTicks": 600,
            "midi": 64,
            "name": "E4",
            "ticks": 199680,
            "time": 213.33353599999998,
            "velocity": 0.5590551181102362
          },
          {
            "duration": 0.6356843645833408,
            "durationTicks": 595,
            "midi": 69,
            "name": "A4",
            "ticks": 199680,
            "time": 213.33353599999998,
            "velocity": 0.5590551181102362
          },
          {
            "duration": 0.9081205208333074,
            "durationTicks": 850,
            "midi": 63,
            "name": "D#4",
            "ticks": 200400,
            "time": 214.1027675,
            "velocity": 0.5590551181102362
          },
          {
            "duration": 0.9113256520833204,
            "durationTicks": 853,
            "midi": 68,
            "name": "G#4",
            "ticks": 200400,
            "time": 214.1027675,
            "velocity": 0.5590551181102362
          },
          {
            "duration": 0.6356843645833123,
            "durationTicks": 595,
            "midi": 61,
            "name": "C#4",
            "ticks": 201600,
            "time": 215.38482,
            "velocity": 0.5590551181102362
          },
          {
            "duration": 0.6410262500000101,
            "durationTicks": 600,
            "midi": 66,
            "name": "F#4",
            "ticks": 201600,
            "time": 215.38482,
            "velocity": 0.5590551181102362
          },
          {
            "duration": 0.7959409270833362,
            "durationTicks": 745,
            "midi": 63,
            "name": "D#4",
            "ticks": 202320,
            "time": 216.15405149999998,
            "velocity": 0.5590551181102362
          },
          {
            "duration": 0.7831204020833411,
            "durationTicks": 733,
            "midi": 68,
            "name": "G#4",
            "ticks": 202320,
            "time": 216.15405149999998,
            "velocity": 0.5590551181102362
          },
          {
            "duration": 0.5694449854166521,
            "durationTicks": 533,
            "midi": 64,
            "name": "E4",
            "ticks": 203520,
            "time": 217.436104,
            "velocity": 0.5590551181102362
          },
          {
            "duration": 0.5694449854166521,
            "durationTicks": 533,
            "midi": 69,
            "name": "A4",
            "ticks": 203520,
            "time": 217.436104,
            "velocity": 0.5590551181102362
          },
          {
            "duration": 0.3717952249999996,
            "durationTicks": 348,
            "midi": 63,
            "name": "D#4",
            "ticks": 204240,
            "time": 218.2053355,
            "velocity": 0.5590551181102362
          },
          {
            "duration": 0.3717952249999996,
            "durationTicks": 348,
            "midi": 68,
            "name": "G#4",
            "ticks": 204240,
            "time": 218.2053355,
            "velocity": 0.5590551181102362
          },
          {
            "duration": 0.1068377083333587,
            "durationTicks": 100,
            "midi": 66,
            "name": "F#4",
            "ticks": 204719,
            "time": 218.71708812291664,
            "velocity": 1
          },
          {
            "duration": 0.11324797083335625,
            "durationTicks": 106,
            "midi": 78,
            "name": "F#5",
            "ticks": 204719,
            "time": 218.71708812291664,
            "velocity": 1
          },
          {
            "duration": 0.11538472500001262,
            "durationTicks": 108,
            "midi": 66,
            "name": "F#4",
            "ticks": 204960,
            "time": 218.97456699999998,
            "velocity": 1
          },
          {
            "duration": 0.10683770833333028,
            "durationTicks": 100,
            "midi": 78,
            "name": "F#5",
            "ticks": 204960,
            "time": 218.97456699999998,
            "velocity": 1
          },
          {
            "duration": 0.6410262500000101,
            "durationTicks": 600,
            "midi": 61,
            "name": "C#4",
            "ticks": 205440,
            "time": 219.48738799999998,
            "velocity": 0.5590551181102362
          },
          {
            "duration": 0.6410262500000101,
            "durationTicks": 600,
            "midi": 66,
            "name": "F#4",
            "ticks": 205440,
            "time": 219.48738799999998,
            "velocity": 0.5590551181102362
          },
          {
            "duration": 1.0256419999999764,
            "durationTicks": 960,
            "midi": 63,
            "name": "D#4",
            "ticks": 206160,
            "time": 220.2566195,
            "velocity": 0.5590551181102362
          },
          {
            "duration": 1.0256419999999764,
            "durationTicks": 960,
            "midi": 68,
            "name": "G#4",
            "ticks": 206160,
            "time": 220.2566195,
            "velocity": 0.5590551181102362
          },
          {
            "duration": 0.6399578729166535,
            "durationTicks": 599,
            "midi": 64,
            "name": "E4",
            "ticks": 207360,
            "time": 221.538672,
            "velocity": 0.5590551181102362
          },
          {
            "duration": 0.6356843645833123,
            "durationTicks": 595,
            "midi": 69,
            "name": "A4",
            "ticks": 207360,
            "time": 221.538672,
            "velocity": 0.5590551181102362
          },
          {
            "duration": 0.36859009375001506,
            "durationTicks": 345,
            "midi": 63,
            "name": "D#4",
            "ticks": 208080,
            "time": 222.30790349999998,
            "velocity": 0.5590551181102362
          },
          {
            "duration": 0.3632482083333173,
            "durationTicks": 340,
            "midi": 68,
            "name": "G#4",
            "ticks": 208080,
            "time": 222.30790349999998,
            "velocity": 0.5590551181102362
          },
          {
            "duration": 0.11538472500001262,
            "durationTicks": 108,
            "midi": 66,
            "name": "F#4",
            "ticks": 208560,
            "time": 222.82072449999998,
            "velocity": 1
          },
          {
            "duration": 0.11538472500001262,
            "durationTicks": 108,
            "midi": 78,
            "name": "F#5",
            "ticks": 208560,
            "time": 222.82072449999998,
            "velocity": 1
          },
          {
            "duration": 0.10683770833330186,
            "durationTicks": 100,
            "midi": 66,
            "name": "F#4",
            "ticks": 208800,
            "time": 223.077135,
            "velocity": 1
          },
          {
            "duration": 0.11004283958331484,
            "durationTicks": 103,
            "midi": 78,
            "name": "F#5",
            "ticks": 208800,
            "time": 223.077135,
            "velocity": 1
          },
          {
            "duration": 0.6356843645833123,
            "durationTicks": 595,
            "midi": 61,
            "name": "C#4",
            "ticks": 209280,
            "time": 223.589956,
            "velocity": 0.5590551181102362
          },
          {
            "duration": 0.6410262499999817,
            "durationTicks": 600,
            "midi": 66,
            "name": "F#4",
            "ticks": 209280,
            "time": 223.589956,
            "velocity": 0.5590551181102362
          },
          {
            "duration": 0.7959409270833078,
            "durationTicks": 745,
            "midi": 63,
            "name": "D#4",
            "ticks": 210000,
            "time": 224.3591875,
            "velocity": 0.5590551181102362
          },
          {
            "duration": 0.7831204020833411,
            "durationTicks": 733,
            "midi": 68,
            "name": "G#4",
            "ticks": 210000,
            "time": 224.3591875,
            "velocity": 0.5590551181102362
          },
          {
            "duration": 0.5694449854166521,
            "durationTicks": 533,
            "midi": 64,
            "name": "E4",
            "ticks": 211200,
            "time": 225.64123999999998,
            "velocity": 0.5590551181102362
          },
          {
            "duration": 0.5694449854166521,
            "durationTicks": 533,
            "midi": 69,
            "name": "A4",
            "ticks": 211200,
            "time": 225.64123999999998,
            "velocity": 0.5590551181102362
          },
          {
            "duration": 0.7457272041666556,
            "durationTicks": 698,
            "midi": 63,
            "name": "D#4",
            "ticks": 211920,
            "time": 226.4104715,
            "velocity": 0.5590551181102362
          },
          {
            "duration": 0.751069089583325,
            "durationTicks": 703,
            "midi": 68,
            "name": "G#4",
            "ticks": 211920,
            "time": 226.4104715,
            "velocity": 0.5590551181102362
          },
          {
            "duration": 4.102567999999991,
            "durationTicks": 3840,
            "midi": 74,
            "name": "D5",
            "ticks": 213120,
            "time": 227.692524,
            "velocity": 0.5354330708661418
          },
          {
            "duration": 4.102567999999991,
            "durationTicks": 3840,
            "midi": 78,
            "name": "F#5",
            "ticks": 213120,
            "time": 227.692524,
            "velocity": 0.5748031496062992
          },
          {
            "duration": 0.1282052500000077,
            "durationTicks": 120,
            "midi": 85,
            "name": "C#6",
            "ticks": 217920,
            "time": 232.820734,
            "velocity": 1
          },
          {
            "duration": 0.1282052499999793,
            "durationTicks": 120,
            "midi": 81,
            "name": "A5",
            "ticks": 218040,
            "time": 232.94893925,
            "velocity": 1
          },
          {
            "duration": 0.1282052500000077,
            "durationTicks": 120,
            "midi": 78,
            "name": "F#5",
            "ticks": 218160,
            "time": 233.07714449999997,
            "velocity": 1
          },
          {
            "duration": 0.1282052500000077,
            "durationTicks": 120,
            "midi": 74,
            "name": "D5",
            "ticks": 218280,
            "time": 233.20534974999998,
            "velocity": 1
          },
          {
            "duration": 1.2799157458333354,
            "durationTicks": 1198,
            "midi": 73,
            "name": "C#5",
            "ticks": 218400,
            "time": 233.333555,
            "velocity": 0.7716535433070866
          },
          {
            "duration": 0.21901730208332992,
            "durationTicks": 205,
            "midi": 64,
            "name": "E4",
            "ticks": 219780,
            "time": 234.807915375,
            "velocity": 0.8976377952755905
          },
          {
            "duration": 0.16025656249999543,
            "durationTicks": 150,
            "midi": 66,
            "name": "F#4",
            "ticks": 220020,
            "time": 235.06432587499998,
            "velocity": 0.8976377952755905
          },
          {
            "duration": 0.6410262500000101,
            "durationTicks": 600,
            "midi": 61,
            "name": "C#4",
            "ticks": 220800,
            "time": 235.89765999999997,
            "velocity": 0.5590551181102362
          },
          {
            "duration": 0.6410262500000101,
            "durationTicks": 600,
            "midi": 66,
            "name": "F#4",
            "ticks": 220800,
            "time": 235.89765999999997,
            "velocity": 0.5590551181102362
          },
          {
            "duration": 1.0256420000000048,
            "durationTicks": 960,
            "midi": 63,
            "name": "D#4",
            "ticks": 221520,
            "time": 236.6668915,
            "velocity": 0.5590551181102362
          },
          {
            "duration": 1.0256420000000048,
            "durationTicks": 960,
            "midi": 68,
            "name": "G#4",
            "ticks": 221520,
            "time": 236.6668915,
            "velocity": 0.5590551181102362
          },
          {
            "duration": 0.6410262500000101,
            "durationTicks": 600,
            "midi": 64,
            "name": "E4",
            "ticks": 222720,
            "time": 237.94894399999998,
            "velocity": 0.5590551181102362
          },
          {
            "duration": 0.6356843645833408,
            "durationTicks": 595,
            "midi": 69,
            "name": "A4",
            "ticks": 222720,
            "time": 237.94894399999998,
            "velocity": 0.5590551181102362
          },
          {
            "duration": 0.9081205208333358,
            "durationTicks": 850,
            "midi": 63,
            "name": "D#4",
            "ticks": 223440,
            "time": 238.71817549999997,
            "velocity": 0.5590551181102362
          },
          {
            "duration": 0.9113256520833488,
            "durationTicks": 853,
            "midi": 68,
            "name": "G#4",
            "ticks": 223440,
            "time": 238.71817549999997,
            "velocity": 0.5590551181102362
          },
          {
            "duration": 0.6356843645833123,
            "durationTicks": 595,
            "midi": 61,
            "name": "C#4",
            "ticks": 224640,
            "time": 240.000228,
            "velocity": 0.5590551181102362
          },
          {
            "duration": 0.6410262499999817,
            "durationTicks": 600,
            "midi": 66,
            "name": "F#4",
            "ticks": 224640,
            "time": 240.000228,
            "velocity": 0.5590551181102362
          },
          {
            "duration": 0.7959409270833362,
            "durationTicks": 745,
            "midi": 63,
            "name": "D#4",
            "ticks": 225360,
            "time": 240.76945949999998,
            "velocity": 0.5590551181102362
          },
          {
            "duration": 0.7831204020833411,
            "durationTicks": 733,
            "midi": 68,
            "name": "G#4",
            "ticks": 225360,
            "time": 240.76945949999998,
            "velocity": 0.5590551181102362
          },
          {
            "duration": 0.5694449854166805,
            "durationTicks": 533,
            "midi": 64,
            "name": "E4",
            "ticks": 226560,
            "time": 242.05151199999997,
            "velocity": 0.5590551181102362
          },
          {
            "duration": 0.5694449854166805,
            "durationTicks": 533,
            "midi": 69,
            "name": "A4",
            "ticks": 226560,
            "time": 242.05151199999997,
            "velocity": 0.5590551181102362
          },
          {
            "duration": 0.7457272041666556,
            "durationTicks": 698,
            "midi": 63,
            "name": "D#4",
            "ticks": 227280,
            "time": 242.8207435,
            "velocity": 0.5590551181102362
          },
          {
            "duration": 0.751069089583325,
            "durationTicks": 703,
            "midi": 68,
            "name": "G#4",
            "ticks": 227280,
            "time": 242.8207435,
            "velocity": 0.5590551181102362
          },
          {
            "duration": 4.102567999999991,
            "durationTicks": 3840,
            "midi": 74,
            "name": "D5",
            "ticks": 228480,
            "time": 244.10279599999998,
            "velocity": 0.5669291338582677
          },
          {
            "duration": 4.102567999999991,
            "durationTicks": 3840,
            "midi": 78,
            "name": "F#5",
            "ticks": 228480,
            "time": 244.10279599999998,
            "velocity": 0.5748031496062992
          },
          {
            "duration": 0.1282052500000077,
            "durationTicks": 120,
            "midi": 85,
            "name": "C#6",
            "ticks": 233280,
            "time": 249.23100599999998,
            "velocity": 1
          },
          {
            "duration": 0.1282052500000077,
            "durationTicks": 120,
            "midi": 81,
            "name": "A5",
            "ticks": 233400,
            "time": 249.35921125,
            "velocity": 1
          },
          {
            "duration": 0.1282052499999793,
            "durationTicks": 120,
            "midi": 78,
            "name": "F#5",
            "ticks": 233520,
            "time": 249.4874165,
            "velocity": 1
          },
          {
            "duration": 0.1282052500000077,
            "durationTicks": 120,
            "midi": 74,
            "name": "D5",
            "ticks": 233640,
            "time": 249.61562174999997,
            "velocity": 1
          },
          {
            "duration": 1.2799157458333354,
            "durationTicks": 1198,
            "midi": 73,
            "name": "C#5",
            "ticks": 233760,
            "time": 249.74382699999998,
            "velocity": 0.7716535433070866
          },
          {
            "duration": 0.21901730208332992,
            "durationTicks": 205,
            "midi": 64,
            "name": "E4",
            "ticks": 235140,
            "time": 251.21818737499999,
            "velocity": 0.8976377952755905
          },
          {
            "duration": 0.16025656250002385,
            "durationTicks": 150,
            "midi": 66,
            "name": "F#4",
            "ticks": 235380,
            "time": 251.47459787499997,
            "velocity": 0.8976377952755905
          },
          {
            "duration": 4.102568000000019,
            "durationTicks": 3840,
            "midi": 74,
            "name": "D5",
            "ticks": 236160,
            "time": 252.307932,
            "velocity": 0.5669291338582677
          },
          {
            "duration": 4.102568000000019,
            "durationTicks": 3840,
            "midi": 78,
            "name": "F#5",
            "ticks": 236160,
            "time": 252.307932,
            "velocity": 0.5748031496062992
          },
          {
            "duration": 0.1282052500000077,
            "durationTicks": 120,
            "midi": 85,
            "name": "C#6",
            "ticks": 240960,
            "time": 257.43614199999996,
            "velocity": 1
          },
          {
            "duration": 0.1282052500000077,
            "durationTicks": 120,
            "midi": 81,
            "name": "A5",
            "ticks": 241080,
            "time": 257.56434724999997,
            "velocity": 1
          },
          {
            "duration": 0.1282052500000077,
            "durationTicks": 120,
            "midi": 78,
            "name": "F#5",
            "ticks": 241200,
            "time": 257.6925525,
            "velocity": 1
          },
          {
            "duration": 0.1282052500000077,
            "durationTicks": 120,
            "midi": 74,
            "name": "D5",
            "ticks": 241320,
            "time": 257.82075775,
            "velocity": 1
          },
          {
            "duration": 1.279915745833307,
            "durationTicks": 1198,
            "midi": 73,
            "name": "C#5",
            "ticks": 241440,
            "time": 257.948963,
            "velocity": 0.7716535433070866
          },
          {
            "duration": 0.21901730208332992,
            "durationTicks": 205,
            "midi": 64,
            "name": "E4",
            "ticks": 242820,
            "time": 259.423323375,
            "velocity": 0.8976377952755905
          },
          {
            "duration": 0.160256562499967,
            "durationTicks": 150,
            "midi": 66,
            "name": "F#4",
            "ticks": 243060,
            "time": 259.679733875,
            "velocity": 0.8976377952755905
          },
          {
            "duration": 0.6410262499999817,
            "durationTicks": 600,
            "midi": 61,
            "name": "C#4",
            "ticks": 243840,
            "time": 260.513068,
            "velocity": 0.5590551181102362
          },
          {
            "duration": 0.6410262499999817,
            "durationTicks": 600,
            "midi": 66,
            "name": "F#4",
            "ticks": 243840,
            "time": 260.513068,
            "velocity": 0.5590551181102362
          },
          {
            "duration": 1.0256420000000048,
            "durationTicks": 960,
            "midi": 63,
            "name": "D#4",
            "ticks": 244560,
            "time": 261.28229949999997,
            "velocity": 0.5590551181102362
          },
          {
            "duration": 1.0256420000000048,
            "durationTicks": 960,
            "midi": 68,
            "name": "G#4",
            "ticks": 244560,
            "time": 261.28229949999997,
            "velocity": 0.5590551181102362
          },
          {
            "duration": 0.6410262499999817,
            "durationTicks": 600,
            "midi": 64,
            "name": "E4",
            "ticks": 245760,
            "time": 262.564352,
            "velocity": 0.5590551181102362
          },
          {
            "duration": 0.6356843645833692,
            "durationTicks": 595,
            "midi": 69,
            "name": "A4",
            "ticks": 245760,
            "time": 262.564352,
            "velocity": 0.5590551181102362
          },
          {
            "duration": 0.9081205208333358,
            "durationTicks": 850,
            "midi": 63,
            "name": "D#4",
            "ticks": 246480,
            "time": 263.3335835,
            "velocity": 0.5590551181102362
          },
          {
            "duration": 0.911325652083292,
            "durationTicks": 853,
            "midi": 68,
            "name": "G#4",
            "ticks": 246480,
            "time": 263.3335835,
            "velocity": 0.5590551181102362
          },
          {
            "duration": 0.6356843645833692,
            "durationTicks": 595,
            "midi": 61,
            "name": "C#4",
            "ticks": 247680,
            "time": 264.615636,
            "velocity": 0.5590551181102362
          },
          {
            "duration": 0.6410262499999817,
            "durationTicks": 600,
            "midi": 66,
            "name": "F#4",
            "ticks": 247680,
            "time": 264.615636,
            "velocity": 0.5590551181102362
          },
          {
            "duration": 0.7959409270833362,
            "durationTicks": 745,
            "midi": 63,
            "name": "D#4",
            "ticks": 248400,
            "time": 265.3848675,
            "velocity": 0.5590551181102362
          },
          {
            "duration": 0.7831204020832843,
            "durationTicks": 733,
            "midi": 68,
            "name": "G#4",
            "ticks": 248400,
            "time": 265.3848675,
            "velocity": 0.5590551181102362
          },
          {
            "duration": 0.5694449854166237,
            "durationTicks": 533,
            "midi": 64,
            "name": "E4",
            "ticks": 249600,
            "time": 266.66692,
            "velocity": 0.5590551181102362
          },
          {
            "duration": 0.5694449854166237,
            "durationTicks": 533,
            "midi": 69,
            "name": "A4",
            "ticks": 249600,
            "time": 266.66692,
            "velocity": 0.5590551181102362
          },
          {
            "duration": 0.37179522500002804,
            "durationTicks": 348,
            "midi": 63,
            "name": "D#4",
            "ticks": 250320,
            "time": 267.4361515,
            "velocity": 0.5590551181102362
          },
          {
            "duration": 0.37179522500002804,
            "durationTicks": 348,
            "midi": 68,
            "name": "G#4",
            "ticks": 250320,
            "time": 267.4361515,
            "velocity": 0.5590551181102362
          },
          {
            "duration": 0.10683770833327344,
            "durationTicks": 100,
            "midi": 66,
            "name": "F#4",
            "ticks": 250799,
            "time": 267.94790412291667,
            "velocity": 1
          },
          {
            "duration": 0.1132479708332994,
            "durationTicks": 106,
            "midi": 78,
            "name": "F#5",
            "ticks": 250799,
            "time": 267.94790412291667,
            "velocity": 1
          },
          {
            "duration": 0.11538472500001262,
            "durationTicks": 108,
            "midi": 66,
            "name": "F#4",
            "ticks": 251040,
            "time": 268.205383,
            "velocity": 1
          },
          {
            "duration": 0.10683770833333028,
            "durationTicks": 100,
            "midi": 78,
            "name": "F#5",
            "ticks": 251040,
            "time": 268.205383,
            "velocity": 1
          },
          {
            "duration": 0.6410262500000385,
            "durationTicks": 600,
            "midi": 61,
            "name": "C#4",
            "ticks": 251520,
            "time": 268.71820399999996,
            "velocity": 0.5590551181102362
          },
          {
            "duration": 0.6410262500000385,
            "durationTicks": 600,
            "midi": 66,
            "name": "F#4",
            "ticks": 251520,
            "time": 268.71820399999996,
            "velocity": 0.5590551181102362
          },
          {
            "duration": 1.0256420000000048,
            "durationTicks": 960,
            "midi": 63,
            "name": "D#4",
            "ticks": 252240,
            "time": 269.4874355,
            "velocity": 0.5590551181102362
          },
          {
            "duration": 1.0256420000000048,
            "durationTicks": 960,
            "midi": 68,
            "name": "G#4",
            "ticks": 252240,
            "time": 269.4874355,
            "velocity": 0.5590551181102362
          },
          {
            "duration": 0.6410262500000385,
            "durationTicks": 600,
            "midi": 64,
            "name": "E4",
            "ticks": 253440,
            "time": 270.76948799999997,
            "velocity": 0.5590551181102362
          },
          {
            "duration": 0.6356843645833692,
            "durationTicks": 595,
            "midi": 69,
            "name": "A4",
            "ticks": 253440,
            "time": 270.76948799999997,
            "velocity": 0.5590551181102362
          },
          {
            "duration": 0.9081205208333927,
            "durationTicks": 850,
            "midi": 63,
            "name": "D#4",
            "ticks": 254160,
            "time": 271.53871949999996,
            "velocity": 0.5590551181102362
          },
          {
            "duration": 0.9113256520833488,
            "durationTicks": 853,
            "midi": 68,
            "name": "G#4",
            "ticks": 254160,
            "time": 271.53871949999996,
            "velocity": 0.5590551181102362
          },
          {
            "duration": 0.6356843645833692,
            "durationTicks": 595,
            "midi": 61,
            "name": "C#4",
            "ticks": 255360,
            "time": 272.820772,
            "velocity": 0.5590551181102362
          },
          {
            "duration": 0.6410262499999817,
            "durationTicks": 600,
            "midi": 66,
            "name": "F#4",
            "ticks": 255360,
            "time": 272.820772,
            "velocity": 0.5590551181102362
          },
          {
            "duration": 0.795940927083393,
            "durationTicks": 745,
            "midi": 63,
            "name": "D#4",
            "ticks": 256080,
            "time": 273.59000349999997,
            "velocity": 0.5590551181102362
          },
          {
            "duration": 0.7831204020833411,
            "durationTicks": 733,
            "midi": 68,
            "name": "G#4",
            "ticks": 256080,
            "time": 273.59000349999997,
            "velocity": 0.5590551181102362
          },
          {
            "duration": 0.5705133624999803,
            "durationTicks": 534,
            "midi": 64,
            "name": "E4",
            "ticks": 257279,
            "time": 274.8709876229167,
            "velocity": 0.5590551181102362
          },
          {
            "duration": 0.5705133624999803,
            "durationTicks": 534,
            "midi": 69,
            "name": "A4",
            "ticks": 257279,
            "time": 274.8709876229167,
            "velocity": 0.5590551181102362
          },
          {
            "duration": 0.37179522500002804,
            "durationTicks": 348,
            "midi": 63,
            "name": "D#4",
            "ticks": 258000,
            "time": 275.6412875,
            "velocity": 0.5590551181102362
          },
          {
            "duration": 0.37179522500002804,
            "durationTicks": 348,
            "midi": 68,
            "name": "G#4",
            "ticks": 258000,
            "time": 275.6412875,
            "velocity": 0.5590551181102362
          },
          {
            "duration": 0.10683770833333028,
            "durationTicks": 100,
            "midi": 66,
            "name": "F#4",
            "ticks": 258479,
            "time": 276.15304012291665,
            "velocity": 1
          },
          {
            "duration": 0.11324797083335625,
            "durationTicks": 106,
            "midi": 78,
            "name": "F#5",
            "ticks": 258479,
            "time": 276.15304012291665,
            "velocity": 1
          },
          {
            "duration": 0.11538472500001262,
            "durationTicks": 108,
            "midi": 66,
            "name": "F#4",
            "ticks": 258720,
            "time": 276.41051899999997,
            "velocity": 1
          },
          {
            "duration": 0.10683770833338713,
            "durationTicks": 100,
            "midi": 78,
            "name": "F#5",
            "ticks": 258720,
            "time": 276.41051899999997,
            "velocity": 1
          },
          {
            "duration": 0.6410262499999817,
            "durationTicks": 600,
            "midi": 61,
            "name": "C#4",
            "ticks": 259200,
            "time": 276.92334,
            "velocity": 0.4566929133858268
          },
          {
            "duration": 0.6410262499999817,
            "durationTicks": 600,
            "midi": 66,
            "name": "F#4",
            "ticks": 259200,
            "time": 276.92334,
            "velocity": 0.4566929133858268
          },
          {
            "duration": 1.0256420000000048,
            "durationTicks": 960,
            "midi": 63,
            "name": "D#4",
            "ticks": 259920,
            "time": 277.6925715,
            "velocity": 0.4566929133858268
          },
          {
            "duration": 1.0256420000000048,
            "durationTicks": 960,
            "midi": 68,
            "name": "G#4",
            "ticks": 259920,
            "time": 277.6925715,
            "velocity": 0.4566929133858268
          },
          {
            "duration": 0.6410262499999817,
            "durationTicks": 600,
            "midi": 64,
            "name": "E4",
            "ticks": 261120,
            "time": 278.974624,
            "velocity": 0.4566929133858268
          },
          {
            "duration": 0.6356843645833123,
            "durationTicks": 595,
            "midi": 69,
            "name": "A4",
            "ticks": 261120,
            "time": 278.974624,
            "velocity": 0.4566929133858268
          },
          {
            "duration": 0.9081205208333358,
            "durationTicks": 850,
            "midi": 63,
            "name": "D#4",
            "ticks": 261840,
            "time": 279.7438555,
            "velocity": 0.4566929133858268
          },
          {
            "duration": 0.911325652083292,
            "durationTicks": 853,
            "midi": 68,
            "name": "G#4",
            "ticks": 261840,
            "time": 279.7438555,
            "velocity": 0.4566929133858268
          },
          {
            "duration": 0.6356843645833692,
            "durationTicks": 595,
            "midi": 61,
            "name": "C#4",
            "ticks": 263040,
            "time": 281.02590799999996,
            "velocity": 0.4566929133858268
          },
          {
            "duration": 0.6410262500000385,
            "durationTicks": 600,
            "midi": 66,
            "name": "F#4",
            "ticks": 263040,
            "time": 281.02590799999996,
            "velocity": 0.4566929133858268
          },
          {
            "duration": 0.7959409270833362,
            "durationTicks": 745,
            "midi": 63,
            "name": "D#4",
            "ticks": 263760,
            "time": 281.7951395,
            "velocity": 0.4566929133858268
          },
          {
            "duration": 0.7831204020832843,
            "durationTicks": 733,
            "midi": 68,
            "name": "G#4",
            "ticks": 263760,
            "time": 281.7951395,
            "velocity": 0.4566929133858268
          },
          {
            "duration": 0.5705133624999803,
            "durationTicks": 534,
            "midi": 64,
            "name": "E4",
            "ticks": 264959,
            "time": 283.07612362291667,
            "velocity": 0.4566929133858268
          },
          {
            "duration": 0.5705133624999803,
            "durationTicks": 534,
            "midi": 69,
            "name": "A4",
            "ticks": 264959,
            "time": 283.07612362291667,
            "velocity": 0.4566929133858268
          },
          {
            "duration": 0.37179522500002804,
            "durationTicks": 348,
            "midi": 63,
            "name": "D#4",
            "ticks": 265680,
            "time": 283.84642349999996,
            "velocity": 0.4566929133858268
          },
          {
            "duration": 0.37179522500002804,
            "durationTicks": 348,
            "midi": 68,
            "name": "G#4",
            "ticks": 265680,
            "time": 283.84642349999996,
            "velocity": 0.4566929133858268
          },
          {
            "duration": 0.10683770833327344,
            "durationTicks": 100,
            "midi": 66,
            "name": "F#4",
            "ticks": 266159,
            "time": 284.3581761229167,
            "velocity": 1
          },
          {
            "duration": 0.1132479708332994,
            "durationTicks": 106,
            "midi": 78,
            "name": "F#5",
            "ticks": 266159,
            "time": 284.3581761229167,
            "velocity": 1
          },
          {
            "duration": 0.11538472500001262,
            "durationTicks": 108,
            "midi": 66,
            "name": "F#4",
            "ticks": 266400,
            "time": 284.615655,
            "velocity": 1
          },
          {
            "duration": 0.10683770833333028,
            "durationTicks": 100,
            "midi": 78,
            "name": "F#5",
            "ticks": 266400,
            "time": 284.615655,
            "velocity": 1
          },
          {
            "duration": 0.6410262499999817,
            "durationTicks": 600,
            "midi": 61,
            "name": "C#4",
            "ticks": 266880,
            "time": 285.128476,
            "velocity": 0.4566929133858268
          },
          {
            "duration": 0.6410262499999817,
            "durationTicks": 600,
            "midi": 66,
            "name": "F#4",
            "ticks": 266880,
            "time": 285.128476,
            "velocity": 0.4566929133858268
          },
          {
            "duration": 1.0256420000000048,
            "durationTicks": 960,
            "midi": 63,
            "name": "D#4",
            "ticks": 267600,
            "time": 285.89770749999997,
            "velocity": 0.4566929133858268
          },
          {
            "duration": 1.0256420000000048,
            "durationTicks": 960,
            "midi": 68,
            "name": "G#4",
            "ticks": 267600,
            "time": 285.89770749999997,
            "velocity": 0.4566929133858268
          },
          {
            "duration": 0.6410262499999817,
            "durationTicks": 600,
            "midi": 64,
            "name": "E4",
            "ticks": 268800,
            "time": 287.17976,
            "velocity": 0.4566929133858268
          },
          {
            "duration": 0.6356843645833692,
            "durationTicks": 595,
            "midi": 69,
            "name": "A4",
            "ticks": 268800,
            "time": 287.17976,
            "velocity": 0.4566929133858268
          },
          {
            "duration": 0.9081205208333358,
            "durationTicks": 850,
            "midi": 63,
            "name": "D#4",
            "ticks": 269520,
            "time": 287.9489915,
            "velocity": 0.4566929133858268
          },
          {
            "duration": 0.911325652083292,
            "durationTicks": 853,
            "midi": 68,
            "name": "G#4",
            "ticks": 269520,
            "time": 287.9489915,
            "velocity": 0.4566929133858268
          },
          {
            "duration": 0.6356843645833123,
            "durationTicks": 595,
            "midi": 61,
            "name": "C#4",
            "ticks": 270720,
            "time": 289.231044,
            "velocity": 0.4566929133858268
          },
          {
            "duration": 0.6410262499999817,
            "durationTicks": 600,
            "midi": 66,
            "name": "F#4",
            "ticks": 270720,
            "time": 289.231044,
            "velocity": 0.4566929133858268
          },
          {
            "duration": 0.2564105000000154,
            "durationTicks": 240,
            "midi": 63,
            "name": "D#4",
            "ticks": 271440,
            "time": 290.0002755,
            "velocity": 0.2992125984251969
          },
          {
            "duration": 0.2564105000000154,
            "durationTicks": 240,
            "midi": 68,
            "name": "G#4",
            "ticks": 271440,
            "time": 290.0002755,
            "velocity": 0.2992125984251969
          }
        ]
      },
      {
        "channel": 9,
        "controlChanges": {
          "0": [
            {
              "number": 0,
              "ticks": 598,
              "time": 0.6388894958333333,
              "value": 0
            }
          ],
          "6": [
            {
              "number": 6,
              "ticks": 1143,
              "time": 1.22115500625,
              "value": 0.007874015748031496
            },
            {
              "number": 6,
              "ticks": 1173,
              "time": 1.25320631875,
              "value": 0.031496062992125984
            },
            {
              "number": 6,
              "ticks": 1203,
              "time": 1.28525763125,
              "value": 0.06299212598425197
            },
            {
              "number": 6,
              "ticks": 1233,
              "time": 1.31730894375,
              "value": 0.09448818897637795
            },
            {
              "number": 6,
              "ticks": 1263,
              "time": 1.34936025625,
              "value": 0.12598425196850394
            },
            {
              "number": 6,
              "ticks": 1293,
              "time": 1.38141156875,
              "value": 0.15748031496062992
            },
            {
              "number": 6,
              "ticks": 1308,
              "time": 1.397437225,
              "value": 0.18110236220472442
            },
            {
              "number": 6,
              "ticks": 1323,
              "time": 1.4134628812499999,
              "value": 0.2125984251968504
            },
            {
              "number": 6,
              "ticks": 1338,
              "time": 1.4294885375,
              "value": 0.23622047244094488
            },
            {
              "number": 6,
              "ticks": 1353,
              "time": 1.44551419375,
              "value": 0.2677165354330709
            },
            {
              "number": 6,
              "ticks": 1368,
              "time": 1.4615398499999999,
              "value": 0.2992125984251969
            },
            {
              "number": 6,
              "ticks": 1383,
              "time": 1.47756550625,
              "value": 0.3228346456692913
            },
            {
              "number": 6,
              "ticks": 1398,
              "time": 1.4935911625,
              "value": 0.3543307086614173
            },
            {
              "number": 6,
              "ticks": 1413,
              "time": 1.5096168187499999,
              "value": 0.3858267716535433
            },
            {
              "number": 6,
              "ticks": 1428,
              "time": 1.525642475,
              "value": 0.4094488188976378
            },
            {
              "number": 6,
              "ticks": 1443,
              "time": 1.54166813125,
              "value": 0.4409448818897638
            },
            {
              "number": 6,
              "ticks": 1458,
              "time": 1.5576937874999999,
              "value": 0.4645669291338583
            },
            {
              "number": 6,
              "ticks": 1470,
              "time": 1.5705143124999998,
              "value": 0.49606299212598426
            },
            {
              "number": 6,
              "ticks": 1615,
              "time": 1.7254289895833332,
              "value": 0.5039370078740157
            },
            {
              "number": 6,
              "ticks": 1630,
              "time": 1.7414546458333333,
              "value": 0.4566929133858268
            },
            {
              "number": 6,
              "ticks": 1645,
              "time": 1.7574803020833334,
              "value": 0.4015748031496063
            },
            {
              "number": 6,
              "ticks": 1660,
              "time": 1.7735059583333332,
              "value": 0.3464566929133858
            },
            {
              "number": 6,
              "ticks": 1675,
              "time": 1.7895316145833333,
              "value": 0.2992125984251969
            },
            {
              "number": 6,
              "ticks": 1690,
              "time": 1.8055572708333334,
              "value": 0.2440944881889764
            },
            {
              "number": 6,
              "ticks": 1705,
              "time": 1.8215829270833332,
              "value": 0.1889763779527559
            },
            {
              "number": 6,
              "ticks": 1720,
              "time": 1.8376085833333333,
              "value": 0.14173228346456693
            },
            {
              "number": 6,
              "ticks": 1735,
              "time": 1.8536342395833334,
              "value": 0.08661417322834646
            },
            {
              "number": 6,
              "ticks": 1748,
              "time": 1.8675231416666664,
              "value": 0.03937007874015748
            },
            {
              "number": 6,
              "ticks": 1778,
              "time": 1.8995744541666666,
              "value": 0.07086614173228346
            },
            {
              "number": 6,
              "ticks": 1808,
              "time": 1.9316257666666665,
              "value": 0.11023622047244094
            },
            {
              "number": 6,
              "ticks": 1838,
              "time": 1.9636770791666665,
              "value": 0.14960629921259844
            },
            {
              "number": 6,
              "ticks": 1840,
              "time": 1.9658138333333333,
              "value": 0.15748031496062992
            },
            {
              "number": 6,
              "ticks": 1900,
              "time": 2.029916458333333,
              "value": 0.1732283464566929
            },
            {
              "number": 6,
              "ticks": 1960,
              "time": 2.094019083333333,
              "value": 0.1968503937007874
            },
            {
              "number": 6,
              "ticks": 2020,
              "time": 2.1581217083333333,
              "value": 0.2204724409448819
            },
            {
              "number": 6,
              "ticks": 2080,
              "time": 2.222224333333333,
              "value": 0.2440944881889764
            },
            {
              "number": 6,
              "ticks": 2140,
              "time": 2.286326958333333,
              "value": 0.2677165354330709
            },
            {
              "number": 6,
              "ticks": 2200,
              "time": 2.350429583333333,
              "value": 0.29133858267716534
            },
            {
              "number": 6,
              "ticks": 2260,
              "time": 2.414532208333333,
              "value": 0.31496062992125984
            },
            {
              "number": 6,
              "ticks": 2320,
              "time": 2.478634833333333,
              "value": 0.33858267716535434
            },
            {
              "number": 6,
              "ticks": 2380,
              "time": 2.542737458333333,
              "value": 0.36220472440944884
            },
            {
              "number": 6,
              "ticks": 2440,
              "time": 2.606840083333333,
              "value": 0.3858267716535433
            },
            {
              "number": 6,
              "ticks": 2500,
              "time": 2.670942708333333,
              "value": 0.4015748031496063
            },
            {
              "number": 6,
              "ticks": 2560,
              "time": 2.735045333333333,
              "value": 0.4251968503937008
            },
            {
              "number": 6,
              "ticks": 2620,
              "time": 2.799147958333333,
              "value": 0.44881889763779526
            },
            {
              "number": 6,
              "ticks": 2680,
              "time": 2.863250583333333,
              "value": 0.47244094488188976
            },
            {
              "number": 6,
              "ticks": 2740,
              "time": 2.927353208333333,
              "value": 0.49606299212598426
            },
            {
              "number": 6,
              "ticks": 2800,
              "time": 2.991455833333333,
              "value": 0.5196850393700787
            },
            {
              "number": 6,
              "ticks": 2860,
              "time": 3.055558458333333,
              "value": 0.5433070866141733
            },
            {
              "number": 6,
              "ticks": 2920,
              "time": 3.119661083333333,
              "value": 0.5669291338582677
            },
            {
              "number": 6,
              "ticks": 2980,
              "time": 3.183763708333333,
              "value": 0.5905511811023622
            },
            {
              "number": 6,
              "ticks": 3040,
              "time": 3.247866333333333,
              "value": 0.6141732283464567
            },
            {
              "number": 6,
              "ticks": 3100,
              "time": 3.311968958333333,
              "value": 0.6299212598425197
            },
            {
              "number": 6,
              "ticks": 3160,
              "time": 3.376071583333333,
              "value": 0.6535433070866141
            },
            {
              "number": 6,
              "ticks": 3220,
              "time": 3.440174208333333,
              "value": 0.6771653543307087
            },
            {
              "number": 6,
              "ticks": 3280,
              "time": 3.504276833333333,
              "value": 0.7007874015748031
            },
            {
              "number": 6,
              "ticks": 3340,
              "time": 3.568379458333333,
              "value": 0.7244094488188977
            },
            {
              "number": 6,
              "ticks": 3400,
              "time": 3.632482083333333,
              "value": 0.7480314960629921
            },
            {
              "number": 6,
              "ticks": 3460,
              "time": 3.696584708333333,
              "value": 0.7716535433070866
            },
            {
              "number": 6,
              "ticks": 3520,
              "time": 3.760687333333333,
              "value": 0.7952755905511811
            },
            {
              "number": 6,
              "ticks": 3580,
              "time": 3.824789958333333,
              "value": 0.8188976377952756
            },
            {
              "number": 6,
              "ticks": 3640,
              "time": 3.888892583333333,
              "value": 0.84251968503937
            },
            {
              "number": 6,
              "ticks": 3700,
              "time": 3.952995208333333,
              "value": 0.8582677165354331
            },
            {
              "number": 6,
              "ticks": 3760,
              "time": 4.017097833333333,
              "value": 0.8818897637795275
            },
            {
              "number": 6,
              "ticks": 3820,
              "time": 4.081200458333333,
              "value": 0.905511811023622
            },
            {
              "number": 6,
              "ticks": 3880,
              "time": 4.145303083333333,
              "value": 0.9291338582677166
            },
            {
              "number": 6,
              "ticks": 3940,
              "time": 4.209405708333334,
              "value": 0.952755905511811
            },
            {
              "number": 6,
              "ticks": 4000,
              "time": 4.273508333333333,
              "value": 0.9763779527559056
            },
            {
              "number": 6,
              "ticks": 4033,
              "time": 4.308764777083333,
              "value": 0.9921259842519685
            },
            {
              "number": 6,
              "ticks": 4048,
              "time": 4.324790433333333,
              "value": 0.9133858267716536
            },
            {
              "number": 6,
              "ticks": 4063,
              "time": 4.340816089583333,
              "value": 0.8267716535433071
            },
            {
              "number": 6,
              "ticks": 4078,
              "time": 4.356841745833333,
              "value": 0.7401574803149606
            },
            {
              "number": 6,
              "ticks": 4093,
              "time": 4.372867402083333,
              "value": 0.6535433070866141
            },
            {
              "number": 6,
              "ticks": 4108,
              "time": 4.388893058333333,
              "value": 0.5669291338582677
            },
            {
              "number": 6,
              "ticks": 4123,
              "time": 4.404918714583333,
              "value": 0.48031496062992124
            },
            {
              "number": 6,
              "ticks": 4138,
              "time": 4.420944370833333,
              "value": 0.3937007874015748
            },
            {
              "number": 6,
              "ticks": 4153,
              "time": 4.436970027083333,
              "value": 0.31496062992125984
            },
            {
              "number": 6,
              "ticks": 4168,
              "time": 4.4529956833333335,
              "value": 0.2283464566929134
            },
            {
              "number": 6,
              "ticks": 4183,
              "time": 4.469021339583334,
              "value": 0.14173228346456693
            },
            {
              "number": 6,
              "ticks": 4198,
              "time": 4.485046995833333,
              "value": 0.05511811023622047
            },
            {
              "number": 6,
              "ticks": 4205,
              "time": 4.4925256354166665,
              "value": 0.007874015748031496
            },
            {
              "number": 6,
              "ticks": 4351,
              "time": 4.648508689583333,
              "value": 0.015748031496062992
            },
            {
              "number": 6,
              "ticks": 4425,
              "time": 4.72756859375,
              "value": 0.023622047244094488
            },
            {
              "number": 6,
              "ticks": 4498,
              "time": 4.805560120833333,
              "value": 0.031496062992125984
            },
            {
              "number": 6,
              "ticks": 4571,
              "time": 4.883551647916667,
              "value": 0.03937007874015748
            },
            {
              "number": 6,
              "ticks": 4644,
              "time": 4.961543175,
              "value": 0.047244094488188976
            },
            {
              "number": 6,
              "ticks": 4717,
              "time": 5.0395347020833325,
              "value": 0.05511811023622047
            },
            {
              "number": 6,
              "ticks": 4791,
              "time": 5.118594606249999,
              "value": 0.06299212598425197
            },
            {
              "number": 6,
              "ticks": 4864,
              "time": 5.196586133333333,
              "value": 0.07086614173228346
            },
            {
              "number": 6,
              "ticks": 4937,
              "time": 5.274577660416666,
              "value": 0.07874015748031496
            },
            {
              "number": 6,
              "ticks": 5010,
              "time": 5.352569187499999,
              "value": 0.08661417322834646
            },
            {
              "number": 6,
              "ticks": 5083,
              "time": 5.430560714583333,
              "value": 0.09448818897637795
            },
            {
              "number": 6,
              "ticks": 5157,
              "time": 5.50962061875,
              "value": 0.10236220472440945
            },
            {
              "number": 6,
              "ticks": 5230,
              "time": 5.587612145833333,
              "value": 0.11023622047244094
            },
            {
              "number": 6,
              "ticks": 5303,
              "time": 5.665603672916666,
              "value": 0.11811023622047244
            },
            {
              "number": 6,
              "ticks": 5376,
              "time": 5.7435952,
              "value": 0.12598425196850394
            },
            {
              "number": 6,
              "ticks": 5449,
              "time": 5.821586727083333,
              "value": 0.13385826771653545
            },
            {
              "number": 6,
              "ticks": 5523,
              "time": 5.90064663125,
              "value": 0.14173228346456693
            },
            {
              "number": 6,
              "ticks": 5596,
              "time": 5.978638158333333,
              "value": 0.14960629921259844
            },
            {
              "number": 6,
              "ticks": 5669,
              "time": 6.056629685416667,
              "value": 0.15748031496062992
            },
            {
              "number": 6,
              "ticks": 5742,
              "time": 6.1346212125,
              "value": 0.16535433070866143
            },
            {
              "number": 6,
              "ticks": 5815,
              "time": 6.212612739583333,
              "value": 0.1732283464566929
            },
            {
              "number": 6,
              "ticks": 5889,
              "time": 6.29167264375,
              "value": 0.18110236220472442
            },
            {
              "number": 6,
              "ticks": 5962,
              "time": 6.369664170833333,
              "value": 0.1889763779527559
            },
            {
              "number": 6,
              "ticks": 6035,
              "time": 6.447655697916666,
              "value": 0.1968503937007874
            },
            {
              "number": 6,
              "ticks": 6108,
              "time": 6.525647224999999,
              "value": 0.2047244094488189
            },
            {
              "number": 6,
              "ticks": 6181,
              "time": 6.603638752083333,
              "value": 0.2125984251968504
            },
            {
              "number": 6,
              "ticks": 6255,
              "time": 6.6826986562499995,
              "value": 0.2204724409448819
            },
            {
              "number": 6,
              "ticks": 6328,
              "time": 6.760690183333333,
              "value": 0.2283464566929134
            },
            {
              "number": 6,
              "ticks": 6401,
              "time": 6.838681710416666,
              "value": 0.23622047244094488
            },
            {
              "number": 6,
              "ticks": 6474,
              "time": 6.9166732375,
              "value": 0.2440944881889764
            },
            {
              "number": 6,
              "ticks": 6547,
              "time": 6.994664764583333,
              "value": 0.25196850393700787
            },
            {
              "number": 6,
              "ticks": 6621,
              "time": 7.073724668749999,
              "value": 0.25984251968503935
            },
            {
              "number": 6,
              "ticks": 6694,
              "time": 7.151716195833333,
              "value": 0.2677165354330709
            },
            {
              "number": 6,
              "ticks": 6767,
              "time": 7.229707722916666,
              "value": 0.2755905511811024
            },
            {
              "number": 6,
              "ticks": 6840,
              "time": 7.30769925,
              "value": 0.28346456692913385
            },
            {
              "number": 6,
              "ticks": 6913,
              "time": 7.385690777083333,
              "value": 0.29133858267716534
            },
            {
              "number": 6,
              "ticks": 6987,
              "time": 7.46475068125,
              "value": 0.2992125984251969
            },
            {
              "number": 6,
              "ticks": 7060,
              "time": 7.542742208333333,
              "value": 0.30708661417322836
            },
            {
              "number": 6,
              "ticks": 7133,
              "time": 7.620733735416667,
              "value": 0.31496062992125984
            },
            {
              "number": 6,
              "ticks": 7206,
              "time": 7.698725262499999,
              "value": 0.3228346456692913
            },
            {
              "number": 6,
              "ticks": 7279,
              "time": 7.7767167895833325,
              "value": 0.33070866141732286
            },
            {
              "number": 6,
              "ticks": 7353,
              "time": 7.855776693749999,
              "value": 0.33858267716535434
            },
            {
              "number": 6,
              "ticks": 7426,
              "time": 7.933768220833333,
              "value": 0.3464566929133858
            },
            {
              "number": 6,
              "ticks": 7499,
              "time": 8.011759747916667,
              "value": 0.3543307086614173
            },
            {
              "number": 6,
              "ticks": 7572,
              "time": 8.089751275,
              "value": 0.36220472440944884
            },
            {
              "number": 6,
              "ticks": 7645,
              "time": 8.167742802083334,
              "value": 0.3700787401574803
            },
            {
              "number": 6,
              "ticks": 7719,
              "time": 8.24680270625,
              "value": 0.3779527559055118
            },
            {
              "number": 6,
              "ticks": 7792,
              "time": 8.324794233333334,
              "value": 0.3858267716535433
            },
            {
              "number": 6,
              "ticks": 7865,
              "time": 8.402785760416666,
              "value": 0.3937007874015748
            },
            {
              "number": 6,
              "ticks": 7938,
              "time": 8.4807772875,
              "value": 0.4015748031496063
            },
            {
              "number": 6,
              "ticks": 8011,
              "time": 8.558768814583333,
              "value": 0.4094488188976378
            },
            {
              "number": 6,
              "ticks": 8085,
              "time": 8.637828718749999,
              "value": 0.41732283464566927
            },
            {
              "number": 6,
              "ticks": 8158,
              "time": 8.715820245833333,
              "value": 0.4251968503937008
            },
            {
              "number": 6,
              "ticks": 8231,
              "time": 8.793811772916666,
              "value": 0.4330708661417323
            },
            {
              "number": 6,
              "ticks": 8304,
              "time": 8.8718033,
              "value": 0.4409448818897638
            },
            {
              "number": 6,
              "ticks": 8377,
              "time": 8.949794827083334,
              "value": 0.44881889763779526
            },
            {
              "number": 6,
              "ticks": 8451,
              "time": 9.028854731249998,
              "value": 0.4566929133858268
            },
            {
              "number": 6,
              "ticks": 8524,
              "time": 9.106846258333333,
              "value": 0.4645669291338583
            },
            {
              "number": 6,
              "ticks": 8597,
              "time": 9.184837785416667,
              "value": 0.47244094488188976
            },
            {
              "number": 6,
              "ticks": 8670,
              "time": 9.2628293125,
              "value": 0.48031496062992124
            },
            {
              "number": 6,
              "ticks": 8743,
              "time": 9.340820839583333,
              "value": 0.4881889763779528
            },
            {
              "number": 6,
              "ticks": 8817,
              "time": 9.41988074375,
              "value": 0.49606299212598426
            },
            {
              "number": 6,
              "ticks": 8890,
              "time": 9.497872270833332,
              "value": 0.5039370078740157
            },
            {
              "number": 6,
              "ticks": 8963,
              "time": 9.575863797916666,
              "value": 0.5118110236220472
            },
            {
              "number": 6,
              "ticks": 9036,
              "time": 9.653855324999999,
              "value": 0.5196850393700787
            },
            {
              "number": 6,
              "ticks": 9109,
              "time": 9.731846852083333,
              "value": 0.5275590551181102
            },
            {
              "number": 6,
              "ticks": 9183,
              "time": 9.81090675625,
              "value": 0.5354330708661418
            },
            {
              "number": 6,
              "ticks": 9256,
              "time": 9.888898283333333,
              "value": 0.5433070866141733
            },
            {
              "number": 6,
              "ticks": 9329,
              "time": 9.966889810416665,
              "value": 0.5511811023622047
            },
            {
              "number": 6,
              "ticks": 9402,
              "time": 10.044881337499998,
              "value": 0.5590551181102362
            },
            {
              "number": 6,
              "ticks": 9475,
              "time": 10.122872864583332,
              "value": 0.5669291338582677
            },
            {
              "number": 6,
              "ticks": 9549,
              "time": 10.20193276875,
              "value": 0.5748031496062992
            },
            {
              "number": 6,
              "ticks": 9622,
              "time": 10.279924295833334,
              "value": 0.5826771653543307
            },
            {
              "number": 6,
              "ticks": 9695,
              "time": 10.357915822916667,
              "value": 0.5905511811023622
            },
            {
              "number": 6,
              "ticks": 9768,
              "time": 10.43590735,
              "value": 0.5984251968503937
            },
            {
              "number": 6,
              "ticks": 9841,
              "time": 10.513898877083333,
              "value": 0.6062992125984252
            },
            {
              "number": 6,
              "ticks": 9915,
              "time": 10.59295878125,
              "value": 0.6141732283464567
            },
            {
              "number": 6,
              "ticks": 9988,
              "time": 10.670950308333333,
              "value": 0.6220472440944882
            },
            {
              "number": 6,
              "ticks": 10061,
              "time": 10.748941835416666,
              "value": 0.6299212598425197
            },
            {
              "number": 6,
              "ticks": 10134,
              "time": 10.8269333625,
              "value": 0.6377952755905512
            },
            {
              "number": 6,
              "ticks": 10207,
              "time": 10.904924889583333,
              "value": 0.6456692913385826
            },
            {
              "number": 6,
              "ticks": 10281,
              "time": 10.983984793749999,
              "value": 0.6535433070866141
            },
            {
              "number": 6,
              "ticks": 10354,
              "time": 11.061976320833333,
              "value": 0.6614173228346457
            },
            {
              "number": 6,
              "ticks": 10427,
              "time": 11.139967847916665,
              "value": 0.6692913385826772
            },
            {
              "number": 6,
              "ticks": 10500,
              "time": 11.217959375,
              "value": 0.6771653543307087
            },
            {
              "number": 6,
              "ticks": 10573,
              "time": 11.295950902083332,
              "value": 0.6850393700787402
            },
            {
              "number": 6,
              "ticks": 10647,
              "time": 11.375010806249998,
              "value": 0.6929133858267716
            },
            {
              "number": 6,
              "ticks": 10720,
              "time": 11.453002333333332,
              "value": 0.7007874015748031
            },
            {
              "number": 6,
              "ticks": 10793,
              "time": 11.530993860416666,
              "value": 0.7086614173228346
            },
            {
              "number": 6,
              "ticks": 10866,
              "time": 11.608985387499999,
              "value": 0.7165354330708661
            },
            {
              "number": 6,
              "ticks": 10939,
              "time": 11.686976914583333,
              "value": 0.7244094488188977
            },
            {
              "number": 6,
              "ticks": 11013,
              "time": 11.76603681875,
              "value": 0.7322834645669292
            },
            {
              "number": 6,
              "ticks": 11086,
              "time": 11.844028345833333,
              "value": 0.7401574803149606
            },
            {
              "number": 6,
              "ticks": 11159,
              "time": 11.922019872916666,
              "value": 0.7480314960629921
            },
            {
              "number": 6,
              "ticks": 11232,
              "time": 12.000011399999998,
              "value": 0.7559055118110236
            },
            {
              "number": 6,
              "ticks": 11305,
              "time": 12.078002927083332,
              "value": 0.7637795275590551
            },
            {
              "number": 6,
              "ticks": 11379,
              "time": 12.15706283125,
              "value": 0.7716535433070866
            },
            {
              "number": 6,
              "ticks": 11452,
              "time": 12.235054358333333,
              "value": 0.7795275590551181
            },
            {
              "number": 6,
              "ticks": 11525,
              "time": 12.313045885416667,
              "value": 0.7874015748031497
            },
            {
              "number": 6,
              "ticks": 11598,
              "time": 12.3910374125,
              "value": 0.7952755905511811
            },
            {
              "number": 6,
              "ticks": 11671,
              "time": 12.469028939583334,
              "value": 0.8031496062992126
            },
            {
              "number": 6,
              "ticks": 11745,
              "time": 12.54808884375,
              "value": 0.8110236220472441
            },
            {
              "number": 6,
              "ticks": 11818,
              "time": 12.626080370833332,
              "value": 0.8188976377952756
            },
            {
              "number": 6,
              "ticks": 11891,
              "time": 12.704071897916666,
              "value": 0.8267716535433071
            },
            {
              "number": 6,
              "ticks": 11964,
              "time": 12.782063425,
              "value": 0.8346456692913385
            },
            {
              "number": 6,
              "ticks": 12037,
              "time": 12.860054952083333,
              "value": 0.84251968503937
            },
            {
              "number": 6,
              "ticks": 12111,
              "time": 12.939114856249999,
              "value": 0.8503937007874016
            },
            {
              "number": 6,
              "ticks": 12184,
              "time": 13.017106383333333,
              "value": 0.8582677165354331
            },
            {
              "number": 6,
              "ticks": 12257,
              "time": 13.095097910416666,
              "value": 0.8661417322834646
            },
            {
              "number": 6,
              "ticks": 12330,
              "time": 13.1730894375,
              "value": 0.8740157480314961
            },
            {
              "number": 6,
              "ticks": 12403,
              "time": 13.251080964583332,
              "value": 0.8818897637795275
            },
            {
              "number": 6,
              "ticks": 12477,
              "time": 13.330140868749998,
              "value": 0.889763779527559
            },
            {
              "number": 6,
              "ticks": 12550,
              "time": 13.408132395833332,
              "value": 0.8976377952755905
            },
            {
              "number": 6,
              "ticks": 12623,
              "time": 13.486123922916665,
              "value": 0.905511811023622
            },
            {
              "number": 6,
              "ticks": 12696,
              "time": 13.56411545,
              "value": 0.9133858267716536
            },
            {
              "number": 6,
              "ticks": 12769,
              "time": 13.642106977083332,
              "value": 0.9212598425196851
            },
            {
              "number": 6,
              "ticks": 12843,
              "time": 13.72116688125,
              "value": 0.9291338582677166
            },
            {
              "number": 6,
              "ticks": 12916,
              "time": 13.799158408333334,
              "value": 0.937007874015748
            },
            {
              "number": 6,
              "ticks": 12989,
              "time": 13.877149935416664,
              "value": 0.9448818897637795
            },
            {
              "number": 6,
              "ticks": 13062,
              "time": 13.955141462499999,
              "value": 0.952755905511811
            },
            {
              "number": 6,
              "ticks": 13135,
              "time": 14.033132989583333,
              "value": 0.9606299212598425
            },
            {
              "number": 6,
              "ticks": 13209,
              "time": 14.112192893749999,
              "value": 0.968503937007874
            },
            {
              "number": 6,
              "ticks": 13282,
              "time": 14.190184420833333,
              "value": 0.9763779527559056
            },
            {
              "number": 6,
              "ticks": 13355,
              "time": 14.268175947916667,
              "value": 0.984251968503937
            },
            {
              "number": 6,
              "ticks": 13355,
              "time": 14.268175947916667,
              "value": 0.9921259842519685
            },
            {
              "number": 6,
              "ticks": 13385,
              "time": 14.300227260416666,
              "value": 0.968503937007874
            },
            {
              "number": 6,
              "ticks": 13415,
              "time": 14.332278572916666,
              "value": 0.937007874015748
            },
            {
              "number": 6,
              "ticks": 13445,
              "time": 14.364329885416666,
              "value": 0.905511811023622
            },
            {
              "number": 6,
              "ticks": 13475,
              "time": 14.396381197916666,
              "value": 0.8740157480314961
            },
            {
              "number": 6,
              "ticks": 13505,
              "time": 14.428432510416666,
              "value": 0.8503937007874016
            },
            {
              "number": 6,
              "ticks": 13535,
              "time": 14.460483822916666,
              "value": 0.8188976377952756
            },
            {
              "number": 6,
              "ticks": 13565,
              "time": 14.492535135416666,
              "value": 0.7874015748031497
            },
            {
              "number": 6,
              "ticks": 13595,
              "time": 14.524586447916667,
              "value": 0.7559055118110236
            },
            {
              "number": 6,
              "ticks": 13625,
              "time": 14.556637760416667,
              "value": 0.7322834645669292
            },
            {
              "number": 6,
              "ticks": 13655,
              "time": 14.588689072916667,
              "value": 0.7007874015748031
            },
            {
              "number": 6,
              "ticks": 13685,
              "time": 14.620740385416667,
              "value": 0.6692913385826772
            },
            {
              "number": 6,
              "ticks": 13715,
              "time": 14.652791697916667,
              "value": 0.6377952755905512
            },
            {
              "number": 6,
              "ticks": 13745,
              "time": 14.684843010416666,
              "value": 0.6141732283464567
            },
            {
              "number": 6,
              "ticks": 13775,
              "time": 14.716894322916666,
              "value": 0.5826771653543307
            },
            {
              "number": 6,
              "ticks": 13805,
              "time": 14.748945635416666,
              "value": 0.5511811023622047
            },
            {
              "number": 6,
              "ticks": 13835,
              "time": 14.780996947916666,
              "value": 0.5196850393700787
            },
            {
              "number": 6,
              "ticks": 13865,
              "time": 14.813048260416666,
              "value": 0.4881889763779528
            },
            {
              "number": 6,
              "ticks": 13895,
              "time": 14.845099572916666,
              "value": 0.4645669291338583
            },
            {
              "number": 6,
              "ticks": 13925,
              "time": 14.877150885416667,
              "value": 0.4330708661417323
            },
            {
              "number": 6,
              "ticks": 13955,
              "time": 14.909202197916667,
              "value": 0.4015748031496063
            },
            {
              "number": 6,
              "ticks": 13985,
              "time": 14.941253510416667,
              "value": 0.3700787401574803
            },
            {
              "number": 6,
              "ticks": 14015,
              "time": 14.973304822916667,
              "value": 0.3464566929133858
            },
            {
              "number": 6,
              "ticks": 14045,
              "time": 15.005356135416667,
              "value": 0.31496062992125984
            },
            {
              "number": 6,
              "ticks": 14075,
              "time": 15.037407447916667,
              "value": 0.28346456692913385
            },
            {
              "number": 6,
              "ticks": 14105,
              "time": 15.069458760416666,
              "value": 0.25196850393700787
            },
            {
              "number": 6,
              "ticks": 14135,
              "time": 15.101510072916666,
              "value": 0.2283464566929134
            },
            {
              "number": 6,
              "ticks": 14165,
              "time": 15.133561385416666,
              "value": 0.1968503937007874
            },
            {
              "number": 6,
              "ticks": 14195,
              "time": 15.165612697916666,
              "value": 0.16535433070866143
            },
            {
              "number": 6,
              "ticks": 14225,
              "time": 15.197664010416666,
              "value": 0.13385826771653545
            },
            {
              "number": 6,
              "ticks": 14255,
              "time": 15.229715322916666,
              "value": 0.10236220472440945
            },
            {
              "number": 6,
              "ticks": 14285,
              "time": 15.261766635416667,
              "value": 0.07874015748031496
            },
            {
              "number": 6,
              "ticks": 14315,
              "time": 15.293817947916667,
              "value": 0.047244094488188976
            },
            {
              "number": 6,
              "ticks": 14345,
              "time": 15.325869260416667,
              "value": 0.015748031496062992
            },
            {
              "number": 6,
              "ticks": 14350,
              "time": 15.331211145833333,
              "value": 0.007874015748031496
            },
            {
              "number": 6,
              "ticks": 16320,
              "time": 17.435914,
              "value": 0.015748031496062992
            },
            {
              "number": 6,
              "ticks": 17305,
              "time": 18.488265427083334,
              "value": 0.023622047244094488
            },
            {
              "number": 6,
              "ticks": 18290,
              "time": 19.540616854166664,
              "value": 0.031496062992125984
            },
            {
              "number": 6,
              "ticks": 19275,
              "time": 20.59296828125,
              "value": 0.03937007874015748
            },
            {
              "number": 6,
              "ticks": 20260,
              "time": 21.645319708333332,
              "value": 0.047244094488188976
            },
            {
              "number": 6,
              "ticks": 21245,
              "time": 22.697671135416662,
              "value": 0.05511811023622047
            },
            {
              "number": 6,
              "ticks": 22230,
              "time": 23.7500225625,
              "value": 0.06299212598425197
            },
            {
              "number": 6,
              "ticks": 23215,
              "time": 24.802373989583334,
              "value": 0.07086614173228346
            },
            {
              "number": 6,
              "ticks": 24200,
              "time": 25.854725416666664,
              "value": 0.07874015748031496
            },
            {
              "number": 6,
              "ticks": 25185,
              "time": 26.907076843749998,
              "value": 0.08661417322834646
            },
            {
              "number": 6,
              "ticks": 26170,
              "time": 27.95942827083333,
              "value": 0.09448818897637795
            },
            {
              "number": 6,
              "ticks": 27155,
              "time": 29.011779697916666,
              "value": 0.10236220472440945
            },
            {
              "number": 6,
              "ticks": 28139,
              "time": 30.063062747916668,
              "value": 0.11023622047244094
            },
            {
              "number": 6,
              "ticks": 29124,
              "time": 31.115414174999998,
              "value": 0.11811023622047244
            },
            {
              "number": 6,
              "ticks": 30109,
              "time": 32.16776560208333,
              "value": 0.12598425196850394
            },
            {
              "number": 6,
              "ticks": 31094,
              "time": 33.220117029166666,
              "value": 0.13385826771653545
            },
            {
              "number": 6,
              "ticks": 32079,
              "time": 34.272468456249996,
              "value": 0.14173228346456693
            },
            {
              "number": 6,
              "ticks": 33064,
              "time": 35.32481988333333,
              "value": 0.14960629921259844
            },
            {
              "number": 6,
              "ticks": 34049,
              "time": 36.377171310416664,
              "value": 0.15748031496062992
            },
            {
              "number": 6,
              "ticks": 35034,
              "time": 37.429522737499994,
              "value": 0.16535433070866143
            },
            {
              "number": 6,
              "ticks": 36019,
              "time": 38.48187416458333,
              "value": 0.1732283464566929
            },
            {
              "number": 6,
              "ticks": 37004,
              "time": 39.53422559166667,
              "value": 0.18110236220472442
            },
            {
              "number": 6,
              "ticks": 37989,
              "time": 40.58657701875,
              "value": 0.1889763779527559
            },
            {
              "number": 6,
              "ticks": 38974,
              "time": 41.638928445833336,
              "value": 0.1968503937007874
            },
            {
              "number": 6,
              "ticks": 39959,
              "time": 42.69127987291667,
              "value": 0.2047244094488189
            },
            {
              "number": 6,
              "ticks": 40944,
              "time": 43.7436313,
              "value": 0.2125984251968504
            },
            {
              "number": 6,
              "ticks": 41929,
              "time": 44.795982727083334,
              "value": 0.2204724409448819
            },
            {
              "number": 6,
              "ticks": 42914,
              "time": 45.848334154166665,
              "value": 0.2283464566929134
            },
            {
              "number": 6,
              "ticks": 43899,
              "time": 46.900685581249995,
              "value": 0.23622047244094488
            },
            {
              "number": 6,
              "ticks": 44884,
              "time": 47.95303700833333,
              "value": 0.2440944881889764
            },
            {
              "number": 6,
              "ticks": 45869,
              "time": 49.00538843541666,
              "value": 0.25196850393700787
            },
            {
              "number": 6,
              "ticks": 46854,
              "time": 50.05773986249999,
              "value": 0.25984251968503935
            },
            {
              "number": 6,
              "ticks": 47839,
              "time": 51.11009128958333,
              "value": 0.2677165354330709
            },
            {
              "number": 6,
              "ticks": 48824,
              "time": 52.16244271666667,
              "value": 0.2755905511811024
            },
            {
              "number": 6,
              "ticks": 49809,
              "time": 53.21479414375,
              "value": 0.28346456692913385
            },
            {
              "number": 6,
              "ticks": 50794,
              "time": 54.267145570833335,
              "value": 0.29133858267716534
            },
            {
              "number": 6,
              "ticks": 51779,
              "time": 55.319496997916666,
              "value": 0.2992125984251969
            },
            {
              "number": 6,
              "ticks": 52764,
              "time": 56.371848424999996,
              "value": 0.30708661417322836
            },
            {
              "number": 6,
              "ticks": 53749,
              "time": 57.42419985208333,
              "value": 0.31496062992125984
            },
            {
              "number": 6,
              "ticks": 54734,
              "time": 58.476551279166664,
              "value": 0.3228346456692913
            },
            {
              "number": 6,
              "ticks": 55718,
              "time": 59.527834329166666,
              "value": 0.33070866141732286
            },
            {
              "number": 6,
              "ticks": 56703,
              "time": 60.580185756249996,
              "value": 0.33858267716535434
            },
            {
              "number": 6,
              "ticks": 57688,
              "time": 61.63253718333333,
              "value": 0.3464566929133858
            },
            {
              "number": 6,
              "ticks": 58673,
              "time": 62.684888610416664,
              "value": 0.3543307086614173
            },
            {
              "number": 6,
              "ticks": 59658,
              "time": 63.737240037499994,
              "value": 0.36220472440944884
            },
            {
              "number": 6,
              "ticks": 60643,
              "time": 64.78959146458334,
              "value": 0.3700787401574803
            },
            {
              "number": 6,
              "ticks": 61628,
              "time": 65.84194289166668,
              "value": 0.3779527559055118
            },
            {
              "number": 6,
              "ticks": 62613,
              "time": 66.89429431875,
              "value": 0.3858267716535433
            },
            {
              "number": 6,
              "ticks": 63598,
              "time": 67.94664574583334,
              "value": 0.3937007874015748
            },
            {
              "number": 6,
              "ticks": 64583,
              "time": 68.99899717291667,
              "value": 0.4015748031496063
            },
            {
              "number": 6,
              "ticks": 65568,
              "time": 70.0513486,
              "value": 0.4094488188976378
            },
            {
              "number": 6,
              "ticks": 66553,
              "time": 71.10370002708333,
              "value": 0.41732283464566927
            },
            {
              "number": 6,
              "ticks": 67538,
              "time": 72.15605145416667,
              "value": 0.4251968503937008
            },
            {
              "number": 6,
              "ticks": 68523,
              "time": 73.20840288125,
              "value": 0.4330708661417323
            },
            {
              "number": 6,
              "ticks": 69508,
              "time": 74.26075430833333,
              "value": 0.4409448818897638
            },
            {
              "number": 6,
              "ticks": 70493,
              "time": 75.31310573541667,
              "value": 0.44881889763779526
            },
            {
              "number": 6,
              "ticks": 71478,
              "time": 76.3654571625,
              "value": 0.4566929133858268
            },
            {
              "number": 6,
              "ticks": 72463,
              "time": 77.41780858958333,
              "value": 0.4645669291338583
            },
            {
              "number": 6,
              "ticks": 73448,
              "time": 78.47016001666667,
              "value": 0.47244094488188976
            },
            {
              "number": 6,
              "ticks": 74433,
              "time": 79.52251144374999,
              "value": 0.48031496062992124
            },
            {
              "number": 6,
              "ticks": 75418,
              "time": 80.57486287083333,
              "value": 0.4881889763779528
            },
            {
              "number": 6,
              "ticks": 76403,
              "time": 81.62721429791667,
              "value": 0.49606299212598426
            },
            {
              "number": 6,
              "ticks": 77388,
              "time": 82.67956572499999,
              "value": 0.5039370078740157
            },
            {
              "number": 6,
              "ticks": 78373,
              "time": 83.73191715208333,
              "value": 0.5118110236220472
            },
            {
              "number": 6,
              "ticks": 79358,
              "time": 84.78426857916666,
              "value": 0.5196850393700787
            },
            {
              "number": 6,
              "ticks": 80343,
              "time": 85.83662000624999,
              "value": 0.5275590551181102
            },
            {
              "number": 6,
              "ticks": 81328,
              "time": 86.88897143333332,
              "value": 0.5354330708661418
            },
            {
              "number": 6,
              "ticks": 82312,
              "time": 87.94025448333332,
              "value": 0.5433070866141733
            },
            {
              "number": 6,
              "ticks": 82312,
              "time": 87.94025448333332,
              "value": 0.5511811023622047
            },
            {
              "number": 6,
              "ticks": 82343,
              "time": 87.97337417291666,
              "value": 0.5118110236220472
            },
            {
              "number": 6,
              "ticks": 82373,
              "time": 88.00542548541667,
              "value": 0.47244094488188976
            },
            {
              "number": 6,
              "ticks": 82403,
              "time": 88.03747679791667,
              "value": 0.4330708661417323
            },
            {
              "number": 6,
              "ticks": 82433,
              "time": 88.06952811041667,
              "value": 0.3937007874015748
            },
            {
              "number": 6,
              "ticks": 82463,
              "time": 88.10157942291667,
              "value": 0.3543307086614173
            },
            {
              "number": 6,
              "ticks": 82490,
              "time": 88.13042560416666,
              "value": 0.31496062992125984
            }
          ],
          "7": [
            {
              "number": 7,
              "ticks": 605,
              "time": 0.6463681354166667,
              "value": 0.968503937007874
            }
          ],
          "10": [
            {
              "number": 10,
              "ticks": 605,
              "time": 0.6463681354166667,
              "value": 0.5039370078740157
            }
          ],
          "11": [
            {
              "number": 11,
              "ticks": 955,
              "time": 1.0203001145833333,
              "value": 1
            },
            {
              "number": 11,
              "ticks": 13273,
              "time": 14.180569027083333,
              "value": 1
            },
            {
              "number": 11,
              "ticks": 82125,
              "time": 87.74046796875,
              "value": 1
            },
            {
              "number": 11,
              "ticks": 259205,
              "time": 276.9286818854166,
              "value": 1
            },
            {
              "number": 11,
              "ticks": 259325,
              "time": 277.0568871354166,
              "value": 0.9921259842519685
            },
            {
              "number": 11,
              "ticks": 259425,
              "time": 277.16372484375,
              "value": 0.984251968503937
            },
            {
              "number": 11,
              "ticks": 259525,
              "time": 277.27056255208333,
              "value": 0.9763779527559056
            },
            {
              "number": 11,
              "ticks": 259645,
              "time": 277.39876780208334,
              "value": 0.968503937007874
            },
            {
              "number": 11,
              "ticks": 259745,
              "time": 277.5056055104166,
              "value": 0.9606299212598425
            },
            {
              "number": 11,
              "ticks": 259845,
              "time": 277.61244321875,
              "value": 0.952755905511811
            },
            {
              "number": 11,
              "ticks": 259945,
              "time": 277.71928092708333,
              "value": 0.9448818897637795
            },
            {
              "number": 11,
              "ticks": 260065,
              "time": 277.84748617708334,
              "value": 0.937007874015748
            },
            {
              "number": 11,
              "ticks": 260165,
              "time": 277.9543238854166,
              "value": 0.9291338582677166
            },
            {
              "number": 11,
              "ticks": 260265,
              "time": 278.06116159375,
              "value": 0.9212598425196851
            },
            {
              "number": 11,
              "ticks": 260365,
              "time": 278.16799930208333,
              "value": 0.9133858267716536
            },
            {
              "number": 11,
              "ticks": 260485,
              "time": 278.29620455208334,
              "value": 0.905511811023622
            },
            {
              "number": 11,
              "ticks": 260585,
              "time": 278.4030422604166,
              "value": 0.8976377952755905
            },
            {
              "number": 11,
              "ticks": 260685,
              "time": 278.50987996875,
              "value": 0.889763779527559
            },
            {
              "number": 11,
              "ticks": 260785,
              "time": 278.61671767708333,
              "value": 0.8818897637795275
            },
            {
              "number": 11,
              "ticks": 260905,
              "time": 278.74492292708334,
              "value": 0.8740157480314961
            },
            {
              "number": 11,
              "ticks": 261005,
              "time": 278.8517606354166,
              "value": 0.8661417322834646
            },
            {
              "number": 11,
              "ticks": 261105,
              "time": 278.95859834375,
              "value": 0.8582677165354331
            },
            {
              "number": 11,
              "ticks": 261205,
              "time": 279.0654360520833,
              "value": 0.8503937007874016
            },
            {
              "number": 11,
              "ticks": 261325,
              "time": 279.19364130208334,
              "value": 0.84251968503937
            },
            {
              "number": 11,
              "ticks": 261425,
              "time": 279.3004790104166,
              "value": 0.8346456692913385
            },
            {
              "number": 11,
              "ticks": 261525,
              "time": 279.40731671875,
              "value": 0.8267716535433071
            },
            {
              "number": 11,
              "ticks": 261625,
              "time": 279.5141544270833,
              "value": 0.8188976377952756
            },
            {
              "number": 11,
              "ticks": 261745,
              "time": 279.64235967708333,
              "value": 0.8110236220472441
            },
            {
              "number": 11,
              "ticks": 261845,
              "time": 279.7491973854166,
              "value": 0.8031496062992126
            },
            {
              "number": 11,
              "ticks": 261945,
              "time": 279.85603509375,
              "value": 0.7952755905511811
            },
            {
              "number": 11,
              "ticks": 262045,
              "time": 279.9628728020833,
              "value": 0.7874015748031497
            },
            {
              "number": 11,
              "ticks": 262165,
              "time": 280.09107805208333,
              "value": 0.7795275590551181
            },
            {
              "number": 11,
              "ticks": 262265,
              "time": 280.1979157604166,
              "value": 0.7716535433070866
            },
            {
              "number": 11,
              "ticks": 262365,
              "time": 280.30475346875,
              "value": 0.7637795275590551
            },
            {
              "number": 11,
              "ticks": 262465,
              "time": 280.4115911770833,
              "value": 0.7559055118110236
            },
            {
              "number": 11,
              "ticks": 262585,
              "time": 280.53979642708333,
              "value": 0.7480314960629921
            },
            {
              "number": 11,
              "ticks": 262685,
              "time": 280.6466341354166,
              "value": 0.7401574803149606
            },
            {
              "number": 11,
              "ticks": 262785,
              "time": 280.75347184375,
              "value": 0.7322834645669292
            },
            {
              "number": 11,
              "ticks": 262905,
              "time": 280.88167709375,
              "value": 0.7244094488188977
            },
            {
              "number": 11,
              "ticks": 263005,
              "time": 280.98851480208333,
              "value": 0.7165354330708661
            },
            {
              "number": 11,
              "ticks": 263105,
              "time": 281.0953525104166,
              "value": 0.7086614173228346
            },
            {
              "number": 11,
              "ticks": 263205,
              "time": 281.20219021875,
              "value": 0.7007874015748031
            },
            {
              "number": 11,
              "ticks": 263325,
              "time": 281.33039546875,
              "value": 0.6929133858267716
            },
            {
              "number": 11,
              "ticks": 263425,
              "time": 281.43723317708333,
              "value": 0.6850393700787402
            },
            {
              "number": 11,
              "ticks": 263525,
              "time": 281.54407088541666,
              "value": 0.6771653543307087
            },
            {
              "number": 11,
              "ticks": 263625,
              "time": 281.65090859375,
              "value": 0.6692913385826772
            },
            {
              "number": 11,
              "ticks": 263745,
              "time": 281.77911384375,
              "value": 0.6614173228346457
            },
            {
              "number": 11,
              "ticks": 263845,
              "time": 281.8859515520833,
              "value": 0.6535433070866141
            },
            {
              "number": 11,
              "ticks": 263945,
              "time": 281.99278926041666,
              "value": 0.6456692913385826
            },
            {
              "number": 11,
              "ticks": 264045,
              "time": 282.09962696875,
              "value": 0.6377952755905512
            },
            {
              "number": 11,
              "ticks": 264165,
              "time": 282.22783221875,
              "value": 0.6299212598425197
            },
            {
              "number": 11,
              "ticks": 264265,
              "time": 282.3346699270833,
              "value": 0.6220472440944882
            },
            {
              "number": 11,
              "ticks": 264365,
              "time": 282.44150763541666,
              "value": 0.6141732283464567
            },
            {
              "number": 11,
              "ticks": 264465,
              "time": 282.54834534375,
              "value": 0.6062992125984252
            },
            {
              "number": 11,
              "ticks": 264585,
              "time": 282.67655059375,
              "value": 0.5984251968503937
            },
            {
              "number": 11,
              "ticks": 264685,
              "time": 282.7833883020833,
              "value": 0.5905511811023622
            },
            {
              "number": 11,
              "ticks": 264785,
              "time": 282.89022601041665,
              "value": 0.5826771653543307
            },
            {
              "number": 11,
              "ticks": 264885,
              "time": 282.99706371875,
              "value": 0.5748031496062992
            },
            {
              "number": 11,
              "ticks": 265005,
              "time": 283.12526896875,
              "value": 0.5669291338582677
            },
            {
              "number": 11,
              "ticks": 265105,
              "time": 283.2321066770833,
              "value": 0.5590551181102362
            },
            {
              "number": 11,
              "ticks": 265205,
              "time": 283.33894438541665,
              "value": 0.5511811023622047
            },
            {
              "number": 11,
              "ticks": 265305,
              "time": 283.44578209375,
              "value": 0.5433070866141733
            },
            {
              "number": 11,
              "ticks": 265425,
              "time": 283.57398734375,
              "value": 0.5354330708661418
            },
            {
              "number": 11,
              "ticks": 265525,
              "time": 283.6808250520833,
              "value": 0.5275590551181102
            },
            {
              "number": 11,
              "ticks": 265625,
              "time": 283.78766276041665,
              "value": 0.5196850393700787
            },
            {
              "number": 11,
              "ticks": 265725,
              "time": 283.89450046875,
              "value": 0.5118110236220472
            },
            {
              "number": 11,
              "ticks": 265845,
              "time": 284.02270571875,
              "value": 0.5039370078740157
            },
            {
              "number": 11,
              "ticks": 265945,
              "time": 284.1295434270833,
              "value": 0.49606299212598426
            },
            {
              "number": 11,
              "ticks": 266045,
              "time": 284.23638113541665,
              "value": 0.4881889763779528
            },
            {
              "number": 11,
              "ticks": 266165,
              "time": 284.36458638541666,
              "value": 0.48031496062992124
            },
            {
              "number": 11,
              "ticks": 266265,
              "time": 284.47142409375,
              "value": 0.47244094488188976
            },
            {
              "number": 11,
              "ticks": 266365,
              "time": 284.5782618020833,
              "value": 0.4645669291338583
            },
            {
              "number": 11,
              "ticks": 266465,
              "time": 284.68509951041665,
              "value": 0.4566929133858268
            },
            {
              "number": 11,
              "ticks": 266585,
              "time": 284.81330476041666,
              "value": 0.44881889763779526
            },
            {
              "number": 11,
              "ticks": 266685,
              "time": 284.92014246875,
              "value": 0.4409448818897638
            },
            {
              "number": 11,
              "ticks": 266785,
              "time": 285.0269801770833,
              "value": 0.4330708661417323
            },
            {
              "number": 11,
              "ticks": 266885,
              "time": 285.13381788541665,
              "value": 0.4251968503937008
            },
            {
              "number": 11,
              "ticks": 267005,
              "time": 285.26202313541665,
              "value": 0.41732283464566927
            },
            {
              "number": 11,
              "ticks": 267105,
              "time": 285.36886084375,
              "value": 0.4094488188976378
            },
            {
              "number": 11,
              "ticks": 267205,
              "time": 285.4756985520833,
              "value": 0.4015748031496063
            },
            {
              "number": 11,
              "ticks": 267305,
              "time": 285.58253626041665,
              "value": 0.3937007874015748
            },
            {
              "number": 11,
              "ticks": 267425,
              "time": 285.71074151041665,
              "value": 0.3858267716535433
            },
            {
              "number": 11,
              "ticks": 267525,
              "time": 285.81757921875,
              "value": 0.3779527559055118
            },
            {
              "number": 11,
              "ticks": 267625,
              "time": 285.9244169270833,
              "value": 0.3700787401574803
            },
            {
              "number": 11,
              "ticks": 267725,
              "time": 286.03125463541664,
              "value": 0.36220472440944884
            },
            {
              "number": 11,
              "ticks": 267845,
              "time": 286.15945988541665,
              "value": 0.3543307086614173
            },
            {
              "number": 11,
              "ticks": 267945,
              "time": 286.26629759375,
              "value": 0.3464566929133858
            },
            {
              "number": 11,
              "ticks": 268045,
              "time": 286.3731353020833,
              "value": 0.33858267716535434
            },
            {
              "number": 11,
              "ticks": 268145,
              "time": 286.47997301041664,
              "value": 0.33070866141732286
            },
            {
              "number": 11,
              "ticks": 268265,
              "time": 286.60817826041665,
              "value": 0.3228346456692913
            },
            {
              "number": 11,
              "ticks": 268365,
              "time": 286.71501596875,
              "value": 0.31496062992125984
            },
            {
              "number": 11,
              "ticks": 268465,
              "time": 286.8218536770833,
              "value": 0.30708661417322836
            },
            {
              "number": 11,
              "ticks": 268565,
              "time": 286.92869138541664,
              "value": 0.2992125984251969
            },
            {
              "number": 11,
              "ticks": 268685,
              "time": 287.05689663541665,
              "value": 0.29133858267716534
            },
            {
              "number": 11,
              "ticks": 268785,
              "time": 287.16373434375,
              "value": 0.28346456692913385
            },
            {
              "number": 11,
              "ticks": 268885,
              "time": 287.2705720520833,
              "value": 0.2755905511811024
            },
            {
              "number": 11,
              "ticks": 268985,
              "time": 287.37740976041664,
              "value": 0.2677165354330709
            },
            {
              "number": 11,
              "ticks": 269105,
              "time": 287.50561501041665,
              "value": 0.25984251968503935
            },
            {
              "number": 11,
              "ticks": 269205,
              "time": 287.61245271875,
              "value": 0.25196850393700787
            },
            {
              "number": 11,
              "ticks": 269305,
              "time": 287.7192904270833,
              "value": 0.2440944881889764
            },
            {
              "number": 11,
              "ticks": 269425,
              "time": 287.8474956770833,
              "value": 0.23622047244094488
            },
            {
              "number": 11,
              "ticks": 269525,
              "time": 287.95433338541665,
              "value": 0.2283464566929134
            },
            {
              "number": 11,
              "ticks": 269625,
              "time": 288.06117109375,
              "value": 0.2204724409448819
            },
            {
              "number": 11,
              "ticks": 269725,
              "time": 288.16800880208336,
              "value": 0.2125984251968504
            },
            {
              "number": 11,
              "ticks": 269845,
              "time": 288.2962140520833,
              "value": 0.2047244094488189
            },
            {
              "number": 11,
              "ticks": 269945,
              "time": 288.40305176041664,
              "value": 0.1968503937007874
            },
            {
              "number": 11,
              "ticks": 270045,
              "time": 288.50988946875,
              "value": 0.1889763779527559
            },
            {
              "number": 11,
              "ticks": 270145,
              "time": 288.61672717708336,
              "value": 0.18110236220472442
            },
            {
              "number": 11,
              "ticks": 270265,
              "time": 288.7449324270833,
              "value": 0.1732283464566929
            },
            {
              "number": 11,
              "ticks": 270365,
              "time": 288.85177013541664,
              "value": 0.16535433070866143
            },
            {
              "number": 11,
              "ticks": 270465,
              "time": 288.95860784375,
              "value": 0.15748031496062992
            },
            {
              "number": 11,
              "ticks": 270565,
              "time": 289.06544555208336,
              "value": 0.14960629921259844
            },
            {
              "number": 11,
              "ticks": 270685,
              "time": 289.1936508020833,
              "value": 0.14173228346456693
            },
            {
              "number": 11,
              "ticks": 270785,
              "time": 289.30048851041664,
              "value": 0.13385826771653545
            },
            {
              "number": 11,
              "ticks": 270885,
              "time": 289.40732621875,
              "value": 0.12598425196850394
            },
            {
              "number": 11,
              "ticks": 270985,
              "time": 289.51416392708336,
              "value": 0.11811023622047244
            },
            {
              "number": 11,
              "ticks": 271105,
              "time": 289.6423691770833,
              "value": 0.11023622047244094
            },
            {
              "number": 11,
              "ticks": 271205,
              "time": 289.74920688541664,
              "value": 0.10236220472440945
            },
            {
              "number": 11,
              "ticks": 271305,
              "time": 289.85604459374997,
              "value": 0.09448818897637795
            },
            {
              "number": 11,
              "ticks": 271405,
              "time": 289.96288230208336,
              "value": 0.08661417322834646
            },
            {
              "number": 11,
              "ticks": 271525,
              "time": 290.0910875520833,
              "value": 0.07874015748031496
            },
            {
              "number": 11,
              "ticks": 271625,
              "time": 290.19792526041664,
              "value": 0.07086614173228346
            },
            {
              "number": 11,
              "ticks": 271725,
              "time": 290.30476296874997,
              "value": 0.06299212598425197
            },
            {
              "number": 11,
              "ticks": 271825,
              "time": 290.41160067708336,
              "value": 0.05511811023622047
            },
            {
              "number": 11,
              "ticks": 271945,
              "time": 290.53980592708336,
              "value": 0.047244094488188976
            },
            {
              "number": 11,
              "ticks": 272045,
              "time": 290.64664363541664,
              "value": 0.03937007874015748
            },
            {
              "number": 11,
              "ticks": 272145,
              "time": 290.75348134374997,
              "value": 0.031496062992125984
            },
            {
              "number": 11,
              "ticks": 272245,
              "time": 290.86031905208336,
              "value": 0.023622047244094488
            },
            {
              "number": 11,
              "ticks": 272365,
              "time": 290.98852430208336,
              "value": 0.015748031496062992
            },
            {
              "number": 11,
              "ticks": 272465,
              "time": 291.09536201041664,
              "value": 0.007874015748031496
            },
            {
              "number": 11,
              "ticks": 272565,
              "time": 291.20219971874997,
              "value": 0
            }
          ],
          "32": [
            {
              "number": 32,
              "ticks": 600,
              "time": 0.6410262499999999,
              "value": 0
            }
          ],
          "38": [
            {
              "number": 38,
              "ticks": 1145,
              "time": 1.2232917604166664,
              "value": 0
            },
            {
              "number": 38,
              "ticks": 1295,
              "time": 1.3835483229166665,
              "value": 0
            },
            {
              "number": 38,
              "ticks": 1473,
              "time": 1.57371944375,
              "value": 0
            },
            {
              "number": 38,
              "ticks": 1618,
              "time": 1.7286341208333331,
              "value": 0
            },
            {
              "number": 38,
              "ticks": 1750,
              "time": 1.8696598958333333,
              "value": 0
            },
            {
              "number": 38,
              "ticks": 1843,
              "time": 1.9690189645833331,
              "value": 0
            },
            {
              "number": 38,
              "ticks": 4035,
              "time": 4.31090153125,
              "value": 0
            },
            {
              "number": 38,
              "ticks": 4208,
              "time": 4.495730766666667,
              "value": 0
            },
            {
              "number": 38,
              "ticks": 13358,
              "time": 14.271381079166666,
              "value": 0
            },
            {
              "number": 38,
              "ticks": 14353,
              "time": 15.334416277083333,
              "value": 0
            },
            {
              "number": 38,
              "ticks": 82315,
              "time": 87.94345961458333,
              "value": 0
            },
            {
              "number": 38,
              "ticks": 82493,
              "time": 88.13363073541667,
              "value": 0
            }
          ],
          "91": [
            {
              "number": 91,
              "ticks": 750,
              "time": 0.8012828125,
              "value": 0.8661417322834646
            }
          ],
          "93": [
            {
              "number": 93,
              "ticks": 798,
              "time": 0.8525649125,
              "value": 0.23622047244094488
            }
          ],
          "98": [
            {
              "number": 98,
              "ticks": 1140,
              "time": 1.217949875,
              "value": 0.33070866141732286
            },
            {
              "number": 98,
              "ticks": 1290,
              "time": 1.3782064374999998,
              "value": 0.33070866141732286
            },
            {
              "number": 98,
              "ticks": 1350,
              "time": 1.4423090625,
              "value": 0.31496062992125984
            },
            {
              "number": 98,
              "ticks": 1410,
              "time": 1.5064116875,
              "value": 0.2992125984251969
            },
            {
              "number": 98,
              "ticks": 1468,
              "time": 1.568377558333333,
              "value": 0.28346456692913385
            },
            {
              "number": 98,
              "ticks": 1528,
              "time": 1.6324801833333331,
              "value": 0.29133858267716534
            },
            {
              "number": 98,
              "ticks": 1588,
              "time": 1.6965828083333332,
              "value": 0.30708661417322836
            },
            {
              "number": 98,
              "ticks": 1613,
              "time": 1.7232922354166664,
              "value": 0.31496062992125984
            },
            {
              "number": 98,
              "ticks": 1673,
              "time": 1.7873948604166665,
              "value": 0.30708661417322836
            },
            {
              "number": 98,
              "ticks": 1733,
              "time": 1.8514974854166666,
              "value": 0.29133858267716534
            },
            {
              "number": 98,
              "ticks": 1745,
              "time": 1.8643180104166666,
              "value": 0.28346456692913385
            },
            {
              "number": 98,
              "ticks": 1805,
              "time": 1.9284206354166664,
              "value": 0.2992125984251969
            },
            {
              "number": 98,
              "ticks": 1838,
              "time": 1.9636770791666665,
              "value": 0.31496062992125984
            },
            {
              "number": 98,
              "ticks": 1898,
              "time": 2.0277797041666665,
              "value": 0.3228346456692913
            },
            {
              "number": 98,
              "ticks": 1958,
              "time": 2.0918823291666664,
              "value": 0.33070866141732286
            },
            {
              "number": 98,
              "ticks": 2018,
              "time": 2.1559849541666667,
              "value": 0.33858267716535434
            },
            {
              "number": 98,
              "ticks": 2078,
              "time": 2.2200875791666665,
              "value": 0.3464566929133858
            },
            {
              "number": 98,
              "ticks": 2138,
              "time": 2.2841902041666664,
              "value": 0.3543307086614173
            },
            {
              "number": 98,
              "ticks": 2198,
              "time": 2.3482928291666667,
              "value": 0.36220472440944884
            },
            {
              "number": 98,
              "ticks": 2258,
              "time": 2.4123954541666666,
              "value": 0.3779527559055118
            },
            {
              "number": 98,
              "ticks": 2318,
              "time": 2.4764980791666664,
              "value": 0.3858267716535433
            },
            {
              "number": 98,
              "ticks": 2378,
              "time": 2.5406007041666663,
              "value": 0.3937007874015748
            },
            {
              "number": 98,
              "ticks": 2438,
              "time": 2.6047033291666666,
              "value": 0.4015748031496063
            },
            {
              "number": 98,
              "ticks": 2498,
              "time": 2.6688059541666664,
              "value": 0.4094488188976378
            },
            {
              "number": 98,
              "ticks": 2558,
              "time": 2.7329085791666663,
              "value": 0.41732283464566927
            },
            {
              "number": 98,
              "ticks": 2618,
              "time": 2.7970112041666666,
              "value": 0.4251968503937008
            },
            {
              "number": 98,
              "ticks": 2678,
              "time": 2.8611138291666665,
              "value": 0.4409448818897638
            },
            {
              "number": 98,
              "ticks": 2738,
              "time": 2.9252164541666663,
              "value": 0.44881889763779526
            },
            {
              "number": 98,
              "ticks": 2798,
              "time": 2.9893190791666666,
              "value": 0.4566929133858268
            },
            {
              "number": 98,
              "ticks": 2858,
              "time": 3.0534217041666665,
              "value": 0.4645669291338583
            },
            {
              "number": 98,
              "ticks": 2918,
              "time": 3.1175243291666663,
              "value": 0.47244094488188976
            },
            {
              "number": 98,
              "ticks": 2978,
              "time": 3.1816269541666666,
              "value": 0.48031496062992124
            },
            {
              "number": 98,
              "ticks": 3038,
              "time": 3.2457295791666665,
              "value": 0.4881889763779528
            },
            {
              "number": 98,
              "ticks": 3098,
              "time": 3.3098322041666663,
              "value": 0.5039370078740157
            },
            {
              "number": 98,
              "ticks": 3158,
              "time": 3.3739348291666666,
              "value": 0.5118110236220472
            },
            {
              "number": 98,
              "ticks": 3218,
              "time": 3.4380374541666665,
              "value": 0.5196850393700787
            },
            {
              "number": 98,
              "ticks": 3278,
              "time": 3.5021400791666664,
              "value": 0.5275590551181102
            },
            {
              "number": 98,
              "ticks": 3338,
              "time": 3.566242704166666,
              "value": 0.5354330708661418
            },
            {
              "number": 98,
              "ticks": 3398,
              "time": 3.6303453291666665,
              "value": 0.5433070866141733
            },
            {
              "number": 98,
              "ticks": 3458,
              "time": 3.6944479541666664,
              "value": 0.5590551181102362
            },
            {
              "number": 98,
              "ticks": 3518,
              "time": 3.7585505791666662,
              "value": 0.5669291338582677
            },
            {
              "number": 98,
              "ticks": 3578,
              "time": 3.8226532041666665,
              "value": 0.5748031496062992
            },
            {
              "number": 98,
              "ticks": 3638,
              "time": 3.8867558291666664,
              "value": 0.5826771653543307
            },
            {
              "number": 98,
              "ticks": 3698,
              "time": 3.9508584541666663,
              "value": 0.5905511811023622
            },
            {
              "number": 98,
              "ticks": 3758,
              "time": 4.014961079166667,
              "value": 0.5984251968503937
            },
            {
              "number": 98,
              "ticks": 3818,
              "time": 4.079063704166666,
              "value": 0.6062992125984252
            },
            {
              "number": 98,
              "ticks": 3878,
              "time": 4.143166329166667,
              "value": 0.6220472440944882
            },
            {
              "number": 98,
              "ticks": 3938,
              "time": 4.207268954166667,
              "value": 0.6299212598425197
            },
            {
              "number": 98,
              "ticks": 3998,
              "time": 4.271371579166667,
              "value": 0.6377952755905512
            },
            {
              "number": 98,
              "ticks": 4030,
              "time": 4.305559645833333,
              "value": 0.6456692913385826
            },
            {
              "number": 98,
              "ticks": 4203,
              "time": 4.4903888812499995,
              "value": 0.6456692913385826
            },
            {
              "number": 98,
              "ticks": 4906,
              "time": 5.241457970833333,
              "value": 0.6377952755905512
            },
            {
              "number": 98,
              "ticks": 5610,
              "time": 5.9935954375,
              "value": 0.6299212598425197
            },
            {
              "number": 98,
              "ticks": 6314,
              "time": 6.745732904166666,
              "value": 0.6220472440944882
            },
            {
              "number": 98,
              "ticks": 7018,
              "time": 7.497870370833333,
              "value": 0.6141732283464567
            },
            {
              "number": 98,
              "ticks": 7722,
              "time": 8.250007837499998,
              "value": 0.6062992125984252
            },
            {
              "number": 98,
              "ticks": 8426,
              "time": 9.002145304166666,
              "value": 0.5984251968503937
            },
            {
              "number": 98,
              "ticks": 9129,
              "time": 9.75321439375,
              "value": 0.5905511811023622
            },
            {
              "number": 98,
              "ticks": 9833,
              "time": 10.505351860416665,
              "value": 0.5826771653543307
            },
            {
              "number": 98,
              "ticks": 10538,
              "time": 11.258557704166666,
              "value": 0.5748031496062992
            },
            {
              "number": 98,
              "ticks": 11241,
              "time": 12.009626793749998,
              "value": 0.5669291338582677
            },
            {
              "number": 98,
              "ticks": 11945,
              "time": 12.761764260416667,
              "value": 0.5590551181102362
            },
            {
              "number": 98,
              "ticks": 12649,
              "time": 13.513901727083333,
              "value": 0.5511811023622047
            },
            {
              "number": 98,
              "ticks": 13353,
              "time": 14.26603919375,
              "value": 0.5433070866141733
            },
            {
              "number": 98,
              "ticks": 14348,
              "time": 15.329074391666666,
              "value": 0.5433070866141733
            },
            {
              "number": 98,
              "ticks": 16613,
              "time": 17.748948485416665,
              "value": 0.5354330708661418
            },
            {
              "number": 98,
              "ticks": 18878,
              "time": 20.168822579166665,
              "value": 0.5275590551181102
            },
            {
              "number": 98,
              "ticks": 21144,
              "time": 22.589765049999997,
              "value": 0.5196850393700787
            },
            {
              "number": 98,
              "ticks": 23409,
              "time": 25.009639143749997,
              "value": 0.5118110236220472
            },
            {
              "number": 98,
              "ticks": 25675,
              "time": 27.430581614583332,
              "value": 0.5039370078740157
            },
            {
              "number": 98,
              "ticks": 27940,
              "time": 29.85045570833333,
              "value": 0.49606299212598426
            },
            {
              "number": 98,
              "ticks": 30206,
              "time": 32.27139817916667,
              "value": 0.4881889763779528
            },
            {
              "number": 98,
              "ticks": 32471,
              "time": 34.69127227291666,
              "value": 0.48031496062992124
            },
            {
              "number": 98,
              "ticks": 34736,
              "time": 37.11114636666666,
              "value": 0.47244094488188976
            },
            {
              "number": 98,
              "ticks": 37002,
              "time": 39.5320888375,
              "value": 0.4645669291338583
            },
            {
              "number": 98,
              "ticks": 39267,
              "time": 41.95196293125,
              "value": 0.4566929133858268
            },
            {
              "number": 98,
              "ticks": 41533,
              "time": 44.37290540208333,
              "value": 0.44881889763779526
            },
            {
              "number": 98,
              "ticks": 43798,
              "time": 46.79277949583333,
              "value": 0.4409448818897638
            },
            {
              "number": 98,
              "ticks": 46063,
              "time": 49.21265358958333,
              "value": 0.4330708661417323
            },
            {
              "number": 98,
              "ticks": 48329,
              "time": 51.633596060416664,
              "value": 0.4251968503937008
            },
            {
              "number": 98,
              "ticks": 50594,
              "time": 54.05347015416667,
              "value": 0.41732283464566927
            },
            {
              "number": 98,
              "ticks": 52860,
              "time": 56.474412625,
              "value": 0.4094488188976378
            },
            {
              "number": 98,
              "ticks": 55125,
              "time": 58.894286718749996,
              "value": 0.4015748031496063
            },
            {
              "number": 98,
              "ticks": 57390,
              "time": 61.3141608125,
              "value": 0.3937007874015748
            },
            {
              "number": 98,
              "ticks": 59656,
              "time": 63.73510328333333,
              "value": 0.3858267716535433
            },
            {
              "number": 98,
              "ticks": 61921,
              "time": 66.15497737708333,
              "value": 0.3779527559055118
            },
            {
              "number": 98,
              "ticks": 64187,
              "time": 68.57591984791667,
              "value": 0.3700787401574803
            },
            {
              "number": 98,
              "ticks": 66452,
              "time": 70.99579394166666,
              "value": 0.36220472440944884
            },
            {
              "number": 98,
              "ticks": 68718,
              "time": 73.41673641249999,
              "value": 0.3543307086614173
            },
            {
              "number": 98,
              "ticks": 70983,
              "time": 75.83661050625,
              "value": 0.3464566929133858
            },
            {
              "number": 98,
              "ticks": 73248,
              "time": 78.2564846,
              "value": 0.33858267716535434
            },
            {
              "number": 98,
              "ticks": 75514,
              "time": 80.67742707083333,
              "value": 0.33070866141732286
            },
            {
              "number": 98,
              "ticks": 77779,
              "time": 83.09730116458333,
              "value": 0.3228346456692913
            },
            {
              "number": 98,
              "ticks": 80045,
              "time": 85.51824363541665,
              "value": 0.31496062992125984
            },
            {
              "number": 98,
              "ticks": 82310,
              "time": 87.93811772916666,
              "value": 0.30708661417322836
            },
            {
              "number": 98,
              "ticks": 82488,
              "time": 88.12828884999999,
              "value": 0.30708661417322836
            }
          ],
          "99": [
            {
              "number": 99,
              "ticks": 1138,
              "time": 1.2158131208333331,
              "value": 0.2204724409448819
            },
            {
              "number": 99,
              "ticks": 1288,
              "time": 1.3760696833333332,
              "value": 0.2283464566929134
            },
            {
              "number": 99,
              "ticks": 1348,
              "time": 1.440172308333333,
              "value": 0.2204724409448819
            },
            {
              "number": 99,
              "ticks": 1408,
              "time": 1.5042749333333332,
              "value": 0.2047244094488189
            },
            {
              "number": 99,
              "ticks": 1465,
              "time": 1.5651724270833334,
              "value": 0.1889763779527559
            },
            {
              "number": 99,
              "ticks": 1610,
              "time": 1.7200871041666665,
              "value": 0.1889763779527559
            },
            {
              "number": 99,
              "ticks": 1670,
              "time": 1.7841897291666664,
              "value": 0.2047244094488189
            },
            {
              "number": 99,
              "ticks": 1730,
              "time": 1.8482923541666665,
              "value": 0.2204724409448819
            },
            {
              "number": 99,
              "ticks": 1743,
              "time": 1.86218125625,
              "value": 0.2283464566929134
            },
            {
              "number": 99,
              "ticks": 1835,
              "time": 1.9604719479166666,
              "value": 0.2283464566929134
            },
            {
              "number": 99,
              "ticks": 4028,
              "time": 4.303422891666667,
              "value": 0.2204724409448819
            },
            {
              "number": 99,
              "ticks": 4200,
              "time": 4.48718375,
              "value": 0.2283464566929134
            },
            {
              "number": 99,
              "ticks": 13350,
              "time": 14.2628340625,
              "value": 0.2204724409448819
            },
            {
              "number": 99,
              "ticks": 14345,
              "time": 15.325869260416667,
              "value": 0.2204724409448819
            },
            {
              "number": 99,
              "ticks": 31336,
              "time": 33.47866428333333,
              "value": 0.2125984251968504
            },
            {
              "number": 99,
              "ticks": 48326,
              "time": 51.63039092916666,
              "value": 0.2047244094488189
            },
            {
              "number": 99,
              "ticks": 65317,
              "time": 69.78318595208333,
              "value": 0.1968503937007874
            },
            {
              "number": 99,
              "ticks": 82308,
              "time": 87.93598097499999,
              "value": 0.1889763779527559
            },
            {
              "number": 99,
              "ticks": 82368,
              "time": 88.0000836,
              "value": 0.1968503937007874
            },
            {
              "number": 99,
              "ticks": 82428,
              "time": 88.06418622499999,
              "value": 0.2125984251968504
            },
            {
              "number": 99,
              "ticks": 82485,
              "time": 88.12508371874999,
              "value": 0.2283464566929134
            }
          ],
          "120": [
            {
              "number": 120,
              "ticks": 272865,
              "time": 291.52271284374996,
              "value": 0
            }
          ],
          "121": [
            {
              "number": 121,
              "ticks": 485,
              "time": 0.5181628854166667,
              "value": 0
            }
          ],
          "123": [
            {
              "number": 123,
              "ticks": 272965,
              "time": 291.62955055208334,
              "value": 0
            }
          ]
        },
        "pitchBends": [],
        "instrument": {
          "family": "drums",
          "number": 0,
          "name": "standard kit"
        },
        "name": "       ",
        "notes": [
          {
            "duration": 0.03205131250000015,
            "durationTicks": 30,
            "midi": 36,
            "name": "C2",
            "ticks": 3840,
            "time": 4.102568,
            "velocity": 0.8740157480314961
          },
          {
            "duration": 0.03205131250000015,
            "durationTicks": 30,
            "midi": 42,
            "name": "F#2",
            "ticks": 3840,
            "time": 4.102568,
            "velocity": 0.47244094488188976
          },
          {
            "duration": 0.03205131249999926,
            "durationTicks": 30,
            "midi": 42,
            "name": "F#2",
            "ticks": 4080,
            "time": 4.3589785,
            "velocity": 0.5905511811023622
          },
          {
            "duration": 0.03205131250000015,
            "durationTicks": 30,
            "midi": 40,
            "name": "E2",
            "ticks": 4320,
            "time": 4.6153889999999995,
            "velocity": 0.937007874015748
          },
          {
            "duration": 0.03205131250000015,
            "durationTicks": 30,
            "midi": 42,
            "name": "F#2",
            "ticks": 4320,
            "time": 4.6153889999999995,
            "velocity": 0.4330708661417323
          },
          {
            "duration": 0.03205131250000015,
            "durationTicks": 30,
            "midi": 42,
            "name": "F#2",
            "ticks": 4560,
            "time": 4.8717995,
            "velocity": 0.6692913385826772
          },
          {
            "duration": 0.03205131250000015,
            "durationTicks": 30,
            "midi": 36,
            "name": "C2",
            "ticks": 4800,
            "time": 5.128209999999999,
            "velocity": 0.8740157480314961
          },
          {
            "duration": 0.03205131250000015,
            "durationTicks": 30,
            "midi": 42,
            "name": "F#2",
            "ticks": 4800,
            "time": 5.128209999999999,
            "velocity": 0.4094488188976378
          },
          {
            "duration": 0.03205131250000015,
            "durationTicks": 30,
            "midi": 42,
            "name": "F#2",
            "ticks": 5040,
            "time": 5.3846205,
            "velocity": 0.6299212598425197
          },
          {
            "duration": 0.03205131250000015,
            "durationTicks": 30,
            "midi": 40,
            "name": "E2",
            "ticks": 5280,
            "time": 5.641031,
            "velocity": 0.937007874015748
          },
          {
            "duration": 0.03205131250000015,
            "durationTicks": 30,
            "midi": 42,
            "name": "F#2",
            "ticks": 5280,
            "time": 5.641031,
            "velocity": 0.4094488188976378
          },
          {
            "duration": 0.03205131250000015,
            "durationTicks": 30,
            "midi": 42,
            "name": "F#2",
            "ticks": 5520,
            "time": 5.897441499999999,
            "velocity": 0.6692913385826772
          },
          {
            "duration": 0.03205131250000015,
            "durationTicks": 30,
            "midi": 36,
            "name": "C2",
            "ticks": 5760,
            "time": 6.153852,
            "velocity": 0.8740157480314961
          },
          {
            "duration": 0.03205131250000015,
            "durationTicks": 30,
            "midi": 42,
            "name": "F#2",
            "ticks": 5760,
            "time": 6.153852,
            "velocity": 0.3779527559055118
          },
          {
            "duration": 0.03205131249999926,
            "durationTicks": 30,
            "midi": 42,
            "name": "F#2",
            "ticks": 6000,
            "time": 6.4102625,
            "velocity": 0.5905511811023622
          },
          {
            "duration": 0.03205131250000015,
            "durationTicks": 30,
            "midi": 40,
            "name": "E2",
            "ticks": 6240,
            "time": 6.666672999999999,
            "velocity": 0.9291338582677166
          },
          {
            "duration": 0.03205131250000015,
            "durationTicks": 30,
            "midi": 42,
            "name": "F#2",
            "ticks": 6240,
            "time": 6.666672999999999,
            "velocity": 0.47244094488188976
          },
          {
            "duration": 0.03205131250000015,
            "durationTicks": 30,
            "midi": 42,
            "name": "F#2",
            "ticks": 6480,
            "time": 6.9230835,
            "velocity": 0.6299212598425197
          },
          {
            "duration": 0.03205131249999926,
            "durationTicks": 30,
            "midi": 36,
            "name": "C2",
            "ticks": 6720,
            "time": 7.179494,
            "velocity": 0.8740157480314961
          },
          {
            "duration": 0.03205131249999926,
            "durationTicks": 30,
            "midi": 42,
            "name": "F#2",
            "ticks": 6720,
            "time": 7.179494,
            "velocity": 0.49606299212598426
          },
          {
            "duration": 0.03205131250000015,
            "durationTicks": 30,
            "midi": 42,
            "name": "F#2",
            "ticks": 6960,
            "time": 7.4359044999999995,
            "velocity": 0.5905511811023622
          },
          {
            "duration": 0.03205131250000015,
            "durationTicks": 30,
            "midi": 40,
            "name": "E2",
            "ticks": 7200,
            "time": 7.692315,
            "velocity": 0.937007874015748
          },
          {
            "duration": 0.03205131250000015,
            "durationTicks": 30,
            "midi": 42,
            "name": "F#2",
            "ticks": 7200,
            "time": 7.692315,
            "velocity": 0.49606299212598426
          },
          {
            "duration": 0.03205131250000015,
            "durationTicks": 30,
            "midi": 42,
            "name": "F#2",
            "ticks": 7440,
            "time": 7.948725499999999,
            "velocity": 0.6692913385826772
          },
          {
            "duration": 0.03205131250000015,
            "durationTicks": 30,
            "midi": 36,
            "name": "C2",
            "ticks": 7680,
            "time": 8.205136,
            "velocity": 0.8740157480314961
          },
          {
            "duration": 0.03205131250000015,
            "durationTicks": 30,
            "midi": 42,
            "name": "F#2",
            "ticks": 7680,
            "time": 8.205136,
            "velocity": 0.47244094488188976
          },
          {
            "duration": 0.03205131250000015,
            "durationTicks": 30,
            "midi": 82,
            "name": "A#5",
            "ticks": 7680,
            "time": 8.205136,
            "velocity": 0.5354330708661418
          },
          {
            "duration": 0.03205131250000015,
            "durationTicks": 30,
            "midi": 42,
            "name": "F#2",
            "ticks": 7920,
            "time": 8.461546499999999,
            "velocity": 0.5905511811023622
          },
          {
            "duration": 0.03205131250000015,
            "durationTicks": 30,
            "midi": 82,
            "name": "A#5",
            "ticks": 7920,
            "time": 8.461546499999999,
            "velocity": 0.48031496062992124
          },
          {
            "duration": 0.03205131250000015,
            "durationTicks": 30,
            "midi": 40,
            "name": "E2",
            "ticks": 8160,
            "time": 8.717957,
            "velocity": 0.937007874015748
          },
          {
            "duration": 0.03205131250000015,
            "durationTicks": 30,
            "midi": 42,
            "name": "F#2",
            "ticks": 8160,
            "time": 8.717957,
            "velocity": 0.4330708661417323
          },
          {
            "duration": 0.03205131250000015,
            "durationTicks": 30,
            "midi": 82,
            "name": "A#5",
            "ticks": 8160,
            "time": 8.717957,
            "velocity": 0.48031496062992124
          },
          {
            "duration": 0.03205131250000015,
            "durationTicks": 30,
            "midi": 42,
            "name": "F#2",
            "ticks": 8400,
            "time": 8.9743675,
            "velocity": 0.6692913385826772
          },
          {
            "duration": 0.03205131250000015,
            "durationTicks": 30,
            "midi": 82,
            "name": "A#5",
            "ticks": 8400,
            "time": 8.9743675,
            "velocity": 0.44881889763779526
          },
          {
            "duration": 0.03205131250000015,
            "durationTicks": 30,
            "midi": 36,
            "name": "C2",
            "ticks": 8640,
            "time": 9.230777999999999,
            "velocity": 0.8740157480314961
          },
          {
            "duration": 0.03205131250000015,
            "durationTicks": 30,
            "midi": 42,
            "name": "F#2",
            "ticks": 8640,
            "time": 9.230777999999999,
            "velocity": 0.4094488188976378
          },
          {
            "duration": 0.03205131250000015,
            "durationTicks": 30,
            "midi": 82,
            "name": "A#5",
            "ticks": 8640,
            "time": 9.230777999999999,
            "velocity": 0.5039370078740157
          },
          {
            "duration": 0.032051312499998375,
            "durationTicks": 30,
            "midi": 42,
            "name": "F#2",
            "ticks": 8880,
            "time": 9.4871885,
            "velocity": 0.6299212598425197
          },
          {
            "duration": 0.032051312499998375,
            "durationTicks": 30,
            "midi": 82,
            "name": "A#5",
            "ticks": 8880,
            "time": 9.4871885,
            "velocity": 0.41732283464566927
          },
          {
            "duration": 0.03205131250000015,
            "durationTicks": 30,
            "midi": 40,
            "name": "E2",
            "ticks": 9120,
            "time": 9.743599,
            "velocity": 0.937007874015748
          },
          {
            "duration": 0.03205131250000015,
            "durationTicks": 30,
            "midi": 42,
            "name": "F#2",
            "ticks": 9120,
            "time": 9.743599,
            "velocity": 0.4094488188976378
          },
          {
            "duration": 0.03205131250000015,
            "durationTicks": 30,
            "midi": 82,
            "name": "A#5",
            "ticks": 9120,
            "time": 9.743599,
            "velocity": 0.5354330708661418
          },
          {
            "duration": 0.03205131250000015,
            "durationTicks": 30,
            "midi": 42,
            "name": "F#2",
            "ticks": 9360,
            "time": 10.000009499999999,
            "velocity": 0.6692913385826772
          },
          {
            "duration": 0.03205131250000015,
            "durationTicks": 30,
            "midi": 82,
            "name": "A#5",
            "ticks": 9360,
            "time": 10.000009499999999,
            "velocity": 0.5039370078740157
          },
          {
            "duration": 0.03205131250000015,
            "durationTicks": 30,
            "midi": 36,
            "name": "C2",
            "ticks": 9600,
            "time": 10.256419999999999,
            "velocity": 0.8740157480314961
          },
          {
            "duration": 0.03205131250000015,
            "durationTicks": 30,
            "midi": 42,
            "name": "F#2",
            "ticks": 9600,
            "time": 10.256419999999999,
            "velocity": 0.3779527559055118
          },
          {
            "duration": 0.03205131250000015,
            "durationTicks": 30,
            "midi": 82,
            "name": "A#5",
            "ticks": 9600,
            "time": 10.256419999999999,
            "velocity": 0.4881889763779528
          },
          {
            "duration": 0.03205131250000015,
            "durationTicks": 30,
            "midi": 42,
            "name": "F#2",
            "ticks": 9840,
            "time": 10.5128305,
            "velocity": 0.5905511811023622
          },
          {
            "duration": 0.03205131250000015,
            "durationTicks": 30,
            "midi": 82,
            "name": "A#5",
            "ticks": 9840,
            "time": 10.5128305,
            "velocity": 0.4094488188976378
          },
          {
            "duration": 0.03205131250000015,
            "durationTicks": 30,
            "midi": 40,
            "name": "E2",
            "ticks": 10080,
            "time": 10.769241,
            "velocity": 0.9291338582677166
          },
          {
            "duration": 0.03205131250000015,
            "durationTicks": 30,
            "midi": 42,
            "name": "F#2",
            "ticks": 10080,
            "time": 10.769241,
            "velocity": 0.47244094488188976
          },
          {
            "duration": 0.03205131250000015,
            "durationTicks": 30,
            "midi": 82,
            "name": "A#5",
            "ticks": 10080,
            "time": 10.769241,
            "velocity": 0.5511811023622047
          },
          {
            "duration": 0.03205131250000015,
            "durationTicks": 30,
            "midi": 42,
            "name": "F#2",
            "ticks": 10320,
            "time": 11.025651499999999,
            "velocity": 0.6299212598425197
          },
          {
            "duration": 0.03205131250000015,
            "durationTicks": 30,
            "midi": 82,
            "name": "A#5",
            "ticks": 10320,
            "time": 11.025651499999999,
            "velocity": 0.4645669291338583
          },
          {
            "duration": 0.03205131250000015,
            "durationTicks": 30,
            "midi": 36,
            "name": "C2",
            "ticks": 10560,
            "time": 11.282062,
            "velocity": 0.8740157480314961
          },
          {
            "duration": 0.03205131250000015,
            "durationTicks": 30,
            "midi": 42,
            "name": "F#2",
            "ticks": 10560,
            "time": 11.282062,
            "velocity": 0.49606299212598426
          },
          {
            "duration": 0.03205131250000015,
            "durationTicks": 30,
            "midi": 82,
            "name": "A#5",
            "ticks": 10560,
            "time": 11.282062,
            "velocity": 0.5354330708661418
          },
          {
            "duration": 0.03205131250000015,
            "durationTicks": 30,
            "midi": 42,
            "name": "F#2",
            "ticks": 10800,
            "time": 11.5384725,
            "velocity": 0.5905511811023622
          },
          {
            "duration": 0.03205131250000015,
            "durationTicks": 30,
            "midi": 82,
            "name": "A#5",
            "ticks": 10800,
            "time": 11.5384725,
            "velocity": 0.5196850393700787
          },
          {
            "duration": 0.03205131250000015,
            "durationTicks": 30,
            "midi": 40,
            "name": "E2",
            "ticks": 11040,
            "time": 11.794882999999999,
            "velocity": 0.937007874015748
          },
          {
            "duration": 0.03205131250000015,
            "durationTicks": 30,
            "midi": 42,
            "name": "F#2",
            "ticks": 11040,
            "time": 11.794882999999999,
            "velocity": 0.49606299212598426
          },
          {
            "duration": 0.03205131250000015,
            "durationTicks": 30,
            "midi": 82,
            "name": "A#5",
            "ticks": 11040,
            "time": 11.794882999999999,
            "velocity": 0.5826771653543307
          },
          {
            "duration": 0.03205131250000015,
            "durationTicks": 30,
            "midi": 42,
            "name": "F#2",
            "ticks": 11280,
            "time": 12.0512935,
            "velocity": 0.6692913385826772
          },
          {
            "duration": 0.03205131250000015,
            "durationTicks": 30,
            "midi": 82,
            "name": "A#5",
            "ticks": 11280,
            "time": 12.0512935,
            "velocity": 0.4409448818897638
          },
          {
            "duration": 0.03205131250000015,
            "durationTicks": 30,
            "midi": 36,
            "name": "C2",
            "ticks": 11520,
            "time": 12.307704,
            "velocity": 0.8740157480314961
          },
          {
            "duration": 0.03205131250000015,
            "durationTicks": 30,
            "midi": 42,
            "name": "F#2",
            "ticks": 11520,
            "time": 12.307704,
            "velocity": 0.47244094488188976
          },
          {
            "duration": 0.03205131250000015,
            "durationTicks": 30,
            "midi": 82,
            "name": "A#5",
            "ticks": 11520,
            "time": 12.307704,
            "velocity": 0.5826771653543307
          },
          {
            "duration": 0.03205131250000015,
            "durationTicks": 30,
            "midi": 42,
            "name": "F#2",
            "ticks": 11760,
            "time": 12.564114499999999,
            "velocity": 0.5905511811023622
          },
          {
            "duration": 0.03205131250000015,
            "durationTicks": 30,
            "midi": 82,
            "name": "A#5",
            "ticks": 11760,
            "time": 12.564114499999999,
            "velocity": 0.5039370078740157
          },
          {
            "duration": 0.03205131250000015,
            "durationTicks": 30,
            "midi": 40,
            "name": "E2",
            "ticks": 12000,
            "time": 12.820525,
            "velocity": 0.937007874015748
          },
          {
            "duration": 0.03205131250000015,
            "durationTicks": 30,
            "midi": 42,
            "name": "F#2",
            "ticks": 12000,
            "time": 12.820525,
            "velocity": 0.4330708661417323
          },
          {
            "duration": 0.03205131250000015,
            "durationTicks": 30,
            "midi": 82,
            "name": "A#5",
            "ticks": 12000,
            "time": 12.820525,
            "velocity": 0.5669291338582677
          },
          {
            "duration": 0.03205131250000015,
            "durationTicks": 30,
            "midi": 42,
            "name": "F#2",
            "ticks": 12240,
            "time": 13.0769355,
            "velocity": 0.6692913385826772
          },
          {
            "duration": 0.03205131250000015,
            "durationTicks": 30,
            "midi": 82,
            "name": "A#5",
            "ticks": 12240,
            "time": 13.0769355,
            "velocity": 0.5196850393700787
          },
          {
            "duration": 0.03205131250000015,
            "durationTicks": 30,
            "midi": 36,
            "name": "C2",
            "ticks": 12480,
            "time": 13.333345999999999,
            "velocity": 0.8740157480314961
          },
          {
            "duration": 0.03205131250000015,
            "durationTicks": 30,
            "midi": 42,
            "name": "F#2",
            "ticks": 12480,
            "time": 13.333345999999999,
            "velocity": 0.4094488188976378
          },
          {
            "duration": 0.03205131250000015,
            "durationTicks": 30,
            "midi": 82,
            "name": "A#5",
            "ticks": 12480,
            "time": 13.333345999999999,
            "velocity": 0.4881889763779528
          },
          {
            "duration": 0.032051312499998375,
            "durationTicks": 30,
            "midi": 42,
            "name": "F#2",
            "ticks": 12720,
            "time": 13.5897565,
            "velocity": 0.6299212598425197
          },
          {
            "duration": 0.032051312499998375,
            "durationTicks": 30,
            "midi": 82,
            "name": "A#5",
            "ticks": 12720,
            "time": 13.5897565,
            "velocity": 0.5196850393700787
          },
          {
            "duration": 0.03205131250000015,
            "durationTicks": 30,
            "midi": 40,
            "name": "E2",
            "ticks": 12960,
            "time": 13.846167,
            "velocity": 0.937007874015748
          },
          {
            "duration": 0.03205131250000015,
            "durationTicks": 30,
            "midi": 42,
            "name": "F#2",
            "ticks": 12960,
            "time": 13.846167,
            "velocity": 0.4094488188976378
          },
          {
            "duration": 0.03205131250000015,
            "durationTicks": 30,
            "midi": 82,
            "name": "A#5",
            "ticks": 12960,
            "time": 13.846167,
            "velocity": 0.5511811023622047
          },
          {
            "duration": 0.03205131250000015,
            "durationTicks": 30,
            "midi": 42,
            "name": "F#2",
            "ticks": 13200,
            "time": 14.102577499999999,
            "velocity": 0.6692913385826772
          },
          {
            "duration": 0.03205131250000015,
            "durationTicks": 30,
            "midi": 69,
            "name": "A4",
            "ticks": 13200,
            "time": 14.102577499999999,
            "velocity": 0.8346456692913385
          },
          {
            "duration": 0.03205131250000015,
            "durationTicks": 30,
            "midi": 82,
            "name": "A#5",
            "ticks": 13200,
            "time": 14.102577499999999,
            "velocity": 0.5511811023622047
          },
          {
            "duration": 0.032051312499998375,
            "durationTicks": 30,
            "midi": 36,
            "name": "C2",
            "ticks": 13440,
            "time": 14.358988,
            "velocity": 0.8740157480314961
          },
          {
            "duration": 0.032051312499998375,
            "durationTicks": 30,
            "midi": 42,
            "name": "F#2",
            "ticks": 13440,
            "time": 14.358988,
            "velocity": 0.3779527559055118
          },
          {
            "duration": 0.032051312499998375,
            "durationTicks": 30,
            "midi": 69,
            "name": "A4",
            "ticks": 13440,
            "time": 14.358988,
            "velocity": 0.937007874015748
          },
          {
            "duration": 0.032051312499998375,
            "durationTicks": 30,
            "midi": 82,
            "name": "A#5",
            "ticks": 13440,
            "time": 14.358988,
            "velocity": 0.5669291338582677
          },
          {
            "duration": 0.03205131250000015,
            "durationTicks": 30,
            "midi": 42,
            "name": "F#2",
            "ticks": 13680,
            "time": 14.6153985,
            "velocity": 0.5905511811023622
          },
          {
            "duration": 0.03205131250000015,
            "durationTicks": 30,
            "midi": 69,
            "name": "A4",
            "ticks": 13680,
            "time": 14.6153985,
            "velocity": 0.968503937007874
          },
          {
            "duration": 0.03205131250000015,
            "durationTicks": 30,
            "midi": 82,
            "name": "A#5",
            "ticks": 13680,
            "time": 14.6153985,
            "velocity": 0.5511811023622047
          },
          {
            "duration": 0.03205131250000015,
            "durationTicks": 30,
            "midi": 40,
            "name": "E2",
            "ticks": 13920,
            "time": 14.871808999999999,
            "velocity": 0.9291338582677166
          },
          {
            "duration": 0.03205131250000015,
            "durationTicks": 30,
            "midi": 42,
            "name": "F#2",
            "ticks": 13920,
            "time": 14.871808999999999,
            "velocity": 0.47244094488188976
          },
          {
            "duration": 0.03205131250000015,
            "durationTicks": 30,
            "midi": 69,
            "name": "A4",
            "ticks": 13920,
            "time": 14.871808999999999,
            "velocity": 0.7795275590551181
          },
          {
            "duration": 0.03205131250000015,
            "durationTicks": 30,
            "midi": 82,
            "name": "A#5",
            "ticks": 13920,
            "time": 14.871808999999999,
            "velocity": 0.5354330708661418
          },
          {
            "duration": 0.03205131250000015,
            "durationTicks": 30,
            "midi": 42,
            "name": "F#2",
            "ticks": 14160,
            "time": 15.128219499999998,
            "velocity": 0.6299212598425197
          },
          {
            "duration": 0.03205131250000015,
            "durationTicks": 30,
            "midi": 69,
            "name": "A4",
            "ticks": 14160,
            "time": 15.128219499999998,
            "velocity": 0.6771653543307087
          },
          {
            "duration": 0.03205131250000015,
            "durationTicks": 30,
            "midi": 82,
            "name": "A#5",
            "ticks": 14160,
            "time": 15.128219499999998,
            "velocity": 0.5511811023622047
          },
          {
            "duration": 0.03205131250000015,
            "durationTicks": 30,
            "midi": 36,
            "name": "C2",
            "ticks": 14400,
            "time": 15.38463,
            "velocity": 0.8740157480314961
          },
          {
            "duration": 0.03205131250000015,
            "durationTicks": 30,
            "midi": 42,
            "name": "F#2",
            "ticks": 14400,
            "time": 15.38463,
            "velocity": 0.49606299212598426
          },
          {
            "duration": 0.03205131250000015,
            "durationTicks": 30,
            "midi": 82,
            "name": "A#5",
            "ticks": 14400,
            "time": 15.38463,
            "velocity": 0.5511811023622047
          },
          {
            "duration": 0.03205131250000015,
            "durationTicks": 30,
            "midi": 42,
            "name": "F#2",
            "ticks": 14640,
            "time": 15.641040499999999,
            "velocity": 0.5905511811023622
          },
          {
            "duration": 0.03205131250000015,
            "durationTicks": 30,
            "midi": 82,
            "name": "A#5",
            "ticks": 14640,
            "time": 15.641040499999999,
            "velocity": 0.5826771653543307
          },
          {
            "duration": 0.03205131250000015,
            "durationTicks": 30,
            "midi": 40,
            "name": "E2",
            "ticks": 14880,
            "time": 15.897450999999998,
            "velocity": 0.937007874015748
          },
          {
            "duration": 0.03205131250000015,
            "durationTicks": 30,
            "midi": 42,
            "name": "F#2",
            "ticks": 14880,
            "time": 15.897450999999998,
            "velocity": 0.49606299212598426
          },
          {
            "duration": 0.03205131250000015,
            "durationTicks": 30,
            "midi": 82,
            "name": "A#5",
            "ticks": 14880,
            "time": 15.897450999999998,
            "velocity": 0.5354330708661418
          },
          {
            "duration": 0.03205131250000193,
            "durationTicks": 30,
            "midi": 42,
            "name": "F#2",
            "ticks": 15120,
            "time": 16.153861499999998,
            "velocity": 0.6692913385826772
          },
          {
            "duration": 0.03205131250000193,
            "durationTicks": 30,
            "midi": 82,
            "name": "A#5",
            "ticks": 15120,
            "time": 16.153861499999998,
            "velocity": 0.5511811023622047
          },
          {
            "duration": 0.032051312499998375,
            "durationTicks": 30,
            "midi": 36,
            "name": "C2",
            "ticks": 15360,
            "time": 16.410272,
            "velocity": 0.8740157480314961
          },
          {
            "duration": 0.032051312499998375,
            "durationTicks": 30,
            "midi": 42,
            "name": "F#2",
            "ticks": 15360,
            "time": 16.410272,
            "velocity": 0.47244094488188976
          },
          {
            "duration": 0.032051312499998375,
            "durationTicks": 30,
            "midi": 82,
            "name": "A#5",
            "ticks": 15360,
            "time": 16.410272,
            "velocity": 0.5354330708661418
          },
          {
            "duration": 0.032051312499998375,
            "durationTicks": 30,
            "midi": 42,
            "name": "F#2",
            "ticks": 15600,
            "time": 16.6666825,
            "velocity": 0.5905511811023622
          },
          {
            "duration": 0.032051312499998375,
            "durationTicks": 30,
            "midi": 82,
            "name": "A#5",
            "ticks": 15600,
            "time": 16.6666825,
            "velocity": 0.48031496062992124
          },
          {
            "duration": 0.03205131250000193,
            "durationTicks": 30,
            "midi": 40,
            "name": "E2",
            "ticks": 15840,
            "time": 16.923092999999998,
            "velocity": 0.937007874015748
          },
          {
            "duration": 0.03205131250000193,
            "durationTicks": 30,
            "midi": 42,
            "name": "F#2",
            "ticks": 15840,
            "time": 16.923092999999998,
            "velocity": 0.4330708661417323
          },
          {
            "duration": 0.03205131250000193,
            "durationTicks": 30,
            "midi": 82,
            "name": "A#5",
            "ticks": 15840,
            "time": 16.923092999999998,
            "velocity": 0.48031496062992124
          },
          {
            "duration": 0.032051312499998375,
            "durationTicks": 30,
            "midi": 42,
            "name": "F#2",
            "ticks": 16080,
            "time": 17.1795035,
            "velocity": 0.6692913385826772
          },
          {
            "duration": 0.032051312499998375,
            "durationTicks": 30,
            "midi": 82,
            "name": "A#5",
            "ticks": 16080,
            "time": 17.1795035,
            "velocity": 0.44881889763779526
          },
          {
            "duration": 0.032051312499998375,
            "durationTicks": 30,
            "midi": 36,
            "name": "C2",
            "ticks": 16320,
            "time": 17.435914,
            "velocity": 0.8740157480314961
          },
          {
            "duration": 0.032051312499998375,
            "durationTicks": 30,
            "midi": 42,
            "name": "F#2",
            "ticks": 16320,
            "time": 17.435914,
            "velocity": 0.4094488188976378
          },
          {
            "duration": 0.032051312499998375,
            "durationTicks": 30,
            "midi": 82,
            "name": "A#5",
            "ticks": 16320,
            "time": 17.435914,
            "velocity": 0.5039370078740157
          },
          {
            "duration": 0.03205131250000193,
            "durationTicks": 30,
            "midi": 42,
            "name": "F#2",
            "ticks": 16560,
            "time": 17.692324499999998,
            "velocity": 0.6299212598425197
          },
          {
            "duration": 0.03205131250000193,
            "durationTicks": 30,
            "midi": 82,
            "name": "A#5",
            "ticks": 16560,
            "time": 17.692324499999998,
            "velocity": 0.41732283464566927
          },
          {
            "duration": 0.032051312499998375,
            "durationTicks": 30,
            "midi": 40,
            "name": "E2",
            "ticks": 16800,
            "time": 17.948735,
            "velocity": 0.937007874015748
          },
          {
            "duration": 0.032051312499998375,
            "durationTicks": 30,
            "midi": 42,
            "name": "F#2",
            "ticks": 16800,
            "time": 17.948735,
            "velocity": 0.4094488188976378
          },
          {
            "duration": 0.032051312499998375,
            "durationTicks": 30,
            "midi": 82,
            "name": "A#5",
            "ticks": 16800,
            "time": 17.948735,
            "velocity": 0.5354330708661418
          },
          {
            "duration": 0.032051312499998375,
            "durationTicks": 30,
            "midi": 42,
            "name": "F#2",
            "ticks": 17040,
            "time": 18.2051455,
            "velocity": 0.6692913385826772
          },
          {
            "duration": 0.032051312499998375,
            "durationTicks": 30,
            "midi": 82,
            "name": "A#5",
            "ticks": 17040,
            "time": 18.2051455,
            "velocity": 0.5039370078740157
          },
          {
            "duration": 0.03205131250000193,
            "durationTicks": 30,
            "midi": 36,
            "name": "C2",
            "ticks": 17280,
            "time": 18.461555999999998,
            "velocity": 0.8740157480314961
          },
          {
            "duration": 0.03205131250000193,
            "durationTicks": 30,
            "midi": 42,
            "name": "F#2",
            "ticks": 17280,
            "time": 18.461555999999998,
            "velocity": 0.3779527559055118
          },
          {
            "duration": 0.03205131250000193,
            "durationTicks": 30,
            "midi": 82,
            "name": "A#5",
            "ticks": 17280,
            "time": 18.461555999999998,
            "velocity": 0.4881889763779528
          },
          {
            "duration": 0.032051312499998375,
            "durationTicks": 30,
            "midi": 42,
            "name": "F#2",
            "ticks": 17520,
            "time": 18.7179665,
            "velocity": 0.5905511811023622
          },
          {
            "duration": 0.032051312499998375,
            "durationTicks": 30,
            "midi": 82,
            "name": "A#5",
            "ticks": 17520,
            "time": 18.7179665,
            "velocity": 0.4094488188976378
          },
          {
            "duration": 0.032051312499998375,
            "durationTicks": 30,
            "midi": 40,
            "name": "E2",
            "ticks": 17760,
            "time": 18.974377,
            "velocity": 0.9291338582677166
          },
          {
            "duration": 0.032051312499998375,
            "durationTicks": 30,
            "midi": 42,
            "name": "F#2",
            "ticks": 17760,
            "time": 18.974377,
            "velocity": 0.47244094488188976
          },
          {
            "duration": 0.032051312499998375,
            "durationTicks": 30,
            "midi": 82,
            "name": "A#5",
            "ticks": 17760,
            "time": 18.974377,
            "velocity": 0.5511811023622047
          },
          {
            "duration": 0.03205131250000193,
            "durationTicks": 30,
            "midi": 42,
            "name": "F#2",
            "ticks": 18000,
            "time": 19.230787499999998,
            "velocity": 0.6299212598425197
          },
          {
            "duration": 0.03205131250000193,
            "durationTicks": 30,
            "midi": 82,
            "name": "A#5",
            "ticks": 18000,
            "time": 19.230787499999998,
            "velocity": 0.4645669291338583
          },
          {
            "duration": 0.032051312499998375,
            "durationTicks": 30,
            "midi": 36,
            "name": "C2",
            "ticks": 18240,
            "time": 19.487198,
            "velocity": 0.8740157480314961
          },
          {
            "duration": 0.032051312499998375,
            "durationTicks": 30,
            "midi": 42,
            "name": "F#2",
            "ticks": 18240,
            "time": 19.487198,
            "velocity": 0.49606299212598426
          },
          {
            "duration": 0.032051312499998375,
            "durationTicks": 30,
            "midi": 82,
            "name": "A#5",
            "ticks": 18240,
            "time": 19.487198,
            "velocity": 0.5354330708661418
          },
          {
            "duration": 0.032051312499998375,
            "durationTicks": 30,
            "midi": 42,
            "name": "F#2",
            "ticks": 18480,
            "time": 19.7436085,
            "velocity": 0.5905511811023622
          },
          {
            "duration": 0.032051312499998375,
            "durationTicks": 30,
            "midi": 82,
            "name": "A#5",
            "ticks": 18480,
            "time": 19.7436085,
            "velocity": 0.5196850393700787
          },
          {
            "duration": 0.03205131250000193,
            "durationTicks": 30,
            "midi": 40,
            "name": "E2",
            "ticks": 18720,
            "time": 20.000018999999998,
            "velocity": 0.937007874015748
          },
          {
            "duration": 0.03205131250000193,
            "durationTicks": 30,
            "midi": 42,
            "name": "F#2",
            "ticks": 18720,
            "time": 20.000018999999998,
            "velocity": 0.49606299212598426
          },
          {
            "duration": 0.03205131250000193,
            "durationTicks": 30,
            "midi": 82,
            "name": "A#5",
            "ticks": 18720,
            "time": 20.000018999999998,
            "velocity": 0.5826771653543307
          },
          {
            "duration": 0.032051312499998375,
            "durationTicks": 30,
            "midi": 42,
            "name": "F#2",
            "ticks": 18960,
            "time": 20.2564295,
            "velocity": 0.6692913385826772
          },
          {
            "duration": 0.032051312499998375,
            "durationTicks": 30,
            "midi": 82,
            "name": "A#5",
            "ticks": 18960,
            "time": 20.2564295,
            "velocity": 0.4409448818897638
          },
          {
            "duration": 0.03205131250000193,
            "durationTicks": 30,
            "midi": 36,
            "name": "C2",
            "ticks": 19200,
            "time": 20.512839999999997,
            "velocity": 0.8740157480314961
          },
          {
            "duration": 0.03205131250000193,
            "durationTicks": 30,
            "midi": 42,
            "name": "F#2",
            "ticks": 19200,
            "time": 20.512839999999997,
            "velocity": 0.47244094488188976
          },
          {
            "duration": 0.03205131250000193,
            "durationTicks": 30,
            "midi": 82,
            "name": "A#5",
            "ticks": 19200,
            "time": 20.512839999999997,
            "velocity": 0.5826771653543307
          },
          {
            "duration": 0.03205131250000193,
            "durationTicks": 30,
            "midi": 42,
            "name": "F#2",
            "ticks": 19440,
            "time": 20.7692505,
            "velocity": 0.5905511811023622
          },
          {
            "duration": 0.03205131250000193,
            "durationTicks": 30,
            "midi": 82,
            "name": "A#5",
            "ticks": 19440,
            "time": 20.7692505,
            "velocity": 0.5039370078740157
          },
          {
            "duration": 0.032051312499998375,
            "durationTicks": 30,
            "midi": 40,
            "name": "E2",
            "ticks": 19680,
            "time": 21.025661,
            "velocity": 0.937007874015748
          },
          {
            "duration": 0.032051312499998375,
            "durationTicks": 30,
            "midi": 42,
            "name": "F#2",
            "ticks": 19680,
            "time": 21.025661,
            "velocity": 0.4330708661417323
          },
          {
            "duration": 0.032051312499998375,
            "durationTicks": 30,
            "midi": 82,
            "name": "A#5",
            "ticks": 19680,
            "time": 21.025661,
            "velocity": 0.5669291338582677
          },
          {
            "duration": 0.03205131250000193,
            "durationTicks": 30,
            "midi": 42,
            "name": "F#2",
            "ticks": 19920,
            "time": 21.282071499999997,
            "velocity": 0.6692913385826772
          },
          {
            "duration": 0.03205131250000193,
            "durationTicks": 30,
            "midi": 82,
            "name": "A#5",
            "ticks": 19920,
            "time": 21.282071499999997,
            "velocity": 0.5196850393700787
          },
          {
            "duration": 0.03205131250000193,
            "durationTicks": 30,
            "midi": 36,
            "name": "C2",
            "ticks": 20160,
            "time": 21.538482,
            "velocity": 0.8740157480314961
          },
          {
            "duration": 0.03205131250000193,
            "durationTicks": 30,
            "midi": 42,
            "name": "F#2",
            "ticks": 20160,
            "time": 21.538482,
            "velocity": 0.4094488188976378
          },
          {
            "duration": 0.03205131250000193,
            "durationTicks": 30,
            "midi": 82,
            "name": "A#5",
            "ticks": 20160,
            "time": 21.538482,
            "velocity": 0.4881889763779528
          },
          {
            "duration": 0.032051312499998375,
            "durationTicks": 30,
            "midi": 42,
            "name": "F#2",
            "ticks": 20400,
            "time": 21.7948925,
            "velocity": 0.6299212598425197
          },
          {
            "duration": 0.032051312499998375,
            "durationTicks": 30,
            "midi": 82,
            "name": "A#5",
            "ticks": 20400,
            "time": 21.7948925,
            "velocity": 0.5196850393700787
          },
          {
            "duration": 0.03205131250000193,
            "durationTicks": 30,
            "midi": 40,
            "name": "E2",
            "ticks": 20640,
            "time": 22.051302999999997,
            "velocity": 0.937007874015748
          },
          {
            "duration": 0.03205131250000193,
            "durationTicks": 30,
            "midi": 42,
            "name": "F#2",
            "ticks": 20640,
            "time": 22.051302999999997,
            "velocity": 0.4094488188976378
          },
          {
            "duration": 0.03205131250000193,
            "durationTicks": 30,
            "midi": 82,
            "name": "A#5",
            "ticks": 20640,
            "time": 22.051302999999997,
            "velocity": 0.5511811023622047
          },
          {
            "duration": 0.03205131250000193,
            "durationTicks": 30,
            "midi": 42,
            "name": "F#2",
            "ticks": 20880,
            "time": 22.3077135,
            "velocity": 0.6692913385826772
          },
          {
            "duration": 0.03205131250000193,
            "durationTicks": 30,
            "midi": 82,
            "name": "A#5",
            "ticks": 20880,
            "time": 22.3077135,
            "velocity": 0.5511811023622047
          },
          {
            "duration": 0.032051312499998375,
            "durationTicks": 30,
            "midi": 36,
            "name": "C2",
            "ticks": 21120,
            "time": 22.564124,
            "velocity": 0.8740157480314961
          },
          {
            "duration": 0.032051312499998375,
            "durationTicks": 30,
            "midi": 42,
            "name": "F#2",
            "ticks": 21120,
            "time": 22.564124,
            "velocity": 0.3779527559055118
          },
          {
            "duration": 0.032051312499998375,
            "durationTicks": 30,
            "midi": 82,
            "name": "A#5",
            "ticks": 21120,
            "time": 22.564124,
            "velocity": 0.5669291338582677
          },
          {
            "duration": 0.03205131250000193,
            "durationTicks": 30,
            "midi": 42,
            "name": "F#2",
            "ticks": 21360,
            "time": 22.820534499999997,
            "velocity": 0.5905511811023622
          },
          {
            "duration": 0.03205131250000193,
            "durationTicks": 30,
            "midi": 82,
            "name": "A#5",
            "ticks": 21360,
            "time": 22.820534499999997,
            "velocity": 0.5511811023622047
          },
          {
            "duration": 0.03205131250000193,
            "durationTicks": 30,
            "midi": 40,
            "name": "E2",
            "ticks": 21600,
            "time": 23.076945,
            "velocity": 0.9291338582677166
          },
          {
            "duration": 0.03205131250000193,
            "durationTicks": 30,
            "midi": 42,
            "name": "F#2",
            "ticks": 21600,
            "time": 23.076945,
            "velocity": 0.47244094488188976
          },
          {
            "duration": 0.03205131250000193,
            "durationTicks": 30,
            "midi": 82,
            "name": "A#5",
            "ticks": 21600,
            "time": 23.076945,
            "velocity": 0.5354330708661418
          },
          {
            "duration": 0.032051312499998375,
            "durationTicks": 30,
            "midi": 42,
            "name": "F#2",
            "ticks": 21840,
            "time": 23.3333555,
            "velocity": 0.6299212598425197
          },
          {
            "duration": 0.032051312499998375,
            "durationTicks": 30,
            "midi": 82,
            "name": "A#5",
            "ticks": 21840,
            "time": 23.3333555,
            "velocity": 0.5511811023622047
          },
          {
            "duration": 0.03205131250000193,
            "durationTicks": 30,
            "midi": 36,
            "name": "C2",
            "ticks": 22080,
            "time": 23.589765999999997,
            "velocity": 0.8740157480314961
          },
          {
            "duration": 0.03205131250000193,
            "durationTicks": 30,
            "midi": 42,
            "name": "F#2",
            "ticks": 22080,
            "time": 23.589765999999997,
            "velocity": 0.49606299212598426
          },
          {
            "duration": 0.03205131250000193,
            "durationTicks": 30,
            "midi": 82,
            "name": "A#5",
            "ticks": 22080,
            "time": 23.589765999999997,
            "velocity": 0.5511811023622047
          },
          {
            "duration": 0.032051312499998375,
            "durationTicks": 30,
            "midi": 42,
            "name": "F#2",
            "ticks": 22320,
            "time": 23.8461765,
            "velocity": 0.5905511811023622
          },
          {
            "duration": 0.032051312499998375,
            "durationTicks": 30,
            "midi": 82,
            "name": "A#5",
            "ticks": 22320,
            "time": 23.8461765,
            "velocity": 0.5826771653543307
          },
          {
            "duration": 0.032051312499998375,
            "durationTicks": 30,
            "midi": 40,
            "name": "E2",
            "ticks": 22560,
            "time": 24.102587,
            "velocity": 0.937007874015748
          },
          {
            "duration": 0.032051312499998375,
            "durationTicks": 30,
            "midi": 42,
            "name": "F#2",
            "ticks": 22560,
            "time": 24.102587,
            "velocity": 0.49606299212598426
          },
          {
            "duration": 0.032051312499998375,
            "durationTicks": 30,
            "midi": 82,
            "name": "A#5",
            "ticks": 22560,
            "time": 24.102587,
            "velocity": 0.5354330708661418
          },
          {
            "duration": 0.03205131250000193,
            "durationTicks": 30,
            "midi": 42,
            "name": "F#2",
            "ticks": 22800,
            "time": 24.358997499999997,
            "velocity": 0.6692913385826772
          },
          {
            "duration": 0.03205131250000193,
            "durationTicks": 30,
            "midi": 82,
            "name": "A#5",
            "ticks": 22800,
            "time": 24.358997499999997,
            "velocity": 0.5511811023622047
          },
          {
            "duration": 0.032051312499998375,
            "durationTicks": 30,
            "midi": 36,
            "name": "C2",
            "ticks": 23040,
            "time": 24.615408,
            "velocity": 0.8740157480314961
          },
          {
            "duration": 0.032051312499998375,
            "durationTicks": 30,
            "midi": 42,
            "name": "F#2",
            "ticks": 23040,
            "time": 24.615408,
            "velocity": 0.47244094488188976
          },
          {
            "duration": 0.032051312499998375,
            "durationTicks": 30,
            "midi": 82,
            "name": "A#5",
            "ticks": 23040,
            "time": 24.615408,
            "velocity": 0.5354330708661418
          },
          {
            "duration": 0.032051312499998375,
            "durationTicks": 30,
            "midi": 42,
            "name": "F#2",
            "ticks": 23280,
            "time": 24.8718185,
            "velocity": 0.5905511811023622
          },
          {
            "duration": 0.032051312499998375,
            "durationTicks": 30,
            "midi": 82,
            "name": "A#5",
            "ticks": 23280,
            "time": 24.8718185,
            "velocity": 0.48031496062992124
          },
          {
            "duration": 0.03205131250000193,
            "durationTicks": 30,
            "midi": 40,
            "name": "E2",
            "ticks": 23520,
            "time": 25.128228999999997,
            "velocity": 0.937007874015748
          },
          {
            "duration": 0.03205131250000193,
            "durationTicks": 30,
            "midi": 42,
            "name": "F#2",
            "ticks": 23520,
            "time": 25.128228999999997,
            "velocity": 0.4330708661417323
          },
          {
            "duration": 0.03205131250000193,
            "durationTicks": 30,
            "midi": 82,
            "name": "A#5",
            "ticks": 23520,
            "time": 25.128228999999997,
            "velocity": 0.48031496062992124
          },
          {
            "duration": 0.032051312499998375,
            "durationTicks": 30,
            "midi": 42,
            "name": "F#2",
            "ticks": 23760,
            "time": 25.3846395,
            "velocity": 0.6692913385826772
          },
          {
            "duration": 0.032051312499998375,
            "durationTicks": 30,
            "midi": 82,
            "name": "A#5",
            "ticks": 23760,
            "time": 25.3846395,
            "velocity": 0.44881889763779526
          },
          {
            "duration": 0.032051312499998375,
            "durationTicks": 30,
            "midi": 36,
            "name": "C2",
            "ticks": 24000,
            "time": 25.64105,
            "velocity": 0.8740157480314961
          },
          {
            "duration": 0.032051312499998375,
            "durationTicks": 30,
            "midi": 42,
            "name": "F#2",
            "ticks": 24000,
            "time": 25.64105,
            "velocity": 0.4094488188976378
          },
          {
            "duration": 0.032051312499998375,
            "durationTicks": 30,
            "midi": 82,
            "name": "A#5",
            "ticks": 24000,
            "time": 25.64105,
            "velocity": 0.5039370078740157
          },
          {
            "duration": 0.03205131250000193,
            "durationTicks": 30,
            "midi": 42,
            "name": "F#2",
            "ticks": 24240,
            "time": 25.897460499999998,
            "velocity": 0.6299212598425197
          },
          {
            "duration": 0.03205131250000193,
            "durationTicks": 30,
            "midi": 82,
            "name": "A#5",
            "ticks": 24240,
            "time": 25.897460499999998,
            "velocity": 0.41732283464566927
          },
          {
            "duration": 0.032051312499998375,
            "durationTicks": 30,
            "midi": 40,
            "name": "E2",
            "ticks": 24480,
            "time": 26.153871,
            "velocity": 0.937007874015748
          },
          {
            "duration": 0.032051312499998375,
            "durationTicks": 30,
            "midi": 42,
            "name": "F#2",
            "ticks": 24480,
            "time": 26.153871,
            "velocity": 0.4094488188976378
          },
          {
            "duration": 0.032051312499998375,
            "durationTicks": 30,
            "midi": 82,
            "name": "A#5",
            "ticks": 24480,
            "time": 26.153871,
            "velocity": 0.5354330708661418
          },
          {
            "duration": 0.032051312499998375,
            "durationTicks": 30,
            "midi": 42,
            "name": "F#2",
            "ticks": 24720,
            "time": 26.4102815,
            "velocity": 0.6692913385826772
          },
          {
            "duration": 0.032051312499998375,
            "durationTicks": 30,
            "midi": 82,
            "name": "A#5",
            "ticks": 24720,
            "time": 26.4102815,
            "velocity": 0.5039370078740157
          },
          {
            "duration": 0.03205131250000193,
            "durationTicks": 30,
            "midi": 36,
            "name": "C2",
            "ticks": 24960,
            "time": 26.666691999999998,
            "velocity": 0.8740157480314961
          },
          {
            "duration": 0.03205131250000193,
            "durationTicks": 30,
            "midi": 42,
            "name": "F#2",
            "ticks": 24960,
            "time": 26.666691999999998,
            "velocity": 0.3779527559055118
          },
          {
            "duration": 0.03205131250000193,
            "durationTicks": 30,
            "midi": 82,
            "name": "A#5",
            "ticks": 24960,
            "time": 26.666691999999998,
            "velocity": 0.4881889763779528
          },
          {
            "duration": 0.032051312499998375,
            "durationTicks": 30,
            "midi": 42,
            "name": "F#2",
            "ticks": 25200,
            "time": 26.9231025,
            "velocity": 0.5905511811023622
          },
          {
            "duration": 0.032051312499998375,
            "durationTicks": 30,
            "midi": 82,
            "name": "A#5",
            "ticks": 25200,
            "time": 26.9231025,
            "velocity": 0.4094488188976378
          },
          {
            "duration": 0.032051312499998375,
            "durationTicks": 30,
            "midi": 40,
            "name": "E2",
            "ticks": 25440,
            "time": 27.179513,
            "velocity": 0.9291338582677166
          },
          {
            "duration": 0.032051312499998375,
            "durationTicks": 30,
            "midi": 42,
            "name": "F#2",
            "ticks": 25440,
            "time": 27.179513,
            "velocity": 0.47244094488188976
          },
          {
            "duration": 0.032051312499998375,
            "durationTicks": 30,
            "midi": 82,
            "name": "A#5",
            "ticks": 25440,
            "time": 27.179513,
            "velocity": 0.5511811023622047
          },
          {
            "duration": 0.03205131250000193,
            "durationTicks": 30,
            "midi": 42,
            "name": "F#2",
            "ticks": 25680,
            "time": 27.435923499999998,
            "velocity": 0.6299212598425197
          },
          {
            "duration": 0.03205131250000193,
            "durationTicks": 30,
            "midi": 82,
            "name": "A#5",
            "ticks": 25680,
            "time": 27.435923499999998,
            "velocity": 0.4645669291338583
          },
          {
            "duration": 0.032051312499998375,
            "durationTicks": 30,
            "midi": 36,
            "name": "C2",
            "ticks": 25920,
            "time": 27.692334,
            "velocity": 0.8740157480314961
          },
          {
            "duration": 0.032051312499998375,
            "durationTicks": 30,
            "midi": 42,
            "name": "F#2",
            "ticks": 25920,
            "time": 27.692334,
            "velocity": 0.49606299212598426
          },
          {
            "duration": 0.032051312499998375,
            "durationTicks": 30,
            "midi": 82,
            "name": "A#5",
            "ticks": 25920,
            "time": 27.692334,
            "velocity": 0.5354330708661418
          },
          {
            "duration": 0.032051312499998375,
            "durationTicks": 30,
            "midi": 42,
            "name": "F#2",
            "ticks": 26160,
            "time": 27.9487445,
            "velocity": 0.5905511811023622
          },
          {
            "duration": 0.032051312499998375,
            "durationTicks": 30,
            "midi": 82,
            "name": "A#5",
            "ticks": 26160,
            "time": 27.9487445,
            "velocity": 0.5196850393700787
          },
          {
            "duration": 0.03205131250000193,
            "durationTicks": 30,
            "midi": 40,
            "name": "E2",
            "ticks": 26400,
            "time": 28.205154999999998,
            "velocity": 0.937007874015748
          },
          {
            "duration": 0.03205131250000193,
            "durationTicks": 30,
            "midi": 42,
            "name": "F#2",
            "ticks": 26400,
            "time": 28.205154999999998,
            "velocity": 0.49606299212598426
          },
          {
            "duration": 0.03205131250000193,
            "durationTicks": 30,
            "midi": 82,
            "name": "A#5",
            "ticks": 26400,
            "time": 28.205154999999998,
            "velocity": 0.5826771653543307
          },
          {
            "duration": 0.032051312499998375,
            "durationTicks": 30,
            "midi": 42,
            "name": "F#2",
            "ticks": 26640,
            "time": 28.4615655,
            "velocity": 0.6692913385826772
          },
          {
            "duration": 0.032051312499998375,
            "durationTicks": 30,
            "midi": 82,
            "name": "A#5",
            "ticks": 26640,
            "time": 28.4615655,
            "velocity": 0.4409448818897638
          },
          {
            "duration": 0.032051312499998375,
            "durationTicks": 30,
            "midi": 36,
            "name": "C2",
            "ticks": 26880,
            "time": 28.717976,
            "velocity": 0.8740157480314961
          },
          {
            "duration": 0.032051312499998375,
            "durationTicks": 30,
            "midi": 42,
            "name": "F#2",
            "ticks": 26880,
            "time": 28.717976,
            "velocity": 0.47244094488188976
          },
          {
            "duration": 0.032051312499998375,
            "durationTicks": 30,
            "midi": 82,
            "name": "A#5",
            "ticks": 26880,
            "time": 28.717976,
            "velocity": 0.5826771653543307
          },
          {
            "duration": 0.03205131250000193,
            "durationTicks": 30,
            "midi": 42,
            "name": "F#2",
            "ticks": 27120,
            "time": 28.974386499999998,
            "velocity": 0.5905511811023622
          },
          {
            "duration": 0.03205131250000193,
            "durationTicks": 30,
            "midi": 82,
            "name": "A#5",
            "ticks": 27120,
            "time": 28.974386499999998,
            "velocity": 0.5039370078740157
          },
          {
            "duration": 0.032051312499998375,
            "durationTicks": 30,
            "midi": 40,
            "name": "E2",
            "ticks": 27360,
            "time": 29.230797,
            "velocity": 0.937007874015748
          },
          {
            "duration": 0.032051312499998375,
            "durationTicks": 30,
            "midi": 42,
            "name": "F#2",
            "ticks": 27360,
            "time": 29.230797,
            "velocity": 0.4330708661417323
          },
          {
            "duration": 0.032051312499998375,
            "durationTicks": 30,
            "midi": 82,
            "name": "A#5",
            "ticks": 27360,
            "time": 29.230797,
            "velocity": 0.5669291338582677
          },
          {
            "duration": 0.032051312499998375,
            "durationTicks": 30,
            "midi": 85,
            "name": "C#6",
            "ticks": 27360,
            "time": 29.230797,
            "velocity": 0.7874015748031497
          },
          {
            "duration": 0.03205131250000193,
            "durationTicks": 30,
            "midi": 42,
            "name": "F#2",
            "ticks": 27600,
            "time": 29.487207499999997,
            "velocity": 0.6692913385826772
          },
          {
            "duration": 0.03205131250000193,
            "durationTicks": 30,
            "midi": 82,
            "name": "A#5",
            "ticks": 27600,
            "time": 29.487207499999997,
            "velocity": 0.5196850393700787
          },
          {
            "duration": 0.03205131250000193,
            "durationTicks": 30,
            "midi": 36,
            "name": "C2",
            "ticks": 27840,
            "time": 29.743617999999998,
            "velocity": 0.8740157480314961
          },
          {
            "duration": 0.03205131250000193,
            "durationTicks": 30,
            "midi": 42,
            "name": "F#2",
            "ticks": 27840,
            "time": 29.743617999999998,
            "velocity": 0.4094488188976378
          },
          {
            "duration": 0.03205131250000193,
            "durationTicks": 30,
            "midi": 82,
            "name": "A#5",
            "ticks": 27840,
            "time": 29.743617999999998,
            "velocity": 0.4881889763779528
          },
          {
            "duration": 0.032051312499998375,
            "durationTicks": 30,
            "midi": 42,
            "name": "F#2",
            "ticks": 28080,
            "time": 30.0000285,
            "velocity": 0.6299212598425197
          },
          {
            "duration": 0.032051312499998375,
            "durationTicks": 30,
            "midi": 82,
            "name": "A#5",
            "ticks": 28080,
            "time": 30.0000285,
            "velocity": 0.5196850393700787
          },
          {
            "duration": 0.03205131250000193,
            "durationTicks": 30,
            "midi": 40,
            "name": "E2",
            "ticks": 28320,
            "time": 30.256438999999997,
            "velocity": 0.937007874015748
          },
          {
            "duration": 0.03205131250000193,
            "durationTicks": 30,
            "midi": 42,
            "name": "F#2",
            "ticks": 28320,
            "time": 30.256438999999997,
            "velocity": 0.4094488188976378
          },
          {
            "duration": 0.03205131250000193,
            "durationTicks": 30,
            "midi": 82,
            "name": "A#5",
            "ticks": 28320,
            "time": 30.256438999999997,
            "velocity": 0.5511811023622047
          },
          {
            "duration": 0.03205131250000193,
            "durationTicks": 30,
            "midi": 85,
            "name": "C#6",
            "ticks": 28320,
            "time": 30.256438999999997,
            "velocity": 0.7874015748031497
          },
          {
            "duration": 0.03205131250000193,
            "durationTicks": 30,
            "midi": 42,
            "name": "F#2",
            "ticks": 28560,
            "time": 30.512849499999998,
            "velocity": 0.6692913385826772
          },
          {
            "duration": 0.03205131250000193,
            "durationTicks": 30,
            "midi": 82,
            "name": "A#5",
            "ticks": 28560,
            "time": 30.512849499999998,
            "velocity": 0.5511811023622047
          },
          {
            "duration": 0.032051312499998375,
            "durationTicks": 30,
            "midi": 36,
            "name": "C2",
            "ticks": 28800,
            "time": 30.76926,
            "velocity": 0.8740157480314961
          },
          {
            "duration": 0.032051312499998375,
            "durationTicks": 30,
            "midi": 42,
            "name": "F#2",
            "ticks": 28800,
            "time": 30.76926,
            "velocity": 0.3779527559055118
          },
          {
            "duration": 0.032051312499998375,
            "durationTicks": 30,
            "midi": 82,
            "name": "A#5",
            "ticks": 28800,
            "time": 30.76926,
            "velocity": 0.5669291338582677
          },
          {
            "duration": 0.03205131250000193,
            "durationTicks": 30,
            "midi": 42,
            "name": "F#2",
            "ticks": 29040,
            "time": 31.025670499999997,
            "velocity": 0.5905511811023622
          },
          {
            "duration": 0.03205131250000193,
            "durationTicks": 30,
            "midi": 82,
            "name": "A#5",
            "ticks": 29040,
            "time": 31.025670499999997,
            "velocity": 0.5511811023622047
          },
          {
            "duration": 0.03205131250000193,
            "durationTicks": 30,
            "midi": 40,
            "name": "E2",
            "ticks": 29280,
            "time": 31.282080999999998,
            "velocity": 0.9291338582677166
          },
          {
            "duration": 0.03205131250000193,
            "durationTicks": 30,
            "midi": 42,
            "name": "F#2",
            "ticks": 29280,
            "time": 31.282080999999998,
            "velocity": 0.47244094488188976
          },
          {
            "duration": 0.03205131250000193,
            "durationTicks": 30,
            "midi": 82,
            "name": "A#5",
            "ticks": 29280,
            "time": 31.282080999999998,
            "velocity": 0.5354330708661418
          },
          {
            "duration": 0.032051312499998375,
            "durationTicks": 30,
            "midi": 42,
            "name": "F#2",
            "ticks": 29520,
            "time": 31.5384915,
            "velocity": 0.6299212598425197
          },
          {
            "duration": 0.032051312499998375,
            "durationTicks": 30,
            "midi": 82,
            "name": "A#5",
            "ticks": 29520,
            "time": 31.5384915,
            "velocity": 0.5511811023622047
          },
          {
            "duration": 0.03205131250000193,
            "durationTicks": 30,
            "midi": 36,
            "name": "C2",
            "ticks": 29760,
            "time": 31.794901999999997,
            "velocity": 0.8740157480314961
          },
          {
            "duration": 0.03205131250000193,
            "durationTicks": 30,
            "midi": 42,
            "name": "F#2",
            "ticks": 29760,
            "time": 31.794901999999997,
            "velocity": 0.49606299212598426
          },
          {
            "duration": 0.03205131250000193,
            "durationTicks": 30,
            "midi": 82,
            "name": "A#5",
            "ticks": 29760,
            "time": 31.794901999999997,
            "velocity": 0.5511811023622047
          },
          {
            "duration": 0.03205131249999482,
            "durationTicks": 30,
            "midi": 42,
            "name": "F#2",
            "ticks": 30000,
            "time": 32.0513125,
            "velocity": 0.5905511811023622
          },
          {
            "duration": 0.03205131249999482,
            "durationTicks": 30,
            "midi": 82,
            "name": "A#5",
            "ticks": 30000,
            "time": 32.0513125,
            "velocity": 0.5826771653543307
          },
          {
            "duration": 0.03205131250000193,
            "durationTicks": 30,
            "midi": 40,
            "name": "E2",
            "ticks": 30240,
            "time": 32.307722999999996,
            "velocity": 0.937007874015748
          },
          {
            "duration": 0.03205131250000193,
            "durationTicks": 30,
            "midi": 42,
            "name": "F#2",
            "ticks": 30240,
            "time": 32.307722999999996,
            "velocity": 0.49606299212598426
          },
          {
            "duration": 0.03205131250000193,
            "durationTicks": 30,
            "midi": 82,
            "name": "A#5",
            "ticks": 30240,
            "time": 32.307722999999996,
            "velocity": 0.5354330708661418
          },
          {
            "duration": 0.03205131250000193,
            "durationTicks": 30,
            "midi": 42,
            "name": "F#2",
            "ticks": 30480,
            "time": 32.5641335,
            "velocity": 0.6692913385826772
          },
          {
            "duration": 0.03205131250000193,
            "durationTicks": 30,
            "midi": 82,
            "name": "A#5",
            "ticks": 30480,
            "time": 32.5641335,
            "velocity": 0.5511811023622047
          },
          {
            "duration": 0.03205131250000193,
            "durationTicks": 30,
            "midi": 36,
            "name": "C2",
            "ticks": 30720,
            "time": 32.820544,
            "velocity": 0.8740157480314961
          },
          {
            "duration": 0.03205131250000193,
            "durationTicks": 30,
            "midi": 42,
            "name": "F#2",
            "ticks": 30720,
            "time": 32.820544,
            "velocity": 0.47244094488188976
          },
          {
            "duration": 0.03205131250000193,
            "durationTicks": 30,
            "midi": 82,
            "name": "A#5",
            "ticks": 30720,
            "time": 32.820544,
            "velocity": 0.5354330708661418
          },
          {
            "duration": 0.03205131250000193,
            "durationTicks": 30,
            "midi": 42,
            "name": "F#2",
            "ticks": 30960,
            "time": 33.0769545,
            "velocity": 0.5905511811023622
          },
          {
            "duration": 0.03205131250000193,
            "durationTicks": 30,
            "midi": 82,
            "name": "A#5",
            "ticks": 30960,
            "time": 33.0769545,
            "velocity": 0.48031496062992124
          },
          {
            "duration": 0.03205131249999482,
            "durationTicks": 30,
            "midi": 40,
            "name": "E2",
            "ticks": 31200,
            "time": 33.333365,
            "velocity": 0.937007874015748
          },
          {
            "duration": 0.03205131249999482,
            "durationTicks": 30,
            "midi": 42,
            "name": "F#2",
            "ticks": 31200,
            "time": 33.333365,
            "velocity": 0.4330708661417323
          },
          {
            "duration": 0.03205131249999482,
            "durationTicks": 30,
            "midi": 82,
            "name": "A#5",
            "ticks": 31200,
            "time": 33.333365,
            "velocity": 0.48031496062992124
          },
          {
            "duration": 0.03205131250000193,
            "durationTicks": 30,
            "midi": 42,
            "name": "F#2",
            "ticks": 31440,
            "time": 33.589775499999995,
            "velocity": 0.6692913385826772
          },
          {
            "duration": 0.03205131250000193,
            "durationTicks": 30,
            "midi": 82,
            "name": "A#5",
            "ticks": 31440,
            "time": 33.589775499999995,
            "velocity": 0.44881889763779526
          },
          {
            "duration": 0.03205131250000193,
            "durationTicks": 30,
            "midi": 36,
            "name": "C2",
            "ticks": 31680,
            "time": 33.846185999999996,
            "velocity": 0.8740157480314961
          },
          {
            "duration": 0.03205131250000193,
            "durationTicks": 30,
            "midi": 42,
            "name": "F#2",
            "ticks": 31680,
            "time": 33.846185999999996,
            "velocity": 0.4094488188976378
          },
          {
            "duration": 0.03205131250000193,
            "durationTicks": 30,
            "midi": 82,
            "name": "A#5",
            "ticks": 31680,
            "time": 33.846185999999996,
            "velocity": 0.5039370078740157
          },
          {
            "duration": 0.03205131250000193,
            "durationTicks": 30,
            "midi": 42,
            "name": "F#2",
            "ticks": 31920,
            "time": 34.1025965,
            "velocity": 0.6299212598425197
          },
          {
            "duration": 0.03205131250000193,
            "durationTicks": 30,
            "midi": 82,
            "name": "A#5",
            "ticks": 31920,
            "time": 34.1025965,
            "velocity": 0.41732283464566927
          },
          {
            "duration": 0.03205131250000193,
            "durationTicks": 30,
            "midi": 40,
            "name": "E2",
            "ticks": 32160,
            "time": 34.359007,
            "velocity": 0.937007874015748
          },
          {
            "duration": 0.03205131250000193,
            "durationTicks": 30,
            "midi": 42,
            "name": "F#2",
            "ticks": 32160,
            "time": 34.359007,
            "velocity": 0.4094488188976378
          },
          {
            "duration": 0.03205131250000193,
            "durationTicks": 30,
            "midi": 82,
            "name": "A#5",
            "ticks": 32160,
            "time": 34.359007,
            "velocity": 0.5354330708661418
          },
          {
            "duration": 0.03205131250000193,
            "durationTicks": 30,
            "midi": 42,
            "name": "F#2",
            "ticks": 32400,
            "time": 34.6154175,
            "velocity": 0.6692913385826772
          },
          {
            "duration": 0.03205131250000193,
            "durationTicks": 30,
            "midi": 82,
            "name": "A#5",
            "ticks": 32400,
            "time": 34.6154175,
            "velocity": 0.5039370078740157
          },
          {
            "duration": 0.03205131249999482,
            "durationTicks": 30,
            "midi": 36,
            "name": "C2",
            "ticks": 32640,
            "time": 34.871828,
            "velocity": 0.8740157480314961
          },
          {
            "duration": 0.03205131249999482,
            "durationTicks": 30,
            "midi": 42,
            "name": "F#2",
            "ticks": 32640,
            "time": 34.871828,
            "velocity": 0.3779527559055118
          },
          {
            "duration": 0.03205131249999482,
            "durationTicks": 30,
            "midi": 82,
            "name": "A#5",
            "ticks": 32640,
            "time": 34.871828,
            "velocity": 0.4881889763779528
          },
          {
            "duration": 0.03205131250000193,
            "durationTicks": 30,
            "midi": 42,
            "name": "F#2",
            "ticks": 32880,
            "time": 35.128238499999995,
            "velocity": 0.5905511811023622
          },
          {
            "duration": 0.03205131250000193,
            "durationTicks": 30,
            "midi": 82,
            "name": "A#5",
            "ticks": 32880,
            "time": 35.128238499999995,
            "velocity": 0.4094488188976378
          },
          {
            "duration": 0.03205131250000193,
            "durationTicks": 30,
            "midi": 40,
            "name": "E2",
            "ticks": 33120,
            "time": 35.384648999999996,
            "velocity": 0.9291338582677166
          },
          {
            "duration": 0.03205131250000193,
            "durationTicks": 30,
            "midi": 42,
            "name": "F#2",
            "ticks": 33120,
            "time": 35.384648999999996,
            "velocity": 0.47244094488188976
          },
          {
            "duration": 0.03205131250000193,
            "durationTicks": 30,
            "midi": 82,
            "name": "A#5",
            "ticks": 33120,
            "time": 35.384648999999996,
            "velocity": 0.5511811023622047
          },
          {
            "duration": 0.03205131250000193,
            "durationTicks": 30,
            "midi": 42,
            "name": "F#2",
            "ticks": 33360,
            "time": 35.6410595,
            "velocity": 0.6299212598425197
          },
          {
            "duration": 0.03205131250000193,
            "durationTicks": 30,
            "midi": 82,
            "name": "A#5",
            "ticks": 33360,
            "time": 35.6410595,
            "velocity": 0.4645669291338583
          },
          {
            "duration": 0.03205131250000193,
            "durationTicks": 30,
            "midi": 36,
            "name": "C2",
            "ticks": 33600,
            "time": 35.89747,
            "velocity": 0.8740157480314961
          },
          {
            "duration": 0.03205131250000193,
            "durationTicks": 30,
            "midi": 42,
            "name": "F#2",
            "ticks": 33600,
            "time": 35.89747,
            "velocity": 0.49606299212598426
          },
          {
            "duration": 0.03205131250000193,
            "durationTicks": 30,
            "midi": 82,
            "name": "A#5",
            "ticks": 33600,
            "time": 35.89747,
            "velocity": 0.5354330708661418
          },
          {
            "duration": 0.03205131249999482,
            "durationTicks": 30,
            "midi": 42,
            "name": "F#2",
            "ticks": 33840,
            "time": 36.1538805,
            "velocity": 0.5905511811023622
          },
          {
            "duration": 0.03205131249999482,
            "durationTicks": 30,
            "midi": 82,
            "name": "A#5",
            "ticks": 33840,
            "time": 36.1538805,
            "velocity": 0.5196850393700787
          },
          {
            "duration": 0.03205131249999482,
            "durationTicks": 30,
            "midi": 40,
            "name": "E2",
            "ticks": 34080,
            "time": 36.410291,
            "velocity": 0.937007874015748
          },
          {
            "duration": 0.03205131249999482,
            "durationTicks": 30,
            "midi": 42,
            "name": "F#2",
            "ticks": 34080,
            "time": 36.410291,
            "velocity": 0.49606299212598426
          },
          {
            "duration": 0.03205131249999482,
            "durationTicks": 30,
            "midi": 82,
            "name": "A#5",
            "ticks": 34080,
            "time": 36.410291,
            "velocity": 0.5826771653543307
          },
          {
            "duration": 0.03205131250000193,
            "durationTicks": 30,
            "midi": 42,
            "name": "F#2",
            "ticks": 34320,
            "time": 36.666701499999995,
            "velocity": 0.6692913385826772
          },
          {
            "duration": 0.03205131250000193,
            "durationTicks": 30,
            "midi": 82,
            "name": "A#5",
            "ticks": 34320,
            "time": 36.666701499999995,
            "velocity": 0.4409448818897638
          },
          {
            "duration": 0.03205131250000193,
            "durationTicks": 30,
            "midi": 36,
            "name": "C2",
            "ticks": 34560,
            "time": 36.923111999999996,
            "velocity": 0.8740157480314961
          },
          {
            "duration": 0.03205131250000193,
            "durationTicks": 30,
            "midi": 42,
            "name": "F#2",
            "ticks": 34560,
            "time": 36.923111999999996,
            "velocity": 0.47244094488188976
          },
          {
            "duration": 0.03205131250000193,
            "durationTicks": 30,
            "midi": 82,
            "name": "A#5",
            "ticks": 34560,
            "time": 36.923111999999996,
            "velocity": 0.5826771653543307
          },
          {
            "duration": 0.03205131250000193,
            "durationTicks": 30,
            "midi": 42,
            "name": "F#2",
            "ticks": 34800,
            "time": 37.1795225,
            "velocity": 0.5905511811023622
          },
          {
            "duration": 0.03205131250000193,
            "durationTicks": 30,
            "midi": 82,
            "name": "A#5",
            "ticks": 34800,
            "time": 37.1795225,
            "velocity": 0.5039370078740157
          },
          {
            "duration": 0.03205131250000193,
            "durationTicks": 30,
            "midi": 40,
            "name": "E2",
            "ticks": 35040,
            "time": 37.435933,
            "velocity": 0.937007874015748
          },
          {
            "duration": 0.03205131250000193,
            "durationTicks": 30,
            "midi": 42,
            "name": "F#2",
            "ticks": 35040,
            "time": 37.435933,
            "velocity": 0.4330708661417323
          },
          {
            "duration": 0.03205131250000193,
            "durationTicks": 30,
            "midi": 82,
            "name": "A#5",
            "ticks": 35040,
            "time": 37.435933,
            "velocity": 0.5669291338582677
          },
          {
            "duration": 0.03205131249999482,
            "durationTicks": 30,
            "midi": 42,
            "name": "F#2",
            "ticks": 35280,
            "time": 37.6923435,
            "velocity": 0.6692913385826772
          },
          {
            "duration": 0.03205131249999482,
            "durationTicks": 30,
            "midi": 82,
            "name": "A#5",
            "ticks": 35280,
            "time": 37.6923435,
            "velocity": 0.5196850393700787
          },
          {
            "duration": 0.03205131249999482,
            "durationTicks": 30,
            "midi": 36,
            "name": "C2",
            "ticks": 35520,
            "time": 37.948754,
            "velocity": 0.8740157480314961
          },
          {
            "duration": 0.03205131249999482,
            "durationTicks": 30,
            "midi": 42,
            "name": "F#2",
            "ticks": 35520,
            "time": 37.948754,
            "velocity": 0.4094488188976378
          },
          {
            "duration": 0.03205131249999482,
            "durationTicks": 30,
            "midi": 82,
            "name": "A#5",
            "ticks": 35520,
            "time": 37.948754,
            "velocity": 0.4881889763779528
          },
          {
            "duration": 0.03205131250000193,
            "durationTicks": 30,
            "midi": 42,
            "name": "F#2",
            "ticks": 35760,
            "time": 38.205164499999995,
            "velocity": 0.6299212598425197
          },
          {
            "duration": 0.03205131250000193,
            "durationTicks": 30,
            "midi": 82,
            "name": "A#5",
            "ticks": 35760,
            "time": 38.205164499999995,
            "velocity": 0.5196850393700787
          },
          {
            "duration": 0.03205131250000193,
            "durationTicks": 30,
            "midi": 40,
            "name": "E2",
            "ticks": 36000,
            "time": 38.461574999999996,
            "velocity": 0.937007874015748
          },
          {
            "duration": 0.03205131250000193,
            "durationTicks": 30,
            "midi": 42,
            "name": "F#2",
            "ticks": 36000,
            "time": 38.461574999999996,
            "velocity": 0.4094488188976378
          },
          {
            "duration": 0.03205131250000193,
            "durationTicks": 30,
            "midi": 82,
            "name": "A#5",
            "ticks": 36000,
            "time": 38.461574999999996,
            "velocity": 0.5511811023622047
          },
          {
            "duration": 0.03205131250000193,
            "durationTicks": 30,
            "midi": 42,
            "name": "F#2",
            "ticks": 36240,
            "time": 38.7179855,
            "velocity": 0.6692913385826772
          },
          {
            "duration": 0.03205131250000193,
            "durationTicks": 30,
            "midi": 82,
            "name": "A#5",
            "ticks": 36240,
            "time": 38.7179855,
            "velocity": 0.5511811023622047
          },
          {
            "duration": 0.03205131250000193,
            "durationTicks": 30,
            "midi": 36,
            "name": "C2",
            "ticks": 36480,
            "time": 38.974396,
            "velocity": 0.8740157480314961
          },
          {
            "duration": 0.03205131250000193,
            "durationTicks": 30,
            "midi": 42,
            "name": "F#2",
            "ticks": 36480,
            "time": 38.974396,
            "velocity": 0.3779527559055118
          },
          {
            "duration": 0.03205131250000193,
            "durationTicks": 30,
            "midi": 82,
            "name": "A#5",
            "ticks": 36480,
            "time": 38.974396,
            "velocity": 0.5669291338582677
          },
          {
            "duration": 0.03205131249999482,
            "durationTicks": 30,
            "midi": 42,
            "name": "F#2",
            "ticks": 36720,
            "time": 39.2308065,
            "velocity": 0.5905511811023622
          },
          {
            "duration": 0.03205131249999482,
            "durationTicks": 30,
            "midi": 82,
            "name": "A#5",
            "ticks": 36720,
            "time": 39.2308065,
            "velocity": 0.5511811023622047
          },
          {
            "duration": 0.03205131249999482,
            "durationTicks": 30,
            "midi": 40,
            "name": "E2",
            "ticks": 36960,
            "time": 39.487217,
            "velocity": 0.9291338582677166
          },
          {
            "duration": 0.03205131249999482,
            "durationTicks": 30,
            "midi": 42,
            "name": "F#2",
            "ticks": 36960,
            "time": 39.487217,
            "velocity": 0.47244094488188976
          },
          {
            "duration": 0.03205131249999482,
            "durationTicks": 30,
            "midi": 82,
            "name": "A#5",
            "ticks": 36960,
            "time": 39.487217,
            "velocity": 0.5354330708661418
          },
          {
            "duration": 0.03205131250000193,
            "durationTicks": 30,
            "midi": 42,
            "name": "F#2",
            "ticks": 37200,
            "time": 39.743627499999995,
            "velocity": 0.6299212598425197
          },
          {
            "duration": 0.03205131250000193,
            "durationTicks": 30,
            "midi": 82,
            "name": "A#5",
            "ticks": 37200,
            "time": 39.743627499999995,
            "velocity": 0.5511811023622047
          },
          {
            "duration": 0.03205131250000193,
            "durationTicks": 30,
            "midi": 36,
            "name": "C2",
            "ticks": 37440,
            "time": 40.000037999999996,
            "velocity": 0.8740157480314961
          },
          {
            "duration": 0.03205131250000193,
            "durationTicks": 30,
            "midi": 42,
            "name": "F#2",
            "ticks": 37440,
            "time": 40.000037999999996,
            "velocity": 0.49606299212598426
          },
          {
            "duration": 0.03205131250000193,
            "durationTicks": 30,
            "midi": 82,
            "name": "A#5",
            "ticks": 37440,
            "time": 40.000037999999996,
            "velocity": 0.5511811023622047
          },
          {
            "duration": 0.03205131250000193,
            "durationTicks": 30,
            "midi": 42,
            "name": "F#2",
            "ticks": 37680,
            "time": 40.2564485,
            "velocity": 0.5905511811023622
          },
          {
            "duration": 0.03205131250000193,
            "durationTicks": 30,
            "midi": 82,
            "name": "A#5",
            "ticks": 37680,
            "time": 40.2564485,
            "velocity": 0.5826771653543307
          },
          {
            "duration": 0.03205131250000193,
            "durationTicks": 30,
            "midi": 40,
            "name": "E2",
            "ticks": 37920,
            "time": 40.512859,
            "velocity": 0.937007874015748
          },
          {
            "duration": 0.03205131250000193,
            "durationTicks": 30,
            "midi": 42,
            "name": "F#2",
            "ticks": 37920,
            "time": 40.512859,
            "velocity": 0.49606299212598426
          },
          {
            "duration": 0.03205131250000193,
            "durationTicks": 30,
            "midi": 82,
            "name": "A#5",
            "ticks": 37920,
            "time": 40.512859,
            "velocity": 0.5354330708661418
          },
          {
            "duration": 0.03205131249999482,
            "durationTicks": 30,
            "midi": 42,
            "name": "F#2",
            "ticks": 38160,
            "time": 40.7692695,
            "velocity": 0.6692913385826772
          },
          {
            "duration": 0.03205131249999482,
            "durationTicks": 30,
            "midi": 82,
            "name": "A#5",
            "ticks": 38160,
            "time": 40.7692695,
            "velocity": 0.5511811023622047
          },
          {
            "duration": 0.03205131250000193,
            "durationTicks": 30,
            "midi": 36,
            "name": "C2",
            "ticks": 38400,
            "time": 41.025679999999994,
            "velocity": 0.8740157480314961
          },
          {
            "duration": 0.03205131250000193,
            "durationTicks": 30,
            "midi": 42,
            "name": "F#2",
            "ticks": 38400,
            "time": 41.025679999999994,
            "velocity": 0.47244094488188976
          },
          {
            "duration": 0.03205131250000193,
            "durationTicks": 30,
            "midi": 82,
            "name": "A#5",
            "ticks": 38400,
            "time": 41.025679999999994,
            "velocity": 0.5354330708661418
          },
          {
            "duration": 0.03205131250000193,
            "durationTicks": 30,
            "midi": 42,
            "name": "F#2",
            "ticks": 38640,
            "time": 41.282090499999995,
            "velocity": 0.5905511811023622
          },
          {
            "duration": 0.03205131250000193,
            "durationTicks": 30,
            "midi": 82,
            "name": "A#5",
            "ticks": 38640,
            "time": 41.282090499999995,
            "velocity": 0.48031496062992124
          },
          {
            "duration": 0.03205131250000193,
            "durationTicks": 30,
            "midi": 40,
            "name": "E2",
            "ticks": 38880,
            "time": 41.538501,
            "velocity": 0.937007874015748
          },
          {
            "duration": 0.03205131250000193,
            "durationTicks": 30,
            "midi": 42,
            "name": "F#2",
            "ticks": 38880,
            "time": 41.538501,
            "velocity": 0.4330708661417323
          },
          {
            "duration": 0.03205131250000193,
            "durationTicks": 30,
            "midi": 82,
            "name": "A#5",
            "ticks": 38880,
            "time": 41.538501,
            "velocity": 0.48031496062992124
          },
          {
            "duration": 0.03205131250000193,
            "durationTicks": 30,
            "midi": 42,
            "name": "F#2",
            "ticks": 39120,
            "time": 41.7949115,
            "velocity": 0.6692913385826772
          },
          {
            "duration": 0.03205131250000193,
            "durationTicks": 30,
            "midi": 82,
            "name": "A#5",
            "ticks": 39120,
            "time": 41.7949115,
            "velocity": 0.44881889763779526
          },
          {
            "duration": 0.03205131250000193,
            "durationTicks": 30,
            "midi": 36,
            "name": "C2",
            "ticks": 39360,
            "time": 42.051322,
            "velocity": 0.8740157480314961
          },
          {
            "duration": 0.03205131250000193,
            "durationTicks": 30,
            "midi": 42,
            "name": "F#2",
            "ticks": 39360,
            "time": 42.051322,
            "velocity": 0.4094488188976378
          },
          {
            "duration": 0.03205131250000193,
            "durationTicks": 30,
            "midi": 82,
            "name": "A#5",
            "ticks": 39360,
            "time": 42.051322,
            "velocity": 0.5039370078740157
          },
          {
            "duration": 0.03205131249999482,
            "durationTicks": 30,
            "midi": 42,
            "name": "F#2",
            "ticks": 39600,
            "time": 42.3077325,
            "velocity": 0.6299212598425197
          },
          {
            "duration": 0.03205131249999482,
            "durationTicks": 30,
            "midi": 82,
            "name": "A#5",
            "ticks": 39600,
            "time": 42.3077325,
            "velocity": 0.41732283464566927
          },
          {
            "duration": 0.03205131250000193,
            "durationTicks": 30,
            "midi": 40,
            "name": "E2",
            "ticks": 39840,
            "time": 42.564142999999994,
            "velocity": 0.937007874015748
          },
          {
            "duration": 0.03205131250000193,
            "durationTicks": 30,
            "midi": 42,
            "name": "F#2",
            "ticks": 39840,
            "time": 42.564142999999994,
            "velocity": 0.4094488188976378
          },
          {
            "duration": 0.03205131250000193,
            "durationTicks": 30,
            "midi": 82,
            "name": "A#5",
            "ticks": 39840,
            "time": 42.564142999999994,
            "velocity": 0.5354330708661418
          },
          {
            "duration": 0.03205131250000193,
            "durationTicks": 30,
            "midi": 42,
            "name": "F#2",
            "ticks": 40080,
            "time": 42.820553499999995,
            "velocity": 0.6692913385826772
          },
          {
            "duration": 0.03205131250000193,
            "durationTicks": 30,
            "midi": 82,
            "name": "A#5",
            "ticks": 40080,
            "time": 42.820553499999995,
            "velocity": 0.5039370078740157
          },
          {
            "duration": 0.03205131250000193,
            "durationTicks": 30,
            "midi": 36,
            "name": "C2",
            "ticks": 40320,
            "time": 43.076964,
            "velocity": 0.8740157480314961
          },
          {
            "duration": 0.03205131250000193,
            "durationTicks": 30,
            "midi": 42,
            "name": "F#2",
            "ticks": 40320,
            "time": 43.076964,
            "velocity": 0.3779527559055118
          },
          {
            "duration": 0.03205131250000193,
            "durationTicks": 30,
            "midi": 82,
            "name": "A#5",
            "ticks": 40320,
            "time": 43.076964,
            "velocity": 0.4881889763779528
          },
          {
            "duration": 0.03205131250000193,
            "durationTicks": 30,
            "midi": 42,
            "name": "F#2",
            "ticks": 40560,
            "time": 43.3333745,
            "velocity": 0.5905511811023622
          },
          {
            "duration": 0.03205131250000193,
            "durationTicks": 30,
            "midi": 82,
            "name": "A#5",
            "ticks": 40560,
            "time": 43.3333745,
            "velocity": 0.4094488188976378
          },
          {
            "duration": 0.03205131250000193,
            "durationTicks": 30,
            "midi": 40,
            "name": "E2",
            "ticks": 40800,
            "time": 43.589785,
            "velocity": 0.9291338582677166
          },
          {
            "duration": 0.03205131250000193,
            "durationTicks": 30,
            "midi": 42,
            "name": "F#2",
            "ticks": 40800,
            "time": 43.589785,
            "velocity": 0.47244094488188976
          },
          {
            "duration": 0.03205131250000193,
            "durationTicks": 30,
            "midi": 82,
            "name": "A#5",
            "ticks": 40800,
            "time": 43.589785,
            "velocity": 0.5511811023622047
          },
          {
            "duration": 0.03205131249999482,
            "durationTicks": 30,
            "midi": 42,
            "name": "F#2",
            "ticks": 41040,
            "time": 43.8461955,
            "velocity": 0.6299212598425197
          },
          {
            "duration": 0.03205131249999482,
            "durationTicks": 30,
            "midi": 82,
            "name": "A#5",
            "ticks": 41040,
            "time": 43.8461955,
            "velocity": 0.4645669291338583
          },
          {
            "duration": 0.03205131250000193,
            "durationTicks": 30,
            "midi": 36,
            "name": "C2",
            "ticks": 41280,
            "time": 44.102605999999994,
            "velocity": 0.8740157480314961
          },
          {
            "duration": 0.03205131250000193,
            "durationTicks": 30,
            "midi": 42,
            "name": "F#2",
            "ticks": 41280,
            "time": 44.102605999999994,
            "velocity": 0.49606299212598426
          },
          {
            "duration": 0.03205131250000193,
            "durationTicks": 30,
            "midi": 82,
            "name": "A#5",
            "ticks": 41280,
            "time": 44.102605999999994,
            "velocity": 0.5354330708661418
          },
          {
            "duration": 0.03205131250000193,
            "durationTicks": 30,
            "midi": 42,
            "name": "F#2",
            "ticks": 41520,
            "time": 44.359016499999996,
            "velocity": 0.5905511811023622
          },
          {
            "duration": 0.03205131250000193,
            "durationTicks": 30,
            "midi": 82,
            "name": "A#5",
            "ticks": 41520,
            "time": 44.359016499999996,
            "velocity": 0.5196850393700787
          },
          {
            "duration": 0.03205131250000193,
            "durationTicks": 30,
            "midi": 40,
            "name": "E2",
            "ticks": 41760,
            "time": 44.615427,
            "velocity": 0.937007874015748
          },
          {
            "duration": 0.03205131250000193,
            "durationTicks": 30,
            "midi": 42,
            "name": "F#2",
            "ticks": 41760,
            "time": 44.615427,
            "velocity": 0.49606299212598426
          },
          {
            "duration": 0.03205131250000193,
            "durationTicks": 30,
            "midi": 82,
            "name": "A#5",
            "ticks": 41760,
            "time": 44.615427,
            "velocity": 0.5826771653543307
          },
          {
            "duration": 0.03205131250000193,
            "durationTicks": 30,
            "midi": 42,
            "name": "F#2",
            "ticks": 42000,
            "time": 44.8718375,
            "velocity": 0.6692913385826772
          },
          {
            "duration": 0.03205131250000193,
            "durationTicks": 30,
            "midi": 82,
            "name": "A#5",
            "ticks": 42000,
            "time": 44.8718375,
            "velocity": 0.4409448818897638
          },
          {
            "duration": 0.03205131249999482,
            "durationTicks": 30,
            "midi": 36,
            "name": "C2",
            "ticks": 42240,
            "time": 45.128248,
            "velocity": 0.8740157480314961
          },
          {
            "duration": 0.03205131249999482,
            "durationTicks": 30,
            "midi": 42,
            "name": "F#2",
            "ticks": 42240,
            "time": 45.128248,
            "velocity": 0.47244094488188976
          },
          {
            "duration": 0.03205131249999482,
            "durationTicks": 30,
            "midi": 82,
            "name": "A#5",
            "ticks": 42240,
            "time": 45.128248,
            "velocity": 0.5826771653543307
          },
          {
            "duration": 0.03205131249999482,
            "durationTicks": 30,
            "midi": 42,
            "name": "F#2",
            "ticks": 42480,
            "time": 45.3846585,
            "velocity": 0.5905511811023622
          },
          {
            "duration": 0.03205131249999482,
            "durationTicks": 30,
            "midi": 82,
            "name": "A#5",
            "ticks": 42480,
            "time": 45.3846585,
            "velocity": 0.5039370078740157
          },
          {
            "duration": 0.03205131250000193,
            "durationTicks": 30,
            "midi": 40,
            "name": "E2",
            "ticks": 42720,
            "time": 45.641068999999995,
            "velocity": 0.937007874015748
          },
          {
            "duration": 0.03205131250000193,
            "durationTicks": 30,
            "midi": 42,
            "name": "F#2",
            "ticks": 42720,
            "time": 45.641068999999995,
            "velocity": 0.4330708661417323
          },
          {
            "duration": 0.03205131250000193,
            "durationTicks": 30,
            "midi": 82,
            "name": "A#5",
            "ticks": 42720,
            "time": 45.641068999999995,
            "velocity": 0.5669291338582677
          },
          {
            "duration": 0.03205131250000193,
            "durationTicks": 30,
            "midi": 42,
            "name": "F#2",
            "ticks": 42960,
            "time": 45.897479499999996,
            "velocity": 0.6692913385826772
          },
          {
            "duration": 0.03205131250000193,
            "durationTicks": 30,
            "midi": 82,
            "name": "A#5",
            "ticks": 42960,
            "time": 45.897479499999996,
            "velocity": 0.5196850393700787
          },
          {
            "duration": 0.03205131250000193,
            "durationTicks": 30,
            "midi": 36,
            "name": "C2",
            "ticks": 43200,
            "time": 46.15389,
            "velocity": 0.8740157480314961
          },
          {
            "duration": 0.03205131250000193,
            "durationTicks": 30,
            "midi": 42,
            "name": "F#2",
            "ticks": 43200,
            "time": 46.15389,
            "velocity": 0.4094488188976378
          },
          {
            "duration": 0.03205131250000193,
            "durationTicks": 30,
            "midi": 82,
            "name": "A#5",
            "ticks": 43200,
            "time": 46.15389,
            "velocity": 0.4881889763779528
          },
          {
            "duration": 0.03205131250000193,
            "durationTicks": 30,
            "midi": 42,
            "name": "F#2",
            "ticks": 43440,
            "time": 46.4103005,
            "velocity": 0.6299212598425197
          },
          {
            "duration": 0.03205131250000193,
            "durationTicks": 30,
            "midi": 82,
            "name": "A#5",
            "ticks": 43440,
            "time": 46.4103005,
            "velocity": 0.5196850393700787
          },
          {
            "duration": 0.03205131249999482,
            "durationTicks": 30,
            "midi": 40,
            "name": "E2",
            "ticks": 43680,
            "time": 46.666711,
            "velocity": 0.937007874015748
          },
          {
            "duration": 0.03205131249999482,
            "durationTicks": 30,
            "midi": 42,
            "name": "F#2",
            "ticks": 43680,
            "time": 46.666711,
            "velocity": 0.4094488188976378
          },
          {
            "duration": 0.03205131249999482,
            "durationTicks": 30,
            "midi": 82,
            "name": "A#5",
            "ticks": 43680,
            "time": 46.666711,
            "velocity": 0.5511811023622047
          },
          {
            "duration": 0.03205131249999482,
            "durationTicks": 30,
            "midi": 42,
            "name": "F#2",
            "ticks": 43920,
            "time": 46.9231215,
            "velocity": 0.6692913385826772
          },
          {
            "duration": 0.03205131249999482,
            "durationTicks": 30,
            "midi": 82,
            "name": "A#5",
            "ticks": 43920,
            "time": 46.9231215,
            "velocity": 0.5511811023622047
          },
          {
            "duration": 0.03205131250000193,
            "durationTicks": 30,
            "midi": 36,
            "name": "C2",
            "ticks": 44160,
            "time": 47.179531999999995,
            "velocity": 0.8740157480314961
          },
          {
            "duration": 0.03205131250000193,
            "durationTicks": 30,
            "midi": 42,
            "name": "F#2",
            "ticks": 44160,
            "time": 47.179531999999995,
            "velocity": 0.3779527559055118
          },
          {
            "duration": 0.03205131250000193,
            "durationTicks": 30,
            "midi": 82,
            "name": "A#5",
            "ticks": 44160,
            "time": 47.179531999999995,
            "velocity": 0.5669291338582677
          },
          {
            "duration": 0.03205131250000193,
            "durationTicks": 30,
            "midi": 42,
            "name": "F#2",
            "ticks": 44400,
            "time": 47.435942499999996,
            "velocity": 0.5905511811023622
          },
          {
            "duration": 0.03205131250000193,
            "durationTicks": 30,
            "midi": 82,
            "name": "A#5",
            "ticks": 44400,
            "time": 47.435942499999996,
            "velocity": 0.5511811023622047
          },
          {
            "duration": 0.03205131250000193,
            "durationTicks": 30,
            "midi": 40,
            "name": "E2",
            "ticks": 44640,
            "time": 47.692353,
            "velocity": 0.9291338582677166
          },
          {
            "duration": 0.03205131250000193,
            "durationTicks": 30,
            "midi": 42,
            "name": "F#2",
            "ticks": 44640,
            "time": 47.692353,
            "velocity": 0.47244094488188976
          },
          {
            "duration": 0.03205131250000193,
            "durationTicks": 30,
            "midi": 82,
            "name": "A#5",
            "ticks": 44640,
            "time": 47.692353,
            "velocity": 0.5354330708661418
          },
          {
            "duration": 0.03205131250000193,
            "durationTicks": 30,
            "midi": 42,
            "name": "F#2",
            "ticks": 44880,
            "time": 47.9487635,
            "velocity": 0.6299212598425197
          },
          {
            "duration": 0.03205131250000193,
            "durationTicks": 30,
            "midi": 82,
            "name": "A#5",
            "ticks": 44880,
            "time": 47.9487635,
            "velocity": 0.5511811023622047
          },
          {
            "duration": 0.03205131249999482,
            "durationTicks": 30,
            "midi": 36,
            "name": "C2",
            "ticks": 45120,
            "time": 48.205174,
            "velocity": 0.8740157480314961
          },
          {
            "duration": 0.03205131249999482,
            "durationTicks": 30,
            "midi": 42,
            "name": "F#2",
            "ticks": 45120,
            "time": 48.205174,
            "velocity": 0.49606299212598426
          },
          {
            "duration": 0.03205131249999482,
            "durationTicks": 30,
            "midi": 82,
            "name": "A#5",
            "ticks": 45120,
            "time": 48.205174,
            "velocity": 0.5511811023622047
          },
          {
            "duration": 0.03205131249999482,
            "durationTicks": 30,
            "midi": 42,
            "name": "F#2",
            "ticks": 45360,
            "time": 48.4615845,
            "velocity": 0.5905511811023622
          },
          {
            "duration": 0.03205131249999482,
            "durationTicks": 30,
            "midi": 82,
            "name": "A#5",
            "ticks": 45360,
            "time": 48.4615845,
            "velocity": 0.5826771653543307
          },
          {
            "duration": 0.03205131250000193,
            "durationTicks": 30,
            "midi": 40,
            "name": "E2",
            "ticks": 45600,
            "time": 48.717994999999995,
            "velocity": 0.937007874015748
          },
          {
            "duration": 0.03205131250000193,
            "durationTicks": 30,
            "midi": 42,
            "name": "F#2",
            "ticks": 45600,
            "time": 48.717994999999995,
            "velocity": 0.49606299212598426
          },
          {
            "duration": 0.03205131250000193,
            "durationTicks": 30,
            "midi": 82,
            "name": "A#5",
            "ticks": 45600,
            "time": 48.717994999999995,
            "velocity": 0.5354330708661418
          },
          {
            "duration": 0.03205131250000193,
            "durationTicks": 30,
            "midi": 42,
            "name": "F#2",
            "ticks": 45840,
            "time": 48.974405499999996,
            "velocity": 0.6692913385826772
          },
          {
            "duration": 0.03205131250000193,
            "durationTicks": 30,
            "midi": 82,
            "name": "A#5",
            "ticks": 45840,
            "time": 48.974405499999996,
            "velocity": 0.5511811023622047
          },
          {
            "duration": 0.03205131250000193,
            "durationTicks": 30,
            "midi": 36,
            "name": "C2",
            "ticks": 46080,
            "time": 49.230816,
            "velocity": 0.8740157480314961
          },
          {
            "duration": 0.03205131250000193,
            "durationTicks": 30,
            "midi": 42,
            "name": "F#2",
            "ticks": 46080,
            "time": 49.230816,
            "velocity": 0.47244094488188976
          },
          {
            "duration": 0.03205131250000193,
            "durationTicks": 30,
            "midi": 82,
            "name": "A#5",
            "ticks": 46080,
            "time": 49.230816,
            "velocity": 0.5354330708661418
          },
          {
            "duration": 0.03205131250000193,
            "durationTicks": 30,
            "midi": 42,
            "name": "F#2",
            "ticks": 46320,
            "time": 49.4872265,
            "velocity": 0.5905511811023622
          },
          {
            "duration": 0.03205131250000193,
            "durationTicks": 30,
            "midi": 82,
            "name": "A#5",
            "ticks": 46320,
            "time": 49.4872265,
            "velocity": 0.48031496062992124
          },
          {
            "duration": 0.03205131249999482,
            "durationTicks": 30,
            "midi": 40,
            "name": "E2",
            "ticks": 46560,
            "time": 49.743637,
            "velocity": 0.937007874015748
          },
          {
            "duration": 0.03205131249999482,
            "durationTicks": 30,
            "midi": 42,
            "name": "F#2",
            "ticks": 46560,
            "time": 49.743637,
            "velocity": 0.4330708661417323
          },
          {
            "duration": 0.03205131249999482,
            "durationTicks": 30,
            "midi": 82,
            "name": "A#5",
            "ticks": 46560,
            "time": 49.743637,
            "velocity": 0.48031496062992124
          },
          {
            "duration": 0.03205131250000193,
            "durationTicks": 30,
            "midi": 42,
            "name": "F#2",
            "ticks": 46800,
            "time": 50.000047499999994,
            "velocity": 0.6692913385826772
          },
          {
            "duration": 0.03205131250000193,
            "durationTicks": 30,
            "midi": 82,
            "name": "A#5",
            "ticks": 46800,
            "time": 50.000047499999994,
            "velocity": 0.44881889763779526
          },
          {
            "duration": 0.03205131250000193,
            "durationTicks": 30,
            "midi": 36,
            "name": "C2",
            "ticks": 47040,
            "time": 50.256457999999995,
            "velocity": 0.8740157480314961
          },
          {
            "duration": 0.03205131250000193,
            "durationTicks": 30,
            "midi": 42,
            "name": "F#2",
            "ticks": 47040,
            "time": 50.256457999999995,
            "velocity": 0.4094488188976378
          },
          {
            "duration": 0.03205131250000193,
            "durationTicks": 30,
            "midi": 82,
            "name": "A#5",
            "ticks": 47040,
            "time": 50.256457999999995,
            "velocity": 0.5039370078740157
          },
          {
            "duration": 0.03205131250000193,
            "durationTicks": 30,
            "midi": 42,
            "name": "F#2",
            "ticks": 47280,
            "time": 50.512868499999996,
            "velocity": 0.6299212598425197
          },
          {
            "duration": 0.03205131250000193,
            "durationTicks": 30,
            "midi": 82,
            "name": "A#5",
            "ticks": 47280,
            "time": 50.512868499999996,
            "velocity": 0.41732283464566927
          },
          {
            "duration": 0.03205131250000193,
            "durationTicks": 30,
            "midi": 40,
            "name": "E2",
            "ticks": 47520,
            "time": 50.769279,
            "velocity": 0.937007874015748
          },
          {
            "duration": 0.03205131250000193,
            "durationTicks": 30,
            "midi": 42,
            "name": "F#2",
            "ticks": 47520,
            "time": 50.769279,
            "velocity": 0.4094488188976378
          },
          {
            "duration": 0.03205131250000193,
            "durationTicks": 30,
            "midi": 82,
            "name": "A#5",
            "ticks": 47520,
            "time": 50.769279,
            "velocity": 0.5354330708661418
          },
          {
            "duration": 0.03205131250000193,
            "durationTicks": 30,
            "midi": 42,
            "name": "F#2",
            "ticks": 47760,
            "time": 51.0256895,
            "velocity": 0.6692913385826772
          },
          {
            "duration": 0.03205131250000193,
            "durationTicks": 30,
            "midi": 82,
            "name": "A#5",
            "ticks": 47760,
            "time": 51.0256895,
            "velocity": 0.5039370078740157
          },
          {
            "duration": 0.03205131249999482,
            "durationTicks": 30,
            "midi": 36,
            "name": "C2",
            "ticks": 48000,
            "time": 51.2821,
            "velocity": 0.8740157480314961
          },
          {
            "duration": 0.03205131249999482,
            "durationTicks": 30,
            "midi": 42,
            "name": "F#2",
            "ticks": 48000,
            "time": 51.2821,
            "velocity": 0.3779527559055118
          },
          {
            "duration": 0.03205131249999482,
            "durationTicks": 30,
            "midi": 82,
            "name": "A#5",
            "ticks": 48000,
            "time": 51.2821,
            "velocity": 0.4881889763779528
          },
          {
            "duration": 0.03205131250000193,
            "durationTicks": 30,
            "midi": 42,
            "name": "F#2",
            "ticks": 48240,
            "time": 51.538510499999994,
            "velocity": 0.5905511811023622
          },
          {
            "duration": 0.03205131250000193,
            "durationTicks": 30,
            "midi": 82,
            "name": "A#5",
            "ticks": 48240,
            "time": 51.538510499999994,
            "velocity": 0.4094488188976378
          },
          {
            "duration": 0.03205131250000193,
            "durationTicks": 30,
            "midi": 40,
            "name": "E2",
            "ticks": 48480,
            "time": 51.794920999999995,
            "velocity": 0.9291338582677166
          },
          {
            "duration": 0.03205131250000193,
            "durationTicks": 30,
            "midi": 42,
            "name": "F#2",
            "ticks": 48480,
            "time": 51.794920999999995,
            "velocity": 0.47244094488188976
          },
          {
            "duration": 0.03205131250000193,
            "durationTicks": 30,
            "midi": 82,
            "name": "A#5",
            "ticks": 48480,
            "time": 51.794920999999995,
            "velocity": 0.5511811023622047
          },
          {
            "duration": 0.03205131250000193,
            "durationTicks": 30,
            "midi": 42,
            "name": "F#2",
            "ticks": 48720,
            "time": 52.051331499999996,
            "velocity": 0.6299212598425197
          },
          {
            "duration": 0.03205131250000193,
            "durationTicks": 30,
            "midi": 82,
            "name": "A#5",
            "ticks": 48720,
            "time": 52.051331499999996,
            "velocity": 0.4645669291338583
          },
          {
            "duration": 0.03205131250000193,
            "durationTicks": 30,
            "midi": 36,
            "name": "C2",
            "ticks": 48960,
            "time": 52.307742,
            "velocity": 0.8740157480314961
          },
          {
            "duration": 0.03205131250000193,
            "durationTicks": 30,
            "midi": 42,
            "name": "F#2",
            "ticks": 48960,
            "time": 52.307742,
            "velocity": 0.49606299212598426
          },
          {
            "duration": 0.03205131250000193,
            "durationTicks": 30,
            "midi": 82,
            "name": "A#5",
            "ticks": 48960,
            "time": 52.307742,
            "velocity": 0.5354330708661418
          },
          {
            "duration": 0.03205131249999482,
            "durationTicks": 30,
            "midi": 42,
            "name": "F#2",
            "ticks": 49200,
            "time": 52.5641525,
            "velocity": 0.5905511811023622
          },
          {
            "duration": 0.03205131249999482,
            "durationTicks": 30,
            "midi": 82,
            "name": "A#5",
            "ticks": 49200,
            "time": 52.5641525,
            "velocity": 0.5196850393700787
          },
          {
            "duration": 0.03205131249999482,
            "durationTicks": 30,
            "midi": 40,
            "name": "E2",
            "ticks": 49440,
            "time": 52.820563,
            "velocity": 0.937007874015748
          },
          {
            "duration": 0.03205131249999482,
            "durationTicks": 30,
            "midi": 42,
            "name": "F#2",
            "ticks": 49440,
            "time": 52.820563,
            "velocity": 0.49606299212598426
          },
          {
            "duration": 0.03205131249999482,
            "durationTicks": 30,
            "midi": 82,
            "name": "A#5",
            "ticks": 49440,
            "time": 52.820563,
            "velocity": 0.5826771653543307
          },
          {
            "duration": 0.03205131250000193,
            "durationTicks": 30,
            "midi": 42,
            "name": "F#2",
            "ticks": 49680,
            "time": 53.076973499999994,
            "velocity": 0.6692913385826772
          },
          {
            "duration": 0.03205131250000193,
            "durationTicks": 30,
            "midi": 82,
            "name": "A#5",
            "ticks": 49680,
            "time": 53.076973499999994,
            "velocity": 0.4409448818897638
          },
          {
            "duration": 0.03205131250000193,
            "durationTicks": 30,
            "midi": 36,
            "name": "C2",
            "ticks": 49920,
            "time": 53.333383999999995,
            "velocity": 0.8740157480314961
          },
          {
            "duration": 0.03205131250000193,
            "durationTicks": 30,
            "midi": 42,
            "name": "F#2",
            "ticks": 49920,
            "time": 53.333383999999995,
            "velocity": 0.47244094488188976
          },
          {
            "duration": 0.03205131250000193,
            "durationTicks": 30,
            "midi": 82,
            "name": "A#5",
            "ticks": 49920,
            "time": 53.333383999999995,
            "velocity": 0.5826771653543307
          },
          {
            "duration": 0.03205131250000193,
            "durationTicks": 30,
            "midi": 42,
            "name": "F#2",
            "ticks": 50160,
            "time": 53.589794499999996,
            "velocity": 0.5905511811023622
          },
          {
            "duration": 0.03205131250000193,
            "durationTicks": 30,
            "midi": 82,
            "name": "A#5",
            "ticks": 50160,
            "time": 53.589794499999996,
            "velocity": 0.5039370078740157
          },
          {
            "duration": 0.03205131250000193,
            "durationTicks": 30,
            "midi": 40,
            "name": "E2",
            "ticks": 50400,
            "time": 53.846205,
            "velocity": 0.937007874015748
          },
          {
            "duration": 0.03205131250000193,
            "durationTicks": 30,
            "midi": 42,
            "name": "F#2",
            "ticks": 50400,
            "time": 53.846205,
            "velocity": 0.4330708661417323
          },
          {
            "duration": 0.03205131250000193,
            "durationTicks": 30,
            "midi": 82,
            "name": "A#5",
            "ticks": 50400,
            "time": 53.846205,
            "velocity": 0.5669291338582677
          },
          {
            "duration": 0.03205131249999482,
            "durationTicks": 30,
            "midi": 42,
            "name": "F#2",
            "ticks": 50640,
            "time": 54.1026155,
            "velocity": 0.6692913385826772
          },
          {
            "duration": 0.03205131249999482,
            "durationTicks": 30,
            "midi": 82,
            "name": "A#5",
            "ticks": 50640,
            "time": 54.1026155,
            "velocity": 0.5196850393700787
          },
          {
            "duration": 0.03205131249999482,
            "durationTicks": 30,
            "midi": 36,
            "name": "C2",
            "ticks": 50880,
            "time": 54.359026,
            "velocity": 0.8740157480314961
          },
          {
            "duration": 0.03205131249999482,
            "durationTicks": 30,
            "midi": 42,
            "name": "F#2",
            "ticks": 50880,
            "time": 54.359026,
            "velocity": 0.4094488188976378
          },
          {
            "duration": 0.03205131249999482,
            "durationTicks": 30,
            "midi": 82,
            "name": "A#5",
            "ticks": 50880,
            "time": 54.359026,
            "velocity": 0.4881889763779528
          },
          {
            "duration": 0.03205131250000193,
            "durationTicks": 30,
            "midi": 42,
            "name": "F#2",
            "ticks": 51120,
            "time": 54.615436499999994,
            "velocity": 0.6299212598425197
          },
          {
            "duration": 0.03205131250000193,
            "durationTicks": 30,
            "midi": 82,
            "name": "A#5",
            "ticks": 51120,
            "time": 54.615436499999994,
            "velocity": 0.5196850393700787
          },
          {
            "duration": 0.03205131250000193,
            "durationTicks": 30,
            "midi": 40,
            "name": "E2",
            "ticks": 51360,
            "time": 54.871846999999995,
            "velocity": 0.937007874015748
          },
          {
            "duration": 0.03205131250000193,
            "durationTicks": 30,
            "midi": 42,
            "name": "F#2",
            "ticks": 51360,
            "time": 54.871846999999995,
            "velocity": 0.4094488188976378
          },
          {
            "duration": 0.03205131250000193,
            "durationTicks": 30,
            "midi": 82,
            "name": "A#5",
            "ticks": 51360,
            "time": 54.871846999999995,
            "velocity": 0.5511811023622047
          },
          {
            "duration": 0.03205131250000193,
            "durationTicks": 30,
            "midi": 42,
            "name": "F#2",
            "ticks": 51600,
            "time": 55.1282575,
            "velocity": 0.6692913385826772
          },
          {
            "duration": 0.03205131250000193,
            "durationTicks": 30,
            "midi": 82,
            "name": "A#5",
            "ticks": 51600,
            "time": 55.1282575,
            "velocity": 0.5511811023622047
          },
          {
            "duration": 0.03205131250000193,
            "durationTicks": 30,
            "midi": 36,
            "name": "C2",
            "ticks": 51840,
            "time": 55.384668,
            "velocity": 0.8740157480314961
          },
          {
            "duration": 0.03205131250000193,
            "durationTicks": 30,
            "midi": 42,
            "name": "F#2",
            "ticks": 51840,
            "time": 55.384668,
            "velocity": 0.3779527559055118
          },
          {
            "duration": 0.03205131250000193,
            "durationTicks": 30,
            "midi": 82,
            "name": "A#5",
            "ticks": 51840,
            "time": 55.384668,
            "velocity": 0.5669291338582677
          },
          {
            "duration": 0.03205131249999482,
            "durationTicks": 30,
            "midi": 42,
            "name": "F#2",
            "ticks": 52080,
            "time": 55.6410785,
            "velocity": 0.5905511811023622
          },
          {
            "duration": 0.03205131249999482,
            "durationTicks": 30,
            "midi": 82,
            "name": "A#5",
            "ticks": 52080,
            "time": 55.6410785,
            "velocity": 0.5511811023622047
          },
          {
            "duration": 0.03205131249999482,
            "durationTicks": 30,
            "midi": 40,
            "name": "E2",
            "ticks": 52320,
            "time": 55.897489,
            "velocity": 0.9291338582677166
          },
          {
            "duration": 0.03205131249999482,
            "durationTicks": 30,
            "midi": 42,
            "name": "F#2",
            "ticks": 52320,
            "time": 55.897489,
            "velocity": 0.47244094488188976
          },
          {
            "duration": 0.03205131249999482,
            "durationTicks": 30,
            "midi": 82,
            "name": "A#5",
            "ticks": 52320,
            "time": 55.897489,
            "velocity": 0.5354330708661418
          },
          {
            "duration": 0.03205131250000193,
            "durationTicks": 30,
            "midi": 42,
            "name": "F#2",
            "ticks": 52560,
            "time": 56.153899499999994,
            "velocity": 0.6299212598425197
          },
          {
            "duration": 0.03205131250000193,
            "durationTicks": 30,
            "midi": 82,
            "name": "A#5",
            "ticks": 52560,
            "time": 56.153899499999994,
            "velocity": 0.5511811023622047
          },
          {
            "duration": 0.03205131250000193,
            "durationTicks": 30,
            "midi": 36,
            "name": "C2",
            "ticks": 52800,
            "time": 56.410309999999996,
            "velocity": 0.8740157480314961
          },
          {
            "duration": 0.03205131250000193,
            "durationTicks": 30,
            "midi": 42,
            "name": "F#2",
            "ticks": 52800,
            "time": 56.410309999999996,
            "velocity": 0.49606299212598426
          },
          {
            "duration": 0.03205131250000193,
            "durationTicks": 30,
            "midi": 82,
            "name": "A#5",
            "ticks": 52800,
            "time": 56.410309999999996,
            "velocity": 0.5511811023622047
          },
          {
            "duration": 0.03205131250000193,
            "durationTicks": 30,
            "midi": 42,
            "name": "F#2",
            "ticks": 53040,
            "time": 56.6667205,
            "velocity": 0.5905511811023622
          },
          {
            "duration": 0.03205131250000193,
            "durationTicks": 30,
            "midi": 82,
            "name": "A#5",
            "ticks": 53040,
            "time": 56.6667205,
            "velocity": 0.5826771653543307
          },
          {
            "duration": 0.03205131250000193,
            "durationTicks": 30,
            "midi": 40,
            "name": "E2",
            "ticks": 53280,
            "time": 56.923131,
            "velocity": 0.937007874015748
          },
          {
            "duration": 0.03205131250000193,
            "durationTicks": 30,
            "midi": 42,
            "name": "F#2",
            "ticks": 53280,
            "time": 56.923131,
            "velocity": 0.49606299212598426
          },
          {
            "duration": 0.03205131250000193,
            "durationTicks": 30,
            "midi": 82,
            "name": "A#5",
            "ticks": 53280,
            "time": 56.923131,
            "velocity": 0.5354330708661418
          },
          {
            "duration": 0.03205131249999482,
            "durationTicks": 30,
            "midi": 42,
            "name": "F#2",
            "ticks": 53520,
            "time": 57.1795415,
            "velocity": 0.6692913385826772
          },
          {
            "duration": 0.03205131249999482,
            "durationTicks": 30,
            "midi": 82,
            "name": "A#5",
            "ticks": 53520,
            "time": 57.1795415,
            "velocity": 0.5511811023622047
          },
          {
            "duration": 0.03205131249999482,
            "durationTicks": 30,
            "midi": 36,
            "name": "C2",
            "ticks": 53760,
            "time": 57.435952,
            "velocity": 0.8740157480314961
          },
          {
            "duration": 0.03205131249999482,
            "durationTicks": 30,
            "midi": 42,
            "name": "F#2",
            "ticks": 53760,
            "time": 57.435952,
            "velocity": 0.47244094488188976
          },
          {
            "duration": 0.03205131249999482,
            "durationTicks": 30,
            "midi": 82,
            "name": "A#5",
            "ticks": 53760,
            "time": 57.435952,
            "velocity": 0.5354330708661418
          },
          {
            "duration": 0.03205131250000193,
            "durationTicks": 30,
            "midi": 42,
            "name": "F#2",
            "ticks": 54000,
            "time": 57.692362499999994,
            "velocity": 0.5905511811023622
          },
          {
            "duration": 0.03205131250000193,
            "durationTicks": 30,
            "midi": 82,
            "name": "A#5",
            "ticks": 54000,
            "time": 57.692362499999994,
            "velocity": 0.48031496062992124
          },
          {
            "duration": 0.03205131250000193,
            "durationTicks": 30,
            "midi": 40,
            "name": "E2",
            "ticks": 54240,
            "time": 57.948772999999996,
            "velocity": 0.937007874015748
          },
          {
            "duration": 0.03205131250000193,
            "durationTicks": 30,
            "midi": 42,
            "name": "F#2",
            "ticks": 54240,
            "time": 57.948772999999996,
            "velocity": 0.4330708661417323
          },
          {
            "duration": 0.03205131250000193,
            "durationTicks": 30,
            "midi": 82,
            "name": "A#5",
            "ticks": 54240,
            "time": 57.948772999999996,
            "velocity": 0.48031496062992124
          },
          {
            "duration": 0.03205131250000193,
            "durationTicks": 30,
            "midi": 42,
            "name": "F#2",
            "ticks": 54480,
            "time": 58.2051835,
            "velocity": 0.6692913385826772
          },
          {
            "duration": 0.03205131250000193,
            "durationTicks": 30,
            "midi": 82,
            "name": "A#5",
            "ticks": 54480,
            "time": 58.2051835,
            "velocity": 0.44881889763779526
          },
          {
            "duration": 0.03205131250000193,
            "durationTicks": 30,
            "midi": 36,
            "name": "C2",
            "ticks": 54720,
            "time": 58.461594,
            "velocity": 0.8740157480314961
          },
          {
            "duration": 0.03205131250000193,
            "durationTicks": 30,
            "midi": 42,
            "name": "F#2",
            "ticks": 54720,
            "time": 58.461594,
            "velocity": 0.4094488188976378
          },
          {
            "duration": 0.03205131250000193,
            "durationTicks": 30,
            "midi": 82,
            "name": "A#5",
            "ticks": 54720,
            "time": 58.461594,
            "velocity": 0.5039370078740157
          },
          {
            "duration": 0.03205131249999482,
            "durationTicks": 30,
            "midi": 42,
            "name": "F#2",
            "ticks": 54960,
            "time": 58.7180045,
            "velocity": 0.6299212598425197
          },
          {
            "duration": 0.03205131249999482,
            "durationTicks": 30,
            "midi": 82,
            "name": "A#5",
            "ticks": 54960,
            "time": 58.7180045,
            "velocity": 0.41732283464566927
          },
          {
            "duration": 0.03205131250000193,
            "durationTicks": 30,
            "midi": 40,
            "name": "E2",
            "ticks": 55200,
            "time": 58.97441499999999,
            "velocity": 0.937007874015748
          },
          {
            "duration": 0.03205131250000193,
            "durationTicks": 30,
            "midi": 42,
            "name": "F#2",
            "ticks": 55200,
            "time": 58.97441499999999,
            "velocity": 0.4094488188976378
          },
          {
            "duration": 0.03205131250000193,
            "durationTicks": 30,
            "midi": 82,
            "name": "A#5",
            "ticks": 55200,
            "time": 58.97441499999999,
            "velocity": 0.5354330708661418
          },
          {
            "duration": 0.03205131250000193,
            "durationTicks": 30,
            "midi": 42,
            "name": "F#2",
            "ticks": 55440,
            "time": 59.230825499999995,
            "velocity": 0.6692913385826772
          },
          {
            "duration": 0.03205131250000193,
            "durationTicks": 30,
            "midi": 82,
            "name": "A#5",
            "ticks": 55440,
            "time": 59.230825499999995,
            "velocity": 0.5039370078740157
          },
          {
            "duration": 0.03205131250000193,
            "durationTicks": 30,
            "midi": 36,
            "name": "C2",
            "ticks": 55680,
            "time": 59.487235999999996,
            "velocity": 0.8740157480314961
          },
          {
            "duration": 0.03205131250000193,
            "durationTicks": 30,
            "midi": 42,
            "name": "F#2",
            "ticks": 55680,
            "time": 59.487235999999996,
            "velocity": 0.3779527559055118
          },
          {
            "duration": 0.03205131250000193,
            "durationTicks": 30,
            "midi": 82,
            "name": "A#5",
            "ticks": 55680,
            "time": 59.487235999999996,
            "velocity": 0.4881889763779528
          },
          {
            "duration": 0.03205131250000193,
            "durationTicks": 30,
            "midi": 42,
            "name": "F#2",
            "ticks": 55920,
            "time": 59.7436465,
            "velocity": 0.5905511811023622
          },
          {
            "duration": 0.03205131250000193,
            "durationTicks": 30,
            "midi": 82,
            "name": "A#5",
            "ticks": 55920,
            "time": 59.7436465,
            "velocity": 0.4094488188976378
          },
          {
            "duration": 0.03205131250000193,
            "durationTicks": 30,
            "midi": 40,
            "name": "E2",
            "ticks": 56160,
            "time": 60.000057,
            "velocity": 0.9291338582677166
          },
          {
            "duration": 0.03205131250000193,
            "durationTicks": 30,
            "midi": 42,
            "name": "F#2",
            "ticks": 56160,
            "time": 60.000057,
            "velocity": 0.47244094488188976
          },
          {
            "duration": 0.03205131250000193,
            "durationTicks": 30,
            "midi": 82,
            "name": "A#5",
            "ticks": 56160,
            "time": 60.000057,
            "velocity": 0.5511811023622047
          },
          {
            "duration": 0.03205131249999482,
            "durationTicks": 30,
            "midi": 42,
            "name": "F#2",
            "ticks": 56400,
            "time": 60.2564675,
            "velocity": 0.6299212598425197
          },
          {
            "duration": 0.03205131249999482,
            "durationTicks": 30,
            "midi": 82,
            "name": "A#5",
            "ticks": 56400,
            "time": 60.2564675,
            "velocity": 0.4645669291338583
          },
          {
            "duration": 0.03205131250000193,
            "durationTicks": 30,
            "midi": 36,
            "name": "C2",
            "ticks": 56640,
            "time": 60.51287799999999,
            "velocity": 0.8740157480314961
          },
          {
            "duration": 0.03205131250000193,
            "durationTicks": 30,
            "midi": 42,
            "name": "F#2",
            "ticks": 56640,
            "time": 60.51287799999999,
            "velocity": 0.49606299212598426
          },
          {
            "duration": 0.03205131250000193,
            "durationTicks": 30,
            "midi": 82,
            "name": "A#5",
            "ticks": 56640,
            "time": 60.51287799999999,
            "velocity": 0.5354330708661418
          },
          {
            "duration": 0.03205131250000193,
            "durationTicks": 30,
            "midi": 42,
            "name": "F#2",
            "ticks": 56880,
            "time": 60.769288499999995,
            "velocity": 0.5905511811023622
          },
          {
            "duration": 0.03205131250000193,
            "durationTicks": 30,
            "midi": 82,
            "name": "A#5",
            "ticks": 56880,
            "time": 60.769288499999995,
            "velocity": 0.5196850393700787
          },
          {
            "duration": 0.03205131250000193,
            "durationTicks": 30,
            "midi": 40,
            "name": "E2",
            "ticks": 57120,
            "time": 61.025698999999996,
            "velocity": 0.937007874015748
          },
          {
            "duration": 0.03205131250000193,
            "durationTicks": 30,
            "midi": 42,
            "name": "F#2",
            "ticks": 57120,
            "time": 61.025698999999996,
            "velocity": 0.49606299212598426
          },
          {
            "duration": 0.03205131250000193,
            "durationTicks": 30,
            "midi": 82,
            "name": "A#5",
            "ticks": 57120,
            "time": 61.025698999999996,
            "velocity": 0.5826771653543307
          },
          {
            "duration": 0.03205131250000193,
            "durationTicks": 30,
            "midi": 42,
            "name": "F#2",
            "ticks": 57360,
            "time": 61.2821095,
            "velocity": 0.6692913385826772
          },
          {
            "duration": 0.03205131250000193,
            "durationTicks": 30,
            "midi": 82,
            "name": "A#5",
            "ticks": 57360,
            "time": 61.2821095,
            "velocity": 0.4409448818897638
          },
          {
            "duration": 0.03205131249999482,
            "durationTicks": 30,
            "midi": 36,
            "name": "C2",
            "ticks": 57600,
            "time": 61.53852,
            "velocity": 0.8740157480314961
          },
          {
            "duration": 0.03205131249999482,
            "durationTicks": 30,
            "midi": 42,
            "name": "F#2",
            "ticks": 57600,
            "time": 61.53852,
            "velocity": 0.47244094488188976
          },
          {
            "duration": 0.03205131249999482,
            "durationTicks": 30,
            "midi": 82,
            "name": "A#5",
            "ticks": 57600,
            "time": 61.53852,
            "velocity": 0.5826771653543307
          },
          {
            "duration": 0.03205131249999482,
            "durationTicks": 30,
            "midi": 42,
            "name": "F#2",
            "ticks": 57840,
            "time": 61.7949305,
            "velocity": 0.5905511811023622
          },
          {
            "duration": 0.03205131249999482,
            "durationTicks": 30,
            "midi": 82,
            "name": "A#5",
            "ticks": 57840,
            "time": 61.7949305,
            "velocity": 0.5039370078740157
          },
          {
            "duration": 0.03205131250000193,
            "durationTicks": 30,
            "midi": 40,
            "name": "E2",
            "ticks": 58080,
            "time": 62.051340999999994,
            "velocity": 0.937007874015748
          },
          {
            "duration": 0.03205131250000193,
            "durationTicks": 30,
            "midi": 42,
            "name": "F#2",
            "ticks": 58080,
            "time": 62.051340999999994,
            "velocity": 0.4330708661417323
          },
          {
            "duration": 0.03205131250000193,
            "durationTicks": 30,
            "midi": 82,
            "name": "A#5",
            "ticks": 58080,
            "time": 62.051340999999994,
            "velocity": 0.5669291338582677
          },
          {
            "duration": 0.03205131250000193,
            "durationTicks": 30,
            "midi": 42,
            "name": "F#2",
            "ticks": 58320,
            "time": 62.307751499999995,
            "velocity": 0.6692913385826772
          },
          {
            "duration": 0.03205131250000193,
            "durationTicks": 30,
            "midi": 82,
            "name": "A#5",
            "ticks": 58320,
            "time": 62.307751499999995,
            "velocity": 0.5196850393700787
          },
          {
            "duration": 0.03205131250000193,
            "durationTicks": 30,
            "midi": 36,
            "name": "C2",
            "ticks": 58560,
            "time": 62.564161999999996,
            "velocity": 0.8740157480314961
          },
          {
            "duration": 0.03205131250000193,
            "durationTicks": 30,
            "midi": 42,
            "name": "F#2",
            "ticks": 58560,
            "time": 62.564161999999996,
            "velocity": 0.4094488188976378
          },
          {
            "duration": 0.03205131250000193,
            "durationTicks": 30,
            "midi": 82,
            "name": "A#5",
            "ticks": 58560,
            "time": 62.564161999999996,
            "velocity": 0.4881889763779528
          },
          {
            "duration": 0.03205131250000193,
            "durationTicks": 30,
            "midi": 42,
            "name": "F#2",
            "ticks": 58800,
            "time": 62.8205725,
            "velocity": 0.6299212598425197
          },
          {
            "duration": 0.03205131250000193,
            "durationTicks": 30,
            "midi": 82,
            "name": "A#5",
            "ticks": 58800,
            "time": 62.8205725,
            "velocity": 0.5196850393700787
          },
          {
            "duration": 0.03205131249999482,
            "durationTicks": 30,
            "midi": 40,
            "name": "E2",
            "ticks": 59040,
            "time": 63.076983,
            "velocity": 0.937007874015748
          },
          {
            "duration": 0.03205131249999482,
            "durationTicks": 30,
            "midi": 42,
            "name": "F#2",
            "ticks": 59040,
            "time": 63.076983,
            "velocity": 0.4094488188976378
          },
          {
            "duration": 0.03205131249999482,
            "durationTicks": 30,
            "midi": 82,
            "name": "A#5",
            "ticks": 59040,
            "time": 63.076983,
            "velocity": 0.5511811023622047
          },
          {
            "duration": 0.03205131249999482,
            "durationTicks": 30,
            "midi": 42,
            "name": "F#2",
            "ticks": 59280,
            "time": 63.3333935,
            "velocity": 0.6692913385826772
          },
          {
            "duration": 0.03205131249999482,
            "durationTicks": 30,
            "midi": 82,
            "name": "A#5",
            "ticks": 59280,
            "time": 63.3333935,
            "velocity": 0.5511811023622047
          },
          {
            "duration": 0.03205131250000193,
            "durationTicks": 30,
            "midi": 36,
            "name": "C2",
            "ticks": 59520,
            "time": 63.589803999999994,
            "velocity": 0.8740157480314961
          },
          {
            "duration": 0.03205131250000193,
            "durationTicks": 30,
            "midi": 42,
            "name": "F#2",
            "ticks": 59520,
            "time": 63.589803999999994,
            "velocity": 0.3779527559055118
          },
          {
            "duration": 0.03205131250000193,
            "durationTicks": 30,
            "midi": 82,
            "name": "A#5",
            "ticks": 59520,
            "time": 63.589803999999994,
            "velocity": 0.5669291338582677
          },
          {
            "duration": 0.03205131250000193,
            "durationTicks": 30,
            "midi": 42,
            "name": "F#2",
            "ticks": 59760,
            "time": 63.846214499999995,
            "velocity": 0.5905511811023622
          },
          {
            "duration": 0.03205131250000193,
            "durationTicks": 30,
            "midi": 82,
            "name": "A#5",
            "ticks": 59760,
            "time": 63.846214499999995,
            "velocity": 0.5511811023622047
          },
          {
            "duration": 0.032051312499987716,
            "durationTicks": 30,
            "midi": 40,
            "name": "E2",
            "ticks": 60000,
            "time": 64.102625,
            "velocity": 0.9291338582677166
          },
          {
            "duration": 0.032051312499987716,
            "durationTicks": 30,
            "midi": 42,
            "name": "F#2",
            "ticks": 60000,
            "time": 64.102625,
            "velocity": 0.47244094488188976
          },
          {
            "duration": 0.032051312499987716,
            "durationTicks": 30,
            "midi": 82,
            "name": "A#5",
            "ticks": 60000,
            "time": 64.102625,
            "velocity": 0.5354330708661418
          },
          {
            "duration": 0.03205131250000193,
            "durationTicks": 30,
            "midi": 42,
            "name": "F#2",
            "ticks": 60240,
            "time": 64.35903549999999,
            "velocity": 0.6299212598425197
          },
          {
            "duration": 0.03205131250000193,
            "durationTicks": 30,
            "midi": 82,
            "name": "A#5",
            "ticks": 60240,
            "time": 64.35903549999999,
            "velocity": 0.5511811023622047
          },
          {
            "duration": 0.03205131250000193,
            "durationTicks": 30,
            "midi": 36,
            "name": "C2",
            "ticks": 60480,
            "time": 64.61544599999999,
            "velocity": 0.8740157480314961
          },
          {
            "duration": 0.03205131250000193,
            "durationTicks": 30,
            "midi": 42,
            "name": "F#2",
            "ticks": 60480,
            "time": 64.61544599999999,
            "velocity": 0.49606299212598426
          },
          {
            "duration": 0.03205131250000193,
            "durationTicks": 30,
            "midi": 82,
            "name": "A#5",
            "ticks": 60480,
            "time": 64.61544599999999,
            "velocity": 0.5511811023622047
          },
          {
            "duration": 0.03205131250000193,
            "durationTicks": 30,
            "midi": 42,
            "name": "F#2",
            "ticks": 60720,
            "time": 64.87185649999999,
            "velocity": 0.5905511811023622
          },
          {
            "duration": 0.03205131250000193,
            "durationTicks": 30,
            "midi": 82,
            "name": "A#5",
            "ticks": 60720,
            "time": 64.87185649999999,
            "velocity": 0.5826771653543307
          },
          {
            "duration": 0.03205131250000193,
            "durationTicks": 30,
            "midi": 40,
            "name": "E2",
            "ticks": 60960,
            "time": 65.128267,
            "velocity": 0.937007874015748
          },
          {
            "duration": 0.03205131250000193,
            "durationTicks": 30,
            "midi": 42,
            "name": "F#2",
            "ticks": 60960,
            "time": 65.128267,
            "velocity": 0.49606299212598426
          },
          {
            "duration": 0.03205131250000193,
            "durationTicks": 30,
            "midi": 82,
            "name": "A#5",
            "ticks": 60960,
            "time": 65.128267,
            "velocity": 0.5354330708661418
          },
          {
            "duration": 0.03205131250000193,
            "durationTicks": 30,
            "midi": 42,
            "name": "F#2",
            "ticks": 61200,
            "time": 65.3846775,
            "velocity": 0.6692913385826772
          },
          {
            "duration": 0.03205131250000193,
            "durationTicks": 30,
            "midi": 82,
            "name": "A#5",
            "ticks": 61200,
            "time": 65.3846775,
            "velocity": 0.5511811023622047
          },
          {
            "duration": 0.03205131250000193,
            "durationTicks": 30,
            "midi": 36,
            "name": "C2",
            "ticks": 61440,
            "time": 65.641088,
            "velocity": 0.8740157480314961
          },
          {
            "duration": 0.03205131250000193,
            "durationTicks": 30,
            "midi": 42,
            "name": "F#2",
            "ticks": 61440,
            "time": 65.641088,
            "velocity": 0.47244094488188976
          },
          {
            "duration": 0.03205131250000193,
            "durationTicks": 30,
            "midi": 82,
            "name": "A#5",
            "ticks": 61440,
            "time": 65.641088,
            "velocity": 0.5354330708661418
          },
          {
            "duration": 0.03205131250000193,
            "durationTicks": 30,
            "midi": 42,
            "name": "F#2",
            "ticks": 61680,
            "time": 65.8974985,
            "velocity": 0.5905511811023622
          },
          {
            "duration": 0.03205131250000193,
            "durationTicks": 30,
            "midi": 82,
            "name": "A#5",
            "ticks": 61680,
            "time": 65.8974985,
            "velocity": 0.48031496062992124
          },
          {
            "duration": 0.03205131250000193,
            "durationTicks": 30,
            "midi": 40,
            "name": "E2",
            "ticks": 61920,
            "time": 66.153909,
            "velocity": 0.937007874015748
          },
          {
            "duration": 0.03205131250000193,
            "durationTicks": 30,
            "midi": 42,
            "name": "F#2",
            "ticks": 61920,
            "time": 66.153909,
            "velocity": 0.4330708661417323
          },
          {
            "duration": 0.03205131250000193,
            "durationTicks": 30,
            "midi": 82,
            "name": "A#5",
            "ticks": 61920,
            "time": 66.153909,
            "velocity": 0.48031496062992124
          },
          {
            "duration": 0.03205131250000193,
            "durationTicks": 30,
            "midi": 42,
            "name": "F#2",
            "ticks": 62160,
            "time": 66.4103195,
            "velocity": 0.6692913385826772
          },
          {
            "duration": 0.03205131250000193,
            "durationTicks": 30,
            "midi": 82,
            "name": "A#5",
            "ticks": 62160,
            "time": 66.4103195,
            "velocity": 0.44881889763779526
          },
          {
            "duration": 0.03205131250000193,
            "durationTicks": 30,
            "midi": 36,
            "name": "C2",
            "ticks": 62400,
            "time": 66.66673,
            "velocity": 0.8740157480314961
          },
          {
            "duration": 0.03205131250000193,
            "durationTicks": 30,
            "midi": 42,
            "name": "F#2",
            "ticks": 62400,
            "time": 66.66673,
            "velocity": 0.4094488188976378
          },
          {
            "duration": 0.03205131250000193,
            "durationTicks": 30,
            "midi": 82,
            "name": "A#5",
            "ticks": 62400,
            "time": 66.66673,
            "velocity": 0.5039370078740157
          },
          {
            "duration": 0.032051312499987716,
            "durationTicks": 30,
            "midi": 42,
            "name": "F#2",
            "ticks": 62640,
            "time": 66.9231405,
            "velocity": 0.6299212598425197
          },
          {
            "duration": 0.032051312499987716,
            "durationTicks": 30,
            "midi": 82,
            "name": "A#5",
            "ticks": 62640,
            "time": 66.9231405,
            "velocity": 0.41732283464566927
          },
          {
            "duration": 0.03205131250000193,
            "durationTicks": 30,
            "midi": 40,
            "name": "E2",
            "ticks": 62880,
            "time": 67.17955099999999,
            "velocity": 0.937007874015748
          },
          {
            "duration": 0.03205131250000193,
            "durationTicks": 30,
            "midi": 42,
            "name": "F#2",
            "ticks": 62880,
            "time": 67.17955099999999,
            "velocity": 0.4094488188976378
          },
          {
            "duration": 0.03205131250000193,
            "durationTicks": 30,
            "midi": 82,
            "name": "A#5",
            "ticks": 62880,
            "time": 67.17955099999999,
            "velocity": 0.5354330708661418
          },
          {
            "duration": 0.03205131250000193,
            "durationTicks": 30,
            "midi": 42,
            "name": "F#2",
            "ticks": 63120,
            "time": 67.43596149999999,
            "velocity": 0.6692913385826772
          },
          {
            "duration": 0.03205131250000193,
            "durationTicks": 30,
            "midi": 82,
            "name": "A#5",
            "ticks": 63120,
            "time": 67.43596149999999,
            "velocity": 0.5039370078740157
          },
          {
            "duration": 0.03205131250000193,
            "durationTicks": 30,
            "midi": 36,
            "name": "C2",
            "ticks": 63360,
            "time": 67.69237199999999,
            "velocity": 0.8740157480314961
          },
          {
            "duration": 0.03205131250000193,
            "durationTicks": 30,
            "midi": 42,
            "name": "F#2",
            "ticks": 63360,
            "time": 67.69237199999999,
            "velocity": 0.3779527559055118
          },
          {
            "duration": 0.03205131250000193,
            "durationTicks": 30,
            "midi": 82,
            "name": "A#5",
            "ticks": 63360,
            "time": 67.69237199999999,
            "velocity": 0.4881889763779528
          },
          {
            "duration": 0.03205131250000193,
            "durationTicks": 30,
            "midi": 42,
            "name": "F#2",
            "ticks": 63600,
            "time": 67.9487825,
            "velocity": 0.5905511811023622
          },
          {
            "duration": 0.03205131250000193,
            "durationTicks": 30,
            "midi": 82,
            "name": "A#5",
            "ticks": 63600,
            "time": 67.9487825,
            "velocity": 0.4094488188976378
          },
          {
            "duration": 0.03205131250000193,
            "durationTicks": 30,
            "midi": 40,
            "name": "E2",
            "ticks": 63840,
            "time": 68.205193,
            "velocity": 0.9291338582677166
          },
          {
            "duration": 0.03205131250000193,
            "durationTicks": 30,
            "midi": 42,
            "name": "F#2",
            "ticks": 63840,
            "time": 68.205193,
            "velocity": 0.47244094488188976
          },
          {
            "duration": 0.03205131250000193,
            "durationTicks": 30,
            "midi": 82,
            "name": "A#5",
            "ticks": 63840,
            "time": 68.205193,
            "velocity": 0.5511811023622047
          },
          {
            "duration": 0.03205131250000193,
            "durationTicks": 30,
            "midi": 42,
            "name": "F#2",
            "ticks": 64080,
            "time": 68.4616035,
            "velocity": 0.6299212598425197
          },
          {
            "duration": 0.03205131250000193,
            "durationTicks": 30,
            "midi": 82,
            "name": "A#5",
            "ticks": 64080,
            "time": 68.4616035,
            "velocity": 0.4645669291338583
          },
          {
            "duration": 0.03205131250000193,
            "durationTicks": 30,
            "midi": 36,
            "name": "C2",
            "ticks": 64320,
            "time": 68.718014,
            "velocity": 0.8740157480314961
          },
          {
            "duration": 0.03205131250000193,
            "durationTicks": 30,
            "midi": 42,
            "name": "F#2",
            "ticks": 64320,
            "time": 68.718014,
            "velocity": 0.49606299212598426
          },
          {
            "duration": 0.03205131250000193,
            "durationTicks": 30,
            "midi": 82,
            "name": "A#5",
            "ticks": 64320,
            "time": 68.718014,
            "velocity": 0.5354330708661418
          },
          {
            "duration": 0.03205131250000193,
            "durationTicks": 30,
            "midi": 42,
            "name": "F#2",
            "ticks": 64560,
            "time": 68.9744245,
            "velocity": 0.5905511811023622
          },
          {
            "duration": 0.03205131250000193,
            "durationTicks": 30,
            "midi": 82,
            "name": "A#5",
            "ticks": 64560,
            "time": 68.9744245,
            "velocity": 0.5196850393700787
          },
          {
            "duration": 0.03205131250000193,
            "durationTicks": 30,
            "midi": 40,
            "name": "E2",
            "ticks": 64800,
            "time": 69.230835,
            "velocity": 0.937007874015748
          },
          {
            "duration": 0.03205131250000193,
            "durationTicks": 30,
            "midi": 42,
            "name": "F#2",
            "ticks": 64800,
            "time": 69.230835,
            "velocity": 0.49606299212598426
          },
          {
            "duration": 0.03205131250000193,
            "durationTicks": 30,
            "midi": 82,
            "name": "A#5",
            "ticks": 64800,
            "time": 69.230835,
            "velocity": 0.5826771653543307
          },
          {
            "duration": 0.03205131250000193,
            "durationTicks": 30,
            "midi": 42,
            "name": "F#2",
            "ticks": 65040,
            "time": 69.4872455,
            "velocity": 0.6692913385826772
          },
          {
            "duration": 0.03205131250000193,
            "durationTicks": 30,
            "midi": 82,
            "name": "A#5",
            "ticks": 65040,
            "time": 69.4872455,
            "velocity": 0.4409448818897638
          },
          {
            "duration": 0.032051312499987716,
            "durationTicks": 30,
            "midi": 36,
            "name": "C2",
            "ticks": 65280,
            "time": 69.743656,
            "velocity": 0.8740157480314961
          },
          {
            "duration": 0.032051312499987716,
            "durationTicks": 30,
            "midi": 42,
            "name": "F#2",
            "ticks": 65280,
            "time": 69.743656,
            "velocity": 0.47244094488188976
          },
          {
            "duration": 0.032051312499987716,
            "durationTicks": 30,
            "midi": 82,
            "name": "A#5",
            "ticks": 65280,
            "time": 69.743656,
            "velocity": 0.5826771653543307
          },
          {
            "duration": 0.032051312499987716,
            "durationTicks": 30,
            "midi": 42,
            "name": "F#2",
            "ticks": 65520,
            "time": 70.0000665,
            "velocity": 0.5905511811023622
          },
          {
            "duration": 0.032051312499987716,
            "durationTicks": 30,
            "midi": 82,
            "name": "A#5",
            "ticks": 65520,
            "time": 70.0000665,
            "velocity": 0.5039370078740157
          },
          {
            "duration": 0.03205131250000193,
            "durationTicks": 30,
            "midi": 40,
            "name": "E2",
            "ticks": 65760,
            "time": 70.25647699999999,
            "velocity": 0.937007874015748
          },
          {
            "duration": 0.03205131250000193,
            "durationTicks": 30,
            "midi": 42,
            "name": "F#2",
            "ticks": 65760,
            "time": 70.25647699999999,
            "velocity": 0.4330708661417323
          },
          {
            "duration": 0.03205131250000193,
            "durationTicks": 30,
            "midi": 82,
            "name": "A#5",
            "ticks": 65760,
            "time": 70.25647699999999,
            "velocity": 0.5669291338582677
          },
          {
            "duration": 0.03205131250000193,
            "durationTicks": 30,
            "midi": 42,
            "name": "F#2",
            "ticks": 66000,
            "time": 70.51288749999999,
            "velocity": 0.6692913385826772
          },
          {
            "duration": 0.03205131250000193,
            "durationTicks": 30,
            "midi": 82,
            "name": "A#5",
            "ticks": 66000,
            "time": 70.51288749999999,
            "velocity": 0.5196850393700787
          },
          {
            "duration": 0.03205131250000193,
            "durationTicks": 30,
            "midi": 36,
            "name": "C2",
            "ticks": 66240,
            "time": 70.76929799999999,
            "velocity": 0.8740157480314961
          },
          {
            "duration": 0.03205131250000193,
            "durationTicks": 30,
            "midi": 42,
            "name": "F#2",
            "ticks": 66240,
            "time": 70.76929799999999,
            "velocity": 0.4094488188976378
          },
          {
            "duration": 0.03205131250000193,
            "durationTicks": 30,
            "midi": 82,
            "name": "A#5",
            "ticks": 66240,
            "time": 70.76929799999999,
            "velocity": 0.4881889763779528
          },
          {
            "duration": 0.03205131250000193,
            "durationTicks": 30,
            "midi": 42,
            "name": "F#2",
            "ticks": 66480,
            "time": 71.0257085,
            "velocity": 0.6299212598425197
          },
          {
            "duration": 0.03205131250000193,
            "durationTicks": 30,
            "midi": 82,
            "name": "A#5",
            "ticks": 66480,
            "time": 71.0257085,
            "velocity": 0.5196850393700787
          },
          {
            "duration": 0.03205131250000193,
            "durationTicks": 30,
            "midi": 40,
            "name": "E2",
            "ticks": 66720,
            "time": 71.282119,
            "velocity": 0.937007874015748
          },
          {
            "duration": 0.03205131250000193,
            "durationTicks": 30,
            "midi": 42,
            "name": "F#2",
            "ticks": 66720,
            "time": 71.282119,
            "velocity": 0.4094488188976378
          },
          {
            "duration": 0.03205131250000193,
            "durationTicks": 30,
            "midi": 82,
            "name": "A#5",
            "ticks": 66720,
            "time": 71.282119,
            "velocity": 0.5511811023622047
          },
          {
            "duration": 0.03205131250000193,
            "durationTicks": 30,
            "midi": 40,
            "name": "E2",
            "ticks": 66960,
            "time": 71.5385295,
            "velocity": 0.968503937007874
          },
          {
            "duration": 0.03205131250000193,
            "durationTicks": 30,
            "midi": 46,
            "name": "A#2",
            "ticks": 66960,
            "time": 71.5385295,
            "velocity": 0.7874015748031497
          },
          {
            "duration": 0.03205131250000193,
            "durationTicks": 30,
            "midi": 82,
            "name": "A#5",
            "ticks": 66960,
            "time": 71.5385295,
            "velocity": 0.5511811023622047
          },
          {
            "duration": 0.03205131250000193,
            "durationTicks": 30,
            "midi": 40,
            "name": "E2",
            "ticks": 67080,
            "time": 71.66673474999999,
            "velocity": 1
          },
          {
            "duration": 0.03205131250000193,
            "durationTicks": 30,
            "midi": 36,
            "name": "C2",
            "ticks": 67200,
            "time": 71.79494,
            "velocity": 0.8740157480314961
          },
          {
            "duration": 0.03205131250000193,
            "durationTicks": 30,
            "midi": 42,
            "name": "F#2",
            "ticks": 67200,
            "time": 71.79494,
            "velocity": 0.3779527559055118
          },
          {
            "duration": 0.03205131250000193,
            "durationTicks": 30,
            "midi": 82,
            "name": "A#5",
            "ticks": 67200,
            "time": 71.79494,
            "velocity": 0.5669291338582677
          },
          {
            "duration": 0.03205131250000193,
            "durationTicks": 30,
            "midi": 42,
            "name": "F#2",
            "ticks": 67440,
            "time": 72.0513505,
            "velocity": 0.5905511811023622
          },
          {
            "duration": 0.03205131250000193,
            "durationTicks": 30,
            "midi": 82,
            "name": "A#5",
            "ticks": 67440,
            "time": 72.0513505,
            "velocity": 0.5511811023622047
          },
          {
            "duration": 0.03205131250000193,
            "durationTicks": 30,
            "midi": 40,
            "name": "E2",
            "ticks": 67680,
            "time": 72.307761,
            "velocity": 0.9291338582677166
          },
          {
            "duration": 0.03205131250000193,
            "durationTicks": 30,
            "midi": 42,
            "name": "F#2",
            "ticks": 67680,
            "time": 72.307761,
            "velocity": 0.47244094488188976
          },
          {
            "duration": 0.03205131250000193,
            "durationTicks": 30,
            "midi": 82,
            "name": "A#5",
            "ticks": 67680,
            "time": 72.307761,
            "velocity": 0.5354330708661418
          },
          {
            "duration": 0.03205131250000193,
            "durationTicks": 30,
            "midi": 42,
            "name": "F#2",
            "ticks": 67920,
            "time": 72.5641715,
            "velocity": 0.6299212598425197
          },
          {
            "duration": 0.03205131250000193,
            "durationTicks": 30,
            "midi": 82,
            "name": "A#5",
            "ticks": 67920,
            "time": 72.5641715,
            "velocity": 0.5511811023622047
          },
          {
            "duration": 0.032051312499987716,
            "durationTicks": 30,
            "midi": 36,
            "name": "C2",
            "ticks": 68160,
            "time": 72.820582,
            "velocity": 0.8740157480314961
          },
          {
            "duration": 0.032051312499987716,
            "durationTicks": 30,
            "midi": 42,
            "name": "F#2",
            "ticks": 68160,
            "time": 72.820582,
            "velocity": 0.49606299212598426
          },
          {
            "duration": 0.032051312499987716,
            "durationTicks": 30,
            "midi": 82,
            "name": "A#5",
            "ticks": 68160,
            "time": 72.820582,
            "velocity": 0.5511811023622047
          },
          {
            "duration": 0.032051312499987716,
            "durationTicks": 30,
            "midi": 42,
            "name": "F#2",
            "ticks": 68400,
            "time": 73.0769925,
            "velocity": 0.5905511811023622
          },
          {
            "duration": 0.032051312499987716,
            "durationTicks": 30,
            "midi": 82,
            "name": "A#5",
            "ticks": 68400,
            "time": 73.0769925,
            "velocity": 0.5826771653543307
          },
          {
            "duration": 0.03205131250000193,
            "durationTicks": 30,
            "midi": 40,
            "name": "E2",
            "ticks": 68640,
            "time": 73.33340299999999,
            "velocity": 0.937007874015748
          },
          {
            "duration": 0.03205131250000193,
            "durationTicks": 30,
            "midi": 42,
            "name": "F#2",
            "ticks": 68640,
            "time": 73.33340299999999,
            "velocity": 0.49606299212598426
          },
          {
            "duration": 0.03205131250000193,
            "durationTicks": 30,
            "midi": 82,
            "name": "A#5",
            "ticks": 68640,
            "time": 73.33340299999999,
            "velocity": 0.5354330708661418
          },
          {
            "duration": 0.03205131250000193,
            "durationTicks": 30,
            "midi": 42,
            "name": "F#2",
            "ticks": 68880,
            "time": 73.58981349999999,
            "velocity": 0.6692913385826772
          },
          {
            "duration": 0.03205131250000193,
            "durationTicks": 30,
            "midi": 82,
            "name": "A#5",
            "ticks": 68880,
            "time": 73.58981349999999,
            "velocity": 0.5511811023622047
          },
          {
            "duration": 0.03205131250000193,
            "durationTicks": 30,
            "midi": 36,
            "name": "C2",
            "ticks": 69120,
            "time": 73.84622399999999,
            "velocity": 0.8740157480314961
          },
          {
            "duration": 0.03205131250000193,
            "durationTicks": 30,
            "midi": 42,
            "name": "F#2",
            "ticks": 69120,
            "time": 73.84622399999999,
            "velocity": 0.47244094488188976
          },
          {
            "duration": 0.03205131250000193,
            "durationTicks": 30,
            "midi": 82,
            "name": "A#5",
            "ticks": 69120,
            "time": 73.84622399999999,
            "velocity": 0.5354330708661418
          },
          {
            "duration": 0.03205131250000193,
            "durationTicks": 30,
            "midi": 42,
            "name": "F#2",
            "ticks": 69360,
            "time": 74.1026345,
            "velocity": 0.5905511811023622
          },
          {
            "duration": 0.03205131250000193,
            "durationTicks": 30,
            "midi": 82,
            "name": "A#5",
            "ticks": 69360,
            "time": 74.1026345,
            "velocity": 0.48031496062992124
          },
          {
            "duration": 0.03205131250000193,
            "durationTicks": 30,
            "midi": 40,
            "name": "E2",
            "ticks": 69600,
            "time": 74.359045,
            "velocity": 0.937007874015748
          },
          {
            "duration": 0.03205131250000193,
            "durationTicks": 30,
            "midi": 42,
            "name": "F#2",
            "ticks": 69600,
            "time": 74.359045,
            "velocity": 0.4330708661417323
          },
          {
            "duration": 0.03205131250000193,
            "durationTicks": 30,
            "midi": 82,
            "name": "A#5",
            "ticks": 69600,
            "time": 74.359045,
            "velocity": 0.48031496062992124
          },
          {
            "duration": 0.03205131250000193,
            "durationTicks": 30,
            "midi": 42,
            "name": "F#2",
            "ticks": 69840,
            "time": 74.6154555,
            "velocity": 0.6692913385826772
          },
          {
            "duration": 0.03205131250000193,
            "durationTicks": 30,
            "midi": 82,
            "name": "A#5",
            "ticks": 69840,
            "time": 74.6154555,
            "velocity": 0.44881889763779526
          },
          {
            "duration": 0.03205131250000193,
            "durationTicks": 30,
            "midi": 36,
            "name": "C2",
            "ticks": 70080,
            "time": 74.871866,
            "velocity": 0.8740157480314961
          },
          {
            "duration": 0.03205131250000193,
            "durationTicks": 30,
            "midi": 42,
            "name": "F#2",
            "ticks": 70080,
            "time": 74.871866,
            "velocity": 0.4094488188976378
          },
          {
            "duration": 0.03205131250000193,
            "durationTicks": 30,
            "midi": 82,
            "name": "A#5",
            "ticks": 70080,
            "time": 74.871866,
            "velocity": 0.5039370078740157
          },
          {
            "duration": 0.03205131250000193,
            "durationTicks": 30,
            "midi": 42,
            "name": "F#2",
            "ticks": 70320,
            "time": 75.1282765,
            "velocity": 0.6299212598425197
          },
          {
            "duration": 0.03205131250000193,
            "durationTicks": 30,
            "midi": 82,
            "name": "A#5",
            "ticks": 70320,
            "time": 75.1282765,
            "velocity": 0.41732283464566927
          },
          {
            "duration": 0.03205131250000193,
            "durationTicks": 30,
            "midi": 40,
            "name": "E2",
            "ticks": 70560,
            "time": 75.384687,
            "velocity": 0.937007874015748
          },
          {
            "duration": 0.03205131250000193,
            "durationTicks": 30,
            "midi": 42,
            "name": "F#2",
            "ticks": 70560,
            "time": 75.384687,
            "velocity": 0.4094488188976378
          },
          {
            "duration": 0.03205131250000193,
            "durationTicks": 30,
            "midi": 52,
            "name": "E3",
            "ticks": 70560,
            "time": 75.384687,
            "velocity": 0.7086614173228346
          },
          {
            "duration": 0.03205131250000193,
            "durationTicks": 30,
            "midi": 82,
            "name": "A#5",
            "ticks": 70560,
            "time": 75.384687,
            "velocity": 0.5354330708661418
          },
          {
            "duration": 0.03205131250000193,
            "durationTicks": 30,
            "midi": 46,
            "name": "A#2",
            "ticks": 70800,
            "time": 75.6410975,
            "velocity": 0.8188976377952756
          },
          {
            "duration": 0.03205131250000193,
            "durationTicks": 30,
            "midi": 82,
            "name": "A#5",
            "ticks": 70800,
            "time": 75.6410975,
            "velocity": 0.5039370078740157
          },
          {
            "duration": 0.032051312499987716,
            "durationTicks": 30,
            "midi": 36,
            "name": "C2",
            "ticks": 71040,
            "time": 75.897508,
            "velocity": 0.8740157480314961
          },
          {
            "duration": 0.032051312499987716,
            "durationTicks": 30,
            "midi": 42,
            "name": "F#2",
            "ticks": 71040,
            "time": 75.897508,
            "velocity": 0.3779527559055118
          },
          {
            "duration": 0.032051312499987716,
            "durationTicks": 30,
            "midi": 82,
            "name": "A#5",
            "ticks": 71040,
            "time": 75.897508,
            "velocity": 0.4881889763779528
          },
          {
            "duration": 0.03205131250000193,
            "durationTicks": 30,
            "midi": 42,
            "name": "F#2",
            "ticks": 71280,
            "time": 76.15391849999999,
            "velocity": 0.5905511811023622
          },
          {
            "duration": 0.03205131250000193,
            "durationTicks": 30,
            "midi": 82,
            "name": "A#5",
            "ticks": 71280,
            "time": 76.15391849999999,
            "velocity": 0.4094488188976378
          },
          {
            "duration": 0.03205131250000193,
            "durationTicks": 30,
            "midi": 40,
            "name": "E2",
            "ticks": 71520,
            "time": 76.41032899999999,
            "velocity": 0.9291338582677166
          },
          {
            "duration": 0.03205131250000193,
            "durationTicks": 30,
            "midi": 42,
            "name": "F#2",
            "ticks": 71520,
            "time": 76.41032899999999,
            "velocity": 0.47244094488188976
          },
          {
            "duration": 0.03205131250000193,
            "durationTicks": 30,
            "midi": 82,
            "name": "A#5",
            "ticks": 71520,
            "time": 76.41032899999999,
            "velocity": 0.5511811023622047
          },
          {
            "duration": 0.03205131250000193,
            "durationTicks": 30,
            "midi": 42,
            "name": "F#2",
            "ticks": 71760,
            "time": 76.66673949999999,
            "velocity": 0.6299212598425197
          },
          {
            "duration": 0.03205131250000193,
            "durationTicks": 30,
            "midi": 82,
            "name": "A#5",
            "ticks": 71760,
            "time": 76.66673949999999,
            "velocity": 0.4645669291338583
          },
          {
            "duration": 0.03205131250000193,
            "durationTicks": 30,
            "midi": 36,
            "name": "C2",
            "ticks": 72000,
            "time": 76.92314999999999,
            "velocity": 0.8740157480314961
          },
          {
            "duration": 0.03205131250000193,
            "durationTicks": 30,
            "midi": 42,
            "name": "F#2",
            "ticks": 72000,
            "time": 76.92314999999999,
            "velocity": 0.49606299212598426
          },
          {
            "duration": 0.03205131250000193,
            "durationTicks": 30,
            "midi": 82,
            "name": "A#5",
            "ticks": 72000,
            "time": 76.92314999999999,
            "velocity": 0.5354330708661418
          },
          {
            "duration": 0.03205131250000193,
            "durationTicks": 30,
            "midi": 42,
            "name": "F#2",
            "ticks": 72240,
            "time": 77.1795605,
            "velocity": 0.5905511811023622
          },
          {
            "duration": 0.03205131250000193,
            "durationTicks": 30,
            "midi": 82,
            "name": "A#5",
            "ticks": 72240,
            "time": 77.1795605,
            "velocity": 0.5196850393700787
          },
          {
            "duration": 0.03205131250000193,
            "durationTicks": 30,
            "midi": 40,
            "name": "E2",
            "ticks": 72480,
            "time": 77.435971,
            "velocity": 0.937007874015748
          },
          {
            "duration": 0.03205131250000193,
            "durationTicks": 30,
            "midi": 42,
            "name": "F#2",
            "ticks": 72480,
            "time": 77.435971,
            "velocity": 0.49606299212598426
          },
          {
            "duration": 0.03205131250000193,
            "durationTicks": 30,
            "midi": 82,
            "name": "A#5",
            "ticks": 72480,
            "time": 77.435971,
            "velocity": 0.5826771653543307
          },
          {
            "duration": 0.03205131250000193,
            "durationTicks": 30,
            "midi": 42,
            "name": "F#2",
            "ticks": 72720,
            "time": 77.6923815,
            "velocity": 0.6692913385826772
          },
          {
            "duration": 0.03205131250000193,
            "durationTicks": 30,
            "midi": 82,
            "name": "A#5",
            "ticks": 72720,
            "time": 77.6923815,
            "velocity": 0.4409448818897638
          },
          {
            "duration": 0.03205131250000193,
            "durationTicks": 30,
            "midi": 36,
            "name": "C2",
            "ticks": 72960,
            "time": 77.948792,
            "velocity": 0.8740157480314961
          },
          {
            "duration": 0.03205131250000193,
            "durationTicks": 30,
            "midi": 42,
            "name": "F#2",
            "ticks": 72960,
            "time": 77.948792,
            "velocity": 0.47244094488188976
          },
          {
            "duration": 0.03205131250000193,
            "durationTicks": 30,
            "midi": 82,
            "name": "A#5",
            "ticks": 72960,
            "time": 77.948792,
            "velocity": 0.5826771653543307
          },
          {
            "duration": 0.03205131250000193,
            "durationTicks": 30,
            "midi": 42,
            "name": "F#2",
            "ticks": 73200,
            "time": 78.2052025,
            "velocity": 0.5905511811023622
          },
          {
            "duration": 0.03205131250000193,
            "durationTicks": 30,
            "midi": 82,
            "name": "A#5",
            "ticks": 73200,
            "time": 78.2052025,
            "velocity": 0.5039370078740157
          },
          {
            "duration": 0.03205131250000193,
            "durationTicks": 30,
            "midi": 40,
            "name": "E2",
            "ticks": 73440,
            "time": 78.461613,
            "velocity": 0.937007874015748
          },
          {
            "duration": 0.03205131250000193,
            "durationTicks": 30,
            "midi": 42,
            "name": "F#2",
            "ticks": 73440,
            "time": 78.461613,
            "velocity": 0.4330708661417323
          },
          {
            "duration": 0.03205131250000193,
            "durationTicks": 30,
            "midi": 82,
            "name": "A#5",
            "ticks": 73440,
            "time": 78.461613,
            "velocity": 0.5669291338582677
          },
          {
            "duration": 0.032051312499987716,
            "durationTicks": 30,
            "midi": 42,
            "name": "F#2",
            "ticks": 73680,
            "time": 78.7180235,
            "velocity": 0.6692913385826772
          },
          {
            "duration": 0.032051312499987716,
            "durationTicks": 30,
            "midi": 82,
            "name": "A#5",
            "ticks": 73680,
            "time": 78.7180235,
            "velocity": 0.5196850393700787
          },
          {
            "duration": 0.032051312499987716,
            "durationTicks": 30,
            "midi": 36,
            "name": "C2",
            "ticks": 73920,
            "time": 78.974434,
            "velocity": 0.8740157480314961
          },
          {
            "duration": 0.032051312499987716,
            "durationTicks": 30,
            "midi": 42,
            "name": "F#2",
            "ticks": 73920,
            "time": 78.974434,
            "velocity": 0.4094488188976378
          },
          {
            "duration": 0.032051312499987716,
            "durationTicks": 30,
            "midi": 82,
            "name": "A#5",
            "ticks": 73920,
            "time": 78.974434,
            "velocity": 0.4881889763779528
          },
          {
            "duration": 0.03205131250000193,
            "durationTicks": 30,
            "midi": 42,
            "name": "F#2",
            "ticks": 74160,
            "time": 79.23084449999999,
            "velocity": 0.6299212598425197
          },
          {
            "duration": 0.03205131250000193,
            "durationTicks": 30,
            "midi": 82,
            "name": "A#5",
            "ticks": 74160,
            "time": 79.23084449999999,
            "velocity": 0.5196850393700787
          },
          {
            "duration": 0.03205131250000193,
            "durationTicks": 30,
            "midi": 40,
            "name": "E2",
            "ticks": 74400,
            "time": 79.48725499999999,
            "velocity": 0.937007874015748
          },
          {
            "duration": 0.03205131250000193,
            "durationTicks": 30,
            "midi": 42,
            "name": "F#2",
            "ticks": 74400,
            "time": 79.48725499999999,
            "velocity": 0.4094488188976378
          },
          {
            "duration": 0.03205131250000193,
            "durationTicks": 30,
            "midi": 52,
            "name": "E3",
            "ticks": 74400,
            "time": 79.48725499999999,
            "velocity": 0.7086614173228346
          },
          {
            "duration": 0.03205131250000193,
            "durationTicks": 30,
            "midi": 82,
            "name": "A#5",
            "ticks": 74400,
            "time": 79.48725499999999,
            "velocity": 0.5511811023622047
          },
          {
            "duration": 0.03205131250000193,
            "durationTicks": 30,
            "midi": 46,
            "name": "A#2",
            "ticks": 74640,
            "time": 79.74366549999999,
            "velocity": 0.8582677165354331
          },
          {
            "duration": 0.03205131250000193,
            "durationTicks": 30,
            "midi": 82,
            "name": "A#5",
            "ticks": 74640,
            "time": 79.74366549999999,
            "velocity": 0.5511811023622047
          },
          {
            "duration": 0.03205131250000193,
            "durationTicks": 30,
            "midi": 36,
            "name": "C2",
            "ticks": 74880,
            "time": 80.00007599999999,
            "velocity": 0.8740157480314961
          },
          {
            "duration": 0.03205131250000193,
            "durationTicks": 30,
            "midi": 42,
            "name": "F#2",
            "ticks": 74880,
            "time": 80.00007599999999,
            "velocity": 0.3779527559055118
          },
          {
            "duration": 0.03205131250000193,
            "durationTicks": 30,
            "midi": 82,
            "name": "A#5",
            "ticks": 74880,
            "time": 80.00007599999999,
            "velocity": 0.5669291338582677
          },
          {
            "duration": 0.03205131250000193,
            "durationTicks": 30,
            "midi": 42,
            "name": "F#2",
            "ticks": 75120,
            "time": 80.2564865,
            "velocity": 0.5905511811023622
          },
          {
            "duration": 0.03205131250000193,
            "durationTicks": 30,
            "midi": 82,
            "name": "A#5",
            "ticks": 75120,
            "time": 80.2564865,
            "velocity": 0.5511811023622047
          },
          {
            "duration": 0.03205131250000193,
            "durationTicks": 30,
            "midi": 40,
            "name": "E2",
            "ticks": 75360,
            "time": 80.512897,
            "velocity": 0.9291338582677166
          },
          {
            "duration": 0.03205131250000193,
            "durationTicks": 30,
            "midi": 42,
            "name": "F#2",
            "ticks": 75360,
            "time": 80.512897,
            "velocity": 0.47244094488188976
          },
          {
            "duration": 0.03205131250000193,
            "durationTicks": 30,
            "midi": 82,
            "name": "A#5",
            "ticks": 75360,
            "time": 80.512897,
            "velocity": 0.5354330708661418
          },
          {
            "duration": 0.03205131250000193,
            "durationTicks": 30,
            "midi": 42,
            "name": "F#2",
            "ticks": 75600,
            "time": 80.7693075,
            "velocity": 0.6299212598425197
          },
          {
            "duration": 0.03205131250000193,
            "durationTicks": 30,
            "midi": 82,
            "name": "A#5",
            "ticks": 75600,
            "time": 80.7693075,
            "velocity": 0.5511811023622047
          },
          {
            "duration": 0.03205131250000193,
            "durationTicks": 30,
            "midi": 36,
            "name": "C2",
            "ticks": 75840,
            "time": 81.025718,
            "velocity": 0.8740157480314961
          },
          {
            "duration": 0.03205131250000193,
            "durationTicks": 30,
            "midi": 42,
            "name": "F#2",
            "ticks": 75840,
            "time": 81.025718,
            "velocity": 0.49606299212598426
          },
          {
            "duration": 0.03205131250000193,
            "durationTicks": 30,
            "midi": 82,
            "name": "A#5",
            "ticks": 75840,
            "time": 81.025718,
            "velocity": 0.5511811023622047
          },
          {
            "duration": 0.03205131250000193,
            "durationTicks": 30,
            "midi": 42,
            "name": "F#2",
            "ticks": 76080,
            "time": 81.2821285,
            "velocity": 0.5905511811023622
          },
          {
            "duration": 0.03205131250000193,
            "durationTicks": 30,
            "midi": 82,
            "name": "A#5",
            "ticks": 76080,
            "time": 81.2821285,
            "velocity": 0.5826771653543307
          },
          {
            "duration": 0.03205131250000193,
            "durationTicks": 30,
            "midi": 40,
            "name": "E2",
            "ticks": 76320,
            "time": 81.538539,
            "velocity": 0.937007874015748
          },
          {
            "duration": 0.03205131250000193,
            "durationTicks": 30,
            "midi": 42,
            "name": "F#2",
            "ticks": 76320,
            "time": 81.538539,
            "velocity": 0.49606299212598426
          },
          {
            "duration": 0.03205131250000193,
            "durationTicks": 30,
            "midi": 82,
            "name": "A#5",
            "ticks": 76320,
            "time": 81.538539,
            "velocity": 0.5354330708661418
          },
          {
            "duration": 0.032051312499987716,
            "durationTicks": 30,
            "midi": 42,
            "name": "F#2",
            "ticks": 76560,
            "time": 81.7949495,
            "velocity": 0.6692913385826772
          },
          {
            "duration": 0.032051312499987716,
            "durationTicks": 30,
            "midi": 82,
            "name": "A#5",
            "ticks": 76560,
            "time": 81.7949495,
            "velocity": 0.5511811023622047
          },
          {
            "duration": 0.03205131250000193,
            "durationTicks": 30,
            "midi": 36,
            "name": "C2",
            "ticks": 76800,
            "time": 82.05135999999999,
            "velocity": 0.8740157480314961
          },
          {
            "duration": 0.03205131250000193,
            "durationTicks": 30,
            "midi": 42,
            "name": "F#2",
            "ticks": 76800,
            "time": 82.05135999999999,
            "velocity": 0.47244094488188976
          },
          {
            "duration": 0.03205131250000193,
            "durationTicks": 30,
            "midi": 82,
            "name": "A#5",
            "ticks": 76800,
            "time": 82.05135999999999,
            "velocity": 0.5354330708661418
          },
          {
            "duration": 0.03205131250000193,
            "durationTicks": 30,
            "midi": 42,
            "name": "F#2",
            "ticks": 77040,
            "time": 82.30777049999999,
            "velocity": 0.5905511811023622
          },
          {
            "duration": 0.03205131250000193,
            "durationTicks": 30,
            "midi": 82,
            "name": "A#5",
            "ticks": 77040,
            "time": 82.30777049999999,
            "velocity": 0.48031496062992124
          },
          {
            "duration": 0.03205131250000193,
            "durationTicks": 30,
            "midi": 40,
            "name": "E2",
            "ticks": 77280,
            "time": 82.56418099999999,
            "velocity": 0.937007874015748
          },
          {
            "duration": 0.03205131250000193,
            "durationTicks": 30,
            "midi": 42,
            "name": "F#2",
            "ticks": 77280,
            "time": 82.56418099999999,
            "velocity": 0.4330708661417323
          },
          {
            "duration": 0.03205131250000193,
            "durationTicks": 30,
            "midi": 82,
            "name": "A#5",
            "ticks": 77280,
            "time": 82.56418099999999,
            "velocity": 0.48031496062992124
          },
          {
            "duration": 0.03205131250000193,
            "durationTicks": 30,
            "midi": 42,
            "name": "F#2",
            "ticks": 77520,
            "time": 82.82059149999999,
            "velocity": 0.6692913385826772
          },
          {
            "duration": 0.03205131250000193,
            "durationTicks": 30,
            "midi": 82,
            "name": "A#5",
            "ticks": 77520,
            "time": 82.82059149999999,
            "velocity": 0.44881889763779526
          },
          {
            "duration": 0.03205131250000193,
            "durationTicks": 30,
            "midi": 36,
            "name": "C2",
            "ticks": 77760,
            "time": 83.077002,
            "velocity": 0.8740157480314961
          },
          {
            "duration": 0.03205131250000193,
            "durationTicks": 30,
            "midi": 42,
            "name": "F#2",
            "ticks": 77760,
            "time": 83.077002,
            "velocity": 0.4094488188976378
          },
          {
            "duration": 0.03205131250000193,
            "durationTicks": 30,
            "midi": 82,
            "name": "A#5",
            "ticks": 77760,
            "time": 83.077002,
            "velocity": 0.5039370078740157
          },
          {
            "duration": 0.03205131250000193,
            "durationTicks": 30,
            "midi": 42,
            "name": "F#2",
            "ticks": 78000,
            "time": 83.3334125,
            "velocity": 0.6299212598425197
          },
          {
            "duration": 0.03205131250000193,
            "durationTicks": 30,
            "midi": 82,
            "name": "A#5",
            "ticks": 78000,
            "time": 83.3334125,
            "velocity": 0.41732283464566927
          },
          {
            "duration": 0.03205131250000193,
            "durationTicks": 30,
            "midi": 40,
            "name": "E2",
            "ticks": 78240,
            "time": 83.589823,
            "velocity": 0.937007874015748
          },
          {
            "duration": 0.03205131250000193,
            "durationTicks": 30,
            "midi": 42,
            "name": "F#2",
            "ticks": 78240,
            "time": 83.589823,
            "velocity": 0.4094488188976378
          },
          {
            "duration": 0.03205131250000193,
            "durationTicks": 30,
            "midi": 52,
            "name": "E3",
            "ticks": 78240,
            "time": 83.589823,
            "velocity": 0.7086614173228346
          },
          {
            "duration": 0.03205131250000193,
            "durationTicks": 30,
            "midi": 82,
            "name": "A#5",
            "ticks": 78240,
            "time": 83.589823,
            "velocity": 0.5354330708661418
          },
          {
            "duration": 0.03205131250000193,
            "durationTicks": 30,
            "midi": 46,
            "name": "A#2",
            "ticks": 78480,
            "time": 83.8462335,
            "velocity": 0.84251968503937
          },
          {
            "duration": 0.03205131250000193,
            "durationTicks": 30,
            "midi": 82,
            "name": "A#5",
            "ticks": 78480,
            "time": 83.8462335,
            "velocity": 0.5039370078740157
          },
          {
            "duration": 0.03205131250000193,
            "durationTicks": 30,
            "midi": 36,
            "name": "C2",
            "ticks": 78720,
            "time": 84.102644,
            "velocity": 0.8740157480314961
          },
          {
            "duration": 0.03205131250000193,
            "durationTicks": 30,
            "midi": 42,
            "name": "F#2",
            "ticks": 78720,
            "time": 84.102644,
            "velocity": 0.33070866141732286
          },
          {
            "duration": 0.03205131250000193,
            "durationTicks": 30,
            "midi": 82,
            "name": "A#5",
            "ticks": 78720,
            "time": 84.102644,
            "velocity": 0.4881889763779528
          },
          {
            "duration": 0.03205131250000193,
            "durationTicks": 30,
            "midi": 42,
            "name": "F#2",
            "ticks": 78960,
            "time": 84.3590545,
            "velocity": 0.31496062992125984
          },
          {
            "duration": 0.03205131250000193,
            "durationTicks": 30,
            "midi": 82,
            "name": "A#5",
            "ticks": 78960,
            "time": 84.3590545,
            "velocity": 0.4094488188976378
          },
          {
            "duration": 0.03205131250000193,
            "durationTicks": 30,
            "midi": 40,
            "name": "E2",
            "ticks": 79200,
            "time": 84.615465,
            "velocity": 0.9291338582677166
          },
          {
            "duration": 0.03205131250000193,
            "durationTicks": 30,
            "midi": 42,
            "name": "F#2",
            "ticks": 79200,
            "time": 84.615465,
            "velocity": 0.5118110236220472
          },
          {
            "duration": 0.03205131250000193,
            "durationTicks": 30,
            "midi": 82,
            "name": "A#5",
            "ticks": 79200,
            "time": 84.615465,
            "velocity": 0.5511811023622047
          },
          {
            "duration": 0.032051312499987716,
            "durationTicks": 30,
            "midi": 46,
            "name": "A#2",
            "ticks": 79440,
            "time": 84.8718755,
            "velocity": 0.7480314960629921
          },
          {
            "duration": 0.032051312499987716,
            "durationTicks": 30,
            "midi": 82,
            "name": "A#5",
            "ticks": 79440,
            "time": 84.8718755,
            "velocity": 0.4645669291338583
          },
          {
            "duration": 0.03205131250000193,
            "durationTicks": 30,
            "midi": 36,
            "name": "C2",
            "ticks": 79680,
            "time": 85.12828599999999,
            "velocity": 0.8740157480314961
          },
          {
            "duration": 0.03205131250000193,
            "durationTicks": 30,
            "midi": 42,
            "name": "F#2",
            "ticks": 79680,
            "time": 85.12828599999999,
            "velocity": 0.5354330708661418
          },
          {
            "duration": 0.03205131250000193,
            "durationTicks": 30,
            "midi": 82,
            "name": "A#5",
            "ticks": 79680,
            "time": 85.12828599999999,
            "velocity": 0.5354330708661418
          },
          {
            "duration": 0.03205131250000193,
            "durationTicks": 30,
            "midi": 42,
            "name": "F#2",
            "ticks": 79920,
            "time": 85.38469649999999,
            "velocity": 0.4330708661417323
          },
          {
            "duration": 0.03205131250000193,
            "durationTicks": 30,
            "midi": 82,
            "name": "A#5",
            "ticks": 79920,
            "time": 85.38469649999999,
            "velocity": 0.5196850393700787
          },
          {
            "duration": 0.03205131250000193,
            "durationTicks": 30,
            "midi": 40,
            "name": "E2",
            "ticks": 80160,
            "time": 85.64110699999999,
            "velocity": 0.937007874015748
          },
          {
            "duration": 0.03205131250000193,
            "durationTicks": 30,
            "midi": 42,
            "name": "F#2",
            "ticks": 80160,
            "time": 85.64110699999999,
            "velocity": 0.5118110236220472
          },
          {
            "duration": 0.03205131250000193,
            "durationTicks": 30,
            "midi": 82,
            "name": "A#5",
            "ticks": 80160,
            "time": 85.64110699999999,
            "velocity": 0.5826771653543307
          },
          {
            "duration": 0.03205131250000193,
            "durationTicks": 30,
            "midi": 46,
            "name": "A#2",
            "ticks": 80400,
            "time": 85.89751749999999,
            "velocity": 0.8267716535433071
          },
          {
            "duration": 0.03205131250000193,
            "durationTicks": 30,
            "midi": 82,
            "name": "A#5",
            "ticks": 80400,
            "time": 85.89751749999999,
            "velocity": 0.4409448818897638
          },
          {
            "duration": 0.03205131250000193,
            "durationTicks": 30,
            "midi": 36,
            "name": "C2",
            "ticks": 80640,
            "time": 86.153928,
            "velocity": 0.8740157480314961
          },
          {
            "duration": 0.03205131250000193,
            "durationTicks": 30,
            "midi": 42,
            "name": "F#2",
            "ticks": 80640,
            "time": 86.153928,
            "velocity": 0.5354330708661418
          },
          {
            "duration": 0.03205131250000193,
            "durationTicks": 30,
            "midi": 82,
            "name": "A#5",
            "ticks": 80640,
            "time": 86.153928,
            "velocity": 0.5826771653543307
          },
          {
            "duration": 0.03205131250000193,
            "durationTicks": 30,
            "midi": 42,
            "name": "F#2",
            "ticks": 80880,
            "time": 86.4103385,
            "velocity": 0.41732283464566927
          },
          {
            "duration": 0.03205131250000193,
            "durationTicks": 30,
            "midi": 82,
            "name": "A#5",
            "ticks": 80880,
            "time": 86.4103385,
            "velocity": 0.5039370078740157
          },
          {
            "duration": 0.03205131250000193,
            "durationTicks": 30,
            "midi": 40,
            "name": "E2",
            "ticks": 81120,
            "time": 86.666749,
            "velocity": 0.937007874015748
          },
          {
            "duration": 0.03205131250000193,
            "durationTicks": 30,
            "midi": 42,
            "name": "F#2",
            "ticks": 81120,
            "time": 86.666749,
            "velocity": 0.5118110236220472
          },
          {
            "duration": 0.03205131250000193,
            "durationTicks": 30,
            "midi": 82,
            "name": "A#5",
            "ticks": 81120,
            "time": 86.666749,
            "velocity": 0.5669291338582677
          },
          {
            "duration": 0.03205131250000193,
            "durationTicks": 30,
            "midi": 46,
            "name": "A#2",
            "ticks": 81360,
            "time": 86.9231595,
            "velocity": 0.7874015748031497
          },
          {
            "duration": 0.03205131250000193,
            "durationTicks": 30,
            "midi": 82,
            "name": "A#5",
            "ticks": 81360,
            "time": 86.9231595,
            "velocity": 0.5196850393700787
          },
          {
            "duration": 0.03205131250000193,
            "durationTicks": 30,
            "midi": 36,
            "name": "C2",
            "ticks": 81600,
            "time": 87.17957,
            "velocity": 0.8740157480314961
          },
          {
            "duration": 0.03205131250000193,
            "durationTicks": 30,
            "midi": 42,
            "name": "F#2",
            "ticks": 81600,
            "time": 87.17957,
            "velocity": 0.5354330708661418
          },
          {
            "duration": 0.03205131250000193,
            "durationTicks": 30,
            "midi": 82,
            "name": "A#5",
            "ticks": 81600,
            "time": 87.17957,
            "velocity": 0.4881889763779528
          },
          {
            "duration": 0.03205131250000193,
            "durationTicks": 30,
            "midi": 42,
            "name": "F#2",
            "ticks": 81840,
            "time": 87.4359805,
            "velocity": 0.4330708661417323
          },
          {
            "duration": 0.03205131250000193,
            "durationTicks": 30,
            "midi": 82,
            "name": "A#5",
            "ticks": 81840,
            "time": 87.4359805,
            "velocity": 0.5196850393700787
          },
          {
            "duration": 0.032051312499987716,
            "durationTicks": 30,
            "midi": 40,
            "name": "E2",
            "ticks": 82080,
            "time": 87.692391,
            "velocity": 0.937007874015748
          },
          {
            "duration": 0.032051312499987716,
            "durationTicks": 30,
            "midi": 42,
            "name": "F#2",
            "ticks": 82080,
            "time": 87.692391,
            "velocity": 0.4881889763779528
          },
          {
            "duration": 0.032051312499987716,
            "durationTicks": 30,
            "midi": 52,
            "name": "E3",
            "ticks": 82080,
            "time": 87.692391,
            "velocity": 0.7086614173228346
          },
          {
            "duration": 0.032051312499987716,
            "durationTicks": 30,
            "midi": 82,
            "name": "A#5",
            "ticks": 82080,
            "time": 87.692391,
            "velocity": 0.5511811023622047
          },
          {
            "duration": 0.032051312499987716,
            "durationTicks": 30,
            "midi": 46,
            "name": "A#2",
            "ticks": 82320,
            "time": 87.9488015,
            "velocity": 0.7874015748031497
          },
          {
            "duration": 0.032051312499987716,
            "durationTicks": 30,
            "midi": 82,
            "name": "A#5",
            "ticks": 82320,
            "time": 87.9488015,
            "velocity": 0.5511811023622047
          },
          {
            "duration": 0.03205131250000193,
            "durationTicks": 30,
            "midi": 36,
            "name": "C2",
            "ticks": 82560,
            "time": 88.20521199999999,
            "velocity": 0.8740157480314961
          },
          {
            "duration": 0.03205131250000193,
            "durationTicks": 30,
            "midi": 42,
            "name": "F#2",
            "ticks": 82560,
            "time": 88.20521199999999,
            "velocity": 0.3779527559055118
          },
          {
            "duration": 0.13675226666667584,
            "durationTicks": 128,
            "midi": 57,
            "name": "A3",
            "ticks": 82560,
            "time": 88.20521199999999,
            "velocity": 0.6377952755905512
          },
          {
            "duration": 0.03205131250000193,
            "durationTicks": 30,
            "midi": 82,
            "name": "A#5",
            "ticks": 82560,
            "time": 88.20521199999999,
            "velocity": 0.5669291338582677
          },
          {
            "duration": 0.03205131250000193,
            "durationTicks": 30,
            "midi": 42,
            "name": "F#2",
            "ticks": 82800,
            "time": 88.46162249999999,
            "velocity": 0.5905511811023622
          },
          {
            "duration": 0.03205131250000193,
            "durationTicks": 30,
            "midi": 82,
            "name": "A#5",
            "ticks": 82800,
            "time": 88.46162249999999,
            "velocity": 0.5511811023622047
          },
          {
            "duration": 0.03205131250000193,
            "durationTicks": 30,
            "midi": 39,
            "name": "D#2",
            "ticks": 83040,
            "time": 88.71803299999999,
            "velocity": 0.9133858267716536
          },
          {
            "duration": 0.03205131250000193,
            "durationTicks": 30,
            "midi": 40,
            "name": "E2",
            "ticks": 83040,
            "time": 88.71803299999999,
            "velocity": 0.9291338582677166
          },
          {
            "duration": 0.03205131250000193,
            "durationTicks": 30,
            "midi": 42,
            "name": "F#2",
            "ticks": 83040,
            "time": 88.71803299999999,
            "velocity": 0.47244094488188976
          },
          {
            "duration": 0.03205131250000193,
            "durationTicks": 30,
            "midi": 82,
            "name": "A#5",
            "ticks": 83040,
            "time": 88.71803299999999,
            "velocity": 0.5354330708661418
          },
          {
            "duration": 0.03205131250000193,
            "durationTicks": 30,
            "midi": 42,
            "name": "F#2",
            "ticks": 83280,
            "time": 88.97444349999999,
            "velocity": 0.6299212598425197
          },
          {
            "duration": 0.03205131250000193,
            "durationTicks": 30,
            "midi": 82,
            "name": "A#5",
            "ticks": 83280,
            "time": 88.97444349999999,
            "velocity": 0.5511811023622047
          },
          {
            "duration": 0.03205131250000193,
            "durationTicks": 30,
            "midi": 36,
            "name": "C2",
            "ticks": 83520,
            "time": 89.230854,
            "velocity": 0.8740157480314961
          },
          {
            "duration": 0.03205131250000193,
            "durationTicks": 30,
            "midi": 42,
            "name": "F#2",
            "ticks": 83520,
            "time": 89.230854,
            "velocity": 0.49606299212598426
          },
          {
            "duration": 0.03205131250000193,
            "durationTicks": 30,
            "midi": 82,
            "name": "A#5",
            "ticks": 83520,
            "time": 89.230854,
            "velocity": 0.5511811023622047
          },
          {
            "duration": 0.03205131250000193,
            "durationTicks": 30,
            "midi": 42,
            "name": "F#2",
            "ticks": 83760,
            "time": 89.4872645,
            "velocity": 0.5905511811023622
          },
          {
            "duration": 0.03205131250000193,
            "durationTicks": 30,
            "midi": 82,
            "name": "A#5",
            "ticks": 83760,
            "time": 89.4872645,
            "velocity": 0.5826771653543307
          },
          {
            "duration": 0.03205131250000193,
            "durationTicks": 30,
            "midi": 39,
            "name": "D#2",
            "ticks": 84000,
            "time": 89.743675,
            "velocity": 0.9133858267716536
          },
          {
            "duration": 0.03205131250000193,
            "durationTicks": 30,
            "midi": 40,
            "name": "E2",
            "ticks": 84000,
            "time": 89.743675,
            "velocity": 0.937007874015748
          },
          {
            "duration": 0.03205131250000193,
            "durationTicks": 30,
            "midi": 42,
            "name": "F#2",
            "ticks": 84000,
            "time": 89.743675,
            "velocity": 0.49606299212598426
          },
          {
            "duration": 0.03205131250000193,
            "durationTicks": 30,
            "midi": 82,
            "name": "A#5",
            "ticks": 84000,
            "time": 89.743675,
            "velocity": 0.5354330708661418
          },
          {
            "duration": 0.03205131250000193,
            "durationTicks": 30,
            "midi": 42,
            "name": "F#2",
            "ticks": 84240,
            "time": 90.0000855,
            "velocity": 0.6692913385826772
          },
          {
            "duration": 0.03205131250000193,
            "durationTicks": 30,
            "midi": 82,
            "name": "A#5",
            "ticks": 84240,
            "time": 90.0000855,
            "velocity": 0.5511811023622047
          },
          {
            "duration": 0.03205131250000193,
            "durationTicks": 30,
            "midi": 36,
            "name": "C2",
            "ticks": 84480,
            "time": 90.256496,
            "velocity": 0.8740157480314961
          },
          {
            "duration": 0.03205131250000193,
            "durationTicks": 30,
            "midi": 42,
            "name": "F#2",
            "ticks": 84480,
            "time": 90.256496,
            "velocity": 0.47244094488188976
          },
          {
            "duration": 0.03205131250000193,
            "durationTicks": 30,
            "midi": 82,
            "name": "A#5",
            "ticks": 84480,
            "time": 90.256496,
            "velocity": 0.5354330708661418
          },
          {
            "duration": 0.03205131250000193,
            "durationTicks": 30,
            "midi": 42,
            "name": "F#2",
            "ticks": 84720,
            "time": 90.5129065,
            "velocity": 0.5905511811023622
          },
          {
            "duration": 0.03205131250000193,
            "durationTicks": 30,
            "midi": 82,
            "name": "A#5",
            "ticks": 84720,
            "time": 90.5129065,
            "velocity": 0.48031496062992124
          },
          {
            "duration": 0.032051312499987716,
            "durationTicks": 30,
            "midi": 39,
            "name": "D#2",
            "ticks": 84960,
            "time": 90.769317,
            "velocity": 0.9133858267716536
          },
          {
            "duration": 0.032051312499987716,
            "durationTicks": 30,
            "midi": 40,
            "name": "E2",
            "ticks": 84960,
            "time": 90.769317,
            "velocity": 0.937007874015748
          },
          {
            "duration": 0.032051312499987716,
            "durationTicks": 30,
            "midi": 42,
            "name": "F#2",
            "ticks": 84960,
            "time": 90.769317,
            "velocity": 0.4330708661417323
          },
          {
            "duration": 0.032051312499987716,
            "durationTicks": 30,
            "midi": 82,
            "name": "A#5",
            "ticks": 84960,
            "time": 90.769317,
            "velocity": 0.48031496062992124
          },
          {
            "duration": 0.03205131250000193,
            "durationTicks": 30,
            "midi": 42,
            "name": "F#2",
            "ticks": 85200,
            "time": 91.02572749999999,
            "velocity": 0.6692913385826772
          },
          {
            "duration": 0.03205131250000193,
            "durationTicks": 30,
            "midi": 82,
            "name": "A#5",
            "ticks": 85200,
            "time": 91.02572749999999,
            "velocity": 0.44881889763779526
          },
          {
            "duration": 0.03205131250000193,
            "durationTicks": 30,
            "midi": 36,
            "name": "C2",
            "ticks": 85440,
            "time": 91.28213799999999,
            "velocity": 0.8740157480314961
          },
          {
            "duration": 0.03205131250000193,
            "durationTicks": 30,
            "midi": 42,
            "name": "F#2",
            "ticks": 85440,
            "time": 91.28213799999999,
            "velocity": 0.4094488188976378
          },
          {
            "duration": 0.03205131250000193,
            "durationTicks": 30,
            "midi": 82,
            "name": "A#5",
            "ticks": 85440,
            "time": 91.28213799999999,
            "velocity": 0.5039370078740157
          },
          {
            "duration": 0.03205131250000193,
            "durationTicks": 30,
            "midi": 42,
            "name": "F#2",
            "ticks": 85680,
            "time": 91.53854849999999,
            "velocity": 0.6299212598425197
          },
          {
            "duration": 0.03205131250000193,
            "durationTicks": 30,
            "midi": 82,
            "name": "A#5",
            "ticks": 85680,
            "time": 91.53854849999999,
            "velocity": 0.41732283464566927
          },
          {
            "duration": 0.03205131250000193,
            "durationTicks": 30,
            "midi": 45,
            "name": "A2",
            "ticks": 85800,
            "time": 91.66675375,
            "velocity": 0.8110236220472441
          },
          {
            "duration": 0.03205131250000193,
            "durationTicks": 30,
            "midi": 39,
            "name": "D#2",
            "ticks": 85920,
            "time": 91.79495899999999,
            "velocity": 0.9133858267716536
          },
          {
            "duration": 0.03205131250000193,
            "durationTicks": 30,
            "midi": 40,
            "name": "E2",
            "ticks": 85920,
            "time": 91.79495899999999,
            "velocity": 0.937007874015748
          },
          {
            "duration": 0.03205131250000193,
            "durationTicks": 30,
            "midi": 42,
            "name": "F#2",
            "ticks": 85920,
            "time": 91.79495899999999,
            "velocity": 0.4094488188976378
          },
          {
            "duration": 0.03205131250000193,
            "durationTicks": 30,
            "midi": 43,
            "name": "G2",
            "ticks": 85920,
            "time": 91.79495899999999,
            "velocity": 0.8582677165354331
          },
          {
            "duration": 0.03205131250000193,
            "durationTicks": 30,
            "midi": 82,
            "name": "A#5",
            "ticks": 85920,
            "time": 91.79495899999999,
            "velocity": 0.5354330708661418
          },
          {
            "duration": 0.03205131250000193,
            "durationTicks": 30,
            "midi": 42,
            "name": "F#2",
            "ticks": 86160,
            "time": 92.05136949999999,
            "velocity": 0.6692913385826772
          },
          {
            "duration": 0.03205131250000193,
            "durationTicks": 30,
            "midi": 82,
            "name": "A#5",
            "ticks": 86160,
            "time": 92.05136949999999,
            "velocity": 0.5669291338582677
          },
          {
            "duration": 0.032051312499987716,
            "durationTicks": 30,
            "midi": 82,
            "name": "A#5",
            "ticks": 86280,
            "time": 92.17957475,
            "velocity": 0.5905511811023622
          },
          {
            "duration": 0.03205131250000193,
            "durationTicks": 30,
            "midi": 36,
            "name": "C2",
            "ticks": 86400,
            "time": 92.30778,
            "velocity": 0.8740157480314961
          },
          {
            "duration": 0.03205131250000193,
            "durationTicks": 30,
            "midi": 42,
            "name": "F#2",
            "ticks": 86400,
            "time": 92.30778,
            "velocity": 0.3779527559055118
          },
          {
            "duration": 0.03205131250000193,
            "durationTicks": 30,
            "midi": 82,
            "name": "A#5",
            "ticks": 86400,
            "time": 92.30778,
            "velocity": 0.4881889763779528
          },
          {
            "duration": 0.03205131250000193,
            "durationTicks": 30,
            "midi": 42,
            "name": "F#2",
            "ticks": 86640,
            "time": 92.5641905,
            "velocity": 0.5905511811023622
          },
          {
            "duration": 0.03205131250000193,
            "durationTicks": 30,
            "midi": 82,
            "name": "A#5",
            "ticks": 86640,
            "time": 92.5641905,
            "velocity": 0.4094488188976378
          },
          {
            "duration": 0.03205131250000193,
            "durationTicks": 30,
            "midi": 39,
            "name": "D#2",
            "ticks": 86880,
            "time": 92.820601,
            "velocity": 0.9133858267716536
          },
          {
            "duration": 0.03205131250000193,
            "durationTicks": 30,
            "midi": 40,
            "name": "E2",
            "ticks": 86880,
            "time": 92.820601,
            "velocity": 0.9291338582677166
          },
          {
            "duration": 0.03205131250000193,
            "durationTicks": 30,
            "midi": 42,
            "name": "F#2",
            "ticks": 86880,
            "time": 92.820601,
            "velocity": 0.47244094488188976
          },
          {
            "duration": 0.03205131250000193,
            "durationTicks": 30,
            "midi": 82,
            "name": "A#5",
            "ticks": 86880,
            "time": 92.820601,
            "velocity": 0.5511811023622047
          },
          {
            "duration": 0.03205131250000193,
            "durationTicks": 30,
            "midi": 42,
            "name": "F#2",
            "ticks": 87120,
            "time": 93.0770115,
            "velocity": 0.6299212598425197
          },
          {
            "duration": 0.03205131250000193,
            "durationTicks": 30,
            "midi": 82,
            "name": "A#5",
            "ticks": 87120,
            "time": 93.0770115,
            "velocity": 0.4645669291338583
          },
          {
            "duration": 0.03205131250000193,
            "durationTicks": 30,
            "midi": 36,
            "name": "C2",
            "ticks": 87360,
            "time": 93.333422,
            "velocity": 0.8740157480314961
          },
          {
            "duration": 0.03205131250000193,
            "durationTicks": 30,
            "midi": 42,
            "name": "F#2",
            "ticks": 87360,
            "time": 93.333422,
            "velocity": 0.49606299212598426
          },
          {
            "duration": 0.03205131250000193,
            "durationTicks": 30,
            "midi": 82,
            "name": "A#5",
            "ticks": 87360,
            "time": 93.333422,
            "velocity": 0.5354330708661418
          },
          {
            "duration": 0.032051312499987716,
            "durationTicks": 30,
            "midi": 42,
            "name": "F#2",
            "ticks": 87600,
            "time": 93.5898325,
            "velocity": 0.5905511811023622
          },
          {
            "duration": 0.032051312499987716,
            "durationTicks": 30,
            "midi": 82,
            "name": "A#5",
            "ticks": 87600,
            "time": 93.5898325,
            "velocity": 0.5196850393700787
          },
          {
            "duration": 0.032051312499987716,
            "durationTicks": 30,
            "midi": 39,
            "name": "D#2",
            "ticks": 87840,
            "time": 93.846243,
            "velocity": 0.9133858267716536
          },
          {
            "duration": 0.032051312499987716,
            "durationTicks": 30,
            "midi": 40,
            "name": "E2",
            "ticks": 87840,
            "time": 93.846243,
            "velocity": 0.937007874015748
          },
          {
            "duration": 0.032051312499987716,
            "durationTicks": 30,
            "midi": 42,
            "name": "F#2",
            "ticks": 87840,
            "time": 93.846243,
            "velocity": 0.49606299212598426
          },
          {
            "duration": 0.032051312499987716,
            "durationTicks": 30,
            "midi": 82,
            "name": "A#5",
            "ticks": 87840,
            "time": 93.846243,
            "velocity": 0.5826771653543307
          },
          {
            "duration": 0.03205131250000193,
            "durationTicks": 30,
            "midi": 42,
            "name": "F#2",
            "ticks": 88080,
            "time": 94.10265349999999,
            "velocity": 0.6692913385826772
          },
          {
            "duration": 0.03205131250000193,
            "durationTicks": 30,
            "midi": 82,
            "name": "A#5",
            "ticks": 88080,
            "time": 94.10265349999999,
            "velocity": 0.4409448818897638
          },
          {
            "duration": 0.03205131250000193,
            "durationTicks": 30,
            "midi": 36,
            "name": "C2",
            "ticks": 88320,
            "time": 94.35906399999999,
            "velocity": 0.8740157480314961
          },
          {
            "duration": 0.03205131250000193,
            "durationTicks": 30,
            "midi": 42,
            "name": "F#2",
            "ticks": 88320,
            "time": 94.35906399999999,
            "velocity": 0.47244094488188976
          },
          {
            "duration": 0.03205131250000193,
            "durationTicks": 30,
            "midi": 82,
            "name": "A#5",
            "ticks": 88320,
            "time": 94.35906399999999,
            "velocity": 0.5826771653543307
          },
          {
            "duration": 0.03205131250000193,
            "durationTicks": 30,
            "midi": 42,
            "name": "F#2",
            "ticks": 88560,
            "time": 94.61547449999999,
            "velocity": 0.5905511811023622
          },
          {
            "duration": 0.03205131250000193,
            "durationTicks": 30,
            "midi": 82,
            "name": "A#5",
            "ticks": 88560,
            "time": 94.61547449999999,
            "velocity": 0.5039370078740157
          },
          {
            "duration": 0.03205131250000193,
            "durationTicks": 30,
            "midi": 39,
            "name": "D#2",
            "ticks": 88800,
            "time": 94.87188499999999,
            "velocity": 0.9133858267716536
          },
          {
            "duration": 0.03205131250000193,
            "durationTicks": 30,
            "midi": 40,
            "name": "E2",
            "ticks": 88800,
            "time": 94.87188499999999,
            "velocity": 0.937007874015748
          },
          {
            "duration": 0.03205131250000193,
            "durationTicks": 30,
            "midi": 42,
            "name": "F#2",
            "ticks": 88800,
            "time": 94.87188499999999,
            "velocity": 0.4330708661417323
          },
          {
            "duration": 0.03205131250000193,
            "durationTicks": 30,
            "midi": 82,
            "name": "A#5",
            "ticks": 88800,
            "time": 94.87188499999999,
            "velocity": 0.5669291338582677
          },
          {
            "duration": 0.03205131250000193,
            "durationTicks": 30,
            "midi": 42,
            "name": "F#2",
            "ticks": 89040,
            "time": 95.1282955,
            "velocity": 0.6692913385826772
          },
          {
            "duration": 0.03205131250000193,
            "durationTicks": 30,
            "midi": 82,
            "name": "A#5",
            "ticks": 89040,
            "time": 95.1282955,
            "velocity": 0.5196850393700787
          },
          {
            "duration": 0.03205131250000193,
            "durationTicks": 30,
            "midi": 36,
            "name": "C2",
            "ticks": 89280,
            "time": 95.384706,
            "velocity": 0.8740157480314961
          },
          {
            "duration": 0.03205131250000193,
            "durationTicks": 30,
            "midi": 42,
            "name": "F#2",
            "ticks": 89280,
            "time": 95.384706,
            "velocity": 0.4094488188976378
          },
          {
            "duration": 0.03205131250000193,
            "durationTicks": 30,
            "midi": 82,
            "name": "A#5",
            "ticks": 89280,
            "time": 95.384706,
            "velocity": 0.4881889763779528
          },
          {
            "duration": 0.03205131250000193,
            "durationTicks": 30,
            "midi": 42,
            "name": "F#2",
            "ticks": 89520,
            "time": 95.6411165,
            "velocity": 0.6299212598425197
          },
          {
            "duration": 0.03205131250000193,
            "durationTicks": 30,
            "midi": 82,
            "name": "A#5",
            "ticks": 89520,
            "time": 95.6411165,
            "velocity": 0.5196850393700787
          },
          {
            "duration": 0.03205131250000193,
            "durationTicks": 30,
            "midi": 39,
            "name": "D#2",
            "ticks": 89760,
            "time": 95.897527,
            "velocity": 0.9133858267716536
          },
          {
            "duration": 0.03205131250000193,
            "durationTicks": 30,
            "midi": 40,
            "name": "E2",
            "ticks": 89760,
            "time": 95.897527,
            "velocity": 0.937007874015748
          },
          {
            "duration": 0.03205131250000193,
            "durationTicks": 30,
            "midi": 42,
            "name": "F#2",
            "ticks": 89760,
            "time": 95.897527,
            "velocity": 0.4094488188976378
          },
          {
            "duration": 0.03205131250000193,
            "durationTicks": 30,
            "midi": 82,
            "name": "A#5",
            "ticks": 89760,
            "time": 95.897527,
            "velocity": 0.5511811023622047
          },
          {
            "duration": 0.03205131250000193,
            "durationTicks": 30,
            "midi": 42,
            "name": "F#2",
            "ticks": 90000,
            "time": 96.1539375,
            "velocity": 0.6692913385826772
          },
          {
            "duration": 0.03205131250000193,
            "durationTicks": 30,
            "midi": 82,
            "name": "A#5",
            "ticks": 90000,
            "time": 96.1539375,
            "velocity": 0.5511811023622047
          },
          {
            "duration": 0.03205131250000193,
            "durationTicks": 30,
            "midi": 36,
            "name": "C2",
            "ticks": 90240,
            "time": 96.410348,
            "velocity": 0.8740157480314961
          },
          {
            "duration": 0.03205131250000193,
            "durationTicks": 30,
            "midi": 42,
            "name": "F#2",
            "ticks": 90240,
            "time": 96.410348,
            "velocity": 0.3779527559055118
          },
          {
            "duration": 0.03205131250000193,
            "durationTicks": 30,
            "midi": 82,
            "name": "A#5",
            "ticks": 90240,
            "time": 96.410348,
            "velocity": 0.5669291338582677
          },
          {
            "duration": 0.032051312499987716,
            "durationTicks": 30,
            "midi": 42,
            "name": "F#2",
            "ticks": 90480,
            "time": 96.6667585,
            "velocity": 0.5905511811023622
          },
          {
            "duration": 0.032051312499987716,
            "durationTicks": 30,
            "midi": 82,
            "name": "A#5",
            "ticks": 90480,
            "time": 96.6667585,
            "velocity": 0.5511811023622047
          },
          {
            "duration": 0.032051312499987716,
            "durationTicks": 30,
            "midi": 39,
            "name": "D#2",
            "ticks": 90720,
            "time": 96.923169,
            "velocity": 0.9133858267716536
          },
          {
            "duration": 0.032051312499987716,
            "durationTicks": 30,
            "midi": 40,
            "name": "E2",
            "ticks": 90720,
            "time": 96.923169,
            "velocity": 0.9291338582677166
          },
          {
            "duration": 0.032051312499987716,
            "durationTicks": 30,
            "midi": 42,
            "name": "F#2",
            "ticks": 90720,
            "time": 96.923169,
            "velocity": 0.47244094488188976
          },
          {
            "duration": 0.032051312499987716,
            "durationTicks": 30,
            "midi": 82,
            "name": "A#5",
            "ticks": 90720,
            "time": 96.923169,
            "velocity": 0.5354330708661418
          },
          {
            "duration": 0.03205131250000193,
            "durationTicks": 30,
            "midi": 42,
            "name": "F#2",
            "ticks": 90960,
            "time": 97.17957949999999,
            "velocity": 0.6299212598425197
          },
          {
            "duration": 0.03205131250000193,
            "durationTicks": 30,
            "midi": 82,
            "name": "A#5",
            "ticks": 90960,
            "time": 97.17957949999999,
            "velocity": 0.5511811023622047
          },
          {
            "duration": 0.03205131250000193,
            "durationTicks": 30,
            "midi": 36,
            "name": "C2",
            "ticks": 91200,
            "time": 97.43598999999999,
            "velocity": 0.8740157480314961
          },
          {
            "duration": 0.03205131250000193,
            "durationTicks": 30,
            "midi": 42,
            "name": "F#2",
            "ticks": 91200,
            "time": 97.43598999999999,
            "velocity": 0.49606299212598426
          },
          {
            "duration": 0.03205131250000193,
            "durationTicks": 30,
            "midi": 82,
            "name": "A#5",
            "ticks": 91200,
            "time": 97.43598999999999,
            "velocity": 0.5511811023622047
          },
          {
            "duration": 0.03205131250000193,
            "durationTicks": 30,
            "midi": 42,
            "name": "F#2",
            "ticks": 91440,
            "time": 97.69240049999999,
            "velocity": 0.5905511811023622
          },
          {
            "duration": 0.03205131250000193,
            "durationTicks": 30,
            "midi": 82,
            "name": "A#5",
            "ticks": 91440,
            "time": 97.69240049999999,
            "velocity": 0.5826771653543307
          },
          {
            "duration": 0.03205131250000193,
            "durationTicks": 30,
            "midi": 39,
            "name": "D#2",
            "ticks": 91680,
            "time": 97.94881099999999,
            "velocity": 0.9133858267716536
          },
          {
            "duration": 0.03205131250000193,
            "durationTicks": 30,
            "midi": 40,
            "name": "E2",
            "ticks": 91680,
            "time": 97.94881099999999,
            "velocity": 0.937007874015748
          },
          {
            "duration": 0.03205131250000193,
            "durationTicks": 30,
            "midi": 42,
            "name": "F#2",
            "ticks": 91680,
            "time": 97.94881099999999,
            "velocity": 0.49606299212598426
          },
          {
            "duration": 0.03205131250000193,
            "durationTicks": 30,
            "midi": 82,
            "name": "A#5",
            "ticks": 91680,
            "time": 97.94881099999999,
            "velocity": 0.5354330708661418
          },
          {
            "duration": 0.03205131250000193,
            "durationTicks": 30,
            "midi": 42,
            "name": "F#2",
            "ticks": 91920,
            "time": 98.2052215,
            "velocity": 0.6692913385826772
          },
          {
            "duration": 0.03205131250000193,
            "durationTicks": 30,
            "midi": 82,
            "name": "A#5",
            "ticks": 91920,
            "time": 98.2052215,
            "velocity": 0.5511811023622047
          },
          {
            "duration": 0.03205131250000193,
            "durationTicks": 30,
            "midi": 36,
            "name": "C2",
            "ticks": 92160,
            "time": 98.461632,
            "velocity": 0.8740157480314961
          },
          {
            "duration": 0.03205131250000193,
            "durationTicks": 30,
            "midi": 42,
            "name": "F#2",
            "ticks": 92160,
            "time": 98.461632,
            "velocity": 0.47244094488188976
          },
          {
            "duration": 0.03205131250000193,
            "durationTicks": 30,
            "midi": 82,
            "name": "A#5",
            "ticks": 92160,
            "time": 98.461632,
            "velocity": 0.5354330708661418
          },
          {
            "duration": 0.03205131250000193,
            "durationTicks": 30,
            "midi": 42,
            "name": "F#2",
            "ticks": 92400,
            "time": 98.7180425,
            "velocity": 0.5905511811023622
          },
          {
            "duration": 0.03205131250000193,
            "durationTicks": 30,
            "midi": 82,
            "name": "A#5",
            "ticks": 92400,
            "time": 98.7180425,
            "velocity": 0.48031496062992124
          },
          {
            "duration": 0.03205131250000193,
            "durationTicks": 30,
            "midi": 39,
            "name": "D#2",
            "ticks": 92640,
            "time": 98.974453,
            "velocity": 0.9133858267716536
          },
          {
            "duration": 0.03205131250000193,
            "durationTicks": 30,
            "midi": 40,
            "name": "E2",
            "ticks": 92640,
            "time": 98.974453,
            "velocity": 0.937007874015748
          },
          {
            "duration": 0.03205131250000193,
            "durationTicks": 30,
            "midi": 42,
            "name": "F#2",
            "ticks": 92640,
            "time": 98.974453,
            "velocity": 0.4330708661417323
          },
          {
            "duration": 0.03205131250000193,
            "durationTicks": 30,
            "midi": 82,
            "name": "A#5",
            "ticks": 92640,
            "time": 98.974453,
            "velocity": 0.48031496062992124
          },
          {
            "duration": 0.03205131250000193,
            "durationTicks": 30,
            "midi": 42,
            "name": "F#2",
            "ticks": 92880,
            "time": 99.2308635,
            "velocity": 0.6692913385826772
          },
          {
            "duration": 0.03205131250000193,
            "durationTicks": 30,
            "midi": 82,
            "name": "A#5",
            "ticks": 92880,
            "time": 99.2308635,
            "velocity": 0.44881889763779526
          },
          {
            "duration": 0.03205131250000193,
            "durationTicks": 30,
            "midi": 36,
            "name": "C2",
            "ticks": 93120,
            "time": 99.487274,
            "velocity": 0.8740157480314961
          },
          {
            "duration": 0.03205131250000193,
            "durationTicks": 30,
            "midi": 42,
            "name": "F#2",
            "ticks": 93120,
            "time": 99.487274,
            "velocity": 0.4094488188976378
          },
          {
            "duration": 0.03205131250000193,
            "durationTicks": 30,
            "midi": 82,
            "name": "A#5",
            "ticks": 93120,
            "time": 99.487274,
            "velocity": 0.5039370078740157
          },
          {
            "duration": 0.032051312499987716,
            "durationTicks": 30,
            "midi": 42,
            "name": "F#2",
            "ticks": 93360,
            "time": 99.7436845,
            "velocity": 0.6299212598425197
          },
          {
            "duration": 0.032051312499987716,
            "durationTicks": 30,
            "midi": 82,
            "name": "A#5",
            "ticks": 93360,
            "time": 99.7436845,
            "velocity": 0.41732283464566927
          },
          {
            "duration": 0.03205131250000193,
            "durationTicks": 30,
            "midi": 39,
            "name": "D#2",
            "ticks": 93600,
            "time": 100.00009499999999,
            "velocity": 0.9133858267716536
          },
          {
            "duration": 0.03205131250000193,
            "durationTicks": 30,
            "midi": 40,
            "name": "E2",
            "ticks": 93600,
            "time": 100.00009499999999,
            "velocity": 0.937007874015748
          },
          {
            "duration": 0.03205131250000193,
            "durationTicks": 30,
            "midi": 42,
            "name": "F#2",
            "ticks": 93600,
            "time": 100.00009499999999,
            "velocity": 0.4094488188976378
          },
          {
            "duration": 0.03205131250000193,
            "durationTicks": 30,
            "midi": 82,
            "name": "A#5",
            "ticks": 93600,
            "time": 100.00009499999999,
            "velocity": 0.5354330708661418
          },
          {
            "duration": 0.03205131250000193,
            "durationTicks": 30,
            "midi": 42,
            "name": "F#2",
            "ticks": 93840,
            "time": 100.25650549999999,
            "velocity": 0.6692913385826772
          },
          {
            "duration": 0.03205131250000193,
            "durationTicks": 30,
            "midi": 82,
            "name": "A#5",
            "ticks": 93840,
            "time": 100.25650549999999,
            "velocity": 0.5039370078740157
          },
          {
            "duration": 0.03205131250000193,
            "durationTicks": 30,
            "midi": 36,
            "name": "C2",
            "ticks": 94080,
            "time": 100.51291599999999,
            "velocity": 0.8740157480314961
          },
          {
            "duration": 0.03205131250000193,
            "durationTicks": 30,
            "midi": 42,
            "name": "F#2",
            "ticks": 94080,
            "time": 100.51291599999999,
            "velocity": 0.3779527559055118
          },
          {
            "duration": 0.03205131250000193,
            "durationTicks": 30,
            "midi": 82,
            "name": "A#5",
            "ticks": 94080,
            "time": 100.51291599999999,
            "velocity": 0.4881889763779528
          },
          {
            "duration": 0.03205131250000193,
            "durationTicks": 30,
            "midi": 42,
            "name": "F#2",
            "ticks": 94320,
            "time": 100.76932649999999,
            "velocity": 0.5905511811023622
          },
          {
            "duration": 0.03205131250000193,
            "durationTicks": 30,
            "midi": 82,
            "name": "A#5",
            "ticks": 94320,
            "time": 100.76932649999999,
            "velocity": 0.4094488188976378
          },
          {
            "duration": 0.03205131250000193,
            "durationTicks": 30,
            "midi": 39,
            "name": "D#2",
            "ticks": 94560,
            "time": 101.02573699999999,
            "velocity": 0.9133858267716536
          },
          {
            "duration": 0.03205131250000193,
            "durationTicks": 30,
            "midi": 40,
            "name": "E2",
            "ticks": 94560,
            "time": 101.02573699999999,
            "velocity": 0.9291338582677166
          },
          {
            "duration": 0.03205131250000193,
            "durationTicks": 30,
            "midi": 42,
            "name": "F#2",
            "ticks": 94560,
            "time": 101.02573699999999,
            "velocity": 0.47244094488188976
          },
          {
            "duration": 0.03205131250000193,
            "durationTicks": 30,
            "midi": 82,
            "name": "A#5",
            "ticks": 94560,
            "time": 101.02573699999999,
            "velocity": 0.5511811023622047
          },
          {
            "duration": 0.03205131250000193,
            "durationTicks": 30,
            "midi": 42,
            "name": "F#2",
            "ticks": 94800,
            "time": 101.2821475,
            "velocity": 0.6299212598425197
          },
          {
            "duration": 0.03205131250000193,
            "durationTicks": 30,
            "midi": 82,
            "name": "A#5",
            "ticks": 94800,
            "time": 101.2821475,
            "velocity": 0.4645669291338583
          },
          {
            "duration": 0.03205131250000193,
            "durationTicks": 30,
            "midi": 36,
            "name": "C2",
            "ticks": 95040,
            "time": 101.538558,
            "velocity": 0.8740157480314961
          },
          {
            "duration": 0.03205131250000193,
            "durationTicks": 30,
            "midi": 42,
            "name": "F#2",
            "ticks": 95040,
            "time": 101.538558,
            "velocity": 0.49606299212598426
          },
          {
            "duration": 0.03205131250000193,
            "durationTicks": 30,
            "midi": 82,
            "name": "A#5",
            "ticks": 95040,
            "time": 101.538558,
            "velocity": 0.5354330708661418
          },
          {
            "duration": 0.03205131250000193,
            "durationTicks": 30,
            "midi": 42,
            "name": "F#2",
            "ticks": 95280,
            "time": 101.7949685,
            "velocity": 0.5905511811023622
          },
          {
            "duration": 0.03205131250000193,
            "durationTicks": 30,
            "midi": 82,
            "name": "A#5",
            "ticks": 95280,
            "time": 101.7949685,
            "velocity": 0.5196850393700787
          },
          {
            "duration": 0.03205131250000193,
            "durationTicks": 30,
            "midi": 39,
            "name": "D#2",
            "ticks": 95520,
            "time": 102.051379,
            "velocity": 0.9133858267716536
          },
          {
            "duration": 0.03205131250000193,
            "durationTicks": 30,
            "midi": 40,
            "name": "E2",
            "ticks": 95520,
            "time": 102.051379,
            "velocity": 0.937007874015748
          },
          {
            "duration": 0.03205131250000193,
            "durationTicks": 30,
            "midi": 42,
            "name": "F#2",
            "ticks": 95520,
            "time": 102.051379,
            "velocity": 0.49606299212598426
          },
          {
            "duration": 0.03205131250000193,
            "durationTicks": 30,
            "midi": 82,
            "name": "A#5",
            "ticks": 95520,
            "time": 102.051379,
            "velocity": 0.5826771653543307
          },
          {
            "duration": 0.03205131250000193,
            "durationTicks": 30,
            "midi": 42,
            "name": "F#2",
            "ticks": 95760,
            "time": 102.3077895,
            "velocity": 0.6692913385826772
          },
          {
            "duration": 0.03205131250000193,
            "durationTicks": 30,
            "midi": 82,
            "name": "A#5",
            "ticks": 95760,
            "time": 102.3077895,
            "velocity": 0.4409448818897638
          },
          {
            "duration": 0.032051312499987716,
            "durationTicks": 30,
            "midi": 36,
            "name": "C2",
            "ticks": 96000,
            "time": 102.5642,
            "velocity": 0.8740157480314961
          },
          {
            "duration": 0.032051312499987716,
            "durationTicks": 30,
            "midi": 42,
            "name": "F#2",
            "ticks": 96000,
            "time": 102.5642,
            "velocity": 0.47244094488188976
          },
          {
            "duration": 0.032051312499987716,
            "durationTicks": 30,
            "midi": 82,
            "name": "A#5",
            "ticks": 96000,
            "time": 102.5642,
            "velocity": 0.5826771653543307
          },
          {
            "duration": 0.032051312499987716,
            "durationTicks": 30,
            "midi": 42,
            "name": "F#2",
            "ticks": 96240,
            "time": 102.8206105,
            "velocity": 0.5905511811023622
          },
          {
            "duration": 0.032051312499987716,
            "durationTicks": 30,
            "midi": 82,
            "name": "A#5",
            "ticks": 96240,
            "time": 102.8206105,
            "velocity": 0.5039370078740157
          },
          {
            "duration": 0.03205131250000193,
            "durationTicks": 30,
            "midi": 39,
            "name": "D#2",
            "ticks": 96480,
            "time": 103.07702099999999,
            "velocity": 0.9133858267716536
          },
          {
            "duration": 0.03205131250000193,
            "durationTicks": 30,
            "midi": 40,
            "name": "E2",
            "ticks": 96480,
            "time": 103.07702099999999,
            "velocity": 0.937007874015748
          },
          {
            "duration": 0.03205131250000193,
            "durationTicks": 30,
            "midi": 42,
            "name": "F#2",
            "ticks": 96480,
            "time": 103.07702099999999,
            "velocity": 0.4330708661417323
          },
          {
            "duration": 0.03205131250000193,
            "durationTicks": 30,
            "midi": 82,
            "name": "A#5",
            "ticks": 96480,
            "time": 103.07702099999999,
            "velocity": 0.5669291338582677
          },
          {
            "duration": 0.03205131250000193,
            "durationTicks": 30,
            "midi": 42,
            "name": "F#2",
            "ticks": 96720,
            "time": 103.33343149999999,
            "velocity": 0.6692913385826772
          },
          {
            "duration": 0.03205131250000193,
            "durationTicks": 30,
            "midi": 82,
            "name": "A#5",
            "ticks": 96720,
            "time": 103.33343149999999,
            "velocity": 0.5196850393700787
          },
          {
            "duration": 0.03205131250000193,
            "durationTicks": 30,
            "midi": 36,
            "name": "C2",
            "ticks": 96960,
            "time": 103.58984199999999,
            "velocity": 0.8740157480314961
          },
          {
            "duration": 0.03205131250000193,
            "durationTicks": 30,
            "midi": 42,
            "name": "F#2",
            "ticks": 96960,
            "time": 103.58984199999999,
            "velocity": 0.4094488188976378
          },
          {
            "duration": 0.03205131250000193,
            "durationTicks": 30,
            "midi": 82,
            "name": "A#5",
            "ticks": 96960,
            "time": 103.58984199999999,
            "velocity": 0.4881889763779528
          },
          {
            "duration": 0.03205131250000193,
            "durationTicks": 30,
            "midi": 42,
            "name": "F#2",
            "ticks": 97200,
            "time": 103.84625249999999,
            "velocity": 0.6299212598425197
          },
          {
            "duration": 0.03205131250000193,
            "durationTicks": 30,
            "midi": 82,
            "name": "A#5",
            "ticks": 97200,
            "time": 103.84625249999999,
            "velocity": 0.5196850393700787
          },
          {
            "duration": 0.03205131250000193,
            "durationTicks": 30,
            "midi": 39,
            "name": "D#2",
            "ticks": 97440,
            "time": 104.10266299999999,
            "velocity": 0.9133858267716536
          },
          {
            "duration": 0.03205131250000193,
            "durationTicks": 30,
            "midi": 40,
            "name": "E2",
            "ticks": 97440,
            "time": 104.10266299999999,
            "velocity": 0.937007874015748
          },
          {
            "duration": 0.03205131250000193,
            "durationTicks": 30,
            "midi": 42,
            "name": "F#2",
            "ticks": 97440,
            "time": 104.10266299999999,
            "velocity": 0.4094488188976378
          },
          {
            "duration": 0.03205131250000193,
            "durationTicks": 30,
            "midi": 82,
            "name": "A#5",
            "ticks": 97440,
            "time": 104.10266299999999,
            "velocity": 0.5511811023622047
          },
          {
            "duration": 0.03205131250000193,
            "durationTicks": 30,
            "midi": 42,
            "name": "F#2",
            "ticks": 97680,
            "time": 104.3590735,
            "velocity": 0.6692913385826772
          },
          {
            "duration": 0.03205131250000193,
            "durationTicks": 30,
            "midi": 82,
            "name": "A#5",
            "ticks": 97680,
            "time": 104.3590735,
            "velocity": 0.5511811023622047
          },
          {
            "duration": 0.03205131250000193,
            "durationTicks": 30,
            "midi": 36,
            "name": "C2",
            "ticks": 97920,
            "time": 104.615484,
            "velocity": 0.8740157480314961
          },
          {
            "duration": 0.03205131250000193,
            "durationTicks": 30,
            "midi": 42,
            "name": "F#2",
            "ticks": 97920,
            "time": 104.615484,
            "velocity": 0.3779527559055118
          },
          {
            "duration": 0.03205131250000193,
            "durationTicks": 30,
            "midi": 82,
            "name": "A#5",
            "ticks": 97920,
            "time": 104.615484,
            "velocity": 0.5669291338582677
          },
          {
            "duration": 0.03205131250000193,
            "durationTicks": 30,
            "midi": 42,
            "name": "F#2",
            "ticks": 98160,
            "time": 104.8718945,
            "velocity": 0.5905511811023622
          },
          {
            "duration": 0.03205131250000193,
            "durationTicks": 30,
            "midi": 82,
            "name": "A#5",
            "ticks": 98160,
            "time": 104.8718945,
            "velocity": 0.5511811023622047
          },
          {
            "duration": 0.03205131250000193,
            "durationTicks": 30,
            "midi": 39,
            "name": "D#2",
            "ticks": 98400,
            "time": 105.128305,
            "velocity": 0.9133858267716536
          },
          {
            "duration": 0.03205131250000193,
            "durationTicks": 30,
            "midi": 40,
            "name": "E2",
            "ticks": 98400,
            "time": 105.128305,
            "velocity": 0.9291338582677166
          },
          {
            "duration": 0.03205131250000193,
            "durationTicks": 30,
            "midi": 42,
            "name": "F#2",
            "ticks": 98400,
            "time": 105.128305,
            "velocity": 0.47244094488188976
          },
          {
            "duration": 0.03205131250000193,
            "durationTicks": 30,
            "midi": 82,
            "name": "A#5",
            "ticks": 98400,
            "time": 105.128305,
            "velocity": 0.5354330708661418
          },
          {
            "duration": 0.03205131250000193,
            "durationTicks": 30,
            "midi": 42,
            "name": "F#2",
            "ticks": 98640,
            "time": 105.3847155,
            "velocity": 0.6299212598425197
          },
          {
            "duration": 0.03205131250000193,
            "durationTicks": 30,
            "midi": 82,
            "name": "A#5",
            "ticks": 98640,
            "time": 105.3847155,
            "velocity": 0.5511811023622047
          },
          {
            "duration": 0.032051312499987716,
            "durationTicks": 30,
            "midi": 36,
            "name": "C2",
            "ticks": 98880,
            "time": 105.641126,
            "velocity": 0.8740157480314961
          },
          {
            "duration": 0.032051312499987716,
            "durationTicks": 30,
            "midi": 42,
            "name": "F#2",
            "ticks": 98880,
            "time": 105.641126,
            "velocity": 0.49606299212598426
          },
          {
            "duration": 0.032051312499987716,
            "durationTicks": 30,
            "midi": 82,
            "name": "A#5",
            "ticks": 98880,
            "time": 105.641126,
            "velocity": 0.5511811023622047
          },
          {
            "duration": 0.032051312499987716,
            "durationTicks": 30,
            "midi": 42,
            "name": "F#2",
            "ticks": 99120,
            "time": 105.8975365,
            "velocity": 0.5905511811023622
          },
          {
            "duration": 0.032051312499987716,
            "durationTicks": 30,
            "midi": 82,
            "name": "A#5",
            "ticks": 99120,
            "time": 105.8975365,
            "velocity": 0.5826771653543307
          },
          {
            "duration": 0.03205131250000193,
            "durationTicks": 30,
            "midi": 39,
            "name": "D#2",
            "ticks": 99360,
            "time": 106.15394699999999,
            "velocity": 0.9133858267716536
          },
          {
            "duration": 0.03205131250000193,
            "durationTicks": 30,
            "midi": 40,
            "name": "E2",
            "ticks": 99360,
            "time": 106.15394699999999,
            "velocity": 0.937007874015748
          },
          {
            "duration": 0.03205131250000193,
            "durationTicks": 30,
            "midi": 42,
            "name": "F#2",
            "ticks": 99360,
            "time": 106.15394699999999,
            "velocity": 0.49606299212598426
          },
          {
            "duration": 0.03205131250000193,
            "durationTicks": 30,
            "midi": 82,
            "name": "A#5",
            "ticks": 99360,
            "time": 106.15394699999999,
            "velocity": 0.5354330708661418
          },
          {
            "duration": 0.03205131250000193,
            "durationTicks": 30,
            "midi": 42,
            "name": "F#2",
            "ticks": 99600,
            "time": 106.41035749999999,
            "velocity": 0.6692913385826772
          },
          {
            "duration": 0.03205131250000193,
            "durationTicks": 30,
            "midi": 82,
            "name": "A#5",
            "ticks": 99600,
            "time": 106.41035749999999,
            "velocity": 0.5511811023622047
          },
          {
            "duration": 0.03205131250000193,
            "durationTicks": 30,
            "midi": 36,
            "name": "C2",
            "ticks": 99840,
            "time": 106.66676799999999,
            "velocity": 0.8740157480314961
          },
          {
            "duration": 0.03205131250000193,
            "durationTicks": 30,
            "midi": 42,
            "name": "F#2",
            "ticks": 99840,
            "time": 106.66676799999999,
            "velocity": 0.47244094488188976
          },
          {
            "duration": 0.03205131250000193,
            "durationTicks": 30,
            "midi": 82,
            "name": "A#5",
            "ticks": 99840,
            "time": 106.66676799999999,
            "velocity": 0.5354330708661418
          },
          {
            "duration": 0.03205131250000193,
            "durationTicks": 30,
            "midi": 42,
            "name": "F#2",
            "ticks": 100080,
            "time": 106.92317849999999,
            "velocity": 0.5905511811023622
          },
          {
            "duration": 0.03205131250000193,
            "durationTicks": 30,
            "midi": 82,
            "name": "A#5",
            "ticks": 100080,
            "time": 106.92317849999999,
            "velocity": 0.48031496062992124
          },
          {
            "duration": 0.03205131250000193,
            "durationTicks": 30,
            "midi": 39,
            "name": "D#2",
            "ticks": 100320,
            "time": 107.17958899999999,
            "velocity": 0.9133858267716536
          },
          {
            "duration": 0.03205131250000193,
            "durationTicks": 30,
            "midi": 40,
            "name": "E2",
            "ticks": 100320,
            "time": 107.17958899999999,
            "velocity": 0.937007874015748
          },
          {
            "duration": 0.03205131250000193,
            "durationTicks": 30,
            "midi": 42,
            "name": "F#2",
            "ticks": 100320,
            "time": 107.17958899999999,
            "velocity": 0.4330708661417323
          },
          {
            "duration": 0.03205131250000193,
            "durationTicks": 30,
            "midi": 82,
            "name": "A#5",
            "ticks": 100320,
            "time": 107.17958899999999,
            "velocity": 0.48031496062992124
          },
          {
            "duration": 0.03205131250000193,
            "durationTicks": 30,
            "midi": 42,
            "name": "F#2",
            "ticks": 100560,
            "time": 107.4359995,
            "velocity": 0.6692913385826772
          },
          {
            "duration": 0.03205131250000193,
            "durationTicks": 30,
            "midi": 82,
            "name": "A#5",
            "ticks": 100560,
            "time": 107.4359995,
            "velocity": 0.44881889763779526
          },
          {
            "duration": 0.03205131250000193,
            "durationTicks": 30,
            "midi": 36,
            "name": "C2",
            "ticks": 100800,
            "time": 107.69241,
            "velocity": 0.8740157480314961
          },
          {
            "duration": 0.03205131250000193,
            "durationTicks": 30,
            "midi": 42,
            "name": "F#2",
            "ticks": 100800,
            "time": 107.69241,
            "velocity": 0.4094488188976378
          },
          {
            "duration": 0.03205131250000193,
            "durationTicks": 30,
            "midi": 82,
            "name": "A#5",
            "ticks": 100800,
            "time": 107.69241,
            "velocity": 0.5039370078740157
          },
          {
            "duration": 0.03205131250000193,
            "durationTicks": 30,
            "midi": 42,
            "name": "F#2",
            "ticks": 101040,
            "time": 107.9488205,
            "velocity": 0.6299212598425197
          },
          {
            "duration": 0.03205131250000193,
            "durationTicks": 30,
            "midi": 82,
            "name": "A#5",
            "ticks": 101040,
            "time": 107.9488205,
            "velocity": 0.41732283464566927
          },
          {
            "duration": 0.03205131250000193,
            "durationTicks": 30,
            "midi": 39,
            "name": "D#2",
            "ticks": 101280,
            "time": 108.205231,
            "velocity": 0.9133858267716536
          },
          {
            "duration": 0.03205131250000193,
            "durationTicks": 30,
            "midi": 40,
            "name": "E2",
            "ticks": 101280,
            "time": 108.205231,
            "velocity": 0.937007874015748
          },
          {
            "duration": 0.03205131250000193,
            "durationTicks": 30,
            "midi": 42,
            "name": "F#2",
            "ticks": 101280,
            "time": 108.205231,
            "velocity": 0.4094488188976378
          },
          {
            "duration": 0.03205131250000193,
            "durationTicks": 30,
            "midi": 82,
            "name": "A#5",
            "ticks": 101280,
            "time": 108.205231,
            "velocity": 0.5354330708661418
          },
          {
            "duration": 0.03205131250000193,
            "durationTicks": 30,
            "midi": 42,
            "name": "F#2",
            "ticks": 101520,
            "time": 108.4616415,
            "velocity": 0.6692913385826772
          },
          {
            "duration": 0.03205131250000193,
            "durationTicks": 30,
            "midi": 82,
            "name": "A#5",
            "ticks": 101520,
            "time": 108.4616415,
            "velocity": 0.5039370078740157
          },
          {
            "duration": 0.032051312499987716,
            "durationTicks": 30,
            "midi": 36,
            "name": "C2",
            "ticks": 101760,
            "time": 108.718052,
            "velocity": 0.8740157480314961
          },
          {
            "duration": 0.032051312499987716,
            "durationTicks": 30,
            "midi": 42,
            "name": "F#2",
            "ticks": 101760,
            "time": 108.718052,
            "velocity": 0.3779527559055118
          },
          {
            "duration": 0.032051312499987716,
            "durationTicks": 30,
            "midi": 82,
            "name": "A#5",
            "ticks": 101760,
            "time": 108.718052,
            "velocity": 0.4881889763779528
          },
          {
            "duration": 0.03205131250000193,
            "durationTicks": 30,
            "midi": 42,
            "name": "F#2",
            "ticks": 102000,
            "time": 108.97446249999999,
            "velocity": 0.5905511811023622
          },
          {
            "duration": 0.03205131250000193,
            "durationTicks": 30,
            "midi": 82,
            "name": "A#5",
            "ticks": 102000,
            "time": 108.97446249999999,
            "velocity": 0.4094488188976378
          },
          {
            "duration": 0.03205131250000193,
            "durationTicks": 30,
            "midi": 39,
            "name": "D#2",
            "ticks": 102240,
            "time": 109.23087299999999,
            "velocity": 0.9133858267716536
          },
          {
            "duration": 0.03205131250000193,
            "durationTicks": 30,
            "midi": 40,
            "name": "E2",
            "ticks": 102240,
            "time": 109.23087299999999,
            "velocity": 0.9291338582677166
          },
          {
            "duration": 0.03205131250000193,
            "durationTicks": 30,
            "midi": 42,
            "name": "F#2",
            "ticks": 102240,
            "time": 109.23087299999999,
            "velocity": 0.47244094488188976
          },
          {
            "duration": 0.03205131250000193,
            "durationTicks": 30,
            "midi": 82,
            "name": "A#5",
            "ticks": 102240,
            "time": 109.23087299999999,
            "velocity": 0.5511811023622047
          },
          {
            "duration": 0.03205131250000193,
            "durationTicks": 30,
            "midi": 42,
            "name": "F#2",
            "ticks": 102480,
            "time": 109.48728349999999,
            "velocity": 0.6299212598425197
          },
          {
            "duration": 0.03205131250000193,
            "durationTicks": 30,
            "midi": 82,
            "name": "A#5",
            "ticks": 102480,
            "time": 109.48728349999999,
            "velocity": 0.4645669291338583
          },
          {
            "duration": 0.03205131250000193,
            "durationTicks": 30,
            "midi": 36,
            "name": "C2",
            "ticks": 102720,
            "time": 109.74369399999999,
            "velocity": 0.8740157480314961
          },
          {
            "duration": 0.03205131250000193,
            "durationTicks": 30,
            "midi": 42,
            "name": "F#2",
            "ticks": 102720,
            "time": 109.74369399999999,
            "velocity": 0.49606299212598426
          },
          {
            "duration": 0.03205131250000193,
            "durationTicks": 30,
            "midi": 82,
            "name": "A#5",
            "ticks": 102720,
            "time": 109.74369399999999,
            "velocity": 0.5354330708661418
          },
          {
            "duration": 0.03205131250000193,
            "durationTicks": 30,
            "midi": 42,
            "name": "F#2",
            "ticks": 102960,
            "time": 110.00010449999999,
            "velocity": 0.5905511811023622
          },
          {
            "duration": 0.03205131250000193,
            "durationTicks": 30,
            "midi": 82,
            "name": "A#5",
            "ticks": 102960,
            "time": 110.00010449999999,
            "velocity": 0.5196850393700787
          },
          {
            "duration": 0.03205131250000193,
            "durationTicks": 30,
            "midi": 39,
            "name": "D#2",
            "ticks": 103200,
            "time": 110.256515,
            "velocity": 0.9133858267716536
          },
          {
            "duration": 0.03205131250000193,
            "durationTicks": 30,
            "midi": 40,
            "name": "E2",
            "ticks": 103200,
            "time": 110.256515,
            "velocity": 0.937007874015748
          },
          {
            "duration": 0.03205131250000193,
            "durationTicks": 30,
            "midi": 42,
            "name": "F#2",
            "ticks": 103200,
            "time": 110.256515,
            "velocity": 0.49606299212598426
          },
          {
            "duration": 0.03205131250000193,
            "durationTicks": 30,
            "midi": 82,
            "name": "A#5",
            "ticks": 103200,
            "time": 110.256515,
            "velocity": 0.5826771653543307
          },
          {
            "duration": 0.03205131250000193,
            "durationTicks": 30,
            "midi": 42,
            "name": "F#2",
            "ticks": 103440,
            "time": 110.5129255,
            "velocity": 0.6692913385826772
          },
          {
            "duration": 0.03205131250000193,
            "durationTicks": 30,
            "midi": 82,
            "name": "A#5",
            "ticks": 103440,
            "time": 110.5129255,
            "velocity": 0.4409448818897638
          },
          {
            "duration": 0.03205131250000193,
            "durationTicks": 30,
            "midi": 36,
            "name": "C2",
            "ticks": 103680,
            "time": 110.769336,
            "velocity": 0.8740157480314961
          },
          {
            "duration": 0.03205131250000193,
            "durationTicks": 30,
            "midi": 42,
            "name": "F#2",
            "ticks": 103680,
            "time": 110.769336,
            "velocity": 0.47244094488188976
          },
          {
            "duration": 0.03205131250000193,
            "durationTicks": 30,
            "midi": 82,
            "name": "A#5",
            "ticks": 103680,
            "time": 110.769336,
            "velocity": 0.5826771653543307
          },
          {
            "duration": 0.03205131250000193,
            "durationTicks": 30,
            "midi": 42,
            "name": "F#2",
            "ticks": 103920,
            "time": 111.0257465,
            "velocity": 0.5905511811023622
          },
          {
            "duration": 0.03205131250000193,
            "durationTicks": 30,
            "midi": 82,
            "name": "A#5",
            "ticks": 103920,
            "time": 111.0257465,
            "velocity": 0.5039370078740157
          },
          {
            "duration": 0.03205131250000193,
            "durationTicks": 30,
            "midi": 39,
            "name": "D#2",
            "ticks": 104160,
            "time": 111.282157,
            "velocity": 0.9133858267716536
          },
          {
            "duration": 0.03205131250000193,
            "durationTicks": 30,
            "midi": 40,
            "name": "E2",
            "ticks": 104160,
            "time": 111.282157,
            "velocity": 0.937007874015748
          },
          {
            "duration": 0.03205131250000193,
            "durationTicks": 30,
            "midi": 42,
            "name": "F#2",
            "ticks": 104160,
            "time": 111.282157,
            "velocity": 0.4330708661417323
          },
          {
            "duration": 0.03205131250000193,
            "durationTicks": 30,
            "midi": 82,
            "name": "A#5",
            "ticks": 104160,
            "time": 111.282157,
            "velocity": 0.5669291338582677
          },
          {
            "duration": 0.032051312499987716,
            "durationTicks": 30,
            "midi": 42,
            "name": "F#2",
            "ticks": 104400,
            "time": 111.5385675,
            "velocity": 0.6692913385826772
          },
          {
            "duration": 0.032051312499987716,
            "durationTicks": 30,
            "midi": 82,
            "name": "A#5",
            "ticks": 104400,
            "time": 111.5385675,
            "velocity": 0.5196850393700787
          },
          {
            "duration": 0.032051312499987716,
            "durationTicks": 30,
            "midi": 36,
            "name": "C2",
            "ticks": 104640,
            "time": 111.794978,
            "velocity": 0.8740157480314961
          },
          {
            "duration": 0.032051312499987716,
            "durationTicks": 30,
            "midi": 42,
            "name": "F#2",
            "ticks": 104640,
            "time": 111.794978,
            "velocity": 0.4094488188976378
          },
          {
            "duration": 0.032051312499987716,
            "durationTicks": 30,
            "midi": 82,
            "name": "A#5",
            "ticks": 104640,
            "time": 111.794978,
            "velocity": 0.4881889763779528
          },
          {
            "duration": 0.03205131250000193,
            "durationTicks": 30,
            "midi": 42,
            "name": "F#2",
            "ticks": 104880,
            "time": 112.05138849999999,
            "velocity": 0.6299212598425197
          },
          {
            "duration": 0.03205131250000193,
            "durationTicks": 30,
            "midi": 82,
            "name": "A#5",
            "ticks": 104880,
            "time": 112.05138849999999,
            "velocity": 0.5196850393700787
          },
          {
            "duration": 0.03205131250000193,
            "durationTicks": 30,
            "midi": 39,
            "name": "D#2",
            "ticks": 105120,
            "time": 112.30779899999999,
            "velocity": 0.9133858267716536
          },
          {
            "duration": 0.03205131250000193,
            "durationTicks": 30,
            "midi": 40,
            "name": "E2",
            "ticks": 105120,
            "time": 112.30779899999999,
            "velocity": 0.937007874015748
          },
          {
            "duration": 0.03205131250000193,
            "durationTicks": 30,
            "midi": 42,
            "name": "F#2",
            "ticks": 105120,
            "time": 112.30779899999999,
            "velocity": 0.4094488188976378
          },
          {
            "duration": 0.03205131250000193,
            "durationTicks": 30,
            "midi": 82,
            "name": "A#5",
            "ticks": 105120,
            "time": 112.30779899999999,
            "velocity": 0.5511811023622047
          },
          {
            "duration": 0.03205131250000193,
            "durationTicks": 30,
            "midi": 46,
            "name": "A#2",
            "ticks": 105360,
            "time": 112.56420949999999,
            "velocity": 0.8267716535433071
          },
          {
            "duration": 0.03205131250000193,
            "durationTicks": 30,
            "midi": 82,
            "name": "A#5",
            "ticks": 105360,
            "time": 112.56420949999999,
            "velocity": 0.5511811023622047
          },
          {
            "duration": 0.03205131250000193,
            "durationTicks": 30,
            "midi": 36,
            "name": "C2",
            "ticks": 105600,
            "time": 112.82061999999999,
            "velocity": 0.8740157480314961
          },
          {
            "duration": 0.03205131250000193,
            "durationTicks": 30,
            "midi": 42,
            "name": "F#2",
            "ticks": 105600,
            "time": 112.82061999999999,
            "velocity": 0.3779527559055118
          },
          {
            "duration": 0.03205131250000193,
            "durationTicks": 30,
            "midi": 82,
            "name": "A#5",
            "ticks": 105600,
            "time": 112.82061999999999,
            "velocity": 0.5669291338582677
          },
          {
            "duration": 0.03205131250000193,
            "durationTicks": 30,
            "midi": 42,
            "name": "F#2",
            "ticks": 105840,
            "time": 113.07703049999999,
            "velocity": 0.5905511811023622
          },
          {
            "duration": 0.03205131250000193,
            "durationTicks": 30,
            "midi": 82,
            "name": "A#5",
            "ticks": 105840,
            "time": 113.07703049999999,
            "velocity": 0.5511811023622047
          },
          {
            "duration": 0.03205131250000193,
            "durationTicks": 30,
            "midi": 40,
            "name": "E2",
            "ticks": 106080,
            "time": 113.333441,
            "velocity": 0.9291338582677166
          },
          {
            "duration": 0.03205131250000193,
            "durationTicks": 30,
            "midi": 42,
            "name": "F#2",
            "ticks": 106080,
            "time": 113.333441,
            "velocity": 0.47244094488188976
          },
          {
            "duration": 0.03205131250000193,
            "durationTicks": 30,
            "midi": 82,
            "name": "A#5",
            "ticks": 106080,
            "time": 113.333441,
            "velocity": 0.5354330708661418
          },
          {
            "duration": 0.03205131250000193,
            "durationTicks": 30,
            "midi": 42,
            "name": "F#2",
            "ticks": 106320,
            "time": 113.5898515,
            "velocity": 0.6299212598425197
          },
          {
            "duration": 0.03205131250000193,
            "durationTicks": 30,
            "midi": 82,
            "name": "A#5",
            "ticks": 106320,
            "time": 113.5898515,
            "velocity": 0.5511811023622047
          },
          {
            "duration": 0.03205131250000193,
            "durationTicks": 30,
            "midi": 36,
            "name": "C2",
            "ticks": 106560,
            "time": 113.846262,
            "velocity": 0.8740157480314961
          },
          {
            "duration": 0.03205131250000193,
            "durationTicks": 30,
            "midi": 42,
            "name": "F#2",
            "ticks": 106560,
            "time": 113.846262,
            "velocity": 0.49606299212598426
          },
          {
            "duration": 0.03205131250000193,
            "durationTicks": 30,
            "midi": 82,
            "name": "A#5",
            "ticks": 106560,
            "time": 113.846262,
            "velocity": 0.5511811023622047
          },
          {
            "duration": 0.03205131250000193,
            "durationTicks": 30,
            "midi": 42,
            "name": "F#2",
            "ticks": 106800,
            "time": 114.1026725,
            "velocity": 0.5905511811023622
          },
          {
            "duration": 0.03205131250000193,
            "durationTicks": 30,
            "midi": 82,
            "name": "A#5",
            "ticks": 106800,
            "time": 114.1026725,
            "velocity": 0.5826771653543307
          },
          {
            "duration": 0.03205131250000193,
            "durationTicks": 30,
            "midi": 40,
            "name": "E2",
            "ticks": 107040,
            "time": 114.359083,
            "velocity": 0.937007874015748
          },
          {
            "duration": 0.03205131250000193,
            "durationTicks": 30,
            "midi": 42,
            "name": "F#2",
            "ticks": 107040,
            "time": 114.359083,
            "velocity": 0.49606299212598426
          },
          {
            "duration": 0.03205131250000193,
            "durationTicks": 30,
            "midi": 82,
            "name": "A#5",
            "ticks": 107040,
            "time": 114.359083,
            "velocity": 0.5354330708661418
          },
          {
            "duration": 0.032051312499987716,
            "durationTicks": 30,
            "midi": 42,
            "name": "F#2",
            "ticks": 107280,
            "time": 114.6154935,
            "velocity": 0.6692913385826772
          },
          {
            "duration": 0.032051312499987716,
            "durationTicks": 30,
            "midi": 82,
            "name": "A#5",
            "ticks": 107280,
            "time": 114.6154935,
            "velocity": 0.5511811023622047
          },
          {
            "duration": 0.032051312499987716,
            "durationTicks": 30,
            "midi": 36,
            "name": "C2",
            "ticks": 107520,
            "time": 114.871904,
            "velocity": 0.8740157480314961
          },
          {
            "duration": 0.032051312499987716,
            "durationTicks": 30,
            "midi": 42,
            "name": "F#2",
            "ticks": 107520,
            "time": 114.871904,
            "velocity": 0.47244094488188976
          },
          {
            "duration": 0.032051312499987716,
            "durationTicks": 30,
            "midi": 82,
            "name": "A#5",
            "ticks": 107520,
            "time": 114.871904,
            "velocity": 0.5354330708661418
          },
          {
            "duration": 0.03205131250000193,
            "durationTicks": 30,
            "midi": 42,
            "name": "F#2",
            "ticks": 107760,
            "time": 115.12831449999999,
            "velocity": 0.5905511811023622
          },
          {
            "duration": 0.03205131250000193,
            "durationTicks": 30,
            "midi": 82,
            "name": "A#5",
            "ticks": 107760,
            "time": 115.12831449999999,
            "velocity": 0.48031496062992124
          },
          {
            "duration": 0.03205131250000193,
            "durationTicks": 30,
            "midi": 40,
            "name": "E2",
            "ticks": 108000,
            "time": 115.38472499999999,
            "velocity": 0.937007874015748
          },
          {
            "duration": 0.03205131250000193,
            "durationTicks": 30,
            "midi": 42,
            "name": "F#2",
            "ticks": 108000,
            "time": 115.38472499999999,
            "velocity": 0.4330708661417323
          },
          {
            "duration": 0.03205131250000193,
            "durationTicks": 30,
            "midi": 82,
            "name": "A#5",
            "ticks": 108000,
            "time": 115.38472499999999,
            "velocity": 0.48031496062992124
          },
          {
            "duration": 0.03205131250000193,
            "durationTicks": 30,
            "midi": 42,
            "name": "F#2",
            "ticks": 108240,
            "time": 115.64113549999999,
            "velocity": 0.6692913385826772
          },
          {
            "duration": 0.03205131250000193,
            "durationTicks": 30,
            "midi": 82,
            "name": "A#5",
            "ticks": 108240,
            "time": 115.64113549999999,
            "velocity": 0.44881889763779526
          },
          {
            "duration": 0.03205131250000193,
            "durationTicks": 30,
            "midi": 36,
            "name": "C2",
            "ticks": 108480,
            "time": 115.89754599999999,
            "velocity": 0.8740157480314961
          },
          {
            "duration": 0.03205131250000193,
            "durationTicks": 30,
            "midi": 42,
            "name": "F#2",
            "ticks": 108480,
            "time": 115.89754599999999,
            "velocity": 0.4094488188976378
          },
          {
            "duration": 0.03205131250000193,
            "durationTicks": 30,
            "midi": 82,
            "name": "A#5",
            "ticks": 108480,
            "time": 115.89754599999999,
            "velocity": 0.5039370078740157
          },
          {
            "duration": 0.03205131250000193,
            "durationTicks": 30,
            "midi": 42,
            "name": "F#2",
            "ticks": 108720,
            "time": 116.15395649999999,
            "velocity": 0.6299212598425197
          },
          {
            "duration": 0.03205131250000193,
            "durationTicks": 30,
            "midi": 82,
            "name": "A#5",
            "ticks": 108720,
            "time": 116.15395649999999,
            "velocity": 0.41732283464566927
          },
          {
            "duration": 0.03205131250000193,
            "durationTicks": 30,
            "midi": 40,
            "name": "E2",
            "ticks": 108960,
            "time": 116.410367,
            "velocity": 0.937007874015748
          },
          {
            "duration": 0.03205131250000193,
            "durationTicks": 30,
            "midi": 42,
            "name": "F#2",
            "ticks": 108960,
            "time": 116.410367,
            "velocity": 0.4094488188976378
          },
          {
            "duration": 0.03205131250000193,
            "durationTicks": 30,
            "midi": 82,
            "name": "A#5",
            "ticks": 108960,
            "time": 116.410367,
            "velocity": 0.5354330708661418
          },
          {
            "duration": 0.03205131250000193,
            "durationTicks": 30,
            "midi": 42,
            "name": "F#2",
            "ticks": 109200,
            "time": 116.6667775,
            "velocity": 0.6692913385826772
          },
          {
            "duration": 0.03205131250000193,
            "durationTicks": 30,
            "midi": 82,
            "name": "A#5",
            "ticks": 109200,
            "time": 116.6667775,
            "velocity": 0.5039370078740157
          },
          {
            "duration": 0.03205131250000193,
            "durationTicks": 30,
            "midi": 36,
            "name": "C2",
            "ticks": 109440,
            "time": 116.923188,
            "velocity": 0.8740157480314961
          },
          {
            "duration": 0.03205131250000193,
            "durationTicks": 30,
            "midi": 42,
            "name": "F#2",
            "ticks": 109440,
            "time": 116.923188,
            "velocity": 0.3779527559055118
          },
          {
            "duration": 0.03205131250000193,
            "durationTicks": 30,
            "midi": 82,
            "name": "A#5",
            "ticks": 109440,
            "time": 116.923188,
            "velocity": 0.4881889763779528
          },
          {
            "duration": 0.03205131250000193,
            "durationTicks": 30,
            "midi": 42,
            "name": "F#2",
            "ticks": 109680,
            "time": 117.1795985,
            "velocity": 0.5905511811023622
          },
          {
            "duration": 0.03205131250000193,
            "durationTicks": 30,
            "midi": 82,
            "name": "A#5",
            "ticks": 109680,
            "time": 117.1795985,
            "velocity": 0.4094488188976378
          },
          {
            "duration": 0.03205131250000193,
            "durationTicks": 30,
            "midi": 40,
            "name": "E2",
            "ticks": 109920,
            "time": 117.436009,
            "velocity": 0.9291338582677166
          },
          {
            "duration": 0.03205131250000193,
            "durationTicks": 30,
            "midi": 42,
            "name": "F#2",
            "ticks": 109920,
            "time": 117.436009,
            "velocity": 0.47244094488188976
          },
          {
            "duration": 0.03205131250000193,
            "durationTicks": 30,
            "midi": 82,
            "name": "A#5",
            "ticks": 109920,
            "time": 117.436009,
            "velocity": 0.5511811023622047
          },
          {
            "duration": 0.032051312499987716,
            "durationTicks": 30,
            "midi": 42,
            "name": "F#2",
            "ticks": 110160,
            "time": 117.6924195,
            "velocity": 0.6299212598425197
          },
          {
            "duration": 0.032051312499987716,
            "durationTicks": 30,
            "midi": 82,
            "name": "A#5",
            "ticks": 110160,
            "time": 117.6924195,
            "velocity": 0.4645669291338583
          },
          {
            "duration": 0.03205131250000193,
            "durationTicks": 30,
            "midi": 36,
            "name": "C2",
            "ticks": 110400,
            "time": 117.94882999999999,
            "velocity": 0.8740157480314961
          },
          {
            "duration": 0.03205131250000193,
            "durationTicks": 30,
            "midi": 42,
            "name": "F#2",
            "ticks": 110400,
            "time": 117.94882999999999,
            "velocity": 0.49606299212598426
          },
          {
            "duration": 0.03205131250000193,
            "durationTicks": 30,
            "midi": 82,
            "name": "A#5",
            "ticks": 110400,
            "time": 117.94882999999999,
            "velocity": 0.5354330708661418
          },
          {
            "duration": 0.03205131250000193,
            "durationTicks": 30,
            "midi": 42,
            "name": "F#2",
            "ticks": 110640,
            "time": 118.20524049999999,
            "velocity": 0.5905511811023622
          },
          {
            "duration": 0.03205131250000193,
            "durationTicks": 30,
            "midi": 82,
            "name": "A#5",
            "ticks": 110640,
            "time": 118.20524049999999,
            "velocity": 0.5196850393700787
          },
          {
            "duration": 0.03205131250000193,
            "durationTicks": 30,
            "midi": 40,
            "name": "E2",
            "ticks": 110880,
            "time": 118.46165099999999,
            "velocity": 0.937007874015748
          },
          {
            "duration": 0.03205131250000193,
            "durationTicks": 30,
            "midi": 42,
            "name": "F#2",
            "ticks": 110880,
            "time": 118.46165099999999,
            "velocity": 0.49606299212598426
          },
          {
            "duration": 0.03205131250000193,
            "durationTicks": 30,
            "midi": 82,
            "name": "A#5",
            "ticks": 110880,
            "time": 118.46165099999999,
            "velocity": 0.5826771653543307
          },
          {
            "duration": 0.03205131250000193,
            "durationTicks": 30,
            "midi": 42,
            "name": "F#2",
            "ticks": 111120,
            "time": 118.71806149999999,
            "velocity": 0.6692913385826772
          },
          {
            "duration": 0.03205131250000193,
            "durationTicks": 30,
            "midi": 82,
            "name": "A#5",
            "ticks": 111120,
            "time": 118.71806149999999,
            "velocity": 0.4409448818897638
          },
          {
            "duration": 0.03205131250000193,
            "durationTicks": 30,
            "midi": 36,
            "name": "C2",
            "ticks": 111360,
            "time": 118.97447199999999,
            "velocity": 0.8740157480314961
          },
          {
            "duration": 0.03205131250000193,
            "durationTicks": 30,
            "midi": 42,
            "name": "F#2",
            "ticks": 111360,
            "time": 118.97447199999999,
            "velocity": 0.47244094488188976
          },
          {
            "duration": 0.03205131250000193,
            "durationTicks": 30,
            "midi": 82,
            "name": "A#5",
            "ticks": 111360,
            "time": 118.97447199999999,
            "velocity": 0.5826771653543307
          },
          {
            "duration": 0.03205131250000193,
            "durationTicks": 30,
            "midi": 42,
            "name": "F#2",
            "ticks": 111600,
            "time": 119.23088249999999,
            "velocity": 0.5905511811023622
          },
          {
            "duration": 0.03205131250000193,
            "durationTicks": 30,
            "midi": 82,
            "name": "A#5",
            "ticks": 111600,
            "time": 119.23088249999999,
            "velocity": 0.5039370078740157
          },
          {
            "duration": 0.03205131250000193,
            "durationTicks": 30,
            "midi": 40,
            "name": "E2",
            "ticks": 111840,
            "time": 119.487293,
            "velocity": 0.937007874015748
          },
          {
            "duration": 0.03205131250000193,
            "durationTicks": 30,
            "midi": 42,
            "name": "F#2",
            "ticks": 111840,
            "time": 119.487293,
            "velocity": 0.4330708661417323
          },
          {
            "duration": 0.03205131250000193,
            "durationTicks": 30,
            "midi": 82,
            "name": "A#5",
            "ticks": 111840,
            "time": 119.487293,
            "velocity": 0.5669291338582677
          },
          {
            "duration": 0.03205131250000193,
            "durationTicks": 30,
            "midi": 42,
            "name": "F#2",
            "ticks": 112080,
            "time": 119.7437035,
            "velocity": 0.6692913385826772
          },
          {
            "duration": 0.03205131250000193,
            "durationTicks": 30,
            "midi": 82,
            "name": "A#5",
            "ticks": 112080,
            "time": 119.7437035,
            "velocity": 0.5196850393700787
          },
          {
            "duration": 0.03205131250000193,
            "durationTicks": 30,
            "midi": 36,
            "name": "C2",
            "ticks": 112320,
            "time": 120.000114,
            "velocity": 0.8740157480314961
          },
          {
            "duration": 0.03205131250000193,
            "durationTicks": 30,
            "midi": 42,
            "name": "F#2",
            "ticks": 112320,
            "time": 120.000114,
            "velocity": 0.4094488188976378
          },
          {
            "duration": 0.03205131250000193,
            "durationTicks": 30,
            "midi": 82,
            "name": "A#5",
            "ticks": 112320,
            "time": 120.000114,
            "velocity": 0.4881889763779528
          },
          {
            "duration": 0.03205131250000193,
            "durationTicks": 30,
            "midi": 42,
            "name": "F#2",
            "ticks": 112560,
            "time": 120.2565245,
            "velocity": 0.6299212598425197
          },
          {
            "duration": 0.03205131250000193,
            "durationTicks": 30,
            "midi": 82,
            "name": "A#5",
            "ticks": 112560,
            "time": 120.2565245,
            "velocity": 0.5196850393700787
          },
          {
            "duration": 0.032051312499987716,
            "durationTicks": 30,
            "midi": 40,
            "name": "E2",
            "ticks": 112800,
            "time": 120.512935,
            "velocity": 0.937007874015748
          },
          {
            "duration": 0.032051312499987716,
            "durationTicks": 30,
            "midi": 42,
            "name": "F#2",
            "ticks": 112800,
            "time": 120.512935,
            "velocity": 0.4094488188976378
          },
          {
            "duration": 0.032051312499987716,
            "durationTicks": 30,
            "midi": 82,
            "name": "A#5",
            "ticks": 112800,
            "time": 120.512935,
            "velocity": 0.5511811023622047
          },
          {
            "duration": 0.032051312499987716,
            "durationTicks": 30,
            "midi": 42,
            "name": "F#2",
            "ticks": 113040,
            "time": 120.7693455,
            "velocity": 0.6692913385826772
          },
          {
            "duration": 0.032051312499987716,
            "durationTicks": 30,
            "midi": 82,
            "name": "A#5",
            "ticks": 113040,
            "time": 120.7693455,
            "velocity": 0.5511811023622047
          },
          {
            "duration": 0.03205131250000193,
            "durationTicks": 30,
            "midi": 36,
            "name": "C2",
            "ticks": 113280,
            "time": 121.02575599999999,
            "velocity": 0.8740157480314961
          },
          {
            "duration": 0.03205131250000193,
            "durationTicks": 30,
            "midi": 42,
            "name": "F#2",
            "ticks": 113280,
            "time": 121.02575599999999,
            "velocity": 0.3779527559055118
          },
          {
            "duration": 0.03205131250000193,
            "durationTicks": 30,
            "midi": 82,
            "name": "A#5",
            "ticks": 113280,
            "time": 121.02575599999999,
            "velocity": 0.5669291338582677
          },
          {
            "duration": 0.03205131250000193,
            "durationTicks": 30,
            "midi": 42,
            "name": "F#2",
            "ticks": 113520,
            "time": 121.28216649999999,
            "velocity": 0.5905511811023622
          },
          {
            "duration": 0.03205131250000193,
            "durationTicks": 30,
            "midi": 82,
            "name": "A#5",
            "ticks": 113520,
            "time": 121.28216649999999,
            "velocity": 0.5511811023622047
          },
          {
            "duration": 0.03205131250000193,
            "durationTicks": 30,
            "midi": 40,
            "name": "E2",
            "ticks": 113760,
            "time": 121.53857699999999,
            "velocity": 0.9291338582677166
          },
          {
            "duration": 0.03205131250000193,
            "durationTicks": 30,
            "midi": 42,
            "name": "F#2",
            "ticks": 113760,
            "time": 121.53857699999999,
            "velocity": 0.47244094488188976
          },
          {
            "duration": 0.03205131250000193,
            "durationTicks": 30,
            "midi": 82,
            "name": "A#5",
            "ticks": 113760,
            "time": 121.53857699999999,
            "velocity": 0.5354330708661418
          },
          {
            "duration": 0.03205131250000193,
            "durationTicks": 30,
            "midi": 42,
            "name": "F#2",
            "ticks": 114000,
            "time": 121.79498749999999,
            "velocity": 0.6299212598425197
          },
          {
            "duration": 0.03205131250000193,
            "durationTicks": 30,
            "midi": 82,
            "name": "A#5",
            "ticks": 114000,
            "time": 121.79498749999999,
            "velocity": 0.5511811023622047
          },
          {
            "duration": 0.03205131250000193,
            "durationTicks": 30,
            "midi": 36,
            "name": "C2",
            "ticks": 114240,
            "time": 122.05139799999999,
            "velocity": 0.8740157480314961
          },
          {
            "duration": 0.03205131250000193,
            "durationTicks": 30,
            "midi": 42,
            "name": "F#2",
            "ticks": 114240,
            "time": 122.05139799999999,
            "velocity": 0.49606299212598426
          },
          {
            "duration": 0.03205131250000193,
            "durationTicks": 30,
            "midi": 82,
            "name": "A#5",
            "ticks": 114240,
            "time": 122.05139799999999,
            "velocity": 0.5511811023622047
          },
          {
            "duration": 0.03205131250000193,
            "durationTicks": 30,
            "midi": 42,
            "name": "F#2",
            "ticks": 114480,
            "time": 122.3078085,
            "velocity": 0.5905511811023622
          },
          {
            "duration": 0.03205131250000193,
            "durationTicks": 30,
            "midi": 82,
            "name": "A#5",
            "ticks": 114480,
            "time": 122.3078085,
            "velocity": 0.5826771653543307
          },
          {
            "duration": 0.03205131250000193,
            "durationTicks": 30,
            "midi": 40,
            "name": "E2",
            "ticks": 114720,
            "time": 122.564219,
            "velocity": 0.937007874015748
          },
          {
            "duration": 0.03205131250000193,
            "durationTicks": 30,
            "midi": 42,
            "name": "F#2",
            "ticks": 114720,
            "time": 122.564219,
            "velocity": 0.49606299212598426
          },
          {
            "duration": 0.03205131250000193,
            "durationTicks": 30,
            "midi": 82,
            "name": "A#5",
            "ticks": 114720,
            "time": 122.564219,
            "velocity": 0.5354330708661418
          },
          {
            "duration": 0.03205131250000193,
            "durationTicks": 30,
            "midi": 42,
            "name": "F#2",
            "ticks": 114960,
            "time": 122.8206295,
            "velocity": 0.6692913385826772
          },
          {
            "duration": 0.03205131250000193,
            "durationTicks": 30,
            "midi": 82,
            "name": "A#5",
            "ticks": 114960,
            "time": 122.8206295,
            "velocity": 0.5511811023622047
          },
          {
            "duration": 0.03205131250000193,
            "durationTicks": 30,
            "midi": 36,
            "name": "C2",
            "ticks": 115200,
            "time": 123.07704,
            "velocity": 0.8740157480314961
          },
          {
            "duration": 0.03205131250000193,
            "durationTicks": 30,
            "midi": 42,
            "name": "F#2",
            "ticks": 115200,
            "time": 123.07704,
            "velocity": 0.47244094488188976
          },
          {
            "duration": 0.03205131250000193,
            "durationTicks": 30,
            "midi": 82,
            "name": "A#5",
            "ticks": 115200,
            "time": 123.07704,
            "velocity": 0.5354330708661418
          },
          {
            "duration": 0.03205131250000193,
            "durationTicks": 30,
            "midi": 42,
            "name": "F#2",
            "ticks": 115440,
            "time": 123.3334505,
            "velocity": 0.5905511811023622
          },
          {
            "duration": 0.03205131250000193,
            "durationTicks": 30,
            "midi": 82,
            "name": "A#5",
            "ticks": 115440,
            "time": 123.3334505,
            "velocity": 0.48031496062992124
          },
          {
            "duration": 0.032051312499987716,
            "durationTicks": 30,
            "midi": 40,
            "name": "E2",
            "ticks": 115680,
            "time": 123.589861,
            "velocity": 0.937007874015748
          },
          {
            "duration": 0.032051312499987716,
            "durationTicks": 30,
            "midi": 42,
            "name": "F#2",
            "ticks": 115680,
            "time": 123.589861,
            "velocity": 0.4330708661417323
          },
          {
            "duration": 0.032051312499987716,
            "durationTicks": 30,
            "midi": 82,
            "name": "A#5",
            "ticks": 115680,
            "time": 123.589861,
            "velocity": 0.48031496062992124
          },
          {
            "duration": 0.03205131250000193,
            "durationTicks": 30,
            "midi": 42,
            "name": "F#2",
            "ticks": 115920,
            "time": 123.84627149999999,
            "velocity": 0.6692913385826772
          },
          {
            "duration": 0.03205131250000193,
            "durationTicks": 30,
            "midi": 82,
            "name": "A#5",
            "ticks": 115920,
            "time": 123.84627149999999,
            "velocity": 0.44881889763779526
          },
          {
            "duration": 0.03205131250000193,
            "durationTicks": 30,
            "midi": 36,
            "name": "C2",
            "ticks": 116160,
            "time": 124.10268199999999,
            "velocity": 0.8740157480314961
          },
          {
            "duration": 0.03205131250000193,
            "durationTicks": 30,
            "midi": 42,
            "name": "F#2",
            "ticks": 116160,
            "time": 124.10268199999999,
            "velocity": 0.4094488188976378
          },
          {
            "duration": 0.03205131250000193,
            "durationTicks": 30,
            "midi": 82,
            "name": "A#5",
            "ticks": 116160,
            "time": 124.10268199999999,
            "velocity": 0.5039370078740157
          },
          {
            "duration": 0.03205131250000193,
            "durationTicks": 30,
            "midi": 42,
            "name": "F#2",
            "ticks": 116400,
            "time": 124.35909249999999,
            "velocity": 0.6299212598425197
          },
          {
            "duration": 0.03205131250000193,
            "durationTicks": 30,
            "midi": 82,
            "name": "A#5",
            "ticks": 116400,
            "time": 124.35909249999999,
            "velocity": 0.41732283464566927
          },
          {
            "duration": 0.03205131250000193,
            "durationTicks": 30,
            "midi": 40,
            "name": "E2",
            "ticks": 116640,
            "time": 124.61550299999999,
            "velocity": 0.937007874015748
          },
          {
            "duration": 0.03205131250000193,
            "durationTicks": 30,
            "midi": 42,
            "name": "F#2",
            "ticks": 116640,
            "time": 124.61550299999999,
            "velocity": 0.4094488188976378
          },
          {
            "duration": 0.03205131250000193,
            "durationTicks": 30,
            "midi": 82,
            "name": "A#5",
            "ticks": 116640,
            "time": 124.61550299999999,
            "velocity": 0.5354330708661418
          },
          {
            "duration": 0.03205131250000193,
            "durationTicks": 30,
            "midi": 42,
            "name": "F#2",
            "ticks": 116880,
            "time": 124.87191349999999,
            "velocity": 0.6692913385826772
          },
          {
            "duration": 0.03205131250000193,
            "durationTicks": 30,
            "midi": 82,
            "name": "A#5",
            "ticks": 116880,
            "time": 124.87191349999999,
            "velocity": 0.5039370078740157
          },
          {
            "duration": 0.03205131250000193,
            "durationTicks": 30,
            "midi": 36,
            "name": "C2",
            "ticks": 117120,
            "time": 125.12832399999999,
            "velocity": 0.8740157480314961
          },
          {
            "duration": 0.03205131250000193,
            "durationTicks": 30,
            "midi": 42,
            "name": "F#2",
            "ticks": 117120,
            "time": 125.12832399999999,
            "velocity": 0.3779527559055118
          },
          {
            "duration": 0.03205131250000193,
            "durationTicks": 30,
            "midi": 82,
            "name": "A#5",
            "ticks": 117120,
            "time": 125.12832399999999,
            "velocity": 0.4881889763779528
          },
          {
            "duration": 0.03205131250000193,
            "durationTicks": 30,
            "midi": 42,
            "name": "F#2",
            "ticks": 117360,
            "time": 125.3847345,
            "velocity": 0.5905511811023622
          },
          {
            "duration": 0.03205131250000193,
            "durationTicks": 30,
            "midi": 82,
            "name": "A#5",
            "ticks": 117360,
            "time": 125.3847345,
            "velocity": 0.4094488188976378
          },
          {
            "duration": 0.03205131250000193,
            "durationTicks": 30,
            "midi": 40,
            "name": "E2",
            "ticks": 117600,
            "time": 125.641145,
            "velocity": 0.9291338582677166
          },
          {
            "duration": 0.03205131250000193,
            "durationTicks": 30,
            "midi": 42,
            "name": "F#2",
            "ticks": 117600,
            "time": 125.641145,
            "velocity": 0.47244094488188976
          },
          {
            "duration": 0.03205131250000193,
            "durationTicks": 30,
            "midi": 82,
            "name": "A#5",
            "ticks": 117600,
            "time": 125.641145,
            "velocity": 0.5511811023622047
          },
          {
            "duration": 0.03205131250000193,
            "durationTicks": 30,
            "midi": 42,
            "name": "F#2",
            "ticks": 117840,
            "time": 125.8975555,
            "velocity": 0.6299212598425197
          },
          {
            "duration": 0.03205131250000193,
            "durationTicks": 30,
            "midi": 82,
            "name": "A#5",
            "ticks": 117840,
            "time": 125.8975555,
            "velocity": 0.4645669291338583
          },
          {
            "duration": 0.03205131250000193,
            "durationTicks": 30,
            "midi": 36,
            "name": "C2",
            "ticks": 118080,
            "time": 126.153966,
            "velocity": 0.8740157480314961
          },
          {
            "duration": 0.03205131250000193,
            "durationTicks": 30,
            "midi": 42,
            "name": "F#2",
            "ticks": 118080,
            "time": 126.153966,
            "velocity": 0.49606299212598426
          },
          {
            "duration": 0.03205131250000193,
            "durationTicks": 30,
            "midi": 82,
            "name": "A#5",
            "ticks": 118080,
            "time": 126.153966,
            "velocity": 0.5354330708661418
          },
          {
            "duration": 0.032051312499987716,
            "durationTicks": 30,
            "midi": 42,
            "name": "F#2",
            "ticks": 118320,
            "time": 126.4103765,
            "velocity": 0.5905511811023622
          },
          {
            "duration": 0.032051312499987716,
            "durationTicks": 30,
            "midi": 82,
            "name": "A#5",
            "ticks": 118320,
            "time": 126.4103765,
            "velocity": 0.5196850393700787
          },
          {
            "duration": 0.032051312499987716,
            "durationTicks": 30,
            "midi": 40,
            "name": "E2",
            "ticks": 118560,
            "time": 126.666787,
            "velocity": 0.937007874015748
          },
          {
            "duration": 0.032051312499987716,
            "durationTicks": 30,
            "midi": 42,
            "name": "F#2",
            "ticks": 118560,
            "time": 126.666787,
            "velocity": 0.49606299212598426
          },
          {
            "duration": 0.032051312499987716,
            "durationTicks": 30,
            "midi": 82,
            "name": "A#5",
            "ticks": 118560,
            "time": 126.666787,
            "velocity": 0.5826771653543307
          },
          {
            "duration": 0.03205131250000193,
            "durationTicks": 30,
            "midi": 42,
            "name": "F#2",
            "ticks": 118800,
            "time": 126.92319749999999,
            "velocity": 0.6692913385826772
          },
          {
            "duration": 0.03205131250000193,
            "durationTicks": 30,
            "midi": 82,
            "name": "A#5",
            "ticks": 118800,
            "time": 126.92319749999999,
            "velocity": 0.4409448818897638
          },
          {
            "duration": 0.03205131250000193,
            "durationTicks": 30,
            "midi": 36,
            "name": "C2",
            "ticks": 119040,
            "time": 127.17960799999999,
            "velocity": 0.8740157480314961
          },
          {
            "duration": 0.03205131250000193,
            "durationTicks": 30,
            "midi": 42,
            "name": "F#2",
            "ticks": 119040,
            "time": 127.17960799999999,
            "velocity": 0.47244094488188976
          },
          {
            "duration": 0.03205131250000193,
            "durationTicks": 30,
            "midi": 82,
            "name": "A#5",
            "ticks": 119040,
            "time": 127.17960799999999,
            "velocity": 0.5826771653543307
          },
          {
            "duration": 0.03205131250000193,
            "durationTicks": 30,
            "midi": 42,
            "name": "F#2",
            "ticks": 119280,
            "time": 127.43601849999999,
            "velocity": 0.5905511811023622
          },
          {
            "duration": 0.03205131250000193,
            "durationTicks": 30,
            "midi": 82,
            "name": "A#5",
            "ticks": 119280,
            "time": 127.43601849999999,
            "velocity": 0.5039370078740157
          },
          {
            "duration": 0.03205131250000193,
            "durationTicks": 30,
            "midi": 40,
            "name": "E2",
            "ticks": 119520,
            "time": 127.69242899999999,
            "velocity": 0.937007874015748
          },
          {
            "duration": 0.03205131250000193,
            "durationTicks": 30,
            "midi": 42,
            "name": "F#2",
            "ticks": 119520,
            "time": 127.69242899999999,
            "velocity": 0.4330708661417323
          },
          {
            "duration": 0.03205131250000193,
            "durationTicks": 30,
            "midi": 82,
            "name": "A#5",
            "ticks": 119520,
            "time": 127.69242899999999,
            "velocity": 0.5669291338582677
          },
          {
            "duration": 0.03205131250000193,
            "durationTicks": 30,
            "midi": 42,
            "name": "F#2",
            "ticks": 119760,
            "time": 127.94883949999999,
            "velocity": 0.6692913385826772
          },
          {
            "duration": 0.03205131250000193,
            "durationTicks": 30,
            "midi": 82,
            "name": "A#5",
            "ticks": 119760,
            "time": 127.94883949999999,
            "velocity": 0.5196850393700787
          },
          {
            "duration": 0.032051312499987716,
            "durationTicks": 30,
            "midi": 36,
            "name": "C2",
            "ticks": 120000,
            "time": 128.20525,
            "velocity": 0.8740157480314961
          },
          {
            "duration": 0.032051312499987716,
            "durationTicks": 30,
            "midi": 42,
            "name": "F#2",
            "ticks": 120000,
            "time": 128.20525,
            "velocity": 0.4094488188976378
          },
          {
            "duration": 0.032051312499987716,
            "durationTicks": 30,
            "midi": 82,
            "name": "A#5",
            "ticks": 120000,
            "time": 128.20525,
            "velocity": 0.4881889763779528
          },
          {
            "duration": 0.032051312499987716,
            "durationTicks": 30,
            "midi": 42,
            "name": "F#2",
            "ticks": 120240,
            "time": 128.4616605,
            "velocity": 0.6299212598425197
          },
          {
            "duration": 0.032051312499987716,
            "durationTicks": 30,
            "midi": 82,
            "name": "A#5",
            "ticks": 120240,
            "time": 128.4616605,
            "velocity": 0.5196850393700787
          },
          {
            "duration": 0.03205131250001614,
            "durationTicks": 30,
            "midi": 40,
            "name": "E2",
            "ticks": 120480,
            "time": 128.71807099999998,
            "velocity": 0.937007874015748
          },
          {
            "duration": 0.03205131250001614,
            "durationTicks": 30,
            "midi": 42,
            "name": "F#2",
            "ticks": 120480,
            "time": 128.71807099999998,
            "velocity": 0.4094488188976378
          },
          {
            "duration": 0.03205131250001614,
            "durationTicks": 30,
            "midi": 82,
            "name": "A#5",
            "ticks": 120480,
            "time": 128.71807099999998,
            "velocity": 0.5511811023622047
          },
          {
            "duration": 0.032051312499987716,
            "durationTicks": 30,
            "midi": 42,
            "name": "F#2",
            "ticks": 120720,
            "time": 128.9744815,
            "velocity": 0.6692913385826772
          },
          {
            "duration": 0.032051312499987716,
            "durationTicks": 30,
            "midi": 82,
            "name": "A#5",
            "ticks": 120720,
            "time": 128.9744815,
            "velocity": 0.5511811023622047
          },
          {
            "duration": 0.03205131250001614,
            "durationTicks": 30,
            "midi": 36,
            "name": "C2",
            "ticks": 120960,
            "time": 129.23089199999998,
            "velocity": 0.8740157480314961
          },
          {
            "duration": 0.03205131250001614,
            "durationTicks": 30,
            "midi": 42,
            "name": "F#2",
            "ticks": 120960,
            "time": 129.23089199999998,
            "velocity": 0.3779527559055118
          },
          {
            "duration": 0.03205131250001614,
            "durationTicks": 30,
            "midi": 82,
            "name": "A#5",
            "ticks": 120960,
            "time": 129.23089199999998,
            "velocity": 0.5669291338582677
          },
          {
            "duration": 0.032051312499987716,
            "durationTicks": 30,
            "midi": 42,
            "name": "F#2",
            "ticks": 121200,
            "time": 129.4873025,
            "velocity": 0.5905511811023622
          },
          {
            "duration": 0.032051312499987716,
            "durationTicks": 30,
            "midi": 82,
            "name": "A#5",
            "ticks": 121200,
            "time": 129.4873025,
            "velocity": 0.5511811023622047
          },
          {
            "duration": 0.03205131250001614,
            "durationTicks": 30,
            "midi": 40,
            "name": "E2",
            "ticks": 121440,
            "time": 129.74371299999999,
            "velocity": 0.9291338582677166
          },
          {
            "duration": 0.03205131250001614,
            "durationTicks": 30,
            "midi": 42,
            "name": "F#2",
            "ticks": 121440,
            "time": 129.74371299999999,
            "velocity": 0.47244094488188976
          },
          {
            "duration": 0.03205131250001614,
            "durationTicks": 30,
            "midi": 82,
            "name": "A#5",
            "ticks": 121440,
            "time": 129.74371299999999,
            "velocity": 0.5354330708661418
          },
          {
            "duration": 0.032051312499987716,
            "durationTicks": 30,
            "midi": 42,
            "name": "F#2",
            "ticks": 121680,
            "time": 130.0001235,
            "velocity": 0.6299212598425197
          },
          {
            "duration": 0.032051312499987716,
            "durationTicks": 30,
            "midi": 82,
            "name": "A#5",
            "ticks": 121680,
            "time": 130.0001235,
            "velocity": 0.5511811023622047
          },
          {
            "duration": 0.03205131250001614,
            "durationTicks": 30,
            "midi": 36,
            "name": "C2",
            "ticks": 121920,
            "time": 130.256534,
            "velocity": 0.8740157480314961
          },
          {
            "duration": 0.03205131250001614,
            "durationTicks": 30,
            "midi": 42,
            "name": "F#2",
            "ticks": 121920,
            "time": 130.256534,
            "velocity": 0.49606299212598426
          },
          {
            "duration": 0.03205131250001614,
            "durationTicks": 30,
            "midi": 82,
            "name": "A#5",
            "ticks": 121920,
            "time": 130.256534,
            "velocity": 0.5511811023622047
          },
          {
            "duration": 0.032051312499987716,
            "durationTicks": 30,
            "midi": 42,
            "name": "F#2",
            "ticks": 122160,
            "time": 130.5129445,
            "velocity": 0.5905511811023622
          },
          {
            "duration": 0.032051312499987716,
            "durationTicks": 30,
            "midi": 82,
            "name": "A#5",
            "ticks": 122160,
            "time": 130.5129445,
            "velocity": 0.5826771653543307
          },
          {
            "duration": 0.03205131250001614,
            "durationTicks": 30,
            "midi": 40,
            "name": "E2",
            "ticks": 122400,
            "time": 130.769355,
            "velocity": 0.937007874015748
          },
          {
            "duration": 0.03205131250001614,
            "durationTicks": 30,
            "midi": 42,
            "name": "F#2",
            "ticks": 122400,
            "time": 130.769355,
            "velocity": 0.49606299212598426
          },
          {
            "duration": 0.03205131250001614,
            "durationTicks": 30,
            "midi": 82,
            "name": "A#5",
            "ticks": 122400,
            "time": 130.769355,
            "velocity": 0.5354330708661418
          },
          {
            "duration": 0.032051312499987716,
            "durationTicks": 30,
            "midi": 42,
            "name": "F#2",
            "ticks": 122640,
            "time": 131.0257655,
            "velocity": 0.6692913385826772
          },
          {
            "duration": 0.032051312499987716,
            "durationTicks": 30,
            "midi": 82,
            "name": "A#5",
            "ticks": 122640,
            "time": 131.0257655,
            "velocity": 0.5511811023622047
          },
          {
            "duration": 0.032051312499987716,
            "durationTicks": 30,
            "midi": 36,
            "name": "C2",
            "ticks": 122880,
            "time": 131.282176,
            "velocity": 0.8740157480314961
          },
          {
            "duration": 0.032051312499987716,
            "durationTicks": 30,
            "midi": 42,
            "name": "F#2",
            "ticks": 122880,
            "time": 131.282176,
            "velocity": 0.47244094488188976
          },
          {
            "duration": 0.032051312499987716,
            "durationTicks": 30,
            "midi": 82,
            "name": "A#5",
            "ticks": 122880,
            "time": 131.282176,
            "velocity": 0.5354330708661418
          },
          {
            "duration": 0.03205131250001614,
            "durationTicks": 30,
            "midi": 42,
            "name": "F#2",
            "ticks": 123120,
            "time": 131.53858649999998,
            "velocity": 0.5905511811023622
          },
          {
            "duration": 0.03205131250001614,
            "durationTicks": 30,
            "midi": 82,
            "name": "A#5",
            "ticks": 123120,
            "time": 131.53858649999998,
            "velocity": 0.48031496062992124
          },
          {
            "duration": 0.032051312499987716,
            "durationTicks": 30,
            "midi": 40,
            "name": "E2",
            "ticks": 123360,
            "time": 131.794997,
            "velocity": 0.937007874015748
          },
          {
            "duration": 0.032051312499987716,
            "durationTicks": 30,
            "midi": 42,
            "name": "F#2",
            "ticks": 123360,
            "time": 131.794997,
            "velocity": 0.4330708661417323
          },
          {
            "duration": 0.032051312499987716,
            "durationTicks": 30,
            "midi": 82,
            "name": "A#5",
            "ticks": 123360,
            "time": 131.794997,
            "velocity": 0.48031496062992124
          },
          {
            "duration": 0.03205131250001614,
            "durationTicks": 30,
            "midi": 42,
            "name": "F#2",
            "ticks": 123600,
            "time": 132.05140749999998,
            "velocity": 0.6692913385826772
          },
          {
            "duration": 0.03205131250001614,
            "durationTicks": 30,
            "midi": 82,
            "name": "A#5",
            "ticks": 123600,
            "time": 132.05140749999998,
            "velocity": 0.44881889763779526
          },
          {
            "duration": 0.032051312499987716,
            "durationTicks": 30,
            "midi": 36,
            "name": "C2",
            "ticks": 123840,
            "time": 132.307818,
            "velocity": 0.8740157480314961
          },
          {
            "duration": 0.032051312499987716,
            "durationTicks": 30,
            "midi": 42,
            "name": "F#2",
            "ticks": 123840,
            "time": 132.307818,
            "velocity": 0.4094488188976378
          },
          {
            "duration": 0.032051312499987716,
            "durationTicks": 30,
            "midi": 82,
            "name": "A#5",
            "ticks": 123840,
            "time": 132.307818,
            "velocity": 0.5039370078740157
          },
          {
            "duration": 0.03205131250001614,
            "durationTicks": 30,
            "midi": 42,
            "name": "F#2",
            "ticks": 124080,
            "time": 132.56422849999998,
            "velocity": 0.6299212598425197
          },
          {
            "duration": 0.03205131250001614,
            "durationTicks": 30,
            "midi": 82,
            "name": "A#5",
            "ticks": 124080,
            "time": 132.56422849999998,
            "velocity": 0.41732283464566927
          },
          {
            "duration": 0.032051312499987716,
            "durationTicks": 30,
            "midi": 40,
            "name": "E2",
            "ticks": 124320,
            "time": 132.820639,
            "velocity": 0.937007874015748
          },
          {
            "duration": 0.032051312499987716,
            "durationTicks": 30,
            "midi": 42,
            "name": "F#2",
            "ticks": 124320,
            "time": 132.820639,
            "velocity": 0.4094488188976378
          },
          {
            "duration": 0.032051312499987716,
            "durationTicks": 30,
            "midi": 82,
            "name": "A#5",
            "ticks": 124320,
            "time": 132.820639,
            "velocity": 0.5354330708661418
          },
          {
            "duration": 0.03205131250001614,
            "durationTicks": 30,
            "midi": 42,
            "name": "F#2",
            "ticks": 124560,
            "time": 133.0770495,
            "velocity": 0.6692913385826772
          },
          {
            "duration": 0.03205131250001614,
            "durationTicks": 30,
            "midi": 82,
            "name": "A#5",
            "ticks": 124560,
            "time": 133.0770495,
            "velocity": 0.5039370078740157
          },
          {
            "duration": 0.032051312499987716,
            "durationTicks": 30,
            "midi": 36,
            "name": "C2",
            "ticks": 124800,
            "time": 133.33346,
            "velocity": 0.8740157480314961
          },
          {
            "duration": 0.032051312499987716,
            "durationTicks": 30,
            "midi": 42,
            "name": "F#2",
            "ticks": 124800,
            "time": 133.33346,
            "velocity": 0.3779527559055118
          },
          {
            "duration": 0.032051312499987716,
            "durationTicks": 30,
            "midi": 82,
            "name": "A#5",
            "ticks": 124800,
            "time": 133.33346,
            "velocity": 0.4881889763779528
          },
          {
            "duration": 0.03205131250001614,
            "durationTicks": 30,
            "midi": 42,
            "name": "F#2",
            "ticks": 125040,
            "time": 133.5898705,
            "velocity": 0.5905511811023622
          },
          {
            "duration": 0.03205131250001614,
            "durationTicks": 30,
            "midi": 82,
            "name": "A#5",
            "ticks": 125040,
            "time": 133.5898705,
            "velocity": 0.4094488188976378
          },
          {
            "duration": 0.032051312499987716,
            "durationTicks": 30,
            "midi": 40,
            "name": "E2",
            "ticks": 125280,
            "time": 133.846281,
            "velocity": 0.9291338582677166
          },
          {
            "duration": 0.032051312499987716,
            "durationTicks": 30,
            "midi": 42,
            "name": "F#2",
            "ticks": 125280,
            "time": 133.846281,
            "velocity": 0.47244094488188976
          },
          {
            "duration": 0.032051312499987716,
            "durationTicks": 30,
            "midi": 82,
            "name": "A#5",
            "ticks": 125280,
            "time": 133.846281,
            "velocity": 0.5511811023622047
          },
          {
            "duration": 0.032051312499987716,
            "durationTicks": 30,
            "midi": 42,
            "name": "F#2",
            "ticks": 125520,
            "time": 134.1026915,
            "velocity": 0.6299212598425197
          },
          {
            "duration": 0.032051312499987716,
            "durationTicks": 30,
            "midi": 82,
            "name": "A#5",
            "ticks": 125520,
            "time": 134.1026915,
            "velocity": 0.4645669291338583
          },
          {
            "duration": 0.03205131250001614,
            "durationTicks": 30,
            "midi": 36,
            "name": "C2",
            "ticks": 125760,
            "time": 134.35910199999998,
            "velocity": 0.8740157480314961
          },
          {
            "duration": 0.03205131250001614,
            "durationTicks": 30,
            "midi": 42,
            "name": "F#2",
            "ticks": 125760,
            "time": 134.35910199999998,
            "velocity": 0.49606299212598426
          },
          {
            "duration": 0.03205131250001614,
            "durationTicks": 30,
            "midi": 82,
            "name": "A#5",
            "ticks": 125760,
            "time": 134.35910199999998,
            "velocity": 0.5354330708661418
          },
          {
            "duration": 0.032051312499987716,
            "durationTicks": 30,
            "midi": 42,
            "name": "F#2",
            "ticks": 126000,
            "time": 134.6155125,
            "velocity": 0.5905511811023622
          },
          {
            "duration": 0.032051312499987716,
            "durationTicks": 30,
            "midi": 82,
            "name": "A#5",
            "ticks": 126000,
            "time": 134.6155125,
            "velocity": 0.5196850393700787
          },
          {
            "duration": 0.03205131250001614,
            "durationTicks": 30,
            "midi": 40,
            "name": "E2",
            "ticks": 126240,
            "time": 134.87192299999998,
            "velocity": 0.937007874015748
          },
          {
            "duration": 0.03205131250001614,
            "durationTicks": 30,
            "midi": 42,
            "name": "F#2",
            "ticks": 126240,
            "time": 134.87192299999998,
            "velocity": 0.49606299212598426
          },
          {
            "duration": 0.03205131250001614,
            "durationTicks": 30,
            "midi": 82,
            "name": "A#5",
            "ticks": 126240,
            "time": 134.87192299999998,
            "velocity": 0.5826771653543307
          },
          {
            "duration": 0.032051312499987716,
            "durationTicks": 30,
            "midi": 42,
            "name": "F#2",
            "ticks": 126480,
            "time": 135.1283335,
            "velocity": 0.6692913385826772
          },
          {
            "duration": 0.032051312499987716,
            "durationTicks": 30,
            "midi": 82,
            "name": "A#5",
            "ticks": 126480,
            "time": 135.1283335,
            "velocity": 0.4409448818897638
          },
          {
            "duration": 0.03205131250001614,
            "durationTicks": 30,
            "midi": 36,
            "name": "C2",
            "ticks": 126720,
            "time": 135.38474399999998,
            "velocity": 0.8740157480314961
          },
          {
            "duration": 0.03205131250001614,
            "durationTicks": 30,
            "midi": 42,
            "name": "F#2",
            "ticks": 126720,
            "time": 135.38474399999998,
            "velocity": 0.47244094488188976
          },
          {
            "duration": 0.03205131250001614,
            "durationTicks": 30,
            "midi": 82,
            "name": "A#5",
            "ticks": 126720,
            "time": 135.38474399999998,
            "velocity": 0.5826771653543307
          },
          {
            "duration": 0.032051312499987716,
            "durationTicks": 30,
            "midi": 42,
            "name": "F#2",
            "ticks": 126960,
            "time": 135.6411545,
            "velocity": 0.5905511811023622
          },
          {
            "duration": 0.032051312499987716,
            "durationTicks": 30,
            "midi": 82,
            "name": "A#5",
            "ticks": 126960,
            "time": 135.6411545,
            "velocity": 0.5039370078740157
          },
          {
            "duration": 0.03205131250001614,
            "durationTicks": 30,
            "midi": 40,
            "name": "E2",
            "ticks": 127200,
            "time": 135.897565,
            "velocity": 0.937007874015748
          },
          {
            "duration": 0.03205131250001614,
            "durationTicks": 30,
            "midi": 42,
            "name": "F#2",
            "ticks": 127200,
            "time": 135.897565,
            "velocity": 0.4330708661417323
          },
          {
            "duration": 0.03205131250001614,
            "durationTicks": 30,
            "midi": 82,
            "name": "A#5",
            "ticks": 127200,
            "time": 135.897565,
            "velocity": 0.5669291338582677
          },
          {
            "duration": 0.032051312499987716,
            "durationTicks": 30,
            "midi": 42,
            "name": "F#2",
            "ticks": 127440,
            "time": 136.1539755,
            "velocity": 0.6692913385826772
          },
          {
            "duration": 0.032051312499987716,
            "durationTicks": 30,
            "midi": 82,
            "name": "A#5",
            "ticks": 127440,
            "time": 136.1539755,
            "velocity": 0.5196850393700787
          },
          {
            "duration": 0.03205131250001614,
            "durationTicks": 30,
            "midi": 36,
            "name": "C2",
            "ticks": 127680,
            "time": 136.410386,
            "velocity": 0.8740157480314961
          },
          {
            "duration": 0.03205131250001614,
            "durationTicks": 30,
            "midi": 42,
            "name": "F#2",
            "ticks": 127680,
            "time": 136.410386,
            "velocity": 0.4094488188976378
          },
          {
            "duration": 0.03205131250001614,
            "durationTicks": 30,
            "midi": 82,
            "name": "A#5",
            "ticks": 127680,
            "time": 136.410386,
            "velocity": 0.4881889763779528
          },
          {
            "duration": 0.032051312499987716,
            "durationTicks": 30,
            "midi": 42,
            "name": "F#2",
            "ticks": 127920,
            "time": 136.6667965,
            "velocity": 0.6299212598425197
          },
          {
            "duration": 0.032051312499987716,
            "durationTicks": 30,
            "midi": 82,
            "name": "A#5",
            "ticks": 127920,
            "time": 136.6667965,
            "velocity": 0.5196850393700787
          },
          {
            "duration": 0.032051312499987716,
            "durationTicks": 30,
            "midi": 40,
            "name": "E2",
            "ticks": 128160,
            "time": 136.923207,
            "velocity": 0.937007874015748
          },
          {
            "duration": 0.032051312499987716,
            "durationTicks": 30,
            "midi": 42,
            "name": "F#2",
            "ticks": 128160,
            "time": 136.923207,
            "velocity": 0.4094488188976378
          },
          {
            "duration": 0.032051312499987716,
            "durationTicks": 30,
            "midi": 82,
            "name": "A#5",
            "ticks": 128160,
            "time": 136.923207,
            "velocity": 0.5511811023622047
          },
          {
            "duration": 0.032051312499987716,
            "durationTicks": 30,
            "midi": 46,
            "name": "A#2",
            "ticks": 128400,
            "time": 137.1796175,
            "velocity": 0.8267716535433071
          },
          {
            "duration": 0.032051312499987716,
            "durationTicks": 30,
            "midi": 82,
            "name": "A#5",
            "ticks": 128400,
            "time": 137.1796175,
            "velocity": 0.5511811023622047
          },
          {
            "duration": 0.032051312499987716,
            "durationTicks": 30,
            "midi": 36,
            "name": "C2",
            "ticks": 128640,
            "time": 137.436028,
            "velocity": 0.8740157480314961
          },
          {
            "duration": 0.032051312499987716,
            "durationTicks": 30,
            "midi": 42,
            "name": "F#2",
            "ticks": 128640,
            "time": 137.436028,
            "velocity": 0.3779527559055118
          },
          {
            "duration": 0.032051312499987716,
            "durationTicks": 30,
            "midi": 82,
            "name": "A#5",
            "ticks": 128640,
            "time": 137.436028,
            "velocity": 0.5669291338582677
          },
          {
            "duration": 0.03205131250001614,
            "durationTicks": 30,
            "midi": 42,
            "name": "F#2",
            "ticks": 128880,
            "time": 137.69243849999998,
            "velocity": 0.5905511811023622
          },
          {
            "duration": 0.03205131250001614,
            "durationTicks": 30,
            "midi": 82,
            "name": "A#5",
            "ticks": 128880,
            "time": 137.69243849999998,
            "velocity": 0.5511811023622047
          },
          {
            "duration": 0.032051312499987716,
            "durationTicks": 30,
            "midi": 40,
            "name": "E2",
            "ticks": 129120,
            "time": 137.948849,
            "velocity": 0.9291338582677166
          },
          {
            "duration": 0.032051312499987716,
            "durationTicks": 30,
            "midi": 42,
            "name": "F#2",
            "ticks": 129120,
            "time": 137.948849,
            "velocity": 0.47244094488188976
          },
          {
            "duration": 0.032051312499987716,
            "durationTicks": 30,
            "midi": 82,
            "name": "A#5",
            "ticks": 129120,
            "time": 137.948849,
            "velocity": 0.5354330708661418
          },
          {
            "duration": 0.03205131250001614,
            "durationTicks": 30,
            "midi": 42,
            "name": "F#2",
            "ticks": 129360,
            "time": 138.20525949999998,
            "velocity": 0.6299212598425197
          },
          {
            "duration": 0.03205131250001614,
            "durationTicks": 30,
            "midi": 82,
            "name": "A#5",
            "ticks": 129360,
            "time": 138.20525949999998,
            "velocity": 0.5511811023622047
          },
          {
            "duration": 0.032051312499987716,
            "durationTicks": 30,
            "midi": 36,
            "name": "C2",
            "ticks": 129600,
            "time": 138.46167,
            "velocity": 0.8740157480314961
          },
          {
            "duration": 0.032051312499987716,
            "durationTicks": 30,
            "midi": 42,
            "name": "F#2",
            "ticks": 129600,
            "time": 138.46167,
            "velocity": 0.49606299212598426
          },
          {
            "duration": 0.032051312499987716,
            "durationTicks": 30,
            "midi": 82,
            "name": "A#5",
            "ticks": 129600,
            "time": 138.46167,
            "velocity": 0.5511811023622047
          },
          {
            "duration": 0.03205131250001614,
            "durationTicks": 30,
            "midi": 42,
            "name": "F#2",
            "ticks": 129840,
            "time": 138.71808049999999,
            "velocity": 0.5905511811023622
          },
          {
            "duration": 0.03205131250001614,
            "durationTicks": 30,
            "midi": 82,
            "name": "A#5",
            "ticks": 129840,
            "time": 138.71808049999999,
            "velocity": 0.5826771653543307
          },
          {
            "duration": 0.032051312499987716,
            "durationTicks": 30,
            "midi": 40,
            "name": "E2",
            "ticks": 130080,
            "time": 138.974491,
            "velocity": 0.937007874015748
          },
          {
            "duration": 0.032051312499987716,
            "durationTicks": 30,
            "midi": 42,
            "name": "F#2",
            "ticks": 130080,
            "time": 138.974491,
            "velocity": 0.49606299212598426
          },
          {
            "duration": 0.032051312499987716,
            "durationTicks": 30,
            "midi": 82,
            "name": "A#5",
            "ticks": 130080,
            "time": 138.974491,
            "velocity": 0.5354330708661418
          },
          {
            "duration": 0.03205131250001614,
            "durationTicks": 30,
            "midi": 42,
            "name": "F#2",
            "ticks": 130320,
            "time": 139.2309015,
            "velocity": 0.6692913385826772
          },
          {
            "duration": 0.03205131250001614,
            "durationTicks": 30,
            "midi": 82,
            "name": "A#5",
            "ticks": 130320,
            "time": 139.2309015,
            "velocity": 0.5511811023622047
          },
          {
            "duration": 0.032051312499987716,
            "durationTicks": 30,
            "midi": 36,
            "name": "C2",
            "ticks": 130560,
            "time": 139.487312,
            "velocity": 0.8740157480314961
          },
          {
            "duration": 0.032051312499987716,
            "durationTicks": 30,
            "midi": 42,
            "name": "F#2",
            "ticks": 130560,
            "time": 139.487312,
            "velocity": 0.47244094488188976
          },
          {
            "duration": 0.032051312499987716,
            "durationTicks": 30,
            "midi": 82,
            "name": "A#5",
            "ticks": 130560,
            "time": 139.487312,
            "velocity": 0.5354330708661418
          },
          {
            "duration": 0.03205131250001614,
            "durationTicks": 30,
            "midi": 42,
            "name": "F#2",
            "ticks": 130800,
            "time": 139.7437225,
            "velocity": 0.5905511811023622
          },
          {
            "duration": 0.03205131250001614,
            "durationTicks": 30,
            "midi": 82,
            "name": "A#5",
            "ticks": 130800,
            "time": 139.7437225,
            "velocity": 0.48031496062992124
          },
          {
            "duration": 0.032051312499987716,
            "durationTicks": 30,
            "midi": 40,
            "name": "E2",
            "ticks": 131040,
            "time": 140.000133,
            "velocity": 0.937007874015748
          },
          {
            "duration": 0.032051312499987716,
            "durationTicks": 30,
            "midi": 42,
            "name": "F#2",
            "ticks": 131040,
            "time": 140.000133,
            "velocity": 0.4330708661417323
          },
          {
            "duration": 0.032051312499987716,
            "durationTicks": 30,
            "midi": 82,
            "name": "A#5",
            "ticks": 131040,
            "time": 140.000133,
            "velocity": 0.48031496062992124
          },
          {
            "duration": 0.032051312499987716,
            "durationTicks": 30,
            "midi": 42,
            "name": "F#2",
            "ticks": 131280,
            "time": 140.2565435,
            "velocity": 0.6692913385826772
          },
          {
            "duration": 0.032051312499987716,
            "durationTicks": 30,
            "midi": 82,
            "name": "A#5",
            "ticks": 131280,
            "time": 140.2565435,
            "velocity": 0.44881889763779526
          },
          {
            "duration": 0.03205131250001614,
            "durationTicks": 30,
            "midi": 36,
            "name": "C2",
            "ticks": 131520,
            "time": 140.51295399999998,
            "velocity": 0.8740157480314961
          },
          {
            "duration": 0.03205131250001614,
            "durationTicks": 30,
            "midi": 42,
            "name": "F#2",
            "ticks": 131520,
            "time": 140.51295399999998,
            "velocity": 0.4094488188976378
          },
          {
            "duration": 0.03205131250001614,
            "durationTicks": 30,
            "midi": 82,
            "name": "A#5",
            "ticks": 131520,
            "time": 140.51295399999998,
            "velocity": 0.5039370078740157
          },
          {
            "duration": 0.032051312499987716,
            "durationTicks": 30,
            "midi": 42,
            "name": "F#2",
            "ticks": 131760,
            "time": 140.7693645,
            "velocity": 0.6299212598425197
          },
          {
            "duration": 0.032051312499987716,
            "durationTicks": 30,
            "midi": 82,
            "name": "A#5",
            "ticks": 131760,
            "time": 140.7693645,
            "velocity": 0.41732283464566927
          },
          {
            "duration": 0.03205131250001614,
            "durationTicks": 30,
            "midi": 40,
            "name": "E2",
            "ticks": 132000,
            "time": 141.02577499999998,
            "velocity": 0.937007874015748
          },
          {
            "duration": 0.03205131250001614,
            "durationTicks": 30,
            "midi": 42,
            "name": "F#2",
            "ticks": 132000,
            "time": 141.02577499999998,
            "velocity": 0.4094488188976378
          },
          {
            "duration": 0.03205131250001614,
            "durationTicks": 30,
            "midi": 82,
            "name": "A#5",
            "ticks": 132000,
            "time": 141.02577499999998,
            "velocity": 0.5354330708661418
          },
          {
            "duration": 0.032051312499987716,
            "durationTicks": 30,
            "midi": 42,
            "name": "F#2",
            "ticks": 132240,
            "time": 141.2821855,
            "velocity": 0.6692913385826772
          },
          {
            "duration": 0.032051312499987716,
            "durationTicks": 30,
            "midi": 82,
            "name": "A#5",
            "ticks": 132240,
            "time": 141.2821855,
            "velocity": 0.5039370078740157
          },
          {
            "duration": 0.03205131250001614,
            "durationTicks": 30,
            "midi": 36,
            "name": "C2",
            "ticks": 132480,
            "time": 141.53859599999998,
            "velocity": 0.8740157480314961
          },
          {
            "duration": 0.03205131250001614,
            "durationTicks": 30,
            "midi": 42,
            "name": "F#2",
            "ticks": 132480,
            "time": 141.53859599999998,
            "velocity": 0.3779527559055118
          },
          {
            "duration": 0.03205131250001614,
            "durationTicks": 30,
            "midi": 82,
            "name": "A#5",
            "ticks": 132480,
            "time": 141.53859599999998,
            "velocity": 0.4881889763779528
          },
          {
            "duration": 0.032051312499987716,
            "durationTicks": 30,
            "midi": 42,
            "name": "F#2",
            "ticks": 132720,
            "time": 141.7950065,
            "velocity": 0.5905511811023622
          },
          {
            "duration": 0.032051312499987716,
            "durationTicks": 30,
            "midi": 82,
            "name": "A#5",
            "ticks": 132720,
            "time": 141.7950065,
            "velocity": 0.4094488188976378
          },
          {
            "duration": 0.03205131250001614,
            "durationTicks": 30,
            "midi": 40,
            "name": "E2",
            "ticks": 132960,
            "time": 142.051417,
            "velocity": 0.9291338582677166
          },
          {
            "duration": 0.03205131250001614,
            "durationTicks": 30,
            "midi": 42,
            "name": "F#2",
            "ticks": 132960,
            "time": 142.051417,
            "velocity": 0.47244094488188976
          },
          {
            "duration": 0.03205131250001614,
            "durationTicks": 30,
            "midi": 82,
            "name": "A#5",
            "ticks": 132960,
            "time": 142.051417,
            "velocity": 0.5511811023622047
          },
          {
            "duration": 0.032051312499987716,
            "durationTicks": 30,
            "midi": 42,
            "name": "F#2",
            "ticks": 133200,
            "time": 142.3078275,
            "velocity": 0.6299212598425197
          },
          {
            "duration": 0.032051312499987716,
            "durationTicks": 30,
            "midi": 82,
            "name": "A#5",
            "ticks": 133200,
            "time": 142.3078275,
            "velocity": 0.4645669291338583
          },
          {
            "duration": 0.03205131250001614,
            "durationTicks": 30,
            "midi": 36,
            "name": "C2",
            "ticks": 133440,
            "time": 142.564238,
            "velocity": 0.8740157480314961
          },
          {
            "duration": 0.03205131250001614,
            "durationTicks": 30,
            "midi": 42,
            "name": "F#2",
            "ticks": 133440,
            "time": 142.564238,
            "velocity": 0.49606299212598426
          },
          {
            "duration": 0.03205131250001614,
            "durationTicks": 30,
            "midi": 82,
            "name": "A#5",
            "ticks": 133440,
            "time": 142.564238,
            "velocity": 0.5354330708661418
          },
          {
            "duration": 0.032051312499987716,
            "durationTicks": 30,
            "midi": 42,
            "name": "F#2",
            "ticks": 133680,
            "time": 142.8206485,
            "velocity": 0.5905511811023622
          },
          {
            "duration": 0.032051312499987716,
            "durationTicks": 30,
            "midi": 82,
            "name": "A#5",
            "ticks": 133680,
            "time": 142.8206485,
            "velocity": 0.5196850393700787
          },
          {
            "duration": 0.032051312499987716,
            "durationTicks": 30,
            "midi": 40,
            "name": "E2",
            "ticks": 133920,
            "time": 143.077059,
            "velocity": 0.937007874015748
          },
          {
            "duration": 0.032051312499987716,
            "durationTicks": 30,
            "midi": 42,
            "name": "F#2",
            "ticks": 133920,
            "time": 143.077059,
            "velocity": 0.49606299212598426
          },
          {
            "duration": 0.032051312499987716,
            "durationTicks": 30,
            "midi": 82,
            "name": "A#5",
            "ticks": 133920,
            "time": 143.077059,
            "velocity": 0.5826771653543307
          },
          {
            "duration": 0.03205131250001614,
            "durationTicks": 30,
            "midi": 42,
            "name": "F#2",
            "ticks": 134160,
            "time": 143.33346949999998,
            "velocity": 0.6692913385826772
          },
          {
            "duration": 0.03205131250001614,
            "durationTicks": 30,
            "midi": 82,
            "name": "A#5",
            "ticks": 134160,
            "time": 143.33346949999998,
            "velocity": 0.4409448818897638
          },
          {
            "duration": 0.032051312499987716,
            "durationTicks": 30,
            "midi": 36,
            "name": "C2",
            "ticks": 134400,
            "time": 143.58988,
            "velocity": 0.8740157480314961
          },
          {
            "duration": 0.032051312499987716,
            "durationTicks": 30,
            "midi": 42,
            "name": "F#2",
            "ticks": 134400,
            "time": 143.58988,
            "velocity": 0.47244094488188976
          },
          {
            "duration": 0.032051312499987716,
            "durationTicks": 30,
            "midi": 82,
            "name": "A#5",
            "ticks": 134400,
            "time": 143.58988,
            "velocity": 0.5826771653543307
          },
          {
            "duration": 0.03205131250001614,
            "durationTicks": 30,
            "midi": 42,
            "name": "F#2",
            "ticks": 134640,
            "time": 143.84629049999998,
            "velocity": 0.5905511811023622
          },
          {
            "duration": 0.03205131250001614,
            "durationTicks": 30,
            "midi": 82,
            "name": "A#5",
            "ticks": 134640,
            "time": 143.84629049999998,
            "velocity": 0.5039370078740157
          },
          {
            "duration": 0.032051312499987716,
            "durationTicks": 30,
            "midi": 40,
            "name": "E2",
            "ticks": 134880,
            "time": 144.102701,
            "velocity": 0.937007874015748
          },
          {
            "duration": 0.032051312499987716,
            "durationTicks": 30,
            "midi": 42,
            "name": "F#2",
            "ticks": 134880,
            "time": 144.102701,
            "velocity": 0.4330708661417323
          },
          {
            "duration": 0.032051312499987716,
            "durationTicks": 30,
            "midi": 82,
            "name": "A#5",
            "ticks": 134880,
            "time": 144.102701,
            "velocity": 0.5669291338582677
          },
          {
            "duration": 0.03205131250001614,
            "durationTicks": 30,
            "midi": 42,
            "name": "F#2",
            "ticks": 135120,
            "time": 144.35911149999998,
            "velocity": 0.6692913385826772
          },
          {
            "duration": 0.03205131250001614,
            "durationTicks": 30,
            "midi": 82,
            "name": "A#5",
            "ticks": 135120,
            "time": 144.35911149999998,
            "velocity": 0.5196850393700787
          },
          {
            "duration": 0.032051312499987716,
            "durationTicks": 30,
            "midi": 36,
            "name": "C2",
            "ticks": 135360,
            "time": 144.615522,
            "velocity": 0.8740157480314961
          },
          {
            "duration": 0.032051312499987716,
            "durationTicks": 30,
            "midi": 42,
            "name": "F#2",
            "ticks": 135360,
            "time": 144.615522,
            "velocity": 0.4094488188976378
          },
          {
            "duration": 0.032051312499987716,
            "durationTicks": 30,
            "midi": 82,
            "name": "A#5",
            "ticks": 135360,
            "time": 144.615522,
            "velocity": 0.4881889763779528
          },
          {
            "duration": 0.03205131250001614,
            "durationTicks": 30,
            "midi": 42,
            "name": "F#2",
            "ticks": 135600,
            "time": 144.87193249999999,
            "velocity": 0.6299212598425197
          },
          {
            "duration": 0.03205131250001614,
            "durationTicks": 30,
            "midi": 82,
            "name": "A#5",
            "ticks": 135600,
            "time": 144.87193249999999,
            "velocity": 0.5196850393700787
          },
          {
            "duration": 0.032051312499987716,
            "durationTicks": 30,
            "midi": 40,
            "name": "E2",
            "ticks": 135840,
            "time": 145.128343,
            "velocity": 0.937007874015748
          },
          {
            "duration": 0.032051312499987716,
            "durationTicks": 30,
            "midi": 42,
            "name": "F#2",
            "ticks": 135840,
            "time": 145.128343,
            "velocity": 0.4094488188976378
          },
          {
            "duration": 0.032051312499987716,
            "durationTicks": 30,
            "midi": 82,
            "name": "A#5",
            "ticks": 135840,
            "time": 145.128343,
            "velocity": 0.5511811023622047
          },
          {
            "duration": 0.03205131250001614,
            "durationTicks": 30,
            "midi": 42,
            "name": "F#2",
            "ticks": 136080,
            "time": 145.3847535,
            "velocity": 0.6692913385826772
          },
          {
            "duration": 0.03205131250001614,
            "durationTicks": 30,
            "midi": 82,
            "name": "A#5",
            "ticks": 136080,
            "time": 145.3847535,
            "velocity": 0.5511811023622047
          },
          {
            "duration": 0.032051312499987716,
            "durationTicks": 30,
            "midi": 36,
            "name": "C2",
            "ticks": 136320,
            "time": 145.641164,
            "velocity": 0.8740157480314961
          },
          {
            "duration": 0.032051312499987716,
            "durationTicks": 30,
            "midi": 42,
            "name": "F#2",
            "ticks": 136320,
            "time": 145.641164,
            "velocity": 0.3779527559055118
          },
          {
            "duration": 0.032051312499987716,
            "durationTicks": 30,
            "midi": 82,
            "name": "A#5",
            "ticks": 136320,
            "time": 145.641164,
            "velocity": 0.5669291338582677
          },
          {
            "duration": 0.032051312499987716,
            "durationTicks": 30,
            "midi": 42,
            "name": "F#2",
            "ticks": 136560,
            "time": 145.8975745,
            "velocity": 0.5905511811023622
          },
          {
            "duration": 0.032051312499987716,
            "durationTicks": 30,
            "midi": 82,
            "name": "A#5",
            "ticks": 136560,
            "time": 145.8975745,
            "velocity": 0.5511811023622047
          },
          {
            "duration": 0.032051312499987716,
            "durationTicks": 30,
            "midi": 40,
            "name": "E2",
            "ticks": 136800,
            "time": 146.153985,
            "velocity": 0.9291338582677166
          },
          {
            "duration": 0.032051312499987716,
            "durationTicks": 30,
            "midi": 42,
            "name": "F#2",
            "ticks": 136800,
            "time": 146.153985,
            "velocity": 0.47244094488188976
          },
          {
            "duration": 0.032051312499987716,
            "durationTicks": 30,
            "midi": 82,
            "name": "A#5",
            "ticks": 136800,
            "time": 146.153985,
            "velocity": 0.5354330708661418
          },
          {
            "duration": 0.032051312499987716,
            "durationTicks": 30,
            "midi": 42,
            "name": "F#2",
            "ticks": 137040,
            "time": 146.4103955,
            "velocity": 0.6299212598425197
          },
          {
            "duration": 0.032051312499987716,
            "durationTicks": 30,
            "midi": 82,
            "name": "A#5",
            "ticks": 137040,
            "time": 146.4103955,
            "velocity": 0.5511811023622047
          },
          {
            "duration": 0.03205131250001614,
            "durationTicks": 30,
            "midi": 36,
            "name": "C2",
            "ticks": 137280,
            "time": 146.66680599999998,
            "velocity": 0.8740157480314961
          },
          {
            "duration": 0.03205131250001614,
            "durationTicks": 30,
            "midi": 42,
            "name": "F#2",
            "ticks": 137280,
            "time": 146.66680599999998,
            "velocity": 0.49606299212598426
          },
          {
            "duration": 0.03205131250001614,
            "durationTicks": 30,
            "midi": 82,
            "name": "A#5",
            "ticks": 137280,
            "time": 146.66680599999998,
            "velocity": 0.5511811023622047
          },
          {
            "duration": 0.032051312499987716,
            "durationTicks": 30,
            "midi": 42,
            "name": "F#2",
            "ticks": 137520,
            "time": 146.9232165,
            "velocity": 0.5905511811023622
          },
          {
            "duration": 0.032051312499987716,
            "durationTicks": 30,
            "midi": 82,
            "name": "A#5",
            "ticks": 137520,
            "time": 146.9232165,
            "velocity": 0.5826771653543307
          },
          {
            "duration": 0.03205131250001614,
            "durationTicks": 30,
            "midi": 40,
            "name": "E2",
            "ticks": 137760,
            "time": 147.17962699999998,
            "velocity": 0.937007874015748
          },
          {
            "duration": 0.03205131250001614,
            "durationTicks": 30,
            "midi": 42,
            "name": "F#2",
            "ticks": 137760,
            "time": 147.17962699999998,
            "velocity": 0.49606299212598426
          },
          {
            "duration": 0.03205131250001614,
            "durationTicks": 30,
            "midi": 82,
            "name": "A#5",
            "ticks": 137760,
            "time": 147.17962699999998,
            "velocity": 0.5354330708661418
          },
          {
            "duration": 0.032051312499987716,
            "durationTicks": 30,
            "midi": 42,
            "name": "F#2",
            "ticks": 138000,
            "time": 147.4360375,
            "velocity": 0.6692913385826772
          },
          {
            "duration": 0.032051312499987716,
            "durationTicks": 30,
            "midi": 82,
            "name": "A#5",
            "ticks": 138000,
            "time": 147.4360375,
            "velocity": 0.5511811023622047
          },
          {
            "duration": 0.03205131250001614,
            "durationTicks": 30,
            "midi": 36,
            "name": "C2",
            "ticks": 138240,
            "time": 147.69244799999998,
            "velocity": 0.8740157480314961
          },
          {
            "duration": 0.03205131250001614,
            "durationTicks": 30,
            "midi": 42,
            "name": "F#2",
            "ticks": 138240,
            "time": 147.69244799999998,
            "velocity": 0.47244094488188976
          },
          {
            "duration": 0.03205131250001614,
            "durationTicks": 30,
            "midi": 82,
            "name": "A#5",
            "ticks": 138240,
            "time": 147.69244799999998,
            "velocity": 0.5354330708661418
          },
          {
            "duration": 0.032051312499987716,
            "durationTicks": 30,
            "midi": 42,
            "name": "F#2",
            "ticks": 138480,
            "time": 147.9488585,
            "velocity": 0.5905511811023622
          },
          {
            "duration": 0.032051312499987716,
            "durationTicks": 30,
            "midi": 82,
            "name": "A#5",
            "ticks": 138480,
            "time": 147.9488585,
            "velocity": 0.48031496062992124
          },
          {
            "duration": 0.03205131250001614,
            "durationTicks": 30,
            "midi": 40,
            "name": "E2",
            "ticks": 138720,
            "time": 148.205269,
            "velocity": 0.937007874015748
          },
          {
            "duration": 0.03205131250001614,
            "durationTicks": 30,
            "midi": 42,
            "name": "F#2",
            "ticks": 138720,
            "time": 148.205269,
            "velocity": 0.4330708661417323
          },
          {
            "duration": 0.03205131250001614,
            "durationTicks": 30,
            "midi": 82,
            "name": "A#5",
            "ticks": 138720,
            "time": 148.205269,
            "velocity": 0.48031496062992124
          },
          {
            "duration": 0.032051312499987716,
            "durationTicks": 30,
            "midi": 42,
            "name": "F#2",
            "ticks": 138960,
            "time": 148.4616795,
            "velocity": 0.6692913385826772
          },
          {
            "duration": 0.032051312499987716,
            "durationTicks": 30,
            "midi": 82,
            "name": "A#5",
            "ticks": 138960,
            "time": 148.4616795,
            "velocity": 0.44881889763779526
          },
          {
            "duration": 0.03205131250001614,
            "durationTicks": 30,
            "midi": 36,
            "name": "C2",
            "ticks": 139200,
            "time": 148.71809,
            "velocity": 0.8740157480314961
          },
          {
            "duration": 0.03205131250001614,
            "durationTicks": 30,
            "midi": 42,
            "name": "F#2",
            "ticks": 139200,
            "time": 148.71809,
            "velocity": 0.4094488188976378
          },
          {
            "duration": 0.03205131250001614,
            "durationTicks": 30,
            "midi": 82,
            "name": "A#5",
            "ticks": 139200,
            "time": 148.71809,
            "velocity": 0.5039370078740157
          },
          {
            "duration": 0.032051312499987716,
            "durationTicks": 30,
            "midi": 42,
            "name": "F#2",
            "ticks": 139440,
            "time": 148.9745005,
            "velocity": 0.6299212598425197
          },
          {
            "duration": 0.032051312499987716,
            "durationTicks": 30,
            "midi": 82,
            "name": "A#5",
            "ticks": 139440,
            "time": 148.9745005,
            "velocity": 0.41732283464566927
          },
          {
            "duration": 0.032051312499987716,
            "durationTicks": 30,
            "midi": 40,
            "name": "E2",
            "ticks": 139680,
            "time": 149.230911,
            "velocity": 0.937007874015748
          },
          {
            "duration": 0.032051312499987716,
            "durationTicks": 30,
            "midi": 42,
            "name": "F#2",
            "ticks": 139680,
            "time": 149.230911,
            "velocity": 0.4094488188976378
          },
          {
            "duration": 0.032051312499987716,
            "durationTicks": 30,
            "midi": 82,
            "name": "A#5",
            "ticks": 139680,
            "time": 149.230911,
            "velocity": 0.5354330708661418
          },
          {
            "duration": 0.03205131250001614,
            "durationTicks": 30,
            "midi": 42,
            "name": "F#2",
            "ticks": 139920,
            "time": 149.48732149999998,
            "velocity": 0.6692913385826772
          },
          {
            "duration": 0.03205131250001614,
            "durationTicks": 30,
            "midi": 82,
            "name": "A#5",
            "ticks": 139920,
            "time": 149.48732149999998,
            "velocity": 0.5039370078740157
          },
          {
            "duration": 0.032051312499987716,
            "durationTicks": 30,
            "midi": 36,
            "name": "C2",
            "ticks": 140160,
            "time": 149.743732,
            "velocity": 0.8740157480314961
          },
          {
            "duration": 0.032051312499987716,
            "durationTicks": 30,
            "midi": 42,
            "name": "F#2",
            "ticks": 140160,
            "time": 149.743732,
            "velocity": 0.3779527559055118
          },
          {
            "duration": 0.032051312499987716,
            "durationTicks": 30,
            "midi": 82,
            "name": "A#5",
            "ticks": 140160,
            "time": 149.743732,
            "velocity": 0.4881889763779528
          },
          {
            "duration": 0.03205131250001614,
            "durationTicks": 30,
            "midi": 42,
            "name": "F#2",
            "ticks": 140400,
            "time": 150.00014249999998,
            "velocity": 0.5905511811023622
          },
          {
            "duration": 0.03205131250001614,
            "durationTicks": 30,
            "midi": 82,
            "name": "A#5",
            "ticks": 140400,
            "time": 150.00014249999998,
            "velocity": 0.4094488188976378
          },
          {
            "duration": 0.032051312499987716,
            "durationTicks": 30,
            "midi": 40,
            "name": "E2",
            "ticks": 140640,
            "time": 150.256553,
            "velocity": 0.9291338582677166
          },
          {
            "duration": 0.032051312499987716,
            "durationTicks": 30,
            "midi": 42,
            "name": "F#2",
            "ticks": 140640,
            "time": 150.256553,
            "velocity": 0.47244094488188976
          },
          {
            "duration": 0.032051312499987716,
            "durationTicks": 30,
            "midi": 82,
            "name": "A#5",
            "ticks": 140640,
            "time": 150.256553,
            "velocity": 0.5511811023622047
          },
          {
            "duration": 0.03205131250001614,
            "durationTicks": 30,
            "midi": 42,
            "name": "F#2",
            "ticks": 140880,
            "time": 150.51296349999998,
            "velocity": 0.6299212598425197
          },
          {
            "duration": 0.03205131250001614,
            "durationTicks": 30,
            "midi": 82,
            "name": "A#5",
            "ticks": 140880,
            "time": 150.51296349999998,
            "velocity": 0.4645669291338583
          },
          {
            "duration": 0.032051312499987716,
            "durationTicks": 30,
            "midi": 36,
            "name": "C2",
            "ticks": 141120,
            "time": 150.769374,
            "velocity": 0.8740157480314961
          },
          {
            "duration": 0.032051312499987716,
            "durationTicks": 30,
            "midi": 42,
            "name": "F#2",
            "ticks": 141120,
            "time": 150.769374,
            "velocity": 0.49606299212598426
          },
          {
            "duration": 0.032051312499987716,
            "durationTicks": 30,
            "midi": 82,
            "name": "A#5",
            "ticks": 141120,
            "time": 150.769374,
            "velocity": 0.5354330708661418
          },
          {
            "duration": 0.03205131250001614,
            "durationTicks": 30,
            "midi": 42,
            "name": "F#2",
            "ticks": 141360,
            "time": 151.0257845,
            "velocity": 0.5905511811023622
          },
          {
            "duration": 0.03205131250001614,
            "durationTicks": 30,
            "midi": 82,
            "name": "A#5",
            "ticks": 141360,
            "time": 151.0257845,
            "velocity": 0.5196850393700787
          },
          {
            "duration": 0.032051312499987716,
            "durationTicks": 30,
            "midi": 40,
            "name": "E2",
            "ticks": 141600,
            "time": 151.282195,
            "velocity": 0.937007874015748
          },
          {
            "duration": 0.032051312499987716,
            "durationTicks": 30,
            "midi": 42,
            "name": "F#2",
            "ticks": 141600,
            "time": 151.282195,
            "velocity": 0.49606299212598426
          },
          {
            "duration": 0.032051312499987716,
            "durationTicks": 30,
            "midi": 82,
            "name": "A#5",
            "ticks": 141600,
            "time": 151.282195,
            "velocity": 0.5826771653543307
          },
          {
            "duration": 0.03205131250001614,
            "durationTicks": 30,
            "midi": 42,
            "name": "F#2",
            "ticks": 141840,
            "time": 151.5386055,
            "velocity": 0.6692913385826772
          },
          {
            "duration": 0.03205131250001614,
            "durationTicks": 30,
            "midi": 82,
            "name": "A#5",
            "ticks": 141840,
            "time": 151.5386055,
            "velocity": 0.4409448818897638
          },
          {
            "duration": 0.032051312499987716,
            "durationTicks": 30,
            "midi": 36,
            "name": "C2",
            "ticks": 142080,
            "time": 151.795016,
            "velocity": 0.8740157480314961
          },
          {
            "duration": 0.032051312499987716,
            "durationTicks": 30,
            "midi": 42,
            "name": "F#2",
            "ticks": 142080,
            "time": 151.795016,
            "velocity": 0.47244094488188976
          },
          {
            "duration": 0.032051312499987716,
            "durationTicks": 30,
            "midi": 82,
            "name": "A#5",
            "ticks": 142080,
            "time": 151.795016,
            "velocity": 0.5826771653543307
          },
          {
            "duration": 0.032051312499987716,
            "durationTicks": 30,
            "midi": 42,
            "name": "F#2",
            "ticks": 142320,
            "time": 152.0514265,
            "velocity": 0.5905511811023622
          },
          {
            "duration": 0.032051312499987716,
            "durationTicks": 30,
            "midi": 82,
            "name": "A#5",
            "ticks": 142320,
            "time": 152.0514265,
            "velocity": 0.5039370078740157
          },
          {
            "duration": 0.03205131250001614,
            "durationTicks": 30,
            "midi": 40,
            "name": "E2",
            "ticks": 142560,
            "time": 152.30783699999998,
            "velocity": 0.937007874015748
          },
          {
            "duration": 0.03205131250001614,
            "durationTicks": 30,
            "midi": 42,
            "name": "F#2",
            "ticks": 142560,
            "time": 152.30783699999998,
            "velocity": 0.4330708661417323
          },
          {
            "duration": 0.03205131250001614,
            "durationTicks": 30,
            "midi": 82,
            "name": "A#5",
            "ticks": 142560,
            "time": 152.30783699999998,
            "velocity": 0.5669291338582677
          },
          {
            "duration": 0.032051312499987716,
            "durationTicks": 30,
            "midi": 42,
            "name": "F#2",
            "ticks": 142800,
            "time": 152.5642475,
            "velocity": 0.6692913385826772
          },
          {
            "duration": 0.032051312499987716,
            "durationTicks": 30,
            "midi": 82,
            "name": "A#5",
            "ticks": 142800,
            "time": 152.5642475,
            "velocity": 0.5196850393700787
          },
          {
            "duration": 0.03205131250001614,
            "durationTicks": 30,
            "midi": 36,
            "name": "C2",
            "ticks": 143040,
            "time": 152.82065799999998,
            "velocity": 0.8740157480314961
          },
          {
            "duration": 0.03205131250001614,
            "durationTicks": 30,
            "midi": 42,
            "name": "F#2",
            "ticks": 143040,
            "time": 152.82065799999998,
            "velocity": 0.4094488188976378
          },
          {
            "duration": 0.03205131250001614,
            "durationTicks": 30,
            "midi": 82,
            "name": "A#5",
            "ticks": 143040,
            "time": 152.82065799999998,
            "velocity": 0.4881889763779528
          },
          {
            "duration": 0.032051312499987716,
            "durationTicks": 30,
            "midi": 42,
            "name": "F#2",
            "ticks": 143280,
            "time": 153.0770685,
            "velocity": 0.6299212598425197
          },
          {
            "duration": 0.032051312499987716,
            "durationTicks": 30,
            "midi": 82,
            "name": "A#5",
            "ticks": 143280,
            "time": 153.0770685,
            "velocity": 0.5196850393700787
          },
          {
            "duration": 0.03205131250001614,
            "durationTicks": 30,
            "midi": 40,
            "name": "E2",
            "ticks": 143520,
            "time": 153.33347899999998,
            "velocity": 0.937007874015748
          },
          {
            "duration": 0.03205131250001614,
            "durationTicks": 30,
            "midi": 42,
            "name": "F#2",
            "ticks": 143520,
            "time": 153.33347899999998,
            "velocity": 0.4094488188976378
          },
          {
            "duration": 0.03205131250001614,
            "durationTicks": 30,
            "midi": 82,
            "name": "A#5",
            "ticks": 143520,
            "time": 153.33347899999998,
            "velocity": 0.5511811023622047
          },
          {
            "duration": 0.032051312499987716,
            "durationTicks": 30,
            "midi": 40,
            "name": "E2",
            "ticks": 143760,
            "time": 153.5898895,
            "velocity": 0.968503937007874
          },
          {
            "duration": 0.032051312499987716,
            "durationTicks": 30,
            "midi": 46,
            "name": "A#2",
            "ticks": 143760,
            "time": 153.5898895,
            "velocity": 0.8346456692913385
          },
          {
            "duration": 0.032051312499987716,
            "durationTicks": 30,
            "midi": 82,
            "name": "A#5",
            "ticks": 143760,
            "time": 153.5898895,
            "velocity": 0.5511811023622047
          },
          {
            "duration": 0.03205131250001614,
            "durationTicks": 30,
            "midi": 40,
            "name": "E2",
            "ticks": 143880,
            "time": 153.71809474999998,
            "velocity": 1
          },
          {
            "duration": 0.03205131250001614,
            "durationTicks": 30,
            "midi": 36,
            "name": "C2",
            "ticks": 144000,
            "time": 153.84629999999999,
            "velocity": 0.8740157480314961
          },
          {
            "duration": 0.03205131250001614,
            "durationTicks": 30,
            "midi": 42,
            "name": "F#2",
            "ticks": 144000,
            "time": 153.84629999999999,
            "velocity": 0.3779527559055118
          },
          {
            "duration": 0.03205131250001614,
            "durationTicks": 30,
            "midi": 82,
            "name": "A#5",
            "ticks": 144000,
            "time": 153.84629999999999,
            "velocity": 0.5669291338582677
          },
          {
            "duration": 0.032051312499987716,
            "durationTicks": 30,
            "midi": 42,
            "name": "F#2",
            "ticks": 144240,
            "time": 154.1027105,
            "velocity": 0.5905511811023622
          },
          {
            "duration": 0.032051312499987716,
            "durationTicks": 30,
            "midi": 82,
            "name": "A#5",
            "ticks": 144240,
            "time": 154.1027105,
            "velocity": 0.5511811023622047
          },
          {
            "duration": 0.03205131250001614,
            "durationTicks": 30,
            "midi": 40,
            "name": "E2",
            "ticks": 144480,
            "time": 154.359121,
            "velocity": 0.9291338582677166
          },
          {
            "duration": 0.03205131250001614,
            "durationTicks": 30,
            "midi": 42,
            "name": "F#2",
            "ticks": 144480,
            "time": 154.359121,
            "velocity": 0.47244094488188976
          },
          {
            "duration": 0.03205131250001614,
            "durationTicks": 30,
            "midi": 82,
            "name": "A#5",
            "ticks": 144480,
            "time": 154.359121,
            "velocity": 0.5354330708661418
          },
          {
            "duration": 0.032051312499987716,
            "durationTicks": 30,
            "midi": 42,
            "name": "F#2",
            "ticks": 144720,
            "time": 154.6155315,
            "velocity": 0.6299212598425197
          },
          {
            "duration": 0.032051312499987716,
            "durationTicks": 30,
            "midi": 82,
            "name": "A#5",
            "ticks": 144720,
            "time": 154.6155315,
            "velocity": 0.5511811023622047
          },
          {
            "duration": 0.032051312499987716,
            "durationTicks": 30,
            "midi": 36,
            "name": "C2",
            "ticks": 144960,
            "time": 154.871942,
            "velocity": 0.8740157480314961
          },
          {
            "duration": 0.032051312499987716,
            "durationTicks": 30,
            "midi": 42,
            "name": "F#2",
            "ticks": 144960,
            "time": 154.871942,
            "velocity": 0.49606299212598426
          },
          {
            "duration": 0.032051312499987716,
            "durationTicks": 30,
            "midi": 82,
            "name": "A#5",
            "ticks": 144960,
            "time": 154.871942,
            "velocity": 0.5511811023622047
          },
          {
            "duration": 0.032051312499987716,
            "durationTicks": 30,
            "midi": 42,
            "name": "F#2",
            "ticks": 145200,
            "time": 155.1283525,
            "velocity": 0.5905511811023622
          },
          {
            "duration": 0.032051312499987716,
            "durationTicks": 30,
            "midi": 82,
            "name": "A#5",
            "ticks": 145200,
            "time": 155.1283525,
            "velocity": 0.5826771653543307
          },
          {
            "duration": 0.032051312499987716,
            "durationTicks": 30,
            "midi": 40,
            "name": "E2",
            "ticks": 145440,
            "time": 155.384763,
            "velocity": 0.937007874015748
          },
          {
            "duration": 0.032051312499987716,
            "durationTicks": 30,
            "midi": 42,
            "name": "F#2",
            "ticks": 145440,
            "time": 155.384763,
            "velocity": 0.49606299212598426
          },
          {
            "duration": 0.032051312499987716,
            "durationTicks": 30,
            "midi": 82,
            "name": "A#5",
            "ticks": 145440,
            "time": 155.384763,
            "velocity": 0.5354330708661418
          },
          {
            "duration": 0.03205131250001614,
            "durationTicks": 30,
            "midi": 42,
            "name": "F#2",
            "ticks": 145680,
            "time": 155.64117349999998,
            "velocity": 0.6692913385826772
          },
          {
            "duration": 0.03205131250001614,
            "durationTicks": 30,
            "midi": 82,
            "name": "A#5",
            "ticks": 145680,
            "time": 155.64117349999998,
            "velocity": 0.5511811023622047
          },
          {
            "duration": 0.032051312499987716,
            "durationTicks": 30,
            "midi": 36,
            "name": "C2",
            "ticks": 145920,
            "time": 155.897584,
            "velocity": 0.8740157480314961
          },
          {
            "duration": 0.032051312499987716,
            "durationTicks": 30,
            "midi": 42,
            "name": "F#2",
            "ticks": 145920,
            "time": 155.897584,
            "velocity": 0.47244094488188976
          },
          {
            "duration": 0.032051312499987716,
            "durationTicks": 30,
            "midi": 82,
            "name": "A#5",
            "ticks": 145920,
            "time": 155.897584,
            "velocity": 0.5354330708661418
          },
          {
            "duration": 0.03205131250001614,
            "durationTicks": 30,
            "midi": 42,
            "name": "F#2",
            "ticks": 146160,
            "time": 156.15399449999998,
            "velocity": 0.5905511811023622
          },
          {
            "duration": 0.03205131250001614,
            "durationTicks": 30,
            "midi": 82,
            "name": "A#5",
            "ticks": 146160,
            "time": 156.15399449999998,
            "velocity": 0.48031496062992124
          },
          {
            "duration": 0.032051312499987716,
            "durationTicks": 30,
            "midi": 40,
            "name": "E2",
            "ticks": 146400,
            "time": 156.410405,
            "velocity": 0.937007874015748
          },
          {
            "duration": 0.032051312499987716,
            "durationTicks": 30,
            "midi": 42,
            "name": "F#2",
            "ticks": 146400,
            "time": 156.410405,
            "velocity": 0.4330708661417323
          },
          {
            "duration": 0.032051312499987716,
            "durationTicks": 30,
            "midi": 82,
            "name": "A#5",
            "ticks": 146400,
            "time": 156.410405,
            "velocity": 0.48031496062992124
          },
          {
            "duration": 0.03205131250001614,
            "durationTicks": 30,
            "midi": 42,
            "name": "F#2",
            "ticks": 146640,
            "time": 156.66681549999998,
            "velocity": 0.6692913385826772
          },
          {
            "duration": 0.03205131250001614,
            "durationTicks": 30,
            "midi": 82,
            "name": "A#5",
            "ticks": 146640,
            "time": 156.66681549999998,
            "velocity": 0.44881889763779526
          },
          {
            "duration": 0.032051312499987716,
            "durationTicks": 30,
            "midi": 36,
            "name": "C2",
            "ticks": 146880,
            "time": 156.923226,
            "velocity": 0.8740157480314961
          },
          {
            "duration": 0.032051312499987716,
            "durationTicks": 30,
            "midi": 42,
            "name": "F#2",
            "ticks": 146880,
            "time": 156.923226,
            "velocity": 0.4094488188976378
          },
          {
            "duration": 0.032051312499987716,
            "durationTicks": 30,
            "midi": 82,
            "name": "A#5",
            "ticks": 146880,
            "time": 156.923226,
            "velocity": 0.5039370078740157
          },
          {
            "duration": 0.03205131250001614,
            "durationTicks": 30,
            "midi": 42,
            "name": "F#2",
            "ticks": 147120,
            "time": 157.1796365,
            "velocity": 0.6299212598425197
          },
          {
            "duration": 0.03205131250001614,
            "durationTicks": 30,
            "midi": 82,
            "name": "A#5",
            "ticks": 147120,
            "time": 157.1796365,
            "velocity": 0.41732283464566927
          },
          {
            "duration": 0.032051312499987716,
            "durationTicks": 30,
            "midi": 40,
            "name": "E2",
            "ticks": 147360,
            "time": 157.436047,
            "velocity": 0.937007874015748
          },
          {
            "duration": 0.032051312499987716,
            "durationTicks": 30,
            "midi": 42,
            "name": "F#2",
            "ticks": 147360,
            "time": 157.436047,
            "velocity": 0.4094488188976378
          },
          {
            "duration": 0.032051312499987716,
            "durationTicks": 30,
            "midi": 52,
            "name": "E3",
            "ticks": 147360,
            "time": 157.436047,
            "velocity": 0.8267716535433071
          },
          {
            "duration": 0.032051312499987716,
            "durationTicks": 30,
            "midi": 82,
            "name": "A#5",
            "ticks": 147360,
            "time": 157.436047,
            "velocity": 0.5354330708661418
          },
          {
            "duration": 0.03205131250001614,
            "durationTicks": 30,
            "midi": 46,
            "name": "A#2",
            "ticks": 147600,
            "time": 157.6924575,
            "velocity": 0.8267716535433071
          },
          {
            "duration": 0.03205131250001614,
            "durationTicks": 30,
            "midi": 82,
            "name": "A#5",
            "ticks": 147600,
            "time": 157.6924575,
            "velocity": 0.5039370078740157
          },
          {
            "duration": 0.032051312499987716,
            "durationTicks": 30,
            "midi": 36,
            "name": "C2",
            "ticks": 147840,
            "time": 157.948868,
            "velocity": 0.8740157480314961
          },
          {
            "duration": 0.032051312499987716,
            "durationTicks": 30,
            "midi": 42,
            "name": "F#2",
            "ticks": 147840,
            "time": 157.948868,
            "velocity": 0.3779527559055118
          },
          {
            "duration": 0.032051312499987716,
            "durationTicks": 30,
            "midi": 82,
            "name": "A#5",
            "ticks": 147840,
            "time": 157.948868,
            "velocity": 0.4881889763779528
          },
          {
            "duration": 0.032051312499987716,
            "durationTicks": 30,
            "midi": 42,
            "name": "F#2",
            "ticks": 148080,
            "time": 158.2052785,
            "velocity": 0.5905511811023622
          },
          {
            "duration": 0.032051312499987716,
            "durationTicks": 30,
            "midi": 82,
            "name": "A#5",
            "ticks": 148080,
            "time": 158.2052785,
            "velocity": 0.4094488188976378
          },
          {
            "duration": 0.03205131250001614,
            "durationTicks": 30,
            "midi": 40,
            "name": "E2",
            "ticks": 148320,
            "time": 158.46168899999998,
            "velocity": 0.9291338582677166
          },
          {
            "duration": 0.03205131250001614,
            "durationTicks": 30,
            "midi": 42,
            "name": "F#2",
            "ticks": 148320,
            "time": 158.46168899999998,
            "velocity": 0.47244094488188976
          },
          {
            "duration": 0.03205131250001614,
            "durationTicks": 30,
            "midi": 82,
            "name": "A#5",
            "ticks": 148320,
            "time": 158.46168899999998,
            "velocity": 0.5511811023622047
          },
          {
            "duration": 0.032051312499987716,
            "durationTicks": 30,
            "midi": 42,
            "name": "F#2",
            "ticks": 148560,
            "time": 158.7180995,
            "velocity": 0.6299212598425197
          },
          {
            "duration": 0.032051312499987716,
            "durationTicks": 30,
            "midi": 82,
            "name": "A#5",
            "ticks": 148560,
            "time": 158.7180995,
            "velocity": 0.4645669291338583
          },
          {
            "duration": 0.03205131250001614,
            "durationTicks": 30,
            "midi": 36,
            "name": "C2",
            "ticks": 148800,
            "time": 158.97450999999998,
            "velocity": 0.8740157480314961
          },
          {
            "duration": 0.03205131250001614,
            "durationTicks": 30,
            "midi": 42,
            "name": "F#2",
            "ticks": 148800,
            "time": 158.97450999999998,
            "velocity": 0.49606299212598426
          },
          {
            "duration": 0.03205131250001614,
            "durationTicks": 30,
            "midi": 82,
            "name": "A#5",
            "ticks": 148800,
            "time": 158.97450999999998,
            "velocity": 0.5354330708661418
          },
          {
            "duration": 0.032051312499987716,
            "durationTicks": 30,
            "midi": 42,
            "name": "F#2",
            "ticks": 149040,
            "time": 159.2309205,
            "velocity": 0.5905511811023622
          },
          {
            "duration": 0.032051312499987716,
            "durationTicks": 30,
            "midi": 82,
            "name": "A#5",
            "ticks": 149040,
            "time": 159.2309205,
            "velocity": 0.5196850393700787
          },
          {
            "duration": 0.03205131250001614,
            "durationTicks": 30,
            "midi": 40,
            "name": "E2",
            "ticks": 149280,
            "time": 159.48733099999998,
            "velocity": 0.937007874015748
          },
          {
            "duration": 0.03205131250001614,
            "durationTicks": 30,
            "midi": 42,
            "name": "F#2",
            "ticks": 149280,
            "time": 159.48733099999998,
            "velocity": 0.49606299212598426
          },
          {
            "duration": 0.03205131250001614,
            "durationTicks": 30,
            "midi": 82,
            "name": "A#5",
            "ticks": 149280,
            "time": 159.48733099999998,
            "velocity": 0.5826771653543307
          },
          {
            "duration": 0.032051312499987716,
            "durationTicks": 30,
            "midi": 42,
            "name": "F#2",
            "ticks": 149520,
            "time": 159.7437415,
            "velocity": 0.6692913385826772
          },
          {
            "duration": 0.032051312499987716,
            "durationTicks": 30,
            "midi": 82,
            "name": "A#5",
            "ticks": 149520,
            "time": 159.7437415,
            "velocity": 0.4409448818897638
          },
          {
            "duration": 0.03205131250001614,
            "durationTicks": 30,
            "midi": 36,
            "name": "C2",
            "ticks": 149760,
            "time": 160.00015199999999,
            "velocity": 0.8740157480314961
          },
          {
            "duration": 0.03205131250001614,
            "durationTicks": 30,
            "midi": 42,
            "name": "F#2",
            "ticks": 149760,
            "time": 160.00015199999999,
            "velocity": 0.47244094488188976
          },
          {
            "duration": 0.03205131250001614,
            "durationTicks": 30,
            "midi": 82,
            "name": "A#5",
            "ticks": 149760,
            "time": 160.00015199999999,
            "velocity": 0.5826771653543307
          },
          {
            "duration": 0.032051312499987716,
            "durationTicks": 30,
            "midi": 42,
            "name": "F#2",
            "ticks": 150000,
            "time": 160.2565625,
            "velocity": 0.5905511811023622
          },
          {
            "duration": 0.032051312499987716,
            "durationTicks": 30,
            "midi": 82,
            "name": "A#5",
            "ticks": 150000,
            "time": 160.2565625,
            "velocity": 0.5039370078740157
          },
          {
            "duration": 0.03205131250001614,
            "durationTicks": 30,
            "midi": 40,
            "name": "E2",
            "ticks": 150240,
            "time": 160.512973,
            "velocity": 0.937007874015748
          },
          {
            "duration": 0.03205131250001614,
            "durationTicks": 30,
            "midi": 42,
            "name": "F#2",
            "ticks": 150240,
            "time": 160.512973,
            "velocity": 0.4330708661417323
          },
          {
            "duration": 0.03205131250001614,
            "durationTicks": 30,
            "midi": 82,
            "name": "A#5",
            "ticks": 150240,
            "time": 160.512973,
            "velocity": 0.5669291338582677
          },
          {
            "duration": 0.032051312499987716,
            "durationTicks": 30,
            "midi": 42,
            "name": "F#2",
            "ticks": 150480,
            "time": 160.7693835,
            "velocity": 0.6692913385826772
          },
          {
            "duration": 0.032051312499987716,
            "durationTicks": 30,
            "midi": 82,
            "name": "A#5",
            "ticks": 150480,
            "time": 160.7693835,
            "velocity": 0.5196850393700787
          },
          {
            "duration": 0.032051312499987716,
            "durationTicks": 30,
            "midi": 36,
            "name": "C2",
            "ticks": 150720,
            "time": 161.025794,
            "velocity": 0.8740157480314961
          },
          {
            "duration": 0.032051312499987716,
            "durationTicks": 30,
            "midi": 42,
            "name": "F#2",
            "ticks": 150720,
            "time": 161.025794,
            "velocity": 0.4094488188976378
          },
          {
            "duration": 0.032051312499987716,
            "durationTicks": 30,
            "midi": 82,
            "name": "A#5",
            "ticks": 150720,
            "time": 161.025794,
            "velocity": 0.4881889763779528
          },
          {
            "duration": 0.03205131250001614,
            "durationTicks": 30,
            "midi": 42,
            "name": "F#2",
            "ticks": 150960,
            "time": 161.28220449999998,
            "velocity": 0.6299212598425197
          },
          {
            "duration": 0.03205131250001614,
            "durationTicks": 30,
            "midi": 82,
            "name": "A#5",
            "ticks": 150960,
            "time": 161.28220449999998,
            "velocity": 0.5196850393700787
          },
          {
            "duration": 0.032051312499987716,
            "durationTicks": 30,
            "midi": 40,
            "name": "E2",
            "ticks": 151200,
            "time": 161.538615,
            "velocity": 0.937007874015748
          },
          {
            "duration": 0.032051312499987716,
            "durationTicks": 30,
            "midi": 42,
            "name": "F#2",
            "ticks": 151200,
            "time": 161.538615,
            "velocity": 0.4094488188976378
          },
          {
            "duration": 0.032051312499987716,
            "durationTicks": 30,
            "midi": 52,
            "name": "E3",
            "ticks": 151200,
            "time": 161.538615,
            "velocity": 0.8267716535433071
          },
          {
            "duration": 0.032051312499987716,
            "durationTicks": 30,
            "midi": 82,
            "name": "A#5",
            "ticks": 151200,
            "time": 161.538615,
            "velocity": 0.5511811023622047
          },
          {
            "duration": 0.03205131250001614,
            "durationTicks": 30,
            "midi": 46,
            "name": "A#2",
            "ticks": 151440,
            "time": 161.79502549999998,
            "velocity": 0.8267716535433071
          },
          {
            "duration": 0.03205131250001614,
            "durationTicks": 30,
            "midi": 82,
            "name": "A#5",
            "ticks": 151440,
            "time": 161.79502549999998,
            "velocity": 0.5511811023622047
          },
          {
            "duration": 0.032051312499987716,
            "durationTicks": 30,
            "midi": 36,
            "name": "C2",
            "ticks": 151680,
            "time": 162.051436,
            "velocity": 0.8740157480314961
          },
          {
            "duration": 0.032051312499987716,
            "durationTicks": 30,
            "midi": 42,
            "name": "F#2",
            "ticks": 151680,
            "time": 162.051436,
            "velocity": 0.3779527559055118
          },
          {
            "duration": 0.032051312499987716,
            "durationTicks": 30,
            "midi": 82,
            "name": "A#5",
            "ticks": 151680,
            "time": 162.051436,
            "velocity": 0.5669291338582677
          },
          {
            "duration": 0.03205131250001614,
            "durationTicks": 30,
            "midi": 42,
            "name": "F#2",
            "ticks": 151920,
            "time": 162.30784649999998,
            "velocity": 0.5905511811023622
          },
          {
            "duration": 0.03205131250001614,
            "durationTicks": 30,
            "midi": 82,
            "name": "A#5",
            "ticks": 151920,
            "time": 162.30784649999998,
            "velocity": 0.5511811023622047
          },
          {
            "duration": 0.032051312499987716,
            "durationTicks": 30,
            "midi": 40,
            "name": "E2",
            "ticks": 152160,
            "time": 162.564257,
            "velocity": 0.9291338582677166
          },
          {
            "duration": 0.032051312499987716,
            "durationTicks": 30,
            "midi": 42,
            "name": "F#2",
            "ticks": 152160,
            "time": 162.564257,
            "velocity": 0.47244094488188976
          },
          {
            "duration": 0.032051312499987716,
            "durationTicks": 30,
            "midi": 82,
            "name": "A#5",
            "ticks": 152160,
            "time": 162.564257,
            "velocity": 0.5354330708661418
          },
          {
            "duration": 0.03205131250001614,
            "durationTicks": 30,
            "midi": 42,
            "name": "F#2",
            "ticks": 152400,
            "time": 162.82066749999998,
            "velocity": 0.6299212598425197
          },
          {
            "duration": 0.03205131250001614,
            "durationTicks": 30,
            "midi": 82,
            "name": "A#5",
            "ticks": 152400,
            "time": 162.82066749999998,
            "velocity": 0.5511811023622047
          },
          {
            "duration": 0.032051312499987716,
            "durationTicks": 30,
            "midi": 36,
            "name": "C2",
            "ticks": 152640,
            "time": 163.077078,
            "velocity": 0.8740157480314961
          },
          {
            "duration": 0.032051312499987716,
            "durationTicks": 30,
            "midi": 42,
            "name": "F#2",
            "ticks": 152640,
            "time": 163.077078,
            "velocity": 0.49606299212598426
          },
          {
            "duration": 0.032051312499987716,
            "durationTicks": 30,
            "midi": 82,
            "name": "A#5",
            "ticks": 152640,
            "time": 163.077078,
            "velocity": 0.5511811023622047
          },
          {
            "duration": 0.03205131250001614,
            "durationTicks": 30,
            "midi": 42,
            "name": "F#2",
            "ticks": 152880,
            "time": 163.3334885,
            "velocity": 0.5905511811023622
          },
          {
            "duration": 0.03205131250001614,
            "durationTicks": 30,
            "midi": 82,
            "name": "A#5",
            "ticks": 152880,
            "time": 163.3334885,
            "velocity": 0.5826771653543307
          },
          {
            "duration": 0.032051312499987716,
            "durationTicks": 30,
            "midi": 40,
            "name": "E2",
            "ticks": 153120,
            "time": 163.589899,
            "velocity": 0.937007874015748
          },
          {
            "duration": 0.032051312499987716,
            "durationTicks": 30,
            "midi": 42,
            "name": "F#2",
            "ticks": 153120,
            "time": 163.589899,
            "velocity": 0.49606299212598426
          },
          {
            "duration": 0.032051312499987716,
            "durationTicks": 30,
            "midi": 82,
            "name": "A#5",
            "ticks": 153120,
            "time": 163.589899,
            "velocity": 0.5354330708661418
          },
          {
            "duration": 0.032051312499987716,
            "durationTicks": 30,
            "midi": 42,
            "name": "F#2",
            "ticks": 153360,
            "time": 163.8463095,
            "velocity": 0.6692913385826772
          },
          {
            "duration": 0.032051312499987716,
            "durationTicks": 30,
            "midi": 82,
            "name": "A#5",
            "ticks": 153360,
            "time": 163.8463095,
            "velocity": 0.5511811023622047
          },
          {
            "duration": 0.03205131250001614,
            "durationTicks": 30,
            "midi": 36,
            "name": "C2",
            "ticks": 153600,
            "time": 164.10271999999998,
            "velocity": 0.8740157480314961
          },
          {
            "duration": 0.03205131250001614,
            "durationTicks": 30,
            "midi": 42,
            "name": "F#2",
            "ticks": 153600,
            "time": 164.10271999999998,
            "velocity": 0.47244094488188976
          },
          {
            "duration": 0.03205131250001614,
            "durationTicks": 30,
            "midi": 82,
            "name": "A#5",
            "ticks": 153600,
            "time": 164.10271999999998,
            "velocity": 0.5354330708661418
          },
          {
            "duration": 0.032051312499987716,
            "durationTicks": 30,
            "midi": 42,
            "name": "F#2",
            "ticks": 153840,
            "time": 164.3591305,
            "velocity": 0.5905511811023622
          },
          {
            "duration": 0.032051312499987716,
            "durationTicks": 30,
            "midi": 82,
            "name": "A#5",
            "ticks": 153840,
            "time": 164.3591305,
            "velocity": 0.48031496062992124
          },
          {
            "duration": 0.03205131250001614,
            "durationTicks": 30,
            "midi": 40,
            "name": "E2",
            "ticks": 154080,
            "time": 164.61554099999998,
            "velocity": 0.937007874015748
          },
          {
            "duration": 0.03205131250001614,
            "durationTicks": 30,
            "midi": 42,
            "name": "F#2",
            "ticks": 154080,
            "time": 164.61554099999998,
            "velocity": 0.4330708661417323
          },
          {
            "duration": 0.03205131250001614,
            "durationTicks": 30,
            "midi": 82,
            "name": "A#5",
            "ticks": 154080,
            "time": 164.61554099999998,
            "velocity": 0.48031496062992124
          },
          {
            "duration": 0.032051312499987716,
            "durationTicks": 30,
            "midi": 42,
            "name": "F#2",
            "ticks": 154320,
            "time": 164.8719515,
            "velocity": 0.6692913385826772
          },
          {
            "duration": 0.032051312499987716,
            "durationTicks": 30,
            "midi": 82,
            "name": "A#5",
            "ticks": 154320,
            "time": 164.8719515,
            "velocity": 0.44881889763779526
          },
          {
            "duration": 0.03205131250001614,
            "durationTicks": 30,
            "midi": 36,
            "name": "C2",
            "ticks": 154560,
            "time": 165.12836199999998,
            "velocity": 0.8740157480314961
          },
          {
            "duration": 0.03205131250001614,
            "durationTicks": 30,
            "midi": 42,
            "name": "F#2",
            "ticks": 154560,
            "time": 165.12836199999998,
            "velocity": 0.4094488188976378
          },
          {
            "duration": 0.03205131250001614,
            "durationTicks": 30,
            "midi": 82,
            "name": "A#5",
            "ticks": 154560,
            "time": 165.12836199999998,
            "velocity": 0.5039370078740157
          },
          {
            "duration": 0.032051312499987716,
            "durationTicks": 30,
            "midi": 42,
            "name": "F#2",
            "ticks": 154800,
            "time": 165.3847725,
            "velocity": 0.6299212598425197
          },
          {
            "duration": 0.032051312499987716,
            "durationTicks": 30,
            "midi": 82,
            "name": "A#5",
            "ticks": 154800,
            "time": 165.3847725,
            "velocity": 0.41732283464566927
          },
          {
            "duration": 0.03205131250001614,
            "durationTicks": 30,
            "midi": 40,
            "name": "E2",
            "ticks": 155040,
            "time": 165.64118299999998,
            "velocity": 0.937007874015748
          },
          {
            "duration": 0.03205131250001614,
            "durationTicks": 30,
            "midi": 42,
            "name": "F#2",
            "ticks": 155040,
            "time": 165.64118299999998,
            "velocity": 0.4094488188976378
          },
          {
            "duration": 0.03205131250001614,
            "durationTicks": 30,
            "midi": 52,
            "name": "E3",
            "ticks": 155040,
            "time": 165.64118299999998,
            "velocity": 0.8267716535433071
          },
          {
            "duration": 0.03205131250001614,
            "durationTicks": 30,
            "midi": 82,
            "name": "A#5",
            "ticks": 155040,
            "time": 165.64118299999998,
            "velocity": 0.5354330708661418
          },
          {
            "duration": 0.032051312499987716,
            "durationTicks": 30,
            "midi": 46,
            "name": "A#2",
            "ticks": 155280,
            "time": 165.8975935,
            "velocity": 0.8267716535433071
          },
          {
            "duration": 0.032051312499987716,
            "durationTicks": 30,
            "midi": 82,
            "name": "A#5",
            "ticks": 155280,
            "time": 165.8975935,
            "velocity": 0.5039370078740157
          },
          {
            "duration": 0.03205131250001614,
            "durationTicks": 30,
            "midi": 36,
            "name": "C2",
            "ticks": 155520,
            "time": 166.154004,
            "velocity": 0.8740157480314961
          },
          {
            "duration": 0.03205131250001614,
            "durationTicks": 30,
            "midi": 42,
            "name": "F#2",
            "ticks": 155520,
            "time": 166.154004,
            "velocity": 0.4330708661417323
          },
          {
            "duration": 0.03205131250001614,
            "durationTicks": 30,
            "midi": 82,
            "name": "A#5",
            "ticks": 155520,
            "time": 166.154004,
            "velocity": 0.4881889763779528
          },
          {
            "duration": 0.032051312499987716,
            "durationTicks": 30,
            "midi": 42,
            "name": "F#2",
            "ticks": 155760,
            "time": 166.4104145,
            "velocity": 0.3464566929133858
          },
          {
            "duration": 0.032051312499987716,
            "durationTicks": 30,
            "midi": 82,
            "name": "A#5",
            "ticks": 155760,
            "time": 166.4104145,
            "velocity": 0.4094488188976378
          },
          {
            "duration": 0.03205131250001614,
            "durationTicks": 30,
            "midi": 40,
            "name": "E2",
            "ticks": 156000,
            "time": 166.666825,
            "velocity": 0.9291338582677166
          },
          {
            "duration": 0.03205131250001614,
            "durationTicks": 30,
            "midi": 42,
            "name": "F#2",
            "ticks": 156000,
            "time": 166.666825,
            "velocity": 0.44881889763779526
          },
          {
            "duration": 0.03205131250001614,
            "durationTicks": 30,
            "midi": 82,
            "name": "A#5",
            "ticks": 156000,
            "time": 166.666825,
            "velocity": 0.5511811023622047
          },
          {
            "duration": 0.032051312499987716,
            "durationTicks": 30,
            "midi": 46,
            "name": "A#2",
            "ticks": 156240,
            "time": 166.9232355,
            "velocity": 0.7480314960629921
          },
          {
            "duration": 0.032051312499987716,
            "durationTicks": 30,
            "midi": 82,
            "name": "A#5",
            "ticks": 156240,
            "time": 166.9232355,
            "velocity": 0.4645669291338583
          },
          {
            "duration": 0.032051312499987716,
            "durationTicks": 30,
            "midi": 36,
            "name": "C2",
            "ticks": 156480,
            "time": 167.179646,
            "velocity": 0.8740157480314961
          },
          {
            "duration": 0.032051312499987716,
            "durationTicks": 30,
            "midi": 42,
            "name": "F#2",
            "ticks": 156480,
            "time": 167.179646,
            "velocity": 0.5118110236220472
          },
          {
            "duration": 0.032051312499987716,
            "durationTicks": 30,
            "midi": 82,
            "name": "A#5",
            "ticks": 156480,
            "time": 167.179646,
            "velocity": 0.5354330708661418
          },
          {
            "duration": 0.03205131250001614,
            "durationTicks": 30,
            "midi": 42,
            "name": "F#2",
            "ticks": 156720,
            "time": 167.43605649999998,
            "velocity": 0.33070866141732286
          },
          {
            "duration": 0.03205131250001614,
            "durationTicks": 30,
            "midi": 82,
            "name": "A#5",
            "ticks": 156720,
            "time": 167.43605649999998,
            "velocity": 0.5196850393700787
          },
          {
            "duration": 0.032051312499987716,
            "durationTicks": 30,
            "midi": 40,
            "name": "E2",
            "ticks": 156960,
            "time": 167.692467,
            "velocity": 0.937007874015748
          },
          {
            "duration": 0.032051312499987716,
            "durationTicks": 30,
            "midi": 42,
            "name": "F#2",
            "ticks": 156960,
            "time": 167.692467,
            "velocity": 0.5354330708661418
          },
          {
            "duration": 0.032051312499987716,
            "durationTicks": 30,
            "midi": 82,
            "name": "A#5",
            "ticks": 156960,
            "time": 167.692467,
            "velocity": 0.5826771653543307
          },
          {
            "duration": 0.03205131250001614,
            "durationTicks": 30,
            "midi": 46,
            "name": "A#2",
            "ticks": 157200,
            "time": 167.94887749999998,
            "velocity": 0.7874015748031497
          },
          {
            "duration": 0.03205131250001614,
            "durationTicks": 30,
            "midi": 82,
            "name": "A#5",
            "ticks": 157200,
            "time": 167.94887749999998,
            "velocity": 0.4409448818897638
          },
          {
            "duration": 0.032051312499987716,
            "durationTicks": 30,
            "midi": 36,
            "name": "C2",
            "ticks": 157440,
            "time": 168.205288,
            "velocity": 0.8740157480314961
          },
          {
            "duration": 0.032051312499987716,
            "durationTicks": 30,
            "midi": 42,
            "name": "F#2",
            "ticks": 157440,
            "time": 168.205288,
            "velocity": 0.5118110236220472
          },
          {
            "duration": 0.032051312499987716,
            "durationTicks": 30,
            "midi": 82,
            "name": "A#5",
            "ticks": 157440,
            "time": 168.205288,
            "velocity": 0.5826771653543307
          },
          {
            "duration": 0.03205131250001614,
            "durationTicks": 30,
            "midi": 46,
            "name": "A#2",
            "ticks": 157680,
            "time": 168.46169849999998,
            "velocity": 0.7874015748031497
          },
          {
            "duration": 0.03205131250001614,
            "durationTicks": 30,
            "midi": 82,
            "name": "A#5",
            "ticks": 157680,
            "time": 168.46169849999998,
            "velocity": 0.5039370078740157
          },
          {
            "duration": 0.032051312499987716,
            "durationTicks": 30,
            "midi": 40,
            "name": "E2",
            "ticks": 157920,
            "time": 168.718109,
            "velocity": 0.937007874015748
          },
          {
            "duration": 0.032051312499987716,
            "durationTicks": 30,
            "midi": 42,
            "name": "F#2",
            "ticks": 157920,
            "time": 168.718109,
            "velocity": 0.4881889763779528
          },
          {
            "duration": 0.032051312499987716,
            "durationTicks": 30,
            "midi": 82,
            "name": "A#5",
            "ticks": 157920,
            "time": 168.718109,
            "velocity": 0.5669291338582677
          },
          {
            "duration": 0.03205131250001614,
            "durationTicks": 30,
            "midi": 46,
            "name": "A#2",
            "ticks": 158160,
            "time": 168.97451949999999,
            "velocity": 0.7480314960629921
          },
          {
            "duration": 0.03205131250001614,
            "durationTicks": 30,
            "midi": 82,
            "name": "A#5",
            "ticks": 158160,
            "time": 168.97451949999999,
            "velocity": 0.5196850393700787
          },
          {
            "duration": 0.032051312499987716,
            "durationTicks": 30,
            "midi": 36,
            "name": "C2",
            "ticks": 158400,
            "time": 169.23093,
            "velocity": 0.8740157480314961
          },
          {
            "duration": 0.032051312499987716,
            "durationTicks": 30,
            "midi": 42,
            "name": "F#2",
            "ticks": 158400,
            "time": 169.23093,
            "velocity": 0.5669291338582677
          },
          {
            "duration": 0.032051312499987716,
            "durationTicks": 30,
            "midi": 82,
            "name": "A#5",
            "ticks": 158400,
            "time": 169.23093,
            "velocity": 0.4881889763779528
          },
          {
            "duration": 0.03205131250001614,
            "durationTicks": 30,
            "midi": 46,
            "name": "A#2",
            "ticks": 158640,
            "time": 169.4873405,
            "velocity": 0.7874015748031497
          },
          {
            "duration": 0.03205131250001614,
            "durationTicks": 30,
            "midi": 82,
            "name": "A#5",
            "ticks": 158640,
            "time": 169.4873405,
            "velocity": 0.5196850393700787
          },
          {
            "duration": 0.032051312499987716,
            "durationTicks": 30,
            "midi": 40,
            "name": "E2",
            "ticks": 158880,
            "time": 169.743751,
            "velocity": 0.937007874015748
          },
          {
            "duration": 0.032051312499987716,
            "durationTicks": 30,
            "midi": 42,
            "name": "F#2",
            "ticks": 158880,
            "time": 169.743751,
            "velocity": 0.5354330708661418
          },
          {
            "duration": 0.032051312499987716,
            "durationTicks": 30,
            "midi": 52,
            "name": "E3",
            "ticks": 158880,
            "time": 169.743751,
            "velocity": 0.7716535433070866
          },
          {
            "duration": 0.032051312499987716,
            "durationTicks": 30,
            "midi": 82,
            "name": "A#5",
            "ticks": 158880,
            "time": 169.743751,
            "velocity": 0.5511811023622047
          },
          {
            "duration": 0.032051312499987716,
            "durationTicks": 30,
            "midi": 46,
            "name": "A#2",
            "ticks": 159120,
            "time": 170.0001615,
            "velocity": 0.7874015748031497
          },
          {
            "duration": 0.032051312499987716,
            "durationTicks": 30,
            "midi": 82,
            "name": "A#5",
            "ticks": 159120,
            "time": 170.0001615,
            "velocity": 0.5511811023622047
          },
          {
            "duration": 0.03205131250001614,
            "durationTicks": 30,
            "midi": 36,
            "name": "C2",
            "ticks": 159360,
            "time": 170.25657199999998,
            "velocity": 0.8740157480314961
          },
          {
            "duration": 0.03205131250001614,
            "durationTicks": 30,
            "midi": 42,
            "name": "F#2",
            "ticks": 159360,
            "time": 170.25657199999998,
            "velocity": 0.3779527559055118
          },
          {
            "duration": 0.03205131250001614,
            "durationTicks": 30,
            "midi": 57,
            "name": "A3",
            "ticks": 159360,
            "time": 170.25657199999998,
            "velocity": 0.6614173228346457
          },
          {
            "duration": 0.03205131250001614,
            "durationTicks": 30,
            "midi": 82,
            "name": "A#5",
            "ticks": 159360,
            "time": 170.25657199999998,
            "velocity": 0.5669291338582677
          },
          {
            "duration": 0.032051312499987716,
            "durationTicks": 30,
            "midi": 42,
            "name": "F#2",
            "ticks": 159600,
            "time": 170.5129825,
            "velocity": 0.5905511811023622
          },
          {
            "duration": 0.032051312499987716,
            "durationTicks": 30,
            "midi": 82,
            "name": "A#5",
            "ticks": 159600,
            "time": 170.5129825,
            "velocity": 0.5511811023622047
          },
          {
            "duration": 0.03205131250001614,
            "durationTicks": 30,
            "midi": 39,
            "name": "D#2",
            "ticks": 159840,
            "time": 170.76939299999998,
            "velocity": 0.9133858267716536
          },
          {
            "duration": 0.03205131250001614,
            "durationTicks": 30,
            "midi": 40,
            "name": "E2",
            "ticks": 159840,
            "time": 170.76939299999998,
            "velocity": 0.9291338582677166
          },
          {
            "duration": 0.03205131250001614,
            "durationTicks": 30,
            "midi": 42,
            "name": "F#2",
            "ticks": 159840,
            "time": 170.76939299999998,
            "velocity": 0.47244094488188976
          },
          {
            "duration": 0.03205131250001614,
            "durationTicks": 30,
            "midi": 52,
            "name": "E3",
            "ticks": 159840,
            "time": 170.76939299999998,
            "velocity": 0.6141732283464567
          },
          {
            "duration": 0.03205131250001614,
            "durationTicks": 30,
            "midi": 82,
            "name": "A#5",
            "ticks": 159840,
            "time": 170.76939299999998,
            "velocity": 0.5354330708661418
          },
          {
            "duration": 0.032051312499987716,
            "durationTicks": 30,
            "midi": 42,
            "name": "F#2",
            "ticks": 160080,
            "time": 171.0258035,
            "velocity": 0.6299212598425197
          },
          {
            "duration": 0.032051312499987716,
            "durationTicks": 30,
            "midi": 82,
            "name": "A#5",
            "ticks": 160080,
            "time": 171.0258035,
            "velocity": 0.5511811023622047
          },
          {
            "duration": 0.03205131250001614,
            "durationTicks": 30,
            "midi": 36,
            "name": "C2",
            "ticks": 160320,
            "time": 171.28221399999998,
            "velocity": 0.8740157480314961
          },
          {
            "duration": 0.03205131250001614,
            "durationTicks": 30,
            "midi": 42,
            "name": "F#2",
            "ticks": 160320,
            "time": 171.28221399999998,
            "velocity": 0.49606299212598426
          },
          {
            "duration": 0.03205131250001614,
            "durationTicks": 30,
            "midi": 82,
            "name": "A#5",
            "ticks": 160320,
            "time": 171.28221399999998,
            "velocity": 0.5511811023622047
          },
          {
            "duration": 0.032051312499987716,
            "durationTicks": 30,
            "midi": 42,
            "name": "F#2",
            "ticks": 160560,
            "time": 171.5386245,
            "velocity": 0.5905511811023622
          },
          {
            "duration": 0.032051312499987716,
            "durationTicks": 30,
            "midi": 82,
            "name": "A#5",
            "ticks": 160560,
            "time": 171.5386245,
            "velocity": 0.5826771653543307
          },
          {
            "duration": 0.03205131250001614,
            "durationTicks": 30,
            "midi": 39,
            "name": "D#2",
            "ticks": 160800,
            "time": 171.79503499999998,
            "velocity": 0.9133858267716536
          },
          {
            "duration": 0.03205131250001614,
            "durationTicks": 30,
            "midi": 40,
            "name": "E2",
            "ticks": 160800,
            "time": 171.79503499999998,
            "velocity": 0.937007874015748
          },
          {
            "duration": 0.03205131250001614,
            "durationTicks": 30,
            "midi": 42,
            "name": "F#2",
            "ticks": 160800,
            "time": 171.79503499999998,
            "velocity": 0.49606299212598426
          },
          {
            "duration": 0.03205131250001614,
            "durationTicks": 30,
            "midi": 82,
            "name": "A#5",
            "ticks": 160800,
            "time": 171.79503499999998,
            "velocity": 0.5354330708661418
          },
          {
            "duration": 0.032051312499987716,
            "durationTicks": 30,
            "midi": 42,
            "name": "F#2",
            "ticks": 161040,
            "time": 172.0514455,
            "velocity": 0.6692913385826772
          },
          {
            "duration": 0.032051312499987716,
            "durationTicks": 30,
            "midi": 82,
            "name": "A#5",
            "ticks": 161040,
            "time": 172.0514455,
            "velocity": 0.5511811023622047
          },
          {
            "duration": 0.03205131250001614,
            "durationTicks": 30,
            "midi": 36,
            "name": "C2",
            "ticks": 161280,
            "time": 172.307856,
            "velocity": 0.8740157480314961
          },
          {
            "duration": 0.03205131250001614,
            "durationTicks": 30,
            "midi": 42,
            "name": "F#2",
            "ticks": 161280,
            "time": 172.307856,
            "velocity": 0.47244094488188976
          },
          {
            "duration": 0.03205131250001614,
            "durationTicks": 30,
            "midi": 82,
            "name": "A#5",
            "ticks": 161280,
            "time": 172.307856,
            "velocity": 0.5354330708661418
          },
          {
            "duration": 0.032051312499987716,
            "durationTicks": 30,
            "midi": 42,
            "name": "F#2",
            "ticks": 161520,
            "time": 172.5642665,
            "velocity": 0.5905511811023622
          },
          {
            "duration": 0.032051312499987716,
            "durationTicks": 30,
            "midi": 82,
            "name": "A#5",
            "ticks": 161520,
            "time": 172.5642665,
            "velocity": 0.48031496062992124
          },
          {
            "duration": 0.032051312499987716,
            "durationTicks": 30,
            "midi": 39,
            "name": "D#2",
            "ticks": 161760,
            "time": 172.820677,
            "velocity": 0.9133858267716536
          },
          {
            "duration": 0.032051312499987716,
            "durationTicks": 30,
            "midi": 40,
            "name": "E2",
            "ticks": 161760,
            "time": 172.820677,
            "velocity": 0.937007874015748
          },
          {
            "duration": 0.032051312499987716,
            "durationTicks": 30,
            "midi": 42,
            "name": "F#2",
            "ticks": 161760,
            "time": 172.820677,
            "velocity": 0.4330708661417323
          },
          {
            "duration": 0.032051312499987716,
            "durationTicks": 30,
            "midi": 82,
            "name": "A#5",
            "ticks": 161760,
            "time": 172.820677,
            "velocity": 0.48031496062992124
          },
          {
            "duration": 0.03205131250001614,
            "durationTicks": 30,
            "midi": 42,
            "name": "F#2",
            "ticks": 162000,
            "time": 173.07708749999998,
            "velocity": 0.6692913385826772
          },
          {
            "duration": 0.03205131250001614,
            "durationTicks": 30,
            "midi": 82,
            "name": "A#5",
            "ticks": 162000,
            "time": 173.07708749999998,
            "velocity": 0.44881889763779526
          },
          {
            "duration": 0.032051312499987716,
            "durationTicks": 30,
            "midi": 36,
            "name": "C2",
            "ticks": 162240,
            "time": 173.333498,
            "velocity": 0.8740157480314961
          },
          {
            "duration": 0.032051312499987716,
            "durationTicks": 30,
            "midi": 42,
            "name": "F#2",
            "ticks": 162240,
            "time": 173.333498,
            "velocity": 0.4094488188976378
          },
          {
            "duration": 0.032051312499987716,
            "durationTicks": 30,
            "midi": 82,
            "name": "A#5",
            "ticks": 162240,
            "time": 173.333498,
            "velocity": 0.5039370078740157
          },
          {
            "duration": 0.03205131250001614,
            "durationTicks": 30,
            "midi": 42,
            "name": "F#2",
            "ticks": 162480,
            "time": 173.58990849999998,
            "velocity": 0.6299212598425197
          },
          {
            "duration": 0.03205131250001614,
            "durationTicks": 30,
            "midi": 82,
            "name": "A#5",
            "ticks": 162480,
            "time": 173.58990849999998,
            "velocity": 0.41732283464566927
          },
          {
            "duration": 0.03205131250001614,
            "durationTicks": 30,
            "midi": 45,
            "name": "A2",
            "ticks": 162600,
            "time": 173.71811375,
            "velocity": 0.8110236220472441
          },
          {
            "duration": 0.032051312499987716,
            "durationTicks": 30,
            "midi": 39,
            "name": "D#2",
            "ticks": 162720,
            "time": 173.846319,
            "velocity": 0.9133858267716536
          },
          {
            "duration": 0.032051312499987716,
            "durationTicks": 30,
            "midi": 40,
            "name": "E2",
            "ticks": 162720,
            "time": 173.846319,
            "velocity": 0.937007874015748
          },
          {
            "duration": 0.032051312499987716,
            "durationTicks": 30,
            "midi": 42,
            "name": "F#2",
            "ticks": 162720,
            "time": 173.846319,
            "velocity": 0.4094488188976378
          },
          {
            "duration": 0.032051312499987716,
            "durationTicks": 30,
            "midi": 43,
            "name": "G2",
            "ticks": 162720,
            "time": 173.846319,
            "velocity": 0.8582677165354331
          },
          {
            "duration": 0.032051312499987716,
            "durationTicks": 30,
            "midi": 82,
            "name": "A#5",
            "ticks": 162720,
            "time": 173.846319,
            "velocity": 0.5354330708661418
          },
          {
            "duration": 0.03205131250001614,
            "durationTicks": 30,
            "midi": 42,
            "name": "F#2",
            "ticks": 162960,
            "time": 174.10272949999998,
            "velocity": 0.6692913385826772
          },
          {
            "duration": 0.03205131250001614,
            "durationTicks": 30,
            "midi": 82,
            "name": "A#5",
            "ticks": 162960,
            "time": 174.10272949999998,
            "velocity": 0.5039370078740157
          },
          {
            "duration": 0.032051312499987716,
            "durationTicks": 30,
            "midi": 36,
            "name": "C2",
            "ticks": 163200,
            "time": 174.35914,
            "velocity": 0.8740157480314961
          },
          {
            "duration": 0.032051312499987716,
            "durationTicks": 30,
            "midi": 42,
            "name": "F#2",
            "ticks": 163200,
            "time": 174.35914,
            "velocity": 0.3779527559055118
          },
          {
            "duration": 0.032051312499987716,
            "durationTicks": 30,
            "midi": 82,
            "name": "A#5",
            "ticks": 163200,
            "time": 174.35914,
            "velocity": 0.4881889763779528
          },
          {
            "duration": 0.03205131250001614,
            "durationTicks": 30,
            "midi": 42,
            "name": "F#2",
            "ticks": 163440,
            "time": 174.61555049999998,
            "velocity": 0.5905511811023622
          },
          {
            "duration": 0.03205131250001614,
            "durationTicks": 30,
            "midi": 82,
            "name": "A#5",
            "ticks": 163440,
            "time": 174.61555049999998,
            "velocity": 0.4094488188976378
          },
          {
            "duration": 0.032051312499987716,
            "durationTicks": 30,
            "midi": 39,
            "name": "D#2",
            "ticks": 163680,
            "time": 174.871961,
            "velocity": 0.9133858267716536
          },
          {
            "duration": 0.032051312499987716,
            "durationTicks": 30,
            "midi": 40,
            "name": "E2",
            "ticks": 163680,
            "time": 174.871961,
            "velocity": 0.9291338582677166
          },
          {
            "duration": 0.032051312499987716,
            "durationTicks": 30,
            "midi": 42,
            "name": "F#2",
            "ticks": 163680,
            "time": 174.871961,
            "velocity": 0.47244094488188976
          },
          {
            "duration": 0.032051312499987716,
            "durationTicks": 30,
            "midi": 82,
            "name": "A#5",
            "ticks": 163680,
            "time": 174.871961,
            "velocity": 0.5511811023622047
          },
          {
            "duration": 0.03205131250001614,
            "durationTicks": 30,
            "midi": 42,
            "name": "F#2",
            "ticks": 163920,
            "time": 175.1283715,
            "velocity": 0.6299212598425197
          },
          {
            "duration": 0.03205131250001614,
            "durationTicks": 30,
            "midi": 82,
            "name": "A#5",
            "ticks": 163920,
            "time": 175.1283715,
            "velocity": 0.4645669291338583
          },
          {
            "duration": 0.032051312499987716,
            "durationTicks": 30,
            "midi": 36,
            "name": "C2",
            "ticks": 164160,
            "time": 175.384782,
            "velocity": 0.8740157480314961
          },
          {
            "duration": 0.032051312499987716,
            "durationTicks": 30,
            "midi": 42,
            "name": "F#2",
            "ticks": 164160,
            "time": 175.384782,
            "velocity": 0.49606299212598426
          },
          {
            "duration": 0.032051312499987716,
            "durationTicks": 30,
            "midi": 82,
            "name": "A#5",
            "ticks": 164160,
            "time": 175.384782,
            "velocity": 0.5354330708661418
          },
          {
            "duration": 0.032051312499987716,
            "durationTicks": 30,
            "midi": 42,
            "name": "F#2",
            "ticks": 164400,
            "time": 175.6411925,
            "velocity": 0.5905511811023622
          },
          {
            "duration": 0.032051312499987716,
            "durationTicks": 30,
            "midi": 82,
            "name": "A#5",
            "ticks": 164400,
            "time": 175.6411925,
            "velocity": 0.5196850393700787
          },
          {
            "duration": 0.032051312499987716,
            "durationTicks": 30,
            "midi": 39,
            "name": "D#2",
            "ticks": 164640,
            "time": 175.897603,
            "velocity": 0.9133858267716536
          },
          {
            "duration": 0.032051312499987716,
            "durationTicks": 30,
            "midi": 40,
            "name": "E2",
            "ticks": 164640,
            "time": 175.897603,
            "velocity": 0.937007874015748
          },
          {
            "duration": 0.032051312499987716,
            "durationTicks": 30,
            "midi": 42,
            "name": "F#2",
            "ticks": 164640,
            "time": 175.897603,
            "velocity": 0.49606299212598426
          },
          {
            "duration": 0.032051312499987716,
            "durationTicks": 30,
            "midi": 82,
            "name": "A#5",
            "ticks": 164640,
            "time": 175.897603,
            "velocity": 0.5826771653543307
          },
          {
            "duration": 0.032051312499987716,
            "durationTicks": 30,
            "midi": 42,
            "name": "F#2",
            "ticks": 164880,
            "time": 176.1540135,
            "velocity": 0.6692913385826772
          },
          {
            "duration": 0.032051312499987716,
            "durationTicks": 30,
            "midi": 82,
            "name": "A#5",
            "ticks": 164880,
            "time": 176.1540135,
            "velocity": 0.4409448818897638
          },
          {
            "duration": 0.03205131250001614,
            "durationTicks": 30,
            "midi": 36,
            "name": "C2",
            "ticks": 165120,
            "time": 176.41042399999998,
            "velocity": 0.8740157480314961
          },
          {
            "duration": 0.03205131250001614,
            "durationTicks": 30,
            "midi": 42,
            "name": "F#2",
            "ticks": 165120,
            "time": 176.41042399999998,
            "velocity": 0.47244094488188976
          },
          {
            "duration": 0.03205131250001614,
            "durationTicks": 30,
            "midi": 82,
            "name": "A#5",
            "ticks": 165120,
            "time": 176.41042399999998,
            "velocity": 0.5826771653543307
          },
          {
            "duration": 0.032051312499987716,
            "durationTicks": 30,
            "midi": 42,
            "name": "F#2",
            "ticks": 165360,
            "time": 176.6668345,
            "velocity": 0.5905511811023622
          },
          {
            "duration": 0.032051312499987716,
            "durationTicks": 30,
            "midi": 82,
            "name": "A#5",
            "ticks": 165360,
            "time": 176.6668345,
            "velocity": 0.5039370078740157
          },
          {
            "duration": 0.03205131250001614,
            "durationTicks": 30,
            "midi": 39,
            "name": "D#2",
            "ticks": 165600,
            "time": 176.92324499999998,
            "velocity": 0.9133858267716536
          },
          {
            "duration": 0.03205131250001614,
            "durationTicks": 30,
            "midi": 40,
            "name": "E2",
            "ticks": 165600,
            "time": 176.92324499999998,
            "velocity": 0.937007874015748
          },
          {
            "duration": 0.03205131250001614,
            "durationTicks": 30,
            "midi": 42,
            "name": "F#2",
            "ticks": 165600,
            "time": 176.92324499999998,
            "velocity": 0.4330708661417323
          },
          {
            "duration": 0.03205131250001614,
            "durationTicks": 30,
            "midi": 82,
            "name": "A#5",
            "ticks": 165600,
            "time": 176.92324499999998,
            "velocity": 0.5669291338582677
          },
          {
            "duration": 0.032051312499987716,
            "durationTicks": 30,
            "midi": 42,
            "name": "F#2",
            "ticks": 165840,
            "time": 177.1796555,
            "velocity": 0.6692913385826772
          },
          {
            "duration": 0.032051312499987716,
            "durationTicks": 30,
            "midi": 82,
            "name": "A#5",
            "ticks": 165840,
            "time": 177.1796555,
            "velocity": 0.5196850393700787
          },
          {
            "duration": 0.03205131250001614,
            "durationTicks": 30,
            "midi": 36,
            "name": "C2",
            "ticks": 166080,
            "time": 177.43606599999998,
            "velocity": 0.8740157480314961
          },
          {
            "duration": 0.03205131250001614,
            "durationTicks": 30,
            "midi": 42,
            "name": "F#2",
            "ticks": 166080,
            "time": 177.43606599999998,
            "velocity": 0.4094488188976378
          },
          {
            "duration": 0.03205131250001614,
            "durationTicks": 30,
            "midi": 82,
            "name": "A#5",
            "ticks": 166080,
            "time": 177.43606599999998,
            "velocity": 0.4881889763779528
          },
          {
            "duration": 0.032051312499987716,
            "durationTicks": 30,
            "midi": 42,
            "name": "F#2",
            "ticks": 166320,
            "time": 177.6924765,
            "velocity": 0.6299212598425197
          },
          {
            "duration": 0.032051312499987716,
            "durationTicks": 30,
            "midi": 82,
            "name": "A#5",
            "ticks": 166320,
            "time": 177.6924765,
            "velocity": 0.5196850393700787
          },
          {
            "duration": 0.03205131250001614,
            "durationTicks": 30,
            "midi": 39,
            "name": "D#2",
            "ticks": 166560,
            "time": 177.94888699999998,
            "velocity": 0.9133858267716536
          },
          {
            "duration": 0.03205131250001614,
            "durationTicks": 30,
            "midi": 40,
            "name": "E2",
            "ticks": 166560,
            "time": 177.94888699999998,
            "velocity": 0.937007874015748
          },
          {
            "duration": 0.03205131250001614,
            "durationTicks": 30,
            "midi": 42,
            "name": "F#2",
            "ticks": 166560,
            "time": 177.94888699999998,
            "velocity": 0.4094488188976378
          },
          {
            "duration": 0.03205131250001614,
            "durationTicks": 30,
            "midi": 82,
            "name": "A#5",
            "ticks": 166560,
            "time": 177.94888699999998,
            "velocity": 0.5511811023622047
          },
          {
            "duration": 0.032051312499987716,
            "durationTicks": 30,
            "midi": 42,
            "name": "F#2",
            "ticks": 166800,
            "time": 178.2052975,
            "velocity": 0.6692913385826772
          },
          {
            "duration": 0.032051312499987716,
            "durationTicks": 30,
            "midi": 82,
            "name": "A#5",
            "ticks": 166800,
            "time": 178.2052975,
            "velocity": 0.5511811023622047
          },
          {
            "duration": 0.03205131250001614,
            "durationTicks": 30,
            "midi": 36,
            "name": "C2",
            "ticks": 167040,
            "time": 178.461708,
            "velocity": 0.8740157480314961
          },
          {
            "duration": 0.03205131250001614,
            "durationTicks": 30,
            "midi": 42,
            "name": "F#2",
            "ticks": 167040,
            "time": 178.461708,
            "velocity": 0.3779527559055118
          },
          {
            "duration": 0.03205131250001614,
            "durationTicks": 30,
            "midi": 82,
            "name": "A#5",
            "ticks": 167040,
            "time": 178.461708,
            "velocity": 0.5669291338582677
          },
          {
            "duration": 0.032051312499987716,
            "durationTicks": 30,
            "midi": 42,
            "name": "F#2",
            "ticks": 167280,
            "time": 178.7181185,
            "velocity": 0.5905511811023622
          },
          {
            "duration": 0.032051312499987716,
            "durationTicks": 30,
            "midi": 82,
            "name": "A#5",
            "ticks": 167280,
            "time": 178.7181185,
            "velocity": 0.5511811023622047
          },
          {
            "duration": 0.032051312499987716,
            "durationTicks": 30,
            "midi": 39,
            "name": "D#2",
            "ticks": 167520,
            "time": 178.974529,
            "velocity": 0.9133858267716536
          },
          {
            "duration": 0.032051312499987716,
            "durationTicks": 30,
            "midi": 40,
            "name": "E2",
            "ticks": 167520,
            "time": 178.974529,
            "velocity": 0.9291338582677166
          },
          {
            "duration": 0.032051312499987716,
            "durationTicks": 30,
            "midi": 42,
            "name": "F#2",
            "ticks": 167520,
            "time": 178.974529,
            "velocity": 0.47244094488188976
          },
          {
            "duration": 0.032051312499987716,
            "durationTicks": 30,
            "midi": 82,
            "name": "A#5",
            "ticks": 167520,
            "time": 178.974529,
            "velocity": 0.5354330708661418
          },
          {
            "duration": 0.03205131250001614,
            "durationTicks": 30,
            "midi": 42,
            "name": "F#2",
            "ticks": 167760,
            "time": 179.23093949999998,
            "velocity": 0.6299212598425197
          },
          {
            "duration": 0.03205131250001614,
            "durationTicks": 30,
            "midi": 82,
            "name": "A#5",
            "ticks": 167760,
            "time": 179.23093949999998,
            "velocity": 0.5511811023622047
          },
          {
            "duration": 0.032051312499987716,
            "durationTicks": 30,
            "midi": 36,
            "name": "C2",
            "ticks": 168000,
            "time": 179.48735,
            "velocity": 0.8740157480314961
          },
          {
            "duration": 0.032051312499987716,
            "durationTicks": 30,
            "midi": 42,
            "name": "F#2",
            "ticks": 168000,
            "time": 179.48735,
            "velocity": 0.49606299212598426
          },
          {
            "duration": 0.032051312499987716,
            "durationTicks": 30,
            "midi": 82,
            "name": "A#5",
            "ticks": 168000,
            "time": 179.48735,
            "velocity": 0.5511811023622047
          },
          {
            "duration": 0.03205131250001614,
            "durationTicks": 30,
            "midi": 42,
            "name": "F#2",
            "ticks": 168240,
            "time": 179.74376049999998,
            "velocity": 0.5905511811023622
          },
          {
            "duration": 0.03205131250001614,
            "durationTicks": 30,
            "midi": 82,
            "name": "A#5",
            "ticks": 168240,
            "time": 179.74376049999998,
            "velocity": 0.5826771653543307
          },
          {
            "duration": 0.032051312499987716,
            "durationTicks": 30,
            "midi": 39,
            "name": "D#2",
            "ticks": 168480,
            "time": 180.000171,
            "velocity": 0.9133858267716536
          },
          {
            "duration": 0.032051312499987716,
            "durationTicks": 30,
            "midi": 40,
            "name": "E2",
            "ticks": 168480,
            "time": 180.000171,
            "velocity": 0.937007874015748
          },
          {
            "duration": 0.032051312499987716,
            "durationTicks": 30,
            "midi": 42,
            "name": "F#2",
            "ticks": 168480,
            "time": 180.000171,
            "velocity": 0.49606299212598426
          },
          {
            "duration": 0.032051312499987716,
            "durationTicks": 30,
            "midi": 82,
            "name": "A#5",
            "ticks": 168480,
            "time": 180.000171,
            "velocity": 0.5354330708661418
          },
          {
            "duration": 0.03205131250001614,
            "durationTicks": 30,
            "midi": 42,
            "name": "F#2",
            "ticks": 168720,
            "time": 180.25658149999998,
            "velocity": 0.6692913385826772
          },
          {
            "duration": 0.03205131250001614,
            "durationTicks": 30,
            "midi": 82,
            "name": "A#5",
            "ticks": 168720,
            "time": 180.25658149999998,
            "velocity": 0.5511811023622047
          },
          {
            "duration": 0.032051312499987716,
            "durationTicks": 30,
            "midi": 36,
            "name": "C2",
            "ticks": 168960,
            "time": 180.512992,
            "velocity": 0.8740157480314961
          },
          {
            "duration": 0.032051312499987716,
            "durationTicks": 30,
            "midi": 42,
            "name": "F#2",
            "ticks": 168960,
            "time": 180.512992,
            "velocity": 0.47244094488188976
          },
          {
            "duration": 0.032051312499987716,
            "durationTicks": 30,
            "midi": 82,
            "name": "A#5",
            "ticks": 168960,
            "time": 180.512992,
            "velocity": 0.5354330708661418
          },
          {
            "duration": 0.03205131250001614,
            "durationTicks": 30,
            "midi": 42,
            "name": "F#2",
            "ticks": 169200,
            "time": 180.76940249999998,
            "velocity": 0.5905511811023622
          },
          {
            "duration": 0.03205131250001614,
            "durationTicks": 30,
            "midi": 82,
            "name": "A#5",
            "ticks": 169200,
            "time": 180.76940249999998,
            "velocity": 0.48031496062992124
          },
          {
            "duration": 0.032051312499987716,
            "durationTicks": 30,
            "midi": 39,
            "name": "D#2",
            "ticks": 169440,
            "time": 181.025813,
            "velocity": 0.9133858267716536
          },
          {
            "duration": 0.032051312499987716,
            "durationTicks": 30,
            "midi": 40,
            "name": "E2",
            "ticks": 169440,
            "time": 181.025813,
            "velocity": 0.937007874015748
          },
          {
            "duration": 0.032051312499987716,
            "durationTicks": 30,
            "midi": 42,
            "name": "F#2",
            "ticks": 169440,
            "time": 181.025813,
            "velocity": 0.4330708661417323
          },
          {
            "duration": 0.032051312499987716,
            "durationTicks": 30,
            "midi": 82,
            "name": "A#5",
            "ticks": 169440,
            "time": 181.025813,
            "velocity": 0.48031496062992124
          },
          {
            "duration": 0.03205131250001614,
            "durationTicks": 30,
            "midi": 42,
            "name": "F#2",
            "ticks": 169680,
            "time": 181.2822235,
            "velocity": 0.6692913385826772
          },
          {
            "duration": 0.03205131250001614,
            "durationTicks": 30,
            "midi": 82,
            "name": "A#5",
            "ticks": 169680,
            "time": 181.2822235,
            "velocity": 0.44881889763779526
          },
          {
            "duration": 0.032051312499987716,
            "durationTicks": 30,
            "midi": 36,
            "name": "C2",
            "ticks": 169920,
            "time": 181.538634,
            "velocity": 0.8740157480314961
          },
          {
            "duration": 0.032051312499987716,
            "durationTicks": 30,
            "midi": 42,
            "name": "F#2",
            "ticks": 169920,
            "time": 181.538634,
            "velocity": 0.4094488188976378
          },
          {
            "duration": 0.032051312499987716,
            "durationTicks": 30,
            "midi": 82,
            "name": "A#5",
            "ticks": 169920,
            "time": 181.538634,
            "velocity": 0.5039370078740157
          },
          {
            "duration": 0.032051312499987716,
            "durationTicks": 30,
            "midi": 42,
            "name": "F#2",
            "ticks": 170160,
            "time": 181.7950445,
            "velocity": 0.6299212598425197
          },
          {
            "duration": 0.032051312499987716,
            "durationTicks": 30,
            "midi": 82,
            "name": "A#5",
            "ticks": 170160,
            "time": 181.7950445,
            "velocity": 0.41732283464566927
          },
          {
            "duration": 0.03205131250001614,
            "durationTicks": 30,
            "midi": 39,
            "name": "D#2",
            "ticks": 170400,
            "time": 182.05145499999998,
            "velocity": 0.9133858267716536
          },
          {
            "duration": 0.03205131250001614,
            "durationTicks": 30,
            "midi": 40,
            "name": "E2",
            "ticks": 170400,
            "time": 182.05145499999998,
            "velocity": 0.937007874015748
          },
          {
            "duration": 0.03205131250001614,
            "durationTicks": 30,
            "midi": 42,
            "name": "F#2",
            "ticks": 170400,
            "time": 182.05145499999998,
            "velocity": 0.4094488188976378
          },
          {
            "duration": 0.03205131250001614,
            "durationTicks": 30,
            "midi": 82,
            "name": "A#5",
            "ticks": 170400,
            "time": 182.05145499999998,
            "velocity": 0.5354330708661418
          },
          {
            "duration": 0.032051312499987716,
            "durationTicks": 30,
            "midi": 42,
            "name": "F#2",
            "ticks": 170640,
            "time": 182.3078655,
            "velocity": 0.6692913385826772
          },
          {
            "duration": 0.032051312499987716,
            "durationTicks": 30,
            "midi": 82,
            "name": "A#5",
            "ticks": 170640,
            "time": 182.3078655,
            "velocity": 0.5039370078740157
          },
          {
            "duration": 0.03205131250001614,
            "durationTicks": 30,
            "midi": 36,
            "name": "C2",
            "ticks": 170880,
            "time": 182.56427599999998,
            "velocity": 0.8740157480314961
          },
          {
            "duration": 0.03205131250001614,
            "durationTicks": 30,
            "midi": 42,
            "name": "F#2",
            "ticks": 170880,
            "time": 182.56427599999998,
            "velocity": 0.3779527559055118
          },
          {
            "duration": 0.03205131250001614,
            "durationTicks": 30,
            "midi": 82,
            "name": "A#5",
            "ticks": 170880,
            "time": 182.56427599999998,
            "velocity": 0.4881889763779528
          },
          {
            "duration": 0.032051312499987716,
            "durationTicks": 30,
            "midi": 42,
            "name": "F#2",
            "ticks": 171120,
            "time": 182.8206865,
            "velocity": 0.5905511811023622
          },
          {
            "duration": 0.032051312499987716,
            "durationTicks": 30,
            "midi": 82,
            "name": "A#5",
            "ticks": 171120,
            "time": 182.8206865,
            "velocity": 0.4094488188976378
          },
          {
            "duration": 0.03205131250001614,
            "durationTicks": 30,
            "midi": 39,
            "name": "D#2",
            "ticks": 171360,
            "time": 183.07709699999998,
            "velocity": 0.9133858267716536
          },
          {
            "duration": 0.03205131250001614,
            "durationTicks": 30,
            "midi": 40,
            "name": "E2",
            "ticks": 171360,
            "time": 183.07709699999998,
            "velocity": 0.9291338582677166
          },
          {
            "duration": 0.03205131250001614,
            "durationTicks": 30,
            "midi": 42,
            "name": "F#2",
            "ticks": 171360,
            "time": 183.07709699999998,
            "velocity": 0.47244094488188976
          },
          {
            "duration": 0.03205131250001614,
            "durationTicks": 30,
            "midi": 82,
            "name": "A#5",
            "ticks": 171360,
            "time": 183.07709699999998,
            "velocity": 0.5511811023622047
          },
          {
            "duration": 0.032051312499987716,
            "durationTicks": 30,
            "midi": 42,
            "name": "F#2",
            "ticks": 171600,
            "time": 183.3335075,
            "velocity": 0.6299212598425197
          },
          {
            "duration": 0.032051312499987716,
            "durationTicks": 30,
            "midi": 82,
            "name": "A#5",
            "ticks": 171600,
            "time": 183.3335075,
            "velocity": 0.4645669291338583
          },
          {
            "duration": 0.03205131250001614,
            "durationTicks": 30,
            "midi": 36,
            "name": "C2",
            "ticks": 171840,
            "time": 183.58991799999998,
            "velocity": 0.8740157480314961
          },
          {
            "duration": 0.03205131250001614,
            "durationTicks": 30,
            "midi": 42,
            "name": "F#2",
            "ticks": 171840,
            "time": 183.58991799999998,
            "velocity": 0.49606299212598426
          },
          {
            "duration": 0.03205131250001614,
            "durationTicks": 30,
            "midi": 82,
            "name": "A#5",
            "ticks": 171840,
            "time": 183.58991799999998,
            "velocity": 0.5354330708661418
          },
          {
            "duration": 0.032051312499987716,
            "durationTicks": 30,
            "midi": 42,
            "name": "F#2",
            "ticks": 172080,
            "time": 183.8463285,
            "velocity": 0.5905511811023622
          },
          {
            "duration": 0.032051312499987716,
            "durationTicks": 30,
            "midi": 82,
            "name": "A#5",
            "ticks": 172080,
            "time": 183.8463285,
            "velocity": 0.5196850393700787
          },
          {
            "duration": 0.03205131250001614,
            "durationTicks": 30,
            "midi": 39,
            "name": "D#2",
            "ticks": 172320,
            "time": 184.10273899999999,
            "velocity": 0.9133858267716536
          },
          {
            "duration": 0.03205131250001614,
            "durationTicks": 30,
            "midi": 40,
            "name": "E2",
            "ticks": 172320,
            "time": 184.10273899999999,
            "velocity": 0.937007874015748
          },
          {
            "duration": 0.03205131250001614,
            "durationTicks": 30,
            "midi": 42,
            "name": "F#2",
            "ticks": 172320,
            "time": 184.10273899999999,
            "velocity": 0.49606299212598426
          },
          {
            "duration": 0.03205131250001614,
            "durationTicks": 30,
            "midi": 82,
            "name": "A#5",
            "ticks": 172320,
            "time": 184.10273899999999,
            "velocity": 0.5826771653543307
          },
          {
            "duration": 0.032051312499987716,
            "durationTicks": 30,
            "midi": 42,
            "name": "F#2",
            "ticks": 172560,
            "time": 184.3591495,
            "velocity": 0.6692913385826772
          },
          {
            "duration": 0.032051312499987716,
            "durationTicks": 30,
            "midi": 82,
            "name": "A#5",
            "ticks": 172560,
            "time": 184.3591495,
            "velocity": 0.4409448818897638
          },
          {
            "duration": 0.032051312499987716,
            "durationTicks": 30,
            "midi": 36,
            "name": "C2",
            "ticks": 172800,
            "time": 184.61556,
            "velocity": 0.8740157480314961
          },
          {
            "duration": 0.032051312499987716,
            "durationTicks": 30,
            "midi": 42,
            "name": "F#2",
            "ticks": 172800,
            "time": 184.61556,
            "velocity": 0.47244094488188976
          },
          {
            "duration": 0.032051312499987716,
            "durationTicks": 30,
            "midi": 82,
            "name": "A#5",
            "ticks": 172800,
            "time": 184.61556,
            "velocity": 0.5826771653543307
          },
          {
            "duration": 0.032051312499987716,
            "durationTicks": 30,
            "midi": 42,
            "name": "F#2",
            "ticks": 173040,
            "time": 184.8719705,
            "velocity": 0.5905511811023622
          },
          {
            "duration": 0.032051312499987716,
            "durationTicks": 30,
            "midi": 82,
            "name": "A#5",
            "ticks": 173040,
            "time": 184.8719705,
            "velocity": 0.5039370078740157
          },
          {
            "duration": 0.032051312499987716,
            "durationTicks": 30,
            "midi": 39,
            "name": "D#2",
            "ticks": 173280,
            "time": 185.128381,
            "velocity": 0.9133858267716536
          },
          {
            "duration": 0.032051312499987716,
            "durationTicks": 30,
            "midi": 40,
            "name": "E2",
            "ticks": 173280,
            "time": 185.128381,
            "velocity": 0.937007874015748
          },
          {
            "duration": 0.032051312499987716,
            "durationTicks": 30,
            "midi": 42,
            "name": "F#2",
            "ticks": 173280,
            "time": 185.128381,
            "velocity": 0.4330708661417323
          },
          {
            "duration": 0.032051312499987716,
            "durationTicks": 30,
            "midi": 82,
            "name": "A#5",
            "ticks": 173280,
            "time": 185.128381,
            "velocity": 0.5669291338582677
          },
          {
            "duration": 0.03205131250001614,
            "durationTicks": 30,
            "midi": 42,
            "name": "F#2",
            "ticks": 173520,
            "time": 185.38479149999998,
            "velocity": 0.6692913385826772
          },
          {
            "duration": 0.03205131250001614,
            "durationTicks": 30,
            "midi": 82,
            "name": "A#5",
            "ticks": 173520,
            "time": 185.38479149999998,
            "velocity": 0.5196850393700787
          },
          {
            "duration": 0.032051312499987716,
            "durationTicks": 30,
            "midi": 36,
            "name": "C2",
            "ticks": 173760,
            "time": 185.641202,
            "velocity": 0.8740157480314961
          },
          {
            "duration": 0.032051312499987716,
            "durationTicks": 30,
            "midi": 42,
            "name": "F#2",
            "ticks": 173760,
            "time": 185.641202,
            "velocity": 0.4094488188976378
          },
          {
            "duration": 0.032051312499987716,
            "durationTicks": 30,
            "midi": 82,
            "name": "A#5",
            "ticks": 173760,
            "time": 185.641202,
            "velocity": 0.4881889763779528
          },
          {
            "duration": 0.03205131250001614,
            "durationTicks": 30,
            "midi": 42,
            "name": "F#2",
            "ticks": 174000,
            "time": 185.89761249999998,
            "velocity": 0.6299212598425197
          },
          {
            "duration": 0.03205131250001614,
            "durationTicks": 30,
            "midi": 82,
            "name": "A#5",
            "ticks": 174000,
            "time": 185.89761249999998,
            "velocity": 0.5196850393700787
          },
          {
            "duration": 0.03205131250001614,
            "durationTicks": 30,
            "midi": 45,
            "name": "A2",
            "ticks": 174120,
            "time": 186.02581775,
            "velocity": 0.8110236220472441
          },
          {
            "duration": 0.032051312499987716,
            "durationTicks": 30,
            "midi": 39,
            "name": "D#2",
            "ticks": 174240,
            "time": 186.154023,
            "velocity": 0.9133858267716536
          },
          {
            "duration": 0.032051312499987716,
            "durationTicks": 30,
            "midi": 40,
            "name": "E2",
            "ticks": 174240,
            "time": 186.154023,
            "velocity": 0.937007874015748
          },
          {
            "duration": 0.032051312499987716,
            "durationTicks": 30,
            "midi": 42,
            "name": "F#2",
            "ticks": 174240,
            "time": 186.154023,
            "velocity": 0.4094488188976378
          },
          {
            "duration": 0.032051312499987716,
            "durationTicks": 30,
            "midi": 43,
            "name": "G2",
            "ticks": 174240,
            "time": 186.154023,
            "velocity": 0.8582677165354331
          },
          {
            "duration": 0.032051312499987716,
            "durationTicks": 30,
            "midi": 82,
            "name": "A#5",
            "ticks": 174240,
            "time": 186.154023,
            "velocity": 0.5511811023622047
          },
          {
            "duration": 0.03205131250001614,
            "durationTicks": 30,
            "midi": 42,
            "name": "F#2",
            "ticks": 174480,
            "time": 186.41043349999998,
            "velocity": 0.6692913385826772
          },
          {
            "duration": 0.03205131250001614,
            "durationTicks": 30,
            "midi": 82,
            "name": "A#5",
            "ticks": 174480,
            "time": 186.41043349999998,
            "velocity": 0.5511811023622047
          },
          {
            "duration": 0.032051312499987716,
            "durationTicks": 30,
            "midi": 36,
            "name": "C2",
            "ticks": 174720,
            "time": 186.666844,
            "velocity": 0.8740157480314961
          },
          {
            "duration": 0.032051312499987716,
            "durationTicks": 30,
            "midi": 42,
            "name": "F#2",
            "ticks": 174720,
            "time": 186.666844,
            "velocity": 0.3779527559055118
          },
          {
            "duration": 0.032051312499987716,
            "durationTicks": 30,
            "midi": 82,
            "name": "A#5",
            "ticks": 174720,
            "time": 186.666844,
            "velocity": 0.5669291338582677
          },
          {
            "duration": 0.03205131250001614,
            "durationTicks": 30,
            "midi": 42,
            "name": "F#2",
            "ticks": 174960,
            "time": 186.92325449999998,
            "velocity": 0.5905511811023622
          },
          {
            "duration": 0.03205131250001614,
            "durationTicks": 30,
            "midi": 82,
            "name": "A#5",
            "ticks": 174960,
            "time": 186.92325449999998,
            "velocity": 0.5511811023622047
          },
          {
            "duration": 0.032051312499987716,
            "durationTicks": 30,
            "midi": 39,
            "name": "D#2",
            "ticks": 175200,
            "time": 187.179665,
            "velocity": 0.9133858267716536
          },
          {
            "duration": 0.032051312499987716,
            "durationTicks": 30,
            "midi": 40,
            "name": "E2",
            "ticks": 175200,
            "time": 187.179665,
            "velocity": 0.9291338582677166
          },
          {
            "duration": 0.032051312499987716,
            "durationTicks": 30,
            "midi": 42,
            "name": "F#2",
            "ticks": 175200,
            "time": 187.179665,
            "velocity": 0.47244094488188976
          },
          {
            "duration": 0.032051312499987716,
            "durationTicks": 30,
            "midi": 82,
            "name": "A#5",
            "ticks": 175200,
            "time": 187.179665,
            "velocity": 0.5354330708661418
          },
          {
            "duration": 0.03205131250001614,
            "durationTicks": 30,
            "midi": 42,
            "name": "F#2",
            "ticks": 175440,
            "time": 187.4360755,
            "velocity": 0.6299212598425197
          },
          {
            "duration": 0.03205131250001614,
            "durationTicks": 30,
            "midi": 82,
            "name": "A#5",
            "ticks": 175440,
            "time": 187.4360755,
            "velocity": 0.5511811023622047
          },
          {
            "duration": 0.032051312499987716,
            "durationTicks": 30,
            "midi": 36,
            "name": "C2",
            "ticks": 175680,
            "time": 187.692486,
            "velocity": 0.8740157480314961
          },
          {
            "duration": 0.032051312499987716,
            "durationTicks": 30,
            "midi": 42,
            "name": "F#2",
            "ticks": 175680,
            "time": 187.692486,
            "velocity": 0.49606299212598426
          },
          {
            "duration": 0.032051312499987716,
            "durationTicks": 30,
            "midi": 82,
            "name": "A#5",
            "ticks": 175680,
            "time": 187.692486,
            "velocity": 0.5511811023622047
          },
          {
            "duration": 0.032051312499987716,
            "durationTicks": 30,
            "midi": 42,
            "name": "F#2",
            "ticks": 175920,
            "time": 187.9488965,
            "velocity": 0.5905511811023622
          },
          {
            "duration": 0.032051312499987716,
            "durationTicks": 30,
            "midi": 82,
            "name": "A#5",
            "ticks": 175920,
            "time": 187.9488965,
            "velocity": 0.5826771653543307
          },
          {
            "duration": 0.03205131250001614,
            "durationTicks": 30,
            "midi": 39,
            "name": "D#2",
            "ticks": 176160,
            "time": 188.20530699999998,
            "velocity": 0.9133858267716536
          },
          {
            "duration": 0.03205131250001614,
            "durationTicks": 30,
            "midi": 40,
            "name": "E2",
            "ticks": 176160,
            "time": 188.20530699999998,
            "velocity": 0.937007874015748
          },
          {
            "duration": 0.03205131250001614,
            "durationTicks": 30,
            "midi": 42,
            "name": "F#2",
            "ticks": 176160,
            "time": 188.20530699999998,
            "velocity": 0.49606299212598426
          },
          {
            "duration": 0.03205131250001614,
            "durationTicks": 30,
            "midi": 82,
            "name": "A#5",
            "ticks": 176160,
            "time": 188.20530699999998,
            "velocity": 0.5354330708661418
          },
          {
            "duration": 0.032051312499987716,
            "durationTicks": 30,
            "midi": 42,
            "name": "F#2",
            "ticks": 176400,
            "time": 188.4617175,
            "velocity": 0.6692913385826772
          },
          {
            "duration": 0.032051312499987716,
            "durationTicks": 30,
            "midi": 82,
            "name": "A#5",
            "ticks": 176400,
            "time": 188.4617175,
            "velocity": 0.5511811023622047
          },
          {
            "duration": 0.03205131250001614,
            "durationTicks": 30,
            "midi": 36,
            "name": "C2",
            "ticks": 176640,
            "time": 188.71812799999998,
            "velocity": 0.8740157480314961
          },
          {
            "duration": 0.03205131250001614,
            "durationTicks": 30,
            "midi": 42,
            "name": "F#2",
            "ticks": 176640,
            "time": 188.71812799999998,
            "velocity": 0.47244094488188976
          },
          {
            "duration": 0.03205131250001614,
            "durationTicks": 30,
            "midi": 82,
            "name": "A#5",
            "ticks": 176640,
            "time": 188.71812799999998,
            "velocity": 0.5354330708661418
          },
          {
            "duration": 0.032051312499987716,
            "durationTicks": 30,
            "midi": 42,
            "name": "F#2",
            "ticks": 176880,
            "time": 188.9745385,
            "velocity": 0.5905511811023622
          },
          {
            "duration": 0.032051312499987716,
            "durationTicks": 30,
            "midi": 82,
            "name": "A#5",
            "ticks": 176880,
            "time": 188.9745385,
            "velocity": 0.48031496062992124
          },
          {
            "duration": 0.03205131250001614,
            "durationTicks": 30,
            "midi": 39,
            "name": "D#2",
            "ticks": 177120,
            "time": 189.23094899999998,
            "velocity": 0.9133858267716536
          },
          {
            "duration": 0.03205131250001614,
            "durationTicks": 30,
            "midi": 40,
            "name": "E2",
            "ticks": 177120,
            "time": 189.23094899999998,
            "velocity": 0.937007874015748
          },
          {
            "duration": 0.03205131250001614,
            "durationTicks": 30,
            "midi": 42,
            "name": "F#2",
            "ticks": 177120,
            "time": 189.23094899999998,
            "velocity": 0.4330708661417323
          },
          {
            "duration": 0.03205131250001614,
            "durationTicks": 30,
            "midi": 82,
            "name": "A#5",
            "ticks": 177120,
            "time": 189.23094899999998,
            "velocity": 0.48031496062992124
          },
          {
            "duration": 0.032051312499987716,
            "durationTicks": 30,
            "midi": 42,
            "name": "F#2",
            "ticks": 177360,
            "time": 189.4873595,
            "velocity": 0.6692913385826772
          },
          {
            "duration": 0.032051312499987716,
            "durationTicks": 30,
            "midi": 82,
            "name": "A#5",
            "ticks": 177360,
            "time": 189.4873595,
            "velocity": 0.44881889763779526
          },
          {
            "duration": 0.03205131250001614,
            "durationTicks": 30,
            "midi": 36,
            "name": "C2",
            "ticks": 177600,
            "time": 189.74376999999998,
            "velocity": 0.8740157480314961
          },
          {
            "duration": 0.03205131250001614,
            "durationTicks": 30,
            "midi": 42,
            "name": "F#2",
            "ticks": 177600,
            "time": 189.74376999999998,
            "velocity": 0.4094488188976378
          },
          {
            "duration": 0.03205131250001614,
            "durationTicks": 30,
            "midi": 82,
            "name": "A#5",
            "ticks": 177600,
            "time": 189.74376999999998,
            "velocity": 0.5039370078740157
          },
          {
            "duration": 0.032051312499987716,
            "durationTicks": 30,
            "midi": 42,
            "name": "F#2",
            "ticks": 177840,
            "time": 190.0001805,
            "velocity": 0.6299212598425197
          },
          {
            "duration": 0.032051312499987716,
            "durationTicks": 30,
            "midi": 82,
            "name": "A#5",
            "ticks": 177840,
            "time": 190.0001805,
            "velocity": 0.41732283464566927
          },
          {
            "duration": 0.03205131250001614,
            "durationTicks": 30,
            "midi": 45,
            "name": "A2",
            "ticks": 177960,
            "time": 190.12838574999998,
            "velocity": 0.8110236220472441
          },
          {
            "duration": 0.03205131250001614,
            "durationTicks": 30,
            "midi": 39,
            "name": "D#2",
            "ticks": 178080,
            "time": 190.256591,
            "velocity": 0.9133858267716536
          },
          {
            "duration": 0.03205131250001614,
            "durationTicks": 30,
            "midi": 40,
            "name": "E2",
            "ticks": 178080,
            "time": 190.256591,
            "velocity": 0.937007874015748
          },
          {
            "duration": 0.03205131250001614,
            "durationTicks": 30,
            "midi": 42,
            "name": "F#2",
            "ticks": 178080,
            "time": 190.256591,
            "velocity": 0.4094488188976378
          },
          {
            "duration": 0.03205131250001614,
            "durationTicks": 30,
            "midi": 43,
            "name": "G2",
            "ticks": 178080,
            "time": 190.256591,
            "velocity": 0.8582677165354331
          },
          {
            "duration": 0.03205131250001614,
            "durationTicks": 30,
            "midi": 82,
            "name": "A#5",
            "ticks": 178080,
            "time": 190.256591,
            "velocity": 0.5354330708661418
          },
          {
            "duration": 0.032051312499987716,
            "durationTicks": 30,
            "midi": 42,
            "name": "F#2",
            "ticks": 178320,
            "time": 190.5130015,
            "velocity": 0.6692913385826772
          },
          {
            "duration": 0.032051312499987716,
            "durationTicks": 30,
            "midi": 82,
            "name": "A#5",
            "ticks": 178320,
            "time": 190.5130015,
            "velocity": 0.5039370078740157
          },
          {
            "duration": 0.032051312499987716,
            "durationTicks": 30,
            "midi": 36,
            "name": "C2",
            "ticks": 178560,
            "time": 190.769412,
            "velocity": 0.8740157480314961
          },
          {
            "duration": 0.032051312499987716,
            "durationTicks": 30,
            "midi": 42,
            "name": "F#2",
            "ticks": 178560,
            "time": 190.769412,
            "velocity": 0.3779527559055118
          },
          {
            "duration": 0.032051312499987716,
            "durationTicks": 30,
            "midi": 82,
            "name": "A#5",
            "ticks": 178560,
            "time": 190.769412,
            "velocity": 0.4881889763779528
          },
          {
            "duration": 0.03205131250001614,
            "durationTicks": 30,
            "midi": 42,
            "name": "F#2",
            "ticks": 178800,
            "time": 191.02582249999998,
            "velocity": 0.5905511811023622
          },
          {
            "duration": 0.03205131250001614,
            "durationTicks": 30,
            "midi": 82,
            "name": "A#5",
            "ticks": 178800,
            "time": 191.02582249999998,
            "velocity": 0.4094488188976378
          },
          {
            "duration": 0.032051312499987716,
            "durationTicks": 30,
            "midi": 39,
            "name": "D#2",
            "ticks": 179040,
            "time": 191.282233,
            "velocity": 0.9133858267716536
          },
          {
            "duration": 0.032051312499987716,
            "durationTicks": 30,
            "midi": 40,
            "name": "E2",
            "ticks": 179040,
            "time": 191.282233,
            "velocity": 0.9291338582677166
          },
          {
            "duration": 0.032051312499987716,
            "durationTicks": 30,
            "midi": 42,
            "name": "F#2",
            "ticks": 179040,
            "time": 191.282233,
            "velocity": 0.47244094488188976
          },
          {
            "duration": 0.032051312499987716,
            "durationTicks": 30,
            "midi": 82,
            "name": "A#5",
            "ticks": 179040,
            "time": 191.282233,
            "velocity": 0.5511811023622047
          },
          {
            "duration": 0.03205131250001614,
            "durationTicks": 30,
            "midi": 42,
            "name": "F#2",
            "ticks": 179280,
            "time": 191.53864349999998,
            "velocity": 0.6299212598425197
          },
          {
            "duration": 0.03205131250001614,
            "durationTicks": 30,
            "midi": 82,
            "name": "A#5",
            "ticks": 179280,
            "time": 191.53864349999998,
            "velocity": 0.4645669291338583
          },
          {
            "duration": 0.032051312499987716,
            "durationTicks": 30,
            "midi": 36,
            "name": "C2",
            "ticks": 179520,
            "time": 191.795054,
            "velocity": 0.8740157480314961
          },
          {
            "duration": 0.032051312499987716,
            "durationTicks": 30,
            "midi": 42,
            "name": "F#2",
            "ticks": 179520,
            "time": 191.795054,
            "velocity": 0.49606299212598426
          },
          {
            "duration": 0.032051312499987716,
            "durationTicks": 30,
            "midi": 82,
            "name": "A#5",
            "ticks": 179520,
            "time": 191.795054,
            "velocity": 0.5354330708661418
          },
          {
            "duration": 0.03205131250001614,
            "durationTicks": 30,
            "midi": 42,
            "name": "F#2",
            "ticks": 179760,
            "time": 192.05146449999998,
            "velocity": 0.5905511811023622
          },
          {
            "duration": 0.03205131250001614,
            "durationTicks": 30,
            "midi": 82,
            "name": "A#5",
            "ticks": 179760,
            "time": 192.05146449999998,
            "velocity": 0.5196850393700787
          },
          {
            "duration": 0.032051312499987716,
            "durationTicks": 30,
            "midi": 39,
            "name": "D#2",
            "ticks": 180000,
            "time": 192.307875,
            "velocity": 0.9133858267716536
          },
          {
            "duration": 0.032051312499987716,
            "durationTicks": 30,
            "midi": 40,
            "name": "E2",
            "ticks": 180000,
            "time": 192.307875,
            "velocity": 0.937007874015748
          },
          {
            "duration": 0.032051312499987716,
            "durationTicks": 30,
            "midi": 42,
            "name": "F#2",
            "ticks": 180000,
            "time": 192.307875,
            "velocity": 0.49606299212598426
          },
          {
            "duration": 0.032051312499987716,
            "durationTicks": 30,
            "midi": 82,
            "name": "A#5",
            "ticks": 180000,
            "time": 192.307875,
            "velocity": 0.5826771653543307
          },
          {
            "duration": 0.03205131250001614,
            "durationTicks": 30,
            "midi": 42,
            "name": "F#2",
            "ticks": 180240,
            "time": 192.56428549999998,
            "velocity": 0.6692913385826772
          },
          {
            "duration": 0.03205131250001614,
            "durationTicks": 30,
            "midi": 82,
            "name": "A#5",
            "ticks": 180240,
            "time": 192.56428549999998,
            "velocity": 0.4409448818897638
          },
          {
            "duration": 0.032051312499987716,
            "durationTicks": 30,
            "midi": 36,
            "name": "C2",
            "ticks": 180480,
            "time": 192.820696,
            "velocity": 0.8740157480314961
          },
          {
            "duration": 0.032051312499987716,
            "durationTicks": 30,
            "midi": 42,
            "name": "F#2",
            "ticks": 180480,
            "time": 192.820696,
            "velocity": 0.47244094488188976
          },
          {
            "duration": 0.032051312499987716,
            "durationTicks": 30,
            "midi": 82,
            "name": "A#5",
            "ticks": 180480,
            "time": 192.820696,
            "velocity": 0.5826771653543307
          },
          {
            "duration": 0.03205131250001614,
            "durationTicks": 30,
            "midi": 42,
            "name": "F#2",
            "ticks": 180720,
            "time": 193.07710649999999,
            "velocity": 0.5905511811023622
          },
          {
            "duration": 0.03205131250001614,
            "durationTicks": 30,
            "midi": 82,
            "name": "A#5",
            "ticks": 180720,
            "time": 193.07710649999999,
            "velocity": 0.5039370078740157
          },
          {
            "duration": 0.032051312499987716,
            "durationTicks": 30,
            "midi": 39,
            "name": "D#2",
            "ticks": 180960,
            "time": 193.333517,
            "velocity": 0.9133858267716536
          },
          {
            "duration": 0.032051312499987716,
            "durationTicks": 30,
            "midi": 40,
            "name": "E2",
            "ticks": 180960,
            "time": 193.333517,
            "velocity": 0.937007874015748
          },
          {
            "duration": 0.032051312499987716,
            "durationTicks": 30,
            "midi": 42,
            "name": "F#2",
            "ticks": 180960,
            "time": 193.333517,
            "velocity": 0.4330708661417323
          },
          {
            "duration": 0.032051312499987716,
            "durationTicks": 30,
            "midi": 82,
            "name": "A#5",
            "ticks": 180960,
            "time": 193.333517,
            "velocity": 0.5669291338582677
          },
          {
            "duration": 0.032051312499987716,
            "durationTicks": 30,
            "midi": 42,
            "name": "F#2",
            "ticks": 181200,
            "time": 193.5899275,
            "velocity": 0.6692913385826772
          },
          {
            "duration": 0.032051312499987716,
            "durationTicks": 30,
            "midi": 82,
            "name": "A#5",
            "ticks": 181200,
            "time": 193.5899275,
            "velocity": 0.5196850393700787
          },
          {
            "duration": 0.032051312499987716,
            "durationTicks": 30,
            "midi": 36,
            "name": "C2",
            "ticks": 181440,
            "time": 193.846338,
            "velocity": 0.8740157480314961
          },
          {
            "duration": 0.032051312499987716,
            "durationTicks": 30,
            "midi": 42,
            "name": "F#2",
            "ticks": 181440,
            "time": 193.846338,
            "velocity": 0.4094488188976378
          },
          {
            "duration": 0.032051312499987716,
            "durationTicks": 30,
            "midi": 82,
            "name": "A#5",
            "ticks": 181440,
            "time": 193.846338,
            "velocity": 0.4881889763779528
          },
          {
            "duration": 0.032051312499987716,
            "durationTicks": 30,
            "midi": 42,
            "name": "F#2",
            "ticks": 181680,
            "time": 194.1027485,
            "velocity": 0.6299212598425197
          },
          {
            "duration": 0.032051312499987716,
            "durationTicks": 30,
            "midi": 82,
            "name": "A#5",
            "ticks": 181680,
            "time": 194.1027485,
            "velocity": 0.5196850393700787
          },
          {
            "duration": 0.03205131250001614,
            "durationTicks": 30,
            "midi": 39,
            "name": "D#2",
            "ticks": 181920,
            "time": 194.35915899999998,
            "velocity": 0.9133858267716536
          },
          {
            "duration": 0.03205131250001614,
            "durationTicks": 30,
            "midi": 40,
            "name": "E2",
            "ticks": 181920,
            "time": 194.35915899999998,
            "velocity": 0.937007874015748
          },
          {
            "duration": 0.03205131250001614,
            "durationTicks": 30,
            "midi": 42,
            "name": "F#2",
            "ticks": 181920,
            "time": 194.35915899999998,
            "velocity": 0.4094488188976378
          },
          {
            "duration": 0.03205131250001614,
            "durationTicks": 30,
            "midi": 82,
            "name": "A#5",
            "ticks": 181920,
            "time": 194.35915899999998,
            "velocity": 0.5511811023622047
          },
          {
            "duration": 0.032051312499987716,
            "durationTicks": 30,
            "midi": 46,
            "name": "A#2",
            "ticks": 182160,
            "time": 194.6155695,
            "velocity": 0.8346456692913385
          },
          {
            "duration": 0.032051312499987716,
            "durationTicks": 30,
            "midi": 82,
            "name": "A#5",
            "ticks": 182160,
            "time": 194.6155695,
            "velocity": 0.5511811023622047
          },
          {
            "duration": 0.03205131250001614,
            "durationTicks": 30,
            "midi": 36,
            "name": "C2",
            "ticks": 182400,
            "time": 194.87197999999998,
            "velocity": 0.8740157480314961
          },
          {
            "duration": 0.03205131250001614,
            "durationTicks": 30,
            "midi": 42,
            "name": "F#2",
            "ticks": 182400,
            "time": 194.87197999999998,
            "velocity": 0.3779527559055118
          },
          {
            "duration": 0.03205131250001614,
            "durationTicks": 30,
            "midi": 82,
            "name": "A#5",
            "ticks": 182400,
            "time": 194.87197999999998,
            "velocity": 0.5669291338582677
          },
          {
            "duration": 0.032051312499987716,
            "durationTicks": 30,
            "midi": 42,
            "name": "F#2",
            "ticks": 182640,
            "time": 195.1283905,
            "velocity": 0.5905511811023622
          },
          {
            "duration": 0.032051312499987716,
            "durationTicks": 30,
            "midi": 82,
            "name": "A#5",
            "ticks": 182640,
            "time": 195.1283905,
            "velocity": 0.5511811023622047
          },
          {
            "duration": 0.03205131250001614,
            "durationTicks": 30,
            "midi": 39,
            "name": "D#2",
            "ticks": 182880,
            "time": 195.38480099999998,
            "velocity": 0.9133858267716536
          },
          {
            "duration": 0.03205131250001614,
            "durationTicks": 30,
            "midi": 40,
            "name": "E2",
            "ticks": 182880,
            "time": 195.38480099999998,
            "velocity": 0.9291338582677166
          },
          {
            "duration": 0.03205131250001614,
            "durationTicks": 30,
            "midi": 42,
            "name": "F#2",
            "ticks": 182880,
            "time": 195.38480099999998,
            "velocity": 0.47244094488188976
          },
          {
            "duration": 0.03205131250001614,
            "durationTicks": 30,
            "midi": 82,
            "name": "A#5",
            "ticks": 182880,
            "time": 195.38480099999998,
            "velocity": 0.5354330708661418
          },
          {
            "duration": 0.032051312499987716,
            "durationTicks": 30,
            "midi": 42,
            "name": "F#2",
            "ticks": 183120,
            "time": 195.6412115,
            "velocity": 0.6299212598425197
          },
          {
            "duration": 0.032051312499987716,
            "durationTicks": 30,
            "midi": 82,
            "name": "A#5",
            "ticks": 183120,
            "time": 195.6412115,
            "velocity": 0.5511811023622047
          },
          {
            "duration": 0.03205131250001614,
            "durationTicks": 30,
            "midi": 36,
            "name": "C2",
            "ticks": 183360,
            "time": 195.89762199999998,
            "velocity": 0.8740157480314961
          },
          {
            "duration": 0.03205131250001614,
            "durationTicks": 30,
            "midi": 42,
            "name": "F#2",
            "ticks": 183360,
            "time": 195.89762199999998,
            "velocity": 0.49606299212598426
          },
          {
            "duration": 0.03205131250001614,
            "durationTicks": 30,
            "midi": 82,
            "name": "A#5",
            "ticks": 183360,
            "time": 195.89762199999998,
            "velocity": 0.5511811023622047
          },
          {
            "duration": 0.032051312499987716,
            "durationTicks": 30,
            "midi": 42,
            "name": "F#2",
            "ticks": 183600,
            "time": 196.1540325,
            "velocity": 0.5905511811023622
          },
          {
            "duration": 0.032051312499987716,
            "durationTicks": 30,
            "midi": 82,
            "name": "A#5",
            "ticks": 183600,
            "time": 196.1540325,
            "velocity": 0.5826771653543307
          },
          {
            "duration": 0.03205131250001614,
            "durationTicks": 30,
            "midi": 39,
            "name": "D#2",
            "ticks": 183840,
            "time": 196.410443,
            "velocity": 0.9133858267716536
          },
          {
            "duration": 0.03205131250001614,
            "durationTicks": 30,
            "midi": 40,
            "name": "E2",
            "ticks": 183840,
            "time": 196.410443,
            "velocity": 0.937007874015748
          },
          {
            "duration": 0.03205131250001614,
            "durationTicks": 30,
            "midi": 42,
            "name": "F#2",
            "ticks": 183840,
            "time": 196.410443,
            "velocity": 0.49606299212598426
          },
          {
            "duration": 0.03205131250001614,
            "durationTicks": 30,
            "midi": 82,
            "name": "A#5",
            "ticks": 183840,
            "time": 196.410443,
            "velocity": 0.5354330708661418
          },
          {
            "duration": 0.032051312499987716,
            "durationTicks": 30,
            "midi": 42,
            "name": "F#2",
            "ticks": 184080,
            "time": 196.6668535,
            "velocity": 0.6692913385826772
          },
          {
            "duration": 0.032051312499987716,
            "durationTicks": 30,
            "midi": 82,
            "name": "A#5",
            "ticks": 184080,
            "time": 196.6668535,
            "velocity": 0.5511811023622047
          },
          {
            "duration": 0.032051312499987716,
            "durationTicks": 30,
            "midi": 36,
            "name": "C2",
            "ticks": 184320,
            "time": 196.923264,
            "velocity": 0.8740157480314961
          },
          {
            "duration": 0.032051312499987716,
            "durationTicks": 30,
            "midi": 42,
            "name": "F#2",
            "ticks": 184320,
            "time": 196.923264,
            "velocity": 0.47244094488188976
          },
          {
            "duration": 0.032051312499987716,
            "durationTicks": 30,
            "midi": 82,
            "name": "A#5",
            "ticks": 184320,
            "time": 196.923264,
            "velocity": 0.5354330708661418
          },
          {
            "duration": 0.03205131250001614,
            "durationTicks": 30,
            "midi": 42,
            "name": "F#2",
            "ticks": 184560,
            "time": 197.17967449999998,
            "velocity": 0.5905511811023622
          },
          {
            "duration": 0.03205131250001614,
            "durationTicks": 30,
            "midi": 82,
            "name": "A#5",
            "ticks": 184560,
            "time": 197.17967449999998,
            "velocity": 0.48031496062992124
          },
          {
            "duration": 0.032051312499987716,
            "durationTicks": 30,
            "midi": 39,
            "name": "D#2",
            "ticks": 184800,
            "time": 197.436085,
            "velocity": 0.9133858267716536
          },
          {
            "duration": 0.032051312499987716,
            "durationTicks": 30,
            "midi": 40,
            "name": "E2",
            "ticks": 184800,
            "time": 197.436085,
            "velocity": 0.937007874015748
          },
          {
            "duration": 0.032051312499987716,
            "durationTicks": 30,
            "midi": 42,
            "name": "F#2",
            "ticks": 184800,
            "time": 197.436085,
            "velocity": 0.4330708661417323
          },
          {
            "duration": 0.032051312499987716,
            "durationTicks": 30,
            "midi": 82,
            "name": "A#5",
            "ticks": 184800,
            "time": 197.436085,
            "velocity": 0.48031496062992124
          },
          {
            "duration": 0.03205131250001614,
            "durationTicks": 30,
            "midi": 42,
            "name": "F#2",
            "ticks": 185040,
            "time": 197.69249549999998,
            "velocity": 0.6692913385826772
          },
          {
            "duration": 0.03205131250001614,
            "durationTicks": 30,
            "midi": 82,
            "name": "A#5",
            "ticks": 185040,
            "time": 197.69249549999998,
            "velocity": 0.44881889763779526
          },
          {
            "duration": 0.032051312499987716,
            "durationTicks": 30,
            "midi": 36,
            "name": "C2",
            "ticks": 185280,
            "time": 197.948906,
            "velocity": 0.8740157480314961
          },
          {
            "duration": 0.032051312499987716,
            "durationTicks": 30,
            "midi": 42,
            "name": "F#2",
            "ticks": 185280,
            "time": 197.948906,
            "velocity": 0.4094488188976378
          },
          {
            "duration": 0.032051312499987716,
            "durationTicks": 30,
            "midi": 82,
            "name": "A#5",
            "ticks": 185280,
            "time": 197.948906,
            "velocity": 0.5039370078740157
          },
          {
            "duration": 0.03205131250001614,
            "durationTicks": 30,
            "midi": 42,
            "name": "F#2",
            "ticks": 185520,
            "time": 198.20531649999998,
            "velocity": 0.6299212598425197
          },
          {
            "duration": 0.03205131250001614,
            "durationTicks": 30,
            "midi": 82,
            "name": "A#5",
            "ticks": 185520,
            "time": 198.20531649999998,
            "velocity": 0.41732283464566927
          },
          {
            "duration": 0.032051312499987716,
            "durationTicks": 30,
            "midi": 39,
            "name": "D#2",
            "ticks": 185760,
            "time": 198.461727,
            "velocity": 0.9133858267716536
          },
          {
            "duration": 0.032051312499987716,
            "durationTicks": 30,
            "midi": 40,
            "name": "E2",
            "ticks": 185760,
            "time": 198.461727,
            "velocity": 0.937007874015748
          },
          {
            "duration": 0.032051312499987716,
            "durationTicks": 30,
            "midi": 42,
            "name": "F#2",
            "ticks": 185760,
            "time": 198.461727,
            "velocity": 0.4094488188976378
          },
          {
            "duration": 0.032051312499987716,
            "durationTicks": 30,
            "midi": 82,
            "name": "A#5",
            "ticks": 185760,
            "time": 198.461727,
            "velocity": 0.5354330708661418
          },
          {
            "duration": 0.03205131250001614,
            "durationTicks": 30,
            "midi": 42,
            "name": "F#2",
            "ticks": 186000,
            "time": 198.71813749999998,
            "velocity": 0.6692913385826772
          },
          {
            "duration": 0.03205131250001614,
            "durationTicks": 30,
            "midi": 82,
            "name": "A#5",
            "ticks": 186000,
            "time": 198.71813749999998,
            "velocity": 0.5039370078740157
          },
          {
            "duration": 0.032051312499987716,
            "durationTicks": 30,
            "midi": 36,
            "name": "C2",
            "ticks": 186240,
            "time": 198.974548,
            "velocity": 0.8740157480314961
          },
          {
            "duration": 0.032051312499987716,
            "durationTicks": 30,
            "midi": 42,
            "name": "F#2",
            "ticks": 186240,
            "time": 198.974548,
            "velocity": 0.3779527559055118
          },
          {
            "duration": 0.032051312499987716,
            "durationTicks": 30,
            "midi": 82,
            "name": "A#5",
            "ticks": 186240,
            "time": 198.974548,
            "velocity": 0.4881889763779528
          },
          {
            "duration": 0.03205131250001614,
            "durationTicks": 30,
            "midi": 42,
            "name": "F#2",
            "ticks": 186480,
            "time": 199.23095849999999,
            "velocity": 0.5905511811023622
          },
          {
            "duration": 0.03205131250001614,
            "durationTicks": 30,
            "midi": 82,
            "name": "A#5",
            "ticks": 186480,
            "time": 199.23095849999999,
            "velocity": 0.4094488188976378
          },
          {
            "duration": 0.032051312499987716,
            "durationTicks": 30,
            "midi": 39,
            "name": "D#2",
            "ticks": 186720,
            "time": 199.487369,
            "velocity": 0.9133858267716536
          },
          {
            "duration": 0.032051312499987716,
            "durationTicks": 30,
            "midi": 40,
            "name": "E2",
            "ticks": 186720,
            "time": 199.487369,
            "velocity": 0.9291338582677166
          },
          {
            "duration": 0.032051312499987716,
            "durationTicks": 30,
            "midi": 42,
            "name": "F#2",
            "ticks": 186720,
            "time": 199.487369,
            "velocity": 0.47244094488188976
          },
          {
            "duration": 0.032051312499987716,
            "durationTicks": 30,
            "midi": 82,
            "name": "A#5",
            "ticks": 186720,
            "time": 199.487369,
            "velocity": 0.5511811023622047
          },
          {
            "duration": 0.032051312499987716,
            "durationTicks": 30,
            "midi": 42,
            "name": "F#2",
            "ticks": 186960,
            "time": 199.7437795,
            "velocity": 0.6299212598425197
          },
          {
            "duration": 0.032051312499987716,
            "durationTicks": 30,
            "midi": 82,
            "name": "A#5",
            "ticks": 186960,
            "time": 199.7437795,
            "velocity": 0.4645669291338583
          },
          {
            "duration": 0.03205131250001614,
            "durationTicks": 30,
            "midi": 36,
            "name": "C2",
            "ticks": 187200,
            "time": 200.00018999999998,
            "velocity": 0.8740157480314961
          },
          {
            "duration": 0.03205131250001614,
            "durationTicks": 30,
            "midi": 42,
            "name": "F#2",
            "ticks": 187200,
            "time": 200.00018999999998,
            "velocity": 0.49606299212598426
          },
          {
            "duration": 0.03205131250001614,
            "durationTicks": 30,
            "midi": 82,
            "name": "A#5",
            "ticks": 187200,
            "time": 200.00018999999998,
            "velocity": 0.5354330708661418
          },
          {
            "duration": 0.032051312499987716,
            "durationTicks": 30,
            "midi": 42,
            "name": "F#2",
            "ticks": 187440,
            "time": 200.2566005,
            "velocity": 0.5905511811023622
          },
          {
            "duration": 0.032051312499987716,
            "durationTicks": 30,
            "midi": 82,
            "name": "A#5",
            "ticks": 187440,
            "time": 200.2566005,
            "velocity": 0.5196850393700787
          },
          {
            "duration": 0.03205131250001614,
            "durationTicks": 30,
            "midi": 39,
            "name": "D#2",
            "ticks": 187680,
            "time": 200.51301099999998,
            "velocity": 0.9133858267716536
          },
          {
            "duration": 0.03205131250001614,
            "durationTicks": 30,
            "midi": 40,
            "name": "E2",
            "ticks": 187680,
            "time": 200.51301099999998,
            "velocity": 0.937007874015748
          },
          {
            "duration": 0.03205131250001614,
            "durationTicks": 30,
            "midi": 42,
            "name": "F#2",
            "ticks": 187680,
            "time": 200.51301099999998,
            "velocity": 0.49606299212598426
          },
          {
            "duration": 0.03205131250001614,
            "durationTicks": 30,
            "midi": 82,
            "name": "A#5",
            "ticks": 187680,
            "time": 200.51301099999998,
            "velocity": 0.5826771653543307
          },
          {
            "duration": 0.032051312499987716,
            "durationTicks": 30,
            "midi": 42,
            "name": "F#2",
            "ticks": 187920,
            "time": 200.7694215,
            "velocity": 0.6692913385826772
          },
          {
            "duration": 0.032051312499987716,
            "durationTicks": 30,
            "midi": 82,
            "name": "A#5",
            "ticks": 187920,
            "time": 200.7694215,
            "velocity": 0.4409448818897638
          },
          {
            "duration": 0.03205131250001614,
            "durationTicks": 30,
            "midi": 36,
            "name": "C2",
            "ticks": 188160,
            "time": 201.02583199999998,
            "velocity": 0.8740157480314961
          },
          {
            "duration": 0.03205131250001614,
            "durationTicks": 30,
            "midi": 42,
            "name": "F#2",
            "ticks": 188160,
            "time": 201.02583199999998,
            "velocity": 0.47244094488188976
          },
          {
            "duration": 0.03205131250001614,
            "durationTicks": 30,
            "midi": 82,
            "name": "A#5",
            "ticks": 188160,
            "time": 201.02583199999998,
            "velocity": 0.5826771653543307
          },
          {
            "duration": 0.032051312499987716,
            "durationTicks": 30,
            "midi": 42,
            "name": "F#2",
            "ticks": 188400,
            "time": 201.2822425,
            "velocity": 0.5905511811023622
          },
          {
            "duration": 0.032051312499987716,
            "durationTicks": 30,
            "midi": 82,
            "name": "A#5",
            "ticks": 188400,
            "time": 201.2822425,
            "velocity": 0.5039370078740157
          },
          {
            "duration": 0.03205131250001614,
            "durationTicks": 30,
            "midi": 39,
            "name": "D#2",
            "ticks": 188640,
            "time": 201.53865299999998,
            "velocity": 0.9133858267716536
          },
          {
            "duration": 0.03205131250001614,
            "durationTicks": 30,
            "midi": 40,
            "name": "E2",
            "ticks": 188640,
            "time": 201.53865299999998,
            "velocity": 0.937007874015748
          },
          {
            "duration": 0.03205131250001614,
            "durationTicks": 30,
            "midi": 42,
            "name": "F#2",
            "ticks": 188640,
            "time": 201.53865299999998,
            "velocity": 0.4330708661417323
          },
          {
            "duration": 0.03205131250001614,
            "durationTicks": 30,
            "midi": 82,
            "name": "A#5",
            "ticks": 188640,
            "time": 201.53865299999998,
            "velocity": 0.5669291338582677
          },
          {
            "duration": 0.032051312499987716,
            "durationTicks": 30,
            "midi": 42,
            "name": "F#2",
            "ticks": 188880,
            "time": 201.7950635,
            "velocity": 0.6692913385826772
          },
          {
            "duration": 0.032051312499987716,
            "durationTicks": 30,
            "midi": 82,
            "name": "A#5",
            "ticks": 188880,
            "time": 201.7950635,
            "velocity": 0.5196850393700787
          },
          {
            "duration": 0.03205131250001614,
            "durationTicks": 30,
            "midi": 36,
            "name": "C2",
            "ticks": 189120,
            "time": 202.05147399999998,
            "velocity": 0.8740157480314961
          },
          {
            "duration": 0.03205131250001614,
            "durationTicks": 30,
            "midi": 42,
            "name": "F#2",
            "ticks": 189120,
            "time": 202.05147399999998,
            "velocity": 0.4094488188976378
          },
          {
            "duration": 0.03205131250001614,
            "durationTicks": 30,
            "midi": 82,
            "name": "A#5",
            "ticks": 189120,
            "time": 202.05147399999998,
            "velocity": 0.4881889763779528
          },
          {
            "duration": 0.032051312499987716,
            "durationTicks": 30,
            "midi": 42,
            "name": "F#2",
            "ticks": 189360,
            "time": 202.3078845,
            "velocity": 0.6299212598425197
          },
          {
            "duration": 0.032051312499987716,
            "durationTicks": 30,
            "midi": 82,
            "name": "A#5",
            "ticks": 189360,
            "time": 202.3078845,
            "velocity": 0.5196850393700787
          },
          {
            "duration": 0.032051312499987716,
            "durationTicks": 30,
            "midi": 39,
            "name": "D#2",
            "ticks": 189600,
            "time": 202.564295,
            "velocity": 0.9133858267716536
          },
          {
            "duration": 0.032051312499987716,
            "durationTicks": 30,
            "midi": 40,
            "name": "E2",
            "ticks": 189600,
            "time": 202.564295,
            "velocity": 0.937007874015748
          },
          {
            "duration": 0.032051312499987716,
            "durationTicks": 30,
            "midi": 42,
            "name": "F#2",
            "ticks": 189600,
            "time": 202.564295,
            "velocity": 0.4094488188976378
          },
          {
            "duration": 0.032051312499987716,
            "durationTicks": 30,
            "midi": 82,
            "name": "A#5",
            "ticks": 189600,
            "time": 202.564295,
            "velocity": 0.5511811023622047
          },
          {
            "duration": 0.032051312499987716,
            "durationTicks": 30,
            "midi": 42,
            "name": "F#2",
            "ticks": 189840,
            "time": 202.8207055,
            "velocity": 0.6692913385826772
          },
          {
            "duration": 0.032051312499987716,
            "durationTicks": 30,
            "midi": 82,
            "name": "A#5",
            "ticks": 189840,
            "time": 202.8207055,
            "velocity": 0.5511811023622047
          },
          {
            "duration": 0.032051312499987716,
            "durationTicks": 30,
            "midi": 36,
            "name": "C2",
            "ticks": 190080,
            "time": 203.077116,
            "velocity": 0.8740157480314961
          },
          {
            "duration": 0.032051312499987716,
            "durationTicks": 30,
            "midi": 42,
            "name": "F#2",
            "ticks": 190080,
            "time": 203.077116,
            "velocity": 0.3779527559055118
          },
          {
            "duration": 0.032051312499987716,
            "durationTicks": 30,
            "midi": 82,
            "name": "A#5",
            "ticks": 190080,
            "time": 203.077116,
            "velocity": 0.5669291338582677
          },
          {
            "duration": 0.03205131250001614,
            "durationTicks": 30,
            "midi": 42,
            "name": "F#2",
            "ticks": 190320,
            "time": 203.33352649999998,
            "velocity": 0.5905511811023622
          },
          {
            "duration": 0.03205131250001614,
            "durationTicks": 30,
            "midi": 82,
            "name": "A#5",
            "ticks": 190320,
            "time": 203.33352649999998,
            "velocity": 0.5511811023622047
          },
          {
            "duration": 0.032051312499987716,
            "durationTicks": 30,
            "midi": 39,
            "name": "D#2",
            "ticks": 190560,
            "time": 203.589937,
            "velocity": 0.9133858267716536
          },
          {
            "duration": 0.032051312499987716,
            "durationTicks": 30,
            "midi": 40,
            "name": "E2",
            "ticks": 190560,
            "time": 203.589937,
            "velocity": 0.9291338582677166
          },
          {
            "duration": 0.032051312499987716,
            "durationTicks": 30,
            "midi": 42,
            "name": "F#2",
            "ticks": 190560,
            "time": 203.589937,
            "velocity": 0.47244094488188976
          },
          {
            "duration": 0.032051312499987716,
            "durationTicks": 30,
            "midi": 82,
            "name": "A#5",
            "ticks": 190560,
            "time": 203.589937,
            "velocity": 0.5354330708661418
          },
          {
            "duration": 0.03205131250001614,
            "durationTicks": 30,
            "midi": 42,
            "name": "F#2",
            "ticks": 190800,
            "time": 203.84634749999998,
            "velocity": 0.6299212598425197
          },
          {
            "duration": 0.03205131250001614,
            "durationTicks": 30,
            "midi": 82,
            "name": "A#5",
            "ticks": 190800,
            "time": 203.84634749999998,
            "velocity": 0.5511811023622047
          },
          {
            "duration": 0.032051312499987716,
            "durationTicks": 30,
            "midi": 36,
            "name": "C2",
            "ticks": 191040,
            "time": 204.102758,
            "velocity": 0.8740157480314961
          },
          {
            "duration": 0.032051312499987716,
            "durationTicks": 30,
            "midi": 42,
            "name": "F#2",
            "ticks": 191040,
            "time": 204.102758,
            "velocity": 0.49606299212598426
          },
          {
            "duration": 0.032051312499987716,
            "durationTicks": 30,
            "midi": 82,
            "name": "A#5",
            "ticks": 191040,
            "time": 204.102758,
            "velocity": 0.5511811023622047
          },
          {
            "duration": 0.03205131250001614,
            "durationTicks": 30,
            "midi": 42,
            "name": "F#2",
            "ticks": 191280,
            "time": 204.35916849999998,
            "velocity": 0.5905511811023622
          },
          {
            "duration": 0.03205131250001614,
            "durationTicks": 30,
            "midi": 82,
            "name": "A#5",
            "ticks": 191280,
            "time": 204.35916849999998,
            "velocity": 0.5826771653543307
          },
          {
            "duration": 0.032051312499987716,
            "durationTicks": 30,
            "midi": 39,
            "name": "D#2",
            "ticks": 191520,
            "time": 204.615579,
            "velocity": 0.9133858267716536
          },
          {
            "duration": 0.032051312499987716,
            "durationTicks": 30,
            "midi": 40,
            "name": "E2",
            "ticks": 191520,
            "time": 204.615579,
            "velocity": 0.937007874015748
          },
          {
            "duration": 0.032051312499987716,
            "durationTicks": 30,
            "midi": 42,
            "name": "F#2",
            "ticks": 191520,
            "time": 204.615579,
            "velocity": 0.49606299212598426
          },
          {
            "duration": 0.032051312499987716,
            "durationTicks": 30,
            "midi": 82,
            "name": "A#5",
            "ticks": 191520,
            "time": 204.615579,
            "velocity": 0.5354330708661418
          },
          {
            "duration": 0.03205131250001614,
            "durationTicks": 30,
            "midi": 42,
            "name": "F#2",
            "ticks": 191760,
            "time": 204.87198949999998,
            "velocity": 0.6692913385826772
          },
          {
            "duration": 0.03205131250001614,
            "durationTicks": 30,
            "midi": 82,
            "name": "A#5",
            "ticks": 191760,
            "time": 204.87198949999998,
            "velocity": 0.5511811023622047
          },
          {
            "duration": 0.032051312499987716,
            "durationTicks": 30,
            "midi": 36,
            "name": "C2",
            "ticks": 192000,
            "time": 205.1284,
            "velocity": 0.8740157480314961
          },
          {
            "duration": 0.032051312499987716,
            "durationTicks": 30,
            "midi": 42,
            "name": "F#2",
            "ticks": 192000,
            "time": 205.1284,
            "velocity": 0.47244094488188976
          },
          {
            "duration": 0.032051312499987716,
            "durationTicks": 30,
            "midi": 82,
            "name": "A#5",
            "ticks": 192000,
            "time": 205.1284,
            "velocity": 0.5354330708661418
          },
          {
            "duration": 0.03205131250001614,
            "durationTicks": 30,
            "midi": 42,
            "name": "F#2",
            "ticks": 192240,
            "time": 205.3848105,
            "velocity": 0.5905511811023622
          },
          {
            "duration": 0.03205131250001614,
            "durationTicks": 30,
            "midi": 82,
            "name": "A#5",
            "ticks": 192240,
            "time": 205.3848105,
            "velocity": 0.48031496062992124
          },
          {
            "duration": 0.032051312499987716,
            "durationTicks": 30,
            "midi": 39,
            "name": "D#2",
            "ticks": 192480,
            "time": 205.641221,
            "velocity": 0.9133858267716536
          },
          {
            "duration": 0.032051312499987716,
            "durationTicks": 30,
            "midi": 40,
            "name": "E2",
            "ticks": 192480,
            "time": 205.641221,
            "velocity": 0.937007874015748
          },
          {
            "duration": 0.032051312499987716,
            "durationTicks": 30,
            "midi": 42,
            "name": "F#2",
            "ticks": 192480,
            "time": 205.641221,
            "velocity": 0.4330708661417323
          },
          {
            "duration": 0.032051312499987716,
            "durationTicks": 30,
            "midi": 82,
            "name": "A#5",
            "ticks": 192480,
            "time": 205.641221,
            "velocity": 0.48031496062992124
          },
          {
            "duration": 0.032051312499987716,
            "durationTicks": 30,
            "midi": 42,
            "name": "F#2",
            "ticks": 192720,
            "time": 205.8976315,
            "velocity": 0.6692913385826772
          },
          {
            "duration": 0.032051312499987716,
            "durationTicks": 30,
            "midi": 82,
            "name": "A#5",
            "ticks": 192720,
            "time": 205.8976315,
            "velocity": 0.44881889763779526
          },
          {
            "duration": 0.03205131250001614,
            "durationTicks": 30,
            "midi": 36,
            "name": "C2",
            "ticks": 192960,
            "time": 206.15404199999998,
            "velocity": 0.8740157480314961
          },
          {
            "duration": 0.03205131250001614,
            "durationTicks": 30,
            "midi": 42,
            "name": "F#2",
            "ticks": 192960,
            "time": 206.15404199999998,
            "velocity": 0.4094488188976378
          },
          {
            "duration": 0.03205131250001614,
            "durationTicks": 30,
            "midi": 82,
            "name": "A#5",
            "ticks": 192960,
            "time": 206.15404199999998,
            "velocity": 0.5039370078740157
          },
          {
            "duration": 0.032051312499987716,
            "durationTicks": 30,
            "midi": 42,
            "name": "F#2",
            "ticks": 193200,
            "time": 206.4104525,
            "velocity": 0.6299212598425197
          },
          {
            "duration": 0.032051312499987716,
            "durationTicks": 30,
            "midi": 82,
            "name": "A#5",
            "ticks": 193200,
            "time": 206.4104525,
            "velocity": 0.41732283464566927
          },
          {
            "duration": 0.03205131250001614,
            "durationTicks": 30,
            "midi": 39,
            "name": "D#2",
            "ticks": 193440,
            "time": 206.66686299999998,
            "velocity": 0.9133858267716536
          },
          {
            "duration": 0.03205131250001614,
            "durationTicks": 30,
            "midi": 40,
            "name": "E2",
            "ticks": 193440,
            "time": 206.66686299999998,
            "velocity": 0.937007874015748
          },
          {
            "duration": 0.03205131250001614,
            "durationTicks": 30,
            "midi": 42,
            "name": "F#2",
            "ticks": 193440,
            "time": 206.66686299999998,
            "velocity": 0.4094488188976378
          },
          {
            "duration": 0.03205131250001614,
            "durationTicks": 30,
            "midi": 82,
            "name": "A#5",
            "ticks": 193440,
            "time": 206.66686299999998,
            "velocity": 0.5354330708661418
          },
          {
            "duration": 0.032051312499987716,
            "durationTicks": 30,
            "midi": 42,
            "name": "F#2",
            "ticks": 193680,
            "time": 206.9232735,
            "velocity": 0.6692913385826772
          },
          {
            "duration": 0.032051312499987716,
            "durationTicks": 30,
            "midi": 82,
            "name": "A#5",
            "ticks": 193680,
            "time": 206.9232735,
            "velocity": 0.5039370078740157
          },
          {
            "duration": 0.03205131250001614,
            "durationTicks": 30,
            "midi": 36,
            "name": "C2",
            "ticks": 193920,
            "time": 207.17968399999998,
            "velocity": 0.8740157480314961
          },
          {
            "duration": 0.03205131250001614,
            "durationTicks": 30,
            "midi": 42,
            "name": "F#2",
            "ticks": 193920,
            "time": 207.17968399999998,
            "velocity": 0.3779527559055118
          },
          {
            "duration": 0.03205131250001614,
            "durationTicks": 30,
            "midi": 82,
            "name": "A#5",
            "ticks": 193920,
            "time": 207.17968399999998,
            "velocity": 0.4881889763779528
          },
          {
            "duration": 0.032051312499987716,
            "durationTicks": 30,
            "midi": 42,
            "name": "F#2",
            "ticks": 194160,
            "time": 207.4360945,
            "velocity": 0.5905511811023622
          },
          {
            "duration": 0.032051312499987716,
            "durationTicks": 30,
            "midi": 82,
            "name": "A#5",
            "ticks": 194160,
            "time": 207.4360945,
            "velocity": 0.4094488188976378
          },
          {
            "duration": 0.03205131250001614,
            "durationTicks": 30,
            "midi": 39,
            "name": "D#2",
            "ticks": 194400,
            "time": 207.69250499999998,
            "velocity": 0.9133858267716536
          },
          {
            "duration": 0.03205131250001614,
            "durationTicks": 30,
            "midi": 40,
            "name": "E2",
            "ticks": 194400,
            "time": 207.69250499999998,
            "velocity": 0.9291338582677166
          },
          {
            "duration": 0.03205131250001614,
            "durationTicks": 30,
            "midi": 42,
            "name": "F#2",
            "ticks": 194400,
            "time": 207.69250499999998,
            "velocity": 0.47244094488188976
          },
          {
            "duration": 0.03205131250001614,
            "durationTicks": 30,
            "midi": 82,
            "name": "A#5",
            "ticks": 194400,
            "time": 207.69250499999998,
            "velocity": 0.5511811023622047
          },
          {
            "duration": 0.032051312499987716,
            "durationTicks": 30,
            "midi": 42,
            "name": "F#2",
            "ticks": 194640,
            "time": 207.9489155,
            "velocity": 0.6299212598425197
          },
          {
            "duration": 0.032051312499987716,
            "durationTicks": 30,
            "midi": 82,
            "name": "A#5",
            "ticks": 194640,
            "time": 207.9489155,
            "velocity": 0.4645669291338583
          },
          {
            "duration": 0.03205131250001614,
            "durationTicks": 30,
            "midi": 36,
            "name": "C2",
            "ticks": 194880,
            "time": 208.20532599999999,
            "velocity": 0.8740157480314961
          },
          {
            "duration": 0.03205131250001614,
            "durationTicks": 30,
            "midi": 42,
            "name": "F#2",
            "ticks": 194880,
            "time": 208.20532599999999,
            "velocity": 0.49606299212598426
          },
          {
            "duration": 0.03205131250001614,
            "durationTicks": 30,
            "midi": 82,
            "name": "A#5",
            "ticks": 194880,
            "time": 208.20532599999999,
            "velocity": 0.5354330708661418
          },
          {
            "duration": 0.032051312499987716,
            "durationTicks": 30,
            "midi": 42,
            "name": "F#2",
            "ticks": 195120,
            "time": 208.4617365,
            "velocity": 0.5905511811023622
          },
          {
            "duration": 0.032051312499987716,
            "durationTicks": 30,
            "midi": 82,
            "name": "A#5",
            "ticks": 195120,
            "time": 208.4617365,
            "velocity": 0.5196850393700787
          },
          {
            "duration": 0.032051312499987716,
            "durationTicks": 30,
            "midi": 39,
            "name": "D#2",
            "ticks": 195360,
            "time": 208.718147,
            "velocity": 0.9133858267716536
          },
          {
            "duration": 0.032051312499987716,
            "durationTicks": 30,
            "midi": 40,
            "name": "E2",
            "ticks": 195360,
            "time": 208.718147,
            "velocity": 0.937007874015748
          },
          {
            "duration": 0.032051312499987716,
            "durationTicks": 30,
            "midi": 42,
            "name": "F#2",
            "ticks": 195360,
            "time": 208.718147,
            "velocity": 0.49606299212598426
          },
          {
            "duration": 0.032051312499987716,
            "durationTicks": 30,
            "midi": 82,
            "name": "A#5",
            "ticks": 195360,
            "time": 208.718147,
            "velocity": 0.5826771653543307
          },
          {
            "duration": 0.03205131250001614,
            "durationTicks": 30,
            "midi": 42,
            "name": "F#2",
            "ticks": 195600,
            "time": 208.97455749999997,
            "velocity": 0.6692913385826772
          },
          {
            "duration": 0.03205131250001614,
            "durationTicks": 30,
            "midi": 82,
            "name": "A#5",
            "ticks": 195600,
            "time": 208.97455749999997,
            "velocity": 0.4409448818897638
          },
          {
            "duration": 0.032051312499987716,
            "durationTicks": 30,
            "midi": 36,
            "name": "C2",
            "ticks": 195840,
            "time": 209.230968,
            "velocity": 0.8740157480314961
          },
          {
            "duration": 0.032051312499987716,
            "durationTicks": 30,
            "midi": 42,
            "name": "F#2",
            "ticks": 195840,
            "time": 209.230968,
            "velocity": 0.47244094488188976
          },
          {
            "duration": 0.032051312499987716,
            "durationTicks": 30,
            "midi": 82,
            "name": "A#5",
            "ticks": 195840,
            "time": 209.230968,
            "velocity": 0.5826771653543307
          },
          {
            "duration": 0.03205131250001614,
            "durationTicks": 30,
            "midi": 42,
            "name": "F#2",
            "ticks": 196080,
            "time": 209.48737849999998,
            "velocity": 0.5905511811023622
          },
          {
            "duration": 0.03205131250001614,
            "durationTicks": 30,
            "midi": 82,
            "name": "A#5",
            "ticks": 196080,
            "time": 209.48737849999998,
            "velocity": 0.5039370078740157
          },
          {
            "duration": 0.032051312499987716,
            "durationTicks": 30,
            "midi": 39,
            "name": "D#2",
            "ticks": 196320,
            "time": 209.743789,
            "velocity": 0.9133858267716536
          },
          {
            "duration": 0.032051312499987716,
            "durationTicks": 30,
            "midi": 40,
            "name": "E2",
            "ticks": 196320,
            "time": 209.743789,
            "velocity": 0.937007874015748
          },
          {
            "duration": 0.032051312499987716,
            "durationTicks": 30,
            "midi": 42,
            "name": "F#2",
            "ticks": 196320,
            "time": 209.743789,
            "velocity": 0.4330708661417323
          },
          {
            "duration": 0.032051312499987716,
            "durationTicks": 30,
            "midi": 82,
            "name": "A#5",
            "ticks": 196320,
            "time": 209.743789,
            "velocity": 0.5669291338582677
          },
          {
            "duration": 0.03205131250001614,
            "durationTicks": 30,
            "midi": 42,
            "name": "F#2",
            "ticks": 196560,
            "time": 210.00019949999998,
            "velocity": 0.6692913385826772
          },
          {
            "duration": 0.03205131250001614,
            "durationTicks": 30,
            "midi": 82,
            "name": "A#5",
            "ticks": 196560,
            "time": 210.00019949999998,
            "velocity": 0.5196850393700787
          },
          {
            "duration": 0.032051312499987716,
            "durationTicks": 30,
            "midi": 36,
            "name": "C2",
            "ticks": 196800,
            "time": 210.25661,
            "velocity": 0.8740157480314961
          },
          {
            "duration": 0.032051312499987716,
            "durationTicks": 30,
            "midi": 42,
            "name": "F#2",
            "ticks": 196800,
            "time": 210.25661,
            "velocity": 0.4094488188976378
          },
          {
            "duration": 0.032051312499987716,
            "durationTicks": 30,
            "midi": 82,
            "name": "A#5",
            "ticks": 196800,
            "time": 210.25661,
            "velocity": 0.4881889763779528
          },
          {
            "duration": 0.03205131250001614,
            "durationTicks": 30,
            "midi": 42,
            "name": "F#2",
            "ticks": 197040,
            "time": 210.51302049999998,
            "velocity": 0.6299212598425197
          },
          {
            "duration": 0.03205131250001614,
            "durationTicks": 30,
            "midi": 82,
            "name": "A#5",
            "ticks": 197040,
            "time": 210.51302049999998,
            "velocity": 0.5196850393700787
          },
          {
            "duration": 0.032051312499987716,
            "durationTicks": 30,
            "midi": 45,
            "name": "A2",
            "ticks": 197160,
            "time": 210.64122575,
            "velocity": 0.8110236220472441
          },
          {
            "duration": 0.032051312499987716,
            "durationTicks": 30,
            "midi": 39,
            "name": "D#2",
            "ticks": 197280,
            "time": 210.769431,
            "velocity": 0.9133858267716536
          },
          {
            "duration": 0.032051312499987716,
            "durationTicks": 30,
            "midi": 40,
            "name": "E2",
            "ticks": 197280,
            "time": 210.769431,
            "velocity": 0.937007874015748
          },
          {
            "duration": 0.032051312499987716,
            "durationTicks": 30,
            "midi": 42,
            "name": "F#2",
            "ticks": 197280,
            "time": 210.769431,
            "velocity": 0.4094488188976378
          },
          {
            "duration": 0.032051312499987716,
            "durationTicks": 30,
            "midi": 43,
            "name": "G2",
            "ticks": 197280,
            "time": 210.769431,
            "velocity": 0.8582677165354331
          },
          {
            "duration": 0.032051312499987716,
            "durationTicks": 30,
            "midi": 82,
            "name": "A#5",
            "ticks": 197280,
            "time": 210.769431,
            "velocity": 0.5511811023622047
          },
          {
            "duration": 0.03205131250001614,
            "durationTicks": 30,
            "midi": 46,
            "name": "A#2",
            "ticks": 197520,
            "time": 211.02584149999998,
            "velocity": 0.8346456692913385
          },
          {
            "duration": 0.03205131250001614,
            "durationTicks": 30,
            "midi": 82,
            "name": "A#5",
            "ticks": 197520,
            "time": 211.02584149999998,
            "velocity": 0.5511811023622047
          },
          {
            "duration": 0.032051312499987716,
            "durationTicks": 30,
            "midi": 36,
            "name": "C2",
            "ticks": 197760,
            "time": 211.282252,
            "velocity": 0.8740157480314961
          },
          {
            "duration": 0.032051312499987716,
            "durationTicks": 30,
            "midi": 42,
            "name": "F#2",
            "ticks": 197760,
            "time": 211.282252,
            "velocity": 0.3779527559055118
          },
          {
            "duration": 0.032051312499987716,
            "durationTicks": 30,
            "midi": 82,
            "name": "A#5",
            "ticks": 197760,
            "time": 211.282252,
            "velocity": 0.5669291338582677
          },
          {
            "duration": 0.032051312499987716,
            "durationTicks": 30,
            "midi": 42,
            "name": "F#2",
            "ticks": 198000,
            "time": 211.5386625,
            "velocity": 0.5905511811023622
          },
          {
            "duration": 0.032051312499987716,
            "durationTicks": 30,
            "midi": 82,
            "name": "A#5",
            "ticks": 198000,
            "time": 211.5386625,
            "velocity": 0.5511811023622047
          },
          {
            "duration": 0.032051312499987716,
            "durationTicks": 30,
            "midi": 39,
            "name": "D#2",
            "ticks": 198240,
            "time": 211.795073,
            "velocity": 0.9133858267716536
          },
          {
            "duration": 0.032051312499987716,
            "durationTicks": 30,
            "midi": 40,
            "name": "E2",
            "ticks": 198240,
            "time": 211.795073,
            "velocity": 0.9291338582677166
          },
          {
            "duration": 0.032051312499987716,
            "durationTicks": 30,
            "midi": 42,
            "name": "F#2",
            "ticks": 198240,
            "time": 211.795073,
            "velocity": 0.47244094488188976
          },
          {
            "duration": 0.032051312499987716,
            "durationTicks": 30,
            "midi": 82,
            "name": "A#5",
            "ticks": 198240,
            "time": 211.795073,
            "velocity": 0.5354330708661418
          },
          {
            "duration": 0.032051312499987716,
            "durationTicks": 30,
            "midi": 42,
            "name": "F#2",
            "ticks": 198480,
            "time": 212.0514835,
            "velocity": 0.6299212598425197
          },
          {
            "duration": 0.032051312499987716,
            "durationTicks": 30,
            "midi": 82,
            "name": "A#5",
            "ticks": 198480,
            "time": 212.0514835,
            "velocity": 0.5511811023622047
          },
          {
            "duration": 0.03205131250001614,
            "durationTicks": 30,
            "midi": 36,
            "name": "C2",
            "ticks": 198720,
            "time": 212.30789399999998,
            "velocity": 0.8740157480314961
          },
          {
            "duration": 0.03205131250001614,
            "durationTicks": 30,
            "midi": 42,
            "name": "F#2",
            "ticks": 198720,
            "time": 212.30789399999998,
            "velocity": 0.49606299212598426
          },
          {
            "duration": 0.03205131250001614,
            "durationTicks": 30,
            "midi": 82,
            "name": "A#5",
            "ticks": 198720,
            "time": 212.30789399999998,
            "velocity": 0.5511811023622047
          },
          {
            "duration": 0.032051312499987716,
            "durationTicks": 30,
            "midi": 42,
            "name": "F#2",
            "ticks": 198960,
            "time": 212.5643045,
            "velocity": 0.5905511811023622
          },
          {
            "duration": 0.032051312499987716,
            "durationTicks": 30,
            "midi": 82,
            "name": "A#5",
            "ticks": 198960,
            "time": 212.5643045,
            "velocity": 0.5826771653543307
          },
          {
            "duration": 0.03205131250001614,
            "durationTicks": 30,
            "midi": 39,
            "name": "D#2",
            "ticks": 199200,
            "time": 212.82071499999998,
            "velocity": 0.9133858267716536
          },
          {
            "duration": 0.03205131250001614,
            "durationTicks": 30,
            "midi": 40,
            "name": "E2",
            "ticks": 199200,
            "time": 212.82071499999998,
            "velocity": 0.937007874015748
          },
          {
            "duration": 0.03205131250001614,
            "durationTicks": 30,
            "midi": 42,
            "name": "F#2",
            "ticks": 199200,
            "time": 212.82071499999998,
            "velocity": 0.49606299212598426
          },
          {
            "duration": 0.03205131250001614,
            "durationTicks": 30,
            "midi": 82,
            "name": "A#5",
            "ticks": 199200,
            "time": 212.82071499999998,
            "velocity": 0.5354330708661418
          },
          {
            "duration": 0.032051312499987716,
            "durationTicks": 30,
            "midi": 42,
            "name": "F#2",
            "ticks": 199440,
            "time": 213.0771255,
            "velocity": 0.6692913385826772
          },
          {
            "duration": 0.032051312499987716,
            "durationTicks": 30,
            "midi": 82,
            "name": "A#5",
            "ticks": 199440,
            "time": 213.0771255,
            "velocity": 0.5511811023622047
          },
          {
            "duration": 0.03205131250001614,
            "durationTicks": 30,
            "midi": 36,
            "name": "C2",
            "ticks": 199680,
            "time": 213.33353599999998,
            "velocity": 0.8740157480314961
          },
          {
            "duration": 0.03205131250001614,
            "durationTicks": 30,
            "midi": 42,
            "name": "F#2",
            "ticks": 199680,
            "time": 213.33353599999998,
            "velocity": 0.47244094488188976
          },
          {
            "duration": 0.03205131250001614,
            "durationTicks": 30,
            "midi": 82,
            "name": "A#5",
            "ticks": 199680,
            "time": 213.33353599999998,
            "velocity": 0.5354330708661418
          },
          {
            "duration": 0.032051312499987716,
            "durationTicks": 30,
            "midi": 42,
            "name": "F#2",
            "ticks": 199920,
            "time": 213.5899465,
            "velocity": 0.5905511811023622
          },
          {
            "duration": 0.032051312499987716,
            "durationTicks": 30,
            "midi": 82,
            "name": "A#5",
            "ticks": 199920,
            "time": 213.5899465,
            "velocity": 0.48031496062992124
          },
          {
            "duration": 0.03205131250001614,
            "durationTicks": 30,
            "midi": 39,
            "name": "D#2",
            "ticks": 200160,
            "time": 213.84635699999998,
            "velocity": 0.9133858267716536
          },
          {
            "duration": 0.03205131250001614,
            "durationTicks": 30,
            "midi": 40,
            "name": "E2",
            "ticks": 200160,
            "time": 213.84635699999998,
            "velocity": 0.937007874015748
          },
          {
            "duration": 0.03205131250001614,
            "durationTicks": 30,
            "midi": 42,
            "name": "F#2",
            "ticks": 200160,
            "time": 213.84635699999998,
            "velocity": 0.4330708661417323
          },
          {
            "duration": 0.03205131250001614,
            "durationTicks": 30,
            "midi": 82,
            "name": "A#5",
            "ticks": 200160,
            "time": 213.84635699999998,
            "velocity": 0.48031496062992124
          },
          {
            "duration": 0.032051312499987716,
            "durationTicks": 30,
            "midi": 42,
            "name": "F#2",
            "ticks": 200400,
            "time": 214.1027675,
            "velocity": 0.6692913385826772
          },
          {
            "duration": 0.032051312499987716,
            "durationTicks": 30,
            "midi": 82,
            "name": "A#5",
            "ticks": 200400,
            "time": 214.1027675,
            "velocity": 0.44881889763779526
          },
          {
            "duration": 0.03205131250001614,
            "durationTicks": 30,
            "midi": 36,
            "name": "C2",
            "ticks": 200640,
            "time": 214.35917799999999,
            "velocity": 0.8740157480314961
          },
          {
            "duration": 0.03205131250001614,
            "durationTicks": 30,
            "midi": 42,
            "name": "F#2",
            "ticks": 200640,
            "time": 214.35917799999999,
            "velocity": 0.4094488188976378
          },
          {
            "duration": 0.03205131250001614,
            "durationTicks": 30,
            "midi": 82,
            "name": "A#5",
            "ticks": 200640,
            "time": 214.35917799999999,
            "velocity": 0.5039370078740157
          },
          {
            "duration": 0.032051312499987716,
            "durationTicks": 30,
            "midi": 42,
            "name": "F#2",
            "ticks": 200880,
            "time": 214.6155885,
            "velocity": 0.6299212598425197
          },
          {
            "duration": 0.032051312499987716,
            "durationTicks": 30,
            "midi": 82,
            "name": "A#5",
            "ticks": 200880,
            "time": 214.6155885,
            "velocity": 0.41732283464566927
          },
          {
            "duration": 0.032051312499987716,
            "durationTicks": 30,
            "midi": 39,
            "name": "D#2",
            "ticks": 201120,
            "time": 214.871999,
            "velocity": 0.9133858267716536
          },
          {
            "duration": 0.032051312499987716,
            "durationTicks": 30,
            "midi": 40,
            "name": "E2",
            "ticks": 201120,
            "time": 214.871999,
            "velocity": 0.937007874015748
          },
          {
            "duration": 0.032051312499987716,
            "durationTicks": 30,
            "midi": 42,
            "name": "F#2",
            "ticks": 201120,
            "time": 214.871999,
            "velocity": 0.4094488188976378
          },
          {
            "duration": 0.032051312499987716,
            "durationTicks": 30,
            "midi": 82,
            "name": "A#5",
            "ticks": 201120,
            "time": 214.871999,
            "velocity": 0.5354330708661418
          },
          {
            "duration": 0.03205131250001614,
            "durationTicks": 30,
            "midi": 42,
            "name": "F#2",
            "ticks": 201360,
            "time": 215.12840949999998,
            "velocity": 0.6692913385826772
          },
          {
            "duration": 0.03205131250001614,
            "durationTicks": 30,
            "midi": 82,
            "name": "A#5",
            "ticks": 201360,
            "time": 215.12840949999998,
            "velocity": 0.5039370078740157
          },
          {
            "duration": 0.032051312499987716,
            "durationTicks": 30,
            "midi": 36,
            "name": "C2",
            "ticks": 201600,
            "time": 215.38482,
            "velocity": 0.8740157480314961
          },
          {
            "duration": 0.032051312499987716,
            "durationTicks": 30,
            "midi": 42,
            "name": "F#2",
            "ticks": 201600,
            "time": 215.38482,
            "velocity": 0.3779527559055118
          },
          {
            "duration": 0.032051312499987716,
            "durationTicks": 30,
            "midi": 82,
            "name": "A#5",
            "ticks": 201600,
            "time": 215.38482,
            "velocity": 0.4881889763779528
          },
          {
            "duration": 0.03205131250001614,
            "durationTicks": 30,
            "midi": 42,
            "name": "F#2",
            "ticks": 201840,
            "time": 215.64123049999998,
            "velocity": 0.5905511811023622
          },
          {
            "duration": 0.03205131250001614,
            "durationTicks": 30,
            "midi": 82,
            "name": "A#5",
            "ticks": 201840,
            "time": 215.64123049999998,
            "velocity": 0.4094488188976378
          },
          {
            "duration": 0.032051312499987716,
            "durationTicks": 30,
            "midi": 39,
            "name": "D#2",
            "ticks": 202080,
            "time": 215.897641,
            "velocity": 0.9133858267716536
          },
          {
            "duration": 0.032051312499987716,
            "durationTicks": 30,
            "midi": 40,
            "name": "E2",
            "ticks": 202080,
            "time": 215.897641,
            "velocity": 0.9291338582677166
          },
          {
            "duration": 0.032051312499987716,
            "durationTicks": 30,
            "midi": 42,
            "name": "F#2",
            "ticks": 202080,
            "time": 215.897641,
            "velocity": 0.47244094488188976
          },
          {
            "duration": 0.032051312499987716,
            "durationTicks": 30,
            "midi": 82,
            "name": "A#5",
            "ticks": 202080,
            "time": 215.897641,
            "velocity": 0.5511811023622047
          },
          {
            "duration": 0.03205131250001614,
            "durationTicks": 30,
            "midi": 42,
            "name": "F#2",
            "ticks": 202320,
            "time": 216.15405149999998,
            "velocity": 0.6299212598425197
          },
          {
            "duration": 0.03205131250001614,
            "durationTicks": 30,
            "midi": 82,
            "name": "A#5",
            "ticks": 202320,
            "time": 216.15405149999998,
            "velocity": 0.4645669291338583
          },
          {
            "duration": 0.032051312499987716,
            "durationTicks": 30,
            "midi": 36,
            "name": "C2",
            "ticks": 202560,
            "time": 216.410462,
            "velocity": 0.8740157480314961
          },
          {
            "duration": 0.032051312499987716,
            "durationTicks": 30,
            "midi": 42,
            "name": "F#2",
            "ticks": 202560,
            "time": 216.410462,
            "velocity": 0.49606299212598426
          },
          {
            "duration": 0.032051312499987716,
            "durationTicks": 30,
            "midi": 82,
            "name": "A#5",
            "ticks": 202560,
            "time": 216.410462,
            "velocity": 0.5354330708661418
          },
          {
            "duration": 0.03205131250001614,
            "durationTicks": 30,
            "midi": 42,
            "name": "F#2",
            "ticks": 202800,
            "time": 216.66687249999998,
            "velocity": 0.5905511811023622
          },
          {
            "duration": 0.03205131250001614,
            "durationTicks": 30,
            "midi": 82,
            "name": "A#5",
            "ticks": 202800,
            "time": 216.66687249999998,
            "velocity": 0.5196850393700787
          },
          {
            "duration": 0.032051312499987716,
            "durationTicks": 30,
            "midi": 39,
            "name": "D#2",
            "ticks": 203040,
            "time": 216.923283,
            "velocity": 0.9133858267716536
          },
          {
            "duration": 0.032051312499987716,
            "durationTicks": 30,
            "midi": 40,
            "name": "E2",
            "ticks": 203040,
            "time": 216.923283,
            "velocity": 0.937007874015748
          },
          {
            "duration": 0.032051312499987716,
            "durationTicks": 30,
            "midi": 42,
            "name": "F#2",
            "ticks": 203040,
            "time": 216.923283,
            "velocity": 0.49606299212598426
          },
          {
            "duration": 0.032051312499987716,
            "durationTicks": 30,
            "midi": 82,
            "name": "A#5",
            "ticks": 203040,
            "time": 216.923283,
            "velocity": 0.5826771653543307
          },
          {
            "duration": 0.03205131250001614,
            "durationTicks": 30,
            "midi": 42,
            "name": "F#2",
            "ticks": 203280,
            "time": 217.17969349999998,
            "velocity": 0.6692913385826772
          },
          {
            "duration": 0.03205131250001614,
            "durationTicks": 30,
            "midi": 82,
            "name": "A#5",
            "ticks": 203280,
            "time": 217.17969349999998,
            "velocity": 0.4409448818897638
          },
          {
            "duration": 0.032051312499987716,
            "durationTicks": 30,
            "midi": 36,
            "name": "C2",
            "ticks": 203520,
            "time": 217.436104,
            "velocity": 0.8740157480314961
          },
          {
            "duration": 0.032051312499987716,
            "durationTicks": 30,
            "midi": 42,
            "name": "F#2",
            "ticks": 203520,
            "time": 217.436104,
            "velocity": 0.47244094488188976
          },
          {
            "duration": 0.032051312499987716,
            "durationTicks": 30,
            "midi": 82,
            "name": "A#5",
            "ticks": 203520,
            "time": 217.436104,
            "velocity": 0.5826771653543307
          },
          {
            "duration": 0.032051312499987716,
            "durationTicks": 30,
            "midi": 42,
            "name": "F#2",
            "ticks": 203760,
            "time": 217.6925145,
            "velocity": 0.5905511811023622
          },
          {
            "duration": 0.032051312499987716,
            "durationTicks": 30,
            "midi": 82,
            "name": "A#5",
            "ticks": 203760,
            "time": 217.6925145,
            "velocity": 0.5039370078740157
          },
          {
            "duration": 0.03205131250001614,
            "durationTicks": 30,
            "midi": 39,
            "name": "D#2",
            "ticks": 204000,
            "time": 217.94892499999997,
            "velocity": 0.9133858267716536
          },
          {
            "duration": 0.03205131250001614,
            "durationTicks": 30,
            "midi": 40,
            "name": "E2",
            "ticks": 204000,
            "time": 217.94892499999997,
            "velocity": 0.937007874015748
          },
          {
            "duration": 0.03205131250001614,
            "durationTicks": 30,
            "midi": 42,
            "name": "F#2",
            "ticks": 204000,
            "time": 217.94892499999997,
            "velocity": 0.4330708661417323
          },
          {
            "duration": 0.03205131250001614,
            "durationTicks": 30,
            "midi": 82,
            "name": "A#5",
            "ticks": 204000,
            "time": 217.94892499999997,
            "velocity": 0.5669291338582677
          },
          {
            "duration": 0.032051312499987716,
            "durationTicks": 30,
            "midi": 42,
            "name": "F#2",
            "ticks": 204240,
            "time": 218.2053355,
            "velocity": 0.6692913385826772
          },
          {
            "duration": 0.032051312499987716,
            "durationTicks": 30,
            "midi": 82,
            "name": "A#5",
            "ticks": 204240,
            "time": 218.2053355,
            "velocity": 0.5196850393700787
          },
          {
            "duration": 0.03205131250001614,
            "durationTicks": 30,
            "midi": 36,
            "name": "C2",
            "ticks": 204480,
            "time": 218.46174599999998,
            "velocity": 0.8740157480314961
          },
          {
            "duration": 0.03205131250001614,
            "durationTicks": 30,
            "midi": 42,
            "name": "F#2",
            "ticks": 204480,
            "time": 218.46174599999998,
            "velocity": 0.4094488188976378
          },
          {
            "duration": 0.03205131250001614,
            "durationTicks": 30,
            "midi": 82,
            "name": "A#5",
            "ticks": 204480,
            "time": 218.46174599999998,
            "velocity": 0.4881889763779528
          },
          {
            "duration": 0.032051312499987716,
            "durationTicks": 30,
            "midi": 42,
            "name": "F#2",
            "ticks": 204720,
            "time": 218.7181565,
            "velocity": 0.6299212598425197
          },
          {
            "duration": 0.032051312499987716,
            "durationTicks": 30,
            "midi": 82,
            "name": "A#5",
            "ticks": 204720,
            "time": 218.7181565,
            "velocity": 0.5196850393700787
          },
          {
            "duration": 0.03205131250001614,
            "durationTicks": 30,
            "midi": 39,
            "name": "D#2",
            "ticks": 204960,
            "time": 218.97456699999998,
            "velocity": 0.9133858267716536
          },
          {
            "duration": 0.03205131250001614,
            "durationTicks": 30,
            "midi": 40,
            "name": "E2",
            "ticks": 204960,
            "time": 218.97456699999998,
            "velocity": 0.937007874015748
          },
          {
            "duration": 0.03205131250001614,
            "durationTicks": 30,
            "midi": 42,
            "name": "F#2",
            "ticks": 204960,
            "time": 218.97456699999998,
            "velocity": 0.4094488188976378
          },
          {
            "duration": 0.03205131250001614,
            "durationTicks": 30,
            "midi": 82,
            "name": "A#5",
            "ticks": 204960,
            "time": 218.97456699999998,
            "velocity": 0.5511811023622047
          },
          {
            "duration": 0.032051312499987716,
            "durationTicks": 30,
            "midi": 42,
            "name": "F#2",
            "ticks": 205200,
            "time": 219.2309775,
            "velocity": 0.6692913385826772
          },
          {
            "duration": 0.032051312499987716,
            "durationTicks": 30,
            "midi": 82,
            "name": "A#5",
            "ticks": 205200,
            "time": 219.2309775,
            "velocity": 0.5511811023622047
          },
          {
            "duration": 0.03205131250001614,
            "durationTicks": 30,
            "midi": 36,
            "name": "C2",
            "ticks": 205440,
            "time": 219.48738799999998,
            "velocity": 0.8740157480314961
          },
          {
            "duration": 0.03205131250001614,
            "durationTicks": 30,
            "midi": 42,
            "name": "F#2",
            "ticks": 205440,
            "time": 219.48738799999998,
            "velocity": 0.3779527559055118
          },
          {
            "duration": 0.03205131250001614,
            "durationTicks": 30,
            "midi": 82,
            "name": "A#5",
            "ticks": 205440,
            "time": 219.48738799999998,
            "velocity": 0.5669291338582677
          },
          {
            "duration": 0.032051312499987716,
            "durationTicks": 30,
            "midi": 42,
            "name": "F#2",
            "ticks": 205680,
            "time": 219.7437985,
            "velocity": 0.5905511811023622
          },
          {
            "duration": 0.032051312499987716,
            "durationTicks": 30,
            "midi": 82,
            "name": "A#5",
            "ticks": 205680,
            "time": 219.7437985,
            "velocity": 0.5511811023622047
          },
          {
            "duration": 0.03205131250001614,
            "durationTicks": 30,
            "midi": 39,
            "name": "D#2",
            "ticks": 205920,
            "time": 220.00020899999998,
            "velocity": 0.9133858267716536
          },
          {
            "duration": 0.03205131250001614,
            "durationTicks": 30,
            "midi": 40,
            "name": "E2",
            "ticks": 205920,
            "time": 220.00020899999998,
            "velocity": 0.9291338582677166
          },
          {
            "duration": 0.03205131250001614,
            "durationTicks": 30,
            "midi": 42,
            "name": "F#2",
            "ticks": 205920,
            "time": 220.00020899999998,
            "velocity": 0.47244094488188976
          },
          {
            "duration": 0.03205131250001614,
            "durationTicks": 30,
            "midi": 82,
            "name": "A#5",
            "ticks": 205920,
            "time": 220.00020899999998,
            "velocity": 0.5354330708661418
          },
          {
            "duration": 0.032051312499987716,
            "durationTicks": 30,
            "midi": 42,
            "name": "F#2",
            "ticks": 206160,
            "time": 220.2566195,
            "velocity": 0.6299212598425197
          },
          {
            "duration": 0.032051312499987716,
            "durationTicks": 30,
            "midi": 82,
            "name": "A#5",
            "ticks": 206160,
            "time": 220.2566195,
            "velocity": 0.5511811023622047
          },
          {
            "duration": 0.032051312499987716,
            "durationTicks": 30,
            "midi": 36,
            "name": "C2",
            "ticks": 206400,
            "time": 220.51303,
            "velocity": 0.8740157480314961
          },
          {
            "duration": 0.032051312499987716,
            "durationTicks": 30,
            "midi": 42,
            "name": "F#2",
            "ticks": 206400,
            "time": 220.51303,
            "velocity": 0.49606299212598426
          },
          {
            "duration": 0.032051312499987716,
            "durationTicks": 30,
            "midi": 82,
            "name": "A#5",
            "ticks": 206400,
            "time": 220.51303,
            "velocity": 0.5511811023622047
          },
          {
            "duration": 0.032051312499987716,
            "durationTicks": 30,
            "midi": 42,
            "name": "F#2",
            "ticks": 206640,
            "time": 220.7694405,
            "velocity": 0.5905511811023622
          },
          {
            "duration": 0.032051312499987716,
            "durationTicks": 30,
            "midi": 82,
            "name": "A#5",
            "ticks": 206640,
            "time": 220.7694405,
            "velocity": 0.5826771653543307
          },
          {
            "duration": 0.032051312499987716,
            "durationTicks": 30,
            "midi": 39,
            "name": "D#2",
            "ticks": 206880,
            "time": 221.025851,
            "velocity": 0.9133858267716536
          },
          {
            "duration": 0.032051312499987716,
            "durationTicks": 30,
            "midi": 40,
            "name": "E2",
            "ticks": 206880,
            "time": 221.025851,
            "velocity": 0.937007874015748
          },
          {
            "duration": 0.032051312499987716,
            "durationTicks": 30,
            "midi": 42,
            "name": "F#2",
            "ticks": 206880,
            "time": 221.025851,
            "velocity": 0.49606299212598426
          },
          {
            "duration": 0.032051312499987716,
            "durationTicks": 30,
            "midi": 82,
            "name": "A#5",
            "ticks": 206880,
            "time": 221.025851,
            "velocity": 0.5354330708661418
          },
          {
            "duration": 0.03205131250001614,
            "durationTicks": 30,
            "midi": 42,
            "name": "F#2",
            "ticks": 207120,
            "time": 221.28226149999998,
            "velocity": 0.6692913385826772
          },
          {
            "duration": 0.03205131250001614,
            "durationTicks": 30,
            "midi": 82,
            "name": "A#5",
            "ticks": 207120,
            "time": 221.28226149999998,
            "velocity": 0.5511811023622047
          },
          {
            "duration": 0.032051312499987716,
            "durationTicks": 30,
            "midi": 36,
            "name": "C2",
            "ticks": 207360,
            "time": 221.538672,
            "velocity": 0.8740157480314961
          },
          {
            "duration": 0.032051312499987716,
            "durationTicks": 30,
            "midi": 42,
            "name": "F#2",
            "ticks": 207360,
            "time": 221.538672,
            "velocity": 0.47244094488188976
          },
          {
            "duration": 0.032051312499987716,
            "durationTicks": 30,
            "midi": 82,
            "name": "A#5",
            "ticks": 207360,
            "time": 221.538672,
            "velocity": 0.5354330708661418
          },
          {
            "duration": 0.03205131250001614,
            "durationTicks": 30,
            "midi": 42,
            "name": "F#2",
            "ticks": 207600,
            "time": 221.79508249999998,
            "velocity": 0.5905511811023622
          },
          {
            "duration": 0.03205131250001614,
            "durationTicks": 30,
            "midi": 82,
            "name": "A#5",
            "ticks": 207600,
            "time": 221.79508249999998,
            "velocity": 0.48031496062992124
          },
          {
            "duration": 0.032051312499987716,
            "durationTicks": 30,
            "midi": 39,
            "name": "D#2",
            "ticks": 207840,
            "time": 222.051493,
            "velocity": 0.9133858267716536
          },
          {
            "duration": 0.032051312499987716,
            "durationTicks": 30,
            "midi": 40,
            "name": "E2",
            "ticks": 207840,
            "time": 222.051493,
            "velocity": 0.937007874015748
          },
          {
            "duration": 0.032051312499987716,
            "durationTicks": 30,
            "midi": 42,
            "name": "F#2",
            "ticks": 207840,
            "time": 222.051493,
            "velocity": 0.4330708661417323
          },
          {
            "duration": 0.032051312499987716,
            "durationTicks": 30,
            "midi": 82,
            "name": "A#5",
            "ticks": 207840,
            "time": 222.051493,
            "velocity": 0.48031496062992124
          },
          {
            "duration": 0.03205131250001614,
            "durationTicks": 30,
            "midi": 42,
            "name": "F#2",
            "ticks": 208080,
            "time": 222.30790349999998,
            "velocity": 0.6692913385826772
          },
          {
            "duration": 0.03205131250001614,
            "durationTicks": 30,
            "midi": 82,
            "name": "A#5",
            "ticks": 208080,
            "time": 222.30790349999998,
            "velocity": 0.44881889763779526
          },
          {
            "duration": 0.032051312499987716,
            "durationTicks": 30,
            "midi": 36,
            "name": "C2",
            "ticks": 208320,
            "time": 222.564314,
            "velocity": 0.8740157480314961
          },
          {
            "duration": 0.032051312499987716,
            "durationTicks": 30,
            "midi": 42,
            "name": "F#2",
            "ticks": 208320,
            "time": 222.564314,
            "velocity": 0.4094488188976378
          },
          {
            "duration": 0.032051312499987716,
            "durationTicks": 30,
            "midi": 82,
            "name": "A#5",
            "ticks": 208320,
            "time": 222.564314,
            "velocity": 0.5039370078740157
          },
          {
            "duration": 0.03205131250001614,
            "durationTicks": 30,
            "midi": 42,
            "name": "F#2",
            "ticks": 208560,
            "time": 222.82072449999998,
            "velocity": 0.6299212598425197
          },
          {
            "duration": 0.03205131250001614,
            "durationTicks": 30,
            "midi": 82,
            "name": "A#5",
            "ticks": 208560,
            "time": 222.82072449999998,
            "velocity": 0.41732283464566927
          },
          {
            "duration": 0.032051312499987716,
            "durationTicks": 30,
            "midi": 45,
            "name": "A2",
            "ticks": 208680,
            "time": 222.94892975,
            "velocity": 0.8110236220472441
          },
          {
            "duration": 0.032051312499987716,
            "durationTicks": 30,
            "midi": 39,
            "name": "D#2",
            "ticks": 208800,
            "time": 223.077135,
            "velocity": 0.9133858267716536
          },
          {
            "duration": 0.032051312499987716,
            "durationTicks": 30,
            "midi": 40,
            "name": "E2",
            "ticks": 208800,
            "time": 223.077135,
            "velocity": 0.937007874015748
          },
          {
            "duration": 0.032051312499987716,
            "durationTicks": 30,
            "midi": 42,
            "name": "F#2",
            "ticks": 208800,
            "time": 223.077135,
            "velocity": 0.4094488188976378
          },
          {
            "duration": 0.032051312499987716,
            "durationTicks": 30,
            "midi": 43,
            "name": "G2",
            "ticks": 208800,
            "time": 223.077135,
            "velocity": 0.8582677165354331
          },
          {
            "duration": 0.032051312499987716,
            "durationTicks": 30,
            "midi": 82,
            "name": "A#5",
            "ticks": 208800,
            "time": 223.077135,
            "velocity": 0.5354330708661418
          },
          {
            "duration": 0.03205131250001614,
            "durationTicks": 30,
            "midi": 42,
            "name": "F#2",
            "ticks": 209040,
            "time": 223.33354549999999,
            "velocity": 0.6692913385826772
          },
          {
            "duration": 0.03205131250001614,
            "durationTicks": 30,
            "midi": 82,
            "name": "A#5",
            "ticks": 209040,
            "time": 223.33354549999999,
            "velocity": 0.5039370078740157
          },
          {
            "duration": 0.032051312499987716,
            "durationTicks": 30,
            "midi": 36,
            "name": "C2",
            "ticks": 209280,
            "time": 223.589956,
            "velocity": 0.8740157480314961
          },
          {
            "duration": 0.032051312499987716,
            "durationTicks": 30,
            "midi": 42,
            "name": "F#2",
            "ticks": 209280,
            "time": 223.589956,
            "velocity": 0.3779527559055118
          },
          {
            "duration": 0.032051312499987716,
            "durationTicks": 30,
            "midi": 82,
            "name": "A#5",
            "ticks": 209280,
            "time": 223.589956,
            "velocity": 0.4881889763779528
          },
          {
            "duration": 0.032051312499987716,
            "durationTicks": 30,
            "midi": 42,
            "name": "F#2",
            "ticks": 209520,
            "time": 223.8463665,
            "velocity": 0.5905511811023622
          },
          {
            "duration": 0.032051312499987716,
            "durationTicks": 30,
            "midi": 82,
            "name": "A#5",
            "ticks": 209520,
            "time": 223.8463665,
            "velocity": 0.4094488188976378
          },
          {
            "duration": 0.03205131250001614,
            "durationTicks": 30,
            "midi": 39,
            "name": "D#2",
            "ticks": 209760,
            "time": 224.10277699999997,
            "velocity": 0.9133858267716536
          },
          {
            "duration": 0.03205131250001614,
            "durationTicks": 30,
            "midi": 40,
            "name": "E2",
            "ticks": 209760,
            "time": 224.10277699999997,
            "velocity": 0.9291338582677166
          },
          {
            "duration": 0.03205131250001614,
            "durationTicks": 30,
            "midi": 42,
            "name": "F#2",
            "ticks": 209760,
            "time": 224.10277699999997,
            "velocity": 0.47244094488188976
          },
          {
            "duration": 0.03205131250001614,
            "durationTicks": 30,
            "midi": 82,
            "name": "A#5",
            "ticks": 209760,
            "time": 224.10277699999997,
            "velocity": 0.5511811023622047
          },
          {
            "duration": 0.032051312499987716,
            "durationTicks": 30,
            "midi": 42,
            "name": "F#2",
            "ticks": 210000,
            "time": 224.3591875,
            "velocity": 0.6299212598425197
          },
          {
            "duration": 0.032051312499987716,
            "durationTicks": 30,
            "midi": 82,
            "name": "A#5",
            "ticks": 210000,
            "time": 224.3591875,
            "velocity": 0.4645669291338583
          },
          {
            "duration": 0.03205131250001614,
            "durationTicks": 30,
            "midi": 36,
            "name": "C2",
            "ticks": 210240,
            "time": 224.61559799999998,
            "velocity": 0.8740157480314961
          },
          {
            "duration": 0.03205131250001614,
            "durationTicks": 30,
            "midi": 42,
            "name": "F#2",
            "ticks": 210240,
            "time": 224.61559799999998,
            "velocity": 0.49606299212598426
          },
          {
            "duration": 0.03205131250001614,
            "durationTicks": 30,
            "midi": 82,
            "name": "A#5",
            "ticks": 210240,
            "time": 224.61559799999998,
            "velocity": 0.5354330708661418
          },
          {
            "duration": 0.032051312499987716,
            "durationTicks": 30,
            "midi": 42,
            "name": "F#2",
            "ticks": 210480,
            "time": 224.8720085,
            "velocity": 0.5905511811023622
          },
          {
            "duration": 0.032051312499987716,
            "durationTicks": 30,
            "midi": 82,
            "name": "A#5",
            "ticks": 210480,
            "time": 224.8720085,
            "velocity": 0.5196850393700787
          },
          {
            "duration": 0.03205131250001614,
            "durationTicks": 30,
            "midi": 39,
            "name": "D#2",
            "ticks": 210720,
            "time": 225.12841899999998,
            "velocity": 0.9133858267716536
          },
          {
            "duration": 0.03205131250001614,
            "durationTicks": 30,
            "midi": 40,
            "name": "E2",
            "ticks": 210720,
            "time": 225.12841899999998,
            "velocity": 0.937007874015748
          },
          {
            "duration": 0.03205131250001614,
            "durationTicks": 30,
            "midi": 42,
            "name": "F#2",
            "ticks": 210720,
            "time": 225.12841899999998,
            "velocity": 0.49606299212598426
          },
          {
            "duration": 0.03205131250001614,
            "durationTicks": 30,
            "midi": 82,
            "name": "A#5",
            "ticks": 210720,
            "time": 225.12841899999998,
            "velocity": 0.5826771653543307
          },
          {
            "duration": 0.032051312499987716,
            "durationTicks": 30,
            "midi": 42,
            "name": "F#2",
            "ticks": 210960,
            "time": 225.3848295,
            "velocity": 0.6692913385826772
          },
          {
            "duration": 0.032051312499987716,
            "durationTicks": 30,
            "midi": 82,
            "name": "A#5",
            "ticks": 210960,
            "time": 225.3848295,
            "velocity": 0.4409448818897638
          },
          {
            "duration": 0.03205131250001614,
            "durationTicks": 30,
            "midi": 36,
            "name": "C2",
            "ticks": 211200,
            "time": 225.64123999999998,
            "velocity": 0.8740157480314961
          },
          {
            "duration": 0.03205131250001614,
            "durationTicks": 30,
            "midi": 42,
            "name": "F#2",
            "ticks": 211200,
            "time": 225.64123999999998,
            "velocity": 0.47244094488188976
          },
          {
            "duration": 0.03205131250001614,
            "durationTicks": 30,
            "midi": 82,
            "name": "A#5",
            "ticks": 211200,
            "time": 225.64123999999998,
            "velocity": 0.5826771653543307
          },
          {
            "duration": 0.032051312499987716,
            "durationTicks": 30,
            "midi": 42,
            "name": "F#2",
            "ticks": 211440,
            "time": 225.8976505,
            "velocity": 0.5905511811023622
          },
          {
            "duration": 0.032051312499987716,
            "durationTicks": 30,
            "midi": 82,
            "name": "A#5",
            "ticks": 211440,
            "time": 225.8976505,
            "velocity": 0.5039370078740157
          },
          {
            "duration": 0.03205131250001614,
            "durationTicks": 30,
            "midi": 39,
            "name": "D#2",
            "ticks": 211680,
            "time": 226.15406099999998,
            "velocity": 0.9133858267716536
          },
          {
            "duration": 0.03205131250001614,
            "durationTicks": 30,
            "midi": 40,
            "name": "E2",
            "ticks": 211680,
            "time": 226.15406099999998,
            "velocity": 0.937007874015748
          },
          {
            "duration": 0.03205131250001614,
            "durationTicks": 30,
            "midi": 42,
            "name": "F#2",
            "ticks": 211680,
            "time": 226.15406099999998,
            "velocity": 0.4330708661417323
          },
          {
            "duration": 0.03205131250001614,
            "durationTicks": 30,
            "midi": 82,
            "name": "A#5",
            "ticks": 211680,
            "time": 226.15406099999998,
            "velocity": 0.5669291338582677
          },
          {
            "duration": 0.032051312499987716,
            "durationTicks": 30,
            "midi": 42,
            "name": "F#2",
            "ticks": 211920,
            "time": 226.4104715,
            "velocity": 0.6692913385826772
          },
          {
            "duration": 0.032051312499987716,
            "durationTicks": 30,
            "midi": 82,
            "name": "A#5",
            "ticks": 211920,
            "time": 226.4104715,
            "velocity": 0.5196850393700787
          },
          {
            "duration": 0.032051312499987716,
            "durationTicks": 30,
            "midi": 36,
            "name": "C2",
            "ticks": 212160,
            "time": 226.666882,
            "velocity": 0.8740157480314961
          },
          {
            "duration": 0.032051312499987716,
            "durationTicks": 30,
            "midi": 42,
            "name": "F#2",
            "ticks": 212160,
            "time": 226.666882,
            "velocity": 0.4094488188976378
          },
          {
            "duration": 0.032051312499987716,
            "durationTicks": 30,
            "midi": 82,
            "name": "A#5",
            "ticks": 212160,
            "time": 226.666882,
            "velocity": 0.4881889763779528
          },
          {
            "duration": 0.03205131250001614,
            "durationTicks": 30,
            "midi": 42,
            "name": "F#2",
            "ticks": 212400,
            "time": 226.92329249999997,
            "velocity": 0.6299212598425197
          },
          {
            "duration": 0.03205131250001614,
            "durationTicks": 30,
            "midi": 82,
            "name": "A#5",
            "ticks": 212400,
            "time": 226.92329249999997,
            "velocity": 0.5196850393700787
          },
          {
            "duration": 0.032051312499987716,
            "durationTicks": 30,
            "midi": 39,
            "name": "D#2",
            "ticks": 212640,
            "time": 227.179703,
            "velocity": 0.9133858267716536
          },
          {
            "duration": 0.032051312499987716,
            "durationTicks": 30,
            "midi": 40,
            "name": "E2",
            "ticks": 212640,
            "time": 227.179703,
            "velocity": 0.937007874015748
          },
          {
            "duration": 0.032051312499987716,
            "durationTicks": 30,
            "midi": 42,
            "name": "F#2",
            "ticks": 212640,
            "time": 227.179703,
            "velocity": 0.4094488188976378
          },
          {
            "duration": 0.032051312499987716,
            "durationTicks": 30,
            "midi": 82,
            "name": "A#5",
            "ticks": 212640,
            "time": 227.179703,
            "velocity": 0.5511811023622047
          },
          {
            "duration": 0.03205131250001614,
            "durationTicks": 30,
            "midi": 42,
            "name": "F#2",
            "ticks": 212880,
            "time": 227.43611349999998,
            "velocity": 0.6692913385826772
          },
          {
            "duration": 0.03205131250001614,
            "durationTicks": 30,
            "midi": 82,
            "name": "A#5",
            "ticks": 212880,
            "time": 227.43611349999998,
            "velocity": 0.5511811023622047
          },
          {
            "duration": 0.032051312499987716,
            "durationTicks": 30,
            "midi": 36,
            "name": "C2",
            "ticks": 213120,
            "time": 227.692524,
            "velocity": 0.8740157480314961
          },
          {
            "duration": 0.032051312499987716,
            "durationTicks": 30,
            "midi": 42,
            "name": "F#2",
            "ticks": 213120,
            "time": 227.692524,
            "velocity": 0.3779527559055118
          },
          {
            "duration": 0.032051312499987716,
            "durationTicks": 30,
            "midi": 82,
            "name": "A#5",
            "ticks": 213120,
            "time": 227.692524,
            "velocity": 0.5669291338582677
          },
          {
            "duration": 0.03205131250001614,
            "durationTicks": 30,
            "midi": 42,
            "name": "F#2",
            "ticks": 213360,
            "time": 227.94893449999998,
            "velocity": 0.5905511811023622
          },
          {
            "duration": 0.03205131250001614,
            "durationTicks": 30,
            "midi": 82,
            "name": "A#5",
            "ticks": 213360,
            "time": 227.94893449999998,
            "velocity": 0.5511811023622047
          },
          {
            "duration": 0.032051312499987716,
            "durationTicks": 30,
            "midi": 39,
            "name": "D#2",
            "ticks": 213600,
            "time": 228.205345,
            "velocity": 0.9133858267716536
          },
          {
            "duration": 0.032051312499987716,
            "durationTicks": 30,
            "midi": 40,
            "name": "E2",
            "ticks": 213600,
            "time": 228.205345,
            "velocity": 0.9291338582677166
          },
          {
            "duration": 0.032051312499987716,
            "durationTicks": 30,
            "midi": 42,
            "name": "F#2",
            "ticks": 213600,
            "time": 228.205345,
            "velocity": 0.47244094488188976
          },
          {
            "duration": 0.032051312499987716,
            "durationTicks": 30,
            "midi": 82,
            "name": "A#5",
            "ticks": 213600,
            "time": 228.205345,
            "velocity": 0.5354330708661418
          },
          {
            "duration": 0.03205131250001614,
            "durationTicks": 30,
            "midi": 42,
            "name": "F#2",
            "ticks": 213840,
            "time": 228.46175549999998,
            "velocity": 0.6299212598425197
          },
          {
            "duration": 0.03205131250001614,
            "durationTicks": 30,
            "midi": 82,
            "name": "A#5",
            "ticks": 213840,
            "time": 228.46175549999998,
            "velocity": 0.5511811023622047
          },
          {
            "duration": 0.032051312499987716,
            "durationTicks": 30,
            "midi": 36,
            "name": "C2",
            "ticks": 214080,
            "time": 228.718166,
            "velocity": 0.8740157480314961
          },
          {
            "duration": 0.032051312499987716,
            "durationTicks": 30,
            "midi": 42,
            "name": "F#2",
            "ticks": 214080,
            "time": 228.718166,
            "velocity": 0.49606299212598426
          },
          {
            "duration": 0.032051312499987716,
            "durationTicks": 30,
            "midi": 82,
            "name": "A#5",
            "ticks": 214080,
            "time": 228.718166,
            "velocity": 0.5511811023622047
          },
          {
            "duration": 0.03205131250001614,
            "durationTicks": 30,
            "midi": 42,
            "name": "F#2",
            "ticks": 214320,
            "time": 228.97457649999998,
            "velocity": 0.5905511811023622
          },
          {
            "duration": 0.03205131250001614,
            "durationTicks": 30,
            "midi": 82,
            "name": "A#5",
            "ticks": 214320,
            "time": 228.97457649999998,
            "velocity": 0.5826771653543307
          },
          {
            "duration": 0.032051312499987716,
            "durationTicks": 30,
            "midi": 39,
            "name": "D#2",
            "ticks": 214560,
            "time": 229.230987,
            "velocity": 0.9133858267716536
          },
          {
            "duration": 0.032051312499987716,
            "durationTicks": 30,
            "midi": 40,
            "name": "E2",
            "ticks": 214560,
            "time": 229.230987,
            "velocity": 0.937007874015748
          },
          {
            "duration": 0.032051312499987716,
            "durationTicks": 30,
            "midi": 42,
            "name": "F#2",
            "ticks": 214560,
            "time": 229.230987,
            "velocity": 0.49606299212598426
          },
          {
            "duration": 0.032051312499987716,
            "durationTicks": 30,
            "midi": 82,
            "name": "A#5",
            "ticks": 214560,
            "time": 229.230987,
            "velocity": 0.5354330708661418
          },
          {
            "duration": 0.032051312499987716,
            "durationTicks": 30,
            "midi": 42,
            "name": "F#2",
            "ticks": 214800,
            "time": 229.4873975,
            "velocity": 0.6692913385826772
          },
          {
            "duration": 0.032051312499987716,
            "durationTicks": 30,
            "midi": 82,
            "name": "A#5",
            "ticks": 214800,
            "time": 229.4873975,
            "velocity": 0.5511811023622047
          },
          {
            "duration": 0.032051312499987716,
            "durationTicks": 30,
            "midi": 36,
            "name": "C2",
            "ticks": 215040,
            "time": 229.743808,
            "velocity": 0.8740157480314961
          },
          {
            "duration": 0.032051312499987716,
            "durationTicks": 30,
            "midi": 42,
            "name": "F#2",
            "ticks": 215040,
            "time": 229.743808,
            "velocity": 0.47244094488188976
          },
          {
            "duration": 0.032051312499987716,
            "durationTicks": 30,
            "midi": 82,
            "name": "A#5",
            "ticks": 215040,
            "time": 229.743808,
            "velocity": 0.5354330708661418
          },
          {
            "duration": 0.032051312499987716,
            "durationTicks": 30,
            "midi": 42,
            "name": "F#2",
            "ticks": 215280,
            "time": 230.0002185,
            "velocity": 0.5905511811023622
          },
          {
            "duration": 0.032051312499987716,
            "durationTicks": 30,
            "midi": 82,
            "name": "A#5",
            "ticks": 215280,
            "time": 230.0002185,
            "velocity": 0.48031496062992124
          },
          {
            "duration": 0.03205131250001614,
            "durationTicks": 30,
            "midi": 39,
            "name": "D#2",
            "ticks": 215520,
            "time": 230.25662899999998,
            "velocity": 0.9133858267716536
          },
          {
            "duration": 0.03205131250001614,
            "durationTicks": 30,
            "midi": 40,
            "name": "E2",
            "ticks": 215520,
            "time": 230.25662899999998,
            "velocity": 0.937007874015748
          },
          {
            "duration": 0.03205131250001614,
            "durationTicks": 30,
            "midi": 42,
            "name": "F#2",
            "ticks": 215520,
            "time": 230.25662899999998,
            "velocity": 0.4330708661417323
          },
          {
            "duration": 0.03205131250001614,
            "durationTicks": 30,
            "midi": 82,
            "name": "A#5",
            "ticks": 215520,
            "time": 230.25662899999998,
            "velocity": 0.48031496062992124
          },
          {
            "duration": 0.032051312499987716,
            "durationTicks": 30,
            "midi": 42,
            "name": "F#2",
            "ticks": 215760,
            "time": 230.5130395,
            "velocity": 0.6692913385826772
          },
          {
            "duration": 0.032051312499987716,
            "durationTicks": 30,
            "midi": 82,
            "name": "A#5",
            "ticks": 215760,
            "time": 230.5130395,
            "velocity": 0.44881889763779526
          },
          {
            "duration": 0.03205131250001614,
            "durationTicks": 30,
            "midi": 36,
            "name": "C2",
            "ticks": 216000,
            "time": 230.76944999999998,
            "velocity": 0.8740157480314961
          },
          {
            "duration": 0.03205131250001614,
            "durationTicks": 30,
            "midi": 42,
            "name": "F#2",
            "ticks": 216000,
            "time": 230.76944999999998,
            "velocity": 0.4094488188976378
          },
          {
            "duration": 0.03205131250001614,
            "durationTicks": 30,
            "midi": 82,
            "name": "A#5",
            "ticks": 216000,
            "time": 230.76944999999998,
            "velocity": 0.5039370078740157
          },
          {
            "duration": 0.032051312499987716,
            "durationTicks": 30,
            "midi": 42,
            "name": "F#2",
            "ticks": 216240,
            "time": 231.0258605,
            "velocity": 0.6299212598425197
          },
          {
            "duration": 0.032051312499987716,
            "durationTicks": 30,
            "midi": 82,
            "name": "A#5",
            "ticks": 216240,
            "time": 231.0258605,
            "velocity": 0.41732283464566927
          },
          {
            "duration": 0.03205131250001614,
            "durationTicks": 30,
            "midi": 39,
            "name": "D#2",
            "ticks": 216480,
            "time": 231.28227099999998,
            "velocity": 0.9133858267716536
          },
          {
            "duration": 0.03205131250001614,
            "durationTicks": 30,
            "midi": 40,
            "name": "E2",
            "ticks": 216480,
            "time": 231.28227099999998,
            "velocity": 0.937007874015748
          },
          {
            "duration": 0.03205131250001614,
            "durationTicks": 30,
            "midi": 42,
            "name": "F#2",
            "ticks": 216480,
            "time": 231.28227099999998,
            "velocity": 0.4094488188976378
          },
          {
            "duration": 0.03205131250001614,
            "durationTicks": 30,
            "midi": 82,
            "name": "A#5",
            "ticks": 216480,
            "time": 231.28227099999998,
            "velocity": 0.5354330708661418
          },
          {
            "duration": 0.032051312499987716,
            "durationTicks": 30,
            "midi": 42,
            "name": "F#2",
            "ticks": 216720,
            "time": 231.5386815,
            "velocity": 0.6692913385826772
          },
          {
            "duration": 0.032051312499987716,
            "durationTicks": 30,
            "midi": 82,
            "name": "A#5",
            "ticks": 216720,
            "time": 231.5386815,
            "velocity": 0.5039370078740157
          },
          {
            "duration": 0.03205131250001614,
            "durationTicks": 30,
            "midi": 36,
            "name": "C2",
            "ticks": 216960,
            "time": 231.79509199999998,
            "velocity": 0.8740157480314961
          },
          {
            "duration": 0.03205131250001614,
            "durationTicks": 30,
            "midi": 42,
            "name": "F#2",
            "ticks": 216960,
            "time": 231.79509199999998,
            "velocity": 0.3779527559055118
          },
          {
            "duration": 0.03205131250001614,
            "durationTicks": 30,
            "midi": 82,
            "name": "A#5",
            "ticks": 216960,
            "time": 231.79509199999998,
            "velocity": 0.4881889763779528
          },
          {
            "duration": 0.032051312499987716,
            "durationTicks": 30,
            "midi": 42,
            "name": "F#2",
            "ticks": 217200,
            "time": 232.0515025,
            "velocity": 0.5905511811023622
          },
          {
            "duration": 0.032051312499987716,
            "durationTicks": 30,
            "midi": 82,
            "name": "A#5",
            "ticks": 217200,
            "time": 232.0515025,
            "velocity": 0.4094488188976378
          },
          {
            "duration": 0.03205131250001614,
            "durationTicks": 30,
            "midi": 39,
            "name": "D#2",
            "ticks": 217440,
            "time": 232.30791299999999,
            "velocity": 0.9133858267716536
          },
          {
            "duration": 0.03205131250001614,
            "durationTicks": 30,
            "midi": 40,
            "name": "E2",
            "ticks": 217440,
            "time": 232.30791299999999,
            "velocity": 0.9291338582677166
          },
          {
            "duration": 0.03205131250001614,
            "durationTicks": 30,
            "midi": 42,
            "name": "F#2",
            "ticks": 217440,
            "time": 232.30791299999999,
            "velocity": 0.47244094488188976
          },
          {
            "duration": 0.03205131250001614,
            "durationTicks": 30,
            "midi": 82,
            "name": "A#5",
            "ticks": 217440,
            "time": 232.30791299999999,
            "velocity": 0.5511811023622047
          },
          {
            "duration": 0.032051312499987716,
            "durationTicks": 30,
            "midi": 42,
            "name": "F#2",
            "ticks": 217680,
            "time": 232.5643235,
            "velocity": 0.6299212598425197
          },
          {
            "duration": 0.032051312499987716,
            "durationTicks": 30,
            "midi": 82,
            "name": "A#5",
            "ticks": 217680,
            "time": 232.5643235,
            "velocity": 0.4645669291338583
          },
          {
            "duration": 0.032051312499987716,
            "durationTicks": 30,
            "midi": 36,
            "name": "C2",
            "ticks": 217920,
            "time": 232.820734,
            "velocity": 0.8740157480314961
          },
          {
            "duration": 0.032051312499987716,
            "durationTicks": 30,
            "midi": 42,
            "name": "F#2",
            "ticks": 217920,
            "time": 232.820734,
            "velocity": 0.49606299212598426
          },
          {
            "duration": 0.032051312499987716,
            "durationTicks": 30,
            "midi": 82,
            "name": "A#5",
            "ticks": 217920,
            "time": 232.820734,
            "velocity": 0.5354330708661418
          },
          {
            "duration": 0.03205131250001614,
            "durationTicks": 30,
            "midi": 42,
            "name": "F#2",
            "ticks": 218160,
            "time": 233.07714449999997,
            "velocity": 0.5905511811023622
          },
          {
            "duration": 0.03205131250001614,
            "durationTicks": 30,
            "midi": 82,
            "name": "A#5",
            "ticks": 218160,
            "time": 233.07714449999997,
            "velocity": 0.5196850393700787
          },
          {
            "duration": 0.032051312499987716,
            "durationTicks": 30,
            "midi": 39,
            "name": "D#2",
            "ticks": 218400,
            "time": 233.333555,
            "velocity": 0.9133858267716536
          },
          {
            "duration": 0.032051312499987716,
            "durationTicks": 30,
            "midi": 40,
            "name": "E2",
            "ticks": 218400,
            "time": 233.333555,
            "velocity": 0.937007874015748
          },
          {
            "duration": 0.032051312499987716,
            "durationTicks": 30,
            "midi": 42,
            "name": "F#2",
            "ticks": 218400,
            "time": 233.333555,
            "velocity": 0.49606299212598426
          },
          {
            "duration": 0.032051312499987716,
            "durationTicks": 30,
            "midi": 82,
            "name": "A#5",
            "ticks": 218400,
            "time": 233.333555,
            "velocity": 0.5826771653543307
          },
          {
            "duration": 0.03205131250001614,
            "durationTicks": 30,
            "midi": 42,
            "name": "F#2",
            "ticks": 218640,
            "time": 233.58996549999998,
            "velocity": 0.6692913385826772
          },
          {
            "duration": 0.03205131250001614,
            "durationTicks": 30,
            "midi": 82,
            "name": "A#5",
            "ticks": 218640,
            "time": 233.58996549999998,
            "velocity": 0.4409448818897638
          },
          {
            "duration": 0.032051312499987716,
            "durationTicks": 30,
            "midi": 36,
            "name": "C2",
            "ticks": 218880,
            "time": 233.846376,
            "velocity": 0.8740157480314961
          },
          {
            "duration": 0.032051312499987716,
            "durationTicks": 30,
            "midi": 42,
            "name": "F#2",
            "ticks": 218880,
            "time": 233.846376,
            "velocity": 0.47244094488188976
          },
          {
            "duration": 0.032051312499987716,
            "durationTicks": 30,
            "midi": 82,
            "name": "A#5",
            "ticks": 218880,
            "time": 233.846376,
            "velocity": 0.5826771653543307
          },
          {
            "duration": 0.03205131250001614,
            "durationTicks": 30,
            "midi": 42,
            "name": "F#2",
            "ticks": 219120,
            "time": 234.10278649999998,
            "velocity": 0.5905511811023622
          },
          {
            "duration": 0.03205131250001614,
            "durationTicks": 30,
            "midi": 82,
            "name": "A#5",
            "ticks": 219120,
            "time": 234.10278649999998,
            "velocity": 0.5039370078740157
          },
          {
            "duration": 0.032051312499987716,
            "durationTicks": 30,
            "midi": 39,
            "name": "D#2",
            "ticks": 219360,
            "time": 234.359197,
            "velocity": 0.9133858267716536
          },
          {
            "duration": 0.032051312499987716,
            "durationTicks": 30,
            "midi": 40,
            "name": "E2",
            "ticks": 219360,
            "time": 234.359197,
            "velocity": 0.937007874015748
          },
          {
            "duration": 0.032051312499987716,
            "durationTicks": 30,
            "midi": 42,
            "name": "F#2",
            "ticks": 219360,
            "time": 234.359197,
            "velocity": 0.4330708661417323
          },
          {
            "duration": 0.032051312499987716,
            "durationTicks": 30,
            "midi": 82,
            "name": "A#5",
            "ticks": 219360,
            "time": 234.359197,
            "velocity": 0.5669291338582677
          },
          {
            "duration": 0.03205131250001614,
            "durationTicks": 30,
            "midi": 42,
            "name": "F#2",
            "ticks": 219600,
            "time": 234.61560749999998,
            "velocity": 0.6692913385826772
          },
          {
            "duration": 0.03205131250001614,
            "durationTicks": 30,
            "midi": 82,
            "name": "A#5",
            "ticks": 219600,
            "time": 234.61560749999998,
            "velocity": 0.5196850393700787
          },
          {
            "duration": 0.032051312499987716,
            "durationTicks": 30,
            "midi": 36,
            "name": "C2",
            "ticks": 219840,
            "time": 234.872018,
            "velocity": 0.8740157480314961
          },
          {
            "duration": 0.032051312499987716,
            "durationTicks": 30,
            "midi": 42,
            "name": "F#2",
            "ticks": 219840,
            "time": 234.872018,
            "velocity": 0.4094488188976378
          },
          {
            "duration": 0.032051312499987716,
            "durationTicks": 30,
            "midi": 82,
            "name": "A#5",
            "ticks": 219840,
            "time": 234.872018,
            "velocity": 0.4881889763779528
          },
          {
            "duration": 0.03205131250001614,
            "durationTicks": 30,
            "midi": 42,
            "name": "F#2",
            "ticks": 220080,
            "time": 235.12842849999998,
            "velocity": 0.6299212598425197
          },
          {
            "duration": 0.03205131250001614,
            "durationTicks": 30,
            "midi": 82,
            "name": "A#5",
            "ticks": 220080,
            "time": 235.12842849999998,
            "velocity": 0.5196850393700787
          },
          {
            "duration": 0.032051312499987716,
            "durationTicks": 30,
            "midi": 45,
            "name": "A2",
            "ticks": 220200,
            "time": 235.25663375,
            "velocity": 0.8110236220472441
          },
          {
            "duration": 0.032051312499987716,
            "durationTicks": 30,
            "midi": 39,
            "name": "D#2",
            "ticks": 220320,
            "time": 235.384839,
            "velocity": 0.9133858267716536
          },
          {
            "duration": 0.032051312499987716,
            "durationTicks": 30,
            "midi": 40,
            "name": "E2",
            "ticks": 220320,
            "time": 235.384839,
            "velocity": 0.937007874015748
          },
          {
            "duration": 0.032051312499987716,
            "durationTicks": 30,
            "midi": 42,
            "name": "F#2",
            "ticks": 220320,
            "time": 235.384839,
            "velocity": 0.4094488188976378
          },
          {
            "duration": 0.032051312499987716,
            "durationTicks": 30,
            "midi": 43,
            "name": "G2",
            "ticks": 220320,
            "time": 235.384839,
            "velocity": 0.8582677165354331
          },
          {
            "duration": 0.032051312499987716,
            "durationTicks": 30,
            "midi": 82,
            "name": "A#5",
            "ticks": 220320,
            "time": 235.384839,
            "velocity": 0.5511811023622047
          },
          {
            "duration": 0.032051312499987716,
            "durationTicks": 30,
            "midi": 46,
            "name": "A#2",
            "ticks": 220560,
            "time": 235.6412495,
            "velocity": 0.8267716535433071
          },
          {
            "duration": 0.032051312499987716,
            "durationTicks": 30,
            "midi": 82,
            "name": "A#5",
            "ticks": 220560,
            "time": 235.6412495,
            "velocity": 0.5511811023622047
          },
          {
            "duration": 0.03205131250001614,
            "durationTicks": 30,
            "midi": 36,
            "name": "C2",
            "ticks": 220800,
            "time": 235.89765999999997,
            "velocity": 0.8740157480314961
          },
          {
            "duration": 0.03205131250001614,
            "durationTicks": 30,
            "midi": 42,
            "name": "F#2",
            "ticks": 220800,
            "time": 235.89765999999997,
            "velocity": 0.3779527559055118
          },
          {
            "duration": 0.03205131250001614,
            "durationTicks": 30,
            "midi": 82,
            "name": "A#5",
            "ticks": 220800,
            "time": 235.89765999999997,
            "velocity": 0.5669291338582677
          },
          {
            "duration": 0.032051312499987716,
            "durationTicks": 30,
            "midi": 42,
            "name": "F#2",
            "ticks": 221040,
            "time": 236.1540705,
            "velocity": 0.5905511811023622
          },
          {
            "duration": 0.032051312499987716,
            "durationTicks": 30,
            "midi": 82,
            "name": "A#5",
            "ticks": 221040,
            "time": 236.1540705,
            "velocity": 0.5511811023622047
          },
          {
            "duration": 0.03205131250001614,
            "durationTicks": 30,
            "midi": 39,
            "name": "D#2",
            "ticks": 221280,
            "time": 236.41048099999998,
            "velocity": 0.9133858267716536
          },
          {
            "duration": 0.03205131250001614,
            "durationTicks": 30,
            "midi": 40,
            "name": "E2",
            "ticks": 221280,
            "time": 236.41048099999998,
            "velocity": 0.9291338582677166
          },
          {
            "duration": 0.03205131250001614,
            "durationTicks": 30,
            "midi": 42,
            "name": "F#2",
            "ticks": 221280,
            "time": 236.41048099999998,
            "velocity": 0.47244094488188976
          },
          {
            "duration": 0.03205131250001614,
            "durationTicks": 30,
            "midi": 82,
            "name": "A#5",
            "ticks": 221280,
            "time": 236.41048099999998,
            "velocity": 0.5354330708661418
          },
          {
            "duration": 0.032051312499987716,
            "durationTicks": 30,
            "midi": 42,
            "name": "F#2",
            "ticks": 221520,
            "time": 236.6668915,
            "velocity": 0.6299212598425197
          },
          {
            "duration": 0.032051312499987716,
            "durationTicks": 30,
            "midi": 82,
            "name": "A#5",
            "ticks": 221520,
            "time": 236.6668915,
            "velocity": 0.5511811023622047
          },
          {
            "duration": 0.03205131250001614,
            "durationTicks": 30,
            "midi": 36,
            "name": "C2",
            "ticks": 221760,
            "time": 236.92330199999998,
            "velocity": 0.8740157480314961
          },
          {
            "duration": 0.03205131250001614,
            "durationTicks": 30,
            "midi": 42,
            "name": "F#2",
            "ticks": 221760,
            "time": 236.92330199999998,
            "velocity": 0.49606299212598426
          },
          {
            "duration": 0.03205131250001614,
            "durationTicks": 30,
            "midi": 82,
            "name": "A#5",
            "ticks": 221760,
            "time": 236.92330199999998,
            "velocity": 0.5511811023622047
          },
          {
            "duration": 0.032051312499987716,
            "durationTicks": 30,
            "midi": 42,
            "name": "F#2",
            "ticks": 222000,
            "time": 237.1797125,
            "velocity": 0.5905511811023622
          },
          {
            "duration": 0.032051312499987716,
            "durationTicks": 30,
            "midi": 82,
            "name": "A#5",
            "ticks": 222000,
            "time": 237.1797125,
            "velocity": 0.5826771653543307
          },
          {
            "duration": 0.03205131250001614,
            "durationTicks": 30,
            "midi": 39,
            "name": "D#2",
            "ticks": 222240,
            "time": 237.43612299999998,
            "velocity": 0.9133858267716536
          },
          {
            "duration": 0.03205131250001614,
            "durationTicks": 30,
            "midi": 40,
            "name": "E2",
            "ticks": 222240,
            "time": 237.43612299999998,
            "velocity": 0.937007874015748
          },
          {
            "duration": 0.03205131250001614,
            "durationTicks": 30,
            "midi": 42,
            "name": "F#2",
            "ticks": 222240,
            "time": 237.43612299999998,
            "velocity": 0.49606299212598426
          },
          {
            "duration": 0.03205131250001614,
            "durationTicks": 30,
            "midi": 82,
            "name": "A#5",
            "ticks": 222240,
            "time": 237.43612299999998,
            "velocity": 0.5354330708661418
          },
          {
            "duration": 0.032051312499987716,
            "durationTicks": 30,
            "midi": 42,
            "name": "F#2",
            "ticks": 222480,
            "time": 237.6925335,
            "velocity": 0.6692913385826772
          },
          {
            "duration": 0.032051312499987716,
            "durationTicks": 30,
            "midi": 82,
            "name": "A#5",
            "ticks": 222480,
            "time": 237.6925335,
            "velocity": 0.5511811023622047
          },
          {
            "duration": 0.03205131250001614,
            "durationTicks": 30,
            "midi": 36,
            "name": "C2",
            "ticks": 222720,
            "time": 237.94894399999998,
            "velocity": 0.8740157480314961
          },
          {
            "duration": 0.03205131250001614,
            "durationTicks": 30,
            "midi": 42,
            "name": "F#2",
            "ticks": 222720,
            "time": 237.94894399999998,
            "velocity": 0.47244094488188976
          },
          {
            "duration": 0.03205131250001614,
            "durationTicks": 30,
            "midi": 82,
            "name": "A#5",
            "ticks": 222720,
            "time": 237.94894399999998,
            "velocity": 0.5354330708661418
          },
          {
            "duration": 0.032051312499987716,
            "durationTicks": 30,
            "midi": 42,
            "name": "F#2",
            "ticks": 222960,
            "time": 238.2053545,
            "velocity": 0.5905511811023622
          },
          {
            "duration": 0.032051312499987716,
            "durationTicks": 30,
            "midi": 82,
            "name": "A#5",
            "ticks": 222960,
            "time": 238.2053545,
            "velocity": 0.48031496062992124
          },
          {
            "duration": 0.032051312499987716,
            "durationTicks": 30,
            "midi": 39,
            "name": "D#2",
            "ticks": 223200,
            "time": 238.46176499999999,
            "velocity": 0.9133858267716536
          },
          {
            "duration": 0.032051312499987716,
            "durationTicks": 30,
            "midi": 40,
            "name": "E2",
            "ticks": 223200,
            "time": 238.46176499999999,
            "velocity": 0.937007874015748
          },
          {
            "duration": 0.032051312499987716,
            "durationTicks": 30,
            "midi": 42,
            "name": "F#2",
            "ticks": 223200,
            "time": 238.46176499999999,
            "velocity": 0.4330708661417323
          },
          {
            "duration": 0.032051312499987716,
            "durationTicks": 30,
            "midi": 82,
            "name": "A#5",
            "ticks": 223200,
            "time": 238.46176499999999,
            "velocity": 0.48031496062992124
          },
          {
            "duration": 0.03205131250001614,
            "durationTicks": 30,
            "midi": 42,
            "name": "F#2",
            "ticks": 223440,
            "time": 238.71817549999997,
            "velocity": 0.6692913385826772
          },
          {
            "duration": 0.03205131250001614,
            "durationTicks": 30,
            "midi": 82,
            "name": "A#5",
            "ticks": 223440,
            "time": 238.71817549999997,
            "velocity": 0.44881889763779526
          },
          {
            "duration": 0.032051312499987716,
            "durationTicks": 30,
            "midi": 36,
            "name": "C2",
            "ticks": 223680,
            "time": 238.974586,
            "velocity": 0.8740157480314961
          },
          {
            "duration": 0.032051312499987716,
            "durationTicks": 30,
            "midi": 42,
            "name": "F#2",
            "ticks": 223680,
            "time": 238.974586,
            "velocity": 0.4094488188976378
          },
          {
            "duration": 0.032051312499987716,
            "durationTicks": 30,
            "midi": 82,
            "name": "A#5",
            "ticks": 223680,
            "time": 238.974586,
            "velocity": 0.5039370078740157
          },
          {
            "duration": 0.03205131250001614,
            "durationTicks": 30,
            "midi": 42,
            "name": "F#2",
            "ticks": 223920,
            "time": 239.23099649999997,
            "velocity": 0.6299212598425197
          },
          {
            "duration": 0.03205131250001614,
            "durationTicks": 30,
            "midi": 82,
            "name": "A#5",
            "ticks": 223920,
            "time": 239.23099649999997,
            "velocity": 0.41732283464566927
          },
          {
            "duration": 0.03205131250001614,
            "durationTicks": 30,
            "midi": 45,
            "name": "A2",
            "ticks": 224040,
            "time": 239.35920174999998,
            "velocity": 0.8110236220472441
          },
          {
            "duration": 0.032051312499987716,
            "durationTicks": 30,
            "midi": 39,
            "name": "D#2",
            "ticks": 224160,
            "time": 239.487407,
            "velocity": 0.9133858267716536
          },
          {
            "duration": 0.032051312499987716,
            "durationTicks": 30,
            "midi": 40,
            "name": "E2",
            "ticks": 224160,
            "time": 239.487407,
            "velocity": 0.937007874015748
          },
          {
            "duration": 0.032051312499987716,
            "durationTicks": 30,
            "midi": 42,
            "name": "F#2",
            "ticks": 224160,
            "time": 239.487407,
            "velocity": 0.4094488188976378
          },
          {
            "duration": 0.032051312499987716,
            "durationTicks": 30,
            "midi": 43,
            "name": "G2",
            "ticks": 224160,
            "time": 239.487407,
            "velocity": 0.8582677165354331
          },
          {
            "duration": 0.032051312499987716,
            "durationTicks": 30,
            "midi": 82,
            "name": "A#5",
            "ticks": 224160,
            "time": 239.487407,
            "velocity": 0.5354330708661418
          },
          {
            "duration": 0.03205131250001614,
            "durationTicks": 30,
            "midi": 42,
            "name": "F#2",
            "ticks": 224400,
            "time": 239.74381749999998,
            "velocity": 0.6692913385826772
          },
          {
            "duration": 0.03205131250001614,
            "durationTicks": 30,
            "midi": 82,
            "name": "A#5",
            "ticks": 224400,
            "time": 239.74381749999998,
            "velocity": 0.5039370078740157
          },
          {
            "duration": 0.032051312499987716,
            "durationTicks": 30,
            "midi": 36,
            "name": "C2",
            "ticks": 224640,
            "time": 240.000228,
            "velocity": 0.8740157480314961
          },
          {
            "duration": 0.032051312499987716,
            "durationTicks": 30,
            "midi": 42,
            "name": "F#2",
            "ticks": 224640,
            "time": 240.000228,
            "velocity": 0.3779527559055118
          },
          {
            "duration": 0.032051312499987716,
            "durationTicks": 30,
            "midi": 82,
            "name": "A#5",
            "ticks": 224640,
            "time": 240.000228,
            "velocity": 0.4881889763779528
          },
          {
            "duration": 0.03205131250001614,
            "durationTicks": 30,
            "midi": 42,
            "name": "F#2",
            "ticks": 224880,
            "time": 240.25663849999998,
            "velocity": 0.5905511811023622
          },
          {
            "duration": 0.03205131250001614,
            "durationTicks": 30,
            "midi": 82,
            "name": "A#5",
            "ticks": 224880,
            "time": 240.25663849999998,
            "velocity": 0.4094488188976378
          },
          {
            "duration": 0.032051312499987716,
            "durationTicks": 30,
            "midi": 39,
            "name": "D#2",
            "ticks": 225120,
            "time": 240.513049,
            "velocity": 0.9133858267716536
          },
          {
            "duration": 0.032051312499987716,
            "durationTicks": 30,
            "midi": 40,
            "name": "E2",
            "ticks": 225120,
            "time": 240.513049,
            "velocity": 0.9291338582677166
          },
          {
            "duration": 0.032051312499987716,
            "durationTicks": 30,
            "midi": 42,
            "name": "F#2",
            "ticks": 225120,
            "time": 240.513049,
            "velocity": 0.47244094488188976
          },
          {
            "duration": 0.032051312499987716,
            "durationTicks": 30,
            "midi": 82,
            "name": "A#5",
            "ticks": 225120,
            "time": 240.513049,
            "velocity": 0.5511811023622047
          },
          {
            "duration": 0.03205131250001614,
            "durationTicks": 30,
            "midi": 42,
            "name": "F#2",
            "ticks": 225360,
            "time": 240.76945949999998,
            "velocity": 0.6299212598425197
          },
          {
            "duration": 0.03205131250001614,
            "durationTicks": 30,
            "midi": 82,
            "name": "A#5",
            "ticks": 225360,
            "time": 240.76945949999998,
            "velocity": 0.4645669291338583
          },
          {
            "duration": 0.032051312499987716,
            "durationTicks": 30,
            "midi": 36,
            "name": "C2",
            "ticks": 225600,
            "time": 241.02587,
            "velocity": 0.8740157480314961
          },
          {
            "duration": 0.032051312499987716,
            "durationTicks": 30,
            "midi": 42,
            "name": "F#2",
            "ticks": 225600,
            "time": 241.02587,
            "velocity": 0.49606299212598426
          },
          {
            "duration": 0.032051312499987716,
            "durationTicks": 30,
            "midi": 82,
            "name": "A#5",
            "ticks": 225600,
            "time": 241.02587,
            "velocity": 0.5354330708661418
          },
          {
            "duration": 0.032051312499987716,
            "durationTicks": 30,
            "midi": 42,
            "name": "F#2",
            "ticks": 225840,
            "time": 241.28228049999998,
            "velocity": 0.5905511811023622
          },
          {
            "duration": 0.032051312499987716,
            "durationTicks": 30,
            "midi": 82,
            "name": "A#5",
            "ticks": 225840,
            "time": 241.28228049999998,
            "velocity": 0.5196850393700787
          },
          {
            "duration": 0.032051312499987716,
            "durationTicks": 30,
            "midi": 39,
            "name": "D#2",
            "ticks": 226080,
            "time": 241.538691,
            "velocity": 0.9133858267716536
          },
          {
            "duration": 0.032051312499987716,
            "durationTicks": 30,
            "midi": 40,
            "name": "E2",
            "ticks": 226080,
            "time": 241.538691,
            "velocity": 0.937007874015748
          },
          {
            "duration": 0.032051312499987716,
            "durationTicks": 30,
            "midi": 42,
            "name": "F#2",
            "ticks": 226080,
            "time": 241.538691,
            "velocity": 0.49606299212598426
          },
          {
            "duration": 0.032051312499987716,
            "durationTicks": 30,
            "midi": 82,
            "name": "A#5",
            "ticks": 226080,
            "time": 241.538691,
            "velocity": 0.5826771653543307
          },
          {
            "duration": 0.032051312499987716,
            "durationTicks": 30,
            "midi": 42,
            "name": "F#2",
            "ticks": 226320,
            "time": 241.7951015,
            "velocity": 0.6692913385826772
          },
          {
            "duration": 0.032051312499987716,
            "durationTicks": 30,
            "midi": 82,
            "name": "A#5",
            "ticks": 226320,
            "time": 241.7951015,
            "velocity": 0.4409448818897638
          },
          {
            "duration": 0.03205131250001614,
            "durationTicks": 30,
            "midi": 36,
            "name": "C2",
            "ticks": 226560,
            "time": 242.05151199999997,
            "velocity": 0.8740157480314961
          },
          {
            "duration": 0.03205131250001614,
            "durationTicks": 30,
            "midi": 42,
            "name": "F#2",
            "ticks": 226560,
            "time": 242.05151199999997,
            "velocity": 0.47244094488188976
          },
          {
            "duration": 0.03205131250001614,
            "durationTicks": 30,
            "midi": 82,
            "name": "A#5",
            "ticks": 226560,
            "time": 242.05151199999997,
            "velocity": 0.5826771653543307
          },
          {
            "duration": 0.032051312499987716,
            "durationTicks": 30,
            "midi": 42,
            "name": "F#2",
            "ticks": 226800,
            "time": 242.3079225,
            "velocity": 0.5905511811023622
          },
          {
            "duration": 0.032051312499987716,
            "durationTicks": 30,
            "midi": 82,
            "name": "A#5",
            "ticks": 226800,
            "time": 242.3079225,
            "velocity": 0.5039370078740157
          },
          {
            "duration": 0.03205131250001614,
            "durationTicks": 30,
            "midi": 39,
            "name": "D#2",
            "ticks": 227040,
            "time": 242.56433299999998,
            "velocity": 0.9133858267716536
          },
          {
            "duration": 0.03205131250001614,
            "durationTicks": 30,
            "midi": 40,
            "name": "E2",
            "ticks": 227040,
            "time": 242.56433299999998,
            "velocity": 0.937007874015748
          },
          {
            "duration": 0.03205131250001614,
            "durationTicks": 30,
            "midi": 42,
            "name": "F#2",
            "ticks": 227040,
            "time": 242.56433299999998,
            "velocity": 0.4330708661417323
          },
          {
            "duration": 0.03205131250001614,
            "durationTicks": 30,
            "midi": 82,
            "name": "A#5",
            "ticks": 227040,
            "time": 242.56433299999998,
            "velocity": 0.5669291338582677
          },
          {
            "duration": 0.032051312499987716,
            "durationTicks": 30,
            "midi": 42,
            "name": "F#2",
            "ticks": 227280,
            "time": 242.8207435,
            "velocity": 0.6692913385826772
          },
          {
            "duration": 0.032051312499987716,
            "durationTicks": 30,
            "midi": 82,
            "name": "A#5",
            "ticks": 227280,
            "time": 242.8207435,
            "velocity": 0.5196850393700787
          },
          {
            "duration": 0.03205131250001614,
            "durationTicks": 30,
            "midi": 36,
            "name": "C2",
            "ticks": 227520,
            "time": 243.07715399999998,
            "velocity": 0.8740157480314961
          },
          {
            "duration": 0.03205131250001614,
            "durationTicks": 30,
            "midi": 42,
            "name": "F#2",
            "ticks": 227520,
            "time": 243.07715399999998,
            "velocity": 0.4094488188976378
          },
          {
            "duration": 0.03205131250001614,
            "durationTicks": 30,
            "midi": 82,
            "name": "A#5",
            "ticks": 227520,
            "time": 243.07715399999998,
            "velocity": 0.4881889763779528
          },
          {
            "duration": 0.032051312499987716,
            "durationTicks": 30,
            "midi": 42,
            "name": "F#2",
            "ticks": 227760,
            "time": 243.3335645,
            "velocity": 0.6299212598425197
          },
          {
            "duration": 0.032051312499987716,
            "durationTicks": 30,
            "midi": 82,
            "name": "A#5",
            "ticks": 227760,
            "time": 243.3335645,
            "velocity": 0.5196850393700787
          },
          {
            "duration": 0.03205131250001614,
            "durationTicks": 30,
            "midi": 39,
            "name": "D#2",
            "ticks": 228000,
            "time": 243.58997499999998,
            "velocity": 0.9133858267716536
          },
          {
            "duration": 0.03205131250001614,
            "durationTicks": 30,
            "midi": 40,
            "name": "E2",
            "ticks": 228000,
            "time": 243.58997499999998,
            "velocity": 0.937007874015748
          },
          {
            "duration": 0.03205131250001614,
            "durationTicks": 30,
            "midi": 42,
            "name": "F#2",
            "ticks": 228000,
            "time": 243.58997499999998,
            "velocity": 0.4094488188976378
          },
          {
            "duration": 0.03205131250001614,
            "durationTicks": 30,
            "midi": 82,
            "name": "A#5",
            "ticks": 228000,
            "time": 243.58997499999998,
            "velocity": 0.5511811023622047
          },
          {
            "duration": 0.032051312499987716,
            "durationTicks": 30,
            "midi": 46,
            "name": "A#2",
            "ticks": 228240,
            "time": 243.8463855,
            "velocity": 0.8267716535433071
          },
          {
            "duration": 0.032051312499987716,
            "durationTicks": 30,
            "midi": 82,
            "name": "A#5",
            "ticks": 228240,
            "time": 243.8463855,
            "velocity": 0.5511811023622047
          },
          {
            "duration": 0.03205131250001614,
            "durationTicks": 30,
            "midi": 36,
            "name": "C2",
            "ticks": 228480,
            "time": 244.10279599999998,
            "velocity": 0.8740157480314961
          },
          {
            "duration": 0.03205131250001614,
            "durationTicks": 30,
            "midi": 42,
            "name": "F#2",
            "ticks": 228480,
            "time": 244.10279599999998,
            "velocity": 0.3779527559055118
          },
          {
            "duration": 0.03205131250001614,
            "durationTicks": 30,
            "midi": 82,
            "name": "A#5",
            "ticks": 228480,
            "time": 244.10279599999998,
            "velocity": 0.5669291338582677
          },
          {
            "duration": 0.032051312499987716,
            "durationTicks": 30,
            "midi": 42,
            "name": "F#2",
            "ticks": 228720,
            "time": 244.3592065,
            "velocity": 0.5905511811023622
          },
          {
            "duration": 0.032051312499987716,
            "durationTicks": 30,
            "midi": 82,
            "name": "A#5",
            "ticks": 228720,
            "time": 244.3592065,
            "velocity": 0.5511811023622047
          },
          {
            "duration": 0.032051312499987716,
            "durationTicks": 30,
            "midi": 39,
            "name": "D#2",
            "ticks": 228960,
            "time": 244.615617,
            "velocity": 0.9133858267716536
          },
          {
            "duration": 0.032051312499987716,
            "durationTicks": 30,
            "midi": 40,
            "name": "E2",
            "ticks": 228960,
            "time": 244.615617,
            "velocity": 0.9291338582677166
          },
          {
            "duration": 0.032051312499987716,
            "durationTicks": 30,
            "midi": 42,
            "name": "F#2",
            "ticks": 228960,
            "time": 244.615617,
            "velocity": 0.47244094488188976
          },
          {
            "duration": 0.032051312499987716,
            "durationTicks": 30,
            "midi": 82,
            "name": "A#5",
            "ticks": 228960,
            "time": 244.615617,
            "velocity": 0.5354330708661418
          },
          {
            "duration": 0.03205131250001614,
            "durationTicks": 30,
            "midi": 42,
            "name": "F#2",
            "ticks": 229200,
            "time": 244.87202749999997,
            "velocity": 0.6299212598425197
          },
          {
            "duration": 0.03205131250001614,
            "durationTicks": 30,
            "midi": 82,
            "name": "A#5",
            "ticks": 229200,
            "time": 244.87202749999997,
            "velocity": 0.5511811023622047
          },
          {
            "duration": 0.032051312499987716,
            "durationTicks": 30,
            "midi": 36,
            "name": "C2",
            "ticks": 229440,
            "time": 245.128438,
            "velocity": 0.8740157480314961
          },
          {
            "duration": 0.032051312499987716,
            "durationTicks": 30,
            "midi": 42,
            "name": "F#2",
            "ticks": 229440,
            "time": 245.128438,
            "velocity": 0.49606299212598426
          },
          {
            "duration": 0.032051312499987716,
            "durationTicks": 30,
            "midi": 82,
            "name": "A#5",
            "ticks": 229440,
            "time": 245.128438,
            "velocity": 0.5511811023622047
          },
          {
            "duration": 0.03205131250001614,
            "durationTicks": 30,
            "midi": 42,
            "name": "F#2",
            "ticks": 229680,
            "time": 245.38484849999998,
            "velocity": 0.5905511811023622
          },
          {
            "duration": 0.03205131250001614,
            "durationTicks": 30,
            "midi": 82,
            "name": "A#5",
            "ticks": 229680,
            "time": 245.38484849999998,
            "velocity": 0.5826771653543307
          },
          {
            "duration": 0.032051312499987716,
            "durationTicks": 30,
            "midi": 39,
            "name": "D#2",
            "ticks": 229920,
            "time": 245.641259,
            "velocity": 0.9133858267716536
          },
          {
            "duration": 0.032051312499987716,
            "durationTicks": 30,
            "midi": 40,
            "name": "E2",
            "ticks": 229920,
            "time": 245.641259,
            "velocity": 0.937007874015748
          },
          {
            "duration": 0.032051312499987716,
            "durationTicks": 30,
            "midi": 42,
            "name": "F#2",
            "ticks": 229920,
            "time": 245.641259,
            "velocity": 0.49606299212598426
          },
          {
            "duration": 0.032051312499987716,
            "durationTicks": 30,
            "midi": 82,
            "name": "A#5",
            "ticks": 229920,
            "time": 245.641259,
            "velocity": 0.5354330708661418
          },
          {
            "duration": 0.03205131250001614,
            "durationTicks": 30,
            "midi": 42,
            "name": "F#2",
            "ticks": 230160,
            "time": 245.89766949999998,
            "velocity": 0.6692913385826772
          },
          {
            "duration": 0.03205131250001614,
            "durationTicks": 30,
            "midi": 82,
            "name": "A#5",
            "ticks": 230160,
            "time": 245.89766949999998,
            "velocity": 0.5511811023622047
          },
          {
            "duration": 0.032051312499987716,
            "durationTicks": 30,
            "midi": 36,
            "name": "C2",
            "ticks": 230400,
            "time": 246.15408,
            "velocity": 0.8740157480314961
          },
          {
            "duration": 0.032051312499987716,
            "durationTicks": 30,
            "midi": 42,
            "name": "F#2",
            "ticks": 230400,
            "time": 246.15408,
            "velocity": 0.47244094488188976
          },
          {
            "duration": 0.032051312499987716,
            "durationTicks": 30,
            "midi": 82,
            "name": "A#5",
            "ticks": 230400,
            "time": 246.15408,
            "velocity": 0.5354330708661418
          },
          {
            "duration": 0.03205131250001614,
            "durationTicks": 30,
            "midi": 42,
            "name": "F#2",
            "ticks": 230640,
            "time": 246.41049049999998,
            "velocity": 0.5905511811023622
          },
          {
            "duration": 0.03205131250001614,
            "durationTicks": 30,
            "midi": 82,
            "name": "A#5",
            "ticks": 230640,
            "time": 246.41049049999998,
            "velocity": 0.48031496062992124
          },
          {
            "duration": 0.032051312499987716,
            "durationTicks": 30,
            "midi": 39,
            "name": "D#2",
            "ticks": 230880,
            "time": 246.666901,
            "velocity": 0.9133858267716536
          },
          {
            "duration": 0.032051312499987716,
            "durationTicks": 30,
            "midi": 40,
            "name": "E2",
            "ticks": 230880,
            "time": 246.666901,
            "velocity": 0.937007874015748
          },
          {
            "duration": 0.032051312499987716,
            "durationTicks": 30,
            "midi": 42,
            "name": "F#2",
            "ticks": 230880,
            "time": 246.666901,
            "velocity": 0.4330708661417323
          },
          {
            "duration": 0.032051312499987716,
            "durationTicks": 30,
            "midi": 82,
            "name": "A#5",
            "ticks": 230880,
            "time": 246.666901,
            "velocity": 0.48031496062992124
          },
          {
            "duration": 0.03205131250001614,
            "durationTicks": 30,
            "midi": 42,
            "name": "F#2",
            "ticks": 231120,
            "time": 246.92331149999998,
            "velocity": 0.6692913385826772
          },
          {
            "duration": 0.03205131250001614,
            "durationTicks": 30,
            "midi": 82,
            "name": "A#5",
            "ticks": 231120,
            "time": 246.92331149999998,
            "velocity": 0.44881889763779526
          },
          {
            "duration": 0.032051312499987716,
            "durationTicks": 30,
            "midi": 36,
            "name": "C2",
            "ticks": 231360,
            "time": 247.179722,
            "velocity": 0.8740157480314961
          },
          {
            "duration": 0.032051312499987716,
            "durationTicks": 30,
            "midi": 42,
            "name": "F#2",
            "ticks": 231360,
            "time": 247.179722,
            "velocity": 0.4094488188976378
          },
          {
            "duration": 0.032051312499987716,
            "durationTicks": 30,
            "midi": 82,
            "name": "A#5",
            "ticks": 231360,
            "time": 247.179722,
            "velocity": 0.5039370078740157
          },
          {
            "duration": 0.032051312499987716,
            "durationTicks": 30,
            "midi": 42,
            "name": "F#2",
            "ticks": 231600,
            "time": 247.43613249999999,
            "velocity": 0.6299212598425197
          },
          {
            "duration": 0.032051312499987716,
            "durationTicks": 30,
            "midi": 82,
            "name": "A#5",
            "ticks": 231600,
            "time": 247.43613249999999,
            "velocity": 0.41732283464566927
          },
          {
            "duration": 0.03205131250001614,
            "durationTicks": 30,
            "midi": 39,
            "name": "D#2",
            "ticks": 231840,
            "time": 247.69254299999997,
            "velocity": 0.9133858267716536
          },
          {
            "duration": 0.03205131250001614,
            "durationTicks": 30,
            "midi": 40,
            "name": "E2",
            "ticks": 231840,
            "time": 247.69254299999997,
            "velocity": 0.937007874015748
          },
          {
            "duration": 0.03205131250001614,
            "durationTicks": 30,
            "midi": 42,
            "name": "F#2",
            "ticks": 231840,
            "time": 247.69254299999997,
            "velocity": 0.4094488188976378
          },
          {
            "duration": 0.03205131250001614,
            "durationTicks": 30,
            "midi": 82,
            "name": "A#5",
            "ticks": 231840,
            "time": 247.69254299999997,
            "velocity": 0.5354330708661418
          },
          {
            "duration": 0.032051312499987716,
            "durationTicks": 30,
            "midi": 42,
            "name": "F#2",
            "ticks": 232080,
            "time": 247.9489535,
            "velocity": 0.6692913385826772
          },
          {
            "duration": 0.032051312499987716,
            "durationTicks": 30,
            "midi": 82,
            "name": "A#5",
            "ticks": 232080,
            "time": 247.9489535,
            "velocity": 0.5039370078740157
          },
          {
            "duration": 0.03205131250001614,
            "durationTicks": 30,
            "midi": 36,
            "name": "C2",
            "ticks": 232320,
            "time": 248.20536399999997,
            "velocity": 0.8740157480314961
          },
          {
            "duration": 0.03205131250001614,
            "durationTicks": 30,
            "midi": 42,
            "name": "F#2",
            "ticks": 232320,
            "time": 248.20536399999997,
            "velocity": 0.3779527559055118
          },
          {
            "duration": 0.03205131250001614,
            "durationTicks": 30,
            "midi": 82,
            "name": "A#5",
            "ticks": 232320,
            "time": 248.20536399999997,
            "velocity": 0.4881889763779528
          },
          {
            "duration": 0.032051312499987716,
            "durationTicks": 30,
            "midi": 42,
            "name": "F#2",
            "ticks": 232560,
            "time": 248.4617745,
            "velocity": 0.5905511811023622
          },
          {
            "duration": 0.032051312499987716,
            "durationTicks": 30,
            "midi": 82,
            "name": "A#5",
            "ticks": 232560,
            "time": 248.4617745,
            "velocity": 0.4094488188976378
          },
          {
            "duration": 0.03205131250001614,
            "durationTicks": 30,
            "midi": 39,
            "name": "D#2",
            "ticks": 232800,
            "time": 248.71818499999998,
            "velocity": 0.9133858267716536
          },
          {
            "duration": 0.03205131250001614,
            "durationTicks": 30,
            "midi": 40,
            "name": "E2",
            "ticks": 232800,
            "time": 248.71818499999998,
            "velocity": 0.9291338582677166
          },
          {
            "duration": 0.03205131250001614,
            "durationTicks": 30,
            "midi": 42,
            "name": "F#2",
            "ticks": 232800,
            "time": 248.71818499999998,
            "velocity": 0.47244094488188976
          },
          {
            "duration": 0.03205131250001614,
            "durationTicks": 30,
            "midi": 82,
            "name": "A#5",
            "ticks": 232800,
            "time": 248.71818499999998,
            "velocity": 0.5511811023622047
          },
          {
            "duration": 0.032051312499987716,
            "durationTicks": 30,
            "midi": 42,
            "name": "F#2",
            "ticks": 233040,
            "time": 248.9745955,
            "velocity": 0.6299212598425197
          },
          {
            "duration": 0.032051312499987716,
            "durationTicks": 30,
            "midi": 82,
            "name": "A#5",
            "ticks": 233040,
            "time": 248.9745955,
            "velocity": 0.4645669291338583
          },
          {
            "duration": 0.03205131250001614,
            "durationTicks": 30,
            "midi": 36,
            "name": "C2",
            "ticks": 233280,
            "time": 249.23100599999998,
            "velocity": 0.8740157480314961
          },
          {
            "duration": 0.03205131250001614,
            "durationTicks": 30,
            "midi": 42,
            "name": "F#2",
            "ticks": 233280,
            "time": 249.23100599999998,
            "velocity": 0.49606299212598426
          },
          {
            "duration": 0.03205131250001614,
            "durationTicks": 30,
            "midi": 82,
            "name": "A#5",
            "ticks": 233280,
            "time": 249.23100599999998,
            "velocity": 0.5354330708661418
          },
          {
            "duration": 0.032051312499987716,
            "durationTicks": 30,
            "midi": 42,
            "name": "F#2",
            "ticks": 233520,
            "time": 249.4874165,
            "velocity": 0.5905511811023622
          },
          {
            "duration": 0.032051312499987716,
            "durationTicks": 30,
            "midi": 82,
            "name": "A#5",
            "ticks": 233520,
            "time": 249.4874165,
            "velocity": 0.5196850393700787
          },
          {
            "duration": 0.03205131250001614,
            "durationTicks": 30,
            "midi": 39,
            "name": "D#2",
            "ticks": 233760,
            "time": 249.74382699999998,
            "velocity": 0.9133858267716536
          },
          {
            "duration": 0.03205131250001614,
            "durationTicks": 30,
            "midi": 40,
            "name": "E2",
            "ticks": 233760,
            "time": 249.74382699999998,
            "velocity": 0.937007874015748
          },
          {
            "duration": 0.03205131250001614,
            "durationTicks": 30,
            "midi": 42,
            "name": "F#2",
            "ticks": 233760,
            "time": 249.74382699999998,
            "velocity": 0.49606299212598426
          },
          {
            "duration": 0.03205131250001614,
            "durationTicks": 30,
            "midi": 82,
            "name": "A#5",
            "ticks": 233760,
            "time": 249.74382699999998,
            "velocity": 0.5826771653543307
          },
          {
            "duration": 0.032051312499987716,
            "durationTicks": 30,
            "midi": 42,
            "name": "F#2",
            "ticks": 234000,
            "time": 250.0002375,
            "velocity": 0.6692913385826772
          },
          {
            "duration": 0.032051312499987716,
            "durationTicks": 30,
            "midi": 82,
            "name": "A#5",
            "ticks": 234000,
            "time": 250.0002375,
            "velocity": 0.4409448818897638
          },
          {
            "duration": 0.032051312499987716,
            "durationTicks": 30,
            "midi": 36,
            "name": "C2",
            "ticks": 234240,
            "time": 250.25664799999998,
            "velocity": 0.8740157480314961
          },
          {
            "duration": 0.032051312499987716,
            "durationTicks": 30,
            "midi": 42,
            "name": "F#2",
            "ticks": 234240,
            "time": 250.25664799999998,
            "velocity": 0.47244094488188976
          },
          {
            "duration": 0.032051312499987716,
            "durationTicks": 30,
            "midi": 82,
            "name": "A#5",
            "ticks": 234240,
            "time": 250.25664799999998,
            "velocity": 0.5826771653543307
          },
          {
            "duration": 0.032051312499987716,
            "durationTicks": 30,
            "midi": 42,
            "name": "F#2",
            "ticks": 234480,
            "time": 250.5130585,
            "velocity": 0.5905511811023622
          },
          {
            "duration": 0.032051312499987716,
            "durationTicks": 30,
            "midi": 82,
            "name": "A#5",
            "ticks": 234480,
            "time": 250.5130585,
            "velocity": 0.5039370078740157
          },
          {
            "duration": 0.032051312499987716,
            "durationTicks": 30,
            "midi": 39,
            "name": "D#2",
            "ticks": 234720,
            "time": 250.769469,
            "velocity": 0.9133858267716536
          },
          {
            "duration": 0.032051312499987716,
            "durationTicks": 30,
            "midi": 40,
            "name": "E2",
            "ticks": 234720,
            "time": 250.769469,
            "velocity": 0.937007874015748
          },
          {
            "duration": 0.032051312499987716,
            "durationTicks": 30,
            "midi": 42,
            "name": "F#2",
            "ticks": 234720,
            "time": 250.769469,
            "velocity": 0.4330708661417323
          },
          {
            "duration": 0.032051312499987716,
            "durationTicks": 30,
            "midi": 82,
            "name": "A#5",
            "ticks": 234720,
            "time": 250.769469,
            "velocity": 0.5669291338582677
          },
          {
            "duration": 0.03205131250001614,
            "durationTicks": 30,
            "midi": 42,
            "name": "F#2",
            "ticks": 234960,
            "time": 251.02587949999997,
            "velocity": 0.6692913385826772
          },
          {
            "duration": 0.03205131250001614,
            "durationTicks": 30,
            "midi": 82,
            "name": "A#5",
            "ticks": 234960,
            "time": 251.02587949999997,
            "velocity": 0.5196850393700787
          },
          {
            "duration": 0.032051312499987716,
            "durationTicks": 30,
            "midi": 36,
            "name": "C2",
            "ticks": 235200,
            "time": 251.28229,
            "velocity": 0.8740157480314961
          },
          {
            "duration": 0.032051312499987716,
            "durationTicks": 30,
            "midi": 42,
            "name": "F#2",
            "ticks": 235200,
            "time": 251.28229,
            "velocity": 0.4094488188976378
          },
          {
            "duration": 0.032051312499987716,
            "durationTicks": 30,
            "midi": 82,
            "name": "A#5",
            "ticks": 235200,
            "time": 251.28229,
            "velocity": 0.4881889763779528
          },
          {
            "duration": 0.03205131250001614,
            "durationTicks": 30,
            "midi": 42,
            "name": "F#2",
            "ticks": 235440,
            "time": 251.53870049999998,
            "velocity": 0.6299212598425197
          },
          {
            "duration": 0.03205131250001614,
            "durationTicks": 30,
            "midi": 82,
            "name": "A#5",
            "ticks": 235440,
            "time": 251.53870049999998,
            "velocity": 0.5196850393700787
          },
          {
            "duration": 0.032051312499987716,
            "durationTicks": 30,
            "midi": 39,
            "name": "D#2",
            "ticks": 235680,
            "time": 251.795111,
            "velocity": 0.9133858267716536
          },
          {
            "duration": 0.032051312499987716,
            "durationTicks": 30,
            "midi": 40,
            "name": "E2",
            "ticks": 235680,
            "time": 251.795111,
            "velocity": 0.937007874015748
          },
          {
            "duration": 0.032051312499987716,
            "durationTicks": 30,
            "midi": 42,
            "name": "F#2",
            "ticks": 235680,
            "time": 251.795111,
            "velocity": 0.4094488188976378
          },
          {
            "duration": 0.032051312499987716,
            "durationTicks": 30,
            "midi": 82,
            "name": "A#5",
            "ticks": 235680,
            "time": 251.795111,
            "velocity": 0.5511811023622047
          },
          {
            "duration": 0.03205131250001614,
            "durationTicks": 30,
            "midi": 46,
            "name": "A#2",
            "ticks": 235920,
            "time": 252.05152149999998,
            "velocity": 0.8267716535433071
          },
          {
            "duration": 0.03205131250001614,
            "durationTicks": 30,
            "midi": 82,
            "name": "A#5",
            "ticks": 235920,
            "time": 252.05152149999998,
            "velocity": 0.5511811023622047
          },
          {
            "duration": 0.032051312499987716,
            "durationTicks": 30,
            "midi": 36,
            "name": "C2",
            "ticks": 236160,
            "time": 252.307932,
            "velocity": 0.8740157480314961
          },
          {
            "duration": 0.032051312499987716,
            "durationTicks": 30,
            "midi": 42,
            "name": "F#2",
            "ticks": 236160,
            "time": 252.307932,
            "velocity": 0.3779527559055118
          },
          {
            "duration": 0.032051312499987716,
            "durationTicks": 30,
            "midi": 82,
            "name": "A#5",
            "ticks": 236160,
            "time": 252.307932,
            "velocity": 0.5669291338582677
          },
          {
            "duration": 0.03205131250001614,
            "durationTicks": 30,
            "midi": 42,
            "name": "F#2",
            "ticks": 236400,
            "time": 252.56434249999998,
            "velocity": 0.5905511811023622
          },
          {
            "duration": 0.03205131250001614,
            "durationTicks": 30,
            "midi": 82,
            "name": "A#5",
            "ticks": 236400,
            "time": 252.56434249999998,
            "velocity": 0.5511811023622047
          },
          {
            "duration": 0.032051312499987716,
            "durationTicks": 30,
            "midi": 39,
            "name": "D#2",
            "ticks": 236640,
            "time": 252.820753,
            "velocity": 0.9133858267716536
          },
          {
            "duration": 0.032051312499987716,
            "durationTicks": 30,
            "midi": 40,
            "name": "E2",
            "ticks": 236640,
            "time": 252.820753,
            "velocity": 0.9291338582677166
          },
          {
            "duration": 0.032051312499987716,
            "durationTicks": 30,
            "midi": 42,
            "name": "F#2",
            "ticks": 236640,
            "time": 252.820753,
            "velocity": 0.47244094488188976
          },
          {
            "duration": 0.032051312499987716,
            "durationTicks": 30,
            "midi": 82,
            "name": "A#5",
            "ticks": 236640,
            "time": 252.820753,
            "velocity": 0.5354330708661418
          },
          {
            "duration": 0.03205131250001614,
            "durationTicks": 30,
            "midi": 42,
            "name": "F#2",
            "ticks": 236880,
            "time": 253.07716349999998,
            "velocity": 0.6299212598425197
          },
          {
            "duration": 0.03205131250001614,
            "durationTicks": 30,
            "midi": 82,
            "name": "A#5",
            "ticks": 236880,
            "time": 253.07716349999998,
            "velocity": 0.5511811023622047
          },
          {
            "duration": 0.032051312499987716,
            "durationTicks": 30,
            "midi": 36,
            "name": "C2",
            "ticks": 237120,
            "time": 253.333574,
            "velocity": 0.8740157480314961
          },
          {
            "duration": 0.032051312499987716,
            "durationTicks": 30,
            "midi": 42,
            "name": "F#2",
            "ticks": 237120,
            "time": 253.333574,
            "velocity": 0.49606299212598426
          },
          {
            "duration": 0.032051312499987716,
            "durationTicks": 30,
            "midi": 82,
            "name": "A#5",
            "ticks": 237120,
            "time": 253.333574,
            "velocity": 0.5511811023622047
          },
          {
            "duration": 0.032051312499987716,
            "durationTicks": 30,
            "midi": 42,
            "name": "F#2",
            "ticks": 237360,
            "time": 253.58998449999999,
            "velocity": 0.5905511811023622
          },
          {
            "duration": 0.032051312499987716,
            "durationTicks": 30,
            "midi": 82,
            "name": "A#5",
            "ticks": 237360,
            "time": 253.58998449999999,
            "velocity": 0.5826771653543307
          },
          {
            "duration": 0.03205131250001614,
            "durationTicks": 30,
            "midi": 39,
            "name": "D#2",
            "ticks": 237600,
            "time": 253.84639499999997,
            "velocity": 0.9133858267716536
          },
          {
            "duration": 0.03205131250001614,
            "durationTicks": 30,
            "midi": 40,
            "name": "E2",
            "ticks": 237600,
            "time": 253.84639499999997,
            "velocity": 0.937007874015748
          },
          {
            "duration": 0.03205131250001614,
            "durationTicks": 30,
            "midi": 42,
            "name": "F#2",
            "ticks": 237600,
            "time": 253.84639499999997,
            "velocity": 0.49606299212598426
          },
          {
            "duration": 0.03205131250001614,
            "durationTicks": 30,
            "midi": 82,
            "name": "A#5",
            "ticks": 237600,
            "time": 253.84639499999997,
            "velocity": 0.5354330708661418
          },
          {
            "duration": 0.032051312499987716,
            "durationTicks": 30,
            "midi": 42,
            "name": "F#2",
            "ticks": 237840,
            "time": 254.1028055,
            "velocity": 0.6692913385826772
          },
          {
            "duration": 0.032051312499987716,
            "durationTicks": 30,
            "midi": 82,
            "name": "A#5",
            "ticks": 237840,
            "time": 254.1028055,
            "velocity": 0.5511811023622047
          },
          {
            "duration": 0.03205131250001614,
            "durationTicks": 30,
            "midi": 36,
            "name": "C2",
            "ticks": 238080,
            "time": 254.35921599999998,
            "velocity": 0.8740157480314961
          },
          {
            "duration": 0.03205131250001614,
            "durationTicks": 30,
            "midi": 42,
            "name": "F#2",
            "ticks": 238080,
            "time": 254.35921599999998,
            "velocity": 0.47244094488188976
          },
          {
            "duration": 0.03205131250001614,
            "durationTicks": 30,
            "midi": 82,
            "name": "A#5",
            "ticks": 238080,
            "time": 254.35921599999998,
            "velocity": 0.5354330708661418
          },
          {
            "duration": 0.032051312499987716,
            "durationTicks": 30,
            "midi": 42,
            "name": "F#2",
            "ticks": 238320,
            "time": 254.6156265,
            "velocity": 0.5905511811023622
          },
          {
            "duration": 0.032051312499987716,
            "durationTicks": 30,
            "midi": 82,
            "name": "A#5",
            "ticks": 238320,
            "time": 254.6156265,
            "velocity": 0.48031496062992124
          },
          {
            "duration": 0.03205131250001614,
            "durationTicks": 30,
            "midi": 39,
            "name": "D#2",
            "ticks": 238560,
            "time": 254.87203699999998,
            "velocity": 0.9133858267716536
          },
          {
            "duration": 0.03205131250001614,
            "durationTicks": 30,
            "midi": 40,
            "name": "E2",
            "ticks": 238560,
            "time": 254.87203699999998,
            "velocity": 0.937007874015748
          },
          {
            "duration": 0.03205131250001614,
            "durationTicks": 30,
            "midi": 42,
            "name": "F#2",
            "ticks": 238560,
            "time": 254.87203699999998,
            "velocity": 0.4330708661417323
          },
          {
            "duration": 0.03205131250001614,
            "durationTicks": 30,
            "midi": 82,
            "name": "A#5",
            "ticks": 238560,
            "time": 254.87203699999998,
            "velocity": 0.48031496062992124
          },
          {
            "duration": 0.032051312499987716,
            "durationTicks": 30,
            "midi": 42,
            "name": "F#2",
            "ticks": 238800,
            "time": 255.1284475,
            "velocity": 0.6692913385826772
          },
          {
            "duration": 0.032051312499987716,
            "durationTicks": 30,
            "midi": 82,
            "name": "A#5",
            "ticks": 238800,
            "time": 255.1284475,
            "velocity": 0.44881889763779526
          },
          {
            "duration": 0.03205131250001614,
            "durationTicks": 30,
            "midi": 36,
            "name": "C2",
            "ticks": 239040,
            "time": 255.38485799999998,
            "velocity": 0.8740157480314961
          },
          {
            "duration": 0.03205131250001614,
            "durationTicks": 30,
            "midi": 42,
            "name": "F#2",
            "ticks": 239040,
            "time": 255.38485799999998,
            "velocity": 0.4094488188976378
          },
          {
            "duration": 0.03205131250001614,
            "durationTicks": 30,
            "midi": 82,
            "name": "A#5",
            "ticks": 239040,
            "time": 255.38485799999998,
            "velocity": 0.5039370078740157
          },
          {
            "duration": 0.032051312499987716,
            "durationTicks": 30,
            "midi": 42,
            "name": "F#2",
            "ticks": 239280,
            "time": 255.6412685,
            "velocity": 0.6299212598425197
          },
          {
            "duration": 0.032051312499987716,
            "durationTicks": 30,
            "midi": 82,
            "name": "A#5",
            "ticks": 239280,
            "time": 255.6412685,
            "velocity": 0.41732283464566927
          },
          {
            "duration": 0.03205131250001614,
            "durationTicks": 30,
            "midi": 39,
            "name": "D#2",
            "ticks": 239520,
            "time": 255.89767899999998,
            "velocity": 0.9133858267716536
          },
          {
            "duration": 0.03205131250001614,
            "durationTicks": 30,
            "midi": 40,
            "name": "E2",
            "ticks": 239520,
            "time": 255.89767899999998,
            "velocity": 0.937007874015748
          },
          {
            "duration": 0.03205131250001614,
            "durationTicks": 30,
            "midi": 42,
            "name": "F#2",
            "ticks": 239520,
            "time": 255.89767899999998,
            "velocity": 0.4094488188976378
          },
          {
            "duration": 0.03205131250001614,
            "durationTicks": 30,
            "midi": 82,
            "name": "A#5",
            "ticks": 239520,
            "time": 255.89767899999998,
            "velocity": 0.5354330708661418
          },
          {
            "duration": 0.03205131250001614,
            "durationTicks": 30,
            "midi": 42,
            "name": "F#2",
            "ticks": 239760,
            "time": 256.1540895,
            "velocity": 0.6692913385826772
          },
          {
            "duration": 0.03205131250001614,
            "durationTicks": 30,
            "midi": 82,
            "name": "A#5",
            "ticks": 239760,
            "time": 256.1540895,
            "velocity": 0.5039370078740157
          },
          {
            "duration": 0.032051312499959295,
            "durationTicks": 30,
            "midi": 36,
            "name": "C2",
            "ticks": 240000,
            "time": 256.4105,
            "velocity": 0.8740157480314961
          },
          {
            "duration": 0.032051312499959295,
            "durationTicks": 30,
            "midi": 42,
            "name": "F#2",
            "ticks": 240000,
            "time": 256.4105,
            "velocity": 0.3779527559055118
          },
          {
            "duration": 0.032051312499959295,
            "durationTicks": 30,
            "midi": 82,
            "name": "A#5",
            "ticks": 240000,
            "time": 256.4105,
            "velocity": 0.4881889763779528
          },
          {
            "duration": 0.03205131250001614,
            "durationTicks": 30,
            "midi": 42,
            "name": "F#2",
            "ticks": 240240,
            "time": 256.6669105,
            "velocity": 0.5905511811023622
          },
          {
            "duration": 0.03205131250001614,
            "durationTicks": 30,
            "midi": 82,
            "name": "A#5",
            "ticks": 240240,
            "time": 256.6669105,
            "velocity": 0.4094488188976378
          },
          {
            "duration": 0.03205131250001614,
            "durationTicks": 30,
            "midi": 39,
            "name": "D#2",
            "ticks": 240480,
            "time": 256.923321,
            "velocity": 0.9133858267716536
          },
          {
            "duration": 0.03205131250001614,
            "durationTicks": 30,
            "midi": 40,
            "name": "E2",
            "ticks": 240480,
            "time": 256.923321,
            "velocity": 0.9291338582677166
          },
          {
            "duration": 0.03205131250001614,
            "durationTicks": 30,
            "midi": 42,
            "name": "F#2",
            "ticks": 240480,
            "time": 256.923321,
            "velocity": 0.47244094488188976
          },
          {
            "duration": 0.03205131250001614,
            "durationTicks": 30,
            "midi": 82,
            "name": "A#5",
            "ticks": 240480,
            "time": 256.923321,
            "velocity": 0.5511811023622047
          },
          {
            "duration": 0.032051312499959295,
            "durationTicks": 30,
            "midi": 42,
            "name": "F#2",
            "ticks": 240720,
            "time": 257.1797315,
            "velocity": 0.6299212598425197
          },
          {
            "duration": 0.032051312499959295,
            "durationTicks": 30,
            "midi": 82,
            "name": "A#5",
            "ticks": 240720,
            "time": 257.1797315,
            "velocity": 0.4645669291338583
          },
          {
            "duration": 0.03205131250001614,
            "durationTicks": 30,
            "midi": 36,
            "name": "C2",
            "ticks": 240960,
            "time": 257.43614199999996,
            "velocity": 0.8740157480314961
          },
          {
            "duration": 0.03205131250001614,
            "durationTicks": 30,
            "midi": 42,
            "name": "F#2",
            "ticks": 240960,
            "time": 257.43614199999996,
            "velocity": 0.49606299212598426
          },
          {
            "duration": 0.03205131250001614,
            "durationTicks": 30,
            "midi": 82,
            "name": "A#5",
            "ticks": 240960,
            "time": 257.43614199999996,
            "velocity": 0.5354330708661418
          },
          {
            "duration": 0.03205131250001614,
            "durationTicks": 30,
            "midi": 42,
            "name": "F#2",
            "ticks": 241200,
            "time": 257.6925525,
            "velocity": 0.5905511811023622
          },
          {
            "duration": 0.03205131250001614,
            "durationTicks": 30,
            "midi": 82,
            "name": "A#5",
            "ticks": 241200,
            "time": 257.6925525,
            "velocity": 0.5196850393700787
          },
          {
            "duration": 0.03205131250001614,
            "durationTicks": 30,
            "midi": 39,
            "name": "D#2",
            "ticks": 241440,
            "time": 257.948963,
            "velocity": 0.9133858267716536
          },
          {
            "duration": 0.03205131250001614,
            "durationTicks": 30,
            "midi": 40,
            "name": "E2",
            "ticks": 241440,
            "time": 257.948963,
            "velocity": 0.937007874015748
          },
          {
            "duration": 0.03205131250001614,
            "durationTicks": 30,
            "midi": 42,
            "name": "F#2",
            "ticks": 241440,
            "time": 257.948963,
            "velocity": 0.49606299212598426
          },
          {
            "duration": 0.03205131250001614,
            "durationTicks": 30,
            "midi": 82,
            "name": "A#5",
            "ticks": 241440,
            "time": 257.948963,
            "velocity": 0.5826771653543307
          },
          {
            "duration": 0.032051312499959295,
            "durationTicks": 30,
            "midi": 42,
            "name": "F#2",
            "ticks": 241680,
            "time": 258.2053735,
            "velocity": 0.6692913385826772
          },
          {
            "duration": 0.032051312499959295,
            "durationTicks": 30,
            "midi": 82,
            "name": "A#5",
            "ticks": 241680,
            "time": 258.2053735,
            "velocity": 0.4409448818897638
          },
          {
            "duration": 0.03205131250001614,
            "durationTicks": 30,
            "midi": 36,
            "name": "C2",
            "ticks": 241920,
            "time": 258.46178399999997,
            "velocity": 0.8740157480314961
          },
          {
            "duration": 0.03205131250001614,
            "durationTicks": 30,
            "midi": 42,
            "name": "F#2",
            "ticks": 241920,
            "time": 258.46178399999997,
            "velocity": 0.47244094488188976
          },
          {
            "duration": 0.03205131250001614,
            "durationTicks": 30,
            "midi": 82,
            "name": "A#5",
            "ticks": 241920,
            "time": 258.46178399999997,
            "velocity": 0.5826771653543307
          },
          {
            "duration": 0.03205131250001614,
            "durationTicks": 30,
            "midi": 42,
            "name": "F#2",
            "ticks": 242160,
            "time": 258.7181945,
            "velocity": 0.5905511811023622
          },
          {
            "duration": 0.03205131250001614,
            "durationTicks": 30,
            "midi": 82,
            "name": "A#5",
            "ticks": 242160,
            "time": 258.7181945,
            "velocity": 0.5039370078740157
          },
          {
            "duration": 0.03205131250001614,
            "durationTicks": 30,
            "midi": 39,
            "name": "D#2",
            "ticks": 242400,
            "time": 258.974605,
            "velocity": 0.9133858267716536
          },
          {
            "duration": 0.03205131250001614,
            "durationTicks": 30,
            "midi": 40,
            "name": "E2",
            "ticks": 242400,
            "time": 258.974605,
            "velocity": 0.937007874015748
          },
          {
            "duration": 0.03205131250001614,
            "durationTicks": 30,
            "midi": 42,
            "name": "F#2",
            "ticks": 242400,
            "time": 258.974605,
            "velocity": 0.4330708661417323
          },
          {
            "duration": 0.03205131250001614,
            "durationTicks": 30,
            "midi": 82,
            "name": "A#5",
            "ticks": 242400,
            "time": 258.974605,
            "velocity": 0.5669291338582677
          },
          {
            "duration": 0.032051312499959295,
            "durationTicks": 30,
            "midi": 42,
            "name": "F#2",
            "ticks": 242640,
            "time": 259.2310155,
            "velocity": 0.6692913385826772
          },
          {
            "duration": 0.032051312499959295,
            "durationTicks": 30,
            "midi": 82,
            "name": "A#5",
            "ticks": 242640,
            "time": 259.2310155,
            "velocity": 0.5196850393700787
          },
          {
            "duration": 0.03205131250001614,
            "durationTicks": 30,
            "midi": 36,
            "name": "C2",
            "ticks": 242880,
            "time": 259.48742599999997,
            "velocity": 0.8740157480314961
          },
          {
            "duration": 0.03205131250001614,
            "durationTicks": 30,
            "midi": 42,
            "name": "F#2",
            "ticks": 242880,
            "time": 259.48742599999997,
            "velocity": 0.4094488188976378
          },
          {
            "duration": 0.03205131250001614,
            "durationTicks": 30,
            "midi": 82,
            "name": "A#5",
            "ticks": 242880,
            "time": 259.48742599999997,
            "velocity": 0.4881889763779528
          },
          {
            "duration": 0.03205131250001614,
            "durationTicks": 30,
            "midi": 42,
            "name": "F#2",
            "ticks": 243120,
            "time": 259.7438365,
            "velocity": 0.6299212598425197
          },
          {
            "duration": 0.03205131250001614,
            "durationTicks": 30,
            "midi": 82,
            "name": "A#5",
            "ticks": 243120,
            "time": 259.7438365,
            "velocity": 0.5196850393700787
          },
          {
            "duration": 0.03205131250001614,
            "durationTicks": 30,
            "midi": 45,
            "name": "A2",
            "ticks": 243240,
            "time": 259.87204175,
            "velocity": 0.8110236220472441
          },
          {
            "duration": 0.032051312499959295,
            "durationTicks": 30,
            "midi": 39,
            "name": "D#2",
            "ticks": 243360,
            "time": 260.000247,
            "velocity": 0.9133858267716536
          },
          {
            "duration": 0.032051312499959295,
            "durationTicks": 30,
            "midi": 40,
            "name": "E2",
            "ticks": 243360,
            "time": 260.000247,
            "velocity": 0.937007874015748
          },
          {
            "duration": 0.032051312499959295,
            "durationTicks": 30,
            "midi": 42,
            "name": "F#2",
            "ticks": 243360,
            "time": 260.000247,
            "velocity": 0.4094488188976378
          },
          {
            "duration": 0.032051312499959295,
            "durationTicks": 30,
            "midi": 43,
            "name": "G2",
            "ticks": 243360,
            "time": 260.000247,
            "velocity": 0.8582677165354331
          },
          {
            "duration": 0.032051312499959295,
            "durationTicks": 30,
            "midi": 82,
            "name": "A#5",
            "ticks": 243360,
            "time": 260.000247,
            "velocity": 0.5511811023622047
          },
          {
            "duration": 0.03205131250001614,
            "durationTicks": 30,
            "midi": 46,
            "name": "A#2",
            "ticks": 243600,
            "time": 260.25665749999996,
            "velocity": 0.8267716535433071
          },
          {
            "duration": 0.03205131250001614,
            "durationTicks": 30,
            "midi": 82,
            "name": "A#5",
            "ticks": 243600,
            "time": 260.25665749999996,
            "velocity": 0.5511811023622047
          },
          {
            "duration": 0.03205131250001614,
            "durationTicks": 30,
            "midi": 36,
            "name": "C2",
            "ticks": 243840,
            "time": 260.513068,
            "velocity": 0.8740157480314961
          },
          {
            "duration": 0.03205131250001614,
            "durationTicks": 30,
            "midi": 42,
            "name": "F#2",
            "ticks": 243840,
            "time": 260.513068,
            "velocity": 0.3779527559055118
          },
          {
            "duration": 0.03205131250001614,
            "durationTicks": 30,
            "midi": 82,
            "name": "A#5",
            "ticks": 243840,
            "time": 260.513068,
            "velocity": 0.5669291338582677
          },
          {
            "duration": 0.03205131250001614,
            "durationTicks": 30,
            "midi": 42,
            "name": "F#2",
            "ticks": 244080,
            "time": 260.7694785,
            "velocity": 0.5905511811023622
          },
          {
            "duration": 0.03205131250001614,
            "durationTicks": 30,
            "midi": 82,
            "name": "A#5",
            "ticks": 244080,
            "time": 260.7694785,
            "velocity": 0.5511811023622047
          },
          {
            "duration": 0.032051312499959295,
            "durationTicks": 30,
            "midi": 39,
            "name": "D#2",
            "ticks": 244320,
            "time": 261.025889,
            "velocity": 0.9133858267716536
          },
          {
            "duration": 0.032051312499959295,
            "durationTicks": 30,
            "midi": 40,
            "name": "E2",
            "ticks": 244320,
            "time": 261.025889,
            "velocity": 0.9291338582677166
          },
          {
            "duration": 0.032051312499959295,
            "durationTicks": 30,
            "midi": 42,
            "name": "F#2",
            "ticks": 244320,
            "time": 261.025889,
            "velocity": 0.47244094488188976
          },
          {
            "duration": 0.032051312499959295,
            "durationTicks": 30,
            "midi": 82,
            "name": "A#5",
            "ticks": 244320,
            "time": 261.025889,
            "velocity": 0.5354330708661418
          },
          {
            "duration": 0.03205131250001614,
            "durationTicks": 30,
            "midi": 42,
            "name": "F#2",
            "ticks": 244560,
            "time": 261.28229949999997,
            "velocity": 0.6299212598425197
          },
          {
            "duration": 0.03205131250001614,
            "durationTicks": 30,
            "midi": 82,
            "name": "A#5",
            "ticks": 244560,
            "time": 261.28229949999997,
            "velocity": 0.5511811023622047
          },
          {
            "duration": 0.03205131250001614,
            "durationTicks": 30,
            "midi": 36,
            "name": "C2",
            "ticks": 244800,
            "time": 261.53871,
            "velocity": 0.8740157480314961
          },
          {
            "duration": 0.03205131250001614,
            "durationTicks": 30,
            "midi": 42,
            "name": "F#2",
            "ticks": 244800,
            "time": 261.53871,
            "velocity": 0.49606299212598426
          },
          {
            "duration": 0.03205131250001614,
            "durationTicks": 30,
            "midi": 82,
            "name": "A#5",
            "ticks": 244800,
            "time": 261.53871,
            "velocity": 0.5511811023622047
          },
          {
            "duration": 0.03205131250001614,
            "durationTicks": 30,
            "midi": 42,
            "name": "F#2",
            "ticks": 245040,
            "time": 261.7951205,
            "velocity": 0.5905511811023622
          },
          {
            "duration": 0.03205131250001614,
            "durationTicks": 30,
            "midi": 82,
            "name": "A#5",
            "ticks": 245040,
            "time": 261.7951205,
            "velocity": 0.5826771653543307
          },
          {
            "duration": 0.032051312499959295,
            "durationTicks": 30,
            "midi": 39,
            "name": "D#2",
            "ticks": 245280,
            "time": 262.051531,
            "velocity": 0.9133858267716536
          },
          {
            "duration": 0.032051312499959295,
            "durationTicks": 30,
            "midi": 40,
            "name": "E2",
            "ticks": 245280,
            "time": 262.051531,
            "velocity": 0.937007874015748
          },
          {
            "duration": 0.032051312499959295,
            "durationTicks": 30,
            "midi": 42,
            "name": "F#2",
            "ticks": 245280,
            "time": 262.051531,
            "velocity": 0.49606299212598426
          },
          {
            "duration": 0.032051312499959295,
            "durationTicks": 30,
            "midi": 82,
            "name": "A#5",
            "ticks": 245280,
            "time": 262.051531,
            "velocity": 0.5354330708661418
          },
          {
            "duration": 0.03205131250001614,
            "durationTicks": 30,
            "midi": 42,
            "name": "F#2",
            "ticks": 245520,
            "time": 262.30794149999997,
            "velocity": 0.6299212598425197
          },
          {
            "duration": 0.03205131250001614,
            "durationTicks": 30,
            "midi": 82,
            "name": "A#5",
            "ticks": 245520,
            "time": 262.30794149999997,
            "velocity": 0.5511811023622047
          },
          {
            "duration": 0.03205131250001614,
            "durationTicks": 30,
            "midi": 36,
            "name": "C2",
            "ticks": 245760,
            "time": 262.564352,
            "velocity": 0.8740157480314961
          },
          {
            "duration": 0.03205131250001614,
            "durationTicks": 30,
            "midi": 42,
            "name": "F#2",
            "ticks": 245760,
            "time": 262.564352,
            "velocity": 0.47244094488188976
          },
          {
            "duration": 0.03205131250001614,
            "durationTicks": 30,
            "midi": 82,
            "name": "A#5",
            "ticks": 245760,
            "time": 262.564352,
            "velocity": 0.5354330708661418
          },
          {
            "duration": 0.032051312499959295,
            "durationTicks": 30,
            "midi": 42,
            "name": "F#2",
            "ticks": 246000,
            "time": 262.8207625,
            "velocity": 0.5905511811023622
          },
          {
            "duration": 0.032051312499959295,
            "durationTicks": 30,
            "midi": 82,
            "name": "A#5",
            "ticks": 246000,
            "time": 262.8207625,
            "velocity": 0.48031496062992124
          },
          {
            "duration": 0.03205131250001614,
            "durationTicks": 30,
            "midi": 39,
            "name": "D#2",
            "ticks": 246240,
            "time": 263.07717299999996,
            "velocity": 0.9133858267716536
          },
          {
            "duration": 0.03205131250001614,
            "durationTicks": 30,
            "midi": 40,
            "name": "E2",
            "ticks": 246240,
            "time": 263.07717299999996,
            "velocity": 0.937007874015748
          },
          {
            "duration": 0.03205131250001614,
            "durationTicks": 30,
            "midi": 42,
            "name": "F#2",
            "ticks": 246240,
            "time": 263.07717299999996,
            "velocity": 0.4330708661417323
          },
          {
            "duration": 0.03205131250001614,
            "durationTicks": 30,
            "midi": 82,
            "name": "A#5",
            "ticks": 246240,
            "time": 263.07717299999996,
            "velocity": 0.48031496062992124
          },
          {
            "duration": 0.03205131250001614,
            "durationTicks": 30,
            "midi": 42,
            "name": "F#2",
            "ticks": 246480,
            "time": 263.3335835,
            "velocity": 0.6692913385826772
          },
          {
            "duration": 0.03205131250001614,
            "durationTicks": 30,
            "midi": 82,
            "name": "A#5",
            "ticks": 246480,
            "time": 263.3335835,
            "velocity": 0.44881889763779526
          },
          {
            "duration": 0.03205131250001614,
            "durationTicks": 30,
            "midi": 36,
            "name": "C2",
            "ticks": 246720,
            "time": 263.589994,
            "velocity": 0.8740157480314961
          },
          {
            "duration": 0.03205131250001614,
            "durationTicks": 30,
            "midi": 42,
            "name": "F#2",
            "ticks": 246720,
            "time": 263.589994,
            "velocity": 0.4094488188976378
          },
          {
            "duration": 0.03205131250001614,
            "durationTicks": 30,
            "midi": 82,
            "name": "A#5",
            "ticks": 246720,
            "time": 263.589994,
            "velocity": 0.5039370078740157
          },
          {
            "duration": 0.032051312499959295,
            "durationTicks": 30,
            "midi": 42,
            "name": "F#2",
            "ticks": 246960,
            "time": 263.8464045,
            "velocity": 0.6299212598425197
          },
          {
            "duration": 0.032051312499959295,
            "durationTicks": 30,
            "midi": 82,
            "name": "A#5",
            "ticks": 246960,
            "time": 263.8464045,
            "velocity": 0.41732283464566927
          },
          {
            "duration": 0.032051312499959295,
            "durationTicks": 30,
            "midi": 45,
            "name": "A2",
            "ticks": 247080,
            "time": 263.97460975,
            "velocity": 0.8110236220472441
          },
          {
            "duration": 0.03205131250001614,
            "durationTicks": 30,
            "midi": 39,
            "name": "D#2",
            "ticks": 247200,
            "time": 264.10281499999996,
            "velocity": 0.9133858267716536
          },
          {
            "duration": 0.03205131250001614,
            "durationTicks": 30,
            "midi": 40,
            "name": "E2",
            "ticks": 247200,
            "time": 264.10281499999996,
            "velocity": 0.937007874015748
          },
          {
            "duration": 0.03205131250001614,
            "durationTicks": 30,
            "midi": 42,
            "name": "F#2",
            "ticks": 247200,
            "time": 264.10281499999996,
            "velocity": 0.4094488188976378
          },
          {
            "duration": 0.03205131250001614,
            "durationTicks": 30,
            "midi": 43,
            "name": "G2",
            "ticks": 247200,
            "time": 264.10281499999996,
            "velocity": 0.8582677165354331
          },
          {
            "duration": 0.03205131250001614,
            "durationTicks": 30,
            "midi": 82,
            "name": "A#5",
            "ticks": 247200,
            "time": 264.10281499999996,
            "velocity": 0.5354330708661418
          },
          {
            "duration": 0.03205131250001614,
            "durationTicks": 30,
            "midi": 42,
            "name": "F#2",
            "ticks": 247440,
            "time": 264.3592255,
            "velocity": 0.6692913385826772
          },
          {
            "duration": 0.03205131250001614,
            "durationTicks": 30,
            "midi": 82,
            "name": "A#5",
            "ticks": 247440,
            "time": 264.3592255,
            "velocity": 0.5039370078740157
          },
          {
            "duration": 0.03205131250001614,
            "durationTicks": 30,
            "midi": 36,
            "name": "C2",
            "ticks": 247680,
            "time": 264.615636,
            "velocity": 0.8740157480314961
          },
          {
            "duration": 0.03205131250001614,
            "durationTicks": 30,
            "midi": 42,
            "name": "F#2",
            "ticks": 247680,
            "time": 264.615636,
            "velocity": 0.3779527559055118
          },
          {
            "duration": 0.03205131250001614,
            "durationTicks": 30,
            "midi": 82,
            "name": "A#5",
            "ticks": 247680,
            "time": 264.615636,
            "velocity": 0.4881889763779528
          },
          {
            "duration": 0.032051312499959295,
            "durationTicks": 30,
            "midi": 42,
            "name": "F#2",
            "ticks": 247920,
            "time": 264.8720465,
            "velocity": 0.5905511811023622
          },
          {
            "duration": 0.032051312499959295,
            "durationTicks": 30,
            "midi": 82,
            "name": "A#5",
            "ticks": 247920,
            "time": 264.8720465,
            "velocity": 0.4094488188976378
          },
          {
            "duration": 0.03205131250001614,
            "durationTicks": 30,
            "midi": 39,
            "name": "D#2",
            "ticks": 248160,
            "time": 265.12845699999997,
            "velocity": 0.9133858267716536
          },
          {
            "duration": 0.03205131250001614,
            "durationTicks": 30,
            "midi": 40,
            "name": "E2",
            "ticks": 248160,
            "time": 265.12845699999997,
            "velocity": 0.9291338582677166
          },
          {
            "duration": 0.03205131250001614,
            "durationTicks": 30,
            "midi": 42,
            "name": "F#2",
            "ticks": 248160,
            "time": 265.12845699999997,
            "velocity": 0.47244094488188976
          },
          {
            "duration": 0.03205131250001614,
            "durationTicks": 30,
            "midi": 82,
            "name": "A#5",
            "ticks": 248160,
            "time": 265.12845699999997,
            "velocity": 0.5511811023622047
          },
          {
            "duration": 0.03205131250001614,
            "durationTicks": 30,
            "midi": 42,
            "name": "F#2",
            "ticks": 248400,
            "time": 265.3848675,
            "velocity": 0.6299212598425197
          },
          {
            "duration": 0.03205131250001614,
            "durationTicks": 30,
            "midi": 82,
            "name": "A#5",
            "ticks": 248400,
            "time": 265.3848675,
            "velocity": 0.4645669291338583
          },
          {
            "duration": 0.032051312499959295,
            "durationTicks": 30,
            "midi": 36,
            "name": "C2",
            "ticks": 248640,
            "time": 265.641278,
            "velocity": 0.8740157480314961
          },
          {
            "duration": 0.032051312499959295,
            "durationTicks": 30,
            "midi": 42,
            "name": "F#2",
            "ticks": 248640,
            "time": 265.641278,
            "velocity": 0.49606299212598426
          },
          {
            "duration": 0.032051312499959295,
            "durationTicks": 30,
            "midi": 82,
            "name": "A#5",
            "ticks": 248640,
            "time": 265.641278,
            "velocity": 0.5354330708661418
          },
          {
            "duration": 0.03205131250001614,
            "durationTicks": 30,
            "midi": 42,
            "name": "F#2",
            "ticks": 248880,
            "time": 265.89768849999996,
            "velocity": 0.5905511811023622
          },
          {
            "duration": 0.03205131250001614,
            "durationTicks": 30,
            "midi": 82,
            "name": "A#5",
            "ticks": 248880,
            "time": 265.89768849999996,
            "velocity": 0.5196850393700787
          },
          {
            "duration": 0.03205131250001614,
            "durationTicks": 30,
            "midi": 39,
            "name": "D#2",
            "ticks": 249120,
            "time": 266.154099,
            "velocity": 0.9133858267716536
          },
          {
            "duration": 0.03205131250001614,
            "durationTicks": 30,
            "midi": 40,
            "name": "E2",
            "ticks": 249120,
            "time": 266.154099,
            "velocity": 0.937007874015748
          },
          {
            "duration": 0.03205131250001614,
            "durationTicks": 30,
            "midi": 42,
            "name": "F#2",
            "ticks": 249120,
            "time": 266.154099,
            "velocity": 0.49606299212598426
          },
          {
            "duration": 0.03205131250001614,
            "durationTicks": 30,
            "midi": 82,
            "name": "A#5",
            "ticks": 249120,
            "time": 266.154099,
            "velocity": 0.5826771653543307
          },
          {
            "duration": 0.03205131250001614,
            "durationTicks": 30,
            "midi": 42,
            "name": "F#2",
            "ticks": 249360,
            "time": 266.4105095,
            "velocity": 0.6692913385826772
          },
          {
            "duration": 0.03205131250001614,
            "durationTicks": 30,
            "midi": 82,
            "name": "A#5",
            "ticks": 249360,
            "time": 266.4105095,
            "velocity": 0.4409448818897638
          },
          {
            "duration": 0.032051312499959295,
            "durationTicks": 30,
            "midi": 36,
            "name": "C2",
            "ticks": 249600,
            "time": 266.66692,
            "velocity": 0.8740157480314961
          },
          {
            "duration": 0.032051312499959295,
            "durationTicks": 30,
            "midi": 42,
            "name": "F#2",
            "ticks": 249600,
            "time": 266.66692,
            "velocity": 0.47244094488188976
          },
          {
            "duration": 0.032051312499959295,
            "durationTicks": 30,
            "midi": 82,
            "name": "A#5",
            "ticks": 249600,
            "time": 266.66692,
            "velocity": 0.5826771653543307
          },
          {
            "duration": 0.03205131250001614,
            "durationTicks": 30,
            "midi": 42,
            "name": "F#2",
            "ticks": 249840,
            "time": 266.92333049999996,
            "velocity": 0.5905511811023622
          },
          {
            "duration": 0.03205131250001614,
            "durationTicks": 30,
            "midi": 82,
            "name": "A#5",
            "ticks": 249840,
            "time": 266.92333049999996,
            "velocity": 0.5039370078740157
          },
          {
            "duration": 0.03205131250001614,
            "durationTicks": 30,
            "midi": 39,
            "name": "D#2",
            "ticks": 250080,
            "time": 267.179741,
            "velocity": 0.9133858267716536
          },
          {
            "duration": 0.03205131250001614,
            "durationTicks": 30,
            "midi": 40,
            "name": "E2",
            "ticks": 250080,
            "time": 267.179741,
            "velocity": 0.937007874015748
          },
          {
            "duration": 0.03205131250001614,
            "durationTicks": 30,
            "midi": 42,
            "name": "F#2",
            "ticks": 250080,
            "time": 267.179741,
            "velocity": 0.4330708661417323
          },
          {
            "duration": 0.03205131250001614,
            "durationTicks": 30,
            "midi": 82,
            "name": "A#5",
            "ticks": 250080,
            "time": 267.179741,
            "velocity": 0.5669291338582677
          },
          {
            "duration": 0.03205131250001614,
            "durationTicks": 30,
            "midi": 42,
            "name": "F#2",
            "ticks": 250320,
            "time": 267.4361515,
            "velocity": 0.6692913385826772
          },
          {
            "duration": 0.03205131250001614,
            "durationTicks": 30,
            "midi": 82,
            "name": "A#5",
            "ticks": 250320,
            "time": 267.4361515,
            "velocity": 0.5196850393700787
          },
          {
            "duration": 0.032051312499959295,
            "durationTicks": 30,
            "midi": 36,
            "name": "C2",
            "ticks": 250560,
            "time": 267.692562,
            "velocity": 0.8740157480314961
          },
          {
            "duration": 0.032051312499959295,
            "durationTicks": 30,
            "midi": 42,
            "name": "F#2",
            "ticks": 250560,
            "time": 267.692562,
            "velocity": 0.4094488188976378
          },
          {
            "duration": 0.032051312499959295,
            "durationTicks": 30,
            "midi": 82,
            "name": "A#5",
            "ticks": 250560,
            "time": 267.692562,
            "velocity": 0.4881889763779528
          },
          {
            "duration": 0.03205131250001614,
            "durationTicks": 30,
            "midi": 42,
            "name": "F#2",
            "ticks": 250800,
            "time": 267.94897249999997,
            "velocity": 0.6299212598425197
          },
          {
            "duration": 0.03205131250001614,
            "durationTicks": 30,
            "midi": 82,
            "name": "A#5",
            "ticks": 250800,
            "time": 267.94897249999997,
            "velocity": 0.5196850393700787
          },
          {
            "duration": 0.03205131250001614,
            "durationTicks": 30,
            "midi": 45,
            "name": "A2",
            "ticks": 250920,
            "time": 268.07717775,
            "velocity": 0.8110236220472441
          },
          {
            "duration": 0.03205131250001614,
            "durationTicks": 30,
            "midi": 39,
            "name": "D#2",
            "ticks": 251040,
            "time": 268.205383,
            "velocity": 0.9133858267716536
          },
          {
            "duration": 0.03205131250001614,
            "durationTicks": 30,
            "midi": 40,
            "name": "E2",
            "ticks": 251040,
            "time": 268.205383,
            "velocity": 0.937007874015748
          },
          {
            "duration": 0.03205131250001614,
            "durationTicks": 30,
            "midi": 42,
            "name": "F#2",
            "ticks": 251040,
            "time": 268.205383,
            "velocity": 0.4094488188976378
          },
          {
            "duration": 0.03205131250001614,
            "durationTicks": 30,
            "midi": 43,
            "name": "G2",
            "ticks": 251040,
            "time": 268.205383,
            "velocity": 0.8582677165354331
          },
          {
            "duration": 0.03205131250001614,
            "durationTicks": 30,
            "midi": 82,
            "name": "A#5",
            "ticks": 251040,
            "time": 268.205383,
            "velocity": 0.5511811023622047
          },
          {
            "duration": 0.032051312499959295,
            "durationTicks": 30,
            "midi": 46,
            "name": "A#2",
            "ticks": 251280,
            "time": 268.4617935,
            "velocity": 0.8267716535433071
          },
          {
            "duration": 0.032051312499959295,
            "durationTicks": 30,
            "midi": 82,
            "name": "A#5",
            "ticks": 251280,
            "time": 268.4617935,
            "velocity": 0.5511811023622047
          },
          {
            "duration": 0.03205131250001614,
            "durationTicks": 30,
            "midi": 36,
            "name": "C2",
            "ticks": 251520,
            "time": 268.71820399999996,
            "velocity": 0.8740157480314961
          },
          {
            "duration": 0.03205131250001614,
            "durationTicks": 30,
            "midi": 42,
            "name": "F#2",
            "ticks": 251520,
            "time": 268.71820399999996,
            "velocity": 0.3779527559055118
          },
          {
            "duration": 0.03205131250001614,
            "durationTicks": 30,
            "midi": 82,
            "name": "A#5",
            "ticks": 251520,
            "time": 268.71820399999996,
            "velocity": 0.5669291338582677
          },
          {
            "duration": 0.03205131250001614,
            "durationTicks": 30,
            "midi": 42,
            "name": "F#2",
            "ticks": 251760,
            "time": 268.9746145,
            "velocity": 0.5905511811023622
          },
          {
            "duration": 0.03205131250001614,
            "durationTicks": 30,
            "midi": 82,
            "name": "A#5",
            "ticks": 251760,
            "time": 268.9746145,
            "velocity": 0.5511811023622047
          },
          {
            "duration": 0.03205131250001614,
            "durationTicks": 30,
            "midi": 39,
            "name": "D#2",
            "ticks": 252000,
            "time": 269.231025,
            "velocity": 0.9133858267716536
          },
          {
            "duration": 0.03205131250001614,
            "durationTicks": 30,
            "midi": 40,
            "name": "E2",
            "ticks": 252000,
            "time": 269.231025,
            "velocity": 0.9291338582677166
          },
          {
            "duration": 0.03205131250001614,
            "durationTicks": 30,
            "midi": 42,
            "name": "F#2",
            "ticks": 252000,
            "time": 269.231025,
            "velocity": 0.47244094488188976
          },
          {
            "duration": 0.03205131250001614,
            "durationTicks": 30,
            "midi": 82,
            "name": "A#5",
            "ticks": 252000,
            "time": 269.231025,
            "velocity": 0.5354330708661418
          },
          {
            "duration": 0.032051312499959295,
            "durationTicks": 30,
            "midi": 42,
            "name": "F#2",
            "ticks": 252240,
            "time": 269.4874355,
            "velocity": 0.6299212598425197
          },
          {
            "duration": 0.032051312499959295,
            "durationTicks": 30,
            "midi": 82,
            "name": "A#5",
            "ticks": 252240,
            "time": 269.4874355,
            "velocity": 0.5511811023622047
          },
          {
            "duration": 0.03205131250001614,
            "durationTicks": 30,
            "midi": 36,
            "name": "C2",
            "ticks": 252480,
            "time": 269.74384599999996,
            "velocity": 0.8740157480314961
          },
          {
            "duration": 0.03205131250001614,
            "durationTicks": 30,
            "midi": 42,
            "name": "F#2",
            "ticks": 252480,
            "time": 269.74384599999996,
            "velocity": 0.49606299212598426
          },
          {
            "duration": 0.03205131250001614,
            "durationTicks": 30,
            "midi": 82,
            "name": "A#5",
            "ticks": 252480,
            "time": 269.74384599999996,
            "velocity": 0.5511811023622047
          },
          {
            "duration": 0.03205131250001614,
            "durationTicks": 30,
            "midi": 42,
            "name": "F#2",
            "ticks": 252720,
            "time": 270.0002565,
            "velocity": 0.5905511811023622
          },
          {
            "duration": 0.03205131250001614,
            "durationTicks": 30,
            "midi": 82,
            "name": "A#5",
            "ticks": 252720,
            "time": 270.0002565,
            "velocity": 0.5826771653543307
          },
          {
            "duration": 0.03205131250001614,
            "durationTicks": 30,
            "midi": 39,
            "name": "D#2",
            "ticks": 252960,
            "time": 270.256667,
            "velocity": 0.9133858267716536
          },
          {
            "duration": 0.03205131250001614,
            "durationTicks": 30,
            "midi": 40,
            "name": "E2",
            "ticks": 252960,
            "time": 270.256667,
            "velocity": 0.937007874015748
          },
          {
            "duration": 0.03205131250001614,
            "durationTicks": 30,
            "midi": 42,
            "name": "F#2",
            "ticks": 252960,
            "time": 270.256667,
            "velocity": 0.49606299212598426
          },
          {
            "duration": 0.03205131250001614,
            "durationTicks": 30,
            "midi": 82,
            "name": "A#5",
            "ticks": 252960,
            "time": 270.256667,
            "velocity": 0.5354330708661418
          },
          {
            "duration": 0.032051312499959295,
            "durationTicks": 30,
            "midi": 42,
            "name": "F#2",
            "ticks": 253200,
            "time": 270.5130775,
            "velocity": 0.6692913385826772
          },
          {
            "duration": 0.032051312499959295,
            "durationTicks": 30,
            "midi": 82,
            "name": "A#5",
            "ticks": 253200,
            "time": 270.5130775,
            "velocity": 0.5511811023622047
          },
          {
            "duration": 0.03205131250001614,
            "durationTicks": 30,
            "midi": 36,
            "name": "C2",
            "ticks": 253440,
            "time": 270.76948799999997,
            "velocity": 0.8740157480314961
          },
          {
            "duration": 0.03205131250001614,
            "durationTicks": 30,
            "midi": 42,
            "name": "F#2",
            "ticks": 253440,
            "time": 270.76948799999997,
            "velocity": 0.47244094488188976
          },
          {
            "duration": 0.03205131250001614,
            "durationTicks": 30,
            "midi": 82,
            "name": "A#5",
            "ticks": 253440,
            "time": 270.76948799999997,
            "velocity": 0.5354330708661418
          },
          {
            "duration": 0.03205131250001614,
            "durationTicks": 30,
            "midi": 42,
            "name": "F#2",
            "ticks": 253680,
            "time": 271.0258985,
            "velocity": 0.5905511811023622
          },
          {
            "duration": 0.03205131250001614,
            "durationTicks": 30,
            "midi": 82,
            "name": "A#5",
            "ticks": 253680,
            "time": 271.0258985,
            "velocity": 0.48031496062992124
          },
          {
            "duration": 0.032051312499959295,
            "durationTicks": 30,
            "midi": 39,
            "name": "D#2",
            "ticks": 253920,
            "time": 271.282309,
            "velocity": 0.9133858267716536
          },
          {
            "duration": 0.032051312499959295,
            "durationTicks": 30,
            "midi": 40,
            "name": "E2",
            "ticks": 253920,
            "time": 271.282309,
            "velocity": 0.937007874015748
          },
          {
            "duration": 0.032051312499959295,
            "durationTicks": 30,
            "midi": 42,
            "name": "F#2",
            "ticks": 253920,
            "time": 271.282309,
            "velocity": 0.4330708661417323
          },
          {
            "duration": 0.032051312499959295,
            "durationTicks": 30,
            "midi": 82,
            "name": "A#5",
            "ticks": 253920,
            "time": 271.282309,
            "velocity": 0.48031496062992124
          },
          {
            "duration": 0.03205131250001614,
            "durationTicks": 30,
            "midi": 42,
            "name": "F#2",
            "ticks": 254160,
            "time": 271.53871949999996,
            "velocity": 0.6692913385826772
          },
          {
            "duration": 0.03205131250001614,
            "durationTicks": 30,
            "midi": 82,
            "name": "A#5",
            "ticks": 254160,
            "time": 271.53871949999996,
            "velocity": 0.44881889763779526
          },
          {
            "duration": 0.03205131250001614,
            "durationTicks": 30,
            "midi": 36,
            "name": "C2",
            "ticks": 254400,
            "time": 271.79513,
            "velocity": 0.8740157480314961
          },
          {
            "duration": 0.03205131250001614,
            "durationTicks": 30,
            "midi": 42,
            "name": "F#2",
            "ticks": 254400,
            "time": 271.79513,
            "velocity": 0.4094488188976378
          },
          {
            "duration": 0.03205131250001614,
            "durationTicks": 30,
            "midi": 82,
            "name": "A#5",
            "ticks": 254400,
            "time": 271.79513,
            "velocity": 0.5039370078740157
          },
          {
            "duration": 0.03205131250001614,
            "durationTicks": 30,
            "midi": 42,
            "name": "F#2",
            "ticks": 254640,
            "time": 272.0515405,
            "velocity": 0.6299212598425197
          },
          {
            "duration": 0.03205131250001614,
            "durationTicks": 30,
            "midi": 82,
            "name": "A#5",
            "ticks": 254640,
            "time": 272.0515405,
            "velocity": 0.41732283464566927
          },
          {
            "duration": 0.032051312499959295,
            "durationTicks": 30,
            "midi": 39,
            "name": "D#2",
            "ticks": 254880,
            "time": 272.307951,
            "velocity": 0.9133858267716536
          },
          {
            "duration": 0.032051312499959295,
            "durationTicks": 30,
            "midi": 40,
            "name": "E2",
            "ticks": 254880,
            "time": 272.307951,
            "velocity": 0.937007874015748
          },
          {
            "duration": 0.032051312499959295,
            "durationTicks": 30,
            "midi": 42,
            "name": "F#2",
            "ticks": 254880,
            "time": 272.307951,
            "velocity": 0.4094488188976378
          },
          {
            "duration": 0.032051312499959295,
            "durationTicks": 30,
            "midi": 82,
            "name": "A#5",
            "ticks": 254880,
            "time": 272.307951,
            "velocity": 0.5354330708661418
          },
          {
            "duration": 0.03205131250001614,
            "durationTicks": 30,
            "midi": 42,
            "name": "F#2",
            "ticks": 255120,
            "time": 272.56436149999996,
            "velocity": 0.6692913385826772
          },
          {
            "duration": 0.03205131250001614,
            "durationTicks": 30,
            "midi": 82,
            "name": "A#5",
            "ticks": 255120,
            "time": 272.56436149999996,
            "velocity": 0.5039370078740157
          },
          {
            "duration": 0.03205131250001614,
            "durationTicks": 30,
            "midi": 36,
            "name": "C2",
            "ticks": 255360,
            "time": 272.820772,
            "velocity": 0.8740157480314961
          },
          {
            "duration": 0.03205131250001614,
            "durationTicks": 30,
            "midi": 42,
            "name": "F#2",
            "ticks": 255360,
            "time": 272.820772,
            "velocity": 0.3779527559055118
          },
          {
            "duration": 0.03205131250001614,
            "durationTicks": 30,
            "midi": 82,
            "name": "A#5",
            "ticks": 255360,
            "time": 272.820772,
            "velocity": 0.4881889763779528
          },
          {
            "duration": 0.03205131250001614,
            "durationTicks": 30,
            "midi": 42,
            "name": "F#2",
            "ticks": 255600,
            "time": 273.0771825,
            "velocity": 0.5905511811023622
          },
          {
            "duration": 0.03205131250001614,
            "durationTicks": 30,
            "midi": 82,
            "name": "A#5",
            "ticks": 255600,
            "time": 273.0771825,
            "velocity": 0.4094488188976378
          },
          {
            "duration": 0.032051312499959295,
            "durationTicks": 30,
            "midi": 39,
            "name": "D#2",
            "ticks": 255840,
            "time": 273.333593,
            "velocity": 0.9133858267716536
          },
          {
            "duration": 0.032051312499959295,
            "durationTicks": 30,
            "midi": 40,
            "name": "E2",
            "ticks": 255840,
            "time": 273.333593,
            "velocity": 0.9291338582677166
          },
          {
            "duration": 0.032051312499959295,
            "durationTicks": 30,
            "midi": 42,
            "name": "F#2",
            "ticks": 255840,
            "time": 273.333593,
            "velocity": 0.47244094488188976
          },
          {
            "duration": 0.032051312499959295,
            "durationTicks": 30,
            "midi": 82,
            "name": "A#5",
            "ticks": 255840,
            "time": 273.333593,
            "velocity": 0.5511811023622047
          },
          {
            "duration": 0.03205131250001614,
            "durationTicks": 30,
            "midi": 42,
            "name": "F#2",
            "ticks": 256080,
            "time": 273.59000349999997,
            "velocity": 0.6299212598425197
          },
          {
            "duration": 0.03205131250001614,
            "durationTicks": 30,
            "midi": 82,
            "name": "A#5",
            "ticks": 256080,
            "time": 273.59000349999997,
            "velocity": 0.4645669291338583
          },
          {
            "duration": 0.03205131250001614,
            "durationTicks": 30,
            "midi": 36,
            "name": "C2",
            "ticks": 256320,
            "time": 273.846414,
            "velocity": 0.8740157480314961
          },
          {
            "duration": 0.03205131250001614,
            "durationTicks": 30,
            "midi": 42,
            "name": "F#2",
            "ticks": 256320,
            "time": 273.846414,
            "velocity": 0.49606299212598426
          },
          {
            "duration": 0.03205131250001614,
            "durationTicks": 30,
            "midi": 82,
            "name": "A#5",
            "ticks": 256320,
            "time": 273.846414,
            "velocity": 0.5354330708661418
          },
          {
            "duration": 0.032051312499959295,
            "durationTicks": 30,
            "midi": 42,
            "name": "F#2",
            "ticks": 256560,
            "time": 274.1028245,
            "velocity": 0.5905511811023622
          },
          {
            "duration": 0.032051312499959295,
            "durationTicks": 30,
            "midi": 82,
            "name": "A#5",
            "ticks": 256560,
            "time": 274.1028245,
            "velocity": 0.5196850393700787
          },
          {
            "duration": 0.032051312499959295,
            "durationTicks": 30,
            "midi": 39,
            "name": "D#2",
            "ticks": 256800,
            "time": 274.359235,
            "velocity": 0.9133858267716536
          },
          {
            "duration": 0.032051312499959295,
            "durationTicks": 30,
            "midi": 40,
            "name": "E2",
            "ticks": 256800,
            "time": 274.359235,
            "velocity": 0.937007874015748
          },
          {
            "duration": 0.032051312499959295,
            "durationTicks": 30,
            "midi": 42,
            "name": "F#2",
            "ticks": 256800,
            "time": 274.359235,
            "velocity": 0.49606299212598426
          },
          {
            "duration": 0.032051312499959295,
            "durationTicks": 30,
            "midi": 82,
            "name": "A#5",
            "ticks": 256800,
            "time": 274.359235,
            "velocity": 0.5826771653543307
          },
          {
            "duration": 0.03205131250001614,
            "durationTicks": 30,
            "midi": 42,
            "name": "F#2",
            "ticks": 257040,
            "time": 274.61564549999997,
            "velocity": 0.6692913385826772
          },
          {
            "duration": 0.03205131250001614,
            "durationTicks": 30,
            "midi": 82,
            "name": "A#5",
            "ticks": 257040,
            "time": 274.61564549999997,
            "velocity": 0.4409448818897638
          },
          {
            "duration": 0.03205131250001614,
            "durationTicks": 30,
            "midi": 36,
            "name": "C2",
            "ticks": 257280,
            "time": 274.872056,
            "velocity": 0.8740157480314961
          },
          {
            "duration": 0.03205131250001614,
            "durationTicks": 30,
            "midi": 42,
            "name": "F#2",
            "ticks": 257280,
            "time": 274.872056,
            "velocity": 0.47244094488188976
          },
          {
            "duration": 0.03205131250001614,
            "durationTicks": 30,
            "midi": 82,
            "name": "A#5",
            "ticks": 257280,
            "time": 274.872056,
            "velocity": 0.5826771653543307
          },
          {
            "duration": 0.032051312499959295,
            "durationTicks": 30,
            "midi": 42,
            "name": "F#2",
            "ticks": 257520,
            "time": 275.1284665,
            "velocity": 0.5905511811023622
          },
          {
            "duration": 0.032051312499959295,
            "durationTicks": 30,
            "midi": 82,
            "name": "A#5",
            "ticks": 257520,
            "time": 275.1284665,
            "velocity": 0.5039370078740157
          },
          {
            "duration": 0.03205131250001614,
            "durationTicks": 30,
            "midi": 39,
            "name": "D#2",
            "ticks": 257760,
            "time": 275.38487699999996,
            "velocity": 0.9133858267716536
          },
          {
            "duration": 0.03205131250001614,
            "durationTicks": 30,
            "midi": 40,
            "name": "E2",
            "ticks": 257760,
            "time": 275.38487699999996,
            "velocity": 0.937007874015748
          },
          {
            "duration": 0.03205131250001614,
            "durationTicks": 30,
            "midi": 42,
            "name": "F#2",
            "ticks": 257760,
            "time": 275.38487699999996,
            "velocity": 0.4330708661417323
          },
          {
            "duration": 0.03205131250001614,
            "durationTicks": 30,
            "midi": 82,
            "name": "A#5",
            "ticks": 257760,
            "time": 275.38487699999996,
            "velocity": 0.5669291338582677
          },
          {
            "duration": 0.03205131250001614,
            "durationTicks": 30,
            "midi": 42,
            "name": "F#2",
            "ticks": 258000,
            "time": 275.6412875,
            "velocity": 0.6692913385826772
          },
          {
            "duration": 0.03205131250001614,
            "durationTicks": 30,
            "midi": 82,
            "name": "A#5",
            "ticks": 258000,
            "time": 275.6412875,
            "velocity": 0.5196850393700787
          },
          {
            "duration": 0.03205131250001614,
            "durationTicks": 30,
            "midi": 36,
            "name": "C2",
            "ticks": 258240,
            "time": 275.897698,
            "velocity": 0.8740157480314961
          },
          {
            "duration": 0.03205131250001614,
            "durationTicks": 30,
            "midi": 42,
            "name": "F#2",
            "ticks": 258240,
            "time": 275.897698,
            "velocity": 0.4094488188976378
          },
          {
            "duration": 0.03205131250001614,
            "durationTicks": 30,
            "midi": 82,
            "name": "A#5",
            "ticks": 258240,
            "time": 275.897698,
            "velocity": 0.4881889763779528
          },
          {
            "duration": 0.032051312499959295,
            "durationTicks": 30,
            "midi": 42,
            "name": "F#2",
            "ticks": 258480,
            "time": 276.1541085,
            "velocity": 0.6299212598425197
          },
          {
            "duration": 0.032051312499959295,
            "durationTicks": 30,
            "midi": 82,
            "name": "A#5",
            "ticks": 258480,
            "time": 276.1541085,
            "velocity": 0.5196850393700787
          },
          {
            "duration": 0.03205131250001614,
            "durationTicks": 30,
            "midi": 39,
            "name": "D#2",
            "ticks": 258720,
            "time": 276.41051899999997,
            "velocity": 0.9133858267716536
          },
          {
            "duration": 0.03205131250001614,
            "durationTicks": 30,
            "midi": 40,
            "name": "E2",
            "ticks": 258720,
            "time": 276.41051899999997,
            "velocity": 0.937007874015748
          },
          {
            "duration": 0.03205131250001614,
            "durationTicks": 30,
            "midi": 42,
            "name": "F#2",
            "ticks": 258720,
            "time": 276.41051899999997,
            "velocity": 0.4094488188976378
          },
          {
            "duration": 0.03205131250001614,
            "durationTicks": 30,
            "midi": 82,
            "name": "A#5",
            "ticks": 258720,
            "time": 276.41051899999997,
            "velocity": 0.5511811023622047
          },
          {
            "duration": 0.03205131250001614,
            "durationTicks": 30,
            "midi": 42,
            "name": "F#2",
            "ticks": 258960,
            "time": 276.6669295,
            "velocity": 0.6692913385826772
          },
          {
            "duration": 0.03205131250001614,
            "durationTicks": 30,
            "midi": 82,
            "name": "A#5",
            "ticks": 258960,
            "time": 276.6669295,
            "velocity": 0.5511811023622047
          },
          {
            "duration": 0.03205131250001614,
            "durationTicks": 30,
            "midi": 36,
            "name": "C2",
            "ticks": 259200,
            "time": 276.92334,
            "velocity": 0.8740157480314961
          },
          {
            "duration": 0.03205131250001614,
            "durationTicks": 30,
            "midi": 42,
            "name": "F#2",
            "ticks": 259200,
            "time": 276.92334,
            "velocity": 0.3779527559055118
          },
          {
            "duration": 0.03205131250001614,
            "durationTicks": 30,
            "midi": 82,
            "name": "A#5",
            "ticks": 259200,
            "time": 276.92334,
            "velocity": 0.5669291338582677
          },
          {
            "duration": 0.032051312499959295,
            "durationTicks": 30,
            "midi": 42,
            "name": "F#2",
            "ticks": 259440,
            "time": 277.1797505,
            "velocity": 0.5905511811023622
          },
          {
            "duration": 0.032051312499959295,
            "durationTicks": 30,
            "midi": 82,
            "name": "A#5",
            "ticks": 259440,
            "time": 277.1797505,
            "velocity": 0.5511811023622047
          },
          {
            "duration": 0.03205131250001614,
            "durationTicks": 30,
            "midi": 39,
            "name": "D#2",
            "ticks": 259680,
            "time": 277.43616099999997,
            "velocity": 0.9133858267716536
          },
          {
            "duration": 0.03205131250001614,
            "durationTicks": 30,
            "midi": 40,
            "name": "E2",
            "ticks": 259680,
            "time": 277.43616099999997,
            "velocity": 0.9291338582677166
          },
          {
            "duration": 0.03205131250001614,
            "durationTicks": 30,
            "midi": 42,
            "name": "F#2",
            "ticks": 259680,
            "time": 277.43616099999997,
            "velocity": 0.47244094488188976
          },
          {
            "duration": 0.03205131250001614,
            "durationTicks": 30,
            "midi": 82,
            "name": "A#5",
            "ticks": 259680,
            "time": 277.43616099999997,
            "velocity": 0.5354330708661418
          },
          {
            "duration": 0.03205131250001614,
            "durationTicks": 30,
            "midi": 42,
            "name": "F#2",
            "ticks": 259920,
            "time": 277.6925715,
            "velocity": 0.6299212598425197
          },
          {
            "duration": 0.03205131250001614,
            "durationTicks": 30,
            "midi": 82,
            "name": "A#5",
            "ticks": 259920,
            "time": 277.6925715,
            "velocity": 0.5511811023622047
          },
          {
            "duration": 0.032051312499959295,
            "durationTicks": 30,
            "midi": 36,
            "name": "C2",
            "ticks": 260160,
            "time": 277.948982,
            "velocity": 0.8740157480314961
          },
          {
            "duration": 0.032051312499959295,
            "durationTicks": 30,
            "midi": 42,
            "name": "F#2",
            "ticks": 260160,
            "time": 277.948982,
            "velocity": 0.49606299212598426
          },
          {
            "duration": 0.032051312499959295,
            "durationTicks": 30,
            "midi": 82,
            "name": "A#5",
            "ticks": 260160,
            "time": 277.948982,
            "velocity": 0.5511811023622047
          },
          {
            "duration": 0.03205131250001614,
            "durationTicks": 30,
            "midi": 42,
            "name": "F#2",
            "ticks": 260400,
            "time": 278.20539249999996,
            "velocity": 0.5905511811023622
          },
          {
            "duration": 0.03205131250001614,
            "durationTicks": 30,
            "midi": 82,
            "name": "A#5",
            "ticks": 260400,
            "time": 278.20539249999996,
            "velocity": 0.5826771653543307
          },
          {
            "duration": 0.03205131250001614,
            "durationTicks": 30,
            "midi": 39,
            "name": "D#2",
            "ticks": 260640,
            "time": 278.461803,
            "velocity": 0.9133858267716536
          },
          {
            "duration": 0.03205131250001614,
            "durationTicks": 30,
            "midi": 40,
            "name": "E2",
            "ticks": 260640,
            "time": 278.461803,
            "velocity": 0.937007874015748
          },
          {
            "duration": 0.03205131250001614,
            "durationTicks": 30,
            "midi": 42,
            "name": "F#2",
            "ticks": 260640,
            "time": 278.461803,
            "velocity": 0.49606299212598426
          },
          {
            "duration": 0.03205131250001614,
            "durationTicks": 30,
            "midi": 82,
            "name": "A#5",
            "ticks": 260640,
            "time": 278.461803,
            "velocity": 0.5354330708661418
          },
          {
            "duration": 0.03205131250001614,
            "durationTicks": 30,
            "midi": 42,
            "name": "F#2",
            "ticks": 260880,
            "time": 278.7182135,
            "velocity": 0.6692913385826772
          },
          {
            "duration": 0.03205131250001614,
            "durationTicks": 30,
            "midi": 82,
            "name": "A#5",
            "ticks": 260880,
            "time": 278.7182135,
            "velocity": 0.5511811023622047
          },
          {
            "duration": 0.032051312499959295,
            "durationTicks": 30,
            "midi": 36,
            "name": "C2",
            "ticks": 261120,
            "time": 278.974624,
            "velocity": 0.8740157480314961
          },
          {
            "duration": 0.032051312499959295,
            "durationTicks": 30,
            "midi": 42,
            "name": "F#2",
            "ticks": 261120,
            "time": 278.974624,
            "velocity": 0.47244094488188976
          },
          {
            "duration": 0.032051312499959295,
            "durationTicks": 30,
            "midi": 82,
            "name": "A#5",
            "ticks": 261120,
            "time": 278.974624,
            "velocity": 0.5354330708661418
          },
          {
            "duration": 0.03205131250001614,
            "durationTicks": 30,
            "midi": 42,
            "name": "F#2",
            "ticks": 261360,
            "time": 279.23103449999996,
            "velocity": 0.5905511811023622
          },
          {
            "duration": 0.03205131250001614,
            "durationTicks": 30,
            "midi": 82,
            "name": "A#5",
            "ticks": 261360,
            "time": 279.23103449999996,
            "velocity": 0.48031496062992124
          },
          {
            "duration": 0.03205131250001614,
            "durationTicks": 30,
            "midi": 39,
            "name": "D#2",
            "ticks": 261600,
            "time": 279.487445,
            "velocity": 0.9133858267716536
          },
          {
            "duration": 0.03205131250001614,
            "durationTicks": 30,
            "midi": 40,
            "name": "E2",
            "ticks": 261600,
            "time": 279.487445,
            "velocity": 0.937007874015748
          },
          {
            "duration": 0.03205131250001614,
            "durationTicks": 30,
            "midi": 42,
            "name": "F#2",
            "ticks": 261600,
            "time": 279.487445,
            "velocity": 0.4330708661417323
          },
          {
            "duration": 0.03205131250001614,
            "durationTicks": 30,
            "midi": 82,
            "name": "A#5",
            "ticks": 261600,
            "time": 279.487445,
            "velocity": 0.48031496062992124
          },
          {
            "duration": 0.03205131250001614,
            "durationTicks": 30,
            "midi": 42,
            "name": "F#2",
            "ticks": 261840,
            "time": 279.7438555,
            "velocity": 0.6692913385826772
          },
          {
            "duration": 0.03205131250001614,
            "durationTicks": 30,
            "midi": 82,
            "name": "A#5",
            "ticks": 261840,
            "time": 279.7438555,
            "velocity": 0.44881889763779526
          },
          {
            "duration": 0.032051312499959295,
            "durationTicks": 30,
            "midi": 36,
            "name": "C2",
            "ticks": 262080,
            "time": 280.000266,
            "velocity": 0.8740157480314961
          },
          {
            "duration": 0.032051312499959295,
            "durationTicks": 30,
            "midi": 42,
            "name": "F#2",
            "ticks": 262080,
            "time": 280.000266,
            "velocity": 0.4094488188976378
          },
          {
            "duration": 0.032051312499959295,
            "durationTicks": 30,
            "midi": 82,
            "name": "A#5",
            "ticks": 262080,
            "time": 280.000266,
            "velocity": 0.5039370078740157
          },
          {
            "duration": 0.03205131250001614,
            "durationTicks": 30,
            "midi": 42,
            "name": "F#2",
            "ticks": 262320,
            "time": 280.25667649999997,
            "velocity": 0.6299212598425197
          },
          {
            "duration": 0.03205131250001614,
            "durationTicks": 30,
            "midi": 82,
            "name": "A#5",
            "ticks": 262320,
            "time": 280.25667649999997,
            "velocity": 0.41732283464566927
          },
          {
            "duration": 0.03205131250001614,
            "durationTicks": 30,
            "midi": 45,
            "name": "A2",
            "ticks": 262440,
            "time": 280.38488175,
            "velocity": 0.8110236220472441
          },
          {
            "duration": 0.03205131250001614,
            "durationTicks": 30,
            "midi": 39,
            "name": "D#2",
            "ticks": 262560,
            "time": 280.513087,
            "velocity": 0.9133858267716536
          },
          {
            "duration": 0.03205131250001614,
            "durationTicks": 30,
            "midi": 40,
            "name": "E2",
            "ticks": 262560,
            "time": 280.513087,
            "velocity": 0.937007874015748
          },
          {
            "duration": 0.03205131250001614,
            "durationTicks": 30,
            "midi": 42,
            "name": "F#2",
            "ticks": 262560,
            "time": 280.513087,
            "velocity": 0.4094488188976378
          },
          {
            "duration": 0.03205131250001614,
            "durationTicks": 30,
            "midi": 43,
            "name": "G2",
            "ticks": 262560,
            "time": 280.513087,
            "velocity": 0.8582677165354331
          },
          {
            "duration": 0.03205131250001614,
            "durationTicks": 30,
            "midi": 82,
            "name": "A#5",
            "ticks": 262560,
            "time": 280.513087,
            "velocity": 0.5354330708661418
          },
          {
            "duration": 0.032051312499959295,
            "durationTicks": 30,
            "midi": 46,
            "name": "A#2",
            "ticks": 262800,
            "time": 280.7694975,
            "velocity": 0.8267716535433071
          },
          {
            "duration": 0.032051312499959295,
            "durationTicks": 30,
            "midi": 82,
            "name": "A#5",
            "ticks": 262800,
            "time": 280.7694975,
            "velocity": 0.5039370078740157
          },
          {
            "duration": 0.03205131250001614,
            "durationTicks": 30,
            "midi": 36,
            "name": "C2",
            "ticks": 263040,
            "time": 281.02590799999996,
            "velocity": 0.8740157480314961
          },
          {
            "duration": 0.03205131250001614,
            "durationTicks": 30,
            "midi": 42,
            "name": "F#2",
            "ticks": 263040,
            "time": 281.02590799999996,
            "velocity": 0.3779527559055118
          },
          {
            "duration": 0.03205131250001614,
            "durationTicks": 30,
            "midi": 82,
            "name": "A#5",
            "ticks": 263040,
            "time": 281.02590799999996,
            "velocity": 0.4881889763779528
          },
          {
            "duration": 0.03205131250001614,
            "durationTicks": 30,
            "midi": 42,
            "name": "F#2",
            "ticks": 263280,
            "time": 281.2823185,
            "velocity": 0.5905511811023622
          },
          {
            "duration": 0.03205131250001614,
            "durationTicks": 30,
            "midi": 82,
            "name": "A#5",
            "ticks": 263280,
            "time": 281.2823185,
            "velocity": 0.4094488188976378
          },
          {
            "duration": 0.03205131250001614,
            "durationTicks": 30,
            "midi": 39,
            "name": "D#2",
            "ticks": 263520,
            "time": 281.538729,
            "velocity": 0.9133858267716536
          },
          {
            "duration": 0.03205131250001614,
            "durationTicks": 30,
            "midi": 40,
            "name": "E2",
            "ticks": 263520,
            "time": 281.538729,
            "velocity": 0.9291338582677166
          },
          {
            "duration": 0.03205131250001614,
            "durationTicks": 30,
            "midi": 42,
            "name": "F#2",
            "ticks": 263520,
            "time": 281.538729,
            "velocity": 0.47244094488188976
          },
          {
            "duration": 0.03205131250001614,
            "durationTicks": 30,
            "midi": 82,
            "name": "A#5",
            "ticks": 263520,
            "time": 281.538729,
            "velocity": 0.5511811023622047
          },
          {
            "duration": 0.032051312499959295,
            "durationTicks": 30,
            "midi": 42,
            "name": "F#2",
            "ticks": 263760,
            "time": 281.7951395,
            "velocity": 0.6299212598425197
          },
          {
            "duration": 0.032051312499959295,
            "durationTicks": 30,
            "midi": 82,
            "name": "A#5",
            "ticks": 263760,
            "time": 281.7951395,
            "velocity": 0.4645669291338583
          },
          {
            "duration": 0.03205131250001614,
            "durationTicks": 30,
            "midi": 36,
            "name": "C2",
            "ticks": 264000,
            "time": 282.05154999999996,
            "velocity": 0.8740157480314961
          },
          {
            "duration": 0.03205131250001614,
            "durationTicks": 30,
            "midi": 42,
            "name": "F#2",
            "ticks": 264000,
            "time": 282.05154999999996,
            "velocity": 0.49606299212598426
          },
          {
            "duration": 0.03205131250001614,
            "durationTicks": 30,
            "midi": 82,
            "name": "A#5",
            "ticks": 264000,
            "time": 282.05154999999996,
            "velocity": 0.5354330708661418
          },
          {
            "duration": 0.03205131250001614,
            "durationTicks": 30,
            "midi": 42,
            "name": "F#2",
            "ticks": 264240,
            "time": 282.3079605,
            "velocity": 0.5905511811023622
          },
          {
            "duration": 0.03205131250001614,
            "durationTicks": 30,
            "midi": 82,
            "name": "A#5",
            "ticks": 264240,
            "time": 282.3079605,
            "velocity": 0.5196850393700787
          },
          {
            "duration": 0.03205131250001614,
            "durationTicks": 30,
            "midi": 39,
            "name": "D#2",
            "ticks": 264480,
            "time": 282.564371,
            "velocity": 0.9133858267716536
          },
          {
            "duration": 0.03205131250001614,
            "durationTicks": 30,
            "midi": 40,
            "name": "E2",
            "ticks": 264480,
            "time": 282.564371,
            "velocity": 0.937007874015748
          },
          {
            "duration": 0.03205131250001614,
            "durationTicks": 30,
            "midi": 42,
            "name": "F#2",
            "ticks": 264480,
            "time": 282.564371,
            "velocity": 0.49606299212598426
          },
          {
            "duration": 0.03205131250001614,
            "durationTicks": 30,
            "midi": 82,
            "name": "A#5",
            "ticks": 264480,
            "time": 282.564371,
            "velocity": 0.5826771653543307
          },
          {
            "duration": 0.032051312499959295,
            "durationTicks": 30,
            "midi": 42,
            "name": "F#2",
            "ticks": 264720,
            "time": 282.8207815,
            "velocity": 0.6299212598425197
          },
          {
            "duration": 0.032051312499959295,
            "durationTicks": 30,
            "midi": 82,
            "name": "A#5",
            "ticks": 264720,
            "time": 282.8207815,
            "velocity": 0.4409448818897638
          },
          {
            "duration": 0.03205131250001614,
            "durationTicks": 30,
            "midi": 36,
            "name": "C2",
            "ticks": 264960,
            "time": 283.07719199999997,
            "velocity": 0.8740157480314961
          },
          {
            "duration": 0.03205131250001614,
            "durationTicks": 30,
            "midi": 42,
            "name": "F#2",
            "ticks": 264960,
            "time": 283.07719199999997,
            "velocity": 0.5118110236220472
          },
          {
            "duration": 0.03205131250001614,
            "durationTicks": 30,
            "midi": 82,
            "name": "A#5",
            "ticks": 264960,
            "time": 283.07719199999997,
            "velocity": 0.5826771653543307
          },
          {
            "duration": 0.03205131250001614,
            "durationTicks": 30,
            "midi": 42,
            "name": "F#2",
            "ticks": 265200,
            "time": 283.3336025,
            "velocity": 0.6299212598425197
          },
          {
            "duration": 0.03205131250001614,
            "durationTicks": 30,
            "midi": 82,
            "name": "A#5",
            "ticks": 265200,
            "time": 283.3336025,
            "velocity": 0.5039370078740157
          },
          {
            "duration": 0.032051312499959295,
            "durationTicks": 30,
            "midi": 39,
            "name": "D#2",
            "ticks": 265440,
            "time": 283.590013,
            "velocity": 0.9133858267716536
          },
          {
            "duration": 0.032051312499959295,
            "durationTicks": 30,
            "midi": 40,
            "name": "E2",
            "ticks": 265440,
            "time": 283.590013,
            "velocity": 0.937007874015748
          },
          {
            "duration": 0.032051312499959295,
            "durationTicks": 30,
            "midi": 42,
            "name": "F#2",
            "ticks": 265440,
            "time": 283.590013,
            "velocity": 0.47244094488188976
          },
          {
            "duration": 0.032051312499959295,
            "durationTicks": 30,
            "midi": 82,
            "name": "A#5",
            "ticks": 265440,
            "time": 283.590013,
            "velocity": 0.5669291338582677
          },
          {
            "duration": 0.03205131250001614,
            "durationTicks": 30,
            "midi": 42,
            "name": "F#2",
            "ticks": 265680,
            "time": 283.84642349999996,
            "velocity": 0.7086614173228346
          },
          {
            "duration": 0.03205131250001614,
            "durationTicks": 30,
            "midi": 82,
            "name": "A#5",
            "ticks": 265680,
            "time": 283.84642349999996,
            "velocity": 0.5196850393700787
          },
          {
            "duration": 0.03205131250001614,
            "durationTicks": 30,
            "midi": 36,
            "name": "C2",
            "ticks": 265920,
            "time": 284.102834,
            "velocity": 0.8740157480314961
          },
          {
            "duration": 0.03205131250001614,
            "durationTicks": 30,
            "midi": 42,
            "name": "F#2",
            "ticks": 265920,
            "time": 284.102834,
            "velocity": 0.44881889763779526
          },
          {
            "duration": 0.03205131250001614,
            "durationTicks": 30,
            "midi": 82,
            "name": "A#5",
            "ticks": 265920,
            "time": 284.102834,
            "velocity": 0.4881889763779528
          },
          {
            "duration": 0.03205131250001614,
            "durationTicks": 30,
            "midi": 42,
            "name": "F#2",
            "ticks": 266160,
            "time": 284.3592445,
            "velocity": 0.6692913385826772
          },
          {
            "duration": 0.03205131250001614,
            "durationTicks": 30,
            "midi": 82,
            "name": "A#5",
            "ticks": 266160,
            "time": 284.3592445,
            "velocity": 0.5196850393700787
          },
          {
            "duration": 0.032051312499959295,
            "durationTicks": 30,
            "midi": 39,
            "name": "D#2",
            "ticks": 266400,
            "time": 284.615655,
            "velocity": 0.9133858267716536
          },
          {
            "duration": 0.032051312499959295,
            "durationTicks": 30,
            "midi": 40,
            "name": "E2",
            "ticks": 266400,
            "time": 284.615655,
            "velocity": 0.937007874015748
          },
          {
            "duration": 0.032051312499959295,
            "durationTicks": 30,
            "midi": 42,
            "name": "F#2",
            "ticks": 266400,
            "time": 284.615655,
            "velocity": 0.44881889763779526
          },
          {
            "duration": 0.032051312499959295,
            "durationTicks": 30,
            "midi": 82,
            "name": "A#5",
            "ticks": 266400,
            "time": 284.615655,
            "velocity": 0.5511811023622047
          },
          {
            "duration": 0.03205131250001614,
            "durationTicks": 30,
            "midi": 46,
            "name": "A#2",
            "ticks": 266640,
            "time": 284.87206549999996,
            "velocity": 0.8661417322834646
          },
          {
            "duration": 0.03205131250001614,
            "durationTicks": 30,
            "midi": 82,
            "name": "A#5",
            "ticks": 266640,
            "time": 284.87206549999996,
            "velocity": 0.5511811023622047
          },
          {
            "duration": 0.03205131250001614,
            "durationTicks": 30,
            "midi": 36,
            "name": "C2",
            "ticks": 266880,
            "time": 285.128476,
            "velocity": 0.8740157480314961
          },
          {
            "duration": 0.03205131250001614,
            "durationTicks": 30,
            "midi": 42,
            "name": "F#2",
            "ticks": 266880,
            "time": 285.128476,
            "velocity": 0.5118110236220472
          },
          {
            "duration": 0.03205131250001614,
            "durationTicks": 30,
            "midi": 82,
            "name": "A#5",
            "ticks": 266880,
            "time": 285.128476,
            "velocity": 0.5826771653543307
          },
          {
            "duration": 0.03205131250001614,
            "durationTicks": 30,
            "midi": 42,
            "name": "F#2",
            "ticks": 267120,
            "time": 285.3848865,
            "velocity": 0.6299212598425197
          },
          {
            "duration": 0.03205131250001614,
            "durationTicks": 30,
            "midi": 82,
            "name": "A#5",
            "ticks": 267120,
            "time": 285.3848865,
            "velocity": 0.5039370078740157
          },
          {
            "duration": 0.032051312499959295,
            "durationTicks": 30,
            "midi": 39,
            "name": "D#2",
            "ticks": 267360,
            "time": 285.641297,
            "velocity": 0.9133858267716536
          },
          {
            "duration": 0.032051312499959295,
            "durationTicks": 30,
            "midi": 40,
            "name": "E2",
            "ticks": 267360,
            "time": 285.641297,
            "velocity": 0.937007874015748
          },
          {
            "duration": 0.032051312499959295,
            "durationTicks": 30,
            "midi": 42,
            "name": "F#2",
            "ticks": 267360,
            "time": 285.641297,
            "velocity": 0.47244094488188976
          },
          {
            "duration": 0.032051312499959295,
            "durationTicks": 30,
            "midi": 82,
            "name": "A#5",
            "ticks": 267360,
            "time": 285.641297,
            "velocity": 0.5669291338582677
          },
          {
            "duration": 0.03205131250001614,
            "durationTicks": 30,
            "midi": 42,
            "name": "F#2",
            "ticks": 267600,
            "time": 285.89770749999997,
            "velocity": 0.7086614173228346
          },
          {
            "duration": 0.03205131250001614,
            "durationTicks": 30,
            "midi": 82,
            "name": "A#5",
            "ticks": 267600,
            "time": 285.89770749999997,
            "velocity": 0.5196850393700787
          },
          {
            "duration": 0.03205131250001614,
            "durationTicks": 30,
            "midi": 36,
            "name": "C2",
            "ticks": 267840,
            "time": 286.154118,
            "velocity": 0.8740157480314961
          },
          {
            "duration": 0.03205131250001614,
            "durationTicks": 30,
            "midi": 42,
            "name": "F#2",
            "ticks": 267840,
            "time": 286.154118,
            "velocity": 0.44881889763779526
          },
          {
            "duration": 0.03205131250001614,
            "durationTicks": 30,
            "midi": 82,
            "name": "A#5",
            "ticks": 267840,
            "time": 286.154118,
            "velocity": 0.4881889763779528
          },
          {
            "duration": 0.032051312499959295,
            "durationTicks": 30,
            "midi": 42,
            "name": "F#2",
            "ticks": 268080,
            "time": 286.4105285,
            "velocity": 0.6692913385826772
          },
          {
            "duration": 0.032051312499959295,
            "durationTicks": 30,
            "midi": 82,
            "name": "A#5",
            "ticks": 268080,
            "time": 286.4105285,
            "velocity": 0.5196850393700787
          },
          {
            "duration": 0.03205131250001614,
            "durationTicks": 30,
            "midi": 39,
            "name": "D#2",
            "ticks": 268320,
            "time": 286.66693899999996,
            "velocity": 0.9133858267716536
          },
          {
            "duration": 0.03205131250001614,
            "durationTicks": 30,
            "midi": 40,
            "name": "E2",
            "ticks": 268320,
            "time": 286.66693899999996,
            "velocity": 0.937007874015748
          },
          {
            "duration": 0.03205131250001614,
            "durationTicks": 30,
            "midi": 42,
            "name": "F#2",
            "ticks": 268320,
            "time": 286.66693899999996,
            "velocity": 0.44881889763779526
          },
          {
            "duration": 0.03205131250001614,
            "durationTicks": 30,
            "midi": 82,
            "name": "A#5",
            "ticks": 268320,
            "time": 286.66693899999996,
            "velocity": 0.5511811023622047
          },
          {
            "duration": 0.03205131250001614,
            "durationTicks": 30,
            "midi": 42,
            "name": "F#2",
            "ticks": 268560,
            "time": 286.9233495,
            "velocity": 0.7086614173228346
          },
          {
            "duration": 0.03205131250001614,
            "durationTicks": 30,
            "midi": 82,
            "name": "A#5",
            "ticks": 268560,
            "time": 286.9233495,
            "velocity": 0.5511811023622047
          },
          {
            "duration": 0.03205131250001614,
            "durationTicks": 30,
            "midi": 36,
            "name": "C2",
            "ticks": 268800,
            "time": 287.17976,
            "velocity": 0.8740157480314961
          },
          {
            "duration": 0.03205131250001614,
            "durationTicks": 30,
            "midi": 42,
            "name": "F#2",
            "ticks": 268800,
            "time": 287.17976,
            "velocity": 0.5118110236220472
          },
          {
            "duration": 0.03205131250001614,
            "durationTicks": 30,
            "midi": 82,
            "name": "A#5",
            "ticks": 268800,
            "time": 287.17976,
            "velocity": 0.5590551181102362
          },
          {
            "duration": 0.032051312499959295,
            "durationTicks": 30,
            "midi": 42,
            "name": "F#2",
            "ticks": 269040,
            "time": 287.4361705,
            "velocity": 0.6299212598425197
          },
          {
            "duration": 0.032051312499959295,
            "durationTicks": 30,
            "midi": 82,
            "name": "A#5",
            "ticks": 269040,
            "time": 287.4361705,
            "velocity": 0.3858267716535433
          },
          {
            "duration": 0.03205131250001614,
            "durationTicks": 30,
            "midi": 39,
            "name": "D#2",
            "ticks": 269280,
            "time": 287.69258099999996,
            "velocity": 0.9133858267716536
          },
          {
            "duration": 0.03205131250001614,
            "durationTicks": 30,
            "midi": 40,
            "name": "E2",
            "ticks": 269280,
            "time": 287.69258099999996,
            "velocity": 0.937007874015748
          },
          {
            "duration": 0.03205131250001614,
            "durationTicks": 30,
            "midi": 42,
            "name": "F#2",
            "ticks": 269280,
            "time": 287.69258099999996,
            "velocity": 0.47244094488188976
          },
          {
            "duration": 0.03205131250001614,
            "durationTicks": 30,
            "midi": 82,
            "name": "A#5",
            "ticks": 269280,
            "time": 287.69258099999996,
            "velocity": 0.5748031496062992
          },
          {
            "duration": 0.03205131250001614,
            "durationTicks": 30,
            "midi": 42,
            "name": "F#2",
            "ticks": 269520,
            "time": 287.9489915,
            "velocity": 0.7086614173228346
          },
          {
            "duration": 0.03205131250001614,
            "durationTicks": 30,
            "midi": 82,
            "name": "A#5",
            "ticks": 269520,
            "time": 287.9489915,
            "velocity": 0.5196850393700787
          },
          {
            "duration": 0.03205131250001614,
            "durationTicks": 30,
            "midi": 82,
            "name": "A#5",
            "ticks": 269640,
            "time": 288.07719675,
            "velocity": 0.5590551181102362
          },
          {
            "duration": 0.03205131250001614,
            "durationTicks": 30,
            "midi": 36,
            "name": "C2",
            "ticks": 269760,
            "time": 288.205402,
            "velocity": 0.8740157480314961
          },
          {
            "duration": 0.03205131250001614,
            "durationTicks": 30,
            "midi": 42,
            "name": "F#2",
            "ticks": 269760,
            "time": 288.205402,
            "velocity": 0.44881889763779526
          },
          {
            "duration": 0.03205131250001614,
            "durationTicks": 30,
            "midi": 82,
            "name": "A#5",
            "ticks": 269760,
            "time": 288.205402,
            "velocity": 0.5590551181102362
          },
          {
            "duration": 0.032051312499959295,
            "durationTicks": 30,
            "midi": 42,
            "name": "F#2",
            "ticks": 270000,
            "time": 288.4618125,
            "velocity": 0.6692913385826772
          },
          {
            "duration": 0.032051312499959295,
            "durationTicks": 30,
            "midi": 82,
            "name": "A#5",
            "ticks": 270000,
            "time": 288.4618125,
            "velocity": 0.5590551181102362
          },
          {
            "duration": 0.03205131250001614,
            "durationTicks": 30,
            "midi": 82,
            "name": "A#5",
            "ticks": 270120,
            "time": 288.59001774999996,
            "velocity": 0.5984251968503937
          },
          {
            "duration": 0.03205131250001614,
            "durationTicks": 30,
            "midi": 39,
            "name": "D#2",
            "ticks": 270240,
            "time": 288.71822299999997,
            "velocity": 0.6614173228346457
          },
          {
            "duration": 0.03205131250001614,
            "durationTicks": 30,
            "midi": 40,
            "name": "E2",
            "ticks": 270240,
            "time": 288.71822299999997,
            "velocity": 0.6062992125984252
          },
          {
            "duration": 0.03205131250001614,
            "durationTicks": 30,
            "midi": 42,
            "name": "F#2",
            "ticks": 270240,
            "time": 288.71822299999997,
            "velocity": 0.44881889763779526
          },
          {
            "duration": 0.03205131250001614,
            "durationTicks": 30,
            "midi": 82,
            "name": "A#5",
            "ticks": 270240,
            "time": 288.71822299999997,
            "velocity": 0.6535433070866141
          },
          {
            "duration": 0.03205131250001614,
            "durationTicks": 30,
            "midi": 42,
            "name": "F#2",
            "ticks": 270480,
            "time": 288.9746335,
            "velocity": 0.7086614173228346
          },
          {
            "duration": 0.03205131250001614,
            "durationTicks": 30,
            "midi": 82,
            "name": "A#5",
            "ticks": 270480,
            "time": 288.9746335,
            "velocity": 0.4409448818897638
          },
          {
            "duration": 0.03205131250001614,
            "durationTicks": 30,
            "midi": 82,
            "name": "A#5",
            "ticks": 270600,
            "time": 289.10283875,
            "velocity": 0.5196850393700787
          },
          {
            "duration": 0.032051312499959295,
            "durationTicks": 30,
            "midi": 36,
            "name": "C2",
            "ticks": 270720,
            "time": 289.231044,
            "velocity": 0.3543307086614173
          },
          {
            "duration": 0.032051312499959295,
            "durationTicks": 30,
            "midi": 42,
            "name": "F#2",
            "ticks": 270720,
            "time": 289.231044,
            "velocity": 0.1889763779527559
          },
          {
            "duration": 0.032051312499959295,
            "durationTicks": 30,
            "midi": 82,
            "name": "A#5",
            "ticks": 270720,
            "time": 289.231044,
            "velocity": 0.1732283464566929
          },
          {
            "duration": 0.03205131250001614,
            "durationTicks": 30,
            "midi": 42,
            "name": "F#2",
            "ticks": 270960,
            "time": 289.48745449999996,
            "velocity": 0.12598425196850394
          },
          {
            "duration": 0.03205131250001614,
            "durationTicks": 30,
            "midi": 82,
            "name": "A#5",
            "ticks": 270960,
            "time": 289.48745449999996,
            "velocity": 0.11023622047244094
          },
          {
            "duration": 0.03205131250001614,
            "durationTicks": 30,
            "midi": 39,
            "name": "D#2",
            "ticks": 271200,
            "time": 289.74386499999997,
            "velocity": 0.5354330708661418
          },
          {
            "duration": 0.03205131250001614,
            "durationTicks": 30,
            "midi": 40,
            "name": "E2",
            "ticks": 271200,
            "time": 289.74386499999997,
            "velocity": 0.2283464566929134
          },
          {
            "duration": 0.03205131250001614,
            "durationTicks": 30,
            "midi": 42,
            "name": "F#2",
            "ticks": 271200,
            "time": 289.74386499999997,
            "velocity": 0.09448818897637795
          },
          {
            "duration": 0.03205131250001614,
            "durationTicks": 30,
            "midi": 82,
            "name": "A#5",
            "ticks": 271200,
            "time": 289.74386499999997,
            "velocity": 0.09448818897637795
          },
          {
            "duration": 0.03205131250001614,
            "durationTicks": 30,
            "midi": 42,
            "name": "F#2",
            "ticks": 271440,
            "time": 290.0002755,
            "velocity": 0.06299212598425197
          },
          {
            "duration": 0.03205131250001614,
            "durationTicks": 30,
            "midi": 82,
            "name": "A#5",
            "ticks": 271440,
            "time": 290.0002755,
            "velocity": 0.09448818897637795
          },
          {
            "duration": 0.032051312499959295,
            "durationTicks": 30,
            "midi": 36,
            "name": "C2",
            "ticks": 271680,
            "time": 290.256686,
            "velocity": 0.25984251968503935
          },
          {
            "duration": 0.032051312499959295,
            "durationTicks": 30,
            "midi": 42,
            "name": "F#2",
            "ticks": 271680,
            "time": 290.256686,
            "velocity": 0.05511811023622047
          },
          {
            "duration": 0.032051312499959295,
            "durationTicks": 30,
            "midi": 82,
            "name": "A#5",
            "ticks": 271680,
            "time": 290.256686,
            "velocity": 0.09448818897637795
          },
          {
            "duration": 0.03205131250001614,
            "durationTicks": 30,
            "midi": 42,
            "name": "F#2",
            "ticks": 271920,
            "time": 290.51309649999996,
            "velocity": 0.05511811023622047
          },
          {
            "duration": 0.03205131250001614,
            "durationTicks": 30,
            "midi": 82,
            "name": "A#5",
            "ticks": 271920,
            "time": 290.51309649999996,
            "velocity": 0.09448818897637795
          },
          {
            "duration": 0.03205131250001614,
            "durationTicks": 30,
            "midi": 39,
            "name": "D#2",
            "ticks": 272160,
            "time": 290.769507,
            "velocity": 0.4094488188976378
          },
          {
            "duration": 0.03205131250001614,
            "durationTicks": 30,
            "midi": 40,
            "name": "E2",
            "ticks": 272160,
            "time": 290.769507,
            "velocity": 0.16535433070866143
          },
          {
            "duration": 0.03205131250001614,
            "durationTicks": 30,
            "midi": 42,
            "name": "F#2",
            "ticks": 272160,
            "time": 290.769507,
            "velocity": 0.05511811023622047
          },
          {
            "duration": 0.03205131250001614,
            "durationTicks": 30,
            "midi": 82,
            "name": "A#5",
            "ticks": 272160,
            "time": 290.769507,
            "velocity": 0.09448818897637795
          },
          {
            "duration": 0.03205131250001614,
            "durationTicks": 30,
            "midi": 42,
            "name": "F#2",
            "ticks": 272400,
            "time": 291.0259175,
            "velocity": 0.05511811023622047
          },
          {
            "duration": 0.03205131250001614,
            "durationTicks": 30,
            "midi": 82,
            "name": "A#5",
            "ticks": 272400,
            "time": 291.0259175,
            "velocity": 0.09448818897637795
          }
        ],
        "endOfTrackTicks": 274560
      },
      {
        "channel": 0,
        "controlChanges": {
          "0": [
            {
              "number": 0,
              "ticks": 610,
              "time": 0.6517100208333333,
              "value": 0
            }
          ],
          "32": [
            {
              "number": 32,
              "ticks": 613,
              "time": 0.6549151520833333,
              "value": 0
            }
          ],
          "121": [
            {
              "number": 121,
              "ticks": 485,
              "time": 0.5181628854166667,
              "value": 0
            }
          ]
        },
        "pitchBends": [],
        "instrument": {
          "family": "piano",
          "number": 0,
          "name": "acoustic grand piano"
        },
        "name": "       ",
        "notes": [],
        "endOfTrackTicks": 240000
      },
      {
        "channel": 10,
        "controlChanges": {
          "7": [
            {
              "number": 7,
              "ticks": 618,
              "time": 0.6602570375,
              "value": 0.41732283464566927
            },
            {
              "number": 7,
              "ticks": 827,
              "time": 0.8835478479166666,
              "value": 0.41732283464566927
            },
            {
              "number": 7,
              "ticks": 1037,
              "time": 1.1079070354166667,
              "value": 0.41732283464566927
            },
            {
              "number": 7,
              "ticks": 1247,
              "time": 1.3322662229166666,
              "value": 0.41732283464566927
            },
            {
              "number": 7,
              "ticks": 1457,
              "time": 1.5566254104166666,
              "value": 0.41732283464566927
            },
            {
              "number": 7,
              "ticks": 1668,
              "time": 1.782052975,
              "value": 0.41732283464566927
            },
            {
              "number": 7,
              "ticks": 1877,
              "time": 2.0053437854166667,
              "value": 0.41732283464566927
            },
            {
              "number": 7,
              "ticks": 2088,
              "time": 2.2307713499999995,
              "value": 0.41732283464566927
            },
            {
              "number": 7,
              "ticks": 2297,
              "time": 2.4540621604166666,
              "value": 0.41732283464566927
            },
            {
              "number": 7,
              "ticks": 2508,
              "time": 2.679489725,
              "value": 0.41732283464566927
            },
            {
              "number": 7,
              "ticks": 2717,
              "time": 2.9027805354166665,
              "value": 0.41732283464566927
            },
            {
              "number": 7,
              "ticks": 2927,
              "time": 3.127139722916666,
              "value": 0.41732283464566927
            },
            {
              "number": 7,
              "ticks": 3138,
              "time": 3.3525672874999994,
              "value": 0.41732283464566927
            },
            {
              "number": 7,
              "ticks": 3347,
              "time": 3.5758580979166665,
              "value": 0.41732283464566927
            },
            {
              "number": 7,
              "ticks": 3557,
              "time": 3.8002172854166663,
              "value": 0.41732283464566927
            },
            {
              "number": 7,
              "ticks": 3767,
              "time": 4.024576472916666,
              "value": 0.41732283464566927
            },
            {
              "number": 7,
              "ticks": 3977,
              "time": 4.248935660416667,
              "value": 0.41732283464566927
            },
            {
              "number": 7,
              "ticks": 4187,
              "time": 4.473294847916666,
              "value": 0.41732283464566927
            },
            {
              "number": 7,
              "ticks": 4397,
              "time": 4.697654035416666,
              "value": 0.41732283464566927
            },
            {
              "number": 7,
              "ticks": 4607,
              "time": 4.922013222916666,
              "value": 0.41732283464566927
            },
            {
              "number": 7,
              "ticks": 4817,
              "time": 5.146372410416666,
              "value": 0.41732283464566927
            },
            {
              "number": 7,
              "ticks": 5027,
              "time": 5.3707315979166665,
              "value": 0.41732283464566927
            },
            {
              "number": 7,
              "ticks": 5237,
              "time": 5.595090785416666,
              "value": 0.41732283464566927
            },
            {
              "number": 7,
              "ticks": 5447,
              "time": 5.819449972916666,
              "value": 0.41732283464566927
            },
            {
              "number": 7,
              "ticks": 5657,
              "time": 6.043809160416666,
              "value": 0.41732283464566927
            },
            {
              "number": 7,
              "ticks": 5867,
              "time": 6.268168347916666,
              "value": 0.41732283464566927
            },
            {
              "number": 7,
              "ticks": 6076,
              "time": 6.491459158333333,
              "value": 0.41732283464566927
            },
            {
              "number": 7,
              "ticks": 6287,
              "time": 6.716886722916666,
              "value": 0.41732283464566927
            },
            {
              "number": 7,
              "ticks": 6496,
              "time": 6.940177533333333,
              "value": 0.41732283464566927
            },
            {
              "number": 7,
              "ticks": 6707,
              "time": 7.165605097916666,
              "value": 0.41732283464566927
            },
            {
              "number": 7,
              "ticks": 6916,
              "time": 7.388895908333333,
              "value": 0.41732283464566927
            },
            {
              "number": 7,
              "ticks": 7127,
              "time": 7.6143234729166664,
              "value": 0.41732283464566927
            },
            {
              "number": 7,
              "ticks": 7336,
              "time": 7.837614283333333,
              "value": 0.41732283464566927
            },
            {
              "number": 7,
              "ticks": 7547,
              "time": 8.063041847916667,
              "value": 0.41732283464566927
            },
            {
              "number": 7,
              "ticks": 7756,
              "time": 8.286332658333334,
              "value": 0.41732283464566927
            },
            {
              "number": 7,
              "ticks": 7966,
              "time": 8.510691845833334,
              "value": 0.41732283464566927
            },
            {
              "number": 7,
              "ticks": 8176,
              "time": 8.735051033333333,
              "value": 0.41732283464566927
            },
            {
              "number": 7,
              "ticks": 8387,
              "time": 8.960478597916666,
              "value": 0.41732283464566927
            },
            {
              "number": 7,
              "ticks": 8596,
              "time": 9.183769408333333,
              "value": 0.41732283464566927
            },
            {
              "number": 7,
              "ticks": 8806,
              "time": 9.408128595833334,
              "value": 0.41732283464566927
            },
            {
              "number": 7,
              "ticks": 9016,
              "time": 9.632487783333334,
              "value": 0.41732283464566927
            },
            {
              "number": 7,
              "ticks": 9226,
              "time": 9.856846970833333,
              "value": 0.41732283464566927
            },
            {
              "number": 7,
              "ticks": 9436,
              "time": 10.081206158333334,
              "value": 0.41732283464566927
            },
            {
              "number": 7,
              "ticks": 9646,
              "time": 10.305565345833333,
              "value": 0.41732283464566927
            },
            {
              "number": 7,
              "ticks": 9856,
              "time": 10.529924533333334,
              "value": 0.41732283464566927
            },
            {
              "number": 7,
              "ticks": 10066,
              "time": 10.754283720833334,
              "value": 0.41732283464566927
            },
            {
              "number": 7,
              "ticks": 10276,
              "time": 10.978642908333333,
              "value": 0.41732283464566927
            },
            {
              "number": 7,
              "ticks": 10486,
              "time": 11.203002095833334,
              "value": 0.41732283464566927
            },
            {
              "number": 7,
              "ticks": 10696,
              "time": 11.427361283333333,
              "value": 0.41732283464566927
            },
            {
              "number": 7,
              "ticks": 10906,
              "time": 11.651720470833334,
              "value": 0.41732283464566927
            },
            {
              "number": 7,
              "ticks": 11116,
              "time": 11.876079658333333,
              "value": 0.41732283464566927
            },
            {
              "number": 7,
              "ticks": 11326,
              "time": 12.100438845833333,
              "value": 0.41732283464566927
            },
            {
              "number": 7,
              "ticks": 11535,
              "time": 12.323729656249998,
              "value": 0.41732283464566927
            },
            {
              "number": 7,
              "ticks": 11746,
              "time": 12.549157220833333,
              "value": 0.41732283464566927
            },
            {
              "number": 7,
              "ticks": 11955,
              "time": 12.772448031249999,
              "value": 0.41732283464566927
            },
            {
              "number": 7,
              "ticks": 12166,
              "time": 12.997875595833333,
              "value": 0.41732283464566927
            },
            {
              "number": 7,
              "ticks": 12375,
              "time": 13.22116640625,
              "value": 0.41732283464566927
            },
            {
              "number": 7,
              "ticks": 12585,
              "time": 13.445525593749998,
              "value": 0.41732283464566927
            },
            {
              "number": 7,
              "ticks": 12796,
              "time": 13.670953158333333,
              "value": 0.41732283464566927
            },
            {
              "number": 7,
              "ticks": 13005,
              "time": 13.894243968749999,
              "value": 0.41732283464566927
            },
            {
              "number": 7,
              "ticks": 13216,
              "time": 14.119671533333333,
              "value": 0.41732283464566927
            },
            {
              "number": 7,
              "ticks": 13425,
              "time": 14.34296234375,
              "value": 0.41732283464566927
            },
            {
              "number": 7,
              "ticks": 13635,
              "time": 14.567321531249998,
              "value": 0.41732283464566927
            },
            {
              "number": 7,
              "ticks": 13845,
              "time": 14.79168071875,
              "value": 0.41732283464566927
            },
            {
              "number": 7,
              "ticks": 14055,
              "time": 15.016039906249999,
              "value": 0.4251968503937008
            },
            {
              "number": 7,
              "ticks": 14265,
              "time": 15.24039909375,
              "value": 0.4251968503937008
            },
            {
              "number": 7,
              "ticks": 14475,
              "time": 15.464758281249999,
              "value": 0.4251968503937008
            },
            {
              "number": 7,
              "ticks": 14685,
              "time": 15.689117468749998,
              "value": 0.4251968503937008
            },
            {
              "number": 7,
              "ticks": 14895,
              "time": 15.91347665625,
              "value": 0.4251968503937008
            },
            {
              "number": 7,
              "ticks": 15105,
              "time": 16.13783584375,
              "value": 0.4251968503937008
            },
            {
              "number": 7,
              "ticks": 15315,
              "time": 16.36219503125,
              "value": 0.4251968503937008
            },
            {
              "number": 7,
              "ticks": 15525,
              "time": 16.58655421875,
              "value": 0.4251968503937008
            },
            {
              "number": 7,
              "ticks": 15735,
              "time": 16.81091340625,
              "value": 0.4251968503937008
            },
            {
              "number": 7,
              "ticks": 15945,
              "time": 17.035272593749998,
              "value": 0.4251968503937008
            },
            {
              "number": 7,
              "ticks": 16155,
              "time": 17.25963178125,
              "value": 0.4251968503937008
            },
            {
              "number": 7,
              "ticks": 16365,
              "time": 17.48399096875,
              "value": 0.4251968503937008
            },
            {
              "number": 7,
              "ticks": 16575,
              "time": 17.70835015625,
              "value": 0.4251968503937008
            },
            {
              "number": 7,
              "ticks": 16784,
              "time": 17.931640966666667,
              "value": 0.4251968503937008
            },
            {
              "number": 7,
              "ticks": 16995,
              "time": 18.157068531249998,
              "value": 0.4251968503937008
            },
            {
              "number": 7,
              "ticks": 17204,
              "time": 18.380359341666665,
              "value": 0.4251968503937008
            },
            {
              "number": 7,
              "ticks": 17414,
              "time": 18.604718529166668,
              "value": 0.4251968503937008
            },
            {
              "number": 7,
              "ticks": 17624,
              "time": 18.829077716666667,
              "value": 0.4251968503937008
            },
            {
              "number": 7,
              "ticks": 17835,
              "time": 19.054505281249998,
              "value": 0.4251968503937008
            },
            {
              "number": 7,
              "ticks": 18044,
              "time": 19.277796091666666,
              "value": 0.4251968503937008
            },
            {
              "number": 7,
              "ticks": 18254,
              "time": 19.502155279166665,
              "value": 0.4251968503937008
            },
            {
              "number": 7,
              "ticks": 18465,
              "time": 19.72758284375,
              "value": 0.4251968503937008
            },
            {
              "number": 7,
              "ticks": 18674,
              "time": 19.950873654166667,
              "value": 0.4251968503937008
            },
            {
              "number": 7,
              "ticks": 18884,
              "time": 20.175232841666666,
              "value": 0.4251968503937008
            },
            {
              "number": 7,
              "ticks": 19095,
              "time": 20.400660406249997,
              "value": 0.4251968503937008
            },
            {
              "number": 7,
              "ticks": 19304,
              "time": 20.623951216666665,
              "value": 0.4251968503937008
            },
            {
              "number": 7,
              "ticks": 19514,
              "time": 20.848310404166668,
              "value": 0.4251968503937008
            },
            {
              "number": 7,
              "ticks": 19724,
              "time": 21.072669591666667,
              "value": 0.4251968503937008
            },
            {
              "number": 7,
              "ticks": 19934,
              "time": 21.297028779166666,
              "value": 0.4251968503937008
            },
            {
              "number": 7,
              "ticks": 20144,
              "time": 21.521387966666666,
              "value": 0.4251968503937008
            },
            {
              "number": 7,
              "ticks": 20354,
              "time": 21.745747154166665,
              "value": 0.4251968503937008
            },
            {
              "number": 7,
              "ticks": 20564,
              "time": 21.970106341666668,
              "value": 0.4251968503937008
            },
            {
              "number": 7,
              "ticks": 20774,
              "time": 22.194465529166667,
              "value": 0.4251968503937008
            },
            {
              "number": 7,
              "ticks": 20984,
              "time": 22.418824716666666,
              "value": 0.4251968503937008
            },
            {
              "number": 7,
              "ticks": 21194,
              "time": 22.643183904166666,
              "value": 0.4251968503937008
            },
            {
              "number": 7,
              "ticks": 21404,
              "time": 22.867543091666665,
              "value": 0.4251968503937008
            },
            {
              "number": 7,
              "ticks": 21614,
              "time": 23.091902279166668,
              "value": 0.4251968503937008
            },
            {
              "number": 7,
              "ticks": 21824,
              "time": 23.316261466666667,
              "value": 0.4251968503937008
            },
            {
              "number": 7,
              "ticks": 22034,
              "time": 23.540620654166666,
              "value": 0.4251968503937008
            },
            {
              "number": 7,
              "ticks": 22243,
              "time": 23.76391146458333,
              "value": 0.4251968503937008
            },
            {
              "number": 7,
              "ticks": 22454,
              "time": 23.989339029166665,
              "value": 0.4251968503937008
            },
            {
              "number": 7,
              "ticks": 22663,
              "time": 24.21262983958333,
              "value": 0.4251968503937008
            },
            {
              "number": 7,
              "ticks": 22874,
              "time": 24.438057404166667,
              "value": 0.4251968503937008
            },
            {
              "number": 7,
              "ticks": 23083,
              "time": 24.66134821458333,
              "value": 0.4251968503937008
            },
            {
              "number": 7,
              "ticks": 23293,
              "time": 24.88570740208333,
              "value": 0.4251968503937008
            },
            {
              "number": 7,
              "ticks": 23504,
              "time": 25.111134966666665,
              "value": 0.4251968503937008
            },
            {
              "number": 7,
              "ticks": 23713,
              "time": 25.33442577708333,
              "value": 0.4251968503937008
            },
            {
              "number": 7,
              "ticks": 23923,
              "time": 25.55878496458333,
              "value": 0.4251968503937008
            },
            {
              "number": 7,
              "ticks": 24133,
              "time": 25.78314415208333,
              "value": 0.4251968503937008
            },
            {
              "number": 7,
              "ticks": 24344,
              "time": 26.008571716666665,
              "value": 0.4251968503937008
            },
            {
              "number": 7,
              "ticks": 24553,
              "time": 26.23186252708333,
              "value": 0.4251968503937008
            },
            {
              "number": 7,
              "ticks": 24764,
              "time": 26.457290091666668,
              "value": 0.4251968503937008
            },
            {
              "number": 7,
              "ticks": 24973,
              "time": 26.68058090208333,
              "value": 0.4251968503937008
            },
            {
              "number": 7,
              "ticks": 25183,
              "time": 26.90494008958333,
              "value": 0.4251968503937008
            },
            {
              "number": 7,
              "ticks": 25393,
              "time": 27.12929927708333,
              "value": 0.4251968503937008
            },
            {
              "number": 7,
              "ticks": 25603,
              "time": 27.35365846458333,
              "value": 0.4251968503937008
            },
            {
              "number": 7,
              "ticks": 25813,
              "time": 27.57801765208333,
              "value": 0.4251968503937008
            },
            {
              "number": 7,
              "ticks": 26023,
              "time": 27.80237683958333,
              "value": 0.4251968503937008
            },
            {
              "number": 7,
              "ticks": 26233,
              "time": 28.02673602708333,
              "value": 0.4251968503937008
            },
            {
              "number": 7,
              "ticks": 26443,
              "time": 28.25109521458333,
              "value": 0.4251968503937008
            },
            {
              "number": 7,
              "ticks": 26653,
              "time": 28.47545440208333,
              "value": 0.4251968503937008
            },
            {
              "number": 7,
              "ticks": 26863,
              "time": 28.69981358958333,
              "value": 0.4251968503937008
            },
            {
              "number": 7,
              "ticks": 27073,
              "time": 28.92417277708333,
              "value": 0.4251968503937008
            },
            {
              "number": 7,
              "ticks": 27283,
              "time": 29.14853196458333,
              "value": 0.4251968503937008
            },
            {
              "number": 7,
              "ticks": 27493,
              "time": 29.37289115208333,
              "value": 0.4330708661417323
            },
            {
              "number": 7,
              "ticks": 27702,
              "time": 29.596181962499998,
              "value": 0.4330708661417323
            },
            {
              "number": 7,
              "ticks": 27912,
              "time": 29.820541149999997,
              "value": 0.4330708661417323
            },
            {
              "number": 7,
              "ticks": 28123,
              "time": 30.04596871458333,
              "value": 0.4330708661417323
            },
            {
              "number": 7,
              "ticks": 28332,
              "time": 30.269259525,
              "value": 0.4330708661417323
            },
            {
              "number": 7,
              "ticks": 28543,
              "time": 30.49468708958333,
              "value": 0.4330708661417323
            },
            {
              "number": 7,
              "ticks": 28752,
              "time": 30.717977899999998,
              "value": 0.4330708661417323
            },
            {
              "number": 7,
              "ticks": 28962,
              "time": 30.942337087499997,
              "value": 0.4330708661417323
            },
            {
              "number": 7,
              "ticks": 29173,
              "time": 31.16776465208333,
              "value": 0.4330708661417323
            },
            {
              "number": 7,
              "ticks": 29382,
              "time": 31.3910554625,
              "value": 0.4330708661417323
            },
            {
              "number": 7,
              "ticks": 29593,
              "time": 31.61648302708333,
              "value": 0.4330708661417323
            },
            {
              "number": 7,
              "ticks": 29802,
              "time": 31.839773837499997,
              "value": 0.4330708661417323
            },
            {
              "number": 7,
              "ticks": 30013,
              "time": 32.06520140208333,
              "value": 0.4330708661417323
            },
            {
              "number": 7,
              "ticks": 30222,
              "time": 32.288492212499996,
              "value": 0.4330708661417323
            },
            {
              "number": 7,
              "ticks": 30432,
              "time": 32.512851399999995,
              "value": 0.4330708661417323
            },
            {
              "number": 7,
              "ticks": 30642,
              "time": 32.737210587499995,
              "value": 0.4330708661417323
            },
            {
              "number": 7,
              "ticks": 30852,
              "time": 32.961569775,
              "value": 0.4330708661417323
            },
            {
              "number": 7,
              "ticks": 31062,
              "time": 33.1859289625,
              "value": 0.4330708661417323
            },
            {
              "number": 7,
              "ticks": 31272,
              "time": 33.41028815,
              "value": 0.4330708661417323
            },
            {
              "number": 7,
              "ticks": 31482,
              "time": 33.6346473375,
              "value": 0.4330708661417323
            },
            {
              "number": 7,
              "ticks": 31692,
              "time": 33.859006525,
              "value": 0.4330708661417323
            },
            {
              "number": 7,
              "ticks": 31902,
              "time": 34.083365712500004,
              "value": 0.4330708661417323
            },
            {
              "number": 7,
              "ticks": 32112,
              "time": 34.307724900000004,
              "value": 0.4330708661417323
            },
            {
              "number": 7,
              "ticks": 32322,
              "time": 34.5320840875,
              "value": 0.4330708661417323
            },
            {
              "number": 7,
              "ticks": 32532,
              "time": 34.756443275,
              "value": 0.4330708661417323
            },
            {
              "number": 7,
              "ticks": 32742,
              "time": 34.9808024625,
              "value": 0.4330708661417323
            },
            {
              "number": 7,
              "ticks": 32951,
              "time": 35.20409327291666,
              "value": 0.4330708661417323
            },
            {
              "number": 7,
              "ticks": 33162,
              "time": 35.4295208375,
              "value": 0.4330708661417323
            },
            {
              "number": 7,
              "ticks": 33371,
              "time": 35.652811647916664,
              "value": 0.4330708661417323
            },
            {
              "number": 7,
              "ticks": 33581,
              "time": 35.87717083541666,
              "value": 0.4330708661417323
            },
            {
              "number": 7,
              "ticks": 33792,
              "time": 36.1025984,
              "value": 0.4330708661417323
            },
            {
              "number": 7,
              "ticks": 34001,
              "time": 36.32588921041666,
              "value": 0.4330708661417323
            },
            {
              "number": 7,
              "ticks": 34212,
              "time": 36.551316775000004,
              "value": 0.4330708661417323
            },
            {
              "number": 7,
              "ticks": 34421,
              "time": 36.77460758541666,
              "value": 0.4330708661417323
            },
            {
              "number": 7,
              "ticks": 34631,
              "time": 36.99896677291666,
              "value": 0.4330708661417323
            },
            {
              "number": 7,
              "ticks": 34842,
              "time": 37.2243943375,
              "value": 0.4330708661417323
            },
            {
              "number": 7,
              "ticks": 35051,
              "time": 37.44768514791666,
              "value": 0.4330708661417323
            },
            {
              "number": 7,
              "ticks": 35262,
              "time": 37.6731127125,
              "value": 0.4330708661417323
            },
            {
              "number": 7,
              "ticks": 35471,
              "time": 37.896403522916664,
              "value": 0.4330708661417323
            },
            {
              "number": 7,
              "ticks": 35681,
              "time": 38.12076271041666,
              "value": 0.4330708661417323
            },
            {
              "number": 7,
              "ticks": 35891,
              "time": 38.34512189791666,
              "value": 0.4330708661417323
            },
            {
              "number": 7,
              "ticks": 36101,
              "time": 38.56948108541666,
              "value": 0.4330708661417323
            },
            {
              "number": 7,
              "ticks": 36311,
              "time": 38.79384027291666,
              "value": 0.4330708661417323
            },
            {
              "number": 7,
              "ticks": 36521,
              "time": 39.01819946041666,
              "value": 0.4330708661417323
            },
            {
              "number": 7,
              "ticks": 36731,
              "time": 39.24255864791666,
              "value": 0.4330708661417323
            },
            {
              "number": 7,
              "ticks": 36941,
              "time": 39.46691783541666,
              "value": 0.4330708661417323
            },
            {
              "number": 7,
              "ticks": 37151,
              "time": 39.69127702291666,
              "value": 0.4330708661417323
            },
            {
              "number": 7,
              "ticks": 37361,
              "time": 39.91563621041666,
              "value": 0.4330708661417323
            },
            {
              "number": 7,
              "ticks": 37571,
              "time": 40.139995397916664,
              "value": 0.4330708661417323
            },
            {
              "number": 7,
              "ticks": 37781,
              "time": 40.36435458541666,
              "value": 0.4330708661417323
            },
            {
              "number": 7,
              "ticks": 37991,
              "time": 40.58871377291666,
              "value": 0.4330708661417323
            },
            {
              "number": 7,
              "ticks": 38201,
              "time": 40.81307296041666,
              "value": 0.4330708661417323
            },
            {
              "number": 7,
              "ticks": 38410,
              "time": 41.036363770833326,
              "value": 0.4330708661417323
            },
            {
              "number": 7,
              "ticks": 38621,
              "time": 41.26179133541666,
              "value": 0.4330708661417323
            },
            {
              "number": 7,
              "ticks": 38831,
              "time": 41.48615052291666,
              "value": 0.4330708661417323
            },
            {
              "number": 7,
              "ticks": 39040,
              "time": 41.70944133333333,
              "value": 0.4330708661417323
            },
            {
              "number": 7,
              "ticks": 39251,
              "time": 41.93486889791666,
              "value": 0.4330708661417323
            },
            {
              "number": 7,
              "ticks": 39460,
              "time": 42.15815970833333,
              "value": 0.4330708661417323
            },
            {
              "number": 7,
              "ticks": 39671,
              "time": 42.383587272916664,
              "value": 0.4330708661417323
            },
            {
              "number": 7,
              "ticks": 39880,
              "time": 42.60687808333333,
              "value": 0.4330708661417323
            },
            {
              "number": 7,
              "ticks": 40090,
              "time": 42.83123727083333,
              "value": 0.4330708661417323
            },
            {
              "number": 7,
              "ticks": 40301,
              "time": 43.05666483541666,
              "value": 0.4330708661417323
            },
            {
              "number": 7,
              "ticks": 40510,
              "time": 43.279955645833326,
              "value": 0.4330708661417323
            },
            {
              "number": 7,
              "ticks": 40721,
              "time": 43.50538321041666,
              "value": 0.4330708661417323
            },
            {
              "number": 7,
              "ticks": 40930,
              "time": 43.72867402083333,
              "value": 0.4409448818897638
            },
            {
              "number": 7,
              "ticks": 41140,
              "time": 43.95303320833333,
              "value": 0.4409448818897638
            },
            {
              "number": 7,
              "ticks": 41350,
              "time": 44.17739239583333,
              "value": 0.4409448818897638
            },
            {
              "number": 7,
              "ticks": 41560,
              "time": 44.40175158333333,
              "value": 0.4409448818897638
            },
            {
              "number": 7,
              "ticks": 41770,
              "time": 44.62611077083333,
              "value": 0.4409448818897638
            },
            {
              "number": 7,
              "ticks": 41980,
              "time": 44.85046995833333,
              "value": 0.4409448818897638
            },
            {
              "number": 7,
              "ticks": 42190,
              "time": 45.07482914583333,
              "value": 0.4409448818897638
            },
            {
              "number": 7,
              "ticks": 42400,
              "time": 45.299188333333326,
              "value": 0.4409448818897638
            },
            {
              "number": 7,
              "ticks": 42610,
              "time": 45.523547520833326,
              "value": 0.4409448818897638
            },
            {
              "number": 7,
              "ticks": 42820,
              "time": 45.747906708333325,
              "value": 0.4409448818897638
            },
            {
              "number": 7,
              "ticks": 43030,
              "time": 45.97226589583333,
              "value": 0.4409448818897638
            },
            {
              "number": 7,
              "ticks": 43240,
              "time": 46.19662508333333,
              "value": 0.4409448818897638
            },
            {
              "number": 7,
              "ticks": 43450,
              "time": 46.42098427083333,
              "value": 0.4409448818897638
            },
            {
              "number": 7,
              "ticks": 43659,
              "time": 46.644275081249994,
              "value": 0.4409448818897638
            },
            {
              "number": 7,
              "ticks": 43870,
              "time": 46.86970264583333,
              "value": 0.4409448818897638
            },
            {
              "number": 7,
              "ticks": 44079,
              "time": 47.09299345625,
              "value": 0.4409448818897638
            },
            {
              "number": 7,
              "ticks": 44289,
              "time": 47.31735264375,
              "value": 0.4409448818897638
            },
            {
              "number": 7,
              "ticks": 44500,
              "time": 47.542780208333326,
              "value": 0.4409448818897638
            },
            {
              "number": 7,
              "ticks": 44709,
              "time": 47.76607101875,
              "value": 0.4409448818897638
            },
            {
              "number": 7,
              "ticks": 44920,
              "time": 47.991498583333325,
              "value": 0.4409448818897638
            },
            {
              "number": 7,
              "ticks": 45129,
              "time": 48.214789393749996,
              "value": 0.4409448818897638
            },
            {
              "number": 7,
              "ticks": 45340,
              "time": 48.44021695833333,
              "value": 0.4409448818897638
            },
            {
              "number": 7,
              "ticks": 45549,
              "time": 48.663507768749994,
              "value": 0.4409448818897638
            },
            {
              "number": 7,
              "ticks": 45760,
              "time": 48.88893533333333,
              "value": 0.4409448818897638
            },
            {
              "number": 7,
              "ticks": 45969,
              "time": 49.11222614374999,
              "value": 0.4409448818897638
            },
            {
              "number": 7,
              "ticks": 46180,
              "time": 49.33765370833333,
              "value": 0.4409448818897638
            },
            {
              "number": 7,
              "ticks": 46389,
              "time": 49.56094451875,
              "value": 0.4409448818897638
            },
            {
              "number": 7,
              "ticks": 46599,
              "time": 49.78530370625,
              "value": 0.4409448818897638
            },
            {
              "number": 7,
              "ticks": 46809,
              "time": 50.00966289375,
              "value": 0.4409448818897638
            },
            {
              "number": 7,
              "ticks": 47019,
              "time": 50.23402208125,
              "value": 0.4409448818897638
            },
            {
              "number": 7,
              "ticks": 47229,
              "time": 50.458381268749996,
              "value": 0.4409448818897638
            },
            {
              "number": 7,
              "ticks": 47439,
              "time": 50.682740456249995,
              "value": 0.4409448818897638
            },
            {
              "number": 7,
              "ticks": 47649,
              "time": 50.907099643749994,
              "value": 0.4409448818897638
            },
            {
              "number": 7,
              "ticks": 47859,
              "time": 51.131458831249994,
              "value": 0.4409448818897638
            },
            {
              "number": 7,
              "ticks": 48069,
              "time": 51.35581801874999,
              "value": 0.4409448818897638
            },
            {
              "number": 7,
              "ticks": 48279,
              "time": 51.58017720624999,
              "value": 0.4409448818897638
            },
            {
              "number": 7,
              "ticks": 48489,
              "time": 51.80453639375,
              "value": 0.4409448818897638
            },
            {
              "number": 7,
              "ticks": 48699,
              "time": 52.02889558125,
              "value": 0.4409448818897638
            },
            {
              "number": 7,
              "ticks": 48909,
              "time": 52.25325476875,
              "value": 0.4409448818897638
            },
            {
              "number": 7,
              "ticks": 49118,
              "time": 52.47654557916666,
              "value": 0.4409448818897638
            },
            {
              "number": 7,
              "ticks": 49329,
              "time": 52.701973143749996,
              "value": 0.4409448818897638
            },
            {
              "number": 7,
              "ticks": 49538,
              "time": 52.92526395416667,
              "value": 0.4409448818897638
            },
            {
              "number": 7,
              "ticks": 49749,
              "time": 53.150691518749994,
              "value": 0.4409448818897638
            },
            {
              "number": 7,
              "ticks": 49958,
              "time": 53.373982329166665,
              "value": 0.4409448818897638
            },
            {
              "number": 7,
              "ticks": 50169,
              "time": 53.59940989374999,
              "value": 0.4409448818897638
            },
            {
              "number": 7,
              "ticks": 50378,
              "time": 53.822700704166664,
              "value": 0.4409448818897638
            },
            {
              "number": 7,
              "ticks": 50589,
              "time": 54.04812826875,
              "value": 0.4409448818897638
            },
            {
              "number": 7,
              "ticks": 50798,
              "time": 54.27141907916666,
              "value": 0.4409448818897638
            },
            {
              "number": 7,
              "ticks": 51009,
              "time": 54.49684664375,
              "value": 0.4409448818897638
            },
            {
              "number": 7,
              "ticks": 51218,
              "time": 54.72013745416666,
              "value": 0.4409448818897638
            },
            {
              "number": 7,
              "ticks": 51429,
              "time": 54.945565018749996,
              "value": 0.4409448818897638
            },
            {
              "number": 7,
              "ticks": 51638,
              "time": 55.16885582916667,
              "value": 0.4409448818897638
            },
            {
              "number": 7,
              "ticks": 51848,
              "time": 55.393215016666666,
              "value": 0.4409448818897638
            },
            {
              "number": 7,
              "ticks": 52058,
              "time": 55.617574204166665,
              "value": 0.4409448818897638
            },
            {
              "number": 7,
              "ticks": 52268,
              "time": 55.841933391666664,
              "value": 0.4409448818897638
            },
            {
              "number": 7,
              "ticks": 52478,
              "time": 56.066292579166664,
              "value": 0.4409448818897638
            },
            {
              "number": 7,
              "ticks": 52688,
              "time": 56.29065176666666,
              "value": 0.4409448818897638
            },
            {
              "number": 7,
              "ticks": 52898,
              "time": 56.51501095416666,
              "value": 0.4409448818897638
            },
            {
              "number": 7,
              "ticks": 53108,
              "time": 56.73937014166666,
              "value": 0.4409448818897638
            },
            {
              "number": 7,
              "ticks": 53318,
              "time": 56.96372932916666,
              "value": 0.4409448818897638
            },
            {
              "number": 7,
              "ticks": 53528,
              "time": 57.18808851666666,
              "value": 0.4409448818897638
            },
            {
              "number": 7,
              "ticks": 53738,
              "time": 57.41244770416666,
              "value": 0.4409448818897638
            },
            {
              "number": 7,
              "ticks": 53948,
              "time": 57.636806891666666,
              "value": 0.4409448818897638
            },
            {
              "number": 7,
              "ticks": 54158,
              "time": 57.861166079166665,
              "value": 0.4409448818897638
            },
            {
              "number": 7,
              "ticks": 54368,
              "time": 58.085525266666664,
              "value": 0.44881889763779526
            },
            {
              "number": 7,
              "ticks": 54577,
              "time": 58.30881607708333,
              "value": 0.44881889763779526
            },
            {
              "number": 7,
              "ticks": 54788,
              "time": 58.53424364166666,
              "value": 0.44881889763779526
            },
            {
              "number": 7,
              "ticks": 54997,
              "time": 58.757534452083334,
              "value": 0.44881889763779526
            },
            {
              "number": 7,
              "ticks": 55208,
              "time": 58.98296201666666,
              "value": 0.44881889763779526
            },
            {
              "number": 7,
              "ticks": 55417,
              "time": 59.20625282708333,
              "value": 0.44881889763779526
            },
            {
              "number": 7,
              "ticks": 55628,
              "time": 59.43168039166666,
              "value": 0.44881889763779526
            },
            {
              "number": 7,
              "ticks": 55837,
              "time": 59.65497120208333,
              "value": 0.44881889763779526
            },
            {
              "number": 7,
              "ticks": 56047,
              "time": 59.87933038958333,
              "value": 0.44881889763779526
            },
            {
              "number": 7,
              "ticks": 56258,
              "time": 60.104757954166665,
              "value": 0.44881889763779526
            },
            {
              "number": 7,
              "ticks": 56467,
              "time": 60.32804876458333,
              "value": 0.44881889763779526
            },
            {
              "number": 7,
              "ticks": 56678,
              "time": 60.553476329166664,
              "value": 0.44881889763779526
            },
            {
              "number": 7,
              "ticks": 56887,
              "time": 60.77676713958333,
              "value": 0.44881889763779526
            },
            {
              "number": 7,
              "ticks": 57097,
              "time": 61.001126327083334,
              "value": 0.44881889763779526
            },
            {
              "number": 7,
              "ticks": 57307,
              "time": 61.22548551458333,
              "value": 0.44881889763779526
            },
            {
              "number": 7,
              "ticks": 57517,
              "time": 61.44984470208333,
              "value": 0.44881889763779526
            },
            {
              "number": 7,
              "ticks": 57727,
              "time": 61.67420388958333,
              "value": 0.44881889763779526
            },
            {
              "number": 7,
              "ticks": 57937,
              "time": 61.89856307708333,
              "value": 0.44881889763779526
            },
            {
              "number": 7,
              "ticks": 58147,
              "time": 62.12292226458333,
              "value": 0.44881889763779526
            },
            {
              "number": 7,
              "ticks": 58357,
              "time": 62.34728145208333,
              "value": 0.44881889763779526
            },
            {
              "number": 7,
              "ticks": 58567,
              "time": 62.57164063958333,
              "value": 0.44881889763779526
            },
            {
              "number": 7,
              "ticks": 58777,
              "time": 62.79599982708333,
              "value": 0.44881889763779526
            },
            {
              "number": 7,
              "ticks": 58987,
              "time": 63.02035901458333,
              "value": 0.44881889763779526
            },
            {
              "number": 7,
              "ticks": 59197,
              "time": 63.24471820208333,
              "value": 0.44881889763779526
            },
            {
              "number": 7,
              "ticks": 59407,
              "time": 63.46907738958333,
              "value": 0.44881889763779526
            },
            {
              "number": 7,
              "ticks": 59617,
              "time": 63.69343657708333,
              "value": 0.44881889763779526
            },
            {
              "number": 7,
              "ticks": 59826,
              "time": 63.916727387499996,
              "value": 0.44881889763779526
            },
            {
              "number": 7,
              "ticks": 60037,
              "time": 64.14215495208333,
              "value": 0.44881889763779526
            },
            {
              "number": 7,
              "ticks": 60246,
              "time": 64.3654457625,
              "value": 0.44881889763779526
            },
            {
              "number": 7,
              "ticks": 60457,
              "time": 64.59087332708333,
              "value": 0.44881889763779526
            },
            {
              "number": 7,
              "ticks": 60666,
              "time": 64.8141641375,
              "value": 0.44881889763779526
            },
            {
              "number": 7,
              "ticks": 60877,
              "time": 65.03959170208333,
              "value": 0.44881889763779526
            },
            {
              "number": 7,
              "ticks": 61086,
              "time": 65.2628825125,
              "value": 0.44881889763779526
            },
            {
              "number": 7,
              "ticks": 61297,
              "time": 65.48831007708333,
              "value": 0.44881889763779526
            },
            {
              "number": 7,
              "ticks": 61506,
              "time": 65.71160088749998,
              "value": 0.44881889763779526
            },
            {
              "number": 7,
              "ticks": 61717,
              "time": 65.93702845208333,
              "value": 0.44881889763779526
            },
            {
              "number": 7,
              "ticks": 61926,
              "time": 66.1603192625,
              "value": 0.44881889763779526
            },
            {
              "number": 7,
              "ticks": 62137,
              "time": 66.38574682708332,
              "value": 0.44881889763779526
            },
            {
              "number": 7,
              "ticks": 62346,
              "time": 66.6090376375,
              "value": 0.44881889763779526
            },
            {
              "number": 7,
              "ticks": 62556,
              "time": 66.833396825,
              "value": 0.44881889763779526
            },
            {
              "number": 7,
              "ticks": 62766,
              "time": 67.0577560125,
              "value": 0.44881889763779526
            },
            {
              "number": 7,
              "ticks": 62976,
              "time": 67.28211519999999,
              "value": 0.44881889763779526
            },
            {
              "number": 7,
              "ticks": 63186,
              "time": 67.50647438749999,
              "value": 0.44881889763779526
            },
            {
              "number": 7,
              "ticks": 63396,
              "time": 67.73083357499999,
              "value": 0.44881889763779526
            },
            {
              "number": 7,
              "ticks": 63606,
              "time": 67.95519276249999,
              "value": 0.44881889763779526
            },
            {
              "number": 7,
              "ticks": 63816,
              "time": 68.17955194999999,
              "value": 0.44881889763779526
            },
            {
              "number": 7,
              "ticks": 64026,
              "time": 68.40391113749999,
              "value": 0.44881889763779526
            },
            {
              "number": 7,
              "ticks": 64236,
              "time": 68.62827032499999,
              "value": 0.44881889763779526
            },
            {
              "number": 7,
              "ticks": 64446,
              "time": 68.85262951249999,
              "value": 0.44881889763779526
            },
            {
              "number": 7,
              "ticks": 64656,
              "time": 69.07698869999999,
              "value": 0.44881889763779526
            },
            {
              "number": 7,
              "ticks": 64866,
              "time": 69.30134788749999,
              "value": 0.44881889763779526
            },
            {
              "number": 7,
              "ticks": 65076,
              "time": 69.52570707499999,
              "value": 0.44881889763779526
            },
            {
              "number": 7,
              "ticks": 65285,
              "time": 69.74899788541666,
              "value": 0.44881889763779526
            },
            {
              "number": 7,
              "ticks": 65495,
              "time": 69.97335707291666,
              "value": 0.44881889763779526
            },
            {
              "number": 7,
              "ticks": 65706,
              "time": 70.19878463749998,
              "value": 0.44881889763779526
            },
            {
              "number": 7,
              "ticks": 65915,
              "time": 70.42207544791665,
              "value": 0.44881889763779526
            },
            {
              "number": 7,
              "ticks": 66126,
              "time": 70.6475030125,
              "value": 0.44881889763779526
            },
            {
              "number": 7,
              "ticks": 66335,
              "time": 70.87079382291665,
              "value": 0.44881889763779526
            },
            {
              "number": 7,
              "ticks": 66546,
              "time": 71.0962213875,
              "value": 0.44881889763779526
            },
            {
              "number": 7,
              "ticks": 66755,
              "time": 71.31951219791665,
              "value": 0.44881889763779526
            },
            {
              "number": 7,
              "ticks": 66966,
              "time": 71.5449397625,
              "value": 0.44881889763779526
            },
            {
              "number": 7,
              "ticks": 67175,
              "time": 71.76823057291666,
              "value": 0.44881889763779526
            }
          ],
          "10": [
            {
              "number": 10,
              "ticks": 618,
              "time": 0.6602570375,
              "value": 0.5039370078740157
            },
            {
              "number": 10,
              "ticks": 1680,
              "time": 1.7948735,
              "value": 0.5039370078740157
            },
            {
              "number": 10,
              "ticks": 2743,
              "time": 2.9305583395833334,
              "value": 0.5118110236220472
            },
            {
              "number": 10,
              "ticks": 3805,
              "time": 4.065174802083333,
              "value": 0.5196850393700787
            },
            {
              "number": 10,
              "ticks": 4868,
              "time": 5.200859641666667,
              "value": 0.5275590551181102
            },
            {
              "number": 10,
              "ticks": 5931,
              "time": 6.336544481249999,
              "value": 0.5354330708661418
            },
            {
              "number": 10,
              "ticks": 6993,
              "time": 7.471160943749999,
              "value": 0.5433070866141733
            },
            {
              "number": 10,
              "ticks": 8057,
              "time": 8.607914160416666,
              "value": 0.5511811023622047
            },
            {
              "number": 10,
              "ticks": 9119,
              "time": 9.742530622916664,
              "value": 0.5590551181102362
            },
            {
              "number": 10,
              "ticks": 10181,
              "time": 10.877147085416667,
              "value": 0.5669291338582677
            },
            {
              "number": 10,
              "ticks": 11244,
              "time": 12.012831925,
              "value": 0.5748031496062992
            },
            {
              "number": 10,
              "ticks": 12307,
              "time": 13.148516764583333,
              "value": 0.5826771653543307
            },
            {
              "number": 10,
              "ticks": 13370,
              "time": 14.284201604166666,
              "value": 0.5905511811023622
            },
            {
              "number": 10,
              "ticks": 14432,
              "time": 15.418818066666665,
              "value": 0.5984251968503937
            },
            {
              "number": 10,
              "ticks": 15495,
              "time": 16.55450290625,
              "value": 0.6062992125984252
            },
            {
              "number": 10,
              "ticks": 16557,
              "time": 17.68911936875,
              "value": 0.6141732283464567
            },
            {
              "number": 10,
              "ticks": 17620,
              "time": 18.824804208333333,
              "value": 0.6220472440944882
            },
            {
              "number": 10,
              "ticks": 18683,
              "time": 19.960489047916663,
              "value": 0.6299212598425197
            },
            {
              "number": 10,
              "ticks": 19745,
              "time": 21.095105510416666,
              "value": 0.6377952755905512
            },
            {
              "number": 10,
              "ticks": 20808,
              "time": 22.23079035,
              "value": 0.6456692913385826
            },
            {
              "number": 10,
              "ticks": 21871,
              "time": 23.36647518958333,
              "value": 0.6535433070866141
            },
            {
              "number": 10,
              "ticks": 22933,
              "time": 24.501091652083332,
              "value": 0.6614173228346457
            },
            {
              "number": 10,
              "ticks": 23996,
              "time": 25.636776491666666,
              "value": 0.6692913385826772
            },
            {
              "number": 10,
              "ticks": 25059,
              "time": 26.772461331249996,
              "value": 0.6771653543307087
            },
            {
              "number": 10,
              "ticks": 26121,
              "time": 27.90707779375,
              "value": 0.6850393700787402
            },
            {
              "number": 10,
              "ticks": 27184,
              "time": 29.042762633333332,
              "value": 0.6929133858267716
            },
            {
              "number": 10,
              "ticks": 28247,
              "time": 30.178447472916666,
              "value": 0.7007874015748031
            },
            {
              "number": 10,
              "ticks": 29310,
              "time": 31.3141323125,
              "value": 0.7086614173228346
            },
            {
              "number": 10,
              "ticks": 30372,
              "time": 32.448748775,
              "value": 0.7165354330708661
            },
            {
              "number": 10,
              "ticks": 31435,
              "time": 33.58443361458333,
              "value": 0.7244094488188977
            },
            {
              "number": 10,
              "ticks": 32497,
              "time": 34.71905007708333,
              "value": 0.7322834645669292
            },
            {
              "number": 10,
              "ticks": 33560,
              "time": 35.854734916666665,
              "value": 0.7401574803149606
            },
            {
              "number": 10,
              "ticks": 34623,
              "time": 36.99041975624999,
              "value": 0.7480314960629921
            },
            {
              "number": 10,
              "ticks": 35685,
              "time": 38.12503621875,
              "value": 0.7559055118110236
            },
            {
              "number": 10,
              "ticks": 36748,
              "time": 39.26072105833333,
              "value": 0.7637795275590551
            },
            {
              "number": 10,
              "ticks": 37811,
              "time": 40.39640589791666,
              "value": 0.7716535433070866
            },
            {
              "number": 10,
              "ticks": 38873,
              "time": 41.531022360416664,
              "value": 0.7795275590551181
            },
            {
              "number": 10,
              "ticks": 39936,
              "time": 42.6667072,
              "value": 0.7874015748031497
            },
            {
              "number": 10,
              "ticks": 40999,
              "time": 43.80239203958333,
              "value": 0.7952755905511811
            },
            {
              "number": 10,
              "ticks": 42061,
              "time": 44.93700850208333,
              "value": 0.8031496062992126
            },
            {
              "number": 10,
              "ticks": 43124,
              "time": 46.072693341666664,
              "value": 0.8110236220472441
            },
            {
              "number": 10,
              "ticks": 44187,
              "time": 47.20837818125,
              "value": 0.8188976377952756
            },
            {
              "number": 10,
              "ticks": 45250,
              "time": 48.34406302083333,
              "value": 0.8267716535433071
            },
            {
              "number": 10,
              "ticks": 46312,
              "time": 49.47867948333333,
              "value": 0.8346456692913385
            },
            {
              "number": 10,
              "ticks": 47374,
              "time": 50.613295945833336,
              "value": 0.84251968503937
            },
            {
              "number": 10,
              "ticks": 48437,
              "time": 51.74898078541666,
              "value": 0.8503937007874016
            },
            {
              "number": 10,
              "ticks": 49500,
              "time": 52.884665625,
              "value": 0.8582677165354331
            },
            {
              "number": 10,
              "ticks": 50562,
              "time": 54.0192820875,
              "value": 0.8661417322834646
            },
            {
              "number": 10,
              "ticks": 51626,
              "time": 55.15603530416666,
              "value": 0.8740157480314961
            },
            {
              "number": 10,
              "ticks": 52688,
              "time": 56.29065176666666,
              "value": 0.8818897637795275
            },
            {
              "number": 10,
              "ticks": 53750,
              "time": 57.42526822916667,
              "value": 0.889763779527559
            },
            {
              "number": 10,
              "ticks": 54813,
              "time": 58.560953068749996,
              "value": 0.8976377952755905
            },
            {
              "number": 10,
              "ticks": 55876,
              "time": 59.69663790833333,
              "value": 0.905511811023622
            },
            {
              "number": 10,
              "ticks": 56938,
              "time": 60.831254370833335,
              "value": 0.9133858267716536
            },
            {
              "number": 10,
              "ticks": 58001,
              "time": 61.96693921041666,
              "value": 0.9212598425196851
            },
            {
              "number": 10,
              "ticks": 59064,
              "time": 63.102624049999996,
              "value": 0.9291338582677166
            },
            {
              "number": 10,
              "ticks": 60126,
              "time": 64.2372405125,
              "value": 0.937007874015748
            },
            {
              "number": 10,
              "ticks": 61190,
              "time": 65.37399372916667,
              "value": 0.9448818897637795
            },
            {
              "number": 10,
              "ticks": 62252,
              "time": 66.50861019166666,
              "value": 0.952755905511811
            },
            {
              "number": 10,
              "ticks": 63314,
              "time": 67.64322665416667,
              "value": 0.9606299212598425
            },
            {
              "number": 10,
              "ticks": 64377,
              "time": 68.77891149375,
              "value": 0.968503937007874
            },
            {
              "number": 10,
              "ticks": 65440,
              "time": 69.91459633333334,
              "value": 0.9763779527559056
            },
            {
              "number": 10,
              "ticks": 66502,
              "time": 71.04921279583333,
              "value": 0.984251968503937
            }
          ],
          "11": [
            {
              "number": 11,
              "ticks": 1300,
              "time": 1.3888902083333334,
              "value": 1
            }
          ],
          "32": [
            {
              "number": 32,
              "ticks": 28934,
              "time": 30.912422529166665,
              "value": 0.007874015748031496
            },
            {
              "number": 32,
              "ticks": 57255,
              "time": 61.16992990625,
              "value": 0.015748031496062992
            }
          ],
          "91": [
            {
              "number": 91,
              "ticks": 968,
              "time": 1.0341890166666665,
              "value": 0.5511811023622047
            },
            {
              "number": 91,
              "ticks": 16065,
              "time": 17.163477843749998,
              "value": 0.5590551181102362
            },
            {
              "number": 91,
              "ticks": 23614,
              "time": 25.22865644583333,
              "value": 0.5669291338582677
            },
            {
              "number": 91,
              "ticks": 31162,
              "time": 33.29276667083333,
              "value": 0.5748031496062992
            },
            {
              "number": 91,
              "ticks": 38710,
              "time": 41.35687689583333,
              "value": 0.5826771653543307
            },
            {
              "number": 91,
              "ticks": 46259,
              "time": 49.422055497916666,
              "value": 0.5905511811023622
            },
            {
              "number": 91,
              "ticks": 53808,
              "time": 57.487234099999995,
              "value": 0.5984251968503937
            },
            {
              "number": 91,
              "ticks": 61356,
              "time": 65.551344325,
              "value": 0.6062992125984252
            }
          ],
          "93": [
            {
              "number": 93,
              "ticks": 1085,
              "time": 1.1591891354166666,
              "value": 0.23622047244094488
            },
            {
              "number": 93,
              "ticks": 16184,
              "time": 17.290614716666667,
              "value": 0.2440944881889764
            },
            {
              "number": 93,
              "ticks": 23733,
              "time": 25.35579331875,
              "value": 0.25196850393700787
            },
            {
              "number": 93,
              "ticks": 31282,
              "time": 33.42097192083333,
              "value": 0.25984251968503935
            },
            {
              "number": 93,
              "ticks": 38832,
              "time": 41.4872189,
              "value": 0.2677165354330709
            },
            {
              "number": 93,
              "ticks": 46381,
              "time": 49.55239750208333,
              "value": 0.2755905511811024
            },
            {
              "number": 93,
              "ticks": 53930,
              "time": 57.617576104166666,
              "value": 0.28346456692913385
            },
            {
              "number": 93,
              "ticks": 61480,
              "time": 65.68382308333334,
              "value": 0.29133858267716534
            }
          ]
        },
        "pitchBends": [],
        "instrument": {
          "family": "piano",
          "number": 7,
          "name": "clavi"
        },
        "name": "",
        "notes": [
          {
            "duration": 0.25641049999999943,
            "durationTicks": 240,
            "midi": 30,
            "name": "F#1",
            "ticks": 7680,
            "time": 8.205136,
            "velocity": 0.9212598425196851
          },
          {
            "duration": 0.25641049999999943,
            "durationTicks": 240,
            "midi": 30,
            "name": "F#1",
            "ticks": 8400,
            "time": 8.9743675,
            "velocity": 0.9212598425196851
          },
          {
            "duration": 0.2564105000000012,
            "durationTicks": 240,
            "midi": 30,
            "name": "F#1",
            "ticks": 9600,
            "time": 10.256419999999999,
            "velocity": 0.9212598425196851
          },
          {
            "duration": 0.2564105000000012,
            "durationTicks": 240,
            "midi": 30,
            "name": "F#1",
            "ticks": 10320,
            "time": 11.025651499999999,
            "velocity": 0.9212598425196851
          },
          {
            "duration": 0.25641049999999943,
            "durationTicks": 240,
            "midi": 30,
            "name": "F#1",
            "ticks": 11520,
            "time": 12.307704,
            "velocity": 0.9212598425196851
          },
          {
            "duration": 0.25641049999999943,
            "durationTicks": 240,
            "midi": 30,
            "name": "F#1",
            "ticks": 12240,
            "time": 13.0769355,
            "velocity": 0.9212598425196851
          },
          {
            "duration": 0.25641049999999943,
            "durationTicks": 240,
            "midi": 30,
            "name": "F#1",
            "ticks": 13440,
            "time": 14.358988,
            "velocity": 0.9212598425196851
          },
          {
            "duration": 0.2564105000000012,
            "durationTicks": 240,
            "midi": 30,
            "name": "F#1",
            "ticks": 14160,
            "time": 15.128219499999998,
            "velocity": 0.9212598425196851
          },
          {
            "duration": 0.2564105000000012,
            "durationTicks": 240,
            "midi": 30,
            "name": "F#1",
            "ticks": 15360,
            "time": 16.410272,
            "velocity": 0.9212598425196851
          },
          {
            "duration": 0.2564105000000012,
            "durationTicks": 240,
            "midi": 30,
            "name": "F#1",
            "ticks": 16080,
            "time": 17.1795035,
            "velocity": 0.9212598425196851
          },
          {
            "duration": 0.2564105000000012,
            "durationTicks": 240,
            "midi": 30,
            "name": "F#1",
            "ticks": 17280,
            "time": 18.461555999999998,
            "velocity": 0.9212598425196851
          },
          {
            "duration": 0.2564105000000012,
            "durationTicks": 240,
            "midi": 30,
            "name": "F#1",
            "ticks": 18000,
            "time": 19.230787499999998,
            "velocity": 0.9212598425196851
          },
          {
            "duration": 0.2564105000000012,
            "durationTicks": 240,
            "midi": 30,
            "name": "F#1",
            "ticks": 19200,
            "time": 20.512839999999997,
            "velocity": 0.9212598425196851
          },
          {
            "duration": 0.2564105000000012,
            "durationTicks": 240,
            "midi": 30,
            "name": "F#1",
            "ticks": 19920,
            "time": 21.282071499999997,
            "velocity": 0.9212598425196851
          },
          {
            "duration": 0.25641049999999765,
            "durationTicks": 240,
            "midi": 30,
            "name": "F#1",
            "ticks": 21120,
            "time": 22.564124,
            "velocity": 0.9212598425196851
          },
          {
            "duration": 0.25641049999999765,
            "durationTicks": 240,
            "midi": 30,
            "name": "F#1",
            "ticks": 21840,
            "time": 23.3333555,
            "velocity": 0.9212598425196851
          },
          {
            "duration": 0.2564105000000012,
            "durationTicks": 240,
            "midi": 30,
            "name": "F#1",
            "ticks": 23040,
            "time": 24.615408,
            "velocity": 0.9212598425196851
          },
          {
            "duration": 0.2564105000000012,
            "durationTicks": 240,
            "midi": 30,
            "name": "F#1",
            "ticks": 23760,
            "time": 25.3846395,
            "velocity": 0.9212598425196851
          },
          {
            "duration": 0.2564105000000012,
            "durationTicks": 240,
            "midi": 30,
            "name": "F#1",
            "ticks": 24960,
            "time": 26.666691999999998,
            "velocity": 0.9212598425196851
          },
          {
            "duration": 0.2564105000000012,
            "durationTicks": 240,
            "midi": 30,
            "name": "F#1",
            "ticks": 25680,
            "time": 27.435923499999998,
            "velocity": 0.9212598425196851
          },
          {
            "duration": 0.25641049999999765,
            "durationTicks": 240,
            "midi": 30,
            "name": "F#1",
            "ticks": 26880,
            "time": 28.717976,
            "velocity": 0.9212598425196851
          },
          {
            "duration": 0.2564105000000012,
            "durationTicks": 240,
            "midi": 30,
            "name": "F#1",
            "ticks": 27600,
            "time": 29.487207499999997,
            "velocity": 0.9212598425196851
          }
        ]
      },
      {
        "channel": 10,
        "controlChanges": {
          "7": [
            {
              "number": 7,
              "ticks": 67385,
              "time": 71.99258976041666,
              "value": 0.44881889763779526
            },
            {
              "number": 7,
              "ticks": 67595,
              "time": 72.21694894791666,
              "value": 0.44881889763779526
            },
            {
              "number": 7,
              "ticks": 67805,
              "time": 72.44130813541666,
              "value": 0.4566929133858268
            },
            {
              "number": 7,
              "ticks": 67993,
              "time": 72.64216302708333,
              "value": 0.4566929133858268
            },
            {
              "number": 7,
              "ticks": 68181,
              "time": 72.84301791875,
              "value": 0.4566929133858268
            },
            {
              "number": 7,
              "ticks": 68370,
              "time": 73.0449411875,
              "value": 0.4566929133858268
            },
            {
              "number": 7,
              "ticks": 68558,
              "time": 73.24579607916667,
              "value": 0.4566929133858268
            },
            {
              "number": 7,
              "ticks": 68746,
              "time": 73.44665097083333,
              "value": 0.4566929133858268
            },
            {
              "number": 7,
              "ticks": 68934,
              "time": 73.6475058625,
              "value": 0.4566929133858268
            },
            {
              "number": 7,
              "ticks": 69122,
              "time": 73.84836075416666,
              "value": 0.4566929133858268
            },
            {
              "number": 7,
              "ticks": 69310,
              "time": 74.04921564583333,
              "value": 0.4566929133858268
            },
            {
              "number": 7,
              "ticks": 69499,
              "time": 74.25113891458332,
              "value": 0.4566929133858268
            },
            {
              "number": 7,
              "ticks": 69686,
              "time": 74.45092542916666,
              "value": 0.4566929133858268
            },
            {
              "number": 7,
              "ticks": 69874,
              "time": 74.65178032083332,
              "value": 0.4566929133858268
            },
            {
              "number": 7,
              "ticks": 70063,
              "time": 74.85370358958333,
              "value": 0.4566929133858268
            },
            {
              "number": 7,
              "ticks": 70251,
              "time": 75.05455848124998,
              "value": 0.4566929133858268
            },
            {
              "number": 7,
              "ticks": 70439,
              "time": 75.25541337291666,
              "value": 0.4566929133858268
            },
            {
              "number": 7,
              "ticks": 70627,
              "time": 75.45626826458333,
              "value": 0.4566929133858268
            },
            {
              "number": 7,
              "ticks": 70815,
              "time": 75.65712315625,
              "value": 0.4566929133858268
            },
            {
              "number": 7,
              "ticks": 71003,
              "time": 75.85797804791667,
              "value": 0.4566929133858268
            },
            {
              "number": 7,
              "ticks": 71191,
              "time": 76.05883293958333,
              "value": 0.4566929133858268
            },
            {
              "number": 7,
              "ticks": 71379,
              "time": 76.25968783125,
              "value": 0.4566929133858268
            },
            {
              "number": 7,
              "ticks": 71568,
              "time": 76.4616111,
              "value": 0.4566929133858268
            },
            {
              "number": 7,
              "ticks": 71756,
              "time": 76.66246599166666,
              "value": 0.4566929133858268
            },
            {
              "number": 7,
              "ticks": 71944,
              "time": 76.86332088333333,
              "value": 0.4566929133858268
            },
            {
              "number": 7,
              "ticks": 72132,
              "time": 77.064175775,
              "value": 0.4566929133858268
            },
            {
              "number": 7,
              "ticks": 72320,
              "time": 77.26503066666666,
              "value": 0.4566929133858268
            },
            {
              "number": 7,
              "ticks": 72509,
              "time": 77.46695393541667,
              "value": 0.4566929133858268
            },
            {
              "number": 7,
              "ticks": 72696,
              "time": 77.66674044999999,
              "value": 0.4566929133858268
            },
            {
              "number": 7,
              "ticks": 72885,
              "time": 77.86866371875,
              "value": 0.4566929133858268
            },
            {
              "number": 7,
              "ticks": 73073,
              "time": 78.06951861041667,
              "value": 0.4566929133858268
            },
            {
              "number": 7,
              "ticks": 73261,
              "time": 78.27037350208333,
              "value": 0.4566929133858268
            },
            {
              "number": 7,
              "ticks": 73449,
              "time": 78.47122839375,
              "value": 0.4566929133858268
            },
            {
              "number": 7,
              "ticks": 73637,
              "time": 78.67208328541666,
              "value": 0.4566929133858268
            },
            {
              "number": 7,
              "ticks": 73825,
              "time": 78.87293817708333,
              "value": 0.4566929133858268
            },
            {
              "number": 7,
              "ticks": 74013,
              "time": 79.07379306874999,
              "value": 0.4566929133858268
            },
            {
              "number": 7,
              "ticks": 74201,
              "time": 79.27464796041667,
              "value": 0.4566929133858268
            },
            {
              "number": 7,
              "ticks": 74389,
              "time": 79.47550285208332,
              "value": 0.4566929133858268
            },
            {
              "number": 7,
              "ticks": 74578,
              "time": 79.67742612083333,
              "value": 0.4566929133858268
            },
            {
              "number": 7,
              "ticks": 74766,
              "time": 79.87828101249998,
              "value": 0.4566929133858268
            },
            {
              "number": 7,
              "ticks": 74954,
              "time": 80.07913590416666,
              "value": 0.4566929133858268
            },
            {
              "number": 7,
              "ticks": 75142,
              "time": 80.27999079583333,
              "value": 0.4566929133858268
            },
            {
              "number": 7,
              "ticks": 75330,
              "time": 80.4808456875,
              "value": 0.4566929133858268
            },
            {
              "number": 7,
              "ticks": 75518,
              "time": 80.68170057916667,
              "value": 0.4566929133858268
            },
            {
              "number": 7,
              "ticks": 75706,
              "time": 80.88255547083332,
              "value": 0.4566929133858268
            },
            {
              "number": 7,
              "ticks": 75895,
              "time": 81.08447873958333,
              "value": 0.4566929133858268
            },
            {
              "number": 7,
              "ticks": 76083,
              "time": 81.28533363125,
              "value": 0.4566929133858268
            },
            {
              "number": 7,
              "ticks": 76271,
              "time": 81.48618852291666,
              "value": 0.4566929133858268
            },
            {
              "number": 7,
              "ticks": 76459,
              "time": 81.68704341458333,
              "value": 0.4566929133858268
            },
            {
              "number": 7,
              "ticks": 76647,
              "time": 81.88789830625,
              "value": 0.4566929133858268
            },
            {
              "number": 7,
              "ticks": 76835,
              "time": 82.08875319791666,
              "value": 0.4566929133858268
            },
            {
              "number": 7,
              "ticks": 77024,
              "time": 82.29067646666667,
              "value": 0.4566929133858268
            },
            {
              "number": 7,
              "ticks": 77211,
              "time": 82.49046298124999,
              "value": 0.4566929133858268
            },
            {
              "number": 7,
              "ticks": 77399,
              "time": 82.69131787291666,
              "value": 0.4566929133858268
            },
            {
              "number": 7,
              "ticks": 77588,
              "time": 82.89324114166666,
              "value": 0.4566929133858268
            },
            {
              "number": 7,
              "ticks": 77776,
              "time": 83.09409603333333,
              "value": 0.4566929133858268
            },
            {
              "number": 7,
              "ticks": 77964,
              "time": 83.294950925,
              "value": 0.4566929133858268
            },
            {
              "number": 7,
              "ticks": 78152,
              "time": 83.49580581666666,
              "value": 0.4566929133858268
            },
            {
              "number": 7,
              "ticks": 78340,
              "time": 83.69666070833334,
              "value": 0.4566929133858268
            },
            {
              "number": 7,
              "ticks": 78528,
              "time": 83.89751559999999,
              "value": 0.4566929133858268
            },
            {
              "number": 7,
              "ticks": 78716,
              "time": 84.09837049166667,
              "value": 0.4566929133858268
            },
            {
              "number": 7,
              "ticks": 78904,
              "time": 84.29922538333332,
              "value": 0.4566929133858268
            },
            {
              "number": 7,
              "ticks": 79093,
              "time": 84.50114865208333,
              "value": 0.4566929133858268
            },
            {
              "number": 7,
              "ticks": 79281,
              "time": 84.70200354375,
              "value": 0.4566929133858268
            },
            {
              "number": 7,
              "ticks": 79469,
              "time": 84.90285843541666,
              "value": 0.4566929133858268
            },
            {
              "number": 7,
              "ticks": 79657,
              "time": 85.10371332708333,
              "value": 0.4566929133858268
            },
            {
              "number": 7,
              "ticks": 79845,
              "time": 85.30456821874999,
              "value": 0.4645669291338583
            },
            {
              "number": 7,
              "ticks": 80033,
              "time": 85.50542311041667,
              "value": 0.4645669291338583
            },
            {
              "number": 7,
              "ticks": 80221,
              "time": 85.70627800208332,
              "value": 0.4645669291338583
            },
            {
              "number": 7,
              "ticks": 80410,
              "time": 85.90820127083333,
              "value": 0.4645669291338583
            },
            {
              "number": 7,
              "ticks": 80598,
              "time": 86.1090561625,
              "value": 0.4645669291338583
            },
            {
              "number": 7,
              "ticks": 80786,
              "time": 86.30991105416666,
              "value": 0.4645669291338583
            },
            {
              "number": 7,
              "ticks": 80974,
              "time": 86.51076594583333,
              "value": 0.4645669291338583
            },
            {
              "number": 7,
              "ticks": 81162,
              "time": 86.71162083749999,
              "value": 0.4645669291338583
            },
            {
              "number": 7,
              "ticks": 81350,
              "time": 86.91247572916666,
              "value": 0.4645669291338583
            },
            {
              "number": 7,
              "ticks": 81538,
              "time": 87.11333062083332,
              "value": 0.4645669291338583
            },
            {
              "number": 7,
              "ticks": 81726,
              "time": 87.31418551249999,
              "value": 0.4645669291338583
            },
            {
              "number": 7,
              "ticks": 81915,
              "time": 87.51610878125,
              "value": 0.4645669291338583
            },
            {
              "number": 7,
              "ticks": 82103,
              "time": 87.71696367291666,
              "value": 0.4645669291338583
            },
            {
              "number": 7,
              "ticks": 82291,
              "time": 87.91781856458333,
              "value": 0.4645669291338583
            },
            {
              "number": 7,
              "ticks": 82479,
              "time": 88.11867345625001,
              "value": 0.4645669291338583
            },
            {
              "number": 7,
              "ticks": 82667,
              "time": 88.31952834791666,
              "value": 0.4645669291338583
            },
            {
              "number": 7,
              "ticks": 82855,
              "time": 88.52038323958334,
              "value": 0.4645669291338583
            },
            {
              "number": 7,
              "ticks": 83043,
              "time": 88.72123813124999,
              "value": 0.4645669291338583
            },
            {
              "number": 7,
              "ticks": 83231,
              "time": 88.92209302291667,
              "value": 0.4645669291338583
            },
            {
              "number": 7,
              "ticks": 83419,
              "time": 89.12294791458332,
              "value": 0.4645669291338583
            },
            {
              "number": 7,
              "ticks": 83608,
              "time": 89.32487118333333,
              "value": 0.4645669291338583
            },
            {
              "number": 7,
              "ticks": 83796,
              "time": 89.525726075,
              "value": 0.4645669291338583
            },
            {
              "number": 7,
              "ticks": 83984,
              "time": 89.72658096666666,
              "value": 0.4645669291338583
            },
            {
              "number": 7,
              "ticks": 84172,
              "time": 89.92743585833333,
              "value": 0.4645669291338583
            },
            {
              "number": 7,
              "ticks": 84360,
              "time": 90.12829074999999,
              "value": 0.4645669291338583
            },
            {
              "number": 7,
              "ticks": 84548,
              "time": 90.32914564166667,
              "value": 0.4645669291338583
            },
            {
              "number": 7,
              "ticks": 84736,
              "time": 90.53000053333332,
              "value": 0.4645669291338583
            },
            {
              "number": 7,
              "ticks": 84924,
              "time": 90.730855425,
              "value": 0.4645669291338583
            },
            {
              "number": 7,
              "ticks": 85113,
              "time": 90.93277869375,
              "value": 0.4645669291338583
            },
            {
              "number": 7,
              "ticks": 85301,
              "time": 91.13363358541666,
              "value": 0.4645669291338583
            },
            {
              "number": 7,
              "ticks": 85489,
              "time": 91.33448847708333,
              "value": 0.4645669291338583
            },
            {
              "number": 7,
              "ticks": 85677,
              "time": 91.53534336874999,
              "value": 0.4645669291338583
            },
            {
              "number": 7,
              "ticks": 85865,
              "time": 91.73619826041666,
              "value": 0.4645669291338583
            },
            {
              "number": 7,
              "ticks": 86053,
              "time": 91.93705315208334,
              "value": 0.4645669291338583
            },
            {
              "number": 7,
              "ticks": 86241,
              "time": 92.13790804374999,
              "value": 0.4645669291338583
            },
            {
              "number": 7,
              "ticks": 86430,
              "time": 92.3398313125,
              "value": 0.4645669291338583
            },
            {
              "number": 7,
              "ticks": 86618,
              "time": 92.54068620416666,
              "value": 0.4645669291338583
            },
            {
              "number": 7,
              "ticks": 86806,
              "time": 92.74154109583333,
              "value": 0.4645669291338583
            },
            {
              "number": 7,
              "ticks": 86994,
              "time": 92.9423959875,
              "value": 0.4645669291338583
            },
            {
              "number": 7,
              "ticks": 87182,
              "time": 93.14325087916666,
              "value": 0.4645669291338583
            },
            {
              "number": 7,
              "ticks": 87370,
              "time": 93.34410577083334,
              "value": 0.4645669291338583
            },
            {
              "number": 7,
              "ticks": 87558,
              "time": 93.54496066249999,
              "value": 0.4645669291338583
            },
            {
              "number": 7,
              "ticks": 87746,
              "time": 93.74581555416667,
              "value": 0.4645669291338583
            },
            {
              "number": 7,
              "ticks": 87935,
              "time": 93.94773882291666,
              "value": 0.4645669291338583
            },
            {
              "number": 7,
              "ticks": 88123,
              "time": 94.14859371458333,
              "value": 0.4645669291338583
            },
            {
              "number": 7,
              "ticks": 88311,
              "time": 94.34944860625,
              "value": 0.4645669291338583
            },
            {
              "number": 7,
              "ticks": 88499,
              "time": 94.55030349791666,
              "value": 0.4645669291338583
            },
            {
              "number": 7,
              "ticks": 88687,
              "time": 94.75115838958332,
              "value": 0.4645669291338583
            },
            {
              "number": 7,
              "ticks": 88875,
              "time": 94.95201328124999,
              "value": 0.4645669291338583
            },
            {
              "number": 7,
              "ticks": 89063,
              "time": 95.15286817291667,
              "value": 0.4645669291338583
            },
            {
              "number": 7,
              "ticks": 89251,
              "time": 95.35372306458332,
              "value": 0.4645669291338583
            },
            {
              "number": 7,
              "ticks": 89439,
              "time": 95.55457795625,
              "value": 0.4645669291338583
            },
            {
              "number": 7,
              "ticks": 89628,
              "time": 95.756501225,
              "value": 0.4645669291338583
            },
            {
              "number": 7,
              "ticks": 89816,
              "time": 95.95735611666666,
              "value": 0.4645669291338583
            },
            {
              "number": 7,
              "ticks": 90004,
              "time": 96.15821100833332,
              "value": 0.4645669291338583
            },
            {
              "number": 7,
              "ticks": 90192,
              "time": 96.3590659,
              "value": 0.4645669291338583
            },
            {
              "number": 7,
              "ticks": 90380,
              "time": 96.55992079166666,
              "value": 0.4645669291338583
            },
            {
              "number": 7,
              "ticks": 90568,
              "time": 96.76077568333334,
              "value": 0.4645669291338583
            },
            {
              "number": 7,
              "ticks": 90756,
              "time": 96.96163057499999,
              "value": 0.4645669291338583
            },
            {
              "number": 7,
              "ticks": 90944,
              "time": 97.16248546666667,
              "value": 0.4645669291338583
            },
            {
              "number": 7,
              "ticks": 91133,
              "time": 97.36440873541667,
              "value": 0.4645669291338583
            },
            {
              "number": 7,
              "ticks": 91321,
              "time": 97.56526362708333,
              "value": 0.4645669291338583
            },
            {
              "number": 7,
              "ticks": 91509,
              "time": 97.76611851875,
              "value": 0.4645669291338583
            },
            {
              "number": 7,
              "ticks": 91697,
              "time": 97.96697341041666,
              "value": 0.4645669291338583
            },
            {
              "number": 7,
              "ticks": 91885,
              "time": 98.16782830208334,
              "value": 0.47244094488188976
            },
            {
              "number": 7,
              "ticks": 92073,
              "time": 98.36868319374999,
              "value": 0.47244094488188976
            },
            {
              "number": 7,
              "ticks": 92261,
              "time": 98.56953808541667,
              "value": 0.47244094488188976
            },
            {
              "number": 7,
              "ticks": 92450,
              "time": 98.77146135416666,
              "value": 0.47244094488188976
            },
            {
              "number": 7,
              "ticks": 92638,
              "time": 98.97231624583333,
              "value": 0.47244094488188976
            },
            {
              "number": 7,
              "ticks": 92826,
              "time": 99.17317113749999,
              "value": 0.47244094488188976
            },
            {
              "number": 7,
              "ticks": 93014,
              "time": 99.37402602916666,
              "value": 0.47244094488188976
            },
            {
              "number": 7,
              "ticks": 93202,
              "time": 99.57488092083332,
              "value": 0.47244094488188976
            },
            {
              "number": 7,
              "ticks": 93390,
              "time": 99.77573581249999,
              "value": 0.47244094488188976
            },
            {
              "number": 7,
              "ticks": 93578,
              "time": 99.97659070416667,
              "value": 0.47244094488188976
            },
            {
              "number": 7,
              "ticks": 93766,
              "time": 100.17744559583333,
              "value": 0.47244094488188976
            },
            {
              "number": 7,
              "ticks": 93955,
              "time": 100.37936886458333,
              "value": 0.47244094488188976
            },
            {
              "number": 7,
              "ticks": 94143,
              "time": 100.58022375624999,
              "value": 0.47244094488188976
            },
            {
              "number": 7,
              "ticks": 94331,
              "time": 100.78107864791666,
              "value": 0.47244094488188976
            },
            {
              "number": 7,
              "ticks": 94519,
              "time": 100.98193353958332,
              "value": 0.47244094488188976
            },
            {
              "number": 7,
              "ticks": 94707,
              "time": 101.18278843125,
              "value": 0.47244094488188976
            },
            {
              "number": 7,
              "ticks": 94895,
              "time": 101.38364332291665,
              "value": 0.47244094488188976
            },
            {
              "number": 7,
              "ticks": 95083,
              "time": 101.58449821458333,
              "value": 0.47244094488188976
            },
            {
              "number": 7,
              "ticks": 95271,
              "time": 101.78535310624999,
              "value": 0.47244094488188976
            },
            {
              "number": 7,
              "ticks": 95459,
              "time": 101.98620799791667,
              "value": 0.47244094488188976
            },
            {
              "number": 7,
              "ticks": 95648,
              "time": 102.18813126666667,
              "value": 0.47244094488188976
            },
            {
              "number": 7,
              "ticks": 95836,
              "time": 102.38898615833332,
              "value": 0.47244094488188976
            },
            {
              "number": 7,
              "ticks": 96024,
              "time": 102.58984105,
              "value": 0.47244094488188976
            },
            {
              "number": 7,
              "ticks": 96212,
              "time": 102.79069594166666,
              "value": 0.47244094488188976
            },
            {
              "number": 7,
              "ticks": 96400,
              "time": 102.99155083333333,
              "value": 0.47244094488188976
            },
            {
              "number": 7,
              "ticks": 96588,
              "time": 103.19240572499999,
              "value": 0.47244094488188976
            },
            {
              "number": 7,
              "ticks": 96776,
              "time": 103.39326061666667,
              "value": 0.47244094488188976
            },
            {
              "number": 7,
              "ticks": 96964,
              "time": 103.59411550833332,
              "value": 0.47244094488188976
            },
            {
              "number": 7,
              "ticks": 97153,
              "time": 103.79603877708333,
              "value": 0.47244094488188976
            },
            {
              "number": 7,
              "ticks": 97341,
              "time": 103.99689366874999,
              "value": 0.47244094488188976
            },
            {
              "number": 7,
              "ticks": 97529,
              "time": 104.19774856041666,
              "value": 0.47244094488188976
            },
            {
              "number": 7,
              "ticks": 97717,
              "time": 104.39860345208332,
              "value": 0.47244094488188976
            },
            {
              "number": 7,
              "ticks": 97905,
              "time": 104.59945834375,
              "value": 0.47244094488188976
            },
            {
              "number": 7,
              "ticks": 98093,
              "time": 104.80031323541667,
              "value": 0.47244094488188976
            },
            {
              "number": 7,
              "ticks": 98281,
              "time": 105.00116812708333,
              "value": 0.47244094488188976
            },
            {
              "number": 7,
              "ticks": 98470,
              "time": 105.20309139583333,
              "value": 0.47244094488188976
            },
            {
              "number": 7,
              "ticks": 98658,
              "time": 105.40394628749999,
              "value": 0.47244094488188976
            },
            {
              "number": 7,
              "ticks": 98846,
              "time": 105.60480117916667,
              "value": 0.47244094488188976
            },
            {
              "number": 7,
              "ticks": 99034,
              "time": 105.80565607083332,
              "value": 0.47244094488188976
            },
            {
              "number": 7,
              "ticks": 99222,
              "time": 106.0065109625,
              "value": 0.47244094488188976
            },
            {
              "number": 7,
              "ticks": 99410,
              "time": 106.20736585416665,
              "value": 0.47244094488188976
            },
            {
              "number": 7,
              "ticks": 99598,
              "time": 106.40822074583333,
              "value": 0.47244094488188976
            },
            {
              "number": 7,
              "ticks": 99787,
              "time": 106.61014401458333,
              "value": 0.47244094488188976
            },
            {
              "number": 7,
              "ticks": 99975,
              "time": 106.81099890624999,
              "value": 0.47244094488188976
            },
            {
              "number": 7,
              "ticks": 100163,
              "time": 107.01185379791667,
              "value": 0.47244094488188976
            },
            {
              "number": 7,
              "ticks": 100351,
              "time": 107.21270868958332,
              "value": 0.47244094488188976
            },
            {
              "number": 7,
              "ticks": 100539,
              "time": 107.41356358125,
              "value": 0.47244094488188976
            },
            {
              "number": 7,
              "ticks": 100727,
              "time": 107.61441847291665,
              "value": 0.47244094488188976
            },
            {
              "number": 7,
              "ticks": 100915,
              "time": 107.81527336458333,
              "value": 0.47244094488188976
            },
            {
              "number": 7,
              "ticks": 101103,
              "time": 108.01612825624998,
              "value": 0.47244094488188976
            },
            {
              "number": 7,
              "ticks": 101291,
              "time": 108.21698314791666,
              "value": 0.47244094488188976
            },
            {
              "number": 7,
              "ticks": 101479,
              "time": 108.41783803958333,
              "value": 0.47244094488188976
            },
            {
              "number": 7,
              "ticks": 101668,
              "time": 108.61976130833332,
              "value": 0.47244094488188976
            },
            {
              "number": 7,
              "ticks": 101856,
              "time": 108.82061619999999,
              "value": 0.47244094488188976
            },
            {
              "number": 7,
              "ticks": 102044,
              "time": 109.02147109166665,
              "value": 0.47244094488188976
            },
            {
              "number": 7,
              "ticks": 102232,
              "time": 109.22232598333332,
              "value": 0.47244094488188976
            },
            {
              "number": 7,
              "ticks": 102420,
              "time": 109.423180875,
              "value": 0.47244094488188976
            },
            {
              "number": 7,
              "ticks": 102608,
              "time": 109.62403576666667,
              "value": 0.47244094488188976
            },
            {
              "number": 7,
              "ticks": 102796,
              "time": 109.82489065833333,
              "value": 0.47244094488188976
            },
            {
              "number": 7,
              "ticks": 102984,
              "time": 110.02574555,
              "value": 0.47244094488188976
            },
            {
              "number": 7,
              "ticks": 103173,
              "time": 110.22766881874999,
              "value": 0.47244094488188976
            },
            {
              "number": 7,
              "ticks": 103361,
              "time": 110.42852371041667,
              "value": 0.47244094488188976
            },
            {
              "number": 7,
              "ticks": 103549,
              "time": 110.62937860208332,
              "value": 0.47244094488188976
            },
            {
              "number": 7,
              "ticks": 103737,
              "time": 110.83023349375,
              "value": 0.47244094488188976
            }
          ],
          "10": [
            {
              "number": 10,
              "ticks": 67565,
              "time": 72.18489763541666,
              "value": 0.9921259842519685
            },
            {
              "number": 10,
              "ticks": 67565,
              "time": 72.18489763541666,
              "value": 1
            },
            {
              "number": 10,
              "ticks": 67744,
              "time": 72.37613713333333,
              "value": 0.9921259842519685
            },
            {
              "number": 10,
              "ticks": 67923,
              "time": 72.56737663125,
              "value": 0.984251968503937
            },
            {
              "number": 10,
              "ticks": 68102,
              "time": 72.75861612916665,
              "value": 0.9763779527559056
            },
            {
              "number": 10,
              "ticks": 68282,
              "time": 72.95092400416667,
              "value": 0.968503937007874
            },
            {
              "number": 10,
              "ticks": 68460,
              "time": 73.14109512499999,
              "value": 0.9606299212598425
            },
            {
              "number": 10,
              "ticks": 68639,
              "time": 73.33233462291666,
              "value": 0.952755905511811
            },
            {
              "number": 10,
              "ticks": 68818,
              "time": 73.52357412083333,
              "value": 0.9448818897637795
            },
            {
              "number": 10,
              "ticks": 68997,
              "time": 73.71481361875,
              "value": 0.937007874015748
            },
            {
              "number": 10,
              "ticks": 69176,
              "time": 73.90605311666667,
              "value": 0.9291338582677166
            },
            {
              "number": 10,
              "ticks": 69355,
              "time": 74.09729261458334,
              "value": 0.9212598425196851
            },
            {
              "number": 10,
              "ticks": 69535,
              "time": 74.28960048958334,
              "value": 0.9133858267716536
            },
            {
              "number": 10,
              "ticks": 69714,
              "time": 74.4808399875,
              "value": 0.905511811023622
            },
            {
              "number": 10,
              "ticks": 69893,
              "time": 74.67207948541667,
              "value": 0.8976377952755905
            },
            {
              "number": 10,
              "ticks": 70072,
              "time": 74.86331898333333,
              "value": 0.889763779527559
            },
            {
              "number": 10,
              "ticks": 70251,
              "time": 75.05455848124998,
              "value": 0.8818897637795275
            },
            {
              "number": 10,
              "ticks": 70430,
              "time": 75.24579797916665,
              "value": 0.8740157480314961
            },
            {
              "number": 10,
              "ticks": 70609,
              "time": 75.43703747708332,
              "value": 0.8661417322834646
            },
            {
              "number": 10,
              "ticks": 70788,
              "time": 75.62827697499999,
              "value": 0.8582677165354331
            },
            {
              "number": 10,
              "ticks": 70967,
              "time": 75.81951647291666,
              "value": 0.8503937007874016
            },
            {
              "number": 10,
              "ticks": 71146,
              "time": 76.01075597083333,
              "value": 0.84251968503937
            },
            {
              "number": 10,
              "ticks": 71325,
              "time": 76.20199546875,
              "value": 0.8346456692913385
            },
            {
              "number": 10,
              "ticks": 71505,
              "time": 76.39430334375,
              "value": 0.8267716535433071
            },
            {
              "number": 10,
              "ticks": 71683,
              "time": 76.58447446458334,
              "value": 0.8188976377952756
            },
            {
              "number": 10,
              "ticks": 71862,
              "time": 76.77571396249999,
              "value": 0.8110236220472441
            },
            {
              "number": 10,
              "ticks": 72041,
              "time": 76.96695346041666,
              "value": 0.8031496062992126
            },
            {
              "number": 10,
              "ticks": 72220,
              "time": 77.15819295833333,
              "value": 0.7952755905511811
            },
            {
              "number": 10,
              "ticks": 72399,
              "time": 77.34943245625,
              "value": 0.7874015748031497
            },
            {
              "number": 10,
              "ticks": 72579,
              "time": 77.54174033125,
              "value": 0.7795275590551181
            },
            {
              "number": 10,
              "ticks": 72757,
              "time": 77.73191145208332,
              "value": 0.7716535433070866
            },
            {
              "number": 10,
              "ticks": 72937,
              "time": 77.92421932708332,
              "value": 0.7637795275590551
            },
            {
              "number": 10,
              "ticks": 73115,
              "time": 78.11439044791666,
              "value": 0.7559055118110236
            },
            {
              "number": 10,
              "ticks": 73295,
              "time": 78.30669832291666,
              "value": 0.7480314960629921
            },
            {
              "number": 10,
              "ticks": 73474,
              "time": 78.49793782083333,
              "value": 0.7401574803149606
            },
            {
              "number": 10,
              "ticks": 73653,
              "time": 78.68917731875,
              "value": 0.7322834645669292
            },
            {
              "number": 10,
              "ticks": 73832,
              "time": 78.88041681666667,
              "value": 0.7244094488188977
            },
            {
              "number": 10,
              "ticks": 74011,
              "time": 79.07165631458332,
              "value": 0.7165354330708661
            },
            {
              "number": 10,
              "ticks": 74190,
              "time": 79.26289581249999,
              "value": 0.7086614173228346
            },
            {
              "number": 10,
              "ticks": 74369,
              "time": 79.45413531041666,
              "value": 0.7007874015748031
            },
            {
              "number": 10,
              "ticks": 74548,
              "time": 79.64537480833333,
              "value": 0.6929133858267716
            },
            {
              "number": 10,
              "ticks": 74727,
              "time": 79.83661430625,
              "value": 0.6850393700787402
            },
            {
              "number": 10,
              "ticks": 74906,
              "time": 80.02785380416667,
              "value": 0.6771653543307087
            },
            {
              "number": 10,
              "ticks": 75085,
              "time": 80.21909330208334,
              "value": 0.6692913385826772
            },
            {
              "number": 10,
              "ticks": 75264,
              "time": 80.4103328,
              "value": 0.6614173228346457
            },
            {
              "number": 10,
              "ticks": 75443,
              "time": 80.60157229791668,
              "value": 0.6535433070866141
            },
            {
              "number": 10,
              "ticks": 75622,
              "time": 80.79281179583332,
              "value": 0.6456692913385826
            },
            {
              "number": 10,
              "ticks": 75802,
              "time": 80.98511967083333,
              "value": 0.6377952755905512
            },
            {
              "number": 10,
              "ticks": 75980,
              "time": 81.17529079166665,
              "value": 0.6299212598425197
            },
            {
              "number": 10,
              "ticks": 76159,
              "time": 81.36653028958332,
              "value": 0.6220472440944882
            },
            {
              "number": 10,
              "ticks": 76338,
              "time": 81.55776978749999,
              "value": 0.6141732283464567
            },
            {
              "number": 10,
              "ticks": 76517,
              "time": 81.74900928541666,
              "value": 0.6062992125984252
            },
            {
              "number": 10,
              "ticks": 76696,
              "time": 81.94024878333333,
              "value": 0.5984251968503937
            },
            {
              "number": 10,
              "ticks": 76875,
              "time": 82.13148828125,
              "value": 0.5905511811023622
            },
            {
              "number": 10,
              "ticks": 77055,
              "time": 82.32379615625,
              "value": 0.5826771653543307
            },
            {
              "number": 10,
              "ticks": 77234,
              "time": 82.51503565416667,
              "value": 0.5748031496062992
            },
            {
              "number": 10,
              "ticks": 77413,
              "time": 82.70627515208334,
              "value": 0.5669291338582677
            },
            {
              "number": 10,
              "ticks": 77592,
              "time": 82.89751465,
              "value": 0.5590551181102362
            },
            {
              "number": 10,
              "ticks": 77771,
              "time": 83.08875414791666,
              "value": 0.5511811023622047
            },
            {
              "number": 10,
              "ticks": 77950,
              "time": 83.27999364583333,
              "value": 0.5433070866141733
            },
            {
              "number": 10,
              "ticks": 78129,
              "time": 83.47123314375,
              "value": 0.5354330708661418
            },
            {
              "number": 10,
              "ticks": 78308,
              "time": 83.66247264166667,
              "value": 0.5275590551181102
            },
            {
              "number": 10,
              "ticks": 78487,
              "time": 83.85371213958332,
              "value": 0.5196850393700787
            },
            {
              "number": 10,
              "ticks": 78666,
              "time": 84.04495163749999,
              "value": 0.5118110236220472
            },
            {
              "number": 10,
              "ticks": 78845,
              "time": 84.23619113541666,
              "value": 0.5039370078740157
            },
            {
              "number": 10,
              "ticks": 78845,
              "time": 84.23619113541666,
              "value": 0.5039370078740157
            },
            {
              "number": 10,
              "ticks": 80341,
              "time": 85.83448325208333,
              "value": 0.5039370078740157
            },
            {
              "number": 10,
              "ticks": 81835,
              "time": 87.43063861458333,
              "value": 0.5118110236220472
            },
            {
              "number": 10,
              "ticks": 83331,
              "time": 89.02893073124999,
              "value": 0.5196850393700787
            },
            {
              "number": 10,
              "ticks": 84826,
              "time": 90.62615447083333,
              "value": 0.5275590551181102
            },
            {
              "number": 10,
              "ticks": 86322,
              "time": 92.2244465875,
              "value": 0.5354330708661418
            },
            {
              "number": 10,
              "ticks": 87816,
              "time": 93.82060194999998,
              "value": 0.5433070866141733
            },
            {
              "number": 10,
              "ticks": 89312,
              "time": 95.41889406666665,
              "value": 0.5511811023622047
            },
            {
              "number": 10,
              "ticks": 90807,
              "time": 97.01611780625,
              "value": 0.5590551181102362
            },
            {
              "number": 10,
              "ticks": 92303,
              "time": 98.61440992291666,
              "value": 0.5669291338582677
            },
            {
              "number": 10,
              "ticks": 93797,
              "time": 100.21056528541666,
              "value": 0.5748031496062992
            },
            {
              "number": 10,
              "ticks": 95293,
              "time": 101.80885740208333,
              "value": 0.5826771653543307
            },
            {
              "number": 10,
              "ticks": 96788,
              "time": 103.40608114166666,
              "value": 0.5905511811023622
            },
            {
              "number": 10,
              "ticks": 98284,
              "time": 105.00437325833332,
              "value": 0.5984251968503937
            },
            {
              "number": 10,
              "ticks": 99778,
              "time": 106.60052862083333,
              "value": 0.6062992125984252
            },
            {
              "number": 10,
              "ticks": 101274,
              "time": 108.1988207375,
              "value": 0.6141732283464567
            },
            {
              "number": 10,
              "ticks": 102769,
              "time": 109.79604447708333,
              "value": 0.6220472440944882
            }
          ],
          "32": [
            {
              "number": 32,
              "ticks": 85576,
              "time": 91.42743728333333,
              "value": 0.023622047244094488
            }
          ],
          "91": [
            {
              "number": 91,
              "ticks": 68905,
              "time": 73.61652292708334,
              "value": 0.6141732283464567
            },
            {
              "number": 91,
              "ticks": 76453,
              "time": 81.68063315208333,
              "value": 0.6220472440944882
            },
            {
              "number": 91,
              "ticks": 84002,
              "time": 89.74581175416667,
              "value": 0.6299212598425197
            },
            {
              "number": 91,
              "ticks": 91550,
              "time": 97.80992197916666,
              "value": 0.6377952755905512
            },
            {
              "number": 91,
              "ticks": 99099,
              "time": 105.87510058125,
              "value": 0.6456692913385826
            }
          ],
          "93": [
            {
              "number": 93,
              "ticks": 69029,
              "time": 73.74900168541666,
              "value": 0.2992125984251969
            },
            {
              "number": 93,
              "ticks": 76579,
              "time": 81.81524866458332,
              "value": 0.30708661417322836
            },
            {
              "number": 93,
              "ticks": 84128,
              "time": 89.88042726666667,
              "value": 0.31496062992125984
            },
            {
              "number": 93,
              "ticks": 91677,
              "time": 97.94560586875,
              "value": 0.3228346456692913
            },
            {
              "number": 93,
              "ticks": 99226,
              "time": 106.01078447083333,
              "value": 0.33070866141732286
            }
          ]
        },
        "pitchBends": [],
        "instrument": {
          "family": "brass",
          "number": 63,
          "name": "synthbrass 2"
        },
        "name": "",
        "notes": [
          {
            "duration": 0.07264964166667198,
            "durationTicks": 68,
            "midi": 66,
            "name": "F#4",
            "ticks": 69840,
            "time": 74.6154555,
            "velocity": 1
          },
          {
            "duration": 0.2329062041666674,
            "durationTicks": 218,
            "midi": 69,
            "name": "A4",
            "ticks": 70080,
            "time": 74.871866,
            "velocity": 1
          },
          {
            "duration": 0.07264964166667198,
            "durationTicks": 68,
            "midi": 66,
            "name": "F#4",
            "ticks": 70320,
            "time": 75.1282765,
            "velocity": 0.7795275590551181
          },
          {
            "duration": 0.186965989583328,
            "durationTicks": 175,
            "midi": 76,
            "name": "E5",
            "ticks": 70560,
            "time": 75.384687,
            "velocity": 1
          },
          {
            "duration": 0.18482923541667162,
            "durationTicks": 173,
            "midi": 73,
            "name": "C#5",
            "ticks": 70800,
            "time": 75.6410975,
            "velocity": 1
          },
          {
            "duration": 0.07264964166667198,
            "durationTicks": 68,
            "midi": 66,
            "name": "F#4",
            "ticks": 77520,
            "time": 82.82059149999999,
            "velocity": 1
          },
          {
            "duration": 0.23290620416668162,
            "durationTicks": 218,
            "midi": 69,
            "name": "A4",
            "ticks": 77760,
            "time": 83.077002,
            "velocity": 1
          },
          {
            "duration": 0.07264964166667198,
            "durationTicks": 68,
            "midi": 66,
            "name": "F#4",
            "ticks": 78000,
            "time": 83.3334125,
            "velocity": 0.7795275590551181
          },
          {
            "duration": 0.1869659895833422,
            "durationTicks": 175,
            "midi": 76,
            "name": "E5",
            "ticks": 78240,
            "time": 83.589823,
            "velocity": 1
          },
          {
            "duration": 0.19551300624999612,
            "durationTicks": 183,
            "midi": 73,
            "name": "C#5",
            "ticks": 78480,
            "time": 83.8462335,
            "velocity": 1
          }
        ]
      },
      {
        "channel": 10,
        "controlChanges": {
          "7": [
            {
              "number": 7,
              "ticks": 103925,
              "time": 111.03108838541665,
              "value": 0.48031496062992124
            },
            {
              "number": 7,
              "ticks": 104003,
              "time": 111.11442179791666,
              "value": 0.47244094488188976
            },
            {
              "number": 7,
              "ticks": 104081,
              "time": 111.19775521041666,
              "value": 0.47244094488188976
            },
            {
              "number": 7,
              "ticks": 104158,
              "time": 111.28002024583333,
              "value": 0.47244094488188976
            },
            {
              "number": 7,
              "ticks": 104237,
              "time": 111.36442203541665,
              "value": 0.47244094488188976
            },
            {
              "number": 7,
              "ticks": 104314,
              "time": 111.44668707083332,
              "value": 0.47244094488188976
            },
            {
              "number": 7,
              "ticks": 104392,
              "time": 111.53002048333332,
              "value": 0.47244094488188976
            },
            {
              "number": 7,
              "ticks": 104470,
              "time": 111.61335389583333,
              "value": 0.47244094488188976
            },
            {
              "number": 7,
              "ticks": 104548,
              "time": 111.69668730833332,
              "value": 0.47244094488188976
            },
            {
              "number": 7,
              "ticks": 104625,
              "time": 111.77895234374999,
              "value": 0.47244094488188976
            },
            {
              "number": 7,
              "ticks": 104704,
              "time": 111.86335413333332,
              "value": 0.47244094488188976
            },
            {
              "number": 7,
              "ticks": 104781,
              "time": 111.94561916874999,
              "value": 0.47244094488188976
            },
            {
              "number": 7,
              "ticks": 104859,
              "time": 112.02895258125,
              "value": 0.47244094488188976
            },
            {
              "number": 7,
              "ticks": 104937,
              "time": 112.11228599374999,
              "value": 0.47244094488188976
            },
            {
              "number": 7,
              "ticks": 105014,
              "time": 112.19455102916666,
              "value": 0.47244094488188976
            },
            {
              "number": 7,
              "ticks": 105093,
              "time": 112.27895281874999,
              "value": 0.47244094488188976
            },
            {
              "number": 7,
              "ticks": 105170,
              "time": 112.36121785416665,
              "value": 0.47244094488188976
            },
            {
              "number": 7,
              "ticks": 105248,
              "time": 112.44455126666666,
              "value": 0.47244094488188976
            },
            {
              "number": 7,
              "ticks": 105326,
              "time": 112.52788467916666,
              "value": 0.47244094488188976
            },
            {
              "number": 7,
              "ticks": 105403,
              "time": 112.61014971458333,
              "value": 0.47244094488188976
            },
            {
              "number": 7,
              "ticks": 105482,
              "time": 112.69455150416665,
              "value": 0.47244094488188976
            },
            {
              "number": 7,
              "ticks": 105559,
              "time": 112.77681653958332,
              "value": 0.47244094488188976
            },
            {
              "number": 7,
              "ticks": 105637,
              "time": 112.86014995208332,
              "value": 0.47244094488188976
            },
            {
              "number": 7,
              "ticks": 105715,
              "time": 112.94348336458333,
              "value": 0.47244094488188976
            },
            {
              "number": 7,
              "ticks": 105793,
              "time": 113.02681677708333,
              "value": 0.47244094488188976
            },
            {
              "number": 7,
              "ticks": 105870,
              "time": 113.1090818125,
              "value": 0.47244094488188976
            },
            {
              "number": 7,
              "ticks": 105949,
              "time": 113.19348360208332,
              "value": 0.47244094488188976
            },
            {
              "number": 7,
              "ticks": 106026,
              "time": 113.27574863749999,
              "value": 0.47244094488188976
            },
            {
              "number": 7,
              "ticks": 106104,
              "time": 113.35908205,
              "value": 0.47244094488188976
            },
            {
              "number": 7,
              "ticks": 106182,
              "time": 113.4424154625,
              "value": 0.47244094488188976
            },
            {
              "number": 7,
              "ticks": 106259,
              "time": 113.52468049791666,
              "value": 0.47244094488188976
            },
            {
              "number": 7,
              "ticks": 106338,
              "time": 113.60908228749999,
              "value": 0.47244094488188976
            },
            {
              "number": 7,
              "ticks": 106415,
              "time": 113.69134732291666,
              "value": 0.47244094488188976
            },
            {
              "number": 7,
              "ticks": 106493,
              "time": 113.77468073541667,
              "value": 0.4645669291338583
            },
            {
              "number": 7,
              "ticks": 106571,
              "time": 113.85801414791666,
              "value": 0.4645669291338583
            },
            {
              "number": 7,
              "ticks": 106648,
              "time": 113.94027918333333,
              "value": 0.4645669291338583
            },
            {
              "number": 7,
              "ticks": 106727,
              "time": 114.02468097291666,
              "value": 0.4645669291338583
            },
            {
              "number": 7,
              "ticks": 106804,
              "time": 114.10694600833332,
              "value": 0.4645669291338583
            },
            {
              "number": 7,
              "ticks": 106882,
              "time": 114.19027942083332,
              "value": 0.4645669291338583
            },
            {
              "number": 7,
              "ticks": 106960,
              "time": 114.27361283333333,
              "value": 0.4645669291338583
            },
            {
              "number": 7,
              "ticks": 107038,
              "time": 114.35694624583333,
              "value": 0.4645669291338583
            },
            {
              "number": 7,
              "ticks": 107115,
              "time": 114.43921128125,
              "value": 0.4645669291338583
            },
            {
              "number": 7,
              "ticks": 107194,
              "time": 114.52361307083332,
              "value": 0.4645669291338583
            },
            {
              "number": 7,
              "ticks": 107271,
              "time": 114.60587810624999,
              "value": 0.4645669291338583
            },
            {
              "number": 7,
              "ticks": 107349,
              "time": 114.68921151875,
              "value": 0.4645669291338583
            },
            {
              "number": 7,
              "ticks": 107427,
              "time": 114.77254493125,
              "value": 0.4645669291338583
            },
            {
              "number": 7,
              "ticks": 107504,
              "time": 114.85480996666666,
              "value": 0.4645669291338583
            },
            {
              "number": 7,
              "ticks": 107583,
              "time": 114.93921175624999,
              "value": 0.4645669291338583
            },
            {
              "number": 7,
              "ticks": 107660,
              "time": 115.02147679166666,
              "value": 0.4645669291338583
            },
            {
              "number": 7,
              "ticks": 107738,
              "time": 115.10481020416667,
              "value": 0.4645669291338583
            },
            {
              "number": 7,
              "ticks": 107816,
              "time": 115.18814361666666,
              "value": 0.4645669291338583
            },
            {
              "number": 7,
              "ticks": 107893,
              "time": 115.27040865208333,
              "value": 0.4645669291338583
            },
            {
              "number": 7,
              "ticks": 107972,
              "time": 115.35481044166666,
              "value": 0.4645669291338583
            },
            {
              "number": 7,
              "ticks": 108049,
              "time": 115.43707547708333,
              "value": 0.4645669291338583
            },
            {
              "number": 7,
              "ticks": 108127,
              "time": 115.52040888958332,
              "value": 0.4645669291338583
            },
            {
              "number": 7,
              "ticks": 108205,
              "time": 115.60374230208333,
              "value": 0.4645669291338583
            },
            {
              "number": 7,
              "ticks": 108283,
              "time": 115.68707571458333,
              "value": 0.4645669291338583
            },
            {
              "number": 7,
              "ticks": 108360,
              "time": 115.76934075,
              "value": 0.4645669291338583
            },
            {
              "number": 7,
              "ticks": 108439,
              "time": 115.85374253958332,
              "value": 0.4645669291338583
            },
            {
              "number": 7,
              "ticks": 108516,
              "time": 115.93600757499999,
              "value": 0.4645669291338583
            },
            {
              "number": 7,
              "ticks": 108594,
              "time": 116.0193409875,
              "value": 0.4645669291338583
            },
            {
              "number": 7,
              "ticks": 108672,
              "time": 116.1026744,
              "value": 0.4645669291338583
            },
            {
              "number": 7,
              "ticks": 108749,
              "time": 116.18493943541667,
              "value": 0.4645669291338583
            },
            {
              "number": 7,
              "ticks": 108828,
              "time": 116.26934122499999,
              "value": 0.4645669291338583
            },
            {
              "number": 7,
              "ticks": 108905,
              "time": 116.35160626041666,
              "value": 0.4645669291338583
            },
            {
              "number": 7,
              "ticks": 108983,
              "time": 116.43493967291667,
              "value": 0.4566929133858268
            },
            {
              "number": 7,
              "ticks": 109061,
              "time": 116.51827308541667,
              "value": 0.4566929133858268
            },
            {
              "number": 7,
              "ticks": 109138,
              "time": 116.60053812083333,
              "value": 0.4566929133858268
            },
            {
              "number": 7,
              "ticks": 109217,
              "time": 116.68493991041666,
              "value": 0.4566929133858268
            },
            {
              "number": 7,
              "ticks": 109294,
              "time": 116.76720494583333,
              "value": 0.4566929133858268
            },
            {
              "number": 7,
              "ticks": 109372,
              "time": 116.85053835833332,
              "value": 0.4566929133858268
            },
            {
              "number": 7,
              "ticks": 109450,
              "time": 116.93387177083333,
              "value": 0.4566929133858268
            },
            {
              "number": 7,
              "ticks": 109528,
              "time": 117.01720518333333,
              "value": 0.4566929133858268
            },
            {
              "number": 7,
              "ticks": 109605,
              "time": 117.09947021875,
              "value": 0.4566929133858268
            },
            {
              "number": 7,
              "ticks": 109684,
              "time": 117.18387200833332,
              "value": 0.4566929133858268
            },
            {
              "number": 7,
              "ticks": 109761,
              "time": 117.26613704374999,
              "value": 0.4566929133858268
            },
            {
              "number": 7,
              "ticks": 109839,
              "time": 117.34947045625,
              "value": 0.4566929133858268
            },
            {
              "number": 7,
              "ticks": 109917,
              "time": 117.43280386875,
              "value": 0.4566929133858268
            },
            {
              "number": 7,
              "ticks": 109994,
              "time": 117.51506890416667,
              "value": 0.4566929133858268
            },
            {
              "number": 7,
              "ticks": 110073,
              "time": 117.59947069374999,
              "value": 0.4566929133858268
            },
            {
              "number": 7,
              "ticks": 110150,
              "time": 117.68173572916666,
              "value": 0.4566929133858268
            },
            {
              "number": 7,
              "ticks": 110228,
              "time": 117.76506914166667,
              "value": 0.4566929133858268
            },
            {
              "number": 7,
              "ticks": 110306,
              "time": 117.84840255416667,
              "value": 0.4566929133858268
            },
            {
              "number": 7,
              "ticks": 110383,
              "time": 117.93066758958332,
              "value": 0.4566929133858268
            },
            {
              "number": 7,
              "ticks": 110462,
              "time": 118.01506937916666,
              "value": 0.4566929133858268
            },
            {
              "number": 7,
              "ticks": 110539,
              "time": 118.09733441458333,
              "value": 0.4566929133858268
            },
            {
              "number": 7,
              "ticks": 110617,
              "time": 118.18066782708333,
              "value": 0.4566929133858268
            },
            {
              "number": 7,
              "ticks": 110695,
              "time": 118.26400123958334,
              "value": 0.4566929133858268
            },
            {
              "number": 7,
              "ticks": 110773,
              "time": 118.34733465208333,
              "value": 0.4566929133858268
            },
            {
              "number": 7,
              "ticks": 110850,
              "time": 118.42959968749999,
              "value": 0.4566929133858268
            },
            {
              "number": 7,
              "ticks": 110929,
              "time": 118.51400147708333,
              "value": 0.4566929133858268
            },
            {
              "number": 7,
              "ticks": 111006,
              "time": 118.5962665125,
              "value": 0.4566929133858268
            },
            {
              "number": 7,
              "ticks": 111084,
              "time": 118.679599925,
              "value": 0.4566929133858268
            },
            {
              "number": 7,
              "ticks": 111162,
              "time": 118.7629333375,
              "value": 0.4566929133858268
            },
            {
              "number": 7,
              "ticks": 111239,
              "time": 118.84519837291666,
              "value": 0.4566929133858268
            },
            {
              "number": 7,
              "ticks": 111318,
              "time": 118.9296001625,
              "value": 0.4566929133858268
            },
            {
              "number": 7,
              "ticks": 111395,
              "time": 119.01186519791665,
              "value": 0.4566929133858268
            },
            {
              "number": 7,
              "ticks": 111473,
              "time": 119.09519861041667,
              "value": 0.44881889763779526
            },
            {
              "number": 7,
              "ticks": 111551,
              "time": 119.17853202291667,
              "value": 0.44881889763779526
            },
            {
              "number": 7,
              "ticks": 111628,
              "time": 119.26079705833332,
              "value": 0.44881889763779526
            },
            {
              "number": 7,
              "ticks": 111707,
              "time": 119.34519884791666,
              "value": 0.44881889763779526
            },
            {
              "number": 7,
              "ticks": 111785,
              "time": 119.42853226041666,
              "value": 0.44881889763779526
            },
            {
              "number": 7,
              "ticks": 111862,
              "time": 119.51079729583331,
              "value": 0.44881889763779526
            },
            {
              "number": 7,
              "ticks": 111940,
              "time": 119.59413070833334,
              "value": 0.44881889763779526
            },
            {
              "number": 7,
              "ticks": 112018,
              "time": 119.67746412083333,
              "value": 0.44881889763779526
            },
            {
              "number": 7,
              "ticks": 112095,
              "time": 119.75972915624999,
              "value": 0.44881889763779526
            },
            {
              "number": 7,
              "ticks": 112174,
              "time": 119.84413094583333,
              "value": 0.44881889763779526
            },
            {
              "number": 7,
              "ticks": 112251,
              "time": 119.92639598124998,
              "value": 0.44881889763779526
            },
            {
              "number": 7,
              "ticks": 112329,
              "time": 120.00972939374999,
              "value": 0.44881889763779526
            },
            {
              "number": 7,
              "ticks": 112407,
              "time": 120.09306280624999,
              "value": 0.44881889763779526
            },
            {
              "number": 7,
              "ticks": 112484,
              "time": 120.17532784166666,
              "value": 0.44881889763779526
            },
            {
              "number": 7,
              "ticks": 112563,
              "time": 120.25972963125,
              "value": 0.44881889763779526
            },
            {
              "number": 7,
              "ticks": 112640,
              "time": 120.34199466666665,
              "value": 0.44881889763779526
            },
            {
              "number": 7,
              "ticks": 112718,
              "time": 120.42532807916666,
              "value": 0.44881889763779526
            },
            {
              "number": 7,
              "ticks": 112796,
              "time": 120.50866149166666,
              "value": 0.44881889763779526
            },
            {
              "number": 7,
              "ticks": 112873,
              "time": 120.59092652708333,
              "value": 0.44881889763779526
            },
            {
              "number": 7,
              "ticks": 112952,
              "time": 120.67532831666666,
              "value": 0.44881889763779526
            },
            {
              "number": 7,
              "ticks": 113029,
              "time": 120.75759335208332,
              "value": 0.44881889763779526
            },
            {
              "number": 7,
              "ticks": 113107,
              "time": 120.84092676458332,
              "value": 0.44881889763779526
            },
            {
              "number": 7,
              "ticks": 113185,
              "time": 120.92426017708333,
              "value": 0.44881889763779526
            },
            {
              "number": 7,
              "ticks": 113263,
              "time": 121.00759358958332,
              "value": 0.44881889763779526
            },
            {
              "number": 7,
              "ticks": 113340,
              "time": 121.08985862499999,
              "value": 0.44881889763779526
            },
            {
              "number": 7,
              "ticks": 113419,
              "time": 121.17426041458333,
              "value": 0.44881889763779526
            },
            {
              "number": 7,
              "ticks": 113496,
              "time": 121.25652544999998,
              "value": 0.44881889763779526
            },
            {
              "number": 7,
              "ticks": 113574,
              "time": 121.3398588625,
              "value": 0.44881889763779526
            },
            {
              "number": 7,
              "ticks": 113652,
              "time": 121.42319227499999,
              "value": 0.44881889763779526
            },
            {
              "number": 7,
              "ticks": 113729,
              "time": 121.50545731041666,
              "value": 0.44881889763779526
            },
            {
              "number": 7,
              "ticks": 113808,
              "time": 121.58985909999998,
              "value": 0.44881889763779526
            },
            {
              "number": 7,
              "ticks": 113885,
              "time": 121.67212413541665,
              "value": 0.44881889763779526
            },
            {
              "number": 7,
              "ticks": 113963,
              "time": 121.75545754791666,
              "value": 0.4409448818897638
            },
            {
              "number": 7,
              "ticks": 114041,
              "time": 121.83879096041666,
              "value": 0.4409448818897638
            },
            {
              "number": 7,
              "ticks": 114118,
              "time": 121.92105599583333,
              "value": 0.4409448818897638
            },
            {
              "number": 7,
              "ticks": 114197,
              "time": 122.00545778541665,
              "value": 0.4409448818897638
            },
            {
              "number": 7,
              "ticks": 114274,
              "time": 122.08772282083332,
              "value": 0.4409448818897638
            },
            {
              "number": 7,
              "ticks": 114352,
              "time": 122.17105623333332,
              "value": 0.4409448818897638
            },
            {
              "number": 7,
              "ticks": 114430,
              "time": 122.25438964583333,
              "value": 0.4409448818897638
            },
            {
              "number": 7,
              "ticks": 114508,
              "time": 122.33772305833332,
              "value": 0.4409448818897638
            },
            {
              "number": 7,
              "ticks": 114585,
              "time": 122.41998809374999,
              "value": 0.4409448818897638
            },
            {
              "number": 7,
              "ticks": 114664,
              "time": 122.50438988333332,
              "value": 0.4409448818897638
            },
            {
              "number": 7,
              "ticks": 114741,
              "time": 122.58665491874999,
              "value": 0.4409448818897638
            },
            {
              "number": 7,
              "ticks": 114819,
              "time": 122.66998833125,
              "value": 0.4409448818897638
            },
            {
              "number": 7,
              "ticks": 114897,
              "time": 122.75332174374999,
              "value": 0.4409448818897638
            },
            {
              "number": 7,
              "ticks": 114974,
              "time": 122.83558677916666,
              "value": 0.4409448818897638
            },
            {
              "number": 7,
              "ticks": 115053,
              "time": 122.91998856874999,
              "value": 0.4409448818897638
            },
            {
              "number": 7,
              "ticks": 115130,
              "time": 123.00225360416665,
              "value": 0.4409448818897638
            },
            {
              "number": 7,
              "ticks": 115208,
              "time": 123.08558701666666,
              "value": 0.4409448818897638
            },
            {
              "number": 7,
              "ticks": 115286,
              "time": 123.16892042916666,
              "value": 0.4409448818897638
            },
            {
              "number": 7,
              "ticks": 115363,
              "time": 123.25118546458333,
              "value": 0.4409448818897638
            },
            {
              "number": 7,
              "ticks": 115442,
              "time": 123.33558725416665,
              "value": 0.4409448818897638
            },
            {
              "number": 7,
              "ticks": 115519,
              "time": 123.41785228958332,
              "value": 0.4409448818897638
            },
            {
              "number": 7,
              "ticks": 115597,
              "time": 123.50118570208332,
              "value": 0.4409448818897638
            },
            {
              "number": 7,
              "ticks": 115675,
              "time": 123.58451911458333,
              "value": 0.4409448818897638
            },
            {
              "number": 7,
              "ticks": 115753,
              "time": 123.66785252708333,
              "value": 0.4409448818897638
            },
            {
              "number": 7,
              "ticks": 115830,
              "time": 123.7501175625,
              "value": 0.4409448818897638
            },
            {
              "number": 7,
              "ticks": 115909,
              "time": 123.83451935208332,
              "value": 0.4409448818897638
            },
            {
              "number": 7,
              "ticks": 115986,
              "time": 123.91678438749999,
              "value": 0.4409448818897638
            },
            {
              "number": 7,
              "ticks": 116064,
              "time": 124.0001178,
              "value": 0.4409448818897638
            },
            {
              "number": 7,
              "ticks": 116142,
              "time": 124.0834512125,
              "value": 0.4409448818897638
            },
            {
              "number": 7,
              "ticks": 116219,
              "time": 124.16571624791666,
              "value": 0.4409448818897638
            },
            {
              "number": 7,
              "ticks": 116297,
              "time": 124.24904966041666,
              "value": 0.4409448818897638
            },
            {
              "number": 7,
              "ticks": 116375,
              "time": 124.33238307291666,
              "value": 0.4409448818897638
            },
            {
              "number": 7,
              "ticks": 116453,
              "time": 124.41571648541667,
              "value": 0.4330708661417323
            },
            {
              "number": 7,
              "ticks": 116531,
              "time": 124.49904989791666,
              "value": 0.4330708661417323
            },
            {
              "number": 7,
              "ticks": 116608,
              "time": 124.58131493333333,
              "value": 0.4330708661417323
            },
            {
              "number": 7,
              "ticks": 116687,
              "time": 124.66571672291666,
              "value": 0.4330708661417323
            },
            {
              "number": 7,
              "ticks": 116764,
              "time": 124.74798175833332,
              "value": 0.4330708661417323
            },
            {
              "number": 7,
              "ticks": 116842,
              "time": 124.83131517083332,
              "value": 0.4330708661417323
            },
            {
              "number": 7,
              "ticks": 116920,
              "time": 124.91464858333333,
              "value": 0.4330708661417323
            },
            {
              "number": 7,
              "ticks": 116998,
              "time": 124.99798199583333,
              "value": 0.4330708661417323
            },
            {
              "number": 7,
              "ticks": 117075,
              "time": 125.08024703125,
              "value": 0.4330708661417323
            },
            {
              "number": 7,
              "ticks": 117154,
              "time": 125.16464882083332,
              "value": 0.4330708661417323
            },
            {
              "number": 7,
              "ticks": 117231,
              "time": 125.24691385624999,
              "value": 0.4330708661417323
            },
            {
              "number": 7,
              "ticks": 117309,
              "time": 125.33024726875,
              "value": 0.4330708661417323
            },
            {
              "number": 7,
              "ticks": 117387,
              "time": 125.41358068125,
              "value": 0.4330708661417323
            },
            {
              "number": 7,
              "ticks": 117464,
              "time": 125.49584571666666,
              "value": 0.4330708661417323
            },
            {
              "number": 7,
              "ticks": 117543,
              "time": 125.58024750624999,
              "value": 0.4330708661417323
            },
            {
              "number": 7,
              "ticks": 117620,
              "time": 125.66251254166666,
              "value": 0.4330708661417323
            },
            {
              "number": 7,
              "ticks": 117698,
              "time": 125.74584595416667,
              "value": 0.4330708661417323
            },
            {
              "number": 7,
              "ticks": 117776,
              "time": 125.82917936666666,
              "value": 0.4330708661417323
            },
            {
              "number": 7,
              "ticks": 117853,
              "time": 125.91144440208333,
              "value": 0.4330708661417323
            },
            {
              "number": 7,
              "ticks": 117932,
              "time": 125.99584619166666,
              "value": 0.4330708661417323
            },
            {
              "number": 7,
              "ticks": 118009,
              "time": 126.07811122708333,
              "value": 0.4330708661417323
            },
            {
              "number": 7,
              "ticks": 118087,
              "time": 126.16144463958332,
              "value": 0.4330708661417323
            },
            {
              "number": 7,
              "ticks": 118165,
              "time": 126.24477805208333,
              "value": 0.4330708661417323
            },
            {
              "number": 7,
              "ticks": 118243,
              "time": 126.32811146458333,
              "value": 0.4330708661417323
            },
            {
              "number": 7,
              "ticks": 118320,
              "time": 126.4103765,
              "value": 0.4330708661417323
            },
            {
              "number": 7,
              "ticks": 118399,
              "time": 126.49477828958332,
              "value": 0.4330708661417323
            },
            {
              "number": 7,
              "ticks": 118476,
              "time": 126.57704332499999,
              "value": 0.4330708661417323
            },
            {
              "number": 7,
              "ticks": 118554,
              "time": 126.6603767375,
              "value": 0.4330708661417323
            },
            {
              "number": 7,
              "ticks": 118632,
              "time": 126.74371015,
              "value": 0.4330708661417323
            },
            {
              "number": 7,
              "ticks": 118709,
              "time": 126.82597518541667,
              "value": 0.4330708661417323
            },
            {
              "number": 7,
              "ticks": 118788,
              "time": 126.91037697499999,
              "value": 0.4330708661417323
            },
            {
              "number": 7,
              "ticks": 118865,
              "time": 126.99264201041666,
              "value": 0.4330708661417323
            },
            {
              "number": 7,
              "ticks": 118943,
              "time": 127.07597542291667,
              "value": 0.4251968503937008
            },
            {
              "number": 7,
              "ticks": 119021,
              "time": 127.15930883541667,
              "value": 0.4251968503937008
            },
            {
              "number": 7,
              "ticks": 119098,
              "time": 127.24157387083334,
              "value": 0.4251968503937008
            },
            {
              "number": 7,
              "ticks": 119177,
              "time": 127.32597566041666,
              "value": 0.4251968503937008
            },
            {
              "number": 7,
              "ticks": 119254,
              "time": 127.40824069583333,
              "value": 0.4251968503937008
            },
            {
              "number": 7,
              "ticks": 119332,
              "time": 127.49157410833332,
              "value": 0.4251968503937008
            },
            {
              "number": 7,
              "ticks": 119410,
              "time": 127.57490752083334,
              "value": 0.4251968503937008
            },
            {
              "number": 7,
              "ticks": 119488,
              "time": 127.65824093333333,
              "value": 0.4251968503937008
            },
            {
              "number": 7,
              "ticks": 119565,
              "time": 127.74050596874999,
              "value": 0.4251968503937008
            },
            {
              "number": 7,
              "ticks": 119644,
              "time": 127.82490775833332,
              "value": 0.4251968503937008
            },
            {
              "number": 7,
              "ticks": 119721,
              "time": 127.90717279375,
              "value": 0.4251968503937008
            },
            {
              "number": 7,
              "ticks": 119799,
              "time": 127.99050620625,
              "value": 0.4251968503937008
            },
            {
              "number": 7,
              "ticks": 119877,
              "time": 128.07383961875,
              "value": 0.4251968503937008
            },
            {
              "number": 7,
              "ticks": 119954,
              "time": 128.15610465416665,
              "value": 0.4251968503937008
            },
            {
              "number": 7,
              "ticks": 120033,
              "time": 128.24050644374998,
              "value": 0.4251968503937008
            },
            {
              "number": 7,
              "ticks": 120110,
              "time": 128.32277147916665,
              "value": 0.4251968503937008
            },
            {
              "number": 7,
              "ticks": 120188,
              "time": 128.40610489166667,
              "value": 0.4251968503937008
            },
            {
              "number": 7,
              "ticks": 120266,
              "time": 128.48943830416667,
              "value": 0.4251968503937008
            },
            {
              "number": 7,
              "ticks": 120343,
              "time": 128.57170333958334,
              "value": 0.4251968503937008
            },
            {
              "number": 7,
              "ticks": 120422,
              "time": 128.65610512916666,
              "value": 0.4251968503937008
            },
            {
              "number": 7,
              "ticks": 120499,
              "time": 128.73837016458333,
              "value": 0.4251968503937008
            },
            {
              "number": 7,
              "ticks": 120577,
              "time": 128.82170357708333,
              "value": 0.4251968503937008
            },
            {
              "number": 7,
              "ticks": 120655,
              "time": 128.90503698958332,
              "value": 0.4251968503937008
            },
            {
              "number": 7,
              "ticks": 120733,
              "time": 128.98837040208332,
              "value": 0.4251968503937008
            },
            {
              "number": 7,
              "ticks": 120810,
              "time": 129.0706354375,
              "value": 0.4251968503937008
            },
            {
              "number": 7,
              "ticks": 120889,
              "time": 129.1550372270833,
              "value": 0.4251968503937008
            },
            {
              "number": 7,
              "ticks": 120966,
              "time": 129.23730226249998,
              "value": 0.4251968503937008
            },
            {
              "number": 7,
              "ticks": 121044,
              "time": 129.320635675,
              "value": 0.4251968503937008
            },
            {
              "number": 7,
              "ticks": 121122,
              "time": 129.4039690875,
              "value": 0.4251968503937008
            },
            {
              "number": 7,
              "ticks": 121199,
              "time": 129.48623412291667,
              "value": 0.4251968503937008
            },
            {
              "number": 7,
              "ticks": 121278,
              "time": 129.5706359125,
              "value": 0.4251968503937008
            },
            {
              "number": 7,
              "ticks": 121355,
              "time": 129.65290094791666,
              "value": 0.4251968503937008
            },
            {
              "number": 7,
              "ticks": 121433,
              "time": 129.73623436041666,
              "value": 0.41732283464566927
            },
            {
              "number": 7,
              "ticks": 121511,
              "time": 129.81956777291666,
              "value": 0.41732283464566927
            },
            {
              "number": 7,
              "ticks": 121588,
              "time": 129.90183280833332,
              "value": 0.41732283464566927
            },
            {
              "number": 7,
              "ticks": 121667,
              "time": 129.98623459791665,
              "value": 0.41732283464566927
            },
            {
              "number": 7,
              "ticks": 121744,
              "time": 130.06849963333332,
              "value": 0.41732283464566927
            },
            {
              "number": 7,
              "ticks": 121822,
              "time": 130.1518330458333,
              "value": 0.41732283464566927
            },
            {
              "number": 7,
              "ticks": 121900,
              "time": 130.23516645833334,
              "value": 0.41732283464566927
            },
            {
              "number": 7,
              "ticks": 121978,
              "time": 130.31849987083334,
              "value": 0.41732283464566927
            },
            {
              "number": 7,
              "ticks": 122055,
              "time": 130.40076490625,
              "value": 0.41732283464566927
            },
            {
              "number": 7,
              "ticks": 122134,
              "time": 130.48516669583333,
              "value": 0.41732283464566927
            },
            {
              "number": 7,
              "ticks": 122211,
              "time": 130.56743173125,
              "value": 0.41732283464566927
            },
            {
              "number": 7,
              "ticks": 122289,
              "time": 130.65076514375,
              "value": 0.41732283464566927
            },
            {
              "number": 7,
              "ticks": 122367,
              "time": 130.73409855625,
              "value": 0.41732283464566927
            },
            {
              "number": 7,
              "ticks": 122444,
              "time": 130.81636359166666,
              "value": 0.41732283464566927
            },
            {
              "number": 7,
              "ticks": 122523,
              "time": 130.90076538124998,
              "value": 0.41732283464566927
            },
            {
              "number": 7,
              "ticks": 122600,
              "time": 130.98303041666665,
              "value": 0.41732283464566927
            },
            {
              "number": 7,
              "ticks": 122678,
              "time": 131.06636382916668,
              "value": 0.41732283464566927
            },
            {
              "number": 7,
              "ticks": 122756,
              "time": 131.14969724166667,
              "value": 0.41732283464566927
            },
            {
              "number": 7,
              "ticks": 122833,
              "time": 131.23196227708334,
              "value": 0.41732283464566927
            },
            {
              "number": 7,
              "ticks": 122912,
              "time": 131.31636406666667,
              "value": 0.41732283464566927
            },
            {
              "number": 7,
              "ticks": 122989,
              "time": 131.39862910208333,
              "value": 0.41732283464566927
            },
            {
              "number": 7,
              "ticks": 123067,
              "time": 131.48196251458333,
              "value": 0.41732283464566927
            },
            {
              "number": 7,
              "ticks": 123145,
              "time": 131.56529592708333,
              "value": 0.41732283464566927
            },
            {
              "number": 7,
              "ticks": 123223,
              "time": 131.64862933958332,
              "value": 0.41732283464566927
            },
            {
              "number": 7,
              "ticks": 123300,
              "time": 131.730894375,
              "value": 0.41732283464566927
            },
            {
              "number": 7,
              "ticks": 123379,
              "time": 131.81529616458332,
              "value": 0.41732283464566927
            },
            {
              "number": 7,
              "ticks": 123456,
              "time": 131.89756119999998,
              "value": 0.41732283464566927
            },
            {
              "number": 7,
              "ticks": 123534,
              "time": 131.9808946125,
              "value": 0.41732283464566927
            },
            {
              "number": 7,
              "ticks": 123612,
              "time": 132.06422802499998,
              "value": 0.41732283464566927
            },
            {
              "number": 7,
              "ticks": 123689,
              "time": 132.14649306041665,
              "value": 0.41732283464566927
            },
            {
              "number": 7,
              "ticks": 123768,
              "time": 132.23089485,
              "value": 0.41732283464566927
            },
            {
              "number": 7,
              "ticks": 123845,
              "time": 132.31315988541667,
              "value": 0.41732283464566927
            },
            {
              "number": 7,
              "ticks": 123923,
              "time": 132.39649329791666,
              "value": 0.4094488188976378
            },
            {
              "number": 7,
              "ticks": 124001,
              "time": 132.47982671041666,
              "value": 0.4094488188976378
            },
            {
              "number": 7,
              "ticks": 124078,
              "time": 132.56209174583333,
              "value": 0.4094488188976378
            },
            {
              "number": 7,
              "ticks": 124157,
              "time": 132.64649353541665,
              "value": 0.4094488188976378
            },
            {
              "number": 7,
              "ticks": 124234,
              "time": 132.72875857083332,
              "value": 0.4094488188976378
            },
            {
              "number": 7,
              "ticks": 124312,
              "time": 132.81209198333335,
              "value": 0.4094488188976378
            },
            {
              "number": 7,
              "ticks": 124390,
              "time": 132.8954253958333,
              "value": 0.4094488188976378
            },
            {
              "number": 7,
              "ticks": 124468,
              "time": 132.97875880833334,
              "value": 0.4094488188976378
            },
            {
              "number": 7,
              "ticks": 124545,
              "time": 133.06102384374998,
              "value": 0.4094488188976378
            },
            {
              "number": 7,
              "ticks": 124624,
              "time": 133.14542563333333,
              "value": 0.4094488188976378
            },
            {
              "number": 7,
              "ticks": 124701,
              "time": 133.22769066875,
              "value": 0.4094488188976378
            },
            {
              "number": 7,
              "ticks": 124779,
              "time": 133.31102408125,
              "value": 0.4094488188976378
            },
            {
              "number": 7,
              "ticks": 124857,
              "time": 133.39435749375,
              "value": 0.4094488188976378
            },
            {
              "number": 7,
              "ticks": 124934,
              "time": 133.47662252916663,
              "value": 0.4094488188976378
            },
            {
              "number": 7,
              "ticks": 125013,
              "time": 133.56102431875001,
              "value": 0.4094488188976378
            },
            {
              "number": 7,
              "ticks": 125090,
              "time": 133.64328935416668,
              "value": 0.4094488188976378
            },
            {
              "number": 7,
              "ticks": 125168,
              "time": 133.72662276666665,
              "value": 0.4094488188976378
            },
            {
              "number": 7,
              "ticks": 125246,
              "time": 133.80995617916668,
              "value": 0.4094488188976378
            },
            {
              "number": 7,
              "ticks": 125323,
              "time": 133.89222121458332,
              "value": 0.4094488188976378
            },
            {
              "number": 7,
              "ticks": 125402,
              "time": 133.97662300416667,
              "value": 0.4094488188976378
            },
            {
              "number": 7,
              "ticks": 125479,
              "time": 134.0588880395833,
              "value": 0.4094488188976378
            },
            {
              "number": 7,
              "ticks": 125557,
              "time": 134.14222145208333,
              "value": 0.4094488188976378
            },
            {
              "number": 7,
              "ticks": 125635,
              "time": 134.22555486458333,
              "value": 0.4094488188976378
            },
            {
              "number": 7,
              "ticks": 125713,
              "time": 134.30888827708333,
              "value": 0.4094488188976378
            },
            {
              "number": 7,
              "ticks": 125790,
              "time": 134.3911533125,
              "value": 0.4094488188976378
            },
            {
              "number": 7,
              "ticks": 125869,
              "time": 134.47555510208332,
              "value": 0.4094488188976378
            },
            {
              "number": 7,
              "ticks": 125946,
              "time": 134.5578201375,
              "value": 0.4094488188976378
            },
            {
              "number": 7,
              "ticks": 126024,
              "time": 134.64115354999998,
              "value": 0.4094488188976378
            },
            {
              "number": 7,
              "ticks": 126102,
              "time": 134.72448696249998,
              "value": 0.4094488188976378
            },
            {
              "number": 7,
              "ticks": 126179,
              "time": 134.80675199791665,
              "value": 0.4094488188976378
            },
            {
              "number": 7,
              "ticks": 126258,
              "time": 134.8911537875,
              "value": 0.4094488188976378
            },
            {
              "number": 7,
              "ticks": 126335,
              "time": 134.97341882291667,
              "value": 0.4094488188976378
            },
            {
              "number": 7,
              "ticks": 126413,
              "time": 135.05675223541664,
              "value": 0.4015748031496063
            },
            {
              "number": 7,
              "ticks": 126491,
              "time": 135.14008564791666,
              "value": 0.4015748031496063
            },
            {
              "number": 7,
              "ticks": 126568,
              "time": 135.22235068333333,
              "value": 0.4015748031496063
            },
            {
              "number": 7,
              "ticks": 126647,
              "time": 135.30675247291666,
              "value": 0.4015748031496063
            },
            {
              "number": 7,
              "ticks": 126724,
              "time": 135.38901750833332,
              "value": 0.4015748031496063
            },
            {
              "number": 7,
              "ticks": 126802,
              "time": 135.47235092083332,
              "value": 0.4015748031496063
            },
            {
              "number": 7,
              "ticks": 126880,
              "time": 135.55568433333332,
              "value": 0.4015748031496063
            },
            {
              "number": 7,
              "ticks": 126958,
              "time": 135.6390177458333,
              "value": 0.4015748031496063
            },
            {
              "number": 7,
              "ticks": 127035,
              "time": 135.72128278124998,
              "value": 0.4015748031496063
            },
            {
              "number": 7,
              "ticks": 127114,
              "time": 135.80568457083334,
              "value": 0.4015748031496063
            },
            {
              "number": 7,
              "ticks": 127191,
              "time": 135.88794960624998,
              "value": 0.4015748031496063
            },
            {
              "number": 7,
              "ticks": 127269,
              "time": 135.97128301875,
              "value": 0.4015748031496063
            },
            {
              "number": 7,
              "ticks": 127347,
              "time": 136.05461643124997,
              "value": 0.4015748031496063
            },
            {
              "number": 7,
              "ticks": 127424,
              "time": 136.13688146666664,
              "value": 0.4015748031496063
            },
            {
              "number": 7,
              "ticks": 127503,
              "time": 136.22128325625002,
              "value": 0.4015748031496063
            },
            {
              "number": 7,
              "ticks": 127580,
              "time": 136.30354829166666,
              "value": 0.4015748031496063
            },
            {
              "number": 7,
              "ticks": 127658,
              "time": 136.38688170416665,
              "value": 0.4015748031496063
            },
            {
              "number": 7,
              "ticks": 127736,
              "time": 136.47021511666665,
              "value": 0.4015748031496063
            },
            {
              "number": 7,
              "ticks": 127813,
              "time": 136.55248015208332,
              "value": 0.4015748031496063
            },
            {
              "number": 7,
              "ticks": 127892,
              "time": 136.63688194166664,
              "value": 0.4015748031496063
            },
            {
              "number": 7,
              "ticks": 127969,
              "time": 136.7191469770833,
              "value": 0.4015748031496063
            },
            {
              "number": 7,
              "ticks": 128047,
              "time": 136.80248038958334,
              "value": 0.4015748031496063
            },
            {
              "number": 7,
              "ticks": 128125,
              "time": 136.8858138020833,
              "value": 0.4015748031496063
            },
            {
              "number": 7,
              "ticks": 128203,
              "time": 136.96914721458333,
              "value": 0.4015748031496063
            },
            {
              "number": 7,
              "ticks": 128280,
              "time": 137.05141225,
              "value": 0.4015748031496063
            },
            {
              "number": 7,
              "ticks": 128359,
              "time": 137.13581403958332,
              "value": 0.4015748031496063
            },
            {
              "number": 7,
              "ticks": 128436,
              "time": 137.218079075,
              "value": 0.4015748031496063
            },
            {
              "number": 7,
              "ticks": 128514,
              "time": 137.3014124875,
              "value": 0.4015748031496063
            },
            {
              "number": 7,
              "ticks": 128592,
              "time": 137.38474589999998,
              "value": 0.4015748031496063
            },
            {
              "number": 7,
              "ticks": 128669,
              "time": 137.46701093541665,
              "value": 0.4015748031496063
            },
            {
              "number": 7,
              "ticks": 128748,
              "time": 137.551412725,
              "value": 0.4015748031496063
            },
            {
              "number": 7,
              "ticks": 128825,
              "time": 137.63367776041667,
              "value": 0.4015748031496063
            },
            {
              "number": 7,
              "ticks": 128903,
              "time": 137.71701117291664,
              "value": 0.3937007874015748
            },
            {
              "number": 7,
              "ticks": 128981,
              "time": 137.80034458541667,
              "value": 0.3937007874015748
            },
            {
              "number": 7,
              "ticks": 129058,
              "time": 137.88260962083334,
              "value": 0.3937007874015748
            },
            {
              "number": 7,
              "ticks": 129137,
              "time": 137.96701141041666,
              "value": 0.3937007874015748
            },
            {
              "number": 7,
              "ticks": 129214,
              "time": 138.04927644583333,
              "value": 0.3937007874015748
            },
            {
              "number": 7,
              "ticks": 129292,
              "time": 138.13260985833332,
              "value": 0.3937007874015748
            },
            {
              "number": 7,
              "ticks": 129370,
              "time": 138.21594327083332,
              "value": 0.3937007874015748
            },
            {
              "number": 7,
              "ticks": 129448,
              "time": 138.29927668333332,
              "value": 0.3937007874015748
            },
            {
              "number": 7,
              "ticks": 129525,
              "time": 138.38154171875,
              "value": 0.3937007874015748
            },
            {
              "number": 7,
              "ticks": 129603,
              "time": 138.46487513125,
              "value": 0.3937007874015748
            },
            {
              "number": 7,
              "ticks": 129681,
              "time": 138.54820854374998,
              "value": 0.3937007874015748
            },
            {
              "number": 7,
              "ticks": 129759,
              "time": 138.63154195625,
              "value": 0.3937007874015748
            },
            {
              "number": 7,
              "ticks": 129837,
              "time": 138.71487536874997,
              "value": 0.3937007874015748
            },
            {
              "number": 7,
              "ticks": 129914,
              "time": 138.79714040416664,
              "value": 0.3937007874015748
            },
            {
              "number": 7,
              "ticks": 129993,
              "time": 138.88154219375,
              "value": 0.3937007874015748
            },
            {
              "number": 7,
              "ticks": 130070,
              "time": 138.96380722916666,
              "value": 0.3937007874015748
            },
            {
              "number": 7,
              "ticks": 130148,
              "time": 139.04714064166666,
              "value": 0.3937007874015748
            },
            {
              "number": 7,
              "ticks": 130226,
              "time": 139.13047405416665,
              "value": 0.3937007874015748
            },
            {
              "number": 7,
              "ticks": 130303,
              "time": 139.21273908958332,
              "value": 0.3937007874015748
            },
            {
              "number": 7,
              "ticks": 130382,
              "time": 139.29714087916665,
              "value": 0.3937007874015748
            },
            {
              "number": 7,
              "ticks": 130459,
              "time": 139.37940591458332,
              "value": 0.3937007874015748
            },
            {
              "number": 7,
              "ticks": 130537,
              "time": 139.46273932708334,
              "value": 0.3937007874015748
            },
            {
              "number": 7,
              "ticks": 130615,
              "time": 139.5460727395833,
              "value": 0.3937007874015748
            },
            {
              "number": 7,
              "ticks": 130693,
              "time": 139.62940615208333,
              "value": 0.3937007874015748
            },
            {
              "number": 7,
              "ticks": 130770,
              "time": 139.7116711875,
              "value": 0.3937007874015748
            },
            {
              "number": 7,
              "ticks": 130849,
              "time": 139.79607297708333,
              "value": 0.3937007874015748
            },
            {
              "number": 7,
              "ticks": 130926,
              "time": 139.8783380125,
              "value": 0.3937007874015748
            },
            {
              "number": 7,
              "ticks": 131004,
              "time": 139.961671425,
              "value": 0.3937007874015748
            },
            {
              "number": 7,
              "ticks": 131082,
              "time": 140.0450048375,
              "value": 0.3937007874015748
            },
            {
              "number": 7,
              "ticks": 131159,
              "time": 140.12726987291666,
              "value": 0.3937007874015748
            },
            {
              "number": 7,
              "ticks": 131237,
              "time": 140.21060328541665,
              "value": 0.3937007874015748
            },
            {
              "number": 7,
              "ticks": 131315,
              "time": 140.29393669791668,
              "value": 0.3937007874015748
            },
            {
              "number": 7,
              "ticks": 131393,
              "time": 140.37727011041665,
              "value": 0.3858267716535433
            },
            {
              "number": 7,
              "ticks": 131471,
              "time": 140.46060352291667,
              "value": 0.3858267716535433
            },
            {
              "number": 7,
              "ticks": 131548,
              "time": 140.54286855833334,
              "value": 0.3858267716535433
            },
            {
              "number": 7,
              "ticks": 131627,
              "time": 140.62727034791666,
              "value": 0.3858267716535433
            },
            {
              "number": 7,
              "ticks": 131704,
              "time": 140.70953538333333,
              "value": 0.3858267716535433
            },
            {
              "number": 7,
              "ticks": 131782,
              "time": 140.79286879583333,
              "value": 0.3858267716535433
            },
            {
              "number": 7,
              "ticks": 131860,
              "time": 140.87620220833332,
              "value": 0.3858267716535433
            },
            {
              "number": 7,
              "ticks": 131938,
              "time": 140.95953562083332,
              "value": 0.3858267716535433
            },
            {
              "number": 7,
              "ticks": 132015,
              "time": 141.04180065625,
              "value": 0.3858267716535433
            },
            {
              "number": 7,
              "ticks": 132094,
              "time": 141.12620244583331,
              "value": 0.3858267716535433
            },
            {
              "number": 7,
              "ticks": 132171,
              "time": 141.20846748124998,
              "value": 0.3858267716535433
            },
            {
              "number": 7,
              "ticks": 132249,
              "time": 141.29180089375,
              "value": 0.3858267716535433
            },
            {
              "number": 7,
              "ticks": 132327,
              "time": 141.37513430624998,
              "value": 0.3858267716535433
            },
            {
              "number": 7,
              "ticks": 132404,
              "time": 141.45739934166664,
              "value": 0.3858267716535433
            },
            {
              "number": 7,
              "ticks": 132482,
              "time": 141.54073275416667,
              "value": 0.3858267716535433
            },
            {
              "number": 7,
              "ticks": 132560,
              "time": 141.62406616666667,
              "value": 0.3858267716535433
            },
            {
              "number": 7,
              "ticks": 132638,
              "time": 141.70739957916666,
              "value": 0.3858267716535433
            },
            {
              "number": 7,
              "ticks": 132716,
              "time": 141.79073299166666,
              "value": 0.3858267716535433
            },
            {
              "number": 7,
              "ticks": 132793,
              "time": 141.87299802708333,
              "value": 0.3858267716535433
            },
            {
              "number": 7,
              "ticks": 132872,
              "time": 141.95739981666665,
              "value": 0.3858267716535433
            },
            {
              "number": 7,
              "ticks": 132949,
              "time": 142.03966485208332,
              "value": 0.3858267716535433
            },
            {
              "number": 7,
              "ticks": 133027,
              "time": 142.12299826458334,
              "value": 0.3858267716535433
            },
            {
              "number": 7,
              "ticks": 133105,
              "time": 142.2063316770833,
              "value": 0.3858267716535433
            },
            {
              "number": 7,
              "ticks": 133183,
              "time": 142.28966508958334,
              "value": 0.3858267716535433
            },
            {
              "number": 7,
              "ticks": 133260,
              "time": 142.371930125,
              "value": 0.3858267716535433
            },
            {
              "number": 7,
              "ticks": 133339,
              "time": 142.45633191458333,
              "value": 0.3858267716535433
            },
            {
              "number": 7,
              "ticks": 133416,
              "time": 142.53859695,
              "value": 0.3858267716535433
            },
            {
              "number": 7,
              "ticks": 133494,
              "time": 142.6219303625,
              "value": 0.3858267716535433
            },
            {
              "number": 7,
              "ticks": 133572,
              "time": 142.705263775,
              "value": 0.3858267716535433
            },
            {
              "number": 7,
              "ticks": 133649,
              "time": 142.78752881041663,
              "value": 0.3858267716535433
            },
            {
              "number": 7,
              "ticks": 133728,
              "time": 142.8719306,
              "value": 0.3858267716535433
            },
            {
              "number": 7,
              "ticks": 133805,
              "time": 142.95419563541668,
              "value": 0.3858267716535433
            },
            {
              "number": 7,
              "ticks": 133883,
              "time": 143.03752904791665,
              "value": 0.3779527559055118
            },
            {
              "number": 7,
              "ticks": 133961,
              "time": 143.12086246041667,
              "value": 0.3779527559055118
            },
            {
              "number": 7,
              "ticks": 134038,
              "time": 143.20312749583331,
              "value": 0.3779527559055118
            },
            {
              "number": 7,
              "ticks": 134117,
              "time": 143.28752928541667,
              "value": 0.3779527559055118
            },
            {
              "number": 7,
              "ticks": 134194,
              "time": 143.36979432083334,
              "value": 0.3779527559055118
            },
            {
              "number": 7,
              "ticks": 134272,
              "time": 143.45312773333333,
              "value": 0.3779527559055118
            },
            {
              "number": 7,
              "ticks": 134350,
              "time": 143.53646114583333,
              "value": 0.3779527559055118
            },
            {
              "number": 7,
              "ticks": 134428,
              "time": 143.61979455833333,
              "value": 0.3779527559055118
            },
            {
              "number": 7,
              "ticks": 134505,
              "time": 143.70205959375,
              "value": 0.3779527559055118
            },
            {
              "number": 7,
              "ticks": 134584,
              "time": 143.78646138333332,
              "value": 0.3779527559055118
            },
            {
              "number": 7,
              "ticks": 134661,
              "time": 143.86872641875,
              "value": 0.3779527559055118
            },
            {
              "number": 7,
              "ticks": 134739,
              "time": 143.95205983125,
              "value": 0.3779527559055118
            },
            {
              "number": 7,
              "ticks": 134817,
              "time": 144.03539324374998,
              "value": 0.3779527559055118
            },
            {
              "number": 7,
              "ticks": 134894,
              "time": 144.11765827916665,
              "value": 0.3779527559055118
            },
            {
              "number": 7,
              "ticks": 134973,
              "time": 144.20206006875,
              "value": 0.3779527559055118
            },
            {
              "number": 7,
              "ticks": 135050,
              "time": 144.28432510416667,
              "value": 0.3779527559055118
            },
            {
              "number": 7,
              "ticks": 135128,
              "time": 144.36765851666664,
              "value": 0.3779527559055118
            },
            {
              "number": 7,
              "ticks": 135206,
              "time": 144.45099192916666,
              "value": 0.3779527559055118
            },
            {
              "number": 7,
              "ticks": 135283,
              "time": 144.53325696458333,
              "value": 0.3779527559055118
            },
            {
              "number": 7,
              "ticks": 135361,
              "time": 144.61659037708333,
              "value": 0.3779527559055118
            },
            {
              "number": 7,
              "ticks": 135440,
              "time": 144.70099216666668,
              "value": 0.3779527559055118
            },
            {
              "number": 7,
              "ticks": 135517,
              "time": 144.78325720208332,
              "value": 0.3779527559055118
            },
            {
              "number": 7,
              "ticks": 135595,
              "time": 144.86659061458332,
              "value": 0.3779527559055118
            },
            {
              "number": 7,
              "ticks": 135673,
              "time": 144.94992402708334,
              "value": 0.3779527559055118
            },
            {
              "number": 7,
              "ticks": 135750,
              "time": 145.03218906249998,
              "value": 0.3779527559055118
            },
            {
              "number": 7,
              "ticks": 135828,
              "time": 145.115522475,
              "value": 0.3779527559055118
            },
            {
              "number": 7,
              "ticks": 135906,
              "time": 145.19885588749997,
              "value": 0.3779527559055118
            },
            {
              "number": 7,
              "ticks": 135984,
              "time": 145.2821893,
              "value": 0.3779527559055118
            },
            {
              "number": 7,
              "ticks": 136062,
              "time": 145.36552271249997,
              "value": 0.3779527559055118
            },
            {
              "number": 7,
              "ticks": 136139,
              "time": 145.44778774791664,
              "value": 0.3779527559055118
            },
            {
              "number": 7,
              "ticks": 136218,
              "time": 145.53218953750002,
              "value": 0.3779527559055118
            },
            {
              "number": 7,
              "ticks": 136295,
              "time": 145.61445457291666,
              "value": 0.3779527559055118
            },
            {
              "number": 7,
              "ticks": 136373,
              "time": 145.69778798541665,
              "value": 0.3700787401574803
            },
            {
              "number": 7,
              "ticks": 136451,
              "time": 145.78112139791665,
              "value": 0.3700787401574803
            },
            {
              "number": 7,
              "ticks": 136528,
              "time": 145.86338643333332,
              "value": 0.3700787401574803
            },
            {
              "number": 7,
              "ticks": 136607,
              "time": 145.94778822291664,
              "value": 0.3700787401574803
            },
            {
              "number": 7,
              "ticks": 136684,
              "time": 146.0300532583333,
              "value": 0.3700787401574803
            },
            {
              "number": 7,
              "ticks": 136762,
              "time": 146.11338667083334,
              "value": 0.3700787401574803
            },
            {
              "number": 7,
              "ticks": 136840,
              "time": 146.1967200833333,
              "value": 0.3700787401574803
            },
            {
              "number": 7,
              "ticks": 136918,
              "time": 146.28005349583333,
              "value": 0.3700787401574803
            },
            {
              "number": 7,
              "ticks": 136995,
              "time": 146.36231853125,
              "value": 0.3700787401574803
            },
            {
              "number": 7,
              "ticks": 137074,
              "time": 146.44672032083332,
              "value": 0.3700787401574803
            },
            {
              "number": 7,
              "ticks": 137151,
              "time": 146.52898535625,
              "value": 0.3700787401574803
            },
            {
              "number": 7,
              "ticks": 137229,
              "time": 146.61231876875,
              "value": 0.3700787401574803
            },
            {
              "number": 7,
              "ticks": 137307,
              "time": 146.69565218124998,
              "value": 0.3700787401574803
            },
            {
              "number": 7,
              "ticks": 137384,
              "time": 146.77791721666665,
              "value": 0.3700787401574803
            },
            {
              "number": 7,
              "ticks": 137463,
              "time": 146.86231900625,
              "value": 0.3700787401574803
            },
            {
              "number": 7,
              "ticks": 137540,
              "time": 146.94458404166667,
              "value": 0.3700787401574803
            },
            {
              "number": 7,
              "ticks": 137618,
              "time": 147.02791745416664,
              "value": 0.3700787401574803
            },
            {
              "number": 7,
              "ticks": 137696,
              "time": 147.11125086666667,
              "value": 0.3700787401574803
            },
            {
              "number": 7,
              "ticks": 137773,
              "time": 147.19351590208333,
              "value": 0.3700787401574803
            },
            {
              "number": 7,
              "ticks": 137852,
              "time": 147.27791769166666,
              "value": 0.3700787401574803
            },
            {
              "number": 7,
              "ticks": 137929,
              "time": 147.36018272708333,
              "value": 0.3700787401574803
            },
            {
              "number": 7,
              "ticks": 138007,
              "time": 147.44351613958332,
              "value": 0.3700787401574803
            },
            {
              "number": 7,
              "ticks": 138085,
              "time": 147.52684955208332,
              "value": 0.3700787401574803
            },
            {
              "number": 7,
              "ticks": 138163,
              "time": 147.61018296458332,
              "value": 0.3700787401574803
            },
            {
              "number": 7,
              "ticks": 138240,
              "time": 147.69244799999998,
              "value": 0.3700787401574803
            },
            {
              "number": 7,
              "ticks": 138319,
              "time": 147.7768497895833,
              "value": 0.3700787401574803
            },
            {
              "number": 7,
              "ticks": 138396,
              "time": 147.85911482499998,
              "value": 0.3700787401574803
            },
            {
              "number": 7,
              "ticks": 138474,
              "time": 147.9424482375,
              "value": 0.3700787401574803
            },
            {
              "number": 7,
              "ticks": 138552,
              "time": 148.02578164999997,
              "value": 0.3700787401574803
            },
            {
              "number": 7,
              "ticks": 138629,
              "time": 148.10804668541664,
              "value": 0.3700787401574803
            },
            {
              "number": 7,
              "ticks": 138707,
              "time": 148.19138009791666,
              "value": 0.3700787401574803
            },
            {
              "number": 7,
              "ticks": 138785,
              "time": 148.27471351041666,
              "value": 0.3700787401574803
            },
            {
              "number": 7,
              "ticks": 138863,
              "time": 148.35804692291666,
              "value": 0.36220472440944884
            },
            {
              "number": 7,
              "ticks": 138941,
              "time": 148.44138033541665,
              "value": 0.36220472440944884
            },
            {
              "number": 7,
              "ticks": 139018,
              "time": 148.52364537083332,
              "value": 0.36220472440944884
            },
            {
              "number": 7,
              "ticks": 139097,
              "time": 148.60804716041665,
              "value": 0.36220472440944884
            },
            {
              "number": 7,
              "ticks": 139174,
              "time": 148.69031219583331,
              "value": 0.36220472440944884
            },
            {
              "number": 7,
              "ticks": 139252,
              "time": 148.77364560833334,
              "value": 0.36220472440944884
            },
            {
              "number": 7,
              "ticks": 139330,
              "time": 148.8569790208333,
              "value": 0.36220472440944884
            },
            {
              "number": 7,
              "ticks": 139408,
              "time": 148.94031243333333,
              "value": 0.36220472440944884
            },
            {
              "number": 7,
              "ticks": 139485,
              "time": 149.02257746875,
              "value": 0.36220472440944884
            },
            {
              "number": 7,
              "ticks": 139564,
              "time": 149.10697925833333,
              "value": 0.36220472440944884
            },
            {
              "number": 7,
              "ticks": 139641,
              "time": 149.18924429375,
              "value": 0.36220472440944884
            },
            {
              "number": 7,
              "ticks": 139719,
              "time": 149.27257770625,
              "value": 0.36220472440944884
            },
            {
              "number": 7,
              "ticks": 139797,
              "time": 149.35591111875,
              "value": 0.36220472440944884
            },
            {
              "number": 7,
              "ticks": 139874,
              "time": 149.43817615416665,
              "value": 0.36220472440944884
            },
            {
              "number": 7,
              "ticks": 139953,
              "time": 149.52257794375,
              "value": 0.36220472440944884
            },
            {
              "number": 7,
              "ticks": 140030,
              "time": 149.60484297916668,
              "value": 0.36220472440944884
            },
            {
              "number": 7,
              "ticks": 140108,
              "time": 149.68817639166664,
              "value": 0.36220472440944884
            },
            {
              "number": 7,
              "ticks": 140186,
              "time": 149.77150980416667,
              "value": 0.36220472440944884
            },
            {
              "number": 7,
              "ticks": 140263,
              "time": 149.85377483958334,
              "value": 0.36220472440944884
            },
            {
              "number": 7,
              "ticks": 140342,
              "time": 149.93817662916666,
              "value": 0.36220472440944884
            },
            {
              "number": 7,
              "ticks": 140419,
              "time": 150.02044166458333,
              "value": 0.36220472440944884
            },
            {
              "number": 7,
              "ticks": 140497,
              "time": 150.10377507708333,
              "value": 0.36220472440944884
            },
            {
              "number": 7,
              "ticks": 140575,
              "time": 150.18710848958332,
              "value": 0.36220472440944884
            },
            {
              "number": 7,
              "ticks": 140653,
              "time": 150.27044190208332,
              "value": 0.36220472440944884
            },
            {
              "number": 7,
              "ticks": 140730,
              "time": 150.3527069375,
              "value": 0.36220472440944884
            },
            {
              "number": 7,
              "ticks": 140809,
              "time": 150.4371087270833,
              "value": 0.36220472440944884
            },
            {
              "number": 7,
              "ticks": 140886,
              "time": 150.51937376249998,
              "value": 0.36220472440944884
            },
            {
              "number": 7,
              "ticks": 140964,
              "time": 150.602707175,
              "value": 0.36220472440944884
            },
            {
              "number": 7,
              "ticks": 141042,
              "time": 150.68604058749997,
              "value": 0.36220472440944884
            },
            {
              "number": 7,
              "ticks": 141119,
              "time": 150.76830562291664,
              "value": 0.36220472440944884
            },
            {
              "number": 7,
              "ticks": 141198,
              "time": 150.8527074125,
              "value": 0.36220472440944884
            },
            {
              "number": 7,
              "ticks": 141275,
              "time": 150.93497244791666,
              "value": 0.36220472440944884
            },
            {
              "number": 7,
              "ticks": 141353,
              "time": 151.01830586041666,
              "value": 0.3543307086614173
            },
            {
              "number": 7,
              "ticks": 141431,
              "time": 151.10163927291666,
              "value": 0.3543307086614173
            },
            {
              "number": 7,
              "ticks": 141508,
              "time": 151.18390430833333,
              "value": 0.3543307086614173
            },
            {
              "number": 7,
              "ticks": 141587,
              "time": 151.26830609791665,
              "value": 0.3543307086614173
            },
            {
              "number": 7,
              "ticks": 141664,
              "time": 151.35057113333332,
              "value": 0.3543307086614173
            },
            {
              "number": 7,
              "ticks": 141742,
              "time": 151.43390454583334,
              "value": 0.3543307086614173
            },
            {
              "number": 7,
              "ticks": 141820,
              "time": 151.5172379583333,
              "value": 0.3543307086614173
            },
            {
              "number": 7,
              "ticks": 141898,
              "time": 151.60057137083334,
              "value": 0.3543307086614173
            },
            {
              "number": 7,
              "ticks": 141975,
              "time": 151.68283640625,
              "value": 0.3543307086614173
            },
            {
              "number": 7,
              "ticks": 142054,
              "time": 151.76723819583333,
              "value": 0.3543307086614173
            },
            {
              "number": 7,
              "ticks": 142131,
              "time": 151.84950323125,
              "value": 0.3543307086614173
            },
            {
              "number": 7,
              "ticks": 142209,
              "time": 151.93283664375,
              "value": 0.3543307086614173
            },
            {
              "number": 7,
              "ticks": 142287,
              "time": 152.01617005625,
              "value": 0.3543307086614173
            },
            {
              "number": 7,
              "ticks": 142364,
              "time": 152.09843509166666,
              "value": 0.3543307086614173
            },
            {
              "number": 7,
              "ticks": 142443,
              "time": 152.18283688125,
              "value": 0.3543307086614173
            },
            {
              "number": 7,
              "ticks": 142520,
              "time": 152.26510191666668,
              "value": 0.3543307086614173
            },
            {
              "number": 7,
              "ticks": 142598,
              "time": 152.34843532916665,
              "value": 0.3543307086614173
            },
            {
              "number": 7,
              "ticks": 142676,
              "time": 152.43176874166667,
              "value": 0.3543307086614173
            },
            {
              "number": 7,
              "ticks": 142753,
              "time": 152.5140337770833,
              "value": 0.3543307086614173
            },
            {
              "number": 7,
              "ticks": 142832,
              "time": 152.59843556666667,
              "value": 0.3543307086614173
            },
            {
              "number": 7,
              "ticks": 142909,
              "time": 152.68070060208333,
              "value": 0.3543307086614173
            },
            {
              "number": 7,
              "ticks": 142987,
              "time": 152.76403401458333,
              "value": 0.3543307086614173
            },
            {
              "number": 7,
              "ticks": 143065,
              "time": 152.84736742708333,
              "value": 0.3543307086614173
            },
            {
              "number": 7,
              "ticks": 143143,
              "time": 152.93070083958332,
              "value": 0.3543307086614173
            },
            {
              "number": 7,
              "ticks": 143220,
              "time": 153.012965875,
              "value": 0.3543307086614173
            },
            {
              "number": 7,
              "ticks": 143299,
              "time": 153.09736766458332,
              "value": 0.3543307086614173
            },
            {
              "number": 7,
              "ticks": 143376,
              "time": 153.17963269999998,
              "value": 0.3543307086614173
            },
            {
              "number": 7,
              "ticks": 143454,
              "time": 153.2629661125,
              "value": 0.3543307086614173
            },
            {
              "number": 7,
              "ticks": 143532,
              "time": 153.34629952499998,
              "value": 0.3543307086614173
            },
            {
              "number": 7,
              "ticks": 143609,
              "time": 153.42856456041665,
              "value": 0.3543307086614173
            },
            {
              "number": 7,
              "ticks": 143688,
              "time": 153.51296635,
              "value": 0.3543307086614173
            },
            {
              "number": 7,
              "ticks": 143765,
              "time": 153.59523138541667,
              "value": 0.3543307086614173
            },
            {
              "number": 7,
              "ticks": 143826,
              "time": 153.6604023875,
              "value": 0.3543307086614173
            },
            {
              "number": 7,
              "ticks": 143887,
              "time": 153.72557338958333,
              "value": 0.3543307086614173
            },
            {
              "number": 7,
              "ticks": 143949,
              "time": 153.79181276875,
              "value": 0.3543307086614173
            },
            {
              "number": 7,
              "ticks": 144010,
              "time": 153.85698377083332,
              "value": 0.3543307086614173
            },
            {
              "number": 7,
              "ticks": 144071,
              "time": 153.92215477291666,
              "value": 0.3543307086614173
            },
            {
              "number": 7,
              "ticks": 144132,
              "time": 153.987325775,
              "value": 0.3543307086614173
            },
            {
              "number": 7,
              "ticks": 144194,
              "time": 154.05356515416665,
              "value": 0.3543307086614173
            },
            {
              "number": 7,
              "ticks": 144255,
              "time": 154.11873615624998,
              "value": 0.3543307086614173
            },
            {
              "number": 7,
              "ticks": 144316,
              "time": 154.18390715833334,
              "value": 0.3543307086614173
            },
            {
              "number": 7,
              "ticks": 144377,
              "time": 154.24907816041664,
              "value": 0.3543307086614173
            },
            {
              "number": 7,
              "ticks": 144439,
              "time": 154.31531753958333,
              "value": 0.3543307086614173
            },
            {
              "number": 7,
              "ticks": 144500,
              "time": 154.38048854166667,
              "value": 0.3543307086614173
            },
            {
              "number": 7,
              "ticks": 144562,
              "time": 154.44672792083333,
              "value": 0.3543307086614173
            },
            {
              "number": 7,
              "ticks": 144623,
              "time": 154.51189892291666,
              "value": 0.3543307086614173
            },
            {
              "number": 7,
              "ticks": 144684,
              "time": 154.577069925,
              "value": 0.3543307086614173
            },
            {
              "number": 7,
              "ticks": 144745,
              "time": 154.64224092708332,
              "value": 0.3543307086614173
            },
            {
              "number": 7,
              "ticks": 144806,
              "time": 154.70741192916665,
              "value": 0.3543307086614173
            },
            {
              "number": 7,
              "ticks": 144867,
              "time": 154.77258293124999,
              "value": 0.3543307086614173
            },
            {
              "number": 7,
              "ticks": 144929,
              "time": 154.83882231041665,
              "value": 0.3543307086614173
            },
            {
              "number": 7,
              "ticks": 144990,
              "time": 154.90399331249998,
              "value": 0.3543307086614173
            },
            {
              "number": 7,
              "ticks": 145051,
              "time": 154.96916431458334,
              "value": 0.3543307086614173
            },
            {
              "number": 7,
              "ticks": 145112,
              "time": 155.03433531666667,
              "value": 0.3543307086614173
            },
            {
              "number": 7,
              "ticks": 145174,
              "time": 155.10057469583333,
              "value": 0.3543307086614173
            },
            {
              "number": 7,
              "ticks": 145235,
              "time": 155.16574569791666,
              "value": 0.3543307086614173
            },
            {
              "number": 7,
              "ticks": 145296,
              "time": 155.2309167,
              "value": 0.3543307086614173
            },
            {
              "number": 7,
              "ticks": 145357,
              "time": 155.29608770208333,
              "value": 0.3543307086614173
            },
            {
              "number": 7,
              "ticks": 145419,
              "time": 155.36232708125,
              "value": 0.3543307086614173
            },
            {
              "number": 7,
              "ticks": 145480,
              "time": 155.42749808333332,
              "value": 0.3543307086614173
            },
            {
              "number": 7,
              "ticks": 145541,
              "time": 155.49266908541665,
              "value": 0.3543307086614173
            },
            {
              "number": 7,
              "ticks": 145602,
              "time": 155.55784008749998,
              "value": 0.3543307086614173
            },
            {
              "number": 7,
              "ticks": 145664,
              "time": 155.62407946666664,
              "value": 0.3543307086614173
            },
            {
              "number": 7,
              "ticks": 145725,
              "time": 155.68925046875,
              "value": 0.3543307086614173
            },
            {
              "number": 7,
              "ticks": 145786,
              "time": 155.75442147083334,
              "value": 0.36220472440944884
            },
            {
              "number": 7,
              "ticks": 145847,
              "time": 155.81959247291667,
              "value": 0.36220472440944884
            },
            {
              "number": 7,
              "ticks": 145909,
              "time": 155.88583185208333,
              "value": 0.36220472440944884
            },
            {
              "number": 7,
              "ticks": 145970,
              "time": 155.95100285416666,
              "value": 0.36220472440944884
            },
            {
              "number": 7,
              "ticks": 146031,
              "time": 156.01617385625,
              "value": 0.36220472440944884
            },
            {
              "number": 7,
              "ticks": 146092,
              "time": 156.08134485833332,
              "value": 0.36220472440944884
            },
            {
              "number": 7,
              "ticks": 146154,
              "time": 156.14758423749998,
              "value": 0.36220472440944884
            },
            {
              "number": 7,
              "ticks": 146215,
              "time": 156.21275523958332,
              "value": 0.36220472440944884
            },
            {
              "number": 7,
              "ticks": 146276,
              "time": 156.27792624166665,
              "value": 0.36220472440944884
            },
            {
              "number": 7,
              "ticks": 146337,
              "time": 156.34309724374998,
              "value": 0.36220472440944884
            },
            {
              "number": 7,
              "ticks": 146399,
              "time": 156.40933662291664,
              "value": 0.36220472440944884
            },
            {
              "number": 7,
              "ticks": 146460,
              "time": 156.474507625,
              "value": 0.36220472440944884
            },
            {
              "number": 7,
              "ticks": 146521,
              "time": 156.53967862708333,
              "value": 0.36220472440944884
            },
            {
              "number": 7,
              "ticks": 146582,
              "time": 156.60484962916667,
              "value": 0.36220472440944884
            },
            {
              "number": 7,
              "ticks": 146644,
              "time": 156.67108900833333,
              "value": 0.36220472440944884
            },
            {
              "number": 7,
              "ticks": 146705,
              "time": 156.73626001041666,
              "value": 0.36220472440944884
            },
            {
              "number": 7,
              "ticks": 146766,
              "time": 156.8014310125,
              "value": 0.36220472440944884
            },
            {
              "number": 7,
              "ticks": 146827,
              "time": 156.86660201458332,
              "value": 0.36220472440944884
            },
            {
              "number": 7,
              "ticks": 146888,
              "time": 156.93177301666665,
              "value": 0.36220472440944884
            },
            {
              "number": 7,
              "ticks": 146950,
              "time": 156.9980123958333,
              "value": 0.36220472440944884
            },
            {
              "number": 7,
              "ticks": 147011,
              "time": 157.06318339791667,
              "value": 0.36220472440944884
            },
            {
              "number": 7,
              "ticks": 147072,
              "time": 157.12835439999998,
              "value": 0.36220472440944884
            },
            {
              "number": 7,
              "ticks": 147133,
              "time": 157.19352540208334,
              "value": 0.36220472440944884
            },
            {
              "number": 7,
              "ticks": 147195,
              "time": 157.25976478125,
              "value": 0.36220472440944884
            },
            {
              "number": 7,
              "ticks": 147256,
              "time": 157.32493578333333,
              "value": 0.36220472440944884
            },
            {
              "number": 7,
              "ticks": 147317,
              "time": 157.39010678541666,
              "value": 0.36220472440944884
            },
            {
              "number": 7,
              "ticks": 147378,
              "time": 157.4552777875,
              "value": 0.36220472440944884
            },
            {
              "number": 7,
              "ticks": 147440,
              "time": 157.52151716666665,
              "value": 0.36220472440944884
            },
            {
              "number": 7,
              "ticks": 147501,
              "time": 157.58668816875,
              "value": 0.36220472440944884
            },
            {
              "number": 7,
              "ticks": 147562,
              "time": 157.65185917083332,
              "value": 0.36220472440944884
            },
            {
              "number": 7,
              "ticks": 147623,
              "time": 157.71703017291665,
              "value": 0.36220472440944884
            },
            {
              "number": 7,
              "ticks": 147685,
              "time": 157.7832695520833,
              "value": 0.36220472440944884
            },
            {
              "number": 7,
              "ticks": 147746,
              "time": 157.84844055416667,
              "value": 0.3700787401574803
            },
            {
              "number": 7,
              "ticks": 147807,
              "time": 157.91361155624998,
              "value": 0.3700787401574803
            },
            {
              "number": 7,
              "ticks": 147868,
              "time": 157.97878255833334,
              "value": 0.3700787401574803
            },
            {
              "number": 7,
              "ticks": 147930,
              "time": 158.0450219375,
              "value": 0.3700787401574803
            },
            {
              "number": 7,
              "ticks": 147991,
              "time": 158.11019293958333,
              "value": 0.3700787401574803
            },
            {
              "number": 7,
              "ticks": 148052,
              "time": 158.17536394166666,
              "value": 0.3700787401574803
            },
            {
              "number": 7,
              "ticks": 148113,
              "time": 158.24053494375,
              "value": 0.3700787401574803
            },
            {
              "number": 7,
              "ticks": 148175,
              "time": 158.30677432291668,
              "value": 0.3700787401574803
            },
            {
              "number": 7,
              "ticks": 148236,
              "time": 158.37194532499998,
              "value": 0.3700787401574803
            },
            {
              "number": 7,
              "ticks": 148297,
              "time": 158.43711632708334,
              "value": 0.3700787401574803
            },
            {
              "number": 7,
              "ticks": 148358,
              "time": 158.50228732916665,
              "value": 0.3700787401574803
            },
            {
              "number": 7,
              "ticks": 148420,
              "time": 158.5685267083333,
              "value": 0.3700787401574803
            },
            {
              "number": 7,
              "ticks": 148481,
              "time": 158.63369771041667,
              "value": 0.3700787401574803
            },
            {
              "number": 7,
              "ticks": 148542,
              "time": 158.69886871249997,
              "value": 0.3700787401574803
            },
            {
              "number": 7,
              "ticks": 148603,
              "time": 158.76403971458333,
              "value": 0.3700787401574803
            },
            {
              "number": 7,
              "ticks": 148665,
              "time": 158.83027909375,
              "value": 0.3700787401574803
            },
            {
              "number": 7,
              "ticks": 148726,
              "time": 158.89545009583333,
              "value": 0.3700787401574803
            },
            {
              "number": 7,
              "ticks": 148787,
              "time": 158.96062109791666,
              "value": 0.3700787401574803
            },
            {
              "number": 7,
              "ticks": 148848,
              "time": 159.0257921,
              "value": 0.3700787401574803
            },
            {
              "number": 7,
              "ticks": 148910,
              "time": 159.09203147916668,
              "value": 0.3700787401574803
            },
            {
              "number": 7,
              "ticks": 148971,
              "time": 159.15720248124998,
              "value": 0.3700787401574803
            },
            {
              "number": 7,
              "ticks": 149032,
              "time": 159.22237348333334,
              "value": 0.3700787401574803
            },
            {
              "number": 7,
              "ticks": 149093,
              "time": 159.28754448541665,
              "value": 0.3700787401574803
            },
            {
              "number": 7,
              "ticks": 149155,
              "time": 159.3537838645833,
              "value": 0.3700787401574803
            },
            {
              "number": 7,
              "ticks": 149216,
              "time": 159.41895486666667,
              "value": 0.3700787401574803
            },
            {
              "number": 7,
              "ticks": 149277,
              "time": 159.48412586874997,
              "value": 0.3700787401574803
            },
            {
              "number": 7,
              "ticks": 149338,
              "time": 159.54929687083333,
              "value": 0.3700787401574803
            },
            {
              "number": 7,
              "ticks": 149400,
              "time": 159.61553625,
              "value": 0.3700787401574803
            },
            {
              "number": 7,
              "ticks": 149461,
              "time": 159.68070725208335,
              "value": 0.3700787401574803
            },
            {
              "number": 7,
              "ticks": 149522,
              "time": 159.74587825416666,
              "value": 0.3700787401574803
            },
            {
              "number": 7,
              "ticks": 149583,
              "time": 159.81104925625002,
              "value": 0.3700787401574803
            },
            {
              "number": 7,
              "ticks": 149644,
              "time": 159.87622025833332,
              "value": 0.3700787401574803
            },
            {
              "number": 7,
              "ticks": 149706,
              "time": 159.94245963749998,
              "value": 0.3779527559055118
            },
            {
              "number": 7,
              "ticks": 149767,
              "time": 160.00763063958334,
              "value": 0.3779527559055118
            },
            {
              "number": 7,
              "ticks": 149828,
              "time": 160.07280164166664,
              "value": 0.3779527559055118
            },
            {
              "number": 7,
              "ticks": 149889,
              "time": 160.13797264375,
              "value": 0.3779527559055118
            },
            {
              "number": 7,
              "ticks": 149951,
              "time": 160.20421202291666,
              "value": 0.3779527559055118
            },
            {
              "number": 7,
              "ticks": 150012,
              "time": 160.26938302499997,
              "value": 0.3779527559055118
            },
            {
              "number": 7,
              "ticks": 150073,
              "time": 160.33455402708333,
              "value": 0.3779527559055118
            },
            {
              "number": 7,
              "ticks": 150134,
              "time": 160.39972502916663,
              "value": 0.3779527559055118
            },
            {
              "number": 7,
              "ticks": 150196,
              "time": 160.46596440833335,
              "value": 0.3779527559055118
            },
            {
              "number": 7,
              "ticks": 150257,
              "time": 160.53113541041665,
              "value": 0.3779527559055118
            },
            {
              "number": 7,
              "ticks": 150318,
              "time": 160.5963064125,
              "value": 0.3779527559055118
            },
            {
              "number": 7,
              "ticks": 150379,
              "time": 160.66147741458332,
              "value": 0.3779527559055118
            },
            {
              "number": 7,
              "ticks": 150441,
              "time": 160.72771679374998,
              "value": 0.3779527559055118
            },
            {
              "number": 7,
              "ticks": 150502,
              "time": 160.79288779583334,
              "value": 0.3779527559055118
            },
            {
              "number": 7,
              "ticks": 150563,
              "time": 160.85805879791664,
              "value": 0.3779527559055118
            },
            {
              "number": 7,
              "ticks": 150625,
              "time": 160.9242981770833,
              "value": 0.3779527559055118
            },
            {
              "number": 7,
              "ticks": 150686,
              "time": 160.98946917916666,
              "value": 0.3779527559055118
            },
            {
              "number": 7,
              "ticks": 150747,
              "time": 161.05464018124997,
              "value": 0.3779527559055118
            },
            {
              "number": 7,
              "ticks": 150808,
              "time": 161.11981118333333,
              "value": 0.3779527559055118
            },
            {
              "number": 7,
              "ticks": 150869,
              "time": 161.18498218541666,
              "value": 0.3779527559055118
            },
            {
              "number": 7,
              "ticks": 150931,
              "time": 161.25122156458335,
              "value": 0.3779527559055118
            },
            {
              "number": 7,
              "ticks": 150992,
              "time": 161.31639256666665,
              "value": 0.3779527559055118
            },
            {
              "number": 7,
              "ticks": 151053,
              "time": 161.38156356875,
              "value": 0.3779527559055118
            },
            {
              "number": 7,
              "ticks": 151114,
              "time": 161.4467345708333,
              "value": 0.3779527559055118
            },
            {
              "number": 7,
              "ticks": 151176,
              "time": 161.51297394999997,
              "value": 0.3779527559055118
            },
            {
              "number": 7,
              "ticks": 151237,
              "time": 161.57814495208333,
              "value": 0.3779527559055118
            },
            {
              "number": 7,
              "ticks": 151298,
              "time": 161.64331595416664,
              "value": 0.3779527559055118
            },
            {
              "number": 7,
              "ticks": 151359,
              "time": 161.70848695625,
              "value": 0.3779527559055118
            },
            {
              "number": 7,
              "ticks": 151421,
              "time": 161.77472633541666,
              "value": 0.3779527559055118
            },
            {
              "number": 7,
              "ticks": 151482,
              "time": 161.8398973375,
              "value": 0.3779527559055118
            },
            {
              "number": 7,
              "ticks": 151543,
              "time": 161.90506833958332,
              "value": 0.3779527559055118
            },
            {
              "number": 7,
              "ticks": 151604,
              "time": 161.97023934166666,
              "value": 0.3779527559055118
            },
            {
              "number": 7,
              "ticks": 151666,
              "time": 162.03647872083334,
              "value": 0.3858267716535433
            },
            {
              "number": 7,
              "ticks": 151727,
              "time": 162.10164972291665,
              "value": 0.3858267716535433
            },
            {
              "number": 7,
              "ticks": 151788,
              "time": 162.166820725,
              "value": 0.3858267716535433
            },
            {
              "number": 7,
              "ticks": 151849,
              "time": 162.2319917270833,
              "value": 0.3858267716535433
            },
            {
              "number": 7,
              "ticks": 151911,
              "time": 162.29823110624997,
              "value": 0.3858267716535433
            },
            {
              "number": 7,
              "ticks": 151972,
              "time": 162.36340210833333,
              "value": 0.3858267716535433
            },
            {
              "number": 7,
              "ticks": 152033,
              "time": 162.42857311041664,
              "value": 0.3858267716535433
            },
            {
              "number": 7,
              "ticks": 152094,
              "time": 162.4937441125,
              "value": 0.3858267716535433
            },
            {
              "number": 7,
              "ticks": 152156,
              "time": 162.55998349166666,
              "value": 0.3858267716535433
            },
            {
              "number": 7,
              "ticks": 152217,
              "time": 162.62515449375,
              "value": 0.3858267716535433
            },
            {
              "number": 7,
              "ticks": 152278,
              "time": 162.69032549583332,
              "value": 0.3858267716535433
            },
            {
              "number": 7,
              "ticks": 152339,
              "time": 162.75549649791665,
              "value": 0.3858267716535433
            },
            {
              "number": 7,
              "ticks": 152401,
              "time": 162.82173587708334,
              "value": 0.3858267716535433
            },
            {
              "number": 7,
              "ticks": 152462,
              "time": 162.88690687916665,
              "value": 0.3858267716535433
            },
            {
              "number": 7,
              "ticks": 152523,
              "time": 162.95207788125,
              "value": 0.3858267716535433
            },
            {
              "number": 7,
              "ticks": 152584,
              "time": 163.0172488833333,
              "value": 0.3858267716535433
            },
            {
              "number": 7,
              "ticks": 152645,
              "time": 163.08241988541667,
              "value": 0.3858267716535433
            },
            {
              "number": 7,
              "ticks": 152707,
              "time": 163.14865926458333,
              "value": 0.3858267716535433
            },
            {
              "number": 7,
              "ticks": 152768,
              "time": 163.21383026666666,
              "value": 0.3858267716535433
            },
            {
              "number": 7,
              "ticks": 152829,
              "time": 163.27900126875,
              "value": 0.3858267716535433
            },
            {
              "number": 7,
              "ticks": 152890,
              "time": 163.34417227083333,
              "value": 0.3858267716535433
            },
            {
              "number": 7,
              "ticks": 152952,
              "time": 163.41041165,
              "value": 0.3858267716535433
            },
            {
              "number": 7,
              "ticks": 153013,
              "time": 163.47558265208332,
              "value": 0.3858267716535433
            },
            {
              "number": 7,
              "ticks": 153074,
              "time": 163.54075365416665,
              "value": 0.3858267716535433
            },
            {
              "number": 7,
              "ticks": 153135,
              "time": 163.60592465624998,
              "value": 0.3858267716535433
            },
            {
              "number": 7,
              "ticks": 153197,
              "time": 163.67216403541664,
              "value": 0.3858267716535433
            },
            {
              "number": 7,
              "ticks": 153258,
              "time": 163.7373350375,
              "value": 0.3858267716535433
            },
            {
              "number": 7,
              "ticks": 153319,
              "time": 163.8025060395833,
              "value": 0.3858267716535433
            },
            {
              "number": 7,
              "ticks": 153380,
              "time": 163.86767704166667,
              "value": 0.3858267716535433
            },
            {
              "number": 7,
              "ticks": 153442,
              "time": 163.93391642083333,
              "value": 0.3858267716535433
            },
            {
              "number": 7,
              "ticks": 153503,
              "time": 163.99908742291666,
              "value": 0.3858267716535433
            },
            {
              "number": 7,
              "ticks": 153564,
              "time": 164.064258425,
              "value": 0.3858267716535433
            },
            {
              "number": 7,
              "ticks": 153625,
              "time": 164.12942942708332,
              "value": 0.3937007874015748
            },
            {
              "number": 7,
              "ticks": 153687,
              "time": 164.19566880624998,
              "value": 0.3937007874015748
            },
            {
              "number": 7,
              "ticks": 153748,
              "time": 164.26083980833332,
              "value": 0.3937007874015748
            },
            {
              "number": 7,
              "ticks": 153809,
              "time": 164.32601081041665,
              "value": 0.3937007874015748
            },
            {
              "number": 7,
              "ticks": 153870,
              "time": 164.39118181249998,
              "value": 0.3937007874015748
            },
            {
              "number": 7,
              "ticks": 153932,
              "time": 164.45742119166667,
              "value": 0.3937007874015748
            },
            {
              "number": 7,
              "ticks": 153993,
              "time": 164.52259219375,
              "value": 0.3937007874015748
            },
            {
              "number": 7,
              "ticks": 154054,
              "time": 164.58776319583333,
              "value": 0.3937007874015748
            },
            {
              "number": 7,
              "ticks": 154115,
              "time": 164.65293419791666,
              "value": 0.3937007874015748
            },
            {
              "number": 7,
              "ticks": 154177,
              "time": 164.71917357708332,
              "value": 0.3937007874015748
            },
            {
              "number": 7,
              "ticks": 154238,
              "time": 164.78434457916666,
              "value": 0.3937007874015748
            },
            {
              "number": 7,
              "ticks": 154299,
              "time": 164.84951558125,
              "value": 0.3937007874015748
            },
            {
              "number": 7,
              "ticks": 154360,
              "time": 164.91468658333332,
              "value": 0.3937007874015748
            },
            {
              "number": 7,
              "ticks": 154422,
              "time": 164.98092596249998,
              "value": 0.3937007874015748
            },
            {
              "number": 7,
              "ticks": 154483,
              "time": 165.0460969645833,
              "value": 0.3937007874015748
            },
            {
              "number": 7,
              "ticks": 154544,
              "time": 165.11126796666665,
              "value": 0.3937007874015748
            },
            {
              "number": 7,
              "ticks": 154605,
              "time": 165.17643896874998,
              "value": 0.3937007874015748
            },
            {
              "number": 7,
              "ticks": 154667,
              "time": 165.24267834791667,
              "value": 0.3937007874015748
            },
            {
              "number": 7,
              "ticks": 154728,
              "time": 165.30784935,
              "value": 0.3937007874015748
            },
            {
              "number": 7,
              "ticks": 154789,
              "time": 165.37302035208333,
              "value": 0.3937007874015748
            },
            {
              "number": 7,
              "ticks": 154850,
              "time": 165.43819135416666,
              "value": 0.3937007874015748
            },
            {
              "number": 7,
              "ticks": 154912,
              "time": 165.50443073333332,
              "value": 0.3937007874015748
            },
            {
              "number": 7,
              "ticks": 154973,
              "time": 165.56960173541665,
              "value": 0.3937007874015748
            },
            {
              "number": 7,
              "ticks": 155034,
              "time": 165.6347727375,
              "value": 0.3937007874015748
            },
            {
              "number": 7,
              "ticks": 155095,
              "time": 165.69994373958332,
              "value": 0.3937007874015748
            },
            {
              "number": 7,
              "ticks": 155157,
              "time": 165.76618311874998,
              "value": 0.3937007874015748
            },
            {
              "number": 7,
              "ticks": 155218,
              "time": 165.83135412083334,
              "value": 0.3937007874015748
            },
            {
              "number": 7,
              "ticks": 155279,
              "time": 165.89652512291664,
              "value": 0.3937007874015748
            },
            {
              "number": 7,
              "ticks": 155340,
              "time": 165.961696125,
              "value": 0.3937007874015748
            },
            {
              "number": 7,
              "ticks": 155402,
              "time": 166.02793550416666,
              "value": 0.3937007874015748
            },
            {
              "number": 7,
              "ticks": 155463,
              "time": 166.09310650625,
              "value": 0.3937007874015748
            },
            {
              "number": 7,
              "ticks": 155524,
              "time": 166.15827750833333,
              "value": 0.3937007874015748
            },
            {
              "number": 7,
              "ticks": 155585,
              "time": 166.22344851041666,
              "value": 0.4015748031496063
            },
            {
              "number": 7,
              "ticks": 155646,
              "time": 166.2886195125,
              "value": 0.4015748031496063
            },
            {
              "number": 7,
              "ticks": 155708,
              "time": 166.35485889166665,
              "value": 0.4015748031496063
            },
            {
              "number": 7,
              "ticks": 155769,
              "time": 166.42002989374998,
              "value": 0.4015748031496063
            },
            {
              "number": 7,
              "ticks": 155830,
              "time": 166.48520089583332,
              "value": 0.4015748031496063
            },
            {
              "number": 7,
              "ticks": 155891,
              "time": 166.55037189791665,
              "value": 0.4015748031496063
            },
            {
              "number": 7,
              "ticks": 155953,
              "time": 166.61661127708334,
              "value": 0.4015748031496063
            },
            {
              "number": 7,
              "ticks": 156014,
              "time": 166.68178227916664,
              "value": 0.4015748031496063
            },
            {
              "number": 7,
              "ticks": 156075,
              "time": 166.74695328125,
              "value": 0.4015748031496063
            },
            {
              "number": 7,
              "ticks": 156136,
              "time": 166.81212428333333,
              "value": 0.4015748031496063
            },
            {
              "number": 7,
              "ticks": 156198,
              "time": 166.8783636625,
              "value": 0.4015748031496063
            },
            {
              "number": 7,
              "ticks": 156259,
              "time": 166.94353466458332,
              "value": 0.4015748031496063
            },
            {
              "number": 7,
              "ticks": 156320,
              "time": 167.00870566666666,
              "value": 0.4015748031496063
            },
            {
              "number": 7,
              "ticks": 156381,
              "time": 167.07387666875,
              "value": 0.4015748031496063
            },
            {
              "number": 7,
              "ticks": 156443,
              "time": 167.14011604791665,
              "value": 0.4015748031496063
            },
            {
              "number": 7,
              "ticks": 156504,
              "time": 167.20528705,
              "value": 0.4015748031496063
            },
            {
              "number": 7,
              "ticks": 156565,
              "time": 167.2704580520833,
              "value": 0.4015748031496063
            },
            {
              "number": 7,
              "ticks": 156626,
              "time": 167.33562905416667,
              "value": 0.4015748031496063
            },
            {
              "number": 7,
              "ticks": 156688,
              "time": 167.40186843333333,
              "value": 0.4015748031496063
            },
            {
              "number": 7,
              "ticks": 156749,
              "time": 167.46703943541664,
              "value": 0.4015748031496063
            },
            {
              "number": 7,
              "ticks": 156810,
              "time": 167.5322104375,
              "value": 0.4015748031496063
            },
            {
              "number": 7,
              "ticks": 156871,
              "time": 167.59738143958333,
              "value": 0.4015748031496063
            },
            {
              "number": 7,
              "ticks": 156933,
              "time": 167.66362081875,
              "value": 0.4015748031496063
            },
            {
              "number": 7,
              "ticks": 156994,
              "time": 167.72879182083332,
              "value": 0.4015748031496063
            },
            {
              "number": 7,
              "ticks": 157055,
              "time": 167.79396282291665,
              "value": 0.4015748031496063
            },
            {
              "number": 7,
              "ticks": 157116,
              "time": 167.859133825,
              "value": 0.4015748031496063
            },
            {
              "number": 7,
              "ticks": 157178,
              "time": 167.92537320416665,
              "value": 0.4015748031496063
            },
            {
              "number": 7,
              "ticks": 157239,
              "time": 167.99054420625,
              "value": 0.4015748031496063
            },
            {
              "number": 7,
              "ticks": 157300,
              "time": 168.0557152083333,
              "value": 0.4015748031496063
            },
            {
              "number": 7,
              "ticks": 157361,
              "time": 168.12088621041667,
              "value": 0.4015748031496063
            },
            {
              "number": 7,
              "ticks": 157423,
              "time": 168.18712558958333,
              "value": 0.4015748031496063
            },
            {
              "number": 7,
              "ticks": 157484,
              "time": 168.25229659166664,
              "value": 0.4015748031496063
            },
            {
              "number": 7,
              "ticks": 157545,
              "time": 168.31746759375,
              "value": 0.4094488188976378
            },
            {
              "number": 7,
              "ticks": 157606,
              "time": 168.38263859583333,
              "value": 0.4094488188976378
            },
            {
              "number": 7,
              "ticks": 157668,
              "time": 168.44887797500002,
              "value": 0.4094488188976378
            },
            {
              "number": 7,
              "ticks": 157729,
              "time": 168.51404897708332,
              "value": 0.4094488188976378
            },
            {
              "number": 7,
              "ticks": 157790,
              "time": 168.57921997916668,
              "value": 0.4094488188976378
            },
            {
              "number": 7,
              "ticks": 157851,
              "time": 168.64439098124998,
              "value": 0.4094488188976378
            },
            {
              "number": 7,
              "ticks": 157913,
              "time": 168.71063036041664,
              "value": 0.4094488188976378
            },
            {
              "number": 7,
              "ticks": 157974,
              "time": 168.7758013625,
              "value": 0.4094488188976378
            },
            {
              "number": 7,
              "ticks": 158035,
              "time": 168.8409723645833,
              "value": 0.4094488188976378
            },
            {
              "number": 7,
              "ticks": 158096,
              "time": 168.90614336666667,
              "value": 0.4094488188976378
            },
            {
              "number": 7,
              "ticks": 158158,
              "time": 168.97238274583333,
              "value": 0.4094488188976378
            },
            {
              "number": 7,
              "ticks": 158219,
              "time": 169.03755374791663,
              "value": 0.4094488188976378
            },
            {
              "number": 7,
              "ticks": 158280,
              "time": 169.10272475,
              "value": 0.4094488188976378
            },
            {
              "number": 7,
              "ticks": 158341,
              "time": 169.16789575208333,
              "value": 0.4094488188976378
            },
            {
              "number": 7,
              "ticks": 158403,
              "time": 169.23413513125,
              "value": 0.4094488188976378
            },
            {
              "number": 7,
              "ticks": 158464,
              "time": 169.29930613333332,
              "value": 0.4094488188976378
            },
            {
              "number": 7,
              "ticks": 158525,
              "time": 169.36447713541668,
              "value": 0.4094488188976378
            },
            {
              "number": 7,
              "ticks": 158586,
              "time": 169.42964813749998,
              "value": 0.4094488188976378
            },
            {
              "number": 7,
              "ticks": 158647,
              "time": 169.49481913958334,
              "value": 0.4094488188976378
            },
            {
              "number": 7,
              "ticks": 158709,
              "time": 169.56105851875,
              "value": 0.4094488188976378
            },
            {
              "number": 7,
              "ticks": 158770,
              "time": 169.6262295208333,
              "value": 0.4094488188976378
            },
            {
              "number": 7,
              "ticks": 158831,
              "time": 169.69140052291667,
              "value": 0.4094488188976378
            },
            {
              "number": 7,
              "ticks": 158892,
              "time": 169.75657152499997,
              "value": 0.4094488188976378
            },
            {
              "number": 7,
              "ticks": 158954,
              "time": 169.82281090416663,
              "value": 0.4094488188976378
            },
            {
              "number": 7,
              "ticks": 159015,
              "time": 169.88798190625,
              "value": 0.4094488188976378
            },
            {
              "number": 7,
              "ticks": 159076,
              "time": 169.95315290833335,
              "value": 0.4094488188976378
            },
            {
              "number": 7,
              "ticks": 159137,
              "time": 170.01832391041665,
              "value": 0.4094488188976378
            },
            {
              "number": 7,
              "ticks": 159199,
              "time": 170.08456328958331,
              "value": 0.4094488188976378
            },
            {
              "number": 7,
              "ticks": 159260,
              "time": 170.14973429166668,
              "value": 0.4094488188976378
            },
            {
              "number": 7,
              "ticks": 159321,
              "time": 170.21490529374998,
              "value": 0.4094488188976378
            },
            {
              "number": 7,
              "ticks": 159382,
              "time": 170.28007629583334,
              "value": 0.4094488188976378
            },
            {
              "number": 7,
              "ticks": 159444,
              "time": 170.346315675,
              "value": 0.4094488188976378
            },
            {
              "number": 7,
              "ticks": 159505,
              "time": 170.4114866770833,
              "value": 0.41732283464566927
            },
            {
              "number": 7,
              "ticks": 159566,
              "time": 170.47665767916666,
              "value": 0.41732283464566927
            },
            {
              "number": 7,
              "ticks": 159627,
              "time": 170.54182868124997,
              "value": 0.41732283464566927
            },
            {
              "number": 7,
              "ticks": 159689,
              "time": 170.60806806041666,
              "value": 0.41732283464566927
            },
            {
              "number": 7,
              "ticks": 159750,
              "time": 170.6732390625,
              "value": 0.41732283464566927
            },
            {
              "number": 7,
              "ticks": 159811,
              "time": 170.73841006458335,
              "value": 0.41732283464566927
            },
            {
              "number": 7,
              "ticks": 159872,
              "time": 170.80358106666665,
              "value": 0.41732283464566927
            },
            {
              "number": 7,
              "ticks": 159934,
              "time": 170.8698204458333,
              "value": 0.41732283464566927
            },
            {
              "number": 7,
              "ticks": 159995,
              "time": 170.93499144791667,
              "value": 0.41732283464566927
            },
            {
              "number": 7,
              "ticks": 160056,
              "time": 171.00016244999998,
              "value": 0.41732283464566927
            },
            {
              "number": 7,
              "ticks": 160117,
              "time": 171.06533345208334,
              "value": 0.41732283464566927
            },
            {
              "number": 7,
              "ticks": 160179,
              "time": 171.13157283125,
              "value": 0.41732283464566927
            },
            {
              "number": 7,
              "ticks": 160240,
              "time": 171.1967438333333,
              "value": 0.41732283464566927
            },
            {
              "number": 7,
              "ticks": 160301,
              "time": 171.26191483541666,
              "value": 0.41732283464566927
            },
            {
              "number": 7,
              "ticks": 160362,
              "time": 171.32708583749996,
              "value": 0.41732283464566927
            },
            {
              "number": 7,
              "ticks": 160424,
              "time": 171.39332521666665,
              "value": 0.41732283464566927
            },
            {
              "number": 7,
              "ticks": 160485,
              "time": 171.45849621874999,
              "value": 0.41732283464566927
            },
            {
              "number": 7,
              "ticks": 160546,
              "time": 171.52366722083335,
              "value": 0.41732283464566927
            },
            {
              "number": 7,
              "ticks": 160607,
              "time": 171.58883822291665,
              "value": 0.41732283464566927
            },
            {
              "number": 7,
              "ticks": 160669,
              "time": 171.6550776020833,
              "value": 0.41732283464566927
            },
            {
              "number": 7,
              "ticks": 160730,
              "time": 171.72024860416667,
              "value": 0.41732283464566927
            },
            {
              "number": 7,
              "ticks": 160791,
              "time": 171.78541960624997,
              "value": 0.41732283464566927
            },
            {
              "number": 7,
              "ticks": 160852,
              "time": 171.85059060833333,
              "value": 0.41732283464566927
            },
            {
              "number": 7,
              "ticks": 160914,
              "time": 171.9168299875,
              "value": 0.41732283464566927
            },
            {
              "number": 7,
              "ticks": 160975,
              "time": 171.98200098958333,
              "value": 0.41732283464566927
            },
            {
              "number": 7,
              "ticks": 161036,
              "time": 172.04717199166666,
              "value": 0.41732283464566927
            },
            {
              "number": 7,
              "ticks": 161097,
              "time": 172.11234299375,
              "value": 0.41732283464566927
            },
            {
              "number": 7,
              "ticks": 161159,
              "time": 172.17858237291665,
              "value": 0.41732283464566927
            },
            {
              "number": 7,
              "ticks": 161220,
              "time": 172.24375337499998,
              "value": 0.41732283464566927
            },
            {
              "number": 7,
              "ticks": 161281,
              "time": 172.30892437708334,
              "value": 0.41732283464566927
            },
            {
              "number": 7,
              "ticks": 161342,
              "time": 172.37409537916665,
              "value": 0.41732283464566927
            },
            {
              "number": 7,
              "ticks": 161403,
              "time": 172.43926638125,
              "value": 0.41732283464566927
            },
            {
              "number": 7,
              "ticks": 161465,
              "time": 172.50550576041667,
              "value": 0.4251968503937008
            },
            {
              "number": 7,
              "ticks": 161526,
              "time": 172.57067676249997,
              "value": 0.4251968503937008
            },
            {
              "number": 7,
              "ticks": 161587,
              "time": 172.63584776458333,
              "value": 0.4251968503937008
            },
            {
              "number": 7,
              "ticks": 161648,
              "time": 172.70101876666664,
              "value": 0.4251968503937008
            },
            {
              "number": 7,
              "ticks": 161710,
              "time": 172.76725814583332,
              "value": 0.4251968503937008
            },
            {
              "number": 7,
              "ticks": 161771,
              "time": 172.83242914791666,
              "value": 0.4251968503937008
            },
            {
              "number": 7,
              "ticks": 161832,
              "time": 172.89760015,
              "value": 0.4251968503937008
            },
            {
              "number": 7,
              "ticks": 161893,
              "time": 172.96277115208332,
              "value": 0.4251968503937008
            },
            {
              "number": 7,
              "ticks": 161955,
              "time": 173.02901053124998,
              "value": 0.4251968503937008
            },
            {
              "number": 7,
              "ticks": 162016,
              "time": 173.09418153333334,
              "value": 0.4251968503937008
            },
            {
              "number": 7,
              "ticks": 162077,
              "time": 173.15935253541664,
              "value": 0.4251968503937008
            },
            {
              "number": 7,
              "ticks": 162138,
              "time": 173.2245235375,
              "value": 0.4251968503937008
            },
            {
              "number": 7,
              "ticks": 162200,
              "time": 173.29076291666667,
              "value": 0.4251968503937008
            },
            {
              "number": 7,
              "ticks": 162261,
              "time": 173.35593391875,
              "value": 0.4251968503937008
            },
            {
              "number": 7,
              "ticks": 162322,
              "time": 173.42110492083333,
              "value": 0.4251968503937008
            },
            {
              "number": 7,
              "ticks": 162383,
              "time": 173.48627592291666,
              "value": 0.4251968503937008
            },
            {
              "number": 7,
              "ticks": 162445,
              "time": 173.55251530208332,
              "value": 0.4251968503937008
            },
            {
              "number": 7,
              "ticks": 162506,
              "time": 173.61768630416665,
              "value": 0.4251968503937008
            },
            {
              "number": 7,
              "ticks": 162567,
              "time": 173.68285730624999,
              "value": 0.4251968503937008
            },
            {
              "number": 7,
              "ticks": 162628,
              "time": 173.74802830833332,
              "value": 0.4251968503937008
            },
            {
              "number": 7,
              "ticks": 162690,
              "time": 173.81426768749998,
              "value": 0.4251968503937008
            },
            {
              "number": 7,
              "ticks": 162751,
              "time": 173.87943868958334,
              "value": 0.4251968503937008
            },
            {
              "number": 7,
              "ticks": 162812,
              "time": 173.94460969166664,
              "value": 0.4251968503937008
            },
            {
              "number": 7,
              "ticks": 162873,
              "time": 174.00978069375,
              "value": 0.4251968503937008
            },
            {
              "number": 7,
              "ticks": 162935,
              "time": 174.07602007291666,
              "value": 0.4251968503937008
            },
            {
              "number": 7,
              "ticks": 162996,
              "time": 174.141191075,
              "value": 0.4251968503937008
            },
            {
              "number": 7,
              "ticks": 163057,
              "time": 174.20636207708333,
              "value": 0.4251968503937008
            },
            {
              "number": 7,
              "ticks": 163118,
              "time": 174.27153307916666,
              "value": 0.4251968503937008
            },
            {
              "number": 7,
              "ticks": 163180,
              "time": 174.33777245833332,
              "value": 0.4251968503937008
            },
            {
              "number": 7,
              "ticks": 163241,
              "time": 174.40294346041665,
              "value": 0.4251968503937008
            },
            {
              "number": 7,
              "ticks": 163302,
              "time": 174.46811446249998,
              "value": 0.4251968503937008
            },
            {
              "number": 7,
              "ticks": 163363,
              "time": 174.53328546458332,
              "value": 0.4251968503937008
            },
            {
              "number": 7,
              "ticks": 163425,
              "time": 174.59952484375,
              "value": 0.4330708661417323
            },
            {
              "number": 7,
              "ticks": 163486,
              "time": 174.66469584583334,
              "value": 0.4330708661417323
            },
            {
              "number": 7,
              "ticks": 163547,
              "time": 174.72986684791667,
              "value": 0.4330708661417323
            },
            {
              "number": 7,
              "ticks": 163608,
              "time": 174.79503785,
              "value": 0.4330708661417323
            },
            {
              "number": 7,
              "ticks": 163670,
              "time": 174.86127722916666,
              "value": 0.4330708661417323
            },
            {
              "number": 7,
              "ticks": 163731,
              "time": 174.92644823125,
              "value": 0.4330708661417323
            },
            {
              "number": 7,
              "ticks": 163792,
              "time": 174.99161923333332,
              "value": 0.4330708661417323
            },
            {
              "number": 7,
              "ticks": 163853,
              "time": 175.05679023541666,
              "value": 0.4330708661417323
            },
            {
              "number": 7,
              "ticks": 163915,
              "time": 175.12302961458332,
              "value": 0.4330708661417323
            },
            {
              "number": 7,
              "ticks": 163976,
              "time": 175.18820061666665,
              "value": 0.4330708661417323
            },
            {
              "number": 7,
              "ticks": 164037,
              "time": 175.25337161874998,
              "value": 0.4330708661417323
            },
            {
              "number": 7,
              "ticks": 164098,
              "time": 175.3185426208333,
              "value": 0.4330708661417323
            },
            {
              "number": 7,
              "ticks": 164160,
              "time": 175.384782,
              "value": 0.4330708661417323
            },
            {
              "number": 7,
              "ticks": 164221,
              "time": 175.44995300208333,
              "value": 0.4330708661417323
            },
            {
              "number": 7,
              "ticks": 164282,
              "time": 175.51512400416667,
              "value": 0.4330708661417323
            },
            {
              "number": 7,
              "ticks": 164343,
              "time": 175.58029500625,
              "value": 0.4330708661417323
            },
            {
              "number": 7,
              "ticks": 164404,
              "time": 175.64546600833333,
              "value": 0.4330708661417323
            },
            {
              "number": 7,
              "ticks": 164466,
              "time": 175.7117053875,
              "value": 0.4330708661417323
            },
            {
              "number": 7,
              "ticks": 164527,
              "time": 175.77687638958332,
              "value": 0.4330708661417323
            },
            {
              "number": 7,
              "ticks": 164588,
              "time": 175.84204739166665,
              "value": 0.4330708661417323
            },
            {
              "number": 7,
              "ticks": 164649,
              "time": 175.90721839375,
              "value": 0.4330708661417323
            },
            {
              "number": 7,
              "ticks": 164711,
              "time": 175.97345777291667,
              "value": 0.4330708661417323
            },
            {
              "number": 7,
              "ticks": 164772,
              "time": 176.03862877499998,
              "value": 0.4330708661417323
            },
            {
              "number": 7,
              "ticks": 164833,
              "time": 176.10379977708334,
              "value": 0.4330708661417323
            },
            {
              "number": 7,
              "ticks": 164894,
              "time": 176.16897077916664,
              "value": 0.4330708661417323
            },
            {
              "number": 7,
              "ticks": 164956,
              "time": 176.23521015833333,
              "value": 0.4330708661417323
            },
            {
              "number": 7,
              "ticks": 165017,
              "time": 176.30038116041666,
              "value": 0.4330708661417323
            },
            {
              "number": 7,
              "ticks": 165078,
              "time": 176.3655521625,
              "value": 0.4330708661417323
            },
            {
              "number": 7,
              "ticks": 165139,
              "time": 176.43072316458333,
              "value": 0.4330708661417323
            },
            {
              "number": 7,
              "ticks": 165201,
              "time": 176.49696254375,
              "value": 0.4330708661417323
            },
            {
              "number": 7,
              "ticks": 165262,
              "time": 176.56213354583332,
              "value": 0.4330708661417323
            },
            {
              "number": 7,
              "ticks": 165323,
              "time": 176.62730454791665,
              "value": 0.4330708661417323
            },
            {
              "number": 7,
              "ticks": 165384,
              "time": 176.69247554999998,
              "value": 0.4409448818897638
            },
            {
              "number": 7,
              "ticks": 165446,
              "time": 176.75871492916667,
              "value": 0.4409448818897638
            },
            {
              "number": 7,
              "ticks": 165507,
              "time": 176.82388593124998,
              "value": 0.4409448818897638
            },
            {
              "number": 7,
              "ticks": 165568,
              "time": 176.88905693333334,
              "value": 0.4409448818897638
            },
            {
              "number": 7,
              "ticks": 165630,
              "time": 176.9552963125,
              "value": 0.4409448818897638
            },
            {
              "number": 7,
              "ticks": 165691,
              "time": 177.02046731458333,
              "value": 0.4409448818897638
            },
            {
              "number": 7,
              "ticks": 165752,
              "time": 177.08563831666666,
              "value": 0.4409448818897638
            },
            {
              "number": 7,
              "ticks": 165813,
              "time": 177.15080931875,
              "value": 0.4409448818897638
            },
            {
              "number": 7,
              "ticks": 165874,
              "time": 177.21598032083332,
              "value": 0.4409448818897638
            },
            {
              "number": 7,
              "ticks": 165936,
              "time": 177.28221969999998,
              "value": 0.4409448818897638
            },
            {
              "number": 7,
              "ticks": 165997,
              "time": 177.34739070208335,
              "value": 0.4409448818897638
            },
            {
              "number": 7,
              "ticks": 166058,
              "time": 177.41256170416665,
              "value": 0.4409448818897638
            },
            {
              "number": 7,
              "ticks": 166119,
              "time": 177.47773270625,
              "value": 0.4409448818897638
            },
            {
              "number": 7,
              "ticks": 166181,
              "time": 177.54397208541667,
              "value": 0.4409448818897638
            },
            {
              "number": 7,
              "ticks": 166242,
              "time": 177.60914308749997,
              "value": 0.4409448818897638
            },
            {
              "number": 7,
              "ticks": 166303,
              "time": 177.67431408958333,
              "value": 0.4409448818897638
            },
            {
              "number": 7,
              "ticks": 166364,
              "time": 177.73948509166664,
              "value": 0.4409448818897638
            },
            {
              "number": 7,
              "ticks": 166426,
              "time": 177.80572447083333,
              "value": 0.4409448818897638
            },
            {
              "number": 7,
              "ticks": 166487,
              "time": 177.87089547291666,
              "value": 0.4409448818897638
            },
            {
              "number": 7,
              "ticks": 166548,
              "time": 177.936066475,
              "value": 0.4409448818897638
            },
            {
              "number": 7,
              "ticks": 166609,
              "time": 178.00123747708332,
              "value": 0.4409448818897638
            },
            {
              "number": 7,
              "ticks": 166671,
              "time": 178.06747685624998,
              "value": 0.4409448818897638
            },
            {
              "number": 7,
              "ticks": 166732,
              "time": 178.13264785833334,
              "value": 0.4409448818897638
            },
            {
              "number": 7,
              "ticks": 166793,
              "time": 178.19781886041665,
              "value": 0.4409448818897638
            },
            {
              "number": 7,
              "ticks": 166854,
              "time": 178.2629898625,
              "value": 0.4409448818897638
            },
            {
              "number": 7,
              "ticks": 166916,
              "time": 178.32922924166667,
              "value": 0.4409448818897638
            },
            {
              "number": 7,
              "ticks": 166977,
              "time": 178.39440024374997,
              "value": 0.4409448818897638
            },
            {
              "number": 7,
              "ticks": 167039,
              "time": 178.46063962291663,
              "value": 0.4409448818897638
            },
            {
              "number": 7,
              "ticks": 167100,
              "time": 178.525810625,
              "value": 0.4409448818897638
            },
            {
              "number": 7,
              "ticks": 167161,
              "time": 178.59098162708332,
              "value": 0.4409448818897638
            },
            {
              "number": 7,
              "ticks": 167222,
              "time": 178.65615262916666,
              "value": 0.4409448818897638
            },
            {
              "number": 7,
              "ticks": 167283,
              "time": 178.72132363125002,
              "value": 0.4409448818897638
            },
            {
              "number": 7,
              "ticks": 167344,
              "time": 178.78649463333332,
              "value": 0.44881889763779526
            },
            {
              "number": 7,
              "ticks": 167405,
              "time": 178.85166563541668,
              "value": 0.44881889763779526
            },
            {
              "number": 7,
              "ticks": 167467,
              "time": 178.91790501458334,
              "value": 0.44881889763779526
            },
            {
              "number": 7,
              "ticks": 167528,
              "time": 178.98307601666664,
              "value": 0.44881889763779526
            },
            {
              "number": 7,
              "ticks": 167589,
              "time": 179.04824701875,
              "value": 0.44881889763779526
            },
            {
              "number": 7,
              "ticks": 167650,
              "time": 179.1134180208333,
              "value": 0.44881889763779526
            },
            {
              "number": 7,
              "ticks": 167712,
              "time": 179.17965739999997,
              "value": 0.44881889763779526
            },
            {
              "number": 7,
              "ticks": 167773,
              "time": 179.24482840208333,
              "value": 0.44881889763779526
            },
            {
              "number": 7,
              "ticks": 167834,
              "time": 179.30999940416663,
              "value": 0.44881889763779526
            },
            {
              "number": 7,
              "ticks": 167895,
              "time": 179.37517040625,
              "value": 0.44881889763779526
            },
            {
              "number": 7,
              "ticks": 167957,
              "time": 179.44140978541665,
              "value": 0.44881889763779526
            },
            {
              "number": 7,
              "ticks": 168018,
              "time": 179.5065807875,
              "value": 0.44881889763779526
            },
            {
              "number": 7,
              "ticks": 168079,
              "time": 179.57175178958332,
              "value": 0.44881889763779526
            },
            {
              "number": 7,
              "ticks": 168140,
              "time": 179.63692279166668,
              "value": 0.44881889763779526
            },
            {
              "number": 7,
              "ticks": 168202,
              "time": 179.70316217083334,
              "value": 0.44881889763779526
            },
            {
              "number": 7,
              "ticks": 168263,
              "time": 179.76833317291664,
              "value": 0.44881889763779526
            },
            {
              "number": 7,
              "ticks": 168324,
              "time": 179.833504175,
              "value": 0.44881889763779526
            },
            {
              "number": 7,
              "ticks": 168385,
              "time": 179.8986751770833,
              "value": 0.44881889763779526
            },
            {
              "number": 7,
              "ticks": 168447,
              "time": 179.96491455624997,
              "value": 0.44881889763779526
            },
            {
              "number": 7,
              "ticks": 168508,
              "time": 180.03008555833333,
              "value": 0.44881889763779526
            },
            {
              "number": 7,
              "ticks": 168570,
              "time": 180.0963249375,
              "value": 0.44881889763779526
            },
            {
              "number": 7,
              "ticks": 168631,
              "time": 180.16149593958335,
              "value": 0.44881889763779526
            },
            {
              "number": 7,
              "ticks": 168692,
              "time": 180.22666694166665,
              "value": 0.44881889763779526
            },
            {
              "number": 7,
              "ticks": 168753,
              "time": 180.29183794375,
              "value": 0.44881889763779526
            },
            {
              "number": 7,
              "ticks": 168814,
              "time": 180.35700894583331,
              "value": 0.44881889763779526
            },
            {
              "number": 7,
              "ticks": 168875,
              "time": 180.42217994791667,
              "value": 0.44881889763779526
            },
            {
              "number": 7,
              "ticks": 168937,
              "time": 180.48841932708334,
              "value": 0.44881889763779526
            },
            {
              "number": 7,
              "ticks": 168998,
              "time": 180.55359032916664,
              "value": 0.44881889763779526
            },
            {
              "number": 7,
              "ticks": 169059,
              "time": 180.61876133125,
              "value": 0.44881889763779526
            },
            {
              "number": 7,
              "ticks": 169120,
              "time": 180.6839323333333,
              "value": 0.44881889763779526
            },
            {
              "number": 7,
              "ticks": 169182,
              "time": 180.7501717125,
              "value": 0.44881889763779526
            },
            {
              "number": 7,
              "ticks": 169243,
              "time": 180.81534271458332,
              "value": 0.44881889763779526
            },
            {
              "number": 7,
              "ticks": 169304,
              "time": 180.88051371666666,
              "value": 0.4566929133858268
            },
            {
              "number": 7,
              "ticks": 169365,
              "time": 180.94568471875,
              "value": 0.4566929133858268
            },
            {
              "number": 7,
              "ticks": 169427,
              "time": 181.01192409791665,
              "value": 0.4566929133858268
            },
            {
              "number": 7,
              "ticks": 169488,
              "time": 181.0770951,
              "value": 0.4566929133858268
            },
            {
              "number": 7,
              "ticks": 169549,
              "time": 181.1422661020833,
              "value": 0.4566929133858268
            },
            {
              "number": 7,
              "ticks": 169610,
              "time": 181.20743710416667,
              "value": 0.4566929133858268
            },
            {
              "number": 7,
              "ticks": 169672,
              "time": 181.27367648333333,
              "value": 0.4566929133858268
            },
            {
              "number": 7,
              "ticks": 169733,
              "time": 181.33884748541664,
              "value": 0.4566929133858268
            },
            {
              "number": 7,
              "ticks": 169794,
              "time": 181.4040184875,
              "value": 0.4566929133858268
            },
            {
              "number": 7,
              "ticks": 169855,
              "time": 181.4691894895833,
              "value": 0.4566929133858268
            },
            {
              "number": 7,
              "ticks": 169917,
              "time": 181.53542886875,
              "value": 0.4566929133858268
            },
            {
              "number": 7,
              "ticks": 169978,
              "time": 181.60059987083332,
              "value": 0.4566929133858268
            },
            {
              "number": 7,
              "ticks": 170039,
              "time": 181.66577087291665,
              "value": 0.4566929133858268
            },
            {
              "number": 7,
              "ticks": 170100,
              "time": 181.73094187499998,
              "value": 0.4566929133858268
            },
            {
              "number": 7,
              "ticks": 170162,
              "time": 181.79718125416665,
              "value": 0.4566929133858268
            },
            {
              "number": 7,
              "ticks": 170223,
              "time": 181.86235225625,
              "value": 0.4566929133858268
            },
            {
              "number": 7,
              "ticks": 170284,
              "time": 181.9275232583333,
              "value": 0.4566929133858268
            },
            {
              "number": 7,
              "ticks": 170345,
              "time": 181.99269426041667,
              "value": 0.4566929133858268
            },
            {
              "number": 7,
              "ticks": 170406,
              "time": 182.05786526249997,
              "value": 0.4566929133858268
            },
            {
              "number": 7,
              "ticks": 170468,
              "time": 182.12410464166666,
              "value": 0.4566929133858268
            },
            {
              "number": 7,
              "ticks": 170529,
              "time": 182.18927564375,
              "value": 0.4566929133858268
            },
            {
              "number": 7,
              "ticks": 170590,
              "time": 182.25444664583333,
              "value": 0.4566929133858268
            },
            {
              "number": 7,
              "ticks": 170651,
              "time": 182.31961764791666,
              "value": 0.4566929133858268
            },
            {
              "number": 7,
              "ticks": 170713,
              "time": 182.38585702708332,
              "value": 0.4566929133858268
            },
            {
              "number": 7,
              "ticks": 170774,
              "time": 182.45102802916665,
              "value": 0.4566929133858268
            },
            {
              "number": 7,
              "ticks": 170835,
              "time": 182.51619903124998,
              "value": 0.4566929133858268
            },
            {
              "number": 7,
              "ticks": 170896,
              "time": 182.58137003333334,
              "value": 0.4566929133858268
            },
            {
              "number": 7,
              "ticks": 170958,
              "time": 182.6476094125,
              "value": 0.4566929133858268
            },
            {
              "number": 7,
              "ticks": 171019,
              "time": 182.7127804145833,
              "value": 0.4566929133858268
            },
            {
              "number": 7,
              "ticks": 171080,
              "time": 182.77795141666667,
              "value": 0.4566929133858268
            },
            {
              "number": 7,
              "ticks": 171141,
              "time": 182.84312241874997,
              "value": 0.4566929133858268
            },
            {
              "number": 7,
              "ticks": 171203,
              "time": 182.90936179791666,
              "value": 0.4566929133858268
            },
            {
              "number": 7,
              "ticks": 171264,
              "time": 182.9745328,
              "value": 0.4645669291338583
            },
            {
              "number": 7,
              "ticks": 171325,
              "time": 183.03970380208332,
              "value": 0.4645669291338583
            },
            {
              "number": 7,
              "ticks": 171386,
              "time": 183.10487480416666,
              "value": 0.4645669291338583
            },
            {
              "number": 7,
              "ticks": 171448,
              "time": 183.17111418333332,
              "value": 0.4645669291338583
            },
            {
              "number": 7,
              "ticks": 171509,
              "time": 183.23628518541665,
              "value": 0.4645669291338583
            },
            {
              "number": 7,
              "ticks": 171570,
              "time": 183.30145618749998,
              "value": 0.4645669291338583
            },
            {
              "number": 7,
              "ticks": 171631,
              "time": 183.36662718958334,
              "value": 0.4645669291338583
            },
            {
              "number": 7,
              "ticks": 171693,
              "time": 183.43286656875,
              "value": 0.4645669291338583
            },
            {
              "number": 7,
              "ticks": 171754,
              "time": 183.49803757083333,
              "value": 0.4645669291338583
            },
            {
              "number": 7,
              "ticks": 171815,
              "time": 183.56320857291666,
              "value": 0.4645669291338583
            },
            {
              "number": 7,
              "ticks": 171876,
              "time": 183.628379575,
              "value": 0.4645669291338583
            },
            {
              "number": 7,
              "ticks": 171938,
              "time": 183.69461895416666,
              "value": 0.4645669291338583
            },
            {
              "number": 7,
              "ticks": 171999,
              "time": 183.75978995625,
              "value": 0.4645669291338583
            },
            {
              "number": 7,
              "ticks": 172060,
              "time": 183.82496095833332,
              "value": 0.4645669291338583
            },
            {
              "number": 7,
              "ticks": 172121,
              "time": 183.89013196041665,
              "value": 0.4645669291338583
            },
            {
              "number": 7,
              "ticks": 172183,
              "time": 183.9563713395833,
              "value": 0.4645669291338583
            },
            {
              "number": 7,
              "ticks": 172244,
              "time": 184.02154234166665,
              "value": 0.4645669291338583
            },
            {
              "number": 7,
              "ticks": 172305,
              "time": 184.08671334374998,
              "value": 0.4645669291338583
            },
            {
              "number": 7,
              "ticks": 172366,
              "time": 184.15188434583334,
              "value": 0.4645669291338583
            },
            {
              "number": 7,
              "ticks": 172428,
              "time": 184.218123725,
              "value": 0.4645669291338583
            },
            {
              "number": 7,
              "ticks": 172489,
              "time": 184.28329472708333,
              "value": 0.4645669291338583
            },
            {
              "number": 7,
              "ticks": 172550,
              "time": 184.34846572916666,
              "value": 0.4645669291338583
            },
            {
              "number": 7,
              "ticks": 172611,
              "time": 184.41363673125,
              "value": 0.4645669291338583
            },
            {
              "number": 7,
              "ticks": 172673,
              "time": 184.47987611041665,
              "value": 0.4645669291338583
            },
            {
              "number": 7,
              "ticks": 172734,
              "time": 184.5450471125,
              "value": 0.4645669291338583
            },
            {
              "number": 7,
              "ticks": 172795,
              "time": 184.61021811458332,
              "value": 0.4645669291338583
            },
            {
              "number": 7,
              "ticks": 172856,
              "time": 184.67538911666665,
              "value": 0.4645669291338583
            },
            {
              "number": 7,
              "ticks": 172918,
              "time": 184.7416284958333,
              "value": 0.4645669291338583
            }
          ],
          "10": [
            {
              "number": 10,
              "ticks": 104264,
              "time": 111.39326821666666,
              "value": 0.6299212598425197
            },
            {
              "number": 10,
              "ticks": 105759,
              "time": 112.99049195625,
              "value": 0.6377952755905512
            },
            {
              "number": 10,
              "ticks": 107255,
              "time": 114.58878407291665,
              "value": 0.6456692913385826
            },
            {
              "number": 10,
              "ticks": 108749,
              "time": 116.18493943541667,
              "value": 0.6535433070866141
            },
            {
              "number": 10,
              "ticks": 110245,
              "time": 117.78323155208334,
              "value": 0.6614173228346457
            },
            {
              "number": 10,
              "ticks": 111740,
              "time": 119.38045529166665,
              "value": 0.6692913385826772
            },
            {
              "number": 10,
              "ticks": 113235,
              "time": 120.97767903124999,
              "value": 0.6771653543307087
            },
            {
              "number": 10,
              "ticks": 114731,
              "time": 122.57597114791666,
              "value": 0.6850393700787402
            },
            {
              "number": 10,
              "ticks": 116226,
              "time": 124.17319488749999,
              "value": 0.6929133858267716
            },
            {
              "number": 10,
              "ticks": 117721,
              "time": 125.77041862708333,
              "value": 0.7007874015748031
            },
            {
              "number": 10,
              "ticks": 119217,
              "time": 127.36871074375,
              "value": 0.7086614173228346
            },
            {
              "number": 10,
              "ticks": 120712,
              "time": 128.9659344833333,
              "value": 0.7165354330708661
            },
            {
              "number": 10,
              "ticks": 122207,
              "time": 130.56315822291666,
              "value": 0.7244094488188977
            },
            {
              "number": 10,
              "ticks": 123703,
              "time": 132.16145033958333,
              "value": 0.7322834645669292
            },
            {
              "number": 10,
              "ticks": 125197,
              "time": 133.75760570208334,
              "value": 0.7401574803149606
            },
            {
              "number": 10,
              "ticks": 126693,
              "time": 135.35589781875,
              "value": 0.7480314960629921
            },
            {
              "number": 10,
              "ticks": 128188,
              "time": 136.95312155833332,
              "value": 0.7559055118110236
            },
            {
              "number": 10,
              "ticks": 129683,
              "time": 138.55034529791666,
              "value": 0.7637795275590551
            },
            {
              "number": 10,
              "ticks": 131179,
              "time": 140.14863741458333,
              "value": 0.7716535433070866
            },
            {
              "number": 10,
              "ticks": 132674,
              "time": 141.74586115416665,
              "value": 0.7795275590551181
            },
            {
              "number": 10,
              "ticks": 134169,
              "time": 143.34308489375,
              "value": 0.7874015748031497
            },
            {
              "number": 10,
              "ticks": 135664,
              "time": 144.94030863333333,
              "value": 0.7952755905511811
            },
            {
              "number": 10,
              "ticks": 137159,
              "time": 146.53753237291664,
              "value": 0.8031496062992126
            },
            {
              "number": 10,
              "ticks": 138655,
              "time": 148.1358244895833,
              "value": 0.8110236220472441
            },
            {
              "number": 10,
              "ticks": 140150,
              "time": 149.73304822916666,
              "value": 0.8188976377952756
            },
            {
              "number": 10,
              "ticks": 141645,
              "time": 151.33027196875,
              "value": 0.8267716535433071
            },
            {
              "number": 10,
              "ticks": 143140,
              "time": 152.9274957083333,
              "value": 0.8346456692913385
            },
            {
              "number": 10,
              "ticks": 144636,
              "time": 154.52578782499998,
              "value": 0.84251968503937
            },
            {
              "number": 10,
              "ticks": 146131,
              "time": 156.12301156458335,
              "value": 0.8503937007874016
            },
            {
              "number": 10,
              "ticks": 147626,
              "time": 157.72023530416666,
              "value": 0.8582677165354331
            },
            {
              "number": 10,
              "ticks": 149122,
              "time": 159.31852742083333,
              "value": 0.8661417322834646
            },
            {
              "number": 10,
              "ticks": 150616,
              "time": 160.91468278333335,
              "value": 0.8740157480314961
            },
            {
              "number": 10,
              "ticks": 152112,
              "time": 162.5129749,
              "value": 0.8818897637795275
            },
            {
              "number": 10,
              "ticks": 153607,
              "time": 164.11019863958333,
              "value": 0.889763779527559
            },
            {
              "number": 10,
              "ticks": 155103,
              "time": 165.70849075625,
              "value": 0.8976377952755905
            },
            {
              "number": 10,
              "ticks": 156597,
              "time": 167.30464611875,
              "value": 0.905511811023622
            },
            {
              "number": 10,
              "ticks": 158093,
              "time": 168.90293823541666,
              "value": 0.9133858267716536
            },
            {
              "number": 10,
              "ticks": 159588,
              "time": 170.500161975,
              "value": 0.9212598425196851
            },
            {
              "number": 10,
              "ticks": 161083,
              "time": 172.09738571458334,
              "value": 0.9291338582677166
            },
            {
              "number": 10,
              "ticks": 162578,
              "time": 173.69460945416665,
              "value": 0.937007874015748
            },
            {
              "number": 10,
              "ticks": 164074,
              "time": 175.29290157083332,
              "value": 0.9448818897637795
            },
            {
              "number": 10,
              "ticks": 165568,
              "time": 176.88905693333334,
              "value": 0.952755905511811
            },
            {
              "number": 10,
              "ticks": 167065,
              "time": 178.4884174270833,
              "value": 0.9606299212598425
            },
            {
              "number": 10,
              "ticks": 168559,
              "time": 180.08457278958332,
              "value": 0.968503937007874
            },
            {
              "number": 10,
              "ticks": 170055,
              "time": 181.68286490625,
              "value": 0.9763779527559056
            },
            {
              "number": 10,
              "ticks": 171550,
              "time": 183.2800886458333,
              "value": 0.984251968503937
            }
          ],
          "32": [
            {
              "number": 32,
              "ticks": 113898,
              "time": 121.68601303749999,
              "value": 0.031496062992125984
            },
            {
              "number": 32,
              "ticks": 142219,
              "time": 151.94352041458333,
              "value": 0.03937007874015748
            },
            {
              "number": 32,
              "ticks": 170540,
              "time": 182.20102779166666,
              "value": 0.047244094488188976
            }
          ],
          "91": [
            {
              "number": 91,
              "ticks": 106648,
              "time": 113.94027918333333,
              "value": 0.6535433070866141
            },
            {
              "number": 91,
              "ticks": 114197,
              "time": 122.00545778541665,
              "value": 0.6614173228346457
            },
            {
              "number": 91,
              "ticks": 121744,
              "time": 130.06849963333332,
              "value": 0.6692913385826772
            },
            {
              "number": 91,
              "ticks": 129293,
              "time": 138.13367823541665,
              "value": 0.6771653543307087
            },
            {
              "number": 91,
              "ticks": 136842,
              "time": 146.1988568375,
              "value": 0.6850393700787402
            },
            {
              "number": 91,
              "ticks": 144391,
              "time": 154.26403543958332,
              "value": 0.6929133858267716
            },
            {
              "number": 91,
              "ticks": 151939,
              "time": 162.32814566458333,
              "value": 0.7007874015748031
            },
            {
              "number": 91,
              "ticks": 159488,
              "time": 170.39332426666664,
              "value": 0.7086614173228346
            },
            {
              "number": 91,
              "ticks": 167036,
              "time": 178.45743449166667,
              "value": 0.7165354330708661
            }
          ],
          "93": [
            {
              "number": 93,
              "ticks": 106776,
              "time": 114.07703144999999,
              "value": 0.33858267716535434
            },
            {
              "number": 93,
              "ticks": 114325,
              "time": 122.14221005208333,
              "value": 0.3464566929133858
            },
            {
              "number": 93,
              "ticks": 121874,
              "time": 130.20738865416666,
              "value": 0.3543307086614173
            },
            {
              "number": 93,
              "ticks": 129424,
              "time": 138.27363563333333,
              "value": 0.36220472440944884
            },
            {
              "number": 93,
              "ticks": 136973,
              "time": 146.33881423541666,
              "value": 0.3700787401574803
            },
            {
              "number": 93,
              "ticks": 144522,
              "time": 154.40399283749997,
              "value": 0.3779527559055118
            },
            {
              "number": 93,
              "ticks": 152072,
              "time": 162.47023981666666,
              "value": 0.3858267716535433
            },
            {
              "number": 93,
              "ticks": 159621,
              "time": 170.53541841875,
              "value": 0.3937007874015748
            },
            {
              "number": 93,
              "ticks": 167170,
              "time": 178.6005970208333,
              "value": 0.4015748031496063
            }
          ]
        },
        "pitchBends": [],
        "instrument": {
          "family": "synth pad",
          "number": 88,
          "name": "pad 1 (new age)"
        },
        "name": "",
        "notes": [
          {
            "duration": 1.0256420000000048,
            "durationTicks": 960,
            "midi": 61,
            "name": "C#4",
            "ticks": 105600,
            "time": 112.82061999999999,
            "velocity": 1
          },
          {
            "duration": 0.5128210000000024,
            "durationTicks": 480,
            "midi": 63,
            "name": "D#4",
            "ticks": 108480,
            "time": 115.89754599999999,
            "velocity": 1
          },
          {
            "duration": 0.5128210000000024,
            "durationTicks": 480,
            "midi": 59,
            "name": "B3",
            "ticks": 108960,
            "time": 116.410367,
            "velocity": 1
          },
          {
            "duration": 0.998932572916658,
            "durationTicks": 935,
            "midi": 61,
            "name": "C#4",
            "ticks": 109440,
            "time": 116.923188,
            "velocity": 1
          },
          {
            "duration": 0.5128210000000024,
            "durationTicks": 480,
            "midi": 59,
            "name": "B3",
            "ticks": 112320,
            "time": 120.000114,
            "velocity": 1
          },
          {
            "duration": 0.5128209999999882,
            "durationTicks": 480,
            "midi": 57,
            "name": "A3",
            "ticks": 112800,
            "time": 120.512935,
            "velocity": 1
          },
          {
            "duration": 1.0149582291666661,
            "durationTicks": 950,
            "midi": 54,
            "name": "F#3",
            "ticks": 113280,
            "time": 121.02575599999999,
            "velocity": 1
          },
          {
            "duration": 1.0181633604166507,
            "durationTicks": 953,
            "midi": 61,
            "name": "C#4",
            "ticks": 128640,
            "time": 137.436028,
            "velocity": 1
          },
          {
            "duration": 0.491453458333325,
            "durationTicks": 460,
            "midi": 63,
            "name": "D#4",
            "ticks": 131460,
            "time": 140.448851375,
            "velocity": 1
          },
          {
            "duration": 0.491453458333325,
            "durationTicks": 460,
            "midi": 59,
            "name": "B3",
            "ticks": 132000,
            "time": 141.02577499999998,
            "velocity": 1
          },
          {
            "duration": 1.0790608541666984,
            "durationTicks": 1010,
            "midi": 61,
            "name": "C#4",
            "ticks": 132480,
            "time": 141.53859599999998,
            "velocity": 1
          },
          {
            "duration": 0.4807696874999863,
            "durationTicks": 450,
            "midi": 59,
            "name": "B3",
            "ticks": 135360,
            "time": 144.615522,
            "velocity": 1
          },
          {
            "duration": 0.5021372291666637,
            "durationTicks": 470,
            "midi": 57,
            "name": "A3",
            "ticks": 135840,
            "time": 145.128343,
            "velocity": 0.937007874015748
          },
          {
            "duration": 1.0576933124999925,
            "durationTicks": 990,
            "midi": 54,
            "name": "F#3",
            "ticks": 136320,
            "time": 145.641164,
            "velocity": 1
          }
        ]
      },
      {
        "channel": 10,
        "controlChanges": {
          "0": [
            {
              "number": 0,
              "ticks": 227180,
              "time": 242.71390579166666,
              "value": 0
            }
          ],
          "7": [
            {
              "number": 7,
              "ticks": 172979,
              "time": 184.80679949791664,
              "value": 0.4645669291338583
            },
            {
              "number": 7,
              "ticks": 173040,
              "time": 184.8719705,
              "value": 0.4645669291338583
            },
            {
              "number": 7,
              "ticks": 173101,
              "time": 184.93714150208334,
              "value": 0.4645669291338583
            },
            {
              "number": 7,
              "ticks": 173162,
              "time": 185.00231250416667,
              "value": 0.4645669291338583
            },
            {
              "number": 7,
              "ticks": 173162,
              "time": 185.00231250416667,
              "value": 0.47244094488188976
            },
            {
              "number": 7,
              "ticks": 173332,
              "time": 185.18393660833334,
              "value": 0.47244094488188976
            },
            {
              "number": 7,
              "ticks": 173501,
              "time": 185.36449233541666,
              "value": 0.47244094488188976
            },
            {
              "number": 7,
              "ticks": 173670,
              "time": 185.5450480625,
              "value": 0.47244094488188976
            },
            {
              "number": 7,
              "ticks": 173839,
              "time": 185.72560378958332,
              "value": 0.47244094488188976
            },
            {
              "number": 7,
              "ticks": 174009,
              "time": 185.90722789375,
              "value": 0.47244094488188976
            },
            {
              "number": 7,
              "ticks": 174178,
              "time": 186.08778362083333,
              "value": 0.47244094488188976
            },
            {
              "number": 7,
              "ticks": 174348,
              "time": 186.269407725,
              "value": 0.47244094488188976
            },
            {
              "number": 7,
              "ticks": 174517,
              "time": 186.44996345208332,
              "value": 0.47244094488188976
            },
            {
              "number": 7,
              "ticks": 174686,
              "time": 186.63051917916667,
              "value": 0.47244094488188976
            },
            {
              "number": 7,
              "ticks": 174855,
              "time": 186.81107490624998,
              "value": 0.47244094488188976
            },
            {
              "number": 7,
              "ticks": 175024,
              "time": 186.99163063333333,
              "value": 0.47244094488188976
            },
            {
              "number": 7,
              "ticks": 175193,
              "time": 187.17218636041665,
              "value": 0.47244094488188976
            },
            {
              "number": 7,
              "ticks": 175362,
              "time": 187.3527420875,
              "value": 0.47244094488188976
            },
            {
              "number": 7,
              "ticks": 175532,
              "time": 187.53436619166666,
              "value": 0.47244094488188976
            },
            {
              "number": 7,
              "ticks": 175701,
              "time": 187.71492191874998,
              "value": 0.47244094488188976
            },
            {
              "number": 7,
              "ticks": 175871,
              "time": 187.89654602291665,
              "value": 0.47244094488188976
            },
            {
              "number": 7,
              "ticks": 176039,
              "time": 188.07603337291664,
              "value": 0.47244094488188976
            },
            {
              "number": 7,
              "ticks": 176209,
              "time": 188.2576574770833,
              "value": 0.47244094488188976
            },
            {
              "number": 7,
              "ticks": 176378,
              "time": 188.43821320416666,
              "value": 0.47244094488188976
            },
            {
              "number": 7,
              "ticks": 176547,
              "time": 188.61876893124997,
              "value": 0.47244094488188976
            },
            {
              "number": 7,
              "ticks": 176717,
              "time": 188.80039303541665,
              "value": 0.47244094488188976
            },
            {
              "number": 7,
              "ticks": 176886,
              "time": 188.9809487625,
              "value": 0.47244094488188976
            },
            {
              "number": 7,
              "ticks": 177055,
              "time": 189.1615044895833,
              "value": 0.47244094488188976
            },
            {
              "number": 7,
              "ticks": 177224,
              "time": 189.34206021666665,
              "value": 0.47244094488188976
            },
            {
              "number": 7,
              "ticks": 177394,
              "time": 189.52368432083333,
              "value": 0.47244094488188976
            },
            {
              "number": 7,
              "ticks": 177563,
              "time": 189.70424004791664,
              "value": 0.47244094488188976
            },
            {
              "number": 7,
              "ticks": 177731,
              "time": 189.88372739791666,
              "value": 0.47244094488188976
            },
            {
              "number": 7,
              "ticks": 177901,
              "time": 190.06535150208333,
              "value": 0.47244094488188976
            },
            {
              "number": 7,
              "ticks": 178070,
              "time": 190.24590722916668,
              "value": 0.47244094488188976
            },
            {
              "number": 7,
              "ticks": 178239,
              "time": 190.42646295625,
              "value": 0.47244094488188976
            },
            {
              "number": 7,
              "ticks": 178409,
              "time": 190.60808706041664,
              "value": 0.47244094488188976
            },
            {
              "number": 7,
              "ticks": 178578,
              "time": 190.7886427875,
              "value": 0.47244094488188976
            },
            {
              "number": 7,
              "ticks": 178747,
              "time": 190.96919851458333,
              "value": 0.48031496062992124
            },
            {
              "number": 7,
              "ticks": 178916,
              "time": 191.14975424166667,
              "value": 0.48031496062992124
            },
            {
              "number": 7,
              "ticks": 179085,
              "time": 191.33030996875,
              "value": 0.48031496062992124
            },
            {
              "number": 7,
              "ticks": 179255,
              "time": 191.51193407291666,
              "value": 0.48031496062992124
            },
            {
              "number": 7,
              "ticks": 179424,
              "time": 191.6924898,
              "value": 0.48031496062992124
            },
            {
              "number": 7,
              "ticks": 179593,
              "time": 191.87304552708332,
              "value": 0.48031496062992124
            },
            {
              "number": 7,
              "ticks": 179762,
              "time": 192.05360125416667,
              "value": 0.48031496062992124
            },
            {
              "number": 7,
              "ticks": 179932,
              "time": 192.23522535833334,
              "value": 0.48031496062992124
            },
            {
              "number": 7,
              "ticks": 180101,
              "time": 192.41578108541665,
              "value": 0.48031496062992124
            },
            {
              "number": 7,
              "ticks": 180270,
              "time": 192.5963368125,
              "value": 0.48031496062992124
            },
            {
              "number": 7,
              "ticks": 180439,
              "time": 192.77689253958332,
              "value": 0.48031496062992124
            },
            {
              "number": 7,
              "ticks": 180609,
              "time": 192.95851664375,
              "value": 0.48031496062992124
            },
            {
              "number": 7,
              "ticks": 180778,
              "time": 193.13907237083333,
              "value": 0.48031496062992124
            },
            {
              "number": 7,
              "ticks": 180947,
              "time": 193.31962809791665,
              "value": 0.48031496062992124
            },
            {
              "number": 7,
              "ticks": 181116,
              "time": 193.500183825,
              "value": 0.48031496062992124
            },
            {
              "number": 7,
              "ticks": 181285,
              "time": 193.6807395520833,
              "value": 0.48031496062992124
            },
            {
              "number": 7,
              "ticks": 181455,
              "time": 193.86236365624998,
              "value": 0.48031496062992124
            },
            {
              "number": 7,
              "ticks": 181624,
              "time": 194.04291938333333,
              "value": 0.48031496062992124
            },
            {
              "number": 7,
              "ticks": 181793,
              "time": 194.22347511041664,
              "value": 0.48031496062992124
            },
            {
              "number": 7,
              "ticks": 181962,
              "time": 194.4040308375,
              "value": 0.48031496062992124
            },
            {
              "number": 7,
              "ticks": 182132,
              "time": 194.58565494166666,
              "value": 0.48031496062992124
            },
            {
              "number": 7,
              "ticks": 182301,
              "time": 194.76621066874998,
              "value": 0.48031496062992124
            },
            {
              "number": 7,
              "ticks": 182470,
              "time": 194.94676639583332,
              "value": 0.48031496062992124
            },
            {
              "number": 7,
              "ticks": 182639,
              "time": 195.12732212291664,
              "value": 0.48031496062992124
            },
            {
              "number": 7,
              "ticks": 182808,
              "time": 195.30787785,
              "value": 0.48031496062992124
            },
            {
              "number": 7,
              "ticks": 182978,
              "time": 195.48950195416666,
              "value": 0.48031496062992124
            },
            {
              "number": 7,
              "ticks": 183147,
              "time": 195.67005768124997,
              "value": 0.48031496062992124
            },
            {
              "number": 7,
              "ticks": 183317,
              "time": 195.85168178541664,
              "value": 0.48031496062992124
            },
            {
              "number": 7,
              "ticks": 183486,
              "time": 196.0322375125,
              "value": 0.48031496062992124
            },
            {
              "number": 7,
              "ticks": 183655,
              "time": 196.2127932395833,
              "value": 0.48031496062992124
            },
            {
              "number": 7,
              "ticks": 183824,
              "time": 196.39334896666665,
              "value": 0.48031496062992124
            },
            {
              "number": 7,
              "ticks": 183993,
              "time": 196.57390469375,
              "value": 0.4881889763779528
            },
            {
              "number": 7,
              "ticks": 184162,
              "time": 196.75446042083334,
              "value": 0.4881889763779528
            },
            {
              "number": 7,
              "ticks": 184331,
              "time": 196.93501614791666,
              "value": 0.4881889763779528
            },
            {
              "number": 7,
              "ticks": 184501,
              "time": 197.11664025208333,
              "value": 0.4881889763779528
            },
            {
              "number": 7,
              "ticks": 184670,
              "time": 197.29719597916667,
              "value": 0.4881889763779528
            },
            {
              "number": 7,
              "ticks": 184840,
              "time": 197.47882008333332,
              "value": 0.4881889763779528
            },
            {
              "number": 7,
              "ticks": 185009,
              "time": 197.65937581041663,
              "value": 0.4881889763779528
            },
            {
              "number": 7,
              "ticks": 185178,
              "time": 197.8399315375,
              "value": 0.4881889763779528
            },
            {
              "number": 7,
              "ticks": 185347,
              "time": 198.02048726458332,
              "value": 0.4881889763779528
            },
            {
              "number": 7,
              "ticks": 185516,
              "time": 198.20104299166667,
              "value": 0.4881889763779528
            },
            {
              "number": 7,
              "ticks": 185685,
              "time": 198.38159871874998,
              "value": 0.4881889763779528
            },
            {
              "number": 7,
              "ticks": 185854,
              "time": 198.56215444583333,
              "value": 0.4881889763779528
            },
            {
              "number": 7,
              "ticks": 186024,
              "time": 198.74377855,
              "value": 0.4881889763779528
            },
            {
              "number": 7,
              "ticks": 186193,
              "time": 198.92433427708332,
              "value": 0.4881889763779528
            },
            {
              "number": 7,
              "ticks": 186363,
              "time": 199.10595838125,
              "value": 0.4881889763779528
            },
            {
              "number": 7,
              "ticks": 186531,
              "time": 199.28544573124998,
              "value": 0.4881889763779528
            },
            {
              "number": 7,
              "ticks": 186701,
              "time": 199.46706983541665,
              "value": 0.4881889763779528
            },
            {
              "number": 7,
              "ticks": 186870,
              "time": 199.6476255625,
              "value": 0.4881889763779528
            },
            {
              "number": 7,
              "ticks": 187039,
              "time": 199.8281812895833,
              "value": 0.4881889763779528
            },
            {
              "number": 7,
              "ticks": 187208,
              "time": 200.00873701666666,
              "value": 0.4881889763779528
            },
            {
              "number": 7,
              "ticks": 187378,
              "time": 200.19036112083333,
              "value": 0.4881889763779528
            },
            {
              "number": 7,
              "ticks": 187547,
              "time": 200.37091684791665,
              "value": 0.4881889763779528
            },
            {
              "number": 7,
              "ticks": 187716,
              "time": 200.551472575,
              "value": 0.4881889763779528
            },
            {
              "number": 7,
              "ticks": 187885,
              "time": 200.7320283020833,
              "value": 0.4881889763779528
            },
            {
              "number": 7,
              "ticks": 188054,
              "time": 200.91258402916665,
              "value": 0.4881889763779528
            },
            {
              "number": 7,
              "ticks": 188224,
              "time": 201.09420813333332,
              "value": 0.4881889763779528
            },
            {
              "number": 7,
              "ticks": 188393,
              "time": 201.27476386041664,
              "value": 0.4881889763779528
            },
            {
              "number": 7,
              "ticks": 188562,
              "time": 201.4553195875,
              "value": 0.4881889763779528
            },
            {
              "number": 7,
              "ticks": 188731,
              "time": 201.63587531458333,
              "value": 0.4881889763779528
            },
            {
              "number": 7,
              "ticks": 188901,
              "time": 201.81749941874997,
              "value": 0.4881889763779528
            },
            {
              "number": 7,
              "ticks": 189070,
              "time": 201.99805514583332,
              "value": 0.4881889763779528
            },
            {
              "number": 7,
              "ticks": 189239,
              "time": 202.17861087291664,
              "value": 0.4881889763779528
            },
            {
              "number": 7,
              "ticks": 189408,
              "time": 202.3591666,
              "value": 0.4881889763779528
            },
            {
              "number": 7,
              "ticks": 189577,
              "time": 202.53972232708333,
              "value": 0.49606299212598426
            },
            {
              "number": 7,
              "ticks": 189747,
              "time": 202.72134643124997,
              "value": 0.49606299212598426
            },
            {
              "number": 7,
              "ticks": 189916,
              "time": 202.90190215833334,
              "value": 0.49606299212598426
            },
            {
              "number": 7,
              "ticks": 190085,
              "time": 203.08245788541666,
              "value": 0.49606299212598426
            },
            {
              "number": 7,
              "ticks": 190254,
              "time": 203.2630136125,
              "value": 0.49606299212598426
            },
            {
              "number": 7,
              "ticks": 190424,
              "time": 203.44463771666665,
              "value": 0.49606299212598426
            },
            {
              "number": 7,
              "ticks": 190593,
              "time": 203.62519344375,
              "value": 0.49606299212598426
            },
            {
              "number": 7,
              "ticks": 190762,
              "time": 203.80574917083334,
              "value": 0.49606299212598426
            },
            {
              "number": 7,
              "ticks": 190931,
              "time": 203.98630489791665,
              "value": 0.49606299212598426
            },
            {
              "number": 7,
              "ticks": 191101,
              "time": 204.16792900208333,
              "value": 0.49606299212598426
            },
            {
              "number": 7,
              "ticks": 191270,
              "time": 204.34848472916667,
              "value": 0.49606299212598426
            },
            {
              "number": 7,
              "ticks": 191439,
              "time": 204.52904045625,
              "value": 0.49606299212598426
            },
            {
              "number": 7,
              "ticks": 191608,
              "time": 204.70959618333333,
              "value": 0.49606299212598426
            },
            {
              "number": 7,
              "ticks": 191777,
              "time": 204.89015191041665,
              "value": 0.49606299212598426
            },
            {
              "number": 7,
              "ticks": 191947,
              "time": 205.07177601458332,
              "value": 0.49606299212598426
            },
            {
              "number": 7,
              "ticks": 192115,
              "time": 205.2512633645833,
              "value": 0.49606299212598426
            },
            {
              "number": 7,
              "ticks": 192285,
              "time": 205.43288746874998,
              "value": 0.49606299212598426
            },
            {
              "number": 7,
              "ticks": 192454,
              "time": 205.61344319583333,
              "value": 0.49606299212598426
            },
            {
              "number": 7,
              "ticks": 192624,
              "time": 205.7950673,
              "value": 0.49606299212598426
            },
            {
              "number": 7,
              "ticks": 192793,
              "time": 205.97562302708332,
              "value": 0.49606299212598426
            },
            {
              "number": 7,
              "ticks": 192963,
              "time": 206.15724713125,
              "value": 0.49606299212598426
            },
            {
              "number": 7,
              "ticks": 193131,
              "time": 206.33673448124998,
              "value": 0.49606299212598426
            },
            {
              "number": 7,
              "ticks": 193300,
              "time": 206.51729020833332,
              "value": 0.49606299212598426
            },
            {
              "number": 7,
              "ticks": 193470,
              "time": 206.6989143125,
              "value": 0.49606299212598426
            },
            {
              "number": 7,
              "ticks": 193639,
              "time": 206.8794700395833,
              "value": 0.49606299212598426
            },
            {
              "number": 7,
              "ticks": 193808,
              "time": 207.06002576666666,
              "value": 0.49606299212598426
            },
            {
              "number": 7,
              "ticks": 193977,
              "time": 207.24058149374997,
              "value": 0.49606299212598426
            },
            {
              "number": 7,
              "ticks": 194147,
              "time": 207.42220559791664,
              "value": 0.49606299212598426
            },
            {
              "number": 7,
              "ticks": 194316,
              "time": 207.602761325,
              "value": 0.49606299212598426
            },
            {
              "number": 7,
              "ticks": 194485,
              "time": 207.7833170520833,
              "value": 0.49606299212598426
            },
            {
              "number": 7,
              "ticks": 194654,
              "time": 207.96387277916665,
              "value": 0.49606299212598426
            },
            {
              "number": 7,
              "ticks": 194824,
              "time": 208.14549688333332,
              "value": 0.5039370078740157
            },
            {
              "number": 7,
              "ticks": 194993,
              "time": 208.32605261041664,
              "value": 0.5039370078740157
            },
            {
              "number": 7,
              "ticks": 195162,
              "time": 208.50660833749998,
              "value": 0.5039370078740157
            },
            {
              "number": 7,
              "ticks": 195331,
              "time": 208.68716406458333,
              "value": 0.5039370078740157
            },
            {
              "number": 7,
              "ticks": 195500,
              "time": 208.86771979166667,
              "value": 0.5039370078740157
            },
            {
              "number": 7,
              "ticks": 195670,
              "time": 209.04934389583332,
              "value": 0.5039370078740157
            },
            {
              "number": 7,
              "ticks": 195839,
              "time": 209.22989962291663,
              "value": 0.5039370078740157
            },
            {
              "number": 7,
              "ticks": 196008,
              "time": 209.41045535,
              "value": 0.5039370078740157
            },
            {
              "number": 7,
              "ticks": 196177,
              "time": 209.59101107708332,
              "value": 0.5039370078740157
            },
            {
              "number": 7,
              "ticks": 196347,
              "time": 209.77263518124997,
              "value": 0.5039370078740157
            },
            {
              "number": 7,
              "ticks": 196516,
              "time": 209.95319090833334,
              "value": 0.5039370078740157
            },
            {
              "number": 7,
              "ticks": 196685,
              "time": 210.13374663541666,
              "value": 0.5039370078740157
            },
            {
              "number": 7,
              "ticks": 196855,
              "time": 210.3153707395833,
              "value": 0.5039370078740157
            },
            {
              "number": 7,
              "ticks": 197023,
              "time": 210.49485808958332,
              "value": 0.5039370078740157
            },
            {
              "number": 7,
              "ticks": 197193,
              "time": 210.67648219375,
              "value": 0.5039370078740157
            },
            {
              "number": 7,
              "ticks": 197362,
              "time": 210.85703792083333,
              "value": 0.5039370078740157
            },
            {
              "number": 7,
              "ticks": 197531,
              "time": 211.03759364791665,
              "value": 0.5039370078740157
            },
            {
              "number": 7,
              "ticks": 197701,
              "time": 211.21921775208332,
              "value": 0.5039370078740157
            },
            {
              "number": 7,
              "ticks": 197870,
              "time": 211.39977347916667,
              "value": 0.5039370078740157
            },
            {
              "number": 7,
              "ticks": 198039,
              "time": 211.58032920624998,
              "value": 0.5039370078740157
            },
            {
              "number": 7,
              "ticks": 198209,
              "time": 211.76195331041663,
              "value": 0.5039370078740157
            },
            {
              "number": 7,
              "ticks": 198377,
              "time": 211.94144066041665,
              "value": 0.5039370078740157
            },
            {
              "number": 7,
              "ticks": 198547,
              "time": 212.12306476458332,
              "value": 0.5039370078740157
            },
            {
              "number": 7,
              "ticks": 198715,
              "time": 212.3025521145833,
              "value": 0.5039370078740157
            },
            {
              "number": 7,
              "ticks": 198885,
              "time": 212.48417621874998,
              "value": 0.5039370078740157
            },
            {
              "number": 7,
              "ticks": 199054,
              "time": 212.66473194583332,
              "value": 0.5039370078740157
            },
            {
              "number": 7,
              "ticks": 199223,
              "time": 212.84528767291664,
              "value": 0.5039370078740157
            },
            {
              "number": 7,
              "ticks": 199393,
              "time": 213.0269117770833,
              "value": 0.5039370078740157
            },
            {
              "number": 7,
              "ticks": 199562,
              "time": 213.20746750416666,
              "value": 0.5039370078740157
            },
            {
              "number": 7,
              "ticks": 199731,
              "time": 213.38802323124997,
              "value": 0.5039370078740157
            },
            {
              "number": 7,
              "ticks": 199900,
              "time": 213.56857895833332,
              "value": 0.5039370078740157
            },
            {
              "number": 7,
              "ticks": 200069,
              "time": 213.74913468541664,
              "value": 0.5039370078740157
            },
            {
              "number": 7,
              "ticks": 200239,
              "time": 213.9307587895833,
              "value": 0.5039370078740157
            },
            {
              "number": 7,
              "ticks": 200408,
              "time": 214.11131451666665,
              "value": 0.5118110236220472
            },
            {
              "number": 7,
              "ticks": 200577,
              "time": 214.29187024374997,
              "value": 0.5118110236220472
            },
            {
              "number": 7,
              "ticks": 200746,
              "time": 214.47242597083334,
              "value": 0.5118110236220472
            },
            {
              "number": 7,
              "ticks": 200916,
              "time": 214.654050075,
              "value": 0.5118110236220472
            },
            {
              "number": 7,
              "ticks": 201085,
              "time": 214.8346058020833,
              "value": 0.5118110236220472
            },
            {
              "number": 7,
              "ticks": 201254,
              "time": 215.01516152916665,
              "value": 0.5118110236220472
            },
            {
              "number": 7,
              "ticks": 201423,
              "time": 215.19571725625,
              "value": 0.5118110236220472
            },
            {
              "number": 7,
              "ticks": 201593,
              "time": 215.37734136041664,
              "value": 0.5118110236220472
            },
            {
              "number": 7,
              "ticks": 201762,
              "time": 215.55789708749998,
              "value": 0.5118110236220472
            },
            {
              "number": 7,
              "ticks": 201931,
              "time": 215.73845281458333,
              "value": 0.5118110236220472
            },
            {
              "number": 7,
              "ticks": 202100,
              "time": 215.91900854166667,
              "value": 0.5118110236220472
            },
            {
              "number": 7,
              "ticks": 202270,
              "time": 216.10063264583331,
              "value": 0.5118110236220472
            },
            {
              "number": 7,
              "ticks": 202439,
              "time": 216.28118837291663,
              "value": 0.5118110236220472
            },
            {
              "number": 7,
              "ticks": 202608,
              "time": 216.4617441,
              "value": 0.5118110236220472
            },
            {
              "number": 7,
              "ticks": 202777,
              "time": 216.64229982708332,
              "value": 0.5118110236220472
            },
            {
              "number": 7,
              "ticks": 202946,
              "time": 216.82285555416667,
              "value": 0.5118110236220472
            },
            {
              "number": 7,
              "ticks": 203116,
              "time": 217.00447965833334,
              "value": 0.5118110236220472
            },
            {
              "number": 7,
              "ticks": 203285,
              "time": 217.18503538541665,
              "value": 0.5118110236220472
            },
            {
              "number": 7,
              "ticks": 203454,
              "time": 217.3655911125,
              "value": 0.5118110236220472
            },
            {
              "number": 7,
              "ticks": 203624,
              "time": 217.54721521666664,
              "value": 0.5118110236220472
            },
            {
              "number": 7,
              "ticks": 203793,
              "time": 217.72777094375,
              "value": 0.5118110236220472
            },
            {
              "number": 7,
              "ticks": 203962,
              "time": 217.90832667083333,
              "value": 0.5118110236220472
            },
            {
              "number": 7,
              "ticks": 204131,
              "time": 218.08888239791665,
              "value": 0.5118110236220472
            },
            {
              "number": 7,
              "ticks": 204300,
              "time": 218.269438125,
              "value": 0.5118110236220472
            },
            {
              "number": 7,
              "ticks": 204469,
              "time": 218.4499938520833,
              "value": 0.5118110236220472
            },
            {
              "number": 7,
              "ticks": 204639,
              "time": 218.63161795624998,
              "value": 0.5118110236220472
            },
            {
              "number": 7,
              "ticks": 204808,
              "time": 218.81217368333333,
              "value": 0.5118110236220472
            },
            {
              "number": 7,
              "ticks": 204977,
              "time": 218.99272941041664,
              "value": 0.5118110236220472
            },
            {
              "number": 7,
              "ticks": 205146,
              "time": 219.1732851375,
              "value": 0.5118110236220472
            },
            {
              "number": 7,
              "ticks": 205316,
              "time": 219.35490924166666,
              "value": 0.5118110236220472
            },
            {
              "number": 7,
              "ticks": 205485,
              "time": 219.53546496874998,
              "value": 0.5118110236220472
            },
            {
              "number": 7,
              "ticks": 205654,
              "time": 219.71602069583332,
              "value": 0.5196850393700787
            },
            {
              "number": 7,
              "ticks": 205823,
              "time": 219.89657642291664,
              "value": 0.5196850393700787
            },
            {
              "number": 7,
              "ticks": 205992,
              "time": 220.07713214999998,
              "value": 0.5196850393700787
            },
            {
              "number": 7,
              "ticks": 206162,
              "time": 220.25875625416666,
              "value": 0.5196850393700787
            },
            {
              "number": 7,
              "ticks": 206330,
              "time": 220.43824360416667,
              "value": 0.5196850393700787
            },
            {
              "number": 7,
              "ticks": 206500,
              "time": 220.61986770833332,
              "value": 0.5196850393700787
            },
            {
              "number": 7,
              "ticks": 206669,
              "time": 220.80042343541663,
              "value": 0.5196850393700787
            },
            {
              "number": 7,
              "ticks": 206839,
              "time": 220.9820475395833,
              "value": 0.5196850393700787
            },
            {
              "number": 7,
              "ticks": 207008,
              "time": 221.16260326666665,
              "value": 0.5196850393700787
            },
            {
              "number": 7,
              "ticks": 207177,
              "time": 221.34315899374997,
              "value": 0.5196850393700787
            },
            {
              "number": 7,
              "ticks": 207347,
              "time": 221.52478309791664,
              "value": 0.5196850393700787
            },
            {
              "number": 7,
              "ticks": 207515,
              "time": 221.70427044791666,
              "value": 0.5196850393700787
            },
            {
              "number": 7,
              "ticks": 207684,
              "time": 221.884826175,
              "value": 0.5196850393700787
            },
            {
              "number": 7,
              "ticks": 207854,
              "time": 222.06645027916665,
              "value": 0.5196850393700787
            },
            {
              "number": 7,
              "ticks": 208023,
              "time": 222.24700600625,
              "value": 0.5196850393700787
            },
            {
              "number": 7,
              "ticks": 208192,
              "time": 222.42756173333333,
              "value": 0.5196850393700787
            },
            {
              "number": 7,
              "ticks": 208362,
              "time": 222.60918583749998,
              "value": 0.5196850393700787
            },
            {
              "number": 7,
              "ticks": 208531,
              "time": 222.78974156458332,
              "value": 0.5196850393700787
            },
            {
              "number": 7,
              "ticks": 208701,
              "time": 222.97136566874997,
              "value": 0.5196850393700787
            },
            {
              "number": 7,
              "ticks": 208869,
              "time": 223.15085301874998,
              "value": 0.5196850393700787
            },
            {
              "number": 7,
              "ticks": 209038,
              "time": 223.33140874583333,
              "value": 0.5196850393700787
            },
            {
              "number": 7,
              "ticks": 209208,
              "time": 223.51303285,
              "value": 0.5196850393700787
            },
            {
              "number": 7,
              "ticks": 209377,
              "time": 223.69358857708332,
              "value": 0.5196850393700787
            },
            {
              "number": 7,
              "ticks": 209546,
              "time": 223.87414430416666,
              "value": 0.5196850393700787
            },
            {
              "number": 7,
              "ticks": 209715,
              "time": 224.05470003124998,
              "value": 0.5196850393700787
            },
            {
              "number": 7,
              "ticks": 209885,
              "time": 224.23632413541665,
              "value": 0.5196850393700787
            },
            {
              "number": 7,
              "ticks": 210054,
              "time": 224.4168798625,
              "value": 0.5196850393700787
            },
            {
              "number": 7,
              "ticks": 210223,
              "time": 224.5974355895833,
              "value": 0.5196850393700787
            },
            {
              "number": 7,
              "ticks": 210392,
              "time": 224.77799131666666,
              "value": 0.5196850393700787
            },
            {
              "number": 7,
              "ticks": 210562,
              "time": 224.95961542083333,
              "value": 0.5196850393700787
            },
            {
              "number": 7,
              "ticks": 210731,
              "time": 225.14017114791665,
              "value": 0.5196850393700787
            },
            {
              "number": 7,
              "ticks": 210900,
              "time": 225.320726875,
              "value": 0.5196850393700787
            },
            {
              "number": 7,
              "ticks": 211069,
              "time": 225.5012826020833,
              "value": 0.5196850393700787
            },
            {
              "number": 7,
              "ticks": 211238,
              "time": 225.68183832916665,
              "value": 0.5275590551181102
            },
            {
              "number": 7,
              "ticks": 211408,
              "time": 225.86346243333332,
              "value": 0.5275590551181102
            },
            {
              "number": 7,
              "ticks": 211577,
              "time": 226.04401816041664,
              "value": 0.5275590551181102
            },
            {
              "number": 7,
              "ticks": 211746,
              "time": 226.2245738875,
              "value": 0.5275590551181102
            },
            {
              "number": 7,
              "ticks": 211916,
              "time": 226.40619799166666,
              "value": 0.5275590551181102
            },
            {
              "number": 7,
              "ticks": 212085,
              "time": 226.58675371874997,
              "value": 0.5275590551181102
            },
            {
              "number": 7,
              "ticks": 212254,
              "time": 226.76730944583332,
              "value": 0.5275590551181102
            },
            {
              "number": 7,
              "ticks": 212423,
              "time": 226.94786517291664,
              "value": 0.5275590551181102
            },
            {
              "number": 7,
              "ticks": 212592,
              "time": 227.12842089999998,
              "value": 0.5275590551181102
            },
            {
              "number": 7,
              "ticks": 212762,
              "time": 227.31004500416665,
              "value": 0.5275590551181102
            },
            {
              "number": 7,
              "ticks": 212931,
              "time": 227.49060073124997,
              "value": 0.5275590551181102
            },
            {
              "number": 7,
              "ticks": 213100,
              "time": 227.67115645833331,
              "value": 0.5275590551181102
            },
            {
              "number": 7,
              "ticks": 213269,
              "time": 227.85171218541663,
              "value": 0.5275590551181102
            },
            {
              "number": 7,
              "ticks": 213438,
              "time": 228.0322679125,
              "value": 0.5275590551181102
            },
            {
              "number": 7,
              "ticks": 213608,
              "time": 228.21389201666665,
              "value": 0.5275590551181102
            },
            {
              "number": 7,
              "ticks": 213777,
              "time": 228.39444774374996,
              "value": 0.5275590551181102
            },
            {
              "number": 7,
              "ticks": 213946,
              "time": 228.57500347083334,
              "value": 0.5275590551181102
            },
            {
              "number": 7,
              "ticks": 214116,
              "time": 228.75662757499998,
              "value": 0.5275590551181102
            },
            {
              "number": 7,
              "ticks": 214285,
              "time": 228.9371833020833,
              "value": 0.5275590551181102
            },
            {
              "number": 7,
              "ticks": 214454,
              "time": 229.11773902916664,
              "value": 0.5275590551181102
            },
            {
              "number": 7,
              "ticks": 214624,
              "time": 229.29936313333332,
              "value": 0.5275590551181102
            },
            {
              "number": 7,
              "ticks": 214792,
              "time": 229.47885048333333,
              "value": 0.5275590551181102
            },
            {
              "number": 7,
              "ticks": 214961,
              "time": 229.65940621041665,
              "value": 0.5275590551181102
            },
            {
              "number": 7,
              "ticks": 215131,
              "time": 229.84103031458332,
              "value": 0.5275590551181102
            },
            {
              "number": 7,
              "ticks": 215300,
              "time": 230.02158604166667,
              "value": 0.5275590551181102
            },
            {
              "number": 7,
              "ticks": 215469,
              "time": 230.20214176874998,
              "value": 0.5275590551181102
            },
            {
              "number": 7,
              "ticks": 215638,
              "time": 230.38269749583333,
              "value": 0.5275590551181102
            },
            {
              "number": 7,
              "ticks": 215808,
              "time": 230.5643216,
              "value": 0.5275590551181102
            },
            {
              "number": 7,
              "ticks": 215977,
              "time": 230.74487732708332,
              "value": 0.5275590551181102
            },
            {
              "number": 7,
              "ticks": 216146,
              "time": 230.92543305416666,
              "value": 0.5275590551181102
            },
            {
              "number": 7,
              "ticks": 216315,
              "time": 231.10598878124998,
              "value": 0.5275590551181102
            },
            {
              "number": 7,
              "ticks": 216485,
              "time": 231.28761288541665,
              "value": 0.5354330708661418
            },
            {
              "number": 7,
              "ticks": 216654,
              "time": 231.4681686125,
              "value": 0.5354330708661418
            },
            {
              "number": 7,
              "ticks": 216823,
              "time": 231.6487243395833,
              "value": 0.5354330708661418
            },
            {
              "number": 7,
              "ticks": 216993,
              "time": 231.83034844375,
              "value": 0.5354330708661418
            },
            {
              "number": 7,
              "ticks": 217161,
              "time": 232.00983579374997,
              "value": 0.5354330708661418
            },
            {
              "number": 7,
              "ticks": 217331,
              "time": 232.19145989791664,
              "value": 0.5354330708661418
            },
            {
              "number": 7,
              "ticks": 217500,
              "time": 232.372015625,
              "value": 0.5354330708661418
            },
            {
              "number": 7,
              "ticks": 217669,
              "time": 232.5525713520833,
              "value": 0.5354330708661418
            },
            {
              "number": 7,
              "ticks": 217839,
              "time": 232.73419545625,
              "value": 0.5354330708661418
            },
            {
              "number": 7,
              "ticks": 218007,
              "time": 232.91368280624997,
              "value": 0.5354330708661418
            },
            {
              "number": 7,
              "ticks": 218177,
              "time": 233.09530691041664,
              "value": 0.5354330708661418
            },
            {
              "number": 7,
              "ticks": 218346,
              "time": 233.27586263749998,
              "value": 0.5354330708661418
            },
            {
              "number": 7,
              "ticks": 218515,
              "time": 233.4564183645833,
              "value": 0.5354330708661418
            },
            {
              "number": 7,
              "ticks": 218685,
              "time": 233.63804246875,
              "value": 0.5354330708661418
            },
            {
              "number": 7,
              "ticks": 218854,
              "time": 233.81859819583332,
              "value": 0.5354330708661418
            },
            {
              "number": 7,
              "ticks": 219023,
              "time": 233.99915392291663,
              "value": 0.5354330708661418
            },
            {
              "number": 7,
              "ticks": 219192,
              "time": 234.17970964999998,
              "value": 0.5354330708661418
            },
            {
              "number": 7,
              "ticks": 219361,
              "time": 234.36026537708332,
              "value": 0.5354330708661418
            },
            {
              "number": 7,
              "ticks": 219531,
              "time": 234.54188948124997,
              "value": 0.5354330708661418
            },
            {
              "number": 7,
              "ticks": 219700,
              "time": 234.7224452083333,
              "value": 0.5354330708661418
            },
            {
              "number": 7,
              "ticks": 219869,
              "time": 234.90300093541663,
              "value": 0.5354330708661418
            },
            {
              "number": 7,
              "ticks": 220039,
              "time": 235.08462503958333,
              "value": 0.5354330708661418
            },
            {
              "number": 7,
              "ticks": 220208,
              "time": 235.26518076666665,
              "value": 0.5354330708661418
            },
            {
              "number": 7,
              "ticks": 220377,
              "time": 235.44573649374996,
              "value": 0.5354330708661418
            },
            {
              "number": 7,
              "ticks": 220546,
              "time": 235.62629222083334,
              "value": 0.5354330708661418
            },
            {
              "number": 7,
              "ticks": 220715,
              "time": 235.80684794791665,
              "value": 0.5354330708661418
            },
            {
              "number": 7,
              "ticks": 220884,
              "time": 235.987403675,
              "value": 0.5354330708661418
            },
            {
              "number": 7,
              "ticks": 221054,
              "time": 236.16902777916664,
              "value": 0.5354330708661418
            },
            {
              "number": 7,
              "ticks": 221223,
              "time": 236.34958350624999,
              "value": 0.5354330708661418
            },
            {
              "number": 7,
              "ticks": 221393,
              "time": 236.53120761041666,
              "value": 0.5354330708661418
            },
            {
              "number": 7,
              "ticks": 221562,
              "time": 236.71176333749997,
              "value": 0.5354330708661418
            },
            {
              "number": 7,
              "ticks": 221731,
              "time": 236.89231906458335,
              "value": 0.5354330708661418
            },
            {
              "number": 7,
              "ticks": 221900,
              "time": 237.07287479166666,
              "value": 0.5354330708661418
            },
            {
              "number": 7,
              "ticks": 222069,
              "time": 237.25343051874998,
              "value": 0.5433070866141733
            },
            {
              "number": 7,
              "ticks": 222238,
              "time": 237.43398624583332,
              "value": 0.5433070866141733
            },
            {
              "number": 7,
              "ticks": 222408,
              "time": 237.61561035,
              "value": 0.5433070866141733
            },
            {
              "number": 7,
              "ticks": 222577,
              "time": 237.79616607708334,
              "value": 0.5433070866141733
            },
            {
              "number": 7,
              "ticks": 222746,
              "time": 237.97672180416666,
              "value": 0.5433070866141733
            },
            {
              "number": 7,
              "ticks": 222916,
              "time": 238.15834590833333,
              "value": 0.5433070866141733
            },
            {
              "number": 7,
              "ticks": 223084,
              "time": 238.33783325833332,
              "value": 0.5433070866141733
            },
            {
              "number": 7,
              "ticks": 223254,
              "time": 238.5194573625,
              "value": 0.5433070866141733
            },
            {
              "number": 7,
              "ticks": 223422,
              "time": 238.69894471249998,
              "value": 0.5433070866141733
            },
            {
              "number": 7,
              "ticks": 223592,
              "time": 238.88056881666665,
              "value": 0.5433070866141733
            },
            {
              "number": 7,
              "ticks": 223761,
              "time": 239.06112454374997,
              "value": 0.5433070866141733
            },
            {
              "number": 7,
              "ticks": 223930,
              "time": 239.2416802708333,
              "value": 0.5433070866141733
            },
            {
              "number": 7,
              "ticks": 224100,
              "time": 239.423304375,
              "value": 0.5433070866141733
            },
            {
              "number": 7,
              "ticks": 224269,
              "time": 239.6038601020833,
              "value": 0.5433070866141733
            },
            {
              "number": 7,
              "ticks": 224438,
              "time": 239.78441582916665,
              "value": 0.5433070866141733
            },
            {
              "number": 7,
              "ticks": 224607,
              "time": 239.96497155624996,
              "value": 0.5433070866141733
            },
            {
              "number": 7,
              "ticks": 224776,
              "time": 240.14552728333334,
              "value": 0.5433070866141733
            },
            {
              "number": 7,
              "ticks": 224946,
              "time": 240.32715138749998,
              "value": 0.5433070866141733
            },
            {
              "number": 7,
              "ticks": 225115,
              "time": 240.5077071145833,
              "value": 0.5433070866141733
            },
            {
              "number": 7,
              "ticks": 225284,
              "time": 240.68826284166664,
              "value": 0.5433070866141733
            },
            {
              "number": 7,
              "ticks": 225454,
              "time": 240.86988694583331,
              "value": 0.5433070866141733
            },
            {
              "number": 7,
              "ticks": 225623,
              "time": 241.05044267291666,
              "value": 0.5433070866141733
            },
            {
              "number": 7,
              "ticks": 225792,
              "time": 241.23099839999998,
              "value": 0.5433070866141733
            },
            {
              "number": 7,
              "ticks": 225961,
              "time": 241.41155412708332,
              "value": 0.5433070866141733
            },
            {
              "number": 7,
              "ticks": 226130,
              "time": 241.59210985416667,
              "value": 0.5433070866141733
            },
            {
              "number": 7,
              "ticks": 226300,
              "time": 241.7737339583333,
              "value": 0.5433070866141733
            },
            {
              "number": 7,
              "ticks": 226469,
              "time": 241.95428968541663,
              "value": 0.5433070866141733
            },
            {
              "number": 7,
              "ticks": 226638,
              "time": 242.1348454125,
              "value": 0.5433070866141733
            },
            {
              "number": 7,
              "ticks": 226807,
              "time": 242.31540113958332,
              "value": 0.5433070866141733
            },
            {
              "number": 7,
              "ticks": 226977,
              "time": 242.49702524375,
              "value": 0.5433070866141733
            },
            {
              "number": 7,
              "ticks": 227146,
              "time": 242.67758097083333,
              "value": 0.5433070866141733
            }
          ],
          "10": [
            {
              "number": 10,
              "ticks": 173045,
              "time": 184.87731238541667,
              "value": 0.9921259842519685
            },
            {
              "number": 10,
              "ticks": 173045,
              "time": 184.87731238541667,
              "value": 1
            },
            {
              "number": 10,
              "ticks": 173435,
              "time": 185.29397944791666,
              "value": 0.9921259842519685
            },
            {
              "number": 10,
              "ticks": 173826,
              "time": 185.7117148875,
              "value": 0.984251968503937
            },
            {
              "number": 10,
              "ticks": 174216,
              "time": 186.12838194999998,
              "value": 0.9763779527559056
            },
            {
              "number": 10,
              "ticks": 174607,
              "time": 186.54611738958334,
              "value": 0.968503937007874
            },
            {
              "number": 10,
              "ticks": 174997,
              "time": 186.96278445208333,
              "value": 0.9606299212598425
            },
            {
              "number": 10,
              "ticks": 175388,
              "time": 187.38051989166664,
              "value": 0.952755905511811
            },
            {
              "number": 10,
              "ticks": 175778,
              "time": 187.79718695416665,
              "value": 0.9448818897637795
            },
            {
              "number": 10,
              "ticks": 176169,
              "time": 188.21492239375,
              "value": 0.937007874015748
            },
            {
              "number": 10,
              "ticks": 176559,
              "time": 188.63158945625,
              "value": 0.9291338582677166
            },
            {
              "number": 10,
              "ticks": 176950,
              "time": 189.0493248958333,
              "value": 0.9212598425196851
            },
            {
              "number": 10,
              "ticks": 177340,
              "time": 189.46599195833332,
              "value": 0.9133858267716536
            },
            {
              "number": 10,
              "ticks": 177731,
              "time": 189.88372739791666,
              "value": 0.905511811023622
            },
            {
              "number": 10,
              "ticks": 178121,
              "time": 190.30039446041667,
              "value": 0.8976377952755905
            },
            {
              "number": 10,
              "ticks": 178512,
              "time": 190.71812989999998,
              "value": 0.889763779527559
            },
            {
              "number": 10,
              "ticks": 178902,
              "time": 191.1347969625,
              "value": 0.8818897637795275
            },
            {
              "number": 10,
              "ticks": 179293,
              "time": 191.55253240208333,
              "value": 0.8740157480314961
            },
            {
              "number": 10,
              "ticks": 179684,
              "time": 191.97026784166664,
              "value": 0.8661417322834646
            },
            {
              "number": 10,
              "ticks": 180074,
              "time": 192.38693490416665,
              "value": 0.8582677165354331
            },
            {
              "number": 10,
              "ticks": 180465,
              "time": 192.80467034375,
              "value": 0.8503937007874016
            },
            {
              "number": 10,
              "ticks": 180855,
              "time": 193.22133740625,
              "value": 0.84251968503937
            },
            {
              "number": 10,
              "ticks": 181245,
              "time": 193.63800446874998,
              "value": 0.8346456692913385
            },
            {
              "number": 10,
              "ticks": 181635,
              "time": 194.05467153125,
              "value": 0.8267716535433071
            },
            {
              "number": 10,
              "ticks": 182026,
              "time": 194.47240697083333,
              "value": 0.8188976377952756
            },
            {
              "number": 10,
              "ticks": 182416,
              "time": 194.88907403333334,
              "value": 0.8110236220472441
            },
            {
              "number": 10,
              "ticks": 182807,
              "time": 195.30680947291665,
              "value": 0.8031496062992126
            },
            {
              "number": 10,
              "ticks": 183197,
              "time": 195.72347653541667,
              "value": 0.7952755905511811
            },
            {
              "number": 10,
              "ticks": 183588,
              "time": 196.141211975,
              "value": 0.7874015748031497
            },
            {
              "number": 10,
              "ticks": 183978,
              "time": 196.5578790375,
              "value": 0.7795275590551181
            },
            {
              "number": 10,
              "ticks": 184369,
              "time": 196.97561447708333,
              "value": 0.7716535433070866
            },
            {
              "number": 10,
              "ticks": 184759,
              "time": 197.3922815395833,
              "value": 0.7637795275590551
            },
            {
              "number": 10,
              "ticks": 185150,
              "time": 197.81001697916668,
              "value": 0.7559055118110236
            },
            {
              "number": 10,
              "ticks": 185540,
              "time": 198.22668404166666,
              "value": 0.7480314960629921
            },
            {
              "number": 10,
              "ticks": 185931,
              "time": 198.64441948125,
              "value": 0.7401574803149606
            },
            {
              "number": 10,
              "ticks": 186321,
              "time": 199.06108654374998,
              "value": 0.7322834645669292
            },
            {
              "number": 10,
              "ticks": 186712,
              "time": 199.47882198333332,
              "value": 0.7244094488188977
            },
            {
              "number": 10,
              "ticks": 187102,
              "time": 199.89548904583333,
              "value": 0.7165354330708661
            },
            {
              "number": 10,
              "ticks": 187493,
              "time": 200.31322448541664,
              "value": 0.7086614173228346
            },
            {
              "number": 10,
              "ticks": 187883,
              "time": 200.72989154791665,
              "value": 0.7007874015748031
            },
            {
              "number": 10,
              "ticks": 188274,
              "time": 201.1476269875,
              "value": 0.6929133858267716
            },
            {
              "number": 10,
              "ticks": 188664,
              "time": 201.56429405,
              "value": 0.6850393700787402
            },
            {
              "number": 10,
              "ticks": 189055,
              "time": 201.9820294895833,
              "value": 0.6771653543307087
            },
            {
              "number": 10,
              "ticks": 189445,
              "time": 202.39869655208332,
              "value": 0.6692913385826772
            },
            {
              "number": 10,
              "ticks": 189835,
              "time": 202.8153636145833,
              "value": 0.6614173228346457
            },
            {
              "number": 10,
              "ticks": 190225,
              "time": 203.23203067708332,
              "value": 0.6535433070866141
            },
            {
              "number": 10,
              "ticks": 190616,
              "time": 203.64976611666665,
              "value": 0.6456692913385826
            },
            {
              "number": 10,
              "ticks": 191007,
              "time": 204.06750155624997,
              "value": 0.6377952755905512
            },
            {
              "number": 10,
              "ticks": 191397,
              "time": 204.48416861874998,
              "value": 0.6299212598425197
            },
            {
              "number": 10,
              "ticks": 191788,
              "time": 204.90190405833332,
              "value": 0.6220472440944882
            },
            {
              "number": 10,
              "ticks": 192178,
              "time": 205.31857112083333,
              "value": 0.6141732283464567
            },
            {
              "number": 10,
              "ticks": 192569,
              "time": 205.73630656041664,
              "value": 0.6062992125984252
            },
            {
              "number": 10,
              "ticks": 192959,
              "time": 206.15297362291665,
              "value": 0.5984251968503937
            },
            {
              "number": 10,
              "ticks": 193350,
              "time": 206.5707090625,
              "value": 0.5905511811023622
            },
            {
              "number": 10,
              "ticks": 193740,
              "time": 206.987376125,
              "value": 0.5826771653543307
            },
            {
              "number": 10,
              "ticks": 194131,
              "time": 207.40511156458334,
              "value": 0.5748031496062992
            },
            {
              "number": 10,
              "ticks": 194521,
              "time": 207.82177862708335,
              "value": 0.5669291338582677
            },
            {
              "number": 10,
              "ticks": 194912,
              "time": 208.23951406666666,
              "value": 0.5590551181102362
            },
            {
              "number": 10,
              "ticks": 195302,
              "time": 208.65618112916664,
              "value": 0.5511811023622047
            },
            {
              "number": 10,
              "ticks": 195693,
              "time": 209.07391656875,
              "value": 0.5433070866141733
            },
            {
              "number": 10,
              "ticks": 196083,
              "time": 209.49058363125,
              "value": 0.5354330708661418
            },
            {
              "number": 10,
              "ticks": 196474,
              "time": 209.90831907083333,
              "value": 0.5275590551181102
            },
            {
              "number": 10,
              "ticks": 196864,
              "time": 210.3249861333333,
              "value": 0.5196850393700787
            },
            {
              "number": 10,
              "ticks": 197255,
              "time": 210.74272157291665,
              "value": 0.5118110236220472
            },
            {
              "number": 10,
              "ticks": 197645,
              "time": 211.15938863541666,
              "value": 0.5039370078740157
            },
            {
              "number": 10,
              "ticks": 197645,
              "time": 211.15938863541666,
              "value": 0.5039370078740157
            },
            {
              "number": 10,
              "ticks": 198845,
              "time": 212.44144113541665,
              "value": 0.49606299212598426
            },
            {
              "number": 10,
              "ticks": 200047,
              "time": 213.72563038958333,
              "value": 0.4881889763779528
            },
            {
              "number": 10,
              "ticks": 201248,
              "time": 215.00875126666665,
              "value": 0.48031496062992124
            },
            {
              "number": 10,
              "ticks": 202448,
              "time": 216.29080376666664,
              "value": 0.47244094488188976
            },
            {
              "number": 10,
              "ticks": 203649,
              "time": 217.57392464375,
              "value": 0.4645669291338583
            },
            {
              "number": 10,
              "ticks": 204850,
              "time": 218.8570455208333,
              "value": 0.4566929133858268
            },
            {
              "number": 10,
              "ticks": 206051,
              "time": 220.14016639791666,
              "value": 0.44881889763779526
            },
            {
              "number": 10,
              "ticks": 207251,
              "time": 221.42221889791665,
              "value": 0.4409448818897638
            },
            {
              "number": 10,
              "ticks": 208452,
              "time": 222.70533977499997,
              "value": 0.4330708661417323
            },
            {
              "number": 10,
              "ticks": 209653,
              "time": 223.98846065208332,
              "value": 0.4251968503937008
            },
            {
              "number": 10,
              "ticks": 210854,
              "time": 225.27158152916664,
              "value": 0.41732283464566927
            },
            {
              "number": 10,
              "ticks": 212055,
              "time": 226.55470240625,
              "value": 0.4094488188976378
            },
            {
              "number": 10,
              "ticks": 213255,
              "time": 227.83675490624998,
              "value": 0.4015748031496063
            },
            {
              "number": 10,
              "ticks": 214456,
              "time": 229.11987578333333,
              "value": 0.3937007874015748
            },
            {
              "number": 10,
              "ticks": 215656,
              "time": 230.40192828333335,
              "value": 0.3858267716535433
            },
            {
              "number": 10,
              "ticks": 216858,
              "time": 231.6861175375,
              "value": 0.3779527559055118
            },
            {
              "number": 10,
              "ticks": 218059,
              "time": 232.96923841458332,
              "value": 0.3700787401574803
            },
            {
              "number": 10,
              "ticks": 219260,
              "time": 234.25235929166666,
              "value": 0.36220472440944884
            },
            {
              "number": 10,
              "ticks": 220460,
              "time": 235.53441179166666,
              "value": 0.3543307086614173
            },
            {
              "number": 10,
              "ticks": 221661,
              "time": 236.81753266874998,
              "value": 0.3464566929133858
            },
            {
              "number": 10,
              "ticks": 222862,
              "time": 238.10065354583332,
              "value": 0.33858267716535434
            },
            {
              "number": 10,
              "ticks": 224063,
              "time": 239.38377442291664,
              "value": 0.33070866141732286
            },
            {
              "number": 10,
              "ticks": 225263,
              "time": 240.66582692291664,
              "value": 0.3228346456692913
            },
            {
              "number": 10,
              "ticks": 226465,
              "time": 241.9500161770833,
              "value": 0.31496062992125984
            }
          ],
          "32": [
            {
              "number": 32,
              "ticks": 198861,
              "time": 212.45853516875,
              "value": 0.05511811023622047
            },
            {
              "number": 32,
              "ticks": 227183,
              "time": 242.71711092291665,
              "value": 0.06299212598425197
            }
          ],
          "91": [
            {
              "number": 91,
              "ticks": 174585,
              "time": 186.52261309374998,
              "value": 0.7244094488188977
            },
            {
              "number": 91,
              "ticks": 182133,
              "time": 194.58672331875,
              "value": 0.7322834645669292
            },
            {
              "number": 91,
              "ticks": 189682,
              "time": 202.65190192083332,
              "value": 0.7401574803149606
            },
            {
              "number": 91,
              "ticks": 197231,
              "time": 210.71708052291666,
              "value": 0.7480314960629921
            },
            {
              "number": 91,
              "ticks": 204780,
              "time": 218.782259125,
              "value": 0.7559055118110236
            },
            {
              "number": 91,
              "ticks": 212328,
              "time": 226.84636935,
              "value": 0.7637795275590551
            },
            {
              "number": 91,
              "ticks": 219877,
              "time": 234.91154795208334,
              "value": 0.7716535433070866
            }
          ],
          "93": [
            {
              "number": 93,
              "ticks": 174720,
              "time": 186.666844,
              "value": 0.4094488188976378
            },
            {
              "number": 93,
              "ticks": 182269,
              "time": 194.7320226020833,
              "value": 0.41732283464566927
            },
            {
              "number": 93,
              "ticks": 189818,
              "time": 202.79720120416664,
              "value": 0.4251968503937008
            },
            {
              "number": 93,
              "ticks": 197368,
              "time": 210.86344818333333,
              "value": 0.4330708661417323
            },
            {
              "number": 93,
              "ticks": 204917,
              "time": 218.92862678541664,
              "value": 0.4409448818897638
            },
            {
              "number": 93,
              "ticks": 212466,
              "time": 226.99380538749998,
              "value": 0.44881889763779526
            },
            {
              "number": 93,
              "ticks": 220016,
              "time": 235.06005236666667,
              "value": 0.4566929133858268
            }
          ]
        },
        "pitchBends": [
          {
            "ticks": 186788,
            "time": 199.56001864166666,
            "value": 0.26171875
          },
          {
            "ticks": 186791,
            "time": 199.56322377291667,
            "value": 0.3619384765625
          },
          {
            "ticks": 186795,
            "time": 199.56749728124998,
            "value": 0.4765625
          },
          {
            "ticks": 186803,
            "time": 199.57604429791664,
            "value": 0.479736328125
          },
          {
            "ticks": 186810,
            "time": 199.5835229375,
            "value": 0.48291015625
          },
          {
            "ticks": 186818,
            "time": 199.59206995416665,
            "value": 0.486083984375
          },
          {
            "ticks": 186823,
            "time": 199.59741183958332,
            "value": 0.48828125
          },
          {
            "ticks": 186830,
            "time": 199.60489047916667,
            "value": 0.49072265625
          },
          {
            "ticks": 186838,
            "time": 199.61343749583332,
            "value": 0.4932861328125
          },
          {
            "ticks": 186845,
            "time": 199.62091613541668,
            "value": 0.4957275390625
          },
          {
            "ticks": 186853,
            "time": 199.62946315208333,
            "value": 0.498291015625
          },
          {
            "ticks": 186858,
            "time": 199.6348050375,
            "value": 0.5
          },
          {
            "ticks": 186865,
            "time": 199.6422836770833,
            "value": 0.4444580078125
          },
          {
            "ticks": 186873,
            "time": 199.65083069375,
            "value": 0.388916015625
          },
          {
            "ticks": 186880,
            "time": 199.6583093333333,
            "value": 0.3333740234375
          },
          {
            "ticks": 186888,
            "time": 199.66685635,
            "value": 0.27783203125
          },
          {
            "ticks": 186895,
            "time": 199.67433498958331,
            "value": 0.2222900390625
          },
          {
            "ticks": 186903,
            "time": 199.68288200625,
            "value": 0.166748046875
          },
          {
            "ticks": 186910,
            "time": 199.69036064583332,
            "value": 0.1112060546875
          },
          {
            "ticks": 186918,
            "time": 199.6989076625,
            "value": 0.0556640625
          },
          {
            "ticks": 186925,
            "time": 199.7063863020833,
            "value": 0
          },
          {
            "ticks": 186933,
            "time": 199.71493331875,
            "value": 0.0010986328125
          },
          {
            "ticks": 186940,
            "time": 199.7224119583333,
            "value": 0.002197265625
          },
          {
            "ticks": 186948,
            "time": 199.730958975,
            "value": 0.0032958984375
          },
          {
            "ticks": 186955,
            "time": 199.73843761458332,
            "value": 0.00439453125
          },
          {
            "ticks": 186963,
            "time": 199.74698463125,
            "value": 0.005615234375
          },
          {
            "ticks": 186970,
            "time": 199.7544632708333,
            "value": 0.0067138671875
          },
          {
            "ticks": 186978,
            "time": 199.7630102875,
            "value": 0.0078125
          },
          {
            "ticks": 186985,
            "time": 199.7704889270833,
            "value": 0.0089111328125
          },
          {
            "ticks": 186993,
            "time": 199.77903594375,
            "value": 0.010009765625
          },
          {
            "ticks": 187000,
            "time": 199.78651458333331,
            "value": 0.01123046875
          },
          {
            "ticks": 187008,
            "time": 199.7950616,
            "value": 0.0123291015625
          },
          {
            "ticks": 187015,
            "time": 199.80254023958332,
            "value": 0.013427734375
          },
          {
            "ticks": 187023,
            "time": 199.81108725625,
            "value": 0.0145263671875
          },
          {
            "ticks": 187030,
            "time": 199.8185658958333,
            "value": 0.0157470703125
          },
          {
            "ticks": 187038,
            "time": 199.8271129125,
            "value": 0.016845703125
          },
          {
            "ticks": 187045,
            "time": 199.8345915520833,
            "value": 0.0179443359375
          },
          {
            "ticks": 187053,
            "time": 199.84313856875,
            "value": 0.01904296875
          },
          {
            "ticks": 187060,
            "time": 199.85061720833332,
            "value": 0.0201416015625
          },
          {
            "ticks": 187068,
            "time": 199.859164225,
            "value": 0.0213623046875
          },
          {
            "ticks": 187075,
            "time": 199.86664286458333,
            "value": 0.0224609375
          },
          {
            "ticks": 187083,
            "time": 199.87518988125,
            "value": 0.0235595703125
          },
          {
            "ticks": 187090,
            "time": 199.8826685208333,
            "value": 0.024658203125
          },
          {
            "ticks": 187098,
            "time": 199.8912155375,
            "value": 0.0257568359375
          },
          {
            "ticks": 187105,
            "time": 199.8986941770833,
            "value": 0.0269775390625
          },
          {
            "ticks": 187113,
            "time": 199.90724119375,
            "value": 0.028076171875
          },
          {
            "ticks": 187120,
            "time": 199.91471983333332,
            "value": 0.0291748046875
          },
          {
            "ticks": 187128,
            "time": 199.92326685,
            "value": 0.0302734375
          },
          {
            "ticks": 187135,
            "time": 199.9307454895833,
            "value": 0.031494140625
          },
          {
            "ticks": 187143,
            "time": 199.93929250625,
            "value": 0.0325927734375
          },
          {
            "ticks": 187150,
            "time": 199.9467711458333,
            "value": 0.03369140625
          },
          {
            "ticks": 187158,
            "time": 199.9553181625,
            "value": 0.0347900390625
          },
          {
            "ticks": 187165,
            "time": 199.96279680208332,
            "value": 0.035888671875
          },
          {
            "ticks": 187173,
            "time": 199.97134381875,
            "value": 0.037109375
          },
          {
            "ticks": 187180,
            "time": 199.97882245833333,
            "value": 0.0382080078125
          },
          {
            "ticks": 187188,
            "time": 199.987369475,
            "value": 0.039306640625
          },
          {
            "ticks": 187195,
            "time": 199.9948481145833,
            "value": 0.0404052734375
          },
          {
            "ticks": 187203,
            "time": 200.00339513125,
            "value": 0.04150390625
          },
          {
            "ticks": 187210,
            "time": 200.0108737708333,
            "value": 0.042724609375
          },
          {
            "ticks": 187218,
            "time": 200.0194207875,
            "value": 0.0438232421875
          },
          {
            "ticks": 187225,
            "time": 200.02689942708332,
            "value": 0.044921875
          },
          {
            "ticks": 187233,
            "time": 200.03544644375,
            "value": 0.0460205078125
          },
          {
            "ticks": 187240,
            "time": 200.0429250833333,
            "value": 0.0472412109375
          },
          {
            "ticks": 187248,
            "time": 200.0514721,
            "value": 0.04833984375
          },
          {
            "ticks": 187255,
            "time": 200.0589507395833,
            "value": 0.0494384765625
          },
          {
            "ticks": 187263,
            "time": 200.06749775625,
            "value": 0.050537109375
          },
          {
            "ticks": 187270,
            "time": 200.07497639583332,
            "value": 0.0516357421875
          },
          {
            "ticks": 187278,
            "time": 200.0835234125,
            "value": 0.0528564453125
          },
          {
            "ticks": 187285,
            "time": 200.09100205208333,
            "value": 0.053955078125
          },
          {
            "ticks": 187293,
            "time": 200.09954906875,
            "value": 0.0550537109375
          },
          {
            "ticks": 187300,
            "time": 200.1070277083333,
            "value": 0.05615234375
          },
          {
            "ticks": 187308,
            "time": 200.115574725,
            "value": 0.0572509765625
          },
          {
            "ticks": 187315,
            "time": 200.1230533645833,
            "value": 0.0584716796875
          },
          {
            "ticks": 187323,
            "time": 200.13160038125,
            "value": 0.0595703125
          },
          {
            "ticks": 187330,
            "time": 200.13907902083332,
            "value": 0.0606689453125
          },
          {
            "ticks": 187338,
            "time": 200.1476260375,
            "value": 0.061767578125
          },
          {
            "ticks": 187345,
            "time": 200.1551046770833,
            "value": 0.06298828125
          },
          {
            "ticks": 187353,
            "time": 200.16365169375,
            "value": 0.0640869140625
          },
          {
            "ticks": 187360,
            "time": 200.1711303333333,
            "value": 0.065185546875
          },
          {
            "ticks": 187368,
            "time": 200.17967735,
            "value": 0.0662841796875
          },
          {
            "ticks": 187375,
            "time": 200.18715598958332,
            "value": 0.0673828125
          },
          {
            "ticks": 187383,
            "time": 200.19570300625,
            "value": 0.068603515625
          },
          {
            "ticks": 187390,
            "time": 200.20318164583333,
            "value": 0.0697021484375
          },
          {
            "ticks": 187398,
            "time": 200.2117286625,
            "value": 0.07080078125
          },
          {
            "ticks": 187405,
            "time": 200.2192073020833,
            "value": 0.0718994140625
          },
          {
            "ticks": 187413,
            "time": 200.22775431875,
            "value": 0.072998046875
          },
          {
            "ticks": 187420,
            "time": 200.2352329583333,
            "value": 0.07421875
          },
          {
            "ticks": 187428,
            "time": 200.243779975,
            "value": 0.0753173828125
          },
          {
            "ticks": 187435,
            "time": 200.25125861458332,
            "value": 0.076416015625
          },
          {
            "ticks": 187443,
            "time": 200.25980563125,
            "value": 0.0775146484375
          },
          {
            "ticks": 187450,
            "time": 200.2672842708333,
            "value": 0.0787353515625
          },
          {
            "ticks": 187458,
            "time": 200.2758312875,
            "value": 0.079833984375
          },
          {
            "ticks": 187465,
            "time": 200.2833099270833,
            "value": 0.0809326171875
          },
          {
            "ticks": 187473,
            "time": 200.29185694375,
            "value": 0.08203125
          },
          {
            "ticks": 187480,
            "time": 200.29933558333332,
            "value": 0.0831298828125
          },
          {
            "ticks": 187488,
            "time": 200.3078826,
            "value": 0.0843505859375
          },
          {
            "ticks": 187495,
            "time": 200.31536123958332,
            "value": 0.08544921875
          },
          {
            "ticks": 187503,
            "time": 200.32390825625,
            "value": 0.0865478515625
          },
          {
            "ticks": 187510,
            "time": 200.3313868958333,
            "value": 0.087646484375
          },
          {
            "ticks": 187518,
            "time": 200.3399339125,
            "value": 0.0887451171875
          },
          {
            "ticks": 187525,
            "time": 200.3474125520833,
            "value": 0.0899658203125
          },
          {
            "ticks": 187533,
            "time": 200.35595956875,
            "value": 0.091064453125
          },
          {
            "ticks": 187540,
            "time": 200.36343820833332,
            "value": 0.0921630859375
          },
          {
            "ticks": 187547,
            "time": 200.37091684791665,
            "value": 0.09326171875
          },
          {
            "ticks": 187555,
            "time": 200.3794638645833,
            "value": 0.094482421875
          },
          {
            "ticks": 187563,
            "time": 200.38801088125,
            "value": 0.0955810546875
          },
          {
            "ticks": 187570,
            "time": 200.3954895208333,
            "value": 0.0966796875
          },
          {
            "ticks": 187578,
            "time": 200.4040365375,
            "value": 0.0977783203125
          },
          {
            "ticks": 187585,
            "time": 200.41151517708332,
            "value": 0.098876953125
          },
          {
            "ticks": 187593,
            "time": 200.42006219375,
            "value": 0.10009765625
          },
          {
            "ticks": 187600,
            "time": 200.42754083333332,
            "value": 0.1011962890625
          },
          {
            "ticks": 187608,
            "time": 200.43608785,
            "value": 0.102294921875
          },
          {
            "ticks": 187615,
            "time": 200.4435664895833,
            "value": 0.1033935546875
          },
          {
            "ticks": 187623,
            "time": 200.45211350625,
            "value": 0.1044921875
          },
          {
            "ticks": 187630,
            "time": 200.4595921458333,
            "value": 0.105712890625
          },
          {
            "ticks": 187638,
            "time": 200.4681391625,
            "value": 0.1068115234375
          },
          {
            "ticks": 187645,
            "time": 200.47561780208332,
            "value": 0.10791015625
          },
          {
            "ticks": 187653,
            "time": 200.48416481875,
            "value": 0.1090087890625
          },
          {
            "ticks": 187660,
            "time": 200.4916434583333,
            "value": 0.1102294921875
          },
          {
            "ticks": 187668,
            "time": 200.500190475,
            "value": 0.111328125
          },
          {
            "ticks": 187675,
            "time": 200.5076691145833,
            "value": 0.1124267578125
          },
          {
            "ticks": 187683,
            "time": 200.51621613125,
            "value": 0.113525390625
          },
          {
            "ticks": 187690,
            "time": 200.52369477083332,
            "value": 0.1146240234375
          },
          {
            "ticks": 187698,
            "time": 200.5322417875,
            "value": 0.1158447265625
          },
          {
            "ticks": 187705,
            "time": 200.53972042708332,
            "value": 0.116943359375
          },
          {
            "ticks": 187713,
            "time": 200.54826744375,
            "value": 0.1180419921875
          },
          {
            "ticks": 187720,
            "time": 200.5557460833333,
            "value": 0.119140625
          },
          {
            "ticks": 187728,
            "time": 200.56429310000001,
            "value": 0.1202392578125
          },
          {
            "ticks": 187735,
            "time": 200.5717717395833,
            "value": 0.1214599609375
          },
          {
            "ticks": 187743,
            "time": 200.58031875625,
            "value": 0.12255859375
          },
          {
            "ticks": 187750,
            "time": 200.58779739583332,
            "value": 0.1236572265625
          },
          {
            "ticks": 187758,
            "time": 200.5963444125,
            "value": 0.124755859375
          },
          {
            "ticks": 187765,
            "time": 200.6038230520833,
            "value": 0.1259765625
          },
          {
            "ticks": 187773,
            "time": 200.61237006875,
            "value": 0.1270751953125
          },
          {
            "ticks": 187780,
            "time": 200.6198487083333,
            "value": 0.128173828125
          },
          {
            "ticks": 187788,
            "time": 200.628395725,
            "value": 0.1292724609375
          },
          {
            "ticks": 187795,
            "time": 200.63587436458332,
            "value": 0.13037109375
          },
          {
            "ticks": 187803,
            "time": 200.64442138125,
            "value": 0.131591796875
          },
          {
            "ticks": 187810,
            "time": 200.65190002083332,
            "value": 0.1326904296875
          },
          {
            "ticks": 187818,
            "time": 200.6604470375,
            "value": 0.1337890625
          },
          {
            "ticks": 187825,
            "time": 200.6679256770833,
            "value": 0.1348876953125
          },
          {
            "ticks": 187833,
            "time": 200.67647269375001,
            "value": 0.1361083984375
          },
          {
            "ticks": 187840,
            "time": 200.6839513333333,
            "value": 0.13720703125
          },
          {
            "ticks": 187848,
            "time": 200.69249835,
            "value": 0.1383056640625
          },
          {
            "ticks": 187855,
            "time": 200.69997698958332,
            "value": 0.139404296875
          },
          {
            "ticks": 187863,
            "time": 200.70852400625,
            "value": 0.1405029296875
          },
          {
            "ticks": 187870,
            "time": 200.7160026458333,
            "value": 0.1417236328125
          },
          {
            "ticks": 187878,
            "time": 200.7245496625,
            "value": 0.142822265625
          },
          {
            "ticks": 187885,
            "time": 200.7320283020833,
            "value": 0.1439208984375
          },
          {
            "ticks": 187893,
            "time": 200.74057531875,
            "value": 0.14501953125
          },
          {
            "ticks": 187900,
            "time": 200.74805395833332,
            "value": 0.1461181640625
          },
          {
            "ticks": 187908,
            "time": 200.756600975,
            "value": 0.1473388671875
          },
          {
            "ticks": 187915,
            "time": 200.76407961458332,
            "value": 0.1484375
          },
          {
            "ticks": 187923,
            "time": 200.77262663125,
            "value": 0.1495361328125
          },
          {
            "ticks": 187930,
            "time": 200.7801052708333,
            "value": 0.150634765625
          },
          {
            "ticks": 187938,
            "time": 200.7886522875,
            "value": 0.15185546875
          },
          {
            "ticks": 187945,
            "time": 200.7961309270833,
            "value": 0.1529541015625
          },
          {
            "ticks": 187953,
            "time": 200.80467794375,
            "value": 0.154052734375
          },
          {
            "ticks": 187960,
            "time": 200.81215658333332,
            "value": 0.1551513671875
          },
          {
            "ticks": 187968,
            "time": 200.8207036,
            "value": 0.15625
          },
          {
            "ticks": 187975,
            "time": 200.8281822395833,
            "value": 0.157470703125
          },
          {
            "ticks": 187983,
            "time": 200.83672925625,
            "value": 0.1585693359375
          },
          {
            "ticks": 187990,
            "time": 200.8442078958333,
            "value": 0.15966796875
          },
          {
            "ticks": 187998,
            "time": 200.8527549125,
            "value": 0.1607666015625
          },
          {
            "ticks": 188005,
            "time": 200.86023355208332,
            "value": 0.161865234375
          },
          {
            "ticks": 188013,
            "time": 200.86878056875,
            "value": 0.1630859375
          },
          {
            "ticks": 188020,
            "time": 200.87625920833332,
            "value": 0.1641845703125
          },
          {
            "ticks": 188028,
            "time": 200.884806225,
            "value": 0.165283203125
          },
          {
            "ticks": 188035,
            "time": 200.8922848645833,
            "value": 0.1663818359375
          },
          {
            "ticks": 188043,
            "time": 200.90083188125,
            "value": 0.1676025390625
          },
          {
            "ticks": 188050,
            "time": 200.9083105208333,
            "value": 0.168701171875
          },
          {
            "ticks": 188058,
            "time": 200.9168575375,
            "value": 0.1697998046875
          },
          {
            "ticks": 188065,
            "time": 200.92433617708332,
            "value": 0.1708984375
          },
          {
            "ticks": 188073,
            "time": 200.93288319375,
            "value": 0.1719970703125
          },
          {
            "ticks": 188080,
            "time": 200.9403618333333,
            "value": 0.1732177734375
          },
          {
            "ticks": 188088,
            "time": 200.94890885,
            "value": 0.17431640625
          },
          {
            "ticks": 188095,
            "time": 200.9563874895833,
            "value": 0.1754150390625
          },
          {
            "ticks": 188103,
            "time": 200.96493450625,
            "value": 0.176513671875
          },
          {
            "ticks": 188110,
            "time": 200.97241314583331,
            "value": 0.1776123046875
          },
          {
            "ticks": 188118,
            "time": 200.9809601625,
            "value": 0.1788330078125
          },
          {
            "ticks": 188125,
            "time": 200.98843880208332,
            "value": 0.179931640625
          },
          {
            "ticks": 188133,
            "time": 200.99698581875,
            "value": 0.1810302734375
          },
          {
            "ticks": 188140,
            "time": 201.0044644583333,
            "value": 0.18212890625
          },
          {
            "ticks": 188148,
            "time": 201.013011475,
            "value": 0.183349609375
          },
          {
            "ticks": 188155,
            "time": 201.0204901145833,
            "value": 0.1844482421875
          },
          {
            "ticks": 188163,
            "time": 201.02903713125,
            "value": 0.185546875
          },
          {
            "ticks": 188170,
            "time": 201.03651577083332,
            "value": 0.1866455078125
          },
          {
            "ticks": 188178,
            "time": 201.0450627875,
            "value": 0.187744140625
          },
          {
            "ticks": 188185,
            "time": 201.0525414270833,
            "value": 0.18896484375
          },
          {
            "ticks": 188193,
            "time": 201.06108844375,
            "value": 0.1900634765625
          },
          {
            "ticks": 188200,
            "time": 201.0685670833333,
            "value": 0.191162109375
          },
          {
            "ticks": 188208,
            "time": 201.0771141,
            "value": 0.1922607421875
          },
          {
            "ticks": 188215,
            "time": 201.08459273958331,
            "value": 0.193359375
          },
          {
            "ticks": 188223,
            "time": 201.09313975625,
            "value": 0.194580078125
          },
          {
            "ticks": 188230,
            "time": 201.10061839583332,
            "value": 0.1956787109375
          },
          {
            "ticks": 188238,
            "time": 201.1091654125,
            "value": 0.19677734375
          },
          {
            "ticks": 188245,
            "time": 201.1166440520833,
            "value": 0.1978759765625
          },
          {
            "ticks": 188253,
            "time": 201.12519106875,
            "value": 0.1990966796875
          },
          {
            "ticks": 188260,
            "time": 201.1326697083333,
            "value": 0.2001953125
          },
          {
            "ticks": 188268,
            "time": 201.141216725,
            "value": 0.2012939453125
          },
          {
            "ticks": 188275,
            "time": 201.14869536458332,
            "value": 0.202392578125
          },
          {
            "ticks": 188283,
            "time": 201.15724238125,
            "value": 0.2034912109375
          },
          {
            "ticks": 188290,
            "time": 201.16472102083333,
            "value": 0.2047119140625
          },
          {
            "ticks": 188298,
            "time": 201.1732680375,
            "value": 0.205810546875
          },
          {
            "ticks": 188305,
            "time": 201.1807466770833,
            "value": 0.2069091796875
          },
          {
            "ticks": 188313,
            "time": 201.18929369375,
            "value": 0.2080078125
          },
          {
            "ticks": 188320,
            "time": 201.1967723333333,
            "value": 0.2091064453125
          },
          {
            "ticks": 188328,
            "time": 201.20531935,
            "value": 0.2103271484375
          },
          {
            "ticks": 188335,
            "time": 201.21279798958332,
            "value": 0.21142578125
          },
          {
            "ticks": 188343,
            "time": 201.22134500625,
            "value": 0.2125244140625
          },
          {
            "ticks": 188350,
            "time": 201.2288236458333,
            "value": 0.213623046875
          },
          {
            "ticks": 188358,
            "time": 201.2373706625,
            "value": 0.21484375
          },
          {
            "ticks": 188365,
            "time": 201.2448493020833,
            "value": 0.2159423828125
          },
          {
            "ticks": 188373,
            "time": 201.25339631875,
            "value": 0.217041015625
          },
          {
            "ticks": 188380,
            "time": 201.26087495833332,
            "value": 0.2181396484375
          },
          {
            "ticks": 188388,
            "time": 201.269421975,
            "value": 0.21923828125
          },
          {
            "ticks": 188395,
            "time": 201.27690061458333,
            "value": 0.220458984375
          },
          {
            "ticks": 188403,
            "time": 201.28544763125,
            "value": 0.2215576171875
          },
          {
            "ticks": 188410,
            "time": 201.2929262708333,
            "value": 0.22265625
          },
          {
            "ticks": 188418,
            "time": 201.3014732875,
            "value": 0.2237548828125
          },
          {
            "ticks": 188425,
            "time": 201.3089519270833,
            "value": 0.224853515625
          },
          {
            "ticks": 188433,
            "time": 201.31749894375,
            "value": 0.22607421875
          },
          {
            "ticks": 188440,
            "time": 201.32497758333332,
            "value": 0.2271728515625
          },
          {
            "ticks": 188448,
            "time": 201.3335246,
            "value": 0.228271484375
          },
          {
            "ticks": 188455,
            "time": 201.3410032395833,
            "value": 0.2293701171875
          },
          {
            "ticks": 188463,
            "time": 201.34955025625,
            "value": 0.2305908203125
          },
          {
            "ticks": 188470,
            "time": 201.3570288958333,
            "value": 0.231689453125
          },
          {
            "ticks": 188478,
            "time": 201.3655759125,
            "value": 0.2327880859375
          },
          {
            "ticks": 188485,
            "time": 201.37305455208332,
            "value": 0.23388671875
          },
          {
            "ticks": 188493,
            "time": 201.38160156875,
            "value": 0.2349853515625
          },
          {
            "ticks": 188500,
            "time": 201.38908020833333,
            "value": 0.2362060546875
          },
          {
            "ticks": 188508,
            "time": 201.397627225,
            "value": 0.2373046875
          },
          {
            "ticks": 188515,
            "time": 201.4051058645833,
            "value": 0.2384033203125
          },
          {
            "ticks": 188523,
            "time": 201.41365288125,
            "value": 0.239501953125
          },
          {
            "ticks": 188530,
            "time": 201.4211315208333,
            "value": 0.2406005859375
          },
          {
            "ticks": 188538,
            "time": 201.4296785375,
            "value": 0.2418212890625
          },
          {
            "ticks": 188545,
            "time": 201.43715717708332,
            "value": 0.242919921875
          },
          {
            "ticks": 188553,
            "time": 201.44570419375,
            "value": 0.2440185546875
          },
          {
            "ticks": 188560,
            "time": 201.4531828333333,
            "value": 0.2451171875
          },
          {
            "ticks": 188568,
            "time": 201.46172985,
            "value": 0.246337890625
          },
          {
            "ticks": 188575,
            "time": 201.4692084895833,
            "value": 0.2474365234375
          },
          {
            "ticks": 188583,
            "time": 201.47775550625,
            "value": 0.24853515625
          },
          {
            "ticks": 188590,
            "time": 201.48523414583332,
            "value": 0.2496337890625
          },
          {
            "ticks": 188598,
            "time": 201.4937811625,
            "value": 0.250732421875
          },
          {
            "ticks": 188605,
            "time": 201.50125980208333,
            "value": 0.251953125
          },
          {
            "ticks": 188613,
            "time": 201.50980681875,
            "value": 0.2530517578125
          },
          {
            "ticks": 188620,
            "time": 201.5172854583333,
            "value": 0.254150390625
          },
          {
            "ticks": 188628,
            "time": 201.525832475,
            "value": 0.2552490234375
          },
          {
            "ticks": 188635,
            "time": 201.5333111145833,
            "value": 0.25634765625
          },
          {
            "ticks": 188643,
            "time": 201.54185813125,
            "value": 0.257568359375
          },
          {
            "ticks": 188650,
            "time": 201.54933677083332,
            "value": 0.2586669921875
          },
          {
            "ticks": 188658,
            "time": 201.5578837875,
            "value": 0.259765625
          },
          {
            "ticks": 188664,
            "time": 201.56429405,
            "value": 0.2608642578125
          },
          {
            "ticks": 188670,
            "time": 201.5707043125,
            "value": 0.26171875
          },
          {
            "ticks": 188678,
            "time": 201.57925132916665,
            "value": 0.3077392578125
          },
          {
            "ticks": 188685,
            "time": 201.58672996874998,
            "value": 0.353759765625
          },
          {
            "ticks": 188693,
            "time": 201.59527698541666,
            "value": 0.3997802734375
          },
          {
            "ticks": 188700,
            "time": 201.602755625,
            "value": 0.44580078125
          },
          {
            "ticks": 188705,
            "time": 201.60809751041666,
            "value": 0.4765625
          },
          {
            "ticks": 188713,
            "time": 201.61664452708334,
            "value": 0.478759765625
          },
          {
            "ticks": 188720,
            "time": 201.62412316666666,
            "value": 0.48095703125
          },
          {
            "ticks": 188728,
            "time": 201.63267018333332,
            "value": 0.483154296875
          },
          {
            "ticks": 188735,
            "time": 201.64014882291667,
            "value": 0.4853515625
          },
          {
            "ticks": 188743,
            "time": 201.64869583958333,
            "value": 0.487548828125
          },
          {
            "ticks": 188745,
            "time": 201.65083259374998,
            "value": 0.48828125
          },
          {
            "ticks": 188753,
            "time": 201.65937961041664,
            "value": 0.490234375
          },
          {
            "ticks": 188760,
            "time": 201.66685825,
            "value": 0.4921875
          },
          {
            "ticks": 188768,
            "time": 201.67540526666664,
            "value": 0.494140625
          },
          {
            "ticks": 188775,
            "time": 201.68288390625,
            "value": 0.49609375
          },
          {
            "ticks": 188783,
            "time": 201.69143092291665,
            "value": 0.498046875
          },
          {
            "ticks": 188790,
            "time": 201.69890956249998,
            "value": 0.5
          },
          {
            "ticks": 188798,
            "time": 201.70745657916666,
            "value": 0.49560546875
          },
          {
            "ticks": 188805,
            "time": 201.71493521874999,
            "value": 0.4912109375
          },
          {
            "ticks": 188810,
            "time": 201.72027710416666,
            "value": 0.48828125
          },
          {
            "ticks": 188818,
            "time": 201.72882412083334,
            "value": 0.355224609375
          },
          {
            "ticks": 188825,
            "time": 201.73630276041666,
            "value": 0.2220458984375
          },
          {
            "ticks": 188833,
            "time": 201.74484977708332,
            "value": 0.0888671875
          },
          {
            "ticks": 188838,
            "time": 201.7501916625,
            "value": 0
          },
          {
            "ticks": 188845,
            "time": 201.7576703020833,
            "value": 0.000244140625
          },
          {
            "ticks": 188853,
            "time": 201.76621731875,
            "value": 0.0006103515625
          },
          {
            "ticks": 188860,
            "time": 201.77369595833332,
            "value": 0.0009765625
          },
          {
            "ticks": 188868,
            "time": 201.782242975,
            "value": 0.0013427734375
          },
          {
            "ticks": 188875,
            "time": 201.7897216145833,
            "value": 0.001708984375
          },
          {
            "ticks": 188883,
            "time": 201.79826863125,
            "value": 0.0020751953125
          },
          {
            "ticks": 188890,
            "time": 201.8057472708333,
            "value": 0.0023193359375
          },
          {
            "ticks": 188898,
            "time": 201.8142942875,
            "value": 0.002685546875
          },
          {
            "ticks": 188905,
            "time": 201.82177292708332,
            "value": 0.0030517578125
          },
          {
            "ticks": 188913,
            "time": 201.83031994375,
            "value": 0.00341796875
          },
          {
            "ticks": 188920,
            "time": 201.83779858333332,
            "value": 0.0037841796875
          },
          {
            "ticks": 188928,
            "time": 201.8463456,
            "value": 0.004150390625
          },
          {
            "ticks": 188935,
            "time": 201.8538242395833,
            "value": 0.0045166015625
          },
          {
            "ticks": 188943,
            "time": 201.86237125625001,
            "value": 0.0047607421875
          },
          {
            "ticks": 188950,
            "time": 201.8698498958333,
            "value": 0.005126953125
          },
          {
            "ticks": 188958,
            "time": 201.8783969125,
            "value": 0.0054931640625
          },
          {
            "ticks": 188965,
            "time": 201.88587555208332,
            "value": 0.005859375
          },
          {
            "ticks": 188973,
            "time": 201.89442256875,
            "value": 0.0062255859375
          },
          {
            "ticks": 188980,
            "time": 201.9019012083333,
            "value": 0.006591796875
          },
          {
            "ticks": 188988,
            "time": 201.910448225,
            "value": 0.0069580078125
          },
          {
            "ticks": 188995,
            "time": 201.9179268645833,
            "value": 0.0072021484375
          },
          {
            "ticks": 189003,
            "time": 201.92647388125,
            "value": 0.007568359375
          },
          {
            "ticks": 189010,
            "time": 201.93395252083332,
            "value": 0.0079345703125
          },
          {
            "ticks": 189018,
            "time": 201.9424995375,
            "value": 0.00830078125
          },
          {
            "ticks": 189025,
            "time": 201.94997817708332,
            "value": 0.0086669921875
          },
          {
            "ticks": 189033,
            "time": 201.95852519375,
            "value": 0.009033203125
          },
          {
            "ticks": 189040,
            "time": 201.9660038333333,
            "value": 0.0093994140625
          },
          {
            "ticks": 189048,
            "time": 201.97455085,
            "value": 0.0096435546875
          },
          {
            "ticks": 189055,
            "time": 201.9820294895833,
            "value": 0.010009765625
          },
          {
            "ticks": 189063,
            "time": 201.99057650625,
            "value": 0.0103759765625
          },
          {
            "ticks": 189070,
            "time": 201.99805514583332,
            "value": 0.0107421875
          },
          {
            "ticks": 189078,
            "time": 202.0066021625,
            "value": 0.0111083984375
          },
          {
            "ticks": 189085,
            "time": 202.0140808020833,
            "value": 0.011474609375
          },
          {
            "ticks": 189093,
            "time": 202.02262781875,
            "value": 0.0118408203125
          },
          {
            "ticks": 189100,
            "time": 202.0301064583333,
            "value": 0.0120849609375
          },
          {
            "ticks": 189108,
            "time": 202.038653475,
            "value": 0.012451171875
          },
          {
            "ticks": 189115,
            "time": 202.04613211458332,
            "value": 0.0128173828125
          },
          {
            "ticks": 189123,
            "time": 202.05467913125,
            "value": 0.01318359375
          },
          {
            "ticks": 189130,
            "time": 202.06215777083332,
            "value": 0.0135498046875
          },
          {
            "ticks": 189138,
            "time": 202.0707047875,
            "value": 0.013916015625
          },
          {
            "ticks": 189145,
            "time": 202.0781834270833,
            "value": 0.0142822265625
          },
          {
            "ticks": 189153,
            "time": 202.08673044375,
            "value": 0.0145263671875
          },
          {
            "ticks": 189160,
            "time": 202.0942090833333,
            "value": 0.014892578125
          },
          {
            "ticks": 189168,
            "time": 202.1027561,
            "value": 0.0152587890625
          },
          {
            "ticks": 189175,
            "time": 202.11023473958332,
            "value": 0.015625
          },
          {
            "ticks": 189183,
            "time": 202.11878175625,
            "value": 0.0159912109375
          },
          {
            "ticks": 189190,
            "time": 202.1262603958333,
            "value": 0.016357421875
          },
          {
            "ticks": 189198,
            "time": 202.1348074125,
            "value": 0.0167236328125
          },
          {
            "ticks": 189205,
            "time": 202.1422860520833,
            "value": 0.0169677734375
          },
          {
            "ticks": 189213,
            "time": 202.15083306875,
            "value": 0.017333984375
          },
          {
            "ticks": 189220,
            "time": 202.15831170833331,
            "value": 0.0177001953125
          },
          {
            "ticks": 189228,
            "time": 202.166858725,
            "value": 0.01806640625
          },
          {
            "ticks": 189235,
            "time": 202.17433736458332,
            "value": 0.0184326171875
          },
          {
            "ticks": 189243,
            "time": 202.18288438125,
            "value": 0.018798828125
          },
          {
            "ticks": 189250,
            "time": 202.1903630208333,
            "value": 0.0191650390625
          },
          {
            "ticks": 189258,
            "time": 202.1989100375,
            "value": 0.0194091796875
          },
          {
            "ticks": 189265,
            "time": 202.2063886770833,
            "value": 0.019775390625
          },
          {
            "ticks": 189273,
            "time": 202.21493569375,
            "value": 0.0201416015625
          },
          {
            "ticks": 189280,
            "time": 202.22241433333332,
            "value": 0.0205078125
          },
          {
            "ticks": 189288,
            "time": 202.23096135,
            "value": 0.0208740234375
          },
          {
            "ticks": 189295,
            "time": 202.2384399895833,
            "value": 0.021240234375
          },
          {
            "ticks": 189303,
            "time": 202.24698700625,
            "value": 0.0216064453125
          },
          {
            "ticks": 189310,
            "time": 202.2544656458333,
            "value": 0.0218505859375
          },
          {
            "ticks": 189318,
            "time": 202.2630126625,
            "value": 0.022216796875
          },
          {
            "ticks": 189325,
            "time": 202.27049130208331,
            "value": 0.0225830078125
          },
          {
            "ticks": 189333,
            "time": 202.27903831875,
            "value": 0.02294921875
          },
          {
            "ticks": 189340,
            "time": 202.28651695833332,
            "value": 0.0233154296875
          },
          {
            "ticks": 189348,
            "time": 202.295063975,
            "value": 0.023681640625
          },
          {
            "ticks": 189355,
            "time": 202.3025426145833,
            "value": 0.0240478515625
          },
          {
            "ticks": 189363,
            "time": 202.31108963125,
            "value": 0.0242919921875
          },
          {
            "ticks": 189370,
            "time": 202.3185682708333,
            "value": 0.024658203125
          },
          {
            "ticks": 189378,
            "time": 202.3271152875,
            "value": 0.0250244140625
          },
          {
            "ticks": 189385,
            "time": 202.33459392708332,
            "value": 0.025390625
          },
          {
            "ticks": 189393,
            "time": 202.34314094375,
            "value": 0.0257568359375
          },
          {
            "ticks": 189400,
            "time": 202.3506195833333,
            "value": 0.026123046875
          },
          {
            "ticks": 189408,
            "time": 202.3591666,
            "value": 0.0264892578125
          },
          {
            "ticks": 189415,
            "time": 202.3666452395833,
            "value": 0.0267333984375
          },
          {
            "ticks": 189423,
            "time": 202.37519225625,
            "value": 0.027099609375
          },
          {
            "ticks": 189430,
            "time": 202.38267089583331,
            "value": 0.0274658203125
          },
          {
            "ticks": 189438,
            "time": 202.3912179125,
            "value": 0.02783203125
          },
          {
            "ticks": 189445,
            "time": 202.39869655208332,
            "value": 0.0281982421875
          },
          {
            "ticks": 189453,
            "time": 202.40724356875,
            "value": 0.028564453125
          },
          {
            "ticks": 189460,
            "time": 202.4147222083333,
            "value": 0.0289306640625
          },
          {
            "ticks": 189468,
            "time": 202.423269225,
            "value": 0.0291748046875
          },
          {
            "ticks": 189475,
            "time": 202.4307478645833,
            "value": 0.029541015625
          },
          {
            "ticks": 189483,
            "time": 202.43929488125,
            "value": 0.0299072265625
          },
          {
            "ticks": 189490,
            "time": 202.44677352083332,
            "value": 0.0302734375
          },
          {
            "ticks": 189498,
            "time": 202.4553205375,
            "value": 0.0306396484375
          },
          {
            "ticks": 189505,
            "time": 202.46279917708333,
            "value": 0.031005859375
          },
          {
            "ticks": 189513,
            "time": 202.47134619375,
            "value": 0.0313720703125
          },
          {
            "ticks": 189520,
            "time": 202.4788248333333,
            "value": 0.0316162109375
          },
          {
            "ticks": 189528,
            "time": 202.48737185,
            "value": 0.031982421875
          },
          {
            "ticks": 189535,
            "time": 202.4948504895833,
            "value": 0.0323486328125
          },
          {
            "ticks": 189543,
            "time": 202.50339750625,
            "value": 0.03271484375
          },
          {
            "ticks": 189550,
            "time": 202.51087614583332,
            "value": 0.0330810546875
          },
          {
            "ticks": 189558,
            "time": 202.5194231625,
            "value": 0.033447265625
          },
          {
            "ticks": 189565,
            "time": 202.5269018020833,
            "value": 0.0338134765625
          },
          {
            "ticks": 189573,
            "time": 202.53544881875,
            "value": 0.0340576171875
          },
          {
            "ticks": 189580,
            "time": 202.5429274583333,
            "value": 0.034423828125
          },
          {
            "ticks": 189588,
            "time": 202.551474475,
            "value": 0.0347900390625
          },
          {
            "ticks": 189595,
            "time": 202.55895311458332,
            "value": 0.03515625
          },
          {
            "ticks": 189603,
            "time": 202.56750013125,
            "value": 0.0355224609375
          },
          {
            "ticks": 189610,
            "time": 202.57497877083333,
            "value": 0.035888671875
          },
          {
            "ticks": 189618,
            "time": 202.5835257875,
            "value": 0.0362548828125
          },
          {
            "ticks": 189625,
            "time": 202.5910044270833,
            "value": 0.0364990234375
          },
          {
            "ticks": 189633,
            "time": 202.59955144375,
            "value": 0.036865234375
          },
          {
            "ticks": 189640,
            "time": 202.6070300833333,
            "value": 0.0372314453125
          },
          {
            "ticks": 189648,
            "time": 202.6155771,
            "value": 0.03759765625
          },
          {
            "ticks": 189655,
            "time": 202.62305573958332,
            "value": 0.0379638671875
          },
          {
            "ticks": 189663,
            "time": 202.63160275625,
            "value": 0.038330078125
          },
          {
            "ticks": 189670,
            "time": 202.6390813958333,
            "value": 0.0386962890625
          },
          {
            "ticks": 189678,
            "time": 202.6476284125,
            "value": 0.0389404296875
          },
          {
            "ticks": 189685,
            "time": 202.6551070520833,
            "value": 0.039306640625
          },
          {
            "ticks": 189693,
            "time": 202.66365406875,
            "value": 0.0396728515625
          },
          {
            "ticks": 189700,
            "time": 202.67113270833332,
            "value": 0.0400390625
          },
          {
            "ticks": 189708,
            "time": 202.679679725,
            "value": 0.0404052734375
          },
          {
            "ticks": 189715,
            "time": 202.68715836458333,
            "value": 0.040771484375
          },
          {
            "ticks": 189723,
            "time": 202.69570538125,
            "value": 0.0411376953125
          },
          {
            "ticks": 189730,
            "time": 202.7031840208333,
            "value": 0.0413818359375
          },
          {
            "ticks": 189738,
            "time": 202.7117310375,
            "value": 0.041748046875
          },
          {
            "ticks": 189745,
            "time": 202.7192096770833,
            "value": 0.0421142578125
          },
          {
            "ticks": 189753,
            "time": 202.72775669375,
            "value": 0.04248046875
          },
          {
            "ticks": 189760,
            "time": 202.73523533333332,
            "value": 0.0428466796875
          },
          {
            "ticks": 189768,
            "time": 202.74378235,
            "value": 0.043212890625
          },
          {
            "ticks": 189775,
            "time": 202.7512609895833,
            "value": 0.0435791015625
          },
          {
            "ticks": 189783,
            "time": 202.75980800625,
            "value": 0.0438232421875
          },
          {
            "ticks": 189790,
            "time": 202.7672866458333,
            "value": 0.044189453125
          },
          {
            "ticks": 189798,
            "time": 202.7758336625,
            "value": 0.0445556640625
          },
          {
            "ticks": 189805,
            "time": 202.78331230208332,
            "value": 0.044921875
          },
          {
            "ticks": 189813,
            "time": 202.79185931875,
            "value": 0.0452880859375
          },
          {
            "ticks": 189820,
            "time": 202.79933795833333,
            "value": 0.045654296875
          },
          {
            "ticks": 189828,
            "time": 202.807884975,
            "value": 0.0460205078125
          },
          {
            "ticks": 189835,
            "time": 202.8153636145833,
            "value": 0.0462646484375
          },
          {
            "ticks": 189843,
            "time": 202.82391063125,
            "value": 0.046630859375
          },
          {
            "ticks": 189850,
            "time": 202.8313892708333,
            "value": 0.0469970703125
          },
          {
            "ticks": 189858,
            "time": 202.8399362875,
            "value": 0.04736328125
          },
          {
            "ticks": 189865,
            "time": 202.84741492708332,
            "value": 0.0477294921875
          },
          {
            "ticks": 189873,
            "time": 202.85596194375,
            "value": 0.048095703125
          },
          {
            "ticks": 189880,
            "time": 202.8634405833333,
            "value": 0.0484619140625
          },
          {
            "ticks": 189888,
            "time": 202.8719876,
            "value": 0.0487060546875
          },
          {
            "ticks": 189895,
            "time": 202.8794662395833,
            "value": 0.049072265625
          },
          {
            "ticks": 189903,
            "time": 202.88801325625,
            "value": 0.0494384765625
          },
          {
            "ticks": 189910,
            "time": 202.89549189583332,
            "value": 0.0498046875
          },
          {
            "ticks": 189918,
            "time": 202.9040389125,
            "value": 0.0501708984375
          },
          {
            "ticks": 189925,
            "time": 202.91151755208332,
            "value": 0.050537109375
          },
          {
            "ticks": 189933,
            "time": 202.92006456875,
            "value": 0.05078125
          },
          {
            "ticks": 189940,
            "time": 202.9275432083333,
            "value": 0.0511474609375
          },
          {
            "ticks": 189948,
            "time": 202.936090225,
            "value": 0.051513671875
          },
          {
            "ticks": 189955,
            "time": 202.9435688645833,
            "value": 0.0518798828125
          },
          {
            "ticks": 189963,
            "time": 202.95211588125,
            "value": 0.05224609375
          },
          {
            "ticks": 189970,
            "time": 202.95959452083332,
            "value": 0.0526123046875
          },
          {
            "ticks": 189978,
            "time": 202.9681415375,
            "value": 0.052978515625
          },
          {
            "ticks": 189985,
            "time": 202.9756201770833,
            "value": 0.05322265625
          },
          {
            "ticks": 189993,
            "time": 202.98416719375,
            "value": 0.0535888671875
          },
          {
            "ticks": 190000,
            "time": 202.9916458333333,
            "value": 0.053955078125
          },
          {
            "ticks": 190008,
            "time": 203.00019285,
            "value": 0.0543212890625
          },
          {
            "ticks": 190015,
            "time": 203.00767148958332,
            "value": 0.0546875
          },
          {
            "ticks": 190023,
            "time": 203.01621850625,
            "value": 0.0550537109375
          },
          {
            "ticks": 190030,
            "time": 203.02369714583332,
            "value": 0.055419921875
          },
          {
            "ticks": 190038,
            "time": 203.0322441625,
            "value": 0.0556640625
          },
          {
            "ticks": 190045,
            "time": 203.0397228020833,
            "value": 0.0560302734375
          },
          {
            "ticks": 190053,
            "time": 203.04826981875,
            "value": 0.056396484375
          },
          {
            "ticks": 190060,
            "time": 203.0557484583333,
            "value": 0.0567626953125
          },
          {
            "ticks": 190068,
            "time": 203.064295475,
            "value": 0.05712890625
          },
          {
            "ticks": 190075,
            "time": 203.07177411458332,
            "value": 0.0574951171875
          },
          {
            "ticks": 190083,
            "time": 203.08032113125,
            "value": 0.057861328125
          },
          {
            "ticks": 190090,
            "time": 203.0877997708333,
            "value": 0.05810546875
          },
          {
            "ticks": 190098,
            "time": 203.0963467875,
            "value": 0.0584716796875
          },
          {
            "ticks": 190105,
            "time": 203.1038254270833,
            "value": 0.058837890625
          },
          {
            "ticks": 190113,
            "time": 203.11237244375,
            "value": 0.0592041015625
          },
          {
            "ticks": 190120,
            "time": 203.11985108333332,
            "value": 0.0595703125
          },
          {
            "ticks": 190128,
            "time": 203.1283981,
            "value": 0.0599365234375
          },
          {
            "ticks": 190135,
            "time": 203.13587673958332,
            "value": 0.060302734375
          },
          {
            "ticks": 190143,
            "time": 203.14442375625,
            "value": 0.060546875
          },
          {
            "ticks": 190150,
            "time": 203.1519023958333,
            "value": 0.0609130859375
          },
          {
            "ticks": 190158,
            "time": 203.16044941250001,
            "value": 0.061279296875
          },
          {
            "ticks": 190165,
            "time": 203.1679280520833,
            "value": 0.0616455078125
          },
          {
            "ticks": 190173,
            "time": 203.17647506875,
            "value": 0.06201171875
          },
          {
            "ticks": 190180,
            "time": 203.18395370833332,
            "value": 0.0623779296875
          },
          {
            "ticks": 190188,
            "time": 203.192500725,
            "value": 0.062744140625
          },
          {
            "ticks": 190195,
            "time": 203.1999793645833,
            "value": 0.06298828125
          },
          {
            "ticks": 190203,
            "time": 203.20852638125,
            "value": 0.0633544921875
          },
          {
            "ticks": 190210,
            "time": 203.2160050208333,
            "value": 0.063720703125
          },
          {
            "ticks": 190218,
            "time": 203.2245520375,
            "value": 0.0640869140625
          },
          {
            "ticks": 190225,
            "time": 203.23203067708332,
            "value": 0.064453125
          },
          {
            "ticks": 190233,
            "time": 203.24057769375,
            "value": 0.0648193359375
          },
          {
            "ticks": 190240,
            "time": 203.24805633333332,
            "value": 0.065185546875
          },
          {
            "ticks": 190248,
            "time": 203.25660335,
            "value": 0.0654296875
          },
          {
            "ticks": 190254,
            "time": 203.2630136125,
            "value": 0.0657958984375
          },
          {
            "ticks": 190263,
            "time": 203.27262900625,
            "value": 0.066162109375
          },
          {
            "ticks": 190270,
            "time": 203.2801076458333,
            "value": 0.0665283203125
          },
          {
            "ticks": 190278,
            "time": 203.2886546625,
            "value": 0.06689453125
          },
          {
            "ticks": 190285,
            "time": 203.29613330208332,
            "value": 0.0672607421875
          },
          {
            "ticks": 190293,
            "time": 203.30468031875,
            "value": 0.067626953125
          },
          {
            "ticks": 190300,
            "time": 203.3121589583333,
            "value": 0.06787109375
          },
          {
            "ticks": 190308,
            "time": 203.320705975,
            "value": 0.0682373046875
          },
          {
            "ticks": 190315,
            "time": 203.3281846145833,
            "value": 0.068603515625
          },
          {
            "ticks": 190323,
            "time": 203.33673163125,
            "value": 0.0689697265625
          },
          {
            "ticks": 190330,
            "time": 203.34421027083332,
            "value": 0.0693359375
          },
          {
            "ticks": 190338,
            "time": 203.3527572875,
            "value": 0.0697021484375
          },
          {
            "ticks": 190345,
            "time": 203.36023592708332,
            "value": 0.070068359375
          },
          {
            "ticks": 190353,
            "time": 203.36878294375,
            "value": 0.0703125
          },
          {
            "ticks": 190360,
            "time": 203.3762615833333,
            "value": 0.0706787109375
          },
          {
            "ticks": 190368,
            "time": 203.3848086,
            "value": 0.071044921875
          },
          {
            "ticks": 190375,
            "time": 203.3922872395833,
            "value": 0.0714111328125
          },
          {
            "ticks": 190383,
            "time": 203.40083425625,
            "value": 0.07177734375
          },
          {
            "ticks": 190390,
            "time": 203.40831289583332,
            "value": 0.0721435546875
          },
          {
            "ticks": 190398,
            "time": 203.4168599125,
            "value": 0.072509765625
          },
          {
            "ticks": 190405,
            "time": 203.4243385520833,
            "value": 0.07275390625
          },
          {
            "ticks": 190413,
            "time": 203.43288556875,
            "value": 0.0731201171875
          },
          {
            "ticks": 190420,
            "time": 203.4403642083333,
            "value": 0.073486328125
          },
          {
            "ticks": 190428,
            "time": 203.448911225,
            "value": 0.0738525390625
          },
          {
            "ticks": 190435,
            "time": 203.45638986458331,
            "value": 0.07421875
          },
          {
            "ticks": 190443,
            "time": 203.46493688125,
            "value": 0.0745849609375
          },
          {
            "ticks": 190450,
            "time": 203.47241552083332,
            "value": 0.074951171875
          },
          {
            "ticks": 190458,
            "time": 203.4809625375,
            "value": 0.0751953125
          },
          {
            "ticks": 190465,
            "time": 203.4884411770833,
            "value": 0.0755615234375
          },
          {
            "ticks": 190473,
            "time": 203.49698819375,
            "value": 0.075927734375
          },
          {
            "ticks": 190480,
            "time": 203.5044668333333,
            "value": 0.0762939453125
          },
          {
            "ticks": 190488,
            "time": 203.51301385,
            "value": 0.07666015625
          },
          {
            "ticks": 190495,
            "time": 203.52049248958332,
            "value": 0.0770263671875
          },
          {
            "ticks": 190503,
            "time": 203.52903950625,
            "value": 0.077392578125
          },
          {
            "ticks": 190510,
            "time": 203.5365181458333,
            "value": 0.07763671875
          },
          {
            "ticks": 190518,
            "time": 203.5450651625,
            "value": 0.0780029296875
          },
          {
            "ticks": 190525,
            "time": 203.5525438020833,
            "value": 0.078369140625
          },
          {
            "ticks": 190533,
            "time": 203.56109081875,
            "value": 0.0787353515625
          },
          {
            "ticks": 190540,
            "time": 203.56856945833331,
            "value": 0.0791015625
          },
          {
            "ticks": 190548,
            "time": 203.577116475,
            "value": 0.0794677734375
          },
          {
            "ticks": 190555,
            "time": 203.58459511458332,
            "value": 0.079833984375
          },
          {
            "ticks": 190563,
            "time": 203.59314213125,
            "value": 0.080078125
          },
          {
            "ticks": 190570,
            "time": 203.6006207708333,
            "value": 0.0804443359375
          },
          {
            "ticks": 190578,
            "time": 203.6091677875,
            "value": 0.080810546875
          },
          {
            "ticks": 190585,
            "time": 203.6166464270833,
            "value": 0.0811767578125
          },
          {
            "ticks": 190593,
            "time": 203.62519344375,
            "value": 0.08154296875
          },
          {
            "ticks": 190600,
            "time": 203.63267208333332,
            "value": 0.0819091796875
          },
          {
            "ticks": 190608,
            "time": 203.6412191,
            "value": 0.082275390625
          },
          {
            "ticks": 190615,
            "time": 203.6486977395833,
            "value": 0.08251953125
          },
          {
            "ticks": 190623,
            "time": 203.65724475625,
            "value": 0.0828857421875
          },
          {
            "ticks": 190630,
            "time": 203.6647233958333,
            "value": 0.083251953125
          },
          {
            "ticks": 190638,
            "time": 203.6732704125,
            "value": 0.0836181640625
          },
          {
            "ticks": 190645,
            "time": 203.6807490520833,
            "value": 0.083984375
          },
          {
            "ticks": 190653,
            "time": 203.68929606875,
            "value": 0.0843505859375
          },
          {
            "ticks": 190660,
            "time": 203.69677470833332,
            "value": 0.084716796875
          },
          {
            "ticks": 190668,
            "time": 203.705321725,
            "value": 0.0849609375
          },
          {
            "ticks": 190675,
            "time": 203.7128003645833,
            "value": 0.0853271484375
          },
          {
            "ticks": 190683,
            "time": 203.72134738125,
            "value": 0.085693359375
          },
          {
            "ticks": 190690,
            "time": 203.7288260208333,
            "value": 0.0860595703125
          },
          {
            "ticks": 190698,
            "time": 203.7373730375,
            "value": 0.08642578125
          },
          {
            "ticks": 190705,
            "time": 203.74485167708332,
            "value": 0.0867919921875
          },
          {
            "ticks": 190713,
            "time": 203.75339869375,
            "value": 0.087158203125
          },
          {
            "ticks": 190720,
            "time": 203.76087733333333,
            "value": 0.08740234375
          },
          {
            "ticks": 190728,
            "time": 203.76942435,
            "value": 0.0877685546875
          },
          {
            "ticks": 190735,
            "time": 203.7769029895833,
            "value": 0.088134765625
          },
          {
            "ticks": 190743,
            "time": 203.78545000625,
            "value": 0.0885009765625
          },
          {
            "ticks": 190750,
            "time": 203.7929286458333,
            "value": 0.0888671875
          },
          {
            "ticks": 190758,
            "time": 203.8014756625,
            "value": 0.0892333984375
          },
          {
            "ticks": 190765,
            "time": 203.80895430208332,
            "value": 0.089599609375
          },
          {
            "ticks": 190773,
            "time": 203.81750131875,
            "value": 0.08984375
          },
          {
            "ticks": 190780,
            "time": 203.8249799583333,
            "value": 0.0902099609375
          },
          {
            "ticks": 190788,
            "time": 203.833526975,
            "value": 0.090576171875
          },
          {
            "ticks": 190795,
            "time": 203.8410056145833,
            "value": 0.0909423828125
          },
          {
            "ticks": 190803,
            "time": 203.84955263125,
            "value": 0.09130859375
          },
          {
            "ticks": 190810,
            "time": 203.85703127083332,
            "value": 0.0916748046875
          },
          {
            "ticks": 190818,
            "time": 203.8655782875,
            "value": 0.092041015625
          },
          {
            "ticks": 190825,
            "time": 203.87305692708333,
            "value": 0.09228515625
          },
          {
            "ticks": 190833,
            "time": 203.88160394375,
            "value": 0.0926513671875
          },
          {
            "ticks": 190840,
            "time": 203.8890825833333,
            "value": 0.093017578125
          },
          {
            "ticks": 190848,
            "time": 203.8976296,
            "value": 0.0933837890625
          },
          {
            "ticks": 190855,
            "time": 203.9051082395833,
            "value": 0.09375
          },
          {
            "ticks": 190863,
            "time": 203.91365525625,
            "value": 0.0941162109375
          },
          {
            "ticks": 190870,
            "time": 203.92113389583332,
            "value": 0.094482421875
          },
          {
            "ticks": 190878,
            "time": 203.9296809125,
            "value": 0.0947265625
          },
          {
            "ticks": 190885,
            "time": 203.9371595520833,
            "value": 0.0950927734375
          },
          {
            "ticks": 190893,
            "time": 203.94570656875,
            "value": 0.095458984375
          },
          {
            "ticks": 190900,
            "time": 203.9531852083333,
            "value": 0.0958251953125
          },
          {
            "ticks": 190908,
            "time": 203.961732225,
            "value": 0.09619140625
          },
          {
            "ticks": 190915,
            "time": 203.96921086458332,
            "value": 0.0965576171875
          },
          {
            "ticks": 190923,
            "time": 203.97775788125,
            "value": 0.096923828125
          },
          {
            "ticks": 190930,
            "time": 203.98523652083333,
            "value": 0.09716796875
          },
          {
            "ticks": 190938,
            "time": 203.9937835375,
            "value": 0.0975341796875
          },
          {
            "ticks": 190945,
            "time": 204.0012621770833,
            "value": 0.097900390625
          },
          {
            "ticks": 190953,
            "time": 204.00980919375,
            "value": 0.0982666015625
          },
          {
            "ticks": 190960,
            "time": 204.0172878333333,
            "value": 0.0986328125
          },
          {
            "ticks": 190968,
            "time": 204.02583485,
            "value": 0.0989990234375
          },
          {
            "ticks": 190975,
            "time": 204.03331348958332,
            "value": 0.0992431640625
          },
          {
            "ticks": 190983,
            "time": 204.04186050625,
            "value": 0.099609375
          },
          {
            "ticks": 190990,
            "time": 204.0493391458333,
            "value": 0.0999755859375
          },
          {
            "ticks": 190998,
            "time": 204.0578861625,
            "value": 0.100341796875
          },
          {
            "ticks": 191005,
            "time": 204.0653648020833,
            "value": 0.1007080078125
          },
          {
            "ticks": 191013,
            "time": 204.07391181875,
            "value": 0.10107421875
          },
          {
            "ticks": 191020,
            "time": 204.08139045833332,
            "value": 0.1014404296875
          },
          {
            "ticks": 191028,
            "time": 204.089937475,
            "value": 0.1016845703125
          },
          {
            "ticks": 191035,
            "time": 204.09741611458332,
            "value": 0.10205078125
          },
          {
            "ticks": 191043,
            "time": 204.10596313125,
            "value": 0.1024169921875
          },
          {
            "ticks": 191050,
            "time": 204.1134417708333,
            "value": 0.102783203125
          },
          {
            "ticks": 191058,
            "time": 204.1219887875,
            "value": 0.1031494140625
          },
          {
            "ticks": 191065,
            "time": 204.1294674270833,
            "value": 0.103515625
          },
          {
            "ticks": 191073,
            "time": 204.13801444375,
            "value": 0.1038818359375
          },
          {
            "ticks": 191080,
            "time": 204.14549308333332,
            "value": 0.1041259765625
          },
          {
            "ticks": 191088,
            "time": 204.1540401,
            "value": 0.1044921875
          },
          {
            "ticks": 191095,
            "time": 204.1615187395833,
            "value": 0.1048583984375
          },
          {
            "ticks": 191103,
            "time": 204.17006575625,
            "value": 0.105224609375
          },
          {
            "ticks": 191110,
            "time": 204.1775443958333,
            "value": 0.1055908203125
          },
          {
            "ticks": 191118,
            "time": 204.1860914125,
            "value": 0.10595703125
          },
          {
            "ticks": 191125,
            "time": 204.19357005208332,
            "value": 0.1063232421875
          },
          {
            "ticks": 191133,
            "time": 204.20211706875,
            "value": 0.1065673828125
          },
          {
            "ticks": 191140,
            "time": 204.20959570833332,
            "value": 0.10693359375
          },
          {
            "ticks": 191148,
            "time": 204.218142725,
            "value": 0.1072998046875
          },
          {
            "ticks": 191155,
            "time": 204.2256213645833,
            "value": 0.107666015625
          },
          {
            "ticks": 191163,
            "time": 204.23416838125,
            "value": 0.1080322265625
          },
          {
            "ticks": 191170,
            "time": 204.2416470208333,
            "value": 0.1083984375
          },
          {
            "ticks": 191178,
            "time": 204.2501940375,
            "value": 0.1087646484375
          },
          {
            "ticks": 191185,
            "time": 204.25767267708332,
            "value": 0.1090087890625
          },
          {
            "ticks": 191193,
            "time": 204.26621969375,
            "value": 0.109375
          },
          {
            "ticks": 191200,
            "time": 204.2736983333333,
            "value": 0.1097412109375
          },
          {
            "ticks": 191208,
            "time": 204.28224535,
            "value": 0.110107421875
          },
          {
            "ticks": 191215,
            "time": 204.2897239895833,
            "value": 0.1104736328125
          },
          {
            "ticks": 191223,
            "time": 204.29827100625,
            "value": 0.11083984375
          },
          {
            "ticks": 191230,
            "time": 204.30574964583332,
            "value": 0.1112060546875
          },
          {
            "ticks": 191238,
            "time": 204.3142966625,
            "value": 0.1114501953125
          },
          {
            "ticks": 191245,
            "time": 204.32177530208332,
            "value": 0.11181640625
          },
          {
            "ticks": 191253,
            "time": 204.33032231875,
            "value": 0.1121826171875
          },
          {
            "ticks": 191260,
            "time": 204.3378009583333,
            "value": 0.112548828125
          },
          {
            "ticks": 191268,
            "time": 204.346347975,
            "value": 0.1129150390625
          },
          {
            "ticks": 191275,
            "time": 204.3538266145833,
            "value": 0.11328125
          },
          {
            "ticks": 191283,
            "time": 204.36237363125,
            "value": 0.1136474609375
          },
          {
            "ticks": 191290,
            "time": 204.36985227083332,
            "value": 0.1138916015625
          },
          {
            "ticks": 191298,
            "time": 204.3783992875,
            "value": 0.1142578125
          },
          {
            "ticks": 191305,
            "time": 204.3858779270833,
            "value": 0.1146240234375
          },
          {
            "ticks": 191313,
            "time": 204.39442494375,
            "value": 0.114990234375
          },
          {
            "ticks": 191320,
            "time": 204.4019035833333,
            "value": 0.1153564453125
          },
          {
            "ticks": 191328,
            "time": 204.4104506,
            "value": 0.11572265625
          },
          {
            "ticks": 191335,
            "time": 204.41792923958332,
            "value": 0.1160888671875
          },
          {
            "ticks": 191343,
            "time": 204.42647625625,
            "value": 0.1163330078125
          },
          {
            "ticks": 191350,
            "time": 204.43395489583332,
            "value": 0.11669921875
          },
          {
            "ticks": 191358,
            "time": 204.4425019125,
            "value": 0.1170654296875
          },
          {
            "ticks": 191365,
            "time": 204.4499805520833,
            "value": 0.117431640625
          },
          {
            "ticks": 191373,
            "time": 204.45852756875001,
            "value": 0.1177978515625
          },
          {
            "ticks": 191380,
            "time": 204.4660062083333,
            "value": 0.1181640625
          },
          {
            "ticks": 191388,
            "time": 204.474553225,
            "value": 0.1185302734375
          },
          {
            "ticks": 191395,
            "time": 204.48203186458332,
            "value": 0.1187744140625
          },
          {
            "ticks": 191403,
            "time": 204.49057888125,
            "value": 0.119140625
          },
          {
            "ticks": 191410,
            "time": 204.4980575208333,
            "value": 0.1195068359375
          },
          {
            "ticks": 191418,
            "time": 204.5066045375,
            "value": 0.119873046875
          },
          {
            "ticks": 191425,
            "time": 204.5140831770833,
            "value": 0.1202392578125
          },
          {
            "ticks": 191433,
            "time": 204.52263019375,
            "value": 0.12060546875
          },
          {
            "ticks": 191440,
            "time": 204.53010883333332,
            "value": 0.1209716796875
          },
          {
            "ticks": 191448,
            "time": 204.53865585,
            "value": 0.1212158203125
          },
          {
            "ticks": 191455,
            "time": 204.54613448958332,
            "value": 0.12158203125
          },
          {
            "ticks": 191463,
            "time": 204.55468150625,
            "value": 0.1219482421875
          },
          {
            "ticks": 191470,
            "time": 204.5621601458333,
            "value": 0.122314453125
          },
          {
            "ticks": 191478,
            "time": 204.5707071625,
            "value": 0.1226806640625
          },
          {
            "ticks": 191485,
            "time": 204.5781858020833,
            "value": 0.123046875
          },
          {
            "ticks": 191493,
            "time": 204.58673281875,
            "value": 0.1234130859375
          },
          {
            "ticks": 191500,
            "time": 204.59421145833332,
            "value": 0.1236572265625
          },
          {
            "ticks": 191508,
            "time": 204.602758475,
            "value": 0.1240234375
          },
          {
            "ticks": 191515,
            "time": 204.6102371145833,
            "value": 0.1243896484375
          },
          {
            "ticks": 191523,
            "time": 204.61878413125,
            "value": 0.124755859375
          },
          {
            "ticks": 191530,
            "time": 204.6262627708333,
            "value": 0.1251220703125
          },
          {
            "ticks": 191538,
            "time": 204.6348097875,
            "value": 0.12548828125
          },
          {
            "ticks": 191545,
            "time": 204.64228842708332,
            "value": 0.1258544921875
          },
          {
            "ticks": 191553,
            "time": 204.65083544375,
            "value": 0.1260986328125
          },
          {
            "ticks": 191560,
            "time": 204.65831408333332,
            "value": 0.12646484375
          },
          {
            "ticks": 191568,
            "time": 204.6668611,
            "value": 0.1268310546875
          },
          {
            "ticks": 191575,
            "time": 204.6743397395833,
            "value": 0.127197265625
          },
          {
            "ticks": 191583,
            "time": 204.68288675625,
            "value": 0.1275634765625
          },
          {
            "ticks": 191590,
            "time": 204.6903653958333,
            "value": 0.1279296875
          },
          {
            "ticks": 191598,
            "time": 204.6989124125,
            "value": 0.1282958984375
          },
          {
            "ticks": 191605,
            "time": 204.70639105208332,
            "value": 0.1285400390625
          },
          {
            "ticks": 191613,
            "time": 204.71493806875,
            "value": 0.12890625
          },
          {
            "ticks": 191620,
            "time": 204.7224167083333,
            "value": 0.1292724609375
          },
          {
            "ticks": 191628,
            "time": 204.730963725,
            "value": 0.129638671875
          },
          {
            "ticks": 191635,
            "time": 204.7384423645833,
            "value": 0.1300048828125
          },
          {
            "ticks": 191643,
            "time": 204.74698938125,
            "value": 0.13037109375
          },
          {
            "ticks": 191650,
            "time": 204.75446802083331,
            "value": 0.1307373046875
          },
          {
            "ticks": 191658,
            "time": 204.7630150375,
            "value": 0.1309814453125
          },
          {
            "ticks": 191665,
            "time": 204.77049367708332,
            "value": 0.13134765625
          },
          {
            "ticks": 191673,
            "time": 204.77904069375,
            "value": 0.1317138671875
          },
          {
            "ticks": 191680,
            "time": 204.7865193333333,
            "value": 0.132080078125
          },
          {
            "ticks": 191688,
            "time": 204.79506635,
            "value": 0.1324462890625
          },
          {
            "ticks": 191695,
            "time": 204.8025449895833,
            "value": 0.1328125
          },
          {
            "ticks": 191703,
            "time": 204.81109200625,
            "value": 0.1331787109375
          },
          {
            "ticks": 191710,
            "time": 204.81857064583332,
            "value": 0.1334228515625
          },
          {
            "ticks": 191718,
            "time": 204.8271176625,
            "value": 0.1337890625
          },
          {
            "ticks": 191725,
            "time": 204.8345963020833,
            "value": 0.1341552734375
          },
          {
            "ticks": 191733,
            "time": 204.84314331875,
            "value": 0.134521484375
          },
          {
            "ticks": 191740,
            "time": 204.8506219583333,
            "value": 0.1348876953125
          },
          {
            "ticks": 191748,
            "time": 204.859168975,
            "value": 0.13525390625
          },
          {
            "ticks": 191755,
            "time": 204.86664761458331,
            "value": 0.1356201171875
          },
          {
            "ticks": 191763,
            "time": 204.87519463125,
            "value": 0.1358642578125
          },
          {
            "ticks": 191770,
            "time": 204.88267327083332,
            "value": 0.13623046875
          },
          {
            "ticks": 191777,
            "time": 204.89015191041665,
            "value": 0.1365966796875
          },
          {
            "ticks": 191785,
            "time": 204.8986989270833,
            "value": 0.136962890625
          },
          {
            "ticks": 191793,
            "time": 204.90724594375,
            "value": 0.1373291015625
          },
          {
            "ticks": 191800,
            "time": 204.9147245833333,
            "value": 0.1376953125
          },
          {
            "ticks": 191808,
            "time": 204.9232716,
            "value": 0.1380615234375
          },
          {
            "ticks": 191815,
            "time": 204.93075023958332,
            "value": 0.1383056640625
          },
          {
            "ticks": 191823,
            "time": 204.93929725625,
            "value": 0.138671875
          },
          {
            "ticks": 191830,
            "time": 204.94677589583333,
            "value": 0.1390380859375
          },
          {
            "ticks": 191838,
            "time": 204.9553229125,
            "value": 0.139404296875
          },
          {
            "ticks": 191845,
            "time": 204.9628015520833,
            "value": 0.1397705078125
          },
          {
            "ticks": 191853,
            "time": 204.97134856875,
            "value": 0.14013671875
          },
          {
            "ticks": 191860,
            "time": 204.9788272083333,
            "value": 0.1405029296875
          },
          {
            "ticks": 191868,
            "time": 204.987374225,
            "value": 0.1407470703125
          },
          {
            "ticks": 191875,
            "time": 204.99485286458332,
            "value": 0.14111328125
          },
          {
            "ticks": 191883,
            "time": 205.00339988125,
            "value": 0.1414794921875
          },
          {
            "ticks": 191890,
            "time": 205.0108785208333,
            "value": 0.141845703125
          },
          {
            "ticks": 191898,
            "time": 205.0194255375,
            "value": 0.1422119140625
          },
          {
            "ticks": 191905,
            "time": 205.0269041770833,
            "value": 0.142578125
          },
          {
            "ticks": 191913,
            "time": 205.03545119375,
            "value": 0.1429443359375
          },
          {
            "ticks": 191920,
            "time": 205.04292983333332,
            "value": 0.1431884765625
          },
          {
            "ticks": 191928,
            "time": 205.05147685,
            "value": 0.1435546875
          },
          {
            "ticks": 191935,
            "time": 205.05895548958333,
            "value": 0.1439208984375
          },
          {
            "ticks": 191943,
            "time": 205.06750250625,
            "value": 0.144287109375
          },
          {
            "ticks": 191950,
            "time": 205.0749811458333,
            "value": 0.1446533203125
          },
          {
            "ticks": 191958,
            "time": 205.0835281625,
            "value": 0.14501953125
          },
          {
            "ticks": 191965,
            "time": 205.0910068020833,
            "value": 0.1453857421875
          },
          {
            "ticks": 191973,
            "time": 205.09955381875,
            "value": 0.1456298828125
          },
          {
            "ticks": 191980,
            "time": 205.10703245833332,
            "value": 0.14599609375
          },
          {
            "ticks": 191988,
            "time": 205.115579475,
            "value": 0.1463623046875
          },
          {
            "ticks": 191995,
            "time": 205.1230581145833,
            "value": 0.146728515625
          },
          {
            "ticks": 192003,
            "time": 205.13160513125,
            "value": 0.1470947265625
          },
          {
            "ticks": 192010,
            "time": 205.1390837708333,
            "value": 0.1474609375
          },
          {
            "ticks": 192018,
            "time": 205.1476307875,
            "value": 0.147705078125
          },
          {
            "ticks": 192025,
            "time": 205.15510942708332,
            "value": 0.1480712890625
          },
          {
            "ticks": 192033,
            "time": 205.16365644375,
            "value": 0.1484375
          },
          {
            "ticks": 192040,
            "time": 205.17113508333333,
            "value": 0.1488037109375
          },
          {
            "ticks": 192048,
            "time": 205.1796821,
            "value": 0.149169921875
          },
          {
            "ticks": 192055,
            "time": 205.1871607395833,
            "value": 0.1495361328125
          },
          {
            "ticks": 192063,
            "time": 205.19570775625,
            "value": 0.14990234375
          },
          {
            "ticks": 192070,
            "time": 205.2031863958333,
            "value": 0.150146484375
          },
          {
            "ticks": 192078,
            "time": 205.2117334125,
            "value": 0.1505126953125
          },
          {
            "ticks": 192085,
            "time": 205.21921205208332,
            "value": 0.15087890625
          },
          {
            "ticks": 192093,
            "time": 205.22775906875,
            "value": 0.1512451171875
          },
          {
            "ticks": 192100,
            "time": 205.2352377083333,
            "value": 0.151611328125
          },
          {
            "ticks": 192108,
            "time": 205.243784725,
            "value": 0.1519775390625
          },
          {
            "ticks": 192115,
            "time": 205.2512633645833,
            "value": 0.15234375
          },
          {
            "ticks": 192123,
            "time": 205.25981038125,
            "value": 0.152587890625
          },
          {
            "ticks": 192130,
            "time": 205.26728902083332,
            "value": 0.1529541015625
          },
          {
            "ticks": 192138,
            "time": 205.2758360375,
            "value": 0.1533203125
          },
          {
            "ticks": 192145,
            "time": 205.28331467708333,
            "value": 0.1536865234375
          },
          {
            "ticks": 192153,
            "time": 205.29186169375,
            "value": 0.154052734375
          },
          {
            "ticks": 192160,
            "time": 205.2993403333333,
            "value": 0.1544189453125
          },
          {
            "ticks": 192168,
            "time": 205.30788735,
            "value": 0.15478515625
          },
          {
            "ticks": 192175,
            "time": 205.3153659895833,
            "value": 0.155029296875
          },
          {
            "ticks": 192183,
            "time": 205.32391300625,
            "value": 0.1553955078125
          },
          {
            "ticks": 192190,
            "time": 205.33139164583332,
            "value": 0.15576171875
          },
          {
            "ticks": 192198,
            "time": 205.3399386625,
            "value": 0.1561279296875
          },
          {
            "ticks": 192205,
            "time": 205.3474173020833,
            "value": 0.156494140625
          },
          {
            "ticks": 192213,
            "time": 205.35596431875,
            "value": 0.1568603515625
          },
          {
            "ticks": 192220,
            "time": 205.3634429583333,
            "value": 0.1572265625
          },
          {
            "ticks": 192228,
            "time": 205.371989975,
            "value": 0.157470703125
          },
          {
            "ticks": 192235,
            "time": 205.37946861458332,
            "value": 0.1578369140625
          },
          {
            "ticks": 192243,
            "time": 205.38801563125,
            "value": 0.158203125
          },
          {
            "ticks": 192250,
            "time": 205.39549427083332,
            "value": 0.1585693359375
          },
          {
            "ticks": 192258,
            "time": 205.4040412875,
            "value": 0.158935546875
          },
          {
            "ticks": 192265,
            "time": 205.4115199270833,
            "value": 0.1593017578125
          },
          {
            "ticks": 192273,
            "time": 205.42006694375,
            "value": 0.15966796875
          },
          {
            "ticks": 192280,
            "time": 205.4275455833333,
            "value": 0.159912109375
          },
          {
            "ticks": 192288,
            "time": 205.4360926,
            "value": 0.1602783203125
          },
          {
            "ticks": 192295,
            "time": 205.44357123958332,
            "value": 0.16064453125
          },
          {
            "ticks": 192303,
            "time": 205.45211825625,
            "value": 0.1610107421875
          },
          {
            "ticks": 192310,
            "time": 205.4595968958333,
            "value": 0.161376953125
          },
          {
            "ticks": 192318,
            "time": 205.4681439125,
            "value": 0.1617431640625
          },
          {
            "ticks": 192325,
            "time": 205.4756225520833,
            "value": 0.162109375
          },
          {
            "ticks": 192333,
            "time": 205.48416956875,
            "value": 0.162353515625
          },
          {
            "ticks": 192340,
            "time": 205.49164820833332,
            "value": 0.1627197265625
          },
          {
            "ticks": 192348,
            "time": 205.500195225,
            "value": 0.1630859375
          },
          {
            "ticks": 192355,
            "time": 205.50767386458332,
            "value": 0.1634521484375
          },
          {
            "ticks": 192363,
            "time": 205.51622088125,
            "value": 0.163818359375
          },
          {
            "ticks": 192370,
            "time": 205.5236995208333,
            "value": 0.1641845703125
          },
          {
            "ticks": 192378,
            "time": 205.5322465375,
            "value": 0.16455078125
          },
          {
            "ticks": 192385,
            "time": 205.5397251770833,
            "value": 0.164794921875
          },
          {
            "ticks": 192393,
            "time": 205.54827219375,
            "value": 0.1651611328125
          },
          {
            "ticks": 192400,
            "time": 205.55575083333332,
            "value": 0.16552734375
          },
          {
            "ticks": 192408,
            "time": 205.56429785,
            "value": 0.1658935546875
          },
          {
            "ticks": 192415,
            "time": 205.5717764895833,
            "value": 0.166259765625
          },
          {
            "ticks": 192423,
            "time": 205.58032350625,
            "value": 0.1666259765625
          },
          {
            "ticks": 192430,
            "time": 205.5878021458333,
            "value": 0.1669921875
          },
          {
            "ticks": 192438,
            "time": 205.5963491625,
            "value": 0.167236328125
          },
          {
            "ticks": 192445,
            "time": 205.60382780208332,
            "value": 0.1676025390625
          },
          {
            "ticks": 192453,
            "time": 205.61237481875,
            "value": 0.16796875
          },
          {
            "ticks": 192460,
            "time": 205.61985345833332,
            "value": 0.1683349609375
          },
          {
            "ticks": 192468,
            "time": 205.628400475,
            "value": 0.168701171875
          },
          {
            "ticks": 192475,
            "time": 205.6358791145833,
            "value": 0.1690673828125
          },
          {
            "ticks": 192483,
            "time": 205.64442613125,
            "value": 0.16943359375
          },
          {
            "ticks": 192490,
            "time": 205.6519047708333,
            "value": 0.169677734375
          },
          {
            "ticks": 192498,
            "time": 205.6604517875,
            "value": 0.1700439453125
          },
          {
            "ticks": 192505,
            "time": 205.66793042708332,
            "value": 0.17041015625
          },
          {
            "ticks": 192513,
            "time": 205.67647744375,
            "value": 0.1707763671875
          },
          {
            "ticks": 192520,
            "time": 205.6839560833333,
            "value": 0.171142578125
          },
          {
            "ticks": 192528,
            "time": 205.6925031,
            "value": 0.1715087890625
          },
          {
            "ticks": 192535,
            "time": 205.6999817395833,
            "value": 0.171875
          },
          {
            "ticks": 192543,
            "time": 205.70852875625,
            "value": 0.172119140625
          },
          {
            "ticks": 192550,
            "time": 205.71600739583332,
            "value": 0.1724853515625
          },
          {
            "ticks": 192558,
            "time": 205.7245544125,
            "value": 0.1728515625
          },
          {
            "ticks": 192565,
            "time": 205.73203305208332,
            "value": 0.1732177734375
          },
          {
            "ticks": 192573,
            "time": 205.74058006875,
            "value": 0.173583984375
          },
          {
            "ticks": 192580,
            "time": 205.7480587083333,
            "value": 0.1739501953125
          },
          {
            "ticks": 192588,
            "time": 205.75660572500001,
            "value": 0.17431640625
          },
          {
            "ticks": 192595,
            "time": 205.7640843645833,
            "value": 0.174560546875
          },
          {
            "ticks": 192603,
            "time": 205.77263138125,
            "value": 0.1749267578125
          },
          {
            "ticks": 192610,
            "time": 205.78011002083332,
            "value": 0.17529296875
          },
          {
            "ticks": 192618,
            "time": 205.7886570375,
            "value": 0.1756591796875
          },
          {
            "ticks": 192625,
            "time": 205.7961356770833,
            "value": 0.176025390625
          },
          {
            "ticks": 192633,
            "time": 205.80468269375,
            "value": 0.1763916015625
          },
          {
            "ticks": 192640,
            "time": 205.8121613333333,
            "value": 0.1767578125
          },
          {
            "ticks": 192648,
            "time": 205.82070835,
            "value": 0.177001953125
          },
          {
            "ticks": 192655,
            "time": 205.82818698958332,
            "value": 0.1773681640625
          },
          {
            "ticks": 192663,
            "time": 205.83673400625,
            "value": 0.177734375
          },
          {
            "ticks": 192670,
            "time": 205.84421264583332,
            "value": 0.1781005859375
          },
          {
            "ticks": 192678,
            "time": 205.8527596625,
            "value": 0.178466796875
          },
          {
            "ticks": 192685,
            "time": 205.8602383020833,
            "value": 0.1788330078125
          },
          {
            "ticks": 192693,
            "time": 205.86878531875,
            "value": 0.17919921875
          },
          {
            "ticks": 192700,
            "time": 205.8762639583333,
            "value": 0.179443359375
          },
          {
            "ticks": 192708,
            "time": 205.884810975,
            "value": 0.1798095703125
          },
          {
            "ticks": 192715,
            "time": 205.89228961458332,
            "value": 0.18017578125
          },
          {
            "ticks": 192723,
            "time": 205.90083663125,
            "value": 0.1805419921875
          },
          {
            "ticks": 192730,
            "time": 205.9083152708333,
            "value": 0.180908203125
          },
          {
            "ticks": 192738,
            "time": 205.9168622875,
            "value": 0.1812744140625
          },
          {
            "ticks": 192745,
            "time": 205.9243409270833,
            "value": 0.181640625
          },
          {
            "ticks": 192753,
            "time": 205.93288794375,
            "value": 0.181884765625
          },
          {
            "ticks": 192760,
            "time": 205.94036658333332,
            "value": 0.1822509765625
          },
          {
            "ticks": 192768,
            "time": 205.9489136,
            "value": 0.1826171875
          },
          {
            "ticks": 192775,
            "time": 205.95639223958332,
            "value": 0.1829833984375
          },
          {
            "ticks": 192783,
            "time": 205.96493925625,
            "value": 0.183349609375
          },
          {
            "ticks": 192790,
            "time": 205.9724178958333,
            "value": 0.1837158203125
          },
          {
            "ticks": 192798,
            "time": 205.9809649125,
            "value": 0.18408203125
          },
          {
            "ticks": 192805,
            "time": 205.9884435520833,
            "value": 0.184326171875
          },
          {
            "ticks": 192813,
            "time": 205.99699056875,
            "value": 0.1846923828125
          },
          {
            "ticks": 192820,
            "time": 206.00446920833332,
            "value": 0.18505859375
          },
          {
            "ticks": 192828,
            "time": 206.013016225,
            "value": 0.1854248046875
          },
          {
            "ticks": 192835,
            "time": 206.0204948645833,
            "value": 0.185791015625
          },
          {
            "ticks": 192843,
            "time": 206.02904188125,
            "value": 0.1861572265625
          },
          {
            "ticks": 192850,
            "time": 206.0365205208333,
            "value": 0.1865234375
          },
          {
            "ticks": 192858,
            "time": 206.0450675375,
            "value": 0.186767578125
          },
          {
            "ticks": 192865,
            "time": 206.05254617708331,
            "value": 0.1871337890625
          },
          {
            "ticks": 192873,
            "time": 206.06109319375,
            "value": 0.1875
          },
          {
            "ticks": 192880,
            "time": 206.06857183333332,
            "value": 0.1878662109375
          },
          {
            "ticks": 192888,
            "time": 206.07711885,
            "value": 0.188232421875
          },
          {
            "ticks": 192895,
            "time": 206.0845974895833,
            "value": 0.1885986328125
          },
          {
            "ticks": 192903,
            "time": 206.09314450625,
            "value": 0.18896484375
          },
          {
            "ticks": 192910,
            "time": 206.1006231458333,
            "value": 0.189208984375
          },
          {
            "ticks": 192918,
            "time": 206.1091701625,
            "value": 0.1895751953125
          },
          {
            "ticks": 192925,
            "time": 206.11664880208332,
            "value": 0.18994140625
          },
          {
            "ticks": 192933,
            "time": 206.12519581875,
            "value": 0.1903076171875
          },
          {
            "ticks": 192940,
            "time": 206.1326744583333,
            "value": 0.190673828125
          },
          {
            "ticks": 192948,
            "time": 206.141221475,
            "value": 0.1910400390625
          },
          {
            "ticks": 192955,
            "time": 206.1487001145833,
            "value": 0.19140625
          },
          {
            "ticks": 192963,
            "time": 206.15724713125,
            "value": 0.191650390625
          },
          {
            "ticks": 192970,
            "time": 206.16472577083331,
            "value": 0.1920166015625
          },
          {
            "ticks": 192978,
            "time": 206.1732727875,
            "value": 0.1923828125
          },
          {
            "ticks": 192985,
            "time": 206.18075142708332,
            "value": 0.1927490234375
          },
          {
            "ticks": 192993,
            "time": 206.18929844375,
            "value": 0.193115234375
          },
          {
            "ticks": 193000,
            "time": 206.1967770833333,
            "value": 0.1934814453125
          },
          {
            "ticks": 193008,
            "time": 206.2053241,
            "value": 0.19384765625
          },
          {
            "ticks": 193015,
            "time": 206.2128027395833,
            "value": 0.194091796875
          },
          {
            "ticks": 193023,
            "time": 206.22134975625,
            "value": 0.1944580078125
          },
          {
            "ticks": 193030,
            "time": 206.22882839583332,
            "value": 0.19482421875
          },
          {
            "ticks": 193038,
            "time": 206.2373754125,
            "value": 0.1951904296875
          },
          {
            "ticks": 193045,
            "time": 206.24485405208333,
            "value": 0.195556640625
          },
          {
            "ticks": 193053,
            "time": 206.25340106875,
            "value": 0.1959228515625
          },
          {
            "ticks": 193060,
            "time": 206.2608797083333,
            "value": 0.1962890625
          },
          {
            "ticks": 193068,
            "time": 206.269426725,
            "value": 0.196533203125
          },
          {
            "ticks": 193075,
            "time": 206.2769053645833,
            "value": 0.1968994140625
          },
          {
            "ticks": 193083,
            "time": 206.28545238125,
            "value": 0.197265625
          },
          {
            "ticks": 193090,
            "time": 206.29293102083332,
            "value": 0.1976318359375
          },
          {
            "ticks": 193098,
            "time": 206.3014780375,
            "value": 0.197998046875
          },
          {
            "ticks": 193105,
            "time": 206.3089566770833,
            "value": 0.1983642578125
          },
          {
            "ticks": 193113,
            "time": 206.31750369375,
            "value": 0.1986083984375
          },
          {
            "ticks": 193120,
            "time": 206.3249823333333,
            "value": 0.198974609375
          },
          {
            "ticks": 193128,
            "time": 206.33352935,
            "value": 0.1993408203125
          },
          {
            "ticks": 193135,
            "time": 206.34100798958332,
            "value": 0.19970703125
          },
          {
            "ticks": 193143,
            "time": 206.34955500625,
            "value": 0.2000732421875
          },
          {
            "ticks": 193150,
            "time": 206.35703364583333,
            "value": 0.200439453125
          },
          {
            "ticks": 193158,
            "time": 206.3655806625,
            "value": 0.2008056640625
          },
          {
            "ticks": 193165,
            "time": 206.3730593020833,
            "value": 0.2010498046875
          },
          {
            "ticks": 193173,
            "time": 206.38160631875,
            "value": 0.201416015625
          },
          {
            "ticks": 193180,
            "time": 206.3890849583333,
            "value": 0.2017822265625
          },
          {
            "ticks": 193188,
            "time": 206.397631975,
            "value": 0.2021484375
          },
          {
            "ticks": 193195,
            "time": 206.40511061458332,
            "value": 0.2025146484375
          },
          {
            "ticks": 193203,
            "time": 206.41365763125,
            "value": 0.202880859375
          },
          {
            "ticks": 193210,
            "time": 206.4211362708333,
            "value": 0.2032470703125
          },
          {
            "ticks": 193218,
            "time": 206.4296832875,
            "value": 0.2034912109375
          },
          {
            "ticks": 193225,
            "time": 206.4371619270833,
            "value": 0.203857421875
          },
          {
            "ticks": 193233,
            "time": 206.44570894375,
            "value": 0.2042236328125
          },
          {
            "ticks": 193240,
            "time": 206.45318758333332,
            "value": 0.20458984375
          },
          {
            "ticks": 193248,
            "time": 206.4617346,
            "value": 0.2049560546875
          },
          {
            "ticks": 193255,
            "time": 206.46921323958333,
            "value": 0.205322265625
          },
          {
            "ticks": 193263,
            "time": 206.47776025625,
            "value": 0.2056884765625
          },
          {
            "ticks": 193270,
            "time": 206.4852388958333,
            "value": 0.2059326171875
          },
          {
            "ticks": 193278,
            "time": 206.4937859125,
            "value": 0.206298828125
          },
          {
            "ticks": 193285,
            "time": 206.5012645520833,
            "value": 0.2066650390625
          },
          {
            "ticks": 193293,
            "time": 206.50981156875,
            "value": 0.20703125
          },
          {
            "ticks": 193300,
            "time": 206.51729020833332,
            "value": 0.2073974609375
          },
          {
            "ticks": 193308,
            "time": 206.525837225,
            "value": 0.207763671875
          },
          {
            "ticks": 193315,
            "time": 206.5333158645833,
            "value": 0.2081298828125
          },
          {
            "ticks": 193323,
            "time": 206.54186288125,
            "value": 0.2083740234375
          },
          {
            "ticks": 193330,
            "time": 206.5493415208333,
            "value": 0.208740234375
          },
          {
            "ticks": 193338,
            "time": 206.5578885375,
            "value": 0.2091064453125
          },
          {
            "ticks": 193345,
            "time": 206.56536717708332,
            "value": 0.20947265625
          },
          {
            "ticks": 193353,
            "time": 206.57391419375,
            "value": 0.2098388671875
          },
          {
            "ticks": 193360,
            "time": 206.58139283333333,
            "value": 0.210205078125
          },
          {
            "ticks": 193368,
            "time": 206.58993985,
            "value": 0.2105712890625
          },
          {
            "ticks": 193375,
            "time": 206.5974184895833,
            "value": 0.2108154296875
          },
          {
            "ticks": 193383,
            "time": 206.60596550625,
            "value": 0.211181640625
          },
          {
            "ticks": 193390,
            "time": 206.6134441458333,
            "value": 0.2115478515625
          },
          {
            "ticks": 193398,
            "time": 206.6219911625,
            "value": 0.2119140625
          },
          {
            "ticks": 193405,
            "time": 206.62946980208332,
            "value": 0.2122802734375
          },
          {
            "ticks": 193413,
            "time": 206.63801681875,
            "value": 0.212646484375
          },
          {
            "ticks": 193420,
            "time": 206.6454954583333,
            "value": 0.2130126953125
          },
          {
            "ticks": 193428,
            "time": 206.654042475,
            "value": 0.2132568359375
          },
          {
            "ticks": 193435,
            "time": 206.6615211145833,
            "value": 0.213623046875
          },
          {
            "ticks": 193443,
            "time": 206.67006813125,
            "value": 0.2139892578125
          },
          {
            "ticks": 193450,
            "time": 206.67754677083332,
            "value": 0.21435546875
          },
          {
            "ticks": 193458,
            "time": 206.6860937875,
            "value": 0.2147216796875
          },
          {
            "ticks": 193465,
            "time": 206.69357242708332,
            "value": 0.215087890625
          },
          {
            "ticks": 193473,
            "time": 206.70211944375,
            "value": 0.2154541015625
          },
          {
            "ticks": 193480,
            "time": 206.7095980833333,
            "value": 0.2156982421875
          },
          {
            "ticks": 193488,
            "time": 206.7181451,
            "value": 0.216064453125
          },
          {
            "ticks": 193495,
            "time": 206.7256237395833,
            "value": 0.2164306640625
          },
          {
            "ticks": 193503,
            "time": 206.73417075625,
            "value": 0.216796875
          },
          {
            "ticks": 193510,
            "time": 206.74164939583332,
            "value": 0.2171630859375
          },
          {
            "ticks": 193518,
            "time": 206.7501964125,
            "value": 0.217529296875
          },
          {
            "ticks": 193525,
            "time": 206.7576750520833,
            "value": 0.2178955078125
          },
          {
            "ticks": 193533,
            "time": 206.76622206875,
            "value": 0.2181396484375
          },
          {
            "ticks": 193540,
            "time": 206.7737007083333,
            "value": 0.218505859375
          },
          {
            "ticks": 193548,
            "time": 206.782247725,
            "value": 0.2188720703125
          },
          {
            "ticks": 193555,
            "time": 206.78972636458332,
            "value": 0.21923828125
          },
          {
            "ticks": 193563,
            "time": 206.79827338125,
            "value": 0.2196044921875
          },
          {
            "ticks": 193570,
            "time": 206.80575202083332,
            "value": 0.219970703125
          },
          {
            "ticks": 193578,
            "time": 206.8142990375,
            "value": 0.2203369140625
          },
          {
            "ticks": 193585,
            "time": 206.8217776770833,
            "value": 0.2205810546875
          },
          {
            "ticks": 193593,
            "time": 206.83032469375,
            "value": 0.220947265625
          },
          {
            "ticks": 193600,
            "time": 206.8378033333333,
            "value": 0.2213134765625
          },
          {
            "ticks": 193608,
            "time": 206.84635035,
            "value": 0.2216796875
          },
          {
            "ticks": 193615,
            "time": 206.85382898958332,
            "value": 0.2220458984375
          },
          {
            "ticks": 193623,
            "time": 206.86237600625,
            "value": 0.222412109375
          },
          {
            "ticks": 193630,
            "time": 206.8698546458333,
            "value": 0.2227783203125
          },
          {
            "ticks": 193638,
            "time": 206.8784016625,
            "value": 0.2230224609375
          },
          {
            "ticks": 193645,
            "time": 206.8858803020833,
            "value": 0.223388671875
          },
          {
            "ticks": 193653,
            "time": 206.89442731875,
            "value": 0.2237548828125
          },
          {
            "ticks": 193660,
            "time": 206.90190595833332,
            "value": 0.22412109375
          },
          {
            "ticks": 193668,
            "time": 206.910452975,
            "value": 0.2244873046875
          },
          {
            "ticks": 193675,
            "time": 206.91793161458332,
            "value": 0.224853515625
          },
          {
            "ticks": 193683,
            "time": 206.92647863125,
            "value": 0.2252197265625
          },
          {
            "ticks": 193690,
            "time": 206.9339572708333,
            "value": 0.2254638671875
          },
          {
            "ticks": 193698,
            "time": 206.9425042875,
            "value": 0.225830078125
          },
          {
            "ticks": 193705,
            "time": 206.9499829270833,
            "value": 0.2261962890625
          },
          {
            "ticks": 193713,
            "time": 206.95852994375,
            "value": 0.2265625
          },
          {
            "ticks": 193720,
            "time": 206.96600858333332,
            "value": 0.2269287109375
          },
          {
            "ticks": 193728,
            "time": 206.9745556,
            "value": 0.227294921875
          },
          {
            "ticks": 193735,
            "time": 206.9820342395833,
            "value": 0.2276611328125
          },
          {
            "ticks": 193743,
            "time": 206.99058125625,
            "value": 0.2279052734375
          },
          {
            "ticks": 193750,
            "time": 206.9980598958333,
            "value": 0.228271484375
          },
          {
            "ticks": 193758,
            "time": 207.0066069125,
            "value": 0.2286376953125
          },
          {
            "ticks": 193765,
            "time": 207.01408555208332,
            "value": 0.22900390625
          },
          {
            "ticks": 193773,
            "time": 207.02263256875,
            "value": 0.2293701171875
          },
          {
            "ticks": 193780,
            "time": 207.03011120833332,
            "value": 0.229736328125
          },
          {
            "ticks": 193788,
            "time": 207.038658225,
            "value": 0.2301025390625
          },
          {
            "ticks": 193795,
            "time": 207.0461368645833,
            "value": 0.2303466796875
          },
          {
            "ticks": 193803,
            "time": 207.05468388125,
            "value": 0.230712890625
          },
          {
            "ticks": 193810,
            "time": 207.0621625208333,
            "value": 0.2310791015625
          },
          {
            "ticks": 193818,
            "time": 207.0707095375,
            "value": 0.2314453125
          },
          {
            "ticks": 193825,
            "time": 207.07818817708332,
            "value": 0.2318115234375
          },
          {
            "ticks": 193833,
            "time": 207.08673519375,
            "value": 0.232177734375
          },
          {
            "ticks": 193840,
            "time": 207.0942138333333,
            "value": 0.2325439453125
          },
          {
            "ticks": 193848,
            "time": 207.10276085,
            "value": 0.2327880859375
          },
          {
            "ticks": 193855,
            "time": 207.1102394895833,
            "value": 0.233154296875
          },
          {
            "ticks": 193863,
            "time": 207.11878650625,
            "value": 0.2335205078125
          },
          {
            "ticks": 193870,
            "time": 207.12626514583332,
            "value": 0.23388671875
          },
          {
            "ticks": 193878,
            "time": 207.1348121625,
            "value": 0.2342529296875
          },
          {
            "ticks": 193885,
            "time": 207.14229080208332,
            "value": 0.234619140625
          },
          {
            "ticks": 193893,
            "time": 207.15083781875,
            "value": 0.2349853515625
          },
          {
            "ticks": 193900,
            "time": 207.1583164583333,
            "value": 0.2352294921875
          },
          {
            "ticks": 193908,
            "time": 207.166863475,
            "value": 0.235595703125
          },
          {
            "ticks": 193915,
            "time": 207.1743421145833,
            "value": 0.2359619140625
          },
          {
            "ticks": 193923,
            "time": 207.18288913125,
            "value": 0.236328125
          },
          {
            "ticks": 193930,
            "time": 207.19036777083332,
            "value": 0.2366943359375
          },
          {
            "ticks": 193938,
            "time": 207.1989147875,
            "value": 0.237060546875
          },
          {
            "ticks": 193945,
            "time": 207.2063934270833,
            "value": 0.2374267578125
          },
          {
            "ticks": 193953,
            "time": 207.21494044375,
            "value": 0.2376708984375
          },
          {
            "ticks": 193960,
            "time": 207.2224190833333,
            "value": 0.238037109375
          },
          {
            "ticks": 193968,
            "time": 207.2309661,
            "value": 0.2384033203125
          },
          {
            "ticks": 193975,
            "time": 207.23844473958331,
            "value": 0.23876953125
          },
          {
            "ticks": 193983,
            "time": 207.24699175625,
            "value": 0.2391357421875
          },
          {
            "ticks": 193990,
            "time": 207.25447039583332,
            "value": 0.239501953125
          },
          {
            "ticks": 193998,
            "time": 207.2630174125,
            "value": 0.2398681640625
          },
          {
            "ticks": 194005,
            "time": 207.2704960520833,
            "value": 0.2401123046875
          },
          {
            "ticks": 194013,
            "time": 207.27904306875,
            "value": 0.240478515625
          },
          {
            "ticks": 194020,
            "time": 207.2865217083333,
            "value": 0.2408447265625
          },
          {
            "ticks": 194028,
            "time": 207.295068725,
            "value": 0.2412109375
          },
          {
            "ticks": 194035,
            "time": 207.30254736458332,
            "value": 0.2415771484375
          },
          {
            "ticks": 194043,
            "time": 207.31109438125,
            "value": 0.241943359375
          },
          {
            "ticks": 194050,
            "time": 207.3185730208333,
            "value": 0.2423095703125
          },
          {
            "ticks": 194058,
            "time": 207.3271200375,
            "value": 0.2425537109375
          },
          {
            "ticks": 194065,
            "time": 207.3345986770833,
            "value": 0.242919921875
          },
          {
            "ticks": 194073,
            "time": 207.34314569375,
            "value": 0.2432861328125
          },
          {
            "ticks": 194080,
            "time": 207.35062433333331,
            "value": 0.24365234375
          },
          {
            "ticks": 194088,
            "time": 207.35917135,
            "value": 0.2440185546875
          },
          {
            "ticks": 194095,
            "time": 207.36664998958332,
            "value": 0.244384765625
          },
          {
            "ticks": 194103,
            "time": 207.37519700625,
            "value": 0.2447509765625
          },
          {
            "ticks": 194110,
            "time": 207.3826756458333,
            "value": 0.2449951171875
          },
          {
            "ticks": 194118,
            "time": 207.3912226625,
            "value": 0.245361328125
          },
          {
            "ticks": 194125,
            "time": 207.3987013020833,
            "value": 0.2457275390625
          },
          {
            "ticks": 194133,
            "time": 207.40724831875,
            "value": 0.24609375
          },
          {
            "ticks": 194140,
            "time": 207.41472695833332,
            "value": 0.2464599609375
          },
          {
            "ticks": 194147,
            "time": 207.42220559791664,
            "value": 0.246826171875
          },
          {
            "ticks": 194155,
            "time": 207.4307526145833,
            "value": 0.2470703125
          },
          {
            "ticks": 194163,
            "time": 207.43929963125,
            "value": 0.2474365234375
          },
          {
            "ticks": 194170,
            "time": 207.4467782708333,
            "value": 0.247802734375
          },
          {
            "ticks": 194178,
            "time": 207.4553252875,
            "value": 0.2481689453125
          },
          {
            "ticks": 194185,
            "time": 207.4628039270833,
            "value": 0.24853515625
          },
          {
            "ticks": 194193,
            "time": 207.47135094375,
            "value": 0.2489013671875
          },
          {
            "ticks": 194200,
            "time": 207.47882958333332,
            "value": 0.249267578125
          },
          {
            "ticks": 194208,
            "time": 207.4873766,
            "value": 0.24951171875
          },
          {
            "ticks": 194215,
            "time": 207.4948552395833,
            "value": 0.2498779296875
          },
          {
            "ticks": 194223,
            "time": 207.50340225625,
            "value": 0.250244140625
          },
          {
            "ticks": 194230,
            "time": 207.5108808958333,
            "value": 0.2506103515625
          },
          {
            "ticks": 194238,
            "time": 207.5194279125,
            "value": 0.2509765625
          },
          {
            "ticks": 194245,
            "time": 207.52690655208332,
            "value": 0.2513427734375
          },
          {
            "ticks": 194253,
            "time": 207.53545356875,
            "value": 0.251708984375
          },
          {
            "ticks": 194260,
            "time": 207.54293220833333,
            "value": 0.251953125
          },
          {
            "ticks": 194268,
            "time": 207.551479225,
            "value": 0.2523193359375
          },
          {
            "ticks": 194275,
            "time": 207.5589578645833,
            "value": 0.252685546875
          },
          {
            "ticks": 194283,
            "time": 207.56750488125,
            "value": 0.2530517578125
          },
          {
            "ticks": 194290,
            "time": 207.5749835208333,
            "value": 0.25341796875
          },
          {
            "ticks": 194298,
            "time": 207.5835305375,
            "value": 0.2537841796875
          },
          {
            "ticks": 194305,
            "time": 207.59100917708332,
            "value": 0.254150390625
          },
          {
            "ticks": 194313,
            "time": 207.59955619375,
            "value": 0.25439453125
          },
          {
            "ticks": 194320,
            "time": 207.6070348333333,
            "value": 0.2547607421875
          },
          {
            "ticks": 194328,
            "time": 207.61558185,
            "value": 0.255126953125
          },
          {
            "ticks": 194335,
            "time": 207.6230604895833,
            "value": 0.2554931640625
          },
          {
            "ticks": 194343,
            "time": 207.63160750625,
            "value": 0.255859375
          },
          {
            "ticks": 194350,
            "time": 207.63908614583332,
            "value": 0.2562255859375
          },
          {
            "ticks": 194358,
            "time": 207.6476331625,
            "value": 0.256591796875
          },
          {
            "ticks": 194365,
            "time": 207.65511180208333,
            "value": 0.2568359375
          },
          {
            "ticks": 194373,
            "time": 207.66365881875,
            "value": 0.2572021484375
          },
          {
            "ticks": 194380,
            "time": 207.6711374583333,
            "value": 0.257568359375
          },
          {
            "ticks": 194388,
            "time": 207.679684475,
            "value": 0.2579345703125
          },
          {
            "ticks": 194395,
            "time": 207.6871631145833,
            "value": 0.25830078125
          },
          {
            "ticks": 194403,
            "time": 207.69571013125,
            "value": 0.2586669921875
          },
          {
            "ticks": 194410,
            "time": 207.70318877083332,
            "value": 0.259033203125
          },
          {
            "ticks": 194418,
            "time": 207.7117357875,
            "value": 0.25927734375
          },
          {
            "ticks": 194425,
            "time": 207.7192144270833,
            "value": 0.2596435546875
          },
          {
            "ticks": 194433,
            "time": 207.72776144375,
            "value": 0.260009765625
          },
          {
            "ticks": 194440,
            "time": 207.7352400833333,
            "value": 0.2603759765625
          },
          {
            "ticks": 194448,
            "time": 207.7437871,
            "value": 0.2607421875
          },
          {
            "ticks": 194455,
            "time": 207.75126573958332,
            "value": 0.2611083984375
          },
          {
            "ticks": 194463,
            "time": 207.75981275625,
            "value": 0.261474609375
          },
          {
            "ticks": 194468,
            "time": 207.76515464166664,
            "value": 0.26171875
          },
          {
            "ticks": 194471,
            "time": 207.76835977291665,
            "value": 0.3619384765625
          },
          {
            "ticks": 194475,
            "time": 207.77263328125,
            "value": 0.4765625
          },
          {
            "ticks": 194483,
            "time": 207.78118029791665,
            "value": 0.479736328125
          },
          {
            "ticks": 194490,
            "time": 207.78865893749997,
            "value": 0.48291015625
          },
          {
            "ticks": 194498,
            "time": 207.79720595416666,
            "value": 0.486083984375
          },
          {
            "ticks": 194503,
            "time": 207.80254783958333,
            "value": 0.48828125
          },
          {
            "ticks": 194510,
            "time": 207.81002647916665,
            "value": 0.49072265625
          },
          {
            "ticks": 194518,
            "time": 207.81857349583333,
            "value": 0.4932861328125
          },
          {
            "ticks": 194525,
            "time": 207.82605213541666,
            "value": 0.4957275390625
          },
          {
            "ticks": 194533,
            "time": 207.8345991520833,
            "value": 0.498291015625
          },
          {
            "ticks": 194538,
            "time": 207.8399410375,
            "value": 0.5
          },
          {
            "ticks": 194545,
            "time": 207.8474196770833,
            "value": 0.4285888671875
          },
          {
            "ticks": 194553,
            "time": 207.85596669375,
            "value": 0.357177734375
          },
          {
            "ticks": 194560,
            "time": 207.86344533333332,
            "value": 0.2857666015625
          },
          {
            "ticks": 194568,
            "time": 207.87199235,
            "value": 0.21435546875
          },
          {
            "ticks": 194575,
            "time": 207.87947098958333,
            "value": 0.1429443359375
          },
          {
            "ticks": 194583,
            "time": 207.88801800625,
            "value": 0.071533203125
          },
          {
            "ticks": 194590,
            "time": 207.8954966458333,
            "value": 0
          },
          {
            "ticks": 194598,
            "time": 207.9040436625,
            "value": 0.0010986328125
          },
          {
            "ticks": 194605,
            "time": 207.9115223020833,
            "value": 0.002197265625
          },
          {
            "ticks": 194613,
            "time": 207.92006931875,
            "value": 0.0032958984375
          },
          {
            "ticks": 194620,
            "time": 207.92754795833332,
            "value": 0.00439453125
          },
          {
            "ticks": 194628,
            "time": 207.936094975,
            "value": 0.0054931640625
          },
          {
            "ticks": 194635,
            "time": 207.9435736145833,
            "value": 0.006591796875
          },
          {
            "ticks": 194643,
            "time": 207.95212063125,
            "value": 0.0076904296875
          },
          {
            "ticks": 194650,
            "time": 207.9595992708333,
            "value": 0.0089111328125
          },
          {
            "ticks": 194658,
            "time": 207.9681462875,
            "value": 0.010009765625
          },
          {
            "ticks": 194665,
            "time": 207.97562492708332,
            "value": 0.0111083984375
          },
          {
            "ticks": 194673,
            "time": 207.98417194375,
            "value": 0.01220703125
          },
          {
            "ticks": 194680,
            "time": 207.99165058333332,
            "value": 0.0133056640625
          },
          {
            "ticks": 194688,
            "time": 208.0001976,
            "value": 0.014404296875
          },
          {
            "ticks": 194695,
            "time": 208.0076762395833,
            "value": 0.0155029296875
          },
          {
            "ticks": 194703,
            "time": 208.01622325625,
            "value": 0.0167236328125
          },
          {
            "ticks": 194710,
            "time": 208.0237018958333,
            "value": 0.017822265625
          },
          {
            "ticks": 194718,
            "time": 208.0322489125,
            "value": 0.0189208984375
          },
          {
            "ticks": 194725,
            "time": 208.03972755208332,
            "value": 0.02001953125
          },
          {
            "ticks": 194733,
            "time": 208.04827456875,
            "value": 0.0211181640625
          },
          {
            "ticks": 194740,
            "time": 208.0557532083333,
            "value": 0.022216796875
          },
          {
            "ticks": 194748,
            "time": 208.064300225,
            "value": 0.0233154296875
          },
          {
            "ticks": 194755,
            "time": 208.0717788645833,
            "value": 0.0245361328125
          },
          {
            "ticks": 194763,
            "time": 208.08032588125,
            "value": 0.025634765625
          },
          {
            "ticks": 194770,
            "time": 208.08780452083332,
            "value": 0.0267333984375
          },
          {
            "ticks": 194778,
            "time": 208.0963515375,
            "value": 0.02783203125
          },
          {
            "ticks": 194785,
            "time": 208.10383017708332,
            "value": 0.0289306640625
          },
          {
            "ticks": 194793,
            "time": 208.11237719375,
            "value": 0.030029296875
          },
          {
            "ticks": 194800,
            "time": 208.1198558333333,
            "value": 0.0311279296875
          },
          {
            "ticks": 194808,
            "time": 208.12840285,
            "value": 0.0322265625
          },
          {
            "ticks": 194815,
            "time": 208.1358814895833,
            "value": 0.033447265625
          },
          {
            "ticks": 194823,
            "time": 208.14442850625,
            "value": 0.0345458984375
          },
          {
            "ticks": 194830,
            "time": 208.15190714583332,
            "value": 0.03564453125
          },
          {
            "ticks": 194838,
            "time": 208.1604541625,
            "value": 0.0367431640625
          },
          {
            "ticks": 194845,
            "time": 208.1679328020833,
            "value": 0.037841796875
          },
          {
            "ticks": 194853,
            "time": 208.17647981875,
            "value": 0.0389404296875
          },
          {
            "ticks": 194860,
            "time": 208.1839584583333,
            "value": 0.0400390625
          },
          {
            "ticks": 194868,
            "time": 208.192505475,
            "value": 0.041259765625
          },
          {
            "ticks": 194875,
            "time": 208.19998411458332,
            "value": 0.0423583984375
          },
          {
            "ticks": 194883,
            "time": 208.20853113125,
            "value": 0.04345703125
          },
          {
            "ticks": 194890,
            "time": 208.21600977083332,
            "value": 0.0445556640625
          },
          {
            "ticks": 194898,
            "time": 208.2245567875,
            "value": 0.045654296875
          },
          {
            "ticks": 194905,
            "time": 208.2320354270833,
            "value": 0.0467529296875
          },
          {
            "ticks": 194912,
            "time": 208.23951406666666,
            "value": 0.0478515625
          },
          {
            "ticks": 194920,
            "time": 208.2480610833333,
            "value": 0.049072265625
          },
          {
            "ticks": 194928,
            "time": 208.2566081,
            "value": 0.0501708984375
          },
          {
            "ticks": 194935,
            "time": 208.26408673958332,
            "value": 0.05126953125
          },
          {
            "ticks": 194943,
            "time": 208.27263375625,
            "value": 0.0523681640625
          },
          {
            "ticks": 194950,
            "time": 208.2801123958333,
            "value": 0.053466796875
          },
          {
            "ticks": 194958,
            "time": 208.2886594125,
            "value": 0.0545654296875
          },
          {
            "ticks": 194965,
            "time": 208.2961380520833,
            "value": 0.0556640625
          },
          {
            "ticks": 194973,
            "time": 208.30468506875,
            "value": 0.0567626953125
          },
          {
            "ticks": 194980,
            "time": 208.31216370833332,
            "value": 0.0579833984375
          },
          {
            "ticks": 194988,
            "time": 208.320710725,
            "value": 0.05908203125
          },
          {
            "ticks": 194995,
            "time": 208.32818936458332,
            "value": 0.0601806640625
          },
          {
            "ticks": 195003,
            "time": 208.33673638125,
            "value": 0.061279296875
          },
          {
            "ticks": 195010,
            "time": 208.3442150208333,
            "value": 0.0623779296875
          },
          {
            "ticks": 195018,
            "time": 208.3527620375,
            "value": 0.0634765625
          },
          {
            "ticks": 195025,
            "time": 208.3602406770833,
            "value": 0.0645751953125
          },
          {
            "ticks": 195033,
            "time": 208.36878769375,
            "value": 0.0657958984375
          },
          {
            "ticks": 195040,
            "time": 208.37626633333332,
            "value": 0.06689453125
          },
          {
            "ticks": 195048,
            "time": 208.38481335,
            "value": 0.0679931640625
          },
          {
            "ticks": 195055,
            "time": 208.3922919895833,
            "value": 0.069091796875
          },
          {
            "ticks": 195063,
            "time": 208.40083900625,
            "value": 0.0701904296875
          },
          {
            "ticks": 195070,
            "time": 208.4083176458333,
            "value": 0.0712890625
          },
          {
            "ticks": 195078,
            "time": 208.4168646625,
            "value": 0.0723876953125
          },
          {
            "ticks": 195085,
            "time": 208.42434330208332,
            "value": 0.0736083984375
          },
          {
            "ticks": 195093,
            "time": 208.43289031875,
            "value": 0.07470703125
          },
          {
            "ticks": 195100,
            "time": 208.44036895833332,
            "value": 0.0758056640625
          },
          {
            "ticks": 195108,
            "time": 208.448915975,
            "value": 0.076904296875
          },
          {
            "ticks": 195115,
            "time": 208.4563946145833,
            "value": 0.0780029296875
          },
          {
            "ticks": 195123,
            "time": 208.46494163125,
            "value": 0.0791015625
          },
          {
            "ticks": 195130,
            "time": 208.4724202708333,
            "value": 0.0802001953125
          },
          {
            "ticks": 195138,
            "time": 208.4809672875,
            "value": 0.081298828125
          },
          {
            "ticks": 195145,
            "time": 208.48844592708332,
            "value": 0.08251953125
          },
          {
            "ticks": 195153,
            "time": 208.49699294375,
            "value": 0.0836181640625
          },
          {
            "ticks": 195160,
            "time": 208.5044715833333,
            "value": 0.084716796875
          },
          {
            "ticks": 195168,
            "time": 208.5130186,
            "value": 0.0858154296875
          },
          {
            "ticks": 195175,
            "time": 208.5204972395833,
            "value": 0.0869140625
          },
          {
            "ticks": 195183,
            "time": 208.52904425625,
            "value": 0.0880126953125
          },
          {
            "ticks": 195190,
            "time": 208.53652289583331,
            "value": 0.089111328125
          },
          {
            "ticks": 195198,
            "time": 208.5450699125,
            "value": 0.09033203125
          },
          {
            "ticks": 195205,
            "time": 208.55254855208332,
            "value": 0.0914306640625
          },
          {
            "ticks": 195213,
            "time": 208.56109556875,
            "value": 0.092529296875
          },
          {
            "ticks": 195220,
            "time": 208.5685742083333,
            "value": 0.0936279296875
          },
          {
            "ticks": 195228,
            "time": 208.577121225,
            "value": 0.0947265625
          },
          {
            "ticks": 195235,
            "time": 208.5845998645833,
            "value": 0.0958251953125
          },
          {
            "ticks": 195243,
            "time": 208.59314688125,
            "value": 0.096923828125
          },
          {
            "ticks": 195250,
            "time": 208.60062552083332,
            "value": 0.09814453125
          },
          {
            "ticks": 195258,
            "time": 208.6091725375,
            "value": 0.0992431640625
          },
          {
            "ticks": 195265,
            "time": 208.6166511770833,
            "value": 0.100341796875
          },
          {
            "ticks": 195273,
            "time": 208.62519819375,
            "value": 0.1014404296875
          },
          {
            "ticks": 195280,
            "time": 208.6326768333333,
            "value": 0.1025390625
          },
          {
            "ticks": 195288,
            "time": 208.64122385,
            "value": 0.1036376953125
          },
          {
            "ticks": 195295,
            "time": 208.64870248958331,
            "value": 0.104736328125
          },
          {
            "ticks": 195302,
            "time": 208.65618112916664,
            "value": 0.1058349609375
          },
          {
            "ticks": 195310,
            "time": 208.66472814583332,
            "value": 0.1070556640625
          },
          {
            "ticks": 195318,
            "time": 208.6732751625,
            "value": 0.108154296875
          },
          {
            "ticks": 195325,
            "time": 208.6807538020833,
            "value": 0.1092529296875
          },
          {
            "ticks": 195333,
            "time": 208.68930081875,
            "value": 0.1103515625
          },
          {
            "ticks": 195340,
            "time": 208.6967794583333,
            "value": 0.1114501953125
          },
          {
            "ticks": 195348,
            "time": 208.705326475,
            "value": 0.112548828125
          },
          {
            "ticks": 195355,
            "time": 208.71280511458332,
            "value": 0.1136474609375
          },
          {
            "ticks": 195363,
            "time": 208.72135213125,
            "value": 0.1148681640625
          },
          {
            "ticks": 195370,
            "time": 208.7288307708333,
            "value": 0.115966796875
          },
          {
            "ticks": 195378,
            "time": 208.7373777875,
            "value": 0.1170654296875
          },
          {
            "ticks": 195385,
            "time": 208.7448564270833,
            "value": 0.1181640625
          },
          {
            "ticks": 195393,
            "time": 208.75340344375,
            "value": 0.1192626953125
          },
          {
            "ticks": 195400,
            "time": 208.7608820833333,
            "value": 0.120361328125
          },
          {
            "ticks": 195408,
            "time": 208.7694291,
            "value": 0.1214599609375
          },
          {
            "ticks": 195415,
            "time": 208.77690773958332,
            "value": 0.1226806640625
          },
          {
            "ticks": 195423,
            "time": 208.78545475625,
            "value": 0.123779296875
          },
          {
            "ticks": 195430,
            "time": 208.7929333958333,
            "value": 0.1248779296875
          },
          {
            "ticks": 195438,
            "time": 208.8014804125,
            "value": 0.1259765625
          },
          {
            "ticks": 195445,
            "time": 208.8089590520833,
            "value": 0.1270751953125
          },
          {
            "ticks": 195453,
            "time": 208.81750606875,
            "value": 0.128173828125
          },
          {
            "ticks": 195460,
            "time": 208.82498470833332,
            "value": 0.1292724609375
          },
          {
            "ticks": 195468,
            "time": 208.833531725,
            "value": 0.13037109375
          },
          {
            "ticks": 195475,
            "time": 208.84101036458333,
            "value": 0.131591796875
          },
          {
            "ticks": 195483,
            "time": 208.84955738125,
            "value": 0.1326904296875
          },
          {
            "ticks": 195490,
            "time": 208.8570360208333,
            "value": 0.1337890625
          },
          {
            "ticks": 195498,
            "time": 208.8655830375,
            "value": 0.1348876953125
          },
          {
            "ticks": 195505,
            "time": 208.8730616770833,
            "value": 0.135986328125
          },
          {
            "ticks": 195513,
            "time": 208.88160869375,
            "value": 0.1370849609375
          },
          {
            "ticks": 195520,
            "time": 208.88908733333332,
            "value": 0.13818359375
          },
          {
            "ticks": 195528,
            "time": 208.89763435,
            "value": 0.139404296875
          },
          {
            "ticks": 195535,
            "time": 208.9051129895833,
            "value": 0.1405029296875
          },
          {
            "ticks": 195543,
            "time": 208.91366000625,
            "value": 0.1416015625
          },
          {
            "ticks": 195550,
            "time": 208.9211386458333,
            "value": 0.1427001953125
          },
          {
            "ticks": 195558,
            "time": 208.9296856625,
            "value": 0.143798828125
          },
          {
            "ticks": 195565,
            "time": 208.93716430208332,
            "value": 0.1448974609375
          },
          {
            "ticks": 195573,
            "time": 208.94571131875,
            "value": 0.14599609375
          },
          {
            "ticks": 195580,
            "time": 208.95318995833333,
            "value": 0.147216796875
          },
          {
            "ticks": 195588,
            "time": 208.961736975,
            "value": 0.1483154296875
          },
          {
            "ticks": 195595,
            "time": 208.9692156145833,
            "value": 0.1494140625
          },
          {
            "ticks": 195603,
            "time": 208.97776263125,
            "value": 0.1505126953125
          },
          {
            "ticks": 195610,
            "time": 208.9852412708333,
            "value": 0.151611328125
          },
          {
            "ticks": 195618,
            "time": 208.9937882875,
            "value": 0.1527099609375
          },
          {
            "ticks": 195625,
            "time": 209.00126692708332,
            "value": 0.15380859375
          },
          {
            "ticks": 195633,
            "time": 209.00981394375,
            "value": 0.1549072265625
          },
          {
            "ticks": 195640,
            "time": 209.0172925833333,
            "value": 0.1561279296875
          },
          {
            "ticks": 195648,
            "time": 209.0258396,
            "value": 0.1572265625
          },
          {
            "ticks": 195655,
            "time": 209.0333182395833,
            "value": 0.1583251953125
          },
          {
            "ticks": 195663,
            "time": 209.04186525625,
            "value": 0.159423828125
          },
          {
            "ticks": 195670,
            "time": 209.04934389583332,
            "value": 0.1605224609375
          },
          {
            "ticks": 195678,
            "time": 209.0578909125,
            "value": 0.16162109375
          },
          {
            "ticks": 195685,
            "time": 209.06536955208333,
            "value": 0.1627197265625
          },
          {
            "ticks": 195693,
            "time": 209.07391656875,
            "value": 0.1639404296875
          },
          {
            "ticks": 195700,
            "time": 209.0813952083333,
            "value": 0.1650390625
          },
          {
            "ticks": 195708,
            "time": 209.089942225,
            "value": 0.1661376953125
          },
          {
            "ticks": 195715,
            "time": 209.0974208645833,
            "value": 0.167236328125
          },
          {
            "ticks": 195723,
            "time": 209.10596788125,
            "value": 0.1683349609375
          },
          {
            "ticks": 195730,
            "time": 209.11344652083332,
            "value": 0.16943359375
          },
          {
            "ticks": 195738,
            "time": 209.1219935375,
            "value": 0.1705322265625
          },
          {
            "ticks": 195745,
            "time": 209.1294721770833,
            "value": 0.1717529296875
          },
          {
            "ticks": 195753,
            "time": 209.13801919375,
            "value": 0.1728515625
          },
          {
            "ticks": 195760,
            "time": 209.1454978333333,
            "value": 0.1739501953125
          },
          {
            "ticks": 195768,
            "time": 209.15404485,
            "value": 0.175048828125
          },
          {
            "ticks": 195775,
            "time": 209.16152348958332,
            "value": 0.1761474609375
          },
          {
            "ticks": 195783,
            "time": 209.17007050625,
            "value": 0.17724609375
          },
          {
            "ticks": 195790,
            "time": 209.17754914583332,
            "value": 0.1783447265625
          },
          {
            "ticks": 195798,
            "time": 209.1860961625,
            "value": 0.179443359375
          },
          {
            "ticks": 195805,
            "time": 209.1935748020833,
            "value": 0.1806640625
          },
          {
            "ticks": 195813,
            "time": 209.20212181875,
            "value": 0.1817626953125
          },
          {
            "ticks": 195820,
            "time": 209.2096004583333,
            "value": 0.182861328125
          },
          {
            "ticks": 195828,
            "time": 209.218147475,
            "value": 0.1839599609375
          },
          {
            "ticks": 195835,
            "time": 209.22562611458332,
            "value": 0.18505859375
          },
          {
            "ticks": 195843,
            "time": 209.23417313125,
            "value": 0.1861572265625
          },
          {
            "ticks": 195850,
            "time": 209.2416517708333,
            "value": 0.187255859375
          },
          {
            "ticks": 195858,
            "time": 209.2501987875,
            "value": 0.1884765625
          },
          {
            "ticks": 195865,
            "time": 209.2576774270833,
            "value": 0.1895751953125
          },
          {
            "ticks": 195873,
            "time": 209.26622444375,
            "value": 0.190673828125
          },
          {
            "ticks": 195880,
            "time": 209.27370308333332,
            "value": 0.1917724609375
          },
          {
            "ticks": 195888,
            "time": 209.2822501,
            "value": 0.19287109375
          },
          {
            "ticks": 195895,
            "time": 209.28972873958332,
            "value": 0.1939697265625
          },
          {
            "ticks": 195903,
            "time": 209.29827575625,
            "value": 0.195068359375
          },
          {
            "ticks": 195910,
            "time": 209.3057543958333,
            "value": 0.1962890625
          },
          {
            "ticks": 195918,
            "time": 209.3143014125,
            "value": 0.1973876953125
          },
          {
            "ticks": 195925,
            "time": 209.3217800520833,
            "value": 0.198486328125
          },
          {
            "ticks": 195933,
            "time": 209.33032706875,
            "value": 0.1995849609375
          },
          {
            "ticks": 195940,
            "time": 209.33780570833332,
            "value": 0.20068359375
          },
          {
            "ticks": 195948,
            "time": 209.346352725,
            "value": 0.2017822265625
          },
          {
            "ticks": 195955,
            "time": 209.3538313645833,
            "value": 0.202880859375
          },
          {
            "ticks": 195963,
            "time": 209.36237838125,
            "value": 0.2039794921875
          },
          {
            "ticks": 195970,
            "time": 209.3698570208333,
            "value": 0.2052001953125
          },
          {
            "ticks": 195978,
            "time": 209.3784040375,
            "value": 0.206298828125
          },
          {
            "ticks": 195985,
            "time": 209.38588267708332,
            "value": 0.2073974609375
          },
          {
            "ticks": 195993,
            "time": 209.39442969375,
            "value": 0.20849609375
          },
          {
            "ticks": 196000,
            "time": 209.40190833333332,
            "value": 0.2095947265625
          },
          {
            "ticks": 196008,
            "time": 209.41045535,
            "value": 0.210693359375
          },
          {
            "ticks": 196015,
            "time": 209.4179339895833,
            "value": 0.2117919921875
          },
          {
            "ticks": 196023,
            "time": 209.42648100625,
            "value": 0.2130126953125
          },
          {
            "ticks": 196030,
            "time": 209.4339596458333,
            "value": 0.214111328125
          },
          {
            "ticks": 196038,
            "time": 209.4425066625,
            "value": 0.2152099609375
          },
          {
            "ticks": 196045,
            "time": 209.44998530208332,
            "value": 0.21630859375
          },
          {
            "ticks": 196053,
            "time": 209.45853231875,
            "value": 0.2174072265625
          },
          {
            "ticks": 196060,
            "time": 209.4660109583333,
            "value": 0.218505859375
          },
          {
            "ticks": 196068,
            "time": 209.474557975,
            "value": 0.2196044921875
          },
          {
            "ticks": 196075,
            "time": 209.4820366145833,
            "value": 0.2208251953125
          },
          {
            "ticks": 196083,
            "time": 209.49058363125,
            "value": 0.221923828125
          },
          {
            "ticks": 196090,
            "time": 209.49806227083332,
            "value": 0.2230224609375
          },
          {
            "ticks": 196098,
            "time": 209.5066092875,
            "value": 0.22412109375
          },
          {
            "ticks": 196105,
            "time": 209.51408792708332,
            "value": 0.2252197265625
          },
          {
            "ticks": 196113,
            "time": 209.52263494375,
            "value": 0.226318359375
          },
          {
            "ticks": 196120,
            "time": 209.5301135833333,
            "value": 0.2274169921875
          },
          {
            "ticks": 196128,
            "time": 209.5386606,
            "value": 0.228515625
          },
          {
            "ticks": 196135,
            "time": 209.5461392395833,
            "value": 0.229736328125
          },
          {
            "ticks": 196143,
            "time": 209.55468625625,
            "value": 0.2308349609375
          },
          {
            "ticks": 196150,
            "time": 209.56216489583332,
            "value": 0.23193359375
          },
          {
            "ticks": 196158,
            "time": 209.5707119125,
            "value": 0.2330322265625
          },
          {
            "ticks": 196165,
            "time": 209.5781905520833,
            "value": 0.234130859375
          },
          {
            "ticks": 196173,
            "time": 209.58673756875,
            "value": 0.2352294921875
          },
          {
            "ticks": 196180,
            "time": 209.5942162083333,
            "value": 0.236328125
          },
          {
            "ticks": 196188,
            "time": 209.602763225,
            "value": 0.237548828125
          },
          {
            "ticks": 196195,
            "time": 209.61024186458332,
            "value": 0.2386474609375
          },
          {
            "ticks": 196203,
            "time": 209.61878888125,
            "value": 0.23974609375
          },
          {
            "ticks": 196210,
            "time": 209.62626752083332,
            "value": 0.2408447265625
          },
          {
            "ticks": 196218,
            "time": 209.6348145375,
            "value": 0.241943359375
          },
          {
            "ticks": 196225,
            "time": 209.6422931770833,
            "value": 0.2430419921875
          },
          {
            "ticks": 196233,
            "time": 209.65084019375,
            "value": 0.244140625
          },
          {
            "ticks": 196240,
            "time": 209.6583188333333,
            "value": 0.245361328125
          },
          {
            "ticks": 196248,
            "time": 209.66686585,
            "value": 0.2464599609375
          },
          {
            "ticks": 196255,
            "time": 209.67434448958332,
            "value": 0.24755859375
          },
          {
            "ticks": 196263,
            "time": 209.68289150625,
            "value": 0.2486572265625
          },
          {
            "ticks": 196270,
            "time": 209.6903701458333,
            "value": 0.249755859375
          },
          {
            "ticks": 196278,
            "time": 209.6989171625,
            "value": 0.2508544921875
          },
          {
            "ticks": 196285,
            "time": 209.7063958020833,
            "value": 0.251953125
          },
          {
            "ticks": 196293,
            "time": 209.71494281875,
            "value": 0.2530517578125
          },
          {
            "ticks": 196300,
            "time": 209.72242145833332,
            "value": 0.2542724609375
          },
          {
            "ticks": 196308,
            "time": 209.730968475,
            "value": 0.25537109375
          },
          {
            "ticks": 196315,
            "time": 209.73844711458332,
            "value": 0.2564697265625
          },
          {
            "ticks": 196323,
            "time": 209.74699413125,
            "value": 0.257568359375
          },
          {
            "ticks": 196330,
            "time": 209.7544727708333,
            "value": 0.2586669921875
          },
          {
            "ticks": 196338,
            "time": 209.7630197875,
            "value": 0.259765625
          },
          {
            "ticks": 196345,
            "time": 209.7704984270833,
            "value": 0.2608642578125
          },
          {
            "ticks": 196350,
            "time": 209.77584031249998,
            "value": 0.26171875
          },
          {
            "ticks": 196358,
            "time": 209.78438732916663,
            "value": 0.3077392578125
          },
          {
            "ticks": 196365,
            "time": 209.79186596875,
            "value": 0.353759765625
          },
          {
            "ticks": 196373,
            "time": 209.80041298541664,
            "value": 0.3997802734375
          },
          {
            "ticks": 196380,
            "time": 209.807891625,
            "value": 0.44580078125
          },
          {
            "ticks": 196385,
            "time": 209.81323351041667,
            "value": 0.4765625
          },
          {
            "ticks": 196393,
            "time": 209.82178052708332,
            "value": 0.478759765625
          },
          {
            "ticks": 196400,
            "time": 209.82925916666667,
            "value": 0.48095703125
          },
          {
            "ticks": 196408,
            "time": 209.83780618333333,
            "value": 0.483154296875
          },
          {
            "ticks": 196415,
            "time": 209.84528482291665,
            "value": 0.4853515625
          },
          {
            "ticks": 196423,
            "time": 209.85383183958334,
            "value": 0.487548828125
          },
          {
            "ticks": 196425,
            "time": 209.85596859375,
            "value": 0.48828125
          },
          {
            "ticks": 196433,
            "time": 209.86451561041665,
            "value": 0.4892578125
          },
          {
            "ticks": 196440,
            "time": 209.87199425,
            "value": 0.490234375
          },
          {
            "ticks": 196448,
            "time": 209.88054126666665,
            "value": 0.4913330078125
          },
          {
            "ticks": 196455,
            "time": 209.88801990624998,
            "value": 0.4923095703125
          },
          {
            "ticks": 196463,
            "time": 209.89656692291663,
            "value": 0.493408203125
          },
          {
            "ticks": 196470,
            "time": 209.9040455625,
            "value": 0.494384765625
          },
          {
            "ticks": 196478,
            "time": 209.91259257916664,
            "value": 0.4954833984375
          },
          {
            "ticks": 196485,
            "time": 209.92007121875,
            "value": 0.4964599609375
          },
          {
            "ticks": 196493,
            "time": 209.92861823541665,
            "value": 0.49755859375
          },
          {
            "ticks": 196500,
            "time": 209.93609687499998,
            "value": 0.49853515625
          },
          {
            "ticks": 196508,
            "time": 209.94464389166666,
            "value": 0.4996337890625
          },
          {
            "ticks": 196510,
            "time": 209.94678064583331,
            "value": 0.5
          },
          {
            "ticks": 196518,
            "time": 209.9553276625,
            "value": 0.2857666015625
          },
          {
            "ticks": 196525,
            "time": 209.96280630208332,
            "value": 0.071533203125
          },
          {
            "ticks": 196528,
            "time": 209.96601143333334,
            "value": 0
          },
          {
            "ticks": 196549,
            "time": 209.9884473520833,
            "value": 0.0001220703125
          },
          {
            "ticks": 196560,
            "time": 210.00019949999998,
            "value": 0.000244140625
          },
          {
            "ticks": 196571,
            "time": 210.01195164791665,
            "value": 0.0003662109375
          },
          {
            "ticks": 196582,
            "time": 210.02370379583334,
            "value": 0.00048828125
          },
          {
            "ticks": 196592,
            "time": 210.03438756666665,
            "value": 0.0006103515625
          },
          {
            "ticks": 196604,
            "time": 210.04720809166665,
            "value": 0.000732421875
          },
          {
            "ticks": 196614,
            "time": 210.0578918625,
            "value": 0.0008544921875
          },
          {
            "ticks": 196625,
            "time": 210.06964401041665,
            "value": 0.0009765625
          },
          {
            "ticks": 196636,
            "time": 210.08139615833335,
            "value": 0.0010986328125
          },
          {
            "ticks": 196647,
            "time": 210.09314830625,
            "value": 0.001220703125
          },
          {
            "ticks": 196657,
            "time": 210.10383207708333,
            "value": 0.0013427734375
          },
          {
            "ticks": 196669,
            "time": 210.11665260208332,
            "value": 0.00146484375
          },
          {
            "ticks": 196679,
            "time": 210.12733637291663,
            "value": 0.0015869140625
          },
          {
            "ticks": 196690,
            "time": 210.13908852083333,
            "value": 0.001708984375
          },
          {
            "ticks": 196701,
            "time": 210.15084066875,
            "value": 0.0018310546875
          },
          {
            "ticks": 196712,
            "time": 210.16259281666666,
            "value": 0.001953125
          },
          {
            "ticks": 196722,
            "time": 210.17327658749997,
            "value": 0.0020751953125
          },
          {
            "ticks": 196734,
            "time": 210.1860971125,
            "value": 0.002197265625
          },
          {
            "ticks": 196744,
            "time": 210.1967808833333,
            "value": 0.0023193359375
          },
          {
            "ticks": 196755,
            "time": 210.20853303125,
            "value": 0.00244140625
          },
          {
            "ticks": 196766,
            "time": 210.22028517916667,
            "value": 0.0025634765625
          },
          {
            "ticks": 196777,
            "time": 210.23203732708333,
            "value": 0.002685546875
          },
          {
            "ticks": 196787,
            "time": 210.24272109791664,
            "value": 0.0028076171875
          },
          {
            "ticks": 196799,
            "time": 210.25554162291664,
            "value": 0.0029296875
          },
          {
            "ticks": 196809,
            "time": 210.26622539375,
            "value": 0.0030517578125
          },
          {
            "ticks": 196820,
            "time": 210.27797754166667,
            "value": 0.003173828125
          },
          {
            "ticks": 196831,
            "time": 210.28972968958334,
            "value": 0.0032958984375
          },
          {
            "ticks": 196842,
            "time": 210.30148183749998,
            "value": 0.00341796875
          },
          {
            "ticks": 196852,
            "time": 210.31216560833332,
            "value": 0.0035400390625
          },
          {
            "ticks": 196864,
            "time": 210.3249861333333,
            "value": 0.003662109375
          },
          {
            "ticks": 196874,
            "time": 210.33566990416665,
            "value": 0.0037841796875
          },
          {
            "ticks": 196885,
            "time": 210.34742205208332,
            "value": 0.00390625
          },
          {
            "ticks": 196896,
            "time": 210.35917419999998,
            "value": 0.0040283203125
          },
          {
            "ticks": 196907,
            "time": 210.37092634791665,
            "value": 0.004150390625
          },
          {
            "ticks": 196917,
            "time": 210.38161011875,
            "value": 0.0042724609375
          },
          {
            "ticks": 196929,
            "time": 210.39443064374998,
            "value": 0.00439453125
          },
          {
            "ticks": 196939,
            "time": 210.40511441458332,
            "value": 0.0045166015625
          },
          {
            "ticks": 196950,
            "time": 210.4168665625,
            "value": 0.004638671875
          },
          {
            "ticks": 196961,
            "time": 210.42861871041666,
            "value": 0.0047607421875
          },
          {
            "ticks": 196972,
            "time": 210.44037085833332,
            "value": 0.0048828125
          },
          {
            "ticks": 196982,
            "time": 210.45105462916666,
            "value": 0.0050048828125
          },
          {
            "ticks": 196994,
            "time": 210.46387515416663,
            "value": 0.005126953125
          },
          {
            "ticks": 197004,
            "time": 210.474558925,
            "value": 0.0052490234375
          },
          {
            "ticks": 197015,
            "time": 210.48631107291666,
            "value": 0.00537109375
          },
          {
            "ticks": 197026,
            "time": 210.49806322083333,
            "value": 0.0054931640625
          },
          {
            "ticks": 197037,
            "time": 210.50981536874997,
            "value": 0.005615234375
          },
          {
            "ticks": 197047,
            "time": 210.52049913958334,
            "value": 0.0057373046875
          },
          {
            "ticks": 197059,
            "time": 210.53331966458333,
            "value": 0.005859375
          },
          {
            "ticks": 197069,
            "time": 210.54400343541664,
            "value": 0.0059814453125
          },
          {
            "ticks": 197080,
            "time": 210.5557555833333,
            "value": 0.006103515625
          },
          {
            "ticks": 197091,
            "time": 210.56750773124998,
            "value": 0.0062255859375
          },
          {
            "ticks": 197102,
            "time": 210.57925987916664,
            "value": 0.00634765625
          },
          {
            "ticks": 197112,
            "time": 210.58994364999998,
            "value": 0.0064697265625
          },
          {
            "ticks": 197124,
            "time": 210.602764175,
            "value": 0.006591796875
          },
          {
            "ticks": 197134,
            "time": 210.61344794583331,
            "value": 0.0067138671875
          },
          {
            "ticks": 197145,
            "time": 210.62520009374998,
            "value": 0.0068359375
          },
          {
            "ticks": 197156,
            "time": 210.63695224166665,
            "value": 0.0069580078125
          },
          {
            "ticks": 197167,
            "time": 210.64870438958332,
            "value": 0.007080078125
          },
          {
            "ticks": 197177,
            "time": 210.65938816041665,
            "value": 0.0072021484375
          },
          {
            "ticks": 197189,
            "time": 210.67220868541665,
            "value": 0.00732421875
          },
          {
            "ticks": 197199,
            "time": 210.68289245625,
            "value": 0.0074462890625
          },
          {
            "ticks": 197210,
            "time": 210.69464460416665,
            "value": 0.007568359375
          },
          {
            "ticks": 197221,
            "time": 210.70639675208332,
            "value": 0.0076904296875
          },
          {
            "ticks": 197231,
            "time": 210.71708052291666,
            "value": 0.0078125
          },
          {
            "ticks": 197243,
            "time": 210.72990104791666,
            "value": 0.0079345703125
          },
          {
            "ticks": 197253,
            "time": 210.74058481875,
            "value": 0.008056640625
          },
          {
            "ticks": 197264,
            "time": 210.75233696666663,
            "value": 0.0081787109375
          },
          {
            "ticks": 197275,
            "time": 210.7640891145833,
            "value": 0.00830078125
          },
          {
            "ticks": 197286,
            "time": 210.7758412625,
            "value": 0.0084228515625
          },
          {
            "ticks": 197297,
            "time": 210.78759341041666,
            "value": 0.008544921875
          },
          {
            "ticks": 197307,
            "time": 210.79827718124997,
            "value": 0.0086669921875
          },
          {
            "ticks": 197319,
            "time": 210.81109770625,
            "value": 0.0087890625
          },
          {
            "ticks": 197329,
            "time": 210.8217814770833,
            "value": 0.0089111328125
          },
          {
            "ticks": 197340,
            "time": 210.833533625,
            "value": 0.009033203125
          },
          {
            "ticks": 197351,
            "time": 210.84528577291667,
            "value": 0.0091552734375
          },
          {
            "ticks": 197362,
            "time": 210.85703792083333,
            "value": 0.00927734375
          },
          {
            "ticks": 197372,
            "time": 210.86772169166665,
            "value": 0.0093994140625
          },
          {
            "ticks": 197384,
            "time": 210.88054221666664,
            "value": 0.009521484375
          },
          {
            "ticks": 197394,
            "time": 210.8912259875,
            "value": 0.0096435546875
          },
          {
            "ticks": 197405,
            "time": 210.90297813541667,
            "value": 0.009765625
          },
          {
            "ticks": 197416,
            "time": 210.91473028333334,
            "value": 0.0098876953125
          },
          {
            "ticks": 197427,
            "time": 210.92648243124998,
            "value": 0.010009765625
          },
          {
            "ticks": 197437,
            "time": 210.93716620208332,
            "value": 0.0101318359375
          },
          {
            "ticks": 197449,
            "time": 210.9499867270833,
            "value": 0.01025390625
          },
          {
            "ticks": 197459,
            "time": 210.96067049791665,
            "value": 0.0103759765625
          },
          {
            "ticks": 197470,
            "time": 210.97242264583332,
            "value": 0.010498046875
          },
          {
            "ticks": 197481,
            "time": 210.98417479375,
            "value": 0.0106201171875
          },
          {
            "ticks": 197492,
            "time": 210.99592694166665,
            "value": 0.0107421875
          },
          {
            "ticks": 197502,
            "time": 211.00661071249996,
            "value": 0.0108642578125
          },
          {
            "ticks": 197514,
            "time": 211.0194312375,
            "value": 0.010986328125
          },
          {
            "ticks": 197524,
            "time": 211.03011500833333,
            "value": 0.0111083984375
          },
          {
            "ticks": 197535,
            "time": 211.04186715625,
            "value": 0.01123046875
          },
          {
            "ticks": 197546,
            "time": 211.05361930416666,
            "value": 0.0113525390625
          },
          {
            "ticks": 197557,
            "time": 211.06537145208333,
            "value": 0.011474609375
          },
          {
            "ticks": 197567,
            "time": 211.07605522291666,
            "value": 0.0115966796875
          },
          {
            "ticks": 197579,
            "time": 211.08887574791663,
            "value": 0.01171875
          },
          {
            "ticks": 197589,
            "time": 211.09955951875,
            "value": 0.0118408203125
          },
          {
            "ticks": 197600,
            "time": 211.11131166666667,
            "value": 0.011962890625
          },
          {
            "ticks": 197611,
            "time": 211.12306381458333,
            "value": 0.0120849609375
          },
          {
            "ticks": 197621,
            "time": 211.13374758541667,
            "value": 0.01220703125
          },
          {
            "ticks": 197633,
            "time": 211.14656811041664,
            "value": 0.0123291015625
          },
          {
            "ticks": 197643,
            "time": 211.15725188125,
            "value": 0.012451171875
          },
          {
            "ticks": 197654,
            "time": 211.16900402916664,
            "value": 0.0125732421875
          },
          {
            "ticks": 197665,
            "time": 211.1807561770833,
            "value": 0.0126953125
          },
          {
            "ticks": 197676,
            "time": 211.19250832499998,
            "value": 0.0128173828125
          },
          {
            "ticks": 197686,
            "time": 211.20319209583334,
            "value": 0.012939453125
          },
          {
            "ticks": 197698,
            "time": 211.2160126208333,
            "value": 0.0130615234375
          },
          {
            "ticks": 197708,
            "time": 211.22669639166665,
            "value": 0.01318359375
          },
          {
            "ticks": 197719,
            "time": 211.23844853958332,
            "value": 0.0133056640625
          },
          {
            "ticks": 197730,
            "time": 211.25020068749998,
            "value": 0.013427734375
          },
          {
            "ticks": 197741,
            "time": 211.26195283541665,
            "value": 0.0135498046875
          },
          {
            "ticks": 197751,
            "time": 211.27263660625,
            "value": 0.013671875
          },
          {
            "ticks": 197763,
            "time": 211.28545713125,
            "value": 0.0137939453125
          },
          {
            "ticks": 197773,
            "time": 211.29614090208332,
            "value": 0.013916015625
          },
          {
            "ticks": 197784,
            "time": 211.30789305,
            "value": 0.0140380859375
          },
          {
            "ticks": 197795,
            "time": 211.31964519791666,
            "value": 0.01416015625
          },
          {
            "ticks": 197806,
            "time": 211.33139734583332,
            "value": 0.0142822265625
          },
          {
            "ticks": 197816,
            "time": 211.34208111666666,
            "value": 0.014404296875
          },
          {
            "ticks": 197828,
            "time": 211.35490164166666,
            "value": 0.0145263671875
          },
          {
            "ticks": 197838,
            "time": 211.3655854125,
            "value": 0.0146484375
          },
          {
            "ticks": 197849,
            "time": 211.37733756041663,
            "value": 0.0147705078125
          },
          {
            "ticks": 197860,
            "time": 211.3890897083333,
            "value": 0.014892578125
          },
          {
            "ticks": 197871,
            "time": 211.40084185624997,
            "value": 0.0150146484375
          },
          {
            "ticks": 197881,
            "time": 211.41152562708334,
            "value": 0.01513671875
          },
          {
            "ticks": 197893,
            "time": 211.42434615208333,
            "value": 0.0152587890625
          },
          {
            "ticks": 197903,
            "time": 211.43502992291664,
            "value": 0.015380859375
          },
          {
            "ticks": 197914,
            "time": 211.4467820708333,
            "value": 0.0155029296875
          },
          {
            "ticks": 197925,
            "time": 211.45853421874997,
            "value": 0.015625
          },
          {
            "ticks": 197936,
            "time": 211.47028636666667,
            "value": 0.0157470703125
          },
          {
            "ticks": 197946,
            "time": 211.48097013749998,
            "value": 0.015869140625
          },
          {
            "ticks": 197958,
            "time": 211.4937906625,
            "value": 0.0159912109375
          },
          {
            "ticks": 197968,
            "time": 211.5044744333333,
            "value": 0.01611328125
          },
          {
            "ticks": 197979,
            "time": 211.51622658124998,
            "value": 0.0162353515625
          },
          {
            "ticks": 197990,
            "time": 211.52797872916668,
            "value": 0.016357421875
          },
          {
            "ticks": 198001,
            "time": 211.53973087708334,
            "value": 0.0164794921875
          },
          {
            "ticks": 198011,
            "time": 211.55041464791665,
            "value": 0.0166015625
          },
          {
            "ticks": 198023,
            "time": 211.56323517291665,
            "value": 0.0167236328125
          },
          {
            "ticks": 198033,
            "time": 211.57391894375,
            "value": 0.016845703125
          },
          {
            "ticks": 198044,
            "time": 211.58567109166665,
            "value": 0.0169677734375
          },
          {
            "ticks": 198055,
            "time": 211.59742323958332,
            "value": 0.01708984375
          },
          {
            "ticks": 198066,
            "time": 211.6091753875,
            "value": 0.0172119140625
          },
          {
            "ticks": 198076,
            "time": 211.61985915833333,
            "value": 0.017333984375
          },
          {
            "ticks": 198088,
            "time": 211.63267968333332,
            "value": 0.0174560546875
          },
          {
            "ticks": 198098,
            "time": 211.64336345416666,
            "value": 0.017578125
          },
          {
            "ticks": 198109,
            "time": 211.65511560208333,
            "value": 0.0177001953125
          },
          {
            "ticks": 198120,
            "time": 211.66686775,
            "value": 0.017822265625
          },
          {
            "ticks": 198131,
            "time": 211.67861989791666,
            "value": 0.0179443359375
          },
          {
            "ticks": 198141,
            "time": 211.68930366874997,
            "value": 0.01806640625
          },
          {
            "ticks": 198153,
            "time": 211.70212419375,
            "value": 0.0181884765625
          },
          {
            "ticks": 198163,
            "time": 211.71280796458333,
            "value": 0.018310546875
          },
          {
            "ticks": 198174,
            "time": 211.7245601125,
            "value": 0.0184326171875
          },
          {
            "ticks": 198185,
            "time": 211.73631226041667,
            "value": 0.0185546875
          },
          {
            "ticks": 198196,
            "time": 211.74806440833333,
            "value": 0.0186767578125
          },
          {
            "ticks": 198206,
            "time": 211.75874817916664,
            "value": 0.018798828125
          },
          {
            "ticks": 198218,
            "time": 211.77156870416664,
            "value": 0.0189208984375
          },
          {
            "ticks": 198228,
            "time": 211.782252475,
            "value": 0.01904296875
          },
          {
            "ticks": 198239,
            "time": 211.79400462291665,
            "value": 0.0191650390625
          },
          {
            "ticks": 198250,
            "time": 211.8057567708333,
            "value": 0.019287109375
          },
          {
            "ticks": 198261,
            "time": 211.81750891874998,
            "value": 0.0194091796875
          },
          {
            "ticks": 198271,
            "time": 211.82819268958335,
            "value": 0.01953125
          },
          {
            "ticks": 198283,
            "time": 211.8410132145833,
            "value": 0.0196533203125
          },
          {
            "ticks": 198293,
            "time": 211.85169698541665,
            "value": 0.019775390625
          },
          {
            "ticks": 198304,
            "time": 211.86344913333332,
            "value": 0.0198974609375
          },
          {
            "ticks": 198315,
            "time": 211.87520128124999,
            "value": 0.02001953125
          },
          {
            "ticks": 198326,
            "time": 211.88695342916665,
            "value": 0.0201416015625
          },
          {
            "ticks": 198336,
            "time": 211.8976372,
            "value": 0.020263671875
          },
          {
            "ticks": 198348,
            "time": 211.910457725,
            "value": 0.0203857421875
          },
          {
            "ticks": 198358,
            "time": 211.92114149583333,
            "value": 0.0205078125
          },
          {
            "ticks": 198369,
            "time": 211.93289364375,
            "value": 0.0206298828125
          },
          {
            "ticks": 198380,
            "time": 211.94464579166666,
            "value": 0.020751953125
          },
          {
            "ticks": 198391,
            "time": 211.95639793958333,
            "value": 0.0208740234375
          },
          {
            "ticks": 198401,
            "time": 211.96708171041666,
            "value": 0.02099609375
          },
          {
            "ticks": 198413,
            "time": 211.97990223541666,
            "value": 0.0211181640625
          },
          {
            "ticks": 198423,
            "time": 211.99058600625,
            "value": 0.021240234375
          },
          {
            "ticks": 198434,
            "time": 212.00233815416664,
            "value": 0.0213623046875
          },
          {
            "ticks": 198445,
            "time": 212.0140903020833,
            "value": 0.021484375
          },
          {
            "ticks": 198456,
            "time": 212.02584244999997,
            "value": 0.0216064453125
          },
          {
            "ticks": 198466,
            "time": 212.03652622083334,
            "value": 0.021728515625
          },
          {
            "ticks": 198478,
            "time": 212.04934674583333,
            "value": 0.0218505859375
          },
          {
            "ticks": 198488,
            "time": 212.06003051666664,
            "value": 0.02197265625
          },
          {
            "ticks": 198499,
            "time": 212.0717826645833,
            "value": 0.0220947265625
          },
          {
            "ticks": 198510,
            "time": 212.08353481249998,
            "value": 0.022216796875
          },
          {
            "ticks": 198521,
            "time": 212.09528696041667,
            "value": 0.0223388671875
          },
          {
            "ticks": 198531,
            "time": 212.10597073124998,
            "value": 0.0224609375
          },
          {
            "ticks": 198543,
            "time": 212.11879125625,
            "value": 0.0225830078125
          },
          {
            "ticks": 198553,
            "time": 212.12947502708332,
            "value": 0.022705078125
          },
          {
            "ticks": 198564,
            "time": 212.14122717499998,
            "value": 0.0228271484375
          },
          {
            "ticks": 198575,
            "time": 212.15297932291668,
            "value": 0.02294921875
          },
          {
            "ticks": 198586,
            "time": 212.16473147083335,
            "value": 0.0230712890625
          },
          {
            "ticks": 198596,
            "time": 212.17541524166666,
            "value": 0.023193359375
          },
          {
            "ticks": 198608,
            "time": 212.18823576666665,
            "value": 0.0233154296875
          },
          {
            "ticks": 198618,
            "time": 212.1989195375,
            "value": 0.0234375
          },
          {
            "ticks": 198629,
            "time": 212.21067168541663,
            "value": 0.0235595703125
          },
          {
            "ticks": 198640,
            "time": 212.22242383333332,
            "value": 0.023681640625
          },
          {
            "ticks": 198651,
            "time": 212.23417598125,
            "value": 0.0238037109375
          },
          {
            "ticks": 198661,
            "time": 212.24485975208333,
            "value": 0.02392578125
          },
          {
            "ticks": 198673,
            "time": 212.25768027708332,
            "value": 0.0240478515625
          },
          {
            "ticks": 198683,
            "time": 212.26836404791663,
            "value": 0.024169921875
          },
          {
            "ticks": 198694,
            "time": 212.28011619583333,
            "value": 0.0242919921875
          },
          {
            "ticks": 198705,
            "time": 212.29186834375,
            "value": 0.0244140625
          },
          {
            "ticks": 198715,
            "time": 212.3025521145833,
            "value": 0.0245361328125
          },
          {
            "ticks": 198727,
            "time": 212.31537263958333,
            "value": 0.024658203125
          },
          {
            "ticks": 198737,
            "time": 212.32605641041664,
            "value": 0.0247802734375
          },
          {
            "ticks": 198748,
            "time": 212.33780855833334,
            "value": 0.02490234375
          },
          {
            "ticks": 198759,
            "time": 212.34956070625,
            "value": 0.0250244140625
          },
          {
            "ticks": 198770,
            "time": 212.36131285416667,
            "value": 0.025146484375
          },
          {
            "ticks": 198780,
            "time": 212.37199662499998,
            "value": 0.0252685546875
          },
          {
            "ticks": 198792,
            "time": 212.38481714999998,
            "value": 0.025390625
          },
          {
            "ticks": 198802,
            "time": 212.39550092083334,
            "value": 0.0255126953125
          },
          {
            "ticks": 198813,
            "time": 212.40725306875,
            "value": 0.025634765625
          },
          {
            "ticks": 198824,
            "time": 212.41900521666665,
            "value": 0.0257568359375
          },
          {
            "ticks": 198835,
            "time": 212.43075736458331,
            "value": 0.02587890625
          },
          {
            "ticks": 198845,
            "time": 212.44144113541665,
            "value": 0.0260009765625
          },
          {
            "ticks": 198857,
            "time": 212.45426166041665,
            "value": 0.026123046875
          },
          {
            "ticks": 198868,
            "time": 212.46601380833332,
            "value": 0.0262451171875
          },
          {
            "ticks": 198878,
            "time": 212.47669757916665,
            "value": 0.0263671875
          },
          {
            "ticks": 198889,
            "time": 212.48844972708332,
            "value": 0.0264892578125
          },
          {
            "ticks": 198900,
            "time": 212.500201875,
            "value": 0.026611328125
          },
          {
            "ticks": 198910,
            "time": 212.5108856458333,
            "value": 0.0267333984375
          },
          {
            "ticks": 198922,
            "time": 212.52370617083332,
            "value": 0.02685546875
          },
          {
            "ticks": 198932,
            "time": 212.53438994166666,
            "value": 0.0269775390625
          },
          {
            "ticks": 198943,
            "time": 212.54614208958333,
            "value": 0.027099609375
          },
          {
            "ticks": 198954,
            "time": 212.5578942375,
            "value": 0.0272216796875
          },
          {
            "ticks": 198965,
            "time": 212.56964638541666,
            "value": 0.02734375
          },
          {
            "ticks": 198975,
            "time": 212.58033015625,
            "value": 0.0274658203125
          },
          {
            "ticks": 198987,
            "time": 212.59315068124997,
            "value": 0.027587890625
          },
          {
            "ticks": 198997,
            "time": 212.60383445208333,
            "value": 0.0277099609375
          },
          {
            "ticks": 199008,
            "time": 212.6155866,
            "value": 0.02783203125
          },
          {
            "ticks": 199019,
            "time": 212.62733874791664,
            "value": 0.0279541015625
          },
          {
            "ticks": 199030,
            "time": 212.6390908958333,
            "value": 0.028076171875
          },
          {
            "ticks": 199040,
            "time": 212.64977466666667,
            "value": 0.0281982421875
          },
          {
            "ticks": 199052,
            "time": 212.66259519166664,
            "value": 0.0283203125
          },
          {
            "ticks": 199063,
            "time": 212.67434733958333,
            "value": 0.0284423828125
          },
          {
            "ticks": 199073,
            "time": 212.68503111041665,
            "value": 0.028564453125
          },
          {
            "ticks": 199084,
            "time": 212.6967832583333,
            "value": 0.0286865234375
          },
          {
            "ticks": 199095,
            "time": 212.70853540624998,
            "value": 0.02880859375
          },
          {
            "ticks": 199105,
            "time": 212.71921917708332,
            "value": 0.0289306640625
          },
          {
            "ticks": 199117,
            "time": 212.73203970208334,
            "value": 0.029052734375
          },
          {
            "ticks": 199127,
            "time": 212.74272347291665,
            "value": 0.0291748046875
          },
          {
            "ticks": 199138,
            "time": 212.75447562083332,
            "value": 0.029296875
          },
          {
            "ticks": 199149,
            "time": 212.76622776874999,
            "value": 0.0294189453125
          },
          {
            "ticks": 199160,
            "time": 212.77797991666665,
            "value": 0.029541015625
          },
          {
            "ticks": 199170,
            "time": 212.7886636875,
            "value": 0.0296630859375
          },
          {
            "ticks": 199182,
            "time": 212.8014842125,
            "value": 0.02978515625
          },
          {
            "ticks": 199192,
            "time": 212.81216798333332,
            "value": 0.0299072265625
          },
          {
            "ticks": 199203,
            "time": 212.82392013125,
            "value": 0.030029296875
          },
          {
            "ticks": 199214,
            "time": 212.83567227916663,
            "value": 0.0301513671875
          },
          {
            "ticks": 199225,
            "time": 212.84742442708333,
            "value": 0.0302734375
          },
          {
            "ticks": 199235,
            "time": 212.85810819791666,
            "value": 0.0303955078125
          },
          {
            "ticks": 199247,
            "time": 212.87092872291666,
            "value": 0.030517578125
          },
          {
            "ticks": 199257,
            "time": 212.88161249374997,
            "value": 0.0306396484375
          },
          {
            "ticks": 199268,
            "time": 212.89336464166664,
            "value": 0.03076171875
          },
          {
            "ticks": 199279,
            "time": 212.90511678958333,
            "value": 0.0308837890625
          },
          {
            "ticks": 199290,
            "time": 212.9168689375,
            "value": 0.031005859375
          },
          {
            "ticks": 199300,
            "time": 212.9275527083333,
            "value": 0.0311279296875
          },
          {
            "ticks": 199312,
            "time": 212.94037323333333,
            "value": 0.03125
          },
          {
            "ticks": 199322,
            "time": 212.95105700416664,
            "value": 0.0313720703125
          },
          {
            "ticks": 199333,
            "time": 212.9628091520833,
            "value": 0.031494140625
          },
          {
            "ticks": 199344,
            "time": 212.9745613,
            "value": 0.0316162109375
          },
          {
            "ticks": 199355,
            "time": 212.98631344791667,
            "value": 0.03173828125
          },
          {
            "ticks": 199365,
            "time": 212.99699721874998,
            "value": 0.0318603515625
          },
          {
            "ticks": 199377,
            "time": 213.00981774374998,
            "value": 0.031982421875
          },
          {
            "ticks": 199387,
            "time": 213.02050151458332,
            "value": 0.0321044921875
          },
          {
            "ticks": 199398,
            "time": 213.0322536625,
            "value": 0.0322265625
          },
          {
            "ticks": 199409,
            "time": 213.04400581041665,
            "value": 0.0323486328125
          },
          {
            "ticks": 199420,
            "time": 213.05575795833332,
            "value": 0.032470703125
          },
          {
            "ticks": 199430,
            "time": 213.06644172916666,
            "value": 0.0325927734375
          },
          {
            "ticks": 199442,
            "time": 213.07926225416665,
            "value": 0.03271484375
          },
          {
            "ticks": 199452,
            "time": 213.089946025,
            "value": 0.0328369140625
          },
          {
            "ticks": 199463,
            "time": 213.10169817291666,
            "value": 0.032958984375
          },
          {
            "ticks": 199474,
            "time": 213.11345032083332,
            "value": 0.0330810546875
          },
          {
            "ticks": 199485,
            "time": 213.12520246875,
            "value": 0.033203125
          },
          {
            "ticks": 199495,
            "time": 213.1358862395833,
            "value": 0.0333251953125
          },
          {
            "ticks": 199507,
            "time": 213.14870676458332,
            "value": 0.033447265625
          },
          {
            "ticks": 199517,
            "time": 213.15939053541666,
            "value": 0.0335693359375
          },
          {
            "ticks": 199528,
            "time": 213.17114268333333,
            "value": 0.03369140625
          },
          {
            "ticks": 199539,
            "time": 213.18289483125,
            "value": 0.0338134765625
          },
          {
            "ticks": 199550,
            "time": 213.19464697916666,
            "value": 0.033935546875
          },
          {
            "ticks": 199560,
            "time": 213.20533075,
            "value": 0.0340576171875
          },
          {
            "ticks": 199571,
            "time": 213.21708289791667,
            "value": 0.0341796875
          },
          {
            "ticks": 199583,
            "time": 213.22990342291664,
            "value": 0.0343017578125
          },
          {
            "ticks": 199593,
            "time": 213.24058719375,
            "value": 0.034423828125
          },
          {
            "ticks": 199604,
            "time": 213.25233934166664,
            "value": 0.0345458984375
          },
          {
            "ticks": 199615,
            "time": 213.2640914895833,
            "value": 0.03466796875
          },
          {
            "ticks": 199625,
            "time": 213.27477526041667,
            "value": 0.0347900390625
          },
          {
            "ticks": 199637,
            "time": 213.28759578541664,
            "value": 0.034912109375
          },
          {
            "ticks": 199647,
            "time": 213.29827955624998,
            "value": 0.0350341796875
          },
          {
            "ticks": 199658,
            "time": 213.31003170416665,
            "value": 0.03515625
          },
          {
            "ticks": 199669,
            "time": 213.3217838520833,
            "value": 0.0352783203125
          },
          {
            "ticks": 199680,
            "time": 213.33353599999998,
            "value": 0.035400390625
          },
          {
            "ticks": 199690,
            "time": 213.34421977083332,
            "value": 0.0355224609375
          },
          {
            "ticks": 199702,
            "time": 213.35704029583334,
            "value": 0.03564453125
          },
          {
            "ticks": 199712,
            "time": 213.36772406666665,
            "value": 0.0357666015625
          },
          {
            "ticks": 199723,
            "time": 213.37947621458332,
            "value": 0.035888671875
          },
          {
            "ticks": 199734,
            "time": 213.3912283625,
            "value": 0.0360107421875
          },
          {
            "ticks": 199744,
            "time": 213.40191213333333,
            "value": 0.0361328125
          },
          {
            "ticks": 199756,
            "time": 213.41473265833332,
            "value": 0.0362548828125
          },
          {
            "ticks": 199766,
            "time": 213.42541642916666,
            "value": 0.036376953125
          },
          {
            "ticks": 199777,
            "time": 213.43716857708333,
            "value": 0.0364990234375
          },
          {
            "ticks": 199788,
            "time": 213.448920725,
            "value": 0.03662109375
          },
          {
            "ticks": 199799,
            "time": 213.46067287291663,
            "value": 0.0367431640625
          },
          {
            "ticks": 199809,
            "time": 213.47135664375,
            "value": 0.036865234375
          },
          {
            "ticks": 199821,
            "time": 213.48417716875,
            "value": 0.0369873046875
          },
          {
            "ticks": 199831,
            "time": 213.49486093958333,
            "value": 0.037109375
          },
          {
            "ticks": 199842,
            "time": 213.50661308749997,
            "value": 0.0372314453125
          },
          {
            "ticks": 199853,
            "time": 213.51836523541664,
            "value": 0.037353515625
          },
          {
            "ticks": 199864,
            "time": 213.5301173833333,
            "value": 0.0374755859375
          },
          {
            "ticks": 199874,
            "time": 213.54080115416664,
            "value": 0.03759765625
          },
          {
            "ticks": 199886,
            "time": 213.55362167916667,
            "value": 0.0377197265625
          },
          {
            "ticks": 199896,
            "time": 213.56430544999998,
            "value": 0.037841796875
          },
          {
            "ticks": 199907,
            "time": 213.57605759791664,
            "value": 0.0379638671875
          },
          {
            "ticks": 199918,
            "time": 213.5878097458333,
            "value": 0.0380859375
          },
          {
            "ticks": 199929,
            "time": 213.59956189375,
            "value": 0.0382080078125
          },
          {
            "ticks": 199939,
            "time": 213.61024566458332,
            "value": 0.038330078125
          },
          {
            "ticks": 199951,
            "time": 213.62306618958334,
            "value": 0.0384521484375
          },
          {
            "ticks": 199961,
            "time": 213.63374996041665,
            "value": 0.03857421875
          },
          {
            "ticks": 199972,
            "time": 213.64550210833332,
            "value": 0.0386962890625
          },
          {
            "ticks": 199983,
            "time": 213.65725425625,
            "value": 0.038818359375
          },
          {
            "ticks": 199994,
            "time": 213.66900640416665,
            "value": 0.0389404296875
          },
          {
            "ticks": 200004,
            "time": 213.679690175,
            "value": 0.0390625
          },
          {
            "ticks": 200016,
            "time": 213.69251069999999,
            "value": 0.0391845703125
          },
          {
            "ticks": 200026,
            "time": 213.70319447083332,
            "value": 0.039306640625
          },
          {
            "ticks": 200037,
            "time": 213.71494661874996,
            "value": 0.0394287109375
          },
          {
            "ticks": 200048,
            "time": 213.72669876666666,
            "value": 0.03955078125
          },
          {
            "ticks": 200059,
            "time": 213.73845091458332,
            "value": 0.0396728515625
          },
          {
            "ticks": 200069,
            "time": 213.74913468541664,
            "value": 0.039794921875
          },
          {
            "ticks": 200081,
            "time": 213.76195521041666,
            "value": 0.0399169921875
          },
          {
            "ticks": 200091,
            "time": 213.77263898124997,
            "value": 0.0400390625
          },
          {
            "ticks": 200102,
            "time": 213.78439112916666,
            "value": 0.0401611328125
          },
          {
            "ticks": 200113,
            "time": 213.79614327708333,
            "value": 0.040283203125
          },
          {
            "ticks": 200124,
            "time": 213.807895425,
            "value": 0.0404052734375
          },
          {
            "ticks": 200134,
            "time": 213.8185791958333,
            "value": 0.04052734375
          },
          {
            "ticks": 200146,
            "time": 213.83139972083333,
            "value": 0.0406494140625
          },
          {
            "ticks": 200156,
            "time": 213.84208349166667,
            "value": 0.040771484375
          },
          {
            "ticks": 200167,
            "time": 213.85383563958334,
            "value": 0.0408935546875
          },
          {
            "ticks": 200178,
            "time": 213.8655877875,
            "value": 0.041015625
          },
          {
            "ticks": 200189,
            "time": 213.87733993541664,
            "value": 0.0411376953125
          },
          {
            "ticks": 200199,
            "time": 213.88802370624998,
            "value": 0.041259765625
          },
          {
            "ticks": 200211,
            "time": 213.90084423124998,
            "value": 0.0413818359375
          },
          {
            "ticks": 200221,
            "time": 213.91152800208334,
            "value": 0.04150390625
          },
          {
            "ticks": 200232,
            "time": 213.92328014999998,
            "value": 0.0416259765625
          },
          {
            "ticks": 200243,
            "time": 213.93503229791665,
            "value": 0.041748046875
          },
          {
            "ticks": 200254,
            "time": 213.94678444583332,
            "value": 0.0418701171875
          },
          {
            "ticks": 200264,
            "time": 213.95746821666665,
            "value": 0.0419921875
          },
          {
            "ticks": 200276,
            "time": 213.97028874166665,
            "value": 0.0421142578125
          },
          {
            "ticks": 200286,
            "time": 213.9809725125,
            "value": 0.042236328125
          },
          {
            "ticks": 200297,
            "time": 213.99272466041666,
            "value": 0.0423583984375
          },
          {
            "ticks": 200308,
            "time": 214.00447680833332,
            "value": 0.04248046875
          },
          {
            "ticks": 200319,
            "time": 214.01622895625,
            "value": 0.0426025390625
          },
          {
            "ticks": 200329,
            "time": 214.02691272708333,
            "value": 0.042724609375
          },
          {
            "ticks": 200341,
            "time": 214.03973325208332,
            "value": 0.0428466796875
          },
          {
            "ticks": 200351,
            "time": 214.05041702291666,
            "value": 0.04296875
          },
          {
            "ticks": 200362,
            "time": 214.06216917083333,
            "value": 0.0430908203125
          },
          {
            "ticks": 200373,
            "time": 214.07392131875,
            "value": 0.043212890625
          },
          {
            "ticks": 200384,
            "time": 214.08567346666663,
            "value": 0.0433349609375
          },
          {
            "ticks": 200394,
            "time": 214.0963572375,
            "value": 0.04345703125
          },
          {
            "ticks": 200406,
            "time": 214.1091777625,
            "value": 0.0435791015625
          },
          {
            "ticks": 200416,
            "time": 214.11986153333334,
            "value": 0.043701171875
          },
          {
            "ticks": 200427,
            "time": 214.13161368124997,
            "value": 0.0438232421875
          },
          {
            "ticks": 200438,
            "time": 214.14336582916664,
            "value": 0.0439453125
          },
          {
            "ticks": 200449,
            "time": 214.1551179770833,
            "value": 0.0440673828125
          },
          {
            "ticks": 200459,
            "time": 214.16580174791665,
            "value": 0.044189453125
          },
          {
            "ticks": 200471,
            "time": 214.17862227291667,
            "value": 0.0443115234375
          },
          {
            "ticks": 200481,
            "time": 214.18930604374998,
            "value": 0.04443359375
          },
          {
            "ticks": 200492,
            "time": 214.20105819166665,
            "value": 0.0445556640625
          },
          {
            "ticks": 200503,
            "time": 214.2128103395833,
            "value": 0.044677734375
          },
          {
            "ticks": 200514,
            "time": 214.22456248749998,
            "value": 0.0447998046875
          },
          {
            "ticks": 200524,
            "time": 214.23524625833332,
            "value": 0.044921875
          },
          {
            "ticks": 200536,
            "time": 214.24806678333334,
            "value": 0.0450439453125
          },
          {
            "ticks": 200546,
            "time": 214.25875055416665,
            "value": 0.045166015625
          },
          {
            "ticks": 200557,
            "time": 214.27050270208332,
            "value": 0.0452880859375
          },
          {
            "ticks": 200568,
            "time": 214.28225485,
            "value": 0.04541015625
          },
          {
            "ticks": 200579,
            "time": 214.29400699791665,
            "value": 0.0455322265625
          },
          {
            "ticks": 200589,
            "time": 214.30469076875,
            "value": 0.045654296875
          },
          {
            "ticks": 200601,
            "time": 214.31751129375,
            "value": 0.0457763671875
          },
          {
            "ticks": 200611,
            "time": 214.32819506458333,
            "value": 0.0458984375
          },
          {
            "ticks": 200622,
            "time": 214.33994721249996,
            "value": 0.0460205078125
          },
          {
            "ticks": 200633,
            "time": 214.35169936041666,
            "value": 0.046142578125
          },
          {
            "ticks": 200644,
            "time": 214.36345150833333,
            "value": 0.0462646484375
          },
          {
            "ticks": 200654,
            "time": 214.37413527916664,
            "value": 0.04638671875
          },
          {
            "ticks": 200666,
            "time": 214.38695580416666,
            "value": 0.0465087890625
          },
          {
            "ticks": 200676,
            "time": 214.39763957499997,
            "value": 0.046630859375
          },
          {
            "ticks": 200687,
            "time": 214.40939172291667,
            "value": 0.0467529296875
          },
          {
            "ticks": 200698,
            "time": 214.42114387083333,
            "value": 0.046875
          },
          {
            "ticks": 200709,
            "time": 214.43289601875,
            "value": 0.0469970703125
          },
          {
            "ticks": 200719,
            "time": 214.4435797895833,
            "value": 0.047119140625
          },
          {
            "ticks": 200731,
            "time": 214.45640031458333,
            "value": 0.0472412109375
          },
          {
            "ticks": 200741,
            "time": 214.46708408541667,
            "value": 0.04736328125
          },
          {
            "ticks": 200752,
            "time": 214.47883623333334,
            "value": 0.0474853515625
          },
          {
            "ticks": 200763,
            "time": 214.49058838125,
            "value": 0.047607421875
          },
          {
            "ticks": 200774,
            "time": 214.50234052916664,
            "value": 0.0477294921875
          },
          {
            "ticks": 200784,
            "time": 214.51302429999998,
            "value": 0.0478515625
          },
          {
            "ticks": 200796,
            "time": 214.52584482499998,
            "value": 0.0479736328125
          },
          {
            "ticks": 200806,
            "time": 214.53652859583335,
            "value": 0.048095703125
          },
          {
            "ticks": 200817,
            "time": 214.54828074374998,
            "value": 0.0482177734375
          },
          {
            "ticks": 200828,
            "time": 214.56003289166665,
            "value": 0.04833984375
          },
          {
            "ticks": 200838,
            "time": 214.5707166625,
            "value": 0.0484619140625
          },
          {
            "ticks": 200850,
            "time": 214.58353718749999,
            "value": 0.048583984375
          },
          {
            "ticks": 200860,
            "time": 214.59422095833332,
            "value": 0.0487060546875
          },
          {
            "ticks": 200871,
            "time": 214.60597310625,
            "value": 0.048828125
          },
          {
            "ticks": 200882,
            "time": 214.61772525416666,
            "value": 0.0489501953125
          },
          {
            "ticks": 200893,
            "time": 214.62947740208332,
            "value": 0.049072265625
          },
          {
            "ticks": 200903,
            "time": 214.64016117291663,
            "value": 0.0491943359375
          },
          {
            "ticks": 200915,
            "time": 214.65298169791666,
            "value": 0.04931640625
          },
          {
            "ticks": 200925,
            "time": 214.66366546875,
            "value": 0.0494384765625
          },
          {
            "ticks": 200936,
            "time": 214.67541761666666,
            "value": 0.049560546875
          },
          {
            "ticks": 200947,
            "time": 214.68716976458333,
            "value": 0.0496826171875
          },
          {
            "ticks": 200958,
            "time": 214.6989219125,
            "value": 0.0498046875
          },
          {
            "ticks": 200968,
            "time": 214.70960568333334,
            "value": 0.0499267578125
          },
          {
            "ticks": 200980,
            "time": 214.7224262083333,
            "value": 0.050048828125
          },
          {
            "ticks": 200990,
            "time": 214.73310997916667,
            "value": 0.0501708984375
          },
          {
            "ticks": 201001,
            "time": 214.74486212708334,
            "value": 0.05029296875
          },
          {
            "ticks": 201012,
            "time": 214.75661427499998,
            "value": 0.0504150390625
          },
          {
            "ticks": 201023,
            "time": 214.76836642291664,
            "value": 0.050537109375
          },
          {
            "ticks": 201033,
            "time": 214.77905019375,
            "value": 0.0506591796875
          },
          {
            "ticks": 201045,
            "time": 214.79187071874998,
            "value": 0.05078125
          },
          {
            "ticks": 201055,
            "time": 214.80255448958331,
            "value": 0.0509033203125
          },
          {
            "ticks": 201066,
            "time": 214.81430663749998,
            "value": 0.051025390625
          },
          {
            "ticks": 201077,
            "time": 214.82605878541665,
            "value": 0.0511474609375
          },
          {
            "ticks": 201088,
            "time": 214.83781093333332,
            "value": 0.05126953125
          },
          {
            "ticks": 201098,
            "time": 214.84849470416665,
            "value": 0.0513916015625
          },
          {
            "ticks": 201110,
            "time": 214.86131522916668,
            "value": 0.051513671875
          },
          {
            "ticks": 201120,
            "time": 214.871999,
            "value": 0.0516357421875
          },
          {
            "ticks": 201131,
            "time": 214.88375114791666,
            "value": 0.0517578125
          },
          {
            "ticks": 201142,
            "time": 214.89550329583332,
            "value": 0.0518798828125
          },
          {
            "ticks": 201153,
            "time": 214.90725544375,
            "value": 0.052001953125
          },
          {
            "ticks": 201163,
            "time": 214.91793921458333,
            "value": 0.0521240234375
          },
          {
            "ticks": 201175,
            "time": 214.93075973958332,
            "value": 0.05224609375
          },
          {
            "ticks": 201185,
            "time": 214.94144351041666,
            "value": 0.0523681640625
          },
          {
            "ticks": 201196,
            "time": 214.95319565833333,
            "value": 0.052490234375
          },
          {
            "ticks": 201207,
            "time": 214.96494780624997,
            "value": 0.0526123046875
          },
          {
            "ticks": 201218,
            "time": 214.97669995416663,
            "value": 0.052734375
          },
          {
            "ticks": 201228,
            "time": 214.987383725,
            "value": 0.0528564453125
          },
          {
            "ticks": 201240,
            "time": 215.00020425,
            "value": 0.052978515625
          },
          {
            "ticks": 201250,
            "time": 215.0108880208333,
            "value": 0.0531005859375
          },
          {
            "ticks": 201261,
            "time": 215.02264016874997,
            "value": 0.05322265625
          },
          {
            "ticks": 201272,
            "time": 215.03439231666664,
            "value": 0.0533447265625
          },
          {
            "ticks": 201283,
            "time": 215.04614446458334,
            "value": 0.053466796875
          },
          {
            "ticks": 201293,
            "time": 215.05682823541665,
            "value": 0.0535888671875
          },
          {
            "ticks": 201305,
            "time": 215.06964876041667,
            "value": 0.0537109375
          },
          {
            "ticks": 201315,
            "time": 215.08033253124998,
            "value": 0.0538330078125
          },
          {
            "ticks": 201326,
            "time": 215.09208467916665,
            "value": 0.053955078125
          },
          {
            "ticks": 201337,
            "time": 215.10383682708334,
            "value": 0.0540771484375
          },
          {
            "ticks": 201348,
            "time": 215.115588975,
            "value": 0.05419921875
          },
          {
            "ticks": 201358,
            "time": 215.12627274583332,
            "value": 0.0543212890625
          },
          {
            "ticks": 201370,
            "time": 215.1390932708333,
            "value": 0.054443359375
          },
          {
            "ticks": 201380,
            "time": 215.14977704166665,
            "value": 0.0545654296875
          },
          {
            "ticks": 201391,
            "time": 215.16152918958335,
            "value": 0.0546875
          },
          {
            "ticks": 201402,
            "time": 215.1732813375,
            "value": 0.0548095703125
          },
          {
            "ticks": 201413,
            "time": 215.18503348541665,
            "value": 0.054931640625
          },
          {
            "ticks": 201423,
            "time": 215.19571725625,
            "value": 0.0550537109375
          },
          {
            "ticks": 201435,
            "time": 215.20853778125,
            "value": 0.05517578125
          },
          {
            "ticks": 201445,
            "time": 215.2192215520833,
            "value": 0.0552978515625
          },
          {
            "ticks": 201456,
            "time": 215.2309737,
            "value": 0.055419921875
          },
          {
            "ticks": 201467,
            "time": 215.24272584791666,
            "value": 0.0555419921875
          },
          {
            "ticks": 201478,
            "time": 215.25447799583333,
            "value": 0.0556640625
          },
          {
            "ticks": 201488,
            "time": 215.26516176666664,
            "value": 0.0557861328125
          },
          {
            "ticks": 201500,
            "time": 215.27798229166666,
            "value": 0.055908203125
          },
          {
            "ticks": 201510,
            "time": 215.2886660625,
            "value": 0.0560302734375
          },
          {
            "ticks": 201521,
            "time": 215.30041821041667,
            "value": 0.05615234375
          },
          {
            "ticks": 201532,
            "time": 215.31217035833333,
            "value": 0.0562744140625
          },
          {
            "ticks": 201543,
            "time": 215.32392250625,
            "value": 0.056396484375
          },
          {
            "ticks": 201553,
            "time": 215.3346062770833,
            "value": 0.0565185546875
          },
          {
            "ticks": 201565,
            "time": 215.3474268020833,
            "value": 0.056640625
          },
          {
            "ticks": 201575,
            "time": 215.35811057291667,
            "value": 0.0567626953125
          },
          {
            "ticks": 201586,
            "time": 215.36986272083334,
            "value": 0.056884765625
          },
          {
            "ticks": 201597,
            "time": 215.38161486874998,
            "value": 0.0570068359375
          },
          {
            "ticks": 201608,
            "time": 215.39336701666664,
            "value": 0.05712890625
          },
          {
            "ticks": 201618,
            "time": 215.4040507875,
            "value": 0.0572509765625
          },
          {
            "ticks": 201630,
            "time": 215.41687131249998,
            "value": 0.057373046875
          },
          {
            "ticks": 201640,
            "time": 215.42755508333332,
            "value": 0.0574951171875
          },
          {
            "ticks": 201651,
            "time": 215.43930723124998,
            "value": 0.0576171875
          },
          {
            "ticks": 201662,
            "time": 215.45105937916665,
            "value": 0.0577392578125
          },
          {
            "ticks": 201673,
            "time": 215.46281152708332,
            "value": 0.057861328125
          },
          {
            "ticks": 201683,
            "time": 215.47349529791666,
            "value": 0.0579833984375
          },
          {
            "ticks": 201695,
            "time": 215.48631582291665,
            "value": 0.05810546875
          },
          {
            "ticks": 201705,
            "time": 215.49699959375,
            "value": 0.0582275390625
          },
          {
            "ticks": 201716,
            "time": 215.50875174166666,
            "value": 0.058349609375
          },
          {
            "ticks": 201727,
            "time": 215.52050388958332,
            "value": 0.0584716796875
          },
          {
            "ticks": 201738,
            "time": 215.5322560375,
            "value": 0.05859375
          },
          {
            "ticks": 201748,
            "time": 215.54293980833333,
            "value": 0.0587158203125
          },
          {
            "ticks": 201760,
            "time": 215.55576033333332,
            "value": 0.058837890625
          },
          {
            "ticks": 201770,
            "time": 215.56644410416666,
            "value": 0.0589599609375
          },
          {
            "ticks": 201781,
            "time": 215.57819625208333,
            "value": 0.05908203125
          },
          {
            "ticks": 201792,
            "time": 215.58994839999997,
            "value": 0.0592041015625
          },
          {
            "ticks": 201803,
            "time": 215.60170054791664,
            "value": 0.059326171875
          },
          {
            "ticks": 201813,
            "time": 215.61238431875,
            "value": 0.0594482421875
          },
          {
            "ticks": 201825,
            "time": 215.62520484375,
            "value": 0.0595703125
          },
          {
            "ticks": 201835,
            "time": 215.6358886145833,
            "value": 0.0596923828125
          },
          {
            "ticks": 201846,
            "time": 215.64764076249998,
            "value": 0.059814453125
          },
          {
            "ticks": 201857,
            "time": 215.65939291041664,
            "value": 0.0599365234375
          },
          {
            "ticks": 201868,
            "time": 215.67114505833334,
            "value": 0.06005859375
          },
          {
            "ticks": 201878,
            "time": 215.68182882916665,
            "value": 0.0601806640625
          },
          {
            "ticks": 201890,
            "time": 215.69464935416667,
            "value": 0.060302734375
          },
          {
            "ticks": 201900,
            "time": 215.70533312499998,
            "value": 0.0604248046875
          },
          {
            "ticks": 201911,
            "time": 215.71708527291665,
            "value": 0.060546875
          },
          {
            "ticks": 201922,
            "time": 215.72883742083332,
            "value": 0.0606689453125
          },
          {
            "ticks": 201932,
            "time": 215.73952119166665,
            "value": 0.060791015625
          },
          {
            "ticks": 201944,
            "time": 215.75234171666665,
            "value": 0.0609130859375
          },
          {
            "ticks": 201954,
            "time": 215.7630254875,
            "value": 0.06103515625
          },
          {
            "ticks": 201965,
            "time": 215.77477763541665,
            "value": 0.0611572265625
          },
          {
            "ticks": 201976,
            "time": 215.78652978333332,
            "value": 0.061279296875
          },
          {
            "ticks": 201987,
            "time": 215.79828193125,
            "value": 0.0614013671875
          },
          {
            "ticks": 201997,
            "time": 215.80896570208333,
            "value": 0.0615234375
          },
          {
            "ticks": 202009,
            "time": 215.82178622708332,
            "value": 0.0616455078125
          },
          {
            "ticks": 202019,
            "time": 215.83246999791663,
            "value": 0.061767578125
          },
          {
            "ticks": 202030,
            "time": 215.8442221458333,
            "value": 0.0618896484375
          },
          {
            "ticks": 202041,
            "time": 215.85597429375,
            "value": 0.06201171875
          },
          {
            "ticks": 202052,
            "time": 215.86772644166666,
            "value": 0.0621337890625
          },
          {
            "ticks": 202062,
            "time": 215.87841021249997,
            "value": 0.062255859375
          },
          {
            "ticks": 202074,
            "time": 215.8912307375,
            "value": 0.0623779296875
          },
          {
            "ticks": 202084,
            "time": 215.9019145083333,
            "value": 0.0625
          },
          {
            "ticks": 202095,
            "time": 215.91366665625,
            "value": 0.0626220703125
          },
          {
            "ticks": 202106,
            "time": 215.92541880416667,
            "value": 0.062744140625
          },
          {
            "ticks": 202117,
            "time": 215.93717095208333,
            "value": 0.0628662109375
          },
          {
            "ticks": 202127,
            "time": 215.94785472291665,
            "value": 0.06298828125
          },
          {
            "ticks": 202139,
            "time": 215.96067524791664,
            "value": 0.0631103515625
          },
          {
            "ticks": 202149,
            "time": 215.97135901875,
            "value": 0.063232421875
          },
          {
            "ticks": 202160,
            "time": 215.98311116666667,
            "value": 0.0633544921875
          },
          {
            "ticks": 202171,
            "time": 215.99486331458334,
            "value": 0.0634765625
          },
          {
            "ticks": 202182,
            "time": 216.00661546249998,
            "value": 0.0635986328125
          },
          {
            "ticks": 202192,
            "time": 216.01729923333332,
            "value": 0.063720703125
          },
          {
            "ticks": 202204,
            "time": 216.0301197583333,
            "value": 0.0638427734375
          },
          {
            "ticks": 202214,
            "time": 216.04080352916665,
            "value": 0.06396484375
          },
          {
            "ticks": 202225,
            "time": 216.05255567708332,
            "value": 0.0640869140625
          },
          {
            "ticks": 202236,
            "time": 216.064307825,
            "value": 0.064208984375
          },
          {
            "ticks": 202247,
            "time": 216.07605997291665,
            "value": 0.0643310546875
          },
          {
            "ticks": 202257,
            "time": 216.08674374374996,
            "value": 0.064453125
          },
          {
            "ticks": 202269,
            "time": 216.09956426875,
            "value": 0.0645751953125
          },
          {
            "ticks": 202279,
            "time": 216.11024803958333,
            "value": 0.064697265625
          },
          {
            "ticks": 202290,
            "time": 216.1220001875,
            "value": 0.0648193359375
          },
          {
            "ticks": 202301,
            "time": 216.13375233541666,
            "value": 0.06494140625
          },
          {
            "ticks": 202312,
            "time": 216.14550448333333,
            "value": 0.0650634765625
          },
          {
            "ticks": 202322,
            "time": 216.15618825416666,
            "value": 0.065185546875
          },
          {
            "ticks": 202334,
            "time": 216.16900877916663,
            "value": 0.0653076171875
          },
          {
            "ticks": 202344,
            "time": 216.17969255,
            "value": 0.0654296875
          },
          {
            "ticks": 202355,
            "time": 216.19144469791667,
            "value": 0.0655517578125
          },
          {
            "ticks": 202366,
            "time": 216.20319684583333,
            "value": 0.065673828125
          },
          {
            "ticks": 202377,
            "time": 216.21494899374997,
            "value": 0.0657958984375
          },
          {
            "ticks": 202387,
            "time": 216.22563276458334,
            "value": 0.06591796875
          },
          {
            "ticks": 202399,
            "time": 216.2384532895833,
            "value": 0.0660400390625
          },
          {
            "ticks": 202409,
            "time": 216.24913706041664,
            "value": 0.066162109375
          },
          {
            "ticks": 202420,
            "time": 216.2608892083333,
            "value": 0.0662841796875
          },
          {
            "ticks": 202431,
            "time": 216.27264135624998,
            "value": 0.06640625
          },
          {
            "ticks": 202442,
            "time": 216.28439350416664,
            "value": 0.0665283203125
          },
          {
            "ticks": 202452,
            "time": 216.29507727499998,
            "value": 0.066650390625
          },
          {
            "ticks": 202464,
            "time": 216.3078978,
            "value": 0.0667724609375
          },
          {
            "ticks": 202474,
            "time": 216.31858157083332,
            "value": 0.06689453125
          },
          {
            "ticks": 202485,
            "time": 216.33033371874998,
            "value": 0.0670166015625
          },
          {
            "ticks": 202496,
            "time": 216.34208586666665,
            "value": 0.067138671875
          },
          {
            "ticks": 202507,
            "time": 216.35383801458332,
            "value": 0.0672607421875
          },
          {
            "ticks": 202517,
            "time": 216.36452178541666,
            "value": 0.0673828125
          },
          {
            "ticks": 202529,
            "time": 216.37734231041665,
            "value": 0.0675048828125
          },
          {
            "ticks": 202539,
            "time": 216.38802608125,
            "value": 0.067626953125
          },
          {
            "ticks": 202550,
            "time": 216.39977822916666,
            "value": 0.0677490234375
          },
          {
            "ticks": 202561,
            "time": 216.41153037708332,
            "value": 0.06787109375
          },
          {
            "ticks": 202572,
            "time": 216.42328252499996,
            "value": 0.0679931640625
          },
          {
            "ticks": 202582,
            "time": 216.43396629583333,
            "value": 0.068115234375
          },
          {
            "ticks": 202594,
            "time": 216.44678682083332,
            "value": 0.0682373046875
          },
          {
            "ticks": 202604,
            "time": 216.45747059166663,
            "value": 0.068359375
          },
          {
            "ticks": 202615,
            "time": 216.4692227395833,
            "value": 0.0684814453125
          },
          {
            "ticks": 202626,
            "time": 216.48097488749997,
            "value": 0.068603515625
          },
          {
            "ticks": 202637,
            "time": 216.49272703541666,
            "value": 0.0687255859375
          },
          {
            "ticks": 202647,
            "time": 216.50341080624997,
            "value": 0.06884765625
          },
          {
            "ticks": 202659,
            "time": 216.51623133125,
            "value": 0.0689697265625
          },
          {
            "ticks": 202669,
            "time": 216.5269151020833,
            "value": 0.069091796875
          },
          {
            "ticks": 202680,
            "time": 216.53866724999997,
            "value": 0.0692138671875
          },
          {
            "ticks": 202691,
            "time": 216.55041939791667,
            "value": 0.0693359375
          },
          {
            "ticks": 202702,
            "time": 216.56217154583334,
            "value": 0.0694580078125
          },
          {
            "ticks": 202712,
            "time": 216.57285531666665,
            "value": 0.069580078125
          },
          {
            "ticks": 202724,
            "time": 216.58567584166664,
            "value": 0.0697021484375
          },
          {
            "ticks": 202734,
            "time": 216.59635961249998,
            "value": 0.06982421875
          },
          {
            "ticks": 202745,
            "time": 216.60811176041668,
            "value": 0.0699462890625
          },
          {
            "ticks": 202756,
            "time": 216.61986390833334,
            "value": 0.070068359375
          },
          {
            "ticks": 202767,
            "time": 216.63161605624998,
            "value": 0.0701904296875
          },
          {
            "ticks": 202777,
            "time": 216.64229982708332,
            "value": 0.0703125
          },
          {
            "ticks": 202789,
            "time": 216.65512035208332,
            "value": 0.0704345703125
          },
          {
            "ticks": 202799,
            "time": 216.66580412291665,
            "value": 0.070556640625
          },
          {
            "ticks": 202810,
            "time": 216.67755627083332,
            "value": 0.0706787109375
          },
          {
            "ticks": 202821,
            "time": 216.68930841875,
            "value": 0.07080078125
          },
          {
            "ticks": 202832,
            "time": 216.70106056666665,
            "value": 0.0709228515625
          },
          {
            "ticks": 202842,
            "time": 216.71174433749997,
            "value": 0.071044921875
          },
          {
            "ticks": 202854,
            "time": 216.7245648625,
            "value": 0.0711669921875
          },
          {
            "ticks": 202864,
            "time": 216.73524863333333,
            "value": 0.0712890625
          },
          {
            "ticks": 202875,
            "time": 216.74700078125,
            "value": 0.0714111328125
          },
          {
            "ticks": 202886,
            "time": 216.75875292916666,
            "value": 0.071533203125
          },
          {
            "ticks": 202897,
            "time": 216.77050507708333,
            "value": 0.0716552734375
          },
          {
            "ticks": 202907,
            "time": 216.78118884791664,
            "value": 0.07177734375
          },
          {
            "ticks": 202919,
            "time": 216.79400937291663,
            "value": 0.0718994140625
          },
          {
            "ticks": 202929,
            "time": 216.80469314375,
            "value": 0.072021484375
          },
          {
            "ticks": 202940,
            "time": 216.81644529166667,
            "value": 0.0721435546875
          },
          {
            "ticks": 202951,
            "time": 216.82819743958333,
            "value": 0.072265625
          },
          {
            "ticks": 202961,
            "time": 216.83888121041664,
            "value": 0.0723876953125
          },
          {
            "ticks": 202973,
            "time": 216.85170173541664,
            "value": 0.072509765625
          },
          {
            "ticks": 202983,
            "time": 216.86238550625,
            "value": 0.0726318359375
          },
          {
            "ticks": 202994,
            "time": 216.87413765416665,
            "value": 0.07275390625
          },
          {
            "ticks": 203005,
            "time": 216.8858898020833,
            "value": 0.0728759765625
          },
          {
            "ticks": 203016,
            "time": 216.89764194999998,
            "value": 0.072998046875
          },
          {
            "ticks": 203026,
            "time": 216.90832572083335,
            "value": 0.0731201171875
          },
          {
            "ticks": 203038,
            "time": 216.9211462458333,
            "value": 0.0732421875
          },
          {
            "ticks": 203048,
            "time": 216.93183001666665,
            "value": 0.0733642578125
          },
          {
            "ticks": 203059,
            "time": 216.94358216458332,
            "value": 0.073486328125
          },
          {
            "ticks": 203070,
            "time": 216.95533431249999,
            "value": 0.0736083984375
          },
          {
            "ticks": 203081,
            "time": 216.96708646041665,
            "value": 0.07373046875
          },
          {
            "ticks": 203091,
            "time": 216.97777023125,
            "value": 0.0738525390625
          },
          {
            "ticks": 203103,
            "time": 216.99059075625,
            "value": 0.073974609375
          },
          {
            "ticks": 203113,
            "time": 217.00127452708332,
            "value": 0.0740966796875
          },
          {
            "ticks": 203124,
            "time": 217.013026675,
            "value": 0.07421875
          },
          {
            "ticks": 203135,
            "time": 217.02477882291666,
            "value": 0.0743408203125
          },
          {
            "ticks": 203146,
            "time": 217.03653097083333,
            "value": 0.074462890625
          },
          {
            "ticks": 203156,
            "time": 217.04721474166666,
            "value": 0.0745849609375
          },
          {
            "ticks": 203168,
            "time": 217.06003526666666,
            "value": 0.07470703125
          },
          {
            "ticks": 203178,
            "time": 217.0707190375,
            "value": 0.0748291015625
          },
          {
            "ticks": 203189,
            "time": 217.08247118541664,
            "value": 0.074951171875
          },
          {
            "ticks": 203200,
            "time": 217.0942233333333,
            "value": 0.0750732421875
          },
          {
            "ticks": 203211,
            "time": 217.10597548124997,
            "value": 0.0751953125
          },
          {
            "ticks": 203221,
            "time": 217.11665925208334,
            "value": 0.0753173828125
          },
          {
            "ticks": 203233,
            "time": 217.12947977708333,
            "value": 0.075439453125
          },
          {
            "ticks": 203243,
            "time": 217.14016354791664,
            "value": 0.0755615234375
          },
          {
            "ticks": 203254,
            "time": 217.1519156958333,
            "value": 0.07568359375
          },
          {
            "ticks": 203265,
            "time": 217.16366784374998,
            "value": 0.0758056640625
          },
          {
            "ticks": 203276,
            "time": 217.17541999166667,
            "value": 0.075927734375
          },
          {
            "ticks": 203286,
            "time": 217.18610376249998,
            "value": 0.0760498046875
          },
          {
            "ticks": 203298,
            "time": 217.1989242875,
            "value": 0.076171875
          },
          {
            "ticks": 203308,
            "time": 217.20960805833332,
            "value": 0.0762939453125
          },
          {
            "ticks": 203319,
            "time": 217.22136020624998,
            "value": 0.076416015625
          },
          {
            "ticks": 203330,
            "time": 217.23311235416668,
            "value": 0.0765380859375
          },
          {
            "ticks": 203341,
            "time": 217.24486450208335,
            "value": 0.07666015625
          },
          {
            "ticks": 203351,
            "time": 217.25554827291666,
            "value": 0.0767822265625
          },
          {
            "ticks": 203363,
            "time": 217.26836879791665,
            "value": 0.076904296875
          },
          {
            "ticks": 203373,
            "time": 217.27905256875,
            "value": 0.0770263671875
          },
          {
            "ticks": 203384,
            "time": 217.29080471666663,
            "value": 0.0771484375
          },
          {
            "ticks": 203395,
            "time": 217.30255686458332,
            "value": 0.0772705078125
          },
          {
            "ticks": 203406,
            "time": 217.3143090125,
            "value": 0.077392578125
          },
          {
            "ticks": 203416,
            "time": 217.32499278333333,
            "value": 0.0775146484375
          },
          {
            "ticks": 203428,
            "time": 217.33781330833332,
            "value": 0.07763671875
          },
          {
            "ticks": 203438,
            "time": 217.34849707916663,
            "value": 0.0777587890625
          },
          {
            "ticks": 203449,
            "time": 217.36024922708333,
            "value": 0.077880859375
          },
          {
            "ticks": 203460,
            "time": 217.372001375,
            "value": 0.0780029296875
          },
          {
            "ticks": 203471,
            "time": 217.38375352291666,
            "value": 0.078125
          },
          {
            "ticks": 203481,
            "time": 217.39443729374997,
            "value": 0.0782470703125
          },
          {
            "ticks": 203493,
            "time": 217.40725781875,
            "value": 0.078369140625
          },
          {
            "ticks": 203503,
            "time": 217.41794158958334,
            "value": 0.0784912109375
          },
          {
            "ticks": 203514,
            "time": 217.4296937375,
            "value": 0.07861328125
          },
          {
            "ticks": 203525,
            "time": 217.44144588541667,
            "value": 0.0787353515625
          },
          {
            "ticks": 203536,
            "time": 217.45319803333334,
            "value": 0.078857421875
          },
          {
            "ticks": 203546,
            "time": 217.46388180416665,
            "value": 0.0789794921875
          },
          {
            "ticks": 203558,
            "time": 217.47670232916664,
            "value": 0.0791015625
          },
          {
            "ticks": 203568,
            "time": 217.4873861,
            "value": 0.0792236328125
          },
          {
            "ticks": 203579,
            "time": 217.49913824791665,
            "value": 0.079345703125
          },
          {
            "ticks": 203590,
            "time": 217.51089039583331,
            "value": 0.0794677734375
          },
          {
            "ticks": 203601,
            "time": 217.52264254374998,
            "value": 0.07958984375
          },
          {
            "ticks": 203611,
            "time": 217.53332631458335,
            "value": 0.0797119140625
          },
          {
            "ticks": 203623,
            "time": 217.54614683958332,
            "value": 0.079833984375
          },
          {
            "ticks": 203633,
            "time": 217.55683061041665,
            "value": 0.0799560546875
          },
          {
            "ticks": 203644,
            "time": 217.56858275833332,
            "value": 0.080078125
          },
          {
            "ticks": 203655,
            "time": 217.58033490625,
            "value": 0.0802001953125
          },
          {
            "ticks": 203666,
            "time": 217.59208705416665,
            "value": 0.080322265625
          },
          {
            "ticks": 203676,
            "time": 217.602770825,
            "value": 0.0804443359375
          },
          {
            "ticks": 203688,
            "time": 217.61559135,
            "value": 0.08056640625
          },
          {
            "ticks": 203698,
            "time": 217.62627512083333,
            "value": 0.0806884765625
          },
          {
            "ticks": 203709,
            "time": 217.63802726875,
            "value": 0.080810546875
          },
          {
            "ticks": 203720,
            "time": 217.64977941666666,
            "value": 0.0809326171875
          },
          {
            "ticks": 203731,
            "time": 217.66153156458333,
            "value": 0.0810546875
          },
          {
            "ticks": 203741,
            "time": 217.67221533541667,
            "value": 0.0811767578125
          },
          {
            "ticks": 203753,
            "time": 217.68503586041663,
            "value": 0.081298828125
          },
          {
            "ticks": 203763,
            "time": 217.69571963125,
            "value": 0.0814208984375
          },
          {
            "ticks": 203774,
            "time": 217.70747177916664,
            "value": 0.08154296875
          },
          {
            "ticks": 203785,
            "time": 217.7192239270833,
            "value": 0.0816650390625
          },
          {
            "ticks": 203796,
            "time": 217.73097607499997,
            "value": 0.081787109375
          },
          {
            "ticks": 203806,
            "time": 217.74165984583334,
            "value": 0.0819091796875
          },
          {
            "ticks": 203818,
            "time": 217.75448037083333,
            "value": 0.08203125
          },
          {
            "ticks": 203828,
            "time": 217.76516414166665,
            "value": 0.0821533203125
          },
          {
            "ticks": 203839,
            "time": 217.7769162895833,
            "value": 0.082275390625
          },
          {
            "ticks": 203850,
            "time": 217.78866843749998,
            "value": 0.0823974609375
          },
          {
            "ticks": 203861,
            "time": 217.80042058541665,
            "value": 0.08251953125
          },
          {
            "ticks": 203871,
            "time": 217.81110435624998,
            "value": 0.0826416015625
          },
          {
            "ticks": 203883,
            "time": 217.82392488125,
            "value": 0.082763671875
          },
          {
            "ticks": 203893,
            "time": 217.83460865208332,
            "value": 0.0828857421875
          },
          {
            "ticks": 203904,
            "time": 217.84636079999999,
            "value": 0.0830078125
          },
          {
            "ticks": 203915,
            "time": 217.85811294791665,
            "value": 0.0831298828125
          },
          {
            "ticks": 203926,
            "time": 217.86986509583335,
            "value": 0.083251953125
          },
          {
            "ticks": 203936,
            "time": 217.88054886666666,
            "value": 0.0833740234375
          },
          {
            "ticks": 203948,
            "time": 217.89336939166665,
            "value": 0.08349609375
          },
          {
            "ticks": 203958,
            "time": 217.9040531625,
            "value": 0.0836181640625
          },
          {
            "ticks": 203969,
            "time": 217.91580531041663,
            "value": 0.083740234375
          },
          {
            "ticks": 203980,
            "time": 217.92755745833333,
            "value": 0.0838623046875
          },
          {
            "ticks": 203991,
            "time": 217.93930960625,
            "value": 0.083984375
          },
          {
            "ticks": 204001,
            "time": 217.94999337708333,
            "value": 0.0841064453125
          },
          {
            "ticks": 204013,
            "time": 217.96281390208333,
            "value": 0.084228515625
          },
          {
            "ticks": 204023,
            "time": 217.97349767291664,
            "value": 0.0843505859375
          },
          {
            "ticks": 204034,
            "time": 217.9852498208333,
            "value": 0.08447265625
          },
          {
            "ticks": 204045,
            "time": 217.99700196875,
            "value": 0.0845947265625
          },
          {
            "ticks": 204055,
            "time": 218.0076857395833,
            "value": 0.084716796875
          },
          {
            "ticks": 204067,
            "time": 218.02050626458333,
            "value": 0.0848388671875
          },
          {
            "ticks": 204077,
            "time": 218.03119003541664,
            "value": 0.0849609375
          },
          {
            "ticks": 204088,
            "time": 218.0429421833333,
            "value": 0.0850830078125
          },
          {
            "ticks": 204099,
            "time": 218.05469433125,
            "value": 0.085205078125
          },
          {
            "ticks": 204110,
            "time": 218.06644647916667,
            "value": 0.0853271484375
          },
          {
            "ticks": 204120,
            "time": 218.07713024999998,
            "value": 0.08544921875
          },
          {
            "ticks": 204131,
            "time": 218.08888239791665,
            "value": 0.0855712890625
          },
          {
            "ticks": 204143,
            "time": 218.10170292291664,
            "value": 0.085693359375
          },
          {
            "ticks": 204153,
            "time": 218.11238669375,
            "value": 0.0858154296875
          },
          {
            "ticks": 204164,
            "time": 218.12413884166665,
            "value": 0.0859375
          },
          {
            "ticks": 204175,
            "time": 218.13589098958332,
            "value": 0.0860595703125
          },
          {
            "ticks": 204185,
            "time": 218.14657476041666,
            "value": 0.086181640625
          },
          {
            "ticks": 204197,
            "time": 218.15939528541665,
            "value": 0.0863037109375
          },
          {
            "ticks": 204207,
            "time": 218.17007905625,
            "value": 0.08642578125
          },
          {
            "ticks": 204218,
            "time": 218.18183120416666,
            "value": 0.0865478515625
          },
          {
            "ticks": 204229,
            "time": 218.19358335208332,
            "value": 0.086669921875
          },
          {
            "ticks": 204240,
            "time": 218.2053355,
            "value": 0.0867919921875
          },
          {
            "ticks": 204250,
            "time": 218.2160192708333,
            "value": 0.0869140625
          },
          {
            "ticks": 204262,
            "time": 218.22883979583332,
            "value": 0.0870361328125
          },
          {
            "ticks": 204272,
            "time": 218.23952356666666,
            "value": 0.087158203125
          },
          {
            "ticks": 204283,
            "time": 218.25127571458333,
            "value": 0.0872802734375
          },
          {
            "ticks": 204294,
            "time": 218.2630278625,
            "value": 0.08740234375
          },
          {
            "ticks": 204305,
            "time": 218.27478001041666,
            "value": 0.0875244140625
          },
          {
            "ticks": 204315,
            "time": 218.28546378125,
            "value": 0.087646484375
          },
          {
            "ticks": 204327,
            "time": 218.29828430624997,
            "value": 0.0877685546875
          },
          {
            "ticks": 204337,
            "time": 218.30896807708334,
            "value": 0.087890625
          },
          {
            "ticks": 204348,
            "time": 218.320720225,
            "value": 0.0880126953125
          },
          {
            "ticks": 204359,
            "time": 218.33247237291664,
            "value": 0.088134765625
          },
          {
            "ticks": 204370,
            "time": 218.3442245208333,
            "value": 0.0882568359375
          },
          {
            "ticks": 204380,
            "time": 218.35490829166667,
            "value": 0.08837890625
          },
          {
            "ticks": 204392,
            "time": 218.36772881666664,
            "value": 0.0885009765625
          },
          {
            "ticks": 204402,
            "time": 218.37841258749998,
            "value": 0.088623046875
          },
          {
            "ticks": 204413,
            "time": 218.39016473541665,
            "value": 0.0887451171875
          },
          {
            "ticks": 204424,
            "time": 218.4019168833333,
            "value": 0.0888671875
          },
          {
            "ticks": 204435,
            "time": 218.41366903124998,
            "value": 0.0889892578125
          },
          {
            "ticks": 204445,
            "time": 218.42435280208332,
            "value": 0.089111328125
          },
          {
            "ticks": 204457,
            "time": 218.43717332708331,
            "value": 0.0892333984375
          },
          {
            "ticks": 204467,
            "time": 218.44785709791665,
            "value": 0.08935546875
          },
          {
            "ticks": 204478,
            "time": 218.45960924583332,
            "value": 0.0894775390625
          },
          {
            "ticks": 204489,
            "time": 218.47136139375,
            "value": 0.089599609375
          },
          {
            "ticks": 204500,
            "time": 218.48311354166665,
            "value": 0.0897216796875
          },
          {
            "ticks": 204510,
            "time": 218.4937973125,
            "value": 0.08984375
          },
          {
            "ticks": 204522,
            "time": 218.5066178375,
            "value": 0.0899658203125
          },
          {
            "ticks": 204532,
            "time": 218.51730160833333,
            "value": 0.090087890625
          },
          {
            "ticks": 204543,
            "time": 218.52905375625,
            "value": 0.0902099609375
          },
          {
            "ticks": 204554,
            "time": 218.54080590416663,
            "value": 0.09033203125
          },
          {
            "ticks": 204565,
            "time": 218.5525580520833,
            "value": 0.0904541015625
          },
          {
            "ticks": 204575,
            "time": 218.56324182291667,
            "value": 0.090576171875
          },
          {
            "ticks": 204587,
            "time": 218.57606234791666,
            "value": 0.0906982421875
          },
          {
            "ticks": 204597,
            "time": 218.58674611874997,
            "value": 0.0908203125
          },
          {
            "ticks": 204608,
            "time": 218.59849826666664,
            "value": 0.0909423828125
          },
          {
            "ticks": 204619,
            "time": 218.6102504145833,
            "value": 0.091064453125
          },
          {
            "ticks": 204630,
            "time": 218.6220025625,
            "value": 0.0911865234375
          },
          {
            "ticks": 204640,
            "time": 218.6326863333333,
            "value": 0.09130859375
          },
          {
            "ticks": 204652,
            "time": 218.64550685833333,
            "value": 0.0914306640625
          },
          {
            "ticks": 204662,
            "time": 218.65619062916664,
            "value": 0.091552734375
          },
          {
            "ticks": 204673,
            "time": 218.6679427770833,
            "value": 0.0916748046875
          },
          {
            "ticks": 204684,
            "time": 218.679694925,
            "value": 0.091796875
          },
          {
            "ticks": 204695,
            "time": 218.69144707291667,
            "value": 0.0919189453125
          },
          {
            "ticks": 204705,
            "time": 218.70213084374998,
            "value": 0.092041015625
          },
          {
            "ticks": 204717,
            "time": 218.71495136874998,
            "value": 0.0921630859375
          },
          {
            "ticks": 204727,
            "time": 218.72563513958332,
            "value": 0.09228515625
          },
          {
            "ticks": 204738,
            "time": 218.7373872875,
            "value": 0.0924072265625
          },
          {
            "ticks": 204749,
            "time": 218.74913943541665,
            "value": 0.092529296875
          },
          {
            "ticks": 204760,
            "time": 218.76089158333332,
            "value": 0.0926513671875
          },
          {
            "ticks": 204770,
            "time": 218.77157535416666,
            "value": 0.0927734375
          },
          {
            "ticks": 204781,
            "time": 218.78332750208332,
            "value": 0.0928955078125
          },
          {
            "ticks": 204793,
            "time": 218.79614802708332,
            "value": 0.093017578125
          },
          {
            "ticks": 204803,
            "time": 218.80683179791666,
            "value": 0.0931396484375
          },
          {
            "ticks": 204814,
            "time": 218.81858394583332,
            "value": 0.09326171875
          },
          {
            "ticks": 204825,
            "time": 218.83033609375,
            "value": 0.0933837890625
          },
          {
            "ticks": 204835,
            "time": 218.8410198645833,
            "value": 0.093505859375
          },
          {
            "ticks": 204847,
            "time": 218.85384038958333,
            "value": 0.0936279296875
          },
          {
            "ticks": 204857,
            "time": 218.86452416041666,
            "value": 0.09375
          },
          {
            "ticks": 204868,
            "time": 218.87627630833333,
            "value": 0.0938720703125
          },
          {
            "ticks": 204879,
            "time": 218.88802845625,
            "value": 0.093994140625
          },
          {
            "ticks": 204890,
            "time": 218.89978060416666,
            "value": 0.0941162109375
          },
          {
            "ticks": 204900,
            "time": 218.91046437499998,
            "value": 0.09423828125
          },
          {
            "ticks": 204912,
            "time": 218.92328489999997,
            "value": 0.0943603515625
          },
          {
            "ticks": 204922,
            "time": 218.93396867083334,
            "value": 0.094482421875
          },
          {
            "ticks": 204933,
            "time": 218.94572081875,
            "value": 0.0946044921875
          },
          {
            "ticks": 204944,
            "time": 218.95747296666664,
            "value": 0.0947265625
          },
          {
            "ticks": 204955,
            "time": 218.9692251145833,
            "value": 0.0948486328125
          },
          {
            "ticks": 204965,
            "time": 218.97990888541668,
            "value": 0.094970703125
          },
          {
            "ticks": 204977,
            "time": 218.99272941041664,
            "value": 0.0950927734375
          },
          {
            "ticks": 204988,
            "time": 219.0044815583333,
            "value": 0.09521484375
          },
          {
            "ticks": 204998,
            "time": 219.01516532916665,
            "value": 0.0953369140625
          },
          {
            "ticks": 205009,
            "time": 219.02691747708332,
            "value": 0.095458984375
          },
          {
            "ticks": 205020,
            "time": 219.03866962499998,
            "value": 0.0955810546875
          },
          {
            "ticks": 205030,
            "time": 219.04935339583332,
            "value": 0.095703125
          },
          {
            "ticks": 205042,
            "time": 219.06217392083332,
            "value": 0.0958251953125
          },
          {
            "ticks": 205052,
            "time": 219.07285769166666,
            "value": 0.095947265625
          },
          {
            "ticks": 205063,
            "time": 219.08460983958332,
            "value": 0.0960693359375
          },
          {
            "ticks": 205074,
            "time": 219.0963619875,
            "value": 0.09619140625
          },
          {
            "ticks": 205085,
            "time": 219.10811413541666,
            "value": 0.0963134765625
          },
          {
            "ticks": 205095,
            "time": 219.11879790625,
            "value": 0.096435546875
          },
          {
            "ticks": 205107,
            "time": 219.13161843125,
            "value": 0.0965576171875
          },
          {
            "ticks": 205117,
            "time": 219.14230220208333,
            "value": 0.0966796875
          },
          {
            "ticks": 205128,
            "time": 219.15405435,
            "value": 0.0968017578125
          },
          {
            "ticks": 205139,
            "time": 219.16580649791663,
            "value": 0.096923828125
          },
          {
            "ticks": 205149,
            "time": 219.17649026875,
            "value": 0.0970458984375
          },
          {
            "ticks": 205161,
            "time": 219.18931079374997,
            "value": 0.09716796875
          },
          {
            "ticks": 205171,
            "time": 219.19999456458333,
            "value": 0.0972900390625
          },
          {
            "ticks": 205182,
            "time": 219.21174671249997,
            "value": 0.097412109375
          },
          {
            "ticks": 205193,
            "time": 219.22349886041664,
            "value": 0.0975341796875
          },
          {
            "ticks": 205204,
            "time": 219.2352510083333,
            "value": 0.09765625
          },
          {
            "ticks": 205214,
            "time": 219.24593477916665,
            "value": 0.0977783203125
          },
          {
            "ticks": 205226,
            "time": 219.25875530416667,
            "value": 0.097900390625
          },
          {
            "ticks": 205236,
            "time": 219.26943907499998,
            "value": 0.0980224609375
          },
          {
            "ticks": 205247,
            "time": 219.28119122291665,
            "value": 0.09814453125
          },
          {
            "ticks": 205258,
            "time": 219.2929433708333,
            "value": 0.0982666015625
          },
          {
            "ticks": 205269,
            "time": 219.30469551874998,
            "value": 0.098388671875
          },
          {
            "ticks": 205279,
            "time": 219.31537928958332,
            "value": 0.0985107421875
          },
          {
            "ticks": 205291,
            "time": 219.32819981458334,
            "value": 0.0986328125
          },
          {
            "ticks": 205301,
            "time": 219.33888358541665,
            "value": 0.0987548828125
          },
          {
            "ticks": 205312,
            "time": 219.35063573333332,
            "value": 0.098876953125
          },
          {
            "ticks": 205323,
            "time": 219.36238788125,
            "value": 0.0989990234375
          },
          {
            "ticks": 205334,
            "time": 219.37414002916665,
            "value": 0.09912109375
          },
          {
            "ticks": 205344,
            "time": 219.3848238,
            "value": 0.0992431640625
          },
          {
            "ticks": 205356,
            "time": 219.397644325,
            "value": 0.099365234375
          },
          {
            "ticks": 205366,
            "time": 219.40832809583333,
            "value": 0.0994873046875
          },
          {
            "ticks": 205377,
            "time": 219.42008024374996,
            "value": 0.099609375
          },
          {
            "ticks": 205388,
            "time": 219.43183239166666,
            "value": 0.0997314453125
          },
          {
            "ticks": 205399,
            "time": 219.44358453958333,
            "value": 0.099853515625
          },
          {
            "ticks": 205409,
            "time": 219.45426831041664,
            "value": 0.0999755859375
          },
          {
            "ticks": 205421,
            "time": 219.46708883541666,
            "value": 0.10009765625
          },
          {
            "ticks": 205431,
            "time": 219.47777260624997,
            "value": 0.1002197265625
          },
          {
            "ticks": 205442,
            "time": 219.48952475416667,
            "value": 0.100341796875
          },
          {
            "ticks": 205453,
            "time": 219.50127690208333,
            "value": 0.1004638671875
          },
          {
            "ticks": 205464,
            "time": 219.51302905,
            "value": 0.1005859375
          },
          {
            "ticks": 205474,
            "time": 219.5237128208333,
            "value": 0.1007080078125
          },
          {
            "ticks": 205485,
            "time": 219.53546496874998,
            "value": 0.100830078125
          },
          {
            "ticks": 205497,
            "time": 219.54828549374997,
            "value": 0.1009521484375
          },
          {
            "ticks": 205507,
            "time": 219.55896926458334,
            "value": 0.10107421875
          },
          {
            "ticks": 205518,
            "time": 219.5707214125,
            "value": 0.1011962890625
          },
          {
            "ticks": 205529,
            "time": 219.58247356041664,
            "value": 0.101318359375
          },
          {
            "ticks": 205539,
            "time": 219.59315733124998,
            "value": 0.1014404296875
          },
          {
            "ticks": 205551,
            "time": 219.60597785624998,
            "value": 0.1015625
          },
          {
            "ticks": 205561,
            "time": 219.61666162708335,
            "value": 0.1016845703125
          },
          {
            "ticks": 205572,
            "time": 219.62841377499998,
            "value": 0.101806640625
          },
          {
            "ticks": 205583,
            "time": 219.64016592291665,
            "value": 0.1019287109375
          },
          {
            "ticks": 205594,
            "time": 219.65191807083332,
            "value": 0.10205078125
          },
          {
            "ticks": 205604,
            "time": 219.66260184166663,
            "value": 0.1021728515625
          },
          {
            "ticks": 205616,
            "time": 219.67542236666665,
            "value": 0.102294921875
          },
          {
            "ticks": 205626,
            "time": 219.6861061375,
            "value": 0.1024169921875
          },
          {
            "ticks": 205637,
            "time": 219.69785828541666,
            "value": 0.1025390625
          },
          {
            "ticks": 205648,
            "time": 219.70961043333332,
            "value": 0.1026611328125
          },
          {
            "ticks": 205659,
            "time": 219.72136258125,
            "value": 0.102783203125
          },
          {
            "ticks": 205669,
            "time": 219.73204635208333,
            "value": 0.1029052734375
          },
          {
            "ticks": 205681,
            "time": 219.74486687708333,
            "value": 0.10302734375
          },
          {
            "ticks": 205691,
            "time": 219.75555064791666,
            "value": 0.1031494140625
          },
          {
            "ticks": 205702,
            "time": 219.76730279583333,
            "value": 0.103271484375
          },
          {
            "ticks": 205713,
            "time": 219.77905494375,
            "value": 0.1033935546875
          },
          {
            "ticks": 205724,
            "time": 219.79080709166664,
            "value": 0.103515625
          },
          {
            "ticks": 205734,
            "time": 219.8014908625,
            "value": 0.1036376953125
          },
          {
            "ticks": 205746,
            "time": 219.81431138749997,
            "value": 0.103759765625
          },
          {
            "ticks": 205756,
            "time": 219.82499515833334,
            "value": 0.1038818359375
          },
          {
            "ticks": 205767,
            "time": 219.83674730624998,
            "value": 0.10400390625
          },
          {
            "ticks": 205778,
            "time": 219.84849945416664,
            "value": 0.1041259765625
          },
          {
            "ticks": 205789,
            "time": 219.8602516020833,
            "value": 0.104248046875
          },
          {
            "ticks": 205799,
            "time": 219.87093537291665,
            "value": 0.1043701171875
          },
          {
            "ticks": 205811,
            "time": 219.88375589791667,
            "value": 0.1044921875
          },
          {
            "ticks": 205821,
            "time": 219.89443966874998,
            "value": 0.1046142578125
          },
          {
            "ticks": 205832,
            "time": 219.90619181666665,
            "value": 0.104736328125
          },
          {
            "ticks": 205843,
            "time": 219.91794396458332,
            "value": 0.1048583984375
          },
          {
            "ticks": 205854,
            "time": 219.92969611249998,
            "value": 0.10498046875
          },
          {
            "ticks": 205864,
            "time": 219.94037988333332,
            "value": 0.1051025390625
          },
          {
            "ticks": 205876,
            "time": 219.95320040833334,
            "value": 0.105224609375
          },
          {
            "ticks": 205886,
            "time": 219.96388417916666,
            "value": 0.1053466796875
          },
          {
            "ticks": 205897,
            "time": 219.97563632708332,
            "value": 0.10546875
          },
          {
            "ticks": 205908,
            "time": 219.987388475,
            "value": 0.1055908203125
          },
          {
            "ticks": 205919,
            "time": 219.99914062291663,
            "value": 0.105712890625
          },
          {
            "ticks": 205929,
            "time": 220.00982439375,
            "value": 0.1058349609375
          },
          {
            "ticks": 205941,
            "time": 220.02264491875,
            "value": 0.10595703125
          },
          {
            "ticks": 205951,
            "time": 220.03332868958333,
            "value": 0.1060791015625
          },
          {
            "ticks": 205962,
            "time": 220.04508083749997,
            "value": 0.106201171875
          },
          {
            "ticks": 205973,
            "time": 220.05683298541663,
            "value": 0.1063232421875
          },
          {
            "ticks": 205984,
            "time": 220.06858513333333,
            "value": 0.1064453125
          },
          {
            "ticks": 205995,
            "time": 220.08033728125,
            "value": 0.1065673828125
          },
          {
            "ticks": 206005,
            "time": 220.0910210520833,
            "value": 0.106689453125
          },
          {
            "ticks": 206017,
            "time": 220.10384157708333,
            "value": 0.1068115234375
          },
          {
            "ticks": 206027,
            "time": 220.11452534791664,
            "value": 0.10693359375
          },
          {
            "ticks": 206038,
            "time": 220.12627749583334,
            "value": 0.1070556640625
          },
          {
            "ticks": 206049,
            "time": 220.13802964375,
            "value": 0.107177734375
          },
          {
            "ticks": 206059,
            "time": 220.1487134145833,
            "value": 0.1072998046875
          },
          {
            "ticks": 206071,
            "time": 220.16153393958334,
            "value": 0.107421875
          },
          {
            "ticks": 206081,
            "time": 220.17221771041665,
            "value": 0.1075439453125
          },
          {
            "ticks": 206092,
            "time": 220.18396985833334,
            "value": 0.107666015625
          },
          {
            "ticks": 206103,
            "time": 220.19572200625,
            "value": 0.1077880859375
          },
          {
            "ticks": 206114,
            "time": 220.20747415416665,
            "value": 0.10791015625
          },
          {
            "ticks": 206124,
            "time": 220.21815792499999,
            "value": 0.1080322265625
          },
          {
            "ticks": 206136,
            "time": 220.23097844999998,
            "value": 0.108154296875
          },
          {
            "ticks": 206146,
            "time": 220.24166222083335,
            "value": 0.1082763671875
          },
          {
            "ticks": 206157,
            "time": 220.25341436875,
            "value": 0.1083984375
          },
          {
            "ticks": 206168,
            "time": 220.26516651666665,
            "value": 0.1085205078125
          },
          {
            "ticks": 206178,
            "time": 220.2758502875,
            "value": 0.108642578125
          },
          {
            "ticks": 206190,
            "time": 220.2886708125,
            "value": 0.1087646484375
          },
          {
            "ticks": 206200,
            "time": 220.2993545833333,
            "value": 0.10888671875
          },
          {
            "ticks": 206211,
            "time": 220.31110673125,
            "value": 0.1090087890625
          },
          {
            "ticks": 206222,
            "time": 220.32285887916666,
            "value": 0.109130859375
          },
          {
            "ticks": 206233,
            "time": 220.33461102708333,
            "value": 0.1092529296875
          },
          {
            "ticks": 206243,
            "time": 220.34529479791664,
            "value": 0.109375
          },
          {
            "ticks": 206255,
            "time": 220.35811532291666,
            "value": 0.1094970703125
          },
          {
            "ticks": 206265,
            "time": 220.36879909375,
            "value": 0.109619140625
          },
          {
            "ticks": 206276,
            "time": 220.38055124166667,
            "value": 0.1097412109375
          },
          {
            "ticks": 206287,
            "time": 220.39230338958333,
            "value": 0.10986328125
          },
          {
            "ticks": 206298,
            "time": 220.4040555375,
            "value": 0.1099853515625
          },
          {
            "ticks": 206308,
            "time": 220.4147393083333,
            "value": 0.110107421875
          },
          {
            "ticks": 206320,
            "time": 220.4275598333333,
            "value": 0.1102294921875
          },
          {
            "ticks": 206330,
            "time": 220.43824360416667,
            "value": 0.1103515625
          },
          {
            "ticks": 206341,
            "time": 220.44999575208334,
            "value": 0.1104736328125
          },
          {
            "ticks": 206352,
            "time": 220.46174789999998,
            "value": 0.110595703125
          },
          {
            "ticks": 206363,
            "time": 220.47350004791664,
            "value": 0.1107177734375
          },
          {
            "ticks": 206373,
            "time": 220.48418381875,
            "value": 0.11083984375
          },
          {
            "ticks": 206385,
            "time": 220.49700434374998,
            "value": 0.1109619140625
          },
          {
            "ticks": 206395,
            "time": 220.50768811458332,
            "value": 0.111083984375
          },
          {
            "ticks": 206406,
            "time": 220.51944026249998,
            "value": 0.1112060546875
          },
          {
            "ticks": 206417,
            "time": 220.53119241041665,
            "value": 0.111328125
          },
          {
            "ticks": 206428,
            "time": 220.54294455833332,
            "value": 0.1114501953125
          },
          {
            "ticks": 206438,
            "time": 220.55362832916666,
            "value": 0.111572265625
          },
          {
            "ticks": 206450,
            "time": 220.56644885416665,
            "value": 0.1116943359375
          },
          {
            "ticks": 206460,
            "time": 220.577132625,
            "value": 0.11181640625
          },
          {
            "ticks": 206471,
            "time": 220.58888477291666,
            "value": 0.1119384765625
          },
          {
            "ticks": 206482,
            "time": 220.60063692083332,
            "value": 0.112060546875
          },
          {
            "ticks": 206493,
            "time": 220.61238906875,
            "value": 0.1121826171875
          },
          {
            "ticks": 206503,
            "time": 220.62307283958333,
            "value": 0.1123046875
          },
          {
            "ticks": 206515,
            "time": 220.63589336458332,
            "value": 0.1124267578125
          },
          {
            "ticks": 206525,
            "time": 220.64657713541666,
            "value": 0.112548828125
          },
          {
            "ticks": 206536,
            "time": 220.65832928333333,
            "value": 0.1126708984375
          },
          {
            "ticks": 206547,
            "time": 220.67008143124997,
            "value": 0.11279296875
          },
          {
            "ticks": 206558,
            "time": 220.68183357916664,
            "value": 0.1129150390625
          },
          {
            "ticks": 206568,
            "time": 220.69251735,
            "value": 0.113037109375
          },
          {
            "ticks": 206580,
            "time": 220.705337875,
            "value": 0.1131591796875
          },
          {
            "ticks": 206590,
            "time": 220.7160216458333,
            "value": 0.11328125
          },
          {
            "ticks": 206601,
            "time": 220.72777379374998,
            "value": 0.1134033203125
          },
          {
            "ticks": 206612,
            "time": 220.73952594166664,
            "value": 0.113525390625
          },
          {
            "ticks": 206623,
            "time": 220.7512780895833,
            "value": 0.1136474609375
          },
          {
            "ticks": 206633,
            "time": 220.76196186041665,
            "value": 0.11376953125
          },
          {
            "ticks": 206645,
            "time": 220.77478238541667,
            "value": 0.1138916015625
          },
          {
            "ticks": 206655,
            "time": 220.78546615624998,
            "value": 0.114013671875
          },
          {
            "ticks": 206666,
            "time": 220.79721830416665,
            "value": 0.1141357421875
          },
          {
            "ticks": 206677,
            "time": 220.80897045208332,
            "value": 0.1142578125
          },
          {
            "ticks": 206688,
            "time": 220.8207226,
            "value": 0.1143798828125
          },
          {
            "ticks": 206698,
            "time": 220.83140637083332,
            "value": 0.114501953125
          },
          {
            "ticks": 206710,
            "time": 220.84422689583332,
            "value": 0.1146240234375
          },
          {
            "ticks": 206720,
            "time": 220.85491066666665,
            "value": 0.11474609375
          },
          {
            "ticks": 206731,
            "time": 220.86666281458332,
            "value": 0.1148681640625
          },
          {
            "ticks": 206742,
            "time": 220.8784149625,
            "value": 0.114990234375
          },
          {
            "ticks": 206753,
            "time": 220.89016711041666,
            "value": 0.1151123046875
          },
          {
            "ticks": 206763,
            "time": 220.90085088125,
            "value": 0.115234375
          },
          {
            "ticks": 206775,
            "time": 220.91367140625,
            "value": 0.1153564453125
          },
          {
            "ticks": 206785,
            "time": 220.9243551770833,
            "value": 0.115478515625
          },
          {
            "ticks": 206796,
            "time": 220.936107325,
            "value": 0.1156005859375
          },
          {
            "ticks": 206807,
            "time": 220.94785947291666,
            "value": 0.11572265625
          },
          {
            "ticks": 206818,
            "time": 220.95961162083333,
            "value": 0.1158447265625
          },
          {
            "ticks": 206828,
            "time": 220.97029539166664,
            "value": 0.115966796875
          },
          {
            "ticks": 206839,
            "time": 220.9820475395833,
            "value": 0.1160888671875
          },
          {
            "ticks": 206851,
            "time": 220.99486806458333,
            "value": 0.1162109375
          },
          {
            "ticks": 206861,
            "time": 221.00555183541667,
            "value": 0.1163330078125
          },
          {
            "ticks": 206872,
            "time": 221.01730398333333,
            "value": 0.116455078125
          },
          {
            "ticks": 206883,
            "time": 221.02905613125,
            "value": 0.1165771484375
          },
          {
            "ticks": 206893,
            "time": 221.0397399020833,
            "value": 0.11669921875
          },
          {
            "ticks": 206905,
            "time": 221.0525604270833,
            "value": 0.1168212890625
          },
          {
            "ticks": 206915,
            "time": 221.06324419791667,
            "value": 0.116943359375
          },
          {
            "ticks": 206926,
            "time": 221.07499634583334,
            "value": 0.1170654296875
          },
          {
            "ticks": 206937,
            "time": 221.08674849374998,
            "value": 0.1171875
          },
          {
            "ticks": 206948,
            "time": 221.09850064166665,
            "value": 0.1173095703125
          },
          {
            "ticks": 206958,
            "time": 221.10918441249999,
            "value": 0.117431640625
          },
          {
            "ticks": 206970,
            "time": 221.12200493749998,
            "value": 0.1175537109375
          },
          {
            "ticks": 206980,
            "time": 221.13268870833332,
            "value": 0.11767578125
          },
          {
            "ticks": 206991,
            "time": 221.14444085625,
            "value": 0.1177978515625
          },
          {
            "ticks": 207002,
            "time": 221.15619300416665,
            "value": 0.117919921875
          },
          {
            "ticks": 207013,
            "time": 221.16794515208332,
            "value": 0.1180419921875
          },
          {
            "ticks": 207023,
            "time": 221.17862892291666,
            "value": 0.1181640625
          },
          {
            "ticks": 207035,
            "time": 221.19144944791665,
            "value": 0.1182861328125
          },
          {
            "ticks": 207045,
            "time": 221.20213321875,
            "value": 0.118408203125
          },
          {
            "ticks": 207056,
            "time": 221.21388536666666,
            "value": 0.1185302734375
          },
          {
            "ticks": 207067,
            "time": 221.22563751458333,
            "value": 0.11865234375
          },
          {
            "ticks": 207078,
            "time": 221.2373896625,
            "value": 0.1187744140625
          },
          {
            "ticks": 207088,
            "time": 221.24807343333333,
            "value": 0.118896484375
          },
          {
            "ticks": 207100,
            "time": 221.2608939583333,
            "value": 0.1190185546875
          },
          {
            "ticks": 207110,
            "time": 221.27157772916667,
            "value": 0.119140625
          },
          {
            "ticks": 207121,
            "time": 221.28332987708333,
            "value": 0.1192626953125
          },
          {
            "ticks": 207132,
            "time": 221.29508202499997,
            "value": 0.119384765625
          },
          {
            "ticks": 207143,
            "time": 221.30683417291664,
            "value": 0.1195068359375
          },
          {
            "ticks": 207153,
            "time": 221.31751794375,
            "value": 0.11962890625
          },
          {
            "ticks": 207165,
            "time": 221.33033846875,
            "value": 0.1197509765625
          },
          {
            "ticks": 207175,
            "time": 221.3410222395833,
            "value": 0.119873046875
          },
          {
            "ticks": 207186,
            "time": 221.35277438749998,
            "value": 0.1199951171875
          },
          {
            "ticks": 207197,
            "time": 221.36452653541664,
            "value": 0.1201171875
          },
          {
            "ticks": 207208,
            "time": 221.3762786833333,
            "value": 0.1202392578125
          },
          {
            "ticks": 207218,
            "time": 221.38696245416665,
            "value": 0.120361328125
          },
          {
            "ticks": 207230,
            "time": 221.39978297916667,
            "value": 0.1204833984375
          },
          {
            "ticks": 207240,
            "time": 221.41046674999998,
            "value": 0.12060546875
          },
          {
            "ticks": 207251,
            "time": 221.42221889791665,
            "value": 0.1207275390625
          },
          {
            "ticks": 207262,
            "time": 221.43397104583332,
            "value": 0.120849609375
          },
          {
            "ticks": 207272,
            "time": 221.44465481666666,
            "value": 0.1209716796875
          },
          {
            "ticks": 207284,
            "time": 221.45747534166665,
            "value": 0.12109375
          },
          {
            "ticks": 207294,
            "time": 221.4681591125,
            "value": 0.1212158203125
          },
          {
            "ticks": 207305,
            "time": 221.47991126041666,
            "value": 0.121337890625
          },
          {
            "ticks": 207316,
            "time": 221.49166340833332,
            "value": 0.1214599609375
          },
          {
            "ticks": 207327,
            "time": 221.50341555624996,
            "value": 0.12158203125
          },
          {
            "ticks": 207337,
            "time": 221.51409932708333,
            "value": 0.1217041015625
          },
          {
            "ticks": 207349,
            "time": 221.52691985208332,
            "value": 0.121826171875
          },
          {
            "ticks": 207359,
            "time": 221.53760362291663,
            "value": 0.1219482421875
          },
          {
            "ticks": 207370,
            "time": 221.5493557708333,
            "value": 0.1220703125
          },
          {
            "ticks": 207381,
            "time": 221.56110791874997,
            "value": 0.1221923828125
          },
          {
            "ticks": 207392,
            "time": 221.57286006666666,
            "value": 0.122314453125
          },
          {
            "ticks": 207402,
            "time": 221.58354383749997,
            "value": 0.1224365234375
          },
          {
            "ticks": 207414,
            "time": 221.5963643625,
            "value": 0.12255859375
          },
          {
            "ticks": 207424,
            "time": 221.6070481333333,
            "value": 0.1226806640625
          },
          {
            "ticks": 207435,
            "time": 221.61880028124997,
            "value": 0.122802734375
          },
          {
            "ticks": 207446,
            "time": 221.63055242916667,
            "value": 0.1229248046875
          },
          {
            "ticks": 207457,
            "time": 221.64230457708334,
            "value": 0.123046875
          },
          {
            "ticks": 207467,
            "time": 221.65298834791665,
            "value": 0.1231689453125
          },
          {
            "ticks": 207479,
            "time": 221.66580887291664,
            "value": 0.123291015625
          },
          {
            "ticks": 207489,
            "time": 221.67649264374998,
            "value": 0.1234130859375
          },
          {
            "ticks": 207500,
            "time": 221.68824479166668,
            "value": 0.12353515625
          },
          {
            "ticks": 207511,
            "time": 221.69999693958334,
            "value": 0.1236572265625
          },
          {
            "ticks": 207522,
            "time": 221.71174908749998,
            "value": 0.123779296875
          },
          {
            "ticks": 207532,
            "time": 221.72243285833332,
            "value": 0.1239013671875
          },
          {
            "ticks": 207544,
            "time": 221.73525338333332,
            "value": 0.1240234375
          },
          {
            "ticks": 207554,
            "time": 221.74593715416665,
            "value": 0.1241455078125
          },
          {
            "ticks": 207565,
            "time": 221.75768930208332,
            "value": 0.124267578125
          },
          {
            "ticks": 207576,
            "time": 221.76944145,
            "value": 0.1243896484375
          },
          {
            "ticks": 207587,
            "time": 221.78119359791665,
            "value": 0.12451171875
          },
          {
            "ticks": 207597,
            "time": 221.79187736874997,
            "value": 0.1246337890625
          },
          {
            "ticks": 207609,
            "time": 221.80469789375,
            "value": 0.124755859375
          },
          {
            "ticks": 207619,
            "time": 221.81538166458333,
            "value": 0.1248779296875
          },
          {
            "ticks": 207630,
            "time": 221.8271338125,
            "value": 0.125
          },
          {
            "ticks": 207641,
            "time": 221.83888596041666,
            "value": 0.1251220703125
          },
          {
            "ticks": 207652,
            "time": 221.85063810833333,
            "value": 0.125244140625
          },
          {
            "ticks": 207662,
            "time": 221.86132187916664,
            "value": 0.1253662109375
          },
          {
            "ticks": 207674,
            "time": 221.87414240416663,
            "value": 0.12548828125
          },
          {
            "ticks": 207684,
            "time": 221.884826175,
            "value": 0.1256103515625
          },
          {
            "ticks": 207695,
            "time": 221.89657832291667,
            "value": 0.125732421875
          },
          {
            "ticks": 207706,
            "time": 221.90833047083333,
            "value": 0.1258544921875
          },
          {
            "ticks": 207717,
            "time": 221.92008261874997,
            "value": 0.1259765625
          },
          {
            "ticks": 207727,
            "time": 221.93076638958334,
            "value": 0.1260986328125
          },
          {
            "ticks": 207739,
            "time": 221.9435869145833,
            "value": 0.126220703125
          },
          {
            "ticks": 207749,
            "time": 221.95427068541665,
            "value": 0.1263427734375
          },
          {
            "ticks": 207760,
            "time": 221.9660228333333,
            "value": 0.12646484375
          },
          {
            "ticks": 207771,
            "time": 221.97777498124998,
            "value": 0.1265869140625
          },
          {
            "ticks": 207782,
            "time": 221.98952712916665,
            "value": 0.126708984375
          },
          {
            "ticks": 207792,
            "time": 222.00021089999998,
            "value": 0.1268310546875
          },
          {
            "ticks": 207804,
            "time": 222.01303142499998,
            "value": 0.126953125
          },
          {
            "ticks": 207814,
            "time": 222.02371519583332,
            "value": 0.1270751953125
          },
          {
            "ticks": 207825,
            "time": 222.03546734374999,
            "value": 0.127197265625
          },
          {
            "ticks": 207836,
            "time": 222.04721949166665,
            "value": 0.1273193359375
          },
          {
            "ticks": 207847,
            "time": 222.05897163958332,
            "value": 0.12744140625
          },
          {
            "ticks": 207857,
            "time": 222.06965541041666,
            "value": 0.1275634765625
          },
          {
            "ticks": 207869,
            "time": 222.08247593541665,
            "value": 0.127685546875
          },
          {
            "ticks": 207879,
            "time": 222.09315970625,
            "value": 0.1278076171875
          },
          {
            "ticks": 207890,
            "time": 222.10491185416666,
            "value": 0.1279296875
          },
          {
            "ticks": 207901,
            "time": 222.11666400208333,
            "value": 0.1280517578125
          },
          {
            "ticks": 207912,
            "time": 222.12841614999996,
            "value": 0.128173828125
          },
          {
            "ticks": 207922,
            "time": 222.13909992083333,
            "value": 0.1282958984375
          },
          {
            "ticks": 207934,
            "time": 222.15192044583333,
            "value": 0.12841796875
          },
          {
            "ticks": 207944,
            "time": 222.16260421666664,
            "value": 0.1285400390625
          },
          {
            "ticks": 207955,
            "time": 222.1743563645833,
            "value": 0.128662109375
          },
          {
            "ticks": 207966,
            "time": 222.18610851249997,
            "value": 0.1287841796875
          },
          {
            "ticks": 207977,
            "time": 222.19786066041667,
            "value": 0.12890625
          },
          {
            "ticks": 207987,
            "time": 222.20854443124998,
            "value": 0.1290283203125
          },
          {
            "ticks": 207999,
            "time": 222.22136495625,
            "value": 0.129150390625
          },
          {
            "ticks": 208009,
            "time": 222.2320487270833,
            "value": 0.1292724609375
          },
          {
            "ticks": 208020,
            "time": 222.24380087499998,
            "value": 0.12939453125
          },
          {
            "ticks": 208031,
            "time": 222.25555302291667,
            "value": 0.1295166015625
          },
          {
            "ticks": 208042,
            "time": 222.26730517083334,
            "value": 0.129638671875
          },
          {
            "ticks": 208052,
            "time": 222.27798894166665,
            "value": 0.1297607421875
          },
          {
            "ticks": 208064,
            "time": 222.29080946666664,
            "value": 0.1298828125
          },
          {
            "ticks": 208074,
            "time": 222.30149323749998,
            "value": 0.1300048828125
          },
          {
            "ticks": 208085,
            "time": 222.31324538541665,
            "value": 0.130126953125
          },
          {
            "ticks": 208096,
            "time": 222.32499753333335,
            "value": 0.1302490234375
          },
          {
            "ticks": 208107,
            "time": 222.33674968124998,
            "value": 0.13037109375
          },
          {
            "ticks": 208117,
            "time": 222.34743345208332,
            "value": 0.1304931640625
          },
          {
            "ticks": 208129,
            "time": 222.36025397708332,
            "value": 0.130615234375
          },
          {
            "ticks": 208139,
            "time": 222.37093774791663,
            "value": 0.1307373046875
          },
          {
            "ticks": 208150,
            "time": 222.38268989583332,
            "value": 0.130859375
          },
          {
            "ticks": 208161,
            "time": 222.39444204375,
            "value": 0.1309814453125
          },
          {
            "ticks": 208172,
            "time": 222.40619419166666,
            "value": 0.131103515625
          },
          {
            "ticks": 208182,
            "time": 222.41687796249997,
            "value": 0.1312255859375
          },
          {
            "ticks": 208192,
            "time": 222.42756173333333,
            "value": 0.13134765625
          },
          {
            "ticks": 208205,
            "time": 222.44145063541666,
            "value": 0.1314697265625
          },
          {
            "ticks": 208215,
            "time": 222.45213440625,
            "value": 0.131591796875
          },
          {
            "ticks": 208226,
            "time": 222.46388655416666,
            "value": 0.1317138671875
          },
          {
            "ticks": 208237,
            "time": 222.47563870208333,
            "value": 0.1318359375
          },
          {
            "ticks": 208247,
            "time": 222.48632247291664,
            "value": 0.1319580078125
          },
          {
            "ticks": 208259,
            "time": 222.49914299791664,
            "value": 0.132080078125
          },
          {
            "ticks": 208269,
            "time": 222.50982676875,
            "value": 0.1322021484375
          },
          {
            "ticks": 208280,
            "time": 222.52157891666667,
            "value": 0.13232421875
          },
          {
            "ticks": 208291,
            "time": 222.53333106458334,
            "value": 0.1324462890625
          },
          {
            "ticks": 208302,
            "time": 222.54508321249997,
            "value": 0.132568359375
          },
          {
            "ticks": 208312,
            "time": 222.55576698333334,
            "value": 0.1326904296875
          },
          {
            "ticks": 208324,
            "time": 222.5685875083333,
            "value": 0.1328125
          },
          {
            "ticks": 208334,
            "time": 222.57927127916665,
            "value": 0.1329345703125
          },
          {
            "ticks": 208345,
            "time": 222.59102342708331,
            "value": 0.133056640625
          },
          {
            "ticks": 208356,
            "time": 222.60277557499998,
            "value": 0.1331787109375
          },
          {
            "ticks": 208366,
            "time": 222.61345934583335,
            "value": 0.13330078125
          },
          {
            "ticks": 208378,
            "time": 222.62627987083332,
            "value": 0.1334228515625
          },
          {
            "ticks": 208388,
            "time": 222.63696364166665,
            "value": 0.133544921875
          },
          {
            "ticks": 208399,
            "time": 222.64871578958332,
            "value": 0.1336669921875
          },
          {
            "ticks": 208410,
            "time": 222.6604679375,
            "value": 0.1337890625
          },
          {
            "ticks": 208421,
            "time": 222.67222008541665,
            "value": 0.1339111328125
          },
          {
            "ticks": 208431,
            "time": 222.68290385625,
            "value": 0.134033203125
          },
          {
            "ticks": 208443,
            "time": 222.69572438125,
            "value": 0.1341552734375
          },
          {
            "ticks": 208452,
            "time": 222.70533977499997,
            "value": 0.13427734375
          },
          {
            "ticks": 208464,
            "time": 222.7181603,
            "value": 0.1343994140625
          },
          {
            "ticks": 208475,
            "time": 222.72991244791666,
            "value": 0.134521484375
          },
          {
            "ticks": 208486,
            "time": 222.74166459583333,
            "value": 0.1346435546875
          },
          {
            "ticks": 208496,
            "time": 222.75234836666667,
            "value": 0.134765625
          },
          {
            "ticks": 208508,
            "time": 222.76516889166663,
            "value": 0.1348876953125
          },
          {
            "ticks": 208518,
            "time": 222.7758526625,
            "value": 0.135009765625
          },
          {
            "ticks": 208529,
            "time": 222.78760481041664,
            "value": 0.1351318359375
          },
          {
            "ticks": 208540,
            "time": 222.7993569583333,
            "value": 0.13525390625
          },
          {
            "ticks": 208551,
            "time": 222.81110910624997,
            "value": 0.1353759765625
          },
          {
            "ticks": 208561,
            "time": 222.82179287708334,
            "value": 0.135498046875
          },
          {
            "ticks": 208573,
            "time": 222.83461340208333,
            "value": 0.1356201171875
          },
          {
            "ticks": 208583,
            "time": 222.84529717291664,
            "value": 0.1357421875
          },
          {
            "ticks": 208594,
            "time": 222.8570493208333,
            "value": 0.1358642578125
          },
          {
            "ticks": 208605,
            "time": 222.86880146874998,
            "value": 0.135986328125
          },
          {
            "ticks": 208616,
            "time": 222.88055361666665,
            "value": 0.1361083984375
          },
          {
            "ticks": 208626,
            "time": 222.89123738749998,
            "value": 0.13623046875
          },
          {
            "ticks": 208638,
            "time": 222.9040579125,
            "value": 0.1363525390625
          },
          {
            "ticks": 208648,
            "time": 222.91474168333332,
            "value": 0.136474609375
          },
          {
            "ticks": 208659,
            "time": 222.92649383124999,
            "value": 0.1365966796875
          },
          {
            "ticks": 208670,
            "time": 222.93824597916665,
            "value": 0.13671875
          },
          {
            "ticks": 208681,
            "time": 222.94999812708335,
            "value": 0.1368408203125
          },
          {
            "ticks": 208691,
            "time": 222.96068189791666,
            "value": 0.136962890625
          },
          {
            "ticks": 208703,
            "time": 222.97350242291665,
            "value": 0.1370849609375
          },
          {
            "ticks": 208713,
            "time": 222.98418619375,
            "value": 0.13720703125
          },
          {
            "ticks": 208724,
            "time": 222.99593834166663,
            "value": 0.1373291015625
          },
          {
            "ticks": 208735,
            "time": 223.00769048958333,
            "value": 0.137451171875
          },
          {
            "ticks": 208746,
            "time": 223.0194426375,
            "value": 0.1375732421875
          },
          {
            "ticks": 208756,
            "time": 223.03012640833333,
            "value": 0.1376953125
          },
          {
            "ticks": 208768,
            "time": 223.04294693333333,
            "value": 0.1378173828125
          },
          {
            "ticks": 208778,
            "time": 223.05363070416664,
            "value": 0.137939453125
          },
          {
            "ticks": 208789,
            "time": 223.0653828520833,
            "value": 0.1380615234375
          },
          {
            "ticks": 208800,
            "time": 223.077135,
            "value": 0.13818359375
          },
          {
            "ticks": 208811,
            "time": 223.08888714791667,
            "value": 0.1383056640625
          },
          {
            "ticks": 208821,
            "time": 223.09957091874998,
            "value": 0.138427734375
          },
          {
            "ticks": 208833,
            "time": 223.11239144375,
            "value": 0.1385498046875
          },
          {
            "ticks": 208843,
            "time": 223.1230752145833,
            "value": 0.138671875
          },
          {
            "ticks": 208854,
            "time": 223.1348273625,
            "value": 0.1387939453125
          },
          {
            "ticks": 208865,
            "time": 223.14657951041667,
            "value": 0.138916015625
          },
          {
            "ticks": 208876,
            "time": 223.15833165833334,
            "value": 0.1390380859375
          },
          {
            "ticks": 208886,
            "time": 223.16901542916665,
            "value": 0.13916015625
          },
          {
            "ticks": 208898,
            "time": 223.18183595416664,
            "value": 0.1392822265625
          },
          {
            "ticks": 208908,
            "time": 223.192519725,
            "value": 0.139404296875
          },
          {
            "ticks": 208919,
            "time": 223.20427187291665,
            "value": 0.1395263671875
          },
          {
            "ticks": 208930,
            "time": 223.21602402083332,
            "value": 0.1396484375
          },
          {
            "ticks": 208941,
            "time": 223.22777616874998,
            "value": 0.1397705078125
          },
          {
            "ticks": 208951,
            "time": 223.23845993958332,
            "value": 0.139892578125
          },
          {
            "ticks": 208963,
            "time": 223.25128046458332,
            "value": 0.1400146484375
          },
          {
            "ticks": 208973,
            "time": 223.26196423541666,
            "value": 0.14013671875
          },
          {
            "ticks": 208984,
            "time": 223.27371638333332,
            "value": 0.1402587890625
          },
          {
            "ticks": 208995,
            "time": 223.28546853125,
            "value": 0.140380859375
          },
          {
            "ticks": 209006,
            "time": 223.29722067916666,
            "value": 0.1405029296875
          },
          {
            "ticks": 209016,
            "time": 223.30790445,
            "value": 0.140625
          },
          {
            "ticks": 209028,
            "time": 223.320724975,
            "value": 0.1407470703125
          },
          {
            "ticks": 209038,
            "time": 223.33140874583333,
            "value": 0.140869140625
          },
          {
            "ticks": 209049,
            "time": 223.34316089375,
            "value": 0.1409912109375
          },
          {
            "ticks": 209060,
            "time": 223.35491304166666,
            "value": 0.14111328125
          },
          {
            "ticks": 209071,
            "time": 223.36666518958333,
            "value": 0.1412353515625
          },
          {
            "ticks": 209081,
            "time": 223.37734896041667,
            "value": 0.141357421875
          },
          {
            "ticks": 209093,
            "time": 223.39016948541664,
            "value": 0.1414794921875
          },
          {
            "ticks": 209103,
            "time": 223.40085325625,
            "value": 0.1416015625
          },
          {
            "ticks": 209114,
            "time": 223.41260540416664,
            "value": 0.1417236328125
          },
          {
            "ticks": 209125,
            "time": 223.4243575520833,
            "value": 0.141845703125
          },
          {
            "ticks": 209136,
            "time": 223.43610969999997,
            "value": 0.1419677734375
          },
          {
            "ticks": 209146,
            "time": 223.44679347083334,
            "value": 0.14208984375
          },
          {
            "ticks": 209158,
            "time": 223.45961399583334,
            "value": 0.1422119140625
          },
          {
            "ticks": 209168,
            "time": 223.47029776666665,
            "value": 0.142333984375
          },
          {
            "ticks": 209179,
            "time": 223.4820499145833,
            "value": 0.1424560546875
          },
          {
            "ticks": 209190,
            "time": 223.49380206249998,
            "value": 0.142578125
          },
          {
            "ticks": 209201,
            "time": 223.50555421041665,
            "value": 0.1427001953125
          },
          {
            "ticks": 209211,
            "time": 223.51623798125,
            "value": 0.142822265625
          },
          {
            "ticks": 209223,
            "time": 223.52905850625,
            "value": 0.1429443359375
          },
          {
            "ticks": 209233,
            "time": 223.53974227708332,
            "value": 0.14306640625
          },
          {
            "ticks": 209244,
            "time": 223.551494425,
            "value": 0.1431884765625
          },
          {
            "ticks": 209255,
            "time": 223.56324657291665,
            "value": 0.143310546875
          },
          {
            "ticks": 209266,
            "time": 223.57499872083332,
            "value": 0.1434326171875
          },
          {
            "ticks": 209276,
            "time": 223.58568249166666,
            "value": 0.1435546875
          },
          {
            "ticks": 209288,
            "time": 223.59850301666665,
            "value": 0.1436767578125
          },
          {
            "ticks": 209298,
            "time": 223.6091867875,
            "value": 0.143798828125
          },
          {
            "ticks": 209309,
            "time": 223.62093893541663,
            "value": 0.1439208984375
          },
          {
            "ticks": 209320,
            "time": 223.6326910833333,
            "value": 0.14404296875
          },
          {
            "ticks": 209331,
            "time": 223.64444323125,
            "value": 0.1441650390625
          },
          {
            "ticks": 209341,
            "time": 223.65512700208333,
            "value": 0.144287109375
          },
          {
            "ticks": 209353,
            "time": 223.66794752708333,
            "value": 0.1444091796875
          },
          {
            "ticks": 209363,
            "time": 223.67863129791664,
            "value": 0.14453125
          },
          {
            "ticks": 209374,
            "time": 223.6903834458333,
            "value": 0.1446533203125
          },
          {
            "ticks": 209385,
            "time": 223.70213559375,
            "value": 0.144775390625
          },
          {
            "ticks": 209395,
            "time": 223.7128193645833,
            "value": 0.1448974609375
          },
          {
            "ticks": 209407,
            "time": 223.72563988958333,
            "value": 0.14501953125
          },
          {
            "ticks": 209417,
            "time": 223.73632366041664,
            "value": 0.1451416015625
          },
          {
            "ticks": 209428,
            "time": 223.7480758083333,
            "value": 0.145263671875
          },
          {
            "ticks": 209439,
            "time": 223.75982795625,
            "value": 0.1453857421875
          },
          {
            "ticks": 209450,
            "time": 223.77158010416667,
            "value": 0.1455078125
          },
          {
            "ticks": 209460,
            "time": 223.78226387499998,
            "value": 0.1456298828125
          },
          {
            "ticks": 209472,
            "time": 223.79508439999998,
            "value": 0.145751953125
          },
          {
            "ticks": 209482,
            "time": 223.80576817083332,
            "value": 0.1458740234375
          },
          {
            "ticks": 209493,
            "time": 223.81752031875,
            "value": 0.14599609375
          },
          {
            "ticks": 209504,
            "time": 223.82927246666665,
            "value": 0.1461181640625
          },
          {
            "ticks": 209515,
            "time": 223.84102461458332,
            "value": 0.146240234375
          },
          {
            "ticks": 209525,
            "time": 223.85170838541666,
            "value": 0.1463623046875
          },
          {
            "ticks": 209537,
            "time": 223.86452891041665,
            "value": 0.146484375
          },
          {
            "ticks": 209546,
            "time": 223.87414430416666,
            "value": 0.1466064453125
          },
          {
            "ticks": 209558,
            "time": 223.88696482916666,
            "value": 0.146728515625
          },
          {
            "ticks": 209569,
            "time": 223.89871697708332,
            "value": 0.1468505859375
          },
          {
            "ticks": 209580,
            "time": 223.910469125,
            "value": 0.14697265625
          },
          {
            "ticks": 209590,
            "time": 223.9211528958333,
            "value": 0.1470947265625
          },
          {
            "ticks": 209602,
            "time": 223.93397342083333,
            "value": 0.147216796875
          },
          {
            "ticks": 209612,
            "time": 223.94465719166666,
            "value": 0.1473388671875
          },
          {
            "ticks": 209623,
            "time": 223.95640933958333,
            "value": 0.1474609375
          },
          {
            "ticks": 209634,
            "time": 223.9681614875,
            "value": 0.1475830078125
          },
          {
            "ticks": 209645,
            "time": 223.97991363541666,
            "value": 0.147705078125
          },
          {
            "ticks": 209655,
            "time": 223.99059740624998,
            "value": 0.1478271484375
          },
          {
            "ticks": 209667,
            "time": 224.00341793124997,
            "value": 0.14794921875
          },
          {
            "ticks": 209677,
            "time": 224.01410170208334,
            "value": 0.1480712890625
          },
          {
            "ticks": 209688,
            "time": 224.02585385,
            "value": 0.148193359375
          },
          {
            "ticks": 209699,
            "time": 224.03760599791664,
            "value": 0.1483154296875
          },
          {
            "ticks": 209710,
            "time": 224.0493581458333,
            "value": 0.1484375
          },
          {
            "ticks": 209720,
            "time": 224.06004191666668,
            "value": 0.1485595703125
          },
          {
            "ticks": 209732,
            "time": 224.07286244166664,
            "value": 0.148681640625
          },
          {
            "ticks": 209742,
            "time": 224.08354621249998,
            "value": 0.1488037109375
          },
          {
            "ticks": 209753,
            "time": 224.09529836041665,
            "value": 0.14892578125
          },
          {
            "ticks": 209764,
            "time": 224.10705050833332,
            "value": 0.1490478515625
          },
          {
            "ticks": 209775,
            "time": 224.11880265624998,
            "value": 0.149169921875
          },
          {
            "ticks": 209785,
            "time": 224.12948642708332,
            "value": 0.1492919921875
          },
          {
            "ticks": 209797,
            "time": 224.14230695208332,
            "value": 0.1494140625
          },
          {
            "ticks": 209807,
            "time": 224.15299072291666,
            "value": 0.1495361328125
          },
          {
            "ticks": 209818,
            "time": 224.16474287083332,
            "value": 0.149658203125
          },
          {
            "ticks": 209829,
            "time": 224.17649501875,
            "value": 0.1497802734375
          },
          {
            "ticks": 209840,
            "time": 224.18824716666666,
            "value": 0.14990234375
          },
          {
            "ticks": 209850,
            "time": 224.1989309375,
            "value": 0.1500244140625
          },
          {
            "ticks": 209862,
            "time": 224.2117514625,
            "value": 0.150146484375
          },
          {
            "ticks": 209872,
            "time": 224.22243523333333,
            "value": 0.1502685546875
          },
          {
            "ticks": 209883,
            "time": 224.23418738125,
            "value": 0.150390625
          },
          {
            "ticks": 209894,
            "time": 224.24593952916663,
            "value": 0.1505126953125
          },
          {
            "ticks": 209905,
            "time": 224.2576916770833,
            "value": 0.150634765625
          },
          {
            "ticks": 209915,
            "time": 224.26837544791667,
            "value": 0.1507568359375
          },
          {
            "ticks": 209927,
            "time": 224.28119597291666,
            "value": 0.15087890625
          },
          {
            "ticks": 209937,
            "time": 224.29187974374997,
            "value": 0.1510009765625
          },
          {
            "ticks": 209948,
            "time": 224.30363189166664,
            "value": 0.151123046875
          },
          {
            "ticks": 209959,
            "time": 224.3153840395833,
            "value": 0.1512451171875
          },
          {
            "ticks": 209970,
            "time": 224.32713618749997,
            "value": 0.1513671875
          },
          {
            "ticks": 209980,
            "time": 224.3378199583333,
            "value": 0.1514892578125
          },
          {
            "ticks": 209992,
            "time": 224.35064048333334,
            "value": 0.151611328125
          },
          {
            "ticks": 210002,
            "time": 224.36132425416665,
            "value": 0.1517333984375
          },
          {
            "ticks": 210013,
            "time": 224.3730764020833,
            "value": 0.15185546875
          },
          {
            "ticks": 210024,
            "time": 224.38482854999998,
            "value": 0.1519775390625
          },
          {
            "ticks": 210035,
            "time": 224.39658069791668,
            "value": 0.152099609375
          },
          {
            "ticks": 210045,
            "time": 224.40726446875,
            "value": 0.1522216796875
          },
          {
            "ticks": 210056,
            "time": 224.41901661666665,
            "value": 0.15234375
          },
          {
            "ticks": 210068,
            "time": 224.43183714166665,
            "value": 0.1524658203125
          },
          {
            "ticks": 210078,
            "time": 224.4425209125,
            "value": 0.152587890625
          },
          {
            "ticks": 210089,
            "time": 224.45427306041665,
            "value": 0.1527099609375
          },
          {
            "ticks": 210100,
            "time": 224.46602520833332,
            "value": 0.15283203125
          },
          {
            "ticks": 210110,
            "time": 224.47670897916666,
            "value": 0.1529541015625
          },
          {
            "ticks": 210122,
            "time": 224.48952950416665,
            "value": 0.153076171875
          },
          {
            "ticks": 210132,
            "time": 224.50021327499996,
            "value": 0.1531982421875
          },
          {
            "ticks": 210143,
            "time": 224.51196542291666,
            "value": 0.1533203125
          },
          {
            "ticks": 210154,
            "time": 224.52371757083333,
            "value": 0.1534423828125
          },
          {
            "ticks": 210165,
            "time": 224.53546971875,
            "value": 0.153564453125
          },
          {
            "ticks": 210175,
            "time": 224.5461534895833,
            "value": 0.1536865234375
          },
          {
            "ticks": 210187,
            "time": 224.55897401458333,
            "value": 0.15380859375
          },
          {
            "ticks": 210197,
            "time": 224.56965778541667,
            "value": 0.1539306640625
          },
          {
            "ticks": 210208,
            "time": 224.58140993333333,
            "value": 0.154052734375
          },
          {
            "ticks": 210219,
            "time": 224.59316208125,
            "value": 0.1541748046875
          },
          {
            "ticks": 210230,
            "time": 224.60491422916667,
            "value": 0.154296875
          },
          {
            "ticks": 210240,
            "time": 224.61559799999998,
            "value": 0.1544189453125
          },
          {
            "ticks": 210252,
            "time": 224.62841852499997,
            "value": 0.154541015625
          },
          {
            "ticks": 210262,
            "time": 224.63910229583334,
            "value": 0.1546630859375
          },
          {
            "ticks": 210273,
            "time": 224.65085444375,
            "value": 0.15478515625
          },
          {
            "ticks": 210284,
            "time": 224.66260659166664,
            "value": 0.1549072265625
          },
          {
            "ticks": 210295,
            "time": 224.6743587395833,
            "value": 0.155029296875
          },
          {
            "ticks": 210305,
            "time": 224.68504251041665,
            "value": 0.1551513671875
          },
          {
            "ticks": 210317,
            "time": 224.69786303541665,
            "value": 0.1552734375
          },
          {
            "ticks": 210327,
            "time": 224.70854680624998,
            "value": 0.1553955078125
          },
          {
            "ticks": 210338,
            "time": 224.72029895416665,
            "value": 0.155517578125
          },
          {
            "ticks": 210349,
            "time": 224.73205110208332,
            "value": 0.1556396484375
          },
          {
            "ticks": 210360,
            "time": 224.74380324999998,
            "value": 0.15576171875
          },
          {
            "ticks": 210370,
            "time": 224.75448702083332,
            "value": 0.1558837890625
          },
          {
            "ticks": 210382,
            "time": 224.76730754583332,
            "value": 0.156005859375
          },
          {
            "ticks": 210392,
            "time": 224.77799131666666,
            "value": 0.1561279296875
          },
          {
            "ticks": 210403,
            "time": 224.78974346458332,
            "value": 0.15625
          },
          {
            "ticks": 210414,
            "time": 224.8014956125,
            "value": 0.1563720703125
          },
          {
            "ticks": 210425,
            "time": 224.81324776041666,
            "value": 0.156494140625
          },
          {
            "ticks": 210435,
            "time": 224.82393153125,
            "value": 0.1566162109375
          },
          {
            "ticks": 210447,
            "time": 224.83675205624996,
            "value": 0.15673828125
          },
          {
            "ticks": 210457,
            "time": 224.84743582708333,
            "value": 0.1568603515625
          },
          {
            "ticks": 210468,
            "time": 224.859187975,
            "value": 0.156982421875
          },
          {
            "ticks": 210479,
            "time": 224.87094012291664,
            "value": 0.1571044921875
          },
          {
            "ticks": 210489,
            "time": 224.88162389375,
            "value": 0.1572265625
          },
          {
            "ticks": 210501,
            "time": 224.89444441874997,
            "value": 0.1573486328125
          },
          {
            "ticks": 210511,
            "time": 224.90512818958334,
            "value": 0.157470703125
          },
          {
            "ticks": 210522,
            "time": 224.91688033749998,
            "value": 0.1575927734375
          },
          {
            "ticks": 210533,
            "time": 224.92863248541664,
            "value": 0.15771484375
          },
          {
            "ticks": 210544,
            "time": 224.9403846333333,
            "value": 0.1578369140625
          },
          {
            "ticks": 210554,
            "time": 224.95106840416665,
            "value": 0.157958984375
          },
          {
            "ticks": 210565,
            "time": 224.96282055208331,
            "value": 0.1580810546875
          },
          {
            "ticks": 210577,
            "time": 224.97564107708334,
            "value": 0.158203125
          },
          {
            "ticks": 210587,
            "time": 224.98632484791665,
            "value": 0.1583251953125
          },
          {
            "ticks": 210598,
            "time": 224.99807699583332,
            "value": 0.158447265625
          },
          {
            "ticks": 210609,
            "time": 225.00982914374998,
            "value": 0.1585693359375
          },
          {
            "ticks": 210619,
            "time": 225.02051291458332,
            "value": 0.15869140625
          },
          {
            "ticks": 210631,
            "time": 225.03333343958334,
            "value": 0.1588134765625
          },
          {
            "ticks": 210641,
            "time": 225.04401721041665,
            "value": 0.158935546875
          },
          {
            "ticks": 210652,
            "time": 225.05576935833332,
            "value": 0.1590576171875
          },
          {
            "ticks": 210663,
            "time": 225.06752150625,
            "value": 0.1591796875
          },
          {
            "ticks": 210674,
            "time": 225.07927365416663,
            "value": 0.1593017578125
          },
          {
            "ticks": 210684,
            "time": 225.089957425,
            "value": 0.159423828125
          },
          {
            "ticks": 210696,
            "time": 225.10277795,
            "value": 0.1595458984375
          },
          {
            "ticks": 210706,
            "time": 225.11346172083333,
            "value": 0.15966796875
          },
          {
            "ticks": 210717,
            "time": 225.12521386874997,
            "value": 0.1597900390625
          },
          {
            "ticks": 210728,
            "time": 225.13696601666663,
            "value": 0.159912109375
          },
          {
            "ticks": 210739,
            "time": 225.14871816458333,
            "value": 0.1600341796875
          },
          {
            "ticks": 210749,
            "time": 225.15940193541664,
            "value": 0.16015625
          },
          {
            "ticks": 210761,
            "time": 225.17222246041666,
            "value": 0.1602783203125
          },
          {
            "ticks": 210771,
            "time": 225.18290623124997,
            "value": 0.160400390625
          },
          {
            "ticks": 210782,
            "time": 225.19465837916664,
            "value": 0.1605224609375
          },
          {
            "ticks": 210793,
            "time": 225.20641052708334,
            "value": 0.16064453125
          },
          {
            "ticks": 210804,
            "time": 225.218162675,
            "value": 0.1607666015625
          },
          {
            "ticks": 210814,
            "time": 225.2288464458333,
            "value": 0.160888671875
          },
          {
            "ticks": 210826,
            "time": 225.24166697083334,
            "value": 0.1610107421875
          },
          {
            "ticks": 210836,
            "time": 225.25235074166665,
            "value": 0.1611328125
          },
          {
            "ticks": 210847,
            "time": 225.26410288958334,
            "value": 0.1612548828125
          },
          {
            "ticks": 210858,
            "time": 225.2758550375,
            "value": 0.161376953125
          },
          {
            "ticks": 210869,
            "time": 225.28760718541665,
            "value": 0.1614990234375
          },
          {
            "ticks": 210879,
            "time": 225.29829095624999,
            "value": 0.16162109375
          },
          {
            "ticks": 210891,
            "time": 225.31111148124998,
            "value": 0.1617431640625
          },
          {
            "ticks": 210901,
            "time": 225.32179525208335,
            "value": 0.161865234375
          },
          {
            "ticks": 210912,
            "time": 225.3335474,
            "value": 0.1619873046875
          },
          {
            "ticks": 210923,
            "time": 225.34529954791665,
            "value": 0.162109375
          },
          {
            "ticks": 210934,
            "time": 225.35705169583332,
            "value": 0.1622314453125
          },
          {
            "ticks": 210944,
            "time": 225.36773546666663,
            "value": 0.162353515625
          },
          {
            "ticks": 210956,
            "time": 225.38055599166665,
            "value": 0.1624755859375
          },
          {
            "ticks": 210966,
            "time": 225.3912397625,
            "value": 0.16259765625
          },
          {
            "ticks": 210977,
            "time": 225.40299191041666,
            "value": 0.1627197265625
          },
          {
            "ticks": 210988,
            "time": 225.41474405833333,
            "value": 0.162841796875
          },
          {
            "ticks": 210999,
            "time": 225.42649620625,
            "value": 0.1629638671875
          },
          {
            "ticks": 211009,
            "time": 225.4371799770833,
            "value": 0.1630859375
          },
          {
            "ticks": 211021,
            "time": 225.45000050208333,
            "value": 0.1632080078125
          },
          {
            "ticks": 211031,
            "time": 225.46068427291667,
            "value": 0.163330078125
          },
          {
            "ticks": 211042,
            "time": 225.47243642083333,
            "value": 0.1634521484375
          },
          {
            "ticks": 211053,
            "time": 225.48418856875,
            "value": 0.16357421875
          },
          {
            "ticks": 211064,
            "time": 225.49594071666664,
            "value": 0.1636962890625
          },
          {
            "ticks": 211074,
            "time": 225.5066244875,
            "value": 0.163818359375
          },
          {
            "ticks": 211086,
            "time": 225.51944501249997,
            "value": 0.1639404296875
          },
          {
            "ticks": 211096,
            "time": 225.53012878333334,
            "value": 0.1640625
          },
          {
            "ticks": 211107,
            "time": 225.54188093124998,
            "value": 0.1641845703125
          },
          {
            "ticks": 211118,
            "time": 225.55363307916664,
            "value": 0.164306640625
          },
          {
            "ticks": 211129,
            "time": 225.5653852270833,
            "value": 0.1644287109375
          },
          {
            "ticks": 211139,
            "time": 225.57606899791665,
            "value": 0.16455078125
          },
          {
            "ticks": 211151,
            "time": 225.58888952291665,
            "value": 0.1646728515625
          },
          {
            "ticks": 211161,
            "time": 225.59957329374998,
            "value": 0.164794921875
          },
          {
            "ticks": 211172,
            "time": 225.61132544166665,
            "value": 0.1649169921875
          },
          {
            "ticks": 211183,
            "time": 225.62307758958332,
            "value": 0.1650390625
          },
          {
            "ticks": 211194,
            "time": 225.63482973749998,
            "value": 0.1651611328125
          },
          {
            "ticks": 211204,
            "time": 225.64551350833332,
            "value": 0.165283203125
          },
          {
            "ticks": 211216,
            "time": 225.65833403333335,
            "value": 0.1654052734375
          },
          {
            "ticks": 211226,
            "time": 225.66901780416666,
            "value": 0.16552734375
          },
          {
            "ticks": 211237,
            "time": 225.68076995208332,
            "value": 0.1656494140625
          },
          {
            "ticks": 211248,
            "time": 225.6925221,
            "value": 0.165771484375
          },
          {
            "ticks": 211259,
            "time": 225.70427424791663,
            "value": 0.1658935546875
          },
          {
            "ticks": 211269,
            "time": 225.71495801875,
            "value": 0.166015625
          },
          {
            "ticks": 211281,
            "time": 225.72777854375,
            "value": 0.1661376953125
          },
          {
            "ticks": 211291,
            "time": 225.73846231458333,
            "value": 0.166259765625
          },
          {
            "ticks": 211302,
            "time": 225.75021446249997,
            "value": 0.1663818359375
          },
          {
            "ticks": 211313,
            "time": 225.76196661041664,
            "value": 0.16650390625
          },
          {
            "ticks": 211324,
            "time": 225.77371875833333,
            "value": 0.1666259765625
          },
          {
            "ticks": 211334,
            "time": 225.78440252916664,
            "value": 0.166748046875
          },
          {
            "ticks": 211346,
            "time": 225.79722305416666,
            "value": 0.1668701171875
          },
          {
            "ticks": 211356,
            "time": 225.80790682499998,
            "value": 0.1669921875
          },
          {
            "ticks": 211367,
            "time": 225.81965897291664,
            "value": 0.1671142578125
          },
          {
            "ticks": 211378,
            "time": 225.8314111208333,
            "value": 0.167236328125
          },
          {
            "ticks": 211389,
            "time": 225.84316326875,
            "value": 0.1673583984375
          },
          {
            "ticks": 211399,
            "time": 225.85384703958331,
            "value": 0.16748046875
          },
          {
            "ticks": 211410,
            "time": 225.86559918749998,
            "value": 0.1676025390625
          },
          {
            "ticks": 211422,
            "time": 225.87841971249998,
            "value": 0.167724609375
          },
          {
            "ticks": 211432,
            "time": 225.88910348333332,
            "value": 0.1678466796875
          },
          {
            "ticks": 211443,
            "time": 225.90085563125,
            "value": 0.16796875
          },
          {
            "ticks": 211454,
            "time": 225.91260777916665,
            "value": 0.1680908203125
          },
          {
            "ticks": 211464,
            "time": 225.92329155,
            "value": 0.168212890625
          },
          {
            "ticks": 211476,
            "time": 225.93611207499998,
            "value": 0.1683349609375
          },
          {
            "ticks": 211486,
            "time": 225.94679584583332,
            "value": 0.16845703125
          },
          {
            "ticks": 211497,
            "time": 225.95854799375,
            "value": 0.1685791015625
          },
          {
            "ticks": 211508,
            "time": 225.97030014166666,
            "value": 0.168701171875
          },
          {
            "ticks": 211519,
            "time": 225.98205228958332,
            "value": 0.1688232421875
          },
          {
            "ticks": 211529,
            "time": 225.99273606041663,
            "value": 0.1689453125
          },
          {
            "ticks": 211541,
            "time": 226.00555658541666,
            "value": 0.1690673828125
          },
          {
            "ticks": 211551,
            "time": 226.01624035625,
            "value": 0.169189453125
          },
          {
            "ticks": 211562,
            "time": 226.02799250416666,
            "value": 0.1693115234375
          },
          {
            "ticks": 211573,
            "time": 226.03974465208333,
            "value": 0.16943359375
          },
          {
            "ticks": 211583,
            "time": 226.05042842291664,
            "value": 0.1695556640625
          },
          {
            "ticks": 211595,
            "time": 226.06324894791666,
            "value": 0.169677734375
          },
          {
            "ticks": 211605,
            "time": 226.07393271875,
            "value": 0.1697998046875
          },
          {
            "ticks": 211616,
            "time": 226.08568486666667,
            "value": 0.169921875
          },
          {
            "ticks": 211627,
            "time": 226.09743701458333,
            "value": 0.1700439453125
          },
          {
            "ticks": 211638,
            "time": 226.1091891625,
            "value": 0.170166015625
          },
          {
            "ticks": 211648,
            "time": 226.1198729333333,
            "value": 0.1702880859375
          },
          {
            "ticks": 211660,
            "time": 226.1326934583333,
            "value": 0.17041015625
          },
          {
            "ticks": 211670,
            "time": 226.14337722916667,
            "value": 0.1705322265625
          },
          {
            "ticks": 211681,
            "time": 226.15512937708334,
            "value": 0.170654296875
          },
          {
            "ticks": 211692,
            "time": 226.16688152499998,
            "value": 0.1707763671875
          },
          {
            "ticks": 211703,
            "time": 226.17863367291665,
            "value": 0.1708984375
          },
          {
            "ticks": 211713,
            "time": 226.18931744374999,
            "value": 0.1710205078125
          },
          {
            "ticks": 211725,
            "time": 226.20213796874998,
            "value": 0.171142578125
          },
          {
            "ticks": 211735,
            "time": 226.21282173958332,
            "value": 0.1712646484375
          },
          {
            "ticks": 211746,
            "time": 226.2245738875,
            "value": 0.17138671875
          },
          {
            "ticks": 211757,
            "time": 226.23632603541665,
            "value": 0.1715087890625
          },
          {
            "ticks": 211768,
            "time": 226.24807818333332,
            "value": 0.171630859375
          },
          {
            "ticks": 211778,
            "time": 226.25876195416666,
            "value": 0.1717529296875
          },
          {
            "ticks": 211790,
            "time": 226.27158247916665,
            "value": 0.171875
          },
          {
            "ticks": 211800,
            "time": 226.28226625,
            "value": 0.1719970703125
          },
          {
            "ticks": 211811,
            "time": 226.29401839791666,
            "value": 0.172119140625
          },
          {
            "ticks": 211822,
            "time": 226.30577054583333,
            "value": 0.1722412109375
          },
          {
            "ticks": 211833,
            "time": 226.31752269375,
            "value": 0.17236328125
          },
          {
            "ticks": 211843,
            "time": 226.32820646458333,
            "value": 0.1724853515625
          },
          {
            "ticks": 211855,
            "time": 226.3410269895833,
            "value": 0.172607421875
          },
          {
            "ticks": 211865,
            "time": 226.35171076041667,
            "value": 0.1727294921875
          },
          {
            "ticks": 211876,
            "time": 226.36346290833333,
            "value": 0.1728515625
          },
          {
            "ticks": 211887,
            "time": 226.37521505624997,
            "value": 0.1729736328125
          },
          {
            "ticks": 211898,
            "time": 226.38696720416664,
            "value": 0.173095703125
          },
          {
            "ticks": 211908,
            "time": 226.397650975,
            "value": 0.1732177734375
          },
          {
            "ticks": 211919,
            "time": 226.40940312291664,
            "value": 0.17333984375
          },
          {
            "ticks": 211931,
            "time": 226.42222364791667,
            "value": 0.1734619140625
          },
          {
            "ticks": 211941,
            "time": 226.43290741874998,
            "value": 0.173583984375
          },
          {
            "ticks": 211952,
            "time": 226.44465956666664,
            "value": 0.1737060546875
          },
          {
            "ticks": 211963,
            "time": 226.4564117145833,
            "value": 0.173828125
          },
          {
            "ticks": 211973,
            "time": 226.46709548541665,
            "value": 0.1739501953125
          },
          {
            "ticks": 211985,
            "time": 226.47991601041667,
            "value": 0.174072265625
          },
          {
            "ticks": 211995,
            "time": 226.49059978124998,
            "value": 0.1741943359375
          },
          {
            "ticks": 212006,
            "time": 226.50235192916665,
            "value": 0.17431640625
          },
          {
            "ticks": 212017,
            "time": 226.51410407708332,
            "value": 0.1744384765625
          },
          {
            "ticks": 212028,
            "time": 226.525856225,
            "value": 0.174560546875
          },
          {
            "ticks": 212038,
            "time": 226.53653999583332,
            "value": 0.1746826171875
          },
          {
            "ticks": 212050,
            "time": 226.54936052083332,
            "value": 0.1748046875
          },
          {
            "ticks": 212060,
            "time": 226.56004429166666,
            "value": 0.1749267578125
          },
          {
            "ticks": 212071,
            "time": 226.57179643958332,
            "value": 0.175048828125
          },
          {
            "ticks": 212082,
            "time": 226.58354858749996,
            "value": 0.1751708984375
          },
          {
            "ticks": 212093,
            "time": 226.59530073541666,
            "value": 0.17529296875
          },
          {
            "ticks": 212103,
            "time": 226.60598450625,
            "value": 0.1754150390625
          },
          {
            "ticks": 212115,
            "time": 226.61880503125,
            "value": 0.175537109375
          },
          {
            "ticks": 212125,
            "time": 226.6294888020833,
            "value": 0.1756591796875
          },
          {
            "ticks": 212136,
            "time": 226.64124094999997,
            "value": 0.17578125
          },
          {
            "ticks": 212147,
            "time": 226.65299309791666,
            "value": 0.1759033203125
          },
          {
            "ticks": 212158,
            "time": 226.66474524583333,
            "value": 0.176025390625
          },
          {
            "ticks": 212168,
            "time": 226.67542901666664,
            "value": 0.1761474609375
          },
          {
            "ticks": 212180,
            "time": 226.68824954166666,
            "value": 0.17626953125
          },
          {
            "ticks": 212190,
            "time": 226.69893331249997,
            "value": 0.1763916015625
          },
          {
            "ticks": 212201,
            "time": 226.71068546041667,
            "value": 0.176513671875
          },
          {
            "ticks": 212212,
            "time": 226.72243760833334,
            "value": 0.1766357421875
          },
          {
            "ticks": 212223,
            "time": 226.73418975625,
            "value": 0.1767578125
          },
          {
            "ticks": 212233,
            "time": 226.7448735270833,
            "value": 0.1768798828125
          },
          {
            "ticks": 212245,
            "time": 226.7576940520833,
            "value": 0.177001953125
          },
          {
            "ticks": 212255,
            "time": 226.76837782291668,
            "value": 0.1771240234375
          },
          {
            "ticks": 212266,
            "time": 226.78012997083334,
            "value": 0.17724609375
          },
          {
            "ticks": 212277,
            "time": 226.79188211874998,
            "value": 0.1773681640625
          },
          {
            "ticks": 212288,
            "time": 226.80363426666665,
            "value": 0.177490234375
          },
          {
            "ticks": 212298,
            "time": 226.8143180375,
            "value": 0.1776123046875
          },
          {
            "ticks": 212310,
            "time": 226.82713856249998,
            "value": 0.177734375
          },
          {
            "ticks": 212320,
            "time": 226.83782233333332,
            "value": 0.1778564453125
          },
          {
            "ticks": 212331,
            "time": 226.84957448125,
            "value": 0.177978515625
          },
          {
            "ticks": 212342,
            "time": 226.86132662916665,
            "value": 0.1781005859375
          },
          {
            "ticks": 212353,
            "time": 226.87307877708332,
            "value": 0.17822265625
          },
          {
            "ticks": 212363,
            "time": 226.88376254791663,
            "value": 0.1783447265625
          },
          {
            "ticks": 212375,
            "time": 226.89658307291666,
            "value": 0.178466796875
          },
          {
            "ticks": 212385,
            "time": 226.90726684375,
            "value": 0.1785888671875
          },
          {
            "ticks": 212396,
            "time": 226.91901899166666,
            "value": 0.1787109375
          },
          {
            "ticks": 212407,
            "time": 226.93077113958333,
            "value": 0.1788330078125
          },
          {
            "ticks": 212418,
            "time": 226.9425232875,
            "value": 0.178955078125
          },
          {
            "ticks": 212428,
            "time": 226.95320705833333,
            "value": 0.1790771484375
          },
          {
            "ticks": 212440,
            "time": 226.9660275833333,
            "value": 0.17919921875
          },
          {
            "ticks": 212450,
            "time": 226.97671135416667,
            "value": 0.1793212890625
          },
          {
            "ticks": 212461,
            "time": 226.98846350208333,
            "value": 0.179443359375
          },
          {
            "ticks": 212472,
            "time": 227.00021564999997,
            "value": 0.1795654296875
          },
          {
            "ticks": 212483,
            "time": 227.01196779791664,
            "value": 0.1796875
          },
          {
            "ticks": 212493,
            "time": 227.02265156875,
            "value": 0.1798095703125
          },
          {
            "ticks": 212505,
            "time": 227.03547209374997,
            "value": 0.179931640625
          },
          {
            "ticks": 212515,
            "time": 227.0461558645833,
            "value": 0.1800537109375
          },
          {
            "ticks": 212526,
            "time": 227.05790801249998,
            "value": 0.18017578125
          },
          {
            "ticks": 212537,
            "time": 227.06966016041665,
            "value": 0.1802978515625
          },
          {
            "ticks": 212548,
            "time": 227.0814123083333,
            "value": 0.180419921875
          },
          {
            "ticks": 212558,
            "time": 227.09209607916665,
            "value": 0.1805419921875
          },
          {
            "ticks": 212570,
            "time": 227.10491660416668,
            "value": 0.1806640625
          },
          {
            "ticks": 212580,
            "time": 227.11560037499999,
            "value": 0.1807861328125
          },
          {
            "ticks": 212591,
            "time": 227.12735252291665,
            "value": 0.180908203125
          },
          {
            "ticks": 212602,
            "time": 227.13910467083332,
            "value": 0.1810302734375
          },
          {
            "ticks": 212612,
            "time": 227.14978844166666,
            "value": 0.18115234375
          },
          {
            "ticks": 212624,
            "time": 227.16260896666665,
            "value": 0.1812744140625
          },
          {
            "ticks": 212634,
            "time": 227.1732927375,
            "value": 0.181396484375
          },
          {
            "ticks": 212645,
            "time": 227.18504488541666,
            "value": 0.1815185546875
          },
          {
            "ticks": 212656,
            "time": 227.19679703333333,
            "value": 0.181640625
          },
          {
            "ticks": 212667,
            "time": 227.20854918124996,
            "value": 0.1817626953125
          },
          {
            "ticks": 212677,
            "time": 227.21923295208333,
            "value": 0.181884765625
          },
          {
            "ticks": 212689,
            "time": 227.23205347708333,
            "value": 0.1820068359375
          },
          {
            "ticks": 212699,
            "time": 227.24273724791664,
            "value": 0.18212890625
          },
          {
            "ticks": 212710,
            "time": 227.2544893958333,
            "value": 0.1822509765625
          },
          {
            "ticks": 212721,
            "time": 227.26624154374997,
            "value": 0.182373046875
          },
          {
            "ticks": 212732,
            "time": 227.27799369166667,
            "value": 0.1824951171875
          },
          {
            "ticks": 212742,
            "time": 227.28867746249998,
            "value": 0.1826171875
          },
          {
            "ticks": 212754,
            "time": 227.3014979875,
            "value": 0.1827392578125
          },
          {
            "ticks": 212764,
            "time": 227.3121817583333,
            "value": 0.182861328125
          },
          {
            "ticks": 212775,
            "time": 227.32393390624998,
            "value": 0.1829833984375
          },
          {
            "ticks": 212786,
            "time": 227.33568605416667,
            "value": 0.18310546875
          },
          {
            "ticks": 212797,
            "time": 227.34743820208334,
            "value": 0.1832275390625
          },
          {
            "ticks": 212807,
            "time": 227.35812197291665,
            "value": 0.183349609375
          },
          {
            "ticks": 212819,
            "time": 227.37094249791664,
            "value": 0.1834716796875
          },
          {
            "ticks": 212829,
            "time": 227.38162626874998,
            "value": 0.18359375
          },
          {
            "ticks": 212840,
            "time": 227.39337841666665,
            "value": 0.1837158203125
          },
          {
            "ticks": 212851,
            "time": 227.40513056458335,
            "value": 0.183837890625
          },
          {
            "ticks": 212862,
            "time": 227.41688271249998,
            "value": 0.1839599609375
          },
          {
            "ticks": 212872,
            "time": 227.42756648333332,
            "value": 0.18408203125
          },
          {
            "ticks": 212884,
            "time": 227.44038700833332,
            "value": 0.1842041015625
          },
          {
            "ticks": 212894,
            "time": 227.45107077916663,
            "value": 0.184326171875
          },
          {
            "ticks": 212905,
            "time": 227.46282292708332,
            "value": 0.1844482421875
          },
          {
            "ticks": 212916,
            "time": 227.474575075,
            "value": 0.1845703125
          },
          {
            "ticks": 212927,
            "time": 227.48632722291666,
            "value": 0.1846923828125
          },
          {
            "ticks": 212937,
            "time": 227.49701099374997,
            "value": 0.184814453125
          },
          {
            "ticks": 212949,
            "time": 227.50983151875,
            "value": 0.1849365234375
          },
          {
            "ticks": 212959,
            "time": 227.52051528958333,
            "value": 0.18505859375
          },
          {
            "ticks": 212970,
            "time": 227.5322674375,
            "value": 0.1851806640625
          },
          {
            "ticks": 212981,
            "time": 227.54401958541666,
            "value": 0.185302734375
          },
          {
            "ticks": 212992,
            "time": 227.55577173333333,
            "value": 0.1854248046875
          },
          {
            "ticks": 213002,
            "time": 227.56645550416664,
            "value": 0.185546875
          },
          {
            "ticks": 213014,
            "time": 227.57927602916664,
            "value": 0.1856689453125
          },
          {
            "ticks": 213024,
            "time": 227.5899598,
            "value": 0.185791015625
          },
          {
            "ticks": 213035,
            "time": 227.60171194791667,
            "value": 0.1859130859375
          },
          {
            "ticks": 213046,
            "time": 227.61346409583334,
            "value": 0.18603515625
          },
          {
            "ticks": 213057,
            "time": 227.62521624374997,
            "value": 0.1861572265625
          },
          {
            "ticks": 213067,
            "time": 227.63590001458334,
            "value": 0.186279296875
          },
          {
            "ticks": 213079,
            "time": 227.6487205395833,
            "value": 0.1864013671875
          },
          {
            "ticks": 213089,
            "time": 227.65940431041665,
            "value": 0.1865234375
          },
          {
            "ticks": 213100,
            "time": 227.67115645833331,
            "value": 0.1866455078125
          },
          {
            "ticks": 213111,
            "time": 227.68290860624998,
            "value": 0.186767578125
          },
          {
            "ticks": 213122,
            "time": 227.69466075416665,
            "value": 0.1868896484375
          },
          {
            "ticks": 213132,
            "time": 227.705344525,
            "value": 0.18701171875
          },
          {
            "ticks": 213144,
            "time": 227.71816504999998,
            "value": 0.1871337890625
          },
          {
            "ticks": 213154,
            "time": 227.72884882083332,
            "value": 0.187255859375
          },
          {
            "ticks": 213165,
            "time": 227.74060096875,
            "value": 0.1873779296875
          },
          {
            "ticks": 213176,
            "time": 227.75235311666665,
            "value": 0.1875
          },
          {
            "ticks": 213187,
            "time": 227.76410526458332,
            "value": 0.1876220703125
          },
          {
            "ticks": 213197,
            "time": 227.77478903541666,
            "value": 0.187744140625
          },
          {
            "ticks": 213209,
            "time": 227.78760956041663,
            "value": 0.1878662109375
          },
          {
            "ticks": 213219,
            "time": 227.79829333125,
            "value": 0.18798828125
          },
          {
            "ticks": 213230,
            "time": 227.81004547916666,
            "value": 0.1881103515625
          },
          {
            "ticks": 213241,
            "time": 227.82179762708333,
            "value": 0.188232421875
          },
          {
            "ticks": 213252,
            "time": 227.83354977499997,
            "value": 0.1883544921875
          },
          {
            "ticks": 213263,
            "time": 227.84530192291663,
            "value": 0.1884765625
          },
          {
            "ticks": 213273,
            "time": 227.85598569375,
            "value": 0.1885986328125
          },
          {
            "ticks": 213285,
            "time": 227.86880621875,
            "value": 0.188720703125
          },
          {
            "ticks": 213295,
            "time": 227.8794899895833,
            "value": 0.1888427734375
          },
          {
            "ticks": 213306,
            "time": 227.89124213749997,
            "value": 0.18896484375
          },
          {
            "ticks": 213317,
            "time": 227.90299428541664,
            "value": 0.1890869140625
          },
          {
            "ticks": 213327,
            "time": 227.91367805624998,
            "value": 0.189208984375
          },
          {
            "ticks": 213339,
            "time": 227.92649858125,
            "value": 0.1893310546875
          },
          {
            "ticks": 213349,
            "time": 227.9371823520833,
            "value": 0.189453125
          },
          {
            "ticks": 213360,
            "time": 227.94893449999998,
            "value": 0.1895751953125
          },
          {
            "ticks": 213371,
            "time": 227.96068664791665,
            "value": 0.189697265625
          },
          {
            "ticks": 213382,
            "time": 227.97243879583334,
            "value": 0.1898193359375
          },
          {
            "ticks": 213392,
            "time": 227.98312256666665,
            "value": 0.18994140625
          },
          {
            "ticks": 213404,
            "time": 227.99594309166665,
            "value": 0.1900634765625
          },
          {
            "ticks": 213414,
            "time": 228.00662686249999,
            "value": 0.190185546875
          },
          {
            "ticks": 213425,
            "time": 228.01837901041665,
            "value": 0.1903076171875
          },
          {
            "ticks": 213436,
            "time": 228.03013115833335,
            "value": 0.1904296875
          },
          {
            "ticks": 213447,
            "time": 228.04188330624999,
            "value": 0.1905517578125
          },
          {
            "ticks": 213457,
            "time": 228.05256707708332,
            "value": 0.190673828125
          },
          {
            "ticks": 213469,
            "time": 228.06538760208332,
            "value": 0.1907958984375
          },
          {
            "ticks": 213479,
            "time": 228.07607137291663,
            "value": 0.19091796875
          },
          {
            "ticks": 213490,
            "time": 228.0878235208333,
            "value": 0.1910400390625
          },
          {
            "ticks": 213501,
            "time": 228.09957566875,
            "value": 0.191162109375
          },
          {
            "ticks": 213512,
            "time": 228.11132781666666,
            "value": 0.1912841796875
          },
          {
            "ticks": 213522,
            "time": 228.12201158749997,
            "value": 0.19140625
          },
          {
            "ticks": 213534,
            "time": 228.1348321125,
            "value": 0.1915283203125
          },
          {
            "ticks": 213544,
            "time": 228.1455158833333,
            "value": 0.191650390625
          },
          {
            "ticks": 213555,
            "time": 228.15726803125,
            "value": 0.1917724609375
          },
          {
            "ticks": 213566,
            "time": 228.16902017916667,
            "value": 0.19189453125
          },
          {
            "ticks": 213577,
            "time": 228.18077232708333,
            "value": 0.1920166015625
          },
          {
            "ticks": 213587,
            "time": 228.19145609791664,
            "value": 0.192138671875
          },
          {
            "ticks": 213599,
            "time": 228.20427662291664,
            "value": 0.1922607421875
          },
          {
            "ticks": 213609,
            "time": 228.21496039375,
            "value": 0.1923828125
          },
          {
            "ticks": 213620,
            "time": 228.22671254166667,
            "value": 0.1925048828125
          },
          {
            "ticks": 213631,
            "time": 228.23846468958334,
            "value": 0.192626953125
          },
          {
            "ticks": 213642,
            "time": 228.25021683749998,
            "value": 0.1927490234375
          },
          {
            "ticks": 213652,
            "time": 228.26090060833332,
            "value": 0.19287109375
          },
          {
            "ticks": 213664,
            "time": 228.2737211333333,
            "value": 0.1929931640625
          },
          {
            "ticks": 213674,
            "time": 228.28440490416665,
            "value": 0.193115234375
          },
          {
            "ticks": 213685,
            "time": 228.29615705208332,
            "value": 0.1932373046875
          },
          {
            "ticks": 213696,
            "time": 228.30790919999998,
            "value": 0.193359375
          },
          {
            "ticks": 213706,
            "time": 228.31859297083332,
            "value": 0.1934814453125
          },
          {
            "ticks": 213718,
            "time": 228.33141349583332,
            "value": 0.193603515625
          },
          {
            "ticks": 213728,
            "time": 228.34209726666666,
            "value": 0.1937255859375
          },
          {
            "ticks": 213739,
            "time": 228.35384941458332,
            "value": 0.19384765625
          },
          {
            "ticks": 213750,
            "time": 228.3656015625,
            "value": 0.1939697265625
          },
          {
            "ticks": 213761,
            "time": 228.37735371041666,
            "value": 0.194091796875
          },
          {
            "ticks": 213771,
            "time": 228.38803748125,
            "value": 0.1942138671875
          },
          {
            "ticks": 213782,
            "time": 228.39978962916666,
            "value": 0.1943359375
          },
          {
            "ticks": 213794,
            "time": 228.41261015416663,
            "value": 0.1944580078125
          },
          {
            "ticks": 213804,
            "time": 228.423293925,
            "value": 0.194580078125
          },
          {
            "ticks": 213815,
            "time": 228.43504607291666,
            "value": 0.1947021484375
          },
          {
            "ticks": 213826,
            "time": 228.44679822083333,
            "value": 0.19482421875
          },
          {
            "ticks": 213836,
            "time": 228.45748199166667,
            "value": 0.1949462890625
          },
          {
            "ticks": 213848,
            "time": 228.47030251666664,
            "value": 0.195068359375
          },
          {
            "ticks": 213858,
            "time": 228.4809862875,
            "value": 0.1951904296875
          },
          {
            "ticks": 213869,
            "time": 228.49273843541664,
            "value": 0.1953125
          },
          {
            "ticks": 213880,
            "time": 228.5044905833333,
            "value": 0.1954345703125
          },
          {
            "ticks": 213891,
            "time": 228.51624273124997,
            "value": 0.195556640625
          },
          {
            "ticks": 213901,
            "time": 228.52692650208334,
            "value": 0.1956787109375
          },
          {
            "ticks": 213913,
            "time": 228.53974702708334,
            "value": 0.19580078125
          },
          {
            "ticks": 213923,
            "time": 228.55043079791665,
            "value": 0.1959228515625
          },
          {
            "ticks": 213934,
            "time": 228.5621829458333,
            "value": 0.196044921875
          },
          {
            "ticks": 213945,
            "time": 228.57393509374998,
            "value": 0.1961669921875
          },
          {
            "ticks": 213956,
            "time": 228.58568724166665,
            "value": 0.1962890625
          },
          {
            "ticks": 213966,
            "time": 228.5963710125,
            "value": 0.1964111328125
          },
          {
            "ticks": 213978,
            "time": 228.6091915375,
            "value": 0.196533203125
          },
          {
            "ticks": 213988,
            "time": 228.61987530833332,
            "value": 0.1966552734375
          },
          {
            "ticks": 213999,
            "time": 228.63162745625,
            "value": 0.19677734375
          },
          {
            "ticks": 214010,
            "time": 228.64337960416665,
            "value": 0.1968994140625
          },
          {
            "ticks": 214021,
            "time": 228.65513175208332,
            "value": 0.197021484375
          },
          {
            "ticks": 214031,
            "time": 228.66581552291666,
            "value": 0.1971435546875
          },
          {
            "ticks": 214043,
            "time": 228.67863604791665,
            "value": 0.197265625
          },
          {
            "ticks": 214053,
            "time": 228.68931981875,
            "value": 0.1973876953125
          },
          {
            "ticks": 214064,
            "time": 228.70107196666663,
            "value": 0.197509765625
          },
          {
            "ticks": 214075,
            "time": 228.7128241145833,
            "value": 0.1976318359375
          },
          {
            "ticks": 214086,
            "time": 228.7245762625,
            "value": 0.19775390625
          },
          {
            "ticks": 214096,
            "time": 228.73526003333333,
            "value": 0.1978759765625
          },
          {
            "ticks": 214108,
            "time": 228.74808055833333,
            "value": 0.197998046875
          },
          {
            "ticks": 214118,
            "time": 228.75876432916664,
            "value": 0.1981201171875
          },
          {
            "ticks": 214129,
            "time": 228.7705164770833,
            "value": 0.1982421875
          },
          {
            "ticks": 214140,
            "time": 228.782268625,
            "value": 0.1983642578125
          },
          {
            "ticks": 214151,
            "time": 228.79402077291667,
            "value": 0.198486328125
          },
          {
            "ticks": 214161,
            "time": 228.80470454374998,
            "value": 0.1986083984375
          },
          {
            "ticks": 214173,
            "time": 228.81752506875,
            "value": 0.19873046875
          },
          {
            "ticks": 214183,
            "time": 228.8282088395833,
            "value": 0.1988525390625
          },
          {
            "ticks": 214194,
            "time": 228.8399609875,
            "value": 0.198974609375
          },
          {
            "ticks": 214205,
            "time": 228.85171313541667,
            "value": 0.1990966796875
          },
          {
            "ticks": 214216,
            "time": 228.86346528333334,
            "value": 0.19921875
          },
          {
            "ticks": 214226,
            "time": 228.87414905416665,
            "value": 0.1993408203125
          },
          {
            "ticks": 214238,
            "time": 228.88696957916665,
            "value": 0.199462890625
          },
          {
            "ticks": 214248,
            "time": 228.89765335,
            "value": 0.1995849609375
          },
          {
            "ticks": 214259,
            "time": 228.90940549791665,
            "value": 0.19970703125
          },
          {
            "ticks": 214270,
            "time": 228.92115764583332,
            "value": 0.1998291015625
          },
          {
            "ticks": 214281,
            "time": 228.93290979374999,
            "value": 0.199951171875
          },
          {
            "ticks": 214291,
            "time": 228.94359356458332,
            "value": 0.2000732421875
          },
          {
            "ticks": 214303,
            "time": 228.95641408958332,
            "value": 0.2001953125
          },
          {
            "ticks": 214313,
            "time": 228.96709786041666,
            "value": 0.2003173828125
          },
          {
            "ticks": 214324,
            "time": 228.97885000833332,
            "value": 0.200439453125
          },
          {
            "ticks": 214335,
            "time": 228.99060215625,
            "value": 0.2005615234375
          },
          {
            "ticks": 214346,
            "time": 229.00235430416666,
            "value": 0.20068359375
          },
          {
            "ticks": 214356,
            "time": 229.01303807499997,
            "value": 0.2008056640625
          },
          {
            "ticks": 214368,
            "time": 229.0258586,
            "value": 0.200927734375
          },
          {
            "ticks": 214378,
            "time": 229.03654237083333,
            "value": 0.2010498046875
          },
          {
            "ticks": 214389,
            "time": 229.04829451875,
            "value": 0.201171875
          },
          {
            "ticks": 214400,
            "time": 229.06004666666666,
            "value": 0.2012939453125
          },
          {
            "ticks": 214411,
            "time": 229.07179881458333,
            "value": 0.201416015625
          },
          {
            "ticks": 214421,
            "time": 229.08248258541667,
            "value": 0.2015380859375
          },
          {
            "ticks": 214433,
            "time": 229.09530311041664,
            "value": 0.20166015625
          },
          {
            "ticks": 214443,
            "time": 229.10598688125,
            "value": 0.2017822265625
          },
          {
            "ticks": 214454,
            "time": 229.11773902916664,
            "value": 0.201904296875
          },
          {
            "ticks": 214465,
            "time": 229.1294911770833,
            "value": 0.2020263671875
          },
          {
            "ticks": 214476,
            "time": 229.14124332499998,
            "value": 0.2021484375
          },
          {
            "ticks": 214486,
            "time": 229.15192709583334,
            "value": 0.2022705078125
          },
          {
            "ticks": 214498,
            "time": 229.1647476208333,
            "value": 0.202392578125
          },
          {
            "ticks": 214508,
            "time": 229.17543139166665,
            "value": 0.2025146484375
          },
          {
            "ticks": 214519,
            "time": 229.18718353958332,
            "value": 0.20263671875
          },
          {
            "ticks": 214530,
            "time": 229.19893568749998,
            "value": 0.2027587890625
          },
          {
            "ticks": 214541,
            "time": 229.21068783541665,
            "value": 0.202880859375
          },
          {
            "ticks": 214551,
            "time": 229.22137160625,
            "value": 0.2030029296875
          },
          {
            "ticks": 214563,
            "time": 229.23419213125,
            "value": 0.203125
          },
          {
            "ticks": 214573,
            "time": 229.24487590208332,
            "value": 0.2032470703125
          },
          {
            "ticks": 214584,
            "time": 229.25662805,
            "value": 0.203369140625
          },
          {
            "ticks": 214595,
            "time": 229.26838019791666,
            "value": 0.2034912109375
          },
          {
            "ticks": 214606,
            "time": 229.28013234583332,
            "value": 0.20361328125
          },
          {
            "ticks": 214616,
            "time": 229.29081611666666,
            "value": 0.2037353515625
          },
          {
            "ticks": 214628,
            "time": 229.30363664166666,
            "value": 0.203857421875
          },
          {
            "ticks": 214638,
            "time": 229.3143204125,
            "value": 0.2039794921875
          },
          {
            "ticks": 214649,
            "time": 229.32607256041663,
            "value": 0.2041015625
          },
          {
            "ticks": 214660,
            "time": 229.3378247083333,
            "value": 0.2042236328125
          },
          {
            "ticks": 214671,
            "time": 229.34957685624997,
            "value": 0.204345703125
          },
          {
            "ticks": 214681,
            "time": 229.36026062708333,
            "value": 0.2044677734375
          },
          {
            "ticks": 214693,
            "time": 229.37308115208333,
            "value": 0.20458984375
          },
          {
            "ticks": 214703,
            "time": 229.38376492291664,
            "value": 0.2047119140625
          },
          {
            "ticks": 214714,
            "time": 229.3955170708333,
            "value": 0.204833984375
          },
          {
            "ticks": 214725,
            "time": 229.40726921874997,
            "value": 0.2049560546875
          },
          {
            "ticks": 214736,
            "time": 229.41902136666667,
            "value": 0.205078125
          },
          {
            "ticks": 214746,
            "time": 229.42970513749998,
            "value": 0.2052001953125
          },
          {
            "ticks": 214758,
            "time": 229.4425256625,
            "value": 0.205322265625
          },
          {
            "ticks": 214768,
            "time": 229.4532094333333,
            "value": 0.2054443359375
          },
          {
            "ticks": 214779,
            "time": 229.46496158124998,
            "value": 0.20556640625
          },
          {
            "ticks": 214790,
            "time": 229.47671372916668,
            "value": 0.2056884765625
          },
          {
            "ticks": 214800,
            "time": 229.4873975,
            "value": 0.205810546875
          },
          {
            "ticks": 214812,
            "time": 229.50021802499998,
            "value": 0.2059326171875
          },
          {
            "ticks": 214822,
            "time": 229.51090179583332,
            "value": 0.2060546875
          },
          {
            "ticks": 214833,
            "time": 229.52265394375,
            "value": 0.2061767578125
          },
          {
            "ticks": 214844,
            "time": 229.53440609166665,
            "value": 0.206298828125
          },
          {
            "ticks": 214855,
            "time": 229.54615823958332,
            "value": 0.2064208984375
          },
          {
            "ticks": 214865,
            "time": 229.55684201041666,
            "value": 0.20654296875
          },
          {
            "ticks": 214877,
            "time": 229.56966253541665,
            "value": 0.2066650390625
          },
          {
            "ticks": 214887,
            "time": 229.58034630624996,
            "value": 0.206787109375
          },
          {
            "ticks": 214898,
            "time": 229.59209845416666,
            "value": 0.2069091796875
          },
          {
            "ticks": 214909,
            "time": 229.60385060208333,
            "value": 0.20703125
          },
          {
            "ticks": 214920,
            "time": 229.61560275,
            "value": 0.2071533203125
          },
          {
            "ticks": 214930,
            "time": 229.6262865208333,
            "value": 0.207275390625
          },
          {
            "ticks": 214942,
            "time": 229.63910704583333,
            "value": 0.2073974609375
          },
          {
            "ticks": 214952,
            "time": 229.64979081666664,
            "value": 0.20751953125
          },
          {
            "ticks": 214963,
            "time": 229.66154296458333,
            "value": 0.2076416015625
          },
          {
            "ticks": 214974,
            "time": 229.6732951125,
            "value": 0.207763671875
          },
          {
            "ticks": 214985,
            "time": 229.68504726041667,
            "value": 0.2078857421875
          },
          {
            "ticks": 214995,
            "time": 229.69573103124998,
            "value": 0.2080078125
          },
          {
            "ticks": 215007,
            "time": 229.70855155624997,
            "value": 0.2081298828125
          },
          {
            "ticks": 215017,
            "time": 229.71923532708334,
            "value": 0.208251953125
          },
          {
            "ticks": 215028,
            "time": 229.730987475,
            "value": 0.2083740234375
          },
          {
            "ticks": 215039,
            "time": 229.74273962291664,
            "value": 0.20849609375
          },
          {
            "ticks": 215050,
            "time": 229.7544917708333,
            "value": 0.2086181640625
          },
          {
            "ticks": 215060,
            "time": 229.76517554166665,
            "value": 0.208740234375
          },
          {
            "ticks": 215072,
            "time": 229.77799606666665,
            "value": 0.2088623046875
          },
          {
            "ticks": 215082,
            "time": 229.78867983749998,
            "value": 0.208984375
          },
          {
            "ticks": 215093,
            "time": 229.80043198541665,
            "value": 0.2091064453125
          },
          {
            "ticks": 215104,
            "time": 229.81218413333332,
            "value": 0.209228515625
          },
          {
            "ticks": 215115,
            "time": 229.82393628124998,
            "value": 0.2093505859375
          },
          {
            "ticks": 215125,
            "time": 229.83462005208332,
            "value": 0.20947265625
          },
          {
            "ticks": 215136,
            "time": 229.8463722,
            "value": 0.2095947265625
          },
          {
            "ticks": 215148,
            "time": 229.85919272499999,
            "value": 0.209716796875
          },
          {
            "ticks": 215158,
            "time": 229.86987649583332,
            "value": 0.2098388671875
          },
          {
            "ticks": 215169,
            "time": 229.88162864375,
            "value": 0.2099609375
          },
          {
            "ticks": 215180,
            "time": 229.89338079166666,
            "value": 0.2100830078125
          },
          {
            "ticks": 215190,
            "time": 229.9040645625,
            "value": 0.210205078125
          },
          {
            "ticks": 215202,
            "time": 229.91688508749996,
            "value": 0.2103271484375
          },
          {
            "ticks": 215212,
            "time": 229.92756885833333,
            "value": 0.21044921875
          },
          {
            "ticks": 215223,
            "time": 229.93932100625,
            "value": 0.2105712890625
          },
          {
            "ticks": 215234,
            "time": 229.95107315416664,
            "value": 0.210693359375
          },
          {
            "ticks": 215245,
            "time": 229.9628253020833,
            "value": 0.2108154296875
          },
          {
            "ticks": 215255,
            "time": 229.97350907291667,
            "value": 0.2109375
          },
          {
            "ticks": 215267,
            "time": 229.98632959791667,
            "value": 0.2110595703125
          },
          {
            "ticks": 215277,
            "time": 229.99701336874998,
            "value": 0.211181640625
          },
          {
            "ticks": 215288,
            "time": 230.00876551666664,
            "value": 0.2113037109375
          },
          {
            "ticks": 215299,
            "time": 230.0205176645833,
            "value": 0.21142578125
          },
          {
            "ticks": 215310,
            "time": 230.03226981249998,
            "value": 0.2115478515625
          },
          {
            "ticks": 215320,
            "time": 230.04295358333331,
            "value": 0.211669921875
          },
          {
            "ticks": 215332,
            "time": 230.05577410833334,
            "value": 0.2117919921875
          },
          {
            "ticks": 215342,
            "time": 230.06645787916665,
            "value": 0.2119140625
          },
          {
            "ticks": 215353,
            "time": 230.07821002708332,
            "value": 0.2120361328125
          },
          {
            "ticks": 215364,
            "time": 230.08996217499998,
            "value": 0.212158203125
          },
          {
            "ticks": 215375,
            "time": 230.10171432291668,
            "value": 0.2122802734375
          },
          {
            "ticks": 215385,
            "time": 230.11239809375,
            "value": 0.21240234375
          },
          {
            "ticks": 215397,
            "time": 230.12521861874998,
            "value": 0.2125244140625
          },
          {
            "ticks": 215407,
            "time": 230.13590238958332,
            "value": 0.212646484375
          },
          {
            "ticks": 215418,
            "time": 230.1476545375,
            "value": 0.2127685546875
          },
          {
            "ticks": 215429,
            "time": 230.15940668541663,
            "value": 0.212890625
          },
          {
            "ticks": 215440,
            "time": 230.17115883333332,
            "value": 0.2130126953125
          },
          {
            "ticks": 215450,
            "time": 230.18184260416666,
            "value": 0.213134765625
          },
          {
            "ticks": 215462,
            "time": 230.19466312916666,
            "value": 0.2132568359375
          },
          {
            "ticks": 215473,
            "time": 230.20641527708332,
            "value": 0.21337890625
          },
          {
            "ticks": 215483,
            "time": 230.21709904791663,
            "value": 0.2135009765625
          },
          {
            "ticks": 215494,
            "time": 230.22885119583333,
            "value": 0.213623046875
          },
          {
            "ticks": 215505,
            "time": 230.24060334375,
            "value": 0.2137451171875
          },
          {
            "ticks": 215515,
            "time": 230.2512871145833,
            "value": 0.2138671875
          },
          {
            "ticks": 215527,
            "time": 230.26410763958333,
            "value": 0.2139892578125
          },
          {
            "ticks": 215537,
            "time": 230.27479141041664,
            "value": 0.214111328125
          },
          {
            "ticks": 215548,
            "time": 230.28654355833334,
            "value": 0.2142333984375
          },
          {
            "ticks": 215559,
            "time": 230.29829570625,
            "value": 0.21435546875
          },
          {
            "ticks": 215570,
            "time": 230.31004785416667,
            "value": 0.2144775390625
          },
          {
            "ticks": 215580,
            "time": 230.32073162499998,
            "value": 0.214599609375
          },
          {
            "ticks": 215592,
            "time": 230.33355214999997,
            "value": 0.2147216796875
          },
          {
            "ticks": 215602,
            "time": 230.34423592083334,
            "value": 0.21484375
          },
          {
            "ticks": 215613,
            "time": 230.35598806875,
            "value": 0.2149658203125
          },
          {
            "ticks": 215624,
            "time": 230.36774021666665,
            "value": 0.215087890625
          },
          {
            "ticks": 215635,
            "time": 230.3794923645833,
            "value": 0.2152099609375
          },
          {
            "ticks": 215646,
            "time": 230.39124451249998,
            "value": 0.21533203125
          },
          {
            "ticks": 215656,
            "time": 230.40192828333335,
            "value": 0.2154541015625
          },
          {
            "ticks": 215668,
            "time": 230.41474880833331,
            "value": 0.215576171875
          },
          {
            "ticks": 215678,
            "time": 230.42543257916665,
            "value": 0.2156982421875
          },
          {
            "ticks": 215689,
            "time": 230.43718472708332,
            "value": 0.2158203125
          },
          {
            "ticks": 215700,
            "time": 230.448936875,
            "value": 0.2159423828125
          },
          {
            "ticks": 215710,
            "time": 230.4596206458333,
            "value": 0.216064453125
          },
          {
            "ticks": 215722,
            "time": 230.47244117083332,
            "value": 0.2161865234375
          },
          {
            "ticks": 215732,
            "time": 230.48312494166666,
            "value": 0.21630859375
          },
          {
            "ticks": 215743,
            "time": 230.49487708958333,
            "value": 0.2164306640625
          },
          {
            "ticks": 215754,
            "time": 230.5066292375,
            "value": 0.216552734375
          },
          {
            "ticks": 215765,
            "time": 230.51838138541666,
            "value": 0.2166748046875
          },
          {
            "ticks": 215775,
            "time": 230.52906515625,
            "value": 0.216796875
          },
          {
            "ticks": 215787,
            "time": 230.54188568124997,
            "value": 0.2169189453125
          },
          {
            "ticks": 215797,
            "time": 230.55256945208333,
            "value": 0.217041015625
          },
          {
            "ticks": 215808,
            "time": 230.5643216,
            "value": 0.2171630859375
          },
          {
            "ticks": 215819,
            "time": 230.57607374791664,
            "value": 0.21728515625
          },
          {
            "ticks": 215829,
            "time": 230.58675751875,
            "value": 0.2174072265625
          },
          {
            "ticks": 215841,
            "time": 230.59957804374997,
            "value": 0.217529296875
          },
          {
            "ticks": 215851,
            "time": 230.61026181458334,
            "value": 0.2176513671875
          },
          {
            "ticks": 215862,
            "time": 230.62201396249998,
            "value": 0.2177734375
          },
          {
            "ticks": 215873,
            "time": 230.63376611041664,
            "value": 0.2178955078125
          },
          {
            "ticks": 215884,
            "time": 230.6455182583333,
            "value": 0.218017578125
          },
          {
            "ticks": 215894,
            "time": 230.65620202916665,
            "value": 0.2181396484375
          },
          {
            "ticks": 215906,
            "time": 230.66902255416665,
            "value": 0.21826171875
          },
          {
            "ticks": 215916,
            "time": 230.67970632499998,
            "value": 0.2183837890625
          },
          {
            "ticks": 215927,
            "time": 230.69145847291665,
            "value": 0.218505859375
          },
          {
            "ticks": 215938,
            "time": 230.70321062083332,
            "value": 0.2186279296875
          },
          {
            "ticks": 215949,
            "time": 230.71496276874998,
            "value": 0.21875
          },
          {
            "ticks": 215959,
            "time": 230.72564653958332,
            "value": 0.2188720703125
          },
          {
            "ticks": 215971,
            "time": 230.73846706458335,
            "value": 0.218994140625
          },
          {
            "ticks": 215981,
            "time": 230.74915083541666,
            "value": 0.2191162109375
          },
          {
            "ticks": 215992,
            "time": 230.76090298333332,
            "value": 0.21923828125
          },
          {
            "ticks": 216003,
            "time": 230.77265513125,
            "value": 0.2193603515625
          },
          {
            "ticks": 216014,
            "time": 230.78440727916663,
            "value": 0.219482421875
          },
          {
            "ticks": 216024,
            "time": 230.79509105,
            "value": 0.2196044921875
          },
          {
            "ticks": 216036,
            "time": 230.807911575,
            "value": 0.2197265625
          },
          {
            "ticks": 216046,
            "time": 230.81859534583333,
            "value": 0.2198486328125
          },
          {
            "ticks": 216057,
            "time": 230.83034749374997,
            "value": 0.219970703125
          },
          {
            "ticks": 216068,
            "time": 230.84209964166664,
            "value": 0.2200927734375
          },
          {
            "ticks": 216079,
            "time": 230.8538517895833,
            "value": 0.22021484375
          },
          {
            "ticks": 216089,
            "time": 230.86453556041664,
            "value": 0.2203369140625
          },
          {
            "ticks": 216101,
            "time": 230.87735608541666,
            "value": 0.220458984375
          },
          {
            "ticks": 216111,
            "time": 230.88803985624997,
            "value": 0.2205810546875
          },
          {
            "ticks": 216122,
            "time": 230.89979200416664,
            "value": 0.220703125
          },
          {
            "ticks": 216133,
            "time": 230.9115441520833,
            "value": 0.2208251953125
          },
          {
            "ticks": 216144,
            "time": 230.9232963,
            "value": 0.220947265625
          },
          {
            "ticks": 216154,
            "time": 230.93398007083331,
            "value": 0.2210693359375
          },
          {
            "ticks": 216166,
            "time": 230.94680059583334,
            "value": 0.22119140625
          },
          {
            "ticks": 216176,
            "time": 230.95748436666665,
            "value": 0.2213134765625
          },
          {
            "ticks": 216187,
            "time": 230.96923651458332,
            "value": 0.221435546875
          },
          {
            "ticks": 216198,
            "time": 230.9809886625,
            "value": 0.2215576171875
          },
          {
            "ticks": 216209,
            "time": 230.99274081041665,
            "value": 0.2216796875
          },
          {
            "ticks": 216219,
            "time": 231.00342458125,
            "value": 0.2218017578125
          },
          {
            "ticks": 216231,
            "time": 231.01624510624998,
            "value": 0.221923828125
          },
          {
            "ticks": 216241,
            "time": 231.02692887708332,
            "value": 0.2220458984375
          },
          {
            "ticks": 216252,
            "time": 231.038681025,
            "value": 0.22216796875
          },
          {
            "ticks": 216263,
            "time": 231.05043317291666,
            "value": 0.2222900390625
          },
          {
            "ticks": 216274,
            "time": 231.06218532083332,
            "value": 0.222412109375
          },
          {
            "ticks": 216284,
            "time": 231.07286909166663,
            "value": 0.2225341796875
          },
          {
            "ticks": 216296,
            "time": 231.08568961666666,
            "value": 0.22265625
          },
          {
            "ticks": 216306,
            "time": 231.0963733875,
            "value": 0.2227783203125
          },
          {
            "ticks": 216317,
            "time": 231.10812553541666,
            "value": 0.222900390625
          },
          {
            "ticks": 216328,
            "time": 231.11987768333333,
            "value": 0.2230224609375
          },
          {
            "ticks": 216339,
            "time": 231.13162983125,
            "value": 0.22314453125
          },
          {
            "ticks": 216349,
            "time": 231.1423136020833,
            "value": 0.2232666015625
          },
          {
            "ticks": 216361,
            "time": 231.15513412708333,
            "value": 0.223388671875
          },
          {
            "ticks": 216371,
            "time": 231.16581789791667,
            "value": 0.2235107421875
          },
          {
            "ticks": 216382,
            "time": 231.17757004583333,
            "value": 0.2236328125
          },
          {
            "ticks": 216393,
            "time": 231.18932219375,
            "value": 0.2237548828125
          },
          {
            "ticks": 216404,
            "time": 231.20107434166664,
            "value": 0.223876953125
          },
          {
            "ticks": 216414,
            "time": 231.21175811249998,
            "value": 0.2239990234375
          },
          {
            "ticks": 216426,
            "time": 231.22457863749997,
            "value": 0.22412109375
          },
          {
            "ticks": 216436,
            "time": 231.23526240833334,
            "value": 0.2242431640625
          },
          {
            "ticks": 216447,
            "time": 231.24701455624998,
            "value": 0.224365234375
          },
          {
            "ticks": 216458,
            "time": 231.25876670416665,
            "value": 0.2244873046875
          },
          {
            "ticks": 216469,
            "time": 231.2705188520833,
            "value": 0.224609375
          },
          {
            "ticks": 216479,
            "time": 231.28120262291665,
            "value": 0.2247314453125
          },
          {
            "ticks": 216490,
            "time": 231.29295477083332,
            "value": 0.224853515625
          },
          {
            "ticks": 216502,
            "time": 231.3057752958333,
            "value": 0.2249755859375
          },
          {
            "ticks": 216512,
            "time": 231.31645906666665,
            "value": 0.22509765625
          },
          {
            "ticks": 216523,
            "time": 231.32821121458332,
            "value": 0.2252197265625
          },
          {
            "ticks": 216534,
            "time": 231.3399633625,
            "value": 0.225341796875
          },
          {
            "ticks": 216544,
            "time": 231.35064713333333,
            "value": 0.2254638671875
          },
          {
            "ticks": 216556,
            "time": 231.36346765833332,
            "value": 0.2255859375
          },
          {
            "ticks": 216566,
            "time": 231.37415142916666,
            "value": 0.2257080078125
          },
          {
            "ticks": 216577,
            "time": 231.38590357708333,
            "value": 0.225830078125
          },
          {
            "ticks": 216588,
            "time": 231.397655725,
            "value": 0.2259521484375
          },
          {
            "ticks": 216599,
            "time": 231.40940787291663,
            "value": 0.22607421875
          },
          {
            "ticks": 216609,
            "time": 231.42009164375,
            "value": 0.2261962890625
          },
          {
            "ticks": 216621,
            "time": 231.43291216875,
            "value": 0.226318359375
          },
          {
            "ticks": 216631,
            "time": 231.44359593958333,
            "value": 0.2264404296875
          },
          {
            "ticks": 216642,
            "time": 231.45534808749997,
            "value": 0.2265625
          },
          {
            "ticks": 216653,
            "time": 231.46710023541664,
            "value": 0.2266845703125
          },
          {
            "ticks": 216664,
            "time": 231.4788523833333,
            "value": 0.226806640625
          },
          {
            "ticks": 216674,
            "time": 231.48953615416664,
            "value": 0.2269287109375
          },
          {
            "ticks": 216686,
            "time": 231.50235667916667,
            "value": 0.22705078125
          },
          {
            "ticks": 216696,
            "time": 231.51304044999998,
            "value": 0.2271728515625
          },
          {
            "ticks": 216707,
            "time": 231.52479259791664,
            "value": 0.227294921875
          },
          {
            "ticks": 216718,
            "time": 231.5365447458333,
            "value": 0.2274169921875
          },
          {
            "ticks": 216729,
            "time": 231.54829689375,
            "value": 0.2275390625
          },
          {
            "ticks": 216739,
            "time": 231.55898066458332,
            "value": 0.2276611328125
          },
          {
            "ticks": 216751,
            "time": 231.57180118958334,
            "value": 0.227783203125
          },
          {
            "ticks": 216761,
            "time": 231.58248496041665,
            "value": 0.2279052734375
          },
          {
            "ticks": 216772,
            "time": 231.59423710833332,
            "value": 0.22802734375
          },
          {
            "ticks": 216783,
            "time": 231.60598925625,
            "value": 0.2281494140625
          },
          {
            "ticks": 216794,
            "time": 231.61774140416665,
            "value": 0.228271484375
          },
          {
            "ticks": 216804,
            "time": 231.628425175,
            "value": 0.2283935546875
          },
          {
            "ticks": 216816,
            "time": 231.64124569999998,
            "value": 0.228515625
          },
          {
            "ticks": 216826,
            "time": 231.65192947083332,
            "value": 0.2286376953125
          },
          {
            "ticks": 216837,
            "time": 231.66368161874996,
            "value": 0.228759765625
          },
          {
            "ticks": 216848,
            "time": 231.67543376666666,
            "value": 0.2288818359375
          },
          {
            "ticks": 216858,
            "time": 231.6861175375,
            "value": 0.22900390625
          },
          {
            "ticks": 216870,
            "time": 231.6989380625,
            "value": 0.2291259765625
          },
          {
            "ticks": 216880,
            "time": 231.7096218333333,
            "value": 0.229248046875
          },
          {
            "ticks": 216892,
            "time": 231.72244235833332,
            "value": 0.2293701171875
          },
          {
            "ticks": 216902,
            "time": 231.73312612916666,
            "value": 0.2294921875
          },
          {
            "ticks": 216913,
            "time": 231.74487827708333,
            "value": 0.2296142578125
          },
          {
            "ticks": 216923,
            "time": 231.75556204791664,
            "value": 0.229736328125
          },
          {
            "ticks": 216935,
            "time": 231.76838257291666,
            "value": 0.2298583984375
          },
          {
            "ticks": 216945,
            "time": 231.77906634374997,
            "value": 0.22998046875
          },
          {
            "ticks": 216956,
            "time": 231.79081849166667,
            "value": 0.2301025390625
          },
          {
            "ticks": 216967,
            "time": 231.80257063958334,
            "value": 0.230224609375
          },
          {
            "ticks": 216978,
            "time": 231.8143227875,
            "value": 0.2303466796875
          },
          {
            "ticks": 216988,
            "time": 231.8250065583333,
            "value": 0.23046875
          },
          {
            "ticks": 217000,
            "time": 231.8378270833333,
            "value": 0.2305908203125
          },
          {
            "ticks": 217010,
            "time": 231.84851085416668,
            "value": 0.230712890625
          },
          {
            "ticks": 217021,
            "time": 231.86026300208334,
            "value": 0.2308349609375
          },
          {
            "ticks": 217032,
            "time": 231.87201514999998,
            "value": 0.23095703125
          },
          {
            "ticks": 217043,
            "time": 231.88376729791665,
            "value": 0.2310791015625
          },
          {
            "ticks": 217053,
            "time": 231.89445106875,
            "value": 0.231201171875
          },
          {
            "ticks": 217065,
            "time": 231.90727159374998,
            "value": 0.2313232421875
          },
          {
            "ticks": 217075,
            "time": 231.91795536458332,
            "value": 0.2314453125
          },
          {
            "ticks": 217086,
            "time": 231.9297075125,
            "value": 0.2315673828125
          },
          {
            "ticks": 217097,
            "time": 231.94145966041665,
            "value": 0.231689453125
          },
          {
            "ticks": 217108,
            "time": 231.95321180833332,
            "value": 0.2318115234375
          },
          {
            "ticks": 217118,
            "time": 231.96389557916663,
            "value": 0.23193359375
          },
          {
            "ticks": 217130,
            "time": 231.97671610416666,
            "value": 0.2320556640625
          },
          {
            "ticks": 217140,
            "time": 231.987399875,
            "value": 0.232177734375
          },
          {
            "ticks": 217151,
            "time": 231.99915202291666,
            "value": 0.2322998046875
          },
          {
            "ticks": 217161,
            "time": 232.00983579374997,
            "value": 0.232421875
          },
          {
            "ticks": 217173,
            "time": 232.02265631875,
            "value": 0.2325439453125
          },
          {
            "ticks": 217183,
            "time": 232.03334008958333,
            "value": 0.232666015625
          },
          {
            "ticks": 217195,
            "time": 232.0461606145833,
            "value": 0.2327880859375
          },
          {
            "ticks": 217205,
            "time": 232.05684438541667,
            "value": 0.23291015625
          },
          {
            "ticks": 217216,
            "time": 232.06859653333333,
            "value": 0.2330322265625
          },
          {
            "ticks": 217227,
            "time": 232.08034868124997,
            "value": 0.233154296875
          },
          {
            "ticks": 217238,
            "time": 232.09210082916664,
            "value": 0.2332763671875
          },
          {
            "ticks": 217248,
            "time": 232.1027846,
            "value": 0.2333984375
          },
          {
            "ticks": 217260,
            "time": 232.11560512499997,
            "value": 0.2335205078125
          },
          {
            "ticks": 217270,
            "time": 232.1262888958333,
            "value": 0.233642578125
          },
          {
            "ticks": 217281,
            "time": 232.13804104374998,
            "value": 0.2337646484375
          },
          {
            "ticks": 217292,
            "time": 232.14979319166665,
            "value": 0.23388671875
          },
          {
            "ticks": 217303,
            "time": 232.1615453395833,
            "value": 0.2340087890625
          },
          {
            "ticks": 217313,
            "time": 232.17222911041665,
            "value": 0.234130859375
          },
          {
            "ticks": 217325,
            "time": 232.18504963541668,
            "value": 0.2342529296875
          },
          {
            "ticks": 217335,
            "time": 232.19573340624999,
            "value": 0.234375
          },
          {
            "ticks": 217346,
            "time": 232.20748555416665,
            "value": 0.2344970703125
          },
          {
            "ticks": 217357,
            "time": 232.21923770208332,
            "value": 0.234619140625
          },
          {
            "ticks": 217368,
            "time": 232.23098985,
            "value": 0.2347412109375
          },
          {
            "ticks": 217378,
            "time": 232.24167362083332,
            "value": 0.23486328125
          },
          {
            "ticks": 217390,
            "time": 232.25449414583332,
            "value": 0.2349853515625
          },
          {
            "ticks": 217400,
            "time": 232.26517791666666,
            "value": 0.235107421875
          },
          {
            "ticks": 217411,
            "time": 232.27693006458333,
            "value": 0.2352294921875
          },
          {
            "ticks": 217422,
            "time": 232.28868221249996,
            "value": 0.2353515625
          },
          {
            "ticks": 217433,
            "time": 232.30043436041666,
            "value": 0.2354736328125
          },
          {
            "ticks": 217443,
            "time": 232.31111813125,
            "value": 0.235595703125
          },
          {
            "ticks": 217455,
            "time": 232.32393865625,
            "value": 0.2357177734375
          },
          {
            "ticks": 217465,
            "time": 232.3346224270833,
            "value": 0.23583984375
          },
          {
            "ticks": 217476,
            "time": 232.34637457499997,
            "value": 0.2359619140625
          },
          {
            "ticks": 217487,
            "time": 232.35812672291667,
            "value": 0.236083984375
          },
          {
            "ticks": 217498,
            "time": 232.36987887083333,
            "value": 0.2362060546875
          },
          {
            "ticks": 217508,
            "time": 232.38056264166664,
            "value": 0.236328125
          },
          {
            "ticks": 217520,
            "time": 232.39338316666667,
            "value": 0.2364501953125
          },
          {
            "ticks": 217530,
            "time": 232.40406693749998,
            "value": 0.236572265625
          },
          {
            "ticks": 217541,
            "time": 232.41581908541664,
            "value": 0.2366943359375
          },
          {
            "ticks": 217552,
            "time": 232.42757123333334,
            "value": 0.23681640625
          },
          {
            "ticks": 217563,
            "time": 232.43932338125,
            "value": 0.2369384765625
          },
          {
            "ticks": 217573,
            "time": 232.45000715208332,
            "value": 0.237060546875
          },
          {
            "ticks": 217585,
            "time": 232.4628276770833,
            "value": 0.2371826171875
          },
          {
            "ticks": 217595,
            "time": 232.47351144791665,
            "value": 0.2373046875
          },
          {
            "ticks": 217606,
            "time": 232.48526359583335,
            "value": 0.2374267578125
          },
          {
            "ticks": 217617,
            "time": 232.49701574374998,
            "value": 0.237548828125
          },
          {
            "ticks": 217628,
            "time": 232.50876789166665,
            "value": 0.2376708984375
          },
          {
            "ticks": 217638,
            "time": 232.5194516625,
            "value": 0.23779296875
          },
          {
            "ticks": 217650,
            "time": 232.53227218749998,
            "value": 0.2379150390625
          },
          {
            "ticks": 217660,
            "time": 232.54295595833332,
            "value": 0.238037109375
          },
          {
            "ticks": 217671,
            "time": 232.55470810625,
            "value": 0.2381591796875
          },
          {
            "ticks": 217682,
            "time": 232.56646025416666,
            "value": 0.23828125
          },
          {
            "ticks": 217693,
            "time": 232.57821240208332,
            "value": 0.2384033203125
          },
          {
            "ticks": 217703,
            "time": 232.58889617291663,
            "value": 0.238525390625
          },
          {
            "ticks": 217715,
            "time": 232.60171669791666,
            "value": 0.2386474609375
          },
          {
            "ticks": 217725,
            "time": 232.61240046875,
            "value": 0.23876953125
          },
          {
            "ticks": 217736,
            "time": 232.62415261666666,
            "value": 0.2388916015625
          },
          {
            "ticks": 217747,
            "time": 232.63590476458333,
            "value": 0.239013671875
          },
          {
            "ticks": 217758,
            "time": 232.6476569125,
            "value": 0.2391357421875
          },
          {
            "ticks": 217768,
            "time": 232.65834068333334,
            "value": 0.2392578125
          },
          {
            "ticks": 217780,
            "time": 232.6711612083333,
            "value": 0.2393798828125
          },
          {
            "ticks": 217790,
            "time": 232.68184497916667,
            "value": 0.239501953125
          },
          {
            "ticks": 217801,
            "time": 232.69359712708334,
            "value": 0.2396240234375
          },
          {
            "ticks": 217812,
            "time": 232.70534927499997,
            "value": 0.23974609375
          },
          {
            "ticks": 217823,
            "time": 232.71710142291664,
            "value": 0.2398681640625
          },
          {
            "ticks": 217833,
            "time": 232.72778519375,
            "value": 0.239990234375
          },
          {
            "ticks": 217844,
            "time": 232.73953734166665,
            "value": 0.2401123046875
          },
          {
            "ticks": 217856,
            "time": 232.75235786666667,
            "value": 0.240234375
          },
          {
            "ticks": 217866,
            "time": 232.76304163749998,
            "value": 0.2403564453125
          },
          {
            "ticks": 217877,
            "time": 232.77479378541665,
            "value": 0.240478515625
          },
          {
            "ticks": 217888,
            "time": 232.78654593333331,
            "value": 0.2406005859375
          },
          {
            "ticks": 217898,
            "time": 232.79722970416665,
            "value": 0.24072265625
          },
          {
            "ticks": 217910,
            "time": 232.81005022916668,
            "value": 0.2408447265625
          },
          {
            "ticks": 217920,
            "time": 232.820734,
            "value": 0.240966796875
          },
          {
            "ticks": 217931,
            "time": 232.83248614791665,
            "value": 0.2410888671875
          },
          {
            "ticks": 217942,
            "time": 232.84423829583332,
            "value": 0.2412109375
          },
          {
            "ticks": 217953,
            "time": 232.85599044375,
            "value": 0.2413330078125
          },
          {
            "ticks": 217963,
            "time": 232.86667421458333,
            "value": 0.241455078125
          },
          {
            "ticks": 217975,
            "time": 232.87949473958332,
            "value": 0.2415771484375
          },
          {
            "ticks": 217985,
            "time": 232.89017851041666,
            "value": 0.24169921875
          },
          {
            "ticks": 217996,
            "time": 232.90193065833333,
            "value": 0.2418212890625
          },
          {
            "ticks": 218007,
            "time": 232.91368280624997,
            "value": 0.241943359375
          },
          {
            "ticks": 218018,
            "time": 232.92543495416663,
            "value": 0.2420654296875
          },
          {
            "ticks": 218028,
            "time": 232.936118725,
            "value": 0.2421875
          },
          {
            "ticks": 218040,
            "time": 232.94893925,
            "value": 0.2423095703125
          },
          {
            "ticks": 218050,
            "time": 232.9596230208333,
            "value": 0.242431640625
          },
          {
            "ticks": 218061,
            "time": 232.97137516874997,
            "value": 0.2425537109375
          },
          {
            "ticks": 218072,
            "time": 232.98312731666664,
            "value": 0.24267578125
          },
          {
            "ticks": 218082,
            "time": 232.99381108749998,
            "value": 0.2427978515625
          },
          {
            "ticks": 218094,
            "time": 233.0066316125,
            "value": 0.242919921875
          },
          {
            "ticks": 218104,
            "time": 233.0173153833333,
            "value": 0.2430419921875
          },
          {
            "ticks": 218115,
            "time": 233.02906753124998,
            "value": 0.2431640625
          },
          {
            "ticks": 218126,
            "time": 233.04081967916665,
            "value": 0.2432861328125
          },
          {
            "ticks": 218137,
            "time": 233.05257182708334,
            "value": 0.243408203125
          },
          {
            "ticks": 218147,
            "time": 233.06325559791665,
            "value": 0.2435302734375
          },
          {
            "ticks": 218159,
            "time": 233.07607612291665,
            "value": 0.24365234375
          },
          {
            "ticks": 218169,
            "time": 233.08675989374998,
            "value": 0.2437744140625
          },
          {
            "ticks": 218180,
            "time": 233.09851204166665,
            "value": 0.243896484375
          },
          {
            "ticks": 218191,
            "time": 233.11026418958335,
            "value": 0.2440185546875
          },
          {
            "ticks": 218202,
            "time": 233.12201633749999,
            "value": 0.244140625
          },
          {
            "ticks": 218212,
            "time": 233.13270010833332,
            "value": 0.2442626953125
          },
          {
            "ticks": 218224,
            "time": 233.14552063333332,
            "value": 0.244384765625
          },
          {
            "ticks": 218234,
            "time": 233.15620440416663,
            "value": 0.2445068359375
          },
          {
            "ticks": 218245,
            "time": 233.1679565520833,
            "value": 0.24462890625
          },
          {
            "ticks": 218256,
            "time": 233.1797087,
            "value": 0.2447509765625
          },
          {
            "ticks": 218267,
            "time": 233.19146084791666,
            "value": 0.244873046875
          },
          {
            "ticks": 218277,
            "time": 233.20214461874997,
            "value": 0.2449951171875
          },
          {
            "ticks": 218289,
            "time": 233.21496514375,
            "value": 0.2451171875
          },
          {
            "ticks": 218299,
            "time": 233.2256489145833,
            "value": 0.2452392578125
          },
          {
            "ticks": 218310,
            "time": 233.2374010625,
            "value": 0.245361328125
          },
          {
            "ticks": 218321,
            "time": 233.24915321041667,
            "value": 0.2454833984375
          },
          {
            "ticks": 218332,
            "time": 233.26090535833333,
            "value": 0.24560546875
          },
          {
            "ticks": 218342,
            "time": 233.27158912916664,
            "value": 0.2457275390625
          },
          {
            "ticks": 218353,
            "time": 233.2833412770833,
            "value": 0.245849609375
          },
          {
            "ticks": 218365,
            "time": 233.2961618020833,
            "value": 0.2459716796875
          },
          {
            "ticks": 218375,
            "time": 233.30684557291667,
            "value": 0.24609375
          },
          {
            "ticks": 218386,
            "time": 233.31859772083334,
            "value": 0.2462158203125
          },
          {
            "ticks": 218397,
            "time": 233.33034986874998,
            "value": 0.246337890625
          },
          {
            "ticks": 218407,
            "time": 233.34103363958332,
            "value": 0.2464599609375
          },
          {
            "ticks": 218419,
            "time": 233.3538541645833,
            "value": 0.24658203125
          },
          {
            "ticks": 218429,
            "time": 233.36453793541665,
            "value": 0.2467041015625
          },
          {
            "ticks": 218440,
            "time": 233.37629008333332,
            "value": 0.246826171875
          },
          {
            "ticks": 218451,
            "time": 233.38804223124998,
            "value": 0.2469482421875
          },
          {
            "ticks": 218462,
            "time": 233.39979437916665,
            "value": 0.2470703125
          },
          {
            "ticks": 218472,
            "time": 233.41047815,
            "value": 0.2471923828125
          },
          {
            "ticks": 218484,
            "time": 233.42329867499998,
            "value": 0.247314453125
          },
          {
            "ticks": 218494,
            "time": 233.43398244583332,
            "value": 0.2474365234375
          },
          {
            "ticks": 218505,
            "time": 233.44573459375,
            "value": 0.24755859375
          },
          {
            "ticks": 218515,
            "time": 233.4564183645833,
            "value": 0.2476806640625
          },
          {
            "ticks": 218527,
            "time": 233.46923888958332,
            "value": 0.247802734375
          },
          {
            "ticks": 218537,
            "time": 233.47992266041666,
            "value": 0.2479248046875
          },
          {
            "ticks": 218549,
            "time": 233.49274318541663,
            "value": 0.248046875
          },
          {
            "ticks": 218559,
            "time": 233.50342695625,
            "value": 0.2481689453125
          },
          {
            "ticks": 218570,
            "time": 233.51517910416666,
            "value": 0.248291015625
          },
          {
            "ticks": 218581,
            "time": 233.52693125208333,
            "value": 0.2484130859375
          },
          {
            "ticks": 218592,
            "time": 233.53868339999997,
            "value": 0.24853515625
          },
          {
            "ticks": 218602,
            "time": 233.54936717083334,
            "value": 0.2486572265625
          },
          {
            "ticks": 218614,
            "time": 233.56218769583333,
            "value": 0.248779296875
          },
          {
            "ticks": 218624,
            "time": 233.57287146666664,
            "value": 0.2489013671875
          },
          {
            "ticks": 218635,
            "time": 233.5846236145833,
            "value": 0.2490234375
          },
          {
            "ticks": 218646,
            "time": 233.59637576249997,
            "value": 0.2491455078125
          },
          {
            "ticks": 218657,
            "time": 233.60812791041664,
            "value": 0.249267578125
          },
          {
            "ticks": 218667,
            "time": 233.61881168124998,
            "value": 0.2493896484375
          },
          {
            "ticks": 218679,
            "time": 233.63163220625,
            "value": 0.24951171875
          },
          {
            "ticks": 218689,
            "time": 233.6423159770833,
            "value": 0.2496337890625
          },
          {
            "ticks": 218700,
            "time": 233.65406812499998,
            "value": 0.249755859375
          },
          {
            "ticks": 218711,
            "time": 233.66582027291665,
            "value": 0.2498779296875
          },
          {
            "ticks": 218722,
            "time": 233.67757242083331,
            "value": 0.25
          },
          {
            "ticks": 218732,
            "time": 233.68825619166665,
            "value": 0.2501220703125
          },
          {
            "ticks": 218744,
            "time": 233.70107671666665,
            "value": 0.250244140625
          },
          {
            "ticks": 218754,
            "time": 233.7117604875,
            "value": 0.2503662109375
          },
          {
            "ticks": 218765,
            "time": 233.72351263541665,
            "value": 0.25048828125
          },
          {
            "ticks": 218776,
            "time": 233.73526478333332,
            "value": 0.2506103515625
          },
          {
            "ticks": 218787,
            "time": 233.74701693125,
            "value": 0.250732421875
          },
          {
            "ticks": 218797,
            "time": 233.75770070208333,
            "value": 0.2508544921875
          },
          {
            "ticks": 218809,
            "time": 233.77052122708332,
            "value": 0.2509765625
          },
          {
            "ticks": 218819,
            "time": 233.78120499791663,
            "value": 0.2510986328125
          },
          {
            "ticks": 218830,
            "time": 233.7929571458333,
            "value": 0.251220703125
          },
          {
            "ticks": 218841,
            "time": 233.80470929375,
            "value": 0.2513427734375
          },
          {
            "ticks": 218852,
            "time": 233.81646144166666,
            "value": 0.25146484375
          },
          {
            "ticks": 218862,
            "time": 233.82714521249997,
            "value": 0.2515869140625
          },
          {
            "ticks": 218874,
            "time": 233.8399657375,
            "value": 0.251708984375
          },
          {
            "ticks": 218884,
            "time": 233.8506495083333,
            "value": 0.2518310546875
          },
          {
            "ticks": 218895,
            "time": 233.86240165625,
            "value": 0.251953125
          },
          {
            "ticks": 218906,
            "time": 233.87415380416667,
            "value": 0.2520751953125
          },
          {
            "ticks": 218917,
            "time": 233.88590595208333,
            "value": 0.252197265625
          },
          {
            "ticks": 218927,
            "time": 233.89658972291664,
            "value": 0.2523193359375
          },
          {
            "ticks": 218939,
            "time": 233.90941024791664,
            "value": 0.25244140625
          },
          {
            "ticks": 218949,
            "time": 233.92009401875,
            "value": 0.2525634765625
          },
          {
            "ticks": 218960,
            "time": 233.93184616666667,
            "value": 0.252685546875
          },
          {
            "ticks": 218971,
            "time": 233.94359831458334,
            "value": 0.2528076171875
          },
          {
            "ticks": 218982,
            "time": 233.95535046249998,
            "value": 0.2529296875
          },
          {
            "ticks": 218992,
            "time": 233.96603423333332,
            "value": 0.2530517578125
          },
          {
            "ticks": 219004,
            "time": 233.9788547583333,
            "value": 0.253173828125
          },
          {
            "ticks": 219014,
            "time": 233.98953852916665,
            "value": 0.2532958984375
          },
          {
            "ticks": 219025,
            "time": 234.00129067708332,
            "value": 0.25341796875
          },
          {
            "ticks": 219036,
            "time": 234.01304282499999,
            "value": 0.2535400390625
          },
          {
            "ticks": 219046,
            "time": 234.02372659583332,
            "value": 0.253662109375
          },
          {
            "ticks": 219058,
            "time": 234.03654712083332,
            "value": 0.2537841796875
          },
          {
            "ticks": 219068,
            "time": 234.04723089166666,
            "value": 0.25390625
          },
          {
            "ticks": 219079,
            "time": 234.05898303958332,
            "value": 0.2540283203125
          },
          {
            "ticks": 219090,
            "time": 234.0707351875,
            "value": 0.254150390625
          },
          {
            "ticks": 219101,
            "time": 234.08248733541666,
            "value": 0.2542724609375
          },
          {
            "ticks": 219111,
            "time": 234.09317110624997,
            "value": 0.25439453125
          },
          {
            "ticks": 219123,
            "time": 234.10599163125,
            "value": 0.2545166015625
          },
          {
            "ticks": 219133,
            "time": 234.11667540208333,
            "value": 0.254638671875
          },
          {
            "ticks": 219144,
            "time": 234.12842755,
            "value": 0.2547607421875
          },
          {
            "ticks": 219155,
            "time": 234.14017969791666,
            "value": 0.2548828125
          },
          {
            "ticks": 219166,
            "time": 234.15193184583333,
            "value": 0.2550048828125
          },
          {
            "ticks": 219176,
            "time": 234.16261561666667,
            "value": 0.255126953125
          },
          {
            "ticks": 219188,
            "time": 234.17543614166664,
            "value": 0.2552490234375
          },
          {
            "ticks": 219198,
            "time": 234.1861199125,
            "value": 0.25537109375
          },
          {
            "ticks": 219209,
            "time": 234.19787206041664,
            "value": 0.2554931640625
          },
          {
            "ticks": 219220,
            "time": 234.2096242083333,
            "value": 0.255615234375
          },
          {
            "ticks": 219231,
            "time": 234.22137635624998,
            "value": 0.2557373046875
          },
          {
            "ticks": 219241,
            "time": 234.23206012708334,
            "value": 0.255859375
          },
          {
            "ticks": 219253,
            "time": 234.2448806520833,
            "value": 0.2559814453125
          },
          {
            "ticks": 219263,
            "time": 234.25556442291665,
            "value": 0.256103515625
          },
          {
            "ticks": 219274,
            "time": 234.26731657083332,
            "value": 0.2562255859375
          },
          {
            "ticks": 219285,
            "time": 234.27906871874998,
            "value": 0.25634765625
          },
          {
            "ticks": 219296,
            "time": 234.29082086666665,
            "value": 0.2564697265625
          },
          {
            "ticks": 219306,
            "time": 234.3015046375,
            "value": 0.256591796875
          },
          {
            "ticks": 219318,
            "time": 234.3143251625,
            "value": 0.2567138671875
          },
          {
            "ticks": 219328,
            "time": 234.32500893333332,
            "value": 0.2568359375
          },
          {
            "ticks": 219339,
            "time": 234.33676108125,
            "value": 0.2569580078125
          },
          {
            "ticks": 219350,
            "time": 234.34851322916666,
            "value": 0.257080078125
          },
          {
            "ticks": 219361,
            "time": 234.36026537708332,
            "value": 0.2572021484375
          },
          {
            "ticks": 219371,
            "time": 234.37094914791666,
            "value": 0.25732421875
          },
          {
            "ticks": 219383,
            "time": 234.38376967291666,
            "value": 0.2574462890625
          },
          {
            "ticks": 219393,
            "time": 234.39445344375,
            "value": 0.257568359375
          },
          {
            "ticks": 219404,
            "time": 234.40620559166663,
            "value": 0.2576904296875
          },
          {
            "ticks": 219415,
            "time": 234.4179577395833,
            "value": 0.2578125
          },
          {
            "ticks": 219426,
            "time": 234.42970988749997,
            "value": 0.2579345703125
          },
          {
            "ticks": 219436,
            "time": 234.44039365833333,
            "value": 0.258056640625
          },
          {
            "ticks": 219448,
            "time": 234.45321418333333,
            "value": 0.2581787109375
          },
          {
            "ticks": 219458,
            "time": 234.46389795416664,
            "value": 0.25830078125
          },
          {
            "ticks": 219469,
            "time": 234.4756501020833,
            "value": 0.2584228515625
          },
          {
            "ticks": 219480,
            "time": 234.48740224999997,
            "value": 0.258544921875
          },
          {
            "ticks": 219491,
            "time": 234.49915439791667,
            "value": 0.2586669921875
          },
          {
            "ticks": 219501,
            "time": 234.50983816874998,
            "value": 0.2587890625
          },
          {
            "ticks": 219513,
            "time": 234.52265869375,
            "value": 0.2589111328125
          },
          {
            "ticks": 219523,
            "time": 234.5333424645833,
            "value": 0.259033203125
          },
          {
            "ticks": 219534,
            "time": 234.54509461249998,
            "value": 0.2591552734375
          },
          {
            "ticks": 219545,
            "time": 234.55684676041668,
            "value": 0.25927734375
          },
          {
            "ticks": 219556,
            "time": 234.56859890833334,
            "value": 0.2593994140625
          },
          {
            "ticks": 219566,
            "time": 234.57928267916665,
            "value": 0.259521484375
          },
          {
            "ticks": 219578,
            "time": 234.59210320416665,
            "value": 0.2596435546875
          },
          {
            "ticks": 219588,
            "time": 234.602786975,
            "value": 0.259765625
          },
          {
            "ticks": 219599,
            "time": 234.61453912291665,
            "value": 0.2598876953125
          },
          {
            "ticks": 219610,
            "time": 234.62629127083332,
            "value": 0.260009765625
          },
          {
            "ticks": 219621,
            "time": 234.63804341875,
            "value": 0.2601318359375
          },
          {
            "ticks": 219631,
            "time": 234.64872718958333,
            "value": 0.26025390625
          },
          {
            "ticks": 219643,
            "time": 234.66154771458332,
            "value": 0.2603759765625
          },
          {
            "ticks": 219653,
            "time": 234.67223148541666,
            "value": 0.260498046875
          },
          {
            "ticks": 219664,
            "time": 234.68398363333333,
            "value": 0.2606201171875
          },
          {
            "ticks": 219675,
            "time": 234.69573578125,
            "value": 0.2607421875
          },
          {
            "ticks": 219686,
            "time": 234.70748792916666,
            "value": 0.2608642578125
          },
          {
            "ticks": 219696,
            "time": 234.71817169999997,
            "value": 0.260986328125
          },
          {
            "ticks": 219707,
            "time": 234.72992384791664,
            "value": 0.2611083984375
          },
          {
            "ticks": 219719,
            "time": 234.74274437291663,
            "value": 0.26123046875
          },
          {
            "ticks": 219729,
            "time": 234.75342814375,
            "value": 0.2613525390625
          },
          {
            "ticks": 219740,
            "time": 234.76518029166667,
            "value": 0.261474609375
          },
          {
            "ticks": 219751,
            "time": 234.77693243958333,
            "value": 0.2615966796875
          },
          {
            "ticks": 219761,
            "time": 234.78761621041664,
            "value": 0.26171875
          },
          {
            "ticks": 219773,
            "time": 234.80043673541664,
            "value": 0.2618408203125
          },
          {
            "ticks": 219783,
            "time": 234.81112050625,
            "value": 0.261962890625
          },
          {
            "ticks": 219794,
            "time": 234.82287265416664,
            "value": 0.2620849609375
          },
          {
            "ticks": 219805,
            "time": 234.8346248020833,
            "value": 0.26220703125
          },
          {
            "ticks": 219816,
            "time": 234.84637694999998,
            "value": 0.2623291015625
          },
          {
            "ticks": 219826,
            "time": 234.85706072083335,
            "value": 0.262451171875
          },
          {
            "ticks": 219838,
            "time": 234.8698812458333,
            "value": 0.2625732421875
          },
          {
            "ticks": 219848,
            "time": 234.88056501666665,
            "value": 0.2626953125
          },
          {
            "ticks": 219859,
            "time": 234.89231716458332,
            "value": 0.2628173828125
          },
          {
            "ticks": 219869,
            "time": 234.90300093541663,
            "value": 0.262939453125
          },
          {
            "ticks": 219881,
            "time": 234.91582146041665,
            "value": 0.2630615234375
          },
          {
            "ticks": 219891,
            "time": 234.92650523125,
            "value": 0.26318359375
          },
          {
            "ticks": 219903,
            "time": 234.93932575624999,
            "value": 0.2633056640625
          },
          {
            "ticks": 219913,
            "time": 234.95000952708332,
            "value": 0.263427734375
          },
          {
            "ticks": 219924,
            "time": 234.961761675,
            "value": 0.2635498046875
          },
          {
            "ticks": 219935,
            "time": 234.97351382291666,
            "value": 0.263671875
          },
          {
            "ticks": 219946,
            "time": 234.98526597083332,
            "value": 0.2637939453125
          },
          {
            "ticks": 219956,
            "time": 234.99594974166666,
            "value": 0.263916015625
          },
          {
            "ticks": 219968,
            "time": 235.00877026666666,
            "value": 0.2640380859375
          },
          {
            "ticks": 219978,
            "time": 235.0194540375,
            "value": 0.26416015625
          },
          {
            "ticks": 219989,
            "time": 235.03120618541664,
            "value": 0.2642822265625
          },
          {
            "ticks": 220000,
            "time": 235.0429583333333,
            "value": 0.264404296875
          },
          {
            "ticks": 220011,
            "time": 235.05471048124997,
            "value": 0.2645263671875
          },
          {
            "ticks": 220021,
            "time": 235.06539425208334,
            "value": 0.2646484375
          },
          {
            "ticks": 220033,
            "time": 235.07821477708333,
            "value": 0.2647705078125
          },
          {
            "ticks": 220043,
            "time": 235.08889854791664,
            "value": 0.264892578125
          },
          {
            "ticks": 220054,
            "time": 235.1006506958333,
            "value": 0.2650146484375
          },
          {
            "ticks": 220065,
            "time": 235.11240284374998,
            "value": 0.26513671875
          },
          {
            "ticks": 220076,
            "time": 235.12415499166667,
            "value": 0.2652587890625
          },
          {
            "ticks": 220086,
            "time": 235.13483876249998,
            "value": 0.265380859375
          },
          {
            "ticks": 220098,
            "time": 235.1476592875,
            "value": 0.2655029296875
          },
          {
            "ticks": 220108,
            "time": 235.15834305833332,
            "value": 0.265625
          },
          {
            "ticks": 220119,
            "time": 235.17009520624998,
            "value": 0.2657470703125
          },
          {
            "ticks": 220130,
            "time": 235.18184735416665,
            "value": 0.265869140625
          },
          {
            "ticks": 220140,
            "time": 235.192531125,
            "value": 0.2659912109375
          },
          {
            "ticks": 220152,
            "time": 235.20535164999998,
            "value": 0.26611328125
          },
          {
            "ticks": 220162,
            "time": 235.21603542083332,
            "value": 0.2662353515625
          },
          {
            "ticks": 220173,
            "time": 235.22778756875,
            "value": 0.266357421875
          },
          {
            "ticks": 220184,
            "time": 235.23953971666663,
            "value": 0.2664794921875
          },
          {
            "ticks": 220195,
            "time": 235.25129186458332,
            "value": 0.2666015625
          },
          {
            "ticks": 220205,
            "time": 235.26197563541666,
            "value": 0.2667236328125
          },
          {
            "ticks": 220216,
            "time": 235.27372778333333,
            "value": 0.266845703125
          },
          {
            "ticks": 220228,
            "time": 235.28654830833332,
            "value": 0.2669677734375
          },
          {
            "ticks": 220238,
            "time": 235.29723207916663,
            "value": 0.26708984375
          },
          {
            "ticks": 220249,
            "time": 235.30898422708333,
            "value": 0.2672119140625
          },
          {
            "ticks": 220260,
            "time": 235.320736375,
            "value": 0.267333984375
          },
          {
            "ticks": 220270,
            "time": 235.3314201458333,
            "value": 0.2674560546875
          },
          {
            "ticks": 220282,
            "time": 235.34424067083333,
            "value": 0.267578125
          },
          {
            "ticks": 220292,
            "time": 235.35492444166664,
            "value": 0.2677001953125
          },
          {
            "ticks": 220303,
            "time": 235.36667658958334,
            "value": 0.267822265625
          },
          {
            "ticks": 220314,
            "time": 235.3784287375,
            "value": 0.2679443359375
          },
          {
            "ticks": 220325,
            "time": 235.39018088541667,
            "value": 0.26806640625
          },
          {
            "ticks": 220335,
            "time": 235.40086465624998,
            "value": 0.2681884765625
          },
          {
            "ticks": 220347,
            "time": 235.41368518124997,
            "value": 0.268310546875
          },
          {
            "ticks": 220357,
            "time": 235.42436895208334,
            "value": 0.2684326171875
          },
          {
            "ticks": 220368,
            "time": 235.4361211,
            "value": 0.2685546875
          },
          {
            "ticks": 220379,
            "time": 235.44787324791665,
            "value": 0.2686767578125
          },
          {
            "ticks": 220390,
            "time": 235.4596253958333,
            "value": 0.268798828125
          },
          {
            "ticks": 220400,
            "time": 235.47030916666665,
            "value": 0.2689208984375
          },
          {
            "ticks": 220412,
            "time": 235.48312969166665,
            "value": 0.26904296875
          },
          {
            "ticks": 220422,
            "time": 235.4938134625,
            "value": 0.2691650390625
          },
          {
            "ticks": 220433,
            "time": 235.50556561041665,
            "value": 0.269287109375
          },
          {
            "ticks": 220444,
            "time": 235.51731775833332,
            "value": 0.2694091796875
          },
          {
            "ticks": 220455,
            "time": 235.52906990625,
            "value": 0.26953125
          },
          {
            "ticks": 220465,
            "time": 235.5397536770833,
            "value": 0.2696533203125
          },
          {
            "ticks": 220477,
            "time": 235.55257420208332,
            "value": 0.269775390625
          },
          {
            "ticks": 220487,
            "time": 235.56325797291666,
            "value": 0.2698974609375
          },
          {
            "ticks": 220498,
            "time": 235.57501012083333,
            "value": 0.27001953125
          },
          {
            "ticks": 220509,
            "time": 235.58676226875,
            "value": 0.2701416015625
          },
          {
            "ticks": 220520,
            "time": 235.59851441666666,
            "value": 0.270263671875
          },
          {
            "ticks": 220530,
            "time": 235.6091981875,
            "value": 0.2703857421875
          },
          {
            "ticks": 220542,
            "time": 235.62201871249997,
            "value": 0.2705078125
          },
          {
            "ticks": 220552,
            "time": 235.63270248333333,
            "value": 0.2706298828125
          },
          {
            "ticks": 220563,
            "time": 235.64445463125,
            "value": 0.270751953125
          },
          {
            "ticks": 220574,
            "time": 235.65620677916664,
            "value": 0.2708740234375
          },
          {
            "ticks": 220585,
            "time": 235.6679589270833,
            "value": 0.27099609375
          },
          {
            "ticks": 220595,
            "time": 235.67864269791667,
            "value": 0.2711181640625
          },
          {
            "ticks": 220607,
            "time": 235.69146322291664,
            "value": 0.271240234375
          },
          {
            "ticks": 220617,
            "time": 235.70214699374998,
            "value": 0.2713623046875
          },
          {
            "ticks": 220628,
            "time": 235.71389914166664,
            "value": 0.271484375
          },
          {
            "ticks": 220639,
            "time": 235.7256512895833,
            "value": 0.2716064453125
          },
          {
            "ticks": 220650,
            "time": 235.73740343749998,
            "value": 0.271728515625
          },
          {
            "ticks": 220660,
            "time": 235.74808720833332,
            "value": 0.2718505859375
          },
          {
            "ticks": 220672,
            "time": 235.76090773333334,
            "value": 0.27197265625
          },
          {
            "ticks": 220682,
            "time": 235.77159150416665,
            "value": 0.2720947265625
          },
          {
            "ticks": 220693,
            "time": 235.78334365208332,
            "value": 0.272216796875
          },
          {
            "ticks": 220704,
            "time": 235.79509579999998,
            "value": 0.2723388671875
          },
          {
            "ticks": 220715,
            "time": 235.80684794791665,
            "value": 0.2724609375
          },
          {
            "ticks": 220725,
            "time": 235.81753171875,
            "value": 0.2725830078125
          },
          {
            "ticks": 220737,
            "time": 235.83035224374999,
            "value": 0.272705078125
          },
          {
            "ticks": 220747,
            "time": 235.84103601458332,
            "value": 0.2728271484375
          },
          {
            "ticks": 220758,
            "time": 235.8527881625,
            "value": 0.27294921875
          },
          {
            "ticks": 220769,
            "time": 235.86454031041663,
            "value": 0.2730712890625
          },
          {
            "ticks": 220780,
            "time": 235.87629245833332,
            "value": 0.273193359375
          },
          {
            "ticks": 220790,
            "time": 235.88697622916666,
            "value": 0.2733154296875
          },
          {
            "ticks": 220802,
            "time": 235.89979675416666,
            "value": 0.2734375
          },
          {
            "ticks": 220812,
            "time": 235.91048052499997,
            "value": 0.2735595703125
          },
          {
            "ticks": 220823,
            "time": 235.92223267291664,
            "value": 0.273681640625
          },
          {
            "ticks": 220834,
            "time": 235.9339848208333,
            "value": 0.2738037109375
          },
          {
            "ticks": 220845,
            "time": 235.94573696875,
            "value": 0.27392578125
          },
          {
            "ticks": 220855,
            "time": 235.9564207395833,
            "value": 0.2740478515625
          },
          {
            "ticks": 220867,
            "time": 235.96924126458333,
            "value": 0.274169921875
          },
          {
            "ticks": 220877,
            "time": 235.97992503541664,
            "value": 0.2742919921875
          },
          {
            "ticks": 220888,
            "time": 235.9916771833333,
            "value": 0.2744140625
          },
          {
            "ticks": 220899,
            "time": 236.00342933125,
            "value": 0.2745361328125
          },
          {
            "ticks": 220910,
            "time": 236.01518147916667,
            "value": 0.274658203125
          },
          {
            "ticks": 220920,
            "time": 236.02586524999998,
            "value": 0.2747802734375
          },
          {
            "ticks": 220932,
            "time": 236.03868577499998,
            "value": 0.27490234375
          },
          {
            "ticks": 220942,
            "time": 236.04936954583331,
            "value": 0.2750244140625
          },
          {
            "ticks": 220953,
            "time": 236.06112169375,
            "value": 0.275146484375
          },
          {
            "ticks": 220964,
            "time": 236.07287384166665,
            "value": 0.2752685546875
          },
          {
            "ticks": 220975,
            "time": 236.08462598958332,
            "value": 0.275390625
          },
          {
            "ticks": 220985,
            "time": 236.09530976041665,
            "value": 0.2755126953125
          },
          {
            "ticks": 220997,
            "time": 236.10813028541665,
            "value": 0.275634765625
          },
          {
            "ticks": 221007,
            "time": 236.11881405625,
            "value": 0.2757568359375
          },
          {
            "ticks": 221018,
            "time": 236.13056620416666,
            "value": 0.27587890625
          },
          {
            "ticks": 221029,
            "time": 236.14231835208332,
            "value": 0.2760009765625
          },
          {
            "ticks": 221040,
            "time": 236.1540705,
            "value": 0.276123046875
          },
          {
            "ticks": 221050,
            "time": 236.1647542708333,
            "value": 0.2762451171875
          },
          {
            "ticks": 221061,
            "time": 236.17650641875,
            "value": 0.2763671875
          },
          {
            "ticks": 221073,
            "time": 236.18932694375,
            "value": 0.2764892578125
          },
          {
            "ticks": 221083,
            "time": 236.20001071458333,
            "value": 0.276611328125
          },
          {
            "ticks": 221094,
            "time": 236.2117628625,
            "value": 0.2767333984375
          },
          {
            "ticks": 221105,
            "time": 236.22351501041666,
            "value": 0.27685546875
          },
          {
            "ticks": 221115,
            "time": 236.23419878125,
            "value": 0.2769775390625
          },
          {
            "ticks": 221127,
            "time": 236.24701930624997,
            "value": 0.277099609375
          },
          {
            "ticks": 221137,
            "time": 236.25770307708333,
            "value": 0.2772216796875
          },
          {
            "ticks": 221148,
            "time": 236.269455225,
            "value": 0.27734375
          },
          {
            "ticks": 221159,
            "time": 236.28120737291664,
            "value": 0.2774658203125
          },
          {
            "ticks": 221170,
            "time": 236.2929595208333,
            "value": 0.277587890625
          },
          {
            "ticks": 221180,
            "time": 236.30364329166667,
            "value": 0.2777099609375
          },
          {
            "ticks": 221192,
            "time": 236.31646381666664,
            "value": 0.27783203125
          },
          {
            "ticks": 221202,
            "time": 236.32714758749998,
            "value": 0.2779541015625
          },
          {
            "ticks": 221213,
            "time": 236.33889973541665,
            "value": 0.278076171875
          },
          {
            "ticks": 221223,
            "time": 236.34958350624999,
            "value": 0.2781982421875
          },
          {
            "ticks": 221235,
            "time": 236.36240403124998,
            "value": 0.2783203125
          },
          {
            "ticks": 221245,
            "time": 236.37308780208332,
            "value": 0.2784423828125
          },
          {
            "ticks": 221257,
            "time": 236.3859083270833,
            "value": 0.278564453125
          },
          {
            "ticks": 221267,
            "time": 236.39659209791665,
            "value": 0.2786865234375
          },
          {
            "ticks": 221278,
            "time": 236.40834424583332,
            "value": 0.27880859375
          },
          {
            "ticks": 221289,
            "time": 236.42009639375,
            "value": 0.2789306640625
          },
          {
            "ticks": 221299,
            "time": 236.43078016458333,
            "value": 0.279052734375
          },
          {
            "ticks": 221311,
            "time": 236.44360068958332,
            "value": 0.2791748046875
          },
          {
            "ticks": 221321,
            "time": 236.45428446041666,
            "value": 0.279296875
          },
          {
            "ticks": 221332,
            "time": 236.46603660833333,
            "value": 0.2794189453125
          },
          {
            "ticks": 221343,
            "time": 236.47778875625,
            "value": 0.279541015625
          },
          {
            "ticks": 221354,
            "time": 236.48954090416663,
            "value": 0.2796630859375
          },
          {
            "ticks": 221364,
            "time": 236.500224675,
            "value": 0.27978515625
          },
          {
            "ticks": 221376,
            "time": 236.5130452,
            "value": 0.2799072265625
          },
          {
            "ticks": 221386,
            "time": 236.52372897083333,
            "value": 0.280029296875
          },
          {
            "ticks": 221397,
            "time": 236.53548111874997,
            "value": 0.2801513671875
          },
          {
            "ticks": 221408,
            "time": 236.54723326666664,
            "value": 0.2802734375
          },
          {
            "ticks": 221419,
            "time": 236.5589854145833,
            "value": 0.2803955078125
          },
          {
            "ticks": 221429,
            "time": 236.56966918541664,
            "value": 0.280517578125
          },
          {
            "ticks": 221441,
            "time": 236.58248971041667,
            "value": 0.2806396484375
          },
          {
            "ticks": 221451,
            "time": 236.59317348124998,
            "value": 0.28076171875
          },
          {
            "ticks": 221462,
            "time": 236.60492562916664,
            "value": 0.2808837890625
          },
          {
            "ticks": 221473,
            "time": 236.6166777770833,
            "value": 0.281005859375
          },
          {
            "ticks": 221484,
            "time": 236.628429925,
            "value": 0.2811279296875
          },
          {
            "ticks": 221494,
            "time": 236.63911369583332,
            "value": 0.28125
          },
          {
            "ticks": 221506,
            "time": 236.65193422083334,
            "value": 0.2813720703125
          },
          {
            "ticks": 221516,
            "time": 236.66261799166665,
            "value": 0.281494140625
          },
          {
            "ticks": 221527,
            "time": 236.67437013958332,
            "value": 0.2816162109375
          },
          {
            "ticks": 221538,
            "time": 236.6861222875,
            "value": 0.28173828125
          },
          {
            "ticks": 221549,
            "time": 236.69787443541665,
            "value": 0.2818603515625
          },
          {
            "ticks": 221559,
            "time": 236.70855820625,
            "value": 0.281982421875
          },
          {
            "ticks": 221570,
            "time": 236.72031035416666,
            "value": 0.2821044921875
          },
          {
            "ticks": 221582,
            "time": 236.73313087916665,
            "value": 0.2822265625
          },
          {
            "ticks": 221592,
            "time": 236.74381464999996,
            "value": 0.2823486328125
          },
          {
            "ticks": 221603,
            "time": 236.75556679791666,
            "value": 0.282470703125
          },
          {
            "ticks": 221614,
            "time": 236.76731894583332,
            "value": 0.2825927734375
          },
          {
            "ticks": 221624,
            "time": 236.77800271666663,
            "value": 0.28271484375
          },
          {
            "ticks": 221636,
            "time": 236.79082324166666,
            "value": 0.2828369140625
          },
          {
            "ticks": 221646,
            "time": 236.80150701249997,
            "value": 0.282958984375
          },
          {
            "ticks": 221657,
            "time": 236.81325916041666,
            "value": 0.2830810546875
          },
          {
            "ticks": 221668,
            "time": 236.82501130833333,
            "value": 0.283203125
          },
          {
            "ticks": 221679,
            "time": 236.83676345625,
            "value": 0.2833251953125
          },
          {
            "ticks": 221689,
            "time": 236.8474472270833,
            "value": 0.283447265625
          },
          {
            "ticks": 221701,
            "time": 236.86026775208333,
            "value": 0.2835693359375
          },
          {
            "ticks": 221711,
            "time": 236.87095152291667,
            "value": 0.28369140625
          },
          {
            "ticks": 221722,
            "time": 236.88270367083334,
            "value": 0.2838134765625
          },
          {
            "ticks": 221733,
            "time": 236.89445581875,
            "value": 0.283935546875
          },
          {
            "ticks": 221744,
            "time": 236.90620796666664,
            "value": 0.2840576171875
          },
          {
            "ticks": 221754,
            "time": 236.91689173749998,
            "value": 0.2841796875
          },
          {
            "ticks": 221766,
            "time": 236.92971226249998,
            "value": 0.2843017578125
          },
          {
            "ticks": 221776,
            "time": 236.94039603333334,
            "value": 0.284423828125
          },
          {
            "ticks": 221787,
            "time": 236.95214818124998,
            "value": 0.2845458984375
          },
          {
            "ticks": 221798,
            "time": 236.96390032916665,
            "value": 0.28466796875
          },
          {
            "ticks": 221809,
            "time": 236.97565247708332,
            "value": 0.2847900390625
          },
          {
            "ticks": 221819,
            "time": 236.98633624791665,
            "value": 0.284912109375
          },
          {
            "ticks": 221831,
            "time": 236.99915677291665,
            "value": 0.2850341796875
          },
          {
            "ticks": 221841,
            "time": 237.00984054375,
            "value": 0.28515625
          },
          {
            "ticks": 221852,
            "time": 237.02159269166665,
            "value": 0.2852783203125
          },
          {
            "ticks": 221863,
            "time": 237.03334483958332,
            "value": 0.285400390625
          },
          {
            "ticks": 221874,
            "time": 237.0450969875,
            "value": 0.2855224609375
          },
          {
            "ticks": 221884,
            "time": 237.05578075833333,
            "value": 0.28564453125
          },
          {
            "ticks": 221896,
            "time": 237.06860128333332,
            "value": 0.2857666015625
          },
          {
            "ticks": 221906,
            "time": 237.07928505416666,
            "value": 0.285888671875
          },
          {
            "ticks": 221917,
            "time": 237.09103720208333,
            "value": 0.2860107421875
          },
          {
            "ticks": 221928,
            "time": 237.10278935,
            "value": 0.2861328125
          },
          {
            "ticks": 221939,
            "time": 237.11454149791663,
            "value": 0.2862548828125
          },
          {
            "ticks": 221949,
            "time": 237.12522526875,
            "value": 0.286376953125
          },
          {
            "ticks": 221961,
            "time": 237.13804579374997,
            "value": 0.2864990234375
          },
          {
            "ticks": 221971,
            "time": 237.14872956458333,
            "value": 0.28662109375
          },
          {
            "ticks": 221982,
            "time": 237.16048171249997,
            "value": 0.2867431640625
          },
          {
            "ticks": 221993,
            "time": 237.17223386041664,
            "value": 0.286865234375
          },
          {
            "ticks": 222004,
            "time": 237.1839860083333,
            "value": 0.2869873046875
          },
          {
            "ticks": 222014,
            "time": 237.19466977916665,
            "value": 0.287109375
          },
          {
            "ticks": 222026,
            "time": 237.20749030416667,
            "value": 0.2872314453125
          },
          {
            "ticks": 222036,
            "time": 237.21817407499998,
            "value": 0.287353515625
          },
          {
            "ticks": 222047,
            "time": 237.22992622291665,
            "value": 0.2874755859375
          },
          {
            "ticks": 222058,
            "time": 237.2416783708333,
            "value": 0.28759765625
          },
          {
            "ticks": 222069,
            "time": 237.25343051874998,
            "value": 0.2877197265625
          },
          {
            "ticks": 222079,
            "time": 237.26411428958332,
            "value": 0.287841796875
          },
          {
            "ticks": 222091,
            "time": 237.27693481458334,
            "value": 0.2879638671875
          },
          {
            "ticks": 222101,
            "time": 237.28761858541665,
            "value": 0.2880859375
          },
          {
            "ticks": 222112,
            "time": 237.29937073333332,
            "value": 0.2882080078125
          },
          {
            "ticks": 222123,
            "time": 237.31112288125,
            "value": 0.288330078125
          },
          {
            "ticks": 222134,
            "time": 237.32287502916665,
            "value": 0.2884521484375
          },
          {
            "ticks": 222144,
            "time": 237.3335588,
            "value": 0.28857421875
          },
          {
            "ticks": 222156,
            "time": 237.346379325,
            "value": 0.2886962890625
          },
          {
            "ticks": 222166,
            "time": 237.35706309583333,
            "value": 0.288818359375
          },
          {
            "ticks": 222177,
            "time": 237.36881524374996,
            "value": 0.2889404296875
          },
          {
            "ticks": 222188,
            "time": 237.38056739166666,
            "value": 0.2890625
          },
          {
            "ticks": 222199,
            "time": 237.39231953958333,
            "value": 0.2891845703125
          },
          {
            "ticks": 222209,
            "time": 237.40300331041664,
            "value": 0.289306640625
          },
          {
            "ticks": 222221,
            "time": 237.41582383541666,
            "value": 0.2894287109375
          },
          {
            "ticks": 222231,
            "time": 237.42650760624997,
            "value": 0.28955078125
          },
          {
            "ticks": 222242,
            "time": 237.43825975416667,
            "value": 0.2896728515625
          },
          {
            "ticks": 222253,
            "time": 237.45001190208333,
            "value": 0.289794921875
          },
          {
            "ticks": 222263,
            "time": 237.46069567291664,
            "value": 0.2899169921875
          },
          {
            "ticks": 222275,
            "time": 237.47351619791667,
            "value": 0.2900390625
          },
          {
            "ticks": 222285,
            "time": 237.48419996874998,
            "value": 0.2901611328125
          },
          {
            "ticks": 222296,
            "time": 237.49595211666664,
            "value": 0.290283203125
          },
          {
            "ticks": 222307,
            "time": 237.50770426458334,
            "value": 0.2904052734375
          },
          {
            "ticks": 222318,
            "time": 237.5194564125,
            "value": 0.29052734375
          },
          {
            "ticks": 222328,
            "time": 237.53014018333332,
            "value": 0.2906494140625
          },
          {
            "ticks": 222340,
            "time": 237.5429607083333,
            "value": 0.290771484375
          },
          {
            "ticks": 222350,
            "time": 237.55364447916665,
            "value": 0.2908935546875
          },
          {
            "ticks": 222361,
            "time": 237.56539662708335,
            "value": 0.291015625
          },
          {
            "ticks": 222372,
            "time": 237.57714877499998,
            "value": 0.2911376953125
          },
          {
            "ticks": 222383,
            "time": 237.58890092291665,
            "value": 0.291259765625
          },
          {
            "ticks": 222393,
            "time": 237.59958469375,
            "value": 0.2913818359375
          },
          {
            "ticks": 222405,
            "time": 237.61240521874998,
            "value": 0.29150390625
          },
          {
            "ticks": 222415,
            "time": 237.62308898958332,
            "value": 0.2916259765625
          },
          {
            "ticks": 222426,
            "time": 237.6348411375,
            "value": 0.291748046875
          },
          {
            "ticks": 222437,
            "time": 237.64659328541666,
            "value": 0.2918701171875
          },
          {
            "ticks": 222448,
            "time": 237.65834543333332,
            "value": 0.2919921875
          },
          {
            "ticks": 222458,
            "time": 237.66902920416663,
            "value": 0.2921142578125
          },
          {
            "ticks": 222470,
            "time": 237.68184972916666,
            "value": 0.292236328125
          },
          {
            "ticks": 222480,
            "time": 237.6925335,
            "value": 0.2923583984375
          },
          {
            "ticks": 222491,
            "time": 237.70428564791666,
            "value": 0.29248046875
          },
          {
            "ticks": 222502,
            "time": 237.71603779583333,
            "value": 0.2926025390625
          },
          {
            "ticks": 222513,
            "time": 237.72778994375,
            "value": 0.292724609375
          },
          {
            "ticks": 222523,
            "time": 237.73847371458334,
            "value": 0.2928466796875
          },
          {
            "ticks": 222535,
            "time": 237.7512942395833,
            "value": 0.29296875
          },
          {
            "ticks": 222545,
            "time": 237.76197801041667,
            "value": 0.2930908203125
          },
          {
            "ticks": 222556,
            "time": 237.77373015833334,
            "value": 0.293212890625
          },
          {
            "ticks": 222567,
            "time": 237.78548230624997,
            "value": 0.2933349609375
          },
          {
            "ticks": 222577,
            "time": 237.79616607708334,
            "value": 0.29345703125
          },
          {
            "ticks": 222589,
            "time": 237.8089866020833,
            "value": 0.2935791015625
          },
          {
            "ticks": 222599,
            "time": 237.81967037291665,
            "value": 0.293701171875
          },
          {
            "ticks": 222611,
            "time": 237.83249089791667,
            "value": 0.2938232421875
          },
          {
            "ticks": 222621,
            "time": 237.84317466874998,
            "value": 0.2939453125
          },
          {
            "ticks": 222632,
            "time": 237.85492681666665,
            "value": 0.2940673828125
          },
          {
            "ticks": 222643,
            "time": 237.86667896458331,
            "value": 0.294189453125
          },
          {
            "ticks": 222653,
            "time": 237.87736273541665,
            "value": 0.2943115234375
          },
          {
            "ticks": 222665,
            "time": 237.89018326041668,
            "value": 0.29443359375
          },
          {
            "ticks": 222675,
            "time": 237.90086703125,
            "value": 0.2945556640625
          },
          {
            "ticks": 222686,
            "time": 237.91261917916665,
            "value": 0.294677734375
          },
          {
            "ticks": 222697,
            "time": 237.92437132708332,
            "value": 0.2947998046875
          },
          {
            "ticks": 222708,
            "time": 237.936123475,
            "value": 0.294921875
          },
          {
            "ticks": 222718,
            "time": 237.94680724583333,
            "value": 0.2950439453125
          },
          {
            "ticks": 222730,
            "time": 237.95962777083332,
            "value": 0.295166015625
          },
          {
            "ticks": 222740,
            "time": 237.97031154166666,
            "value": 0.2952880859375
          },
          {
            "ticks": 222751,
            "time": 237.98206368958333,
            "value": 0.29541015625
          },
          {
            "ticks": 222762,
            "time": 237.99381583749997,
            "value": 0.2955322265625
          },
          {
            "ticks": 222773,
            "time": 238.00556798541663,
            "value": 0.295654296875
          },
          {
            "ticks": 222783,
            "time": 238.01625175625,
            "value": 0.2957763671875
          },
          {
            "ticks": 222795,
            "time": 238.02907228125,
            "value": 0.2958984375
          },
          {
            "ticks": 222805,
            "time": 238.0397560520833,
            "value": 0.2960205078125
          },
          {
            "ticks": 222816,
            "time": 238.05150819999997,
            "value": 0.296142578125
          },
          {
            "ticks": 222827,
            "time": 238.06326034791664,
            "value": 0.2962646484375
          },
          {
            "ticks": 222838,
            "time": 238.07501249583333,
            "value": 0.29638671875
          },
          {
            "ticks": 222848,
            "time": 238.08569626666664,
            "value": 0.2965087890625
          },
          {
            "ticks": 222860,
            "time": 238.09851679166667,
            "value": 0.296630859375
          },
          {
            "ticks": 222870,
            "time": 238.10920056249998,
            "value": 0.2967529296875
          },
          {
            "ticks": 222881,
            "time": 238.12095271041665,
            "value": 0.296875
          },
          {
            "ticks": 222892,
            "time": 238.13270485833334,
            "value": 0.2969970703125
          },
          {
            "ticks": 222903,
            "time": 238.14445700625,
            "value": 0.297119140625
          },
          {
            "ticks": 222913,
            "time": 238.15514077708332,
            "value": 0.2972412109375
          },
          {
            "ticks": 222925,
            "time": 238.1679613020833,
            "value": 0.29736328125
          },
          {
            "ticks": 222935,
            "time": 238.17864507291665,
            "value": 0.2974853515625
          },
          {
            "ticks": 222946,
            "time": 238.19039722083335,
            "value": 0.297607421875
          },
          {
            "ticks": 222957,
            "time": 238.20214936874999,
            "value": 0.2977294921875
          },
          {
            "ticks": 222968,
            "time": 238.21390151666665,
            "value": 0.2978515625
          },
          {
            "ticks": 222978,
            "time": 238.2245852875,
            "value": 0.2979736328125
          },
          {
            "ticks": 222990,
            "time": 238.2374058125,
            "value": 0.298095703125
          },
          {
            "ticks": 223000,
            "time": 238.2480895833333,
            "value": 0.2982177734375
          },
          {
            "ticks": 223011,
            "time": 238.25984173125,
            "value": 0.29833984375
          },
          {
            "ticks": 223022,
            "time": 238.27159387916666,
            "value": 0.2984619140625
          },
          {
            "ticks": 223033,
            "time": 238.28334602708333,
            "value": 0.298583984375
          },
          {
            "ticks": 223043,
            "time": 238.29402979791664,
            "value": 0.2987060546875
          },
          {
            "ticks": 223055,
            "time": 238.30685032291666,
            "value": 0.298828125
          },
          {
            "ticks": 223065,
            "time": 238.31753409375,
            "value": 0.2989501953125
          },
          {
            "ticks": 223076,
            "time": 238.32928624166667,
            "value": 0.299072265625
          },
          {
            "ticks": 223087,
            "time": 238.34103838958333,
            "value": 0.2991943359375
          },
          {
            "ticks": 223098,
            "time": 238.3527905375,
            "value": 0.29931640625
          },
          {
            "ticks": 223108,
            "time": 238.3634743083333,
            "value": 0.2994384765625
          },
          {
            "ticks": 223120,
            "time": 238.3762948333333,
            "value": 0.299560546875
          },
          {
            "ticks": 223130,
            "time": 238.38697860416667,
            "value": 0.2996826171875
          },
          {
            "ticks": 223141,
            "time": 238.39873075208334,
            "value": 0.2998046875
          },
          {
            "ticks": 223152,
            "time": 238.41048289999998,
            "value": 0.2999267578125
          },
          {
            "ticks": 223163,
            "time": 238.42223504791664,
            "value": 0.300048828125
          },
          {
            "ticks": 223173,
            "time": 238.43291881875,
            "value": 0.3001708984375
          },
          {
            "ticks": 223185,
            "time": 238.44573934374998,
            "value": 0.30029296875
          },
          {
            "ticks": 223195,
            "time": 238.45642311458332,
            "value": 0.3004150390625
          },
          {
            "ticks": 223206,
            "time": 238.46817526249998,
            "value": 0.300537109375
          },
          {
            "ticks": 223217,
            "time": 238.47992741041665,
            "value": 0.3006591796875
          },
          {
            "ticks": 223228,
            "time": 238.49167955833332,
            "value": 0.30078125
          },
          {
            "ticks": 223238,
            "time": 238.50236332916666,
            "value": 0.3009033203125
          },
          {
            "ticks": 223250,
            "time": 238.51518385416665,
            "value": 0.301025390625
          },
          {
            "ticks": 223260,
            "time": 238.525867625,
            "value": 0.3011474609375
          },
          {
            "ticks": 223271,
            "time": 238.53761977291666,
            "value": 0.30126953125
          },
          {
            "ticks": 223282,
            "time": 238.54937192083332,
            "value": 0.3013916015625
          },
          {
            "ticks": 223293,
            "time": 238.56112406875,
            "value": 0.301513671875
          },
          {
            "ticks": 223303,
            "time": 238.57180783958333,
            "value": 0.3016357421875
          },
          {
            "ticks": 223315,
            "time": 238.58462836458332,
            "value": 0.3017578125
          },
          {
            "ticks": 223325,
            "time": 238.59531213541666,
            "value": 0.3018798828125
          },
          {
            "ticks": 223336,
            "time": 238.60706428333333,
            "value": 0.302001953125
          },
          {
            "ticks": 223347,
            "time": 238.61881643124997,
            "value": 0.3021240234375
          },
          {
            "ticks": 223357,
            "time": 238.62950020208334,
            "value": 0.30224609375
          },
          {
            "ticks": 223369,
            "time": 238.64232072708333,
            "value": 0.3023681640625
          },
          {
            "ticks": 223379,
            "time": 238.65300449791664,
            "value": 0.302490234375
          },
          {
            "ticks": 223390,
            "time": 238.6647566458333,
            "value": 0.3026123046875
          },
          {
            "ticks": 223401,
            "time": 238.67650879374997,
            "value": 0.302734375
          },
          {
            "ticks": 223412,
            "time": 238.68826094166664,
            "value": 0.3028564453125
          },
          {
            "ticks": 223422,
            "time": 238.69894471249998,
            "value": 0.302978515625
          },
          {
            "ticks": 223434,
            "time": 238.7117652375,
            "value": 0.3031005859375
          },
          {
            "ticks": 223444,
            "time": 238.7224490083333,
            "value": 0.30322265625
          },
          {
            "ticks": 223455,
            "time": 238.73420115624998,
            "value": 0.3033447265625
          },
          {
            "ticks": 223466,
            "time": 238.74595330416665,
            "value": 0.303466796875
          },
          {
            "ticks": 223477,
            "time": 238.75770545208331,
            "value": 0.3035888671875
          },
          {
            "ticks": 223487,
            "time": 238.76838922291665,
            "value": 0.3037109375
          },
          {
            "ticks": 223499,
            "time": 238.78120974791665,
            "value": 0.3038330078125
          },
          {
            "ticks": 223509,
            "time": 238.79189351875,
            "value": 0.303955078125
          },
          {
            "ticks": 223520,
            "time": 238.80364566666665,
            "value": 0.3040771484375
          },
          {
            "ticks": 223531,
            "time": 238.81539781458332,
            "value": 0.30419921875
          },
          {
            "ticks": 223542,
            "time": 238.8271499625,
            "value": 0.3043212890625
          },
          {
            "ticks": 223552,
            "time": 238.83783373333333,
            "value": 0.304443359375
          },
          {
            "ticks": 223564,
            "time": 238.85065425833332,
            "value": 0.3045654296875
          },
          {
            "ticks": 223574,
            "time": 238.86133802916663,
            "value": 0.3046875
          },
          {
            "ticks": 223585,
            "time": 238.8730901770833,
            "value": 0.3048095703125
          },
          {
            "ticks": 223596,
            "time": 238.884842325,
            "value": 0.304931640625
          },
          {
            "ticks": 223607,
            "time": 238.89659447291666,
            "value": 0.3050537109375
          },
          {
            "ticks": 223617,
            "time": 238.90727824374997,
            "value": 0.30517578125
          },
          {
            "ticks": 223629,
            "time": 238.92009876875,
            "value": 0.3052978515625
          },
          {
            "ticks": 223639,
            "time": 238.9307825395833,
            "value": 0.305419921875
          },
          {
            "ticks": 223650,
            "time": 238.9425346875,
            "value": 0.3055419921875
          },
          {
            "ticks": 223661,
            "time": 238.95428683541667,
            "value": 0.3056640625
          },
          {
            "ticks": 223672,
            "time": 238.96603898333333,
            "value": 0.3057861328125
          },
          {
            "ticks": 223682,
            "time": 238.97672275416664,
            "value": 0.305908203125
          },
          {
            "ticks": 223694,
            "time": 238.98954327916664,
            "value": 0.3060302734375
          },
          {
            "ticks": 223704,
            "time": 239.00022705,
            "value": 0.30615234375
          },
          {
            "ticks": 223715,
            "time": 239.01197919791667,
            "value": 0.3062744140625
          },
          {
            "ticks": 223726,
            "time": 239.02373134583334,
            "value": 0.306396484375
          },
          {
            "ticks": 223737,
            "time": 239.03548349374998,
            "value": 0.3065185546875
          },
          {
            "ticks": 223747,
            "time": 239.04616726458332,
            "value": 0.306640625
          },
          {
            "ticks": 223759,
            "time": 239.0589877895833,
            "value": 0.3067626953125
          },
          {
            "ticks": 223770,
            "time": 239.07073993749998,
            "value": 0.306884765625
          },
          {
            "ticks": 223780,
            "time": 239.08142370833332,
            "value": 0.3070068359375
          },
          {
            "ticks": 223791,
            "time": 239.09317585624999,
            "value": 0.30712890625
          },
          {
            "ticks": 223802,
            "time": 239.10492800416665,
            "value": 0.3072509765625
          },
          {
            "ticks": 223812,
            "time": 239.11561177499996,
            "value": 0.307373046875
          },
          {
            "ticks": 223824,
            "time": 239.1284323,
            "value": 0.3074951171875
          },
          {
            "ticks": 223834,
            "time": 239.13911607083332,
            "value": 0.3076171875
          },
          {
            "ticks": 223845,
            "time": 239.15086821875,
            "value": 0.3077392578125
          },
          {
            "ticks": 223856,
            "time": 239.16262036666666,
            "value": 0.307861328125
          },
          {
            "ticks": 223867,
            "time": 239.17437251458333,
            "value": 0.3079833984375
          },
          {
            "ticks": 223877,
            "time": 239.18505628541666,
            "value": 0.30810546875
          },
          {
            "ticks": 223889,
            "time": 239.19787681041663,
            "value": 0.3082275390625
          },
          {
            "ticks": 223899,
            "time": 239.20856058125,
            "value": 0.308349609375
          },
          {
            "ticks": 223910,
            "time": 239.22031272916666,
            "value": 0.3084716796875
          },
          {
            "ticks": 223921,
            "time": 239.23206487708333,
            "value": 0.30859375
          },
          {
            "ticks": 223932,
            "time": 239.24381702499997,
            "value": 0.3087158203125
          },
          {
            "ticks": 223942,
            "time": 239.25450079583334,
            "value": 0.308837890625
          },
          {
            "ticks": 223954,
            "time": 239.2673213208333,
            "value": 0.3089599609375
          },
          {
            "ticks": 223964,
            "time": 239.27800509166664,
            "value": 0.30908203125
          },
          {
            "ticks": 223975,
            "time": 239.2897572395833,
            "value": 0.3092041015625
          },
          {
            "ticks": 223986,
            "time": 239.30150938749998,
            "value": 0.309326171875
          },
          {
            "ticks": 223997,
            "time": 239.31326153541664,
            "value": 0.3094482421875
          },
          {
            "ticks": 224007,
            "time": 239.32394530624998,
            "value": 0.3095703125
          },
          {
            "ticks": 224019,
            "time": 239.33676583125,
            "value": 0.3096923828125
          },
          {
            "ticks": 224029,
            "time": 239.34744960208332,
            "value": 0.309814453125
          },
          {
            "ticks": 224040,
            "time": 239.35920174999998,
            "value": 0.3099365234375
          },
          {
            "ticks": 224051,
            "time": 239.37095389791665,
            "value": 0.31005859375
          },
          {
            "ticks": 224062,
            "time": 239.38270604583332,
            "value": 0.3101806640625
          },
          {
            "ticks": 224072,
            "time": 239.39338981666666,
            "value": 0.310302734375
          },
          {
            "ticks": 224084,
            "time": 239.40621034166665,
            "value": 0.3104248046875
          },
          {
            "ticks": 224094,
            "time": 239.4168941125,
            "value": 0.310546875
          },
          {
            "ticks": 224105,
            "time": 239.42864626041666,
            "value": 0.3106689453125
          },
          {
            "ticks": 224116,
            "time": 239.44039840833332,
            "value": 0.310791015625
          },
          {
            "ticks": 224127,
            "time": 239.45215055624996,
            "value": 0.3109130859375
          },
          {
            "ticks": 224137,
            "time": 239.46283432708333,
            "value": 0.31103515625
          },
          {
            "ticks": 224149,
            "time": 239.47565485208332,
            "value": 0.3111572265625
          },
          {
            "ticks": 224159,
            "time": 239.48633862291663,
            "value": 0.311279296875
          },
          {
            "ticks": 224170,
            "time": 239.4980907708333,
            "value": 0.3114013671875
          },
          {
            "ticks": 224181,
            "time": 239.50984291874997,
            "value": 0.3115234375
          },
          {
            "ticks": 224192,
            "time": 239.52159506666666,
            "value": 0.3116455078125
          },
          {
            "ticks": 224202,
            "time": 239.53227883749997,
            "value": 0.311767578125
          },
          {
            "ticks": 224214,
            "time": 239.5450993625,
            "value": 0.3118896484375
          },
          {
            "ticks": 224224,
            "time": 239.5557831333333,
            "value": 0.31201171875
          },
          {
            "ticks": 224235,
            "time": 239.56753528124997,
            "value": 0.3121337890625
          },
          {
            "ticks": 224246,
            "time": 239.57928742916667,
            "value": 0.312255859375
          },
          {
            "ticks": 224257,
            "time": 239.59103957708334,
            "value": 0.3123779296875
          },
          {
            "ticks": 224267,
            "time": 239.60172334791665,
            "value": 0.3125
          },
          {
            "ticks": 224278,
            "time": 239.6134754958333,
            "value": 0.3126220703125
          },
          {
            "ticks": 224290,
            "time": 239.6262960208333,
            "value": 0.312744140625
          },
          {
            "ticks": 224300,
            "time": 239.63697979166668,
            "value": 0.3128662109375
          },
          {
            "ticks": 224311,
            "time": 239.64873193958334,
            "value": 0.31298828125
          },
          {
            "ticks": 224322,
            "time": 239.66048408749998,
            "value": 0.3131103515625
          },
          {
            "ticks": 224332,
            "time": 239.67116785833332,
            "value": 0.313232421875
          },
          {
            "ticks": 224344,
            "time": 239.68398838333331,
            "value": 0.3133544921875
          },
          {
            "ticks": 224354,
            "time": 239.69467215416665,
            "value": 0.3134765625
          },
          {
            "ticks": 224365,
            "time": 239.70642430208332,
            "value": 0.3135986328125
          },
          {
            "ticks": 224376,
            "time": 239.71817645,
            "value": 0.313720703125
          },
          {
            "ticks": 224387,
            "time": 239.72992859791665,
            "value": 0.3138427734375
          },
          {
            "ticks": 224397,
            "time": 239.74061236874996,
            "value": 0.31396484375
          },
          {
            "ticks": 224409,
            "time": 239.75343289375,
            "value": 0.3140869140625
          },
          {
            "ticks": 224419,
            "time": 239.76411666458333,
            "value": 0.314208984375
          },
          {
            "ticks": 224430,
            "time": 239.7758688125,
            "value": 0.3143310546875
          },
          {
            "ticks": 224441,
            "time": 239.78762096041666,
            "value": 0.314453125
          },
          {
            "ticks": 224451,
            "time": 239.79830473124997,
            "value": 0.3145751953125
          },
          {
            "ticks": 224463,
            "time": 239.81112525625,
            "value": 0.314697265625
          },
          {
            "ticks": 224473,
            "time": 239.82180902708333,
            "value": 0.3148193359375
          },
          {
            "ticks": 224484,
            "time": 239.833561175,
            "value": 0.31494140625
          },
          {
            "ticks": 224495,
            "time": 239.84531332291667,
            "value": 0.3150634765625
          },
          {
            "ticks": 224506,
            "time": 239.85706547083333,
            "value": 0.315185546875
          },
          {
            "ticks": 224516,
            "time": 239.86774924166664,
            "value": 0.3153076171875
          },
          {
            "ticks": 224528,
            "time": 239.88056976666664,
            "value": 0.3154296875
          },
          {
            "ticks": 224538,
            "time": 239.8912535375,
            "value": 0.3155517578125
          },
          {
            "ticks": 224549,
            "time": 239.90300568541664,
            "value": 0.315673828125
          },
          {
            "ticks": 224560,
            "time": 239.9147578333333,
            "value": 0.3157958984375
          },
          {
            "ticks": 224571,
            "time": 239.92650998124998,
            "value": 0.31591796875
          },
          {
            "ticks": 224581,
            "time": 239.93719375208335,
            "value": 0.3160400390625
          },
          {
            "ticks": 224593,
            "time": 239.9500142770833,
            "value": 0.316162109375
          },
          {
            "ticks": 224603,
            "time": 239.96069804791665,
            "value": 0.3162841796875
          },
          {
            "ticks": 224614,
            "time": 239.97245019583332,
            "value": 0.31640625
          },
          {
            "ticks": 224625,
            "time": 239.98420234374998,
            "value": 0.3165283203125
          },
          {
            "ticks": 224636,
            "time": 239.99595449166665,
            "value": 0.316650390625
          },
          {
            "ticks": 224646,
            "time": 240.0066382625,
            "value": 0.3167724609375
          },
          {
            "ticks": 224658,
            "time": 240.01945878749999,
            "value": 0.31689453125
          },
          {
            "ticks": 224668,
            "time": 240.03014255833332,
            "value": 0.3170166015625
          },
          {
            "ticks": 224679,
            "time": 240.04189470625,
            "value": 0.317138671875
          },
          {
            "ticks": 224690,
            "time": 240.05364685416666,
            "value": 0.3172607421875
          },
          {
            "ticks": 224701,
            "time": 240.06539900208332,
            "value": 0.3173828125
          },
          {
            "ticks": 224711,
            "time": 240.07608277291666,
            "value": 0.3175048828125
          },
          {
            "ticks": 224723,
            "time": 240.08890329791666,
            "value": 0.317626953125
          },
          {
            "ticks": 224733,
            "time": 240.09958706875,
            "value": 0.3177490234375
          },
          {
            "ticks": 224744,
            "time": 240.11133921666664,
            "value": 0.31787109375
          },
          {
            "ticks": 224755,
            "time": 240.1230913645833,
            "value": 0.3179931640625
          },
          {
            "ticks": 224766,
            "time": 240.13484351249997,
            "value": 0.318115234375
          },
          {
            "ticks": 224776,
            "time": 240.14552728333334,
            "value": 0.3182373046875
          },
          {
            "ticks": 224788,
            "time": 240.15834780833333,
            "value": 0.318359375
          },
          {
            "ticks": 224798,
            "time": 240.16903157916664,
            "value": 0.3184814453125
          },
          {
            "ticks": 224809,
            "time": 240.1807837270833,
            "value": 0.318603515625
          },
          {
            "ticks": 224820,
            "time": 240.19253587499998,
            "value": 0.3187255859375
          },
          {
            "ticks": 224831,
            "time": 240.20428802291667,
            "value": 0.31884765625
          },
          {
            "ticks": 224841,
            "time": 240.21497179374998,
            "value": 0.3189697265625
          },
          {
            "ticks": 224853,
            "time": 240.22779231875,
            "value": 0.319091796875
          },
          {
            "ticks": 224863,
            "time": 240.23847608958332,
            "value": 0.3192138671875
          },
          {
            "ticks": 224874,
            "time": 240.25022823749998,
            "value": 0.3193359375
          },
          {
            "ticks": 224885,
            "time": 240.26198038541665,
            "value": 0.3194580078125
          },
          {
            "ticks": 224896,
            "time": 240.27373253333334,
            "value": 0.319580078125
          },
          {
            "ticks": 224906,
            "time": 240.28441630416665,
            "value": 0.3197021484375
          },
          {
            "ticks": 224918,
            "time": 240.29723682916665,
            "value": 0.31982421875
          },
          {
            "ticks": 224928,
            "time": 240.3079206,
            "value": 0.3199462890625
          },
          {
            "ticks": 224939,
            "time": 240.31967274791663,
            "value": 0.320068359375
          },
          {
            "ticks": 224950,
            "time": 240.33142489583332,
            "value": 0.3201904296875
          },
          {
            "ticks": 224961,
            "time": 240.34317704375,
            "value": 0.3203125
          },
          {
            "ticks": 224971,
            "time": 240.35386081458333,
            "value": 0.3204345703125
          },
          {
            "ticks": 224983,
            "time": 240.36668133958332,
            "value": 0.320556640625
          },
          {
            "ticks": 224993,
            "time": 240.37736511041663,
            "value": 0.3206787109375
          },
          {
            "ticks": 225004,
            "time": 240.38911725833333,
            "value": 0.32080078125
          },
          {
            "ticks": 225015,
            "time": 240.40086940625,
            "value": 0.3209228515625
          },
          {
            "ticks": 225026,
            "time": 240.41262155416666,
            "value": 0.321044921875
          },
          {
            "ticks": 225036,
            "time": 240.42330532499997,
            "value": 0.3211669921875
          },
          {
            "ticks": 225048,
            "time": 240.43612585,
            "value": 0.3212890625
          },
          {
            "ticks": 225058,
            "time": 240.44680962083333,
            "value": 0.3214111328125
          },
          {
            "ticks": 225069,
            "time": 240.45856176875,
            "value": 0.321533203125
          },
          {
            "ticks": 225080,
            "time": 240.47031391666667,
            "value": 0.3216552734375
          },
          {
            "ticks": 225091,
            "time": 240.48206606458334,
            "value": 0.32177734375
          },
          {
            "ticks": 225101,
            "time": 240.49274983541665,
            "value": 0.3218994140625
          },
          {
            "ticks": 225113,
            "time": 240.50557036041664,
            "value": 0.322021484375
          },
          {
            "ticks": 225123,
            "time": 240.51625413125,
            "value": 0.3221435546875
          },
          {
            "ticks": 225134,
            "time": 240.52800627916665,
            "value": 0.322265625
          },
          {
            "ticks": 225145,
            "time": 240.5397584270833,
            "value": 0.3223876953125
          },
          {
            "ticks": 225156,
            "time": 240.55151057499998,
            "value": 0.322509765625
          },
          {
            "ticks": 225166,
            "time": 240.56219434583335,
            "value": 0.3226318359375
          },
          {
            "ticks": 225178,
            "time": 240.57501487083331,
            "value": 0.32275390625
          },
          {
            "ticks": 225188,
            "time": 240.58569864166665,
            "value": 0.3228759765625
          },
          {
            "ticks": 225199,
            "time": 240.59745078958332,
            "value": 0.322998046875
          },
          {
            "ticks": 225210,
            "time": 240.6092029375,
            "value": 0.3231201171875
          },
          {
            "ticks": 225221,
            "time": 240.62095508541665,
            "value": 0.3232421875
          },
          {
            "ticks": 225231,
            "time": 240.63163885625,
            "value": 0.3233642578125
          },
          {
            "ticks": 225243,
            "time": 240.64445938125,
            "value": 0.323486328125
          },
          {
            "ticks": 225253,
            "time": 240.65514315208333,
            "value": 0.3236083984375
          },
          {
            "ticks": 225263,
            "time": 240.66582692291664,
            "value": 0.32373046875
          },
          {
            "ticks": 225275,
            "time": 240.67864744791666,
            "value": 0.3238525390625
          },
          {
            "ticks": 225286,
            "time": 240.69039959583333,
            "value": 0.323974609375
          },
          {
            "ticks": 225296,
            "time": 240.70108336666667,
            "value": 0.3240966796875
          },
          {
            "ticks": 225308,
            "time": 240.71390389166663,
            "value": 0.32421875
          },
          {
            "ticks": 225318,
            "time": 240.7245876625,
            "value": 0.3243408203125
          },
          {
            "ticks": 225329,
            "time": 240.73633981041664,
            "value": 0.324462890625
          },
          {
            "ticks": 225340,
            "time": 240.7480919583333,
            "value": 0.3245849609375
          },
          {
            "ticks": 225351,
            "time": 240.75984410624997,
            "value": 0.32470703125
          },
          {
            "ticks": 225361,
            "time": 240.77052787708334,
            "value": 0.3248291015625
          },
          {
            "ticks": 225373,
            "time": 240.78334840208333,
            "value": 0.324951171875
          },
          {
            "ticks": 225383,
            "time": 240.79403217291664,
            "value": 0.3250732421875
          },
          {
            "ticks": 225394,
            "time": 240.8057843208333,
            "value": 0.3251953125
          },
          {
            "ticks": 225405,
            "time": 240.81753646874998,
            "value": 0.3253173828125
          },
          {
            "ticks": 225416,
            "time": 240.82928861666664,
            "value": 0.325439453125
          },
          {
            "ticks": 225426,
            "time": 240.83997238749998,
            "value": 0.3255615234375
          },
          {
            "ticks": 225438,
            "time": 240.8527929125,
            "value": 0.32568359375
          },
          {
            "ticks": 225448,
            "time": 240.86347668333332,
            "value": 0.3258056640625
          },
          {
            "ticks": 225459,
            "time": 240.87522883124998,
            "value": 0.325927734375
          },
          {
            "ticks": 225470,
            "time": 240.88698097916665,
            "value": 0.3260498046875
          },
          {
            "ticks": 225480,
            "time": 240.89766475,
            "value": 0.326171875
          },
          {
            "ticks": 225492,
            "time": 240.91048527499998,
            "value": 0.3262939453125
          },
          {
            "ticks": 225502,
            "time": 240.92116904583332,
            "value": 0.326416015625
          },
          {
            "ticks": 225513,
            "time": 240.93292119375,
            "value": 0.3265380859375
          },
          {
            "ticks": 225524,
            "time": 240.94467334166663,
            "value": 0.32666015625
          },
          {
            "ticks": 225535,
            "time": 240.9564254895833,
            "value": 0.3267822265625
          },
          {
            "ticks": 225545,
            "time": 240.96710926041666,
            "value": 0.326904296875
          },
          {
            "ticks": 225557,
            "time": 240.97992978541666,
            "value": 0.3270263671875
          },
          {
            "ticks": 225567,
            "time": 240.99061355624997,
            "value": 0.3271484375
          },
          {
            "ticks": 225578,
            "time": 241.00236570416664,
            "value": 0.3272705078125
          },
          {
            "ticks": 225589,
            "time": 241.0141178520833,
            "value": 0.327392578125
          },
          {
            "ticks": 225600,
            "time": 241.02587,
            "value": 0.3275146484375
          },
          {
            "ticks": 225610,
            "time": 241.0365537708333,
            "value": 0.32763671875
          },
          {
            "ticks": 225622,
            "time": 241.04937429583333,
            "value": 0.3277587890625
          },
          {
            "ticks": 225632,
            "time": 241.06005806666664,
            "value": 0.327880859375
          },
          {
            "ticks": 225643,
            "time": 241.0718102145833,
            "value": 0.3280029296875
          },
          {
            "ticks": 225654,
            "time": 241.0835623625,
            "value": 0.328125
          },
          {
            "ticks": 225665,
            "time": 241.09531451041667,
            "value": 0.3282470703125
          },
          {
            "ticks": 225675,
            "time": 241.10599828124998,
            "value": 0.328369140625
          },
          {
            "ticks": 225687,
            "time": 241.11881880624998,
            "value": 0.3284912109375
          },
          {
            "ticks": 225697,
            "time": 241.12950257708331,
            "value": 0.32861328125
          },
          {
            "ticks": 225708,
            "time": 241.141254725,
            "value": 0.3287353515625
          },
          {
            "ticks": 225719,
            "time": 241.15300687291665,
            "value": 0.328857421875
          },
          {
            "ticks": 225730,
            "time": 241.16475902083332,
            "value": 0.3289794921875
          },
          {
            "ticks": 225740,
            "time": 241.17544279166665,
            "value": 0.3291015625
          },
          {
            "ticks": 225752,
            "time": 241.18826331666665,
            "value": 0.3292236328125
          },
          {
            "ticks": 225762,
            "time": 241.1989470875,
            "value": 0.329345703125
          },
          {
            "ticks": 225773,
            "time": 241.21069923541666,
            "value": 0.3294677734375
          },
          {
            "ticks": 225784,
            "time": 241.22245138333332,
            "value": 0.32958984375
          },
          {
            "ticks": 225795,
            "time": 241.23420353125,
            "value": 0.3297119140625
          },
          {
            "ticks": 225805,
            "time": 241.2448873020833,
            "value": 0.329833984375
          },
          {
            "ticks": 225817,
            "time": 241.25770782708332,
            "value": 0.3299560546875
          },
          {
            "ticks": 225827,
            "time": 241.26839159791666,
            "value": 0.330078125
          },
          {
            "ticks": 225838,
            "time": 241.28014374583333,
            "value": 0.3302001953125
          },
          {
            "ticks": 225849,
            "time": 241.29189589375,
            "value": 0.330322265625
          },
          {
            "ticks": 225860,
            "time": 241.30364804166666,
            "value": 0.3304443359375
          },
          {
            "ticks": 225870,
            "time": 241.31433181249997,
            "value": 0.33056640625
          },
          {
            "ticks": 225882,
            "time": 241.32715233749997,
            "value": 0.3306884765625
          },
          {
            "ticks": 225892,
            "time": 241.33783610833333,
            "value": 0.330810546875
          },
          {
            "ticks": 225903,
            "time": 241.34958825625,
            "value": 0.3309326171875
          },
          {
            "ticks": 225914,
            "time": 241.36134040416664,
            "value": 0.3310546875
          },
          {
            "ticks": 225925,
            "time": 241.3730925520833,
            "value": 0.3311767578125
          },
          {
            "ticks": 225935,
            "time": 241.38377632291667,
            "value": 0.331298828125
          },
          {
            "ticks": 225947,
            "time": 241.39659684791664,
            "value": 0.3314208984375
          },
          {
            "ticks": 225957,
            "time": 241.40728061874998,
            "value": 0.33154296875
          },
          {
            "ticks": 225968,
            "time": 241.41903276666665,
            "value": 0.3316650390625
          },
          {
            "ticks": 225979,
            "time": 241.4307849145833,
            "value": 0.331787109375
          },
          {
            "ticks": 225990,
            "time": 241.44253706249998,
            "value": 0.3319091796875
          },
          {
            "ticks": 226000,
            "time": 241.45322083333332,
            "value": 0.33203125
          },
          {
            "ticks": 226012,
            "time": 241.4660413583333,
            "value": 0.3321533203125
          },
          {
            "ticks": 226022,
            "time": 241.47672512916665,
            "value": 0.332275390625
          },
          {
            "ticks": 226033,
            "time": 241.48847727708332,
            "value": 0.3323974609375
          },
          {
            "ticks": 226044,
            "time": 241.500229425,
            "value": 0.33251953125
          },
          {
            "ticks": 226055,
            "time": 241.51198157291665,
            "value": 0.3326416015625
          },
          {
            "ticks": 226065,
            "time": 241.52266534375,
            "value": 0.332763671875
          },
          {
            "ticks": 226077,
            "time": 241.53548586875,
            "value": 0.3328857421875
          },
          {
            "ticks": 226087,
            "time": 241.54616963958333,
            "value": 0.3330078125
          },
          {
            "ticks": 226098,
            "time": 241.5579217875,
            "value": 0.3331298828125
          },
          {
            "ticks": 226109,
            "time": 241.56967393541663,
            "value": 0.333251953125
          },
          {
            "ticks": 226120,
            "time": 241.5814260833333,
            "value": 0.3333740234375
          },
          {
            "ticks": 226130,
            "time": 241.59210985416667,
            "value": 0.33349609375
          },
          {
            "ticks": 226142,
            "time": 241.60493037916666,
            "value": 0.3336181640625
          },
          {
            "ticks": 226152,
            "time": 241.61561414999997,
            "value": 0.333740234375
          },
          {
            "ticks": 226163,
            "time": 241.62736629791664,
            "value": 0.3338623046875
          },
          {
            "ticks": 226174,
            "time": 241.6391184458333,
            "value": 0.333984375
          },
          {
            "ticks": 226185,
            "time": 241.65087059375,
            "value": 0.3341064453125
          },
          {
            "ticks": 226195,
            "time": 241.6615543645833,
            "value": 0.334228515625
          },
          {
            "ticks": 226207,
            "time": 241.67437488958333,
            "value": 0.3343505859375
          },
          {
            "ticks": 226217,
            "time": 241.68505866041664,
            "value": 0.33447265625
          },
          {
            "ticks": 226228,
            "time": 241.6968108083333,
            "value": 0.3345947265625
          },
          {
            "ticks": 226239,
            "time": 241.70856295625,
            "value": 0.334716796875
          },
          {
            "ticks": 226250,
            "time": 241.72031510416667,
            "value": 0.3348388671875
          },
          {
            "ticks": 226260,
            "time": 241.73099887499998,
            "value": 0.3349609375
          },
          {
            "ticks": 226272,
            "time": 241.74381939999998,
            "value": 0.3350830078125
          },
          {
            "ticks": 226282,
            "time": 241.75450317083332,
            "value": 0.335205078125
          },
          {
            "ticks": 226293,
            "time": 241.76625531875,
            "value": 0.3353271484375
          },
          {
            "ticks": 226304,
            "time": 241.77800746666665,
            "value": 0.33544921875
          },
          {
            "ticks": 226315,
            "time": 241.78975961458332,
            "value": 0.3355712890625
          },
          {
            "ticks": 226325,
            "time": 241.80044338541666,
            "value": 0.335693359375
          },
          {
            "ticks": 226337,
            "time": 241.81326391041665,
            "value": 0.3358154296875
          },
          {
            "ticks": 226347,
            "time": 241.82394768124996,
            "value": 0.3359375
          },
          {
            "ticks": 226358,
            "time": 241.83569982916666,
            "value": 0.3360595703125
          },
          {
            "ticks": 226369,
            "time": 241.84745197708332,
            "value": 0.336181640625
          },
          {
            "ticks": 226380,
            "time": 241.859204125,
            "value": 0.3363037109375
          },
          {
            "ticks": 226390,
            "time": 241.8698878958333,
            "value": 0.33642578125
          },
          {
            "ticks": 226402,
            "time": 241.88270842083332,
            "value": 0.3365478515625
          },
          {
            "ticks": 226412,
            "time": 241.89339219166666,
            "value": 0.336669921875
          },
          {
            "ticks": 226423,
            "time": 241.90514433958333,
            "value": 0.3367919921875
          },
          {
            "ticks": 226434,
            "time": 241.9168964875,
            "value": 0.3369140625
          },
          {
            "ticks": 226445,
            "time": 241.92864863541666,
            "value": 0.3370361328125
          },
          {
            "ticks": 226455,
            "time": 241.93933240624997,
            "value": 0.337158203125
          },
          {
            "ticks": 226466,
            "time": 241.95108455416667,
            "value": 0.3372802734375
          },
          {
            "ticks": 226477,
            "time": 241.96283670208334,
            "value": 0.33740234375
          },
          {
            "ticks": 226488,
            "time": 241.97458885,
            "value": 0.3375244140625
          },
          {
            "ticks": 226499,
            "time": 241.98634099791664,
            "value": 0.337646484375
          },
          {
            "ticks": 226510,
            "time": 241.9980931458333,
            "value": 0.3377685546875
          },
          {
            "ticks": 226520,
            "time": 242.00877691666668,
            "value": 0.337890625
          },
          {
            "ticks": 226532,
            "time": 242.02159744166664,
            "value": 0.3380126953125
          },
          {
            "ticks": 226542,
            "time": 242.03228121249998,
            "value": 0.338134765625
          },
          {
            "ticks": 226553,
            "time": 242.04403336041665,
            "value": 0.3382568359375
          },
          {
            "ticks": 226564,
            "time": 242.05578550833332,
            "value": 0.33837890625
          },
          {
            "ticks": 226574,
            "time": 242.06646927916663,
            "value": 0.3385009765625
          },
          {
            "ticks": 226586,
            "time": 242.07928980416665,
            "value": 0.338623046875
          },
          {
            "ticks": 226596,
            "time": 242.089973575,
            "value": 0.3387451171875
          },
          {
            "ticks": 226607,
            "time": 242.10172572291665,
            "value": 0.3388671875
          },
          {
            "ticks": 226618,
            "time": 242.11347787083332,
            "value": 0.3389892578125
          },
          {
            "ticks": 226629,
            "time": 242.12523001875,
            "value": 0.339111328125
          },
          {
            "ticks": 226639,
            "time": 242.13591378958333,
            "value": 0.3392333984375
          },
          {
            "ticks": 226651,
            "time": 242.14873431458332,
            "value": 0.33935546875
          },
          {
            "ticks": 226661,
            "time": 242.15941808541666,
            "value": 0.3394775390625
          },
          {
            "ticks": 226672,
            "time": 242.17117023333333,
            "value": 0.339599609375
          },
          {
            "ticks": 226683,
            "time": 242.18292238125,
            "value": 0.3397216796875
          },
          {
            "ticks": 226694,
            "time": 242.19467452916663,
            "value": 0.33984375
          },
          {
            "ticks": 226704,
            "time": 242.2053583,
            "value": 0.3399658203125
          },
          {
            "ticks": 226716,
            "time": 242.21817882499997,
            "value": 0.340087890625
          },
          {
            "ticks": 226726,
            "time": 242.22886259583333,
            "value": 0.3402099609375
          },
          {
            "ticks": 226737,
            "time": 242.24061474374997,
            "value": 0.34033203125
          },
          {
            "ticks": 226748,
            "time": 242.25236689166664,
            "value": 0.3404541015625
          },
          {
            "ticks": 226759,
            "time": 242.2641190395833,
            "value": 0.340576171875
          },
          {
            "ticks": 226769,
            "time": 242.27480281041665,
            "value": 0.3406982421875
          },
          {
            "ticks": 226781,
            "time": 242.28762333541667,
            "value": 0.3408203125
          },
          {
            "ticks": 226791,
            "time": 242.29830710624998,
            "value": 0.3409423828125
          },
          {
            "ticks": 226802,
            "time": 242.31005925416665,
            "value": 0.341064453125
          },
          {
            "ticks": 226813,
            "time": 242.3218114020833,
            "value": 0.3411865234375
          },
          {
            "ticks": 226824,
            "time": 242.33356354999998,
            "value": 0.34130859375
          },
          {
            "ticks": 226834,
            "time": 242.34424732083332,
            "value": 0.3414306640625
          },
          {
            "ticks": 226846,
            "time": 242.35706784583334,
            "value": 0.341552734375
          },
          {
            "ticks": 226856,
            "time": 242.36775161666665,
            "value": 0.3416748046875
          },
          {
            "ticks": 226867,
            "time": 242.37950376458332,
            "value": 0.341796875
          },
          {
            "ticks": 226878,
            "time": 242.3912559125,
            "value": 0.3419189453125
          },
          {
            "ticks": 226889,
            "time": 242.40300806041665,
            "value": 0.342041015625
          },
          {
            "ticks": 226899,
            "time": 242.41369183125,
            "value": 0.3421630859375
          },
          {
            "ticks": 226911,
            "time": 242.42651235625,
            "value": 0.34228515625
          },
          {
            "ticks": 226921,
            "time": 242.43719612708333,
            "value": 0.3424072265625
          },
          {
            "ticks": 226932,
            "time": 242.44894827499996,
            "value": 0.342529296875
          },
          {
            "ticks": 226943,
            "time": 242.46070042291666,
            "value": 0.3426513671875
          },
          {
            "ticks": 226954,
            "time": 242.47245257083333,
            "value": 0.3427734375
          },
          {
            "ticks": 226964,
            "time": 242.48313634166664,
            "value": 0.3428955078125
          },
          {
            "ticks": 226976,
            "time": 242.49595686666666,
            "value": 0.343017578125
          },
          {
            "ticks": 226986,
            "time": 242.50664063749997,
            "value": 0.3431396484375
          },
          {
            "ticks": 226997,
            "time": 242.51839278541664,
            "value": 0.34326171875
          },
          {
            "ticks": 227008,
            "time": 242.53014493333333,
            "value": 0.3433837890625
          },
          {
            "ticks": 227019,
            "time": 242.54189708125,
            "value": 0.343505859375
          },
          {
            "ticks": 227029,
            "time": 242.5525808520833,
            "value": 0.3436279296875
          },
          {
            "ticks": 227041,
            "time": 242.56540137708333,
            "value": 0.34375
          },
          {
            "ticks": 227051,
            "time": 242.57608514791664,
            "value": 0.3438720703125
          },
          {
            "ticks": 227062,
            "time": 242.58783729583334,
            "value": 0.343994140625
          },
          {
            "ticks": 227073,
            "time": 242.59958944375,
            "value": 0.3441162109375
          },
          {
            "ticks": 227084,
            "time": 242.61134159166664,
            "value": 0.34423828125
          },
          {
            "ticks": 227094,
            "time": 242.62202536249998,
            "value": 0.3443603515625
          },
          {
            "ticks": 227106,
            "time": 242.63484588749998,
            "value": 0.344482421875
          },
          {
            "ticks": 227116,
            "time": 242.64552965833334,
            "value": 0.3446044921875
          },
          {
            "ticks": 227127,
            "time": 242.65728180624998,
            "value": 0.3447265625
          },
          {
            "ticks": 227138,
            "time": 242.66903395416665,
            "value": 0.3448486328125
          },
          {
            "ticks": 227149,
            "time": 242.68078610208332,
            "value": 0.344970703125
          },
          {
            "ticks": 227159,
            "time": 242.69146987291663,
            "value": 0.3450927734375
          },
          {
            "ticks": 227171,
            "time": 242.70429039791665,
            "value": 0.34521484375
          },
          {
            "ticks": 227181,
            "time": 242.71497416875,
            "value": 0.3453369140625
          }
        ],
        "instrument": {
          "family": "brass",
          "number": 62,
          "name": "synthbrass 1"
        },
        "name": "",
        "notes": [
          {
            "duration": 0.08012828125001192,
            "durationTicks": 75,
            "midi": 73,
            "name": "C#5",
            "ticks": 175920,
            "time": 187.9488965,
            "velocity": 1
          },
          {
            "duration": 0.09935906875003298,
            "durationTicks": 93,
            "midi": 73,
            "name": "C#5",
            "ticks": 176160,
            "time": 188.20530699999998,
            "velocity": 1
          },
          {
            "duration": 1.4027791104166454,
            "durationTicks": 1313,
            "midi": 73,
            "name": "C#5",
            "ticks": 176400,
            "time": 188.4617175,
            "velocity": 1
          },
          {
            "duration": 0.12072661041665356,
            "durationTicks": 113,
            "midi": 71,
            "name": "B4",
            "ticks": 177840,
            "time": 190.0001805,
            "velocity": 1
          },
          {
            "duration": 0.08547016666668128,
            "durationTicks": 80,
            "midi": 69,
            "name": "A4",
            "ticks": 177960,
            "time": 190.12838574999998,
            "velocity": 1
          },
          {
            "duration": 0.10470095416667391,
            "durationTicks": 98,
            "midi": 71,
            "name": "B4",
            "ticks": 178080,
            "time": 190.256591,
            "velocity": 1
          },
          {
            "duration": 0.06944451041667321,
            "durationTicks": 65,
            "midi": 69,
            "name": "A4",
            "ticks": 178200,
            "time": 190.38479625,
            "velocity": 1
          },
          {
            "duration": 0.008547016666653917,
            "durationTicks": 8,
            "midi": 71,
            "name": "B4",
            "ticks": 178320,
            "time": 190.5130015,
            "velocity": 1
          },
          {
            "duration": 0.04594021458331099,
            "durationTicks": 43,
            "midi": 72,
            "name": "C5",
            "ticks": 178320,
            "time": 190.5130015,
            "velocity": 1
          },
          {
            "duration": 0.27777804166669284,
            "durationTicks": 260,
            "midi": 73,
            "name": "C#5",
            "ticks": 178380,
            "time": 190.57710412499998,
            "velocity": 1
          },
          {
            "duration": 0.07478639583334257,
            "durationTicks": 70,
            "midi": 73,
            "name": "C#5",
            "ticks": 179760,
            "time": 192.05146449999998,
            "velocity": 1
          },
          {
            "duration": 0.021367541666677425,
            "durationTicks": 20,
            "midi": 72,
            "name": "C5",
            "ticks": 180000,
            "time": 192.307875,
            "velocity": 0.6771653543307087
          },
          {
            "duration": 0.07478639583331415,
            "durationTicks": 70,
            "midi": 73,
            "name": "C#5",
            "ticks": 180000,
            "time": 192.307875,
            "velocity": 1
          },
          {
            "duration": 1.253206318750017,
            "durationTicks": 1173,
            "midi": 73,
            "name": "C#5",
            "ticks": 180240,
            "time": 192.56428549999998,
            "velocity": 1
          },
          {
            "duration": 0.11004283958334327,
            "durationTicks": 103,
            "midi": 73,
            "name": "C#5",
            "ticks": 181620,
            "time": 194.038645875,
            "velocity": 1
          },
          {
            "duration": 0.04594021458333941,
            "durationTicks": 43,
            "midi": 67,
            "name": "G4",
            "ticks": 181800,
            "time": 194.23095375,
            "velocity": 0.33858267716535434
          },
          {
            "duration": 0.02670942708331836,
            "durationTicks": 25,
            "midi": 71,
            "name": "B4",
            "ticks": 181860,
            "time": 194.295056375,
            "velocity": 0.33070866141732286
          },
          {
            "duration": 0.11538472500001262,
            "durationTicks": 108,
            "midi": 71,
            "name": "B4",
            "ticks": 181920,
            "time": 194.35915899999998,
            "velocity": 1
          },
          {
            "duration": 0.14209415208333098,
            "durationTicks": 133,
            "midi": 69,
            "name": "A4",
            "ticks": 182040,
            "time": 194.48736424999998,
            "velocity": 1
          },
          {
            "duration": 0.10470095416664549,
            "durationTicks": 98,
            "midi": 66,
            "name": "F#4",
            "ticks": 182220,
            "time": 194.679672125,
            "velocity": 1
          },
          {
            "duration": 0.04807696875002421,
            "durationTicks": 45,
            "midi": 64,
            "name": "E4",
            "ticks": 182340,
            "time": 194.80787737499998,
            "velocity": 1
          },
          {
            "duration": 0.03205131250001614,
            "durationTicks": 30,
            "midi": 66,
            "name": "F#4",
            "ticks": 182400,
            "time": 194.87197999999998,
            "velocity": 1
          },
          {
            "duration": 0.5213680166666563,
            "durationTicks": 488,
            "midi": 66,
            "name": "F#4",
            "ticks": 182460,
            "time": 194.93608262499998,
            "velocity": 1
          },
          {
            "duration": 0.0587607395833345,
            "durationTicks": 55,
            "midi": 65,
            "name": "F4",
            "ticks": 182940,
            "time": 195.44890362499999,
            "velocity": 0.2992125984251969
          },
          {
            "duration": 0.024572672916661986,
            "durationTicks": 23,
            "midi": 66,
            "name": "F#4",
            "ticks": 182940,
            "time": 195.44890362499999,
            "velocity": 0.3937007874015748
          },
          {
            "duration": 0.12286336458333835,
            "durationTicks": 115,
            "midi": 73,
            "name": "C#5",
            "ticks": 186480,
            "time": 199.23095849999999,
            "velocity": 1
          },
          {
            "duration": 0.2190173020833015,
            "durationTicks": 205,
            "midi": 84,
            "name": "C6",
            "ticks": 186720,
            "time": 199.487369,
            "velocity": 1
          },
          {
            "duration": 0.13354713541667707,
            "durationTicks": 125,
            "midi": 73,
            "name": "C#5",
            "ticks": 186960,
            "time": 199.7437795,
            "velocity": 1
          },
          {
            "duration": 0.11538472500001262,
            "durationTicks": 108,
            "midi": 73,
            "name": "C#5",
            "ticks": 188400,
            "time": 201.2822425,
            "velocity": 1
          },
          {
            "duration": 0.2329062041666532,
            "durationTicks": 218,
            "midi": 84,
            "name": "C6",
            "ticks": 188640,
            "time": 201.53865299999998,
            "velocity": 1
          },
          {
            "duration": 0.15277792291664127,
            "durationTicks": 143,
            "midi": 73,
            "name": "C#5",
            "ticks": 188880,
            "time": 201.7950635,
            "velocity": 0.968503937007874
          },
          {
            "duration": 0.12286336458330993,
            "durationTicks": 115,
            "midi": 73,
            "name": "C#5",
            "ticks": 194160,
            "time": 207.4360945,
            "velocity": 1
          },
          {
            "duration": 0.21901730208332992,
            "durationTicks": 205,
            "midi": 84,
            "name": "C6",
            "ticks": 194400,
            "time": 207.69250499999998,
            "velocity": 1
          },
          {
            "duration": 0.13354713541667707,
            "durationTicks": 125,
            "midi": 73,
            "name": "C#5",
            "ticks": 194640,
            "time": 207.9489155,
            "velocity": 1
          },
          {
            "duration": 0.11538472500001262,
            "durationTicks": 108,
            "midi": 73,
            "name": "C#5",
            "ticks": 196080,
            "time": 209.48737849999998,
            "velocity": 1
          },
          {
            "duration": 0.2329062041666532,
            "durationTicks": 218,
            "midi": 84,
            "name": "C6",
            "ticks": 196320,
            "time": 209.743789,
            "velocity": 1
          },
          {
            "duration": 0.1527779229166697,
            "durationTicks": 143,
            "midi": 73,
            "name": "C#5",
            "ticks": 196560,
            "time": 210.00019949999998,
            "velocity": 0.968503937007874
          }
        ]
      },
      {
        "channel": 10,
        "controlChanges": {
          "7": [
            {
              "number": 7,
              "ticks": 227315,
              "time": 242.85813669791665,
              "value": 0.5511811023622047
            }
          ],
          "10": [
            {
              "number": 10,
              "ticks": 227665,
              "time": 243.2320686770833,
              "value": 0.30708661417322836
            },
            {
              "number": 10,
              "ticks": 227665,
              "time": 243.2320686770833,
              "value": 0.30708661417322836
            }
          ],
          "91": [
            {
              "number": 91,
              "ticks": 227425,
              "time": 242.97565817708332,
              "value": 0.7795275590551181
            },
            {
              "number": 91,
              "ticks": 227425,
              "time": 242.97565817708332,
              "value": 0.7874015748031497
            }
          ],
          "93": [
            {
              "number": 93,
              "ticks": 227565,
              "time": 243.12523096874997,
              "value": 0.4645669291338583
            },
            {
              "number": 93,
              "ticks": 227565,
              "time": 243.12523096874997,
              "value": 0.47244094488188976
            }
          ],
          "120": [
            {
              "number": 120,
              "ticks": 239903,
              "time": 256.30686742291664,
              "value": 0
            }
          ],
          "123": [
            {
              "number": 123,
              "ticks": 239935,
              "time": 256.3410554895833,
              "value": 0
            }
          ]
        },
        "pitchBends": [
          {
            "ticks": 227192,
            "time": 242.72672631666666,
            "value": 0.345458984375
          },
          {
            "ticks": 227203,
            "time": 242.73847846458332,
            "value": 0.3455810546875
          },
          {
            "ticks": 227214,
            "time": 242.7502306125,
            "value": 0.345703125
          },
          {
            "ticks": 227224,
            "time": 242.76091438333333,
            "value": 0.3458251953125
          },
          {
            "ticks": 227236,
            "time": 242.77373490833332,
            "value": 0.345947265625
          },
          {
            "ticks": 227246,
            "time": 242.78441867916666,
            "value": 0.3460693359375
          },
          {
            "ticks": 227257,
            "time": 242.79617082708333,
            "value": 0.34619140625
          },
          {
            "ticks": 227268,
            "time": 242.807922975,
            "value": 0.3463134765625
          },
          {
            "ticks": 227279,
            "time": 242.81967512291664,
            "value": 0.346435546875
          },
          {
            "ticks": 227289,
            "time": 242.83035889375,
            "value": 0.3465576171875
          },
          {
            "ticks": 227301,
            "time": 242.84317941874997,
            "value": 0.3466796875
          },
          {
            "ticks": 227311,
            "time": 242.85386318958334,
            "value": 0.3468017578125
          },
          {
            "ticks": 227322,
            "time": 242.86561533749997,
            "value": 0.346923828125
          },
          {
            "ticks": 227333,
            "time": 242.87736748541664,
            "value": 0.3470458984375
          },
          {
            "ticks": 227344,
            "time": 242.8891196333333,
            "value": 0.34716796875
          },
          {
            "ticks": 227354,
            "time": 242.89980340416665,
            "value": 0.3472900390625
          },
          {
            "ticks": 227366,
            "time": 242.91262392916667,
            "value": 0.347412109375
          },
          {
            "ticks": 227376,
            "time": 242.92330769999998,
            "value": 0.3475341796875
          },
          {
            "ticks": 227387,
            "time": 242.93505984791665,
            "value": 0.34765625
          },
          {
            "ticks": 227398,
            "time": 242.94681199583331,
            "value": 0.3477783203125
          },
          {
            "ticks": 227409,
            "time": 242.95856414374998,
            "value": 0.347900390625
          },
          {
            "ticks": 227419,
            "time": 242.96924791458332,
            "value": 0.3480224609375
          },
          {
            "ticks": 227430,
            "time": 242.9810000625,
            "value": 0.34814453125
          },
          {
            "ticks": 227442,
            "time": 242.99382058749998,
            "value": 0.3482666015625
          },
          {
            "ticks": 227452,
            "time": 243.00450435833332,
            "value": 0.348388671875
          },
          {
            "ticks": 227463,
            "time": 243.01625650625,
            "value": 0.3485107421875
          },
          {
            "ticks": 227474,
            "time": 243.02800865416663,
            "value": 0.3486328125
          },
          {
            "ticks": 227484,
            "time": 243.038692425,
            "value": 0.3487548828125
          },
          {
            "ticks": 227496,
            "time": 243.05151295,
            "value": 0.348876953125
          },
          {
            "ticks": 227506,
            "time": 243.06219672083333,
            "value": 0.3489990234375
          },
          {
            "ticks": 227517,
            "time": 243.07394886874997,
            "value": 0.34912109375
          },
          {
            "ticks": 227528,
            "time": 243.08570101666663,
            "value": 0.3492431640625
          },
          {
            "ticks": 227539,
            "time": 243.09745316458333,
            "value": 0.349365234375
          },
          {
            "ticks": 227549,
            "time": 243.10813693541664,
            "value": 0.3494873046875
          },
          {
            "ticks": 227561,
            "time": 243.12095746041666,
            "value": 0.349609375
          },
          {
            "ticks": 227571,
            "time": 243.13164123124997,
            "value": 0.3497314453125
          },
          {
            "ticks": 227582,
            "time": 243.14339337916664,
            "value": 0.349853515625
          },
          {
            "ticks": 227593,
            "time": 243.15514552708333,
            "value": 0.3499755859375
          },
          {
            "ticks": 227604,
            "time": 243.166897675,
            "value": 0.35009765625
          },
          {
            "ticks": 227614,
            "time": 243.1775814458333,
            "value": 0.3502197265625
          },
          {
            "ticks": 227626,
            "time": 243.19040197083334,
            "value": 0.350341796875
          },
          {
            "ticks": 227636,
            "time": 243.20108574166665,
            "value": 0.3504638671875
          },
          {
            "ticks": 227647,
            "time": 243.21283788958334,
            "value": 0.3505859375
          },
          {
            "ticks": 227658,
            "time": 243.2245900375,
            "value": 0.3507080078125
          },
          {
            "ticks": 227668,
            "time": 243.23527380833332,
            "value": 0.350830078125
          },
          {
            "ticks": 227680,
            "time": 243.2480943333333,
            "value": 0.3509521484375
          },
          {
            "ticks": 227690,
            "time": 243.25877810416665,
            "value": 0.35107421875
          },
          {
            "ticks": 227701,
            "time": 243.27053025208335,
            "value": 0.3511962890625
          },
          {
            "ticks": 227712,
            "time": 243.28228239999999,
            "value": 0.351318359375
          },
          {
            "ticks": 227723,
            "time": 243.29403454791665,
            "value": 0.3514404296875
          },
          {
            "ticks": 227733,
            "time": 243.30471831875,
            "value": 0.3515625
          },
          {
            "ticks": 227745,
            "time": 243.31753884375,
            "value": 0.3516845703125
          },
          {
            "ticks": 227755,
            "time": 243.3282226145833,
            "value": 0.351806640625
          },
          {
            "ticks": 227766,
            "time": 243.3399747625,
            "value": 0.3519287109375
          },
          {
            "ticks": 227777,
            "time": 243.35172691041666,
            "value": 0.35205078125
          },
          {
            "ticks": 227788,
            "time": 243.36347905833333,
            "value": 0.3521728515625
          },
          {
            "ticks": 227798,
            "time": 243.37416282916664,
            "value": 0.352294921875
          },
          {
            "ticks": 227810,
            "time": 243.38698335416666,
            "value": 0.3524169921875
          },
          {
            "ticks": 227820,
            "time": 243.397667125,
            "value": 0.3525390625
          },
          {
            "ticks": 227831,
            "time": 243.40941927291667,
            "value": 0.3526611328125
          },
          {
            "ticks": 227842,
            "time": 243.42117142083333,
            "value": 0.352783203125
          },
          {
            "ticks": 227853,
            "time": 243.43292356875,
            "value": 0.3529052734375
          },
          {
            "ticks": 227863,
            "time": 243.4436073395833,
            "value": 0.35302734375
          },
          {
            "ticks": 227875,
            "time": 243.4564278645833,
            "value": 0.3531494140625
          },
          {
            "ticks": 227885,
            "time": 243.46711163541667,
            "value": 0.353271484375
          },
          {
            "ticks": 227896,
            "time": 243.47886378333334,
            "value": 0.3533935546875
          },
          {
            "ticks": 227907,
            "time": 243.49061593124998,
            "value": 0.353515625
          },
          {
            "ticks": 227918,
            "time": 243.50236807916664,
            "value": 0.3536376953125
          },
          {
            "ticks": 227928,
            "time": 243.51305185,
            "value": 0.353759765625
          },
          {
            "ticks": 227940,
            "time": 243.52587237499998,
            "value": 0.3538818359375
          },
          {
            "ticks": 227950,
            "time": 243.53655614583332,
            "value": 0.35400390625
          },
          {
            "ticks": 227961,
            "time": 243.54830829374998,
            "value": 0.3541259765625
          },
          {
            "ticks": 227972,
            "time": 243.56006044166665,
            "value": 0.354248046875
          },
          {
            "ticks": 227983,
            "time": 243.57181258958332,
            "value": 0.3543701171875
          },
          {
            "ticks": 227993,
            "time": 243.58249636041666,
            "value": 0.3544921875
          },
          {
            "ticks": 228005,
            "time": 243.59531688541665,
            "value": 0.3546142578125
          },
          {
            "ticks": 228015,
            "time": 243.60600065625,
            "value": 0.354736328125
          },
          {
            "ticks": 228026,
            "time": 243.61775280416666,
            "value": 0.3548583984375
          },
          {
            "ticks": 228037,
            "time": 243.62950495208332,
            "value": 0.35498046875
          },
          {
            "ticks": 228048,
            "time": 243.6412571,
            "value": 0.3551025390625
          },
          {
            "ticks": 228058,
            "time": 243.65194087083333,
            "value": 0.355224609375
          },
          {
            "ticks": 228070,
            "time": 243.66476139583332,
            "value": 0.3553466796875
          },
          {
            "ticks": 228080,
            "time": 243.67544516666666,
            "value": 0.35546875
          },
          {
            "ticks": 228091,
            "time": 243.68719731458333,
            "value": 0.3555908203125
          },
          {
            "ticks": 228102,
            "time": 243.69894946249997,
            "value": 0.355712890625
          },
          {
            "ticks": 228113,
            "time": 243.71070161041663,
            "value": 0.3558349609375
          },
          {
            "ticks": 228123,
            "time": 243.72138538125,
            "value": 0.35595703125
          },
          {
            "ticks": 228135,
            "time": 243.73420590625,
            "value": 0.3560791015625
          },
          {
            "ticks": 228145,
            "time": 243.7448896770833,
            "value": 0.356201171875
          },
          {
            "ticks": 228156,
            "time": 243.75664182499997,
            "value": 0.3563232421875
          },
          {
            "ticks": 228167,
            "time": 243.76839397291664,
            "value": 0.3564453125
          },
          {
            "ticks": 228178,
            "time": 243.7801461208333,
            "value": 0.3565673828125
          },
          {
            "ticks": 228188,
            "time": 243.79082989166665,
            "value": 0.356689453125
          },
          {
            "ticks": 228200,
            "time": 243.80365041666667,
            "value": 0.3568115234375
          },
          {
            "ticks": 228210,
            "time": 243.81433418749998,
            "value": 0.35693359375
          },
          {
            "ticks": 228221,
            "time": 243.82608633541665,
            "value": 0.3570556640625
          },
          {
            "ticks": 228232,
            "time": 243.83783848333331,
            "value": 0.357177734375
          },
          {
            "ticks": 228243,
            "time": 243.84959063125,
            "value": 0.3572998046875
          },
          {
            "ticks": 228253,
            "time": 243.86027440208332,
            "value": 0.357421875
          },
          {
            "ticks": 228265,
            "time": 243.87309492708332,
            "value": 0.3575439453125
          },
          {
            "ticks": 228275,
            "time": 243.88377869791665,
            "value": 0.357666015625
          },
          {
            "ticks": 228286,
            "time": 243.89553084583332,
            "value": 0.3577880859375
          },
          {
            "ticks": 228297,
            "time": 243.90728299375,
            "value": 0.35791015625
          },
          {
            "ticks": 228308,
            "time": 243.91903514166665,
            "value": 0.3580322265625
          },
          {
            "ticks": 228318,
            "time": 243.9297189125,
            "value": 0.358154296875
          },
          {
            "ticks": 228330,
            "time": 243.9425394375,
            "value": 0.3582763671875
          },
          {
            "ticks": 228340,
            "time": 243.9532232083333,
            "value": 0.3583984375
          },
          {
            "ticks": 228351,
            "time": 243.96497535625,
            "value": 0.3585205078125
          },
          {
            "ticks": 228362,
            "time": 243.97672750416666,
            "value": 0.358642578125
          },
          {
            "ticks": 228373,
            "time": 243.98847965208333,
            "value": 0.3587646484375
          },
          {
            "ticks": 228383,
            "time": 243.99916342291664,
            "value": 0.35888671875
          },
          {
            "ticks": 228395,
            "time": 244.01198394791666,
            "value": 0.3590087890625
          },
          {
            "ticks": 228405,
            "time": 244.02266771875,
            "value": 0.359130859375
          },
          {
            "ticks": 228416,
            "time": 244.03441986666667,
            "value": 0.3592529296875
          },
          {
            "ticks": 228427,
            "time": 244.04617201458333,
            "value": 0.359375
          },
          {
            "ticks": 228438,
            "time": 244.0579241625,
            "value": 0.3594970703125
          },
          {
            "ticks": 228448,
            "time": 244.0686079333333,
            "value": 0.359619140625
          },
          {
            "ticks": 228460,
            "time": 244.0814284583333,
            "value": 0.3597412109375
          },
          {
            "ticks": 228470,
            "time": 244.09211222916667,
            "value": 0.35986328125
          },
          {
            "ticks": 228481,
            "time": 244.10386437708334,
            "value": 0.3599853515625
          },
          {
            "ticks": 228492,
            "time": 244.11561652499998,
            "value": 0.360107421875
          },
          {
            "ticks": 228503,
            "time": 244.12736867291665,
            "value": 0.3602294921875
          },
          {
            "ticks": 228513,
            "time": 244.13805244374998,
            "value": 0.3603515625
          },
          {
            "ticks": 228525,
            "time": 244.15087296874998,
            "value": 0.3604736328125
          },
          {
            "ticks": 228535,
            "time": 244.16155673958332,
            "value": 0.360595703125
          },
          {
            "ticks": 228546,
            "time": 244.17330888749999,
            "value": 0.3607177734375
          },
          {
            "ticks": 228557,
            "time": 244.18506103541665,
            "value": 0.36083984375
          },
          {
            "ticks": 228568,
            "time": 244.19681318333332,
            "value": 0.3609619140625
          },
          {
            "ticks": 228578,
            "time": 244.20749695416666,
            "value": 0.361083984375
          },
          {
            "ticks": 228590,
            "time": 244.22031747916665,
            "value": 0.3612060546875
          },
          {
            "ticks": 228600,
            "time": 244.23100125,
            "value": 0.361328125
          },
          {
            "ticks": 228611,
            "time": 244.24275339791666,
            "value": 0.3614501953125
          },
          {
            "ticks": 228622,
            "time": 244.25450554583333,
            "value": 0.361572265625
          },
          {
            "ticks": 228633,
            "time": 244.26625769375,
            "value": 0.3616943359375
          },
          {
            "ticks": 228643,
            "time": 244.27694146458333,
            "value": 0.36181640625
          },
          {
            "ticks": 228655,
            "time": 244.2897619895833,
            "value": 0.3619384765625
          },
          {
            "ticks": 228665,
            "time": 244.30044576041666,
            "value": 0.362060546875
          },
          {
            "ticks": 228676,
            "time": 244.31219790833333,
            "value": 0.3621826171875
          },
          {
            "ticks": 228687,
            "time": 244.32395005624997,
            "value": 0.3623046875
          },
          {
            "ticks": 228697,
            "time": 244.33463382708334,
            "value": 0.3624267578125
          },
          {
            "ticks": 228709,
            "time": 244.3474543520833,
            "value": 0.362548828125
          },
          {
            "ticks": 228719,
            "time": 244.35813812291664,
            "value": 0.3626708984375
          },
          {
            "ticks": 228730,
            "time": 244.3698902708333,
            "value": 0.36279296875
          },
          {
            "ticks": 228741,
            "time": 244.38164241874998,
            "value": 0.3629150390625
          },
          {
            "ticks": 228752,
            "time": 244.39339456666664,
            "value": 0.363037109375
          },
          {
            "ticks": 228762,
            "time": 244.40407833749998,
            "value": 0.3631591796875
          },
          {
            "ticks": 228762,
            "time": 244.40407833749998,
            "value": 0.36328125
          },
          {
            "ticks": 228770,
            "time": 244.41262535416666,
            "value": 0.4010009765625
          },
          {
            "ticks": 228778,
            "time": 244.42117237083332,
            "value": 0.438720703125
          },
          {
            "ticks": 228785,
            "time": 244.42865101041667,
            "value": 0.4765625
          },
          {
            "ticks": 228791,
            "time": 244.43506127291667,
            "value": 0.48779296875
          },
          {
            "ticks": 228798,
            "time": 244.4425399125,
            "value": 0.5
          },
          {
            "ticks": 228805,
            "time": 244.45001855208332,
            "value": 0.4000244140625
          },
          {
            "ticks": 228813,
            "time": 244.45856556875,
            "value": 0.300048828125
          },
          {
            "ticks": 228820,
            "time": 244.4660442083333,
            "value": 0.2000732421875
          },
          {
            "ticks": 228828,
            "time": 244.474591225,
            "value": 0.10009765625
          },
          {
            "ticks": 228835,
            "time": 244.4820698645833,
            "value": 0
          },
          {
            "ticks": 228858,
            "time": 244.5066425375,
            "value": -0.0001220703125
          },
          {
            "ticks": 228869,
            "time": 244.51839468541664,
            "value": -0.000244140625
          },
          {
            "ticks": 228881,
            "time": 244.53121521041666,
            "value": -0.0003662109375
          },
          {
            "ticks": 228892,
            "time": 244.54296735833333,
            "value": -0.00048828125
          },
          {
            "ticks": 228904,
            "time": 244.55578788333332,
            "value": -0.0006103515625
          },
          {
            "ticks": 228915,
            "time": 244.56754003125,
            "value": -0.000732421875
          },
          {
            "ticks": 228926,
            "time": 244.57929217916666,
            "value": -0.0008544921875
          },
          {
            "ticks": 228938,
            "time": 244.59211270416665,
            "value": -0.0009765625
          },
          {
            "ticks": 228949,
            "time": 244.60386485208332,
            "value": -0.0010986328125
          },
          {
            "ticks": 228961,
            "time": 244.61668537708334,
            "value": -0.001220703125
          },
          {
            "ticks": 228972,
            "time": 244.62843752499998,
            "value": -0.0013427734375
          },
          {
            "ticks": 228983,
            "time": 244.64018967291665,
            "value": -0.00146484375
          },
          {
            "ticks": 228995,
            "time": 244.65301019791667,
            "value": -0.0015869140625
          },
          {
            "ticks": 229006,
            "time": 244.66476234583334,
            "value": -0.001708984375
          },
          {
            "ticks": 229018,
            "time": 244.67758287083333,
            "value": -0.0018310546875
          },
          {
            "ticks": 229029,
            "time": 244.68933501875,
            "value": -0.001953125
          },
          {
            "ticks": 229041,
            "time": 244.70215554374997,
            "value": -0.0020751953125
          },
          {
            "ticks": 229052,
            "time": 244.71390769166666,
            "value": -0.002197265625
          },
          {
            "ticks": 229063,
            "time": 244.72565983958333,
            "value": -0.0023193359375
          },
          {
            "ticks": 229075,
            "time": 244.7384803645833,
            "value": -0.00244140625
          },
          {
            "ticks": 229086,
            "time": 244.7502325125,
            "value": -0.0025634765625
          },
          {
            "ticks": 229098,
            "time": 244.7630530375,
            "value": -0.002685546875
          },
          {
            "ticks": 229109,
            "time": 244.77480518541665,
            "value": -0.0028076171875
          },
          {
            "ticks": 229121,
            "time": 244.78762571041665,
            "value": -0.0029296875
          },
          {
            "ticks": 229132,
            "time": 244.79937785833332,
            "value": -0.0030517578125
          },
          {
            "ticks": 229143,
            "time": 244.81113000625,
            "value": -0.003173828125
          },
          {
            "ticks": 229155,
            "time": 244.82395053124998,
            "value": -0.0032958984375
          },
          {
            "ticks": 229166,
            "time": 244.83570267916664,
            "value": -0.00341796875
          },
          {
            "ticks": 229178,
            "time": 244.84852320416664,
            "value": -0.0035400390625
          },
          {
            "ticks": 229189,
            "time": 244.8602753520833,
            "value": -0.003662109375
          },
          {
            "ticks": 229200,
            "time": 244.87202749999997,
            "value": -0.00390625
          },
          {
            "ticks": 229224,
            "time": 244.89766855,
            "value": -0.0040283203125
          },
          {
            "ticks": 229235,
            "time": 244.90942069791666,
            "value": -0.004150390625
          },
          {
            "ticks": 229246,
            "time": 244.92117284583333,
            "value": -0.0042724609375
          },
          {
            "ticks": 229258,
            "time": 244.93399337083332,
            "value": -0.00439453125
          },
          {
            "ticks": 229269,
            "time": 244.94574551875,
            "value": -0.0045166015625
          },
          {
            "ticks": 229281,
            "time": 244.95856604374998,
            "value": -0.004638671875
          },
          {
            "ticks": 229292,
            "time": 244.97031819166665,
            "value": -0.0047607421875
          },
          {
            "ticks": 229303,
            "time": 244.98207033958332,
            "value": -0.0048828125
          },
          {
            "ticks": 229315,
            "time": 244.9948908645833,
            "value": -0.0050048828125
          },
          {
            "ticks": 229326,
            "time": 245.00664301249998,
            "value": -0.005126953125
          },
          {
            "ticks": 229338,
            "time": 245.0194635375,
            "value": -0.0052490234375
          },
          {
            "ticks": 229349,
            "time": 245.03121568541664,
            "value": -0.00537109375
          },
          {
            "ticks": 229360,
            "time": 245.0429678333333,
            "value": -0.0054931640625
          },
          {
            "ticks": 229372,
            "time": 245.05578835833333,
            "value": -0.005615234375
          },
          {
            "ticks": 229383,
            "time": 245.06754050625,
            "value": -0.0057373046875
          },
          {
            "ticks": 229395,
            "time": 245.08036103125,
            "value": -0.005859375
          },
          {
            "ticks": 229406,
            "time": 245.09211317916666,
            "value": -0.0059814453125
          },
          {
            "ticks": 229418,
            "time": 245.10493370416665,
            "value": -0.006103515625
          },
          {
            "ticks": 229429,
            "time": 245.11668585208332,
            "value": -0.0062255859375
          },
          {
            "ticks": 229440,
            "time": 245.128438,
            "value": -0.00634765625
          },
          {
            "ticks": 229452,
            "time": 245.14125852499998,
            "value": -0.0064697265625
          },
          {
            "ticks": 229463,
            "time": 245.15301067291665,
            "value": -0.006591796875
          },
          {
            "ticks": 229475,
            "time": 245.16583119791667,
            "value": -0.0067138671875
          },
          {
            "ticks": 229486,
            "time": 245.17758334583334,
            "value": -0.0068359375
          },
          {
            "ticks": 229497,
            "time": 245.18933549374998,
            "value": -0.0069580078125
          },
          {
            "ticks": 229509,
            "time": 245.20215601875,
            "value": -0.007080078125
          },
          {
            "ticks": 229520,
            "time": 245.21390816666667,
            "value": -0.0072021484375
          },
          {
            "ticks": 229532,
            "time": 245.22672869166666,
            "value": -0.00732421875
          },
          {
            "ticks": 229543,
            "time": 245.23848083958333,
            "value": -0.0074462890625
          },
          {
            "ticks": 229555,
            "time": 245.2513013645833,
            "value": -0.007568359375
          },
          {
            "ticks": 229566,
            "time": 245.2630535125,
            "value": -0.0078125
          },
          {
            "ticks": 229589,
            "time": 245.28762618541663,
            "value": -0.0079345703125
          },
          {
            "ticks": 229600,
            "time": 245.29937833333332,
            "value": -0.008056640625
          },
          {
            "ticks": 229612,
            "time": 245.31219885833332,
            "value": -0.0081787109375
          },
          {
            "ticks": 229623,
            "time": 245.32395100624998,
            "value": -0.00830078125
          },
          {
            "ticks": 229635,
            "time": 245.33677153124998,
            "value": -0.0084228515625
          },
          {
            "ticks": 229646,
            "time": 245.34852367916665,
            "value": -0.008544921875
          },
          {
            "ticks": 229657,
            "time": 245.3602758270833,
            "value": -0.0086669921875
          },
          {
            "ticks": 229669,
            "time": 245.3730963520833,
            "value": -0.0087890625
          },
          {
            "ticks": 229680,
            "time": 245.38484849999998,
            "value": -0.0089111328125
          },
          {
            "ticks": 229692,
            "time": 245.39766902499997,
            "value": -0.009033203125
          },
          {
            "ticks": 229703,
            "time": 245.40942117291664,
            "value": -0.0091552734375
          },
          {
            "ticks": 229714,
            "time": 245.4211733208333,
            "value": -0.00927734375
          },
          {
            "ticks": 229726,
            "time": 245.43399384583333,
            "value": -0.0093994140625
          },
          {
            "ticks": 229737,
            "time": 245.44574599374997,
            "value": -0.009521484375
          },
          {
            "ticks": 229749,
            "time": 245.45856651875,
            "value": -0.0096435546875
          },
          {
            "ticks": 229760,
            "time": 245.47031866666666,
            "value": -0.009765625
          },
          {
            "ticks": 229772,
            "time": 245.48313919166665,
            "value": -0.0098876953125
          },
          {
            "ticks": 229783,
            "time": 245.49489133958332,
            "value": -0.010009765625
          },
          {
            "ticks": 229794,
            "time": 245.50664348749999,
            "value": -0.0101318359375
          },
          {
            "ticks": 229806,
            "time": 245.51946401249998,
            "value": -0.01025390625
          },
          {
            "ticks": 229817,
            "time": 245.53121616041665,
            "value": -0.0103759765625
          },
          {
            "ticks": 229829,
            "time": 245.54403668541664,
            "value": -0.010498046875
          },
          {
            "ticks": 229840,
            "time": 245.5557888333333,
            "value": -0.0106201171875
          },
          {
            "ticks": 229852,
            "time": 245.56860935833333,
            "value": -0.0107421875
          },
          {
            "ticks": 229863,
            "time": 245.58036150625,
            "value": -0.0108642578125
          },
          {
            "ticks": 229874,
            "time": 245.59211365416664,
            "value": -0.010986328125
          },
          {
            "ticks": 229886,
            "time": 245.60493417916666,
            "value": -0.0111083984375
          },
          {
            "ticks": 229897,
            "time": 245.61668632708333,
            "value": -0.01123046875
          },
          {
            "ticks": 229909,
            "time": 245.62950685208332,
            "value": -0.0113525390625
          },
          {
            "ticks": 229920,
            "time": 245.641259,
            "value": -0.011474609375
          },
          {
            "ticks": 229932,
            "time": 245.654079525,
            "value": -0.01171875
          },
          {
            "ticks": 229954,
            "time": 245.67758382083332,
            "value": -0.0118408203125
          },
          {
            "ticks": 229966,
            "time": 245.69040434583334,
            "value": -0.011962890625
          },
          {
            "ticks": 229977,
            "time": 245.70215649374998,
            "value": -0.0120849609375
          },
          {
            "ticks": 229989,
            "time": 245.71497701875,
            "value": -0.01220703125
          },
          {
            "ticks": 230000,
            "time": 245.72672916666667,
            "value": -0.0123291015625
          },
          {
            "ticks": 230011,
            "time": 245.73848131458334,
            "value": -0.012451171875
          },
          {
            "ticks": 230023,
            "time": 245.75130183958333,
            "value": -0.0125732421875
          },
          {
            "ticks": 230034,
            "time": 245.7630539875,
            "value": -0.0126953125
          },
          {
            "ticks": 230046,
            "time": 245.77587451249997,
            "value": -0.0128173828125
          },
          {
            "ticks": 230057,
            "time": 245.78762666041666,
            "value": -0.012939453125
          },
          {
            "ticks": 230069,
            "time": 245.80044718541663,
            "value": -0.0130615234375
          },
          {
            "ticks": 230080,
            "time": 245.8121993333333,
            "value": -0.01318359375
          },
          {
            "ticks": 230091,
            "time": 245.82395148125,
            "value": -0.0133056640625
          },
          {
            "ticks": 230103,
            "time": 245.83677200625,
            "value": -0.013427734375
          },
          {
            "ticks": 230114,
            "time": 245.84852415416663,
            "value": -0.0135498046875
          },
          {
            "ticks": 230126,
            "time": 245.86134467916665,
            "value": -0.013671875
          },
          {
            "ticks": 230137,
            "time": 245.87309682708332,
            "value": -0.0137939453125
          },
          {
            "ticks": 230149,
            "time": 245.8859173520833,
            "value": -0.013916015625
          },
          {
            "ticks": 230160,
            "time": 245.89766949999998,
            "value": -0.0140380859375
          },
          {
            "ticks": 230171,
            "time": 245.90942164791664,
            "value": -0.01416015625
          },
          {
            "ticks": 230183,
            "time": 245.92224217291664,
            "value": -0.0142822265625
          },
          {
            "ticks": 230194,
            "time": 245.9339943208333,
            "value": -0.014404296875
          },
          {
            "ticks": 230206,
            "time": 245.94681484583333,
            "value": -0.0145263671875
          },
          {
            "ticks": 230217,
            "time": 245.95856699374997,
            "value": -0.0146484375
          },
          {
            "ticks": 230228,
            "time": 245.97031914166664,
            "value": -0.0147705078125
          },
          {
            "ticks": 230240,
            "time": 245.98313966666666,
            "value": -0.014892578125
          },
          {
            "ticks": 230251,
            "time": 245.99489181458333,
            "value": -0.0150146484375
          },
          {
            "ticks": 230263,
            "time": 246.00771233958332,
            "value": -0.01513671875
          },
          {
            "ticks": 230274,
            "time": 246.0194644875,
            "value": -0.0152587890625
          },
          {
            "ticks": 230286,
            "time": 246.03228501249998,
            "value": -0.015380859375
          },
          {
            "ticks": 230297,
            "time": 246.04403716041665,
            "value": -0.015625
          },
          {
            "ticks": 230320,
            "time": 246.0686098333333,
            "value": -0.0157470703125
          },
          {
            "ticks": 230331,
            "time": 246.08036198124998,
            "value": -0.015869140625
          },
          {
            "ticks": 230343,
            "time": 246.09318250625,
            "value": -0.0159912109375
          },
          {
            "ticks": 230354,
            "time": 246.10493465416664,
            "value": -0.01611328125
          },
          {
            "ticks": 230366,
            "time": 246.11775517916666,
            "value": -0.0162353515625
          },
          {
            "ticks": 230377,
            "time": 246.12950732708333,
            "value": -0.016357421875
          },
          {
            "ticks": 230388,
            "time": 246.141259475,
            "value": -0.0164794921875
          },
          {
            "ticks": 230400,
            "time": 246.15408,
            "value": -0.0166015625
          },
          {
            "ticks": 230411,
            "time": 246.16583214791666,
            "value": -0.0167236328125
          },
          {
            "ticks": 230423,
            "time": 246.17865267291666,
            "value": -0.016845703125
          },
          {
            "ticks": 230434,
            "time": 246.19040482083332,
            "value": -0.0169677734375
          },
          {
            "ticks": 230445,
            "time": 246.20215696875,
            "value": -0.01708984375
          },
          {
            "ticks": 230457,
            "time": 246.21497749374998,
            "value": -0.0172119140625
          },
          {
            "ticks": 230468,
            "time": 246.22672964166665,
            "value": -0.017333984375
          },
          {
            "ticks": 230480,
            "time": 246.23955016666667,
            "value": -0.0174560546875
          },
          {
            "ticks": 230491,
            "time": 246.25130231458334,
            "value": -0.017578125
          },
          {
            "ticks": 230503,
            "time": 246.2641228395833,
            "value": -0.0177001953125
          },
          {
            "ticks": 230514,
            "time": 246.2758749875,
            "value": -0.017822265625
          },
          {
            "ticks": 230525,
            "time": 246.28762713541667,
            "value": -0.0179443359375
          },
          {
            "ticks": 230537,
            "time": 246.30044766041664,
            "value": -0.01806640625
          },
          {
            "ticks": 230548,
            "time": 246.31219980833333,
            "value": -0.0181884765625
          },
          {
            "ticks": 230560,
            "time": 246.3250203333333,
            "value": -0.018310546875
          },
          {
            "ticks": 230571,
            "time": 246.33677248125,
            "value": -0.0184326171875
          },
          {
            "ticks": 230583,
            "time": 246.34959300625,
            "value": -0.0185546875
          },
          {
            "ticks": 230594,
            "time": 246.36134515416663,
            "value": -0.0186767578125
          },
          {
            "ticks": 230605,
            "time": 246.37309730208332,
            "value": -0.018798828125
          },
          {
            "ticks": 230617,
            "time": 246.38591782708332,
            "value": -0.0189208984375
          },
          {
            "ticks": 230628,
            "time": 246.39766997499999,
            "value": -0.01904296875
          },
          {
            "ticks": 230640,
            "time": 246.41049049999998,
            "value": -0.0191650390625
          },
          {
            "ticks": 230651,
            "time": 246.42224264791665,
            "value": -0.019287109375
          },
          {
            "ticks": 230663,
            "time": 246.43506317291664,
            "value": -0.01953125
          },
          {
            "ticks": 230670,
            "time": 246.4425418125,
            "value": 0.1082763671875
          },
          {
            "ticks": 230678,
            "time": 246.45108882916665,
            "value": 0.236083984375
          },
          {
            "ticks": 230685,
            "time": 246.45856746874998,
            "value": 0.3638916015625
          },
          {
            "ticks": 230690,
            "time": 246.46390935416667,
            "value": 0.44921875
          },
          {
            "ticks": 230696,
            "time": 246.47031961666664,
            "value": 0.4622802734375
          },
          {
            "ticks": 230703,
            "time": 246.47779825625,
            "value": 0.4765625
          },
          {
            "ticks": 230710,
            "time": 246.48527689583332,
            "value": 0.489501953125
          },
          {
            "ticks": 230718,
            "time": 246.4938239125,
            "value": 0.5025634765625
          },
          {
            "ticks": 230725,
            "time": 246.5013025520833,
            "value": 0.515625
          },
          {
            "ticks": 230731,
            "time": 246.50771281458333,
            "value": 0.2681884765625
          },
          {
            "ticks": 230738,
            "time": 246.51519145416665,
            "value": 0
          },
          {
            "ticks": 230745,
            "time": 246.52267009374998,
            "value": 0.0003662109375
          },
          {
            "ticks": 230753,
            "time": 246.53121711041663,
            "value": 0.0008544921875
          },
          {
            "ticks": 230760,
            "time": 246.53869575,
            "value": 0.0013427734375
          },
          {
            "ticks": 230768,
            "time": 246.54724276666664,
            "value": 0.0018310546875
          },
          {
            "ticks": 230775,
            "time": 246.55472140625,
            "value": 0.0023193359375
          },
          {
            "ticks": 230783,
            "time": 246.56326842291665,
            "value": 0.0028076171875
          },
          {
            "ticks": 230790,
            "time": 246.57074706249998,
            "value": 0.0032958984375
          },
          {
            "ticks": 230798,
            "time": 246.57929407916666,
            "value": 0.0037841796875
          },
          {
            "ticks": 230805,
            "time": 246.58677271874998,
            "value": 0.0042724609375
          },
          {
            "ticks": 230813,
            "time": 246.59531973541664,
            "value": 0.0047607421875
          },
          {
            "ticks": 230820,
            "time": 246.602798375,
            "value": 0.0052490234375
          },
          {
            "ticks": 230828,
            "time": 246.61134539166665,
            "value": 0.005615234375
          },
          {
            "ticks": 230835,
            "time": 246.61882403125,
            "value": 0.006103515625
          },
          {
            "ticks": 230843,
            "time": 246.62737104791665,
            "value": 0.006591796875
          },
          {
            "ticks": 230850,
            "time": 246.63484968749998,
            "value": 0.007080078125
          },
          {
            "ticks": 230858,
            "time": 246.64339670416663,
            "value": 0.007568359375
          },
          {
            "ticks": 230865,
            "time": 246.65087534375,
            "value": 0.008056640625
          },
          {
            "ticks": 230873,
            "time": 246.65942236041664,
            "value": 0.008544921875
          },
          {
            "ticks": 230880,
            "time": 246.666901,
            "value": 0.009033203125
          },
          {
            "ticks": 230888,
            "time": 246.67544801666665,
            "value": 0.009521484375
          },
          {
            "ticks": 230895,
            "time": 246.68292665624998,
            "value": 0.010009765625
          },
          {
            "ticks": 230903,
            "time": 246.69147367291666,
            "value": 0.010498046875
          },
          {
            "ticks": 230910,
            "time": 246.69895231249998,
            "value": 0.0108642578125
          },
          {
            "ticks": 230918,
            "time": 246.70749932916664,
            "value": 0.0113525390625
          },
          {
            "ticks": 230925,
            "time": 246.71497796875,
            "value": 0.0118408203125
          },
          {
            "ticks": 230933,
            "time": 246.72352498541665,
            "value": 0.0123291015625
          },
          {
            "ticks": 230940,
            "time": 246.731003625,
            "value": 0.0128173828125
          },
          {
            "ticks": 230948,
            "time": 246.73955064166665,
            "value": 0.0133056640625
          },
          {
            "ticks": 230955,
            "time": 246.74702928124998,
            "value": 0.0137939453125
          },
          {
            "ticks": 230963,
            "time": 246.75557629791663,
            "value": 0.0142822265625
          },
          {
            "ticks": 230970,
            "time": 246.7630549375,
            "value": 0.0147705078125
          },
          {
            "ticks": 230978,
            "time": 246.77160195416664,
            "value": 0.0152587890625
          },
          {
            "ticks": 230985,
            "time": 246.77908059375,
            "value": 0.0157470703125
          },
          {
            "ticks": 230993,
            "time": 246.78762761041665,
            "value": 0.0162353515625
          },
          {
            "ticks": 231000,
            "time": 246.79510624999998,
            "value": 0.0166015625
          },
          {
            "ticks": 231008,
            "time": 246.80365326666666,
            "value": 0.01708984375
          },
          {
            "ticks": 231015,
            "time": 246.81113190624998,
            "value": 0.017578125
          },
          {
            "ticks": 231023,
            "time": 246.81967892291664,
            "value": 0.01806640625
          },
          {
            "ticks": 231030,
            "time": 246.8271575625,
            "value": 0.0185546875
          },
          {
            "ticks": 231038,
            "time": 246.83570457916665,
            "value": 0.01904296875
          },
          {
            "ticks": 231045,
            "time": 246.84318321875,
            "value": 0.01953125
          },
          {
            "ticks": 231053,
            "time": 246.85173023541665,
            "value": 0.02001953125
          },
          {
            "ticks": 231060,
            "time": 246.85920887499998,
            "value": 0.0205078125
          },
          {
            "ticks": 231068,
            "time": 246.86775589166663,
            "value": 0.02099609375
          },
          {
            "ticks": 231075,
            "time": 246.87523453125,
            "value": 0.021484375
          },
          {
            "ticks": 231083,
            "time": 246.88378154791664,
            "value": 0.0218505859375
          },
          {
            "ticks": 231090,
            "time": 246.8912601875,
            "value": 0.0223388671875
          },
          {
            "ticks": 231098,
            "time": 246.89980720416665,
            "value": 0.0228271484375
          },
          {
            "ticks": 231105,
            "time": 246.90728584374997,
            "value": 0.0233154296875
          },
          {
            "ticks": 231113,
            "time": 246.91583286041666,
            "value": 0.0238037109375
          },
          {
            "ticks": 231120,
            "time": 246.92331149999998,
            "value": 0.0242919921875
          },
          {
            "ticks": 231128,
            "time": 246.93185851666664,
            "value": 0.0247802734375
          },
          {
            "ticks": 231135,
            "time": 246.93933715625,
            "value": 0.0252685546875
          },
          {
            "ticks": 231143,
            "time": 246.94788417291664,
            "value": 0.0257568359375
          },
          {
            "ticks": 231150,
            "time": 246.9553628125,
            "value": 0.0262451171875
          },
          {
            "ticks": 231158,
            "time": 246.96390982916665,
            "value": 0.0267333984375
          },
          {
            "ticks": 231165,
            "time": 246.97138846874998,
            "value": 0.0272216796875
          },
          {
            "ticks": 231173,
            "time": 246.97993548541663,
            "value": 0.027587890625
          },
          {
            "ticks": 231180,
            "time": 246.987414125,
            "value": 0.028076171875
          },
          {
            "ticks": 231188,
            "time": 246.99596114166664,
            "value": 0.028564453125
          },
          {
            "ticks": 231195,
            "time": 247.00343978125,
            "value": 0.029052734375
          },
          {
            "ticks": 231203,
            "time": 247.01198679791665,
            "value": 0.029541015625
          },
          {
            "ticks": 231210,
            "time": 247.01946543749997,
            "value": 0.030029296875
          },
          {
            "ticks": 231218,
            "time": 247.02801245416666,
            "value": 0.030517578125
          },
          {
            "ticks": 231225,
            "time": 247.03549109374998,
            "value": 0.031005859375
          },
          {
            "ticks": 231233,
            "time": 247.04403811041664,
            "value": 0.031494140625
          },
          {
            "ticks": 231240,
            "time": 247.05151675,
            "value": 0.031982421875
          },
          {
            "ticks": 231248,
            "time": 247.06006376666664,
            "value": 0.032470703125
          },
          {
            "ticks": 231255,
            "time": 247.06754240625,
            "value": 0.0328369140625
          },
          {
            "ticks": 231263,
            "time": 247.07608942291665,
            "value": 0.0333251953125
          },
          {
            "ticks": 231270,
            "time": 247.08356806249998,
            "value": 0.0338134765625
          },
          {
            "ticks": 231278,
            "time": 247.09211507916663,
            "value": 0.0343017578125
          },
          {
            "ticks": 231285,
            "time": 247.09959371875,
            "value": 0.0347900390625
          },
          {
            "ticks": 231293,
            "time": 247.10814073541664,
            "value": 0.0352783203125
          },
          {
            "ticks": 231300,
            "time": 247.115619375,
            "value": 0.0357666015625
          },
          {
            "ticks": 231308,
            "time": 247.12416639166665,
            "value": 0.0362548828125
          },
          {
            "ticks": 231315,
            "time": 247.13164503124997,
            "value": 0.0367431640625
          },
          {
            "ticks": 231323,
            "time": 247.14019204791666,
            "value": 0.0372314453125
          },
          {
            "ticks": 231330,
            "time": 247.14767068749998,
            "value": 0.0377197265625
          },
          {
            "ticks": 231338,
            "time": 247.15621770416664,
            "value": 0.0380859375
          },
          {
            "ticks": 231345,
            "time": 247.16369634375,
            "value": 0.03857421875
          },
          {
            "ticks": 231353,
            "time": 247.17224336041664,
            "value": 0.0390625
          },
          {
            "ticks": 231360,
            "time": 247.179722,
            "value": 0.03955078125
          },
          {
            "ticks": 231368,
            "time": 247.18826901666665,
            "value": 0.0400390625
          },
          {
            "ticks": 231375,
            "time": 247.19574765624998,
            "value": 0.04052734375
          },
          {
            "ticks": 231383,
            "time": 247.20429467291663,
            "value": 0.041015625
          },
          {
            "ticks": 231390,
            "time": 247.2117733125,
            "value": 0.04150390625
          },
          {
            "ticks": 231398,
            "time": 247.22032032916664,
            "value": 0.0419921875
          },
          {
            "ticks": 231405,
            "time": 247.22779896875,
            "value": 0.04248046875
          },
          {
            "ticks": 231413,
            "time": 247.23634598541665,
            "value": 0.04296875
          },
          {
            "ticks": 231420,
            "time": 247.24382462499997,
            "value": 0.04345703125
          },
          {
            "ticks": 231428,
            "time": 247.25237164166666,
            "value": 0.0438232421875
          },
          {
            "ticks": 231435,
            "time": 247.25985028124998,
            "value": 0.0443115234375
          },
          {
            "ticks": 231443,
            "time": 247.26839729791664,
            "value": 0.0447998046875
          },
          {
            "ticks": 231450,
            "time": 247.2758759375,
            "value": 0.0452880859375
          },
          {
            "ticks": 231458,
            "time": 247.28442295416664,
            "value": 0.0457763671875
          },
          {
            "ticks": 231465,
            "time": 247.29190159375,
            "value": 0.0462646484375
          },
          {
            "ticks": 231473,
            "time": 247.30044861041665,
            "value": 0.0467529296875
          },
          {
            "ticks": 231480,
            "time": 247.30792724999998,
            "value": 0.0472412109375
          },
          {
            "ticks": 231488,
            "time": 247.31647426666663,
            "value": 0.0477294921875
          },
          {
            "ticks": 231495,
            "time": 247.32395290624999,
            "value": 0.0482177734375
          },
          {
            "ticks": 231503,
            "time": 247.33249992291664,
            "value": 0.0487060546875
          },
          {
            "ticks": 231510,
            "time": 247.3399785625,
            "value": 0.049072265625
          },
          {
            "ticks": 231518,
            "time": 247.34852557916665,
            "value": 0.049560546875
          },
          {
            "ticks": 231525,
            "time": 247.35600421874997,
            "value": 0.050048828125
          },
          {
            "ticks": 231533,
            "time": 247.36455123541666,
            "value": 0.050537109375
          },
          {
            "ticks": 231540,
            "time": 247.37202987499998,
            "value": 0.051025390625
          },
          {
            "ticks": 231548,
            "time": 247.38057689166664,
            "value": 0.051513671875
          },
          {
            "ticks": 231555,
            "time": 247.38805553125,
            "value": 0.052001953125
          },
          {
            "ticks": 231563,
            "time": 247.39660254791664,
            "value": 0.052490234375
          },
          {
            "ticks": 231570,
            "time": 247.4040811875,
            "value": 0.052978515625
          },
          {
            "ticks": 231578,
            "time": 247.41262820416665,
            "value": 0.053466796875
          },
          {
            "ticks": 231585,
            "time": 247.42010684374998,
            "value": 0.053955078125
          },
          {
            "ticks": 231593,
            "time": 247.42865386041663,
            "value": 0.054443359375
          },
          {
            "ticks": 231600,
            "time": 247.43613249999999,
            "value": 0.0548095703125
          },
          {
            "ticks": 231608,
            "time": 247.44467951666664,
            "value": 0.0552978515625
          },
          {
            "ticks": 231615,
            "time": 247.45215815625,
            "value": 0.0557861328125
          },
          {
            "ticks": 231623,
            "time": 247.46070517291665,
            "value": 0.0562744140625
          },
          {
            "ticks": 231630,
            "time": 247.46818381249997,
            "value": 0.0567626953125
          },
          {
            "ticks": 231638,
            "time": 247.47673082916666,
            "value": 0.0572509765625
          },
          {
            "ticks": 231645,
            "time": 247.48420946874998,
            "value": 0.0577392578125
          },
          {
            "ticks": 231653,
            "time": 247.49275648541663,
            "value": 0.0582275390625
          },
          {
            "ticks": 231660,
            "time": 247.500235125,
            "value": 0.0587158203125
          },
          {
            "ticks": 231668,
            "time": 247.50878214166664,
            "value": 0.0592041015625
          },
          {
            "ticks": 231675,
            "time": 247.51626078125,
            "value": 0.0596923828125
          },
          {
            "ticks": 231683,
            "time": 247.52480779791665,
            "value": 0.06005859375
          },
          {
            "ticks": 231690,
            "time": 247.53228643749998,
            "value": 0.060546875
          },
          {
            "ticks": 231698,
            "time": 247.54083345416666,
            "value": 0.06103515625
          },
          {
            "ticks": 231705,
            "time": 247.54831209374998,
            "value": 0.0615234375
          },
          {
            "ticks": 231713,
            "time": 247.55685911041664,
            "value": 0.06201171875
          },
          {
            "ticks": 231720,
            "time": 247.56433775,
            "value": 0.0625
          },
          {
            "ticks": 231728,
            "time": 247.57288476666665,
            "value": 0.06298828125
          },
          {
            "ticks": 231735,
            "time": 247.58036340624997,
            "value": 0.0634765625
          },
          {
            "ticks": 231743,
            "time": 247.58891042291665,
            "value": 0.06396484375
          },
          {
            "ticks": 231750,
            "time": 247.59638906249998,
            "value": 0.064453125
          },
          {
            "ticks": 231758,
            "time": 247.60493607916663,
            "value": 0.06494140625
          },
          {
            "ticks": 231765,
            "time": 247.61241471875,
            "value": 0.0653076171875
          },
          {
            "ticks": 231773,
            "time": 247.62096173541664,
            "value": 0.0657958984375
          },
          {
            "ticks": 231780,
            "time": 247.628440375,
            "value": 0.0662841796875
          },
          {
            "ticks": 231788,
            "time": 247.63698739166665,
            "value": 0.0667724609375
          },
          {
            "ticks": 231795,
            "time": 247.64446603124998,
            "value": 0.0672607421875
          },
          {
            "ticks": 231803,
            "time": 247.65301304791666,
            "value": 0.0677490234375
          },
          {
            "ticks": 231810,
            "time": 247.66049168749998,
            "value": 0.0682373046875
          },
          {
            "ticks": 231818,
            "time": 247.66903870416664,
            "value": 0.0687255859375
          },
          {
            "ticks": 231825,
            "time": 247.67651734375,
            "value": 0.0692138671875
          },
          {
            "ticks": 231833,
            "time": 247.68506436041665,
            "value": 0.0697021484375
          },
          {
            "ticks": 231840,
            "time": 247.69254299999997,
            "value": 0.0701904296875
          },
          {
            "ticks": 231848,
            "time": 247.70109001666665,
            "value": 0.0706787109375
          },
          {
            "ticks": 231855,
            "time": 247.70856865624998,
            "value": 0.071044921875
          },
          {
            "ticks": 231863,
            "time": 247.71711567291663,
            "value": 0.071533203125
          },
          {
            "ticks": 231870,
            "time": 247.7245943125,
            "value": 0.072021484375
          },
          {
            "ticks": 231878,
            "time": 247.73314132916664,
            "value": 0.072509765625
          },
          {
            "ticks": 231885,
            "time": 247.74061996875,
            "value": 0.072998046875
          },
          {
            "ticks": 231893,
            "time": 247.74916698541665,
            "value": 0.073486328125
          },
          {
            "ticks": 231900,
            "time": 247.75664562499998,
            "value": 0.073974609375
          },
          {
            "ticks": 231908,
            "time": 247.76519264166666,
            "value": 0.074462890625
          },
          {
            "ticks": 231915,
            "time": 247.77267128124998,
            "value": 0.074951171875
          },
          {
            "ticks": 231923,
            "time": 247.78121829791664,
            "value": 0.075439453125
          },
          {
            "ticks": 231930,
            "time": 247.7886969375,
            "value": 0.075927734375
          },
          {
            "ticks": 231938,
            "time": 247.79724395416665,
            "value": 0.0762939453125
          },
          {
            "ticks": 231945,
            "time": 247.80472259375,
            "value": 0.0767822265625
          },
          {
            "ticks": 231953,
            "time": 247.81326961041665,
            "value": 0.0772705078125
          },
          {
            "ticks": 231960,
            "time": 247.82074824999998,
            "value": 0.0777587890625
          },
          {
            "ticks": 231968,
            "time": 247.82929526666663,
            "value": 0.0782470703125
          },
          {
            "ticks": 231975,
            "time": 247.83677390625,
            "value": 0.0787353515625
          },
          {
            "ticks": 231983,
            "time": 247.84532092291664,
            "value": 0.0792236328125
          },
          {
            "ticks": 231990,
            "time": 247.8527995625,
            "value": 0.0797119140625
          },
          {
            "ticks": 231998,
            "time": 247.86134657916665,
            "value": 0.0802001953125
          },
          {
            "ticks": 232005,
            "time": 247.86882521874998,
            "value": 0.0806884765625
          },
          {
            "ticks": 232013,
            "time": 247.87737223541666,
            "value": 0.0811767578125
          },
          {
            "ticks": 232020,
            "time": 247.88485087499998,
            "value": 0.0816650390625
          },
          {
            "ticks": 232028,
            "time": 247.89339789166664,
            "value": 0.08203125
          },
          {
            "ticks": 232035,
            "time": 247.90087653125,
            "value": 0.08251953125
          },
          {
            "ticks": 232043,
            "time": 247.90942354791665,
            "value": 0.0830078125
          },
          {
            "ticks": 232050,
            "time": 247.9169021875,
            "value": 0.08349609375
          },
          {
            "ticks": 232058,
            "time": 247.92544920416665,
            "value": 0.083984375
          },
          {
            "ticks": 232065,
            "time": 247.93292784374998,
            "value": 0.08447265625
          },
          {
            "ticks": 232073,
            "time": 247.94147486041663,
            "value": 0.0849609375
          },
          {
            "ticks": 232080,
            "time": 247.9489535,
            "value": 0.08544921875
          },
          {
            "ticks": 232088,
            "time": 247.95750051666664,
            "value": 0.0859375
          },
          {
            "ticks": 232095,
            "time": 247.96497915625,
            "value": 0.08642578125
          },
          {
            "ticks": 232103,
            "time": 247.97352617291665,
            "value": 0.0869140625
          },
          {
            "ticks": 232110,
            "time": 247.98100481249998,
            "value": 0.0872802734375
          },
          {
            "ticks": 232118,
            "time": 247.98955182916666,
            "value": 0.0877685546875
          },
          {
            "ticks": 232125,
            "time": 247.99703046874998,
            "value": 0.0882568359375
          },
          {
            "ticks": 232133,
            "time": 248.00557748541664,
            "value": 0.0887451171875
          },
          {
            "ticks": 232140,
            "time": 248.013056125,
            "value": 0.0892333984375
          },
          {
            "ticks": 232148,
            "time": 248.02160314166665,
            "value": 0.0897216796875
          },
          {
            "ticks": 232155,
            "time": 248.02908178125,
            "value": 0.0902099609375
          },
          {
            "ticks": 232163,
            "time": 248.03762879791665,
            "value": 0.0906982421875
          },
          {
            "ticks": 232170,
            "time": 248.04510743749998,
            "value": 0.0911865234375
          },
          {
            "ticks": 232178,
            "time": 248.05365445416663,
            "value": 0.0916748046875
          },
          {
            "ticks": 232185,
            "time": 248.06113309375,
            "value": 0.0921630859375
          },
          {
            "ticks": 232193,
            "time": 248.06968011041664,
            "value": 0.092529296875
          },
          {
            "ticks": 232200,
            "time": 248.07715875,
            "value": 0.093017578125
          },
          {
            "ticks": 232208,
            "time": 248.08570576666665,
            "value": 0.093505859375
          },
          {
            "ticks": 232215,
            "time": 248.09318440624997,
            "value": 0.093994140625
          },
          {
            "ticks": 232223,
            "time": 248.10173142291666,
            "value": 0.094482421875
          },
          {
            "ticks": 232230,
            "time": 248.10921006249998,
            "value": 0.094970703125
          },
          {
            "ticks": 232238,
            "time": 248.11775707916664,
            "value": 0.095458984375
          },
          {
            "ticks": 232245,
            "time": 248.12523571875,
            "value": 0.095947265625
          },
          {
            "ticks": 232253,
            "time": 248.13378273541664,
            "value": 0.096435546875
          },
          {
            "ticks": 232260,
            "time": 248.141261375,
            "value": 0.096923828125
          },
          {
            "ticks": 232268,
            "time": 248.14980839166665,
            "value": 0.097412109375
          },
          {
            "ticks": 232275,
            "time": 248.15728703124998,
            "value": 0.097900390625
          },
          {
            "ticks": 232283,
            "time": 248.16583404791663,
            "value": 0.0982666015625
          },
          {
            "ticks": 232290,
            "time": 248.1733126875,
            "value": 0.0987548828125
          },
          {
            "ticks": 232298,
            "time": 248.18185970416664,
            "value": 0.0992431640625
          },
          {
            "ticks": 232305,
            "time": 248.18933834375,
            "value": 0.0997314453125
          },
          {
            "ticks": 232313,
            "time": 248.19788536041665,
            "value": 0.1002197265625
          },
          {
            "ticks": 232320,
            "time": 248.20536399999997,
            "value": 0.1007080078125
          },
          {
            "ticks": 232328,
            "time": 248.21391101666666,
            "value": 0.1011962890625
          },
          {
            "ticks": 232335,
            "time": 248.22138965624998,
            "value": 0.1016845703125
          },
          {
            "ticks": 232343,
            "time": 248.22993667291664,
            "value": 0.1021728515625
          },
          {
            "ticks": 232350,
            "time": 248.2374153125,
            "value": 0.1026611328125
          },
          {
            "ticks": 232358,
            "time": 248.24596232916664,
            "value": 0.1031494140625
          },
          {
            "ticks": 232365,
            "time": 248.25344096875,
            "value": 0.103515625
          },
          {
            "ticks": 232373,
            "time": 248.26198798541665,
            "value": 0.10400390625
          },
          {
            "ticks": 232380,
            "time": 248.26946662499998,
            "value": 0.1044921875
          },
          {
            "ticks": 232388,
            "time": 248.27801364166663,
            "value": 0.10498046875
          },
          {
            "ticks": 232395,
            "time": 248.28549228125,
            "value": 0.10546875
          },
          {
            "ticks": 232403,
            "time": 248.29403929791664,
            "value": 0.10595703125
          },
          {
            "ticks": 232410,
            "time": 248.3015179375,
            "value": 0.1064453125
          },
          {
            "ticks": 232418,
            "time": 248.31006495416665,
            "value": 0.10693359375
          },
          {
            "ticks": 232425,
            "time": 248.31754359374997,
            "value": 0.107421875
          },
          {
            "ticks": 232433,
            "time": 248.32609061041666,
            "value": 0.10791015625
          },
          {
            "ticks": 232440,
            "time": 248.33356924999998,
            "value": 0.1083984375
          },
          {
            "ticks": 232448,
            "time": 248.34211626666664,
            "value": 0.10888671875
          },
          {
            "ticks": 232455,
            "time": 248.34959490625,
            "value": 0.1092529296875
          },
          {
            "ticks": 232463,
            "time": 248.35814192291664,
            "value": 0.1097412109375
          },
          {
            "ticks": 232470,
            "time": 248.3656205625,
            "value": 0.1102294921875
          },
          {
            "ticks": 232478,
            "time": 248.37416757916665,
            "value": 0.1107177734375
          },
          {
            "ticks": 232485,
            "time": 248.38164621874998,
            "value": 0.1112060546875
          },
          {
            "ticks": 232493,
            "time": 248.39019323541663,
            "value": 0.1116943359375
          },
          {
            "ticks": 232500,
            "time": 248.397671875,
            "value": 0.1121826171875
          },
          {
            "ticks": 232508,
            "time": 248.40621889166664,
            "value": 0.1126708984375
          },
          {
            "ticks": 232515,
            "time": 248.41369753125,
            "value": 0.1131591796875
          },
          {
            "ticks": 232523,
            "time": 248.42224454791665,
            "value": 0.1136474609375
          },
          {
            "ticks": 232530,
            "time": 248.42972318749997,
            "value": 0.1141357421875
          },
          {
            "ticks": 232538,
            "time": 248.43827020416666,
            "value": 0.114501953125
          },
          {
            "ticks": 232545,
            "time": 248.44574884374998,
            "value": 0.114990234375
          },
          {
            "ticks": 232553,
            "time": 248.45429586041664,
            "value": 0.115478515625
          },
          {
            "ticks": 232560,
            "time": 248.4617745,
            "value": 0.115966796875
          },
          {
            "ticks": 232568,
            "time": 248.47032151666664,
            "value": 0.116455078125
          },
          {
            "ticks": 232575,
            "time": 248.47780015625,
            "value": 0.116943359375
          },
          {
            "ticks": 232583,
            "time": 248.48634717291665,
            "value": 0.117431640625
          },
          {
            "ticks": 232590,
            "time": 248.49382581249998,
            "value": 0.117919921875
          },
          {
            "ticks": 232598,
            "time": 248.50237282916663,
            "value": 0.118408203125
          },
          {
            "ticks": 232605,
            "time": 248.50985146874999,
            "value": 0.118896484375
          },
          {
            "ticks": 232613,
            "time": 248.51839848541664,
            "value": 0.119384765625
          },
          {
            "ticks": 232620,
            "time": 248.525877125,
            "value": 0.119873046875
          },
          {
            "ticks": 232628,
            "time": 248.53442414166665,
            "value": 0.1202392578125
          },
          {
            "ticks": 232635,
            "time": 248.54190278124997,
            "value": 0.1207275390625
          },
          {
            "ticks": 232643,
            "time": 248.55044979791666,
            "value": 0.1212158203125
          },
          {
            "ticks": 232650,
            "time": 248.55792843749998,
            "value": 0.1217041015625
          },
          {
            "ticks": 232658,
            "time": 248.56647545416664,
            "value": 0.1221923828125
          },
          {
            "ticks": 232665,
            "time": 248.57395409375,
            "value": 0.1226806640625
          },
          {
            "ticks": 232673,
            "time": 248.58250111041664,
            "value": 0.1231689453125
          },
          {
            "ticks": 232680,
            "time": 248.58997975,
            "value": 0.1236572265625
          },
          {
            "ticks": 232688,
            "time": 248.59852676666665,
            "value": 0.1241455078125
          },
          {
            "ticks": 232695,
            "time": 248.60600540624998,
            "value": 0.1246337890625
          },
          {
            "ticks": 232703,
            "time": 248.61455242291663,
            "value": 0.1251220703125
          },
          {
            "ticks": 232710,
            "time": 248.62203106249999,
            "value": 0.12548828125
          },
          {
            "ticks": 232718,
            "time": 248.63057807916664,
            "value": 0.1259765625
          },
          {
            "ticks": 232725,
            "time": 248.63805671875,
            "value": 0.12646484375
          },
          {
            "ticks": 232733,
            "time": 248.64660373541665,
            "value": 0.126953125
          },
          {
            "ticks": 232740,
            "time": 248.65408237499997,
            "value": 0.12744140625
          },
          {
            "ticks": 232748,
            "time": 248.66262939166666,
            "value": 0.1279296875
          },
          {
            "ticks": 232755,
            "time": 248.67010803124998,
            "value": 0.12841796875
          },
          {
            "ticks": 232763,
            "time": 248.67865504791664,
            "value": 0.12890625
          },
          {
            "ticks": 232770,
            "time": 248.6861336875,
            "value": 0.12939453125
          },
          {
            "ticks": 232778,
            "time": 248.69468070416664,
            "value": 0.1298828125
          },
          {
            "ticks": 232785,
            "time": 248.70215934375,
            "value": 0.13037109375
          },
          {
            "ticks": 232793,
            "time": 248.71070636041665,
            "value": 0.1307373046875
          },
          {
            "ticks": 232800,
            "time": 248.71818499999998,
            "value": 0.1312255859375
          },
          {
            "ticks": 232808,
            "time": 248.72673201666663,
            "value": 0.1317138671875
          },
          {
            "ticks": 232815,
            "time": 248.73421065624999,
            "value": 0.1322021484375
          },
          {
            "ticks": 232823,
            "time": 248.74275767291664,
            "value": 0.1326904296875
          },
          {
            "ticks": 232830,
            "time": 248.7502363125,
            "value": 0.1331787109375
          },
          {
            "ticks": 232838,
            "time": 248.75878332916665,
            "value": 0.1336669921875
          },
          {
            "ticks": 232845,
            "time": 248.76626196874997,
            "value": 0.1341552734375
          },
          {
            "ticks": 232853,
            "time": 248.77480898541666,
            "value": 0.1346435546875
          },
          {
            "ticks": 232860,
            "time": 248.78228762499998,
            "value": 0.1351318359375
          },
          {
            "ticks": 232868,
            "time": 248.79083464166663,
            "value": 0.1356201171875
          },
          {
            "ticks": 232875,
            "time": 248.79831328125,
            "value": 0.1361083984375
          },
          {
            "ticks": 232883,
            "time": 248.80686029791664,
            "value": 0.136474609375
          },
          {
            "ticks": 232890,
            "time": 248.8143389375,
            "value": 0.136962890625
          },
          {
            "ticks": 232898,
            "time": 248.82288595416665,
            "value": 0.137451171875
          },
          {
            "ticks": 232905,
            "time": 248.83036459374998,
            "value": 0.137939453125
          },
          {
            "ticks": 232913,
            "time": 248.83891161041666,
            "value": 0.138427734375
          },
          {
            "ticks": 232920,
            "time": 248.84639024999998,
            "value": 0.138916015625
          },
          {
            "ticks": 232928,
            "time": 248.85493726666664,
            "value": 0.139404296875
          },
          {
            "ticks": 232935,
            "time": 248.86241590625,
            "value": 0.139892578125
          },
          {
            "ticks": 232943,
            "time": 248.87096292291665,
            "value": 0.140380859375
          },
          {
            "ticks": 232950,
            "time": 248.87844156249997,
            "value": 0.140869140625
          },
          {
            "ticks": 232958,
            "time": 248.88698857916665,
            "value": 0.141357421875
          },
          {
            "ticks": 232965,
            "time": 248.89446721874998,
            "value": 0.1417236328125
          },
          {
            "ticks": 232973,
            "time": 248.90301423541663,
            "value": 0.1422119140625
          },
          {
            "ticks": 232980,
            "time": 248.910492875,
            "value": 0.1427001953125
          },
          {
            "ticks": 232988,
            "time": 248.91903989166664,
            "value": 0.1431884765625
          },
          {
            "ticks": 232995,
            "time": 248.92651853125,
            "value": 0.1436767578125
          },
          {
            "ticks": 233003,
            "time": 248.93506554791665,
            "value": 0.1441650390625
          },
          {
            "ticks": 233010,
            "time": 248.94254418749998,
            "value": 0.1446533203125
          },
          {
            "ticks": 233018,
            "time": 248.95109120416666,
            "value": 0.1451416015625
          },
          {
            "ticks": 233025,
            "time": 248.95856984374998,
            "value": 0.1456298828125
          },
          {
            "ticks": 233033,
            "time": 248.96711686041664,
            "value": 0.1461181640625
          },
          {
            "ticks": 233040,
            "time": 248.9745955,
            "value": 0.1466064453125
          },
          {
            "ticks": 233048,
            "time": 248.98314251666665,
            "value": 0.1470947265625
          },
          {
            "ticks": 233055,
            "time": 248.99062115624997,
            "value": 0.1474609375
          },
          {
            "ticks": 233063,
            "time": 248.99916817291665,
            "value": 0.14794921875
          },
          {
            "ticks": 233070,
            "time": 249.00664681249998,
            "value": 0.1484375
          },
          {
            "ticks": 233078,
            "time": 249.01519382916663,
            "value": 0.14892578125
          },
          {
            "ticks": 233085,
            "time": 249.02267246875,
            "value": 0.1494140625
          },
          {
            "ticks": 233093,
            "time": 249.03121948541664,
            "value": 0.14990234375
          },
          {
            "ticks": 233100,
            "time": 249.038698125,
            "value": 0.150390625
          },
          {
            "ticks": 233108,
            "time": 249.04724514166665,
            "value": 0.15087890625
          },
          {
            "ticks": 233115,
            "time": 249.05472378124998,
            "value": 0.1513671875
          },
          {
            "ticks": 233123,
            "time": 249.06327079791666,
            "value": 0.15185546875
          },
          {
            "ticks": 233130,
            "time": 249.07074943749998,
            "value": 0.15234375
          },
          {
            "ticks": 233138,
            "time": 249.07929645416664,
            "value": 0.1527099609375
          },
          {
            "ticks": 233145,
            "time": 249.08677509375,
            "value": 0.1531982421875
          },
          {
            "ticks": 233153,
            "time": 249.09532211041665,
            "value": 0.1536865234375
          },
          {
            "ticks": 233160,
            "time": 249.10280075,
            "value": 0.1541748046875
          },
          {
            "ticks": 233168,
            "time": 249.11134776666665,
            "value": 0.1546630859375
          },
          {
            "ticks": 233175,
            "time": 249.11882640624998,
            "value": 0.1551513671875
          },
          {
            "ticks": 233183,
            "time": 249.12737342291663,
            "value": 0.1556396484375
          },
          {
            "ticks": 233190,
            "time": 249.1348520625,
            "value": 0.1561279296875
          },
          {
            "ticks": 233198,
            "time": 249.14339907916664,
            "value": 0.1566162109375
          },
          {
            "ticks": 233205,
            "time": 249.15087771875,
            "value": 0.1571044921875
          },
          {
            "ticks": 233213,
            "time": 249.15942473541665,
            "value": 0.1575927734375
          },
          {
            "ticks": 233220,
            "time": 249.16690337499998,
            "value": 0.157958984375
          },
          {
            "ticks": 233228,
            "time": 249.17545039166666,
            "value": 0.158447265625
          },
          {
            "ticks": 233235,
            "time": 249.18292903124998,
            "value": 0.158935546875
          },
          {
            "ticks": 233243,
            "time": 249.19147604791664,
            "value": 0.159423828125
          },
          {
            "ticks": 233250,
            "time": 249.1989546875,
            "value": 0.159912109375
          },
          {
            "ticks": 233258,
            "time": 249.20750170416665,
            "value": 0.160400390625
          },
          {
            "ticks": 233265,
            "time": 249.21498034375,
            "value": 0.160888671875
          },
          {
            "ticks": 233273,
            "time": 249.22352736041665,
            "value": 0.161376953125
          },
          {
            "ticks": 233280,
            "time": 249.23100599999998,
            "value": 0.161865234375
          },
          {
            "ticks": 233288,
            "time": 249.23955301666663,
            "value": 0.162353515625
          },
          {
            "ticks": 233295,
            "time": 249.24703165625,
            "value": 0.162841796875
          },
          {
            "ticks": 233303,
            "time": 249.25557867291664,
            "value": 0.163330078125
          },
          {
            "ticks": 233310,
            "time": 249.2630573125,
            "value": 0.1636962890625
          },
          {
            "ticks": 233318,
            "time": 249.27160432916665,
            "value": 0.1641845703125
          },
          {
            "ticks": 233325,
            "time": 249.27908296874998,
            "value": 0.1646728515625
          },
          {
            "ticks": 233333,
            "time": 249.28762998541666,
            "value": 0.1651611328125
          },
          {
            "ticks": 233340,
            "time": 249.29510862499998,
            "value": 0.1656494140625
          },
          {
            "ticks": 233348,
            "time": 249.30365564166664,
            "value": 0.1661376953125
          },
          {
            "ticks": 233355,
            "time": 249.31113428125,
            "value": 0.1666259765625
          },
          {
            "ticks": 233363,
            "time": 249.31968129791665,
            "value": 0.1671142578125
          },
          {
            "ticks": 233370,
            "time": 249.3271599375,
            "value": 0.1676025390625
          },
          {
            "ticks": 233378,
            "time": 249.33570695416665,
            "value": 0.1680908203125
          },
          {
            "ticks": 233385,
            "time": 249.34318559374998,
            "value": 0.1685791015625
          },
          {
            "ticks": 233393,
            "time": 249.35173261041663,
            "value": 0.1689453125
          },
          {
            "ticks": 233400,
            "time": 249.35921125,
            "value": 0.16943359375
          },
          {
            "ticks": 233408,
            "time": 249.36775826666664,
            "value": 0.169921875
          },
          {
            "ticks": 233415,
            "time": 249.37523690625,
            "value": 0.17041015625
          },
          {
            "ticks": 233423,
            "time": 249.38378392291665,
            "value": 0.1708984375
          },
          {
            "ticks": 233430,
            "time": 249.39126256249997,
            "value": 0.17138671875
          },
          {
            "ticks": 233438,
            "time": 249.39980957916666,
            "value": 0.171875
          },
          {
            "ticks": 233445,
            "time": 249.40728821874998,
            "value": 0.17236328125
          },
          {
            "ticks": 233453,
            "time": 249.41583523541664,
            "value": 0.1728515625
          },
          {
            "ticks": 233460,
            "time": 249.423313875,
            "value": 0.17333984375
          },
          {
            "ticks": 233468,
            "time": 249.43186089166664,
            "value": 0.173828125
          },
          {
            "ticks": 233475,
            "time": 249.43933953125,
            "value": 0.17431640625
          },
          {
            "ticks": 233483,
            "time": 249.44788654791665,
            "value": 0.1746826171875
          },
          {
            "ticks": 233490,
            "time": 249.45536518749998,
            "value": 0.1751708984375
          },
          {
            "ticks": 233498,
            "time": 249.46391220416663,
            "value": 0.1756591796875
          },
          {
            "ticks": 233505,
            "time": 249.47139084375,
            "value": 0.1761474609375
          },
          {
            "ticks": 233513,
            "time": 249.47993786041664,
            "value": 0.1766357421875
          },
          {
            "ticks": 233520,
            "time": 249.4874165,
            "value": 0.1771240234375
          },
          {
            "ticks": 233528,
            "time": 249.49596351666665,
            "value": 0.1776123046875
          },
          {
            "ticks": 233535,
            "time": 249.50344215624997,
            "value": 0.1781005859375
          },
          {
            "ticks": 233543,
            "time": 249.51198917291666,
            "value": 0.1785888671875
          },
          {
            "ticks": 233550,
            "time": 249.51946781249998,
            "value": 0.1790771484375
          },
          {
            "ticks": 233558,
            "time": 249.52801482916664,
            "value": 0.1795654296875
          },
          {
            "ticks": 233565,
            "time": 249.53549346875,
            "value": 0.179931640625
          },
          {
            "ticks": 233573,
            "time": 249.54404048541664,
            "value": 0.180419921875
          },
          {
            "ticks": 233580,
            "time": 249.551519125,
            "value": 0.180908203125
          },
          {
            "ticks": 233588,
            "time": 249.56006614166665,
            "value": 0.181396484375
          },
          {
            "ticks": 233595,
            "time": 249.56754478124998,
            "value": 0.181884765625
          },
          {
            "ticks": 233603,
            "time": 249.57609179791663,
            "value": 0.182373046875
          },
          {
            "ticks": 233610,
            "time": 249.5835704375,
            "value": 0.182861328125
          },
          {
            "ticks": 233618,
            "time": 249.59211745416664,
            "value": 0.183349609375
          },
          {
            "ticks": 233625,
            "time": 249.59959609375,
            "value": 0.183837890625
          },
          {
            "ticks": 233633,
            "time": 249.60814311041665,
            "value": 0.184326171875
          },
          {
            "ticks": 233640,
            "time": 249.61562174999997,
            "value": 0.184814453125
          },
          {
            "ticks": 233648,
            "time": 249.62416876666666,
            "value": 0.1851806640625
          },
          {
            "ticks": 233655,
            "time": 249.63164740624998,
            "value": 0.1856689453125
          },
          {
            "ticks": 233663,
            "time": 249.64019442291664,
            "value": 0.1861572265625
          },
          {
            "ticks": 233670,
            "time": 249.6476730625,
            "value": 0.1866455078125
          },
          {
            "ticks": 233678,
            "time": 249.65622007916664,
            "value": 0.1871337890625
          },
          {
            "ticks": 233685,
            "time": 249.66369871875,
            "value": 0.1876220703125
          },
          {
            "ticks": 233693,
            "time": 249.67224573541665,
            "value": 0.1881103515625
          },
          {
            "ticks": 233700,
            "time": 249.67972437499998,
            "value": 0.1885986328125
          },
          {
            "ticks": 233708,
            "time": 249.68827139166663,
            "value": 0.1890869140625
          },
          {
            "ticks": 233715,
            "time": 249.69575003125,
            "value": 0.1895751953125
          },
          {
            "ticks": 233723,
            "time": 249.70429704791664,
            "value": 0.1900634765625
          },
          {
            "ticks": 233730,
            "time": 249.7117756875,
            "value": 0.1905517578125
          },
          {
            "ticks": 233738,
            "time": 249.72032270416665,
            "value": 0.19091796875
          },
          {
            "ticks": 233745,
            "time": 249.72780134374997,
            "value": 0.19140625
          },
          {
            "ticks": 233753,
            "time": 249.73634836041666,
            "value": 0.19189453125
          },
          {
            "ticks": 233760,
            "time": 249.74382699999998,
            "value": 0.1923828125
          },
          {
            "ticks": 233768,
            "time": 249.75237401666664,
            "value": 0.19287109375
          },
          {
            "ticks": 233775,
            "time": 249.75985265625,
            "value": 0.193359375
          },
          {
            "ticks": 233783,
            "time": 249.76839967291664,
            "value": 0.19384765625
          },
          {
            "ticks": 233790,
            "time": 249.7758783125,
            "value": 0.1943359375
          },
          {
            "ticks": 233798,
            "time": 249.78442532916665,
            "value": 0.19482421875
          },
          {
            "ticks": 233805,
            "time": 249.79190396874998,
            "value": 0.1953125
          },
          {
            "ticks": 233813,
            "time": 249.80045098541663,
            "value": 0.19580078125
          },
          {
            "ticks": 233820,
            "time": 249.80792962499999,
            "value": 0.1961669921875
          },
          {
            "ticks": 233828,
            "time": 249.81647664166664,
            "value": 0.1966552734375
          },
          {
            "ticks": 233835,
            "time": 249.82395528125,
            "value": 0.1971435546875
          },
          {
            "ticks": 233843,
            "time": 249.83250229791665,
            "value": 0.1976318359375
          },
          {
            "ticks": 233850,
            "time": 249.83998093749997,
            "value": 0.1981201171875
          },
          {
            "ticks": 233858,
            "time": 249.84852795416666,
            "value": 0.1986083984375
          },
          {
            "ticks": 233865,
            "time": 249.85600659374998,
            "value": 0.1990966796875
          },
          {
            "ticks": 233873,
            "time": 249.86455361041664,
            "value": 0.1995849609375
          },
          {
            "ticks": 233880,
            "time": 249.87203225,
            "value": 0.2000732421875
          },
          {
            "ticks": 233888,
            "time": 249.88057926666664,
            "value": 0.2005615234375
          },
          {
            "ticks": 233895,
            "time": 249.88805790625,
            "value": 0.2010498046875
          },
          {
            "ticks": 233903,
            "time": 249.89660492291665,
            "value": 0.2015380859375
          },
          {
            "ticks": 233910,
            "time": 249.90408356249998,
            "value": 0.201904296875
          },
          {
            "ticks": 233918,
            "time": 249.91263057916663,
            "value": 0.202392578125
          },
          {
            "ticks": 233925,
            "time": 249.92010921874999,
            "value": 0.202880859375
          },
          {
            "ticks": 233933,
            "time": 249.92865623541664,
            "value": 0.203369140625
          },
          {
            "ticks": 233940,
            "time": 249.936134875,
            "value": 0.203857421875
          },
          {
            "ticks": 233948,
            "time": 249.94468189166665,
            "value": 0.204345703125
          },
          {
            "ticks": 233955,
            "time": 249.95216053124997,
            "value": 0.204833984375
          },
          {
            "ticks": 233963,
            "time": 249.96070754791666,
            "value": 0.205322265625
          },
          {
            "ticks": 233970,
            "time": 249.96818618749998,
            "value": 0.205810546875
          },
          {
            "ticks": 233978,
            "time": 249.97673320416664,
            "value": 0.206298828125
          },
          {
            "ticks": 233985,
            "time": 249.98421184375,
            "value": 0.206787109375
          },
          {
            "ticks": 233993,
            "time": 249.99275886041664,
            "value": 0.2071533203125
          },
          {
            "ticks": 234000,
            "time": 250.0002375,
            "value": 0.2076416015625
          },
          {
            "ticks": 234008,
            "time": 250.00878451666665,
            "value": 0.2081298828125
          },
          {
            "ticks": 234015,
            "time": 250.01626315624998,
            "value": 0.2086181640625
          },
          {
            "ticks": 234023,
            "time": 250.02481017291663,
            "value": 0.2091064453125
          },
          {
            "ticks": 234030,
            "time": 250.03228881249998,
            "value": 0.2095947265625
          },
          {
            "ticks": 234038,
            "time": 250.04083582916664,
            "value": 0.2100830078125
          },
          {
            "ticks": 234045,
            "time": 250.04831446875,
            "value": 0.2105712890625
          },
          {
            "ticks": 234053,
            "time": 250.05686148541665,
            "value": 0.2110595703125
          },
          {
            "ticks": 234060,
            "time": 250.06434012499997,
            "value": 0.2115478515625
          },
          {
            "ticks": 234068,
            "time": 250.07288714166665,
            "value": 0.2120361328125
          },
          {
            "ticks": 234075,
            "time": 250.08036578124998,
            "value": 0.21240234375
          },
          {
            "ticks": 234083,
            "time": 250.08891279791663,
            "value": 0.212890625
          },
          {
            "ticks": 234090,
            "time": 250.0963914375,
            "value": 0.21337890625
          },
          {
            "ticks": 234098,
            "time": 250.10493845416664,
            "value": 0.2138671875
          },
          {
            "ticks": 234105,
            "time": 250.11241709375,
            "value": 0.21435546875
          },
          {
            "ticks": 234113,
            "time": 250.12096411041665,
            "value": 0.21484375
          },
          {
            "ticks": 234120,
            "time": 250.12844274999998,
            "value": 0.21533203125
          },
          {
            "ticks": 234128,
            "time": 250.13698976666666,
            "value": 0.2158203125
          },
          {
            "ticks": 234135,
            "time": 250.14446840624998,
            "value": 0.21630859375
          },
          {
            "ticks": 234143,
            "time": 250.15301542291664,
            "value": 0.216796875
          },
          {
            "ticks": 234150,
            "time": 250.1604940625,
            "value": 0.21728515625
          },
          {
            "ticks": 234158,
            "time": 250.16904107916665,
            "value": 0.2177734375
          },
          {
            "ticks": 234165,
            "time": 250.17651971874997,
            "value": 0.2181396484375
          },
          {
            "ticks": 234173,
            "time": 250.18506673541665,
            "value": 0.2186279296875
          },
          {
            "ticks": 234180,
            "time": 250.19254537499998,
            "value": 0.2191162109375
          },
          {
            "ticks": 234188,
            "time": 250.20109239166663,
            "value": 0.2196044921875
          },
          {
            "ticks": 234195,
            "time": 250.20857103125,
            "value": 0.2200927734375
          },
          {
            "ticks": 234203,
            "time": 250.21711804791664,
            "value": 0.2205810546875
          },
          {
            "ticks": 234210,
            "time": 250.2245966875,
            "value": 0.2210693359375
          },
          {
            "ticks": 234218,
            "time": 250.23314370416665,
            "value": 0.2215576171875
          },
          {
            "ticks": 234225,
            "time": 250.24062234374998,
            "value": 0.2220458984375
          },
          {
            "ticks": 234233,
            "time": 250.24916936041666,
            "value": 0.2225341796875
          },
          {
            "ticks": 234240,
            "time": 250.25664799999998,
            "value": 0.2230224609375
          },
          {
            "ticks": 234248,
            "time": 250.26519501666664,
            "value": 0.223388671875
          },
          {
            "ticks": 234255,
            "time": 250.27267365625,
            "value": 0.223876953125
          },
          {
            "ticks": 234263,
            "time": 250.28122067291665,
            "value": 0.224365234375
          },
          {
            "ticks": 234270,
            "time": 250.28869931249997,
            "value": 0.224853515625
          },
          {
            "ticks": 234278,
            "time": 250.29724632916665,
            "value": 0.225341796875
          },
          {
            "ticks": 234285,
            "time": 250.30472496874998,
            "value": 0.225830078125
          },
          {
            "ticks": 234293,
            "time": 250.31327198541663,
            "value": 0.226318359375
          },
          {
            "ticks": 234300,
            "time": 250.320750625,
            "value": 0.226806640625
          },
          {
            "ticks": 234308,
            "time": 250.32929764166664,
            "value": 0.227294921875
          },
          {
            "ticks": 234315,
            "time": 250.33677628125,
            "value": 0.227783203125
          },
          {
            "ticks": 234323,
            "time": 250.34532329791665,
            "value": 0.228271484375
          },
          {
            "ticks": 234330,
            "time": 250.35280193749998,
            "value": 0.228759765625
          },
          {
            "ticks": 234338,
            "time": 250.36134895416666,
            "value": 0.2291259765625
          },
          {
            "ticks": 234345,
            "time": 250.36882759374998,
            "value": 0.2296142578125
          },
          {
            "ticks": 234353,
            "time": 250.37737461041664,
            "value": 0.2301025390625
          },
          {
            "ticks": 234360,
            "time": 250.38485325,
            "value": 0.2305908203125
          },
          {
            "ticks": 234368,
            "time": 250.39340026666665,
            "value": 0.2310791015625
          },
          {
            "ticks": 234375,
            "time": 250.40087890625,
            "value": 0.2315673828125
          },
          {
            "ticks": 234383,
            "time": 250.40942592291665,
            "value": 0.2320556640625
          },
          {
            "ticks": 234390,
            "time": 250.41690456249998,
            "value": 0.2325439453125
          },
          {
            "ticks": 234398,
            "time": 250.42545157916663,
            "value": 0.2330322265625
          },
          {
            "ticks": 234405,
            "time": 250.43293021875,
            "value": 0.2335205078125
          },
          {
            "ticks": 234413,
            "time": 250.44147723541664,
            "value": 0.2340087890625
          },
          {
            "ticks": 234420,
            "time": 250.448955875,
            "value": 0.234375
          },
          {
            "ticks": 234428,
            "time": 250.45750289166665,
            "value": 0.23486328125
          },
          {
            "ticks": 234435,
            "time": 250.46498153124998,
            "value": 0.2353515625
          },
          {
            "ticks": 234443,
            "time": 250.47352854791666,
            "value": 0.23583984375
          },
          {
            "ticks": 234450,
            "time": 250.48100718749998,
            "value": 0.236328125
          },
          {
            "ticks": 234458,
            "time": 250.48955420416664,
            "value": 0.23681640625
          },
          {
            "ticks": 234465,
            "time": 250.49703284375,
            "value": 0.2373046875
          },
          {
            "ticks": 234473,
            "time": 250.50557986041665,
            "value": 0.23779296875
          },
          {
            "ticks": 234480,
            "time": 250.5130585,
            "value": 0.23828125
          },
          {
            "ticks": 234488,
            "time": 250.52160551666665,
            "value": 0.23876953125
          },
          {
            "ticks": 234495,
            "time": 250.52908415624998,
            "value": 0.2392578125
          },
          {
            "ticks": 234503,
            "time": 250.53763117291663,
            "value": 0.23974609375
          },
          {
            "ticks": 234510,
            "time": 250.5451098125,
            "value": 0.2401123046875
          },
          {
            "ticks": 234518,
            "time": 250.55365682916664,
            "value": 0.2406005859375
          },
          {
            "ticks": 234525,
            "time": 250.56113546875,
            "value": 0.2410888671875
          },
          {
            "ticks": 234533,
            "time": 250.56968248541665,
            "value": 0.2415771484375
          },
          {
            "ticks": 234540,
            "time": 250.57716112499998,
            "value": 0.2420654296875
          },
          {
            "ticks": 234548,
            "time": 250.58570814166666,
            "value": 0.2425537109375
          },
          {
            "ticks": 234555,
            "time": 250.59318678124998,
            "value": 0.2430419921875
          },
          {
            "ticks": 234563,
            "time": 250.60173379791664,
            "value": 0.2435302734375
          },
          {
            "ticks": 234570,
            "time": 250.6092124375,
            "value": 0.2440185546875
          },
          {
            "ticks": 234578,
            "time": 250.61775945416665,
            "value": 0.2445068359375
          },
          {
            "ticks": 234585,
            "time": 250.62523809375,
            "value": 0.2449951171875
          },
          {
            "ticks": 234593,
            "time": 250.63378511041665,
            "value": 0.245361328125
          },
          {
            "ticks": 234600,
            "time": 250.64126374999998,
            "value": 0.245849609375
          },
          {
            "ticks": 234608,
            "time": 250.64981076666663,
            "value": 0.246337890625
          },
          {
            "ticks": 234615,
            "time": 250.65728940625,
            "value": 0.246826171875
          },
          {
            "ticks": 234623,
            "time": 250.66583642291664,
            "value": 0.247314453125
          },
          {
            "ticks": 234630,
            "time": 250.6733150625,
            "value": 0.247802734375
          },
          {
            "ticks": 234638,
            "time": 250.68186207916665,
            "value": 0.248291015625
          },
          {
            "ticks": 234645,
            "time": 250.68934071874997,
            "value": 0.248779296875
          },
          {
            "ticks": 234653,
            "time": 250.69788773541666,
            "value": 0.249267578125
          },
          {
            "ticks": 234660,
            "time": 250.70536637499998,
            "value": 0.249755859375
          },
          {
            "ticks": 234668,
            "time": 250.71391339166664,
            "value": 0.250244140625
          },
          {
            "ticks": 234675,
            "time": 250.72139203125,
            "value": 0.2506103515625
          },
          {
            "ticks": 234683,
            "time": 250.72993904791664,
            "value": 0.2510986328125
          },
          {
            "ticks": 234690,
            "time": 250.7374176875,
            "value": 0.2515869140625
          },
          {
            "ticks": 234698,
            "time": 250.74596470416665,
            "value": 0.2520751953125
          },
          {
            "ticks": 234705,
            "time": 250.75344334374998,
            "value": 0.2525634765625
          },
          {
            "ticks": 234713,
            "time": 250.76199036041663,
            "value": 0.2530517578125
          },
          {
            "ticks": 234720,
            "time": 250.769469,
            "value": 0.2535400390625
          },
          {
            "ticks": 234728,
            "time": 250.77801601666664,
            "value": 0.2540283203125
          },
          {
            "ticks": 234735,
            "time": 250.78549465625,
            "value": 0.2545166015625
          },
          {
            "ticks": 234743,
            "time": 250.79404167291665,
            "value": 0.2550048828125
          },
          {
            "ticks": 234750,
            "time": 250.80152031249997,
            "value": 0.2554931640625
          },
          {
            "ticks": 234758,
            "time": 250.81006732916666,
            "value": 0.2559814453125
          },
          {
            "ticks": 234765,
            "time": 250.81754596874998,
            "value": 0.25634765625
          },
          {
            "ticks": 234773,
            "time": 250.82609298541664,
            "value": 0.2568359375
          },
          {
            "ticks": 234780,
            "time": 250.833571625,
            "value": 0.25732421875
          },
          {
            "ticks": 234788,
            "time": 250.84211864166664,
            "value": 0.2578125
          },
          {
            "ticks": 234795,
            "time": 250.84959728125,
            "value": 0.25830078125
          },
          {
            "ticks": 234803,
            "time": 250.85814429791665,
            "value": 0.2587890625
          },
          {
            "ticks": 234810,
            "time": 250.86562293749998,
            "value": 0.25927734375
          },
          {
            "ticks": 234818,
            "time": 250.87416995416663,
            "value": 0.259765625
          },
          {
            "ticks": 234825,
            "time": 250.88164859375,
            "value": 0.26025390625
          },
          {
            "ticks": 234833,
            "time": 250.89019561041664,
            "value": 0.2607421875
          },
          {
            "ticks": 234840,
            "time": 250.89767425,
            "value": 0.26123046875
          },
          {
            "ticks": 234848,
            "time": 250.90622126666665,
            "value": 0.2615966796875
          },
          {
            "ticks": 234855,
            "time": 250.91369990624997,
            "value": 0.2620849609375
          },
          {
            "ticks": 234863,
            "time": 250.92224692291666,
            "value": 0.2625732421875
          },
          {
            "ticks": 234870,
            "time": 250.92972556249998,
            "value": 0.2630615234375
          },
          {
            "ticks": 234878,
            "time": 250.93827257916664,
            "value": 0.2635498046875
          },
          {
            "ticks": 234885,
            "time": 250.94575121875,
            "value": 0.2640380859375
          },
          {
            "ticks": 234893,
            "time": 250.95429823541664,
            "value": 0.2645263671875
          },
          {
            "ticks": 234900,
            "time": 250.961776875,
            "value": 0.2650146484375
          },
          {
            "ticks": 234908,
            "time": 250.97032389166665,
            "value": 0.2655029296875
          },
          {
            "ticks": 234915,
            "time": 250.97780253124998,
            "value": 0.2659912109375
          },
          {
            "ticks": 234923,
            "time": 250.98634954791663,
            "value": 0.2664794921875
          },
          {
            "ticks": 234930,
            "time": 250.9938281875,
            "value": 0.2669677734375
          },
          {
            "ticks": 234938,
            "time": 251.00237520416664,
            "value": 0.267333984375
          },
          {
            "ticks": 234945,
            "time": 251.00985384375,
            "value": 0.267822265625
          },
          {
            "ticks": 234953,
            "time": 251.01840086041665,
            "value": 0.268310546875
          },
          {
            "ticks": 234960,
            "time": 251.02587949999997,
            "value": 0.268798828125
          },
          {
            "ticks": 234968,
            "time": 251.03442651666666,
            "value": 0.269287109375
          },
          {
            "ticks": 234975,
            "time": 251.04190515624998,
            "value": 0.269775390625
          },
          {
            "ticks": 234983,
            "time": 251.05045217291664,
            "value": 0.270263671875
          },
          {
            "ticks": 234990,
            "time": 251.0579308125,
            "value": 0.270751953125
          },
          {
            "ticks": 234998,
            "time": 251.06647782916664,
            "value": 0.271240234375
          },
          {
            "ticks": 235005,
            "time": 251.07395646875,
            "value": 0.271728515625
          },
          {
            "ticks": 235013,
            "time": 251.08250348541665,
            "value": 0.272216796875
          },
          {
            "ticks": 235020,
            "time": 251.08998212499998,
            "value": 0.2725830078125
          },
          {
            "ticks": 235028,
            "time": 251.09852914166663,
            "value": 0.2730712890625
          },
          {
            "ticks": 235035,
            "time": 251.10600778124999,
            "value": 0.2735595703125
          },
          {
            "ticks": 235043,
            "time": 251.11455479791664,
            "value": 0.2740478515625
          },
          {
            "ticks": 235050,
            "time": 251.1220334375,
            "value": 0.2745361328125
          },
          {
            "ticks": 235058,
            "time": 251.13058045416665,
            "value": 0.2750244140625
          },
          {
            "ticks": 235065,
            "time": 251.13805909374997,
            "value": 0.2755126953125
          },
          {
            "ticks": 235073,
            "time": 251.14660611041666,
            "value": 0.2760009765625
          },
          {
            "ticks": 235080,
            "time": 251.15408474999998,
            "value": 0.2764892578125
          },
          {
            "ticks": 235088,
            "time": 251.16263176666664,
            "value": 0.2769775390625
          },
          {
            "ticks": 235095,
            "time": 251.17011040625,
            "value": 0.2774658203125
          },
          {
            "ticks": 235103,
            "time": 251.17865742291664,
            "value": 0.27783203125
          },
          {
            "ticks": 235110,
            "time": 251.1861360625,
            "value": 0.2783203125
          },
          {
            "ticks": 235118,
            "time": 251.19468307916665,
            "value": 0.27880859375
          },
          {
            "ticks": 235125,
            "time": 251.20216171874998,
            "value": 0.279296875
          },
          {
            "ticks": 235133,
            "time": 251.21070873541663,
            "value": 0.27978515625
          },
          {
            "ticks": 235140,
            "time": 251.21818737499999,
            "value": 0.2802734375
          },
          {
            "ticks": 235148,
            "time": 251.22673439166664,
            "value": 0.28076171875
          },
          {
            "ticks": 235155,
            "time": 251.23421303125,
            "value": 0.28125
          },
          {
            "ticks": 235163,
            "time": 251.24276004791665,
            "value": 0.28173828125
          },
          {
            "ticks": 235170,
            "time": 251.25023868749997,
            "value": 0.2822265625
          },
          {
            "ticks": 235178,
            "time": 251.25878570416666,
            "value": 0.28271484375
          },
          {
            "ticks": 235185,
            "time": 251.26626434374998,
            "value": 0.283203125
          },
          {
            "ticks": 235193,
            "time": 251.27481136041663,
            "value": 0.2835693359375
          },
          {
            "ticks": 235200,
            "time": 251.28229,
            "value": 0.2840576171875
          },
          {
            "ticks": 235208,
            "time": 251.29083701666664,
            "value": 0.2845458984375
          },
          {
            "ticks": 235215,
            "time": 251.29831565625,
            "value": 0.2850341796875
          },
          {
            "ticks": 235223,
            "time": 251.30686267291665,
            "value": 0.2855224609375
          },
          {
            "ticks": 235230,
            "time": 251.31434131249998,
            "value": 0.2860107421875
          },
          {
            "ticks": 235238,
            "time": 251.32288832916663,
            "value": 0.2864990234375
          },
          {
            "ticks": 235245,
            "time": 251.33036696874998,
            "value": 0.2869873046875
          },
          {
            "ticks": 235253,
            "time": 251.33891398541664,
            "value": 0.2874755859375
          },
          {
            "ticks": 235260,
            "time": 251.346392625,
            "value": 0.2879638671875
          },
          {
            "ticks": 235268,
            "time": 251.35493964166665,
            "value": 0.2884521484375
          },
          {
            "ticks": 235275,
            "time": 251.36241828124997,
            "value": 0.288818359375
          },
          {
            "ticks": 235283,
            "time": 251.37096529791665,
            "value": 0.289306640625
          },
          {
            "ticks": 235290,
            "time": 251.37844393749998,
            "value": 0.289794921875
          },
          {
            "ticks": 235298,
            "time": 251.38699095416663,
            "value": 0.290283203125
          },
          {
            "ticks": 235305,
            "time": 251.39446959375,
            "value": 0.290771484375
          },
          {
            "ticks": 235313,
            "time": 251.40301661041664,
            "value": 0.291259765625
          },
          {
            "ticks": 235320,
            "time": 251.41049525,
            "value": 0.291748046875
          },
          {
            "ticks": 235328,
            "time": 251.41904226666665,
            "value": 0.292236328125
          },
          {
            "ticks": 235335,
            "time": 251.42652090624998,
            "value": 0.292724609375
          },
          {
            "ticks": 235343,
            "time": 251.43506792291666,
            "value": 0.293212890625
          },
          {
            "ticks": 235350,
            "time": 251.44254656249998,
            "value": 0.293701171875
          },
          {
            "ticks": 235358,
            "time": 251.45109357916664,
            "value": 0.294189453125
          },
          {
            "ticks": 235365,
            "time": 251.45857221875,
            "value": 0.2945556640625
          },
          {
            "ticks": 235373,
            "time": 251.46711923541665,
            "value": 0.2950439453125
          },
          {
            "ticks": 235380,
            "time": 251.47459787499997,
            "value": 0.2955322265625
          },
          {
            "ticks": 235388,
            "time": 251.48314489166665,
            "value": 0.2960205078125
          },
          {
            "ticks": 235395,
            "time": 251.49062353124998,
            "value": 0.2965087890625
          },
          {
            "ticks": 235403,
            "time": 251.49917054791663,
            "value": 0.2969970703125
          },
          {
            "ticks": 235410,
            "time": 251.5066491875,
            "value": 0.2974853515625
          },
          {
            "ticks": 235418,
            "time": 251.51519620416664,
            "value": 0.2979736328125
          },
          {
            "ticks": 235425,
            "time": 251.52267484375,
            "value": 0.2984619140625
          },
          {
            "ticks": 235433,
            "time": 251.53122186041665,
            "value": 0.2989501953125
          },
          {
            "ticks": 235440,
            "time": 251.53870049999998,
            "value": 0.2994384765625
          },
          {
            "ticks": 235448,
            "time": 251.54724751666666,
            "value": 0.2998046875
          },
          {
            "ticks": 235455,
            "time": 251.55472615624998,
            "value": 0.30029296875
          },
          {
            "ticks": 235463,
            "time": 251.56327317291664,
            "value": 0.30078125
          },
          {
            "ticks": 235470,
            "time": 251.5707518125,
            "value": 0.30126953125
          },
          {
            "ticks": 235478,
            "time": 251.57929882916665,
            "value": 0.3017578125
          },
          {
            "ticks": 235485,
            "time": 251.58677746874997,
            "value": 0.30224609375
          },
          {
            "ticks": 235493,
            "time": 251.59532448541665,
            "value": 0.302734375
          },
          {
            "ticks": 235500,
            "time": 251.60280312499998,
            "value": 0.30322265625
          },
          {
            "ticks": 235508,
            "time": 251.61135014166663,
            "value": 0.3037109375
          },
          {
            "ticks": 235515,
            "time": 251.61882878125,
            "value": 0.30419921875
          },
          {
            "ticks": 235523,
            "time": 251.62737579791664,
            "value": 0.3046875
          },
          {
            "ticks": 235530,
            "time": 251.6348544375,
            "value": 0.3050537109375
          },
          {
            "ticks": 235538,
            "time": 251.64340145416665,
            "value": 0.3055419921875
          },
          {
            "ticks": 235545,
            "time": 251.65088009374998,
            "value": 0.3060302734375
          },
          {
            "ticks": 235553,
            "time": 251.65942711041666,
            "value": 0.3065185546875
          },
          {
            "ticks": 235560,
            "time": 251.66690574999998,
            "value": 0.3070068359375
          },
          {
            "ticks": 235568,
            "time": 251.67545276666664,
            "value": 0.3074951171875
          },
          {
            "ticks": 235575,
            "time": 251.68293140625,
            "value": 0.3079833984375
          },
          {
            "ticks": 235583,
            "time": 251.69147842291665,
            "value": 0.3084716796875
          },
          {
            "ticks": 235590,
            "time": 251.6989570625,
            "value": 0.3089599609375
          },
          {
            "ticks": 235598,
            "time": 251.70750407916665,
            "value": 0.3094482421875
          },
          {
            "ticks": 235605,
            "time": 251.71498271874998,
            "value": 0.3099365234375
          },
          {
            "ticks": 235613,
            "time": 251.72352973541663,
            "value": 0.3104248046875
          },
          {
            "ticks": 235620,
            "time": 251.731008375,
            "value": 0.310791015625
          },
          {
            "ticks": 235628,
            "time": 251.73955539166664,
            "value": 0.311279296875
          },
          {
            "ticks": 235635,
            "time": 251.74703403125,
            "value": 0.311767578125
          },
          {
            "ticks": 235643,
            "time": 251.75558104791665,
            "value": 0.312255859375
          },
          {
            "ticks": 235650,
            "time": 251.76305968749998,
            "value": 0.312744140625
          },
          {
            "ticks": 235658,
            "time": 251.77160670416666,
            "value": 0.313232421875
          },
          {
            "ticks": 235665,
            "time": 251.77908534374998,
            "value": 0.313720703125
          },
          {
            "ticks": 235673,
            "time": 251.78763236041664,
            "value": 0.314208984375
          },
          {
            "ticks": 235680,
            "time": 251.795111,
            "value": 0.314697265625
          },
          {
            "ticks": 235688,
            "time": 251.80365801666665,
            "value": 0.315185546875
          },
          {
            "ticks": 235695,
            "time": 251.81113665625,
            "value": 0.315673828125
          },
          {
            "ticks": 235703,
            "time": 251.81968367291665,
            "value": 0.3160400390625
          },
          {
            "ticks": 235710,
            "time": 251.82716231249998,
            "value": 0.3165283203125
          },
          {
            "ticks": 235718,
            "time": 251.83570932916663,
            "value": 0.3170166015625
          },
          {
            "ticks": 235725,
            "time": 251.84318796875,
            "value": 0.3175048828125
          },
          {
            "ticks": 235733,
            "time": 251.85173498541664,
            "value": 0.3179931640625
          },
          {
            "ticks": 235740,
            "time": 251.859213625,
            "value": 0.3184814453125
          },
          {
            "ticks": 235748,
            "time": 251.86776064166665,
            "value": 0.3189697265625
          },
          {
            "ticks": 235755,
            "time": 251.87523928124997,
            "value": 0.3194580078125
          },
          {
            "ticks": 235763,
            "time": 251.88378629791666,
            "value": 0.3199462890625
          },
          {
            "ticks": 235770,
            "time": 251.89126493749998,
            "value": 0.3204345703125
          },
          {
            "ticks": 235778,
            "time": 251.89981195416664,
            "value": 0.3209228515625
          },
          {
            "ticks": 235785,
            "time": 251.90729059375,
            "value": 0.3214111328125
          },
          {
            "ticks": 235793,
            "time": 251.91583761041665,
            "value": 0.32177734375
          },
          {
            "ticks": 235800,
            "time": 251.92331625,
            "value": 0.322265625
          },
          {
            "ticks": 235808,
            "time": 251.93186326666665,
            "value": 0.32275390625
          },
          {
            "ticks": 235815,
            "time": 251.93934190624998,
            "value": 0.3232421875
          },
          {
            "ticks": 235823,
            "time": 251.94788892291663,
            "value": 0.32373046875
          },
          {
            "ticks": 235830,
            "time": 251.9553675625,
            "value": 0.32421875
          },
          {
            "ticks": 235838,
            "time": 251.96391457916664,
            "value": 0.32470703125
          },
          {
            "ticks": 235845,
            "time": 251.97139321875,
            "value": 0.3251953125
          },
          {
            "ticks": 235853,
            "time": 251.97994023541665,
            "value": 0.32568359375
          },
          {
            "ticks": 235860,
            "time": 251.98741887499997,
            "value": 0.326171875
          },
          {
            "ticks": 235868,
            "time": 251.99596589166666,
            "value": 0.32666015625
          },
          {
            "ticks": 235875,
            "time": 252.00344453124998,
            "value": 0.3270263671875
          },
          {
            "ticks": 235883,
            "time": 252.01199154791664,
            "value": 0.3275146484375
          },
          {
            "ticks": 235890,
            "time": 252.0194701875,
            "value": 0.3280029296875
          },
          {
            "ticks": 235898,
            "time": 252.02801720416664,
            "value": 0.3284912109375
          },
          {
            "ticks": 235905,
            "time": 252.03549584375,
            "value": 0.3289794921875
          },
          {
            "ticks": 235913,
            "time": 252.04404286041665,
            "value": 0.3294677734375
          },
          {
            "ticks": 235920,
            "time": 252.05152149999998,
            "value": 0.3299560546875
          },
          {
            "ticks": 235928,
            "time": 252.06006851666663,
            "value": 0.3304443359375
          },
          {
            "ticks": 235935,
            "time": 252.06754715625,
            "value": 0.3309326171875
          },
          {
            "ticks": 235943,
            "time": 252.07609417291664,
            "value": 0.3314208984375
          },
          {
            "ticks": 235950,
            "time": 252.0835728125,
            "value": 0.3319091796875
          },
          {
            "ticks": 235958,
            "time": 252.09211982916665,
            "value": 0.3323974609375
          },
          {
            "ticks": 235965,
            "time": 252.09959846874997,
            "value": 0.332763671875
          },
          {
            "ticks": 235973,
            "time": 252.10814548541666,
            "value": 0.333251953125
          },
          {
            "ticks": 235980,
            "time": 252.11562412499998,
            "value": 0.333740234375
          },
          {
            "ticks": 235988,
            "time": 252.12417114166664,
            "value": 0.334228515625
          },
          {
            "ticks": 235995,
            "time": 252.13164978125,
            "value": 0.334716796875
          },
          {
            "ticks": 236003,
            "time": 252.14019679791664,
            "value": 0.335205078125
          },
          {
            "ticks": 236010,
            "time": 252.1476754375,
            "value": 0.335693359375
          },
          {
            "ticks": 236018,
            "time": 252.15622245416665,
            "value": 0.336181640625
          },
          {
            "ticks": 236025,
            "time": 252.16370109374998,
            "value": 0.336669921875
          },
          {
            "ticks": 236033,
            "time": 252.17224811041663,
            "value": 0.337158203125
          },
          {
            "ticks": 236040,
            "time": 252.17972675,
            "value": 0.337646484375
          },
          {
            "ticks": 236048,
            "time": 252.18827376666664,
            "value": 0.3380126953125
          },
          {
            "ticks": 236055,
            "time": 252.19575240625,
            "value": 0.3385009765625
          },
          {
            "ticks": 236063,
            "time": 252.20429942291665,
            "value": 0.3389892578125
          },
          {
            "ticks": 236070,
            "time": 252.21177806249997,
            "value": 0.3394775390625
          },
          {
            "ticks": 236078,
            "time": 252.22032507916666,
            "value": 0.3399658203125
          },
          {
            "ticks": 236085,
            "time": 252.22780371874998,
            "value": 0.3404541015625
          },
          {
            "ticks": 236093,
            "time": 252.23635073541664,
            "value": 0.3409423828125
          },
          {
            "ticks": 236100,
            "time": 252.243829375,
            "value": 0.3414306640625
          },
          {
            "ticks": 236108,
            "time": 252.25237639166664,
            "value": 0.3419189453125
          },
          {
            "ticks": 236115,
            "time": 252.25985503125,
            "value": 0.3424072265625
          },
          {
            "ticks": 236123,
            "time": 252.26840204791665,
            "value": 0.3428955078125
          },
          {
            "ticks": 236130,
            "time": 252.27588068749998,
            "value": 0.34326171875
          },
          {
            "ticks": 236138,
            "time": 252.28442770416663,
            "value": 0.34375
          },
          {
            "ticks": 236145,
            "time": 252.29190634375,
            "value": 0.34423828125
          },
          {
            "ticks": 236153,
            "time": 252.30045336041664,
            "value": 0.3447265625
          },
          {
            "ticks": 236160,
            "time": 252.307932,
            "value": 0.34521484375
          },
          {
            "ticks": 236168,
            "time": 252.31647901666665,
            "value": 0.345703125
          },
          {
            "ticks": 236175,
            "time": 252.32395765624997,
            "value": 0.34619140625
          },
          {
            "ticks": 236183,
            "time": 252.33250467291666,
            "value": 0.3466796875
          },
          {
            "ticks": 236190,
            "time": 252.33998331249998,
            "value": 0.34716796875
          },
          {
            "ticks": 236198,
            "time": 252.34853032916664,
            "value": 0.34765625
          },
          {
            "ticks": 236205,
            "time": 252.35600896875,
            "value": 0.34814453125
          },
          {
            "ticks": 236213,
            "time": 252.36455598541664,
            "value": 0.3486328125
          },
          {
            "ticks": 236220,
            "time": 252.372034625,
            "value": 0.3489990234375
          },
          {
            "ticks": 236228,
            "time": 252.38058164166665,
            "value": 0.3494873046875
          },
          {
            "ticks": 236235,
            "time": 252.38806028124998,
            "value": 0.3499755859375
          },
          {
            "ticks": 236243,
            "time": 252.39660729791663,
            "value": 0.3504638671875
          },
          {
            "ticks": 236250,
            "time": 252.40408593749999,
            "value": 0.3509521484375
          },
          {
            "ticks": 236258,
            "time": 252.41263295416664,
            "value": 0.3514404296875
          },
          {
            "ticks": 236265,
            "time": 252.42011159375,
            "value": 0.3519287109375
          },
          {
            "ticks": 236273,
            "time": 252.42865861041665,
            "value": 0.3524169921875
          },
          {
            "ticks": 236280,
            "time": 252.43613724999997,
            "value": 0.3529052734375
          },
          {
            "ticks": 236288,
            "time": 252.44468426666666,
            "value": 0.3533935546875
          },
          {
            "ticks": 236295,
            "time": 252.45216290624998,
            "value": 0.3538818359375
          },
          {
            "ticks": 236303,
            "time": 252.46070992291664,
            "value": 0.354248046875
          },
          {
            "ticks": 236310,
            "time": 252.4681885625,
            "value": 0.354736328125
          },
          {
            "ticks": 236318,
            "time": 252.47673557916664,
            "value": 0.355224609375
          },
          {
            "ticks": 236325,
            "time": 252.48421421875,
            "value": 0.355712890625
          },
          {
            "ticks": 236333,
            "time": 252.49276123541665,
            "value": 0.356201171875
          },
          {
            "ticks": 236340,
            "time": 252.50023987499998,
            "value": 0.356689453125
          },
          {
            "ticks": 236348,
            "time": 252.50878689166663,
            "value": 0.357177734375
          },
          {
            "ticks": 236355,
            "time": 252.51626553124999,
            "value": 0.357666015625
          },
          {
            "ticks": 236363,
            "time": 252.52481254791664,
            "value": 0.358154296875
          },
          {
            "ticks": 236370,
            "time": 252.5322911875,
            "value": 0.358642578125
          },
          {
            "ticks": 236378,
            "time": 252.54083820416665,
            "value": 0.359130859375
          },
          {
            "ticks": 236385,
            "time": 252.54831684374997,
            "value": 0.359619140625
          },
          {
            "ticks": 236393,
            "time": 252.55686386041666,
            "value": 0.3599853515625
          },
          {
            "ticks": 236400,
            "time": 252.56434249999998,
            "value": 0.3604736328125
          },
          {
            "ticks": 236408,
            "time": 252.57288951666663,
            "value": 0.3609619140625
          },
          {
            "ticks": 236415,
            "time": 252.58036815625,
            "value": 0.3614501953125
          },
          {
            "ticks": 236423,
            "time": 252.58891517291664,
            "value": 0.3619384765625
          },
          {
            "ticks": 236430,
            "time": 252.5963938125,
            "value": 0.3624267578125
          },
          {
            "ticks": 236438,
            "time": 252.60494082916665,
            "value": 0.3629150390625
          },
          {
            "ticks": 236443,
            "time": 252.61028271458332,
            "value": 0.36328125
          },
          {
            "ticks": 236450,
            "time": 252.61776135416667,
            "value": 0.4010009765625
          },
          {
            "ticks": 236458,
            "time": 252.62630837083333,
            "value": 0.438720703125
          },
          {
            "ticks": 236465,
            "time": 252.63378701041665,
            "value": 0.4765625
          },
          {
            "ticks": 236473,
            "time": 252.6423340270833,
            "value": 0.4854736328125
          },
          {
            "ticks": 236480,
            "time": 252.64981266666666,
            "value": 0.4945068359375
          },
          {
            "ticks": 236488,
            "time": 252.65835968333332,
            "value": 0.5035400390625
          },
          {
            "ticks": 236495,
            "time": 252.66583832291667,
            "value": 0.5125732421875
          },
          {
            "ticks": 236498,
            "time": 252.66904345416665,
            "value": 0.515625
          },
          {
            "ticks": 236505,
            "time": 252.67652209374998,
            "value": 0.322265625
          },
          {
            "ticks": 236513,
            "time": 252.68506911041663,
            "value": 0.12890625
          },
          {
            "ticks": 236518,
            "time": 252.69041099583333,
            "value": 0
          },
          {
            "ticks": 238315,
            "time": 254.61028461458332,
            "value": 0
          },
          {
            "ticks": 238323,
            "time": 254.61883163125,
            "value": -0.00830078125
          },
          {
            "ticks": 238330,
            "time": 254.6263102708333,
            "value": -0.0167236328125
          },
          {
            "ticks": 238333,
            "time": 254.6295154020833,
            "value": -0.01953125
          },
          {
            "ticks": 238340,
            "time": 254.63699404166667,
            "value": 0.07421875
          },
          {
            "ticks": 238348,
            "time": 254.64554105833332,
            "value": 0.16796875
          },
          {
            "ticks": 238355,
            "time": 254.65301969791668,
            "value": 0.26171875
          },
          {
            "ticks": 238363,
            "time": 254.66156671458333,
            "value": 0.35546875
          },
          {
            "ticks": 238370,
            "time": 254.66904535416666,
            "value": 0.44921875
          },
          {
            "ticks": 238376,
            "time": 254.67545561666665,
            "value": 0.4622802734375
          },
          {
            "ticks": 238383,
            "time": 254.68293425625,
            "value": 0.4765625
          },
          {
            "ticks": 238390,
            "time": 254.6904128958333,
            "value": 0.489501953125
          },
          {
            "ticks": 238398,
            "time": 254.6989599125,
            "value": 0.5025634765625
          },
          {
            "ticks": 238405,
            "time": 254.7064385520833,
            "value": 0.515625
          },
          {
            "ticks": 238413,
            "time": 254.71498556875,
            "value": 0.263671875
          },
          {
            "ticks": 238420,
            "time": 254.72246420833332,
            "value": 0.01171875
          }
        ],
        "instrument": {
          "family": "guitar",
          "number": 28,
          "name": "electric guitar (muted)"
        },
        "name": "",
        "notes": [
          {
            "duration": 0.11324797083335625,
            "durationTicks": 106,
            "midi": 60,
            "name": "C4",
            "ticks": 228719,
            "time": 244.35813812291664,
            "velocity": 1
          },
          {
            "duration": 0.10470095416667391,
            "durationTicks": 98,
            "midi": 59,
            "name": "B3",
            "ticks": 228840,
            "time": 244.48741174999998,
            "velocity": 1
          },
          {
            "duration": 0.0032051312500129825,
            "durationTicks": 3,
            "midi": 57,
            "name": "A3",
            "ticks": 229080,
            "time": 244.74382225,
            "velocity": 1
          },
          {
            "duration": 0.07371801875001438,
            "durationTicks": 69,
            "midi": 59,
            "name": "B3",
            "ticks": 229200,
            "time": 244.87202749999997,
            "velocity": 1
          },
          {
            "duration": 0.0032051312500129825,
            "durationTicks": 3,
            "midi": 54,
            "name": "F#3",
            "ticks": 229320,
            "time": 245.00023274999998,
            "velocity": 0.6929133858267716
          },
          {
            "duration": 0.30769259999999576,
            "durationTicks": 288,
            "midi": 57,
            "name": "A3",
            "ticks": 229440,
            "time": 245.128438,
            "velocity": 1
          },
          {
            "duration": 0.08547016666668128,
            "durationTicks": 80,
            "midi": 59,
            "name": "B3",
            "ticks": 229800,
            "time": 245.51305374999998,
            "velocity": 1
          },
          {
            "duration": 0.10683770833333028,
            "durationTicks": 100,
            "midi": 60,
            "name": "C4",
            "ticks": 230640,
            "time": 246.41049049999998,
            "velocity": 1
          },
          {
            "duration": 0.15491467708332607,
            "durationTicks": 145,
            "midi": 59,
            "name": "B3",
            "ticks": 230760,
            "time": 246.53869575,
            "velocity": 1
          },
          {
            "duration": 0.0032051312500129825,
            "durationTicks": 3,
            "midi": 57,
            "name": "A3",
            "ticks": 231000,
            "time": 246.79510624999998,
            "velocity": 1
          },
          {
            "duration": 0.07478639583331415,
            "durationTicks": 70,
            "midi": 59,
            "name": "B3",
            "ticks": 231120,
            "time": 246.92331149999998,
            "velocity": 1
          },
          {
            "duration": 0.0032051312500129825,
            "durationTicks": 3,
            "midi": 54,
            "name": "F#3",
            "ticks": 231300,
            "time": 247.115619375,
            "velocity": 0.6929133858267716
          },
          {
            "duration": 0.30769259999999576,
            "durationTicks": 288,
            "midi": 57,
            "name": "A3",
            "ticks": 231360,
            "time": 247.179722,
            "velocity": 1
          },
          {
            "duration": 0.08867529791666584,
            "durationTicks": 83,
            "midi": 54,
            "name": "F#3",
            "ticks": 231720,
            "time": 247.56433775,
            "velocity": 1
          },
          {
            "duration": 0.11217959374999964,
            "durationTicks": 105,
            "midi": 60,
            "name": "C4",
            "ticks": 236400,
            "time": 252.56434249999998,
            "velocity": 1
          },
          {
            "duration": 0.10470095416664549,
            "durationTicks": 98,
            "midi": 59,
            "name": "B3",
            "ticks": 236520,
            "time": 252.69254775,
            "velocity": 1
          },
          {
            "duration": 0.0032051312500129825,
            "durationTicks": 3,
            "midi": 57,
            "name": "A3",
            "ticks": 236760,
            "time": 252.94895824999998,
            "velocity": 1
          },
          {
            "duration": 0.07478639583331415,
            "durationTicks": 70,
            "midi": 59,
            "name": "B3",
            "ticks": 236880,
            "time": 253.07716349999998,
            "velocity": 1
          },
          {
            "duration": 0.0032051312500129825,
            "durationTicks": 3,
            "midi": 54,
            "name": "F#3",
            "ticks": 237000,
            "time": 253.20536875,
            "velocity": 0.6929133858267716
          },
          {
            "duration": 0.30769259999999576,
            "durationTicks": 288,
            "midi": 57,
            "name": "A3",
            "ticks": 237120,
            "time": 253.333574,
            "velocity": 1
          },
          {
            "duration": 0.08547016666668128,
            "durationTicks": 80,
            "midi": 59,
            "name": "B3",
            "ticks": 237480,
            "time": 253.71818975,
            "velocity": 1
          },
          {
            "duration": 0.10683770833333028,
            "durationTicks": 100,
            "midi": 60,
            "name": "C4",
            "ticks": 238320,
            "time": 254.6156265,
            "velocity": 1
          },
          {
            "duration": 0.15491467708329765,
            "durationTicks": 145,
            "midi": 59,
            "name": "B3",
            "ticks": 238440,
            "time": 254.74383175,
            "velocity": 1
          },
          {
            "duration": 0.0032051312500129825,
            "durationTicks": 3,
            "midi": 57,
            "name": "A3",
            "ticks": 238680,
            "time": 255.00024224999999,
            "velocity": 1
          },
          {
            "duration": 0.07478639583331415,
            "durationTicks": 70,
            "midi": 59,
            "name": "B3",
            "ticks": 238800,
            "time": 255.1284475,
            "velocity": 1
          },
          {
            "duration": 0.0032051312500129825,
            "durationTicks": 3,
            "midi": 54,
            "name": "F#3",
            "ticks": 238980,
            "time": 255.32075537499998,
            "velocity": 0.6929133858267716
          },
          {
            "duration": 0.3076926000000242,
            "durationTicks": 288,
            "midi": 57,
            "name": "A3",
            "ticks": 239040,
            "time": 255.38485799999998,
            "velocity": 1
          },
          {
            "duration": 0.08867529791666584,
            "durationTicks": 83,
            "midi": 54,
            "name": "F#3",
            "ticks": 239400,
            "time": 255.76947374999997,
            "velocity": 1
          }
        ]
      }
    ]
  }