{
  "header": {
    "keySignatures": [
      {
        "key": "C",
        "scale": "major",
        "ticks": 0
      }
    ],
    "meta": [],
    "name": "",
    "ppq": 192,
    "tempos": [
      {
        "bpm": 96,
        "ticks": 0
      }
    ],
    "timeSignatures": [
      {
        "ticks": 0,
        "timeSignature": [
          4,
          4
        ],
        "measures": 0
      }
    ]
  },
  "tracks": [
    {
      "channel": 0,
      "controlChanges": {
        "7": [
          {
            "number": 7,
            "ticks": 0,
            "time": 0,
            "value": 0.7874015748031497
          }
        ]
      },
      "pitchBends": [],
      "instrument": {
        "family": "piano",
        "number": 0,
        "name": "acoustic grand piano"
      },
      "name": "Steel-Str. Guitar",
      "notes": [],
      "endOfTrackTicks": 44544
    },
    {
      "channel": 0,
      "controlChanges": {},
      "pitchBends": [],
      "instrument": {
        "family": "guitar",
        "number": 25,
        "name": "acoustic guitar (nylon)"
      },
      "name": "",
      "notes": [
        {
          "duration": 0.3125,
          "durationTicks": 96,
          "midi": 59,
          "name": "B3",
          "ticks": 0,
          "time": 0,
          "velocity": 0.7480314960629921
        },
        {
          "duration": 0.3125,
          "durationTicks": 96,
          "midi": 55,
          "name": "G3",
          "ticks": 96,
          "time": 0.3125,
          "velocity": 0.7480314960629921
        },
        {
          "duration": 0.3125,
          "durationTicks": 96,
          "midi": 60,
          "name": "C4",
          "ticks": 192,
          "time": 0.625,
          "velocity": 0.7480314960629921
        },
        {
          "duration": 0.9375,
          "durationTicks": 288,
          "midi": 55,
          "name": "G3",
          "ticks": 288,
          "time": 0.9375,
          "velocity": 0.7480314960629921
        },
        {
          "duration": 0.3125,
          "durationTicks": 96,
          "midi": 71,
          "name": "B4",
          "ticks": 576,
          "time": 1.875,
          "velocity": 0.7480314960629921
        },
        {
          "duration": 0.15625,
          "durationTicks": 48,
          "midi": 71,
          "name": "B4",
          "ticks": 672,
          "time": 2.1875,
          "velocity": 0.7480314960629921
        },
        {
          "duration": 0.3125,
          "durationTicks": 96,
          "midi": 71,
          "name": "B4",
          "ticks": 720,
          "time": 2.34375,
          "velocity": 0.7480314960629921
        },
        {
          "duration": 0.15625,
          "durationTicks": 48,
          "midi": 55,
          "name": "G3",
          "ticks": 816,
          "time": 2.65625,
          "velocity": 0.7480314960629921
        },
        {
          "duration": 0.3125,
          "durationTicks": 96,
          "midi": 71,
          "name": "B4",
          "ticks": 864,
          "time": 2.8125,
          "velocity": 0.7480314960629921
        },
        {
          "duration": 0.15625,
          "durationTicks": 48,
          "midi": 71,
          "name": "B4",
          "ticks": 960,
          "time": 3.125,
          "velocity": 0.7480314960629921
        },
        {
          "duration": 0.15625,
          "durationTicks": 48,
          "midi": 71,
          "name": "B4",
          "ticks": 1008,
          "time": 3.28125,
          "velocity": 0.7480314960629921
        },
        {
          "duration": 0.46875,
          "durationTicks": 144,
          "midi": 71,
          "name": "B4",
          "ticks": 1056,
          "time": 3.4375,
          "velocity": 0.7480314960629921
        },
        {
          "duration": 0.15625,
          "durationTicks": 48,
          "midi": 55,
          "name": "G3",
          "ticks": 1200,
          "time": 3.90625,
          "velocity": 0.7480314960629921
        },
        {
          "duration": 0.3125,
          "durationTicks": 96,
          "midi": 71,
          "name": "B4",
          "ticks": 1248,
          "time": 4.0625,
          "velocity": 0.7480314960629921
        },
        {
          "duration": 0.3125,
          "durationTicks": 96,
          "midi": 59,
          "name": "B3",
          "ticks": 1344,
          "time": 4.375,
          "velocity": 0.7480314960629921
        },
        {
          "duration": 0.3125,
          "durationTicks": 96,
          "midi": 55,
          "name": "G3",
          "ticks": 1440,
          "time": 4.6875,
          "velocity": 0.7480314960629921
        },
        {
          "duration": 0.3125,
          "durationTicks": 96,
          "midi": 60,
          "name": "C4",
          "ticks": 1536,
          "time": 5,
          "velocity": 0.7480314960629921
        },
        {
          "duration": 0.9375,
          "durationTicks": 288,
          "midi": 55,
          "name": "G3",
          "ticks": 1632,
          "time": 5.3125,
          "velocity": 0.7480314960629921
        },
        {
          "duration": 0.3125,
          "durationTicks": 96,
          "midi": 71,
          "name": "B4",
          "ticks": 1920,
          "time": 6.25,
          "velocity": 0.7480314960629921
        },
        {
          "duration": 0.15625,
          "durationTicks": 48,
          "midi": 71,
          "name": "B4",
          "ticks": 2016,
          "time": 6.5625,
          "velocity": 0.7480314960629921
        },
        {
          "duration": 0.3125,
          "durationTicks": 96,
          "midi": 71,
          "name": "B4",
          "ticks": 2064,
          "time": 6.71875,
          "velocity": 0.7480314960629921
        },
        {
          "duration": 0.15625,
          "durationTicks": 48,
          "midi": 55,
          "name": "G3",
          "ticks": 2160,
          "time": 7.03125,
          "velocity": 0.7480314960629921
        },
        {
          "duration": 0.3125,
          "durationTicks": 96,
          "midi": 71,
          "name": "B4",
          "ticks": 2208,
          "time": 7.1875,
          "velocity": 0.7480314960629921
        },
        {
          "duration": 0.15625,
          "durationTicks": 48,
          "midi": 71,
          "name": "B4",
          "ticks": 2304,
          "time": 7.5,
          "velocity": 0.7480314960629921
        },
        {
          "duration": 0.15625,
          "durationTicks": 48,
          "midi": 71,
          "name": "B4",
          "ticks": 2352,
          "time": 7.65625,
          "velocity": 0.7480314960629921
        },
        {
          "duration": 0.46875,
          "durationTicks": 144,
          "midi": 71,
          "name": "B4",
          "ticks": 2400,
          "time": 7.8125,
          "velocity": 0.7480314960629921
        },
        {
          "duration": 0.15625,
          "durationTicks": 48,
          "midi": 55,
          "name": "G3",
          "ticks": 2544,
          "time": 8.28125,
          "velocity": 0.7480314960629921
        },
        {
          "duration": 0.3125,
          "durationTicks": 96,
          "midi": 71,
          "name": "B4",
          "ticks": 2592,
          "time": 8.4375,
          "velocity": 0.7480314960629921
        },
        {
          "duration": 0.3125,
          "durationTicks": 96,
          "midi": 64,
          "name": "E4",
          "ticks": 2688,
          "time": 8.75,
          "velocity": 0.7480314960629921
        },
        {
          "duration": 0.3125,
          "durationTicks": 96,
          "midi": 55,
          "name": "G3",
          "ticks": 2784,
          "time": 9.0625,
          "velocity": 0.7480314960629921
        },
        {
          "duration": 0.3125,
          "durationTicks": 96,
          "midi": 67,
          "name": "G4",
          "ticks": 2880,
          "time": 9.375,
          "velocity": 0.7480314960629921
        },
        {
          "duration": 0.3125,
          "durationTicks": 96,
          "midi": 55,
          "name": "G3",
          "ticks": 2976,
          "time": 9.6875,
          "velocity": 0.7480314960629921
        },
        {
          "duration": 0.3125,
          "durationTicks": 96,
          "midi": 66,
          "name": "F#4",
          "ticks": 3072,
          "time": 10,
          "velocity": 0.7480314960629921
        },
        {
          "duration": 0.3125,
          "durationTicks": 96,
          "midi": 55,
          "name": "G3",
          "ticks": 3168,
          "time": 10.3125,
          "velocity": 0.7480314960629921
        },
        {
          "duration": 0.3125,
          "durationTicks": 96,
          "midi": 69,
          "name": "A4",
          "ticks": 3264,
          "time": 10.625,
          "velocity": 0.7480314960629921
        },
        {
          "duration": 0.3125,
          "durationTicks": 96,
          "midi": 55,
          "name": "G3",
          "ticks": 3360,
          "time": 10.9375,
          "velocity": 0.7480314960629921
        },
        {
          "duration": 0.3125,
          "durationTicks": 96,
          "midi": 67,
          "name": "G4",
          "ticks": 3456,
          "time": 11.25,
          "velocity": 0.7480314960629921
        },
        {
          "duration": 0.15625,
          "durationTicks": 48,
          "midi": 67,
          "name": "G4",
          "ticks": 3552,
          "time": 11.5625,
          "velocity": 0.7480314960629921
        },
        {
          "duration": 0.3125,
          "durationTicks": 96,
          "midi": 67,
          "name": "G4",
          "ticks": 3600,
          "time": 11.71875,
          "velocity": 0.7480314960629921
        },
        {
          "duration": 0.15625,
          "durationTicks": 48,
          "midi": 55,
          "name": "G3",
          "ticks": 3696,
          "time": 12.03125,
          "velocity": 0.7480314960629921
        },
        {
          "duration": 0.3125,
          "durationTicks": 96,
          "midi": 67,
          "name": "G4",
          "ticks": 3744,
          "time": 12.1875,
          "velocity": 0.7480314960629921
        },
        {
          "duration": 0.3125,
          "durationTicks": 96,
          "midi": 67,
          "name": "G4",
          "ticks": 3840,
          "time": 12.5,
          "velocity": 0.7480314960629921
        },
        {
          "duration": 0.15625,
          "durationTicks": 48,
          "midi": 67,
          "name": "G4",
          "ticks": 3936,
          "time": 12.8125,
          "velocity": 0.7480314960629921
        },
        {
          "duration": 0.3125,
          "durationTicks": 96,
          "midi": 67,
          "name": "G4",
          "ticks": 3984,
          "time": 12.96875,
          "velocity": 0.7480314960629921
        },
        {
          "duration": 0.15625,
          "durationTicks": 48,
          "midi": 55,
          "name": "G3",
          "ticks": 4080,
          "time": 13.28125,
          "velocity": 0.7480314960629921
        },
        {
          "duration": 0.3125,
          "durationTicks": 96,
          "midi": 67,
          "name": "G4",
          "ticks": 4128,
          "time": 13.4375,
          "velocity": 0.7480314960629921
        },
        {
          "duration": 0.3125,
          "durationTicks": 96,
          "midi": 67,
          "name": "G4",
          "ticks": 4224,
          "time": 13.75,
          "velocity": 0.7480314960629921
        },
        {
          "duration": 0.3125,
          "durationTicks": 96,
          "midi": 55,
          "name": "G3",
          "ticks": 4320,
          "time": 14.0625,
          "velocity": 0.7480314960629921
        },
        {
          "duration": 0.3125,
          "durationTicks": 96,
          "midi": 67,
          "name": "G4",
          "ticks": 4416,
          "time": 14.375,
          "velocity": 0.7480314960629921
        },
        {
          "duration": 0.3125,
          "durationTicks": 96,
          "midi": 55,
          "name": "G3",
          "ticks": 4512,
          "time": 14.6875,
          "velocity": 0.7480314960629921
        },
        {
          "duration": 0.3125,
          "durationTicks": 96,
          "midi": 64,
          "name": "E4",
          "ticks": 4608,
          "time": 15,
          "velocity": 0.7480314960629921
        },
        {
          "duration": 0.15625,
          "durationTicks": 48,
          "midi": 64,
          "name": "E4",
          "ticks": 4704,
          "time": 15.3125,
          "velocity": 0.7480314960629921
        },
        {
          "duration": 0.3125,
          "durationTicks": 96,
          "midi": 64,
          "name": "E4",
          "ticks": 4752,
          "time": 15.46875,
          "velocity": 0.7480314960629921
        },
        {
          "duration": 0.15625,
          "durationTicks": 48,
          "midi": 55,
          "name": "G3",
          "ticks": 4848,
          "time": 15.78125,
          "velocity": 0.7480314960629921
        },
        {
          "duration": 0.3125,
          "durationTicks": 96,
          "midi": 64,
          "name": "E4",
          "ticks": 4896,
          "time": 15.9375,
          "velocity": 0.7480314960629921
        },
        {
          "duration": 0.3125,
          "durationTicks": 96,
          "midi": 63,
          "name": "D#4",
          "ticks": 4992,
          "time": 16.25,
          "velocity": 0.7480314960629921
        },
        {
          "duration": 0.15625,
          "durationTicks": 48,
          "midi": 63,
          "name": "D#4",
          "ticks": 5088,
          "time": 16.5625,
          "velocity": 0.7480314960629921
        },
        {
          "duration": 0.3125,
          "durationTicks": 96,
          "midi": 63,
          "name": "D#4",
          "ticks": 5136,
          "time": 16.71875,
          "velocity": 0.7480314960629921
        },
        {
          "duration": 0.15625,
          "durationTicks": 48,
          "midi": 55,
          "name": "G3",
          "ticks": 5232,
          "time": 17.03125,
          "velocity": 0.7480314960629921
        },
        {
          "duration": 0.3125,
          "durationTicks": 96,
          "midi": 63,
          "name": "D#4",
          "ticks": 5280,
          "time": 17.1875,
          "velocity": 0.7480314960629921
        },
        {
          "duration": 0.3125,
          "durationTicks": 96,
          "midi": 62,
          "name": "D4",
          "ticks": 5376,
          "time": 17.5,
          "velocity": 0.7480314960629921
        },
        {
          "duration": 0.15625,
          "durationTicks": 48,
          "midi": 62,
          "name": "D4",
          "ticks": 5472,
          "time": 17.8125,
          "velocity": 0.7480314960629921
        },
        {
          "duration": 0.3125,
          "durationTicks": 96,
          "midi": 62,
          "name": "D4",
          "ticks": 5520,
          "time": 17.96875,
          "velocity": 0.7480314960629921
        },
        {
          "duration": 0.15625,
          "durationTicks": 48,
          "midi": 55,
          "name": "G3",
          "ticks": 5616,
          "time": 18.28125,
          "velocity": 0.7480314960629921
        },
        {
          "duration": 0.3125,
          "durationTicks": 96,
          "midi": 62,
          "name": "D4",
          "ticks": 5664,
          "time": 18.4375,
          "velocity": 0.7480314960629921
        },
        {
          "duration": 0.3125,
          "durationTicks": 96,
          "midi": 61,
          "name": "C#4",
          "ticks": 5760,
          "time": 18.75,
          "velocity": 0.7480314960629921
        },
        {
          "duration": 0.15625,
          "durationTicks": 48,
          "midi": 61,
          "name": "C#4",
          "ticks": 5856,
          "time": 19.0625,
          "velocity": 0.7480314960629921
        },
        {
          "duration": 0.46875,
          "durationTicks": 144,
          "midi": 61,
          "name": "C#4",
          "ticks": 5904,
          "time": 19.21875,
          "velocity": 0.7480314960629921
        },
        {
          "duration": 0.15625,
          "durationTicks": 48,
          "midi": 55,
          "name": "G3",
          "ticks": 6048,
          "time": 19.6875,
          "velocity": 0.7480314960629921
        },
        {
          "duration": 0.15625,
          "durationTicks": 48,
          "midi": 61,
          "name": "C#4",
          "ticks": 6096,
          "time": 19.84375,
          "velocity": 0.7480314960629921
        },
        {
          "duration": 0.3125,
          "durationTicks": 96,
          "midi": 60,
          "name": "C4",
          "ticks": 6144,
          "time": 20,
          "velocity": 0.7480314960629921
        },
        {
          "duration": 0.15625,
          "durationTicks": 48,
          "midi": 60,
          "name": "C4",
          "ticks": 6240,
          "time": 20.3125,
          "velocity": 0.7480314960629921
        },
        {
          "duration": 0.3125,
          "durationTicks": 96,
          "midi": 60,
          "name": "C4",
          "ticks": 6288,
          "time": 20.46875,
          "velocity": 0.7480314960629921
        },
        {
          "duration": 0.15625,
          "durationTicks": 48,
          "midi": 55,
          "name": "G3",
          "ticks": 6384,
          "time": 20.78125,
          "velocity": 0.7480314960629921
        },
        {
          "duration": 0.3125,
          "durationTicks": 96,
          "midi": 60,
          "name": "C4",
          "ticks": 6432,
          "time": 20.9375,
          "velocity": 0.7480314960629921
        },
        {
          "duration": 0.3125,
          "durationTicks": 96,
          "midi": 59,
          "name": "B3",
          "ticks": 6528,
          "time": 21.25,
          "velocity": 0.7480314960629921
        },
        {
          "duration": 0.15625,
          "durationTicks": 48,
          "midi": 59,
          "name": "B3",
          "ticks": 6624,
          "time": 21.5625,
          "velocity": 0.7480314960629921
        },
        {
          "duration": 0.3125,
          "durationTicks": 96,
          "midi": 59,
          "name": "B3",
          "ticks": 6672,
          "time": 21.71875,
          "velocity": 0.7480314960629921
        },
        {
          "duration": 0.15625,
          "durationTicks": 48,
          "midi": 55,
          "name": "G3",
          "ticks": 6768,
          "time": 22.03125,
          "velocity": 0.7480314960629921
        },
        {
          "duration": 0.3125,
          "durationTicks": 96,
          "midi": 59,
          "name": "B3",
          "ticks": 6816,
          "time": 22.1875,
          "velocity": 0.7480314960629921
        },
        {
          "duration": 0.3125,
          "durationTicks": 96,
          "midi": 64,
          "name": "E4",
          "ticks": 6912,
          "time": 22.5,
          "velocity": 0.7480314960629921
        },
        {
          "duration": 0.3125,
          "durationTicks": 96,
          "midi": 55,
          "name": "G3",
          "ticks": 7008,
          "time": 22.8125,
          "velocity": 0.7480314960629921
        },
        {
          "duration": 0.3125,
          "durationTicks": 96,
          "midi": 62,
          "name": "D4",
          "ticks": 7104,
          "time": 23.125,
          "velocity": 0.7480314960629921
        },
        {
          "duration": 0.3125,
          "durationTicks": 96,
          "midi": 55,
          "name": "G3",
          "ticks": 7200,
          "time": 23.4375,
          "velocity": 0.7480314960629921
        },
        {
          "duration": 0.3125,
          "durationTicks": 96,
          "midi": 61,
          "name": "C#4",
          "ticks": 7296,
          "time": 23.75,
          "velocity": 0.7480314960629921
        },
        {
          "duration": 0.15625,
          "durationTicks": 48,
          "midi": 61,
          "name": "C#4",
          "ticks": 7392,
          "time": 24.0625,
          "velocity": 0.7480314960629921
        },
        {
          "duration": 0.3125,
          "durationTicks": 96,
          "midi": 61,
          "name": "C#4",
          "ticks": 7440,
          "time": 24.21875,
          "velocity": 0.7480314960629921
        },
        {
          "duration": 0.15625,
          "durationTicks": 48,
          "midi": 55,
          "name": "G3",
          "ticks": 7536,
          "time": 24.53125,
          "velocity": 0.7480314960629921
        },
        {
          "duration": 0.3125,
          "durationTicks": 96,
          "midi": 61,
          "name": "C#4",
          "ticks": 7584,
          "time": 24.6875,
          "velocity": 0.7480314960629921
        },
        {
          "duration": 0.3125,
          "durationTicks": 96,
          "midi": 60,
          "name": "C4",
          "ticks": 7680,
          "time": 25,
          "velocity": 0.7480314960629921
        },
        {
          "duration": 0.15625,
          "durationTicks": 48,
          "midi": 60,
          "name": "C4",
          "ticks": 7776,
          "time": 25.3125,
          "velocity": 0.7480314960629921
        },
        {
          "duration": 0.3125,
          "durationTicks": 96,
          "midi": 60,
          "name": "C4",
          "ticks": 7824,
          "time": 25.46875,
          "velocity": 0.7480314960629921
        },
        {
          "duration": 0.15625,
          "durationTicks": 48,
          "midi": 55,
          "name": "G3",
          "ticks": 7920,
          "time": 25.78125,
          "velocity": 0.7480314960629921
        },
        {
          "duration": 0.3125,
          "durationTicks": 96,
          "midi": 60,
          "name": "C4",
          "ticks": 7968,
          "time": 25.9375,
          "velocity": 0.7480314960629921
        },
        {
          "duration": 0.3125,
          "durationTicks": 96,
          "midi": 59,
          "name": "B3",
          "ticks": 8064,
          "time": 26.25,
          "velocity": 0.7480314960629921
        },
        {
          "duration": 0.15625,
          "durationTicks": 48,
          "midi": 55,
          "name": "G3",
          "ticks": 8160,
          "time": 26.5625,
          "velocity": 0.7480314960629921
        },
        {
          "duration": 0.3125,
          "durationTicks": 96,
          "midi": 59,
          "name": "B3",
          "ticks": 8208,
          "time": 26.71875,
          "velocity": 0.7480314960629921
        },
        {
          "duration": 0.15625,
          "durationTicks": 48,
          "midi": 55,
          "name": "G3",
          "ticks": 8304,
          "time": 27.03125,
          "velocity": 0.7480314960629921
        },
        {
          "duration": 0.3125,
          "durationTicks": 96,
          "midi": 59,
          "name": "B3",
          "ticks": 8352,
          "time": 27.1875,
          "velocity": 0.7480314960629921
        },
        {
          "duration": 0.3125,
          "durationTicks": 96,
          "midi": 59,
          "name": "B3",
          "ticks": 8448,
          "time": 27.5,
          "velocity": 0.7480314960629921
        },
        {
          "duration": 0.3125,
          "durationTicks": 96,
          "midi": 55,
          "name": "G3",
          "ticks": 8544,
          "time": 27.8125,
          "velocity": 0.7480314960629921
        },
        {
          "duration": 0.3125,
          "durationTicks": 96,
          "midi": 60,
          "name": "C4",
          "ticks": 8640,
          "time": 28.125,
          "velocity": 0.7480314960629921
        },
        {
          "duration": 0.9375,
          "durationTicks": 288,
          "midi": 55,
          "name": "G3",
          "ticks": 8736,
          "time": 28.4375,
          "velocity": 0.7480314960629921
        },
        {
          "duration": 0.3125,
          "durationTicks": 96,
          "midi": 71,
          "name": "B4",
          "ticks": 9024,
          "time": 29.375,
          "velocity": 0.7480314960629921
        },
        {
          "duration": 0.15625,
          "durationTicks": 48,
          "midi": 71,
          "name": "B4",
          "ticks": 9120,
          "time": 29.6875,
          "velocity": 0.7480314960629921
        },
        {
          "duration": 0.3125,
          "durationTicks": 96,
          "midi": 71,
          "name": "B4",
          "ticks": 9168,
          "time": 29.84375,
          "velocity": 0.7480314960629921
        },
        {
          "duration": 0.15625,
          "durationTicks": 48,
          "midi": 55,
          "name": "G3",
          "ticks": 9264,
          "time": 30.15625,
          "velocity": 0.7480314960629921
        },
        {
          "duration": 0.3125,
          "durationTicks": 96,
          "midi": 71,
          "name": "B4",
          "ticks": 9312,
          "time": 30.3125,
          "velocity": 0.7480314960629921
        },
        {
          "duration": 0.15625,
          "durationTicks": 48,
          "midi": 71,
          "name": "B4",
          "ticks": 9408,
          "time": 30.625,
          "velocity": 0.7480314960629921
        },
        {
          "duration": 0.15625,
          "durationTicks": 48,
          "midi": 71,
          "name": "B4",
          "ticks": 9456,
          "time": 30.78125,
          "velocity": 0.7480314960629921
        },
        {
          "duration": 0.46875,
          "durationTicks": 144,
          "midi": 71,
          "name": "B4",
          "ticks": 9504,
          "time": 30.9375,
          "velocity": 0.7480314960629921
        },
        {
          "duration": 0.15625,
          "durationTicks": 48,
          "midi": 55,
          "name": "G3",
          "ticks": 9648,
          "time": 31.40625,
          "velocity": 0.7480314960629921
        },
        {
          "duration": 0.3125,
          "durationTicks": 96,
          "midi": 71,
          "name": "B4",
          "ticks": 9696,
          "time": 31.5625,
          "velocity": 0.7480314960629921
        },
        {
          "duration": 0.3125,
          "durationTicks": 96,
          "midi": 64,
          "name": "E4",
          "ticks": 9792,
          "time": 31.875,
          "velocity": 0.7480314960629921
        },
        {
          "duration": 0.3125,
          "durationTicks": 96,
          "midi": 55,
          "name": "G3",
          "ticks": 9888,
          "time": 32.1875,
          "velocity": 0.7480314960629921
        },
        {
          "duration": 0.3125,
          "durationTicks": 96,
          "midi": 67,
          "name": "G4",
          "ticks": 9984,
          "time": 32.5,
          "velocity": 0.7480314960629921
        },
        {
          "duration": 0.3125,
          "durationTicks": 96,
          "midi": 55,
          "name": "G3",
          "ticks": 10080,
          "time": 32.8125,
          "velocity": 0.7480314960629921
        },
        {
          "duration": 0.3125,
          "durationTicks": 96,
          "midi": 66,
          "name": "F#4",
          "ticks": 10176,
          "time": 33.125,
          "velocity": 0.7480314960629921
        },
        {
          "duration": 0.3125,
          "durationTicks": 96,
          "midi": 55,
          "name": "G3",
          "ticks": 10272,
          "time": 33.4375,
          "velocity": 0.7480314960629921
        },
        {
          "duration": 0.3125,
          "durationTicks": 96,
          "midi": 69,
          "name": "A4",
          "ticks": 10368,
          "time": 33.75,
          "velocity": 0.7480314960629921
        },
        {
          "duration": 0.3125,
          "durationTicks": 96,
          "midi": 55,
          "name": "G3",
          "ticks": 10464,
          "time": 34.0625,
          "velocity": 0.7480314960629921
        },
        {
          "duration": 0.3125,
          "durationTicks": 96,
          "midi": 67,
          "name": "G4",
          "ticks": 10560,
          "time": 34.375,
          "velocity": 0.7480314960629921
        },
        {
          "duration": 0.15625,
          "durationTicks": 48,
          "midi": 67,
          "name": "G4",
          "ticks": 10656,
          "time": 34.6875,
          "velocity": 0.7480314960629921
        },
        {
          "duration": 0.3125,
          "durationTicks": 96,
          "midi": 67,
          "name": "G4",
          "ticks": 10704,
          "time": 34.84375,
          "velocity": 0.7480314960629921
        },
        {
          "duration": 0.15625,
          "durationTicks": 48,
          "midi": 55,
          "name": "G3",
          "ticks": 10800,
          "time": 35.15625,
          "velocity": 0.7480314960629921
        },
        {
          "duration": 0.3125,
          "durationTicks": 96,
          "midi": 67,
          "name": "G4",
          "ticks": 10848,
          "time": 35.3125,
          "velocity": 0.7480314960629921
        },
        {
          "duration": 0.3125,
          "durationTicks": 96,
          "midi": 67,
          "name": "G4",
          "ticks": 10944,
          "time": 35.625,
          "velocity": 0.7480314960629921
        },
        {
          "duration": 0.15625,
          "durationTicks": 48,
          "midi": 67,
          "name": "G4",
          "ticks": 11040,
          "time": 35.9375,
          "velocity": 0.7480314960629921
        },
        {
          "duration": 0.3125,
          "durationTicks": 96,
          "midi": 67,
          "name": "G4",
          "ticks": 11088,
          "time": 36.09375,
          "velocity": 0.7480314960629921
        },
        {
          "duration": 0.15625,
          "durationTicks": 48,
          "midi": 55,
          "name": "G3",
          "ticks": 11184,
          "time": 36.40625,
          "velocity": 0.7480314960629921
        },
        {
          "duration": 0.3125,
          "durationTicks": 96,
          "midi": 67,
          "name": "G4",
          "ticks": 11232,
          "time": 36.5625,
          "velocity": 0.7480314960629921
        },
        {
          "duration": 0.3125,
          "durationTicks": 96,
          "midi": 67,
          "name": "G4",
          "ticks": 11328,
          "time": 36.875,
          "velocity": 0.7480314960629921
        },
        {
          "duration": 0.3125,
          "durationTicks": 96,
          "midi": 55,
          "name": "G3",
          "ticks": 11424,
          "time": 37.1875,
          "velocity": 0.7480314960629921
        },
        {
          "duration": 0.3125,
          "durationTicks": 96,
          "midi": 67,
          "name": "G4",
          "ticks": 11520,
          "time": 37.5,
          "velocity": 0.7480314960629921
        },
        {
          "duration": 0.3125,
          "durationTicks": 96,
          "midi": 55,
          "name": "G3",
          "ticks": 11616,
          "time": 37.8125,
          "velocity": 0.7480314960629921
        },
        {
          "duration": 0.3125,
          "durationTicks": 96,
          "midi": 64,
          "name": "E4",
          "ticks": 11712,
          "time": 38.125,
          "velocity": 0.7480314960629921
        },
        {
          "duration": 0.15625,
          "durationTicks": 48,
          "midi": 64,
          "name": "E4",
          "ticks": 11808,
          "time": 38.4375,
          "velocity": 0.7480314960629921
        },
        {
          "duration": 0.3125,
          "durationTicks": 96,
          "midi": 64,
          "name": "E4",
          "ticks": 11856,
          "time": 38.59375,
          "velocity": 0.7480314960629921
        },
        {
          "duration": 0.15625,
          "durationTicks": 48,
          "midi": 55,
          "name": "G3",
          "ticks": 11952,
          "time": 38.90625,
          "velocity": 0.7480314960629921
        },
        {
          "duration": 0.3125,
          "durationTicks": 96,
          "midi": 64,
          "name": "E4",
          "ticks": 12000,
          "time": 39.0625,
          "velocity": 0.7480314960629921
        },
        {
          "duration": 0.3125,
          "durationTicks": 96,
          "midi": 63,
          "name": "D#4",
          "ticks": 12096,
          "time": 39.375,
          "velocity": 0.7480314960629921
        },
        {
          "duration": 0.15625,
          "durationTicks": 48,
          "midi": 63,
          "name": "D#4",
          "ticks": 12192,
          "time": 39.6875,
          "velocity": 0.7480314960629921
        },
        {
          "duration": 0.3125,
          "durationTicks": 96,
          "midi": 63,
          "name": "D#4",
          "ticks": 12240,
          "time": 39.84375,
          "velocity": 0.7480314960629921
        },
        {
          "duration": 0.15625,
          "durationTicks": 48,
          "midi": 55,
          "name": "G3",
          "ticks": 12336,
          "time": 40.15625,
          "velocity": 0.7480314960629921
        },
        {
          "duration": 0.3125,
          "durationTicks": 96,
          "midi": 63,
          "name": "D#4",
          "ticks": 12384,
          "time": 40.3125,
          "velocity": 0.7480314960629921
        },
        {
          "duration": 0.3125,
          "durationTicks": 96,
          "midi": 62,
          "name": "D4",
          "ticks": 12480,
          "time": 40.625,
          "velocity": 0.7480314960629921
        },
        {
          "duration": 0.15625,
          "durationTicks": 48,
          "midi": 62,
          "name": "D4",
          "ticks": 12576,
          "time": 40.9375,
          "velocity": 0.7480314960629921
        },
        {
          "duration": 0.3125,
          "durationTicks": 96,
          "midi": 62,
          "name": "D4",
          "ticks": 12624,
          "time": 41.09375,
          "velocity": 0.7480314960629921
        },
        {
          "duration": 0.15625,
          "durationTicks": 48,
          "midi": 55,
          "name": "G3",
          "ticks": 12720,
          "time": 41.40625,
          "velocity": 0.7480314960629921
        },
        {
          "duration": 0.3125,
          "durationTicks": 96,
          "midi": 62,
          "name": "D4",
          "ticks": 12768,
          "time": 41.5625,
          "velocity": 0.7480314960629921
        },
        {
          "duration": 0.3125,
          "durationTicks": 96,
          "midi": 61,
          "name": "C#4",
          "ticks": 12864,
          "time": 41.875,
          "velocity": 0.7480314960629921
        },
        {
          "duration": 0.15625,
          "durationTicks": 48,
          "midi": 61,
          "name": "C#4",
          "ticks": 12960,
          "time": 42.1875,
          "velocity": 0.7480314960629921
        },
        {
          "duration": 0.46875,
          "durationTicks": 144,
          "midi": 61,
          "name": "C#4",
          "ticks": 13008,
          "time": 42.34375,
          "velocity": 0.7480314960629921
        },
        {
          "duration": 0.15625,
          "durationTicks": 48,
          "midi": 55,
          "name": "G3",
          "ticks": 13152,
          "time": 42.8125,
          "velocity": 0.7480314960629921
        },
        {
          "duration": 0.15625,
          "durationTicks": 48,
          "midi": 61,
          "name": "C#4",
          "ticks": 13200,
          "time": 42.96875,
          "velocity": 0.7480314960629921
        },
        {
          "duration": 0.3125,
          "durationTicks": 96,
          "midi": 60,
          "name": "C4",
          "ticks": 13248,
          "time": 43.125,
          "velocity": 0.7480314960629921
        },
        {
          "duration": 0.15625,
          "durationTicks": 48,
          "midi": 60,
          "name": "C4",
          "ticks": 13344,
          "time": 43.4375,
          "velocity": 0.7480314960629921
        },
        {
          "duration": 0.3125,
          "durationTicks": 96,
          "midi": 60,
          "name": "C4",
          "ticks": 13392,
          "time": 43.59375,
          "velocity": 0.7480314960629921
        },
        {
          "duration": 0.15625,
          "durationTicks": 48,
          "midi": 55,
          "name": "G3",
          "ticks": 13488,
          "time": 43.90625,
          "velocity": 0.7480314960629921
        },
        {
          "duration": 0.3125,
          "durationTicks": 96,
          "midi": 60,
          "name": "C4",
          "ticks": 13536,
          "time": 44.0625,
          "velocity": 0.7480314960629921
        },
        {
          "duration": 0.3125,
          "durationTicks": 96,
          "midi": 59,
          "name": "B3",
          "ticks": 13632,
          "time": 44.375,
          "velocity": 0.7480314960629921
        },
        {
          "duration": 0.15625,
          "durationTicks": 48,
          "midi": 59,
          "name": "B3",
          "ticks": 13728,
          "time": 44.6875,
          "velocity": 0.7480314960629921
        },
        {
          "duration": 0.3125,
          "durationTicks": 96,
          "midi": 59,
          "name": "B3",
          "ticks": 13776,
          "time": 44.84375,
          "velocity": 0.7480314960629921
        },
        {
          "duration": 0.15625,
          "durationTicks": 48,
          "midi": 55,
          "name": "G3",
          "ticks": 13872,
          "time": 45.15625,
          "velocity": 0.7480314960629921
        },
        {
          "duration": 0.3125,
          "durationTicks": 96,
          "midi": 59,
          "name": "B3",
          "ticks": 13920,
          "time": 45.3125,
          "velocity": 0.7480314960629921
        },
        {
          "duration": 0.3125,
          "durationTicks": 96,
          "midi": 69,
          "name": "A4",
          "ticks": 14016,
          "time": 45.625,
          "velocity": 0.7480314960629921
        },
        {
          "duration": 0.3125,
          "durationTicks": 96,
          "midi": 55,
          "name": "G3",
          "ticks": 14112,
          "time": 45.9375,
          "velocity": 0.7480314960629921
        },
        {
          "duration": 0.3125,
          "durationTicks": 96,
          "midi": 67,
          "name": "G4",
          "ticks": 14208,
          "time": 46.25,
          "velocity": 0.7480314960629921
        },
        {
          "duration": 0.3125,
          "durationTicks": 96,
          "midi": 55,
          "name": "G3",
          "ticks": 14304,
          "time": 46.5625,
          "velocity": 0.7480314960629921
        },
        {
          "duration": 0.3125,
          "durationTicks": 96,
          "midi": 65,
          "name": "F4",
          "ticks": 14400,
          "time": 46.875,
          "velocity": 0.7480314960629921
        },
        {
          "duration": 0.3125,
          "durationTicks": 96,
          "midi": 55,
          "name": "G3",
          "ticks": 14496,
          "time": 47.1875,
          "velocity": 0.7480314960629921
        },
        {
          "duration": 0.3125,
          "durationTicks": 96,
          "midi": 64,
          "name": "E4",
          "ticks": 14592,
          "time": 47.5,
          "velocity": 0.7480314960629921
        },
        {
          "duration": 0.3125,
          "durationTicks": 96,
          "midi": 55,
          "name": "G3",
          "ticks": 14688,
          "time": 47.8125,
          "velocity": 0.7480314960629921
        },
        {
          "duration": 0.3125,
          "durationTicks": 96,
          "midi": 62,
          "name": "D4",
          "ticks": 14784,
          "time": 48.125,
          "velocity": 0.7480314960629921
        },
        {
          "duration": 0.15625,
          "durationTicks": 48,
          "midi": 62,
          "name": "D4",
          "ticks": 14880,
          "time": 48.4375,
          "velocity": 0.7480314960629921
        },
        {
          "duration": 0.3125,
          "durationTicks": 96,
          "midi": 62,
          "name": "D4",
          "ticks": 14928,
          "time": 48.59375,
          "velocity": 0.7480314960629921
        },
        {
          "duration": 0.15625,
          "durationTicks": 48,
          "midi": 55,
          "name": "G3",
          "ticks": 15024,
          "time": 48.90625,
          "velocity": 0.7480314960629921
        },
        {
          "duration": 0.3125,
          "durationTicks": 96,
          "midi": 62,
          "name": "D4",
          "ticks": 15072,
          "time": 49.0625,
          "velocity": 0.7480314960629921
        },
        {
          "duration": 0.3125,
          "durationTicks": 96,
          "midi": 64,
          "name": "E4",
          "ticks": 15168,
          "time": 49.375,
          "velocity": 0.7480314960629921
        },
        {
          "duration": 0.15625,
          "durationTicks": 48,
          "midi": 64,
          "name": "E4",
          "ticks": 15264,
          "time": 49.6875,
          "velocity": 0.7480314960629921
        },
        {
          "duration": 0.3125,
          "durationTicks": 96,
          "midi": 64,
          "name": "E4",
          "ticks": 15312,
          "time": 49.84375,
          "velocity": 0.7480314960629921
        },
        {
          "duration": 0.15625,
          "durationTicks": 48,
          "midi": 55,
          "name": "G3",
          "ticks": 15408,
          "time": 50.15625,
          "velocity": 0.7480314960629921
        },
        {
          "duration": 0.3125,
          "durationTicks": 96,
          "midi": 64,
          "name": "E4",
          "ticks": 15456,
          "time": 50.3125,
          "velocity": 0.7480314960629921
        },
        {
          "duration": 0.3125,
          "durationTicks": 96,
          "midi": 69,
          "name": "A4",
          "ticks": 15552,
          "time": 50.625,
          "velocity": 0.7480314960629921
        },
        {
          "duration": 0.3125,
          "durationTicks": 96,
          "midi": 55,
          "name": "G3",
          "ticks": 15648,
          "time": 50.9375,
          "velocity": 0.7480314960629921
        },
        {
          "duration": 0.3125,
          "durationTicks": 96,
          "midi": 67,
          "name": "G4",
          "ticks": 15744,
          "time": 51.25,
          "velocity": 0.7480314960629921
        },
        {
          "duration": 0.3125,
          "durationTicks": 96,
          "midi": 55,
          "name": "G3",
          "ticks": 15840,
          "time": 51.5625,
          "velocity": 0.7480314960629921
        },
        {
          "duration": 0.3125,
          "durationTicks": 96,
          "midi": 65,
          "name": "F4",
          "ticks": 15936,
          "time": 51.875,
          "velocity": 0.7480314960629921
        },
        {
          "duration": 0.3125,
          "durationTicks": 96,
          "midi": 55,
          "name": "G3",
          "ticks": 16032,
          "time": 52.1875,
          "velocity": 0.7480314960629921
        },
        {
          "duration": 0.3125,
          "durationTicks": 96,
          "midi": 64,
          "name": "E4",
          "ticks": 16128,
          "time": 52.5,
          "velocity": 0.7480314960629921
        },
        {
          "duration": 0.3125,
          "durationTicks": 96,
          "midi": 55,
          "name": "G3",
          "ticks": 16224,
          "time": 52.8125,
          "velocity": 0.7480314960629921
        },
        {
          "duration": 0.3125,
          "durationTicks": 96,
          "midi": 62,
          "name": "D4",
          "ticks": 16320,
          "time": 53.125,
          "velocity": 0.7480314960629921
        },
        {
          "duration": 0.15625,
          "durationTicks": 48,
          "midi": 62,
          "name": "D4",
          "ticks": 16416,
          "time": 53.4375,
          "velocity": 0.7480314960629921
        },
        {
          "duration": 0.3125,
          "durationTicks": 96,
          "midi": 62,
          "name": "D4",
          "ticks": 16464,
          "time": 53.59375,
          "velocity": 0.7480314960629921
        },
        {
          "duration": 0.15625,
          "durationTicks": 48,
          "midi": 55,
          "name": "G3",
          "ticks": 16560,
          "time": 53.90625,
          "velocity": 0.7480314960629921
        },
        {
          "duration": 0.3125,
          "durationTicks": 96,
          "midi": 62,
          "name": "D4",
          "ticks": 16608,
          "time": 54.0625,
          "velocity": 0.7480314960629921
        },
        {
          "duration": 0.3125,
          "durationTicks": 96,
          "midi": 61,
          "name": "C#4",
          "ticks": 16704,
          "time": 54.375,
          "velocity": 0.7480314960629921
        },
        {
          "duration": 0.15625,
          "durationTicks": 48,
          "midi": 61,
          "name": "C#4",
          "ticks": 16800,
          "time": 54.6875,
          "velocity": 0.7480314960629921
        },
        {
          "duration": 0.3125,
          "durationTicks": 96,
          "midi": 61,
          "name": "C#4",
          "ticks": 16848,
          "time": 54.84375,
          "velocity": 0.7480314960629921
        },
        {
          "duration": 0.15625,
          "durationTicks": 48,
          "midi": 55,
          "name": "G3",
          "ticks": 16944,
          "time": 55.15625,
          "velocity": 0.7480314960629921
        },
        {
          "duration": 0.3125,
          "durationTicks": 96,
          "midi": 61,
          "name": "C#4",
          "ticks": 16992,
          "time": 55.3125,
          "velocity": 0.7480314960629921
        },
        {
          "duration": 0.3125,
          "durationTicks": 96,
          "midi": 60,
          "name": "C4",
          "ticks": 17088,
          "time": 55.625,
          "velocity": 0.7480314960629921
        },
        {
          "duration": 0.15625,
          "durationTicks": 48,
          "midi": 65,
          "name": "F4",
          "ticks": 17184,
          "time": 55.9375,
          "velocity": 0.7480314960629921
        },
        {
          "duration": 0.3125,
          "durationTicks": 96,
          "midi": 65,
          "name": "F4",
          "ticks": 17232,
          "time": 56.09375,
          "velocity": 0.7480314960629921
        },
        {
          "duration": 0.15625,
          "durationTicks": 48,
          "midi": 55,
          "name": "G3",
          "ticks": 17328,
          "time": 56.40625,
          "velocity": 0.7480314960629921
        },
        {
          "duration": 0.3125,
          "durationTicks": 96,
          "midi": 65,
          "name": "F4",
          "ticks": 17376,
          "time": 56.5625,
          "velocity": 0.7480314960629921
        },
        {
          "duration": 0.3125,
          "durationTicks": 96,
          "midi": 59,
          "name": "B3",
          "ticks": 17472,
          "time": 56.875,
          "velocity": 0.7480314960629921
        },
        {
          "duration": 0.3125,
          "durationTicks": 96,
          "midi": 55,
          "name": "G3",
          "ticks": 17568,
          "time": 57.1875,
          "velocity": 0.7480314960629921
        },
        {
          "duration": 0.3125,
          "durationTicks": 96,
          "midi": 60,
          "name": "C4",
          "ticks": 17664,
          "time": 57.5,
          "velocity": 0.7480314960629921
        },
        {
          "duration": 0.3125,
          "durationTicks": 96,
          "midi": 55,
          "name": "G3",
          "ticks": 17760,
          "time": 57.8125,
          "velocity": 0.7480314960629921
        },
        {
          "duration": 0.3125,
          "durationTicks": 96,
          "midi": 62,
          "name": "D4",
          "ticks": 17856,
          "time": 58.125,
          "velocity": 0.7480314960629921
        },
        {
          "duration": 0.3125,
          "durationTicks": 96,
          "midi": 62,
          "name": "D4",
          "ticks": 17952,
          "time": 58.4375,
          "velocity": 0.7480314960629921
        },
        {
          "duration": 0.3125,
          "durationTicks": 96,
          "midi": 71,
          "name": "B4",
          "ticks": 18048,
          "time": 58.75,
          "velocity": 0.7480314960629921
        },
        {
          "duration": 0.15625,
          "durationTicks": 48,
          "midi": 71,
          "name": "B4",
          "ticks": 18144,
          "time": 59.0625,
          "velocity": 0.7480314960629921
        },
        {
          "duration": 0.3125,
          "durationTicks": 96,
          "midi": 71,
          "name": "B4",
          "ticks": 18192,
          "time": 59.21875,
          "velocity": 0.7480314960629921
        },
        {
          "duration": 0.15625,
          "durationTicks": 48,
          "midi": 55,
          "name": "G3",
          "ticks": 18288,
          "time": 59.53125,
          "velocity": 0.7480314960629921
        },
        {
          "duration": 0.3125,
          "durationTicks": 96,
          "midi": 71,
          "name": "B4",
          "ticks": 18336,
          "time": 59.6875,
          "velocity": 0.7480314960629921
        },
        {
          "duration": 0.3125,
          "durationTicks": 96,
          "midi": 71,
          "name": "B4",
          "ticks": 18432,
          "time": 60,
          "velocity": 0.7480314960629921
        },
        {
          "duration": 0.3125,
          "durationTicks": 96,
          "midi": 71,
          "name": "B4",
          "ticks": 18528,
          "time": 60.3125,
          "velocity": 0.7480314960629921
        },
        {
          "duration": 0.3125,
          "durationTicks": 96,
          "midi": 71,
          "name": "B4",
          "ticks": 18624,
          "time": 60.625,
          "velocity": 0.7480314960629921
        },
        {
          "duration": 0.3125,
          "durationTicks": 96,
          "midi": 71,
          "name": "B4",
          "ticks": 18720,
          "time": 60.9375,
          "velocity": 0.7480314960629921
        },
        {
          "duration": 0.3125,
          "durationTicks": 96,
          "midi": 64,
          "name": "E4",
          "ticks": 18816,
          "time": 61.25,
          "velocity": 0.7480314960629921
        },
        {
          "duration": 0.3125,
          "durationTicks": 96,
          "midi": 55,
          "name": "G3",
          "ticks": 18912,
          "time": 61.5625,
          "velocity": 0.7480314960629921
        },
        {
          "duration": 0.3125,
          "durationTicks": 96,
          "midi": 67,
          "name": "G4",
          "ticks": 19008,
          "time": 61.875,
          "velocity": 0.7480314960629921
        },
        {
          "duration": 0.3125,
          "durationTicks": 96,
          "midi": 55,
          "name": "G3",
          "ticks": 19104,
          "time": 62.1875,
          "velocity": 0.7480314960629921
        },
        {
          "duration": 0.3125,
          "durationTicks": 96,
          "midi": 66,
          "name": "F#4",
          "ticks": 19200,
          "time": 62.5,
          "velocity": 0.7480314960629921
        },
        {
          "duration": 0.3125,
          "durationTicks": 96,
          "midi": 55,
          "name": "G3",
          "ticks": 19296,
          "time": 62.8125,
          "velocity": 0.7480314960629921
        },
        {
          "duration": 0.3125,
          "durationTicks": 96,
          "midi": 69,
          "name": "A4",
          "ticks": 19392,
          "time": 63.125,
          "velocity": 0.7480314960629921
        },
        {
          "duration": 0.3125,
          "durationTicks": 96,
          "midi": 55,
          "name": "G3",
          "ticks": 19488,
          "time": 63.4375,
          "velocity": 0.7480314960629921
        },
        {
          "duration": 0.3125,
          "durationTicks": 96,
          "midi": 67,
          "name": "G4",
          "ticks": 19584,
          "time": 63.75,
          "velocity": 0.7480314960629921
        },
        {
          "duration": 0.15625,
          "durationTicks": 48,
          "midi": 67,
          "name": "G4",
          "ticks": 19680,
          "time": 64.0625,
          "velocity": 0.7480314960629921
        },
        {
          "duration": 0.3125,
          "durationTicks": 96,
          "midi": 67,
          "name": "G4",
          "ticks": 19728,
          "time": 64.21875,
          "velocity": 0.7480314960629921
        },
        {
          "duration": 0.15625,
          "durationTicks": 48,
          "midi": 55,
          "name": "G3",
          "ticks": 19824,
          "time": 64.53125,
          "velocity": 0.7480314960629921
        },
        {
          "duration": 0.3125,
          "durationTicks": 96,
          "midi": 67,
          "name": "G4",
          "ticks": 19872,
          "time": 64.6875,
          "velocity": 0.7480314960629921
        },
        {
          "duration": 0.3125,
          "durationTicks": 96,
          "midi": 67,
          "name": "G4",
          "ticks": 19968,
          "time": 65,
          "velocity": 0.7480314960629921
        },
        {
          "duration": 0.15625,
          "durationTicks": 48,
          "midi": 67,
          "name": "G4",
          "ticks": 20064,
          "time": 65.3125,
          "velocity": 0.7480314960629921
        },
        {
          "duration": 0.3125,
          "durationTicks": 96,
          "midi": 67,
          "name": "G4",
          "ticks": 20112,
          "time": 65.46875,
          "velocity": 0.7480314960629921
        },
        {
          "duration": 0.15625,
          "durationTicks": 48,
          "midi": 55,
          "name": "G3",
          "ticks": 20208,
          "time": 65.78125,
          "velocity": 0.7480314960629921
        },
        {
          "duration": 0.3125,
          "durationTicks": 96,
          "midi": 67,
          "name": "G4",
          "ticks": 20256,
          "time": 65.9375,
          "velocity": 0.7480314960629921
        },
        {
          "duration": 0.3125,
          "durationTicks": 96,
          "midi": 66,
          "name": "F#4",
          "ticks": 20352,
          "time": 66.25,
          "velocity": 0.7480314960629921
        },
        {
          "duration": 0.3125,
          "durationTicks": 96,
          "midi": 55,
          "name": "G3",
          "ticks": 20448,
          "time": 66.5625,
          "velocity": 0.7480314960629921
        },
        {
          "duration": 0.3125,
          "durationTicks": 96,
          "midi": 67,
          "name": "G4",
          "ticks": 20544,
          "time": 66.875,
          "velocity": 0.7480314960629921
        },
        {
          "duration": 0.3125,
          "durationTicks": 96,
          "midi": 55,
          "name": "G3",
          "ticks": 20640,
          "time": 67.1875,
          "velocity": 0.7480314960629921
        },
        {
          "duration": 0.3125,
          "durationTicks": 96,
          "midi": 64,
          "name": "E4",
          "ticks": 20736,
          "time": 67.5,
          "velocity": 0.7480314960629921
        },
        {
          "duration": 0.15625,
          "durationTicks": 48,
          "midi": 64,
          "name": "E4",
          "ticks": 20832,
          "time": 67.8125,
          "velocity": 0.7480314960629921
        },
        {
          "duration": 0.3125,
          "durationTicks": 96,
          "midi": 64,
          "name": "E4",
          "ticks": 20880,
          "time": 67.96875,
          "velocity": 0.7480314960629921
        },
        {
          "duration": 0.15625,
          "durationTicks": 48,
          "midi": 55,
          "name": "G3",
          "ticks": 20976,
          "time": 68.28125,
          "velocity": 0.7480314960629921
        },
        {
          "duration": 0.3125,
          "durationTicks": 96,
          "midi": 64,
          "name": "E4",
          "ticks": 21024,
          "time": 68.4375,
          "velocity": 0.7480314960629921
        },
        {
          "duration": 0.3125,
          "durationTicks": 96,
          "midi": 63,
          "name": "D#4",
          "ticks": 21120,
          "time": 68.75,
          "velocity": 0.7480314960629921
        },
        {
          "duration": 0.15625,
          "durationTicks": 48,
          "midi": 63,
          "name": "D#4",
          "ticks": 21216,
          "time": 69.0625,
          "velocity": 0.7480314960629921
        },
        {
          "duration": 0.3125,
          "durationTicks": 96,
          "midi": 63,
          "name": "D#4",
          "ticks": 21264,
          "time": 69.21875,
          "velocity": 0.7480314960629921
        },
        {
          "duration": 0.15625,
          "durationTicks": 48,
          "midi": 55,
          "name": "G3",
          "ticks": 21360,
          "time": 69.53125,
          "velocity": 0.7480314960629921
        },
        {
          "duration": 0.3125,
          "durationTicks": 96,
          "midi": 63,
          "name": "D#4",
          "ticks": 21408,
          "time": 69.6875,
          "velocity": 0.7480314960629921
        },
        {
          "duration": 0.3125,
          "durationTicks": 96,
          "midi": 62,
          "name": "D4",
          "ticks": 21504,
          "time": 70,
          "velocity": 0.7480314960629921
        },
        {
          "duration": 0.15625,
          "durationTicks": 48,
          "midi": 62,
          "name": "D4",
          "ticks": 21600,
          "time": 70.3125,
          "velocity": 0.7480314960629921
        },
        {
          "duration": 0.3125,
          "durationTicks": 96,
          "midi": 62,
          "name": "D4",
          "ticks": 21648,
          "time": 70.46875,
          "velocity": 0.7480314960629921
        },
        {
          "duration": 0.15625,
          "durationTicks": 48,
          "midi": 55,
          "name": "G3",
          "ticks": 21744,
          "time": 70.78125,
          "velocity": 0.7480314960629921
        },
        {
          "duration": 0.3125,
          "durationTicks": 96,
          "midi": 62,
          "name": "D4",
          "ticks": 21792,
          "time": 70.9375,
          "velocity": 0.7480314960629921
        },
        {
          "duration": 0.3125,
          "durationTicks": 96,
          "midi": 61,
          "name": "C#4",
          "ticks": 21888,
          "time": 71.25,
          "velocity": 0.7480314960629921
        },
        {
          "duration": 0.15625,
          "durationTicks": 48,
          "midi": 61,
          "name": "C#4",
          "ticks": 21984,
          "time": 71.5625,
          "velocity": 0.7480314960629921
        },
        {
          "duration": 0.3125,
          "durationTicks": 96,
          "midi": 61,
          "name": "C#4",
          "ticks": 22032,
          "time": 71.71875,
          "velocity": 0.7480314960629921
        },
        {
          "duration": 0.15625,
          "durationTicks": 48,
          "midi": 55,
          "name": "G3",
          "ticks": 22128,
          "time": 72.03125,
          "velocity": 0.7480314960629921
        },
        {
          "duration": 0.3125,
          "durationTicks": 96,
          "midi": 61,
          "name": "C#4",
          "ticks": 22176,
          "time": 72.1875,
          "velocity": 0.7480314960629921
        },
        {
          "duration": 0.3125,
          "durationTicks": 96,
          "midi": 60,
          "name": "C4",
          "ticks": 22272,
          "time": 72.5,
          "velocity": 0.7480314960629921
        },
        {
          "duration": 0.15625,
          "durationTicks": 48,
          "midi": 60,
          "name": "C4",
          "ticks": 22368,
          "time": 72.8125,
          "velocity": 0.7480314960629921
        },
        {
          "duration": 0.3125,
          "durationTicks": 96,
          "midi": 60,
          "name": "C4",
          "ticks": 22416,
          "time": 72.96875,
          "velocity": 0.7480314960629921
        },
        {
          "duration": 0.15625,
          "durationTicks": 48,
          "midi": 55,
          "name": "G3",
          "ticks": 22512,
          "time": 73.28125,
          "velocity": 0.7480314960629921
        },
        {
          "duration": 0.3125,
          "durationTicks": 96,
          "midi": 60,
          "name": "C4",
          "ticks": 22560,
          "time": 73.4375,
          "velocity": 0.7480314960629921
        },
        {
          "duration": 0.3125,
          "durationTicks": 96,
          "midi": 59,
          "name": "B3",
          "ticks": 22656,
          "time": 73.75,
          "velocity": 0.7480314960629921
        },
        {
          "duration": 0.15625,
          "durationTicks": 48,
          "midi": 59,
          "name": "B3",
          "ticks": 22752,
          "time": 74.0625,
          "velocity": 0.7480314960629921
        },
        {
          "duration": 0.3125,
          "durationTicks": 96,
          "midi": 59,
          "name": "B3",
          "ticks": 22800,
          "time": 74.21875,
          "velocity": 0.7480314960629921
        },
        {
          "duration": 0.15625,
          "durationTicks": 48,
          "midi": 55,
          "name": "G3",
          "ticks": 22896,
          "time": 74.53125,
          "velocity": 0.7480314960629921
        },
        {
          "duration": 0.3125,
          "durationTicks": 96,
          "midi": 59,
          "name": "B3",
          "ticks": 22944,
          "time": 74.6875,
          "velocity": 0.7480314960629921
        },
        {
          "duration": 0.15625,
          "durationTicks": 48,
          "midi": 59,
          "name": "B3",
          "ticks": 23040,
          "time": 75,
          "velocity": 0.7480314960629921
        },
        {
          "duration": 0.15625,
          "durationTicks": 48,
          "midi": 55,
          "name": "G3",
          "ticks": 23088,
          "time": 75.15625,
          "velocity": 0.7480314960629921
        },
        {
          "duration": 0.3125,
          "durationTicks": 96,
          "midi": 59,
          "name": "B3",
          "ticks": 23136,
          "time": 75.3125,
          "velocity": 0.7480314960629921
        },
        {
          "duration": 0.3125,
          "durationTicks": 96,
          "midi": 59,
          "name": "B3",
          "ticks": 23232,
          "time": 75.625,
          "velocity": 0.7480314960629921
        },
        {
          "duration": 0.3125,
          "durationTicks": 96,
          "midi": 55,
          "name": "G3",
          "ticks": 23328,
          "time": 75.9375,
          "velocity": 0.7480314960629921
        },
        {
          "duration": 0.3125,
          "durationTicks": 96,
          "midi": 60,
          "name": "C4",
          "ticks": 23424,
          "time": 76.25,
          "velocity": 0.7480314960629921
        },
        {
          "duration": 0.9375,
          "durationTicks": 288,
          "midi": 55,
          "name": "G3",
          "ticks": 23520,
          "time": 76.5625,
          "velocity": 0.7480314960629921
        },
        {
          "duration": 0.3125,
          "durationTicks": 96,
          "midi": 71,
          "name": "B4",
          "ticks": 23808,
          "time": 77.5,
          "velocity": 0.7480314960629921
        },
        {
          "duration": 0.15625,
          "durationTicks": 48,
          "midi": 71,
          "name": "B4",
          "ticks": 23904,
          "time": 77.8125,
          "velocity": 0.7480314960629921
        },
        {
          "duration": 0.3125,
          "durationTicks": 96,
          "midi": 71,
          "name": "B4",
          "ticks": 23952,
          "time": 77.96875,
          "velocity": 0.7480314960629921
        },
        {
          "duration": 0.15625,
          "durationTicks": 48,
          "midi": 55,
          "name": "G3",
          "ticks": 24048,
          "time": 78.28125,
          "velocity": 0.7480314960629921
        },
        {
          "duration": 0.3125,
          "durationTicks": 96,
          "midi": 71,
          "name": "B4",
          "ticks": 24096,
          "time": 78.4375,
          "velocity": 0.7480314960629921
        },
        {
          "duration": 0.15625,
          "durationTicks": 48,
          "midi": 71,
          "name": "B4",
          "ticks": 24192,
          "time": 78.75,
          "velocity": 0.7480314960629921
        },
        {
          "duration": 0.15625,
          "durationTicks": 48,
          "midi": 71,
          "name": "B4",
          "ticks": 24240,
          "time": 78.90625,
          "velocity": 0.7480314960629921
        },
        {
          "duration": 0.46875,
          "durationTicks": 144,
          "midi": 71,
          "name": "B4",
          "ticks": 24288,
          "time": 79.0625,
          "velocity": 0.7480314960629921
        },
        {
          "duration": 0.15625,
          "durationTicks": 48,
          "midi": 55,
          "name": "G3",
          "ticks": 24432,
          "time": 79.53125,
          "velocity": 0.7480314960629921
        },
        {
          "duration": 0.3125,
          "durationTicks": 96,
          "midi": 71,
          "name": "B4",
          "ticks": 24480,
          "time": 79.6875,
          "velocity": 0.7480314960629921
        },
        {
          "duration": 0.3125,
          "durationTicks": 96,
          "midi": 64,
          "name": "E4",
          "ticks": 24576,
          "time": 80,
          "velocity": 0.7480314960629921
        },
        {
          "duration": 0.3125,
          "durationTicks": 96,
          "midi": 55,
          "name": "G3",
          "ticks": 24672,
          "time": 80.3125,
          "velocity": 0.7480314960629921
        },
        {
          "duration": 0.3125,
          "durationTicks": 96,
          "midi": 67,
          "name": "G4",
          "ticks": 24768,
          "time": 80.625,
          "velocity": 0.7480314960629921
        },
        {
          "duration": 0.3125,
          "durationTicks": 96,
          "midi": 55,
          "name": "G3",
          "ticks": 24864,
          "time": 80.9375,
          "velocity": 0.7480314960629921
        },
        {
          "duration": 0.3125,
          "durationTicks": 96,
          "midi": 66,
          "name": "F#4",
          "ticks": 24960,
          "time": 81.25,
          "velocity": 0.7480314960629921
        },
        {
          "duration": 0.3125,
          "durationTicks": 96,
          "midi": 55,
          "name": "G3",
          "ticks": 25056,
          "time": 81.5625,
          "velocity": 0.7480314960629921
        },
        {
          "duration": 0.3125,
          "durationTicks": 96,
          "midi": 69,
          "name": "A4",
          "ticks": 25152,
          "time": 81.875,
          "velocity": 0.7480314960629921
        },
        {
          "duration": 0.3125,
          "durationTicks": 96,
          "midi": 55,
          "name": "G3",
          "ticks": 25248,
          "time": 82.1875,
          "velocity": 0.7480314960629921
        },
        {
          "duration": 0.3125,
          "durationTicks": 96,
          "midi": 67,
          "name": "G4",
          "ticks": 25344,
          "time": 82.5,
          "velocity": 0.7480314960629921
        },
        {
          "duration": 0.15625,
          "durationTicks": 48,
          "midi": 67,
          "name": "G4",
          "ticks": 25440,
          "time": 82.8125,
          "velocity": 0.7480314960629921
        },
        {
          "duration": 0.3125,
          "durationTicks": 96,
          "midi": 67,
          "name": "G4",
          "ticks": 25488,
          "time": 82.96875,
          "velocity": 0.7480314960629921
        },
        {
          "duration": 0.15625,
          "durationTicks": 48,
          "midi": 55,
          "name": "G3",
          "ticks": 25584,
          "time": 83.28125,
          "velocity": 0.7480314960629921
        },
        {
          "duration": 0.3125,
          "durationTicks": 96,
          "midi": 67,
          "name": "G4",
          "ticks": 25632,
          "time": 83.4375,
          "velocity": 0.7480314960629921
        },
        {
          "duration": 0.3125,
          "durationTicks": 96,
          "midi": 67,
          "name": "G4",
          "ticks": 25728,
          "time": 83.75,
          "velocity": 0.7480314960629921
        },
        {
          "duration": 0.15625,
          "durationTicks": 48,
          "midi": 67,
          "name": "G4",
          "ticks": 25824,
          "time": 84.0625,
          "velocity": 0.7480314960629921
        },
        {
          "duration": 0.3125,
          "durationTicks": 96,
          "midi": 67,
          "name": "G4",
          "ticks": 25872,
          "time": 84.21875,
          "velocity": 0.7480314960629921
        },
        {
          "duration": 0.15625,
          "durationTicks": 48,
          "midi": 55,
          "name": "G3",
          "ticks": 25968,
          "time": 84.53125,
          "velocity": 0.7480314960629921
        },
        {
          "duration": 0.3125,
          "durationTicks": 96,
          "midi": 67,
          "name": "G4",
          "ticks": 26016,
          "time": 84.6875,
          "velocity": 0.7480314960629921
        },
        {
          "duration": 0.3125,
          "durationTicks": 96,
          "midi": 67,
          "name": "G4",
          "ticks": 26112,
          "time": 85,
          "velocity": 0.7480314960629921
        },
        {
          "duration": 0.3125,
          "durationTicks": 96,
          "midi": 55,
          "name": "G3",
          "ticks": 26208,
          "time": 85.3125,
          "velocity": 0.7480314960629921
        },
        {
          "duration": 0.3125,
          "durationTicks": 96,
          "midi": 67,
          "name": "G4",
          "ticks": 26304,
          "time": 85.625,
          "velocity": 0.7480314960629921
        },
        {
          "duration": 0.3125,
          "durationTicks": 96,
          "midi": 55,
          "name": "G3",
          "ticks": 26400,
          "time": 85.9375,
          "velocity": 0.7480314960629921
        },
        {
          "duration": 0.3125,
          "durationTicks": 96,
          "midi": 64,
          "name": "E4",
          "ticks": 26496,
          "time": 86.25,
          "velocity": 0.7480314960629921
        },
        {
          "duration": 0.15625,
          "durationTicks": 48,
          "midi": 64,
          "name": "E4",
          "ticks": 26592,
          "time": 86.5625,
          "velocity": 0.7480314960629921
        },
        {
          "duration": 0.3125,
          "durationTicks": 96,
          "midi": 64,
          "name": "E4",
          "ticks": 26640,
          "time": 86.71875,
          "velocity": 0.7480314960629921
        },
        {
          "duration": 0.15625,
          "durationTicks": 48,
          "midi": 55,
          "name": "G3",
          "ticks": 26736,
          "time": 87.03125,
          "velocity": 0.7480314960629921
        },
        {
          "duration": 0.3125,
          "durationTicks": 96,
          "midi": 64,
          "name": "E4",
          "ticks": 26784,
          "time": 87.1875,
          "velocity": 0.7480314960629921
        },
        {
          "duration": 0.3125,
          "durationTicks": 96,
          "midi": 63,
          "name": "D#4",
          "ticks": 26880,
          "time": 87.5,
          "velocity": 0.7480314960629921
        },
        {
          "duration": 0.15625,
          "durationTicks": 48,
          "midi": 63,
          "name": "D#4",
          "ticks": 26976,
          "time": 87.8125,
          "velocity": 0.7480314960629921
        },
        {
          "duration": 0.3125,
          "durationTicks": 96,
          "midi": 63,
          "name": "D#4",
          "ticks": 27024,
          "time": 87.96875,
          "velocity": 0.7480314960629921
        },
        {
          "duration": 0.15625,
          "durationTicks": 48,
          "midi": 55,
          "name": "G3",
          "ticks": 27120,
          "time": 88.28125,
          "velocity": 0.7480314960629921
        },
        {
          "duration": 0.3125,
          "durationTicks": 96,
          "midi": 63,
          "name": "D#4",
          "ticks": 27168,
          "time": 88.4375,
          "velocity": 0.7480314960629921
        },
        {
          "duration": 0.3125,
          "durationTicks": 96,
          "midi": 62,
          "name": "D4",
          "ticks": 27264,
          "time": 88.75,
          "velocity": 0.7480314960629921
        },
        {
          "duration": 0.15625,
          "durationTicks": 48,
          "midi": 62,
          "name": "D4",
          "ticks": 27360,
          "time": 89.0625,
          "velocity": 0.7480314960629921
        },
        {
          "duration": 0.3125,
          "durationTicks": 96,
          "midi": 62,
          "name": "D4",
          "ticks": 27408,
          "time": 89.21875,
          "velocity": 0.7480314960629921
        },
        {
          "duration": 0.15625,
          "durationTicks": 48,
          "midi": 55,
          "name": "G3",
          "ticks": 27504,
          "time": 89.53125,
          "velocity": 0.7480314960629921
        },
        {
          "duration": 0.3125,
          "durationTicks": 96,
          "midi": 62,
          "name": "D4",
          "ticks": 27552,
          "time": 89.6875,
          "velocity": 0.7480314960629921
        },
        {
          "duration": 0.3125,
          "durationTicks": 96,
          "midi": 61,
          "name": "C#4",
          "ticks": 27648,
          "time": 90,
          "velocity": 0.7480314960629921
        },
        {
          "duration": 0.15625,
          "durationTicks": 48,
          "midi": 61,
          "name": "C#4",
          "ticks": 27744,
          "time": 90.3125,
          "velocity": 0.7480314960629921
        },
        {
          "duration": 0.46875,
          "durationTicks": 144,
          "midi": 61,
          "name": "C#4",
          "ticks": 27792,
          "time": 90.46875,
          "velocity": 0.7480314960629921
        },
        {
          "duration": 0.15625,
          "durationTicks": 48,
          "midi": 55,
          "name": "G3",
          "ticks": 27936,
          "time": 90.9375,
          "velocity": 0.7480314960629921
        },
        {
          "duration": 0.15625,
          "durationTicks": 48,
          "midi": 61,
          "name": "C#4",
          "ticks": 27984,
          "time": 91.09375,
          "velocity": 0.7480314960629921
        },
        {
          "duration": 0.3125,
          "durationTicks": 96,
          "midi": 60,
          "name": "C4",
          "ticks": 28032,
          "time": 91.25,
          "velocity": 0.7480314960629921
        },
        {
          "duration": 0.15625,
          "durationTicks": 48,
          "midi": 60,
          "name": "C4",
          "ticks": 28128,
          "time": 91.5625,
          "velocity": 0.7480314960629921
        },
        {
          "duration": 0.3125,
          "durationTicks": 96,
          "midi": 60,
          "name": "C4",
          "ticks": 28176,
          "time": 91.71875,
          "velocity": 0.7480314960629921
        },
        {
          "duration": 0.15625,
          "durationTicks": 48,
          "midi": 55,
          "name": "G3",
          "ticks": 28272,
          "time": 92.03125,
          "velocity": 0.7480314960629921
        },
        {
          "duration": 0.3125,
          "durationTicks": 96,
          "midi": 60,
          "name": "C4",
          "ticks": 28320,
          "time": 92.1875,
          "velocity": 0.7480314960629921
        },
        {
          "duration": 0.3125,
          "durationTicks": 96,
          "midi": 59,
          "name": "B3",
          "ticks": 28416,
          "time": 92.5,
          "velocity": 0.7480314960629921
        },
        {
          "duration": 0.15625,
          "durationTicks": 48,
          "midi": 59,
          "name": "B3",
          "ticks": 28512,
          "time": 92.8125,
          "velocity": 0.7480314960629921
        },
        {
          "duration": 0.3125,
          "durationTicks": 96,
          "midi": 59,
          "name": "B3",
          "ticks": 28560,
          "time": 92.96875,
          "velocity": 0.7480314960629921
        },
        {
          "duration": 0.15625,
          "durationTicks": 48,
          "midi": 55,
          "name": "G3",
          "ticks": 28656,
          "time": 93.28125,
          "velocity": 0.7480314960629921
        },
        {
          "duration": 0.3125,
          "durationTicks": 96,
          "midi": 59,
          "name": "B3",
          "ticks": 28704,
          "time": 93.4375,
          "velocity": 0.7480314960629921
        },
        {
          "duration": 0.3125,
          "durationTicks": 96,
          "midi": 69,
          "name": "A4",
          "ticks": 28800,
          "time": 93.75,
          "velocity": 0.7480314960629921
        },
        {
          "duration": 0.3125,
          "durationTicks": 96,
          "midi": 55,
          "name": "G3",
          "ticks": 28896,
          "time": 94.0625,
          "velocity": 0.7480314960629921
        },
        {
          "duration": 0.3125,
          "durationTicks": 96,
          "midi": 67,
          "name": "G4",
          "ticks": 28992,
          "time": 94.375,
          "velocity": 0.7480314960629921
        },
        {
          "duration": 0.3125,
          "durationTicks": 96,
          "midi": 55,
          "name": "G3",
          "ticks": 29088,
          "time": 94.6875,
          "velocity": 0.7480314960629921
        },
        {
          "duration": 0.3125,
          "durationTicks": 96,
          "midi": 65,
          "name": "F4",
          "ticks": 29184,
          "time": 95,
          "velocity": 0.7480314960629921
        },
        {
          "duration": 0.3125,
          "durationTicks": 96,
          "midi": 55,
          "name": "G3",
          "ticks": 29280,
          "time": 95.3125,
          "velocity": 0.7480314960629921
        },
        {
          "duration": 0.3125,
          "durationTicks": 96,
          "midi": 64,
          "name": "E4",
          "ticks": 29376,
          "time": 95.625,
          "velocity": 0.7480314960629921
        },
        {
          "duration": 0.3125,
          "durationTicks": 96,
          "midi": 55,
          "name": "G3",
          "ticks": 29472,
          "time": 95.9375,
          "velocity": 0.7480314960629921
        },
        {
          "duration": 0.3125,
          "durationTicks": 96,
          "midi": 62,
          "name": "D4",
          "ticks": 29568,
          "time": 96.25,
          "velocity": 0.7480314960629921
        },
        {
          "duration": 0.15625,
          "durationTicks": 48,
          "midi": 62,
          "name": "D4",
          "ticks": 29664,
          "time": 96.5625,
          "velocity": 0.7480314960629921
        },
        {
          "duration": 0.3125,
          "durationTicks": 96,
          "midi": 62,
          "name": "D4",
          "ticks": 29712,
          "time": 96.71875,
          "velocity": 0.7480314960629921
        },
        {
          "duration": 0.15625,
          "durationTicks": 48,
          "midi": 55,
          "name": "G3",
          "ticks": 29808,
          "time": 97.03125,
          "velocity": 0.7480314960629921
        },
        {
          "duration": 0.3125,
          "durationTicks": 96,
          "midi": 62,
          "name": "D4",
          "ticks": 29856,
          "time": 97.1875,
          "velocity": 0.7480314960629921
        },
        {
          "duration": 0.3125,
          "durationTicks": 96,
          "midi": 64,
          "name": "E4",
          "ticks": 29952,
          "time": 97.5,
          "velocity": 0.7480314960629921
        },
        {
          "duration": 0.15625,
          "durationTicks": 48,
          "midi": 64,
          "name": "E4",
          "ticks": 30048,
          "time": 97.8125,
          "velocity": 0.7480314960629921
        },
        {
          "duration": 0.3125,
          "durationTicks": 96,
          "midi": 64,
          "name": "E4",
          "ticks": 30096,
          "time": 97.96875,
          "velocity": 0.7480314960629921
        },
        {
          "duration": 0.15625,
          "durationTicks": 48,
          "midi": 55,
          "name": "G3",
          "ticks": 30192,
          "time": 98.28125,
          "velocity": 0.7480314960629921
        },
        {
          "duration": 0.3125,
          "durationTicks": 96,
          "midi": 64,
          "name": "E4",
          "ticks": 30240,
          "time": 98.4375,
          "velocity": 0.7480314960629921
        },
        {
          "duration": 0.3125,
          "durationTicks": 96,
          "midi": 69,
          "name": "A4",
          "ticks": 30336,
          "time": 98.75,
          "velocity": 0.7480314960629921
        },
        {
          "duration": 0.3125,
          "durationTicks": 96,
          "midi": 55,
          "name": "G3",
          "ticks": 30432,
          "time": 99.0625,
          "velocity": 0.7480314960629921
        },
        {
          "duration": 0.3125,
          "durationTicks": 96,
          "midi": 67,
          "name": "G4",
          "ticks": 30528,
          "time": 99.375,
          "velocity": 0.7480314960629921
        },
        {
          "duration": 0.3125,
          "durationTicks": 96,
          "midi": 55,
          "name": "G3",
          "ticks": 30624,
          "time": 99.6875,
          "velocity": 0.7480314960629921
        },
        {
          "duration": 0.3125,
          "durationTicks": 96,
          "midi": 65,
          "name": "F4",
          "ticks": 30720,
          "time": 100,
          "velocity": 0.7480314960629921
        },
        {
          "duration": 0.3125,
          "durationTicks": 96,
          "midi": 55,
          "name": "G3",
          "ticks": 30816,
          "time": 100.3125,
          "velocity": 0.7480314960629921
        },
        {
          "duration": 0.3125,
          "durationTicks": 96,
          "midi": 64,
          "name": "E4",
          "ticks": 30912,
          "time": 100.625,
          "velocity": 0.7480314960629921
        },
        {
          "duration": 0.3125,
          "durationTicks": 96,
          "midi": 55,
          "name": "G3",
          "ticks": 31008,
          "time": 100.9375,
          "velocity": 0.7480314960629921
        },
        {
          "duration": 0.3125,
          "durationTicks": 96,
          "midi": 62,
          "name": "D4",
          "ticks": 31104,
          "time": 101.25,
          "velocity": 0.7480314960629921
        },
        {
          "duration": 0.15625,
          "durationTicks": 48,
          "midi": 62,
          "name": "D4",
          "ticks": 31200,
          "time": 101.5625,
          "velocity": 0.7480314960629921
        },
        {
          "duration": 0.3125,
          "durationTicks": 96,
          "midi": 62,
          "name": "D4",
          "ticks": 31248,
          "time": 101.71875,
          "velocity": 0.7480314960629921
        },
        {
          "duration": 0.15625,
          "durationTicks": 48,
          "midi": 55,
          "name": "G3",
          "ticks": 31344,
          "time": 102.03125,
          "velocity": 0.7480314960629921
        },
        {
          "duration": 0.3125,
          "durationTicks": 96,
          "midi": 62,
          "name": "D4",
          "ticks": 31392,
          "time": 102.1875,
          "velocity": 0.7480314960629921
        },
        {
          "duration": 0.3125,
          "durationTicks": 96,
          "midi": 61,
          "name": "C#4",
          "ticks": 31488,
          "time": 102.5,
          "velocity": 0.7480314960629921
        },
        {
          "duration": 0.15625,
          "durationTicks": 48,
          "midi": 61,
          "name": "C#4",
          "ticks": 31584,
          "time": 102.8125,
          "velocity": 0.7480314960629921
        },
        {
          "duration": 0.3125,
          "durationTicks": 96,
          "midi": 61,
          "name": "C#4",
          "ticks": 31632,
          "time": 102.96875,
          "velocity": 0.7480314960629921
        },
        {
          "duration": 0.15625,
          "durationTicks": 48,
          "midi": 55,
          "name": "G3",
          "ticks": 31728,
          "time": 103.28125,
          "velocity": 0.7480314960629921
        },
        {
          "duration": 0.3125,
          "durationTicks": 96,
          "midi": 61,
          "name": "C#4",
          "ticks": 31776,
          "time": 103.4375,
          "velocity": 0.7480314960629921
        },
        {
          "duration": 0.3125,
          "durationTicks": 96,
          "midi": 60,
          "name": "C4",
          "ticks": 31872,
          "time": 103.75,
          "velocity": 0.7480314960629921
        },
        {
          "duration": 0.15625,
          "durationTicks": 48,
          "midi": 65,
          "name": "F4",
          "ticks": 31968,
          "time": 104.0625,
          "velocity": 0.7480314960629921
        },
        {
          "duration": 0.3125,
          "durationTicks": 96,
          "midi": 65,
          "name": "F4",
          "ticks": 32016,
          "time": 104.21875,
          "velocity": 0.7480314960629921
        },
        {
          "duration": 0.15625,
          "durationTicks": 48,
          "midi": 55,
          "name": "G3",
          "ticks": 32112,
          "time": 104.53125,
          "velocity": 0.7480314960629921
        },
        {
          "duration": 0.3125,
          "durationTicks": 96,
          "midi": 65,
          "name": "F4",
          "ticks": 32160,
          "time": 104.6875,
          "velocity": 0.7480314960629921
        },
        {
          "duration": 0.3125,
          "durationTicks": 96,
          "midi": 59,
          "name": "B3",
          "ticks": 32256,
          "time": 105,
          "velocity": 0.7480314960629921
        },
        {
          "duration": 0.3125,
          "durationTicks": 96,
          "midi": 55,
          "name": "G3",
          "ticks": 32352,
          "time": 105.3125,
          "velocity": 0.7480314960629921
        },
        {
          "duration": 0.3125,
          "durationTicks": 96,
          "midi": 60,
          "name": "C4",
          "ticks": 32448,
          "time": 105.625,
          "velocity": 0.7480314960629921
        },
        {
          "duration": 0.3125,
          "durationTicks": 96,
          "midi": 55,
          "name": "G3",
          "ticks": 32544,
          "time": 105.9375,
          "velocity": 0.7480314960629921
        },
        {
          "duration": 0.3125,
          "durationTicks": 96,
          "midi": 62,
          "name": "D4",
          "ticks": 32640,
          "time": 106.25,
          "velocity": 0.7480314960629921
        },
        {
          "duration": 0.3125,
          "durationTicks": 96,
          "midi": 62,
          "name": "D4",
          "ticks": 32736,
          "time": 106.5625,
          "velocity": 0.7480314960629921
        },
        {
          "duration": 0.3125,
          "durationTicks": 96,
          "midi": 71,
          "name": "B4",
          "ticks": 32832,
          "time": 106.875,
          "velocity": 0.7480314960629921
        },
        {
          "duration": 0.15625,
          "durationTicks": 48,
          "midi": 71,
          "name": "B4",
          "ticks": 32928,
          "time": 107.1875,
          "velocity": 0.7480314960629921
        },
        {
          "duration": 0.3125,
          "durationTicks": 96,
          "midi": 71,
          "name": "B4",
          "ticks": 32976,
          "time": 107.34375,
          "velocity": 0.7480314960629921
        },
        {
          "duration": 0.15625,
          "durationTicks": 48,
          "midi": 55,
          "name": "G3",
          "ticks": 33072,
          "time": 107.65625,
          "velocity": 0.7480314960629921
        },
        {
          "duration": 0.3125,
          "durationTicks": 96,
          "midi": 71,
          "name": "B4",
          "ticks": 33120,
          "time": 107.8125,
          "velocity": 0.7480314960629921
        },
        {
          "duration": 0.3125,
          "durationTicks": 96,
          "midi": 71,
          "name": "B4",
          "ticks": 33216,
          "time": 108.125,
          "velocity": 0.7480314960629921
        },
        {
          "duration": 0.3125,
          "durationTicks": 96,
          "midi": 71,
          "name": "B4",
          "ticks": 33312,
          "time": 108.4375,
          "velocity": 0.7480314960629921
        },
        {
          "duration": 0.15625,
          "durationTicks": 48,
          "midi": 71,
          "name": "B4",
          "ticks": 33408,
          "time": 108.75,
          "velocity": 0.7480314960629921
        },
        {
          "duration": 0.15625,
          "durationTicks": 48,
          "midi": 71,
          "name": "B4",
          "ticks": 33456,
          "time": 108.90625,
          "velocity": 0.7480314960629921
        },
        {
          "duration": 0.3125,
          "durationTicks": 96,
          "midi": 71,
          "name": "B4",
          "ticks": 33504,
          "time": 109.0625,
          "velocity": 0.7480314960629921
        },
        {
          "duration": 0.3125,
          "durationTicks": 96,
          "midi": 71,
          "name": "B4",
          "ticks": 33600,
          "time": 109.375,
          "velocity": 0.7480314960629921
        },
        {
          "duration": 0.3125,
          "durationTicks": 96,
          "midi": 71,
          "name": "B4",
          "ticks": 33696,
          "time": 109.6875,
          "velocity": 0.7480314960629921
        },
        {
          "duration": 0.3125,
          "durationTicks": 96,
          "midi": 71,
          "name": "B4",
          "ticks": 33792,
          "time": 110,
          "velocity": 0.7480314960629921
        },
        {
          "duration": 0.3125,
          "durationTicks": 96,
          "midi": 71,
          "name": "B4",
          "ticks": 33888,
          "time": 110.3125,
          "velocity": 0.7480314960629921
        },
        {
          "duration": 0.3125,
          "durationTicks": 96,
          "midi": 71,
          "name": "B4",
          "ticks": 33984,
          "time": 110.625,
          "velocity": 0.7480314960629921
        },
        {
          "duration": 0.3125,
          "durationTicks": 96,
          "midi": 71,
          "name": "B4",
          "ticks": 34080,
          "time": 110.9375,
          "velocity": 0.7480314960629921
        },
        {
          "duration": 0.46875,
          "durationTicks": 144,
          "midi": 71,
          "name": "B4",
          "ticks": 34176,
          "time": 111.25,
          "velocity": 0.7480314960629921
        },
        {
          "duration": 0.15625,
          "durationTicks": 48,
          "midi": 71,
          "name": "B4",
          "ticks": 34320,
          "time": 111.71875,
          "velocity": 0.7480314960629921
        },
        {
          "duration": 0.3125,
          "durationTicks": 96,
          "midi": 59,
          "name": "B3",
          "ticks": 34368,
          "time": 111.875,
          "velocity": 0.7480314960629921
        },
        {
          "duration": 0.3125,
          "durationTicks": 96,
          "midi": 55,
          "name": "G3",
          "ticks": 34464,
          "time": 112.1875,
          "velocity": 0.7480314960629921
        },
        {
          "duration": 0.3125,
          "durationTicks": 96,
          "midi": 60,
          "name": "C4",
          "ticks": 34560,
          "time": 112.5,
          "velocity": 0.7480314960629921
        },
        {
          "duration": 0.3125,
          "durationTicks": 96,
          "midi": 55,
          "name": "G3",
          "ticks": 34656,
          "time": 112.8125,
          "velocity": 0.7480314960629921
        },
        {
          "duration": 0.3125,
          "durationTicks": 96,
          "midi": 62,
          "name": "D4",
          "ticks": 34752,
          "time": 113.125,
          "velocity": 0.7480314960629921
        },
        {
          "duration": 0.3125,
          "durationTicks": 96,
          "midi": 55,
          "name": "G3",
          "ticks": 34848,
          "time": 113.4375,
          "velocity": 0.7480314960629921
        },
        {
          "duration": 0.3125,
          "durationTicks": 96,
          "midi": 64,
          "name": "E4",
          "ticks": 34944,
          "time": 113.75,
          "velocity": 0.7480314960629921
        },
        {
          "duration": 0.3125,
          "durationTicks": 96,
          "midi": 55,
          "name": "G3",
          "ticks": 35040,
          "time": 114.0625,
          "velocity": 0.7480314960629921
        },
        {
          "duration": 0.3125,
          "durationTicks": 96,
          "midi": 62,
          "name": "D4",
          "ticks": 35136,
          "time": 114.375,
          "velocity": 0.7480314960629921
        },
        {
          "duration": 0.3125,
          "durationTicks": 96,
          "midi": 55,
          "name": "G3",
          "ticks": 35232,
          "time": 114.6875,
          "velocity": 0.7480314960629921
        },
        {
          "duration": 0.3125,
          "durationTicks": 96,
          "midi": 61,
          "name": "C#4",
          "ticks": 35328,
          "time": 115,
          "velocity": 0.7480314960629921
        },
        {
          "duration": 0.3125,
          "durationTicks": 96,
          "midi": 55,
          "name": "G3",
          "ticks": 35424,
          "time": 115.3125,
          "velocity": 0.7480314960629921
        },
        {
          "duration": 0.3125,
          "durationTicks": 96,
          "midi": 60,
          "name": "C4",
          "ticks": 35520,
          "time": 115.625,
          "velocity": 0.7480314960629921
        },
        {
          "duration": 0.15625,
          "durationTicks": 48,
          "midi": 55,
          "name": "G3",
          "ticks": 35616,
          "time": 115.9375,
          "velocity": 0.7480314960629921
        },
        {
          "duration": 0.3125,
          "durationTicks": 96,
          "midi": 60,
          "name": "C4",
          "ticks": 35664,
          "time": 116.09375,
          "velocity": 0.7480314960629921
        },
        {
          "duration": 0.15625,
          "durationTicks": 48,
          "midi": 55,
          "name": "G3",
          "ticks": 35760,
          "time": 116.40625,
          "velocity": 0.7480314960629921
        },
        {
          "duration": 0.3125,
          "durationTicks": 96,
          "midi": 60,
          "name": "C4",
          "ticks": 35808,
          "time": 116.5625,
          "velocity": 0.7480314960629921
        },
        {
          "duration": 0.3125,
          "durationTicks": 96,
          "midi": 59,
          "name": "B3",
          "ticks": 35904,
          "time": 116.875,
          "velocity": 0.7480314960629921
        },
        {
          "duration": 0.3125,
          "durationTicks": 96,
          "midi": 55,
          "name": "G3",
          "ticks": 36000,
          "time": 117.1875,
          "velocity": 0.7480314960629921
        },
        {
          "duration": 0.3125,
          "durationTicks": 96,
          "midi": 60,
          "name": "C4",
          "ticks": 36096,
          "time": 117.5,
          "velocity": 0.7480314960629921
        },
        {
          "duration": 0.9375,
          "durationTicks": 288,
          "midi": 55,
          "name": "G3",
          "ticks": 36192,
          "time": 117.8125,
          "velocity": 0.7480314960629921
        },
        {
          "duration": 0.3125,
          "durationTicks": 96,
          "midi": 71,
          "name": "B4",
          "ticks": 36480,
          "time": 118.75,
          "velocity": 0.7480314960629921
        },
        {
          "duration": 0.15625,
          "durationTicks": 48,
          "midi": 71,
          "name": "B4",
          "ticks": 36576,
          "time": 119.0625,
          "velocity": 0.7480314960629921
        },
        {
          "duration": 0.3125,
          "durationTicks": 96,
          "midi": 71,
          "name": "B4",
          "ticks": 36624,
          "time": 119.21875,
          "velocity": 0.7480314960629921
        },
        {
          "duration": 0.15625,
          "durationTicks": 48,
          "midi": 55,
          "name": "G3",
          "ticks": 36720,
          "time": 119.53125,
          "velocity": 0.7480314960629921
        },
        {
          "duration": 0.3125,
          "durationTicks": 96,
          "midi": 71,
          "name": "B4",
          "ticks": 36768,
          "time": 119.6875,
          "velocity": 0.7480314960629921
        },
        {
          "duration": 0.15625,
          "durationTicks": 48,
          "midi": 71,
          "name": "B4",
          "ticks": 36864,
          "time": 120,
          "velocity": 0.7480314960629921
        },
        {
          "duration": 0.15625,
          "durationTicks": 48,
          "midi": 71,
          "name": "B4",
          "ticks": 36912,
          "time": 120.15625,
          "velocity": 0.7480314960629921
        },
        {
          "duration": 0.46875,
          "durationTicks": 144,
          "midi": 71,
          "name": "B4",
          "ticks": 36960,
          "time": 120.3125,
          "velocity": 0.7480314960629921
        },
        {
          "duration": 0.15625,
          "durationTicks": 48,
          "midi": 55,
          "name": "G3",
          "ticks": 37104,
          "time": 120.78125,
          "velocity": 0.7480314960629921
        },
        {
          "duration": 0.3125,
          "durationTicks": 96,
          "midi": 71,
          "name": "B4",
          "ticks": 37152,
          "time": 120.9375,
          "velocity": 0.7480314960629921
        },
        {
          "duration": 0.3125,
          "durationTicks": 96,
          "midi": 64,
          "name": "E4",
          "ticks": 37248,
          "time": 121.25,
          "velocity": 0.7480314960629921
        },
        {
          "duration": 0.3125,
          "durationTicks": 96,
          "midi": 55,
          "name": "G3",
          "ticks": 37344,
          "time": 121.5625,
          "velocity": 0.7480314960629921
        },
        {
          "duration": 0.3125,
          "durationTicks": 96,
          "midi": 67,
          "name": "G4",
          "ticks": 37440,
          "time": 121.875,
          "velocity": 0.7480314960629921
        },
        {
          "duration": 0.3125,
          "durationTicks": 96,
          "midi": 55,
          "name": "G3",
          "ticks": 37536,
          "time": 122.1875,
          "velocity": 0.7480314960629921
        },
        {
          "duration": 0.3125,
          "durationTicks": 96,
          "midi": 66,
          "name": "F#4",
          "ticks": 37632,
          "time": 122.5,
          "velocity": 0.7480314960629921
        },
        {
          "duration": 0.3125,
          "durationTicks": 96,
          "midi": 55,
          "name": "G3",
          "ticks": 37728,
          "time": 122.8125,
          "velocity": 0.7480314960629921
        },
        {
          "duration": 0.3125,
          "durationTicks": 96,
          "midi": 69,
          "name": "A4",
          "ticks": 37824,
          "time": 123.125,
          "velocity": 0.7480314960629921
        },
        {
          "duration": 0.3125,
          "durationTicks": 96,
          "midi": 55,
          "name": "G3",
          "ticks": 37920,
          "time": 123.4375,
          "velocity": 0.7480314960629921
        },
        {
          "duration": 0.3125,
          "durationTicks": 96,
          "midi": 67,
          "name": "G4",
          "ticks": 38016,
          "time": 123.75,
          "velocity": 0.7480314960629921
        },
        {
          "duration": 0.15625,
          "durationTicks": 48,
          "midi": 67,
          "name": "G4",
          "ticks": 38112,
          "time": 124.0625,
          "velocity": 0.7480314960629921
        },
        {
          "duration": 0.3125,
          "durationTicks": 96,
          "midi": 67,
          "name": "G4",
          "ticks": 38160,
          "time": 124.21875,
          "velocity": 0.7480314960629921
        },
        {
          "duration": 0.15625,
          "durationTicks": 48,
          "midi": 55,
          "name": "G3",
          "ticks": 38256,
          "time": 124.53125,
          "velocity": 0.7480314960629921
        },
        {
          "duration": 0.3125,
          "durationTicks": 96,
          "midi": 67,
          "name": "G4",
          "ticks": 38304,
          "time": 124.6875,
          "velocity": 0.7480314960629921
        },
        {
          "duration": 0.3125,
          "durationTicks": 96,
          "midi": 67,
          "name": "G4",
          "ticks": 38400,
          "time": 125,
          "velocity": 0.7480314960629921
        },
        {
          "duration": 0.15625,
          "durationTicks": 48,
          "midi": 67,
          "name": "G4",
          "ticks": 38496,
          "time": 125.3125,
          "velocity": 0.7480314960629921
        },
        {
          "duration": 0.3125,
          "durationTicks": 96,
          "midi": 67,
          "name": "G4",
          "ticks": 38544,
          "time": 125.46875,
          "velocity": 0.7480314960629921
        },
        {
          "duration": 0.15625,
          "durationTicks": 48,
          "midi": 55,
          "name": "G3",
          "ticks": 38640,
          "time": 125.78125,
          "velocity": 0.7480314960629921
        },
        {
          "duration": 0.3125,
          "durationTicks": 96,
          "midi": 67,
          "name": "G4",
          "ticks": 38688,
          "time": 125.9375,
          "velocity": 0.7480314960629921
        },
        {
          "duration": 0.3125,
          "durationTicks": 96,
          "midi": 67,
          "name": "G4",
          "ticks": 38784,
          "time": 126.25,
          "velocity": 0.7480314960629921
        },
        {
          "duration": 0.3125,
          "durationTicks": 96,
          "midi": 55,
          "name": "G3",
          "ticks": 38880,
          "time": 126.5625,
          "velocity": 0.7480314960629921
        },
        {
          "duration": 0.3125,
          "durationTicks": 96,
          "midi": 67,
          "name": "G4",
          "ticks": 38976,
          "time": 126.875,
          "velocity": 0.7480314960629921
        },
        {
          "duration": 0.3125,
          "durationTicks": 96,
          "midi": 55,
          "name": "G3",
          "ticks": 39072,
          "time": 127.1875,
          "velocity": 0.7480314960629921
        },
        {
          "duration": 0.3125,
          "durationTicks": 96,
          "midi": 64,
          "name": "E4",
          "ticks": 39168,
          "time": 127.5,
          "velocity": 0.7480314960629921
        },
        {
          "duration": 0.15625,
          "durationTicks": 48,
          "midi": 64,
          "name": "E4",
          "ticks": 39264,
          "time": 127.8125,
          "velocity": 0.7480314960629921
        },
        {
          "duration": 0.3125,
          "durationTicks": 96,
          "midi": 64,
          "name": "E4",
          "ticks": 39312,
          "time": 127.96875,
          "velocity": 0.7480314960629921
        },
        {
          "duration": 0.15625,
          "durationTicks": 48,
          "midi": 55,
          "name": "G3",
          "ticks": 39408,
          "time": 128.28125,
          "velocity": 0.7480314960629921
        },
        {
          "duration": 0.3125,
          "durationTicks": 96,
          "midi": 64,
          "name": "E4",
          "ticks": 39456,
          "time": 128.4375,
          "velocity": 0.7480314960629921
        },
        {
          "duration": 0.3125,
          "durationTicks": 96,
          "midi": 63,
          "name": "D#4",
          "ticks": 39552,
          "time": 128.75,
          "velocity": 0.7480314960629921
        },
        {
          "duration": 0.15625,
          "durationTicks": 48,
          "midi": 63,
          "name": "D#4",
          "ticks": 39648,
          "time": 129.0625,
          "velocity": 0.7480314960629921
        },
        {
          "duration": 0.3125,
          "durationTicks": 96,
          "midi": 63,
          "name": "D#4",
          "ticks": 39696,
          "time": 129.21875,
          "velocity": 0.7480314960629921
        },
        {
          "duration": 0.15625,
          "durationTicks": 48,
          "midi": 55,
          "name": "G3",
          "ticks": 39792,
          "time": 129.53125,
          "velocity": 0.7480314960629921
        },
        {
          "duration": 0.3125,
          "durationTicks": 96,
          "midi": 63,
          "name": "D#4",
          "ticks": 39840,
          "time": 129.6875,
          "velocity": 0.7480314960629921
        },
        {
          "duration": 0.3125,
          "durationTicks": 96,
          "midi": 62,
          "name": "D4",
          "ticks": 39936,
          "time": 130,
          "velocity": 0.7480314960629921
        },
        {
          "duration": 0.15625,
          "durationTicks": 48,
          "midi": 62,
          "name": "D4",
          "ticks": 40032,
          "time": 130.3125,
          "velocity": 0.7480314960629921
        },
        {
          "duration": 0.3125,
          "durationTicks": 96,
          "midi": 62,
          "name": "D4",
          "ticks": 40080,
          "time": 130.46875,
          "velocity": 0.7480314960629921
        },
        {
          "duration": 0.15625,
          "durationTicks": 48,
          "midi": 55,
          "name": "G3",
          "ticks": 40176,
          "time": 130.78125,
          "velocity": 0.7480314960629921
        },
        {
          "duration": 0.3125,
          "durationTicks": 96,
          "midi": 62,
          "name": "D4",
          "ticks": 40224,
          "time": 130.9375,
          "velocity": 0.7480314960629921
        },
        {
          "duration": 0.3125,
          "durationTicks": 96,
          "midi": 61,
          "name": "C#4",
          "ticks": 40320,
          "time": 131.25,
          "velocity": 0.7480314960629921
        },
        {
          "duration": 0.15625,
          "durationTicks": 48,
          "midi": 61,
          "name": "C#4",
          "ticks": 40416,
          "time": 131.5625,
          "velocity": 0.7480314960629921
        },
        {
          "duration": 0.3125,
          "durationTicks": 96,
          "midi": 61,
          "name": "C#4",
          "ticks": 40464,
          "time": 131.71875,
          "velocity": 0.7480314960629921
        },
        {
          "duration": 0.15625,
          "durationTicks": 48,
          "midi": 55,
          "name": "G3",
          "ticks": 40560,
          "time": 132.03125,
          "velocity": 0.7480314960629921
        },
        {
          "duration": 0.3125,
          "durationTicks": 96,
          "midi": 61,
          "name": "C#4",
          "ticks": 40608,
          "time": 132.1875,
          "velocity": 0.7480314960629921
        },
        {
          "duration": 0.3125,
          "durationTicks": 96,
          "midi": 60,
          "name": "C4",
          "ticks": 40704,
          "time": 132.5,
          "velocity": 0.7480314960629921
        },
        {
          "duration": 0.15625,
          "durationTicks": 48,
          "midi": 60,
          "name": "C4",
          "ticks": 40800,
          "time": 132.8125,
          "velocity": 0.7480314960629921
        },
        {
          "duration": 0.3125,
          "durationTicks": 96,
          "midi": 60,
          "name": "C4",
          "ticks": 40848,
          "time": 132.96875,
          "velocity": 0.7480314960629921
        },
        {
          "duration": 0.15625,
          "durationTicks": 48,
          "midi": 55,
          "name": "G3",
          "ticks": 40944,
          "time": 133.28125,
          "velocity": 0.7480314960629921
        },
        {
          "duration": 0.3125,
          "durationTicks": 96,
          "midi": 60,
          "name": "C4",
          "ticks": 40992,
          "time": 133.4375,
          "velocity": 0.7480314960629921
        },
        {
          "duration": 0.3125,
          "durationTicks": 96,
          "midi": 59,
          "name": "B3",
          "ticks": 41088,
          "time": 133.75,
          "velocity": 0.7480314960629921
        },
        {
          "duration": 0.15625,
          "durationTicks": 48,
          "midi": 59,
          "name": "B3",
          "ticks": 41184,
          "time": 134.0625,
          "velocity": 0.7480314960629921
        },
        {
          "duration": 0.3125,
          "durationTicks": 96,
          "midi": 59,
          "name": "B3",
          "ticks": 41232,
          "time": 134.21875,
          "velocity": 0.7480314960629921
        },
        {
          "duration": 0.15625,
          "durationTicks": 48,
          "midi": 59,
          "name": "B3",
          "ticks": 41328,
          "time": 134.53125,
          "velocity": 0.7480314960629921
        },
        {
          "duration": 0.3125,
          "durationTicks": 96,
          "midi": 59,
          "name": "B3",
          "ticks": 41376,
          "time": 134.6875,
          "velocity": 0.7480314960629921
        },
        {
          "duration": 0.3125,
          "durationTicks": 96,
          "midi": 64,
          "name": "E4",
          "ticks": 41472,
          "time": 135,
          "velocity": 0.7480314960629921
        },
        {
          "duration": 0.3125,
          "durationTicks": 96,
          "midi": 55,
          "name": "G3",
          "ticks": 41568,
          "time": 135.3125,
          "velocity": 0.7480314960629921
        },
        {
          "duration": 0.3125,
          "durationTicks": 96,
          "midi": 62,
          "name": "D4",
          "ticks": 41664,
          "time": 135.625,
          "velocity": 0.7480314960629921
        },
        {
          "duration": 0.3125,
          "durationTicks": 96,
          "midi": 55,
          "name": "G3",
          "ticks": 41760,
          "time": 135.9375,
          "velocity": 0.7480314960629921
        },
        {
          "duration": 0.3125,
          "durationTicks": 96,
          "midi": 61,
          "name": "C#4",
          "ticks": 41856,
          "time": 136.25,
          "velocity": 0.7480314960629921
        },
        {
          "duration": 0.15625,
          "durationTicks": 48,
          "midi": 61,
          "name": "C#4",
          "ticks": 41952,
          "time": 136.5625,
          "velocity": 0.7480314960629921
        },
        {
          "duration": 0.3125,
          "durationTicks": 96,
          "midi": 61,
          "name": "C#4",
          "ticks": 42000,
          "time": 136.71875,
          "velocity": 0.7480314960629921
        },
        {
          "duration": 0.15625,
          "durationTicks": 48,
          "midi": 55,
          "name": "G3",
          "ticks": 42096,
          "time": 137.03125,
          "velocity": 0.7480314960629921
        },
        {
          "duration": 0.3125,
          "durationTicks": 96,
          "midi": 61,
          "name": "C#4",
          "ticks": 42144,
          "time": 137.1875,
          "velocity": 0.7480314960629921
        },
        {
          "duration": 0.3125,
          "durationTicks": 96,
          "midi": 60,
          "name": "C4",
          "ticks": 42240,
          "time": 137.5,
          "velocity": 0.7480314960629921
        },
        {
          "duration": 0.15625,
          "durationTicks": 48,
          "midi": 60,
          "name": "C4",
          "ticks": 42336,
          "time": 137.8125,
          "velocity": 0.7480314960629921
        },
        {
          "duration": 0.3125,
          "durationTicks": 96,
          "midi": 60,
          "name": "C4",
          "ticks": 42384,
          "time": 137.96875,
          "velocity": 0.7480314960629921
        },
        {
          "duration": 0.15625,
          "durationTicks": 48,
          "midi": 55,
          "name": "G3",
          "ticks": 42480,
          "time": 138.28125,
          "velocity": 0.7480314960629921
        },
        {
          "duration": 0.3125,
          "durationTicks": 96,
          "midi": 60,
          "name": "C4",
          "ticks": 42528,
          "time": 138.4375,
          "velocity": 0.7480314960629921
        },
        {
          "duration": 0.3125,
          "durationTicks": 96,
          "midi": 59,
          "name": "B3",
          "ticks": 42624,
          "time": 138.75,
          "velocity": 0.7480314960629921
        },
        {
          "duration": 0.15625,
          "durationTicks": 48,
          "midi": 55,
          "name": "G3",
          "ticks": 42720,
          "time": 139.0625,
          "velocity": 0.7480314960629921
        },
        {
          "duration": 0.3125,
          "durationTicks": 96,
          "midi": 59,
          "name": "B3",
          "ticks": 42768,
          "time": 139.21875,
          "velocity": 0.7480314960629921
        },
        {
          "duration": 0.15625,
          "durationTicks": 48,
          "midi": 55,
          "name": "G3",
          "ticks": 42864,
          "time": 139.53125,
          "velocity": 0.7480314960629921
        },
        {
          "duration": 0.3125,
          "durationTicks": 96,
          "midi": 59,
          "name": "B3",
          "ticks": 42912,
          "time": 139.6875,
          "velocity": 0.7480314960629921
        },
        {
          "duration": 0.3125,
          "durationTicks": 96,
          "midi": 64,
          "name": "E4",
          "ticks": 43008,
          "time": 140,
          "velocity": 0.7480314960629921
        },
        {
          "duration": 0.3125,
          "durationTicks": 96,
          "midi": 55,
          "name": "G3",
          "ticks": 43104,
          "time": 140.3125,
          "velocity": 0.7480314960629921
        },
        {
          "duration": 0.3125,
          "durationTicks": 96,
          "midi": 62,
          "name": "D4",
          "ticks": 43200,
          "time": 140.625,
          "velocity": 0.7480314960629921
        },
        {
          "duration": 0.3125,
          "durationTicks": 96,
          "midi": 55,
          "name": "G3",
          "ticks": 43296,
          "time": 140.9375,
          "velocity": 0.7480314960629921
        },
        {
          "duration": 0.3125,
          "durationTicks": 96,
          "midi": 61,
          "name": "C#4",
          "ticks": 43392,
          "time": 141.25,
          "velocity": 0.7480314960629921
        },
        {
          "duration": 0.15625,
          "durationTicks": 48,
          "midi": 61,
          "name": "C#4",
          "ticks": 43488,
          "time": 141.5625,
          "velocity": 0.7480314960629921
        },
        {
          "duration": 0.3125,
          "durationTicks": 96,
          "midi": 61,
          "name": "C#4",
          "ticks": 43536,
          "time": 141.71875,
          "velocity": 0.7480314960629921
        },
        {
          "duration": 0.15625,
          "durationTicks": 48,
          "midi": 55,
          "name": "G3",
          "ticks": 43632,
          "time": 142.03125,
          "velocity": 0.7480314960629921
        },
        {
          "duration": 0.3125,
          "durationTicks": 96,
          "midi": 61,
          "name": "C#4",
          "ticks": 43680,
          "time": 142.1875,
          "velocity": 0.7480314960629921
        },
        {
          "duration": 0.3125,
          "durationTicks": 96,
          "midi": 60,
          "name": "C4",
          "ticks": 43776,
          "time": 142.5,
          "velocity": 0.7480314960629921
        },
        {
          "duration": 0.15625,
          "durationTicks": 48,
          "midi": 60,
          "name": "C4",
          "ticks": 43872,
          "time": 142.8125,
          "velocity": 0.7480314960629921
        },
        {
          "duration": 0.3125,
          "durationTicks": 96,
          "midi": 60,
          "name": "C4",
          "ticks": 43920,
          "time": 142.96875,
          "velocity": 0.7480314960629921
        },
        {
          "duration": 0.15625,
          "durationTicks": 48,
          "midi": 55,
          "name": "G3",
          "ticks": 44016,
          "time": 143.28125,
          "velocity": 0.7480314960629921
        },
        {
          "duration": 0.3125,
          "durationTicks": 96,
          "midi": 60,
          "name": "C4",
          "ticks": 44064,
          "time": 143.4375,
          "velocity": 0.7480314960629921
        },
        {
          "duration": 0.3125,
          "durationTicks": 96,
          "midi": 59,
          "name": "B3",
          "ticks": 44160,
          "time": 143.75,
          "velocity": 0.7480314960629921
        },
        {
          "duration": 0.9375,
          "durationTicks": 288,
          "midi": 67,
          "name": "G4",
          "ticks": 44256,
          "time": 144.0625,
          "velocity": 0.7480314960629921
        }
      ]
    },
    {
      "channel": 0,
      "controlChanges": {
        "7": [
          {
            "number": 7,
            "ticks": 0,
            "time": 0,
            "value": 0.7874015748031497
          }
        ]
      },
      "pitchBends": [],
      "instrument": {
        "family": "piano",
        "number": 0,
        "name": "acoustic grand piano"
      },
      "name": "Steel-Str. Guitar",
      "notes": [],
      "endOfTrackTicks": 44544
    },
    {
      "channel": 1,
      "controlChanges": {},
      "pitchBends": [],
      "instrument": {
        "family": "guitar",
        "number": 25,
        "name": "fretless bass"
      },
      "name": "",
      "notes": [
        {
          "duration": 0.625,
          "durationTicks": 192,
          "midi": 43,
          "name": "G2",
          "ticks": 0,
          "time": 0,
          "velocity": 0.7480314960629921
        },
        {
          "duration": 0.625,
          "durationTicks": 192,
          "midi": 45,
          "name": "A2",
          "ticks": 192,
          "time": 0.625,
          "velocity": 0.7480314960629921
        },
        {
          "duration": 0.625,
          "durationTicks": 192,
          "midi": 47,
          "name": "B2",
          "ticks": 384,
          "time": 1.25,
          "velocity": 0.7480314960629921
        },
        {
          "duration": 0.625,
          "durationTicks": 192,
          "midi": 55,
          "name": "G3",
          "ticks": 576,
          "time": 1.875,
          "velocity": 0.7480314960629921
        },
        {
          "duration": 0.625,
          "durationTicks": 192,
          "midi": 55,
          "name": "G3",
          "ticks": 768,
          "time": 2.5,
          "velocity": 0.7480314960629921
        },
        {
          "duration": 0.625,
          "durationTicks": 192,
          "midi": 55,
          "name": "G3",
          "ticks": 960,
          "time": 3.125,
          "velocity": 0.7480314960629921
        },
        {
          "duration": 0.625,
          "durationTicks": 192,
          "midi": 55,
          "name": "G3",
          "ticks": 1152,
          "time": 3.75,
          "velocity": 0.7480314960629921
        },
        {
          "duration": 0.625,
          "durationTicks": 192,
          "midi": 43,
          "name": "G2",
          "ticks": 1344,
          "time": 4.375,
          "velocity": 0.7480314960629921
        },
        {
          "duration": 0.625,
          "durationTicks": 192,
          "midi": 45,
          "name": "A2",
          "ticks": 1536,
          "time": 5,
          "velocity": 0.7480314960629921
        },
        {
          "duration": 0.625,
          "durationTicks": 192,
          "midi": 47,
          "name": "B2",
          "ticks": 1728,
          "time": 5.625,
          "velocity": 0.7480314960629921
        },
        {
          "duration": 0.625,
          "durationTicks": 192,
          "midi": 55,
          "name": "G3",
          "ticks": 1920,
          "time": 6.25,
          "velocity": 0.7480314960629921
        },
        {
          "duration": 0.625,
          "durationTicks": 192,
          "midi": 55,
          "name": "G3",
          "ticks": 2112,
          "time": 6.875,
          "velocity": 0.7480314960629921
        },
        {
          "duration": 0.625,
          "durationTicks": 192,
          "midi": 55,
          "name": "G3",
          "ticks": 2304,
          "time": 7.5,
          "velocity": 0.7480314960629921
        },
        {
          "duration": 0.625,
          "durationTicks": 192,
          "midi": 55,
          "name": "G3",
          "ticks": 2496,
          "time": 8.125,
          "velocity": 0.7480314960629921
        },
        {
          "duration": 0.625,
          "durationTicks": 192,
          "midi": 48,
          "name": "C3",
          "ticks": 2688,
          "time": 8.75,
          "velocity": 0.7480314960629921
        },
        {
          "duration": 0.625,
          "durationTicks": 192,
          "midi": 49,
          "name": "C#3",
          "ticks": 2880,
          "time": 9.375,
          "velocity": 0.7480314960629921
        },
        {
          "duration": 0.625,
          "durationTicks": 192,
          "midi": 50,
          "name": "D3",
          "ticks": 3072,
          "time": 10,
          "velocity": 0.7480314960629921
        },
        {
          "duration": 0.625,
          "durationTicks": 192,
          "midi": 51,
          "name": "D#3",
          "ticks": 3264,
          "time": 10.625,
          "velocity": 0.7480314960629921
        },
        {
          "duration": 0.625,
          "durationTicks": 192,
          "midi": 52,
          "name": "E3",
          "ticks": 3456,
          "time": 11.25,
          "velocity": 0.7480314960629921
        },
        {
          "duration": 0.625,
          "durationTicks": 192,
          "midi": 52,
          "name": "E3",
          "ticks": 3648,
          "time": 11.875,
          "velocity": 0.7480314960629921
        },
        {
          "duration": 0.625,
          "durationTicks": 192,
          "midi": 51,
          "name": "D#3",
          "ticks": 3840,
          "time": 12.5,
          "velocity": 0.7480314960629921
        },
        {
          "duration": 0.625,
          "durationTicks": 192,
          "midi": 52,
          "name": "E3",
          "ticks": 4032,
          "time": 13.125,
          "velocity": 0.7480314960629921
        },
        {
          "duration": 0.625,
          "durationTicks": 192,
          "midi": 50,
          "name": "D3",
          "ticks": 4224,
          "time": 13.75,
          "velocity": 0.7480314960629921
        },
        {
          "duration": 0.625,
          "durationTicks": 192,
          "midi": 49,
          "name": "C#3",
          "ticks": 4416,
          "time": 14.375,
          "velocity": 0.7480314960629921
        },
        {
          "duration": 0.625,
          "durationTicks": 192,
          "midi": 48,
          "name": "C3",
          "ticks": 4608,
          "time": 15,
          "velocity": 0.7480314960629921
        },
        {
          "duration": 0.625,
          "durationTicks": 192,
          "midi": 48,
          "name": "C3",
          "ticks": 4800,
          "time": 15.625,
          "velocity": 0.7480314960629921
        },
        {
          "duration": 0.625,
          "durationTicks": 192,
          "midi": 48,
          "name": "C3",
          "ticks": 4992,
          "time": 16.25,
          "velocity": 0.7480314960629921
        },
        {
          "duration": 0.625,
          "durationTicks": 192,
          "midi": 48,
          "name": "C3",
          "ticks": 5184,
          "time": 16.875,
          "velocity": 0.7480314960629921
        },
        {
          "duration": 0.625,
          "durationTicks": 192,
          "midi": 47,
          "name": "B2",
          "ticks": 5376,
          "time": 17.5,
          "velocity": 0.7480314960629921
        },
        {
          "duration": 0.625,
          "durationTicks": 192,
          "midi": 47,
          "name": "B2",
          "ticks": 5568,
          "time": 18.125,
          "velocity": 0.7480314960629921
        },
        {
          "duration": 0.625,
          "durationTicks": 192,
          "midi": 45,
          "name": "A2",
          "ticks": 5760,
          "time": 18.75,
          "velocity": 0.7480314960629921
        },
        {
          "duration": 0.625,
          "durationTicks": 192,
          "midi": 45,
          "name": "A2",
          "ticks": 5952,
          "time": 19.375,
          "velocity": 0.7480314960629921
        },
        {
          "duration": 0.625,
          "durationTicks": 192,
          "midi": 50,
          "name": "D3",
          "ticks": 6144,
          "time": 20,
          "velocity": 0.7480314960629921
        },
        {
          "duration": 0.625,
          "durationTicks": 192,
          "midi": 50,
          "name": "D3",
          "ticks": 6336,
          "time": 20.625,
          "velocity": 0.7480314960629921
        },
        {
          "duration": 0.625,
          "durationTicks": 192,
          "midi": 43,
          "name": "G2",
          "ticks": 6528,
          "time": 21.25,
          "velocity": 0.7480314960629921
        },
        {
          "duration": 0.625,
          "durationTicks": 192,
          "midi": 43,
          "name": "G2",
          "ticks": 6720,
          "time": 21.875,
          "velocity": 0.7480314960629921
        },
        {
          "duration": 0.625,
          "durationTicks": 192,
          "midi": 48,
          "name": "C3",
          "ticks": 6912,
          "time": 22.5,
          "velocity": 0.7480314960629921
        },
        {
          "duration": 0.625,
          "durationTicks": 192,
          "midi": 47,
          "name": "B2",
          "ticks": 7104,
          "time": 23.125,
          "velocity": 0.7480314960629921
        },
        {
          "duration": 0.625,
          "durationTicks": 192,
          "midi": 45,
          "name": "A2",
          "ticks": 7296,
          "time": 23.75,
          "velocity": 0.7480314960629921
        },
        {
          "duration": 0.625,
          "durationTicks": 192,
          "midi": 45,
          "name": "A2",
          "ticks": 7488,
          "time": 24.375,
          "velocity": 0.7480314960629921
        },
        {
          "duration": 0.625,
          "durationTicks": 192,
          "midi": 50,
          "name": "D3",
          "ticks": 7680,
          "time": 25,
          "velocity": 0.7480314960629921
        },
        {
          "duration": 0.625,
          "durationTicks": 192,
          "midi": 50,
          "name": "D3",
          "ticks": 7872,
          "time": 25.625,
          "velocity": 0.7480314960629921
        },
        {
          "duration": 0.625,
          "durationTicks": 192,
          "midi": 43,
          "name": "G2",
          "ticks": 8064,
          "time": 26.25,
          "velocity": 0.7480314960629921
        },
        {
          "duration": 0.625,
          "durationTicks": 192,
          "midi": 43,
          "name": "G2",
          "ticks": 8256,
          "time": 26.875,
          "velocity": 0.7480314960629921
        },
        {
          "duration": 0.625,
          "durationTicks": 192,
          "midi": 43,
          "name": "G2",
          "ticks": 8448,
          "time": 27.5,
          "velocity": 0.7480314960629921
        },
        {
          "duration": 0.625,
          "durationTicks": 192,
          "midi": 45,
          "name": "A2",
          "ticks": 8640,
          "time": 28.125,
          "velocity": 0.7480314960629921
        },
        {
          "duration": 0.625,
          "durationTicks": 192,
          "midi": 47,
          "name": "B2",
          "ticks": 8832,
          "time": 28.75,
          "velocity": 0.7480314960629921
        },
        {
          "duration": 0.625,
          "durationTicks": 192,
          "midi": 55,
          "name": "G3",
          "ticks": 9024,
          "time": 29.375,
          "velocity": 0.7480314960629921
        },
        {
          "duration": 0.625,
          "durationTicks": 192,
          "midi": 55,
          "name": "G3",
          "ticks": 9216,
          "time": 30,
          "velocity": 0.7480314960629921
        },
        {
          "duration": 0.625,
          "durationTicks": 192,
          "midi": 55,
          "name": "G3",
          "ticks": 9408,
          "time": 30.625,
          "velocity": 0.7480314960629921
        },
        {
          "duration": 0.625,
          "durationTicks": 192,
          "midi": 55,
          "name": "G3",
          "ticks": 9600,
          "time": 31.25,
          "velocity": 0.7480314960629921
        },
        {
          "duration": 0.625,
          "durationTicks": 192,
          "midi": 48,
          "name": "C3",
          "ticks": 9792,
          "time": 31.875,
          "velocity": 0.7480314960629921
        },
        {
          "duration": 0.625,
          "durationTicks": 192,
          "midi": 49,
          "name": "C#3",
          "ticks": 9984,
          "time": 32.5,
          "velocity": 0.7480314960629921
        },
        {
          "duration": 0.625,
          "durationTicks": 192,
          "midi": 50,
          "name": "D3",
          "ticks": 10176,
          "time": 33.125,
          "velocity": 0.7480314960629921
        },
        {
          "duration": 0.625,
          "durationTicks": 192,
          "midi": 51,
          "name": "D#3",
          "ticks": 10368,
          "time": 33.75,
          "velocity": 0.7480314960629921
        },
        {
          "duration": 0.625,
          "durationTicks": 192,
          "midi": 52,
          "name": "E3",
          "ticks": 10560,
          "time": 34.375,
          "velocity": 0.7480314960629921
        },
        {
          "duration": 0.625,
          "durationTicks": 192,
          "midi": 52,
          "name": "E3",
          "ticks": 10752,
          "time": 35,
          "velocity": 0.7480314960629921
        },
        {
          "duration": 0.625,
          "durationTicks": 192,
          "midi": 51,
          "name": "D#3",
          "ticks": 10944,
          "time": 35.625,
          "velocity": 0.7480314960629921
        },
        {
          "duration": 0.625,
          "durationTicks": 192,
          "midi": 52,
          "name": "E3",
          "ticks": 11136,
          "time": 36.25,
          "velocity": 0.7480314960629921
        },
        {
          "duration": 0.625,
          "durationTicks": 192,
          "midi": 50,
          "name": "D3",
          "ticks": 11328,
          "time": 36.875,
          "velocity": 0.7480314960629921
        },
        {
          "duration": 0.625,
          "durationTicks": 192,
          "midi": 49,
          "name": "C#3",
          "ticks": 11520,
          "time": 37.5,
          "velocity": 0.7480314960629921
        },
        {
          "duration": 0.625,
          "durationTicks": 192,
          "midi": 48,
          "name": "C3",
          "ticks": 11712,
          "time": 38.125,
          "velocity": 0.7480314960629921
        },
        {
          "duration": 0.625,
          "durationTicks": 192,
          "midi": 48,
          "name": "C3",
          "ticks": 11904,
          "time": 38.75,
          "velocity": 0.7480314960629921
        },
        {
          "duration": 0.625,
          "durationTicks": 192,
          "midi": 48,
          "name": "C3",
          "ticks": 12096,
          "time": 39.375,
          "velocity": 0.7480314960629921
        },
        {
          "duration": 0.625,
          "durationTicks": 192,
          "midi": 48,
          "name": "C3",
          "ticks": 12288,
          "time": 40,
          "velocity": 0.7480314960629921
        },
        {
          "duration": 0.625,
          "durationTicks": 192,
          "midi": 47,
          "name": "B2",
          "ticks": 12480,
          "time": 40.625,
          "velocity": 0.7480314960629921
        },
        {
          "duration": 0.625,
          "durationTicks": 192,
          "midi": 47,
          "name": "B2",
          "ticks": 12672,
          "time": 41.25,
          "velocity": 0.7480314960629921
        },
        {
          "duration": 0.625,
          "durationTicks": 192,
          "midi": 45,
          "name": "A2",
          "ticks": 12864,
          "time": 41.875,
          "velocity": 0.7480314960629921
        },
        {
          "duration": 0.625,
          "durationTicks": 192,
          "midi": 45,
          "name": "A2",
          "ticks": 13056,
          "time": 42.5,
          "velocity": 0.7480314960629921
        },
        {
          "duration": 0.625,
          "durationTicks": 192,
          "midi": 50,
          "name": "D3",
          "ticks": 13248,
          "time": 43.125,
          "velocity": 0.7480314960629921
        },
        {
          "duration": 0.625,
          "durationTicks": 192,
          "midi": 50,
          "name": "D3",
          "ticks": 13440,
          "time": 43.75,
          "velocity": 0.7480314960629921
        },
        {
          "duration": 0.625,
          "durationTicks": 192,
          "midi": 45,
          "name": "A2",
          "ticks": 13632,
          "time": 44.375,
          "velocity": 0.7480314960629921
        },
        {
          "duration": 0.625,
          "durationTicks": 192,
          "midi": 45,
          "name": "A2",
          "ticks": 13824,
          "time": 45,
          "velocity": 0.7480314960629921
        },
        {
          "duration": 0.625,
          "durationTicks": 192,
          "midi": 53,
          "name": "F3",
          "ticks": 14016,
          "time": 45.625,
          "velocity": 0.7480314960629921
        },
        {
          "duration": 0.625,
          "durationTicks": 192,
          "midi": 52,
          "name": "E3",
          "ticks": 14208,
          "time": 46.25,
          "velocity": 0.7480314960629921
        },
        {
          "duration": 0.625,
          "durationTicks": 192,
          "midi": 50,
          "name": "D3",
          "ticks": 14400,
          "time": 46.875,
          "velocity": 0.7480314960629921
        },
        {
          "duration": 0.625,
          "durationTicks": 192,
          "midi": 48,
          "name": "C3",
          "ticks": 14592,
          "time": 47.5,
          "velocity": 0.7480314960629921
        },
        {
          "duration": 0.625,
          "durationTicks": 192,
          "midi": 46,
          "name": "A#2",
          "ticks": 14784,
          "time": 48.125,
          "velocity": 0.7480314960629921
        },
        {
          "duration": 0.625,
          "durationTicks": 192,
          "midi": 46,
          "name": "A#2",
          "ticks": 14976,
          "time": 48.75,
          "velocity": 0.7480314960629921
        },
        {
          "duration": 0.625,
          "durationTicks": 192,
          "midi": 48,
          "name": "C3",
          "ticks": 15168,
          "time": 49.375,
          "velocity": 0.7480314960629921
        },
        {
          "duration": 0.625,
          "durationTicks": 192,
          "midi": 48,
          "name": "C3",
          "ticks": 15360,
          "time": 50,
          "velocity": 0.7480314960629921
        },
        {
          "duration": 0.625,
          "durationTicks": 192,
          "midi": 53,
          "name": "F3",
          "ticks": 15552,
          "time": 50.625,
          "velocity": 0.7480314960629921
        },
        {
          "duration": 0.625,
          "durationTicks": 192,
          "midi": 52,
          "name": "E3",
          "ticks": 15744,
          "time": 51.25,
          "velocity": 0.7480314960629921
        },
        {
          "duration": 0.625,
          "durationTicks": 192,
          "midi": 50,
          "name": "D3",
          "ticks": 15936,
          "time": 51.875,
          "velocity": 0.7480314960629921
        },
        {
          "duration": 0.625,
          "durationTicks": 192,
          "midi": 48,
          "name": "C3",
          "ticks": 16128,
          "time": 52.5,
          "velocity": 0.7480314960629921
        },
        {
          "duration": 0.625,
          "durationTicks": 192,
          "midi": 46,
          "name": "A#2",
          "ticks": 16320,
          "time": 53.125,
          "velocity": 0.7480314960629921
        },
        {
          "duration": 0.625,
          "durationTicks": 192,
          "midi": 46,
          "name": "A#2",
          "ticks": 16512,
          "time": 53.75,
          "velocity": 0.7480314960629921
        },
        {
          "duration": 0.625,
          "durationTicks": 192,
          "midi": 45,
          "name": "A2",
          "ticks": 16704,
          "time": 54.375,
          "velocity": 0.7480314960629921
        },
        {
          "duration": 0.625,
          "durationTicks": 192,
          "midi": 45,
          "name": "A2",
          "ticks": 16896,
          "time": 55,
          "velocity": 0.7480314960629921
        },
        {
          "duration": 0.625,
          "durationTicks": 192,
          "midi": 50,
          "name": "D3",
          "ticks": 17088,
          "time": 55.625,
          "velocity": 0.7480314960629921
        },
        {
          "duration": 0.625,
          "durationTicks": 192,
          "midi": 50,
          "name": "D3",
          "ticks": 17280,
          "time": 56.25,
          "velocity": 0.7480314960629921
        },
        {
          "duration": 0.625,
          "durationTicks": 192,
          "midi": 43,
          "name": "G2",
          "ticks": 17472,
          "time": 56.875,
          "velocity": 0.7480314960629921
        },
        {
          "duration": 0.625,
          "durationTicks": 192,
          "midi": 45,
          "name": "A2",
          "ticks": 17664,
          "time": 57.5,
          "velocity": 0.7480314960629921
        },
        {
          "duration": 0.625,
          "durationTicks": 192,
          "midi": 47,
          "name": "B2",
          "ticks": 17856,
          "time": 58.125,
          "velocity": 0.7480314960629921
        },
        {
          "duration": 0.625,
          "durationTicks": 192,
          "midi": 55,
          "name": "G3",
          "ticks": 18048,
          "time": 58.75,
          "velocity": 0.7480314960629921
        },
        {
          "duration": 0.625,
          "durationTicks": 192,
          "midi": 55,
          "name": "G3",
          "ticks": 18240,
          "time": 59.375,
          "velocity": 0.7480314960629921
        },
        {
          "duration": 0.625,
          "durationTicks": 192,
          "midi": 55,
          "name": "G3",
          "ticks": 18432,
          "time": 60,
          "velocity": 0.7480314960629921
        },
        {
          "duration": 0.625,
          "durationTicks": 192,
          "midi": 55,
          "name": "G3",
          "ticks": 18624,
          "time": 60.625,
          "velocity": 0.7480314960629921
        },
        {
          "duration": 0.625,
          "durationTicks": 192,
          "midi": 48,
          "name": "C3",
          "ticks": 18816,
          "time": 61.25,
          "velocity": 0.7480314960629921
        },
        {
          "duration": 0.625,
          "durationTicks": 192,
          "midi": 49,
          "name": "C#3",
          "ticks": 19008,
          "time": 61.875,
          "velocity": 0.7480314960629921
        },
        {
          "duration": 0.625,
          "durationTicks": 192,
          "midi": 50,
          "name": "D3",
          "ticks": 19200,
          "time": 62.5,
          "velocity": 0.7480314960629921
        },
        {
          "duration": 0.625,
          "durationTicks": 192,
          "midi": 51,
          "name": "D#3",
          "ticks": 19392,
          "time": 63.125,
          "velocity": 0.7480314960629921
        },
        {
          "duration": 0.625,
          "durationTicks": 192,
          "midi": 52,
          "name": "E3",
          "ticks": 19584,
          "time": 63.75,
          "velocity": 0.7480314960629921
        },
        {
          "duration": 0.625,
          "durationTicks": 192,
          "midi": 52,
          "name": "E3",
          "ticks": 19776,
          "time": 64.375,
          "velocity": 0.7480314960629921
        },
        {
          "duration": 0.625,
          "durationTicks": 192,
          "midi": 51,
          "name": "D#3",
          "ticks": 19968,
          "time": 65,
          "velocity": 0.7480314960629921
        },
        {
          "duration": 0.625,
          "durationTicks": 192,
          "midi": 52,
          "name": "E3",
          "ticks": 20160,
          "time": 65.625,
          "velocity": 0.7480314960629921
        },
        {
          "duration": 0.625,
          "durationTicks": 192,
          "midi": 50,
          "name": "D3",
          "ticks": 20352,
          "time": 66.25,
          "velocity": 0.7480314960629921
        },
        {
          "duration": 0.625,
          "durationTicks": 192,
          "midi": 49,
          "name": "C#3",
          "ticks": 20544,
          "time": 66.875,
          "velocity": 0.7480314960629921
        },
        {
          "duration": 0.625,
          "durationTicks": 192,
          "midi": 48,
          "name": "C3",
          "ticks": 20736,
          "time": 67.5,
          "velocity": 0.7480314960629921
        },
        {
          "duration": 0.625,
          "durationTicks": 192,
          "midi": 48,
          "name": "C3",
          "ticks": 20928,
          "time": 68.125,
          "velocity": 0.7480314960629921
        },
        {
          "duration": 0.625,
          "durationTicks": 192,
          "midi": 48,
          "name": "C3",
          "ticks": 21120,
          "time": 68.75,
          "velocity": 0.7480314960629921
        },
        {
          "duration": 0.625,
          "durationTicks": 192,
          "midi": 48,
          "name": "C3",
          "ticks": 21312,
          "time": 69.375,
          "velocity": 0.7480314960629921
        },
        {
          "duration": 0.625,
          "durationTicks": 192,
          "midi": 47,
          "name": "B2",
          "ticks": 21504,
          "time": 70,
          "velocity": 0.7480314960629921
        },
        {
          "duration": 0.625,
          "durationTicks": 192,
          "midi": 47,
          "name": "B2",
          "ticks": 21696,
          "time": 70.625,
          "velocity": 0.7480314960629921
        },
        {
          "duration": 0.625,
          "durationTicks": 192,
          "midi": 45,
          "name": "A2",
          "ticks": 21888,
          "time": 71.25,
          "velocity": 0.7480314960629921
        },
        {
          "duration": 0.625,
          "durationTicks": 192,
          "midi": 45,
          "name": "A2",
          "ticks": 22080,
          "time": 71.875,
          "velocity": 0.7480314960629921
        },
        {
          "duration": 0.625,
          "durationTicks": 192,
          "midi": 50,
          "name": "D3",
          "ticks": 22272,
          "time": 72.5,
          "velocity": 0.7480314960629921
        },
        {
          "duration": 0.625,
          "durationTicks": 192,
          "midi": 50,
          "name": "D3",
          "ticks": 22464,
          "time": 73.125,
          "velocity": 0.7480314960629921
        },
        {
          "duration": 0.625,
          "durationTicks": 192,
          "midi": 43,
          "name": "G2",
          "ticks": 22656,
          "time": 73.75,
          "velocity": 0.7480314960629921
        },
        {
          "duration": 0.625,
          "durationTicks": 192,
          "midi": 43,
          "name": "G2",
          "ticks": 22848,
          "time": 74.375,
          "velocity": 0.7480314960629921
        },
        {
          "duration": 0.625,
          "durationTicks": 192,
          "midi": 43,
          "name": "G2",
          "ticks": 23040,
          "time": 75,
          "velocity": 0.7480314960629921
        },
        {
          "duration": 0.625,
          "durationTicks": 192,
          "midi": 43,
          "name": "G2",
          "ticks": 23232,
          "time": 75.625,
          "velocity": 0.7480314960629921
        },
        {
          "duration": 0.625,
          "durationTicks": 192,
          "midi": 45,
          "name": "A2",
          "ticks": 23424,
          "time": 76.25,
          "velocity": 0.7480314960629921
        },
        {
          "duration": 0.625,
          "durationTicks": 192,
          "midi": 47,
          "name": "B2",
          "ticks": 23616,
          "time": 76.875,
          "velocity": 0.7480314960629921
        },
        {
          "duration": 0.625,
          "durationTicks": 192,
          "midi": 55,
          "name": "G3",
          "ticks": 23808,
          "time": 77.5,
          "velocity": 0.7480314960629921
        },
        {
          "duration": 0.625,
          "durationTicks": 192,
          "midi": 55,
          "name": "G3",
          "ticks": 24000,
          "time": 78.125,
          "velocity": 0.7480314960629921
        },
        {
          "duration": 0.625,
          "durationTicks": 192,
          "midi": 55,
          "name": "G3",
          "ticks": 24192,
          "time": 78.75,
          "velocity": 0.7480314960629921
        },
        {
          "duration": 0.625,
          "durationTicks": 192,
          "midi": 55,
          "name": "G3",
          "ticks": 24384,
          "time": 79.375,
          "velocity": 0.7480314960629921
        },
        {
          "duration": 0.625,
          "durationTicks": 192,
          "midi": 48,
          "name": "C3",
          "ticks": 24576,
          "time": 80,
          "velocity": 0.7480314960629921
        },
        {
          "duration": 0.625,
          "durationTicks": 192,
          "midi": 49,
          "name": "C#3",
          "ticks": 24768,
          "time": 80.625,
          "velocity": 0.7480314960629921
        },
        {
          "duration": 0.625,
          "durationTicks": 192,
          "midi": 50,
          "name": "D3",
          "ticks": 24960,
          "time": 81.25,
          "velocity": 0.7480314960629921
        },
        {
          "duration": 0.625,
          "durationTicks": 192,
          "midi": 51,
          "name": "D#3",
          "ticks": 25152,
          "time": 81.875,
          "velocity": 0.7480314960629921
        },
        {
          "duration": 0.625,
          "durationTicks": 192,
          "midi": 52,
          "name": "E3",
          "ticks": 25344,
          "time": 82.5,
          "velocity": 0.7480314960629921
        },
        {
          "duration": 0.625,
          "durationTicks": 192,
          "midi": 52,
          "name": "E3",
          "ticks": 25536,
          "time": 83.125,
          "velocity": 0.7480314960629921
        },
        {
          "duration": 0.625,
          "durationTicks": 192,
          "midi": 51,
          "name": "D#3",
          "ticks": 25728,
          "time": 83.75,
          "velocity": 0.7480314960629921
        },
        {
          "duration": 0.625,
          "durationTicks": 192,
          "midi": 52,
          "name": "E3",
          "ticks": 25920,
          "time": 84.375,
          "velocity": 0.7480314960629921
        },
        {
          "duration": 0.625,
          "durationTicks": 192,
          "midi": 50,
          "name": "D3",
          "ticks": 26112,
          "time": 85,
          "velocity": 0.7480314960629921
        },
        {
          "duration": 0.625,
          "durationTicks": 192,
          "midi": 49,
          "name": "C#3",
          "ticks": 26304,
          "time": 85.625,
          "velocity": 0.7480314960629921
        },
        {
          "duration": 0.625,
          "durationTicks": 192,
          "midi": 48,
          "name": "C3",
          "ticks": 26496,
          "time": 86.25,
          "velocity": 0.7480314960629921
        },
        {
          "duration": 0.625,
          "durationTicks": 192,
          "midi": 48,
          "name": "C3",
          "ticks": 26688,
          "time": 86.875,
          "velocity": 0.7480314960629921
        },
        {
          "duration": 0.625,
          "durationTicks": 192,
          "midi": 48,
          "name": "C3",
          "ticks": 26880,
          "time": 87.5,
          "velocity": 0.7480314960629921
        },
        {
          "duration": 0.625,
          "durationTicks": 192,
          "midi": 48,
          "name": "C3",
          "ticks": 27072,
          "time": 88.125,
          "velocity": 0.7480314960629921
        },
        {
          "duration": 0.625,
          "durationTicks": 192,
          "midi": 47,
          "name": "B2",
          "ticks": 27264,
          "time": 88.75,
          "velocity": 0.7480314960629921
        },
        {
          "duration": 0.625,
          "durationTicks": 192,
          "midi": 47,
          "name": "B2",
          "ticks": 27456,
          "time": 89.375,
          "velocity": 0.7480314960629921
        },
        {
          "duration": 0.625,
          "durationTicks": 192,
          "midi": 45,
          "name": "A2",
          "ticks": 27648,
          "time": 90,
          "velocity": 0.7480314960629921
        },
        {
          "duration": 0.625,
          "durationTicks": 192,
          "midi": 45,
          "name": "A2",
          "ticks": 27840,
          "time": 90.625,
          "velocity": 0.7480314960629921
        },
        {
          "duration": 0.625,
          "durationTicks": 192,
          "midi": 50,
          "name": "D3",
          "ticks": 28032,
          "time": 91.25,
          "velocity": 0.7480314960629921
        },
        {
          "duration": 0.625,
          "durationTicks": 192,
          "midi": 50,
          "name": "D3",
          "ticks": 28224,
          "time": 91.875,
          "velocity": 0.7480314960629921
        },
        {
          "duration": 0.625,
          "durationTicks": 192,
          "midi": 45,
          "name": "A2",
          "ticks": 28416,
          "time": 92.5,
          "velocity": 0.7480314960629921
        },
        {
          "duration": 0.625,
          "durationTicks": 192,
          "midi": 45,
          "name": "A2",
          "ticks": 28608,
          "time": 93.125,
          "velocity": 0.7480314960629921
        },
        {
          "duration": 0.625,
          "durationTicks": 192,
          "midi": 53,
          "name": "F3",
          "ticks": 28800,
          "time": 93.75,
          "velocity": 0.7480314960629921
        },
        {
          "duration": 0.625,
          "durationTicks": 192,
          "midi": 52,
          "name": "E3",
          "ticks": 28992,
          "time": 94.375,
          "velocity": 0.7480314960629921
        },
        {
          "duration": 0.625,
          "durationTicks": 192,
          "midi": 50,
          "name": "D3",
          "ticks": 29184,
          "time": 95,
          "velocity": 0.7480314960629921
        },
        {
          "duration": 0.625,
          "durationTicks": 192,
          "midi": 48,
          "name": "C3",
          "ticks": 29376,
          "time": 95.625,
          "velocity": 0.7480314960629921
        },
        {
          "duration": 0.625,
          "durationTicks": 192,
          "midi": 46,
          "name": "A#2",
          "ticks": 29568,
          "time": 96.25,
          "velocity": 0.7480314960629921
        },
        {
          "duration": 0.625,
          "durationTicks": 192,
          "midi": 46,
          "name": "A#2",
          "ticks": 29760,
          "time": 96.875,
          "velocity": 0.7480314960629921
        },
        {
          "duration": 0.625,
          "durationTicks": 192,
          "midi": 48,
          "name": "C3",
          "ticks": 29952,
          "time": 97.5,
          "velocity": 0.7480314960629921
        },
        {
          "duration": 0.625,
          "durationTicks": 192,
          "midi": 48,
          "name": "C3",
          "ticks": 30144,
          "time": 98.125,
          "velocity": 0.7480314960629921
        },
        {
          "duration": 0.625,
          "durationTicks": 192,
          "midi": 53,
          "name": "F3",
          "ticks": 30336,
          "time": 98.75,
          "velocity": 0.7480314960629921
        },
        {
          "duration": 0.625,
          "durationTicks": 192,
          "midi": 52,
          "name": "E3",
          "ticks": 30528,
          "time": 99.375,
          "velocity": 0.7480314960629921
        },
        {
          "duration": 0.625,
          "durationTicks": 192,
          "midi": 50,
          "name": "D3",
          "ticks": 30720,
          "time": 100,
          "velocity": 0.7480314960629921
        },
        {
          "duration": 0.625,
          "durationTicks": 192,
          "midi": 48,
          "name": "C3",
          "ticks": 30912,
          "time": 100.625,
          "velocity": 0.7480314960629921
        },
        {
          "duration": 0.625,
          "durationTicks": 192,
          "midi": 46,
          "name": "A#2",
          "ticks": 31104,
          "time": 101.25,
          "velocity": 0.7480314960629921
        },
        {
          "duration": 0.625,
          "durationTicks": 192,
          "midi": 46,
          "name": "A#2",
          "ticks": 31296,
          "time": 101.875,
          "velocity": 0.7480314960629921
        },
        {
          "duration": 0.625,
          "durationTicks": 192,
          "midi": 45,
          "name": "A2",
          "ticks": 31488,
          "time": 102.5,
          "velocity": 0.7480314960629921
        },
        {
          "duration": 0.625,
          "durationTicks": 192,
          "midi": 45,
          "name": "A2",
          "ticks": 31680,
          "time": 103.125,
          "velocity": 0.7480314960629921
        },
        {
          "duration": 0.625,
          "durationTicks": 192,
          "midi": 50,
          "name": "D3",
          "ticks": 31872,
          "time": 103.75,
          "velocity": 0.7480314960629921
        },
        {
          "duration": 0.625,
          "durationTicks": 192,
          "midi": 50,
          "name": "D3",
          "ticks": 32064,
          "time": 104.375,
          "velocity": 0.7480314960629921
        },
        {
          "duration": 0.625,
          "durationTicks": 192,
          "midi": 43,
          "name": "G2",
          "ticks": 32256,
          "time": 105,
          "velocity": 0.7480314960629921
        },
        {
          "duration": 0.625,
          "durationTicks": 192,
          "midi": 45,
          "name": "A2",
          "ticks": 32448,
          "time": 105.625,
          "velocity": 0.7480314960629921
        },
        {
          "duration": 0.625,
          "durationTicks": 192,
          "midi": 47,
          "name": "B2",
          "ticks": 32640,
          "time": 106.25,
          "velocity": 0.7480314960629921
        },
        {
          "duration": 0.625,
          "durationTicks": 192,
          "midi": 55,
          "name": "G3",
          "ticks": 32832,
          "time": 106.875,
          "velocity": 0.7480314960629921
        },
        {
          "duration": 0.625,
          "durationTicks": 192,
          "midi": 55,
          "name": "G3",
          "ticks": 33024,
          "time": 107.5,
          "velocity": 0.7480314960629921
        },
        {
          "duration": 0.625,
          "durationTicks": 192,
          "midi": 55,
          "name": "G3",
          "ticks": 33216,
          "time": 108.125,
          "velocity": 0.7480314960629921
        },
        {
          "duration": 0.625,
          "durationTicks": 192,
          "midi": 55,
          "name": "G3",
          "ticks": 33408,
          "time": 108.75,
          "velocity": 0.7480314960629921
        },
        {
          "duration": 0.625,
          "durationTicks": 192,
          "midi": 55,
          "name": "G3",
          "ticks": 33600,
          "time": 109.375,
          "velocity": 0.7480314960629921
        },
        {
          "duration": 0.625,
          "durationTicks": 192,
          "midi": 55,
          "name": "G3",
          "ticks": 33792,
          "time": 110,
          "velocity": 0.7480314960629921
        },
        {
          "duration": 0.625,
          "durationTicks": 192,
          "midi": 55,
          "name": "G3",
          "ticks": 33984,
          "time": 110.625,
          "velocity": 0.7480314960629921
        },
        {
          "duration": 0.46875,
          "durationTicks": 144,
          "midi": 55,
          "name": "G3",
          "ticks": 34176,
          "time": 111.25,
          "velocity": 0.7480314960629921
        },
        {
          "duration": 0.15625,
          "durationTicks": 48,
          "midi": 55,
          "name": "G3",
          "ticks": 34320,
          "time": 111.71875,
          "velocity": 0.7480314960629921
        },
        {
          "duration": 0.625,
          "durationTicks": 192,
          "midi": 43,
          "name": "G2",
          "ticks": 34368,
          "time": 111.875,
          "velocity": 0.7480314960629921
        },
        {
          "duration": 0.625,
          "durationTicks": 192,
          "midi": 45,
          "name": "A2",
          "ticks": 34560,
          "time": 112.5,
          "velocity": 0.7480314960629921
        },
        {
          "duration": 0.625,
          "durationTicks": 192,
          "midi": 47,
          "name": "B2",
          "ticks": 34752,
          "time": 113.125,
          "velocity": 0.7480314960629921
        },
        {
          "duration": 0.625,
          "durationTicks": 192,
          "midi": 48,
          "name": "C3",
          "ticks": 34944,
          "time": 113.75,
          "velocity": 0.7480314960629921
        },
        {
          "duration": 0.625,
          "durationTicks": 192,
          "midi": 47,
          "name": "B2",
          "ticks": 35136,
          "time": 114.375,
          "velocity": 0.7480314960629921
        },
        {
          "duration": 0.625,
          "durationTicks": 192,
          "midi": 45,
          "name": "A2",
          "ticks": 35328,
          "time": 115,
          "velocity": 0.7480314960629921
        },
        {
          "duration": 0.625,
          "durationTicks": 192,
          "midi": 50,
          "name": "D3",
          "ticks": 35520,
          "time": 115.625,
          "velocity": 0.7480314960629921
        },
        {
          "duration": 0.625,
          "durationTicks": 192,
          "midi": 50,
          "name": "D3",
          "ticks": 35712,
          "time": 116.25,
          "velocity": 0.7480314960629921
        },
        {
          "duration": 0.625,
          "durationTicks": 192,
          "midi": 43,
          "name": "G2",
          "ticks": 35904,
          "time": 116.875,
          "velocity": 0.7480314960629921
        },
        {
          "duration": 0.625,
          "durationTicks": 192,
          "midi": 45,
          "name": "A2",
          "ticks": 36096,
          "time": 117.5,
          "velocity": 0.7480314960629921
        },
        {
          "duration": 0.625,
          "durationTicks": 192,
          "midi": 47,
          "name": "B2",
          "ticks": 36288,
          "time": 118.125,
          "velocity": 0.7480314960629921
        },
        {
          "duration": 0.625,
          "durationTicks": 192,
          "midi": 55,
          "name": "G3",
          "ticks": 36480,
          "time": 118.75,
          "velocity": 0.7480314960629921
        },
        {
          "duration": 0.625,
          "durationTicks": 192,
          "midi": 55,
          "name": "G3",
          "ticks": 36672,
          "time": 119.375,
          "velocity": 0.7480314960629921
        },
        {
          "duration": 0.625,
          "durationTicks": 192,
          "midi": 55,
          "name": "G3",
          "ticks": 36864,
          "time": 120,
          "velocity": 0.7480314960629921
        },
        {
          "duration": 0.625,
          "durationTicks": 192,
          "midi": 55,
          "name": "G3",
          "ticks": 37056,
          "time": 120.625,
          "velocity": 0.7480314960629921
        },
        {
          "duration": 0.625,
          "durationTicks": 192,
          "midi": 48,
          "name": "C3",
          "ticks": 37248,
          "time": 121.25,
          "velocity": 0.7480314960629921
        },
        {
          "duration": 0.625,
          "durationTicks": 192,
          "midi": 49,
          "name": "C#3",
          "ticks": 37440,
          "time": 121.875,
          "velocity": 0.7480314960629921
        },
        {
          "duration": 0.625,
          "durationTicks": 192,
          "midi": 50,
          "name": "D3",
          "ticks": 37632,
          "time": 122.5,
          "velocity": 0.7480314960629921
        },
        {
          "duration": 0.625,
          "durationTicks": 192,
          "midi": 51,
          "name": "D#3",
          "ticks": 37824,
          "time": 123.125,
          "velocity": 0.7480314960629921
        },
        {
          "duration": 0.625,
          "durationTicks": 192,
          "midi": 52,
          "name": "E3",
          "ticks": 38016,
          "time": 123.75,
          "velocity": 0.7480314960629921
        },
        {
          "duration": 0.625,
          "durationTicks": 192,
          "midi": 52,
          "name": "E3",
          "ticks": 38208,
          "time": 124.375,
          "velocity": 0.7480314960629921
        },
        {
          "duration": 0.625,
          "durationTicks": 192,
          "midi": 51,
          "name": "D#3",
          "ticks": 38400,
          "time": 125,
          "velocity": 0.7480314960629921
        },
        {
          "duration": 0.625,
          "durationTicks": 192,
          "midi": 52,
          "name": "E3",
          "ticks": 38592,
          "time": 125.625,
          "velocity": 0.7480314960629921
        },
        {
          "duration": 0.625,
          "durationTicks": 192,
          "midi": 50,
          "name": "D3",
          "ticks": 38784,
          "time": 126.25,
          "velocity": 0.7480314960629921
        },
        {
          "duration": 0.625,
          "durationTicks": 192,
          "midi": 49,
          "name": "C#3",
          "ticks": 38976,
          "time": 126.875,
          "velocity": 0.7480314960629921
        },
        {
          "duration": 0.625,
          "durationTicks": 192,
          "midi": 48,
          "name": "C3",
          "ticks": 39168,
          "time": 127.5,
          "velocity": 0.7480314960629921
        },
        {
          "duration": 0.625,
          "durationTicks": 192,
          "midi": 48,
          "name": "C3",
          "ticks": 39360,
          "time": 128.125,
          "velocity": 0.7480314960629921
        },
        {
          "duration": 0.625,
          "durationTicks": 192,
          "midi": 48,
          "name": "C3",
          "ticks": 39552,
          "time": 128.75,
          "velocity": 0.7480314960629921
        },
        {
          "duration": 0.625,
          "durationTicks": 192,
          "midi": 48,
          "name": "C3",
          "ticks": 39744,
          "time": 129.375,
          "velocity": 0.7480314960629921
        },
        {
          "duration": 0.625,
          "durationTicks": 192,
          "midi": 59,
          "name": "B3",
          "ticks": 39936,
          "time": 130,
          "velocity": 0.7480314960629921
        },
        {
          "duration": 0.625,
          "durationTicks": 192,
          "midi": 59,
          "name": "B3",
          "ticks": 40128,
          "time": 130.625,
          "velocity": 0.7480314960629921
        },
        {
          "duration": 0.625,
          "durationTicks": 192,
          "midi": 57,
          "name": "A3",
          "ticks": 40320,
          "time": 131.25,
          "velocity": 0.7480314960629921
        },
        {
          "duration": 0.625,
          "durationTicks": 192,
          "midi": 57,
          "name": "A3",
          "ticks": 40512,
          "time": 131.875,
          "velocity": 0.7480314960629921
        },
        {
          "duration": 0.625,
          "durationTicks": 192,
          "midi": 62,
          "name": "D4",
          "ticks": 40704,
          "time": 132.5,
          "velocity": 0.7480314960629921
        },
        {
          "duration": 0.625,
          "durationTicks": 192,
          "midi": 62,
          "name": "D4",
          "ticks": 40896,
          "time": 133.125,
          "velocity": 0.7480314960629921
        },
        {
          "duration": 0.625,
          "durationTicks": 192,
          "midi": 55,
          "name": "G3",
          "ticks": 41088,
          "time": 133.75,
          "velocity": 0.7480314960629921
        },
        {
          "duration": 0.625,
          "durationTicks": 192,
          "midi": 55,
          "name": "G3",
          "ticks": 41280,
          "time": 134.375,
          "velocity": 0.7480314960629921
        },
        {
          "duration": 0.625,
          "durationTicks": 192,
          "midi": 60,
          "name": "C4",
          "ticks": 41472,
          "time": 135,
          "velocity": 0.7480314960629921
        },
        {
          "duration": 0.625,
          "durationTicks": 192,
          "midi": 59,
          "name": "B3",
          "ticks": 41664,
          "time": 135.625,
          "velocity": 0.7480314960629921
        },
        {
          "duration": 0.625,
          "durationTicks": 192,
          "midi": 57,
          "name": "A3",
          "ticks": 41856,
          "time": 136.25,
          "velocity": 0.7480314960629921
        },
        {
          "duration": 0.625,
          "durationTicks": 192,
          "midi": 57,
          "name": "A3",
          "ticks": 42048,
          "time": 136.875,
          "velocity": 0.7480314960629921
        },
        {
          "duration": 0.625,
          "durationTicks": 192,
          "midi": 62,
          "name": "D4",
          "ticks": 42240,
          "time": 137.5,
          "velocity": 0.7480314960629921
        },
        {
          "duration": 0.625,
          "durationTicks": 192,
          "midi": 62,
          "name": "D4",
          "ticks": 42432,
          "time": 138.125,
          "velocity": 0.7480314960629921
        },
        {
          "duration": 0.625,
          "durationTicks": 192,
          "midi": 55,
          "name": "G3",
          "ticks": 42624,
          "time": 138.75,
          "velocity": 0.7480314960629921
        },
        {
          "duration": 0.625,
          "durationTicks": 192,
          "midi": 55,
          "name": "G3",
          "ticks": 42816,
          "time": 139.375,
          "velocity": 0.7480314960629921
        },
        {
          "duration": 0.625,
          "durationTicks": 192,
          "midi": 60,
          "name": "C4",
          "ticks": 43008,
          "time": 140,
          "velocity": 0.7480314960629921
        },
        {
          "duration": 0.625,
          "durationTicks": 192,
          "midi": 59,
          "name": "B3",
          "ticks": 43200,
          "time": 140.625,
          "velocity": 0.7480314960629921
        },
        {
          "duration": 0.625,
          "durationTicks": 192,
          "midi": 57,
          "name": "A3",
          "ticks": 43392,
          "time": 141.25,
          "velocity": 0.7480314960629921
        },
        {
          "duration": 0.625,
          "durationTicks": 192,
          "midi": 57,
          "name": "A3",
          "ticks": 43584,
          "time": 141.875,
          "velocity": 0.7480314960629921
        },
        {
          "duration": 0.625,
          "durationTicks": 192,
          "midi": 62,
          "name": "D4",
          "ticks": 43776,
          "time": 142.5,
          "velocity": 0.7480314960629921
        },
        {
          "duration": 0.625,
          "durationTicks": 192,
          "midi": 62,
          "name": "D4",
          "ticks": 43968,
          "time": 143.125,
          "velocity": 0.7480314960629921
        },
        {
          "duration": 1.25,
          "durationTicks": 384,
          "midi": 55,
          "name": "G3",
          "ticks": 44160,
          "time": 143.75,
          "velocity": 0.7480314960629921
        }
      ]
    },
    {
      "channel": 0,
      "controlChanges": {
        "7": [
          {
            "number": 7,
            "ticks": 0,
            "time": 0,
            "value": 0.7874015748031497
          }
        ]
      },
      "pitchBends": [],
      "instrument": {
        "family": "piano",
        "number": 0,
        "name": "acoustic grand piano"
      },
      "name": "Clarinet",
      "notes": [],
      "endOfTrackTicks": 44544
    },
    {
      "channel": 2,
      "controlChanges": {},
      "pitchBends": [],
      "instrument": {
        "family": "pipe",
        "number": 73,
        "name": "flute"
      },
      "name": "",
      "notes": [
        {
          "duration": 0.3125,
          "durationTicks": 96,
          "midi": 67,
          "name": "G4",
          "ticks": 1344,
          "time": 4.375,
          "velocity": 0.8976377952755905
        },
        {
          "duration": 0.3125,
          "durationTicks": 96,
          "midi": 67,
          "name": "G4",
          "ticks": 1440,
          "time": 4.6875,
          "velocity": 0.8976377952755905
        },
        {
          "duration": 0.15625,
          "durationTicks": 48,
          "midi": 67,
          "name": "G4",
          "ticks": 1536,
          "time": 5,
          "velocity": 0.8976377952755905
        },
        {
          "duration": 0.15625,
          "durationTicks": 48,
          "midi": 67,
          "name": "G4",
          "ticks": 1584,
          "time": 5.15625,
          "velocity": 0.8976377952755905
        },
        {
          "duration": 0.15625,
          "durationTicks": 48,
          "midi": 67,
          "name": "G4",
          "ticks": 1632,
          "time": 5.3125,
          "velocity": 0.8976377952755905
        },
        {
          "duration": 0.15625,
          "durationTicks": 48,
          "midi": 65,
          "name": "F4",
          "ticks": 1680,
          "time": 5.46875,
          "velocity": 0.8976377952755905
        },
        {
          "duration": 0.15625,
          "durationTicks": 48,
          "midi": 67,
          "name": "G4",
          "ticks": 1728,
          "time": 5.625,
          "velocity": 0.8976377952755905
        },
        {
          "duration": 0.46875,
          "durationTicks": 144,
          "midi": 74,
          "name": "D5",
          "ticks": 1776,
          "time": 5.78125,
          "velocity": 0.8976377952755905
        },
        {
          "duration": 1.875,
          "durationTicks": 576,
          "midi": 74,
          "name": "D5",
          "ticks": 1920,
          "time": 6.25,
          "velocity": 0.8976377952755905
        },
        {
          "duration": 0.15625,
          "durationTicks": 48,
          "midi": 71,
          "name": "B4",
          "ticks": 2688,
          "time": 8.75,
          "velocity": 0.8976377952755905
        },
        {
          "duration": 0.15625,
          "durationTicks": 48,
          "midi": 69,
          "name": "A4",
          "ticks": 2736,
          "time": 8.90625,
          "velocity": 0.8976377952755905
        },
        {
          "duration": 0.3125,
          "durationTicks": 96,
          "midi": 67,
          "name": "G4",
          "ticks": 2784,
          "time": 9.0625,
          "velocity": 0.8976377952755905
        },
        {
          "duration": 0.15625,
          "durationTicks": 48,
          "midi": 69,
          "name": "A4",
          "ticks": 2880,
          "time": 9.375,
          "velocity": 0.8976377952755905
        },
        {
          "duration": 0.15625,
          "durationTicks": 48,
          "midi": 69,
          "name": "A4",
          "ticks": 2928,
          "time": 9.53125,
          "velocity": 0.8976377952755905
        },
        {
          "duration": 0.625,
          "durationTicks": 192,
          "midi": 69,
          "name": "A4",
          "ticks": 2976,
          "time": 9.6875,
          "velocity": 0.8976377952755905
        },
        {
          "duration": 0.15625,
          "durationTicks": 48,
          "midi": 67,
          "name": "G4",
          "ticks": 3168,
          "time": 10.3125,
          "velocity": 0.8976377952755905
        },
        {
          "duration": 0.46875,
          "durationTicks": 144,
          "midi": 72,
          "name": "C5",
          "ticks": 3216,
          "time": 10.46875,
          "velocity": 0.8976377952755905
        },
        {
          "duration": 0.15625,
          "durationTicks": 48,
          "midi": 74,
          "name": "D5",
          "ticks": 3360,
          "time": 10.9375,
          "velocity": 0.8976377952755905
        },
        {
          "duration": 0.46875,
          "durationTicks": 144,
          "midi": 71,
          "name": "B4",
          "ticks": 3408,
          "time": 11.09375,
          "velocity": 0.8976377952755905
        },
        {
          "duration": 0.46875,
          "durationTicks": 144,
          "midi": 69,
          "name": "A4",
          "ticks": 4224,
          "time": 13.75,
          "velocity": 0.8976377952755905
        },
        {
          "duration": 0.46875,
          "durationTicks": 144,
          "midi": 71,
          "name": "B4",
          "ticks": 4368,
          "time": 14.21875,
          "velocity": 0.8976377952755905
        },
        {
          "duration": 2.1875,
          "durationTicks": 672,
          "midi": 67,
          "name": "G4",
          "ticks": 4512,
          "time": 14.6875,
          "velocity": 0.8976377952755905
        },
        {
          "duration": 0.3125,
          "durationTicks": 96,
          "midi": 67,
          "name": "G4",
          "ticks": 5376,
          "time": 17.5,
          "velocity": 0.8976377952755905
        },
        {
          "duration": 0.3125,
          "durationTicks": 96,
          "midi": 67,
          "name": "G4",
          "ticks": 5472,
          "time": 17.8125,
          "velocity": 0.8976377952755905
        },
        {
          "duration": 0.46875,
          "durationTicks": 144,
          "midi": 67,
          "name": "G4",
          "ticks": 5568,
          "time": 18.125,
          "velocity": 0.8976377952755905
        },
        {
          "duration": 0.15625,
          "durationTicks": 48,
          "midi": 69,
          "name": "A4",
          "ticks": 5712,
          "time": 18.59375,
          "velocity": 0.8976377952755905
        },
        {
          "duration": 0.3125,
          "durationTicks": 96,
          "midi": 71,
          "name": "B4",
          "ticks": 5760,
          "time": 18.75,
          "velocity": 0.8976377952755905
        },
        {
          "duration": 0.15625,
          "durationTicks": 48,
          "midi": 69,
          "name": "A4",
          "ticks": 5856,
          "time": 19.0625,
          "velocity": 0.8976377952755905
        },
        {
          "duration": 0.15625,
          "durationTicks": 48,
          "midi": 67,
          "name": "G4",
          "ticks": 5952,
          "time": 19.375,
          "velocity": 0.8976377952755905
        },
        {
          "duration": 0.3125,
          "durationTicks": 96,
          "midi": 64,
          "name": "E4",
          "ticks": 6000,
          "time": 19.53125,
          "velocity": 0.8976377952755905
        },
        {
          "duration": 0.46875,
          "durationTicks": 144,
          "midi": 69,
          "name": "A4",
          "ticks": 6096,
          "time": 19.84375,
          "velocity": 0.8976377952755905
        },
        {
          "duration": 0.3125,
          "durationTicks": 96,
          "midi": 67,
          "name": "G4",
          "ticks": 6240,
          "time": 20.3125,
          "velocity": 0.8976377952755905
        },
        {
          "duration": 0.15625,
          "durationTicks": 48,
          "midi": 71,
          "name": "B4",
          "ticks": 6336,
          "time": 20.625,
          "velocity": 0.8976377952755905
        },
        {
          "duration": 0.3125,
          "durationTicks": 96,
          "midi": 69,
          "name": "A4",
          "ticks": 6384,
          "time": 20.78125,
          "velocity": 0.8976377952755905
        },
        {
          "duration": 1.40625,
          "durationTicks": 432,
          "midi": 67,
          "name": "G4",
          "ticks": 6480,
          "time": 21.09375,
          "velocity": 0.8976377952755905
        },
        {
          "duration": 0.3125,
          "durationTicks": 96,
          "midi": 67,
          "name": "G4",
          "ticks": 8448,
          "time": 27.5,
          "velocity": 0.8976377952755905
        },
        {
          "duration": 0.3125,
          "durationTicks": 96,
          "midi": 67,
          "name": "G4",
          "ticks": 8544,
          "time": 27.8125,
          "velocity": 0.8976377952755905
        },
        {
          "duration": 0.15625,
          "durationTicks": 48,
          "midi": 67,
          "name": "G4",
          "ticks": 8640,
          "time": 28.125,
          "velocity": 0.8976377952755905
        },
        {
          "duration": 0.15625,
          "durationTicks": 48,
          "midi": 67,
          "name": "G4",
          "ticks": 8688,
          "time": 28.28125,
          "velocity": 0.8976377952755905
        },
        {
          "duration": 0.15625,
          "durationTicks": 48,
          "midi": 67,
          "name": "G4",
          "ticks": 8736,
          "time": 28.4375,
          "velocity": 0.8976377952755905
        },
        {
          "duration": 0.15625,
          "durationTicks": 48,
          "midi": 65,
          "name": "F4",
          "ticks": 8784,
          "time": 28.59375,
          "velocity": 0.8976377952755905
        },
        {
          "duration": 0.15625,
          "durationTicks": 48,
          "midi": 67,
          "name": "G4",
          "ticks": 8832,
          "time": 28.75,
          "velocity": 0.8976377952755905
        },
        {
          "duration": 0.46875,
          "durationTicks": 144,
          "midi": 74,
          "name": "D5",
          "ticks": 8880,
          "time": 28.90625,
          "velocity": 0.8976377952755905
        },
        {
          "duration": 1.875,
          "durationTicks": 576,
          "midi": 74,
          "name": "D5",
          "ticks": 9024,
          "time": 29.375,
          "velocity": 0.8976377952755905
        },
        {
          "duration": 0.15625,
          "durationTicks": 48,
          "midi": 71,
          "name": "B4",
          "ticks": 9792,
          "time": 31.875,
          "velocity": 0.8976377952755905
        },
        {
          "duration": 0.15625,
          "durationTicks": 48,
          "midi": 69,
          "name": "A4",
          "ticks": 9840,
          "time": 32.03125,
          "velocity": 0.8976377952755905
        },
        {
          "duration": 0.3125,
          "durationTicks": 96,
          "midi": 67,
          "name": "G4",
          "ticks": 9888,
          "time": 32.1875,
          "velocity": 0.8976377952755905
        },
        {
          "duration": 0.15625,
          "durationTicks": 48,
          "midi": 69,
          "name": "A4",
          "ticks": 9984,
          "time": 32.5,
          "velocity": 0.8976377952755905
        },
        {
          "duration": 0.15625,
          "durationTicks": 48,
          "midi": 69,
          "name": "A4",
          "ticks": 10032,
          "time": 32.65625,
          "velocity": 0.8976377952755905
        },
        {
          "duration": 0.625,
          "durationTicks": 192,
          "midi": 69,
          "name": "A4",
          "ticks": 10080,
          "time": 32.8125,
          "velocity": 0.8976377952755905
        },
        {
          "duration": 0.15625,
          "durationTicks": 48,
          "midi": 67,
          "name": "G4",
          "ticks": 10272,
          "time": 33.4375,
          "velocity": 0.8976377952755905
        },
        {
          "duration": 0.46875,
          "durationTicks": 144,
          "midi": 72,
          "name": "C5",
          "ticks": 10320,
          "time": 33.59375,
          "velocity": 0.8976377952755905
        },
        {
          "duration": 0.15625,
          "durationTicks": 48,
          "midi": 74,
          "name": "D5",
          "ticks": 10464,
          "time": 34.0625,
          "velocity": 0.8976377952755905
        },
        {
          "duration": 0.46875,
          "durationTicks": 144,
          "midi": 71,
          "name": "B4",
          "ticks": 10512,
          "time": 34.21875,
          "velocity": 0.8976377952755905
        },
        {
          "duration": 0.46875,
          "durationTicks": 144,
          "midi": 69,
          "name": "A4",
          "ticks": 11328,
          "time": 36.875,
          "velocity": 0.8976377952755905
        },
        {
          "duration": 0.46875,
          "durationTicks": 144,
          "midi": 71,
          "name": "B4",
          "ticks": 11472,
          "time": 37.34375,
          "velocity": 0.8976377952755905
        },
        {
          "duration": 2.1875,
          "durationTicks": 672,
          "midi": 67,
          "name": "G4",
          "ticks": 11616,
          "time": 37.8125,
          "velocity": 0.8976377952755905
        },
        {
          "duration": 0.3125,
          "durationTicks": 96,
          "midi": 67,
          "name": "G4",
          "ticks": 12480,
          "time": 40.625,
          "velocity": 0.8976377952755905
        },
        {
          "duration": 0.3125,
          "durationTicks": 96,
          "midi": 67,
          "name": "G4",
          "ticks": 12576,
          "time": 40.9375,
          "velocity": 0.8976377952755905
        },
        {
          "duration": 0.46875,
          "durationTicks": 144,
          "midi": 67,
          "name": "G4",
          "ticks": 12672,
          "time": 41.25,
          "velocity": 0.8976377952755905
        },
        {
          "duration": 0.15625,
          "durationTicks": 48,
          "midi": 69,
          "name": "A4",
          "ticks": 12816,
          "time": 41.71875,
          "velocity": 0.8976377952755905
        },
        {
          "duration": 0.3125,
          "durationTicks": 96,
          "midi": 71,
          "name": "B4",
          "ticks": 12864,
          "time": 41.875,
          "velocity": 0.8976377952755905
        },
        {
          "duration": 0.15625,
          "durationTicks": 48,
          "midi": 69,
          "name": "A4",
          "ticks": 12960,
          "time": 42.1875,
          "velocity": 0.8976377952755905
        },
        {
          "duration": 0.15625,
          "durationTicks": 48,
          "midi": 67,
          "name": "G4",
          "ticks": 13056,
          "time": 42.5,
          "velocity": 0.8976377952755905
        },
        {
          "duration": 0.3125,
          "durationTicks": 96,
          "midi": 64,
          "name": "E4",
          "ticks": 13104,
          "time": 42.65625,
          "velocity": 0.8976377952755905
        },
        {
          "duration": 0.46875,
          "durationTicks": 144,
          "midi": 69,
          "name": "A4",
          "ticks": 13200,
          "time": 42.96875,
          "velocity": 0.8976377952755905
        },
        {
          "duration": 0.3125,
          "durationTicks": 96,
          "midi": 67,
          "name": "G4",
          "ticks": 13344,
          "time": 43.4375,
          "velocity": 0.8976377952755905
        },
        {
          "duration": 0.15625,
          "durationTicks": 48,
          "midi": 71,
          "name": "B4",
          "ticks": 13440,
          "time": 43.75,
          "velocity": 0.8976377952755905
        },
        {
          "duration": 0.15625,
          "durationTicks": 48,
          "midi": 69,
          "name": "A4",
          "ticks": 13488,
          "time": 43.90625,
          "velocity": 0.8976377952755905
        },
        {
          "duration": 0.3125,
          "durationTicks": 96,
          "midi": 64,
          "name": "E4",
          "ticks": 13536,
          "time": 44.0625,
          "velocity": 0.8976377952755905
        },
        {
          "duration": 1.25,
          "durationTicks": 384,
          "midi": 67,
          "name": "G4",
          "ticks": 13632,
          "time": 44.375,
          "velocity": 0.8976377952755905
        },
        {
          "duration": 0.9375,
          "durationTicks": 288,
          "midi": 72,
          "name": "C5",
          "ticks": 14016,
          "time": 45.625,
          "velocity": 0.8976377952755905
        },
        {
          "duration": 1.25,
          "durationTicks": 384,
          "midi": 67,
          "name": "G4",
          "ticks": 14304,
          "time": 46.5625,
          "velocity": 0.8976377952755905
        },
        {
          "duration": 2.1875,
          "durationTicks": 672,
          "midi": 67,
          "name": "G4",
          "ticks": 14688,
          "time": 47.8125,
          "velocity": 0.8976377952755905
        },
        {
          "duration": 0.9375,
          "durationTicks": 288,
          "midi": 72,
          "name": "C5",
          "ticks": 15552,
          "time": 50.625,
          "velocity": 0.8976377952755905
        },
        {
          "duration": 1.25,
          "durationTicks": 384,
          "midi": 67,
          "name": "G4",
          "ticks": 15840,
          "time": 51.5625,
          "velocity": 0.8976377952755905
        },
        {
          "duration": 1.5625,
          "durationTicks": 480,
          "midi": 67,
          "name": "G4",
          "ticks": 16224,
          "time": 52.8125,
          "velocity": 0.8976377952755905
        },
        {
          "duration": 0.3125,
          "durationTicks": 96,
          "midi": 79,
          "name": "G5",
          "ticks": 16848,
          "time": 54.84375,
          "velocity": 0.8976377952755905
        },
        {
          "duration": 0.15625,
          "durationTicks": 48,
          "midi": 77,
          "name": "F5",
          "ticks": 16944,
          "time": 55.15625,
          "velocity": 0.8976377952755905
        },
        {
          "duration": 0.15625,
          "durationTicks": 48,
          "midi": 74,
          "name": "D5",
          "ticks": 16992,
          "time": 55.3125,
          "velocity": 0.8976377952755905
        },
        {
          "duration": 0.46875,
          "durationTicks": 144,
          "midi": 77,
          "name": "F5",
          "ticks": 17040,
          "time": 55.46875,
          "velocity": 0.8976377952755905
        },
        {
          "duration": 0.15625,
          "durationTicks": 48,
          "midi": 74,
          "name": "D5",
          "ticks": 17184,
          "time": 55.9375,
          "velocity": 0.8976377952755905
        },
        {
          "duration": 0.15625,
          "durationTicks": 48,
          "midi": 74,
          "name": "D5",
          "ticks": 17232,
          "time": 56.09375,
          "velocity": 0.8976377952755905
        },
        {
          "duration": 0.3125,
          "durationTicks": 96,
          "midi": 72,
          "name": "C5",
          "ticks": 17280,
          "time": 56.25,
          "velocity": 0.8976377952755905
        },
        {
          "duration": 0.15625,
          "durationTicks": 48,
          "midi": 70,
          "name": "A#4",
          "ticks": 17376,
          "time": 56.5625,
          "velocity": 0.8976377952755905
        },
        {
          "duration": 0.46875,
          "durationTicks": 144,
          "midi": 65,
          "name": "F4",
          "ticks": 17424,
          "time": 56.71875,
          "velocity": 0.8976377952755905
        },
        {
          "duration": 1.5625,
          "durationTicks": 480,
          "midi": 67,
          "name": "G4",
          "ticks": 17568,
          "time": 57.1875,
          "velocity": 0.8976377952755905
        },
        {
          "duration": 0.3125,
          "durationTicks": 96,
          "midi": 67,
          "name": "G4",
          "ticks": 23232,
          "time": 75.625,
          "velocity": 0.8976377952755905
        },
        {
          "duration": 0.3125,
          "durationTicks": 96,
          "midi": 67,
          "name": "G4",
          "ticks": 23328,
          "time": 75.9375,
          "velocity": 0.8976377952755905
        },
        {
          "duration": 0.15625,
          "durationTicks": 48,
          "midi": 67,
          "name": "G4",
          "ticks": 23424,
          "time": 76.25,
          "velocity": 0.8976377952755905
        },
        {
          "duration": 0.15625,
          "durationTicks": 48,
          "midi": 67,
          "name": "G4",
          "ticks": 23472,
          "time": 76.40625,
          "velocity": 0.8976377952755905
        },
        {
          "duration": 0.15625,
          "durationTicks": 48,
          "midi": 67,
          "name": "G4",
          "ticks": 23520,
          "time": 76.5625,
          "velocity": 0.8976377952755905
        },
        {
          "duration": 0.15625,
          "durationTicks": 48,
          "midi": 65,
          "name": "F4",
          "ticks": 23568,
          "time": 76.71875,
          "velocity": 0.8976377952755905
        },
        {
          "duration": 0.15625,
          "durationTicks": 48,
          "midi": 67,
          "name": "G4",
          "ticks": 23616,
          "time": 76.875,
          "velocity": 0.8976377952755905
        },
        {
          "duration": 0.46875,
          "durationTicks": 144,
          "midi": 74,
          "name": "D5",
          "ticks": 23664,
          "time": 77.03125,
          "velocity": 0.8976377952755905
        },
        {
          "duration": 1.875,
          "durationTicks": 576,
          "midi": 74,
          "name": "D5",
          "ticks": 23808,
          "time": 77.5,
          "velocity": 0.8976377952755905
        },
        {
          "duration": 0.15625,
          "durationTicks": 48,
          "midi": 71,
          "name": "B4",
          "ticks": 24576,
          "time": 80,
          "velocity": 0.8976377952755905
        },
        {
          "duration": 0.15625,
          "durationTicks": 48,
          "midi": 69,
          "name": "A4",
          "ticks": 24624,
          "time": 80.15625,
          "velocity": 0.8976377952755905
        },
        {
          "duration": 0.3125,
          "durationTicks": 96,
          "midi": 67,
          "name": "G4",
          "ticks": 24672,
          "time": 80.3125,
          "velocity": 0.8976377952755905
        },
        {
          "duration": 0.15625,
          "durationTicks": 48,
          "midi": 69,
          "name": "A4",
          "ticks": 24768,
          "time": 80.625,
          "velocity": 0.8976377952755905
        },
        {
          "duration": 0.15625,
          "durationTicks": 48,
          "midi": 69,
          "name": "A4",
          "ticks": 24816,
          "time": 80.78125,
          "velocity": 0.8976377952755905
        },
        {
          "duration": 0.625,
          "durationTicks": 192,
          "midi": 69,
          "name": "A4",
          "ticks": 24864,
          "time": 80.9375,
          "velocity": 0.8976377952755905
        },
        {
          "duration": 0.15625,
          "durationTicks": 48,
          "midi": 67,
          "name": "G4",
          "ticks": 25056,
          "time": 81.5625,
          "velocity": 0.8976377952755905
        },
        {
          "duration": 0.46875,
          "durationTicks": 144,
          "midi": 72,
          "name": "C5",
          "ticks": 25104,
          "time": 81.71875,
          "velocity": 0.8976377952755905
        },
        {
          "duration": 0.15625,
          "durationTicks": 48,
          "midi": 74,
          "name": "D5",
          "ticks": 25248,
          "time": 82.1875,
          "velocity": 0.8976377952755905
        },
        {
          "duration": 0.46875,
          "durationTicks": 144,
          "midi": 71,
          "name": "B4",
          "ticks": 25296,
          "time": 82.34375,
          "velocity": 0.8976377952755905
        },
        {
          "duration": 0.46875,
          "durationTicks": 144,
          "midi": 69,
          "name": "A4",
          "ticks": 26112,
          "time": 85,
          "velocity": 0.8976377952755905
        },
        {
          "duration": 0.46875,
          "durationTicks": 144,
          "midi": 71,
          "name": "B4",
          "ticks": 26256,
          "time": 85.46875,
          "velocity": 0.8976377952755905
        },
        {
          "duration": 2.1875,
          "durationTicks": 672,
          "midi": 67,
          "name": "G4",
          "ticks": 26400,
          "time": 85.9375,
          "velocity": 0.8976377952755905
        },
        {
          "duration": 0.3125,
          "durationTicks": 96,
          "midi": 67,
          "name": "G4",
          "ticks": 27264,
          "time": 88.75,
          "velocity": 0.8976377952755905
        },
        {
          "duration": 0.3125,
          "durationTicks": 96,
          "midi": 67,
          "name": "G4",
          "ticks": 27360,
          "time": 89.0625,
          "velocity": 0.8976377952755905
        },
        {
          "duration": 0.46875,
          "durationTicks": 144,
          "midi": 67,
          "name": "G4",
          "ticks": 27456,
          "time": 89.375,
          "velocity": 0.8976377952755905
        },
        {
          "duration": 0.15625,
          "durationTicks": 48,
          "midi": 69,
          "name": "A4",
          "ticks": 27600,
          "time": 89.84375,
          "velocity": 0.8976377952755905
        },
        {
          "duration": 0.3125,
          "durationTicks": 96,
          "midi": 71,
          "name": "B4",
          "ticks": 27648,
          "time": 90,
          "velocity": 0.8976377952755905
        },
        {
          "duration": 0.15625,
          "durationTicks": 48,
          "midi": 69,
          "name": "A4",
          "ticks": 27744,
          "time": 90.3125,
          "velocity": 0.8976377952755905
        },
        {
          "duration": 0.15625,
          "durationTicks": 48,
          "midi": 67,
          "name": "G4",
          "ticks": 27840,
          "time": 90.625,
          "velocity": 0.8976377952755905
        },
        {
          "duration": 0.3125,
          "durationTicks": 96,
          "midi": 64,
          "name": "E4",
          "ticks": 27888,
          "time": 90.78125,
          "velocity": 0.8976377952755905
        },
        {
          "duration": 0.46875,
          "durationTicks": 144,
          "midi": 69,
          "name": "A4",
          "ticks": 27984,
          "time": 91.09375,
          "velocity": 0.8976377952755905
        },
        {
          "duration": 0.3125,
          "durationTicks": 96,
          "midi": 67,
          "name": "G4",
          "ticks": 28128,
          "time": 91.5625,
          "velocity": 0.8976377952755905
        },
        {
          "duration": 0.15625,
          "durationTicks": 48,
          "midi": 71,
          "name": "B4",
          "ticks": 28224,
          "time": 91.875,
          "velocity": 0.8976377952755905
        },
        {
          "duration": 0.15625,
          "durationTicks": 48,
          "midi": 69,
          "name": "A4",
          "ticks": 28272,
          "time": 92.03125,
          "velocity": 0.8976377952755905
        },
        {
          "duration": 0.3125,
          "durationTicks": 96,
          "midi": 64,
          "name": "E4",
          "ticks": 28320,
          "time": 92.1875,
          "velocity": 0.8976377952755905
        },
        {
          "duration": 1.25,
          "durationTicks": 384,
          "midi": 67,
          "name": "G4",
          "ticks": 28416,
          "time": 92.5,
          "velocity": 0.8976377952755905
        },
        {
          "duration": 0.9375,
          "durationTicks": 288,
          "midi": 72,
          "name": "C5",
          "ticks": 28800,
          "time": 93.75,
          "velocity": 0.8976377952755905
        },
        {
          "duration": 1.25,
          "durationTicks": 384,
          "midi": 67,
          "name": "G4",
          "ticks": 29088,
          "time": 94.6875,
          "velocity": 0.8976377952755905
        },
        {
          "duration": 2.1875,
          "durationTicks": 672,
          "midi": 67,
          "name": "G4",
          "ticks": 29472,
          "time": 95.9375,
          "velocity": 0.8976377952755905
        },
        {
          "duration": 0.9375,
          "durationTicks": 288,
          "midi": 72,
          "name": "C5",
          "ticks": 30336,
          "time": 98.75,
          "velocity": 0.8976377952755905
        },
        {
          "duration": 1.25,
          "durationTicks": 384,
          "midi": 67,
          "name": "G4",
          "ticks": 30624,
          "time": 99.6875,
          "velocity": 0.8976377952755905
        },
        {
          "duration": 1.5625,
          "durationTicks": 480,
          "midi": 67,
          "name": "G4",
          "ticks": 31008,
          "time": 100.9375,
          "velocity": 0.8976377952755905
        },
        {
          "duration": 0.3125,
          "durationTicks": 96,
          "midi": 79,
          "name": "G5",
          "ticks": 31632,
          "time": 102.96875,
          "velocity": 0.8976377952755905
        },
        {
          "duration": 0.15625,
          "durationTicks": 48,
          "midi": 77,
          "name": "F5",
          "ticks": 31728,
          "time": 103.28125,
          "velocity": 0.8976377952755905
        },
        {
          "duration": 0.15625,
          "durationTicks": 48,
          "midi": 74,
          "name": "D5",
          "ticks": 31776,
          "time": 103.4375,
          "velocity": 0.8976377952755905
        },
        {
          "duration": 0.46875,
          "durationTicks": 144,
          "midi": 77,
          "name": "F5",
          "ticks": 31824,
          "time": 103.59375,
          "velocity": 0.8976377952755905
        },
        {
          "duration": 0.15625,
          "durationTicks": 48,
          "midi": 74,
          "name": "D5",
          "ticks": 31968,
          "time": 104.0625,
          "velocity": 0.8976377952755905
        },
        {
          "duration": 0.15625,
          "durationTicks": 48,
          "midi": 74,
          "name": "D5",
          "ticks": 32016,
          "time": 104.21875,
          "velocity": 0.8976377952755905
        },
        {
          "duration": 0.3125,
          "durationTicks": 96,
          "midi": 72,
          "name": "C5",
          "ticks": 32064,
          "time": 104.375,
          "velocity": 0.8976377952755905
        },
        {
          "duration": 0.15625,
          "durationTicks": 48,
          "midi": 70,
          "name": "A#4",
          "ticks": 32160,
          "time": 104.6875,
          "velocity": 0.8976377952755905
        },
        {
          "duration": 0.46875,
          "durationTicks": 144,
          "midi": 65,
          "name": "F4",
          "ticks": 32208,
          "time": 104.84375,
          "velocity": 0.8976377952755905
        },
        {
          "duration": 0.9375,
          "durationTicks": 288,
          "midi": 67,
          "name": "G4",
          "ticks": 32352,
          "time": 105.3125,
          "velocity": 0.8976377952755905
        },
        {
          "duration": 0.3125,
          "durationTicks": 96,
          "midi": 67,
          "name": "G4",
          "ticks": 35904,
          "time": 116.875,
          "velocity": 0.8976377952755905
        },
        {
          "duration": 0.3125,
          "durationTicks": 96,
          "midi": 67,
          "name": "G4",
          "ticks": 36000,
          "time": 117.1875,
          "velocity": 0.8976377952755905
        },
        {
          "duration": 0.15625,
          "durationTicks": 48,
          "midi": 67,
          "name": "G4",
          "ticks": 36096,
          "time": 117.5,
          "velocity": 0.8976377952755905
        },
        {
          "duration": 0.15625,
          "durationTicks": 48,
          "midi": 67,
          "name": "G4",
          "ticks": 36144,
          "time": 117.65625,
          "velocity": 0.8976377952755905
        },
        {
          "duration": 0.15625,
          "durationTicks": 48,
          "midi": 67,
          "name": "G4",
          "ticks": 36192,
          "time": 117.8125,
          "velocity": 0.8976377952755905
        },
        {
          "duration": 0.15625,
          "durationTicks": 48,
          "midi": 65,
          "name": "F4",
          "ticks": 36240,
          "time": 117.96875,
          "velocity": 0.8976377952755905
        },
        {
          "duration": 0.15625,
          "durationTicks": 48,
          "midi": 67,
          "name": "G4",
          "ticks": 36288,
          "time": 118.125,
          "velocity": 0.8976377952755905
        },
        {
          "duration": 0.46875,
          "durationTicks": 144,
          "midi": 74,
          "name": "D5",
          "ticks": 36336,
          "time": 118.28125,
          "velocity": 0.8976377952755905
        },
        {
          "duration": 1.875,
          "durationTicks": 576,
          "midi": 74,
          "name": "D5",
          "ticks": 36480,
          "time": 118.75,
          "velocity": 0.8976377952755905
        },
        {
          "duration": 0.15625,
          "durationTicks": 48,
          "midi": 71,
          "name": "B4",
          "ticks": 37248,
          "time": 121.25,
          "velocity": 0.8976377952755905
        },
        {
          "duration": 0.15625,
          "durationTicks": 48,
          "midi": 69,
          "name": "A4",
          "ticks": 37296,
          "time": 121.40625,
          "velocity": 0.8976377952755905
        },
        {
          "duration": 0.3125,
          "durationTicks": 96,
          "midi": 67,
          "name": "G4",
          "ticks": 37344,
          "time": 121.5625,
          "velocity": 0.8976377952755905
        },
        {
          "duration": 0.15625,
          "durationTicks": 48,
          "midi": 69,
          "name": "A4",
          "ticks": 37440,
          "time": 121.875,
          "velocity": 0.8976377952755905
        },
        {
          "duration": 0.15625,
          "durationTicks": 48,
          "midi": 69,
          "name": "A4",
          "ticks": 37488,
          "time": 122.03125,
          "velocity": 0.8976377952755905
        },
        {
          "duration": 0.625,
          "durationTicks": 192,
          "midi": 69,
          "name": "A4",
          "ticks": 37536,
          "time": 122.1875,
          "velocity": 0.8976377952755905
        },
        {
          "duration": 0.15625,
          "durationTicks": 48,
          "midi": 67,
          "name": "G4",
          "ticks": 37728,
          "time": 122.8125,
          "velocity": 0.8976377952755905
        },
        {
          "duration": 0.46875,
          "durationTicks": 144,
          "midi": 72,
          "name": "C5",
          "ticks": 37776,
          "time": 122.96875,
          "velocity": 0.8976377952755905
        },
        {
          "duration": 0.15625,
          "durationTicks": 48,
          "midi": 74,
          "name": "D5",
          "ticks": 37920,
          "time": 123.4375,
          "velocity": 0.8976377952755905
        },
        {
          "duration": 0.46875,
          "durationTicks": 144,
          "midi": 71,
          "name": "B4",
          "ticks": 37968,
          "time": 123.59375,
          "velocity": 0.8976377952755905
        },
        {
          "duration": 0.46875,
          "durationTicks": 144,
          "midi": 69,
          "name": "A4",
          "ticks": 38784,
          "time": 126.25,
          "velocity": 0.8976377952755905
        },
        {
          "duration": 0.46875,
          "durationTicks": 144,
          "midi": 71,
          "name": "B4",
          "ticks": 38928,
          "time": 126.71875,
          "velocity": 0.8976377952755905
        },
        {
          "duration": 2.1875,
          "durationTicks": 672,
          "midi": 67,
          "name": "G4",
          "ticks": 39072,
          "time": 127.1875,
          "velocity": 0.8976377952755905
        },
        {
          "duration": 0.3125,
          "durationTicks": 96,
          "midi": 67,
          "name": "G4",
          "ticks": 39936,
          "time": 130,
          "velocity": 0.8976377952755905
        },
        {
          "duration": 0.15625,
          "durationTicks": 48,
          "midi": 67,
          "name": "G4",
          "ticks": 40032,
          "time": 130.3125,
          "velocity": 0.8976377952755905
        },
        {
          "duration": 0.46875,
          "durationTicks": 144,
          "midi": 67,
          "name": "G4",
          "ticks": 40080,
          "time": 130.46875,
          "velocity": 0.8976377952755905
        },
        {
          "duration": 0.15625,
          "durationTicks": 48,
          "midi": 64,
          "name": "E4",
          "ticks": 40224,
          "time": 130.9375,
          "velocity": 0.8976377952755905
        },
        {
          "duration": 0.3125,
          "durationTicks": 96,
          "midi": 71,
          "name": "B4",
          "ticks": 40272,
          "time": 131.09375,
          "velocity": 0.8976377952755905
        },
        {
          "duration": 0.3125,
          "durationTicks": 96,
          "midi": 69,
          "name": "A4",
          "ticks": 40368,
          "time": 131.40625,
          "velocity": 0.8976377952755905
        },
        {
          "duration": 0.15625,
          "durationTicks": 48,
          "midi": 67,
          "name": "G4",
          "ticks": 40512,
          "time": 131.875,
          "velocity": 0.8976377952755905
        },
        {
          "duration": 0.3125,
          "durationTicks": 96,
          "midi": 64,
          "name": "E4",
          "ticks": 40560,
          "time": 132.03125,
          "velocity": 0.8976377952755905
        },
        {
          "duration": 0.46875,
          "durationTicks": 144,
          "midi": 69,
          "name": "A4",
          "ticks": 40656,
          "time": 132.34375,
          "velocity": 0.8976377952755905
        },
        {
          "duration": 0.3125,
          "durationTicks": 96,
          "midi": 67,
          "name": "G4",
          "ticks": 40800,
          "time": 132.8125,
          "velocity": 0.8976377952755905
        },
        {
          "duration": 0.15625,
          "durationTicks": 48,
          "midi": 71,
          "name": "B4",
          "ticks": 40896,
          "time": 133.125,
          "velocity": 0.8976377952755905
        },
        {
          "duration": 0.3125,
          "durationTicks": 96,
          "midi": 69,
          "name": "A4",
          "ticks": 40944,
          "time": 133.28125,
          "velocity": 0.8976377952755905
        },
        {
          "duration": 1.40625,
          "durationTicks": 432,
          "midi": 67,
          "name": "G4",
          "ticks": 41040,
          "time": 133.59375,
          "velocity": 0.8976377952755905
        },
        {
          "duration": 0.3125,
          "durationTicks": 96,
          "midi": 67,
          "name": "G4",
          "ticks": 41472,
          "time": 135,
          "velocity": 0.8976377952755905
        },
        {
          "duration": 0.3125,
          "durationTicks": 96,
          "midi": 67,
          "name": "G4",
          "ticks": 41568,
          "time": 135.3125,
          "velocity": 0.8976377952755905
        },
        {
          "duration": 0.3125,
          "durationTicks": 96,
          "midi": 67,
          "name": "G4",
          "ticks": 41664,
          "time": 135.625,
          "velocity": 0.8976377952755905
        },
        {
          "duration": 0.15625,
          "durationTicks": 48,
          "midi": 69,
          "name": "A4",
          "ticks": 41760,
          "time": 135.9375,
          "velocity": 0.8976377952755905
        },
        {
          "duration": 0.15625,
          "durationTicks": 48,
          "midi": 67,
          "name": "G4",
          "ticks": 41808,
          "time": 136.09375,
          "velocity": 0.8976377952755905
        },
        {
          "duration": 0.15625,
          "durationTicks": 48,
          "midi": 71,
          "name": "B4",
          "ticks": 41856,
          "time": 136.25,
          "velocity": 0.8976377952755905
        },
        {
          "duration": 0.3125,
          "durationTicks": 96,
          "midi": 69,
          "name": "A4",
          "ticks": 41904,
          "time": 136.40625,
          "velocity": 0.8976377952755905
        },
        {
          "duration": 0.15625,
          "durationTicks": 48,
          "midi": 67,
          "name": "G4",
          "ticks": 42048,
          "time": 136.875,
          "velocity": 0.8976377952755905
        },
        {
          "duration": 0.3125,
          "durationTicks": 96,
          "midi": 64,
          "name": "E4",
          "ticks": 42096,
          "time": 137.03125,
          "velocity": 0.8976377952755905
        },
        {
          "duration": 0.46875,
          "durationTicks": 144,
          "midi": 67,
          "name": "G4",
          "ticks": 42192,
          "time": 137.34375,
          "velocity": 0.8976377952755905
        },
        {
          "duration": 0.3125,
          "durationTicks": 96,
          "midi": 71,
          "name": "B4",
          "ticks": 42336,
          "time": 137.8125,
          "velocity": 0.8976377952755905
        },
        {
          "duration": 0.15625,
          "durationTicks": 48,
          "midi": 69,
          "name": "A4",
          "ticks": 42432,
          "time": 138.125,
          "velocity": 0.8976377952755905
        },
        {
          "duration": 0.3125,
          "durationTicks": 96,
          "midi": 67,
          "name": "G4",
          "ticks": 42480,
          "time": 138.28125,
          "velocity": 0.8976377952755905
        },
        {
          "duration": 0.78125,
          "durationTicks": 240,
          "midi": 67,
          "name": "G4",
          "ticks": 42576,
          "time": 138.59375,
          "velocity": 0.8976377952755905
        },
        {
          "duration": 0.15625,
          "durationTicks": 48,
          "midi": 64,
          "name": "E4",
          "ticks": 42816,
          "time": 139.375,
          "velocity": 0.8976377952755905
        },
        {
          "duration": 0.15625,
          "durationTicks": 48,
          "midi": 62,
          "name": "D4",
          "ticks": 42864,
          "time": 139.53125,
          "velocity": 0.8976377952755905
        },
        {
          "duration": 0.3125,
          "durationTicks": 96,
          "midi": 67,
          "name": "G4",
          "ticks": 43008,
          "time": 140,
          "velocity": 0.8976377952755905
        },
        {
          "duration": 0.15625,
          "durationTicks": 48,
          "midi": 67,
          "name": "G4",
          "ticks": 43104,
          "time": 140.3125,
          "velocity": 0.8976377952755905
        },
        {
          "duration": 0.46875,
          "durationTicks": 144,
          "midi": 67,
          "name": "G4",
          "ticks": 43152,
          "time": 140.46875,
          "velocity": 0.8976377952755905
        },
        {
          "duration": 0.15625,
          "durationTicks": 48,
          "midi": 64,
          "name": "E4",
          "ticks": 43296,
          "time": 140.9375,
          "velocity": 0.8976377952755905
        },
        {
          "duration": 0.3125,
          "durationTicks": 96,
          "midi": 71,
          "name": "B4",
          "ticks": 43344,
          "time": 141.09375,
          "velocity": 0.8976377952755905
        },
        {
          "duration": 0.3125,
          "durationTicks": 96,
          "midi": 69,
          "name": "A4",
          "ticks": 43440,
          "time": 141.40625,
          "velocity": 0.8976377952755905
        },
        {
          "duration": 0.15625,
          "durationTicks": 48,
          "midi": 67,
          "name": "G4",
          "ticks": 43584,
          "time": 141.875,
          "velocity": 0.8976377952755905
        },
        {
          "duration": 0.3125,
          "durationTicks": 96,
          "midi": 64,
          "name": "E4",
          "ticks": 43632,
          "time": 142.03125,
          "velocity": 0.8976377952755905
        },
        {
          "duration": 0.46875,
          "durationTicks": 144,
          "midi": 69,
          "name": "A4",
          "ticks": 43728,
          "time": 142.34375,
          "velocity": 0.8976377952755905
        },
        {
          "duration": 0.3125,
          "durationTicks": 96,
          "midi": 67,
          "name": "G4",
          "ticks": 43872,
          "time": 142.8125,
          "velocity": 0.8976377952755905
        },
        {
          "duration": 0.15625,
          "durationTicks": 48,
          "midi": 71,
          "name": "B4",
          "ticks": 43968,
          "time": 143.125,
          "velocity": 0.8976377952755905
        },
        {
          "duration": 0.3125,
          "durationTicks": 96,
          "midi": 69,
          "name": "A4",
          "ticks": 44016,
          "time": 143.28125,
          "velocity": 0.8976377952755905
        },
        {
          "duration": 1.40625,
          "durationTicks": 432,
          "midi": 67,
          "name": "G4",
          "ticks": 44112,
          "time": 143.59375,
          "velocity": 0.8976377952755905
        }
      ]
    },
    {
      "channel": 0,
      "controlChanges": {
        "7": [
          {
            "number": 7,
            "ticks": 0,
            "time": 0,
            "value": 0.7874015748031497
          }
        ]
      },
      "pitchBends": [],
      "instrument": {
        "family": "piano",
        "number": 0,
        "name": "acoustic grand piano"
      },
      "name": "Steel-Str. Guitar",
      "notes": [],
      "endOfTrackTicks": 44544
    },
    {
      "channel": 3,
      "controlChanges": {},
      "pitchBends": [],
      "instrument": {
        "family": "guitar",
        "number": 25,
        "name": "acoustic guitar (nylon)"
      },
      "name": "",
      "notes": [
        {
          "duration": 0.15625,
          "durationTicks": 48,
          "midi": 55,
          "name": "G3",
          "ticks": 4704,
          "time": 15.3125,
          "velocity": 0.7480314960629921
        },
        {
          "duration": 0.3125,
          "durationTicks": 96,
          "midi": 55,
          "name": "G3",
          "ticks": 4752,
          "time": 15.46875,
          "velocity": 0.7480314960629921
        },
        {
          "duration": 0.15625,
          "durationTicks": 48,
          "midi": 55,
          "name": "G3",
          "ticks": 5088,
          "time": 16.5625,
          "velocity": 0.7480314960629921
        },
        {
          "duration": 0.3125,
          "durationTicks": 96,
          "midi": 55,
          "name": "G3",
          "ticks": 5136,
          "time": 16.71875,
          "velocity": 0.7480314960629921
        },
        {
          "duration": 0.15625,
          "durationTicks": 48,
          "midi": 55,
          "name": "G3",
          "ticks": 5472,
          "time": 17.8125,
          "velocity": 0.7480314960629921
        },
        {
          "duration": 0.3125,
          "durationTicks": 96,
          "midi": 55,
          "name": "G3",
          "ticks": 5520,
          "time": 17.96875,
          "velocity": 0.7480314960629921
        },
        {
          "duration": 0.15625,
          "durationTicks": 48,
          "midi": 55,
          "name": "G3",
          "ticks": 5856,
          "time": 19.0625,
          "velocity": 0.7480314960629921
        },
        {
          "duration": 0.46875,
          "durationTicks": 144,
          "midi": 55,
          "name": "G3",
          "ticks": 5904,
          "time": 19.21875,
          "velocity": 0.7480314960629921
        },
        {
          "duration": 0.15625,
          "durationTicks": 48,
          "midi": 55,
          "name": "G3",
          "ticks": 6240,
          "time": 20.3125,
          "velocity": 0.7480314960629921
        },
        {
          "duration": 0.3125,
          "durationTicks": 96,
          "midi": 55,
          "name": "G3",
          "ticks": 6288,
          "time": 20.46875,
          "velocity": 0.7480314960629921
        },
        {
          "duration": 0.15625,
          "durationTicks": 48,
          "midi": 55,
          "name": "G3",
          "ticks": 6624,
          "time": 21.5625,
          "velocity": 0.7480314960629921
        },
        {
          "duration": 0.3125,
          "durationTicks": 96,
          "midi": 55,
          "name": "G3",
          "ticks": 6672,
          "time": 21.71875,
          "velocity": 0.7480314960629921
        },
        {
          "duration": 0.15625,
          "durationTicks": 48,
          "midi": 50,
          "name": "D3",
          "ticks": 6768,
          "time": 22.03125,
          "velocity": 0.7480314960629921
        },
        {
          "duration": 0.3125,
          "durationTicks": 96,
          "midi": 55,
          "name": "G3",
          "ticks": 6816,
          "time": 22.1875,
          "velocity": 0.7480314960629921
        },
        {
          "duration": 0.15625,
          "durationTicks": 48,
          "midi": 55,
          "name": "G3",
          "ticks": 7392,
          "time": 24.0625,
          "velocity": 0.7480314960629921
        },
        {
          "duration": 0.3125,
          "durationTicks": 96,
          "midi": 55,
          "name": "G3",
          "ticks": 7440,
          "time": 24.21875,
          "velocity": 0.7480314960629921
        },
        {
          "duration": 0.15625,
          "durationTicks": 48,
          "midi": 55,
          "name": "G3",
          "ticks": 7776,
          "time": 25.3125,
          "velocity": 0.7480314960629921
        },
        {
          "duration": 0.3125,
          "durationTicks": 96,
          "midi": 55,
          "name": "G3",
          "ticks": 7824,
          "time": 25.46875,
          "velocity": 0.7480314960629921
        },
        {
          "duration": 0.15625,
          "durationTicks": 48,
          "midi": 50,
          "name": "D3",
          "ticks": 8160,
          "time": 26.5625,
          "velocity": 0.7480314960629921
        },
        {
          "duration": 0.3125,
          "durationTicks": 96,
          "midi": 55,
          "name": "G3",
          "ticks": 8208,
          "time": 26.71875,
          "velocity": 0.7480314960629921
        },
        {
          "duration": 0.15625,
          "durationTicks": 48,
          "midi": 50,
          "name": "D3",
          "ticks": 8304,
          "time": 27.03125,
          "velocity": 0.7480314960629921
        },
        {
          "duration": 0.3125,
          "durationTicks": 96,
          "midi": 55,
          "name": "G3",
          "ticks": 8352,
          "time": 27.1875,
          "velocity": 0.7480314960629921
        },
        {
          "duration": 0.15625,
          "durationTicks": 48,
          "midi": 55,
          "name": "G3",
          "ticks": 11808,
          "time": 38.4375,
          "velocity": 0.7480314960629921
        },
        {
          "duration": 0.3125,
          "durationTicks": 96,
          "midi": 55,
          "name": "G3",
          "ticks": 11856,
          "time": 38.59375,
          "velocity": 0.7480314960629921
        },
        {
          "duration": 0.15625,
          "durationTicks": 48,
          "midi": 55,
          "name": "G3",
          "ticks": 12192,
          "time": 39.6875,
          "velocity": 0.7480314960629921
        },
        {
          "duration": 0.3125,
          "durationTicks": 96,
          "midi": 55,
          "name": "G3",
          "ticks": 12240,
          "time": 39.84375,
          "velocity": 0.7480314960629921
        },
        {
          "duration": 0.15625,
          "durationTicks": 48,
          "midi": 55,
          "name": "G3",
          "ticks": 12576,
          "time": 40.9375,
          "velocity": 0.7480314960629921
        },
        {
          "duration": 0.3125,
          "durationTicks": 96,
          "midi": 55,
          "name": "G3",
          "ticks": 12624,
          "time": 41.09375,
          "velocity": 0.7480314960629921
        },
        {
          "duration": 0.15625,
          "durationTicks": 48,
          "midi": 55,
          "name": "G3",
          "ticks": 12960,
          "time": 42.1875,
          "velocity": 0.7480314960629921
        },
        {
          "duration": 0.46875,
          "durationTicks": 144,
          "midi": 55,
          "name": "G3",
          "ticks": 13008,
          "time": 42.34375,
          "velocity": 0.7480314960629921
        },
        {
          "duration": 0.15625,
          "durationTicks": 48,
          "midi": 55,
          "name": "G3",
          "ticks": 13728,
          "time": 44.6875,
          "velocity": 0.7480314960629921
        },
        {
          "duration": 0.3125,
          "durationTicks": 96,
          "midi": 55,
          "name": "G3",
          "ticks": 13776,
          "time": 44.84375,
          "velocity": 0.7480314960629921
        },
        {
          "duration": 0.15625,
          "durationTicks": 48,
          "midi": 50,
          "name": "D3",
          "ticks": 13872,
          "time": 45.15625,
          "velocity": 0.7480314960629921
        },
        {
          "duration": 0.3125,
          "durationTicks": 96,
          "midi": 55,
          "name": "G3",
          "ticks": 13920,
          "time": 45.3125,
          "velocity": 0.7480314960629921
        },
        {
          "duration": 0.15625,
          "durationTicks": 48,
          "midi": 55,
          "name": "G3",
          "ticks": 14880,
          "time": 48.4375,
          "velocity": 0.7480314960629921
        },
        {
          "duration": 0.3125,
          "durationTicks": 96,
          "midi": 55,
          "name": "G3",
          "ticks": 14928,
          "time": 48.59375,
          "velocity": 0.7480314960629921
        },
        {
          "duration": 0.15625,
          "durationTicks": 48,
          "midi": 55,
          "name": "G3",
          "ticks": 15264,
          "time": 49.6875,
          "velocity": 0.7480314960629921
        },
        {
          "duration": 0.3125,
          "durationTicks": 96,
          "midi": 55,
          "name": "G3",
          "ticks": 15312,
          "time": 49.84375,
          "velocity": 0.7480314960629921
        },
        {
          "duration": 0.15625,
          "durationTicks": 48,
          "midi": 55,
          "name": "G3",
          "ticks": 16416,
          "time": 53.4375,
          "velocity": 0.7480314960629921
        },
        {
          "duration": 0.3125,
          "durationTicks": 96,
          "midi": 55,
          "name": "G3",
          "ticks": 16464,
          "time": 53.59375,
          "velocity": 0.7480314960629921
        },
        {
          "duration": 0.15625,
          "durationTicks": 48,
          "midi": 55,
          "name": "G3",
          "ticks": 16800,
          "time": 54.6875,
          "velocity": 0.7480314960629921
        },
        {
          "duration": 0.3125,
          "durationTicks": 96,
          "midi": 55,
          "name": "G3",
          "ticks": 16848,
          "time": 54.84375,
          "velocity": 0.7480314960629921
        },
        {
          "duration": 0.15625,
          "durationTicks": 48,
          "midi": 60,
          "name": "C4",
          "ticks": 17184,
          "time": 55.9375,
          "velocity": 0.7480314960629921
        },
        {
          "duration": 0.3125,
          "durationTicks": 96,
          "midi": 60,
          "name": "C4",
          "ticks": 17232,
          "time": 56.09375,
          "velocity": 0.7480314960629921
        },
        {
          "duration": 0.3125,
          "durationTicks": 96,
          "midi": 60,
          "name": "C4",
          "ticks": 17376,
          "time": 56.5625,
          "velocity": 0.7480314960629921
        },
        {
          "duration": 0.3125,
          "durationTicks": 96,
          "midi": 55,
          "name": "G3",
          "ticks": 17856,
          "time": 58.125,
          "velocity": 0.7480314960629921
        },
        {
          "duration": 0.3125,
          "durationTicks": 96,
          "midi": 55,
          "name": "G3",
          "ticks": 17952,
          "time": 58.4375,
          "velocity": 0.7480314960629921
        },
        {
          "duration": 0.15625,
          "durationTicks": 48,
          "midi": 55,
          "name": "G3",
          "ticks": 18144,
          "time": 59.0625,
          "velocity": 0.7480314960629921
        },
        {
          "duration": 0.3125,
          "durationTicks": 96,
          "midi": 55,
          "name": "G3",
          "ticks": 18192,
          "time": 59.21875,
          "velocity": 0.7480314960629921
        },
        {
          "duration": 0.3125,
          "durationTicks": 96,
          "midi": 55,
          "name": "G3",
          "ticks": 18528,
          "time": 60.3125,
          "velocity": 0.7480314960629921
        },
        {
          "duration": 0.3125,
          "durationTicks": 96,
          "midi": 55,
          "name": "G3",
          "ticks": 18624,
          "time": 60.625,
          "velocity": 0.7480314960629921
        },
        {
          "duration": 0.15625,
          "durationTicks": 48,
          "midi": 55,
          "name": "G3",
          "ticks": 19680,
          "time": 64.0625,
          "velocity": 0.7480314960629921
        },
        {
          "duration": 0.3125,
          "durationTicks": 96,
          "midi": 55,
          "name": "G3",
          "ticks": 19728,
          "time": 64.21875,
          "velocity": 0.7480314960629921
        },
        {
          "duration": 0.15625,
          "durationTicks": 48,
          "midi": 55,
          "name": "G3",
          "ticks": 20064,
          "time": 65.3125,
          "velocity": 0.7480314960629921
        },
        {
          "duration": 0.3125,
          "durationTicks": 96,
          "midi": 55,
          "name": "G3",
          "ticks": 20112,
          "time": 65.46875,
          "velocity": 0.7480314960629921
        },
        {
          "duration": 0.15625,
          "durationTicks": 48,
          "midi": 55,
          "name": "G3",
          "ticks": 20832,
          "time": 67.8125,
          "velocity": 0.7480314960629921
        },
        {
          "duration": 0.3125,
          "durationTicks": 96,
          "midi": 55,
          "name": "G3",
          "ticks": 20880,
          "time": 67.96875,
          "velocity": 0.7480314960629921
        },
        {
          "duration": 0.15625,
          "durationTicks": 48,
          "midi": 55,
          "name": "G3",
          "ticks": 21216,
          "time": 69.0625,
          "velocity": 0.7480314960629921
        },
        {
          "duration": 0.3125,
          "durationTicks": 96,
          "midi": 55,
          "name": "G3",
          "ticks": 21264,
          "time": 69.21875,
          "velocity": 0.7480314960629921
        },
        {
          "duration": 0.15625,
          "durationTicks": 48,
          "midi": 55,
          "name": "G3",
          "ticks": 21600,
          "time": 70.3125,
          "velocity": 0.7480314960629921
        },
        {
          "duration": 0.3125,
          "durationTicks": 96,
          "midi": 55,
          "name": "G3",
          "ticks": 21648,
          "time": 70.46875,
          "velocity": 0.7480314960629921
        },
        {
          "duration": 0.15625,
          "durationTicks": 48,
          "midi": 55,
          "name": "G3",
          "ticks": 21984,
          "time": 71.5625,
          "velocity": 0.7480314960629921
        },
        {
          "duration": 0.3125,
          "durationTicks": 96,
          "midi": 55,
          "name": "G3",
          "ticks": 22032,
          "time": 71.71875,
          "velocity": 0.7480314960629921
        },
        {
          "duration": 0.15625,
          "durationTicks": 48,
          "midi": 55,
          "name": "G3",
          "ticks": 22368,
          "time": 72.8125,
          "velocity": 0.7480314960629921
        },
        {
          "duration": 0.3125,
          "durationTicks": 96,
          "midi": 55,
          "name": "G3",
          "ticks": 22416,
          "time": 72.96875,
          "velocity": 0.7480314960629921
        },
        {
          "duration": 0.15625,
          "durationTicks": 48,
          "midi": 55,
          "name": "G3",
          "ticks": 22752,
          "time": 74.0625,
          "velocity": 0.7480314960629921
        },
        {
          "duration": 0.3125,
          "durationTicks": 96,
          "midi": 55,
          "name": "G3",
          "ticks": 22800,
          "time": 74.21875,
          "velocity": 0.7480314960629921
        },
        {
          "duration": 0.3125,
          "durationTicks": 96,
          "midi": 55,
          "name": "G3",
          "ticks": 22944,
          "time": 74.6875,
          "velocity": 0.7480314960629921
        },
        {
          "duration": 0.15625,
          "durationTicks": 48,
          "midi": 55,
          "name": "G3",
          "ticks": 23040,
          "time": 75,
          "velocity": 0.7480314960629921
        },
        {
          "duration": 0.15625,
          "durationTicks": 48,
          "midi": 50,
          "name": "D3",
          "ticks": 23088,
          "time": 75.15625,
          "velocity": 0.7480314960629921
        },
        {
          "duration": 0.3125,
          "durationTicks": 96,
          "midi": 55,
          "name": "G3",
          "ticks": 23136,
          "time": 75.3125,
          "velocity": 0.7480314960629921
        },
        {
          "duration": 0.15625,
          "durationTicks": 48,
          "midi": 55,
          "name": "G3",
          "ticks": 26592,
          "time": 86.5625,
          "velocity": 0.7480314960629921
        },
        {
          "duration": 0.3125,
          "durationTicks": 96,
          "midi": 55,
          "name": "G3",
          "ticks": 26640,
          "time": 86.71875,
          "velocity": 0.7480314960629921
        },
        {
          "duration": 0.15625,
          "durationTicks": 48,
          "midi": 55,
          "name": "G3",
          "ticks": 26976,
          "time": 87.8125,
          "velocity": 0.7480314960629921
        },
        {
          "duration": 0.3125,
          "durationTicks": 96,
          "midi": 55,
          "name": "G3",
          "ticks": 27024,
          "time": 87.96875,
          "velocity": 0.7480314960629921
        },
        {
          "duration": 0.15625,
          "durationTicks": 48,
          "midi": 55,
          "name": "G3",
          "ticks": 27360,
          "time": 89.0625,
          "velocity": 0.7480314960629921
        },
        {
          "duration": 0.3125,
          "durationTicks": 96,
          "midi": 55,
          "name": "G3",
          "ticks": 27408,
          "time": 89.21875,
          "velocity": 0.7480314960629921
        },
        {
          "duration": 0.15625,
          "durationTicks": 48,
          "midi": 55,
          "name": "G3",
          "ticks": 27744,
          "time": 90.3125,
          "velocity": 0.7480314960629921
        },
        {
          "duration": 0.46875,
          "durationTicks": 144,
          "midi": 55,
          "name": "G3",
          "ticks": 27792,
          "time": 90.46875,
          "velocity": 0.7480314960629921
        },
        {
          "duration": 0.15625,
          "durationTicks": 48,
          "midi": 55,
          "name": "G3",
          "ticks": 28512,
          "time": 92.8125,
          "velocity": 0.7480314960629921
        },
        {
          "duration": 0.3125,
          "durationTicks": 96,
          "midi": 55,
          "name": "G3",
          "ticks": 28560,
          "time": 92.96875,
          "velocity": 0.7480314960629921
        },
        {
          "duration": 0.15625,
          "durationTicks": 48,
          "midi": 50,
          "name": "D3",
          "ticks": 28656,
          "time": 93.28125,
          "velocity": 0.7480314960629921
        },
        {
          "duration": 0.3125,
          "durationTicks": 96,
          "midi": 55,
          "name": "G3",
          "ticks": 28704,
          "time": 93.4375,
          "velocity": 0.7480314960629921
        },
        {
          "duration": 0.15625,
          "durationTicks": 48,
          "midi": 55,
          "name": "G3",
          "ticks": 29664,
          "time": 96.5625,
          "velocity": 0.7480314960629921
        },
        {
          "duration": 0.3125,
          "durationTicks": 96,
          "midi": 55,
          "name": "G3",
          "ticks": 29712,
          "time": 96.71875,
          "velocity": 0.7480314960629921
        },
        {
          "duration": 0.15625,
          "durationTicks": 48,
          "midi": 55,
          "name": "G3",
          "ticks": 30048,
          "time": 97.8125,
          "velocity": 0.7480314960629921
        },
        {
          "duration": 0.3125,
          "durationTicks": 96,
          "midi": 55,
          "name": "G3",
          "ticks": 30096,
          "time": 97.96875,
          "velocity": 0.7480314960629921
        },
        {
          "duration": 0.15625,
          "durationTicks": 48,
          "midi": 55,
          "name": "G3",
          "ticks": 31200,
          "time": 101.5625,
          "velocity": 0.7480314960629921
        },
        {
          "duration": 0.3125,
          "durationTicks": 96,
          "midi": 55,
          "name": "G3",
          "ticks": 31248,
          "time": 101.71875,
          "velocity": 0.7480314960629921
        },
        {
          "duration": 0.15625,
          "durationTicks": 48,
          "midi": 55,
          "name": "G3",
          "ticks": 31584,
          "time": 102.8125,
          "velocity": 0.7480314960629921
        },
        {
          "duration": 0.3125,
          "durationTicks": 96,
          "midi": 55,
          "name": "G3",
          "ticks": 31632,
          "time": 102.96875,
          "velocity": 0.7480314960629921
        },
        {
          "duration": 0.15625,
          "durationTicks": 48,
          "midi": 60,
          "name": "C4",
          "ticks": 31968,
          "time": 104.0625,
          "velocity": 0.7480314960629921
        },
        {
          "duration": 0.3125,
          "durationTicks": 96,
          "midi": 60,
          "name": "C4",
          "ticks": 32016,
          "time": 104.21875,
          "velocity": 0.7480314960629921
        },
        {
          "duration": 0.3125,
          "durationTicks": 96,
          "midi": 60,
          "name": "C4",
          "ticks": 32160,
          "time": 104.6875,
          "velocity": 0.7480314960629921
        },
        {
          "duration": 0.3125,
          "durationTicks": 96,
          "midi": 55,
          "name": "G3",
          "ticks": 32640,
          "time": 106.25,
          "velocity": 0.7480314960629921
        },
        {
          "duration": 0.3125,
          "durationTicks": 96,
          "midi": 55,
          "name": "G3",
          "ticks": 32736,
          "time": 106.5625,
          "velocity": 0.7480314960629921
        },
        {
          "duration": 0.15625,
          "durationTicks": 48,
          "midi": 55,
          "name": "G3",
          "ticks": 32928,
          "time": 107.1875,
          "velocity": 0.7480314960629921
        },
        {
          "duration": 0.3125,
          "durationTicks": 96,
          "midi": 55,
          "name": "G3",
          "ticks": 32976,
          "time": 107.34375,
          "velocity": 0.7480314960629921
        },
        {
          "duration": 0.3125,
          "durationTicks": 96,
          "midi": 55,
          "name": "G3",
          "ticks": 33120,
          "time": 107.8125,
          "velocity": 0.7480314960629921
        },
        {
          "duration": 0.3125,
          "durationTicks": 96,
          "midi": 55,
          "name": "G3",
          "ticks": 33312,
          "time": 108.4375,
          "velocity": 0.7480314960629921
        },
        {
          "duration": 0.15625,
          "durationTicks": 48,
          "midi": 55,
          "name": "G3",
          "ticks": 33408,
          "time": 108.75,
          "velocity": 0.7480314960629921
        },
        {
          "duration": 0.15625,
          "durationTicks": 48,
          "midi": 55,
          "name": "G3",
          "ticks": 33456,
          "time": 108.90625,
          "velocity": 0.7480314960629921
        },
        {
          "duration": 0.3125,
          "durationTicks": 96,
          "midi": 55,
          "name": "G3",
          "ticks": 33504,
          "time": 109.0625,
          "velocity": 0.7480314960629921
        },
        {
          "duration": 0.3125,
          "durationTicks": 96,
          "midi": 55,
          "name": "G3",
          "ticks": 33696,
          "time": 109.6875,
          "velocity": 0.7480314960629921
        },
        {
          "duration": 0.3125,
          "durationTicks": 96,
          "midi": 55,
          "name": "G3",
          "ticks": 33888,
          "time": 110.3125,
          "velocity": 0.7480314960629921
        },
        {
          "duration": 0.3125,
          "durationTicks": 96,
          "midi": 55,
          "name": "G3",
          "ticks": 34080,
          "time": 110.9375,
          "velocity": 0.7480314960629921
        },
        {
          "duration": 0.46875,
          "durationTicks": 144,
          "midi": 55,
          "name": "G3",
          "ticks": 34176,
          "time": 111.25,
          "velocity": 0.7480314960629921
        },
        {
          "duration": 0.15625,
          "durationTicks": 48,
          "midi": 55,
          "name": "G3",
          "ticks": 34320,
          "time": 111.71875,
          "velocity": 0.7480314960629921
        },
        {
          "duration": 0.15625,
          "durationTicks": 48,
          "midi": 55,
          "name": "G3",
          "ticks": 39264,
          "time": 127.8125,
          "velocity": 0.7480314960629921
        },
        {
          "duration": 0.3125,
          "durationTicks": 96,
          "midi": 55,
          "name": "G3",
          "ticks": 39312,
          "time": 127.96875,
          "velocity": 0.7480314960629921
        },
        {
          "duration": 0.15625,
          "durationTicks": 48,
          "midi": 55,
          "name": "G3",
          "ticks": 39648,
          "time": 129.0625,
          "velocity": 0.7480314960629921
        },
        {
          "duration": 0.3125,
          "durationTicks": 96,
          "midi": 55,
          "name": "G3",
          "ticks": 39696,
          "time": 129.21875,
          "velocity": 0.7480314960629921
        },
        {
          "duration": 0.15625,
          "durationTicks": 48,
          "midi": 55,
          "name": "G3",
          "ticks": 40032,
          "time": 130.3125,
          "velocity": 0.7480314960629921
        },
        {
          "duration": 0.3125,
          "durationTicks": 96,
          "midi": 55,
          "name": "G3",
          "ticks": 40080,
          "time": 130.46875,
          "velocity": 0.7480314960629921
        },
        {
          "duration": 0.15625,
          "durationTicks": 48,
          "midi": 55,
          "name": "G3",
          "ticks": 40416,
          "time": 131.5625,
          "velocity": 0.7480314960629921
        },
        {
          "duration": 0.3125,
          "durationTicks": 96,
          "midi": 55,
          "name": "G3",
          "ticks": 40464,
          "time": 131.71875,
          "velocity": 0.7480314960629921
        },
        {
          "duration": 0.15625,
          "durationTicks": 48,
          "midi": 55,
          "name": "G3",
          "ticks": 40800,
          "time": 132.8125,
          "velocity": 0.7480314960629921
        },
        {
          "duration": 0.3125,
          "durationTicks": 96,
          "midi": 55,
          "name": "G3",
          "ticks": 40848,
          "time": 132.96875,
          "velocity": 0.7480314960629921
        },
        {
          "duration": 0.15625,
          "durationTicks": 48,
          "midi": 55,
          "name": "G3",
          "ticks": 41184,
          "time": 134.0625,
          "velocity": 0.7480314960629921
        },
        {
          "duration": 0.3125,
          "durationTicks": 96,
          "midi": 55,
          "name": "G3",
          "ticks": 41232,
          "time": 134.21875,
          "velocity": 0.7480314960629921
        },
        {
          "duration": 0.15625,
          "durationTicks": 48,
          "midi": 55,
          "name": "G3",
          "ticks": 41328,
          "time": 134.53125,
          "velocity": 0.7480314960629921
        },
        {
          "duration": 0.3125,
          "durationTicks": 96,
          "midi": 55,
          "name": "G3",
          "ticks": 41376,
          "time": 134.6875,
          "velocity": 0.7480314960629921
        },
        {
          "duration": 0.15625,
          "durationTicks": 48,
          "midi": 55,
          "name": "G3",
          "ticks": 41952,
          "time": 136.5625,
          "velocity": 0.7480314960629921
        },
        {
          "duration": 0.3125,
          "durationTicks": 96,
          "midi": 55,
          "name": "G3",
          "ticks": 42000,
          "time": 136.71875,
          "velocity": 0.7480314960629921
        },
        {
          "duration": 0.15625,
          "durationTicks": 48,
          "midi": 55,
          "name": "G3",
          "ticks": 42336,
          "time": 137.8125,
          "velocity": 0.7480314960629921
        },
        {
          "duration": 0.3125,
          "durationTicks": 96,
          "midi": 55,
          "name": "G3",
          "ticks": 42384,
          "time": 137.96875,
          "velocity": 0.7480314960629921
        },
        {
          "duration": 0.15625,
          "durationTicks": 48,
          "midi": 50,
          "name": "D3",
          "ticks": 42720,
          "time": 139.0625,
          "velocity": 0.7480314960629921
        },
        {
          "duration": 0.3125,
          "durationTicks": 96,
          "midi": 55,
          "name": "G3",
          "ticks": 42768,
          "time": 139.21875,
          "velocity": 0.7480314960629921
        },
        {
          "duration": 0.15625,
          "durationTicks": 48,
          "midi": 50,
          "name": "D3",
          "ticks": 42864,
          "time": 139.53125,
          "velocity": 0.7480314960629921
        },
        {
          "duration": 0.15625,
          "durationTicks": 48,
          "midi": 55,
          "name": "G3",
          "ticks": 43488,
          "time": 141.5625,
          "velocity": 0.7480314960629921
        },
        {
          "duration": 0.3125,
          "durationTicks": 96,
          "midi": 55,
          "name": "G3",
          "ticks": 43536,
          "time": 141.71875,
          "velocity": 0.7480314960629921
        },
        {
          "duration": 0.15625,
          "durationTicks": 48,
          "midi": 55,
          "name": "G3",
          "ticks": 43872,
          "time": 142.8125,
          "velocity": 0.7480314960629921
        },
        {
          "duration": 0.3125,
          "durationTicks": 96,
          "midi": 55,
          "name": "G3",
          "ticks": 43920,
          "time": 142.96875,
          "velocity": 0.7480314960629921
        },
        {
          "duration": 0.9375,
          "durationTicks": 288,
          "midi": 59,
          "name": "B3",
          "ticks": 44256,
          "time": 144.0625,
          "velocity": 0.7480314960629921
        }
      ]
    },
    {
      "channel": 0,
      "controlChanges": {
        "7": [
          {
            "number": 7,
            "ticks": 0,
            "time": 0,
            "value": 0.7874015748031497
          }
        ]
      },
      "pitchBends": [],
      "instrument": {
        "family": "piano",
        "number": 0,
        "name": "acoustic grand piano"
      },
      "name": "Steel-Str. Guitar",
      "notes": [],
      "endOfTrackTicks": 44544
    },
    {
      "channel": 4,
      "controlChanges": {},
      "pitchBends": [],
      "instrument": {
        "family": "guitar",
        "number": 25,
        "name": "acoustic guitar (nylon)"
      },
      "name": "",
      "notes": [
        {
          "duration": 0.15625,
          "durationTicks": 48,
          "midi": 50,
          "name": "D3",
          "ticks": 6624,
          "time": 21.5625,
          "velocity": 0.7480314960629921
        },
        {
          "duration": 0.3125,
          "durationTicks": 96,
          "midi": 50,
          "name": "D3",
          "ticks": 6672,
          "time": 21.71875,
          "velocity": 0.7480314960629921
        },
        {
          "duration": 0.15625,
          "durationTicks": 48,
          "midi": 50,
          "name": "D3",
          "ticks": 13728,
          "time": 44.6875,
          "velocity": 0.7480314960629921
        },
        {
          "duration": 0.3125,
          "durationTicks": 96,
          "midi": 50,
          "name": "D3",
          "ticks": 13776,
          "time": 44.84375,
          "velocity": 0.7480314960629921
        },
        {
          "duration": 0.15625,
          "durationTicks": 48,
          "midi": 55,
          "name": "G3",
          "ticks": 17184,
          "time": 55.9375,
          "velocity": 0.7480314960629921
        },
        {
          "duration": 0.3125,
          "durationTicks": 96,
          "midi": 55,
          "name": "G3",
          "ticks": 17232,
          "time": 56.09375,
          "velocity": 0.7480314960629921
        },
        {
          "duration": 0.15625,
          "durationTicks": 48,
          "midi": 50,
          "name": "D3",
          "ticks": 22752,
          "time": 74.0625,
          "velocity": 0.7480314960629921
        },
        {
          "duration": 0.3125,
          "durationTicks": 96,
          "midi": 50,
          "name": "D3",
          "ticks": 22800,
          "time": 74.21875,
          "velocity": 0.7480314960629921
        },
        {
          "duration": 0.15625,
          "durationTicks": 48,
          "midi": 50,
          "name": "D3",
          "ticks": 22896,
          "time": 74.53125,
          "velocity": 0.7480314960629921
        },
        {
          "duration": 0.15625,
          "durationTicks": 48,
          "midi": 50,
          "name": "D3",
          "ticks": 28512,
          "time": 92.8125,
          "velocity": 0.7480314960629921
        },
        {
          "duration": 0.3125,
          "durationTicks": 96,
          "midi": 50,
          "name": "D3",
          "ticks": 28560,
          "time": 92.96875,
          "velocity": 0.7480314960629921
        },
        {
          "duration": 0.15625,
          "durationTicks": 48,
          "midi": 55,
          "name": "G3",
          "ticks": 31968,
          "time": 104.0625,
          "velocity": 0.7480314960629921
        },
        {
          "duration": 0.3125,
          "durationTicks": 96,
          "midi": 55,
          "name": "G3",
          "ticks": 32016,
          "time": 104.21875,
          "velocity": 0.7480314960629921
        },
        {
          "duration": 0.15625,
          "durationTicks": 48,
          "midi": 50,
          "name": "D3",
          "ticks": 41184,
          "time": 134.0625,
          "velocity": 0.7480314960629921
        },
        {
          "duration": 0.3125,
          "durationTicks": 96,
          "midi": 50,
          "name": "D3",
          "ticks": 41232,
          "time": 134.21875,
          "velocity": 0.7480314960629921
        },
        {
          "duration": 0.15625,
          "durationTicks": 48,
          "midi": 50,
          "name": "D3",
          "ticks": 41328,
          "time": 134.53125,
          "velocity": 0.7480314960629921
        },
        {
          "duration": 0.9375,
          "durationTicks": 288,
          "midi": 55,
          "name": "G3",
          "ticks": 44256,
          "time": 144.0625,
          "velocity": 0.7480314960629921
        }
      ]
    },
    {
      "channel": 0,
      "controlChanges": {
        "7": [
          {
            "number": 7,
            "ticks": 0,
            "time": 0,
            "value": 0.7874015748031497
          }
        ]
      },
      "pitchBends": [],
      "instrument": {
        "family": "piano",
        "number": 0,
        "name": "acoustic grand piano"
      },
      "name": "Steel-Str. Guitar",
      "notes": [],
      "endOfTrackTicks": 44544
    },
    {
      "channel": 5,
      "controlChanges": {},
      "pitchBends": [],
      "instrument": {
        "family": "guitar",
        "number": 25,
        "name": "acoustic guitar (nylon)"
      },
      "name": "",
      "notes": [
        {
          "duration": 0.9375,
          "durationTicks": 288,
          "midi": 50,
          "name": "D3",
          "ticks": 44256,
          "time": 144.0625,
          "velocity": 0.7480314960629921
        }
      ]
    }
  ]
}