{
  "header": {
    "keySignatures": [
      {
        "key": "C",
        "scale": "major",
        "ticks": 0
      }
    ],
    "meta": [],
    "name": "",
    "ppq": 480,
    "tempos": [
      {
        "bpm": 168.0004032009677,
        "ticks": 0
      }
    ],
    "timeSignatures": [
      {
        "ticks": 0,
        "timeSignature": [
          4,
          4
        ],
        "measures": 0
      }
    ]
  },
  "tracks": [
    {
      "channel": 0,
      "controlChanges": {},
      "pitchBends": [],
      "instrument": {
        "family": "piano",
        "number": 0,
        "name": "acoustic grand piano"
      },
      "name": "Lead Vox",
      "notes": [],
      "endOfTrackTicks": 176640
    },
    {
      "channel": 1,
      "controlChanges": {
        "1": [
          {
            "number": 1,
            "ticks": 990,
            "time": 0.7366053749999999,
            "value": 0
          }
        ],
        "7": [
          {
            "number": 7,
            "ticks": 1000,
            "time": 0.7440458333333333,
            "value": 0.905511811023622
          }
        ],
        "10": [
          {
            "number": 10,
            "ticks": 1010,
            "time": 0.7514862916666666,
            "value": 0.5039370078740157
          }
        ],
        "11": [
          {
            "number": 11,
            "ticks": 1020,
            "time": 0.7589267499999999,
            "value": 1
          }
        ],
        "64": [
          {
            "number": 64,
            "ticks": 1030,
            "time": 0.7663672083333333,
            "value": 0
          }
        ],
        "91": [
          {
            "number": 91,
            "ticks": 1040,
            "time": 0.7738076666666666,
            "value": 0.905511811023622
          }
        ],
        "93": [
          {
            "number": 93,
            "ticks": 1050,
            "time": 0.781248125,
            "value": 0.4015748031496063
          }
        ]
      },
      "pitchBends": [
        {
          "ticks": 1060,
          "time": 0.7886885833333332,
          "value": 0
        }
      ],
      "instrument": {
        "family": "organ",
        "number": 22,
        "name": "harmonica"
      },
      "name": "",
      "notes": [
        {
          "duration": 0.23809466666666657,
          "durationTicks": 320,
          "midi": 60,
          "name": "C4",
          "ticks": 2400,
          "time": 1.78571,
          "velocity": 0.6220472440944882
        },
        {
          "duration": 0.1190473333333335,
          "durationTicks": 160,
          "midi": 64,
          "name": "E4",
          "ticks": 2880,
          "time": 2.1428519999999995,
          "velocity": 0.6220472440944882
        },
        {
          "duration": 0.2976183333333333,
          "durationTicks": 400,
          "midi": 67,
          "name": "G4",
          "ticks": 3120,
          "time": 2.321423,
          "velocity": 0.6220472440944882
        },
        {
          "duration": 1.130949666666666,
          "durationTicks": 1520,
          "midi": 67,
          "name": "G4",
          "ticks": 3600,
          "time": 2.678565,
          "velocity": 0.6220472440944882
        },
        {
          "duration": 0.4166656666666668,
          "durationTicks": 560,
          "midi": 64,
          "name": "E4",
          "ticks": 5520,
          "time": 4.107132999999999,
          "velocity": 0.6220472440944882
        },
        {
          "duration": 1.3690443333333322,
          "durationTicks": 1840,
          "midi": 67,
          "name": "G4",
          "ticks": 7440,
          "time": 5.5357009999999995,
          "velocity": 0.6220472440944882
        },
        {
          "duration": 0.4166656666666677,
          "durationTicks": 560,
          "midi": 64,
          "name": "E4",
          "ticks": 9360,
          "time": 6.964268999999999,
          "velocity": 0.6220472440944882
        },
        {
          "duration": 0.238094666666667,
          "durationTicks": 320,
          "midi": 60,
          "name": "C4",
          "ticks": 10080,
          "time": 7.499981999999999,
          "velocity": 0.6220472440944882
        },
        {
          "duration": 0.1190473333333335,
          "durationTicks": 160,
          "midi": 64,
          "name": "E4",
          "ticks": 10560,
          "time": 7.857123999999999,
          "velocity": 0.6220472440944882
        },
        {
          "duration": 0.29761833333333243,
          "durationTicks": 400,
          "midi": 67,
          "name": "G4",
          "ticks": 10800,
          "time": 8.035694999999999,
          "velocity": 0.6220472440944882
        },
        {
          "duration": 1.369044333333333,
          "durationTicks": 1840,
          "midi": 67,
          "name": "G4",
          "ticks": 11280,
          "time": 8.392836999999998,
          "velocity": 0.6220472440944882
        },
        {
          "duration": 0.4166656666666668,
          "durationTicks": 560,
          "midi": 64,
          "name": "E4",
          "ticks": 13200,
          "time": 9.821404999999999,
          "velocity": 0.6220472440944882
        },
        {
          "duration": 0.11904733333333262,
          "durationTicks": 160,
          "midi": 67,
          "name": "G4",
          "ticks": 15120,
          "time": 11.249972999999999,
          "velocity": 0.6220472440944882
        },
        {
          "duration": 0.22321374999999932,
          "durationTicks": 300,
          "midi": 67,
          "name": "G4",
          "ticks": 15360,
          "time": 11.428543999999999,
          "velocity": 0.6220472440944882
        },
        {
          "duration": 0.11160687499999966,
          "durationTicks": 150,
          "midi": 67,
          "name": "G4",
          "ticks": 15840,
          "time": 11.785685999999998,
          "velocity": 0.6220472440944882
        },
        {
          "duration": 0.11160687499999966,
          "durationTicks": 150,
          "midi": 67,
          "name": "G4",
          "ticks": 16080,
          "time": 11.964256999999998,
          "velocity": 0.6220472440944882
        },
        {
          "duration": 0.11160687500000144,
          "durationTicks": 150,
          "midi": 65,
          "name": "F4",
          "ticks": 16320,
          "time": 12.142827999999998,
          "velocity": 0.6220472440944882
        },
        {
          "duration": 0.2976183333333342,
          "durationTicks": 400,
          "midi": 63,
          "name": "D#4",
          "ticks": 16560,
          "time": 12.321398999999998,
          "velocity": 0.6220472440944882
        },
        {
          "duration": 0.2976183333333342,
          "durationTicks": 400,
          "midi": 62,
          "name": "D4",
          "ticks": 17040,
          "time": 12.678541,
          "velocity": 0.6220472440944882
        },
        {
          "duration": 0.2976183333333342,
          "durationTicks": 400,
          "midi": 60,
          "name": "C4",
          "ticks": 17520,
          "time": 13.035682999999999,
          "velocity": 0.6220472440944882
        },
        {
          "duration": 0.41666566666666505,
          "durationTicks": 560,
          "midi": 60,
          "name": "C4",
          "ticks": 18000,
          "time": 13.392824999999998,
          "velocity": 0.6220472440944882
        },
        {
          "duration": 0.11904733333333439,
          "durationTicks": 160,
          "midi": 60,
          "name": "C4",
          "ticks": 18720,
          "time": 13.928537999999998,
          "velocity": 0.6220472440944882
        },
        {
          "duration": 0.11904733333333439,
          "durationTicks": 160,
          "midi": 58,
          "name": "A#3",
          "ticks": 18960,
          "time": 14.107108999999998,
          "velocity": 0.6220472440944882
        },
        {
          "duration": 0.23809466666666523,
          "durationTicks": 320,
          "midi": 60,
          "name": "C4",
          "ticks": 19200,
          "time": 14.28568,
          "velocity": 0.6220472440944882
        },
        {
          "duration": 0.23809466666666523,
          "durationTicks": 320,
          "midi": 55,
          "name": "G3",
          "ticks": 19680,
          "time": 14.642821999999999,
          "velocity": 0.6220472440944882
        },
        {
          "duration": 0.11904733333333439,
          "durationTicks": 160,
          "midi": 58,
          "name": "A#3",
          "ticks": 20160,
          "time": 14.999963999999999,
          "velocity": 0.6220472440944882
        },
        {
          "duration": 0.2976183333333342,
          "durationTicks": 400,
          "midi": 60,
          "name": "C4",
          "ticks": 20400,
          "time": 15.178534999999998,
          "velocity": 0.6220472440944882
        },
        {
          "duration": 0.6473198749999991,
          "durationTicks": 870,
          "midi": 60,
          "name": "C4",
          "ticks": 20880,
          "time": 15.535676999999998,
          "velocity": 0.6220472440944882
        },
        {
          "duration": 0.11904733333333439,
          "durationTicks": 160,
          "midi": 60,
          "name": "C4",
          "ticks": 22800,
          "time": 16.964245,
          "velocity": 0.6220472440944882
        },
        {
          "duration": 0.23809466666666879,
          "durationTicks": 320,
          "midi": 67,
          "name": "G4",
          "ticks": 23040,
          "time": 17.142815999999996,
          "velocity": 0.6220472440944882
        },
        {
          "duration": 0.23809466666666523,
          "durationTicks": 320,
          "midi": 67,
          "name": "G4",
          "ticks": 23520,
          "time": 17.499958,
          "velocity": 0.6220472440944882
        },
        {
          "duration": 0.11904733333333439,
          "durationTicks": 160,
          "midi": 65,
          "name": "F4",
          "ticks": 24000,
          "time": 17.8571,
          "velocity": 0.6220472440944882
        },
        {
          "duration": 0.297618333333336,
          "durationTicks": 400,
          "midi": 63,
          "name": "D#4",
          "ticks": 24240,
          "time": 18.035670999999997,
          "velocity": 0.6220472440944882
        },
        {
          "duration": 0.297618333333336,
          "durationTicks": 400,
          "midi": 62,
          "name": "D4",
          "ticks": 24720,
          "time": 18.392812999999997,
          "velocity": 0.6220472440944882
        },
        {
          "duration": 0.297618333333336,
          "durationTicks": 400,
          "midi": 60,
          "name": "C4",
          "ticks": 25200,
          "time": 18.749954999999996,
          "velocity": 0.6220472440944882
        },
        {
          "duration": 0.41666566666666327,
          "durationTicks": 560,
          "midi": 60,
          "name": "C4",
          "ticks": 25680,
          "time": 19.107097,
          "velocity": 0.6220472440944882
        },
        {
          "duration": 0.11904733333333439,
          "durationTicks": 160,
          "midi": 60,
          "name": "C4",
          "ticks": 26400,
          "time": 19.642809999999997,
          "velocity": 0.6220472440944882
        },
        {
          "duration": 0.11904733333333439,
          "durationTicks": 160,
          "midi": 58,
          "name": "A#3",
          "ticks": 26640,
          "time": 19.821381,
          "velocity": 0.6220472440944882
        },
        {
          "duration": 0.23809466666666523,
          "durationTicks": 320,
          "midi": 60,
          "name": "C4",
          "ticks": 26880,
          "time": 19.999951999999997,
          "velocity": 0.6220472440944882
        },
        {
          "duration": 0.23809466666666879,
          "durationTicks": 320,
          "midi": 55,
          "name": "G3",
          "ticks": 27360,
          "time": 20.357093999999996,
          "velocity": 0.6220472440944882
        },
        {
          "duration": 0.11904733333333439,
          "durationTicks": 160,
          "midi": 58,
          "name": "A#3",
          "ticks": 27840,
          "time": 20.714235999999996,
          "velocity": 0.6220472440944882
        },
        {
          "duration": 0.29761833333333243,
          "durationTicks": 400,
          "midi": 60,
          "name": "C4",
          "ticks": 28080,
          "time": 20.892806999999998,
          "velocity": 0.6220472440944882
        },
        {
          "duration": 0.8854145416666661,
          "durationTicks": 1190,
          "midi": 60,
          "name": "C4",
          "ticks": 28560,
          "time": 21.249948999999997,
          "velocity": 0.6220472440944882
        },
        {
          "duration": 0.11904733333333439,
          "durationTicks": 160,
          "midi": 60,
          "name": "C4",
          "ticks": 30480,
          "time": 22.678516999999996,
          "velocity": 0.6220472440944882
        },
        {
          "duration": 0.23809466666666879,
          "durationTicks": 320,
          "midi": 67,
          "name": "G4",
          "ticks": 30720,
          "time": 22.857087999999997,
          "velocity": 0.6220472440944882
        },
        {
          "duration": 0.23809466666666879,
          "durationTicks": 320,
          "midi": 67,
          "name": "G4",
          "ticks": 31200,
          "time": 23.214229999999997,
          "velocity": 0.6220472440944882
        },
        {
          "duration": 0.23809466666666879,
          "durationTicks": 320,
          "midi": 67,
          "name": "G4",
          "ticks": 31680,
          "time": 23.571371999999997,
          "velocity": 0.6220472440944882
        },
        {
          "duration": 0.23809466666666879,
          "durationTicks": 320,
          "midi": 67,
          "name": "G4",
          "ticks": 32160,
          "time": 23.928513999999996,
          "velocity": 0.6220472440944882
        },
        {
          "duration": 0.29761833333333243,
          "durationTicks": 400,
          "midi": 65,
          "name": "F4",
          "ticks": 32880,
          "time": 24.464226999999998,
          "velocity": 0.6220472440944882
        },
        {
          "duration": 0.11904733333333084,
          "durationTicks": 160,
          "midi": 63,
          "name": "D#4",
          "ticks": 33360,
          "time": 24.821368999999997,
          "velocity": 0.6220472440944882
        },
        {
          "duration": 0.11904733333333084,
          "durationTicks": 160,
          "midi": 65,
          "name": "F4",
          "ticks": 33600,
          "time": 24.99994,
          "velocity": 0.6220472440944882
        },
        {
          "duration": 0.29761833333333243,
          "durationTicks": 400,
          "midi": 63,
          "name": "D#4",
          "ticks": 33840,
          "time": 25.178510999999997,
          "velocity": 0.6220472440944882
        },
        {
          "duration": 0.11904733333333084,
          "durationTicks": 160,
          "midi": 55,
          "name": "G3",
          "ticks": 34320,
          "time": 25.535652999999996,
          "velocity": 0.6220472440944882
        },
        {
          "duration": 0.11904733333333084,
          "durationTicks": 160,
          "midi": 67,
          "name": "G4",
          "ticks": 34560,
          "time": 25.714223999999998,
          "velocity": 0.6220472440944882
        },
        {
          "duration": 0.11904733333333439,
          "durationTicks": 160,
          "midi": 67,
          "name": "G4",
          "ticks": 34800,
          "time": 25.892794999999996,
          "velocity": 0.6220472440944882
        },
        {
          "duration": 0.23809466666666879,
          "durationTicks": 320,
          "midi": 67,
          "name": "G4",
          "ticks": 35040,
          "time": 26.071365999999998,
          "velocity": 0.6220472440944882
        },
        {
          "duration": 0.11904733333333084,
          "durationTicks": 160,
          "midi": 65,
          "name": "F4",
          "ticks": 35520,
          "time": 26.428507999999997,
          "velocity": 0.6220472440944882
        },
        {
          "duration": 0.29761833333333243,
          "durationTicks": 400,
          "midi": 63,
          "name": "D#4",
          "ticks": 35760,
          "time": 26.607078999999995,
          "velocity": 0.6220472440944882
        },
        {
          "duration": 0.8854145416666661,
          "durationTicks": 1190,
          "midi": 60,
          "name": "C4",
          "ticks": 36240,
          "time": 26.964221,
          "velocity": 0.6220472440944882
        },
        {
          "duration": 0.11904733333333084,
          "durationTicks": 160,
          "midi": 67,
          "name": "G4",
          "ticks": 38160,
          "time": 28.392788999999997,
          "velocity": 0.6220472440944882
        },
        {
          "duration": 0.22321374999999932,
          "durationTicks": 300,
          "midi": 67,
          "name": "G4",
          "ticks": 38400,
          "time": 28.57136,
          "velocity": 0.6220472440944882
        },
        {
          "duration": 0.2306542083333305,
          "durationTicks": 310,
          "midi": 67,
          "name": "G4",
          "ticks": 38880,
          "time": 28.928501999999998,
          "velocity": 0.6220472440944882
        },
        {
          "duration": 0.11160687499999966,
          "durationTicks": 150,
          "midi": 65,
          "name": "F4",
          "ticks": 39360,
          "time": 29.285643999999998,
          "velocity": 0.6220472440944882
        },
        {
          "duration": 0.29761833333333243,
          "durationTicks": 400,
          "midi": 63,
          "name": "D#4",
          "ticks": 39600,
          "time": 29.464214999999996,
          "velocity": 0.6220472440944882
        },
        {
          "duration": 0.29761833333333243,
          "durationTicks": 400,
          "midi": 62,
          "name": "D4",
          "ticks": 40080,
          "time": 29.821356999999995,
          "velocity": 0.6220472440944882
        },
        {
          "duration": 0.29761833333333243,
          "durationTicks": 400,
          "midi": 60,
          "name": "C4",
          "ticks": 40560,
          "time": 30.178498999999995,
          "velocity": 0.6220472440944882
        },
        {
          "duration": 0.4166656666666668,
          "durationTicks": 560,
          "midi": 60,
          "name": "C4",
          "ticks": 41040,
          "time": 30.535641,
          "velocity": 0.6220472440944882
        },
        {
          "duration": 0.11904733333333084,
          "durationTicks": 160,
          "midi": 60,
          "name": "C4",
          "ticks": 41760,
          "time": 31.071353999999996,
          "velocity": 0.6220472440944882
        },
        {
          "duration": 0.11904733333333084,
          "durationTicks": 160,
          "midi": 58,
          "name": "A#3",
          "ticks": 42000,
          "time": 31.249924999999998,
          "velocity": 0.6220472440944882
        },
        {
          "duration": 0.23809466666666879,
          "durationTicks": 320,
          "midi": 60,
          "name": "C4",
          "ticks": 42240,
          "time": 31.428495999999996,
          "velocity": 0.6220472440944882
        },
        {
          "duration": 0.23809466666667234,
          "durationTicks": 320,
          "midi": 55,
          "name": "G3",
          "ticks": 42720,
          "time": 31.785637999999995,
          "velocity": 0.6220472440944882
        },
        {
          "duration": 0.11904733333333439,
          "durationTicks": 160,
          "midi": 58,
          "name": "A#3",
          "ticks": 43200,
          "time": 32.142779999999995,
          "velocity": 0.6220472440944882
        },
        {
          "duration": 0.29761833333333243,
          "durationTicks": 400,
          "midi": 60,
          "name": "C4",
          "ticks": 43440,
          "time": 32.32135099999999,
          "velocity": 0.6220472440944882
        },
        {
          "duration": 0.6473198750000009,
          "durationTicks": 870,
          "midi": 60,
          "name": "C4",
          "ticks": 43920,
          "time": 32.678492999999996,
          "velocity": 0.6220472440944882
        },
        {
          "duration": 0.11904733333333439,
          "durationTicks": 160,
          "midi": 60,
          "name": "C4",
          "ticks": 45840,
          "time": 34.107060999999995,
          "velocity": 0.6220472440944882
        },
        {
          "duration": 0.23809466666666879,
          "durationTicks": 320,
          "midi": 67,
          "name": "G4",
          "ticks": 46080,
          "time": 34.28563199999999,
          "velocity": 0.6220472440944882
        },
        {
          "duration": 0.23809466666666879,
          "durationTicks": 320,
          "midi": 67,
          "name": "G4",
          "ticks": 46560,
          "time": 34.642773999999996,
          "velocity": 0.6220472440944882
        },
        {
          "duration": 0.11904733333332729,
          "durationTicks": 160,
          "midi": 65,
          "name": "F4",
          "ticks": 47040,
          "time": 34.999916,
          "velocity": 0.6220472440944882
        },
        {
          "duration": 0.29761833333333243,
          "durationTicks": 400,
          "midi": 63,
          "name": "D#4",
          "ticks": 47280,
          "time": 35.178487,
          "velocity": 0.6220472440944882
        },
        {
          "duration": 0.29761833333333243,
          "durationTicks": 400,
          "midi": 62,
          "name": "D4",
          "ticks": 47760,
          "time": 35.53562899999999,
          "velocity": 0.6220472440944882
        },
        {
          "duration": 0.29761833333333243,
          "durationTicks": 400,
          "midi": 60,
          "name": "C4",
          "ticks": 48240,
          "time": 35.892770999999996,
          "velocity": 0.6220472440944882
        },
        {
          "duration": 0.2976183333333253,
          "durationTicks": 400,
          "midi": 60,
          "name": "C4",
          "ticks": 48720,
          "time": 36.249913,
          "velocity": 0.6220472440944882
        },
        {
          "duration": 0.11904733333333439,
          "durationTicks": 160,
          "midi": 60,
          "name": "C4",
          "ticks": 49200,
          "time": 36.607054999999995,
          "velocity": 0.6220472440944882
        },
        {
          "duration": 0.11904733333333439,
          "durationTicks": 160,
          "midi": 60,
          "name": "C4",
          "ticks": 49440,
          "time": 36.78562599999999,
          "velocity": 0.6220472440944882
        },
        {
          "duration": 0.11904733333332729,
          "durationTicks": 160,
          "midi": 58,
          "name": "A#3",
          "ticks": 49680,
          "time": 36.964197,
          "velocity": 0.6220472440944882
        },
        {
          "duration": 0.23809466666666879,
          "durationTicks": 320,
          "midi": 60,
          "name": "C4",
          "ticks": 49920,
          "time": 37.142768,
          "velocity": 0.6220472440944882
        },
        {
          "duration": 0.23809466666666879,
          "durationTicks": 320,
          "midi": 55,
          "name": "G3",
          "ticks": 50400,
          "time": 37.49990999999999,
          "velocity": 0.6220472440944882
        },
        {
          "duration": 0.11904733333333439,
          "durationTicks": 160,
          "midi": 58,
          "name": "A#3",
          "ticks": 50880,
          "time": 37.857051999999996,
          "velocity": 0.6220472440944882
        },
        {
          "duration": 0.29761833333333243,
          "durationTicks": 400,
          "midi": 60,
          "name": "C4",
          "ticks": 51120,
          "time": 38.035622999999994,
          "velocity": 0.6220472440944882
        },
        {
          "duration": 0.8854145416666697,
          "durationTicks": 1190,
          "midi": 60,
          "name": "C4",
          "ticks": 51600,
          "time": 38.392765,
          "velocity": 0.6220472440944882
        },
        {
          "duration": 0.11904733333333439,
          "durationTicks": 160,
          "midi": 60,
          "name": "C4",
          "ticks": 53520,
          "time": 39.821332999999996,
          "velocity": 0.6220472440944882
        },
        {
          "duration": 0.23809466666666879,
          "durationTicks": 320,
          "midi": 67,
          "name": "G4",
          "ticks": 53760,
          "time": 39.999903999999994,
          "velocity": 0.6220472440944882
        },
        {
          "duration": 0.23809466666666879,
          "durationTicks": 320,
          "midi": 67,
          "name": "G4",
          "ticks": 54240,
          "time": 40.357046,
          "velocity": 0.6220472440944882
        },
        {
          "duration": 0.23809466666666879,
          "durationTicks": 320,
          "midi": 67,
          "name": "G4",
          "ticks": 54720,
          "time": 40.71418799999999,
          "velocity": 0.6220472440944882
        },
        {
          "duration": 0.23809466666666879,
          "durationTicks": 320,
          "midi": 67,
          "name": "G4",
          "ticks": 55200,
          "time": 41.071329999999996,
          "velocity": 0.6220472440944882
        },
        {
          "duration": 0.29761833333333243,
          "durationTicks": 400,
          "midi": 65,
          "name": "F4",
          "ticks": 55920,
          "time": 41.607043,
          "velocity": 0.6220472440944882
        },
        {
          "duration": 0.11904733333333439,
          "durationTicks": 160,
          "midi": 63,
          "name": "D#4",
          "ticks": 56400,
          "time": 41.96418499999999,
          "velocity": 0.6220472440944882
        },
        {
          "duration": 0.11904733333332729,
          "durationTicks": 160,
          "midi": 65,
          "name": "F4",
          "ticks": 56640,
          "time": 42.142756,
          "velocity": 0.6220472440944882
        },
        {
          "duration": 0.29761833333333243,
          "durationTicks": 400,
          "midi": 63,
          "name": "D#4",
          "ticks": 56880,
          "time": 42.321327,
          "velocity": 0.6220472440944882
        },
        {
          "duration": 0.11904733333333439,
          "durationTicks": 160,
          "midi": 55,
          "name": "G3",
          "ticks": 57360,
          "time": 42.67846899999999,
          "velocity": 0.6220472440944882
        },
        {
          "duration": 0.11904733333332729,
          "durationTicks": 160,
          "midi": 67,
          "name": "G4",
          "ticks": 57600,
          "time": 42.85704,
          "velocity": 0.6220472440944882
        },
        {
          "duration": 0.11904733333333439,
          "durationTicks": 160,
          "midi": 67,
          "name": "G4",
          "ticks": 57840,
          "time": 43.035610999999996,
          "velocity": 0.6220472440944882
        },
        {
          "duration": 0.23809466666666879,
          "durationTicks": 320,
          "midi": 67,
          "name": "G4",
          "ticks": 58080,
          "time": 43.214181999999994,
          "velocity": 0.6220472440944882
        },
        {
          "duration": 0.11904733333332729,
          "durationTicks": 160,
          "midi": 65,
          "name": "F4",
          "ticks": 58560,
          "time": 43.571324,
          "velocity": 0.6220472440944882
        },
        {
          "duration": 0.29761833333333243,
          "durationTicks": 400,
          "midi": 63,
          "name": "D#4",
          "ticks": 58800,
          "time": 43.749894999999995,
          "velocity": 0.6220472440944882
        },
        {
          "duration": 0.4166656666666668,
          "durationTicks": 560,
          "midi": 60,
          "name": "C4",
          "ticks": 59280,
          "time": 44.107037,
          "velocity": 0.6220472440944882
        },
        {
          "duration": 0.23809466666666879,
          "durationTicks": 320,
          "midi": 60,
          "name": "C4",
          "ticks": 60000,
          "time": 44.64274999999999,
          "velocity": 0.6220472440944882
        },
        {
          "duration": 0.11904733333333439,
          "durationTicks": 160,
          "midi": 64,
          "name": "E4",
          "ticks": 60480,
          "time": 44.999891999999996,
          "velocity": 0.6220472440944882
        },
        {
          "duration": 0.29761833333333243,
          "durationTicks": 400,
          "midi": 67,
          "name": "G4",
          "ticks": 60720,
          "time": 45.178462999999994,
          "velocity": 0.6220472440944882
        },
        {
          "duration": 1.1235092083333313,
          "durationTicks": 1510,
          "midi": 67,
          "name": "G4",
          "ticks": 61200,
          "time": 45.535605,
          "velocity": 0.6220472440944882
        },
        {
          "duration": 0.23809466666666168,
          "durationTicks": 320,
          "midi": 64,
          "name": "E4",
          "ticks": 63360,
          "time": 47.14274399999999,
          "velocity": 0.6220472440944882
        },
        {
          "duration": 0.29761833333333954,
          "durationTicks": 400,
          "midi": 63,
          "name": "D#4",
          "ticks": 65040,
          "time": 48.392740999999994,
          "velocity": 0.6220472440944882
        },
        {
          "duration": 0.11904733333333439,
          "durationTicks": 160,
          "midi": 63,
          "name": "D#4",
          "ticks": 65520,
          "time": 48.749883,
          "velocity": 0.6220472440944882
        },
        {
          "duration": 0.11904733333333439,
          "durationTicks": 160,
          "midi": 62,
          "name": "D4",
          "ticks": 65760,
          "time": 48.928453999999995,
          "velocity": 0.6220472440944882
        },
        {
          "duration": 0.1190473333333415,
          "durationTicks": 160,
          "midi": 60,
          "name": "C4",
          "ticks": 66000,
          "time": 49.10702499999999,
          "velocity": 0.6220472440944882
        },
        {
          "duration": 0.1190473333333415,
          "durationTicks": 160,
          "midi": 62,
          "name": "D4",
          "ticks": 66240,
          "time": 49.28559599999999,
          "velocity": 0.6220472440944882
        },
        {
          "duration": 0.29761833333333243,
          "durationTicks": 400,
          "midi": 60,
          "name": "C4",
          "ticks": 66480,
          "time": 49.464166999999996,
          "velocity": 0.6220472440944882
        },
        {
          "duration": 0.4166656666666668,
          "durationTicks": 560,
          "midi": 60,
          "name": "C4",
          "ticks": 66960,
          "time": 49.82130899999999,
          "velocity": 0.6220472440944882
        },
        {
          "duration": 0.22321374999999932,
          "durationTicks": 300,
          "midi": 60,
          "name": "C4",
          "ticks": 67680,
          "time": 50.35702199999999,
          "velocity": 0.6220472440944882
        },
        {
          "duration": 0.11160687499999966,
          "durationTicks": 150,
          "midi": 64,
          "name": "E4",
          "ticks": 68160,
          "time": 50.714164,
          "velocity": 0.6220472440944882
        },
        {
          "duration": 0.29761833333333954,
          "durationTicks": 400,
          "midi": 67,
          "name": "G4",
          "ticks": 68400,
          "time": 50.892734999999995,
          "velocity": 0.6220472440944882
        },
        {
          "duration": 1.1235092083333384,
          "durationTicks": 1510,
          "midi": 67,
          "name": "G4",
          "ticks": 68880,
          "time": 51.24987699999999,
          "velocity": 0.6220472440944882
        },
        {
          "duration": 0.23809466666666168,
          "durationTicks": 320,
          "midi": 64,
          "name": "E4",
          "ticks": 71040,
          "time": 52.857015999999994,
          "velocity": 0.6220472440944882
        },
        {
          "duration": 0.11904733333333439,
          "durationTicks": 160,
          "midi": 62,
          "name": "D4",
          "ticks": 72960,
          "time": 54.28558399999999,
          "velocity": 0.6220472440944882
        },
        {
          "duration": 0.29761833333333954,
          "durationTicks": 400,
          "midi": 62,
          "name": "D4",
          "ticks": 73200,
          "time": 54.46415499999999,
          "velocity": 0.6220472440944882
        },
        {
          "duration": 0.6473198750000009,
          "durationTicks": 870,
          "midi": 65,
          "name": "F4",
          "ticks": 73680,
          "time": 54.821296999999994,
          "velocity": 0.6220472440944882
        },
        {
          "duration": 0.9449382083333404,
          "durationTicks": 1270,
          "midi": 67,
          "name": "G4",
          "ticks": 74880,
          "time": 55.71415199999999,
          "velocity": 0.6220472440944882
        },
        {
          "duration": 0.11904733333333439,
          "durationTicks": 160,
          "midi": 67,
          "name": "G4",
          "ticks": 76800,
          "time": 57.14272,
          "velocity": 0.6220472440944882
        },
        {
          "duration": 0.11904733333333439,
          "durationTicks": 160,
          "midi": 67,
          "name": "G4",
          "ticks": 77040,
          "time": 57.321290999999995,
          "velocity": 0.6220472440944882
        },
        {
          "duration": 0.23809466666666168,
          "durationTicks": 320,
          "midi": 67,
          "name": "G4",
          "ticks": 77280,
          "time": 57.49986199999999,
          "velocity": 0.6220472440944882
        },
        {
          "duration": 0.11904733333333439,
          "durationTicks": 160,
          "midi": 65,
          "name": "F4",
          "ticks": 77760,
          "time": 57.857003999999996,
          "velocity": 0.6220472440944882
        },
        {
          "duration": 0.29761833333333243,
          "durationTicks": 400,
          "midi": 63,
          "name": "D#4",
          "ticks": 78000,
          "time": 58.035574999999994,
          "velocity": 0.6220472440944882
        },
        {
          "duration": 0.29761833333333954,
          "durationTicks": 400,
          "midi": 62,
          "name": "D4",
          "ticks": 78480,
          "time": 58.39271699999999,
          "velocity": 0.6220472440944882
        },
        {
          "duration": 0.29761833333333954,
          "durationTicks": 400,
          "midi": 60,
          "name": "C4",
          "ticks": 78960,
          "time": 58.749858999999994,
          "velocity": 0.6220472440944882
        },
        {
          "duration": 0.5357129999999941,
          "durationTicks": 720,
          "midi": 60,
          "name": "C4",
          "ticks": 79440,
          "time": 59.107001,
          "velocity": 0.6220472440944882
        },
        {
          "duration": 0.11904733333333439,
          "durationTicks": 160,
          "midi": 58,
          "name": "A#3",
          "ticks": 80400,
          "time": 59.821284999999996,
          "velocity": 0.6220472440944882
        },
        {
          "duration": 0.23809466666666168,
          "durationTicks": 320,
          "midi": 60,
          "name": "C4",
          "ticks": 80640,
          "time": 59.999855999999994,
          "velocity": 0.6220472440944882
        },
        {
          "duration": 0.23809466666666879,
          "durationTicks": 320,
          "midi": 55,
          "name": "G3",
          "ticks": 81120,
          "time": 60.35699799999999,
          "velocity": 0.6220472440944882
        },
        {
          "duration": 0.11904733333333439,
          "durationTicks": 160,
          "midi": 58,
          "name": "A#3",
          "ticks": 81600,
          "time": 60.71413999999999,
          "velocity": 0.6220472440944882
        },
        {
          "duration": 0.29761833333333954,
          "durationTicks": 400,
          "midi": 60,
          "name": "C4",
          "ticks": 81840,
          "time": 60.89271099999999,
          "velocity": 0.6220472440944882
        },
        {
          "duration": 0.6473198750000009,
          "durationTicks": 870,
          "midi": 60,
          "name": "C4",
          "ticks": 82320,
          "time": 61.249852999999995,
          "velocity": 0.6220472440944882
        },
        {
          "duration": 0.1190473333333415,
          "durationTicks": 160,
          "midi": 67,
          "name": "G4",
          "ticks": 84480,
          "time": 62.85699199999999,
          "velocity": 0.6220472440944882
        },
        {
          "duration": 0.11904733333333439,
          "durationTicks": 160,
          "midi": 67,
          "name": "G4",
          "ticks": 84720,
          "time": 63.035562999999996,
          "velocity": 0.6220472440944882
        },
        {
          "duration": 0.11904733333333439,
          "durationTicks": 160,
          "midi": 67,
          "name": "G4",
          "ticks": 84960,
          "time": 63.214133999999994,
          "velocity": 0.6220472440944882
        },
        {
          "duration": 0.11904733333333439,
          "durationTicks": 160,
          "midi": 67,
          "name": "G4",
          "ticks": 85200,
          "time": 63.39270499999999,
          "velocity": 0.6220472440944882
        },
        {
          "duration": 0.1190473333333415,
          "durationTicks": 160,
          "midi": 65,
          "name": "F4",
          "ticks": 85440,
          "time": 63.57127599999999,
          "velocity": 0.6220472440944882
        },
        {
          "duration": 0.29761833333333954,
          "durationTicks": 400,
          "midi": 63,
          "name": "D#4",
          "ticks": 85680,
          "time": 63.749846999999995,
          "velocity": 0.6220472440944882
        },
        {
          "duration": 0.29761833333333243,
          "durationTicks": 400,
          "midi": 62,
          "name": "D4",
          "ticks": 86160,
          "time": 64.106989,
          "velocity": 0.6220472440944882
        },
        {
          "duration": 0.29761833333333243,
          "durationTicks": 400,
          "midi": 60,
          "name": "C4",
          "ticks": 86640,
          "time": 64.464131,
          "velocity": 0.6220472440944882
        },
        {
          "duration": 0.5357130000000012,
          "durationTicks": 720,
          "midi": 60,
          "name": "C4",
          "ticks": 87120,
          "time": 64.82127299999999,
          "velocity": 0.6220472440944882
        },
        {
          "duration": 0.11904733333332729,
          "durationTicks": 160,
          "midi": 58,
          "name": "A#3",
          "ticks": 88080,
          "time": 65.535557,
          "velocity": 0.6220472440944882
        },
        {
          "duration": 0.23809466666666879,
          "durationTicks": 320,
          "midi": 60,
          "name": "C4",
          "ticks": 88320,
          "time": 65.71412799999999,
          "velocity": 0.6220472440944882
        },
        {
          "duration": 0.23809466666665458,
          "durationTicks": 320,
          "midi": 55,
          "name": "G3",
          "ticks": 88800,
          "time": 66.07127,
          "velocity": 0.6220472440944882
        },
        {
          "duration": 0.1190473333333415,
          "durationTicks": 160,
          "midi": 58,
          "name": "A#3",
          "ticks": 89280,
          "time": 66.428412,
          "velocity": 0.6220472440944882
        },
        {
          "duration": 0.29761833333334664,
          "durationTicks": 400,
          "midi": 60,
          "name": "C4",
          "ticks": 89520,
          "time": 66.60698299999999,
          "velocity": 0.6220472440944882
        },
        {
          "duration": 1.1235092083333313,
          "durationTicks": 1510,
          "midi": 60,
          "name": "C4",
          "ticks": 90000,
          "time": 66.964125,
          "velocity": 0.6220472440944882
        },
        {
          "duration": 0.22321375000001353,
          "durationTicks": 300,
          "midi": 67,
          "name": "G4",
          "ticks": 92160,
          "time": 68.57126399999999,
          "velocity": 0.6220472440944882
        },
        {
          "duration": 0.22321374999999932,
          "durationTicks": 300,
          "midi": 67,
          "name": "G4",
          "ticks": 92640,
          "time": 68.928406,
          "velocity": 0.6220472440944882
        },
        {
          "duration": 0.22321374999999932,
          "durationTicks": 300,
          "midi": 67,
          "name": "G4",
          "ticks": 93120,
          "time": 69.28554799999999,
          "velocity": 0.6220472440944882
        },
        {
          "duration": 0.22321374999999932,
          "durationTicks": 300,
          "midi": 67,
          "name": "G4",
          "ticks": 93600,
          "time": 69.64268999999999,
          "velocity": 0.6220472440944882
        },
        {
          "duration": 0.29761833333334664,
          "durationTicks": 400,
          "midi": 65,
          "name": "F4",
          "ticks": 94320,
          "time": 70.17840299999999,
          "velocity": 0.6220472440944882
        },
        {
          "duration": 0.11904733333332729,
          "durationTicks": 160,
          "midi": 63,
          "name": "D#4",
          "ticks": 94800,
          "time": 70.535545,
          "velocity": 0.6220472440944882
        },
        {
          "duration": 0.1190473333333415,
          "durationTicks": 160,
          "midi": 65,
          "name": "F4",
          "ticks": 95040,
          "time": 70.71411599999999,
          "velocity": 0.6220472440944882
        },
        {
          "duration": 0.4166656666666597,
          "durationTicks": 560,
          "midi": 63,
          "name": "D#4",
          "ticks": 95280,
          "time": 70.892687,
          "velocity": 0.6220472440944882
        },
        {
          "duration": 0.11904733333332729,
          "durationTicks": 160,
          "midi": 67,
          "name": "G4",
          "ticks": 96000,
          "time": 71.4284,
          "velocity": 0.6220472440944882
        },
        {
          "duration": 0.1190473333333415,
          "durationTicks": 160,
          "midi": 67,
          "name": "G4",
          "ticks": 96240,
          "time": 71.60697099999999,
          "velocity": 0.6220472440944882
        },
        {
          "duration": 0.23809466666666879,
          "durationTicks": 320,
          "midi": 67,
          "name": "G4",
          "ticks": 96480,
          "time": 71.78554199999999,
          "velocity": 0.6220472440944882
        },
        {
          "duration": 0.1190473333333415,
          "durationTicks": 160,
          "midi": 65,
          "name": "F4",
          "ticks": 96960,
          "time": 72.14268399999999,
          "velocity": 0.6220472440944882
        },
        {
          "duration": 0.29761833333333243,
          "durationTicks": 400,
          "midi": 63,
          "name": "D#4",
          "ticks": 97200,
          "time": 72.321255,
          "velocity": 0.6220472440944882
        },
        {
          "duration": 1.8452336666666582,
          "durationTicks": 2480,
          "midi": 60,
          "name": "C4",
          "ticks": 97680,
          "time": 72.67839699999999,
          "velocity": 0.6220472440944882
        },
        {
          "duration": 0.238094666666683,
          "durationTicks": 320,
          "midi": 60,
          "name": "C4",
          "ticks": 123360,
          "time": 91.78549399999999,
          "velocity": 0.6220472440944882
        },
        {
          "duration": 0.11904733333331308,
          "durationTicks": 160,
          "midi": 64,
          "name": "E4",
          "ticks": 123840,
          "time": 92.142636,
          "velocity": 0.6220472440944882
        },
        {
          "duration": 0.29761833333333243,
          "durationTicks": 400,
          "midi": 67,
          "name": "G4",
          "ticks": 124080,
          "time": 92.32120699999999,
          "velocity": 0.6220472440944882
        },
        {
          "duration": 1.1235092083333313,
          "durationTicks": 1510,
          "midi": 67,
          "name": "G4",
          "ticks": 124560,
          "time": 92.67834899999998,
          "velocity": 0.6220472440944882
        },
        {
          "duration": 0.238094666666683,
          "durationTicks": 320,
          "midi": 64,
          "name": "E4",
          "ticks": 126720,
          "time": 94.28548799999999,
          "velocity": 0.6220472440944882
        },
        {
          "duration": 0.2976183333333182,
          "durationTicks": 400,
          "midi": 63,
          "name": "D#4",
          "ticks": 128400,
          "time": 95.535485,
          "velocity": 0.6220472440944882
        },
        {
          "duration": 0.11904733333332729,
          "durationTicks": 160,
          "midi": 63,
          "name": "D#4",
          "ticks": 128880,
          "time": 95.89262699999999,
          "velocity": 0.6220472440944882
        },
        {
          "duration": 0.11904733333332729,
          "durationTicks": 160,
          "midi": 62,
          "name": "D4",
          "ticks": 129120,
          "time": 96.071198,
          "velocity": 0.6220472440944882
        },
        {
          "duration": 0.11904733333332729,
          "durationTicks": 160,
          "midi": 60,
          "name": "C4",
          "ticks": 129360,
          "time": 96.24976899999999,
          "velocity": 0.6220472440944882
        },
        {
          "duration": 0.11904733333332729,
          "durationTicks": 160,
          "midi": 62,
          "name": "D4",
          "ticks": 129600,
          "time": 96.42833999999999,
          "velocity": 0.6220472440944882
        },
        {
          "duration": 0.29761833333333243,
          "durationTicks": 400,
          "midi": 60,
          "name": "C4",
          "ticks": 129840,
          "time": 96.60691099999998,
          "velocity": 0.6220472440944882
        },
        {
          "duration": 0.41666566666667393,
          "durationTicks": 560,
          "midi": 60,
          "name": "C4",
          "ticks": 130320,
          "time": 96.96405299999999,
          "velocity": 0.6220472440944882
        },
        {
          "duration": 0.22321374999999932,
          "durationTicks": 300,
          "midi": 60,
          "name": "C4",
          "ticks": 131040,
          "time": 97.499766,
          "velocity": 0.6220472440944882
        },
        {
          "duration": 0.11160687499999256,
          "durationTicks": 150,
          "midi": 64,
          "name": "E4",
          "ticks": 131520,
          "time": 97.85690799999999,
          "velocity": 0.6220472440944882
        },
        {
          "duration": 0.2976183333333182,
          "durationTicks": 400,
          "midi": 67,
          "name": "G4",
          "ticks": 131760,
          "time": 98.035479,
          "velocity": 0.6220472440944882
        },
        {
          "duration": 1.1235092083333171,
          "durationTicks": 1510,
          "midi": 67,
          "name": "G4",
          "ticks": 132240,
          "time": 98.39262099999999,
          "velocity": 0.6220472440944882
        },
        {
          "duration": 0.23809466666666879,
          "durationTicks": 320,
          "midi": 64,
          "name": "E4",
          "ticks": 134400,
          "time": 99.99976,
          "velocity": 0.6220472440944882
        },
        {
          "duration": 0.11904733333332729,
          "durationTicks": 160,
          "midi": 62,
          "name": "D4",
          "ticks": 136320,
          "time": 101.428328,
          "velocity": 0.6220472440944882
        },
        {
          "duration": 0.29761833333333243,
          "durationTicks": 400,
          "midi": 62,
          "name": "D4",
          "ticks": 136560,
          "time": 101.60689899999998,
          "velocity": 0.6220472440944882
        },
        {
          "duration": 0.6473198749999938,
          "durationTicks": 870,
          "midi": 65,
          "name": "F4",
          "ticks": 137040,
          "time": 101.964041,
          "velocity": 0.6220472440944882
        },
        {
          "duration": 0.9449382083333262,
          "durationTicks": 1270,
          "midi": 67,
          "name": "G4",
          "ticks": 138240,
          "time": 102.85689599999999,
          "velocity": 0.6220472440944882
        },
        {
          "duration": 0.11904733333332729,
          "durationTicks": 160,
          "midi": 67,
          "name": "G4",
          "ticks": 140160,
          "time": 104.28546399999999,
          "velocity": 0.6220472440944882
        },
        {
          "duration": 0.11904733333332729,
          "durationTicks": 160,
          "midi": 67,
          "name": "G4",
          "ticks": 140400,
          "time": 104.46403499999998,
          "velocity": 0.6220472440944882
        },
        {
          "duration": 0.23809466666666879,
          "durationTicks": 320,
          "midi": 67,
          "name": "G4",
          "ticks": 140640,
          "time": 104.64260599999999,
          "velocity": 0.6220472440944882
        },
        {
          "duration": 0.11904733333332729,
          "durationTicks": 160,
          "midi": 65,
          "name": "F4",
          "ticks": 141120,
          "time": 104.99974799999998,
          "velocity": 0.6220472440944882
        },
        {
          "duration": 0.29761833333333243,
          "durationTicks": 400,
          "midi": 63,
          "name": "D#4",
          "ticks": 141360,
          "time": 105.17831899999999,
          "velocity": 0.6220472440944882
        },
        {
          "duration": 0.29761833333333243,
          "durationTicks": 400,
          "midi": 62,
          "name": "D4",
          "ticks": 141840,
          "time": 105.53546099999998,
          "velocity": 0.6220472440944882
        },
        {
          "duration": 0.2976183333333182,
          "durationTicks": 400,
          "midi": 60,
          "name": "C4",
          "ticks": 142320,
          "time": 105.892603,
          "velocity": 0.6220472440944882
        },
        {
          "duration": 0.5357130000000012,
          "durationTicks": 720,
          "midi": 60,
          "name": "C4",
          "ticks": 142800,
          "time": 106.24974499999999,
          "velocity": 0.6220472440944882
        },
        {
          "duration": 0.11904733333332729,
          "durationTicks": 160,
          "midi": 58,
          "name": "A#3",
          "ticks": 143760,
          "time": 106.96402899999998,
          "velocity": 0.6220472440944882
        },
        {
          "duration": 0.23809466666666879,
          "durationTicks": 320,
          "midi": 60,
          "name": "C4",
          "ticks": 144000,
          "time": 107.14259999999999,
          "velocity": 0.6220472440944882
        },
        {
          "duration": 0.238094666666683,
          "durationTicks": 320,
          "midi": 55,
          "name": "G3",
          "ticks": 144480,
          "time": 107.49974199999998,
          "velocity": 0.6220472440944882
        },
        {
          "duration": 0.11904733333332729,
          "durationTicks": 160,
          "midi": 58,
          "name": "A#3",
          "ticks": 144960,
          "time": 107.856884,
          "velocity": 0.6220472440944882
        },
        {
          "duration": 0.29761833333333243,
          "durationTicks": 400,
          "midi": 60,
          "name": "C4",
          "ticks": 145200,
          "time": 108.03545499999998,
          "velocity": 0.6220472440944882
        },
        {
          "duration": 0.647319875000008,
          "durationTicks": 870,
          "midi": 60,
          "name": "C4",
          "ticks": 145680,
          "time": 108.39259699999998,
          "velocity": 0.6220472440944882
        },
        {
          "duration": 0.11904733333332729,
          "durationTicks": 160,
          "midi": 67,
          "name": "G4",
          "ticks": 147840,
          "time": 109.99973599999998,
          "velocity": 0.6220472440944882
        },
        {
          "duration": 0.11904733333332729,
          "durationTicks": 160,
          "midi": 67,
          "name": "G4",
          "ticks": 148080,
          "time": 110.17830699999999,
          "velocity": 0.6220472440944882
        },
        {
          "duration": 0.11904733333332729,
          "durationTicks": 160,
          "midi": 67,
          "name": "G4",
          "ticks": 148320,
          "time": 110.35687799999998,
          "velocity": 0.6220472440944882
        },
        {
          "duration": 0.11904733333332729,
          "durationTicks": 160,
          "midi": 67,
          "name": "G4",
          "ticks": 148560,
          "time": 110.53544899999999,
          "velocity": 0.6220472440944882
        },
        {
          "duration": 0.11904733333332729,
          "durationTicks": 160,
          "midi": 65,
          "name": "F4",
          "ticks": 148800,
          "time": 110.71401999999999,
          "velocity": 0.6220472440944882
        },
        {
          "duration": 0.29761833333333243,
          "durationTicks": 400,
          "midi": 63,
          "name": "D#4",
          "ticks": 149040,
          "time": 110.89259099999998,
          "velocity": 0.6220472440944882
        },
        {
          "duration": 0.2976183333333182,
          "durationTicks": 400,
          "midi": 62,
          "name": "D4",
          "ticks": 149520,
          "time": 111.24973299999999,
          "velocity": 0.6220472440944882
        },
        {
          "duration": 0.29761833333333243,
          "durationTicks": 400,
          "midi": 60,
          "name": "C4",
          "ticks": 150000,
          "time": 111.60687499999999,
          "velocity": 0.6220472440944882
        },
        {
          "duration": 0.5357130000000012,
          "durationTicks": 720,
          "midi": 60,
          "name": "C4",
          "ticks": 150480,
          "time": 111.96401699999998,
          "velocity": 0.6220472440944882
        },
        {
          "duration": 0.11904733333332729,
          "durationTicks": 160,
          "midi": 58,
          "name": "A#3",
          "ticks": 151440,
          "time": 112.67830099999999,
          "velocity": 0.6220472440944882
        },
        {
          "duration": 0.238094666666683,
          "durationTicks": 320,
          "midi": 60,
          "name": "C4",
          "ticks": 151680,
          "time": 112.85687199999998,
          "velocity": 0.6220472440944882
        },
        {
          "duration": 0.23809466666666879,
          "durationTicks": 320,
          "midi": 55,
          "name": "G3",
          "ticks": 152160,
          "time": 113.21401399999999,
          "velocity": 0.6220472440944882
        },
        {
          "duration": 0.11904733333332729,
          "durationTicks": 160,
          "midi": 58,
          "name": "A#3",
          "ticks": 152640,
          "time": 113.57115599999999,
          "velocity": 0.6220472440944882
        },
        {
          "duration": 0.2976183333333182,
          "durationTicks": 400,
          "midi": 60,
          "name": "C4",
          "ticks": 152880,
          "time": 113.749727,
          "velocity": 0.6220472440944882
        },
        {
          "duration": 1.1235092083333313,
          "durationTicks": 1510,
          "midi": 60,
          "name": "C4",
          "ticks": 153360,
          "time": 114.10686899999999,
          "velocity": 0.6220472440944882
        },
        {
          "duration": 0.22321374999999932,
          "durationTicks": 300,
          "midi": 67,
          "name": "G4",
          "ticks": 155520,
          "time": 115.71400799999999,
          "velocity": 0.6220472440944882
        },
        {
          "duration": 0.22321374999999932,
          "durationTicks": 300,
          "midi": 67,
          "name": "G4",
          "ticks": 156000,
          "time": 116.07114999999999,
          "velocity": 0.6220472440944882
        },
        {
          "duration": 0.22321374999999932,
          "durationTicks": 300,
          "midi": 67,
          "name": "G4",
          "ticks": 156480,
          "time": 116.42829199999998,
          "velocity": 0.6220472440944882
        },
        {
          "duration": 0.22321374999999932,
          "durationTicks": 300,
          "midi": 67,
          "name": "G4",
          "ticks": 156960,
          "time": 116.78543399999998,
          "velocity": 0.6220472440944882
        },
        {
          "duration": 0.29761833333333243,
          "durationTicks": 400,
          "midi": 65,
          "name": "F4",
          "ticks": 157680,
          "time": 117.32114699999998,
          "velocity": 0.6220472440944882
        },
        {
          "duration": 0.11904733333332729,
          "durationTicks": 160,
          "midi": 63,
          "name": "D#4",
          "ticks": 158160,
          "time": 117.67828899999999,
          "velocity": 0.6220472440944882
        },
        {
          "duration": 0.11904733333332729,
          "durationTicks": 160,
          "midi": 65,
          "name": "F4",
          "ticks": 158400,
          "time": 117.85685999999998,
          "velocity": 0.6220472440944882
        },
        {
          "duration": 0.41666566666667393,
          "durationTicks": 560,
          "midi": 63,
          "name": "D#4",
          "ticks": 158640,
          "time": 118.03543099999999,
          "velocity": 0.6220472440944882
        },
        {
          "duration": 0.11904733333332729,
          "durationTicks": 160,
          "midi": 67,
          "name": "G4",
          "ticks": 159360,
          "time": 118.57114399999999,
          "velocity": 0.6220472440944882
        },
        {
          "duration": 0.11904733333332729,
          "durationTicks": 160,
          "midi": 67,
          "name": "G4",
          "ticks": 159600,
          "time": 118.74971499999998,
          "velocity": 0.6220472440944882
        },
        {
          "duration": 0.23809466666666879,
          "durationTicks": 320,
          "midi": 67,
          "name": "G4",
          "ticks": 159840,
          "time": 118.92828599999999,
          "velocity": 0.6220472440944882
        },
        {
          "duration": 0.11904733333332729,
          "durationTicks": 160,
          "midi": 65,
          "name": "F4",
          "ticks": 160320,
          "time": 119.28542799999998,
          "velocity": 0.6220472440944882
        },
        {
          "duration": 0.29761833333333243,
          "durationTicks": 400,
          "midi": 63,
          "name": "D#4",
          "ticks": 160560,
          "time": 119.46399899999999,
          "velocity": 0.6220472440944882
        },
        {
          "duration": 0.5357130000000012,
          "durationTicks": 720,
          "midi": 60,
          "name": "C4",
          "ticks": 161040,
          "time": 119.82114099999998,
          "velocity": 0.6220472440944882
        },
        {
          "duration": 0.11904733333332729,
          "durationTicks": 160,
          "midi": 60,
          "name": "C4",
          "ticks": 162000,
          "time": 120.53542499999999,
          "velocity": 0.6220472440944882
        },
        {
          "duration": 0.11904733333332729,
          "durationTicks": 160,
          "midi": 64,
          "name": "E4",
          "ticks": 162240,
          "time": 120.71399599999998,
          "velocity": 0.6220472440944882
        },
        {
          "duration": 0.29761833333333243,
          "durationTicks": 400,
          "midi": 67,
          "name": "G4",
          "ticks": 162480,
          "time": 120.89256699999999,
          "velocity": 0.6220472440944882
        },
        {
          "duration": 1.3690443333333349,
          "durationTicks": 1840,
          "midi": 67,
          "name": "G4",
          "ticks": 162960,
          "time": 121.24970899999998,
          "velocity": 0.6220472440944882
        },
        {
          "duration": 0.8854145416666768,
          "durationTicks": 1190,
          "midi": 64,
          "name": "E4",
          "ticks": 164880,
          "time": 122.67827699999998,
          "velocity": 0.6220472440944882
        },
        {
          "duration": 1.3690443333333207,
          "durationTicks": 1840,
          "midi": 67,
          "name": "G4",
          "ticks": 166800,
          "time": 124.10684499999999,
          "velocity": 0.6220472440944882
        },
        {
          "duration": 0.41666566666667393,
          "durationTicks": 560,
          "midi": 64,
          "name": "E4",
          "ticks": 168720,
          "time": 125.53541299999999,
          "velocity": 0.6220472440944882
        },
        {
          "duration": 0.23809466666666879,
          "durationTicks": 320,
          "midi": 60,
          "name": "C4",
          "ticks": 169440,
          "time": 126.07112599999999,
          "velocity": 0.6220472440944882
        },
        {
          "duration": 0.11904733333332729,
          "durationTicks": 160,
          "midi": 64,
          "name": "E4",
          "ticks": 169920,
          "time": 126.42826799999999,
          "velocity": 0.6220472440944882
        },
        {
          "duration": 0.29761833333333243,
          "durationTicks": 400,
          "midi": 67,
          "name": "G4",
          "ticks": 170160,
          "time": 126.60683899999998,
          "velocity": 0.6220472440944882
        },
        {
          "duration": 1.3690443333333349,
          "durationTicks": 1840,
          "midi": 67,
          "name": "G4",
          "ticks": 170640,
          "time": 126.96398099999999,
          "velocity": 0.6220472440944882
        },
        {
          "duration": 1.3690443333333349,
          "durationTicks": 1840,
          "midi": 64,
          "name": "E4",
          "ticks": 172560,
          "time": 128.39254899999997,
          "velocity": 0.6220472440944882
        },
        {
          "duration": 1.1235092083333313,
          "durationTicks": 1510,
          "midi": 64,
          "name": "E4",
          "ticks": 174480,
          "time": 129.821117,
          "velocity": 0.6220472440944882
        }
      ]
    },
    {
      "channel": 0,
      "controlChanges": {},
      "pitchBends": [],
      "instrument": {
        "family": "piano",
        "number": 0,
        "name": "acoustic grand piano"
      },
      "name": "Organ",
      "notes": [],
      "endOfTrackTicks": 178560
    },
    {
      "channel": 2,
      "controlChanges": {
        "1": [
          {
            "number": 1,
            "ticks": 990,
            "time": 0.7366053749999999,
            "value": 0
          }
        ],
        "7": [
          {
            "number": 7,
            "ticks": 1000,
            "time": 0.7440458333333333,
            "value": 0.6535433070866141
          }
        ],
        "10": [
          {
            "number": 10,
            "ticks": 1010,
            "time": 0.7514862916666666,
            "value": 0.5039370078740157
          }
        ],
        "11": [
          {
            "number": 11,
            "ticks": 1020,
            "time": 0.7589267499999999,
            "value": 1
          }
        ],
        "64": [
          {
            "number": 64,
            "ticks": 1030,
            "time": 0.7663672083333333,
            "value": 0
          }
        ],
        "91": [
          {
            "number": 91,
            "ticks": 1040,
            "time": 0.7738076666666666,
            "value": 0.5039370078740157
          }
        ],
        "93": [
          {
            "number": 93,
            "ticks": 1050,
            "time": 0.781248125,
            "value": 0.23622047244094488
          }
        ]
      },
      "pitchBends": [
        {
          "ticks": 1060,
          "time": 0.7886885833333332,
          "value": 0
        }
      ],
      "instrument": {
        "family": "organ",
        "number": 16,
        "name": "drawbar organ"
      },
      "name": "",
      "notes": [
        {
          "duration": 0.35714200000000007,
          "durationTicks": 480,
          "midi": 52,
          "name": "E3",
          "ticks": 3840,
          "time": 2.8571359999999997,
          "velocity": 0.6220472440944882
        },
        {
          "duration": 0.35714200000000007,
          "durationTicks": 480,
          "midi": 59,
          "name": "B3",
          "ticks": 3840,
          "time": 2.8571359999999997,
          "velocity": 0.6220472440944882
        },
        {
          "duration": 0.35714200000000007,
          "durationTicks": 480,
          "midi": 64,
          "name": "E4",
          "ticks": 3840,
          "time": 2.8571359999999997,
          "velocity": 0.6220472440944882
        },
        {
          "duration": 0.35714200000000007,
          "durationTicks": 480,
          "midi": 67,
          "name": "G4",
          "ticks": 3840,
          "time": 2.8571359999999997,
          "velocity": 0.6220472440944882
        },
        {
          "duration": 0.35714200000000007,
          "durationTicks": 480,
          "midi": 71,
          "name": "B4",
          "ticks": 3840,
          "time": 2.8571359999999997,
          "velocity": 0.6220472440944882
        },
        {
          "duration": 0.35714200000000007,
          "durationTicks": 480,
          "midi": 76,
          "name": "E5",
          "ticks": 3840,
          "time": 2.8571359999999997,
          "velocity": 0.6220472440944882
        },
        {
          "duration": 0.6249984999999998,
          "durationTicks": 840,
          "midi": 64,
          "name": "E4",
          "ticks": 4560,
          "time": 3.3928489999999996,
          "velocity": 0.6220472440944882
        },
        {
          "duration": 0.6249984999999998,
          "durationTicks": 840,
          "midi": 67,
          "name": "G4",
          "ticks": 4560,
          "time": 3.3928489999999996,
          "velocity": 0.6220472440944882
        },
        {
          "duration": 0.6473198749999995,
          "durationTicks": 870,
          "midi": 71,
          "name": "B4",
          "ticks": 4560,
          "time": 3.3928489999999996,
          "velocity": 0.6220472440944882
        },
        {
          "duration": 0.3571420000000005,
          "durationTicks": 480,
          "midi": 57,
          "name": "A3",
          "ticks": 5760,
          "time": 4.285703999999999,
          "velocity": 0.6220472440944882
        },
        {
          "duration": 0.3571420000000005,
          "durationTicks": 480,
          "midi": 64,
          "name": "E4",
          "ticks": 5760,
          "time": 4.285703999999999,
          "velocity": 0.6220472440944882
        },
        {
          "duration": 0.3571420000000005,
          "durationTicks": 480,
          "midi": 69,
          "name": "A4",
          "ticks": 5760,
          "time": 4.285703999999999,
          "velocity": 0.6220472440944882
        },
        {
          "duration": 0.3571420000000005,
          "durationTicks": 480,
          "midi": 72,
          "name": "C5",
          "ticks": 5760,
          "time": 4.285703999999999,
          "velocity": 0.6220472440944882
        },
        {
          "duration": 0.3571420000000005,
          "durationTicks": 480,
          "midi": 76,
          "name": "E5",
          "ticks": 5760,
          "time": 4.285703999999999,
          "velocity": 0.6220472440944882
        },
        {
          "duration": 0.647319875,
          "durationTicks": 870,
          "midi": 64,
          "name": "E4",
          "ticks": 6480,
          "time": 4.821416999999999,
          "velocity": 0.6220472440944882
        },
        {
          "duration": 0.647319875,
          "durationTicks": 870,
          "midi": 69,
          "name": "A4",
          "ticks": 6480,
          "time": 4.821416999999999,
          "velocity": 0.6220472440944882
        },
        {
          "duration": 0.647319875,
          "durationTicks": 870,
          "midi": 72,
          "name": "C5",
          "ticks": 6480,
          "time": 4.821416999999999,
          "velocity": 0.6220472440944882
        },
        {
          "duration": 0.3571419999999996,
          "durationTicks": 480,
          "midi": 64,
          "name": "E4",
          "ticks": 7680,
          "time": 5.714271999999999,
          "velocity": 0.6220472440944882
        },
        {
          "duration": 0.3571419999999996,
          "durationTicks": 480,
          "midi": 67,
          "name": "G4",
          "ticks": 7680,
          "time": 5.714271999999999,
          "velocity": 0.6220472440944882
        },
        {
          "duration": 0.3571419999999996,
          "durationTicks": 480,
          "midi": 71,
          "name": "B4",
          "ticks": 7680,
          "time": 5.714271999999999,
          "velocity": 0.6220472440944882
        },
        {
          "duration": 0.6473198749999991,
          "durationTicks": 870,
          "midi": 64,
          "name": "E4",
          "ticks": 8400,
          "time": 6.249985,
          "velocity": 0.6220472440944882
        },
        {
          "duration": 0.6473198749999991,
          "durationTicks": 870,
          "midi": 67,
          "name": "G4",
          "ticks": 8400,
          "time": 6.249985,
          "velocity": 0.6220472440944882
        },
        {
          "duration": 0.6473198749999991,
          "durationTicks": 870,
          "midi": 71,
          "name": "B4",
          "ticks": 8400,
          "time": 6.249985,
          "velocity": 0.6220472440944882
        },
        {
          "duration": 0.34970154166666667,
          "durationTicks": 470,
          "midi": 64,
          "name": "E4",
          "ticks": 9600,
          "time": 7.14284,
          "velocity": 0.6220472440944882
        },
        {
          "duration": 0.34970154166666667,
          "durationTicks": 470,
          "midi": 69,
          "name": "A4",
          "ticks": 9600,
          "time": 7.14284,
          "velocity": 0.6220472440944882
        },
        {
          "duration": 0.34970154166666667,
          "durationTicks": 470,
          "midi": 72,
          "name": "C5",
          "ticks": 9600,
          "time": 7.14284,
          "velocity": 0.6220472440944882
        },
        {
          "duration": 0.6398794166666679,
          "durationTicks": 860,
          "midi": 64,
          "name": "E4",
          "ticks": 10320,
          "time": 7.678552999999999,
          "velocity": 0.6220472440944882
        },
        {
          "duration": 0.6398794166666679,
          "durationTicks": 860,
          "midi": 69,
          "name": "A4",
          "ticks": 10320,
          "time": 7.678552999999999,
          "velocity": 0.6220472440944882
        },
        {
          "duration": 0.6398794166666679,
          "durationTicks": 860,
          "midi": 72,
          "name": "C5",
          "ticks": 10320,
          "time": 7.678552999999999,
          "velocity": 0.6220472440944882
        },
        {
          "duration": 0.3422610833333337,
          "durationTicks": 460,
          "midi": 62,
          "name": "D4",
          "ticks": 11520,
          "time": 8.571407999999998,
          "velocity": 0.6220472440944882
        },
        {
          "duration": 0.3422610833333337,
          "durationTicks": 460,
          "midi": 69,
          "name": "A4",
          "ticks": 11520,
          "time": 8.571407999999998,
          "velocity": 0.6220472440944882
        },
        {
          "duration": 0.3422610833333337,
          "durationTicks": 460,
          "midi": 72,
          "name": "C5",
          "ticks": 11520,
          "time": 8.571407999999998,
          "velocity": 0.6220472440944882
        },
        {
          "duration": 0.3422610833333337,
          "durationTicks": 460,
          "midi": 77,
          "name": "F5",
          "ticks": 11520,
          "time": 8.571407999999998,
          "velocity": 0.6220472440944882
        },
        {
          "duration": 0.6324389583333332,
          "durationTicks": 850,
          "midi": 62,
          "name": "D4",
          "ticks": 12240,
          "time": 9.107121,
          "velocity": 0.6220472440944882
        },
        {
          "duration": 0.6324389583333332,
          "durationTicks": 850,
          "midi": 65,
          "name": "F4",
          "ticks": 12240,
          "time": 9.107121,
          "velocity": 0.6220472440944882
        },
        {
          "duration": 0.6324389583333332,
          "durationTicks": 850,
          "midi": 69,
          "name": "A4",
          "ticks": 12240,
          "time": 9.107121,
          "velocity": 0.6220472440944882
        },
        {
          "duration": 0.6324389583333332,
          "durationTicks": 850,
          "midi": 72,
          "name": "C5",
          "ticks": 12240,
          "time": 9.107121,
          "velocity": 0.6220472440944882
        },
        {
          "duration": 0.33482062500000076,
          "durationTicks": 450,
          "midi": 55,
          "name": "G3",
          "ticks": 13440,
          "time": 9.999975999999998,
          "velocity": 0.6220472440944882
        },
        {
          "duration": 0.33482062500000076,
          "durationTicks": 450,
          "midi": 59,
          "name": "B3",
          "ticks": 13440,
          "time": 9.999975999999998,
          "velocity": 0.6220472440944882
        },
        {
          "duration": 0.33482062500000076,
          "durationTicks": 450,
          "midi": 62,
          "name": "D4",
          "ticks": 13440,
          "time": 9.999975999999998,
          "velocity": 0.6220472440944882
        },
        {
          "duration": 0.33482062500000076,
          "durationTicks": 450,
          "midi": 67,
          "name": "G4",
          "ticks": 13440,
          "time": 9.999975999999998,
          "velocity": 0.6220472440944882
        },
        {
          "duration": 0.33482062500000076,
          "durationTicks": 450,
          "midi": 71,
          "name": "B4",
          "ticks": 13440,
          "time": 9.999975999999998,
          "velocity": 0.6220472440944882
        },
        {
          "duration": 0.33482062500000076,
          "durationTicks": 450,
          "midi": 79,
          "name": "G5",
          "ticks": 13440,
          "time": 9.999975999999998,
          "velocity": 0.6220472440944882
        },
        {
          "duration": 0.6249984999999985,
          "durationTicks": 840,
          "midi": 62,
          "name": "D4",
          "ticks": 14160,
          "time": 10.535689,
          "velocity": 0.6220472440944882
        },
        {
          "duration": 0.6249984999999985,
          "durationTicks": 840,
          "midi": 67,
          "name": "G4",
          "ticks": 14160,
          "time": 10.535689,
          "velocity": 0.6220472440944882
        },
        {
          "duration": 0.6249984999999985,
          "durationTicks": 840,
          "midi": 71,
          "name": "B4",
          "ticks": 14160,
          "time": 10.535689,
          "velocity": 0.6220472440944882
        },
        {
          "duration": 0.34970154166666134,
          "durationTicks": 470,
          "midi": 52,
          "name": "E3",
          "ticks": 61440,
          "time": 45.714175999999995,
          "velocity": 0.49606299212598426
        },
        {
          "duration": 0.34970154166666134,
          "durationTicks": 470,
          "midi": 59,
          "name": "B3",
          "ticks": 61440,
          "time": 45.714175999999995,
          "velocity": 0.49606299212598426
        },
        {
          "duration": 0.34970154166666134,
          "durationTicks": 470,
          "midi": 64,
          "name": "E4",
          "ticks": 61440,
          "time": 45.714175999999995,
          "velocity": 0.49606299212598426
        },
        {
          "duration": 0.34970154166666134,
          "durationTicks": 470,
          "midi": 67,
          "name": "G4",
          "ticks": 61440,
          "time": 45.714175999999995,
          "velocity": 0.49606299212598426
        },
        {
          "duration": 0.34970154166666134,
          "durationTicks": 470,
          "midi": 71,
          "name": "B4",
          "ticks": 61440,
          "time": 45.714175999999995,
          "velocity": 0.49606299212598426
        },
        {
          "duration": 0.34970154166666134,
          "durationTicks": 470,
          "midi": 76,
          "name": "E5",
          "ticks": 61440,
          "time": 45.714175999999995,
          "velocity": 0.49606299212598426
        },
        {
          "duration": 0.639879416666659,
          "durationTicks": 860,
          "midi": 52,
          "name": "E3",
          "ticks": 62160,
          "time": 46.249888999999996,
          "velocity": 0.49606299212598426
        },
        {
          "duration": 0.639879416666659,
          "durationTicks": 860,
          "midi": 59,
          "name": "B3",
          "ticks": 62160,
          "time": 46.249888999999996,
          "velocity": 0.49606299212598426
        },
        {
          "duration": 0.639879416666659,
          "durationTicks": 860,
          "midi": 64,
          "name": "E4",
          "ticks": 62160,
          "time": 46.249888999999996,
          "velocity": 0.49606299212598426
        },
        {
          "duration": 0.639879416666659,
          "durationTicks": 860,
          "midi": 67,
          "name": "G4",
          "ticks": 62160,
          "time": 46.249888999999996,
          "velocity": 0.49606299212598426
        },
        {
          "duration": 0.639879416666659,
          "durationTicks": 860,
          "midi": 71,
          "name": "B4",
          "ticks": 62160,
          "time": 46.249888999999996,
          "velocity": 0.49606299212598426
        },
        {
          "duration": 0.639879416666659,
          "durationTicks": 860,
          "midi": 76,
          "name": "E5",
          "ticks": 62160,
          "time": 46.249888999999996,
          "velocity": 0.49606299212598426
        },
        {
          "duration": 0.3422610833333408,
          "durationTicks": 460,
          "midi": 57,
          "name": "A3",
          "ticks": 63360,
          "time": 47.14274399999999,
          "velocity": 0.49606299212598426
        },
        {
          "duration": 0.3422610833333408,
          "durationTicks": 460,
          "midi": 64,
          "name": "E4",
          "ticks": 63360,
          "time": 47.14274399999999,
          "velocity": 0.49606299212598426
        },
        {
          "duration": 0.3422610833333408,
          "durationTicks": 460,
          "midi": 69,
          "name": "A4",
          "ticks": 63360,
          "time": 47.14274399999999,
          "velocity": 0.49606299212598426
        },
        {
          "duration": 0.3422610833333408,
          "durationTicks": 460,
          "midi": 72,
          "name": "C5",
          "ticks": 63360,
          "time": 47.14274399999999,
          "velocity": 0.49606299212598426
        },
        {
          "duration": 0.3422610833333408,
          "durationTicks": 460,
          "midi": 76,
          "name": "E5",
          "ticks": 63360,
          "time": 47.14274399999999,
          "velocity": 0.49606299212598426
        },
        {
          "duration": 0.6249984999999967,
          "durationTicks": 840,
          "midi": 57,
          "name": "A3",
          "ticks": 64080,
          "time": 47.678456999999995,
          "velocity": 0.49606299212598426
        },
        {
          "duration": 0.6324389583333385,
          "durationTicks": 850,
          "midi": 64,
          "name": "E4",
          "ticks": 64080,
          "time": 47.678456999999995,
          "velocity": 0.49606299212598426
        },
        {
          "duration": 0.6324389583333385,
          "durationTicks": 850,
          "midi": 69,
          "name": "A4",
          "ticks": 64080,
          "time": 47.678456999999995,
          "velocity": 0.49606299212598426
        },
        {
          "duration": 0.6324389583333385,
          "durationTicks": 850,
          "midi": 72,
          "name": "C5",
          "ticks": 64080,
          "time": 47.678456999999995,
          "velocity": 0.49606299212598426
        },
        {
          "duration": 0.6324389583333385,
          "durationTicks": 850,
          "midi": 76,
          "name": "E5",
          "ticks": 64080,
          "time": 47.678456999999995,
          "velocity": 0.49606299212598426
        },
        {
          "duration": 0.34970154166666134,
          "durationTicks": 470,
          "midi": 59,
          "name": "B3",
          "ticks": 69120,
          "time": 51.428447999999996,
          "velocity": 0.49606299212598426
        },
        {
          "duration": 0.34970154166666134,
          "durationTicks": 470,
          "midi": 64,
          "name": "E4",
          "ticks": 69120,
          "time": 51.428447999999996,
          "velocity": 0.49606299212598426
        },
        {
          "duration": 0.34970154166666134,
          "durationTicks": 470,
          "midi": 67,
          "name": "G4",
          "ticks": 69120,
          "time": 51.428447999999996,
          "velocity": 0.49606299212598426
        },
        {
          "duration": 0.34970154166666134,
          "durationTicks": 470,
          "midi": 71,
          "name": "B4",
          "ticks": 69120,
          "time": 51.428447999999996,
          "velocity": 0.49606299212598426
        },
        {
          "duration": 0.639879416666659,
          "durationTicks": 860,
          "midi": 59,
          "name": "B3",
          "ticks": 69840,
          "time": 51.964161,
          "velocity": 0.49606299212598426
        },
        {
          "duration": 0.639879416666659,
          "durationTicks": 860,
          "midi": 64,
          "name": "E4",
          "ticks": 69840,
          "time": 51.964161,
          "velocity": 0.49606299212598426
        },
        {
          "duration": 0.639879416666659,
          "durationTicks": 860,
          "midi": 67,
          "name": "G4",
          "ticks": 69840,
          "time": 51.964161,
          "velocity": 0.49606299212598426
        },
        {
          "duration": 0.639879416666659,
          "durationTicks": 860,
          "midi": 71,
          "name": "B4",
          "ticks": 69840,
          "time": 51.964161,
          "velocity": 0.49606299212598426
        },
        {
          "duration": 0.3422610833333337,
          "durationTicks": 460,
          "midi": 64,
          "name": "E4",
          "ticks": 71040,
          "time": 52.857015999999994,
          "velocity": 0.49606299212598426
        },
        {
          "duration": 0.3422610833333337,
          "durationTicks": 460,
          "midi": 69,
          "name": "A4",
          "ticks": 71040,
          "time": 52.857015999999994,
          "velocity": 0.49606299212598426
        },
        {
          "duration": 0.3422610833333337,
          "durationTicks": 460,
          "midi": 72,
          "name": "C5",
          "ticks": 71040,
          "time": 52.857015999999994,
          "velocity": 0.49606299212598426
        },
        {
          "duration": 0.6324389583333314,
          "durationTicks": 850,
          "midi": 64,
          "name": "E4",
          "ticks": 71760,
          "time": 53.392728999999996,
          "velocity": 0.49606299212598426
        },
        {
          "duration": 0.6324389583333314,
          "durationTicks": 850,
          "midi": 69,
          "name": "A4",
          "ticks": 71760,
          "time": 53.392728999999996,
          "velocity": 0.49606299212598426
        },
        {
          "duration": 0.6324389583333314,
          "durationTicks": 850,
          "midi": 72,
          "name": "C5",
          "ticks": 71760,
          "time": 53.392728999999996,
          "velocity": 0.49606299212598426
        },
        {
          "duration": 0.334820624999999,
          "durationTicks": 450,
          "midi": 62,
          "name": "D4",
          "ticks": 72960,
          "time": 54.28558399999999,
          "velocity": 0.49606299212598426
        },
        {
          "duration": 0.334820624999999,
          "durationTicks": 450,
          "midi": 65,
          "name": "F4",
          "ticks": 72960,
          "time": 54.28558399999999,
          "velocity": 0.49606299212598426
        },
        {
          "duration": 0.334820624999999,
          "durationTicks": 450,
          "midi": 69,
          "name": "A4",
          "ticks": 72960,
          "time": 54.28558399999999,
          "velocity": 0.49606299212598426
        },
        {
          "duration": 0.334820624999999,
          "durationTicks": 450,
          "midi": 72,
          "name": "C5",
          "ticks": 72960,
          "time": 54.28558399999999,
          "velocity": 0.49606299212598426
        },
        {
          "duration": 0.6249984999999967,
          "durationTicks": 840,
          "midi": 62,
          "name": "D4",
          "ticks": 73680,
          "time": 54.821296999999994,
          "velocity": 0.49606299212598426
        },
        {
          "duration": 0.6249984999999967,
          "durationTicks": 840,
          "midi": 65,
          "name": "F4",
          "ticks": 73680,
          "time": 54.821296999999994,
          "velocity": 0.49606299212598426
        },
        {
          "duration": 0.6249984999999967,
          "durationTicks": 840,
          "midi": 69,
          "name": "A4",
          "ticks": 73680,
          "time": 54.821296999999994,
          "velocity": 0.49606299212598426
        },
        {
          "duration": 0.6249984999999967,
          "durationTicks": 840,
          "midi": 72,
          "name": "C5",
          "ticks": 73680,
          "time": 54.821296999999994,
          "velocity": 0.49606299212598426
        },
        {
          "duration": 0.3571420000000032,
          "durationTicks": 480,
          "midi": 62,
          "name": "D4",
          "ticks": 74880,
          "time": 55.71415199999999,
          "velocity": 0.49606299212598426
        },
        {
          "duration": 0.3571420000000032,
          "durationTicks": 480,
          "midi": 65,
          "name": "F4",
          "ticks": 74880,
          "time": 55.71415199999999,
          "velocity": 0.49606299212598426
        },
        {
          "duration": 0.3571420000000032,
          "durationTicks": 480,
          "midi": 67,
          "name": "G4",
          "ticks": 74880,
          "time": 55.71415199999999,
          "velocity": 0.49606299212598426
        },
        {
          "duration": 0.3571420000000032,
          "durationTicks": 480,
          "midi": 71,
          "name": "B4",
          "ticks": 74880,
          "time": 55.71415199999999,
          "velocity": 0.49606299212598426
        },
        {
          "duration": 0.6473198750000009,
          "durationTicks": 870,
          "midi": 62,
          "name": "D4",
          "ticks": 75600,
          "time": 56.24986499999999,
          "velocity": 0.49606299212598426
        },
        {
          "duration": 0.6473198750000009,
          "durationTicks": 870,
          "midi": 65,
          "name": "F4",
          "ticks": 75600,
          "time": 56.24986499999999,
          "velocity": 0.49606299212598426
        },
        {
          "duration": 0.6473198750000009,
          "durationTicks": 870,
          "midi": 67,
          "name": "G4",
          "ticks": 75600,
          "time": 56.24986499999999,
          "velocity": 0.49606299212598426
        },
        {
          "duration": 0.6473198750000009,
          "durationTicks": 870,
          "midi": 71,
          "name": "B4",
          "ticks": 75600,
          "time": 56.24986499999999,
          "velocity": 0.49606299212598426
        },
        {
          "duration": 0.11904733333332729,
          "durationTicks": 160,
          "midi": 72,
          "name": "C5",
          "ticks": 101280,
          "time": 75.356962,
          "velocity": 0.8740157480314961
        },
        {
          "duration": 0.1190473333333415,
          "durationTicks": 160,
          "midi": 75,
          "name": "D#5",
          "ticks": 101520,
          "time": 75.53553299999999,
          "velocity": 0.8740157480314961
        },
        {
          "duration": 0.17857100000000514,
          "durationTicks": 240,
          "midi": 77,
          "name": "F5",
          "ticks": 101520,
          "time": 75.53553299999999,
          "velocity": 0.8740157480314961
        },
        {
          "duration": 0.46874887500000284,
          "durationTicks": 630,
          "midi": 79,
          "name": "G5",
          "ticks": 101760,
          "time": 75.71410399999999,
          "velocity": 0.8740157480314961
        },
        {
          "duration": 0.17857100000000514,
          "durationTicks": 240,
          "midi": 77,
          "name": "F5",
          "ticks": 102480,
          "time": 76.249817,
          "velocity": 0.8740157480314961
        },
        {
          "duration": 0.46874887499998863,
          "durationTicks": 630,
          "midi": 79,
          "name": "G5",
          "ticks": 102720,
          "time": 76.428388,
          "velocity": 0.8740157480314961
        },
        {
          "duration": 0.17857100000000514,
          "durationTicks": 240,
          "midi": 77,
          "name": "F5",
          "ticks": 103440,
          "time": 76.96410099999999,
          "velocity": 0.8740157480314961
        },
        {
          "duration": 0.3571419999999961,
          "durationTicks": 480,
          "midi": 79,
          "name": "G5",
          "ticks": 103680,
          "time": 77.14267199999999,
          "velocity": 0.8740157480314961
        },
        {
          "duration": 0.1190473333333415,
          "durationTicks": 160,
          "midi": 79,
          "name": "G5",
          "ticks": 104400,
          "time": 77.67838499999999,
          "velocity": 0.8740157480314961
        },
        {
          "duration": 0.11904733333332729,
          "durationTicks": 160,
          "midi": 77,
          "name": "F5",
          "ticks": 104640,
          "time": 77.856956,
          "velocity": 0.8740157480314961
        },
        {
          "duration": 0.1190473333333415,
          "durationTicks": 160,
          "midi": 75,
          "name": "D#5",
          "ticks": 104880,
          "time": 78.03552699999999,
          "velocity": 0.8740157480314961
        },
        {
          "duration": 0.1190473333333415,
          "durationTicks": 160,
          "midi": 72,
          "name": "C5",
          "ticks": 105120,
          "time": 78.21409799999999,
          "velocity": 0.8740157480314961
        },
        {
          "duration": 0.11904733333332729,
          "durationTicks": 160,
          "midi": 75,
          "name": "D#5",
          "ticks": 105360,
          "time": 78.392669,
          "velocity": 0.8740157480314961
        },
        {
          "duration": 0.17857099999999093,
          "durationTicks": 240,
          "midi": 77,
          "name": "F5",
          "ticks": 105360,
          "time": 78.392669,
          "velocity": 0.8740157480314961
        },
        {
          "duration": 0.46874887500000284,
          "durationTicks": 630,
          "midi": 79,
          "name": "G5",
          "ticks": 105600,
          "time": 78.57123999999999,
          "velocity": 0.8740157480314961
        },
        {
          "duration": 0.17857100000000514,
          "durationTicks": 240,
          "midi": 77,
          "name": "F5",
          "ticks": 106320,
          "time": 79.10695299999999,
          "velocity": 0.8740157480314961
        },
        {
          "duration": 0.23809466666665458,
          "durationTicks": 320,
          "midi": 79,
          "name": "G5",
          "ticks": 106560,
          "time": 79.285524,
          "velocity": 0.8740157480314961
        },
        {
          "duration": 0.17857100000000514,
          "durationTicks": 240,
          "midi": 77,
          "name": "F5",
          "ticks": 107040,
          "time": 79.64266599999999,
          "velocity": 0.8740157480314961
        },
        {
          "duration": 0.17857099999999093,
          "durationTicks": 240,
          "midi": 79,
          "name": "G5",
          "ticks": 107280,
          "time": 79.821237,
          "velocity": 0.8740157480314961
        },
        {
          "duration": 0.08928550000000257,
          "durationTicks": 120,
          "midi": 79,
          "name": "G5",
          "ticks": 107520,
          "time": 79.99980799999999,
          "velocity": 0.8740157480314961
        },
        {
          "duration": 0.059523666666663644,
          "durationTicks": 80,
          "midi": 77,
          "name": "F5",
          "ticks": 107640,
          "time": 80.08909349999999,
          "velocity": 0.8740157480314961
        },
        {
          "duration": 0.1190473333333415,
          "durationTicks": 160,
          "midi": 75,
          "name": "D#5",
          "ticks": 107760,
          "time": 80.17837899999999,
          "velocity": 0.8740157480314961
        },
        {
          "duration": 0.11904733333332729,
          "durationTicks": 160,
          "midi": 72,
          "name": "C5",
          "ticks": 108000,
          "time": 80.35695,
          "velocity": 0.8740157480314961
        },
        {
          "duration": 0.1190473333333415,
          "durationTicks": 160,
          "midi": 70,
          "name": "A#4",
          "ticks": 108240,
          "time": 80.53552099999999,
          "velocity": 0.8740157480314961
        },
        {
          "duration": 0.11904733333332729,
          "durationTicks": 160,
          "midi": 67,
          "name": "G4",
          "ticks": 108480,
          "time": 80.714092,
          "velocity": 0.8740157480314961
        },
        {
          "duration": 0.1190473333333415,
          "durationTicks": 160,
          "midi": 65,
          "name": "F4",
          "ticks": 108720,
          "time": 80.89266299999998,
          "velocity": 0.8740157480314961
        },
        {
          "duration": 0.23809466666666879,
          "durationTicks": 320,
          "midi": 63,
          "name": "D#4",
          "ticks": 108960,
          "time": 81.07123399999999,
          "velocity": 0.8740157480314961
        },
        {
          "duration": 0.5952366666666649,
          "durationTicks": 800,
          "midi": 63,
          "name": "D#4",
          "ticks": 109920,
          "time": 81.785518,
          "velocity": 0.8740157480314961
        },
        {
          "duration": 0.5952366666666649,
          "durationTicks": 800,
          "midi": 69,
          "name": "A4",
          "ticks": 109920,
          "time": 81.785518,
          "velocity": 0.8740157480314961
        },
        {
          "duration": 0.5952366666666649,
          "durationTicks": 800,
          "midi": 72,
          "name": "C5",
          "ticks": 109920,
          "time": 81.785518,
          "velocity": 0.8740157480314961
        },
        {
          "duration": 0.23809466666666879,
          "durationTicks": 320,
          "midi": 63,
          "name": "D#4",
          "ticks": 110880,
          "time": 82.49980199999999,
          "velocity": 0.8740157480314961
        },
        {
          "duration": 0.23809466666666879,
          "durationTicks": 320,
          "midi": 69,
          "name": "A4",
          "ticks": 110880,
          "time": 82.49980199999999,
          "velocity": 0.8740157480314961
        },
        {
          "duration": 0.23809466666666879,
          "durationTicks": 320,
          "midi": 72,
          "name": "C5",
          "ticks": 110880,
          "time": 82.49980199999999,
          "velocity": 0.8740157480314961
        },
        {
          "duration": 0.23809466666666879,
          "durationTicks": 320,
          "midi": 63,
          "name": "D#4",
          "ticks": 111360,
          "time": 82.85694399999998,
          "velocity": 0.8740157480314961
        },
        {
          "duration": 0.23809466666666879,
          "durationTicks": 320,
          "midi": 69,
          "name": "A4",
          "ticks": 111360,
          "time": 82.85694399999998,
          "velocity": 0.8740157480314961
        },
        {
          "duration": 0.23809466666666879,
          "durationTicks": 320,
          "midi": 72,
          "name": "C5",
          "ticks": 111360,
          "time": 82.85694399999998,
          "velocity": 0.8740157480314961
        },
        {
          "duration": 0.11904733333332729,
          "durationTicks": 160,
          "midi": 63,
          "name": "D#4",
          "ticks": 111840,
          "time": 83.214086,
          "velocity": 0.8740157480314961
        },
        {
          "duration": 0.11904733333332729,
          "durationTicks": 160,
          "midi": 69,
          "name": "A4",
          "ticks": 111840,
          "time": 83.214086,
          "velocity": 0.8740157480314961
        },
        {
          "duration": 0.11904733333332729,
          "durationTicks": 160,
          "midi": 72,
          "name": "C5",
          "ticks": 111840,
          "time": 83.214086,
          "velocity": 0.8740157480314961
        },
        {
          "duration": 0.1190473333333415,
          "durationTicks": 160,
          "midi": 63,
          "name": "D#4",
          "ticks": 112080,
          "time": 83.39265699999999,
          "velocity": 0.8740157480314961
        },
        {
          "duration": 0.1190473333333415,
          "durationTicks": 160,
          "midi": 69,
          "name": "A4",
          "ticks": 112080,
          "time": 83.39265699999999,
          "velocity": 0.8740157480314961
        },
        {
          "duration": 0.1190473333333415,
          "durationTicks": 160,
          "midi": 72,
          "name": "C5",
          "ticks": 112080,
          "time": 83.39265699999999,
          "velocity": 0.8740157480314961
        },
        {
          "duration": 0.1190473333333415,
          "durationTicks": 160,
          "midi": 63,
          "name": "D#4",
          "ticks": 112320,
          "time": 83.57122799999999,
          "velocity": 0.8740157480314961
        },
        {
          "duration": 0.1190473333333415,
          "durationTicks": 160,
          "midi": 69,
          "name": "A4",
          "ticks": 112320,
          "time": 83.57122799999999,
          "velocity": 0.8740157480314961
        },
        {
          "duration": 0.1190473333333415,
          "durationTicks": 160,
          "midi": 72,
          "name": "C5",
          "ticks": 112320,
          "time": 83.57122799999999,
          "velocity": 0.8740157480314961
        },
        {
          "duration": 0.11904733333332729,
          "durationTicks": 160,
          "midi": 63,
          "name": "D#4",
          "ticks": 112560,
          "time": 83.749799,
          "velocity": 0.8740157480314961
        },
        {
          "duration": 0.11904733333332729,
          "durationTicks": 160,
          "midi": 69,
          "name": "A4",
          "ticks": 112560,
          "time": 83.749799,
          "velocity": 0.8740157480314961
        },
        {
          "duration": 0.11904733333332729,
          "durationTicks": 160,
          "midi": 72,
          "name": "C5",
          "ticks": 112560,
          "time": 83.749799,
          "velocity": 0.8740157480314961
        },
        {
          "duration": 0.17857100000000514,
          "durationTicks": 240,
          "midi": 79,
          "name": "G5",
          "ticks": 113040,
          "time": 84.10694099999999,
          "velocity": 0.8740157480314961
        },
        {
          "duration": 0.46874887499998863,
          "durationTicks": 630,
          "midi": 79,
          "name": "G5",
          "ticks": 113280,
          "time": 84.285512,
          "velocity": 0.8740157480314961
        },
        {
          "duration": 0.17857100000000514,
          "durationTicks": 240,
          "midi": 77,
          "name": "F5",
          "ticks": 114000,
          "time": 84.82122499999998,
          "velocity": 0.8740157480314961
        },
        {
          "duration": 0.46874887500000284,
          "durationTicks": 630,
          "midi": 79,
          "name": "G5",
          "ticks": 114240,
          "time": 84.99979599999999,
          "velocity": 0.8740157480314961
        },
        {
          "duration": 0.17857100000000514,
          "durationTicks": 240,
          "midi": 77,
          "name": "F5",
          "ticks": 114960,
          "time": 85.53550899999999,
          "velocity": 0.8740157480314961
        },
        {
          "duration": 0.3571419999999961,
          "durationTicks": 480,
          "midi": 79,
          "name": "G5",
          "ticks": 115200,
          "time": 85.71408,
          "velocity": 0.8740157480314961
        },
        {
          "duration": 0.17857099999999093,
          "durationTicks": 240,
          "midi": 79,
          "name": "G5",
          "ticks": 115920,
          "time": 86.249793,
          "velocity": 0.8740157480314961
        },
        {
          "duration": 0.1190473333333415,
          "durationTicks": 160,
          "midi": 77,
          "name": "F5",
          "ticks": 116160,
          "time": 86.42836399999999,
          "velocity": 0.8740157480314961
        },
        {
          "duration": 0.11904733333332729,
          "durationTicks": 160,
          "midi": 75,
          "name": "D#5",
          "ticks": 116400,
          "time": 86.606935,
          "velocity": 0.8740157480314961
        },
        {
          "duration": 0.23809466666666879,
          "durationTicks": 320,
          "midi": 72,
          "name": "C5",
          "ticks": 116640,
          "time": 86.78550599999998,
          "velocity": 0.8740157480314961
        },
        {
          "duration": 0.08928550000000257,
          "durationTicks": 120,
          "midi": 65,
          "name": "F4",
          "ticks": 117480,
          "time": 87.41050449999999,
          "velocity": 0.8740157480314961
        },
        {
          "duration": 0.08928550000000257,
          "durationTicks": 120,
          "midi": 69,
          "name": "A4",
          "ticks": 117480,
          "time": 87.41050449999999,
          "velocity": 0.8740157480314961
        },
        {
          "duration": 0.23809466666666879,
          "durationTicks": 320,
          "midi": 67,
          "name": "G4",
          "ticks": 117600,
          "time": 87.49978999999999,
          "velocity": 0.8740157480314961
        },
        {
          "duration": 0.23809466666666879,
          "durationTicks": 320,
          "midi": 71,
          "name": "B4",
          "ticks": 117600,
          "time": 87.49978999999999,
          "velocity": 0.8740157480314961
        },
        {
          "duration": 0.3571420000000103,
          "durationTicks": 480,
          "midi": 67,
          "name": "G4",
          "ticks": 118080,
          "time": 87.85693199999999,
          "velocity": 0.8740157480314961
        },
        {
          "duration": 0.3571420000000103,
          "durationTicks": 480,
          "midi": 71,
          "name": "B4",
          "ticks": 118080,
          "time": 87.85693199999999,
          "velocity": 0.8740157480314961
        },
        {
          "duration": 0.17857100000000514,
          "durationTicks": 240,
          "midi": 67,
          "name": "G4",
          "ticks": 118800,
          "time": 88.39264499999999,
          "velocity": 0.8740157480314961
        },
        {
          "duration": 0.3571419999999961,
          "durationTicks": 480,
          "midi": 65,
          "name": "F4",
          "ticks": 119040,
          "time": 88.57121599999999,
          "velocity": 0.8740157480314961
        },
        {
          "duration": 0.11904733333332729,
          "durationTicks": 160,
          "midi": 63,
          "name": "D#4",
          "ticks": 119760,
          "time": 89.106929,
          "velocity": 0.8740157480314961
        },
        {
          "duration": 0.1190473333333415,
          "durationTicks": 160,
          "midi": 65,
          "name": "F4",
          "ticks": 120000,
          "time": 89.28549999999998,
          "velocity": 0.8740157480314961
        },
        {
          "duration": 0.1190473333333415,
          "durationTicks": 160,
          "midi": 63,
          "name": "D#4",
          "ticks": 120240,
          "time": 89.46407099999999,
          "velocity": 0.8740157480314961
        },
        {
          "duration": 0.11904733333332729,
          "durationTicks": 160,
          "midi": 60,
          "name": "C4",
          "ticks": 120480,
          "time": 89.642642,
          "velocity": 0.8740157480314961
        },
        {
          "duration": 0.17857100000000514,
          "durationTicks": 240,
          "midi": 65,
          "name": "F4",
          "ticks": 120720,
          "time": 89.82121299999999,
          "velocity": 0.8740157480314961
        },
        {
          "duration": 0.1190473333333415,
          "durationTicks": 160,
          "midi": 67,
          "name": "G4",
          "ticks": 120960,
          "time": 89.99978399999999,
          "velocity": 0.8740157480314961
        },
        {
          "duration": 0.29761833333333243,
          "durationTicks": 400,
          "midi": 70,
          "name": "A#4",
          "ticks": 121200,
          "time": 90.178355,
          "velocity": 0.8740157480314961
        },
        {
          "duration": 0.17857099999999093,
          "durationTicks": 240,
          "midi": 67,
          "name": "G4",
          "ticks": 121680,
          "time": 90.53549699999999,
          "velocity": 0.8740157480314961
        },
        {
          "duration": 0.1190473333333415,
          "durationTicks": 160,
          "midi": 65,
          "name": "F4",
          "ticks": 121920,
          "time": 90.71406799999998,
          "velocity": 0.8740157480314961
        },
        {
          "duration": 0.1190473333333415,
          "durationTicks": 160,
          "midi": 63,
          "name": "D#4",
          "ticks": 122160,
          "time": 90.89263899999999,
          "velocity": 0.8740157480314961
        },
        {
          "duration": 0.11904733333332729,
          "durationTicks": 160,
          "midi": 60,
          "name": "C4",
          "ticks": 122400,
          "time": 91.07121,
          "velocity": 0.8740157480314961
        },
        {
          "duration": 0.1190473333333415,
          "durationTicks": 160,
          "midi": 58,
          "name": "A#3",
          "ticks": 122640,
          "time": 91.24978099999998,
          "velocity": 0.8740157480314961
        },
        {
          "duration": 0.4613084166666681,
          "durationTicks": 620,
          "midi": 60,
          "name": "C4",
          "ticks": 122880,
          "time": 91.42835199999999,
          "velocity": 0.7480314960629921
        },
        {
          "duration": 0.34970154166667555,
          "durationTicks": 470,
          "midi": 52,
          "name": "E3",
          "ticks": 124800,
          "time": 92.85691999999999,
          "velocity": 0.49606299212598426
        },
        {
          "duration": 0.34970154166667555,
          "durationTicks": 470,
          "midi": 59,
          "name": "B3",
          "ticks": 124800,
          "time": 92.85691999999999,
          "velocity": 0.49606299212598426
        },
        {
          "duration": 0.34970154166667555,
          "durationTicks": 470,
          "midi": 64,
          "name": "E4",
          "ticks": 124800,
          "time": 92.85691999999999,
          "velocity": 0.49606299212598426
        },
        {
          "duration": 0.34970154166667555,
          "durationTicks": 470,
          "midi": 67,
          "name": "G4",
          "ticks": 124800,
          "time": 92.85691999999999,
          "velocity": 0.49606299212598426
        },
        {
          "duration": 0.34970154166667555,
          "durationTicks": 470,
          "midi": 71,
          "name": "B4",
          "ticks": 124800,
          "time": 92.85691999999999,
          "velocity": 0.49606299212598426
        },
        {
          "duration": 0.34970154166667555,
          "durationTicks": 470,
          "midi": 76,
          "name": "E5",
          "ticks": 124800,
          "time": 92.85691999999999,
          "velocity": 0.49606299212598426
        },
        {
          "duration": 0.6398794166666733,
          "durationTicks": 860,
          "midi": 52,
          "name": "E3",
          "ticks": 125520,
          "time": 93.39263299999999,
          "velocity": 0.49606299212598426
        },
        {
          "duration": 0.6398794166666733,
          "durationTicks": 860,
          "midi": 59,
          "name": "B3",
          "ticks": 125520,
          "time": 93.39263299999999,
          "velocity": 0.49606299212598426
        },
        {
          "duration": 0.6398794166666733,
          "durationTicks": 860,
          "midi": 64,
          "name": "E4",
          "ticks": 125520,
          "time": 93.39263299999999,
          "velocity": 0.49606299212598426
        },
        {
          "duration": 0.6398794166666733,
          "durationTicks": 860,
          "midi": 67,
          "name": "G4",
          "ticks": 125520,
          "time": 93.39263299999999,
          "velocity": 0.49606299212598426
        },
        {
          "duration": 0.6398794166666733,
          "durationTicks": 860,
          "midi": 71,
          "name": "B4",
          "ticks": 125520,
          "time": 93.39263299999999,
          "velocity": 0.49606299212598426
        },
        {
          "duration": 0.6398794166666733,
          "durationTicks": 860,
          "midi": 76,
          "name": "E5",
          "ticks": 125520,
          "time": 93.39263299999999,
          "velocity": 0.49606299212598426
        },
        {
          "duration": 0.3422610833333266,
          "durationTicks": 460,
          "midi": 57,
          "name": "A3",
          "ticks": 126720,
          "time": 94.28548799999999,
          "velocity": 0.49606299212598426
        },
        {
          "duration": 0.3422610833333266,
          "durationTicks": 460,
          "midi": 64,
          "name": "E4",
          "ticks": 126720,
          "time": 94.28548799999999,
          "velocity": 0.49606299212598426
        },
        {
          "duration": 0.3422610833333266,
          "durationTicks": 460,
          "midi": 69,
          "name": "A4",
          "ticks": 126720,
          "time": 94.28548799999999,
          "velocity": 0.49606299212598426
        },
        {
          "duration": 0.3422610833333266,
          "durationTicks": 460,
          "midi": 72,
          "name": "C5",
          "ticks": 126720,
          "time": 94.28548799999999,
          "velocity": 0.49606299212598426
        },
        {
          "duration": 0.3422610833333266,
          "durationTicks": 460,
          "midi": 76,
          "name": "E5",
          "ticks": 126720,
          "time": 94.28548799999999,
          "velocity": 0.49606299212598426
        },
        {
          "duration": 0.6249985000000038,
          "durationTicks": 840,
          "midi": 57,
          "name": "A3",
          "ticks": 127440,
          "time": 94.82120099999999,
          "velocity": 0.49606299212598426
        },
        {
          "duration": 0.6324389583333243,
          "durationTicks": 850,
          "midi": 64,
          "name": "E4",
          "ticks": 127440,
          "time": 94.82120099999999,
          "velocity": 0.49606299212598426
        },
        {
          "duration": 0.6324389583333243,
          "durationTicks": 850,
          "midi": 69,
          "name": "A4",
          "ticks": 127440,
          "time": 94.82120099999999,
          "velocity": 0.49606299212598426
        },
        {
          "duration": 0.6324389583333243,
          "durationTicks": 850,
          "midi": 72,
          "name": "C5",
          "ticks": 127440,
          "time": 94.82120099999999,
          "velocity": 0.49606299212598426
        },
        {
          "duration": 0.6324389583333243,
          "durationTicks": 850,
          "midi": 76,
          "name": "E5",
          "ticks": 127440,
          "time": 94.82120099999999,
          "velocity": 0.49606299212598426
        },
        {
          "duration": 0.34970154166667555,
          "durationTicks": 470,
          "midi": 59,
          "name": "B3",
          "ticks": 132480,
          "time": 98.57119199999998,
          "velocity": 0.49606299212598426
        },
        {
          "duration": 0.34970154166667555,
          "durationTicks": 470,
          "midi": 64,
          "name": "E4",
          "ticks": 132480,
          "time": 98.57119199999998,
          "velocity": 0.49606299212598426
        },
        {
          "duration": 0.34970154166667555,
          "durationTicks": 470,
          "midi": 67,
          "name": "G4",
          "ticks": 132480,
          "time": 98.57119199999998,
          "velocity": 0.49606299212598426
        },
        {
          "duration": 0.34970154166667555,
          "durationTicks": 470,
          "midi": 71,
          "name": "B4",
          "ticks": 132480,
          "time": 98.57119199999998,
          "velocity": 0.49606299212598426
        },
        {
          "duration": 0.6398794166666733,
          "durationTicks": 860,
          "midi": 59,
          "name": "B3",
          "ticks": 133200,
          "time": 99.10690499999998,
          "velocity": 0.49606299212598426
        },
        {
          "duration": 0.6398794166666733,
          "durationTicks": 860,
          "midi": 64,
          "name": "E4",
          "ticks": 133200,
          "time": 99.10690499999998,
          "velocity": 0.49606299212598426
        },
        {
          "duration": 0.6398794166666733,
          "durationTicks": 860,
          "midi": 67,
          "name": "G4",
          "ticks": 133200,
          "time": 99.10690499999998,
          "velocity": 0.49606299212598426
        },
        {
          "duration": 0.6398794166666733,
          "durationTicks": 860,
          "midi": 71,
          "name": "B4",
          "ticks": 133200,
          "time": 99.10690499999998,
          "velocity": 0.49606299212598426
        },
        {
          "duration": 0.3422610833333266,
          "durationTicks": 460,
          "midi": 64,
          "name": "E4",
          "ticks": 134400,
          "time": 99.99976,
          "velocity": 0.49606299212598426
        },
        {
          "duration": 0.3422610833333266,
          "durationTicks": 460,
          "midi": 69,
          "name": "A4",
          "ticks": 134400,
          "time": 99.99976,
          "velocity": 0.49606299212598426
        },
        {
          "duration": 0.3422610833333266,
          "durationTicks": 460,
          "midi": 72,
          "name": "C5",
          "ticks": 134400,
          "time": 99.99976,
          "velocity": 0.49606299212598426
        },
        {
          "duration": 0.6324389583333385,
          "durationTicks": 850,
          "midi": 64,
          "name": "E4",
          "ticks": 135120,
          "time": 100.53547299999998,
          "velocity": 0.49606299212598426
        },
        {
          "duration": 0.6324389583333385,
          "durationTicks": 850,
          "midi": 69,
          "name": "A4",
          "ticks": 135120,
          "time": 100.53547299999998,
          "velocity": 0.49606299212598426
        },
        {
          "duration": 0.6324389583333385,
          "durationTicks": 850,
          "midi": 72,
          "name": "C5",
          "ticks": 135120,
          "time": 100.53547299999998,
          "velocity": 0.49606299212598426
        },
        {
          "duration": 0.3348206249999919,
          "durationTicks": 450,
          "midi": 62,
          "name": "D4",
          "ticks": 136320,
          "time": 101.428328,
          "velocity": 0.49606299212598426
        },
        {
          "duration": 0.3348206249999919,
          "durationTicks": 450,
          "midi": 65,
          "name": "F4",
          "ticks": 136320,
          "time": 101.428328,
          "velocity": 0.49606299212598426
        },
        {
          "duration": 0.3348206249999919,
          "durationTicks": 450,
          "midi": 69,
          "name": "A4",
          "ticks": 136320,
          "time": 101.428328,
          "velocity": 0.49606299212598426
        },
        {
          "duration": 0.3348206249999919,
          "durationTicks": 450,
          "midi": 72,
          "name": "C5",
          "ticks": 136320,
          "time": 101.428328,
          "velocity": 0.49606299212598426
        },
        {
          "duration": 0.6249984999999896,
          "durationTicks": 840,
          "midi": 62,
          "name": "D4",
          "ticks": 137040,
          "time": 101.964041,
          "velocity": 0.49606299212598426
        },
        {
          "duration": 0.6249984999999896,
          "durationTicks": 840,
          "midi": 65,
          "name": "F4",
          "ticks": 137040,
          "time": 101.964041,
          "velocity": 0.49606299212598426
        },
        {
          "duration": 0.6249984999999896,
          "durationTicks": 840,
          "midi": 69,
          "name": "A4",
          "ticks": 137040,
          "time": 101.964041,
          "velocity": 0.49606299212598426
        },
        {
          "duration": 0.6249984999999896,
          "durationTicks": 840,
          "midi": 72,
          "name": "C5",
          "ticks": 137040,
          "time": 101.964041,
          "velocity": 0.49606299212598426
        },
        {
          "duration": 0.3571419999999961,
          "durationTicks": 480,
          "midi": 62,
          "name": "D4",
          "ticks": 138240,
          "time": 102.85689599999999,
          "velocity": 0.49606299212598426
        },
        {
          "duration": 0.3571419999999961,
          "durationTicks": 480,
          "midi": 65,
          "name": "F4",
          "ticks": 138240,
          "time": 102.85689599999999,
          "velocity": 0.49606299212598426
        },
        {
          "duration": 0.3571419999999961,
          "durationTicks": 480,
          "midi": 67,
          "name": "G4",
          "ticks": 138240,
          "time": 102.85689599999999,
          "velocity": 0.49606299212598426
        },
        {
          "duration": 0.3571419999999961,
          "durationTicks": 480,
          "midi": 71,
          "name": "B4",
          "ticks": 138240,
          "time": 102.85689599999999,
          "velocity": 0.49606299212598426
        },
        {
          "duration": 0.6473198749999938,
          "durationTicks": 870,
          "midi": 62,
          "name": "D4",
          "ticks": 138960,
          "time": 103.392609,
          "velocity": 0.49606299212598426
        },
        {
          "duration": 0.6473198749999938,
          "durationTicks": 870,
          "midi": 65,
          "name": "F4",
          "ticks": 138960,
          "time": 103.392609,
          "velocity": 0.49606299212598426
        },
        {
          "duration": 0.6473198749999938,
          "durationTicks": 870,
          "midi": 67,
          "name": "G4",
          "ticks": 138960,
          "time": 103.392609,
          "velocity": 0.49606299212598426
        },
        {
          "duration": 0.6473198749999938,
          "durationTicks": 870,
          "midi": 71,
          "name": "B4",
          "ticks": 138960,
          "time": 103.392609,
          "velocity": 0.49606299212598426
        },
        {
          "duration": 0.34970154166667555,
          "durationTicks": 470,
          "midi": 59,
          "name": "B3",
          "ticks": 163200,
          "time": 121.42827999999999,
          "velocity": 0.49606299212598426
        },
        {
          "duration": 0.34970154166667555,
          "durationTicks": 470,
          "midi": 64,
          "name": "E4",
          "ticks": 163200,
          "time": 121.42827999999999,
          "velocity": 0.49606299212598426
        },
        {
          "duration": 0.34970154166667555,
          "durationTicks": 470,
          "midi": 67,
          "name": "G4",
          "ticks": 163200,
          "time": 121.42827999999999,
          "velocity": 0.49606299212598426
        },
        {
          "duration": 0.34970154166667555,
          "durationTicks": 470,
          "midi": 71,
          "name": "B4",
          "ticks": 163200,
          "time": 121.42827999999999,
          "velocity": 0.49606299212598426
        },
        {
          "duration": 0.6398794166666733,
          "durationTicks": 860,
          "midi": 59,
          "name": "B3",
          "ticks": 163920,
          "time": 121.96399299999999,
          "velocity": 0.49606299212598426
        },
        {
          "duration": 0.6398794166666733,
          "durationTicks": 860,
          "midi": 64,
          "name": "E4",
          "ticks": 163920,
          "time": 121.96399299999999,
          "velocity": 0.49606299212598426
        },
        {
          "duration": 0.6398794166666733,
          "durationTicks": 860,
          "midi": 67,
          "name": "G4",
          "ticks": 163920,
          "time": 121.96399299999999,
          "velocity": 0.49606299212598426
        },
        {
          "duration": 0.6398794166666733,
          "durationTicks": 860,
          "midi": 71,
          "name": "B4",
          "ticks": 163920,
          "time": 121.96399299999999,
          "velocity": 0.49606299212598426
        },
        {
          "duration": 0.3422610833333266,
          "durationTicks": 460,
          "midi": 64,
          "name": "E4",
          "ticks": 165120,
          "time": 122.85684799999999,
          "velocity": 0.49606299212598426
        },
        {
          "duration": 0.3422610833333266,
          "durationTicks": 460,
          "midi": 69,
          "name": "A4",
          "ticks": 165120,
          "time": 122.85684799999999,
          "velocity": 0.49606299212598426
        },
        {
          "duration": 0.3422610833333266,
          "durationTicks": 460,
          "midi": 72,
          "name": "C5",
          "ticks": 165120,
          "time": 122.85684799999999,
          "velocity": 0.49606299212598426
        },
        {
          "duration": 0.6324389583333243,
          "durationTicks": 850,
          "midi": 64,
          "name": "E4",
          "ticks": 165840,
          "time": 123.39256099999999,
          "velocity": 0.49606299212598426
        },
        {
          "duration": 0.6324389583333243,
          "durationTicks": 850,
          "midi": 69,
          "name": "A4",
          "ticks": 165840,
          "time": 123.39256099999999,
          "velocity": 0.49606299212598426
        },
        {
          "duration": 0.6324389583333243,
          "durationTicks": 850,
          "midi": 72,
          "name": "C5",
          "ticks": 165840,
          "time": 123.39256099999999,
          "velocity": 0.49606299212598426
        },
        {
          "duration": 0.34970154166667555,
          "durationTicks": 470,
          "midi": 59,
          "name": "B3",
          "ticks": 167040,
          "time": 124.28541599999998,
          "velocity": 0.49606299212598426
        },
        {
          "duration": 0.34970154166667555,
          "durationTicks": 470,
          "midi": 64,
          "name": "E4",
          "ticks": 167040,
          "time": 124.28541599999998,
          "velocity": 0.49606299212598426
        },
        {
          "duration": 0.34970154166667555,
          "durationTicks": 470,
          "midi": 67,
          "name": "G4",
          "ticks": 167040,
          "time": 124.28541599999998,
          "velocity": 0.49606299212598426
        },
        {
          "duration": 0.34970154166667555,
          "durationTicks": 470,
          "midi": 71,
          "name": "B4",
          "ticks": 167040,
          "time": 124.28541599999998,
          "velocity": 0.49606299212598426
        },
        {
          "duration": 0.6398794166666733,
          "durationTicks": 860,
          "midi": 59,
          "name": "B3",
          "ticks": 167760,
          "time": 124.82112899999998,
          "velocity": 0.49606299212598426
        },
        {
          "duration": 0.6398794166666733,
          "durationTicks": 860,
          "midi": 64,
          "name": "E4",
          "ticks": 167760,
          "time": 124.82112899999998,
          "velocity": 0.49606299212598426
        },
        {
          "duration": 0.6398794166666733,
          "durationTicks": 860,
          "midi": 67,
          "name": "G4",
          "ticks": 167760,
          "time": 124.82112899999998,
          "velocity": 0.49606299212598426
        },
        {
          "duration": 0.6398794166666733,
          "durationTicks": 860,
          "midi": 71,
          "name": "B4",
          "ticks": 167760,
          "time": 124.82112899999998,
          "velocity": 0.49606299212598426
        },
        {
          "duration": 0.3422610833333266,
          "durationTicks": 460,
          "midi": 64,
          "name": "E4",
          "ticks": 168960,
          "time": 125.71398399999998,
          "velocity": 0.49606299212598426
        },
        {
          "duration": 0.3422610833333266,
          "durationTicks": 460,
          "midi": 69,
          "name": "A4",
          "ticks": 168960,
          "time": 125.71398399999998,
          "velocity": 0.49606299212598426
        },
        {
          "duration": 0.3422610833333266,
          "durationTicks": 460,
          "midi": 72,
          "name": "C5",
          "ticks": 168960,
          "time": 125.71398399999998,
          "velocity": 0.49606299212598426
        },
        {
          "duration": 0.6324389583333243,
          "durationTicks": 850,
          "midi": 64,
          "name": "E4",
          "ticks": 169680,
          "time": 126.24969699999998,
          "velocity": 0.49606299212598426
        },
        {
          "duration": 0.6324389583333243,
          "durationTicks": 850,
          "midi": 69,
          "name": "A4",
          "ticks": 169680,
          "time": 126.24969699999998,
          "velocity": 0.49606299212598426
        },
        {
          "duration": 0.6324389583333243,
          "durationTicks": 850,
          "midi": 72,
          "name": "C5",
          "ticks": 169680,
          "time": 126.24969699999998,
          "velocity": 0.49606299212598426
        },
        {
          "duration": 0.3348206250000061,
          "durationTicks": 450,
          "midi": 62,
          "name": "D4",
          "ticks": 170880,
          "time": 127.14255199999998,
          "velocity": 0.49606299212598426
        },
        {
          "duration": 0.3348206250000061,
          "durationTicks": 450,
          "midi": 65,
          "name": "F4",
          "ticks": 170880,
          "time": 127.14255199999998,
          "velocity": 0.49606299212598426
        },
        {
          "duration": 0.3348206250000061,
          "durationTicks": 450,
          "midi": 69,
          "name": "A4",
          "ticks": 170880,
          "time": 127.14255199999998,
          "velocity": 0.49606299212598426
        },
        {
          "duration": 0.3348206250000061,
          "durationTicks": 450,
          "midi": 72,
          "name": "C5",
          "ticks": 170880,
          "time": 127.14255199999998,
          "velocity": 0.49606299212598426
        },
        {
          "duration": 0.6249985000000038,
          "durationTicks": 840,
          "midi": 62,
          "name": "D4",
          "ticks": 171600,
          "time": 127.67826499999998,
          "velocity": 0.49606299212598426
        },
        {
          "duration": 0.6249985000000038,
          "durationTicks": 840,
          "midi": 65,
          "name": "F4",
          "ticks": 171600,
          "time": 127.67826499999998,
          "velocity": 0.49606299212598426
        },
        {
          "duration": 0.6249985000000038,
          "durationTicks": 840,
          "midi": 69,
          "name": "A4",
          "ticks": 171600,
          "time": 127.67826499999998,
          "velocity": 0.49606299212598426
        },
        {
          "duration": 0.6249985000000038,
          "durationTicks": 840,
          "midi": 72,
          "name": "C5",
          "ticks": 171600,
          "time": 127.67826499999998,
          "velocity": 0.49606299212598426
        },
        {
          "duration": 0.3348206250000203,
          "durationTicks": 450,
          "midi": 67,
          "name": "G4",
          "ticks": 172800,
          "time": 128.57111999999998,
          "velocity": 0.49606299212598426
        },
        {
          "duration": 0.3348206250000203,
          "durationTicks": 450,
          "midi": 71,
          "name": "B4",
          "ticks": 172800,
          "time": 128.57111999999998,
          "velocity": 0.49606299212598426
        },
        {
          "duration": 0.3348206250000203,
          "durationTicks": 450,
          "midi": 74,
          "name": "D5",
          "ticks": 172800,
          "time": 128.57111999999998,
          "velocity": 0.49606299212598426
        },
        {
          "duration": 0.6249985000000038,
          "durationTicks": 840,
          "midi": 67,
          "name": "G4",
          "ticks": 173520,
          "time": 129.106833,
          "velocity": 0.49606299212598426
        },
        {
          "duration": 0.6249985000000038,
          "durationTicks": 840,
          "midi": 71,
          "name": "B4",
          "ticks": 173520,
          "time": 129.106833,
          "velocity": 0.49606299212598426
        },
        {
          "duration": 0.6249985000000038,
          "durationTicks": 840,
          "midi": 74,
          "name": "D5",
          "ticks": 173520,
          "time": 129.106833,
          "velocity": 0.49606299212598426
        },
        {
          "duration": 2.313982541666661,
          "durationTicks": 3110,
          "midi": 67,
          "name": "G4",
          "ticks": 174720,
          "time": 129.999688,
          "velocity": 0.49606299212598426
        },
        {
          "duration": 2.313982541666661,
          "durationTicks": 3110,
          "midi": 72,
          "name": "C5",
          "ticks": 174720,
          "time": 129.999688,
          "velocity": 0.49606299212598426
        },
        {
          "duration": 2.313982541666661,
          "durationTicks": 3110,
          "midi": 76,
          "name": "E5",
          "ticks": 174720,
          "time": 129.999688,
          "velocity": 0.49606299212598426
        }
      ]
    },
    {
      "channel": 0,
      "controlChanges": {},
      "pitchBends": [],
      "instrument": {
        "family": "piano",
        "number": 0,
        "name": "acoustic grand piano"
      },
      "name": "Elec Guitr",
      "notes": [],
      "endOfTrackTicks": 178560
    },
    {
      "channel": 3,
      "controlChanges": {
        "1": [
          {
            "number": 1,
            "ticks": 990,
            "time": 0.7366053749999999,
            "value": 0
          }
        ],
        "7": [
          {
            "number": 7,
            "ticks": 1000,
            "time": 0.7440458333333333,
            "value": 0.7637795275590551
          }
        ],
        "10": [
          {
            "number": 10,
            "ticks": 1010,
            "time": 0.7514862916666666,
            "value": 0.2125984251968504
          }
        ],
        "11": [
          {
            "number": 11,
            "ticks": 1020,
            "time": 0.7589267499999999,
            "value": 1
          }
        ],
        "64": [
          {
            "number": 64,
            "ticks": 1030,
            "time": 0.7663672083333333,
            "value": 0
          }
        ],
        "91": [
          {
            "number": 91,
            "ticks": 1040,
            "time": 0.7738076666666666,
            "value": 0.5039370078740157
          }
        ],
        "93": [
          {
            "number": 93,
            "ticks": 1050,
            "time": 0.781248125,
            "value": 0.31496062992125984
          }
        ]
      },
      "pitchBends": [
        {
          "ticks": 1060,
          "time": 0.7886885833333332,
          "value": 0
        }
      ],
      "instrument": {
        "family": "guitar",
        "number": 27,
        "name": "electric guitar (clean)"
      },
      "name": "",
      "notes": [
        {
          "duration": 0.22321374999999977,
          "durationTicks": 300,
          "midi": 52,
          "name": "E3",
          "ticks": 3840,
          "time": 2.8571359999999997,
          "velocity": 0.6220472440944882
        },
        {
          "duration": 0.22321374999999977,
          "durationTicks": 300,
          "midi": 59,
          "name": "B3",
          "ticks": 3840,
          "time": 2.8571359999999997,
          "velocity": 0.6220472440944882
        },
        {
          "duration": 0.22321374999999977,
          "durationTicks": 300,
          "midi": 64,
          "name": "E4",
          "ticks": 3840,
          "time": 2.8571359999999997,
          "velocity": 0.6220472440944882
        },
        {
          "duration": 0.22321374999999977,
          "durationTicks": 300,
          "midi": 67,
          "name": "G4",
          "ticks": 3840,
          "time": 2.8571359999999997,
          "velocity": 0.6220472440944882
        },
        {
          "duration": 0.22321374999999977,
          "durationTicks": 300,
          "midi": 71,
          "name": "B4",
          "ticks": 3840,
          "time": 2.8571359999999997,
          "velocity": 0.6220472440944882
        },
        {
          "duration": 0.22321374999999977,
          "durationTicks": 300,
          "midi": 76,
          "name": "E5",
          "ticks": 3840,
          "time": 2.8571359999999997,
          "velocity": 0.6220472440944882
        },
        {
          "duration": 0.15624962500000006,
          "durationTicks": 210,
          "midi": 64,
          "name": "E4",
          "ticks": 4320,
          "time": 3.2142779999999997,
          "velocity": 0.6220472440944882
        },
        {
          "duration": 0.15624962500000006,
          "durationTicks": 210,
          "midi": 67,
          "name": "G4",
          "ticks": 4320,
          "time": 3.2142779999999997,
          "velocity": 0.6220472440944882
        },
        {
          "duration": 0.15624962500000006,
          "durationTicks": 210,
          "midi": 71,
          "name": "B4",
          "ticks": 4320,
          "time": 3.2142779999999997,
          "velocity": 0.6220472440944882
        },
        {
          "duration": 0.27529695833333356,
          "durationTicks": 370,
          "midi": 64,
          "name": "E4",
          "ticks": 4560,
          "time": 3.3928489999999996,
          "velocity": 0.6220472440944882
        },
        {
          "duration": 0.27529695833333356,
          "durationTicks": 370,
          "midi": 67,
          "name": "G4",
          "ticks": 4560,
          "time": 3.3928489999999996,
          "velocity": 0.6220472440944882
        },
        {
          "duration": 0.27529695833333356,
          "durationTicks": 370,
          "midi": 71,
          "name": "B4",
          "ticks": 4560,
          "time": 3.3928489999999996,
          "velocity": 0.6220472440944882
        },
        {
          "duration": 0.08184504166666651,
          "durationTicks": 110,
          "midi": 64,
          "name": "E4",
          "ticks": 5040,
          "time": 3.7499909999999996,
          "velocity": 0.6220472440944882
        },
        {
          "duration": 0.08184504166666651,
          "durationTicks": 110,
          "midi": 67,
          "name": "G4",
          "ticks": 5040,
          "time": 3.7499909999999996,
          "velocity": 0.6220472440944882
        },
        {
          "duration": 0.08184504166666651,
          "durationTicks": 110,
          "midi": 71,
          "name": "B4",
          "ticks": 5040,
          "time": 3.7499909999999996,
          "velocity": 0.6220472440944882
        },
        {
          "duration": 0.23809466666666612,
          "durationTicks": 320,
          "midi": 64,
          "name": "E4",
          "ticks": 5280,
          "time": 3.9285619999999994,
          "velocity": 0.6220472440944882
        },
        {
          "duration": 0.23809466666666612,
          "durationTicks": 320,
          "midi": 67,
          "name": "G4",
          "ticks": 5280,
          "time": 3.9285619999999994,
          "velocity": 0.6220472440944882
        },
        {
          "duration": 0.23809466666666612,
          "durationTicks": 320,
          "midi": 71,
          "name": "B4",
          "ticks": 5280,
          "time": 3.9285619999999994,
          "velocity": 0.6220472440944882
        },
        {
          "duration": 0.2232137500000002,
          "durationTicks": 300,
          "midi": 57,
          "name": "A3",
          "ticks": 5760,
          "time": 4.285703999999999,
          "velocity": 0.6220472440944882
        },
        {
          "duration": 0.2232137500000002,
          "durationTicks": 300,
          "midi": 64,
          "name": "E4",
          "ticks": 5760,
          "time": 4.285703999999999,
          "velocity": 0.6220472440944882
        },
        {
          "duration": 0.2232137500000002,
          "durationTicks": 300,
          "midi": 69,
          "name": "A4",
          "ticks": 5760,
          "time": 4.285703999999999,
          "velocity": 0.6220472440944882
        },
        {
          "duration": 0.2232137500000002,
          "durationTicks": 300,
          "midi": 72,
          "name": "C5",
          "ticks": 5760,
          "time": 4.285703999999999,
          "velocity": 0.6220472440944882
        },
        {
          "duration": 0.2232137500000002,
          "durationTicks": 300,
          "midi": 76,
          "name": "E5",
          "ticks": 5760,
          "time": 4.285703999999999,
          "velocity": 0.6220472440944882
        },
        {
          "duration": 0.15624962500000006,
          "durationTicks": 210,
          "midi": 60,
          "name": "C4",
          "ticks": 6240,
          "time": 4.642846,
          "velocity": 0.6220472440944882
        },
        {
          "duration": 0.15624962500000006,
          "durationTicks": 210,
          "midi": 64,
          "name": "E4",
          "ticks": 6240,
          "time": 4.642846,
          "velocity": 0.6220472440944882
        },
        {
          "duration": 0.15624962500000006,
          "durationTicks": 210,
          "midi": 69,
          "name": "A4",
          "ticks": 6240,
          "time": 4.642846,
          "velocity": 0.6220472440944882
        },
        {
          "duration": 0.27529695833333356,
          "durationTicks": 370,
          "midi": 60,
          "name": "C4",
          "ticks": 6480,
          "time": 4.821416999999999,
          "velocity": 0.6220472440944882
        },
        {
          "duration": 0.27529695833333356,
          "durationTicks": 370,
          "midi": 64,
          "name": "E4",
          "ticks": 6480,
          "time": 4.821416999999999,
          "velocity": 0.6220472440944882
        },
        {
          "duration": 0.27529695833333356,
          "durationTicks": 370,
          "midi": 69,
          "name": "A4",
          "ticks": 6480,
          "time": 4.821416999999999,
          "velocity": 0.6220472440944882
        },
        {
          "duration": 0.074404583333334,
          "durationTicks": 100,
          "midi": 60,
          "name": "C4",
          "ticks": 6960,
          "time": 5.178558999999999,
          "velocity": 0.6220472440944882
        },
        {
          "duration": 0.074404583333334,
          "durationTicks": 100,
          "midi": 64,
          "name": "E4",
          "ticks": 6960,
          "time": 5.178558999999999,
          "velocity": 0.6220472440944882
        },
        {
          "duration": 0.074404583333334,
          "durationTicks": 100,
          "midi": 69,
          "name": "A4",
          "ticks": 6960,
          "time": 5.178558999999999,
          "velocity": 0.6220472440944882
        },
        {
          "duration": 0.23809466666666612,
          "durationTicks": 320,
          "midi": 60,
          "name": "C4",
          "ticks": 7200,
          "time": 5.35713,
          "velocity": 0.6220472440944882
        },
        {
          "duration": 0.23809466666666612,
          "durationTicks": 320,
          "midi": 64,
          "name": "E4",
          "ticks": 7200,
          "time": 5.35713,
          "velocity": 0.6220472440944882
        },
        {
          "duration": 0.23809466666666612,
          "durationTicks": 320,
          "midi": 69,
          "name": "A4",
          "ticks": 7200,
          "time": 5.35713,
          "velocity": 0.6220472440944882
        },
        {
          "duration": 0.238094666666667,
          "durationTicks": 320,
          "midi": 64,
          "name": "E4",
          "ticks": 7680,
          "time": 5.714271999999999,
          "velocity": 0.6220472440944882
        },
        {
          "duration": 0.238094666666667,
          "durationTicks": 320,
          "midi": 67,
          "name": "G4",
          "ticks": 7680,
          "time": 5.714271999999999,
          "velocity": 0.6220472440944882
        },
        {
          "duration": 0.238094666666667,
          "durationTicks": 320,
          "midi": 71,
          "name": "B4",
          "ticks": 7680,
          "time": 5.714271999999999,
          "velocity": 0.6220472440944882
        },
        {
          "duration": 0.15624962500000006,
          "durationTicks": 210,
          "midi": 64,
          "name": "E4",
          "ticks": 8160,
          "time": 6.071413999999999,
          "velocity": 0.6220472440944882
        },
        {
          "duration": 0.15624962500000006,
          "durationTicks": 210,
          "midi": 67,
          "name": "G4",
          "ticks": 8160,
          "time": 6.071413999999999,
          "velocity": 0.6220472440944882
        },
        {
          "duration": 0.15624962500000006,
          "durationTicks": 210,
          "midi": 71,
          "name": "B4",
          "ticks": 8160,
          "time": 6.071413999999999,
          "velocity": 0.6220472440944882
        },
        {
          "duration": 0.2752969583333327,
          "durationTicks": 370,
          "midi": 64,
          "name": "E4",
          "ticks": 8400,
          "time": 6.249985,
          "velocity": 0.6220472440944882
        },
        {
          "duration": 0.2752969583333327,
          "durationTicks": 370,
          "midi": 67,
          "name": "G4",
          "ticks": 8400,
          "time": 6.249985,
          "velocity": 0.6220472440944882
        },
        {
          "duration": 0.2752969583333327,
          "durationTicks": 370,
          "midi": 71,
          "name": "B4",
          "ticks": 8400,
          "time": 6.249985,
          "velocity": 0.6220472440944882
        },
        {
          "duration": 0.07440458333333311,
          "durationTicks": 100,
          "midi": 64,
          "name": "E4",
          "ticks": 8880,
          "time": 6.607126999999999,
          "velocity": 0.6220472440944882
        },
        {
          "duration": 0.07440458333333311,
          "durationTicks": 100,
          "midi": 67,
          "name": "G4",
          "ticks": 8880,
          "time": 6.607126999999999,
          "velocity": 0.6220472440944882
        },
        {
          "duration": 0.07440458333333311,
          "durationTicks": 100,
          "midi": 71,
          "name": "B4",
          "ticks": 8880,
          "time": 6.607126999999999,
          "velocity": 0.6220472440944882
        },
        {
          "duration": 0.238094666666667,
          "durationTicks": 320,
          "midi": 64,
          "name": "E4",
          "ticks": 9120,
          "time": 6.785697999999999,
          "velocity": 0.6220472440944882
        },
        {
          "duration": 0.238094666666667,
          "durationTicks": 320,
          "midi": 67,
          "name": "G4",
          "ticks": 9120,
          "time": 6.785697999999999,
          "velocity": 0.6220472440944882
        },
        {
          "duration": 0.238094666666667,
          "durationTicks": 320,
          "midi": 71,
          "name": "B4",
          "ticks": 9120,
          "time": 6.785697999999999,
          "velocity": 0.6220472440944882
        },
        {
          "duration": 0.238094666666667,
          "durationTicks": 320,
          "midi": 60,
          "name": "C4",
          "ticks": 9600,
          "time": 7.14284,
          "velocity": 0.6220472440944882
        },
        {
          "duration": 0.238094666666667,
          "durationTicks": 320,
          "midi": 64,
          "name": "E4",
          "ticks": 9600,
          "time": 7.14284,
          "velocity": 0.6220472440944882
        },
        {
          "duration": 0.238094666666667,
          "durationTicks": 320,
          "midi": 69,
          "name": "A4",
          "ticks": 9600,
          "time": 7.14284,
          "velocity": 0.6220472440944882
        },
        {
          "duration": 0.15624962500000006,
          "durationTicks": 210,
          "midi": 60,
          "name": "C4",
          "ticks": 10080,
          "time": 7.499981999999999,
          "velocity": 0.6220472440944882
        },
        {
          "duration": 0.15624962500000006,
          "durationTicks": 210,
          "midi": 64,
          "name": "E4",
          "ticks": 10080,
          "time": 7.499981999999999,
          "velocity": 0.6220472440944882
        },
        {
          "duration": 0.15624962500000006,
          "durationTicks": 210,
          "midi": 69,
          "name": "A4",
          "ticks": 10080,
          "time": 7.499981999999999,
          "velocity": 0.6220472440944882
        },
        {
          "duration": 0.2752969583333327,
          "durationTicks": 370,
          "midi": 60,
          "name": "C4",
          "ticks": 10320,
          "time": 7.678552999999999,
          "velocity": 0.6220472440944882
        },
        {
          "duration": 0.2752969583333327,
          "durationTicks": 370,
          "midi": 64,
          "name": "E4",
          "ticks": 10320,
          "time": 7.678552999999999,
          "velocity": 0.6220472440944882
        },
        {
          "duration": 0.2752969583333327,
          "durationTicks": 370,
          "midi": 69,
          "name": "A4",
          "ticks": 10320,
          "time": 7.678552999999999,
          "velocity": 0.6220472440944882
        },
        {
          "duration": 0.07440458333333311,
          "durationTicks": 100,
          "midi": 60,
          "name": "C4",
          "ticks": 10800,
          "time": 8.035694999999999,
          "velocity": 0.6220472440944882
        },
        {
          "duration": 0.07440458333333311,
          "durationTicks": 100,
          "midi": 64,
          "name": "E4",
          "ticks": 10800,
          "time": 8.035694999999999,
          "velocity": 0.6220472440944882
        },
        {
          "duration": 0.07440458333333311,
          "durationTicks": 100,
          "midi": 69,
          "name": "A4",
          "ticks": 10800,
          "time": 8.035694999999999,
          "velocity": 0.6220472440944882
        },
        {
          "duration": 0.238094666666667,
          "durationTicks": 320,
          "midi": 60,
          "name": "C4",
          "ticks": 11040,
          "time": 8.214265999999999,
          "velocity": 0.6220472440944882
        },
        {
          "duration": 0.238094666666667,
          "durationTicks": 320,
          "midi": 64,
          "name": "E4",
          "ticks": 11040,
          "time": 8.214265999999999,
          "velocity": 0.6220472440944882
        },
        {
          "duration": 0.238094666666667,
          "durationTicks": 320,
          "midi": 71,
          "name": "B4",
          "ticks": 11040,
          "time": 8.214265999999999,
          "velocity": 0.6220472440944882
        },
        {
          "duration": 0.2232137500000011,
          "durationTicks": 300,
          "midi": 62,
          "name": "D4",
          "ticks": 11520,
          "time": 8.571407999999998,
          "velocity": 0.6220472440944882
        },
        {
          "duration": 0.2232137500000011,
          "durationTicks": 300,
          "midi": 69,
          "name": "A4",
          "ticks": 11520,
          "time": 8.571407999999998,
          "velocity": 0.6220472440944882
        },
        {
          "duration": 0.2232137500000011,
          "durationTicks": 300,
          "midi": 72,
          "name": "C5",
          "ticks": 11520,
          "time": 8.571407999999998,
          "velocity": 0.6220472440944882
        },
        {
          "duration": 0.2232137500000011,
          "durationTicks": 300,
          "midi": 77,
          "name": "F5",
          "ticks": 11520,
          "time": 8.571407999999998,
          "velocity": 0.6220472440944882
        },
        {
          "duration": 0.14880916666666621,
          "durationTicks": 200,
          "midi": 62,
          "name": "D4",
          "ticks": 12000,
          "time": 8.92855,
          "velocity": 0.6220472440944882
        },
        {
          "duration": 0.14880916666666621,
          "durationTicks": 200,
          "midi": 65,
          "name": "F4",
          "ticks": 12000,
          "time": 8.92855,
          "velocity": 0.6220472440944882
        },
        {
          "duration": 0.14880916666666621,
          "durationTicks": 200,
          "midi": 69,
          "name": "A4",
          "ticks": 12000,
          "time": 8.92855,
          "velocity": 0.6220472440944882
        },
        {
          "duration": 0.14880916666666621,
          "durationTicks": 200,
          "midi": 72,
          "name": "C5",
          "ticks": 12000,
          "time": 8.92855,
          "velocity": 0.6220472440944882
        },
        {
          "duration": 0.26785649999999883,
          "durationTicks": 360,
          "midi": 62,
          "name": "D4",
          "ticks": 12240,
          "time": 9.107121,
          "velocity": 0.6220472440944882
        },
        {
          "duration": 0.26785649999999883,
          "durationTicks": 360,
          "midi": 65,
          "name": "F4",
          "ticks": 12240,
          "time": 9.107121,
          "velocity": 0.6220472440944882
        },
        {
          "duration": 0.26785649999999883,
          "durationTicks": 360,
          "midi": 69,
          "name": "A4",
          "ticks": 12240,
          "time": 9.107121,
          "velocity": 0.6220472440944882
        },
        {
          "duration": 0.26785649999999883,
          "durationTicks": 360,
          "midi": 72,
          "name": "C5",
          "ticks": 12240,
          "time": 9.107121,
          "velocity": 0.6220472440944882
        },
        {
          "duration": 0.07440458333333311,
          "durationTicks": 100,
          "midi": 62,
          "name": "D4",
          "ticks": 12720,
          "time": 9.464262999999999,
          "velocity": 0.6220472440944882
        },
        {
          "duration": 0.07440458333333311,
          "durationTicks": 100,
          "midi": 65,
          "name": "F4",
          "ticks": 12720,
          "time": 9.464262999999999,
          "velocity": 0.6220472440944882
        },
        {
          "duration": 0.07440458333333311,
          "durationTicks": 100,
          "midi": 69,
          "name": "A4",
          "ticks": 12720,
          "time": 9.464262999999999,
          "velocity": 0.6220472440944882
        },
        {
          "duration": 0.07440458333333311,
          "durationTicks": 100,
          "midi": 72,
          "name": "C5",
          "ticks": 12720,
          "time": 9.464262999999999,
          "velocity": 0.6220472440944882
        },
        {
          "duration": 0.22321374999999932,
          "durationTicks": 300,
          "midi": 62,
          "name": "D4",
          "ticks": 12960,
          "time": 9.642833999999999,
          "velocity": 0.6220472440944882
        },
        {
          "duration": 0.238094666666667,
          "durationTicks": 320,
          "midi": 65,
          "name": "F4",
          "ticks": 12960,
          "time": 9.642833999999999,
          "velocity": 0.6220472440944882
        },
        {
          "duration": 0.238094666666667,
          "durationTicks": 320,
          "midi": 69,
          "name": "A4",
          "ticks": 12960,
          "time": 9.642833999999999,
          "velocity": 0.6220472440944882
        },
        {
          "duration": 0.238094666666667,
          "durationTicks": 320,
          "midi": 72,
          "name": "C5",
          "ticks": 12960,
          "time": 9.642833999999999,
          "velocity": 0.6220472440944882
        },
        {
          "duration": 0.2232137500000011,
          "durationTicks": 300,
          "midi": 55,
          "name": "G3",
          "ticks": 13440,
          "time": 9.999975999999998,
          "velocity": 0.6220472440944882
        },
        {
          "duration": 0.2232137500000011,
          "durationTicks": 300,
          "midi": 59,
          "name": "B3",
          "ticks": 13440,
          "time": 9.999975999999998,
          "velocity": 0.6220472440944882
        },
        {
          "duration": 0.2232137500000011,
          "durationTicks": 300,
          "midi": 62,
          "name": "D4",
          "ticks": 13440,
          "time": 9.999975999999998,
          "velocity": 0.6220472440944882
        },
        {
          "duration": 0.2232137500000011,
          "durationTicks": 300,
          "midi": 67,
          "name": "G4",
          "ticks": 13440,
          "time": 9.999975999999998,
          "velocity": 0.6220472440944882
        },
        {
          "duration": 0.2232137500000011,
          "durationTicks": 300,
          "midi": 71,
          "name": "B4",
          "ticks": 13440,
          "time": 9.999975999999998,
          "velocity": 0.6220472440944882
        },
        {
          "duration": 0.2232137500000011,
          "durationTicks": 300,
          "midi": 79,
          "name": "G5",
          "ticks": 13440,
          "time": 9.999975999999998,
          "velocity": 0.6220472440944882
        },
        {
          "duration": 0.15624962500000095,
          "durationTicks": 210,
          "midi": 62,
          "name": "D4",
          "ticks": 13920,
          "time": 10.357117999999998,
          "velocity": 0.6220472440944882
        },
        {
          "duration": 0.15624962500000095,
          "durationTicks": 210,
          "midi": 67,
          "name": "G4",
          "ticks": 13920,
          "time": 10.357117999999998,
          "velocity": 0.6220472440944882
        },
        {
          "duration": 0.15624962500000095,
          "durationTicks": 210,
          "midi": 71,
          "name": "B4",
          "ticks": 13920,
          "time": 10.357117999999998,
          "velocity": 0.6220472440944882
        },
        {
          "duration": 0.2752969583333318,
          "durationTicks": 370,
          "midi": 62,
          "name": "D4",
          "ticks": 14160,
          "time": 10.535689,
          "velocity": 0.6220472440944882
        },
        {
          "duration": 0.2752969583333318,
          "durationTicks": 370,
          "midi": 67,
          "name": "G4",
          "ticks": 14160,
          "time": 10.535689,
          "velocity": 0.6220472440944882
        },
        {
          "duration": 0.2752969583333318,
          "durationTicks": 370,
          "midi": 71,
          "name": "B4",
          "ticks": 14160,
          "time": 10.535689,
          "velocity": 0.6220472440944882
        },
        {
          "duration": 0.07440458333333311,
          "durationTicks": 100,
          "midi": 64,
          "name": "E4",
          "ticks": 14640,
          "time": 10.892831,
          "velocity": 0.6220472440944882
        },
        {
          "duration": 0.07440458333333311,
          "durationTicks": 100,
          "midi": 67,
          "name": "G4",
          "ticks": 14640,
          "time": 10.892831,
          "velocity": 0.6220472440944882
        },
        {
          "duration": 0.07440458333333311,
          "durationTicks": 100,
          "midi": 71,
          "name": "B4",
          "ticks": 14640,
          "time": 10.892831,
          "velocity": 0.6220472440944882
        },
        {
          "duration": 0.238094666666667,
          "durationTicks": 320,
          "midi": 64,
          "name": "E4",
          "ticks": 14880,
          "time": 11.071401999999999,
          "velocity": 0.6220472440944882
        },
        {
          "duration": 0.238094666666667,
          "durationTicks": 320,
          "midi": 67,
          "name": "G4",
          "ticks": 14880,
          "time": 11.071401999999999,
          "velocity": 0.6220472440944882
        },
        {
          "duration": 0.238094666666667,
          "durationTicks": 320,
          "midi": 71,
          "name": "B4",
          "ticks": 14880,
          "time": 11.071401999999999,
          "velocity": 0.6220472440944882
        },
        {
          "duration": 0.23809466666666523,
          "durationTicks": 320,
          "midi": 64,
          "name": "E4",
          "ticks": 15360,
          "time": 11.428543999999999,
          "velocity": 0.6220472440944882
        },
        {
          "duration": 0.23809466666666523,
          "durationTicks": 320,
          "midi": 67,
          "name": "G4",
          "ticks": 15360,
          "time": 11.428543999999999,
          "velocity": 0.6220472440944882
        },
        {
          "duration": 0.23809466666666523,
          "durationTicks": 320,
          "midi": 70,
          "name": "A#4",
          "ticks": 15360,
          "time": 11.428543999999999,
          "velocity": 0.6220472440944882
        },
        {
          "duration": 0.23809466666666523,
          "durationTicks": 320,
          "midi": 72,
          "name": "C5",
          "ticks": 15360,
          "time": 11.428543999999999,
          "velocity": 0.6220472440944882
        },
        {
          "duration": 0.23809466666666523,
          "durationTicks": 320,
          "midi": 76,
          "name": "E5",
          "ticks": 15360,
          "time": 11.428543999999999,
          "velocity": 0.6220472440944882
        },
        {
          "duration": 0.15624962500000095,
          "durationTicks": 210,
          "midi": 60,
          "name": "C4",
          "ticks": 15840,
          "time": 11.785685999999998,
          "velocity": 0.6220472440944882
        },
        {
          "duration": 0.15624962500000095,
          "durationTicks": 210,
          "midi": 64,
          "name": "E4",
          "ticks": 15840,
          "time": 11.785685999999998,
          "velocity": 0.6220472440944882
        },
        {
          "duration": 0.15624962500000095,
          "durationTicks": 210,
          "midi": 67,
          "name": "G4",
          "ticks": 15840,
          "time": 11.785685999999998,
          "velocity": 0.6220472440944882
        },
        {
          "duration": 0.15624962500000095,
          "durationTicks": 210,
          "midi": 70,
          "name": "A#4",
          "ticks": 15840,
          "time": 11.785685999999998,
          "velocity": 0.6220472440944882
        },
        {
          "duration": 0.07440458333333488,
          "durationTicks": 100,
          "midi": 60,
          "name": "C4",
          "ticks": 16080,
          "time": 11.964256999999998,
          "velocity": 0.6220472440944882
        },
        {
          "duration": 0.07440458333333488,
          "durationTicks": 100,
          "midi": 64,
          "name": "E4",
          "ticks": 16080,
          "time": 11.964256999999998,
          "velocity": 0.6220472440944882
        },
        {
          "duration": 0.07440458333333488,
          "durationTicks": 100,
          "midi": 67,
          "name": "G4",
          "ticks": 16080,
          "time": 11.964256999999998,
          "velocity": 0.6220472440944882
        },
        {
          "duration": 0.07440458333333488,
          "durationTicks": 100,
          "midi": 70,
          "name": "A#4",
          "ticks": 16080,
          "time": 11.964256999999998,
          "velocity": 0.6220472440944882
        },
        {
          "duration": 0.11904733333333439,
          "durationTicks": 160,
          "midi": 60,
          "name": "C4",
          "ticks": 16320,
          "time": 12.142827999999998,
          "velocity": 0.6220472440944882
        },
        {
          "duration": 0.11904733333333439,
          "durationTicks": 160,
          "midi": 64,
          "name": "E4",
          "ticks": 16320,
          "time": 12.142827999999998,
          "velocity": 0.6220472440944882
        },
        {
          "duration": 0.11904733333333439,
          "durationTicks": 160,
          "midi": 67,
          "name": "G4",
          "ticks": 16320,
          "time": 12.142827999999998,
          "velocity": 0.6220472440944882
        },
        {
          "duration": 0.238094666666667,
          "durationTicks": 320,
          "midi": 70,
          "name": "A#4",
          "ticks": 16320,
          "time": 12.142827999999998,
          "velocity": 0.6220472440944882
        },
        {
          "duration": 0.15624962499999917,
          "durationTicks": 210,
          "midi": 60,
          "name": "C4",
          "ticks": 16800,
          "time": 12.49997,
          "velocity": 0.6220472440944882
        },
        {
          "duration": 0.15624962499999917,
          "durationTicks": 210,
          "midi": 64,
          "name": "E4",
          "ticks": 16800,
          "time": 12.49997,
          "velocity": 0.6220472440944882
        },
        {
          "duration": 0.15624962499999917,
          "durationTicks": 210,
          "midi": 67,
          "name": "G4",
          "ticks": 16800,
          "time": 12.49997,
          "velocity": 0.6220472440944882
        },
        {
          "duration": 0.15624962499999917,
          "durationTicks": 210,
          "midi": 70,
          "name": "A#4",
          "ticks": 16800,
          "time": 12.49997,
          "velocity": 0.6220472440944882
        },
        {
          "duration": 0.07440458333333311,
          "durationTicks": 100,
          "midi": 60,
          "name": "C4",
          "ticks": 17040,
          "time": 12.678541,
          "velocity": 0.6220472440944882
        },
        {
          "duration": 0.07440458333333311,
          "durationTicks": 100,
          "midi": 64,
          "name": "E4",
          "ticks": 17040,
          "time": 12.678541,
          "velocity": 0.6220472440944882
        },
        {
          "duration": 0.07440458333333311,
          "durationTicks": 100,
          "midi": 67,
          "name": "G4",
          "ticks": 17040,
          "time": 12.678541,
          "velocity": 0.6220472440944882
        },
        {
          "duration": 0.07440458333333311,
          "durationTicks": 100,
          "midi": 70,
          "name": "A#4",
          "ticks": 17040,
          "time": 12.678541,
          "velocity": 0.6220472440944882
        },
        {
          "duration": 0.23809466666666523,
          "durationTicks": 320,
          "midi": 64,
          "name": "E4",
          "ticks": 17280,
          "time": 12.857111999999999,
          "velocity": 0.6220472440944882
        },
        {
          "duration": 0.23809466666666523,
          "durationTicks": 320,
          "midi": 67,
          "name": "G4",
          "ticks": 17280,
          "time": 12.857111999999999,
          "velocity": 0.6220472440944882
        },
        {
          "duration": 0.23809466666666523,
          "durationTicks": 320,
          "midi": 70,
          "name": "A#4",
          "ticks": 17280,
          "time": 12.857111999999999,
          "velocity": 0.6220472440944882
        },
        {
          "duration": 0.23809466666666523,
          "durationTicks": 320,
          "midi": 72,
          "name": "C5",
          "ticks": 17280,
          "time": 12.857111999999999,
          "velocity": 0.6220472440944882
        },
        {
          "duration": 0.23809466666666523,
          "durationTicks": 320,
          "midi": 76,
          "name": "E5",
          "ticks": 17280,
          "time": 12.857111999999999,
          "velocity": 0.6220472440944882
        },
        {
          "duration": 0.15624962499999917,
          "durationTicks": 210,
          "midi": 60,
          "name": "C4",
          "ticks": 17760,
          "time": 13.214253999999999,
          "velocity": 0.6220472440944882
        },
        {
          "duration": 0.15624962499999917,
          "durationTicks": 210,
          "midi": 64,
          "name": "E4",
          "ticks": 17760,
          "time": 13.214253999999999,
          "velocity": 0.6220472440944882
        },
        {
          "duration": 0.15624962499999917,
          "durationTicks": 210,
          "midi": 67,
          "name": "G4",
          "ticks": 17760,
          "time": 13.214253999999999,
          "velocity": 0.6220472440944882
        },
        {
          "duration": 0.15624962499999917,
          "durationTicks": 210,
          "midi": 70,
          "name": "A#4",
          "ticks": 17760,
          "time": 13.214253999999999,
          "velocity": 0.6220472440944882
        },
        {
          "duration": 0.07440458333333488,
          "durationTicks": 100,
          "midi": 60,
          "name": "C4",
          "ticks": 18000,
          "time": 13.392824999999998,
          "velocity": 0.6220472440944882
        },
        {
          "duration": 0.07440458333333488,
          "durationTicks": 100,
          "midi": 64,
          "name": "E4",
          "ticks": 18000,
          "time": 13.392824999999998,
          "velocity": 0.6220472440944882
        },
        {
          "duration": 0.07440458333333488,
          "durationTicks": 100,
          "midi": 67,
          "name": "G4",
          "ticks": 18000,
          "time": 13.392824999999998,
          "velocity": 0.6220472440944882
        },
        {
          "duration": 0.07440458333333488,
          "durationTicks": 100,
          "midi": 70,
          "name": "A#4",
          "ticks": 18000,
          "time": 13.392824999999998,
          "velocity": 0.6220472440944882
        },
        {
          "duration": 0.11904733333333439,
          "durationTicks": 160,
          "midi": 60,
          "name": "C4",
          "ticks": 18240,
          "time": 13.571395999999998,
          "velocity": 0.6220472440944882
        },
        {
          "duration": 0.11904733333333439,
          "durationTicks": 160,
          "midi": 64,
          "name": "E4",
          "ticks": 18240,
          "time": 13.571395999999998,
          "velocity": 0.6220472440944882
        },
        {
          "duration": 0.11904733333333439,
          "durationTicks": 160,
          "midi": 67,
          "name": "G4",
          "ticks": 18240,
          "time": 13.571395999999998,
          "velocity": 0.6220472440944882
        },
        {
          "duration": 0.23809466666666523,
          "durationTicks": 320,
          "midi": 70,
          "name": "A#4",
          "ticks": 18240,
          "time": 13.571395999999998,
          "velocity": 0.6220472440944882
        },
        {
          "duration": 0.15624962500000095,
          "durationTicks": 210,
          "midi": 60,
          "name": "C4",
          "ticks": 18720,
          "time": 13.928537999999998,
          "velocity": 0.6220472440944882
        },
        {
          "duration": 0.15624962500000095,
          "durationTicks": 210,
          "midi": 64,
          "name": "E4",
          "ticks": 18720,
          "time": 13.928537999999998,
          "velocity": 0.6220472440944882
        },
        {
          "duration": 0.15624962500000095,
          "durationTicks": 210,
          "midi": 67,
          "name": "G4",
          "ticks": 18720,
          "time": 13.928537999999998,
          "velocity": 0.6220472440944882
        },
        {
          "duration": 0.15624962500000095,
          "durationTicks": 210,
          "midi": 70,
          "name": "A#4",
          "ticks": 18720,
          "time": 13.928537999999998,
          "velocity": 0.6220472440944882
        },
        {
          "duration": 0.07440458333333488,
          "durationTicks": 100,
          "midi": 60,
          "name": "C4",
          "ticks": 18960,
          "time": 14.107108999999998,
          "velocity": 0.6220472440944882
        },
        {
          "duration": 0.07440458333333488,
          "durationTicks": 100,
          "midi": 64,
          "name": "E4",
          "ticks": 18960,
          "time": 14.107108999999998,
          "velocity": 0.6220472440944882
        },
        {
          "duration": 0.07440458333333488,
          "durationTicks": 100,
          "midi": 67,
          "name": "G4",
          "ticks": 18960,
          "time": 14.107108999999998,
          "velocity": 0.6220472440944882
        },
        {
          "duration": 0.07440458333333488,
          "durationTicks": 100,
          "midi": 70,
          "name": "A#4",
          "ticks": 18960,
          "time": 14.107108999999998,
          "velocity": 0.6220472440944882
        },
        {
          "duration": 0.23809466666666523,
          "durationTicks": 320,
          "midi": 64,
          "name": "E4",
          "ticks": 19200,
          "time": 14.28568,
          "velocity": 0.6220472440944882
        },
        {
          "duration": 0.23809466666666523,
          "durationTicks": 320,
          "midi": 67,
          "name": "G4",
          "ticks": 19200,
          "time": 14.28568,
          "velocity": 0.6220472440944882
        },
        {
          "duration": 0.23809466666666523,
          "durationTicks": 320,
          "midi": 70,
          "name": "A#4",
          "ticks": 19200,
          "time": 14.28568,
          "velocity": 0.6220472440944882
        },
        {
          "duration": 0.23809466666666523,
          "durationTicks": 320,
          "midi": 72,
          "name": "C5",
          "ticks": 19200,
          "time": 14.28568,
          "velocity": 0.6220472440944882
        },
        {
          "duration": 0.23809466666666523,
          "durationTicks": 320,
          "midi": 76,
          "name": "E5",
          "ticks": 19200,
          "time": 14.28568,
          "velocity": 0.6220472440944882
        },
        {
          "duration": 0.15624962499999917,
          "durationTicks": 210,
          "midi": 60,
          "name": "C4",
          "ticks": 19680,
          "time": 14.642821999999999,
          "velocity": 0.6220472440944882
        },
        {
          "duration": 0.15624962499999917,
          "durationTicks": 210,
          "midi": 64,
          "name": "E4",
          "ticks": 19680,
          "time": 14.642821999999999,
          "velocity": 0.6220472440944882
        },
        {
          "duration": 0.15624962499999917,
          "durationTicks": 210,
          "midi": 67,
          "name": "G4",
          "ticks": 19680,
          "time": 14.642821999999999,
          "velocity": 0.6220472440944882
        },
        {
          "duration": 0.15624962499999917,
          "durationTicks": 210,
          "midi": 70,
          "name": "A#4",
          "ticks": 19680,
          "time": 14.642821999999999,
          "velocity": 0.6220472440944882
        },
        {
          "duration": 0.07440458333333311,
          "durationTicks": 100,
          "midi": 60,
          "name": "C4",
          "ticks": 19920,
          "time": 14.821392999999999,
          "velocity": 0.6220472440944882
        },
        {
          "duration": 0.07440458333333311,
          "durationTicks": 100,
          "midi": 64,
          "name": "E4",
          "ticks": 19920,
          "time": 14.821392999999999,
          "velocity": 0.6220472440944882
        },
        {
          "duration": 0.07440458333333311,
          "durationTicks": 100,
          "midi": 67,
          "name": "G4",
          "ticks": 19920,
          "time": 14.821392999999999,
          "velocity": 0.6220472440944882
        },
        {
          "duration": 0.07440458333333311,
          "durationTicks": 100,
          "midi": 70,
          "name": "A#4",
          "ticks": 19920,
          "time": 14.821392999999999,
          "velocity": 0.6220472440944882
        },
        {
          "duration": 0.11904733333333439,
          "durationTicks": 160,
          "midi": 60,
          "name": "C4",
          "ticks": 20160,
          "time": 14.999963999999999,
          "velocity": 0.6220472440944882
        },
        {
          "duration": 0.11904733333333439,
          "durationTicks": 160,
          "midi": 64,
          "name": "E4",
          "ticks": 20160,
          "time": 14.999963999999999,
          "velocity": 0.6220472440944882
        },
        {
          "duration": 0.11904733333333439,
          "durationTicks": 160,
          "midi": 67,
          "name": "G4",
          "ticks": 20160,
          "time": 14.999963999999999,
          "velocity": 0.6220472440944882
        },
        {
          "duration": 0.23809466666666523,
          "durationTicks": 320,
          "midi": 70,
          "name": "A#4",
          "ticks": 20160,
          "time": 14.999963999999999,
          "velocity": 0.6220472440944882
        },
        {
          "duration": 0.15624962500000095,
          "durationTicks": 210,
          "midi": 60,
          "name": "C4",
          "ticks": 20640,
          "time": 15.357105999999998,
          "velocity": 0.6220472440944882
        },
        {
          "duration": 0.15624962500000095,
          "durationTicks": 210,
          "midi": 64,
          "name": "E4",
          "ticks": 20640,
          "time": 15.357105999999998,
          "velocity": 0.6220472440944882
        },
        {
          "duration": 0.15624962500000095,
          "durationTicks": 210,
          "midi": 67,
          "name": "G4",
          "ticks": 20640,
          "time": 15.357105999999998,
          "velocity": 0.6220472440944882
        },
        {
          "duration": 0.15624962500000095,
          "durationTicks": 210,
          "midi": 70,
          "name": "A#4",
          "ticks": 20640,
          "time": 15.357105999999998,
          "velocity": 0.6220472440944882
        },
        {
          "duration": 0.07440458333333488,
          "durationTicks": 100,
          "midi": 60,
          "name": "C4",
          "ticks": 20880,
          "time": 15.535676999999998,
          "velocity": 0.6220472440944882
        },
        {
          "duration": 0.07440458333333488,
          "durationTicks": 100,
          "midi": 64,
          "name": "E4",
          "ticks": 20880,
          "time": 15.535676999999998,
          "velocity": 0.6220472440944882
        },
        {
          "duration": 0.07440458333333488,
          "durationTicks": 100,
          "midi": 67,
          "name": "G4",
          "ticks": 20880,
          "time": 15.535676999999998,
          "velocity": 0.6220472440944882
        },
        {
          "duration": 0.07440458333333488,
          "durationTicks": 100,
          "midi": 70,
          "name": "A#4",
          "ticks": 20880,
          "time": 15.535676999999998,
          "velocity": 0.6220472440944882
        },
        {
          "duration": 0.238094666666667,
          "durationTicks": 320,
          "midi": 60,
          "name": "C4",
          "ticks": 21120,
          "time": 15.714247999999998,
          "velocity": 0.6220472440944882
        },
        {
          "duration": 0.238094666666667,
          "durationTicks": 320,
          "midi": 64,
          "name": "E4",
          "ticks": 21120,
          "time": 15.714247999999998,
          "velocity": 0.6220472440944882
        },
        {
          "duration": 0.238094666666667,
          "durationTicks": 320,
          "midi": 67,
          "name": "G4",
          "ticks": 21120,
          "time": 15.714247999999998,
          "velocity": 0.6220472440944882
        },
        {
          "duration": 0.238094666666667,
          "durationTicks": 320,
          "midi": 70,
          "name": "A#4",
          "ticks": 21120,
          "time": 15.714247999999998,
          "velocity": 0.6220472440944882
        },
        {
          "duration": 0.14880916666666621,
          "durationTicks": 200,
          "midi": 60,
          "name": "C4",
          "ticks": 21600,
          "time": 16.071389999999997,
          "velocity": 0.6220472440944882
        },
        {
          "duration": 0.14880916666666621,
          "durationTicks": 200,
          "midi": 64,
          "name": "E4",
          "ticks": 21600,
          "time": 16.071389999999997,
          "velocity": 0.6220472440944882
        },
        {
          "duration": 0.14880916666666621,
          "durationTicks": 200,
          "midi": 67,
          "name": "G4",
          "ticks": 21600,
          "time": 16.071389999999997,
          "velocity": 0.6220472440944882
        },
        {
          "duration": 0.14880916666666621,
          "durationTicks": 200,
          "midi": 70,
          "name": "A#4",
          "ticks": 21600,
          "time": 16.071389999999997,
          "velocity": 0.6220472440944882
        },
        {
          "duration": 0.07440458333333311,
          "durationTicks": 100,
          "midi": 60,
          "name": "C4",
          "ticks": 21840,
          "time": 16.249961,
          "velocity": 0.6220472440944882
        },
        {
          "duration": 0.07440458333333311,
          "durationTicks": 100,
          "midi": 64,
          "name": "E4",
          "ticks": 21840,
          "time": 16.249961,
          "velocity": 0.6220472440944882
        },
        {
          "duration": 0.07440458333333311,
          "durationTicks": 100,
          "midi": 67,
          "name": "G4",
          "ticks": 21840,
          "time": 16.249961,
          "velocity": 0.6220472440944882
        },
        {
          "duration": 0.07440458333333311,
          "durationTicks": 100,
          "midi": 70,
          "name": "A#4",
          "ticks": 21840,
          "time": 16.249961,
          "velocity": 0.6220472440944882
        },
        {
          "duration": 0.11904733333333439,
          "durationTicks": 160,
          "midi": 60,
          "name": "C4",
          "ticks": 22080,
          "time": 16.428531999999997,
          "velocity": 0.6220472440944882
        },
        {
          "duration": 0.11904733333333439,
          "durationTicks": 160,
          "midi": 64,
          "name": "E4",
          "ticks": 22080,
          "time": 16.428531999999997,
          "velocity": 0.6220472440944882
        },
        {
          "duration": 0.11904733333333439,
          "durationTicks": 160,
          "midi": 67,
          "name": "G4",
          "ticks": 22080,
          "time": 16.428531999999997,
          "velocity": 0.6220472440944882
        },
        {
          "duration": 0.23809466666666523,
          "durationTicks": 320,
          "midi": 70,
          "name": "A#4",
          "ticks": 22080,
          "time": 16.428531999999997,
          "velocity": 0.6220472440944882
        },
        {
          "duration": 0.14880916666666621,
          "durationTicks": 200,
          "midi": 60,
          "name": "C4",
          "ticks": 22560,
          "time": 16.785673999999997,
          "velocity": 0.6220472440944882
        },
        {
          "duration": 0.14880916666666621,
          "durationTicks": 200,
          "midi": 64,
          "name": "E4",
          "ticks": 22560,
          "time": 16.785673999999997,
          "velocity": 0.6220472440944882
        },
        {
          "duration": 0.14880916666666621,
          "durationTicks": 200,
          "midi": 67,
          "name": "G4",
          "ticks": 22560,
          "time": 16.785673999999997,
          "velocity": 0.6220472440944882
        },
        {
          "duration": 0.14880916666666621,
          "durationTicks": 200,
          "midi": 70,
          "name": "A#4",
          "ticks": 22560,
          "time": 16.785673999999997,
          "velocity": 0.6220472440944882
        },
        {
          "duration": 0.07440458333333311,
          "durationTicks": 100,
          "midi": 60,
          "name": "C4",
          "ticks": 22800,
          "time": 16.964245,
          "velocity": 0.6220472440944882
        },
        {
          "duration": 0.07440458333333311,
          "durationTicks": 100,
          "midi": 64,
          "name": "E4",
          "ticks": 22800,
          "time": 16.964245,
          "velocity": 0.6220472440944882
        },
        {
          "duration": 0.07440458333333311,
          "durationTicks": 100,
          "midi": 67,
          "name": "G4",
          "ticks": 22800,
          "time": 16.964245,
          "velocity": 0.6220472440944882
        },
        {
          "duration": 0.07440458333333311,
          "durationTicks": 100,
          "midi": 70,
          "name": "A#4",
          "ticks": 22800,
          "time": 16.964245,
          "velocity": 0.6220472440944882
        },
        {
          "duration": 0.23809466666666879,
          "durationTicks": 320,
          "midi": 53,
          "name": "F3",
          "ticks": 23040,
          "time": 17.142815999999996,
          "velocity": 0.6220472440944882
        },
        {
          "duration": 0.23809466666666879,
          "durationTicks": 320,
          "midi": 60,
          "name": "C4",
          "ticks": 23040,
          "time": 17.142815999999996,
          "velocity": 0.6220472440944882
        },
        {
          "duration": 0.23809466666666879,
          "durationTicks": 320,
          "midi": 63,
          "name": "D#4",
          "ticks": 23040,
          "time": 17.142815999999996,
          "velocity": 0.6220472440944882
        },
        {
          "duration": 0.23809466666666879,
          "durationTicks": 320,
          "midi": 69,
          "name": "A4",
          "ticks": 23040,
          "time": 17.142815999999996,
          "velocity": 0.6220472440944882
        },
        {
          "duration": 0.23809466666666879,
          "durationTicks": 320,
          "midi": 72,
          "name": "C5",
          "ticks": 23040,
          "time": 17.142815999999996,
          "velocity": 0.6220472440944882
        },
        {
          "duration": 0.23809466666666879,
          "durationTicks": 320,
          "midi": 77,
          "name": "F5",
          "ticks": 23040,
          "time": 17.142815999999996,
          "velocity": 0.6220472440944882
        },
        {
          "duration": 0.14880916666666266,
          "durationTicks": 200,
          "midi": 63,
          "name": "D#4",
          "ticks": 23520,
          "time": 17.499958,
          "velocity": 0.6220472440944882
        },
        {
          "duration": 0.14880916666666266,
          "durationTicks": 200,
          "midi": 65,
          "name": "F4",
          "ticks": 23520,
          "time": 17.499958,
          "velocity": 0.6220472440944882
        },
        {
          "duration": 0.14880916666666266,
          "durationTicks": 200,
          "midi": 69,
          "name": "A4",
          "ticks": 23520,
          "time": 17.499958,
          "velocity": 0.6220472440944882
        },
        {
          "duration": 0.14880916666666266,
          "durationTicks": 200,
          "midi": 72,
          "name": "C5",
          "ticks": 23520,
          "time": 17.499958,
          "velocity": 0.6220472440944882
        },
        {
          "duration": 0.07440458333333311,
          "durationTicks": 100,
          "midi": 63,
          "name": "D#4",
          "ticks": 23760,
          "time": 17.678528999999997,
          "velocity": 0.6220472440944882
        },
        {
          "duration": 0.07440458333333311,
          "durationTicks": 100,
          "midi": 65,
          "name": "F4",
          "ticks": 23760,
          "time": 17.678528999999997,
          "velocity": 0.6220472440944882
        },
        {
          "duration": 0.07440458333333311,
          "durationTicks": 100,
          "midi": 69,
          "name": "A4",
          "ticks": 23760,
          "time": 17.678528999999997,
          "velocity": 0.6220472440944882
        },
        {
          "duration": 0.07440458333333311,
          "durationTicks": 100,
          "midi": 72,
          "name": "C5",
          "ticks": 23760,
          "time": 17.678528999999997,
          "velocity": 0.6220472440944882
        },
        {
          "duration": 0.23809466666666523,
          "durationTicks": 320,
          "midi": 63,
          "name": "D#4",
          "ticks": 24000,
          "time": 17.8571,
          "velocity": 0.6220472440944882
        },
        {
          "duration": 0.23809466666666523,
          "durationTicks": 320,
          "midi": 65,
          "name": "F4",
          "ticks": 24000,
          "time": 17.8571,
          "velocity": 0.6220472440944882
        },
        {
          "duration": 0.23809466666666523,
          "durationTicks": 320,
          "midi": 69,
          "name": "A4",
          "ticks": 24000,
          "time": 17.8571,
          "velocity": 0.6220472440944882
        },
        {
          "duration": 0.23809466666666523,
          "durationTicks": 320,
          "midi": 72,
          "name": "C5",
          "ticks": 24000,
          "time": 17.8571,
          "velocity": 0.6220472440944882
        },
        {
          "duration": 0.14880916666666621,
          "durationTicks": 200,
          "midi": 63,
          "name": "D#4",
          "ticks": 24480,
          "time": 18.214242,
          "velocity": 0.6220472440944882
        },
        {
          "duration": 0.14880916666666621,
          "durationTicks": 200,
          "midi": 65,
          "name": "F4",
          "ticks": 24480,
          "time": 18.214242,
          "velocity": 0.6220472440944882
        },
        {
          "duration": 0.14880916666666621,
          "durationTicks": 200,
          "midi": 69,
          "name": "A4",
          "ticks": 24480,
          "time": 18.214242,
          "velocity": 0.6220472440944882
        },
        {
          "duration": 0.14880916666666621,
          "durationTicks": 200,
          "midi": 72,
          "name": "C5",
          "ticks": 24480,
          "time": 18.214242,
          "velocity": 0.6220472440944882
        },
        {
          "duration": 0.07440458333333666,
          "durationTicks": 100,
          "midi": 63,
          "name": "D#4",
          "ticks": 24720,
          "time": 18.392812999999997,
          "velocity": 0.6220472440944882
        },
        {
          "duration": 0.07440458333333666,
          "durationTicks": 100,
          "midi": 65,
          "name": "F4",
          "ticks": 24720,
          "time": 18.392812999999997,
          "velocity": 0.6220472440944882
        },
        {
          "duration": 0.07440458333333666,
          "durationTicks": 100,
          "midi": 69,
          "name": "A4",
          "ticks": 24720,
          "time": 18.392812999999997,
          "velocity": 0.6220472440944882
        },
        {
          "duration": 0.07440458333333666,
          "durationTicks": 100,
          "midi": 72,
          "name": "C5",
          "ticks": 24720,
          "time": 18.392812999999997,
          "velocity": 0.6220472440944882
        },
        {
          "duration": 0.23809466666666523,
          "durationTicks": 320,
          "midi": 53,
          "name": "F3",
          "ticks": 24960,
          "time": 18.571384,
          "velocity": 0.6220472440944882
        },
        {
          "duration": 0.23809466666666523,
          "durationTicks": 320,
          "midi": 60,
          "name": "C4",
          "ticks": 24960,
          "time": 18.571384,
          "velocity": 0.6220472440944882
        },
        {
          "duration": 0.23809466666666523,
          "durationTicks": 320,
          "midi": 63,
          "name": "D#4",
          "ticks": 24960,
          "time": 18.571384,
          "velocity": 0.6220472440944882
        },
        {
          "duration": 0.23809466666666523,
          "durationTicks": 320,
          "midi": 69,
          "name": "A4",
          "ticks": 24960,
          "time": 18.571384,
          "velocity": 0.6220472440944882
        },
        {
          "duration": 0.23809466666666523,
          "durationTicks": 320,
          "midi": 72,
          "name": "C5",
          "ticks": 24960,
          "time": 18.571384,
          "velocity": 0.6220472440944882
        },
        {
          "duration": 0.23809466666666523,
          "durationTicks": 320,
          "midi": 77,
          "name": "F5",
          "ticks": 24960,
          "time": 18.571384,
          "velocity": 0.6220472440944882
        },
        {
          "duration": 0.14880916666666621,
          "durationTicks": 200,
          "midi": 63,
          "name": "D#4",
          "ticks": 25440,
          "time": 18.928525999999998,
          "velocity": 0.6220472440944882
        },
        {
          "duration": 0.14880916666666621,
          "durationTicks": 200,
          "midi": 65,
          "name": "F4",
          "ticks": 25440,
          "time": 18.928525999999998,
          "velocity": 0.6220472440944882
        },
        {
          "duration": 0.14880916666666621,
          "durationTicks": 200,
          "midi": 69,
          "name": "A4",
          "ticks": 25440,
          "time": 18.928525999999998,
          "velocity": 0.6220472440944882
        },
        {
          "duration": 0.14880916666666621,
          "durationTicks": 200,
          "midi": 72,
          "name": "C5",
          "ticks": 25440,
          "time": 18.928525999999998,
          "velocity": 0.6220472440944882
        },
        {
          "duration": 0.07440458333333311,
          "durationTicks": 100,
          "midi": 63,
          "name": "D#4",
          "ticks": 25680,
          "time": 19.107097,
          "velocity": 0.6220472440944882
        },
        {
          "duration": 0.07440458333333311,
          "durationTicks": 100,
          "midi": 65,
          "name": "F4",
          "ticks": 25680,
          "time": 19.107097,
          "velocity": 0.6220472440944882
        },
        {
          "duration": 0.07440458333333311,
          "durationTicks": 100,
          "midi": 69,
          "name": "A4",
          "ticks": 25680,
          "time": 19.107097,
          "velocity": 0.6220472440944882
        },
        {
          "duration": 0.07440458333333311,
          "durationTicks": 100,
          "midi": 72,
          "name": "C5",
          "ticks": 25680,
          "time": 19.107097,
          "velocity": 0.6220472440944882
        },
        {
          "duration": 0.23809466666666523,
          "durationTicks": 320,
          "midi": 63,
          "name": "D#4",
          "ticks": 25920,
          "time": 19.285667999999998,
          "velocity": 0.6220472440944882
        },
        {
          "duration": 0.23809466666666523,
          "durationTicks": 320,
          "midi": 65,
          "name": "F4",
          "ticks": 25920,
          "time": 19.285667999999998,
          "velocity": 0.6220472440944882
        },
        {
          "duration": 0.23809466666666523,
          "durationTicks": 320,
          "midi": 69,
          "name": "A4",
          "ticks": 25920,
          "time": 19.285667999999998,
          "velocity": 0.6220472440944882
        },
        {
          "duration": 0.23809466666666523,
          "durationTicks": 320,
          "midi": 72,
          "name": "C5",
          "ticks": 25920,
          "time": 19.285667999999998,
          "velocity": 0.6220472440944882
        },
        {
          "duration": 0.14880916666666621,
          "durationTicks": 200,
          "midi": 63,
          "name": "D#4",
          "ticks": 26400,
          "time": 19.642809999999997,
          "velocity": 0.6220472440944882
        },
        {
          "duration": 0.14880916666666621,
          "durationTicks": 200,
          "midi": 65,
          "name": "F4",
          "ticks": 26400,
          "time": 19.642809999999997,
          "velocity": 0.6220472440944882
        },
        {
          "duration": 0.14880916666666621,
          "durationTicks": 200,
          "midi": 69,
          "name": "A4",
          "ticks": 26400,
          "time": 19.642809999999997,
          "velocity": 0.6220472440944882
        },
        {
          "duration": 0.14880916666666621,
          "durationTicks": 200,
          "midi": 72,
          "name": "C5",
          "ticks": 26400,
          "time": 19.642809999999997,
          "velocity": 0.6220472440944882
        },
        {
          "duration": 0.07440458333333311,
          "durationTicks": 100,
          "midi": 63,
          "name": "D#4",
          "ticks": 26640,
          "time": 19.821381,
          "velocity": 0.6220472440944882
        },
        {
          "duration": 0.07440458333333311,
          "durationTicks": 100,
          "midi": 65,
          "name": "F4",
          "ticks": 26640,
          "time": 19.821381,
          "velocity": 0.6220472440944882
        },
        {
          "duration": 0.07440458333333311,
          "durationTicks": 100,
          "midi": 69,
          "name": "A4",
          "ticks": 26640,
          "time": 19.821381,
          "velocity": 0.6220472440944882
        },
        {
          "duration": 0.07440458333333311,
          "durationTicks": 100,
          "midi": 72,
          "name": "C5",
          "ticks": 26640,
          "time": 19.821381,
          "velocity": 0.6220472440944882
        },
        {
          "duration": 0.23809466666666523,
          "durationTicks": 320,
          "midi": 60,
          "name": "C4",
          "ticks": 26880,
          "time": 19.999951999999997,
          "velocity": 0.6220472440944882
        },
        {
          "duration": 0.23809466666666523,
          "durationTicks": 320,
          "midi": 64,
          "name": "E4",
          "ticks": 26880,
          "time": 19.999951999999997,
          "velocity": 0.6220472440944882
        },
        {
          "duration": 0.23809466666666523,
          "durationTicks": 320,
          "midi": 67,
          "name": "G4",
          "ticks": 26880,
          "time": 19.999951999999997,
          "velocity": 0.6220472440944882
        },
        {
          "duration": 0.23809466666666523,
          "durationTicks": 320,
          "midi": 70,
          "name": "A#4",
          "ticks": 26880,
          "time": 19.999951999999997,
          "velocity": 0.6220472440944882
        },
        {
          "duration": 0.15624962500000095,
          "durationTicks": 210,
          "midi": 60,
          "name": "C4",
          "ticks": 27360,
          "time": 20.357093999999996,
          "velocity": 0.6220472440944882
        },
        {
          "duration": 0.15624962500000095,
          "durationTicks": 210,
          "midi": 64,
          "name": "E4",
          "ticks": 27360,
          "time": 20.357093999999996,
          "velocity": 0.6220472440944882
        },
        {
          "duration": 0.15624962500000095,
          "durationTicks": 210,
          "midi": 67,
          "name": "G4",
          "ticks": 27360,
          "time": 20.357093999999996,
          "velocity": 0.6220472440944882
        },
        {
          "duration": 0.15624962500000095,
          "durationTicks": 210,
          "midi": 70,
          "name": "A#4",
          "ticks": 27360,
          "time": 20.357093999999996,
          "velocity": 0.6220472440944882
        },
        {
          "duration": 0.08184504166666429,
          "durationTicks": 110,
          "midi": 60,
          "name": "C4",
          "ticks": 27600,
          "time": 20.535664999999998,
          "velocity": 0.6220472440944882
        },
        {
          "duration": 0.08184504166666429,
          "durationTicks": 110,
          "midi": 64,
          "name": "E4",
          "ticks": 27600,
          "time": 20.535664999999998,
          "velocity": 0.6220472440944882
        },
        {
          "duration": 0.08184504166666429,
          "durationTicks": 110,
          "midi": 67,
          "name": "G4",
          "ticks": 27600,
          "time": 20.535664999999998,
          "velocity": 0.6220472440944882
        },
        {
          "duration": 0.08184504166666429,
          "durationTicks": 110,
          "midi": 70,
          "name": "A#4",
          "ticks": 27600,
          "time": 20.535664999999998,
          "velocity": 0.6220472440944882
        },
        {
          "duration": 0.11904733333333439,
          "durationTicks": 160,
          "midi": 60,
          "name": "C4",
          "ticks": 27840,
          "time": 20.714235999999996,
          "velocity": 0.6220472440944882
        },
        {
          "duration": 0.11904733333333439,
          "durationTicks": 160,
          "midi": 64,
          "name": "E4",
          "ticks": 27840,
          "time": 20.714235999999996,
          "velocity": 0.6220472440944882
        },
        {
          "duration": 0.11904733333333439,
          "durationTicks": 160,
          "midi": 67,
          "name": "G4",
          "ticks": 27840,
          "time": 20.714235999999996,
          "velocity": 0.6220472440944882
        },
        {
          "duration": 0.23809466666666879,
          "durationTicks": 320,
          "midi": 70,
          "name": "A#4",
          "ticks": 27840,
          "time": 20.714235999999996,
          "velocity": 0.6220472440944882
        },
        {
          "duration": 0.1562496249999974,
          "durationTicks": 210,
          "midi": 60,
          "name": "C4",
          "ticks": 28320,
          "time": 21.071378,
          "velocity": 0.6220472440944882
        },
        {
          "duration": 0.1562496249999974,
          "durationTicks": 210,
          "midi": 64,
          "name": "E4",
          "ticks": 28320,
          "time": 21.071378,
          "velocity": 0.6220472440944882
        },
        {
          "duration": 0.1562496249999974,
          "durationTicks": 210,
          "midi": 67,
          "name": "G4",
          "ticks": 28320,
          "time": 21.071378,
          "velocity": 0.6220472440944882
        },
        {
          "duration": 0.1562496249999974,
          "durationTicks": 210,
          "midi": 70,
          "name": "A#4",
          "ticks": 28320,
          "time": 21.071378,
          "velocity": 0.6220472440944882
        },
        {
          "duration": 0.08184504166666784,
          "durationTicks": 110,
          "midi": 60,
          "name": "C4",
          "ticks": 28560,
          "time": 21.249948999999997,
          "velocity": 0.6220472440944882
        },
        {
          "duration": 0.08184504166666784,
          "durationTicks": 110,
          "midi": 64,
          "name": "E4",
          "ticks": 28560,
          "time": 21.249948999999997,
          "velocity": 0.6220472440944882
        },
        {
          "duration": 0.08184504166666784,
          "durationTicks": 110,
          "midi": 67,
          "name": "G4",
          "ticks": 28560,
          "time": 21.249948999999997,
          "velocity": 0.6220472440944882
        },
        {
          "duration": 0.08184504166666784,
          "durationTicks": 110,
          "midi": 70,
          "name": "A#4",
          "ticks": 28560,
          "time": 21.249948999999997,
          "velocity": 0.6220472440944882
        },
        {
          "duration": 0.23809466666666523,
          "durationTicks": 320,
          "midi": 60,
          "name": "C4",
          "ticks": 28800,
          "time": 21.42852,
          "velocity": 0.6220472440944882
        },
        {
          "duration": 0.23809466666666523,
          "durationTicks": 320,
          "midi": 64,
          "name": "E4",
          "ticks": 28800,
          "time": 21.42852,
          "velocity": 0.6220472440944882
        },
        {
          "duration": 0.23809466666666523,
          "durationTicks": 320,
          "midi": 67,
          "name": "G4",
          "ticks": 28800,
          "time": 21.42852,
          "velocity": 0.6220472440944882
        },
        {
          "duration": 0.23809466666666523,
          "durationTicks": 320,
          "midi": 70,
          "name": "A#4",
          "ticks": 28800,
          "time": 21.42852,
          "velocity": 0.6220472440944882
        },
        {
          "duration": 0.1562496249999974,
          "durationTicks": 210,
          "midi": 60,
          "name": "C4",
          "ticks": 29280,
          "time": 21.785662,
          "velocity": 0.6220472440944882
        },
        {
          "duration": 0.1562496249999974,
          "durationTicks": 210,
          "midi": 64,
          "name": "E4",
          "ticks": 29280,
          "time": 21.785662,
          "velocity": 0.6220472440944882
        },
        {
          "duration": 0.1562496249999974,
          "durationTicks": 210,
          "midi": 67,
          "name": "G4",
          "ticks": 29280,
          "time": 21.785662,
          "velocity": 0.6220472440944882
        },
        {
          "duration": 0.1562496249999974,
          "durationTicks": 210,
          "midi": 70,
          "name": "A#4",
          "ticks": 29280,
          "time": 21.785662,
          "velocity": 0.6220472440944882
        },
        {
          "duration": 0.08184504166666784,
          "durationTicks": 110,
          "midi": 60,
          "name": "C4",
          "ticks": 29520,
          "time": 21.964232999999997,
          "velocity": 0.6220472440944882
        },
        {
          "duration": 0.08184504166666784,
          "durationTicks": 110,
          "midi": 64,
          "name": "E4",
          "ticks": 29520,
          "time": 21.964232999999997,
          "velocity": 0.6220472440944882
        },
        {
          "duration": 0.08184504166666784,
          "durationTicks": 110,
          "midi": 67,
          "name": "G4",
          "ticks": 29520,
          "time": 21.964232999999997,
          "velocity": 0.6220472440944882
        },
        {
          "duration": 0.08184504166666784,
          "durationTicks": 110,
          "midi": 70,
          "name": "A#4",
          "ticks": 29520,
          "time": 21.964232999999997,
          "velocity": 0.6220472440944882
        },
        {
          "duration": 0.11904733333333439,
          "durationTicks": 160,
          "midi": 60,
          "name": "C4",
          "ticks": 29760,
          "time": 22.142803999999998,
          "velocity": 0.6220472440944882
        },
        {
          "duration": 0.11904733333333439,
          "durationTicks": 160,
          "midi": 64,
          "name": "E4",
          "ticks": 29760,
          "time": 22.142803999999998,
          "velocity": 0.6220472440944882
        },
        {
          "duration": 0.11904733333333439,
          "durationTicks": 160,
          "midi": 67,
          "name": "G4",
          "ticks": 29760,
          "time": 22.142803999999998,
          "velocity": 0.6220472440944882
        },
        {
          "duration": 0.23809466666666523,
          "durationTicks": 320,
          "midi": 70,
          "name": "A#4",
          "ticks": 29760,
          "time": 22.142803999999998,
          "velocity": 0.6220472440944882
        },
        {
          "duration": 0.15624962500000095,
          "durationTicks": 210,
          "midi": 60,
          "name": "C4",
          "ticks": 30240,
          "time": 22.499945999999998,
          "velocity": 0.6220472440944882
        },
        {
          "duration": 0.15624962500000095,
          "durationTicks": 210,
          "midi": 64,
          "name": "E4",
          "ticks": 30240,
          "time": 22.499945999999998,
          "velocity": 0.6220472440944882
        },
        {
          "duration": 0.15624962500000095,
          "durationTicks": 210,
          "midi": 67,
          "name": "G4",
          "ticks": 30240,
          "time": 22.499945999999998,
          "velocity": 0.6220472440944882
        },
        {
          "duration": 0.15624962500000095,
          "durationTicks": 210,
          "midi": 70,
          "name": "A#4",
          "ticks": 30240,
          "time": 22.499945999999998,
          "velocity": 0.6220472440944882
        },
        {
          "duration": 0.08184504166666784,
          "durationTicks": 110,
          "midi": 60,
          "name": "C4",
          "ticks": 30480,
          "time": 22.678516999999996,
          "velocity": 0.6220472440944882
        },
        {
          "duration": 0.08184504166666784,
          "durationTicks": 110,
          "midi": 64,
          "name": "E4",
          "ticks": 30480,
          "time": 22.678516999999996,
          "velocity": 0.6220472440944882
        },
        {
          "duration": 0.08184504166666784,
          "durationTicks": 110,
          "midi": 67,
          "name": "G4",
          "ticks": 30480,
          "time": 22.678516999999996,
          "velocity": 0.6220472440944882
        },
        {
          "duration": 0.08184504166666784,
          "durationTicks": 110,
          "midi": 70,
          "name": "A#4",
          "ticks": 30480,
          "time": 22.678516999999996,
          "velocity": 0.6220472440944882
        },
        {
          "duration": 0.23809466666666879,
          "durationTicks": 320,
          "midi": 62,
          "name": "D4",
          "ticks": 30720,
          "time": 22.857087999999997,
          "velocity": 0.6220472440944882
        },
        {
          "duration": 0.23809466666666879,
          "durationTicks": 320,
          "midi": 67,
          "name": "G4",
          "ticks": 30720,
          "time": 22.857087999999997,
          "velocity": 0.6220472440944882
        },
        {
          "duration": 0.23809466666666879,
          "durationTicks": 320,
          "midi": 71,
          "name": "B4",
          "ticks": 30720,
          "time": 22.857087999999997,
          "velocity": 0.6220472440944882
        },
        {
          "duration": 0.14880916666666977,
          "durationTicks": 200,
          "midi": 62,
          "name": "D4",
          "ticks": 31200,
          "time": 23.214229999999997,
          "velocity": 0.6220472440944882
        },
        {
          "duration": 0.14880916666666977,
          "durationTicks": 200,
          "midi": 67,
          "name": "G4",
          "ticks": 31200,
          "time": 23.214229999999997,
          "velocity": 0.6220472440944882
        },
        {
          "duration": 0.14880916666666977,
          "durationTicks": 200,
          "midi": 71,
          "name": "B4",
          "ticks": 31200,
          "time": 23.214229999999997,
          "velocity": 0.6220472440944882
        },
        {
          "duration": 0.07440458333332955,
          "durationTicks": 100,
          "midi": 62,
          "name": "D4",
          "ticks": 31440,
          "time": 23.392801,
          "velocity": 0.6220472440944882
        },
        {
          "duration": 0.07440458333332955,
          "durationTicks": 100,
          "midi": 67,
          "name": "G4",
          "ticks": 31440,
          "time": 23.392801,
          "velocity": 0.6220472440944882
        },
        {
          "duration": 0.07440458333332955,
          "durationTicks": 100,
          "midi": 71,
          "name": "B4",
          "ticks": 31440,
          "time": 23.392801,
          "velocity": 0.6220472440944882
        },
        {
          "duration": 0.23809466666666879,
          "durationTicks": 320,
          "midi": 62,
          "name": "D4",
          "ticks": 31680,
          "time": 23.571371999999997,
          "velocity": 0.6220472440944882
        },
        {
          "duration": 0.23809466666666879,
          "durationTicks": 320,
          "midi": 67,
          "name": "G4",
          "ticks": 31680,
          "time": 23.571371999999997,
          "velocity": 0.6220472440944882
        },
        {
          "duration": 0.23809466666666879,
          "durationTicks": 320,
          "midi": 71,
          "name": "B4",
          "ticks": 31680,
          "time": 23.571371999999997,
          "velocity": 0.6220472440944882
        },
        {
          "duration": 0.14880916666666977,
          "durationTicks": 200,
          "midi": 62,
          "name": "D4",
          "ticks": 32160,
          "time": 23.928513999999996,
          "velocity": 0.6220472440944882
        },
        {
          "duration": 0.14880916666666977,
          "durationTicks": 200,
          "midi": 67,
          "name": "G4",
          "ticks": 32160,
          "time": 23.928513999999996,
          "velocity": 0.6220472440944882
        },
        {
          "duration": 0.14880916666666977,
          "durationTicks": 200,
          "midi": 71,
          "name": "B4",
          "ticks": 32160,
          "time": 23.928513999999996,
          "velocity": 0.6220472440944882
        },
        {
          "duration": 0.07440458333332955,
          "durationTicks": 100,
          "midi": 62,
          "name": "D4",
          "ticks": 32400,
          "time": 24.107084999999998,
          "velocity": 0.6220472440944882
        },
        {
          "duration": 0.07440458333332955,
          "durationTicks": 100,
          "midi": 67,
          "name": "G4",
          "ticks": 32400,
          "time": 24.107084999999998,
          "velocity": 0.6220472440944882
        },
        {
          "duration": 0.07440458333332955,
          "durationTicks": 100,
          "midi": 71,
          "name": "B4",
          "ticks": 32400,
          "time": 24.107084999999998,
          "velocity": 0.6220472440944882
        },
        {
          "duration": 0.23809466666666879,
          "durationTicks": 320,
          "midi": 63,
          "name": "D#4",
          "ticks": 32640,
          "time": 24.285655999999996,
          "velocity": 0.6220472440944882
        },
        {
          "duration": 0.23809466666666879,
          "durationTicks": 320,
          "midi": 65,
          "name": "F4",
          "ticks": 32640,
          "time": 24.285655999999996,
          "velocity": 0.6220472440944882
        },
        {
          "duration": 0.23809466666666879,
          "durationTicks": 320,
          "midi": 69,
          "name": "A4",
          "ticks": 32640,
          "time": 24.285655999999996,
          "velocity": 0.6220472440944882
        },
        {
          "duration": 0.23809466666666879,
          "durationTicks": 320,
          "midi": 72,
          "name": "C5",
          "ticks": 32640,
          "time": 24.285655999999996,
          "velocity": 0.6220472440944882
        },
        {
          "duration": 0.23809466666666879,
          "durationTicks": 320,
          "midi": 63,
          "name": "D#4",
          "ticks": 34560,
          "time": 25.714223999999998,
          "velocity": 0.6220472440944882
        },
        {
          "duration": 0.23809466666666879,
          "durationTicks": 320,
          "midi": 65,
          "name": "F4",
          "ticks": 34560,
          "time": 25.714223999999998,
          "velocity": 0.6220472440944882
        },
        {
          "duration": 0.23809466666666879,
          "durationTicks": 320,
          "midi": 69,
          "name": "A4",
          "ticks": 34560,
          "time": 25.714223999999998,
          "velocity": 0.6220472440944882
        },
        {
          "duration": 0.23809466666666879,
          "durationTicks": 320,
          "midi": 72,
          "name": "C5",
          "ticks": 34560,
          "time": 25.714223999999998,
          "velocity": 0.6220472440944882
        },
        {
          "duration": 0.14880916666666621,
          "durationTicks": 200,
          "midi": 63,
          "name": "D#4",
          "ticks": 35040,
          "time": 26.071365999999998,
          "velocity": 0.6220472440944882
        },
        {
          "duration": 0.14880916666666621,
          "durationTicks": 200,
          "midi": 65,
          "name": "F4",
          "ticks": 35040,
          "time": 26.071365999999998,
          "velocity": 0.6220472440944882
        },
        {
          "duration": 0.14880916666666621,
          "durationTicks": 200,
          "midi": 69,
          "name": "A4",
          "ticks": 35040,
          "time": 26.071365999999998,
          "velocity": 0.6220472440944882
        },
        {
          "duration": 0.14880916666666621,
          "durationTicks": 200,
          "midi": 72,
          "name": "C5",
          "ticks": 35040,
          "time": 26.071365999999998,
          "velocity": 0.6220472440944882
        },
        {
          "duration": 0.07440458333333311,
          "durationTicks": 100,
          "midi": 63,
          "name": "D#4",
          "ticks": 35280,
          "time": 26.249936999999996,
          "velocity": 0.6220472440944882
        },
        {
          "duration": 0.07440458333333311,
          "durationTicks": 100,
          "midi": 65,
          "name": "F4",
          "ticks": 35280,
          "time": 26.249936999999996,
          "velocity": 0.6220472440944882
        },
        {
          "duration": 0.07440458333333311,
          "durationTicks": 100,
          "midi": 69,
          "name": "A4",
          "ticks": 35280,
          "time": 26.249936999999996,
          "velocity": 0.6220472440944882
        },
        {
          "duration": 0.07440458333333311,
          "durationTicks": 100,
          "midi": 72,
          "name": "C5",
          "ticks": 35280,
          "time": 26.249936999999996,
          "velocity": 0.6220472440944882
        },
        {
          "duration": 0.23809466666666879,
          "durationTicks": 320,
          "midi": 63,
          "name": "D#4",
          "ticks": 35520,
          "time": 26.428507999999997,
          "velocity": 0.6220472440944882
        },
        {
          "duration": 0.23809466666666879,
          "durationTicks": 320,
          "midi": 65,
          "name": "F4",
          "ticks": 35520,
          "time": 26.428507999999997,
          "velocity": 0.6220472440944882
        },
        {
          "duration": 0.23809466666666879,
          "durationTicks": 320,
          "midi": 69,
          "name": "A4",
          "ticks": 35520,
          "time": 26.428507999999997,
          "velocity": 0.6220472440944882
        },
        {
          "duration": 0.23809466666666879,
          "durationTicks": 320,
          "midi": 72,
          "name": "C5",
          "ticks": 35520,
          "time": 26.428507999999997,
          "velocity": 0.6220472440944882
        },
        {
          "duration": 0.14880916666666977,
          "durationTicks": 200,
          "midi": 63,
          "name": "D#4",
          "ticks": 36000,
          "time": 26.785649999999997,
          "velocity": 0.6220472440944882
        },
        {
          "duration": 0.14880916666666977,
          "durationTicks": 200,
          "midi": 65,
          "name": "F4",
          "ticks": 36000,
          "time": 26.785649999999997,
          "velocity": 0.6220472440944882
        },
        {
          "duration": 0.14880916666666977,
          "durationTicks": 200,
          "midi": 69,
          "name": "A4",
          "ticks": 36000,
          "time": 26.785649999999997,
          "velocity": 0.6220472440944882
        },
        {
          "duration": 0.14880916666666977,
          "durationTicks": 200,
          "midi": 72,
          "name": "C5",
          "ticks": 36000,
          "time": 26.785649999999997,
          "velocity": 0.6220472440944882
        },
        {
          "duration": 0.07440458333332955,
          "durationTicks": 100,
          "midi": 63,
          "name": "D#4",
          "ticks": 36240,
          "time": 26.964221,
          "velocity": 0.6220472440944882
        },
        {
          "duration": 0.07440458333332955,
          "durationTicks": 100,
          "midi": 65,
          "name": "F4",
          "ticks": 36240,
          "time": 26.964221,
          "velocity": 0.6220472440944882
        },
        {
          "duration": 0.07440458333332955,
          "durationTicks": 100,
          "midi": 69,
          "name": "A4",
          "ticks": 36240,
          "time": 26.964221,
          "velocity": 0.6220472440944882
        },
        {
          "duration": 0.07440458333332955,
          "durationTicks": 100,
          "midi": 72,
          "name": "C5",
          "ticks": 36240,
          "time": 26.964221,
          "velocity": 0.6220472440944882
        },
        {
          "duration": 0.23809466666666879,
          "durationTicks": 320,
          "midi": 60,
          "name": "C4",
          "ticks": 36480,
          "time": 27.142791999999996,
          "velocity": 0.6220472440944882
        },
        {
          "duration": 0.23809466666666879,
          "durationTicks": 320,
          "midi": 64,
          "name": "E4",
          "ticks": 36480,
          "time": 27.142791999999996,
          "velocity": 0.6220472440944882
        },
        {
          "duration": 0.23809466666666879,
          "durationTicks": 320,
          "midi": 67,
          "name": "G4",
          "ticks": 36480,
          "time": 27.142791999999996,
          "velocity": 0.6220472440944882
        },
        {
          "duration": 0.14880916666666977,
          "durationTicks": 200,
          "midi": 60,
          "name": "C4",
          "ticks": 36960,
          "time": 27.499933999999996,
          "velocity": 0.6220472440944882
        },
        {
          "duration": 0.14880916666666977,
          "durationTicks": 200,
          "midi": 64,
          "name": "E4",
          "ticks": 36960,
          "time": 27.499933999999996,
          "velocity": 0.6220472440944882
        },
        {
          "duration": 0.14880916666666977,
          "durationTicks": 200,
          "midi": 67,
          "name": "G4",
          "ticks": 36960,
          "time": 27.499933999999996,
          "velocity": 0.6220472440944882
        },
        {
          "duration": 0.07440458333332955,
          "durationTicks": 100,
          "midi": 60,
          "name": "C4",
          "ticks": 37200,
          "time": 27.678504999999998,
          "velocity": 0.6220472440944882
        },
        {
          "duration": 0.07440458333332955,
          "durationTicks": 100,
          "midi": 64,
          "name": "E4",
          "ticks": 37200,
          "time": 27.678504999999998,
          "velocity": 0.6220472440944882
        },
        {
          "duration": 0.07440458333332955,
          "durationTicks": 100,
          "midi": 67,
          "name": "G4",
          "ticks": 37200,
          "time": 27.678504999999998,
          "velocity": 0.6220472440944882
        },
        {
          "duration": 0.23809466666666879,
          "durationTicks": 320,
          "midi": 60,
          "name": "C4",
          "ticks": 37440,
          "time": 27.857075999999996,
          "velocity": 0.6220472440944882
        },
        {
          "duration": 0.23809466666666879,
          "durationTicks": 320,
          "midi": 64,
          "name": "E4",
          "ticks": 37440,
          "time": 27.857075999999996,
          "velocity": 0.6220472440944882
        },
        {
          "duration": 0.23809466666666879,
          "durationTicks": 320,
          "midi": 67,
          "name": "G4",
          "ticks": 37440,
          "time": 27.857075999999996,
          "velocity": 0.6220472440944882
        },
        {
          "duration": 0.14880916666666977,
          "durationTicks": 200,
          "midi": 60,
          "name": "C4",
          "ticks": 37920,
          "time": 28.214217999999995,
          "velocity": 0.6220472440944882
        },
        {
          "duration": 0.14880916666666977,
          "durationTicks": 200,
          "midi": 64,
          "name": "E4",
          "ticks": 37920,
          "time": 28.214217999999995,
          "velocity": 0.6220472440944882
        },
        {
          "duration": 0.14880916666666977,
          "durationTicks": 200,
          "midi": 67,
          "name": "G4",
          "ticks": 37920,
          "time": 28.214217999999995,
          "velocity": 0.6220472440944882
        },
        {
          "duration": 0.07440458333333311,
          "durationTicks": 100,
          "midi": 60,
          "name": "C4",
          "ticks": 38160,
          "time": 28.392788999999997,
          "velocity": 0.6220472440944882
        },
        {
          "duration": 0.07440458333333311,
          "durationTicks": 100,
          "midi": 64,
          "name": "E4",
          "ticks": 38160,
          "time": 28.392788999999997,
          "velocity": 0.6220472440944882
        },
        {
          "duration": 0.07440458333333311,
          "durationTicks": 100,
          "midi": 67,
          "name": "G4",
          "ticks": 38160,
          "time": 28.392788999999997,
          "velocity": 0.6220472440944882
        },
        {
          "duration": 0.23809466666666523,
          "durationTicks": 320,
          "midi": 64,
          "name": "E4",
          "ticks": 38400,
          "time": 28.57136,
          "velocity": 0.6220472440944882
        },
        {
          "duration": 0.23809466666666523,
          "durationTicks": 320,
          "midi": 67,
          "name": "G4",
          "ticks": 38400,
          "time": 28.57136,
          "velocity": 0.6220472440944882
        },
        {
          "duration": 0.23809466666666523,
          "durationTicks": 320,
          "midi": 70,
          "name": "A#4",
          "ticks": 38400,
          "time": 28.57136,
          "velocity": 0.6220472440944882
        },
        {
          "duration": 0.23809466666666523,
          "durationTicks": 320,
          "midi": 72,
          "name": "C5",
          "ticks": 38400,
          "time": 28.57136,
          "velocity": 0.6220472440944882
        },
        {
          "duration": 0.23809466666666523,
          "durationTicks": 320,
          "midi": 76,
          "name": "E5",
          "ticks": 38400,
          "time": 28.57136,
          "velocity": 0.6220472440944882
        },
        {
          "duration": 0.1562496249999974,
          "durationTicks": 210,
          "midi": 60,
          "name": "C4",
          "ticks": 38880,
          "time": 28.928501999999998,
          "velocity": 0.6220472440944882
        },
        {
          "duration": 0.1562496249999974,
          "durationTicks": 210,
          "midi": 64,
          "name": "E4",
          "ticks": 38880,
          "time": 28.928501999999998,
          "velocity": 0.6220472440944882
        },
        {
          "duration": 0.1562496249999974,
          "durationTicks": 210,
          "midi": 67,
          "name": "G4",
          "ticks": 38880,
          "time": 28.928501999999998,
          "velocity": 0.6220472440944882
        },
        {
          "duration": 0.1562496249999974,
          "durationTicks": 210,
          "midi": 70,
          "name": "A#4",
          "ticks": 38880,
          "time": 28.928501999999998,
          "velocity": 0.6220472440944882
        },
        {
          "duration": 0.07440458333333311,
          "durationTicks": 100,
          "midi": 60,
          "name": "C4",
          "ticks": 39120,
          "time": 29.107072999999996,
          "velocity": 0.6220472440944882
        },
        {
          "duration": 0.07440458333333311,
          "durationTicks": 100,
          "midi": 64,
          "name": "E4",
          "ticks": 39120,
          "time": 29.107072999999996,
          "velocity": 0.6220472440944882
        },
        {
          "duration": 0.07440458333333311,
          "durationTicks": 100,
          "midi": 67,
          "name": "G4",
          "ticks": 39120,
          "time": 29.107072999999996,
          "velocity": 0.6220472440944882
        },
        {
          "duration": 0.07440458333333311,
          "durationTicks": 100,
          "midi": 70,
          "name": "A#4",
          "ticks": 39120,
          "time": 29.107072999999996,
          "velocity": 0.6220472440944882
        },
        {
          "duration": 0.11904733333333084,
          "durationTicks": 160,
          "midi": 60,
          "name": "C4",
          "ticks": 39360,
          "time": 29.285643999999998,
          "velocity": 0.6220472440944882
        },
        {
          "duration": 0.11904733333333084,
          "durationTicks": 160,
          "midi": 64,
          "name": "E4",
          "ticks": 39360,
          "time": 29.285643999999998,
          "velocity": 0.6220472440944882
        },
        {
          "duration": 0.11904733333333084,
          "durationTicks": 160,
          "midi": 67,
          "name": "G4",
          "ticks": 39360,
          "time": 29.285643999999998,
          "velocity": 0.6220472440944882
        },
        {
          "duration": 0.23809466666666879,
          "durationTicks": 320,
          "midi": 70,
          "name": "A#4",
          "ticks": 39360,
          "time": 29.285643999999998,
          "velocity": 0.6220472440944882
        },
        {
          "duration": 0.15624962500000095,
          "durationTicks": 210,
          "midi": 60,
          "name": "C4",
          "ticks": 39840,
          "time": 29.642785999999997,
          "velocity": 0.6220472440944882
        },
        {
          "duration": 0.15624962500000095,
          "durationTicks": 210,
          "midi": 64,
          "name": "E4",
          "ticks": 39840,
          "time": 29.642785999999997,
          "velocity": 0.6220472440944882
        },
        {
          "duration": 0.15624962500000095,
          "durationTicks": 210,
          "midi": 67,
          "name": "G4",
          "ticks": 39840,
          "time": 29.642785999999997,
          "velocity": 0.6220472440944882
        },
        {
          "duration": 0.15624962500000095,
          "durationTicks": 210,
          "midi": 70,
          "name": "A#4",
          "ticks": 39840,
          "time": 29.642785999999997,
          "velocity": 0.6220472440944882
        },
        {
          "duration": 0.07440458333333311,
          "durationTicks": 100,
          "midi": 60,
          "name": "C4",
          "ticks": 40080,
          "time": 29.821356999999995,
          "velocity": 0.6220472440944882
        },
        {
          "duration": 0.07440458333333311,
          "durationTicks": 100,
          "midi": 64,
          "name": "E4",
          "ticks": 40080,
          "time": 29.821356999999995,
          "velocity": 0.6220472440944882
        },
        {
          "duration": 0.07440458333333311,
          "durationTicks": 100,
          "midi": 67,
          "name": "G4",
          "ticks": 40080,
          "time": 29.821356999999995,
          "velocity": 0.6220472440944882
        },
        {
          "duration": 0.07440458333333311,
          "durationTicks": 100,
          "midi": 70,
          "name": "A#4",
          "ticks": 40080,
          "time": 29.821356999999995,
          "velocity": 0.6220472440944882
        },
        {
          "duration": 0.23809466666666879,
          "durationTicks": 320,
          "midi": 64,
          "name": "E4",
          "ticks": 40320,
          "time": 29.999927999999997,
          "velocity": 0.6220472440944882
        },
        {
          "duration": 0.23809466666666879,
          "durationTicks": 320,
          "midi": 67,
          "name": "G4",
          "ticks": 40320,
          "time": 29.999927999999997,
          "velocity": 0.6220472440944882
        },
        {
          "duration": 0.23809466666666879,
          "durationTicks": 320,
          "midi": 70,
          "name": "A#4",
          "ticks": 40320,
          "time": 29.999927999999997,
          "velocity": 0.6220472440944882
        },
        {
          "duration": 0.23809466666666879,
          "durationTicks": 320,
          "midi": 72,
          "name": "C5",
          "ticks": 40320,
          "time": 29.999927999999997,
          "velocity": 0.6220472440944882
        },
        {
          "duration": 0.23809466666666879,
          "durationTicks": 320,
          "midi": 76,
          "name": "E5",
          "ticks": 40320,
          "time": 29.999927999999997,
          "velocity": 0.6220472440944882
        },
        {
          "duration": 0.15624962500000095,
          "durationTicks": 210,
          "midi": 60,
          "name": "C4",
          "ticks": 40800,
          "time": 30.357069999999997,
          "velocity": 0.6220472440944882
        },
        {
          "duration": 0.15624962500000095,
          "durationTicks": 210,
          "midi": 64,
          "name": "E4",
          "ticks": 40800,
          "time": 30.357069999999997,
          "velocity": 0.6220472440944882
        },
        {
          "duration": 0.15624962500000095,
          "durationTicks": 210,
          "midi": 67,
          "name": "G4",
          "ticks": 40800,
          "time": 30.357069999999997,
          "velocity": 0.6220472440944882
        },
        {
          "duration": 0.15624962500000095,
          "durationTicks": 210,
          "midi": 70,
          "name": "A#4",
          "ticks": 40800,
          "time": 30.357069999999997,
          "velocity": 0.6220472440944882
        },
        {
          "duration": 0.07440458333332955,
          "durationTicks": 100,
          "midi": 60,
          "name": "C4",
          "ticks": 41040,
          "time": 30.535641,
          "velocity": 0.6220472440944882
        },
        {
          "duration": 0.07440458333332955,
          "durationTicks": 100,
          "midi": 64,
          "name": "E4",
          "ticks": 41040,
          "time": 30.535641,
          "velocity": 0.6220472440944882
        },
        {
          "duration": 0.07440458333332955,
          "durationTicks": 100,
          "midi": 67,
          "name": "G4",
          "ticks": 41040,
          "time": 30.535641,
          "velocity": 0.6220472440944882
        },
        {
          "duration": 0.07440458333332955,
          "durationTicks": 100,
          "midi": 70,
          "name": "A#4",
          "ticks": 41040,
          "time": 30.535641,
          "velocity": 0.6220472440944882
        },
        {
          "duration": 0.11904733333333084,
          "durationTicks": 160,
          "midi": 60,
          "name": "C4",
          "ticks": 41280,
          "time": 30.714211999999996,
          "velocity": 0.6220472440944882
        },
        {
          "duration": 0.11904733333333084,
          "durationTicks": 160,
          "midi": 64,
          "name": "E4",
          "ticks": 41280,
          "time": 30.714211999999996,
          "velocity": 0.6220472440944882
        },
        {
          "duration": 0.11904733333333084,
          "durationTicks": 160,
          "midi": 67,
          "name": "G4",
          "ticks": 41280,
          "time": 30.714211999999996,
          "velocity": 0.6220472440944882
        },
        {
          "duration": 0.23809466666666879,
          "durationTicks": 320,
          "midi": 70,
          "name": "A#4",
          "ticks": 41280,
          "time": 30.714211999999996,
          "velocity": 0.6220472440944882
        },
        {
          "duration": 0.15624962500000095,
          "durationTicks": 210,
          "midi": 60,
          "name": "C4",
          "ticks": 41760,
          "time": 31.071353999999996,
          "velocity": 0.6220472440944882
        },
        {
          "duration": 0.15624962500000095,
          "durationTicks": 210,
          "midi": 64,
          "name": "E4",
          "ticks": 41760,
          "time": 31.071353999999996,
          "velocity": 0.6220472440944882
        },
        {
          "duration": 0.15624962500000095,
          "durationTicks": 210,
          "midi": 67,
          "name": "G4",
          "ticks": 41760,
          "time": 31.071353999999996,
          "velocity": 0.6220472440944882
        },
        {
          "duration": 0.15624962500000095,
          "durationTicks": 210,
          "midi": 70,
          "name": "A#4",
          "ticks": 41760,
          "time": 31.071353999999996,
          "velocity": 0.6220472440944882
        },
        {
          "duration": 0.07440458333332955,
          "durationTicks": 100,
          "midi": 60,
          "name": "C4",
          "ticks": 42000,
          "time": 31.249924999999998,
          "velocity": 0.6220472440944882
        },
        {
          "duration": 0.07440458333332955,
          "durationTicks": 100,
          "midi": 64,
          "name": "E4",
          "ticks": 42000,
          "time": 31.249924999999998,
          "velocity": 0.6220472440944882
        },
        {
          "duration": 0.07440458333332955,
          "durationTicks": 100,
          "midi": 67,
          "name": "G4",
          "ticks": 42000,
          "time": 31.249924999999998,
          "velocity": 0.6220472440944882
        },
        {
          "duration": 0.07440458333332955,
          "durationTicks": 100,
          "midi": 70,
          "name": "A#4",
          "ticks": 42000,
          "time": 31.249924999999998,
          "velocity": 0.6220472440944882
        },
        {
          "duration": 0.23809466666666879,
          "durationTicks": 320,
          "midi": 64,
          "name": "E4",
          "ticks": 42240,
          "time": 31.428495999999996,
          "velocity": 0.6220472440944882
        },
        {
          "duration": 0.23809466666666879,
          "durationTicks": 320,
          "midi": 67,
          "name": "G4",
          "ticks": 42240,
          "time": 31.428495999999996,
          "velocity": 0.6220472440944882
        },
        {
          "duration": 0.23809466666666879,
          "durationTicks": 320,
          "midi": 70,
          "name": "A#4",
          "ticks": 42240,
          "time": 31.428495999999996,
          "velocity": 0.6220472440944882
        },
        {
          "duration": 0.23809466666666879,
          "durationTicks": 320,
          "midi": 72,
          "name": "C5",
          "ticks": 42240,
          "time": 31.428495999999996,
          "velocity": 0.6220472440944882
        },
        {
          "duration": 0.23809466666666879,
          "durationTicks": 320,
          "midi": 76,
          "name": "E5",
          "ticks": 42240,
          "time": 31.428495999999996,
          "velocity": 0.6220472440944882
        },
        {
          "duration": 0.15624962500000095,
          "durationTicks": 210,
          "midi": 60,
          "name": "C4",
          "ticks": 42720,
          "time": 31.785637999999995,
          "velocity": 0.6220472440944882
        },
        {
          "duration": 0.15624962500000095,
          "durationTicks": 210,
          "midi": 64,
          "name": "E4",
          "ticks": 42720,
          "time": 31.785637999999995,
          "velocity": 0.6220472440944882
        },
        {
          "duration": 0.15624962500000095,
          "durationTicks": 210,
          "midi": 67,
          "name": "G4",
          "ticks": 42720,
          "time": 31.785637999999995,
          "velocity": 0.6220472440944882
        },
        {
          "duration": 0.15624962500000095,
          "durationTicks": 210,
          "midi": 70,
          "name": "A#4",
          "ticks": 42720,
          "time": 31.785637999999995,
          "velocity": 0.6220472440944882
        },
        {
          "duration": 0.07440458333333311,
          "durationTicks": 100,
          "midi": 60,
          "name": "C4",
          "ticks": 42960,
          "time": 31.964208999999997,
          "velocity": 0.6220472440944882
        },
        {
          "duration": 0.07440458333333311,
          "durationTicks": 100,
          "midi": 64,
          "name": "E4",
          "ticks": 42960,
          "time": 31.964208999999997,
          "velocity": 0.6220472440944882
        },
        {
          "duration": 0.07440458333333311,
          "durationTicks": 100,
          "midi": 67,
          "name": "G4",
          "ticks": 42960,
          "time": 31.964208999999997,
          "velocity": 0.6220472440944882
        },
        {
          "duration": 0.07440458333333311,
          "durationTicks": 100,
          "midi": 70,
          "name": "A#4",
          "ticks": 42960,
          "time": 31.964208999999997,
          "velocity": 0.6220472440944882
        },
        {
          "duration": 0.11904733333333439,
          "durationTicks": 160,
          "midi": 60,
          "name": "C4",
          "ticks": 43200,
          "time": 32.142779999999995,
          "velocity": 0.6220472440944882
        },
        {
          "duration": 0.11904733333333439,
          "durationTicks": 160,
          "midi": 64,
          "name": "E4",
          "ticks": 43200,
          "time": 32.142779999999995,
          "velocity": 0.6220472440944882
        },
        {
          "duration": 0.11904733333333439,
          "durationTicks": 160,
          "midi": 67,
          "name": "G4",
          "ticks": 43200,
          "time": 32.142779999999995,
          "velocity": 0.6220472440944882
        },
        {
          "duration": 0.23809466666666879,
          "durationTicks": 320,
          "midi": 70,
          "name": "A#4",
          "ticks": 43200,
          "time": 32.142779999999995,
          "velocity": 0.6220472440944882
        },
        {
          "duration": 0.15624962500000095,
          "durationTicks": 210,
          "midi": 60,
          "name": "C4",
          "ticks": 43680,
          "time": 32.499922,
          "velocity": 0.6220472440944882
        },
        {
          "duration": 0.15624962500000095,
          "durationTicks": 210,
          "midi": 64,
          "name": "E4",
          "ticks": 43680,
          "time": 32.499922,
          "velocity": 0.6220472440944882
        },
        {
          "duration": 0.15624962500000095,
          "durationTicks": 210,
          "midi": 67,
          "name": "G4",
          "ticks": 43680,
          "time": 32.499922,
          "velocity": 0.6220472440944882
        },
        {
          "duration": 0.15624962500000095,
          "durationTicks": 210,
          "midi": 70,
          "name": "A#4",
          "ticks": 43680,
          "time": 32.499922,
          "velocity": 0.6220472440944882
        },
        {
          "duration": 0.07440458333333311,
          "durationTicks": 100,
          "midi": 60,
          "name": "C4",
          "ticks": 43920,
          "time": 32.678492999999996,
          "velocity": 0.6220472440944882
        },
        {
          "duration": 0.07440458333333311,
          "durationTicks": 100,
          "midi": 64,
          "name": "E4",
          "ticks": 43920,
          "time": 32.678492999999996,
          "velocity": 0.6220472440944882
        },
        {
          "duration": 0.07440458333333311,
          "durationTicks": 100,
          "midi": 67,
          "name": "G4",
          "ticks": 43920,
          "time": 32.678492999999996,
          "velocity": 0.6220472440944882
        },
        {
          "duration": 0.07440458333333311,
          "durationTicks": 100,
          "midi": 70,
          "name": "A#4",
          "ticks": 43920,
          "time": 32.678492999999996,
          "velocity": 0.6220472440944882
        },
        {
          "duration": 0.23809466666666879,
          "durationTicks": 320,
          "midi": 60,
          "name": "C4",
          "ticks": 44160,
          "time": 32.857063999999994,
          "velocity": 0.6220472440944882
        },
        {
          "duration": 0.23809466666666879,
          "durationTicks": 320,
          "midi": 64,
          "name": "E4",
          "ticks": 44160,
          "time": 32.857063999999994,
          "velocity": 0.6220472440944882
        },
        {
          "duration": 0.23809466666666879,
          "durationTicks": 320,
          "midi": 67,
          "name": "G4",
          "ticks": 44160,
          "time": 32.857063999999994,
          "velocity": 0.6220472440944882
        },
        {
          "duration": 0.23809466666666879,
          "durationTicks": 320,
          "midi": 70,
          "name": "A#4",
          "ticks": 44160,
          "time": 32.857063999999994,
          "velocity": 0.6220472440944882
        },
        {
          "duration": 0.14880916666666621,
          "durationTicks": 200,
          "midi": 60,
          "name": "C4",
          "ticks": 44640,
          "time": 33.214206,
          "velocity": 0.6220472440944882
        },
        {
          "duration": 0.14880916666666621,
          "durationTicks": 200,
          "midi": 64,
          "name": "E4",
          "ticks": 44640,
          "time": 33.214206,
          "velocity": 0.6220472440944882
        },
        {
          "duration": 0.14880916666666621,
          "durationTicks": 200,
          "midi": 67,
          "name": "G4",
          "ticks": 44640,
          "time": 33.214206,
          "velocity": 0.6220472440944882
        },
        {
          "duration": 0.14880916666666621,
          "durationTicks": 200,
          "midi": 70,
          "name": "A#4",
          "ticks": 44640,
          "time": 33.214206,
          "velocity": 0.6220472440944882
        },
        {
          "duration": 0.07440458333333311,
          "durationTicks": 100,
          "midi": 60,
          "name": "C4",
          "ticks": 44880,
          "time": 33.392776999999995,
          "velocity": 0.6220472440944882
        },
        {
          "duration": 0.07440458333333311,
          "durationTicks": 100,
          "midi": 64,
          "name": "E4",
          "ticks": 44880,
          "time": 33.392776999999995,
          "velocity": 0.6220472440944882
        },
        {
          "duration": 0.07440458333333311,
          "durationTicks": 100,
          "midi": 67,
          "name": "G4",
          "ticks": 44880,
          "time": 33.392776999999995,
          "velocity": 0.6220472440944882
        },
        {
          "duration": 0.07440458333333311,
          "durationTicks": 100,
          "midi": 70,
          "name": "A#4",
          "ticks": 44880,
          "time": 33.392776999999995,
          "velocity": 0.6220472440944882
        },
        {
          "duration": 0.11904733333333439,
          "durationTicks": 160,
          "midi": 60,
          "name": "C4",
          "ticks": 45120,
          "time": 33.57134799999999,
          "velocity": 0.6220472440944882
        },
        {
          "duration": 0.11904733333333439,
          "durationTicks": 160,
          "midi": 64,
          "name": "E4",
          "ticks": 45120,
          "time": 33.57134799999999,
          "velocity": 0.6220472440944882
        },
        {
          "duration": 0.11904733333333439,
          "durationTicks": 160,
          "midi": 67,
          "name": "G4",
          "ticks": 45120,
          "time": 33.57134799999999,
          "velocity": 0.6220472440944882
        },
        {
          "duration": 0.23809466666666879,
          "durationTicks": 320,
          "midi": 70,
          "name": "A#4",
          "ticks": 45120,
          "time": 33.57134799999999,
          "velocity": 0.6220472440944882
        },
        {
          "duration": 0.14880916666666621,
          "durationTicks": 200,
          "midi": 60,
          "name": "C4",
          "ticks": 45600,
          "time": 33.92849,
          "velocity": 0.6220472440944882
        },
        {
          "duration": 0.14880916666666621,
          "durationTicks": 200,
          "midi": 64,
          "name": "E4",
          "ticks": 45600,
          "time": 33.92849,
          "velocity": 0.6220472440944882
        },
        {
          "duration": 0.14880916666666621,
          "durationTicks": 200,
          "midi": 67,
          "name": "G4",
          "ticks": 45600,
          "time": 33.92849,
          "velocity": 0.6220472440944882
        },
        {
          "duration": 0.14880916666666621,
          "durationTicks": 200,
          "midi": 70,
          "name": "A#4",
          "ticks": 45600,
          "time": 33.92849,
          "velocity": 0.6220472440944882
        },
        {
          "duration": 0.07440458333333311,
          "durationTicks": 100,
          "midi": 60,
          "name": "C4",
          "ticks": 45840,
          "time": 34.107060999999995,
          "velocity": 0.6220472440944882
        },
        {
          "duration": 0.07440458333333311,
          "durationTicks": 100,
          "midi": 64,
          "name": "E4",
          "ticks": 45840,
          "time": 34.107060999999995,
          "velocity": 0.6220472440944882
        },
        {
          "duration": 0.07440458333333311,
          "durationTicks": 100,
          "midi": 67,
          "name": "G4",
          "ticks": 45840,
          "time": 34.107060999999995,
          "velocity": 0.6220472440944882
        },
        {
          "duration": 0.07440458333333311,
          "durationTicks": 100,
          "midi": 70,
          "name": "A#4",
          "ticks": 45840,
          "time": 34.107060999999995,
          "velocity": 0.6220472440944882
        },
        {
          "duration": 0.23809466666666879,
          "durationTicks": 320,
          "midi": 53,
          "name": "F3",
          "ticks": 46080,
          "time": 34.28563199999999,
          "velocity": 0.6220472440944882
        },
        {
          "duration": 0.23809466666666879,
          "durationTicks": 320,
          "midi": 60,
          "name": "C4",
          "ticks": 46080,
          "time": 34.28563199999999,
          "velocity": 0.6220472440944882
        },
        {
          "duration": 0.23809466666666879,
          "durationTicks": 320,
          "midi": 63,
          "name": "D#4",
          "ticks": 46080,
          "time": 34.28563199999999,
          "velocity": 0.6220472440944882
        },
        {
          "duration": 0.23809466666666879,
          "durationTicks": 320,
          "midi": 69,
          "name": "A4",
          "ticks": 46080,
          "time": 34.28563199999999,
          "velocity": 0.6220472440944882
        },
        {
          "duration": 0.23809466666666879,
          "durationTicks": 320,
          "midi": 72,
          "name": "C5",
          "ticks": 46080,
          "time": 34.28563199999999,
          "velocity": 0.6220472440944882
        },
        {
          "duration": 0.23809466666666879,
          "durationTicks": 320,
          "midi": 77,
          "name": "F5",
          "ticks": 46080,
          "time": 34.28563199999999,
          "velocity": 0.6220472440944882
        },
        {
          "duration": 0.14880916666666621,
          "durationTicks": 200,
          "midi": 63,
          "name": "D#4",
          "ticks": 46560,
          "time": 34.642773999999996,
          "velocity": 0.6220472440944882
        },
        {
          "duration": 0.14880916666666621,
          "durationTicks": 200,
          "midi": 65,
          "name": "F4",
          "ticks": 46560,
          "time": 34.642773999999996,
          "velocity": 0.6220472440944882
        },
        {
          "duration": 0.14880916666666621,
          "durationTicks": 200,
          "midi": 69,
          "name": "A4",
          "ticks": 46560,
          "time": 34.642773999999996,
          "velocity": 0.6220472440944882
        },
        {
          "duration": 0.14880916666666621,
          "durationTicks": 200,
          "midi": 72,
          "name": "C5",
          "ticks": 46560,
          "time": 34.642773999999996,
          "velocity": 0.6220472440944882
        },
        {
          "duration": 0.07440458333333311,
          "durationTicks": 100,
          "midi": 63,
          "name": "D#4",
          "ticks": 46800,
          "time": 34.821344999999994,
          "velocity": 0.6220472440944882
        },
        {
          "duration": 0.07440458333333311,
          "durationTicks": 100,
          "midi": 65,
          "name": "F4",
          "ticks": 46800,
          "time": 34.821344999999994,
          "velocity": 0.6220472440944882
        },
        {
          "duration": 0.07440458333333311,
          "durationTicks": 100,
          "midi": 69,
          "name": "A4",
          "ticks": 46800,
          "time": 34.821344999999994,
          "velocity": 0.6220472440944882
        },
        {
          "duration": 0.07440458333333311,
          "durationTicks": 100,
          "midi": 72,
          "name": "C5",
          "ticks": 46800,
          "time": 34.821344999999994,
          "velocity": 0.6220472440944882
        },
        {
          "duration": 0.23809466666666879,
          "durationTicks": 320,
          "midi": 63,
          "name": "D#4",
          "ticks": 47040,
          "time": 34.999916,
          "velocity": 0.6220472440944882
        },
        {
          "duration": 0.23809466666666879,
          "durationTicks": 320,
          "midi": 65,
          "name": "F4",
          "ticks": 47040,
          "time": 34.999916,
          "velocity": 0.6220472440944882
        },
        {
          "duration": 0.23809466666666879,
          "durationTicks": 320,
          "midi": 69,
          "name": "A4",
          "ticks": 47040,
          "time": 34.999916,
          "velocity": 0.6220472440944882
        },
        {
          "duration": 0.23809466666666879,
          "durationTicks": 320,
          "midi": 72,
          "name": "C5",
          "ticks": 47040,
          "time": 34.999916,
          "velocity": 0.6220472440944882
        },
        {
          "duration": 0.14880916666666621,
          "durationTicks": 200,
          "midi": 63,
          "name": "D#4",
          "ticks": 47520,
          "time": 35.357057999999995,
          "velocity": 0.6220472440944882
        },
        {
          "duration": 0.14880916666666621,
          "durationTicks": 200,
          "midi": 65,
          "name": "F4",
          "ticks": 47520,
          "time": 35.357057999999995,
          "velocity": 0.6220472440944882
        },
        {
          "duration": 0.14880916666666621,
          "durationTicks": 200,
          "midi": 69,
          "name": "A4",
          "ticks": 47520,
          "time": 35.357057999999995,
          "velocity": 0.6220472440944882
        },
        {
          "duration": 0.14880916666666621,
          "durationTicks": 200,
          "midi": 72,
          "name": "C5",
          "ticks": 47520,
          "time": 35.357057999999995,
          "velocity": 0.6220472440944882
        },
        {
          "duration": 0.07440458333333311,
          "durationTicks": 100,
          "midi": 63,
          "name": "D#4",
          "ticks": 47760,
          "time": 35.53562899999999,
          "velocity": 0.6220472440944882
        },
        {
          "duration": 0.07440458333333311,
          "durationTicks": 100,
          "midi": 65,
          "name": "F4",
          "ticks": 47760,
          "time": 35.53562899999999,
          "velocity": 0.6220472440944882
        },
        {
          "duration": 0.07440458333333311,
          "durationTicks": 100,
          "midi": 69,
          "name": "A4",
          "ticks": 47760,
          "time": 35.53562899999999,
          "velocity": 0.6220472440944882
        },
        {
          "duration": 0.07440458333333311,
          "durationTicks": 100,
          "midi": 72,
          "name": "C5",
          "ticks": 47760,
          "time": 35.53562899999999,
          "velocity": 0.6220472440944882
        },
        {
          "duration": 0.23809466666666879,
          "durationTicks": 320,
          "midi": 53,
          "name": "F3",
          "ticks": 48000,
          "time": 35.7142,
          "velocity": 0.6220472440944882
        },
        {
          "duration": 0.23809466666666879,
          "durationTicks": 320,
          "midi": 60,
          "name": "C4",
          "ticks": 48000,
          "time": 35.7142,
          "velocity": 0.6220472440944882
        },
        {
          "duration": 0.23809466666666879,
          "durationTicks": 320,
          "midi": 63,
          "name": "D#4",
          "ticks": 48000,
          "time": 35.7142,
          "velocity": 0.6220472440944882
        },
        {
          "duration": 0.23809466666666879,
          "durationTicks": 320,
          "midi": 69,
          "name": "A4",
          "ticks": 48000,
          "time": 35.7142,
          "velocity": 0.6220472440944882
        },
        {
          "duration": 0.23809466666666879,
          "durationTicks": 320,
          "midi": 72,
          "name": "C5",
          "ticks": 48000,
          "time": 35.7142,
          "velocity": 0.6220472440944882
        },
        {
          "duration": 0.23809466666666879,
          "durationTicks": 320,
          "midi": 77,
          "name": "F5",
          "ticks": 48000,
          "time": 35.7142,
          "velocity": 0.6220472440944882
        },
        {
          "duration": 0.14880916666667332,
          "durationTicks": 200,
          "midi": 63,
          "name": "D#4",
          "ticks": 48480,
          "time": 36.071341999999994,
          "velocity": 0.6220472440944882
        },
        {
          "duration": 0.14880916666667332,
          "durationTicks": 200,
          "midi": 65,
          "name": "F4",
          "ticks": 48480,
          "time": 36.071341999999994,
          "velocity": 0.6220472440944882
        },
        {
          "duration": 0.14880916666667332,
          "durationTicks": 200,
          "midi": 69,
          "name": "A4",
          "ticks": 48480,
          "time": 36.071341999999994,
          "velocity": 0.6220472440944882
        },
        {
          "duration": 0.14880916666667332,
          "durationTicks": 200,
          "midi": 72,
          "name": "C5",
          "ticks": 48480,
          "time": 36.071341999999994,
          "velocity": 0.6220472440944882
        },
        {
          "duration": 0.074404583333326,
          "durationTicks": 100,
          "midi": 63,
          "name": "D#4",
          "ticks": 48720,
          "time": 36.249913,
          "velocity": 0.6220472440944882
        },
        {
          "duration": 0.074404583333326,
          "durationTicks": 100,
          "midi": 65,
          "name": "F4",
          "ticks": 48720,
          "time": 36.249913,
          "velocity": 0.6220472440944882
        },
        {
          "duration": 0.074404583333326,
          "durationTicks": 100,
          "midi": 69,
          "name": "A4",
          "ticks": 48720,
          "time": 36.249913,
          "velocity": 0.6220472440944882
        },
        {
          "duration": 0.074404583333326,
          "durationTicks": 100,
          "midi": 72,
          "name": "C5",
          "ticks": 48720,
          "time": 36.249913,
          "velocity": 0.6220472440944882
        },
        {
          "duration": 0.23809466666666879,
          "durationTicks": 320,
          "midi": 63,
          "name": "D#4",
          "ticks": 48960,
          "time": 36.428484,
          "velocity": 0.6220472440944882
        },
        {
          "duration": 0.23809466666666879,
          "durationTicks": 320,
          "midi": 65,
          "name": "F4",
          "ticks": 48960,
          "time": 36.428484,
          "velocity": 0.6220472440944882
        },
        {
          "duration": 0.23809466666666879,
          "durationTicks": 320,
          "midi": 69,
          "name": "A4",
          "ticks": 48960,
          "time": 36.428484,
          "velocity": 0.6220472440944882
        },
        {
          "duration": 0.23809466666666879,
          "durationTicks": 320,
          "midi": 72,
          "name": "C5",
          "ticks": 48960,
          "time": 36.428484,
          "velocity": 0.6220472440944882
        },
        {
          "duration": 0.14880916666667332,
          "durationTicks": 200,
          "midi": 63,
          "name": "D#4",
          "ticks": 49440,
          "time": 36.78562599999999,
          "velocity": 0.6220472440944882
        },
        {
          "duration": 0.14880916666667332,
          "durationTicks": 200,
          "midi": 65,
          "name": "F4",
          "ticks": 49440,
          "time": 36.78562599999999,
          "velocity": 0.6220472440944882
        },
        {
          "duration": 0.14880916666667332,
          "durationTicks": 200,
          "midi": 69,
          "name": "A4",
          "ticks": 49440,
          "time": 36.78562599999999,
          "velocity": 0.6220472440944882
        },
        {
          "duration": 0.14880916666667332,
          "durationTicks": 200,
          "midi": 72,
          "name": "C5",
          "ticks": 49440,
          "time": 36.78562599999999,
          "velocity": 0.6220472440944882
        },
        {
          "duration": 0.074404583333326,
          "durationTicks": 100,
          "midi": 63,
          "name": "D#4",
          "ticks": 49680,
          "time": 36.964197,
          "velocity": 0.6220472440944882
        },
        {
          "duration": 0.074404583333326,
          "durationTicks": 100,
          "midi": 65,
          "name": "F4",
          "ticks": 49680,
          "time": 36.964197,
          "velocity": 0.6220472440944882
        },
        {
          "duration": 0.074404583333326,
          "durationTicks": 100,
          "midi": 69,
          "name": "A4",
          "ticks": 49680,
          "time": 36.964197,
          "velocity": 0.6220472440944882
        },
        {
          "duration": 0.074404583333326,
          "durationTicks": 100,
          "midi": 72,
          "name": "C5",
          "ticks": 49680,
          "time": 36.964197,
          "velocity": 0.6220472440944882
        },
        {
          "duration": 0.23809466666666879,
          "durationTicks": 320,
          "midi": 60,
          "name": "C4",
          "ticks": 49920,
          "time": 37.142768,
          "velocity": 0.6220472440944882
        },
        {
          "duration": 0.23809466666666879,
          "durationTicks": 320,
          "midi": 64,
          "name": "E4",
          "ticks": 49920,
          "time": 37.142768,
          "velocity": 0.6220472440944882
        },
        {
          "duration": 0.23809466666666879,
          "durationTicks": 320,
          "midi": 67,
          "name": "G4",
          "ticks": 49920,
          "time": 37.142768,
          "velocity": 0.6220472440944882
        },
        {
          "duration": 0.23809466666666879,
          "durationTicks": 320,
          "midi": 70,
          "name": "A#4",
          "ticks": 49920,
          "time": 37.142768,
          "velocity": 0.6220472440944882
        },
        {
          "duration": 0.15624962500000095,
          "durationTicks": 210,
          "midi": 60,
          "name": "C4",
          "ticks": 50400,
          "time": 37.49990999999999,
          "velocity": 0.6220472440944882
        },
        {
          "duration": 0.15624962500000095,
          "durationTicks": 210,
          "midi": 64,
          "name": "E4",
          "ticks": 50400,
          "time": 37.49990999999999,
          "velocity": 0.6220472440944882
        },
        {
          "duration": 0.15624962500000095,
          "durationTicks": 210,
          "midi": 67,
          "name": "G4",
          "ticks": 50400,
          "time": 37.49990999999999,
          "velocity": 0.6220472440944882
        },
        {
          "duration": 0.15624962500000095,
          "durationTicks": 210,
          "midi": 70,
          "name": "A#4",
          "ticks": 50400,
          "time": 37.49990999999999,
          "velocity": 0.6220472440944882
        },
        {
          "duration": 0.08184504166666784,
          "durationTicks": 110,
          "midi": 60,
          "name": "C4",
          "ticks": 50640,
          "time": 37.678481,
          "velocity": 0.6220472440944882
        },
        {
          "duration": 0.08184504166666784,
          "durationTicks": 110,
          "midi": 64,
          "name": "E4",
          "ticks": 50640,
          "time": 37.678481,
          "velocity": 0.6220472440944882
        },
        {
          "duration": 0.08184504166666784,
          "durationTicks": 110,
          "midi": 67,
          "name": "G4",
          "ticks": 50640,
          "time": 37.678481,
          "velocity": 0.6220472440944882
        },
        {
          "duration": 0.08184504166666784,
          "durationTicks": 110,
          "midi": 70,
          "name": "A#4",
          "ticks": 50640,
          "time": 37.678481,
          "velocity": 0.6220472440944882
        },
        {
          "duration": 0.11904733333333439,
          "durationTicks": 160,
          "midi": 60,
          "name": "C4",
          "ticks": 50880,
          "time": 37.857051999999996,
          "velocity": 0.6220472440944882
        },
        {
          "duration": 0.11904733333333439,
          "durationTicks": 160,
          "midi": 64,
          "name": "E4",
          "ticks": 50880,
          "time": 37.857051999999996,
          "velocity": 0.6220472440944882
        },
        {
          "duration": 0.11904733333333439,
          "durationTicks": 160,
          "midi": 67,
          "name": "G4",
          "ticks": 50880,
          "time": 37.857051999999996,
          "velocity": 0.6220472440944882
        },
        {
          "duration": 0.23809466666666879,
          "durationTicks": 320,
          "midi": 70,
          "name": "A#4",
          "ticks": 50880,
          "time": 37.857051999999996,
          "velocity": 0.6220472440944882
        },
        {
          "duration": 0.15624962499999384,
          "durationTicks": 210,
          "midi": 60,
          "name": "C4",
          "ticks": 51360,
          "time": 38.214194,
          "velocity": 0.6220472440944882
        },
        {
          "duration": 0.15624962499999384,
          "durationTicks": 210,
          "midi": 64,
          "name": "E4",
          "ticks": 51360,
          "time": 38.214194,
          "velocity": 0.6220472440944882
        },
        {
          "duration": 0.15624962499999384,
          "durationTicks": 210,
          "midi": 67,
          "name": "G4",
          "ticks": 51360,
          "time": 38.214194,
          "velocity": 0.6220472440944882
        },
        {
          "duration": 0.15624962499999384,
          "durationTicks": 210,
          "midi": 70,
          "name": "A#4",
          "ticks": 51360,
          "time": 38.214194,
          "velocity": 0.6220472440944882
        },
        {
          "duration": 0.08184504166666784,
          "durationTicks": 110,
          "midi": 60,
          "name": "C4",
          "ticks": 51600,
          "time": 38.392765,
          "velocity": 0.6220472440944882
        },
        {
          "duration": 0.08184504166666784,
          "durationTicks": 110,
          "midi": 64,
          "name": "E4",
          "ticks": 51600,
          "time": 38.392765,
          "velocity": 0.6220472440944882
        },
        {
          "duration": 0.08184504166666784,
          "durationTicks": 110,
          "midi": 67,
          "name": "G4",
          "ticks": 51600,
          "time": 38.392765,
          "velocity": 0.6220472440944882
        },
        {
          "duration": 0.08184504166666784,
          "durationTicks": 110,
          "midi": 70,
          "name": "A#4",
          "ticks": 51600,
          "time": 38.392765,
          "velocity": 0.6220472440944882
        },
        {
          "duration": 0.23809466666666879,
          "durationTicks": 320,
          "midi": 60,
          "name": "C4",
          "ticks": 51840,
          "time": 38.571335999999995,
          "velocity": 0.6220472440944882
        },
        {
          "duration": 0.23809466666666879,
          "durationTicks": 320,
          "midi": 64,
          "name": "E4",
          "ticks": 51840,
          "time": 38.571335999999995,
          "velocity": 0.6220472440944882
        },
        {
          "duration": 0.23809466666666879,
          "durationTicks": 320,
          "midi": 67,
          "name": "G4",
          "ticks": 51840,
          "time": 38.571335999999995,
          "velocity": 0.6220472440944882
        },
        {
          "duration": 0.23809466666666879,
          "durationTicks": 320,
          "midi": 70,
          "name": "A#4",
          "ticks": 51840,
          "time": 38.571335999999995,
          "velocity": 0.6220472440944882
        },
        {
          "duration": 0.15624962499999384,
          "durationTicks": 210,
          "midi": 60,
          "name": "C4",
          "ticks": 52320,
          "time": 38.928478,
          "velocity": 0.6220472440944882
        },
        {
          "duration": 0.15624962499999384,
          "durationTicks": 210,
          "midi": 64,
          "name": "E4",
          "ticks": 52320,
          "time": 38.928478,
          "velocity": 0.6220472440944882
        },
        {
          "duration": 0.15624962499999384,
          "durationTicks": 210,
          "midi": 67,
          "name": "G4",
          "ticks": 52320,
          "time": 38.928478,
          "velocity": 0.6220472440944882
        },
        {
          "duration": 0.15624962499999384,
          "durationTicks": 210,
          "midi": 70,
          "name": "A#4",
          "ticks": 52320,
          "time": 38.928478,
          "velocity": 0.6220472440944882
        },
        {
          "duration": 0.08184504166666784,
          "durationTicks": 110,
          "midi": 60,
          "name": "C4",
          "ticks": 52560,
          "time": 39.107048999999996,
          "velocity": 0.6220472440944882
        },
        {
          "duration": 0.08184504166666784,
          "durationTicks": 110,
          "midi": 64,
          "name": "E4",
          "ticks": 52560,
          "time": 39.107048999999996,
          "velocity": 0.6220472440944882
        },
        {
          "duration": 0.08184504166666784,
          "durationTicks": 110,
          "midi": 67,
          "name": "G4",
          "ticks": 52560,
          "time": 39.107048999999996,
          "velocity": 0.6220472440944882
        },
        {
          "duration": 0.08184504166666784,
          "durationTicks": 110,
          "midi": 70,
          "name": "A#4",
          "ticks": 52560,
          "time": 39.107048999999996,
          "velocity": 0.6220472440944882
        },
        {
          "duration": 0.11904733333333439,
          "durationTicks": 160,
          "midi": 60,
          "name": "C4",
          "ticks": 52800,
          "time": 39.285619999999994,
          "velocity": 0.6220472440944882
        },
        {
          "duration": 0.11904733333333439,
          "durationTicks": 160,
          "midi": 64,
          "name": "E4",
          "ticks": 52800,
          "time": 39.285619999999994,
          "velocity": 0.6220472440944882
        },
        {
          "duration": 0.11904733333333439,
          "durationTicks": 160,
          "midi": 67,
          "name": "G4",
          "ticks": 52800,
          "time": 39.285619999999994,
          "velocity": 0.6220472440944882
        },
        {
          "duration": 0.23809466666666879,
          "durationTicks": 320,
          "midi": 70,
          "name": "A#4",
          "ticks": 52800,
          "time": 39.285619999999994,
          "velocity": 0.6220472440944882
        },
        {
          "duration": 0.15624962500000095,
          "durationTicks": 210,
          "midi": 60,
          "name": "C4",
          "ticks": 53280,
          "time": 39.642762,
          "velocity": 0.6220472440944882
        },
        {
          "duration": 0.15624962500000095,
          "durationTicks": 210,
          "midi": 64,
          "name": "E4",
          "ticks": 53280,
          "time": 39.642762,
          "velocity": 0.6220472440944882
        },
        {
          "duration": 0.15624962500000095,
          "durationTicks": 210,
          "midi": 67,
          "name": "G4",
          "ticks": 53280,
          "time": 39.642762,
          "velocity": 0.6220472440944882
        },
        {
          "duration": 0.15624962500000095,
          "durationTicks": 210,
          "midi": 70,
          "name": "A#4",
          "ticks": 53280,
          "time": 39.642762,
          "velocity": 0.6220472440944882
        },
        {
          "duration": 0.08184504166666784,
          "durationTicks": 110,
          "midi": 60,
          "name": "C4",
          "ticks": 53520,
          "time": 39.821332999999996,
          "velocity": 0.6220472440944882
        },
        {
          "duration": 0.08184504166666784,
          "durationTicks": 110,
          "midi": 64,
          "name": "E4",
          "ticks": 53520,
          "time": 39.821332999999996,
          "velocity": 0.6220472440944882
        },
        {
          "duration": 0.08184504166666784,
          "durationTicks": 110,
          "midi": 67,
          "name": "G4",
          "ticks": 53520,
          "time": 39.821332999999996,
          "velocity": 0.6220472440944882
        },
        {
          "duration": 0.08184504166666784,
          "durationTicks": 110,
          "midi": 70,
          "name": "A#4",
          "ticks": 53520,
          "time": 39.821332999999996,
          "velocity": 0.6220472440944882
        },
        {
          "duration": 0.23809466666666879,
          "durationTicks": 320,
          "midi": 62,
          "name": "D4",
          "ticks": 53760,
          "time": 39.999903999999994,
          "velocity": 0.6220472440944882
        },
        {
          "duration": 0.23809466666666879,
          "durationTicks": 320,
          "midi": 67,
          "name": "G4",
          "ticks": 53760,
          "time": 39.999903999999994,
          "velocity": 0.6220472440944882
        },
        {
          "duration": 0.23809466666666879,
          "durationTicks": 320,
          "midi": 71,
          "name": "B4",
          "ticks": 53760,
          "time": 39.999903999999994,
          "velocity": 0.6220472440944882
        },
        {
          "duration": 0.14880916666666621,
          "durationTicks": 200,
          "midi": 62,
          "name": "D4",
          "ticks": 54240,
          "time": 40.357046,
          "velocity": 0.6220472440944882
        },
        {
          "duration": 0.14880916666666621,
          "durationTicks": 200,
          "midi": 67,
          "name": "G4",
          "ticks": 54240,
          "time": 40.357046,
          "velocity": 0.6220472440944882
        },
        {
          "duration": 0.14880916666666621,
          "durationTicks": 200,
          "midi": 71,
          "name": "B4",
          "ticks": 54240,
          "time": 40.357046,
          "velocity": 0.6220472440944882
        },
        {
          "duration": 0.07440458333333311,
          "durationTicks": 100,
          "midi": 62,
          "name": "D4",
          "ticks": 54480,
          "time": 40.535616999999995,
          "velocity": 0.6220472440944882
        },
        {
          "duration": 0.07440458333333311,
          "durationTicks": 100,
          "midi": 67,
          "name": "G4",
          "ticks": 54480,
          "time": 40.535616999999995,
          "velocity": 0.6220472440944882
        },
        {
          "duration": 0.07440458333333311,
          "durationTicks": 100,
          "midi": 71,
          "name": "B4",
          "ticks": 54480,
          "time": 40.535616999999995,
          "velocity": 0.6220472440944882
        },
        {
          "duration": 0.23809466666666879,
          "durationTicks": 320,
          "midi": 62,
          "name": "D4",
          "ticks": 54720,
          "time": 40.71418799999999,
          "velocity": 0.6220472440944882
        },
        {
          "duration": 0.23809466666666879,
          "durationTicks": 320,
          "midi": 67,
          "name": "G4",
          "ticks": 54720,
          "time": 40.71418799999999,
          "velocity": 0.6220472440944882
        },
        {
          "duration": 0.23809466666666879,
          "durationTicks": 320,
          "midi": 71,
          "name": "B4",
          "ticks": 54720,
          "time": 40.71418799999999,
          "velocity": 0.6220472440944882
        },
        {
          "duration": 0.14880916666666621,
          "durationTicks": 200,
          "midi": 62,
          "name": "D4",
          "ticks": 55200,
          "time": 41.071329999999996,
          "velocity": 0.6220472440944882
        },
        {
          "duration": 0.14880916666666621,
          "durationTicks": 200,
          "midi": 67,
          "name": "G4",
          "ticks": 55200,
          "time": 41.071329999999996,
          "velocity": 0.6220472440944882
        },
        {
          "duration": 0.14880916666666621,
          "durationTicks": 200,
          "midi": 71,
          "name": "B4",
          "ticks": 55200,
          "time": 41.071329999999996,
          "velocity": 0.6220472440944882
        },
        {
          "duration": 0.07440458333333311,
          "durationTicks": 100,
          "midi": 62,
          "name": "D4",
          "ticks": 55440,
          "time": 41.249900999999994,
          "velocity": 0.6220472440944882
        },
        {
          "duration": 0.07440458333333311,
          "durationTicks": 100,
          "midi": 67,
          "name": "G4",
          "ticks": 55440,
          "time": 41.249900999999994,
          "velocity": 0.6220472440944882
        },
        {
          "duration": 0.07440458333333311,
          "durationTicks": 100,
          "midi": 71,
          "name": "B4",
          "ticks": 55440,
          "time": 41.249900999999994,
          "velocity": 0.6220472440944882
        },
        {
          "duration": 0.23809466666666879,
          "durationTicks": 320,
          "midi": 63,
          "name": "D#4",
          "ticks": 55680,
          "time": 41.42847199999999,
          "velocity": 0.6220472440944882
        },
        {
          "duration": 0.23809466666666879,
          "durationTicks": 320,
          "midi": 65,
          "name": "F4",
          "ticks": 55680,
          "time": 41.42847199999999,
          "velocity": 0.6220472440944882
        },
        {
          "duration": 0.23809466666666879,
          "durationTicks": 320,
          "midi": 69,
          "name": "A4",
          "ticks": 55680,
          "time": 41.42847199999999,
          "velocity": 0.6220472440944882
        },
        {
          "duration": 0.23809466666666879,
          "durationTicks": 320,
          "midi": 72,
          "name": "C5",
          "ticks": 55680,
          "time": 41.42847199999999,
          "velocity": 0.6220472440944882
        },
        {
          "duration": 0.23809466666666879,
          "durationTicks": 320,
          "midi": 63,
          "name": "D#4",
          "ticks": 57600,
          "time": 42.85704,
          "velocity": 0.6220472440944882
        },
        {
          "duration": 0.23809466666666879,
          "durationTicks": 320,
          "midi": 65,
          "name": "F4",
          "ticks": 57600,
          "time": 42.85704,
          "velocity": 0.6220472440944882
        },
        {
          "duration": 0.23809466666666879,
          "durationTicks": 320,
          "midi": 69,
          "name": "A4",
          "ticks": 57600,
          "time": 42.85704,
          "velocity": 0.6220472440944882
        },
        {
          "duration": 0.23809466666666879,
          "durationTicks": 320,
          "midi": 72,
          "name": "C5",
          "ticks": 57600,
          "time": 42.85704,
          "velocity": 0.6220472440944882
        },
        {
          "duration": 0.14880916666666621,
          "durationTicks": 200,
          "midi": 63,
          "name": "D#4",
          "ticks": 58080,
          "time": 43.214181999999994,
          "velocity": 0.6220472440944882
        },
        {
          "duration": 0.14880916666666621,
          "durationTicks": 200,
          "midi": 65,
          "name": "F4",
          "ticks": 58080,
          "time": 43.214181999999994,
          "velocity": 0.6220472440944882
        },
        {
          "duration": 0.14880916666666621,
          "durationTicks": 200,
          "midi": 69,
          "name": "A4",
          "ticks": 58080,
          "time": 43.214181999999994,
          "velocity": 0.6220472440944882
        },
        {
          "duration": 0.14880916666666621,
          "durationTicks": 200,
          "midi": 72,
          "name": "C5",
          "ticks": 58080,
          "time": 43.214181999999994,
          "velocity": 0.6220472440944882
        },
        {
          "duration": 0.07440458333333311,
          "durationTicks": 100,
          "midi": 63,
          "name": "D#4",
          "ticks": 58320,
          "time": 43.39275299999999,
          "velocity": 0.6220472440944882
        },
        {
          "duration": 0.07440458333333311,
          "durationTicks": 100,
          "midi": 65,
          "name": "F4",
          "ticks": 58320,
          "time": 43.39275299999999,
          "velocity": 0.6220472440944882
        },
        {
          "duration": 0.07440458333333311,
          "durationTicks": 100,
          "midi": 69,
          "name": "A4",
          "ticks": 58320,
          "time": 43.39275299999999,
          "velocity": 0.6220472440944882
        },
        {
          "duration": 0.07440458333333311,
          "durationTicks": 100,
          "midi": 72,
          "name": "C5",
          "ticks": 58320,
          "time": 43.39275299999999,
          "velocity": 0.6220472440944882
        },
        {
          "duration": 0.23809466666666879,
          "durationTicks": 320,
          "midi": 63,
          "name": "D#4",
          "ticks": 58560,
          "time": 43.571324,
          "velocity": 0.6220472440944882
        },
        {
          "duration": 0.23809466666666879,
          "durationTicks": 320,
          "midi": 65,
          "name": "F4",
          "ticks": 58560,
          "time": 43.571324,
          "velocity": 0.6220472440944882
        },
        {
          "duration": 0.23809466666666879,
          "durationTicks": 320,
          "midi": 69,
          "name": "A4",
          "ticks": 58560,
          "time": 43.571324,
          "velocity": 0.6220472440944882
        },
        {
          "duration": 0.23809466666666879,
          "durationTicks": 320,
          "midi": 72,
          "name": "C5",
          "ticks": 58560,
          "time": 43.571324,
          "velocity": 0.6220472440944882
        },
        {
          "duration": 0.14880916666667332,
          "durationTicks": 200,
          "midi": 63,
          "name": "D#4",
          "ticks": 59040,
          "time": 43.92846599999999,
          "velocity": 0.6220472440944882
        },
        {
          "duration": 0.14880916666667332,
          "durationTicks": 200,
          "midi": 65,
          "name": "F4",
          "ticks": 59040,
          "time": 43.92846599999999,
          "velocity": 0.6220472440944882
        },
        {
          "duration": 0.14880916666667332,
          "durationTicks": 200,
          "midi": 69,
          "name": "A4",
          "ticks": 59040,
          "time": 43.92846599999999,
          "velocity": 0.6220472440944882
        },
        {
          "duration": 0.14880916666667332,
          "durationTicks": 200,
          "midi": 72,
          "name": "C5",
          "ticks": 59040,
          "time": 43.92846599999999,
          "velocity": 0.6220472440944882
        },
        {
          "duration": 0.074404583333326,
          "durationTicks": 100,
          "midi": 63,
          "name": "D#4",
          "ticks": 59280,
          "time": 44.107037,
          "velocity": 0.6220472440944882
        },
        {
          "duration": 0.074404583333326,
          "durationTicks": 100,
          "midi": 65,
          "name": "F4",
          "ticks": 59280,
          "time": 44.107037,
          "velocity": 0.6220472440944882
        },
        {
          "duration": 0.074404583333326,
          "durationTicks": 100,
          "midi": 69,
          "name": "A4",
          "ticks": 59280,
          "time": 44.107037,
          "velocity": 0.6220472440944882
        },
        {
          "duration": 0.074404583333326,
          "durationTicks": 100,
          "midi": 72,
          "name": "C5",
          "ticks": 59280,
          "time": 44.107037,
          "velocity": 0.6220472440944882
        },
        {
          "duration": 0.23809466666666879,
          "durationTicks": 320,
          "midi": 64,
          "name": "E4",
          "ticks": 59520,
          "time": 44.285607999999996,
          "velocity": 0.6220472440944882
        },
        {
          "duration": 0.23809466666666879,
          "durationTicks": 320,
          "midi": 67,
          "name": "G4",
          "ticks": 59520,
          "time": 44.285607999999996,
          "velocity": 0.6220472440944882
        },
        {
          "duration": 0.23809466666666879,
          "durationTicks": 320,
          "midi": 72,
          "name": "C5",
          "ticks": 59520,
          "time": 44.285607999999996,
          "velocity": 0.6220472440944882
        },
        {
          "duration": 0.15624962500000095,
          "durationTicks": 210,
          "midi": 64,
          "name": "E4",
          "ticks": 60000,
          "time": 44.64274999999999,
          "velocity": 0.6220472440944882
        },
        {
          "duration": 0.15624962500000095,
          "durationTicks": 210,
          "midi": 67,
          "name": "G4",
          "ticks": 60000,
          "time": 44.64274999999999,
          "velocity": 0.6220472440944882
        },
        {
          "duration": 0.15624962500000095,
          "durationTicks": 210,
          "midi": 72,
          "name": "C5",
          "ticks": 60000,
          "time": 44.64274999999999,
          "velocity": 0.6220472440944882
        },
        {
          "duration": 0.074404583333326,
          "durationTicks": 100,
          "midi": 64,
          "name": "E4",
          "ticks": 60240,
          "time": 44.821321,
          "velocity": 0.6220472440944882
        },
        {
          "duration": 0.074404583333326,
          "durationTicks": 100,
          "midi": 67,
          "name": "G4",
          "ticks": 60240,
          "time": 44.821321,
          "velocity": 0.6220472440944882
        },
        {
          "duration": 0.074404583333326,
          "durationTicks": 100,
          "midi": 72,
          "name": "C5",
          "ticks": 60240,
          "time": 44.821321,
          "velocity": 0.6220472440944882
        },
        {
          "duration": 0.23809466666666879,
          "durationTicks": 320,
          "midi": 64,
          "name": "E4",
          "ticks": 60480,
          "time": 44.999891999999996,
          "velocity": 0.6220472440944882
        },
        {
          "duration": 0.23809466666666879,
          "durationTicks": 320,
          "midi": 67,
          "name": "G4",
          "ticks": 60480,
          "time": 44.999891999999996,
          "velocity": 0.6220472440944882
        },
        {
          "duration": 0.23809466666666879,
          "durationTicks": 320,
          "midi": 72,
          "name": "C5",
          "ticks": 60480,
          "time": 44.999891999999996,
          "velocity": 0.6220472440944882
        },
        {
          "duration": 0.15624962500000095,
          "durationTicks": 210,
          "midi": 64,
          "name": "E4",
          "ticks": 60960,
          "time": 45.35703399999999,
          "velocity": 0.6220472440944882
        },
        {
          "duration": 0.15624962500000095,
          "durationTicks": 210,
          "midi": 67,
          "name": "G4",
          "ticks": 60960,
          "time": 45.35703399999999,
          "velocity": 0.6220472440944882
        },
        {
          "duration": 0.15624962500000095,
          "durationTicks": 210,
          "midi": 72,
          "name": "C5",
          "ticks": 60960,
          "time": 45.35703399999999,
          "velocity": 0.6220472440944882
        },
        {
          "duration": 0.08184504166666784,
          "durationTicks": 110,
          "midi": 64,
          "name": "E4",
          "ticks": 61200,
          "time": 45.535605,
          "velocity": 0.6220472440944882
        },
        {
          "duration": 0.08184504166666784,
          "durationTicks": 110,
          "midi": 67,
          "name": "G4",
          "ticks": 61200,
          "time": 45.535605,
          "velocity": 0.6220472440944882
        },
        {
          "duration": 0.08184504166666784,
          "durationTicks": 110,
          "midi": 72,
          "name": "C5",
          "ticks": 61200,
          "time": 45.535605,
          "velocity": 0.6220472440944882
        },
        {
          "duration": 0.23809466666666168,
          "durationTicks": 320,
          "midi": 64,
          "name": "E4",
          "ticks": 61440,
          "time": 45.714175999999995,
          "velocity": 0.6220472440944882
        },
        {
          "duration": 0.23809466666666168,
          "durationTicks": 320,
          "midi": 67,
          "name": "G4",
          "ticks": 61440,
          "time": 45.714175999999995,
          "velocity": 0.6220472440944882
        },
        {
          "duration": 0.23809466666666168,
          "durationTicks": 320,
          "midi": 71,
          "name": "B4",
          "ticks": 61440,
          "time": 45.714175999999995,
          "velocity": 0.6220472440944882
        },
        {
          "duration": 0.15624962499999384,
          "durationTicks": 210,
          "midi": 64,
          "name": "E4",
          "ticks": 61920,
          "time": 46.071318,
          "velocity": 0.6220472440944882
        },
        {
          "duration": 0.15624962499999384,
          "durationTicks": 210,
          "midi": 67,
          "name": "G4",
          "ticks": 61920,
          "time": 46.071318,
          "velocity": 0.6220472440944882
        },
        {
          "duration": 0.15624962499999384,
          "durationTicks": 210,
          "midi": 71,
          "name": "B4",
          "ticks": 61920,
          "time": 46.071318,
          "velocity": 0.6220472440944882
        },
        {
          "duration": 0.27529695833333534,
          "durationTicks": 370,
          "midi": 64,
          "name": "E4",
          "ticks": 62160,
          "time": 46.249888999999996,
          "velocity": 0.6220472440944882
        },
        {
          "duration": 0.27529695833333534,
          "durationTicks": 370,
          "midi": 67,
          "name": "G4",
          "ticks": 62160,
          "time": 46.249888999999996,
          "velocity": 0.6220472440944882
        },
        {
          "duration": 0.27529695833333534,
          "durationTicks": 370,
          "midi": 71,
          "name": "B4",
          "ticks": 62160,
          "time": 46.249888999999996,
          "velocity": 0.6220472440944882
        },
        {
          "duration": 0.07440458333334021,
          "durationTicks": 100,
          "midi": 64,
          "name": "E4",
          "ticks": 62640,
          "time": 46.60703099999999,
          "velocity": 0.6220472440944882
        },
        {
          "duration": 0.07440458333334021,
          "durationTicks": 100,
          "midi": 67,
          "name": "G4",
          "ticks": 62640,
          "time": 46.60703099999999,
          "velocity": 0.6220472440944882
        },
        {
          "duration": 0.07440458333334021,
          "durationTicks": 100,
          "midi": 71,
          "name": "B4",
          "ticks": 62640,
          "time": 46.60703099999999,
          "velocity": 0.6220472440944882
        },
        {
          "duration": 0.23809466666666168,
          "durationTicks": 320,
          "midi": 64,
          "name": "E4",
          "ticks": 62880,
          "time": 46.785602,
          "velocity": 0.6220472440944882
        },
        {
          "duration": 0.23809466666666168,
          "durationTicks": 320,
          "midi": 67,
          "name": "G4",
          "ticks": 62880,
          "time": 46.785602,
          "velocity": 0.6220472440944882
        },
        {
          "duration": 0.23809466666666168,
          "durationTicks": 320,
          "midi": 71,
          "name": "B4",
          "ticks": 62880,
          "time": 46.785602,
          "velocity": 0.6220472440944882
        },
        {
          "duration": 0.23809466666666168,
          "durationTicks": 320,
          "midi": 60,
          "name": "C4",
          "ticks": 63360,
          "time": 47.14274399999999,
          "velocity": 0.6220472440944882
        },
        {
          "duration": 0.23809466666666168,
          "durationTicks": 320,
          "midi": 64,
          "name": "E4",
          "ticks": 63360,
          "time": 47.14274399999999,
          "velocity": 0.6220472440944882
        },
        {
          "duration": 0.23809466666666168,
          "durationTicks": 320,
          "midi": 69,
          "name": "A4",
          "ticks": 63360,
          "time": 47.14274399999999,
          "velocity": 0.6220472440944882
        },
        {
          "duration": 0.15624962500000095,
          "durationTicks": 210,
          "midi": 60,
          "name": "C4",
          "ticks": 63840,
          "time": 47.499886,
          "velocity": 0.6220472440944882
        },
        {
          "duration": 0.15624962500000095,
          "durationTicks": 210,
          "midi": 64,
          "name": "E4",
          "ticks": 63840,
          "time": 47.499886,
          "velocity": 0.6220472440944882
        },
        {
          "duration": 0.15624962500000095,
          "durationTicks": 210,
          "midi": 69,
          "name": "A4",
          "ticks": 63840,
          "time": 47.499886,
          "velocity": 0.6220472440944882
        },
        {
          "duration": 0.27529695833333534,
          "durationTicks": 370,
          "midi": 60,
          "name": "C4",
          "ticks": 64080,
          "time": 47.678456999999995,
          "velocity": 0.6220472440944882
        },
        {
          "duration": 0.27529695833333534,
          "durationTicks": 370,
          "midi": 64,
          "name": "E4",
          "ticks": 64080,
          "time": 47.678456999999995,
          "velocity": 0.6220472440944882
        },
        {
          "duration": 0.27529695833333534,
          "durationTicks": 370,
          "midi": 69,
          "name": "A4",
          "ticks": 64080,
          "time": 47.678456999999995,
          "velocity": 0.6220472440944882
        },
        {
          "duration": 0.07440458333333311,
          "durationTicks": 100,
          "midi": 60,
          "name": "C4",
          "ticks": 64560,
          "time": 48.035599,
          "velocity": 0.6220472440944882
        },
        {
          "duration": 0.07440458333333311,
          "durationTicks": 100,
          "midi": 64,
          "name": "E4",
          "ticks": 64560,
          "time": 48.035599,
          "velocity": 0.6220472440944882
        },
        {
          "duration": 0.07440458333333311,
          "durationTicks": 100,
          "midi": 69,
          "name": "A4",
          "ticks": 64560,
          "time": 48.035599,
          "velocity": 0.6220472440944882
        },
        {
          "duration": 0.23809466666666168,
          "durationTicks": 320,
          "midi": 60,
          "name": "C4",
          "ticks": 64800,
          "time": 48.214169999999996,
          "velocity": 0.6220472440944882
        },
        {
          "duration": 0.23809466666666168,
          "durationTicks": 320,
          "midi": 64,
          "name": "E4",
          "ticks": 64800,
          "time": 48.214169999999996,
          "velocity": 0.6220472440944882
        },
        {
          "duration": 0.23809466666666168,
          "durationTicks": 320,
          "midi": 69,
          "name": "A4",
          "ticks": 64800,
          "time": 48.214169999999996,
          "velocity": 0.6220472440944882
        },
        {
          "duration": 0.23809466666666879,
          "durationTicks": 320,
          "midi": 60,
          "name": "C4",
          "ticks": 65280,
          "time": 48.57131199999999,
          "velocity": 0.6220472440944882
        },
        {
          "duration": 0.23809466666666879,
          "durationTicks": 320,
          "midi": 64,
          "name": "E4",
          "ticks": 65280,
          "time": 48.57131199999999,
          "velocity": 0.6220472440944882
        },
        {
          "duration": 0.23809466666666879,
          "durationTicks": 320,
          "midi": 67,
          "name": "G4",
          "ticks": 65280,
          "time": 48.57131199999999,
          "velocity": 0.6220472440944882
        },
        {
          "duration": 0.23809466666666879,
          "durationTicks": 320,
          "midi": 70,
          "name": "A#4",
          "ticks": 65280,
          "time": 48.57131199999999,
          "velocity": 0.6220472440944882
        },
        {
          "duration": 0.15624962500000095,
          "durationTicks": 210,
          "midi": 60,
          "name": "C4",
          "ticks": 65760,
          "time": 48.928453999999995,
          "velocity": 0.6220472440944882
        },
        {
          "duration": 0.15624962500000095,
          "durationTicks": 210,
          "midi": 64,
          "name": "E4",
          "ticks": 65760,
          "time": 48.928453999999995,
          "velocity": 0.6220472440944882
        },
        {
          "duration": 0.15624962500000095,
          "durationTicks": 210,
          "midi": 67,
          "name": "G4",
          "ticks": 65760,
          "time": 48.928453999999995,
          "velocity": 0.6220472440944882
        },
        {
          "duration": 0.15624962500000095,
          "durationTicks": 210,
          "midi": 70,
          "name": "A#4",
          "ticks": 65760,
          "time": 48.928453999999995,
          "velocity": 0.6220472440944882
        },
        {
          "duration": 0.27529695833333534,
          "durationTicks": 370,
          "midi": 60,
          "name": "C4",
          "ticks": 66000,
          "time": 49.10702499999999,
          "velocity": 0.6220472440944882
        },
        {
          "duration": 0.27529695833333534,
          "durationTicks": 370,
          "midi": 64,
          "name": "E4",
          "ticks": 66000,
          "time": 49.10702499999999,
          "velocity": 0.6220472440944882
        },
        {
          "duration": 0.27529695833333534,
          "durationTicks": 370,
          "midi": 67,
          "name": "G4",
          "ticks": 66000,
          "time": 49.10702499999999,
          "velocity": 0.6220472440944882
        },
        {
          "duration": 0.27529695833333534,
          "durationTicks": 370,
          "midi": 70,
          "name": "A#4",
          "ticks": 66000,
          "time": 49.10702499999999,
          "velocity": 0.6220472440944882
        },
        {
          "duration": 0.08184504166666073,
          "durationTicks": 110,
          "midi": 60,
          "name": "C4",
          "ticks": 66480,
          "time": 49.464166999999996,
          "velocity": 0.6220472440944882
        },
        {
          "duration": 0.08184504166666073,
          "durationTicks": 110,
          "midi": 64,
          "name": "E4",
          "ticks": 66480,
          "time": 49.464166999999996,
          "velocity": 0.6220472440944882
        },
        {
          "duration": 0.08184504166666073,
          "durationTicks": 110,
          "midi": 67,
          "name": "G4",
          "ticks": 66480,
          "time": 49.464166999999996,
          "velocity": 0.6220472440944882
        },
        {
          "duration": 0.08184504166666073,
          "durationTicks": 110,
          "midi": 70,
          "name": "A#4",
          "ticks": 66480,
          "time": 49.464166999999996,
          "velocity": 0.6220472440944882
        },
        {
          "duration": 0.23809466666666168,
          "durationTicks": 320,
          "midi": 60,
          "name": "C4",
          "ticks": 66720,
          "time": 49.642737999999994,
          "velocity": 0.6220472440944882
        },
        {
          "duration": 0.23809466666666168,
          "durationTicks": 320,
          "midi": 64,
          "name": "E4",
          "ticks": 66720,
          "time": 49.642737999999994,
          "velocity": 0.6220472440944882
        },
        {
          "duration": 0.23809466666666168,
          "durationTicks": 320,
          "midi": 67,
          "name": "G4",
          "ticks": 66720,
          "time": 49.642737999999994,
          "velocity": 0.6220472440944882
        },
        {
          "duration": 0.23809466666666168,
          "durationTicks": 320,
          "midi": 70,
          "name": "A#4",
          "ticks": 66720,
          "time": 49.642737999999994,
          "velocity": 0.6220472440944882
        },
        {
          "duration": 0.23809466666666168,
          "durationTicks": 320,
          "midi": 64,
          "name": "E4",
          "ticks": 67200,
          "time": 49.99988,
          "velocity": 0.6220472440944882
        },
        {
          "duration": 0.23809466666666168,
          "durationTicks": 320,
          "midi": 67,
          "name": "G4",
          "ticks": 67200,
          "time": 49.99988,
          "velocity": 0.6220472440944882
        },
        {
          "duration": 0.23809466666666168,
          "durationTicks": 320,
          "midi": 72,
          "name": "C5",
          "ticks": 67200,
          "time": 49.99988,
          "velocity": 0.6220472440944882
        },
        {
          "duration": 0.15624962500000095,
          "durationTicks": 210,
          "midi": 64,
          "name": "E4",
          "ticks": 67680,
          "time": 50.35702199999999,
          "velocity": 0.6220472440944882
        },
        {
          "duration": 0.15624962500000095,
          "durationTicks": 210,
          "midi": 67,
          "name": "G4",
          "ticks": 67680,
          "time": 50.35702199999999,
          "velocity": 0.6220472440944882
        },
        {
          "duration": 0.15624962500000095,
          "durationTicks": 210,
          "midi": 72,
          "name": "C5",
          "ticks": 67680,
          "time": 50.35702199999999,
          "velocity": 0.6220472440944882
        },
        {
          "duration": 0.2157732916666646,
          "durationTicks": 290,
          "midi": 64,
          "name": "E4",
          "ticks": 68040,
          "time": 50.624878499999994,
          "velocity": 0.6220472440944882
        },
        {
          "duration": 0.2157732916666646,
          "durationTicks": 290,
          "midi": 67,
          "name": "G4",
          "ticks": 68040,
          "time": 50.624878499999994,
          "velocity": 0.6220472440944882
        },
        {
          "duration": 0.2157732916666646,
          "durationTicks": 290,
          "midi": 72,
          "name": "C5",
          "ticks": 68040,
          "time": 50.624878499999994,
          "velocity": 0.6220472440944882
        },
        {
          "duration": 0.08184504166666073,
          "durationTicks": 110,
          "midi": 64,
          "name": "E4",
          "ticks": 68400,
          "time": 50.892734999999995,
          "velocity": 0.6220472440944882
        },
        {
          "duration": 0.08184504166666073,
          "durationTicks": 110,
          "midi": 67,
          "name": "G4",
          "ticks": 68400,
          "time": 50.892734999999995,
          "velocity": 0.6220472440944882
        },
        {
          "duration": 0.08184504166666073,
          "durationTicks": 110,
          "midi": 72,
          "name": "C5",
          "ticks": 68400,
          "time": 50.892734999999995,
          "velocity": 0.6220472440944882
        },
        {
          "duration": 0.23809466666666168,
          "durationTicks": 320,
          "midi": 64,
          "name": "E4",
          "ticks": 68640,
          "time": 51.07130599999999,
          "velocity": 0.6220472440944882
        },
        {
          "duration": 0.23809466666666168,
          "durationTicks": 320,
          "midi": 67,
          "name": "G4",
          "ticks": 68640,
          "time": 51.07130599999999,
          "velocity": 0.6220472440944882
        },
        {
          "duration": 0.23809466666666168,
          "durationTicks": 320,
          "midi": 72,
          "name": "C5",
          "ticks": 68640,
          "time": 51.07130599999999,
          "velocity": 0.6220472440944882
        },
        {
          "duration": 0.23809466666666168,
          "durationTicks": 320,
          "midi": 64,
          "name": "E4",
          "ticks": 69120,
          "time": 51.428447999999996,
          "velocity": 0.6220472440944882
        },
        {
          "duration": 0.23809466666666168,
          "durationTicks": 320,
          "midi": 67,
          "name": "G4",
          "ticks": 69120,
          "time": 51.428447999999996,
          "velocity": 0.6220472440944882
        },
        {
          "duration": 0.23809466666666168,
          "durationTicks": 320,
          "midi": 71,
          "name": "B4",
          "ticks": 69120,
          "time": 51.428447999999996,
          "velocity": 0.6220472440944882
        },
        {
          "duration": 0.15624962500000095,
          "durationTicks": 210,
          "midi": 64,
          "name": "E4",
          "ticks": 69600,
          "time": 51.78558999999999,
          "velocity": 0.6220472440944882
        },
        {
          "duration": 0.15624962500000095,
          "durationTicks": 210,
          "midi": 67,
          "name": "G4",
          "ticks": 69600,
          "time": 51.78558999999999,
          "velocity": 0.6220472440944882
        },
        {
          "duration": 0.15624962500000095,
          "durationTicks": 210,
          "midi": 71,
          "name": "B4",
          "ticks": 69600,
          "time": 51.78558999999999,
          "velocity": 0.6220472440944882
        },
        {
          "duration": 0.27529695833333534,
          "durationTicks": 370,
          "midi": 64,
          "name": "E4",
          "ticks": 69840,
          "time": 51.964161,
          "velocity": 0.6220472440944882
        },
        {
          "duration": 0.27529695833333534,
          "durationTicks": 370,
          "midi": 67,
          "name": "G4",
          "ticks": 69840,
          "time": 51.964161,
          "velocity": 0.6220472440944882
        },
        {
          "duration": 0.27529695833333534,
          "durationTicks": 370,
          "midi": 71,
          "name": "B4",
          "ticks": 69840,
          "time": 51.964161,
          "velocity": 0.6220472440944882
        },
        {
          "duration": 0.07440458333334021,
          "durationTicks": 100,
          "midi": 64,
          "name": "E4",
          "ticks": 70320,
          "time": 52.32130299999999,
          "velocity": 0.6220472440944882
        },
        {
          "duration": 0.07440458333334021,
          "durationTicks": 100,
          "midi": 67,
          "name": "G4",
          "ticks": 70320,
          "time": 52.32130299999999,
          "velocity": 0.6220472440944882
        },
        {
          "duration": 0.07440458333334021,
          "durationTicks": 100,
          "midi": 71,
          "name": "B4",
          "ticks": 70320,
          "time": 52.32130299999999,
          "velocity": 0.6220472440944882
        },
        {
          "duration": 0.23809466666666879,
          "durationTicks": 320,
          "midi": 64,
          "name": "E4",
          "ticks": 70560,
          "time": 52.49987399999999,
          "velocity": 0.6220472440944882
        },
        {
          "duration": 0.23809466666666879,
          "durationTicks": 320,
          "midi": 67,
          "name": "G4",
          "ticks": 70560,
          "time": 52.49987399999999,
          "velocity": 0.6220472440944882
        },
        {
          "duration": 0.23809466666666879,
          "durationTicks": 320,
          "midi": 71,
          "name": "B4",
          "ticks": 70560,
          "time": 52.49987399999999,
          "velocity": 0.6220472440944882
        },
        {
          "duration": 0.23809466666666168,
          "durationTicks": 320,
          "midi": 60,
          "name": "C4",
          "ticks": 71040,
          "time": 52.857015999999994,
          "velocity": 0.6220472440944882
        },
        {
          "duration": 0.23809466666666168,
          "durationTicks": 320,
          "midi": 64,
          "name": "E4",
          "ticks": 71040,
          "time": 52.857015999999994,
          "velocity": 0.6220472440944882
        },
        {
          "duration": 0.23809466666666168,
          "durationTicks": 320,
          "midi": 69,
          "name": "A4",
          "ticks": 71040,
          "time": 52.857015999999994,
          "velocity": 0.6220472440944882
        },
        {
          "duration": 0.15624962500000095,
          "durationTicks": 210,
          "midi": 60,
          "name": "C4",
          "ticks": 71520,
          "time": 53.21415799999999,
          "velocity": 0.6220472440944882
        },
        {
          "duration": 0.15624962500000095,
          "durationTicks": 210,
          "midi": 64,
          "name": "E4",
          "ticks": 71520,
          "time": 53.21415799999999,
          "velocity": 0.6220472440944882
        },
        {
          "duration": 0.15624962500000095,
          "durationTicks": 210,
          "midi": 69,
          "name": "A4",
          "ticks": 71520,
          "time": 53.21415799999999,
          "velocity": 0.6220472440944882
        },
        {
          "duration": 0.27529695833333534,
          "durationTicks": 370,
          "midi": 60,
          "name": "C4",
          "ticks": 71760,
          "time": 53.392728999999996,
          "velocity": 0.6220472440944882
        },
        {
          "duration": 0.27529695833333534,
          "durationTicks": 370,
          "midi": 64,
          "name": "E4",
          "ticks": 71760,
          "time": 53.392728999999996,
          "velocity": 0.6220472440944882
        },
        {
          "duration": 0.27529695833333534,
          "durationTicks": 370,
          "midi": 69,
          "name": "A4",
          "ticks": 71760,
          "time": 53.392728999999996,
          "velocity": 0.6220472440944882
        },
        {
          "duration": 0.07440458333334021,
          "durationTicks": 100,
          "midi": 60,
          "name": "C4",
          "ticks": 72240,
          "time": 53.74987099999999,
          "velocity": 0.6220472440944882
        },
        {
          "duration": 0.07440458333334021,
          "durationTicks": 100,
          "midi": 64,
          "name": "E4",
          "ticks": 72240,
          "time": 53.74987099999999,
          "velocity": 0.6220472440944882
        },
        {
          "duration": 0.07440458333334021,
          "durationTicks": 100,
          "midi": 69,
          "name": "A4",
          "ticks": 72240,
          "time": 53.74987099999999,
          "velocity": 0.6220472440944882
        },
        {
          "duration": 0.23809466666666168,
          "durationTicks": 320,
          "midi": 60,
          "name": "C4",
          "ticks": 72480,
          "time": 53.928442,
          "velocity": 0.6220472440944882
        },
        {
          "duration": 0.23809466666666168,
          "durationTicks": 320,
          "midi": 64,
          "name": "E4",
          "ticks": 72480,
          "time": 53.928442,
          "velocity": 0.6220472440944882
        },
        {
          "duration": 0.23809466666666168,
          "durationTicks": 320,
          "midi": 69,
          "name": "A4",
          "ticks": 72480,
          "time": 53.928442,
          "velocity": 0.6220472440944882
        },
        {
          "duration": 0.23809466666666168,
          "durationTicks": 320,
          "midi": 62,
          "name": "D4",
          "ticks": 72960,
          "time": 54.28558399999999,
          "velocity": 0.6220472440944882
        },
        {
          "duration": 0.23809466666666168,
          "durationTicks": 320,
          "midi": 65,
          "name": "F4",
          "ticks": 72960,
          "time": 54.28558399999999,
          "velocity": 0.6220472440944882
        },
        {
          "duration": 0.23809466666666168,
          "durationTicks": 320,
          "midi": 69,
          "name": "A4",
          "ticks": 72960,
          "time": 54.28558399999999,
          "velocity": 0.6220472440944882
        },
        {
          "duration": 0.23809466666666168,
          "durationTicks": 320,
          "midi": 72,
          "name": "C5",
          "ticks": 72960,
          "time": 54.28558399999999,
          "velocity": 0.6220472440944882
        },
        {
          "duration": 0.15624962500000095,
          "durationTicks": 210,
          "midi": 62,
          "name": "D4",
          "ticks": 73440,
          "time": 54.642725999999996,
          "velocity": 0.6220472440944882
        },
        {
          "duration": 0.15624962500000095,
          "durationTicks": 210,
          "midi": 65,
          "name": "F4",
          "ticks": 73440,
          "time": 54.642725999999996,
          "velocity": 0.6220472440944882
        },
        {
          "duration": 0.15624962500000095,
          "durationTicks": 210,
          "midi": 69,
          "name": "A4",
          "ticks": 73440,
          "time": 54.642725999999996,
          "velocity": 0.6220472440944882
        },
        {
          "duration": 0.15624962500000095,
          "durationTicks": 210,
          "midi": 72,
          "name": "C5",
          "ticks": 73440,
          "time": 54.642725999999996,
          "velocity": 0.6220472440944882
        },
        {
          "duration": 0.27529695833333534,
          "durationTicks": 370,
          "midi": 62,
          "name": "D4",
          "ticks": 73680,
          "time": 54.821296999999994,
          "velocity": 0.6220472440944882
        },
        {
          "duration": 0.27529695833333534,
          "durationTicks": 370,
          "midi": 65,
          "name": "F4",
          "ticks": 73680,
          "time": 54.821296999999994,
          "velocity": 0.6220472440944882
        },
        {
          "duration": 0.27529695833333534,
          "durationTicks": 370,
          "midi": 69,
          "name": "A4",
          "ticks": 73680,
          "time": 54.821296999999994,
          "velocity": 0.6220472440944882
        },
        {
          "duration": 0.27529695833333534,
          "durationTicks": 370,
          "midi": 72,
          "name": "C5",
          "ticks": 73680,
          "time": 54.821296999999994,
          "velocity": 0.6220472440944882
        },
        {
          "duration": 0.08184504166666784,
          "durationTicks": 110,
          "midi": 62,
          "name": "D4",
          "ticks": 74160,
          "time": 55.17843899999999,
          "velocity": 0.6220472440944882
        },
        {
          "duration": 0.08184504166666784,
          "durationTicks": 110,
          "midi": 65,
          "name": "F4",
          "ticks": 74160,
          "time": 55.17843899999999,
          "velocity": 0.6220472440944882
        },
        {
          "duration": 0.08184504166666784,
          "durationTicks": 110,
          "midi": 69,
          "name": "A4",
          "ticks": 74160,
          "time": 55.17843899999999,
          "velocity": 0.6220472440944882
        },
        {
          "duration": 0.08184504166666784,
          "durationTicks": 110,
          "midi": 72,
          "name": "C5",
          "ticks": 74160,
          "time": 55.17843899999999,
          "velocity": 0.6220472440944882
        },
        {
          "duration": 0.23809466666666168,
          "durationTicks": 320,
          "midi": 62,
          "name": "D4",
          "ticks": 74400,
          "time": 55.357009999999995,
          "velocity": 0.6220472440944882
        },
        {
          "duration": 0.23809466666666168,
          "durationTicks": 320,
          "midi": 65,
          "name": "F4",
          "ticks": 74400,
          "time": 55.357009999999995,
          "velocity": 0.6220472440944882
        },
        {
          "duration": 0.23809466666666168,
          "durationTicks": 320,
          "midi": 69,
          "name": "A4",
          "ticks": 74400,
          "time": 55.357009999999995,
          "velocity": 0.6220472440944882
        },
        {
          "duration": 0.23809466666666168,
          "durationTicks": 320,
          "midi": 72,
          "name": "C5",
          "ticks": 74400,
          "time": 55.357009999999995,
          "velocity": 0.6220472440944882
        },
        {
          "duration": 0.23809466666666879,
          "durationTicks": 320,
          "midi": 62,
          "name": "D4",
          "ticks": 74880,
          "time": 55.71415199999999,
          "velocity": 0.6220472440944882
        },
        {
          "duration": 0.23809466666666879,
          "durationTicks": 320,
          "midi": 65,
          "name": "F4",
          "ticks": 74880,
          "time": 55.71415199999999,
          "velocity": 0.6220472440944882
        },
        {
          "duration": 0.23809466666666879,
          "durationTicks": 320,
          "midi": 67,
          "name": "G4",
          "ticks": 74880,
          "time": 55.71415199999999,
          "velocity": 0.6220472440944882
        },
        {
          "duration": 0.23809466666666879,
          "durationTicks": 320,
          "midi": 71,
          "name": "B4",
          "ticks": 74880,
          "time": 55.71415199999999,
          "velocity": 0.6220472440944882
        },
        {
          "duration": 0.15624962500000095,
          "durationTicks": 210,
          "midi": 62,
          "name": "D4",
          "ticks": 75360,
          "time": 56.071293999999995,
          "velocity": 0.6220472440944882
        },
        {
          "duration": 0.15624962500000095,
          "durationTicks": 210,
          "midi": 65,
          "name": "F4",
          "ticks": 75360,
          "time": 56.071293999999995,
          "velocity": 0.6220472440944882
        },
        {
          "duration": 0.15624962500000095,
          "durationTicks": 210,
          "midi": 67,
          "name": "G4",
          "ticks": 75360,
          "time": 56.071293999999995,
          "velocity": 0.6220472440944882
        },
        {
          "duration": 0.15624962500000095,
          "durationTicks": 210,
          "midi": 71,
          "name": "B4",
          "ticks": 75360,
          "time": 56.071293999999995,
          "velocity": 0.6220472440944882
        },
        {
          "duration": 0.27529695833333534,
          "durationTicks": 370,
          "midi": 62,
          "name": "D4",
          "ticks": 75600,
          "time": 56.24986499999999,
          "velocity": 0.6220472440944882
        },
        {
          "duration": 0.27529695833333534,
          "durationTicks": 370,
          "midi": 65,
          "name": "F4",
          "ticks": 75600,
          "time": 56.24986499999999,
          "velocity": 0.6220472440944882
        },
        {
          "duration": 0.27529695833333534,
          "durationTicks": 370,
          "midi": 67,
          "name": "G4",
          "ticks": 75600,
          "time": 56.24986499999999,
          "velocity": 0.6220472440944882
        },
        {
          "duration": 0.27529695833333534,
          "durationTicks": 370,
          "midi": 71,
          "name": "B4",
          "ticks": 75600,
          "time": 56.24986499999999,
          "velocity": 0.6220472440944882
        },
        {
          "duration": 0.08184504166666073,
          "durationTicks": 110,
          "midi": 62,
          "name": "D4",
          "ticks": 76080,
          "time": 56.607006999999996,
          "velocity": 0.6220472440944882
        },
        {
          "duration": 0.08184504166666073,
          "durationTicks": 110,
          "midi": 65,
          "name": "F4",
          "ticks": 76080,
          "time": 56.607006999999996,
          "velocity": 0.6220472440944882
        },
        {
          "duration": 0.08184504166666073,
          "durationTicks": 110,
          "midi": 67,
          "name": "G4",
          "ticks": 76080,
          "time": 56.607006999999996,
          "velocity": 0.6220472440944882
        },
        {
          "duration": 0.08184504166666073,
          "durationTicks": 110,
          "midi": 71,
          "name": "B4",
          "ticks": 76080,
          "time": 56.607006999999996,
          "velocity": 0.6220472440944882
        },
        {
          "duration": 0.23809466666666168,
          "durationTicks": 320,
          "midi": 62,
          "name": "D4",
          "ticks": 76320,
          "time": 56.785577999999994,
          "velocity": 0.6220472440944882
        },
        {
          "duration": 0.23809466666666168,
          "durationTicks": 320,
          "midi": 65,
          "name": "F4",
          "ticks": 76320,
          "time": 56.785577999999994,
          "velocity": 0.6220472440944882
        },
        {
          "duration": 0.23809466666666168,
          "durationTicks": 320,
          "midi": 67,
          "name": "G4",
          "ticks": 76320,
          "time": 56.785577999999994,
          "velocity": 0.6220472440944882
        },
        {
          "duration": 0.23809466666666168,
          "durationTicks": 320,
          "midi": 71,
          "name": "B4",
          "ticks": 76320,
          "time": 56.785577999999994,
          "velocity": 0.6220472440944882
        },
        {
          "duration": 0.23809466666666168,
          "durationTicks": 320,
          "midi": 60,
          "name": "C4",
          "ticks": 76800,
          "time": 57.14272,
          "velocity": 0.6220472440944882
        },
        {
          "duration": 0.23809466666666168,
          "durationTicks": 320,
          "midi": 64,
          "name": "E4",
          "ticks": 76800,
          "time": 57.14272,
          "velocity": 0.6220472440944882
        },
        {
          "duration": 0.23809466666666168,
          "durationTicks": 320,
          "midi": 67,
          "name": "G4",
          "ticks": 76800,
          "time": 57.14272,
          "velocity": 0.6220472440944882
        },
        {
          "duration": 0.23809466666666168,
          "durationTicks": 320,
          "midi": 70,
          "name": "A#4",
          "ticks": 76800,
          "time": 57.14272,
          "velocity": 0.6220472440944882
        },
        {
          "duration": 0.15624962500000095,
          "durationTicks": 210,
          "midi": 60,
          "name": "C4",
          "ticks": 77280,
          "time": 57.49986199999999,
          "velocity": 0.6220472440944882
        },
        {
          "duration": 0.15624962500000095,
          "durationTicks": 210,
          "midi": 64,
          "name": "E4",
          "ticks": 77280,
          "time": 57.49986199999999,
          "velocity": 0.6220472440944882
        },
        {
          "duration": 0.15624962500000095,
          "durationTicks": 210,
          "midi": 67,
          "name": "G4",
          "ticks": 77280,
          "time": 57.49986199999999,
          "velocity": 0.6220472440944882
        },
        {
          "duration": 0.15624962500000095,
          "durationTicks": 210,
          "midi": 70,
          "name": "A#4",
          "ticks": 77280,
          "time": 57.49986199999999,
          "velocity": 0.6220472440944882
        },
        {
          "duration": 0.08184504166666784,
          "durationTicks": 110,
          "midi": 60,
          "name": "C4",
          "ticks": 77520,
          "time": 57.67843299999999,
          "velocity": 0.6220472440944882
        },
        {
          "duration": 0.08184504166666784,
          "durationTicks": 110,
          "midi": 64,
          "name": "E4",
          "ticks": 77520,
          "time": 57.67843299999999,
          "velocity": 0.6220472440944882
        },
        {
          "duration": 0.08184504166666784,
          "durationTicks": 110,
          "midi": 67,
          "name": "G4",
          "ticks": 77520,
          "time": 57.67843299999999,
          "velocity": 0.6220472440944882
        },
        {
          "duration": 0.08184504166666784,
          "durationTicks": 110,
          "midi": 70,
          "name": "A#4",
          "ticks": 77520,
          "time": 57.67843299999999,
          "velocity": 0.6220472440944882
        },
        {
          "duration": 0.23809466666666168,
          "durationTicks": 320,
          "midi": 60,
          "name": "C4",
          "ticks": 77760,
          "time": 57.857003999999996,
          "velocity": 0.6220472440944882
        },
        {
          "duration": 0.23809466666666168,
          "durationTicks": 320,
          "midi": 64,
          "name": "E4",
          "ticks": 77760,
          "time": 57.857003999999996,
          "velocity": 0.6220472440944882
        },
        {
          "duration": 0.23809466666666168,
          "durationTicks": 320,
          "midi": 67,
          "name": "G4",
          "ticks": 77760,
          "time": 57.857003999999996,
          "velocity": 0.6220472440944882
        },
        {
          "duration": 0.23809466666666168,
          "durationTicks": 320,
          "midi": 70,
          "name": "A#4",
          "ticks": 77760,
          "time": 57.857003999999996,
          "velocity": 0.6220472440944882
        },
        {
          "duration": 0.15624962500000095,
          "durationTicks": 210,
          "midi": 60,
          "name": "C4",
          "ticks": 78240,
          "time": 58.21414599999999,
          "velocity": 0.6220472440944882
        },
        {
          "duration": 0.15624962500000095,
          "durationTicks": 210,
          "midi": 64,
          "name": "E4",
          "ticks": 78240,
          "time": 58.21414599999999,
          "velocity": 0.6220472440944882
        },
        {
          "duration": 0.15624962500000095,
          "durationTicks": 210,
          "midi": 67,
          "name": "G4",
          "ticks": 78240,
          "time": 58.21414599999999,
          "velocity": 0.6220472440944882
        },
        {
          "duration": 0.15624962500000095,
          "durationTicks": 210,
          "midi": 70,
          "name": "A#4",
          "ticks": 78240,
          "time": 58.21414599999999,
          "velocity": 0.6220472440944882
        },
        {
          "duration": 0.08184504166666784,
          "durationTicks": 110,
          "midi": 60,
          "name": "C4",
          "ticks": 78480,
          "time": 58.39271699999999,
          "velocity": 0.6220472440944882
        },
        {
          "duration": 0.08184504166666784,
          "durationTicks": 110,
          "midi": 64,
          "name": "E4",
          "ticks": 78480,
          "time": 58.39271699999999,
          "velocity": 0.6220472440944882
        },
        {
          "duration": 0.08184504166666784,
          "durationTicks": 110,
          "midi": 67,
          "name": "G4",
          "ticks": 78480,
          "time": 58.39271699999999,
          "velocity": 0.6220472440944882
        },
        {
          "duration": 0.08184504166666784,
          "durationTicks": 110,
          "midi": 70,
          "name": "A#4",
          "ticks": 78480,
          "time": 58.39271699999999,
          "velocity": 0.6220472440944882
        },
        {
          "duration": 0.23809466666666168,
          "durationTicks": 320,
          "midi": 60,
          "name": "C4",
          "ticks": 78720,
          "time": 58.571287999999996,
          "velocity": 0.6220472440944882
        },
        {
          "duration": 0.23809466666666168,
          "durationTicks": 320,
          "midi": 64,
          "name": "E4",
          "ticks": 78720,
          "time": 58.571287999999996,
          "velocity": 0.6220472440944882
        },
        {
          "duration": 0.23809466666666168,
          "durationTicks": 320,
          "midi": 67,
          "name": "G4",
          "ticks": 78720,
          "time": 58.571287999999996,
          "velocity": 0.6220472440944882
        },
        {
          "duration": 0.23809466666666168,
          "durationTicks": 320,
          "midi": 70,
          "name": "A#4",
          "ticks": 78720,
          "time": 58.571287999999996,
          "velocity": 0.6220472440944882
        },
        {
          "duration": 0.15624962500000095,
          "durationTicks": 210,
          "midi": 60,
          "name": "C4",
          "ticks": 79200,
          "time": 58.92842999999999,
          "velocity": 0.6220472440944882
        },
        {
          "duration": 0.15624962500000095,
          "durationTicks": 210,
          "midi": 64,
          "name": "E4",
          "ticks": 79200,
          "time": 58.92842999999999,
          "velocity": 0.6220472440944882
        },
        {
          "duration": 0.15624962500000095,
          "durationTicks": 210,
          "midi": 67,
          "name": "G4",
          "ticks": 79200,
          "time": 58.92842999999999,
          "velocity": 0.6220472440944882
        },
        {
          "duration": 0.15624962500000095,
          "durationTicks": 210,
          "midi": 70,
          "name": "A#4",
          "ticks": 79200,
          "time": 58.92842999999999,
          "velocity": 0.6220472440944882
        },
        {
          "duration": 0.08184504166666073,
          "durationTicks": 110,
          "midi": 60,
          "name": "C4",
          "ticks": 79440,
          "time": 59.107001,
          "velocity": 0.6220472440944882
        },
        {
          "duration": 0.08184504166666073,
          "durationTicks": 110,
          "midi": 64,
          "name": "E4",
          "ticks": 79440,
          "time": 59.107001,
          "velocity": 0.6220472440944882
        },
        {
          "duration": 0.08184504166666073,
          "durationTicks": 110,
          "midi": 67,
          "name": "G4",
          "ticks": 79440,
          "time": 59.107001,
          "velocity": 0.6220472440944882
        },
        {
          "duration": 0.08184504166666073,
          "durationTicks": 110,
          "midi": 70,
          "name": "A#4",
          "ticks": 79440,
          "time": 59.107001,
          "velocity": 0.6220472440944882
        },
        {
          "duration": 0.23809466666666168,
          "durationTicks": 320,
          "midi": 60,
          "name": "C4",
          "ticks": 79680,
          "time": 59.285571999999995,
          "velocity": 0.6220472440944882
        },
        {
          "duration": 0.23809466666666168,
          "durationTicks": 320,
          "midi": 64,
          "name": "E4",
          "ticks": 79680,
          "time": 59.285571999999995,
          "velocity": 0.6220472440944882
        },
        {
          "duration": 0.23809466666666168,
          "durationTicks": 320,
          "midi": 67,
          "name": "G4",
          "ticks": 79680,
          "time": 59.285571999999995,
          "velocity": 0.6220472440944882
        },
        {
          "duration": 0.23809466666666168,
          "durationTicks": 320,
          "midi": 70,
          "name": "A#4",
          "ticks": 79680,
          "time": 59.285571999999995,
          "velocity": 0.6220472440944882
        },
        {
          "duration": 0.15624962500000095,
          "durationTicks": 210,
          "midi": 60,
          "name": "C4",
          "ticks": 80160,
          "time": 59.64271399999999,
          "velocity": 0.6220472440944882
        },
        {
          "duration": 0.15624962500000095,
          "durationTicks": 210,
          "midi": 64,
          "name": "E4",
          "ticks": 80160,
          "time": 59.64271399999999,
          "velocity": 0.6220472440944882
        },
        {
          "duration": 0.15624962500000095,
          "durationTicks": 210,
          "midi": 67,
          "name": "G4",
          "ticks": 80160,
          "time": 59.64271399999999,
          "velocity": 0.6220472440944882
        },
        {
          "duration": 0.15624962500000095,
          "durationTicks": 210,
          "midi": 70,
          "name": "A#4",
          "ticks": 80160,
          "time": 59.64271399999999,
          "velocity": 0.6220472440944882
        },
        {
          "duration": 0.08184504166666073,
          "durationTicks": 110,
          "midi": 60,
          "name": "C4",
          "ticks": 80400,
          "time": 59.821284999999996,
          "velocity": 0.6220472440944882
        },
        {
          "duration": 0.08184504166666073,
          "durationTicks": 110,
          "midi": 64,
          "name": "E4",
          "ticks": 80400,
          "time": 59.821284999999996,
          "velocity": 0.6220472440944882
        },
        {
          "duration": 0.08184504166666073,
          "durationTicks": 110,
          "midi": 67,
          "name": "G4",
          "ticks": 80400,
          "time": 59.821284999999996,
          "velocity": 0.6220472440944882
        },
        {
          "duration": 0.08184504166666073,
          "durationTicks": 110,
          "midi": 70,
          "name": "A#4",
          "ticks": 80400,
          "time": 59.821284999999996,
          "velocity": 0.6220472440944882
        },
        {
          "duration": 0.23809466666666168,
          "durationTicks": 320,
          "midi": 60,
          "name": "C4",
          "ticks": 80640,
          "time": 59.999855999999994,
          "velocity": 0.6220472440944882
        },
        {
          "duration": 0.23809466666666168,
          "durationTicks": 320,
          "midi": 64,
          "name": "E4",
          "ticks": 80640,
          "time": 59.999855999999994,
          "velocity": 0.6220472440944882
        },
        {
          "duration": 0.23809466666666168,
          "durationTicks": 320,
          "midi": 67,
          "name": "G4",
          "ticks": 80640,
          "time": 59.999855999999994,
          "velocity": 0.6220472440944882
        },
        {
          "duration": 0.23809466666666168,
          "durationTicks": 320,
          "midi": 70,
          "name": "A#4",
          "ticks": 80640,
          "time": 59.999855999999994,
          "velocity": 0.6220472440944882
        },
        {
          "duration": 0.15624962500000095,
          "durationTicks": 210,
          "midi": 60,
          "name": "C4",
          "ticks": 81120,
          "time": 60.35699799999999,
          "velocity": 0.6220472440944882
        },
        {
          "duration": 0.15624962500000095,
          "durationTicks": 210,
          "midi": 64,
          "name": "E4",
          "ticks": 81120,
          "time": 60.35699799999999,
          "velocity": 0.6220472440944882
        },
        {
          "duration": 0.15624962500000095,
          "durationTicks": 210,
          "midi": 67,
          "name": "G4",
          "ticks": 81120,
          "time": 60.35699799999999,
          "velocity": 0.6220472440944882
        },
        {
          "duration": 0.15624962500000095,
          "durationTicks": 210,
          "midi": 70,
          "name": "A#4",
          "ticks": 81120,
          "time": 60.35699799999999,
          "velocity": 0.6220472440944882
        },
        {
          "duration": 0.08184504166666073,
          "durationTicks": 110,
          "midi": 60,
          "name": "C4",
          "ticks": 81360,
          "time": 60.535568999999995,
          "velocity": 0.6220472440944882
        },
        {
          "duration": 0.08184504166666073,
          "durationTicks": 110,
          "midi": 64,
          "name": "E4",
          "ticks": 81360,
          "time": 60.535568999999995,
          "velocity": 0.6220472440944882
        },
        {
          "duration": 0.08184504166666073,
          "durationTicks": 110,
          "midi": 67,
          "name": "G4",
          "ticks": 81360,
          "time": 60.535568999999995,
          "velocity": 0.6220472440944882
        },
        {
          "duration": 0.08184504166666073,
          "durationTicks": 110,
          "midi": 70,
          "name": "A#4",
          "ticks": 81360,
          "time": 60.535568999999995,
          "velocity": 0.6220472440944882
        },
        {
          "duration": 0.23809466666666168,
          "durationTicks": 320,
          "midi": 60,
          "name": "C4",
          "ticks": 81600,
          "time": 60.71413999999999,
          "velocity": 0.6220472440944882
        },
        {
          "duration": 0.23809466666666168,
          "durationTicks": 320,
          "midi": 64,
          "name": "E4",
          "ticks": 81600,
          "time": 60.71413999999999,
          "velocity": 0.6220472440944882
        },
        {
          "duration": 0.23809466666666168,
          "durationTicks": 320,
          "midi": 67,
          "name": "G4",
          "ticks": 81600,
          "time": 60.71413999999999,
          "velocity": 0.6220472440944882
        },
        {
          "duration": 0.23809466666666168,
          "durationTicks": 320,
          "midi": 70,
          "name": "A#4",
          "ticks": 81600,
          "time": 60.71413999999999,
          "velocity": 0.6220472440944882
        },
        {
          "duration": 0.15624962499999384,
          "durationTicks": 210,
          "midi": 60,
          "name": "C4",
          "ticks": 82080,
          "time": 61.071282,
          "velocity": 0.6220472440944882
        },
        {
          "duration": 0.15624962499999384,
          "durationTicks": 210,
          "midi": 64,
          "name": "E4",
          "ticks": 82080,
          "time": 61.071282,
          "velocity": 0.6220472440944882
        },
        {
          "duration": 0.15624962499999384,
          "durationTicks": 210,
          "midi": 67,
          "name": "G4",
          "ticks": 82080,
          "time": 61.071282,
          "velocity": 0.6220472440944882
        },
        {
          "duration": 0.15624962499999384,
          "durationTicks": 210,
          "midi": 70,
          "name": "A#4",
          "ticks": 82080,
          "time": 61.071282,
          "velocity": 0.6220472440944882
        },
        {
          "duration": 0.08184504166666073,
          "durationTicks": 110,
          "midi": 60,
          "name": "C4",
          "ticks": 82320,
          "time": 61.249852999999995,
          "velocity": 0.6220472440944882
        },
        {
          "duration": 0.08184504166666073,
          "durationTicks": 110,
          "midi": 64,
          "name": "E4",
          "ticks": 82320,
          "time": 61.249852999999995,
          "velocity": 0.6220472440944882
        },
        {
          "duration": 0.08184504166666073,
          "durationTicks": 110,
          "midi": 67,
          "name": "G4",
          "ticks": 82320,
          "time": 61.249852999999995,
          "velocity": 0.6220472440944882
        },
        {
          "duration": 0.08184504166666073,
          "durationTicks": 110,
          "midi": 70,
          "name": "A#4",
          "ticks": 82320,
          "time": 61.249852999999995,
          "velocity": 0.6220472440944882
        },
        {
          "duration": 0.23809466666666168,
          "durationTicks": 320,
          "midi": 60,
          "name": "C4",
          "ticks": 82560,
          "time": 61.42842399999999,
          "velocity": 0.6220472440944882
        },
        {
          "duration": 0.23809466666666168,
          "durationTicks": 320,
          "midi": 64,
          "name": "E4",
          "ticks": 82560,
          "time": 61.42842399999999,
          "velocity": 0.6220472440944882
        },
        {
          "duration": 0.23809466666666168,
          "durationTicks": 320,
          "midi": 67,
          "name": "G4",
          "ticks": 82560,
          "time": 61.42842399999999,
          "velocity": 0.6220472440944882
        },
        {
          "duration": 0.23809466666666168,
          "durationTicks": 320,
          "midi": 70,
          "name": "A#4",
          "ticks": 82560,
          "time": 61.42842399999999,
          "velocity": 0.6220472440944882
        },
        {
          "duration": 0.15624962499999384,
          "durationTicks": 210,
          "midi": 60,
          "name": "C4",
          "ticks": 83040,
          "time": 61.785565999999996,
          "velocity": 0.6220472440944882
        },
        {
          "duration": 0.15624962499999384,
          "durationTicks": 210,
          "midi": 64,
          "name": "E4",
          "ticks": 83040,
          "time": 61.785565999999996,
          "velocity": 0.6220472440944882
        },
        {
          "duration": 0.15624962499999384,
          "durationTicks": 210,
          "midi": 67,
          "name": "G4",
          "ticks": 83040,
          "time": 61.785565999999996,
          "velocity": 0.6220472440944882
        },
        {
          "duration": 0.15624962499999384,
          "durationTicks": 210,
          "midi": 70,
          "name": "A#4",
          "ticks": 83040,
          "time": 61.785565999999996,
          "velocity": 0.6220472440944882
        },
        {
          "duration": 0.08184504166666073,
          "durationTicks": 110,
          "midi": 60,
          "name": "C4",
          "ticks": 83280,
          "time": 61.964136999999994,
          "velocity": 0.6220472440944882
        },
        {
          "duration": 0.08184504166666073,
          "durationTicks": 110,
          "midi": 64,
          "name": "E4",
          "ticks": 83280,
          "time": 61.964136999999994,
          "velocity": 0.6220472440944882
        },
        {
          "duration": 0.08184504166666073,
          "durationTicks": 110,
          "midi": 67,
          "name": "G4",
          "ticks": 83280,
          "time": 61.964136999999994,
          "velocity": 0.6220472440944882
        },
        {
          "duration": 0.08184504166666073,
          "durationTicks": 110,
          "midi": 70,
          "name": "A#4",
          "ticks": 83280,
          "time": 61.964136999999994,
          "velocity": 0.6220472440944882
        },
        {
          "duration": 0.23809466666666168,
          "durationTicks": 320,
          "midi": 60,
          "name": "C4",
          "ticks": 83520,
          "time": 62.14270799999999,
          "velocity": 0.6220472440944882
        },
        {
          "duration": 0.23809466666666168,
          "durationTicks": 320,
          "midi": 64,
          "name": "E4",
          "ticks": 83520,
          "time": 62.14270799999999,
          "velocity": 0.6220472440944882
        },
        {
          "duration": 0.23809466666666168,
          "durationTicks": 320,
          "midi": 67,
          "name": "G4",
          "ticks": 83520,
          "time": 62.14270799999999,
          "velocity": 0.6220472440944882
        },
        {
          "duration": 0.23809466666666168,
          "durationTicks": 320,
          "midi": 70,
          "name": "A#4",
          "ticks": 83520,
          "time": 62.14270799999999,
          "velocity": 0.6220472440944882
        },
        {
          "duration": 0.15624962500000095,
          "durationTicks": 210,
          "midi": 60,
          "name": "C4",
          "ticks": 84000,
          "time": 62.499849999999995,
          "velocity": 0.6220472440944882
        },
        {
          "duration": 0.15624962500000095,
          "durationTicks": 210,
          "midi": 64,
          "name": "E4",
          "ticks": 84000,
          "time": 62.499849999999995,
          "velocity": 0.6220472440944882
        },
        {
          "duration": 0.15624962500000095,
          "durationTicks": 210,
          "midi": 67,
          "name": "G4",
          "ticks": 84000,
          "time": 62.499849999999995,
          "velocity": 0.6220472440944882
        },
        {
          "duration": 0.15624962500000095,
          "durationTicks": 210,
          "midi": 70,
          "name": "A#4",
          "ticks": 84000,
          "time": 62.499849999999995,
          "velocity": 0.6220472440944882
        },
        {
          "duration": 0.08184504166666073,
          "durationTicks": 110,
          "midi": 60,
          "name": "C4",
          "ticks": 84240,
          "time": 62.67842099999999,
          "velocity": 0.6220472440944882
        },
        {
          "duration": 0.08184504166666073,
          "durationTicks": 110,
          "midi": 64,
          "name": "E4",
          "ticks": 84240,
          "time": 62.67842099999999,
          "velocity": 0.6220472440944882
        },
        {
          "duration": 0.08184504166666073,
          "durationTicks": 110,
          "midi": 67,
          "name": "G4",
          "ticks": 84240,
          "time": 62.67842099999999,
          "velocity": 0.6220472440944882
        },
        {
          "duration": 0.08184504166666073,
          "durationTicks": 110,
          "midi": 70,
          "name": "A#4",
          "ticks": 84240,
          "time": 62.67842099999999,
          "velocity": 0.6220472440944882
        },
        {
          "duration": 0.23809466666666168,
          "durationTicks": 320,
          "midi": 63,
          "name": "D#4",
          "ticks": 84480,
          "time": 62.85699199999999,
          "velocity": 0.6220472440944882
        },
        {
          "duration": 0.23809466666666168,
          "durationTicks": 320,
          "midi": 65,
          "name": "F4",
          "ticks": 84480,
          "time": 62.85699199999999,
          "velocity": 0.6220472440944882
        },
        {
          "duration": 0.23809466666666168,
          "durationTicks": 320,
          "midi": 69,
          "name": "A4",
          "ticks": 84480,
          "time": 62.85699199999999,
          "velocity": 0.6220472440944882
        },
        {
          "duration": 0.23809466666666168,
          "durationTicks": 320,
          "midi": 72,
          "name": "C5",
          "ticks": 84480,
          "time": 62.85699199999999,
          "velocity": 0.6220472440944882
        },
        {
          "duration": 0.1488091666666591,
          "durationTicks": 200,
          "midi": 63,
          "name": "D#4",
          "ticks": 84960,
          "time": 63.214133999999994,
          "velocity": 0.6220472440944882
        },
        {
          "duration": 0.1488091666666591,
          "durationTicks": 200,
          "midi": 65,
          "name": "F4",
          "ticks": 84960,
          "time": 63.214133999999994,
          "velocity": 0.6220472440944882
        },
        {
          "duration": 0.1488091666666591,
          "durationTicks": 200,
          "midi": 69,
          "name": "A4",
          "ticks": 84960,
          "time": 63.214133999999994,
          "velocity": 0.6220472440944882
        },
        {
          "duration": 0.1488091666666591,
          "durationTicks": 200,
          "midi": 72,
          "name": "C5",
          "ticks": 84960,
          "time": 63.214133999999994,
          "velocity": 0.6220472440944882
        },
        {
          "duration": 0.07440458333334021,
          "durationTicks": 100,
          "midi": 63,
          "name": "D#4",
          "ticks": 85200,
          "time": 63.39270499999999,
          "velocity": 0.6220472440944882
        },
        {
          "duration": 0.07440458333334021,
          "durationTicks": 100,
          "midi": 65,
          "name": "F4",
          "ticks": 85200,
          "time": 63.39270499999999,
          "velocity": 0.6220472440944882
        },
        {
          "duration": 0.07440458333334021,
          "durationTicks": 100,
          "midi": 69,
          "name": "A4",
          "ticks": 85200,
          "time": 63.39270499999999,
          "velocity": 0.6220472440944882
        },
        {
          "duration": 0.07440458333334021,
          "durationTicks": 100,
          "midi": 72,
          "name": "C5",
          "ticks": 85200,
          "time": 63.39270499999999,
          "velocity": 0.6220472440944882
        },
        {
          "duration": 0.23809466666666879,
          "durationTicks": 320,
          "midi": 63,
          "name": "D#4",
          "ticks": 85440,
          "time": 63.57127599999999,
          "velocity": 0.6220472440944882
        },
        {
          "duration": 0.23809466666666879,
          "durationTicks": 320,
          "midi": 65,
          "name": "F4",
          "ticks": 85440,
          "time": 63.57127599999999,
          "velocity": 0.6220472440944882
        },
        {
          "duration": 0.23809466666666879,
          "durationTicks": 320,
          "midi": 69,
          "name": "A4",
          "ticks": 85440,
          "time": 63.57127599999999,
          "velocity": 0.6220472440944882
        },
        {
          "duration": 0.23809466666666879,
          "durationTicks": 320,
          "midi": 72,
          "name": "C5",
          "ticks": 85440,
          "time": 63.57127599999999,
          "velocity": 0.6220472440944882
        },
        {
          "duration": 0.14880916666666621,
          "durationTicks": 200,
          "midi": 63,
          "name": "D#4",
          "ticks": 85920,
          "time": 63.92841799999999,
          "velocity": 0.6220472440944882
        },
        {
          "duration": 0.14880916666666621,
          "durationTicks": 200,
          "midi": 65,
          "name": "F4",
          "ticks": 85920,
          "time": 63.92841799999999,
          "velocity": 0.6220472440944882
        },
        {
          "duration": 0.14880916666666621,
          "durationTicks": 200,
          "midi": 69,
          "name": "A4",
          "ticks": 85920,
          "time": 63.92841799999999,
          "velocity": 0.6220472440944882
        },
        {
          "duration": 0.14880916666666621,
          "durationTicks": 200,
          "midi": 72,
          "name": "C5",
          "ticks": 85920,
          "time": 63.92841799999999,
          "velocity": 0.6220472440944882
        },
        {
          "duration": 0.07440458333333311,
          "durationTicks": 100,
          "midi": 63,
          "name": "D#4",
          "ticks": 86160,
          "time": 64.106989,
          "velocity": 0.6220472440944882
        },
        {
          "duration": 0.07440458333333311,
          "durationTicks": 100,
          "midi": 65,
          "name": "F4",
          "ticks": 86160,
          "time": 64.106989,
          "velocity": 0.6220472440944882
        },
        {
          "duration": 0.07440458333333311,
          "durationTicks": 100,
          "midi": 69,
          "name": "A4",
          "ticks": 86160,
          "time": 64.106989,
          "velocity": 0.6220472440944882
        },
        {
          "duration": 0.07440458333333311,
          "durationTicks": 100,
          "midi": 72,
          "name": "C5",
          "ticks": 86160,
          "time": 64.106989,
          "velocity": 0.6220472440944882
        },
        {
          "duration": 0.23809466666666879,
          "durationTicks": 320,
          "midi": 63,
          "name": "D#4",
          "ticks": 86400,
          "time": 64.28555999999999,
          "velocity": 0.6220472440944882
        },
        {
          "duration": 0.23809466666666879,
          "durationTicks": 320,
          "midi": 65,
          "name": "F4",
          "ticks": 86400,
          "time": 64.28555999999999,
          "velocity": 0.6220472440944882
        },
        {
          "duration": 0.23809466666666879,
          "durationTicks": 320,
          "midi": 69,
          "name": "A4",
          "ticks": 86400,
          "time": 64.28555999999999,
          "velocity": 0.6220472440944882
        },
        {
          "duration": 0.23809466666666879,
          "durationTicks": 320,
          "midi": 72,
          "name": "C5",
          "ticks": 86400,
          "time": 64.28555999999999,
          "velocity": 0.6220472440944882
        },
        {
          "duration": 0.14880916666666621,
          "durationTicks": 200,
          "midi": 63,
          "name": "D#4",
          "ticks": 86880,
          "time": 64.64270199999999,
          "velocity": 0.6220472440944882
        },
        {
          "duration": 0.14880916666666621,
          "durationTicks": 200,
          "midi": 65,
          "name": "F4",
          "ticks": 86880,
          "time": 64.64270199999999,
          "velocity": 0.6220472440944882
        },
        {
          "duration": 0.14880916666666621,
          "durationTicks": 200,
          "midi": 69,
          "name": "A4",
          "ticks": 86880,
          "time": 64.64270199999999,
          "velocity": 0.6220472440944882
        },
        {
          "duration": 0.14880916666666621,
          "durationTicks": 200,
          "midi": 72,
          "name": "C5",
          "ticks": 86880,
          "time": 64.64270199999999,
          "velocity": 0.6220472440944882
        },
        {
          "duration": 0.07440458333333311,
          "durationTicks": 100,
          "midi": 63,
          "name": "D#4",
          "ticks": 87120,
          "time": 64.82127299999999,
          "velocity": 0.6220472440944882
        },
        {
          "duration": 0.07440458333333311,
          "durationTicks": 100,
          "midi": 65,
          "name": "F4",
          "ticks": 87120,
          "time": 64.82127299999999,
          "velocity": 0.6220472440944882
        },
        {
          "duration": 0.07440458333333311,
          "durationTicks": 100,
          "midi": 69,
          "name": "A4",
          "ticks": 87120,
          "time": 64.82127299999999,
          "velocity": 0.6220472440944882
        },
        {
          "duration": 0.07440458333333311,
          "durationTicks": 100,
          "midi": 72,
          "name": "C5",
          "ticks": 87120,
          "time": 64.82127299999999,
          "velocity": 0.6220472440944882
        },
        {
          "duration": 0.23809466666665458,
          "durationTicks": 320,
          "midi": 63,
          "name": "D#4",
          "ticks": 87360,
          "time": 64.999844,
          "velocity": 0.6220472440944882
        },
        {
          "duration": 0.23809466666665458,
          "durationTicks": 320,
          "midi": 65,
          "name": "F4",
          "ticks": 87360,
          "time": 64.999844,
          "velocity": 0.6220472440944882
        },
        {
          "duration": 0.23809466666665458,
          "durationTicks": 320,
          "midi": 69,
          "name": "A4",
          "ticks": 87360,
          "time": 64.999844,
          "velocity": 0.6220472440944882
        },
        {
          "duration": 0.23809466666665458,
          "durationTicks": 320,
          "midi": 72,
          "name": "C5",
          "ticks": 87360,
          "time": 64.999844,
          "velocity": 0.6220472440944882
        },
        {
          "duration": 0.14880916666666621,
          "durationTicks": 200,
          "midi": 63,
          "name": "D#4",
          "ticks": 87840,
          "time": 65.35698599999999,
          "velocity": 0.6220472440944882
        },
        {
          "duration": 0.14880916666666621,
          "durationTicks": 200,
          "midi": 65,
          "name": "F4",
          "ticks": 87840,
          "time": 65.35698599999999,
          "velocity": 0.6220472440944882
        },
        {
          "duration": 0.14880916666666621,
          "durationTicks": 200,
          "midi": 69,
          "name": "A4",
          "ticks": 87840,
          "time": 65.35698599999999,
          "velocity": 0.6220472440944882
        },
        {
          "duration": 0.14880916666666621,
          "durationTicks": 200,
          "midi": 72,
          "name": "C5",
          "ticks": 87840,
          "time": 65.35698599999999,
          "velocity": 0.6220472440944882
        },
        {
          "duration": 0.07440458333333311,
          "durationTicks": 100,
          "midi": 63,
          "name": "D#4",
          "ticks": 88080,
          "time": 65.535557,
          "velocity": 0.6220472440944882
        },
        {
          "duration": 0.07440458333333311,
          "durationTicks": 100,
          "midi": 65,
          "name": "F4",
          "ticks": 88080,
          "time": 65.535557,
          "velocity": 0.6220472440944882
        },
        {
          "duration": 0.07440458333333311,
          "durationTicks": 100,
          "midi": 69,
          "name": "A4",
          "ticks": 88080,
          "time": 65.535557,
          "velocity": 0.6220472440944882
        },
        {
          "duration": 0.07440458333333311,
          "durationTicks": 100,
          "midi": 72,
          "name": "C5",
          "ticks": 88080,
          "time": 65.535557,
          "velocity": 0.6220472440944882
        },
        {
          "duration": 0.23809466666666879,
          "durationTicks": 320,
          "midi": 60,
          "name": "C4",
          "ticks": 88320,
          "time": 65.71412799999999,
          "velocity": 0.6220472440944882
        },
        {
          "duration": 0.23809466666666879,
          "durationTicks": 320,
          "midi": 64,
          "name": "E4",
          "ticks": 88320,
          "time": 65.71412799999999,
          "velocity": 0.6220472440944882
        },
        {
          "duration": 0.23809466666666879,
          "durationTicks": 320,
          "midi": 67,
          "name": "G4",
          "ticks": 88320,
          "time": 65.71412799999999,
          "velocity": 0.6220472440944882
        },
        {
          "duration": 0.23809466666666879,
          "durationTicks": 320,
          "midi": 70,
          "name": "A#4",
          "ticks": 88320,
          "time": 65.71412799999999,
          "velocity": 0.6220472440944882
        },
        {
          "duration": 0.15624962500000095,
          "durationTicks": 210,
          "midi": 60,
          "name": "C4",
          "ticks": 88800,
          "time": 66.07127,
          "velocity": 0.6220472440944882
        },
        {
          "duration": 0.15624962500000095,
          "durationTicks": 210,
          "midi": 64,
          "name": "E4",
          "ticks": 88800,
          "time": 66.07127,
          "velocity": 0.6220472440944882
        },
        {
          "duration": 0.15624962500000095,
          "durationTicks": 210,
          "midi": 67,
          "name": "G4",
          "ticks": 88800,
          "time": 66.07127,
          "velocity": 0.6220472440944882
        },
        {
          "duration": 0.15624962500000095,
          "durationTicks": 210,
          "midi": 70,
          "name": "A#4",
          "ticks": 88800,
          "time": 66.07127,
          "velocity": 0.6220472440944882
        },
        {
          "duration": 0.07440458333333311,
          "durationTicks": 100,
          "midi": 60,
          "name": "C4",
          "ticks": 89040,
          "time": 66.24984099999999,
          "velocity": 0.6220472440944882
        },
        {
          "duration": 0.07440458333333311,
          "durationTicks": 100,
          "midi": 64,
          "name": "E4",
          "ticks": 89040,
          "time": 66.24984099999999,
          "velocity": 0.6220472440944882
        },
        {
          "duration": 0.07440458333333311,
          "durationTicks": 100,
          "midi": 67,
          "name": "G4",
          "ticks": 89040,
          "time": 66.24984099999999,
          "velocity": 0.6220472440944882
        },
        {
          "duration": 0.07440458333333311,
          "durationTicks": 100,
          "midi": 70,
          "name": "A#4",
          "ticks": 89040,
          "time": 66.24984099999999,
          "velocity": 0.6220472440944882
        },
        {
          "duration": 0.1190473333333415,
          "durationTicks": 160,
          "midi": 60,
          "name": "C4",
          "ticks": 89280,
          "time": 66.428412,
          "velocity": 0.6220472440944882
        },
        {
          "duration": 0.1190473333333415,
          "durationTicks": 160,
          "midi": 64,
          "name": "E4",
          "ticks": 89280,
          "time": 66.428412,
          "velocity": 0.6220472440944882
        },
        {
          "duration": 0.1190473333333415,
          "durationTicks": 160,
          "midi": 67,
          "name": "G4",
          "ticks": 89280,
          "time": 66.428412,
          "velocity": 0.6220472440944882
        },
        {
          "duration": 0.23809466666665458,
          "durationTicks": 320,
          "midi": 70,
          "name": "A#4",
          "ticks": 89280,
          "time": 66.428412,
          "velocity": 0.6220472440944882
        },
        {
          "duration": 0.15624962500000095,
          "durationTicks": 210,
          "midi": 60,
          "name": "C4",
          "ticks": 89760,
          "time": 66.78555399999999,
          "velocity": 0.6220472440944882
        },
        {
          "duration": 0.15624962500000095,
          "durationTicks": 210,
          "midi": 64,
          "name": "E4",
          "ticks": 89760,
          "time": 66.78555399999999,
          "velocity": 0.6220472440944882
        },
        {
          "duration": 0.15624962500000095,
          "durationTicks": 210,
          "midi": 67,
          "name": "G4",
          "ticks": 89760,
          "time": 66.78555399999999,
          "velocity": 0.6220472440944882
        },
        {
          "duration": 0.15624962500000095,
          "durationTicks": 210,
          "midi": 70,
          "name": "A#4",
          "ticks": 89760,
          "time": 66.78555399999999,
          "velocity": 0.6220472440944882
        },
        {
          "duration": 0.07440458333333311,
          "durationTicks": 100,
          "midi": 60,
          "name": "C4",
          "ticks": 90000,
          "time": 66.964125,
          "velocity": 0.6220472440944882
        },
        {
          "duration": 0.07440458333333311,
          "durationTicks": 100,
          "midi": 64,
          "name": "E4",
          "ticks": 90000,
          "time": 66.964125,
          "velocity": 0.6220472440944882
        },
        {
          "duration": 0.07440458333333311,
          "durationTicks": 100,
          "midi": 67,
          "name": "G4",
          "ticks": 90000,
          "time": 66.964125,
          "velocity": 0.6220472440944882
        },
        {
          "duration": 0.07440458333333311,
          "durationTicks": 100,
          "midi": 70,
          "name": "A#4",
          "ticks": 90000,
          "time": 66.964125,
          "velocity": 0.6220472440944882
        },
        {
          "duration": 0.23809466666666879,
          "durationTicks": 320,
          "midi": 60,
          "name": "C4",
          "ticks": 90240,
          "time": 67.14269599999999,
          "velocity": 0.6220472440944882
        },
        {
          "duration": 0.23809466666666879,
          "durationTicks": 320,
          "midi": 64,
          "name": "E4",
          "ticks": 90240,
          "time": 67.14269599999999,
          "velocity": 0.6220472440944882
        },
        {
          "duration": 0.23809466666666879,
          "durationTicks": 320,
          "midi": 67,
          "name": "G4",
          "ticks": 90240,
          "time": 67.14269599999999,
          "velocity": 0.6220472440944882
        },
        {
          "duration": 0.23809466666666879,
          "durationTicks": 320,
          "midi": 70,
          "name": "A#4",
          "ticks": 90240,
          "time": 67.14269599999999,
          "velocity": 0.6220472440944882
        },
        {
          "duration": 0.15624962500000095,
          "durationTicks": 210,
          "midi": 60,
          "name": "C4",
          "ticks": 90720,
          "time": 67.499838,
          "velocity": 0.6220472440944882
        },
        {
          "duration": 0.15624962500000095,
          "durationTicks": 210,
          "midi": 64,
          "name": "E4",
          "ticks": 90720,
          "time": 67.499838,
          "velocity": 0.6220472440944882
        },
        {
          "duration": 0.15624962500000095,
          "durationTicks": 210,
          "midi": 67,
          "name": "G4",
          "ticks": 90720,
          "time": 67.499838,
          "velocity": 0.6220472440944882
        },
        {
          "duration": 0.15624962500000095,
          "durationTicks": 210,
          "midi": 70,
          "name": "A#4",
          "ticks": 90720,
          "time": 67.499838,
          "velocity": 0.6220472440944882
        },
        {
          "duration": 0.07440458333334732,
          "durationTicks": 100,
          "midi": 60,
          "name": "C4",
          "ticks": 90960,
          "time": 67.67840899999999,
          "velocity": 0.6220472440944882
        },
        {
          "duration": 0.07440458333334732,
          "durationTicks": 100,
          "midi": 64,
          "name": "E4",
          "ticks": 90960,
          "time": 67.67840899999999,
          "velocity": 0.6220472440944882
        },
        {
          "duration": 0.07440458333334732,
          "durationTicks": 100,
          "midi": 67,
          "name": "G4",
          "ticks": 90960,
          "time": 67.67840899999999,
          "velocity": 0.6220472440944882
        },
        {
          "duration": 0.07440458333334732,
          "durationTicks": 100,
          "midi": 70,
          "name": "A#4",
          "ticks": 90960,
          "time": 67.67840899999999,
          "velocity": 0.6220472440944882
        },
        {
          "duration": 0.1190473333333415,
          "durationTicks": 160,
          "midi": 60,
          "name": "C4",
          "ticks": 91200,
          "time": 67.85698,
          "velocity": 0.6220472440944882
        },
        {
          "duration": 0.1190473333333415,
          "durationTicks": 160,
          "midi": 64,
          "name": "E4",
          "ticks": 91200,
          "time": 67.85698,
          "velocity": 0.6220472440944882
        },
        {
          "duration": 0.1190473333333415,
          "durationTicks": 160,
          "midi": 67,
          "name": "G4",
          "ticks": 91200,
          "time": 67.85698,
          "velocity": 0.6220472440944882
        },
        {
          "duration": 0.23809466666666879,
          "durationTicks": 320,
          "midi": 70,
          "name": "A#4",
          "ticks": 91200,
          "time": 67.85698,
          "velocity": 0.6220472440944882
        },
        {
          "duration": 0.15624962500000095,
          "durationTicks": 210,
          "midi": 60,
          "name": "C4",
          "ticks": 91680,
          "time": 68.21412199999999,
          "velocity": 0.6220472440944882
        },
        {
          "duration": 0.15624962500000095,
          "durationTicks": 210,
          "midi": 64,
          "name": "E4",
          "ticks": 91680,
          "time": 68.21412199999999,
          "velocity": 0.6220472440944882
        },
        {
          "duration": 0.15624962500000095,
          "durationTicks": 210,
          "midi": 67,
          "name": "G4",
          "ticks": 91680,
          "time": 68.21412199999999,
          "velocity": 0.6220472440944882
        },
        {
          "duration": 0.15624962500000095,
          "durationTicks": 210,
          "midi": 70,
          "name": "A#4",
          "ticks": 91680,
          "time": 68.21412199999999,
          "velocity": 0.6220472440944882
        },
        {
          "duration": 0.07440458333333311,
          "durationTicks": 100,
          "midi": 60,
          "name": "C4",
          "ticks": 91920,
          "time": 68.392693,
          "velocity": 0.6220472440944882
        },
        {
          "duration": 0.07440458333333311,
          "durationTicks": 100,
          "midi": 64,
          "name": "E4",
          "ticks": 91920,
          "time": 68.392693,
          "velocity": 0.6220472440944882
        },
        {
          "duration": 0.07440458333333311,
          "durationTicks": 100,
          "midi": 67,
          "name": "G4",
          "ticks": 91920,
          "time": 68.392693,
          "velocity": 0.6220472440944882
        },
        {
          "duration": 0.07440458333333311,
          "durationTicks": 100,
          "midi": 70,
          "name": "A#4",
          "ticks": 91920,
          "time": 68.392693,
          "velocity": 0.6220472440944882
        },
        {
          "duration": 0.23809466666666879,
          "durationTicks": 320,
          "midi": 62,
          "name": "D4",
          "ticks": 92160,
          "time": 68.57126399999999,
          "velocity": 0.6220472440944882
        },
        {
          "duration": 0.23809466666666879,
          "durationTicks": 320,
          "midi": 67,
          "name": "G4",
          "ticks": 92160,
          "time": 68.57126399999999,
          "velocity": 0.6220472440944882
        },
        {
          "duration": 0.23809466666666879,
          "durationTicks": 320,
          "midi": 71,
          "name": "B4",
          "ticks": 92160,
          "time": 68.57126399999999,
          "velocity": 0.6220472440944882
        },
        {
          "duration": 0.14880916666666621,
          "durationTicks": 200,
          "midi": 62,
          "name": "D4",
          "ticks": 92640,
          "time": 68.928406,
          "velocity": 0.6220472440944882
        },
        {
          "duration": 0.14880916666666621,
          "durationTicks": 200,
          "midi": 67,
          "name": "G4",
          "ticks": 92640,
          "time": 68.928406,
          "velocity": 0.6220472440944882
        },
        {
          "duration": 0.14880916666666621,
          "durationTicks": 200,
          "midi": 71,
          "name": "B4",
          "ticks": 92640,
          "time": 68.928406,
          "velocity": 0.6220472440944882
        },
        {
          "duration": 0.07440458333334732,
          "durationTicks": 100,
          "midi": 62,
          "name": "D4",
          "ticks": 92880,
          "time": 69.10697699999999,
          "velocity": 0.6220472440944882
        },
        {
          "duration": 0.07440458333334732,
          "durationTicks": 100,
          "midi": 67,
          "name": "G4",
          "ticks": 92880,
          "time": 69.10697699999999,
          "velocity": 0.6220472440944882
        },
        {
          "duration": 0.07440458333334732,
          "durationTicks": 100,
          "midi": 71,
          "name": "B4",
          "ticks": 92880,
          "time": 69.10697699999999,
          "velocity": 0.6220472440944882
        },
        {
          "duration": 0.23809466666666879,
          "durationTicks": 320,
          "midi": 62,
          "name": "D4",
          "ticks": 93120,
          "time": 69.28554799999999,
          "velocity": 0.6220472440944882
        },
        {
          "duration": 0.23809466666666879,
          "durationTicks": 320,
          "midi": 67,
          "name": "G4",
          "ticks": 93120,
          "time": 69.28554799999999,
          "velocity": 0.6220472440944882
        },
        {
          "duration": 0.23809466666666879,
          "durationTicks": 320,
          "midi": 71,
          "name": "B4",
          "ticks": 93120,
          "time": 69.28554799999999,
          "velocity": 0.6220472440944882
        },
        {
          "duration": 0.14880916666666621,
          "durationTicks": 200,
          "midi": 62,
          "name": "D4",
          "ticks": 93600,
          "time": 69.64268999999999,
          "velocity": 0.6220472440944882
        },
        {
          "duration": 0.14880916666666621,
          "durationTicks": 200,
          "midi": 67,
          "name": "G4",
          "ticks": 93600,
          "time": 69.64268999999999,
          "velocity": 0.6220472440944882
        },
        {
          "duration": 0.14880916666666621,
          "durationTicks": 200,
          "midi": 71,
          "name": "B4",
          "ticks": 93600,
          "time": 69.64268999999999,
          "velocity": 0.6220472440944882
        },
        {
          "duration": 0.07440458333333311,
          "durationTicks": 100,
          "midi": 62,
          "name": "D4",
          "ticks": 93840,
          "time": 69.82126099999999,
          "velocity": 0.6220472440944882
        },
        {
          "duration": 0.07440458333333311,
          "durationTicks": 100,
          "midi": 67,
          "name": "G4",
          "ticks": 93840,
          "time": 69.82126099999999,
          "velocity": 0.6220472440944882
        },
        {
          "duration": 0.07440458333333311,
          "durationTicks": 100,
          "midi": 71,
          "name": "B4",
          "ticks": 93840,
          "time": 69.82126099999999,
          "velocity": 0.6220472440944882
        },
        {
          "duration": 0.23809466666665458,
          "durationTicks": 320,
          "midi": 63,
          "name": "D#4",
          "ticks": 94080,
          "time": 69.999832,
          "velocity": 0.6220472440944882
        },
        {
          "duration": 0.23809466666665458,
          "durationTicks": 320,
          "midi": 65,
          "name": "F4",
          "ticks": 94080,
          "time": 69.999832,
          "velocity": 0.6220472440944882
        },
        {
          "duration": 0.23809466666665458,
          "durationTicks": 320,
          "midi": 69,
          "name": "A4",
          "ticks": 94080,
          "time": 69.999832,
          "velocity": 0.6220472440944882
        },
        {
          "duration": 0.23809466666665458,
          "durationTicks": 320,
          "midi": 72,
          "name": "C5",
          "ticks": 94080,
          "time": 69.999832,
          "velocity": 0.6220472440944882
        },
        {
          "duration": 0.23809466666665458,
          "durationTicks": 320,
          "midi": 63,
          "name": "D#4",
          "ticks": 96000,
          "time": 71.4284,
          "velocity": 0.6220472440944882
        },
        {
          "duration": 0.23809466666665458,
          "durationTicks": 320,
          "midi": 65,
          "name": "F4",
          "ticks": 96000,
          "time": 71.4284,
          "velocity": 0.6220472440944882
        },
        {
          "duration": 0.23809466666665458,
          "durationTicks": 320,
          "midi": 69,
          "name": "A4",
          "ticks": 96000,
          "time": 71.4284,
          "velocity": 0.6220472440944882
        },
        {
          "duration": 0.23809466666665458,
          "durationTicks": 320,
          "midi": 72,
          "name": "C5",
          "ticks": 96000,
          "time": 71.4284,
          "velocity": 0.6220472440944882
        },
        {
          "duration": 0.14880916666666621,
          "durationTicks": 200,
          "midi": 63,
          "name": "D#4",
          "ticks": 96480,
          "time": 71.78554199999999,
          "velocity": 0.6220472440944882
        },
        {
          "duration": 0.14880916666666621,
          "durationTicks": 200,
          "midi": 65,
          "name": "F4",
          "ticks": 96480,
          "time": 71.78554199999999,
          "velocity": 0.6220472440944882
        },
        {
          "duration": 0.14880916666666621,
          "durationTicks": 200,
          "midi": 69,
          "name": "A4",
          "ticks": 96480,
          "time": 71.78554199999999,
          "velocity": 0.6220472440944882
        },
        {
          "duration": 0.14880916666666621,
          "durationTicks": 200,
          "midi": 72,
          "name": "C5",
          "ticks": 96480,
          "time": 71.78554199999999,
          "velocity": 0.6220472440944882
        },
        {
          "duration": 0.08184504166665363,
          "durationTicks": 110,
          "midi": 63,
          "name": "D#4",
          "ticks": 96720,
          "time": 71.964113,
          "velocity": 0.6220472440944882
        },
        {
          "duration": 0.08184504166665363,
          "durationTicks": 110,
          "midi": 65,
          "name": "F4",
          "ticks": 96720,
          "time": 71.964113,
          "velocity": 0.6220472440944882
        },
        {
          "duration": 0.08184504166665363,
          "durationTicks": 110,
          "midi": 69,
          "name": "A4",
          "ticks": 96720,
          "time": 71.964113,
          "velocity": 0.6220472440944882
        },
        {
          "duration": 0.08184504166665363,
          "durationTicks": 110,
          "midi": 72,
          "name": "C5",
          "ticks": 96720,
          "time": 71.964113,
          "velocity": 0.6220472440944882
        },
        {
          "duration": 0.23809466666666879,
          "durationTicks": 320,
          "midi": 63,
          "name": "D#4",
          "ticks": 96960,
          "time": 72.14268399999999,
          "velocity": 0.6220472440944882
        },
        {
          "duration": 0.23809466666666879,
          "durationTicks": 320,
          "midi": 65,
          "name": "F4",
          "ticks": 96960,
          "time": 72.14268399999999,
          "velocity": 0.6220472440944882
        },
        {
          "duration": 0.23809466666666879,
          "durationTicks": 320,
          "midi": 69,
          "name": "A4",
          "ticks": 96960,
          "time": 72.14268399999999,
          "velocity": 0.6220472440944882
        },
        {
          "duration": 0.23809466666666879,
          "durationTicks": 320,
          "midi": 72,
          "name": "C5",
          "ticks": 96960,
          "time": 72.14268399999999,
          "velocity": 0.6220472440944882
        },
        {
          "duration": 0.148809166666652,
          "durationTicks": 200,
          "midi": 63,
          "name": "D#4",
          "ticks": 97440,
          "time": 72.499826,
          "velocity": 0.6220472440944882
        },
        {
          "duration": 0.148809166666652,
          "durationTicks": 200,
          "midi": 65,
          "name": "F4",
          "ticks": 97440,
          "time": 72.499826,
          "velocity": 0.6220472440944882
        },
        {
          "duration": 0.148809166666652,
          "durationTicks": 200,
          "midi": 69,
          "name": "A4",
          "ticks": 97440,
          "time": 72.499826,
          "velocity": 0.6220472440944882
        },
        {
          "duration": 0.148809166666652,
          "durationTicks": 200,
          "midi": 72,
          "name": "C5",
          "ticks": 97440,
          "time": 72.499826,
          "velocity": 0.6220472440944882
        },
        {
          "duration": 0.07440458333333311,
          "durationTicks": 100,
          "midi": 63,
          "name": "D#4",
          "ticks": 97680,
          "time": 72.67839699999999,
          "velocity": 0.6220472440944882
        },
        {
          "duration": 0.07440458333333311,
          "durationTicks": 100,
          "midi": 65,
          "name": "F4",
          "ticks": 97680,
          "time": 72.67839699999999,
          "velocity": 0.6220472440944882
        },
        {
          "duration": 0.07440458333333311,
          "durationTicks": 100,
          "midi": 69,
          "name": "A4",
          "ticks": 97680,
          "time": 72.67839699999999,
          "velocity": 0.6220472440944882
        },
        {
          "duration": 0.07440458333333311,
          "durationTicks": 100,
          "midi": 72,
          "name": "C5",
          "ticks": 97680,
          "time": 72.67839699999999,
          "velocity": 0.6220472440944882
        },
        {
          "duration": 0.23809466666665458,
          "durationTicks": 320,
          "midi": 64,
          "name": "E4",
          "ticks": 97920,
          "time": 72.856968,
          "velocity": 0.6220472440944882
        },
        {
          "duration": 0.23809466666665458,
          "durationTicks": 320,
          "midi": 67,
          "name": "G4",
          "ticks": 97920,
          "time": 72.856968,
          "velocity": 0.6220472440944882
        },
        {
          "duration": 0.23809466666665458,
          "durationTicks": 320,
          "midi": 72,
          "name": "C5",
          "ticks": 97920,
          "time": 72.856968,
          "velocity": 0.6220472440944882
        },
        {
          "duration": 0.15624962500000095,
          "durationTicks": 210,
          "midi": 64,
          "name": "E4",
          "ticks": 98400,
          "time": 73.21410999999999,
          "velocity": 0.6220472440944882
        },
        {
          "duration": 0.15624962500000095,
          "durationTicks": 210,
          "midi": 67,
          "name": "G4",
          "ticks": 98400,
          "time": 73.21410999999999,
          "velocity": 0.6220472440944882
        },
        {
          "duration": 0.15624962500000095,
          "durationTicks": 210,
          "midi": 72,
          "name": "C5",
          "ticks": 98400,
          "time": 73.21410999999999,
          "velocity": 0.6220472440944882
        },
        {
          "duration": 0.08184504166665363,
          "durationTicks": 110,
          "midi": 64,
          "name": "E4",
          "ticks": 98640,
          "time": 73.392681,
          "velocity": 0.6220472440944882
        },
        {
          "duration": 0.08184504166665363,
          "durationTicks": 110,
          "midi": 67,
          "name": "G4",
          "ticks": 98640,
          "time": 73.392681,
          "velocity": 0.6220472440944882
        },
        {
          "duration": 0.08184504166665363,
          "durationTicks": 110,
          "midi": 72,
          "name": "C5",
          "ticks": 98640,
          "time": 73.392681,
          "velocity": 0.6220472440944882
        },
        {
          "duration": 0.23809466666666879,
          "durationTicks": 320,
          "midi": 64,
          "name": "E4",
          "ticks": 98880,
          "time": 73.57125199999999,
          "velocity": 0.6220472440944882
        },
        {
          "duration": 0.23809466666666879,
          "durationTicks": 320,
          "midi": 67,
          "name": "G4",
          "ticks": 98880,
          "time": 73.57125199999999,
          "velocity": 0.6220472440944882
        },
        {
          "duration": 0.23809466666666879,
          "durationTicks": 320,
          "midi": 72,
          "name": "C5",
          "ticks": 98880,
          "time": 73.57125199999999,
          "velocity": 0.6220472440944882
        },
        {
          "duration": 0.15624962500000095,
          "durationTicks": 210,
          "midi": 64,
          "name": "E4",
          "ticks": 99360,
          "time": 73.928394,
          "velocity": 0.6220472440944882
        },
        {
          "duration": 0.15624962500000095,
          "durationTicks": 210,
          "midi": 67,
          "name": "G4",
          "ticks": 99360,
          "time": 73.928394,
          "velocity": 0.6220472440944882
        },
        {
          "duration": 0.15624962500000095,
          "durationTicks": 210,
          "midi": 72,
          "name": "C5",
          "ticks": 99360,
          "time": 73.928394,
          "velocity": 0.6220472440944882
        },
        {
          "duration": 0.08184504166666784,
          "durationTicks": 110,
          "midi": 64,
          "name": "E4",
          "ticks": 99600,
          "time": 74.10696499999999,
          "velocity": 0.6220472440944882
        },
        {
          "duration": 0.08184504166666784,
          "durationTicks": 110,
          "midi": 67,
          "name": "G4",
          "ticks": 99600,
          "time": 74.10696499999999,
          "velocity": 0.6220472440944882
        },
        {
          "duration": 0.08184504166666784,
          "durationTicks": 110,
          "midi": 72,
          "name": "C5",
          "ticks": 99600,
          "time": 74.10696499999999,
          "velocity": 0.6220472440944882
        },
        {
          "duration": 0.23809466666665458,
          "durationTicks": 320,
          "midi": 64,
          "name": "E4",
          "ticks": 99840,
          "time": 74.285536,
          "velocity": 0.6220472440944882
        },
        {
          "duration": 0.23809466666665458,
          "durationTicks": 320,
          "midi": 67,
          "name": "G4",
          "ticks": 99840,
          "time": 74.285536,
          "velocity": 0.6220472440944882
        },
        {
          "duration": 0.23809466666665458,
          "durationTicks": 320,
          "midi": 72,
          "name": "C5",
          "ticks": 99840,
          "time": 74.285536,
          "velocity": 0.6220472440944882
        },
        {
          "duration": 0.15624962500000095,
          "durationTicks": 210,
          "midi": 64,
          "name": "E4",
          "ticks": 100320,
          "time": 74.64267799999999,
          "velocity": 0.6220472440944882
        },
        {
          "duration": 0.15624962500000095,
          "durationTicks": 210,
          "midi": 67,
          "name": "G4",
          "ticks": 100320,
          "time": 74.64267799999999,
          "velocity": 0.6220472440944882
        },
        {
          "duration": 0.15624962500000095,
          "durationTicks": 210,
          "midi": 72,
          "name": "C5",
          "ticks": 100320,
          "time": 74.64267799999999,
          "velocity": 0.6220472440944882
        },
        {
          "duration": 0.08184504166665363,
          "durationTicks": 110,
          "midi": 64,
          "name": "E4",
          "ticks": 100560,
          "time": 74.821249,
          "velocity": 0.6220472440944882
        },
        {
          "duration": 0.08184504166665363,
          "durationTicks": 110,
          "midi": 67,
          "name": "G4",
          "ticks": 100560,
          "time": 74.821249,
          "velocity": 0.6220472440944882
        },
        {
          "duration": 0.08184504166665363,
          "durationTicks": 110,
          "midi": 72,
          "name": "C5",
          "ticks": 100560,
          "time": 74.821249,
          "velocity": 0.6220472440944882
        },
        {
          "duration": 0.23809466666666879,
          "durationTicks": 320,
          "midi": 64,
          "name": "E4",
          "ticks": 100800,
          "time": 74.99981999999999,
          "velocity": 0.6220472440944882
        },
        {
          "duration": 0.23809466666666879,
          "durationTicks": 320,
          "midi": 67,
          "name": "G4",
          "ticks": 100800,
          "time": 74.99981999999999,
          "velocity": 0.6220472440944882
        },
        {
          "duration": 0.23809466666666879,
          "durationTicks": 320,
          "midi": 72,
          "name": "C5",
          "ticks": 100800,
          "time": 74.99981999999999,
          "velocity": 0.6220472440944882
        },
        {
          "duration": 0.15624962500000095,
          "durationTicks": 210,
          "midi": 64,
          "name": "E4",
          "ticks": 101280,
          "time": 75.356962,
          "velocity": 0.6220472440944882
        },
        {
          "duration": 0.15624962500000095,
          "durationTicks": 210,
          "midi": 67,
          "name": "G4",
          "ticks": 101280,
          "time": 75.356962,
          "velocity": 0.6220472440944882
        },
        {
          "duration": 0.15624962500000095,
          "durationTicks": 210,
          "midi": 72,
          "name": "C5",
          "ticks": 101280,
          "time": 75.356962,
          "velocity": 0.6220472440944882
        },
        {
          "duration": 0.08184504166666784,
          "durationTicks": 110,
          "midi": 64,
          "name": "E4",
          "ticks": 101520,
          "time": 75.53553299999999,
          "velocity": 0.6220472440944882
        },
        {
          "duration": 0.08184504166666784,
          "durationTicks": 110,
          "midi": 67,
          "name": "G4",
          "ticks": 101520,
          "time": 75.53553299999999,
          "velocity": 0.6220472440944882
        },
        {
          "duration": 0.08184504166666784,
          "durationTicks": 110,
          "midi": 72,
          "name": "C5",
          "ticks": 101520,
          "time": 75.53553299999999,
          "velocity": 0.6220472440944882
        },
        {
          "duration": 0.23809466666666879,
          "durationTicks": 320,
          "midi": 64,
          "name": "E4",
          "ticks": 101760,
          "time": 75.71410399999999,
          "velocity": 0.6220472440944882
        },
        {
          "duration": 0.23809466666666879,
          "durationTicks": 320,
          "midi": 67,
          "name": "G4",
          "ticks": 101760,
          "time": 75.71410399999999,
          "velocity": 0.6220472440944882
        },
        {
          "duration": 0.23809466666666879,
          "durationTicks": 320,
          "midi": 70,
          "name": "A#4",
          "ticks": 101760,
          "time": 75.71410399999999,
          "velocity": 0.6220472440944882
        },
        {
          "duration": 0.23809466666666879,
          "durationTicks": 320,
          "midi": 72,
          "name": "C5",
          "ticks": 101760,
          "time": 75.71410399999999,
          "velocity": 0.6220472440944882
        },
        {
          "duration": 0.23809466666666879,
          "durationTicks": 320,
          "midi": 76,
          "name": "E5",
          "ticks": 101760,
          "time": 75.71410399999999,
          "velocity": 0.6220472440944882
        },
        {
          "duration": 0.15624962500000095,
          "durationTicks": 210,
          "midi": 60,
          "name": "C4",
          "ticks": 102240,
          "time": 76.07124599999999,
          "velocity": 0.6220472440944882
        },
        {
          "duration": 0.15624962500000095,
          "durationTicks": 210,
          "midi": 64,
          "name": "E4",
          "ticks": 102240,
          "time": 76.07124599999999,
          "velocity": 0.6220472440944882
        },
        {
          "duration": 0.15624962500000095,
          "durationTicks": 210,
          "midi": 67,
          "name": "G4",
          "ticks": 102240,
          "time": 76.07124599999999,
          "velocity": 0.6220472440944882
        },
        {
          "duration": 0.15624962500000095,
          "durationTicks": 210,
          "midi": 70,
          "name": "A#4",
          "ticks": 102240,
          "time": 76.07124599999999,
          "velocity": 0.6220472440944882
        },
        {
          "duration": 0.07440458333333311,
          "durationTicks": 100,
          "midi": 60,
          "name": "C4",
          "ticks": 102480,
          "time": 76.249817,
          "velocity": 0.6220472440944882
        },
        {
          "duration": 0.07440458333333311,
          "durationTicks": 100,
          "midi": 64,
          "name": "E4",
          "ticks": 102480,
          "time": 76.249817,
          "velocity": 0.6220472440944882
        },
        {
          "duration": 0.07440458333333311,
          "durationTicks": 100,
          "midi": 67,
          "name": "G4",
          "ticks": 102480,
          "time": 76.249817,
          "velocity": 0.6220472440944882
        },
        {
          "duration": 0.07440458333333311,
          "durationTicks": 100,
          "midi": 70,
          "name": "A#4",
          "ticks": 102480,
          "time": 76.249817,
          "velocity": 0.6220472440944882
        },
        {
          "duration": 0.11904733333332729,
          "durationTicks": 160,
          "midi": 60,
          "name": "C4",
          "ticks": 102720,
          "time": 76.428388,
          "velocity": 0.6220472440944882
        },
        {
          "duration": 0.11904733333332729,
          "durationTicks": 160,
          "midi": 64,
          "name": "E4",
          "ticks": 102720,
          "time": 76.428388,
          "velocity": 0.6220472440944882
        },
        {
          "duration": 0.11904733333332729,
          "durationTicks": 160,
          "midi": 67,
          "name": "G4",
          "ticks": 102720,
          "time": 76.428388,
          "velocity": 0.6220472440944882
        },
        {
          "duration": 0.23809466666665458,
          "durationTicks": 320,
          "midi": 70,
          "name": "A#4",
          "ticks": 102720,
          "time": 76.428388,
          "velocity": 0.6220472440944882
        },
        {
          "duration": 0.15624962500000095,
          "durationTicks": 210,
          "midi": 60,
          "name": "C4",
          "ticks": 103200,
          "time": 76.78553,
          "velocity": 0.6220472440944882
        },
        {
          "duration": 0.15624962500000095,
          "durationTicks": 210,
          "midi": 64,
          "name": "E4",
          "ticks": 103200,
          "time": 76.78553,
          "velocity": 0.6220472440944882
        },
        {
          "duration": 0.15624962500000095,
          "durationTicks": 210,
          "midi": 67,
          "name": "G4",
          "ticks": 103200,
          "time": 76.78553,
          "velocity": 0.6220472440944882
        },
        {
          "duration": 0.15624962500000095,
          "durationTicks": 210,
          "midi": 70,
          "name": "A#4",
          "ticks": 103200,
          "time": 76.78553,
          "velocity": 0.6220472440944882
        },
        {
          "duration": 0.07440458333334732,
          "durationTicks": 100,
          "midi": 60,
          "name": "C4",
          "ticks": 103440,
          "time": 76.96410099999999,
          "velocity": 0.6220472440944882
        },
        {
          "duration": 0.07440458333334732,
          "durationTicks": 100,
          "midi": 64,
          "name": "E4",
          "ticks": 103440,
          "time": 76.96410099999999,
          "velocity": 0.6220472440944882
        },
        {
          "duration": 0.07440458333334732,
          "durationTicks": 100,
          "midi": 67,
          "name": "G4",
          "ticks": 103440,
          "time": 76.96410099999999,
          "velocity": 0.6220472440944882
        },
        {
          "duration": 0.07440458333334732,
          "durationTicks": 100,
          "midi": 70,
          "name": "A#4",
          "ticks": 103440,
          "time": 76.96410099999999,
          "velocity": 0.6220472440944882
        },
        {
          "duration": 0.23809466666666879,
          "durationTicks": 320,
          "midi": 64,
          "name": "E4",
          "ticks": 103680,
          "time": 77.14267199999999,
          "velocity": 0.6220472440944882
        },
        {
          "duration": 0.23809466666666879,
          "durationTicks": 320,
          "midi": 67,
          "name": "G4",
          "ticks": 103680,
          "time": 77.14267199999999,
          "velocity": 0.6220472440944882
        },
        {
          "duration": 0.23809466666666879,
          "durationTicks": 320,
          "midi": 70,
          "name": "A#4",
          "ticks": 103680,
          "time": 77.14267199999999,
          "velocity": 0.6220472440944882
        },
        {
          "duration": 0.23809466666666879,
          "durationTicks": 320,
          "midi": 72,
          "name": "C5",
          "ticks": 103680,
          "time": 77.14267199999999,
          "velocity": 0.6220472440944882
        },
        {
          "duration": 0.23809466666666879,
          "durationTicks": 320,
          "midi": 76,
          "name": "E5",
          "ticks": 103680,
          "time": 77.14267199999999,
          "velocity": 0.6220472440944882
        },
        {
          "duration": 0.15624962500000095,
          "durationTicks": 210,
          "midi": 60,
          "name": "C4",
          "ticks": 104160,
          "time": 77.49981399999999,
          "velocity": 0.6220472440944882
        },
        {
          "duration": 0.15624962500000095,
          "durationTicks": 210,
          "midi": 64,
          "name": "E4",
          "ticks": 104160,
          "time": 77.49981399999999,
          "velocity": 0.6220472440944882
        },
        {
          "duration": 0.15624962500000095,
          "durationTicks": 210,
          "midi": 67,
          "name": "G4",
          "ticks": 104160,
          "time": 77.49981399999999,
          "velocity": 0.6220472440944882
        },
        {
          "duration": 0.15624962500000095,
          "durationTicks": 210,
          "midi": 70,
          "name": "A#4",
          "ticks": 104160,
          "time": 77.49981399999999,
          "velocity": 0.6220472440944882
        },
        {
          "duration": 0.07440458333333311,
          "durationTicks": 100,
          "midi": 60,
          "name": "C4",
          "ticks": 104400,
          "time": 77.67838499999999,
          "velocity": 0.6220472440944882
        },
        {
          "duration": 0.07440458333333311,
          "durationTicks": 100,
          "midi": 64,
          "name": "E4",
          "ticks": 104400,
          "time": 77.67838499999999,
          "velocity": 0.6220472440944882
        },
        {
          "duration": 0.07440458333333311,
          "durationTicks": 100,
          "midi": 67,
          "name": "G4",
          "ticks": 104400,
          "time": 77.67838499999999,
          "velocity": 0.6220472440944882
        },
        {
          "duration": 0.07440458333333311,
          "durationTicks": 100,
          "midi": 70,
          "name": "A#4",
          "ticks": 104400,
          "time": 77.67838499999999,
          "velocity": 0.6220472440944882
        },
        {
          "duration": 0.11904733333332729,
          "durationTicks": 160,
          "midi": 60,
          "name": "C4",
          "ticks": 104640,
          "time": 77.856956,
          "velocity": 0.6220472440944882
        },
        {
          "duration": 0.11904733333332729,
          "durationTicks": 160,
          "midi": 64,
          "name": "E4",
          "ticks": 104640,
          "time": 77.856956,
          "velocity": 0.6220472440944882
        },
        {
          "duration": 0.11904733333332729,
          "durationTicks": 160,
          "midi": 67,
          "name": "G4",
          "ticks": 104640,
          "time": 77.856956,
          "velocity": 0.6220472440944882
        },
        {
          "duration": 0.23809466666665458,
          "durationTicks": 320,
          "midi": 70,
          "name": "A#4",
          "ticks": 104640,
          "time": 77.856956,
          "velocity": 0.6220472440944882
        },
        {
          "duration": 0.15624962500000095,
          "durationTicks": 210,
          "midi": 60,
          "name": "C4",
          "ticks": 105120,
          "time": 78.21409799999999,
          "velocity": 0.6220472440944882
        },
        {
          "duration": 0.15624962500000095,
          "durationTicks": 210,
          "midi": 64,
          "name": "E4",
          "ticks": 105120,
          "time": 78.21409799999999,
          "velocity": 0.6220472440944882
        },
        {
          "duration": 0.15624962500000095,
          "durationTicks": 210,
          "midi": 67,
          "name": "G4",
          "ticks": 105120,
          "time": 78.21409799999999,
          "velocity": 0.6220472440944882
        },
        {
          "duration": 0.15624962500000095,
          "durationTicks": 210,
          "midi": 70,
          "name": "A#4",
          "ticks": 105120,
          "time": 78.21409799999999,
          "velocity": 0.6220472440944882
        },
        {
          "duration": 0.07440458333333311,
          "durationTicks": 100,
          "midi": 60,
          "name": "C4",
          "ticks": 105360,
          "time": 78.392669,
          "velocity": 0.6220472440944882
        },
        {
          "duration": 0.07440458333333311,
          "durationTicks": 100,
          "midi": 64,
          "name": "E4",
          "ticks": 105360,
          "time": 78.392669,
          "velocity": 0.6220472440944882
        },
        {
          "duration": 0.07440458333333311,
          "durationTicks": 100,
          "midi": 67,
          "name": "G4",
          "ticks": 105360,
          "time": 78.392669,
          "velocity": 0.6220472440944882
        },
        {
          "duration": 0.07440458333333311,
          "durationTicks": 100,
          "midi": 70,
          "name": "A#4",
          "ticks": 105360,
          "time": 78.392669,
          "velocity": 0.6220472440944882
        },
        {
          "duration": 0.23809466666666879,
          "durationTicks": 320,
          "midi": 64,
          "name": "E4",
          "ticks": 105600,
          "time": 78.57123999999999,
          "velocity": 0.6220472440944882
        },
        {
          "duration": 0.23809466666666879,
          "durationTicks": 320,
          "midi": 67,
          "name": "G4",
          "ticks": 105600,
          "time": 78.57123999999999,
          "velocity": 0.6220472440944882
        },
        {
          "duration": 0.23809466666666879,
          "durationTicks": 320,
          "midi": 70,
          "name": "A#4",
          "ticks": 105600,
          "time": 78.57123999999999,
          "velocity": 0.6220472440944882
        },
        {
          "duration": 0.23809466666666879,
          "durationTicks": 320,
          "midi": 72,
          "name": "C5",
          "ticks": 105600,
          "time": 78.57123999999999,
          "velocity": 0.6220472440944882
        },
        {
          "duration": 0.23809466666666879,
          "durationTicks": 320,
          "midi": 76,
          "name": "E5",
          "ticks": 105600,
          "time": 78.57123999999999,
          "velocity": 0.6220472440944882
        },
        {
          "duration": 0.15624962500000095,
          "durationTicks": 210,
          "midi": 60,
          "name": "C4",
          "ticks": 106080,
          "time": 78.92838199999998,
          "velocity": 0.6220472440944882
        },
        {
          "duration": 0.15624962500000095,
          "durationTicks": 210,
          "midi": 64,
          "name": "E4",
          "ticks": 106080,
          "time": 78.92838199999998,
          "velocity": 0.6220472440944882
        },
        {
          "duration": 0.15624962500000095,
          "durationTicks": 210,
          "midi": 67,
          "name": "G4",
          "ticks": 106080,
          "time": 78.92838199999998,
          "velocity": 0.6220472440944882
        },
        {
          "duration": 0.15624962500000095,
          "durationTicks": 210,
          "midi": 70,
          "name": "A#4",
          "ticks": 106080,
          "time": 78.92838199999998,
          "velocity": 0.6220472440944882
        },
        {
          "duration": 0.07440458333333311,
          "durationTicks": 100,
          "midi": 60,
          "name": "C4",
          "ticks": 106320,
          "time": 79.10695299999999,
          "velocity": 0.6220472440944882
        },
        {
          "duration": 0.07440458333333311,
          "durationTicks": 100,
          "midi": 64,
          "name": "E4",
          "ticks": 106320,
          "time": 79.10695299999999,
          "velocity": 0.6220472440944882
        },
        {
          "duration": 0.07440458333333311,
          "durationTicks": 100,
          "midi": 67,
          "name": "G4",
          "ticks": 106320,
          "time": 79.10695299999999,
          "velocity": 0.6220472440944882
        },
        {
          "duration": 0.07440458333333311,
          "durationTicks": 100,
          "midi": 70,
          "name": "A#4",
          "ticks": 106320,
          "time": 79.10695299999999,
          "velocity": 0.6220472440944882
        },
        {
          "duration": 0.11904733333332729,
          "durationTicks": 160,
          "midi": 60,
          "name": "C4",
          "ticks": 106560,
          "time": 79.285524,
          "velocity": 0.6220472440944882
        },
        {
          "duration": 0.11904733333332729,
          "durationTicks": 160,
          "midi": 64,
          "name": "E4",
          "ticks": 106560,
          "time": 79.285524,
          "velocity": 0.6220472440944882
        },
        {
          "duration": 0.11904733333332729,
          "durationTicks": 160,
          "midi": 67,
          "name": "G4",
          "ticks": 106560,
          "time": 79.285524,
          "velocity": 0.6220472440944882
        },
        {
          "duration": 0.23809466666665458,
          "durationTicks": 320,
          "midi": 70,
          "name": "A#4",
          "ticks": 106560,
          "time": 79.285524,
          "velocity": 0.6220472440944882
        },
        {
          "duration": 0.15624962500000095,
          "durationTicks": 210,
          "midi": 60,
          "name": "C4",
          "ticks": 107040,
          "time": 79.64266599999999,
          "velocity": 0.6220472440944882
        },
        {
          "duration": 0.15624962500000095,
          "durationTicks": 210,
          "midi": 64,
          "name": "E4",
          "ticks": 107040,
          "time": 79.64266599999999,
          "velocity": 0.6220472440944882
        },
        {
          "duration": 0.15624962500000095,
          "durationTicks": 210,
          "midi": 67,
          "name": "G4",
          "ticks": 107040,
          "time": 79.64266599999999,
          "velocity": 0.6220472440944882
        },
        {
          "duration": 0.15624962500000095,
          "durationTicks": 210,
          "midi": 70,
          "name": "A#4",
          "ticks": 107040,
          "time": 79.64266599999999,
          "velocity": 0.6220472440944882
        },
        {
          "duration": 0.07440458333333311,
          "durationTicks": 100,
          "midi": 60,
          "name": "C4",
          "ticks": 107280,
          "time": 79.821237,
          "velocity": 0.6220472440944882
        },
        {
          "duration": 0.07440458333333311,
          "durationTicks": 100,
          "midi": 64,
          "name": "E4",
          "ticks": 107280,
          "time": 79.821237,
          "velocity": 0.6220472440944882
        },
        {
          "duration": 0.07440458333333311,
          "durationTicks": 100,
          "midi": 67,
          "name": "G4",
          "ticks": 107280,
          "time": 79.821237,
          "velocity": 0.6220472440944882
        },
        {
          "duration": 0.07440458333333311,
          "durationTicks": 100,
          "midi": 70,
          "name": "A#4",
          "ticks": 107280,
          "time": 79.821237,
          "velocity": 0.6220472440944882
        },
        {
          "duration": 0.23809466666666879,
          "durationTicks": 320,
          "midi": 60,
          "name": "C4",
          "ticks": 107520,
          "time": 79.99980799999999,
          "velocity": 0.6220472440944882
        },
        {
          "duration": 0.23809466666666879,
          "durationTicks": 320,
          "midi": 64,
          "name": "E4",
          "ticks": 107520,
          "time": 79.99980799999999,
          "velocity": 0.6220472440944882
        },
        {
          "duration": 0.23809466666666879,
          "durationTicks": 320,
          "midi": 67,
          "name": "G4",
          "ticks": 107520,
          "time": 79.99980799999999,
          "velocity": 0.6220472440944882
        },
        {
          "duration": 0.23809466666666879,
          "durationTicks": 320,
          "midi": 70,
          "name": "A#4",
          "ticks": 107520,
          "time": 79.99980799999999,
          "velocity": 0.6220472440944882
        },
        {
          "duration": 0.148809166666652,
          "durationTicks": 200,
          "midi": 60,
          "name": "C4",
          "ticks": 108000,
          "time": 80.35695,
          "velocity": 0.6220472440944882
        },
        {
          "duration": 0.148809166666652,
          "durationTicks": 200,
          "midi": 64,
          "name": "E4",
          "ticks": 108000,
          "time": 80.35695,
          "velocity": 0.6220472440944882
        },
        {
          "duration": 0.148809166666652,
          "durationTicks": 200,
          "midi": 67,
          "name": "G4",
          "ticks": 108000,
          "time": 80.35695,
          "velocity": 0.6220472440944882
        },
        {
          "duration": 0.148809166666652,
          "durationTicks": 200,
          "midi": 70,
          "name": "A#4",
          "ticks": 108000,
          "time": 80.35695,
          "velocity": 0.6220472440944882
        },
        {
          "duration": 0.07440458333333311,
          "durationTicks": 100,
          "midi": 60,
          "name": "C4",
          "ticks": 108240,
          "time": 80.53552099999999,
          "velocity": 0.6220472440944882
        },
        {
          "duration": 0.07440458333333311,
          "durationTicks": 100,
          "midi": 64,
          "name": "E4",
          "ticks": 108240,
          "time": 80.53552099999999,
          "velocity": 0.6220472440944882
        },
        {
          "duration": 0.07440458333333311,
          "durationTicks": 100,
          "midi": 67,
          "name": "G4",
          "ticks": 108240,
          "time": 80.53552099999999,
          "velocity": 0.6220472440944882
        },
        {
          "duration": 0.07440458333333311,
          "durationTicks": 100,
          "midi": 70,
          "name": "A#4",
          "ticks": 108240,
          "time": 80.53552099999999,
          "velocity": 0.6220472440944882
        },
        {
          "duration": 0.11904733333332729,
          "durationTicks": 160,
          "midi": 60,
          "name": "C4",
          "ticks": 108480,
          "time": 80.714092,
          "velocity": 0.6220472440944882
        },
        {
          "duration": 0.11904733333332729,
          "durationTicks": 160,
          "midi": 64,
          "name": "E4",
          "ticks": 108480,
          "time": 80.714092,
          "velocity": 0.6220472440944882
        },
        {
          "duration": 0.11904733333332729,
          "durationTicks": 160,
          "midi": 67,
          "name": "G4",
          "ticks": 108480,
          "time": 80.714092,
          "velocity": 0.6220472440944882
        },
        {
          "duration": 0.23809466666665458,
          "durationTicks": 320,
          "midi": 70,
          "name": "A#4",
          "ticks": 108480,
          "time": 80.714092,
          "velocity": 0.6220472440944882
        },
        {
          "duration": 0.14880916666666621,
          "durationTicks": 200,
          "midi": 60,
          "name": "C4",
          "ticks": 108960,
          "time": 81.07123399999999,
          "velocity": 0.6220472440944882
        },
        {
          "duration": 0.14880916666666621,
          "durationTicks": 200,
          "midi": 64,
          "name": "E4",
          "ticks": 108960,
          "time": 81.07123399999999,
          "velocity": 0.6220472440944882
        },
        {
          "duration": 0.14880916666666621,
          "durationTicks": 200,
          "midi": 67,
          "name": "G4",
          "ticks": 108960,
          "time": 81.07123399999999,
          "velocity": 0.6220472440944882
        },
        {
          "duration": 0.14880916666666621,
          "durationTicks": 200,
          "midi": 70,
          "name": "A#4",
          "ticks": 108960,
          "time": 81.07123399999999,
          "velocity": 0.6220472440944882
        },
        {
          "duration": 0.07440458333333311,
          "durationTicks": 100,
          "midi": 60,
          "name": "C4",
          "ticks": 109200,
          "time": 81.249805,
          "velocity": 0.6220472440944882
        },
        {
          "duration": 0.07440458333333311,
          "durationTicks": 100,
          "midi": 64,
          "name": "E4",
          "ticks": 109200,
          "time": 81.249805,
          "velocity": 0.6220472440944882
        },
        {
          "duration": 0.07440458333333311,
          "durationTicks": 100,
          "midi": 67,
          "name": "G4",
          "ticks": 109200,
          "time": 81.249805,
          "velocity": 0.6220472440944882
        },
        {
          "duration": 0.07440458333333311,
          "durationTicks": 100,
          "midi": 70,
          "name": "A#4",
          "ticks": 109200,
          "time": 81.249805,
          "velocity": 0.6220472440944882
        },
        {
          "duration": 0.23809466666666879,
          "durationTicks": 320,
          "midi": 53,
          "name": "F3",
          "ticks": 109440,
          "time": 81.42837599999999,
          "velocity": 0.6220472440944882
        },
        {
          "duration": 0.23809466666666879,
          "durationTicks": 320,
          "midi": 60,
          "name": "C4",
          "ticks": 109440,
          "time": 81.42837599999999,
          "velocity": 0.6220472440944882
        },
        {
          "duration": 0.23809466666666879,
          "durationTicks": 320,
          "midi": 63,
          "name": "D#4",
          "ticks": 109440,
          "time": 81.42837599999999,
          "velocity": 0.6220472440944882
        },
        {
          "duration": 0.23809466666666879,
          "durationTicks": 320,
          "midi": 69,
          "name": "A4",
          "ticks": 109440,
          "time": 81.42837599999999,
          "velocity": 0.6220472440944882
        },
        {
          "duration": 0.23809466666666879,
          "durationTicks": 320,
          "midi": 72,
          "name": "C5",
          "ticks": 109440,
          "time": 81.42837599999999,
          "velocity": 0.6220472440944882
        },
        {
          "duration": 0.23809466666666879,
          "durationTicks": 320,
          "midi": 77,
          "name": "F5",
          "ticks": 109440,
          "time": 81.42837599999999,
          "velocity": 0.6220472440944882
        },
        {
          "duration": 0.148809166666652,
          "durationTicks": 200,
          "midi": 63,
          "name": "D#4",
          "ticks": 109920,
          "time": 81.785518,
          "velocity": 0.6220472440944882
        },
        {
          "duration": 0.148809166666652,
          "durationTicks": 200,
          "midi": 65,
          "name": "F4",
          "ticks": 109920,
          "time": 81.785518,
          "velocity": 0.6220472440944882
        },
        {
          "duration": 0.148809166666652,
          "durationTicks": 200,
          "midi": 69,
          "name": "A4",
          "ticks": 109920,
          "time": 81.785518,
          "velocity": 0.6220472440944882
        },
        {
          "duration": 0.148809166666652,
          "durationTicks": 200,
          "midi": 72,
          "name": "C5",
          "ticks": 109920,
          "time": 81.785518,
          "velocity": 0.6220472440944882
        },
        {
          "duration": 0.07440458333334732,
          "durationTicks": 100,
          "midi": 63,
          "name": "D#4",
          "ticks": 110160,
          "time": 81.96408899999999,
          "velocity": 0.6220472440944882
        },
        {
          "duration": 0.07440458333334732,
          "durationTicks": 100,
          "midi": 65,
          "name": "F4",
          "ticks": 110160,
          "time": 81.96408899999999,
          "velocity": 0.6220472440944882
        },
        {
          "duration": 0.07440458333334732,
          "durationTicks": 100,
          "midi": 69,
          "name": "A4",
          "ticks": 110160,
          "time": 81.96408899999999,
          "velocity": 0.6220472440944882
        },
        {
          "duration": 0.07440458333334732,
          "durationTicks": 100,
          "midi": 72,
          "name": "C5",
          "ticks": 110160,
          "time": 81.96408899999999,
          "velocity": 0.6220472440944882
        },
        {
          "duration": 0.23809466666666879,
          "durationTicks": 320,
          "midi": 63,
          "name": "D#4",
          "ticks": 110400,
          "time": 82.14265999999999,
          "velocity": 0.6220472440944882
        },
        {
          "duration": 0.23809466666666879,
          "durationTicks": 320,
          "midi": 65,
          "name": "F4",
          "ticks": 110400,
          "time": 82.14265999999999,
          "velocity": 0.6220472440944882
        },
        {
          "duration": 0.23809466666666879,
          "durationTicks": 320,
          "midi": 69,
          "name": "A4",
          "ticks": 110400,
          "time": 82.14265999999999,
          "velocity": 0.6220472440944882
        },
        {
          "duration": 0.23809466666666879,
          "durationTicks": 320,
          "midi": 72,
          "name": "C5",
          "ticks": 110400,
          "time": 82.14265999999999,
          "velocity": 0.6220472440944882
        },
        {
          "duration": 0.14880916666666621,
          "durationTicks": 200,
          "midi": 63,
          "name": "D#4",
          "ticks": 110880,
          "time": 82.49980199999999,
          "velocity": 0.6220472440944882
        },
        {
          "duration": 0.14880916666666621,
          "durationTicks": 200,
          "midi": 65,
          "name": "F4",
          "ticks": 110880,
          "time": 82.49980199999999,
          "velocity": 0.6220472440944882
        },
        {
          "duration": 0.14880916666666621,
          "durationTicks": 200,
          "midi": 69,
          "name": "A4",
          "ticks": 110880,
          "time": 82.49980199999999,
          "velocity": 0.6220472440944882
        },
        {
          "duration": 0.14880916666666621,
          "durationTicks": 200,
          "midi": 72,
          "name": "C5",
          "ticks": 110880,
          "time": 82.49980199999999,
          "velocity": 0.6220472440944882
        },
        {
          "duration": 0.07440458333333311,
          "durationTicks": 100,
          "midi": 63,
          "name": "D#4",
          "ticks": 111120,
          "time": 82.678373,
          "velocity": 0.6220472440944882
        },
        {
          "duration": 0.07440458333333311,
          "durationTicks": 100,
          "midi": 65,
          "name": "F4",
          "ticks": 111120,
          "time": 82.678373,
          "velocity": 0.6220472440944882
        },
        {
          "duration": 0.07440458333333311,
          "durationTicks": 100,
          "midi": 69,
          "name": "A4",
          "ticks": 111120,
          "time": 82.678373,
          "velocity": 0.6220472440944882
        },
        {
          "duration": 0.07440458333333311,
          "durationTicks": 100,
          "midi": 72,
          "name": "C5",
          "ticks": 111120,
          "time": 82.678373,
          "velocity": 0.6220472440944882
        },
        {
          "duration": 0.23809466666666879,
          "durationTicks": 320,
          "midi": 53,
          "name": "F3",
          "ticks": 111360,
          "time": 82.85694399999998,
          "velocity": 0.6220472440944882
        },
        {
          "duration": 0.23809466666666879,
          "durationTicks": 320,
          "midi": 60,
          "name": "C4",
          "ticks": 111360,
          "time": 82.85694399999998,
          "velocity": 0.6220472440944882
        },
        {
          "duration": 0.23809466666666879,
          "durationTicks": 320,
          "midi": 63,
          "name": "D#4",
          "ticks": 111360,
          "time": 82.85694399999998,
          "velocity": 0.6220472440944882
        },
        {
          "duration": 0.23809466666666879,
          "durationTicks": 320,
          "midi": 69,
          "name": "A4",
          "ticks": 111360,
          "time": 82.85694399999998,
          "velocity": 0.6220472440944882
        },
        {
          "duration": 0.23809466666666879,
          "durationTicks": 320,
          "midi": 72,
          "name": "C5",
          "ticks": 111360,
          "time": 82.85694399999998,
          "velocity": 0.6220472440944882
        },
        {
          "duration": 0.23809466666666879,
          "durationTicks": 320,
          "midi": 77,
          "name": "F5",
          "ticks": 111360,
          "time": 82.85694399999998,
          "velocity": 0.6220472440944882
        },
        {
          "duration": 0.14880916666666621,
          "durationTicks": 200,
          "midi": 63,
          "name": "D#4",
          "ticks": 111840,
          "time": 83.214086,
          "velocity": 0.6220472440944882
        },
        {
          "duration": 0.14880916666666621,
          "durationTicks": 200,
          "midi": 65,
          "name": "F4",
          "ticks": 111840,
          "time": 83.214086,
          "velocity": 0.6220472440944882
        },
        {
          "duration": 0.14880916666666621,
          "durationTicks": 200,
          "midi": 69,
          "name": "A4",
          "ticks": 111840,
          "time": 83.214086,
          "velocity": 0.6220472440944882
        },
        {
          "duration": 0.14880916666666621,
          "durationTicks": 200,
          "midi": 72,
          "name": "C5",
          "ticks": 111840,
          "time": 83.214086,
          "velocity": 0.6220472440944882
        },
        {
          "duration": 0.07440458333334732,
          "durationTicks": 100,
          "midi": 63,
          "name": "D#4",
          "ticks": 112080,
          "time": 83.39265699999999,
          "velocity": 0.6220472440944882
        },
        {
          "duration": 0.07440458333334732,
          "durationTicks": 100,
          "midi": 65,
          "name": "F4",
          "ticks": 112080,
          "time": 83.39265699999999,
          "velocity": 0.6220472440944882
        },
        {
          "duration": 0.07440458333334732,
          "durationTicks": 100,
          "midi": 69,
          "name": "A4",
          "ticks": 112080,
          "time": 83.39265699999999,
          "velocity": 0.6220472440944882
        },
        {
          "duration": 0.07440458333334732,
          "durationTicks": 100,
          "midi": 72,
          "name": "C5",
          "ticks": 112080,
          "time": 83.39265699999999,
          "velocity": 0.6220472440944882
        },
        {
          "duration": 0.23809466666666879,
          "durationTicks": 320,
          "midi": 63,
          "name": "D#4",
          "ticks": 112320,
          "time": 83.57122799999999,
          "velocity": 0.6220472440944882
        },
        {
          "duration": 0.23809466666666879,
          "durationTicks": 320,
          "midi": 65,
          "name": "F4",
          "ticks": 112320,
          "time": 83.57122799999999,
          "velocity": 0.6220472440944882
        },
        {
          "duration": 0.23809466666666879,
          "durationTicks": 320,
          "midi": 69,
          "name": "A4",
          "ticks": 112320,
          "time": 83.57122799999999,
          "velocity": 0.6220472440944882
        },
        {
          "duration": 0.23809466666666879,
          "durationTicks": 320,
          "midi": 72,
          "name": "C5",
          "ticks": 112320,
          "time": 83.57122799999999,
          "velocity": 0.6220472440944882
        },
        {
          "duration": 0.14880916666666621,
          "durationTicks": 200,
          "midi": 63,
          "name": "D#4",
          "ticks": 112800,
          "time": 83.92836999999999,
          "velocity": 0.6220472440944882
        },
        {
          "duration": 0.14880916666666621,
          "durationTicks": 200,
          "midi": 65,
          "name": "F4",
          "ticks": 112800,
          "time": 83.92836999999999,
          "velocity": 0.6220472440944882
        },
        {
          "duration": 0.14880916666666621,
          "durationTicks": 200,
          "midi": 69,
          "name": "A4",
          "ticks": 112800,
          "time": 83.92836999999999,
          "velocity": 0.6220472440944882
        },
        {
          "duration": 0.14880916666666621,
          "durationTicks": 200,
          "midi": 72,
          "name": "C5",
          "ticks": 112800,
          "time": 83.92836999999999,
          "velocity": 0.6220472440944882
        },
        {
          "duration": 0.07440458333333311,
          "durationTicks": 100,
          "midi": 63,
          "name": "D#4",
          "ticks": 113040,
          "time": 84.10694099999999,
          "velocity": 0.6220472440944882
        },
        {
          "duration": 0.07440458333333311,
          "durationTicks": 100,
          "midi": 65,
          "name": "F4",
          "ticks": 113040,
          "time": 84.10694099999999,
          "velocity": 0.6220472440944882
        },
        {
          "duration": 0.07440458333333311,
          "durationTicks": 100,
          "midi": 69,
          "name": "A4",
          "ticks": 113040,
          "time": 84.10694099999999,
          "velocity": 0.6220472440944882
        },
        {
          "duration": 0.07440458333333311,
          "durationTicks": 100,
          "midi": 72,
          "name": "C5",
          "ticks": 113040,
          "time": 84.10694099999999,
          "velocity": 0.6220472440944882
        },
        {
          "duration": 0.23809466666665458,
          "durationTicks": 320,
          "midi": 60,
          "name": "C4",
          "ticks": 113280,
          "time": 84.285512,
          "velocity": 0.6220472440944882
        },
        {
          "duration": 0.23809466666665458,
          "durationTicks": 320,
          "midi": 64,
          "name": "E4",
          "ticks": 113280,
          "time": 84.285512,
          "velocity": 0.6220472440944882
        },
        {
          "duration": 0.23809466666665458,
          "durationTicks": 320,
          "midi": 67,
          "name": "G4",
          "ticks": 113280,
          "time": 84.285512,
          "velocity": 0.6220472440944882
        },
        {
          "duration": 0.23809466666665458,
          "durationTicks": 320,
          "midi": 70,
          "name": "A#4",
          "ticks": 113280,
          "time": 84.285512,
          "velocity": 0.6220472440944882
        },
        {
          "duration": 0.15624962500000095,
          "durationTicks": 210,
          "midi": 60,
          "name": "C4",
          "ticks": 113760,
          "time": 84.642654,
          "velocity": 0.6220472440944882
        },
        {
          "duration": 0.15624962500000095,
          "durationTicks": 210,
          "midi": 64,
          "name": "E4",
          "ticks": 113760,
          "time": 84.642654,
          "velocity": 0.6220472440944882
        },
        {
          "duration": 0.15624962500000095,
          "durationTicks": 210,
          "midi": 67,
          "name": "G4",
          "ticks": 113760,
          "time": 84.642654,
          "velocity": 0.6220472440944882
        },
        {
          "duration": 0.15624962500000095,
          "durationTicks": 210,
          "midi": 70,
          "name": "A#4",
          "ticks": 113760,
          "time": 84.642654,
          "velocity": 0.6220472440944882
        },
        {
          "duration": 0.08184504166666784,
          "durationTicks": 110,
          "midi": 60,
          "name": "C4",
          "ticks": 114000,
          "time": 84.82122499999998,
          "velocity": 0.6220472440944882
        },
        {
          "duration": 0.08184504166666784,
          "durationTicks": 110,
          "midi": 64,
          "name": "E4",
          "ticks": 114000,
          "time": 84.82122499999998,
          "velocity": 0.6220472440944882
        },
        {
          "duration": 0.08184504166666784,
          "durationTicks": 110,
          "midi": 67,
          "name": "G4",
          "ticks": 114000,
          "time": 84.82122499999998,
          "velocity": 0.6220472440944882
        },
        {
          "duration": 0.08184504166666784,
          "durationTicks": 110,
          "midi": 70,
          "name": "A#4",
          "ticks": 114000,
          "time": 84.82122499999998,
          "velocity": 0.6220472440944882
        },
        {
          "duration": 0.1190473333333415,
          "durationTicks": 160,
          "midi": 60,
          "name": "C4",
          "ticks": 114240,
          "time": 84.99979599999999,
          "velocity": 0.6220472440944882
        },
        {
          "duration": 0.1190473333333415,
          "durationTicks": 160,
          "midi": 64,
          "name": "E4",
          "ticks": 114240,
          "time": 84.99979599999999,
          "velocity": 0.6220472440944882
        },
        {
          "duration": 0.1190473333333415,
          "durationTicks": 160,
          "midi": 67,
          "name": "G4",
          "ticks": 114240,
          "time": 84.99979599999999,
          "velocity": 0.6220472440944882
        },
        {
          "duration": 0.23809466666666879,
          "durationTicks": 320,
          "midi": 70,
          "name": "A#4",
          "ticks": 114240,
          "time": 84.99979599999999,
          "velocity": 0.6220472440944882
        },
        {
          "duration": 0.15624962500000095,
          "durationTicks": 210,
          "midi": 60,
          "name": "C4",
          "ticks": 114720,
          "time": 85.35693799999999,
          "velocity": 0.6220472440944882
        },
        {
          "duration": 0.15624962500000095,
          "durationTicks": 210,
          "midi": 64,
          "name": "E4",
          "ticks": 114720,
          "time": 85.35693799999999,
          "velocity": 0.6220472440944882
        },
        {
          "duration": 0.15624962500000095,
          "durationTicks": 210,
          "midi": 67,
          "name": "G4",
          "ticks": 114720,
          "time": 85.35693799999999,
          "velocity": 0.6220472440944882
        },
        {
          "duration": 0.15624962500000095,
          "durationTicks": 210,
          "midi": 70,
          "name": "A#4",
          "ticks": 114720,
          "time": 85.35693799999999,
          "velocity": 0.6220472440944882
        },
        {
          "duration": 0.08184504166666784,
          "durationTicks": 110,
          "midi": 60,
          "name": "C4",
          "ticks": 114960,
          "time": 85.53550899999999,
          "velocity": 0.6220472440944882
        },
        {
          "duration": 0.08184504166666784,
          "durationTicks": 110,
          "midi": 64,
          "name": "E4",
          "ticks": 114960,
          "time": 85.53550899999999,
          "velocity": 0.6220472440944882
        },
        {
          "duration": 0.08184504166666784,
          "durationTicks": 110,
          "midi": 67,
          "name": "G4",
          "ticks": 114960,
          "time": 85.53550899999999,
          "velocity": 0.6220472440944882
        },
        {
          "duration": 0.08184504166666784,
          "durationTicks": 110,
          "midi": 70,
          "name": "A#4",
          "ticks": 114960,
          "time": 85.53550899999999,
          "velocity": 0.6220472440944882
        },
        {
          "duration": 0.23809466666665458,
          "durationTicks": 320,
          "midi": 60,
          "name": "C4",
          "ticks": 115200,
          "time": 85.71408,
          "velocity": 0.6220472440944882
        },
        {
          "duration": 0.23809466666665458,
          "durationTicks": 320,
          "midi": 64,
          "name": "E4",
          "ticks": 115200,
          "time": 85.71408,
          "velocity": 0.6220472440944882
        },
        {
          "duration": 0.23809466666665458,
          "durationTicks": 320,
          "midi": 67,
          "name": "G4",
          "ticks": 115200,
          "time": 85.71408,
          "velocity": 0.6220472440944882
        },
        {
          "duration": 0.23809466666665458,
          "durationTicks": 320,
          "midi": 70,
          "name": "A#4",
          "ticks": 115200,
          "time": 85.71408,
          "velocity": 0.6220472440944882
        },
        {
          "duration": 0.15624962500000095,
          "durationTicks": 210,
          "midi": 60,
          "name": "C4",
          "ticks": 115680,
          "time": 86.07122199999999,
          "velocity": 0.6220472440944882
        },
        {
          "duration": 0.15624962500000095,
          "durationTicks": 210,
          "midi": 64,
          "name": "E4",
          "ticks": 115680,
          "time": 86.07122199999999,
          "velocity": 0.6220472440944882
        },
        {
          "duration": 0.15624962500000095,
          "durationTicks": 210,
          "midi": 67,
          "name": "G4",
          "ticks": 115680,
          "time": 86.07122199999999,
          "velocity": 0.6220472440944882
        },
        {
          "duration": 0.15624962500000095,
          "durationTicks": 210,
          "midi": 70,
          "name": "A#4",
          "ticks": 115680,
          "time": 86.07122199999999,
          "velocity": 0.6220472440944882
        },
        {
          "duration": 0.08184504166665363,
          "durationTicks": 110,
          "midi": 60,
          "name": "C4",
          "ticks": 115920,
          "time": 86.249793,
          "velocity": 0.6220472440944882
        },
        {
          "duration": 0.08184504166665363,
          "durationTicks": 110,
          "midi": 64,
          "name": "E4",
          "ticks": 115920,
          "time": 86.249793,
          "velocity": 0.6220472440944882
        },
        {
          "duration": 0.08184504166665363,
          "durationTicks": 110,
          "midi": 67,
          "name": "G4",
          "ticks": 115920,
          "time": 86.249793,
          "velocity": 0.6220472440944882
        },
        {
          "duration": 0.08184504166665363,
          "durationTicks": 110,
          "midi": 70,
          "name": "A#4",
          "ticks": 115920,
          "time": 86.249793,
          "velocity": 0.6220472440944882
        },
        {
          "duration": 0.1190473333333415,
          "durationTicks": 160,
          "midi": 60,
          "name": "C4",
          "ticks": 116160,
          "time": 86.42836399999999,
          "velocity": 0.6220472440944882
        },
        {
          "duration": 0.1190473333333415,
          "durationTicks": 160,
          "midi": 64,
          "name": "E4",
          "ticks": 116160,
          "time": 86.42836399999999,
          "velocity": 0.6220472440944882
        },
        {
          "duration": 0.1190473333333415,
          "durationTicks": 160,
          "midi": 67,
          "name": "G4",
          "ticks": 116160,
          "time": 86.42836399999999,
          "velocity": 0.6220472440944882
        },
        {
          "duration": 0.23809466666666879,
          "durationTicks": 320,
          "midi": 70,
          "name": "A#4",
          "ticks": 116160,
          "time": 86.42836399999999,
          "velocity": 0.6220472440944882
        },
        {
          "duration": 0.15624962500000095,
          "durationTicks": 210,
          "midi": 60,
          "name": "C4",
          "ticks": 116640,
          "time": 86.78550599999998,
          "velocity": 0.6220472440944882
        },
        {
          "duration": 0.15624962500000095,
          "durationTicks": 210,
          "midi": 64,
          "name": "E4",
          "ticks": 116640,
          "time": 86.78550599999998,
          "velocity": 0.6220472440944882
        },
        {
          "duration": 0.15624962500000095,
          "durationTicks": 210,
          "midi": 67,
          "name": "G4",
          "ticks": 116640,
          "time": 86.78550599999998,
          "velocity": 0.6220472440944882
        },
        {
          "duration": 0.15624962500000095,
          "durationTicks": 210,
          "midi": 70,
          "name": "A#4",
          "ticks": 116640,
          "time": 86.78550599999998,
          "velocity": 0.6220472440944882
        },
        {
          "duration": 0.08184504166666784,
          "durationTicks": 110,
          "midi": 60,
          "name": "C4",
          "ticks": 116880,
          "time": 86.96407699999999,
          "velocity": 0.6220472440944882
        },
        {
          "duration": 0.08184504166666784,
          "durationTicks": 110,
          "midi": 64,
          "name": "E4",
          "ticks": 116880,
          "time": 86.96407699999999,
          "velocity": 0.6220472440944882
        },
        {
          "duration": 0.08184504166666784,
          "durationTicks": 110,
          "midi": 67,
          "name": "G4",
          "ticks": 116880,
          "time": 86.96407699999999,
          "velocity": 0.6220472440944882
        },
        {
          "duration": 0.08184504166666784,
          "durationTicks": 110,
          "midi": 70,
          "name": "A#4",
          "ticks": 116880,
          "time": 86.96407699999999,
          "velocity": 0.6220472440944882
        },
        {
          "duration": 0.23809466666665458,
          "durationTicks": 320,
          "midi": 62,
          "name": "D4",
          "ticks": 117120,
          "time": 87.142648,
          "velocity": 0.6220472440944882
        },
        {
          "duration": 0.23809466666665458,
          "durationTicks": 320,
          "midi": 67,
          "name": "G4",
          "ticks": 117120,
          "time": 87.142648,
          "velocity": 0.6220472440944882
        },
        {
          "duration": 0.23809466666665458,
          "durationTicks": 320,
          "midi": 71,
          "name": "B4",
          "ticks": 117120,
          "time": 87.142648,
          "velocity": 0.6220472440944882
        },
        {
          "duration": 0.14880916666666621,
          "durationTicks": 200,
          "midi": 62,
          "name": "D4",
          "ticks": 117600,
          "time": 87.49978999999999,
          "velocity": 0.6220472440944882
        },
        {
          "duration": 0.14880916666666621,
          "durationTicks": 200,
          "midi": 67,
          "name": "G4",
          "ticks": 117600,
          "time": 87.49978999999999,
          "velocity": 0.6220472440944882
        },
        {
          "duration": 0.14880916666666621,
          "durationTicks": 200,
          "midi": 71,
          "name": "B4",
          "ticks": 117600,
          "time": 87.49978999999999,
          "velocity": 0.6220472440944882
        },
        {
          "duration": 0.07440458333333311,
          "durationTicks": 100,
          "midi": 62,
          "name": "D4",
          "ticks": 117840,
          "time": 87.678361,
          "velocity": 0.6220472440944882
        },
        {
          "duration": 0.07440458333333311,
          "durationTicks": 100,
          "midi": 67,
          "name": "G4",
          "ticks": 117840,
          "time": 87.678361,
          "velocity": 0.6220472440944882
        },
        {
          "duration": 0.07440458333333311,
          "durationTicks": 100,
          "midi": 71,
          "name": "B4",
          "ticks": 117840,
          "time": 87.678361,
          "velocity": 0.6220472440944882
        },
        {
          "duration": 0.23809466666666879,
          "durationTicks": 320,
          "midi": 62,
          "name": "D4",
          "ticks": 118080,
          "time": 87.85693199999999,
          "velocity": 0.6220472440944882
        },
        {
          "duration": 0.23809466666666879,
          "durationTicks": 320,
          "midi": 67,
          "name": "G4",
          "ticks": 118080,
          "time": 87.85693199999999,
          "velocity": 0.6220472440944882
        },
        {
          "duration": 0.23809466666666879,
          "durationTicks": 320,
          "midi": 71,
          "name": "B4",
          "ticks": 118080,
          "time": 87.85693199999999,
          "velocity": 0.6220472440944882
        },
        {
          "duration": 0.148809166666652,
          "durationTicks": 200,
          "midi": 62,
          "name": "D4",
          "ticks": 118560,
          "time": 88.214074,
          "velocity": 0.6220472440944882
        },
        {
          "duration": 0.148809166666652,
          "durationTicks": 200,
          "midi": 67,
          "name": "G4",
          "ticks": 118560,
          "time": 88.214074,
          "velocity": 0.6220472440944882
        },
        {
          "duration": 0.148809166666652,
          "durationTicks": 200,
          "midi": 71,
          "name": "B4",
          "ticks": 118560,
          "time": 88.214074,
          "velocity": 0.6220472440944882
        },
        {
          "duration": 0.07440458333333311,
          "durationTicks": 100,
          "midi": 62,
          "name": "D4",
          "ticks": 118800,
          "time": 88.39264499999999,
          "velocity": 0.6220472440944882
        },
        {
          "duration": 0.07440458333333311,
          "durationTicks": 100,
          "midi": 67,
          "name": "G4",
          "ticks": 118800,
          "time": 88.39264499999999,
          "velocity": 0.6220472440944882
        },
        {
          "duration": 0.07440458333333311,
          "durationTicks": 100,
          "midi": 71,
          "name": "B4",
          "ticks": 118800,
          "time": 88.39264499999999,
          "velocity": 0.6220472440944882
        },
        {
          "duration": 0.23809466666665458,
          "durationTicks": 320,
          "midi": 63,
          "name": "D#4",
          "ticks": 119040,
          "time": 88.57121599999999,
          "velocity": 0.6220472440944882
        },
        {
          "duration": 0.23809466666665458,
          "durationTicks": 320,
          "midi": 65,
          "name": "F4",
          "ticks": 119040,
          "time": 88.57121599999999,
          "velocity": 0.6220472440944882
        },
        {
          "duration": 0.23809466666665458,
          "durationTicks": 320,
          "midi": 69,
          "name": "A4",
          "ticks": 119040,
          "time": 88.57121599999999,
          "velocity": 0.6220472440944882
        },
        {
          "duration": 0.23809466666665458,
          "durationTicks": 320,
          "midi": 72,
          "name": "C5",
          "ticks": 119040,
          "time": 88.57121599999999,
          "velocity": 0.6220472440944882
        },
        {
          "duration": 0.23809466666666879,
          "durationTicks": 320,
          "midi": 63,
          "name": "D#4",
          "ticks": 120960,
          "time": 89.99978399999999,
          "velocity": 0.6220472440944882
        },
        {
          "duration": 0.23809466666666879,
          "durationTicks": 320,
          "midi": 65,
          "name": "F4",
          "ticks": 120960,
          "time": 89.99978399999999,
          "velocity": 0.6220472440944882
        },
        {
          "duration": 0.23809466666666879,
          "durationTicks": 320,
          "midi": 69,
          "name": "A4",
          "ticks": 120960,
          "time": 89.99978399999999,
          "velocity": 0.6220472440944882
        },
        {
          "duration": 0.23809466666666879,
          "durationTicks": 320,
          "midi": 72,
          "name": "C5",
          "ticks": 120960,
          "time": 89.99978399999999,
          "velocity": 0.6220472440944882
        },
        {
          "duration": 0.14880916666666621,
          "durationTicks": 200,
          "midi": 63,
          "name": "D#4",
          "ticks": 121440,
          "time": 90.35692599999999,
          "velocity": 0.6220472440944882
        },
        {
          "duration": 0.14880916666666621,
          "durationTicks": 200,
          "midi": 65,
          "name": "F4",
          "ticks": 121440,
          "time": 90.35692599999999,
          "velocity": 0.6220472440944882
        },
        {
          "duration": 0.14880916666666621,
          "durationTicks": 200,
          "midi": 69,
          "name": "A4",
          "ticks": 121440,
          "time": 90.35692599999999,
          "velocity": 0.6220472440944882
        },
        {
          "duration": 0.14880916666666621,
          "durationTicks": 200,
          "midi": 72,
          "name": "C5",
          "ticks": 121440,
          "time": 90.35692599999999,
          "velocity": 0.6220472440944882
        },
        {
          "duration": 0.07440458333333311,
          "durationTicks": 100,
          "midi": 63,
          "name": "D#4",
          "ticks": 121680,
          "time": 90.53549699999999,
          "velocity": 0.6220472440944882
        },
        {
          "duration": 0.07440458333333311,
          "durationTicks": 100,
          "midi": 65,
          "name": "F4",
          "ticks": 121680,
          "time": 90.53549699999999,
          "velocity": 0.6220472440944882
        },
        {
          "duration": 0.07440458333333311,
          "durationTicks": 100,
          "midi": 69,
          "name": "A4",
          "ticks": 121680,
          "time": 90.53549699999999,
          "velocity": 0.6220472440944882
        },
        {
          "duration": 0.07440458333333311,
          "durationTicks": 100,
          "midi": 72,
          "name": "C5",
          "ticks": 121680,
          "time": 90.53549699999999,
          "velocity": 0.6220472440944882
        },
        {
          "duration": 0.23809466666666879,
          "durationTicks": 320,
          "midi": 63,
          "name": "D#4",
          "ticks": 121920,
          "time": 90.71406799999998,
          "velocity": 0.6220472440944882
        },
        {
          "duration": 0.23809466666666879,
          "durationTicks": 320,
          "midi": 65,
          "name": "F4",
          "ticks": 121920,
          "time": 90.71406799999998,
          "velocity": 0.6220472440944882
        },
        {
          "duration": 0.23809466666666879,
          "durationTicks": 320,
          "midi": 69,
          "name": "A4",
          "ticks": 121920,
          "time": 90.71406799999998,
          "velocity": 0.6220472440944882
        },
        {
          "duration": 0.23809466666666879,
          "durationTicks": 320,
          "midi": 72,
          "name": "C5",
          "ticks": 121920,
          "time": 90.71406799999998,
          "velocity": 0.6220472440944882
        },
        {
          "duration": 0.14880916666666621,
          "durationTicks": 200,
          "midi": 63,
          "name": "D#4",
          "ticks": 122400,
          "time": 91.07121,
          "velocity": 0.6220472440944882
        },
        {
          "duration": 0.14880916666666621,
          "durationTicks": 200,
          "midi": 65,
          "name": "F4",
          "ticks": 122400,
          "time": 91.07121,
          "velocity": 0.6220472440944882
        },
        {
          "duration": 0.14880916666666621,
          "durationTicks": 200,
          "midi": 69,
          "name": "A4",
          "ticks": 122400,
          "time": 91.07121,
          "velocity": 0.6220472440944882
        },
        {
          "duration": 0.14880916666666621,
          "durationTicks": 200,
          "midi": 72,
          "name": "C5",
          "ticks": 122400,
          "time": 91.07121,
          "velocity": 0.6220472440944882
        },
        {
          "duration": 0.07440458333334732,
          "durationTicks": 100,
          "midi": 63,
          "name": "D#4",
          "ticks": 122640,
          "time": 91.24978099999998,
          "velocity": 0.6220472440944882
        },
        {
          "duration": 0.07440458333334732,
          "durationTicks": 100,
          "midi": 65,
          "name": "F4",
          "ticks": 122640,
          "time": 91.24978099999998,
          "velocity": 0.6220472440944882
        },
        {
          "duration": 0.07440458333334732,
          "durationTicks": 100,
          "midi": 69,
          "name": "A4",
          "ticks": 122640,
          "time": 91.24978099999998,
          "velocity": 0.6220472440944882
        },
        {
          "duration": 0.07440458333334732,
          "durationTicks": 100,
          "midi": 72,
          "name": "C5",
          "ticks": 122640,
          "time": 91.24978099999998,
          "velocity": 0.6220472440944882
        },
        {
          "duration": 0.23809466666666879,
          "durationTicks": 320,
          "midi": 64,
          "name": "E4",
          "ticks": 122880,
          "time": 91.42835199999999,
          "velocity": 0.6220472440944882
        },
        {
          "duration": 0.23809466666666879,
          "durationTicks": 320,
          "midi": 67,
          "name": "G4",
          "ticks": 122880,
          "time": 91.42835199999999,
          "velocity": 0.6220472440944882
        },
        {
          "duration": 0.23809466666666879,
          "durationTicks": 320,
          "midi": 72,
          "name": "C5",
          "ticks": 122880,
          "time": 91.42835199999999,
          "velocity": 0.6220472440944882
        },
        {
          "duration": 0.15624962500000095,
          "durationTicks": 210,
          "midi": 64,
          "name": "E4",
          "ticks": 123360,
          "time": 91.78549399999999,
          "velocity": 0.6220472440944882
        },
        {
          "duration": 0.15624962500000095,
          "durationTicks": 210,
          "midi": 67,
          "name": "G4",
          "ticks": 123360,
          "time": 91.78549399999999,
          "velocity": 0.6220472440944882
        },
        {
          "duration": 0.15624962500000095,
          "durationTicks": 210,
          "midi": 72,
          "name": "C5",
          "ticks": 123360,
          "time": 91.78549399999999,
          "velocity": 0.6220472440944882
        },
        {
          "duration": 0.0744045833333189,
          "durationTicks": 100,
          "midi": 64,
          "name": "E4",
          "ticks": 123600,
          "time": 91.96406499999999,
          "velocity": 0.6220472440944882
        },
        {
          "duration": 0.0744045833333189,
          "durationTicks": 100,
          "midi": 67,
          "name": "G4",
          "ticks": 123600,
          "time": 91.96406499999999,
          "velocity": 0.6220472440944882
        },
        {
          "duration": 0.0744045833333189,
          "durationTicks": 100,
          "midi": 72,
          "name": "C5",
          "ticks": 123600,
          "time": 91.96406499999999,
          "velocity": 0.6220472440944882
        },
        {
          "duration": 0.23809466666666879,
          "durationTicks": 320,
          "midi": 64,
          "name": "E4",
          "ticks": 123840,
          "time": 92.142636,
          "velocity": 0.6220472440944882
        },
        {
          "duration": 0.23809466666666879,
          "durationTicks": 320,
          "midi": 67,
          "name": "G4",
          "ticks": 123840,
          "time": 92.142636,
          "velocity": 0.6220472440944882
        },
        {
          "duration": 0.23809466666666879,
          "durationTicks": 320,
          "midi": 72,
          "name": "C5",
          "ticks": 123840,
          "time": 92.142636,
          "velocity": 0.6220472440944882
        },
        {
          "duration": 0.15624962500000095,
          "durationTicks": 210,
          "midi": 64,
          "name": "E4",
          "ticks": 124320,
          "time": 92.49977799999999,
          "velocity": 0.6220472440944882
        },
        {
          "duration": 0.15624962500000095,
          "durationTicks": 210,
          "midi": 67,
          "name": "G4",
          "ticks": 124320,
          "time": 92.49977799999999,
          "velocity": 0.6220472440944882
        },
        {
          "duration": 0.15624962500000095,
          "durationTicks": 210,
          "midi": 72,
          "name": "C5",
          "ticks": 124320,
          "time": 92.49977799999999,
          "velocity": 0.6220472440944882
        },
        {
          "duration": 0.08184504166668205,
          "durationTicks": 110,
          "midi": 64,
          "name": "E4",
          "ticks": 124560,
          "time": 92.67834899999998,
          "velocity": 0.6220472440944882
        },
        {
          "duration": 0.08184504166668205,
          "durationTicks": 110,
          "midi": 67,
          "name": "G4",
          "ticks": 124560,
          "time": 92.67834899999998,
          "velocity": 0.6220472440944882
        },
        {
          "duration": 0.08184504166668205,
          "durationTicks": 110,
          "midi": 72,
          "name": "C5",
          "ticks": 124560,
          "time": 92.67834899999998,
          "velocity": 0.6220472440944882
        },
        {
          "duration": 0.23809466666666879,
          "durationTicks": 320,
          "midi": 64,
          "name": "E4",
          "ticks": 124800,
          "time": 92.85691999999999,
          "velocity": 0.6220472440944882
        },
        {
          "duration": 0.23809466666666879,
          "durationTicks": 320,
          "midi": 67,
          "name": "G4",
          "ticks": 124800,
          "time": 92.85691999999999,
          "velocity": 0.6220472440944882
        },
        {
          "duration": 0.23809466666666879,
          "durationTicks": 320,
          "midi": 71,
          "name": "B4",
          "ticks": 124800,
          "time": 92.85691999999999,
          "velocity": 0.6220472440944882
        },
        {
          "duration": 0.15624962500000095,
          "durationTicks": 210,
          "midi": 64,
          "name": "E4",
          "ticks": 125280,
          "time": 93.21406199999998,
          "velocity": 0.6220472440944882
        },
        {
          "duration": 0.15624962500000095,
          "durationTicks": 210,
          "midi": 67,
          "name": "G4",
          "ticks": 125280,
          "time": 93.21406199999998,
          "velocity": 0.6220472440944882
        },
        {
          "duration": 0.15624962500000095,
          "durationTicks": 210,
          "midi": 71,
          "name": "B4",
          "ticks": 125280,
          "time": 93.21406199999998,
          "velocity": 0.6220472440944882
        },
        {
          "duration": 0.27529695833332823,
          "durationTicks": 370,
          "midi": 64,
          "name": "E4",
          "ticks": 125520,
          "time": 93.39263299999999,
          "velocity": 0.6220472440944882
        },
        {
          "duration": 0.27529695833332823,
          "durationTicks": 370,
          "midi": 67,
          "name": "G4",
          "ticks": 125520,
          "time": 93.39263299999999,
          "velocity": 0.6220472440944882
        },
        {
          "duration": 0.27529695833332823,
          "durationTicks": 370,
          "midi": 71,
          "name": "B4",
          "ticks": 125520,
          "time": 93.39263299999999,
          "velocity": 0.6220472440944882
        },
        {
          "duration": 0.07440458333333311,
          "durationTicks": 100,
          "midi": 64,
          "name": "E4",
          "ticks": 126000,
          "time": 93.74977499999999,
          "velocity": 0.6220472440944882
        },
        {
          "duration": 0.07440458333333311,
          "durationTicks": 100,
          "midi": 67,
          "name": "G4",
          "ticks": 126000,
          "time": 93.74977499999999,
          "velocity": 0.6220472440944882
        },
        {
          "duration": 0.07440458333333311,
          "durationTicks": 100,
          "midi": 71,
          "name": "B4",
          "ticks": 126000,
          "time": 93.74977499999999,
          "velocity": 0.6220472440944882
        },
        {
          "duration": 0.23809466666666879,
          "durationTicks": 320,
          "midi": 64,
          "name": "E4",
          "ticks": 126240,
          "time": 93.92834599999999,
          "velocity": 0.6220472440944882
        },
        {
          "duration": 0.23809466666666879,
          "durationTicks": 320,
          "midi": 67,
          "name": "G4",
          "ticks": 126240,
          "time": 93.92834599999999,
          "velocity": 0.6220472440944882
        },
        {
          "duration": 0.23809466666666879,
          "durationTicks": 320,
          "midi": 71,
          "name": "B4",
          "ticks": 126240,
          "time": 93.92834599999999,
          "velocity": 0.6220472440944882
        },
        {
          "duration": 0.238094666666683,
          "durationTicks": 320,
          "midi": 60,
          "name": "C4",
          "ticks": 126720,
          "time": 94.28548799999999,
          "velocity": 0.6220472440944882
        },
        {
          "duration": 0.238094666666683,
          "durationTicks": 320,
          "midi": 64,
          "name": "E4",
          "ticks": 126720,
          "time": 94.28548799999999,
          "velocity": 0.6220472440944882
        },
        {
          "duration": 0.238094666666683,
          "durationTicks": 320,
          "midi": 69,
          "name": "A4",
          "ticks": 126720,
          "time": 94.28548799999999,
          "velocity": 0.6220472440944882
        },
        {
          "duration": 0.15624962500000095,
          "durationTicks": 210,
          "midi": 60,
          "name": "C4",
          "ticks": 127200,
          "time": 94.64262999999998,
          "velocity": 0.6220472440944882
        },
        {
          "duration": 0.15624962500000095,
          "durationTicks": 210,
          "midi": 64,
          "name": "E4",
          "ticks": 127200,
          "time": 94.64262999999998,
          "velocity": 0.6220472440944882
        },
        {
          "duration": 0.15624962500000095,
          "durationTicks": 210,
          "midi": 69,
          "name": "A4",
          "ticks": 127200,
          "time": 94.64262999999998,
          "velocity": 0.6220472440944882
        },
        {
          "duration": 0.27529695833332823,
          "durationTicks": 370,
          "midi": 60,
          "name": "C4",
          "ticks": 127440,
          "time": 94.82120099999999,
          "velocity": 0.6220472440944882
        },
        {
          "duration": 0.27529695833332823,
          "durationTicks": 370,
          "midi": 64,
          "name": "E4",
          "ticks": 127440,
          "time": 94.82120099999999,
          "velocity": 0.6220472440944882
        },
        {
          "duration": 0.27529695833332823,
          "durationTicks": 370,
          "midi": 69,
          "name": "A4",
          "ticks": 127440,
          "time": 94.82120099999999,
          "velocity": 0.6220472440944882
        },
        {
          "duration": 0.07440458333333311,
          "durationTicks": 100,
          "midi": 60,
          "name": "C4",
          "ticks": 127920,
          "time": 95.17834299999998,
          "velocity": 0.6220472440944882
        },
        {
          "duration": 0.07440458333333311,
          "durationTicks": 100,
          "midi": 64,
          "name": "E4",
          "ticks": 127920,
          "time": 95.17834299999998,
          "velocity": 0.6220472440944882
        },
        {
          "duration": 0.07440458333333311,
          "durationTicks": 100,
          "midi": 69,
          "name": "A4",
          "ticks": 127920,
          "time": 95.17834299999998,
          "velocity": 0.6220472440944882
        },
        {
          "duration": 0.23809466666666879,
          "durationTicks": 320,
          "midi": 60,
          "name": "C4",
          "ticks": 128160,
          "time": 95.35691399999999,
          "velocity": 0.6220472440944882
        },
        {
          "duration": 0.23809466666666879,
          "durationTicks": 320,
          "midi": 64,
          "name": "E4",
          "ticks": 128160,
          "time": 95.35691399999999,
          "velocity": 0.6220472440944882
        },
        {
          "duration": 0.23809466666666879,
          "durationTicks": 320,
          "midi": 69,
          "name": "A4",
          "ticks": 128160,
          "time": 95.35691399999999,
          "velocity": 0.6220472440944882
        },
        {
          "duration": 0.238094666666683,
          "durationTicks": 320,
          "midi": 60,
          "name": "C4",
          "ticks": 128640,
          "time": 95.71405599999999,
          "velocity": 0.6220472440944882
        },
        {
          "duration": 0.238094666666683,
          "durationTicks": 320,
          "midi": 64,
          "name": "E4",
          "ticks": 128640,
          "time": 95.71405599999999,
          "velocity": 0.6220472440944882
        },
        {
          "duration": 0.238094666666683,
          "durationTicks": 320,
          "midi": 67,
          "name": "G4",
          "ticks": 128640,
          "time": 95.71405599999999,
          "velocity": 0.6220472440944882
        },
        {
          "duration": 0.238094666666683,
          "durationTicks": 320,
          "midi": 70,
          "name": "A#4",
          "ticks": 128640,
          "time": 95.71405599999999,
          "velocity": 0.6220472440944882
        },
        {
          "duration": 0.15624962499998674,
          "durationTicks": 210,
          "midi": 60,
          "name": "C4",
          "ticks": 129120,
          "time": 96.071198,
          "velocity": 0.6220472440944882
        },
        {
          "duration": 0.15624962499998674,
          "durationTicks": 210,
          "midi": 64,
          "name": "E4",
          "ticks": 129120,
          "time": 96.071198,
          "velocity": 0.6220472440944882
        },
        {
          "duration": 0.15624962499998674,
          "durationTicks": 210,
          "midi": 67,
          "name": "G4",
          "ticks": 129120,
          "time": 96.071198,
          "velocity": 0.6220472440944882
        },
        {
          "duration": 0.15624962499998674,
          "durationTicks": 210,
          "midi": 70,
          "name": "A#4",
          "ticks": 129120,
          "time": 96.071198,
          "velocity": 0.6220472440944882
        },
        {
          "duration": 0.27529695833332823,
          "durationTicks": 370,
          "midi": 60,
          "name": "C4",
          "ticks": 129360,
          "time": 96.24976899999999,
          "velocity": 0.6220472440944882
        },
        {
          "duration": 0.27529695833332823,
          "durationTicks": 370,
          "midi": 64,
          "name": "E4",
          "ticks": 129360,
          "time": 96.24976899999999,
          "velocity": 0.6220472440944882
        },
        {
          "duration": 0.27529695833332823,
          "durationTicks": 370,
          "midi": 67,
          "name": "G4",
          "ticks": 129360,
          "time": 96.24976899999999,
          "velocity": 0.6220472440944882
        },
        {
          "duration": 0.11904733333332729,
          "durationTicks": 160,
          "midi": 70,
          "name": "A#4",
          "ticks": 129360,
          "time": 96.24976899999999,
          "velocity": 0.6220472440944882
        },
        {
          "duration": 0.15624962500000095,
          "durationTicks": 210,
          "midi": 70,
          "name": "A#4",
          "ticks": 129600,
          "time": 96.42833999999999,
          "velocity": 0.6220472440944882
        },
        {
          "duration": 0.08184504166668205,
          "durationTicks": 110,
          "midi": 60,
          "name": "C4",
          "ticks": 129840,
          "time": 96.60691099999998,
          "velocity": 0.6220472440944882
        },
        {
          "duration": 0.08184504166668205,
          "durationTicks": 110,
          "midi": 64,
          "name": "E4",
          "ticks": 129840,
          "time": 96.60691099999998,
          "velocity": 0.6220472440944882
        },
        {
          "duration": 0.08184504166668205,
          "durationTicks": 110,
          "midi": 67,
          "name": "G4",
          "ticks": 129840,
          "time": 96.60691099999998,
          "velocity": 0.6220472440944882
        },
        {
          "duration": 0.08184504166668205,
          "durationTicks": 110,
          "midi": 70,
          "name": "A#4",
          "ticks": 129840,
          "time": 96.60691099999998,
          "velocity": 0.6220472440944882
        },
        {
          "duration": 0.23809466666666879,
          "durationTicks": 320,
          "midi": 60,
          "name": "C4",
          "ticks": 130080,
          "time": 96.78548199999999,
          "velocity": 0.6220472440944882
        },
        {
          "duration": 0.23809466666666879,
          "durationTicks": 320,
          "midi": 64,
          "name": "E4",
          "ticks": 130080,
          "time": 96.78548199999999,
          "velocity": 0.6220472440944882
        },
        {
          "duration": 0.23809466666666879,
          "durationTicks": 320,
          "midi": 67,
          "name": "G4",
          "ticks": 130080,
          "time": 96.78548199999999,
          "velocity": 0.6220472440944882
        },
        {
          "duration": 0.23809466666666879,
          "durationTicks": 320,
          "midi": 70,
          "name": "A#4",
          "ticks": 130080,
          "time": 96.78548199999999,
          "velocity": 0.6220472440944882
        },
        {
          "duration": 0.238094666666683,
          "durationTicks": 320,
          "midi": 64,
          "name": "E4",
          "ticks": 130560,
          "time": 97.14262399999998,
          "velocity": 0.6220472440944882
        },
        {
          "duration": 0.238094666666683,
          "durationTicks": 320,
          "midi": 67,
          "name": "G4",
          "ticks": 130560,
          "time": 97.14262399999998,
          "velocity": 0.6220472440944882
        },
        {
          "duration": 0.238094666666683,
          "durationTicks": 320,
          "midi": 72,
          "name": "C5",
          "ticks": 130560,
          "time": 97.14262399999998,
          "velocity": 0.6220472440944882
        },
        {
          "duration": 0.15624962500000095,
          "durationTicks": 210,
          "midi": 64,
          "name": "E4",
          "ticks": 131040,
          "time": 97.499766,
          "velocity": 0.6220472440944882
        },
        {
          "duration": 0.15624962500000095,
          "durationTicks": 210,
          "midi": 67,
          "name": "G4",
          "ticks": 131040,
          "time": 97.499766,
          "velocity": 0.6220472440944882
        },
        {
          "duration": 0.15624962500000095,
          "durationTicks": 210,
          "midi": 72,
          "name": "C5",
          "ticks": 131040,
          "time": 97.499766,
          "velocity": 0.6220472440944882
        },
        {
          "duration": 0.2157732916666788,
          "durationTicks": 290,
          "midi": 64,
          "name": "E4",
          "ticks": 131400,
          "time": 97.76762249999999,
          "velocity": 0.6220472440944882
        },
        {
          "duration": 0.2157732916666788,
          "durationTicks": 290,
          "midi": 67,
          "name": "G4",
          "ticks": 131400,
          "time": 97.76762249999999,
          "velocity": 0.6220472440944882
        },
        {
          "duration": 0.2157732916666788,
          "durationTicks": 290,
          "midi": 72,
          "name": "C5",
          "ticks": 131400,
          "time": 97.76762249999999,
          "velocity": 0.6220472440944882
        },
        {
          "duration": 0.08184504166666784,
          "durationTicks": 110,
          "midi": 64,
          "name": "E4",
          "ticks": 131760,
          "time": 98.035479,
          "velocity": 0.6220472440944882
        },
        {
          "duration": 0.08184504166666784,
          "durationTicks": 110,
          "midi": 67,
          "name": "G4",
          "ticks": 131760,
          "time": 98.035479,
          "velocity": 0.6220472440944882
        },
        {
          "duration": 0.08184504166666784,
          "durationTicks": 110,
          "midi": 72,
          "name": "C5",
          "ticks": 131760,
          "time": 98.035479,
          "velocity": 0.6220472440944882
        },
        {
          "duration": 0.238094666666683,
          "durationTicks": 320,
          "midi": 64,
          "name": "E4",
          "ticks": 132000,
          "time": 98.21404999999999,
          "velocity": 0.6220472440944882
        },
        {
          "duration": 0.238094666666683,
          "durationTicks": 320,
          "midi": 67,
          "name": "G4",
          "ticks": 132000,
          "time": 98.21404999999999,
          "velocity": 0.6220472440944882
        },
        {
          "duration": 0.238094666666683,
          "durationTicks": 320,
          "midi": 72,
          "name": "C5",
          "ticks": 132000,
          "time": 98.21404999999999,
          "velocity": 0.6220472440944882
        },
        {
          "duration": 0.238094666666683,
          "durationTicks": 320,
          "midi": 64,
          "name": "E4",
          "ticks": 132480,
          "time": 98.57119199999998,
          "velocity": 0.6220472440944882
        },
        {
          "duration": 0.238094666666683,
          "durationTicks": 320,
          "midi": 67,
          "name": "G4",
          "ticks": 132480,
          "time": 98.57119199999998,
          "velocity": 0.6220472440944882
        },
        {
          "duration": 0.238094666666683,
          "durationTicks": 320,
          "midi": 71,
          "name": "B4",
          "ticks": 132480,
          "time": 98.57119199999998,
          "velocity": 0.6220472440944882
        },
        {
          "duration": 0.15624962500000095,
          "durationTicks": 210,
          "midi": 64,
          "name": "E4",
          "ticks": 132960,
          "time": 98.92833399999999,
          "velocity": 0.6220472440944882
        },
        {
          "duration": 0.15624962500000095,
          "durationTicks": 210,
          "midi": 67,
          "name": "G4",
          "ticks": 132960,
          "time": 98.92833399999999,
          "velocity": 0.6220472440944882
        },
        {
          "duration": 0.15624962500000095,
          "durationTicks": 210,
          "midi": 71,
          "name": "B4",
          "ticks": 132960,
          "time": 98.92833399999999,
          "velocity": 0.6220472440944882
        },
        {
          "duration": 0.27529695833332823,
          "durationTicks": 370,
          "midi": 64,
          "name": "E4",
          "ticks": 133200,
          "time": 99.10690499999998,
          "velocity": 0.6220472440944882
        },
        {
          "duration": 0.27529695833332823,
          "durationTicks": 370,
          "midi": 67,
          "name": "G4",
          "ticks": 133200,
          "time": 99.10690499999998,
          "velocity": 0.6220472440944882
        },
        {
          "duration": 0.27529695833332823,
          "durationTicks": 370,
          "midi": 71,
          "name": "B4",
          "ticks": 133200,
          "time": 99.10690499999998,
          "velocity": 0.6220472440944882
        },
        {
          "duration": 0.0744045833333189,
          "durationTicks": 100,
          "midi": 64,
          "name": "E4",
          "ticks": 133680,
          "time": 99.464047,
          "velocity": 0.6220472440944882
        },
        {
          "duration": 0.0744045833333189,
          "durationTicks": 100,
          "midi": 67,
          "name": "G4",
          "ticks": 133680,
          "time": 99.464047,
          "velocity": 0.6220472440944882
        },
        {
          "duration": 0.0744045833333189,
          "durationTicks": 100,
          "midi": 71,
          "name": "B4",
          "ticks": 133680,
          "time": 99.464047,
          "velocity": 0.6220472440944882
        },
        {
          "duration": 0.238094666666683,
          "durationTicks": 320,
          "midi": 64,
          "name": "E4",
          "ticks": 133920,
          "time": 99.64261799999998,
          "velocity": 0.6220472440944882
        },
        {
          "duration": 0.238094666666683,
          "durationTicks": 320,
          "midi": 67,
          "name": "G4",
          "ticks": 133920,
          "time": 99.64261799999998,
          "velocity": 0.6220472440944882
        },
        {
          "duration": 0.238094666666683,
          "durationTicks": 320,
          "midi": 71,
          "name": "B4",
          "ticks": 133920,
          "time": 99.64261799999998,
          "velocity": 0.6220472440944882
        },
        {
          "duration": 0.23809466666666879,
          "durationTicks": 320,
          "midi": 60,
          "name": "C4",
          "ticks": 134400,
          "time": 99.99976,
          "velocity": 0.6220472440944882
        },
        {
          "duration": 0.23809466666666879,
          "durationTicks": 320,
          "midi": 64,
          "name": "E4",
          "ticks": 134400,
          "time": 99.99976,
          "velocity": 0.6220472440944882
        },
        {
          "duration": 0.23809466666666879,
          "durationTicks": 320,
          "midi": 69,
          "name": "A4",
          "ticks": 134400,
          "time": 99.99976,
          "velocity": 0.6220472440944882
        },
        {
          "duration": 0.15624962500000095,
          "durationTicks": 210,
          "midi": 60,
          "name": "C4",
          "ticks": 134880,
          "time": 100.35690199999999,
          "velocity": 0.6220472440944882
        },
        {
          "duration": 0.15624962500000095,
          "durationTicks": 210,
          "midi": 64,
          "name": "E4",
          "ticks": 134880,
          "time": 100.35690199999999,
          "velocity": 0.6220472440944882
        },
        {
          "duration": 0.15624962500000095,
          "durationTicks": 210,
          "midi": 69,
          "name": "A4",
          "ticks": 134880,
          "time": 100.35690199999999,
          "velocity": 0.6220472440944882
        },
        {
          "duration": 0.27529695833332823,
          "durationTicks": 370,
          "midi": 60,
          "name": "C4",
          "ticks": 135120,
          "time": 100.53547299999998,
          "velocity": 0.6220472440944882
        },
        {
          "duration": 0.27529695833332823,
          "durationTicks": 370,
          "midi": 64,
          "name": "E4",
          "ticks": 135120,
          "time": 100.53547299999998,
          "velocity": 0.6220472440944882
        },
        {
          "duration": 0.27529695833332823,
          "durationTicks": 370,
          "midi": 69,
          "name": "A4",
          "ticks": 135120,
          "time": 100.53547299999998,
          "velocity": 0.6220472440944882
        },
        {
          "duration": 0.0744045833333189,
          "durationTicks": 100,
          "midi": 60,
          "name": "C4",
          "ticks": 135600,
          "time": 100.89261499999999,
          "velocity": 0.6220472440944882
        },
        {
          "duration": 0.0744045833333189,
          "durationTicks": 100,
          "midi": 64,
          "name": "E4",
          "ticks": 135600,
          "time": 100.89261499999999,
          "velocity": 0.6220472440944882
        },
        {
          "duration": 0.0744045833333189,
          "durationTicks": 100,
          "midi": 69,
          "name": "A4",
          "ticks": 135600,
          "time": 100.89261499999999,
          "velocity": 0.6220472440944882
        },
        {
          "duration": 0.238094666666683,
          "durationTicks": 320,
          "midi": 60,
          "name": "C4",
          "ticks": 135840,
          "time": 101.07118599999998,
          "velocity": 0.6220472440944882
        },
        {
          "duration": 0.238094666666683,
          "durationTicks": 320,
          "midi": 64,
          "name": "E4",
          "ticks": 135840,
          "time": 101.07118599999998,
          "velocity": 0.6220472440944882
        },
        {
          "duration": 0.238094666666683,
          "durationTicks": 320,
          "midi": 69,
          "name": "A4",
          "ticks": 135840,
          "time": 101.07118599999998,
          "velocity": 0.6220472440944882
        },
        {
          "duration": 0.23809466666666879,
          "durationTicks": 320,
          "midi": 62,
          "name": "D4",
          "ticks": 136320,
          "time": 101.428328,
          "velocity": 0.6220472440944882
        },
        {
          "duration": 0.23809466666666879,
          "durationTicks": 320,
          "midi": 65,
          "name": "F4",
          "ticks": 136320,
          "time": 101.428328,
          "velocity": 0.6220472440944882
        },
        {
          "duration": 0.23809466666666879,
          "durationTicks": 320,
          "midi": 69,
          "name": "A4",
          "ticks": 136320,
          "time": 101.428328,
          "velocity": 0.6220472440944882
        },
        {
          "duration": 0.23809466666666879,
          "durationTicks": 320,
          "midi": 72,
          "name": "C5",
          "ticks": 136320,
          "time": 101.428328,
          "velocity": 0.6220472440944882
        },
        {
          "duration": 0.15624962500000095,
          "durationTicks": 210,
          "midi": 62,
          "name": "D4",
          "ticks": 136800,
          "time": 101.78546999999999,
          "velocity": 0.6220472440944882
        },
        {
          "duration": 0.15624962500000095,
          "durationTicks": 210,
          "midi": 65,
          "name": "F4",
          "ticks": 136800,
          "time": 101.78546999999999,
          "velocity": 0.6220472440944882
        },
        {
          "duration": 0.15624962500000095,
          "durationTicks": 210,
          "midi": 69,
          "name": "A4",
          "ticks": 136800,
          "time": 101.78546999999999,
          "velocity": 0.6220472440944882
        },
        {
          "duration": 0.15624962500000095,
          "durationTicks": 210,
          "midi": 72,
          "name": "C5",
          "ticks": 136800,
          "time": 101.78546999999999,
          "velocity": 0.6220472440944882
        },
        {
          "duration": 0.275296958333314,
          "durationTicks": 370,
          "midi": 62,
          "name": "D4",
          "ticks": 137040,
          "time": 101.964041,
          "velocity": 0.6220472440944882
        },
        {
          "duration": 0.275296958333314,
          "durationTicks": 370,
          "midi": 65,
          "name": "F4",
          "ticks": 137040,
          "time": 101.964041,
          "velocity": 0.6220472440944882
        },
        {
          "duration": 0.275296958333314,
          "durationTicks": 370,
          "midi": 69,
          "name": "A4",
          "ticks": 137040,
          "time": 101.964041,
          "velocity": 0.6220472440944882
        },
        {
          "duration": 0.275296958333314,
          "durationTicks": 370,
          "midi": 72,
          "name": "C5",
          "ticks": 137040,
          "time": 101.964041,
          "velocity": 0.6220472440944882
        },
        {
          "duration": 0.08184504166666784,
          "durationTicks": 110,
          "midi": 62,
          "name": "D4",
          "ticks": 137520,
          "time": 102.32118299999999,
          "velocity": 0.6220472440944882
        },
        {
          "duration": 0.08184504166666784,
          "durationTicks": 110,
          "midi": 65,
          "name": "F4",
          "ticks": 137520,
          "time": 102.32118299999999,
          "velocity": 0.6220472440944882
        },
        {
          "duration": 0.08184504166666784,
          "durationTicks": 110,
          "midi": 69,
          "name": "A4",
          "ticks": 137520,
          "time": 102.32118299999999,
          "velocity": 0.6220472440944882
        },
        {
          "duration": 0.08184504166666784,
          "durationTicks": 110,
          "midi": 72,
          "name": "C5",
          "ticks": 137520,
          "time": 102.32118299999999,
          "velocity": 0.6220472440944882
        },
        {
          "duration": 0.238094666666683,
          "durationTicks": 320,
          "midi": 62,
          "name": "D4",
          "ticks": 137760,
          "time": 102.49975399999998,
          "velocity": 0.6220472440944882
        },
        {
          "duration": 0.238094666666683,
          "durationTicks": 320,
          "midi": 65,
          "name": "F4",
          "ticks": 137760,
          "time": 102.49975399999998,
          "velocity": 0.6220472440944882
        },
        {
          "duration": 0.238094666666683,
          "durationTicks": 320,
          "midi": 69,
          "name": "A4",
          "ticks": 137760,
          "time": 102.49975399999998,
          "velocity": 0.6220472440944882
        },
        {
          "duration": 0.238094666666683,
          "durationTicks": 320,
          "midi": 72,
          "name": "C5",
          "ticks": 137760,
          "time": 102.49975399999998,
          "velocity": 0.6220472440944882
        },
        {
          "duration": 0.23809466666666879,
          "durationTicks": 320,
          "midi": 62,
          "name": "D4",
          "ticks": 138240,
          "time": 102.85689599999999,
          "velocity": 0.6220472440944882
        },
        {
          "duration": 0.23809466666666879,
          "durationTicks": 320,
          "midi": 65,
          "name": "F4",
          "ticks": 138240,
          "time": 102.85689599999999,
          "velocity": 0.6220472440944882
        },
        {
          "duration": 0.23809466666666879,
          "durationTicks": 320,
          "midi": 67,
          "name": "G4",
          "ticks": 138240,
          "time": 102.85689599999999,
          "velocity": 0.6220472440944882
        },
        {
          "duration": 0.23809466666666879,
          "durationTicks": 320,
          "midi": 71,
          "name": "B4",
          "ticks": 138240,
          "time": 102.85689599999999,
          "velocity": 0.6220472440944882
        },
        {
          "duration": 0.15624962500000095,
          "durationTicks": 210,
          "midi": 62,
          "name": "D4",
          "ticks": 138720,
          "time": 103.21403799999999,
          "velocity": 0.6220472440944882
        },
        {
          "duration": 0.15624962500000095,
          "durationTicks": 210,
          "midi": 65,
          "name": "F4",
          "ticks": 138720,
          "time": 103.21403799999999,
          "velocity": 0.6220472440944882
        },
        {
          "duration": 0.15624962500000095,
          "durationTicks": 210,
          "midi": 67,
          "name": "G4",
          "ticks": 138720,
          "time": 103.21403799999999,
          "velocity": 0.6220472440944882
        },
        {
          "duration": 0.15624962500000095,
          "durationTicks": 210,
          "midi": 71,
          "name": "B4",
          "ticks": 138720,
          "time": 103.21403799999999,
          "velocity": 0.6220472440944882
        },
        {
          "duration": 0.27529695833332823,
          "durationTicks": 370,
          "midi": 62,
          "name": "D4",
          "ticks": 138960,
          "time": 103.392609,
          "velocity": 0.6220472440944882
        },
        {
          "duration": 0.27529695833332823,
          "durationTicks": 370,
          "midi": 65,
          "name": "F4",
          "ticks": 138960,
          "time": 103.392609,
          "velocity": 0.6220472440944882
        },
        {
          "duration": 0.27529695833332823,
          "durationTicks": 370,
          "midi": 67,
          "name": "G4",
          "ticks": 138960,
          "time": 103.392609,
          "velocity": 0.6220472440944882
        },
        {
          "duration": 0.27529695833332823,
          "durationTicks": 370,
          "midi": 71,
          "name": "B4",
          "ticks": 138960,
          "time": 103.392609,
          "velocity": 0.6220472440944882
        },
        {
          "duration": 0.08184504166666784,
          "durationTicks": 110,
          "midi": 62,
          "name": "D4",
          "ticks": 139440,
          "time": 103.74975099999999,
          "velocity": 0.6220472440944882
        },
        {
          "duration": 0.08184504166666784,
          "durationTicks": 110,
          "midi": 65,
          "name": "F4",
          "ticks": 139440,
          "time": 103.74975099999999,
          "velocity": 0.6220472440944882
        },
        {
          "duration": 0.08184504166666784,
          "durationTicks": 110,
          "midi": 67,
          "name": "G4",
          "ticks": 139440,
          "time": 103.74975099999999,
          "velocity": 0.6220472440944882
        },
        {
          "duration": 0.08184504166666784,
          "durationTicks": 110,
          "midi": 71,
          "name": "B4",
          "ticks": 139440,
          "time": 103.74975099999999,
          "velocity": 0.6220472440944882
        },
        {
          "duration": 0.23809466666666879,
          "durationTicks": 320,
          "midi": 62,
          "name": "D4",
          "ticks": 139680,
          "time": 103.928322,
          "velocity": 0.6220472440944882
        },
        {
          "duration": 0.23809466666666879,
          "durationTicks": 320,
          "midi": 65,
          "name": "F4",
          "ticks": 139680,
          "time": 103.928322,
          "velocity": 0.6220472440944882
        },
        {
          "duration": 0.23809466666666879,
          "durationTicks": 320,
          "midi": 67,
          "name": "G4",
          "ticks": 139680,
          "time": 103.928322,
          "velocity": 0.6220472440944882
        },
        {
          "duration": 0.23809466666666879,
          "durationTicks": 320,
          "midi": 71,
          "name": "B4",
          "ticks": 139680,
          "time": 103.928322,
          "velocity": 0.6220472440944882
        },
        {
          "duration": 0.23809466666666879,
          "durationTicks": 320,
          "midi": 60,
          "name": "C4",
          "ticks": 140160,
          "time": 104.28546399999999,
          "velocity": 0.6220472440944882
        },
        {
          "duration": 0.23809466666666879,
          "durationTicks": 320,
          "midi": 64,
          "name": "E4",
          "ticks": 140160,
          "time": 104.28546399999999,
          "velocity": 0.6220472440944882
        },
        {
          "duration": 0.23809466666666879,
          "durationTicks": 320,
          "midi": 67,
          "name": "G4",
          "ticks": 140160,
          "time": 104.28546399999999,
          "velocity": 0.6220472440944882
        },
        {
          "duration": 0.23809466666666879,
          "durationTicks": 320,
          "midi": 70,
          "name": "A#4",
          "ticks": 140160,
          "time": 104.28546399999999,
          "velocity": 0.6220472440944882
        },
        {
          "duration": 0.15624962500000095,
          "durationTicks": 210,
          "midi": 60,
          "name": "C4",
          "ticks": 140640,
          "time": 104.64260599999999,
          "velocity": 0.6220472440944882
        },
        {
          "duration": 0.15624962500000095,
          "durationTicks": 210,
          "midi": 64,
          "name": "E4",
          "ticks": 140640,
          "time": 104.64260599999999,
          "velocity": 0.6220472440944882
        },
        {
          "duration": 0.15624962500000095,
          "durationTicks": 210,
          "midi": 67,
          "name": "G4",
          "ticks": 140640,
          "time": 104.64260599999999,
          "velocity": 0.6220472440944882
        },
        {
          "duration": 0.15624962500000095,
          "durationTicks": 210,
          "midi": 70,
          "name": "A#4",
          "ticks": 140640,
          "time": 104.64260599999999,
          "velocity": 0.6220472440944882
        },
        {
          "duration": 0.08184504166666784,
          "durationTicks": 110,
          "midi": 60,
          "name": "C4",
          "ticks": 140880,
          "time": 104.82117699999999,
          "velocity": 0.6220472440944882
        },
        {
          "duration": 0.08184504166666784,
          "durationTicks": 110,
          "midi": 64,
          "name": "E4",
          "ticks": 140880,
          "time": 104.82117699999999,
          "velocity": 0.6220472440944882
        },
        {
          "duration": 0.08184504166666784,
          "durationTicks": 110,
          "midi": 67,
          "name": "G4",
          "ticks": 140880,
          "time": 104.82117699999999,
          "velocity": 0.6220472440944882
        },
        {
          "duration": 0.08184504166666784,
          "durationTicks": 110,
          "midi": 70,
          "name": "A#4",
          "ticks": 140880,
          "time": 104.82117699999999,
          "velocity": 0.6220472440944882
        },
        {
          "duration": 0.238094666666683,
          "durationTicks": 320,
          "midi": 60,
          "name": "C4",
          "ticks": 141120,
          "time": 104.99974799999998,
          "velocity": 0.6220472440944882
        },
        {
          "duration": 0.238094666666683,
          "durationTicks": 320,
          "midi": 64,
          "name": "E4",
          "ticks": 141120,
          "time": 104.99974799999998,
          "velocity": 0.6220472440944882
        },
        {
          "duration": 0.238094666666683,
          "durationTicks": 320,
          "midi": 67,
          "name": "G4",
          "ticks": 141120,
          "time": 104.99974799999998,
          "velocity": 0.6220472440944882
        },
        {
          "duration": 0.238094666666683,
          "durationTicks": 320,
          "midi": 70,
          "name": "A#4",
          "ticks": 141120,
          "time": 104.99974799999998,
          "velocity": 0.6220472440944882
        },
        {
          "duration": 0.15624962500000095,
          "durationTicks": 210,
          "midi": 60,
          "name": "C4",
          "ticks": 141600,
          "time": 105.35688999999999,
          "velocity": 0.6220472440944882
        },
        {
          "duration": 0.15624962500000095,
          "durationTicks": 210,
          "midi": 64,
          "name": "E4",
          "ticks": 141600,
          "time": 105.35688999999999,
          "velocity": 0.6220472440944882
        },
        {
          "duration": 0.15624962500000095,
          "durationTicks": 210,
          "midi": 67,
          "name": "G4",
          "ticks": 141600,
          "time": 105.35688999999999,
          "velocity": 0.6220472440944882
        },
        {
          "duration": 0.15624962500000095,
          "durationTicks": 210,
          "midi": 70,
          "name": "A#4",
          "ticks": 141600,
          "time": 105.35688999999999,
          "velocity": 0.6220472440944882
        },
        {
          "duration": 0.08184504166668205,
          "durationTicks": 110,
          "midi": 60,
          "name": "C4",
          "ticks": 141840,
          "time": 105.53546099999998,
          "velocity": 0.6220472440944882
        },
        {
          "duration": 0.08184504166668205,
          "durationTicks": 110,
          "midi": 64,
          "name": "E4",
          "ticks": 141840,
          "time": 105.53546099999998,
          "velocity": 0.6220472440944882
        },
        {
          "duration": 0.08184504166668205,
          "durationTicks": 110,
          "midi": 67,
          "name": "G4",
          "ticks": 141840,
          "time": 105.53546099999998,
          "velocity": 0.6220472440944882
        },
        {
          "duration": 0.08184504166668205,
          "durationTicks": 110,
          "midi": 70,
          "name": "A#4",
          "ticks": 141840,
          "time": 105.53546099999998,
          "velocity": 0.6220472440944882
        },
        {
          "duration": 0.23809466666666879,
          "durationTicks": 320,
          "midi": 60,
          "name": "C4",
          "ticks": 142080,
          "time": 105.71403199999999,
          "velocity": 0.6220472440944882
        },
        {
          "duration": 0.23809466666666879,
          "durationTicks": 320,
          "midi": 64,
          "name": "E4",
          "ticks": 142080,
          "time": 105.71403199999999,
          "velocity": 0.6220472440944882
        },
        {
          "duration": 0.23809466666666879,
          "durationTicks": 320,
          "midi": 67,
          "name": "G4",
          "ticks": 142080,
          "time": 105.71403199999999,
          "velocity": 0.6220472440944882
        },
        {
          "duration": 0.23809466666666879,
          "durationTicks": 320,
          "midi": 70,
          "name": "A#4",
          "ticks": 142080,
          "time": 105.71403199999999,
          "velocity": 0.6220472440944882
        },
        {
          "duration": 0.15624962500000095,
          "durationTicks": 210,
          "midi": 60,
          "name": "C4",
          "ticks": 142560,
          "time": 106.07117399999998,
          "velocity": 0.6220472440944882
        },
        {
          "duration": 0.15624962500000095,
          "durationTicks": 210,
          "midi": 64,
          "name": "E4",
          "ticks": 142560,
          "time": 106.07117399999998,
          "velocity": 0.6220472440944882
        },
        {
          "duration": 0.15624962500000095,
          "durationTicks": 210,
          "midi": 67,
          "name": "G4",
          "ticks": 142560,
          "time": 106.07117399999998,
          "velocity": 0.6220472440944882
        },
        {
          "duration": 0.15624962500000095,
          "durationTicks": 210,
          "midi": 70,
          "name": "A#4",
          "ticks": 142560,
          "time": 106.07117399999998,
          "velocity": 0.6220472440944882
        },
        {
          "duration": 0.08184504166666784,
          "durationTicks": 110,
          "midi": 60,
          "name": "C4",
          "ticks": 142800,
          "time": 106.24974499999999,
          "velocity": 0.6220472440944882
        },
        {
          "duration": 0.08184504166666784,
          "durationTicks": 110,
          "midi": 64,
          "name": "E4",
          "ticks": 142800,
          "time": 106.24974499999999,
          "velocity": 0.6220472440944882
        },
        {
          "duration": 0.08184504166666784,
          "durationTicks": 110,
          "midi": 67,
          "name": "G4",
          "ticks": 142800,
          "time": 106.24974499999999,
          "velocity": 0.6220472440944882
        },
        {
          "duration": 0.08184504166666784,
          "durationTicks": 110,
          "midi": 70,
          "name": "A#4",
          "ticks": 142800,
          "time": 106.24974499999999,
          "velocity": 0.6220472440944882
        },
        {
          "duration": 0.238094666666683,
          "durationTicks": 320,
          "midi": 60,
          "name": "C4",
          "ticks": 143040,
          "time": 106.42831599999998,
          "velocity": 0.6220472440944882
        },
        {
          "duration": 0.238094666666683,
          "durationTicks": 320,
          "midi": 64,
          "name": "E4",
          "ticks": 143040,
          "time": 106.42831599999998,
          "velocity": 0.6220472440944882
        },
        {
          "duration": 0.238094666666683,
          "durationTicks": 320,
          "midi": 67,
          "name": "G4",
          "ticks": 143040,
          "time": 106.42831599999998,
          "velocity": 0.6220472440944882
        },
        {
          "duration": 0.238094666666683,
          "durationTicks": 320,
          "midi": 70,
          "name": "A#4",
          "ticks": 143040,
          "time": 106.42831599999998,
          "velocity": 0.6220472440944882
        },
        {
          "duration": 0.15624962500000095,
          "durationTicks": 210,
          "midi": 60,
          "name": "C4",
          "ticks": 143520,
          "time": 106.78545799999999,
          "velocity": 0.6220472440944882
        },
        {
          "duration": 0.15624962500000095,
          "durationTicks": 210,
          "midi": 64,
          "name": "E4",
          "ticks": 143520,
          "time": 106.78545799999999,
          "velocity": 0.6220472440944882
        },
        {
          "duration": 0.15624962500000095,
          "durationTicks": 210,
          "midi": 67,
          "name": "G4",
          "ticks": 143520,
          "time": 106.78545799999999,
          "velocity": 0.6220472440944882
        },
        {
          "duration": 0.15624962500000095,
          "durationTicks": 210,
          "midi": 70,
          "name": "A#4",
          "ticks": 143520,
          "time": 106.78545799999999,
          "velocity": 0.6220472440944882
        },
        {
          "duration": 0.08184504166668205,
          "durationTicks": 110,
          "midi": 60,
          "name": "C4",
          "ticks": 143760,
          "time": 106.96402899999998,
          "velocity": 0.6220472440944882
        },
        {
          "duration": 0.08184504166668205,
          "durationTicks": 110,
          "midi": 64,
          "name": "E4",
          "ticks": 143760,
          "time": 106.96402899999998,
          "velocity": 0.6220472440944882
        },
        {
          "duration": 0.08184504166668205,
          "durationTicks": 110,
          "midi": 67,
          "name": "G4",
          "ticks": 143760,
          "time": 106.96402899999998,
          "velocity": 0.6220472440944882
        },
        {
          "duration": 0.08184504166668205,
          "durationTicks": 110,
          "midi": 70,
          "name": "A#4",
          "ticks": 143760,
          "time": 106.96402899999998,
          "velocity": 0.6220472440944882
        },
        {
          "duration": 0.23809466666666879,
          "durationTicks": 320,
          "midi": 60,
          "name": "C4",
          "ticks": 144000,
          "time": 107.14259999999999,
          "velocity": 0.6220472440944882
        },
        {
          "duration": 0.23809466666666879,
          "durationTicks": 320,
          "midi": 64,
          "name": "E4",
          "ticks": 144000,
          "time": 107.14259999999999,
          "velocity": 0.6220472440944882
        },
        {
          "duration": 0.23809466666666879,
          "durationTicks": 320,
          "midi": 67,
          "name": "G4",
          "ticks": 144000,
          "time": 107.14259999999999,
          "velocity": 0.6220472440944882
        },
        {
          "duration": 0.23809466666666879,
          "durationTicks": 320,
          "midi": 70,
          "name": "A#4",
          "ticks": 144000,
          "time": 107.14259999999999,
          "velocity": 0.6220472440944882
        },
        {
          "duration": 0.15624962500000095,
          "durationTicks": 210,
          "midi": 60,
          "name": "C4",
          "ticks": 144480,
          "time": 107.49974199999998,
          "velocity": 0.6220472440944882
        },
        {
          "duration": 0.15624962500000095,
          "durationTicks": 210,
          "midi": 64,
          "name": "E4",
          "ticks": 144480,
          "time": 107.49974199999998,
          "velocity": 0.6220472440944882
        },
        {
          "duration": 0.15624962500000095,
          "durationTicks": 210,
          "midi": 67,
          "name": "G4",
          "ticks": 144480,
          "time": 107.49974199999998,
          "velocity": 0.6220472440944882
        },
        {
          "duration": 0.15624962500000095,
          "durationTicks": 210,
          "midi": 70,
          "name": "A#4",
          "ticks": 144480,
          "time": 107.49974199999998,
          "velocity": 0.6220472440944882
        },
        {
          "duration": 0.08184504166666784,
          "durationTicks": 110,
          "midi": 60,
          "name": "C4",
          "ticks": 144720,
          "time": 107.67831299999999,
          "velocity": 0.6220472440944882
        },
        {
          "duration": 0.08184504166666784,
          "durationTicks": 110,
          "midi": 64,
          "name": "E4",
          "ticks": 144720,
          "time": 107.67831299999999,
          "velocity": 0.6220472440944882
        },
        {
          "duration": 0.08184504166666784,
          "durationTicks": 110,
          "midi": 67,
          "name": "G4",
          "ticks": 144720,
          "time": 107.67831299999999,
          "velocity": 0.6220472440944882
        },
        {
          "duration": 0.08184504166666784,
          "durationTicks": 110,
          "midi": 70,
          "name": "A#4",
          "ticks": 144720,
          "time": 107.67831299999999,
          "velocity": 0.6220472440944882
        },
        {
          "duration": 0.23809466666666879,
          "durationTicks": 320,
          "midi": 60,
          "name": "C4",
          "ticks": 144960,
          "time": 107.856884,
          "velocity": 0.6220472440944882
        },
        {
          "duration": 0.23809466666666879,
          "durationTicks": 320,
          "midi": 64,
          "name": "E4",
          "ticks": 144960,
          "time": 107.856884,
          "velocity": 0.6220472440944882
        },
        {
          "duration": 0.23809466666666879,
          "durationTicks": 320,
          "midi": 67,
          "name": "G4",
          "ticks": 144960,
          "time": 107.856884,
          "velocity": 0.6220472440944882
        },
        {
          "duration": 0.23809466666666879,
          "durationTicks": 320,
          "midi": 70,
          "name": "A#4",
          "ticks": 144960,
          "time": 107.856884,
          "velocity": 0.6220472440944882
        },
        {
          "duration": 0.15624962500000095,
          "durationTicks": 210,
          "midi": 60,
          "name": "C4",
          "ticks": 145440,
          "time": 108.21402599999999,
          "velocity": 0.6220472440944882
        },
        {
          "duration": 0.15624962500000095,
          "durationTicks": 210,
          "midi": 64,
          "name": "E4",
          "ticks": 145440,
          "time": 108.21402599999999,
          "velocity": 0.6220472440944882
        },
        {
          "duration": 0.15624962500000095,
          "durationTicks": 210,
          "midi": 67,
          "name": "G4",
          "ticks": 145440,
          "time": 108.21402599999999,
          "velocity": 0.6220472440944882
        },
        {
          "duration": 0.15624962500000095,
          "durationTicks": 210,
          "midi": 70,
          "name": "A#4",
          "ticks": 145440,
          "time": 108.21402599999999,
          "velocity": 0.6220472440944882
        },
        {
          "duration": 0.08184504166668205,
          "durationTicks": 110,
          "midi": 60,
          "name": "C4",
          "ticks": 145680,
          "time": 108.39259699999998,
          "velocity": 0.6220472440944882
        },
        {
          "duration": 0.08184504166668205,
          "durationTicks": 110,
          "midi": 64,
          "name": "E4",
          "ticks": 145680,
          "time": 108.39259699999998,
          "velocity": 0.6220472440944882
        },
        {
          "duration": 0.08184504166668205,
          "durationTicks": 110,
          "midi": 67,
          "name": "G4",
          "ticks": 145680,
          "time": 108.39259699999998,
          "velocity": 0.6220472440944882
        },
        {
          "duration": 0.08184504166668205,
          "durationTicks": 110,
          "midi": 70,
          "name": "A#4",
          "ticks": 145680,
          "time": 108.39259699999998,
          "velocity": 0.6220472440944882
        },
        {
          "duration": 0.23809466666666879,
          "durationTicks": 320,
          "midi": 60,
          "name": "C4",
          "ticks": 145920,
          "time": 108.57116799999999,
          "velocity": 0.6220472440944882
        },
        {
          "duration": 0.23809466666666879,
          "durationTicks": 320,
          "midi": 64,
          "name": "E4",
          "ticks": 145920,
          "time": 108.57116799999999,
          "velocity": 0.6220472440944882
        },
        {
          "duration": 0.23809466666666879,
          "durationTicks": 320,
          "midi": 67,
          "name": "G4",
          "ticks": 145920,
          "time": 108.57116799999999,
          "velocity": 0.6220472440944882
        },
        {
          "duration": 0.23809466666666879,
          "durationTicks": 320,
          "midi": 70,
          "name": "A#4",
          "ticks": 145920,
          "time": 108.57116799999999,
          "velocity": 0.6220472440944882
        },
        {
          "duration": 0.15624962500000095,
          "durationTicks": 210,
          "midi": 60,
          "name": "C4",
          "ticks": 146400,
          "time": 108.92830999999998,
          "velocity": 0.6220472440944882
        },
        {
          "duration": 0.15624962500000095,
          "durationTicks": 210,
          "midi": 64,
          "name": "E4",
          "ticks": 146400,
          "time": 108.92830999999998,
          "velocity": 0.6220472440944882
        },
        {
          "duration": 0.15624962500000095,
          "durationTicks": 210,
          "midi": 67,
          "name": "G4",
          "ticks": 146400,
          "time": 108.92830999999998,
          "velocity": 0.6220472440944882
        },
        {
          "duration": 0.15624962500000095,
          "durationTicks": 210,
          "midi": 70,
          "name": "A#4",
          "ticks": 146400,
          "time": 108.92830999999998,
          "velocity": 0.6220472440944882
        },
        {
          "duration": 0.08184504166666784,
          "durationTicks": 110,
          "midi": 60,
          "name": "C4",
          "ticks": 146640,
          "time": 109.10688099999999,
          "velocity": 0.6220472440944882
        },
        {
          "duration": 0.08184504166666784,
          "durationTicks": 110,
          "midi": 64,
          "name": "E4",
          "ticks": 146640,
          "time": 109.10688099999999,
          "velocity": 0.6220472440944882
        },
        {
          "duration": 0.08184504166666784,
          "durationTicks": 110,
          "midi": 67,
          "name": "G4",
          "ticks": 146640,
          "time": 109.10688099999999,
          "velocity": 0.6220472440944882
        },
        {
          "duration": 0.08184504166666784,
          "durationTicks": 110,
          "midi": 70,
          "name": "A#4",
          "ticks": 146640,
          "time": 109.10688099999999,
          "velocity": 0.6220472440944882
        },
        {
          "duration": 0.23809466666666879,
          "durationTicks": 320,
          "midi": 60,
          "name": "C4",
          "ticks": 146880,
          "time": 109.28545199999999,
          "velocity": 0.6220472440944882
        },
        {
          "duration": 0.23809466666666879,
          "durationTicks": 320,
          "midi": 64,
          "name": "E4",
          "ticks": 146880,
          "time": 109.28545199999999,
          "velocity": 0.6220472440944882
        },
        {
          "duration": 0.23809466666666879,
          "durationTicks": 320,
          "midi": 67,
          "name": "G4",
          "ticks": 146880,
          "time": 109.28545199999999,
          "velocity": 0.6220472440944882
        },
        {
          "duration": 0.23809466666666879,
          "durationTicks": 320,
          "midi": 70,
          "name": "A#4",
          "ticks": 146880,
          "time": 109.28545199999999,
          "velocity": 0.6220472440944882
        },
        {
          "duration": 0.15624962500000095,
          "durationTicks": 210,
          "midi": 60,
          "name": "C4",
          "ticks": 147360,
          "time": 109.64259399999999,
          "velocity": 0.6220472440944882
        },
        {
          "duration": 0.15624962500000095,
          "durationTicks": 210,
          "midi": 64,
          "name": "E4",
          "ticks": 147360,
          "time": 109.64259399999999,
          "velocity": 0.6220472440944882
        },
        {
          "duration": 0.15624962500000095,
          "durationTicks": 210,
          "midi": 67,
          "name": "G4",
          "ticks": 147360,
          "time": 109.64259399999999,
          "velocity": 0.6220472440944882
        },
        {
          "duration": 0.15624962500000095,
          "durationTicks": 210,
          "midi": 70,
          "name": "A#4",
          "ticks": 147360,
          "time": 109.64259399999999,
          "velocity": 0.6220472440944882
        },
        {
          "duration": 0.08184504166666784,
          "durationTicks": 110,
          "midi": 60,
          "name": "C4",
          "ticks": 147600,
          "time": 109.821165,
          "velocity": 0.6220472440944882
        },
        {
          "duration": 0.08184504166666784,
          "durationTicks": 110,
          "midi": 64,
          "name": "E4",
          "ticks": 147600,
          "time": 109.821165,
          "velocity": 0.6220472440944882
        },
        {
          "duration": 0.08184504166666784,
          "durationTicks": 110,
          "midi": 67,
          "name": "G4",
          "ticks": 147600,
          "time": 109.821165,
          "velocity": 0.6220472440944882
        },
        {
          "duration": 0.08184504166666784,
          "durationTicks": 110,
          "midi": 70,
          "name": "A#4",
          "ticks": 147600,
          "time": 109.821165,
          "velocity": 0.6220472440944882
        },
        {
          "duration": 0.238094666666683,
          "durationTicks": 320,
          "midi": 63,
          "name": "D#4",
          "ticks": 147840,
          "time": 109.99973599999998,
          "velocity": 0.6220472440944882
        },
        {
          "duration": 0.238094666666683,
          "durationTicks": 320,
          "midi": 65,
          "name": "F4",
          "ticks": 147840,
          "time": 109.99973599999998,
          "velocity": 0.6220472440944882
        },
        {
          "duration": 0.238094666666683,
          "durationTicks": 320,
          "midi": 69,
          "name": "A4",
          "ticks": 147840,
          "time": 109.99973599999998,
          "velocity": 0.6220472440944882
        },
        {
          "duration": 0.238094666666683,
          "durationTicks": 320,
          "midi": 72,
          "name": "C5",
          "ticks": 147840,
          "time": 109.99973599999998,
          "velocity": 0.6220472440944882
        },
        {
          "duration": 0.14880916666668043,
          "durationTicks": 200,
          "midi": 63,
          "name": "D#4",
          "ticks": 148320,
          "time": 110.35687799999998,
          "velocity": 0.6220472440944882
        },
        {
          "duration": 0.14880916666668043,
          "durationTicks": 200,
          "midi": 65,
          "name": "F4",
          "ticks": 148320,
          "time": 110.35687799999998,
          "velocity": 0.6220472440944882
        },
        {
          "duration": 0.14880916666668043,
          "durationTicks": 200,
          "midi": 69,
          "name": "A4",
          "ticks": 148320,
          "time": 110.35687799999998,
          "velocity": 0.6220472440944882
        },
        {
          "duration": 0.14880916666668043,
          "durationTicks": 200,
          "midi": 72,
          "name": "C5",
          "ticks": 148320,
          "time": 110.35687799999998,
          "velocity": 0.6220472440944882
        },
        {
          "duration": 0.07440458333333311,
          "durationTicks": 100,
          "midi": 63,
          "name": "D#4",
          "ticks": 148560,
          "time": 110.53544899999999,
          "velocity": 0.6220472440944882
        },
        {
          "duration": 0.07440458333333311,
          "durationTicks": 100,
          "midi": 65,
          "name": "F4",
          "ticks": 148560,
          "time": 110.53544899999999,
          "velocity": 0.6220472440944882
        },
        {
          "duration": 0.07440458333333311,
          "durationTicks": 100,
          "midi": 69,
          "name": "A4",
          "ticks": 148560,
          "time": 110.53544899999999,
          "velocity": 0.6220472440944882
        },
        {
          "duration": 0.07440458333333311,
          "durationTicks": 100,
          "midi": 72,
          "name": "C5",
          "ticks": 148560,
          "time": 110.53544899999999,
          "velocity": 0.6220472440944882
        },
        {
          "duration": 0.23809466666666879,
          "durationTicks": 320,
          "midi": 63,
          "name": "D#4",
          "ticks": 148800,
          "time": 110.71401999999999,
          "velocity": 0.6220472440944882
        },
        {
          "duration": 0.23809466666666879,
          "durationTicks": 320,
          "midi": 65,
          "name": "F4",
          "ticks": 148800,
          "time": 110.71401999999999,
          "velocity": 0.6220472440944882
        },
        {
          "duration": 0.23809466666666879,
          "durationTicks": 320,
          "midi": 69,
          "name": "A4",
          "ticks": 148800,
          "time": 110.71401999999999,
          "velocity": 0.6220472440944882
        },
        {
          "duration": 0.23809466666666879,
          "durationTicks": 320,
          "midi": 72,
          "name": "C5",
          "ticks": 148800,
          "time": 110.71401999999999,
          "velocity": 0.6220472440944882
        },
        {
          "duration": 0.14880916666668043,
          "durationTicks": 200,
          "midi": 63,
          "name": "D#4",
          "ticks": 149280,
          "time": 111.07116199999999,
          "velocity": 0.6220472440944882
        },
        {
          "duration": 0.14880916666668043,
          "durationTicks": 200,
          "midi": 65,
          "name": "F4",
          "ticks": 149280,
          "time": 111.07116199999999,
          "velocity": 0.6220472440944882
        },
        {
          "duration": 0.14880916666668043,
          "durationTicks": 200,
          "midi": 69,
          "name": "A4",
          "ticks": 149280,
          "time": 111.07116199999999,
          "velocity": 0.6220472440944882
        },
        {
          "duration": 0.14880916666668043,
          "durationTicks": 200,
          "midi": 72,
          "name": "C5",
          "ticks": 149280,
          "time": 111.07116199999999,
          "velocity": 0.6220472440944882
        },
        {
          "duration": 0.0744045833333189,
          "durationTicks": 100,
          "midi": 63,
          "name": "D#4",
          "ticks": 149520,
          "time": 111.24973299999999,
          "velocity": 0.6220472440944882
        },
        {
          "duration": 0.0744045833333189,
          "durationTicks": 100,
          "midi": 65,
          "name": "F4",
          "ticks": 149520,
          "time": 111.24973299999999,
          "velocity": 0.6220472440944882
        },
        {
          "duration": 0.0744045833333189,
          "durationTicks": 100,
          "midi": 69,
          "name": "A4",
          "ticks": 149520,
          "time": 111.24973299999999,
          "velocity": 0.6220472440944882
        },
        {
          "duration": 0.0744045833333189,
          "durationTicks": 100,
          "midi": 72,
          "name": "C5",
          "ticks": 149520,
          "time": 111.24973299999999,
          "velocity": 0.6220472440944882
        },
        {
          "duration": 0.238094666666683,
          "durationTicks": 320,
          "midi": 63,
          "name": "D#4",
          "ticks": 149760,
          "time": 111.42830399999998,
          "velocity": 0.6220472440944882
        },
        {
          "duration": 0.238094666666683,
          "durationTicks": 320,
          "midi": 65,
          "name": "F4",
          "ticks": 149760,
          "time": 111.42830399999998,
          "velocity": 0.6220472440944882
        },
        {
          "duration": 0.238094666666683,
          "durationTicks": 320,
          "midi": 69,
          "name": "A4",
          "ticks": 149760,
          "time": 111.42830399999998,
          "velocity": 0.6220472440944882
        },
        {
          "duration": 0.238094666666683,
          "durationTicks": 320,
          "midi": 72,
          "name": "C5",
          "ticks": 149760,
          "time": 111.42830399999998,
          "velocity": 0.6220472440944882
        },
        {
          "duration": 0.14880916666666621,
          "durationTicks": 200,
          "midi": 63,
          "name": "D#4",
          "ticks": 150240,
          "time": 111.785446,
          "velocity": 0.6220472440944882
        },
        {
          "duration": 0.14880916666666621,
          "durationTicks": 200,
          "midi": 65,
          "name": "F4",
          "ticks": 150240,
          "time": 111.785446,
          "velocity": 0.6220472440944882
        },
        {
          "duration": 0.14880916666666621,
          "durationTicks": 200,
          "midi": 69,
          "name": "A4",
          "ticks": 150240,
          "time": 111.785446,
          "velocity": 0.6220472440944882
        },
        {
          "duration": 0.14880916666666621,
          "durationTicks": 200,
          "midi": 72,
          "name": "C5",
          "ticks": 150240,
          "time": 111.785446,
          "velocity": 0.6220472440944882
        },
        {
          "duration": 0.07440458333333311,
          "durationTicks": 100,
          "midi": 63,
          "name": "D#4",
          "ticks": 150480,
          "time": 111.96401699999998,
          "velocity": 0.6220472440944882
        },
        {
          "duration": 0.07440458333333311,
          "durationTicks": 100,
          "midi": 65,
          "name": "F4",
          "ticks": 150480,
          "time": 111.96401699999998,
          "velocity": 0.6220472440944882
        },
        {
          "duration": 0.07440458333333311,
          "durationTicks": 100,
          "midi": 69,
          "name": "A4",
          "ticks": 150480,
          "time": 111.96401699999998,
          "velocity": 0.6220472440944882
        },
        {
          "duration": 0.07440458333333311,
          "durationTicks": 100,
          "midi": 72,
          "name": "C5",
          "ticks": 150480,
          "time": 111.96401699999998,
          "velocity": 0.6220472440944882
        },
        {
          "duration": 0.23809466666666879,
          "durationTicks": 320,
          "midi": 63,
          "name": "D#4",
          "ticks": 150720,
          "time": 112.14258799999999,
          "velocity": 0.6220472440944882
        },
        {
          "duration": 0.23809466666666879,
          "durationTicks": 320,
          "midi": 65,
          "name": "F4",
          "ticks": 150720,
          "time": 112.14258799999999,
          "velocity": 0.6220472440944882
        },
        {
          "duration": 0.23809466666666879,
          "durationTicks": 320,
          "midi": 69,
          "name": "A4",
          "ticks": 150720,
          "time": 112.14258799999999,
          "velocity": 0.6220472440944882
        },
        {
          "duration": 0.23809466666666879,
          "durationTicks": 320,
          "midi": 72,
          "name": "C5",
          "ticks": 150720,
          "time": 112.14258799999999,
          "velocity": 0.6220472440944882
        },
        {
          "duration": 0.14880916666668043,
          "durationTicks": 200,
          "midi": 63,
          "name": "D#4",
          "ticks": 151200,
          "time": 112.49972999999999,
          "velocity": 0.6220472440944882
        },
        {
          "duration": 0.14880916666668043,
          "durationTicks": 200,
          "midi": 65,
          "name": "F4",
          "ticks": 151200,
          "time": 112.49972999999999,
          "velocity": 0.6220472440944882
        },
        {
          "duration": 0.14880916666668043,
          "durationTicks": 200,
          "midi": 69,
          "name": "A4",
          "ticks": 151200,
          "time": 112.49972999999999,
          "velocity": 0.6220472440944882
        },
        {
          "duration": 0.14880916666668043,
          "durationTicks": 200,
          "midi": 72,
          "name": "C5",
          "ticks": 151200,
          "time": 112.49972999999999,
          "velocity": 0.6220472440944882
        },
        {
          "duration": 0.0744045833333189,
          "durationTicks": 100,
          "midi": 63,
          "name": "D#4",
          "ticks": 151440,
          "time": 112.67830099999999,
          "velocity": 0.6220472440944882
        },
        {
          "duration": 0.0744045833333189,
          "durationTicks": 100,
          "midi": 65,
          "name": "F4",
          "ticks": 151440,
          "time": 112.67830099999999,
          "velocity": 0.6220472440944882
        },
        {
          "duration": 0.0744045833333189,
          "durationTicks": 100,
          "midi": 69,
          "name": "A4",
          "ticks": 151440,
          "time": 112.67830099999999,
          "velocity": 0.6220472440944882
        },
        {
          "duration": 0.0744045833333189,
          "durationTicks": 100,
          "midi": 72,
          "name": "C5",
          "ticks": 151440,
          "time": 112.67830099999999,
          "velocity": 0.6220472440944882
        },
        {
          "duration": 0.238094666666683,
          "durationTicks": 320,
          "midi": 60,
          "name": "C4",
          "ticks": 151680,
          "time": 112.85687199999998,
          "velocity": 0.6220472440944882
        },
        {
          "duration": 0.238094666666683,
          "durationTicks": 320,
          "midi": 64,
          "name": "E4",
          "ticks": 151680,
          "time": 112.85687199999998,
          "velocity": 0.6220472440944882
        },
        {
          "duration": 0.238094666666683,
          "durationTicks": 320,
          "midi": 67,
          "name": "G4",
          "ticks": 151680,
          "time": 112.85687199999998,
          "velocity": 0.6220472440944882
        },
        {
          "duration": 0.238094666666683,
          "durationTicks": 320,
          "midi": 70,
          "name": "A#4",
          "ticks": 151680,
          "time": 112.85687199999998,
          "velocity": 0.6220472440944882
        },
        {
          "duration": 0.15624962500000095,
          "durationTicks": 210,
          "midi": 60,
          "name": "C4",
          "ticks": 152160,
          "time": 113.21401399999999,
          "velocity": 0.6220472440944882
        },
        {
          "duration": 0.15624962500000095,
          "durationTicks": 210,
          "midi": 64,
          "name": "E4",
          "ticks": 152160,
          "time": 113.21401399999999,
          "velocity": 0.6220472440944882
        },
        {
          "duration": 0.15624962500000095,
          "durationTicks": 210,
          "midi": 67,
          "name": "G4",
          "ticks": 152160,
          "time": 113.21401399999999,
          "velocity": 0.6220472440944882
        },
        {
          "duration": 0.15624962500000095,
          "durationTicks": 210,
          "midi": 70,
          "name": "A#4",
          "ticks": 152160,
          "time": 113.21401399999999,
          "velocity": 0.6220472440944882
        },
        {
          "duration": 0.07440458333333311,
          "durationTicks": 100,
          "midi": 60,
          "name": "C4",
          "ticks": 152400,
          "time": 113.39258499999998,
          "velocity": 0.6220472440944882
        },
        {
          "duration": 0.07440458333333311,
          "durationTicks": 100,
          "midi": 64,
          "name": "E4",
          "ticks": 152400,
          "time": 113.39258499999998,
          "velocity": 0.6220472440944882
        },
        {
          "duration": 0.07440458333333311,
          "durationTicks": 100,
          "midi": 67,
          "name": "G4",
          "ticks": 152400,
          "time": 113.39258499999998,
          "velocity": 0.6220472440944882
        },
        {
          "duration": 0.07440458333333311,
          "durationTicks": 100,
          "midi": 70,
          "name": "A#4",
          "ticks": 152400,
          "time": 113.39258499999998,
          "velocity": 0.6220472440944882
        },
        {
          "duration": 0.11904733333332729,
          "durationTicks": 160,
          "midi": 60,
          "name": "C4",
          "ticks": 152640,
          "time": 113.57115599999999,
          "velocity": 0.6220472440944882
        },
        {
          "duration": 0.11904733333332729,
          "durationTicks": 160,
          "midi": 64,
          "name": "E4",
          "ticks": 152640,
          "time": 113.57115599999999,
          "velocity": 0.6220472440944882
        },
        {
          "duration": 0.11904733333332729,
          "durationTicks": 160,
          "midi": 67,
          "name": "G4",
          "ticks": 152640,
          "time": 113.57115599999999,
          "velocity": 0.6220472440944882
        },
        {
          "duration": 0.23809466666666879,
          "durationTicks": 320,
          "midi": 70,
          "name": "A#4",
          "ticks": 152640,
          "time": 113.57115599999999,
          "velocity": 0.6220472440944882
        },
        {
          "duration": 0.15624962500000095,
          "durationTicks": 210,
          "midi": 60,
          "name": "C4",
          "ticks": 153120,
          "time": 113.92829799999998,
          "velocity": 0.6220472440944882
        },
        {
          "duration": 0.15624962500000095,
          "durationTicks": 210,
          "midi": 64,
          "name": "E4",
          "ticks": 153120,
          "time": 113.92829799999998,
          "velocity": 0.6220472440944882
        },
        {
          "duration": 0.15624962500000095,
          "durationTicks": 210,
          "midi": 67,
          "name": "G4",
          "ticks": 153120,
          "time": 113.92829799999998,
          "velocity": 0.6220472440944882
        },
        {
          "duration": 0.15624962500000095,
          "durationTicks": 210,
          "midi": 70,
          "name": "A#4",
          "ticks": 153120,
          "time": 113.92829799999998,
          "velocity": 0.6220472440944882
        },
        {
          "duration": 0.0744045833333189,
          "durationTicks": 100,
          "midi": 60,
          "name": "C4",
          "ticks": 153360,
          "time": 114.10686899999999,
          "velocity": 0.6220472440944882
        },
        {
          "duration": 0.0744045833333189,
          "durationTicks": 100,
          "midi": 64,
          "name": "E4",
          "ticks": 153360,
          "time": 114.10686899999999,
          "velocity": 0.6220472440944882
        },
        {
          "duration": 0.0744045833333189,
          "durationTicks": 100,
          "midi": 67,
          "name": "G4",
          "ticks": 153360,
          "time": 114.10686899999999,
          "velocity": 0.6220472440944882
        },
        {
          "duration": 0.0744045833333189,
          "durationTicks": 100,
          "midi": 70,
          "name": "A#4",
          "ticks": 153360,
          "time": 114.10686899999999,
          "velocity": 0.6220472440944882
        },
        {
          "duration": 0.23809466666666879,
          "durationTicks": 320,
          "midi": 60,
          "name": "C4",
          "ticks": 153600,
          "time": 114.28544,
          "velocity": 0.6220472440944882
        },
        {
          "duration": 0.23809466666666879,
          "durationTicks": 320,
          "midi": 64,
          "name": "E4",
          "ticks": 153600,
          "time": 114.28544,
          "velocity": 0.6220472440944882
        },
        {
          "duration": 0.23809466666666879,
          "durationTicks": 320,
          "midi": 67,
          "name": "G4",
          "ticks": 153600,
          "time": 114.28544,
          "velocity": 0.6220472440944882
        },
        {
          "duration": 0.23809466666666879,
          "durationTicks": 320,
          "midi": 70,
          "name": "A#4",
          "ticks": 153600,
          "time": 114.28544,
          "velocity": 0.6220472440944882
        },
        {
          "duration": 0.15624962500000095,
          "durationTicks": 210,
          "midi": 60,
          "name": "C4",
          "ticks": 154080,
          "time": 114.64258199999999,
          "velocity": 0.6220472440944882
        },
        {
          "duration": 0.15624962500000095,
          "durationTicks": 210,
          "midi": 64,
          "name": "E4",
          "ticks": 154080,
          "time": 114.64258199999999,
          "velocity": 0.6220472440944882
        },
        {
          "duration": 0.15624962500000095,
          "durationTicks": 210,
          "midi": 67,
          "name": "G4",
          "ticks": 154080,
          "time": 114.64258199999999,
          "velocity": 0.6220472440944882
        },
        {
          "duration": 0.15624962500000095,
          "durationTicks": 210,
          "midi": 70,
          "name": "A#4",
          "ticks": 154080,
          "time": 114.64258199999999,
          "velocity": 0.6220472440944882
        },
        {
          "duration": 0.07440458333333311,
          "durationTicks": 100,
          "midi": 60,
          "name": "C4",
          "ticks": 154320,
          "time": 114.82115299999998,
          "velocity": 0.6220472440944882
        },
        {
          "duration": 0.07440458333333311,
          "durationTicks": 100,
          "midi": 64,
          "name": "E4",
          "ticks": 154320,
          "time": 114.82115299999998,
          "velocity": 0.6220472440944882
        },
        {
          "duration": 0.07440458333333311,
          "durationTicks": 100,
          "midi": 67,
          "name": "G4",
          "ticks": 154320,
          "time": 114.82115299999998,
          "velocity": 0.6220472440944882
        },
        {
          "duration": 0.07440458333333311,
          "durationTicks": 100,
          "midi": 70,
          "name": "A#4",
          "ticks": 154320,
          "time": 114.82115299999998,
          "velocity": 0.6220472440944882
        },
        {
          "duration": 0.11904733333332729,
          "durationTicks": 160,
          "midi": 60,
          "name": "C4",
          "ticks": 154560,
          "time": 114.99972399999999,
          "velocity": 0.6220472440944882
        },
        {
          "duration": 0.11904733333332729,
          "durationTicks": 160,
          "midi": 64,
          "name": "E4",
          "ticks": 154560,
          "time": 114.99972399999999,
          "velocity": 0.6220472440944882
        },
        {
          "duration": 0.11904733333332729,
          "durationTicks": 160,
          "midi": 67,
          "name": "G4",
          "ticks": 154560,
          "time": 114.99972399999999,
          "velocity": 0.6220472440944882
        },
        {
          "duration": 0.23809466666666879,
          "durationTicks": 320,
          "midi": 70,
          "name": "A#4",
          "ticks": 154560,
          "time": 114.99972399999999,
          "velocity": 0.6220472440944882
        },
        {
          "duration": 0.15624962500000095,
          "durationTicks": 210,
          "midi": 60,
          "name": "C4",
          "ticks": 155040,
          "time": 115.35686599999998,
          "velocity": 0.6220472440944882
        },
        {
          "duration": 0.15624962500000095,
          "durationTicks": 210,
          "midi": 64,
          "name": "E4",
          "ticks": 155040,
          "time": 115.35686599999998,
          "velocity": 0.6220472440944882
        },
        {
          "duration": 0.15624962500000095,
          "durationTicks": 210,
          "midi": 67,
          "name": "G4",
          "ticks": 155040,
          "time": 115.35686599999998,
          "velocity": 0.6220472440944882
        },
        {
          "duration": 0.15624962500000095,
          "durationTicks": 210,
          "midi": 70,
          "name": "A#4",
          "ticks": 155040,
          "time": 115.35686599999998,
          "velocity": 0.6220472440944882
        },
        {
          "duration": 0.0744045833333189,
          "durationTicks": 100,
          "midi": 60,
          "name": "C4",
          "ticks": 155280,
          "time": 115.53543699999999,
          "velocity": 0.6220472440944882
        },
        {
          "duration": 0.0744045833333189,
          "durationTicks": 100,
          "midi": 64,
          "name": "E4",
          "ticks": 155280,
          "time": 115.53543699999999,
          "velocity": 0.6220472440944882
        },
        {
          "duration": 0.0744045833333189,
          "durationTicks": 100,
          "midi": 67,
          "name": "G4",
          "ticks": 155280,
          "time": 115.53543699999999,
          "velocity": 0.6220472440944882
        },
        {
          "duration": 0.0744045833333189,
          "durationTicks": 100,
          "midi": 70,
          "name": "A#4",
          "ticks": 155280,
          "time": 115.53543699999999,
          "velocity": 0.6220472440944882
        },
        {
          "duration": 0.23809466666666879,
          "durationTicks": 320,
          "midi": 62,
          "name": "D4",
          "ticks": 155520,
          "time": 115.71400799999999,
          "velocity": 0.6220472440944882
        },
        {
          "duration": 0.23809466666666879,
          "durationTicks": 320,
          "midi": 67,
          "name": "G4",
          "ticks": 155520,
          "time": 115.71400799999999,
          "velocity": 0.6220472440944882
        },
        {
          "duration": 0.23809466666666879,
          "durationTicks": 320,
          "midi": 71,
          "name": "B4",
          "ticks": 155520,
          "time": 115.71400799999999,
          "velocity": 0.6220472440944882
        },
        {
          "duration": 0.14880916666666621,
          "durationTicks": 200,
          "midi": 62,
          "name": "D4",
          "ticks": 156000,
          "time": 116.07114999999999,
          "velocity": 0.6220472440944882
        },
        {
          "duration": 0.14880916666666621,
          "durationTicks": 200,
          "midi": 67,
          "name": "G4",
          "ticks": 156000,
          "time": 116.07114999999999,
          "velocity": 0.6220472440944882
        },
        {
          "duration": 0.14880916666666621,
          "durationTicks": 200,
          "midi": 71,
          "name": "B4",
          "ticks": 156000,
          "time": 116.07114999999999,
          "velocity": 0.6220472440944882
        },
        {
          "duration": 0.0744045833333189,
          "durationTicks": 100,
          "midi": 62,
          "name": "D4",
          "ticks": 156240,
          "time": 116.249721,
          "velocity": 0.6220472440944882
        },
        {
          "duration": 0.0744045833333189,
          "durationTicks": 100,
          "midi": 67,
          "name": "G4",
          "ticks": 156240,
          "time": 116.249721,
          "velocity": 0.6220472440944882
        },
        {
          "duration": 0.0744045833333189,
          "durationTicks": 100,
          "midi": 71,
          "name": "B4",
          "ticks": 156240,
          "time": 116.249721,
          "velocity": 0.6220472440944882
        },
        {
          "duration": 0.23809466666666879,
          "durationTicks": 320,
          "midi": 62,
          "name": "D4",
          "ticks": 156480,
          "time": 116.42829199999998,
          "velocity": 0.6220472440944882
        },
        {
          "duration": 0.23809466666666879,
          "durationTicks": 320,
          "midi": 67,
          "name": "G4",
          "ticks": 156480,
          "time": 116.42829199999998,
          "velocity": 0.6220472440944882
        },
        {
          "duration": 0.23809466666666879,
          "durationTicks": 320,
          "midi": 71,
          "name": "B4",
          "ticks": 156480,
          "time": 116.42829199999998,
          "velocity": 0.6220472440944882
        },
        {
          "duration": 0.14880916666668043,
          "durationTicks": 200,
          "midi": 62,
          "name": "D4",
          "ticks": 156960,
          "time": 116.78543399999998,
          "velocity": 0.6220472440944882
        },
        {
          "duration": 0.14880916666668043,
          "durationTicks": 200,
          "midi": 67,
          "name": "G4",
          "ticks": 156960,
          "time": 116.78543399999998,
          "velocity": 0.6220472440944882
        },
        {
          "duration": 0.14880916666668043,
          "durationTicks": 200,
          "midi": 71,
          "name": "B4",
          "ticks": 156960,
          "time": 116.78543399999998,
          "velocity": 0.6220472440944882
        },
        {
          "duration": 0.07440458333333311,
          "durationTicks": 100,
          "midi": 62,
          "name": "D4",
          "ticks": 157200,
          "time": 116.96400499999999,
          "velocity": 0.6220472440944882
        },
        {
          "duration": 0.07440458333333311,
          "durationTicks": 100,
          "midi": 67,
          "name": "G4",
          "ticks": 157200,
          "time": 116.96400499999999,
          "velocity": 0.6220472440944882
        },
        {
          "duration": 0.07440458333333311,
          "durationTicks": 100,
          "midi": 71,
          "name": "B4",
          "ticks": 157200,
          "time": 116.96400499999999,
          "velocity": 0.6220472440944882
        },
        {
          "duration": 0.23809466666666879,
          "durationTicks": 320,
          "midi": 63,
          "name": "D#4",
          "ticks": 157440,
          "time": 117.14257599999999,
          "velocity": 0.6220472440944882
        },
        {
          "duration": 0.23809466666666879,
          "durationTicks": 320,
          "midi": 65,
          "name": "F4",
          "ticks": 157440,
          "time": 117.14257599999999,
          "velocity": 0.6220472440944882
        },
        {
          "duration": 0.23809466666666879,
          "durationTicks": 320,
          "midi": 69,
          "name": "A4",
          "ticks": 157440,
          "time": 117.14257599999999,
          "velocity": 0.6220472440944882
        },
        {
          "duration": 0.23809466666666879,
          "durationTicks": 320,
          "midi": 72,
          "name": "C5",
          "ticks": 157440,
          "time": 117.14257599999999,
          "velocity": 0.6220472440944882
        },
        {
          "duration": 0.23809466666666879,
          "durationTicks": 320,
          "midi": 63,
          "name": "D#4",
          "ticks": 159360,
          "time": 118.57114399999999,
          "velocity": 0.6220472440944882
        },
        {
          "duration": 0.23809466666666879,
          "durationTicks": 320,
          "midi": 65,
          "name": "F4",
          "ticks": 159360,
          "time": 118.57114399999999,
          "velocity": 0.6220472440944882
        },
        {
          "duration": 0.23809466666666879,
          "durationTicks": 320,
          "midi": 69,
          "name": "A4",
          "ticks": 159360,
          "time": 118.57114399999999,
          "velocity": 0.6220472440944882
        },
        {
          "duration": 0.23809466666666879,
          "durationTicks": 320,
          "midi": 72,
          "name": "C5",
          "ticks": 159360,
          "time": 118.57114399999999,
          "velocity": 0.6220472440944882
        },
        {
          "duration": 0.14880916666668043,
          "durationTicks": 200,
          "midi": 63,
          "name": "D#4",
          "ticks": 159840,
          "time": 118.92828599999999,
          "velocity": 0.6220472440944882
        },
        {
          "duration": 0.14880916666668043,
          "durationTicks": 200,
          "midi": 65,
          "name": "F4",
          "ticks": 159840,
          "time": 118.92828599999999,
          "velocity": 0.6220472440944882
        },
        {
          "duration": 0.14880916666668043,
          "durationTicks": 200,
          "midi": 69,
          "name": "A4",
          "ticks": 159840,
          "time": 118.92828599999999,
          "velocity": 0.6220472440944882
        },
        {
          "duration": 0.14880916666668043,
          "durationTicks": 200,
          "midi": 72,
          "name": "C5",
          "ticks": 159840,
          "time": 118.92828599999999,
          "velocity": 0.6220472440944882
        },
        {
          "duration": 0.08184504166666784,
          "durationTicks": 110,
          "midi": 63,
          "name": "D#4",
          "ticks": 160080,
          "time": 119.10685699999999,
          "velocity": 0.6220472440944882
        },
        {
          "duration": 0.08184504166666784,
          "durationTicks": 110,
          "midi": 65,
          "name": "F4",
          "ticks": 160080,
          "time": 119.10685699999999,
          "velocity": 0.6220472440944882
        },
        {
          "duration": 0.08184504166666784,
          "durationTicks": 110,
          "midi": 69,
          "name": "A4",
          "ticks": 160080,
          "time": 119.10685699999999,
          "velocity": 0.6220472440944882
        },
        {
          "duration": 0.08184504166666784,
          "durationTicks": 110,
          "midi": 72,
          "name": "C5",
          "ticks": 160080,
          "time": 119.10685699999999,
          "velocity": 0.6220472440944882
        },
        {
          "duration": 0.238094666666683,
          "durationTicks": 320,
          "midi": 63,
          "name": "D#4",
          "ticks": 160320,
          "time": 119.28542799999998,
          "velocity": 0.6220472440944882
        },
        {
          "duration": 0.238094666666683,
          "durationTicks": 320,
          "midi": 65,
          "name": "F4",
          "ticks": 160320,
          "time": 119.28542799999998,
          "velocity": 0.6220472440944882
        },
        {
          "duration": 0.238094666666683,
          "durationTicks": 320,
          "midi": 69,
          "name": "A4",
          "ticks": 160320,
          "time": 119.28542799999998,
          "velocity": 0.6220472440944882
        },
        {
          "duration": 0.238094666666683,
          "durationTicks": 320,
          "midi": 72,
          "name": "C5",
          "ticks": 160320,
          "time": 119.28542799999998,
          "velocity": 0.6220472440944882
        },
        {
          "duration": 0.14880916666666621,
          "durationTicks": 200,
          "midi": 63,
          "name": "D#4",
          "ticks": 160800,
          "time": 119.64256999999999,
          "velocity": 0.6220472440944882
        },
        {
          "duration": 0.14880916666666621,
          "durationTicks": 200,
          "midi": 65,
          "name": "F4",
          "ticks": 160800,
          "time": 119.64256999999999,
          "velocity": 0.6220472440944882
        },
        {
          "duration": 0.14880916666666621,
          "durationTicks": 200,
          "midi": 69,
          "name": "A4",
          "ticks": 160800,
          "time": 119.64256999999999,
          "velocity": 0.6220472440944882
        },
        {
          "duration": 0.14880916666666621,
          "durationTicks": 200,
          "midi": 72,
          "name": "C5",
          "ticks": 160800,
          "time": 119.64256999999999,
          "velocity": 0.6220472440944882
        },
        {
          "duration": 0.07440458333333311,
          "durationTicks": 100,
          "midi": 63,
          "name": "D#4",
          "ticks": 161040,
          "time": 119.82114099999998,
          "velocity": 0.6220472440944882
        },
        {
          "duration": 0.07440458333333311,
          "durationTicks": 100,
          "midi": 65,
          "name": "F4",
          "ticks": 161040,
          "time": 119.82114099999998,
          "velocity": 0.6220472440944882
        },
        {
          "duration": 0.07440458333333311,
          "durationTicks": 100,
          "midi": 69,
          "name": "A4",
          "ticks": 161040,
          "time": 119.82114099999998,
          "velocity": 0.6220472440944882
        },
        {
          "duration": 0.07440458333333311,
          "durationTicks": 100,
          "midi": 72,
          "name": "C5",
          "ticks": 161040,
          "time": 119.82114099999998,
          "velocity": 0.6220472440944882
        },
        {
          "duration": 0.23809466666666879,
          "durationTicks": 320,
          "midi": 64,
          "name": "E4",
          "ticks": 161280,
          "time": 119.99971199999999,
          "velocity": 0.6220472440944882
        },
        {
          "duration": 0.23809466666666879,
          "durationTicks": 320,
          "midi": 67,
          "name": "G4",
          "ticks": 161280,
          "time": 119.99971199999999,
          "velocity": 0.6220472440944882
        },
        {
          "duration": 0.23809466666666879,
          "durationTicks": 320,
          "midi": 72,
          "name": "C5",
          "ticks": 161280,
          "time": 119.99971199999999,
          "velocity": 0.6220472440944882
        },
        {
          "duration": 0.15624962500000095,
          "durationTicks": 210,
          "midi": 64,
          "name": "E4",
          "ticks": 161760,
          "time": 120.35685399999998,
          "velocity": 0.6220472440944882
        },
        {
          "duration": 0.15624962500000095,
          "durationTicks": 210,
          "midi": 67,
          "name": "G4",
          "ticks": 161760,
          "time": 120.35685399999998,
          "velocity": 0.6220472440944882
        },
        {
          "duration": 0.15624962500000095,
          "durationTicks": 210,
          "midi": 72,
          "name": "C5",
          "ticks": 161760,
          "time": 120.35685399999998,
          "velocity": 0.6220472440944882
        },
        {
          "duration": 0.0744045833333189,
          "durationTicks": 100,
          "midi": 64,
          "name": "E4",
          "ticks": 162000,
          "time": 120.53542499999999,
          "velocity": 0.6220472440944882
        },
        {
          "duration": 0.0744045833333189,
          "durationTicks": 100,
          "midi": 67,
          "name": "G4",
          "ticks": 162000,
          "time": 120.53542499999999,
          "velocity": 0.6220472440944882
        },
        {
          "duration": 0.0744045833333189,
          "durationTicks": 100,
          "midi": 72,
          "name": "C5",
          "ticks": 162000,
          "time": 120.53542499999999,
          "velocity": 0.6220472440944882
        },
        {
          "duration": 0.238094666666683,
          "durationTicks": 320,
          "midi": 64,
          "name": "E4",
          "ticks": 162240,
          "time": 120.71399599999998,
          "velocity": 0.6220472440944882
        },
        {
          "duration": 0.238094666666683,
          "durationTicks": 320,
          "midi": 67,
          "name": "G4",
          "ticks": 162240,
          "time": 120.71399599999998,
          "velocity": 0.6220472440944882
        },
        {
          "duration": 0.238094666666683,
          "durationTicks": 320,
          "midi": 72,
          "name": "C5",
          "ticks": 162240,
          "time": 120.71399599999998,
          "velocity": 0.6220472440944882
        },
        {
          "duration": 0.15624962500000095,
          "durationTicks": 210,
          "midi": 64,
          "name": "E4",
          "ticks": 162720,
          "time": 121.07113799999999,
          "velocity": 0.6220472440944882
        },
        {
          "duration": 0.15624962500000095,
          "durationTicks": 210,
          "midi": 67,
          "name": "G4",
          "ticks": 162720,
          "time": 121.07113799999999,
          "velocity": 0.6220472440944882
        },
        {
          "duration": 0.15624962500000095,
          "durationTicks": 210,
          "midi": 72,
          "name": "C5",
          "ticks": 162720,
          "time": 121.07113799999999,
          "velocity": 0.6220472440944882
        },
        {
          "duration": 0.08184504166668205,
          "durationTicks": 110,
          "midi": 64,
          "name": "E4",
          "ticks": 162960,
          "time": 121.24970899999998,
          "velocity": 0.6220472440944882
        },
        {
          "duration": 0.08184504166668205,
          "durationTicks": 110,
          "midi": 67,
          "name": "G4",
          "ticks": 162960,
          "time": 121.24970899999998,
          "velocity": 0.6220472440944882
        },
        {
          "duration": 0.08184504166668205,
          "durationTicks": 110,
          "midi": 72,
          "name": "C5",
          "ticks": 162960,
          "time": 121.24970899999998,
          "velocity": 0.6220472440944882
        },
        {
          "duration": 0.23809466666666879,
          "durationTicks": 320,
          "midi": 64,
          "name": "E4",
          "ticks": 163200,
          "time": 121.42827999999999,
          "velocity": 0.6220472440944882
        },
        {
          "duration": 0.23809466666666879,
          "durationTicks": 320,
          "midi": 67,
          "name": "G4",
          "ticks": 163200,
          "time": 121.42827999999999,
          "velocity": 0.6220472440944882
        },
        {
          "duration": 0.23809466666666879,
          "durationTicks": 320,
          "midi": 71,
          "name": "B4",
          "ticks": 163200,
          "time": 121.42827999999999,
          "velocity": 0.6220472440944882
        },
        {
          "duration": 0.15624962500000095,
          "durationTicks": 210,
          "midi": 64,
          "name": "E4",
          "ticks": 163680,
          "time": 121.78542199999998,
          "velocity": 0.6220472440944882
        },
        {
          "duration": 0.15624962500000095,
          "durationTicks": 210,
          "midi": 67,
          "name": "G4",
          "ticks": 163680,
          "time": 121.78542199999998,
          "velocity": 0.6220472440944882
        },
        {
          "duration": 0.15624962500000095,
          "durationTicks": 210,
          "midi": 71,
          "name": "B4",
          "ticks": 163680,
          "time": 121.78542199999998,
          "velocity": 0.6220472440944882
        },
        {
          "duration": 0.27529695833332823,
          "durationTicks": 370,
          "midi": 64,
          "name": "E4",
          "ticks": 163920,
          "time": 121.96399299999999,
          "velocity": 0.6220472440944882
        },
        {
          "duration": 0.27529695833332823,
          "durationTicks": 370,
          "midi": 67,
          "name": "G4",
          "ticks": 163920,
          "time": 121.96399299999999,
          "velocity": 0.6220472440944882
        },
        {
          "duration": 0.27529695833332823,
          "durationTicks": 370,
          "midi": 71,
          "name": "B4",
          "ticks": 163920,
          "time": 121.96399299999999,
          "velocity": 0.6220472440944882
        },
        {
          "duration": 0.07440458333333311,
          "durationTicks": 100,
          "midi": 64,
          "name": "E4",
          "ticks": 164400,
          "time": 122.32113499999998,
          "velocity": 0.6220472440944882
        },
        {
          "duration": 0.07440458333333311,
          "durationTicks": 100,
          "midi": 67,
          "name": "G4",
          "ticks": 164400,
          "time": 122.32113499999998,
          "velocity": 0.6220472440944882
        },
        {
          "duration": 0.07440458333333311,
          "durationTicks": 100,
          "midi": 71,
          "name": "B4",
          "ticks": 164400,
          "time": 122.32113499999998,
          "velocity": 0.6220472440944882
        },
        {
          "duration": 0.23809466666666879,
          "durationTicks": 320,
          "midi": 64,
          "name": "E4",
          "ticks": 164640,
          "time": 122.49970599999999,
          "velocity": 0.6220472440944882
        },
        {
          "duration": 0.23809466666666879,
          "durationTicks": 320,
          "midi": 67,
          "name": "G4",
          "ticks": 164640,
          "time": 122.49970599999999,
          "velocity": 0.6220472440944882
        },
        {
          "duration": 0.23809466666666879,
          "durationTicks": 320,
          "midi": 71,
          "name": "B4",
          "ticks": 164640,
          "time": 122.49970599999999,
          "velocity": 0.6220472440944882
        },
        {
          "duration": 0.23809466666666879,
          "durationTicks": 320,
          "midi": 60,
          "name": "C4",
          "ticks": 165120,
          "time": 122.85684799999999,
          "velocity": 0.6220472440944882
        },
        {
          "duration": 0.23809466666666879,
          "durationTicks": 320,
          "midi": 64,
          "name": "E4",
          "ticks": 165120,
          "time": 122.85684799999999,
          "velocity": 0.6220472440944882
        },
        {
          "duration": 0.23809466666666879,
          "durationTicks": 320,
          "midi": 69,
          "name": "A4",
          "ticks": 165120,
          "time": 122.85684799999999,
          "velocity": 0.6220472440944882
        },
        {
          "duration": 0.15624962500000095,
          "durationTicks": 210,
          "midi": 60,
          "name": "C4",
          "ticks": 165600,
          "time": 123.21398999999998,
          "velocity": 0.6220472440944882
        },
        {
          "duration": 0.15624962500000095,
          "durationTicks": 210,
          "midi": 64,
          "name": "E4",
          "ticks": 165600,
          "time": 123.21398999999998,
          "velocity": 0.6220472440944882
        },
        {
          "duration": 0.15624962500000095,
          "durationTicks": 210,
          "midi": 69,
          "name": "A4",
          "ticks": 165600,
          "time": 123.21398999999998,
          "velocity": 0.6220472440944882
        },
        {
          "duration": 0.27529695833332823,
          "durationTicks": 370,
          "midi": 60,
          "name": "C4",
          "ticks": 165840,
          "time": 123.39256099999999,
          "velocity": 0.6220472440944882
        },
        {
          "duration": 0.27529695833332823,
          "durationTicks": 370,
          "midi": 64,
          "name": "E4",
          "ticks": 165840,
          "time": 123.39256099999999,
          "velocity": 0.6220472440944882
        },
        {
          "duration": 0.27529695833332823,
          "durationTicks": 370,
          "midi": 69,
          "name": "A4",
          "ticks": 165840,
          "time": 123.39256099999999,
          "velocity": 0.6220472440944882
        },
        {
          "duration": 0.07440458333333311,
          "durationTicks": 100,
          "midi": 60,
          "name": "C4",
          "ticks": 166320,
          "time": 123.74970299999998,
          "velocity": 0.6220472440944882
        },
        {
          "duration": 0.07440458333333311,
          "durationTicks": 100,
          "midi": 64,
          "name": "E4",
          "ticks": 166320,
          "time": 123.74970299999998,
          "velocity": 0.6220472440944882
        },
        {
          "duration": 0.07440458333333311,
          "durationTicks": 100,
          "midi": 69,
          "name": "A4",
          "ticks": 166320,
          "time": 123.74970299999998,
          "velocity": 0.6220472440944882
        },
        {
          "duration": 0.23809466666666879,
          "durationTicks": 320,
          "midi": 60,
          "name": "C4",
          "ticks": 166560,
          "time": 123.92827399999999,
          "velocity": 0.6220472440944882
        },
        {
          "duration": 0.23809466666666879,
          "durationTicks": 320,
          "midi": 64,
          "name": "E4",
          "ticks": 166560,
          "time": 123.92827399999999,
          "velocity": 0.6220472440944882
        },
        {
          "duration": 0.23809466666666879,
          "durationTicks": 320,
          "midi": 69,
          "name": "A4",
          "ticks": 166560,
          "time": 123.92827399999999,
          "velocity": 0.6220472440944882
        },
        {
          "duration": 0.23809466666666879,
          "durationTicks": 320,
          "midi": 64,
          "name": "E4",
          "ticks": 167040,
          "time": 124.28541599999998,
          "velocity": 0.6220472440944882
        },
        {
          "duration": 0.23809466666666879,
          "durationTicks": 320,
          "midi": 67,
          "name": "G4",
          "ticks": 167040,
          "time": 124.28541599999998,
          "velocity": 0.6220472440944882
        },
        {
          "duration": 0.23809466666666879,
          "durationTicks": 320,
          "midi": 71,
          "name": "B4",
          "ticks": 167040,
          "time": 124.28541599999998,
          "velocity": 0.6220472440944882
        },
        {
          "duration": 0.15624962500000095,
          "durationTicks": 210,
          "midi": 64,
          "name": "E4",
          "ticks": 167520,
          "time": 124.64255799999998,
          "velocity": 0.6220472440944882
        },
        {
          "duration": 0.15624962500000095,
          "durationTicks": 210,
          "midi": 67,
          "name": "G4",
          "ticks": 167520,
          "time": 124.64255799999998,
          "velocity": 0.6220472440944882
        },
        {
          "duration": 0.15624962500000095,
          "durationTicks": 210,
          "midi": 71,
          "name": "B4",
          "ticks": 167520,
          "time": 124.64255799999998,
          "velocity": 0.6220472440944882
        },
        {
          "duration": 0.27529695833332823,
          "durationTicks": 370,
          "midi": 64,
          "name": "E4",
          "ticks": 167760,
          "time": 124.82112899999998,
          "velocity": 0.6220472440944882
        },
        {
          "duration": 0.27529695833332823,
          "durationTicks": 370,
          "midi": 67,
          "name": "G4",
          "ticks": 167760,
          "time": 124.82112899999998,
          "velocity": 0.6220472440944882
        },
        {
          "duration": 0.27529695833332823,
          "durationTicks": 370,
          "midi": 71,
          "name": "B4",
          "ticks": 167760,
          "time": 124.82112899999998,
          "velocity": 0.6220472440944882
        },
        {
          "duration": 0.07440458333333311,
          "durationTicks": 100,
          "midi": 64,
          "name": "E4",
          "ticks": 168240,
          "time": 125.17827099999998,
          "velocity": 0.6220472440944882
        },
        {
          "duration": 0.07440458333333311,
          "durationTicks": 100,
          "midi": 67,
          "name": "G4",
          "ticks": 168240,
          "time": 125.17827099999998,
          "velocity": 0.6220472440944882
        },
        {
          "duration": 0.07440458333333311,
          "durationTicks": 100,
          "midi": 71,
          "name": "B4",
          "ticks": 168240,
          "time": 125.17827099999998,
          "velocity": 0.6220472440944882
        },
        {
          "duration": 0.23809466666666879,
          "durationTicks": 320,
          "midi": 64,
          "name": "E4",
          "ticks": 168480,
          "time": 125.35684199999999,
          "velocity": 0.6220472440944882
        },
        {
          "duration": 0.23809466666666879,
          "durationTicks": 320,
          "midi": 67,
          "name": "G4",
          "ticks": 168480,
          "time": 125.35684199999999,
          "velocity": 0.6220472440944882
        },
        {
          "duration": 0.23809466666666879,
          "durationTicks": 320,
          "midi": 71,
          "name": "B4",
          "ticks": 168480,
          "time": 125.35684199999999,
          "velocity": 0.6220472440944882
        },
        {
          "duration": 0.238094666666683,
          "durationTicks": 320,
          "midi": 60,
          "name": "C4",
          "ticks": 168960,
          "time": 125.71398399999998,
          "velocity": 0.6220472440944882
        },
        {
          "duration": 0.238094666666683,
          "durationTicks": 320,
          "midi": 64,
          "name": "E4",
          "ticks": 168960,
          "time": 125.71398399999998,
          "velocity": 0.6220472440944882
        },
        {
          "duration": 0.238094666666683,
          "durationTicks": 320,
          "midi": 69,
          "name": "A4",
          "ticks": 168960,
          "time": 125.71398399999998,
          "velocity": 0.6220472440944882
        },
        {
          "duration": 0.15624962499998674,
          "durationTicks": 210,
          "midi": 60,
          "name": "C4",
          "ticks": 169440,
          "time": 126.07112599999999,
          "velocity": 0.6220472440944882
        },
        {
          "duration": 0.15624962499998674,
          "durationTicks": 210,
          "midi": 64,
          "name": "E4",
          "ticks": 169440,
          "time": 126.07112599999999,
          "velocity": 0.6220472440944882
        },
        {
          "duration": 0.15624962499998674,
          "durationTicks": 210,
          "midi": 69,
          "name": "A4",
          "ticks": 169440,
          "time": 126.07112599999999,
          "velocity": 0.6220472440944882
        },
        {
          "duration": 0.27529695833332823,
          "durationTicks": 370,
          "midi": 60,
          "name": "C4",
          "ticks": 169680,
          "time": 126.24969699999998,
          "velocity": 0.6220472440944882
        },
        {
          "duration": 0.27529695833332823,
          "durationTicks": 370,
          "midi": 64,
          "name": "E4",
          "ticks": 169680,
          "time": 126.24969699999998,
          "velocity": 0.6220472440944882
        },
        {
          "duration": 0.27529695833332823,
          "durationTicks": 370,
          "midi": 69,
          "name": "A4",
          "ticks": 169680,
          "time": 126.24969699999998,
          "velocity": 0.6220472440944882
        },
        {
          "duration": 0.07440458333333311,
          "durationTicks": 100,
          "midi": 60,
          "name": "C4",
          "ticks": 170160,
          "time": 126.60683899999998,
          "velocity": 0.6220472440944882
        },
        {
          "duration": 0.07440458333333311,
          "durationTicks": 100,
          "midi": 64,
          "name": "E4",
          "ticks": 170160,
          "time": 126.60683899999998,
          "velocity": 0.6220472440944882
        },
        {
          "duration": 0.07440458333333311,
          "durationTicks": 100,
          "midi": 69,
          "name": "A4",
          "ticks": 170160,
          "time": 126.60683899999998,
          "velocity": 0.6220472440944882
        },
        {
          "duration": 0.23809466666666879,
          "durationTicks": 320,
          "midi": 60,
          "name": "C4",
          "ticks": 170400,
          "time": 126.78540999999998,
          "velocity": 0.6220472440944882
        },
        {
          "duration": 0.23809466666666879,
          "durationTicks": 320,
          "midi": 64,
          "name": "E4",
          "ticks": 170400,
          "time": 126.78540999999998,
          "velocity": 0.6220472440944882
        },
        {
          "duration": 0.23809466666666879,
          "durationTicks": 320,
          "midi": 69,
          "name": "A4",
          "ticks": 170400,
          "time": 126.78540999999998,
          "velocity": 0.6220472440944882
        },
        {
          "duration": 0.238094666666683,
          "durationTicks": 320,
          "midi": 62,
          "name": "D4",
          "ticks": 170880,
          "time": 127.14255199999998,
          "velocity": 0.6220472440944882
        },
        {
          "duration": 0.238094666666683,
          "durationTicks": 320,
          "midi": 65,
          "name": "F4",
          "ticks": 170880,
          "time": 127.14255199999998,
          "velocity": 0.6220472440944882
        },
        {
          "duration": 0.238094666666683,
          "durationTicks": 320,
          "midi": 69,
          "name": "A4",
          "ticks": 170880,
          "time": 127.14255199999998,
          "velocity": 0.6220472440944882
        },
        {
          "duration": 0.238094666666683,
          "durationTicks": 320,
          "midi": 72,
          "name": "C5",
          "ticks": 170880,
          "time": 127.14255199999998,
          "velocity": 0.6220472440944882
        },
        {
          "duration": 0.15624962500000095,
          "durationTicks": 210,
          "midi": 62,
          "name": "D4",
          "ticks": 171360,
          "time": 127.49969399999999,
          "velocity": 0.6220472440944882
        },
        {
          "duration": 0.15624962500000095,
          "durationTicks": 210,
          "midi": 65,
          "name": "F4",
          "ticks": 171360,
          "time": 127.49969399999999,
          "velocity": 0.6220472440944882
        },
        {
          "duration": 0.15624962500000095,
          "durationTicks": 210,
          "midi": 69,
          "name": "A4",
          "ticks": 171360,
          "time": 127.49969399999999,
          "velocity": 0.6220472440944882
        },
        {
          "duration": 0.15624962500000095,
          "durationTicks": 210,
          "midi": 72,
          "name": "C5",
          "ticks": 171360,
          "time": 127.49969399999999,
          "velocity": 0.6220472440944882
        },
        {
          "duration": 0.27529695833332823,
          "durationTicks": 370,
          "midi": 62,
          "name": "D4",
          "ticks": 171600,
          "time": 127.67826499999998,
          "velocity": 0.6220472440944882
        },
        {
          "duration": 0.27529695833332823,
          "durationTicks": 370,
          "midi": 65,
          "name": "F4",
          "ticks": 171600,
          "time": 127.67826499999998,
          "velocity": 0.6220472440944882
        },
        {
          "duration": 0.27529695833332823,
          "durationTicks": 370,
          "midi": 69,
          "name": "A4",
          "ticks": 171600,
          "time": 127.67826499999998,
          "velocity": 0.6220472440944882
        },
        {
          "duration": 0.27529695833332823,
          "durationTicks": 370,
          "midi": 72,
          "name": "C5",
          "ticks": 171600,
          "time": 127.67826499999998,
          "velocity": 0.6220472440944882
        },
        {
          "duration": 0.08184504166666784,
          "durationTicks": 110,
          "midi": 62,
          "name": "D4",
          "ticks": 172080,
          "time": 128.035407,
          "velocity": 0.6220472440944882
        },
        {
          "duration": 0.08184504166666784,
          "durationTicks": 110,
          "midi": 65,
          "name": "F4",
          "ticks": 172080,
          "time": 128.035407,
          "velocity": 0.6220472440944882
        },
        {
          "duration": 0.08184504166666784,
          "durationTicks": 110,
          "midi": 69,
          "name": "A4",
          "ticks": 172080,
          "time": 128.035407,
          "velocity": 0.6220472440944882
        },
        {
          "duration": 0.08184504166666784,
          "durationTicks": 110,
          "midi": 72,
          "name": "C5",
          "ticks": 172080,
          "time": 128.035407,
          "velocity": 0.6220472440944882
        },
        {
          "duration": 0.23809466666665458,
          "durationTicks": 320,
          "midi": 62,
          "name": "D4",
          "ticks": 172320,
          "time": 128.213978,
          "velocity": 0.6220472440944882
        },
        {
          "duration": 0.23809466666665458,
          "durationTicks": 320,
          "midi": 65,
          "name": "F4",
          "ticks": 172320,
          "time": 128.213978,
          "velocity": 0.6220472440944882
        },
        {
          "duration": 0.23809466666665458,
          "durationTicks": 320,
          "midi": 69,
          "name": "A4",
          "ticks": 172320,
          "time": 128.213978,
          "velocity": 0.6220472440944882
        },
        {
          "duration": 0.23809466666665458,
          "durationTicks": 320,
          "midi": 72,
          "name": "C5",
          "ticks": 172320,
          "time": 128.213978,
          "velocity": 0.6220472440944882
        },
        {
          "duration": 0.22321375000001353,
          "durationTicks": 300,
          "midi": 62,
          "name": "D4",
          "ticks": 172800,
          "time": 128.57111999999998,
          "velocity": 0.6220472440944882
        },
        {
          "duration": 0.22321375000001353,
          "durationTicks": 300,
          "midi": 67,
          "name": "G4",
          "ticks": 172800,
          "time": 128.57111999999998,
          "velocity": 0.6220472440944882
        },
        {
          "duration": 0.22321375000001353,
          "durationTicks": 300,
          "midi": 71,
          "name": "B4",
          "ticks": 172800,
          "time": 128.57111999999998,
          "velocity": 0.6220472440944882
        },
        {
          "duration": 0.15624962499998674,
          "durationTicks": 210,
          "midi": 62,
          "name": "D4",
          "ticks": 173280,
          "time": 128.928262,
          "velocity": 0.6220472440944882
        },
        {
          "duration": 0.15624962499998674,
          "durationTicks": 210,
          "midi": 67,
          "name": "G4",
          "ticks": 173280,
          "time": 128.928262,
          "velocity": 0.6220472440944882
        },
        {
          "duration": 0.15624962499998674,
          "durationTicks": 210,
          "midi": 71,
          "name": "B4",
          "ticks": 173280,
          "time": 128.928262,
          "velocity": 0.6220472440944882
        },
        {
          "duration": 0.275296958333314,
          "durationTicks": 370,
          "midi": 62,
          "name": "D4",
          "ticks": 173520,
          "time": 129.106833,
          "velocity": 0.6220472440944882
        },
        {
          "duration": 0.275296958333314,
          "durationTicks": 370,
          "midi": 67,
          "name": "G4",
          "ticks": 173520,
          "time": 129.106833,
          "velocity": 0.6220472440944882
        },
        {
          "duration": 0.275296958333314,
          "durationTicks": 370,
          "midi": 71,
          "name": "B4",
          "ticks": 173520,
          "time": 129.106833,
          "velocity": 0.6220472440944882
        },
        {
          "duration": 0.07440458333334732,
          "durationTicks": 100,
          "midi": 64,
          "name": "E4",
          "ticks": 174000,
          "time": 129.46397499999998,
          "velocity": 0.6220472440944882
        },
        {
          "duration": 0.07440458333334732,
          "durationTicks": 100,
          "midi": 67,
          "name": "G4",
          "ticks": 174000,
          "time": 129.46397499999998,
          "velocity": 0.6220472440944882
        },
        {
          "duration": 0.07440458333334732,
          "durationTicks": 100,
          "midi": 71,
          "name": "B4",
          "ticks": 174000,
          "time": 129.46397499999998,
          "velocity": 0.6220472440944882
        },
        {
          "duration": 0.238094666666683,
          "durationTicks": 320,
          "midi": 64,
          "name": "E4",
          "ticks": 174240,
          "time": 129.64254599999998,
          "velocity": 0.6220472440944882
        },
        {
          "duration": 0.238094666666683,
          "durationTicks": 320,
          "midi": 67,
          "name": "G4",
          "ticks": 174240,
          "time": 129.64254599999998,
          "velocity": 0.6220472440944882
        },
        {
          "duration": 0.238094666666683,
          "durationTicks": 320,
          "midi": 71,
          "name": "B4",
          "ticks": 174240,
          "time": 129.64254599999998,
          "velocity": 0.6220472440944882
        },
        {
          "duration": 0.23809466666665458,
          "durationTicks": 320,
          "midi": 64,
          "name": "E4",
          "ticks": 174720,
          "time": 129.999688,
          "velocity": 0.6220472440944882
        },
        {
          "duration": 0.23809466666665458,
          "durationTicks": 320,
          "midi": 67,
          "name": "G4",
          "ticks": 174720,
          "time": 129.999688,
          "velocity": 0.6220472440944882
        },
        {
          "duration": 0.23809466666665458,
          "durationTicks": 320,
          "midi": 72,
          "name": "C5",
          "ticks": 174720,
          "time": 129.999688,
          "velocity": 0.6220472440944882
        },
        {
          "duration": 0.15624962500001516,
          "durationTicks": 210,
          "midi": 64,
          "name": "E4",
          "ticks": 175200,
          "time": 130.35682999999997,
          "velocity": 0.6220472440944882
        },
        {
          "duration": 0.15624962500001516,
          "durationTicks": 210,
          "midi": 67,
          "name": "G4",
          "ticks": 175200,
          "time": 130.35682999999997,
          "velocity": 0.6220472440944882
        },
        {
          "duration": 0.15624962500001516,
          "durationTicks": 210,
          "midi": 72,
          "name": "C5",
          "ticks": 175200,
          "time": 130.35682999999997,
          "velocity": 0.6220472440944882
        },
        {
          "duration": 0.2678564999999935,
          "durationTicks": 360,
          "midi": 64,
          "name": "E4",
          "ticks": 175440,
          "time": 130.53540099999998,
          "velocity": 0.6220472440944882
        },
        {
          "duration": 0.2678564999999935,
          "durationTicks": 360,
          "midi": 67,
          "name": "G4",
          "ticks": 175440,
          "time": 130.53540099999998,
          "velocity": 0.6220472440944882
        },
        {
          "duration": 0.2678564999999935,
          "durationTicks": 360,
          "midi": 72,
          "name": "C5",
          "ticks": 175440,
          "time": 130.53540099999998,
          "velocity": 0.6220472440944882
        },
        {
          "duration": 0.0744045833333189,
          "durationTicks": 100,
          "midi": 64,
          "name": "E4",
          "ticks": 175920,
          "time": 130.892543,
          "velocity": 0.6220472440944882
        },
        {
          "duration": 0.0744045833333189,
          "durationTicks": 100,
          "midi": 67,
          "name": "G4",
          "ticks": 175920,
          "time": 130.892543,
          "velocity": 0.6220472440944882
        },
        {
          "duration": 0.0744045833333189,
          "durationTicks": 100,
          "midi": 72,
          "name": "C5",
          "ticks": 175920,
          "time": 130.892543,
          "velocity": 0.6220472440944882
        },
        {
          "duration": 0.2232137499999851,
          "durationTicks": 300,
          "midi": 64,
          "name": "E4",
          "ticks": 176160,
          "time": 131.071114,
          "velocity": 0.6220472440944882
        },
        {
          "duration": 0.2232137499999851,
          "durationTicks": 300,
          "midi": 67,
          "name": "G4",
          "ticks": 176160,
          "time": 131.071114,
          "velocity": 0.6220472440944882
        },
        {
          "duration": 0.2232137499999851,
          "durationTicks": 300,
          "midi": 72,
          "name": "C5",
          "ticks": 176160,
          "time": 131.071114,
          "velocity": 0.6220472440944882
        },
        {
          "duration": 0.8854145416666768,
          "durationTicks": 1190,
          "midi": 60,
          "name": "C4",
          "ticks": 176640,
          "time": 131.42825599999998,
          "velocity": 0.6220472440944882
        },
        {
          "duration": 0.8854145416666768,
          "durationTicks": 1190,
          "midi": 64,
          "name": "E4",
          "ticks": 176640,
          "time": 131.42825599999998,
          "velocity": 0.6220472440944882
        },
        {
          "duration": 0.8854145416666768,
          "durationTicks": 1190,
          "midi": 67,
          "name": "G4",
          "ticks": 176640,
          "time": 131.42825599999998,
          "velocity": 0.6220472440944882
        },
        {
          "duration": 0.8854145416666768,
          "durationTicks": 1190,
          "midi": 72,
          "name": "C5",
          "ticks": 176640,
          "time": 131.42825599999998,
          "velocity": 0.6220472440944882
        },
        {
          "duration": 0.8854145416666768,
          "durationTicks": 1190,
          "midi": 76,
          "name": "E5",
          "ticks": 176640,
          "time": 131.42825599999998,
          "velocity": 0.6220472440944882
        }
      ]
    },
    {
      "channel": 0,
      "controlChanges": {},
      "pitchBends": [],
      "instrument": {
        "family": "piano",
        "number": 0,
        "name": "acoustic grand piano"
      },
      "name": "Bass",
      "notes": [],
      "endOfTrackTicks": 178560
    },
    {
      "channel": 4,
      "controlChanges": {
        "1": [
          {
            "number": 1,
            "ticks": 990,
            "time": 0.7366053749999999,
            "value": 0
          }
        ],
        "7": [
          {
            "number": 7,
            "ticks": 1000,
            "time": 0.7440458333333333,
            "value": 0.7559055118110236
          }
        ],
        "10": [
          {
            "number": 10,
            "ticks": 1010,
            "time": 0.7514862916666666,
            "value": 0.7795275590551181
          }
        ],
        "11": [
          {
            "number": 11,
            "ticks": 1020,
            "time": 0.7589267499999999,
            "value": 1
          }
        ],
        "64": [
          {
            "number": 64,
            "ticks": 1030,
            "time": 0.7663672083333333,
            "value": 0
          }
        ],
        "91": [
          {
            "number": 91,
            "ticks": 2400,
            "time": 1.78571,
            "value": 0.5039370078740157
          }
        ],
        "93": [
          {
            "number": 93,
            "ticks": 1050,
            "time": 0.781248125,
            "value": 0
          }
        ]
      },
      "pitchBends": [
        {
          "ticks": 1060,
          "time": 0.7886885833333332,
          "value": 0
        }
      ],
      "instrument": {
        "family": "bass",
        "number": 33,
        "name": "electric bass (finger)"
      },
      "name": "",
      "notes": [
        {
          "duration": 0.22321374999999977,
          "durationTicks": 300,
          "midi": 40,
          "name": "E2",
          "ticks": 3840,
          "time": 2.8571359999999997,
          "velocity": 0.7401574803149606
        },
        {
          "duration": 0.22321374999999977,
          "durationTicks": 300,
          "midi": 40,
          "name": "E2",
          "ticks": 4320,
          "time": 3.2142779999999997,
          "velocity": 0.7401574803149606
        },
        {
          "duration": 0.22321374999999977,
          "durationTicks": 300,
          "midi": 40,
          "name": "E2",
          "ticks": 4800,
          "time": 3.57142,
          "velocity": 0.7401574803149606
        },
        {
          "duration": 0.2232137500000002,
          "durationTicks": 300,
          "midi": 40,
          "name": "E2",
          "ticks": 5280,
          "time": 3.9285619999999994,
          "velocity": 0.7401574803149606
        },
        {
          "duration": 0.2232137500000002,
          "durationTicks": 300,
          "midi": 45,
          "name": "A2",
          "ticks": 5760,
          "time": 4.285703999999999,
          "velocity": 0.7401574803149606
        },
        {
          "duration": 0.2232137500000002,
          "durationTicks": 300,
          "midi": 45,
          "name": "A2",
          "ticks": 6240,
          "time": 4.642846,
          "velocity": 0.7401574803149606
        },
        {
          "duration": 0.2232137500000002,
          "durationTicks": 300,
          "midi": 45,
          "name": "A2",
          "ticks": 6720,
          "time": 4.999987999999999,
          "velocity": 0.7401574803149606
        },
        {
          "duration": 0.22321374999999932,
          "durationTicks": 300,
          "midi": 45,
          "name": "A2",
          "ticks": 7200,
          "time": 5.35713,
          "velocity": 0.7401574803149606
        },
        {
          "duration": 0.2232137500000002,
          "durationTicks": 300,
          "midi": 40,
          "name": "E2",
          "ticks": 7680,
          "time": 5.714271999999999,
          "velocity": 0.7401574803149606
        },
        {
          "duration": 0.2232137500000002,
          "durationTicks": 300,
          "midi": 40,
          "name": "E2",
          "ticks": 8160,
          "time": 6.071413999999999,
          "velocity": 0.7401574803149606
        },
        {
          "duration": 0.22321374999999932,
          "durationTicks": 300,
          "midi": 40,
          "name": "E2",
          "ticks": 8640,
          "time": 6.4285559999999995,
          "velocity": 0.7401574803149606
        },
        {
          "duration": 0.2232137500000002,
          "durationTicks": 300,
          "midi": 40,
          "name": "E2",
          "ticks": 9120,
          "time": 6.785697999999999,
          "velocity": 0.7401574803149606
        },
        {
          "duration": 0.22321374999999932,
          "durationTicks": 300,
          "midi": 45,
          "name": "A2",
          "ticks": 9600,
          "time": 7.14284,
          "velocity": 0.7401574803149606
        },
        {
          "duration": 0.2232137500000002,
          "durationTicks": 300,
          "midi": 45,
          "name": "A2",
          "ticks": 10080,
          "time": 7.499981999999999,
          "velocity": 0.7401574803149606
        },
        {
          "duration": 0.22321374999999932,
          "durationTicks": 300,
          "midi": 45,
          "name": "A2",
          "ticks": 10560,
          "time": 7.857123999999999,
          "velocity": 0.7401574803149606
        },
        {
          "duration": 0.2232137500000011,
          "durationTicks": 300,
          "midi": 45,
          "name": "A2",
          "ticks": 11040,
          "time": 8.214265999999999,
          "velocity": 0.7401574803149606
        },
        {
          "duration": 0.2232137500000011,
          "durationTicks": 300,
          "midi": 38,
          "name": "D2",
          "ticks": 11520,
          "time": 8.571407999999998,
          "velocity": 0.7401574803149606
        },
        {
          "duration": 0.22321374999999932,
          "durationTicks": 300,
          "midi": 38,
          "name": "D2",
          "ticks": 12000,
          "time": 8.92855,
          "velocity": 0.7401574803149606
        },
        {
          "duration": 0.22321374999999932,
          "durationTicks": 300,
          "midi": 38,
          "name": "D2",
          "ticks": 12480,
          "time": 9.285692,
          "velocity": 0.7401574803149606
        },
        {
          "duration": 0.22321374999999932,
          "durationTicks": 300,
          "midi": 38,
          "name": "D2",
          "ticks": 12960,
          "time": 9.642833999999999,
          "velocity": 0.7401574803149606
        },
        {
          "duration": 0.2232137500000011,
          "durationTicks": 300,
          "midi": 43,
          "name": "G2",
          "ticks": 13440,
          "time": 9.999975999999998,
          "velocity": 0.7401574803149606
        },
        {
          "duration": 0.2232137500000011,
          "durationTicks": 300,
          "midi": 43,
          "name": "G2",
          "ticks": 13920,
          "time": 10.357117999999998,
          "velocity": 0.7401574803149606
        },
        {
          "duration": 0.22321374999999932,
          "durationTicks": 300,
          "midi": 43,
          "name": "G2",
          "ticks": 14400,
          "time": 10.71426,
          "velocity": 0.7401574803149606
        },
        {
          "duration": 0.22321374999999932,
          "durationTicks": 300,
          "midi": 43,
          "name": "G2",
          "ticks": 14880,
          "time": 11.071401999999999,
          "velocity": 0.7401574803149606
        },
        {
          "duration": 0.23809466666666523,
          "durationTicks": 320,
          "midi": 36,
          "name": "C2",
          "ticks": 15360,
          "time": 11.428543999999999,
          "velocity": 0.7401574803149606
        },
        {
          "duration": 0.238094666666667,
          "durationTicks": 320,
          "midi": 36,
          "name": "C2",
          "ticks": 15840,
          "time": 11.785685999999998,
          "velocity": 0.7401574803149606
        },
        {
          "duration": 0.238094666666667,
          "durationTicks": 320,
          "midi": 31,
          "name": "G1",
          "ticks": 16320,
          "time": 12.142827999999998,
          "velocity": 0.7401574803149606
        },
        {
          "duration": 0.23809466666666523,
          "durationTicks": 320,
          "midi": 31,
          "name": "G1",
          "ticks": 16800,
          "time": 12.49997,
          "velocity": 0.7401574803149606
        },
        {
          "duration": 0.23809466666666523,
          "durationTicks": 320,
          "midi": 36,
          "name": "C2",
          "ticks": 17280,
          "time": 12.857111999999999,
          "velocity": 0.7401574803149606
        },
        {
          "duration": 0.23809466666666523,
          "durationTicks": 320,
          "midi": 36,
          "name": "C2",
          "ticks": 17760,
          "time": 13.214253999999999,
          "velocity": 0.7401574803149606
        },
        {
          "duration": 0.23809466666666523,
          "durationTicks": 320,
          "midi": 31,
          "name": "G1",
          "ticks": 18240,
          "time": 13.571395999999998,
          "velocity": 0.7401574803149606
        },
        {
          "duration": 0.238094666666667,
          "durationTicks": 320,
          "midi": 31,
          "name": "G1",
          "ticks": 18720,
          "time": 13.928537999999998,
          "velocity": 0.7401574803149606
        },
        {
          "duration": 0.23809466666666523,
          "durationTicks": 320,
          "midi": 36,
          "name": "C2",
          "ticks": 19200,
          "time": 14.28568,
          "velocity": 0.7401574803149606
        },
        {
          "duration": 0.23809466666666523,
          "durationTicks": 320,
          "midi": 36,
          "name": "C2",
          "ticks": 19680,
          "time": 14.642821999999999,
          "velocity": 0.7401574803149606
        },
        {
          "duration": 0.23809466666666523,
          "durationTicks": 320,
          "midi": 31,
          "name": "G1",
          "ticks": 20160,
          "time": 14.999963999999999,
          "velocity": 0.7401574803149606
        },
        {
          "duration": 0.23809466666666523,
          "durationTicks": 320,
          "midi": 31,
          "name": "G1",
          "ticks": 20640,
          "time": 15.357105999999998,
          "velocity": 0.7401574803149606
        },
        {
          "duration": 0.238094666666667,
          "durationTicks": 320,
          "midi": 36,
          "name": "C2",
          "ticks": 21120,
          "time": 15.714247999999998,
          "velocity": 0.7401574803149606
        },
        {
          "duration": 0.23809466666666523,
          "durationTicks": 320,
          "midi": 36,
          "name": "C2",
          "ticks": 21600,
          "time": 16.071389999999997,
          "velocity": 0.7401574803149606
        },
        {
          "duration": 0.23809466666666523,
          "durationTicks": 320,
          "midi": 31,
          "name": "G1",
          "ticks": 22080,
          "time": 16.428531999999997,
          "velocity": 0.7401574803149606
        },
        {
          "duration": 0.23809466666666879,
          "durationTicks": 320,
          "midi": 31,
          "name": "G1",
          "ticks": 22560,
          "time": 16.785673999999997,
          "velocity": 0.7401574803149606
        },
        {
          "duration": 0.23809466666666879,
          "durationTicks": 320,
          "midi": 41,
          "name": "F2",
          "ticks": 23040,
          "time": 17.142815999999996,
          "velocity": 0.7401574803149606
        },
        {
          "duration": 0.23809466666666523,
          "durationTicks": 320,
          "midi": 41,
          "name": "F2",
          "ticks": 23520,
          "time": 17.499958,
          "velocity": 0.7401574803149606
        },
        {
          "duration": 0.23809466666666523,
          "durationTicks": 320,
          "midi": 36,
          "name": "C2",
          "ticks": 24000,
          "time": 17.8571,
          "velocity": 0.7401574803149606
        },
        {
          "duration": 0.23809466666666523,
          "durationTicks": 320,
          "midi": 36,
          "name": "C2",
          "ticks": 24480,
          "time": 18.214242,
          "velocity": 0.7401574803149606
        },
        {
          "duration": 0.23809466666666523,
          "durationTicks": 320,
          "midi": 41,
          "name": "F2",
          "ticks": 24960,
          "time": 18.571384,
          "velocity": 0.7401574803149606
        },
        {
          "duration": 0.23809466666666523,
          "durationTicks": 320,
          "midi": 41,
          "name": "F2",
          "ticks": 25440,
          "time": 18.928525999999998,
          "velocity": 0.7401574803149606
        },
        {
          "duration": 0.23809466666666523,
          "durationTicks": 320,
          "midi": 36,
          "name": "C2",
          "ticks": 25920,
          "time": 19.285667999999998,
          "velocity": 0.7401574803149606
        },
        {
          "duration": 0.23809466666666523,
          "durationTicks": 320,
          "midi": 36,
          "name": "C2",
          "ticks": 26400,
          "time": 19.642809999999997,
          "velocity": 0.7401574803149606
        },
        {
          "duration": 0.23809466666666523,
          "durationTicks": 320,
          "midi": 36,
          "name": "C2",
          "ticks": 26880,
          "time": 19.999951999999997,
          "velocity": 0.7401574803149606
        },
        {
          "duration": 0.23809466666666879,
          "durationTicks": 320,
          "midi": 36,
          "name": "C2",
          "ticks": 27360,
          "time": 20.357093999999996,
          "velocity": 0.7401574803149606
        },
        {
          "duration": 0.23809466666666879,
          "durationTicks": 320,
          "midi": 31,
          "name": "G1",
          "ticks": 27840,
          "time": 20.714235999999996,
          "velocity": 0.7401574803149606
        },
        {
          "duration": 0.23809466666666523,
          "durationTicks": 320,
          "midi": 31,
          "name": "G1",
          "ticks": 28320,
          "time": 21.071378,
          "velocity": 0.7401574803149606
        },
        {
          "duration": 0.23809466666666523,
          "durationTicks": 320,
          "midi": 36,
          "name": "C2",
          "ticks": 28800,
          "time": 21.42852,
          "velocity": 0.7401574803149606
        },
        {
          "duration": 0.23809466666666523,
          "durationTicks": 320,
          "midi": 36,
          "name": "C2",
          "ticks": 29280,
          "time": 21.785662,
          "velocity": 0.7401574803149606
        },
        {
          "duration": 0.23809466666666523,
          "durationTicks": 320,
          "midi": 31,
          "name": "G1",
          "ticks": 29760,
          "time": 22.142803999999998,
          "velocity": 0.7401574803149606
        },
        {
          "duration": 0.23809466666666523,
          "durationTicks": 320,
          "midi": 31,
          "name": "G1",
          "ticks": 30240,
          "time": 22.499945999999998,
          "velocity": 0.7401574803149606
        },
        {
          "duration": 0.23809466666666879,
          "durationTicks": 320,
          "midi": 31,
          "name": "G1",
          "ticks": 30720,
          "time": 22.857087999999997,
          "velocity": 0.7401574803149606
        },
        {
          "duration": 0.23809466666666879,
          "durationTicks": 320,
          "midi": 31,
          "name": "G1",
          "ticks": 31200,
          "time": 23.214229999999997,
          "velocity": 0.7401574803149606
        },
        {
          "duration": 0.23809466666666879,
          "durationTicks": 320,
          "midi": 38,
          "name": "D2",
          "ticks": 31680,
          "time": 23.571371999999997,
          "velocity": 0.7401574803149606
        },
        {
          "duration": 0.23809466666666879,
          "durationTicks": 320,
          "midi": 31,
          "name": "G1",
          "ticks": 32160,
          "time": 23.928513999999996,
          "velocity": 0.7401574803149606
        },
        {
          "duration": 0.23809466666666879,
          "durationTicks": 320,
          "midi": 29,
          "name": "F1",
          "ticks": 32640,
          "time": 24.285655999999996,
          "velocity": 0.7401574803149606
        },
        {
          "duration": 0.23809466666666879,
          "durationTicks": 320,
          "midi": 29,
          "name": "F1",
          "ticks": 34560,
          "time": 25.714223999999998,
          "velocity": 0.7401574803149606
        },
        {
          "duration": 0.23809466666666879,
          "durationTicks": 320,
          "midi": 29,
          "name": "F1",
          "ticks": 35040,
          "time": 26.071365999999998,
          "velocity": 0.7401574803149606
        },
        {
          "duration": 0.23809466666666879,
          "durationTicks": 320,
          "midi": 29,
          "name": "F1",
          "ticks": 35520,
          "time": 26.428507999999997,
          "velocity": 0.7401574803149606
        },
        {
          "duration": 0.23809466666666879,
          "durationTicks": 320,
          "midi": 29,
          "name": "F1",
          "ticks": 36000,
          "time": 26.785649999999997,
          "velocity": 0.7401574803149606
        },
        {
          "duration": 0.23809466666666879,
          "durationTicks": 320,
          "midi": 36,
          "name": "C2",
          "ticks": 36480,
          "time": 27.142791999999996,
          "velocity": 0.7401574803149606
        },
        {
          "duration": 0.23809466666666879,
          "durationTicks": 320,
          "midi": 36,
          "name": "C2",
          "ticks": 36960,
          "time": 27.499933999999996,
          "velocity": 0.7401574803149606
        },
        {
          "duration": 0.23809466666666879,
          "durationTicks": 320,
          "midi": 31,
          "name": "G1",
          "ticks": 37440,
          "time": 27.857075999999996,
          "velocity": 0.7401574803149606
        },
        {
          "duration": 0.23809466666666879,
          "durationTicks": 320,
          "midi": 31,
          "name": "G1",
          "ticks": 37920,
          "time": 28.214217999999995,
          "velocity": 0.7401574803149606
        },
        {
          "duration": 0.23809466666666523,
          "durationTicks": 320,
          "midi": 36,
          "name": "C2",
          "ticks": 38400,
          "time": 28.57136,
          "velocity": 0.7401574803149606
        },
        {
          "duration": 0.23809466666666523,
          "durationTicks": 320,
          "midi": 36,
          "name": "C2",
          "ticks": 38880,
          "time": 28.928501999999998,
          "velocity": 0.7401574803149606
        },
        {
          "duration": 0.23809466666666879,
          "durationTicks": 320,
          "midi": 31,
          "name": "G1",
          "ticks": 39360,
          "time": 29.285643999999998,
          "velocity": 0.7401574803149606
        },
        {
          "duration": 0.23809466666666879,
          "durationTicks": 320,
          "midi": 31,
          "name": "G1",
          "ticks": 39840,
          "time": 29.642785999999997,
          "velocity": 0.7401574803149606
        },
        {
          "duration": 0.23809466666666879,
          "durationTicks": 320,
          "midi": 36,
          "name": "C2",
          "ticks": 40320,
          "time": 29.999927999999997,
          "velocity": 0.7401574803149606
        },
        {
          "duration": 0.23809466666666879,
          "durationTicks": 320,
          "midi": 36,
          "name": "C2",
          "ticks": 40800,
          "time": 30.357069999999997,
          "velocity": 0.7401574803149606
        },
        {
          "duration": 0.23809466666666879,
          "durationTicks": 320,
          "midi": 31,
          "name": "G1",
          "ticks": 41280,
          "time": 30.714211999999996,
          "velocity": 0.7401574803149606
        },
        {
          "duration": 0.23809466666666879,
          "durationTicks": 320,
          "midi": 31,
          "name": "G1",
          "ticks": 41760,
          "time": 31.071353999999996,
          "velocity": 0.7401574803149606
        },
        {
          "duration": 0.23809466666666879,
          "durationTicks": 320,
          "midi": 36,
          "name": "C2",
          "ticks": 42240,
          "time": 31.428495999999996,
          "velocity": 0.7401574803149606
        },
        {
          "duration": 0.23809466666667234,
          "durationTicks": 320,
          "midi": 36,
          "name": "C2",
          "ticks": 42720,
          "time": 31.785637999999995,
          "velocity": 0.7401574803149606
        },
        {
          "duration": 0.23809466666666879,
          "durationTicks": 320,
          "midi": 31,
          "name": "G1",
          "ticks": 43200,
          "time": 32.142779999999995,
          "velocity": 0.7401574803149606
        },
        {
          "duration": 0.23809466666666879,
          "durationTicks": 320,
          "midi": 31,
          "name": "G1",
          "ticks": 43680,
          "time": 32.499922,
          "velocity": 0.7401574803149606
        },
        {
          "duration": 0.23809466666666879,
          "durationTicks": 320,
          "midi": 36,
          "name": "C2",
          "ticks": 44160,
          "time": 32.857063999999994,
          "velocity": 0.7401574803149606
        },
        {
          "duration": 0.23809466666666879,
          "durationTicks": 320,
          "midi": 36,
          "name": "C2",
          "ticks": 44640,
          "time": 33.214206,
          "velocity": 0.7401574803149606
        },
        {
          "duration": 0.23809466666666879,
          "durationTicks": 320,
          "midi": 31,
          "name": "G1",
          "ticks": 45120,
          "time": 33.57134799999999,
          "velocity": 0.7401574803149606
        },
        {
          "duration": 0.23809466666666879,
          "durationTicks": 320,
          "midi": 31,
          "name": "G1",
          "ticks": 45600,
          "time": 33.92849,
          "velocity": 0.7401574803149606
        },
        {
          "duration": 0.23809466666666879,
          "durationTicks": 320,
          "midi": 41,
          "name": "F2",
          "ticks": 46080,
          "time": 34.28563199999999,
          "velocity": 0.7401574803149606
        },
        {
          "duration": 0.23809466666666879,
          "durationTicks": 320,
          "midi": 41,
          "name": "F2",
          "ticks": 46560,
          "time": 34.642773999999996,
          "velocity": 0.7401574803149606
        },
        {
          "duration": 0.23809466666666879,
          "durationTicks": 320,
          "midi": 36,
          "name": "C2",
          "ticks": 47040,
          "time": 34.999916,
          "velocity": 0.7401574803149606
        },
        {
          "duration": 0.23809466666666879,
          "durationTicks": 320,
          "midi": 36,
          "name": "C2",
          "ticks": 47520,
          "time": 35.357057999999995,
          "velocity": 0.7401574803149606
        },
        {
          "duration": 0.23809466666666879,
          "durationTicks": 320,
          "midi": 41,
          "name": "F2",
          "ticks": 48000,
          "time": 35.7142,
          "velocity": 0.7401574803149606
        },
        {
          "duration": 0.23809466666666879,
          "durationTicks": 320,
          "midi": 41,
          "name": "F2",
          "ticks": 48480,
          "time": 36.071341999999994,
          "velocity": 0.7401574803149606
        },
        {
          "duration": 0.23809466666666879,
          "durationTicks": 320,
          "midi": 36,
          "name": "C2",
          "ticks": 48960,
          "time": 36.428484,
          "velocity": 0.7401574803149606
        },
        {
          "duration": 0.23809466666666879,
          "durationTicks": 320,
          "midi": 36,
          "name": "C2",
          "ticks": 49440,
          "time": 36.78562599999999,
          "velocity": 0.7401574803149606
        },
        {
          "duration": 0.23809466666666879,
          "durationTicks": 320,
          "midi": 36,
          "name": "C2",
          "ticks": 49920,
          "time": 37.142768,
          "velocity": 0.7401574803149606
        },
        {
          "duration": 0.23809466666666879,
          "durationTicks": 320,
          "midi": 36,
          "name": "C2",
          "ticks": 50400,
          "time": 37.49990999999999,
          "velocity": 0.7401574803149606
        },
        {
          "duration": 0.23809466666666879,
          "durationTicks": 320,
          "midi": 31,
          "name": "G1",
          "ticks": 50880,
          "time": 37.857051999999996,
          "velocity": 0.7401574803149606
        },
        {
          "duration": 0.23809466666666168,
          "durationTicks": 320,
          "midi": 31,
          "name": "G1",
          "ticks": 51360,
          "time": 38.214194,
          "velocity": 0.7401574803149606
        },
        {
          "duration": 0.23809466666666879,
          "durationTicks": 320,
          "midi": 36,
          "name": "C2",
          "ticks": 51840,
          "time": 38.571335999999995,
          "velocity": 0.7401574803149606
        },
        {
          "duration": 0.23809466666666879,
          "durationTicks": 320,
          "midi": 36,
          "name": "C2",
          "ticks": 52320,
          "time": 38.928478,
          "velocity": 0.7401574803149606
        },
        {
          "duration": 0.23809466666666879,
          "durationTicks": 320,
          "midi": 31,
          "name": "G1",
          "ticks": 52800,
          "time": 39.285619999999994,
          "velocity": 0.7401574803149606
        },
        {
          "duration": 0.23809466666666879,
          "durationTicks": 320,
          "midi": 31,
          "name": "G1",
          "ticks": 53280,
          "time": 39.642762,
          "velocity": 0.7401574803149606
        },
        {
          "duration": 0.23809466666666879,
          "durationTicks": 320,
          "midi": 31,
          "name": "G1",
          "ticks": 53760,
          "time": 39.999903999999994,
          "velocity": 0.7401574803149606
        },
        {
          "duration": 0.23809466666666879,
          "durationTicks": 320,
          "midi": 31,
          "name": "G1",
          "ticks": 54240,
          "time": 40.357046,
          "velocity": 0.7401574803149606
        },
        {
          "duration": 0.23809466666666879,
          "durationTicks": 320,
          "midi": 38,
          "name": "D2",
          "ticks": 54720,
          "time": 40.71418799999999,
          "velocity": 0.7401574803149606
        },
        {
          "duration": 0.23809466666666879,
          "durationTicks": 320,
          "midi": 31,
          "name": "G1",
          "ticks": 55200,
          "time": 41.071329999999996,
          "velocity": 0.7401574803149606
        },
        {
          "duration": 0.23809466666666879,
          "durationTicks": 320,
          "midi": 29,
          "name": "F1",
          "ticks": 55680,
          "time": 41.42847199999999,
          "velocity": 0.7401574803149606
        },
        {
          "duration": 0.23809466666666879,
          "durationTicks": 320,
          "midi": 29,
          "name": "F1",
          "ticks": 57600,
          "time": 42.85704,
          "velocity": 0.7401574803149606
        },
        {
          "duration": 0.23809466666666879,
          "durationTicks": 320,
          "midi": 29,
          "name": "F1",
          "ticks": 58080,
          "time": 43.214181999999994,
          "velocity": 0.7401574803149606
        },
        {
          "duration": 0.23809466666666879,
          "durationTicks": 320,
          "midi": 29,
          "name": "F1",
          "ticks": 58560,
          "time": 43.571324,
          "velocity": 0.7401574803149606
        },
        {
          "duration": 0.23809466666666879,
          "durationTicks": 320,
          "midi": 29,
          "name": "F1",
          "ticks": 59040,
          "time": 43.92846599999999,
          "velocity": 0.7401574803149606
        },
        {
          "duration": 0.23809466666666879,
          "durationTicks": 320,
          "midi": 36,
          "name": "C2",
          "ticks": 59520,
          "time": 44.285607999999996,
          "velocity": 0.7401574803149606
        },
        {
          "duration": 0.23809466666666879,
          "durationTicks": 320,
          "midi": 36,
          "name": "C2",
          "ticks": 60000,
          "time": 44.64274999999999,
          "velocity": 0.7401574803149606
        },
        {
          "duration": 0.23809466666666879,
          "durationTicks": 320,
          "midi": 36,
          "name": "C2",
          "ticks": 60480,
          "time": 44.999891999999996,
          "velocity": 0.7401574803149606
        },
        {
          "duration": 0.23809466666666879,
          "durationTicks": 320,
          "midi": 36,
          "name": "C2",
          "ticks": 60960,
          "time": 45.35703399999999,
          "velocity": 0.7401574803149606
        },
        {
          "duration": 0.23809466666666168,
          "durationTicks": 320,
          "midi": 40,
          "name": "E2",
          "ticks": 61440,
          "time": 45.714175999999995,
          "velocity": 0.7401574803149606
        },
        {
          "duration": 0.23809466666666168,
          "durationTicks": 320,
          "midi": 40,
          "name": "E2",
          "ticks": 61920,
          "time": 46.071318,
          "velocity": 0.7401574803149606
        },
        {
          "duration": 0.23809466666666168,
          "durationTicks": 320,
          "midi": 40,
          "name": "E2",
          "ticks": 62400,
          "time": 46.428459999999994,
          "velocity": 0.7401574803149606
        },
        {
          "duration": 0.23809466666666168,
          "durationTicks": 320,
          "midi": 40,
          "name": "E2",
          "ticks": 62880,
          "time": 46.785602,
          "velocity": 0.7401574803149606
        },
        {
          "duration": 0.23809466666666168,
          "durationTicks": 320,
          "midi": 45,
          "name": "A2",
          "ticks": 63360,
          "time": 47.14274399999999,
          "velocity": 0.7401574803149606
        },
        {
          "duration": 0.23809466666666168,
          "durationTicks": 320,
          "midi": 45,
          "name": "A2",
          "ticks": 63840,
          "time": 47.499886,
          "velocity": 0.7401574803149606
        },
        {
          "duration": 0.23809466666666879,
          "durationTicks": 320,
          "midi": 45,
          "name": "A2",
          "ticks": 64320,
          "time": 47.85702799999999,
          "velocity": 0.7401574803149606
        },
        {
          "duration": 0.23809466666666168,
          "durationTicks": 320,
          "midi": 45,
          "name": "A2",
          "ticks": 64800,
          "time": 48.214169999999996,
          "velocity": 0.7401574803149606
        },
        {
          "duration": 0.23809466666666879,
          "durationTicks": 320,
          "midi": 36,
          "name": "C2",
          "ticks": 65280,
          "time": 48.57131199999999,
          "velocity": 0.7401574803149606
        },
        {
          "duration": 0.23809466666666168,
          "durationTicks": 320,
          "midi": 36,
          "name": "C2",
          "ticks": 65760,
          "time": 48.928453999999995,
          "velocity": 0.7401574803149606
        },
        {
          "duration": 0.23809466666666879,
          "durationTicks": 320,
          "midi": 31,
          "name": "G1",
          "ticks": 66240,
          "time": 49.28559599999999,
          "velocity": 0.7401574803149606
        },
        {
          "duration": 0.23809466666666168,
          "durationTicks": 320,
          "midi": 31,
          "name": "G1",
          "ticks": 66720,
          "time": 49.642737999999994,
          "velocity": 0.7401574803149606
        },
        {
          "duration": 0.22321374999999932,
          "durationTicks": 300,
          "midi": 36,
          "name": "C2",
          "ticks": 67200,
          "time": 49.99988,
          "velocity": 0.7401574803149606
        },
        {
          "duration": 0.22321374999999932,
          "durationTicks": 300,
          "midi": 36,
          "name": "C2",
          "ticks": 67680,
          "time": 50.35702199999999,
          "velocity": 0.7401574803149606
        },
        {
          "duration": 0.22321374999999932,
          "durationTicks": 300,
          "midi": 31,
          "name": "G1",
          "ticks": 68160,
          "time": 50.714164,
          "velocity": 0.7401574803149606
        },
        {
          "duration": 0.22321374999999932,
          "durationTicks": 300,
          "midi": 31,
          "name": "G1",
          "ticks": 68640,
          "time": 51.07130599999999,
          "velocity": 0.7401574803149606
        },
        {
          "duration": 0.22321374999999932,
          "durationTicks": 300,
          "midi": 40,
          "name": "E2",
          "ticks": 69120,
          "time": 51.428447999999996,
          "velocity": 0.7401574803149606
        },
        {
          "duration": 0.22321374999999932,
          "durationTicks": 300,
          "midi": 40,
          "name": "E2",
          "ticks": 69600,
          "time": 51.78558999999999,
          "velocity": 0.7401574803149606
        },
        {
          "duration": 0.22321374999999932,
          "durationTicks": 300,
          "midi": 40,
          "name": "E2",
          "ticks": 70080,
          "time": 52.142731999999995,
          "velocity": 0.7401574803149606
        },
        {
          "duration": 0.22321374999999932,
          "durationTicks": 300,
          "midi": 40,
          "name": "E2",
          "ticks": 70560,
          "time": 52.49987399999999,
          "velocity": 0.7401574803149606
        },
        {
          "duration": 0.22321374999999932,
          "durationTicks": 300,
          "midi": 45,
          "name": "A2",
          "ticks": 71040,
          "time": 52.857015999999994,
          "velocity": 0.7401574803149606
        },
        {
          "duration": 0.22321375000000643,
          "durationTicks": 300,
          "midi": 45,
          "name": "A2",
          "ticks": 71520,
          "time": 53.21415799999999,
          "velocity": 0.7401574803149606
        },
        {
          "duration": 0.22321374999999932,
          "durationTicks": 300,
          "midi": 45,
          "name": "A2",
          "ticks": 72000,
          "time": 53.571299999999994,
          "velocity": 0.7401574803149606
        },
        {
          "duration": 0.22321374999999932,
          "durationTicks": 300,
          "midi": 45,
          "name": "A2",
          "ticks": 72480,
          "time": 53.928442,
          "velocity": 0.7401574803149606
        },
        {
          "duration": 0.22321374999999932,
          "durationTicks": 300,
          "midi": 38,
          "name": "D2",
          "ticks": 72960,
          "time": 54.28558399999999,
          "velocity": 0.7401574803149606
        },
        {
          "duration": 0.22321374999999932,
          "durationTicks": 300,
          "midi": 38,
          "name": "D2",
          "ticks": 73440,
          "time": 54.642725999999996,
          "velocity": 0.7401574803149606
        },
        {
          "duration": 0.22321374999999932,
          "durationTicks": 300,
          "midi": 38,
          "name": "D2",
          "ticks": 73920,
          "time": 54.99986799999999,
          "velocity": 0.7401574803149606
        },
        {
          "duration": 0.22321374999999932,
          "durationTicks": 300,
          "midi": 38,
          "name": "D2",
          "ticks": 74400,
          "time": 55.357009999999995,
          "velocity": 0.7401574803149606
        },
        {
          "duration": 0.23809466666666879,
          "durationTicks": 320,
          "midi": 31,
          "name": "G1",
          "ticks": 74880,
          "time": 55.71415199999999,
          "velocity": 0.7401574803149606
        },
        {
          "duration": 0.23809466666666168,
          "durationTicks": 320,
          "midi": 31,
          "name": "G1",
          "ticks": 75360,
          "time": 56.071293999999995,
          "velocity": 0.7401574803149606
        },
        {
          "duration": 0.23809466666666879,
          "durationTicks": 320,
          "midi": 31,
          "name": "G1",
          "ticks": 75840,
          "time": 56.42843599999999,
          "velocity": 0.7401574803149606
        },
        {
          "duration": 0.23809466666666168,
          "durationTicks": 320,
          "midi": 31,
          "name": "G1",
          "ticks": 76320,
          "time": 56.785577999999994,
          "velocity": 0.7401574803149606
        },
        {
          "duration": 0.23809466666666168,
          "durationTicks": 320,
          "midi": 36,
          "name": "C2",
          "ticks": 76800,
          "time": 57.14272,
          "velocity": 0.7401574803149606
        },
        {
          "duration": 0.23809466666666168,
          "durationTicks": 320,
          "midi": 36,
          "name": "C2",
          "ticks": 77280,
          "time": 57.49986199999999,
          "velocity": 0.7401574803149606
        },
        {
          "duration": 0.23809466666666168,
          "durationTicks": 320,
          "midi": 31,
          "name": "G1",
          "ticks": 77760,
          "time": 57.857003999999996,
          "velocity": 0.7401574803149606
        },
        {
          "duration": 0.23809466666666168,
          "durationTicks": 320,
          "midi": 34,
          "name": "A#1",
          "ticks": 78240,
          "time": 58.21414599999999,
          "velocity": 0.7401574803149606
        },
        {
          "duration": 0.23809466666666168,
          "durationTicks": 320,
          "midi": 36,
          "name": "C2",
          "ticks": 78720,
          "time": 58.571287999999996,
          "velocity": 0.7401574803149606
        },
        {
          "duration": 0.23809466666666168,
          "durationTicks": 320,
          "midi": 36,
          "name": "C2",
          "ticks": 79200,
          "time": 58.92842999999999,
          "velocity": 0.7401574803149606
        },
        {
          "duration": 0.23809466666666168,
          "durationTicks": 320,
          "midi": 31,
          "name": "G1",
          "ticks": 79680,
          "time": 59.285571999999995,
          "velocity": 0.7401574803149606
        },
        {
          "duration": 0.23809466666666879,
          "durationTicks": 320,
          "midi": 34,
          "name": "A#1",
          "ticks": 80160,
          "time": 59.64271399999999,
          "velocity": 0.7401574803149606
        },
        {
          "duration": 0.23809466666666168,
          "durationTicks": 320,
          "midi": 36,
          "name": "C2",
          "ticks": 80640,
          "time": 59.999855999999994,
          "velocity": 0.7401574803149606
        },
        {
          "duration": 0.23809466666666879,
          "durationTicks": 320,
          "midi": 36,
          "name": "C2",
          "ticks": 81120,
          "time": 60.35699799999999,
          "velocity": 0.7401574803149606
        },
        {
          "duration": 0.23809466666666168,
          "durationTicks": 320,
          "midi": 31,
          "name": "G1",
          "ticks": 81600,
          "time": 60.71413999999999,
          "velocity": 0.7401574803149606
        },
        {
          "duration": 0.23809466666666168,
          "durationTicks": 320,
          "midi": 34,
          "name": "A#1",
          "ticks": 82080,
          "time": 61.071282,
          "velocity": 0.7401574803149606
        },
        {
          "duration": 0.23809466666666168,
          "durationTicks": 320,
          "midi": 36,
          "name": "C2",
          "ticks": 82560,
          "time": 61.42842399999999,
          "velocity": 0.7401574803149606
        },
        {
          "duration": 0.23809466666666168,
          "durationTicks": 320,
          "midi": 36,
          "name": "C2",
          "ticks": 83040,
          "time": 61.785565999999996,
          "velocity": 0.7401574803149606
        },
        {
          "duration": 0.23809466666666168,
          "durationTicks": 320,
          "midi": 31,
          "name": "G1",
          "ticks": 83520,
          "time": 62.14270799999999,
          "velocity": 0.7401574803149606
        },
        {
          "duration": 0.23809466666666168,
          "durationTicks": 320,
          "midi": 34,
          "name": "A#1",
          "ticks": 84000,
          "time": 62.499849999999995,
          "velocity": 0.7401574803149606
        },
        {
          "duration": 0.23809466666666168,
          "durationTicks": 320,
          "midi": 29,
          "name": "F1",
          "ticks": 84480,
          "time": 62.85699199999999,
          "velocity": 0.7401574803149606
        },
        {
          "duration": 0.23809466666666168,
          "durationTicks": 320,
          "midi": 29,
          "name": "F1",
          "ticks": 84960,
          "time": 63.214133999999994,
          "velocity": 0.7401574803149606
        },
        {
          "duration": 0.23809466666666879,
          "durationTicks": 320,
          "midi": 36,
          "name": "C2",
          "ticks": 85440,
          "time": 63.57127599999999,
          "velocity": 0.7401574803149606
        },
        {
          "duration": 0.23809466666666879,
          "durationTicks": 320,
          "midi": 36,
          "name": "C2",
          "ticks": 85920,
          "time": 63.92841799999999,
          "velocity": 0.7401574803149606
        },
        {
          "duration": 0.23809466666666879,
          "durationTicks": 320,
          "midi": 29,
          "name": "F1",
          "ticks": 86400,
          "time": 64.28555999999999,
          "velocity": 0.7401574803149606
        },
        {
          "duration": 0.23809466666666879,
          "durationTicks": 320,
          "midi": 29,
          "name": "F1",
          "ticks": 86880,
          "time": 64.64270199999999,
          "velocity": 0.7401574803149606
        },
        {
          "duration": 0.23809466666665458,
          "durationTicks": 320,
          "midi": 36,
          "name": "C2",
          "ticks": 87360,
          "time": 64.999844,
          "velocity": 0.7401574803149606
        },
        {
          "duration": 0.23809466666666879,
          "durationTicks": 320,
          "midi": 29,
          "name": "F1",
          "ticks": 87840,
          "time": 65.35698599999999,
          "velocity": 0.7401574803149606
        },
        {
          "duration": 0.23809466666666879,
          "durationTicks": 320,
          "midi": 36,
          "name": "C2",
          "ticks": 88320,
          "time": 65.71412799999999,
          "velocity": 0.7401574803149606
        },
        {
          "duration": 0.23809466666665458,
          "durationTicks": 320,
          "midi": 36,
          "name": "C2",
          "ticks": 88800,
          "time": 66.07127,
          "velocity": 0.7401574803149606
        },
        {
          "duration": 0.23809466666665458,
          "durationTicks": 320,
          "midi": 31,
          "name": "G1",
          "ticks": 89280,
          "time": 66.428412,
          "velocity": 0.7401574803149606
        },
        {
          "duration": 0.23809466666666879,
          "durationTicks": 320,
          "midi": 31,
          "name": "G1",
          "ticks": 89760,
          "time": 66.78555399999999,
          "velocity": 0.7401574803149606
        },
        {
          "duration": 0.23809466666666879,
          "durationTicks": 320,
          "midi": 36,
          "name": "C2",
          "ticks": 90240,
          "time": 67.14269599999999,
          "velocity": 0.7401574803149606
        },
        {
          "duration": 0.23809466666665458,
          "durationTicks": 320,
          "midi": 36,
          "name": "C2",
          "ticks": 90720,
          "time": 67.499838,
          "velocity": 0.7401574803149606
        },
        {
          "duration": 0.23809466666666879,
          "durationTicks": 320,
          "midi": 31,
          "name": "G1",
          "ticks": 91200,
          "time": 67.85698,
          "velocity": 0.7401574803149606
        },
        {
          "duration": 0.23809466666666879,
          "durationTicks": 320,
          "midi": 33,
          "name": "A1",
          "ticks": 91680,
          "time": 68.21412199999999,
          "velocity": 0.7401574803149606
        },
        {
          "duration": 0.23809466666666879,
          "durationTicks": 320,
          "midi": 31,
          "name": "G1",
          "ticks": 92160,
          "time": 68.57126399999999,
          "velocity": 0.7401574803149606
        },
        {
          "duration": 0.23809466666665458,
          "durationTicks": 320,
          "midi": 31,
          "name": "G1",
          "ticks": 92640,
          "time": 68.928406,
          "velocity": 0.7401574803149606
        },
        {
          "duration": 0.23809466666666879,
          "durationTicks": 320,
          "midi": 38,
          "name": "D2",
          "ticks": 93120,
          "time": 69.28554799999999,
          "velocity": 0.7401574803149606
        },
        {
          "duration": 0.23809466666666879,
          "durationTicks": 320,
          "midi": 31,
          "name": "G1",
          "ticks": 93600,
          "time": 69.64268999999999,
          "velocity": 0.7401574803149606
        },
        {
          "duration": 0.23809466666665458,
          "durationTicks": 320,
          "midi": 29,
          "name": "F1",
          "ticks": 94080,
          "time": 69.999832,
          "velocity": 0.7401574803149606
        },
        {
          "duration": 0.23809466666665458,
          "durationTicks": 320,
          "midi": 29,
          "name": "F1",
          "ticks": 96000,
          "time": 71.4284,
          "velocity": 0.7401574803149606
        },
        {
          "duration": 0.23809466666666879,
          "durationTicks": 320,
          "midi": 29,
          "name": "F1",
          "ticks": 96480,
          "time": 71.78554199999999,
          "velocity": 0.7401574803149606
        },
        {
          "duration": 0.23809466666666879,
          "durationTicks": 320,
          "midi": 29,
          "name": "F1",
          "ticks": 96960,
          "time": 72.14268399999999,
          "velocity": 0.7401574803149606
        },
        {
          "duration": 0.23809466666665458,
          "durationTicks": 320,
          "midi": 29,
          "name": "F1",
          "ticks": 97440,
          "time": 72.499826,
          "velocity": 0.7401574803149606
        },
        {
          "duration": 0.23809466666665458,
          "durationTicks": 320,
          "midi": 36,
          "name": "C2",
          "ticks": 97920,
          "time": 72.856968,
          "velocity": 0.7401574803149606
        },
        {
          "duration": 0.23809466666666879,
          "durationTicks": 320,
          "midi": 36,
          "name": "C2",
          "ticks": 98400,
          "time": 73.21410999999999,
          "velocity": 0.7401574803149606
        },
        {
          "duration": 0.23809466666666879,
          "durationTicks": 320,
          "midi": 31,
          "name": "G1",
          "ticks": 98880,
          "time": 73.57125199999999,
          "velocity": 0.7401574803149606
        },
        {
          "duration": 0.23809466666665458,
          "durationTicks": 320,
          "midi": 31,
          "name": "G1",
          "ticks": 99360,
          "time": 73.928394,
          "velocity": 0.7401574803149606
        },
        {
          "duration": 0.23809466666665458,
          "durationTicks": 320,
          "midi": 36,
          "name": "C2",
          "ticks": 99840,
          "time": 74.285536,
          "velocity": 0.7401574803149606
        },
        {
          "duration": 0.23809466666666879,
          "durationTicks": 320,
          "midi": 31,
          "name": "G1",
          "ticks": 100320,
          "time": 74.64267799999999,
          "velocity": 0.7401574803149606
        },
        {
          "duration": 0.23809466666666879,
          "durationTicks": 320,
          "midi": 31,
          "name": "G1",
          "ticks": 100800,
          "time": 74.99981999999999,
          "velocity": 0.7401574803149606
        },
        {
          "duration": 0.23809466666665458,
          "durationTicks": 320,
          "midi": 34,
          "name": "A#1",
          "ticks": 101280,
          "time": 75.356962,
          "velocity": 0.7401574803149606
        },
        {
          "duration": 0.23809466666666879,
          "durationTicks": 320,
          "midi": 36,
          "name": "C2",
          "ticks": 101760,
          "time": 75.71410399999999,
          "velocity": 0.7401574803149606
        },
        {
          "duration": 0.23809466666666879,
          "durationTicks": 320,
          "midi": 36,
          "name": "C2",
          "ticks": 102240,
          "time": 76.07124599999999,
          "velocity": 0.7401574803149606
        },
        {
          "duration": 0.23809466666665458,
          "durationTicks": 320,
          "midi": 31,
          "name": "G1",
          "ticks": 102720,
          "time": 76.428388,
          "velocity": 0.7401574803149606
        },
        {
          "duration": 0.23809466666665458,
          "durationTicks": 320,
          "midi": 31,
          "name": "G1",
          "ticks": 103200,
          "time": 76.78553,
          "velocity": 0.7401574803149606
        },
        {
          "duration": 0.23809466666666879,
          "durationTicks": 320,
          "midi": 36,
          "name": "C2",
          "ticks": 103680,
          "time": 77.14267199999999,
          "velocity": 0.7401574803149606
        },
        {
          "duration": 0.23809466666666879,
          "durationTicks": 320,
          "midi": 36,
          "name": "C2",
          "ticks": 104160,
          "time": 77.49981399999999,
          "velocity": 0.7401574803149606
        },
        {
          "duration": 0.23809466666665458,
          "durationTicks": 320,
          "midi": 31,
          "name": "G1",
          "ticks": 104640,
          "time": 77.856956,
          "velocity": 0.7401574803149606
        },
        {
          "duration": 0.23809466666665458,
          "durationTicks": 320,
          "midi": 31,
          "name": "G1",
          "ticks": 105120,
          "time": 78.21409799999999,
          "velocity": 0.7401574803149606
        },
        {
          "duration": 0.23809466666666879,
          "durationTicks": 320,
          "midi": 36,
          "name": "C2",
          "ticks": 105600,
          "time": 78.57123999999999,
          "velocity": 0.7401574803149606
        },
        {
          "duration": 0.23809466666666879,
          "durationTicks": 320,
          "midi": 36,
          "name": "C2",
          "ticks": 106080,
          "time": 78.92838199999998,
          "velocity": 0.7401574803149606
        },
        {
          "duration": 0.23809466666665458,
          "durationTicks": 320,
          "midi": 31,
          "name": "G1",
          "ticks": 106560,
          "time": 79.285524,
          "velocity": 0.7401574803149606
        },
        {
          "duration": 0.23809466666666879,
          "durationTicks": 320,
          "midi": 31,
          "name": "G1",
          "ticks": 107040,
          "time": 79.64266599999999,
          "velocity": 0.7401574803149606
        },
        {
          "duration": 0.23809466666666879,
          "durationTicks": 320,
          "midi": 36,
          "name": "C2",
          "ticks": 107520,
          "time": 79.99980799999999,
          "velocity": 0.7401574803149606
        },
        {
          "duration": 0.23809466666665458,
          "durationTicks": 320,
          "midi": 36,
          "name": "C2",
          "ticks": 108000,
          "time": 80.35695,
          "velocity": 0.7401574803149606
        },
        {
          "duration": 0.23809466666665458,
          "durationTicks": 320,
          "midi": 31,
          "name": "G1",
          "ticks": 108480,
          "time": 80.714092,
          "velocity": 0.7401574803149606
        },
        {
          "duration": 0.23809466666666879,
          "durationTicks": 320,
          "midi": 31,
          "name": "G1",
          "ticks": 108960,
          "time": 81.07123399999999,
          "velocity": 0.7401574803149606
        },
        {
          "duration": 0.23809466666666879,
          "durationTicks": 320,
          "midi": 41,
          "name": "F2",
          "ticks": 109440,
          "time": 81.42837599999999,
          "velocity": 0.7401574803149606
        },
        {
          "duration": 0.23809466666665458,
          "durationTicks": 320,
          "midi": 41,
          "name": "F2",
          "ticks": 109920,
          "time": 81.785518,
          "velocity": 0.7401574803149606
        },
        {
          "duration": 0.23809466666666879,
          "durationTicks": 320,
          "midi": 36,
          "name": "C2",
          "ticks": 110400,
          "time": 82.14265999999999,
          "velocity": 0.7401574803149606
        },
        {
          "duration": 0.23809466666666879,
          "durationTicks": 320,
          "midi": 36,
          "name": "C2",
          "ticks": 110880,
          "time": 82.49980199999999,
          "velocity": 0.7401574803149606
        },
        {
          "duration": 0.23809466666666879,
          "durationTicks": 320,
          "midi": 41,
          "name": "F2",
          "ticks": 111360,
          "time": 82.85694399999998,
          "velocity": 0.7401574803149606
        },
        {
          "duration": 0.23809466666665458,
          "durationTicks": 320,
          "midi": 41,
          "name": "F2",
          "ticks": 111840,
          "time": 83.214086,
          "velocity": 0.7401574803149606
        },
        {
          "duration": 0.23809466666666879,
          "durationTicks": 320,
          "midi": 36,
          "name": "C2",
          "ticks": 112320,
          "time": 83.57122799999999,
          "velocity": 0.7401574803149606
        },
        {
          "duration": 0.23809466666666879,
          "durationTicks": 320,
          "midi": 36,
          "name": "C2",
          "ticks": 112800,
          "time": 83.92836999999999,
          "velocity": 0.7401574803149606
        },
        {
          "duration": 0.23809466666665458,
          "durationTicks": 320,
          "midi": 36,
          "name": "C2",
          "ticks": 113280,
          "time": 84.285512,
          "velocity": 0.7401574803149606
        },
        {
          "duration": 0.23809466666665458,
          "durationTicks": 320,
          "midi": 36,
          "name": "C2",
          "ticks": 113760,
          "time": 84.642654,
          "velocity": 0.7401574803149606
        },
        {
          "duration": 0.23809466666666879,
          "durationTicks": 320,
          "midi": 31,
          "name": "G1",
          "ticks": 114240,
          "time": 84.99979599999999,
          "velocity": 0.7401574803149606
        },
        {
          "duration": 0.23809466666666879,
          "durationTicks": 320,
          "midi": 31,
          "name": "G1",
          "ticks": 114720,
          "time": 85.35693799999999,
          "velocity": 0.7401574803149606
        },
        {
          "duration": 0.23809466666665458,
          "durationTicks": 320,
          "midi": 36,
          "name": "C2",
          "ticks": 115200,
          "time": 85.71408,
          "velocity": 0.7401574803149606
        },
        {
          "duration": 0.23809466666666879,
          "durationTicks": 320,
          "midi": 36,
          "name": "C2",
          "ticks": 115680,
          "time": 86.07122199999999,
          "velocity": 0.7401574803149606
        },
        {
          "duration": 0.23809466666666879,
          "durationTicks": 320,
          "midi": 31,
          "name": "G1",
          "ticks": 116160,
          "time": 86.42836399999999,
          "velocity": 0.7401574803149606
        },
        {
          "duration": 0.23809466666666879,
          "durationTicks": 320,
          "midi": 31,
          "name": "G1",
          "ticks": 116640,
          "time": 86.78550599999998,
          "velocity": 0.7401574803149606
        },
        {
          "duration": 0.23809466666665458,
          "durationTicks": 320,
          "midi": 31,
          "name": "G1",
          "ticks": 117120,
          "time": 87.142648,
          "velocity": 0.7401574803149606
        },
        {
          "duration": 0.23809466666666879,
          "durationTicks": 320,
          "midi": 31,
          "name": "G1",
          "ticks": 117600,
          "time": 87.49978999999999,
          "velocity": 0.7401574803149606
        },
        {
          "duration": 0.23809466666666879,
          "durationTicks": 320,
          "midi": 38,
          "name": "D2",
          "ticks": 118080,
          "time": 87.85693199999999,
          "velocity": 0.7401574803149606
        },
        {
          "duration": 0.23809466666665458,
          "durationTicks": 320,
          "midi": 31,
          "name": "G1",
          "ticks": 118560,
          "time": 88.214074,
          "velocity": 0.7401574803149606
        },
        {
          "duration": 0.23809466666665458,
          "durationTicks": 320,
          "midi": 29,
          "name": "F1",
          "ticks": 119040,
          "time": 88.57121599999999,
          "velocity": 0.7401574803149606
        },
        {
          "duration": 0.23809466666666879,
          "durationTicks": 320,
          "midi": 29,
          "name": "F1",
          "ticks": 120960,
          "time": 89.99978399999999,
          "velocity": 0.7401574803149606
        },
        {
          "duration": 0.23809466666666879,
          "durationTicks": 320,
          "midi": 29,
          "name": "F1",
          "ticks": 121440,
          "time": 90.35692599999999,
          "velocity": 0.7401574803149606
        },
        {
          "duration": 0.23809466666666879,
          "durationTicks": 320,
          "midi": 29,
          "name": "F1",
          "ticks": 121920,
          "time": 90.71406799999998,
          "velocity": 0.7401574803149606
        },
        {
          "duration": 0.23809466666665458,
          "durationTicks": 320,
          "midi": 29,
          "name": "F1",
          "ticks": 122400,
          "time": 91.07121,
          "velocity": 0.7401574803149606
        },
        {
          "duration": 0.23809466666666879,
          "durationTicks": 320,
          "midi": 36,
          "name": "C2",
          "ticks": 122880,
          "time": 91.42835199999999,
          "velocity": 0.7401574803149606
        },
        {
          "duration": 0.238094666666683,
          "durationTicks": 320,
          "midi": 36,
          "name": "C2",
          "ticks": 123360,
          "time": 91.78549399999999,
          "velocity": 0.7401574803149606
        },
        {
          "duration": 0.23809466666666879,
          "durationTicks": 320,
          "midi": 36,
          "name": "C2",
          "ticks": 123840,
          "time": 92.142636,
          "velocity": 0.7401574803149606
        },
        {
          "duration": 0.23809466666666879,
          "durationTicks": 320,
          "midi": 36,
          "name": "C2",
          "ticks": 124320,
          "time": 92.49977799999999,
          "velocity": 0.7401574803149606
        },
        {
          "duration": 0.23809466666666879,
          "durationTicks": 320,
          "midi": 40,
          "name": "E2",
          "ticks": 124800,
          "time": 92.85691999999999,
          "velocity": 0.7401574803149606
        },
        {
          "duration": 0.238094666666683,
          "durationTicks": 320,
          "midi": 40,
          "name": "E2",
          "ticks": 125280,
          "time": 93.21406199999998,
          "velocity": 0.7401574803149606
        },
        {
          "duration": 0.23809466666666879,
          "durationTicks": 320,
          "midi": 40,
          "name": "E2",
          "ticks": 125760,
          "time": 93.571204,
          "velocity": 0.7401574803149606
        },
        {
          "duration": 0.23809466666666879,
          "durationTicks": 320,
          "midi": 40,
          "name": "E2",
          "ticks": 126240,
          "time": 93.92834599999999,
          "velocity": 0.7401574803149606
        },
        {
          "duration": 0.238094666666683,
          "durationTicks": 320,
          "midi": 45,
          "name": "A2",
          "ticks": 126720,
          "time": 94.28548799999999,
          "velocity": 0.7401574803149606
        },
        {
          "duration": 0.238094666666683,
          "durationTicks": 320,
          "midi": 45,
          "name": "A2",
          "ticks": 127200,
          "time": 94.64262999999998,
          "velocity": 0.7401574803149606
        },
        {
          "duration": 0.23809466666666879,
          "durationTicks": 320,
          "midi": 45,
          "name": "A2",
          "ticks": 127680,
          "time": 94.999772,
          "velocity": 0.7401574803149606
        },
        {
          "duration": 0.23809466666666879,
          "durationTicks": 320,
          "midi": 45,
          "name": "A2",
          "ticks": 128160,
          "time": 95.35691399999999,
          "velocity": 0.7401574803149606
        },
        {
          "duration": 0.238094666666683,
          "durationTicks": 320,
          "midi": 36,
          "name": "C2",
          "ticks": 128640,
          "time": 95.71405599999999,
          "velocity": 0.7401574803149606
        },
        {
          "duration": 0.23809466666666879,
          "durationTicks": 320,
          "midi": 36,
          "name": "C2",
          "ticks": 129120,
          "time": 96.071198,
          "velocity": 0.7401574803149606
        },
        {
          "duration": 0.23809466666666879,
          "durationTicks": 320,
          "midi": 31,
          "name": "G1",
          "ticks": 129600,
          "time": 96.42833999999999,
          "velocity": 0.7401574803149606
        },
        {
          "duration": 0.23809466666666879,
          "durationTicks": 320,
          "midi": 31,
          "name": "G1",
          "ticks": 130080,
          "time": 96.78548199999999,
          "velocity": 0.7401574803149606
        },
        {
          "duration": 0.22321374999999932,
          "durationTicks": 300,
          "midi": 36,
          "name": "C2",
          "ticks": 130560,
          "time": 97.14262399999998,
          "velocity": 0.7401574803149606
        },
        {
          "duration": 0.22321374999999932,
          "durationTicks": 300,
          "midi": 36,
          "name": "C2",
          "ticks": 131040,
          "time": 97.499766,
          "velocity": 0.7401574803149606
        },
        {
          "duration": 0.22321374999999932,
          "durationTicks": 300,
          "midi": 31,
          "name": "G1",
          "ticks": 131520,
          "time": 97.85690799999999,
          "velocity": 0.7401574803149606
        },
        {
          "duration": 0.22321374999999932,
          "durationTicks": 300,
          "midi": 31,
          "name": "G1",
          "ticks": 132000,
          "time": 98.21404999999999,
          "velocity": 0.7401574803149606
        },
        {
          "duration": 0.22321375000001353,
          "durationTicks": 300,
          "midi": 40,
          "name": "E2",
          "ticks": 132480,
          "time": 98.57119199999998,
          "velocity": 0.7401574803149606
        },
        {
          "duration": 0.22321374999999932,
          "durationTicks": 300,
          "midi": 40,
          "name": "E2",
          "ticks": 132960,
          "time": 98.92833399999999,
          "velocity": 0.7401574803149606
        },
        {
          "duration": 0.22321374999999932,
          "durationTicks": 300,
          "midi": 40,
          "name": "E2",
          "ticks": 133440,
          "time": 99.28547599999999,
          "velocity": 0.7401574803149606
        },
        {
          "duration": 0.22321374999999932,
          "durationTicks": 300,
          "midi": 40,
          "name": "E2",
          "ticks": 133920,
          "time": 99.64261799999998,
          "velocity": 0.7401574803149606
        },
        {
          "duration": 0.22321374999999932,
          "durationTicks": 300,
          "midi": 45,
          "name": "A2",
          "ticks": 134400,
          "time": 99.99976,
          "velocity": 0.7401574803149606
        },
        {
          "duration": 0.22321374999999932,
          "durationTicks": 300,
          "midi": 45,
          "name": "A2",
          "ticks": 134880,
          "time": 100.35690199999999,
          "velocity": 0.7401574803149606
        },
        {
          "duration": 0.22321374999999932,
          "durationTicks": 300,
          "midi": 45,
          "name": "A2",
          "ticks": 135360,
          "time": 100.71404399999999,
          "velocity": 0.7401574803149606
        },
        {
          "duration": 0.22321374999999932,
          "durationTicks": 300,
          "midi": 45,
          "name": "A2",
          "ticks": 135840,
          "time": 101.07118599999998,
          "velocity": 0.7401574803149606
        },
        {
          "duration": 0.22321374999999932,
          "durationTicks": 300,
          "midi": 38,
          "name": "D2",
          "ticks": 136320,
          "time": 101.428328,
          "velocity": 0.7401574803149606
        },
        {
          "duration": 0.22321374999999932,
          "durationTicks": 300,
          "midi": 38,
          "name": "D2",
          "ticks": 136800,
          "time": 101.78546999999999,
          "velocity": 0.7401574803149606
        },
        {
          "duration": 0.22321374999999932,
          "durationTicks": 300,
          "midi": 38,
          "name": "D2",
          "ticks": 137280,
          "time": 102.14261199999999,
          "velocity": 0.7401574803149606
        },
        {
          "duration": 0.22321375000001353,
          "durationTicks": 300,
          "midi": 38,
          "name": "D2",
          "ticks": 137760,
          "time": 102.49975399999998,
          "velocity": 0.7401574803149606
        },
        {
          "duration": 0.23809466666666879,
          "durationTicks": 320,
          "midi": 31,
          "name": "G1",
          "ticks": 138240,
          "time": 102.85689599999999,
          "velocity": 0.7401574803149606
        },
        {
          "duration": 0.23809466666666879,
          "durationTicks": 320,
          "midi": 31,
          "name": "G1",
          "ticks": 138720,
          "time": 103.21403799999999,
          "velocity": 0.7401574803149606
        },
        {
          "duration": 0.238094666666683,
          "durationTicks": 320,
          "midi": 31,
          "name": "G1",
          "ticks": 139200,
          "time": 103.57117999999998,
          "velocity": 0.7401574803149606
        },
        {
          "duration": 0.23809466666666879,
          "durationTicks": 320,
          "midi": 31,
          "name": "G1",
          "ticks": 139680,
          "time": 103.928322,
          "velocity": 0.7401574803149606
        },
        {
          "duration": 0.23809466666666879,
          "durationTicks": 320,
          "midi": 36,
          "name": "C2",
          "ticks": 140160,
          "time": 104.28546399999999,
          "velocity": 0.7401574803149606
        },
        {
          "duration": 0.23809466666666879,
          "durationTicks": 320,
          "midi": 36,
          "name": "C2",
          "ticks": 140640,
          "time": 104.64260599999999,
          "velocity": 0.7401574803149606
        },
        {
          "duration": 0.238094666666683,
          "durationTicks": 320,
          "midi": 31,
          "name": "G1",
          "ticks": 141120,
          "time": 104.99974799999998,
          "velocity": 0.7401574803149606
        },
        {
          "duration": 0.23809466666666879,
          "durationTicks": 320,
          "midi": 34,
          "name": "A#1",
          "ticks": 141600,
          "time": 105.35688999999999,
          "velocity": 0.7401574803149606
        },
        {
          "duration": 0.23809466666666879,
          "durationTicks": 320,
          "midi": 36,
          "name": "C2",
          "ticks": 142080,
          "time": 105.71403199999999,
          "velocity": 0.7401574803149606
        },
        {
          "duration": 0.238094666666683,
          "durationTicks": 320,
          "midi": 36,
          "name": "C2",
          "ticks": 142560,
          "time": 106.07117399999998,
          "velocity": 0.7401574803149606
        },
        {
          "duration": 0.238094666666683,
          "durationTicks": 320,
          "midi": 31,
          "name": "G1",
          "ticks": 143040,
          "time": 106.42831599999998,
          "velocity": 0.7401574803149606
        },
        {
          "duration": 0.23809466666666879,
          "durationTicks": 320,
          "midi": 34,
          "name": "A#1",
          "ticks": 143520,
          "time": 106.78545799999999,
          "velocity": 0.7401574803149606
        },
        {
          "duration": 0.23809466666666879,
          "durationTicks": 320,
          "midi": 36,
          "name": "C2",
          "ticks": 144000,
          "time": 107.14259999999999,
          "velocity": 0.7401574803149606
        },
        {
          "duration": 0.238094666666683,
          "durationTicks": 320,
          "midi": 36,
          "name": "C2",
          "ticks": 144480,
          "time": 107.49974199999998,
          "velocity": 0.7401574803149606
        },
        {
          "duration": 0.23809466666666879,
          "durationTicks": 320,
          "midi": 31,
          "name": "G1",
          "ticks": 144960,
          "time": 107.856884,
          "velocity": 0.7401574803149606
        },
        {
          "duration": 0.23809466666666879,
          "durationTicks": 320,
          "midi": 34,
          "name": "A#1",
          "ticks": 145440,
          "time": 108.21402599999999,
          "velocity": 0.7401574803149606
        },
        {
          "duration": 0.23809466666666879,
          "durationTicks": 320,
          "midi": 36,
          "name": "C2",
          "ticks": 145920,
          "time": 108.57116799999999,
          "velocity": 0.7401574803149606
        },
        {
          "duration": 0.238094666666683,
          "durationTicks": 320,
          "midi": 36,
          "name": "C2",
          "ticks": 146400,
          "time": 108.92830999999998,
          "velocity": 0.7401574803149606
        },
        {
          "duration": 0.23809466666666879,
          "durationTicks": 320,
          "midi": 31,
          "name": "G1",
          "ticks": 146880,
          "time": 109.28545199999999,
          "velocity": 0.7401574803149606
        },
        {
          "duration": 0.23809466666666879,
          "durationTicks": 320,
          "midi": 34,
          "name": "A#1",
          "ticks": 147360,
          "time": 109.64259399999999,
          "velocity": 0.7401574803149606
        },
        {
          "duration": 0.238094666666683,
          "durationTicks": 320,
          "midi": 29,
          "name": "F1",
          "ticks": 147840,
          "time": 109.99973599999998,
          "velocity": 0.7401574803149606
        },
        {
          "duration": 0.238094666666683,
          "durationTicks": 320,
          "midi": 29,
          "name": "F1",
          "ticks": 148320,
          "time": 110.35687799999998,
          "velocity": 0.7401574803149606
        },
        {
          "duration": 0.23809466666666879,
          "durationTicks": 320,
          "midi": 36,
          "name": "C2",
          "ticks": 148800,
          "time": 110.71401999999999,
          "velocity": 0.7401574803149606
        },
        {
          "duration": 0.23809466666666879,
          "durationTicks": 320,
          "midi": 36,
          "name": "C2",
          "ticks": 149280,
          "time": 111.07116199999999,
          "velocity": 0.7401574803149606
        },
        {
          "duration": 0.238094666666683,
          "durationTicks": 320,
          "midi": 29,
          "name": "F1",
          "ticks": 149760,
          "time": 111.42830399999998,
          "velocity": 0.7401574803149606
        },
        {
          "duration": 0.23809466666666879,
          "durationTicks": 320,
          "midi": 29,
          "name": "F1",
          "ticks": 150240,
          "time": 111.785446,
          "velocity": 0.7401574803149606
        },
        {
          "duration": 0.23809466666666879,
          "durationTicks": 320,
          "midi": 36,
          "name": "C2",
          "ticks": 150720,
          "time": 112.14258799999999,
          "velocity": 0.7401574803149606
        },
        {
          "duration": 0.23809466666666879,
          "durationTicks": 320,
          "midi": 29,
          "name": "F1",
          "ticks": 151200,
          "time": 112.49972999999999,
          "velocity": 0.7401574803149606
        },
        {
          "duration": 0.238094666666683,
          "durationTicks": 320,
          "midi": 36,
          "name": "C2",
          "ticks": 151680,
          "time": 112.85687199999998,
          "velocity": 0.7401574803149606
        },
        {
          "duration": 0.23809466666666879,
          "durationTicks": 320,
          "midi": 36,
          "name": "C2",
          "ticks": 152160,
          "time": 113.21401399999999,
          "velocity": 0.7401574803149606
        },
        {
          "duration": 0.23809466666666879,
          "durationTicks": 320,
          "midi": 31,
          "name": "G1",
          "ticks": 152640,
          "time": 113.57115599999999,
          "velocity": 0.7401574803149606
        },
        {
          "duration": 0.238094666666683,
          "durationTicks": 320,
          "midi": 31,
          "name": "G1",
          "ticks": 153120,
          "time": 113.92829799999998,
          "velocity": 0.7401574803149606
        },
        {
          "duration": 0.23809466666666879,
          "durationTicks": 320,
          "midi": 36,
          "name": "C2",
          "ticks": 153600,
          "time": 114.28544,
          "velocity": 0.7401574803149606
        },
        {
          "duration": 0.23809466666666879,
          "durationTicks": 320,
          "midi": 36,
          "name": "C2",
          "ticks": 154080,
          "time": 114.64258199999999,
          "velocity": 0.7401574803149606
        },
        {
          "duration": 0.23809466666666879,
          "durationTicks": 320,
          "midi": 31,
          "name": "G1",
          "ticks": 154560,
          "time": 114.99972399999999,
          "velocity": 0.7401574803149606
        },
        {
          "duration": 0.238094666666683,
          "durationTicks": 320,
          "midi": 33,
          "name": "A1",
          "ticks": 155040,
          "time": 115.35686599999998,
          "velocity": 0.7401574803149606
        },
        {
          "duration": 0.23809466666666879,
          "durationTicks": 320,
          "midi": 31,
          "name": "G1",
          "ticks": 155520,
          "time": 115.71400799999999,
          "velocity": 0.7401574803149606
        },
        {
          "duration": 0.23809466666666879,
          "durationTicks": 320,
          "midi": 31,
          "name": "G1",
          "ticks": 156000,
          "time": 116.07114999999999,
          "velocity": 0.7401574803149606
        },
        {
          "duration": 0.23809466666666879,
          "durationTicks": 320,
          "midi": 38,
          "name": "D2",
          "ticks": 156480,
          "time": 116.42829199999998,
          "velocity": 0.7401574803149606
        },
        {
          "duration": 0.238094666666683,
          "durationTicks": 320,
          "midi": 31,
          "name": "G1",
          "ticks": 156960,
          "time": 116.78543399999998,
          "velocity": 0.7401574803149606
        },
        {
          "duration": 0.23809466666666879,
          "durationTicks": 320,
          "midi": 29,
          "name": "F1",
          "ticks": 157440,
          "time": 117.14257599999999,
          "velocity": 0.7401574803149606
        },
        {
          "duration": 0.23809466666666879,
          "durationTicks": 320,
          "midi": 41,
          "name": "F2",
          "ticks": 159360,
          "time": 118.57114399999999,
          "velocity": 0.7401574803149606
        },
        {
          "duration": 0.23809466666666879,
          "durationTicks": 320,
          "midi": 41,
          "name": "F2",
          "ticks": 159840,
          "time": 118.92828599999999,
          "velocity": 0.7401574803149606
        },
        {
          "duration": 0.238094666666683,
          "durationTicks": 320,
          "midi": 36,
          "name": "C2",
          "ticks": 160320,
          "time": 119.28542799999998,
          "velocity": 0.7401574803149606
        },
        {
          "duration": 0.23809466666666879,
          "durationTicks": 320,
          "midi": 41,
          "name": "F2",
          "ticks": 160800,
          "time": 119.64256999999999,
          "velocity": 0.7401574803149606
        },
        {
          "duration": 0.23809466666666879,
          "durationTicks": 320,
          "midi": 36,
          "name": "C2",
          "ticks": 161280,
          "time": 119.99971199999999,
          "velocity": 0.7401574803149606
        },
        {
          "duration": 0.23809466666666879,
          "durationTicks": 320,
          "midi": 36,
          "name": "C2",
          "ticks": 161760,
          "time": 120.35685399999998,
          "velocity": 0.7401574803149606
        },
        {
          "duration": 0.238094666666683,
          "durationTicks": 320,
          "midi": 31,
          "name": "G1",
          "ticks": 162240,
          "time": 120.71399599999998,
          "velocity": 0.7401574803149606
        },
        {
          "duration": 0.23809466666666879,
          "durationTicks": 320,
          "midi": 36,
          "name": "C2",
          "ticks": 162720,
          "time": 121.07113799999999,
          "velocity": 0.7401574803149606
        },
        {
          "duration": 0.23809466666666879,
          "durationTicks": 320,
          "midi": 40,
          "name": "E2",
          "ticks": 163200,
          "time": 121.42827999999999,
          "velocity": 0.7401574803149606
        },
        {
          "duration": 0.238094666666683,
          "durationTicks": 320,
          "midi": 40,
          "name": "E2",
          "ticks": 163680,
          "time": 121.78542199999998,
          "velocity": 0.7401574803149606
        },
        {
          "duration": 0.23809466666666879,
          "durationTicks": 320,
          "midi": 40,
          "name": "E2",
          "ticks": 164160,
          "time": 122.142564,
          "velocity": 0.7401574803149606
        },
        {
          "duration": 0.23809466666666879,
          "durationTicks": 320,
          "midi": 40,
          "name": "E2",
          "ticks": 164640,
          "time": 122.49970599999999,
          "velocity": 0.7401574803149606
        },
        {
          "duration": 0.23809466666666879,
          "durationTicks": 320,
          "midi": 45,
          "name": "A2",
          "ticks": 165120,
          "time": 122.85684799999999,
          "velocity": 0.7401574803149606
        },
        {
          "duration": 0.238094666666683,
          "durationTicks": 320,
          "midi": 45,
          "name": "A2",
          "ticks": 165600,
          "time": 123.21398999999998,
          "velocity": 0.7401574803149606
        },
        {
          "duration": 0.23809466666666879,
          "durationTicks": 320,
          "midi": 45,
          "name": "A2",
          "ticks": 166080,
          "time": 123.57113199999999,
          "velocity": 0.7401574803149606
        },
        {
          "duration": 0.23809466666666879,
          "durationTicks": 320,
          "midi": 45,
          "name": "A2",
          "ticks": 166560,
          "time": 123.92827399999999,
          "velocity": 0.7401574803149606
        },
        {
          "duration": 0.23809466666666879,
          "durationTicks": 320,
          "midi": 40,
          "name": "E2",
          "ticks": 167040,
          "time": 124.28541599999998,
          "velocity": 0.7401574803149606
        },
        {
          "duration": 0.238094666666683,
          "durationTicks": 320,
          "midi": 40,
          "name": "E2",
          "ticks": 167520,
          "time": 124.64255799999998,
          "velocity": 0.7401574803149606
        },
        {
          "duration": 0.23809466666666879,
          "durationTicks": 320,
          "midi": 40,
          "name": "E2",
          "ticks": 168000,
          "time": 124.99969999999999,
          "velocity": 0.7401574803149606
        },
        {
          "duration": 0.23809466666666879,
          "durationTicks": 320,
          "midi": 40,
          "name": "E2",
          "ticks": 168480,
          "time": 125.35684199999999,
          "velocity": 0.7401574803149606
        },
        {
          "duration": 0.238094666666683,
          "durationTicks": 320,
          "midi": 45,
          "name": "A2",
          "ticks": 168960,
          "time": 125.71398399999998,
          "velocity": 0.7401574803149606
        },
        {
          "duration": 0.23809466666666879,
          "durationTicks": 320,
          "midi": 45,
          "name": "A2",
          "ticks": 169440,
          "time": 126.07112599999999,
          "velocity": 0.7401574803149606
        },
        {
          "duration": 0.23809466666666879,
          "durationTicks": 320,
          "midi": 45,
          "name": "A2",
          "ticks": 169920,
          "time": 126.42826799999999,
          "velocity": 0.7401574803149606
        },
        {
          "duration": 0.23809466666666879,
          "durationTicks": 320,
          "midi": 45,
          "name": "A2",
          "ticks": 170400,
          "time": 126.78540999999998,
          "velocity": 0.7401574803149606
        },
        {
          "duration": 0.238094666666683,
          "durationTicks": 320,
          "midi": 38,
          "name": "D2",
          "ticks": 170880,
          "time": 127.14255199999998,
          "velocity": 0.7401574803149606
        },
        {
          "duration": 0.23809466666666879,
          "durationTicks": 320,
          "midi": 38,
          "name": "D2",
          "ticks": 171360,
          "time": 127.49969399999999,
          "velocity": 0.7401574803149606
        },
        {
          "duration": 0.238094666666683,
          "durationTicks": 320,
          "midi": 38,
          "name": "D2",
          "ticks": 171840,
          "time": 127.85683599999999,
          "velocity": 0.7401574803149606
        },
        {
          "duration": 0.23809466666665458,
          "durationTicks": 320,
          "midi": 38,
          "name": "D2",
          "ticks": 172320,
          "time": 128.213978,
          "velocity": 0.7401574803149606
        },
        {
          "duration": 0.238094666666683,
          "durationTicks": 320,
          "midi": 31,
          "name": "G1",
          "ticks": 172800,
          "time": 128.57111999999998,
          "velocity": 0.7401574803149606
        },
        {
          "duration": 0.238094666666683,
          "durationTicks": 320,
          "midi": 31,
          "name": "G1",
          "ticks": 173280,
          "time": 128.928262,
          "velocity": 0.7401574803149606
        },
        {
          "duration": 0.238094666666683,
          "durationTicks": 320,
          "midi": 31,
          "name": "G1",
          "ticks": 173760,
          "time": 129.28540399999997,
          "velocity": 0.7401574803149606
        },
        {
          "duration": 0.238094666666683,
          "durationTicks": 320,
          "midi": 31,
          "name": "G1",
          "ticks": 174240,
          "time": 129.64254599999998,
          "velocity": 0.7401574803149606
        },
        {
          "duration": 0.23809466666665458,
          "durationTicks": 320,
          "midi": 36,
          "name": "C2",
          "ticks": 174720,
          "time": 129.999688,
          "velocity": 0.7401574803149606
        },
        {
          "duration": 0.238094666666683,
          "durationTicks": 320,
          "midi": 36,
          "name": "C2",
          "ticks": 175200,
          "time": 130.35682999999997,
          "velocity": 0.7401574803149606
        },
        {
          "duration": 0.238094666666683,
          "durationTicks": 320,
          "midi": 31,
          "name": "G1",
          "ticks": 175680,
          "time": 130.71397199999998,
          "velocity": 0.7401574803149606
        },
        {
          "duration": 0.23809466666665458,
          "durationTicks": 320,
          "midi": 31,
          "name": "G1",
          "ticks": 176160,
          "time": 131.071114,
          "velocity": 0.7401574803149606
        },
        {
          "duration": 0.9449382083333262,
          "durationTicks": 1270,
          "midi": 36,
          "name": "C2",
          "ticks": 176640,
          "time": 131.42825599999998,
          "velocity": 0.7401574803149606
        }
      ]
    },
    {
      "channel": 9,
      "controlChanges": {
        "0": [
          {
            "number": 0,
            "ticks": 965,
            "time": 0.7180042291666665,
            "value": 0
          },
          {
            "number": 0,
            "ticks": 3840,
            "time": 2.8571359999999997,
            "value": 0
          },
          {
            "number": 0,
            "ticks": 5760,
            "time": 4.285703999999999,
            "value": 0
          }
        ],
        "1": [
          {
            "number": 1,
            "ticks": 995,
            "time": 0.7403256041666665,
            "value": 0
          },
          {
            "number": 1,
            "ticks": 3840,
            "time": 2.8571359999999997,
            "value": 0
          },
          {
            "number": 1,
            "ticks": 5760,
            "time": 4.285703999999999,
            "value": 0
          }
        ],
        "7": [
          {
            "number": 7,
            "ticks": 1005,
            "time": 0.7477660624999999,
            "value": 0.7559055118110236
          },
          {
            "number": 7,
            "ticks": 3840,
            "time": 2.8571359999999997,
            "value": 0.7559055118110236
          },
          {
            "number": 7,
            "ticks": 5760,
            "time": 4.285703999999999,
            "value": 0.7559055118110236
          }
        ],
        "10": [
          {
            "number": 10,
            "ticks": 1015,
            "time": 0.7552065208333333,
            "value": 0.5039370078740157
          },
          {
            "number": 10,
            "ticks": 3840,
            "time": 2.8571359999999997,
            "value": 0.5039370078740157
          },
          {
            "number": 10,
            "ticks": 5760,
            "time": 4.285703999999999,
            "value": 0.5039370078740157
          }
        ],
        "11": [
          {
            "number": 11,
            "ticks": 1025,
            "time": 0.7626469791666666,
            "value": 1
          },
          {
            "number": 11,
            "ticks": 3840,
            "time": 2.8571359999999997,
            "value": 1
          },
          {
            "number": 11,
            "ticks": 5760,
            "time": 4.285703999999999,
            "value": 1
          }
        ],
        "32": [
          {
            "number": 32,
            "ticks": 975,
            "time": 0.7254446874999999,
            "value": 0
          },
          {
            "number": 32,
            "ticks": 3840,
            "time": 2.8571359999999997,
            "value": 0
          },
          {
            "number": 32,
            "ticks": 5760,
            "time": 4.285703999999999,
            "value": 0
          }
        ],
        "64": [
          {
            "number": 64,
            "ticks": 1035,
            "time": 0.7700874374999999,
            "value": 0
          },
          {
            "number": 64,
            "ticks": 3840,
            "time": 2.8571359999999997,
            "value": 0
          },
          {
            "number": 64,
            "ticks": 5760,
            "time": 4.285703999999999,
            "value": 0
          }
        ],
        "91": [
          {
            "number": 91,
            "ticks": 1045,
            "time": 0.7775278958333333,
            "value": 0.5039370078740157
          },
          {
            "number": 91,
            "ticks": 2400,
            "time": 1.78571,
            "value": 0.5039370078740157
          },
          {
            "number": 91,
            "ticks": 2460,
            "time": 1.8303527499999999,
            "value": 0.4881889763779528
          },
          {
            "number": 91,
            "ticks": 2520,
            "time": 1.8749954999999998,
            "value": 0.4645669291338583
          },
          {
            "number": 91,
            "ticks": 2580,
            "time": 1.9196382499999998,
            "value": 0.4409448818897638
          },
          {
            "number": 91,
            "ticks": 2640,
            "time": 1.9642809999999997,
            "value": 0.4251968503937008
          },
          {
            "number": 91,
            "ticks": 2700,
            "time": 2.0089237499999997,
            "value": 0.4015748031496063
          },
          {
            "number": 91,
            "ticks": 2760,
            "time": 2.0535664999999996,
            "value": 0.3779527559055118
          },
          {
            "number": 91,
            "ticks": 2820,
            "time": 2.0982092499999996,
            "value": 0.36220472440944884
          },
          {
            "number": 91,
            "ticks": 2880,
            "time": 2.1428519999999995,
            "value": 0.33858267716535434
          },
          {
            "number": 91,
            "ticks": 2940,
            "time": 2.18749475,
            "value": 0.31496062992125984
          },
          {
            "number": 91,
            "ticks": 3000,
            "time": 2.2321375,
            "value": 0.2992125984251969
          },
          {
            "number": 91,
            "ticks": 3060,
            "time": 2.27678025,
            "value": 0.2755905511811024
          },
          {
            "number": 91,
            "ticks": 3120,
            "time": 2.321423,
            "value": 0.25196850393700787
          },
          {
            "number": 91,
            "ticks": 3180,
            "time": 2.3660657499999997,
            "value": 0.23622047244094488
          },
          {
            "number": 91,
            "ticks": 3240,
            "time": 2.4107084999999997,
            "value": 0.2125984251968504
          },
          {
            "number": 91,
            "ticks": 3300,
            "time": 2.4553512499999997,
            "value": 0.1889763779527559
          },
          {
            "number": 91,
            "ticks": 3360,
            "time": 2.4999939999999996,
            "value": 0.1732283464566929
          },
          {
            "number": 91,
            "ticks": 3420,
            "time": 2.5446367499999996,
            "value": 0.14960629921259844
          },
          {
            "number": 91,
            "ticks": 3480,
            "time": 2.5892794999999995,
            "value": 0.12598425196850394
          },
          {
            "number": 91,
            "ticks": 3540,
            "time": 2.63392225,
            "value": 0.11023622047244094
          },
          {
            "number": 91,
            "ticks": 3600,
            "time": 2.678565,
            "value": 0.08661417322834646
          },
          {
            "number": 91,
            "ticks": 3660,
            "time": 2.72320775,
            "value": 0.06299212598425197
          },
          {
            "number": 91,
            "ticks": 3720,
            "time": 2.7678504999999998,
            "value": 0.047244094488188976
          },
          {
            "number": 91,
            "ticks": 3780,
            "time": 2.8124932499999997,
            "value": 0.023622047244094488
          },
          {
            "number": 91,
            "ticks": 3840,
            "time": 2.8571359999999997,
            "value": 0
          },
          {
            "number": 91,
            "ticks": 5760,
            "time": 4.285703999999999,
            "value": 0
          }
        ],
        "93": [
          {
            "number": 93,
            "ticks": 1055,
            "time": 0.7849683541666665,
            "value": 0
          },
          {
            "number": 93,
            "ticks": 3840,
            "time": 2.8571359999999997,
            "value": 0
          },
          {
            "number": 93,
            "ticks": 5760,
            "time": 4.285703999999999,
            "value": 0
          }
        ]
      },
      "pitchBends": [
        {
          "ticks": 1065,
          "time": 0.7924088125,
          "value": 0
        },
        {
          "ticks": 3840,
          "time": 2.8571359999999997,
          "value": 0
        },
        {
          "ticks": 5760,
          "time": 4.285703999999999,
          "value": 0
        }
      ],
      "instrument": {
        "family": "drums",
        "number": 0,
        "name": "standard kit"
      },
      "name": "Drums",
      "notes": [
        {
          "duration": 0.22321374999999932,
          "durationTicks": 300,
          "midi": 38,
          "name": "D2",
          "ticks": 14880,
          "time": 11.071401999999999,
          "velocity": 0.8346456692913385
        },
        {
          "duration": 0.22321374999999932,
          "durationTicks": 300,
          "midi": 36,
          "name": "C2",
          "ticks": 15360,
          "time": 11.428543999999999,
          "velocity": 0.6220472440944882
        },
        {
          "duration": 0.22321374999999932,
          "durationTicks": 300,
          "midi": 46,
          "name": "A#2",
          "ticks": 15360,
          "time": 11.428543999999999,
          "velocity": 0.6220472440944882
        },
        {
          "duration": 0.2232137500000011,
          "durationTicks": 300,
          "midi": 36,
          "name": "C2",
          "ticks": 15840,
          "time": 11.785685999999998,
          "velocity": 0.6220472440944882
        },
        {
          "duration": 0.2232137500000011,
          "durationTicks": 300,
          "midi": 38,
          "name": "D2",
          "ticks": 15840,
          "time": 11.785685999999998,
          "velocity": 0.6220472440944882
        },
        {
          "duration": 0.1785709999999998,
          "durationTicks": 240,
          "midi": 46,
          "name": "A#2",
          "ticks": 15840,
          "time": 11.785685999999998,
          "velocity": 0.6220472440944882
        },
        {
          "duration": 0.1785709999999998,
          "durationTicks": 240,
          "midi": 46,
          "name": "A#2",
          "ticks": 16080,
          "time": 11.964256999999998,
          "velocity": 0.6220472440944882
        },
        {
          "duration": 0.2232137500000011,
          "durationTicks": 300,
          "midi": 36,
          "name": "C2",
          "ticks": 16320,
          "time": 12.142827999999998,
          "velocity": 0.6220472440944882
        },
        {
          "duration": 0.2232137500000011,
          "durationTicks": 300,
          "midi": 46,
          "name": "A#2",
          "ticks": 16320,
          "time": 12.142827999999998,
          "velocity": 0.6220472440944882
        },
        {
          "duration": 0.22321374999999932,
          "durationTicks": 300,
          "midi": 36,
          "name": "C2",
          "ticks": 16800,
          "time": 12.49997,
          "velocity": 0.6220472440944882
        },
        {
          "duration": 0.22321374999999932,
          "durationTicks": 300,
          "midi": 38,
          "name": "D2",
          "ticks": 16800,
          "time": 12.49997,
          "velocity": 0.6220472440944882
        },
        {
          "duration": 0.1785709999999998,
          "durationTicks": 240,
          "midi": 46,
          "name": "A#2",
          "ticks": 16800,
          "time": 12.49997,
          "velocity": 0.6220472440944882
        },
        {
          "duration": 0.1785709999999998,
          "durationTicks": 240,
          "midi": 46,
          "name": "A#2",
          "ticks": 17040,
          "time": 12.678541,
          "velocity": 0.6220472440944882
        },
        {
          "duration": 0.22321374999999932,
          "durationTicks": 300,
          "midi": 36,
          "name": "C2",
          "ticks": 17280,
          "time": 12.857111999999999,
          "velocity": 0.6220472440944882
        },
        {
          "duration": 0.22321374999999932,
          "durationTicks": 300,
          "midi": 46,
          "name": "A#2",
          "ticks": 17280,
          "time": 12.857111999999999,
          "velocity": 0.6220472440944882
        },
        {
          "duration": 0.22321374999999932,
          "durationTicks": 300,
          "midi": 36,
          "name": "C2",
          "ticks": 17760,
          "time": 13.214253999999999,
          "velocity": 0.6220472440944882
        },
        {
          "duration": 0.22321374999999932,
          "durationTicks": 300,
          "midi": 38,
          "name": "D2",
          "ticks": 17760,
          "time": 13.214253999999999,
          "velocity": 0.6220472440944882
        },
        {
          "duration": 0.1785709999999998,
          "durationTicks": 240,
          "midi": 46,
          "name": "A#2",
          "ticks": 17760,
          "time": 13.214253999999999,
          "velocity": 0.6220472440944882
        },
        {
          "duration": 0.1785709999999998,
          "durationTicks": 240,
          "midi": 46,
          "name": "A#2",
          "ticks": 18000,
          "time": 13.392824999999998,
          "velocity": 0.6220472440944882
        },
        {
          "duration": 0.22321374999999932,
          "durationTicks": 300,
          "midi": 36,
          "name": "C2",
          "ticks": 18240,
          "time": 13.571395999999998,
          "velocity": 0.6220472440944882
        },
        {
          "duration": 0.22321374999999932,
          "durationTicks": 300,
          "midi": 46,
          "name": "A#2",
          "ticks": 18240,
          "time": 13.571395999999998,
          "velocity": 0.6220472440944882
        },
        {
          "duration": 0.2232137500000011,
          "durationTicks": 300,
          "midi": 36,
          "name": "C2",
          "ticks": 18720,
          "time": 13.928537999999998,
          "velocity": 0.6220472440944882
        },
        {
          "duration": 0.2232137500000011,
          "durationTicks": 300,
          "midi": 38,
          "name": "D2",
          "ticks": 18720,
          "time": 13.928537999999998,
          "velocity": 0.6220472440944882
        },
        {
          "duration": 0.1785709999999998,
          "durationTicks": 240,
          "midi": 46,
          "name": "A#2",
          "ticks": 18720,
          "time": 13.928537999999998,
          "velocity": 0.6220472440944882
        },
        {
          "duration": 0.1785710000000016,
          "durationTicks": 240,
          "midi": 46,
          "name": "A#2",
          "ticks": 18960,
          "time": 14.107108999999998,
          "velocity": 0.6220472440944882
        },
        {
          "duration": 0.22321374999999932,
          "durationTicks": 300,
          "midi": 36,
          "name": "C2",
          "ticks": 19200,
          "time": 14.28568,
          "velocity": 0.6220472440944882
        },
        {
          "duration": 0.22321374999999932,
          "durationTicks": 300,
          "midi": 46,
          "name": "A#2",
          "ticks": 19200,
          "time": 14.28568,
          "velocity": 0.6220472440944882
        },
        {
          "duration": 0.22321374999999932,
          "durationTicks": 300,
          "midi": 36,
          "name": "C2",
          "ticks": 19680,
          "time": 14.642821999999999,
          "velocity": 0.6220472440944882
        },
        {
          "duration": 0.22321374999999932,
          "durationTicks": 300,
          "midi": 38,
          "name": "D2",
          "ticks": 19680,
          "time": 14.642821999999999,
          "velocity": 0.6220472440944882
        },
        {
          "duration": 0.1785709999999998,
          "durationTicks": 240,
          "midi": 46,
          "name": "A#2",
          "ticks": 19680,
          "time": 14.642821999999999,
          "velocity": 0.6220472440944882
        },
        {
          "duration": 0.1785709999999998,
          "durationTicks": 240,
          "midi": 46,
          "name": "A#2",
          "ticks": 19920,
          "time": 14.821392999999999,
          "velocity": 0.6220472440944882
        },
        {
          "duration": 0.22321374999999932,
          "durationTicks": 300,
          "midi": 36,
          "name": "C2",
          "ticks": 20160,
          "time": 14.999963999999999,
          "velocity": 0.6220472440944882
        },
        {
          "duration": 0.22321374999999932,
          "durationTicks": 300,
          "midi": 46,
          "name": "A#2",
          "ticks": 20160,
          "time": 14.999963999999999,
          "velocity": 0.6220472440944882
        },
        {
          "duration": 0.22321374999999932,
          "durationTicks": 300,
          "midi": 36,
          "name": "C2",
          "ticks": 20640,
          "time": 15.357105999999998,
          "velocity": 0.6220472440944882
        },
        {
          "duration": 0.22321374999999932,
          "durationTicks": 300,
          "midi": 38,
          "name": "D2",
          "ticks": 20640,
          "time": 15.357105999999998,
          "velocity": 0.6220472440944882
        },
        {
          "duration": 0.1785709999999998,
          "durationTicks": 240,
          "midi": 46,
          "name": "A#2",
          "ticks": 20640,
          "time": 15.357105999999998,
          "velocity": 0.6220472440944882
        },
        {
          "duration": 0.1785709999999998,
          "durationTicks": 240,
          "midi": 46,
          "name": "A#2",
          "ticks": 20880,
          "time": 15.535676999999998,
          "velocity": 0.6220472440944882
        },
        {
          "duration": 0.2232137500000011,
          "durationTicks": 300,
          "midi": 36,
          "name": "C2",
          "ticks": 21120,
          "time": 15.714247999999998,
          "velocity": 0.6220472440944882
        },
        {
          "duration": 0.2232137500000011,
          "durationTicks": 300,
          "midi": 46,
          "name": "A#2",
          "ticks": 21120,
          "time": 15.714247999999998,
          "velocity": 0.6220472440944882
        },
        {
          "duration": 0.22321374999999932,
          "durationTicks": 300,
          "midi": 36,
          "name": "C2",
          "ticks": 21600,
          "time": 16.071389999999997,
          "velocity": 0.6220472440944882
        },
        {
          "duration": 0.22321374999999932,
          "durationTicks": 300,
          "midi": 38,
          "name": "D2",
          "ticks": 21600,
          "time": 16.071389999999997,
          "velocity": 0.6220472440944882
        },
        {
          "duration": 0.1785710000000016,
          "durationTicks": 240,
          "midi": 46,
          "name": "A#2",
          "ticks": 21600,
          "time": 16.071389999999997,
          "velocity": 0.6220472440944882
        },
        {
          "duration": 0.17857099999999804,
          "durationTicks": 240,
          "midi": 46,
          "name": "A#2",
          "ticks": 21840,
          "time": 16.249961,
          "velocity": 0.6220472440944882
        },
        {
          "duration": 0.22321374999999932,
          "durationTicks": 300,
          "midi": 36,
          "name": "C2",
          "ticks": 22080,
          "time": 16.428531999999997,
          "velocity": 0.6220472440944882
        },
        {
          "duration": 0.22321374999999932,
          "durationTicks": 300,
          "midi": 46,
          "name": "A#2",
          "ticks": 22080,
          "time": 16.428531999999997,
          "velocity": 0.6220472440944882
        },
        {
          "duration": 0.22321375000000288,
          "durationTicks": 300,
          "midi": 36,
          "name": "C2",
          "ticks": 22560,
          "time": 16.785673999999997,
          "velocity": 0.6220472440944882
        },
        {
          "duration": 0.22321375000000288,
          "durationTicks": 300,
          "midi": 38,
          "name": "D2",
          "ticks": 22560,
          "time": 16.785673999999997,
          "velocity": 0.6220472440944882
        },
        {
          "duration": 0.1785710000000016,
          "durationTicks": 240,
          "midi": 46,
          "name": "A#2",
          "ticks": 22560,
          "time": 16.785673999999997,
          "velocity": 0.6220472440944882
        },
        {
          "duration": 0.17857099999999804,
          "durationTicks": 240,
          "midi": 46,
          "name": "A#2",
          "ticks": 22800,
          "time": 16.964245,
          "velocity": 0.6220472440944882
        },
        {
          "duration": 0.22321375000000288,
          "durationTicks": 300,
          "midi": 36,
          "name": "C2",
          "ticks": 23040,
          "time": 17.142815999999996,
          "velocity": 0.6220472440944882
        },
        {
          "duration": 0.22321375000000288,
          "durationTicks": 300,
          "midi": 46,
          "name": "A#2",
          "ticks": 23040,
          "time": 17.142815999999996,
          "velocity": 0.6220472440944882
        },
        {
          "duration": 0.22321374999999932,
          "durationTicks": 300,
          "midi": 36,
          "name": "C2",
          "ticks": 23520,
          "time": 17.499958,
          "velocity": 0.6220472440944882
        },
        {
          "duration": 0.22321374999999932,
          "durationTicks": 300,
          "midi": 38,
          "name": "D2",
          "ticks": 23520,
          "time": 17.499958,
          "velocity": 0.6220472440944882
        },
        {
          "duration": 0.17857099999999804,
          "durationTicks": 240,
          "midi": 46,
          "name": "A#2",
          "ticks": 23520,
          "time": 17.499958,
          "velocity": 0.6220472440944882
        },
        {
          "duration": 0.1785710000000016,
          "durationTicks": 240,
          "midi": 46,
          "name": "A#2",
          "ticks": 23760,
          "time": 17.678528999999997,
          "velocity": 0.6220472440944882
        },
        {
          "duration": 0.22321374999999932,
          "durationTicks": 300,
          "midi": 36,
          "name": "C2",
          "ticks": 24000,
          "time": 17.8571,
          "velocity": 0.6220472440944882
        },
        {
          "duration": 0.22321374999999932,
          "durationTicks": 300,
          "midi": 46,
          "name": "A#2",
          "ticks": 24000,
          "time": 17.8571,
          "velocity": 0.6220472440944882
        },
        {
          "duration": 0.22321374999999932,
          "durationTicks": 300,
          "midi": 36,
          "name": "C2",
          "ticks": 24480,
          "time": 18.214242,
          "velocity": 0.6220472440944882
        },
        {
          "duration": 0.22321374999999932,
          "durationTicks": 300,
          "midi": 38,
          "name": "D2",
          "ticks": 24480,
          "time": 18.214242,
          "velocity": 0.6220472440944882
        },
        {
          "duration": 0.17857099999999804,
          "durationTicks": 240,
          "midi": 46,
          "name": "A#2",
          "ticks": 24480,
          "time": 18.214242,
          "velocity": 0.6220472440944882
        },
        {
          "duration": 0.1785710000000016,
          "durationTicks": 240,
          "midi": 46,
          "name": "A#2",
          "ticks": 24720,
          "time": 18.392812999999997,
          "velocity": 0.6220472440944882
        },
        {
          "duration": 0.22321374999999932,
          "durationTicks": 300,
          "midi": 36,
          "name": "C2",
          "ticks": 24960,
          "time": 18.571384,
          "velocity": 0.6220472440944882
        },
        {
          "duration": 0.22321374999999932,
          "durationTicks": 300,
          "midi": 46,
          "name": "A#2",
          "ticks": 24960,
          "time": 18.571384,
          "velocity": 0.6220472440944882
        },
        {
          "duration": 0.22321374999999932,
          "durationTicks": 300,
          "midi": 36,
          "name": "C2",
          "ticks": 25440,
          "time": 18.928525999999998,
          "velocity": 0.6220472440944882
        },
        {
          "duration": 0.22321374999999932,
          "durationTicks": 300,
          "midi": 38,
          "name": "D2",
          "ticks": 25440,
          "time": 18.928525999999998,
          "velocity": 0.6220472440944882
        },
        {
          "duration": 0.1785710000000016,
          "durationTicks": 240,
          "midi": 46,
          "name": "A#2",
          "ticks": 25440,
          "time": 18.928525999999998,
          "velocity": 0.6220472440944882
        },
        {
          "duration": 0.17857099999999804,
          "durationTicks": 240,
          "midi": 46,
          "name": "A#2",
          "ticks": 25680,
          "time": 19.107097,
          "velocity": 0.6220472440944882
        },
        {
          "duration": 0.22321374999999932,
          "durationTicks": 300,
          "midi": 36,
          "name": "C2",
          "ticks": 25920,
          "time": 19.285667999999998,
          "velocity": 0.6220472440944882
        },
        {
          "duration": 0.22321374999999932,
          "durationTicks": 300,
          "midi": 46,
          "name": "A#2",
          "ticks": 25920,
          "time": 19.285667999999998,
          "velocity": 0.6220472440944882
        },
        {
          "duration": 0.22321374999999932,
          "durationTicks": 300,
          "midi": 36,
          "name": "C2",
          "ticks": 26400,
          "time": 19.642809999999997,
          "velocity": 0.6220472440944882
        },
        {
          "duration": 0.22321374999999932,
          "durationTicks": 300,
          "midi": 38,
          "name": "D2",
          "ticks": 26400,
          "time": 19.642809999999997,
          "velocity": 0.6220472440944882
        },
        {
          "duration": 0.1785710000000016,
          "durationTicks": 240,
          "midi": 46,
          "name": "A#2",
          "ticks": 26400,
          "time": 19.642809999999997,
          "velocity": 0.6220472440944882
        },
        {
          "duration": 0.17857099999999804,
          "durationTicks": 240,
          "midi": 46,
          "name": "A#2",
          "ticks": 26640,
          "time": 19.821381,
          "velocity": 0.6220472440944882
        },
        {
          "duration": 0.22321374999999932,
          "durationTicks": 300,
          "midi": 36,
          "name": "C2",
          "ticks": 26880,
          "time": 19.999951999999997,
          "velocity": 0.6220472440944882
        },
        {
          "duration": 0.22321374999999932,
          "durationTicks": 300,
          "midi": 46,
          "name": "A#2",
          "ticks": 26880,
          "time": 19.999951999999997,
          "velocity": 0.6220472440944882
        },
        {
          "duration": 0.22321375000000288,
          "durationTicks": 300,
          "midi": 36,
          "name": "C2",
          "ticks": 27360,
          "time": 20.357093999999996,
          "velocity": 0.6220472440944882
        },
        {
          "duration": 0.22321375000000288,
          "durationTicks": 300,
          "midi": 38,
          "name": "D2",
          "ticks": 27360,
          "time": 20.357093999999996,
          "velocity": 0.6220472440944882
        },
        {
          "duration": 0.1785710000000016,
          "durationTicks": 240,
          "midi": 46,
          "name": "A#2",
          "ticks": 27360,
          "time": 20.357093999999996,
          "velocity": 0.6220472440944882
        },
        {
          "duration": 0.17857099999999804,
          "durationTicks": 240,
          "midi": 46,
          "name": "A#2",
          "ticks": 27600,
          "time": 20.535664999999998,
          "velocity": 0.6220472440944882
        },
        {
          "duration": 0.22321375000000288,
          "durationTicks": 300,
          "midi": 36,
          "name": "C2",
          "ticks": 27840,
          "time": 20.714235999999996,
          "velocity": 0.6220472440944882
        },
        {
          "duration": 0.22321375000000288,
          "durationTicks": 300,
          "midi": 46,
          "name": "A#2",
          "ticks": 27840,
          "time": 20.714235999999996,
          "velocity": 0.6220472440944882
        },
        {
          "duration": 0.22321374999999932,
          "durationTicks": 300,
          "midi": 36,
          "name": "C2",
          "ticks": 28320,
          "time": 21.071378,
          "velocity": 0.6220472440944882
        },
        {
          "duration": 0.22321374999999932,
          "durationTicks": 300,
          "midi": 38,
          "name": "D2",
          "ticks": 28320,
          "time": 21.071378,
          "velocity": 0.6220472440944882
        },
        {
          "duration": 0.17857099999999804,
          "durationTicks": 240,
          "midi": 46,
          "name": "A#2",
          "ticks": 28320,
          "time": 21.071378,
          "velocity": 0.6220472440944882
        },
        {
          "duration": 0.1785710000000016,
          "durationTicks": 240,
          "midi": 46,
          "name": "A#2",
          "ticks": 28560,
          "time": 21.249948999999997,
          "velocity": 0.6220472440944882
        },
        {
          "duration": 0.22321374999999932,
          "durationTicks": 300,
          "midi": 36,
          "name": "C2",
          "ticks": 28800,
          "time": 21.42852,
          "velocity": 0.6220472440944882
        },
        {
          "duration": 0.22321374999999932,
          "durationTicks": 300,
          "midi": 46,
          "name": "A#2",
          "ticks": 28800,
          "time": 21.42852,
          "velocity": 0.6220472440944882
        },
        {
          "duration": 0.22321374999999932,
          "durationTicks": 300,
          "midi": 36,
          "name": "C2",
          "ticks": 29280,
          "time": 21.785662,
          "velocity": 0.6220472440944882
        },
        {
          "duration": 0.22321374999999932,
          "durationTicks": 300,
          "midi": 38,
          "name": "D2",
          "ticks": 29280,
          "time": 21.785662,
          "velocity": 0.6220472440944882
        },
        {
          "duration": 0.17857099999999804,
          "durationTicks": 240,
          "midi": 46,
          "name": "A#2",
          "ticks": 29280,
          "time": 21.785662,
          "velocity": 0.6220472440944882
        },
        {
          "duration": 0.1785710000000016,
          "durationTicks": 240,
          "midi": 46,
          "name": "A#2",
          "ticks": 29520,
          "time": 21.964232999999997,
          "velocity": 0.6220472440944882
        },
        {
          "duration": 0.22321374999999932,
          "durationTicks": 300,
          "midi": 36,
          "name": "C2",
          "ticks": 29760,
          "time": 22.142803999999998,
          "velocity": 0.6220472440944882
        },
        {
          "duration": 0.22321374999999932,
          "durationTicks": 300,
          "midi": 46,
          "name": "A#2",
          "ticks": 29760,
          "time": 22.142803999999998,
          "velocity": 0.6220472440944882
        },
        {
          "duration": 0.22321374999999932,
          "durationTicks": 300,
          "midi": 36,
          "name": "C2",
          "ticks": 30240,
          "time": 22.499945999999998,
          "velocity": 0.6220472440944882
        },
        {
          "duration": 0.22321374999999932,
          "durationTicks": 300,
          "midi": 38,
          "name": "D2",
          "ticks": 30240,
          "time": 22.499945999999998,
          "velocity": 0.6220472440944882
        },
        {
          "duration": 0.17857099999999804,
          "durationTicks": 240,
          "midi": 46,
          "name": "A#2",
          "ticks": 30240,
          "time": 22.499945999999998,
          "velocity": 0.6220472440944882
        },
        {
          "duration": 0.1785710000000016,
          "durationTicks": 240,
          "midi": 46,
          "name": "A#2",
          "ticks": 30480,
          "time": 22.678516999999996,
          "velocity": 0.6220472440944882
        },
        {
          "duration": 0.22321374999999932,
          "durationTicks": 300,
          "midi": 36,
          "name": "C2",
          "ticks": 30720,
          "time": 22.857087999999997,
          "velocity": 0.6220472440944882
        },
        {
          "duration": 0.22321374999999932,
          "durationTicks": 300,
          "midi": 46,
          "name": "A#2",
          "ticks": 30720,
          "time": 22.857087999999997,
          "velocity": 0.6220472440944882
        },
        {
          "duration": 0.22321374999999932,
          "durationTicks": 300,
          "midi": 36,
          "name": "C2",
          "ticks": 31200,
          "time": 23.214229999999997,
          "velocity": 0.6220472440944882
        },
        {
          "duration": 0.22321374999999932,
          "durationTicks": 300,
          "midi": 38,
          "name": "D2",
          "ticks": 31200,
          "time": 23.214229999999997,
          "velocity": 0.6220472440944882
        },
        {
          "duration": 0.1785710000000016,
          "durationTicks": 240,
          "midi": 46,
          "name": "A#2",
          "ticks": 31200,
          "time": 23.214229999999997,
          "velocity": 0.6220472440944882
        },
        {
          "duration": 0.17857099999999804,
          "durationTicks": 240,
          "midi": 46,
          "name": "A#2",
          "ticks": 31440,
          "time": 23.392801,
          "velocity": 0.6220472440944882
        },
        {
          "duration": 0.22321374999999932,
          "durationTicks": 300,
          "midi": 36,
          "name": "C2",
          "ticks": 31680,
          "time": 23.571371999999997,
          "velocity": 0.6220472440944882
        },
        {
          "duration": 0.22321374999999932,
          "durationTicks": 300,
          "midi": 46,
          "name": "A#2",
          "ticks": 31680,
          "time": 23.571371999999997,
          "velocity": 0.6220472440944882
        },
        {
          "duration": 0.22321374999999932,
          "durationTicks": 300,
          "midi": 36,
          "name": "C2",
          "ticks": 32160,
          "time": 23.928513999999996,
          "velocity": 0.6220472440944882
        },
        {
          "duration": 0.22321374999999932,
          "durationTicks": 300,
          "midi": 38,
          "name": "D2",
          "ticks": 32160,
          "time": 23.928513999999996,
          "velocity": 0.6220472440944882
        },
        {
          "duration": 0.1785710000000016,
          "durationTicks": 240,
          "midi": 46,
          "name": "A#2",
          "ticks": 32160,
          "time": 23.928513999999996,
          "velocity": 0.6220472440944882
        },
        {
          "duration": 0.22321374999999932,
          "durationTicks": 300,
          "midi": 46,
          "name": "A#2",
          "ticks": 32400,
          "time": 24.107084999999998,
          "velocity": 0.6220472440944882
        },
        {
          "duration": 0.11904733333333439,
          "durationTicks": 160,
          "midi": 36,
          "name": "C2",
          "ticks": 32640,
          "time": 24.285655999999996,
          "velocity": 0.6220472440944882
        },
        {
          "duration": 0.11904733333333439,
          "durationTicks": 160,
          "midi": 38,
          "name": "D2",
          "ticks": 32640,
          "time": 24.285655999999996,
          "velocity": 0.6220472440944882
        },
        {
          "duration": 0.11904733333333439,
          "durationTicks": 160,
          "midi": 49,
          "name": "C#3",
          "ticks": 32640,
          "time": 24.285655999999996,
          "velocity": 0.6220472440944882
        },
        {
          "duration": 0.059523666666667197,
          "durationTicks": 80,
          "midi": 36,
          "name": "C2",
          "ticks": 34560,
          "time": 25.714223999999998,
          "velocity": 0.6220472440944882
        },
        {
          "duration": 0.11904733333333084,
          "durationTicks": 160,
          "midi": 46,
          "name": "A#2",
          "ticks": 34560,
          "time": 25.714223999999998,
          "velocity": 0.6220472440944882
        },
        {
          "duration": 0.11904733333333084,
          "durationTicks": 160,
          "midi": 49,
          "name": "C#3",
          "ticks": 34560,
          "time": 25.714223999999998,
          "velocity": 0.6220472440944882
        },
        {
          "duration": 0.059523666666667197,
          "durationTicks": 80,
          "midi": 36,
          "name": "C2",
          "ticks": 35040,
          "time": 26.071365999999998,
          "velocity": 0.6220472440944882
        },
        {
          "duration": 0.059523666666667197,
          "durationTicks": 80,
          "midi": 38,
          "name": "D2",
          "ticks": 35040,
          "time": 26.071365999999998,
          "velocity": 0.6220472440944882
        },
        {
          "duration": 0.059523666666667197,
          "durationTicks": 80,
          "midi": 46,
          "name": "A#2",
          "ticks": 35040,
          "time": 26.071365999999998,
          "velocity": 0.6220472440944882
        },
        {
          "duration": 0.11904733333333084,
          "durationTicks": 160,
          "midi": 49,
          "name": "C#3",
          "ticks": 35040,
          "time": 26.071365999999998,
          "velocity": 0.6220472440944882
        },
        {
          "duration": 0.05952366666667075,
          "durationTicks": 80,
          "midi": 46,
          "name": "A#2",
          "ticks": 35280,
          "time": 26.249936999999996,
          "velocity": 0.6220472440944882
        },
        {
          "duration": 0.059523666666667197,
          "durationTicks": 80,
          "midi": 36,
          "name": "C2",
          "ticks": 35520,
          "time": 26.428507999999997,
          "velocity": 0.6220472440944882
        },
        {
          "duration": 0.059523666666667197,
          "durationTicks": 80,
          "midi": 46,
          "name": "A#2",
          "ticks": 35520,
          "time": 26.428507999999997,
          "velocity": 0.6220472440944882
        },
        {
          "duration": 0.059523666666667197,
          "durationTicks": 80,
          "midi": 36,
          "name": "C2",
          "ticks": 36000,
          "time": 26.785649999999997,
          "velocity": 0.6220472440944882
        },
        {
          "duration": 0.059523666666667197,
          "durationTicks": 80,
          "midi": 38,
          "name": "D2",
          "ticks": 36000,
          "time": 26.785649999999997,
          "velocity": 0.6220472440944882
        },
        {
          "duration": 0.059523666666667197,
          "durationTicks": 80,
          "midi": 46,
          "name": "A#2",
          "ticks": 36000,
          "time": 26.785649999999997,
          "velocity": 0.6220472440944882
        },
        {
          "duration": 0.059523666666667197,
          "durationTicks": 80,
          "midi": 46,
          "name": "A#2",
          "ticks": 36240,
          "time": 26.964221,
          "velocity": 0.6220472440944882
        },
        {
          "duration": 0.059523666666667197,
          "durationTicks": 80,
          "midi": 36,
          "name": "C2",
          "ticks": 36480,
          "time": 27.142791999999996,
          "velocity": 0.6220472440944882
        },
        {
          "duration": 0.11904733333333084,
          "durationTicks": 160,
          "midi": 46,
          "name": "A#2",
          "ticks": 36480,
          "time": 27.142791999999996,
          "velocity": 0.6220472440944882
        },
        {
          "duration": 0.05952366666667075,
          "durationTicks": 80,
          "midi": 36,
          "name": "C2",
          "ticks": 36960,
          "time": 27.499933999999996,
          "velocity": 0.6220472440944882
        },
        {
          "duration": 0.05952366666667075,
          "durationTicks": 80,
          "midi": 38,
          "name": "D2",
          "ticks": 36960,
          "time": 27.499933999999996,
          "velocity": 0.6220472440944882
        },
        {
          "duration": 0.05952366666667075,
          "durationTicks": 80,
          "midi": 46,
          "name": "A#2",
          "ticks": 36960,
          "time": 27.499933999999996,
          "velocity": 0.6220472440944882
        },
        {
          "duration": 0.059523666666667197,
          "durationTicks": 80,
          "midi": 46,
          "name": "A#2",
          "ticks": 37200,
          "time": 27.678504999999998,
          "velocity": 0.6220472440944882
        },
        {
          "duration": 0.05952366666667075,
          "durationTicks": 80,
          "midi": 36,
          "name": "C2",
          "ticks": 37440,
          "time": 27.857075999999996,
          "velocity": 0.6220472440944882
        },
        {
          "duration": 0.05952366666667075,
          "durationTicks": 80,
          "midi": 46,
          "name": "A#2",
          "ticks": 37440,
          "time": 27.857075999999996,
          "velocity": 0.6220472440944882
        },
        {
          "duration": 0.05952366666667075,
          "durationTicks": 80,
          "midi": 36,
          "name": "C2",
          "ticks": 37920,
          "time": 28.214217999999995,
          "velocity": 0.6220472440944882
        },
        {
          "duration": 0.05952366666667075,
          "durationTicks": 80,
          "midi": 38,
          "name": "D2",
          "ticks": 37920,
          "time": 28.214217999999995,
          "velocity": 0.6220472440944882
        },
        {
          "duration": 0.05952366666667075,
          "durationTicks": 80,
          "midi": 46,
          "name": "A#2",
          "ticks": 37920,
          "time": 28.214217999999995,
          "velocity": 0.6220472440944882
        },
        {
          "duration": 0.059523666666667197,
          "durationTicks": 80,
          "midi": 46,
          "name": "A#2",
          "ticks": 38160,
          "time": 28.392788999999997,
          "velocity": 0.6220472440944882
        },
        {
          "duration": 0.22321374999999932,
          "durationTicks": 300,
          "midi": 36,
          "name": "C2",
          "ticks": 38400,
          "time": 28.57136,
          "velocity": 0.6220472440944882
        },
        {
          "duration": 0.22321374999999932,
          "durationTicks": 300,
          "midi": 46,
          "name": "A#2",
          "ticks": 38400,
          "time": 28.57136,
          "velocity": 0.6220472440944882
        },
        {
          "duration": 0.22321374999999932,
          "durationTicks": 300,
          "midi": 36,
          "name": "C2",
          "ticks": 38880,
          "time": 28.928501999999998,
          "velocity": 0.6220472440944882
        },
        {
          "duration": 0.22321374999999932,
          "durationTicks": 300,
          "midi": 38,
          "name": "D2",
          "ticks": 38880,
          "time": 28.928501999999998,
          "velocity": 0.6220472440944882
        },
        {
          "duration": 0.17857099999999804,
          "durationTicks": 240,
          "midi": 46,
          "name": "A#2",
          "ticks": 38880,
          "time": 28.928501999999998,
          "velocity": 0.6220472440944882
        },
        {
          "duration": 0.1785710000000016,
          "durationTicks": 240,
          "midi": 46,
          "name": "A#2",
          "ticks": 39120,
          "time": 29.107072999999996,
          "velocity": 0.6220472440944882
        },
        {
          "duration": 0.22321374999999932,
          "durationTicks": 300,
          "midi": 36,
          "name": "C2",
          "ticks": 39360,
          "time": 29.285643999999998,
          "velocity": 0.6220472440944882
        },
        {
          "duration": 0.22321374999999932,
          "durationTicks": 300,
          "midi": 46,
          "name": "A#2",
          "ticks": 39360,
          "time": 29.285643999999998,
          "velocity": 0.6220472440944882
        },
        {
          "duration": 0.22321374999999932,
          "durationTicks": 300,
          "midi": 36,
          "name": "C2",
          "ticks": 39840,
          "time": 29.642785999999997,
          "velocity": 0.6220472440944882
        },
        {
          "duration": 0.22321374999999932,
          "durationTicks": 300,
          "midi": 38,
          "name": "D2",
          "ticks": 39840,
          "time": 29.642785999999997,
          "velocity": 0.6220472440944882
        },
        {
          "duration": 0.17857099999999804,
          "durationTicks": 240,
          "midi": 46,
          "name": "A#2",
          "ticks": 39840,
          "time": 29.642785999999997,
          "velocity": 0.6220472440944882
        },
        {
          "duration": 0.1785710000000016,
          "durationTicks": 240,
          "midi": 46,
          "name": "A#2",
          "ticks": 40080,
          "time": 29.821356999999995,
          "velocity": 0.6220472440944882
        },
        {
          "duration": 0.22321374999999932,
          "durationTicks": 300,
          "midi": 36,
          "name": "C2",
          "ticks": 40320,
          "time": 29.999927999999997,
          "velocity": 0.6220472440944882
        },
        {
          "duration": 0.22321374999999932,
          "durationTicks": 300,
          "midi": 46,
          "name": "A#2",
          "ticks": 40320,
          "time": 29.999927999999997,
          "velocity": 0.6220472440944882
        },
        {
          "duration": 0.22321374999999932,
          "durationTicks": 300,
          "midi": 36,
          "name": "C2",
          "ticks": 40800,
          "time": 30.357069999999997,
          "velocity": 0.6220472440944882
        },
        {
          "duration": 0.22321374999999932,
          "durationTicks": 300,
          "midi": 38,
          "name": "D2",
          "ticks": 40800,
          "time": 30.357069999999997,
          "velocity": 0.6220472440944882
        },
        {
          "duration": 0.1785710000000016,
          "durationTicks": 240,
          "midi": 46,
          "name": "A#2",
          "ticks": 40800,
          "time": 30.357069999999997,
          "velocity": 0.6220472440944882
        },
        {
          "duration": 0.17857099999999804,
          "durationTicks": 240,
          "midi": 46,
          "name": "A#2",
          "ticks": 41040,
          "time": 30.535641,
          "velocity": 0.6220472440944882
        },
        {
          "duration": 0.22321374999999932,
          "durationTicks": 300,
          "midi": 36,
          "name": "C2",
          "ticks": 41280,
          "time": 30.714211999999996,
          "velocity": 0.6220472440944882
        },
        {
          "duration": 0.22321374999999932,
          "durationTicks": 300,
          "midi": 46,
          "name": "A#2",
          "ticks": 41280,
          "time": 30.714211999999996,
          "velocity": 0.6220472440944882
        },
        {
          "duration": 0.22321374999999932,
          "durationTicks": 300,
          "midi": 36,
          "name": "C2",
          "ticks": 41760,
          "time": 31.071353999999996,
          "velocity": 0.6220472440944882
        },
        {
          "duration": 0.22321374999999932,
          "durationTicks": 300,
          "midi": 38,
          "name": "D2",
          "ticks": 41760,
          "time": 31.071353999999996,
          "velocity": 0.6220472440944882
        },
        {
          "duration": 0.1785710000000016,
          "durationTicks": 240,
          "midi": 46,
          "name": "A#2",
          "ticks": 41760,
          "time": 31.071353999999996,
          "velocity": 0.6220472440944882
        },
        {
          "duration": 0.17857099999999804,
          "durationTicks": 240,
          "midi": 46,
          "name": "A#2",
          "ticks": 42000,
          "time": 31.249924999999998,
          "velocity": 0.6220472440944882
        },
        {
          "duration": 0.22321374999999932,
          "durationTicks": 300,
          "midi": 36,
          "name": "C2",
          "ticks": 42240,
          "time": 31.428495999999996,
          "velocity": 0.6220472440944882
        },
        {
          "duration": 0.22321374999999932,
          "durationTicks": 300,
          "midi": 46,
          "name": "A#2",
          "ticks": 42240,
          "time": 31.428495999999996,
          "velocity": 0.6220472440944882
        },
        {
          "duration": 0.22321375000000288,
          "durationTicks": 300,
          "midi": 36,
          "name": "C2",
          "ticks": 42720,
          "time": 31.785637999999995,
          "velocity": 0.6220472440944882
        },
        {
          "duration": 0.22321375000000288,
          "durationTicks": 300,
          "midi": 38,
          "name": "D2",
          "ticks": 42720,
          "time": 31.785637999999995,
          "velocity": 0.6220472440944882
        },
        {
          "duration": 0.1785710000000016,
          "durationTicks": 240,
          "midi": 46,
          "name": "A#2",
          "ticks": 42720,
          "time": 31.785637999999995,
          "velocity": 0.6220472440944882
        },
        {
          "duration": 0.17857099999999804,
          "durationTicks": 240,
          "midi": 46,
          "name": "A#2",
          "ticks": 42960,
          "time": 31.964208999999997,
          "velocity": 0.6220472440944882
        },
        {
          "duration": 0.22321374999999932,
          "durationTicks": 300,
          "midi": 36,
          "name": "C2",
          "ticks": 43200,
          "time": 32.142779999999995,
          "velocity": 0.6220472440944882
        },
        {
          "duration": 0.22321374999999932,
          "durationTicks": 300,
          "midi": 46,
          "name": "A#2",
          "ticks": 43200,
          "time": 32.142779999999995,
          "velocity": 0.6220472440944882
        },
        {
          "duration": 0.22321374999999932,
          "durationTicks": 300,
          "midi": 36,
          "name": "C2",
          "ticks": 43680,
          "time": 32.499922,
          "velocity": 0.6220472440944882
        },
        {
          "duration": 0.22321374999999932,
          "durationTicks": 300,
          "midi": 38,
          "name": "D2",
          "ticks": 43680,
          "time": 32.499922,
          "velocity": 0.6220472440944882
        },
        {
          "duration": 0.17857099999999804,
          "durationTicks": 240,
          "midi": 46,
          "name": "A#2",
          "ticks": 43680,
          "time": 32.499922,
          "velocity": 0.6220472440944882
        },
        {
          "duration": 0.17857099999999804,
          "durationTicks": 240,
          "midi": 46,
          "name": "A#2",
          "ticks": 43920,
          "time": 32.678492999999996,
          "velocity": 0.6220472440944882
        },
        {
          "duration": 0.22321374999999932,
          "durationTicks": 300,
          "midi": 36,
          "name": "C2",
          "ticks": 44160,
          "time": 32.857063999999994,
          "velocity": 0.6220472440944882
        },
        {
          "duration": 0.22321374999999932,
          "durationTicks": 300,
          "midi": 46,
          "name": "A#2",
          "ticks": 44160,
          "time": 32.857063999999994,
          "velocity": 0.6220472440944882
        },
        {
          "duration": 0.22321374999999932,
          "durationTicks": 300,
          "midi": 36,
          "name": "C2",
          "ticks": 44640,
          "time": 33.214206,
          "velocity": 0.6220472440944882
        },
        {
          "duration": 0.22321374999999932,
          "durationTicks": 300,
          "midi": 38,
          "name": "D2",
          "ticks": 44640,
          "time": 33.214206,
          "velocity": 0.6220472440944882
        },
        {
          "duration": 0.17857099999999804,
          "durationTicks": 240,
          "midi": 46,
          "name": "A#2",
          "ticks": 44640,
          "time": 33.214206,
          "velocity": 0.6220472440944882
        },
        {
          "duration": 0.17857099999999804,
          "durationTicks": 240,
          "midi": 46,
          "name": "A#2",
          "ticks": 44880,
          "time": 33.392776999999995,
          "velocity": 0.6220472440944882
        },
        {
          "duration": 0.22321374999999932,
          "durationTicks": 300,
          "midi": 36,
          "name": "C2",
          "ticks": 45120,
          "time": 33.57134799999999,
          "velocity": 0.6220472440944882
        },
        {
          "duration": 0.22321374999999932,
          "durationTicks": 300,
          "midi": 46,
          "name": "A#2",
          "ticks": 45120,
          "time": 33.57134799999999,
          "velocity": 0.6220472440944882
        },
        {
          "duration": 0.22321374999999932,
          "durationTicks": 300,
          "midi": 36,
          "name": "C2",
          "ticks": 45600,
          "time": 33.92849,
          "velocity": 0.6220472440944882
        },
        {
          "duration": 0.22321374999999932,
          "durationTicks": 300,
          "midi": 38,
          "name": "D2",
          "ticks": 45600,
          "time": 33.92849,
          "velocity": 0.6220472440944882
        },
        {
          "duration": 0.17857099999999804,
          "durationTicks": 240,
          "midi": 46,
          "name": "A#2",
          "ticks": 45600,
          "time": 33.92849,
          "velocity": 0.6220472440944882
        },
        {
          "duration": 0.17857099999999804,
          "durationTicks": 240,
          "midi": 46,
          "name": "A#2",
          "ticks": 45840,
          "time": 34.107060999999995,
          "velocity": 0.6220472440944882
        },
        {
          "duration": 0.22321375000000643,
          "durationTicks": 300,
          "midi": 36,
          "name": "C2",
          "ticks": 46080,
          "time": 34.28563199999999,
          "velocity": 0.6220472440944882
        },
        {
          "duration": 0.22321375000000643,
          "durationTicks": 300,
          "midi": 46,
          "name": "A#2",
          "ticks": 46080,
          "time": 34.28563199999999,
          "velocity": 0.6220472440944882
        },
        {
          "duration": 0.22321374999999932,
          "durationTicks": 300,
          "midi": 36,
          "name": "C2",
          "ticks": 46560,
          "time": 34.642773999999996,
          "velocity": 0.6220472440944882
        },
        {
          "duration": 0.22321374999999932,
          "durationTicks": 300,
          "midi": 38,
          "name": "D2",
          "ticks": 46560,
          "time": 34.642773999999996,
          "velocity": 0.6220472440944882
        },
        {
          "duration": 0.17857099999999804,
          "durationTicks": 240,
          "midi": 46,
          "name": "A#2",
          "ticks": 46560,
          "time": 34.642773999999996,
          "velocity": 0.6220472440944882
        },
        {
          "duration": 0.17857100000000514,
          "durationTicks": 240,
          "midi": 46,
          "name": "A#2",
          "ticks": 46800,
          "time": 34.821344999999994,
          "velocity": 0.6220472440944882
        },
        {
          "duration": 0.22321374999999932,
          "durationTicks": 300,
          "midi": 36,
          "name": "C2",
          "ticks": 47040,
          "time": 34.999916,
          "velocity": 0.6220472440944882
        },
        {
          "duration": 0.22321374999999932,
          "durationTicks": 300,
          "midi": 46,
          "name": "A#2",
          "ticks": 47040,
          "time": 34.999916,
          "velocity": 0.6220472440944882
        },
        {
          "duration": 0.22321374999999932,
          "durationTicks": 300,
          "midi": 36,
          "name": "C2",
          "ticks": 47520,
          "time": 35.357057999999995,
          "velocity": 0.6220472440944882
        },
        {
          "duration": 0.22321374999999932,
          "durationTicks": 300,
          "midi": 38,
          "name": "D2",
          "ticks": 47520,
          "time": 35.357057999999995,
          "velocity": 0.6220472440944882
        },
        {
          "duration": 0.17857099999999804,
          "durationTicks": 240,
          "midi": 46,
          "name": "A#2",
          "ticks": 47520,
          "time": 35.357057999999995,
          "velocity": 0.6220472440944882
        },
        {
          "duration": 0.17857100000000514,
          "durationTicks": 240,
          "midi": 46,
          "name": "A#2",
          "ticks": 47760,
          "time": 35.53562899999999,
          "velocity": 0.6220472440944882
        },
        {
          "duration": 0.22321374999999932,
          "durationTicks": 300,
          "midi": 36,
          "name": "C2",
          "ticks": 48000,
          "time": 35.7142,
          "velocity": 0.6220472440944882
        },
        {
          "duration": 0.22321374999999932,
          "durationTicks": 300,
          "midi": 46,
          "name": "A#2",
          "ticks": 48000,
          "time": 35.7142,
          "velocity": 0.6220472440944882
        },
        {
          "duration": 0.22321374999999932,
          "durationTicks": 300,
          "midi": 36,
          "name": "C2",
          "ticks": 48480,
          "time": 36.071341999999994,
          "velocity": 0.6220472440944882
        },
        {
          "duration": 0.22321374999999932,
          "durationTicks": 300,
          "midi": 38,
          "name": "D2",
          "ticks": 48480,
          "time": 36.071341999999994,
          "velocity": 0.6220472440944882
        },
        {
          "duration": 0.17857100000000514,
          "durationTicks": 240,
          "midi": 46,
          "name": "A#2",
          "ticks": 48480,
          "time": 36.071341999999994,
          "velocity": 0.6220472440944882
        },
        {
          "duration": 0.17857099999999804,
          "durationTicks": 240,
          "midi": 46,
          "name": "A#2",
          "ticks": 48720,
          "time": 36.249913,
          "velocity": 0.6220472440944882
        },
        {
          "duration": 0.22321374999999932,
          "durationTicks": 300,
          "midi": 36,
          "name": "C2",
          "ticks": 48960,
          "time": 36.428484,
          "velocity": 0.6220472440944882
        },
        {
          "duration": 0.22321374999999932,
          "durationTicks": 300,
          "midi": 46,
          "name": "A#2",
          "ticks": 48960,
          "time": 36.428484,
          "velocity": 0.6220472440944882
        },
        {
          "duration": 0.22321374999999932,
          "durationTicks": 300,
          "midi": 36,
          "name": "C2",
          "ticks": 49440,
          "time": 36.78562599999999,
          "velocity": 0.6220472440944882
        },
        {
          "duration": 0.22321374999999932,
          "durationTicks": 300,
          "midi": 38,
          "name": "D2",
          "ticks": 49440,
          "time": 36.78562599999999,
          "velocity": 0.6220472440944882
        },
        {
          "duration": 0.17857100000000514,
          "durationTicks": 240,
          "midi": 46,
          "name": "A#2",
          "ticks": 49440,
          "time": 36.78562599999999,
          "velocity": 0.6220472440944882
        },
        {
          "duration": 0.17857099999999804,
          "durationTicks": 240,
          "midi": 46,
          "name": "A#2",
          "ticks": 49680,
          "time": 36.964197,
          "velocity": 0.6220472440944882
        },
        {
          "duration": 0.22321374999999932,
          "durationTicks": 300,
          "midi": 36,
          "name": "C2",
          "ticks": 49920,
          "time": 37.142768,
          "velocity": 0.6220472440944882
        },
        {
          "duration": 0.22321374999999932,
          "durationTicks": 300,
          "midi": 46,
          "name": "A#2",
          "ticks": 49920,
          "time": 37.142768,
          "velocity": 0.6220472440944882
        },
        {
          "duration": 0.22321375000000643,
          "durationTicks": 300,
          "midi": 36,
          "name": "C2",
          "ticks": 50400,
          "time": 37.49990999999999,
          "velocity": 0.6220472440944882
        },
        {
          "duration": 0.22321375000000643,
          "durationTicks": 300,
          "midi": 38,
          "name": "D2",
          "ticks": 50400,
          "time": 37.49990999999999,
          "velocity": 0.6220472440944882
        },
        {
          "duration": 0.17857100000000514,
          "durationTicks": 240,
          "midi": 46,
          "name": "A#2",
          "ticks": 50400,
          "time": 37.49990999999999,
          "velocity": 0.6220472440944882
        },
        {
          "duration": 0.17857099999999804,
          "durationTicks": 240,
          "midi": 46,
          "name": "A#2",
          "ticks": 50640,
          "time": 37.678481,
          "velocity": 0.6220472440944882
        },
        {
          "duration": 0.22321374999999932,
          "durationTicks": 300,
          "midi": 36,
          "name": "C2",
          "ticks": 50880,
          "time": 37.857051999999996,
          "velocity": 0.6220472440944882
        },
        {
          "duration": 0.22321374999999932,
          "durationTicks": 300,
          "midi": 46,
          "name": "A#2",
          "ticks": 50880,
          "time": 37.857051999999996,
          "velocity": 0.6220472440944882
        },
        {
          "duration": 0.22321374999999932,
          "durationTicks": 300,
          "midi": 36,
          "name": "C2",
          "ticks": 51360,
          "time": 38.214194,
          "velocity": 0.6220472440944882
        },
        {
          "duration": 0.22321374999999932,
          "durationTicks": 300,
          "midi": 38,
          "name": "D2",
          "ticks": 51360,
          "time": 38.214194,
          "velocity": 0.6220472440944882
        },
        {
          "duration": 0.17857099999999804,
          "durationTicks": 240,
          "midi": 46,
          "name": "A#2",
          "ticks": 51360,
          "time": 38.214194,
          "velocity": 0.6220472440944882
        },
        {
          "duration": 0.17857099999999804,
          "durationTicks": 240,
          "midi": 46,
          "name": "A#2",
          "ticks": 51600,
          "time": 38.392765,
          "velocity": 0.6220472440944882
        },
        {
          "duration": 0.22321374999999932,
          "durationTicks": 300,
          "midi": 36,
          "name": "C2",
          "ticks": 51840,
          "time": 38.571335999999995,
          "velocity": 0.6220472440944882
        },
        {
          "duration": 0.22321374999999932,
          "durationTicks": 300,
          "midi": 46,
          "name": "A#2",
          "ticks": 51840,
          "time": 38.571335999999995,
          "velocity": 0.6220472440944882
        },
        {
          "duration": 0.22321374999999932,
          "durationTicks": 300,
          "midi": 36,
          "name": "C2",
          "ticks": 52320,
          "time": 38.928478,
          "velocity": 0.6220472440944882
        },
        {
          "duration": 0.22321374999999932,
          "durationTicks": 300,
          "midi": 38,
          "name": "D2",
          "ticks": 52320,
          "time": 38.928478,
          "velocity": 0.6220472440944882
        },
        {
          "duration": 0.17857099999999804,
          "durationTicks": 240,
          "midi": 46,
          "name": "A#2",
          "ticks": 52320,
          "time": 38.928478,
          "velocity": 0.6220472440944882
        },
        {
          "duration": 0.17857099999999804,
          "durationTicks": 240,
          "midi": 46,
          "name": "A#2",
          "ticks": 52560,
          "time": 39.107048999999996,
          "velocity": 0.6220472440944882
        },
        {
          "duration": 0.22321374999999932,
          "durationTicks": 300,
          "midi": 36,
          "name": "C2",
          "ticks": 52800,
          "time": 39.285619999999994,
          "velocity": 0.6220472440944882
        },
        {
          "duration": 0.22321374999999932,
          "durationTicks": 300,
          "midi": 46,
          "name": "A#2",
          "ticks": 52800,
          "time": 39.285619999999994,
          "velocity": 0.6220472440944882
        },
        {
          "duration": 0.22321374999999932,
          "durationTicks": 300,
          "midi": 36,
          "name": "C2",
          "ticks": 53280,
          "time": 39.642762,
          "velocity": 0.6220472440944882
        },
        {
          "duration": 0.22321374999999932,
          "durationTicks": 300,
          "midi": 38,
          "name": "D2",
          "ticks": 53280,
          "time": 39.642762,
          "velocity": 0.6220472440944882
        },
        {
          "duration": 0.17857099999999804,
          "durationTicks": 240,
          "midi": 46,
          "name": "A#2",
          "ticks": 53280,
          "time": 39.642762,
          "velocity": 0.6220472440944882
        },
        {
          "duration": 0.17857099999999804,
          "durationTicks": 240,
          "midi": 46,
          "name": "A#2",
          "ticks": 53520,
          "time": 39.821332999999996,
          "velocity": 0.6220472440944882
        },
        {
          "duration": 0.22321374999999932,
          "durationTicks": 300,
          "midi": 36,
          "name": "C2",
          "ticks": 53760,
          "time": 39.999903999999994,
          "velocity": 0.6220472440944882
        },
        {
          "duration": 0.22321374999999932,
          "durationTicks": 300,
          "midi": 46,
          "name": "A#2",
          "ticks": 53760,
          "time": 39.999903999999994,
          "velocity": 0.6220472440944882
        },
        {
          "duration": 0.22321374999999932,
          "durationTicks": 300,
          "midi": 36,
          "name": "C2",
          "ticks": 54240,
          "time": 40.357046,
          "velocity": 0.6220472440944882
        },
        {
          "duration": 0.22321374999999932,
          "durationTicks": 300,
          "midi": 38,
          "name": "D2",
          "ticks": 54240,
          "time": 40.357046,
          "velocity": 0.6220472440944882
        },
        {
          "duration": 0.17857099999999804,
          "durationTicks": 240,
          "midi": 46,
          "name": "A#2",
          "ticks": 54240,
          "time": 40.357046,
          "velocity": 0.6220472440944882
        },
        {
          "duration": 0.17857099999999804,
          "durationTicks": 240,
          "midi": 46,
          "name": "A#2",
          "ticks": 54480,
          "time": 40.535616999999995,
          "velocity": 0.6220472440944882
        },
        {
          "duration": 0.22321374999999932,
          "durationTicks": 300,
          "midi": 36,
          "name": "C2",
          "ticks": 54720,
          "time": 40.71418799999999,
          "velocity": 0.6220472440944882
        },
        {
          "duration": 0.22321374999999932,
          "durationTicks": 300,
          "midi": 46,
          "name": "A#2",
          "ticks": 54720,
          "time": 40.71418799999999,
          "velocity": 0.6220472440944882
        },
        {
          "duration": 0.22321374999999932,
          "durationTicks": 300,
          "midi": 36,
          "name": "C2",
          "ticks": 55200,
          "time": 41.071329999999996,
          "velocity": 0.6220472440944882
        },
        {
          "duration": 0.22321374999999932,
          "durationTicks": 300,
          "midi": 38,
          "name": "D2",
          "ticks": 55200,
          "time": 41.071329999999996,
          "velocity": 0.6220472440944882
        },
        {
          "duration": 0.17857099999999804,
          "durationTicks": 240,
          "midi": 46,
          "name": "A#2",
          "ticks": 55200,
          "time": 41.071329999999996,
          "velocity": 0.6220472440944882
        },
        {
          "duration": 0.22321374999999932,
          "durationTicks": 300,
          "midi": 46,
          "name": "A#2",
          "ticks": 55440,
          "time": 41.249900999999994,
          "velocity": 0.6220472440944882
        },
        {
          "duration": 0.11904733333333439,
          "durationTicks": 160,
          "midi": 36,
          "name": "C2",
          "ticks": 55680,
          "time": 41.42847199999999,
          "velocity": 0.6220472440944882
        },
        {
          "duration": 0.11904733333333439,
          "durationTicks": 160,
          "midi": 38,
          "name": "D2",
          "ticks": 55680,
          "time": 41.42847199999999,
          "velocity": 0.6220472440944882
        },
        {
          "duration": 0.11904733333333439,
          "durationTicks": 160,
          "midi": 49,
          "name": "C#3",
          "ticks": 55680,
          "time": 41.42847199999999,
          "velocity": 0.6220472440944882
        },
        {
          "duration": 0.059523666666663644,
          "durationTicks": 80,
          "midi": 36,
          "name": "C2",
          "ticks": 57600,
          "time": 42.85704,
          "velocity": 0.6220472440944882
        },
        {
          "duration": 0.11904733333332729,
          "durationTicks": 160,
          "midi": 46,
          "name": "A#2",
          "ticks": 57600,
          "time": 42.85704,
          "velocity": 0.6220472440944882
        },
        {
          "duration": 0.11904733333332729,
          "durationTicks": 160,
          "midi": 49,
          "name": "C#3",
          "ticks": 57600,
          "time": 42.85704,
          "velocity": 0.6220472440944882
        },
        {
          "duration": 0.05952366666667075,
          "durationTicks": 80,
          "midi": 36,
          "name": "C2",
          "ticks": 58080,
          "time": 43.214181999999994,
          "velocity": 0.6220472440944882
        },
        {
          "duration": 0.05952366666667075,
          "durationTicks": 80,
          "midi": 38,
          "name": "D2",
          "ticks": 58080,
          "time": 43.214181999999994,
          "velocity": 0.6220472440944882
        },
        {
          "duration": 0.05952366666667075,
          "durationTicks": 80,
          "midi": 46,
          "name": "A#2",
          "ticks": 58080,
          "time": 43.214181999999994,
          "velocity": 0.6220472440944882
        },
        {
          "duration": 0.11904733333333439,
          "durationTicks": 160,
          "midi": 49,
          "name": "C#3",
          "ticks": 58080,
          "time": 43.214181999999994,
          "velocity": 0.6220472440944882
        },
        {
          "duration": 0.05952366666667075,
          "durationTicks": 80,
          "midi": 46,
          "name": "A#2",
          "ticks": 58320,
          "time": 43.39275299999999,
          "velocity": 0.6220472440944882
        },
        {
          "duration": 0.059523666666663644,
          "durationTicks": 80,
          "midi": 36,
          "name": "C2",
          "ticks": 58560,
          "time": 43.571324,
          "velocity": 0.6220472440944882
        },
        {
          "duration": 0.059523666666663644,
          "durationTicks": 80,
          "midi": 46,
          "name": "A#2",
          "ticks": 58560,
          "time": 43.571324,
          "velocity": 0.6220472440944882
        },
        {
          "duration": 0.05952366666667075,
          "durationTicks": 80,
          "midi": 36,
          "name": "C2",
          "ticks": 59040,
          "time": 43.92846599999999,
          "velocity": 0.6220472440944882
        },
        {
          "duration": 0.05952366666667075,
          "durationTicks": 80,
          "midi": 38,
          "name": "D2",
          "ticks": 59040,
          "time": 43.92846599999999,
          "velocity": 0.6220472440944882
        },
        {
          "duration": 0.05952366666667075,
          "durationTicks": 80,
          "midi": 46,
          "name": "A#2",
          "ticks": 59040,
          "time": 43.92846599999999,
          "velocity": 0.6220472440944882
        },
        {
          "duration": 0.059523666666663644,
          "durationTicks": 80,
          "midi": 46,
          "name": "A#2",
          "ticks": 59280,
          "time": 44.107037,
          "velocity": 0.6220472440944882
        },
        {
          "duration": 0.059523666666663644,
          "durationTicks": 80,
          "midi": 36,
          "name": "C2",
          "ticks": 59520,
          "time": 44.285607999999996,
          "velocity": 0.6220472440944882
        },
        {
          "duration": 0.11904733333332729,
          "durationTicks": 160,
          "midi": 46,
          "name": "A#2",
          "ticks": 59520,
          "time": 44.285607999999996,
          "velocity": 0.6220472440944882
        },
        {
          "duration": 0.05952366666667075,
          "durationTicks": 80,
          "midi": 36,
          "name": "C2",
          "ticks": 60000,
          "time": 44.64274999999999,
          "velocity": 0.6220472440944882
        },
        {
          "duration": 0.05952366666667075,
          "durationTicks": 80,
          "midi": 38,
          "name": "D2",
          "ticks": 60000,
          "time": 44.64274999999999,
          "velocity": 0.6220472440944882
        },
        {
          "duration": 0.05952366666667075,
          "durationTicks": 80,
          "midi": 46,
          "name": "A#2",
          "ticks": 60000,
          "time": 44.64274999999999,
          "velocity": 0.6220472440944882
        },
        {
          "duration": 0.059523666666663644,
          "durationTicks": 80,
          "midi": 46,
          "name": "A#2",
          "ticks": 60240,
          "time": 44.821321,
          "velocity": 0.6220472440944882
        },
        {
          "duration": 0.05952366666667075,
          "durationTicks": 80,
          "midi": 36,
          "name": "C2",
          "ticks": 60480,
          "time": 44.999891999999996,
          "velocity": 0.6220472440944882
        },
        {
          "duration": 0.05952366666667075,
          "durationTicks": 80,
          "midi": 46,
          "name": "A#2",
          "ticks": 60480,
          "time": 44.999891999999996,
          "velocity": 0.6220472440944882
        },
        {
          "duration": 0.05952366666667075,
          "durationTicks": 80,
          "midi": 36,
          "name": "C2",
          "ticks": 60960,
          "time": 45.35703399999999,
          "velocity": 0.6220472440944882
        },
        {
          "duration": 0.05952366666667075,
          "durationTicks": 80,
          "midi": 38,
          "name": "D2",
          "ticks": 60960,
          "time": 45.35703399999999,
          "velocity": 0.6220472440944882
        },
        {
          "duration": 0.05952366666667075,
          "durationTicks": 80,
          "midi": 46,
          "name": "A#2",
          "ticks": 60960,
          "time": 45.35703399999999,
          "velocity": 0.6220472440944882
        },
        {
          "duration": 0.059523666666663644,
          "durationTicks": 80,
          "midi": 46,
          "name": "A#2",
          "ticks": 61200,
          "time": 45.535605,
          "velocity": 0.6220472440944882
        },
        {
          "duration": 0.059523666666663644,
          "durationTicks": 80,
          "midi": 36,
          "name": "C2",
          "ticks": 61440,
          "time": 45.714175999999995,
          "velocity": 0.6220472440944882
        },
        {
          "duration": 0.11904733333333439,
          "durationTicks": 160,
          "midi": 46,
          "name": "A#2",
          "ticks": 61440,
          "time": 45.714175999999995,
          "velocity": 0.6220472440944882
        },
        {
          "duration": 0.05952366666665654,
          "durationTicks": 80,
          "midi": 36,
          "name": "C2",
          "ticks": 61920,
          "time": 46.071318,
          "velocity": 0.6220472440944882
        },
        {
          "duration": 0.05952366666665654,
          "durationTicks": 80,
          "midi": 38,
          "name": "D2",
          "ticks": 61920,
          "time": 46.071318,
          "velocity": 0.6220472440944882
        },
        {
          "duration": 0.05952366666665654,
          "durationTicks": 80,
          "midi": 46,
          "name": "A#2",
          "ticks": 61920,
          "time": 46.071318,
          "velocity": 0.6220472440944882
        },
        {
          "duration": 0.059523666666663644,
          "durationTicks": 80,
          "midi": 46,
          "name": "A#2",
          "ticks": 62160,
          "time": 46.249888999999996,
          "velocity": 0.6220472440944882
        },
        {
          "duration": 0.059523666666663644,
          "durationTicks": 80,
          "midi": 36,
          "name": "C2",
          "ticks": 62400,
          "time": 46.428459999999994,
          "velocity": 0.6220472440944882
        },
        {
          "duration": 0.059523666666663644,
          "durationTicks": 80,
          "midi": 46,
          "name": "A#2",
          "ticks": 62400,
          "time": 46.428459999999994,
          "velocity": 0.6220472440944882
        },
        {
          "duration": 0.059523666666663644,
          "durationTicks": 80,
          "midi": 36,
          "name": "C2",
          "ticks": 62880,
          "time": 46.785602,
          "velocity": 0.6220472440944882
        },
        {
          "duration": 0.059523666666663644,
          "durationTicks": 80,
          "midi": 38,
          "name": "D2",
          "ticks": 62880,
          "time": 46.785602,
          "velocity": 0.6220472440944882
        },
        {
          "duration": 0.059523666666663644,
          "durationTicks": 80,
          "midi": 46,
          "name": "A#2",
          "ticks": 62880,
          "time": 46.785602,
          "velocity": 0.6220472440944882
        },
        {
          "duration": 0.059523666666663644,
          "durationTicks": 80,
          "midi": 46,
          "name": "A#2",
          "ticks": 63120,
          "time": 46.964172999999995,
          "velocity": 0.6220472440944882
        },
        {
          "duration": 0.059523666666663644,
          "durationTicks": 80,
          "midi": 36,
          "name": "C2",
          "ticks": 63360,
          "time": 47.14274399999999,
          "velocity": 0.6220472440944882
        },
        {
          "duration": 0.1190473333333415,
          "durationTicks": 160,
          "midi": 46,
          "name": "A#2",
          "ticks": 63360,
          "time": 47.14274399999999,
          "velocity": 0.6220472440944882
        },
        {
          "duration": 0.059523666666663644,
          "durationTicks": 80,
          "midi": 36,
          "name": "C2",
          "ticks": 63840,
          "time": 47.499886,
          "velocity": 0.6220472440944882
        },
        {
          "duration": 0.059523666666663644,
          "durationTicks": 80,
          "midi": 38,
          "name": "D2",
          "ticks": 63840,
          "time": 47.499886,
          "velocity": 0.6220472440944882
        },
        {
          "duration": 0.059523666666663644,
          "durationTicks": 80,
          "midi": 46,
          "name": "A#2",
          "ticks": 63840,
          "time": 47.499886,
          "velocity": 0.6220472440944882
        },
        {
          "duration": 0.059523666666663644,
          "durationTicks": 80,
          "midi": 46,
          "name": "A#2",
          "ticks": 64080,
          "time": 47.678456999999995,
          "velocity": 0.6220472440944882
        },
        {
          "duration": 0.059523666666663644,
          "durationTicks": 80,
          "midi": 36,
          "name": "C2",
          "ticks": 64320,
          "time": 47.85702799999999,
          "velocity": 0.6220472440944882
        },
        {
          "duration": 0.059523666666663644,
          "durationTicks": 80,
          "midi": 46,
          "name": "A#2",
          "ticks": 64320,
          "time": 47.85702799999999,
          "velocity": 0.6220472440944882
        },
        {
          "duration": 0.059523666666663644,
          "durationTicks": 80,
          "midi": 36,
          "name": "C2",
          "ticks": 64800,
          "time": 48.214169999999996,
          "velocity": 0.6220472440944882
        },
        {
          "duration": 0.059523666666663644,
          "durationTicks": 80,
          "midi": 38,
          "name": "D2",
          "ticks": 64800,
          "time": 48.214169999999996,
          "velocity": 0.6220472440944882
        },
        {
          "duration": 0.059523666666663644,
          "durationTicks": 80,
          "midi": 46,
          "name": "A#2",
          "ticks": 64800,
          "time": 48.214169999999996,
          "velocity": 0.6220472440944882
        },
        {
          "duration": 0.059523666666663644,
          "durationTicks": 80,
          "midi": 46,
          "name": "A#2",
          "ticks": 65040,
          "time": 48.392740999999994,
          "velocity": 0.6220472440944882
        },
        {
          "duration": 0.059523666666663644,
          "durationTicks": 80,
          "midi": 36,
          "name": "C2",
          "ticks": 65280,
          "time": 48.57131199999999,
          "velocity": 0.6220472440944882
        },
        {
          "duration": 0.1190473333333415,
          "durationTicks": 160,
          "midi": 46,
          "name": "A#2",
          "ticks": 65280,
          "time": 48.57131199999999,
          "velocity": 0.6220472440944882
        },
        {
          "duration": 0.059523666666663644,
          "durationTicks": 80,
          "midi": 36,
          "name": "C2",
          "ticks": 65760,
          "time": 48.928453999999995,
          "velocity": 0.6220472440944882
        },
        {
          "duration": 0.059523666666663644,
          "durationTicks": 80,
          "midi": 38,
          "name": "D2",
          "ticks": 65760,
          "time": 48.928453999999995,
          "velocity": 0.6220472440944882
        },
        {
          "duration": 0.059523666666663644,
          "durationTicks": 80,
          "midi": 46,
          "name": "A#2",
          "ticks": 65760,
          "time": 48.928453999999995,
          "velocity": 0.6220472440944882
        },
        {
          "duration": 0.059523666666663644,
          "durationTicks": 80,
          "midi": 46,
          "name": "A#2",
          "ticks": 66000,
          "time": 49.10702499999999,
          "velocity": 0.6220472440944882
        },
        {
          "duration": 0.059523666666663644,
          "durationTicks": 80,
          "midi": 36,
          "name": "C2",
          "ticks": 66240,
          "time": 49.28559599999999,
          "velocity": 0.6220472440944882
        },
        {
          "duration": 0.059523666666663644,
          "durationTicks": 80,
          "midi": 46,
          "name": "A#2",
          "ticks": 66240,
          "time": 49.28559599999999,
          "velocity": 0.6220472440944882
        },
        {
          "duration": 0.059523666666663644,
          "durationTicks": 80,
          "midi": 36,
          "name": "C2",
          "ticks": 66720,
          "time": 49.642737999999994,
          "velocity": 0.6220472440944882
        },
        {
          "duration": 0.059523666666663644,
          "durationTicks": 80,
          "midi": 38,
          "name": "D2",
          "ticks": 66720,
          "time": 49.642737999999994,
          "velocity": 0.6220472440944882
        },
        {
          "duration": 0.059523666666663644,
          "durationTicks": 80,
          "midi": 46,
          "name": "A#2",
          "ticks": 66720,
          "time": 49.642737999999994,
          "velocity": 0.6220472440944882
        },
        {
          "duration": 0.059523666666663644,
          "durationTicks": 80,
          "midi": 46,
          "name": "A#2",
          "ticks": 66960,
          "time": 49.82130899999999,
          "velocity": 0.6220472440944882
        },
        {
          "duration": 0.059523666666663644,
          "durationTicks": 80,
          "midi": 36,
          "name": "C2",
          "ticks": 67200,
          "time": 49.99988,
          "velocity": 0.6220472440944882
        },
        {
          "duration": 0.11904733333333439,
          "durationTicks": 160,
          "midi": 46,
          "name": "A#2",
          "ticks": 67200,
          "time": 49.99988,
          "velocity": 0.6220472440944882
        },
        {
          "duration": 0.059523666666663644,
          "durationTicks": 80,
          "midi": 36,
          "name": "C2",
          "ticks": 67680,
          "time": 50.35702199999999,
          "velocity": 0.6220472440944882
        },
        {
          "duration": 0.059523666666663644,
          "durationTicks": 80,
          "midi": 38,
          "name": "D2",
          "ticks": 67680,
          "time": 50.35702199999999,
          "velocity": 0.6220472440944882
        },
        {
          "duration": 0.059523666666663644,
          "durationTicks": 80,
          "midi": 46,
          "name": "A#2",
          "ticks": 67680,
          "time": 50.35702199999999,
          "velocity": 0.6220472440944882
        },
        {
          "duration": 0.059523666666663644,
          "durationTicks": 80,
          "midi": 46,
          "name": "A#2",
          "ticks": 67920,
          "time": 50.53559299999999,
          "velocity": 0.6220472440944882
        },
        {
          "duration": 0.059523666666663644,
          "durationTicks": 80,
          "midi": 36,
          "name": "C2",
          "ticks": 68160,
          "time": 50.714164,
          "velocity": 0.6220472440944882
        },
        {
          "duration": 0.059523666666663644,
          "durationTicks": 80,
          "midi": 46,
          "name": "A#2",
          "ticks": 68160,
          "time": 50.714164,
          "velocity": 0.6220472440944882
        },
        {
          "duration": 0.059523666666663644,
          "durationTicks": 80,
          "midi": 36,
          "name": "C2",
          "ticks": 68640,
          "time": 51.07130599999999,
          "velocity": 0.6220472440944882
        },
        {
          "duration": 0.059523666666663644,
          "durationTicks": 80,
          "midi": 38,
          "name": "D2",
          "ticks": 68640,
          "time": 51.07130599999999,
          "velocity": 0.6220472440944882
        },
        {
          "duration": 0.059523666666663644,
          "durationTicks": 80,
          "midi": 46,
          "name": "A#2",
          "ticks": 68640,
          "time": 51.07130599999999,
          "velocity": 0.6220472440944882
        },
        {
          "duration": 0.059523666666663644,
          "durationTicks": 80,
          "midi": 46,
          "name": "A#2",
          "ticks": 68880,
          "time": 51.24987699999999,
          "velocity": 0.6220472440944882
        },
        {
          "duration": 0.059523666666663644,
          "durationTicks": 80,
          "midi": 36,
          "name": "C2",
          "ticks": 69120,
          "time": 51.428447999999996,
          "velocity": 0.6220472440944882
        },
        {
          "duration": 0.11904733333333439,
          "durationTicks": 160,
          "midi": 46,
          "name": "A#2",
          "ticks": 69120,
          "time": 51.428447999999996,
          "velocity": 0.6220472440944882
        },
        {
          "duration": 0.059523666666663644,
          "durationTicks": 80,
          "midi": 36,
          "name": "C2",
          "ticks": 69600,
          "time": 51.78558999999999,
          "velocity": 0.6220472440944882
        },
        {
          "duration": 0.059523666666663644,
          "durationTicks": 80,
          "midi": 38,
          "name": "D2",
          "ticks": 69600,
          "time": 51.78558999999999,
          "velocity": 0.6220472440944882
        },
        {
          "duration": 0.059523666666663644,
          "durationTicks": 80,
          "midi": 46,
          "name": "A#2",
          "ticks": 69600,
          "time": 51.78558999999999,
          "velocity": 0.6220472440944882
        },
        {
          "duration": 0.059523666666663644,
          "durationTicks": 80,
          "midi": 46,
          "name": "A#2",
          "ticks": 69840,
          "time": 51.964161,
          "velocity": 0.6220472440944882
        },
        {
          "duration": 0.059523666666663644,
          "durationTicks": 80,
          "midi": 36,
          "name": "C2",
          "ticks": 70080,
          "time": 52.142731999999995,
          "velocity": 0.6220472440944882
        },
        {
          "duration": 0.059523666666663644,
          "durationTicks": 80,
          "midi": 46,
          "name": "A#2",
          "ticks": 70080,
          "time": 52.142731999999995,
          "velocity": 0.6220472440944882
        },
        {
          "duration": 0.059523666666663644,
          "durationTicks": 80,
          "midi": 36,
          "name": "C2",
          "ticks": 70560,
          "time": 52.49987399999999,
          "velocity": 0.6220472440944882
        },
        {
          "duration": 0.059523666666663644,
          "durationTicks": 80,
          "midi": 38,
          "name": "D2",
          "ticks": 70560,
          "time": 52.49987399999999,
          "velocity": 0.6220472440944882
        },
        {
          "duration": 0.059523666666663644,
          "durationTicks": 80,
          "midi": 46,
          "name": "A#2",
          "ticks": 70560,
          "time": 52.49987399999999,
          "velocity": 0.6220472440944882
        },
        {
          "duration": 0.059523666666663644,
          "durationTicks": 80,
          "midi": 46,
          "name": "A#2",
          "ticks": 70800,
          "time": 52.678444999999996,
          "velocity": 0.6220472440944882
        },
        {
          "duration": 0.059523666666663644,
          "durationTicks": 80,
          "midi": 36,
          "name": "C2",
          "ticks": 71040,
          "time": 52.857015999999994,
          "velocity": 0.6220472440944882
        },
        {
          "duration": 0.11904733333333439,
          "durationTicks": 160,
          "midi": 46,
          "name": "A#2",
          "ticks": 71040,
          "time": 52.857015999999994,
          "velocity": 0.6220472440944882
        },
        {
          "duration": 0.059523666666663644,
          "durationTicks": 80,
          "midi": 36,
          "name": "C2",
          "ticks": 71520,
          "time": 53.21415799999999,
          "velocity": 0.6220472440944882
        },
        {
          "duration": 0.059523666666663644,
          "durationTicks": 80,
          "midi": 38,
          "name": "D2",
          "ticks": 71520,
          "time": 53.21415799999999,
          "velocity": 0.6220472440944882
        },
        {
          "duration": 0.059523666666663644,
          "durationTicks": 80,
          "midi": 46,
          "name": "A#2",
          "ticks": 71520,
          "time": 53.21415799999999,
          "velocity": 0.6220472440944882
        },
        {
          "duration": 0.059523666666663644,
          "durationTicks": 80,
          "midi": 46,
          "name": "A#2",
          "ticks": 71760,
          "time": 53.392728999999996,
          "velocity": 0.6220472440944882
        },
        {
          "duration": 0.059523666666663644,
          "durationTicks": 80,
          "midi": 36,
          "name": "C2",
          "ticks": 72000,
          "time": 53.571299999999994,
          "velocity": 0.6220472440944882
        },
        {
          "duration": 0.059523666666663644,
          "durationTicks": 80,
          "midi": 46,
          "name": "A#2",
          "ticks": 72000,
          "time": 53.571299999999994,
          "velocity": 0.6220472440944882
        },
        {
          "duration": 0.059523666666663644,
          "durationTicks": 80,
          "midi": 36,
          "name": "C2",
          "ticks": 72480,
          "time": 53.928442,
          "velocity": 0.6220472440944882
        },
        {
          "duration": 0.059523666666663644,
          "durationTicks": 80,
          "midi": 38,
          "name": "D2",
          "ticks": 72480,
          "time": 53.928442,
          "velocity": 0.6220472440944882
        },
        {
          "duration": 0.059523666666663644,
          "durationTicks": 80,
          "midi": 46,
          "name": "A#2",
          "ticks": 72480,
          "time": 53.928442,
          "velocity": 0.6220472440944882
        },
        {
          "duration": 0.059523666666663644,
          "durationTicks": 80,
          "midi": 46,
          "name": "A#2",
          "ticks": 72720,
          "time": 54.107012999999995,
          "velocity": 0.6220472440944882
        },
        {
          "duration": 0.059523666666663644,
          "durationTicks": 80,
          "midi": 36,
          "name": "C2",
          "ticks": 72960,
          "time": 54.28558399999999,
          "velocity": 0.6220472440944882
        },
        {
          "duration": 0.11904733333333439,
          "durationTicks": 160,
          "midi": 46,
          "name": "A#2",
          "ticks": 72960,
          "time": 54.28558399999999,
          "velocity": 0.6220472440944882
        },
        {
          "duration": 0.059523666666663644,
          "durationTicks": 80,
          "midi": 36,
          "name": "C2",
          "ticks": 73440,
          "time": 54.642725999999996,
          "velocity": 0.6220472440944882
        },
        {
          "duration": 0.059523666666663644,
          "durationTicks": 80,
          "midi": 38,
          "name": "D2",
          "ticks": 73440,
          "time": 54.642725999999996,
          "velocity": 0.6220472440944882
        },
        {
          "duration": 0.059523666666663644,
          "durationTicks": 80,
          "midi": 46,
          "name": "A#2",
          "ticks": 73440,
          "time": 54.642725999999996,
          "velocity": 0.6220472440944882
        },
        {
          "duration": 0.059523666666663644,
          "durationTicks": 80,
          "midi": 46,
          "name": "A#2",
          "ticks": 73680,
          "time": 54.821296999999994,
          "velocity": 0.6220472440944882
        },
        {
          "duration": 0.059523666666663644,
          "durationTicks": 80,
          "midi": 36,
          "name": "C2",
          "ticks": 73920,
          "time": 54.99986799999999,
          "velocity": 0.6220472440944882
        },
        {
          "duration": 0.059523666666663644,
          "durationTicks": 80,
          "midi": 46,
          "name": "A#2",
          "ticks": 73920,
          "time": 54.99986799999999,
          "velocity": 0.6220472440944882
        },
        {
          "duration": 0.059523666666663644,
          "durationTicks": 80,
          "midi": 36,
          "name": "C2",
          "ticks": 74400,
          "time": 55.357009999999995,
          "velocity": 0.6220472440944882
        },
        {
          "duration": 0.059523666666663644,
          "durationTicks": 80,
          "midi": 38,
          "name": "D2",
          "ticks": 74400,
          "time": 55.357009999999995,
          "velocity": 0.6220472440944882
        },
        {
          "duration": 0.059523666666663644,
          "durationTicks": 80,
          "midi": 46,
          "name": "A#2",
          "ticks": 74400,
          "time": 55.357009999999995,
          "velocity": 0.6220472440944882
        },
        {
          "duration": 0.059523666666663644,
          "durationTicks": 80,
          "midi": 46,
          "name": "A#2",
          "ticks": 74640,
          "time": 55.53558099999999,
          "velocity": 0.6220472440944882
        },
        {
          "duration": 0.059523666666663644,
          "durationTicks": 80,
          "midi": 36,
          "name": "C2",
          "ticks": 74880,
          "time": 55.71415199999999,
          "velocity": 0.6220472440944882
        },
        {
          "duration": 0.1190473333333415,
          "durationTicks": 160,
          "midi": 46,
          "name": "A#2",
          "ticks": 74880,
          "time": 55.71415199999999,
          "velocity": 0.6220472440944882
        },
        {
          "duration": 0.059523666666663644,
          "durationTicks": 80,
          "midi": 36,
          "name": "C2",
          "ticks": 75360,
          "time": 56.071293999999995,
          "velocity": 0.6220472440944882
        },
        {
          "duration": 0.059523666666663644,
          "durationTicks": 80,
          "midi": 38,
          "name": "D2",
          "ticks": 75360,
          "time": 56.071293999999995,
          "velocity": 0.6220472440944882
        },
        {
          "duration": 0.059523666666663644,
          "durationTicks": 80,
          "midi": 46,
          "name": "A#2",
          "ticks": 75360,
          "time": 56.071293999999995,
          "velocity": 0.6220472440944882
        },
        {
          "duration": 0.059523666666663644,
          "durationTicks": 80,
          "midi": 46,
          "name": "A#2",
          "ticks": 75600,
          "time": 56.24986499999999,
          "velocity": 0.6220472440944882
        },
        {
          "duration": 0.059523666666663644,
          "durationTicks": 80,
          "midi": 36,
          "name": "C2",
          "ticks": 75840,
          "time": 56.42843599999999,
          "velocity": 0.6220472440944882
        },
        {
          "duration": 0.059523666666663644,
          "durationTicks": 80,
          "midi": 46,
          "name": "A#2",
          "ticks": 75840,
          "time": 56.42843599999999,
          "velocity": 0.6220472440944882
        },
        {
          "duration": 0.059523666666663644,
          "durationTicks": 80,
          "midi": 36,
          "name": "C2",
          "ticks": 76320,
          "time": 56.785577999999994,
          "velocity": 0.6220472440944882
        },
        {
          "duration": 0.059523666666663644,
          "durationTicks": 80,
          "midi": 38,
          "name": "D2",
          "ticks": 76320,
          "time": 56.785577999999994,
          "velocity": 0.6220472440944882
        },
        {
          "duration": 0.059523666666663644,
          "durationTicks": 80,
          "midi": 46,
          "name": "A#2",
          "ticks": 76320,
          "time": 56.785577999999994,
          "velocity": 0.6220472440944882
        },
        {
          "duration": 0.059523666666663644,
          "durationTicks": 80,
          "midi": 46,
          "name": "A#2",
          "ticks": 76560,
          "time": 56.96414899999999,
          "velocity": 0.6220472440944882
        },
        {
          "duration": 0.05952366666665654,
          "durationTicks": 80,
          "midi": 36,
          "name": "C2",
          "ticks": 76800,
          "time": 57.14272,
          "velocity": 0.6220472440944882
        },
        {
          "duration": 0.11904733333333439,
          "durationTicks": 160,
          "midi": 46,
          "name": "A#2",
          "ticks": 76800,
          "time": 57.14272,
          "velocity": 0.6220472440944882
        },
        {
          "duration": 0.11904733333333439,
          "durationTicks": 160,
          "midi": 49,
          "name": "C#3",
          "ticks": 76800,
          "time": 57.14272,
          "velocity": 0.6220472440944882
        },
        {
          "duration": 0.059523666666663644,
          "durationTicks": 80,
          "midi": 36,
          "name": "C2",
          "ticks": 77280,
          "time": 57.49986199999999,
          "velocity": 0.6220472440944882
        },
        {
          "duration": 0.059523666666663644,
          "durationTicks": 80,
          "midi": 38,
          "name": "D2",
          "ticks": 77280,
          "time": 57.49986199999999,
          "velocity": 0.6220472440944882
        },
        {
          "duration": 0.059523666666663644,
          "durationTicks": 80,
          "midi": 46,
          "name": "A#2",
          "ticks": 77280,
          "time": 57.49986199999999,
          "velocity": 0.6220472440944882
        },
        {
          "duration": 0.059523666666663644,
          "durationTicks": 80,
          "midi": 46,
          "name": "A#2",
          "ticks": 77520,
          "time": 57.67843299999999,
          "velocity": 0.6220472440944882
        },
        {
          "duration": 0.059523666666663644,
          "durationTicks": 80,
          "midi": 36,
          "name": "C2",
          "ticks": 77760,
          "time": 57.857003999999996,
          "velocity": 0.6220472440944882
        },
        {
          "duration": 0.059523666666663644,
          "durationTicks": 80,
          "midi": 46,
          "name": "A#2",
          "ticks": 77760,
          "time": 57.857003999999996,
          "velocity": 0.6220472440944882
        },
        {
          "duration": 0.059523666666663644,
          "durationTicks": 80,
          "midi": 36,
          "name": "C2",
          "ticks": 78240,
          "time": 58.21414599999999,
          "velocity": 0.6220472440944882
        },
        {
          "duration": 0.059523666666663644,
          "durationTicks": 80,
          "midi": 38,
          "name": "D2",
          "ticks": 78240,
          "time": 58.21414599999999,
          "velocity": 0.6220472440944882
        },
        {
          "duration": 0.059523666666663644,
          "durationTicks": 80,
          "midi": 46,
          "name": "A#2",
          "ticks": 78240,
          "time": 58.21414599999999,
          "velocity": 0.6220472440944882
        },
        {
          "duration": 0.059523666666663644,
          "durationTicks": 80,
          "midi": 46,
          "name": "A#2",
          "ticks": 78480,
          "time": 58.39271699999999,
          "velocity": 0.6220472440944882
        },
        {
          "duration": 0.059523666666663644,
          "durationTicks": 80,
          "midi": 36,
          "name": "C2",
          "ticks": 78720,
          "time": 58.571287999999996,
          "velocity": 0.6220472440944882
        },
        {
          "duration": 0.11904733333333439,
          "durationTicks": 160,
          "midi": 46,
          "name": "A#2",
          "ticks": 78720,
          "time": 58.571287999999996,
          "velocity": 0.6220472440944882
        },
        {
          "duration": 0.059523666666663644,
          "durationTicks": 80,
          "midi": 36,
          "name": "C2",
          "ticks": 79200,
          "time": 58.92842999999999,
          "velocity": 0.6220472440944882
        },
        {
          "duration": 0.059523666666663644,
          "durationTicks": 80,
          "midi": 38,
          "name": "D2",
          "ticks": 79200,
          "time": 58.92842999999999,
          "velocity": 0.6220472440944882
        },
        {
          "duration": 0.059523666666663644,
          "durationTicks": 80,
          "midi": 46,
          "name": "A#2",
          "ticks": 79200,
          "time": 58.92842999999999,
          "velocity": 0.6220472440944882
        },
        {
          "duration": 0.05952366666665654,
          "durationTicks": 80,
          "midi": 46,
          "name": "A#2",
          "ticks": 79440,
          "time": 59.107001,
          "velocity": 0.6220472440944882
        },
        {
          "duration": 0.059523666666663644,
          "durationTicks": 80,
          "midi": 36,
          "name": "C2",
          "ticks": 79680,
          "time": 59.285571999999995,
          "velocity": 0.6220472440944882
        },
        {
          "duration": 0.059523666666663644,
          "durationTicks": 80,
          "midi": 46,
          "name": "A#2",
          "ticks": 79680,
          "time": 59.285571999999995,
          "velocity": 0.6220472440944882
        },
        {
          "duration": 0.059523666666663644,
          "durationTicks": 80,
          "midi": 36,
          "name": "C2",
          "ticks": 80160,
          "time": 59.64271399999999,
          "velocity": 0.6220472440944882
        },
        {
          "duration": 0.059523666666663644,
          "durationTicks": 80,
          "midi": 38,
          "name": "D2",
          "ticks": 80160,
          "time": 59.64271399999999,
          "velocity": 0.6220472440944882
        },
        {
          "duration": 0.059523666666663644,
          "durationTicks": 80,
          "midi": 46,
          "name": "A#2",
          "ticks": 80160,
          "time": 59.64271399999999,
          "velocity": 0.6220472440944882
        },
        {
          "duration": 0.059523666666663644,
          "durationTicks": 80,
          "midi": 46,
          "name": "A#2",
          "ticks": 80400,
          "time": 59.821284999999996,
          "velocity": 0.6220472440944882
        },
        {
          "duration": 0.059523666666663644,
          "durationTicks": 80,
          "midi": 36,
          "name": "C2",
          "ticks": 80640,
          "time": 59.999855999999994,
          "velocity": 0.6220472440944882
        },
        {
          "duration": 0.11904733333333439,
          "durationTicks": 160,
          "midi": 46,
          "name": "A#2",
          "ticks": 80640,
          "time": 59.999855999999994,
          "velocity": 0.6220472440944882
        },
        {
          "duration": 0.059523666666663644,
          "durationTicks": 80,
          "midi": 36,
          "name": "C2",
          "ticks": 81120,
          "time": 60.35699799999999,
          "velocity": 0.6220472440944882
        },
        {
          "duration": 0.059523666666663644,
          "durationTicks": 80,
          "midi": 38,
          "name": "D2",
          "ticks": 81120,
          "time": 60.35699799999999,
          "velocity": 0.6220472440944882
        },
        {
          "duration": 0.059523666666663644,
          "durationTicks": 80,
          "midi": 46,
          "name": "A#2",
          "ticks": 81120,
          "time": 60.35699799999999,
          "velocity": 0.6220472440944882
        },
        {
          "duration": 0.059523666666663644,
          "durationTicks": 80,
          "midi": 46,
          "name": "A#2",
          "ticks": 81360,
          "time": 60.535568999999995,
          "velocity": 0.6220472440944882
        },
        {
          "duration": 0.059523666666663644,
          "durationTicks": 80,
          "midi": 36,
          "name": "C2",
          "ticks": 81600,
          "time": 60.71413999999999,
          "velocity": 0.6220472440944882
        },
        {
          "duration": 0.059523666666663644,
          "durationTicks": 80,
          "midi": 46,
          "name": "A#2",
          "ticks": 81600,
          "time": 60.71413999999999,
          "velocity": 0.6220472440944882
        },
        {
          "duration": 0.05952366666665654,
          "durationTicks": 80,
          "midi": 36,
          "name": "C2",
          "ticks": 82080,
          "time": 61.071282,
          "velocity": 0.6220472440944882
        },
        {
          "duration": 0.05952366666665654,
          "durationTicks": 80,
          "midi": 38,
          "name": "D2",
          "ticks": 82080,
          "time": 61.071282,
          "velocity": 0.6220472440944882
        },
        {
          "duration": 0.05952366666665654,
          "durationTicks": 80,
          "midi": 46,
          "name": "A#2",
          "ticks": 82080,
          "time": 61.071282,
          "velocity": 0.6220472440944882
        },
        {
          "duration": 0.059523666666663644,
          "durationTicks": 80,
          "midi": 46,
          "name": "A#2",
          "ticks": 82320,
          "time": 61.249852999999995,
          "velocity": 0.6220472440944882
        },
        {
          "duration": 0.059523666666663644,
          "durationTicks": 80,
          "midi": 36,
          "name": "C2",
          "ticks": 82560,
          "time": 61.42842399999999,
          "velocity": 0.6220472440944882
        },
        {
          "duration": 0.11904733333333439,
          "durationTicks": 160,
          "midi": 46,
          "name": "A#2",
          "ticks": 82560,
          "time": 61.42842399999999,
          "velocity": 0.6220472440944882
        },
        {
          "duration": 0.059523666666663644,
          "durationTicks": 80,
          "midi": 36,
          "name": "C2",
          "ticks": 83040,
          "time": 61.785565999999996,
          "velocity": 0.6220472440944882
        },
        {
          "duration": 0.059523666666663644,
          "durationTicks": 80,
          "midi": 38,
          "name": "D2",
          "ticks": 83040,
          "time": 61.785565999999996,
          "velocity": 0.6220472440944882
        },
        {
          "duration": 0.059523666666663644,
          "durationTicks": 80,
          "midi": 46,
          "name": "A#2",
          "ticks": 83040,
          "time": 61.785565999999996,
          "velocity": 0.6220472440944882
        },
        {
          "duration": 0.059523666666663644,
          "durationTicks": 80,
          "midi": 46,
          "name": "A#2",
          "ticks": 83280,
          "time": 61.964136999999994,
          "velocity": 0.6220472440944882
        },
        {
          "duration": 0.059523666666663644,
          "durationTicks": 80,
          "midi": 36,
          "name": "C2",
          "ticks": 83520,
          "time": 62.14270799999999,
          "velocity": 0.6220472440944882
        },
        {
          "duration": 0.059523666666663644,
          "durationTicks": 80,
          "midi": 46,
          "name": "A#2",
          "ticks": 83520,
          "time": 62.14270799999999,
          "velocity": 0.6220472440944882
        },
        {
          "duration": 0.059523666666663644,
          "durationTicks": 80,
          "midi": 36,
          "name": "C2",
          "ticks": 84000,
          "time": 62.499849999999995,
          "velocity": 0.6220472440944882
        },
        {
          "duration": 0.059523666666663644,
          "durationTicks": 80,
          "midi": 38,
          "name": "D2",
          "ticks": 84000,
          "time": 62.499849999999995,
          "velocity": 0.6220472440944882
        },
        {
          "duration": 0.059523666666663644,
          "durationTicks": 80,
          "midi": 46,
          "name": "A#2",
          "ticks": 84000,
          "time": 62.499849999999995,
          "velocity": 0.6220472440944882
        },
        {
          "duration": 0.059523666666663644,
          "durationTicks": 80,
          "midi": 46,
          "name": "A#2",
          "ticks": 84240,
          "time": 62.67842099999999,
          "velocity": 0.6220472440944882
        },
        {
          "duration": 0.059523666666663644,
          "durationTicks": 80,
          "midi": 36,
          "name": "C2",
          "ticks": 84480,
          "time": 62.85699199999999,
          "velocity": 0.6220472440944882
        },
        {
          "duration": 0.1190473333333415,
          "durationTicks": 160,
          "midi": 46,
          "name": "A#2",
          "ticks": 84480,
          "time": 62.85699199999999,
          "velocity": 0.6220472440944882
        },
        {
          "duration": 0.059523666666663644,
          "durationTicks": 80,
          "midi": 36,
          "name": "C2",
          "ticks": 84960,
          "time": 63.214133999999994,
          "velocity": 0.6220472440944882
        },
        {
          "duration": 0.059523666666663644,
          "durationTicks": 80,
          "midi": 38,
          "name": "D2",
          "ticks": 84960,
          "time": 63.214133999999994,
          "velocity": 0.6220472440944882
        },
        {
          "duration": 0.059523666666663644,
          "durationTicks": 80,
          "midi": 46,
          "name": "A#2",
          "ticks": 84960,
          "time": 63.214133999999994,
          "velocity": 0.6220472440944882
        },
        {
          "duration": 0.059523666666663644,
          "durationTicks": 80,
          "midi": 46,
          "name": "A#2",
          "ticks": 85200,
          "time": 63.39270499999999,
          "velocity": 0.6220472440944882
        },
        {
          "duration": 0.059523666666663644,
          "durationTicks": 80,
          "midi": 36,
          "name": "C2",
          "ticks": 85440,
          "time": 63.57127599999999,
          "velocity": 0.6220472440944882
        },
        {
          "duration": 0.059523666666663644,
          "durationTicks": 80,
          "midi": 46,
          "name": "A#2",
          "ticks": 85440,
          "time": 63.57127599999999,
          "velocity": 0.6220472440944882
        },
        {
          "duration": 0.059523666666663644,
          "durationTicks": 80,
          "midi": 36,
          "name": "C2",
          "ticks": 85920,
          "time": 63.92841799999999,
          "velocity": 0.6220472440944882
        },
        {
          "duration": 0.059523666666663644,
          "durationTicks": 80,
          "midi": 38,
          "name": "D2",
          "ticks": 85920,
          "time": 63.92841799999999,
          "velocity": 0.6220472440944882
        },
        {
          "duration": 0.059523666666663644,
          "durationTicks": 80,
          "midi": 46,
          "name": "A#2",
          "ticks": 85920,
          "time": 63.92841799999999,
          "velocity": 0.6220472440944882
        },
        {
          "duration": 0.059523666666663644,
          "durationTicks": 80,
          "midi": 46,
          "name": "A#2",
          "ticks": 86160,
          "time": 64.106989,
          "velocity": 0.6220472440944882
        },
        {
          "duration": 0.059523666666663644,
          "durationTicks": 80,
          "midi": 36,
          "name": "C2",
          "ticks": 86400,
          "time": 64.28555999999999,
          "velocity": 0.6220472440944882
        },
        {
          "duration": 0.1190473333333415,
          "durationTicks": 160,
          "midi": 46,
          "name": "A#2",
          "ticks": 86400,
          "time": 64.28555999999999,
          "velocity": 0.6220472440944882
        },
        {
          "duration": 0.059523666666663644,
          "durationTicks": 80,
          "midi": 36,
          "name": "C2",
          "ticks": 86880,
          "time": 64.64270199999999,
          "velocity": 0.6220472440944882
        },
        {
          "duration": 0.059523666666663644,
          "durationTicks": 80,
          "midi": 38,
          "name": "D2",
          "ticks": 86880,
          "time": 64.64270199999999,
          "velocity": 0.6220472440944882
        },
        {
          "duration": 0.059523666666663644,
          "durationTicks": 80,
          "midi": 46,
          "name": "A#2",
          "ticks": 86880,
          "time": 64.64270199999999,
          "velocity": 0.6220472440944882
        },
        {
          "duration": 0.059523666666663644,
          "durationTicks": 80,
          "midi": 46,
          "name": "A#2",
          "ticks": 87120,
          "time": 64.82127299999999,
          "velocity": 0.6220472440944882
        },
        {
          "duration": 0.059523666666663644,
          "durationTicks": 80,
          "midi": 36,
          "name": "C2",
          "ticks": 87360,
          "time": 64.999844,
          "velocity": 0.6220472440944882
        },
        {
          "duration": 0.059523666666663644,
          "durationTicks": 80,
          "midi": 46,
          "name": "A#2",
          "ticks": 87360,
          "time": 64.999844,
          "velocity": 0.6220472440944882
        },
        {
          "duration": 0.059523666666663644,
          "durationTicks": 80,
          "midi": 36,
          "name": "C2",
          "ticks": 87840,
          "time": 65.35698599999999,
          "velocity": 0.6220472440944882
        },
        {
          "duration": 0.059523666666663644,
          "durationTicks": 80,
          "midi": 38,
          "name": "D2",
          "ticks": 87840,
          "time": 65.35698599999999,
          "velocity": 0.6220472440944882
        },
        {
          "duration": 0.059523666666663644,
          "durationTicks": 80,
          "midi": 46,
          "name": "A#2",
          "ticks": 87840,
          "time": 65.35698599999999,
          "velocity": 0.6220472440944882
        },
        {
          "duration": 0.059523666666663644,
          "durationTicks": 80,
          "midi": 46,
          "name": "A#2",
          "ticks": 88080,
          "time": 65.535557,
          "velocity": 0.6220472440944882
        },
        {
          "duration": 0.059523666666663644,
          "durationTicks": 80,
          "midi": 36,
          "name": "C2",
          "ticks": 88320,
          "time": 65.71412799999999,
          "velocity": 0.6220472440944882
        },
        {
          "duration": 0.1190473333333415,
          "durationTicks": 160,
          "midi": 46,
          "name": "A#2",
          "ticks": 88320,
          "time": 65.71412799999999,
          "velocity": 0.6220472440944882
        },
        {
          "duration": 0.059523666666663644,
          "durationTicks": 80,
          "midi": 36,
          "name": "C2",
          "ticks": 88800,
          "time": 66.07127,
          "velocity": 0.6220472440944882
        },
        {
          "duration": 0.059523666666663644,
          "durationTicks": 80,
          "midi": 38,
          "name": "D2",
          "ticks": 88800,
          "time": 66.07127,
          "velocity": 0.6220472440944882
        },
        {
          "duration": 0.059523666666663644,
          "durationTicks": 80,
          "midi": 46,
          "name": "A#2",
          "ticks": 88800,
          "time": 66.07127,
          "velocity": 0.6220472440944882
        },
        {
          "duration": 0.059523666666663644,
          "durationTicks": 80,
          "midi": 46,
          "name": "A#2",
          "ticks": 89040,
          "time": 66.24984099999999,
          "velocity": 0.6220472440944882
        },
        {
          "duration": 0.059523666666663644,
          "durationTicks": 80,
          "midi": 36,
          "name": "C2",
          "ticks": 89280,
          "time": 66.428412,
          "velocity": 0.6220472440944882
        },
        {
          "duration": 0.059523666666663644,
          "durationTicks": 80,
          "midi": 46,
          "name": "A#2",
          "ticks": 89280,
          "time": 66.428412,
          "velocity": 0.6220472440944882
        },
        {
          "duration": 0.059523666666663644,
          "durationTicks": 80,
          "midi": 36,
          "name": "C2",
          "ticks": 89760,
          "time": 66.78555399999999,
          "velocity": 0.6220472440944882
        },
        {
          "duration": 0.059523666666663644,
          "durationTicks": 80,
          "midi": 38,
          "name": "D2",
          "ticks": 89760,
          "time": 66.78555399999999,
          "velocity": 0.6220472440944882
        },
        {
          "duration": 0.059523666666663644,
          "durationTicks": 80,
          "midi": 46,
          "name": "A#2",
          "ticks": 89760,
          "time": 66.78555399999999,
          "velocity": 0.6220472440944882
        },
        {
          "duration": 0.059523666666663644,
          "durationTicks": 80,
          "midi": 46,
          "name": "A#2",
          "ticks": 90000,
          "time": 66.964125,
          "velocity": 0.6220472440944882
        },
        {
          "duration": 0.059523666666663644,
          "durationTicks": 80,
          "midi": 36,
          "name": "C2",
          "ticks": 90240,
          "time": 67.14269599999999,
          "velocity": 0.6220472440944882
        },
        {
          "duration": 0.1190473333333415,
          "durationTicks": 160,
          "midi": 46,
          "name": "A#2",
          "ticks": 90240,
          "time": 67.14269599999999,
          "velocity": 0.6220472440944882
        },
        {
          "duration": 0.059523666666663644,
          "durationTicks": 80,
          "midi": 36,
          "name": "C2",
          "ticks": 90720,
          "time": 67.499838,
          "velocity": 0.6220472440944882
        },
        {
          "duration": 0.059523666666663644,
          "durationTicks": 80,
          "midi": 38,
          "name": "D2",
          "ticks": 90720,
          "time": 67.499838,
          "velocity": 0.6220472440944882
        },
        {
          "duration": 0.059523666666663644,
          "durationTicks": 80,
          "midi": 46,
          "name": "A#2",
          "ticks": 90720,
          "time": 67.499838,
          "velocity": 0.6220472440944882
        },
        {
          "duration": 0.059523666666663644,
          "durationTicks": 80,
          "midi": 46,
          "name": "A#2",
          "ticks": 90960,
          "time": 67.67840899999999,
          "velocity": 0.6220472440944882
        },
        {
          "duration": 0.059523666666663644,
          "durationTicks": 80,
          "midi": 36,
          "name": "C2",
          "ticks": 91200,
          "time": 67.85698,
          "velocity": 0.6220472440944882
        },
        {
          "duration": 0.059523666666663644,
          "durationTicks": 80,
          "midi": 46,
          "name": "A#2",
          "ticks": 91200,
          "time": 67.85698,
          "velocity": 0.6220472440944882
        },
        {
          "duration": 0.059523666666663644,
          "durationTicks": 80,
          "midi": 36,
          "name": "C2",
          "ticks": 91680,
          "time": 68.21412199999999,
          "velocity": 0.6220472440944882
        },
        {
          "duration": 0.059523666666663644,
          "durationTicks": 80,
          "midi": 38,
          "name": "D2",
          "ticks": 91680,
          "time": 68.21412199999999,
          "velocity": 0.6220472440944882
        },
        {
          "duration": 0.059523666666663644,
          "durationTicks": 80,
          "midi": 46,
          "name": "A#2",
          "ticks": 91680,
          "time": 68.21412199999999,
          "velocity": 0.6220472440944882
        },
        {
          "duration": 0.059523666666663644,
          "durationTicks": 80,
          "midi": 46,
          "name": "A#2",
          "ticks": 91920,
          "time": 68.392693,
          "velocity": 0.6220472440944882
        },
        {
          "duration": 0.059523666666663644,
          "durationTicks": 80,
          "midi": 36,
          "name": "C2",
          "ticks": 92160,
          "time": 68.57126399999999,
          "velocity": 0.6220472440944882
        },
        {
          "duration": 0.1190473333333415,
          "durationTicks": 160,
          "midi": 46,
          "name": "A#2",
          "ticks": 92160,
          "time": 68.57126399999999,
          "velocity": 0.6220472440944882
        },
        {
          "duration": 0.059523666666663644,
          "durationTicks": 80,
          "midi": 36,
          "name": "C2",
          "ticks": 92640,
          "time": 68.928406,
          "velocity": 0.6220472440944882
        },
        {
          "duration": 0.059523666666663644,
          "durationTicks": 80,
          "midi": 38,
          "name": "D2",
          "ticks": 92640,
          "time": 68.928406,
          "velocity": 0.6220472440944882
        },
        {
          "duration": 0.059523666666663644,
          "durationTicks": 80,
          "midi": 46,
          "name": "A#2",
          "ticks": 92640,
          "time": 68.928406,
          "velocity": 0.6220472440944882
        },
        {
          "duration": 0.059523666666663644,
          "durationTicks": 80,
          "midi": 46,
          "name": "A#2",
          "ticks": 92880,
          "time": 69.10697699999999,
          "velocity": 0.6220472440944882
        },
        {
          "duration": 0.059523666666663644,
          "durationTicks": 80,
          "midi": 36,
          "name": "C2",
          "ticks": 93120,
          "time": 69.28554799999999,
          "velocity": 0.6220472440944882
        },
        {
          "duration": 0.059523666666663644,
          "durationTicks": 80,
          "midi": 46,
          "name": "A#2",
          "ticks": 93120,
          "time": 69.28554799999999,
          "velocity": 0.6220472440944882
        },
        {
          "duration": 0.059523666666663644,
          "durationTicks": 80,
          "midi": 36,
          "name": "C2",
          "ticks": 93600,
          "time": 69.64268999999999,
          "velocity": 0.6220472440944882
        },
        {
          "duration": 0.059523666666663644,
          "durationTicks": 80,
          "midi": 38,
          "name": "D2",
          "ticks": 93600,
          "time": 69.64268999999999,
          "velocity": 0.6220472440944882
        },
        {
          "duration": 0.059523666666663644,
          "durationTicks": 80,
          "midi": 46,
          "name": "A#2",
          "ticks": 93600,
          "time": 69.64268999999999,
          "velocity": 0.6220472440944882
        },
        {
          "duration": 0.059523666666663644,
          "durationTicks": 80,
          "midi": 46,
          "name": "A#2",
          "ticks": 93840,
          "time": 69.82126099999999,
          "velocity": 0.6220472440944882
        },
        {
          "duration": 0.23809466666665458,
          "durationTicks": 320,
          "midi": 36,
          "name": "C2",
          "ticks": 94080,
          "time": 69.999832,
          "velocity": 0.6220472440944882
        },
        {
          "duration": 0.23809466666665458,
          "durationTicks": 320,
          "midi": 38,
          "name": "D2",
          "ticks": 94080,
          "time": 69.999832,
          "velocity": 0.6220472440944882
        },
        {
          "duration": 0.23809466666665458,
          "durationTicks": 320,
          "midi": 49,
          "name": "C#3",
          "ticks": 94080,
          "time": 69.999832,
          "velocity": 0.6220472440944882
        },
        {
          "duration": 0.059523666666663644,
          "durationTicks": 80,
          "midi": 36,
          "name": "C2",
          "ticks": 96000,
          "time": 71.4284,
          "velocity": 0.6220472440944882
        },
        {
          "duration": 0.11904733333332729,
          "durationTicks": 160,
          "midi": 46,
          "name": "A#2",
          "ticks": 96000,
          "time": 71.4284,
          "velocity": 0.6220472440944882
        },
        {
          "duration": 0.23809466666665458,
          "durationTicks": 320,
          "midi": 49,
          "name": "C#3",
          "ticks": 96000,
          "time": 71.4284,
          "velocity": 0.6220472440944882
        },
        {
          "duration": 0.059523666666663644,
          "durationTicks": 80,
          "midi": 36,
          "name": "C2",
          "ticks": 96480,
          "time": 71.78554199999999,
          "velocity": 0.6220472440944882
        },
        {
          "duration": 0.059523666666663644,
          "durationTicks": 80,
          "midi": 38,
          "name": "D2",
          "ticks": 96480,
          "time": 71.78554199999999,
          "velocity": 0.6220472440944882
        },
        {
          "duration": 0.059523666666663644,
          "durationTicks": 80,
          "midi": 46,
          "name": "A#2",
          "ticks": 96480,
          "time": 71.78554199999999,
          "velocity": 0.6220472440944882
        },
        {
          "duration": 0.23809466666666879,
          "durationTicks": 320,
          "midi": 49,
          "name": "C#3",
          "ticks": 96480,
          "time": 71.78554199999999,
          "velocity": 0.6220472440944882
        },
        {
          "duration": 0.059523666666663644,
          "durationTicks": 80,
          "midi": 46,
          "name": "A#2",
          "ticks": 96720,
          "time": 71.964113,
          "velocity": 0.6220472440944882
        },
        {
          "duration": 0.059523666666663644,
          "durationTicks": 80,
          "midi": 36,
          "name": "C2",
          "ticks": 96960,
          "time": 72.14268399999999,
          "velocity": 0.6220472440944882
        },
        {
          "duration": 0.059523666666663644,
          "durationTicks": 80,
          "midi": 46,
          "name": "A#2",
          "ticks": 96960,
          "time": 72.14268399999999,
          "velocity": 0.6220472440944882
        },
        {
          "duration": 0.05952366666664943,
          "durationTicks": 80,
          "midi": 36,
          "name": "C2",
          "ticks": 97440,
          "time": 72.499826,
          "velocity": 0.6220472440944882
        },
        {
          "duration": 0.05952366666664943,
          "durationTicks": 80,
          "midi": 38,
          "name": "D2",
          "ticks": 97440,
          "time": 72.499826,
          "velocity": 0.6220472440944882
        },
        {
          "duration": 0.05952366666664943,
          "durationTicks": 80,
          "midi": 46,
          "name": "A#2",
          "ticks": 97440,
          "time": 72.499826,
          "velocity": 0.6220472440944882
        },
        {
          "duration": 0.059523666666663644,
          "durationTicks": 80,
          "midi": 46,
          "name": "A#2",
          "ticks": 97680,
          "time": 72.67839699999999,
          "velocity": 0.6220472440944882
        },
        {
          "duration": 0.23809466666665458,
          "durationTicks": 320,
          "midi": 36,
          "name": "C2",
          "ticks": 97920,
          "time": 72.856968,
          "velocity": 0.6220472440944882
        },
        {
          "duration": 0.23809466666665458,
          "durationTicks": 320,
          "midi": 46,
          "name": "A#2",
          "ticks": 97920,
          "time": 72.856968,
          "velocity": 0.6220472440944882
        },
        {
          "duration": 0.23809466666666879,
          "durationTicks": 320,
          "midi": 36,
          "name": "C2",
          "ticks": 98400,
          "time": 73.21410999999999,
          "velocity": 0.6220472440944882
        },
        {
          "duration": 0.23809466666666879,
          "durationTicks": 320,
          "midi": 38,
          "name": "D2",
          "ticks": 98400,
          "time": 73.21410999999999,
          "velocity": 0.6220472440944882
        },
        {
          "duration": 0.17857100000000514,
          "durationTicks": 240,
          "midi": 46,
          "name": "A#2",
          "ticks": 98400,
          "time": 73.21410999999999,
          "velocity": 0.6220472440944882
        },
        {
          "duration": 0.17857099999999093,
          "durationTicks": 240,
          "midi": 46,
          "name": "A#2",
          "ticks": 98640,
          "time": 73.392681,
          "velocity": 0.6220472440944882
        },
        {
          "duration": 0.23809466666666879,
          "durationTicks": 320,
          "midi": 36,
          "name": "C2",
          "ticks": 98880,
          "time": 73.57125199999999,
          "velocity": 0.6220472440944882
        },
        {
          "duration": 0.23809466666666879,
          "durationTicks": 320,
          "midi": 46,
          "name": "A#2",
          "ticks": 98880,
          "time": 73.57125199999999,
          "velocity": 0.6220472440944882
        },
        {
          "duration": 0.23809466666665458,
          "durationTicks": 320,
          "midi": 36,
          "name": "C2",
          "ticks": 99360,
          "time": 73.928394,
          "velocity": 0.6220472440944882
        },
        {
          "duration": 0.23809466666665458,
          "durationTicks": 320,
          "midi": 38,
          "name": "D2",
          "ticks": 99360,
          "time": 73.928394,
          "velocity": 0.6220472440944882
        },
        {
          "duration": 0.17857099999999093,
          "durationTicks": 240,
          "midi": 46,
          "name": "A#2",
          "ticks": 99360,
          "time": 73.928394,
          "velocity": 0.6220472440944882
        },
        {
          "duration": 0.17857100000000514,
          "durationTicks": 240,
          "midi": 46,
          "name": "A#2",
          "ticks": 99600,
          "time": 74.10696499999999,
          "velocity": 0.6220472440944882
        },
        {
          "duration": 0.23809466666665458,
          "durationTicks": 320,
          "midi": 36,
          "name": "C2",
          "ticks": 99840,
          "time": 74.285536,
          "velocity": 0.6220472440944882
        },
        {
          "duration": 0.23809466666665458,
          "durationTicks": 320,
          "midi": 46,
          "name": "A#2",
          "ticks": 99840,
          "time": 74.285536,
          "velocity": 0.6220472440944882
        },
        {
          "duration": 0.23809466666666879,
          "durationTicks": 320,
          "midi": 36,
          "name": "C2",
          "ticks": 100320,
          "time": 74.64267799999999,
          "velocity": 0.6220472440944882
        },
        {
          "duration": 0.23809466666666879,
          "durationTicks": 320,
          "midi": 38,
          "name": "D2",
          "ticks": 100320,
          "time": 74.64267799999999,
          "velocity": 0.6220472440944882
        },
        {
          "duration": 0.17857100000000514,
          "durationTicks": 240,
          "midi": 46,
          "name": "A#2",
          "ticks": 100320,
          "time": 74.64267799999999,
          "velocity": 0.6220472440944882
        },
        {
          "duration": 0.17857099999999093,
          "durationTicks": 240,
          "midi": 46,
          "name": "A#2",
          "ticks": 100560,
          "time": 74.821249,
          "velocity": 0.6220472440944882
        },
        {
          "duration": 0.23809466666666879,
          "durationTicks": 320,
          "midi": 36,
          "name": "C2",
          "ticks": 100800,
          "time": 74.99981999999999,
          "velocity": 0.6220472440944882
        },
        {
          "duration": 0.23809466666666879,
          "durationTicks": 320,
          "midi": 46,
          "name": "A#2",
          "ticks": 100800,
          "time": 74.99981999999999,
          "velocity": 0.6220472440944882
        },
        {
          "duration": 0.23809466666665458,
          "durationTicks": 320,
          "midi": 36,
          "name": "C2",
          "ticks": 101280,
          "time": 75.356962,
          "velocity": 0.6220472440944882
        },
        {
          "duration": 0.23809466666665458,
          "durationTicks": 320,
          "midi": 38,
          "name": "D2",
          "ticks": 101280,
          "time": 75.356962,
          "velocity": 0.6220472440944882
        },
        {
          "duration": 0.17857099999999093,
          "durationTicks": 240,
          "midi": 46,
          "name": "A#2",
          "ticks": 101280,
          "time": 75.356962,
          "velocity": 0.6220472440944882
        },
        {
          "duration": 0.17857100000000514,
          "durationTicks": 240,
          "midi": 46,
          "name": "A#2",
          "ticks": 101520,
          "time": 75.53553299999999,
          "velocity": 0.6220472440944882
        },
        {
          "duration": 0.22321374999999932,
          "durationTicks": 300,
          "midi": 36,
          "name": "C2",
          "ticks": 101760,
          "time": 75.71410399999999,
          "velocity": 0.6220472440944882
        },
        {
          "duration": 0.22321374999999932,
          "durationTicks": 300,
          "midi": 46,
          "name": "A#2",
          "ticks": 101760,
          "time": 75.71410399999999,
          "velocity": 0.6220472440944882
        },
        {
          "duration": 0.22321374999999932,
          "durationTicks": 300,
          "midi": 36,
          "name": "C2",
          "ticks": 102240,
          "time": 76.07124599999999,
          "velocity": 0.6220472440944882
        },
        {
          "duration": 0.22321374999999932,
          "durationTicks": 300,
          "midi": 38,
          "name": "D2",
          "ticks": 102240,
          "time": 76.07124599999999,
          "velocity": 0.6220472440944882
        },
        {
          "duration": 0.17857100000000514,
          "durationTicks": 240,
          "midi": 46,
          "name": "A#2",
          "ticks": 102240,
          "time": 76.07124599999999,
          "velocity": 0.6220472440944882
        },
        {
          "duration": 0.17857100000000514,
          "durationTicks": 240,
          "midi": 46,
          "name": "A#2",
          "ticks": 102480,
          "time": 76.249817,
          "velocity": 0.6220472440944882
        },
        {
          "duration": 0.22321374999999932,
          "durationTicks": 300,
          "midi": 36,
          "name": "C2",
          "ticks": 102720,
          "time": 76.428388,
          "velocity": 0.6220472440944882
        },
        {
          "duration": 0.22321374999999932,
          "durationTicks": 300,
          "midi": 46,
          "name": "A#2",
          "ticks": 102720,
          "time": 76.428388,
          "velocity": 0.6220472440944882
        },
        {
          "duration": 0.22321374999999932,
          "durationTicks": 300,
          "midi": 36,
          "name": "C2",
          "ticks": 103200,
          "time": 76.78553,
          "velocity": 0.6220472440944882
        },
        {
          "duration": 0.22321374999999932,
          "durationTicks": 300,
          "midi": 38,
          "name": "D2",
          "ticks": 103200,
          "time": 76.78553,
          "velocity": 0.6220472440944882
        },
        {
          "duration": 0.17857099999999093,
          "durationTicks": 240,
          "midi": 46,
          "name": "A#2",
          "ticks": 103200,
          "time": 76.78553,
          "velocity": 0.6220472440944882
        },
        {
          "duration": 0.17857100000000514,
          "durationTicks": 240,
          "midi": 46,
          "name": "A#2",
          "ticks": 103440,
          "time": 76.96410099999999,
          "velocity": 0.6220472440944882
        },
        {
          "duration": 0.22321374999999932,
          "durationTicks": 300,
          "midi": 36,
          "name": "C2",
          "ticks": 103680,
          "time": 77.14267199999999,
          "velocity": 0.6220472440944882
        },
        {
          "duration": 0.22321374999999932,
          "durationTicks": 300,
          "midi": 46,
          "name": "A#2",
          "ticks": 103680,
          "time": 77.14267199999999,
          "velocity": 0.6220472440944882
        },
        {
          "duration": 0.22321374999999932,
          "durationTicks": 300,
          "midi": 36,
          "name": "C2",
          "ticks": 104160,
          "time": 77.49981399999999,
          "velocity": 0.6220472440944882
        },
        {
          "duration": 0.22321374999999932,
          "durationTicks": 300,
          "midi": 38,
          "name": "D2",
          "ticks": 104160,
          "time": 77.49981399999999,
          "velocity": 0.6220472440944882
        },
        {
          "duration": 0.17857100000000514,
          "durationTicks": 240,
          "midi": 46,
          "name": "A#2",
          "ticks": 104160,
          "time": 77.49981399999999,
          "velocity": 0.6220472440944882
        },
        {
          "duration": 0.17857100000000514,
          "durationTicks": 240,
          "midi": 46,
          "name": "A#2",
          "ticks": 104400,
          "time": 77.67838499999999,
          "velocity": 0.6220472440944882
        },
        {
          "duration": 0.22321374999999932,
          "durationTicks": 300,
          "midi": 36,
          "name": "C2",
          "ticks": 104640,
          "time": 77.856956,
          "velocity": 0.6220472440944882
        },
        {
          "duration": 0.22321374999999932,
          "durationTicks": 300,
          "midi": 46,
          "name": "A#2",
          "ticks": 104640,
          "time": 77.856956,
          "velocity": 0.6220472440944882
        },
        {
          "duration": 0.22321374999999932,
          "durationTicks": 300,
          "midi": 36,
          "name": "C2",
          "ticks": 105120,
          "time": 78.21409799999999,
          "velocity": 0.6220472440944882
        },
        {
          "duration": 0.22321374999999932,
          "durationTicks": 300,
          "midi": 38,
          "name": "D2",
          "ticks": 105120,
          "time": 78.21409799999999,
          "velocity": 0.6220472440944882
        },
        {
          "duration": 0.17857100000000514,
          "durationTicks": 240,
          "midi": 46,
          "name": "A#2",
          "ticks": 105120,
          "time": 78.21409799999999,
          "velocity": 0.6220472440944882
        },
        {
          "duration": 0.17857099999999093,
          "durationTicks": 240,
          "midi": 46,
          "name": "A#2",
          "ticks": 105360,
          "time": 78.392669,
          "velocity": 0.6220472440944882
        },
        {
          "duration": 0.22321374999999932,
          "durationTicks": 300,
          "midi": 36,
          "name": "C2",
          "ticks": 105600,
          "time": 78.57123999999999,
          "velocity": 0.6220472440944882
        },
        {
          "duration": 0.22321374999999932,
          "durationTicks": 300,
          "midi": 46,
          "name": "A#2",
          "ticks": 105600,
          "time": 78.57123999999999,
          "velocity": 0.6220472440944882
        },
        {
          "duration": 0.22321374999999932,
          "durationTicks": 300,
          "midi": 36,
          "name": "C2",
          "ticks": 106080,
          "time": 78.92838199999998,
          "velocity": 0.6220472440944882
        },
        {
          "duration": 0.22321374999999932,
          "durationTicks": 300,
          "midi": 38,
          "name": "D2",
          "ticks": 106080,
          "time": 78.92838199999998,
          "velocity": 0.6220472440944882
        },
        {
          "duration": 0.17857100000000514,
          "durationTicks": 240,
          "midi": 46,
          "name": "A#2",
          "ticks": 106080,
          "time": 78.92838199999998,
          "velocity": 0.6220472440944882
        },
        {
          "duration": 0.17857100000000514,
          "durationTicks": 240,
          "midi": 46,
          "name": "A#2",
          "ticks": 106320,
          "time": 79.10695299999999,
          "velocity": 0.6220472440944882
        },
        {
          "duration": 0.22321374999999932,
          "durationTicks": 300,
          "midi": 36,
          "name": "C2",
          "ticks": 106560,
          "time": 79.285524,
          "velocity": 0.6220472440944882
        },
        {
          "duration": 0.22321374999999932,
          "durationTicks": 300,
          "midi": 46,
          "name": "A#2",
          "ticks": 106560,
          "time": 79.285524,
          "velocity": 0.6220472440944882
        },
        {
          "duration": 0.22321374999999932,
          "durationTicks": 300,
          "midi": 36,
          "name": "C2",
          "ticks": 107040,
          "time": 79.64266599999999,
          "velocity": 0.6220472440944882
        },
        {
          "duration": 0.22321374999999932,
          "durationTicks": 300,
          "midi": 38,
          "name": "D2",
          "ticks": 107040,
          "time": 79.64266599999999,
          "velocity": 0.6220472440944882
        },
        {
          "duration": 0.17857100000000514,
          "durationTicks": 240,
          "midi": 46,
          "name": "A#2",
          "ticks": 107040,
          "time": 79.64266599999999,
          "velocity": 0.6220472440944882
        },
        {
          "duration": 0.17857099999999093,
          "durationTicks": 240,
          "midi": 46,
          "name": "A#2",
          "ticks": 107280,
          "time": 79.821237,
          "velocity": 0.6220472440944882
        },
        {
          "duration": 0.22321374999999932,
          "durationTicks": 300,
          "midi": 36,
          "name": "C2",
          "ticks": 107520,
          "time": 79.99980799999999,
          "velocity": 0.6220472440944882
        },
        {
          "duration": 0.22321374999999932,
          "durationTicks": 300,
          "midi": 46,
          "name": "A#2",
          "ticks": 107520,
          "time": 79.99980799999999,
          "velocity": 0.6220472440944882
        },
        {
          "duration": 0.22321374999999932,
          "durationTicks": 300,
          "midi": 36,
          "name": "C2",
          "ticks": 108000,
          "time": 80.35695,
          "velocity": 0.6220472440944882
        },
        {
          "duration": 0.22321374999999932,
          "durationTicks": 300,
          "midi": 38,
          "name": "D2",
          "ticks": 108000,
          "time": 80.35695,
          "velocity": 0.6220472440944882
        },
        {
          "duration": 0.17857099999999093,
          "durationTicks": 240,
          "midi": 46,
          "name": "A#2",
          "ticks": 108000,
          "time": 80.35695,
          "velocity": 0.6220472440944882
        },
        {
          "duration": 0.17857100000000514,
          "durationTicks": 240,
          "midi": 46,
          "name": "A#2",
          "ticks": 108240,
          "time": 80.53552099999999,
          "velocity": 0.6220472440944882
        },
        {
          "duration": 0.22321374999999932,
          "durationTicks": 300,
          "midi": 36,
          "name": "C2",
          "ticks": 108480,
          "time": 80.714092,
          "velocity": 0.6220472440944882
        },
        {
          "duration": 0.22321374999999932,
          "durationTicks": 300,
          "midi": 46,
          "name": "A#2",
          "ticks": 108480,
          "time": 80.714092,
          "velocity": 0.6220472440944882
        },
        {
          "duration": 0.22321374999999932,
          "durationTicks": 300,
          "midi": 36,
          "name": "C2",
          "ticks": 108960,
          "time": 81.07123399999999,
          "velocity": 0.6220472440944882
        },
        {
          "duration": 0.22321374999999932,
          "durationTicks": 300,
          "midi": 38,
          "name": "D2",
          "ticks": 108960,
          "time": 81.07123399999999,
          "velocity": 0.6220472440944882
        },
        {
          "duration": 0.17857100000000514,
          "durationTicks": 240,
          "midi": 46,
          "name": "A#2",
          "ticks": 108960,
          "time": 81.07123399999999,
          "velocity": 0.6220472440944882
        },
        {
          "duration": 0.17857099999999093,
          "durationTicks": 240,
          "midi": 46,
          "name": "A#2",
          "ticks": 109200,
          "time": 81.249805,
          "velocity": 0.6220472440944882
        },
        {
          "duration": 0.22321374999999932,
          "durationTicks": 300,
          "midi": 36,
          "name": "C2",
          "ticks": 109440,
          "time": 81.42837599999999,
          "velocity": 0.6220472440944882
        },
        {
          "duration": 0.22321374999999932,
          "durationTicks": 300,
          "midi": 46,
          "name": "A#2",
          "ticks": 109440,
          "time": 81.42837599999999,
          "velocity": 0.6220472440944882
        },
        {
          "duration": 0.22321374999999932,
          "durationTicks": 300,
          "midi": 36,
          "name": "C2",
          "ticks": 109920,
          "time": 81.785518,
          "velocity": 0.6220472440944882
        },
        {
          "duration": 0.22321374999999932,
          "durationTicks": 300,
          "midi": 38,
          "name": "D2",
          "ticks": 109920,
          "time": 81.785518,
          "velocity": 0.6220472440944882
        },
        {
          "duration": 0.17857099999999093,
          "durationTicks": 240,
          "midi": 46,
          "name": "A#2",
          "ticks": 109920,
          "time": 81.785518,
          "velocity": 0.6220472440944882
        },
        {
          "duration": 0.17857100000000514,
          "durationTicks": 240,
          "midi": 46,
          "name": "A#2",
          "ticks": 110160,
          "time": 81.96408899999999,
          "velocity": 0.6220472440944882
        },
        {
          "duration": 0.22321374999999932,
          "durationTicks": 300,
          "midi": 36,
          "name": "C2",
          "ticks": 110400,
          "time": 82.14265999999999,
          "velocity": 0.6220472440944882
        },
        {
          "duration": 0.22321374999999932,
          "durationTicks": 300,
          "midi": 46,
          "name": "A#2",
          "ticks": 110400,
          "time": 82.14265999999999,
          "velocity": 0.6220472440944882
        },
        {
          "duration": 0.22321374999999932,
          "durationTicks": 300,
          "midi": 36,
          "name": "C2",
          "ticks": 110880,
          "time": 82.49980199999999,
          "velocity": 0.6220472440944882
        },
        {
          "duration": 0.22321374999999932,
          "durationTicks": 300,
          "midi": 38,
          "name": "D2",
          "ticks": 110880,
          "time": 82.49980199999999,
          "velocity": 0.6220472440944882
        },
        {
          "duration": 0.17857100000000514,
          "durationTicks": 240,
          "midi": 46,
          "name": "A#2",
          "ticks": 110880,
          "time": 82.49980199999999,
          "velocity": 0.6220472440944882
        },
        {
          "duration": 0.17857099999999093,
          "durationTicks": 240,
          "midi": 46,
          "name": "A#2",
          "ticks": 111120,
          "time": 82.678373,
          "velocity": 0.6220472440944882
        },
        {
          "duration": 0.22321374999999932,
          "durationTicks": 300,
          "midi": 36,
          "name": "C2",
          "ticks": 111360,
          "time": 82.85694399999998,
          "velocity": 0.6220472440944882
        },
        {
          "duration": 0.22321374999999932,
          "durationTicks": 300,
          "midi": 46,
          "name": "A#2",
          "ticks": 111360,
          "time": 82.85694399999998,
          "velocity": 0.6220472440944882
        },
        {
          "duration": 0.22321374999999932,
          "durationTicks": 300,
          "midi": 36,
          "name": "C2",
          "ticks": 111840,
          "time": 83.214086,
          "velocity": 0.6220472440944882
        },
        {
          "duration": 0.22321374999999932,
          "durationTicks": 300,
          "midi": 38,
          "name": "D2",
          "ticks": 111840,
          "time": 83.214086,
          "velocity": 0.6220472440944882
        },
        {
          "duration": 0.17857099999999093,
          "durationTicks": 240,
          "midi": 46,
          "name": "A#2",
          "ticks": 111840,
          "time": 83.214086,
          "velocity": 0.6220472440944882
        },
        {
          "duration": 0.17857100000000514,
          "durationTicks": 240,
          "midi": 46,
          "name": "A#2",
          "ticks": 112080,
          "time": 83.39265699999999,
          "velocity": 0.6220472440944882
        },
        {
          "duration": 0.22321374999999932,
          "durationTicks": 300,
          "midi": 36,
          "name": "C2",
          "ticks": 112320,
          "time": 83.57122799999999,
          "velocity": 0.6220472440944882
        },
        {
          "duration": 0.22321374999999932,
          "durationTicks": 300,
          "midi": 46,
          "name": "A#2",
          "ticks": 112320,
          "time": 83.57122799999999,
          "velocity": 0.6220472440944882
        },
        {
          "duration": 0.22321374999999932,
          "durationTicks": 300,
          "midi": 36,
          "name": "C2",
          "ticks": 112800,
          "time": 83.92836999999999,
          "velocity": 0.6220472440944882
        },
        {
          "duration": 0.22321374999999932,
          "durationTicks": 300,
          "midi": 38,
          "name": "D2",
          "ticks": 112800,
          "time": 83.92836999999999,
          "velocity": 0.6220472440944882
        },
        {
          "duration": 0.17857100000000514,
          "durationTicks": 240,
          "midi": 46,
          "name": "A#2",
          "ticks": 112800,
          "time": 83.92836999999999,
          "velocity": 0.6220472440944882
        },
        {
          "duration": 0.17857100000000514,
          "durationTicks": 240,
          "midi": 46,
          "name": "A#2",
          "ticks": 113040,
          "time": 84.10694099999999,
          "velocity": 0.6220472440944882
        },
        {
          "duration": 0.22321374999999932,
          "durationTicks": 300,
          "midi": 36,
          "name": "C2",
          "ticks": 113280,
          "time": 84.285512,
          "velocity": 0.6220472440944882
        },
        {
          "duration": 0.22321374999999932,
          "durationTicks": 300,
          "midi": 46,
          "name": "A#2",
          "ticks": 113280,
          "time": 84.285512,
          "velocity": 0.6220472440944882
        },
        {
          "duration": 0.22321374999999932,
          "durationTicks": 300,
          "midi": 36,
          "name": "C2",
          "ticks": 113760,
          "time": 84.642654,
          "velocity": 0.6220472440944882
        },
        {
          "duration": 0.22321374999999932,
          "durationTicks": 300,
          "midi": 38,
          "name": "D2",
          "ticks": 113760,
          "time": 84.642654,
          "velocity": 0.6220472440944882
        },
        {
          "duration": 0.17857099999999093,
          "durationTicks": 240,
          "midi": 46,
          "name": "A#2",
          "ticks": 113760,
          "time": 84.642654,
          "velocity": 0.6220472440944882
        },
        {
          "duration": 0.17857100000000514,
          "durationTicks": 240,
          "midi": 46,
          "name": "A#2",
          "ticks": 114000,
          "time": 84.82122499999998,
          "velocity": 0.6220472440944882
        },
        {
          "duration": 0.22321374999999932,
          "durationTicks": 300,
          "midi": 36,
          "name": "C2",
          "ticks": 114240,
          "time": 84.99979599999999,
          "velocity": 0.6220472440944882
        },
        {
          "duration": 0.22321374999999932,
          "durationTicks": 300,
          "midi": 46,
          "name": "A#2",
          "ticks": 114240,
          "time": 84.99979599999999,
          "velocity": 0.6220472440944882
        },
        {
          "duration": 0.22321374999999932,
          "durationTicks": 300,
          "midi": 36,
          "name": "C2",
          "ticks": 114720,
          "time": 85.35693799999999,
          "velocity": 0.6220472440944882
        },
        {
          "duration": 0.22321374999999932,
          "durationTicks": 300,
          "midi": 38,
          "name": "D2",
          "ticks": 114720,
          "time": 85.35693799999999,
          "velocity": 0.6220472440944882
        },
        {
          "duration": 0.17857100000000514,
          "durationTicks": 240,
          "midi": 46,
          "name": "A#2",
          "ticks": 114720,
          "time": 85.35693799999999,
          "velocity": 0.6220472440944882
        },
        {
          "duration": 0.17857100000000514,
          "durationTicks": 240,
          "midi": 46,
          "name": "A#2",
          "ticks": 114960,
          "time": 85.53550899999999,
          "velocity": 0.6220472440944882
        },
        {
          "duration": 0.22321374999999932,
          "durationTicks": 300,
          "midi": 36,
          "name": "C2",
          "ticks": 115200,
          "time": 85.71408,
          "velocity": 0.6220472440944882
        },
        {
          "duration": 0.22321374999999932,
          "durationTicks": 300,
          "midi": 46,
          "name": "A#2",
          "ticks": 115200,
          "time": 85.71408,
          "velocity": 0.6220472440944882
        },
        {
          "duration": 0.22321374999999932,
          "durationTicks": 300,
          "midi": 36,
          "name": "C2",
          "ticks": 115680,
          "time": 86.07122199999999,
          "velocity": 0.6220472440944882
        },
        {
          "duration": 0.22321374999999932,
          "durationTicks": 300,
          "midi": 38,
          "name": "D2",
          "ticks": 115680,
          "time": 86.07122199999999,
          "velocity": 0.6220472440944882
        },
        {
          "duration": 0.17857100000000514,
          "durationTicks": 240,
          "midi": 46,
          "name": "A#2",
          "ticks": 115680,
          "time": 86.07122199999999,
          "velocity": 0.6220472440944882
        },
        {
          "duration": 0.17857099999999093,
          "durationTicks": 240,
          "midi": 46,
          "name": "A#2",
          "ticks": 115920,
          "time": 86.249793,
          "velocity": 0.6220472440944882
        },
        {
          "duration": 0.22321374999999932,
          "durationTicks": 300,
          "midi": 36,
          "name": "C2",
          "ticks": 116160,
          "time": 86.42836399999999,
          "velocity": 0.6220472440944882
        },
        {
          "duration": 0.22321374999999932,
          "durationTicks": 300,
          "midi": 46,
          "name": "A#2",
          "ticks": 116160,
          "time": 86.42836399999999,
          "velocity": 0.6220472440944882
        },
        {
          "duration": 0.22321374999999932,
          "durationTicks": 300,
          "midi": 36,
          "name": "C2",
          "ticks": 116640,
          "time": 86.78550599999998,
          "velocity": 0.6220472440944882
        },
        {
          "duration": 0.22321374999999932,
          "durationTicks": 300,
          "midi": 38,
          "name": "D2",
          "ticks": 116640,
          "time": 86.78550599999998,
          "velocity": 0.6220472440944882
        },
        {
          "duration": 0.17857100000000514,
          "durationTicks": 240,
          "midi": 46,
          "name": "A#2",
          "ticks": 116640,
          "time": 86.78550599999998,
          "velocity": 0.6220472440944882
        },
        {
          "duration": 0.17857100000000514,
          "durationTicks": 240,
          "midi": 46,
          "name": "A#2",
          "ticks": 116880,
          "time": 86.96407699999999,
          "velocity": 0.6220472440944882
        },
        {
          "duration": 0.22321374999999932,
          "durationTicks": 300,
          "midi": 36,
          "name": "C2",
          "ticks": 117120,
          "time": 87.142648,
          "velocity": 0.6220472440944882
        },
        {
          "duration": 0.22321374999999932,
          "durationTicks": 300,
          "midi": 46,
          "name": "A#2",
          "ticks": 117120,
          "time": 87.142648,
          "velocity": 0.6220472440944882
        },
        {
          "duration": 0.22321374999999932,
          "durationTicks": 300,
          "midi": 36,
          "name": "C2",
          "ticks": 117600,
          "time": 87.49978999999999,
          "velocity": 0.6220472440944882
        },
        {
          "duration": 0.22321374999999932,
          "durationTicks": 300,
          "midi": 38,
          "name": "D2",
          "ticks": 117600,
          "time": 87.49978999999999,
          "velocity": 0.6220472440944882
        },
        {
          "duration": 0.17857100000000514,
          "durationTicks": 240,
          "midi": 46,
          "name": "A#2",
          "ticks": 117600,
          "time": 87.49978999999999,
          "velocity": 0.6220472440944882
        },
        {
          "duration": 0.17857099999999093,
          "durationTicks": 240,
          "midi": 46,
          "name": "A#2",
          "ticks": 117840,
          "time": 87.678361,
          "velocity": 0.6220472440944882
        },
        {
          "duration": 0.22321374999999932,
          "durationTicks": 300,
          "midi": 36,
          "name": "C2",
          "ticks": 118080,
          "time": 87.85693199999999,
          "velocity": 0.6220472440944882
        },
        {
          "duration": 0.22321374999999932,
          "durationTicks": 300,
          "midi": 46,
          "name": "A#2",
          "ticks": 118080,
          "time": 87.85693199999999,
          "velocity": 0.6220472440944882
        },
        {
          "duration": 0.22321374999999932,
          "durationTicks": 300,
          "midi": 36,
          "name": "C2",
          "ticks": 118560,
          "time": 88.214074,
          "velocity": 0.6220472440944882
        },
        {
          "duration": 0.22321374999999932,
          "durationTicks": 300,
          "midi": 38,
          "name": "D2",
          "ticks": 118560,
          "time": 88.214074,
          "velocity": 0.6220472440944882
        },
        {
          "duration": 0.17857099999999093,
          "durationTicks": 240,
          "midi": 46,
          "name": "A#2",
          "ticks": 118560,
          "time": 88.214074,
          "velocity": 0.6220472440944882
        },
        {
          "duration": 0.22321374999999932,
          "durationTicks": 300,
          "midi": 46,
          "name": "A#2",
          "ticks": 118800,
          "time": 88.39264499999999,
          "velocity": 0.6220472440944882
        },
        {
          "duration": 0.11904733333332729,
          "durationTicks": 160,
          "midi": 36,
          "name": "C2",
          "ticks": 119040,
          "time": 88.57121599999999,
          "velocity": 0.6220472440944882
        },
        {
          "duration": 0.11904733333332729,
          "durationTicks": 160,
          "midi": 38,
          "name": "D2",
          "ticks": 119040,
          "time": 88.57121599999999,
          "velocity": 0.6220472440944882
        },
        {
          "duration": 0.11904733333332729,
          "durationTicks": 160,
          "midi": 49,
          "name": "C#3",
          "ticks": 119040,
          "time": 88.57121599999999,
          "velocity": 0.6220472440944882
        },
        {
          "duration": 0.059523666666663644,
          "durationTicks": 80,
          "midi": 36,
          "name": "C2",
          "ticks": 120960,
          "time": 89.99978399999999,
          "velocity": 0.6220472440944882
        },
        {
          "duration": 0.1190473333333415,
          "durationTicks": 160,
          "midi": 46,
          "name": "A#2",
          "ticks": 120960,
          "time": 89.99978399999999,
          "velocity": 0.6220472440944882
        },
        {
          "duration": 0.1190473333333415,
          "durationTicks": 160,
          "midi": 49,
          "name": "C#3",
          "ticks": 120960,
          "time": 89.99978399999999,
          "velocity": 0.6220472440944882
        },
        {
          "duration": 0.059523666666663644,
          "durationTicks": 80,
          "midi": 36,
          "name": "C2",
          "ticks": 121440,
          "time": 90.35692599999999,
          "velocity": 0.6220472440944882
        },
        {
          "duration": 0.059523666666663644,
          "durationTicks": 80,
          "midi": 38,
          "name": "D2",
          "ticks": 121440,
          "time": 90.35692599999999,
          "velocity": 0.6220472440944882
        },
        {
          "duration": 0.059523666666663644,
          "durationTicks": 80,
          "midi": 46,
          "name": "A#2",
          "ticks": 121440,
          "time": 90.35692599999999,
          "velocity": 0.6220472440944882
        },
        {
          "duration": 0.1190473333333415,
          "durationTicks": 160,
          "midi": 49,
          "name": "C#3",
          "ticks": 121440,
          "time": 90.35692599999999,
          "velocity": 0.6220472440944882
        },
        {
          "duration": 0.059523666666663644,
          "durationTicks": 80,
          "midi": 46,
          "name": "A#2",
          "ticks": 121680,
          "time": 90.53549699999999,
          "velocity": 0.6220472440944882
        },
        {
          "duration": 0.059523666666663644,
          "durationTicks": 80,
          "midi": 36,
          "name": "C2",
          "ticks": 121920,
          "time": 90.71406799999998,
          "velocity": 0.6220472440944882
        },
        {
          "duration": 0.059523666666663644,
          "durationTicks": 80,
          "midi": 46,
          "name": "A#2",
          "ticks": 121920,
          "time": 90.71406799999998,
          "velocity": 0.6220472440944882
        },
        {
          "duration": 0.059523666666663644,
          "durationTicks": 80,
          "midi": 36,
          "name": "C2",
          "ticks": 122400,
          "time": 91.07121,
          "velocity": 0.6220472440944882
        },
        {
          "duration": 0.059523666666663644,
          "durationTicks": 80,
          "midi": 38,
          "name": "D2",
          "ticks": 122400,
          "time": 91.07121,
          "velocity": 0.6220472440944882
        },
        {
          "duration": 0.059523666666663644,
          "durationTicks": 80,
          "midi": 46,
          "name": "A#2",
          "ticks": 122400,
          "time": 91.07121,
          "velocity": 0.6220472440944882
        },
        {
          "duration": 0.059523666666663644,
          "durationTicks": 80,
          "midi": 46,
          "name": "A#2",
          "ticks": 122640,
          "time": 91.24978099999998,
          "velocity": 0.6220472440944882
        },
        {
          "duration": 0.059523666666677855,
          "durationTicks": 80,
          "midi": 36,
          "name": "C2",
          "ticks": 122880,
          "time": 91.42835199999999,
          "velocity": 0.6220472440944882
        },
        {
          "duration": 0.11904733333332729,
          "durationTicks": 160,
          "midi": 46,
          "name": "A#2",
          "ticks": 122880,
          "time": 91.42835199999999,
          "velocity": 0.6220472440944882
        },
        {
          "duration": 0.059523666666677855,
          "durationTicks": 80,
          "midi": 36,
          "name": "C2",
          "ticks": 123360,
          "time": 91.78549399999999,
          "velocity": 0.6220472440944882
        },
        {
          "duration": 0.059523666666677855,
          "durationTicks": 80,
          "midi": 38,
          "name": "D2",
          "ticks": 123360,
          "time": 91.78549399999999,
          "velocity": 0.6220472440944882
        },
        {
          "duration": 0.059523666666677855,
          "durationTicks": 80,
          "midi": 46,
          "name": "A#2",
          "ticks": 123360,
          "time": 91.78549399999999,
          "velocity": 0.6220472440944882
        },
        {
          "duration": 0.059523666666677855,
          "durationTicks": 80,
          "midi": 46,
          "name": "A#2",
          "ticks": 123600,
          "time": 91.96406499999999,
          "velocity": 0.6220472440944882
        },
        {
          "duration": 0.059523666666663644,
          "durationTicks": 80,
          "midi": 36,
          "name": "C2",
          "ticks": 123840,
          "time": 92.142636,
          "velocity": 0.6220472440944882
        },
        {
          "duration": 0.059523666666663644,
          "durationTicks": 80,
          "midi": 46,
          "name": "A#2",
          "ticks": 123840,
          "time": 92.142636,
          "velocity": 0.6220472440944882
        },
        {
          "duration": 0.059523666666677855,
          "durationTicks": 80,
          "midi": 36,
          "name": "C2",
          "ticks": 124320,
          "time": 92.49977799999999,
          "velocity": 0.6220472440944882
        },
        {
          "duration": 0.059523666666677855,
          "durationTicks": 80,
          "midi": 38,
          "name": "D2",
          "ticks": 124320,
          "time": 92.49977799999999,
          "velocity": 0.6220472440944882
        },
        {
          "duration": 0.059523666666677855,
          "durationTicks": 80,
          "midi": 46,
          "name": "A#2",
          "ticks": 124320,
          "time": 92.49977799999999,
          "velocity": 0.6220472440944882
        },
        {
          "duration": 0.059523666666677855,
          "durationTicks": 80,
          "midi": 46,
          "name": "A#2",
          "ticks": 124560,
          "time": 92.67834899999998,
          "velocity": 0.6220472440944882
        },
        {
          "duration": 0.059523666666677855,
          "durationTicks": 80,
          "midi": 36,
          "name": "C2",
          "ticks": 124800,
          "time": 92.85691999999999,
          "velocity": 0.6220472440944882
        },
        {
          "duration": 0.11904733333332729,
          "durationTicks": 160,
          "midi": 46,
          "name": "A#2",
          "ticks": 124800,
          "time": 92.85691999999999,
          "velocity": 0.6220472440944882
        },
        {
          "duration": 0.059523666666677855,
          "durationTicks": 80,
          "midi": 36,
          "name": "C2",
          "ticks": 125280,
          "time": 93.21406199999998,
          "velocity": 0.6220472440944882
        },
        {
          "duration": 0.059523666666677855,
          "durationTicks": 80,
          "midi": 38,
          "name": "D2",
          "ticks": 125280,
          "time": 93.21406199999998,
          "velocity": 0.6220472440944882
        },
        {
          "duration": 0.059523666666677855,
          "durationTicks": 80,
          "midi": 46,
          "name": "A#2",
          "ticks": 125280,
          "time": 93.21406199999998,
          "velocity": 0.6220472440944882
        },
        {
          "duration": 0.059523666666677855,
          "durationTicks": 80,
          "midi": 46,
          "name": "A#2",
          "ticks": 125520,
          "time": 93.39263299999999,
          "velocity": 0.6220472440944882
        },
        {
          "duration": 0.059523666666663644,
          "durationTicks": 80,
          "midi": 36,
          "name": "C2",
          "ticks": 125760,
          "time": 93.571204,
          "velocity": 0.6220472440944882
        },
        {
          "duration": 0.059523666666663644,
          "durationTicks": 80,
          "midi": 46,
          "name": "A#2",
          "ticks": 125760,
          "time": 93.571204,
          "velocity": 0.6220472440944882
        },
        {
          "duration": 0.059523666666677855,
          "durationTicks": 80,
          "midi": 36,
          "name": "C2",
          "ticks": 126240,
          "time": 93.92834599999999,
          "velocity": 0.6220472440944882
        },
        {
          "duration": 0.059523666666677855,
          "durationTicks": 80,
          "midi": 38,
          "name": "D2",
          "ticks": 126240,
          "time": 93.92834599999999,
          "velocity": 0.6220472440944882
        },
        {
          "duration": 0.059523666666677855,
          "durationTicks": 80,
          "midi": 46,
          "name": "A#2",
          "ticks": 126240,
          "time": 93.92834599999999,
          "velocity": 0.6220472440944882
        },
        {
          "duration": 0.059523666666663644,
          "durationTicks": 80,
          "midi": 46,
          "name": "A#2",
          "ticks": 126480,
          "time": 94.106917,
          "velocity": 0.6220472440944882
        },
        {
          "duration": 0.059523666666677855,
          "durationTicks": 80,
          "midi": 36,
          "name": "C2",
          "ticks": 126720,
          "time": 94.28548799999999,
          "velocity": 0.6220472440944882
        },
        {
          "duration": 0.11904733333332729,
          "durationTicks": 160,
          "midi": 46,
          "name": "A#2",
          "ticks": 126720,
          "time": 94.28548799999999,
          "velocity": 0.6220472440944882
        },
        {
          "duration": 0.059523666666677855,
          "durationTicks": 80,
          "midi": 36,
          "name": "C2",
          "ticks": 127200,
          "time": 94.64262999999998,
          "velocity": 0.6220472440944882
        },
        {
          "duration": 0.059523666666677855,
          "durationTicks": 80,
          "midi": 38,
          "name": "D2",
          "ticks": 127200,
          "time": 94.64262999999998,
          "velocity": 0.6220472440944882
        },
        {
          "duration": 0.059523666666677855,
          "durationTicks": 80,
          "midi": 46,
          "name": "A#2",
          "ticks": 127200,
          "time": 94.64262999999998,
          "velocity": 0.6220472440944882
        },
        {
          "duration": 0.059523666666677855,
          "durationTicks": 80,
          "midi": 46,
          "name": "A#2",
          "ticks": 127440,
          "time": 94.82120099999999,
          "velocity": 0.6220472440944882
        },
        {
          "duration": 0.059523666666663644,
          "durationTicks": 80,
          "midi": 36,
          "name": "C2",
          "ticks": 127680,
          "time": 94.999772,
          "velocity": 0.6220472440944882
        },
        {
          "duration": 0.059523666666663644,
          "durationTicks": 80,
          "midi": 46,
          "name": "A#2",
          "ticks": 127680,
          "time": 94.999772,
          "velocity": 0.6220472440944882
        },
        {
          "duration": 0.059523666666677855,
          "durationTicks": 80,
          "midi": 36,
          "name": "C2",
          "ticks": 128160,
          "time": 95.35691399999999,
          "velocity": 0.6220472440944882
        },
        {
          "duration": 0.059523666666677855,
          "durationTicks": 80,
          "midi": 38,
          "name": "D2",
          "ticks": 128160,
          "time": 95.35691399999999,
          "velocity": 0.6220472440944882
        },
        {
          "duration": 0.059523666666677855,
          "durationTicks": 80,
          "midi": 46,
          "name": "A#2",
          "ticks": 128160,
          "time": 95.35691399999999,
          "velocity": 0.6220472440944882
        },
        {
          "duration": 0.059523666666663644,
          "durationTicks": 80,
          "midi": 46,
          "name": "A#2",
          "ticks": 128400,
          "time": 95.535485,
          "velocity": 0.6220472440944882
        },
        {
          "duration": 0.059523666666677855,
          "durationTicks": 80,
          "midi": 36,
          "name": "C2",
          "ticks": 128640,
          "time": 95.71405599999999,
          "velocity": 0.6220472440944882
        },
        {
          "duration": 0.11904733333332729,
          "durationTicks": 160,
          "midi": 46,
          "name": "A#2",
          "ticks": 128640,
          "time": 95.71405599999999,
          "velocity": 0.6220472440944882
        },
        {
          "duration": 0.059523666666663644,
          "durationTicks": 80,
          "midi": 36,
          "name": "C2",
          "ticks": 129120,
          "time": 96.071198,
          "velocity": 0.6220472440944882
        },
        {
          "duration": 0.059523666666663644,
          "durationTicks": 80,
          "midi": 38,
          "name": "D2",
          "ticks": 129120,
          "time": 96.071198,
          "velocity": 0.6220472440944882
        },
        {
          "duration": 0.059523666666663644,
          "durationTicks": 80,
          "midi": 46,
          "name": "A#2",
          "ticks": 129120,
          "time": 96.071198,
          "velocity": 0.6220472440944882
        },
        {
          "duration": 0.059523666666677855,
          "durationTicks": 80,
          "midi": 46,
          "name": "A#2",
          "ticks": 129360,
          "time": 96.24976899999999,
          "velocity": 0.6220472440944882
        },
        {
          "duration": 0.059523666666677855,
          "durationTicks": 80,
          "midi": 36,
          "name": "C2",
          "ticks": 129600,
          "time": 96.42833999999999,
          "velocity": 0.6220472440944882
        },
        {
          "duration": 0.059523666666677855,
          "durationTicks": 80,
          "midi": 46,
          "name": "A#2",
          "ticks": 129600,
          "time": 96.42833999999999,
          "velocity": 0.6220472440944882
        },
        {
          "duration": 0.059523666666677855,
          "durationTicks": 80,
          "midi": 36,
          "name": "C2",
          "ticks": 130080,
          "time": 96.78548199999999,
          "velocity": 0.6220472440944882
        },
        {
          "duration": 0.059523666666677855,
          "durationTicks": 80,
          "midi": 38,
          "name": "D2",
          "ticks": 130080,
          "time": 96.78548199999999,
          "velocity": 0.6220472440944882
        },
        {
          "duration": 0.059523666666677855,
          "durationTicks": 80,
          "midi": 46,
          "name": "A#2",
          "ticks": 130080,
          "time": 96.78548199999999,
          "velocity": 0.6220472440944882
        },
        {
          "duration": 0.059523666666663644,
          "durationTicks": 80,
          "midi": 46,
          "name": "A#2",
          "ticks": 130320,
          "time": 96.96405299999999,
          "velocity": 0.6220472440944882
        },
        {
          "duration": 0.059523666666677855,
          "durationTicks": 80,
          "midi": 36,
          "name": "C2",
          "ticks": 130560,
          "time": 97.14262399999998,
          "velocity": 0.6220472440944882
        },
        {
          "duration": 0.11904733333332729,
          "durationTicks": 160,
          "midi": 46,
          "name": "A#2",
          "ticks": 130560,
          "time": 97.14262399999998,
          "velocity": 0.6220472440944882
        },
        {
          "duration": 0.059523666666663644,
          "durationTicks": 80,
          "midi": 36,
          "name": "C2",
          "ticks": 131040,
          "time": 97.499766,
          "velocity": 0.6220472440944882
        },
        {
          "duration": 0.059523666666663644,
          "durationTicks": 80,
          "midi": 38,
          "name": "D2",
          "ticks": 131040,
          "time": 97.499766,
          "velocity": 0.6220472440944882
        },
        {
          "duration": 0.059523666666663644,
          "durationTicks": 80,
          "midi": 46,
          "name": "A#2",
          "ticks": 131040,
          "time": 97.499766,
          "velocity": 0.6220472440944882
        },
        {
          "duration": 0.059523666666677855,
          "durationTicks": 80,
          "midi": 46,
          "name": "A#2",
          "ticks": 131280,
          "time": 97.67833699999998,
          "velocity": 0.6220472440944882
        },
        {
          "duration": 0.059523666666677855,
          "durationTicks": 80,
          "midi": 36,
          "name": "C2",
          "ticks": 131520,
          "time": 97.85690799999999,
          "velocity": 0.6220472440944882
        },
        {
          "duration": 0.059523666666677855,
          "durationTicks": 80,
          "midi": 46,
          "name": "A#2",
          "ticks": 131520,
          "time": 97.85690799999999,
          "velocity": 0.6220472440944882
        },
        {
          "duration": 0.059523666666677855,
          "durationTicks": 80,
          "midi": 36,
          "name": "C2",
          "ticks": 132000,
          "time": 98.21404999999999,
          "velocity": 0.6220472440944882
        },
        {
          "duration": 0.059523666666677855,
          "durationTicks": 80,
          "midi": 38,
          "name": "D2",
          "ticks": 132000,
          "time": 98.21404999999999,
          "velocity": 0.6220472440944882
        },
        {
          "duration": 0.059523666666677855,
          "durationTicks": 80,
          "midi": 46,
          "name": "A#2",
          "ticks": 132000,
          "time": 98.21404999999999,
          "velocity": 0.6220472440944882
        },
        {
          "duration": 0.059523666666677855,
          "durationTicks": 80,
          "midi": 46,
          "name": "A#2",
          "ticks": 132240,
          "time": 98.39262099999999,
          "velocity": 0.6220472440944882
        },
        {
          "duration": 0.059523666666677855,
          "durationTicks": 80,
          "midi": 36,
          "name": "C2",
          "ticks": 132480,
          "time": 98.57119199999998,
          "velocity": 0.6220472440944882
        },
        {
          "duration": 0.11904733333332729,
          "durationTicks": 160,
          "midi": 46,
          "name": "A#2",
          "ticks": 132480,
          "time": 98.57119199999998,
          "velocity": 0.6220472440944882
        },
        {
          "duration": 0.238094666666683,
          "durationTicks": 320,
          "midi": 49,
          "name": "C#3",
          "ticks": 132480,
          "time": 98.57119199999998,
          "velocity": 0.6614173228346457
        },
        {
          "duration": 0.059523666666663644,
          "durationTicks": 80,
          "midi": 36,
          "name": "C2",
          "ticks": 132960,
          "time": 98.92833399999999,
          "velocity": 0.6220472440944882
        },
        {
          "duration": 0.059523666666663644,
          "durationTicks": 80,
          "midi": 38,
          "name": "D2",
          "ticks": 132960,
          "time": 98.92833399999999,
          "velocity": 0.6220472440944882
        },
        {
          "duration": 0.059523666666663644,
          "durationTicks": 80,
          "midi": 46,
          "name": "A#2",
          "ticks": 132960,
          "time": 98.92833399999999,
          "velocity": 0.6220472440944882
        },
        {
          "duration": 0.059523666666677855,
          "durationTicks": 80,
          "midi": 46,
          "name": "A#2",
          "ticks": 133200,
          "time": 99.10690499999998,
          "velocity": 0.6220472440944882
        },
        {
          "duration": 0.059523666666677855,
          "durationTicks": 80,
          "midi": 36,
          "name": "C2",
          "ticks": 133440,
          "time": 99.28547599999999,
          "velocity": 0.6220472440944882
        },
        {
          "duration": 0.059523666666677855,
          "durationTicks": 80,
          "midi": 46,
          "name": "A#2",
          "ticks": 133440,
          "time": 99.28547599999999,
          "velocity": 0.6220472440944882
        },
        {
          "duration": 0.059523666666677855,
          "durationTicks": 80,
          "midi": 36,
          "name": "C2",
          "ticks": 133920,
          "time": 99.64261799999998,
          "velocity": 0.6220472440944882
        },
        {
          "duration": 0.059523666666677855,
          "durationTicks": 80,
          "midi": 38,
          "name": "D2",
          "ticks": 133920,
          "time": 99.64261799999998,
          "velocity": 0.6220472440944882
        },
        {
          "duration": 0.059523666666677855,
          "durationTicks": 80,
          "midi": 46,
          "name": "A#2",
          "ticks": 133920,
          "time": 99.64261799999998,
          "velocity": 0.6220472440944882
        },
        {
          "duration": 0.059523666666677855,
          "durationTicks": 80,
          "midi": 46,
          "name": "A#2",
          "ticks": 134160,
          "time": 99.82118899999999,
          "velocity": 0.6220472440944882
        },
        {
          "duration": 0.059523666666663644,
          "durationTicks": 80,
          "midi": 36,
          "name": "C2",
          "ticks": 134400,
          "time": 99.99976,
          "velocity": 0.6220472440944882
        },
        {
          "duration": 0.11904733333332729,
          "durationTicks": 160,
          "midi": 46,
          "name": "A#2",
          "ticks": 134400,
          "time": 99.99976,
          "velocity": 0.6220472440944882
        },
        {
          "duration": 0.23809466666666879,
          "durationTicks": 320,
          "midi": 49,
          "name": "C#3",
          "ticks": 134400,
          "time": 99.99976,
          "velocity": 0.6614173228346457
        },
        {
          "duration": 0.059523666666677855,
          "durationTicks": 80,
          "midi": 36,
          "name": "C2",
          "ticks": 134880,
          "time": 100.35690199999999,
          "velocity": 0.6220472440944882
        },
        {
          "duration": 0.059523666666677855,
          "durationTicks": 80,
          "midi": 38,
          "name": "D2",
          "ticks": 134880,
          "time": 100.35690199999999,
          "velocity": 0.6220472440944882
        },
        {
          "duration": 0.059523666666677855,
          "durationTicks": 80,
          "midi": 46,
          "name": "A#2",
          "ticks": 134880,
          "time": 100.35690199999999,
          "velocity": 0.6220472440944882
        },
        {
          "duration": 0.059523666666677855,
          "durationTicks": 80,
          "midi": 46,
          "name": "A#2",
          "ticks": 135120,
          "time": 100.53547299999998,
          "velocity": 0.6220472440944882
        },
        {
          "duration": 0.059523666666677855,
          "durationTicks": 80,
          "midi": 36,
          "name": "C2",
          "ticks": 135360,
          "time": 100.71404399999999,
          "velocity": 0.6220472440944882
        },
        {
          "duration": 0.059523666666677855,
          "durationTicks": 80,
          "midi": 46,
          "name": "A#2",
          "ticks": 135360,
          "time": 100.71404399999999,
          "velocity": 0.6220472440944882
        },
        {
          "duration": 0.059523666666677855,
          "durationTicks": 80,
          "midi": 36,
          "name": "C2",
          "ticks": 135840,
          "time": 101.07118599999998,
          "velocity": 0.6220472440944882
        },
        {
          "duration": 0.059523666666677855,
          "durationTicks": 80,
          "midi": 38,
          "name": "D2",
          "ticks": 135840,
          "time": 101.07118599999998,
          "velocity": 0.6220472440944882
        },
        {
          "duration": 0.059523666666677855,
          "durationTicks": 80,
          "midi": 46,
          "name": "A#2",
          "ticks": 135840,
          "time": 101.07118599999998,
          "velocity": 0.6220472440944882
        },
        {
          "duration": 0.059523666666677855,
          "durationTicks": 80,
          "midi": 46,
          "name": "A#2",
          "ticks": 136080,
          "time": 101.24975699999999,
          "velocity": 0.6220472440944882
        },
        {
          "duration": 0.059523666666663644,
          "durationTicks": 80,
          "midi": 36,
          "name": "C2",
          "ticks": 136320,
          "time": 101.428328,
          "velocity": 0.6220472440944882
        },
        {
          "duration": 0.11904733333332729,
          "durationTicks": 160,
          "midi": 46,
          "name": "A#2",
          "ticks": 136320,
          "time": 101.428328,
          "velocity": 0.6220472440944882
        },
        {
          "duration": 0.23809466666666879,
          "durationTicks": 320,
          "midi": 49,
          "name": "C#3",
          "ticks": 136320,
          "time": 101.428328,
          "velocity": 0.6614173228346457
        },
        {
          "duration": 0.059523666666677855,
          "durationTicks": 80,
          "midi": 36,
          "name": "C2",
          "ticks": 136800,
          "time": 101.78546999999999,
          "velocity": 0.6220472440944882
        },
        {
          "duration": 0.059523666666677855,
          "durationTicks": 80,
          "midi": 38,
          "name": "D2",
          "ticks": 136800,
          "time": 101.78546999999999,
          "velocity": 0.6220472440944882
        },
        {
          "duration": 0.059523666666677855,
          "durationTicks": 80,
          "midi": 46,
          "name": "A#2",
          "ticks": 136800,
          "time": 101.78546999999999,
          "velocity": 0.6220472440944882
        },
        {
          "duration": 0.059523666666663644,
          "durationTicks": 80,
          "midi": 46,
          "name": "A#2",
          "ticks": 137040,
          "time": 101.964041,
          "velocity": 0.6220472440944882
        },
        {
          "duration": 0.059523666666677855,
          "durationTicks": 80,
          "midi": 36,
          "name": "C2",
          "ticks": 137280,
          "time": 102.14261199999999,
          "velocity": 0.6220472440944882
        },
        {
          "duration": 0.059523666666677855,
          "durationTicks": 80,
          "midi": 46,
          "name": "A#2",
          "ticks": 137280,
          "time": 102.14261199999999,
          "velocity": 0.6220472440944882
        },
        {
          "duration": 0.059523666666677855,
          "durationTicks": 80,
          "midi": 36,
          "name": "C2",
          "ticks": 137760,
          "time": 102.49975399999998,
          "velocity": 0.6220472440944882
        },
        {
          "duration": 0.059523666666677855,
          "durationTicks": 80,
          "midi": 38,
          "name": "D2",
          "ticks": 137760,
          "time": 102.49975399999998,
          "velocity": 0.6220472440944882
        },
        {
          "duration": 0.059523666666677855,
          "durationTicks": 80,
          "midi": 46,
          "name": "A#2",
          "ticks": 137760,
          "time": 102.49975399999998,
          "velocity": 0.6220472440944882
        },
        {
          "duration": 0.059523666666677855,
          "durationTicks": 80,
          "midi": 46,
          "name": "A#2",
          "ticks": 138000,
          "time": 102.67832499999999,
          "velocity": 0.6220472440944882
        },
        {
          "duration": 0.059523666666663644,
          "durationTicks": 80,
          "midi": 36,
          "name": "C2",
          "ticks": 138240,
          "time": 102.85689599999999,
          "velocity": 0.6220472440944882
        },
        {
          "duration": 0.11904733333332729,
          "durationTicks": 160,
          "midi": 46,
          "name": "A#2",
          "ticks": 138240,
          "time": 102.85689599999999,
          "velocity": 0.6220472440944882
        },
        {
          "duration": 0.23809466666666879,
          "durationTicks": 320,
          "midi": 49,
          "name": "C#3",
          "ticks": 138240,
          "time": 102.85689599999999,
          "velocity": 0.6614173228346457
        },
        {
          "duration": 0.059523666666677855,
          "durationTicks": 80,
          "midi": 36,
          "name": "C2",
          "ticks": 138720,
          "time": 103.21403799999999,
          "velocity": 0.6220472440944882
        },
        {
          "duration": 0.059523666666677855,
          "durationTicks": 80,
          "midi": 38,
          "name": "D2",
          "ticks": 138720,
          "time": 103.21403799999999,
          "velocity": 0.6220472440944882
        },
        {
          "duration": 0.059523666666677855,
          "durationTicks": 80,
          "midi": 46,
          "name": "A#2",
          "ticks": 138720,
          "time": 103.21403799999999,
          "velocity": 0.6220472440944882
        },
        {
          "duration": 0.059523666666663644,
          "durationTicks": 80,
          "midi": 46,
          "name": "A#2",
          "ticks": 138960,
          "time": 103.392609,
          "velocity": 0.6220472440944882
        },
        {
          "duration": 0.059523666666677855,
          "durationTicks": 80,
          "midi": 36,
          "name": "C2",
          "ticks": 139200,
          "time": 103.57117999999998,
          "velocity": 0.6220472440944882
        },
        {
          "duration": 0.059523666666677855,
          "durationTicks": 80,
          "midi": 46,
          "name": "A#2",
          "ticks": 139200,
          "time": 103.57117999999998,
          "velocity": 0.6220472440944882
        },
        {
          "duration": 0.059523666666663644,
          "durationTicks": 80,
          "midi": 36,
          "name": "C2",
          "ticks": 139680,
          "time": 103.928322,
          "velocity": 0.6220472440944882
        },
        {
          "duration": 0.059523666666663644,
          "durationTicks": 80,
          "midi": 38,
          "name": "D2",
          "ticks": 139680,
          "time": 103.928322,
          "velocity": 0.6220472440944882
        },
        {
          "duration": 0.059523666666663644,
          "durationTicks": 80,
          "midi": 46,
          "name": "A#2",
          "ticks": 139680,
          "time": 103.928322,
          "velocity": 0.6220472440944882
        },
        {
          "duration": 0.059523666666677855,
          "durationTicks": 80,
          "midi": 46,
          "name": "A#2",
          "ticks": 139920,
          "time": 104.10689299999999,
          "velocity": 0.6220472440944882
        },
        {
          "duration": 0.059523666666677855,
          "durationTicks": 80,
          "midi": 36,
          "name": "C2",
          "ticks": 140160,
          "time": 104.28546399999999,
          "velocity": 0.6220472440944882
        },
        {
          "duration": 0.11904733333332729,
          "durationTicks": 160,
          "midi": 46,
          "name": "A#2",
          "ticks": 140160,
          "time": 104.28546399999999,
          "velocity": 0.6220472440944882
        },
        {
          "duration": 0.059523666666677855,
          "durationTicks": 80,
          "midi": 36,
          "name": "C2",
          "ticks": 140640,
          "time": 104.64260599999999,
          "velocity": 0.6220472440944882
        },
        {
          "duration": 0.059523666666677855,
          "durationTicks": 80,
          "midi": 38,
          "name": "D2",
          "ticks": 140640,
          "time": 104.64260599999999,
          "velocity": 0.6220472440944882
        },
        {
          "duration": 0.059523666666677855,
          "durationTicks": 80,
          "midi": 46,
          "name": "A#2",
          "ticks": 140640,
          "time": 104.64260599999999,
          "velocity": 0.6220472440944882
        },
        {
          "duration": 0.059523666666663644,
          "durationTicks": 80,
          "midi": 46,
          "name": "A#2",
          "ticks": 140880,
          "time": 104.82117699999999,
          "velocity": 0.6220472440944882
        },
        {
          "duration": 0.059523666666677855,
          "durationTicks": 80,
          "midi": 36,
          "name": "C2",
          "ticks": 141120,
          "time": 104.99974799999998,
          "velocity": 0.6220472440944882
        },
        {
          "duration": 0.059523666666677855,
          "durationTicks": 80,
          "midi": 46,
          "name": "A#2",
          "ticks": 141120,
          "time": 104.99974799999998,
          "velocity": 0.6220472440944882
        },
        {
          "duration": 0.059523666666663644,
          "durationTicks": 80,
          "midi": 36,
          "name": "C2",
          "ticks": 141600,
          "time": 105.35688999999999,
          "velocity": 0.6220472440944882
        },
        {
          "duration": 0.059523666666663644,
          "durationTicks": 80,
          "midi": 38,
          "name": "D2",
          "ticks": 141600,
          "time": 105.35688999999999,
          "velocity": 0.6220472440944882
        },
        {
          "duration": 0.059523666666663644,
          "durationTicks": 80,
          "midi": 46,
          "name": "A#2",
          "ticks": 141600,
          "time": 105.35688999999999,
          "velocity": 0.6220472440944882
        },
        {
          "duration": 0.059523666666677855,
          "durationTicks": 80,
          "midi": 46,
          "name": "A#2",
          "ticks": 141840,
          "time": 105.53546099999998,
          "velocity": 0.6220472440944882
        },
        {
          "duration": 0.059523666666677855,
          "durationTicks": 80,
          "midi": 36,
          "name": "C2",
          "ticks": 142080,
          "time": 105.71403199999999,
          "velocity": 0.6220472440944882
        },
        {
          "duration": 0.11904733333332729,
          "durationTicks": 160,
          "midi": 46,
          "name": "A#2",
          "ticks": 142080,
          "time": 105.71403199999999,
          "velocity": 0.6220472440944882
        },
        {
          "duration": 0.059523666666677855,
          "durationTicks": 80,
          "midi": 36,
          "name": "C2",
          "ticks": 142560,
          "time": 106.07117399999998,
          "velocity": 0.6220472440944882
        },
        {
          "duration": 0.059523666666677855,
          "durationTicks": 80,
          "midi": 38,
          "name": "D2",
          "ticks": 142560,
          "time": 106.07117399999998,
          "velocity": 0.6220472440944882
        },
        {
          "duration": 0.059523666666677855,
          "durationTicks": 80,
          "midi": 46,
          "name": "A#2",
          "ticks": 142560,
          "time": 106.07117399999998,
          "velocity": 0.6220472440944882
        },
        {
          "duration": 0.059523666666677855,
          "durationTicks": 80,
          "midi": 46,
          "name": "A#2",
          "ticks": 142800,
          "time": 106.24974499999999,
          "velocity": 0.6220472440944882
        },
        {
          "duration": 0.059523666666677855,
          "durationTicks": 80,
          "midi": 36,
          "name": "C2",
          "ticks": 143040,
          "time": 106.42831599999998,
          "velocity": 0.6220472440944882
        },
        {
          "duration": 0.059523666666677855,
          "durationTicks": 80,
          "midi": 46,
          "name": "A#2",
          "ticks": 143040,
          "time": 106.42831599999998,
          "velocity": 0.6220472440944882
        },
        {
          "duration": 0.059523666666663644,
          "durationTicks": 80,
          "midi": 36,
          "name": "C2",
          "ticks": 143520,
          "time": 106.78545799999999,
          "velocity": 0.6220472440944882
        },
        {
          "duration": 0.059523666666663644,
          "durationTicks": 80,
          "midi": 38,
          "name": "D2",
          "ticks": 143520,
          "time": 106.78545799999999,
          "velocity": 0.6220472440944882
        },
        {
          "duration": 0.059523666666663644,
          "durationTicks": 80,
          "midi": 46,
          "name": "A#2",
          "ticks": 143520,
          "time": 106.78545799999999,
          "velocity": 0.6220472440944882
        },
        {
          "duration": 0.059523666666677855,
          "durationTicks": 80,
          "midi": 46,
          "name": "A#2",
          "ticks": 143760,
          "time": 106.96402899999998,
          "velocity": 0.6220472440944882
        },
        {
          "duration": 0.059523666666677855,
          "durationTicks": 80,
          "midi": 36,
          "name": "C2",
          "ticks": 144000,
          "time": 107.14259999999999,
          "velocity": 0.6220472440944882
        },
        {
          "duration": 0.11904733333332729,
          "durationTicks": 160,
          "midi": 46,
          "name": "A#2",
          "ticks": 144000,
          "time": 107.14259999999999,
          "velocity": 0.6220472440944882
        },
        {
          "duration": 0.059523666666677855,
          "durationTicks": 80,
          "midi": 36,
          "name": "C2",
          "ticks": 144480,
          "time": 107.49974199999998,
          "velocity": 0.6220472440944882
        },
        {
          "duration": 0.059523666666677855,
          "durationTicks": 80,
          "midi": 38,
          "name": "D2",
          "ticks": 144480,
          "time": 107.49974199999998,
          "velocity": 0.6220472440944882
        },
        {
          "duration": 0.059523666666677855,
          "durationTicks": 80,
          "midi": 46,
          "name": "A#2",
          "ticks": 144480,
          "time": 107.49974199999998,
          "velocity": 0.6220472440944882
        },
        {
          "duration": 0.059523666666677855,
          "durationTicks": 80,
          "midi": 46,
          "name": "A#2",
          "ticks": 144720,
          "time": 107.67831299999999,
          "velocity": 0.6220472440944882
        },
        {
          "duration": 0.059523666666663644,
          "durationTicks": 80,
          "midi": 36,
          "name": "C2",
          "ticks": 144960,
          "time": 107.856884,
          "velocity": 0.6220472440944882
        },
        {
          "duration": 0.059523666666663644,
          "durationTicks": 80,
          "midi": 46,
          "name": "A#2",
          "ticks": 144960,
          "time": 107.856884,
          "velocity": 0.6220472440944882
        },
        {
          "duration": 0.059523666666677855,
          "durationTicks": 80,
          "midi": 36,
          "name": "C2",
          "ticks": 145440,
          "time": 108.21402599999999,
          "velocity": 0.6220472440944882
        },
        {
          "duration": 0.059523666666677855,
          "durationTicks": 80,
          "midi": 38,
          "name": "D2",
          "ticks": 145440,
          "time": 108.21402599999999,
          "velocity": 0.6220472440944882
        },
        {
          "duration": 0.059523666666677855,
          "durationTicks": 80,
          "midi": 46,
          "name": "A#2",
          "ticks": 145440,
          "time": 108.21402599999999,
          "velocity": 0.6220472440944882
        },
        {
          "duration": 0.059523666666677855,
          "durationTicks": 80,
          "midi": 46,
          "name": "A#2",
          "ticks": 145680,
          "time": 108.39259699999998,
          "velocity": 0.6220472440944882
        },
        {
          "duration": 0.059523666666677855,
          "durationTicks": 80,
          "midi": 36,
          "name": "C2",
          "ticks": 145920,
          "time": 108.57116799999999,
          "velocity": 0.6220472440944882
        },
        {
          "duration": 0.11904733333332729,
          "durationTicks": 160,
          "midi": 46,
          "name": "A#2",
          "ticks": 145920,
          "time": 108.57116799999999,
          "velocity": 0.6220472440944882
        },
        {
          "duration": 0.059523666666677855,
          "durationTicks": 80,
          "midi": 36,
          "name": "C2",
          "ticks": 146400,
          "time": 108.92830999999998,
          "velocity": 0.6220472440944882
        },
        {
          "duration": 0.059523666666677855,
          "durationTicks": 80,
          "midi": 38,
          "name": "D2",
          "ticks": 146400,
          "time": 108.92830999999998,
          "velocity": 0.6220472440944882
        },
        {
          "duration": 0.059523666666677855,
          "durationTicks": 80,
          "midi": 46,
          "name": "A#2",
          "ticks": 146400,
          "time": 108.92830999999998,
          "velocity": 0.6220472440944882
        },
        {
          "duration": 0.059523666666677855,
          "durationTicks": 80,
          "midi": 46,
          "name": "A#2",
          "ticks": 146640,
          "time": 109.10688099999999,
          "velocity": 0.6220472440944882
        },
        {
          "duration": 0.059523666666663644,
          "durationTicks": 80,
          "midi": 36,
          "name": "C2",
          "ticks": 146880,
          "time": 109.28545199999999,
          "velocity": 0.6220472440944882
        },
        {
          "duration": 0.059523666666663644,
          "durationTicks": 80,
          "midi": 46,
          "name": "A#2",
          "ticks": 146880,
          "time": 109.28545199999999,
          "velocity": 0.6220472440944882
        },
        {
          "duration": 0.059523666666677855,
          "durationTicks": 80,
          "midi": 36,
          "name": "C2",
          "ticks": 147360,
          "time": 109.64259399999999,
          "velocity": 0.6220472440944882
        },
        {
          "duration": 0.059523666666677855,
          "durationTicks": 80,
          "midi": 38,
          "name": "D2",
          "ticks": 147360,
          "time": 109.64259399999999,
          "velocity": 0.6220472440944882
        },
        {
          "duration": 0.059523666666677855,
          "durationTicks": 80,
          "midi": 46,
          "name": "A#2",
          "ticks": 147360,
          "time": 109.64259399999999,
          "velocity": 0.6220472440944882
        },
        {
          "duration": 0.059523666666663644,
          "durationTicks": 80,
          "midi": 46,
          "name": "A#2",
          "ticks": 147600,
          "time": 109.821165,
          "velocity": 0.6220472440944882
        },
        {
          "duration": 0.059523666666677855,
          "durationTicks": 80,
          "midi": 36,
          "name": "C2",
          "ticks": 147840,
          "time": 109.99973599999998,
          "velocity": 0.6220472440944882
        },
        {
          "duration": 0.11904733333332729,
          "durationTicks": 160,
          "midi": 46,
          "name": "A#2",
          "ticks": 147840,
          "time": 109.99973599999998,
          "velocity": 0.6220472440944882
        },
        {
          "duration": 0.059523666666677855,
          "durationTicks": 80,
          "midi": 36,
          "name": "C2",
          "ticks": 148320,
          "time": 110.35687799999998,
          "velocity": 0.6220472440944882
        },
        {
          "duration": 0.059523666666677855,
          "durationTicks": 80,
          "midi": 38,
          "name": "D2",
          "ticks": 148320,
          "time": 110.35687799999998,
          "velocity": 0.6220472440944882
        },
        {
          "duration": 0.059523666666677855,
          "durationTicks": 80,
          "midi": 46,
          "name": "A#2",
          "ticks": 148320,
          "time": 110.35687799999998,
          "velocity": 0.6220472440944882
        },
        {
          "duration": 0.059523666666677855,
          "durationTicks": 80,
          "midi": 46,
          "name": "A#2",
          "ticks": 148560,
          "time": 110.53544899999999,
          "velocity": 0.6220472440944882
        },
        {
          "duration": 0.059523666666663644,
          "durationTicks": 80,
          "midi": 36,
          "name": "C2",
          "ticks": 148800,
          "time": 110.71401999999999,
          "velocity": 0.6220472440944882
        },
        {
          "duration": 0.059523666666663644,
          "durationTicks": 80,
          "midi": 46,
          "name": "A#2",
          "ticks": 148800,
          "time": 110.71401999999999,
          "velocity": 0.6220472440944882
        },
        {
          "duration": 0.059523666666677855,
          "durationTicks": 80,
          "midi": 36,
          "name": "C2",
          "ticks": 149280,
          "time": 111.07116199999999,
          "velocity": 0.6220472440944882
        },
        {
          "duration": 0.059523666666677855,
          "durationTicks": 80,
          "midi": 38,
          "name": "D2",
          "ticks": 149280,
          "time": 111.07116199999999,
          "velocity": 0.6220472440944882
        },
        {
          "duration": 0.059523666666677855,
          "durationTicks": 80,
          "midi": 46,
          "name": "A#2",
          "ticks": 149280,
          "time": 111.07116199999999,
          "velocity": 0.6220472440944882
        },
        {
          "duration": 0.059523666666663644,
          "durationTicks": 80,
          "midi": 46,
          "name": "A#2",
          "ticks": 149520,
          "time": 111.24973299999999,
          "velocity": 0.6220472440944882
        },
        {
          "duration": 0.059523666666677855,
          "durationTicks": 80,
          "midi": 36,
          "name": "C2",
          "ticks": 149760,
          "time": 111.42830399999998,
          "velocity": 0.6220472440944882
        },
        {
          "duration": 0.11904733333332729,
          "durationTicks": 160,
          "midi": 46,
          "name": "A#2",
          "ticks": 149760,
          "time": 111.42830399999998,
          "velocity": 0.6220472440944882
        },
        {
          "duration": 0.059523666666663644,
          "durationTicks": 80,
          "midi": 36,
          "name": "C2",
          "ticks": 150240,
          "time": 111.785446,
          "velocity": 0.6220472440944882
        },
        {
          "duration": 0.059523666666663644,
          "durationTicks": 80,
          "midi": 38,
          "name": "D2",
          "ticks": 150240,
          "time": 111.785446,
          "velocity": 0.6220472440944882
        },
        {
          "duration": 0.059523666666663644,
          "durationTicks": 80,
          "midi": 46,
          "name": "A#2",
          "ticks": 150240,
          "time": 111.785446,
          "velocity": 0.6220472440944882
        },
        {
          "duration": 0.059523666666677855,
          "durationTicks": 80,
          "midi": 46,
          "name": "A#2",
          "ticks": 150480,
          "time": 111.96401699999998,
          "velocity": 0.6220472440944882
        },
        {
          "duration": 0.059523666666677855,
          "durationTicks": 80,
          "midi": 36,
          "name": "C2",
          "ticks": 150720,
          "time": 112.14258799999999,
          "velocity": 0.6220472440944882
        },
        {
          "duration": 0.059523666666677855,
          "durationTicks": 80,
          "midi": 46,
          "name": "A#2",
          "ticks": 150720,
          "time": 112.14258799999999,
          "velocity": 0.6220472440944882
        },
        {
          "duration": 0.059523666666677855,
          "durationTicks": 80,
          "midi": 36,
          "name": "C2",
          "ticks": 151200,
          "time": 112.49972999999999,
          "velocity": 0.6220472440944882
        },
        {
          "duration": 0.059523666666677855,
          "durationTicks": 80,
          "midi": 38,
          "name": "D2",
          "ticks": 151200,
          "time": 112.49972999999999,
          "velocity": 0.6220472440944882
        },
        {
          "duration": 0.059523666666677855,
          "durationTicks": 80,
          "midi": 46,
          "name": "A#2",
          "ticks": 151200,
          "time": 112.49972999999999,
          "velocity": 0.6220472440944882
        },
        {
          "duration": 0.059523666666663644,
          "durationTicks": 80,
          "midi": 46,
          "name": "A#2",
          "ticks": 151440,
          "time": 112.67830099999999,
          "velocity": 0.6220472440944882
        },
        {
          "duration": 0.059523666666677855,
          "durationTicks": 80,
          "midi": 36,
          "name": "C2",
          "ticks": 151680,
          "time": 112.85687199999998,
          "velocity": 0.6220472440944882
        },
        {
          "duration": 0.11904733333332729,
          "durationTicks": 160,
          "midi": 46,
          "name": "A#2",
          "ticks": 151680,
          "time": 112.85687199999998,
          "velocity": 0.6220472440944882
        },
        {
          "duration": 0.059523666666663644,
          "durationTicks": 80,
          "midi": 36,
          "name": "C2",
          "ticks": 152160,
          "time": 113.21401399999999,
          "velocity": 0.6220472440944882
        },
        {
          "duration": 0.059523666666663644,
          "durationTicks": 80,
          "midi": 38,
          "name": "D2",
          "ticks": 152160,
          "time": 113.21401399999999,
          "velocity": 0.6220472440944882
        },
        {
          "duration": 0.059523666666663644,
          "durationTicks": 80,
          "midi": 46,
          "name": "A#2",
          "ticks": 152160,
          "time": 113.21401399999999,
          "velocity": 0.6220472440944882
        },
        {
          "duration": 0.059523666666677855,
          "durationTicks": 80,
          "midi": 46,
          "name": "A#2",
          "ticks": 152400,
          "time": 113.39258499999998,
          "velocity": 0.6220472440944882
        },
        {
          "duration": 0.059523666666677855,
          "durationTicks": 80,
          "midi": 36,
          "name": "C2",
          "ticks": 152640,
          "time": 113.57115599999999,
          "velocity": 0.6220472440944882
        },
        {
          "duration": 0.059523666666677855,
          "durationTicks": 80,
          "midi": 46,
          "name": "A#2",
          "ticks": 152640,
          "time": 113.57115599999999,
          "velocity": 0.6220472440944882
        },
        {
          "duration": 0.059523666666677855,
          "durationTicks": 80,
          "midi": 36,
          "name": "C2",
          "ticks": 153120,
          "time": 113.92829799999998,
          "velocity": 0.6220472440944882
        },
        {
          "duration": 0.059523666666677855,
          "durationTicks": 80,
          "midi": 38,
          "name": "D2",
          "ticks": 153120,
          "time": 113.92829799999998,
          "velocity": 0.6220472440944882
        },
        {
          "duration": 0.059523666666677855,
          "durationTicks": 80,
          "midi": 46,
          "name": "A#2",
          "ticks": 153120,
          "time": 113.92829799999998,
          "velocity": 0.6220472440944882
        },
        {
          "duration": 0.059523666666677855,
          "durationTicks": 80,
          "midi": 46,
          "name": "A#2",
          "ticks": 153360,
          "time": 114.10686899999999,
          "velocity": 0.6220472440944882
        },
        {
          "duration": 0.059523666666663644,
          "durationTicks": 80,
          "midi": 36,
          "name": "C2",
          "ticks": 153600,
          "time": 114.28544,
          "velocity": 0.6220472440944882
        },
        {
          "duration": 0.11904733333331308,
          "durationTicks": 160,
          "midi": 46,
          "name": "A#2",
          "ticks": 153600,
          "time": 114.28544,
          "velocity": 0.6220472440944882
        },
        {
          "duration": 0.059523666666663644,
          "durationTicks": 80,
          "midi": 36,
          "name": "C2",
          "ticks": 154080,
          "time": 114.64258199999999,
          "velocity": 0.6220472440944882
        },
        {
          "duration": 0.059523666666663644,
          "durationTicks": 80,
          "midi": 38,
          "name": "D2",
          "ticks": 154080,
          "time": 114.64258199999999,
          "velocity": 0.6220472440944882
        },
        {
          "duration": 0.059523666666663644,
          "durationTicks": 80,
          "midi": 46,
          "name": "A#2",
          "ticks": 154080,
          "time": 114.64258199999999,
          "velocity": 0.6220472440944882
        },
        {
          "duration": 0.059523666666677855,
          "durationTicks": 80,
          "midi": 46,
          "name": "A#2",
          "ticks": 154320,
          "time": 114.82115299999998,
          "velocity": 0.6220472440944882
        },
        {
          "duration": 0.059523666666677855,
          "durationTicks": 80,
          "midi": 36,
          "name": "C2",
          "ticks": 154560,
          "time": 114.99972399999999,
          "velocity": 0.6220472440944882
        },
        {
          "duration": 0.059523666666677855,
          "durationTicks": 80,
          "midi": 46,
          "name": "A#2",
          "ticks": 154560,
          "time": 114.99972399999999,
          "velocity": 0.6220472440944882
        },
        {
          "duration": 0.059523666666677855,
          "durationTicks": 80,
          "midi": 36,
          "name": "C2",
          "ticks": 155040,
          "time": 115.35686599999998,
          "velocity": 0.6220472440944882
        },
        {
          "duration": 0.059523666666677855,
          "durationTicks": 80,
          "midi": 38,
          "name": "D2",
          "ticks": 155040,
          "time": 115.35686599999998,
          "velocity": 0.6220472440944882
        },
        {
          "duration": 0.059523666666677855,
          "durationTicks": 80,
          "midi": 46,
          "name": "A#2",
          "ticks": 155040,
          "time": 115.35686599999998,
          "velocity": 0.6220472440944882
        },
        {
          "duration": 0.059523666666677855,
          "durationTicks": 80,
          "midi": 46,
          "name": "A#2",
          "ticks": 155280,
          "time": 115.53543699999999,
          "velocity": 0.6220472440944882
        },
        {
          "duration": 0.059523666666663644,
          "durationTicks": 80,
          "midi": 36,
          "name": "C2",
          "ticks": 155520,
          "time": 115.71400799999999,
          "velocity": 0.6220472440944882
        },
        {
          "duration": 0.11904733333332729,
          "durationTicks": 160,
          "midi": 46,
          "name": "A#2",
          "ticks": 155520,
          "time": 115.71400799999999,
          "velocity": 0.6220472440944882
        },
        {
          "duration": 0.059523666666677855,
          "durationTicks": 80,
          "midi": 36,
          "name": "C2",
          "ticks": 156000,
          "time": 116.07114999999999,
          "velocity": 0.6220472440944882
        },
        {
          "duration": 0.059523666666677855,
          "durationTicks": 80,
          "midi": 38,
          "name": "D2",
          "ticks": 156000,
          "time": 116.07114999999999,
          "velocity": 0.6220472440944882
        },
        {
          "duration": 0.059523666666677855,
          "durationTicks": 80,
          "midi": 46,
          "name": "A#2",
          "ticks": 156000,
          "time": 116.07114999999999,
          "velocity": 0.6220472440944882
        },
        {
          "duration": 0.059523666666663644,
          "durationTicks": 80,
          "midi": 46,
          "name": "A#2",
          "ticks": 156240,
          "time": 116.249721,
          "velocity": 0.6220472440944882
        },
        {
          "duration": 0.059523666666677855,
          "durationTicks": 80,
          "midi": 36,
          "name": "C2",
          "ticks": 156480,
          "time": 116.42829199999998,
          "velocity": 0.6220472440944882
        },
        {
          "duration": 0.059523666666677855,
          "durationTicks": 80,
          "midi": 46,
          "name": "A#2",
          "ticks": 156480,
          "time": 116.42829199999998,
          "velocity": 0.6220472440944882
        },
        {
          "duration": 0.059523666666677855,
          "durationTicks": 80,
          "midi": 36,
          "name": "C2",
          "ticks": 156960,
          "time": 116.78543399999998,
          "velocity": 0.6220472440944882
        },
        {
          "duration": 0.059523666666677855,
          "durationTicks": 80,
          "midi": 38,
          "name": "D2",
          "ticks": 156960,
          "time": 116.78543399999998,
          "velocity": 0.6220472440944882
        },
        {
          "duration": 0.059523666666677855,
          "durationTicks": 80,
          "midi": 46,
          "name": "A#2",
          "ticks": 156960,
          "time": 116.78543399999998,
          "velocity": 0.6220472440944882
        },
        {
          "duration": 0.059523666666677855,
          "durationTicks": 80,
          "midi": 46,
          "name": "A#2",
          "ticks": 157200,
          "time": 116.96400499999999,
          "velocity": 0.6220472440944882
        },
        {
          "duration": 0.23809466666666879,
          "durationTicks": 320,
          "midi": 36,
          "name": "C2",
          "ticks": 157440,
          "time": 117.14257599999999,
          "velocity": 0.6220472440944882
        },
        {
          "duration": 0.23809466666666879,
          "durationTicks": 320,
          "midi": 38,
          "name": "D2",
          "ticks": 157440,
          "time": 117.14257599999999,
          "velocity": 0.6220472440944882
        },
        {
          "duration": 0.23809466666666879,
          "durationTicks": 320,
          "midi": 49,
          "name": "C#3",
          "ticks": 157440,
          "time": 117.14257599999999,
          "velocity": 0.6220472440944882
        },
        {
          "duration": 0.059523666666663644,
          "durationTicks": 80,
          "midi": 36,
          "name": "C2",
          "ticks": 159360,
          "time": 118.57114399999999,
          "velocity": 0.6220472440944882
        },
        {
          "duration": 0.11904733333332729,
          "durationTicks": 160,
          "midi": 46,
          "name": "A#2",
          "ticks": 159360,
          "time": 118.57114399999999,
          "velocity": 0.6220472440944882
        },
        {
          "duration": 0.23809466666666879,
          "durationTicks": 320,
          "midi": 49,
          "name": "C#3",
          "ticks": 159360,
          "time": 118.57114399999999,
          "velocity": 0.6220472440944882
        },
        {
          "duration": 0.059523666666677855,
          "durationTicks": 80,
          "midi": 36,
          "name": "C2",
          "ticks": 159840,
          "time": 118.92828599999999,
          "velocity": 0.6220472440944882
        },
        {
          "duration": 0.059523666666677855,
          "durationTicks": 80,
          "midi": 38,
          "name": "D2",
          "ticks": 159840,
          "time": 118.92828599999999,
          "velocity": 0.6220472440944882
        },
        {
          "duration": 0.059523666666677855,
          "durationTicks": 80,
          "midi": 46,
          "name": "A#2",
          "ticks": 159840,
          "time": 118.92828599999999,
          "velocity": 0.6220472440944882
        },
        {
          "duration": 0.23809466666666879,
          "durationTicks": 320,
          "midi": 49,
          "name": "C#3",
          "ticks": 159840,
          "time": 118.92828599999999,
          "velocity": 0.6220472440944882
        },
        {
          "duration": 0.059523666666663644,
          "durationTicks": 80,
          "midi": 46,
          "name": "A#2",
          "ticks": 160080,
          "time": 119.10685699999999,
          "velocity": 0.6220472440944882
        },
        {
          "duration": 0.059523666666677855,
          "durationTicks": 80,
          "midi": 36,
          "name": "C2",
          "ticks": 160320,
          "time": 119.28542799999998,
          "velocity": 0.6220472440944882
        },
        {
          "duration": 0.059523666666677855,
          "durationTicks": 80,
          "midi": 46,
          "name": "A#2",
          "ticks": 160320,
          "time": 119.28542799999998,
          "velocity": 0.6220472440944882
        },
        {
          "duration": 0.059523666666663644,
          "durationTicks": 80,
          "midi": 36,
          "name": "C2",
          "ticks": 160800,
          "time": 119.64256999999999,
          "velocity": 0.6220472440944882
        },
        {
          "duration": 0.059523666666663644,
          "durationTicks": 80,
          "midi": 38,
          "name": "D2",
          "ticks": 160800,
          "time": 119.64256999999999,
          "velocity": 0.6220472440944882
        },
        {
          "duration": 0.059523666666663644,
          "durationTicks": 80,
          "midi": 46,
          "name": "A#2",
          "ticks": 160800,
          "time": 119.64256999999999,
          "velocity": 0.6220472440944882
        },
        {
          "duration": 0.059523666666677855,
          "durationTicks": 80,
          "midi": 46,
          "name": "A#2",
          "ticks": 161040,
          "time": 119.82114099999998,
          "velocity": 0.6220472440944882
        },
        {
          "duration": 0.059523666666677855,
          "durationTicks": 80,
          "midi": 36,
          "name": "C2",
          "ticks": 161280,
          "time": 119.99971199999999,
          "velocity": 0.6220472440944882
        },
        {
          "duration": 0.11904733333332729,
          "durationTicks": 160,
          "midi": 46,
          "name": "A#2",
          "ticks": 161280,
          "time": 119.99971199999999,
          "velocity": 0.6220472440944882
        },
        {
          "duration": 0.059523666666677855,
          "durationTicks": 80,
          "midi": 36,
          "name": "C2",
          "ticks": 161760,
          "time": 120.35685399999998,
          "velocity": 0.6220472440944882
        },
        {
          "duration": 0.059523666666677855,
          "durationTicks": 80,
          "midi": 38,
          "name": "D2",
          "ticks": 161760,
          "time": 120.35685399999998,
          "velocity": 0.6220472440944882
        },
        {
          "duration": 0.059523666666677855,
          "durationTicks": 80,
          "midi": 46,
          "name": "A#2",
          "ticks": 161760,
          "time": 120.35685399999998,
          "velocity": 0.6220472440944882
        },
        {
          "duration": 0.059523666666663644,
          "durationTicks": 80,
          "midi": 46,
          "name": "A#2",
          "ticks": 162000,
          "time": 120.53542499999999,
          "velocity": 0.6220472440944882
        },
        {
          "duration": 0.059523666666677855,
          "durationTicks": 80,
          "midi": 36,
          "name": "C2",
          "ticks": 162240,
          "time": 120.71399599999998,
          "velocity": 0.6220472440944882
        },
        {
          "duration": 0.059523666666677855,
          "durationTicks": 80,
          "midi": 46,
          "name": "A#2",
          "ticks": 162240,
          "time": 120.71399599999998,
          "velocity": 0.6220472440944882
        },
        {
          "duration": 0.059523666666663644,
          "durationTicks": 80,
          "midi": 36,
          "name": "C2",
          "ticks": 162720,
          "time": 121.07113799999999,
          "velocity": 0.6220472440944882
        },
        {
          "duration": 0.059523666666663644,
          "durationTicks": 80,
          "midi": 38,
          "name": "D2",
          "ticks": 162720,
          "time": 121.07113799999999,
          "velocity": 0.6220472440944882
        },
        {
          "duration": 0.059523666666663644,
          "durationTicks": 80,
          "midi": 46,
          "name": "A#2",
          "ticks": 162720,
          "time": 121.07113799999999,
          "velocity": 0.6220472440944882
        },
        {
          "duration": 0.059523666666677855,
          "durationTicks": 80,
          "midi": 46,
          "name": "A#2",
          "ticks": 162960,
          "time": 121.24970899999998,
          "velocity": 0.6220472440944882
        },
        {
          "duration": 0.059523666666677855,
          "durationTicks": 80,
          "midi": 36,
          "name": "C2",
          "ticks": 163200,
          "time": 121.42827999999999,
          "velocity": 0.6220472440944882
        },
        {
          "duration": 0.11904733333332729,
          "durationTicks": 160,
          "midi": 46,
          "name": "A#2",
          "ticks": 163200,
          "time": 121.42827999999999,
          "velocity": 0.6220472440944882
        },
        {
          "duration": 0.059523666666677855,
          "durationTicks": 80,
          "midi": 36,
          "name": "C2",
          "ticks": 163680,
          "time": 121.78542199999998,
          "velocity": 0.6220472440944882
        },
        {
          "duration": 0.059523666666677855,
          "durationTicks": 80,
          "midi": 38,
          "name": "D2",
          "ticks": 163680,
          "time": 121.78542199999998,
          "velocity": 0.6220472440944882
        },
        {
          "duration": 0.059523666666677855,
          "durationTicks": 80,
          "midi": 46,
          "name": "A#2",
          "ticks": 163680,
          "time": 121.78542199999998,
          "velocity": 0.6220472440944882
        },
        {
          "duration": 0.059523666666677855,
          "durationTicks": 80,
          "midi": 46,
          "name": "A#2",
          "ticks": 163920,
          "time": 121.96399299999999,
          "velocity": 0.6220472440944882
        },
        {
          "duration": 0.059523666666663644,
          "durationTicks": 80,
          "midi": 36,
          "name": "C2",
          "ticks": 164160,
          "time": 122.142564,
          "velocity": 0.6220472440944882
        },
        {
          "duration": 0.059523666666663644,
          "durationTicks": 80,
          "midi": 46,
          "name": "A#2",
          "ticks": 164160,
          "time": 122.142564,
          "velocity": 0.6220472440944882
        },
        {
          "duration": 0.059523666666663644,
          "durationTicks": 80,
          "midi": 36,
          "name": "C2",
          "ticks": 164640,
          "time": 122.49970599999999,
          "velocity": 0.6220472440944882
        },
        {
          "duration": 0.059523666666663644,
          "durationTicks": 80,
          "midi": 38,
          "name": "D2",
          "ticks": 164640,
          "time": 122.49970599999999,
          "velocity": 0.6220472440944882
        },
        {
          "duration": 0.059523666666663644,
          "durationTicks": 80,
          "midi": 46,
          "name": "A#2",
          "ticks": 164640,
          "time": 122.49970599999999,
          "velocity": 0.6220472440944882
        },
        {
          "duration": 0.059523666666677855,
          "durationTicks": 80,
          "midi": 46,
          "name": "A#2",
          "ticks": 164880,
          "time": 122.67827699999998,
          "velocity": 0.6220472440944882
        },
        {
          "duration": 0.059523666666677855,
          "durationTicks": 80,
          "midi": 36,
          "name": "C2",
          "ticks": 165120,
          "time": 122.85684799999999,
          "velocity": 0.6220472440944882
        },
        {
          "duration": 0.11904733333332729,
          "durationTicks": 160,
          "midi": 46,
          "name": "A#2",
          "ticks": 165120,
          "time": 122.85684799999999,
          "velocity": 0.6220472440944882
        },
        {
          "duration": 0.059523666666677855,
          "durationTicks": 80,
          "midi": 36,
          "name": "C2",
          "ticks": 165600,
          "time": 123.21398999999998,
          "velocity": 0.6220472440944882
        },
        {
          "duration": 0.059523666666677855,
          "durationTicks": 80,
          "midi": 38,
          "name": "D2",
          "ticks": 165600,
          "time": 123.21398999999998,
          "velocity": 0.6220472440944882
        },
        {
          "duration": 0.059523666666677855,
          "durationTicks": 80,
          "midi": 46,
          "name": "A#2",
          "ticks": 165600,
          "time": 123.21398999999998,
          "velocity": 0.6220472440944882
        },
        {
          "duration": 0.059523666666677855,
          "durationTicks": 80,
          "midi": 46,
          "name": "A#2",
          "ticks": 165840,
          "time": 123.39256099999999,
          "velocity": 0.6220472440944882
        },
        {
          "duration": 0.059523666666663644,
          "durationTicks": 80,
          "midi": 36,
          "name": "C2",
          "ticks": 166080,
          "time": 123.57113199999999,
          "velocity": 0.6220472440944882
        },
        {
          "duration": 0.059523666666663644,
          "durationTicks": 80,
          "midi": 46,
          "name": "A#2",
          "ticks": 166080,
          "time": 123.57113199999999,
          "velocity": 0.6220472440944882
        },
        {
          "duration": 0.059523666666677855,
          "durationTicks": 80,
          "midi": 36,
          "name": "C2",
          "ticks": 166560,
          "time": 123.92827399999999,
          "velocity": 0.6220472440944882
        },
        {
          "duration": 0.059523666666677855,
          "durationTicks": 80,
          "midi": 38,
          "name": "D2",
          "ticks": 166560,
          "time": 123.92827399999999,
          "velocity": 0.6220472440944882
        },
        {
          "duration": 0.059523666666677855,
          "durationTicks": 80,
          "midi": 46,
          "name": "A#2",
          "ticks": 166560,
          "time": 123.92827399999999,
          "velocity": 0.6220472440944882
        },
        {
          "duration": 0.059523666666663644,
          "durationTicks": 80,
          "midi": 46,
          "name": "A#2",
          "ticks": 166800,
          "time": 124.10684499999999,
          "velocity": 0.6220472440944882
        },
        {
          "duration": 0.059523666666677855,
          "durationTicks": 80,
          "midi": 36,
          "name": "C2",
          "ticks": 167040,
          "time": 124.28541599999998,
          "velocity": 0.6220472440944882
        },
        {
          "duration": 0.11904733333332729,
          "durationTicks": 160,
          "midi": 46,
          "name": "A#2",
          "ticks": 167040,
          "time": 124.28541599999998,
          "velocity": 0.6220472440944882
        },
        {
          "duration": 0.059523666666677855,
          "durationTicks": 80,
          "midi": 36,
          "name": "C2",
          "ticks": 167520,
          "time": 124.64255799999998,
          "velocity": 0.6220472440944882
        },
        {
          "duration": 0.059523666666677855,
          "durationTicks": 80,
          "midi": 38,
          "name": "D2",
          "ticks": 167520,
          "time": 124.64255799999998,
          "velocity": 0.6220472440944882
        },
        {
          "duration": 0.059523666666677855,
          "durationTicks": 80,
          "midi": 46,
          "name": "A#2",
          "ticks": 167520,
          "time": 124.64255799999998,
          "velocity": 0.6220472440944882
        },
        {
          "duration": 0.059523666666677855,
          "durationTicks": 80,
          "midi": 46,
          "name": "A#2",
          "ticks": 167760,
          "time": 124.82112899999998,
          "velocity": 0.6220472440944882
        },
        {
          "duration": 0.059523666666663644,
          "durationTicks": 80,
          "midi": 36,
          "name": "C2",
          "ticks": 168000,
          "time": 124.99969999999999,
          "velocity": 0.6220472440944882
        },
        {
          "duration": 0.059523666666663644,
          "durationTicks": 80,
          "midi": 46,
          "name": "A#2",
          "ticks": 168000,
          "time": 124.99969999999999,
          "velocity": 0.6220472440944882
        },
        {
          "duration": 0.059523666666677855,
          "durationTicks": 80,
          "midi": 36,
          "name": "C2",
          "ticks": 168480,
          "time": 125.35684199999999,
          "velocity": 0.6220472440944882
        },
        {
          "duration": 0.059523666666677855,
          "durationTicks": 80,
          "midi": 38,
          "name": "D2",
          "ticks": 168480,
          "time": 125.35684199999999,
          "velocity": 0.6220472440944882
        },
        {
          "duration": 0.059523666666677855,
          "durationTicks": 80,
          "midi": 46,
          "name": "A#2",
          "ticks": 168480,
          "time": 125.35684199999999,
          "velocity": 0.6220472440944882
        },
        {
          "duration": 0.059523666666663644,
          "durationTicks": 80,
          "midi": 46,
          "name": "A#2",
          "ticks": 168720,
          "time": 125.53541299999999,
          "velocity": 0.6220472440944882
        },
        {
          "duration": 0.059523666666677855,
          "durationTicks": 80,
          "midi": 36,
          "name": "C2",
          "ticks": 168960,
          "time": 125.71398399999998,
          "velocity": 0.6220472440944882
        },
        {
          "duration": 0.11904733333332729,
          "durationTicks": 160,
          "midi": 46,
          "name": "A#2",
          "ticks": 168960,
          "time": 125.71398399999998,
          "velocity": 0.6220472440944882
        },
        {
          "duration": 0.059523666666663644,
          "durationTicks": 80,
          "midi": 36,
          "name": "C2",
          "ticks": 169440,
          "time": 126.07112599999999,
          "velocity": 0.6220472440944882
        },
        {
          "duration": 0.059523666666663644,
          "durationTicks": 80,
          "midi": 38,
          "name": "D2",
          "ticks": 169440,
          "time": 126.07112599999999,
          "velocity": 0.6220472440944882
        },
        {
          "duration": 0.059523666666663644,
          "durationTicks": 80,
          "midi": 46,
          "name": "A#2",
          "ticks": 169440,
          "time": 126.07112599999999,
          "velocity": 0.6220472440944882
        },
        {
          "duration": 0.059523666666677855,
          "durationTicks": 80,
          "midi": 46,
          "name": "A#2",
          "ticks": 169680,
          "time": 126.24969699999998,
          "velocity": 0.6220472440944882
        },
        {
          "duration": 0.059523666666663644,
          "durationTicks": 80,
          "midi": 36,
          "name": "C2",
          "ticks": 169920,
          "time": 126.42826799999999,
          "velocity": 0.6220472440944882
        },
        {
          "duration": 0.059523666666663644,
          "durationTicks": 80,
          "midi": 46,
          "name": "A#2",
          "ticks": 169920,
          "time": 126.42826799999999,
          "velocity": 0.6220472440944882
        },
        {
          "duration": 0.059523666666677855,
          "durationTicks": 80,
          "midi": 36,
          "name": "C2",
          "ticks": 170400,
          "time": 126.78540999999998,
          "velocity": 0.6220472440944882
        },
        {
          "duration": 0.059523666666677855,
          "durationTicks": 80,
          "midi": 38,
          "name": "D2",
          "ticks": 170400,
          "time": 126.78540999999998,
          "velocity": 0.6220472440944882
        },
        {
          "duration": 0.059523666666677855,
          "durationTicks": 80,
          "midi": 46,
          "name": "A#2",
          "ticks": 170400,
          "time": 126.78540999999998,
          "velocity": 0.6220472440944882
        },
        {
          "duration": 0.059523666666663644,
          "durationTicks": 80,
          "midi": 46,
          "name": "A#2",
          "ticks": 170640,
          "time": 126.96398099999999,
          "velocity": 0.6220472440944882
        },
        {
          "duration": 0.059523666666677855,
          "durationTicks": 80,
          "midi": 36,
          "name": "C2",
          "ticks": 170880,
          "time": 127.14255199999998,
          "velocity": 0.6220472440944882
        },
        {
          "duration": 0.11904733333332729,
          "durationTicks": 160,
          "midi": 46,
          "name": "A#2",
          "ticks": 170880,
          "time": 127.14255199999998,
          "velocity": 0.6220472440944882
        },
        {
          "duration": 0.059523666666663644,
          "durationTicks": 80,
          "midi": 36,
          "name": "C2",
          "ticks": 171360,
          "time": 127.49969399999999,
          "velocity": 0.6220472440944882
        },
        {
          "duration": 0.059523666666663644,
          "durationTicks": 80,
          "midi": 38,
          "name": "D2",
          "ticks": 171360,
          "time": 127.49969399999999,
          "velocity": 0.6220472440944882
        },
        {
          "duration": 0.059523666666663644,
          "durationTicks": 80,
          "midi": 46,
          "name": "A#2",
          "ticks": 171360,
          "time": 127.49969399999999,
          "velocity": 0.6220472440944882
        },
        {
          "duration": 0.059523666666677855,
          "durationTicks": 80,
          "midi": 46,
          "name": "A#2",
          "ticks": 171600,
          "time": 127.67826499999998,
          "velocity": 0.6220472440944882
        },
        {
          "duration": 0.059523666666677855,
          "durationTicks": 80,
          "midi": 36,
          "name": "C2",
          "ticks": 171840,
          "time": 127.85683599999999,
          "velocity": 0.6220472440944882
        },
        {
          "duration": 0.059523666666677855,
          "durationTicks": 80,
          "midi": 46,
          "name": "A#2",
          "ticks": 171840,
          "time": 127.85683599999999,
          "velocity": 0.6220472440944882
        },
        {
          "duration": 0.05952366666664943,
          "durationTicks": 80,
          "midi": 36,
          "name": "C2",
          "ticks": 172320,
          "time": 128.213978,
          "velocity": 0.6220472440944882
        },
        {
          "duration": 0.05952366666664943,
          "durationTicks": 80,
          "midi": 38,
          "name": "D2",
          "ticks": 172320,
          "time": 128.213978,
          "velocity": 0.6220472440944882
        },
        {
          "duration": 0.05952366666664943,
          "durationTicks": 80,
          "midi": 46,
          "name": "A#2",
          "ticks": 172320,
          "time": 128.213978,
          "velocity": 0.6220472440944882
        },
        {
          "duration": 0.059523666666677855,
          "durationTicks": 80,
          "midi": 46,
          "name": "A#2",
          "ticks": 172560,
          "time": 128.39254899999997,
          "velocity": 0.6220472440944882
        },
        {
          "duration": 0.059523666666677855,
          "durationTicks": 80,
          "midi": 36,
          "name": "C2",
          "ticks": 172800,
          "time": 128.57111999999998,
          "velocity": 0.6220472440944882
        },
        {
          "duration": 0.11904733333332729,
          "durationTicks": 160,
          "midi": 46,
          "name": "A#2",
          "ticks": 172800,
          "time": 128.57111999999998,
          "velocity": 0.6220472440944882
        },
        {
          "duration": 0.059523666666677855,
          "durationTicks": 80,
          "midi": 36,
          "name": "C2",
          "ticks": 173280,
          "time": 128.928262,
          "velocity": 0.6220472440944882
        },
        {
          "duration": 0.059523666666677855,
          "durationTicks": 80,
          "midi": 38,
          "name": "D2",
          "ticks": 173280,
          "time": 128.928262,
          "velocity": 0.6220472440944882
        },
        {
          "duration": 0.059523666666677855,
          "durationTicks": 80,
          "midi": 46,
          "name": "A#2",
          "ticks": 173280,
          "time": 128.928262,
          "velocity": 0.6220472440944882
        },
        {
          "duration": 0.059523666666677855,
          "durationTicks": 80,
          "midi": 46,
          "name": "A#2",
          "ticks": 173520,
          "time": 129.106833,
          "velocity": 0.6220472440944882
        },
        {
          "duration": 0.059523666666677855,
          "durationTicks": 80,
          "midi": 36,
          "name": "C2",
          "ticks": 173760,
          "time": 129.28540399999997,
          "velocity": 0.6220472440944882
        },
        {
          "duration": 0.059523666666677855,
          "durationTicks": 80,
          "midi": 46,
          "name": "A#2",
          "ticks": 173760,
          "time": 129.28540399999997,
          "velocity": 0.6220472440944882
        },
        {
          "duration": 0.059523666666677855,
          "durationTicks": 80,
          "midi": 36,
          "name": "C2",
          "ticks": 174240,
          "time": 129.64254599999998,
          "velocity": 0.6220472440944882
        },
        {
          "duration": 0.059523666666677855,
          "durationTicks": 80,
          "midi": 38,
          "name": "D2",
          "ticks": 174240,
          "time": 129.64254599999998,
          "velocity": 0.6220472440944882
        },
        {
          "duration": 0.059523666666677855,
          "durationTicks": 80,
          "midi": 46,
          "name": "A#2",
          "ticks": 174240,
          "time": 129.64254599999998,
          "velocity": 0.6220472440944882
        },
        {
          "duration": 0.059523666666677855,
          "durationTicks": 80,
          "midi": 46,
          "name": "A#2",
          "ticks": 174480,
          "time": 129.821117,
          "velocity": 0.6220472440944882
        },
        {
          "duration": 0.059523666666677855,
          "durationTicks": 80,
          "midi": 36,
          "name": "C2",
          "ticks": 174720,
          "time": 129.999688,
          "velocity": 0.6220472440944882
        },
        {
          "duration": 0.11904733333332729,
          "durationTicks": 160,
          "midi": 46,
          "name": "A#2",
          "ticks": 174720,
          "time": 129.999688,
          "velocity": 0.6220472440944882
        },
        {
          "duration": 0.059523666666677855,
          "durationTicks": 80,
          "midi": 36,
          "name": "C2",
          "ticks": 175200,
          "time": 130.35682999999997,
          "velocity": 0.6220472440944882
        },
        {
          "duration": 0.059523666666677855,
          "durationTicks": 80,
          "midi": 38,
          "name": "D2",
          "ticks": 175200,
          "time": 130.35682999999997,
          "velocity": 0.6220472440944882
        },
        {
          "duration": 0.059523666666677855,
          "durationTicks": 80,
          "midi": 46,
          "name": "A#2",
          "ticks": 175200,
          "time": 130.35682999999997,
          "velocity": 0.6220472440944882
        },
        {
          "duration": 0.059523666666677855,
          "durationTicks": 80,
          "midi": 46,
          "name": "A#2",
          "ticks": 175440,
          "time": 130.53540099999998,
          "velocity": 0.6220472440944882
        },
        {
          "duration": 0.059523666666677855,
          "durationTicks": 80,
          "midi": 36,
          "name": "C2",
          "ticks": 175680,
          "time": 130.71397199999998,
          "velocity": 0.6220472440944882
        },
        {
          "duration": 0.059523666666677855,
          "durationTicks": 80,
          "midi": 46,
          "name": "A#2",
          "ticks": 175680,
          "time": 130.71397199999998,
          "velocity": 0.6220472440944882
        },
        {
          "duration": 0.059523666666677855,
          "durationTicks": 80,
          "midi": 36,
          "name": "C2",
          "ticks": 176160,
          "time": 131.071114,
          "velocity": 0.6220472440944882
        },
        {
          "duration": 0.059523666666677855,
          "durationTicks": 80,
          "midi": 38,
          "name": "D2",
          "ticks": 176160,
          "time": 131.071114,
          "velocity": 0.6220472440944882
        },
        {
          "duration": 0.059523666666677855,
          "durationTicks": 80,
          "midi": 46,
          "name": "A#2",
          "ticks": 176160,
          "time": 131.071114,
          "velocity": 0.6220472440944882
        },
        {
          "duration": 0.059523666666677855,
          "durationTicks": 80,
          "midi": 46,
          "name": "A#2",
          "ticks": 176400,
          "time": 131.24968499999997,
          "velocity": 0.6220472440944882
        },
        {
          "duration": 0.9449382083333262,
          "durationTicks": 1270,
          "midi": 36,
          "name": "C2",
          "ticks": 176640,
          "time": 131.42825599999998,
          "velocity": 0.8346456692913385
        },
        {
          "duration": 0.9449382083333262,
          "durationTicks": 1270,
          "midi": 49,
          "name": "C#3",
          "ticks": 176640,
          "time": 131.42825599999998,
          "velocity": 0.8346456692913385
        }
      ],
      "endOfTrackTicks": 178560
    }
  ]
}