{
  "header": {
    "keySignatures": [
      {
        "key": "C",
        "scale": "major",
        "ticks": 0
      }
    ],
    "meta": [],
    "name": "",
    "ppq": 480,
    "tempos": [
      {
        "bpm": 131.00007641671124,
        "ticks": 0
      }
    ],
    "timeSignatures": [
      {
        "ticks": 0,
        "timeSignature": [
          4,
          4
        ],
        "measures": 0
      }
    ]
  },
  "tracks": [
    {
      "channel": 0,
      "controlChanges": {},
      "pitchBends": [],
      "instrument": {
        "family": "piano",
        "number": 0,
        "name": "acoustic grand piano"
      },
      "name": "CT0897",
      "notes": [],
      "endOfTrackTicks": 38400
    },
    {
      "channel": 0,
      "controlChanges": {},
      "pitchBends": [],
      "instrument": {
        "family": "piano",
        "number": 0,
        "name": "acoustic grand piano"
      },
      "name": "CT0897",
      "notes": [],
      "endOfTrackTicks": 38400
    },
    {
      "channel": 1,
      "controlChanges": {
        "1": [
          {
            "number": 1,
            "ticks": 2727,
            "time": 2.60209771875,
            "value": 0
          }
        ],
        "7": [
          {
            "number": 7,
            "ticks": 512,
            "time": 0.48854933333333334,
            "value": 0.8188976377952756
          }
        ],
        "10": [
          {
            "number": 10,
            "ticks": 512,
            "time": 0.48854933333333334,
            "value": 0.4881889763779528
          }
        ],
        "11": [
          {
            "number": 11,
            "ticks": 512,
            "time": 0.48854933333333334,
            "value": 1
          }
        ],
        "91": [
          {
            "number": 91,
            "ticks": 516,
            "time": 0.492366125,
            "value": 0
          }
        ],
        "93": [
          {
            "number": 93,
            "ticks": 516,
            "time": 0.492366125,
            "value": 0
          }
        ]
      },
      "pitchBends": [
        {
          "ticks": 2777,
          "time": 2.649807614583333,
          "value": 0
        }
      ],
      "instrument": {
        "family": "bass",
        "number": 33,
        "name": "electric bass (finger)"
      },
      "name": "",
      "notes": [
        {
          "duration": 0.19847316666666615,
          "durationTicks": 208,
          "midi": 39,
          "name": "D#2",
          "ticks": 21120,
          "time": 20.15266,
          "velocity": 0.8031496062992126
        },
        {
          "duration": 0.19847316666666615,
          "durationTicks": 208,
          "midi": 39,
          "name": "D#2",
          "ticks": 21360,
          "time": 20.3816675,
          "velocity": 0.8031496062992126
        },
        {
          "duration": 0.19847316666666615,
          "durationTicks": 208,
          "midi": 39,
          "name": "D#2",
          "ticks": 21600,
          "time": 20.610675,
          "velocity": 0.8031496062992126
        },
        {
          "duration": 0.19847316666666615,
          "durationTicks": 208,
          "midi": 39,
          "name": "D#2",
          "ticks": 21840,
          "time": 20.8396825,
          "velocity": 0.8031496062992126
        },
        {
          "duration": 0.19847316666666615,
          "durationTicks": 208,
          "midi": 39,
          "name": "D#2",
          "ticks": 22080,
          "time": 21.06869,
          "velocity": 0.8031496062992126
        },
        {
          "duration": 0.1984731666666626,
          "durationTicks": 208,
          "midi": 39,
          "name": "D#2",
          "ticks": 22320,
          "time": 21.2976975,
          "velocity": 0.8031496062992126
        },
        {
          "duration": 0.19847316666666615,
          "durationTicks": 208,
          "midi": 39,
          "name": "D#2",
          "ticks": 22560,
          "time": 21.526705,
          "velocity": 0.8031496062992126
        },
        {
          "duration": 0.1984731666666626,
          "durationTicks": 208,
          "midi": 39,
          "name": "D#2",
          "ticks": 22800,
          "time": 21.7557125,
          "velocity": 0.8031496062992126
        },
        {
          "duration": 0.19847316666666615,
          "durationTicks": 208,
          "midi": 46,
          "name": "A#2",
          "ticks": 23040,
          "time": 21.98472,
          "velocity": 0.8031496062992126
        },
        {
          "duration": 0.19847316666666615,
          "durationTicks": 208,
          "midi": 46,
          "name": "A#2",
          "ticks": 23280,
          "time": 22.2137275,
          "velocity": 0.8031496062992126
        },
        {
          "duration": 0.19847316666666615,
          "durationTicks": 208,
          "midi": 46,
          "name": "A#2",
          "ticks": 23520,
          "time": 22.442735,
          "velocity": 0.8031496062992126
        },
        {
          "duration": 0.19847316666666615,
          "durationTicks": 208,
          "midi": 46,
          "name": "A#2",
          "ticks": 23760,
          "time": 22.6717425,
          "velocity": 0.8031496062992126
        },
        {
          "duration": 0.19847316666666615,
          "durationTicks": 208,
          "midi": 46,
          "name": "A#2",
          "ticks": 24000,
          "time": 22.90075,
          "velocity": 0.8031496062992126
        },
        {
          "duration": 0.19847316666666615,
          "durationTicks": 208,
          "midi": 46,
          "name": "A#2",
          "ticks": 24240,
          "time": 23.1297575,
          "velocity": 0.8031496062992126
        },
        {
          "duration": 0.1984731666666626,
          "durationTicks": 208,
          "midi": 46,
          "name": "A#2",
          "ticks": 24480,
          "time": 23.358765000000002,
          "velocity": 0.8031496062992126
        },
        {
          "duration": 0.19847316666666615,
          "durationTicks": 208,
          "midi": 46,
          "name": "A#2",
          "ticks": 24720,
          "time": 23.5877725,
          "velocity": 0.8031496062992126
        },
        {
          "duration": 0.1984731666666626,
          "durationTicks": 208,
          "midi": 46,
          "name": "A#2",
          "ticks": 24960,
          "time": 23.81678,
          "velocity": 0.8031496062992126
        },
        {
          "duration": 0.19847316666666615,
          "durationTicks": 208,
          "midi": 46,
          "name": "A#2",
          "ticks": 25200,
          "time": 24.0457875,
          "velocity": 0.8031496062992126
        },
        {
          "duration": 0.19847316666666615,
          "durationTicks": 208,
          "midi": 46,
          "name": "A#2",
          "ticks": 25440,
          "time": 24.274795,
          "velocity": 0.8031496062992126
        },
        {
          "duration": 0.19847316666666615,
          "durationTicks": 208,
          "midi": 46,
          "name": "A#2",
          "ticks": 25680,
          "time": 24.5038025,
          "velocity": 0.8031496062992126
        },
        {
          "duration": 0.19847316666666615,
          "durationTicks": 208,
          "midi": 46,
          "name": "A#2",
          "ticks": 25920,
          "time": 24.73281,
          "velocity": 0.8031496062992126
        },
        {
          "duration": 0.19847316666666615,
          "durationTicks": 208,
          "midi": 46,
          "name": "A#2",
          "ticks": 26160,
          "time": 24.9618175,
          "velocity": 0.8031496062992126
        },
        {
          "duration": 0.19847316666666615,
          "durationTicks": 208,
          "midi": 46,
          "name": "A#2",
          "ticks": 26400,
          "time": 25.190825,
          "velocity": 0.8031496062992126
        },
        {
          "duration": 0.1984731666666626,
          "durationTicks": 208,
          "midi": 46,
          "name": "A#2",
          "ticks": 26640,
          "time": 25.419832500000002,
          "velocity": 0.8031496062992126
        },
        {
          "duration": 0.19847316666666615,
          "durationTicks": 208,
          "midi": 41,
          "name": "F2",
          "ticks": 26880,
          "time": 25.64884,
          "velocity": 0.8031496062992126
        },
        {
          "duration": 0.1984731666666626,
          "durationTicks": 208,
          "midi": 41,
          "name": "F2",
          "ticks": 27120,
          "time": 25.8778475,
          "velocity": 0.8031496062992126
        },
        {
          "duration": 0.19847316666666615,
          "durationTicks": 208,
          "midi": 41,
          "name": "F2",
          "ticks": 27360,
          "time": 26.106855,
          "velocity": 0.8031496062992126
        },
        {
          "duration": 0.19847316666666615,
          "durationTicks": 208,
          "midi": 41,
          "name": "F2",
          "ticks": 27600,
          "time": 26.3358625,
          "velocity": 0.8031496062992126
        },
        {
          "duration": 0.19847316666666615,
          "durationTicks": 208,
          "midi": 41,
          "name": "F2",
          "ticks": 27840,
          "time": 26.56487,
          "velocity": 0.8031496062992126
        },
        {
          "duration": 0.19847316666666615,
          "durationTicks": 208,
          "midi": 41,
          "name": "F2",
          "ticks": 28080,
          "time": 26.7938775,
          "velocity": 0.8031496062992126
        },
        {
          "duration": 0.19847316666666615,
          "durationTicks": 208,
          "midi": 41,
          "name": "F2",
          "ticks": 28320,
          "time": 27.022885,
          "velocity": 0.8031496062992126
        },
        {
          "duration": 0.19847316666666615,
          "durationTicks": 208,
          "midi": 41,
          "name": "F2",
          "ticks": 28560,
          "time": 27.2518925,
          "velocity": 0.8031496062992126
        },
        {
          "duration": 0.1984731666666626,
          "durationTicks": 208,
          "midi": 39,
          "name": "D#2",
          "ticks": 28800,
          "time": 27.480900000000002,
          "velocity": 0.8031496062992126
        },
        {
          "duration": 0.19847316666666615,
          "durationTicks": 208,
          "midi": 39,
          "name": "D#2",
          "ticks": 29040,
          "time": 27.7099075,
          "velocity": 0.8031496062992126
        },
        {
          "duration": 0.1984731666666626,
          "durationTicks": 208,
          "midi": 39,
          "name": "D#2",
          "ticks": 29280,
          "time": 27.938915,
          "velocity": 0.8031496062992126
        },
        {
          "duration": 0.19847316666666615,
          "durationTicks": 208,
          "midi": 39,
          "name": "D#2",
          "ticks": 29520,
          "time": 28.1679225,
          "velocity": 0.8031496062992126
        },
        {
          "duration": 0.19847316666666615,
          "durationTicks": 208,
          "midi": 39,
          "name": "D#2",
          "ticks": 29760,
          "time": 28.39693,
          "velocity": 0.8031496062992126
        },
        {
          "duration": 0.19847316666666615,
          "durationTicks": 208,
          "midi": 39,
          "name": "D#2",
          "ticks": 30000,
          "time": 28.6259375,
          "velocity": 0.8031496062992126
        },
        {
          "duration": 0.19847316666666615,
          "durationTicks": 208,
          "midi": 39,
          "name": "D#2",
          "ticks": 30240,
          "time": 28.854945,
          "velocity": 0.8031496062992126
        },
        {
          "duration": 0.19847316666666615,
          "durationTicks": 208,
          "midi": 39,
          "name": "D#2",
          "ticks": 30480,
          "time": 29.0839525,
          "velocity": 0.8031496062992126
        },
        {
          "duration": 0.1984731666666697,
          "durationTicks": 208,
          "midi": 46,
          "name": "A#2",
          "ticks": 30720,
          "time": 29.31296,
          "velocity": 0.8031496062992126
        },
        {
          "duration": 0.19847316666666615,
          "durationTicks": 208,
          "midi": 46,
          "name": "A#2",
          "ticks": 30960,
          "time": 29.541967500000002,
          "velocity": 0.8031496062992126
        },
        {
          "duration": 0.1984731666666697,
          "durationTicks": 208,
          "midi": 46,
          "name": "A#2",
          "ticks": 31200,
          "time": 29.770975,
          "velocity": 0.8031496062992126
        },
        {
          "duration": 0.19847316666666615,
          "durationTicks": 208,
          "midi": 46,
          "name": "A#2",
          "ticks": 31440,
          "time": 29.9999825,
          "velocity": 0.8031496062992126
        },
        {
          "duration": 0.1984731666666697,
          "durationTicks": 208,
          "midi": 46,
          "name": "A#2",
          "ticks": 31680,
          "time": 30.22899,
          "velocity": 0.8031496062992126
        },
        {
          "duration": 0.19847316666666615,
          "durationTicks": 208,
          "midi": 46,
          "name": "A#2",
          "ticks": 31920,
          "time": 30.4579975,
          "velocity": 0.8031496062992126
        },
        {
          "duration": 0.1984731666666697,
          "durationTicks": 208,
          "midi": 46,
          "name": "A#2",
          "ticks": 32160,
          "time": 30.687005,
          "velocity": 0.8031496062992126
        },
        {
          "duration": 0.1984731666666697,
          "durationTicks": 208,
          "midi": 46,
          "name": "A#2",
          "ticks": 32400,
          "time": 30.9160125,
          "velocity": 0.8031496062992126
        },
        {
          "duration": 0.1984731666666697,
          "durationTicks": 208,
          "midi": 46,
          "name": "A#2",
          "ticks": 32640,
          "time": 31.14502,
          "velocity": 0.8031496062992126
        },
        {
          "duration": 0.1984731666666697,
          "durationTicks": 208,
          "midi": 46,
          "name": "A#2",
          "ticks": 32880,
          "time": 31.3740275,
          "velocity": 0.8031496062992126
        },
        {
          "duration": 0.19847316666666615,
          "durationTicks": 208,
          "midi": 46,
          "name": "A#2",
          "ticks": 33120,
          "time": 31.603035000000002,
          "velocity": 0.8031496062992126
        },
        {
          "duration": 0.19847316666666615,
          "durationTicks": 208,
          "midi": 46,
          "name": "A#2",
          "ticks": 33360,
          "time": 31.8320425,
          "velocity": 0.8031496062992126
        },
        {
          "duration": 0.19847316666666615,
          "durationTicks": 208,
          "midi": 46,
          "name": "A#2",
          "ticks": 33600,
          "time": 32.06105,
          "velocity": 0.8031496062992126
        },
        {
          "duration": 0.19847316666666615,
          "durationTicks": 208,
          "midi": 46,
          "name": "A#2",
          "ticks": 33840,
          "time": 32.2900575,
          "velocity": 0.8031496062992126
        },
        {
          "duration": 0.19847316666667325,
          "durationTicks": 208,
          "midi": 46,
          "name": "A#2",
          "ticks": 34080,
          "time": 32.519065,
          "velocity": 0.8031496062992126
        },
        {
          "duration": 0.19847316666666615,
          "durationTicks": 208,
          "midi": 46,
          "name": "A#2",
          "ticks": 34320,
          "time": 32.7480725,
          "velocity": 0.8031496062992126
        },
        {
          "duration": 0.19847316666666615,
          "durationTicks": 208,
          "midi": 41,
          "name": "F2",
          "ticks": 34560,
          "time": 32.97708,
          "velocity": 0.8031496062992126
        },
        {
          "duration": 0.19847316666666615,
          "durationTicks": 208,
          "midi": 41,
          "name": "F2",
          "ticks": 34800,
          "time": 33.2060875,
          "velocity": 0.8031496062992126
        },
        {
          "duration": 0.19847316666667325,
          "durationTicks": 208,
          "midi": 41,
          "name": "F2",
          "ticks": 35040,
          "time": 33.435095,
          "velocity": 0.8031496062992126
        },
        {
          "duration": 0.19847316666667325,
          "durationTicks": 208,
          "midi": 41,
          "name": "F2",
          "ticks": 35280,
          "time": 33.6641025,
          "velocity": 0.8031496062992126
        },
        {
          "duration": 0.19847316666666615,
          "durationTicks": 208,
          "midi": 41,
          "name": "F2",
          "ticks": 35520,
          "time": 33.89311,
          "velocity": 0.8031496062992126
        },
        {
          "duration": 0.19847316666666615,
          "durationTicks": 208,
          "midi": 41,
          "name": "F2",
          "ticks": 35760,
          "time": 34.1221175,
          "velocity": 0.8031496062992126
        },
        {
          "duration": 0.19847316666666615,
          "durationTicks": 208,
          "midi": 41,
          "name": "F2",
          "ticks": 36000,
          "time": 34.351125,
          "velocity": 0.8031496062992126
        },
        {
          "duration": 0.19847316666667325,
          "durationTicks": 208,
          "midi": 41,
          "name": "F2",
          "ticks": 36240,
          "time": 34.5801325,
          "velocity": 0.8031496062992126
        },
        {
          "duration": 0.45801500000000317,
          "durationTicks": 480,
          "midi": 39,
          "name": "D#2",
          "ticks": 36480,
          "time": 34.80914,
          "velocity": 0.8031496062992126
        }
      ]
    },
    {
      "channel": 0,
      "controlChanges": {},
      "pitchBends": [],
      "instrument": {
        "family": "piano",
        "number": 0,
        "name": "acoustic grand piano"
      },
      "name": "CT0897",
      "notes": [],
      "endOfTrackTicks": 38400
    },
    {
      "channel": 2,
      "controlChanges": {
        "1": [
          {
            "number": 1,
            "ticks": 2762,
            "time": 2.635494645833333,
            "value": 0
          }
        ],
        "7": [
          {
            "number": 7,
            "ticks": 532,
            "time": 0.5076332916666667,
            "value": 0.6062992125984252
          }
        ],
        "10": [
          {
            "number": 10,
            "ticks": 532,
            "time": 0.5076332916666667,
            "value": 0.1889763779527559
          }
        ],
        "11": [
          {
            "number": 11,
            "ticks": 532,
            "time": 0.5076332916666667,
            "value": 1
          }
        ],
        "91": [
          {
            "number": 91,
            "ticks": 536,
            "time": 0.5114500833333333,
            "value": 0.2755905511811024
          }
        ],
        "93": [
          {
            "number": 93,
            "ticks": 536,
            "time": 0.5114500833333333,
            "value": 0.3464566929133858
          }
        ]
      },
      "pitchBends": [
        {
          "ticks": 2812,
          "time": 2.6832045416666666,
          "value": 0
        }
      ],
      "instrument": {
        "family": "organ",
        "number": 16,
        "name": "drawbar organ"
      },
      "name": "",
      "notes": [
        {
          "duration": 0.45801500000000317,
          "durationTicks": 480,
          "midi": 67,
          "name": "G4",
          "ticks": 36480,
          "time": 34.80914,
          "velocity": 0.6377952755905512
        },
        {
          "duration": 0.45801500000000317,
          "durationTicks": 480,
          "midi": 70,
          "name": "A#4",
          "ticks": 36480,
          "time": 34.80914,
          "velocity": 0.6377952755905512
        },
        {
          "duration": 0.45801500000000317,
          "durationTicks": 480,
          "midi": 75,
          "name": "D#5",
          "ticks": 36480,
          "time": 34.80914,
          "velocity": 0.6377952755905512
        }
      ]
    },
    {
      "channel": 0,
      "controlChanges": {},
      "pitchBends": [],
      "instrument": {
        "family": "piano",
        "number": 0,
        "name": "acoustic grand piano"
      },
      "name": "CT0897",
      "notes": [],
      "endOfTrackTicks": 38400
    },
    {
      "channel": 3,
      "controlChanges": {
        "1": [
          {
            "number": 1,
            "ticks": 2732,
            "time": 2.6068687083333333,
            "value": 0
          }
        ],
        "7": [
          {
            "number": 7,
            "ticks": 552,
            "time": 0.5267172499999999,
            "value": 0.8976377952755905
          }
        ],
        "10": [
          {
            "number": 10,
            "ticks": 552,
            "time": 0.5267172499999999,
            "value": 0.4881889763779528
          }
        ],
        "11": [
          {
            "number": 11,
            "ticks": 552,
            "time": 0.5267172499999999,
            "value": 1
          }
        ],
        "91": [
          {
            "number": 91,
            "ticks": 556,
            "time": 0.5305340416666667,
            "value": 0.9212598425196851
          }
        ],
        "93": [
          {
            "number": 93,
            "ticks": 556,
            "time": 0.5305340416666667,
            "value": 0
          }
        ]
      },
      "pitchBends": [
        {
          "ticks": 2782,
          "time": 2.654578604166667,
          "value": 0
        }
      ],
      "instrument": {
        "family": "reed",
        "number": 66,
        "name": "tenor sax"
      },
      "name": "",
      "notes": [
        {
          "duration": 0.45801500000000317,
          "durationTicks": 480,
          "midi": 63,
          "name": "D#4",
          "ticks": 36480,
          "time": 34.80914,
          "velocity": 0.8110236220472441
        }
      ]
    },
    {
      "channel": 0,
      "controlChanges": {},
      "pitchBends": [],
      "instrument": {
        "family": "piano",
        "number": 0,
        "name": "acoustic grand piano"
      },
      "name": "CT0897",
      "notes": [],
      "endOfTrackTicks": 38400
    },
    {
      "channel": 0,
      "controlChanges": {
        "1": [
          {
            "number": 1,
            "ticks": 2732,
            "time": 2.6068687083333333,
            "value": 0
          }
        ],
        "7": [
          {
            "number": 7,
            "ticks": 572,
            "time": 0.5458012083333333,
            "value": 0.7165354330708661
          }
        ],
        "10": [
          {
            "number": 10,
            "ticks": 572,
            "time": 0.5458012083333333,
            "value": 0.2992125984251969
          }
        ],
        "11": [
          {
            "number": 11,
            "ticks": 572,
            "time": 0.5458012083333333,
            "value": 1
          }
        ],
        "91": [
          {
            "number": 91,
            "ticks": 576,
            "time": 0.5496179999999999,
            "value": 0.6692913385826772
          }
        ],
        "93": [
          {
            "number": 93,
            "ticks": 576,
            "time": 0.5496179999999999,
            "value": 0.2047244094488189
          }
        ]
      },
      "pitchBends": [
        {
          "ticks": 2782,
          "time": 2.654578604166667,
          "value": 0
        }
      ],
      "instrument": {
        "family": "ensemble",
        "number": 53,
        "name": "voice oohs"
      },
      "name": "",
      "notes": []
    },
    {
      "channel": 0,
      "controlChanges": {},
      "pitchBends": [],
      "instrument": {
        "family": "piano",
        "number": 0,
        "name": "acoustic grand piano"
      },
      "name": "CT0897",
      "notes": [],
      "endOfTrackTicks": 38400
    },
    {
      "channel": 5,
      "controlChanges": {
        "1": [
          {
            "number": 1,
            "ticks": 2737,
            "time": 2.611639697916667,
            "value": 0
          }
        ],
        "6": [
          {
            "number": 6,
            "ticks": 968,
            "time": 0.9236635833333333,
            "value": 0.05511811023622047
          }
        ],
        "7": [
          {
            "number": 7,
            "ticks": 592,
            "time": 0.5648851666666667,
            "value": 0.4251968503937008
          }
        ],
        "10": [
          {
            "number": 10,
            "ticks": 592,
            "time": 0.5648851666666667,
            "value": 0.8110236220472441
          }
        ],
        "11": [
          {
            "number": 11,
            "ticks": 592,
            "time": 0.5648851666666667,
            "value": 1
          }
        ],
        "91": [
          {
            "number": 91,
            "ticks": 596,
            "time": 0.5687019583333334,
            "value": 0.5669291338582677
          }
        ],
        "93": [
          {
            "number": 93,
            "ticks": 596,
            "time": 0.5687019583333334,
            "value": 0.16535433070866143
          }
        ],
        "100": [
          {
            "number": 100,
            "ticks": 964,
            "time": 0.9198467916666667,
            "value": 0
          },
          {
            "number": 100,
            "ticks": 976,
            "time": 0.9312971666666666,
            "value": 1
          }
        ],
        "101": [
          {
            "number": 101,
            "ticks": 960,
            "time": 0.91603,
            "value": 0
          },
          {
            "number": 101,
            "ticks": 972,
            "time": 0.927480375,
            "value": 1
          }
        ]
      },
      "pitchBends": [
        {
          "ticks": 2787,
          "time": 2.65934959375,
          "value": 0
        },
        {
          "ticks": 3362,
          "time": 3.2080133958333334,
          "value": -0.09326171875
        },
        {
          "ticks": 3380,
          "time": 3.2251889583333333,
          "value": -0.1956787109375
        },
        {
          "ticks": 3397,
          "time": 3.241410322916667,
          "value": -0.2769775390625
        },
        {
          "ticks": 3415,
          "time": 3.2585858854166667,
          "value": -0.4005126953125
        },
        {
          "ticks": 3433,
          "time": 3.275761447916667,
          "value": -0.4998779296875
        },
        {
          "ticks": 3449,
          "time": 3.2910286145833334,
          "value": -0.611328125
        },
        {
          "ticks": 3467,
          "time": 3.3082041770833333,
          "value": -0.728759765625
        },
        {
          "ticks": 3485,
          "time": 3.3253797395833335,
          "value": -0.8251953125
        },
        {
          "ticks": 3502,
          "time": 3.3416011041666667,
          "value": -0.95166015625
        },
        {
          "ticks": 3507,
          "time": 3.3463720937500003,
          "value": -0.984375
        },
        {
          "ticks": 3517,
          "time": 3.3559140729166668,
          "value": -1
        },
        {
          "ticks": 5761,
          "time": 5.497134197916667,
          "value": -0.875
        },
        {
          "ticks": 5766,
          "time": 5.501905187499999,
          "value": -0.84375
        },
        {
          "ticks": 5771,
          "time": 5.5066761770833335,
          "value": -0.828125
        },
        {
          "ticks": 5776,
          "time": 5.511447166666667,
          "value": -0.796875
        },
        {
          "ticks": 5785,
          "time": 5.520034947916667,
          "value": -0.75
        },
        {
          "ticks": 5795,
          "time": 5.529576927083333,
          "value": -0.734375
        },
        {
          "ticks": 5800,
          "time": 5.534347916666667,
          "value": -0.71875
        },
        {
          "ticks": 5805,
          "time": 5.53911890625,
          "value": -0.703125
        },
        {
          "ticks": 5809,
          "time": 5.542935697916667,
          "value": -0.671875
        },
        {
          "ticks": 5819,
          "time": 5.552477677083333,
          "value": -0.65625
        },
        {
          "ticks": 5824,
          "time": 5.557248666666666,
          "value": -0.640625
        },
        {
          "ticks": 5833,
          "time": 5.565836447916666,
          "value": -0.609375
        },
        {
          "ticks": 5838,
          "time": 5.5706074375,
          "value": -0.59375
        },
        {
          "ticks": 5843,
          "time": 5.575378427083334,
          "value": -0.578125
        },
        {
          "ticks": 5853,
          "time": 5.58492040625,
          "value": -0.546875
        },
        {
          "ticks": 5857,
          "time": 5.588737197916666,
          "value": -0.53125
        },
        {
          "ticks": 5862,
          "time": 5.5935081875,
          "value": -0.515625
        },
        {
          "ticks": 5867,
          "time": 5.598279177083334,
          "value": -0.5
        },
        {
          "ticks": 5872,
          "time": 5.603050166666667,
          "value": -0.484375
        },
        {
          "ticks": 5881,
          "time": 5.611637947916667,
          "value": -0.46875
        },
        {
          "ticks": 5886,
          "time": 5.6164089375,
          "value": -0.453125
        },
        {
          "ticks": 5896,
          "time": 5.625950916666667,
          "value": -0.4375
        },
        {
          "ticks": 5901,
          "time": 5.63072190625,
          "value": -0.421875
        },
        {
          "ticks": 5910,
          "time": 5.6393096875,
          "value": -0.40625
        },
        {
          "ticks": 5920,
          "time": 5.648851666666667,
          "value": -0.390625
        },
        {
          "ticks": 5925,
          "time": 5.6536226562500005,
          "value": -0.375
        },
        {
          "ticks": 5929,
          "time": 5.6574394479166665,
          "value": -0.359375
        },
        {
          "ticks": 5939,
          "time": 5.666981427083334,
          "value": -0.34375
        },
        {
          "ticks": 5949,
          "time": 5.67652340625,
          "value": -0.328125
        },
        {
          "ticks": 5958,
          "time": 5.6851111874999996,
          "value": -0.3125
        },
        {
          "ticks": 5963,
          "time": 5.689882177083334,
          "value": -0.296875
        },
        {
          "ticks": 5968,
          "time": 5.694653166666667,
          "value": -0.28125
        },
        {
          "ticks": 5977,
          "time": 5.703240947916666,
          "value": -0.265625
        },
        {
          "ticks": 5987,
          "time": 5.7127829270833335,
          "value": -0.25
        },
        {
          "ticks": 5992,
          "time": 5.717553916666667,
          "value": -0.234375
        },
        {
          "ticks": 5997,
          "time": 5.72232490625,
          "value": -0.21875
        },
        {
          "ticks": 6001,
          "time": 5.726141697916667,
          "value": -0.203125
        },
        {
          "ticks": 6011,
          "time": 5.735683677083333,
          "value": -0.1875
        },
        {
          "ticks": 6021,
          "time": 5.74522565625,
          "value": -0.171875
        },
        {
          "ticks": 6035,
          "time": 5.758584427083333,
          "value": -0.15625
        },
        {
          "ticks": 6045,
          "time": 5.76812640625,
          "value": -0.140625
        },
        {
          "ticks": 6064,
          "time": 5.786256166666666,
          "value": -0.125
        },
        {
          "ticks": 6069,
          "time": 5.79102715625,
          "value": -0.109375
        },
        {
          "ticks": 6083,
          "time": 5.804385927083334,
          "value": -0.09375
        },
        {
          "ticks": 6097,
          "time": 5.817744697916666,
          "value": -0.078125
        },
        {
          "ticks": 6102,
          "time": 5.8225156875,
          "value": -0.0625
        },
        {
          "ticks": 6117,
          "time": 5.83682865625,
          "value": -0.046875
        },
        {
          "ticks": 6121,
          "time": 5.840645447916667,
          "value": -0.03125
        },
        {
          "ticks": 6131,
          "time": 5.850187427083334,
          "value": -0.015625
        },
        {
          "ticks": 6155,
          "time": 5.873088177083333,
          "value": 0
        },
        {
          "ticks": 12962,
          "time": 12.368313395833333,
          "value": -0.09326171875
        },
        {
          "ticks": 12980,
          "time": 12.385488958333333,
          "value": -0.1956787109375
        },
        {
          "ticks": 12997,
          "time": 12.401710322916667,
          "value": -0.2769775390625
        },
        {
          "ticks": 13015,
          "time": 12.418885885416666,
          "value": -0.4005126953125
        },
        {
          "ticks": 13033,
          "time": 12.436061447916668,
          "value": -0.4998779296875
        },
        {
          "ticks": 13049,
          "time": 12.451328614583332,
          "value": -0.611328125
        },
        {
          "ticks": 13067,
          "time": 12.468504177083334,
          "value": -0.728759765625
        },
        {
          "ticks": 13085,
          "time": 12.485679739583334,
          "value": -0.8251953125
        },
        {
          "ticks": 13102,
          "time": 12.501901104166667,
          "value": -0.95166015625
        },
        {
          "ticks": 13107,
          "time": 12.50667209375,
          "value": -0.984375
        },
        {
          "ticks": 13117,
          "time": 12.516214072916668,
          "value": -1
        },
        {
          "ticks": 13441,
          "time": 12.825374197916668,
          "value": -0.875
        },
        {
          "ticks": 13446,
          "time": 12.8301451875,
          "value": -0.84375
        },
        {
          "ticks": 13451,
          "time": 12.834916177083334,
          "value": -0.828125
        },
        {
          "ticks": 13456,
          "time": 12.839687166666668,
          "value": -0.796875
        },
        {
          "ticks": 13465,
          "time": 12.848274947916666,
          "value": -0.75
        },
        {
          "ticks": 13475,
          "time": 12.857816927083334,
          "value": -0.734375
        },
        {
          "ticks": 13480,
          "time": 12.862587916666666,
          "value": -0.71875
        },
        {
          "ticks": 13485,
          "time": 12.86735890625,
          "value": -0.703125
        },
        {
          "ticks": 13489,
          "time": 12.871175697916666,
          "value": -0.671875
        },
        {
          "ticks": 13499,
          "time": 12.880717677083332,
          "value": -0.65625
        },
        {
          "ticks": 13504,
          "time": 12.885488666666667,
          "value": -0.640625
        },
        {
          "ticks": 13513,
          "time": 12.894076447916667,
          "value": -0.609375
        },
        {
          "ticks": 13518,
          "time": 12.8988474375,
          "value": -0.59375
        },
        {
          "ticks": 13523,
          "time": 12.903618427083334,
          "value": -0.578125
        },
        {
          "ticks": 13533,
          "time": 12.91316040625,
          "value": -0.546875
        },
        {
          "ticks": 13537,
          "time": 12.916977197916667,
          "value": -0.53125
        },
        {
          "ticks": 13542,
          "time": 12.921748187499999,
          "value": -0.515625
        },
        {
          "ticks": 13547,
          "time": 12.926519177083334,
          "value": -0.5
        },
        {
          "ticks": 13552,
          "time": 12.931290166666667,
          "value": -0.484375
        },
        {
          "ticks": 13561,
          "time": 12.939877947916667,
          "value": -0.46875
        },
        {
          "ticks": 13566,
          "time": 12.9446489375,
          "value": -0.453125
        },
        {
          "ticks": 13576,
          "time": 12.954190916666668,
          "value": -0.4375
        },
        {
          "ticks": 13581,
          "time": 12.95896190625,
          "value": -0.421875
        },
        {
          "ticks": 13590,
          "time": 12.9675496875,
          "value": -0.40625
        },
        {
          "ticks": 13600,
          "time": 12.977091666666666,
          "value": -0.390625
        },
        {
          "ticks": 13605,
          "time": 12.98186265625,
          "value": -0.375
        },
        {
          "ticks": 13609,
          "time": 12.985679447916667,
          "value": -0.359375
        },
        {
          "ticks": 13619,
          "time": 12.995221427083333,
          "value": -0.34375
        },
        {
          "ticks": 13629,
          "time": 13.004763406250001,
          "value": -0.328125
        },
        {
          "ticks": 13638,
          "time": 13.013351187500001,
          "value": -0.3125
        },
        {
          "ticks": 13643,
          "time": 13.018122177083333,
          "value": -0.296875
        },
        {
          "ticks": 13648,
          "time": 13.022893166666666,
          "value": -0.28125
        },
        {
          "ticks": 13657,
          "time": 13.031480947916668,
          "value": -0.265625
        },
        {
          "ticks": 13667,
          "time": 13.041022927083333,
          "value": -0.25
        },
        {
          "ticks": 13672,
          "time": 13.045793916666668,
          "value": -0.234375
        },
        {
          "ticks": 13677,
          "time": 13.050564906249999,
          "value": -0.21875
        },
        {
          "ticks": 13681,
          "time": 13.054381697916668,
          "value": -0.203125
        },
        {
          "ticks": 13691,
          "time": 13.063923677083334,
          "value": -0.1875
        },
        {
          "ticks": 13701,
          "time": 13.07346565625,
          "value": -0.171875
        },
        {
          "ticks": 13715,
          "time": 13.086824427083334,
          "value": -0.15625
        },
        {
          "ticks": 13725,
          "time": 13.09636640625,
          "value": -0.140625
        },
        {
          "ticks": 13744,
          "time": 13.114496166666667,
          "value": -0.125
        },
        {
          "ticks": 13749,
          "time": 13.11926715625,
          "value": -0.109375
        },
        {
          "ticks": 13763,
          "time": 13.132625927083334,
          "value": -0.09375
        },
        {
          "ticks": 13777,
          "time": 13.145984697916667,
          "value": -0.078125
        },
        {
          "ticks": 13782,
          "time": 13.1507556875,
          "value": -0.0625
        },
        {
          "ticks": 13797,
          "time": 13.16506865625,
          "value": -0.046875
        },
        {
          "ticks": 13801,
          "time": 13.168885447916667,
          "value": -0.03125
        },
        {
          "ticks": 13811,
          "time": 13.178427427083333,
          "value": -0.015625
        },
        {
          "ticks": 13835,
          "time": 13.201328177083335,
          "value": 0
        }
      ],
      "instrument": {
        "family": "ensemble",
        "number": 51,
        "name": "synthstrings 2"
      },
      "name": "",
      "notes": [
        {
          "duration": 2.3568688541666667,
          "durationTicks": 2470,
          "midi": 58,
          "name": "A#3",
          "ticks": 5760,
          "time": 5.49618,
          "velocity": 0.6456692913385826
        },
        {
          "duration": 4.52003553125,
          "durationTicks": 4737,
          "midi": 53,
          "name": "F3",
          "ticks": 8160,
          "time": 7.786255,
          "velocity": 0.6456692913385826
        },
        {
          "duration": 2.3568688541666667,
          "durationTicks": 2470,
          "midi": 58,
          "name": "A#3",
          "ticks": 13320,
          "time": 12.709916250000001,
          "velocity": 0.6456692913385826
        },
        {
          "duration": 4.5200355312500005,
          "durationTicks": 4737,
          "midi": 53,
          "name": "F3",
          "ticks": 15840,
          "time": 15.114495,
          "velocity": 0.6456692913385826
        },
        {
          "duration": 1.6698463541666655,
          "durationTicks": 1750,
          "midi": 75,
          "name": "D#5",
          "ticks": 21120,
          "time": 20.15266,
          "velocity": 0.5039370078740157
        },
        {
          "duration": 1.8311058020833322,
          "durationTicks": 1919,
          "midi": 79,
          "name": "G5",
          "ticks": 21120,
          "time": 20.15266,
          "velocity": 0.6141732283464567
        },
        {
          "duration": 5.499996791666664,
          "durationTicks": 5764,
          "midi": 82,
          "name": "A#5",
          "ticks": 21120,
          "time": 20.15266,
          "velocity": 0.6614173228346457
        },
        {
          "duration": 3.6841581562499996,
          "durationTicks": 3861,
          "midi": 73,
          "name": "C#5",
          "ticks": 22980,
          "time": 21.927468125,
          "velocity": 0.33070866141732286
        },
        {
          "duration": 5.541981499999999,
          "durationTicks": 5808,
          "midi": 77,
          "name": "F5",
          "ticks": 22980,
          "time": 21.927468125,
          "velocity": 0.5826771653543307
        },
        {
          "duration": 1.718510447916664,
          "durationTicks": 1801,
          "midi": 72,
          "name": "C5",
          "ticks": 26820,
          "time": 25.591588125,
          "velocity": 0.5826771653543307
        },
        {
          "duration": 1.9074416354166672,
          "durationTicks": 1999,
          "midi": 80,
          "name": "G#5",
          "ticks": 26820,
          "time": 25.591588125,
          "velocity": 0.6141732283464567
        },
        {
          "duration": 1.728052427083334,
          "durationTicks": 1811,
          "midi": 75,
          "name": "D#5",
          "ticks": 28740,
          "time": 27.423648125,
          "velocity": 0.5984251968503937
        },
        {
          "duration": 1.8854950833333355,
          "durationTicks": 1976,
          "midi": 79,
          "name": "G5",
          "ticks": 28740,
          "time": 27.423648125,
          "velocity": 0.6850393700787402
        },
        {
          "duration": 5.557248666666673,
          "durationTicks": 5824,
          "midi": 82,
          "name": "A#5",
          "ticks": 28740,
          "time": 27.423648125,
          "velocity": 0.6299212598425197
        },
        {
          "duration": 3.712784093749999,
          "durationTicks": 3891,
          "midi": 73,
          "name": "C#5",
          "ticks": 30660,
          "time": 29.255708125,
          "velocity": 0.5354330708661418
        },
        {
          "duration": 5.4055311979166625,
          "durationTicks": 5665,
          "midi": 77,
          "name": "F5",
          "ticks": 30660,
          "time": 29.255708125,
          "velocity": 0.5826771653543307
        },
        {
          "duration": 1.7175562500000012,
          "durationTicks": 1800,
          "midi": 72,
          "name": "C5",
          "ticks": 34500,
          "time": 32.919828125,
          "velocity": 0.5826771653543307
        },
        {
          "duration": 1.7070600729166685,
          "durationTicks": 1789,
          "midi": 80,
          "name": "G#5",
          "ticks": 34500,
          "time": 32.919828125,
          "velocity": 0.5984251968503937
        }
      ]
    },
    {
      "channel": 0,
      "controlChanges": {},
      "pitchBends": [],
      "instrument": {
        "family": "piano",
        "number": 0,
        "name": "acoustic grand piano"
      },
      "name": "CT0897",
      "notes": [],
      "endOfTrackTicks": 38400
    },
    {
      "channel": 6,
      "controlChanges": {
        "1": [
          {
            "number": 1,
            "ticks": 2740,
            "time": 2.6145022916666667,
            "value": 0
          }
        ],
        "7": [
          {
            "number": 7,
            "ticks": 612,
            "time": 0.583969125,
            "value": 0.6850393700787402
          }
        ],
        "10": [
          {
            "number": 10,
            "ticks": 612,
            "time": 0.583969125,
            "value": 0.33858267716535434
          }
        ],
        "11": [
          {
            "number": 11,
            "ticks": 612,
            "time": 0.583969125,
            "value": 1
          }
        ],
        "91": [
          {
            "number": 91,
            "ticks": 616,
            "time": 0.5877859166666667,
            "value": 0.6692913385826772
          }
        ],
        "93": [
          {
            "number": 93,
            "ticks": 616,
            "time": 0.5877859166666667,
            "value": 0.18110236220472442
          }
        ]
      },
      "pitchBends": [
        {
          "ticks": 2790,
          "time": 2.6622121875,
          "value": 0
        }
      ],
      "instrument": {
        "family": "synth pad",
        "number": 89,
        "name": "pad 2 (warm)"
      },
      "name": "",
      "notes": [
        {
          "duration": 1.7824417083333337,
          "durationTicks": 1868,
          "midi": 67,
          "name": "G4",
          "ticks": 5760,
          "time": 5.49618,
          "velocity": 0.5669291338582677
        },
        {
          "duration": 5.302477822916667,
          "durationTicks": 5557,
          "midi": 70,
          "name": "A#4",
          "ticks": 5760,
          "time": 5.49618,
          "velocity": 0.5984251968503937
        },
        {
          "duration": 14.519075500000003,
          "durationTicks": 15216,
          "midi": 75,
          "name": "D#5",
          "ticks": 5760,
          "time": 5.49618,
          "velocity": 0.5826771653543307
        },
        {
          "duration": 1.7996172708333331,
          "durationTicks": 1886,
          "midi": 63,
          "name": "D#4",
          "ticks": 5820,
          "time": 5.553431875,
          "velocity": 0.5669291338582677
        },
        {
          "duration": 3.7108756979166673,
          "durationTicks": 3889,
          "midi": 58,
          "name": "A#3",
          "ticks": 7680,
          "time": 7.32824,
          "velocity": 0.5826771653543307
        },
        {
          "duration": 5.501905187499999,
          "durationTicks": 5766,
          "midi": 65,
          "name": "F4",
          "ticks": 7680,
          "time": 7.32824,
          "velocity": 0.5039370078740157
        },
        {
          "duration": 3.7547688020833343,
          "durationTicks": 3935,
          "midi": 73,
          "name": "C#5",
          "ticks": 7680,
          "time": 7.32824,
          "velocity": 0.6299212598425197
        },
        {
          "duration": 1.8349225937500009,
          "durationTicks": 1923,
          "midi": 60,
          "name": "C4",
          "ticks": 11520,
          "time": 10.99236,
          "velocity": 0.6141732283464567
        },
        {
          "duration": 1.8664111250000008,
          "durationTicks": 1956,
          "midi": 68,
          "name": "G#4",
          "ticks": 11520,
          "time": 10.99236,
          "velocity": 0.4015748031496063
        },
        {
          "duration": 1.7318692187500009,
          "durationTicks": 1815,
          "midi": 72,
          "name": "C5",
          "ticks": 11520,
          "time": 10.99236,
          "velocity": 0.6614173228346457
        },
        {
          "duration": 1.8616401354166658,
          "durationTicks": 1951,
          "midi": 63,
          "name": "D#4",
          "ticks": 13440,
          "time": 12.82442,
          "velocity": 0.5984251968503937
        },
        {
          "duration": 1.8015256666666666,
          "durationTicks": 1888,
          "midi": 67,
          "name": "G4",
          "ticks": 13440,
          "time": 12.82442,
          "velocity": 0.5984251968503937
        },
        {
          "duration": 5.468508260416666,
          "durationTicks": 5731,
          "midi": 70,
          "name": "A#4",
          "ticks": 13440,
          "time": 12.82442,
          "velocity": 0.7559055118110236
        },
        {
          "duration": 3.7194634791666665,
          "durationTicks": 3898,
          "midi": 58,
          "name": "A#3",
          "ticks": 15300,
          "time": 14.599228125,
          "velocity": 0.5511811023622047
        },
        {
          "duration": 3.7118298958333327,
          "durationTicks": 3890,
          "midi": 73,
          "name": "C#5",
          "ticks": 15300,
          "time": 14.599228125,
          "velocity": 0.6299212598425197
        },
        {
          "duration": 5.368317479166665,
          "durationTicks": 5626,
          "midi": 65,
          "name": "F4",
          "ticks": 15360,
          "time": 14.65648,
          "velocity": 0.36220472440944884
        },
        {
          "duration": 1.7442737916666644,
          "durationTicks": 1828,
          "midi": 68,
          "name": "G#4",
          "ticks": 19140,
          "time": 18.263348125,
          "velocity": 0.4094488188976378
        },
        {
          "duration": 1.7576325624999996,
          "durationTicks": 1842,
          "midi": 72,
          "name": "C5",
          "ticks": 19140,
          "time": 18.263348125,
          "velocity": 0.6299212598425197
        },
        {
          "duration": 1.7299608229166665,
          "durationTicks": 1813,
          "midi": 60,
          "name": "C4",
          "ticks": 19200,
          "time": 18.3206,
          "velocity": 0.5354330708661418
        },
        {
          "duration": 1.8291974062499996,
          "durationTicks": 1917,
          "midi": 67,
          "name": "G4",
          "ticks": 21120,
          "time": 20.15266,
          "velocity": 0.5669291338582677
        },
        {
          "duration": 5.5028593854166665,
          "durationTicks": 5767,
          "midi": 70,
          "name": "A#4",
          "ticks": 21120,
          "time": 20.15266,
          "velocity": 0.6850393700787402
        },
        {
          "duration": 7.151713385416667,
          "durationTicks": 7495,
          "midi": 75,
          "name": "D#5",
          "ticks": 21120,
          "time": 20.15266,
          "velocity": 0.5984251968503937
        },
        {
          "duration": 5.352096114583336,
          "durationTicks": 5609,
          "midi": 65,
          "name": "F4",
          "ticks": 23040,
          "time": 21.98472,
          "velocity": 0.44881889763779526
        },
        {
          "duration": 1.8759531041666655,
          "durationTicks": 1966,
          "midi": 68,
          "name": "G#4",
          "ticks": 26880,
          "time": 25.64884,
          "velocity": 0.48031496062992124
        },
        {
          "duration": 1.7051516770833324,
          "durationTicks": 1787,
          "midi": 67,
          "name": "G4",
          "ticks": 28800,
          "time": 27.480900000000002,
          "velocity": 0.44881889763779526
        },
        {
          "duration": 5.481867031250001,
          "durationTicks": 5745,
          "midi": 70,
          "name": "A#4",
          "ticks": 28800,
          "time": 27.480900000000002,
          "velocity": 0.5826771653543307
        },
        {
          "duration": 7.206102666666663,
          "durationTicks": 7552,
          "midi": 75,
          "name": "D#5",
          "ticks": 28800,
          "time": 27.480900000000002,
          "velocity": 0.4330708661417323
        },
        {
          "duration": 5.384538843749997,
          "durationTicks": 5643,
          "midi": 65,
          "name": "F4",
          "ticks": 30720,
          "time": 29.31296,
          "velocity": 0.44881889763779526
        },
        {
          "duration": 1.7604951562499949,
          "durationTicks": 1845,
          "midi": 68,
          "name": "G#4",
          "ticks": 34500,
          "time": 32.919828125,
          "velocity": 0.44881889763779526
        },
        {
          "duration": 0.45801500000000317,
          "durationTicks": 480,
          "midi": 67,
          "name": "G4",
          "ticks": 36480,
          "time": 34.80914,
          "velocity": 0.5196850393700787
        },
        {
          "duration": 0.45801500000000317,
          "durationTicks": 480,
          "midi": 70,
          "name": "A#4",
          "ticks": 36480,
          "time": 34.80914,
          "velocity": 0.5984251968503937
        },
        {
          "duration": 0.45801500000000317,
          "durationTicks": 480,
          "midi": 75,
          "name": "D#5",
          "ticks": 36480,
          "time": 34.80914,
          "velocity": 0.5984251968503937
        }
      ]
    },
    {
      "channel": 0,
      "controlChanges": {},
      "pitchBends": [],
      "instrument": {
        "family": "piano",
        "number": 0,
        "name": "acoustic grand piano"
      },
      "name": "CT0897",
      "notes": [],
      "endOfTrackTicks": 38400
    },
    {
      "channel": 7,
      "controlChanges": {
        "1": [
          {
            "number": 1,
            "ticks": 2730,
            "time": 2.6049603125,
            "value": 0
          }
        ],
        "7": [
          {
            "number": 7,
            "ticks": 632,
            "time": 0.6030530833333333,
            "value": 0.9133858267716536
          }
        ],
        "10": [
          {
            "number": 10,
            "ticks": 632,
            "time": 0.6030530833333333,
            "value": 0.33858267716535434
          }
        ],
        "11": [
          {
            "number": 11,
            "ticks": 632,
            "time": 0.6030530833333333,
            "value": 1
          }
        ],
        "64": [
          {
            "number": 64,
            "ticks": 5918,
            "time": 5.646943270833334,
            "value": 1
          },
          {
            "number": 64,
            "ticks": 7749,
            "time": 7.394079656250001,
            "value": 0
          },
          {
            "number": 64,
            "ticks": 7889,
            "time": 7.5276673645833325,
            "value": 1
          },
          {
            "number": 64,
            "ticks": 9646,
            "time": 9.204193104166668,
            "value": 0
          },
          {
            "number": 64,
            "ticks": 9725,
            "time": 9.279574739583333,
            "value": 1
          },
          {
            "number": 64,
            "ticks": 11571,
            "time": 11.04102409375,
            "value": 0
          },
          {
            "number": 64,
            "ticks": 11790,
            "time": 11.2499934375,
            "value": 1
          },
          {
            "number": 64,
            "ticks": 13093,
            "time": 12.493313322916666,
            "value": 0
          },
          {
            "number": 64,
            "ticks": 13598,
            "time": 12.975183270833334,
            "value": 1
          },
          {
            "number": 64,
            "ticks": 15429,
            "time": 14.722319656249999,
            "value": 0
          },
          {
            "number": 64,
            "ticks": 15569,
            "time": 14.855907364583334,
            "value": 1
          },
          {
            "number": 64,
            "ticks": 17326,
            "time": 16.532433104166667,
            "value": 0
          },
          {
            "number": 64,
            "ticks": 17405,
            "time": 16.607814739583333,
            "value": 1
          },
          {
            "number": 64,
            "ticks": 19251,
            "time": 18.36926409375,
            "value": 0
          },
          {
            "number": 64,
            "ticks": 19470,
            "time": 18.5782334375,
            "value": 1
          },
          {
            "number": 64,
            "ticks": 20773,
            "time": 19.821553322916664,
            "value": 0
          },
          {
            "number": 64,
            "ticks": 21244,
            "time": 20.270980541666667,
            "value": 1
          },
          {
            "number": 64,
            "ticks": 22652,
            "time": 21.614491208333334,
            "value": 0
          },
          {
            "number": 64,
            "ticks": 22723,
            "time": 21.682239260416665,
            "value": 1
          },
          {
            "number": 64,
            "ticks": 23067,
            "time": 22.01048334375,
            "value": 0
          },
          {
            "number": 64,
            "ticks": 23242,
            "time": 22.177467979166668,
            "value": 1
          },
          {
            "number": 64,
            "ticks": 24544,
            "time": 23.419833666666666,
            "value": 0
          },
          {
            "number": 64,
            "ticks": 24660,
            "time": 23.530520625,
            "value": 1
          },
          {
            "number": 64,
            "ticks": 24924,
            "time": 23.782428874999997,
            "value": 0
          },
          {
            "number": 64,
            "ticks": 25082,
            "time": 23.933192145833335,
            "value": 1
          },
          {
            "number": 64,
            "ticks": 25812,
            "time": 24.629756625,
            "value": 0
          },
          {
            "number": 64,
            "ticks": 25936,
            "time": 24.748077166666665,
            "value": 1
          },
          {
            "number": 64,
            "ticks": 26499,
            "time": 25.28529059375,
            "value": 0
          },
          {
            "number": 64,
            "ticks": 26614,
            "time": 25.395023354166668,
            "value": 1
          },
          {
            "number": 64,
            "ticks": 26868,
            "time": 25.637389625,
            "value": 0
          },
          {
            "number": 64,
            "ticks": 27010,
            "time": 25.772885729166667,
            "value": 1
          },
          {
            "number": 64,
            "ticks": 28506,
            "time": 27.200365812500003,
            "value": 0
          },
          {
            "number": 64,
            "ticks": 28523,
            "time": 27.216587177083333,
            "value": 1
          },
          {
            "number": 64,
            "ticks": 28840,
            "time": 27.519067916666668,
            "value": 0
          },
          {
            "number": 64,
            "ticks": 29069,
            "time": 27.737579239583333,
            "value": 1
          },
          {
            "number": 64,
            "ticks": 30293,
            "time": 28.905517489583332,
            "value": 0
          },
          {
            "number": 64,
            "ticks": 30416,
            "time": 29.022883833333335,
            "value": 1
          },
          {
            "number": 64,
            "ticks": 30654,
            "time": 29.2499829375,
            "value": 0
          },
          {
            "number": 64,
            "ticks": 30875,
            "time": 29.460860677083335,
            "value": 1
          },
          {
            "number": 64,
            "ticks": 32257,
            "time": 30.77956219791667,
            "value": 0
          },
          {
            "number": 64,
            "ticks": 32336,
            "time": 30.85494383333333,
            "value": 1
          },
          {
            "number": 64,
            "ticks": 32591,
            "time": 31.09826430208333,
            "value": 0
          },
          {
            "number": 64,
            "ticks": 32776,
            "time": 31.274790916666667,
            "value": 1
          },
          {
            "number": 64,
            "ticks": 34087,
            "time": 32.525744385416665,
            "value": 0
          },
          {
            "number": 64,
            "ticks": 34237,
            "time": 32.668874072916665,
            "value": 1
          },
          {
            "number": 64,
            "ticks": 34536,
            "time": 32.95417925,
            "value": 0
          },
          {
            "number": 64,
            "ticks": 34748,
            "time": 33.156469208333334,
            "value": 1
          },
          {
            "number": 64,
            "ticks": 35989,
            "time": 34.34062882291667,
            "value": 0
          },
          {
            "number": 64,
            "ticks": 36147,
            "time": 34.49139209375,
            "value": 1
          },
          {
            "number": 64,
            "ticks": 36297,
            "time": 34.63452178125,
            "value": 0
          }
        ],
        "91": [
          {
            "number": 91,
            "ticks": 636,
            "time": 0.606869875,
            "value": 0.9448818897637795
          }
        ],
        "93": [
          {
            "number": 93,
            "ticks": 636,
            "time": 0.606869875,
            "value": 0.14960629921259844
          }
        ]
      },
      "pitchBends": [
        {
          "ticks": 2780,
          "time": 2.6526702083333333,
          "value": 0
        }
      ],
      "instrument": {
        "family": "piano",
        "number": 1,
        "name": "bright acoustic piano"
      },
      "name": "",
      "notes": [
        {
          "duration": 0.41030510416666743,
          "durationTicks": 430,
          "midi": 75,
          "name": "D#5",
          "ticks": 5760,
          "time": 5.49618,
          "velocity": 0.7559055118110236
        },
        {
          "duration": 0.3139311145833341,
          "durationTicks": 329,
          "midi": 70,
          "name": "A#4",
          "ticks": 6000,
          "time": 5.7251875,
          "velocity": 0.6141732283464567
        },
        {
          "duration": 0.22232811458333313,
          "durationTicks": 233,
          "midi": 67,
          "name": "G4",
          "ticks": 6240,
          "time": 5.954195,
          "velocity": 0.44881889763779526
        },
        {
          "duration": 0.2795799895833335,
          "durationTicks": 293,
          "midi": 75,
          "name": "D#5",
          "ticks": 6480,
          "time": 6.1832025,
          "velocity": 0.7322834645669292
        },
        {
          "duration": 0.29580135416666664,
          "durationTicks": 310,
          "midi": 70,
          "name": "A#4",
          "ticks": 6720,
          "time": 6.41221,
          "velocity": 0.6141732283464567
        },
        {
          "duration": 0.18129760416666763,
          "durationTicks": 190,
          "midi": 67,
          "name": "G4",
          "ticks": 6960,
          "time": 6.6412175,
          "velocity": 0.5196850393700787
        },
        {
          "duration": 0.2690838124999999,
          "durationTicks": 282,
          "midi": 75,
          "name": "D#5",
          "ticks": 7200,
          "time": 6.8702250000000005,
          "velocity": 0.7086614173228346
        },
        {
          "duration": 0.2681296145833336,
          "durationTicks": 281,
          "midi": 70,
          "name": "A#4",
          "ticks": 7440,
          "time": 7.0992325,
          "velocity": 0.4566929133858268
        },
        {
          "duration": 0.47900735416666684,
          "durationTicks": 502,
          "midi": 73,
          "name": "C#5",
          "ticks": 7680,
          "time": 7.32824,
          "velocity": 0.8031496062992126
        },
        {
          "duration": 0.2967555520833338,
          "durationTicks": 311,
          "midi": 70,
          "name": "A#4",
          "ticks": 7920,
          "time": 7.5572475,
          "velocity": 0.44881889763779526
        },
        {
          "duration": 0.26145022916666694,
          "durationTicks": 274,
          "midi": 65,
          "name": "F4",
          "ticks": 8160,
          "time": 7.786255,
          "velocity": 0.44881889763779526
        },
        {
          "duration": 0.29675555208333293,
          "durationTicks": 311,
          "midi": 73,
          "name": "C#5",
          "ticks": 8400,
          "time": 8.0152625,
          "velocity": 0.6850393700787402
        },
        {
          "duration": 0.26145022916666605,
          "durationTicks": 274,
          "midi": 70,
          "name": "A#4",
          "ticks": 8640,
          "time": 8.24427,
          "velocity": 0.6141732283464567
        },
        {
          "duration": 0.26049603125000154,
          "durationTicks": 273,
          "midi": 65,
          "name": "F4",
          "ticks": 8880,
          "time": 8.4732775,
          "velocity": 0.5039370078740157
        },
        {
          "duration": 0.25572504166666654,
          "durationTicks": 268,
          "midi": 73,
          "name": "C#5",
          "ticks": 9120,
          "time": 8.702285,
          "velocity": 0.8031496062992126
        },
        {
          "duration": 0.24332046875000124,
          "durationTicks": 255,
          "midi": 70,
          "name": "A#4",
          "ticks": 9360,
          "time": 8.9312925,
          "velocity": 0.4566929133858268
        },
        {
          "duration": 0.28912196875000085,
          "durationTicks": 303,
          "midi": 73,
          "name": "C#5",
          "ticks": 9600,
          "time": 9.1603,
          "velocity": 0.7795275590551181
        },
        {
          "duration": 0.25954183333333347,
          "durationTicks": 272,
          "midi": 70,
          "name": "A#4",
          "ticks": 9840,
          "time": 9.3893075,
          "velocity": 0.48031496062992124
        },
        {
          "duration": 0.2471372604166664,
          "durationTicks": 259,
          "midi": 65,
          "name": "F4",
          "ticks": 10080,
          "time": 9.618315,
          "velocity": 0.44881889763779526
        },
        {
          "duration": 0.2643128229166667,
          "durationTicks": 277,
          "midi": 73,
          "name": "C#5",
          "ticks": 10320,
          "time": 9.8473225,
          "velocity": 0.7559055118110236
        },
        {
          "duration": 0.2681296145833336,
          "durationTicks": 281,
          "midi": 70,
          "name": "A#4",
          "ticks": 10560,
          "time": 10.07633,
          "velocity": 0.5354330708661418
        },
        {
          "duration": 0.3110685208333326,
          "durationTicks": 326,
          "midi": 65,
          "name": "F4",
          "ticks": 10800,
          "time": 10.3053375,
          "velocity": 0.4330708661417323
        },
        {
          "duration": 0.24522886458333382,
          "durationTicks": 257,
          "midi": 73,
          "name": "C#5",
          "ticks": 11040,
          "time": 10.534345,
          "velocity": 0.7795275590551181
        },
        {
          "duration": 0.21564872916666822,
          "durationTicks": 226,
          "midi": 70,
          "name": "A#4",
          "ticks": 11280,
          "time": 10.7633525,
          "velocity": 0.4330708661417323
        },
        {
          "duration": 0.3320608750000016,
          "durationTicks": 348,
          "midi": 72,
          "name": "C5",
          "ticks": 11520,
          "time": 10.99236,
          "velocity": 0.7559055118110236
        },
        {
          "duration": 0.270038010416668,
          "durationTicks": 283,
          "midi": 68,
          "name": "G#4",
          "ticks": 11760,
          "time": 11.2213675,
          "velocity": 0.4330708661417323
        },
        {
          "duration": 0.2175571250000008,
          "durationTicks": 228,
          "midi": 65,
          "name": "F4",
          "ticks": 12000,
          "time": 11.450375,
          "velocity": 0.4881889763779528
        },
        {
          "duration": 0.2585876354166672,
          "durationTicks": 271,
          "midi": 72,
          "name": "C5",
          "ticks": 12240,
          "time": 11.679382500000001,
          "velocity": 0.6850393700787402
        },
        {
          "duration": 0.25572504166666654,
          "durationTicks": 268,
          "midi": 68,
          "name": "G#4",
          "ticks": 12480,
          "time": 11.90839,
          "velocity": 0.5984251968503937
        },
        {
          "duration": 0.23950367708333253,
          "durationTicks": 251,
          "midi": 65,
          "name": "F4",
          "ticks": 12720,
          "time": 12.1373975,
          "velocity": 0.4881889763779528
        },
        {
          "duration": 0.27767159375000006,
          "durationTicks": 291,
          "midi": 72,
          "name": "C5",
          "ticks": 12960,
          "time": 12.366405,
          "velocity": 0.6850393700787402
        },
        {
          "duration": 0.16221364583333475,
          "durationTicks": 170,
          "midi": 68,
          "name": "G#4",
          "ticks": 13200,
          "time": 12.5954125,
          "velocity": 0.4566929133858268
        },
        {
          "duration": 0.41030510416666566,
          "durationTicks": 430,
          "midi": 75,
          "name": "D#5",
          "ticks": 13440,
          "time": 12.82442,
          "velocity": 0.7559055118110236
        },
        {
          "duration": 0.3139311145833332,
          "durationTicks": 329,
          "midi": 70,
          "name": "A#4",
          "ticks": 13680,
          "time": 13.0534275,
          "velocity": 0.6141732283464567
        },
        {
          "duration": 0.222328114583334,
          "durationTicks": 233,
          "midi": 67,
          "name": "G4",
          "ticks": 13920,
          "time": 13.282435,
          "velocity": 0.44881889763779526
        },
        {
          "duration": 0.2795799895833344,
          "durationTicks": 293,
          "midi": 75,
          "name": "D#5",
          "ticks": 14160,
          "time": 13.5114425,
          "velocity": 0.7322834645669292
        },
        {
          "duration": 0.29580135416666486,
          "durationTicks": 310,
          "midi": 70,
          "name": "A#4",
          "ticks": 14400,
          "time": 13.740450000000001,
          "velocity": 0.6141732283464567
        },
        {
          "duration": 0.18129760416666585,
          "durationTicks": 190,
          "midi": 67,
          "name": "G4",
          "ticks": 14640,
          "time": 13.9694575,
          "velocity": 0.5196850393700787
        },
        {
          "duration": 0.26908381249999813,
          "durationTicks": 282,
          "midi": 75,
          "name": "D#5",
          "ticks": 14880,
          "time": 14.198465,
          "velocity": 0.7086614173228346
        },
        {
          "duration": 0.2681296145833336,
          "durationTicks": 281,
          "midi": 70,
          "name": "A#4",
          "ticks": 15120,
          "time": 14.4274725,
          "velocity": 0.4566929133858268
        },
        {
          "duration": 0.47900735416666684,
          "durationTicks": 502,
          "midi": 73,
          "name": "C#5",
          "ticks": 15360,
          "time": 14.65648,
          "velocity": 0.8031496062992126
        },
        {
          "duration": 0.29675555208333293,
          "durationTicks": 311,
          "midi": 70,
          "name": "A#4",
          "ticks": 15600,
          "time": 14.8854875,
          "velocity": 0.44881889763779526
        },
        {
          "duration": 0.26145022916666605,
          "durationTicks": 274,
          "midi": 65,
          "name": "F4",
          "ticks": 15840,
          "time": 15.114495,
          "velocity": 0.44881889763779526
        },
        {
          "duration": 0.2967555520833347,
          "durationTicks": 311,
          "midi": 73,
          "name": "C#5",
          "ticks": 16080,
          "time": 15.3435025,
          "velocity": 0.6850393700787402
        },
        {
          "duration": 0.2614502291666678,
          "durationTicks": 274,
          "midi": 70,
          "name": "A#4",
          "ticks": 16320,
          "time": 15.57251,
          "velocity": 0.6141732283464567
        },
        {
          "duration": 0.26049603125000154,
          "durationTicks": 273,
          "midi": 65,
          "name": "F4",
          "ticks": 16560,
          "time": 15.801517500000001,
          "velocity": 0.5039370078740157
        },
        {
          "duration": 0.25572504166666477,
          "durationTicks": 268,
          "midi": 73,
          "name": "C#5",
          "ticks": 16800,
          "time": 16.030525,
          "velocity": 0.8031496062992126
        },
        {
          "duration": 0.24332046875000302,
          "durationTicks": 255,
          "midi": 70,
          "name": "A#4",
          "ticks": 17040,
          "time": 16.2595325,
          "velocity": 0.4566929133858268
        },
        {
          "duration": 0.28912196874999907,
          "durationTicks": 303,
          "midi": 73,
          "name": "C#5",
          "ticks": 17280,
          "time": 16.48854,
          "velocity": 0.7795275590551181
        },
        {
          "duration": 0.259541833333337,
          "durationTicks": 272,
          "midi": 70,
          "name": "A#4",
          "ticks": 17520,
          "time": 16.7175475,
          "velocity": 0.48031496062992124
        },
        {
          "duration": 0.24713726041666817,
          "durationTicks": 259,
          "midi": 65,
          "name": "F4",
          "ticks": 17760,
          "time": 16.946555,
          "velocity": 0.44881889763779526
        },
        {
          "duration": 0.2643128229166649,
          "durationTicks": 277,
          "midi": 73,
          "name": "C#5",
          "ticks": 18000,
          "time": 17.1755625,
          "velocity": 0.7559055118110236
        },
        {
          "duration": 0.2681296145833336,
          "durationTicks": 281,
          "midi": 70,
          "name": "A#4",
          "ticks": 18240,
          "time": 17.40457,
          "velocity": 0.5354330708661418
        },
        {
          "duration": 0.3110685208333308,
          "durationTicks": 326,
          "midi": 65,
          "name": "F4",
          "ticks": 18480,
          "time": 17.6335775,
          "velocity": 0.4330708661417323
        },
        {
          "duration": 0.2452288645833356,
          "durationTicks": 257,
          "midi": 73,
          "name": "C#5",
          "ticks": 18720,
          "time": 17.862585,
          "velocity": 0.7795275590551181
        },
        {
          "duration": 0.21564872916666644,
          "durationTicks": 226,
          "midi": 70,
          "name": "A#4",
          "ticks": 18960,
          "time": 18.0915925,
          "velocity": 0.4330708661417323
        },
        {
          "duration": 0.33206087500000336,
          "durationTicks": 348,
          "midi": 72,
          "name": "C5",
          "ticks": 19200,
          "time": 18.3206,
          "velocity": 0.7559055118110236
        },
        {
          "duration": 0.2700380104166662,
          "durationTicks": 283,
          "midi": 68,
          "name": "G#4",
          "ticks": 19440,
          "time": 18.5496075,
          "velocity": 0.4330708661417323
        },
        {
          "duration": 0.21755712500000257,
          "durationTicks": 228,
          "midi": 65,
          "name": "F4",
          "ticks": 19680,
          "time": 18.778615,
          "velocity": 0.4881889763779528
        },
        {
          "duration": 0.2585876354166672,
          "durationTicks": 271,
          "midi": 72,
          "name": "C5",
          "ticks": 19920,
          "time": 19.0076225,
          "velocity": 0.6850393700787402
        },
        {
          "duration": 0.25572504166666477,
          "durationTicks": 268,
          "midi": 68,
          "name": "G#4",
          "ticks": 20160,
          "time": 19.23663,
          "velocity": 0.5984251968503937
        },
        {
          "duration": 0.2395036770833343,
          "durationTicks": 251,
          "midi": 65,
          "name": "F4",
          "ticks": 20400,
          "time": 19.4656375,
          "velocity": 0.4881889763779528
        },
        {
          "duration": 0.27767159375000006,
          "durationTicks": 291,
          "midi": 72,
          "name": "C5",
          "ticks": 20640,
          "time": 19.694645,
          "velocity": 0.6850393700787402
        },
        {
          "duration": 0.16221364583333298,
          "durationTicks": 170,
          "midi": 68,
          "name": "G#4",
          "ticks": 20880,
          "time": 19.9236525,
          "velocity": 0.4566929133858268
        },
        {
          "duration": 0.18797698958333697,
          "durationTicks": 197,
          "midi": 67,
          "name": "G4",
          "ticks": 21180,
          "time": 20.209911875,
          "velocity": 0.6614173228346457
        },
        {
          "duration": 0.4751905624999999,
          "durationTicks": 498,
          "midi": 75,
          "name": "D#5",
          "ticks": 21180,
          "time": 20.209911875,
          "velocity": 0.8267716535433071
        },
        {
          "duration": 0.2719464062499988,
          "durationTicks": 285,
          "midi": 70,
          "name": "A#4",
          "ticks": 21420,
          "time": 20.438919375,
          "velocity": 0.5669291338582677
        },
        {
          "duration": 0.20801514583333258,
          "durationTicks": 218,
          "midi": 67,
          "name": "G4",
          "ticks": 21600,
          "time": 20.610675,
          "velocity": 0.5984251968503937
        },
        {
          "duration": 0.21278613541666758,
          "durationTicks": 223,
          "midi": 67,
          "name": "G4",
          "ticks": 21840,
          "time": 20.8396825,
          "velocity": 0.6614173228346457
        },
        {
          "duration": 0.48377834375000006,
          "durationTicks": 507,
          "midi": 75,
          "name": "D#5",
          "ticks": 21840,
          "time": 20.8396825,
          "velocity": 0.8740157480314961
        },
        {
          "duration": 0.39026694791666827,
          "durationTicks": 409,
          "midi": 70,
          "name": "A#4",
          "ticks": 22080,
          "time": 21.06869,
          "velocity": 0.5826771653543307
        },
        {
          "duration": 0.28721357291666294,
          "durationTicks": 301,
          "midi": 67,
          "name": "G4",
          "ticks": 22320,
          "time": 21.2976975,
          "velocity": 0.6850393700787402
        },
        {
          "duration": 0.20610675000000356,
          "durationTicks": 216,
          "midi": 67,
          "name": "G4",
          "ticks": 22560,
          "time": 21.526705,
          "velocity": 0.6614173228346457
        },
        {
          "duration": 0.2872135729166665,
          "durationTicks": 301,
          "midi": 75,
          "name": "D#5",
          "ticks": 22560,
          "time": 21.526705,
          "velocity": 0.8503937007874016
        },
        {
          "duration": 0.27003801041666264,
          "durationTicks": 283,
          "midi": 70,
          "name": "A#4",
          "ticks": 22800,
          "time": 21.7557125,
          "velocity": 0.5196850393700787
        },
        {
          "duration": 0.2099235416666687,
          "durationTicks": 220,
          "midi": 65,
          "name": "F4",
          "ticks": 23040,
          "time": 21.98472,
          "velocity": 0.6850393700787402
        },
        {
          "duration": 0.5009539062500004,
          "durationTicks": 525,
          "midi": 73,
          "name": "C#5",
          "ticks": 23040,
          "time": 21.98472,
          "velocity": 0.8740157480314961
        },
        {
          "duration": 0.5019081041666666,
          "durationTicks": 526,
          "midi": 70,
          "name": "A#4",
          "ticks": 23280,
          "time": 22.2137275,
          "velocity": 0.5039370078740157
        },
        {
          "duration": 0.2967555520833365,
          "durationTicks": 311,
          "midi": 65,
          "name": "F4",
          "ticks": 23520,
          "time": 22.442735,
          "velocity": 0.5826771653543307
        },
        {
          "duration": 0.18606859375000084,
          "durationTicks": 195,
          "midi": 65,
          "name": "F4",
          "ticks": 23760,
          "time": 22.6717425,
          "velocity": 0.6456692913385826
        },
        {
          "duration": 0.4379768437499969,
          "durationTicks": 459,
          "midi": 73,
          "name": "C#5",
          "ticks": 23760,
          "time": 22.6717425,
          "velocity": 0.8267716535433071
        },
        {
          "duration": 0.2862593750000002,
          "durationTicks": 300,
          "midi": 70,
          "name": "A#4",
          "ticks": 24000,
          "time": 22.90075,
          "velocity": 0.6614173228346457
        },
        {
          "duration": 0.2833967812499978,
          "durationTicks": 297,
          "midi": 65,
          "name": "F4",
          "ticks": 24240,
          "time": 23.1297575,
          "velocity": 0.6614173228346457
        },
        {
          "duration": 0.18797698958333342,
          "durationTicks": 197,
          "midi": 65,
          "name": "F4",
          "ticks": 24480,
          "time": 23.358765000000002,
          "velocity": 0.6614173228346457
        },
        {
          "duration": 0.2767173958333302,
          "durationTicks": 290,
          "midi": 73,
          "name": "C#5",
          "ticks": 24480,
          "time": 23.358765000000002,
          "velocity": 0.8740157480314961
        },
        {
          "duration": 0.28244258333333505,
          "durationTicks": 296,
          "midi": 70,
          "name": "A#4",
          "ticks": 24720,
          "time": 23.5877725,
          "velocity": 0.44881889763779526
        },
        {
          "duration": 0.19656477083333357,
          "durationTicks": 206,
          "midi": 65,
          "name": "F4",
          "ticks": 24960,
          "time": 23.81678,
          "velocity": 0.6850393700787402
        },
        {
          "duration": 0.4904577291666641,
          "durationTicks": 514,
          "midi": 73,
          "name": "C#5",
          "ticks": 24960,
          "time": 23.81678,
          "velocity": 0.8503937007874016
        },
        {
          "duration": 0.3082059270833355,
          "durationTicks": 323,
          "midi": 70,
          "name": "A#4",
          "ticks": 25200,
          "time": 24.0457875,
          "velocity": 0.6141732283464567
        },
        {
          "duration": 0.3158395104166658,
          "durationTicks": 331,
          "midi": 65,
          "name": "F4",
          "ticks": 25440,
          "time": 24.274795,
          "velocity": 0.6141732283464567
        },
        {
          "duration": 0.18893118750000326,
          "durationTicks": 198,
          "midi": 65,
          "name": "F4",
          "ticks": 25680,
          "time": 24.5038025,
          "velocity": 0.6614173228346457
        },
        {
          "duration": 0.40553411458333244,
          "durationTicks": 425,
          "midi": 73,
          "name": "C#5",
          "ticks": 25680,
          "time": 24.5038025,
          "velocity": 0.8740157480314961
        },
        {
          "duration": 0.2919845625000015,
          "durationTicks": 306,
          "midi": 70,
          "name": "A#4",
          "ticks": 25920,
          "time": 24.73281,
          "velocity": 0.7086614173228346
        },
        {
          "duration": 0.2910303645833352,
          "durationTicks": 305,
          "midi": 65,
          "name": "F4",
          "ticks": 26160,
          "time": 24.9618175,
          "velocity": 0.6614173228346457
        },
        {
          "duration": 0.17652661458333085,
          "durationTicks": 185,
          "midi": 65,
          "name": "F4",
          "ticks": 26400,
          "time": 25.190825,
          "velocity": 0.6456692913385826
        },
        {
          "duration": 0.30820592708333194,
          "durationTicks": 323,
          "midi": 73,
          "name": "C#5",
          "ticks": 26400,
          "time": 25.190825,
          "velocity": 0.8503937007874016
        },
        {
          "duration": 0.24427466666666575,
          "durationTicks": 256,
          "midi": 70,
          "name": "A#4",
          "ticks": 26640,
          "time": 25.419832500000002,
          "velocity": 0.6141732283464567
        },
        {
          "duration": 0.17938920833333327,
          "durationTicks": 188,
          "midi": 65,
          "name": "F4",
          "ticks": 26880,
          "time": 25.64884,
          "velocity": 0.6456692913385826
        },
        {
          "duration": 0.3721371875000017,
          "durationTicks": 390,
          "midi": 72,
          "name": "C5",
          "ticks": 26880,
          "time": 25.64884,
          "velocity": 0.8031496062992126
        },
        {
          "duration": 0.2643128229166649,
          "durationTicks": 277,
          "midi": 68,
          "name": "G#4",
          "ticks": 27120,
          "time": 25.8778475,
          "velocity": 0.5984251968503937
        },
        {
          "duration": 0.24332046874999946,
          "durationTicks": 255,
          "midi": 65,
          "name": "F4",
          "ticks": 27360,
          "time": 26.106855,
          "velocity": 0.6850393700787402
        },
        {
          "duration": 0.36736619791667025,
          "durationTicks": 385,
          "midi": 72,
          "name": "C5",
          "ticks": 27540,
          "time": 26.278610625,
          "velocity": 0.8031496062992126
        },
        {
          "duration": 0.17080142708333312,
          "durationTicks": 179,
          "midi": 65,
          "name": "F4",
          "ticks": 27600,
          "time": 26.3358625,
          "velocity": 0.6614173228346457
        },
        {
          "duration": 0.3062975312500029,
          "durationTicks": 321,
          "midi": 68,
          "name": "G#4",
          "ticks": 27780,
          "time": 26.507618125,
          "velocity": 0.3464566929133858
        },
        {
          "duration": 0.2757631979166675,
          "durationTicks": 289,
          "midi": 65,
          "name": "F4",
          "ticks": 28080,
          "time": 26.7938775,
          "velocity": 0.5826771653543307
        },
        {
          "duration": 0.13835869791666866,
          "durationTicks": 145,
          "midi": 65,
          "name": "F4",
          "ticks": 28320,
          "time": 27.022885,
          "velocity": 0.6456692913385826
        },
        {
          "duration": 0.2776715937500036,
          "durationTicks": 291,
          "midi": 72,
          "name": "C5",
          "ticks": 28320,
          "time": 27.022885,
          "velocity": 0.8031496062992126
        },
        {
          "duration": 0.18797698958333342,
          "durationTicks": 197,
          "midi": 68,
          "name": "G#4",
          "ticks": 28560,
          "time": 27.2518925,
          "velocity": 0.5196850393700787
        },
        {
          "duration": 0.19370217708333115,
          "durationTicks": 203,
          "midi": 67,
          "name": "G4",
          "ticks": 28800,
          "time": 27.480900000000002,
          "velocity": 0.6614173228346457
        },
        {
          "duration": 0.4246180729166653,
          "durationTicks": 445,
          "midi": 75,
          "name": "D#5",
          "ticks": 28800,
          "time": 27.480900000000002,
          "velocity": 0.8267716535433071
        },
        {
          "duration": 0.2509540520833333,
          "durationTicks": 263,
          "midi": 70,
          "name": "A#4",
          "ticks": 29040,
          "time": 27.7099075,
          "velocity": 0.6614173228346457
        },
        {
          "duration": 0.22519070833333288,
          "durationTicks": 236,
          "midi": 67,
          "name": "G4",
          "ticks": 29280,
          "time": 27.938915,
          "velocity": 0.6614173228346457
        },
        {
          "duration": 0.17366402083333554,
          "durationTicks": 182,
          "midi": 67,
          "name": "G4",
          "ticks": 29520,
          "time": 28.1679225,
          "velocity": 0.6850393700787402
        },
        {
          "duration": 0.3072517291666692,
          "durationTicks": 322,
          "midi": 75,
          "name": "D#5",
          "ticks": 29520,
          "time": 28.1679225,
          "velocity": 0.8503937007874016
        },
        {
          "duration": 0.2948471562499968,
          "durationTicks": 309,
          "midi": 70,
          "name": "A#4",
          "ticks": 29760,
          "time": 28.39693,
          "velocity": 0.6141732283464567
        },
        {
          "duration": 0.28816777083333633,
          "durationTicks": 302,
          "midi": 67,
          "name": "G4",
          "ticks": 30000,
          "time": 28.6259375,
          "velocity": 0.7086614173228346
        },
        {
          "duration": 0.15839685416666427,
          "durationTicks": 166,
          "midi": 67,
          "name": "G4",
          "ticks": 30240,
          "time": 28.854945,
          "velocity": 0.6614173228346457
        },
        {
          "duration": 0.2824425833333315,
          "durationTicks": 296,
          "midi": 75,
          "name": "D#5",
          "ticks": 30240,
          "time": 28.854945,
          "velocity": 0.8267716535433071
        },
        {
          "duration": 0.23091589583333416,
          "durationTicks": 242,
          "midi": 70,
          "name": "A#4",
          "ticks": 30480,
          "time": 29.0839525,
          "velocity": 0.6299212598425197
        },
        {
          "duration": 0.3253814895833287,
          "durationTicks": 341,
          "midi": 73,
          "name": "C#5",
          "ticks": 30720,
          "time": 29.31296,
          "velocity": 0.8267716535433071
        },
        {
          "duration": 0.1889311874999997,
          "durationTicks": 198,
          "midi": 65,
          "name": "F4",
          "ticks": 30780,
          "time": 29.370211875,
          "velocity": 0.6614173228346457
        },
        {
          "duration": 0.26431282291666847,
          "durationTicks": 277,
          "midi": 70,
          "name": "A#4",
          "ticks": 31020,
          "time": 29.599219375,
          "velocity": 0.5984251968503937
        },
        {
          "duration": 0.2519082499999996,
          "durationTicks": 264,
          "midi": 65,
          "name": "F4",
          "ticks": 31200,
          "time": 29.770975,
          "velocity": 0.7086614173228346
        },
        {
          "duration": 0.4131676979166663,
          "durationTicks": 433,
          "midi": 73,
          "name": "C#5",
          "ticks": 31440,
          "time": 29.9999825,
          "velocity": 0.8740157480314961
        },
        {
          "duration": 0.152671666666663,
          "durationTicks": 160,
          "midi": 65,
          "name": "F4",
          "ticks": 31500,
          "time": 30.057234375,
          "velocity": 0.6614173228346457
        },
        {
          "duration": 0.27290060416666506,
          "durationTicks": 286,
          "midi": 70,
          "name": "A#4",
          "ticks": 31680,
          "time": 30.22899,
          "velocity": 0.6614173228346457
        },
        {
          "duration": 0.23854947916666447,
          "durationTicks": 250,
          "midi": 65,
          "name": "F4",
          "ticks": 31920,
          "time": 30.4579975,
          "velocity": 0.6456692913385826
        },
        {
          "duration": 0.2853051770833339,
          "durationTicks": 299,
          "midi": 73,
          "name": "C#5",
          "ticks": 32160,
          "time": 30.687005,
          "velocity": 0.8740157480314961
        },
        {
          "duration": 0.14122129166666753,
          "durationTicks": 148,
          "midi": 65,
          "name": "F4",
          "ticks": 32220,
          "time": 30.744256875,
          "velocity": 0.6614173228346457
        },
        {
          "duration": 0.2633586250000022,
          "durationTicks": 276,
          "midi": 70,
          "name": "A#4",
          "ticks": 32400,
          "time": 30.9160125,
          "velocity": 0.6456692913385826
        },
        {
          "duration": 0.15648845833333525,
          "durationTicks": 164,
          "midi": 65,
          "name": "F4",
          "ticks": 32640,
          "time": 31.14502,
          "velocity": 0.6614173228346457
        },
        {
          "duration": 0.29961814583333535,
          "durationTicks": 314,
          "midi": 73,
          "name": "C#5",
          "ticks": 32640,
          "time": 31.14502,
          "velocity": 0.8267716535433071
        },
        {
          "duration": 0.2509540520833333,
          "durationTicks": 263,
          "midi": 70,
          "name": "A#4",
          "ticks": 32880,
          "time": 31.3740275,
          "velocity": 0.6850393700787402
        },
        {
          "duration": 0.23759528124999818,
          "durationTicks": 249,
          "midi": 65,
          "name": "F4",
          "ticks": 33120,
          "time": 31.603035000000002,
          "velocity": 0.5984251968503937
        },
        {
          "duration": 0.28244258333332795,
          "durationTicks": 296,
          "midi": 73,
          "name": "C#5",
          "ticks": 33360,
          "time": 31.8320425,
          "velocity": 0.8503937007874016
        },
        {
          "duration": 0.17843501041667054,
          "durationTicks": 187,
          "midi": 65,
          "name": "F4",
          "ticks": 33420,
          "time": 31.889294375,
          "velocity": 0.6456692913385826
        },
        {
          "duration": 0.24713726041667172,
          "durationTicks": 259,
          "midi": 70,
          "name": "A#4",
          "ticks": 33600,
          "time": 32.06105,
          "velocity": 0.7086614173228346
        },
        {
          "duration": 0.24713726041666462,
          "durationTicks": 259,
          "midi": 65,
          "name": "F4",
          "ticks": 33840,
          "time": 32.2900575,
          "velocity": 0.5984251968503937
        },
        {
          "duration": 0.15839685416666782,
          "durationTicks": 166,
          "midi": 65,
          "name": "F4",
          "ticks": 34080,
          "time": 32.519065,
          "velocity": 0.6141732283464567
        },
        {
          "duration": 0.2938929583333376,
          "durationTicks": 308,
          "midi": 73,
          "name": "C#5",
          "ticks": 34080,
          "time": 32.519065,
          "velocity": 0.8740157480314961
        },
        {
          "duration": 0.22614490625000627,
          "durationTicks": 237,
          "midi": 70,
          "name": "A#4",
          "ticks": 34320,
          "time": 32.7480725,
          "velocity": 0.6614173228346457
        },
        {
          "duration": 0.180343406249996,
          "durationTicks": 189,
          "midi": 65,
          "name": "F4",
          "ticks": 34560,
          "time": 32.97708,
          "velocity": 0.6614173228346457
        },
        {
          "duration": 0.27480899999999764,
          "durationTicks": 288,
          "midi": 72,
          "name": "C5",
          "ticks": 34560,
          "time": 32.97708,
          "velocity": 0.8503937007874016
        },
        {
          "duration": 0.2442746666666622,
          "durationTicks": 256,
          "midi": 68,
          "name": "G#4",
          "ticks": 34800,
          "time": 33.2060875,
          "velocity": 0.5984251968503937
        },
        {
          "duration": 0.227099104166669,
          "durationTicks": 238,
          "midi": 65,
          "name": "F4",
          "ticks": 35040,
          "time": 33.435095,
          "velocity": 0.7322834645669292
        },
        {
          "duration": 0.15362586458333283,
          "durationTicks": 161,
          "midi": 65,
          "name": "F4",
          "ticks": 35280,
          "time": 33.6641025,
          "velocity": 0.6614173228346457
        },
        {
          "duration": 0.2767173958333373,
          "durationTicks": 290,
          "midi": 72,
          "name": "C5",
          "ticks": 35280,
          "time": 33.6641025,
          "velocity": 0.8503937007874016
        },
        {
          "duration": 0.2595418333333299,
          "durationTicks": 272,
          "midi": 68,
          "name": "G#4",
          "ticks": 35520,
          "time": 33.89311,
          "velocity": 0.5984251968503937
        },
        {
          "duration": 0.26049603124999265,
          "durationTicks": 273,
          "midi": 65,
          "name": "F4",
          "ticks": 35760,
          "time": 34.1221175,
          "velocity": 0.6614173228346457
        },
        {
          "duration": 0.11736634374999255,
          "durationTicks": 123,
          "midi": 65,
          "name": "F4",
          "ticks": 36000,
          "time": 34.351125,
          "velocity": 0.6456692913385826
        },
        {
          "duration": 0.27767159375000006,
          "durationTicks": 291,
          "midi": 72,
          "name": "C5",
          "ticks": 36000,
          "time": 34.351125,
          "velocity": 0.8267716535433071
        },
        {
          "duration": 0.1354961041666698,
          "durationTicks": 142,
          "midi": 68,
          "name": "G#4",
          "ticks": 36240,
          "time": 34.5801325,
          "velocity": 0.6141732283464567
        }
      ]
    },
    {
      "channel": 0,
      "controlChanges": {},
      "pitchBends": [],
      "instrument": {
        "family": "piano",
        "number": 0,
        "name": "acoustic grand piano"
      },
      "name": "CT0897",
      "notes": [],
      "endOfTrackTicks": 38400
    },
    {
      "channel": 8,
      "controlChanges": {
        "1": [
          {
            "number": 1,
            "ticks": 2745,
            "time": 2.61927328125,
            "value": 0
          }
        ],
        "7": [
          {
            "number": 7,
            "ticks": 652,
            "time": 0.6221370416666667,
            "value": 0.6535433070866141
          }
        ],
        "10": [
          {
            "number": 10,
            "ticks": 652,
            "time": 0.6221370416666667,
            "value": 0.4330708661417323
          }
        ],
        "11": [
          {
            "number": 11,
            "ticks": 652,
            "time": 0.6221370416666667,
            "value": 1
          }
        ],
        "91": [
          {
            "number": 91,
            "ticks": 656,
            "time": 0.6259538333333333,
            "value": 0.6220472440944882
          }
        ],
        "93": [
          {
            "number": 93,
            "ticks": 656,
            "time": 0.6259538333333333,
            "value": 0.14960629921259844
          }
        ]
      },
      "pitchBends": [
        {
          "ticks": 2795,
          "time": 2.6669831770833334,
          "value": 0
        }
      ],
      "instrument": {
        "family": "synth pad",
        "number": 95,
        "name": "pad 8 (sweep)"
      },
      "name": "",
      "notes": [
        {
          "duration": 1.8253806145833344,
          "durationTicks": 1913,
          "midi": 65,
          "name": "F4",
          "ticks": 19200,
          "time": 18.3206,
          "velocity": 0.7322834645669292
        },
        {
          "duration": 1.8645027291666665,
          "durationTicks": 1954,
          "midi": 68,
          "name": "G#4",
          "ticks": 19200,
          "time": 18.3206,
          "velocity": 0.7322834645669292
        },
        {
          "duration": 1.84637296875,
          "durationTicks": 1935,
          "midi": 75,
          "name": "D#5",
          "ticks": 19200,
          "time": 18.3206,
          "velocity": 0.7559055118110236
        },
        {
          "duration": 1.8435103749999975,
          "durationTicks": 1932,
          "midi": 55,
          "name": "G3",
          "ticks": 21120,
          "time": 20.15266,
          "velocity": 0.8740157480314961
        },
        {
          "duration": 1.7938920833333327,
          "durationTicks": 1880,
          "midi": 63,
          "name": "D#4",
          "ticks": 21120,
          "time": 20.15266,
          "velocity": 0.7795275590551181
        },
        {
          "duration": 1.8425561770833312,
          "durationTicks": 1931,
          "midi": 67,
          "name": "G4",
          "ticks": 21120,
          "time": 20.15266,
          "velocity": 0.7559055118110236
        },
        {
          "duration": 3.5658376145833337,
          "durationTicks": 3737,
          "midi": 65,
          "name": "F4",
          "ticks": 22980,
          "time": 21.927468125,
          "velocity": 0.7559055118110236
        },
        {
          "duration": 3.7003795208333337,
          "durationTicks": 3878,
          "midi": 70,
          "name": "A#4",
          "ticks": 22980,
          "time": 21.927468125,
          "velocity": 0.7559055118110236
        },
        {
          "duration": 1.8444645729166673,
          "durationTicks": 1933,
          "midi": 53,
          "name": "F3",
          "ticks": 23040,
          "time": 21.98472,
          "velocity": 0.7559055118110236
        },
        {
          "duration": 1.8396935833333323,
          "durationTicks": 1928,
          "midi": 49,
          "name": "C#3",
          "ticks": 24960,
          "time": 23.81678,
          "velocity": 0.6850393700787402
        },
        {
          "duration": 1.8730905104166666,
          "durationTicks": 1963,
          "midi": 48,
          "name": "C3",
          "ticks": 26880,
          "time": 25.64884,
          "velocity": 0.6614173228346457
        },
        {
          "duration": 1.8024798645833364,
          "durationTicks": 1889,
          "midi": 65,
          "name": "F4",
          "ticks": 26880,
          "time": 25.64884,
          "velocity": 0.8031496062992126
        },
        {
          "duration": 1.9045790416666648,
          "durationTicks": 1996,
          "midi": 68,
          "name": "G#4",
          "ticks": 26880,
          "time": 25.64884,
          "velocity": 0.8267716535433071
        },
        {
          "duration": 1.811067645833333,
          "durationTicks": 1898,
          "midi": 55,
          "name": "G3",
          "ticks": 28800,
          "time": 27.480900000000002,
          "velocity": 0.7322834645669292
        },
        {
          "duration": 1.8053424583333317,
          "durationTicks": 1892,
          "midi": 63,
          "name": "D#4",
          "ticks": 28800,
          "time": 27.480900000000002,
          "velocity": 0.5984251968503937
        },
        {
          "duration": 1.878815697916668,
          "durationTicks": 1969,
          "midi": 67,
          "name": "G4",
          "ticks": 28800,
          "time": 27.480900000000002,
          "velocity": 0.7322834645669292
        },
        {
          "duration": 1.8721363125000003,
          "durationTicks": 1962,
          "midi": 53,
          "name": "F3",
          "ticks": 30660,
          "time": 29.255708125,
          "velocity": 0.7322834645669292
        },
        {
          "duration": 3.5486620520833334,
          "durationTicks": 3719,
          "midi": 65,
          "name": "F4",
          "ticks": 30720,
          "time": 29.31296,
          "velocity": 0.6850393700787402
        },
        {
          "duration": 3.6908375416666708,
          "durationTicks": 3868,
          "midi": 70,
          "name": "A#4",
          "ticks": 30720,
          "time": 29.31296,
          "velocity": 0.6850393700787402
        },
        {
          "duration": 1.8854950833333284,
          "durationTicks": 1976,
          "midi": 49,
          "name": "C#3",
          "ticks": 32580,
          "time": 31.087768125,
          "velocity": 0.6850393700787402
        },
        {
          "duration": 1.6192738645833273,
          "durationTicks": 1697,
          "midi": 48,
          "name": "C3",
          "ticks": 34500,
          "time": 32.919828125,
          "velocity": 0.7086614173228346
        },
        {
          "duration": 1.8549607499999965,
          "durationTicks": 1944,
          "midi": 65,
          "name": "F4",
          "ticks": 34500,
          "time": 32.919828125,
          "velocity": 0.8031496062992126
        },
        {
          "duration": 1.8454187708333336,
          "durationTicks": 1934,
          "midi": 68,
          "name": "G#4",
          "ticks": 34500,
          "time": 32.919828125,
          "velocity": 0.8031496062992126
        }
      ]
    },
    {
      "channel": 9,
      "controlChanges": {
        "1": [
          {
            "number": 1,
            "ticks": 2747,
            "time": 2.6211816770833334,
            "value": 0
          }
        ],
        "7": [
          {
            "number": 7,
            "ticks": 672,
            "time": 0.6412209999999999,
            "value": 0.6535433070866141
          }
        ],
        "11": [
          {
            "number": 11,
            "ticks": 672,
            "time": 0.6412209999999999,
            "value": 1
          }
        ],
        "91": [
          {
            "number": 91,
            "ticks": 676,
            "time": 0.6450377916666667,
            "value": 0.6456692913385826
          }
        ],
        "93": [
          {
            "number": 93,
            "ticks": 676,
            "time": 0.6450377916666667,
            "value": 0
          }
        ]
      },
      "pitchBends": [
        {
          "ticks": 2797,
          "time": 2.668891572916667,
          "value": 0
        }
      ],
      "instrument": {
        "family": "drums",
        "number": 0,
        "name": "standard kit"
      },
      "name": "CT0897",
      "notes": [
        {
          "duration": 0.4561066041666666,
          "durationTicks": 478,
          "midi": 42,
          "name": "F#2",
          "ticks": 3840,
          "time": 3.66412,
          "velocity": 0.7874015748031497
        },
        {
          "duration": 0.45610660416666704,
          "durationTicks": 478,
          "midi": 42,
          "name": "F#2",
          "ticks": 4320,
          "time": 4.122135,
          "velocity": 0.7874015748031497
        },
        {
          "duration": 0.45610660416666704,
          "durationTicks": 478,
          "midi": 42,
          "name": "F#2",
          "ticks": 4800,
          "time": 4.58015,
          "velocity": 0.7874015748031497
        },
        {
          "duration": 0.45610660416666704,
          "durationTicks": 478,
          "midi": 42,
          "name": "F#2",
          "ticks": 5280,
          "time": 5.038165,
          "velocity": 0.7874015748031497
        },
        {
          "duration": 0.1440838854166664,
          "durationTicks": 151,
          "midi": 38,
          "name": "D2",
          "ticks": 21120,
          "time": 20.15266,
          "velocity": 0.9212598425196851
        },
        {
          "duration": 0.14885487500000139,
          "durationTicks": 156,
          "midi": 49,
          "name": "C#3",
          "ticks": 21120,
          "time": 20.15266,
          "velocity": 0.8267716535433071
        },
        {
          "duration": 0.10305337500000178,
          "durationTicks": 108,
          "midi": 36,
          "name": "C2",
          "ticks": 21360,
          "time": 20.3816675,
          "velocity": 0.8031496062992126
        },
        {
          "duration": 0.08110682291667004,
          "durationTicks": 85,
          "midi": 51,
          "name": "D#3",
          "ticks": 21360,
          "time": 20.3816675,
          "velocity": 0.6299212598425197
        },
        {
          "duration": 0.11450375000000079,
          "durationTicks": 120,
          "midi": 36,
          "name": "C2",
          "ticks": 21600,
          "time": 20.610675,
          "velocity": 0.8740157480314961
        },
        {
          "duration": 0.08301521874999906,
          "durationTicks": 87,
          "midi": 51,
          "name": "D#3",
          "ticks": 21600,
          "time": 20.610675,
          "velocity": 0.7795275590551181
        },
        {
          "duration": 0.13645030208333608,
          "durationTicks": 143,
          "midi": 38,
          "name": "D2",
          "ticks": 21840,
          "time": 20.8396825,
          "velocity": 0.8976377952755905
        },
        {
          "duration": 0.12499992708333352,
          "durationTicks": 131,
          "midi": 51,
          "name": "D#3",
          "ticks": 21840,
          "time": 20.8396825,
          "velocity": 0.7795275590551181
        },
        {
          "duration": 0.11259535416666466,
          "durationTicks": 118,
          "midi": 36,
          "name": "C2",
          "ticks": 22080,
          "time": 21.06869,
          "velocity": 0.8740157480314961
        },
        {
          "duration": 0.07061064583333376,
          "durationTicks": 74,
          "midi": 51,
          "name": "D#3",
          "ticks": 22080,
          "time": 21.06869,
          "velocity": 0.3700787401574803
        },
        {
          "duration": 0.11068695833333209,
          "durationTicks": 116,
          "midi": 36,
          "name": "C2",
          "ticks": 22320,
          "time": 21.2976975,
          "velocity": 0.8740157480314961
        },
        {
          "duration": 0.08301521874999906,
          "durationTicks": 87,
          "midi": 51,
          "name": "D#3",
          "ticks": 22320,
          "time": 21.2976975,
          "velocity": 0.7795275590551181
        },
        {
          "duration": 0.13835869791666866,
          "durationTicks": 145,
          "midi": 38,
          "name": "D2",
          "ticks": 22560,
          "time": 21.526705,
          "velocity": 0.9448818897637795
        },
        {
          "duration": 0.1307251145833348,
          "durationTicks": 137,
          "midi": 51,
          "name": "D#3",
          "ticks": 22560,
          "time": 21.526705,
          "velocity": 0.8031496062992126
        },
        {
          "duration": 0.12404572916666723,
          "durationTicks": 130,
          "midi": 36,
          "name": "C2",
          "ticks": 22800,
          "time": 21.7557125,
          "velocity": 0.8740157480314961
        },
        {
          "duration": 0.0753816354166652,
          "durationTicks": 79,
          "midi": 51,
          "name": "D#3",
          "ticks": 22800,
          "time": 21.7557125,
          "velocity": 0.4881889763779528
        },
        {
          "duration": 0.13358770833333367,
          "durationTicks": 140,
          "midi": 38,
          "name": "D2",
          "ticks": 23040,
          "time": 21.98472,
          "velocity": 0.9212598425196851
        },
        {
          "duration": 0.1269083229166661,
          "durationTicks": 133,
          "midi": 51,
          "name": "D#3",
          "ticks": 23040,
          "time": 21.98472,
          "velocity": 0.8503937007874016
        },
        {
          "duration": 0.1097327604166658,
          "durationTicks": 115,
          "midi": 36,
          "name": "C2",
          "ticks": 23280,
          "time": 22.2137275,
          "velocity": 0.8976377952755905
        },
        {
          "duration": 0.0849236145833352,
          "durationTicks": 89,
          "midi": 51,
          "name": "D#3",
          "ticks": 23280,
          "time": 22.2137275,
          "velocity": 0.5039370078740157
        },
        {
          "duration": 0.12118313541666836,
          "durationTicks": 127,
          "midi": 36,
          "name": "C2",
          "ticks": 23520,
          "time": 22.442735,
          "velocity": 0.8503937007874016
        },
        {
          "duration": 0.09828238541666678,
          "durationTicks": 103,
          "midi": 51,
          "name": "D#3",
          "ticks": 23520,
          "time": 22.442735,
          "velocity": 0.7322834645669292
        },
        {
          "duration": 0.1316793125000011,
          "durationTicks": 138,
          "midi": 38,
          "name": "D2",
          "ticks": 23760,
          "time": 22.6717425,
          "velocity": 0.9448818897637795
        },
        {
          "duration": 0.11068695833333209,
          "durationTicks": 116,
          "midi": 51,
          "name": "D#3",
          "ticks": 23760,
          "time": 22.6717425,
          "velocity": 0.7795275590551181
        },
        {
          "duration": 0.11259535416666822,
          "durationTicks": 118,
          "midi": 36,
          "name": "C2",
          "ticks": 24000,
          "time": 22.90075,
          "velocity": 0.8976377952755905
        },
        {
          "duration": 0.08587781250000148,
          "durationTicks": 90,
          "midi": 51,
          "name": "D#3",
          "ticks": 24000,
          "time": 22.90075,
          "velocity": 0.5511811023622047
        },
        {
          "duration": 0.10782436458333322,
          "durationTicks": 113,
          "midi": 36,
          "name": "C2",
          "ticks": 24240,
          "time": 23.1297575,
          "velocity": 0.9212598425196851
        },
        {
          "duration": 0.09160300000000277,
          "durationTicks": 96,
          "midi": 51,
          "name": "D#3",
          "ticks": 24240,
          "time": 23.1297575,
          "velocity": 0.6456692913385826
        },
        {
          "duration": 0.1393128958333314,
          "durationTicks": 146,
          "midi": 38,
          "name": "D2",
          "ticks": 24480,
          "time": 23.358765000000002,
          "velocity": 0.9448818897637795
        },
        {
          "duration": 0.13167931249999754,
          "durationTicks": 138,
          "midi": 51,
          "name": "D#3",
          "ticks": 24480,
          "time": 23.358765000000002,
          "velocity": 0.8267716535433071
        },
        {
          "duration": 0.10782436458333322,
          "durationTicks": 113,
          "midi": 36,
          "name": "C2",
          "ticks": 24720,
          "time": 23.5877725,
          "velocity": 0.8976377952755905
        },
        {
          "duration": 0.07061064583333376,
          "durationTicks": 74,
          "midi": 51,
          "name": "D#3",
          "ticks": 24720,
          "time": 23.5877725,
          "velocity": 0.5511811023622047
        },
        {
          "duration": 0.13740449999999882,
          "durationTicks": 144,
          "midi": 38,
          "name": "D2",
          "ticks": 24960,
          "time": 23.81678,
          "velocity": 0.9212598425196851
        },
        {
          "duration": 0.1221373333333311,
          "durationTicks": 128,
          "midi": 51,
          "name": "D#3",
          "ticks": 24960,
          "time": 23.81678,
          "velocity": 0.8031496062992126
        },
        {
          "duration": 0.10305337500000178,
          "durationTicks": 108,
          "midi": 36,
          "name": "C2",
          "ticks": 25200,
          "time": 24.0457875,
          "velocity": 0.9448818897637795
        },
        {
          "duration": 0.08206102083333278,
          "durationTicks": 86,
          "midi": 51,
          "name": "D#3",
          "ticks": 25200,
          "time": 24.0457875,
          "velocity": 0.5669291338582677
        },
        {
          "duration": 0.11641214583333337,
          "durationTicks": 122,
          "midi": 36,
          "name": "C2",
          "ticks": 25440,
          "time": 24.274795,
          "velocity": 0.8740157480314961
        },
        {
          "duration": 0.08015262499999665,
          "durationTicks": 84,
          "midi": 51,
          "name": "D#3",
          "ticks": 25440,
          "time": 24.274795,
          "velocity": 0.6456692913385826
        },
        {
          "duration": 0.11641214583333692,
          "durationTicks": 122,
          "midi": 38,
          "name": "D2",
          "ticks": 25680,
          "time": 24.5038025,
          "velocity": 0.9448818897637795
        },
        {
          "duration": 0.11545794791666708,
          "durationTicks": 121,
          "midi": 51,
          "name": "D#3",
          "ticks": 25680,
          "time": 24.5038025,
          "velocity": 0.8267716535433071
        },
        {
          "duration": 0.1049617708333308,
          "durationTicks": 110,
          "midi": 36,
          "name": "C2",
          "ticks": 25920,
          "time": 24.73281,
          "velocity": 0.8976377952755905
        },
        {
          "duration": 0.07347323958333618,
          "durationTicks": 77,
          "midi": 51,
          "name": "D#3",
          "ticks": 25920,
          "time": 24.73281,
          "velocity": 0.5196850393700787
        },
        {
          "duration": 0.10782436458333322,
          "durationTicks": 113,
          "midi": 36,
          "name": "C2",
          "ticks": 26160,
          "time": 24.9618175,
          "velocity": 0.8976377952755905
        },
        {
          "duration": 0.07633583333333505,
          "durationTicks": 80,
          "midi": 51,
          "name": "D#3",
          "ticks": 26160,
          "time": 24.9618175,
          "velocity": 0.6614173228346457
        },
        {
          "duration": 0.13358770833333367,
          "durationTicks": 140,
          "midi": 38,
          "name": "D2",
          "ticks": 26400,
          "time": 25.190825,
          "velocity": 0.9212598425196851
        },
        {
          "duration": 0.11259535416666466,
          "durationTicks": 118,
          "midi": 51,
          "name": "D#3",
          "ticks": 26400,
          "time": 25.190825,
          "velocity": 0.8503937007874016
        },
        {
          "duration": 0.11545794791666353,
          "durationTicks": 121,
          "midi": 36,
          "name": "C2",
          "ticks": 26640,
          "time": 25.419832500000002,
          "velocity": 0.8976377952755905
        },
        {
          "duration": 0.06393126041666619,
          "durationTicks": 67,
          "midi": 51,
          "name": "D#3",
          "ticks": 26640,
          "time": 25.419832500000002,
          "velocity": 0.5669291338582677
        },
        {
          "duration": 0.14122129166666397,
          "durationTicks": 148,
          "midi": 38,
          "name": "D2",
          "ticks": 26880,
          "time": 25.64884,
          "velocity": 0.9448818897637795
        },
        {
          "duration": 0.10877856249999951,
          "durationTicks": 114,
          "midi": 51,
          "name": "D#3",
          "ticks": 26880,
          "time": 25.64884,
          "velocity": 0.8267716535433071
        },
        {
          "duration": 0.10305337499999823,
          "durationTicks": 108,
          "midi": 36,
          "name": "C2",
          "ticks": 27120,
          "time": 25.8778475,
          "velocity": 0.9212598425196851
        },
        {
          "duration": 0.06965644791666392,
          "durationTicks": 73,
          "midi": 51,
          "name": "D#3",
          "ticks": 27120,
          "time": 25.8778475,
          "velocity": 0.4645669291338583
        },
        {
          "duration": 0.11450375000000079,
          "durationTicks": 120,
          "midi": 36,
          "name": "C2",
          "ticks": 27360,
          "time": 26.106855,
          "velocity": 0.8503937007874016
        },
        {
          "duration": 0.08874040625000035,
          "durationTicks": 93,
          "midi": 51,
          "name": "D#3",
          "ticks": 27360,
          "time": 26.106855,
          "velocity": 0.7086614173228346
        },
        {
          "duration": 0.13454190624999995,
          "durationTicks": 141,
          "midi": 38,
          "name": "D2",
          "ticks": 27600,
          "time": 26.3358625,
          "velocity": 0.8976377952755905
        },
        {
          "duration": 0.10877856249999951,
          "durationTicks": 114,
          "midi": 51,
          "name": "D#3",
          "ticks": 27600,
          "time": 26.3358625,
          "velocity": 0.8267716535433071
        },
        {
          "duration": 0.10209917708333549,
          "durationTicks": 107,
          "midi": 36,
          "name": "C2",
          "ticks": 27840,
          "time": 26.56487,
          "velocity": 0.8740157480314961
        },
        {
          "duration": 0.07919842708333391,
          "durationTicks": 83,
          "midi": 51,
          "name": "D#3",
          "ticks": 27840,
          "time": 26.56487,
          "velocity": 0.6456692913385826
        },
        {
          "duration": 0.10591596875000064,
          "durationTicks": 111,
          "midi": 36,
          "name": "C2",
          "ticks": 28080,
          "time": 26.7938775,
          "velocity": 0.8740157480314961
        },
        {
          "duration": 0.0763358333333315,
          "durationTicks": 80,
          "midi": 51,
          "name": "D#3",
          "ticks": 28080,
          "time": 26.7938775,
          "velocity": 0.6850393700787402
        },
        {
          "duration": 0.12022893750000208,
          "durationTicks": 126,
          "midi": 38,
          "name": "D2",
          "ticks": 28320,
          "time": 27.022885,
          "velocity": 0.9212598425196851
        },
        {
          "duration": 0.09923658333333663,
          "durationTicks": 104,
          "midi": 51,
          "name": "D#3",
          "ticks": 28320,
          "time": 27.022885,
          "velocity": 0.8031496062992126
        },
        {
          "duration": 0.10114497916666565,
          "durationTicks": 106,
          "midi": 36,
          "name": "C2",
          "ticks": 28560,
          "time": 27.2518925,
          "velocity": 0.8740157480314961
        },
        {
          "duration": 0.07442743749999892,
          "durationTicks": 78,
          "midi": 51,
          "name": "D#3",
          "ticks": 28560,
          "time": 27.2518925,
          "velocity": 0.6614173228346457
        },
        {
          "duration": 0.12786252083333238,
          "durationTicks": 134,
          "midi": 38,
          "name": "D2",
          "ticks": 28800,
          "time": 27.480900000000002,
          "velocity": 0.9448818897637795
        },
        {
          "duration": 0.11927473958333223,
          "durationTicks": 125,
          "midi": 49,
          "name": "C#3",
          "ticks": 28800,
          "time": 27.480900000000002,
          "velocity": 0.8503937007874016
        },
        {
          "duration": 0.09541979166666792,
          "durationTicks": 100,
          "midi": 36,
          "name": "C2",
          "ticks": 29040,
          "time": 27.7099075,
          "velocity": 0.8740157480314961
        },
        {
          "duration": 0.08110682291666649,
          "durationTicks": 85,
          "midi": 51,
          "name": "D#3",
          "ticks": 29040,
          "time": 27.7099075,
          "velocity": 0.4015748031496063
        },
        {
          "duration": 0.10400757291666451,
          "durationTicks": 109,
          "midi": 36,
          "name": "C2",
          "ticks": 29280,
          "time": 27.938915,
          "velocity": 0.8503937007874016
        },
        {
          "duration": 0.09351139583333179,
          "durationTicks": 98,
          "midi": 51,
          "name": "D#3",
          "ticks": 29280,
          "time": 27.938915,
          "velocity": 0.6614173228346457
        },
        {
          "duration": 0.11259535416666466,
          "durationTicks": 118,
          "midi": 38,
          "name": "D2",
          "ticks": 29520,
          "time": 28.1679225,
          "velocity": 0.9448818897637795
        },
        {
          "duration": 0.11450375000000079,
          "durationTicks": 120,
          "midi": 51,
          "name": "D#3",
          "ticks": 29520,
          "time": 28.1679225,
          "velocity": 0.8031496062992126
        },
        {
          "duration": 0.09541979166666792,
          "durationTicks": 100,
          "midi": 36,
          "name": "C2",
          "ticks": 29760,
          "time": 28.39693,
          "velocity": 0.8740157480314961
        },
        {
          "duration": 0.06583965624999877,
          "durationTicks": 69,
          "midi": 51,
          "name": "D#3",
          "ticks": 29760,
          "time": 28.39693,
          "velocity": 0.5354330708661418
        },
        {
          "duration": 0.10782436458333322,
          "durationTicks": 113,
          "midi": 36,
          "name": "C2",
          "ticks": 30000,
          "time": 28.6259375,
          "velocity": 0.8976377952755905
        },
        {
          "duration": 0.09064880208333292,
          "durationTicks": 95,
          "midi": 51,
          "name": "D#3",
          "ticks": 30000,
          "time": 28.6259375,
          "velocity": 0.6614173228346457
        },
        {
          "duration": 0.12118313541666836,
          "durationTicks": 127,
          "midi": 38,
          "name": "D2",
          "ticks": 30240,
          "time": 28.854945,
          "velocity": 0.9212598425196851
        },
        {
          "duration": 0.12309153124999739,
          "durationTicks": 129,
          "midi": 51,
          "name": "D#3",
          "ticks": 30240,
          "time": 28.854945,
          "velocity": 0.8031496062992126
        },
        {
          "duration": 0.10782436458333322,
          "durationTicks": 113,
          "midi": 36,
          "name": "C2",
          "ticks": 30480,
          "time": 29.0839525,
          "velocity": 0.8976377952755905
        },
        {
          "duration": 0.06011446875000104,
          "durationTicks": 63,
          "midi": 51,
          "name": "D#3",
          "ticks": 30480,
          "time": 29.0839525,
          "velocity": 0.48031496062992124
        },
        {
          "duration": 0.1173663437499961,
          "durationTicks": 123,
          "midi": 38,
          "name": "D2",
          "ticks": 30720,
          "time": 29.31296,
          "velocity": 0.9212598425196851
        },
        {
          "duration": 0.12309153124999739,
          "durationTicks": 129,
          "midi": 51,
          "name": "D#3",
          "ticks": 30720,
          "time": 29.31296,
          "velocity": 0.8267716535433071
        },
        {
          "duration": 0.10019078124999936,
          "durationTicks": 105,
          "midi": 36,
          "name": "C2",
          "ticks": 30960,
          "time": 29.541967500000002,
          "velocity": 0.8976377952755905
        },
        {
          "duration": 0.07251904166666279,
          "durationTicks": 76,
          "midi": 51,
          "name": "D#3",
          "ticks": 30960,
          "time": 29.541967500000002,
          "velocity": 0.5669291338582677
        },
        {
          "duration": 0.10400757291667162,
          "durationTicks": 109,
          "midi": 36,
          "name": "C2",
          "ticks": 31200,
          "time": 29.770975,
          "velocity": 0.8740157480314961
        },
        {
          "duration": 0.08206102083332922,
          "durationTicks": 86,
          "midi": 51,
          "name": "D#3",
          "ticks": 31200,
          "time": 29.770975,
          "velocity": 0.7559055118110236
        },
        {
          "duration": 0.12118313541666481,
          "durationTicks": 127,
          "midi": 38,
          "name": "D2",
          "ticks": 31440,
          "time": 29.9999825,
          "velocity": 0.8976377952755905
        },
        {
          "duration": 0.08683201041666422,
          "durationTicks": 91,
          "midi": 51,
          "name": "D#3",
          "ticks": 31440,
          "time": 29.9999825,
          "velocity": 0.7795275590551181
        },
        {
          "duration": 0.09541979166666437,
          "durationTicks": 100,
          "midi": 36,
          "name": "C2",
          "ticks": 31680,
          "time": 30.22899,
          "velocity": 0.8976377952755905
        },
        {
          "duration": 0.09160300000000277,
          "durationTicks": 96,
          "midi": 51,
          "name": "D#3",
          "ticks": 31680,
          "time": 30.22899,
          "velocity": 0.7559055118110236
        },
        {
          "duration": 0.09637398958333065,
          "durationTicks": 101,
          "midi": 36,
          "name": "C2",
          "ticks": 31920,
          "time": 30.4579975,
          "velocity": 0.8740157480314961
        },
        {
          "duration": 0.07824422916666762,
          "durationTicks": 82,
          "midi": 51,
          "name": "D#3",
          "ticks": 31920,
          "time": 30.4579975,
          "velocity": 0.5826771653543307
        },
        {
          "duration": 0.13358770833333722,
          "durationTicks": 140,
          "midi": 38,
          "name": "D2",
          "ticks": 32160,
          "time": 30.687005,
          "velocity": 0.9448818897637795
        },
        {
          "duration": 0.10687016666666693,
          "durationTicks": 112,
          "midi": 51,
          "name": "D#3",
          "ticks": 32160,
          "time": 30.687005,
          "velocity": 0.8503937007874016
        },
        {
          "duration": 0.09541979166666437,
          "durationTicks": 100,
          "midi": 36,
          "name": "C2",
          "ticks": 32400,
          "time": 30.9160125,
          "velocity": 0.9212598425196851
        },
        {
          "duration": 0.0629770624999999,
          "durationTicks": 66,
          "midi": 51,
          "name": "D#3",
          "ticks": 32400,
          "time": 30.9160125,
          "velocity": 0.5669291338582677
        },
        {
          "duration": 0.11545794791666708,
          "durationTicks": 121,
          "midi": 38,
          "name": "D2",
          "ticks": 32640,
          "time": 31.14502,
          "velocity": 0.8976377952755905
        },
        {
          "duration": 0.11164115625000548,
          "durationTicks": 117,
          "midi": 51,
          "name": "D#3",
          "ticks": 32640,
          "time": 31.14502,
          "velocity": 0.7795275590551181
        },
        {
          "duration": 0.09637398958333065,
          "durationTicks": 101,
          "midi": 36,
          "name": "C2",
          "ticks": 32880,
          "time": 31.3740275,
          "velocity": 0.9212598425196851
        },
        {
          "duration": 0.06488545833333248,
          "durationTicks": 68,
          "midi": 51,
          "name": "D#3",
          "ticks": 32880,
          "time": 31.3740275,
          "velocity": 0.4881889763779528
        },
        {
          "duration": 0.10400757291666807,
          "durationTicks": 109,
          "midi": 36,
          "name": "C2",
          "ticks": 33120,
          "time": 31.603035000000002,
          "velocity": 0.8740157480314961
        },
        {
          "duration": 0.10496177083333436,
          "durationTicks": 110,
          "midi": 51,
          "name": "D#3",
          "ticks": 33120,
          "time": 31.603035000000002,
          "velocity": 0.8031496062992126
        },
        {
          "duration": 0.1173663437499961,
          "durationTicks": 123,
          "midi": 38,
          "name": "D2",
          "ticks": 33360,
          "time": 31.8320425,
          "velocity": 0.9212598425196851
        },
        {
          "duration": 0.09446559374999808,
          "durationTicks": 99,
          "midi": 51,
          "name": "D#3",
          "ticks": 33360,
          "time": 31.8320425,
          "velocity": 0.6850393700787402
        },
        {
          "duration": 0.09255719791666905,
          "durationTicks": 97,
          "midi": 36,
          "name": "C2",
          "ticks": 33600,
          "time": 32.06105,
          "velocity": 0.8976377952755905
        },
        {
          "duration": 0.09255719791666905,
          "durationTicks": 97,
          "midi": 51,
          "name": "D#3",
          "ticks": 33600,
          "time": 32.06105,
          "velocity": 0.7086614173228346
        },
        {
          "duration": 0.09923658333332952,
          "durationTicks": 104,
          "midi": 36,
          "name": "C2",
          "ticks": 33840,
          "time": 32.2900575,
          "velocity": 0.8740157480314961
        },
        {
          "duration": 0.08301521874999906,
          "durationTicks": 87,
          "midi": 51,
          "name": "D#3",
          "ticks": 33840,
          "time": 32.2900575,
          "velocity": 0.6614173228346457
        },
        {
          "duration": 0.12118313541667192,
          "durationTicks": 127,
          "midi": 38,
          "name": "D2",
          "ticks": 34080,
          "time": 32.519065,
          "velocity": 0.8976377952755905
        },
        {
          "duration": 0.10019078124999936,
          "durationTicks": 105,
          "midi": 51,
          "name": "D#3",
          "ticks": 34080,
          "time": 32.519065,
          "velocity": 0.8267716535433071
        },
        {
          "duration": 0.09828238541666678,
          "durationTicks": 103,
          "midi": 36,
          "name": "C2",
          "ticks": 34320,
          "time": 32.7480725,
          "velocity": 0.8976377952755905
        },
        {
          "duration": 0.08587781250000148,
          "durationTicks": 90,
          "midi": 51,
          "name": "D#3",
          "ticks": 34320,
          "time": 32.7480725,
          "velocity": 0.6456692913385826
        },
        {
          "duration": 0.11736634374999966,
          "durationTicks": 123,
          "midi": 38,
          "name": "D2",
          "ticks": 34560,
          "time": 32.97708,
          "velocity": 0.9212598425196851
        },
        {
          "duration": 0.11259535416666466,
          "durationTicks": 118,
          "midi": 51,
          "name": "D#3",
          "ticks": 34560,
          "time": 32.97708,
          "velocity": 0.8267716535433071
        },
        {
          "duration": 0.09732818750000405,
          "durationTicks": 102,
          "midi": 36,
          "name": "C2",
          "ticks": 34800,
          "time": 33.2060875,
          "velocity": 0.8976377952755905
        },
        {
          "duration": 0.07824422916666407,
          "durationTicks": 82,
          "midi": 51,
          "name": "D#3",
          "ticks": 34800,
          "time": 33.2060875,
          "velocity": 0.6456692913385826
        },
        {
          "duration": 0.09637398958333421,
          "durationTicks": 101,
          "midi": 36,
          "name": "C2",
          "ticks": 35040,
          "time": 33.435095,
          "velocity": 0.8740157480314961
        },
        {
          "duration": 0.10305337500000178,
          "durationTicks": 108,
          "midi": 51,
          "name": "D#3",
          "ticks": 35040,
          "time": 33.435095,
          "velocity": 0.7322834645669292
        },
        {
          "duration": 0.12404572916666723,
          "durationTicks": 130,
          "midi": 38,
          "name": "D2",
          "ticks": 35280,
          "time": 33.6641025,
          "velocity": 0.9448818897637795
        },
        {
          "duration": 0.09828238541666678,
          "durationTicks": 103,
          "midi": 51,
          "name": "D#3",
          "ticks": 35280,
          "time": 33.6641025,
          "velocity": 0.7559055118110236
        },
        {
          "duration": 0.09446559375000163,
          "durationTicks": 99,
          "midi": 36,
          "name": "C2",
          "ticks": 35520,
          "time": 33.89311,
          "velocity": 0.9212598425196851
        },
        {
          "duration": 0.0963739895833271,
          "durationTicks": 101,
          "midi": 51,
          "name": "D#3",
          "ticks": 35520,
          "time": 33.89311,
          "velocity": 0.6850393700787402
        },
        {
          "duration": 0.09923658333332952,
          "durationTicks": 104,
          "midi": 36,
          "name": "C2",
          "ticks": 35760,
          "time": 34.1221175,
          "velocity": 0.8976377952755905
        },
        {
          "duration": 0.07919842708333391,
          "durationTicks": 83,
          "midi": 51,
          "name": "D#3",
          "ticks": 35760,
          "time": 34.1221175,
          "velocity": 0.8031496062992126
        },
        {
          "duration": 0.10973276041666225,
          "durationTicks": 115,
          "midi": 38,
          "name": "D2",
          "ticks": 36000,
          "time": 34.351125,
          "velocity": 0.9448818897637795
        },
        {
          "duration": 0.09255719791666195,
          "durationTicks": 97,
          "midi": 57,
          "name": "A3",
          "ticks": 36000,
          "time": 34.351125,
          "velocity": 0.7322834645669292
        },
        {
          "duration": 0.09160300000000632,
          "durationTicks": 96,
          "midi": 36,
          "name": "C2",
          "ticks": 36240,
          "time": 34.5801325,
          "velocity": 0.9448818897637795
        },
        {
          "duration": 0.1774808125000007,
          "durationTicks": 186,
          "midi": 38,
          "name": "D2",
          "ticks": 36480,
          "time": 34.80914,
          "velocity": 0.8740157480314961
        },
        {
          "duration": 0.1698472291666704,
          "durationTicks": 178,
          "midi": 49,
          "name": "C#3",
          "ticks": 36480,
          "time": 34.80914,
          "velocity": 0.7795275590551181
        }
      ],
      "endOfTrackTicks": 38400
    },
    {
      "channel": 10,
      "controlChanges": {
        "1": [
          {
            "number": 1,
            "ticks": 2757,
            "time": 2.6307236562500003,
            "value": 0
          }
        ],
        "7": [
          {
            "number": 7,
            "ticks": 692,
            "time": 0.6603049583333334,
            "value": 0.5590551181102362
          }
        ],
        "10": [
          {
            "number": 10,
            "ticks": 692,
            "time": 0.6603049583333334,
            "value": 0.8031496062992126
          }
        ],
        "11": [
          {
            "number": 11,
            "ticks": 692,
            "time": 0.6603049583333334,
            "value": 1
          }
        ],
        "91": [
          {
            "number": 91,
            "ticks": 696,
            "time": 0.66412175,
            "value": 0.44881889763779526
          }
        ],
        "93": [
          {
            "number": 93,
            "ticks": 696,
            "time": 0.66412175,
            "value": 0.2125984251968504
          }
        ]
      },
      "pitchBends": [
        {
          "ticks": 2807,
          "time": 2.6784335520833333,
          "value": 0
        }
      ],
      "instrument": {
        "family": "piano",
        "number": 0,
        "name": "acoustic grand piano"
      },
      "name": "CT0897",
      "notes": [
        {
          "duration": 0.1612594479166667,
          "durationTicks": 169,
          "midi": 55,
          "name": "G3",
          "ticks": 21120,
          "time": 20.15266,
          "velocity": 0.8503937007874016
        },
        {
          "duration": 0.4198470833333303,
          "durationTicks": 440,
          "midi": 63,
          "name": "D#4",
          "ticks": 21120,
          "time": 20.15266,
          "velocity": 0.6299212598425197
        },
        {
          "duration": 0.18416019791666471,
          "durationTicks": 193,
          "midi": 67,
          "name": "G4",
          "ticks": 21120,
          "time": 20.15266,
          "velocity": 0.6614173228346457
        },
        {
          "duration": 0.14980907291666767,
          "durationTicks": 157,
          "midi": 55,
          "name": "G3",
          "ticks": 21360,
          "time": 20.3816675,
          "velocity": 0.7559055118110236
        },
        {
          "duration": 0.18702279166666713,
          "durationTicks": 196,
          "midi": 67,
          "name": "G4",
          "ticks": 21360,
          "time": 20.3816675,
          "velocity": 0.5354330708661418
        },
        {
          "duration": 0.3606868124999991,
          "durationTicks": 378,
          "midi": 55,
          "name": "G3",
          "ticks": 21600,
          "time": 20.610675,
          "velocity": 0.7795275590551181
        },
        {
          "duration": 0.400763125000001,
          "durationTicks": 420,
          "midi": 63,
          "name": "D#4",
          "ticks": 21600,
          "time": 20.610675,
          "velocity": 0.6614173228346457
        },
        {
          "duration": 0.40553411458333244,
          "durationTicks": 425,
          "midi": 67,
          "name": "G4",
          "ticks": 21600,
          "time": 20.610675,
          "velocity": 0.6141732283464567
        },
        {
          "duration": 0.14026709375000124,
          "durationTicks": 147,
          "midi": 55,
          "name": "G3",
          "ticks": 22080,
          "time": 21.06869,
          "velocity": 0.8031496062992126
        },
        {
          "duration": 0.19561057291666728,
          "durationTicks": 205,
          "midi": 63,
          "name": "D#4",
          "ticks": 22080,
          "time": 21.06869,
          "velocity": 0.6614173228346457
        },
        {
          "duration": 0.17938920833333327,
          "durationTicks": 188,
          "midi": 67,
          "name": "G4",
          "ticks": 22080,
          "time": 21.06869,
          "velocity": 0.6850393700787402
        },
        {
          "duration": 0.15839685416666427,
          "durationTicks": 166,
          "midi": 55,
          "name": "G3",
          "ticks": 22320,
          "time": 21.2976975,
          "velocity": 0.7559055118110236
        },
        {
          "duration": 0.173664020833332,
          "durationTicks": 182,
          "midi": 63,
          "name": "D#4",
          "ticks": 22320,
          "time": 21.2976975,
          "velocity": 0.6456692913385826
        },
        {
          "duration": 0.15458006249999912,
          "durationTicks": 162,
          "midi": 67,
          "name": "G4",
          "ticks": 22320,
          "time": 21.2976975,
          "velocity": 0.5511811023622047
        },
        {
          "duration": 0.41030510416666743,
          "durationTicks": 430,
          "midi": 55,
          "name": "G3",
          "ticks": 22560,
          "time": 21.526705,
          "velocity": 0.7559055118110236
        },
        {
          "duration": 0.428434864583334,
          "durationTicks": 449,
          "midi": 63,
          "name": "D#4",
          "ticks": 22560,
          "time": 21.526705,
          "velocity": 0.5984251968503937
        },
        {
          "duration": 0.41984708333333387,
          "durationTicks": 440,
          "midi": 67,
          "name": "G4",
          "ticks": 22560,
          "time": 21.526705,
          "velocity": 0.6614173228346457
        },
        {
          "duration": 0.1431296875000001,
          "durationTicks": 150,
          "midi": 53,
          "name": "F3",
          "ticks": 23040,
          "time": 21.98472,
          "velocity": 0.8267716535433071
        },
        {
          "duration": 0.15171746875000025,
          "durationTicks": 159,
          "midi": 61,
          "name": "C#4",
          "ticks": 23040,
          "time": 21.98472,
          "velocity": 0.6299212598425197
        },
        {
          "duration": 0.18320600000000198,
          "durationTicks": 192,
          "midi": 65,
          "name": "F4",
          "ticks": 23040,
          "time": 21.98472,
          "velocity": 0.6299212598425197
        },
        {
          "duration": 0.1431296875000001,
          "durationTicks": 150,
          "midi": 53,
          "name": "F3",
          "ticks": 23280,
          "time": 22.2137275,
          "velocity": 0.8031496062992126
        },
        {
          "duration": 0.14122129166666397,
          "durationTicks": 148,
          "midi": 61,
          "name": "C#4",
          "ticks": 23280,
          "time": 22.2137275,
          "velocity": 0.6850393700787402
        },
        {
          "duration": 0.17843501041666698,
          "durationTicks": 187,
          "midi": 65,
          "name": "F4",
          "ticks": 23280,
          "time": 22.2137275,
          "velocity": 0.6850393700787402
        },
        {
          "duration": 0.14599228125000252,
          "durationTicks": 153,
          "midi": 53,
          "name": "F3",
          "ticks": 23520,
          "time": 22.442735,
          "velocity": 0.7322834645669292
        },
        {
          "duration": 0.15076327083333396,
          "durationTicks": 158,
          "midi": 61,
          "name": "C#4",
          "ticks": 23520,
          "time": 22.442735,
          "velocity": 0.6456692913385826
        },
        {
          "duration": 0.42557227083333515,
          "durationTicks": 446,
          "midi": 65,
          "name": "F4",
          "ticks": 23520,
          "time": 22.442735,
          "velocity": 0.6141732283464567
        },
        {
          "duration": 0.16698463541666797,
          "durationTicks": 175,
          "midi": 53,
          "name": "F3",
          "ticks": 23760,
          "time": 22.6717425,
          "velocity": 0.8031496062992126
        },
        {
          "duration": 0.15458006249999912,
          "durationTicks": 162,
          "midi": 61,
          "name": "C#4",
          "ticks": 23760,
          "time": 22.6717425,
          "velocity": 0.6614173228346457
        },
        {
          "duration": 0.16221364583333298,
          "durationTicks": 170,
          "midi": 53,
          "name": "F3",
          "ticks": 24000,
          "time": 22.90075,
          "velocity": 0.7795275590551181
        },
        {
          "duration": 0.15362586458333638,
          "durationTicks": 161,
          "midi": 61,
          "name": "C#4",
          "ticks": 24000,
          "time": 22.90075,
          "velocity": 0.5826771653543307
        },
        {
          "duration": 0.18797698958333697,
          "durationTicks": 197,
          "midi": 65,
          "name": "F4",
          "ticks": 24000,
          "time": 22.90075,
          "velocity": 0.5826771653543307
        },
        {
          "duration": 0.12977091666666496,
          "durationTicks": 136,
          "midi": 53,
          "name": "F3",
          "ticks": 24240,
          "time": 23.1297575,
          "velocity": 0.7795275590551181
        },
        {
          "duration": 0.13358770833333367,
          "durationTicks": 140,
          "midi": 61,
          "name": "C#4",
          "ticks": 24240,
          "time": 23.1297575,
          "velocity": 0.6850393700787402
        },
        {
          "duration": 0.1774808125000007,
          "durationTicks": 186,
          "midi": 65,
          "name": "F4",
          "ticks": 24240,
          "time": 23.1297575,
          "velocity": 0.6141732283464567
        },
        {
          "duration": 0.14026709374999768,
          "durationTicks": 147,
          "midi": 53,
          "name": "F3",
          "ticks": 24480,
          "time": 23.358765000000002,
          "velocity": 0.7559055118110236
        },
        {
          "duration": 0.14026709374999768,
          "durationTicks": 147,
          "midi": 61,
          "name": "C#4",
          "ticks": 24480,
          "time": 23.358765000000002,
          "velocity": 0.5511811023622047
        },
        {
          "duration": 0.41793868749999774,
          "durationTicks": 438,
          "midi": 65,
          "name": "F4",
          "ticks": 24480,
          "time": 23.358765000000002,
          "velocity": 0.6456692913385826
        },
        {
          "duration": 0.17461821875000183,
          "durationTicks": 183,
          "midi": 53,
          "name": "F3",
          "ticks": 24720,
          "time": 23.5877725,
          "velocity": 0.5984251968503937
        },
        {
          "duration": 0.14694647916666526,
          "durationTicks": 154,
          "midi": 61,
          "name": "C#4",
          "ticks": 24720,
          "time": 23.5877725,
          "velocity": 0.6141732283464567
        },
        {
          "duration": 0.14026709374999768,
          "durationTicks": 147,
          "midi": 49,
          "name": "C#3",
          "ticks": 24960,
          "time": 23.81678,
          "velocity": 0.7322834645669292
        },
        {
          "duration": 0.14599228124999897,
          "durationTicks": 153,
          "midi": 61,
          "name": "C#4",
          "ticks": 24960,
          "time": 23.81678,
          "velocity": 0.6850393700787402
        },
        {
          "duration": 0.18416019791666471,
          "durationTicks": 193,
          "midi": 65,
          "name": "F4",
          "ticks": 24960,
          "time": 23.81678,
          "velocity": 0.6614173228346457
        },
        {
          "duration": 0.12786252083333594,
          "durationTicks": 134,
          "midi": 49,
          "name": "C#3",
          "ticks": 25200,
          "time": 24.0457875,
          "velocity": 0.8031496062992126
        },
        {
          "duration": 0.13740449999999882,
          "durationTicks": 144,
          "midi": 61,
          "name": "C#4",
          "ticks": 25200,
          "time": 24.0457875,
          "velocity": 0.6141732283464567
        },
        {
          "duration": 0.1612594479166667,
          "durationTicks": 169,
          "midi": 65,
          "name": "F4",
          "ticks": 25200,
          "time": 24.0457875,
          "velocity": 0.7086614173228346
        },
        {
          "duration": 0.3559158229166641,
          "durationTicks": 373,
          "midi": 49,
          "name": "C#3",
          "ticks": 25440,
          "time": 24.274795,
          "velocity": 0.8031496062992126
        },
        {
          "duration": 0.3788165729166657,
          "durationTicks": 397,
          "midi": 61,
          "name": "C#4",
          "ticks": 25440,
          "time": 24.274795,
          "velocity": 0.6850393700787402
        },
        {
          "duration": 0.407442510416665,
          "durationTicks": 427,
          "midi": 65,
          "name": "F4",
          "ticks": 25440,
          "time": 24.274795,
          "velocity": 0.7322834645669292
        },
        {
          "duration": 0.12309153124999739,
          "durationTicks": 129,
          "midi": 49,
          "name": "C#3",
          "ticks": 25920,
          "time": 24.73281,
          "velocity": 0.7795275590551181
        },
        {
          "duration": 0.13263351041666738,
          "durationTicks": 139,
          "midi": 61,
          "name": "C#4",
          "ticks": 25920,
          "time": 24.73281,
          "velocity": 0.6614173228346457
        },
        {
          "duration": 0.16316784374999926,
          "durationTicks": 171,
          "midi": 65,
          "name": "F4",
          "ticks": 25920,
          "time": 24.73281,
          "velocity": 0.7322834645669292
        },
        {
          "duration": 0.13645030208333608,
          "durationTicks": 143,
          "midi": 49,
          "name": "C#3",
          "ticks": 26160,
          "time": 24.9618175,
          "velocity": 0.7086614173228346
        },
        {
          "duration": 0.1307251145833348,
          "durationTicks": 137,
          "midi": 61,
          "name": "C#4",
          "ticks": 26160,
          "time": 24.9618175,
          "velocity": 0.6850393700787402
        },
        {
          "duration": 0.16221364583333298,
          "durationTicks": 170,
          "midi": 65,
          "name": "F4",
          "ticks": 26160,
          "time": 24.9618175,
          "velocity": 0.6614173228346457
        },
        {
          "duration": 0.12022893750000208,
          "durationTicks": 126,
          "midi": 49,
          "name": "C#3",
          "ticks": 26400,
          "time": 25.190825,
          "velocity": 0.7795275590551181
        },
        {
          "duration": 0.1555342604166654,
          "durationTicks": 163,
          "midi": 61,
          "name": "C#4",
          "ticks": 26400,
          "time": 25.190825,
          "velocity": 0.6850393700787402
        },
        {
          "duration": 0.42461807291666886,
          "durationTicks": 445,
          "midi": 65,
          "name": "F4",
          "ticks": 26400,
          "time": 25.190825,
          "velocity": 0.7086614173228346
        },
        {
          "duration": 0.24045787499999705,
          "durationTicks": 252,
          "midi": 49,
          "name": "C#3",
          "ticks": 26640,
          "time": 25.419832500000002,
          "velocity": 0.6141732283464567
        },
        {
          "duration": 0.1774808125000007,
          "durationTicks": 186,
          "midi": 61,
          "name": "C#4",
          "ticks": 26640,
          "time": 25.419832500000002,
          "velocity": 0.5669291338582677
        },
        {
          "duration": 0.1345419062500035,
          "durationTicks": 141,
          "midi": 48,
          "name": "C3",
          "ticks": 26880,
          "time": 25.64884,
          "velocity": 0.7322834645669292
        },
        {
          "duration": 0.16316784375000282,
          "durationTicks": 171,
          "midi": 60,
          "name": "C4",
          "ticks": 26880,
          "time": 25.64884,
          "velocity": 0.6456692913385826
        },
        {
          "duration": 0.17461821875000183,
          "durationTicks": 183,
          "midi": 65,
          "name": "F4",
          "ticks": 26880,
          "time": 25.64884,
          "velocity": 0.5511811023622047
        },
        {
          "duration": 0.1383586979166651,
          "durationTicks": 145,
          "midi": 48,
          "name": "C3",
          "ticks": 27120,
          "time": 25.8778475,
          "velocity": 0.6614173228346457
        },
        {
          "duration": 0.13454190624999995,
          "durationTicks": 141,
          "midi": 60,
          "name": "C4",
          "ticks": 27120,
          "time": 25.8778475,
          "velocity": 0.5984251968503937
        },
        {
          "duration": 0.15458006249999912,
          "durationTicks": 162,
          "midi": 65,
          "name": "F4",
          "ticks": 27120,
          "time": 25.8778475,
          "velocity": 0.6141732283464567
        },
        {
          "duration": 0.16603043749999813,
          "durationTicks": 174,
          "midi": 48,
          "name": "C3",
          "ticks": 27360,
          "time": 26.106855,
          "velocity": 0.6850393700787402
        },
        {
          "duration": 0.1641220416666691,
          "durationTicks": 172,
          "midi": 60,
          "name": "C4",
          "ticks": 27360,
          "time": 26.106855,
          "velocity": 0.6456692913385826
        },
        {
          "duration": 0.19561057291666728,
          "durationTicks": 205,
          "midi": 65,
          "name": "F4",
          "ticks": 27360,
          "time": 26.106855,
          "velocity": 0.6850393700787402
        },
        {
          "duration": 0.15839685416666427,
          "durationTicks": 166,
          "midi": 56,
          "name": "G#3",
          "ticks": 27600,
          "time": 26.3358625,
          "velocity": 0.8267716535433071
        },
        {
          "duration": 0.1603052500000004,
          "durationTicks": 168,
          "midi": 60,
          "name": "C4",
          "ticks": 27600,
          "time": 26.3358625,
          "velocity": 0.6850393700787402
        },
        {
          "duration": 0.17080142708333312,
          "durationTicks": 179,
          "midi": 65,
          "name": "F4",
          "ticks": 27600,
          "time": 26.3358625,
          "velocity": 0.6850393700787402
        },
        {
          "duration": 0.12213733333333465,
          "durationTicks": 128,
          "midi": 56,
          "name": "G#3",
          "ticks": 27840,
          "time": 26.56487,
          "velocity": 0.7795275590551181
        },
        {
          "duration": 0.15744265625000153,
          "durationTicks": 165,
          "midi": 60,
          "name": "C4",
          "ticks": 27840,
          "time": 26.56487,
          "velocity": 0.6850393700787402
        },
        {
          "duration": 0.18797698958333697,
          "durationTicks": 197,
          "midi": 65,
          "name": "F4",
          "ticks": 27840,
          "time": 26.56487,
          "velocity": 0.6614173228346457
        },
        {
          "duration": 0.11641214583333337,
          "durationTicks": 122,
          "midi": 56,
          "name": "G#3",
          "ticks": 28080,
          "time": 26.7938775,
          "velocity": 0.7559055118110236
        },
        {
          "duration": 0.13454190624999995,
          "durationTicks": 141,
          "midi": 60,
          "name": "C4",
          "ticks": 28080,
          "time": 26.7938775,
          "velocity": 0.6614173228346457
        },
        {
          "duration": 0.1593510520833341,
          "durationTicks": 167,
          "midi": 65,
          "name": "F4",
          "ticks": 28080,
          "time": 26.7938775,
          "velocity": 0.7086614173228346
        },
        {
          "duration": 0.20228995833333485,
          "durationTicks": 212,
          "midi": 56,
          "name": "G#3",
          "ticks": 28320,
          "time": 27.022885,
          "velocity": 0.6850393700787402
        },
        {
          "duration": 0.16603043750000168,
          "durationTicks": 174,
          "midi": 60,
          "name": "C4",
          "ticks": 28320,
          "time": 27.022885,
          "velocity": 0.6850393700787402
        },
        {
          "duration": 0.18606859375000084,
          "durationTicks": 195,
          "midi": 65,
          "name": "F4",
          "ticks": 28320,
          "time": 27.022885,
          "velocity": 0.6850393700787402
        },
        {
          "duration": 0.13454190624999995,
          "durationTicks": 141,
          "midi": 55,
          "name": "G3",
          "ticks": 28560,
          "time": 27.2518925,
          "velocity": 0.6850393700787402
        },
        {
          "duration": 0.12499992708333352,
          "durationTicks": 131,
          "midi": 60,
          "name": "C4",
          "ticks": 28560,
          "time": 27.2518925,
          "velocity": 0.6614173228346457
        },
        {
          "duration": 0.15648845833333525,
          "durationTicks": 164,
          "midi": 65,
          "name": "F4",
          "ticks": 28560,
          "time": 27.2518925,
          "velocity": 0.7086614173228346
        },
        {
          "duration": 0.14980907291666767,
          "durationTicks": 157,
          "midi": 55,
          "name": "G3",
          "ticks": 29040,
          "time": 27.7099075,
          "velocity": 0.7559055118110236
        },
        {
          "duration": 0.18702279166666713,
          "durationTicks": 196,
          "midi": 67,
          "name": "G4",
          "ticks": 29040,
          "time": 27.7099075,
          "velocity": 0.5354330708661418
        },
        {
          "duration": 0.3606868124999991,
          "durationTicks": 378,
          "midi": 55,
          "name": "G3",
          "ticks": 29280,
          "time": 27.938915,
          "velocity": 0.7795275590551181
        },
        {
          "duration": 0.40076312499999744,
          "durationTicks": 420,
          "midi": 63,
          "name": "D#4",
          "ticks": 29280,
          "time": 27.938915,
          "velocity": 0.6614173228346457
        },
        {
          "duration": 0.40553411458333244,
          "durationTicks": 425,
          "midi": 67,
          "name": "G4",
          "ticks": 29280,
          "time": 27.938915,
          "velocity": 0.6141732283464567
        },
        {
          "duration": 0.14026709374999768,
          "durationTicks": 147,
          "midi": 55,
          "name": "G3",
          "ticks": 29760,
          "time": 28.39693,
          "velocity": 0.8031496062992126
        },
        {
          "duration": 0.19561057291666728,
          "durationTicks": 205,
          "midi": 63,
          "name": "D#4",
          "ticks": 29760,
          "time": 28.39693,
          "velocity": 0.6614173228346457
        },
        {
          "duration": 0.17938920833333327,
          "durationTicks": 188,
          "midi": 67,
          "name": "G4",
          "ticks": 29760,
          "time": 28.39693,
          "velocity": 0.6850393700787402
        },
        {
          "duration": 0.15839685416666782,
          "durationTicks": 166,
          "midi": 55,
          "name": "G3",
          "ticks": 30000,
          "time": 28.6259375,
          "velocity": 0.7559055118110236
        },
        {
          "duration": 0.17366402083333554,
          "durationTicks": 182,
          "midi": 63,
          "name": "D#4",
          "ticks": 30000,
          "time": 28.6259375,
          "velocity": 0.6456692913385826
        },
        {
          "duration": 0.15458006249999912,
          "durationTicks": 162,
          "midi": 67,
          "name": "G4",
          "ticks": 30000,
          "time": 28.6259375,
          "velocity": 0.5511811023622047
        },
        {
          "duration": 0.41030510416666743,
          "durationTicks": 430,
          "midi": 55,
          "name": "G3",
          "ticks": 30240,
          "time": 28.854945,
          "velocity": 0.7559055118110236
        },
        {
          "duration": 0.428434864583334,
          "durationTicks": 449,
          "midi": 63,
          "name": "D#4",
          "ticks": 30240,
          "time": 28.854945,
          "velocity": 0.5984251968503937
        },
        {
          "duration": 0.4198470833333303,
          "durationTicks": 440,
          "midi": 67,
          "name": "G4",
          "ticks": 30240,
          "time": 28.854945,
          "velocity": 0.6614173228346457
        },
        {
          "duration": 0.1431296875000001,
          "durationTicks": 150,
          "midi": 53,
          "name": "F3",
          "ticks": 30720,
          "time": 29.31296,
          "velocity": 0.8267716535433071
        },
        {
          "duration": 0.15171746875000025,
          "durationTicks": 159,
          "midi": 61,
          "name": "C#4",
          "ticks": 30720,
          "time": 29.31296,
          "velocity": 0.6299212598425197
        },
        {
          "duration": 0.18320600000000198,
          "durationTicks": 192,
          "midi": 65,
          "name": "F4",
          "ticks": 30720,
          "time": 29.31296,
          "velocity": 0.6299212598425197
        },
        {
          "duration": 0.1431296875000001,
          "durationTicks": 150,
          "midi": 53,
          "name": "F3",
          "ticks": 30960,
          "time": 29.541967500000002,
          "velocity": 0.8031496062992126
        },
        {
          "duration": 0.14122129166666753,
          "durationTicks": 148,
          "midi": 61,
          "name": "C#4",
          "ticks": 30960,
          "time": 29.541967500000002,
          "velocity": 0.6850393700787402
        },
        {
          "duration": 0.17843501041666698,
          "durationTicks": 187,
          "midi": 65,
          "name": "F4",
          "ticks": 30960,
          "time": 29.541967500000002,
          "velocity": 0.6850393700787402
        },
        {
          "duration": 0.14599228124999897,
          "durationTicks": 153,
          "midi": 53,
          "name": "F3",
          "ticks": 31200,
          "time": 29.770975,
          "velocity": 0.7322834645669292
        },
        {
          "duration": 0.15076327083333396,
          "durationTicks": 158,
          "midi": 61,
          "name": "C#4",
          "ticks": 31200,
          "time": 29.770975,
          "velocity": 0.6456692913385826
        },
        {
          "duration": 0.4255722708333316,
          "durationTicks": 446,
          "midi": 65,
          "name": "F4",
          "ticks": 31200,
          "time": 29.770975,
          "velocity": 0.6141732283464567
        },
        {
          "duration": 0.16698463541666442,
          "durationTicks": 175,
          "midi": 53,
          "name": "F3",
          "ticks": 31440,
          "time": 29.9999825,
          "velocity": 0.8031496062992126
        },
        {
          "duration": 0.15458006250000267,
          "durationTicks": 162,
          "midi": 61,
          "name": "C#4",
          "ticks": 31440,
          "time": 29.9999825,
          "velocity": 0.6614173228346457
        },
        {
          "duration": 0.16221364583333653,
          "durationTicks": 170,
          "midi": 53,
          "name": "F3",
          "ticks": 31680,
          "time": 30.22899,
          "velocity": 0.7795275590551181
        },
        {
          "duration": 0.15362586458333283,
          "durationTicks": 161,
          "midi": 61,
          "name": "C#4",
          "ticks": 31680,
          "time": 30.22899,
          "velocity": 0.5826771653543307
        },
        {
          "duration": 0.18797698958333342,
          "durationTicks": 197,
          "midi": 65,
          "name": "F4",
          "ticks": 31680,
          "time": 30.22899,
          "velocity": 0.5826771653543307
        },
        {
          "duration": 0.12977091666666496,
          "durationTicks": 136,
          "midi": 53,
          "name": "F3",
          "ticks": 31920,
          "time": 30.4579975,
          "velocity": 0.7795275590551181
        },
        {
          "duration": 0.13358770833333367,
          "durationTicks": 140,
          "midi": 61,
          "name": "C#4",
          "ticks": 31920,
          "time": 30.4579975,
          "velocity": 0.6850393700787402
        },
        {
          "duration": 0.1774808125000007,
          "durationTicks": 186,
          "midi": 65,
          "name": "F4",
          "ticks": 31920,
          "time": 30.4579975,
          "velocity": 0.6141732283464567
        },
        {
          "duration": 0.1402670937500048,
          "durationTicks": 147,
          "midi": 53,
          "name": "F3",
          "ticks": 32160,
          "time": 30.687005,
          "velocity": 0.7559055118110236
        },
        {
          "duration": 0.1402670937500048,
          "durationTicks": 147,
          "midi": 61,
          "name": "C#4",
          "ticks": 32160,
          "time": 30.687005,
          "velocity": 0.5511811023622047
        },
        {
          "duration": 0.41793868749999774,
          "durationTicks": 438,
          "midi": 65,
          "name": "F4",
          "ticks": 32160,
          "time": 30.687005,
          "velocity": 0.6456692913385826
        },
        {
          "duration": 0.17461821874999828,
          "durationTicks": 183,
          "midi": 53,
          "name": "F3",
          "ticks": 32400,
          "time": 30.9160125,
          "velocity": 0.5984251968503937
        },
        {
          "duration": 0.1469464791666688,
          "durationTicks": 154,
          "midi": 61,
          "name": "C#4",
          "ticks": 32400,
          "time": 30.9160125,
          "velocity": 0.6141732283464567
        },
        {
          "duration": 0.1402670937500048,
          "durationTicks": 147,
          "midi": 49,
          "name": "C#3",
          "ticks": 32640,
          "time": 31.14502,
          "velocity": 0.7322834645669292
        },
        {
          "duration": 0.14599228124999897,
          "durationTicks": 153,
          "midi": 61,
          "name": "C#4",
          "ticks": 32640,
          "time": 31.14502,
          "velocity": 0.6850393700787402
        },
        {
          "duration": 0.18416019791666827,
          "durationTicks": 193,
          "midi": 65,
          "name": "F4",
          "ticks": 32640,
          "time": 31.14502,
          "velocity": 0.6614173228346457
        },
        {
          "duration": 0.12786252083333594,
          "durationTicks": 134,
          "midi": 49,
          "name": "C#3",
          "ticks": 32880,
          "time": 31.3740275,
          "velocity": 0.8031496062992126
        },
        {
          "duration": 0.13740449999999882,
          "durationTicks": 144,
          "midi": 61,
          "name": "C#4",
          "ticks": 32880,
          "time": 31.3740275,
          "velocity": 0.6141732283464567
        },
        {
          "duration": 0.16125944791667024,
          "durationTicks": 169,
          "midi": 65,
          "name": "F4",
          "ticks": 32880,
          "time": 31.3740275,
          "velocity": 0.7086614173228346
        },
        {
          "duration": 0.3559158229166677,
          "durationTicks": 373,
          "midi": 49,
          "name": "C#3",
          "ticks": 33120,
          "time": 31.603035000000002,
          "velocity": 0.8031496062992126
        },
        {
          "duration": 0.3788165729166657,
          "durationTicks": 397,
          "midi": 61,
          "name": "C#4",
          "ticks": 33120,
          "time": 31.603035000000002,
          "velocity": 0.6850393700787402
        },
        {
          "duration": 0.40744251041666857,
          "durationTicks": 427,
          "midi": 65,
          "name": "F4",
          "ticks": 33120,
          "time": 31.603035000000002,
          "velocity": 0.7322834645669292
        },
        {
          "duration": 0.12309153124999739,
          "durationTicks": 129,
          "midi": 49,
          "name": "C#3",
          "ticks": 33600,
          "time": 32.06105,
          "velocity": 0.7795275590551181
        },
        {
          "duration": 0.13263351041666738,
          "durationTicks": 139,
          "midi": 61,
          "name": "C#4",
          "ticks": 33600,
          "time": 32.06105,
          "velocity": 0.6614173228346457
        },
        {
          "duration": 0.16316784375000282,
          "durationTicks": 171,
          "midi": 65,
          "name": "F4",
          "ticks": 33600,
          "time": 32.06105,
          "velocity": 0.7322834645669292
        },
        {
          "duration": 0.13645030208333253,
          "durationTicks": 143,
          "midi": 49,
          "name": "C#3",
          "ticks": 33840,
          "time": 32.2900575,
          "velocity": 0.7086614173228346
        },
        {
          "duration": 0.1307251145833277,
          "durationTicks": 137,
          "midi": 61,
          "name": "C#4",
          "ticks": 33840,
          "time": 32.2900575,
          "velocity": 0.6850393700787402
        },
        {
          "duration": 0.16221364583333298,
          "durationTicks": 170,
          "midi": 65,
          "name": "F4",
          "ticks": 33840,
          "time": 32.2900575,
          "velocity": 0.6614173228346457
        },
        {
          "duration": 0.12022893750000208,
          "durationTicks": 126,
          "midi": 49,
          "name": "C#3",
          "ticks": 34080,
          "time": 32.519065,
          "velocity": 0.7795275590551181
        },
        {
          "duration": 0.1555342604166725,
          "durationTicks": 163,
          "midi": 61,
          "name": "C#4",
          "ticks": 34080,
          "time": 32.519065,
          "velocity": 0.6850393700787402
        },
        {
          "duration": 0.4246180729166653,
          "durationTicks": 445,
          "midi": 65,
          "name": "F4",
          "ticks": 34080,
          "time": 32.519065,
          "velocity": 0.7086614173228346
        },
        {
          "duration": 0.24045787500000415,
          "durationTicks": 252,
          "midi": 49,
          "name": "C#3",
          "ticks": 34320,
          "time": 32.7480725,
          "velocity": 0.6141732283464567
        },
        {
          "duration": 0.1774808125000007,
          "durationTicks": 186,
          "midi": 61,
          "name": "C#4",
          "ticks": 34320,
          "time": 32.7480725,
          "velocity": 0.5669291338582677
        },
        {
          "duration": 0.13454190624999995,
          "durationTicks": 141,
          "midi": 48,
          "name": "C3",
          "ticks": 34560,
          "time": 32.97708,
          "velocity": 0.7322834645669292
        },
        {
          "duration": 0.16316784375000282,
          "durationTicks": 171,
          "midi": 60,
          "name": "C4",
          "ticks": 34560,
          "time": 32.97708,
          "velocity": 0.6456692913385826
        },
        {
          "duration": 0.17461821874999828,
          "durationTicks": 183,
          "midi": 65,
          "name": "F4",
          "ticks": 34560,
          "time": 32.97708,
          "velocity": 0.5511811023622047
        },
        {
          "duration": 0.1383586979166651,
          "durationTicks": 145,
          "midi": 48,
          "name": "C3",
          "ticks": 34800,
          "time": 33.2060875,
          "velocity": 0.6614173228346457
        },
        {
          "duration": 0.13454190624999995,
          "durationTicks": 141,
          "midi": 60,
          "name": "C4",
          "ticks": 34800,
          "time": 33.2060875,
          "velocity": 0.5984251968503937
        },
        {
          "duration": 0.15458006250000267,
          "durationTicks": 162,
          "midi": 65,
          "name": "F4",
          "ticks": 34800,
          "time": 33.2060875,
          "velocity": 0.6141732283464567
        },
        {
          "duration": 0.16603043750000523,
          "durationTicks": 174,
          "midi": 48,
          "name": "C3",
          "ticks": 35040,
          "time": 33.435095,
          "velocity": 0.6850393700787402
        },
        {
          "duration": 0.16412204166667266,
          "durationTicks": 172,
          "midi": 60,
          "name": "C4",
          "ticks": 35040,
          "time": 33.435095,
          "velocity": 0.6456692913385826
        },
        {
          "duration": 0.19561057291667083,
          "durationTicks": 205,
          "midi": 65,
          "name": "F4",
          "ticks": 35040,
          "time": 33.435095,
          "velocity": 0.6850393700787402
        },
        {
          "duration": 0.15839685416666782,
          "durationTicks": 166,
          "midi": 56,
          "name": "G#3",
          "ticks": 35280,
          "time": 33.6641025,
          "velocity": 0.8267716535433071
        },
        {
          "duration": 0.1603052500000004,
          "durationTicks": 168,
          "midi": 60,
          "name": "C4",
          "ticks": 35280,
          "time": 33.6641025,
          "velocity": 0.6850393700787402
        },
        {
          "duration": 0.17080142708333312,
          "durationTicks": 179,
          "midi": 65,
          "name": "F4",
          "ticks": 35280,
          "time": 33.6641025,
          "velocity": 0.6850393700787402
        },
        {
          "duration": 0.12213733333333465,
          "durationTicks": 128,
          "midi": 56,
          "name": "G#3",
          "ticks": 35520,
          "time": 33.89311,
          "velocity": 0.7795275590551181
        },
        {
          "duration": 0.15744265624999798,
          "durationTicks": 165,
          "midi": 60,
          "name": "C4",
          "ticks": 35520,
          "time": 33.89311,
          "velocity": 0.6850393700787402
        },
        {
          "duration": 0.18797698958333342,
          "durationTicks": 197,
          "midi": 65,
          "name": "F4",
          "ticks": 35520,
          "time": 33.89311,
          "velocity": 0.6614173228346457
        },
        {
          "duration": 0.11641214583332982,
          "durationTicks": 122,
          "midi": 56,
          "name": "G#3",
          "ticks": 35760,
          "time": 34.1221175,
          "velocity": 0.7559055118110236
        },
        {
          "duration": 0.13454190624999995,
          "durationTicks": 141,
          "midi": 60,
          "name": "C4",
          "ticks": 35760,
          "time": 34.1221175,
          "velocity": 0.6614173228346457
        },
        {
          "duration": 0.15935105208333056,
          "durationTicks": 167,
          "midi": 65,
          "name": "F4",
          "ticks": 35760,
          "time": 34.1221175,
          "velocity": 0.7086614173228346
        },
        {
          "duration": 0.2022899583333313,
          "durationTicks": 212,
          "midi": 56,
          "name": "G#3",
          "ticks": 36000,
          "time": 34.351125,
          "velocity": 0.6850393700787402
        },
        {
          "duration": 0.16603043749999813,
          "durationTicks": 174,
          "midi": 60,
          "name": "C4",
          "ticks": 36000,
          "time": 34.351125,
          "velocity": 0.6850393700787402
        },
        {
          "duration": 0.18606859374999374,
          "durationTicks": 195,
          "midi": 65,
          "name": "F4",
          "ticks": 36000,
          "time": 34.351125,
          "velocity": 0.6850393700787402
        },
        {
          "duration": 0.13454190625000706,
          "durationTicks": 141,
          "midi": 55,
          "name": "G3",
          "ticks": 36240,
          "time": 34.5801325,
          "velocity": 0.6850393700787402
        },
        {
          "duration": 0.12499992708332996,
          "durationTicks": 131,
          "midi": 60,
          "name": "C4",
          "ticks": 36240,
          "time": 34.5801325,
          "velocity": 0.6614173228346457
        },
        {
          "duration": 0.15648845833333525,
          "durationTicks": 164,
          "midi": 65,
          "name": "F4",
          "ticks": 36240,
          "time": 34.5801325,
          "velocity": 0.7086614173228346
        }
      ],
      "endOfTrackTicks": 38400
    },
    {
      "channel": 0,
      "controlChanges": {},
      "pitchBends": [],
      "instrument": {
        "family": "piano",
        "number": 0,
        "name": "acoustic grand piano"
      },
      "name": "CT0897",
      "notes": [],
      "endOfTrackTicks": 38400
    },
    {
      "channel": 0,
      "controlChanges": {
        "1": [
          {
            "number": 1,
            "ticks": 2757,
            "time": 2.6307236562500003,
            "value": 0
          }
        ],
        "7": [
          {
            "number": 7,
            "ticks": 712,
            "time": 0.6793889166666667,
            "value": 0.8818897637795275
          }
        ],
        "10": [
          {
            "number": 10,
            "ticks": 712,
            "time": 0.6793889166666667,
            "value": 0.8818897637795275
          }
        ],
        "11": [
          {
            "number": 11,
            "ticks": 712,
            "time": 0.6793889166666667,
            "value": 1
          }
        ],
        "91": [
          {
            "number": 91,
            "ticks": 716,
            "time": 0.6832057083333334,
            "value": 0.44881889763779526
          }
        ],
        "93": [
          {
            "number": 93,
            "ticks": 716,
            "time": 0.6832057083333334,
            "value": 0.33858267716535434
          }
        ]
      },
      "pitchBends": [
        {
          "ticks": 2807,
          "time": 2.6784335520833333,
          "value": 0
        }
      ],
      "instrument": {
        "family": "guitar",
        "number": 30,
        "name": "distortion guitar"
      },
      "name": "",
      "notes": []
    },
    {
      "channel": 0,
      "controlChanges": {},
      "pitchBends": [],
      "instrument": {
        "family": "piano",
        "number": 0,
        "name": "acoustic grand piano"
      },
      "name": "CT0897",
      "notes": [],
      "endOfTrackTicks": 38400
    },
    {
      "channel": 0,
      "controlChanges": {
        "1": [
          {
            "number": 1,
            "ticks": 2762,
            "time": 2.635494645833333,
            "value": 0
          }
        ],
        "7": [
          {
            "number": 7,
            "ticks": 732,
            "time": 0.698472875,
            "value": 0.7480314960629921
          }
        ],
        "10": [
          {
            "number": 10,
            "ticks": 732,
            "time": 0.698472875,
            "value": 0.968503937007874
          }
        ],
        "11": [
          {
            "number": 11,
            "ticks": 732,
            "time": 0.698472875,
            "value": 1
          }
        ],
        "91": [
          {
            "number": 91,
            "ticks": 736,
            "time": 0.7022896666666667,
            "value": 0.8267716535433071
          }
        ],
        "93": [
          {
            "number": 93,
            "ticks": 736,
            "time": 0.7022896666666667,
            "value": 0.2283464566929134
          }
        ]
      },
      "pitchBends": [
        {
          "ticks": 2812,
          "time": 2.6832045416666666,
          "value": 0
        }
      ],
      "instrument": {
        "family": "guitar",
        "number": 27,
        "name": "electric guitar (clean)"
      },
      "name": "",
      "notes": []
    },
    {
      "channel": 0,
      "controlChanges": {
        "7": [
          {
            "number": 7,
            "ticks": 792,
            "time": 0.75572475,
            "value": 0.7795275590551181
          }
        ],
        "10": [
          {
            "number": 10,
            "ticks": 792,
            "time": 0.75572475,
            "value": 0.49606299212598426
          }
        ],
        "11": [
          {
            "number": 11,
            "ticks": 792,
            "time": 0.75572475,
            "value": 1
          }
        ],
        "91": [
          {
            "number": 91,
            "ticks": 796,
            "time": 0.7595415416666668,
            "value": 0
          }
        ],
        "93": [
          {
            "number": 93,
            "ticks": 796,
            "time": 0.7595415416666668,
            "value": 0
          }
        ]
      },
      "pitchBends": [
        {
          "ticks": 2527,
          "time": 2.411258135416667,
          "value": 0
        }
      ],
      "instrument": {
        "family": "piano",
        "number": 0,
        "name": "acoustic grand piano"
      },
      "name": "CT0897",
      "notes": [],
      "endOfTrackTicks": 38400
    }
  ]
}