{
  "header": {
    "keySignatures": [
      {
        "key": "C",
        "scale": "major",
        "ticks": 0
      }
    ],
    "meta": [
      {
        "text": "Setup",
        "ticks": 0,
        "type": "marker"
      }
    ],
    "name": "",
    "ppq": 48,
    "tempos": [
      {
        "bpm": 123.00022140039852,
        "ticks": 0
      },
      {
        "bpm": 136.0001450668214,
        "ticks": 0
      },
      {
        "bpm": 136.0001450668214,
        "ticks": 191
      },
      {
        "bpm": 131.00007641671124,
        "ticks": 23340
      },
      {
        "bpm": 127.00025400050801,
        "ticks": 23400
      },
      {
        "bpm": 123.00022140039852,
        "ticks": 23424
      },
      {
        "bpm": 116.00008506672904,
        "ticks": 23448
      },
      {
        "bpm": 136.0001450668214,
        "ticks": 23472
      }
    ],
    "timeSignatures": [
      {
        "ticks": 0,
        "timeSignature": [
          4,
          4
        ],
        "measures": 0
      }
    ]
  },
  "tracks": [
    {
      "channel": 0,
      "controlChanges": {
        "0": [
          {
            "number": 0,
            "ticks": 133,
            "time": 1.2224251666666668,
            "value": 0
          }
        ],
        "32": [
          {
            "number": 32,
            "ticks": 137,
            "time": 1.2591898333333333,
            "value": 0.015748031496062992
          }
        ]
      },
      "pitchBends": [],
      "instrument": {
        "family": "piano",
        "number": 0,
        "name": "acoustic grand piano"
      },
      "name": "Drums",
      "notes": [],
      "endOfTrackTicks": 21936
    },
    {
      "channel": 9,
      "controlChanges": {
        "6": [
          {
            "number": 6,
            "ticks": 153,
            "time": 1.4062485,
            "value": 0.09448818897637795
          },
          {
            "number": 6,
            "ticks": 156,
            "time": 1.4338220000000002,
            "value": 0.49606299212598426
          },
          {
            "number": 6,
            "ticks": 159,
            "time": 1.4613955,
            "value": 0.09448818897637795
          },
          {
            "number": 6,
            "ticks": 161,
            "time": 1.4797778333333333,
            "value": 1
          },
          {
            "number": 6,
            "ticks": 163,
            "time": 1.4981601666666668,
            "value": 0.7007874015748031
          },
          {
            "number": 6,
            "ticks": 165,
            "time": 1.5165425000000001,
            "value": 0.7007874015748031
          },
          {
            "number": 6,
            "ticks": 168,
            "time": 1.544116,
            "value": 0.11023622047244094
          },
          {
            "number": 6,
            "ticks": 170,
            "time": 1.5624983333333333,
            "value": 0.5039370078740157
          },
          {
            "number": 6,
            "ticks": 172,
            "time": 1.5808806666666668,
            "value": 0.5039370078740157
          },
          {
            "number": 6,
            "ticks": 174,
            "time": 1.599263,
            "value": 0.5039370078740157
          },
          {
            "number": 6,
            "ticks": 176,
            "time": 1.6176453333333334,
            "value": 0.4409448818897638
          },
          {
            "number": 6,
            "ticks": 178,
            "time": 1.6360276666666669,
            "value": 0.5433070866141733
          },
          {
            "number": 6,
            "ticks": 180,
            "time": 1.65441,
            "value": 0.84251968503937
          },
          {
            "number": 6,
            "ticks": 182,
            "time": 1.6727923333333332,
            "value": 0.5748031496062992
          },
          {
            "number": 6,
            "ticks": 184,
            "time": 1.6911746666666667,
            "value": 0.3858267716535433
          },
          {
            "number": 6,
            "ticks": 186,
            "time": 1.709557,
            "value": 0.1889763779527559
          }
        ],
        "7": [
          {
            "number": 7,
            "ticks": 145,
            "time": 1.3327191666666667,
            "value": 0.8818897637795275
          }
        ],
        "10": [
          {
            "number": 10,
            "ticks": 146,
            "time": 1.3419103333333333,
            "value": 0.5039370078740157
          }
        ],
        "11": [
          {
            "number": 11,
            "ticks": 147,
            "time": 1.3511015,
            "value": 1
          }
        ],
        "91": [
          {
            "number": 91,
            "ticks": 148,
            "time": 1.3602926666666668,
            "value": 0.4409448818897638
          }
        ],
        "93": [
          {
            "number": 93,
            "ticks": 149,
            "time": 1.3694838333333332,
            "value": 0
          }
        ],
        "94": [
          {
            "number": 94,
            "ticks": 150,
            "time": 1.378675,
            "value": 0
          }
        ],
        "98": [
          {
            "number": 98,
            "ticks": 155,
            "time": 1.4246308333333333,
            "value": 0.31496062992125984
          },
          {
            "number": 98,
            "ticks": 158,
            "time": 1.4522043333333332,
            "value": 0.28346456692913385
          },
          {
            "number": 98,
            "ticks": 160,
            "time": 1.4705866666666667,
            "value": 0.31496062992125984
          },
          {
            "number": 98,
            "ticks": 162,
            "time": 1.488969,
            "value": 0.33070866141732286
          },
          {
            "number": 98,
            "ticks": 164,
            "time": 1.5073513333333333,
            "value": 0.36220472440944884
          },
          {
            "number": 98,
            "ticks": 167,
            "time": 1.5349248333333334,
            "value": 0.4251968503937008
          },
          {
            "number": 98,
            "ticks": 169,
            "time": 1.5533071666666667,
            "value": 0.41732283464566927
          },
          {
            "number": 98,
            "ticks": 171,
            "time": 1.5716895,
            "value": 0.33070866141732286
          },
          {
            "number": 98,
            "ticks": 173,
            "time": 1.5900718333333332,
            "value": 0.36220472440944884
          },
          {
            "number": 98,
            "ticks": 175,
            "time": 1.6084541666666667,
            "value": 0.3858267716535433
          },
          {
            "number": 98,
            "ticks": 177,
            "time": 1.6268365,
            "value": 0.44881889763779526
          },
          {
            "number": 98,
            "ticks": 179,
            "time": 1.6452188333333333,
            "value": 0.3937007874015748
          },
          {
            "number": 98,
            "ticks": 181,
            "time": 1.6636011666666668,
            "value": 0.3700787401574803
          },
          {
            "number": 98,
            "ticks": 183,
            "time": 1.6819835,
            "value": 0.33858267716535434
          },
          {
            "number": 98,
            "ticks": 185,
            "time": 1.7003658333333334,
            "value": 0.3228346456692913
          }
        ],
        "99": [
          {
            "number": 99,
            "ticks": 154,
            "time": 1.4154396666666669,
            "value": 0.1889763779527559
          },
          {
            "number": 99,
            "ticks": 157,
            "time": 1.4430131666666668,
            "value": 0.2283464566929134
          },
          {
            "number": 99,
            "ticks": 166,
            "time": 1.5257336666666668,
            "value": 0.2204724409448819
          }
        ],
        "100": [
          {
            "number": 100,
            "ticks": 152,
            "time": 1.3970573333333334,
            "value": 0
          }
        ],
        "101": [
          {
            "number": 101,
            "ticks": 151,
            "time": 1.3878661666666667,
            "value": 0
          }
        ]
      },
      "pitchBends": [],
      "instrument": {
        "family": "drums",
        "number": 1,
        "name":"standard kit"
      },
      "name": "",
      "notes": [
        {
          "duration": 0.00919116666666664,
          "durationTicks": 1,
          "midi": 36,
          "name": "C2",
          "ticks": 432,
          "time": 3.970584,
          "velocity": 0.8267716535433071
        },
        {
          "duration": 0.00919116666666664,
          "durationTicks": 1,
          "midi": 37,
          "name": "C#2",
          "ticks": 480,
          "time": 4.41176,
          "velocity": 0.5196850393700787
        },
        {
          "duration": 0.00919116666666664,
          "durationTicks": 1,
          "midi": 37,
          "name": "C#2",
          "ticks": 504,
          "time": 4.632348,
          "velocity": 0.2204724409448819
        },
        {
          "duration": 0.009191166666667527,
          "durationTicks": 1,
          "midi": 37,
          "name": "C#2",
          "ticks": 528,
          "time": 4.852936,
          "velocity": 0.6220472440944882
        },
        {
          "duration": 0.00919116666666664,
          "durationTicks": 1,
          "midi": 37,
          "name": "C#2",
          "ticks": 552,
          "time": 5.073524,
          "velocity": 0.2283464566929134
        },
        {
          "duration": 0.00919116666666664,
          "durationTicks": 1,
          "midi": 37,
          "name": "C#2",
          "ticks": 576,
          "time": 5.294112,
          "velocity": 0.3464566929133858
        },
        {
          "duration": 0.00919116666666664,
          "durationTicks": 1,
          "midi": 37,
          "name": "C#2",
          "ticks": 600,
          "time": 5.5147,
          "velocity": 0.5354330708661418
        },
        {
          "duration": 0.009191166666665751,
          "durationTicks": 1,
          "midi": 36,
          "name": "C2",
          "ticks": 624,
          "time": 5.735288000000001,
          "velocity": 0.7795275590551181
        },
        {
          "duration": 0.00919116666666664,
          "durationTicks": 1,
          "midi": 37,
          "name": "C#2",
          "ticks": 672,
          "time": 6.176464,
          "velocity": 0.6141732283464567
        },
        {
          "duration": 0.00919116666666664,
          "durationTicks": 1,
          "midi": 37,
          "name": "C#2",
          "ticks": 696,
          "time": 6.397052,
          "velocity": 0.2440944881889764
        },
        {
          "duration": 0.009191166666665751,
          "durationTicks": 1,
          "midi": 37,
          "name": "C#2",
          "ticks": 720,
          "time": 6.617640000000001,
          "velocity": 0.5590551181102362
        },
        {
          "duration": 0.009191166666665751,
          "durationTicks": 1,
          "midi": 37,
          "name": "C#2",
          "ticks": 744,
          "time": 6.838228000000001,
          "velocity": 0.25196850393700787
        },
        {
          "duration": 0.00919116666666664,
          "durationTicks": 1,
          "midi": 37,
          "name": "C#2",
          "ticks": 768,
          "time": 7.058816,
          "velocity": 0.49606299212598426
        },
        {
          "duration": 0.00919116666666664,
          "durationTicks": 1,
          "midi": 37,
          "name": "C#2",
          "ticks": 792,
          "time": 7.279404,
          "velocity": 0.3464566929133858
        },
        {
          "duration": 0.009191166666665751,
          "durationTicks": 1,
          "midi": 36,
          "name": "C2",
          "ticks": 816,
          "time": 7.499992000000001,
          "velocity": 0.7795275590551181
        },
        {
          "duration": 0.009191166666665751,
          "durationTicks": 1,
          "midi": 37,
          "name": "C#2",
          "ticks": 816,
          "time": 7.499992000000001,
          "velocity": 0.6377952755905512
        },
        {
          "duration": 0.009191166666665751,
          "durationTicks": 1,
          "midi": 37,
          "name": "C#2",
          "ticks": 840,
          "time": 7.720580000000001,
          "velocity": 0.33858267716535434
        },
        {
          "duration": 0.00919116666666664,
          "durationTicks": 1,
          "midi": 37,
          "name": "C#2",
          "ticks": 864,
          "time": 7.941168,
          "velocity": 0.6141732283464567
        },
        {
          "duration": 0.009191166666667527,
          "durationTicks": 1,
          "midi": 37,
          "name": "C#2",
          "ticks": 888,
          "time": 8.161756,
          "velocity": 0.2992125984251969
        },
        {
          "duration": 0.009191166666667527,
          "durationTicks": 1,
          "midi": 37,
          "name": "C#2",
          "ticks": 912,
          "time": 8.382344,
          "velocity": 0.5748031496062992
        },
        {
          "duration": 0.009191166666665751,
          "durationTicks": 1,
          "midi": 37,
          "name": "C#2",
          "ticks": 936,
          "time": 8.602932000000001,
          "velocity": 0.2440944881889764
        },
        {
          "duration": 0.009191166666669304,
          "durationTicks": 1,
          "midi": 37,
          "name": "C#2",
          "ticks": 960,
          "time": 8.823519999999998,
          "velocity": 0.5118110236220472
        },
        {
          "duration": 0.009191166666667527,
          "durationTicks": 1,
          "midi": 37,
          "name": "C#2",
          "ticks": 984,
          "time": 9.044108,
          "velocity": 0.3228346456692913
        },
        {
          "duration": 0.009191166666667527,
          "durationTicks": 1,
          "midi": 40,
          "name": "E2",
          "ticks": 1008,
          "time": 9.264696,
          "velocity": 0.6062992125984252
        },
        {
          "duration": 0.009191166666667527,
          "durationTicks": 1,
          "midi": 40,
          "name": "E2",
          "ticks": 1014,
          "time": 9.319842999999999,
          "velocity": 0.3543307086614173
        },
        {
          "duration": 0.009191166666667527,
          "durationTicks": 1,
          "midi": 40,
          "name": "E2",
          "ticks": 1017,
          "time": 9.3474165,
          "velocity": 0.4251968503937008
        },
        {
          "duration": 0.009191166666667527,
          "durationTicks": 1,
          "midi": 40,
          "name": "E2",
          "ticks": 1020,
          "time": 9.37499,
          "velocity": 0.5511811023622047
        },
        {
          "duration": 0.009191166666667527,
          "durationTicks": 1,
          "midi": 40,
          "name": "E2",
          "ticks": 1032,
          "time": 9.485284,
          "velocity": 0.6062992125984252
        },
        {
          "duration": 0.009191166666667527,
          "durationTicks": 1,
          "midi": 40,
          "name": "E2",
          "ticks": 1044,
          "time": 9.595578,
          "velocity": 0.5433070866141733
        },
        {
          "duration": 0.009191166666667527,
          "durationTicks": 1,
          "midi": 40,
          "name": "E2",
          "ticks": 1056,
          "time": 9.705872,
          "velocity": 0.6062992125984252
        },
        {
          "duration": 0.009191166666663975,
          "durationTicks": 1,
          "midi": 40,
          "name": "E2",
          "ticks": 1067,
          "time": 9.806974833333335,
          "velocity": 0.5275590551181102
        },
        {
          "duration": 0.009191166666663975,
          "durationTicks": 1,
          "midi": 40,
          "name": "E2",
          "ticks": 1079,
          "time": 9.917268833333335,
          "velocity": 0.6456692913385826
        },
        {
          "duration": 0.009191166666667527,
          "durationTicks": 1,
          "midi": 40,
          "name": "E2",
          "ticks": 1090,
          "time": 10.018371666666667,
          "velocity": 0.5984251968503937
        },
        {
          "duration": 0.009191166666667527,
          "durationTicks": 1,
          "midi": 36,
          "name": "C2",
          "ticks": 1200,
          "time": 11.029399999999999,
          "velocity": 0.7795275590551181
        },
        {
          "duration": 0.009191166666667527,
          "durationTicks": 1,
          "midi": 40,
          "name": "E2",
          "ticks": 1248,
          "time": 11.470576000000001,
          "velocity": 0.6062992125984252
        },
        {
          "duration": 0.009191166666667527,
          "durationTicks": 1,
          "midi": 36,
          "name": "C2",
          "ticks": 1248,
          "time": 11.470576000000001,
          "velocity": 0.7795275590551181
        },
        {
          "duration": 0.009191166666667527,
          "durationTicks": 1,
          "midi": 36,
          "name": "C2",
          "ticks": 1296,
          "time": 11.911752,
          "velocity": 0.7795275590551181
        },
        {
          "duration": 0.009191166666667527,
          "durationTicks": 1,
          "midi": 40,
          "name": "E2",
          "ticks": 1344,
          "time": 12.352927999999999,
          "velocity": 0.6062992125984252
        },
        {
          "duration": 0.009191166666667527,
          "durationTicks": 1,
          "midi": 36,
          "name": "C2",
          "ticks": 1344,
          "time": 12.352927999999999,
          "velocity": 0.7795275590551181
        },
        {
          "duration": 0.009191166666667527,
          "durationTicks": 1,
          "midi": 36,
          "name": "C2",
          "ticks": 1392,
          "time": 12.794104,
          "velocity": 0.7795275590551181
        },
        {
          "duration": 0.009191166666667527,
          "durationTicks": 1,
          "midi": 40,
          "name": "E2",
          "ticks": 1440,
          "time": 13.23528,
          "velocity": 0.6062992125984252
        },
        {
          "duration": 0.009191166666667527,
          "durationTicks": 1,
          "midi": 36,
          "name": "C2",
          "ticks": 1440,
          "time": 13.23528,
          "velocity": 0.7795275590551181
        },
        {
          "duration": 0.00919116666667108,
          "durationTicks": 1,
          "midi": 36,
          "name": "C2",
          "ticks": 1488,
          "time": 13.676455999999998,
          "velocity": 0.7795275590551181
        },
        {
          "duration": 0.009191166666667527,
          "durationTicks": 1,
          "midi": 40,
          "name": "E2",
          "ticks": 1536,
          "time": 14.117632,
          "velocity": 0.6062992125984252
        },
        {
          "duration": 0.009191166666667527,
          "durationTicks": 1,
          "midi": 36,
          "name": "C2",
          "ticks": 1536,
          "time": 14.117632,
          "velocity": 0.7795275590551181
        },
        {
          "duration": 0.009191166666667527,
          "durationTicks": 1,
          "midi": 36,
          "name": "C2",
          "ticks": 1584,
          "time": 14.558807999999999,
          "velocity": 0.7795275590551181
        },
        {
          "duration": 0.009191166666667527,
          "durationTicks": 1,
          "midi": 40,
          "name": "E2",
          "ticks": 1632,
          "time": 14.999984000000001,
          "velocity": 0.6062992125984252
        },
        {
          "duration": 0.009191166666667527,
          "durationTicks": 1,
          "midi": 36,
          "name": "C2",
          "ticks": 1632,
          "time": 14.999984000000001,
          "velocity": 0.7795275590551181
        },
        {
          "duration": 0.009191166666667527,
          "durationTicks": 1,
          "midi": 36,
          "name": "C2",
          "ticks": 1680,
          "time": 15.44116,
          "velocity": 0.7795275590551181
        },
        {
          "duration": 0.009191166666663975,
          "durationTicks": 1,
          "midi": 40,
          "name": "E2",
          "ticks": 1728,
          "time": 15.882336000000002,
          "velocity": 0.6062992125984252
        },
        {
          "duration": 0.009191166666663975,
          "durationTicks": 1,
          "midi": 36,
          "name": "C2",
          "ticks": 1728,
          "time": 15.882336000000002,
          "velocity": 0.7795275590551181
        },
        {
          "duration": 0.009191166666663975,
          "durationTicks": 1,
          "midi": 36,
          "name": "C2",
          "ticks": 1776,
          "time": 16.323512,
          "velocity": 0.7795275590551181
        },
        {
          "duration": 0.009191166666663975,
          "durationTicks": 1,
          "midi": 40,
          "name": "E2",
          "ticks": 1824,
          "time": 16.764688000000003,
          "velocity": 0.6062992125984252
        },
        {
          "duration": 0.009191166666663975,
          "durationTicks": 1,
          "midi": 36,
          "name": "C2",
          "ticks": 1824,
          "time": 16.764688000000003,
          "velocity": 0.7795275590551181
        },
        {
          "duration": 0.009191166666663975,
          "durationTicks": 1,
          "midi": 36,
          "name": "C2",
          "ticks": 1872,
          "time": 17.205864000000002,
          "velocity": 0.7795275590551181
        },
        {
          "duration": 0.009191166666663975,
          "durationTicks": 1,
          "midi": 40,
          "name": "E2",
          "ticks": 1920,
          "time": 17.64704,
          "velocity": 0.47244094488188976
        },
        {
          "duration": 0.009191166666663975,
          "durationTicks": 1,
          "midi": 36,
          "name": "C2",
          "ticks": 1920,
          "time": 17.64704,
          "velocity": 0.7795275590551181
        },
        {
          "duration": 0.009191166666663975,
          "durationTicks": 1,
          "midi": 47,
          "name": "B2",
          "ticks": 1944,
          "time": 17.867628000000003,
          "velocity": 0.6771653543307087
        },
        {
          "duration": 0.009191166666663975,
          "durationTicks": 1,
          "midi": 47,
          "name": "B2",
          "ticks": 1956,
          "time": 17.977922000000003,
          "velocity": 0.6535433070866141
        },
        {
          "duration": 0.009191166666663975,
          "durationTicks": 1,
          "midi": 36,
          "name": "C2",
          "ticks": 1968,
          "time": 18.088216000000003,
          "velocity": 0.7795275590551181
        },
        {
          "duration": 0.009191166666663975,
          "durationTicks": 1,
          "midi": 40,
          "name": "E2",
          "ticks": 2016,
          "time": 18.529392,
          "velocity": 0.6062992125984252
        },
        {
          "duration": 0.009191166666663975,
          "durationTicks": 1,
          "midi": 36,
          "name": "C2",
          "ticks": 2016,
          "time": 18.529392,
          "velocity": 0.7795275590551181
        },
        {
          "duration": 0.009191166666663975,
          "durationTicks": 1,
          "midi": 36,
          "name": "C2",
          "ticks": 2064,
          "time": 18.970568000000004,
          "velocity": 0.7795275590551181
        },
        {
          "duration": 0.009191166666663975,
          "durationTicks": 1,
          "midi": 40,
          "name": "E2",
          "ticks": 2112,
          "time": 19.411744000000002,
          "velocity": 0.6062992125984252
        },
        {
          "duration": 0.009191166666663975,
          "durationTicks": 1,
          "midi": 36,
          "name": "C2",
          "ticks": 2112,
          "time": 19.411744000000002,
          "velocity": 0.7795275590551181
        },
        {
          "duration": 0.009191166666667527,
          "durationTicks": 1,
          "midi": 36,
          "name": "C2",
          "ticks": 2160,
          "time": 19.85292,
          "velocity": 0.7795275590551181
        },
        {
          "duration": 0.009191166666663975,
          "durationTicks": 1,
          "midi": 40,
          "name": "E2",
          "ticks": 2208,
          "time": 20.294096000000003,
          "velocity": 0.6062992125984252
        },
        {
          "duration": 0.009191166666663975,
          "durationTicks": 1,
          "midi": 36,
          "name": "C2",
          "ticks": 2208,
          "time": 20.294096000000003,
          "velocity": 0.7795275590551181
        },
        {
          "duration": 0.009191166666663975,
          "durationTicks": 1,
          "midi": 40,
          "name": "E2",
          "ticks": 2256,
          "time": 20.735272000000002,
          "velocity": 0.6141732283464567
        },
        {
          "duration": 0.009191166666663975,
          "durationTicks": 1,
          "midi": 36,
          "name": "C2",
          "ticks": 2256,
          "time": 20.735272000000002,
          "velocity": 0.7795275590551181
        },
        {
          "duration": 0.009191166666663975,
          "durationTicks": 1,
          "midi": 40,
          "name": "E2",
          "ticks": 2268,
          "time": 20.845566,
          "velocity": 0.4409448818897638
        },
        {
          "duration": 0.009191166666667527,
          "durationTicks": 1,
          "midi": 47,
          "name": "B2",
          "ticks": 2280,
          "time": 20.95586,
          "velocity": 0.6771653543307087
        },
        {
          "duration": 0.009191166666667527,
          "durationTicks": 1,
          "midi": 47,
          "name": "B2",
          "ticks": 2292,
          "time": 21.066154,
          "velocity": 0.6299212598425197
        },
        {
          "duration": 0.009191166666663975,
          "durationTicks": 1,
          "midi": 43,
          "name": "G2",
          "ticks": 2304,
          "time": 21.176448000000004,
          "velocity": 0.6614173228346457
        },
        {
          "duration": 0.009191166666663975,
          "durationTicks": 1,
          "midi": 36,
          "name": "C2",
          "ticks": 2304,
          "time": 21.176448000000004,
          "velocity": 0.7795275590551181
        },
        {
          "duration": 0.009191166666663975,
          "durationTicks": 1,
          "midi": 43,
          "name": "G2",
          "ticks": 2316,
          "time": 21.286742000000004,
          "velocity": 0.6535433070866141
        },
        {
          "duration": 0.009191166666663975,
          "durationTicks": 1,
          "midi": 41,
          "name": "F2",
          "ticks": 2328,
          "time": 21.397036000000003,
          "velocity": 0.7086614173228346
        },
        {
          "duration": 0.009191166666663975,
          "durationTicks": 1,
          "midi": 41,
          "name": "F2",
          "ticks": 2340,
          "time": 21.507330000000003,
          "velocity": 0.6692913385826772
        },
        {
          "duration": 0.009191166666663975,
          "durationTicks": 1,
          "midi": 36,
          "name": "C2",
          "ticks": 2352,
          "time": 21.617624000000003,
          "velocity": 0.7795275590551181
        },
        {
          "duration": 0.009191166666663975,
          "durationTicks": 1,
          "midi": 40,
          "name": "E2",
          "ticks": 2400,
          "time": 22.0588,
          "velocity": 0.6062992125984252
        },
        {
          "duration": 0.009191166666663975,
          "durationTicks": 1,
          "midi": 36,
          "name": "C2",
          "ticks": 2400,
          "time": 22.0588,
          "velocity": 0.7795275590551181
        },
        {
          "duration": 0.009191166666663975,
          "durationTicks": 1,
          "midi": 36,
          "name": "C2",
          "ticks": 2448,
          "time": 22.499976000000004,
          "velocity": 0.7795275590551181
        },
        {
          "duration": 0.009191166666663975,
          "durationTicks": 1,
          "midi": 40,
          "name": "E2",
          "ticks": 2496,
          "time": 22.941152000000002,
          "velocity": 0.6062992125984252
        },
        {
          "duration": 0.009191166666663975,
          "durationTicks": 1,
          "midi": 36,
          "name": "C2",
          "ticks": 2496,
          "time": 22.941152000000002,
          "velocity": 0.7795275590551181
        },
        {
          "duration": 0.009191166666663975,
          "durationTicks": 1,
          "midi": 40,
          "name": "E2",
          "ticks": 2520,
          "time": 23.16174,
          "velocity": 0.15748031496062992
        },
        {
          "duration": 0.009191166666667527,
          "durationTicks": 1,
          "midi": 40,
          "name": "E2",
          "ticks": 2533,
          "time": 23.28122516666667,
          "velocity": 0.4015748031496063
        },
        {
          "duration": 0.009191166666667527,
          "durationTicks": 1,
          "midi": 36,
          "name": "C2",
          "ticks": 2544,
          "time": 23.382328,
          "velocity": 0.7795275590551181
        },
        {
          "duration": 0.009191166666663975,
          "durationTicks": 1,
          "midi": 40,
          "name": "E2",
          "ticks": 2568,
          "time": 23.602916000000004,
          "velocity": 0.5748031496062992
        },
        {
          "duration": 0.009191166666663975,
          "durationTicks": 1,
          "midi": 36,
          "name": "C2",
          "ticks": 2592,
          "time": 23.823504000000003,
          "velocity": 0.7795275590551181
        },
        {
          "duration": 0.009191166666663975,
          "durationTicks": 1,
          "midi": 40,
          "name": "E2",
          "ticks": 2592,
          "time": 23.823504000000003,
          "velocity": 0.5196850393700787
        },
        {
          "duration": 0.009191166666663975,
          "durationTicks": 1,
          "midi": 40,
          "name": "E2",
          "ticks": 2616,
          "time": 24.044092000000003,
          "velocity": 0.16535433070866143
        },
        {
          "duration": 0.009191166666663975,
          "durationTicks": 1,
          "midi": 40,
          "name": "E2",
          "ticks": 2628,
          "time": 24.154386000000002,
          "velocity": 0.4251968503937008
        },
        {
          "duration": 0.009191166666663975,
          "durationTicks": 1,
          "midi": 36,
          "name": "C2",
          "ticks": 2640,
          "time": 24.264680000000002,
          "velocity": 0.7795275590551181
        },
        {
          "duration": 0.009191166666667527,
          "durationTicks": 1,
          "midi": 40,
          "name": "E2",
          "ticks": 2664,
          "time": 24.485268,
          "velocity": 0.5905511811023622
        },
        {
          "duration": 0.009191166666663975,
          "durationTicks": 1,
          "midi": 36,
          "name": "C2",
          "ticks": 2688,
          "time": 24.705856000000004,
          "velocity": 0.7795275590551181
        },
        {
          "duration": 0.009191166666663975,
          "durationTicks": 1,
          "midi": 40,
          "name": "E2",
          "ticks": 2712,
          "time": 24.926444000000004,
          "velocity": 0.48031496062992124
        },
        {
          "duration": 0.009191166666663975,
          "durationTicks": 1,
          "midi": 40,
          "name": "E2",
          "ticks": 2724,
          "time": 25.036738000000003,
          "velocity": 0.5905511811023622
        },
        {
          "duration": 0.009191166666663975,
          "durationTicks": 1,
          "midi": 36,
          "name": "C2",
          "ticks": 2736,
          "time": 25.147032000000003,
          "velocity": 0.7795275590551181
        },
        {
          "duration": 0.009191166666663975,
          "durationTicks": 1,
          "midi": 36,
          "name": "C2",
          "ticks": 2784,
          "time": 25.588208,
          "velocity": 0.7795275590551181
        },
        {
          "duration": 0.009191166666663975,
          "durationTicks": 1,
          "midi": 36,
          "name": "C2",
          "ticks": 2832,
          "time": 26.029384000000004,
          "velocity": 0.7795275590551181
        },
        {
          "duration": 0.009191166666663975,
          "durationTicks": 1,
          "midi": 36,
          "name": "C2",
          "ticks": 2880,
          "time": 26.470560000000003,
          "velocity": 0.7795275590551181
        },
        {
          "duration": 0.009191166666667527,
          "durationTicks": 1,
          "midi": 36,
          "name": "C2",
          "ticks": 2928,
          "time": 26.911736,
          "velocity": 0.7795275590551181
        },
        {
          "duration": 0.009191166666663975,
          "durationTicks": 1,
          "midi": 36,
          "name": "C2",
          "ticks": 2976,
          "time": 27.352912000000003,
          "velocity": 0.7795275590551181
        },
        {
          "duration": 0.009191166666663975,
          "durationTicks": 1,
          "midi": 36,
          "name": "C2",
          "ticks": 3024,
          "time": 27.794088000000002,
          "velocity": 0.7795275590551181
        },
        {
          "duration": 0.009191166666663975,
          "durationTicks": 1,
          "midi": 36,
          "name": "C2",
          "ticks": 3072,
          "time": 28.235264000000004,
          "velocity": 0.7795275590551181
        },
        {
          "duration": 0.009191166666663975,
          "durationTicks": 1,
          "midi": 36,
          "name": "C2",
          "ticks": 3120,
          "time": 28.676440000000003,
          "velocity": 0.7795275590551181
        },
        {
          "duration": 0.009191166666663975,
          "durationTicks": 1,
          "midi": 36,
          "name": "C2",
          "ticks": 3168,
          "time": 29.117616,
          "velocity": 0.7795275590551181
        },
        {
          "duration": 0.009191166666663975,
          "durationTicks": 1,
          "midi": 36,
          "name": "C2",
          "ticks": 3216,
          "time": 29.558792000000004,
          "velocity": 0.7795275590551181
        },
        {
          "duration": 0.00919116666667108,
          "durationTicks": 1,
          "midi": 36,
          "name": "C2",
          "ticks": 3264,
          "time": 29.999968,
          "velocity": 0.7795275590551181
        },
        {
          "duration": 0.009191166666667527,
          "durationTicks": 1,
          "midi": 36,
          "name": "C2",
          "ticks": 3312,
          "time": 30.441144,
          "velocity": 0.7795275590551181
        },
        {
          "duration": 0.00919116666667108,
          "durationTicks": 1,
          "midi": 36,
          "name": "C2",
          "ticks": 3360,
          "time": 30.88232,
          "velocity": 0.7795275590551181
        },
        {
          "duration": 0.00919116666667108,
          "durationTicks": 1,
          "midi": 36,
          "name": "C2",
          "ticks": 3408,
          "time": 31.323496,
          "velocity": 0.7795275590551181
        },
        {
          "duration": 0.00919116666667108,
          "durationTicks": 1,
          "midi": 36,
          "name": "C2",
          "ticks": 3456,
          "time": 31.764672,
          "velocity": 0.7795275590551181
        },
        {
          "duration": 0.00919116666667108,
          "durationTicks": 1,
          "midi": 40,
          "name": "E2",
          "ticks": 3456,
          "time": 31.764672,
          "velocity": 0.6062992125984252
        },
        {
          "duration": 0.009191166666674633,
          "durationTicks": 1,
          "midi": 36,
          "name": "C2",
          "ticks": 3504,
          "time": 32.205847999999996,
          "velocity": 0.7795275590551181
        },
        {
          "duration": 0.009191166666674633,
          "durationTicks": 1,
          "midi": 36,
          "name": "C2",
          "ticks": 3552,
          "time": 32.647023999999995,
          "velocity": 0.7795275590551181
        },
        {
          "duration": 0.009191166666667527,
          "durationTicks": 1,
          "midi": 36,
          "name": "C2",
          "ticks": 3600,
          "time": 33.0882,
          "velocity": 0.7795275590551181
        },
        {
          "duration": 0.009191166666667527,
          "durationTicks": 1,
          "midi": 36,
          "name": "C2",
          "ticks": 3648,
          "time": 33.529376,
          "velocity": 0.7795275590551181
        },
        {
          "duration": 0.009191166666674633,
          "durationTicks": 1,
          "midi": 36,
          "name": "C2",
          "ticks": 3696,
          "time": 33.970552,
          "velocity": 0.7795275590551181
        },
        {
          "duration": 0.009191166666674633,
          "durationTicks": 1,
          "midi": 36,
          "name": "C2",
          "ticks": 3744,
          "time": 34.411728,
          "velocity": 0.7795275590551181
        },
        {
          "duration": 0.009191166666667527,
          "durationTicks": 1,
          "midi": 36,
          "name": "C2",
          "ticks": 3792,
          "time": 34.852904,
          "velocity": 0.7795275590551181
        },
        {
          "duration": 0.009191166666667527,
          "durationTicks": 1,
          "midi": 36,
          "name": "C2",
          "ticks": 3840,
          "time": 35.29408,
          "velocity": 0.7795275590551181
        },
        {
          "duration": 0.009191166666667527,
          "durationTicks": 1,
          "midi": 36,
          "name": "C2",
          "ticks": 3888,
          "time": 35.735256,
          "velocity": 0.7795275590551181
        },
        {
          "duration": 0.009191166666674633,
          "durationTicks": 1,
          "midi": 36,
          "name": "C2",
          "ticks": 3936,
          "time": 36.176432,
          "velocity": 0.7795275590551181
        },
        {
          "duration": 0.009191166666674633,
          "durationTicks": 1,
          "midi": 36,
          "name": "C2",
          "ticks": 3984,
          "time": 36.617608,
          "velocity": 0.7795275590551181
        },
        {
          "duration": 0.009191166666667527,
          "durationTicks": 1,
          "midi": 36,
          "name": "C2",
          "ticks": 4032,
          "time": 37.058784,
          "velocity": 0.7795275590551181
        },
        {
          "duration": 0.009191166666667527,
          "durationTicks": 1,
          "midi": 36,
          "name": "C2",
          "ticks": 4080,
          "time": 37.49996,
          "velocity": 0.7795275590551181
        },
        {
          "duration": 0.009191166666667527,
          "durationTicks": 1,
          "midi": 36,
          "name": "C2",
          "ticks": 4104,
          "time": 37.720548,
          "velocity": 0.6929133858267716
        },
        {
          "duration": 0.009191166666667527,
          "durationTicks": 1,
          "midi": 36,
          "name": "C2",
          "ticks": 4128,
          "time": 37.941136,
          "velocity": 0.6692913385826772
        },
        {
          "duration": 0.009191166666674633,
          "durationTicks": 1,
          "midi": 36,
          "name": "C2",
          "ticks": 4152,
          "time": 38.161724,
          "velocity": 0.7559055118110236
        },
        {
          "duration": 0.009191166666674633,
          "durationTicks": 1,
          "midi": 43,
          "name": "G2",
          "ticks": 4176,
          "time": 38.382312,
          "velocity": 0.5039370078740157
        },
        {
          "duration": 0.009191166666674633,
          "durationTicks": 1,
          "midi": 36,
          "name": "C2",
          "ticks": 4176,
          "time": 38.382312,
          "velocity": 0.7795275590551181
        },
        {
          "duration": 0.009191166666674633,
          "durationTicks": 1,
          "midi": 36,
          "name": "C2",
          "ticks": 4200,
          "time": 38.6029,
          "velocity": 0.6929133858267716
        },
        {
          "duration": 0.009191166666674633,
          "durationTicks": 1,
          "midi": 40,
          "name": "E2",
          "ticks": 4224,
          "time": 38.823488,
          "velocity": 0.6220472440944882
        },
        {
          "duration": 0.009191166666667527,
          "durationTicks": 1,
          "midi": 36,
          "name": "C2",
          "ticks": 4272,
          "time": 39.264664,
          "velocity": 0.7795275590551181
        },
        {
          "duration": 0.009191166666667527,
          "durationTicks": 1,
          "midi": 40,
          "name": "E2",
          "ticks": 4320,
          "time": 39.70584,
          "velocity": 0.6062992125984252
        },
        {
          "duration": 0.009191166666667527,
          "durationTicks": 1,
          "midi": 36,
          "name": "C2",
          "ticks": 4392,
          "time": 40.367604,
          "velocity": 0.7795275590551181
        },
        {
          "duration": 0.009191166666674633,
          "durationTicks": 1,
          "midi": 40,
          "name": "E2",
          "ticks": 4416,
          "time": 40.588192,
          "velocity": 0.6062992125984252
        },
        {
          "duration": 0.009191166666674633,
          "durationTicks": 1,
          "midi": 36,
          "name": "C2",
          "ticks": 4464,
          "time": 41.029368,
          "velocity": 0.7795275590551181
        },
        {
          "duration": 0.009191166666674633,
          "durationTicks": 1,
          "midi": 40,
          "name": "E2",
          "ticks": 4512,
          "time": 41.470544,
          "velocity": 0.6062992125984252
        },
        {
          "duration": 0.009191166666667527,
          "durationTicks": 1,
          "midi": 36,
          "name": "C2",
          "ticks": 4584,
          "time": 42.132308,
          "velocity": 0.7795275590551181
        },
        {
          "duration": 0.009191166666667527,
          "durationTicks": 1,
          "midi": 40,
          "name": "E2",
          "ticks": 4608,
          "time": 42.352896,
          "velocity": 0.6062992125984252
        },
        {
          "duration": 0.009191166666667527,
          "durationTicks": 1,
          "midi": 36,
          "name": "C2",
          "ticks": 4656,
          "time": 42.794072,
          "velocity": 0.7795275590551181
        },
        {
          "duration": 0.009191166666674633,
          "durationTicks": 1,
          "midi": 40,
          "name": "E2",
          "ticks": 4704,
          "time": 43.235248,
          "velocity": 0.6062992125984252
        },
        {
          "duration": 0.009191166666674633,
          "durationTicks": 1,
          "midi": 36,
          "name": "C2",
          "ticks": 4776,
          "time": 43.897012,
          "velocity": 0.7795275590551181
        },
        {
          "duration": 0.009191166666667527,
          "durationTicks": 1,
          "midi": 40,
          "name": "E2",
          "ticks": 4800,
          "time": 44.1176,
          "velocity": 0.6062992125984252
        },
        {
          "duration": 0.009191166666667527,
          "durationTicks": 1,
          "midi": 36,
          "name": "C2",
          "ticks": 4848,
          "time": 44.558776,
          "velocity": 0.7795275590551181
        },
        {
          "duration": 0.009191166666667527,
          "durationTicks": 1,
          "midi": 40,
          "name": "E2",
          "ticks": 4896,
          "time": 44.999952,
          "velocity": 0.6062992125984252
        },
        {
          "duration": 0.009191166666674633,
          "durationTicks": 1,
          "midi": 36,
          "name": "C2",
          "ticks": 4968,
          "time": 45.661716,
          "velocity": 0.7795275590551181
        },
        {
          "duration": 0.009191166666674633,
          "durationTicks": 1,
          "midi": 40,
          "name": "E2",
          "ticks": 4992,
          "time": 45.882304,
          "velocity": 0.6062992125984252
        },
        {
          "duration": 0.009191166666667527,
          "durationTicks": 1,
          "midi": 36,
          "name": "C2",
          "ticks": 5040,
          "time": 46.32348,
          "velocity": 0.7795275590551181
        },
        {
          "duration": 0.009191166666667527,
          "durationTicks": 1,
          "midi": 40,
          "name": "E2",
          "ticks": 5088,
          "time": 46.764656,
          "velocity": 0.6062992125984252
        },
        {
          "duration": 0.009191166666667527,
          "durationTicks": 1,
          "midi": 36,
          "name": "C2",
          "ticks": 5160,
          "time": 47.42642,
          "velocity": 0.7795275590551181
        },
        {
          "duration": 0.009191166666674633,
          "durationTicks": 1,
          "midi": 40,
          "name": "E2",
          "ticks": 5184,
          "time": 47.647008,
          "velocity": 0.6062992125984252
        },
        {
          "duration": 0.009191166666674633,
          "durationTicks": 1,
          "midi": 36,
          "name": "C2",
          "ticks": 5232,
          "time": 48.088184,
          "velocity": 0.7795275590551181
        },
        {
          "duration": 0.009191166666674633,
          "durationTicks": 1,
          "midi": 40,
          "name": "E2",
          "ticks": 5280,
          "time": 48.52936,
          "velocity": 0.6062992125984252
        },
        {
          "duration": 0.009191166666667527,
          "durationTicks": 1,
          "midi": 36,
          "name": "C2",
          "ticks": 5352,
          "time": 49.191124,
          "velocity": 0.7795275590551181
        },
        {
          "duration": 0.009191166666667527,
          "durationTicks": 1,
          "midi": 40,
          "name": "E2",
          "ticks": 5376,
          "time": 49.411712,
          "velocity": 0.6062992125984252
        },
        {
          "duration": 0.009191166666667527,
          "durationTicks": 1,
          "midi": 36,
          "name": "C2",
          "ticks": 5424,
          "time": 49.852888,
          "velocity": 0.7795275590551181
        },
        {
          "duration": 0.009191166666674633,
          "durationTicks": 1,
          "midi": 40,
          "name": "E2",
          "ticks": 5472,
          "time": 50.294064,
          "velocity": 0.6062992125984252
        },
        {
          "duration": 0.009191166666674633,
          "durationTicks": 1,
          "midi": 36,
          "name": "C2",
          "ticks": 5544,
          "time": 50.955828,
          "velocity": 0.7795275590551181
        },
        {
          "duration": 0.009191166666667527,
          "durationTicks": 1,
          "midi": 40,
          "name": "E2",
          "ticks": 5568,
          "time": 51.176416,
          "velocity": 0.6062992125984252
        },
        {
          "duration": 0.009191166666667527,
          "durationTicks": 1,
          "midi": 36,
          "name": "C2",
          "ticks": 5616,
          "time": 51.617592,
          "velocity": 0.7795275590551181
        },
        {
          "duration": 0.009191166666667527,
          "durationTicks": 1,
          "midi": 40,
          "name": "E2",
          "ticks": 5664,
          "time": 52.058768,
          "velocity": 0.6062992125984252
        },
        {
          "duration": 0.009191166666674633,
          "durationTicks": 1,
          "midi": 47,
          "name": "B2",
          "ticks": 5712,
          "time": 52.499944,
          "velocity": 0.6692913385826772
        },
        {
          "duration": 0.009191166666674633,
          "durationTicks": 1,
          "midi": 43,
          "name": "G2",
          "ticks": 5736,
          "time": 52.720532,
          "velocity": 0.7244094488188977
        },
        {
          "duration": 0.009191166666674633,
          "durationTicks": 1,
          "midi": 41,
          "name": "F2",
          "ticks": 5760,
          "time": 52.94112,
          "velocity": 0.6771653543307087
        },
        {
          "duration": 0.009191166666674633,
          "durationTicks": 1,
          "midi": 41,
          "name": "F2",
          "ticks": 5784,
          "time": 53.161708,
          "velocity": 0.6141732283464567
        },
        {
          "duration": 0.009191166666667527,
          "durationTicks": 1,
          "midi": 36,
          "name": "C2",
          "ticks": 5808,
          "time": 53.382296000000004,
          "velocity": 0.7795275590551181
        },
        {
          "duration": 0.009191166666667527,
          "durationTicks": 1,
          "midi": 37,
          "name": "C#2",
          "ticks": 5856,
          "time": 53.823472,
          "velocity": 0.6220472440944882
        },
        {
          "duration": 0.009191166666667527,
          "durationTicks": 1,
          "midi": 37,
          "name": "C#2",
          "ticks": 5904,
          "time": 54.264648,
          "velocity": 0.6377952755905512
        },
        {
          "duration": 0.009191166666674633,
          "durationTicks": 1,
          "midi": 37,
          "name": "C#2",
          "ticks": 5952,
          "time": 54.705824,
          "velocity": 0.5511811023622047
        },
        {
          "duration": 0.009191166666674633,
          "durationTicks": 1,
          "midi": 36,
          "name": "C2",
          "ticks": 5976,
          "time": 54.926412,
          "velocity": 0.7086614173228346
        },
        {
          "duration": 0.009191166666674633,
          "durationTicks": 1,
          "midi": 37,
          "name": "C#2",
          "ticks": 6000,
          "time": 55.147,
          "velocity": 0.6062992125984252
        },
        {
          "duration": 0.009191166666674633,
          "durationTicks": 1,
          "midi": 36,
          "name": "C2",
          "ticks": 6000,
          "time": 55.147,
          "velocity": 0.7795275590551181
        },
        {
          "duration": 0.009191166666674633,
          "durationTicks": 1,
          "midi": 37,
          "name": "C#2",
          "ticks": 6048,
          "time": 55.588176,
          "velocity": 0.5669291338582677
        },
        {
          "duration": 0.009191166666667527,
          "durationTicks": 1,
          "midi": 36,
          "name": "C2",
          "ticks": 6072,
          "time": 55.808764000000004,
          "velocity": 0.7322834645669292
        },
        {
          "duration": 0.009191166666667527,
          "durationTicks": 1,
          "midi": 37,
          "name": "C#2",
          "ticks": 6096,
          "time": 56.029352,
          "velocity": 0.6614173228346457
        },
        {
          "duration": 0.009191166666667527,
          "durationTicks": 1,
          "midi": 36,
          "name": "C2",
          "ticks": 6120,
          "time": 56.24994,
          "velocity": 0.6141732283464567
        },
        {
          "duration": 0.009191166666667527,
          "durationTicks": 1,
          "midi": 37,
          "name": "C#2",
          "ticks": 6144,
          "time": 56.470528,
          "velocity": 0.5511811023622047
        },
        {
          "duration": 0.009191166666667527,
          "durationTicks": 1,
          "midi": 36,
          "name": "C2",
          "ticks": 6168,
          "time": 56.691116,
          "velocity": 0.7086614173228346
        },
        {
          "duration": 0.009191166666667527,
          "durationTicks": 1,
          "midi": 37,
          "name": "C#2",
          "ticks": 6192,
          "time": 56.911704,
          "velocity": 0.5748031496062992
        },
        {
          "duration": 0.009191166666667527,
          "durationTicks": 1,
          "midi": 36,
          "name": "C2",
          "ticks": 6192,
          "time": 56.911704,
          "velocity": 0.7795275590551181
        },
        {
          "duration": 0.009191166666667527,
          "durationTicks": 1,
          "midi": 37,
          "name": "C#2",
          "ticks": 6242,
          "time": 57.371262333333334,
          "velocity": 0.6062992125984252
        },
        {
          "duration": 0.009191166666674633,
          "durationTicks": 1,
          "midi": 36,
          "name": "C2",
          "ticks": 6264,
          "time": 57.573468,
          "velocity": 0.7322834645669292
        },
        {
          "duration": 0.009191166666674633,
          "durationTicks": 1,
          "midi": 37,
          "name": "C#2",
          "ticks": 6288,
          "time": 57.794056,
          "velocity": 0.4645669291338583
        },
        {
          "duration": 0.009191166666660422,
          "durationTicks": 1,
          "midi": 40,
          "name": "E2",
          "ticks": 6289,
          "time": 57.80324716666667,
          "velocity": 0.6141732283464567
        },
        {
          "duration": 0.009191166666674633,
          "durationTicks": 1,
          "midi": 47,
          "name": "B2",
          "ticks": 6312,
          "time": 58.014644,
          "velocity": 0.6850393700787402
        },
        {
          "duration": 0.009191166666660422,
          "durationTicks": 1,
          "midi": 41,
          "name": "F2",
          "ticks": 6336,
          "time": 58.235232,
          "velocity": 0.6929133858267716
        },
        {
          "duration": 0.009191166666653316,
          "durationTicks": 1,
          "midi": 36,
          "name": "C2",
          "ticks": 6360,
          "time": 58.45582000000001,
          "velocity": 0.7795275590551181
        },
        {
          "duration": 0.009191166666660422,
          "durationTicks": 1,
          "midi": 40,
          "name": "E2",
          "ticks": 6480,
          "time": 59.55876000000001,
          "velocity": 0.6062992125984252
        },
        {
          "duration": 0.009191166666653316,
          "durationTicks": 1,
          "midi": 40,
          "name": "E2",
          "ticks": 6492,
          "time": 59.66905400000001,
          "velocity": 0.5275590551181102
        },
        {
          "duration": 0.009191166666660422,
          "durationTicks": 1,
          "midi": 47,
          "name": "B2",
          "ticks": 6504,
          "time": 59.779348000000006,
          "velocity": 0.5669291338582677
        },
        {
          "duration": 0.009191166666653316,
          "durationTicks": 1,
          "midi": 47,
          "name": "B2",
          "ticks": 6516,
          "time": 59.88964200000001,
          "velocity": 0.6850393700787402
        },
        {
          "duration": 0.009191166666660422,
          "durationTicks": 1,
          "midi": 43,
          "name": "G2",
          "ticks": 6528,
          "time": 59.999936000000005,
          "velocity": 0.6141732283464567
        },
        {
          "duration": 0.009191166666653316,
          "durationTicks": 1,
          "midi": 43,
          "name": "G2",
          "ticks": 6540,
          "time": 60.11023000000001,
          "velocity": 0.7007874015748031
        },
        {
          "duration": 0.009191166666660422,
          "durationTicks": 1,
          "midi": 41,
          "name": "F2",
          "ticks": 6552,
          "time": 60.220524000000005,
          "velocity": 0.6220472440944882
        },
        {
          "duration": 0.009191166666660422,
          "durationTicks": 1,
          "midi": 41,
          "name": "F2",
          "ticks": 6564,
          "time": 60.33081800000001,
          "velocity": 0.6535433070866141
        },
        {
          "duration": 0.009191166666660422,
          "durationTicks": 1,
          "midi": 36,
          "name": "C2",
          "ticks": 6576,
          "time": 60.441112000000004,
          "velocity": 0.7795275590551181
        },
        {
          "duration": 0.009191166666653316,
          "durationTicks": 1,
          "midi": 40,
          "name": "E2",
          "ticks": 6624,
          "time": 60.88228800000001,
          "velocity": 0.6062992125984252
        },
        {
          "duration": 0.009191166666653316,
          "durationTicks": 1,
          "midi": 36,
          "name": "C2",
          "ticks": 6624,
          "time": 60.88228800000001,
          "velocity": 0.7795275590551181
        },
        {
          "duration": 0.009191166666653316,
          "durationTicks": 1,
          "midi": 36,
          "name": "C2",
          "ticks": 6672,
          "time": 61.32346400000001,
          "velocity": 0.7795275590551181
        },
        {
          "duration": 0.009191166666660422,
          "durationTicks": 1,
          "midi": 40,
          "name": "E2",
          "ticks": 6720,
          "time": 61.76464000000001,
          "velocity": 0.6062992125984252
        },
        {
          "duration": 0.009191166666660422,
          "durationTicks": 1,
          "midi": 36,
          "name": "C2",
          "ticks": 6720,
          "time": 61.76464000000001,
          "velocity": 0.7795275590551181
        },
        {
          "duration": 0.009191166666660422,
          "durationTicks": 1,
          "midi": 36,
          "name": "C2",
          "ticks": 6768,
          "time": 62.205816000000006,
          "velocity": 0.7795275590551181
        },
        {
          "duration": 0.009191166666660422,
          "durationTicks": 1,
          "midi": 40,
          "name": "E2",
          "ticks": 6816,
          "time": 62.646992000000004,
          "velocity": 0.6062992125984252
        },
        {
          "duration": 0.009191166666660422,
          "durationTicks": 1,
          "midi": 36,
          "name": "C2",
          "ticks": 6816,
          "time": 62.646992000000004,
          "velocity": 0.7795275590551181
        },
        {
          "duration": 0.009191166666653316,
          "durationTicks": 1,
          "midi": 36,
          "name": "C2",
          "ticks": 6864,
          "time": 63.08816800000001,
          "velocity": 0.7795275590551181
        },
        {
          "duration": 0.009191166666653316,
          "durationTicks": 1,
          "midi": 40,
          "name": "E2",
          "ticks": 6912,
          "time": 63.52934400000001,
          "velocity": 0.6062992125984252
        },
        {
          "duration": 0.009191166666653316,
          "durationTicks": 1,
          "midi": 36,
          "name": "C2",
          "ticks": 6912,
          "time": 63.52934400000001,
          "velocity": 0.7795275590551181
        },
        {
          "duration": 0.009191166666660422,
          "durationTicks": 1,
          "midi": 36,
          "name": "C2",
          "ticks": 6960,
          "time": 63.97052000000001,
          "velocity": 0.7795275590551181
        },
        {
          "duration": 0.009191166666653316,
          "durationTicks": 1,
          "midi": 40,
          "name": "E2",
          "ticks": 7008,
          "time": 64.411696,
          "velocity": 0.6062992125984252
        },
        {
          "duration": 0.009191166666653316,
          "durationTicks": 1,
          "midi": 36,
          "name": "C2",
          "ticks": 7008,
          "time": 64.411696,
          "velocity": 0.7795275590551181
        },
        {
          "duration": 0.009191166666653316,
          "durationTicks": 1,
          "midi": 36,
          "name": "C2",
          "ticks": 7056,
          "time": 64.852872,
          "velocity": 0.7795275590551181
        },
        {
          "duration": 0.009191166666653316,
          "durationTicks": 1,
          "midi": 40,
          "name": "E2",
          "ticks": 7104,
          "time": 65.294048,
          "velocity": 0.6062992125984252
        },
        {
          "duration": 0.009191166666653316,
          "durationTicks": 1,
          "midi": 36,
          "name": "C2",
          "ticks": 7104,
          "time": 65.294048,
          "velocity": 0.7795275590551181
        },
        {
          "duration": 0.009191166666653316,
          "durationTicks": 1,
          "midi": 36,
          "name": "C2",
          "ticks": 7152,
          "time": 65.735224,
          "velocity": 0.7795275590551181
        },
        {
          "duration": 0.009191166666653316,
          "durationTicks": 1,
          "midi": 40,
          "name": "E2",
          "ticks": 7200,
          "time": 66.1764,
          "velocity": 0.6062992125984252
        },
        {
          "duration": 0.009191166666653316,
          "durationTicks": 1,
          "midi": 36,
          "name": "C2",
          "ticks": 7200,
          "time": 66.1764,
          "velocity": 0.7795275590551181
        },
        {
          "duration": 0.009191166666653316,
          "durationTicks": 1,
          "midi": 36,
          "name": "C2",
          "ticks": 7248,
          "time": 66.617576,
          "velocity": 0.7795275590551181
        },
        {
          "duration": 0.009191166666653316,
          "durationTicks": 1,
          "midi": 40,
          "name": "E2",
          "ticks": 7296,
          "time": 67.058752,
          "velocity": 0.6062992125984252
        },
        {
          "duration": 0.009191166666653316,
          "durationTicks": 1,
          "midi": 36,
          "name": "C2",
          "ticks": 7296,
          "time": 67.058752,
          "velocity": 0.7795275590551181
        },
        {
          "duration": 0.009191166666653316,
          "durationTicks": 1,
          "midi": 47,
          "name": "B2",
          "ticks": 7320,
          "time": 67.27934,
          "velocity": 0.6929133858267716
        },
        {
          "duration": 0.009191166666653316,
          "durationTicks": 1,
          "midi": 47,
          "name": "B2",
          "ticks": 7332,
          "time": 67.389634,
          "velocity": 0.6692913385826772
        },
        {
          "duration": 0.009191166666667527,
          "durationTicks": 1,
          "midi": 36,
          "name": "C2",
          "ticks": 7344,
          "time": 67.499928,
          "velocity": 0.7795275590551181
        },
        {
          "duration": 0.009191166666667527,
          "durationTicks": 1,
          "midi": 40,
          "name": "E2",
          "ticks": 7392,
          "time": 67.941104,
          "velocity": 0.6062992125984252
        },
        {
          "duration": 0.009191166666667527,
          "durationTicks": 1,
          "midi": 36,
          "name": "C2",
          "ticks": 7392,
          "time": 67.941104,
          "velocity": 0.7795275590551181
        },
        {
          "duration": 0.009191166666667527,
          "durationTicks": 1,
          "midi": 36,
          "name": "C2",
          "ticks": 7440,
          "time": 68.38228,
          "velocity": 0.7795275590551181
        },
        {
          "duration": 0.009191166666667527,
          "durationTicks": 1,
          "midi": 40,
          "name": "E2",
          "ticks": 7488,
          "time": 68.823456,
          "velocity": 0.5039370078740157
        },
        {
          "duration": 0.009191166666667527,
          "durationTicks": 1,
          "midi": 36,
          "name": "C2",
          "ticks": 7488,
          "time": 68.823456,
          "velocity": 0.7795275590551181
        },
        {
          "duration": 0.009191166666653316,
          "durationTicks": 1,
          "midi": 36,
          "name": "C2",
          "ticks": 7536,
          "time": 69.264632,
          "velocity": 0.7795275590551181
        },
        {
          "duration": 0.009191166666653316,
          "durationTicks": 1,
          "midi": 40,
          "name": "E2",
          "ticks": 7584,
          "time": 69.705808,
          "velocity": 0.6062992125984252
        },
        {
          "duration": 0.009191166666653316,
          "durationTicks": 1,
          "midi": 36,
          "name": "C2",
          "ticks": 7584,
          "time": 69.705808,
          "velocity": 0.7795275590551181
        },
        {
          "duration": 0.009191166666653316,
          "durationTicks": 1,
          "midi": 36,
          "name": "C2",
          "ticks": 7632,
          "time": 70.146984,
          "velocity": 0.7795275590551181
        },
        {
          "duration": 0.009191166666653316,
          "durationTicks": 1,
          "midi": 40,
          "name": "E2",
          "ticks": 7680,
          "time": 70.58816,
          "velocity": 0.6062992125984252
        },
        {
          "duration": 0.009191166666653316,
          "durationTicks": 1,
          "midi": 36,
          "name": "C2",
          "ticks": 7680,
          "time": 70.58816,
          "velocity": 0.7795275590551181
        },
        {
          "duration": 0.009191166666667527,
          "durationTicks": 1,
          "midi": 40,
          "name": "E2",
          "ticks": 7704,
          "time": 70.808748,
          "velocity": 0.2283464566929134
        },
        {
          "duration": 0.009191166666653316,
          "durationTicks": 1,
          "midi": 40,
          "name": "E2",
          "ticks": 7716,
          "time": 70.919042,
          "velocity": 0.5275590551181102
        },
        {
          "duration": 0.009191166666653316,
          "durationTicks": 1,
          "midi": 36,
          "name": "C2",
          "ticks": 7728,
          "time": 71.029336,
          "velocity": 0.7795275590551181
        },
        {
          "duration": 0.009191166666653316,
          "durationTicks": 1,
          "midi": 40,
          "name": "E2",
          "ticks": 7776,
          "time": 71.470512,
          "velocity": 0.6062992125984252
        },
        {
          "duration": 0.009191166666653316,
          "durationTicks": 1,
          "midi": 36,
          "name": "C2",
          "ticks": 7776,
          "time": 71.470512,
          "velocity": 0.7795275590551181
        },
        {
          "duration": 0.009191166666653316,
          "durationTicks": 1,
          "midi": 36,
          "name": "C2",
          "ticks": 7824,
          "time": 71.911688,
          "velocity": 0.7795275590551181
        },
        {
          "duration": 0.009191166666667527,
          "durationTicks": 1,
          "midi": 40,
          "name": "E2",
          "ticks": 7872,
          "time": 72.352864,
          "velocity": 0.6062992125984252
        },
        {
          "duration": 0.009191166666667527,
          "durationTicks": 1,
          "midi": 36,
          "name": "C2",
          "ticks": 7872,
          "time": 72.352864,
          "velocity": 0.7795275590551181
        },
        {
          "duration": 0.009191166666681738,
          "durationTicks": 1,
          "midi": 40,
          "name": "E2",
          "ticks": 7909,
          "time": 72.69293716666665,
          "velocity": 0.25984251968503935
        },
        {
          "duration": 0.009191166666667527,
          "durationTicks": 1,
          "midi": 36,
          "name": "C2",
          "ticks": 7920,
          "time": 72.79404,
          "velocity": 0.7795275590551181
        },
        {
          "duration": 0.009191166666653316,
          "durationTicks": 1,
          "midi": 40,
          "name": "E2",
          "ticks": 7944,
          "time": 73.014628,
          "velocity": 0.5590551181102362
        },
        {
          "duration": 0.009191166666667527,
          "durationTicks": 1,
          "midi": 36,
          "name": "C2",
          "ticks": 7968,
          "time": 73.235216,
          "velocity": 0.7795275590551181
        },
        {
          "duration": 0.009191166666667527,
          "durationTicks": 1,
          "midi": 40,
          "name": "E2",
          "ticks": 7968,
          "time": 73.235216,
          "velocity": 0.5826771653543307
        },
        {
          "duration": 0.009191166666653316,
          "durationTicks": 1,
          "midi": 40,
          "name": "E2",
          "ticks": 7992,
          "time": 73.455804,
          "velocity": 0.16535433070866143
        },
        {
          "duration": 0.009191166666667527,
          "durationTicks": 1,
          "midi": 40,
          "name": "E2",
          "ticks": 8004,
          "time": 73.566098,
          "velocity": 0.5039370078740157
        },
        {
          "duration": 0.009191166666653316,
          "durationTicks": 1,
          "midi": 36,
          "name": "C2",
          "ticks": 8016,
          "time": 73.676392,
          "velocity": 0.7795275590551181
        },
        {
          "duration": 0.009191166666653316,
          "durationTicks": 1,
          "midi": 40,
          "name": "E2",
          "ticks": 8016,
          "time": 73.676392,
          "velocity": 0.6062992125984252
        },
        {
          "duration": 0.009191166666653316,
          "durationTicks": 1,
          "midi": 40,
          "name": "E2",
          "ticks": 8028,
          "time": 73.786686,
          "velocity": 0.5196850393700787
        },
        {
          "duration": 0.009191166666653316,
          "durationTicks": 1,
          "midi": 47,
          "name": "B2",
          "ticks": 8040,
          "time": 73.89698,
          "velocity": 0.6850393700787402
        },
        {
          "duration": 0.009191166666667527,
          "durationTicks": 1,
          "midi": 47,
          "name": "B2",
          "ticks": 8052,
          "time": 74.007274,
          "velocity": 0.6614173228346457
        },
        {
          "duration": 0.009191166666653316,
          "durationTicks": 1,
          "midi": 36,
          "name": "C2",
          "ticks": 8064,
          "time": 74.117568,
          "velocity": 0.7795275590551181
        },
        {
          "duration": 0.009191166666653316,
          "durationTicks": 1,
          "midi": 43,
          "name": "G2",
          "ticks": 8064,
          "time": 74.117568,
          "velocity": 0.5590551181102362
        },
        {
          "duration": 0.009191166666653316,
          "durationTicks": 1,
          "midi": 43,
          "name": "G2",
          "ticks": 8076,
          "time": 74.227862,
          "velocity": 0.6850393700787402
        },
        {
          "duration": 0.009191166666667527,
          "durationTicks": 1,
          "midi": 41,
          "name": "F2",
          "ticks": 8088,
          "time": 74.338156,
          "velocity": 0.5984251968503937
        },
        {
          "duration": 0.009191166666667527,
          "durationTicks": 1,
          "midi": 41,
          "name": "F2",
          "ticks": 8100,
          "time": 74.44845,
          "velocity": 0.6692913385826772
        },
        {
          "duration": 0.009191166666653316,
          "durationTicks": 1,
          "midi": 36,
          "name": "C2",
          "ticks": 8112,
          "time": 74.558744,
          "velocity": 0.7795275590551181
        },
        {
          "duration": 0.009191166666667527,
          "durationTicks": 1,
          "midi": 43,
          "name": "G2",
          "ticks": 8138,
          "time": 74.79771433333333,
          "velocity": 0.6614173228346457
        },
        {
          "duration": 0.009191166666667527,
          "durationTicks": 1,
          "midi": 43,
          "name": "G2",
          "ticks": 8149,
          "time": 74.89881716666666,
          "velocity": 0.6692913385826772
        },
        {
          "duration": 0.009191166666653316,
          "durationTicks": 1,
          "midi": 36,
          "name": "C2",
          "ticks": 8160,
          "time": 74.99992,
          "velocity": 0.7795275590551181
        },
        {
          "duration": 0.009191166666653316,
          "durationTicks": 1,
          "midi": 36,
          "name": "C2",
          "ticks": 8208,
          "time": 75.441096,
          "velocity": 0.7795275590551181
        },
        {
          "duration": 0.009191166666653316,
          "durationTicks": 1,
          "midi": 40,
          "name": "E2",
          "ticks": 8256,
          "time": 75.882272,
          "velocity": 0.6062992125984252
        },
        {
          "duration": 0.009191166666653316,
          "durationTicks": 1,
          "midi": 36,
          "name": "C2",
          "ticks": 8256,
          "time": 75.882272,
          "velocity": 0.7795275590551181
        },
        {
          "duration": 0.009191166666653316,
          "durationTicks": 1,
          "midi": 36,
          "name": "C2",
          "ticks": 8304,
          "time": 76.323448,
          "velocity": 0.7795275590551181
        },
        {
          "duration": 0.009191166666667527,
          "durationTicks": 1,
          "midi": 40,
          "name": "E2",
          "ticks": 8352,
          "time": 76.764624,
          "velocity": 0.6062992125984252
        },
        {
          "duration": 0.009191166666667527,
          "durationTicks": 1,
          "midi": 36,
          "name": "C2",
          "ticks": 8352,
          "time": 76.764624,
          "velocity": 0.7795275590551181
        },
        {
          "duration": 0.009191166666667527,
          "durationTicks": 1,
          "midi": 36,
          "name": "C2",
          "ticks": 8400,
          "time": 77.2058,
          "velocity": 0.7795275590551181
        },
        {
          "duration": 0.009191166666667527,
          "durationTicks": 1,
          "midi": 40,
          "name": "E2",
          "ticks": 8448,
          "time": 77.646976,
          "velocity": 0.6062992125984252
        },
        {
          "duration": 0.009191166666667527,
          "durationTicks": 1,
          "midi": 36,
          "name": "C2",
          "ticks": 8448,
          "time": 77.646976,
          "velocity": 0.7795275590551181
        },
        {
          "duration": 0.009191166666681738,
          "durationTicks": 1,
          "midi": 40,
          "name": "E2",
          "ticks": 8474,
          "time": 77.88594633333332,
          "velocity": 0.2283464566929134
        },
        {
          "duration": 0.009191166666667527,
          "durationTicks": 1,
          "midi": 40,
          "name": "E2",
          "ticks": 8485,
          "time": 77.98704916666667,
          "velocity": 0.5748031496062992
        },
        {
          "duration": 0.009191166666667527,
          "durationTicks": 1,
          "midi": 36,
          "name": "C2",
          "ticks": 8496,
          "time": 78.088152,
          "velocity": 0.7795275590551181
        },
        {
          "duration": 0.009191166666653316,
          "durationTicks": 1,
          "midi": 40,
          "name": "E2",
          "ticks": 8544,
          "time": 78.529328,
          "velocity": 0.6062992125984252
        },
        {
          "duration": 0.009191166666653316,
          "durationTicks": 1,
          "midi": 36,
          "name": "C2",
          "ticks": 8544,
          "time": 78.529328,
          "velocity": 0.7795275590551181
        },
        {
          "duration": 0.009191166666653316,
          "durationTicks": 1,
          "midi": 36,
          "name": "C2",
          "ticks": 8592,
          "time": 78.970504,
          "velocity": 0.7795275590551181
        },
        {
          "duration": 0.009191166666653316,
          "durationTicks": 1,
          "midi": 40,
          "name": "E2",
          "ticks": 8640,
          "time": 79.41168,
          "velocity": 0.6062992125984252
        },
        {
          "duration": 0.009191166666653316,
          "durationTicks": 1,
          "midi": 36,
          "name": "C2",
          "ticks": 8640,
          "time": 79.41168,
          "velocity": 0.7795275590551181
        },
        {
          "duration": 0.009191166666653316,
          "durationTicks": 1,
          "midi": 36,
          "name": "C2",
          "ticks": 8688,
          "time": 79.852856,
          "velocity": 0.7795275590551181
        },
        {
          "duration": 0.009191166666653316,
          "durationTicks": 1,
          "midi": 40,
          "name": "E2",
          "ticks": 8736,
          "time": 80.294032,
          "velocity": 0.5275590551181102
        },
        {
          "duration": 0.009191166666653316,
          "durationTicks": 1,
          "midi": 36,
          "name": "C2",
          "ticks": 8736,
          "time": 80.294032,
          "velocity": 0.7795275590551181
        },
        {
          "duration": 0.009191166666653316,
          "durationTicks": 1,
          "midi": 36,
          "name": "C2",
          "ticks": 8784,
          "time": 80.735208,
          "velocity": 0.7795275590551181
        },
        {
          "duration": 0.009191166666653316,
          "durationTicks": 1,
          "midi": 40,
          "name": "E2",
          "ticks": 8832,
          "time": 81.176384,
          "velocity": 0.6062992125984252
        },
        {
          "duration": 0.009191166666653316,
          "durationTicks": 1,
          "midi": 36,
          "name": "C2",
          "ticks": 8832,
          "time": 81.176384,
          "velocity": 0.7795275590551181
        },
        {
          "duration": 0.009191166666653316,
          "durationTicks": 1,
          "midi": 47,
          "name": "B2",
          "ticks": 8856,
          "time": 81.396972,
          "velocity": 0.6771653543307087
        },
        {
          "duration": 0.009191166666653316,
          "durationTicks": 1,
          "midi": 47,
          "name": "B2",
          "ticks": 8868,
          "time": 81.507266,
          "velocity": 0.6535433070866141
        },
        {
          "duration": 0.009191166666667527,
          "durationTicks": 1,
          "midi": 36,
          "name": "C2",
          "ticks": 8880,
          "time": 81.61756,
          "velocity": 0.7795275590551181
        },
        {
          "duration": 0.009191166666667527,
          "durationTicks": 1,
          "midi": 40,
          "name": "E2",
          "ticks": 8928,
          "time": 82.058736,
          "velocity": 0.6062992125984252
        },
        {
          "duration": 0.009191166666667527,
          "durationTicks": 1,
          "midi": 36,
          "name": "C2",
          "ticks": 8928,
          "time": 82.058736,
          "velocity": 0.7795275590551181
        },
        {
          "duration": 0.009191166666667527,
          "durationTicks": 1,
          "midi": 36,
          "name": "C2",
          "ticks": 8976,
          "time": 82.499912,
          "velocity": 0.7795275590551181
        },
        {
          "duration": 0.009191166666667527,
          "durationTicks": 1,
          "midi": 40,
          "name": "E2",
          "ticks": 9024,
          "time": 82.941088,
          "velocity": 0.6062992125984252
        },
        {
          "duration": 0.009191166666667527,
          "durationTicks": 1,
          "midi": 36,
          "name": "C2",
          "ticks": 9024,
          "time": 82.941088,
          "velocity": 0.7795275590551181
        },
        {
          "duration": 0.009191166666653316,
          "durationTicks": 1,
          "midi": 36,
          "name": "C2",
          "ticks": 9072,
          "time": 83.382264,
          "velocity": 0.7795275590551181
        },
        {
          "duration": 0.009191166666653316,
          "durationTicks": 1,
          "midi": 40,
          "name": "E2",
          "ticks": 9120,
          "time": 83.82344,
          "velocity": 0.6062992125984252
        },
        {
          "duration": 0.009191166666653316,
          "durationTicks": 1,
          "midi": 36,
          "name": "C2",
          "ticks": 9120,
          "time": 83.82344,
          "velocity": 0.7795275590551181
        },
        {
          "duration": 0.009191166666653316,
          "durationTicks": 1,
          "midi": 40,
          "name": "E2",
          "ticks": 9168,
          "time": 84.264616,
          "velocity": 0.6141732283464567
        },
        {
          "duration": 0.009191166666653316,
          "durationTicks": 1,
          "midi": 36,
          "name": "C2",
          "ticks": 9168,
          "time": 84.264616,
          "velocity": 0.7795275590551181
        },
        {
          "duration": 0.009191166666653316,
          "durationTicks": 1,
          "midi": 40,
          "name": "E2",
          "ticks": 9180,
          "time": 84.37491,
          "velocity": 0.4409448818897638
        },
        {
          "duration": 0.009191166666667527,
          "durationTicks": 1,
          "midi": 47,
          "name": "B2",
          "ticks": 9192,
          "time": 84.485204,
          "velocity": 0.6771653543307087
        },
        {
          "duration": 0.009191166666653316,
          "durationTicks": 1,
          "midi": 47,
          "name": "B2",
          "ticks": 9204,
          "time": 84.595498,
          "velocity": 0.6299212598425197
        },
        {
          "duration": 0.009191166666653316,
          "durationTicks": 1,
          "midi": 43,
          "name": "G2",
          "ticks": 9216,
          "time": 84.705792,
          "velocity": 0.6929133858267716
        },
        {
          "duration": 0.009191166666653316,
          "durationTicks": 1,
          "midi": 36,
          "name": "C2",
          "ticks": 9216,
          "time": 84.705792,
          "velocity": 0.7795275590551181
        },
        {
          "duration": 0.009191166666653316,
          "durationTicks": 1,
          "midi": 43,
          "name": "G2",
          "ticks": 9228,
          "time": 84.816086,
          "velocity": 0.6535433070866141
        },
        {
          "duration": 0.009191166666667527,
          "durationTicks": 1,
          "midi": 41,
          "name": "F2",
          "ticks": 9240,
          "time": 84.92638,
          "velocity": 0.6771653543307087
        },
        {
          "duration": 0.009191166666653316,
          "durationTicks": 1,
          "midi": 41,
          "name": "F2",
          "ticks": 9252,
          "time": 85.036674,
          "velocity": 0.6929133858267716
        },
        {
          "duration": 0.009191166666653316,
          "durationTicks": 1,
          "midi": 36,
          "name": "C2",
          "ticks": 9264,
          "time": 85.146968,
          "velocity": 0.7795275590551181
        },
        {
          "duration": 0.009191166666653316,
          "durationTicks": 1,
          "midi": 40,
          "name": "E2",
          "ticks": 9312,
          "time": 85.588144,
          "velocity": 0.6062992125984252
        },
        {
          "duration": 0.009191166666653316,
          "durationTicks": 1,
          "midi": 36,
          "name": "C2",
          "ticks": 9312,
          "time": 85.588144,
          "velocity": 0.7795275590551181
        },
        {
          "duration": 0.009191166666653316,
          "durationTicks": 1,
          "midi": 36,
          "name": "C2",
          "ticks": 9360,
          "time": 86.02932,
          "velocity": 0.7795275590551181
        },
        {
          "duration": 0.009191166666667527,
          "durationTicks": 1,
          "midi": 40,
          "name": "E2",
          "ticks": 9408,
          "time": 86.470496,
          "velocity": 0.6062992125984252
        },
        {
          "duration": 0.009191166666667527,
          "durationTicks": 1,
          "midi": 36,
          "name": "C2",
          "ticks": 9408,
          "time": 86.470496,
          "velocity": 0.7795275590551181
        },
        {
          "duration": 0.009191166666653316,
          "durationTicks": 1,
          "midi": 40,
          "name": "E2",
          "ticks": 9432,
          "time": 86.691084,
          "velocity": 0.2125984251968504
        },
        {
          "duration": 0.009191166666681738,
          "durationTicks": 1,
          "midi": 40,
          "name": "E2",
          "ticks": 9445,
          "time": 86.81056916666665,
          "velocity": 0.5433070866141733
        },
        {
          "duration": 0.009191166666667527,
          "durationTicks": 1,
          "midi": 36,
          "name": "C2",
          "ticks": 9456,
          "time": 86.911672,
          "velocity": 0.7795275590551181
        },
        {
          "duration": 0.009191166666653316,
          "durationTicks": 1,
          "midi": 40,
          "name": "E2",
          "ticks": 9480,
          "time": 87.13226,
          "velocity": 0.5748031496062992
        },
        {
          "duration": 0.009191166666667527,
          "durationTicks": 1,
          "midi": 36,
          "name": "C2",
          "ticks": 9504,
          "time": 87.352848,
          "velocity": 0.7795275590551181
        },
        {
          "duration": 0.009191166666667527,
          "durationTicks": 1,
          "midi": 40,
          "name": "E2",
          "ticks": 9504,
          "time": 87.352848,
          "velocity": 0.5196850393700787
        },
        {
          "duration": 0.009191166666667527,
          "durationTicks": 1,
          "midi": 40,
          "name": "E2",
          "ticks": 9530,
          "time": 87.59181833333334,
          "velocity": 0.15748031496062992
        },
        {
          "duration": 0.009191166666667527,
          "durationTicks": 1,
          "midi": 40,
          "name": "E2",
          "ticks": 9541,
          "time": 87.69292116666666,
          "velocity": 0.5196850393700787
        },
        {
          "duration": 0.009191166666653316,
          "durationTicks": 1,
          "midi": 36,
          "name": "C2",
          "ticks": 9552,
          "time": 87.79402400000001,
          "velocity": 0.7795275590551181
        },
        {
          "duration": 0.009191166666653316,
          "durationTicks": 1,
          "midi": 40,
          "name": "E2",
          "ticks": 9576,
          "time": 88.014612,
          "velocity": 0.5905511811023622
        },
        {
          "duration": 0.009191166666653316,
          "durationTicks": 1,
          "midi": 40,
          "name": "E2",
          "ticks": 9600,
          "time": 88.2352,
          "velocity": 0.4645669291338583
        },
        {
          "duration": 0.009191166666653316,
          "durationTicks": 1,
          "midi": 36,
          "name": "C2",
          "ticks": 9600,
          "time": 88.2352,
          "velocity": 0.7795275590551181
        },
        {
          "duration": 0.009191166666667527,
          "durationTicks": 1,
          "midi": 40,
          "name": "E2",
          "ticks": 9625,
          "time": 88.46497916666667,
          "velocity": 0.5039370078740157
        },
        {
          "duration": 0.009191166666667527,
          "durationTicks": 1,
          "midi": 40,
          "name": "E2",
          "ticks": 9637,
          "time": 88.57527316666666,
          "velocity": 0.6062992125984252
        },
        {
          "duration": 0.009191166666653316,
          "durationTicks": 1,
          "midi": 36,
          "name": "C2",
          "ticks": 9648,
          "time": 88.676376,
          "velocity": 0.7795275590551181
        },
        {
          "duration": 0.009191166666653316,
          "durationTicks": 1,
          "midi": 36,
          "name": "C2",
          "ticks": 9696,
          "time": 89.117552,
          "velocity": 0.7795275590551181
        },
        {
          "duration": 0.009191166666653316,
          "durationTicks": 1,
          "midi": 36,
          "name": "C2",
          "ticks": 9744,
          "time": 89.558728,
          "velocity": 0.7795275590551181
        },
        {
          "duration": 0.009191166666653316,
          "durationTicks": 1,
          "midi": 36,
          "name": "C2",
          "ticks": 9792,
          "time": 89.999904,
          "velocity": 0.7795275590551181
        },
        {
          "duration": 0.009191166666653316,
          "durationTicks": 1,
          "midi": 36,
          "name": "C2",
          "ticks": 9840,
          "time": 90.44108,
          "velocity": 0.7795275590551181
        },
        {
          "duration": 0.009191166666667527,
          "durationTicks": 1,
          "midi": 36,
          "name": "C2",
          "ticks": 9888,
          "time": 90.882256,
          "velocity": 0.7795275590551181
        },
        {
          "duration": 0.009191166666667527,
          "durationTicks": 1,
          "midi": 36,
          "name": "C2",
          "ticks": 9936,
          "time": 91.323432,
          "velocity": 0.7795275590551181
        },
        {
          "duration": 0.009191166666667527,
          "durationTicks": 1,
          "midi": 36,
          "name": "C2",
          "ticks": 9984,
          "time": 91.764608,
          "velocity": 0.7795275590551181
        },
        {
          "duration": 0.009191166666667527,
          "durationTicks": 1,
          "midi": 36,
          "name": "C2",
          "ticks": 10032,
          "time": 92.205784,
          "velocity": 0.7795275590551181
        },
        {
          "duration": 0.009191166666653316,
          "durationTicks": 1,
          "midi": 36,
          "name": "C2",
          "ticks": 10080,
          "time": 92.64696,
          "velocity": 0.7795275590551181
        },
        {
          "duration": 0.009191166666653316,
          "durationTicks": 1,
          "midi": 36,
          "name": "C2",
          "ticks": 10128,
          "time": 93.088136,
          "velocity": 0.7795275590551181
        },
        {
          "duration": 0.009191166666653316,
          "durationTicks": 1,
          "midi": 36,
          "name": "C2",
          "ticks": 10176,
          "time": 93.529312,
          "velocity": 0.7795275590551181
        },
        {
          "duration": 0.009191166666653316,
          "durationTicks": 1,
          "midi": 36,
          "name": "C2",
          "ticks": 10224,
          "time": 93.970488,
          "velocity": 0.7795275590551181
        },
        {
          "duration": 0.009191166666653316,
          "durationTicks": 1,
          "midi": 36,
          "name": "C2",
          "ticks": 10272,
          "time": 94.411664,
          "velocity": 0.7795275590551181
        },
        {
          "duration": 0.009191166666653316,
          "durationTicks": 1,
          "midi": 36,
          "name": "C2",
          "ticks": 10320,
          "time": 94.85284,
          "velocity": 0.7795275590551181
        },
        {
          "duration": 0.009191166666653316,
          "durationTicks": 1,
          "midi": 36,
          "name": "C2",
          "ticks": 10368,
          "time": 95.294016,
          "velocity": 0.7795275590551181
        },
        {
          "duration": 0.009191166666653316,
          "durationTicks": 1,
          "midi": 40,
          "name": "E2",
          "ticks": 10368,
          "time": 95.294016,
          "velocity": 0.6062992125984252
        },
        {
          "duration": 0.009191166666667527,
          "durationTicks": 1,
          "midi": 36,
          "name": "C2",
          "ticks": 10416,
          "time": 95.735192,
          "velocity": 0.7795275590551181
        },
        {
          "duration": 0.009191166666667527,
          "durationTicks": 1,
          "midi": 36,
          "name": "C2",
          "ticks": 10464,
          "time": 96.176368,
          "velocity": 0.7795275590551181
        },
        {
          "duration": 0.009191166666667527,
          "durationTicks": 1,
          "midi": 36,
          "name": "C2",
          "ticks": 10512,
          "time": 96.617544,
          "velocity": 0.7795275590551181
        },
        {
          "duration": 0.009191166666667527,
          "durationTicks": 1,
          "midi": 36,
          "name": "C2",
          "ticks": 10560,
          "time": 97.05872,
          "velocity": 0.7795275590551181
        },
        {
          "duration": 0.009191166666653316,
          "durationTicks": 1,
          "midi": 36,
          "name": "C2",
          "ticks": 10608,
          "time": 97.499896,
          "velocity": 0.7795275590551181
        },
        {
          "duration": 0.009191166666653316,
          "durationTicks": 1,
          "midi": 36,
          "name": "C2",
          "ticks": 10656,
          "time": 97.941072,
          "velocity": 0.7795275590551181
        },
        {
          "duration": 0.009191166666653316,
          "durationTicks": 1,
          "midi": 36,
          "name": "C2",
          "ticks": 10704,
          "time": 98.382248,
          "velocity": 0.7795275590551181
        },
        {
          "duration": 0.009191166666653316,
          "durationTicks": 1,
          "midi": 36,
          "name": "C2",
          "ticks": 10752,
          "time": 98.823424,
          "velocity": 0.7795275590551181
        },
        {
          "duration": 0.009191166666653316,
          "durationTicks": 1,
          "midi": 36,
          "name": "C2",
          "ticks": 10800,
          "time": 99.2646,
          "velocity": 0.7795275590551181
        },
        {
          "duration": 0.009191166666653316,
          "durationTicks": 1,
          "midi": 36,
          "name": "C2",
          "ticks": 10848,
          "time": 99.705776,
          "velocity": 0.7795275590551181
        },
        {
          "duration": 0.009191166666653316,
          "durationTicks": 1,
          "midi": 36,
          "name": "C2",
          "ticks": 10896,
          "time": 100.146952,
          "velocity": 0.7795275590551181
        },
        {
          "duration": 0.009191166666667527,
          "durationTicks": 1,
          "midi": 36,
          "name": "C2",
          "ticks": 10944,
          "time": 100.588128,
          "velocity": 0.7795275590551181
        },
        {
          "duration": 0.009191166666667527,
          "durationTicks": 1,
          "midi": 36,
          "name": "C2",
          "ticks": 10992,
          "time": 101.029304,
          "velocity": 0.7795275590551181
        },
        {
          "duration": 0.009191166666653316,
          "durationTicks": 1,
          "midi": 36,
          "name": "C2",
          "ticks": 11016,
          "time": 101.249892,
          "velocity": 0.6929133858267716
        },
        {
          "duration": 0.009191166666667527,
          "durationTicks": 1,
          "midi": 43,
          "name": "G2",
          "ticks": 11040,
          "time": 101.47048,
          "velocity": 0.5354330708661418
        },
        {
          "duration": 0.009191166666667527,
          "durationTicks": 1,
          "midi": 36,
          "name": "C2",
          "ticks": 11040,
          "time": 101.47048,
          "velocity": 0.6692913385826772
        },
        {
          "duration": 0.009191166666653316,
          "durationTicks": 1,
          "midi": 36,
          "name": "C2",
          "ticks": 11064,
          "time": 101.691068,
          "velocity": 0.7559055118110236
        },
        {
          "duration": 0.009191166666653316,
          "durationTicks": 1,
          "midi": 41,
          "name": "F2",
          "ticks": 11088,
          "time": 101.91165600000001,
          "velocity": 0.5354330708661418
        },
        {
          "duration": 0.009191166666653316,
          "durationTicks": 1,
          "midi": 36,
          "name": "C2",
          "ticks": 11088,
          "time": 101.91165600000001,
          "velocity": 0.7795275590551181
        },
        {
          "duration": 0.009191166666653316,
          "durationTicks": 1,
          "midi": 36,
          "name": "C2",
          "ticks": 11112,
          "time": 102.132244,
          "velocity": 0.6929133858267716
        },
        {
          "duration": 0.009191166666653316,
          "durationTicks": 1,
          "midi": 40,
          "name": "E2",
          "ticks": 11136,
          "time": 102.352832,
          "velocity": 0.6220472440944882
        },
        {
          "duration": 0.009191166666653316,
          "durationTicks": 1,
          "midi": 36,
          "name": "C2",
          "ticks": 11184,
          "time": 102.794008,
          "velocity": 0.7795275590551181
        },
        {
          "duration": 0.009191166666653316,
          "durationTicks": 1,
          "midi": 40,
          "name": "E2",
          "ticks": 11232,
          "time": 103.235184,
          "velocity": 0.6062992125984252
        },
        {
          "duration": 0.009191166666667527,
          "durationTicks": 1,
          "midi": 36,
          "name": "C2",
          "ticks": 11304,
          "time": 103.896948,
          "velocity": 0.7795275590551181
        },
        {
          "duration": 0.009191166666653316,
          "durationTicks": 1,
          "midi": 40,
          "name": "E2",
          "ticks": 11328,
          "time": 104.117536,
          "velocity": 0.6062992125984252
        },
        {
          "duration": 0.009191166666653316,
          "durationTicks": 1,
          "midi": 36,
          "name": "C2",
          "ticks": 11376,
          "time": 104.558712,
          "velocity": 0.7795275590551181
        },
        {
          "duration": 0.009191166666667527,
          "durationTicks": 1,
          "midi": 40,
          "name": "E2",
          "ticks": 11424,
          "time": 104.999888,
          "velocity": 0.6062992125984252
        },
        {
          "duration": 0.009191166666653316,
          "durationTicks": 1,
          "midi": 36,
          "name": "C2",
          "ticks": 11496,
          "time": 105.661652,
          "velocity": 0.7795275590551181
        },
        {
          "duration": 0.009191166666667527,
          "durationTicks": 1,
          "midi": 40,
          "name": "E2",
          "ticks": 11520,
          "time": 105.88224,
          "velocity": 0.6062992125984252
        },
        {
          "duration": 0.009191166666667527,
          "durationTicks": 1,
          "midi": 36,
          "name": "C2",
          "ticks": 11568,
          "time": 106.323416,
          "velocity": 0.7795275590551181
        },
        {
          "duration": 0.009191166666653316,
          "durationTicks": 1,
          "midi": 40,
          "name": "E2",
          "ticks": 11616,
          "time": 106.76459200000001,
          "velocity": 0.6062992125984252
        },
        {
          "duration": 0.009191166666667527,
          "durationTicks": 1,
          "midi": 36,
          "name": "C2",
          "ticks": 11688,
          "time": 107.426356,
          "velocity": 0.7795275590551181
        },
        {
          "duration": 0.009191166666653316,
          "durationTicks": 1,
          "midi": 40,
          "name": "E2",
          "ticks": 11712,
          "time": 107.646944,
          "velocity": 0.6062992125984252
        },
        {
          "duration": 0.009191166666653316,
          "durationTicks": 1,
          "midi": 36,
          "name": "C2",
          "ticks": 11760,
          "time": 108.08812,
          "velocity": 0.7795275590551181
        },
        {
          "duration": 0.009191166666653316,
          "durationTicks": 1,
          "midi": 40,
          "name": "E2",
          "ticks": 11808,
          "time": 108.529296,
          "velocity": 0.6062992125984252
        },
        {
          "duration": 0.009191166666653316,
          "durationTicks": 1,
          "midi": 36,
          "name": "C2",
          "ticks": 11880,
          "time": 109.19106000000001,
          "velocity": 0.7795275590551181
        },
        {
          "duration": 0.009191166666653316,
          "durationTicks": 1,
          "midi": 40,
          "name": "E2",
          "ticks": 11904,
          "time": 109.411648,
          "velocity": 0.6062992125984252
        },
        {
          "duration": 0.009191166666667527,
          "durationTicks": 1,
          "midi": 36,
          "name": "C2",
          "ticks": 11952,
          "time": 109.852824,
          "velocity": 0.7795275590551181
        },
        {
          "duration": 0.009191166666667527,
          "durationTicks": 1,
          "midi": 40,
          "name": "E2",
          "ticks": 12000,
          "time": 110.294,
          "velocity": 0.6062992125984252
        },
        {
          "duration": 0.009191166666653316,
          "durationTicks": 1,
          "midi": 36,
          "name": "C2",
          "ticks": 12072,
          "time": 110.955764,
          "velocity": 0.7795275590551181
        },
        {
          "duration": 0.009191166666667527,
          "durationTicks": 1,
          "midi": 40,
          "name": "E2",
          "ticks": 12096,
          "time": 111.176352,
          "velocity": 0.6062992125984252
        },
        {
          "duration": 0.009191166666653316,
          "durationTicks": 1,
          "midi": 36,
          "name": "C2",
          "ticks": 12144,
          "time": 111.61752800000001,
          "velocity": 0.7795275590551181
        },
        {
          "duration": 0.009191166666653316,
          "durationTicks": 1,
          "midi": 40,
          "name": "E2",
          "ticks": 12192,
          "time": 112.058704,
          "velocity": 0.6062992125984252
        },
        {
          "duration": 0.009191166666667527,
          "durationTicks": 1,
          "midi": 36,
          "name": "C2",
          "ticks": 12264,
          "time": 112.720468,
          "velocity": 0.7795275590551181
        },
        {
          "duration": 0.009191166666653316,
          "durationTicks": 1,
          "midi": 40,
          "name": "E2",
          "ticks": 12288,
          "time": 112.941056,
          "velocity": 0.6062992125984252
        },
        {
          "duration": 0.009191166666653316,
          "durationTicks": 1,
          "midi": 36,
          "name": "C2",
          "ticks": 12336,
          "time": 113.382232,
          "velocity": 0.7795275590551181
        },
        {
          "duration": 0.009191166666653316,
          "durationTicks": 1,
          "midi": 40,
          "name": "E2",
          "ticks": 12384,
          "time": 113.823408,
          "velocity": 0.6062992125984252
        },
        {
          "duration": 0.009191166666653316,
          "durationTicks": 1,
          "midi": 36,
          "name": "C2",
          "ticks": 12456,
          "time": 114.485172,
          "velocity": 0.7795275590551181
        },
        {
          "duration": 0.009191166666681738,
          "durationTicks": 1,
          "midi": 40,
          "name": "E2",
          "ticks": 12480,
          "time": 114.70575999999998,
          "velocity": 0.6062992125984252
        },
        {
          "duration": 0.009191166666681738,
          "durationTicks": 1,
          "midi": 36,
          "name": "C2",
          "ticks": 12504,
          "time": 114.92634799999999,
          "velocity": 0.7795275590551181
        },
        {
          "duration": 0.009191166666681738,
          "durationTicks": 1,
          "midi": 36,
          "name": "C2",
          "ticks": 12552,
          "time": 115.36752399999999,
          "velocity": 0.7795275590551181
        },
        {
          "duration": 0.009191166666681738,
          "durationTicks": 1,
          "midi": 40,
          "name": "E2",
          "ticks": 12576,
          "time": 115.588112,
          "velocity": 0.6062992125984252
        },
        {
          "duration": 0.009191166666681738,
          "durationTicks": 1,
          "midi": 40,
          "name": "E2",
          "ticks": 12600,
          "time": 115.80869999999999,
          "velocity": 0.2204724409448819
        },
        {
          "duration": 0.009191166666681738,
          "durationTicks": 1,
          "midi": 40,
          "name": "E2",
          "ticks": 12612,
          "time": 115.91899399999998,
          "velocity": 0.2440944881889764
        },
        {
          "duration": 0.009191166666681738,
          "durationTicks": 1,
          "midi": 36,
          "name": "C2",
          "ticks": 12624,
          "time": 116.029288,
          "velocity": 0.7795275590551181
        },
        {
          "duration": 0.009191166666681738,
          "durationTicks": 1,
          "midi": 40,
          "name": "E2",
          "ticks": 12624,
          "time": 116.029288,
          "velocity": 0.6062992125984252
        },
        {
          "duration": 0.009191166666681738,
          "durationTicks": 1,
          "midi": 40,
          "name": "E2",
          "ticks": 12636,
          "time": 116.13958199999999,
          "velocity": 0.3228346456692913
        },
        {
          "duration": 0.009191166666681738,
          "durationTicks": 1,
          "midi": 47,
          "name": "B2",
          "ticks": 12648,
          "time": 116.24987599999999,
          "velocity": 0.6771653543307087
        },
        {
          "duration": 0.009191166666695949,
          "durationTicks": 1,
          "midi": 47,
          "name": "B2",
          "ticks": 12660,
          "time": 116.36016999999998,
          "velocity": 0.5196850393700787
        },
        {
          "duration": 0.009191166666681738,
          "durationTicks": 1,
          "midi": 36,
          "name": "C2",
          "ticks": 12672,
          "time": 116.47046399999999,
          "velocity": 0.7795275590551181
        },
        {
          "duration": 0.009191166666681738,
          "durationTicks": 1,
          "midi": 43,
          "name": "G2",
          "ticks": 12672,
          "time": 116.47046399999999,
          "velocity": 0.6692913385826772
        },
        {
          "duration": 0.009191166666681738,
          "durationTicks": 1,
          "midi": 43,
          "name": "G2",
          "ticks": 12684,
          "time": 116.58075799999999,
          "velocity": 0.6614173228346457
        },
        {
          "duration": 0.009191166666681738,
          "durationTicks": 1,
          "midi": 41,
          "name": "F2",
          "ticks": 12696,
          "time": 116.69105199999998,
          "velocity": 0.6771653543307087
        },
        {
          "duration": 0.009191166666681738,
          "durationTicks": 1,
          "midi": 41,
          "name": "F2",
          "ticks": 12708,
          "time": 116.801346,
          "velocity": 0.6377952755905512
        },
        {
          "duration": 0.009191166666681738,
          "durationTicks": 1,
          "midi": 36,
          "name": "C2",
          "ticks": 12720,
          "time": 116.91163999999999,
          "velocity": 0.7795275590551181
        },
        {
          "duration": 0.009191166666681738,
          "durationTicks": 1,
          "midi": 40,
          "name": "E2",
          "ticks": 12768,
          "time": 117.35281599999999,
          "velocity": 0.6062992125984252
        },
        {
          "duration": 0.009191166666681738,
          "durationTicks": 1,
          "midi": 36,
          "name": "C2",
          "ticks": 12840,
          "time": 118.01458,
          "velocity": 0.7795275590551181
        },
        {
          "duration": 0.009191166666681738,
          "durationTicks": 1,
          "midi": 40,
          "name": "E2",
          "ticks": 12864,
          "time": 118.23516799999999,
          "velocity": 0.6062992125984252
        },
        {
          "duration": 0.009191166666681738,
          "durationTicks": 1,
          "midi": 36,
          "name": "C2",
          "ticks": 12912,
          "time": 118.67634399999999,
          "velocity": 0.7795275590551181
        },
        {
          "duration": 0.009191166666681738,
          "durationTicks": 1,
          "midi": 40,
          "name": "E2",
          "ticks": 12960,
          "time": 119.11751999999998,
          "velocity": 0.6062992125984252
        },
        {
          "duration": 0.009191166666681738,
          "durationTicks": 1,
          "midi": 36,
          "name": "C2",
          "ticks": 13032,
          "time": 119.77928399999999,
          "velocity": 0.7795275590551181
        },
        {
          "duration": 0.009191166666695949,
          "durationTicks": 1,
          "midi": 40,
          "name": "E2",
          "ticks": 13056,
          "time": 119.99987199999998,
          "velocity": 0.6062992125984252
        },
        {
          "duration": 0.009191166666681738,
          "durationTicks": 1,
          "midi": 36,
          "name": "C2",
          "ticks": 13104,
          "time": 120.441048,
          "velocity": 0.7795275590551181
        },
        {
          "duration": 0.009191166666681738,
          "durationTicks": 1,
          "midi": 40,
          "name": "E2",
          "ticks": 13152,
          "time": 120.882224,
          "velocity": 0.6062992125984252
        },
        {
          "duration": 0.009191166666681738,
          "durationTicks": 1,
          "midi": 36,
          "name": "C2",
          "ticks": 13224,
          "time": 121.54398799999998,
          "velocity": 0.7795275590551181
        },
        {
          "duration": 0.009191166666681738,
          "durationTicks": 1,
          "midi": 40,
          "name": "E2",
          "ticks": 13248,
          "time": 121.76457599999999,
          "velocity": 0.6062992125984252
        },
        {
          "duration": 0.009191166666695949,
          "durationTicks": 1,
          "midi": 36,
          "name": "C2",
          "ticks": 13272,
          "time": 121.98516399999998,
          "velocity": 0.7795275590551181
        },
        {
          "duration": 0.009191166666695949,
          "durationTicks": 1,
          "midi": 36,
          "name": "C2",
          "ticks": 13320,
          "time": 122.42633999999998,
          "velocity": 0.7795275590551181
        },
        {
          "duration": 0.009191166666681738,
          "durationTicks": 1,
          "midi": 40,
          "name": "E2",
          "ticks": 13344,
          "time": 122.64692799999999,
          "velocity": 0.6062992125984252
        },
        {
          "duration": 0.009191166666681738,
          "durationTicks": 1,
          "midi": 36,
          "name": "C2",
          "ticks": 13392,
          "time": 123.08810399999999,
          "velocity": 0.7165354330708661
        },
        {
          "duration": 0.009191166666681738,
          "durationTicks": 1,
          "midi": 36,
          "name": "C2",
          "ticks": 13416,
          "time": 123.308692,
          "velocity": 0.6141732283464567
        },
        {
          "duration": 0.009191166666681738,
          "durationTicks": 1,
          "midi": 40,
          "name": "E2",
          "ticks": 13440,
          "time": 123.52927999999999,
          "velocity": 0.6062992125984252
        },
        {
          "duration": 0.009191166666681738,
          "durationTicks": 1,
          "midi": 43,
          "name": "G2",
          "ticks": 13464,
          "time": 123.74986799999999,
          "velocity": 0.6535433070866141
        },
        {
          "duration": 0.009191166666681738,
          "durationTicks": 1,
          "midi": 41,
          "name": "F2",
          "ticks": 13473,
          "time": 123.83258849999999,
          "velocity": 0.3543307086614173
        },
        {
          "duration": 0.009191166666681738,
          "durationTicks": 1,
          "midi": 36,
          "name": "C2",
          "ticks": 13488,
          "time": 123.97045599999998,
          "velocity": 0.7795275590551181
        },
        {
          "duration": 0.009191166666695949,
          "durationTicks": 1,
          "midi": 40,
          "name": "E2",
          "ticks": 13536,
          "time": 124.41163199999998,
          "velocity": 0.6062992125984252
        },
        {
          "duration": 0.009191166666681738,
          "durationTicks": 1,
          "midi": 36,
          "name": "C2",
          "ticks": 13560,
          "time": 124.63221999999999,
          "velocity": 0.7795275590551181
        },
        {
          "duration": 0.009191166666681738,
          "durationTicks": 1,
          "midi": 36,
          "name": "C2",
          "ticks": 13608,
          "time": 125.07339599999999,
          "velocity": 0.7795275590551181
        },
        {
          "duration": 0.009191166666681738,
          "durationTicks": 1,
          "midi": 40,
          "name": "E2",
          "ticks": 13632,
          "time": 125.293984,
          "velocity": 0.6062992125984252
        },
        {
          "duration": 0.009191166666681738,
          "durationTicks": 1,
          "midi": 36,
          "name": "C2",
          "ticks": 13656,
          "time": 125.51457199999999,
          "velocity": 0.7795275590551181
        },
        {
          "duration": 0.009191166666681738,
          "durationTicks": 1,
          "midi": 40,
          "name": "E2",
          "ticks": 13728,
          "time": 126.17633599999999,
          "velocity": 0.6062992125984252
        },
        {
          "duration": 0.009191166666681738,
          "durationTicks": 1,
          "midi": 36,
          "name": "C2",
          "ticks": 13752,
          "time": 126.39692399999998,
          "velocity": 0.7795275590551181
        },
        {
          "duration": 0.009191166666695949,
          "durationTicks": 1,
          "midi": 36,
          "name": "C2",
          "ticks": 13800,
          "time": 126.83809999999998,
          "velocity": 0.7795275590551181
        },
        {
          "duration": 0.009191166666681738,
          "durationTicks": 1,
          "midi": 40,
          "name": "E2",
          "ticks": 13824,
          "time": 127.05868799999999,
          "velocity": 0.6062992125984252
        },
        {
          "duration": 0.009191166666681738,
          "durationTicks": 1,
          "midi": 41,
          "name": "F2",
          "ticks": 13848,
          "time": 127.279276,
          "velocity": 0.5984251968503937
        },
        {
          "duration": 0.009191166666681738,
          "durationTicks": 1,
          "midi": 36,
          "name": "C2",
          "ticks": 13872,
          "time": 127.49986399999999,
          "velocity": 0.7795275590551181
        },
        {
          "duration": 0.009191166666681738,
          "durationTicks": 1,
          "midi": 40,
          "name": "E2",
          "ticks": 13920,
          "time": 127.94103999999999,
          "velocity": 0.6062992125984252
        },
        {
          "duration": 0.009191166666681738,
          "durationTicks": 1,
          "midi": 36,
          "name": "C2",
          "ticks": 13944,
          "time": 128.161628,
          "velocity": 0.6850393700787402
        },
        {
          "duration": 0.009191166666681738,
          "durationTicks": 1,
          "midi": 40,
          "name": "E2",
          "ticks": 13968,
          "time": 128.382216,
          "velocity": 0.6062992125984252
        },
        {
          "duration": 0.009191166666681738,
          "durationTicks": 1,
          "midi": 47,
          "name": "B2",
          "ticks": 13992,
          "time": 128.602804,
          "velocity": 0.5984251968503937
        },
        {
          "duration": 0.009191166666681738,
          "durationTicks": 1,
          "midi": 47,
          "name": "B2",
          "ticks": 14004,
          "time": 128.713098,
          "velocity": 0.5275590551181102
        },
        {
          "duration": 0.009191166666681738,
          "durationTicks": 1,
          "midi": 43,
          "name": "G2",
          "ticks": 14016,
          "time": 128.82339199999998,
          "velocity": 0.48031496062992124
        },
        {
          "duration": 0.009191166666681738,
          "durationTicks": 1,
          "midi": 43,
          "name": "G2",
          "ticks": 14028,
          "time": 128.933686,
          "velocity": 0.6141732283464567
        },
        {
          "duration": 0.009191166666681738,
          "durationTicks": 1,
          "midi": 36,
          "name": "C2",
          "ticks": 14040,
          "time": 129.04398,
          "velocity": 0.7795275590551181
        },
        {
          "duration": 0.009191166666681738,
          "durationTicks": 1,
          "midi": 36,
          "name": "C2",
          "ticks": 14088,
          "time": 129.485156,
          "velocity": 0.7086614173228346
        },
        {
          "duration": 0.009191166666681738,
          "durationTicks": 1,
          "midi": 40,
          "name": "E2",
          "ticks": 14112,
          "time": 129.705744,
          "velocity": 0.6062992125984252
        },
        {
          "duration": 0.009191166666681738,
          "durationTicks": 1,
          "midi": 36,
          "name": "C2",
          "ticks": 14136,
          "time": 129.926332,
          "velocity": 0.6141732283464567
        },
        {
          "duration": 0.009191166666681738,
          "durationTicks": 1,
          "midi": 40,
          "name": "E2",
          "ticks": 14160,
          "time": 130.14692,
          "velocity": 0.47244094488188976
        },
        {
          "duration": 0.009191166666681738,
          "durationTicks": 1,
          "midi": 43,
          "name": "G2",
          "ticks": 14160,
          "time": 130.14692,
          "velocity": 0.6614173228346457
        },
        {
          "duration": 0.009191166666681738,
          "durationTicks": 1,
          "midi": 40,
          "name": "E2",
          "ticks": 14184,
          "time": 130.36750800000002,
          "velocity": 0.33070866141732286
        },
        {
          "duration": 0.009191166666681738,
          "durationTicks": 1,
          "midi": 41,
          "name": "F2",
          "ticks": 14184,
          "time": 130.36750800000002,
          "velocity": 0.6850393700787402
        },
        {
          "duration": 0.009191166666681738,
          "durationTicks": 1,
          "midi": 40,
          "name": "E2",
          "ticks": 14208,
          "time": 130.588096,
          "velocity": 0.5196850393700787
        },
        {
          "duration": 0.009191166666681738,
          "durationTicks": 1,
          "midi": 41,
          "name": "F2",
          "ticks": 14208,
          "time": 130.588096,
          "velocity": 0.6850393700787402
        },
        {
          "duration": 0.009191166666681738,
          "durationTicks": 1,
          "midi": 40,
          "name": "E2",
          "ticks": 14232,
          "time": 130.808684,
          "velocity": 0.6062992125984252
        },
        {
          "duration": 0.009191166666681738,
          "durationTicks": 1,
          "midi": 41,
          "name": "F2",
          "ticks": 14232,
          "time": 130.808684,
          "velocity": 0.7165354330708661
        },
        {
          "duration": 0.009191166666681738,
          "durationTicks": 1,
          "midi": 36,
          "name": "C2",
          "ticks": 14256,
          "time": 131.029272,
          "velocity": 0.7795275590551181
        },
        {
          "duration": 0.009191166666681738,
          "durationTicks": 1,
          "midi": 37,
          "name": "C#2",
          "ticks": 14304,
          "time": 131.470448,
          "velocity": 0.6220472440944882
        },
        {
          "duration": 0.009191166666681738,
          "durationTicks": 1,
          "midi": 37,
          "name": "C#2",
          "ticks": 14352,
          "time": 131.91162400000002,
          "velocity": 0.6377952755905512
        },
        {
          "duration": 0.009191166666681738,
          "durationTicks": 1,
          "midi": 37,
          "name": "C#2",
          "ticks": 14400,
          "time": 132.3528,
          "velocity": 0.5511811023622047
        },
        {
          "duration": 0.009191166666681738,
          "durationTicks": 1,
          "midi": 36,
          "name": "C2",
          "ticks": 14424,
          "time": 132.573388,
          "velocity": 0.7086614173228346
        },
        {
          "duration": 0.009191166666681738,
          "durationTicks": 1,
          "midi": 37,
          "name": "C#2",
          "ticks": 14448,
          "time": 132.79397600000001,
          "velocity": 0.6062992125984252
        },
        {
          "duration": 0.009191166666681738,
          "durationTicks": 1,
          "midi": 36,
          "name": "C2",
          "ticks": 14448,
          "time": 132.79397600000001,
          "velocity": 0.7795275590551181
        },
        {
          "duration": 0.009191166666681738,
          "durationTicks": 1,
          "midi": 37,
          "name": "C#2",
          "ticks": 14496,
          "time": 133.235152,
          "velocity": 0.5669291338582677
        },
        {
          "duration": 0.009191166666681738,
          "durationTicks": 1,
          "midi": 36,
          "name": "C2",
          "ticks": 14520,
          "time": 133.45574,
          "velocity": 0.7322834645669292
        },
        {
          "duration": 0.009191166666681738,
          "durationTicks": 1,
          "midi": 37,
          "name": "C#2",
          "ticks": 14544,
          "time": 133.676328,
          "velocity": 0.6614173228346457
        },
        {
          "duration": 0.009191166666681738,
          "durationTicks": 1,
          "midi": 36,
          "name": "C2",
          "ticks": 14568,
          "time": 133.896916,
          "velocity": 0.6141732283464567
        },
        {
          "duration": 0.009191166666681738,
          "durationTicks": 1,
          "midi": 37,
          "name": "C#2",
          "ticks": 14592,
          "time": 134.117504,
          "velocity": 0.5511811023622047
        },
        {
          "duration": 0.009191166666681738,
          "durationTicks": 1,
          "midi": 36,
          "name": "C2",
          "ticks": 14616,
          "time": 134.33809200000002,
          "velocity": 0.7086614173228346
        },
        {
          "duration": 0.009191166666681738,
          "durationTicks": 1,
          "midi": 37,
          "name": "C#2",
          "ticks": 14640,
          "time": 134.55868,
          "velocity": 0.5748031496062992
        },
        {
          "duration": 0.009191166666681738,
          "durationTicks": 1,
          "midi": 36,
          "name": "C2",
          "ticks": 14640,
          "time": 134.55868,
          "velocity": 0.7795275590551181
        },
        {
          "duration": 0.009191166666653316,
          "durationTicks": 1,
          "midi": 37,
          "name": "C#2",
          "ticks": 14690,
          "time": 135.01823833333336,
          "velocity": 0.6062992125984252
        },
        {
          "duration": 0.009191166666681738,
          "durationTicks": 1,
          "midi": 36,
          "name": "C2",
          "ticks": 14712,
          "time": 135.22044400000001,
          "velocity": 0.7322834645669292
        },
        {
          "duration": 0.009191166666681738,
          "durationTicks": 1,
          "midi": 37,
          "name": "C#2",
          "ticks": 14736,
          "time": 135.441032,
          "velocity": 0.4645669291338583
        },
        {
          "duration": 0.009191166666681738,
          "durationTicks": 1,
          "midi": 40,
          "name": "E2",
          "ticks": 14736,
          "time": 135.441032,
          "velocity": 0.6141732283464567
        },
        {
          "duration": 0.009191166666681738,
          "durationTicks": 1,
          "midi": 47,
          "name": "B2",
          "ticks": 14760,
          "time": 135.66162,
          "velocity": 0.6850393700787402
        },
        {
          "duration": 0.009191166666681738,
          "durationTicks": 1,
          "midi": 43,
          "name": "G2",
          "ticks": 14784,
          "time": 135.882208,
          "velocity": 0.6929133858267716
        },
        {
          "duration": 0.009191166666681738,
          "durationTicks": 1,
          "midi": 36,
          "name": "C2",
          "ticks": 14808,
          "time": 136.102796,
          "velocity": 0.7795275590551181
        },
        {
          "duration": 0.009191166666681738,
          "durationTicks": 1,
          "midi": 37,
          "name": "C#2",
          "ticks": 14832,
          "time": 136.323384,
          "velocity": 0.5511811023622047
        },
        {
          "duration": 0.009191166666681738,
          "durationTicks": 1,
          "midi": 36,
          "name": "C2",
          "ticks": 14856,
          "time": 136.543972,
          "velocity": 0.7322834645669292
        },
        {
          "duration": 0.009191166666681738,
          "durationTicks": 1,
          "midi": 40,
          "name": "E2",
          "ticks": 14880,
          "time": 136.76456000000002,
          "velocity": 0.6062992125984252
        },
        {
          "duration": 0.009191166666653316,
          "durationTicks": 1,
          "midi": 37,
          "name": "C#2",
          "ticks": 14881,
          "time": 136.7737511666667,
          "velocity": 0.6062992125984252
        },
        {
          "duration": 0.009191166666681738,
          "durationTicks": 1,
          "midi": 36,
          "name": "C2",
          "ticks": 14928,
          "time": 137.205736,
          "velocity": 0.7322834645669292
        },
        {
          "duration": 0.009191166666681738,
          "durationTicks": 1,
          "midi": 40,
          "name": "E2",
          "ticks": 14928,
          "time": 137.205736,
          "velocity": 0.6062992125984252
        },
        {
          "duration": 0.009191166666681738,
          "durationTicks": 1,
          "midi": 40,
          "name": "E2",
          "ticks": 14940,
          "time": 137.31603,
          "velocity": 0.5275590551181102
        },
        {
          "duration": 0.009191166666681738,
          "durationTicks": 1,
          "midi": 47,
          "name": "B2",
          "ticks": 14952,
          "time": 137.426324,
          "velocity": 0.5669291338582677
        },
        {
          "duration": 0.009191166666681738,
          "durationTicks": 1,
          "midi": 47,
          "name": "B2",
          "ticks": 14964,
          "time": 137.536618,
          "velocity": 0.6850393700787402
        },
        {
          "duration": 0.009191166666681738,
          "durationTicks": 1,
          "midi": 36,
          "name": "C2",
          "ticks": 14976,
          "time": 137.64691200000001,
          "velocity": 0.7795275590551181
        },
        {
          "duration": 0.009191166666681738,
          "durationTicks": 1,
          "midi": 43,
          "name": "G2",
          "ticks": 14976,
          "time": 137.64691200000001,
          "velocity": 0.6141732283464567
        },
        {
          "duration": 0.009191166666681738,
          "durationTicks": 1,
          "midi": 43,
          "name": "G2",
          "ticks": 14988,
          "time": 137.757206,
          "velocity": 0.7007874015748031
        },
        {
          "duration": 0.009191166666681738,
          "durationTicks": 1,
          "midi": 41,
          "name": "F2",
          "ticks": 15000,
          "time": 137.8675,
          "velocity": 0.6220472440944882
        },
        {
          "duration": 0.009191166666681738,
          "durationTicks": 1,
          "midi": 41,
          "name": "F2",
          "ticks": 15012,
          "time": 137.97779400000002,
          "velocity": 0.6535433070866141
        },
        {
          "duration": 0.009191166666681738,
          "durationTicks": 1,
          "midi": 36,
          "name": "C2",
          "ticks": 15024,
          "time": 138.088088,
          "velocity": 0.7795275590551181
        },
        {
          "duration": 0.009191166666681738,
          "durationTicks": 1,
          "midi": 36,
          "name": "C2",
          "ticks": 15072,
          "time": 138.529264,
          "velocity": 0.7795275590551181
        },
        {
          "duration": 0.009191166666681738,
          "durationTicks": 1,
          "midi": 36,
          "name": "C2",
          "ticks": 15120,
          "time": 138.97044,
          "velocity": 0.7795275590551181
        },
        {
          "duration": 0.009191166666681738,
          "durationTicks": 1,
          "midi": 36,
          "name": "C2",
          "ticks": 15168,
          "time": 139.411616,
          "velocity": 0.7795275590551181
        },
        {
          "duration": 0.009191166666681738,
          "durationTicks": 1,
          "midi": 36,
          "name": "C2",
          "ticks": 15216,
          "time": 139.852792,
          "velocity": 0.7795275590551181
        },
        {
          "duration": 0.009191166666681738,
          "durationTicks": 1,
          "midi": 36,
          "name": "C2",
          "ticks": 15264,
          "time": 140.293968,
          "velocity": 0.7795275590551181
        },
        {
          "duration": 0.009191166666681738,
          "durationTicks": 1,
          "midi": 36,
          "name": "C2",
          "ticks": 15312,
          "time": 140.735144,
          "velocity": 0.7795275590551181
        },
        {
          "duration": 0.009191166666681738,
          "durationTicks": 1,
          "midi": 36,
          "name": "C2",
          "ticks": 15360,
          "time": 141.17632,
          "velocity": 0.7795275590551181
        },
        {
          "duration": 0.009191166666681738,
          "durationTicks": 1,
          "midi": 36,
          "name": "C2",
          "ticks": 15408,
          "time": 141.61749600000002,
          "velocity": 0.7795275590551181
        },
        {
          "duration": 0.009191166666681738,
          "durationTicks": 1,
          "midi": 36,
          "name": "C2",
          "ticks": 15456,
          "time": 142.058672,
          "velocity": 0.7795275590551181
        },
        {
          "duration": 0.009191166666681738,
          "durationTicks": 1,
          "midi": 36,
          "name": "C2",
          "ticks": 15504,
          "time": 142.49984800000001,
          "velocity": 0.7795275590551181
        },
        {
          "duration": 0.009191166666681738,
          "durationTicks": 1,
          "midi": 36,
          "name": "C2",
          "ticks": 15552,
          "time": 142.941024,
          "velocity": 0.7795275590551181
        },
        {
          "duration": 0.009191166666681738,
          "durationTicks": 1,
          "midi": 36,
          "name": "C2",
          "ticks": 15600,
          "time": 143.3822,
          "velocity": 0.7795275590551181
        },
        {
          "duration": 0.009191166666681738,
          "durationTicks": 1,
          "midi": 36,
          "name": "C2",
          "ticks": 15648,
          "time": 143.823376,
          "velocity": 0.7795275590551181
        },
        {
          "duration": 0.009191166666681738,
          "durationTicks": 1,
          "midi": 36,
          "name": "C2",
          "ticks": 15696,
          "time": 144.264552,
          "velocity": 0.7795275590551181
        },
        {
          "duration": 0.009191166666681738,
          "durationTicks": 1,
          "midi": 36,
          "name": "C2",
          "ticks": 15744,
          "time": 144.705728,
          "velocity": 0.7795275590551181
        },
        {
          "duration": 0.009191166666681738,
          "durationTicks": 1,
          "midi": 36,
          "name": "C2",
          "ticks": 15792,
          "time": 145.146904,
          "velocity": 0.7795275590551181
        },
        {
          "duration": 0.00919116666671016,
          "durationTicks": 1,
          "midi": 36,
          "name": "C2",
          "ticks": 15840,
          "time": 145.58808,
          "velocity": 0.7795275590551181
        },
        {
          "duration": 0.009191166666681738,
          "durationTicks": 1,
          "midi": 36,
          "name": "C2",
          "ticks": 15888,
          "time": 146.029256,
          "velocity": 0.7795275590551181
        },
        {
          "duration": 0.009191166666681738,
          "durationTicks": 1,
          "midi": 36,
          "name": "C2",
          "ticks": 15936,
          "time": 146.47043200000002,
          "velocity": 0.7795275590551181
        },
        {
          "duration": 0.009191166666681738,
          "durationTicks": 1,
          "midi": 36,
          "name": "C2",
          "ticks": 15984,
          "time": 146.911608,
          "velocity": 0.7795275590551181
        },
        {
          "duration": 0.009191166666681738,
          "durationTicks": 1,
          "midi": 36,
          "name": "C2",
          "ticks": 16032,
          "time": 147.352784,
          "velocity": 0.7795275590551181
        },
        {
          "duration": 0.009191166666681738,
          "durationTicks": 1,
          "midi": 36,
          "name": "C2",
          "ticks": 16080,
          "time": 147.79396,
          "velocity": 0.7795275590551181
        },
        {
          "duration": 0.009191166666681738,
          "durationTicks": 1,
          "midi": 36,
          "name": "C2",
          "ticks": 16128,
          "time": 148.235136,
          "velocity": 0.7795275590551181
        },
        {
          "duration": 0.009191166666681738,
          "durationTicks": 1,
          "midi": 36,
          "name": "C2",
          "ticks": 16176,
          "time": 148.676312,
          "velocity": 0.7086614173228346
        },
        {
          "duration": 0.009191166666681738,
          "durationTicks": 1,
          "midi": 36,
          "name": "C2",
          "ticks": 16224,
          "time": 149.117488,
          "velocity": 0.7795275590551181
        },
        {
          "duration": 0.009191166666681738,
          "durationTicks": 1,
          "midi": 43,
          "name": "G2",
          "ticks": 16224,
          "time": 149.117488,
          "velocity": 0.6062992125984252
        },
        {
          "duration": 0.009191166666681738,
          "durationTicks": 1,
          "midi": 43,
          "name": "G2",
          "ticks": 16248,
          "time": 149.338076,
          "velocity": 0.5275590551181102
        },
        {
          "duration": 0.009191166666681738,
          "durationTicks": 1,
          "midi": 36,
          "name": "C2",
          "ticks": 16272,
          "time": 149.558664,
          "velocity": 0.7795275590551181
        },
        {
          "duration": 0.009191166666681738,
          "durationTicks": 1,
          "midi": 43,
          "name": "G2",
          "ticks": 16272,
          "time": 149.558664,
          "velocity": 0.6062992125984252
        },
        {
          "duration": 0.009191166666681738,
          "durationTicks": 1,
          "midi": 40,
          "name": "E2",
          "ticks": 16273,
          "time": 149.56785516666667,
          "velocity": 0.2283464566929134
        },
        {
          "duration": 0.009191166666681738,
          "durationTicks": 1,
          "midi": 43,
          "name": "G2",
          "ticks": 16296,
          "time": 149.779252,
          "velocity": 0.5275590551181102
        },
        {
          "duration": 0.009191166666681738,
          "durationTicks": 1,
          "midi": 40,
          "name": "E2",
          "ticks": 16296,
          "time": 149.779252,
          "velocity": 0.33858267716535434
        },
        {
          "duration": 0.009191166666681738,
          "durationTicks": 1,
          "midi": 36,
          "name": "C2",
          "ticks": 16320,
          "time": 149.99984,
          "velocity": 0.7795275590551181
        },
        {
          "duration": 0.009191166666681738,
          "durationTicks": 1,
          "midi": 43,
          "name": "G2",
          "ticks": 16320,
          "time": 149.99984,
          "velocity": 0.6299212598425197
        },
        {
          "duration": 0.009191166666653316,
          "durationTicks": 1,
          "midi": 40,
          "name": "E2",
          "ticks": 16321,
          "time": 150.0090311666667,
          "velocity": 0.3779527559055118
        },
        {
          "duration": 0.009191166666681738,
          "durationTicks": 1,
          "midi": 40,
          "name": "E2",
          "ticks": 16344,
          "time": 150.220428,
          "velocity": 0.5196850393700787
        },
        {
          "duration": 0.00919116666671016,
          "durationTicks": 1,
          "midi": 41,
          "name": "F2",
          "ticks": 16368,
          "time": 150.441016,
          "velocity": 0.6141732283464567
        },
        {
          "duration": 0.009191166666681738,
          "durationTicks": 1,
          "midi": 36,
          "name": "C2",
          "ticks": 16392,
          "time": 150.661604,
          "velocity": 0.7007874015748031
        },
        {
          "duration": 0.009191166666681738,
          "durationTicks": 1,
          "midi": 41,
          "name": "F2",
          "ticks": 16392,
          "time": 150.661604,
          "velocity": 0.4409448818897638
        },
        {
          "duration": 0.009191166666681738,
          "durationTicks": 1,
          "midi": 41,
          "name": "F2",
          "ticks": 16398,
          "time": 150.71675100000002,
          "velocity": 0.3543307086614173
        },
        {
          "duration": 0.009191166666681738,
          "durationTicks": 1,
          "midi": 36,
          "name": "C2",
          "ticks": 16404,
          "time": 150.771898,
          "velocity": 0.5511811023622047
        },
        {
          "duration": 0.009191166666681738,
          "durationTicks": 1,
          "midi": 41,
          "name": "F2",
          "ticks": 16404,
          "time": 150.771898,
          "velocity": 0.4251968503937008
        },
        {
          "duration": 0.009191166666681738,
          "durationTicks": 1,
          "midi": 40,
          "name": "E2",
          "ticks": 16416,
          "time": 150.882192,
          "velocity": 0.5905511811023622
        },
        {
          "duration": 0.009191166666681738,
          "durationTicks": 1,
          "midi": 43,
          "name": "G2",
          "ticks": 16416,
          "time": 150.882192,
          "velocity": 0.5511811023622047
        },
        {
          "duration": 0.009191166666681738,
          "durationTicks": 1,
          "midi": 36,
          "name": "C2",
          "ticks": 16464,
          "time": 151.32336800000002,
          "velocity": 0.7795275590551181
        },
        {
          "duration": 0.009191166666681738,
          "durationTicks": 1,
          "midi": 40,
          "name": "E2",
          "ticks": 16464,
          "time": 151.32336800000002,
          "velocity": 0.5748031496062992
        },
        {
          "duration": 0.009191166666681738,
          "durationTicks": 1,
          "midi": 50,
          "name": "D3",
          "ticks": 16476,
          "time": 151.433662,
          "velocity": 0.6692913385826772
        },
        {
          "duration": 0.009191166666681738,
          "durationTicks": 1,
          "midi": 47,
          "name": "B2",
          "ticks": 16488,
          "time": 151.543956,
          "velocity": 0.6220472440944882
        },
        {
          "duration": 0.00919116666671016,
          "durationTicks": 1,
          "midi": 43,
          "name": "G2",
          "ticks": 16500,
          "time": 151.65425,
          "velocity": 0.5984251968503937
        },
        {
          "duration": 0.009191166666681738,
          "durationTicks": 1,
          "midi": 36,
          "name": "C2",
          "ticks": 16512,
          "time": 151.764544,
          "velocity": 0.7086614173228346
        },
        {
          "duration": 0.009191166666681738,
          "durationTicks": 1,
          "midi": 41,
          "name": "F2",
          "ticks": 16512,
          "time": 151.764544,
          "velocity": 0.6771653543307087
        },
        {
          "duration": 0.009191166666653316,
          "durationTicks": 1,
          "midi": 40,
          "name": "E2",
          "ticks": 16513,
          "time": 151.77373516666668,
          "velocity": 0.3858267716535433
        },
        {
          "duration": 0.009191166666681738,
          "durationTicks": 1,
          "midi": 41,
          "name": "F2",
          "ticks": 16524,
          "time": 151.874838,
          "velocity": 0.5039370078740157
        },
        {
          "duration": 0.009191166666681738,
          "durationTicks": 1,
          "midi": 41,
          "name": "F2",
          "ticks": 16536,
          "time": 151.985132,
          "velocity": 0.6535433070866141
        },
        {
          "duration": 0.009191166666681738,
          "durationTicks": 1,
          "midi": 41,
          "name": "F2",
          "ticks": 16548,
          "time": 152.095426,
          "velocity": 0.6220472440944882
        },
        {
          "duration": 0.009191166666681738,
          "durationTicks": 1,
          "midi": 36,
          "name": "C2",
          "ticks": 16560,
          "time": 152.20572,
          "velocity": 0.7795275590551181
        },
        {
          "duration": 0.009191166666653316,
          "durationTicks": 1,
          "midi": 43,
          "name": "G2",
          "ticks": 16586,
          "time": 152.44469033333334,
          "velocity": 0.6614173228346457
        },
        {
          "duration": 0.009191166666653316,
          "durationTicks": 1,
          "midi": 43,
          "name": "G2",
          "ticks": 16597,
          "time": 152.5457931666667,
          "velocity": 0.6692913385826772
        },
        {
          "duration": 0.009191166666681738,
          "durationTicks": 1,
          "midi": 36,
          "name": "C2",
          "ticks": 16608,
          "time": 152.646896,
          "velocity": 0.7795275590551181
        },
        {
          "duration": 0.009191166666681738,
          "durationTicks": 1,
          "midi": 36,
          "name": "C2",
          "ticks": 16656,
          "time": 153.088072,
          "velocity": 0.7795275590551181
        },
        {
          "duration": 0.009191166666681738,
          "durationTicks": 1,
          "midi": 40,
          "name": "E2",
          "ticks": 16704,
          "time": 153.529248,
          "velocity": 0.6062992125984252
        },
        {
          "duration": 0.009191166666681738,
          "durationTicks": 1,
          "midi": 36,
          "name": "C2",
          "ticks": 16704,
          "time": 153.529248,
          "velocity": 0.7795275590551181
        },
        {
          "duration": 0.009191166666681738,
          "durationTicks": 1,
          "midi": 36,
          "name": "C2",
          "ticks": 16752,
          "time": 153.970424,
          "velocity": 0.7795275590551181
        },
        {
          "duration": 0.009191166666681738,
          "durationTicks": 1,
          "midi": 40,
          "name": "E2",
          "ticks": 16800,
          "time": 154.4116,
          "velocity": 0.6062992125984252
        },
        {
          "duration": 0.009191166666681738,
          "durationTicks": 1,
          "midi": 36,
          "name": "C2",
          "ticks": 16800,
          "time": 154.4116,
          "velocity": 0.7795275590551181
        },
        {
          "duration": 0.009191166666681738,
          "durationTicks": 1,
          "midi": 36,
          "name": "C2",
          "ticks": 16848,
          "time": 154.852776,
          "velocity": 0.7795275590551181
        },
        {
          "duration": 0.00919116666671016,
          "durationTicks": 1,
          "midi": 40,
          "name": "E2",
          "ticks": 16896,
          "time": 155.293952,
          "velocity": 0.6062992125984252
        },
        {
          "duration": 0.00919116666671016,
          "durationTicks": 1,
          "midi": 36,
          "name": "C2",
          "ticks": 16896,
          "time": 155.293952,
          "velocity": 0.7795275590551181
        },
        {
          "duration": 0.009191166666653316,
          "durationTicks": 1,
          "midi": 40,
          "name": "E2",
          "ticks": 16922,
          "time": 155.53292233333335,
          "velocity": 0.2283464566929134
        },
        {
          "duration": 0.009191166666681738,
          "durationTicks": 1,
          "midi": 40,
          "name": "E2",
          "ticks": 16933,
          "time": 155.63402516666667,
          "velocity": 0.5748031496062992
        },
        {
          "duration": 0.009191166666681738,
          "durationTicks": 1,
          "midi": 36,
          "name": "C2",
          "ticks": 16944,
          "time": 155.735128,
          "velocity": 0.7795275590551181
        },
        {
          "duration": 0.009191166666681738,
          "durationTicks": 1,
          "midi": 40,
          "name": "E2",
          "ticks": 16992,
          "time": 156.17630400000002,
          "velocity": 0.6062992125984252
        },
        {
          "duration": 0.009191166666681738,
          "durationTicks": 1,
          "midi": 36,
          "name": "C2",
          "ticks": 16992,
          "time": 156.17630400000002,
          "velocity": 0.7795275590551181
        },
        {
          "duration": 0.009191166666681738,
          "durationTicks": 1,
          "midi": 36,
          "name": "C2",
          "ticks": 17040,
          "time": 156.61748,
          "velocity": 0.7795275590551181
        },
        {
          "duration": 0.009191166666681738,
          "durationTicks": 1,
          "midi": 40,
          "name": "E2",
          "ticks": 17088,
          "time": 157.058656,
          "velocity": 0.6062992125984252
        },
        {
          "duration": 0.009191166666681738,
          "durationTicks": 1,
          "midi": 36,
          "name": "C2",
          "ticks": 17088,
          "time": 157.058656,
          "velocity": 0.7795275590551181
        },
        {
          "duration": 0.009191166666681738,
          "durationTicks": 1,
          "midi": 36,
          "name": "C2",
          "ticks": 17136,
          "time": 157.499832,
          "velocity": 0.7795275590551181
        },
        {
          "duration": 0.009191166666681738,
          "durationTicks": 1,
          "midi": 40,
          "name": "E2",
          "ticks": 17184,
          "time": 157.941008,
          "velocity": 0.5275590551181102
        },
        {
          "duration": 0.009191166666681738,
          "durationTicks": 1,
          "midi": 36,
          "name": "C2",
          "ticks": 17184,
          "time": 157.941008,
          "velocity": 0.7795275590551181
        },
        {
          "duration": 0.009191166666681738,
          "durationTicks": 1,
          "midi": 36,
          "name": "C2",
          "ticks": 17232,
          "time": 158.382184,
          "velocity": 0.7795275590551181
        },
        {
          "duration": 0.009191166666681738,
          "durationTicks": 1,
          "midi": 40,
          "name": "E2",
          "ticks": 17280,
          "time": 158.82336,
          "velocity": 0.6062992125984252
        },
        {
          "duration": 0.009191166666681738,
          "durationTicks": 1,
          "midi": 36,
          "name": "C2",
          "ticks": 17280,
          "time": 158.82336,
          "velocity": 0.7795275590551181
        },
        {
          "duration": 0.009191166666681738,
          "durationTicks": 1,
          "midi": 47,
          "name": "B2",
          "ticks": 17306,
          "time": 159.06233033333334,
          "velocity": 0.6299212598425197
        },
        {
          "duration": 0.009191166666653316,
          "durationTicks": 1,
          "midi": 47,
          "name": "B2",
          "ticks": 17317,
          "time": 159.1634331666667,
          "velocity": 0.6141732283464567
        },
        {
          "duration": 0.009191166666681738,
          "durationTicks": 1,
          "midi": 36,
          "name": "C2",
          "ticks": 17328,
          "time": 159.264536,
          "velocity": 0.7795275590551181
        },
        {
          "duration": 0.009191166666681738,
          "durationTicks": 1,
          "midi": 40,
          "name": "E2",
          "ticks": 17376,
          "time": 159.705712,
          "velocity": 0.6062992125984252
        },
        {
          "duration": 0.009191166666681738,
          "durationTicks": 1,
          "midi": 36,
          "name": "C2",
          "ticks": 17376,
          "time": 159.705712,
          "velocity": 0.7795275590551181
        },
        {
          "duration": 0.009191166666681738,
          "durationTicks": 1,
          "midi": 36,
          "name": "C2",
          "ticks": 17424,
          "time": 160.14688800000002,
          "velocity": 0.7795275590551181
        },
        {
          "duration": 0.009191166666681738,
          "durationTicks": 1,
          "midi": 40,
          "name": "E2",
          "ticks": 17472,
          "time": 160.588064,
          "velocity": 0.6062992125984252
        },
        {
          "duration": 0.009191166666681738,
          "durationTicks": 1,
          "midi": 36,
          "name": "C2",
          "ticks": 17472,
          "time": 160.588064,
          "velocity": 0.7795275590551181
        },
        {
          "duration": 0.009191166666681738,
          "durationTicks": 1,
          "midi": 36,
          "name": "C2",
          "ticks": 17520,
          "time": 161.02924000000002,
          "velocity": 0.7795275590551181
        },
        {
          "duration": 0.009191166666681738,
          "durationTicks": 1,
          "midi": 40,
          "name": "E2",
          "ticks": 17568,
          "time": 161.470416,
          "velocity": 0.6062992125984252
        },
        {
          "duration": 0.009191166666681738,
          "durationTicks": 1,
          "midi": 36,
          "name": "C2",
          "ticks": 17568,
          "time": 161.470416,
          "velocity": 0.7795275590551181
        },
        {
          "duration": 0.009191166666681738,
          "durationTicks": 1,
          "midi": 36,
          "name": "C2",
          "ticks": 17616,
          "time": 161.911592,
          "velocity": 0.7795275590551181
        },
        {
          "duration": 0.009191166666681738,
          "durationTicks": 1,
          "midi": 40,
          "name": "E2",
          "ticks": 17664,
          "time": 162.352768,
          "velocity": 0.6062992125984252
        },
        {
          "duration": 0.009191166666681738,
          "durationTicks": 1,
          "midi": 36,
          "name": "C2",
          "ticks": 17664,
          "time": 162.352768,
          "velocity": 0.7795275590551181
        },
        {
          "duration": 0.009191166666653316,
          "durationTicks": 1,
          "midi": 40,
          "name": "E2",
          "ticks": 17690,
          "time": 162.59173833333335,
          "velocity": 0.2283464566929134
        },
        {
          "duration": 0.009191166666653316,
          "durationTicks": 1,
          "midi": 40,
          "name": "E2",
          "ticks": 17701,
          "time": 162.69284116666668,
          "velocity": 0.5748031496062992
        },
        {
          "duration": 0.009191166666681738,
          "durationTicks": 1,
          "midi": 36,
          "name": "C2",
          "ticks": 17712,
          "time": 162.793944,
          "velocity": 0.7795275590551181
        },
        {
          "duration": 0.009191166666681738,
          "durationTicks": 1,
          "midi": 40,
          "name": "E2",
          "ticks": 17760,
          "time": 163.23512,
          "velocity": 0.49606299212598426
        },
        {
          "duration": 0.009191166666681738,
          "durationTicks": 1,
          "midi": 36,
          "name": "C2",
          "ticks": 17760,
          "time": 163.23512,
          "velocity": 0.7795275590551181
        },
        {
          "duration": 0.009191166666681738,
          "durationTicks": 1,
          "midi": 36,
          "name": "C2",
          "ticks": 17808,
          "time": 163.676296,
          "velocity": 0.6141732283464567
        },
        {
          "duration": 0.009191166666681738,
          "durationTicks": 1,
          "midi": 40,
          "name": "E2",
          "ticks": 17856,
          "time": 164.117472,
          "velocity": 0.6062992125984252
        },
        {
          "duration": 0.009191166666681738,
          "durationTicks": 1,
          "midi": 36,
          "name": "C2",
          "ticks": 17856,
          "time": 164.117472,
          "velocity": 0.7795275590551181
        },
        {
          "duration": 0.009191166666653316,
          "durationTicks": 1,
          "midi": 40,
          "name": "E2",
          "ticks": 17882,
          "time": 164.35644233333335,
          "velocity": 0.2125984251968504
        },
        {
          "duration": 0.009191166666681738,
          "durationTicks": 1,
          "midi": 40,
          "name": "E2",
          "ticks": 17893,
          "time": 164.45754516666668,
          "velocity": 0.47244094488188976
        },
        {
          "duration": 0.009191166666681738,
          "durationTicks": 1,
          "midi": 36,
          "name": "C2",
          "ticks": 17904,
          "time": 164.558648,
          "velocity": 0.7795275590551181
        },
        {
          "duration": 0.009191166666681738,
          "durationTicks": 1,
          "midi": 40,
          "name": "E2",
          "ticks": 17928,
          "time": 164.779236,
          "velocity": 0.5826771653543307
        },
        {
          "duration": 0.009191166666681738,
          "durationTicks": 1,
          "midi": 40,
          "name": "E2",
          "ticks": 17952,
          "time": 164.99982400000002,
          "velocity": 0.5826771653543307
        },
        {
          "duration": 0.009191166666681738,
          "durationTicks": 1,
          "midi": 36,
          "name": "C2",
          "ticks": 17952,
          "time": 164.99982400000002,
          "velocity": 0.7795275590551181
        },
        {
          "duration": 0.009191166666681738,
          "durationTicks": 1,
          "midi": 40,
          "name": "E2",
          "ticks": 18000,
          "time": 165.441,
          "velocity": 0.5275590551181102
        },
        {
          "duration": 0.009191166666681738,
          "durationTicks": 1,
          "midi": 36,
          "name": "C2",
          "ticks": 18000,
          "time": 165.441,
          "velocity": 0.7795275590551181
        },
        {
          "duration": 0.009191166666681738,
          "durationTicks": 1,
          "midi": 47,
          "name": "B2",
          "ticks": 18012,
          "time": 165.551294,
          "velocity": 0.6692913385826772
        },
        {
          "duration": 0.009191166666681738,
          "durationTicks": 1,
          "midi": 43,
          "name": "G2",
          "ticks": 18024,
          "time": 165.661588,
          "velocity": 0.6377952755905512
        },
        {
          "duration": 0.009191166666681738,
          "durationTicks": 1,
          "midi": 41,
          "name": "F2",
          "ticks": 18036,
          "time": 165.771882,
          "velocity": 0.6929133858267716
        },
        {
          "duration": 0.009191166666681738,
          "durationTicks": 1,
          "midi": 40,
          "name": "E2",
          "ticks": 18047,
          "time": 165.87298483333333,
          "velocity": 0.6062992125984252
        },
        {
          "duration": 0.009191166666681738,
          "durationTicks": 1,
          "midi": 36,
          "name": "C2",
          "ticks": 18048,
          "time": 165.88217600000002,
          "velocity": 0.7795275590551181
        },
        {
          "duration": 0.009191166666681738,
          "durationTicks": 1,
          "midi": 40,
          "name": "E2",
          "ticks": 18072,
          "time": 166.102764,
          "velocity": 0.36220472440944884
        },
        {
          "duration": 0.009191166666681738,
          "durationTicks": 1,
          "midi": 41,
          "name": "F2",
          "ticks": 18072,
          "time": 166.102764,
          "velocity": 0.5984251968503937
        },
        {
          "duration": 0.009191166666681738,
          "durationTicks": 1,
          "midi": 41,
          "name": "F2",
          "ticks": 18084,
          "time": 166.21305800000002,
          "velocity": 0.6456692913385826
        },
        {
          "duration": 0.009191166666681738,
          "durationTicks": 1,
          "midi": 36,
          "name": "C2",
          "ticks": 18096,
          "time": 166.323352,
          "velocity": 0.7795275590551181
        },
        {
          "duration": 0.009191166666681738,
          "durationTicks": 1,
          "midi": 40,
          "name": "E2",
          "ticks": 18144,
          "time": 166.764528,
          "velocity": 0.6062992125984252
        },
        {
          "duration": 0.009191166666681738,
          "durationTicks": 1,
          "midi": 36,
          "name": "C2",
          "ticks": 18144,
          "time": 166.764528,
          "velocity": 0.7795275590551181
        },
        {
          "duration": 0.009191166666681738,
          "durationTicks": 1,
          "midi": 36,
          "name": "C2",
          "ticks": 18192,
          "time": 167.205704,
          "velocity": 0.7795275590551181
        },
        {
          "duration": 0.009191166666681738,
          "durationTicks": 1,
          "midi": 40,
          "name": "E2",
          "ticks": 18240,
          "time": 167.64688,
          "velocity": 0.6062992125984252
        },
        {
          "duration": 0.009191166666681738,
          "durationTicks": 1,
          "midi": 36,
          "name": "C2",
          "ticks": 18240,
          "time": 167.64688,
          "velocity": 0.7795275590551181
        },
        {
          "duration": 0.009191166666681738,
          "durationTicks": 1,
          "midi": 36,
          "name": "C2",
          "ticks": 18288,
          "time": 168.088056,
          "velocity": 0.7795275590551181
        },
        {
          "duration": 0.009191166666681738,
          "durationTicks": 1,
          "midi": 40,
          "name": "E2",
          "ticks": 18336,
          "time": 168.529232,
          "velocity": 0.6062992125984252
        },
        {
          "duration": 0.009191166666681738,
          "durationTicks": 1,
          "midi": 36,
          "name": "C2",
          "ticks": 18336,
          "time": 168.529232,
          "velocity": 0.7795275590551181
        },
        {
          "duration": 0.009191166666681738,
          "durationTicks": 1,
          "midi": 36,
          "name": "C2",
          "ticks": 18384,
          "time": 168.970408,
          "velocity": 0.7795275590551181
        },
        {
          "duration": 0.009191166666681738,
          "durationTicks": 1,
          "midi": 40,
          "name": "E2",
          "ticks": 18432,
          "time": 169.411584,
          "velocity": 0.6062992125984252
        },
        {
          "duration": 0.009191166666681738,
          "durationTicks": 1,
          "midi": 36,
          "name": "C2",
          "ticks": 18432,
          "time": 169.411584,
          "velocity": 0.7795275590551181
        },
        {
          "duration": 0.009191166666681738,
          "durationTicks": 1,
          "midi": 36,
          "name": "C2",
          "ticks": 18480,
          "time": 169.85276000000002,
          "velocity": 0.7795275590551181
        },
        {
          "duration": 0.009191166666681738,
          "durationTicks": 1,
          "midi": 40,
          "name": "E2",
          "ticks": 18528,
          "time": 170.293936,
          "velocity": 0.6062992125984252
        },
        {
          "duration": 0.009191166666681738,
          "durationTicks": 1,
          "midi": 36,
          "name": "C2",
          "ticks": 18528,
          "time": 170.293936,
          "velocity": 0.7795275590551181
        },
        {
          "duration": 0.009191166666681738,
          "durationTicks": 1,
          "midi": 36,
          "name": "C2",
          "ticks": 18576,
          "time": 170.73511200000002,
          "velocity": 0.7795275590551181
        },
        {
          "duration": 0.009191166666681738,
          "durationTicks": 1,
          "midi": 40,
          "name": "E2",
          "ticks": 18624,
          "time": 171.176288,
          "velocity": 0.6062992125984252
        },
        {
          "duration": 0.009191166666681738,
          "durationTicks": 1,
          "midi": 36,
          "name": "C2",
          "ticks": 18624,
          "time": 171.176288,
          "velocity": 0.7795275590551181
        },
        {
          "duration": 0.009191166666681738,
          "durationTicks": 1,
          "midi": 36,
          "name": "C2",
          "ticks": 18672,
          "time": 171.617464,
          "velocity": 0.7795275590551181
        },
        {
          "duration": 0.009191166666681738,
          "durationTicks": 1,
          "midi": 40,
          "name": "E2",
          "ticks": 18720,
          "time": 172.05864,
          "velocity": 0.6062992125984252
        },
        {
          "duration": 0.009191166666681738,
          "durationTicks": 1,
          "midi": 36,
          "name": "C2",
          "ticks": 18720,
          "time": 172.05864,
          "velocity": 0.7795275590551181
        },
        {
          "duration": 0.009191166666681738,
          "durationTicks": 1,
          "midi": 36,
          "name": "C2",
          "ticks": 18768,
          "time": 172.499816,
          "velocity": 0.7795275590551181
        },
        {
          "duration": 0.009191166666681738,
          "durationTicks": 1,
          "midi": 40,
          "name": "E2",
          "ticks": 18816,
          "time": 172.940992,
          "velocity": 0.6062992125984252
        },
        {
          "duration": 0.009191166666681738,
          "durationTicks": 1,
          "midi": 36,
          "name": "C2",
          "ticks": 18816,
          "time": 172.940992,
          "velocity": 0.7795275590551181
        },
        {
          "duration": 0.009191166666681738,
          "durationTicks": 1,
          "midi": 47,
          "name": "B2",
          "ticks": 18840,
          "time": 173.16158000000001,
          "velocity": 0.6929133858267716
        },
        {
          "duration": 0.009191166666681738,
          "durationTicks": 1,
          "midi": 47,
          "name": "B2",
          "ticks": 18852,
          "time": 173.271874,
          "velocity": 0.6692913385826772
        },
        {
          "duration": 0.009191166666681738,
          "durationTicks": 1,
          "midi": 36,
          "name": "C2",
          "ticks": 18864,
          "time": 173.382168,
          "velocity": 0.7795275590551181
        },
        {
          "duration": 0.00919116666671016,
          "durationTicks": 1,
          "midi": 40,
          "name": "E2",
          "ticks": 18912,
          "time": 173.823344,
          "velocity": 0.6062992125984252
        },
        {
          "duration": 0.00919116666671016,
          "durationTicks": 1,
          "midi": 36,
          "name": "C2",
          "ticks": 18912,
          "time": 173.823344,
          "velocity": 0.7795275590551181
        },
        {
          "duration": 0.009191166666681738,
          "durationTicks": 1,
          "midi": 36,
          "name": "C2",
          "ticks": 18960,
          "time": 174.26452,
          "velocity": 0.7795275590551181
        },
        {
          "duration": 0.009191166666681738,
          "durationTicks": 1,
          "midi": 40,
          "name": "E2",
          "ticks": 19008,
          "time": 174.70569600000002,
          "velocity": 0.5039370078740157
        },
        {
          "duration": 0.009191166666681738,
          "durationTicks": 1,
          "midi": 36,
          "name": "C2",
          "ticks": 19008,
          "time": 174.70569600000002,
          "velocity": 0.7795275590551181
        },
        {
          "duration": 0.009191166666681738,
          "durationTicks": 1,
          "midi": 36,
          "name": "C2",
          "ticks": 19056,
          "time": 175.146872,
          "velocity": 0.7795275590551181
        },
        {
          "duration": 0.009191166666681738,
          "durationTicks": 1,
          "midi": 40,
          "name": "E2",
          "ticks": 19104,
          "time": 175.58804800000001,
          "velocity": 0.6062992125984252
        },
        {
          "duration": 0.009191166666681738,
          "durationTicks": 1,
          "midi": 36,
          "name": "C2",
          "ticks": 19104,
          "time": 175.58804800000001,
          "velocity": 0.7795275590551181
        },
        {
          "duration": 0.009191166666681738,
          "durationTicks": 1,
          "midi": 36,
          "name": "C2",
          "ticks": 19152,
          "time": 176.029224,
          "velocity": 0.7795275590551181
        },
        {
          "duration": 0.009191166666681738,
          "durationTicks": 1,
          "midi": 40,
          "name": "E2",
          "ticks": 19200,
          "time": 176.4704,
          "velocity": 0.6062992125984252
        },
        {
          "duration": 0.009191166666681738,
          "durationTicks": 1,
          "midi": 36,
          "name": "C2",
          "ticks": 19200,
          "time": 176.4704,
          "velocity": 0.7795275590551181
        },
        {
          "duration": 0.009191166666681738,
          "durationTicks": 1,
          "midi": 40,
          "name": "E2",
          "ticks": 19224,
          "time": 176.690988,
          "velocity": 0.2283464566929134
        },
        {
          "duration": 0.009191166666681738,
          "durationTicks": 1,
          "midi": 40,
          "name": "E2",
          "ticks": 19236,
          "time": 176.80128200000001,
          "velocity": 0.5275590551181102
        },
        {
          "duration": 0.009191166666681738,
          "durationTicks": 1,
          "midi": 36,
          "name": "C2",
          "ticks": 19248,
          "time": 176.911576,
          "velocity": 0.7795275590551181
        },
        {
          "duration": 0.009191166666681738,
          "durationTicks": 1,
          "midi": 40,
          "name": "E2",
          "ticks": 19296,
          "time": 177.352752,
          "velocity": 0.6062992125984252
        },
        {
          "duration": 0.009191166666681738,
          "durationTicks": 1,
          "midi": 36,
          "name": "C2",
          "ticks": 19296,
          "time": 177.352752,
          "velocity": 0.7795275590551181
        },
        {
          "duration": 0.009191166666681738,
          "durationTicks": 1,
          "midi": 36,
          "name": "C2",
          "ticks": 19344,
          "time": 177.793928,
          "velocity": 0.7795275590551181
        },
        {
          "duration": 0.009191166666681738,
          "durationTicks": 1,
          "midi": 40,
          "name": "E2",
          "ticks": 19368,
          "time": 178.01451600000001,
          "velocity": 0.25984251968503935
        },
        {
          "duration": 0.009191166666681738,
          "durationTicks": 1,
          "midi": 40,
          "name": "E2",
          "ticks": 19392,
          "time": 178.235104,
          "velocity": 0.6062992125984252
        },
        {
          "duration": 0.009191166666681738,
          "durationTicks": 1,
          "midi": 36,
          "name": "C2",
          "ticks": 19392,
          "time": 178.235104,
          "velocity": 0.7795275590551181
        },
        {
          "duration": 0.009191166666653316,
          "durationTicks": 1,
          "midi": 40,
          "name": "E2",
          "ticks": 19429,
          "time": 178.5751771666667,
          "velocity": 0.4645669291338583
        },
        {
          "duration": 0.00919116666671016,
          "durationTicks": 1,
          "midi": 36,
          "name": "C2",
          "ticks": 19440,
          "time": 178.67628,
          "velocity": 0.7795275590551181
        },
        {
          "duration": 0.009191166666681738,
          "durationTicks": 1,
          "midi": 40,
          "name": "E2",
          "ticks": 19464,
          "time": 178.896868,
          "velocity": 0.5748031496062992
        },
        {
          "duration": 0.009191166666681738,
          "durationTicks": 1,
          "midi": 36,
          "name": "C2",
          "ticks": 19488,
          "time": 179.117456,
          "velocity": 0.7795275590551181
        },
        {
          "duration": 0.009191166666681738,
          "durationTicks": 1,
          "midi": 40,
          "name": "E2",
          "ticks": 19488,
          "time": 179.117456,
          "velocity": 0.5275590551181102
        },
        {
          "duration": 0.009191166666681738,
          "durationTicks": 1,
          "midi": 36,
          "name": "C2",
          "ticks": 19536,
          "time": 179.55863200000002,
          "velocity": 0.7795275590551181
        },
        {
          "duration": 0.009191166666681738,
          "durationTicks": 1,
          "midi": 40,
          "name": "E2",
          "ticks": 19536,
          "time": 179.55863200000002,
          "velocity": 0.6062992125984252
        },
        {
          "duration": 0.009191166666681738,
          "durationTicks": 1,
          "midi": 40,
          "name": "E2",
          "ticks": 19548,
          "time": 179.668926,
          "velocity": 0.5196850393700787
        },
        {
          "duration": 0.009191166666681738,
          "durationTicks": 1,
          "midi": 47,
          "name": "B2",
          "ticks": 19560,
          "time": 179.77922,
          "velocity": 0.6850393700787402
        },
        {
          "duration": 0.00919116666671016,
          "durationTicks": 1,
          "midi": 47,
          "name": "B2",
          "ticks": 19572,
          "time": 179.889514,
          "velocity": 0.6614173228346457
        },
        {
          "duration": 0.009191166666681738,
          "durationTicks": 1,
          "midi": 36,
          "name": "C2",
          "ticks": 19584,
          "time": 179.999808,
          "velocity": 0.7795275590551181
        },
        {
          "duration": 0.009191166666681738,
          "durationTicks": 1,
          "midi": 43,
          "name": "G2",
          "ticks": 19584,
          "time": 179.999808,
          "velocity": 0.5590551181102362
        },
        {
          "duration": 0.009191166666681738,
          "durationTicks": 1,
          "midi": 43,
          "name": "G2",
          "ticks": 19596,
          "time": 180.110102,
          "velocity": 0.6850393700787402
        },
        {
          "duration": 0.009191166666681738,
          "durationTicks": 1,
          "midi": 41,
          "name": "F2",
          "ticks": 19608,
          "time": 180.220396,
          "velocity": 0.5984251968503937
        },
        {
          "duration": 0.009191166666681738,
          "durationTicks": 1,
          "midi": 41,
          "name": "F2",
          "ticks": 19620,
          "time": 180.33069,
          "velocity": 0.6692913385826772
        },
        {
          "duration": 0.009191166666681738,
          "durationTicks": 1,
          "midi": 36,
          "name": "C2",
          "ticks": 19632,
          "time": 180.44098400000001,
          "velocity": 0.7795275590551181
        },
        {
          "duration": 0.009191166666653316,
          "durationTicks": 1,
          "midi": 41,
          "name": "F2",
          "ticks": 19658,
          "time": 180.67995433333334,
          "velocity": 0.6614173228346457
        },
        {
          "duration": 0.009191166666653316,
          "durationTicks": 1,
          "midi": 41,
          "name": "F2",
          "ticks": 19669,
          "time": 180.7810571666667,
          "velocity": 0.6692913385826772
        },
        {
          "duration": 0.009191166666681738,
          "durationTicks": 1,
          "midi": 36,
          "name": "C2",
          "ticks": 19680,
          "time": 180.88216,
          "velocity": 0.7795275590551181
        },
        {
          "duration": 0.009191166666681738,
          "durationTicks": 1,
          "midi": 36,
          "name": "C2",
          "ticks": 19728,
          "time": 181.323336,
          "velocity": 0.7795275590551181
        },
        {
          "duration": 0.009191166666681738,
          "durationTicks": 1,
          "midi": 40,
          "name": "E2",
          "ticks": 19776,
          "time": 181.764512,
          "velocity": 0.6062992125984252
        },
        {
          "duration": 0.009191166666681738,
          "durationTicks": 1,
          "midi": 36,
          "name": "C2",
          "ticks": 19776,
          "time": 181.764512,
          "velocity": 0.7795275590551181
        },
        {
          "duration": 0.009191166666681738,
          "durationTicks": 1,
          "midi": 36,
          "name": "C2",
          "ticks": 19824,
          "time": 182.205688,
          "velocity": 0.7795275590551181
        },
        {
          "duration": 0.009191166666681738,
          "durationTicks": 1,
          "midi": 40,
          "name": "E2",
          "ticks": 19872,
          "time": 182.646864,
          "velocity": 0.6062992125984252
        },
        {
          "duration": 0.009191166666681738,
          "durationTicks": 1,
          "midi": 36,
          "name": "C2",
          "ticks": 19872,
          "time": 182.646864,
          "velocity": 0.7795275590551181
        },
        {
          "duration": 0.009191166666681738,
          "durationTicks": 1,
          "midi": 36,
          "name": "C2",
          "ticks": 19920,
          "time": 183.08804,
          "velocity": 0.7795275590551181
        },
        {
          "duration": 0.00919116666671016,
          "durationTicks": 1,
          "midi": 40,
          "name": "E2",
          "ticks": 19968,
          "time": 183.529216,
          "velocity": 0.6062992125984252
        },
        {
          "duration": 0.00919116666671016,
          "durationTicks": 1,
          "midi": 36,
          "name": "C2",
          "ticks": 19968,
          "time": 183.529216,
          "velocity": 0.7795275590551181
        },
        {
          "duration": 0.009191166666653316,
          "durationTicks": 1,
          "midi": 40,
          "name": "E2",
          "ticks": 19994,
          "time": 183.76818633333335,
          "velocity": 0.2283464566929134
        },
        {
          "duration": 0.009191166666681738,
          "durationTicks": 1,
          "midi": 40,
          "name": "E2",
          "ticks": 20005,
          "time": 183.86928916666668,
          "velocity": 0.5275590551181102
        },
        {
          "duration": 0.009191166666681738,
          "durationTicks": 1,
          "midi": 36,
          "name": "C2",
          "ticks": 20016,
          "time": 183.970392,
          "velocity": 0.7795275590551181
        },
        {
          "duration": 0.009191166666681738,
          "durationTicks": 1,
          "midi": 40,
          "name": "E2",
          "ticks": 20064,
          "time": 184.41156800000002,
          "velocity": 0.6062992125984252
        },
        {
          "duration": 0.009191166666681738,
          "durationTicks": 1,
          "midi": 36,
          "name": "C2",
          "ticks": 20064,
          "time": 184.41156800000002,
          "velocity": 0.7795275590551181
        },
        {
          "duration": 0.009191166666681738,
          "durationTicks": 1,
          "midi": 36,
          "name": "C2",
          "ticks": 20112,
          "time": 184.852744,
          "velocity": 0.7795275590551181
        },
        {
          "duration": 0.009191166666681738,
          "durationTicks": 1,
          "midi": 40,
          "name": "E2",
          "ticks": 20160,
          "time": 185.29392,
          "velocity": 0.6062992125984252
        },
        {
          "duration": 0.009191166666681738,
          "durationTicks": 1,
          "midi": 36,
          "name": "C2",
          "ticks": 20160,
          "time": 185.29392,
          "velocity": 0.7795275590551181
        },
        {
          "duration": 0.009191166666681738,
          "durationTicks": 1,
          "midi": 40,
          "name": "E2",
          "ticks": 20184,
          "time": 185.514508,
          "velocity": 0.1732283464566929
        },
        {
          "duration": 0.009191166666681738,
          "durationTicks": 1,
          "midi": 40,
          "name": "E2",
          "ticks": 20196,
          "time": 185.62480200000002,
          "velocity": 0.2283464566929134
        },
        {
          "duration": 0.009191166666681738,
          "durationTicks": 1,
          "midi": 36,
          "name": "C2",
          "ticks": 20208,
          "time": 185.735096,
          "velocity": 0.7795275590551181
        },
        {
          "duration": 0.009191166666681738,
          "durationTicks": 1,
          "midi": 40,
          "name": "E2",
          "ticks": 20256,
          "time": 186.176272,
          "velocity": 0.6062992125984252
        },
        {
          "duration": 0.009191166666681738,
          "durationTicks": 1,
          "midi": 36,
          "name": "C2",
          "ticks": 20280,
          "time": 186.39686,
          "velocity": 0.7795275590551181
        },
        {
          "duration": 0.009191166666681738,
          "durationTicks": 1,
          "midi": 36,
          "name": "C2",
          "ticks": 20328,
          "time": 186.83803600000002,
          "velocity": 0.7795275590551181
        },
        {
          "duration": 0.009191166666681738,
          "durationTicks": 1,
          "midi": 40,
          "name": "E2",
          "ticks": 20352,
          "time": 187.058624,
          "velocity": 0.6062992125984252
        },
        {
          "duration": 0.009191166666681738,
          "durationTicks": 1,
          "midi": 36,
          "name": "C2",
          "ticks": 20352,
          "time": 187.058624,
          "velocity": 0.7795275590551181
        },
        {
          "duration": 0.009191166666681738,
          "durationTicks": 1,
          "midi": 40,
          "name": "E2",
          "ticks": 20376,
          "time": 187.279212,
          "velocity": 0.2283464566929134
        },
        {
          "duration": 0.009191166666681738,
          "durationTicks": 1,
          "midi": 40,
          "name": "E2",
          "ticks": 20388,
          "time": 187.389506,
          "velocity": 0.5433070866141733
        },
        {
          "duration": 0.009191166666681738,
          "durationTicks": 1,
          "midi": 36,
          "name": "C2",
          "ticks": 20400,
          "time": 187.4998,
          "velocity": 0.7795275590551181
        },
        {
          "duration": 0.009191166666681738,
          "durationTicks": 1,
          "midi": 40,
          "name": "E2",
          "ticks": 20448,
          "time": 187.940976,
          "velocity": 0.6062992125984252
        },
        {
          "duration": 0.009191166666681738,
          "durationTicks": 1,
          "midi": 36,
          "name": "C2",
          "ticks": 20448,
          "time": 187.940976,
          "velocity": 0.7795275590551181
        },
        {
          "duration": 0.009191166666681738,
          "durationTicks": 1,
          "midi": 36,
          "name": "C2",
          "ticks": 20496,
          "time": 188.38215200000002,
          "velocity": 0.7795275590551181
        },
        {
          "duration": 0.009191166666681738,
          "durationTicks": 1,
          "midi": 40,
          "name": "E2",
          "ticks": 20544,
          "time": 188.823328,
          "velocity": 0.6062992125984252
        },
        {
          "duration": 0.009191166666681738,
          "durationTicks": 1,
          "midi": 36,
          "name": "C2",
          "ticks": 20544,
          "time": 188.823328,
          "velocity": 0.7795275590551181
        },
        {
          "duration": 0.009191166666653316,
          "durationTicks": 1,
          "midi": 40,
          "name": "E2",
          "ticks": 20570,
          "time": 189.06229833333336,
          "velocity": 0.2125984251968504
        },
        {
          "duration": 0.009191166666653316,
          "durationTicks": 1,
          "midi": 40,
          "name": "E2",
          "ticks": 20581,
          "time": 189.1634011666667,
          "velocity": 0.5039370078740157
        },
        {
          "duration": 0.009191166666681738,
          "durationTicks": 1,
          "midi": 36,
          "name": "C2",
          "ticks": 20592,
          "time": 189.26450400000002,
          "velocity": 0.7795275590551181
        },
        {
          "duration": 0.009191166666681738,
          "durationTicks": 1,
          "midi": 40,
          "name": "E2",
          "ticks": 20640,
          "time": 189.70568,
          "velocity": 0.49606299212598426
        },
        {
          "duration": 0.009191166666681738,
          "durationTicks": 1,
          "midi": 36,
          "name": "C2",
          "ticks": 20640,
          "time": 189.70568,
          "velocity": 0.7795275590551181
        },
        {
          "duration": 0.009191166666681738,
          "durationTicks": 1,
          "midi": 36,
          "name": "C2",
          "ticks": 20688,
          "time": 190.146856,
          "velocity": 0.7795275590551181
        },
        {
          "duration": 0.009191166666681738,
          "durationTicks": 1,
          "midi": 40,
          "name": "E2",
          "ticks": 20736,
          "time": 190.588032,
          "velocity": 0.6062992125984252
        },
        {
          "duration": 0.009191166666681738,
          "durationTicks": 1,
          "midi": 36,
          "name": "C2",
          "ticks": 20736,
          "time": 190.588032,
          "velocity": 0.7795275590551181
        },
        {
          "duration": 0.009191166666653316,
          "durationTicks": 1,
          "midi": 40,
          "name": "E2",
          "ticks": 20762,
          "time": 190.82700233333335,
          "velocity": 0.2125984251968504
        },
        {
          "duration": 0.009191166666653316,
          "durationTicks": 1,
          "midi": 40,
          "name": "E2",
          "ticks": 20773,
          "time": 190.92810516666668,
          "velocity": 0.5590551181102362
        },
        {
          "duration": 0.009191166666681738,
          "durationTicks": 1,
          "midi": 36,
          "name": "C2",
          "ticks": 20784,
          "time": 191.029208,
          "velocity": 0.7795275590551181
        },
        {
          "duration": 0.009191166666681738,
          "durationTicks": 1,
          "midi": 40,
          "name": "E2",
          "ticks": 20832,
          "time": 191.470384,
          "velocity": 0.6062992125984252
        },
        {
          "duration": 0.009191166666681738,
          "durationTicks": 1,
          "midi": 36,
          "name": "C2",
          "ticks": 20832,
          "time": 191.470384,
          "velocity": 0.7795275590551181
        },
        {
          "duration": 0.009191166666681738,
          "durationTicks": 1,
          "midi": 36,
          "name": "C2",
          "ticks": 20880,
          "time": 191.91156,
          "velocity": 0.7795275590551181
        },
        {
          "duration": 0.009191166666681738,
          "durationTicks": 1,
          "midi": 40,
          "name": "E2",
          "ticks": 20928,
          "time": 192.352736,
          "velocity": 0.6062992125984252
        },
        {
          "duration": 0.009191166666681738,
          "durationTicks": 1,
          "midi": 36,
          "name": "C2",
          "ticks": 20928,
          "time": 192.352736,
          "velocity": 0.7795275590551181
        },
        {
          "duration": 0.009191166666653316,
          "durationTicks": 1,
          "midi": 40,
          "name": "E2",
          "ticks": 20954,
          "time": 192.59170633333335,
          "velocity": 0.2047244094488189
        },
        {
          "duration": 0.009191166666681738,
          "durationTicks": 1,
          "midi": 40,
          "name": "E2",
          "ticks": 20965,
          "time": 192.69280916666668,
          "velocity": 0.5669291338582677
        },
        {
          "duration": 0.009191166666681738,
          "durationTicks": 1,
          "midi": 36,
          "name": "C2",
          "ticks": 20976,
          "time": 192.793912,
          "velocity": 0.7795275590551181
        },
        {
          "duration": 0.009191166666681738,
          "durationTicks": 1,
          "midi": 40,
          "name": "E2",
          "ticks": 21024,
          "time": 193.23508800000002,
          "velocity": 0.6062992125984252
        },
        {
          "duration": 0.009191166666681738,
          "durationTicks": 1,
          "midi": 36,
          "name": "C2",
          "ticks": 21024,
          "time": 193.23508800000002,
          "velocity": 0.7795275590551181
        },
        {
          "duration": 0.009191166666681738,
          "durationTicks": 1,
          "midi": 36,
          "name": "C2",
          "ticks": 21072,
          "time": 193.676264,
          "velocity": 0.7795275590551181
        },
        {
          "duration": 0.009191166666681738,
          "durationTicks": 1,
          "midi": 36,
          "name": "C2",
          "ticks": 21096,
          "time": 193.896852,
          "velocity": 0.6141732283464567
        },
        {
          "duration": 0.009191166666681738,
          "durationTicks": 1,
          "midi": 40,
          "name": "E2",
          "ticks": 21120,
          "time": 194.11744000000002,
          "velocity": 0.6062992125984252
        },
        {
          "duration": 0.009191166666681738,
          "durationTicks": 1,
          "midi": 36,
          "name": "C2",
          "ticks": 21120,
          "time": 194.11744000000002,
          "velocity": 0.6692913385826772
        },
        {
          "duration": 0.009191166666681738,
          "durationTicks": 1,
          "midi": 36,
          "name": "C2",
          "ticks": 21168,
          "time": 194.558616,
          "velocity": 0.7795275590551181
        },
        {
          "duration": 0.009191166666681738,
          "durationTicks": 1,
          "midi": 40,
          "name": "E2",
          "ticks": 21216,
          "time": 194.999792,
          "velocity": 0.6062992125984252
        },
        {
          "duration": 0.009191166666681738,
          "durationTicks": 1,
          "midi": 36,
          "name": "C2",
          "ticks": 21216,
          "time": 194.999792,
          "velocity": 0.7795275590551181
        },
        {
          "duration": 0.009191166666681738,
          "durationTicks": 1,
          "midi": 36,
          "name": "C2",
          "ticks": 21264,
          "time": 195.440968,
          "velocity": 0.7795275590551181
        },
        {
          "duration": 0.009191166666681738,
          "durationTicks": 1,
          "midi": 40,
          "name": "E2",
          "ticks": 21312,
          "time": 195.882144,
          "velocity": 0.6062992125984252
        },
        {
          "duration": 0.009191166666681738,
          "durationTicks": 1,
          "midi": 36,
          "name": "C2",
          "ticks": 21312,
          "time": 195.882144,
          "velocity": 0.7795275590551181
        },
        {
          "duration": 0.009191166666681738,
          "durationTicks": 1,
          "midi": 36,
          "name": "C2",
          "ticks": 21360,
          "time": 196.32332,
          "velocity": 0.7795275590551181
        },
        {
          "duration": 0.009191166666681738,
          "durationTicks": 1,
          "midi": 40,
          "name": "E2",
          "ticks": 21408,
          "time": 196.764496,
          "velocity": 0.6062992125984252
        },
        {
          "duration": 0.009191166666681738,
          "durationTicks": 1,
          "midi": 36,
          "name": "C2",
          "ticks": 21408,
          "time": 196.764496,
          "velocity": 0.7795275590551181
        },
        {
          "duration": 0.009191166666681738,
          "durationTicks": 1,
          "midi": 40,
          "name": "E2",
          "ticks": 21456,
          "time": 197.205672,
          "velocity": 0.5275590551181102
        },
        {
          "duration": 0.009191166666681738,
          "durationTicks": 1,
          "midi": 36,
          "name": "C2",
          "ticks": 21456,
          "time": 197.205672,
          "velocity": 0.7795275590551181
        },
        {
          "duration": 0.009191166666681738,
          "durationTicks": 1,
          "midi": 40,
          "name": "E2",
          "ticks": 21468,
          "time": 197.315966,
          "velocity": 0.6062992125984252
        },
        {
          "duration": 0.009191166666681738,
          "durationTicks": 1,
          "midi": 47,
          "name": "B2",
          "ticks": 21480,
          "time": 197.42626,
          "velocity": 0.6771653543307087
        },
        {
          "duration": 0.009191166666681738,
          "durationTicks": 1,
          "midi": 47,
          "name": "B2",
          "ticks": 21492,
          "time": 197.536554,
          "velocity": 0.6299212598425197
        },
        {
          "duration": 0.009191166666681738,
          "durationTicks": 1,
          "midi": 43,
          "name": "G2",
          "ticks": 21504,
          "time": 197.646848,
          "velocity": 0.6929133858267716
        },
        {
          "duration": 0.009191166666681738,
          "durationTicks": 1,
          "midi": 36,
          "name": "C2",
          "ticks": 21504,
          "time": 197.646848,
          "velocity": 0.7795275590551181
        },
        {
          "duration": 0.009191166666681738,
          "durationTicks": 1,
          "midi": 43,
          "name": "G2",
          "ticks": 21516,
          "time": 197.75714200000002,
          "velocity": 0.6535433070866141
        },
        {
          "duration": 0.009191166666681738,
          "durationTicks": 1,
          "midi": 41,
          "name": "F2",
          "ticks": 21528,
          "time": 197.867436,
          "velocity": 0.6771653543307087
        },
        {
          "duration": 0.009191166666681738,
          "durationTicks": 1,
          "midi": 41,
          "name": "F2",
          "ticks": 21540,
          "time": 197.97773,
          "velocity": 0.6929133858267716
        },
        {
          "duration": 0.009191166666681738,
          "durationTicks": 1,
          "midi": 36,
          "name": "C2",
          "ticks": 21552,
          "time": 198.08802400000002,
          "velocity": 0.7795275590551181
        },
        {
          "duration": 0.009191166666681738,
          "durationTicks": 1,
          "midi": 36,
          "name": "C2",
          "ticks": 21576,
          "time": 198.308612,
          "velocity": 0.7086614173228346
        },
        {
          "duration": 0.009191166666681738,
          "durationTicks": 1,
          "midi": 40,
          "name": "E2",
          "ticks": 21600,
          "time": 198.5292,
          "velocity": 0.5590551181102362
        },
        {
          "duration": 0.009191166666681738,
          "durationTicks": 1,
          "midi": 36,
          "name": "C2",
          "ticks": 21624,
          "time": 198.749788,
          "velocity": 0.7244094488188977
        },
        {
          "duration": 0.009191166666681738,
          "durationTicks": 1,
          "midi": 40,
          "name": "E2",
          "ticks": 21648,
          "time": 198.97037600000002,
          "velocity": 0.5275590551181102
        },
        {
          "duration": 0.009191166666681738,
          "durationTicks": 1,
          "midi": 36,
          "name": "C2",
          "ticks": 21672,
          "time": 199.190964,
          "velocity": 0.7244094488188977
        },
        {
          "duration": 0.009191166666681738,
          "durationTicks": 1,
          "midi": 36,
          "name": "C2",
          "ticks": 21696,
          "time": 199.411552,
          "velocity": 0.7795275590551181
        },
        {
          "duration": 0.00919116666671016,
          "durationTicks": 1,
          "midi": 40,
          "name": "E2",
          "ticks": 21720,
          "time": 199.63214,
          "velocity": 0.6220472440944882
        },
        {
          "duration": 0.009191166666681738,
          "durationTicks": 1,
          "midi": 36,
          "name": "C2",
          "ticks": 21744,
          "time": 199.852728,
          "velocity": 0.5275590551181102
        },
        {
          "duration": 0.009191166666681738,
          "durationTicks": 1,
          "midi": 40,
          "name": "E2",
          "ticks": 21768,
          "time": 200.073316,
          "velocity": 0.29133858267716534
        },
        {
          "duration": 0.009191166666653316,
          "durationTicks": 1,
          "midi": 41,
          "name": "F2",
          "ticks": 21769,
          "time": 200.0825071666667,
          "velocity": 0.4645669291338583
        },
        {
          "duration": 0.009191166666681738,
          "durationTicks": 1,
          "midi": 40,
          "name": "E2",
          "ticks": 21792,
          "time": 200.293904,
          "velocity": 0.33070866141732286
        },
        {
          "duration": 0.009191166666681738,
          "durationTicks": 1,
          "midi": 41,
          "name": "F2",
          "ticks": 21793,
          "time": 200.30309516666668,
          "velocity": 0.5354330708661418
        },
        {
          "duration": 0.009191166666681738,
          "durationTicks": 1,
          "midi": 40,
          "name": "E2",
          "ticks": 21816,
          "time": 200.51449200000002,
          "velocity": 0.3779527559055118
        },
        {
          "duration": 0.009191166666653316,
          "durationTicks": 1,
          "midi": 41,
          "name": "F2",
          "ticks": 21817,
          "time": 200.5236831666667,
          "velocity": 0.5905511811023622
        },
        {
          "duration": 0.009191166666681738,
          "durationTicks": 1,
          "midi": 40,
          "name": "E2",
          "ticks": 21840,
          "time": 200.73508,
          "velocity": 0.4251968503937008
        },
        {
          "duration": 0.009191166666653316,
          "durationTicks": 1,
          "midi": 41,
          "name": "F2",
          "ticks": 21841,
          "time": 200.7442711666667,
          "velocity": 0.6456692913385826
        },
        {
          "duration": 0.009191166666681738,
          "durationTicks": 1,
          "midi": 40,
          "name": "E2",
          "ticks": 21864,
          "time": 200.955668,
          "velocity": 0.5039370078740157
        },
        {
          "duration": 0.009191166666653316,
          "durationTicks": 1,
          "midi": 41,
          "name": "F2",
          "ticks": 21865,
          "time": 200.96485916666668,
          "velocity": 0.7086614173228346
        },
        {
          "duration": 0.009191166666681738,
          "durationTicks": 1,
          "midi": 40,
          "name": "E2",
          "ticks": 21888,
          "time": 201.176256,
          "velocity": 0.5433070866141733
        },
        {
          "duration": 0.009191166666681738,
          "durationTicks": 1,
          "midi": 41,
          "name": "F2",
          "ticks": 21889,
          "time": 201.18544716666668,
          "velocity": 0.7401574803149606
        },
        {
          "duration": 0.009191166666681738,
          "durationTicks": 1,
          "midi": 40,
          "name": "E2",
          "ticks": 21912,
          "time": 201.39684400000002,
          "velocity": 0.5984251968503937
        },
        {
          "duration": 0.009191166666653316,
          "durationTicks": 1,
          "midi": 41,
          "name": "F2",
          "ticks": 21913,
          "time": 201.4060351666667,
          "velocity": 0.7637795275590551
        }
      ]
    },
    {
      "channel": 0,
      "controlChanges": {
        "0": [
          {
            "number": 0,
            "ticks": 160,
            "time": 1.4705866666666667,
            "value": 0
          }
        ],
        "32": [
          {
            "number": 32,
            "ticks": 164,
            "time": 1.5073513333333333,
            "value": 0.015748031496062992
          }
        ],
        "121": [
          {
            "number": 121,
            "ticks": 156,
            "time": 1.4338220000000002,
            "value": 0
          }
        ]
      },
      "pitchBends": [],
      "instrument": {
        "family": "piano",
        "number": 0,
        "name": "acoustic grand piano"
      },
      "name": "Bass",
      "notes": [],
      "endOfTrackTicks": 21936
    },
    {
      "channel": 0,
      "controlChanges": {
        "6": [
          {
            "number": 6,
            "ticks": 182,
            "time": 1.6727923333333332,
            "value": 0.09448818897637795
          }
        ],
        "7": [
          {
            "number": 7,
            "ticks": 172,
            "time": 1.5808806666666668,
            "value": 0.7559055118110236
          }
        ],
        "10": [
          {
            "number": 10,
            "ticks": 173,
            "time": 1.5900718333333332,
            "value": 0.5039370078740157
          }
        ],
        "11": [
          {
            "number": 11,
            "ticks": 174,
            "time": 1.599263,
            "value": 1
          }
        ],
        "71": [
          {
            "number": 71,
            "ticks": 179,
            "time": 1.6452188333333333,
            "value": 0.5039370078740157
          }
        ],
        "74": [
          {
            "number": 74,
            "ticks": 178,
            "time": 1.6360276666666669,
            "value": 0.5039370078740157
          }
        ],
        "91": [
          {
            "number": 91,
            "ticks": 175,
            "time": 1.6084541666666667,
            "value": 0
          }
        ],
        "93": [
          {
            "number": 93,
            "ticks": 176,
            "time": 1.6176453333333334,
            "value": 0.015748031496062992
          }
        ],
        "94": [
          {
            "number": 94,
            "ticks": 177,
            "time": 1.6268365,
            "value": 0
          }
        ],
        "100": [
          {
            "number": 100,
            "ticks": 181,
            "time": 1.6636011666666668,
            "value": 0
          }
        ],
        "101": [
          {
            "number": 101,
            "ticks": 180,
            "time": 1.65441,
            "value": 0
          }
        ]
      },
      "pitchBends": [
        {
          "ticks": 816,
          "time": 7.499992000000001,
          "value": -0.16650390625
        },
        {
          "ticks": 818,
          "time": 7.518374333333334,
          "value": -0.083251953125
        },
        {
          "ticks": 820,
          "time": 7.536756666666666,
          "value": 0
        },
        {
          "ticks": 1388,
          "time": 12.757339333333334,
          "value": 0.083251953125
        },
        {
          "ticks": 1392,
          "time": 12.794104,
          "value": 0
        },
        {
          "ticks": 2156,
          "time": 19.816155333333334,
          "value": 0.083251953125
        },
        {
          "ticks": 2160,
          "time": 19.85292,
          "value": 0
        },
        {
          "ticks": 2424,
          "time": 22.279388,
          "value": -0.16650390625
        },
        {
          "ticks": 2427,
          "time": 22.306961500000003,
          "value": -0.13330078125
        },
        {
          "ticks": 2429,
          "time": 22.325343833333335,
          "value": -0.0999755859375
        },
        {
          "ticks": 2431,
          "time": 22.343726166666666,
          "value": -0.066650390625
        },
        {
          "ticks": 2433,
          "time": 22.3621085,
          "value": -0.0333251953125
        },
        {
          "ticks": 2435,
          "time": 22.380490833333337,
          "value": 0
        },
        {
          "ticks": 2520,
          "time": 23.16174,
          "value": -0.083251953125
        },
        {
          "ticks": 2523,
          "time": 23.189313500000004,
          "value": -0.16650390625
        },
        {
          "ticks": 2526,
          "time": 23.216887000000003,
          "value": -0.249755859375
        },
        {
          "ticks": 2529,
          "time": 23.244460500000002,
          "value": -0.3330078125
        },
        {
          "ticks": 2532,
          "time": 23.272034,
          "value": -0.416259765625
        },
        {
          "ticks": 2535,
          "time": 23.299607500000004,
          "value": -0.49951171875
        },
        {
          "ticks": 2538,
          "time": 23.327181000000003,
          "value": -0.582763671875
        },
        {
          "ticks": 2541,
          "time": 23.354754500000002,
          "value": -0.666015625
        },
        {
          "ticks": 2544,
          "time": 23.382328,
          "value": 0
        },
        {
          "ticks": 2616,
          "time": 24.044092000000003,
          "value": -0.16650390625
        },
        {
          "ticks": 2619,
          "time": 24.0716655,
          "value": -0.13330078125
        },
        {
          "ticks": 2621,
          "time": 24.090047833333333,
          "value": -0.0999755859375
        },
        {
          "ticks": 2623,
          "time": 24.10843016666667,
          "value": -0.066650390625
        },
        {
          "ticks": 2625,
          "time": 24.126812500000003,
          "value": -0.0333251953125
        },
        {
          "ticks": 2627,
          "time": 24.145194833333335,
          "value": 0
        },
        {
          "ticks": 2712,
          "time": 24.926444000000004,
          "value": -0.083251953125
        },
        {
          "ticks": 2715,
          "time": 24.954017500000003,
          "value": -0.16650390625
        },
        {
          "ticks": 2718,
          "time": 24.981591,
          "value": -0.249755859375
        },
        {
          "ticks": 2721,
          "time": 25.009164500000004,
          "value": -0.3330078125
        },
        {
          "ticks": 2724,
          "time": 25.036738000000003,
          "value": -0.416259765625
        },
        {
          "ticks": 2727,
          "time": 25.064311500000002,
          "value": -0.49951171875
        },
        {
          "ticks": 2730,
          "time": 25.091885,
          "value": -0.582763671875
        },
        {
          "ticks": 2733,
          "time": 25.119458500000004,
          "value": -0.666015625
        },
        {
          "ticks": 2736,
          "time": 25.147032000000003,
          "value": 0
        },
        {
          "ticks": 3348,
          "time": 30.772026,
          "value": 0.16650390625
        },
        {
          "ticks": 3356,
          "time": 30.845555333333333,
          "value": 0.249755859375
        },
        {
          "ticks": 3364,
          "time": 30.91908466666667,
          "value": 0.416259765625
        },
        {
          "ticks": 3372,
          "time": 30.992614,
          "value": 0.582763671875
        },
        {
          "ticks": 3384,
          "time": 31.102908,
          "value": 0
        },
        {
          "ticks": 3492,
          "time": 32.095554,
          "value": -0.083251953125
        },
        {
          "ticks": 3494,
          "time": 32.113936333333335,
          "value": -0.16650390625
        },
        {
          "ticks": 3496,
          "time": 32.13231866666667,
          "value": -0.249755859375
        },
        {
          "ticks": 3498,
          "time": 32.150701,
          "value": -0.3330078125
        },
        {
          "ticks": 3500,
          "time": 32.16908333333333,
          "value": -0.416259765625
        },
        {
          "ticks": 3502,
          "time": 32.18746566666667,
          "value": -0.49951171875
        },
        {
          "ticks": 3504,
          "time": 32.205847999999996,
          "value": 0
        },
        {
          "ticks": 4056,
          "time": 37.279372,
          "value": -0.16650390625
        },
        {
          "ticks": 4058,
          "time": 37.29775433333334,
          "value": -0.083251953125
        },
        {
          "ticks": 4060,
          "time": 37.31613666666667,
          "value": 0
        },
        {
          "ticks": 4656,
          "time": 42.794072,
          "value": -0.083251953125
        },
        {
          "ticks": 4657,
          "time": 42.80326316666667,
          "value": 0
        },
        {
          "ticks": 5026,
          "time": 46.19480366666667,
          "value": -0.083251953125
        },
        {
          "ticks": 5029,
          "time": 46.22237716666667,
          "value": -0.16650390625
        },
        {
          "ticks": 5032,
          "time": 46.24995066666667,
          "value": -0.249755859375
        },
        {
          "ticks": 5034,
          "time": 46.268333,
          "value": -0.3330078125
        },
        {
          "ticks": 5036,
          "time": 46.28671533333333,
          "value": -0.416259765625
        },
        {
          "ticks": 5039,
          "time": 46.314288833333336,
          "value": 0
        },
        {
          "ticks": 5688,
          "time": 52.279356,
          "value": -0.582763671875
        },
        {
          "ticks": 5690,
          "time": 52.297738333333335,
          "value": -0.49951171875
        },
        {
          "ticks": 5691,
          "time": 52.3069295,
          "value": -0.416259765625
        },
        {
          "ticks": 5693,
          "time": 52.32531183333334,
          "value": -0.3330078125
        },
        {
          "ticks": 5694,
          "time": 52.334503,
          "value": -0.249755859375
        },
        {
          "ticks": 5696,
          "time": 52.35288533333333,
          "value": -0.16650390625
        },
        {
          "ticks": 5698,
          "time": 52.37126766666667,
          "value": -0.083251953125
        },
        {
          "ticks": 5700,
          "time": 52.38965,
          "value": 0
        },
        {
          "ticks": 6360,
          "time": 58.45582000000001,
          "value": -0.16650390625
        },
        {
          "ticks": 6363,
          "time": 58.483393500000005,
          "value": -0.083251953125
        },
        {
          "ticks": 6365,
          "time": 58.50177583333333,
          "value": 0
        },
        {
          "ticks": 6764,
          "time": 62.169051333333336,
          "value": 0.083251953125
        },
        {
          "ticks": 6768,
          "time": 62.205816000000006,
          "value": 0
        },
        {
          "ticks": 7728,
          "time": 71.029336,
          "value": -0.16650390625
        },
        {
          "ticks": 7731,
          "time": 71.0569095,
          "value": -0.083251953125
        },
        {
          "ticks": 7733,
          "time": 71.07529183333332,
          "value": 0
        },
        {
          "ticks": 7824,
          "time": 71.911688,
          "value": -0.16650390625
        },
        {
          "ticks": 7826,
          "time": 71.93007033333333,
          "value": -0.083251953125
        },
        {
          "ticks": 7828,
          "time": 71.94845266666665,
          "value": 0
        },
        {
          "ticks": 9336,
          "time": 85.808732,
          "value": -0.16650390625
        },
        {
          "ticks": 9339,
          "time": 85.8363055,
          "value": -0.13330078125
        },
        {
          "ticks": 9341,
          "time": 85.85468783333333,
          "value": -0.0999755859375
        },
        {
          "ticks": 9343,
          "time": 85.87307016666666,
          "value": -0.066650390625
        },
        {
          "ticks": 9345,
          "time": 85.8914525,
          "value": -0.0333251953125
        },
        {
          "ticks": 9347,
          "time": 85.90983483333333,
          "value": 0
        },
        {
          "ticks": 9432,
          "time": 86.691084,
          "value": -0.083251953125
        },
        {
          "ticks": 9435,
          "time": 86.7186575,
          "value": -0.16650390625
        },
        {
          "ticks": 9438,
          "time": 86.746231,
          "value": -0.249755859375
        },
        {
          "ticks": 9441,
          "time": 86.7738045,
          "value": -0.3330078125
        },
        {
          "ticks": 9444,
          "time": 86.801378,
          "value": -0.416259765625
        },
        {
          "ticks": 9447,
          "time": 86.8289515,
          "value": -0.49951171875
        },
        {
          "ticks": 9450,
          "time": 86.856525,
          "value": -0.582763671875
        },
        {
          "ticks": 9453,
          "time": 86.88409850000001,
          "value": -0.666015625
        },
        {
          "ticks": 9456,
          "time": 86.911672,
          "value": 0
        },
        {
          "ticks": 9528,
          "time": 87.573436,
          "value": -0.16650390625
        },
        {
          "ticks": 9531,
          "time": 87.6010095,
          "value": -0.13330078125
        },
        {
          "ticks": 9533,
          "time": 87.61939183333332,
          "value": -0.0999755859375
        },
        {
          "ticks": 9535,
          "time": 87.63777416666666,
          "value": -0.066650390625
        },
        {
          "ticks": 9537,
          "time": 87.6561565,
          "value": -0.0333251953125
        },
        {
          "ticks": 9539,
          "time": 87.67453883333333,
          "value": 0
        },
        {
          "ticks": 9624,
          "time": 88.455788,
          "value": -0.083251953125
        },
        {
          "ticks": 9627,
          "time": 88.4833615,
          "value": -0.16650390625
        },
        {
          "ticks": 9630,
          "time": 88.510935,
          "value": -0.249755859375
        },
        {
          "ticks": 9633,
          "time": 88.5385085,
          "value": -0.3330078125
        },
        {
          "ticks": 9636,
          "time": 88.566082,
          "value": -0.416259765625
        },
        {
          "ticks": 9639,
          "time": 88.5936555,
          "value": -0.49951171875
        },
        {
          "ticks": 9642,
          "time": 88.621229,
          "value": -0.582763671875
        },
        {
          "ticks": 9645,
          "time": 88.6488025,
          "value": -0.666015625
        },
        {
          "ticks": 9648,
          "time": 88.676376,
          "value": 0
        },
        {
          "ticks": 10404,
          "time": 95.624898,
          "value": -0.083251953125
        },
        {
          "ticks": 10406,
          "time": 95.64328033333334,
          "value": -0.16650390625
        },
        {
          "ticks": 10408,
          "time": 95.66166266666666,
          "value": -0.249755859375
        },
        {
          "ticks": 10410,
          "time": 95.680045,
          "value": -0.3330078125
        },
        {
          "ticks": 10412,
          "time": 95.69842733333333,
          "value": -0.416259765625
        },
        {
          "ticks": 10414,
          "time": 95.71680966666666,
          "value": -0.49951171875
        },
        {
          "ticks": 10416,
          "time": 95.735192,
          "value": 0
        },
        {
          "ticks": 10968,
          "time": 100.808716,
          "value": -0.16650390625
        },
        {
          "ticks": 10970,
          "time": 100.82709833333332,
          "value": -0.083251953125
        },
        {
          "ticks": 10972,
          "time": 100.84548066666666,
          "value": 0
        },
        {
          "ticks": 11085,
          "time": 101.8840825,
          "value": -0.083251953125
        },
        {
          "ticks": 11087,
          "time": 101.90246483333333,
          "value": -0.16650390625
        },
        {
          "ticks": 11089,
          "time": 101.92084716666666,
          "value": -0.249755859375
        },
        {
          "ticks": 11090,
          "time": 101.93003833333333,
          "value": -0.3330078125
        },
        {
          "ticks": 11091,
          "time": 101.9392295,
          "value": -0.416259765625
        },
        {
          "ticks": 11092,
          "time": 101.94842066666666,
          "value": -0.49951171875
        },
        {
          "ticks": 11093,
          "time": 101.95761183333333,
          "value": -0.582763671875
        },
        {
          "ticks": 11094,
          "time": 101.966803,
          "value": -0.666015625
        },
        {
          "ticks": 11183,
          "time": 102.78481683333332,
          "value": 0
        },
        {
          "ticks": 11736,
          "time": 107.867532,
          "value": -0.083251953125
        },
        {
          "ticks": 11737,
          "time": 107.87672316666666,
          "value": 0
        },
        {
          "ticks": 11784,
          "time": 108.308708,
          "value": -0.16650390625
        },
        {
          "ticks": 11785,
          "time": 108.31789916666666,
          "value": -0.083251953125
        },
        {
          "ticks": 11786,
          "time": 108.32709033333333,
          "value": 0
        },
        {
          "ticks": 11806,
          "time": 108.51091366666665,
          "value": -0.083251953125
        },
        {
          "ticks": 11808,
          "time": 108.529296,
          "value": 0
        },
        {
          "ticks": 11904,
          "time": 109.411648,
          "value": -0.16650390625
        },
        {
          "ticks": 11906,
          "time": 109.43003033333333,
          "value": -0.083251953125
        },
        {
          "ticks": 11908,
          "time": 109.44841266666666,
          "value": 0
        },
        {
          "ticks": 11922,
          "time": 109.577089,
          "value": -0.083251953125
        },
        {
          "ticks": 11923,
          "time": 109.58628016666665,
          "value": -0.16650390625
        },
        {
          "ticks": 11930,
          "time": 109.65061833333333,
          "value": -0.083251953125
        },
        {
          "ticks": 11932,
          "time": 109.66900066666666,
          "value": 0
        },
        {
          "ticks": 11946,
          "time": 109.79767700000001,
          "value": -0.083251953125
        },
        {
          "ticks": 11947,
          "time": 109.80686816666666,
          "value": -0.16650390625
        },
        {
          "ticks": 11952,
          "time": 109.852824,
          "value": 0
        },
        {
          "ticks": 12447,
          "time": 114.4024515,
          "value": -0.083251953125
        },
        {
          "ticks": 12449,
          "time": 114.42083383333333,
          "value": -0.16650390625
        },
        {
          "ticks": 12451,
          "time": 114.43921616666665,
          "value": -0.249755859375
        },
        {
          "ticks": 12456,
          "time": 114.485172,
          "value": 0
        },
        {
          "ticks": 12629,
          "time": 116.07524383333333,
          "value": -0.083251953125
        },
        {
          "ticks": 12631,
          "time": 116.09362616666667,
          "value": -0.16650390625
        },
        {
          "ticks": 12636,
          "time": 116.13958199999999,
          "value": 0
        },
        {
          "ticks": 12684,
          "time": 116.58075799999999,
          "value": 0.083251953125
        },
        {
          "ticks": 12696,
          "time": 116.69105199999998,
          "value": 0
        },
        {
          "ticks": 12984,
          "time": 119.33810799999999,
          "value": -0.16650390625
        },
        {
          "ticks": 12986,
          "time": 119.35649033333333,
          "value": -0.083251953125
        },
        {
          "ticks": 12987,
          "time": 119.3656815,
          "value": 0
        },
        {
          "ticks": 13252,
          "time": 121.80134066666668,
          "value": -0.083251953125
        },
        {
          "ticks": 13254,
          "time": 121.81972299999998,
          "value": -0.16650390625
        },
        {
          "ticks": 13256,
          "time": 121.83810533333333,
          "value": -0.249755859375
        },
        {
          "ticks": 13258,
          "time": 121.85648766666667,
          "value": -0.3330078125
        },
        {
          "ticks": 13260,
          "time": 121.87486999999999,
          "value": -0.416259765625
        },
        {
          "ticks": 13262,
          "time": 121.89325233333334,
          "value": -0.49951171875
        },
        {
          "ticks": 13264,
          "time": 121.91163466666667,
          "value": -0.582763671875
        },
        {
          "ticks": 13266,
          "time": 121.93001699999999,
          "value": -0.666015625
        },
        {
          "ticks": 13272,
          "time": 121.98516399999998,
          "value": 0
        },
        {
          "ticks": 13440,
          "time": 123.52927999999999,
          "value": -0.16650390625
        },
        {
          "ticks": 13441,
          "time": 123.53847116666667,
          "value": -0.083251953125
        },
        {
          "ticks": 13442,
          "time": 123.54766233333334,
          "value": 0
        },
        {
          "ticks": 13458,
          "time": 123.69472099999999,
          "value": -0.083251953125
        },
        {
          "ticks": 13459,
          "time": 123.70391216666667,
          "value": -0.16650390625
        },
        {
          "ticks": 13466,
          "time": 123.76825033333333,
          "value": -0.083251953125
        },
        {
          "ticks": 13468,
          "time": 123.78663266666668,
          "value": 0
        },
        {
          "ticks": 13480,
          "time": 123.89692666666667,
          "value": -0.083251953125
        },
        {
          "ticks": 13482,
          "time": 123.915309,
          "value": -0.16650390625
        },
        {
          "ticks": 13484,
          "time": 123.93369133333333,
          "value": -0.249755859375
        },
        {
          "ticks": 13486,
          "time": 123.95207366666668,
          "value": -0.3330078125
        },
        {
          "ticks": 13488,
          "time": 123.97045599999998,
          "value": 0
        },
        {
          "ticks": 14808,
          "time": 136.102796,
          "value": -0.16650390625
        },
        {
          "ticks": 14810,
          "time": 136.12117833333335,
          "value": -0.083251953125
        },
        {
          "ticks": 14811,
          "time": 136.1303695,
          "value": 0
        },
        {
          "ticks": 16344,
          "time": 150.220428,
          "value": -0.083251953125
        },
        {
          "ticks": 16356,
          "time": 150.330722,
          "value": -0.083251953125
        },
        {
          "ticks": 16358,
          "time": 150.34910433333334,
          "value": -0.0625
        },
        {
          "ticks": 16360,
          "time": 150.36748666666668,
          "value": -0.0416259765625
        },
        {
          "ticks": 16363,
          "time": 150.3950601666667,
          "value": -0.0208740234375
        },
        {
          "ticks": 16365,
          "time": 150.4134425,
          "value": 0
        },
        {
          "ticks": 18284,
          "time": 168.05129133333335,
          "value": 0.083251953125
        },
        {
          "ticks": 18288,
          "time": 168.088056,
          "value": 0
        },
        {
          "ticks": 19344,
          "time": 177.793928,
          "value": -0.16650390625
        },
        {
          "ticks": 19346,
          "time": 177.81231033333336,
          "value": -0.083251953125
        },
        {
          "ticks": 19348,
          "time": 177.8306926666667,
          "value": 0
        },
        {
          "ticks": 20784,
          "time": 191.029208,
          "value": -0.16650390625
        },
        {
          "ticks": 20786,
          "time": 191.04759033333335,
          "value": -0.083251953125
        },
        {
          "ticks": 20788,
          "time": 191.06597266666668,
          "value": 0
        },
        {
          "ticks": 21156,
          "time": 194.44832200000002,
          "value": -0.083251953125
        },
        {
          "ticks": 21158,
          "time": 194.46670433333335,
          "value": -0.16650390625
        },
        {
          "ticks": 21160,
          "time": 194.4850866666667,
          "value": -0.249755859375
        },
        {
          "ticks": 21162,
          "time": 194.503469,
          "value": -0.3330078125
        },
        {
          "ticks": 21164,
          "time": 194.52185133333336,
          "value": -0.416259765625
        },
        {
          "ticks": 21166,
          "time": 194.5402336666667,
          "value": -0.49951171875
        },
        {
          "ticks": 21168,
          "time": 194.558616,
          "value": 0
        },
        {
          "ticks": 21356,
          "time": 196.28655533333335,
          "value": 0.083251953125
        },
        {
          "ticks": 21360,
          "time": 196.32332,
          "value": 0
        },
        {
          "ticks": 21624,
          "time": 198.749788,
          "value": -0.16650390625
        },
        {
          "ticks": 21627,
          "time": 198.7773615,
          "value": -0.13330078125
        },
        {
          "ticks": 21629,
          "time": 198.79574383333335,
          "value": -0.0999755859375
        },
        {
          "ticks": 21631,
          "time": 198.81412616666668,
          "value": -0.066650390625
        },
        {
          "ticks": 21633,
          "time": 198.83250850000002,
          "value": -0.0333251953125
        },
        {
          "ticks": 21635,
          "time": 198.85089083333335,
          "value": 0
        },
        {
          "ticks": 21720,
          "time": 199.63214,
          "value": -0.083251953125
        },
        {
          "ticks": 21723,
          "time": 199.6597135,
          "value": -0.16650390625
        },
        {
          "ticks": 21726,
          "time": 199.687287,
          "value": -0.249755859375
        },
        {
          "ticks": 21729,
          "time": 199.71486050000001,
          "value": -0.3330078125
        },
        {
          "ticks": 21732,
          "time": 199.742434,
          "value": -0.416259765625
        },
        {
          "ticks": 21735,
          "time": 199.7700075,
          "value": -0.49951171875
        },
        {
          "ticks": 21738,
          "time": 199.797581,
          "value": -0.582763671875
        },
        {
          "ticks": 21741,
          "time": 199.8251545,
          "value": -0.666015625
        },
        {
          "ticks": 21744,
          "time": 199.852728,
          "value": 0
        }
      ],
      "instrument": {
        "family": "bass",
        "number": 33,
        "name": "electric bass (finger)"
      },
      "name": "",
      "notes": [
        {
          "duration": 1.755512833333333,
          "durationTicks": 191,
          "midi": 30,
          "name": "F#1",
          "ticks": 432,
          "time": 3.970584,
          "velocity": 0.8267716535433071
        },
        {
          "duration": 0.6617639999999998,
          "durationTicks": 72,
          "midi": 32,
          "name": "G#1",
          "ticks": 624,
          "time": 5.735288000000001,
          "velocity": 0.8110236220472441
        },
        {
          "duration": 1.0477930000000004,
          "durationTicks": 114,
          "midi": 32,
          "name": "G#1",
          "ticks": 696,
          "time": 6.397052,
          "velocity": 0.7322834645669292
        },
        {
          "duration": 1.7463216666666668,
          "durationTicks": 190,
          "midi": 34,
          "name": "A#1",
          "ticks": 816,
          "time": 7.499992000000001,
          "velocity": 0.8110236220472441
        },
        {
          "duration": 0.18382333333333278,
          "durationTicks": 20,
          "midi": 25,
          "name": "C#1",
          "ticks": 1008,
          "time": 9.264696,
          "velocity": 0.8346456692913385
        },
        {
          "duration": 0.18382333333333278,
          "durationTicks": 20,
          "midi": 25,
          "name": "C#1",
          "ticks": 1032,
          "time": 9.485284,
          "velocity": 0.8031496062992126
        },
        {
          "duration": 0.18382333333333278,
          "durationTicks": 20,
          "midi": 25,
          "name": "C#1",
          "ticks": 1056,
          "time": 9.705872,
          "velocity": 0.8031496062992126
        },
        {
          "duration": 0.20220566666666784,
          "durationTicks": 22,
          "midi": 37,
          "name": "C#2",
          "ticks": 1080,
          "time": 9.926459999999999,
          "velocity": 0.8267716535433071
        },
        {
          "duration": 0.00919116666667108,
          "durationTicks": 1,
          "midi": 37,
          "name": "C#2",
          "ticks": 1104,
          "time": 10.147047999999998,
          "velocity": 0.5826771653543307
        },
        {
          "duration": 0.21139683333333537,
          "durationTicks": 23,
          "midi": 30,
          "name": "F#1",
          "ticks": 1200,
          "time": 11.029399999999999,
          "velocity": 0.8110236220472441
        },
        {
          "duration": 0.21139683333333537,
          "durationTicks": 23,
          "midi": 30,
          "name": "F#1",
          "ticks": 1224,
          "time": 11.249987999999998,
          "velocity": 0.7795275590551181
        },
        {
          "duration": 0.2113968333333318,
          "durationTicks": 23,
          "midi": 30,
          "name": "F#1",
          "ticks": 1248,
          "time": 11.470576000000001,
          "velocity": 0.7322834645669292
        },
        {
          "duration": 0.2113968333333318,
          "durationTicks": 23,
          "midi": 30,
          "name": "F#1",
          "ticks": 1272,
          "time": 11.691164,
          "velocity": 0.7559055118110236
        },
        {
          "duration": 0.21139683333333537,
          "durationTicks": 23,
          "midi": 30,
          "name": "F#1",
          "ticks": 1296,
          "time": 11.911752,
          "velocity": 0.7795275590551181
        },
        {
          "duration": 0.21139683333333537,
          "durationTicks": 23,
          "midi": 42,
          "name": "F#2",
          "ticks": 1320,
          "time": 12.13234,
          "velocity": 0.7952755905511811
        },
        {
          "duration": 0.21139683333333537,
          "durationTicks": 23,
          "midi": 30,
          "name": "F#1",
          "ticks": 1344,
          "time": 12.352927999999999,
          "velocity": 0.7637795275590551
        },
        {
          "duration": 0.2113968333333318,
          "durationTicks": 23,
          "midi": 42,
          "name": "F#2",
          "ticks": 1368,
          "time": 12.573516000000001,
          "velocity": 0.7795275590551181
        },
        {
          "duration": 0.2113968333333318,
          "durationTicks": 23,
          "midi": 32,
          "name": "G#1",
          "ticks": 1392,
          "time": 12.794104,
          "velocity": 0.7952755905511811
        },
        {
          "duration": 0.21139683333333537,
          "durationTicks": 23,
          "midi": 32,
          "name": "G#1",
          "ticks": 1416,
          "time": 13.014692,
          "velocity": 0.7637795275590551
        },
        {
          "duration": 0.21139683333333537,
          "durationTicks": 23,
          "midi": 32,
          "name": "G#1",
          "ticks": 1440,
          "time": 13.23528,
          "velocity": 0.7637795275590551
        },
        {
          "duration": 0.21139683333333537,
          "durationTicks": 23,
          "midi": 32,
          "name": "G#1",
          "ticks": 1464,
          "time": 13.455867999999999,
          "velocity": 0.7716535433070866
        },
        {
          "duration": 0.21139683333333537,
          "durationTicks": 23,
          "midi": 32,
          "name": "G#1",
          "ticks": 1488,
          "time": 13.676455999999998,
          "velocity": 0.7716535433070866
        },
        {
          "duration": 0.2113968333333318,
          "durationTicks": 23,
          "midi": 32,
          "name": "G#1",
          "ticks": 1512,
          "time": 13.897044000000001,
          "velocity": 0.7952755905511811
        },
        {
          "duration": 0.2113968333333318,
          "durationTicks": 23,
          "midi": 32,
          "name": "G#1",
          "ticks": 1536,
          "time": 14.117632,
          "velocity": 0.7795275590551181
        },
        {
          "duration": 0.16544100000000128,
          "durationTicks": 18,
          "midi": 32,
          "name": "G#1",
          "ticks": 1560,
          "time": 14.33822,
          "velocity": 0.7637795275590551
        },
        {
          "duration": 0.21139683333333537,
          "durationTicks": 23,
          "midi": 37,
          "name": "C#2",
          "ticks": 1584,
          "time": 14.558807999999999,
          "velocity": 0.8110236220472441
        },
        {
          "duration": 0.21139683333333537,
          "durationTicks": 23,
          "midi": 37,
          "name": "C#2",
          "ticks": 1608,
          "time": 14.779395999999998,
          "velocity": 0.7795275590551181
        },
        {
          "duration": 0.2113968333333318,
          "durationTicks": 23,
          "midi": 37,
          "name": "C#2",
          "ticks": 1632,
          "time": 14.999984000000001,
          "velocity": 0.7480314960629921
        },
        {
          "duration": 0.2113968333333318,
          "durationTicks": 23,
          "midi": 37,
          "name": "C#2",
          "ticks": 1656,
          "time": 15.220572,
          "velocity": 0.7874015748031497
        },
        {
          "duration": 0.21139683333333537,
          "durationTicks": 23,
          "midi": 37,
          "name": "C#2",
          "ticks": 1680,
          "time": 15.44116,
          "velocity": 0.7637795275590551
        },
        {
          "duration": 0.21139683333333537,
          "durationTicks": 23,
          "midi": 37,
          "name": "C#2",
          "ticks": 1704,
          "time": 15.661748,
          "velocity": 0.7952755905511811
        },
        {
          "duration": 0.2113968333333318,
          "durationTicks": 23,
          "midi": 37,
          "name": "C#2",
          "ticks": 1728,
          "time": 15.882336000000002,
          "velocity": 0.7795275590551181
        },
        {
          "duration": 0.16544100000000128,
          "durationTicks": 18,
          "midi": 37,
          "name": "C#2",
          "ticks": 1752,
          "time": 16.102924,
          "velocity": 0.7716535433070866
        },
        {
          "duration": 0.2113968333333318,
          "durationTicks": 23,
          "midi": 34,
          "name": "A#1",
          "ticks": 1776,
          "time": 16.323512,
          "velocity": 0.7795275590551181
        },
        {
          "duration": 0.21139683333333537,
          "durationTicks": 23,
          "midi": 34,
          "name": "A#1",
          "ticks": 1800,
          "time": 16.5441,
          "velocity": 0.7795275590551181
        },
        {
          "duration": 0.2113968333333318,
          "durationTicks": 23,
          "midi": 34,
          "name": "A#1",
          "ticks": 1824,
          "time": 16.764688000000003,
          "velocity": 0.7637795275590551
        },
        {
          "duration": 0.2113968333333318,
          "durationTicks": 23,
          "midi": 46,
          "name": "A#2",
          "ticks": 1848,
          "time": 16.985276000000002,
          "velocity": 0.7874015748031497
        },
        {
          "duration": 0.2113968333333318,
          "durationTicks": 23,
          "midi": 34,
          "name": "A#1",
          "ticks": 1872,
          "time": 17.205864000000002,
          "velocity": 0.7716535433070866
        },
        {
          "duration": 0.2113968333333318,
          "durationTicks": 23,
          "midi": 46,
          "name": "A#2",
          "ticks": 1896,
          "time": 17.426452,
          "velocity": 0.7795275590551181
        },
        {
          "duration": 0.21139683333333537,
          "durationTicks": 23,
          "midi": 34,
          "name": "A#1",
          "ticks": 1920,
          "time": 17.64704,
          "velocity": 0.7952755905511811
        },
        {
          "duration": 0.16544099999999773,
          "durationTicks": 18,
          "midi": 46,
          "name": "A#2",
          "ticks": 1944,
          "time": 17.867628000000003,
          "velocity": 0.7874015748031497
        },
        {
          "duration": 0.2113968333333318,
          "durationTicks": 23,
          "midi": 27,
          "name": "D#1",
          "ticks": 1968,
          "time": 18.088216000000003,
          "velocity": 0.8110236220472441
        },
        {
          "duration": 0.2113968333333318,
          "durationTicks": 23,
          "midi": 27,
          "name": "D#1",
          "ticks": 1992,
          "time": 18.308804000000002,
          "velocity": 0.7795275590551181
        },
        {
          "duration": 0.2113968333333318,
          "durationTicks": 23,
          "midi": 27,
          "name": "D#1",
          "ticks": 2016,
          "time": 18.529392,
          "velocity": 0.7637795275590551
        },
        {
          "duration": 0.21139683333333537,
          "durationTicks": 23,
          "midi": 27,
          "name": "D#1",
          "ticks": 2040,
          "time": 18.74998,
          "velocity": 0.7559055118110236
        },
        {
          "duration": 0.2113968333333318,
          "durationTicks": 23,
          "midi": 27,
          "name": "D#1",
          "ticks": 2064,
          "time": 18.970568000000004,
          "velocity": 0.7795275590551181
        },
        {
          "duration": 0.2113968333333318,
          "durationTicks": 23,
          "midi": 39,
          "name": "D#2",
          "ticks": 2088,
          "time": 19.191156000000003,
          "velocity": 0.7795275590551181
        },
        {
          "duration": 0.2113968333333318,
          "durationTicks": 23,
          "midi": 27,
          "name": "D#1",
          "ticks": 2112,
          "time": 19.411744000000002,
          "velocity": 0.7795275590551181
        },
        {
          "duration": 0.2113968333333318,
          "durationTicks": 23,
          "midi": 39,
          "name": "D#2",
          "ticks": 2136,
          "time": 19.632332,
          "velocity": 0.7874015748031497
        },
        {
          "duration": 0.21139683333333537,
          "durationTicks": 23,
          "midi": 32,
          "name": "G#1",
          "ticks": 2160,
          "time": 19.85292,
          "velocity": 0.7952755905511811
        },
        {
          "duration": 0.2113968333333318,
          "durationTicks": 23,
          "midi": 32,
          "name": "G#1",
          "ticks": 2184,
          "time": 20.073508000000004,
          "velocity": 0.7637795275590551
        },
        {
          "duration": 0.2113968333333318,
          "durationTicks": 23,
          "midi": 32,
          "name": "G#1",
          "ticks": 2208,
          "time": 20.294096000000003,
          "velocity": 0.7637795275590551
        },
        {
          "duration": 0.2113968333333318,
          "durationTicks": 23,
          "midi": 32,
          "name": "G#1",
          "ticks": 2232,
          "time": 20.514684000000003,
          "velocity": 0.7716535433070866
        },
        {
          "duration": 0.2113968333333318,
          "durationTicks": 23,
          "midi": 32,
          "name": "G#1",
          "ticks": 2256,
          "time": 20.735272000000002,
          "velocity": 0.7716535433070866
        },
        {
          "duration": 0.2113968333333318,
          "durationTicks": 23,
          "midi": 32,
          "name": "G#1",
          "ticks": 2280,
          "time": 20.95586,
          "velocity": 0.7952755905511811
        },
        {
          "duration": 0.2113968333333318,
          "durationTicks": 23,
          "midi": 32,
          "name": "G#1",
          "ticks": 2304,
          "time": 21.176448000000004,
          "velocity": 0.7795275590551181
        },
        {
          "duration": 0.16544099999999773,
          "durationTicks": 18,
          "midi": 32,
          "name": "G#1",
          "ticks": 2328,
          "time": 21.397036000000003,
          "velocity": 0.7637795275590551
        },
        {
          "duration": 0.2113968333333318,
          "durationTicks": 23,
          "midi": 30,
          "name": "F#1",
          "ticks": 2352,
          "time": 21.617624000000003,
          "velocity": 0.8110236220472441
        },
        {
          "duration": 0.2113968333333318,
          "durationTicks": 23,
          "midi": 30,
          "name": "F#1",
          "ticks": 2376,
          "time": 21.838212000000002,
          "velocity": 0.7795275590551181
        },
        {
          "duration": 0.18382333333333278,
          "durationTicks": 20,
          "midi": 30,
          "name": "F#1",
          "ticks": 2400,
          "time": 22.0588,
          "velocity": 0.7322834645669292
        },
        {
          "duration": 0.44117600000000223,
          "durationTicks": 48,
          "midi": 42,
          "name": "F#2",
          "ticks": 2424,
          "time": 22.279388,
          "velocity": 0.8267716535433071
        },
        {
          "duration": 0.2113968333333318,
          "durationTicks": 23,
          "midi": 42,
          "name": "F#2",
          "ticks": 2472,
          "time": 22.720564000000003,
          "velocity": 0.7952755905511811
        },
        {
          "duration": 0.4411759999999987,
          "durationTicks": 48,
          "midi": 42,
          "name": "F#2",
          "ticks": 2496,
          "time": 22.941152000000002,
          "velocity": 0.7874015748031497
        },
        {
          "duration": 0.4319848333333347,
          "durationTicks": 47,
          "midi": 30,
          "name": "F#1",
          "ticks": 2544,
          "time": 23.382328,
          "velocity": 0.8031496062992126
        },
        {
          "duration": 0.18382333333333278,
          "durationTicks": 20,
          "midi": 30,
          "name": "F#1",
          "ticks": 2592,
          "time": 23.823504000000003,
          "velocity": 0.6771653543307087
        },
        {
          "duration": 0.4411759999999987,
          "durationTicks": 48,
          "midi": 42,
          "name": "F#2",
          "ticks": 2616,
          "time": 24.044092000000003,
          "velocity": 0.8267716535433071
        },
        {
          "duration": 0.21139683333333537,
          "durationTicks": 23,
          "midi": 42,
          "name": "F#2",
          "ticks": 2664,
          "time": 24.485268,
          "velocity": 0.7952755905511811
        },
        {
          "duration": 0.4411759999999987,
          "durationTicks": 48,
          "midi": 42,
          "name": "F#2",
          "ticks": 2688,
          "time": 24.705856000000004,
          "velocity": 0.7874015748031497
        },
        {
          "duration": 1.7371304999999992,
          "durationTicks": 189,
          "midi": 30,
          "name": "F#1",
          "ticks": 2736,
          "time": 25.147032000000003,
          "velocity": 0.7795275590551181
        },
        {
          "duration": 1.7371305000000028,
          "durationTicks": 189,
          "midi": 32,
          "name": "G#1",
          "ticks": 2928,
          "time": 26.911736,
          "velocity": 0.7795275590551181
        },
        {
          "duration": 1.9852919999999976,
          "durationTicks": 216,
          "midi": 34,
          "name": "A#1",
          "ticks": 3120,
          "time": 28.676440000000003,
          "velocity": 0.7795275590551181
        },
        {
          "duration": 0.4411759999999987,
          "durationTicks": 48,
          "midi": 34,
          "name": "A#1",
          "ticks": 3336,
          "time": 30.661732,
          "velocity": 0.5275590551181102
        },
        {
          "duration": 0.4411759999999987,
          "durationTicks": 48,
          "midi": 41,
          "name": "F2",
          "ticks": 3384,
          "time": 31.102908,
          "velocity": 0.6141732283464567
        },
        {
          "duration": 0.1930145000000003,
          "durationTicks": 21,
          "midi": 41,
          "name": "F2",
          "ticks": 3432,
          "time": 31.544083999999998,
          "velocity": 0.5590551181102362
        },
        {
          "duration": 0.4411759999999951,
          "durationTicks": 48,
          "midi": 44,
          "name": "G#2",
          "ticks": 3456,
          "time": 31.764672,
          "velocity": 0.7795275590551181
        },
        {
          "duration": 1.7371305000000064,
          "durationTicks": 189,
          "midi": 30,
          "name": "F#1",
          "ticks": 3504,
          "time": 32.205847999999996,
          "velocity": 0.7795275590551181
        },
        {
          "duration": 1.7371304999999992,
          "durationTicks": 189,
          "midi": 32,
          "name": "G#1",
          "ticks": 3696,
          "time": 33.970552,
          "velocity": 0.7795275590551181
        },
        {
          "duration": 1.5165425,
          "durationTicks": 165,
          "midi": 37,
          "name": "C#2",
          "ticks": 3888,
          "time": 35.735256,
          "velocity": 0.7795275590551181
        },
        {
          "duration": 0.4136024999999961,
          "durationTicks": 45,
          "midi": 34,
          "name": "A#1",
          "ticks": 4056,
          "time": 37.279372,
          "velocity": 0.7795275590551181
        },
        {
          "duration": 0.19301449999999676,
          "durationTicks": 21,
          "midi": 34,
          "name": "A#1",
          "ticks": 4104,
          "time": 37.720548,
          "velocity": 0.7559055118110236
        },
        {
          "duration": 0.19301449999999676,
          "durationTicks": 21,
          "midi": 41,
          "name": "F2",
          "ticks": 4128,
          "time": 37.941136,
          "velocity": 0.84251968503937
        },
        {
          "duration": 0.19301450000000386,
          "durationTicks": 21,
          "midi": 46,
          "name": "A#2",
          "ticks": 4152,
          "time": 38.161724,
          "velocity": 0.8031496062992126
        },
        {
          "duration": 0.09191166666667527,
          "durationTicks": 10,
          "midi": 41,
          "name": "F2",
          "ticks": 4176,
          "time": 38.382312,
          "velocity": 0.4409448818897638
        },
        {
          "duration": 0.19301449999999676,
          "durationTicks": 21,
          "midi": 30,
          "name": "F#1",
          "ticks": 4272,
          "time": 39.264664,
          "velocity": 0.8188976377952756
        },
        {
          "duration": 0.2022056666666714,
          "durationTicks": 22,
          "midi": 30,
          "name": "F#1",
          "ticks": 4296,
          "time": 39.485252,
          "velocity": 0.7795275590551181
        },
        {
          "duration": 0.2022056666666714,
          "durationTicks": 22,
          "midi": 37,
          "name": "C#2",
          "ticks": 4320,
          "time": 39.70584,
          "velocity": 0.7795275590551181
        },
        {
          "duration": 0.11029399999999612,
          "durationTicks": 12,
          "midi": 42,
          "name": "F#2",
          "ticks": 4344,
          "time": 39.926428,
          "velocity": 0.7007874015748031
        },
        {
          "duration": 0.11029400000000322,
          "durationTicks": 12,
          "midi": 42,
          "name": "F#2",
          "ticks": 4356,
          "time": 40.036722,
          "velocity": 0.7795275590551181
        },
        {
          "duration": 0.018382333333335055,
          "durationTicks": 2,
          "midi": 37,
          "name": "C#2",
          "ticks": 4368,
          "time": 40.147016,
          "velocity": 0.6141732283464567
        },
        {
          "duration": 0.11029400000000322,
          "durationTicks": 12,
          "midi": 37,
          "name": "C#2",
          "ticks": 4380,
          "time": 40.25731,
          "velocity": 0.7007874015748031
        },
        {
          "duration": 0.19301449999999676,
          "durationTicks": 21,
          "midi": 37,
          "name": "C#2",
          "ticks": 4392,
          "time": 40.367604,
          "velocity": 0.7795275590551181
        },
        {
          "duration": 0.19301450000000386,
          "durationTicks": 21,
          "midi": 42,
          "name": "F#2",
          "ticks": 4416,
          "time": 40.588192,
          "velocity": 0.8188976377952756
        },
        {
          "duration": 0.19301450000000386,
          "durationTicks": 21,
          "midi": 37,
          "name": "C#2",
          "ticks": 4440,
          "time": 40.80878,
          "velocity": 0.7795275590551181
        },
        {
          "duration": 0.19301450000000386,
          "durationTicks": 21,
          "midi": 44,
          "name": "G#2",
          "ticks": 4464,
          "time": 41.029368,
          "velocity": 0.8188976377952756
        },
        {
          "duration": 0.2022056666666714,
          "durationTicks": 22,
          "midi": 44,
          "name": "G#2",
          "ticks": 4488,
          "time": 41.249956,
          "velocity": 0.7795275590551181
        },
        {
          "duration": 0.2022056666666714,
          "durationTicks": 22,
          "midi": 39,
          "name": "D#2",
          "ticks": 4512,
          "time": 41.470544,
          "velocity": 0.7795275590551181
        },
        {
          "duration": 0.11029399999999612,
          "durationTicks": 12,
          "midi": 44,
          "name": "G#2",
          "ticks": 4536,
          "time": 41.691132,
          "velocity": 0.7007874015748031
        },
        {
          "duration": 0.11029400000000322,
          "durationTicks": 12,
          "midi": 44,
          "name": "G#2",
          "ticks": 4548,
          "time": 41.801426,
          "velocity": 0.7795275590551181
        },
        {
          "duration": 0.018382333333335055,
          "durationTicks": 2,
          "midi": 44,
          "name": "G#2",
          "ticks": 4560,
          "time": 41.91172,
          "velocity": 0.6141732283464567
        },
        {
          "duration": 0.11029400000000322,
          "durationTicks": 12,
          "midi": 44,
          "name": "G#2",
          "ticks": 4572,
          "time": 42.022014,
          "velocity": 0.7007874015748031
        },
        {
          "duration": 0.19301449999999676,
          "durationTicks": 21,
          "midi": 44,
          "name": "G#2",
          "ticks": 4584,
          "time": 42.132308,
          "velocity": 0.7795275590551181
        },
        {
          "duration": 0.19301449999999676,
          "durationTicks": 21,
          "midi": 39,
          "name": "D#2",
          "ticks": 4608,
          "time": 42.352896,
          "velocity": 0.7795275590551181
        },
        {
          "duration": 0.1746321666666688,
          "durationTicks": 19,
          "midi": 44,
          "name": "G#2",
          "ticks": 4632,
          "time": 42.573484,
          "velocity": 0.7795275590551181
        },
        {
          "duration": 0.19301449999999676,
          "durationTicks": 21,
          "midi": 46,
          "name": "A#2",
          "ticks": 4656,
          "time": 42.794072,
          "velocity": 0.8188976377952756
        },
        {
          "duration": 0.2022056666666714,
          "durationTicks": 22,
          "midi": 46,
          "name": "A#2",
          "ticks": 4680,
          "time": 43.01466,
          "velocity": 0.7795275590551181
        },
        {
          "duration": 0.2022056666666714,
          "durationTicks": 22,
          "midi": 41,
          "name": "F2",
          "ticks": 4704,
          "time": 43.235248,
          "velocity": 0.7795275590551181
        },
        {
          "duration": 0.11029400000000322,
          "durationTicks": 12,
          "midi": 46,
          "name": "A#2",
          "ticks": 4728,
          "time": 43.455836,
          "velocity": 0.7007874015748031
        },
        {
          "duration": 0.11029399999999612,
          "durationTicks": 12,
          "midi": 46,
          "name": "A#2",
          "ticks": 4740,
          "time": 43.56613,
          "velocity": 0.7795275590551181
        },
        {
          "duration": 0.018382333333335055,
          "durationTicks": 2,
          "midi": 46,
          "name": "A#2",
          "ticks": 4752,
          "time": 43.676424,
          "velocity": 0.6141732283464567
        },
        {
          "duration": 0.11029399999999612,
          "durationTicks": 12,
          "midi": 46,
          "name": "A#2",
          "ticks": 4764,
          "time": 43.786718,
          "velocity": 0.7007874015748031
        },
        {
          "duration": 0.19301450000000386,
          "durationTicks": 21,
          "midi": 46,
          "name": "A#2",
          "ticks": 4776,
          "time": 43.897012,
          "velocity": 0.7795275590551181
        },
        {
          "duration": 0.19301449999999676,
          "durationTicks": 21,
          "midi": 41,
          "name": "F2",
          "ticks": 4800,
          "time": 44.1176,
          "velocity": 0.7795275590551181
        },
        {
          "duration": 0.19301449999999676,
          "durationTicks": 21,
          "midi": 46,
          "name": "A#2",
          "ticks": 4824,
          "time": 44.338188,
          "velocity": 0.7795275590551181
        },
        {
          "duration": 0.19301449999999676,
          "durationTicks": 21,
          "midi": 37,
          "name": "C#2",
          "ticks": 4848,
          "time": 44.558776,
          "velocity": 0.8188976377952756
        },
        {
          "duration": 0.19301449999999676,
          "durationTicks": 21,
          "midi": 37,
          "name": "C#2",
          "ticks": 4872,
          "time": 44.779364,
          "velocity": 0.7795275590551181
        },
        {
          "duration": 0.2022056666666714,
          "durationTicks": 22,
          "midi": 44,
          "name": "G#2",
          "ticks": 4896,
          "time": 44.999952,
          "velocity": 0.7795275590551181
        },
        {
          "duration": 0.11029400000000322,
          "durationTicks": 12,
          "midi": 37,
          "name": "C#2",
          "ticks": 4920,
          "time": 45.22054,
          "velocity": 0.7007874015748031
        },
        {
          "duration": 0.11029399999999612,
          "durationTicks": 12,
          "midi": 37,
          "name": "C#2",
          "ticks": 4932,
          "time": 45.330834,
          "velocity": 0.7795275590551181
        },
        {
          "duration": 0.018382333333335055,
          "durationTicks": 2,
          "midi": 37,
          "name": "C#2",
          "ticks": 4944,
          "time": 45.441128,
          "velocity": 0.6141732283464567
        },
        {
          "duration": 0.19301450000000386,
          "durationTicks": 21,
          "midi": 37,
          "name": "C#2",
          "ticks": 4968,
          "time": 45.661716,
          "velocity": 0.7795275590551181
        },
        {
          "duration": 0.19301450000000386,
          "durationTicks": 21,
          "midi": 44,
          "name": "G#2",
          "ticks": 4992,
          "time": 45.882304,
          "velocity": 0.7795275590551181
        },
        {
          "duration": 0.19301450000000386,
          "durationTicks": 21,
          "midi": 37,
          "name": "C#2",
          "ticks": 5016,
          "time": 46.102892,
          "velocity": 0.8188976377952756
        },
        {
          "duration": 0.20220566666666429,
          "durationTicks": 22,
          "midi": 30,
          "name": "F#1",
          "ticks": 5040,
          "time": 46.32348,
          "velocity": 0.8188976377952756
        },
        {
          "duration": 0.2022056666666714,
          "durationTicks": 22,
          "midi": 30,
          "name": "F#1",
          "ticks": 5064,
          "time": 46.544068,
          "velocity": 0.7795275590551181
        },
        {
          "duration": 0.2022056666666714,
          "durationTicks": 22,
          "midi": 37,
          "name": "C#2",
          "ticks": 5088,
          "time": 46.764656,
          "velocity": 0.7795275590551181
        },
        {
          "duration": 0.11029399999999612,
          "durationTicks": 12,
          "midi": 42,
          "name": "F#2",
          "ticks": 5112,
          "time": 46.985244,
          "velocity": 0.7007874015748031
        },
        {
          "duration": 0.11029400000000322,
          "durationTicks": 12,
          "midi": 42,
          "name": "F#2",
          "ticks": 5124,
          "time": 47.095538,
          "velocity": 0.7795275590551181
        },
        {
          "duration": 0.018382333333335055,
          "durationTicks": 2,
          "midi": 37,
          "name": "C#2",
          "ticks": 5136,
          "time": 47.205832,
          "velocity": 0.6141732283464567
        },
        {
          "duration": 0.11029400000000322,
          "durationTicks": 12,
          "midi": 37,
          "name": "C#2",
          "ticks": 5148,
          "time": 47.316126,
          "velocity": 0.7007874015748031
        },
        {
          "duration": 0.19301449999999676,
          "durationTicks": 21,
          "midi": 37,
          "name": "C#2",
          "ticks": 5160,
          "time": 47.42642,
          "velocity": 0.7795275590551181
        },
        {
          "duration": 0.19301450000000386,
          "durationTicks": 21,
          "midi": 42,
          "name": "F#2",
          "ticks": 5184,
          "time": 47.647008,
          "velocity": 0.8188976377952756
        },
        {
          "duration": 0.19301450000000386,
          "durationTicks": 21,
          "midi": 37,
          "name": "C#2",
          "ticks": 5208,
          "time": 47.867596,
          "velocity": 0.7795275590551181
        },
        {
          "duration": 0.19301450000000386,
          "durationTicks": 21,
          "midi": 44,
          "name": "G#2",
          "ticks": 5232,
          "time": 48.088184,
          "velocity": 0.8188976377952756
        },
        {
          "duration": 0.2022056666666714,
          "durationTicks": 22,
          "midi": 44,
          "name": "G#2",
          "ticks": 5256,
          "time": 48.308772,
          "velocity": 0.7795275590551181
        },
        {
          "duration": 0.2022056666666714,
          "durationTicks": 22,
          "midi": 39,
          "name": "D#2",
          "ticks": 5280,
          "time": 48.52936,
          "velocity": 0.7795275590551181
        },
        {
          "duration": 0.11029399999999612,
          "durationTicks": 12,
          "midi": 44,
          "name": "G#2",
          "ticks": 5304,
          "time": 48.749948,
          "velocity": 0.7007874015748031
        },
        {
          "duration": 0.11029400000000322,
          "durationTicks": 12,
          "midi": 44,
          "name": "G#2",
          "ticks": 5316,
          "time": 48.860242,
          "velocity": 0.7795275590551181
        },
        {
          "duration": 0.018382333333335055,
          "durationTicks": 2,
          "midi": 44,
          "name": "G#2",
          "ticks": 5328,
          "time": 48.970536,
          "velocity": 0.6141732283464567
        },
        {
          "duration": 0.2022056666666714,
          "durationTicks": 22,
          "midi": 44,
          "name": "G#2",
          "ticks": 5352,
          "time": 49.191124,
          "velocity": 0.7795275590551181
        },
        {
          "duration": 0.2022056666666714,
          "durationTicks": 22,
          "midi": 39,
          "name": "D#2",
          "ticks": 5376,
          "time": 49.411712,
          "velocity": 0.7795275590551181
        },
        {
          "duration": 0.1746321666666688,
          "durationTicks": 19,
          "midi": 44,
          "name": "G#2",
          "ticks": 5400,
          "time": 49.6323,
          "velocity": 0.7795275590551181
        },
        {
          "duration": 0.2022056666666714,
          "durationTicks": 22,
          "midi": 46,
          "name": "A#2",
          "ticks": 5424,
          "time": 49.852888,
          "velocity": 0.8188976377952756
        },
        {
          "duration": 0.2022056666666714,
          "durationTicks": 22,
          "midi": 46,
          "name": "A#2",
          "ticks": 5448,
          "time": 50.073476,
          "velocity": 0.7795275590551181
        },
        {
          "duration": 0.2022056666666714,
          "durationTicks": 22,
          "midi": 41,
          "name": "F2",
          "ticks": 5472,
          "time": 50.294064,
          "velocity": 0.7795275590551181
        },
        {
          "duration": 0.11029400000000322,
          "durationTicks": 12,
          "midi": 46,
          "name": "A#2",
          "ticks": 5496,
          "time": 50.514652,
          "velocity": 0.7007874015748031
        },
        {
          "duration": 0.11029399999999612,
          "durationTicks": 12,
          "midi": 46,
          "name": "A#2",
          "ticks": 5508,
          "time": 50.624946,
          "velocity": 0.7795275590551181
        },
        {
          "duration": 0.018382333333335055,
          "durationTicks": 2,
          "midi": 46,
          "name": "A#2",
          "ticks": 5520,
          "time": 50.73524,
          "velocity": 0.6141732283464567
        },
        {
          "duration": 0.11029399999999612,
          "durationTicks": 12,
          "midi": 46,
          "name": "A#2",
          "ticks": 5532,
          "time": 50.845534,
          "velocity": 0.7007874015748031
        },
        {
          "duration": 0.19301450000000386,
          "durationTicks": 21,
          "midi": 46,
          "name": "A#2",
          "ticks": 5544,
          "time": 50.955828,
          "velocity": 0.7795275590551181
        },
        {
          "duration": 0.19301449999999676,
          "durationTicks": 21,
          "midi": 41,
          "name": "F2",
          "ticks": 5568,
          "time": 51.176416,
          "velocity": 0.7795275590551181
        },
        {
          "duration": 0.19301449999999676,
          "durationTicks": 21,
          "midi": 46,
          "name": "A#2",
          "ticks": 5592,
          "time": 51.397004,
          "velocity": 0.7795275590551181
        },
        {
          "duration": 0.19301449999999676,
          "durationTicks": 21,
          "midi": 37,
          "name": "C#2",
          "ticks": 5616,
          "time": 51.617592,
          "velocity": 0.8188976377952756
        },
        {
          "duration": 0.19301449999999676,
          "durationTicks": 21,
          "midi": 37,
          "name": "C#2",
          "ticks": 5640,
          "time": 51.83818,
          "velocity": 0.7795275590551181
        },
        {
          "duration": 0.2022056666666714,
          "durationTicks": 22,
          "midi": 44,
          "name": "G#2",
          "ticks": 5664,
          "time": 52.058768,
          "velocity": 0.8188976377952756
        },
        {
          "duration": 0.43198483333333826,
          "durationTicks": 47,
          "midi": 51,
          "name": "D#3",
          "ticks": 5688,
          "time": 52.279356,
          "velocity": 0.7795275590551181
        },
        {
          "duration": 0.2022056666666714,
          "durationTicks": 22,
          "midi": 49,
          "name": "C#3",
          "ticks": 5736,
          "time": 52.720532,
          "velocity": 0.7795275590551181
        },
        {
          "duration": 0.19301450000000386,
          "durationTicks": 21,
          "midi": 48,
          "name": "C3",
          "ticks": 5760,
          "time": 52.94112,
          "velocity": 0.7795275590551181
        },
        {
          "duration": 0.17463216666667591,
          "durationTicks": 19,
          "midi": 44,
          "name": "G#2",
          "ticks": 5784,
          "time": 53.161708,
          "velocity": 0.7795275590551181
        },
        {
          "duration": 0.19301449999999676,
          "durationTicks": 21,
          "midi": 46,
          "name": "A#2",
          "ticks": 5808,
          "time": 53.382296000000004,
          "velocity": 0.7795275590551181
        },
        {
          "duration": 0.18382333333332923,
          "durationTicks": 20,
          "midi": 41,
          "name": "F2",
          "ticks": 5832,
          "time": 53.602884,
          "velocity": 0.7795275590551181
        },
        {
          "duration": 0.2022056666666714,
          "durationTicks": 22,
          "midi": 46,
          "name": "A#2",
          "ticks": 5856,
          "time": 53.823472,
          "velocity": 0.7795275590551181
        },
        {
          "duration": 0.4136024999999961,
          "durationTicks": 45,
          "midi": 44,
          "name": "G#2",
          "ticks": 5880,
          "time": 54.04406,
          "velocity": 0.7795275590551181
        },
        {
          "duration": 0.19301449999999676,
          "durationTicks": 21,
          "midi": 39,
          "name": "D#2",
          "ticks": 5928,
          "time": 54.485236,
          "velocity": 0.7795275590551181
        },
        {
          "duration": 0.18382333333333634,
          "durationTicks": 20,
          "midi": 44,
          "name": "G#2",
          "ticks": 5952,
          "time": 54.705824,
          "velocity": 0.7795275590551181
        },
        {
          "duration": 0.4136025000000032,
          "durationTicks": 45,
          "midi": 42,
          "name": "F#2",
          "ticks": 5976,
          "time": 54.926412,
          "velocity": 0.7795275590551181
        },
        {
          "duration": 0.2022056666666714,
          "durationTicks": 22,
          "midi": 37,
          "name": "C#2",
          "ticks": 6024,
          "time": 55.367588,
          "velocity": 0.7795275590551181
        },
        {
          "duration": 0.18382333333333634,
          "durationTicks": 20,
          "midi": 42,
          "name": "F#2",
          "ticks": 6048,
          "time": 55.588176,
          "velocity": 0.7795275590551181
        },
        {
          "duration": 0.4136024999999961,
          "durationTicks": 45,
          "midi": 41,
          "name": "F2",
          "ticks": 6072,
          "time": 55.808764000000004,
          "velocity": 0.7795275590551181
        },
        {
          "duration": 0.18382333333333634,
          "durationTicks": 20,
          "midi": 36,
          "name": "C2",
          "ticks": 6120,
          "time": 56.24994,
          "velocity": 0.7795275590551181
        },
        {
          "duration": 0.42279366666667073,
          "durationTicks": 46,
          "midi": 41,
          "name": "F2",
          "ticks": 6144,
          "time": 56.470528,
          "velocity": 0.7795275590551181
        },
        {
          "duration": 0.19301449999999676,
          "durationTicks": 21,
          "midi": 42,
          "name": "F#2",
          "ticks": 6192,
          "time": 56.911704,
          "velocity": 0.7795275590551181
        },
        {
          "duration": 0.2022056666666714,
          "durationTicks": 22,
          "midi": 37,
          "name": "C#2",
          "ticks": 6216,
          "time": 57.132292,
          "velocity": 0.7795275590551181
        },
        {
          "duration": 0.18382333333333634,
          "durationTicks": 20,
          "midi": 42,
          "name": "F#2",
          "ticks": 6240,
          "time": 57.35288,
          "velocity": 0.7795275590551181
        },
        {
          "duration": 0.4136025000000032,
          "durationTicks": 45,
          "midi": 44,
          "name": "G#2",
          "ticks": 6264,
          "time": 57.573468,
          "velocity": 0.7795275590551181
        },
        {
          "duration": 0.18382333333333634,
          "durationTicks": 20,
          "midi": 39,
          "name": "D#2",
          "ticks": 6312,
          "time": 58.014644,
          "velocity": 0.7795275590551181
        },
        {
          "duration": 0.16544100000000128,
          "durationTicks": 18,
          "midi": 44,
          "name": "G#2",
          "ticks": 6336,
          "time": 58.235232,
          "velocity": 0.7795275590551181
        },
        {
          "duration": 1.5441159999999954,
          "durationTicks": 168,
          "midi": 46,
          "name": "A#2",
          "ticks": 6360,
          "time": 58.45582000000001,
          "velocity": 0.8110236220472441
        },
        {
          "duration": 0.10110283333332859,
          "durationTicks": 11,
          "midi": 44,
          "name": "G#2",
          "ticks": 6528,
          "time": 59.999936000000005,
          "velocity": 0.6141732283464567
        },
        {
          "duration": 0.10110283333332859,
          "durationTicks": 11,
          "midi": 46,
          "name": "A#2",
          "ticks": 6540,
          "time": 60.11023000000001,
          "velocity": 0.6141732283464567
        },
        {
          "duration": 0.10110283333332859,
          "durationTicks": 11,
          "midi": 41,
          "name": "F2",
          "ticks": 6552,
          "time": 60.220524000000005,
          "velocity": 0.6141732283464567
        },
        {
          "duration": 0.10110283333332859,
          "durationTicks": 11,
          "midi": 37,
          "name": "C#2",
          "ticks": 6564,
          "time": 60.33081800000001,
          "velocity": 0.6141732283464567
        },
        {
          "duration": 0.2113968333333318,
          "durationTicks": 23,
          "midi": 30,
          "name": "F#1",
          "ticks": 6576,
          "time": 60.441112000000004,
          "velocity": 0.8110236220472441
        },
        {
          "duration": 0.2113968333333318,
          "durationTicks": 23,
          "midi": 42,
          "name": "F#2",
          "ticks": 6600,
          "time": 60.6617,
          "velocity": 0.7795275590551181
        },
        {
          "duration": 0.2113968333333247,
          "durationTicks": 23,
          "midi": 30,
          "name": "F#1",
          "ticks": 6624,
          "time": 60.88228800000001,
          "velocity": 0.7322834645669292
        },
        {
          "duration": 0.2113968333333247,
          "durationTicks": 23,
          "midi": 42,
          "name": "F#2",
          "ticks": 6648,
          "time": 61.10287600000001,
          "velocity": 0.7559055118110236
        },
        {
          "duration": 0.2113968333333247,
          "durationTicks": 23,
          "midi": 30,
          "name": "F#1",
          "ticks": 6672,
          "time": 61.32346400000001,
          "velocity": 0.7795275590551181
        },
        {
          "duration": 0.2113968333333318,
          "durationTicks": 23,
          "midi": 42,
          "name": "F#2",
          "ticks": 6696,
          "time": 61.54405200000001,
          "velocity": 0.7952755905511811
        },
        {
          "duration": 0.2113968333333318,
          "durationTicks": 23,
          "midi": 30,
          "name": "F#1",
          "ticks": 6720,
          "time": 61.76464000000001,
          "velocity": 0.7637795275590551
        },
        {
          "duration": 0.2113968333333318,
          "durationTicks": 23,
          "midi": 42,
          "name": "F#2",
          "ticks": 6744,
          "time": 61.985228000000006,
          "velocity": 0.7795275590551181
        },
        {
          "duration": 0.2113968333333318,
          "durationTicks": 23,
          "midi": 32,
          "name": "G#1",
          "ticks": 6768,
          "time": 62.205816000000006,
          "velocity": 0.7952755905511811
        },
        {
          "duration": 0.2113968333333318,
          "durationTicks": 23,
          "midi": 44,
          "name": "G#2",
          "ticks": 6792,
          "time": 62.426404000000005,
          "velocity": 0.7637795275590551
        },
        {
          "duration": 0.2113968333333318,
          "durationTicks": 23,
          "midi": 32,
          "name": "G#1",
          "ticks": 6816,
          "time": 62.646992000000004,
          "velocity": 0.7637795275590551
        },
        {
          "duration": 0.2113968333333318,
          "durationTicks": 23,
          "midi": 44,
          "name": "G#2",
          "ticks": 6840,
          "time": 62.867580000000004,
          "velocity": 0.7716535433070866
        },
        {
          "duration": 0.2113968333333247,
          "durationTicks": 23,
          "midi": 32,
          "name": "G#1",
          "ticks": 6864,
          "time": 63.08816800000001,
          "velocity": 0.7716535433070866
        },
        {
          "duration": 0.2113968333333247,
          "durationTicks": 23,
          "midi": 44,
          "name": "G#2",
          "ticks": 6888,
          "time": 63.30875600000001,
          "velocity": 0.7952755905511811
        },
        {
          "duration": 0.2113968333333247,
          "durationTicks": 23,
          "midi": 32,
          "name": "G#1",
          "ticks": 6912,
          "time": 63.52934400000001,
          "velocity": 0.7795275590551181
        },
        {
          "duration": 0.16544100000000128,
          "durationTicks": 18,
          "midi": 44,
          "name": "G#2",
          "ticks": 6936,
          "time": 63.74993200000001,
          "velocity": 0.7637795275590551
        },
        {
          "duration": 0.2113968333333247,
          "durationTicks": 23,
          "midi": 37,
          "name": "C#2",
          "ticks": 6960,
          "time": 63.97052000000001,
          "velocity": 0.8110236220472441
        },
        {
          "duration": 0.21139683333333892,
          "durationTicks": 23,
          "midi": 49,
          "name": "C#3",
          "ticks": 6984,
          "time": 64.191108,
          "velocity": 0.7795275590551181
        },
        {
          "duration": 0.2113968333333247,
          "durationTicks": 23,
          "midi": 37,
          "name": "C#2",
          "ticks": 7008,
          "time": 64.411696,
          "velocity": 0.7480314960629921
        },
        {
          "duration": 0.21139683333333892,
          "durationTicks": 23,
          "midi": 49,
          "name": "C#3",
          "ticks": 7032,
          "time": 64.632284,
          "velocity": 0.7874015748031497
        },
        {
          "duration": 0.2113968333333247,
          "durationTicks": 23,
          "midi": 37,
          "name": "C#2",
          "ticks": 7056,
          "time": 64.852872,
          "velocity": 0.7637795275590551
        },
        {
          "duration": 0.21139683333333892,
          "durationTicks": 23,
          "midi": 49,
          "name": "C#3",
          "ticks": 7080,
          "time": 65.07346,
          "velocity": 0.7952755905511811
        },
        {
          "duration": 0.2113968333333247,
          "durationTicks": 23,
          "midi": 37,
          "name": "C#2",
          "ticks": 7104,
          "time": 65.294048,
          "velocity": 0.7795275590551181
        },
        {
          "duration": 0.16544099999998707,
          "durationTicks": 18,
          "midi": 49,
          "name": "C#3",
          "ticks": 7128,
          "time": 65.51463600000001,
          "velocity": 0.7716535433070866
        },
        {
          "duration": 0.2113968333333247,
          "durationTicks": 23,
          "midi": 34,
          "name": "A#1",
          "ticks": 7152,
          "time": 65.735224,
          "velocity": 0.7795275590551181
        },
        {
          "duration": 0.21139683333333892,
          "durationTicks": 23,
          "midi": 46,
          "name": "A#2",
          "ticks": 7176,
          "time": 65.955812,
          "velocity": 0.7795275590551181
        },
        {
          "duration": 0.2113968333333247,
          "durationTicks": 23,
          "midi": 34,
          "name": "A#1",
          "ticks": 7200,
          "time": 66.1764,
          "velocity": 0.7637795275590551
        },
        {
          "duration": 0.21139683333333892,
          "durationTicks": 23,
          "midi": 46,
          "name": "A#2",
          "ticks": 7224,
          "time": 66.396988,
          "velocity": 0.7874015748031497
        },
        {
          "duration": 0.2113968333333247,
          "durationTicks": 23,
          "midi": 34,
          "name": "A#1",
          "ticks": 7248,
          "time": 66.617576,
          "velocity": 0.7716535433070866
        },
        {
          "duration": 0.2113968333333247,
          "durationTicks": 23,
          "midi": 46,
          "name": "A#2",
          "ticks": 7272,
          "time": 66.838164,
          "velocity": 0.7795275590551181
        },
        {
          "duration": 0.2113968333333247,
          "durationTicks": 23,
          "midi": 34,
          "name": "A#1",
          "ticks": 7296,
          "time": 67.058752,
          "velocity": 0.7952755905511811
        },
        {
          "duration": 0.16544100000000128,
          "durationTicks": 18,
          "midi": 46,
          "name": "A#2",
          "ticks": 7320,
          "time": 67.27934,
          "velocity": 0.7874015748031497
        },
        {
          "duration": 0.21139683333333892,
          "durationTicks": 23,
          "midi": 30,
          "name": "F#1",
          "ticks": 7344,
          "time": 67.499928,
          "velocity": 0.8110236220472441
        },
        {
          "duration": 0.2113968333333247,
          "durationTicks": 23,
          "midi": 42,
          "name": "F#2",
          "ticks": 7368,
          "time": 67.720516,
          "velocity": 0.7795275590551181
        },
        {
          "duration": 0.21139683333333892,
          "durationTicks": 23,
          "midi": 30,
          "name": "F#1",
          "ticks": 7392,
          "time": 67.941104,
          "velocity": 0.7322834645669292
        },
        {
          "duration": 0.2113968333333247,
          "durationTicks": 23,
          "midi": 42,
          "name": "F#2",
          "ticks": 7416,
          "time": 68.161692,
          "velocity": 0.7559055118110236
        },
        {
          "duration": 0.21139683333333892,
          "durationTicks": 23,
          "midi": 30,
          "name": "F#1",
          "ticks": 7440,
          "time": 68.38228,
          "velocity": 0.7795275590551181
        },
        {
          "duration": 0.2113968333333247,
          "durationTicks": 23,
          "midi": 42,
          "name": "F#2",
          "ticks": 7464,
          "time": 68.602868,
          "velocity": 0.7952755905511811
        },
        {
          "duration": 0.21139683333333892,
          "durationTicks": 23,
          "midi": 30,
          "name": "F#1",
          "ticks": 7488,
          "time": 68.823456,
          "velocity": 0.7637795275590551
        },
        {
          "duration": 0.19301450000000386,
          "durationTicks": 21,
          "midi": 30,
          "name": "F#1",
          "ticks": 7512,
          "time": 69.044044,
          "velocity": 0.7795275590551181
        },
        {
          "duration": 0.2113968333333247,
          "durationTicks": 23,
          "midi": 29,
          "name": "F1",
          "ticks": 7536,
          "time": 69.264632,
          "velocity": 0.7952755905511811
        },
        {
          "duration": 0.2113968333333247,
          "durationTicks": 23,
          "midi": 41,
          "name": "F2",
          "ticks": 7560,
          "time": 69.48522,
          "velocity": 0.7637795275590551
        },
        {
          "duration": 0.2113968333333247,
          "durationTicks": 23,
          "midi": 29,
          "name": "F1",
          "ticks": 7584,
          "time": 69.705808,
          "velocity": 0.7637795275590551
        },
        {
          "duration": 0.21139683333333892,
          "durationTicks": 23,
          "midi": 41,
          "name": "F2",
          "ticks": 7608,
          "time": 69.926396,
          "velocity": 0.7716535433070866
        },
        {
          "duration": 0.2113968333333247,
          "durationTicks": 23,
          "midi": 29,
          "name": "F1",
          "ticks": 7632,
          "time": 70.146984,
          "velocity": 0.7716535433070866
        },
        {
          "duration": 0.21139683333333892,
          "durationTicks": 23,
          "midi": 41,
          "name": "F2",
          "ticks": 7656,
          "time": 70.367572,
          "velocity": 0.7952755905511811
        },
        {
          "duration": 0.2113968333333247,
          "durationTicks": 23,
          "midi": 29,
          "name": "F1",
          "ticks": 7680,
          "time": 70.58816,
          "velocity": 0.7795275590551181
        },
        {
          "duration": 0.16544100000000128,
          "durationTicks": 18,
          "midi": 41,
          "name": "F2",
          "ticks": 7704,
          "time": 70.808748,
          "velocity": 0.7637795275590551
        },
        {
          "duration": 0.2113968333333247,
          "durationTicks": 23,
          "midi": 34,
          "name": "A#1",
          "ticks": 7728,
          "time": 71.029336,
          "velocity": 0.7795275590551181
        },
        {
          "duration": 0.21139683333333892,
          "durationTicks": 23,
          "midi": 46,
          "name": "A#2",
          "ticks": 7752,
          "time": 71.249924,
          "velocity": 0.7795275590551181
        },
        {
          "duration": 0.2113968333333247,
          "durationTicks": 23,
          "midi": 34,
          "name": "A#1",
          "ticks": 7776,
          "time": 71.470512,
          "velocity": 0.7637795275590551
        },
        {
          "duration": 0.2113968333333247,
          "durationTicks": 23,
          "midi": 46,
          "name": "A#2",
          "ticks": 7800,
          "time": 71.6911,
          "velocity": 0.7874015748031497
        },
        {
          "duration": 0.2113968333333247,
          "durationTicks": 23,
          "midi": 36,
          "name": "C2",
          "ticks": 7824,
          "time": 71.911688,
          "velocity": 0.8188976377952756
        },
        {
          "duration": 0.2113968333333247,
          "durationTicks": 23,
          "midi": 48,
          "name": "C3",
          "ticks": 7848,
          "time": 72.132276,
          "velocity": 0.7795275590551181
        },
        {
          "duration": 0.21139683333333892,
          "durationTicks": 23,
          "midi": 36,
          "name": "C2",
          "ticks": 7872,
          "time": 72.352864,
          "velocity": 0.7952755905511811
        },
        {
          "duration": 0.2113968333333247,
          "durationTicks": 23,
          "midi": 48,
          "name": "C3",
          "ticks": 7896,
          "time": 72.573452,
          "velocity": 0.7795275590551181
        },
        {
          "duration": 0.21139683333333892,
          "durationTicks": 23,
          "midi": 37,
          "name": "C#2",
          "ticks": 7920,
          "time": 72.79404,
          "velocity": 0.7952755905511811
        },
        {
          "duration": 0.2113968333333247,
          "durationTicks": 23,
          "midi": 49,
          "name": "C#3",
          "ticks": 7944,
          "time": 73.014628,
          "velocity": 0.7637795275590551
        },
        {
          "duration": 0.21139683333333892,
          "durationTicks": 23,
          "midi": 37,
          "name": "C#2",
          "ticks": 7968,
          "time": 73.235216,
          "velocity": 0.7637795275590551
        },
        {
          "duration": 0.2113968333333247,
          "durationTicks": 23,
          "midi": 49,
          "name": "C#3",
          "ticks": 7992,
          "time": 73.455804,
          "velocity": 0.7716535433070866
        },
        {
          "duration": 0.2113968333333247,
          "durationTicks": 23,
          "midi": 29,
          "name": "F1",
          "ticks": 8016,
          "time": 73.676392,
          "velocity": 0.7952755905511811
        },
        {
          "duration": 0.2113968333333247,
          "durationTicks": 23,
          "midi": 41,
          "name": "F2",
          "ticks": 8040,
          "time": 73.89698,
          "velocity": 0.7795275590551181
        },
        {
          "duration": 0.2113968333333247,
          "durationTicks": 23,
          "midi": 29,
          "name": "F1",
          "ticks": 8064,
          "time": 74.117568,
          "velocity": 0.7874015748031497
        },
        {
          "duration": 0.16544100000000128,
          "durationTicks": 18,
          "midi": 41,
          "name": "F2",
          "ticks": 8088,
          "time": 74.338156,
          "velocity": 0.7795275590551181
        },
        {
          "duration": 0.2113968333333247,
          "durationTicks": 23,
          "midi": 30,
          "name": "F#1",
          "ticks": 8112,
          "time": 74.558744,
          "velocity": 0.8110236220472441
        },
        {
          "duration": 0.21139683333333892,
          "durationTicks": 23,
          "midi": 42,
          "name": "F#2",
          "ticks": 8136,
          "time": 74.779332,
          "velocity": 0.7795275590551181
        },
        {
          "duration": 0.2113968333333247,
          "durationTicks": 23,
          "midi": 30,
          "name": "F#1",
          "ticks": 8160,
          "time": 74.99992,
          "velocity": 0.7322834645669292
        },
        {
          "duration": 0.21139683333333892,
          "durationTicks": 23,
          "midi": 42,
          "name": "F#2",
          "ticks": 8184,
          "time": 75.220508,
          "velocity": 0.7559055118110236
        },
        {
          "duration": 0.2113968333333247,
          "durationTicks": 23,
          "midi": 30,
          "name": "F#1",
          "ticks": 8208,
          "time": 75.441096,
          "velocity": 0.7795275590551181
        },
        {
          "duration": 0.21139683333333892,
          "durationTicks": 23,
          "midi": 42,
          "name": "F#2",
          "ticks": 8232,
          "time": 75.661684,
          "velocity": 0.7952755905511811
        },
        {
          "duration": 0.2113968333333247,
          "durationTicks": 23,
          "midi": 30,
          "name": "F#1",
          "ticks": 8256,
          "time": 75.882272,
          "velocity": 0.7637795275590551
        },
        {
          "duration": 0.2113968333333247,
          "durationTicks": 23,
          "midi": 42,
          "name": "F#2",
          "ticks": 8280,
          "time": 76.10286,
          "velocity": 0.7795275590551181
        },
        {
          "duration": 0.2113968333333247,
          "durationTicks": 23,
          "midi": 32,
          "name": "G#1",
          "ticks": 8304,
          "time": 76.323448,
          "velocity": 0.7952755905511811
        },
        {
          "duration": 0.2113968333333247,
          "durationTicks": 23,
          "midi": 44,
          "name": "G#2",
          "ticks": 8328,
          "time": 76.544036,
          "velocity": 0.7637795275590551
        },
        {
          "duration": 0.2113968333333247,
          "durationTicks": 23,
          "midi": 32,
          "name": "G#1",
          "ticks": 8352,
          "time": 76.764624,
          "velocity": 0.7637795275590551
        },
        {
          "duration": 0.2113968333333247,
          "durationTicks": 23,
          "midi": 44,
          "name": "G#2",
          "ticks": 8376,
          "time": 76.985212,
          "velocity": 0.7716535433070866
        },
        {
          "duration": 0.21139683333333892,
          "durationTicks": 23,
          "midi": 32,
          "name": "G#1",
          "ticks": 8400,
          "time": 77.2058,
          "velocity": 0.7716535433070866
        },
        {
          "duration": 0.2113968333333247,
          "durationTicks": 23,
          "midi": 44,
          "name": "G#2",
          "ticks": 8424,
          "time": 77.426388,
          "velocity": 0.7952755905511811
        },
        {
          "duration": 0.21139683333333892,
          "durationTicks": 23,
          "midi": 32,
          "name": "G#1",
          "ticks": 8448,
          "time": 77.646976,
          "velocity": 0.7795275590551181
        },
        {
          "duration": 0.16544100000000128,
          "durationTicks": 18,
          "midi": 44,
          "name": "G#2",
          "ticks": 8472,
          "time": 77.867564,
          "velocity": 0.7637795275590551
        },
        {
          "duration": 0.21139683333333892,
          "durationTicks": 23,
          "midi": 37,
          "name": "C#2",
          "ticks": 8496,
          "time": 78.088152,
          "velocity": 0.8110236220472441
        },
        {
          "duration": 0.2113968333333247,
          "durationTicks": 23,
          "midi": 49,
          "name": "C#3",
          "ticks": 8520,
          "time": 78.30874,
          "velocity": 0.7795275590551181
        },
        {
          "duration": 0.2113968333333247,
          "durationTicks": 23,
          "midi": 37,
          "name": "C#2",
          "ticks": 8544,
          "time": 78.529328,
          "velocity": 0.7480314960629921
        },
        {
          "duration": 0.2113968333333247,
          "durationTicks": 23,
          "midi": 49,
          "name": "C#3",
          "ticks": 8568,
          "time": 78.749916,
          "velocity": 0.7874015748031497
        },
        {
          "duration": 0.2113968333333247,
          "durationTicks": 23,
          "midi": 37,
          "name": "C#2",
          "ticks": 8592,
          "time": 78.970504,
          "velocity": 0.7637795275590551
        },
        {
          "duration": 0.2113968333333247,
          "durationTicks": 23,
          "midi": 49,
          "name": "C#3",
          "ticks": 8616,
          "time": 79.191092,
          "velocity": 0.7952755905511811
        },
        {
          "duration": 0.2113968333333247,
          "durationTicks": 23,
          "midi": 37,
          "name": "C#2",
          "ticks": 8640,
          "time": 79.41168,
          "velocity": 0.7795275590551181
        },
        {
          "duration": 0.16544100000000128,
          "durationTicks": 18,
          "midi": 49,
          "name": "C#3",
          "ticks": 8664,
          "time": 79.632268,
          "velocity": 0.7716535433070866
        },
        {
          "duration": 0.2113968333333247,
          "durationTicks": 23,
          "midi": 34,
          "name": "A#1",
          "ticks": 8688,
          "time": 79.852856,
          "velocity": 0.7795275590551181
        },
        {
          "duration": 0.21139683333333892,
          "durationTicks": 23,
          "midi": 46,
          "name": "A#2",
          "ticks": 8712,
          "time": 80.073444,
          "velocity": 0.7795275590551181
        },
        {
          "duration": 0.2113968333333247,
          "durationTicks": 23,
          "midi": 34,
          "name": "A#1",
          "ticks": 8736,
          "time": 80.294032,
          "velocity": 0.7637795275590551
        },
        {
          "duration": 0.21139683333333892,
          "durationTicks": 23,
          "midi": 46,
          "name": "A#2",
          "ticks": 8760,
          "time": 80.51462,
          "velocity": 0.7874015748031497
        },
        {
          "duration": 0.2113968333333247,
          "durationTicks": 23,
          "midi": 34,
          "name": "A#1",
          "ticks": 8784,
          "time": 80.735208,
          "velocity": 0.7716535433070866
        },
        {
          "duration": 0.2113968333333247,
          "durationTicks": 23,
          "midi": 46,
          "name": "A#2",
          "ticks": 8808,
          "time": 80.955796,
          "velocity": 0.7795275590551181
        },
        {
          "duration": 0.2113968333333247,
          "durationTicks": 23,
          "midi": 34,
          "name": "A#1",
          "ticks": 8832,
          "time": 81.176384,
          "velocity": 0.7952755905511811
        },
        {
          "duration": 0.16544100000000128,
          "durationTicks": 18,
          "midi": 46,
          "name": "A#2",
          "ticks": 8856,
          "time": 81.396972,
          "velocity": 0.7874015748031497
        },
        {
          "duration": 0.21139683333333892,
          "durationTicks": 23,
          "midi": 27,
          "name": "D#1",
          "ticks": 8880,
          "time": 81.61756,
          "velocity": 0.8110236220472441
        },
        {
          "duration": 0.2113968333333247,
          "durationTicks": 23,
          "midi": 39,
          "name": "D#2",
          "ticks": 8904,
          "time": 81.838148,
          "velocity": 0.7795275590551181
        },
        {
          "duration": 0.21139683333333892,
          "durationTicks": 23,
          "midi": 27,
          "name": "D#1",
          "ticks": 8928,
          "time": 82.058736,
          "velocity": 0.7637795275590551
        },
        {
          "duration": 0.2113968333333247,
          "durationTicks": 23,
          "midi": 39,
          "name": "D#2",
          "ticks": 8952,
          "time": 82.279324,
          "velocity": 0.7559055118110236
        },
        {
          "duration": 0.21139683333333892,
          "durationTicks": 23,
          "midi": 27,
          "name": "D#1",
          "ticks": 8976,
          "time": 82.499912,
          "velocity": 0.7795275590551181
        },
        {
          "duration": 0.2113968333333247,
          "durationTicks": 23,
          "midi": 39,
          "name": "D#2",
          "ticks": 9000,
          "time": 82.7205,
          "velocity": 0.7795275590551181
        },
        {
          "duration": 0.21139683333333892,
          "durationTicks": 23,
          "midi": 27,
          "name": "D#1",
          "ticks": 9024,
          "time": 82.941088,
          "velocity": 0.7795275590551181
        },
        {
          "duration": 0.20220566666665718,
          "durationTicks": 22,
          "midi": 39,
          "name": "D#2",
          "ticks": 9048,
          "time": 83.161676,
          "velocity": 0.7874015748031497
        },
        {
          "duration": 0.2113968333333247,
          "durationTicks": 23,
          "midi": 32,
          "name": "G#1",
          "ticks": 9072,
          "time": 83.382264,
          "velocity": 0.7952755905511811
        },
        {
          "duration": 0.2113968333333247,
          "durationTicks": 23,
          "midi": 44,
          "name": "G#2",
          "ticks": 9096,
          "time": 83.602852,
          "velocity": 0.7637795275590551
        },
        {
          "duration": 0.2113968333333247,
          "durationTicks": 23,
          "midi": 32,
          "name": "G#1",
          "ticks": 9120,
          "time": 83.82344,
          "velocity": 0.7637795275590551
        },
        {
          "duration": 0.21139683333333892,
          "durationTicks": 23,
          "midi": 44,
          "name": "G#2",
          "ticks": 9144,
          "time": 84.044028,
          "velocity": 0.7716535433070866
        },
        {
          "duration": 0.2113968333333247,
          "durationTicks": 23,
          "midi": 32,
          "name": "G#1",
          "ticks": 9168,
          "time": 84.264616,
          "velocity": 0.7716535433070866
        },
        {
          "duration": 0.21139683333333892,
          "durationTicks": 23,
          "midi": 44,
          "name": "G#2",
          "ticks": 9192,
          "time": 84.485204,
          "velocity": 0.7952755905511811
        },
        {
          "duration": 0.2113968333333247,
          "durationTicks": 23,
          "midi": 32,
          "name": "G#1",
          "ticks": 9216,
          "time": 84.705792,
          "velocity": 0.7795275590551181
        },
        {
          "duration": 0.16544100000000128,
          "durationTicks": 18,
          "midi": 44,
          "name": "G#2",
          "ticks": 9240,
          "time": 84.92638,
          "velocity": 0.7637795275590551
        },
        {
          "duration": 0.2113968333333247,
          "durationTicks": 23,
          "midi": 30,
          "name": "F#1",
          "ticks": 9264,
          "time": 85.146968,
          "velocity": 0.8110236220472441
        },
        {
          "duration": 0.21139683333333892,
          "durationTicks": 23,
          "midi": 42,
          "name": "F#2",
          "ticks": 9288,
          "time": 85.367556,
          "velocity": 0.7795275590551181
        },
        {
          "duration": 0.2113968333333247,
          "durationTicks": 23,
          "midi": 30,
          "name": "F#1",
          "ticks": 9312,
          "time": 85.588144,
          "velocity": 0.7322834645669292
        },
        {
          "duration": 0.4411759999999987,
          "durationTicks": 48,
          "midi": 42,
          "name": "F#2",
          "ticks": 9336,
          "time": 85.808732,
          "velocity": 0.8267716535433071
        },
        {
          "duration": 0.2113968333333247,
          "durationTicks": 23,
          "midi": 42,
          "name": "F#2",
          "ticks": 9384,
          "time": 86.249908,
          "velocity": 0.7952755905511811
        },
        {
          "duration": 0.4411759999999987,
          "durationTicks": 48,
          "midi": 42,
          "name": "F#2",
          "ticks": 9408,
          "time": 86.470496,
          "velocity": 0.7874015748031497
        },
        {
          "duration": 0.21139683333333892,
          "durationTicks": 23,
          "midi": 30,
          "name": "F#1",
          "ticks": 9456,
          "time": 86.911672,
          "velocity": 0.8031496062992126
        },
        {
          "duration": 0.2113968333333247,
          "durationTicks": 23,
          "midi": 30,
          "name": "F#1",
          "ticks": 9480,
          "time": 87.13226,
          "velocity": 0.7795275590551181
        },
        {
          "duration": 0.18382333333333634,
          "durationTicks": 20,
          "midi": 30,
          "name": "F#1",
          "ticks": 9504,
          "time": 87.352848,
          "velocity": 0.6771653543307087
        },
        {
          "duration": 0.4411759999999987,
          "durationTicks": 48,
          "midi": 42,
          "name": "F#2",
          "ticks": 9528,
          "time": 87.573436,
          "velocity": 0.8267716535433071
        },
        {
          "duration": 0.2113968333333247,
          "durationTicks": 23,
          "midi": 42,
          "name": "F#2",
          "ticks": 9576,
          "time": 88.014612,
          "velocity": 0.7952755905511811
        },
        {
          "duration": 0.4411759999999987,
          "durationTicks": 48,
          "midi": 42,
          "name": "F#2",
          "ticks": 9600,
          "time": 88.2352,
          "velocity": 0.7874015748031497
        },
        {
          "duration": 1.7371304999999921,
          "durationTicks": 189,
          "midi": 30,
          "name": "F#1",
          "ticks": 9648,
          "time": 88.676376,
          "velocity": 0.7795275590551181
        },
        {
          "duration": 1.7003658333333362,
          "durationTicks": 185,
          "midi": 32,
          "name": "G#1",
          "ticks": 9840,
          "time": 90.44108,
          "velocity": 0.7795275590551181
        },
        {
          "duration": 2.380512166666662,
          "durationTicks": 259,
          "midi": 34,
          "name": "A#1",
          "ticks": 10032,
          "time": 92.205784,
          "velocity": 0.7795275590551181
        },
        {
          "duration": 0.606617,
          "durationTicks": 66,
          "midi": 36,
          "name": "C2",
          "ticks": 10296,
          "time": 94.632252,
          "velocity": 0.7795275590551181
        },
        {
          "duration": 0.4227936666666636,
          "durationTicks": 46,
          "midi": 37,
          "name": "C#2",
          "ticks": 10368,
          "time": 95.294016,
          "velocity": 0.7795275590551181
        },
        {
          "duration": 1.7371305000000064,
          "durationTicks": 189,
          "midi": 30,
          "name": "F#1",
          "ticks": 10416,
          "time": 95.735192,
          "velocity": 0.7795275590551181
        },
        {
          "duration": 1.7371304999999921,
          "durationTicks": 189,
          "midi": 32,
          "name": "G#1",
          "ticks": 10608,
          "time": 97.499896,
          "velocity": 0.7795275590551181
        },
        {
          "duration": 1.5165425,
          "durationTicks": 165,
          "midi": 37,
          "name": "C#2",
          "ticks": 10800,
          "time": 99.2646,
          "velocity": 0.7795275590551181
        },
        {
          "duration": 0.4136024999999961,
          "durationTicks": 45,
          "midi": 34,
          "name": "A#1",
          "ticks": 10968,
          "time": 100.808716,
          "velocity": 0.7795275590551181
        },
        {
          "duration": 0.19301450000000386,
          "durationTicks": 21,
          "midi": 34,
          "name": "A#1",
          "ticks": 11016,
          "time": 101.249892,
          "velocity": 0.7559055118110236
        },
        {
          "duration": 0.19301450000000386,
          "durationTicks": 21,
          "midi": 41,
          "name": "F2",
          "ticks": 11040,
          "time": 101.47048,
          "velocity": 0.84251968503937
        },
        {
          "duration": 0.29411733333333245,
          "durationTicks": 32,
          "midi": 46,
          "name": "A#2",
          "ticks": 11064,
          "time": 101.691068,
          "velocity": 0.8267716535433071
        },
        {
          "duration": 0.19301449999998965,
          "durationTicks": 21,
          "midi": 30,
          "name": "F#1",
          "ticks": 11184,
          "time": 102.794008,
          "velocity": 0.8188976377952756
        },
        {
          "duration": 0.20220566666665718,
          "durationTicks": 22,
          "midi": 30,
          "name": "F#1",
          "ticks": 11208,
          "time": 103.014596,
          "velocity": 0.7795275590551181
        },
        {
          "duration": 0.20220566666665718,
          "durationTicks": 22,
          "midi": 37,
          "name": "C#2",
          "ticks": 11232,
          "time": 103.235184,
          "velocity": 0.7795275590551181
        },
        {
          "duration": 0.11029400000001033,
          "durationTicks": 12,
          "midi": 42,
          "name": "F#2",
          "ticks": 11256,
          "time": 103.455772,
          "velocity": 0.7007874015748031
        },
        {
          "duration": 0.11029399999999612,
          "durationTicks": 12,
          "midi": 42,
          "name": "F#2",
          "ticks": 11268,
          "time": 103.566066,
          "velocity": 0.7795275590551181
        },
        {
          "duration": 0.018382333333320844,
          "durationTicks": 2,
          "midi": 37,
          "name": "C#2",
          "ticks": 11280,
          "time": 103.67636,
          "velocity": 0.6141732283464567
        },
        {
          "duration": 0.11029399999999612,
          "durationTicks": 12,
          "midi": 37,
          "name": "C#2",
          "ticks": 11292,
          "time": 103.786654,
          "velocity": 0.7007874015748031
        },
        {
          "duration": 0.19301450000000386,
          "durationTicks": 21,
          "midi": 37,
          "name": "C#2",
          "ticks": 11304,
          "time": 103.896948,
          "velocity": 0.7795275590551181
        },
        {
          "duration": 0.19301450000000386,
          "durationTicks": 21,
          "midi": 42,
          "name": "F#2",
          "ticks": 11328,
          "time": 104.117536,
          "velocity": 0.8188976377952756
        },
        {
          "duration": 0.19301449999998965,
          "durationTicks": 21,
          "midi": 37,
          "name": "C#2",
          "ticks": 11352,
          "time": 104.33812400000001,
          "velocity": 0.7795275590551181
        },
        {
          "duration": 0.19301450000000386,
          "durationTicks": 21,
          "midi": 44,
          "name": "G#2",
          "ticks": 11376,
          "time": 104.558712,
          "velocity": 0.8188976377952756
        },
        {
          "duration": 0.20220566666665718,
          "durationTicks": 22,
          "midi": 44,
          "name": "G#2",
          "ticks": 11400,
          "time": 104.7793,
          "velocity": 0.7795275590551181
        },
        {
          "duration": 0.20220566666665718,
          "durationTicks": 22,
          "midi": 39,
          "name": "D#2",
          "ticks": 11424,
          "time": 104.999888,
          "velocity": 0.7795275590551181
        },
        {
          "duration": 0.11029399999999612,
          "durationTicks": 12,
          "midi": 44,
          "name": "G#2",
          "ticks": 11448,
          "time": 105.220476,
          "velocity": 0.7007874015748031
        },
        {
          "duration": 0.11029399999999612,
          "durationTicks": 12,
          "midi": 44,
          "name": "G#2",
          "ticks": 11460,
          "time": 105.33077,
          "velocity": 0.7795275590551181
        },
        {
          "duration": 0.018382333333335055,
          "durationTicks": 2,
          "midi": 44,
          "name": "G#2",
          "ticks": 11472,
          "time": 105.441064,
          "velocity": 0.6141732283464567
        },
        {
          "duration": 0.11029399999999612,
          "durationTicks": 12,
          "midi": 44,
          "name": "G#2",
          "ticks": 11484,
          "time": 105.55135800000001,
          "velocity": 0.7007874015748031
        },
        {
          "duration": 0.19301450000000386,
          "durationTicks": 21,
          "midi": 44,
          "name": "G#2",
          "ticks": 11496,
          "time": 105.661652,
          "velocity": 0.7795275590551181
        },
        {
          "duration": 0.19301450000000386,
          "durationTicks": 21,
          "midi": 39,
          "name": "D#2",
          "ticks": 11520,
          "time": 105.88224,
          "velocity": 0.7795275590551181
        },
        {
          "duration": 0.1746321666666546,
          "durationTicks": 19,
          "midi": 44,
          "name": "G#2",
          "ticks": 11544,
          "time": 106.102828,
          "velocity": 0.7795275590551181
        },
        {
          "duration": 0.4136025000000103,
          "durationTicks": 45,
          "midi": 46,
          "name": "A#2",
          "ticks": 11568,
          "time": 106.323416,
          "velocity": 0.8188976377952756
        },
        {
          "duration": 0.20220566666665718,
          "durationTicks": 22,
          "midi": 41,
          "name": "F2",
          "ticks": 11616,
          "time": 106.76459200000001,
          "velocity": 0.7795275590551181
        },
        {
          "duration": 0.11029399999999612,
          "durationTicks": 12,
          "midi": 46,
          "name": "A#2",
          "ticks": 11640,
          "time": 106.98518,
          "velocity": 0.7007874015748031
        },
        {
          "duration": 0.11029400000001033,
          "durationTicks": 12,
          "midi": 46,
          "name": "A#2",
          "ticks": 11652,
          "time": 107.095474,
          "velocity": 0.7795275590551181
        },
        {
          "duration": 0.018382333333320844,
          "durationTicks": 2,
          "midi": 46,
          "name": "A#2",
          "ticks": 11664,
          "time": 107.205768,
          "velocity": 0.6141732283464567
        },
        {
          "duration": 0.19301450000000386,
          "durationTicks": 21,
          "midi": 34,
          "name": "A#1",
          "ticks": 11688,
          "time": 107.426356,
          "velocity": 0.7795275590551181
        },
        {
          "duration": 0.19301449999998965,
          "durationTicks": 21,
          "midi": 46,
          "name": "A#2",
          "ticks": 11712,
          "time": 107.646944,
          "velocity": 0.7795275590551181
        },
        {
          "duration": 0.19301450000000386,
          "durationTicks": 21,
          "midi": 46,
          "name": "A#2",
          "ticks": 11736,
          "time": 107.867532,
          "velocity": 0.8188976377952756
        },
        {
          "duration": 0.19301450000000386,
          "durationTicks": 21,
          "midi": 46,
          "name": "A#2",
          "ticks": 11760,
          "time": 108.08812,
          "velocity": 0.8188976377952756
        },
        {
          "duration": 0.19301450000000386,
          "durationTicks": 21,
          "midi": 48,
          "name": "C3",
          "ticks": 11784,
          "time": 108.308708,
          "velocity": 0.7795275590551181
        },
        {
          "duration": 0.20220566666665718,
          "durationTicks": 22,
          "midi": 46,
          "name": "A#2",
          "ticks": 11808,
          "time": 108.529296,
          "velocity": 0.7795275590551181
        },
        {
          "duration": 0.4136025000000103,
          "durationTicks": 45,
          "midi": 41,
          "name": "F2",
          "ticks": 11832,
          "time": 108.749884,
          "velocity": 0.8267716535433071
        },
        {
          "duration": 0.19301449999998965,
          "durationTicks": 21,
          "midi": 39,
          "name": "D#2",
          "ticks": 11880,
          "time": 109.19106000000001,
          "velocity": 0.7795275590551181
        },
        {
          "duration": 0.20220566666665718,
          "durationTicks": 22,
          "midi": 41,
          "name": "F2",
          "ticks": 11904,
          "time": 109.411648,
          "velocity": 0.7795275590551181
        },
        {
          "duration": 0.20220566666665718,
          "durationTicks": 22,
          "midi": 41,
          "name": "F2",
          "ticks": 11928,
          "time": 109.632236,
          "velocity": 0.7795275590551181
        },
        {
          "duration": 0.19301450000000386,
          "durationTicks": 21,
          "midi": 30,
          "name": "F#1",
          "ticks": 11952,
          "time": 109.852824,
          "velocity": 0.8188976377952756
        },
        {
          "duration": 0.20220566666665718,
          "durationTicks": 22,
          "midi": 30,
          "name": "F#1",
          "ticks": 11976,
          "time": 110.073412,
          "velocity": 0.7795275590551181
        },
        {
          "duration": 0.20220566666665718,
          "durationTicks": 22,
          "midi": 37,
          "name": "C#2",
          "ticks": 12000,
          "time": 110.294,
          "velocity": 0.7795275590551181
        },
        {
          "duration": 0.11029399999999612,
          "durationTicks": 12,
          "midi": 42,
          "name": "F#2",
          "ticks": 12024,
          "time": 110.514588,
          "velocity": 0.7007874015748031
        },
        {
          "duration": 0.11029399999999612,
          "durationTicks": 12,
          "midi": 42,
          "name": "F#2",
          "ticks": 12036,
          "time": 110.624882,
          "velocity": 0.7795275590551181
        },
        {
          "duration": 0.018382333333335055,
          "durationTicks": 2,
          "midi": 37,
          "name": "C#2",
          "ticks": 12048,
          "time": 110.735176,
          "velocity": 0.6141732283464567
        },
        {
          "duration": 0.11029399999999612,
          "durationTicks": 12,
          "midi": 37,
          "name": "C#2",
          "ticks": 12060,
          "time": 110.84547,
          "velocity": 0.7007874015748031
        },
        {
          "duration": 0.19301450000000386,
          "durationTicks": 21,
          "midi": 37,
          "name": "C#2",
          "ticks": 12072,
          "time": 110.955764,
          "velocity": 0.7795275590551181
        },
        {
          "duration": 0.19301450000000386,
          "durationTicks": 21,
          "midi": 42,
          "name": "F#2",
          "ticks": 12096,
          "time": 111.176352,
          "velocity": 0.8188976377952756
        },
        {
          "duration": 0.19301450000000386,
          "durationTicks": 21,
          "midi": 37,
          "name": "C#2",
          "ticks": 12120,
          "time": 111.39694,
          "velocity": 0.7795275590551181
        },
        {
          "duration": 0.19301449999998965,
          "durationTicks": 21,
          "midi": 44,
          "name": "G#2",
          "ticks": 12144,
          "time": 111.61752800000001,
          "velocity": 0.8188976377952756
        },
        {
          "duration": 0.20220566666665718,
          "durationTicks": 22,
          "midi": 44,
          "name": "G#2",
          "ticks": 12168,
          "time": 111.838116,
          "velocity": 0.7795275590551181
        },
        {
          "duration": 0.20220566666665718,
          "durationTicks": 22,
          "midi": 39,
          "name": "D#2",
          "ticks": 12192,
          "time": 112.058704,
          "velocity": 0.7795275590551181
        },
        {
          "duration": 0.11029399999999612,
          "durationTicks": 12,
          "midi": 44,
          "name": "G#2",
          "ticks": 12216,
          "time": 112.279292,
          "velocity": 0.7007874015748031
        },
        {
          "duration": 0.11029400000001033,
          "durationTicks": 12,
          "midi": 44,
          "name": "G#2",
          "ticks": 12228,
          "time": 112.389586,
          "velocity": 0.7795275590551181
        },
        {
          "duration": 0.018382333333320844,
          "durationTicks": 2,
          "midi": 39,
          "name": "D#2",
          "ticks": 12240,
          "time": 112.49988,
          "velocity": 0.6141732283464567
        },
        {
          "duration": 0.11029399999999612,
          "durationTicks": 12,
          "midi": 39,
          "name": "D#2",
          "ticks": 12252,
          "time": 112.610174,
          "velocity": 0.7007874015748031
        },
        {
          "duration": 0.19301450000000386,
          "durationTicks": 21,
          "midi": 39,
          "name": "D#2",
          "ticks": 12264,
          "time": 112.720468,
          "velocity": 0.7795275590551181
        },
        {
          "duration": 0.19301450000000386,
          "durationTicks": 21,
          "midi": 44,
          "name": "G#2",
          "ticks": 12288,
          "time": 112.941056,
          "velocity": 0.7795275590551181
        },
        {
          "duration": 0.1746321666666688,
          "durationTicks": 19,
          "midi": 44,
          "name": "G#2",
          "ticks": 12312,
          "time": 113.161644,
          "velocity": 0.7795275590551181
        },
        {
          "duration": 0.20220566666665718,
          "durationTicks": 22,
          "midi": 46,
          "name": "A#2",
          "ticks": 12336,
          "time": 113.382232,
          "velocity": 0.8188976377952756
        },
        {
          "duration": 0.2022056666666714,
          "durationTicks": 22,
          "midi": 46,
          "name": "A#2",
          "ticks": 12360,
          "time": 113.60282,
          "velocity": 0.7795275590551181
        },
        {
          "duration": 0.19301450000000386,
          "durationTicks": 21,
          "midi": 41,
          "name": "F2",
          "ticks": 12384,
          "time": 113.823408,
          "velocity": 0.7795275590551181
        },
        {
          "duration": 0.40441133333332857,
          "durationTicks": 44,
          "midi": 44,
          "name": "G#2",
          "ticks": 12408,
          "time": 114.043996,
          "velocity": 0.7795275590551181
        },
        {
          "duration": 0.19301449999998965,
          "durationTicks": 21,
          "midi": 41,
          "name": "F2",
          "ticks": 12456,
          "time": 114.485172,
          "velocity": 0.7795275590551181
        },
        {
          "duration": 0.19301450000000386,
          "durationTicks": 21,
          "midi": 39,
          "name": "D#2",
          "ticks": 12480,
          "time": 114.70575999999998,
          "velocity": 0.7795275590551181
        },
        {
          "duration": 0.4136024999999961,
          "durationTicks": 45,
          "midi": 37,
          "name": "C#2",
          "ticks": 12504,
          "time": 114.92634799999999,
          "velocity": 0.8188976377952756
        },
        {
          "duration": 0.2022056666666856,
          "durationTicks": 22,
          "midi": 37,
          "name": "C#2",
          "ticks": 12552,
          "time": 115.36752399999999,
          "velocity": 0.7795275590551181
        },
        {
          "duration": 0.2022056666666714,
          "durationTicks": 22,
          "midi": 44,
          "name": "G#2",
          "ticks": 12576,
          "time": 115.588112,
          "velocity": 0.7795275590551181
        },
        {
          "duration": 0.018382333333349266,
          "durationTicks": 2,
          "midi": 44,
          "name": "G#2",
          "ticks": 12600,
          "time": 115.80869999999999,
          "velocity": 0.7007874015748031
        },
        {
          "duration": 0.19301450000000386,
          "durationTicks": 21,
          "midi": 51,
          "name": "D#3",
          "ticks": 12612,
          "time": 115.91899399999998,
          "velocity": 0.7795275590551181
        },
        {
          "duration": 0.018382333333335055,
          "durationTicks": 2,
          "midi": 49,
          "name": "C#3",
          "ticks": 12636,
          "time": 116.13958199999999,
          "velocity": 0.7007874015748031
        },
        {
          "duration": 0.11029399999999612,
          "durationTicks": 12,
          "midi": 49,
          "name": "C#3",
          "ticks": 12648,
          "time": 116.24987599999999,
          "velocity": 0.7795275590551181
        },
        {
          "duration": 0.11029400000001033,
          "durationTicks": 12,
          "midi": 49,
          "name": "C#3",
          "ticks": 12660,
          "time": 116.36016999999998,
          "velocity": 0.7795275590551181
        },
        {
          "duration": 0.17463216666668302,
          "durationTicks": 19,
          "midi": 48,
          "name": "C3",
          "ticks": 12672,
          "time": 116.47046399999999,
          "velocity": 0.7795275590551181
        },
        {
          "duration": 0.21139683333333892,
          "durationTicks": 23,
          "midi": 44,
          "name": "G#2",
          "ticks": 12696,
          "time": 116.69105199999998,
          "velocity": 0.7795275590551181
        },
        {
          "duration": 0.2022056666666856,
          "durationTicks": 22,
          "midi": 43,
          "name": "G2",
          "ticks": 12720,
          "time": 116.91163999999999,
          "velocity": 0.8188976377952756
        },
        {
          "duration": 0.2022056666666856,
          "durationTicks": 22,
          "midi": 43,
          "name": "G2",
          "ticks": 12744,
          "time": 117.13222799999998,
          "velocity": 0.7795275590551181
        },
        {
          "duration": 0.2022056666666856,
          "durationTicks": 22,
          "midi": 37,
          "name": "C#2",
          "ticks": 12768,
          "time": 117.35281599999999,
          "velocity": 0.7795275590551181
        },
        {
          "duration": 0.22058800000000645,
          "durationTicks": 24,
          "midi": 43,
          "name": "G2",
          "ticks": 12792,
          "time": 117.57340399999998,
          "velocity": 0.7795275590551181
        },
        {
          "duration": 0.009191166666681738,
          "durationTicks": 1,
          "midi": 37,
          "name": "C#2",
          "ticks": 12816,
          "time": 117.79399199999999,
          "velocity": 0.6141732283464567
        },
        {
          "duration": 0.11029400000001033,
          "durationTicks": 12,
          "midi": 37,
          "name": "C#2",
          "ticks": 12828,
          "time": 117.90428599999998,
          "velocity": 0.7007874015748031
        },
        {
          "duration": 0.19301449999998965,
          "durationTicks": 21,
          "midi": 37,
          "name": "C#2",
          "ticks": 12840,
          "time": 118.01458,
          "velocity": 0.7795275590551181
        },
        {
          "duration": 0.08272050000000775,
          "durationTicks": 9,
          "midi": 43,
          "name": "G2",
          "ticks": 12864,
          "time": 118.23516799999999,
          "velocity": 0.7322834645669292
        },
        {
          "duration": 0.19301450000000386,
          "durationTicks": 21,
          "midi": 37,
          "name": "C#2",
          "ticks": 12886,
          "time": 118.43737366666667,
          "velocity": 0.7795275590551181
        },
        {
          "duration": 0.19301450000000386,
          "durationTicks": 21,
          "midi": 42,
          "name": "F#2",
          "ticks": 12912,
          "time": 118.67634399999999,
          "velocity": 0.8188976377952756
        },
        {
          "duration": 0.19301449999998965,
          "durationTicks": 21,
          "midi": 37,
          "name": "C#2",
          "ticks": 12936,
          "time": 118.89693199999999,
          "velocity": 0.7795275590551181
        },
        {
          "duration": 0.2022056666666856,
          "durationTicks": 22,
          "midi": 42,
          "name": "F#2",
          "ticks": 12960,
          "time": 119.11751999999998,
          "velocity": 0.7795275590551181
        },
        {
          "duration": 0.3860289999999935,
          "durationTicks": 42,
          "midi": 44,
          "name": "G#2",
          "ticks": 12984,
          "time": 119.33810799999999,
          "velocity": 0.8188976377952756
        },
        {
          "duration": 0.18382333333333634,
          "durationTicks": 20,
          "midi": 42,
          "name": "F#2",
          "ticks": 13032,
          "time": 119.77928399999999,
          "velocity": 0.7795275590551181
        },
        {
          "duration": 0.18382333333335055,
          "durationTicks": 20,
          "midi": 37,
          "name": "C#2",
          "ticks": 13056,
          "time": 119.99987199999998,
          "velocity": 0.8188976377952756
        },
        {
          "duration": 0.19301450000000386,
          "durationTicks": 21,
          "midi": 42,
          "name": "F#2",
          "ticks": 13080,
          "time": 120.22045999999999,
          "velocity": 0.7795275590551181
        },
        {
          "duration": 0.2022056666666714,
          "durationTicks": 22,
          "midi": 41,
          "name": "F2",
          "ticks": 13104,
          "time": 120.441048,
          "velocity": 0.8188976377952756
        },
        {
          "duration": 0.2022056666666856,
          "durationTicks": 22,
          "midi": 41,
          "name": "F2",
          "ticks": 13128,
          "time": 120.66163599999999,
          "velocity": 0.7795275590551181
        },
        {
          "duration": 0.2022056666666856,
          "durationTicks": 22,
          "midi": 39,
          "name": "D#2",
          "ticks": 13152,
          "time": 120.882224,
          "velocity": 0.7795275590551181
        },
        {
          "duration": 0.07352933333334022,
          "durationTicks": 8,
          "midi": 41,
          "name": "F2",
          "ticks": 13176,
          "time": 121.10281199999999,
          "velocity": 0.8661417322834646
        },
        {
          "duration": 0.21139683333335313,
          "durationTicks": 23,
          "midi": 39,
          "name": "D#2",
          "ticks": 13188,
          "time": 121.21310599999998,
          "velocity": 0.7795275590551181
        },
        {
          "duration": 0.11029399999999612,
          "durationTicks": 12,
          "midi": 39,
          "name": "D#2",
          "ticks": 13212,
          "time": 121.43369399999999,
          "velocity": 0.7086614173228346
        },
        {
          "duration": 0.19301450000000386,
          "durationTicks": 21,
          "midi": 36,
          "name": "C2",
          "ticks": 13224,
          "time": 121.54398799999998,
          "velocity": 0.7795275590551181
        },
        {
          "duration": 0.19301450000000386,
          "durationTicks": 21,
          "midi": 34,
          "name": "A#1",
          "ticks": 13248,
          "time": 121.76457599999999,
          "velocity": 0.8188976377952756
        },
        {
          "duration": 0.4136025000000103,
          "durationTicks": 45,
          "midi": 46,
          "name": "A#2",
          "ticks": 13272,
          "time": 121.98516399999998,
          "velocity": 0.8188976377952756
        },
        {
          "duration": 0.18382333333335055,
          "durationTicks": 20,
          "midi": 46,
          "name": "A#2",
          "ticks": 13320,
          "time": 122.42633999999998,
          "velocity": 0.7795275590551181
        },
        {
          "duration": 0.2022056666666856,
          "durationTicks": 22,
          "midi": 41,
          "name": "F2",
          "ticks": 13344,
          "time": 122.64692799999999,
          "velocity": 0.7795275590551181
        },
        {
          "duration": 0.22058799999999223,
          "durationTicks": 24,
          "midi": 46,
          "name": "A#2",
          "ticks": 13368,
          "time": 122.867516,
          "velocity": 0.7795275590551181
        },
        {
          "duration": 0.018382333333349266,
          "durationTicks": 2,
          "midi": 46,
          "name": "A#2",
          "ticks": 13392,
          "time": 123.08810399999999,
          "velocity": 0.6141732283464567
        },
        {
          "duration": 0.22058799999999223,
          "durationTicks": 24,
          "midi": 37,
          "name": "C#2",
          "ticks": 13416,
          "time": 123.308692,
          "velocity": 0.7795275590551181
        },
        {
          "duration": 0.2022056666666856,
          "durationTicks": 22,
          "midi": 46,
          "name": "A#2",
          "ticks": 13440,
          "time": 123.52927999999999,
          "velocity": 0.7795275590551181
        },
        {
          "duration": 0.21139683333333892,
          "durationTicks": 23,
          "midi": 46,
          "name": "A#2",
          "ticks": 13464,
          "time": 123.74986799999999,
          "velocity": 0.7795275590551181
        },
        {
          "duration": 0.21139683333335313,
          "durationTicks": 23,
          "midi": 39,
          "name": "D#2",
          "ticks": 13488,
          "time": 123.97045599999998,
          "velocity": 0.8188976377952756
        },
        {
          "duration": 0.21139683333333892,
          "durationTicks": 23,
          "midi": 39,
          "name": "D#2",
          "ticks": 13512,
          "time": 124.19104399999999,
          "velocity": 0.7795275590551181
        },
        {
          "duration": 0.19301450000000386,
          "durationTicks": 21,
          "midi": 39,
          "name": "D#2",
          "ticks": 13536,
          "time": 124.41163199999998,
          "velocity": 0.7795275590551181
        },
        {
          "duration": 0.39522016666668947,
          "durationTicks": 43,
          "midi": 41,
          "name": "F2",
          "ticks": 13560,
          "time": 124.63221999999999,
          "velocity": 0.8188976377952756
        },
        {
          "duration": 0.19301450000000386,
          "durationTicks": 21,
          "midi": 39,
          "name": "D#2",
          "ticks": 13608,
          "time": 125.07339599999999,
          "velocity": 0.7795275590551181
        },
        {
          "duration": 0.19301449999998965,
          "durationTicks": 21,
          "midi": 41,
          "name": "F2",
          "ticks": 13632,
          "time": 125.293984,
          "velocity": 0.7795275590551181
        },
        {
          "duration": 0.4136024999999961,
          "durationTicks": 45,
          "midi": 42,
          "name": "F#2",
          "ticks": 13656,
          "time": 125.51457199999999,
          "velocity": 0.8188976377952756
        },
        {
          "duration": 0.19301450000000386,
          "durationTicks": 21,
          "midi": 37,
          "name": "C#2",
          "ticks": 13704,
          "time": 125.95574799999999,
          "velocity": 0.7795275590551181
        },
        {
          "duration": 0.18382333333333634,
          "durationTicks": 20,
          "midi": 42,
          "name": "F#2",
          "ticks": 13728,
          "time": 126.17633599999999,
          "velocity": 0.7795275590551181
        },
        {
          "duration": 0.39522016666668947,
          "durationTicks": 43,
          "midi": 43,
          "name": "G2",
          "ticks": 13752,
          "time": 126.39692399999998,
          "velocity": 0.8188976377952756
        },
        {
          "duration": 0.19301450000000386,
          "durationTicks": 21,
          "midi": 37,
          "name": "C#2",
          "ticks": 13800,
          "time": 126.83809999999998,
          "velocity": 0.7795275590551181
        },
        {
          "duration": 0.19301450000000386,
          "durationTicks": 21,
          "midi": 43,
          "name": "G2",
          "ticks": 13824,
          "time": 127.05868799999999,
          "velocity": 0.7795275590551181
        },
        {
          "duration": 0.18382333333333634,
          "durationTicks": 20,
          "midi": 43,
          "name": "G2",
          "ticks": 13848,
          "time": 127.279276,
          "velocity": 0.8661417322834646
        },
        {
          "duration": 0.19301450000000386,
          "durationTicks": 21,
          "midi": 44,
          "name": "G#2",
          "ticks": 13872,
          "time": 127.49986399999999,
          "velocity": 0.8188976377952756
        },
        {
          "duration": 0.19301449999998965,
          "durationTicks": 21,
          "midi": 44,
          "name": "G#2",
          "ticks": 13896,
          "time": 127.720452,
          "velocity": 0.7795275590551181
        },
        {
          "duration": 0.19301450000000386,
          "durationTicks": 21,
          "midi": 36,
          "name": "C2",
          "ticks": 13920,
          "time": 127.94103999999999,
          "velocity": 0.7795275590551181
        },
        {
          "duration": 0.18382333333332213,
          "durationTicks": 20,
          "midi": 44,
          "name": "G#2",
          "ticks": 13944,
          "time": 128.161628,
          "velocity": 0.7795275590551181
        },
        {
          "duration": 0.19301450000000386,
          "durationTicks": 21,
          "midi": 42,
          "name": "F#2",
          "ticks": 13968,
          "time": 128.382216,
          "velocity": 0.8188976377952756
        },
        {
          "duration": 0.19301450000000386,
          "durationTicks": 21,
          "midi": 41,
          "name": "F2",
          "ticks": 13992,
          "time": 128.602804,
          "velocity": 0.7795275590551181
        },
        {
          "duration": 0.17463216666669723,
          "durationTicks": 19,
          "midi": 39,
          "name": "D#2",
          "ticks": 14016,
          "time": 128.82339199999998,
          "velocity": 0.7086614173228346
        },
        {
          "duration": 0.4136024999999961,
          "durationTicks": 45,
          "midi": 41,
          "name": "F2",
          "ticks": 14040,
          "time": 129.04398,
          "velocity": 0.8188976377952756
        },
        {
          "duration": 0.19301450000000386,
          "durationTicks": 21,
          "midi": 41,
          "name": "F2",
          "ticks": 14088,
          "time": 129.485156,
          "velocity": 0.7795275590551181
        },
        {
          "duration": 0.15624983333333375,
          "durationTicks": 17,
          "midi": 53,
          "name": "F3",
          "ticks": 14112,
          "time": 129.705744,
          "velocity": 0.7795275590551181
        },
        {
          "duration": 0.4044113333333428,
          "durationTicks": 44,
          "midi": 51,
          "name": "D#3",
          "ticks": 14136,
          "time": 129.926332,
          "velocity": 0.7795275590551181
        },
        {
          "duration": 0.1746321666666688,
          "durationTicks": 19,
          "midi": 49,
          "name": "C#3",
          "ticks": 14184,
          "time": 130.36750800000002,
          "velocity": 0.7795275590551181
        },
        {
          "duration": 0.4044113333333428,
          "durationTicks": 44,
          "midi": 48,
          "name": "C3",
          "ticks": 14208,
          "time": 130.588096,
          "velocity": 0.7795275590551181
        },
        {
          "duration": 0.2022056666666856,
          "durationTicks": 22,
          "midi": 46,
          "name": "A#2",
          "ticks": 14256,
          "time": 131.029272,
          "velocity": 0.7795275590551181
        },
        {
          "duration": 0.2022056666666856,
          "durationTicks": 22,
          "midi": 41,
          "name": "F2",
          "ticks": 14280,
          "time": 131.24986,
          "velocity": 0.7795275590551181
        },
        {
          "duration": 0.1746321666666688,
          "durationTicks": 19,
          "midi": 46,
          "name": "A#2",
          "ticks": 14304,
          "time": 131.470448,
          "velocity": 0.7795275590551181
        },
        {
          "duration": 0.4136024999999961,
          "durationTicks": 45,
          "midi": 44,
          "name": "G#2",
          "ticks": 14328,
          "time": 131.691036,
          "velocity": 0.7795275590551181
        },
        {
          "duration": 0.19301450000000386,
          "durationTicks": 21,
          "midi": 39,
          "name": "D#2",
          "ticks": 14376,
          "time": 132.132212,
          "velocity": 0.7795275590551181
        },
        {
          "duration": 0.17463216666669723,
          "durationTicks": 19,
          "midi": 44,
          "name": "G#2",
          "ticks": 14400,
          "time": 132.3528,
          "velocity": 0.7795275590551181
        },
        {
          "duration": 0.4136024999999961,
          "durationTicks": 45,
          "midi": 42,
          "name": "F#2",
          "ticks": 14424,
          "time": 132.573388,
          "velocity": 0.7795275590551181
        },
        {
          "duration": 0.2022056666666856,
          "durationTicks": 22,
          "midi": 37,
          "name": "C#2",
          "ticks": 14472,
          "time": 133.014564,
          "velocity": 0.7795275590551181
        },
        {
          "duration": 0.18382333333335055,
          "durationTicks": 20,
          "midi": 42,
          "name": "F#2",
          "ticks": 14496,
          "time": 133.235152,
          "velocity": 0.7795275590551181
        },
        {
          "duration": 0.4136025000000245,
          "durationTicks": 45,
          "midi": 41,
          "name": "F2",
          "ticks": 14520,
          "time": 133.45574,
          "velocity": 0.7795275590551181
        },
        {
          "duration": 0.18382333333335055,
          "durationTicks": 20,
          "midi": 36,
          "name": "C2",
          "ticks": 14568,
          "time": 133.896916,
          "velocity": 0.7795275590551181
        },
        {
          "duration": 0.42279366666667784,
          "durationTicks": 46,
          "midi": 41,
          "name": "F2",
          "ticks": 14592,
          "time": 134.117504,
          "velocity": 0.7795275590551181
        },
        {
          "duration": 0.19301450000000386,
          "durationTicks": 21,
          "midi": 42,
          "name": "F#2",
          "ticks": 14640,
          "time": 134.55868,
          "velocity": 0.7795275590551181
        },
        {
          "duration": 0.18382333333335055,
          "durationTicks": 20,
          "midi": 37,
          "name": "C#2",
          "ticks": 14664,
          "time": 134.779268,
          "velocity": 0.7795275590551181
        },
        {
          "duration": 0.2022056666666856,
          "durationTicks": 22,
          "midi": 42,
          "name": "F#2",
          "ticks": 14688,
          "time": 134.999856,
          "velocity": 0.7795275590551181
        },
        {
          "duration": 0.4136024999999961,
          "durationTicks": 45,
          "midi": 44,
          "name": "G#2",
          "ticks": 14712,
          "time": 135.22044400000001,
          "velocity": 0.7795275590551181
        },
        {
          "duration": 0.19301450000000386,
          "durationTicks": 21,
          "midi": 39,
          "name": "D#2",
          "ticks": 14760,
          "time": 135.66162,
          "velocity": 0.7795275590551181
        },
        {
          "duration": 0.1654410000000155,
          "durationTicks": 18,
          "midi": 44,
          "name": "G#2",
          "ticks": 14784,
          "time": 135.882208,
          "velocity": 0.7795275590551181
        },
        {
          "duration": 1.5441160000000025,
          "durationTicks": 168,
          "midi": 46,
          "name": "A#2",
          "ticks": 14808,
          "time": 136.102796,
          "velocity": 0.8110236220472441
        },
        {
          "duration": 0.10110283333332859,
          "durationTicks": 11,
          "midi": 44,
          "name": "G#2",
          "ticks": 14976,
          "time": 137.64691200000001,
          "velocity": 0.6141732283464567
        },
        {
          "duration": 0.10110283333335701,
          "durationTicks": 11,
          "midi": 46,
          "name": "A#2",
          "ticks": 14988,
          "time": 137.757206,
          "velocity": 0.6141732283464567
        },
        {
          "duration": 0.10110283333332859,
          "durationTicks": 11,
          "midi": 41,
          "name": "F2",
          "ticks": 15000,
          "time": 137.8675,
          "velocity": 0.6141732283464567
        },
        {
          "duration": 0.10110283333332859,
          "durationTicks": 11,
          "midi": 37,
          "name": "C#2",
          "ticks": 15012,
          "time": 137.97779400000002,
          "velocity": 0.6141732283464567
        },
        {
          "duration": 1.727939333333353,
          "durationTicks": 188,
          "midi": 42,
          "name": "F#2",
          "ticks": 15024,
          "time": 138.088088,
          "velocity": 0.7007874015748031
        },
        {
          "duration": 1.727939333333353,
          "durationTicks": 188,
          "midi": 44,
          "name": "G#2",
          "ticks": 15216,
          "time": 139.852792,
          "velocity": 0.7007874015748031
        },
        {
          "duration": 1.2959544999999935,
          "durationTicks": 141,
          "midi": 49,
          "name": "C#3",
          "ticks": 15408,
          "time": 141.61749600000002,
          "velocity": 0.7007874015748031
        },
        {
          "duration": 0.4044113333333428,
          "durationTicks": 44,
          "midi": 48,
          "name": "C3",
          "ticks": 15552,
          "time": 142.941024,
          "velocity": 0.7007874015748031
        },
        {
          "duration": 1.2959544999999935,
          "durationTicks": 141,
          "midi": 46,
          "name": "A#2",
          "ticks": 15600,
          "time": 143.3822,
          "velocity": 0.7007874015748031
        },
        {
          "duration": 0.4044113333333428,
          "durationTicks": 44,
          "midi": 44,
          "name": "G#2",
          "ticks": 15744,
          "time": 144.705728,
          "velocity": 0.7007874015748031
        },
        {
          "duration": 1.727939333333353,
          "durationTicks": 188,
          "midi": 42,
          "name": "F#2",
          "ticks": 15792,
          "time": 145.146904,
          "velocity": 0.7007874015748031
        },
        {
          "duration": 0.8639696666666907,
          "durationTicks": 94,
          "midi": 41,
          "name": "F2",
          "ticks": 15984,
          "time": 146.911608,
          "velocity": 0.7007874015748031
        },
        {
          "duration": 0.8639696666666907,
          "durationTicks": 94,
          "midi": 48,
          "name": "C3",
          "ticks": 16080,
          "time": 147.79396,
          "velocity": 0.7007874015748031
        },
        {
          "duration": 0.19301450000000386,
          "durationTicks": 21,
          "midi": 46,
          "name": "A#2",
          "ticks": 16176,
          "time": 148.676312,
          "velocity": 0.7795275590551181
        },
        {
          "duration": 0.19301449999997544,
          "durationTicks": 21,
          "midi": 46,
          "name": "A#2",
          "ticks": 16200,
          "time": 148.89690000000002,
          "velocity": 0.7795275590551181
        },
        {
          "duration": 0.19301450000000386,
          "durationTicks": 21,
          "midi": 46,
          "name": "A#2",
          "ticks": 16224,
          "time": 149.117488,
          "velocity": 0.7795275590551181
        },
        {
          "duration": 0.19301450000000386,
          "durationTicks": 21,
          "midi": 46,
          "name": "A#2",
          "ticks": 16248,
          "time": 149.338076,
          "velocity": 0.7795275590551181
        },
        {
          "duration": 0.19301450000000386,
          "durationTicks": 21,
          "midi": 48,
          "name": "C3",
          "ticks": 16272,
          "time": 149.558664,
          "velocity": 0.7795275590551181
        },
        {
          "duration": 0.19301450000000386,
          "durationTicks": 21,
          "midi": 48,
          "name": "C3",
          "ticks": 16296,
          "time": 149.779252,
          "velocity": 0.7795275590551181
        },
        {
          "duration": 0.19301450000000386,
          "durationTicks": 21,
          "midi": 48,
          "name": "C3",
          "ticks": 16320,
          "time": 149.99984,
          "velocity": 0.7795275590551181
        },
        {
          "duration": 0.4136024999999961,
          "durationTicks": 45,
          "midi": 49,
          "name": "C#3",
          "ticks": 16344,
          "time": 150.220428,
          "velocity": 0.7795275590551181
        },
        {
          "duration": 0.19301450000000386,
          "durationTicks": 21,
          "midi": 49,
          "name": "C#3",
          "ticks": 16392,
          "time": 150.661604,
          "velocity": 0.7795275590551181
        },
        {
          "duration": 0.42279366666667784,
          "durationTicks": 46,
          "midi": 49,
          "name": "C#3",
          "ticks": 16416,
          "time": 150.882192,
          "velocity": 0.7795275590551181
        },
        {
          "duration": 0.19301449999997544,
          "durationTicks": 21,
          "midi": 41,
          "name": "F2",
          "ticks": 16464,
          "time": 151.32336800000002,
          "velocity": 0.7795275590551181
        },
        {
          "duration": 0.19301450000000386,
          "durationTicks": 21,
          "midi": 37,
          "name": "C#2",
          "ticks": 16488,
          "time": 151.543956,
          "velocity": 0.7795275590551181
        },
        {
          "duration": 0.19301450000000386,
          "durationTicks": 21,
          "midi": 44,
          "name": "G#2",
          "ticks": 16512,
          "time": 151.764544,
          "velocity": 0.7795275590551181
        },
        {
          "duration": 0.19301450000000386,
          "durationTicks": 21,
          "midi": 42,
          "name": "F#2",
          "ticks": 16536,
          "time": 151.985132,
          "velocity": 0.7795275590551181
        },
        {
          "duration": 0.21139683333333892,
          "durationTicks": 23,
          "midi": 30,
          "name": "F#1",
          "ticks": 16560,
          "time": 152.20572,
          "velocity": 0.8110236220472441
        },
        {
          "duration": 0.21139683333333892,
          "durationTicks": 23,
          "midi": 42,
          "name": "F#2",
          "ticks": 16584,
          "time": 152.426308,
          "velocity": 0.7795275590551181
        },
        {
          "duration": 0.21139683333333892,
          "durationTicks": 23,
          "midi": 30,
          "name": "F#1",
          "ticks": 16608,
          "time": 152.646896,
          "velocity": 0.7322834645669292
        },
        {
          "duration": 0.21139683333336734,
          "durationTicks": 23,
          "midi": 42,
          "name": "F#2",
          "ticks": 16632,
          "time": 152.867484,
          "velocity": 0.7559055118110236
        },
        {
          "duration": 0.21139683333333892,
          "durationTicks": 23,
          "midi": 30,
          "name": "F#1",
          "ticks": 16656,
          "time": 153.088072,
          "velocity": 0.7795275590551181
        },
        {
          "duration": 0.21139683333333892,
          "durationTicks": 23,
          "midi": 42,
          "name": "F#2",
          "ticks": 16680,
          "time": 153.30866,
          "velocity": 0.7952755905511811
        },
        {
          "duration": 0.21139683333333892,
          "durationTicks": 23,
          "midi": 30,
          "name": "F#1",
          "ticks": 16704,
          "time": 153.529248,
          "velocity": 0.7637795275590551
        },
        {
          "duration": 0.21139683333333892,
          "durationTicks": 23,
          "midi": 42,
          "name": "F#2",
          "ticks": 16728,
          "time": 153.74983600000002,
          "velocity": 0.7795275590551181
        },
        {
          "duration": 0.21139683333333892,
          "durationTicks": 23,
          "midi": 32,
          "name": "G#1",
          "ticks": 16752,
          "time": 153.970424,
          "velocity": 0.7952755905511811
        },
        {
          "duration": 0.21139683333333892,
          "durationTicks": 23,
          "midi": 44,
          "name": "G#2",
          "ticks": 16776,
          "time": 154.191012,
          "velocity": 0.7637795275590551
        },
        {
          "duration": 0.21139683333333892,
          "durationTicks": 23,
          "midi": 32,
          "name": "G#1",
          "ticks": 16800,
          "time": 154.4116,
          "velocity": 0.7637795275590551
        },
        {
          "duration": 0.21139683333333892,
          "durationTicks": 23,
          "midi": 44,
          "name": "G#2",
          "ticks": 16824,
          "time": 154.632188,
          "velocity": 0.7716535433070866
        },
        {
          "duration": 0.21139683333333892,
          "durationTicks": 23,
          "midi": 32,
          "name": "G#1",
          "ticks": 16848,
          "time": 154.852776,
          "velocity": 0.7716535433070866
        },
        {
          "duration": 0.21139683333333892,
          "durationTicks": 23,
          "midi": 44,
          "name": "G#2",
          "ticks": 16872,
          "time": 155.073364,
          "velocity": 0.7952755905511811
        },
        {
          "duration": 0.21139683333336734,
          "durationTicks": 23,
          "midi": 32,
          "name": "G#1",
          "ticks": 16896,
          "time": 155.293952,
          "velocity": 0.7795275590551181
        },
        {
          "duration": 0.16544099999998707,
          "durationTicks": 18,
          "midi": 44,
          "name": "G#2",
          "ticks": 16920,
          "time": 155.51454,
          "velocity": 0.7637795275590551
        },
        {
          "duration": 0.21139683333333892,
          "durationTicks": 23,
          "midi": 37,
          "name": "C#2",
          "ticks": 16944,
          "time": 155.735128,
          "velocity": 0.8110236220472441
        },
        {
          "duration": 0.21139683333333892,
          "durationTicks": 23,
          "midi": 49,
          "name": "C#3",
          "ticks": 16968,
          "time": 155.955716,
          "velocity": 0.7795275590551181
        },
        {
          "duration": 0.21139683333333892,
          "durationTicks": 23,
          "midi": 37,
          "name": "C#2",
          "ticks": 16992,
          "time": 156.17630400000002,
          "velocity": 0.7480314960629921
        },
        {
          "duration": 0.21139683333333892,
          "durationTicks": 23,
          "midi": 49,
          "name": "C#3",
          "ticks": 17016,
          "time": 156.396892,
          "velocity": 0.7874015748031497
        },
        {
          "duration": 0.21139683333333892,
          "durationTicks": 23,
          "midi": 37,
          "name": "C#2",
          "ticks": 17040,
          "time": 156.61748,
          "velocity": 0.7637795275590551
        },
        {
          "duration": 0.21139683333333892,
          "durationTicks": 23,
          "midi": 49,
          "name": "C#3",
          "ticks": 17064,
          "time": 156.838068,
          "velocity": 0.7952755905511811
        },
        {
          "duration": 0.21139683333333892,
          "durationTicks": 23,
          "midi": 37,
          "name": "C#2",
          "ticks": 17088,
          "time": 157.058656,
          "velocity": 0.7795275590551181
        },
        {
          "duration": 0.16544099999998707,
          "durationTicks": 18,
          "midi": 49,
          "name": "C#3",
          "ticks": 17112,
          "time": 157.279244,
          "velocity": 0.7716535433070866
        },
        {
          "duration": 0.21139683333333892,
          "durationTicks": 23,
          "midi": 34,
          "name": "A#1",
          "ticks": 17136,
          "time": 157.499832,
          "velocity": 0.7795275590551181
        },
        {
          "duration": 0.21139683333336734,
          "durationTicks": 23,
          "midi": 46,
          "name": "A#2",
          "ticks": 17160,
          "time": 157.72042,
          "velocity": 0.7795275590551181
        },
        {
          "duration": 0.21139683333333892,
          "durationTicks": 23,
          "midi": 34,
          "name": "A#1",
          "ticks": 17184,
          "time": 157.941008,
          "velocity": 0.7637795275590551
        },
        {
          "duration": 0.21139683333333892,
          "durationTicks": 23,
          "midi": 46,
          "name": "A#2",
          "ticks": 17208,
          "time": 158.161596,
          "velocity": 0.7874015748031497
        },
        {
          "duration": 0.21139683333333892,
          "durationTicks": 23,
          "midi": 34,
          "name": "A#1",
          "ticks": 17232,
          "time": 158.382184,
          "velocity": 0.7716535433070866
        },
        {
          "duration": 0.21139683333333892,
          "durationTicks": 23,
          "midi": 46,
          "name": "A#2",
          "ticks": 17256,
          "time": 158.60277200000002,
          "velocity": 0.7795275590551181
        },
        {
          "duration": 0.21139683333333892,
          "durationTicks": 23,
          "midi": 34,
          "name": "A#1",
          "ticks": 17280,
          "time": 158.82336,
          "velocity": 0.7952755905511811
        },
        {
          "duration": 0.1654410000000155,
          "durationTicks": 18,
          "midi": 46,
          "name": "A#2",
          "ticks": 17304,
          "time": 159.043948,
          "velocity": 0.7874015748031497
        },
        {
          "duration": 0.21139683333336734,
          "durationTicks": 23,
          "midi": 27,
          "name": "D#1",
          "ticks": 17328,
          "time": 159.264536,
          "velocity": 0.8110236220472441
        },
        {
          "duration": 0.21139683333333892,
          "durationTicks": 23,
          "midi": 39,
          "name": "D#2",
          "ticks": 17352,
          "time": 159.485124,
          "velocity": 0.7795275590551181
        },
        {
          "duration": 0.21139683333333892,
          "durationTicks": 23,
          "midi": 27,
          "name": "D#1",
          "ticks": 17376,
          "time": 159.705712,
          "velocity": 0.7637795275590551
        },
        {
          "duration": 0.21139683333333892,
          "durationTicks": 23,
          "midi": 39,
          "name": "D#2",
          "ticks": 17400,
          "time": 159.9263,
          "velocity": 0.7559055118110236
        },
        {
          "duration": 0.21139683333333892,
          "durationTicks": 23,
          "midi": 27,
          "name": "D#1",
          "ticks": 17424,
          "time": 160.14688800000002,
          "velocity": 0.7795275590551181
        },
        {
          "duration": 0.21139683333333892,
          "durationTicks": 23,
          "midi": 39,
          "name": "D#2",
          "ticks": 17448,
          "time": 160.367476,
          "velocity": 0.7795275590551181
        },
        {
          "duration": 0.21139683333333892,
          "durationTicks": 23,
          "midi": 27,
          "name": "D#1",
          "ticks": 17472,
          "time": 160.588064,
          "velocity": 0.7795275590551181
        },
        {
          "duration": 0.2022056666666856,
          "durationTicks": 22,
          "midi": 39,
          "name": "D#2",
          "ticks": 17496,
          "time": 160.808652,
          "velocity": 0.7874015748031497
        },
        {
          "duration": 0.21139683333333892,
          "durationTicks": 23,
          "midi": 32,
          "name": "G#1",
          "ticks": 17520,
          "time": 161.02924000000002,
          "velocity": 0.7952755905511811
        },
        {
          "duration": 0.21139683333333892,
          "durationTicks": 23,
          "midi": 44,
          "name": "G#2",
          "ticks": 17544,
          "time": 161.249828,
          "velocity": 0.7637795275590551
        },
        {
          "duration": 0.21139683333333892,
          "durationTicks": 23,
          "midi": 32,
          "name": "G#1",
          "ticks": 17568,
          "time": 161.470416,
          "velocity": 0.7637795275590551
        },
        {
          "duration": 0.21139683333336734,
          "durationTicks": 23,
          "midi": 44,
          "name": "G#2",
          "ticks": 17592,
          "time": 161.691004,
          "velocity": 0.7716535433070866
        },
        {
          "duration": 0.21139683333333892,
          "durationTicks": 23,
          "midi": 32,
          "name": "G#1",
          "ticks": 17616,
          "time": 161.911592,
          "velocity": 0.7716535433070866
        },
        {
          "duration": 0.21139683333333892,
          "durationTicks": 23,
          "midi": 44,
          "name": "G#2",
          "ticks": 17640,
          "time": 162.13218,
          "velocity": 0.7952755905511811
        },
        {
          "duration": 0.21139683333333892,
          "durationTicks": 23,
          "midi": 32,
          "name": "G#1",
          "ticks": 17664,
          "time": 162.352768,
          "velocity": 0.7795275590551181
        },
        {
          "duration": 0.16544099999998707,
          "durationTicks": 18,
          "midi": 44,
          "name": "G#2",
          "ticks": 17688,
          "time": 162.57335600000002,
          "velocity": 0.7637795275590551
        },
        {
          "duration": 0.2022056666666856,
          "durationTicks": 22,
          "midi": 30,
          "name": "F#1",
          "ticks": 17712,
          "time": 162.793944,
          "velocity": 0.8110236220472441
        },
        {
          "duration": 0.2022056666666856,
          "durationTicks": 22,
          "midi": 42,
          "name": "F#2",
          "ticks": 17736,
          "time": 163.014532,
          "velocity": 0.7795275590551181
        },
        {
          "duration": 0.19301450000000386,
          "durationTicks": 21,
          "midi": 30,
          "name": "F#1",
          "ticks": 17760,
          "time": 163.23512,
          "velocity": 0.7637795275590551
        },
        {
          "duration": 0.19301449999997544,
          "durationTicks": 21,
          "midi": 42,
          "name": "F#2",
          "ticks": 17784,
          "time": 163.45570800000002,
          "velocity": 0.7716535433070866
        },
        {
          "duration": 0.2022056666666856,
          "durationTicks": 22,
          "midi": 30,
          "name": "F#1",
          "ticks": 17808,
          "time": 163.676296,
          "velocity": 0.8110236220472441
        },
        {
          "duration": 0.2022056666666856,
          "durationTicks": 22,
          "midi": 42,
          "name": "F#2",
          "ticks": 17832,
          "time": 163.896884,
          "velocity": 0.7795275590551181
        },
        {
          "duration": 0.21139683333336734,
          "durationTicks": 23,
          "midi": 30,
          "name": "F#1",
          "ticks": 17856,
          "time": 164.117472,
          "velocity": 0.7637795275590551
        },
        {
          "duration": 0.19301450000000386,
          "durationTicks": 21,
          "midi": 42,
          "name": "F#2",
          "ticks": 17880,
          "time": 164.33806,
          "velocity": 0.7716535433070866
        },
        {
          "duration": 0.21139683333333892,
          "durationTicks": 23,
          "midi": 32,
          "name": "G#1",
          "ticks": 17904,
          "time": 164.558648,
          "velocity": 0.7952755905511811
        },
        {
          "duration": 0.21139683333333892,
          "durationTicks": 23,
          "midi": 44,
          "name": "G#2",
          "ticks": 17928,
          "time": 164.779236,
          "velocity": 0.7637795275590551
        },
        {
          "duration": 0.21139683333333892,
          "durationTicks": 23,
          "midi": 32,
          "name": "G#1",
          "ticks": 17952,
          "time": 164.99982400000002,
          "velocity": 0.7874015748031497
        },
        {
          "duration": 0.1746321666666688,
          "durationTicks": 19,
          "midi": 44,
          "name": "G#2",
          "ticks": 17976,
          "time": 165.220412,
          "velocity": 0.7874015748031497
        },
        {
          "duration": 0.21139683333333892,
          "durationTicks": 23,
          "midi": 29,
          "name": "F1",
          "ticks": 18000,
          "time": 165.441,
          "velocity": 0.7952755905511811
        },
        {
          "duration": 0.21139683333333892,
          "durationTicks": 23,
          "midi": 41,
          "name": "F2",
          "ticks": 18024,
          "time": 165.661588,
          "velocity": 0.7795275590551181
        },
        {
          "duration": 0.21139683333333892,
          "durationTicks": 23,
          "midi": 29,
          "name": "F1",
          "ticks": 18048,
          "time": 165.88217600000002,
          "velocity": 0.7874015748031497
        },
        {
          "duration": 0.18382333333335055,
          "durationTicks": 20,
          "midi": 41,
          "name": "F2",
          "ticks": 18072,
          "time": 166.102764,
          "velocity": 0.7795275590551181
        },
        {
          "duration": 0.21139683333333892,
          "durationTicks": 23,
          "midi": 30,
          "name": "F#1",
          "ticks": 18096,
          "time": 166.323352,
          "velocity": 0.8110236220472441
        },
        {
          "duration": 0.21139683333336734,
          "durationTicks": 23,
          "midi": 42,
          "name": "F#2",
          "ticks": 18120,
          "time": 166.54394,
          "velocity": 0.7795275590551181
        },
        {
          "duration": 0.21139683333333892,
          "durationTicks": 23,
          "midi": 30,
          "name": "F#1",
          "ticks": 18144,
          "time": 166.764528,
          "velocity": 0.7322834645669292
        },
        {
          "duration": 0.21139683333333892,
          "durationTicks": 23,
          "midi": 42,
          "name": "F#2",
          "ticks": 18168,
          "time": 166.985116,
          "velocity": 0.7559055118110236
        },
        {
          "duration": 0.21139683333333892,
          "durationTicks": 23,
          "midi": 30,
          "name": "F#1",
          "ticks": 18192,
          "time": 167.205704,
          "velocity": 0.7795275590551181
        },
        {
          "duration": 0.21139683333333892,
          "durationTicks": 23,
          "midi": 42,
          "name": "F#2",
          "ticks": 18216,
          "time": 167.42629200000002,
          "velocity": 0.7952755905511811
        },
        {
          "duration": 0.21139683333333892,
          "durationTicks": 23,
          "midi": 30,
          "name": "F#1",
          "ticks": 18240,
          "time": 167.64688,
          "velocity": 0.7637795275590551
        },
        {
          "duration": 0.21139683333333892,
          "durationTicks": 23,
          "midi": 42,
          "name": "F#2",
          "ticks": 18264,
          "time": 167.867468,
          "velocity": 0.7795275590551181
        },
        {
          "duration": 0.21139683333333892,
          "durationTicks": 23,
          "midi": 32,
          "name": "G#1",
          "ticks": 18288,
          "time": 168.088056,
          "velocity": 0.7952755905511811
        },
        {
          "duration": 0.21139683333333892,
          "durationTicks": 23,
          "midi": 44,
          "name": "G#2",
          "ticks": 18312,
          "time": 168.30864400000002,
          "velocity": 0.7637795275590551
        },
        {
          "duration": 0.21139683333333892,
          "durationTicks": 23,
          "midi": 32,
          "name": "G#1",
          "ticks": 18336,
          "time": 168.529232,
          "velocity": 0.7637795275590551
        },
        {
          "duration": 0.21139683333333892,
          "durationTicks": 23,
          "midi": 44,
          "name": "G#2",
          "ticks": 18360,
          "time": 168.74982,
          "velocity": 0.7716535433070866
        },
        {
          "duration": 0.21139683333336734,
          "durationTicks": 23,
          "midi": 32,
          "name": "G#1",
          "ticks": 18384,
          "time": 168.970408,
          "velocity": 0.7716535433070866
        },
        {
          "duration": 0.21139683333333892,
          "durationTicks": 23,
          "midi": 44,
          "name": "G#2",
          "ticks": 18408,
          "time": 169.190996,
          "velocity": 0.7952755905511811
        },
        {
          "duration": 0.21139683333333892,
          "durationTicks": 23,
          "midi": 32,
          "name": "G#1",
          "ticks": 18432,
          "time": 169.411584,
          "velocity": 0.7795275590551181
        },
        {
          "duration": 0.1654410000000155,
          "durationTicks": 18,
          "midi": 44,
          "name": "G#2",
          "ticks": 18456,
          "time": 169.632172,
          "velocity": 0.7637795275590551
        },
        {
          "duration": 0.21139683333333892,
          "durationTicks": 23,
          "midi": 37,
          "name": "C#2",
          "ticks": 18480,
          "time": 169.85276000000002,
          "velocity": 0.8110236220472441
        },
        {
          "duration": 0.21139683333333892,
          "durationTicks": 23,
          "midi": 49,
          "name": "C#3",
          "ticks": 18504,
          "time": 170.073348,
          "velocity": 0.7795275590551181
        },
        {
          "duration": 0.21139683333333892,
          "durationTicks": 23,
          "midi": 37,
          "name": "C#2",
          "ticks": 18528,
          "time": 170.293936,
          "velocity": 0.7480314960629921
        },
        {
          "duration": 0.21139683333333892,
          "durationTicks": 23,
          "midi": 49,
          "name": "C#3",
          "ticks": 18552,
          "time": 170.514524,
          "velocity": 0.7874015748031497
        },
        {
          "duration": 0.21139683333333892,
          "durationTicks": 23,
          "midi": 37,
          "name": "C#2",
          "ticks": 18576,
          "time": 170.73511200000002,
          "velocity": 0.7637795275590551
        },
        {
          "duration": 0.21139683333333892,
          "durationTicks": 23,
          "midi": 49,
          "name": "C#3",
          "ticks": 18600,
          "time": 170.9557,
          "velocity": 0.7952755905511811
        },
        {
          "duration": 0.21139683333333892,
          "durationTicks": 23,
          "midi": 37,
          "name": "C#2",
          "ticks": 18624,
          "time": 171.176288,
          "velocity": 0.7795275590551181
        },
        {
          "duration": 0.1654410000000155,
          "durationTicks": 18,
          "midi": 49,
          "name": "C#3",
          "ticks": 18648,
          "time": 171.396876,
          "velocity": 0.7716535433070866
        },
        {
          "duration": 0.21139683333333892,
          "durationTicks": 23,
          "midi": 34,
          "name": "A#1",
          "ticks": 18672,
          "time": 171.617464,
          "velocity": 0.7795275590551181
        },
        {
          "duration": 0.21139683333333892,
          "durationTicks": 23,
          "midi": 46,
          "name": "A#2",
          "ticks": 18696,
          "time": 171.838052,
          "velocity": 0.7795275590551181
        },
        {
          "duration": 0.21139683333333892,
          "durationTicks": 23,
          "midi": 34,
          "name": "A#1",
          "ticks": 18720,
          "time": 172.05864,
          "velocity": 0.7637795275590551
        },
        {
          "duration": 0.21139683333333892,
          "durationTicks": 23,
          "midi": 46,
          "name": "A#2",
          "ticks": 18744,
          "time": 172.27922800000002,
          "velocity": 0.7874015748031497
        },
        {
          "duration": 0.21139683333333892,
          "durationTicks": 23,
          "midi": 34,
          "name": "A#1",
          "ticks": 18768,
          "time": 172.499816,
          "velocity": 0.7716535433070866
        },
        {
          "duration": 0.21139683333333892,
          "durationTicks": 23,
          "midi": 46,
          "name": "A#2",
          "ticks": 18792,
          "time": 172.720404,
          "velocity": 0.7795275590551181
        },
        {
          "duration": 0.21139683333333892,
          "durationTicks": 23,
          "midi": 34,
          "name": "A#1",
          "ticks": 18816,
          "time": 172.940992,
          "velocity": 0.7952755905511811
        },
        {
          "duration": 0.16544099999998707,
          "durationTicks": 18,
          "midi": 46,
          "name": "A#2",
          "ticks": 18840,
          "time": 173.16158000000001,
          "velocity": 0.7874015748031497
        },
        {
          "duration": 0.21139683333333892,
          "durationTicks": 23,
          "midi": 30,
          "name": "F#1",
          "ticks": 18864,
          "time": 173.382168,
          "velocity": 0.8110236220472441
        },
        {
          "duration": 0.21139683333333892,
          "durationTicks": 23,
          "midi": 42,
          "name": "F#2",
          "ticks": 18888,
          "time": 173.602756,
          "velocity": 0.7795275590551181
        },
        {
          "duration": 0.21139683333336734,
          "durationTicks": 23,
          "midi": 30,
          "name": "F#1",
          "ticks": 18912,
          "time": 173.823344,
          "velocity": 0.7322834645669292
        },
        {
          "duration": 0.21139683333333892,
          "durationTicks": 23,
          "midi": 42,
          "name": "F#2",
          "ticks": 18936,
          "time": 174.043932,
          "velocity": 0.7559055118110236
        },
        {
          "duration": 0.21139683333333892,
          "durationTicks": 23,
          "midi": 30,
          "name": "F#1",
          "ticks": 18960,
          "time": 174.26452,
          "velocity": 0.7795275590551181
        },
        {
          "duration": 0.21139683333333892,
          "durationTicks": 23,
          "midi": 42,
          "name": "F#2",
          "ticks": 18984,
          "time": 174.485108,
          "velocity": 0.7952755905511811
        },
        {
          "duration": 0.21139683333333892,
          "durationTicks": 23,
          "midi": 30,
          "name": "F#1",
          "ticks": 19008,
          "time": 174.70569600000002,
          "velocity": 0.7637795275590551
        },
        {
          "duration": 0.19301450000000386,
          "durationTicks": 21,
          "midi": 30,
          "name": "F#1",
          "ticks": 19032,
          "time": 174.926284,
          "velocity": 0.7795275590551181
        },
        {
          "duration": 0.21139683333333892,
          "durationTicks": 23,
          "midi": 29,
          "name": "F1",
          "ticks": 19056,
          "time": 175.146872,
          "velocity": 0.7952755905511811
        },
        {
          "duration": 0.21139683333333892,
          "durationTicks": 23,
          "midi": 41,
          "name": "F2",
          "ticks": 19080,
          "time": 175.36746,
          "velocity": 0.7637795275590551
        },
        {
          "duration": 0.21139683333333892,
          "durationTicks": 23,
          "midi": 29,
          "name": "F1",
          "ticks": 19104,
          "time": 175.58804800000001,
          "velocity": 0.7637795275590551
        },
        {
          "duration": 0.21139683333333892,
          "durationTicks": 23,
          "midi": 41,
          "name": "F2",
          "ticks": 19128,
          "time": 175.808636,
          "velocity": 0.7716535433070866
        },
        {
          "duration": 0.21139683333333892,
          "durationTicks": 23,
          "midi": 29,
          "name": "F1",
          "ticks": 19152,
          "time": 176.029224,
          "velocity": 0.7716535433070866
        },
        {
          "duration": 0.21139683333336734,
          "durationTicks": 23,
          "midi": 41,
          "name": "F2",
          "ticks": 19176,
          "time": 176.249812,
          "velocity": 0.7952755905511811
        },
        {
          "duration": 0.21139683333333892,
          "durationTicks": 23,
          "midi": 29,
          "name": "F1",
          "ticks": 19200,
          "time": 176.4704,
          "velocity": 0.7795275590551181
        },
        {
          "duration": 0.21139683333333892,
          "durationTicks": 23,
          "midi": 36,
          "name": "C2",
          "ticks": 19224,
          "time": 176.690988,
          "velocity": 0.7952755905511811
        },
        {
          "duration": 0.21139683333333892,
          "durationTicks": 23,
          "midi": 34,
          "name": "A#1",
          "ticks": 19248,
          "time": 176.911576,
          "velocity": 0.7952755905511811
        },
        {
          "duration": 0.21139683333333892,
          "durationTicks": 23,
          "midi": 46,
          "name": "A#2",
          "ticks": 19272,
          "time": 177.13216400000002,
          "velocity": 0.7795275590551181
        },
        {
          "duration": 0.21139683333333892,
          "durationTicks": 23,
          "midi": 34,
          "name": "A#1",
          "ticks": 19296,
          "time": 177.352752,
          "velocity": 0.7637795275590551
        },
        {
          "duration": 0.21139683333333892,
          "durationTicks": 23,
          "midi": 46,
          "name": "A#2",
          "ticks": 19320,
          "time": 177.57334,
          "velocity": 0.7874015748031497
        },
        {
          "duration": 0.21139683333333892,
          "durationTicks": 23,
          "midi": 36,
          "name": "C2",
          "ticks": 19344,
          "time": 177.793928,
          "velocity": 0.8188976377952756
        },
        {
          "duration": 0.21139683333333892,
          "durationTicks": 23,
          "midi": 48,
          "name": "C3",
          "ticks": 19368,
          "time": 178.01451600000001,
          "velocity": 0.7795275590551181
        },
        {
          "duration": 0.21139683333333892,
          "durationTicks": 23,
          "midi": 36,
          "name": "C2",
          "ticks": 19392,
          "time": 178.235104,
          "velocity": 0.7952755905511811
        },
        {
          "duration": 0.21139683333333892,
          "durationTicks": 23,
          "midi": 48,
          "name": "C3",
          "ticks": 19416,
          "time": 178.455692,
          "velocity": 0.7795275590551181
        },
        {
          "duration": 0.21139683333336734,
          "durationTicks": 23,
          "midi": 37,
          "name": "C#2",
          "ticks": 19440,
          "time": 178.67628,
          "velocity": 0.7952755905511811
        },
        {
          "duration": 0.21139683333333892,
          "durationTicks": 23,
          "midi": 49,
          "name": "C#3",
          "ticks": 19464,
          "time": 178.896868,
          "velocity": 0.7637795275590551
        },
        {
          "duration": 0.21139683333333892,
          "durationTicks": 23,
          "midi": 37,
          "name": "C#2",
          "ticks": 19488,
          "time": 179.117456,
          "velocity": 0.7637795275590551
        },
        {
          "duration": 0.21139683333333892,
          "durationTicks": 23,
          "midi": 49,
          "name": "C#3",
          "ticks": 19512,
          "time": 179.338044,
          "velocity": 0.7716535433070866
        },
        {
          "duration": 0.21139683333333892,
          "durationTicks": 23,
          "midi": 29,
          "name": "F1",
          "ticks": 19536,
          "time": 179.55863200000002,
          "velocity": 0.7952755905511811
        },
        {
          "duration": 0.21139683333333892,
          "durationTicks": 23,
          "midi": 41,
          "name": "F2",
          "ticks": 19560,
          "time": 179.77922,
          "velocity": 0.7795275590551181
        },
        {
          "duration": 0.21139683333333892,
          "durationTicks": 23,
          "midi": 29,
          "name": "F1",
          "ticks": 19584,
          "time": 179.999808,
          "velocity": 0.7874015748031497
        },
        {
          "duration": 0.1654410000000155,
          "durationTicks": 18,
          "midi": 41,
          "name": "F2",
          "ticks": 19608,
          "time": 180.220396,
          "velocity": 0.7795275590551181
        },
        {
          "duration": 0.21139683333333892,
          "durationTicks": 23,
          "midi": 30,
          "name": "F#1",
          "ticks": 19632,
          "time": 180.44098400000001,
          "velocity": 0.8110236220472441
        },
        {
          "duration": 0.21139683333333892,
          "durationTicks": 23,
          "midi": 42,
          "name": "F#2",
          "ticks": 19656,
          "time": 180.661572,
          "velocity": 0.7795275590551181
        },
        {
          "duration": 0.21139683333333892,
          "durationTicks": 23,
          "midi": 30,
          "name": "F#1",
          "ticks": 19680,
          "time": 180.88216,
          "velocity": 0.7322834645669292
        },
        {
          "duration": 0.21139683333336734,
          "durationTicks": 23,
          "midi": 42,
          "name": "F#2",
          "ticks": 19704,
          "time": 181.102748,
          "velocity": 0.7559055118110236
        },
        {
          "duration": 0.21139683333333892,
          "durationTicks": 23,
          "midi": 30,
          "name": "F#1",
          "ticks": 19728,
          "time": 181.323336,
          "velocity": 0.7795275590551181
        },
        {
          "duration": 0.21139683333333892,
          "durationTicks": 23,
          "midi": 42,
          "name": "F#2",
          "ticks": 19752,
          "time": 181.543924,
          "velocity": 0.7952755905511811
        },
        {
          "duration": 0.21139683333333892,
          "durationTicks": 23,
          "midi": 30,
          "name": "F#1",
          "ticks": 19776,
          "time": 181.764512,
          "velocity": 0.7637795275590551
        },
        {
          "duration": 0.21139683333333892,
          "durationTicks": 23,
          "midi": 42,
          "name": "F#2",
          "ticks": 19800,
          "time": 181.98510000000002,
          "velocity": 0.7795275590551181
        },
        {
          "duration": 0.21139683333333892,
          "durationTicks": 23,
          "midi": 32,
          "name": "G#1",
          "ticks": 19824,
          "time": 182.205688,
          "velocity": 0.7952755905511811
        },
        {
          "duration": 0.21139683333333892,
          "durationTicks": 23,
          "midi": 44,
          "name": "G#2",
          "ticks": 19848,
          "time": 182.426276,
          "velocity": 0.7637795275590551
        },
        {
          "duration": 0.21139683333333892,
          "durationTicks": 23,
          "midi": 32,
          "name": "G#1",
          "ticks": 19872,
          "time": 182.646864,
          "velocity": 0.7637795275590551
        },
        {
          "duration": 0.21139683333333892,
          "durationTicks": 23,
          "midi": 44,
          "name": "G#2",
          "ticks": 19896,
          "time": 182.86745200000001,
          "velocity": 0.7716535433070866
        },
        {
          "duration": 0.21139683333333892,
          "durationTicks": 23,
          "midi": 32,
          "name": "G#1",
          "ticks": 19920,
          "time": 183.08804,
          "velocity": 0.7716535433070866
        },
        {
          "duration": 0.21139683333333892,
          "durationTicks": 23,
          "midi": 44,
          "name": "G#2",
          "ticks": 19944,
          "time": 183.308628,
          "velocity": 0.7952755905511811
        },
        {
          "duration": 0.21139683333336734,
          "durationTicks": 23,
          "midi": 32,
          "name": "G#1",
          "ticks": 19968,
          "time": 183.529216,
          "velocity": 0.7795275590551181
        },
        {
          "duration": 0.16544099999998707,
          "durationTicks": 18,
          "midi": 44,
          "name": "G#2",
          "ticks": 19992,
          "time": 183.749804,
          "velocity": 0.7637795275590551
        },
        {
          "duration": 0.21139683333333892,
          "durationTicks": 23,
          "midi": 37,
          "name": "C#2",
          "ticks": 20016,
          "time": 183.970392,
          "velocity": 0.8110236220472441
        },
        {
          "duration": 0.21139683333333892,
          "durationTicks": 23,
          "midi": 49,
          "name": "C#3",
          "ticks": 20040,
          "time": 184.19098,
          "velocity": 0.7795275590551181
        },
        {
          "duration": 0.21139683333333892,
          "durationTicks": 23,
          "midi": 37,
          "name": "C#2",
          "ticks": 20064,
          "time": 184.41156800000002,
          "velocity": 0.7480314960629921
        },
        {
          "duration": 0.21139683333333892,
          "durationTicks": 23,
          "midi": 49,
          "name": "C#3",
          "ticks": 20088,
          "time": 184.632156,
          "velocity": 0.7874015748031497
        },
        {
          "duration": 0.21139683333333892,
          "durationTicks": 23,
          "midi": 37,
          "name": "C#2",
          "ticks": 20112,
          "time": 184.852744,
          "velocity": 0.7637795275590551
        },
        {
          "duration": 0.21139683333336734,
          "durationTicks": 23,
          "midi": 49,
          "name": "C#3",
          "ticks": 20136,
          "time": 185.073332,
          "velocity": 0.7952755905511811
        },
        {
          "duration": 0.21139683333333892,
          "durationTicks": 23,
          "midi": 37,
          "name": "C#2",
          "ticks": 20160,
          "time": 185.29392,
          "velocity": 0.7795275590551181
        },
        {
          "duration": 0.16544099999998707,
          "durationTicks": 18,
          "midi": 49,
          "name": "C#3",
          "ticks": 20184,
          "time": 185.514508,
          "velocity": 0.7716535433070866
        },
        {
          "duration": 0.21139683333333892,
          "durationTicks": 23,
          "midi": 34,
          "name": "A#1",
          "ticks": 20208,
          "time": 185.735096,
          "velocity": 0.7795275590551181
        },
        {
          "duration": 0.21139683333336734,
          "durationTicks": 23,
          "midi": 46,
          "name": "A#2",
          "ticks": 20232,
          "time": 185.955684,
          "velocity": 0.7795275590551181
        },
        {
          "duration": 0.1746321666666688,
          "durationTicks": 19,
          "midi": 46,
          "name": "A#2",
          "ticks": 20256,
          "time": 186.176272,
          "velocity": 0.8188976377952756
        },
        {
          "duration": 0.4136024999999961,
          "durationTicks": 45,
          "midi": 46,
          "name": "A#2",
          "ticks": 20280,
          "time": 186.39686,
          "velocity": 0.7874015748031497
        },
        {
          "duration": 0.21139683333333892,
          "durationTicks": 23,
          "midi": 41,
          "name": "F2",
          "ticks": 20328,
          "time": 186.83803600000002,
          "velocity": 0.7795275590551181
        },
        {
          "duration": 0.19301450000000386,
          "durationTicks": 21,
          "midi": 46,
          "name": "A#2",
          "ticks": 20352,
          "time": 187.058624,
          "velocity": 0.7952755905511811
        },
        {
          "duration": 0.18382333333335055,
          "durationTicks": 20,
          "midi": 46,
          "name": "A#2",
          "ticks": 20376,
          "time": 187.279212,
          "velocity": 0.7874015748031497
        },
        {
          "duration": 0.21139683333336734,
          "durationTicks": 23,
          "midi": 27,
          "name": "D#1",
          "ticks": 20400,
          "time": 187.4998,
          "velocity": 0.8110236220472441
        },
        {
          "duration": 0.21139683333333892,
          "durationTicks": 23,
          "midi": 39,
          "name": "D#2",
          "ticks": 20424,
          "time": 187.720388,
          "velocity": 0.7795275590551181
        },
        {
          "duration": 0.21139683333333892,
          "durationTicks": 23,
          "midi": 27,
          "name": "D#1",
          "ticks": 20448,
          "time": 187.940976,
          "velocity": 0.7637795275590551
        },
        {
          "duration": 0.21139683333333892,
          "durationTicks": 23,
          "midi": 39,
          "name": "D#2",
          "ticks": 20472,
          "time": 188.161564,
          "velocity": 0.7559055118110236
        },
        {
          "duration": 0.21139683333333892,
          "durationTicks": 23,
          "midi": 27,
          "name": "D#1",
          "ticks": 20496,
          "time": 188.38215200000002,
          "velocity": 0.7795275590551181
        },
        {
          "duration": 0.21139683333333892,
          "durationTicks": 23,
          "midi": 39,
          "name": "D#2",
          "ticks": 20520,
          "time": 188.60274,
          "velocity": 0.7795275590551181
        },
        {
          "duration": 0.21139683333333892,
          "durationTicks": 23,
          "midi": 27,
          "name": "D#1",
          "ticks": 20544,
          "time": 188.823328,
          "velocity": 0.7795275590551181
        },
        {
          "duration": 0.2022056666666856,
          "durationTicks": 22,
          "midi": 39,
          "name": "D#2",
          "ticks": 20568,
          "time": 189.043916,
          "velocity": 0.7874015748031497
        },
        {
          "duration": 0.21139683333333892,
          "durationTicks": 23,
          "midi": 32,
          "name": "G#1",
          "ticks": 20592,
          "time": 189.26450400000002,
          "velocity": 0.7952755905511811
        },
        {
          "duration": 0.21139683333333892,
          "durationTicks": 23,
          "midi": 44,
          "name": "G#2",
          "ticks": 20616,
          "time": 189.485092,
          "velocity": 0.7637795275590551
        },
        {
          "duration": 0.21139683333333892,
          "durationTicks": 23,
          "midi": 32,
          "name": "G#1",
          "ticks": 20640,
          "time": 189.70568,
          "velocity": 0.7637795275590551
        },
        {
          "duration": 0.21139683333336734,
          "durationTicks": 23,
          "midi": 44,
          "name": "G#2",
          "ticks": 20664,
          "time": 189.926268,
          "velocity": 0.7716535433070866
        },
        {
          "duration": 0.21139683333333892,
          "durationTicks": 23,
          "midi": 32,
          "name": "G#1",
          "ticks": 20688,
          "time": 190.146856,
          "velocity": 0.7716535433070866
        },
        {
          "duration": 0.21139683333333892,
          "durationTicks": 23,
          "midi": 44,
          "name": "G#2",
          "ticks": 20712,
          "time": 190.367444,
          "velocity": 0.7952755905511811
        },
        {
          "duration": 0.21139683333333892,
          "durationTicks": 23,
          "midi": 32,
          "name": "G#1",
          "ticks": 20736,
          "time": 190.588032,
          "velocity": 0.7795275590551181
        },
        {
          "duration": 0.21139683333333892,
          "durationTicks": 23,
          "midi": 44,
          "name": "G#2",
          "ticks": 20760,
          "time": 190.80862000000002,
          "velocity": 0.7637795275590551
        },
        {
          "duration": 0.21139683333333892,
          "durationTicks": 23,
          "midi": 34,
          "name": "A#1",
          "ticks": 20784,
          "time": 191.029208,
          "velocity": 0.8188976377952756
        },
        {
          "duration": 0.21139683333333892,
          "durationTicks": 23,
          "midi": 46,
          "name": "A#2",
          "ticks": 20808,
          "time": 191.249796,
          "velocity": 0.7637795275590551
        },
        {
          "duration": 0.21139683333333892,
          "durationTicks": 23,
          "midi": 34,
          "name": "A#1",
          "ticks": 20832,
          "time": 191.470384,
          "velocity": 0.7637795275590551
        },
        {
          "duration": 0.21139683333333892,
          "durationTicks": 23,
          "midi": 46,
          "name": "A#2",
          "ticks": 20856,
          "time": 191.69097200000002,
          "velocity": 0.7716535433070866
        },
        {
          "duration": 0.21139683333333892,
          "durationTicks": 23,
          "midi": 36,
          "name": "C2",
          "ticks": 20880,
          "time": 191.91156,
          "velocity": 0.7716535433070866
        },
        {
          "duration": 0.21139683333333892,
          "durationTicks": 23,
          "midi": 48,
          "name": "C3",
          "ticks": 20904,
          "time": 192.132148,
          "velocity": 0.7952755905511811
        },
        {
          "duration": 0.21139683333336734,
          "durationTicks": 23,
          "midi": 36,
          "name": "C2",
          "ticks": 20928,
          "time": 192.352736,
          "velocity": 0.7795275590551181
        },
        {
          "duration": 0.21139683333333892,
          "durationTicks": 23,
          "midi": 48,
          "name": "C3",
          "ticks": 20952,
          "time": 192.573324,
          "velocity": 0.7637795275590551
        },
        {
          "duration": 0.21139683333333892,
          "durationTicks": 23,
          "midi": 37,
          "name": "C#2",
          "ticks": 20976,
          "time": 192.793912,
          "velocity": 0.7952755905511811
        },
        {
          "duration": 0.21139683333333892,
          "durationTicks": 23,
          "midi": 49,
          "name": "C#3",
          "ticks": 21000,
          "time": 193.0145,
          "velocity": 0.7637795275590551
        },
        {
          "duration": 0.21139683333333892,
          "durationTicks": 23,
          "midi": 37,
          "name": "C#2",
          "ticks": 21024,
          "time": 193.23508800000002,
          "velocity": 0.7637795275590551
        },
        {
          "duration": 0.21139683333333892,
          "durationTicks": 23,
          "midi": 49,
          "name": "C#3",
          "ticks": 21048,
          "time": 193.455676,
          "velocity": 0.7716535433070866
        },
        {
          "duration": 0.21139683333333892,
          "durationTicks": 23,
          "midi": 29,
          "name": "F1",
          "ticks": 21072,
          "time": 193.676264,
          "velocity": 0.7952755905511811
        },
        {
          "duration": 0.21139683333333892,
          "durationTicks": 23,
          "midi": 41,
          "name": "F2",
          "ticks": 21096,
          "time": 193.896852,
          "velocity": 0.7795275590551181
        },
        {
          "duration": 0.42279366666667784,
          "durationTicks": 46,
          "midi": 41,
          "name": "F2",
          "ticks": 21120,
          "time": 194.11744000000002,
          "velocity": 0.7874015748031497
        },
        {
          "duration": 0.21139683333333892,
          "durationTicks": 23,
          "midi": 30,
          "name": "F#1",
          "ticks": 21168,
          "time": 194.558616,
          "velocity": 0.8110236220472441
        },
        {
          "duration": 0.21139683333336734,
          "durationTicks": 23,
          "midi": 42,
          "name": "F#2",
          "ticks": 21192,
          "time": 194.779204,
          "velocity": 0.7795275590551181
        },
        {
          "duration": 0.21139683333333892,
          "durationTicks": 23,
          "midi": 30,
          "name": "F#1",
          "ticks": 21216,
          "time": 194.999792,
          "velocity": 0.7322834645669292
        },
        {
          "duration": 0.21139683333333892,
          "durationTicks": 23,
          "midi": 42,
          "name": "F#2",
          "ticks": 21240,
          "time": 195.22038,
          "velocity": 0.7559055118110236
        },
        {
          "duration": 0.21139683333333892,
          "durationTicks": 23,
          "midi": 30,
          "name": "F#1",
          "ticks": 21264,
          "time": 195.440968,
          "velocity": 0.7795275590551181
        },
        {
          "duration": 0.21139683333333892,
          "durationTicks": 23,
          "midi": 42,
          "name": "F#2",
          "ticks": 21288,
          "time": 195.66155600000002,
          "velocity": 0.7952755905511811
        },
        {
          "duration": 0.21139683333333892,
          "durationTicks": 23,
          "midi": 30,
          "name": "F#1",
          "ticks": 21312,
          "time": 195.882144,
          "velocity": 0.7637795275590551
        },
        {
          "duration": 0.21139683333333892,
          "durationTicks": 23,
          "midi": 42,
          "name": "F#2",
          "ticks": 21336,
          "time": 196.102732,
          "velocity": 0.7795275590551181
        },
        {
          "duration": 0.21139683333333892,
          "durationTicks": 23,
          "midi": 32,
          "name": "G#1",
          "ticks": 21360,
          "time": 196.32332,
          "velocity": 0.7952755905511811
        },
        {
          "duration": 0.21139683333333892,
          "durationTicks": 23,
          "midi": 44,
          "name": "G#2",
          "ticks": 21384,
          "time": 196.54390800000002,
          "velocity": 0.7637795275590551
        },
        {
          "duration": 0.21139683333333892,
          "durationTicks": 23,
          "midi": 32,
          "name": "G#1",
          "ticks": 21408,
          "time": 196.764496,
          "velocity": 0.7637795275590551
        },
        {
          "duration": 0.21139683333333892,
          "durationTicks": 23,
          "midi": 44,
          "name": "G#2",
          "ticks": 21432,
          "time": 196.985084,
          "velocity": 0.7716535433070866
        },
        {
          "duration": 0.21139683333336734,
          "durationTicks": 23,
          "midi": 32,
          "name": "G#1",
          "ticks": 21456,
          "time": 197.205672,
          "velocity": 0.7716535433070866
        },
        {
          "duration": 0.21139683333333892,
          "durationTicks": 23,
          "midi": 44,
          "name": "G#2",
          "ticks": 21480,
          "time": 197.42626,
          "velocity": 0.7952755905511811
        },
        {
          "duration": 0.21139683333333892,
          "durationTicks": 23,
          "midi": 32,
          "name": "G#1",
          "ticks": 21504,
          "time": 197.646848,
          "velocity": 0.7795275590551181
        },
        {
          "duration": 0.1654410000000155,
          "durationTicks": 18,
          "midi": 44,
          "name": "G#2",
          "ticks": 21528,
          "time": 197.867436,
          "velocity": 0.7637795275590551
        },
        {
          "duration": 0.21139683333333892,
          "durationTicks": 23,
          "midi": 30,
          "name": "F#1",
          "ticks": 21552,
          "time": 198.08802400000002,
          "velocity": 0.8110236220472441
        },
        {
          "duration": 0.19301450000000386,
          "durationTicks": 21,
          "midi": 30,
          "name": "F#1",
          "ticks": 21576,
          "time": 198.308612,
          "velocity": 0.7795275590551181
        },
        {
          "duration": 0.19301450000000386,
          "durationTicks": 21,
          "midi": 30,
          "name": "F#1",
          "ticks": 21600,
          "time": 198.5292,
          "velocity": 0.7322834645669292
        },
        {
          "duration": 0.4411760000000129,
          "durationTicks": 48,
          "midi": 42,
          "name": "F#2",
          "ticks": 21624,
          "time": 198.749788,
          "velocity": 0.8267716535433071
        },
        {
          "duration": 0.21139683333333892,
          "durationTicks": 23,
          "midi": 42,
          "name": "F#2",
          "ticks": 21672,
          "time": 199.190964,
          "velocity": 0.7952755905511811
        },
        {
          "duration": 0.4411760000000129,
          "durationTicks": 48,
          "midi": 42,
          "name": "F#2",
          "ticks": 21696,
          "time": 199.411552,
          "velocity": 0.7874015748031497
        },
        {
          "duration": 0.21139683333333892,
          "durationTicks": 23,
          "midi": 30,
          "name": "F#1",
          "ticks": 21744,
          "time": 199.852728,
          "velocity": 0.8110236220472441
        },
        {
          "duration": 0.19301450000000386,
          "durationTicks": 21,
          "midi": 30,
          "name": "F#1",
          "ticks": 21768,
          "time": 200.073316,
          "velocity": 0.7007874015748031
        },
        {
          "duration": 0.19301450000000386,
          "durationTicks": 21,
          "midi": 30,
          "name": "F#1",
          "ticks": 21792,
          "time": 200.293904,
          "velocity": 0.7322834645669292
        },
        {
          "duration": 0.19301449999997544,
          "durationTicks": 21,
          "midi": 30,
          "name": "F#1",
          "ticks": 21816,
          "time": 200.51449200000002,
          "velocity": 0.7795275590551181
        },
        {
          "duration": 0.19301450000000386,
          "durationTicks": 21,
          "midi": 30,
          "name": "F#1",
          "ticks": 21840,
          "time": 200.73508,
          "velocity": 0.7952755905511811
        },
        {
          "duration": 0.19301450000000386,
          "durationTicks": 21,
          "midi": 30,
          "name": "F#1",
          "ticks": 21864,
          "time": 200.955668,
          "velocity": 0.8110236220472441
        },
        {
          "duration": 0.19301450000000386,
          "durationTicks": 21,
          "midi": 30,
          "name": "F#1",
          "ticks": 21888,
          "time": 201.176256,
          "velocity": 0.8188976377952756
        },
        {
          "duration": 0.21139683333333892,
          "durationTicks": 23,
          "midi": 30,
          "name": "F#1",
          "ticks": 21912,
          "time": 201.39684400000002,
          "velocity": 0.8582677165354331
        }
      ]
    },
    {
      "channel": 0,
      "controlChanges": {
        "0": [
          {
            "number": 0,
            "ticks": 156,
            "time": 1.4338220000000002,
            "value": 0
          }
        ],
        "32": [
          {
            "number": 32,
            "ticks": 160,
            "time": 1.4705866666666667,
            "value": 0.007874015748031496
          }
        ],
        "121": [
          {
            "number": 121,
            "ticks": 152,
            "time": 1.3970573333333334,
            "value": 0
          }
        ]
      },
      "pitchBends": [],
      "instrument": {
        "family": "piano",
        "number": 0,
        "name": "acoustic grand piano"
      },
      "name": "Melo 1",
      "notes": [],
      "endOfTrackTicks": 22895
    },
    {
      "channel": 1,
      "controlChanges": {
        "1": [
          {
            "number": 1,
            "ticks": 1370,
            "time": 12.591898333333333,
            "value": 0.3228346456692913
          },
          {
            "number": 1,
            "ticks": 1414,
            "time": 12.996309666666669,
            "value": 0
          },
          {
            "number": 1,
            "ticks": 1514,
            "time": 13.915426333333333,
            "value": 0.31496062992125984
          },
          {
            "number": 1,
            "ticks": 1555,
            "time": 14.29226416666667,
            "value": 0
          },
          {
            "number": 1,
            "ticks": 2090,
            "time": 19.209538333333334,
            "value": 0.4409448818897638
          },
          {
            "number": 1,
            "ticks": 2111,
            "time": 19.402552833333335,
            "value": 0
          },
          {
            "number": 1,
            "ticks": 3431,
            "time": 31.534892833333334,
            "value": 0.3937007874015748
          },
          {
            "number": 1,
            "ticks": 3479,
            "time": 31.976068833333336,
            "value": 0
          },
          {
            "number": 1,
            "ticks": 4055,
            "time": 37.270180833333335,
            "value": 0.3937007874015748
          },
          {
            "number": 1,
            "ticks": 4109,
            "time": 37.76650383333334,
            "value": 0
          },
          {
            "number": 1,
            "ticks": 4297,
            "time": 39.49444316666667,
            "value": 0.3543307086614173
          },
          {
            "number": 1,
            "ticks": 4319,
            "time": 39.696648833333334,
            "value": 0
          },
          {
            "number": 1,
            "ticks": 4393,
            "time": 40.37679516666667,
            "value": 0.3543307086614173
          },
          {
            "number": 1,
            "ticks": 4415,
            "time": 40.57900083333333,
            "value": 0
          },
          {
            "number": 1,
            "ticks": 4489,
            "time": 41.25914716666667,
            "value": 0.3543307086614173
          },
          {
            "number": 1,
            "ticks": 4511,
            "time": 41.461352833333336,
            "value": 0
          },
          {
            "number": 1,
            "ticks": 4585,
            "time": 42.14149916666667,
            "value": 0.3543307086614173
          },
          {
            "number": 1,
            "ticks": 4607,
            "time": 42.343704833333334,
            "value": 0
          },
          {
            "number": 1,
            "ticks": 4681,
            "time": 43.023851166666674,
            "value": 0.3543307086614173
          },
          {
            "number": 1,
            "ticks": 4703,
            "time": 43.22605683333334,
            "value": 0
          },
          {
            "number": 1,
            "ticks": 4777,
            "time": 43.90620316666667,
            "value": 0.3543307086614173
          },
          {
            "number": 1,
            "ticks": 4799,
            "time": 44.108408833333336,
            "value": 0
          },
          {
            "number": 1,
            "ticks": 5065,
            "time": 46.55325916666667,
            "value": 0.3543307086614173
          },
          {
            "number": 1,
            "ticks": 5087,
            "time": 46.755464833333335,
            "value": 0
          },
          {
            "number": 1,
            "ticks": 5161,
            "time": 47.43561116666667,
            "value": 0.3543307086614173
          },
          {
            "number": 1,
            "ticks": 5183,
            "time": 47.63781683333334,
            "value": 0
          },
          {
            "number": 1,
            "ticks": 5257,
            "time": 48.31796316666667,
            "value": 0.3543307086614173
          },
          {
            "number": 1,
            "ticks": 5279,
            "time": 48.52016883333334,
            "value": 0
          },
          {
            "number": 1,
            "ticks": 5353,
            "time": 49.20031516666667,
            "value": 0.3543307086614173
          },
          {
            "number": 1,
            "ticks": 5375,
            "time": 49.402520833333334,
            "value": 0
          },
          {
            "number": 1,
            "ticks": 5735,
            "time": 52.71134083333334,
            "value": 0.3937007874015748
          },
          {
            "number": 1,
            "ticks": 5805,
            "time": 53.3547225,
            "value": 0
          },
          {
            "number": 1,
            "ticks": 5882,
            "time": 54.06244233333334,
            "value": 0.3543307086614173
          },
          {
            "number": 1,
            "ticks": 5895,
            "time": 54.1819275,
            "value": 0
          },
          {
            "number": 1,
            "ticks": 5978,
            "time": 54.944794333333334,
            "value": 0.3937007874015748
          },
          {
            "number": 1,
            "ticks": 6021,
            "time": 55.3400145,
            "value": 0
          },
          {
            "number": 1,
            "ticks": 6931,
            "time": 63.70397616666666,
            "value": 0
          },
          {
            "number": 1,
            "ticks": 7345,
            "time": 67.50911916666666,
            "value": 0.4330708661417323
          },
          {
            "number": 1,
            "ticks": 7385,
            "time": 67.87676583333332,
            "value": 0
          },
          {
            "number": 1,
            "ticks": 7775,
            "time": 71.46132083333333,
            "value": 0.4330708661417323
          },
          {
            "number": 1,
            "ticks": 7823,
            "time": 71.90249683333333,
            "value": 0
          },
          {
            "number": 1,
            "ticks": 7967,
            "time": 73.22602483333333,
            "value": 0.4330708661417323
          },
          {
            "number": 1,
            "ticks": 8019,
            "time": 73.7039655,
            "value": 0
          },
          {
            "number": 1,
            "ticks": 8282,
            "time": 76.12124233333333,
            "value": 0.3228346456692913
          },
          {
            "number": 1,
            "ticks": 8326,
            "time": 76.52565366666666,
            "value": 0
          },
          {
            "number": 1,
            "ticks": 8426,
            "time": 77.44477033333332,
            "value": 0.31496062992125984
          },
          {
            "number": 1,
            "ticks": 8467,
            "time": 77.82160816666666,
            "value": 0
          },
          {
            "number": 1,
            "ticks": 9002,
            "time": 82.73888233333334,
            "value": 0.4409448818897638
          },
          {
            "number": 1,
            "ticks": 9032,
            "time": 83.01461733333333,
            "value": 0
          },
          {
            "number": 1,
            "ticks": 10343,
            "time": 95.06423683333333,
            "value": 0.3937007874015748
          },
          {
            "number": 1,
            "ticks": 10391,
            "time": 95.50541283333332,
            "value": 0
          },
          {
            "number": 1,
            "ticks": 10967,
            "time": 100.79952483333334,
            "value": 0.3937007874015748
          },
          {
            "number": 1,
            "ticks": 11021,
            "time": 101.29584783333333,
            "value": 0
          },
          {
            "number": 1,
            "ticks": 11495,
            "time": 105.65246083333334,
            "value": 0.4251968503937008
          },
          {
            "number": 1,
            "ticks": 11543,
            "time": 106.09363683333333,
            "value": 0
          },
          {
            "number": 1,
            "ticks": 14330,
            "time": 131.70941833333333,
            "value": 0.3543307086614173
          },
          {
            "number": 1,
            "ticks": 14343,
            "time": 131.8289035,
            "value": 0
          },
          {
            "number": 1,
            "ticks": 14426,
            "time": 132.59177033333336,
            "value": 0.3937007874015748
          },
          {
            "number": 1,
            "ticks": 14469,
            "time": 132.9869905,
            "value": 0
          },
          {
            "number": 1,
            "ticks": 15070,
            "time": 138.51088166666668,
            "value": 0.3858267716535433
          },
          {
            "number": 1,
            "ticks": 15117,
            "time": 138.9428665,
            "value": 0
          },
          {
            "number": 1,
            "ticks": 15161,
            "time": 139.34727783333335,
            "value": 0.31496062992125984
          },
          {
            "number": 1,
            "ticks": 15189,
            "time": 139.6046305,
            "value": 0
          },
          {
            "number": 1,
            "ticks": 15338,
            "time": 140.97411433333335,
            "value": 0.3543307086614173
          },
          {
            "number": 1,
            "ticks": 15381,
            "time": 141.3693345,
            "value": 0
          },
          {
            "number": 1,
            "ticks": 15793,
            "time": 145.1560951666667,
            "value": 0.4330708661417323
          },
          {
            "number": 1,
            "ticks": 15833,
            "time": 145.52374183333333,
            "value": 0
          },
          {
            "number": 1,
            "ticks": 16415,
            "time": 150.87300083333335,
            "value": 0.4330708661417323
          },
          {
            "number": 1,
            "ticks": 16463,
            "time": 151.31417683333333,
            "value": 0
          },
          {
            "number": 1,
            "ticks": 16730,
            "time": 153.76821833333335,
            "value": 0.3228346456692913
          },
          {
            "number": 1,
            "ticks": 16774,
            "time": 154.1726296666667,
            "value": 0
          },
          {
            "number": 1,
            "ticks": 16874,
            "time": 155.09174633333333,
            "value": 0.31496062992125984
          },
          {
            "number": 1,
            "ticks": 16915,
            "time": 155.4685841666667,
            "value": 0
          },
          {
            "number": 1,
            "ticks": 17450,
            "time": 160.38585833333335,
            "value": 0.4409448818897638
          },
          {
            "number": 1,
            "ticks": 17480,
            "time": 160.66159333333334,
            "value": 0
          },
          {
            "number": 1,
            "ticks": 18451,
            "time": 169.5862161666667,
            "value": 0
          },
          {
            "number": 1,
            "ticks": 18526,
            "time": 170.2755536666667,
            "value": 0.3937007874015748
          },
          {
            "number": 1,
            "ticks": 18572,
            "time": 170.69834733333334,
            "value": 0
          },
          {
            "number": 1,
            "ticks": 18865,
            "time": 173.3913591666667,
            "value": 0.4330708661417323
          },
          {
            "number": 1,
            "ticks": 18905,
            "time": 173.75900583333333,
            "value": 0
          },
          {
            "number": 1,
            "ticks": 19295,
            "time": 177.34356083333336,
            "value": 0.4330708661417323
          },
          {
            "number": 1,
            "ticks": 19343,
            "time": 177.78473683333334,
            "value": 0
          },
          {
            "number": 1,
            "ticks": 19487,
            "time": 179.10826483333335,
            "value": 0.4330708661417323
          },
          {
            "number": 1,
            "ticks": 19535,
            "time": 179.54944083333334,
            "value": 0
          },
          {
            "number": 1,
            "ticks": 19802,
            "time": 182.00348233333335,
            "value": 0.3228346456692913
          },
          {
            "number": 1,
            "ticks": 19846,
            "time": 182.4078936666667,
            "value": 0
          },
          {
            "number": 1,
            "ticks": 19946,
            "time": 183.32701033333333,
            "value": 0.31496062992125984
          },
          {
            "number": 1,
            "ticks": 19987,
            "time": 183.7038481666667,
            "value": 0
          },
          {
            "number": 1,
            "ticks": 20522,
            "time": 188.62112233333335,
            "value": 0.4409448818897638
          },
          {
            "number": 1,
            "ticks": 20552,
            "time": 188.89685733333334,
            "value": 0
          },
          {
            "number": 1,
            "ticks": 20977,
            "time": 192.8031031666667,
            "value": 0.49606299212598426
          },
          {
            "number": 1,
            "ticks": 20998,
            "time": 192.9961176666667,
            "value": 0
          },
          {
            "number": 1,
            "ticks": 21001,
            "time": 193.02369116666668,
            "value": 0.4409448818897638
          },
          {
            "number": 1,
            "ticks": 21094,
            "time": 193.8784696666667,
            "value": 0
          },
          {
            "number": 1,
            "ticks": 21290,
            "time": 195.67993833333335,
            "value": 0.4409448818897638
          },
          {
            "number": 1,
            "ticks": 21320,
            "time": 195.95567333333335,
            "value": 0
          },
          {
            "number": 1,
            "ticks": 21814,
            "time": 200.49610966666668,
            "value": 0.31496062992125984
          },
          {
            "number": 1,
            "ticks": 21851,
            "time": 200.83618283333334,
            "value": 0
          },
          {
            "number": 1,
            "ticks": 21982,
            "time": 202.0402256666667,
            "value": 0.3858267716535433
          },
          {
            "number": 1,
            "ticks": 22029,
            "time": 202.47221050000002,
            "value": 0
          },
          {
            "number": 1,
            "ticks": 22073,
            "time": 202.87662183333336,
            "value": 0.31496062992125984
          },
          {
            "number": 1,
            "ticks": 22101,
            "time": 203.1339745,
            "value": 0
          },
          {
            "number": 1,
            "ticks": 22203,
            "time": 204.0714735,
            "value": 0.3543307086614173
          },
          {
            "number": 1,
            "ticks": 22246,
            "time": 204.46669366666669,
            "value": 0
          },
          {
            "number": 1,
            "ticks": 22343,
            "time": 205.35823683333334,
            "value": 0.3543307086614173
          },
          {
            "number": 1,
            "ticks": 22367,
            "time": 205.57882483333336,
            "value": 0
          },
          {
            "number": 1,
            "ticks": 22418,
            "time": 206.04757433333336,
            "value": 0.4409448818897638
          },
          {
            "number": 1,
            "ticks": 22462,
            "time": 206.4519856666667,
            "value": 0
          },
          {
            "number": 1,
            "ticks": 22655,
            "time": 208.22588083333335,
            "value": 0.3937007874015748
          },
          {
            "number": 1,
            "ticks": 22793,
            "time": 209.49426183333335,
            "value": 0
          }
        ],
        "6": [
          {
            "number": 6,
            "ticks": 181,
            "time": 1.6636011666666668,
            "value": 0.09448818897637795
          }
        ],
        "7": [
          {
            "number": 7,
            "ticks": 168,
            "time": 1.544116,
            "value": 0.952755905511811
          }
        ],
        "10": [
          {
            "number": 10,
            "ticks": 172,
            "time": 1.5808806666666668,
            "value": 0.5039370078740157
          }
        ],
        "11": [
          {
            "number": 11,
            "ticks": 173,
            "time": 1.5900718333333332,
            "value": 0.7795275590551181
          },
          {
            "number": 11,
            "ticks": 1247,
            "time": 11.461384833333334,
            "value": 0.6456692913385826
          },
          {
            "number": 11,
            "ticks": 1249,
            "time": 11.479767166666669,
            "value": 0.6141732283464567
          },
          {
            "number": 11,
            "ticks": 1251,
            "time": 11.4981495,
            "value": 0.5748031496062992
          },
          {
            "number": 11,
            "ticks": 1253,
            "time": 11.516531833333335,
            "value": 0.5433070866141733
          },
          {
            "number": 11,
            "ticks": 1256,
            "time": 11.544105333333334,
            "value": 0.5039370078740157
          },
          {
            "number": 11,
            "ticks": 1258,
            "time": 11.562487666666666,
            "value": 0.47244094488188976
          },
          {
            "number": 11,
            "ticks": 1260,
            "time": 11.58087,
            "value": 0.4330708661417323
          },
          {
            "number": 11,
            "ticks": 1262,
            "time": 11.599252333333332,
            "value": 0.3937007874015748
          },
          {
            "number": 11,
            "ticks": 1294,
            "time": 11.893369666666668,
            "value": 0.7795275590551181
          },
          {
            "number": 11,
            "ticks": 1532,
            "time": 14.080867333333334,
            "value": 0.7165354330708661
          },
          {
            "number": 11,
            "ticks": 1534,
            "time": 14.099249666666669,
            "value": 0.6850393700787402
          },
          {
            "number": 11,
            "ticks": 1536,
            "time": 14.117632,
            "value": 0.6456692913385826
          },
          {
            "number": 11,
            "ticks": 1538,
            "time": 14.136014333333335,
            "value": 0.6141732283464567
          },
          {
            "number": 11,
            "ticks": 1540,
            "time": 14.154396666666667,
            "value": 0.5748031496062992
          },
          {
            "number": 11,
            "ticks": 1556,
            "time": 14.301455333333333,
            "value": 0.7795275590551181
          },
          {
            "number": 11,
            "ticks": 1986,
            "time": 18.253657000000004,
            "value": 0.7244094488188977
          },
          {
            "number": 11,
            "ticks": 1988,
            "time": 18.272039333333336,
            "value": 0.6850393700787402
          },
          {
            "number": 11,
            "ticks": 1990,
            "time": 18.290421666666667,
            "value": 0.6456692913385826
          },
          {
            "number": 11,
            "ticks": 1992,
            "time": 18.308804000000002,
            "value": 0.6062992125984252
          },
          {
            "number": 11,
            "ticks": 2015,
            "time": 18.520200833333334,
            "value": 0.7795275590551181
          },
          {
            "number": 11,
            "ticks": 3455,
            "time": 31.755480833333337,
            "value": 0.7559055118110236
          },
          {
            "number": 11,
            "ticks": 3457,
            "time": 31.773863166666672,
            "value": 0.7401574803149606
          },
          {
            "number": 11,
            "ticks": 3460,
            "time": 31.80143666666667,
            "value": 0.7165354330708661
          },
          {
            "number": 11,
            "ticks": 3463,
            "time": 31.82901016666667,
            "value": 0.6929133858267716
          },
          {
            "number": 11,
            "ticks": 3465,
            "time": 31.847392499999998,
            "value": 0.6692913385826772
          },
          {
            "number": 11,
            "ticks": 3468,
            "time": 31.874966,
            "value": 0.6535433070866141
          },
          {
            "number": 11,
            "ticks": 3471,
            "time": 31.9025395,
            "value": 0.6299212598425197
          },
          {
            "number": 11,
            "ticks": 3473,
            "time": 31.920921833333335,
            "value": 0.6062992125984252
          },
          {
            "number": 11,
            "ticks": 3476,
            "time": 31.948495333333334,
            "value": 0.5826771653543307
          },
          {
            "number": 11,
            "ticks": 3502,
            "time": 32.18746566666667,
            "value": 0.7795275590551181
          },
          {
            "number": 11,
            "ticks": 4081,
            "time": 37.50915116666667,
            "value": 0.7637795275590551
          },
          {
            "number": 11,
            "ticks": 4084,
            "time": 37.53672466666667,
            "value": 0.7322834645669292
          },
          {
            "number": 11,
            "ticks": 4087,
            "time": 37.564298166666674,
            "value": 0.7007874015748031
          },
          {
            "number": 11,
            "ticks": 4090,
            "time": 37.59187166666667,
            "value": 0.6614173228346457
          },
          {
            "number": 11,
            "ticks": 4093,
            "time": 37.61944516666667,
            "value": 0.6299212598425197
          },
          {
            "number": 11,
            "ticks": 4096,
            "time": 37.64701866666667,
            "value": 0.5984251968503937
          },
          {
            "number": 11,
            "ticks": 4099,
            "time": 37.67459216666667,
            "value": 0.5590551181102362
          },
          {
            "number": 11,
            "ticks": 4102,
            "time": 37.70216566666667,
            "value": 0.5275590551181102
          },
          {
            "number": 11,
            "ticks": 4105,
            "time": 37.72973916666667,
            "value": 0.4881889763779528
          },
          {
            "number": 11,
            "ticks": 4125,
            "time": 37.9135625,
            "value": 0.7795275590551181
          },
          {
            "number": 11,
            "ticks": 4307,
            "time": 39.58635483333334,
            "value": 0.7637795275590551
          },
          {
            "number": 11,
            "ticks": 4309,
            "time": 39.60473716666667,
            "value": 0.7401574803149606
          },
          {
            "number": 11,
            "ticks": 4311,
            "time": 39.6231195,
            "value": 0.7165354330708661
          },
          {
            "number": 11,
            "ticks": 4313,
            "time": 39.641501833333336,
            "value": 0.6929133858267716
          },
          {
            "number": 11,
            "ticks": 4315,
            "time": 39.65988416666667,
            "value": 0.6692913385826772
          },
          {
            "number": 11,
            "ticks": 4317,
            "time": 39.6782665,
            "value": 0.6456692913385826
          },
          {
            "number": 11,
            "ticks": 4342,
            "time": 39.90804566666667,
            "value": 0.7795275590551181
          },
          {
            "number": 11,
            "ticks": 4403,
            "time": 40.468706833333336,
            "value": 0.7637795275590551
          },
          {
            "number": 11,
            "ticks": 4405,
            "time": 40.48708916666667,
            "value": 0.7401574803149606
          },
          {
            "number": 11,
            "ticks": 4407,
            "time": 40.5054715,
            "value": 0.7165354330708661
          },
          {
            "number": 11,
            "ticks": 4409,
            "time": 40.523853833333334,
            "value": 0.6929133858267716
          },
          {
            "number": 11,
            "ticks": 4411,
            "time": 40.54223616666667,
            "value": 0.6692913385826772
          },
          {
            "number": 11,
            "ticks": 4413,
            "time": 40.5606185,
            "value": 0.6456692913385826
          },
          {
            "number": 11,
            "ticks": 4438,
            "time": 40.79039766666667,
            "value": 0.7795275590551181
          },
          {
            "number": 11,
            "ticks": 4499,
            "time": 41.35105883333333,
            "value": 0.7637795275590551
          },
          {
            "number": 11,
            "ticks": 4501,
            "time": 41.36944116666667,
            "value": 0.7401574803149606
          },
          {
            "number": 11,
            "ticks": 4503,
            "time": 41.3878235,
            "value": 0.7165354330708661
          },
          {
            "number": 11,
            "ticks": 4505,
            "time": 41.40620583333334,
            "value": 0.6929133858267716
          },
          {
            "number": 11,
            "ticks": 4507,
            "time": 41.42458816666667,
            "value": 0.6692913385826772
          },
          {
            "number": 11,
            "ticks": 4509,
            "time": 41.4429705,
            "value": 0.6456692913385826
          },
          {
            "number": 11,
            "ticks": 4534,
            "time": 41.67274966666667,
            "value": 0.7795275590551181
          },
          {
            "number": 11,
            "ticks": 4595,
            "time": 42.23341083333334,
            "value": 0.7637795275590551
          },
          {
            "number": 11,
            "ticks": 4597,
            "time": 42.25179316666667,
            "value": 0.7401574803149606
          },
          {
            "number": 11,
            "ticks": 4599,
            "time": 42.2701755,
            "value": 0.7165354330708661
          },
          {
            "number": 11,
            "ticks": 4601,
            "time": 42.288557833333336,
            "value": 0.6929133858267716
          },
          {
            "number": 11,
            "ticks": 4603,
            "time": 42.30694016666667,
            "value": 0.6692913385826772
          },
          {
            "number": 11,
            "ticks": 4605,
            "time": 42.3253225,
            "value": 0.6456692913385826
          },
          {
            "number": 11,
            "ticks": 4630,
            "time": 42.55510166666667,
            "value": 0.7795275590551181
          },
          {
            "number": 11,
            "ticks": 4691,
            "time": 43.115762833333335,
            "value": 0.7637795275590551
          },
          {
            "number": 11,
            "ticks": 4693,
            "time": 43.13414516666667,
            "value": 0.7401574803149606
          },
          {
            "number": 11,
            "ticks": 4695,
            "time": 43.1525275,
            "value": 0.7165354330708661
          },
          {
            "number": 11,
            "ticks": 4697,
            "time": 43.17090983333333,
            "value": 0.6929133858267716
          },
          {
            "number": 11,
            "ticks": 4699,
            "time": 43.18929216666667,
            "value": 0.6692913385826772
          },
          {
            "number": 11,
            "ticks": 4701,
            "time": 43.2076745,
            "value": 0.6456692913385826
          },
          {
            "number": 11,
            "ticks": 4726,
            "time": 43.43745366666667,
            "value": 0.7795275590551181
          },
          {
            "number": 11,
            "ticks": 4787,
            "time": 43.99811483333333,
            "value": 0.7637795275590551
          },
          {
            "number": 11,
            "ticks": 4789,
            "time": 44.016497166666674,
            "value": 0.7401574803149606
          },
          {
            "number": 11,
            "ticks": 4791,
            "time": 44.0348795,
            "value": 0.7165354330708661
          },
          {
            "number": 11,
            "ticks": 4793,
            "time": 44.05326183333334,
            "value": 0.6929133858267716
          },
          {
            "number": 11,
            "ticks": 4795,
            "time": 44.07164416666667,
            "value": 0.6692913385826772
          },
          {
            "number": 11,
            "ticks": 4797,
            "time": 44.0900265,
            "value": 0.6456692913385826
          },
          {
            "number": 11,
            "ticks": 4822,
            "time": 44.319805666666674,
            "value": 0.7795275590551181
          },
          {
            "number": 11,
            "ticks": 5075,
            "time": 46.64517083333334,
            "value": 0.7637795275590551
          },
          {
            "number": 11,
            "ticks": 5077,
            "time": 46.663553166666674,
            "value": 0.7401574803149606
          },
          {
            "number": 11,
            "ticks": 5079,
            "time": 46.6819355,
            "value": 0.7165354330708661
          },
          {
            "number": 11,
            "ticks": 5081,
            "time": 46.70031783333334,
            "value": 0.6929133858267716
          },
          {
            "number": 11,
            "ticks": 5083,
            "time": 46.71870016666667,
            "value": 0.6692913385826772
          },
          {
            "number": 11,
            "ticks": 5085,
            "time": 46.7370825,
            "value": 0.6456692913385826
          },
          {
            "number": 11,
            "ticks": 5110,
            "time": 46.966861666666674,
            "value": 0.7795275590551181
          },
          {
            "number": 11,
            "ticks": 5171,
            "time": 47.527522833333336,
            "value": 0.7637795275590551
          },
          {
            "number": 11,
            "ticks": 5173,
            "time": 47.54590516666667,
            "value": 0.7401574803149606
          },
          {
            "number": 11,
            "ticks": 5175,
            "time": 47.5642875,
            "value": 0.7165354330708661
          },
          {
            "number": 11,
            "ticks": 5177,
            "time": 47.582669833333334,
            "value": 0.6929133858267716
          },
          {
            "number": 11,
            "ticks": 5179,
            "time": 47.60105216666667,
            "value": 0.6692913385826772
          },
          {
            "number": 11,
            "ticks": 5181,
            "time": 47.6194345,
            "value": 0.6456692913385826
          },
          {
            "number": 11,
            "ticks": 5206,
            "time": 47.84921366666667,
            "value": 0.7795275590551181
          },
          {
            "number": 11,
            "ticks": 5267,
            "time": 48.40987483333333,
            "value": 0.7637795275590551
          },
          {
            "number": 11,
            "ticks": 5269,
            "time": 48.42825716666667,
            "value": 0.7401574803149606
          },
          {
            "number": 11,
            "ticks": 5271,
            "time": 48.4466395,
            "value": 0.7165354330708661
          },
          {
            "number": 11,
            "ticks": 5273,
            "time": 48.46502183333334,
            "value": 0.6929133858267716
          },
          {
            "number": 11,
            "ticks": 5275,
            "time": 48.48340416666667,
            "value": 0.6692913385826772
          },
          {
            "number": 11,
            "ticks": 5277,
            "time": 48.5017865,
            "value": 0.6456692913385826
          },
          {
            "number": 11,
            "ticks": 5302,
            "time": 48.73156566666667,
            "value": 0.7795275590551181
          },
          {
            "number": 11,
            "ticks": 5363,
            "time": 49.29222683333334,
            "value": 0.7637795275590551
          },
          {
            "number": 11,
            "ticks": 5365,
            "time": 49.31060916666667,
            "value": 0.7401574803149606
          },
          {
            "number": 11,
            "ticks": 5367,
            "time": 49.3289915,
            "value": 0.7165354330708661
          },
          {
            "number": 11,
            "ticks": 5369,
            "time": 49.347373833333336,
            "value": 0.6929133858267716
          },
          {
            "number": 11,
            "ticks": 5371,
            "time": 49.36575616666667,
            "value": 0.6692913385826772
          },
          {
            "number": 11,
            "ticks": 5373,
            "time": 49.3841385,
            "value": 0.6456692913385826
          },
          {
            "number": 11,
            "ticks": 5398,
            "time": 49.61391766666667,
            "value": 0.7795275590551181
          },
          {
            "number": 11,
            "ticks": 5759,
            "time": 52.93192883333334,
            "value": 0.7795275590551181
          },
          {
            "number": 11,
            "ticks": 5766,
            "time": 52.996267,
            "value": 0.7637795275590551
          },
          {
            "number": 11,
            "ticks": 5770,
            "time": 53.03303166666667,
            "value": 0.7401574803149606
          },
          {
            "number": 11,
            "ticks": 5773,
            "time": 53.06060516666667,
            "value": 0.7007874015748031
          },
          {
            "number": 11,
            "ticks": 5777,
            "time": 53.09736983333334,
            "value": 0.6535433070866141
          },
          {
            "number": 11,
            "ticks": 5781,
            "time": 53.1341345,
            "value": 0.6062992125984252
          },
          {
            "number": 11,
            "ticks": 5784,
            "time": 53.161708,
            "value": 0.5433070866141733
          },
          {
            "number": 11,
            "ticks": 5788,
            "time": 53.198472666666675,
            "value": 0.48031496062992124
          },
          {
            "number": 11,
            "ticks": 5792,
            "time": 53.23523733333334,
            "value": 0.4015748031496063
          },
          {
            "number": 11,
            "ticks": 5795,
            "time": 53.26281083333333,
            "value": 0.33070866141732286
          },
          {
            "number": 11,
            "ticks": 5799,
            "time": 53.2995755,
            "value": 0.25196850393700787
          },
          {
            "number": 11,
            "ticks": 5806,
            "time": 53.36391366666667,
            "value": 0.7795275590551181
          },
          {
            "number": 11,
            "ticks": 6427,
            "time": 59.07162816666666,
            "value": 0.7559055118110236
          },
          {
            "number": 11,
            "ticks": 6430,
            "time": 59.099201666666666,
            "value": 0.7322834645669292
          },
          {
            "number": 11,
            "ticks": 6433,
            "time": 59.12677516666667,
            "value": 0.7086614173228346
          },
          {
            "number": 11,
            "ticks": 6436,
            "time": 59.154348666666664,
            "value": 0.6771653543307087
          },
          {
            "number": 11,
            "ticks": 6440,
            "time": 59.191113333333334,
            "value": 0.6535433070866141
          },
          {
            "number": 11,
            "ticks": 6443,
            "time": 59.21868683333334,
            "value": 0.6220472440944882
          },
          {
            "number": 11,
            "ticks": 6446,
            "time": 59.24626033333334,
            "value": 0.5984251968503937
          },
          {
            "number": 11,
            "ticks": 6449,
            "time": 59.273833833333335,
            "value": 0.5748031496062992
          },
          {
            "number": 11,
            "ticks": 6453,
            "time": 59.310598500000005,
            "value": 0.5433070866141733
          },
          {
            "number": 11,
            "ticks": 6456,
            "time": 59.33817200000001,
            "value": 0.5196850393700787
          },
          {
            "number": 11,
            "ticks": 6459,
            "time": 59.36574550000001,
            "value": 0.4881889763779528
          },
          {
            "number": 11,
            "ticks": 6502,
            "time": 59.760965666666664,
            "value": 0.7795275590551181
          },
          {
            "number": 11,
            "ticks": 6908,
            "time": 63.49257933333334,
            "value": 0.7165354330708661
          },
          {
            "number": 11,
            "ticks": 6910,
            "time": 63.51096166666667,
            "value": 0.6850393700787402
          },
          {
            "number": 11,
            "ticks": 6912,
            "time": 63.52934400000001,
            "value": 0.6456692913385826
          },
          {
            "number": 11,
            "ticks": 6914,
            "time": 63.54772633333334,
            "value": 0.6141732283464567
          },
          {
            "number": 11,
            "ticks": 6932,
            "time": 63.71316733333334,
            "value": 0.7795275590551181
          },
          {
            "number": 11,
            "ticks": 7983,
            "time": 73.3730835,
            "value": 0.7716535433070866
          },
          {
            "number": 11,
            "ticks": 7985,
            "time": 73.39146583333333,
            "value": 0.7637795275590551
          },
          {
            "number": 11,
            "ticks": 7987,
            "time": 73.40984816666666,
            "value": 0.7480314960629921
          },
          {
            "number": 11,
            "ticks": 7989,
            "time": 73.4282305,
            "value": 0.7244094488188977
          },
          {
            "number": 11,
            "ticks": 7991,
            "time": 73.44661283333333,
            "value": 0.7086614173228346
          },
          {
            "number": 11,
            "ticks": 7993,
            "time": 73.46499516666665,
            "value": 0.6929133858267716
          },
          {
            "number": 11,
            "ticks": 7995,
            "time": 73.4833775,
            "value": 0.6692913385826772
          },
          {
            "number": 11,
            "ticks": 7997,
            "time": 73.50175983333332,
            "value": 0.6535433070866141
          },
          {
            "number": 11,
            "ticks": 7999,
            "time": 73.52014216666666,
            "value": 0.6299212598425197
          },
          {
            "number": 11,
            "ticks": 8038,
            "time": 73.87859766666666,
            "value": 0.7795275590551181
          },
          {
            "number": 11,
            "ticks": 8159,
            "time": 74.99072883333334,
            "value": 0.6456692913385826
          },
          {
            "number": 11,
            "ticks": 8161,
            "time": 75.00911116666666,
            "value": 0.6141732283464567
          },
          {
            "number": 11,
            "ticks": 8163,
            "time": 75.0274935,
            "value": 0.5748031496062992
          },
          {
            "number": 11,
            "ticks": 8165,
            "time": 75.04587583333333,
            "value": 0.5433070866141733
          },
          {
            "number": 11,
            "ticks": 8168,
            "time": 75.07344933333333,
            "value": 0.5039370078740157
          },
          {
            "number": 11,
            "ticks": 8170,
            "time": 75.09183166666666,
            "value": 0.47244094488188976
          },
          {
            "number": 11,
            "ticks": 8172,
            "time": 75.110214,
            "value": 0.4330708661417323
          },
          {
            "number": 11,
            "ticks": 8174,
            "time": 75.12859633333333,
            "value": 0.3937007874015748
          },
          {
            "number": 11,
            "ticks": 8206,
            "time": 75.42271366666665,
            "value": 0.7795275590551181
          },
          {
            "number": 11,
            "ticks": 8444,
            "time": 77.61021133333333,
            "value": 0.7165354330708661
          },
          {
            "number": 11,
            "ticks": 8446,
            "time": 77.62859366666666,
            "value": 0.6850393700787402
          },
          {
            "number": 11,
            "ticks": 8448,
            "time": 77.646976,
            "value": 0.6456692913385826
          },
          {
            "number": 11,
            "ticks": 8450,
            "time": 77.66535833333333,
            "value": 0.6141732283464567
          },
          {
            "number": 11,
            "ticks": 8452,
            "time": 77.68374066666667,
            "value": 0.5748031496062992
          },
          {
            "number": 11,
            "ticks": 8468,
            "time": 77.83079933333333,
            "value": 0.7795275590551181
          },
          {
            "number": 11,
            "ticks": 8898,
            "time": 81.783001,
            "value": 0.7244094488188977
          },
          {
            "number": 11,
            "ticks": 8900,
            "time": 81.80138333333333,
            "value": 0.6850393700787402
          },
          {
            "number": 11,
            "ticks": 8902,
            "time": 81.81976566666665,
            "value": 0.6456692913385826
          },
          {
            "number": 11,
            "ticks": 8904,
            "time": 81.838148,
            "value": 0.6062992125984252
          },
          {
            "number": 11,
            "ticks": 8927,
            "time": 82.04954483333333,
            "value": 0.7795275590551181
          },
          {
            "number": 11,
            "ticks": 9020,
            "time": 82.90432333333332,
            "value": 0.7401574803149606
          },
          {
            "number": 11,
            "ticks": 9022,
            "time": 82.92270566666666,
            "value": 0.7244094488188977
          },
          {
            "number": 11,
            "ticks": 9024,
            "time": 82.941088,
            "value": 0.7007874015748031
          },
          {
            "number": 11,
            "ticks": 9026,
            "time": 82.95947033333333,
            "value": 0.6850393700787402
          },
          {
            "number": 11,
            "ticks": 9028,
            "time": 82.97785266666666,
            "value": 0.6614173228346457
          },
          {
            "number": 11,
            "ticks": 9030,
            "time": 82.996235,
            "value": 0.6377952755905512
          },
          {
            "number": 11,
            "ticks": 9046,
            "time": 83.14329366666666,
            "value": 0.7795275590551181
          },
          {
            "number": 11,
            "ticks": 10367,
            "time": 95.28482483333333,
            "value": 0.7559055118110236
          },
          {
            "number": 11,
            "ticks": 10369,
            "time": 95.30320716666665,
            "value": 0.7401574803149606
          },
          {
            "number": 11,
            "ticks": 10372,
            "time": 95.33078066666666,
            "value": 0.7165354330708661
          },
          {
            "number": 11,
            "ticks": 10375,
            "time": 95.35835416666666,
            "value": 0.6929133858267716
          },
          {
            "number": 11,
            "ticks": 10377,
            "time": 95.3767365,
            "value": 0.6692913385826772
          },
          {
            "number": 11,
            "ticks": 10380,
            "time": 95.40431,
            "value": 0.6535433070866141
          },
          {
            "number": 11,
            "ticks": 10383,
            "time": 95.4318835,
            "value": 0.6299212598425197
          },
          {
            "number": 11,
            "ticks": 10385,
            "time": 95.45026583333333,
            "value": 0.6062992125984252
          },
          {
            "number": 11,
            "ticks": 10388,
            "time": 95.47783933333334,
            "value": 0.5826771653543307
          },
          {
            "number": 11,
            "ticks": 10414,
            "time": 95.71680966666666,
            "value": 0.7795275590551181
          },
          {
            "number": 11,
            "ticks": 10993,
            "time": 101.03849516666666,
            "value": 0.7637795275590551
          },
          {
            "number": 11,
            "ticks": 10996,
            "time": 101.06606866666665,
            "value": 0.7322834645669292
          },
          {
            "number": 11,
            "ticks": 10999,
            "time": 101.09364216666665,
            "value": 0.7007874015748031
          },
          {
            "number": 11,
            "ticks": 11002,
            "time": 101.12121566666666,
            "value": 0.6614173228346457
          },
          {
            "number": 11,
            "ticks": 11005,
            "time": 101.14878916666666,
            "value": 0.6299212598425197
          },
          {
            "number": 11,
            "ticks": 11008,
            "time": 101.17636266666666,
            "value": 0.5984251968503937
          },
          {
            "number": 11,
            "ticks": 11011,
            "time": 101.20393616666667,
            "value": 0.5590551181102362
          },
          {
            "number": 11,
            "ticks": 11014,
            "time": 101.23150966666665,
            "value": 0.5275590551181102
          },
          {
            "number": 11,
            "ticks": 11017,
            "time": 101.25908316666666,
            "value": 0.4881889763779528
          },
          {
            "number": 11,
            "ticks": 11037,
            "time": 101.4429065,
            "value": 0.7795275590551181
          },
          {
            "number": 11,
            "ticks": 11519,
            "time": 105.87304883333333,
            "value": 0.7559055118110236
          },
          {
            "number": 11,
            "ticks": 11521,
            "time": 105.89143116666666,
            "value": 0.7401574803149606
          },
          {
            "number": 11,
            "ticks": 11524,
            "time": 105.91900466666667,
            "value": 0.7165354330708661
          },
          {
            "number": 11,
            "ticks": 11527,
            "time": 105.94657816666665,
            "value": 0.6929133858267716
          },
          {
            "number": 11,
            "ticks": 11529,
            "time": 105.9649605,
            "value": 0.6692913385826772
          },
          {
            "number": 11,
            "ticks": 11532,
            "time": 105.992534,
            "value": 0.6535433070866141
          },
          {
            "number": 11,
            "ticks": 11535,
            "time": 106.0201075,
            "value": 0.6299212598425197
          },
          {
            "number": 11,
            "ticks": 11537,
            "time": 106.03848983333333,
            "value": 0.6062992125984252
          },
          {
            "number": 11,
            "ticks": 11540,
            "time": 106.06606333333333,
            "value": 0.5826771653543307
          },
          {
            "number": 11,
            "ticks": 11566,
            "time": 106.30503366666666,
            "value": 0.7795275590551181
          },
          {
            "number": 11,
            "ticks": 14875,
            "time": 136.7186041666667,
            "value": 0.7559055118110236
          },
          {
            "number": 11,
            "ticks": 14878,
            "time": 136.74617766666668,
            "value": 0.7322834645669292
          },
          {
            "number": 11,
            "ticks": 14881,
            "time": 136.7737511666667,
            "value": 0.7086614173228346
          },
          {
            "number": 11,
            "ticks": 14884,
            "time": 136.8013246666667,
            "value": 0.6771653543307087
          },
          {
            "number": 11,
            "ticks": 14888,
            "time": 136.83808933333336,
            "value": 0.6535433070866141
          },
          {
            "number": 11,
            "ticks": 14891,
            "time": 136.86566283333335,
            "value": 0.6220472440944882
          },
          {
            "number": 11,
            "ticks": 14894,
            "time": 136.89323633333333,
            "value": 0.5984251968503937
          },
          {
            "number": 11,
            "ticks": 14897,
            "time": 136.92080983333335,
            "value": 0.5748031496062992
          },
          {
            "number": 11,
            "ticks": 14901,
            "time": 136.9575745,
            "value": 0.5433070866141733
          },
          {
            "number": 11,
            "ticks": 14904,
            "time": 136.985148,
            "value": 0.5196850393700787
          },
          {
            "number": 11,
            "ticks": 14907,
            "time": 137.0127215,
            "value": 0.4881889763779528
          },
          {
            "number": 11,
            "ticks": 14950,
            "time": 137.4079416666667,
            "value": 0.7795275590551181
          },
          {
            "number": 11,
            "ticks": 15071,
            "time": 138.52007283333336,
            "value": 0.7559055118110236
          },
          {
            "number": 11,
            "ticks": 15074,
            "time": 138.54764633333335,
            "value": 0.7244094488188977
          },
          {
            "number": 11,
            "ticks": 15078,
            "time": 138.58441100000002,
            "value": 0.6850393700787402
          },
          {
            "number": 11,
            "ticks": 15081,
            "time": 138.6119845,
            "value": 0.6456692913385826
          },
          {
            "number": 11,
            "ticks": 15085,
            "time": 138.64874916666668,
            "value": 0.6062992125984252
          },
          {
            "number": 11,
            "ticks": 15088,
            "time": 138.6763226666667,
            "value": 0.5748031496062992
          },
          {
            "number": 11,
            "ticks": 15092,
            "time": 138.71308733333333,
            "value": 0.5354330708661418
          },
          {
            "number": 11,
            "ticks": 15095,
            "time": 138.74066083333335,
            "value": 0.49606299212598426
          },
          {
            "number": 11,
            "ticks": 15099,
            "time": 138.7774255,
            "value": 0.4566929133858268
          },
          {
            "number": 11,
            "ticks": 15119,
            "time": 138.96124883333334,
            "value": 0.7795275590551181
          },
          {
            "number": 11,
            "ticks": 15382,
            "time": 141.3785256666667,
            "value": 0.7795275590551181
          },
          {
            "number": 11,
            "ticks": 16271,
            "time": 149.54947283333334,
            "value": 0.6456692913385826
          },
          {
            "number": 11,
            "ticks": 16273,
            "time": 149.56785516666667,
            "value": 0.6141732283464567
          },
          {
            "number": 11,
            "ticks": 16275,
            "time": 149.5862375,
            "value": 0.5748031496062992
          },
          {
            "number": 11,
            "ticks": 16277,
            "time": 149.60461983333335,
            "value": 0.5433070866141733
          },
          {
            "number": 11,
            "ticks": 16280,
            "time": 149.63219333333333,
            "value": 0.5039370078740157
          },
          {
            "number": 11,
            "ticks": 16282,
            "time": 149.6505756666667,
            "value": 0.47244094488188976
          },
          {
            "number": 11,
            "ticks": 16284,
            "time": 149.668958,
            "value": 0.4330708661417323
          },
          {
            "number": 11,
            "ticks": 16286,
            "time": 149.68734033333334,
            "value": 0.3937007874015748
          },
          {
            "number": 11,
            "ticks": 16294,
            "time": 149.76086966666668,
            "value": 0.7795275590551181
          },
          {
            "number": 11,
            "ticks": 16607,
            "time": 152.63770483333334,
            "value": 0.6456692913385826
          },
          {
            "number": 11,
            "ticks": 16609,
            "time": 152.65608716666668,
            "value": 0.6141732283464567
          },
          {
            "number": 11,
            "ticks": 16611,
            "time": 152.67446950000001,
            "value": 0.5748031496062992
          },
          {
            "number": 11,
            "ticks": 16613,
            "time": 152.69285183333335,
            "value": 0.5433070866141733
          },
          {
            "number": 11,
            "ticks": 16616,
            "time": 152.72042533333334,
            "value": 0.5039370078740157
          },
          {
            "number": 11,
            "ticks": 16618,
            "time": 152.73880766666667,
            "value": 0.47244094488188976
          },
          {
            "number": 11,
            "ticks": 16620,
            "time": 152.75719,
            "value": 0.4330708661417323
          },
          {
            "number": 11,
            "ticks": 16622,
            "time": 152.77557233333334,
            "value": 0.3937007874015748
          },
          {
            "number": 11,
            "ticks": 16654,
            "time": 153.06968966666668,
            "value": 0.7795275590551181
          },
          {
            "number": 11,
            "ticks": 16892,
            "time": 155.25718733333335,
            "value": 0.7165354330708661
          },
          {
            "number": 11,
            "ticks": 16894,
            "time": 155.27556966666668,
            "value": 0.6850393700787402
          },
          {
            "number": 11,
            "ticks": 16896,
            "time": 155.293952,
            "value": 0.6456692913385826
          },
          {
            "number": 11,
            "ticks": 16898,
            "time": 155.31233433333335,
            "value": 0.6141732283464567
          },
          {
            "number": 11,
            "ticks": 16900,
            "time": 155.3307166666667,
            "value": 0.5748031496062992
          },
          {
            "number": 11,
            "ticks": 16916,
            "time": 155.47777533333334,
            "value": 0.7795275590551181
          },
          {
            "number": 11,
            "ticks": 17346,
            "time": 159.429977,
            "value": 0.7244094488188977
          },
          {
            "number": 11,
            "ticks": 17348,
            "time": 159.44835933333334,
            "value": 0.6850393700787402
          },
          {
            "number": 11,
            "ticks": 17350,
            "time": 159.46674166666668,
            "value": 0.6456692913385826
          },
          {
            "number": 11,
            "ticks": 17352,
            "time": 159.485124,
            "value": 0.6062992125984252
          },
          {
            "number": 11,
            "ticks": 17375,
            "time": 159.69652083333335,
            "value": 0.7795275590551181
          },
          {
            "number": 11,
            "ticks": 17468,
            "time": 160.55129933333333,
            "value": 0.7401574803149606
          },
          {
            "number": 11,
            "ticks": 17470,
            "time": 160.5696816666667,
            "value": 0.7244094488188977
          },
          {
            "number": 11,
            "ticks": 17472,
            "time": 160.588064,
            "value": 0.7007874015748031
          },
          {
            "number": 11,
            "ticks": 17474,
            "time": 160.60644633333334,
            "value": 0.6850393700787402
          },
          {
            "number": 11,
            "ticks": 17476,
            "time": 160.6248286666667,
            "value": 0.6614173228346457
          },
          {
            "number": 11,
            "ticks": 17478,
            "time": 160.643211,
            "value": 0.6377952755905512
          },
          {
            "number": 11,
            "ticks": 17494,
            "time": 160.7902696666667,
            "value": 0.7795275590551181
          },
          {
            "number": 11,
            "ticks": 18428,
            "time": 169.37481933333333,
            "value": 0.7165354330708661
          },
          {
            "number": 11,
            "ticks": 18430,
            "time": 169.3932016666667,
            "value": 0.6850393700787402
          },
          {
            "number": 11,
            "ticks": 18432,
            "time": 169.411584,
            "value": 0.6456692913385826
          },
          {
            "number": 11,
            "ticks": 18434,
            "time": 169.42996633333334,
            "value": 0.6141732283464567
          },
          {
            "number": 11,
            "ticks": 18452,
            "time": 169.59540733333336,
            "value": 0.7795275590551181
          },
          {
            "number": 11,
            "ticks": 18527,
            "time": 170.28474483333335,
            "value": 0.7559055118110236
          },
          {
            "number": 11,
            "ticks": 18529,
            "time": 170.30312716666668,
            "value": 0.7244094488188977
          },
          {
            "number": 11,
            "ticks": 18532,
            "time": 170.3307006666667,
            "value": 0.6850393700787402
          },
          {
            "number": 11,
            "ticks": 18535,
            "time": 170.3582741666667,
            "value": 0.6535433070866141
          },
          {
            "number": 11,
            "ticks": 18537,
            "time": 170.3766565,
            "value": 0.6141732283464567
          },
          {
            "number": 11,
            "ticks": 18540,
            "time": 170.40423,
            "value": 0.5748031496062992
          },
          {
            "number": 11,
            "ticks": 18543,
            "time": 170.4318035,
            "value": 0.5433070866141733
          },
          {
            "number": 11,
            "ticks": 18545,
            "time": 170.45018583333334,
            "value": 0.5039370078740157
          },
          {
            "number": 11,
            "ticks": 18548,
            "time": 170.47775933333335,
            "value": 0.4645669291338583
          },
          {
            "number": 11,
            "ticks": 18551,
            "time": 170.50533283333334,
            "value": 0.4330708661417323
          },
          {
            "number": 11,
            "ticks": 18553,
            "time": 170.52371516666668,
            "value": 0.3937007874015748
          },
          {
            "number": 11,
            "ticks": 18556,
            "time": 170.5512886666667,
            "value": 0.3543307086614173
          },
          {
            "number": 11,
            "ticks": 18574,
            "time": 170.71672966666668,
            "value": 0.7795275590551181
          },
          {
            "number": 11,
            "ticks": 19094,
            "time": 175.49613633333334,
            "value": 0.7244094488188977
          },
          {
            "number": 11,
            "ticks": 19096,
            "time": 175.51451866666667,
            "value": 0.6850393700787402
          },
          {
            "number": 11,
            "ticks": 19098,
            "time": 175.532901,
            "value": 0.6456692913385826
          },
          {
            "number": 11,
            "ticks": 19100,
            "time": 175.55128333333334,
            "value": 0.6062992125984252
          },
          {
            "number": 11,
            "ticks": 19103,
            "time": 175.57885683333333,
            "value": 0.7795275590551181
          },
          {
            "number": 11,
            "ticks": 19679,
            "time": 180.87296883333335,
            "value": 0.6456692913385826
          },
          {
            "number": 11,
            "ticks": 19681,
            "time": 180.89135116666668,
            "value": 0.6141732283464567
          },
          {
            "number": 11,
            "ticks": 19683,
            "time": 180.90973350000002,
            "value": 0.5748031496062992
          },
          {
            "number": 11,
            "ticks": 19685,
            "time": 180.92811583333335,
            "value": 0.5433070866141733
          },
          {
            "number": 11,
            "ticks": 19688,
            "time": 180.95568933333334,
            "value": 0.5039370078740157
          },
          {
            "number": 11,
            "ticks": 19690,
            "time": 180.97407166666667,
            "value": 0.47244094488188976
          },
          {
            "number": 11,
            "ticks": 19692,
            "time": 180.992454,
            "value": 0.4330708661417323
          },
          {
            "number": 11,
            "ticks": 19694,
            "time": 181.01083633333334,
            "value": 0.3937007874015748
          },
          {
            "number": 11,
            "ticks": 19726,
            "time": 181.30495366666668,
            "value": 0.7795275590551181
          },
          {
            "number": 11,
            "ticks": 19964,
            "time": 183.49245133333335,
            "value": 0.7165354330708661
          },
          {
            "number": 11,
            "ticks": 19966,
            "time": 183.51083366666668,
            "value": 0.6850393700787402
          },
          {
            "number": 11,
            "ticks": 19968,
            "time": 183.529216,
            "value": 0.6456692913385826
          },
          {
            "number": 11,
            "ticks": 19970,
            "time": 183.54759833333335,
            "value": 0.6141732283464567
          },
          {
            "number": 11,
            "ticks": 19972,
            "time": 183.5659806666667,
            "value": 0.5748031496062992
          },
          {
            "number": 11,
            "ticks": 19988,
            "time": 183.71303933333334,
            "value": 0.7795275590551181
          },
          {
            "number": 11,
            "ticks": 20418,
            "time": 187.665241,
            "value": 0.7244094488188977
          },
          {
            "number": 11,
            "ticks": 20420,
            "time": 187.68362333333334,
            "value": 0.6850393700787402
          },
          {
            "number": 11,
            "ticks": 20422,
            "time": 187.70200566666668,
            "value": 0.6456692913385826
          },
          {
            "number": 11,
            "ticks": 20424,
            "time": 187.720388,
            "value": 0.6062992125984252
          },
          {
            "number": 11,
            "ticks": 20447,
            "time": 187.93178483333335,
            "value": 0.7795275590551181
          },
          {
            "number": 11,
            "ticks": 20540,
            "time": 188.78656333333333,
            "value": 0.7401574803149606
          },
          {
            "number": 11,
            "ticks": 20542,
            "time": 188.8049456666667,
            "value": 0.7244094488188977
          },
          {
            "number": 11,
            "ticks": 20544,
            "time": 188.823328,
            "value": 0.7007874015748031
          },
          {
            "number": 11,
            "ticks": 20546,
            "time": 188.84171033333334,
            "value": 0.6850393700787402
          },
          {
            "number": 11,
            "ticks": 20548,
            "time": 188.8600926666667,
            "value": 0.6614173228346457
          },
          {
            "number": 11,
            "ticks": 20550,
            "time": 188.878475,
            "value": 0.6377952755905512
          },
          {
            "number": 11,
            "ticks": 20566,
            "time": 189.0255336666667,
            "value": 0.7795275590551181
          },
          {
            "number": 11,
            "ticks": 21308,
            "time": 195.84537933333334,
            "value": 0.7401574803149606
          },
          {
            "number": 11,
            "ticks": 21310,
            "time": 195.86376166666668,
            "value": 0.7244094488188977
          },
          {
            "number": 11,
            "ticks": 21312,
            "time": 195.882144,
            "value": 0.7007874015748031
          },
          {
            "number": 11,
            "ticks": 21314,
            "time": 195.90052633333335,
            "value": 0.6850393700787402
          },
          {
            "number": 11,
            "ticks": 21316,
            "time": 195.91890866666668,
            "value": 0.6614173228346457
          },
          {
            "number": 11,
            "ticks": 21318,
            "time": 195.93729100000002,
            "value": 0.6377952755905512
          },
          {
            "number": 11,
            "ticks": 21334,
            "time": 196.0843496666667,
            "value": 0.7795275590551181
          },
          {
            "number": 11,
            "ticks": 21815,
            "time": 200.50530083333334,
            "value": 0.7637795275590551
          },
          {
            "number": 11,
            "ticks": 21817,
            "time": 200.5236831666667,
            "value": 0.7401574803149606
          },
          {
            "number": 11,
            "ticks": 21819,
            "time": 200.5420655,
            "value": 0.7086614173228346
          },
          {
            "number": 11,
            "ticks": 21821,
            "time": 200.56044783333334,
            "value": 0.6771653543307087
          },
          {
            "number": 11,
            "ticks": 21823,
            "time": 200.57883016666668,
            "value": 0.6456692913385826
          },
          {
            "number": 11,
            "ticks": 21825,
            "time": 200.5972125,
            "value": 0.6141732283464567
          },
          {
            "number": 11,
            "ticks": 21827,
            "time": 200.61559483333335,
            "value": 0.5826771653543307
          },
          {
            "number": 11,
            "ticks": 21829,
            "time": 200.63397716666668,
            "value": 0.5511811023622047
          },
          {
            "number": 11,
            "ticks": 21831,
            "time": 200.65235950000002,
            "value": 0.5196850393700787
          },
          {
            "number": 11,
            "ticks": 21833,
            "time": 200.67074183333335,
            "value": 0.49606299212598426
          },
          {
            "number": 11,
            "ticks": 21835,
            "time": 200.6891241666667,
            "value": 0.4645669291338583
          },
          {
            "number": 11,
            "ticks": 21837,
            "time": 200.7075065,
            "value": 0.4330708661417323
          },
          {
            "number": 11,
            "ticks": 21839,
            "time": 200.72588883333336,
            "value": 0.4015748031496063
          },
          {
            "number": 11,
            "ticks": 21841,
            "time": 200.7442711666667,
            "value": 0.3700787401574803
          },
          {
            "number": 11,
            "ticks": 21843,
            "time": 200.7626535,
            "value": 0.33858267716535434
          },
          {
            "number": 11,
            "ticks": 21845,
            "time": 200.78103583333333,
            "value": 0.30708661417322836
          },
          {
            "number": 11,
            "ticks": 21847,
            "time": 200.7994181666667,
            "value": 0.2755905511811024
          },
          {
            "number": 11,
            "ticks": 21849,
            "time": 200.8178005,
            "value": 0.2440944881889764
          },
          {
            "number": 11,
            "ticks": 21863,
            "time": 200.94647683333335,
            "value": 0.7795275590551181
          },
          {
            "number": 11,
            "ticks": 21983,
            "time": 202.04941683333334,
            "value": 0.7559055118110236
          },
          {
            "number": 11,
            "ticks": 21986,
            "time": 202.07699033333336,
            "value": 0.7244094488188977
          },
          {
            "number": 11,
            "ticks": 21990,
            "time": 202.113755,
            "value": 0.6850393700787402
          },
          {
            "number": 11,
            "ticks": 21993,
            "time": 202.14132850000001,
            "value": 0.6456692913385826
          },
          {
            "number": 11,
            "ticks": 21997,
            "time": 202.17809316666668,
            "value": 0.6062992125984252
          },
          {
            "number": 11,
            "ticks": 22000,
            "time": 202.2056666666667,
            "value": 0.5748031496062992
          },
          {
            "number": 11,
            "ticks": 22004,
            "time": 202.24243133333334,
            "value": 0.5354330708661418
          },
          {
            "number": 11,
            "ticks": 22007,
            "time": 202.27000483333336,
            "value": 0.49606299212598426
          },
          {
            "number": 11,
            "ticks": 22011,
            "time": 202.3067695,
            "value": 0.4566929133858268
          },
          {
            "number": 11,
            "ticks": 22031,
            "time": 202.49059283333335,
            "value": 0.7795275590551181
          },
          {
            "number": 11,
            "ticks": 22276,
            "time": 204.74242866666668,
            "value": 0.7559055118110236
          },
          {
            "number": 11,
            "ticks": 22278,
            "time": 204.76081100000002,
            "value": 0.7244094488188977
          },
          {
            "number": 11,
            "ticks": 22280,
            "time": 204.77919333333335,
            "value": 0.6929133858267716
          },
          {
            "number": 11,
            "ticks": 22282,
            "time": 204.7975756666667,
            "value": 0.6614173228346457
          },
          {
            "number": 11,
            "ticks": 22284,
            "time": 204.815958,
            "value": 0.6299212598425197
          },
          {
            "number": 11,
            "ticks": 22286,
            "time": 204.83434033333336,
            "value": 0.5905511811023622
          },
          {
            "number": 11,
            "ticks": 22295,
            "time": 204.91706083333335,
            "value": 0.7795275590551181
          }
        ],
        "71": [
          {
            "number": 71,
            "ticks": 178,
            "time": 1.6360276666666669,
            "value": 0.5039370078740157
          }
        ],
        "74": [
          {
            "number": 74,
            "ticks": 177,
            "time": 1.6268365,
            "value": 0.5039370078740157
          }
        ],
        "91": [
          {
            "number": 91,
            "ticks": 174,
            "time": 1.599263,
            "value": 0.3464566929133858
          }
        ],
        "93": [
          {
            "number": 93,
            "ticks": 175,
            "time": 1.6084541666666667,
            "value": 0.2204724409448819
          }
        ],
        "94": [
          {
            "number": 94,
            "ticks": 176,
            "time": 1.6176453333333334,
            "value": 0
          }
        ],
        "100": [
          {
            "number": 100,
            "ticks": 180,
            "time": 1.65441,
            "value": 0
          }
        ],
        "101": [
          {
            "number": 101,
            "ticks": 179,
            "time": 1.6452188333333333,
            "value": 0
          }
        ]
      },
      "pitchBends": [
        {
          "ticks": 190,
          "time": 1.7463216666666668,
          "value": 0
        },
        {
          "ticks": 1199,
          "time": 11.020208833333335,
          "value": -0.16650390625
        },
        {
          "ticks": 1201,
          "time": 11.038591166666667,
          "value": -0.13525390625
        },
        {
          "ticks": 1203,
          "time": 11.056973500000002,
          "value": -0.101318359375
        },
        {
          "ticks": 1205,
          "time": 11.075355833333333,
          "value": -0.0672607421875
        },
        {
          "ticks": 1207,
          "time": 11.093738166666668,
          "value": -0.033203125
        },
        {
          "ticks": 1209,
          "time": 11.1121205,
          "value": 0
        },
        {
          "ticks": 1247,
          "time": 11.461384833333334,
          "value": -0.04296875
        },
        {
          "ticks": 1249,
          "time": 11.479767166666669,
          "value": -0.0904541015625
        },
        {
          "ticks": 1252,
          "time": 11.507340666666668,
          "value": -0.137939453125
        },
        {
          "ticks": 1254,
          "time": 11.525723,
          "value": -0.185546875
        },
        {
          "ticks": 1257,
          "time": 11.553296499999998,
          "value": -0.2330322265625
        },
        {
          "ticks": 1259,
          "time": 11.571678833333333,
          "value": -0.280517578125
        },
        {
          "ticks": 1262,
          "time": 11.599252333333332,
          "value": -0.328125
        },
        {
          "ticks": 1293,
          "time": 11.8841785,
          "value": 0
        },
        {
          "ticks": 1319,
          "time": 12.123148833333335,
          "value": -0.16650390625
        },
        {
          "ticks": 1325,
          "time": 12.178295833333333,
          "value": -0.10791015625
        },
        {
          "ticks": 1327,
          "time": 12.196678166666668,
          "value": -0.053955078125
        },
        {
          "ticks": 1330,
          "time": 12.224251666666667,
          "value": 0
        },
        {
          "ticks": 1583,
          "time": 14.549616833333335,
          "value": -0.083251953125
        },
        {
          "ticks": 1585,
          "time": 14.567999166666667,
          "value": -0.063720703125
        },
        {
          "ticks": 1587,
          "time": 14.586381500000002,
          "value": -0.051025390625
        },
        {
          "ticks": 1589,
          "time": 14.604763833333333,
          "value": -0.038330078125
        },
        {
          "ticks": 1591,
          "time": 14.623146166666668,
          "value": -0.0255126953125
        },
        {
          "ticks": 1593,
          "time": 14.6415285,
          "value": -0.0128173828125
        },
        {
          "ticks": 1595,
          "time": 14.659910833333335,
          "value": 0
        },
        {
          "ticks": 1679,
          "time": 15.431968833333332,
          "value": -0.16650390625
        },
        {
          "ticks": 1683,
          "time": 15.468733499999999,
          "value": -0.10791015625
        },
        {
          "ticks": 1686,
          "time": 15.496307000000002,
          "value": -0.053955078125
        },
        {
          "ticks": 1689,
          "time": 15.5238805,
          "value": 0
        },
        {
          "ticks": 1751,
          "time": 16.093732833333334,
          "value": -0.16650390625
        },
        {
          "ticks": 1755,
          "time": 16.1304975,
          "value": -0.10791015625
        },
        {
          "ticks": 1758,
          "time": 16.158071000000003,
          "value": -0.053955078125
        },
        {
          "ticks": 1761,
          "time": 16.185644500000002,
          "value": 0
        },
        {
          "ticks": 1847,
          "time": 16.976084833333335,
          "value": -0.16650390625
        },
        {
          "ticks": 1855,
          "time": 17.049614166666665,
          "value": -0.10791015625
        },
        {
          "ticks": 1858,
          "time": 17.077187666666667,
          "value": -0.053955078125
        },
        {
          "ticks": 1861,
          "time": 17.104761166666666,
          "value": 0
        },
        {
          "ticks": 1986,
          "time": 18.253657000000004,
          "value": -0.083251953125
        },
        {
          "ticks": 1987,
          "time": 18.262848166666668,
          "value": -0.16650390625
        },
        {
          "ticks": 1989,
          "time": 18.281230500000003,
          "value": -0.249755859375
        },
        {
          "ticks": 1990,
          "time": 18.290421666666667,
          "value": -0.3330078125
        },
        {
          "ticks": 1991,
          "time": 18.299612833333335,
          "value": -0.416259765625
        },
        {
          "ticks": 1992,
          "time": 18.308804000000002,
          "value": -0.582763671875
        },
        {
          "ticks": 2014,
          "time": 18.511009666666666,
          "value": 0
        },
        {
          "ticks": 2135,
          "time": 19.623140833333334,
          "value": -0.083251953125
        },
        {
          "ticks": 2141,
          "time": 19.678287833333336,
          "value": -0.063720703125
        },
        {
          "ticks": 2144,
          "time": 19.705861333333335,
          "value": -0.051025390625
        },
        {
          "ticks": 2147,
          "time": 19.733434833333334,
          "value": -0.038330078125
        },
        {
          "ticks": 2150,
          "time": 19.761008333333336,
          "value": -0.0255126953125
        },
        {
          "ticks": 2153,
          "time": 19.788581833333335,
          "value": -0.0128173828125
        },
        {
          "ticks": 2156,
          "time": 19.816155333333334,
          "value": 0
        },
        {
          "ticks": 2327,
          "time": 21.387844833333336,
          "value": 0.083251953125
        },
        {
          "ticks": 2349,
          "time": 21.590050500000004,
          "value": 0
        },
        {
          "ticks": 2782,
          "time": 25.569825666666667,
          "value": -0.16650390625
        },
        {
          "ticks": 2786,
          "time": 25.606590333333337,
          "value": -0.10791015625
        },
        {
          "ticks": 2788,
          "time": 25.624972666666668,
          "value": -0.053955078125
        },
        {
          "ticks": 2790,
          "time": 25.643355000000003,
          "value": 0
        },
        {
          "ticks": 2834,
          "time": 26.047766333333335,
          "value": -0.0269775390625
        },
        {
          "ticks": 2836,
          "time": 26.066148666666667,
          "value": -0.053955078125
        },
        {
          "ticks": 2838,
          "time": 26.084531000000002,
          "value": -0.0269775390625
        },
        {
          "ticks": 2840,
          "time": 26.102913333333333,
          "value": 0
        },
        {
          "ticks": 2974,
          "time": 27.33452966666667,
          "value": -0.16650390625
        },
        {
          "ticks": 2978,
          "time": 27.371294333333335,
          "value": -0.10791015625
        },
        {
          "ticks": 2981,
          "time": 27.398867833333334,
          "value": -0.053955078125
        },
        {
          "ticks": 2984,
          "time": 27.426441333333337,
          "value": 0
        },
        {
          "ticks": 3046,
          "time": 27.996293666666666,
          "value": -0.16650390625
        },
        {
          "ticks": 3070,
          "time": 28.216881666666666,
          "value": 0
        },
        {
          "ticks": 3119,
          "time": 28.667248833333336,
          "value": -0.083251953125
        },
        {
          "ticks": 3141,
          "time": 28.869454500000003,
          "value": -0.053955078125
        },
        {
          "ticks": 3143,
          "time": 28.887836833333335,
          "value": -0.0269775390625
        },
        {
          "ticks": 3145,
          "time": 28.906219166666666,
          "value": 0
        },
        {
          "ticks": 3235,
          "time": 29.733424166666666,
          "value": 0.3330078125
        },
        {
          "ticks": 3239,
          "time": 29.770188833333336,
          "value": 0
        },
        {
          "ticks": 3293,
          "time": 30.266511833333336,
          "value": 0.16650390625
        },
        {
          "ticks": 3311,
          "time": 30.431952833333334,
          "value": 0
        },
        {
          "ticks": 3550,
          "time": 32.62864166666667,
          "value": -0.16650390625
        },
        {
          "ticks": 3554,
          "time": 32.66540633333334,
          "value": -0.10791015625
        },
        {
          "ticks": 3556,
          "time": 32.68378866666667,
          "value": -0.053955078125
        },
        {
          "ticks": 3558,
          "time": 32.702171,
          "value": 0
        },
        {
          "ticks": 3598,
          "time": 33.069817666666665,
          "value": -0.083251953125
        },
        {
          "ticks": 3602,
          "time": 33.106582333333336,
          "value": -0.053955078125
        },
        {
          "ticks": 3604,
          "time": 33.12496466666667,
          "value": -0.0269775390625
        },
        {
          "ticks": 3606,
          "time": 33.143347,
          "value": 0
        },
        {
          "ticks": 3742,
          "time": 34.39334566666667,
          "value": -0.16650390625
        },
        {
          "ticks": 3746,
          "time": 34.43011033333334,
          "value": -0.10791015625
        },
        {
          "ticks": 3749,
          "time": 34.457683833333334,
          "value": -0.053955078125
        },
        {
          "ticks": 3752,
          "time": 34.48525733333334,
          "value": 0
        },
        {
          "ticks": 3814,
          "time": 35.055109666666674,
          "value": -0.16650390625
        },
        {
          "ticks": 3839,
          "time": 35.28488883333333,
          "value": 0
        },
        {
          "ticks": 3887,
          "time": 35.72606483333333,
          "value": -0.1248779296875
        },
        {
          "ticks": 3889,
          "time": 35.74444716666667,
          "value": -0.0809326171875
        },
        {
          "ticks": 3891,
          "time": 35.7628295,
          "value": -0.0404052734375
        },
        {
          "ticks": 3893,
          "time": 35.78121183333334,
          "value": 0
        },
        {
          "ticks": 4126,
          "time": 37.92275366666667,
          "value": -0.083251953125
        },
        {
          "ticks": 4130,
          "time": 37.959518333333335,
          "value": -0.053955078125
        },
        {
          "ticks": 4132,
          "time": 37.97790066666667,
          "value": -0.0269775390625
        },
        {
          "ticks": 4134,
          "time": 37.996283,
          "value": 0
        },
        {
          "ticks": 4174,
          "time": 38.36392966666667,
          "value": -0.083251953125
        },
        {
          "ticks": 4178,
          "time": 38.400694333333334,
          "value": -0.053955078125
        },
        {
          "ticks": 4180,
          "time": 38.41907666666667,
          "value": -0.0269775390625
        },
        {
          "ticks": 4182,
          "time": 38.437459,
          "value": 0
        },
        {
          "ticks": 4919,
          "time": 45.21134883333333,
          "value": -0.083251953125
        },
        {
          "ticks": 4921,
          "time": 45.229731166666674,
          "value": -0.053955078125
        },
        {
          "ticks": 4924,
          "time": 45.25730466666667,
          "value": -0.0269775390625
        },
        {
          "ticks": 4927,
          "time": 45.28487816666667,
          "value": 0
        },
        {
          "ticks": 5447,
          "time": 50.06428483333334,
          "value": -0.582763671875
        },
        {
          "ticks": 5471,
          "time": 50.28487283333334,
          "value": 0
        },
        {
          "ticks": 5591,
          "time": 51.387812833333335,
          "value": -0.1248779296875
        },
        {
          "ticks": 5594,
          "time": 51.41538633333334,
          "value": -0.0809326171875
        },
        {
          "ticks": 5597,
          "time": 51.44295983333333,
          "value": -0.0404052734375
        },
        {
          "ticks": 5600,
          "time": 51.470533333333336,
          "value": 0
        },
        {
          "ticks": 5687,
          "time": 52.27016483333333,
          "value": -0.16650390625
        },
        {
          "ticks": 5710,
          "time": 52.48156166666667,
          "value": 0
        },
        {
          "ticks": 6070,
          "time": 55.79038166666667,
          "value": -0.16650390625
        },
        {
          "ticks": 6074,
          "time": 55.82714633333334,
          "value": -0.10791015625
        },
        {
          "ticks": 6077,
          "time": 55.854719833333334,
          "value": -0.053955078125
        },
        {
          "ticks": 6080,
          "time": 55.88229333333334,
          "value": 0
        },
        {
          "ticks": 6262,
          "time": 57.55508566666667,
          "value": -0.16650390625
        },
        {
          "ticks": 6266,
          "time": 57.59185033333333,
          "value": -0.10791015625
        },
        {
          "ticks": 6269,
          "time": 57.619423833333336,
          "value": -0.053955078125
        },
        {
          "ticks": 6272,
          "time": 57.64699733333334,
          "value": 0
        },
        {
          "ticks": 6359,
          "time": 58.446628833333335,
          "value": -0.16650390625
        },
        {
          "ticks": 6364,
          "time": 58.492584666666666,
          "value": -0.10791015625
        },
        {
          "ticks": 6367,
          "time": 58.52015816666667,
          "value": -0.053955078125
        },
        {
          "ticks": 6370,
          "time": 58.547731666666664,
          "value": 0
        },
        {
          "ticks": 6527,
          "time": 59.99074483333334,
          "value": -0.16650390625
        },
        {
          "ticks": 6528,
          "time": 59.999936000000005,
          "value": -0.10791015625
        },
        {
          "ticks": 6529,
          "time": 60.009127166666666,
          "value": -0.053955078125
        },
        {
          "ticks": 6530,
          "time": 60.01831833333333,
          "value": 0
        },
        {
          "ticks": 6575,
          "time": 60.431920833333336,
          "value": -0.16650390625
        },
        {
          "ticks": 6577,
          "time": 60.450303166666664,
          "value": -0.13525390625
        },
        {
          "ticks": 6579,
          "time": 60.46868550000001,
          "value": -0.101318359375
        },
        {
          "ticks": 6581,
          "time": 60.487067833333334,
          "value": -0.0672607421875
        },
        {
          "ticks": 6583,
          "time": 60.50545016666666,
          "value": -0.033203125
        },
        {
          "ticks": 6585,
          "time": 60.523832500000005,
          "value": 0
        },
        {
          "ticks": 6671,
          "time": 61.314272833333334,
          "value": -0.16650390625
        },
        {
          "ticks": 6673,
          "time": 61.33265516666666,
          "value": -0.10791015625
        },
        {
          "ticks": 6675,
          "time": 61.351037500000004,
          "value": -0.053955078125
        },
        {
          "ticks": 6678,
          "time": 61.37861100000001,
          "value": 0
        },
        {
          "ticks": 6695,
          "time": 61.53486083333333,
          "value": -0.16650390625
        },
        {
          "ticks": 6701,
          "time": 61.59000783333334,
          "value": -0.10791015625
        },
        {
          "ticks": 6703,
          "time": 61.608390166666666,
          "value": -0.053955078125
        },
        {
          "ticks": 6706,
          "time": 61.63596366666666,
          "value": 0
        },
        {
          "ticks": 6743,
          "time": 61.97603683333334,
          "value": -0.16650390625
        },
        {
          "ticks": 6746,
          "time": 62.003610333333334,
          "value": -0.10791015625
        },
        {
          "ticks": 6748,
          "time": 62.02199266666666,
          "value": -0.053955078125
        },
        {
          "ticks": 6751,
          "time": 62.049566166666665,
          "value": 0
        },
        {
          "ticks": 6916,
          "time": 63.566108666666665,
          "value": -0.033203125
        },
        {
          "ticks": 6918,
          "time": 63.58449100000001,
          "value": -0.10791015625
        },
        {
          "ticks": 6920,
          "time": 63.602873333333335,
          "value": -0.1826171875
        },
        {
          "ticks": 6922,
          "time": 63.62125566666666,
          "value": -0.25732421875
        },
        {
          "ticks": 6924,
          "time": 63.639638000000005,
          "value": -0.3330078125
        },
        {
          "ticks": 6935,
          "time": 63.740740833333334,
          "value": 0
        },
        {
          "ticks": 6959,
          "time": 63.96132883333333,
          "value": -0.083251953125
        },
        {
          "ticks": 6961,
          "time": 63.97971116666667,
          "value": -0.063720703125
        },
        {
          "ticks": 6963,
          "time": 63.99809350000001,
          "value": -0.051025390625
        },
        {
          "ticks": 6965,
          "time": 64.01647583333333,
          "value": -0.038330078125
        },
        {
          "ticks": 6967,
          "time": 64.03485816666667,
          "value": -0.0255126953125
        },
        {
          "ticks": 6969,
          "time": 64.0532405,
          "value": -0.0128173828125
        },
        {
          "ticks": 6971,
          "time": 64.07162283333334,
          "value": 0
        },
        {
          "ticks": 7055,
          "time": 64.84368083333334,
          "value": -0.16650390625
        },
        {
          "ticks": 7059,
          "time": 64.88044550000001,
          "value": -0.10791015625
        },
        {
          "ticks": 7062,
          "time": 64.90801900000001,
          "value": -0.053955078125
        },
        {
          "ticks": 7065,
          "time": 64.9355925,
          "value": 0
        },
        {
          "ticks": 7127,
          "time": 65.50544483333333,
          "value": -0.16650390625
        },
        {
          "ticks": 7131,
          "time": 65.5422095,
          "value": -0.10791015625
        },
        {
          "ticks": 7134,
          "time": 65.569783,
          "value": -0.053955078125
        },
        {
          "ticks": 7137,
          "time": 65.5973565,
          "value": 0
        },
        {
          "ticks": 7223,
          "time": 66.38779683333333,
          "value": -0.16650390625
        },
        {
          "ticks": 7226,
          "time": 66.41537033333333,
          "value": -0.10791015625
        },
        {
          "ticks": 7229,
          "time": 66.44294383333333,
          "value": -0.053955078125
        },
        {
          "ticks": 7232,
          "time": 66.47051733333333,
          "value": 0
        },
        {
          "ticks": 7535,
          "time": 69.25544083333332,
          "value": -0.16650390625
        },
        {
          "ticks": 7537,
          "time": 69.27382316666666,
          "value": -0.10791015625
        },
        {
          "ticks": 7539,
          "time": 69.2922055,
          "value": -0.053955078125
        },
        {
          "ticks": 7542,
          "time": 69.319779,
          "value": 0
        },
        {
          "ticks": 7655,
          "time": 70.35838083333333,
          "value": -0.16650390625
        },
        {
          "ticks": 7658,
          "time": 70.38595433333333,
          "value": -0.10791015625
        },
        {
          "ticks": 7661,
          "time": 70.41352783333333,
          "value": -0.053955078125
        },
        {
          "ticks": 7664,
          "time": 70.44110133333334,
          "value": 0
        },
        {
          "ticks": 7895,
          "time": 72.56426083333334,
          "value": -0.16650390625
        },
        {
          "ticks": 7917,
          "time": 72.7664665,
          "value": 0
        },
        {
          "ticks": 8111,
          "time": 74.54955283333332,
          "value": -0.16650390625
        },
        {
          "ticks": 8113,
          "time": 74.56793516666666,
          "value": -0.13525390625
        },
        {
          "ticks": 8115,
          "time": 74.5863175,
          "value": -0.101318359375
        },
        {
          "ticks": 8117,
          "time": 74.60469983333333,
          "value": -0.0672607421875
        },
        {
          "ticks": 8119,
          "time": 74.62308216666666,
          "value": -0.033203125
        },
        {
          "ticks": 8121,
          "time": 74.6414645,
          "value": 0
        },
        {
          "ticks": 8159,
          "time": 74.99072883333334,
          "value": -0.04296875
        },
        {
          "ticks": 8161,
          "time": 75.00911116666666,
          "value": -0.0904541015625
        },
        {
          "ticks": 8164,
          "time": 75.03668466666666,
          "value": -0.137939453125
        },
        {
          "ticks": 8166,
          "time": 75.055067,
          "value": -0.185546875
        },
        {
          "ticks": 8169,
          "time": 75.0826405,
          "value": -0.2330322265625
        },
        {
          "ticks": 8171,
          "time": 75.10102283333333,
          "value": -0.280517578125
        },
        {
          "ticks": 8174,
          "time": 75.12859633333333,
          "value": -0.328125
        },
        {
          "ticks": 8205,
          "time": 75.4135225,
          "value": 0
        },
        {
          "ticks": 8231,
          "time": 75.65249283333333,
          "value": -0.16650390625
        },
        {
          "ticks": 8237,
          "time": 75.70763983333333,
          "value": -0.10791015625
        },
        {
          "ticks": 8239,
          "time": 75.72602216666665,
          "value": -0.053955078125
        },
        {
          "ticks": 8242,
          "time": 75.75359566666666,
          "value": 0
        },
        {
          "ticks": 8495,
          "time": 78.07896083333333,
          "value": -0.083251953125
        },
        {
          "ticks": 8497,
          "time": 78.09734316666666,
          "value": -0.063720703125
        },
        {
          "ticks": 8499,
          "time": 78.1157255,
          "value": -0.051025390625
        },
        {
          "ticks": 8501,
          "time": 78.13410783333333,
          "value": -0.038330078125
        },
        {
          "ticks": 8503,
          "time": 78.15249016666665,
          "value": -0.0255126953125
        },
        {
          "ticks": 8505,
          "time": 78.1708725,
          "value": -0.0128173828125
        },
        {
          "ticks": 8507,
          "time": 78.18925483333332,
          "value": 0
        },
        {
          "ticks": 8591,
          "time": 78.96131283333332,
          "value": -0.16650390625
        },
        {
          "ticks": 8595,
          "time": 78.9980775,
          "value": -0.10791015625
        },
        {
          "ticks": 8598,
          "time": 79.025651,
          "value": -0.053955078125
        },
        {
          "ticks": 8601,
          "time": 79.0532245,
          "value": 0
        },
        {
          "ticks": 8663,
          "time": 79.62307683333333,
          "value": -0.16650390625
        },
        {
          "ticks": 8667,
          "time": 79.6598415,
          "value": -0.10791015625
        },
        {
          "ticks": 8670,
          "time": 79.687415,
          "value": -0.053955078125
        },
        {
          "ticks": 8673,
          "time": 79.7149885,
          "value": 0
        },
        {
          "ticks": 8759,
          "time": 80.50542883333333,
          "value": -0.16650390625
        },
        {
          "ticks": 8767,
          "time": 80.57895816666665,
          "value": -0.10791015625
        },
        {
          "ticks": 8770,
          "time": 80.60653166666665,
          "value": -0.053955078125
        },
        {
          "ticks": 8773,
          "time": 80.63410516666666,
          "value": 0
        },
        {
          "ticks": 8898,
          "time": 81.783001,
          "value": -0.083251953125
        },
        {
          "ticks": 8899,
          "time": 81.79219216666665,
          "value": -0.16650390625
        },
        {
          "ticks": 8901,
          "time": 81.8105745,
          "value": -0.249755859375
        },
        {
          "ticks": 8902,
          "time": 81.81976566666665,
          "value": -0.3330078125
        },
        {
          "ticks": 8903,
          "time": 81.82895683333334,
          "value": -0.416259765625
        },
        {
          "ticks": 8904,
          "time": 81.838148,
          "value": -0.582763671875
        },
        {
          "ticks": 8926,
          "time": 82.04035366666666,
          "value": 0
        },
        {
          "ticks": 9047,
          "time": 83.15248483333333,
          "value": -0.083251953125
        },
        {
          "ticks": 9053,
          "time": 83.20763183333332,
          "value": -0.063720703125
        },
        {
          "ticks": 9056,
          "time": 83.23520533333333,
          "value": -0.051025390625
        },
        {
          "ticks": 9059,
          "time": 83.26277883333333,
          "value": -0.038330078125
        },
        {
          "ticks": 9062,
          "time": 83.29035233333333,
          "value": -0.0255126953125
        },
        {
          "ticks": 9065,
          "time": 83.31792583333333,
          "value": -0.0128173828125
        },
        {
          "ticks": 9068,
          "time": 83.34549933333334,
          "value": 0
        },
        {
          "ticks": 9239,
          "time": 84.91718883333333,
          "value": 0.083251953125
        },
        {
          "ticks": 9261,
          "time": 85.1193945,
          "value": 0
        },
        {
          "ticks": 9694,
          "time": 89.09916966666665,
          "value": -0.16650390625
        },
        {
          "ticks": 9696,
          "time": 89.117552,
          "value": -0.10791015625
        },
        {
          "ticks": 9697,
          "time": 89.12674316666666,
          "value": -0.053955078125
        },
        {
          "ticks": 9698,
          "time": 89.13593433333332,
          "value": 0
        },
        {
          "ticks": 9746,
          "time": 89.57711033333332,
          "value": -0.0269775390625
        },
        {
          "ticks": 9748,
          "time": 89.59549266666666,
          "value": -0.053955078125
        },
        {
          "ticks": 9750,
          "time": 89.61387500000001,
          "value": -0.0269775390625
        },
        {
          "ticks": 9752,
          "time": 89.63225733333333,
          "value": 0
        },
        {
          "ticks": 9886,
          "time": 90.86387366666666,
          "value": -0.16650390625
        },
        {
          "ticks": 9890,
          "time": 90.90063833333333,
          "value": -0.10791015625
        },
        {
          "ticks": 9893,
          "time": 90.92821183333334,
          "value": -0.053955078125
        },
        {
          "ticks": 9896,
          "time": 90.95578533333332,
          "value": 0
        },
        {
          "ticks": 9958,
          "time": 91.52563766666665,
          "value": -0.16650390625
        },
        {
          "ticks": 9982,
          "time": 91.74622566666666,
          "value": 0
        },
        {
          "ticks": 10031,
          "time": 92.19659283333333,
          "value": -0.083251953125
        },
        {
          "ticks": 10049,
          "time": 92.36203383333333,
          "value": -0.053955078125
        },
        {
          "ticks": 10052,
          "time": 92.38960733333333,
          "value": -0.0269775390625
        },
        {
          "ticks": 10055,
          "time": 92.41718083333333,
          "value": 0
        },
        {
          "ticks": 10147,
          "time": 93.26276816666666,
          "value": 0.3330078125
        },
        {
          "ticks": 10151,
          "time": 93.29953283333333,
          "value": 0
        },
        {
          "ticks": 10205,
          "time": 93.79585583333333,
          "value": 0.16650390625
        },
        {
          "ticks": 10223,
          "time": 93.96129683333334,
          "value": 0
        },
        {
          "ticks": 10462,
          "time": 96.15798566666666,
          "value": -0.16650390625
        },
        {
          "ticks": 10466,
          "time": 96.19475033333333,
          "value": -0.10791015625
        },
        {
          "ticks": 10468,
          "time": 96.21313266666665,
          "value": -0.053955078125
        },
        {
          "ticks": 10470,
          "time": 96.231515,
          "value": 0
        },
        {
          "ticks": 10510,
          "time": 96.59916166666666,
          "value": -0.083251953125
        },
        {
          "ticks": 10514,
          "time": 96.63592633333333,
          "value": -0.053955078125
        },
        {
          "ticks": 10516,
          "time": 96.65430866666667,
          "value": -0.0269775390625
        },
        {
          "ticks": 10518,
          "time": 96.672691,
          "value": 0
        },
        {
          "ticks": 10654,
          "time": 97.92268966666666,
          "value": -0.16650390625
        },
        {
          "ticks": 10658,
          "time": 97.95945433333333,
          "value": -0.10791015625
        },
        {
          "ticks": 10661,
          "time": 97.98702783333333,
          "value": -0.053955078125
        },
        {
          "ticks": 10664,
          "time": 98.01460133333333,
          "value": 0
        },
        {
          "ticks": 10726,
          "time": 98.58445366666666,
          "value": -0.16650390625
        },
        {
          "ticks": 10751,
          "time": 98.81423283333334,
          "value": 0
        },
        {
          "ticks": 10799,
          "time": 99.25540883333333,
          "value": -0.083251953125
        },
        {
          "ticks": 10817,
          "time": 99.42084983333334,
          "value": -0.0545654296875
        },
        {
          "ticks": 10819,
          "time": 99.43923216666666,
          "value": -0.0404052734375
        },
        {
          "ticks": 10821,
          "time": 99.4576145,
          "value": -0.0201416015625
        },
        {
          "ticks": 10823,
          "time": 99.47599683333333,
          "value": 0
        },
        {
          "ticks": 11038,
          "time": 101.45209766666666,
          "value": -0.083251953125
        },
        {
          "ticks": 11042,
          "time": 101.48886233333333,
          "value": -0.053955078125
        },
        {
          "ticks": 11044,
          "time": 101.50724466666667,
          "value": -0.0269775390625
        },
        {
          "ticks": 11046,
          "time": 101.525627,
          "value": 0
        },
        {
          "ticks": 11086,
          "time": 101.89327366666666,
          "value": -0.083251953125
        },
        {
          "ticks": 11090,
          "time": 101.93003833333333,
          "value": -0.053955078125
        },
        {
          "ticks": 11092,
          "time": 101.94842066666666,
          "value": -0.0269775390625
        },
        {
          "ticks": 11094,
          "time": 101.966803,
          "value": 0
        },
        {
          "ticks": 11183,
          "time": 102.78481683333332,
          "value": -0.16650390625
        },
        {
          "ticks": 11186,
          "time": 102.81239033333333,
          "value": -0.10791015625
        },
        {
          "ticks": 11189,
          "time": 102.83996383333333,
          "value": -0.053955078125
        },
        {
          "ticks": 11192,
          "time": 102.86753733333333,
          "value": 0
        },
        {
          "ticks": 14518,
          "time": 133.43735766666668,
          "value": -0.16650390625
        },
        {
          "ticks": 14522,
          "time": 133.47412233333336,
          "value": -0.10791015625
        },
        {
          "ticks": 14525,
          "time": 133.50169583333334,
          "value": -0.053955078125
        },
        {
          "ticks": 14528,
          "time": 133.52926933333333,
          "value": 0
        },
        {
          "ticks": 14710,
          "time": 135.20206166666668,
          "value": -0.16650390625
        },
        {
          "ticks": 14714,
          "time": 135.23882633333335,
          "value": -0.10791015625
        },
        {
          "ticks": 14717,
          "time": 135.26639983333334,
          "value": -0.053955078125
        },
        {
          "ticks": 14720,
          "time": 135.29397333333335,
          "value": 0
        },
        {
          "ticks": 14807,
          "time": 136.09360483333336,
          "value": -0.16650390625
        },
        {
          "ticks": 14812,
          "time": 136.13956066666668,
          "value": -0.10791015625
        },
        {
          "ticks": 14815,
          "time": 136.1671341666667,
          "value": -0.053955078125
        },
        {
          "ticks": 14818,
          "time": 136.1947076666667,
          "value": 0
        },
        {
          "ticks": 14975,
          "time": 137.63772083333333,
          "value": -0.16650390625
        },
        {
          "ticks": 14976,
          "time": 137.64691200000001,
          "value": -0.10791015625
        },
        {
          "ticks": 14977,
          "time": 137.6561031666667,
          "value": -0.053955078125
        },
        {
          "ticks": 14978,
          "time": 137.66529433333335,
          "value": 0
        },
        {
          "ticks": 15023,
          "time": 138.07889683333335,
          "value": -0.16650390625
        },
        {
          "ticks": 15025,
          "time": 138.09727916666668,
          "value": -0.13525390625
        },
        {
          "ticks": 15027,
          "time": 138.11566150000002,
          "value": -0.101318359375
        },
        {
          "ticks": 15029,
          "time": 138.13404383333335,
          "value": -0.0672607421875
        },
        {
          "ticks": 15031,
          "time": 138.1524261666667,
          "value": -0.033203125
        },
        {
          "ticks": 15033,
          "time": 138.1708085,
          "value": 0
        },
        {
          "ticks": 15119,
          "time": 138.96124883333334,
          "value": -0.16650390625
        },
        {
          "ticks": 15120,
          "time": 138.97044,
          "value": -0.10791015625
        },
        {
          "ticks": 15121,
          "time": 138.97963116666668,
          "value": -0.053955078125
        },
        {
          "ticks": 15122,
          "time": 138.98882233333333,
          "value": 0
        },
        {
          "ticks": 15143,
          "time": 139.18183683333334,
          "value": -0.16650390625
        },
        {
          "ticks": 15149,
          "time": 139.23698383333334,
          "value": -0.10791015625
        },
        {
          "ticks": 15151,
          "time": 139.25536616666668,
          "value": -0.053955078125
        },
        {
          "ticks": 15154,
          "time": 139.2829396666667,
          "value": 0
        },
        {
          "ticks": 15191,
          "time": 139.62301283333335,
          "value": -0.16650390625
        },
        {
          "ticks": 15193,
          "time": 139.64139516666668,
          "value": -0.10791015625
        },
        {
          "ticks": 15194,
          "time": 139.65058633333334,
          "value": -0.053955078125
        },
        {
          "ticks": 15195,
          "time": 139.6597775,
          "value": 0
        },
        {
          "ticks": 15383,
          "time": 141.38771683333334,
          "value": 0
        },
        {
          "ticks": 15407,
          "time": 141.60830483333334,
          "value": -0.16650390625
        },
        {
          "ticks": 15416,
          "time": 141.69102533333336,
          "value": -0.12744140625
        },
        {
          "ticks": 15417,
          "time": 141.7002165,
          "value": -0.10205078125
        },
        {
          "ticks": 15418,
          "time": 141.7094076666667,
          "value": -0.07666015625
        },
        {
          "ticks": 15419,
          "time": 141.71859883333335,
          "value": -0.051025390625
        },
        {
          "ticks": 15420,
          "time": 141.72779,
          "value": -0.025634765625
        },
        {
          "ticks": 15421,
          "time": 141.73698116666668,
          "value": 0
        },
        {
          "ticks": 15503,
          "time": 142.49065683333333,
          "value": -0.16650390625
        },
        {
          "ticks": 15505,
          "time": 142.5090391666667,
          "value": -0.10791015625
        },
        {
          "ticks": 15507,
          "time": 142.5274215,
          "value": -0.053955078125
        },
        {
          "ticks": 15509,
          "time": 142.54580383333334,
          "value": 0
        },
        {
          "ticks": 15575,
          "time": 143.15242083333334,
          "value": -0.083251953125
        },
        {
          "ticks": 15578,
          "time": 143.17999433333335,
          "value": -0.053955078125
        },
        {
          "ticks": 15580,
          "time": 143.1983766666667,
          "value": -0.0269775390625
        },
        {
          "ticks": 15582,
          "time": 143.216759,
          "value": 0
        },
        {
          "ticks": 15671,
          "time": 144.03477283333334,
          "value": -0.16650390625
        },
        {
          "ticks": 15692,
          "time": 144.22778733333334,
          "value": -0.10791015625
        },
        {
          "ticks": 15693,
          "time": 144.2369785,
          "value": -0.053955078125
        },
        {
          "ticks": 15694,
          "time": 144.24616966666667,
          "value": 0
        },
        {
          "ticks": 15983,
          "time": 146.90241683333335,
          "value": -0.16650390625
        },
        {
          "ticks": 15985,
          "time": 146.92079916666668,
          "value": -0.10791015625
        },
        {
          "ticks": 15987,
          "time": 146.93918150000002,
          "value": -0.053955078125
        },
        {
          "ticks": 15990,
          "time": 146.966755,
          "value": 0
        },
        {
          "ticks": 16103,
          "time": 148.00535683333334,
          "value": -0.16650390625
        },
        {
          "ticks": 16106,
          "time": 148.03293033333335,
          "value": -0.10791015625
        },
        {
          "ticks": 16108,
          "time": 148.0513126666667,
          "value": -0.053955078125
        },
        {
          "ticks": 16110,
          "time": 148.069695,
          "value": 0
        },
        {
          "ticks": 16175,
          "time": 148.66712083333334,
          "value": -0.16650390625
        },
        {
          "ticks": 16178,
          "time": 148.69469433333336,
          "value": -0.10791015625
        },
        {
          "ticks": 16180,
          "time": 148.7130766666667,
          "value": -0.053955078125
        },
        {
          "ticks": 16182,
          "time": 148.731459,
          "value": 0
        },
        {
          "ticks": 16271,
          "time": 149.54947283333334,
          "value": -0.04296875
        },
        {
          "ticks": 16273,
          "time": 149.56785516666667,
          "value": -0.0904541015625
        },
        {
          "ticks": 16276,
          "time": 149.5954286666667,
          "value": -0.137939453125
        },
        {
          "ticks": 16278,
          "time": 149.613811,
          "value": -0.185546875
        },
        {
          "ticks": 16281,
          "time": 149.64138450000002,
          "value": -0.2330322265625
        },
        {
          "ticks": 16283,
          "time": 149.65976683333335,
          "value": -0.280517578125
        },
        {
          "ticks": 16286,
          "time": 149.68734033333334,
          "value": -0.328125
        },
        {
          "ticks": 16293,
          "time": 149.7516785,
          "value": 0
        },
        {
          "ticks": 16343,
          "time": 150.21123683333334,
          "value": -0.16650390625
        },
        {
          "ticks": 16365,
          "time": 150.4134425,
          "value": 0
        },
        {
          "ticks": 16559,
          "time": 152.19652883333333,
          "value": -0.16650390625
        },
        {
          "ticks": 16561,
          "time": 152.2149111666667,
          "value": -0.13525390625
        },
        {
          "ticks": 16563,
          "time": 152.2332935,
          "value": -0.101318359375
        },
        {
          "ticks": 16565,
          "time": 152.25167583333334,
          "value": -0.0672607421875
        },
        {
          "ticks": 16567,
          "time": 152.2700581666667,
          "value": -0.033203125
        },
        {
          "ticks": 16569,
          "time": 152.2884405,
          "value": 0
        },
        {
          "ticks": 16607,
          "time": 152.63770483333334,
          "value": -0.04296875
        },
        {
          "ticks": 16609,
          "time": 152.65608716666668,
          "value": -0.0904541015625
        },
        {
          "ticks": 16612,
          "time": 152.6836606666667,
          "value": -0.137939453125
        },
        {
          "ticks": 16614,
          "time": 152.702043,
          "value": -0.185546875
        },
        {
          "ticks": 16617,
          "time": 152.7296165,
          "value": -0.2330322265625
        },
        {
          "ticks": 16619,
          "time": 152.74799883333336,
          "value": -0.280517578125
        },
        {
          "ticks": 16622,
          "time": 152.77557233333334,
          "value": -0.328125
        },
        {
          "ticks": 16653,
          "time": 153.0604985,
          "value": 0
        },
        {
          "ticks": 16679,
          "time": 153.29946883333335,
          "value": -0.16650390625
        },
        {
          "ticks": 16685,
          "time": 153.35461583333336,
          "value": -0.10791015625
        },
        {
          "ticks": 16687,
          "time": 153.3729981666667,
          "value": -0.053955078125
        },
        {
          "ticks": 16690,
          "time": 153.40057166666668,
          "value": 0
        },
        {
          "ticks": 16943,
          "time": 155.72593683333335,
          "value": -0.083251953125
        },
        {
          "ticks": 16945,
          "time": 155.74431916666668,
          "value": -0.063720703125
        },
        {
          "ticks": 16947,
          "time": 155.7627015,
          "value": -0.051025390625
        },
        {
          "ticks": 16949,
          "time": 155.78108383333335,
          "value": -0.038330078125
        },
        {
          "ticks": 16951,
          "time": 155.7994661666667,
          "value": -0.0255126953125
        },
        {
          "ticks": 16953,
          "time": 155.8178485,
          "value": -0.0128173828125
        },
        {
          "ticks": 16955,
          "time": 155.83623083333333,
          "value": 0
        },
        {
          "ticks": 17039,
          "time": 156.60828883333335,
          "value": -0.16650390625
        },
        {
          "ticks": 17043,
          "time": 156.64505350000002,
          "value": -0.10791015625
        },
        {
          "ticks": 17046,
          "time": 156.672627,
          "value": -0.053955078125
        },
        {
          "ticks": 17049,
          "time": 156.7002005,
          "value": 0
        },
        {
          "ticks": 17111,
          "time": 157.27005283333335,
          "value": -0.16650390625
        },
        {
          "ticks": 17115,
          "time": 157.3068175,
          "value": -0.10791015625
        },
        {
          "ticks": 17118,
          "time": 157.334391,
          "value": -0.053955078125
        },
        {
          "ticks": 17121,
          "time": 157.3619645,
          "value": 0
        },
        {
          "ticks": 17207,
          "time": 158.15240483333335,
          "value": -0.16650390625
        },
        {
          "ticks": 17215,
          "time": 158.2259341666667,
          "value": -0.10791015625
        },
        {
          "ticks": 17218,
          "time": 158.25350766666668,
          "value": -0.053955078125
        },
        {
          "ticks": 17221,
          "time": 158.2810811666667,
          "value": 0
        },
        {
          "ticks": 17346,
          "time": 159.429977,
          "value": -0.083251953125
        },
        {
          "ticks": 17347,
          "time": 159.4391681666667,
          "value": -0.16650390625
        },
        {
          "ticks": 17349,
          "time": 159.4575505,
          "value": -0.249755859375
        },
        {
          "ticks": 17350,
          "time": 159.46674166666668,
          "value": -0.3330078125
        },
        {
          "ticks": 17351,
          "time": 159.47593283333336,
          "value": -0.416259765625
        },
        {
          "ticks": 17352,
          "time": 159.485124,
          "value": -0.582763671875
        },
        {
          "ticks": 17374,
          "time": 159.6873296666667,
          "value": 0
        },
        {
          "ticks": 17495,
          "time": 160.79946083333334,
          "value": -0.083251953125
        },
        {
          "ticks": 17501,
          "time": 160.85460783333335,
          "value": -0.063720703125
        },
        {
          "ticks": 17504,
          "time": 160.88218133333334,
          "value": -0.051025390625
        },
        {
          "ticks": 17507,
          "time": 160.90975483333335,
          "value": -0.038330078125
        },
        {
          "ticks": 17510,
          "time": 160.93732833333334,
          "value": -0.0255126953125
        },
        {
          "ticks": 17513,
          "time": 160.96490183333336,
          "value": -0.0128173828125
        },
        {
          "ticks": 17516,
          "time": 160.99247533333335,
          "value": 0
        },
        {
          "ticks": 17687,
          "time": 162.56416483333334,
          "value": 0.083251953125
        },
        {
          "ticks": 17709,
          "time": 162.7663705,
          "value": 0
        },
        {
          "ticks": 18047,
          "time": 165.87298483333333,
          "value": -0.16650390625
        },
        {
          "ticks": 18048,
          "time": 165.88217600000002,
          "value": -0.10791015625
        },
        {
          "ticks": 18049,
          "time": 165.8913671666667,
          "value": -0.053955078125
        },
        {
          "ticks": 18050,
          "time": 165.90055833333335,
          "value": 0
        },
        {
          "ticks": 18095,
          "time": 166.31416083333335,
          "value": -0.16650390625
        },
        {
          "ticks": 18097,
          "time": 166.33254316666668,
          "value": -0.13525390625
        },
        {
          "ticks": 18099,
          "time": 166.35092550000002,
          "value": -0.101318359375
        },
        {
          "ticks": 18101,
          "time": 166.36930783333335,
          "value": -0.0672607421875
        },
        {
          "ticks": 18103,
          "time": 166.3876901666667,
          "value": -0.033203125
        },
        {
          "ticks": 18105,
          "time": 166.4060725,
          "value": 0
        },
        {
          "ticks": 18191,
          "time": 167.19651283333334,
          "value": -0.16650390625
        },
        {
          "ticks": 18193,
          "time": 167.21489516666668,
          "value": -0.10791015625
        },
        {
          "ticks": 18195,
          "time": 167.2332775,
          "value": -0.053955078125
        },
        {
          "ticks": 18198,
          "time": 167.260851,
          "value": 0
        },
        {
          "ticks": 18215,
          "time": 167.41710083333334,
          "value": -0.16650390625
        },
        {
          "ticks": 18221,
          "time": 167.47224783333334,
          "value": -0.10791015625
        },
        {
          "ticks": 18223,
          "time": 167.49063016666668,
          "value": -0.053955078125
        },
        {
          "ticks": 18226,
          "time": 167.5182036666667,
          "value": 0
        },
        {
          "ticks": 18263,
          "time": 167.85827683333335,
          "value": -0.16650390625
        },
        {
          "ticks": 18266,
          "time": 167.88585033333334,
          "value": -0.10791015625
        },
        {
          "ticks": 18268,
          "time": 167.9042326666667,
          "value": -0.053955078125
        },
        {
          "ticks": 18271,
          "time": 167.9318061666667,
          "value": 0
        },
        {
          "ticks": 18436,
          "time": 169.44834866666667,
          "value": -0.033203125
        },
        {
          "ticks": 18438,
          "time": 169.466731,
          "value": -0.10791015625
        },
        {
          "ticks": 18440,
          "time": 169.48511333333335,
          "value": -0.1826171875
        },
        {
          "ticks": 18442,
          "time": 169.50349566666668,
          "value": -0.25732421875
        },
        {
          "ticks": 18444,
          "time": 169.52187800000002,
          "value": -0.3330078125
        },
        {
          "ticks": 18455,
          "time": 169.62298083333334,
          "value": 0
        },
        {
          "ticks": 18479,
          "time": 169.84356883333334,
          "value": -0.083251953125
        },
        {
          "ticks": 18481,
          "time": 169.8619511666667,
          "value": -0.063720703125
        },
        {
          "ticks": 18483,
          "time": 169.8803335,
          "value": -0.051025390625
        },
        {
          "ticks": 18485,
          "time": 169.89871583333334,
          "value": -0.038330078125
        },
        {
          "ticks": 18487,
          "time": 169.91709816666668,
          "value": -0.0255126953125
        },
        {
          "ticks": 18489,
          "time": 169.9354805,
          "value": -0.0128173828125
        },
        {
          "ticks": 18491,
          "time": 169.95386283333335,
          "value": 0
        },
        {
          "ticks": 18575,
          "time": 170.72592083333333,
          "value": -0.16650390625
        },
        {
          "ticks": 18579,
          "time": 170.7626855,
          "value": -0.10791015625
        },
        {
          "ticks": 18582,
          "time": 170.790259,
          "value": -0.053955078125
        },
        {
          "ticks": 18585,
          "time": 170.8178325,
          "value": 0
        },
        {
          "ticks": 18647,
          "time": 171.38768483333334,
          "value": -0.16650390625
        },
        {
          "ticks": 18651,
          "time": 171.4244495,
          "value": -0.10791015625
        },
        {
          "ticks": 18654,
          "time": 171.452023,
          "value": -0.053955078125
        },
        {
          "ticks": 18657,
          "time": 171.4795965,
          "value": 0
        },
        {
          "ticks": 18743,
          "time": 172.27003683333334,
          "value": -0.16650390625
        },
        {
          "ticks": 18746,
          "time": 172.29761033333335,
          "value": -0.10791015625
        },
        {
          "ticks": 18749,
          "time": 172.32518383333334,
          "value": -0.053955078125
        },
        {
          "ticks": 18752,
          "time": 172.35275733333336,
          "value": 0
        },
        {
          "ticks": 19055,
          "time": 175.13768083333335,
          "value": -0.16650390625
        },
        {
          "ticks": 19057,
          "time": 175.15606316666668,
          "value": -0.10791015625
        },
        {
          "ticks": 19059,
          "time": 175.17444550000002,
          "value": -0.053955078125
        },
        {
          "ticks": 19062,
          "time": 175.202019,
          "value": 0
        },
        {
          "ticks": 19094,
          "time": 175.49613633333334,
          "value": -0.083251953125
        },
        {
          "ticks": 19095,
          "time": 175.5053275,
          "value": -0.16650390625
        },
        {
          "ticks": 19097,
          "time": 175.52370983333336,
          "value": -0.249755859375
        },
        {
          "ticks": 19098,
          "time": 175.532901,
          "value": -0.3330078125
        },
        {
          "ticks": 19099,
          "time": 175.5420921666667,
          "value": -0.416259765625
        },
        {
          "ticks": 19100,
          "time": 175.55128333333334,
          "value": -0.582763671875
        },
        {
          "ticks": 19102,
          "time": 175.56966566666668,
          "value": 0
        },
        {
          "ticks": 19175,
          "time": 176.24062083333334,
          "value": -0.16650390625
        },
        {
          "ticks": 19178,
          "time": 176.26819433333335,
          "value": -0.10791015625
        },
        {
          "ticks": 19181,
          "time": 176.29576783333334,
          "value": -0.053955078125
        },
        {
          "ticks": 19184,
          "time": 176.32334133333336,
          "value": 0
        },
        {
          "ticks": 19415,
          "time": 178.44650083333335,
          "value": -0.16650390625
        },
        {
          "ticks": 19437,
          "time": 178.6487065,
          "value": 0
        },
        {
          "ticks": 19631,
          "time": 180.43179283333333,
          "value": -0.16650390625
        },
        {
          "ticks": 19633,
          "time": 180.4501751666667,
          "value": -0.13525390625
        },
        {
          "ticks": 19635,
          "time": 180.4685575,
          "value": -0.101318359375
        },
        {
          "ticks": 19637,
          "time": 180.48693983333334,
          "value": -0.0672607421875
        },
        {
          "ticks": 19639,
          "time": 180.5053221666667,
          "value": -0.033203125
        },
        {
          "ticks": 19641,
          "time": 180.5237045,
          "value": 0
        },
        {
          "ticks": 19679,
          "time": 180.87296883333335,
          "value": -0.04296875
        },
        {
          "ticks": 19681,
          "time": 180.89135116666668,
          "value": -0.0904541015625
        },
        {
          "ticks": 19684,
          "time": 180.9189246666667,
          "value": -0.137939453125
        },
        {
          "ticks": 19686,
          "time": 180.937307,
          "value": -0.185546875
        },
        {
          "ticks": 19689,
          "time": 180.9648805,
          "value": -0.2330322265625
        },
        {
          "ticks": 19691,
          "time": 180.98326283333336,
          "value": -0.280517578125
        },
        {
          "ticks": 19694,
          "time": 181.01083633333334,
          "value": -0.328125
        },
        {
          "ticks": 19725,
          "time": 181.2957625,
          "value": 0
        },
        {
          "ticks": 19751,
          "time": 181.53473283333335,
          "value": -0.16650390625
        },
        {
          "ticks": 19757,
          "time": 181.58987983333336,
          "value": -0.10791015625
        },
        {
          "ticks": 19759,
          "time": 181.6082621666667,
          "value": -0.053955078125
        },
        {
          "ticks": 19762,
          "time": 181.63583566666668,
          "value": 0
        },
        {
          "ticks": 20015,
          "time": 183.96120083333335,
          "value": -0.083251953125
        },
        {
          "ticks": 20017,
          "time": 183.97958316666669,
          "value": -0.063720703125
        },
        {
          "ticks": 20019,
          "time": 183.9979655,
          "value": -0.051025390625
        },
        {
          "ticks": 20021,
          "time": 184.01634783333336,
          "value": -0.038330078125
        },
        {
          "ticks": 20023,
          "time": 184.0347301666667,
          "value": -0.0255126953125
        },
        {
          "ticks": 20025,
          "time": 184.0531125,
          "value": -0.0128173828125
        },
        {
          "ticks": 20027,
          "time": 184.07149483333333,
          "value": 0
        },
        {
          "ticks": 20111,
          "time": 184.84355283333335,
          "value": -0.16650390625
        },
        {
          "ticks": 20115,
          "time": 184.88031750000002,
          "value": -0.10791015625
        },
        {
          "ticks": 20118,
          "time": 184.907891,
          "value": -0.053955078125
        },
        {
          "ticks": 20121,
          "time": 184.9354645,
          "value": 0
        },
        {
          "ticks": 20183,
          "time": 185.50531683333335,
          "value": -0.16650390625
        },
        {
          "ticks": 20187,
          "time": 185.5420815,
          "value": -0.10791015625
        },
        {
          "ticks": 20190,
          "time": 185.569655,
          "value": -0.053955078125
        },
        {
          "ticks": 20193,
          "time": 185.5972285,
          "value": 0
        },
        {
          "ticks": 20231,
          "time": 185.94649283333334,
          "value": -0.16650390625
        },
        {
          "ticks": 20233,
          "time": 185.9648751666667,
          "value": -0.10791015625
        },
        {
          "ticks": 20235,
          "time": 185.9832575,
          "value": -0.053955078125
        },
        {
          "ticks": 20237,
          "time": 186.00163983333334,
          "value": 0
        },
        {
          "ticks": 20279,
          "time": 186.38766883333335,
          "value": 0.083251953125
        },
        {
          "ticks": 20302,
          "time": 186.5990656666667,
          "value": 0.053955078125
        },
        {
          "ticks": 20303,
          "time": 186.60825683333334,
          "value": 0.0269775390625
        },
        {
          "ticks": 20304,
          "time": 186.617448,
          "value": 0
        },
        {
          "ticks": 20418,
          "time": 187.665241,
          "value": -0.083251953125
        },
        {
          "ticks": 20419,
          "time": 187.6744321666667,
          "value": -0.16650390625
        },
        {
          "ticks": 20421,
          "time": 187.6928145,
          "value": -0.249755859375
        },
        {
          "ticks": 20422,
          "time": 187.70200566666668,
          "value": -0.3330078125
        },
        {
          "ticks": 20423,
          "time": 187.71119683333336,
          "value": -0.416259765625
        },
        {
          "ticks": 20424,
          "time": 187.720388,
          "value": -0.582763671875
        },
        {
          "ticks": 20446,
          "time": 187.9225936666667,
          "value": 0
        },
        {
          "ticks": 20567,
          "time": 189.03472483333334,
          "value": -0.083251953125
        },
        {
          "ticks": 20573,
          "time": 189.08987183333335,
          "value": -0.063720703125
        },
        {
          "ticks": 20576,
          "time": 189.11744533333334,
          "value": -0.051025390625
        },
        {
          "ticks": 20579,
          "time": 189.14501883333335,
          "value": -0.038330078125
        },
        {
          "ticks": 20582,
          "time": 189.17259233333334,
          "value": -0.0255126953125
        },
        {
          "ticks": 20585,
          "time": 189.20016583333336,
          "value": -0.0128173828125
        },
        {
          "ticks": 20588,
          "time": 189.22773933333335,
          "value": 0
        },
        {
          "ticks": 20759,
          "time": 190.79942883333334,
          "value": 0.083251953125
        },
        {
          "ticks": 20781,
          "time": 191.0016345,
          "value": 0
        },
        {
          "ticks": 20903,
          "time": 192.12295683333335,
          "value": -0.16650390625
        },
        {
          "ticks": 20905,
          "time": 192.14133916666668,
          "value": -0.12744140625
        },
        {
          "ticks": 20907,
          "time": 192.15972150000002,
          "value": -0.10205078125
        },
        {
          "ticks": 20909,
          "time": 192.17810383333335,
          "value": -0.07666015625
        },
        {
          "ticks": 20911,
          "time": 192.1964861666667,
          "value": -0.051025390625
        },
        {
          "ticks": 20913,
          "time": 192.2148685,
          "value": -0.025634765625
        },
        {
          "ticks": 20915,
          "time": 192.23325083333336,
          "value": 0
        },
        {
          "ticks": 20939,
          "time": 192.45383883333335,
          "value": -0.16650390625
        },
        {
          "ticks": 20952,
          "time": 192.573324,
          "value": -0.12744140625
        },
        {
          "ticks": 20953,
          "time": 192.5825151666667,
          "value": -0.10205078125
        },
        {
          "ticks": 20954,
          "time": 192.59170633333335,
          "value": -0.07666015625
        },
        {
          "ticks": 20955,
          "time": 192.6008975,
          "value": -0.051025390625
        },
        {
          "ticks": 20956,
          "time": 192.61008866666668,
          "value": -0.025634765625
        },
        {
          "ticks": 20957,
          "time": 192.61927983333334,
          "value": 0
        },
        {
          "ticks": 20969,
          "time": 192.72957383333335,
          "value": -0.16650390625
        },
        {
          "ticks": 20975,
          "time": 192.78472083333335,
          "value": 0
        },
        {
          "ticks": 21335,
          "time": 196.09354083333335,
          "value": -0.083251953125
        },
        {
          "ticks": 21341,
          "time": 196.14868783333336,
          "value": -0.063720703125
        },
        {
          "ticks": 21344,
          "time": 196.17626133333334,
          "value": -0.051025390625
        },
        {
          "ticks": 21347,
          "time": 196.20383483333336,
          "value": -0.038330078125
        },
        {
          "ticks": 21350,
          "time": 196.23140833333335,
          "value": -0.0255126953125
        },
        {
          "ticks": 21353,
          "time": 196.25898183333334,
          "value": -0.0128173828125
        },
        {
          "ticks": 21356,
          "time": 196.28655533333335,
          "value": 0
        },
        {
          "ticks": 21383,
          "time": 196.53471683333333,
          "value": -0.083251953125
        },
        {
          "ticks": 21386,
          "time": 196.56229033333335,
          "value": -0.051025390625
        },
        {
          "ticks": 21388,
          "time": 196.5806726666667,
          "value": -0.0255126953125
        },
        {
          "ticks": 21390,
          "time": 196.599055,
          "value": 0
        },
        {
          "ticks": 21527,
          "time": 197.85824483333334,
          "value": 0.083251953125
        },
        {
          "ticks": 21549,
          "time": 198.0604505,
          "value": 0
        },
        {
          "ticks": 21887,
          "time": 201.16706483333334,
          "value": -0.16650390625
        },
        {
          "ticks": 21888,
          "time": 201.176256,
          "value": -0.10791015625
        },
        {
          "ticks": 21889,
          "time": 201.18544716666668,
          "value": -0.053955078125
        },
        {
          "ticks": 21890,
          "time": 201.19463833333336,
          "value": 0
        },
        {
          "ticks": 21935,
          "time": 201.60824083333335,
          "value": -0.16650390625
        },
        {
          "ticks": 21953,
          "time": 201.77368183333334,
          "value": -0.13525390625
        },
        {
          "ticks": 21954,
          "time": 201.782873,
          "value": -0.101318359375
        },
        {
          "ticks": 21955,
          "time": 201.79206416666668,
          "value": -0.0672607421875
        },
        {
          "ticks": 21956,
          "time": 201.80125533333336,
          "value": -0.033203125
        },
        {
          "ticks": 21957,
          "time": 201.8104465,
          "value": 0
        },
        {
          "ticks": 22031,
          "time": 202.49059283333335,
          "value": -0.16650390625
        },
        {
          "ticks": 22032,
          "time": 202.499784,
          "value": -0.10791015625
        },
        {
          "ticks": 22033,
          "time": 202.5089751666667,
          "value": -0.053955078125
        },
        {
          "ticks": 22034,
          "time": 202.51816633333334,
          "value": 0
        },
        {
          "ticks": 22055,
          "time": 202.71118083333334,
          "value": -0.16650390625
        },
        {
          "ticks": 22061,
          "time": 202.76632783333335,
          "value": -0.10791015625
        },
        {
          "ticks": 22063,
          "time": 202.78471016666668,
          "value": -0.053955078125
        },
        {
          "ticks": 22066,
          "time": 202.8122836666667,
          "value": 0
        },
        {
          "ticks": 22103,
          "time": 203.15235683333336,
          "value": -0.16650390625
        },
        {
          "ticks": 22105,
          "time": 203.1707391666667,
          "value": -0.10791015625
        },
        {
          "ticks": 22106,
          "time": 203.17993033333335,
          "value": -0.053955078125
        },
        {
          "ticks": 22107,
          "time": 203.1891215,
          "value": 0
        },
        {
          "ticks": 22319,
          "time": 205.13764883333334,
          "value": -0.16650390625
        },
        {
          "ticks": 22328,
          "time": 205.22036933333334,
          "value": -0.12744140625
        },
        {
          "ticks": 22329,
          "time": 205.22956050000002,
          "value": -0.10205078125
        },
        {
          "ticks": 22330,
          "time": 205.2387516666667,
          "value": -0.07666015625
        },
        {
          "ticks": 22331,
          "time": 205.24794283333335,
          "value": -0.051025390625
        },
        {
          "ticks": 22332,
          "time": 205.257134,
          "value": -0.025634765625
        },
        {
          "ticks": 22333,
          "time": 205.2663251666667,
          "value": 0
        },
        {
          "ticks": 22487,
          "time": 206.68176483333335,
          "value": -0.083251953125
        },
        {
          "ticks": 22490,
          "time": 206.70933833333333,
          "value": -0.053955078125
        },
        {
          "ticks": 22492,
          "time": 206.7277206666667,
          "value": -0.0269775390625
        },
        {
          "ticks": 22494,
          "time": 206.746103,
          "value": 0
        },
        {
          "ticks": 22583,
          "time": 207.56411683333334,
          "value": -0.16650390625
        },
        {
          "ticks": 22604,
          "time": 207.75713133333335,
          "value": -0.10791015625
        },
        {
          "ticks": 22605,
          "time": 207.7663225,
          "value": -0.053955078125
        },
        {
          "ticks": 22606,
          "time": 207.77551366666668,
          "value": 0
        }
      ],
      "instrument": {
        "family": "strings",
        "number": 40,
        "name": "violin"
      },
      "name": "",
      "notes": [
        {
          "duration": 0.07352933333333311,
          "durationTicks": 8,
          "midi": 68,
          "name": "G#4",
          "ticks": 1127,
          "time": 10.358444833333333,
          "velocity": 0.8818897637795275
        },
        {
          "duration": 0.21139683333333537,
          "durationTicks": 23,
          "midi": 80,
          "name": "G#5",
          "ticks": 1151,
          "time": 10.579032833333333,
          "velocity": 0.952755905511811
        },
        {
          "duration": 0.20220566666666784,
          "durationTicks": 22,
          "midi": 78,
          "name": "F#5",
          "ticks": 1175,
          "time": 10.799620833333332,
          "velocity": 0.889763779527559
        },
        {
          "duration": 0.606617,
          "durationTicks": 66,
          "midi": 77,
          "name": "F5",
          "ticks": 1199,
          "time": 11.020208833333335,
          "velocity": 0.905511811023622
        },
        {
          "duration": 0.1011028333333357,
          "durationTicks": 11,
          "midi": 77,
          "name": "F5",
          "ticks": 1295,
          "time": 11.902560833333332,
          "velocity": 0.952755905511811
        },
        {
          "duration": 0.4044113333333321,
          "durationTicks": 44,
          "midi": 78,
          "name": "F#5",
          "ticks": 1319,
          "time": 12.123148833333335,
          "velocity": 0.9212598425196851
        },
        {
          "duration": 0.330881999999999,
          "durationTicks": 36,
          "midi": 77,
          "name": "F5",
          "ticks": 1367,
          "time": 12.564324833333334,
          "velocity": 0.9212598425196851
        },
        {
          "duration": 0.36764666666666557,
          "durationTicks": 40,
          "midi": 75,
          "name": "D#5",
          "ticks": 1415,
          "time": 13.005500833333333,
          "velocity": 0.84251968503937
        },
        {
          "duration": 0.31249966666666396,
          "durationTicks": 34,
          "midi": 73,
          "name": "C#5",
          "ticks": 1463,
          "time": 13.446676833333335,
          "velocity": 0.8976377952755905
        },
        {
          "duration": 0.29411733333333245,
          "durationTicks": 32,
          "midi": 72,
          "name": "C5",
          "ticks": 1511,
          "time": 13.887852833333334,
          "velocity": 0.952755905511811
        },
        {
          "duration": 0.1011028333333357,
          "durationTicks": 11,
          "midi": 68,
          "name": "G#4",
          "ticks": 1559,
          "time": 14.329028833333332,
          "velocity": 0.9133858267716536
        },
        {
          "duration": 0.7261021666666636,
          "durationTicks": 79,
          "midi": 75,
          "name": "D#5",
          "ticks": 1583,
          "time": 14.549616833333335,
          "velocity": 0.9212598425196851
        },
        {
          "duration": 0.3676466666666691,
          "durationTicks": 40,
          "midi": 75,
          "name": "D#5",
          "ticks": 1679,
          "time": 15.431968833333332,
          "velocity": 0.905511811023622
        },
        {
          "duration": 0.18382333333333278,
          "durationTicks": 20,
          "midi": 73,
          "name": "C#5",
          "ticks": 1727,
          "time": 15.873144833333335,
          "velocity": 0.9212598425196851
        },
        {
          "duration": 0.4411759999999987,
          "durationTicks": 48,
          "midi": 75,
          "name": "D#5",
          "ticks": 1751,
          "time": 16.093732833333334,
          "velocity": 0.937007874015748
        },
        {
          "duration": 0.10110283333333214,
          "durationTicks": 11,
          "midi": 73,
          "name": "C#5",
          "ticks": 1799,
          "time": 16.534908833333333,
          "velocity": 0.9133858267716536
        },
        {
          "duration": 0.16544099999999773,
          "durationTicks": 18,
          "midi": 75,
          "name": "D#5",
          "ticks": 1823,
          "time": 16.755496833333336,
          "velocity": 0.9212598425196851
        },
        {
          "duration": 0.6249993333333315,
          "durationTicks": 68,
          "midi": 77,
          "name": "F5",
          "ticks": 1847,
          "time": 16.976084833333335,
          "velocity": 0.952755905511811
        },
        {
          "duration": 0.11029399999999967,
          "durationTicks": 12,
          "midi": 77,
          "name": "F5",
          "ticks": 1943,
          "time": 17.858436833333336,
          "velocity": 0.952755905511811
        },
        {
          "duration": 0.3216908333333315,
          "durationTicks": 35,
          "midi": 77,
          "name": "F5",
          "ticks": 1967,
          "time": 18.079024833333335,
          "velocity": 0.952755905511811
        },
        {
          "duration": 0.16544100000000128,
          "durationTicks": 18,
          "midi": 70,
          "name": "A#4",
          "ticks": 2015,
          "time": 18.520200833333334,
          "velocity": 0.8976377952755905
        },
        {
          "duration": 0.4136025000000032,
          "durationTicks": 45,
          "midi": 73,
          "name": "C#5",
          "ticks": 2039,
          "time": 18.740788833333333,
          "velocity": 0.9291338582677166
        },
        {
          "duration": 0.22058799999999934,
          "durationTicks": 24,
          "midi": 75,
          "name": "D#5",
          "ticks": 2087,
          "time": 19.181964833333335,
          "velocity": 0.952755905511811
        },
        {
          "duration": 0.3400731666666701,
          "durationTicks": 37,
          "midi": 80,
          "name": "G#5",
          "ticks": 2135,
          "time": 19.623140833333334,
          "velocity": 0.968503937007874
        },
        {
          "duration": 0.19301449999999676,
          "durationTicks": 21,
          "midi": 80,
          "name": "G#5",
          "ticks": 2183,
          "time": 20.064316833333336,
          "velocity": 0.889763779527559
        },
        {
          "duration": 0.10110283333333214,
          "durationTicks": 11,
          "midi": 78,
          "name": "F#5",
          "ticks": 2207,
          "time": 20.284904833333336,
          "velocity": 0.905511811023622
        },
        {
          "duration": 0.1930145000000003,
          "durationTicks": 21,
          "midi": 78,
          "name": "F#5",
          "ticks": 2231,
          "time": 20.505492833333335,
          "velocity": 0.9212598425196851
        },
        {
          "duration": 0.1194851666666672,
          "durationTicks": 13,
          "midi": 77,
          "name": "F5",
          "ticks": 2255,
          "time": 20.726080833333334,
          "velocity": 0.9763779527559056
        },
        {
          "duration": 0.18382333333333278,
          "durationTicks": 20,
          "midi": 75,
          "name": "D#5",
          "ticks": 2279,
          "time": 20.946668833333334,
          "velocity": 0.9291338582677166
        },
        {
          "duration": 0.1930145000000003,
          "durationTicks": 21,
          "midi": 78,
          "name": "F#5",
          "ticks": 2303,
          "time": 21.167256833333333,
          "velocity": 0.952755905511811
        },
        {
          "duration": 2.0863948333333298,
          "durationTicks": 227,
          "midi": 77,
          "name": "F5",
          "ticks": 2327,
          "time": 21.387844833333336,
          "velocity": 0.968503937007874
        },
        {
          "duration": 0.3584555000000016,
          "durationTicks": 39,
          "midi": 77,
          "name": "F5",
          "ticks": 2783,
          "time": 25.579016833333334,
          "velocity": 0.8661417322834646
        },
        {
          "duration": 0.35845549999999804,
          "durationTicks": 39,
          "midi": 77,
          "name": "F5",
          "ticks": 2831,
          "time": 26.020192833333336,
          "velocity": 0.9212598425196851
        },
        {
          "duration": 0.1930145000000003,
          "durationTicks": 21,
          "midi": 75,
          "name": "D#5",
          "ticks": 2879,
          "time": 26.461368833333335,
          "velocity": 0.8661417322834646
        },
        {
          "duration": 0.1930145000000003,
          "durationTicks": 21,
          "midi": 73,
          "name": "C#5",
          "ticks": 2903,
          "time": 26.681956833333334,
          "velocity": 0.8503937007874016
        },
        {
          "duration": 0.3676466666666691,
          "durationTicks": 40,
          "midi": 75,
          "name": "D#5",
          "ticks": 2927,
          "time": 26.902544833333334,
          "velocity": 0.8976377952755905
        },
        {
          "duration": 0.35845549999999804,
          "durationTicks": 39,
          "midi": 77,
          "name": "F5",
          "ticks": 2975,
          "time": 27.343720833333336,
          "velocity": 0.84251968503937
        },
        {
          "duration": 0.3676466666666691,
          "durationTicks": 40,
          "midi": 75,
          "name": "D#5",
          "ticks": 3023,
          "time": 27.784896833333335,
          "velocity": 0.889763779527559
        },
        {
          "duration": 0.3676466666666691,
          "durationTicks": 40,
          "midi": 73,
          "name": "C#5",
          "ticks": 3071,
          "time": 28.226072833333333,
          "velocity": 0.9212598425196851
        },
        {
          "duration": 1.0569841666666662,
          "durationTicks": 115,
          "midi": 73,
          "name": "C#5",
          "ticks": 3119,
          "time": 28.667248833333336,
          "velocity": 0.8818897637795275
        },
        {
          "duration": 0.22058799999999934,
          "durationTicks": 24,
          "midi": 68,
          "name": "G#4",
          "ticks": 3239,
          "time": 29.770188833333336,
          "velocity": 0.8818897637795275
        },
        {
          "duration": 0.20220566666666429,
          "durationTicks": 22,
          "midi": 70,
          "name": "A#4",
          "ticks": 3263,
          "time": 29.990776833333335,
          "velocity": 0.8503937007874016
        },
        {
          "duration": 0.21139683333333537,
          "durationTicks": 23,
          "midi": 68,
          "name": "G#4",
          "ticks": 3287,
          "time": 30.211364833333334,
          "velocity": 0.8818897637795275
        },
        {
          "duration": 1.5441160000000025,
          "durationTicks": 168,
          "midi": 68,
          "name": "G#4",
          "ticks": 3311,
          "time": 30.431952833333334,
          "velocity": 0.8818897637795275
        },
        {
          "duration": 0.35845549999999804,
          "durationTicks": 39,
          "midi": 77,
          "name": "F5",
          "ticks": 3551,
          "time": 32.637832833333334,
          "velocity": 0.8661417322834646
        },
        {
          "duration": 0.35845549999999804,
          "durationTicks": 39,
          "midi": 77,
          "name": "F5",
          "ticks": 3599,
          "time": 33.07900883333333,
          "velocity": 0.8661417322834646
        },
        {
          "duration": 0.15624983333333375,
          "durationTicks": 17,
          "midi": 75,
          "name": "D#5",
          "ticks": 3647,
          "time": 33.52018483333333,
          "velocity": 0.8661417322834646
        },
        {
          "duration": 0.19301450000000386,
          "durationTicks": 21,
          "midi": 73,
          "name": "C#5",
          "ticks": 3671,
          "time": 33.74077283333333,
          "velocity": 0.905511811023622
        },
        {
          "duration": 0.36764666666666557,
          "durationTicks": 40,
          "midi": 75,
          "name": "D#5",
          "ticks": 3695,
          "time": 33.96136083333334,
          "velocity": 0.8976377952755905
        },
        {
          "duration": 0.35845549999999804,
          "durationTicks": 39,
          "midi": 77,
          "name": "F5",
          "ticks": 3743,
          "time": 34.402536833333336,
          "velocity": 0.8661417322834646
        },
        {
          "duration": 0.4136025000000032,
          "durationTicks": 45,
          "midi": 75,
          "name": "D#5",
          "ticks": 3791,
          "time": 34.843712833333335,
          "velocity": 0.889763779527559
        },
        {
          "duration": 0.39522016666666815,
          "durationTicks": 43,
          "midi": 73,
          "name": "C#5",
          "ticks": 3839,
          "time": 35.28488883333333,
          "velocity": 0.9212598425196851
        },
        {
          "duration": 2.0404390000000063,
          "durationTicks": 222,
          "midi": 73,
          "name": "C#5",
          "ticks": 3887,
          "time": 35.72606483333333,
          "velocity": 0.8818897637795275
        },
        {
          "duration": 0.35845550000000515,
          "durationTicks": 39,
          "midi": 78,
          "name": "F#5",
          "ticks": 4127,
          "time": 37.93194483333333,
          "velocity": 0.9133858267716536
        },
        {
          "duration": 0.35845549999999804,
          "durationTicks": 39,
          "midi": 77,
          "name": "F5",
          "ticks": 4175,
          "time": 38.37312083333334,
          "velocity": 0.905511811023622
        },
        {
          "duration": 0.22058799999999934,
          "durationTicks": 24,
          "midi": 75,
          "name": "D#5",
          "ticks": 4223,
          "time": 38.81429683333334,
          "velocity": 0.8818897637795275
        },
        {
          "duration": 0.1378674999999987,
          "durationTicks": 15,
          "midi": 73,
          "name": "C#5",
          "ticks": 4247,
          "time": 39.03488483333334,
          "velocity": 0.9133858267716536
        },
        {
          "duration": 0.18382333333333634,
          "durationTicks": 20,
          "midi": 72,
          "name": "C5",
          "ticks": 4271,
          "time": 39.255472833333336,
          "velocity": 0.8503937007874016
        },
        {
          "duration": 0.24816150000000192,
          "durationTicks": 27,
          "midi": 73,
          "name": "C#5",
          "ticks": 4295,
          "time": 39.476060833333335,
          "velocity": 0.905511811023622
        },
        {
          "duration": 0.1378674999999987,
          "durationTicks": 15,
          "midi": 73,
          "name": "C#5",
          "ticks": 4343,
          "time": 39.917236833333334,
          "velocity": 0.8740157480314961
        },
        {
          "duration": 0.19301450000000386,
          "durationTicks": 21,
          "midi": 72,
          "name": "C5",
          "ticks": 4367,
          "time": 40.13782483333333,
          "velocity": 0.84251968503937
        },
        {
          "duration": 0.24816150000000192,
          "durationTicks": 27,
          "midi": 73,
          "name": "C#5",
          "ticks": 4391,
          "time": 40.35841283333333,
          "velocity": 0.8976377952755905
        },
        {
          "duration": 0.1378674999999987,
          "durationTicks": 15,
          "midi": 73,
          "name": "C#5",
          "ticks": 4439,
          "time": 40.79958883333334,
          "velocity": 0.8740157480314961
        },
        {
          "duration": 0.18382333333333634,
          "durationTicks": 20,
          "midi": 72,
          "name": "C5",
          "ticks": 4463,
          "time": 41.02017683333334,
          "velocity": 0.8346456692913385
        },
        {
          "duration": 0.24816150000000192,
          "durationTicks": 27,
          "midi": 73,
          "name": "C#5",
          "ticks": 4487,
          "time": 41.24076483333334,
          "velocity": 0.8582677165354331
        },
        {
          "duration": 0.1378674999999987,
          "durationTicks": 15,
          "midi": 73,
          "name": "C#5",
          "ticks": 4535,
          "time": 41.681940833333336,
          "velocity": 0.905511811023622
        },
        {
          "duration": 0.19301450000000386,
          "durationTicks": 21,
          "midi": 72,
          "name": "C5",
          "ticks": 4559,
          "time": 41.902528833333335,
          "velocity": 0.84251968503937
        },
        {
          "duration": 0.24816150000000192,
          "durationTicks": 27,
          "midi": 73,
          "name": "C#5",
          "ticks": 4583,
          "time": 42.123116833333334,
          "velocity": 0.8740157480314961
        },
        {
          "duration": 0.1378675000000058,
          "durationTicks": 15,
          "midi": 73,
          "name": "C#5",
          "ticks": 4631,
          "time": 42.56429283333333,
          "velocity": 0.8740157480314961
        },
        {
          "duration": 0.18382333333333634,
          "durationTicks": 20,
          "midi": 72,
          "name": "C5",
          "ticks": 4655,
          "time": 42.78488083333333,
          "velocity": 0.8503937007874016
        },
        {
          "duration": 0.24816149999999482,
          "durationTicks": 27,
          "midi": 73,
          "name": "C#5",
          "ticks": 4679,
          "time": 43.00546883333334,
          "velocity": 0.905511811023622
        },
        {
          "duration": 0.1378674999999987,
          "durationTicks": 15,
          "midi": 73,
          "name": "C#5",
          "ticks": 4727,
          "time": 43.44664483333334,
          "velocity": 0.8740157480314961
        },
        {
          "duration": 0.19301449999999676,
          "durationTicks": 21,
          "midi": 72,
          "name": "C5",
          "ticks": 4751,
          "time": 43.66723283333334,
          "velocity": 0.84251968503937
        },
        {
          "duration": 0.16544100000000128,
          "durationTicks": 18,
          "midi": 73,
          "name": "C#5",
          "ticks": 4775,
          "time": 43.887820833333336,
          "velocity": 0.8976377952755905
        },
        {
          "duration": 0.16544100000000128,
          "durationTicks": 18,
          "midi": 73,
          "name": "C#5",
          "ticks": 4823,
          "time": 44.328996833333335,
          "velocity": 0.889763779527559
        },
        {
          "duration": 0.18382333333333634,
          "durationTicks": 20,
          "midi": 75,
          "name": "D#5",
          "ticks": 4847,
          "time": 44.549584833333334,
          "velocity": 0.8740157480314961
        },
        {
          "duration": 0.18382333333333634,
          "durationTicks": 20,
          "midi": 73,
          "name": "C#5",
          "ticks": 4871,
          "time": 44.77017283333333,
          "velocity": 0.889763779527559
        },
        {
          "duration": 0.15624983333334086,
          "durationTicks": 17,
          "midi": 75,
          "name": "D#5",
          "ticks": 4895,
          "time": 44.99076083333333,
          "velocity": 0.8582677165354331
        },
        {
          "duration": 0.5790435000000045,
          "durationTicks": 63,
          "midi": 77,
          "name": "F5",
          "ticks": 4919,
          "time": 45.21134883333333,
          "velocity": 0.905511811023622
        },
        {
          "duration": 0.08272050000000064,
          "durationTicks": 9,
          "midi": 75,
          "name": "D#5",
          "ticks": 4991,
          "time": 45.87311283333334,
          "velocity": 0.84251968503937
        },
        {
          "duration": 0.19301449999999676,
          "durationTicks": 21,
          "midi": 73,
          "name": "C#5",
          "ticks": 5015,
          "time": 46.09370083333334,
          "velocity": 0.8740157480314961
        },
        {
          "duration": 0.18382333333333634,
          "durationTicks": 20,
          "midi": 72,
          "name": "C5",
          "ticks": 5039,
          "time": 46.314288833333336,
          "velocity": 0.8503937007874016
        },
        {
          "duration": 0.16544100000000128,
          "durationTicks": 18,
          "midi": 73,
          "name": "C#5",
          "ticks": 5063,
          "time": 46.534876833333335,
          "velocity": 0.905511811023622
        },
        {
          "duration": 0.19301450000000386,
          "durationTicks": 21,
          "midi": 73,
          "name": "C#5",
          "ticks": 5111,
          "time": 46.976052833333334,
          "velocity": 0.889763779527559
        },
        {
          "duration": 0.12867633333333828,
          "durationTicks": 14,
          "midi": 72,
          "name": "C5",
          "ticks": 5135,
          "time": 47.19664083333333,
          "velocity": 0.84251968503937
        },
        {
          "duration": 0.24816150000000192,
          "durationTicks": 27,
          "midi": 73,
          "name": "C#5",
          "ticks": 5159,
          "time": 47.41722883333333,
          "velocity": 0.8976377952755905
        },
        {
          "duration": 0.09191166666666106,
          "durationTicks": 10,
          "midi": 73,
          "name": "C#5",
          "ticks": 5207,
          "time": 47.85840483333334,
          "velocity": 0.8740157480314961
        },
        {
          "duration": 0.18382333333333634,
          "durationTicks": 20,
          "midi": 72,
          "name": "C5",
          "ticks": 5231,
          "time": 48.07899283333334,
          "velocity": 0.8346456692913385
        },
        {
          "duration": 0.24816150000000192,
          "durationTicks": 27,
          "midi": 73,
          "name": "C#5",
          "ticks": 5255,
          "time": 48.29958083333334,
          "velocity": 0.8582677165354331
        },
        {
          "duration": 0.09191166666666106,
          "durationTicks": 10,
          "midi": 73,
          "name": "C#5",
          "ticks": 5303,
          "time": 48.740756833333336,
          "velocity": 0.905511811023622
        },
        {
          "duration": 0.19301450000000386,
          "durationTicks": 21,
          "midi": 72,
          "name": "C5",
          "ticks": 5327,
          "time": 48.961344833333335,
          "velocity": 0.889763779527559
        },
        {
          "duration": 0.15624983333333375,
          "durationTicks": 17,
          "midi": 73,
          "name": "C#5",
          "ticks": 5351,
          "time": 49.181932833333335,
          "velocity": 0.8740157480314961
        },
        {
          "duration": 0.08272050000000064,
          "durationTicks": 9,
          "midi": 73,
          "name": "C#5",
          "ticks": 5399,
          "time": 49.62310883333333,
          "velocity": 0.905511811023622
        },
        {
          "duration": 0.36764666666666557,
          "durationTicks": 40,
          "midi": 80,
          "name": "G#5",
          "ticks": 5423,
          "time": 49.84369683333333,
          "velocity": 0.9291338582677166
        },
        {
          "duration": 0.1746321666666617,
          "durationTicks": 19,
          "midi": 73,
          "name": "C#5",
          "ticks": 5471,
          "time": 50.28487283333334,
          "velocity": 0.8740157480314961
        },
        {
          "duration": 0.3492643333333305,
          "durationTicks": 38,
          "midi": 72,
          "name": "C5",
          "ticks": 5495,
          "time": 50.50546083333334,
          "velocity": 0.9212598425196851
        },
        {
          "duration": 0.36764666666666557,
          "durationTicks": 40,
          "midi": 72,
          "name": "C5",
          "ticks": 5543,
          "time": 50.946636833333336,
          "velocity": 0.8503937007874016
        },
        {
          "duration": 0.4136025000000032,
          "durationTicks": 45,
          "midi": 73,
          "name": "C#5",
          "ticks": 5591,
          "time": 51.387812833333335,
          "velocity": 0.8976377952755905
        },
        {
          "duration": 0.1011028333333357,
          "durationTicks": 11,
          "midi": 73,
          "name": "C#5",
          "ticks": 5639,
          "time": 51.828988833333334,
          "velocity": 0.8976377952755905
        },
        {
          "duration": 0.18382333333333634,
          "durationTicks": 20,
          "midi": 75,
          "name": "D#5",
          "ticks": 5663,
          "time": 52.04957683333333,
          "velocity": 0.8976377952755905
        },
        {
          "duration": 1.0110283333333356,
          "durationTicks": 110,
          "midi": 77,
          "name": "F5",
          "ticks": 5687,
          "time": 52.27016483333333,
          "velocity": 0.8740157480314961
        },
        {
          "duration": 0.19301449999999676,
          "durationTicks": 21,
          "midi": 77,
          "name": "F5",
          "ticks": 5807,
          "time": 53.373104833333336,
          "velocity": 0.8503937007874016
        },
        {
          "duration": 0.19301449999999676,
          "durationTicks": 21,
          "midi": 73,
          "name": "C#5",
          "ticks": 5831,
          "time": 53.593692833333336,
          "velocity": 0.8110236220472441
        },
        {
          "duration": 0.1011028333333357,
          "durationTicks": 11,
          "midi": 77,
          "name": "F5",
          "ticks": 5855,
          "time": 53.814280833333335,
          "velocity": 0.8582677165354331
        },
        {
          "duration": 0.35845549999999804,
          "durationTicks": 39,
          "midi": 75,
          "name": "D#5",
          "ticks": 5879,
          "time": 54.034868833333334,
          "velocity": 0.8267716535433071
        },
        {
          "duration": 0.20220566666666429,
          "durationTicks": 22,
          "midi": 73,
          "name": "C#5",
          "ticks": 5927,
          "time": 54.47604483333333,
          "velocity": 0.8110236220472441
        },
        {
          "duration": 0.1011028333333357,
          "durationTicks": 11,
          "midi": 72,
          "name": "C5",
          "ticks": 5951,
          "time": 54.69663283333333,
          "velocity": 0.7795275590551181
        },
        {
          "duration": 0.3860290000000006,
          "durationTicks": 42,
          "midi": 73,
          "name": "C#5",
          "ticks": 5975,
          "time": 54.91722083333334,
          "velocity": 0.8503937007874016
        },
        {
          "duration": 0.20220566666666429,
          "durationTicks": 22,
          "midi": 72,
          "name": "C5",
          "ticks": 6023,
          "time": 55.35839683333334,
          "velocity": 0.7559055118110236
        },
        {
          "duration": 0.1011028333333357,
          "durationTicks": 11,
          "midi": 70,
          "name": "A#4",
          "ticks": 6047,
          "time": 55.57898483333334,
          "velocity": 0.8346456692913385
        },
        {
          "duration": 0.35845549999999804,
          "durationTicks": 39,
          "midi": 72,
          "name": "C5",
          "ticks": 6071,
          "time": 55.799572833333336,
          "velocity": 0.8503937007874016
        },
        {
          "duration": 0.16544100000000128,
          "durationTicks": 18,
          "midi": 70,
          "name": "A#4",
          "ticks": 6119,
          "time": 56.240748833333335,
          "velocity": 0.8346456692913385
        },
        {
          "duration": 0.19301450000000386,
          "durationTicks": 21,
          "midi": 68,
          "name": "G#4",
          "ticks": 6143,
          "time": 56.461336833333334,
          "velocity": 0.7952755905511811
        },
        {
          "duration": 0.1011028333333357,
          "durationTicks": 11,
          "midi": 68,
          "name": "G#4",
          "ticks": 6167,
          "time": 56.68192483333333,
          "velocity": 0.84251968503937
        },
        {
          "duration": 0.1011028333333357,
          "durationTicks": 11,
          "midi": 70,
          "name": "A#4",
          "ticks": 6191,
          "time": 56.90251283333333,
          "velocity": 0.8110236220472441
        },
        {
          "duration": 0.20220566666666429,
          "durationTicks": 22,
          "midi": 68,
          "name": "G#4",
          "ticks": 6215,
          "time": 57.12310083333334,
          "velocity": 0.8582677165354331
        },
        {
          "duration": 0.18382333333332923,
          "durationTicks": 20,
          "midi": 70,
          "name": "A#4",
          "ticks": 6239,
          "time": 57.34368883333334,
          "velocity": 0.8267716535433071
        },
        {
          "duration": 0.35845549999999804,
          "durationTicks": 39,
          "midi": 72,
          "name": "C5",
          "ticks": 6263,
          "time": 57.56427683333334,
          "velocity": 0.8661417322834646
        },
        {
          "duration": 0.16544100000000128,
          "durationTicks": 18,
          "midi": 70,
          "name": "A#4",
          "ticks": 6311,
          "time": 58.00545283333334,
          "velocity": 0.8031496062992126
        },
        {
          "duration": 0.1378674999999987,
          "durationTicks": 15,
          "midi": 72,
          "name": "C5",
          "ticks": 6335,
          "time": 58.226040833333336,
          "velocity": 0.8818897637795275
        },
        {
          "duration": 0.9558813333333305,
          "durationTicks": 104,
          "midi": 74,
          "name": "D5",
          "ticks": 6359,
          "time": 58.446628833333335,
          "velocity": 0.9133858267716536
        },
        {
          "duration": 0.19301449999999676,
          "durationTicks": 21,
          "midi": 68,
          "name": "G#4",
          "ticks": 6503,
          "time": 59.77015683333334,
          "velocity": 0.8818897637795275
        },
        {
          "duration": 0.2113968333333247,
          "durationTicks": 23,
          "midi": 80,
          "name": "G#5",
          "ticks": 6527,
          "time": 59.99074483333334,
          "velocity": 0.9133858267716536
        },
        {
          "duration": 0.10110283333332859,
          "durationTicks": 11,
          "midi": 78,
          "name": "F#5",
          "ticks": 6551,
          "time": 60.21133283333334,
          "velocity": 0.8740157480314961
        },
        {
          "duration": 0.4411759999999987,
          "durationTicks": 48,
          "midi": 77,
          "name": "F5",
          "ticks": 6575,
          "time": 60.431920833333336,
          "velocity": 0.905511811023622
        },
        {
          "duration": 0.11029400000000322,
          "durationTicks": 12,
          "midi": 77,
          "name": "F5",
          "ticks": 6671,
          "time": 61.314272833333334,
          "velocity": 0.9133858267716536
        },
        {
          "duration": 0.40441133333332857,
          "durationTicks": 44,
          "midi": 78,
          "name": "F#5",
          "ticks": 6695,
          "time": 61.53486083333333,
          "velocity": 0.9212598425196851
        },
        {
          "duration": 0.33088199999999546,
          "durationTicks": 36,
          "midi": 77,
          "name": "F5",
          "ticks": 6743,
          "time": 61.97603683333334,
          "velocity": 0.9291338582677166
        },
        {
          "duration": 0.33088199999999546,
          "durationTicks": 36,
          "midi": 75,
          "name": "D#5",
          "ticks": 6791,
          "time": 62.41721283333334,
          "velocity": 0.9133858267716536
        },
        {
          "duration": 0.33088200000000256,
          "durationTicks": 36,
          "midi": 73,
          "name": "C#5",
          "ticks": 6839,
          "time": 62.858388833333336,
          "velocity": 0.9212598425196851
        },
        {
          "duration": 0.35845549999999804,
          "durationTicks": 39,
          "midi": 72,
          "name": "C5",
          "ticks": 6887,
          "time": 63.299564833333335,
          "velocity": 0.952755905511811
        },
        {
          "duration": 0.10110283333332859,
          "durationTicks": 11,
          "midi": 68,
          "name": "G#4",
          "ticks": 6935,
          "time": 63.740740833333334,
          "velocity": 0.9133858267716536
        },
        {
          "duration": 0.7077198333333357,
          "durationTicks": 77,
          "midi": 75,
          "name": "D#5",
          "ticks": 6959,
          "time": 63.96132883333333,
          "velocity": 0.9212598425196851
        },
        {
          "duration": 0.3676466666666727,
          "durationTicks": 40,
          "midi": 75,
          "name": "D#5",
          "ticks": 7055,
          "time": 64.84368083333334,
          "velocity": 0.9291338582677166
        },
        {
          "duration": 0.11029399999999612,
          "durationTicks": 12,
          "midi": 73,
          "name": "C#5",
          "ticks": 7103,
          "time": 65.28485683333334,
          "velocity": 0.8661417322834646
        },
        {
          "duration": 0.2849261666666649,
          "durationTicks": 31,
          "midi": 75,
          "name": "D#5",
          "ticks": 7127,
          "time": 65.50544483333333,
          "velocity": 0.937007874015748
        },
        {
          "duration": 0.1746321666666688,
          "durationTicks": 19,
          "midi": 73,
          "name": "C#5",
          "ticks": 7175,
          "time": 65.94662083333333,
          "velocity": 0.9133858267716536
        },
        {
          "duration": 0.09191166666666106,
          "durationTicks": 10,
          "midi": 75,
          "name": "D#5",
          "ticks": 7199,
          "time": 66.16720883333333,
          "velocity": 0.9212598425196851
        },
        {
          "duration": 0.624999333333335,
          "durationTicks": 68,
          "midi": 77,
          "name": "F5",
          "ticks": 7223,
          "time": 66.38779683333333,
          "velocity": 0.952755905511811
        },
        {
          "duration": 0.11948516666667786,
          "durationTicks": 13,
          "midi": 77,
          "name": "F5",
          "ticks": 7319,
          "time": 67.27014883333332,
          "velocity": 0.952755905511811
        },
        {
          "duration": 0.3033085,
          "durationTicks": 33,
          "midi": 77,
          "name": "F5",
          "ticks": 7343,
          "time": 67.49073683333333,
          "velocity": 0.952755905511811
        },
        {
          "duration": 0.11029399999999612,
          "durationTicks": 12,
          "midi": 78,
          "name": "F#5",
          "ticks": 7391,
          "time": 67.93191283333333,
          "velocity": 0.8976377952755905
        },
        {
          "duration": 0.33088199999998835,
          "durationTicks": 36,
          "midi": 70,
          "name": "A#4",
          "ticks": 7415,
          "time": 68.15250083333333,
          "velocity": 0.9291338582677166
        },
        {
          "duration": 0.3216908333333208,
          "durationTicks": 35,
          "midi": 78,
          "name": "F#5",
          "ticks": 7463,
          "time": 68.59367683333333,
          "velocity": 0.952755905511811
        },
        {
          "duration": 0.09191166666666106,
          "durationTicks": 10,
          "midi": 78,
          "name": "F#5",
          "ticks": 7511,
          "time": 69.03485283333333,
          "velocity": 0.952755905511811
        },
        {
          "duration": 0.33088200000000256,
          "durationTicks": 36,
          "midi": 80,
          "name": "G#5",
          "ticks": 7535,
          "time": 69.25544083333332,
          "velocity": 0.8976377952755905
        },
        {
          "duration": 0.15624983333333375,
          "durationTicks": 17,
          "midi": 72,
          "name": "C5",
          "ticks": 7583,
          "time": 69.69661683333332,
          "velocity": 0.937007874015748
        },
        {
          "duration": 0.33088200000000256,
          "durationTicks": 36,
          "midi": 72,
          "name": "C5",
          "ticks": 7607,
          "time": 69.91720483333333,
          "velocity": 0.9291338582677166
        },
        {
          "duration": 0.32169083333333504,
          "durationTicks": 35,
          "midi": 75,
          "name": "D#5",
          "ticks": 7655,
          "time": 70.35838083333333,
          "velocity": 0.9212598425196851
        },
        {
          "duration": 0.11029399999999612,
          "durationTicks": 12,
          "midi": 75,
          "name": "D#5",
          "ticks": 7703,
          "time": 70.79955683333333,
          "velocity": 0.952755905511811
        },
        {
          "duration": 0.8272049999999922,
          "durationTicks": 90,
          "midi": 75,
          "name": "D#5",
          "ticks": 7727,
          "time": 71.02014483333333,
          "velocity": 0.952755905511811
        },
        {
          "duration": 0.19301450000000386,
          "durationTicks": 21,
          "midi": 73,
          "name": "C#5",
          "ticks": 7847,
          "time": 72.12308483333332,
          "velocity": 0.9212598425196851
        },
        {
          "duration": 0.07352933333332601,
          "durationTicks": 8,
          "midi": 75,
          "name": "D#5",
          "ticks": 7871,
          "time": 72.34367283333333,
          "velocity": 0.952755905511811
        },
        {
          "duration": 0.94669016666667,
          "durationTicks": 103,
          "midi": 77,
          "name": "F5",
          "ticks": 7895,
          "time": 72.56426083333334,
          "velocity": 0.9606299212598425
        },
        {
          "duration": 0.11029399999999612,
          "durationTicks": 12,
          "midi": 68,
          "name": "G#4",
          "ticks": 8039,
          "time": 73.88778883333333,
          "velocity": 0.984251968503937
        },
        {
          "duration": 0.21139683333333892,
          "durationTicks": 23,
          "midi": 80,
          "name": "G#5",
          "ticks": 8063,
          "time": 74.10837683333332,
          "velocity": 0.952755905511811
        },
        {
          "duration": 0.2022056666666714,
          "durationTicks": 22,
          "midi": 78,
          "name": "F#5",
          "ticks": 8087,
          "time": 74.32896483333333,
          "velocity": 0.889763779527559
        },
        {
          "duration": 0.606617,
          "durationTicks": 66,
          "midi": 77,
          "name": "F5",
          "ticks": 8111,
          "time": 74.54955283333332,
          "velocity": 0.905511811023622
        },
        {
          "duration": 0.10110283333332859,
          "durationTicks": 11,
          "midi": 77,
          "name": "F5",
          "ticks": 8207,
          "time": 75.43190483333333,
          "velocity": 0.952755905511811
        },
        {
          "duration": 0.376837833333326,
          "durationTicks": 41,
          "midi": 78,
          "name": "F#5",
          "ticks": 8231,
          "time": 75.65249283333333,
          "velocity": 0.9212598425196851
        },
        {
          "duration": 0.33088200000000256,
          "durationTicks": 36,
          "midi": 77,
          "name": "F5",
          "ticks": 8279,
          "time": 76.09366883333333,
          "velocity": 0.9212598425196851
        },
        {
          "duration": 0.3676466666666727,
          "durationTicks": 40,
          "midi": 75,
          "name": "D#5",
          "ticks": 8327,
          "time": 76.53484483333332,
          "velocity": 0.84251968503937
        },
        {
          "duration": 0.3124996666666817,
          "durationTicks": 34,
          "midi": 73,
          "name": "C#5",
          "ticks": 8375,
          "time": 76.97602083333332,
          "velocity": 0.8976377952755905
        },
        {
          "duration": 0.29411733333331824,
          "durationTicks": 32,
          "midi": 72,
          "name": "C5",
          "ticks": 8423,
          "time": 77.41719683333334,
          "velocity": 0.952755905511811
        },
        {
          "duration": 0.1746321666666688,
          "durationTicks": 19,
          "midi": 68,
          "name": "G#4",
          "ticks": 8471,
          "time": 77.85837283333333,
          "velocity": 0.9133858267716536
        },
        {
          "duration": 0.7261021666666778,
          "durationTicks": 79,
          "midi": 75,
          "name": "D#5",
          "ticks": 8495,
          "time": 78.07896083333333,
          "velocity": 0.9212598425196851
        },
        {
          "duration": 0.3676466666666727,
          "durationTicks": 40,
          "midi": 75,
          "name": "D#5",
          "ticks": 8591,
          "time": 78.96131283333332,
          "velocity": 0.905511811023622
        },
        {
          "duration": 0.18382333333333634,
          "durationTicks": 20,
          "midi": 73,
          "name": "C#5",
          "ticks": 8639,
          "time": 79.40248883333332,
          "velocity": 0.9212598425196851
        },
        {
          "duration": 0.4411759999999987,
          "durationTicks": 48,
          "midi": 75,
          "name": "D#5",
          "ticks": 8663,
          "time": 79.62307683333333,
          "velocity": 0.937007874015748
        },
        {
          "duration": 0.10110283333332859,
          "durationTicks": 11,
          "midi": 73,
          "name": "C#5",
          "ticks": 8711,
          "time": 80.06425283333333,
          "velocity": 0.9133858267716536
        },
        {
          "duration": 0.16544100000000128,
          "durationTicks": 18,
          "midi": 75,
          "name": "D#5",
          "ticks": 8735,
          "time": 80.28484083333333,
          "velocity": 0.9212598425196851
        },
        {
          "duration": 0.624999333333335,
          "durationTicks": 68,
          "midi": 77,
          "name": "F5",
          "ticks": 8759,
          "time": 80.50542883333333,
          "velocity": 0.952755905511811
        },
        {
          "duration": 0.14705866666668044,
          "durationTicks": 16,
          "midi": 77,
          "name": "F5",
          "ticks": 8855,
          "time": 81.38778083333332,
          "velocity": 0.952755905511811
        },
        {
          "duration": 0.32169083333333504,
          "durationTicks": 35,
          "midi": 77,
          "name": "F5",
          "ticks": 8879,
          "time": 81.60836883333333,
          "velocity": 0.952755905511811
        },
        {
          "duration": 0.16544100000000128,
          "durationTicks": 18,
          "midi": 70,
          "name": "A#4",
          "ticks": 8927,
          "time": 82.04954483333333,
          "velocity": 0.8976377952755905
        },
        {
          "duration": 0.4136024999999961,
          "durationTicks": 45,
          "midi": 73,
          "name": "C#5",
          "ticks": 8951,
          "time": 82.27013283333334,
          "velocity": 0.9291338582677166
        },
        {
          "duration": 0.3033085,
          "durationTicks": 33,
          "midi": 75,
          "name": "D#5",
          "ticks": 8999,
          "time": 82.71130883333333,
          "velocity": 0.952755905511811
        },
        {
          "duration": 0.3400731666666701,
          "durationTicks": 37,
          "midi": 80,
          "name": "G#5",
          "ticks": 9047,
          "time": 83.15248483333333,
          "velocity": 0.968503937007874
        },
        {
          "duration": 0.19301450000000386,
          "durationTicks": 21,
          "midi": 80,
          "name": "G#5",
          "ticks": 9095,
          "time": 83.59366083333333,
          "velocity": 0.889763779527559
        },
        {
          "duration": 0.10110283333332859,
          "durationTicks": 11,
          "midi": 78,
          "name": "F#5",
          "ticks": 9119,
          "time": 83.81424883333332,
          "velocity": 0.905511811023622
        },
        {
          "duration": 0.19301450000000386,
          "durationTicks": 21,
          "midi": 78,
          "name": "F#5",
          "ticks": 9143,
          "time": 84.03483683333333,
          "velocity": 0.9212598425196851
        },
        {
          "duration": 0.11948516666666364,
          "durationTicks": 13,
          "midi": 77,
          "name": "F5",
          "ticks": 9167,
          "time": 84.25542483333334,
          "velocity": 0.9763779527559056
        },
        {
          "duration": 0.18382333333333634,
          "durationTicks": 20,
          "midi": 75,
          "name": "D#5",
          "ticks": 9191,
          "time": 84.47601283333333,
          "velocity": 0.9291338582677166
        },
        {
          "duration": 0.19301449999998965,
          "durationTicks": 21,
          "midi": 78,
          "name": "F#5",
          "ticks": 9215,
          "time": 84.69660083333333,
          "velocity": 0.952755905511811
        },
        {
          "duration": 2.1231595,
          "durationTicks": 231,
          "midi": 77,
          "name": "F5",
          "ticks": 9239,
          "time": 84.91718883333333,
          "velocity": 0.968503937007874
        },
        {
          "duration": 0.35845549999999093,
          "durationTicks": 39,
          "midi": 77,
          "name": "F5",
          "ticks": 9695,
          "time": 89.10836083333334,
          "velocity": 0.8661417322834646
        },
        {
          "duration": 0.35845549999999093,
          "durationTicks": 39,
          "midi": 77,
          "name": "F5",
          "ticks": 9743,
          "time": 89.54953683333333,
          "velocity": 0.9212598425196851
        },
        {
          "duration": 0.19301449999998965,
          "durationTicks": 21,
          "midi": 75,
          "name": "D#5",
          "ticks": 9791,
          "time": 89.99071283333333,
          "velocity": 0.8661417322834646
        },
        {
          "duration": 0.19301450000000386,
          "durationTicks": 21,
          "midi": 73,
          "name": "C#5",
          "ticks": 9815,
          "time": 90.21130083333333,
          "velocity": 0.8503937007874016
        },
        {
          "duration": 0.3676466666666727,
          "durationTicks": 40,
          "midi": 75,
          "name": "D#5",
          "ticks": 9839,
          "time": 90.43188883333333,
          "velocity": 0.8976377952755905
        },
        {
          "duration": 0.35845550000000515,
          "durationTicks": 39,
          "midi": 77,
          "name": "F5",
          "ticks": 9887,
          "time": 90.87306483333333,
          "velocity": 0.889763779527559
        },
        {
          "duration": 0.3676466666666727,
          "durationTicks": 40,
          "midi": 75,
          "name": "D#5",
          "ticks": 9935,
          "time": 91.31424083333333,
          "velocity": 0.9212598425196851
        },
        {
          "duration": 0.35845550000000515,
          "durationTicks": 39,
          "midi": 73,
          "name": "C#5",
          "ticks": 9983,
          "time": 91.75541683333333,
          "velocity": 0.8661417322834646
        },
        {
          "duration": 1.0569841666666804,
          "durationTicks": 115,
          "midi": 73,
          "name": "C#5",
          "ticks": 10031,
          "time": 92.19659283333333,
          "velocity": 0.8818897637795275
        },
        {
          "duration": 0.22058800000000645,
          "durationTicks": 24,
          "midi": 68,
          "name": "G#4",
          "ticks": 10151,
          "time": 93.29953283333333,
          "velocity": 0.8818897637795275
        },
        {
          "duration": 0.20220566666665718,
          "durationTicks": 22,
          "midi": 70,
          "name": "A#4",
          "ticks": 10175,
          "time": 93.52012083333334,
          "velocity": 0.8503937007874016
        },
        {
          "duration": 0.2113968333333247,
          "durationTicks": 23,
          "midi": 68,
          "name": "G#4",
          "ticks": 10199,
          "time": 93.74070883333333,
          "velocity": 0.8818897637795275
        },
        {
          "duration": 1.5441159999999883,
          "durationTicks": 168,
          "midi": 68,
          "name": "G#4",
          "ticks": 10223,
          "time": 93.96129683333334,
          "velocity": 0.8818897637795275
        },
        {
          "duration": 0.3860290000000077,
          "durationTicks": 42,
          "midi": 77,
          "name": "F5",
          "ticks": 10463,
          "time": 96.16717683333333,
          "velocity": 0.8661417322834646
        },
        {
          "duration": 0.376837833333326,
          "durationTicks": 41,
          "midi": 77,
          "name": "F5",
          "ticks": 10511,
          "time": 96.60835283333333,
          "velocity": 0.8661417322834646
        },
        {
          "duration": 0.15624983333333375,
          "durationTicks": 17,
          "midi": 75,
          "name": "D#5",
          "ticks": 10559,
          "time": 97.04952883333333,
          "velocity": 0.8661417322834646
        },
        {
          "duration": 0.2113968333333247,
          "durationTicks": 23,
          "midi": 73,
          "name": "C#5",
          "ticks": 10583,
          "time": 97.27011683333333,
          "velocity": 0.905511811023622
        },
        {
          "duration": 0.3676466666666727,
          "durationTicks": 40,
          "midi": 75,
          "name": "D#5",
          "ticks": 10607,
          "time": 97.49070483333333,
          "velocity": 0.8976377952755905
        },
        {
          "duration": 0.33088200000000256,
          "durationTicks": 36,
          "midi": 77,
          "name": "F5",
          "ticks": 10655,
          "time": 97.93188083333332,
          "velocity": 0.8661417322834646
        },
        {
          "duration": 0.4136024999999961,
          "durationTicks": 45,
          "midi": 75,
          "name": "D#5",
          "ticks": 10703,
          "time": 98.37305683333334,
          "velocity": 0.889763779527559
        },
        {
          "duration": 0.3400731666666701,
          "durationTicks": 37,
          "midi": 73,
          "name": "C#5",
          "ticks": 10751,
          "time": 98.81423283333334,
          "velocity": 0.9212598425196851
        },
        {
          "duration": 2.040438999999992,
          "durationTicks": 222,
          "midi": 73,
          "name": "C#5",
          "ticks": 10799,
          "time": 99.25540883333333,
          "velocity": 0.8818897637795275
        },
        {
          "duration": 0.35845550000000515,
          "durationTicks": 39,
          "midi": 78,
          "name": "F#5",
          "ticks": 11039,
          "time": 101.46128883333333,
          "velocity": 0.9133858267716536
        },
        {
          "duration": 0.35845550000000515,
          "durationTicks": 39,
          "midi": 77,
          "name": "F5",
          "ticks": 11087,
          "time": 101.90246483333333,
          "velocity": 0.905511811023622
        },
        {
          "duration": 0.22058800000000645,
          "durationTicks": 24,
          "midi": 75,
          "name": "D#5",
          "ticks": 11135,
          "time": 102.34364083333332,
          "velocity": 0.8818897637795275
        },
        {
          "duration": 0.1378674999999987,
          "durationTicks": 15,
          "midi": 73,
          "name": "C#5",
          "ticks": 11159,
          "time": 102.56422883333333,
          "velocity": 0.9133858267716536
        },
        {
          "duration": 3.3088200000000114,
          "durationTicks": 360,
          "midi": 77,
          "name": "F5",
          "ticks": 11183,
          "time": 102.78481683333332,
          "velocity": 0.905511811023622
        },
        {
          "duration": 0.19301450000000386,
          "durationTicks": 21,
          "midi": 77,
          "name": "F5",
          "ticks": 14255,
          "time": 131.02008083333334,
          "velocity": 0.8503937007874016
        },
        {
          "duration": 0.19301449999997544,
          "durationTicks": 21,
          "midi": 73,
          "name": "C#5",
          "ticks": 14279,
          "time": 131.24066883333336,
          "velocity": 0.8110236220472441
        },
        {
          "duration": 0.10110283333332859,
          "durationTicks": 11,
          "midi": 77,
          "name": "F5",
          "ticks": 14303,
          "time": 131.46125683333335,
          "velocity": 0.8582677165354331
        },
        {
          "duration": 0.35845549999999093,
          "durationTicks": 39,
          "midi": 75,
          "name": "D#5",
          "ticks": 14327,
          "time": 131.68184483333334,
          "velocity": 0.8267716535433071
        },
        {
          "duration": 0.20220566666665718,
          "durationTicks": 22,
          "midi": 73,
          "name": "C#5",
          "ticks": 14375,
          "time": 132.12302083333336,
          "velocity": 0.8110236220472441
        },
        {
          "duration": 0.10110283333332859,
          "durationTicks": 11,
          "midi": 72,
          "name": "C5",
          "ticks": 14399,
          "time": 132.34360883333335,
          "velocity": 0.7795275590551181
        },
        {
          "duration": 0.3860290000000077,
          "durationTicks": 42,
          "midi": 73,
          "name": "C#5",
          "ticks": 14423,
          "time": 132.56419683333334,
          "velocity": 0.8503937007874016
        },
        {
          "duration": 0.20220566666665718,
          "durationTicks": 22,
          "midi": 72,
          "name": "C5",
          "ticks": 14471,
          "time": 133.00537283333335,
          "velocity": 0.7559055118110236
        },
        {
          "duration": 0.10110283333332859,
          "durationTicks": 11,
          "midi": 70,
          "name": "A#4",
          "ticks": 14495,
          "time": 133.22596083333335,
          "velocity": 0.8346456692913385
        },
        {
          "duration": 0.35845550000001936,
          "durationTicks": 39,
          "midi": 72,
          "name": "C5",
          "ticks": 14519,
          "time": 133.44654883333334,
          "velocity": 0.8503937007874016
        },
        {
          "duration": 0.16544099999998707,
          "durationTicks": 18,
          "midi": 70,
          "name": "A#4",
          "ticks": 14567,
          "time": 133.88772483333335,
          "velocity": 0.8346456692913385
        },
        {
          "duration": 0.19301450000000386,
          "durationTicks": 21,
          "midi": 68,
          "name": "G#4",
          "ticks": 14591,
          "time": 134.10831283333334,
          "velocity": 0.7952755905511811
        },
        {
          "duration": 0.10110283333335701,
          "durationTicks": 11,
          "midi": 68,
          "name": "G#4",
          "ticks": 14615,
          "time": 134.32890083333334,
          "velocity": 0.84251968503937
        },
        {
          "duration": 0.10110283333332859,
          "durationTicks": 11,
          "midi": 70,
          "name": "A#4",
          "ticks": 14639,
          "time": 134.54948883333336,
          "velocity": 0.8110236220472441
        },
        {
          "duration": 0.20220566666665718,
          "durationTicks": 22,
          "midi": 68,
          "name": "G#4",
          "ticks": 14663,
          "time": 134.77007683333335,
          "velocity": 0.8582677165354331
        },
        {
          "duration": 0.18382333333335055,
          "durationTicks": 20,
          "midi": 70,
          "name": "A#4",
          "ticks": 14687,
          "time": 134.99066483333334,
          "velocity": 0.8267716535433071
        },
        {
          "duration": 0.35845550000001936,
          "durationTicks": 39,
          "midi": 72,
          "name": "C5",
          "ticks": 14711,
          "time": 135.21125283333333,
          "velocity": 0.8661417322834646
        },
        {
          "duration": 0.16544099999998707,
          "durationTicks": 18,
          "midi": 70,
          "name": "A#4",
          "ticks": 14759,
          "time": 135.65242883333335,
          "velocity": 0.8031496062992126
        },
        {
          "duration": 0.1378674999999987,
          "durationTicks": 15,
          "midi": 72,
          "name": "C5",
          "ticks": 14783,
          "time": 135.87301683333334,
          "velocity": 0.8818897637795275
        },
        {
          "duration": 0.9558813333333376,
          "durationTicks": 104,
          "midi": 74,
          "name": "D5",
          "ticks": 14807,
          "time": 136.09360483333336,
          "velocity": 0.9133858267716536
        },
        {
          "duration": 0.19301450000000386,
          "durationTicks": 21,
          "midi": 68,
          "name": "G#4",
          "ticks": 14951,
          "time": 137.41713283333334,
          "velocity": 0.8818897637795275
        },
        {
          "duration": 0.21139683333336734,
          "durationTicks": 23,
          "midi": 80,
          "name": "G#5",
          "ticks": 14975,
          "time": 137.63772083333333,
          "velocity": 0.9133858267716536
        },
        {
          "duration": 0.10110283333332859,
          "durationTicks": 11,
          "midi": 78,
          "name": "F#5",
          "ticks": 14999,
          "time": 137.85830883333335,
          "velocity": 0.8740157480314961
        },
        {
          "duration": 0.7352933333333453,
          "durationTicks": 80,
          "midi": 77,
          "name": "F5",
          "ticks": 15023,
          "time": 138.07889683333335,
          "velocity": 0.905511811023622
        },
        {
          "duration": 0.11029400000001033,
          "durationTicks": 12,
          "midi": 77,
          "name": "F5",
          "ticks": 15119,
          "time": 138.96124883333334,
          "velocity": 0.9133858267716536
        },
        {
          "duration": 0.3676466666666727,
          "durationTicks": 40,
          "midi": 78,
          "name": "F#5",
          "ticks": 15143,
          "time": 139.18183683333334,
          "velocity": 0.9212598425196851
        },
        {
          "duration": 0.36764666666664425,
          "durationTicks": 40,
          "midi": 77,
          "name": "F5",
          "ticks": 15191,
          "time": 139.62301283333335,
          "velocity": 0.9291338582677166
        },
        {
          "duration": 0.33088200000000256,
          "durationTicks": 36,
          "midi": 75,
          "name": "D#5",
          "ticks": 15239,
          "time": 140.06418883333333,
          "velocity": 0.8661417322834646
        },
        {
          "duration": 0.33088200000000256,
          "durationTicks": 36,
          "midi": 73,
          "name": "C#5",
          "ticks": 15287,
          "time": 140.50536483333335,
          "velocity": 0.9212598425196851
        },
        {
          "duration": 0.3400731666666559,
          "durationTicks": 37,
          "midi": 72,
          "name": "C5",
          "ticks": 15335,
          "time": 140.94654083333336,
          "velocity": 0.84251968503937
        },
        {
          "duration": 0.10110283333335701,
          "durationTicks": 11,
          "midi": 68,
          "name": "G#4",
          "ticks": 15383,
          "time": 141.38771683333334,
          "velocity": 0.9133858267716536
        },
        {
          "duration": 0.5147053333333531,
          "durationTicks": 56,
          "midi": 75,
          "name": "D#5",
          "ticks": 15407,
          "time": 141.60830483333334,
          "velocity": 0.8976377952755905
        },
        {
          "duration": 0.08272049999999354,
          "durationTicks": 9,
          "midi": 75,
          "name": "D#5",
          "ticks": 15479,
          "time": 142.27006883333334,
          "velocity": 0.8661417322834646
        },
        {
          "duration": 0.3676466666666727,
          "durationTicks": 40,
          "midi": 75,
          "name": "D#5",
          "ticks": 15503,
          "time": 142.49065683333333,
          "velocity": 0.905511811023622
        },
        {
          "duration": 0.19301450000000386,
          "durationTicks": 21,
          "midi": 73,
          "name": "C#5",
          "ticks": 15551,
          "time": 142.93183283333335,
          "velocity": 0.8503937007874016
        },
        {
          "duration": 0.3768378333333544,
          "durationTicks": 41,
          "midi": 75,
          "name": "D#5",
          "ticks": 15575,
          "time": 143.15242083333334,
          "velocity": 0.905511811023622
        },
        {
          "duration": 0.20220566666665718,
          "durationTicks": 22,
          "midi": 73,
          "name": "C#5",
          "ticks": 15623,
          "time": 143.59359683333335,
          "velocity": 0.8818897637795275
        },
        {
          "duration": 0.15624983333333375,
          "durationTicks": 17,
          "midi": 75,
          "name": "D#5",
          "ticks": 15647,
          "time": 143.81418483333334,
          "velocity": 0.8976377952755905
        },
        {
          "duration": 0.6433816666666701,
          "durationTicks": 70,
          "midi": 77,
          "name": "F5",
          "ticks": 15671,
          "time": 144.03477283333334,
          "velocity": 0.905511811023622
        },
        {
          "duration": 0.1654410000000155,
          "durationTicks": 18,
          "midi": 77,
          "name": "F5",
          "ticks": 15767,
          "time": 144.91712483333333,
          "velocity": 0.889763779527559
        },
        {
          "duration": 0.30330849999998577,
          "durationTicks": 33,
          "midi": 77,
          "name": "F5",
          "ticks": 15791,
          "time": 145.13771283333335,
          "velocity": 0.952755905511811
        },
        {
          "duration": 0.11029400000001033,
          "durationTicks": 12,
          "midi": 78,
          "name": "F#5",
          "ticks": 15839,
          "time": 145.57888883333334,
          "velocity": 0.8976377952755905
        },
        {
          "duration": 0.33088199999997414,
          "durationTicks": 36,
          "midi": 70,
          "name": "A#4",
          "ticks": 15863,
          "time": 145.79947683333336,
          "velocity": 0.9291338582677166
        },
        {
          "duration": 0.32169083333334925,
          "durationTicks": 35,
          "midi": 78,
          "name": "F#5",
          "ticks": 15911,
          "time": 146.24065283333334,
          "velocity": 0.952755905511811
        },
        {
          "duration": 0.09191166666664685,
          "durationTicks": 10,
          "midi": 78,
          "name": "F#5",
          "ticks": 15959,
          "time": 146.68182883333336,
          "velocity": 0.952755905511811
        },
        {
          "duration": 0.33088200000000256,
          "durationTicks": 36,
          "midi": 80,
          "name": "G#5",
          "ticks": 15983,
          "time": 146.90241683333335,
          "velocity": 0.8976377952755905
        },
        {
          "duration": 0.1746321666666688,
          "durationTicks": 19,
          "midi": 72,
          "name": "C5",
          "ticks": 16031,
          "time": 147.34359283333333,
          "velocity": 0.937007874015748
        },
        {
          "duration": 0.33088200000000256,
          "durationTicks": 36,
          "midi": 72,
          "name": "C5",
          "ticks": 16055,
          "time": 147.56418083333335,
          "velocity": 0.9291338582677166
        },
        {
          "duration": 0.32169083333334925,
          "durationTicks": 35,
          "midi": 75,
          "name": "D#5",
          "ticks": 16103,
          "time": 148.00535683333334,
          "velocity": 0.9212598425196851
        },
        {
          "duration": 0.15624983333333375,
          "durationTicks": 17,
          "midi": 75,
          "name": "D#5",
          "ticks": 16151,
          "time": 148.44653283333335,
          "velocity": 0.952755905511811
        },
        {
          "duration": 0.9926460000000077,
          "durationTicks": 108,
          "midi": 75,
          "name": "D#5",
          "ticks": 16175,
          "time": 148.66712083333334,
          "velocity": 0.9212598425196851
        },
        {
          "duration": 0.15624983333336218,
          "durationTicks": 17,
          "midi": 73,
          "name": "C#5",
          "ticks": 16295,
          "time": 149.77006083333333,
          "velocity": 0.9212598425196851
        },
        {
          "duration": 0.15624983333333375,
          "durationTicks": 17,
          "midi": 75,
          "name": "D#5",
          "ticks": 16319,
          "time": 149.99064883333335,
          "velocity": 0.952755905511811
        },
        {
          "duration": 0.9926460000000077,
          "durationTicks": 108,
          "midi": 77,
          "name": "F5",
          "ticks": 16343,
          "time": 150.21123683333334,
          "velocity": 0.9606299212598425
        },
        {
          "duration": 0.1102939999999819,
          "durationTicks": 12,
          "midi": 68,
          "name": "G#4",
          "ticks": 16487,
          "time": 151.53476483333336,
          "velocity": 0.984251968503937
        },
        {
          "duration": 0.21139683333333892,
          "durationTicks": 23,
          "midi": 80,
          "name": "G#5",
          "ticks": 16511,
          "time": 151.75535283333335,
          "velocity": 0.952755905511811
        },
        {
          "duration": 0.20220566666665718,
          "durationTicks": 22,
          "midi": 78,
          "name": "F#5",
          "ticks": 16535,
          "time": 151.97594083333334,
          "velocity": 0.889763779527559
        },
        {
          "duration": 0.606617,
          "durationTicks": 66,
          "midi": 77,
          "name": "F5",
          "ticks": 16559,
          "time": 152.19652883333333,
          "velocity": 0.905511811023622
        },
        {
          "duration": 0.10110283333332859,
          "durationTicks": 11,
          "midi": 77,
          "name": "F5",
          "ticks": 16655,
          "time": 153.07888083333336,
          "velocity": 0.952755905511811
        },
        {
          "duration": 0.376837833333326,
          "durationTicks": 41,
          "midi": 78,
          "name": "F#5",
          "ticks": 16679,
          "time": 153.29946883333335,
          "velocity": 0.9212598425196851
        },
        {
          "duration": 0.33088200000000256,
          "durationTicks": 36,
          "midi": 77,
          "name": "F5",
          "ticks": 16727,
          "time": 153.74064483333333,
          "velocity": 0.9212598425196851
        },
        {
          "duration": 0.36764666666664425,
          "durationTicks": 40,
          "midi": 75,
          "name": "D#5",
          "ticks": 16775,
          "time": 154.18182083333335,
          "velocity": 0.84251968503937
        },
        {
          "duration": 0.3124996666666675,
          "durationTicks": 34,
          "midi": 73,
          "name": "C#5",
          "ticks": 16823,
          "time": 154.62299683333333,
          "velocity": 0.8976377952755905
        },
        {
          "duration": 0.29411733333333245,
          "durationTicks": 32,
          "midi": 72,
          "name": "C5",
          "ticks": 16871,
          "time": 155.06417283333334,
          "velocity": 0.952755905511811
        },
        {
          "duration": 0.1746321666666404,
          "durationTicks": 19,
          "midi": 68,
          "name": "G#4",
          "ticks": 16919,
          "time": 155.50534883333336,
          "velocity": 0.9133858267716536
        },
        {
          "duration": 0.7261021666666636,
          "durationTicks": 79,
          "midi": 75,
          "name": "D#5",
          "ticks": 16943,
          "time": 155.72593683333335,
          "velocity": 0.9212598425196851
        },
        {
          "duration": 0.36764666666664425,
          "durationTicks": 40,
          "midi": 75,
          "name": "D#5",
          "ticks": 17039,
          "time": 156.60828883333335,
          "velocity": 0.905511811023622
        },
        {
          "duration": 0.14705866666668044,
          "durationTicks": 16,
          "midi": 73,
          "name": "C#5",
          "ticks": 17087,
          "time": 157.04946483333333,
          "velocity": 0.9212598425196851
        },
        {
          "duration": 0.44117599999998447,
          "durationTicks": 48,
          "midi": 75,
          "name": "D#5",
          "ticks": 17111,
          "time": 157.27005283333335,
          "velocity": 0.937007874015748
        },
        {
          "duration": 0.10110283333335701,
          "durationTicks": 11,
          "midi": 73,
          "name": "C#5",
          "ticks": 17159,
          "time": 157.71122883333334,
          "velocity": 0.9133858267716536
        },
        {
          "duration": 0.16544099999998707,
          "durationTicks": 18,
          "midi": 75,
          "name": "D#5",
          "ticks": 17183,
          "time": 157.93181683333336,
          "velocity": 0.9212598425196851
        },
        {
          "duration": 0.624999333333335,
          "durationTicks": 68,
          "midi": 77,
          "name": "F5",
          "ticks": 17207,
          "time": 158.15240483333335,
          "velocity": 0.952755905511811
        },
        {
          "duration": 0.14705866666665202,
          "durationTicks": 16,
          "midi": 77,
          "name": "F5",
          "ticks": 17303,
          "time": 159.03475683333335,
          "velocity": 0.952755905511811
        },
        {
          "duration": 0.32169083333334925,
          "durationTicks": 35,
          "midi": 77,
          "name": "F5",
          "ticks": 17327,
          "time": 159.25534483333334,
          "velocity": 0.952755905511811
        },
        {
          "duration": 0.16544099999998707,
          "durationTicks": 18,
          "midi": 70,
          "name": "A#4",
          "ticks": 17375,
          "time": 159.69652083333335,
          "velocity": 0.8976377952755905
        },
        {
          "duration": 0.4136024999999961,
          "durationTicks": 45,
          "midi": 73,
          "name": "C#5",
          "ticks": 17399,
          "time": 159.91710883333334,
          "velocity": 0.9291338582677166
        },
        {
          "duration": 0.30330849999998577,
          "durationTicks": 33,
          "midi": 75,
          "name": "D#5",
          "ticks": 17447,
          "time": 160.35828483333336,
          "velocity": 0.952755905511811
        },
        {
          "duration": 0.3400731666666559,
          "durationTicks": 37,
          "midi": 80,
          "name": "G#5",
          "ticks": 17495,
          "time": 160.79946083333334,
          "velocity": 0.968503937007874
        },
        {
          "duration": 0.19301450000000386,
          "durationTicks": 21,
          "midi": 80,
          "name": "G#5",
          "ticks": 17543,
          "time": 161.24063683333335,
          "velocity": 0.889763779527559
        },
        {
          "duration": 0.14705866666665202,
          "durationTicks": 16,
          "midi": 78,
          "name": "F#5",
          "ticks": 17567,
          "time": 161.46122483333335,
          "velocity": 0.905511811023622
        },
        {
          "duration": 0.19301450000000386,
          "durationTicks": 21,
          "midi": 78,
          "name": "F#5",
          "ticks": 17591,
          "time": 161.68181283333334,
          "velocity": 0.9212598425196851
        },
        {
          "duration": 0.11948516666663522,
          "durationTicks": 13,
          "midi": 77,
          "name": "F5",
          "ticks": 17615,
          "time": 161.90240083333336,
          "velocity": 0.9763779527559056
        },
        {
          "duration": 0.18382333333332213,
          "durationTicks": 20,
          "midi": 75,
          "name": "D#5",
          "ticks": 17639,
          "time": 162.12298883333335,
          "velocity": 0.9291338582677166
        },
        {
          "duration": 0.19301450000000386,
          "durationTicks": 21,
          "midi": 78,
          "name": "F#5",
          "ticks": 17663,
          "time": 162.34357683333334,
          "velocity": 0.952755905511811
        },
        {
          "duration": 1.976100833333362,
          "durationTicks": 215,
          "midi": 77,
          "name": "F5",
          "ticks": 17687,
          "time": 162.56416483333334,
          "velocity": 0.968503937007874
        },
        {
          "duration": 0.19301450000000386,
          "durationTicks": 21,
          "midi": 68,
          "name": "G#4",
          "ticks": 18023,
          "time": 165.65239683333334,
          "velocity": 0.8818897637795275
        },
        {
          "duration": 0.21139683333336734,
          "durationTicks": 23,
          "midi": 80,
          "name": "G#5",
          "ticks": 18047,
          "time": 165.87298483333333,
          "velocity": 0.9133858267716536
        },
        {
          "duration": 0.10110283333332859,
          "durationTicks": 11,
          "midi": 78,
          "name": "F#5",
          "ticks": 18071,
          "time": 166.09357283333335,
          "velocity": 0.8740157480314961
        },
        {
          "duration": 0.4411760000000129,
          "durationTicks": 48,
          "midi": 77,
          "name": "F5",
          "ticks": 18095,
          "time": 166.31416083333335,
          "velocity": 0.905511811023622
        },
        {
          "duration": 0.14705866666665202,
          "durationTicks": 16,
          "midi": 77,
          "name": "F5",
          "ticks": 18191,
          "time": 167.19651283333334,
          "velocity": 0.9133858267716536
        },
        {
          "duration": 0.4044113333333428,
          "durationTicks": 44,
          "midi": 78,
          "name": "F#5",
          "ticks": 18215,
          "time": 167.41710083333334,
          "velocity": 0.9212598425196851
        },
        {
          "duration": 0.35845549999999093,
          "durationTicks": 39,
          "midi": 77,
          "name": "F5",
          "ticks": 18263,
          "time": 167.85827683333335,
          "velocity": 0.9291338582677166
        },
        {
          "duration": 0.3676466666666727,
          "durationTicks": 40,
          "midi": 75,
          "name": "D#5",
          "ticks": 18311,
          "time": 168.29945283333333,
          "velocity": 0.9133858267716536
        },
        {
          "duration": 0.33088200000000256,
          "durationTicks": 36,
          "midi": 73,
          "name": "C#5",
          "ticks": 18359,
          "time": 168.74062883333335,
          "velocity": 0.9212598425196851
        },
        {
          "duration": 0.35845549999999093,
          "durationTicks": 39,
          "midi": 72,
          "name": "C5",
          "ticks": 18407,
          "time": 169.18180483333336,
          "velocity": 0.952755905511811
        },
        {
          "duration": 0.10110283333335701,
          "durationTicks": 11,
          "midi": 68,
          "name": "G#4",
          "ticks": 18455,
          "time": 169.62298083333334,
          "velocity": 0.9133858267716536
        },
        {
          "duration": 0.707719833333357,
          "durationTicks": 77,
          "midi": 75,
          "name": "D#5",
          "ticks": 18479,
          "time": 169.84356883333334,
          "velocity": 0.9212598425196851
        },
        {
          "duration": 0.3676466666666727,
          "durationTicks": 40,
          "midi": 75,
          "name": "D#5",
          "ticks": 18575,
          "time": 170.72592083333333,
          "velocity": 0.9291338582677166
        },
        {
          "duration": 0.1378674999999987,
          "durationTicks": 15,
          "midi": 73,
          "name": "C#5",
          "ticks": 18623,
          "time": 171.16709683333335,
          "velocity": 0.8661417322834646
        },
        {
          "duration": 0.28492616666667914,
          "durationTicks": 31,
          "midi": 75,
          "name": "D#5",
          "ticks": 18647,
          "time": 171.38768483333334,
          "velocity": 0.937007874015748
        },
        {
          "duration": 0.1746321666666404,
          "durationTicks": 19,
          "midi": 73,
          "name": "C#5",
          "ticks": 18695,
          "time": 171.82886083333335,
          "velocity": 0.9133858267716536
        },
        {
          "duration": 0.11029400000001033,
          "durationTicks": 12,
          "midi": 75,
          "name": "D#5",
          "ticks": 18719,
          "time": 172.04944883333334,
          "velocity": 0.9212598425196851
        },
        {
          "duration": 0.6249993333333634,
          "durationTicks": 68,
          "midi": 77,
          "name": "F5",
          "ticks": 18743,
          "time": 172.27003683333334,
          "velocity": 0.952755905511811
        },
        {
          "duration": 0.11029400000001033,
          "durationTicks": 12,
          "midi": 77,
          "name": "F5",
          "ticks": 18839,
          "time": 173.15238883333333,
          "velocity": 0.952755905511811
        },
        {
          "duration": 0.30330849999998577,
          "durationTicks": 33,
          "midi": 77,
          "name": "F5",
          "ticks": 18863,
          "time": 173.37297683333335,
          "velocity": 0.952755905511811
        },
        {
          "duration": 0.11029400000001033,
          "durationTicks": 12,
          "midi": 78,
          "name": "F#5",
          "ticks": 18911,
          "time": 173.81415283333334,
          "velocity": 0.8976377952755905
        },
        {
          "duration": 0.33088199999997414,
          "durationTicks": 36,
          "midi": 70,
          "name": "A#4",
          "ticks": 18935,
          "time": 174.03474083333336,
          "velocity": 0.9291338582677166
        },
        {
          "duration": 0.32169083333334925,
          "durationTicks": 35,
          "midi": 78,
          "name": "F#5",
          "ticks": 18983,
          "time": 174.47591683333334,
          "velocity": 0.952755905511811
        },
        {
          "duration": 0.09191166666664685,
          "durationTicks": 10,
          "midi": 78,
          "name": "F#5",
          "ticks": 19031,
          "time": 174.91709283333336,
          "velocity": 0.952755905511811
        },
        {
          "duration": 0.36764666666664425,
          "durationTicks": 40,
          "midi": 80,
          "name": "G#5",
          "ticks": 19055,
          "time": 175.13768083333335,
          "velocity": 0.8976377952755905
        },
        {
          "duration": 0.13786750000002712,
          "durationTicks": 15,
          "midi": 72,
          "name": "C5",
          "ticks": 19103,
          "time": 175.57885683333333,
          "velocity": 0.937007874015748
        },
        {
          "duration": 0.33088200000000256,
          "durationTicks": 36,
          "midi": 72,
          "name": "C5",
          "ticks": 19127,
          "time": 175.79944483333335,
          "velocity": 0.9291338582677166
        },
        {
          "duration": 0.32169083333334925,
          "durationTicks": 35,
          "midi": 75,
          "name": "D#5",
          "ticks": 19175,
          "time": 176.24062083333334,
          "velocity": 0.9212598425196851
        },
        {
          "duration": 0.1102939999999819,
          "durationTicks": 12,
          "midi": 75,
          "name": "D#5",
          "ticks": 19223,
          "time": 176.68179683333335,
          "velocity": 0.952755905511811
        },
        {
          "duration": 0.8272049999999922,
          "durationTicks": 90,
          "midi": 75,
          "name": "D#5",
          "ticks": 19247,
          "time": 176.90238483333334,
          "velocity": 0.952755905511811
        },
        {
          "duration": 0.19301450000000386,
          "durationTicks": 21,
          "midi": 73,
          "name": "C#5",
          "ticks": 19367,
          "time": 178.00532483333333,
          "velocity": 0.9212598425196851
        },
        {
          "duration": 0.07352933333334022,
          "durationTicks": 8,
          "midi": 75,
          "name": "D#5",
          "ticks": 19391,
          "time": 178.22591283333335,
          "velocity": 0.952755905511811
        },
        {
          "duration": 0.9283078333333492,
          "durationTicks": 101,
          "midi": 77,
          "name": "F5",
          "ticks": 19415,
          "time": 178.44650083333335,
          "velocity": 0.9606299212598425
        },
        {
          "duration": 0.09191166666664685,
          "durationTicks": 10,
          "midi": 68,
          "name": "G#4",
          "ticks": 19559,
          "time": 179.77002883333336,
          "velocity": 0.984251968503937
        },
        {
          "duration": 0.21139683333333892,
          "durationTicks": 23,
          "midi": 80,
          "name": "G#5",
          "ticks": 19583,
          "time": 179.99061683333335,
          "velocity": 0.952755905511811
        },
        {
          "duration": 0.20220566666665718,
          "durationTicks": 22,
          "midi": 78,
          "name": "F#5",
          "ticks": 19607,
          "time": 180.21120483333334,
          "velocity": 0.889763779527559
        },
        {
          "duration": 0.606617,
          "durationTicks": 66,
          "midi": 77,
          "name": "F5",
          "ticks": 19631,
          "time": 180.43179283333333,
          "velocity": 0.905511811023622
        },
        {
          "duration": 0.10110283333332859,
          "durationTicks": 11,
          "midi": 77,
          "name": "F5",
          "ticks": 19727,
          "time": 181.31414483333336,
          "velocity": 0.952755905511811
        },
        {
          "duration": 0.376837833333326,
          "durationTicks": 41,
          "midi": 78,
          "name": "F#5",
          "ticks": 19751,
          "time": 181.53473283333335,
          "velocity": 0.9212598425196851
        },
        {
          "duration": 0.33088200000000256,
          "durationTicks": 36,
          "midi": 77,
          "name": "F5",
          "ticks": 19799,
          "time": 181.97590883333334,
          "velocity": 0.9212598425196851
        },
        {
          "duration": 0.36764666666664425,
          "durationTicks": 40,
          "midi": 75,
          "name": "D#5",
          "ticks": 19847,
          "time": 182.41708483333335,
          "velocity": 0.84251968503937
        },
        {
          "duration": 0.3124996666666675,
          "durationTicks": 34,
          "midi": 73,
          "name": "C#5",
          "ticks": 19895,
          "time": 182.85826083333333,
          "velocity": 0.8976377952755905
        },
        {
          "duration": 0.29411733333333245,
          "durationTicks": 32,
          "midi": 72,
          "name": "C5",
          "ticks": 19943,
          "time": 183.29943683333335,
          "velocity": 0.952755905511811
        },
        {
          "duration": 0.19301449999997544,
          "durationTicks": 21,
          "midi": 68,
          "name": "G#4",
          "ticks": 19991,
          "time": 183.74061283333336,
          "velocity": 0.9133858267716536
        },
        {
          "duration": 0.7261021666666636,
          "durationTicks": 79,
          "midi": 75,
          "name": "D#5",
          "ticks": 20015,
          "time": 183.96120083333335,
          "velocity": 0.9212598425196851
        },
        {
          "duration": 0.36764666666664425,
          "durationTicks": 40,
          "midi": 75,
          "name": "D#5",
          "ticks": 20111,
          "time": 184.84355283333335,
          "velocity": 0.905511811023622
        },
        {
          "duration": 0.14705866666665202,
          "durationTicks": 16,
          "midi": 73,
          "name": "C#5",
          "ticks": 20159,
          "time": 185.28472883333336,
          "velocity": 0.9212598425196851
        },
        {
          "duration": 0.44117599999998447,
          "durationTicks": 48,
          "midi": 75,
          "name": "D#5",
          "ticks": 20183,
          "time": 185.50531683333335,
          "velocity": 0.937007874015748
        },
        {
          "duration": 0.11948516666666364,
          "durationTicks": 13,
          "midi": 80,
          "name": "G#5",
          "ticks": 20231,
          "time": 185.94649283333334,
          "velocity": 0.952755905511811
        },
        {
          "duration": 0.19301449999997544,
          "durationTicks": 21,
          "midi": 78,
          "name": "F#5",
          "ticks": 20255,
          "time": 186.16708083333336,
          "velocity": 0.9212598425196851
        },
        {
          "duration": 0.624999333333335,
          "durationTicks": 68,
          "midi": 77,
          "name": "F5",
          "ticks": 20279,
          "time": 186.38766883333335,
          "velocity": 0.952755905511811
        },
        {
          "duration": 0.18382333333335055,
          "durationTicks": 20,
          "midi": 77,
          "name": "F5",
          "ticks": 20375,
          "time": 187.27002083333335,
          "velocity": 0.952755905511811
        },
        {
          "duration": 0.32169083333334925,
          "durationTicks": 35,
          "midi": 77,
          "name": "F5",
          "ticks": 20399,
          "time": 187.49060883333334,
          "velocity": 0.952755905511811
        },
        {
          "duration": 0.19301450000000386,
          "durationTicks": 21,
          "midi": 70,
          "name": "A#4",
          "ticks": 20447,
          "time": 187.93178483333335,
          "velocity": 0.8976377952755905
        },
        {
          "duration": 0.4136024999999961,
          "durationTicks": 45,
          "midi": 73,
          "name": "C#5",
          "ticks": 20471,
          "time": 188.15237283333335,
          "velocity": 0.9291338582677166
        },
        {
          "duration": 0.30330849999998577,
          "durationTicks": 33,
          "midi": 75,
          "name": "D#5",
          "ticks": 20519,
          "time": 188.59354883333336,
          "velocity": 0.952755905511811
        },
        {
          "duration": 0.29411733333333245,
          "durationTicks": 32,
          "midi": 80,
          "name": "G#5",
          "ticks": 20567,
          "time": 189.03472483333334,
          "velocity": 0.968503937007874
        },
        {
          "duration": 0.19301450000000386,
          "durationTicks": 21,
          "midi": 80,
          "name": "G#5",
          "ticks": 20615,
          "time": 189.47590083333336,
          "velocity": 0.889763779527559
        },
        {
          "duration": 0.20220566666665718,
          "durationTicks": 22,
          "midi": 78,
          "name": "F#5",
          "ticks": 20639,
          "time": 189.69648883333335,
          "velocity": 0.905511811023622
        },
        {
          "duration": 0.19301450000000386,
          "durationTicks": 21,
          "midi": 78,
          "name": "F#5",
          "ticks": 20663,
          "time": 189.91707683333334,
          "velocity": 0.9212598425196851
        },
        {
          "duration": 0.10110283333332859,
          "durationTicks": 11,
          "midi": 77,
          "name": "F5",
          "ticks": 20687,
          "time": 190.13766483333336,
          "velocity": 0.9763779527559056
        },
        {
          "duration": 0.1378674999999987,
          "durationTicks": 15,
          "midi": 75,
          "name": "D#5",
          "ticks": 20711,
          "time": 190.35825283333335,
          "velocity": 0.9291338582677166
        },
        {
          "duration": 0.19301450000000386,
          "durationTicks": 21,
          "midi": 78,
          "name": "F#5",
          "ticks": 20735,
          "time": 190.57884083333335,
          "velocity": 0.952755905511811
        },
        {
          "duration": 1.2224251666666817,
          "durationTicks": 133,
          "midi": 77,
          "name": "F5",
          "ticks": 20759,
          "time": 190.79942883333334,
          "velocity": 0.968503937007874
        },
        {
          "duration": 0.4411760000000129,
          "durationTicks": 48,
          "midi": 77,
          "name": "F5",
          "ticks": 20903,
          "time": 192.12295683333335,
          "velocity": 0.9212598425196851
        },
        {
          "duration": 0.22058799999999223,
          "durationTicks": 24,
          "midi": 77,
          "name": "F5",
          "ticks": 20951,
          "time": 192.56413283333336,
          "velocity": 0.8818897637795275
        },
        {
          "duration": 0.22058799999999223,
          "durationTicks": 24,
          "midi": 75,
          "name": "D#5",
          "ticks": 20975,
          "time": 192.78472083333335,
          "velocity": 0.9212598425196851
        },
        {
          "duration": 0.6617640000000051,
          "durationTicks": 72,
          "midi": 73,
          "name": "C#5",
          "ticks": 20999,
          "time": 193.00530883333334,
          "velocity": 0.889763779527559
        },
        {
          "duration": 0.1378674999999987,
          "durationTicks": 15,
          "midi": 77,
          "name": "F5",
          "ticks": 21143,
          "time": 194.32883683333336,
          "velocity": 0.968503937007874
        },
        {
          "duration": 0.3860290000000077,
          "durationTicks": 42,
          "midi": 77,
          "name": "F5",
          "ticks": 21167,
          "time": 194.54942483333335,
          "velocity": 0.952755905511811
        },
        {
          "duration": 0.16544099999998707,
          "durationTicks": 18,
          "midi": 70,
          "name": "A#4",
          "ticks": 21215,
          "time": 194.99060083333336,
          "velocity": 0.8976377952755905
        },
        {
          "duration": 0.33088200000000256,
          "durationTicks": 36,
          "midi": 73,
          "name": "C#5",
          "ticks": 21239,
          "time": 195.21118883333335,
          "velocity": 0.9291338582677166
        },
        {
          "duration": 0.3033085000000142,
          "durationTicks": 33,
          "midi": 75,
          "name": "D#5",
          "ticks": 21287,
          "time": 195.65236483333334,
          "velocity": 0.952755905511811
        },
        {
          "duration": 0.4136024999999961,
          "durationTicks": 45,
          "midi": 80,
          "name": "G#5",
          "ticks": 21335,
          "time": 196.09354083333335,
          "velocity": 0.968503937007874
        },
        {
          "duration": 0.11029400000001033,
          "durationTicks": 12,
          "midi": 80,
          "name": "G#5",
          "ticks": 21383,
          "time": 196.53471683333333,
          "velocity": 0.952755905511811
        },
        {
          "duration": 0.19301450000000386,
          "durationTicks": 21,
          "midi": 78,
          "name": "F#5",
          "ticks": 21407,
          "time": 196.75530483333335,
          "velocity": 0.905511811023622
        },
        {
          "duration": 0.11029400000001033,
          "durationTicks": 12,
          "midi": 78,
          "name": "F#5",
          "ticks": 21431,
          "time": 196.97589283333335,
          "velocity": 0.9212598425196851
        },
        {
          "duration": 0.19301450000000386,
          "durationTicks": 21,
          "midi": 77,
          "name": "F5",
          "ticks": 21455,
          "time": 197.19648083333334,
          "velocity": 0.9763779527559056
        },
        {
          "duration": 0.1102939999999819,
          "durationTicks": 12,
          "midi": 75,
          "name": "D#5",
          "ticks": 21479,
          "time": 197.41706883333336,
          "velocity": 0.9291338582677166
        },
        {
          "duration": 0.11948516666666364,
          "durationTicks": 13,
          "midi": 78,
          "name": "F#5",
          "ticks": 21503,
          "time": 197.63765683333335,
          "velocity": 0.952755905511811
        },
        {
          "duration": 2.9779379999999946,
          "durationTicks": 324,
          "midi": 77,
          "name": "F5",
          "ticks": 21527,
          "time": 197.85824483333334,
          "velocity": 0.968503937007874
        },
        {
          "duration": 0.19301450000000386,
          "durationTicks": 21,
          "midi": 68,
          "name": "G#4",
          "ticks": 21863,
          "time": 200.94647683333335,
          "velocity": 0.952755905511811
        },
        {
          "duration": 0.21139683333333892,
          "durationTicks": 23,
          "midi": 80,
          "name": "G#5",
          "ticks": 21887,
          "time": 201.16706483333334,
          "velocity": 0.952755905511811
        },
        {
          "duration": 0.14705866666668044,
          "durationTicks": 16,
          "midi": 78,
          "name": "F#5",
          "ticks": 21911,
          "time": 201.38765283333333,
          "velocity": 0.9291338582677166
        },
        {
          "duration": 0.7352933333333453,
          "durationTicks": 80,
          "midi": 77,
          "name": "F5",
          "ticks": 21935,
          "time": 201.60824083333335,
          "velocity": 0.8267716535433071
        },
        {
          "duration": 0.1102939999999819,
          "durationTicks": 12,
          "midi": 77,
          "name": "F5",
          "ticks": 22031,
          "time": 202.49059283333335,
          "velocity": 0.8346456692913385
        },
        {
          "duration": 0.3676466666666727,
          "durationTicks": 40,
          "midi": 78,
          "name": "F#5",
          "ticks": 22055,
          "time": 202.71118083333334,
          "velocity": 0.84251968503937
        },
        {
          "duration": 0.36764666666664425,
          "durationTicks": 40,
          "midi": 77,
          "name": "F5",
          "ticks": 22103,
          "time": 203.15235683333336,
          "velocity": 0.7952755905511811
        },
        {
          "duration": 0.3860290000000077,
          "durationTicks": 42,
          "midi": 75,
          "name": "D#5",
          "ticks": 22151,
          "time": 203.59353283333334,
          "velocity": 0.8267716535433071
        },
        {
          "duration": 0.33088200000000256,
          "durationTicks": 36,
          "midi": 73,
          "name": "C#5",
          "ticks": 22199,
          "time": 204.03470883333335,
          "velocity": 0.8031496062992126
        },
        {
          "duration": 0.3676466666666727,
          "durationTicks": 40,
          "midi": 72,
          "name": "C5",
          "ticks": 22247,
          "time": 204.47588483333334,
          "velocity": 0.7637795275590551
        },
        {
          "duration": 0.1102939999999819,
          "durationTicks": 12,
          "midi": 68,
          "name": "G#4",
          "ticks": 22295,
          "time": 204.91706083333335,
          "velocity": 0.7874015748031497
        },
        {
          "duration": 0.6158081666666533,
          "durationTicks": 67,
          "midi": 75,
          "name": "D#5",
          "ticks": 22319,
          "time": 205.13764883333334,
          "velocity": 0.8188976377952756
        },
        {
          "duration": 0.18382333333335055,
          "durationTicks": 20,
          "midi": 75,
          "name": "D#5",
          "ticks": 22391,
          "time": 205.79941283333335,
          "velocity": 0.7637795275590551
        },
        {
          "duration": 0.3676466666666727,
          "durationTicks": 40,
          "midi": 75,
          "name": "D#5",
          "ticks": 22415,
          "time": 206.02000083333334,
          "velocity": 0.8031496062992126
        },
        {
          "duration": 0.1378674999999987,
          "durationTicks": 15,
          "midi": 73,
          "name": "C#5",
          "ticks": 22463,
          "time": 206.46117683333335,
          "velocity": 0.7559055118110236
        },
        {
          "duration": 0.4136024999999961,
          "durationTicks": 45,
          "midi": 75,
          "name": "D#5",
          "ticks": 22487,
          "time": 206.68176483333335,
          "velocity": 0.8031496062992126
        },
        {
          "duration": 0.11948516666663522,
          "durationTicks": 13,
          "midi": 73,
          "name": "C#5",
          "ticks": 22535,
          "time": 207.12294083333336,
          "velocity": 0.7637795275590551
        },
        {
          "duration": 0.1746321666666404,
          "durationTicks": 19,
          "midi": 75,
          "name": "D#5",
          "ticks": 22559,
          "time": 207.34352883333335,
          "velocity": 0.7874015748031497
        },
        {
          "duration": 1.1397046666666597,
          "durationTicks": 124,
          "midi": 77,
          "name": "F5",
          "ticks": 22583,
          "time": 207.56411683333334,
          "velocity": 0.8267716535433071
        }
      ]
    },
    {
      "channel": 0,
      "controlChanges": {
        "0": [
          {
            "number": 0,
            "ticks": 161,
            "time": 1.4797778333333333,
            "value": 0
          }
        ],
        "32": [
          {
            "number": 32,
            "ticks": 165,
            "time": 1.5165425000000001,
            "value": 0.015748031496062992
          }
        ],
        "121": [
          {
            "number": 121,
            "ticks": 157,
            "time": 1.4430131666666668,
            "value": 0
          }
        ]
      },
      "pitchBends": [],
      "instrument": {
        "family": "piano",
        "number": 0,
        "name": "acoustic grand piano"
      },
      "name": "Melo 2",
      "notes": [],
      "endOfTrackTicks": 21935
    },
    {
      "channel": 2,
      "controlChanges": {
        "1": [
          {
            "number": 1,
            "ticks": 1379,
            "time": 12.674618833333334,
            "value": 0.3543307086614173
          },
          {
            "number": 1,
            "ticks": 1414,
            "time": 12.996309666666669,
            "value": 0
          },
          {
            "number": 1,
            "ticks": 4297,
            "time": 39.49444316666667,
            "value": 0.3543307086614173
          },
          {
            "number": 1,
            "ticks": 4319,
            "time": 39.696648833333334,
            "value": 0
          },
          {
            "number": 1,
            "ticks": 4393,
            "time": 40.37679516666667,
            "value": 0.3543307086614173
          },
          {
            "number": 1,
            "ticks": 4415,
            "time": 40.57900083333333,
            "value": 0
          },
          {
            "number": 1,
            "ticks": 4489,
            "time": 41.25914716666667,
            "value": 0.3543307086614173
          },
          {
            "number": 1,
            "ticks": 4511,
            "time": 41.461352833333336,
            "value": 0
          },
          {
            "number": 1,
            "ticks": 4585,
            "time": 42.14149916666667,
            "value": 0.3543307086614173
          },
          {
            "number": 1,
            "ticks": 4607,
            "time": 42.343704833333334,
            "value": 0
          },
          {
            "number": 1,
            "ticks": 4681,
            "time": 43.023851166666674,
            "value": 0.3543307086614173
          },
          {
            "number": 1,
            "ticks": 4703,
            "time": 43.22605683333334,
            "value": 0
          },
          {
            "number": 1,
            "ticks": 4777,
            "time": 43.90620316666667,
            "value": 0.3543307086614173
          },
          {
            "number": 1,
            "ticks": 4799,
            "time": 44.108408833333336,
            "value": 0
          },
          {
            "number": 1,
            "ticks": 5065,
            "time": 46.55325916666667,
            "value": 0.3543307086614173
          },
          {
            "number": 1,
            "ticks": 5087,
            "time": 46.755464833333335,
            "value": 0
          },
          {
            "number": 1,
            "ticks": 5161,
            "time": 47.43561116666667,
            "value": 0.3543307086614173
          },
          {
            "number": 1,
            "ticks": 5183,
            "time": 47.63781683333334,
            "value": 0
          },
          {
            "number": 1,
            "ticks": 5257,
            "time": 48.31796316666667,
            "value": 0.3543307086614173
          },
          {
            "number": 1,
            "ticks": 5279,
            "time": 48.52016883333334,
            "value": 0
          },
          {
            "number": 1,
            "ticks": 5353,
            "time": 49.20031516666667,
            "value": 0.3543307086614173
          },
          {
            "number": 1,
            "ticks": 5375,
            "time": 49.402520833333334,
            "value": 0
          },
          {
            "number": 1,
            "ticks": 6755,
            "time": 62.086330833333335,
            "value": 0.3543307086614173
          },
          {
            "number": 1,
            "ticks": 6790,
            "time": 62.40802166666666,
            "value": 0
          },
          {
            "number": 1,
            "ticks": 8291,
            "time": 76.20396283333334,
            "value": 0.3543307086614173
          },
          {
            "number": 1,
            "ticks": 8326,
            "time": 76.52565366666666,
            "value": 0
          },
          {
            "number": 1,
            "ticks": 16739,
            "time": 153.85093883333334,
            "value": 0.3543307086614173
          },
          {
            "number": 1,
            "ticks": 16774,
            "time": 154.1726296666667,
            "value": 0
          },
          {
            "number": 1,
            "ticks": 18275,
            "time": 167.96857083333336,
            "value": 0.3543307086614173
          },
          {
            "number": 1,
            "ticks": 18310,
            "time": 168.29026166666668,
            "value": 0
          },
          {
            "number": 1,
            "ticks": 19811,
            "time": 182.08620283333335,
            "value": 0.3543307086614173
          },
          {
            "number": 1,
            "ticks": 19846,
            "time": 182.4078936666667,
            "value": 0
          }
        ],
        "6": [
          {
            "number": 6,
            "ticks": 186,
            "time": 1.709557,
            "value": 0.09448818897637795
          }
        ],
        "7": [
          {
            "number": 7,
            "ticks": 173,
            "time": 1.5900718333333332,
            "value": 0.7480314960629921
          }
        ],
        "10": [
          {
            "number": 10,
            "ticks": 177,
            "time": 1.6268365,
            "value": 0.5039370078740157
          }
        ],
        "11": [
          {
            "number": 11,
            "ticks": 178,
            "time": 1.6360276666666669,
            "value": 0.7795275590551181
          },
          {
            "number": 11,
            "ticks": 11519,
            "time": 105.87304883333333,
            "value": 0.7559055118110236
          },
          {
            "number": 11,
            "ticks": 11523,
            "time": 105.9098135,
            "value": 0.7244094488188977
          },
          {
            "number": 11,
            "ticks": 11527,
            "time": 105.94657816666665,
            "value": 0.6929133858267716
          },
          {
            "number": 11,
            "ticks": 11532,
            "time": 105.992534,
            "value": 0.6614173228346457
          },
          {
            "number": 11,
            "ticks": 11536,
            "time": 106.02929866666666,
            "value": 0.6299212598425197
          },
          {
            "number": 11,
            "ticks": 11540,
            "time": 106.06606333333333,
            "value": 0.5984251968503937
          },
          {
            "number": 11,
            "ticks": 11545,
            "time": 106.11201916666666,
            "value": 0.5669291338582677
          },
          {
            "number": 11,
            "ticks": 11549,
            "time": 106.14878383333333,
            "value": 0.5354330708661418
          },
          {
            "number": 11,
            "ticks": 11553,
            "time": 106.1855485,
            "value": 0.5039370078740157
          },
          {
            "number": 11,
            "ticks": 11558,
            "time": 106.23150433333333,
            "value": 0.47244094488188976
          },
          {
            "number": 11,
            "ticks": 11562,
            "time": 106.268269,
            "value": 0.4330708661417323
          },
          {
            "number": 11,
            "ticks": 11659,
            "time": 107.15981216666665,
            "value": 0.7795275590551181
          },
          {
            "number": 11,
            "ticks": 20879,
            "time": 191.90236883333336,
            "value": 0.7559055118110236
          },
          {
            "number": 11,
            "ticks": 20883,
            "time": 191.9391335,
            "value": 0.7165354330708661
          },
          {
            "number": 11,
            "ticks": 20888,
            "time": 191.98508933333335,
            "value": 0.6692913385826772
          },
          {
            "number": 11,
            "ticks": 20892,
            "time": 192.02185400000002,
            "value": 0.6299212598425197
          },
          {
            "number": 11,
            "ticks": 20897,
            "time": 192.06780983333334,
            "value": 0.5826771653543307
          },
          {
            "number": 11,
            "ticks": 20901,
            "time": 192.1045745,
            "value": 0.5354330708661418
          },
          {
            "number": 11,
            "ticks": 20906,
            "time": 192.15053033333334,
            "value": 0.49606299212598426
          },
          {
            "number": 11,
            "ticks": 20910,
            "time": 192.187295,
            "value": 0.44881889763779526
          },
          {
            "number": 11,
            "ticks": 20915,
            "time": 192.23325083333336,
            "value": 0.4094488188976378
          },
          {
            "number": 11,
            "ticks": 20919,
            "time": 192.2700155,
            "value": 0.36220472440944884
          },
          {
            "number": 11,
            "ticks": 20924,
            "time": 192.31597133333335,
            "value": 0.31496062992125984
          },
          {
            "number": 11,
            "ticks": 20928,
            "time": 192.352736,
            "value": 0.2755905511811024
          },
          {
            "number": 11,
            "ticks": 20933,
            "time": 192.39869183333334,
            "value": 0.2283464566929134
          },
          {
            "number": 11,
            "ticks": 20937,
            "time": 192.43545650000002,
            "value": 0.1889763779527559
          },
          {
            "number": 11,
            "ticks": 20942,
            "time": 192.48141233333334,
            "value": 0.14173228346456693
          },
          {
            "number": 11,
            "ticks": 20946,
            "time": 192.518177,
            "value": 0.09448818897637795
          },
          {
            "number": 11,
            "ticks": 21075,
            "time": 193.7038375,
            "value": 0.7795275590551181
          },
          {
            "number": 11,
            "ticks": 21839,
            "time": 200.72588883333336,
            "value": 0.7559055118110236
          },
          {
            "number": 11,
            "ticks": 21843,
            "time": 200.7626535,
            "value": 0.7165354330708661
          },
          {
            "number": 11,
            "ticks": 21848,
            "time": 200.80860933333335,
            "value": 0.6692913385826772
          },
          {
            "number": 11,
            "ticks": 21852,
            "time": 200.845374,
            "value": 0.6299212598425197
          },
          {
            "number": 11,
            "ticks": 21857,
            "time": 200.89132983333334,
            "value": 0.5826771653543307
          },
          {
            "number": 11,
            "ticks": 21861,
            "time": 200.92809450000001,
            "value": 0.5354330708661418
          },
          {
            "number": 11,
            "ticks": 21866,
            "time": 200.97405033333334,
            "value": 0.49606299212598426
          },
          {
            "number": 11,
            "ticks": 21870,
            "time": 201.010815,
            "value": 0.44881889763779526
          },
          {
            "number": 11,
            "ticks": 21875,
            "time": 201.05677083333336,
            "value": 0.4094488188976378
          },
          {
            "number": 11,
            "ticks": 21879,
            "time": 201.0935355,
            "value": 0.36220472440944884
          },
          {
            "number": 11,
            "ticks": 21884,
            "time": 201.13949133333335,
            "value": 0.31496062992125984
          },
          {
            "number": 11,
            "ticks": 21888,
            "time": 201.176256,
            "value": 0.2755905511811024
          },
          {
            "number": 11,
            "ticks": 21893,
            "time": 201.22221183333335,
            "value": 0.2283464566929134
          },
          {
            "number": 11,
            "ticks": 21897,
            "time": 201.25897650000002,
            "value": 0.1889763779527559
          },
          {
            "number": 11,
            "ticks": 21902,
            "time": 201.30493233333334,
            "value": 0.14173228346456693
          },
          {
            "number": 11,
            "ticks": 21906,
            "time": 201.341697,
            "value": 0.09448818897637795
          }
        ],
        "71": [
          {
            "number": 71,
            "ticks": 183,
            "time": 1.6819835,
            "value": 0.5039370078740157
          }
        ],
        "74": [
          {
            "number": 74,
            "ticks": 182,
            "time": 1.6727923333333332,
            "value": 0.5039370078740157
          }
        ],
        "91": [
          {
            "number": 91,
            "ticks": 179,
            "time": 1.6452188333333333,
            "value": 0.3543307086614173
          }
        ],
        "93": [
          {
            "number": 93,
            "ticks": 180,
            "time": 1.65441,
            "value": 0.2677165354330709
          }
        ],
        "94": [
          {
            "number": 94,
            "ticks": 181,
            "time": 1.6636011666666668,
            "value": 0.06299212598425197
          }
        ],
        "100": [
          {
            "number": 100,
            "ticks": 185,
            "time": 1.7003658333333334,
            "value": 0
          }
        ],
        "101": [
          {
            "number": 101,
            "ticks": 184,
            "time": 1.6911746666666667,
            "value": 0
          }
        ]
      },
      "pitchBends": [
        {
          "ticks": 1319,
          "time": 12.123148833333335,
          "value": -0.16650390625
        },
        {
          "ticks": 1325,
          "time": 12.178295833333333,
          "value": -0.10791015625
        },
        {
          "ticks": 1327,
          "time": 12.196678166666668,
          "value": -0.053955078125
        },
        {
          "ticks": 1330,
          "time": 12.224251666666667,
          "value": 0
        },
        {
          "ticks": 1751,
          "time": 16.093732833333334,
          "value": -0.16650390625
        },
        {
          "ticks": 1755,
          "time": 16.1304975,
          "value": -0.10791015625
        },
        {
          "ticks": 1758,
          "time": 16.158071000000003,
          "value": -0.053955078125
        },
        {
          "ticks": 1761,
          "time": 16.185644500000002,
          "value": 0
        },
        {
          "ticks": 2327,
          "time": 21.387844833333336,
          "value": 0.16650390625
        },
        {
          "ticks": 2350,
          "time": 21.599241666666668,
          "value": 0
        },
        {
          "ticks": 4919,
          "time": 45.21134883333333,
          "value": -0.083251953125
        },
        {
          "ticks": 4921,
          "time": 45.229731166666674,
          "value": -0.053955078125
        },
        {
          "ticks": 4924,
          "time": 45.25730466666667,
          "value": -0.0269775390625
        },
        {
          "ticks": 4927,
          "time": 45.28487816666667,
          "value": 0
        },
        {
          "ticks": 5591,
          "time": 51.387812833333335,
          "value": -0.1248779296875
        },
        {
          "ticks": 5594,
          "time": 51.41538633333334,
          "value": -0.0809326171875
        },
        {
          "ticks": 5597,
          "time": 51.44295983333333,
          "value": -0.0404052734375
        },
        {
          "ticks": 5600,
          "time": 51.470533333333336,
          "value": 0
        },
        {
          "ticks": 5687,
          "time": 52.27016483333333,
          "value": -0.083251953125
        },
        {
          "ticks": 5689,
          "time": 52.288547166666675,
          "value": -0.053955078125
        },
        {
          "ticks": 5692,
          "time": 52.31612066666667,
          "value": -0.0269775390625
        },
        {
          "ticks": 5695,
          "time": 52.34369416666667,
          "value": 0
        },
        {
          "ticks": 6695,
          "time": 61.53486083333333,
          "value": -0.16650390625
        },
        {
          "ticks": 6701,
          "time": 61.59000783333334,
          "value": -0.10791015625
        },
        {
          "ticks": 6703,
          "time": 61.608390166666666,
          "value": -0.053955078125
        },
        {
          "ticks": 6706,
          "time": 61.63596366666666,
          "value": 0
        },
        {
          "ticks": 7895,
          "time": 72.56426083333334,
          "value": -0.083251953125
        },
        {
          "ticks": 7899,
          "time": 72.6010255,
          "value": -0.053955078125
        },
        {
          "ticks": 7901,
          "time": 72.61940783333333,
          "value": -0.0269775390625
        },
        {
          "ticks": 7904,
          "time": 72.64698133333333,
          "value": 0
        },
        {
          "ticks": 8231,
          "time": 75.65249283333333,
          "value": -0.16650390625
        },
        {
          "ticks": 8237,
          "time": 75.70763983333333,
          "value": -0.10791015625
        },
        {
          "ticks": 8239,
          "time": 75.72602216666665,
          "value": -0.053955078125
        },
        {
          "ticks": 8242,
          "time": 75.75359566666666,
          "value": 0
        },
        {
          "ticks": 8663,
          "time": 79.62307683333333,
          "value": -0.16650390625
        },
        {
          "ticks": 8667,
          "time": 79.6598415,
          "value": -0.10791015625
        },
        {
          "ticks": 8670,
          "time": 79.687415,
          "value": -0.053955078125
        },
        {
          "ticks": 8673,
          "time": 79.7149885,
          "value": 0
        },
        {
          "ticks": 9239,
          "time": 84.91718883333333,
          "value": 0.16650390625
        },
        {
          "ticks": 9262,
          "time": 85.12858566666665,
          "value": 0
        },
        {
          "ticks": 11159,
          "time": 102.56422883333333,
          "value": -0.16650390625
        },
        {
          "ticks": 11183,
          "time": 102.78481683333332,
          "value": 0
        },
        {
          "ticks": 16343,
          "time": 150.21123683333334,
          "value": -0.083251953125
        },
        {
          "ticks": 16347,
          "time": 150.24800150000002,
          "value": -0.053955078125
        },
        {
          "ticks": 16349,
          "time": 150.26638383333335,
          "value": -0.0269775390625
        },
        {
          "ticks": 16352,
          "time": 150.29395733333334,
          "value": 0
        },
        {
          "ticks": 16679,
          "time": 153.29946883333335,
          "value": -0.16650390625
        },
        {
          "ticks": 16685,
          "time": 153.35461583333336,
          "value": -0.10791015625
        },
        {
          "ticks": 16687,
          "time": 153.3729981666667,
          "value": -0.053955078125
        },
        {
          "ticks": 16690,
          "time": 153.40057166666668,
          "value": 0
        },
        {
          "ticks": 17111,
          "time": 157.27005283333335,
          "value": -0.16650390625
        },
        {
          "ticks": 17115,
          "time": 157.3068175,
          "value": -0.10791015625
        },
        {
          "ticks": 17118,
          "time": 157.334391,
          "value": -0.053955078125
        },
        {
          "ticks": 17121,
          "time": 157.3619645,
          "value": 0
        },
        {
          "ticks": 17687,
          "time": 162.56416483333334,
          "value": 0.16650390625
        },
        {
          "ticks": 17710,
          "time": 162.77556166666668,
          "value": 0
        },
        {
          "ticks": 18215,
          "time": 167.41710083333334,
          "value": -0.16650390625
        },
        {
          "ticks": 18221,
          "time": 167.47224783333334,
          "value": -0.10791015625
        },
        {
          "ticks": 18223,
          "time": 167.49063016666668,
          "value": -0.053955078125
        },
        {
          "ticks": 18226,
          "time": 167.5182036666667,
          "value": 0
        },
        {
          "ticks": 19415,
          "time": 178.44650083333335,
          "value": -0.083251953125
        },
        {
          "ticks": 19419,
          "time": 178.48326550000002,
          "value": -0.053955078125
        },
        {
          "ticks": 19421,
          "time": 178.50164783333335,
          "value": -0.0269775390625
        },
        {
          "ticks": 19424,
          "time": 178.52922133333334,
          "value": 0
        },
        {
          "ticks": 19751,
          "time": 181.53473283333335,
          "value": -0.16650390625
        },
        {
          "ticks": 19757,
          "time": 181.58987983333336,
          "value": -0.10791015625
        },
        {
          "ticks": 19759,
          "time": 181.6082621666667,
          "value": -0.053955078125
        },
        {
          "ticks": 19762,
          "time": 181.63583566666668,
          "value": 0
        },
        {
          "ticks": 20183,
          "time": 185.50531683333335,
          "value": -0.16650390625
        },
        {
          "ticks": 20187,
          "time": 185.5420815,
          "value": -0.10791015625
        },
        {
          "ticks": 20190,
          "time": 185.569655,
          "value": -0.053955078125
        },
        {
          "ticks": 20193,
          "time": 185.5972285,
          "value": 0
        },
        {
          "ticks": 20759,
          "time": 190.79942883333334,
          "value": 0.16650390625
        },
        {
          "ticks": 20782,
          "time": 191.01082566666668,
          "value": 0
        },
        {
          "ticks": 21527,
          "time": 197.85824483333334,
          "value": 0.16650390625
        },
        {
          "ticks": 21550,
          "time": 198.06964166666668,
          "value": 0
        }
      ],
      "instrument": {
        "family": "synth lead",
        "number": 82,
        "name": "lead 3 (calliope)"
      },
      "name": "",
      "notes": [
        {
          "duration": 0.4411759999999987,
          "durationTicks": 48,
          "midi": 80,
          "name": "G#5",
          "ticks": 1199,
          "time": 11.020208833333335,
          "velocity": 0.7795275590551181
        },
        {
          "duration": 0.4319848333333347,
          "durationTicks": 47,
          "midi": 73,
          "name": "C#5",
          "ticks": 1200,
          "time": 11.029399999999999,
          "velocity": 0.7795275590551181
        },
        {
          "duration": 0.1011028333333357,
          "durationTicks": 11,
          "midi": 80,
          "name": "G#5",
          "ticks": 1295,
          "time": 11.902560833333332,
          "velocity": 0.7795275590551181
        },
        {
          "duration": 0.09191166666666817,
          "durationTicks": 10,
          "midi": 73,
          "name": "C#5",
          "ticks": 1296,
          "time": 11.911752,
          "velocity": 0.7795275590551181
        },
        {
          "duration": 0.4227936666666636,
          "durationTicks": 46,
          "midi": 82,
          "name": "A#5",
          "ticks": 1319,
          "time": 12.123148833333335,
          "velocity": 0.7795275590551181
        },
        {
          "duration": 0.4227936666666672,
          "durationTicks": 46,
          "midi": 75,
          "name": "D#5",
          "ticks": 1320,
          "time": 12.13234,
          "velocity": 0.7795275590551181
        },
        {
          "duration": 0.330881999999999,
          "durationTicks": 36,
          "midi": 80,
          "name": "G#5",
          "ticks": 1367,
          "time": 12.564324833333334,
          "velocity": 0.7795275590551181
        },
        {
          "duration": 0.3216908333333315,
          "durationTicks": 35,
          "midi": 73,
          "name": "C#5",
          "ticks": 1368,
          "time": 12.573516000000001,
          "velocity": 0.7795275590551181
        },
        {
          "duration": 0.36764666666666557,
          "durationTicks": 40,
          "midi": 78,
          "name": "F#5",
          "ticks": 1415,
          "time": 13.005500833333333,
          "velocity": 0.7795275590551181
        },
        {
          "duration": 0.3676466666666691,
          "durationTicks": 40,
          "midi": 72,
          "name": "C5",
          "ticks": 1416,
          "time": 13.014692,
          "velocity": 0.7795275590551181
        },
        {
          "duration": 0.31249966666666396,
          "durationTicks": 34,
          "midi": 77,
          "name": "F5",
          "ticks": 1463,
          "time": 13.446676833333335,
          "velocity": 0.7795275590551181
        },
        {
          "duration": 0.3124996666666675,
          "durationTicks": 34,
          "midi": 70,
          "name": "A#4",
          "ticks": 1464,
          "time": 13.455867999999999,
          "velocity": 0.7795275590551181
        },
        {
          "duration": 0.22977916666666687,
          "durationTicks": 25,
          "midi": 75,
          "name": "D#5",
          "ticks": 1511,
          "time": 13.887852833333334,
          "velocity": 0.7795275590551181
        },
        {
          "duration": 0.22977916666666687,
          "durationTicks": 25,
          "midi": 68,
          "name": "G#4",
          "ticks": 1512,
          "time": 13.897044000000001,
          "velocity": 0.7795275590551181
        },
        {
          "duration": 0.1011028333333357,
          "durationTicks": 11,
          "midi": 75,
          "name": "D#5",
          "ticks": 1559,
          "time": 14.329028833333332,
          "velocity": 0.7795275590551181
        },
        {
          "duration": 0.14705866666666623,
          "durationTicks": 16,
          "midi": 68,
          "name": "G#4",
          "ticks": 1560,
          "time": 14.33822,
          "velocity": 0.7795275590551181
        },
        {
          "duration": 0.7352933333333311,
          "durationTicks": 80,
          "midi": 78,
          "name": "F#5",
          "ticks": 1583,
          "time": 14.549616833333335,
          "velocity": 0.7795275590551181
        },
        {
          "duration": 0.7352933333333347,
          "durationTicks": 80,
          "midi": 72,
          "name": "C5",
          "ticks": 1584,
          "time": 14.558807999999999,
          "velocity": 0.7795275590551181
        },
        {
          "duration": 0.39522016666666815,
          "durationTicks": 43,
          "midi": 78,
          "name": "F#5",
          "ticks": 1679,
          "time": 15.431968833333332,
          "velocity": 0.7795275590551181
        },
        {
          "duration": 0.39522016666666815,
          "durationTicks": 43,
          "midi": 72,
          "name": "C5",
          "ticks": 1680,
          "time": 15.44116,
          "velocity": 0.7795275590551181
        },
        {
          "duration": 0.2113968333333318,
          "durationTicks": 23,
          "midi": 77,
          "name": "F5",
          "ticks": 1727,
          "time": 15.873144833333335,
          "velocity": 0.7795275590551181
        },
        {
          "duration": 0.2113968333333318,
          "durationTicks": 23,
          "midi": 70,
          "name": "A#4",
          "ticks": 1728,
          "time": 15.882336000000002,
          "velocity": 0.7795275590551181
        },
        {
          "duration": 0.4411759999999987,
          "durationTicks": 48,
          "midi": 78,
          "name": "F#5",
          "ticks": 1751,
          "time": 16.093732833333334,
          "velocity": 0.7795275590551181
        },
        {
          "duration": 0.43198483333333115,
          "durationTicks": 47,
          "midi": 72,
          "name": "C5",
          "ticks": 1752,
          "time": 16.102924,
          "velocity": 0.7795275590551181
        },
        {
          "duration": 0.1194851666666672,
          "durationTicks": 13,
          "midi": 77,
          "name": "F5",
          "ticks": 1799,
          "time": 16.534908833333333,
          "velocity": 0.7795275590551181
        },
        {
          "duration": 0.11029399999999967,
          "durationTicks": 12,
          "midi": 70,
          "name": "A#4",
          "ticks": 1800,
          "time": 16.5441,
          "velocity": 0.7795275590551181
        },
        {
          "duration": 0.22058799999999934,
          "durationTicks": 24,
          "midi": 78,
          "name": "F#5",
          "ticks": 1823,
          "time": 16.755496833333336,
          "velocity": 0.7795275590551181
        },
        {
          "duration": 0.2113968333333318,
          "durationTicks": 23,
          "midi": 72,
          "name": "C5",
          "ticks": 1824,
          "time": 16.764688000000003,
          "velocity": 0.7795275590551181
        },
        {
          "duration": 0.7169109999999996,
          "durationTicks": 78,
          "midi": 80,
          "name": "G#5",
          "ticks": 1847,
          "time": 16.976084833333335,
          "velocity": 0.7795275590551181
        },
        {
          "duration": 0.7169109999999996,
          "durationTicks": 78,
          "midi": 74,
          "name": "D5",
          "ticks": 1848,
          "time": 16.985276000000002,
          "velocity": 0.7795275590551181
        },
        {
          "duration": 1.7095570000000002,
          "durationTicks": 186,
          "midi": 80,
          "name": "G#5",
          "ticks": 1967,
          "time": 18.079024833333335,
          "velocity": 0.6141732283464567
        },
        {
          "duration": 1.7095570000000002,
          "durationTicks": 186,
          "midi": 77,
          "name": "F5",
          "ticks": 1967,
          "time": 18.079024833333335,
          "velocity": 0.8110236220472441
        },
        {
          "duration": 1.7095570000000002,
          "durationTicks": 186,
          "midi": 73,
          "name": "C#5",
          "ticks": 1968,
          "time": 18.088216000000003,
          "velocity": 0.8110236220472441
        },
        {
          "duration": 0.652572833333334,
          "durationTicks": 71,
          "midi": 80,
          "name": "G#5",
          "ticks": 2159,
          "time": 19.843728833333333,
          "velocity": 0.6141732283464567
        },
        {
          "duration": 0.6433816666666701,
          "durationTicks": 70,
          "midi": 75,
          "name": "D#5",
          "ticks": 2159,
          "time": 19.843728833333333,
          "velocity": 0.7795275590551181
        },
        {
          "duration": 0.6433816666666665,
          "durationTicks": 70,
          "midi": 72,
          "name": "C5",
          "ticks": 2160,
          "time": 19.85292,
          "velocity": 0.7795275590551181
        },
        {
          "duration": 0.2113968333333318,
          "durationTicks": 23,
          "midi": 80,
          "name": "G#5",
          "ticks": 2231,
          "time": 20.505492833333335,
          "velocity": 0.7795275590551181
        },
        {
          "duration": 0.2113968333333318,
          "durationTicks": 23,
          "midi": 73,
          "name": "C#5",
          "ticks": 2232,
          "time": 20.514684000000003,
          "velocity": 0.8740157480314961
        },
        {
          "duration": 0.2113968333333318,
          "durationTicks": 23,
          "midi": 80,
          "name": "G#5",
          "ticks": 2255,
          "time": 20.726080833333334,
          "velocity": 0.7795275590551181
        },
        {
          "duration": 0.10110283333333214,
          "durationTicks": 11,
          "midi": 73,
          "name": "C#5",
          "ticks": 2256,
          "time": 20.735272000000002,
          "velocity": 0.8740157480314961
        },
        {
          "duration": 0.2113968333333318,
          "durationTicks": 23,
          "midi": 72,
          "name": "C5",
          "ticks": 2279,
          "time": 20.946668833333334,
          "velocity": 0.8740157480314961
        },
        {
          "duration": 0.1011028333333357,
          "durationTicks": 11,
          "midi": 75,
          "name": "D#5",
          "ticks": 2303,
          "time": 21.167256833333333,
          "velocity": 0.8740157480314961
        },
        {
          "duration": 2.0863948333333298,
          "durationTicks": 227,
          "midi": 73,
          "name": "C#5",
          "ticks": 2327,
          "time": 21.387844833333336,
          "velocity": 0.8740157480314961
        },
        {
          "duration": 1.8566156666666664,
          "durationTicks": 202,
          "midi": 80,
          "name": "G#5",
          "ticks": 2351,
          "time": 21.608432833333335,
          "velocity": 0.7795275590551181
        },
        {
          "duration": 1.8658068333333304,
          "durationTicks": 203,
          "midi": 75,
          "name": "D#5",
          "ticks": 2351,
          "time": 21.608432833333335,
          "velocity": 0.7007874015748031
        },
        {
          "duration": 0.36764666666666557,
          "durationTicks": 40,
          "midi": 75,
          "name": "D#5",
          "ticks": 4127,
          "time": 37.93194483333333,
          "velocity": 0.8740157480314961
        },
        {
          "duration": 0.36764666666665846,
          "durationTicks": 40,
          "midi": 73,
          "name": "C#5",
          "ticks": 4175,
          "time": 38.37312083333334,
          "velocity": 0.8740157480314961
        },
        {
          "duration": 0.22058799999999934,
          "durationTicks": 24,
          "midi": 72,
          "name": "C5",
          "ticks": 4223,
          "time": 38.81429683333334,
          "velocity": 0.8031496062992126
        },
        {
          "duration": 0.2113968333333318,
          "durationTicks": 23,
          "midi": 70,
          "name": "A#4",
          "ticks": 4247,
          "time": 39.03488483333334,
          "velocity": 0.8031496062992126
        },
        {
          "duration": 0.1378674999999987,
          "durationTicks": 15,
          "midi": 77,
          "name": "F5",
          "ticks": 4247,
          "time": 39.03488483333334,
          "velocity": 0.8740157480314961
        },
        {
          "duration": 0.18382333333333634,
          "durationTicks": 20,
          "midi": 75,
          "name": "D#5",
          "ticks": 4271,
          "time": 39.255472833333336,
          "velocity": 0.8740157480314961
        },
        {
          "duration": 0.22058799999999934,
          "durationTicks": 24,
          "midi": 77,
          "name": "F5",
          "ticks": 4295,
          "time": 39.476060833333335,
          "velocity": 0.8740157480314961
        },
        {
          "duration": 0.1378674999999987,
          "durationTicks": 15,
          "midi": 77,
          "name": "F5",
          "ticks": 4343,
          "time": 39.917236833333334,
          "velocity": 0.8740157480314961
        },
        {
          "duration": 0.18382333333333634,
          "durationTicks": 20,
          "midi": 75,
          "name": "D#5",
          "ticks": 4367,
          "time": 40.13782483333333,
          "velocity": 0.8740157480314961
        },
        {
          "duration": 0.22058799999999934,
          "durationTicks": 24,
          "midi": 77,
          "name": "F5",
          "ticks": 4391,
          "time": 40.35841283333333,
          "velocity": 0.8740157480314961
        },
        {
          "duration": 0.1378674999999987,
          "durationTicks": 15,
          "midi": 77,
          "name": "F5",
          "ticks": 4439,
          "time": 40.79958883333334,
          "velocity": 0.8740157480314961
        },
        {
          "duration": 0.18382333333333634,
          "durationTicks": 20,
          "midi": 75,
          "name": "D#5",
          "ticks": 4463,
          "time": 41.02017683333334,
          "velocity": 0.8740157480314961
        },
        {
          "duration": 0.22058799999999934,
          "durationTicks": 24,
          "midi": 77,
          "name": "F5",
          "ticks": 4487,
          "time": 41.24076483333334,
          "velocity": 0.8740157480314961
        },
        {
          "duration": 0.1378674999999987,
          "durationTicks": 15,
          "midi": 77,
          "name": "F5",
          "ticks": 4535,
          "time": 41.681940833333336,
          "velocity": 0.8740157480314961
        },
        {
          "duration": 0.18382333333333634,
          "durationTicks": 20,
          "midi": 75,
          "name": "D#5",
          "ticks": 4559,
          "time": 41.902528833333335,
          "velocity": 0.8740157480314961
        },
        {
          "duration": 0.22058799999999934,
          "durationTicks": 24,
          "midi": 77,
          "name": "F5",
          "ticks": 4583,
          "time": 42.123116833333334,
          "velocity": 0.8740157480314961
        },
        {
          "duration": 0.1378675000000058,
          "durationTicks": 15,
          "midi": 77,
          "name": "F5",
          "ticks": 4631,
          "time": 42.56429283333333,
          "velocity": 0.8740157480314961
        },
        {
          "duration": 0.18382333333333634,
          "durationTicks": 20,
          "midi": 75,
          "name": "D#5",
          "ticks": 4655,
          "time": 42.78488083333333,
          "velocity": 0.8740157480314961
        },
        {
          "duration": 0.22058799999999934,
          "durationTicks": 24,
          "midi": 77,
          "name": "F5",
          "ticks": 4679,
          "time": 43.00546883333334,
          "velocity": 0.8740157480314961
        },
        {
          "duration": 0.1378674999999987,
          "durationTicks": 15,
          "midi": 77,
          "name": "F5",
          "ticks": 4727,
          "time": 43.44664483333334,
          "velocity": 0.8740157480314961
        },
        {
          "duration": 0.18382333333333634,
          "durationTicks": 20,
          "midi": 75,
          "name": "D#5",
          "ticks": 4751,
          "time": 43.66723283333334,
          "velocity": 0.8740157480314961
        },
        {
          "duration": 0.22058799999999934,
          "durationTicks": 24,
          "midi": 77,
          "name": "F5",
          "ticks": 4775,
          "time": 43.887820833333336,
          "velocity": 0.8740157480314961
        },
        {
          "duration": 0.1378674999999987,
          "durationTicks": 15,
          "midi": 77,
          "name": "F5",
          "ticks": 4823,
          "time": 44.328996833333335,
          "velocity": 0.8740157480314961
        },
        {
          "duration": 0.18382333333333634,
          "durationTicks": 20,
          "midi": 78,
          "name": "F#5",
          "ticks": 4847,
          "time": 44.549584833333334,
          "velocity": 0.8740157480314961
        },
        {
          "duration": 0.18382333333333634,
          "durationTicks": 20,
          "midi": 77,
          "name": "F5",
          "ticks": 4871,
          "time": 44.77017283333333,
          "velocity": 0.8740157480314961
        },
        {
          "duration": 0.15624983333334086,
          "durationTicks": 17,
          "midi": 78,
          "name": "F#5",
          "ticks": 4895,
          "time": 44.99076083333333,
          "velocity": 0.8740157480314961
        },
        {
          "duration": 0.5790435000000045,
          "durationTicks": 63,
          "midi": 80,
          "name": "G#5",
          "ticks": 4919,
          "time": 45.21134883333333,
          "velocity": 0.8740157480314961
        },
        {
          "duration": 0.09191166666666106,
          "durationTicks": 10,
          "midi": 78,
          "name": "F#5",
          "ticks": 4991,
          "time": 45.87311283333334,
          "velocity": 0.8740157480314961
        },
        {
          "duration": 0.18382333333333634,
          "durationTicks": 20,
          "midi": 77,
          "name": "F5",
          "ticks": 5015,
          "time": 46.09370083333334,
          "velocity": 0.8740157480314961
        },
        {
          "duration": 0.18382333333333634,
          "durationTicks": 20,
          "midi": 75,
          "name": "D#5",
          "ticks": 5039,
          "time": 46.314288833333336,
          "velocity": 0.8740157480314961
        },
        {
          "duration": 0.22058799999999934,
          "durationTicks": 24,
          "midi": 77,
          "name": "F5",
          "ticks": 5063,
          "time": 46.534876833333335,
          "velocity": 0.8740157480314961
        },
        {
          "duration": 0.1378674999999987,
          "durationTicks": 15,
          "midi": 77,
          "name": "F5",
          "ticks": 5111,
          "time": 46.976052833333334,
          "velocity": 0.8740157480314961
        },
        {
          "duration": 0.18382333333333634,
          "durationTicks": 20,
          "midi": 75,
          "name": "D#5",
          "ticks": 5135,
          "time": 47.19664083333333,
          "velocity": 0.8740157480314961
        },
        {
          "duration": 0.22058800000000645,
          "durationTicks": 24,
          "midi": 77,
          "name": "F5",
          "ticks": 5159,
          "time": 47.41722883333333,
          "velocity": 0.8740157480314961
        },
        {
          "duration": 0.08272050000000064,
          "durationTicks": 9,
          "midi": 77,
          "name": "F5",
          "ticks": 5207,
          "time": 47.85840483333334,
          "velocity": 0.8740157480314961
        },
        {
          "duration": 0.18382333333333634,
          "durationTicks": 20,
          "midi": 75,
          "name": "D#5",
          "ticks": 5231,
          "time": 48.07899283333334,
          "velocity": 0.8740157480314961
        },
        {
          "duration": 0.22058799999999934,
          "durationTicks": 24,
          "midi": 77,
          "name": "F5",
          "ticks": 5255,
          "time": 48.29958083333334,
          "velocity": 0.8740157480314961
        },
        {
          "duration": 0.15624983333333375,
          "durationTicks": 17,
          "midi": 77,
          "name": "F5",
          "ticks": 5303,
          "time": 48.740756833333336,
          "velocity": 0.8740157480314961
        },
        {
          "duration": 0.1011028333333357,
          "durationTicks": 11,
          "midi": 75,
          "name": "D#5",
          "ticks": 5327,
          "time": 48.961344833333335,
          "velocity": 0.8740157480314961
        },
        {
          "duration": 0.22058799999999934,
          "durationTicks": 24,
          "midi": 77,
          "name": "F5",
          "ticks": 5351,
          "time": 49.181932833333335,
          "velocity": 0.8740157480314961
        },
        {
          "duration": 0.08272050000000064,
          "durationTicks": 9,
          "midi": 77,
          "name": "F5",
          "ticks": 5399,
          "time": 49.62310883333333,
          "velocity": 0.8740157480314961
        },
        {
          "duration": 0.39522016666666815,
          "durationTicks": 43,
          "midi": 77,
          "name": "F5",
          "ticks": 5423,
          "time": 49.84369683333333,
          "velocity": 0.8740157480314961
        },
        {
          "duration": 0.08272050000000064,
          "durationTicks": 9,
          "midi": 78,
          "name": "F#5",
          "ticks": 5471,
          "time": 50.28487283333334,
          "velocity": 0.8740157480314961
        },
        {
          "duration": 0.3492643333333305,
          "durationTicks": 38,
          "midi": 77,
          "name": "F5",
          "ticks": 5495,
          "time": 50.50546083333334,
          "velocity": 0.8740157480314961
        },
        {
          "duration": 0.39522016666666104,
          "durationTicks": 43,
          "midi": 75,
          "name": "D#5",
          "ticks": 5543,
          "time": 50.946636833333336,
          "velocity": 0.8740157480314961
        },
        {
          "duration": 0.4136025000000032,
          "durationTicks": 45,
          "midi": 77,
          "name": "F5",
          "ticks": 5591,
          "time": 51.387812833333335,
          "velocity": 0.8740157480314961
        },
        {
          "duration": 0.08272050000000064,
          "durationTicks": 9,
          "midi": 77,
          "name": "F5",
          "ticks": 5639,
          "time": 51.828988833333334,
          "velocity": 0.8740157480314961
        },
        {
          "duration": 0.18382333333333634,
          "durationTicks": 20,
          "midi": 78,
          "name": "F#5",
          "ticks": 5663,
          "time": 52.04957683333333,
          "velocity": 0.8740157480314961
        },
        {
          "duration": 0.8088226666666714,
          "durationTicks": 88,
          "midi": 80,
          "name": "G#5",
          "ticks": 5687,
          "time": 52.27016483333333,
          "velocity": 0.8740157480314961
        },
        {
          "duration": 0.4411759999999987,
          "durationTicks": 48,
          "midi": 80,
          "name": "G#5",
          "ticks": 6575,
          "time": 60.431920833333336,
          "velocity": 0.8740157480314961
        },
        {
          "duration": 0.43198483333333115,
          "durationTicks": 47,
          "midi": 73,
          "name": "C#5",
          "ticks": 6576,
          "time": 60.441112000000004,
          "velocity": 0.7795275590551181
        },
        {
          "duration": 0.10110283333332859,
          "durationTicks": 11,
          "midi": 80,
          "name": "G#5",
          "ticks": 6671,
          "time": 61.314272833333334,
          "velocity": 0.7795275590551181
        },
        {
          "duration": 0.09191166666665396,
          "durationTicks": 10,
          "midi": 73,
          "name": "C#5",
          "ticks": 6672,
          "time": 61.32346400000001,
          "velocity": 0.7795275590551181
        },
        {
          "duration": 0.33088200000000256,
          "durationTicks": 36,
          "midi": 82,
          "name": "A#5",
          "ticks": 6695,
          "time": 61.53486083333333,
          "velocity": 0.7795275590551181
        },
        {
          "duration": 0.33088200000000256,
          "durationTicks": 36,
          "midi": 75,
          "name": "D#5",
          "ticks": 6696,
          "time": 61.54405200000001,
          "velocity": 0.7795275590551181
        },
        {
          "duration": 0.33088199999999546,
          "durationTicks": 36,
          "midi": 80,
          "name": "G#5",
          "ticks": 6743,
          "time": 61.97603683333334,
          "velocity": 0.7795275590551181
        },
        {
          "duration": 0.32169083333332793,
          "durationTicks": 35,
          "midi": 73,
          "name": "C#5",
          "ticks": 6744,
          "time": 61.985228000000006,
          "velocity": 0.7795275590551181
        },
        {
          "duration": 0.3676466666666727,
          "durationTicks": 40,
          "midi": 78,
          "name": "F#5",
          "ticks": 6791,
          "time": 62.41721283333334,
          "velocity": 0.7795275590551181
        },
        {
          "duration": 0.36764666666665846,
          "durationTicks": 40,
          "midi": 72,
          "name": "C5",
          "ticks": 6792,
          "time": 62.426404000000005,
          "velocity": 0.7795275590551181
        },
        {
          "duration": 0.29411733333333245,
          "durationTicks": 32,
          "midi": 77,
          "name": "F5",
          "ticks": 6839,
          "time": 62.858388833333336,
          "velocity": 0.7795275590551181
        },
        {
          "duration": 0.29411733333333245,
          "durationTicks": 32,
          "midi": 70,
          "name": "A#4",
          "ticks": 6840,
          "time": 62.867580000000004,
          "velocity": 0.7795275590551181
        },
        {
          "duration": 0.3768378333333331,
          "durationTicks": 41,
          "midi": 75,
          "name": "D#5",
          "ticks": 6887,
          "time": 63.299564833333335,
          "velocity": 0.7795275590551181
        },
        {
          "duration": 0.36764666666665846,
          "durationTicks": 40,
          "midi": 68,
          "name": "G#4",
          "ticks": 6888,
          "time": 63.30875600000001,
          "velocity": 0.7795275590551181
        },
        {
          "duration": 0.10110283333332859,
          "durationTicks": 11,
          "midi": 75,
          "name": "D#5",
          "ticks": 6935,
          "time": 63.740740833333334,
          "velocity": 0.7795275590551181
        },
        {
          "duration": 0.14705866666665912,
          "durationTicks": 16,
          "midi": 68,
          "name": "G#4",
          "ticks": 6936,
          "time": 63.74993200000001,
          "velocity": 0.7795275590551181
        },
        {
          "duration": 0.735293333333324,
          "durationTicks": 80,
          "midi": 78,
          "name": "F#5",
          "ticks": 6959,
          "time": 63.96132883333333,
          "velocity": 0.7795275590551181
        },
        {
          "duration": 0.7352933333333311,
          "durationTicks": 80,
          "midi": 72,
          "name": "C5",
          "ticks": 6960,
          "time": 63.97052000000001,
          "velocity": 0.7795275590551181
        },
        {
          "duration": 0.4136024999999961,
          "durationTicks": 45,
          "midi": 78,
          "name": "F#5",
          "ticks": 7055,
          "time": 64.84368083333334,
          "velocity": 0.7795275590551181
        },
        {
          "duration": 0.40441133333332857,
          "durationTicks": 44,
          "midi": 72,
          "name": "C5",
          "ticks": 7056,
          "time": 64.852872,
          "velocity": 0.7795275590551181
        },
        {
          "duration": 0.15624983333331954,
          "durationTicks": 17,
          "midi": 77,
          "name": "F5",
          "ticks": 7103,
          "time": 65.28485683333334,
          "velocity": 0.7795275590551181
        },
        {
          "duration": 0.14705866666665202,
          "durationTicks": 16,
          "midi": 70,
          "name": "A#4",
          "ticks": 7104,
          "time": 65.294048,
          "velocity": 0.7795275590551181
        },
        {
          "duration": 0.33088200000000256,
          "durationTicks": 36,
          "midi": 78,
          "name": "F#5",
          "ticks": 7127,
          "time": 65.50544483333333,
          "velocity": 0.7795275590551181
        },
        {
          "duration": 0.3216908333333208,
          "durationTicks": 35,
          "midi": 72,
          "name": "C5",
          "ticks": 7128,
          "time": 65.51463600000001,
          "velocity": 0.7795275590551181
        },
        {
          "duration": 0.19301450000000386,
          "durationTicks": 21,
          "midi": 77,
          "name": "F5",
          "ticks": 7175,
          "time": 65.94662083333333,
          "velocity": 0.7795275590551181
        },
        {
          "duration": 0.19301450000000386,
          "durationTicks": 21,
          "midi": 70,
          "name": "A#4",
          "ticks": 7176,
          "time": 65.955812,
          "velocity": 0.7795275590551181
        },
        {
          "duration": 0.1378674999999987,
          "durationTicks": 15,
          "midi": 78,
          "name": "F#5",
          "ticks": 7199,
          "time": 66.16720883333333,
          "velocity": 0.7795275590551181
        },
        {
          "duration": 0.12867633333333117,
          "durationTicks": 14,
          "midi": 72,
          "name": "C5",
          "ticks": 7200,
          "time": 66.1764,
          "velocity": 0.7795275590551181
        },
        {
          "duration": 0.7352933333333311,
          "durationTicks": 80,
          "midi": 80,
          "name": "G#5",
          "ticks": 7223,
          "time": 66.38779683333333,
          "velocity": 0.7795275590551181
        },
        {
          "duration": 0.7352933333333311,
          "durationTicks": 80,
          "midi": 73,
          "name": "C#5",
          "ticks": 7224,
          "time": 66.396988,
          "velocity": 0.7795275590551181
        },
        {
          "duration": 1.7095570000000038,
          "durationTicks": 186,
          "midi": 80,
          "name": "G#5",
          "ticks": 7343,
          "time": 67.49073683333333,
          "velocity": 0.6141732283464567
        },
        {
          "duration": 1.7095570000000038,
          "durationTicks": 186,
          "midi": 77,
          "name": "F5",
          "ticks": 7343,
          "time": 67.49073683333333,
          "velocity": 0.8110236220472441
        },
        {
          "duration": 1.7095570000000038,
          "durationTicks": 186,
          "midi": 73,
          "name": "C#5",
          "ticks": 7344,
          "time": 67.499928,
          "velocity": 0.8110236220472441
        },
        {
          "duration": 0.8363961666666739,
          "durationTicks": 91,
          "midi": 81,
          "name": "A5",
          "ticks": 7535,
          "time": 69.25544083333332,
          "velocity": 0.6141732283464567
        },
        {
          "duration": 0.8363961666666739,
          "durationTicks": 91,
          "midi": 75,
          "name": "D#5",
          "ticks": 7535,
          "time": 69.25544083333332,
          "velocity": 0.8110236220472441
        },
        {
          "duration": 0.8272049999999922,
          "durationTicks": 90,
          "midi": 72,
          "name": "C5",
          "ticks": 7536,
          "time": 69.264632,
          "velocity": 0.8110236220472441
        },
        {
          "duration": 0.8363961666666597,
          "durationTicks": 91,
          "midi": 75,
          "name": "D#5",
          "ticks": 7631,
          "time": 70.13779283333334,
          "velocity": 0.6141732283464567
        },
        {
          "duration": 0.8363961666666597,
          "durationTicks": 91,
          "midi": 72,
          "name": "C5",
          "ticks": 7631,
          "time": 70.13779283333334,
          "velocity": 0.8661417322834646
        },
        {
          "duration": 0.8272049999999922,
          "durationTicks": 90,
          "midi": 69,
          "name": "A4",
          "ticks": 7632,
          "time": 70.146984,
          "velocity": 0.7086614173228346
        },
        {
          "duration": 0.8363961666666739,
          "durationTicks": 91,
          "midi": 77,
          "name": "F5",
          "ticks": 7727,
          "time": 71.02014483333333,
          "velocity": 0.6141732283464567
        },
        {
          "duration": 0.8363961666666739,
          "durationTicks": 91,
          "midi": 73,
          "name": "C#5",
          "ticks": 7727,
          "time": 71.02014483333333,
          "velocity": 0.8110236220472441
        },
        {
          "duration": 0.8272050000000064,
          "durationTicks": 90,
          "midi": 68,
          "name": "G#4",
          "ticks": 7728,
          "time": 71.029336,
          "velocity": 0.8110236220472441
        },
        {
          "duration": 0.6525728333333234,
          "durationTicks": 71,
          "midi": 80,
          "name": "G#5",
          "ticks": 7823,
          "time": 71.90249683333333,
          "velocity": 0.6141732283464567
        },
        {
          "duration": 0.6525728333333234,
          "durationTicks": 71,
          "midi": 75,
          "name": "D#5",
          "ticks": 7823,
          "time": 71.90249683333333,
          "velocity": 0.8503937007874016
        },
        {
          "duration": 0.6433816666666559,
          "durationTicks": 70,
          "midi": 72,
          "name": "C5",
          "ticks": 7824,
          "time": 71.911688,
          "velocity": 0.7007874015748031
        },
        {
          "duration": 0.4136024999999961,
          "durationTicks": 45,
          "midi": 73,
          "name": "C#5",
          "ticks": 7895,
          "time": 72.56426083333334,
          "velocity": 0.6141732283464567
        },
        {
          "duration": 0.4136024999999961,
          "durationTicks": 45,
          "midi": 80,
          "name": "G#5",
          "ticks": 7895,
          "time": 72.56426083333334,
          "velocity": 0.8582677165354331
        },
        {
          "duration": 0.40441133333332857,
          "durationTicks": 44,
          "midi": 77,
          "name": "F5",
          "ticks": 7896,
          "time": 72.573452,
          "velocity": 0.7007874015748031
        },
        {
          "duration": 0.4136024999999961,
          "durationTicks": 45,
          "midi": 68,
          "name": "G#4",
          "ticks": 7943,
          "time": 73.00543683333333,
          "velocity": 0.6141732283464567
        },
        {
          "duration": 0.4136024999999961,
          "durationTicks": 45,
          "midi": 78,
          "name": "F#5",
          "ticks": 7943,
          "time": 73.00543683333333,
          "velocity": 0.8582677165354331
        },
        {
          "duration": 0.4136024999999961,
          "durationTicks": 45,
          "midi": 73,
          "name": "C#5",
          "ticks": 7944,
          "time": 73.014628,
          "velocity": 0.7007874015748031
        },
        {
          "duration": 0.4411759999999987,
          "durationTicks": 48,
          "midi": 68,
          "name": "G#4",
          "ticks": 7991,
          "time": 73.44661283333333,
          "velocity": 0.6141732283464567
        },
        {
          "duration": 0.4411759999999987,
          "durationTicks": 48,
          "midi": 77,
          "name": "F5",
          "ticks": 7991,
          "time": 73.44661283333333,
          "velocity": 0.7795275590551181
        },
        {
          "duration": 0.43198483333333115,
          "durationTicks": 47,
          "midi": 73,
          "name": "C#5",
          "ticks": 7992,
          "time": 73.455804,
          "velocity": 0.7007874015748031
        },
        {
          "duration": 0.4411760000000129,
          "durationTicks": 48,
          "midi": 80,
          "name": "G#5",
          "ticks": 8111,
          "time": 74.54955283333332,
          "velocity": 0.7795275590551181
        },
        {
          "duration": 0.43198483333333115,
          "durationTicks": 47,
          "midi": 73,
          "name": "C#5",
          "ticks": 8112,
          "time": 74.558744,
          "velocity": 0.7795275590551181
        },
        {
          "duration": 0.10110283333332859,
          "durationTicks": 11,
          "midi": 80,
          "name": "G#5",
          "ticks": 8207,
          "time": 75.43190483333333,
          "velocity": 0.7795275590551181
        },
        {
          "duration": 0.09191166666666106,
          "durationTicks": 10,
          "midi": 73,
          "name": "C#5",
          "ticks": 8208,
          "time": 75.441096,
          "velocity": 0.7795275590551181
        },
        {
          "duration": 0.42279366666667784,
          "durationTicks": 46,
          "midi": 82,
          "name": "A#5",
          "ticks": 8231,
          "time": 75.65249283333333,
          "velocity": 0.7795275590551181
        },
        {
          "duration": 0.4227936666666636,
          "durationTicks": 46,
          "midi": 75,
          "name": "D#5",
          "ticks": 8232,
          "time": 75.661684,
          "velocity": 0.7795275590551181
        },
        {
          "duration": 0.33088200000000256,
          "durationTicks": 36,
          "midi": 80,
          "name": "G#5",
          "ticks": 8279,
          "time": 76.09366883333333,
          "velocity": 0.7795275590551181
        },
        {
          "duration": 0.3216908333333208,
          "durationTicks": 35,
          "midi": 73,
          "name": "C#5",
          "ticks": 8280,
          "time": 76.10286,
          "velocity": 0.7795275590551181
        },
        {
          "duration": 0.3676466666666727,
          "durationTicks": 40,
          "midi": 78,
          "name": "F#5",
          "ticks": 8327,
          "time": 76.53484483333332,
          "velocity": 0.7795275590551181
        },
        {
          "duration": 0.36764666666665846,
          "durationTicks": 40,
          "midi": 72,
          "name": "C5",
          "ticks": 8328,
          "time": 76.544036,
          "velocity": 0.7795275590551181
        },
        {
          "duration": 0.3124996666666817,
          "durationTicks": 34,
          "midi": 77,
          "name": "F5",
          "ticks": 8375,
          "time": 76.97602083333332,
          "velocity": 0.7795275590551181
        },
        {
          "duration": 0.3124996666666533,
          "durationTicks": 34,
          "midi": 70,
          "name": "A#4",
          "ticks": 8376,
          "time": 76.985212,
          "velocity": 0.7795275590551181
        },
        {
          "duration": 0.3400731666666701,
          "durationTicks": 37,
          "midi": 75,
          "name": "D#5",
          "ticks": 8423,
          "time": 77.41719683333334,
          "velocity": 0.7795275590551181
        },
        {
          "duration": 0.3400731666666559,
          "durationTicks": 37,
          "midi": 68,
          "name": "G#4",
          "ticks": 8424,
          "time": 77.426388,
          "velocity": 0.7795275590551181
        },
        {
          "duration": 0.10110283333332859,
          "durationTicks": 11,
          "midi": 75,
          "name": "D#5",
          "ticks": 8471,
          "time": 77.85837283333333,
          "velocity": 0.7795275590551181
        },
        {
          "duration": 0.14705866666665202,
          "durationTicks": 16,
          "midi": 68,
          "name": "G#4",
          "ticks": 8472,
          "time": 77.867564,
          "velocity": 0.7795275590551181
        },
        {
          "duration": 0.7352933333333311,
          "durationTicks": 80,
          "midi": 78,
          "name": "F#5",
          "ticks": 8495,
          "time": 78.07896083333333,
          "velocity": 0.7795275590551181
        },
        {
          "duration": 0.7352933333333311,
          "durationTicks": 80,
          "midi": 72,
          "name": "C5",
          "ticks": 8496,
          "time": 78.088152,
          "velocity": 0.7795275590551181
        },
        {
          "duration": 0.39522016666667525,
          "durationTicks": 43,
          "midi": 78,
          "name": "F#5",
          "ticks": 8591,
          "time": 78.96131283333332,
          "velocity": 0.7795275590551181
        },
        {
          "duration": 0.39522016666664683,
          "durationTicks": 43,
          "midi": 72,
          "name": "C5",
          "ticks": 8592,
          "time": 78.970504,
          "velocity": 0.7795275590551181
        },
        {
          "duration": 0.21139683333333892,
          "durationTicks": 23,
          "midi": 77,
          "name": "F5",
          "ticks": 8639,
          "time": 79.40248883333332,
          "velocity": 0.7795275590551181
        },
        {
          "duration": 0.2113968333333247,
          "durationTicks": 23,
          "midi": 70,
          "name": "A#4",
          "ticks": 8640,
          "time": 79.41168,
          "velocity": 0.7795275590551181
        },
        {
          "duration": 0.4411759999999987,
          "durationTicks": 48,
          "midi": 78,
          "name": "F#5",
          "ticks": 8663,
          "time": 79.62307683333333,
          "velocity": 0.7795275590551181
        },
        {
          "duration": 0.43198483333333115,
          "durationTicks": 47,
          "midi": 72,
          "name": "C5",
          "ticks": 8664,
          "time": 79.632268,
          "velocity": 0.7795275590551181
        },
        {
          "duration": 0.11948516666667786,
          "durationTicks": 13,
          "midi": 77,
          "name": "F5",
          "ticks": 8711,
          "time": 80.06425283333333,
          "velocity": 0.7795275590551181
        },
        {
          "duration": 0.11029400000001033,
          "durationTicks": 12,
          "midi": 70,
          "name": "A#4",
          "ticks": 8712,
          "time": 80.073444,
          "velocity": 0.7795275590551181
        },
        {
          "duration": 0.22058799999999223,
          "durationTicks": 24,
          "midi": 78,
          "name": "F#5",
          "ticks": 8735,
          "time": 80.28484083333333,
          "velocity": 0.7795275590551181
        },
        {
          "duration": 0.2113968333333247,
          "durationTicks": 23,
          "midi": 72,
          "name": "C5",
          "ticks": 8736,
          "time": 80.294032,
          "velocity": 0.7795275590551181
        },
        {
          "duration": 0.7169110000000103,
          "durationTicks": 78,
          "midi": 80,
          "name": "G#5",
          "ticks": 8759,
          "time": 80.50542883333333,
          "velocity": 0.7795275590551181
        },
        {
          "duration": 0.7169110000000103,
          "durationTicks": 78,
          "midi": 74,
          "name": "D5",
          "ticks": 8760,
          "time": 80.51462,
          "velocity": 0.7795275590551181
        },
        {
          "duration": 1.7095570000000038,
          "durationTicks": 186,
          "midi": 80,
          "name": "G#5",
          "ticks": 8879,
          "time": 81.60836883333333,
          "velocity": 0.6141732283464567
        },
        {
          "duration": 1.7095570000000038,
          "durationTicks": 186,
          "midi": 77,
          "name": "F5",
          "ticks": 8879,
          "time": 81.60836883333333,
          "velocity": 0.8110236220472441
        },
        {
          "duration": 1.7095570000000038,
          "durationTicks": 186,
          "midi": 73,
          "name": "C#5",
          "ticks": 8880,
          "time": 81.61756,
          "velocity": 0.8110236220472441
        },
        {
          "duration": 0.6525728333333376,
          "durationTicks": 71,
          "midi": 80,
          "name": "G#5",
          "ticks": 9071,
          "time": 83.37307283333332,
          "velocity": 0.6141732283464567
        },
        {
          "duration": 0.6433816666666701,
          "durationTicks": 70,
          "midi": 75,
          "name": "D#5",
          "ticks": 9071,
          "time": 83.37307283333332,
          "velocity": 0.7795275590551181
        },
        {
          "duration": 0.6433816666666559,
          "durationTicks": 70,
          "midi": 72,
          "name": "C5",
          "ticks": 9072,
          "time": 83.382264,
          "velocity": 0.7795275590551181
        },
        {
          "duration": 0.2113968333333247,
          "durationTicks": 23,
          "midi": 80,
          "name": "G#5",
          "ticks": 9143,
          "time": 84.03483683333333,
          "velocity": 0.7795275590551181
        },
        {
          "duration": 0.21139683333333892,
          "durationTicks": 23,
          "midi": 73,
          "name": "C#5",
          "ticks": 9144,
          "time": 84.044028,
          "velocity": 0.8740157480314961
        },
        {
          "duration": 0.2113968333333247,
          "durationTicks": 23,
          "midi": 80,
          "name": "G#5",
          "ticks": 9167,
          "time": 84.25542483333334,
          "velocity": 0.7795275590551181
        },
        {
          "duration": 0.10110283333332859,
          "durationTicks": 11,
          "midi": 73,
          "name": "C#5",
          "ticks": 9168,
          "time": 84.264616,
          "velocity": 0.8740157480314961
        },
        {
          "duration": 0.2113968333333247,
          "durationTicks": 23,
          "midi": 72,
          "name": "C5",
          "ticks": 9191,
          "time": 84.47601283333333,
          "velocity": 0.8740157480314961
        },
        {
          "duration": 0.10110283333332859,
          "durationTicks": 11,
          "midi": 75,
          "name": "D#5",
          "ticks": 9215,
          "time": 84.69660083333333,
          "velocity": 0.8740157480314961
        },
        {
          "duration": 2.0863948333333298,
          "durationTicks": 227,
          "midi": 73,
          "name": "C#5",
          "ticks": 9239,
          "time": 84.91718883333333,
          "velocity": 0.8740157480314961
        },
        {
          "duration": 1.85661566666667,
          "durationTicks": 202,
          "midi": 80,
          "name": "G#5",
          "ticks": 9263,
          "time": 85.13777683333333,
          "velocity": 0.7795275590551181
        },
        {
          "duration": 1.8658068333333233,
          "durationTicks": 203,
          "midi": 75,
          "name": "D#5",
          "ticks": 9263,
          "time": 85.13777683333333,
          "velocity": 0.7007874015748031
        },
        {
          "duration": 0.3676466666666727,
          "durationTicks": 40,
          "midi": 75,
          "name": "D#5",
          "ticks": 11039,
          "time": 101.46128883333333,
          "velocity": 0.8740157480314961
        },
        {
          "duration": 0.3676466666666727,
          "durationTicks": 40,
          "midi": 70,
          "name": "A#4",
          "ticks": 11039,
          "time": 101.46128883333333,
          "velocity": 0.6141732283464567
        },
        {
          "duration": 0.3676466666666727,
          "durationTicks": 40,
          "midi": 73,
          "name": "C#5",
          "ticks": 11087,
          "time": 101.90246483333333,
          "velocity": 0.8740157480314961
        },
        {
          "duration": 0.3676466666666727,
          "durationTicks": 40,
          "midi": 72,
          "name": "C5",
          "ticks": 11135,
          "time": 102.34364083333332,
          "velocity": 0.8740157480314961
        },
        {
          "duration": 3.511025666666683,
          "durationTicks": 382,
          "midi": 80,
          "name": "G#5",
          "ticks": 11183,
          "time": 102.78481683333332,
          "velocity": 0.6141732283464567
        },
        {
          "duration": 3.511025666666683,
          "durationTicks": 382,
          "midi": 73,
          "name": "C#5",
          "ticks": 11183,
          "time": 102.78481683333332,
          "velocity": 0.8582677165354331
        },
        {
          "duration": 1.7095569999999896,
          "durationTicks": 186,
          "midi": 80,
          "name": "G#5",
          "ticks": 15791,
          "time": 145.13771283333335,
          "velocity": 0.6141732283464567
        },
        {
          "duration": 1.7095569999999896,
          "durationTicks": 186,
          "midi": 77,
          "name": "F5",
          "ticks": 15791,
          "time": 145.13771283333335,
          "velocity": 0.8110236220472441
        },
        {
          "duration": 1.7095569999999896,
          "durationTicks": 186,
          "midi": 73,
          "name": "C#5",
          "ticks": 15792,
          "time": 145.146904,
          "velocity": 0.8110236220472441
        },
        {
          "duration": 0.8363961666666455,
          "durationTicks": 91,
          "midi": 81,
          "name": "A5",
          "ticks": 15983,
          "time": 146.90241683333335,
          "velocity": 0.6141732283464567
        },
        {
          "duration": 0.8363961666666455,
          "durationTicks": 91,
          "midi": 75,
          "name": "D#5",
          "ticks": 15983,
          "time": 146.90241683333335,
          "velocity": 0.8110236220472441
        },
        {
          "duration": 0.8272049999999922,
          "durationTicks": 90,
          "midi": 72,
          "name": "C5",
          "ticks": 15984,
          "time": 146.911608,
          "velocity": 0.8110236220472441
        },
        {
          "duration": 0.8363961666666455,
          "durationTicks": 91,
          "midi": 75,
          "name": "D#5",
          "ticks": 16079,
          "time": 147.78476883333335,
          "velocity": 0.6141732283464567
        },
        {
          "duration": 0.8363961666666455,
          "durationTicks": 91,
          "midi": 72,
          "name": "C5",
          "ticks": 16079,
          "time": 147.78476883333335,
          "velocity": 0.8661417322834646
        },
        {
          "duration": 0.8272049999999922,
          "durationTicks": 90,
          "midi": 69,
          "name": "A4",
          "ticks": 16080,
          "time": 147.79396,
          "velocity": 0.7086614173228346
        },
        {
          "duration": 0.8363961666666739,
          "durationTicks": 91,
          "midi": 77,
          "name": "F5",
          "ticks": 16175,
          "time": 148.66712083333334,
          "velocity": 0.6141732283464567
        },
        {
          "duration": 0.8363961666666739,
          "durationTicks": 91,
          "midi": 73,
          "name": "C#5",
          "ticks": 16175,
          "time": 148.66712083333334,
          "velocity": 0.8110236220472441
        },
        {
          "duration": 0.8272050000000206,
          "durationTicks": 90,
          "midi": 68,
          "name": "G#4",
          "ticks": 16176,
          "time": 148.676312,
          "velocity": 0.8110236220472441
        },
        {
          "duration": 0.6525728333333518,
          "durationTicks": 71,
          "midi": 80,
          "name": "G#5",
          "ticks": 16271,
          "time": 149.54947283333334,
          "velocity": 0.6141732283464567
        },
        {
          "duration": 0.6525728333333518,
          "durationTicks": 71,
          "midi": 75,
          "name": "D#5",
          "ticks": 16271,
          "time": 149.54947283333334,
          "velocity": 0.8503937007874016
        },
        {
          "duration": 0.6433816666666985,
          "durationTicks": 70,
          "midi": 72,
          "name": "C5",
          "ticks": 16272,
          "time": 149.558664,
          "velocity": 0.7007874015748031
        },
        {
          "duration": 0.4136024999999961,
          "durationTicks": 45,
          "midi": 73,
          "name": "C#5",
          "ticks": 16343,
          "time": 150.21123683333334,
          "velocity": 0.6141732283464567
        },
        {
          "duration": 0.4136024999999961,
          "durationTicks": 45,
          "midi": 80,
          "name": "G#5",
          "ticks": 16343,
          "time": 150.21123683333334,
          "velocity": 0.8582677165354331
        },
        {
          "duration": 0.4044113333333428,
          "durationTicks": 44,
          "midi": 77,
          "name": "F5",
          "ticks": 16344,
          "time": 150.220428,
          "velocity": 0.7007874015748031
        },
        {
          "duration": 0.4136024999999961,
          "durationTicks": 45,
          "midi": 68,
          "name": "G#4",
          "ticks": 16391,
          "time": 150.65241283333336,
          "velocity": 0.6141732283464567
        },
        {
          "duration": 0.4136024999999961,
          "durationTicks": 45,
          "midi": 78,
          "name": "F#5",
          "ticks": 16391,
          "time": 150.65241283333336,
          "velocity": 0.8582677165354331
        },
        {
          "duration": 0.4136024999999961,
          "durationTicks": 45,
          "midi": 73,
          "name": "C#5",
          "ticks": 16392,
          "time": 150.661604,
          "velocity": 0.7007874015748031
        },
        {
          "duration": 0.4411760000000129,
          "durationTicks": 48,
          "midi": 68,
          "name": "G#4",
          "ticks": 16439,
          "time": 151.09358883333334,
          "velocity": 0.6141732283464567
        },
        {
          "duration": 0.4411760000000129,
          "durationTicks": 48,
          "midi": 77,
          "name": "F5",
          "ticks": 16439,
          "time": 151.09358883333334,
          "velocity": 0.7795275590551181
        },
        {
          "duration": 0.4319848333333596,
          "durationTicks": 47,
          "midi": 73,
          "name": "C#5",
          "ticks": 16440,
          "time": 151.10278,
          "velocity": 0.7007874015748031
        },
        {
          "duration": 0.4411760000000129,
          "durationTicks": 48,
          "midi": 80,
          "name": "G#5",
          "ticks": 16559,
          "time": 152.19652883333333,
          "velocity": 0.7795275590551181
        },
        {
          "duration": 0.43198483333333115,
          "durationTicks": 47,
          "midi": 73,
          "name": "C#5",
          "ticks": 16560,
          "time": 152.20572,
          "velocity": 0.7795275590551181
        },
        {
          "duration": 0.10110283333332859,
          "durationTicks": 11,
          "midi": 80,
          "name": "G#5",
          "ticks": 16655,
          "time": 153.07888083333336,
          "velocity": 0.7795275590551181
        },
        {
          "duration": 0.09191166666667527,
          "durationTicks": 10,
          "midi": 73,
          "name": "C#5",
          "ticks": 16656,
          "time": 153.088072,
          "velocity": 0.7795275590551181
        },
        {
          "duration": 0.4227936666666494,
          "durationTicks": 46,
          "midi": 82,
          "name": "A#5",
          "ticks": 16679,
          "time": 153.29946883333335,
          "velocity": 0.7795275590551181
        },
        {
          "duration": 0.42279366666667784,
          "durationTicks": 46,
          "midi": 75,
          "name": "D#5",
          "ticks": 16680,
          "time": 153.30866,
          "velocity": 0.7795275590551181
        },
        {
          "duration": 0.33088200000000256,
          "durationTicks": 36,
          "midi": 80,
          "name": "G#5",
          "ticks": 16727,
          "time": 153.74064483333333,
          "velocity": 0.7795275590551181
        },
        {
          "duration": 0.3216908333333208,
          "durationTicks": 35,
          "midi": 73,
          "name": "C#5",
          "ticks": 16728,
          "time": 153.74983600000002,
          "velocity": 0.7795275590551181
        },
        {
          "duration": 0.36764666666664425,
          "durationTicks": 40,
          "midi": 78,
          "name": "F#5",
          "ticks": 16775,
          "time": 154.18182083333335,
          "velocity": 0.7795275590551181
        },
        {
          "duration": 0.3676466666666727,
          "durationTicks": 40,
          "midi": 72,
          "name": "C5",
          "ticks": 16776,
          "time": 154.191012,
          "velocity": 0.7795275590551181
        },
        {
          "duration": 0.3124996666666675,
          "durationTicks": 34,
          "midi": 77,
          "name": "F5",
          "ticks": 16823,
          "time": 154.62299683333333,
          "velocity": 0.7795275590551181
        },
        {
          "duration": 0.3124996666666675,
          "durationTicks": 34,
          "midi": 70,
          "name": "A#4",
          "ticks": 16824,
          "time": 154.632188,
          "velocity": 0.7795275590551181
        },
        {
          "duration": 0.3400731666666559,
          "durationTicks": 37,
          "midi": 75,
          "name": "D#5",
          "ticks": 16871,
          "time": 155.06417283333334,
          "velocity": 0.7795275590551181
        },
        {
          "duration": 0.3400731666666843,
          "durationTicks": 37,
          "midi": 68,
          "name": "G#4",
          "ticks": 16872,
          "time": 155.073364,
          "velocity": 0.7795275590551181
        },
        {
          "duration": 0.10110283333332859,
          "durationTicks": 11,
          "midi": 75,
          "name": "D#5",
          "ticks": 16919,
          "time": 155.50534883333336,
          "velocity": 0.7795275590551181
        },
        {
          "duration": 0.14705866666668044,
          "durationTicks": 16,
          "midi": 68,
          "name": "G#4",
          "ticks": 16920,
          "time": 155.51454,
          "velocity": 0.7795275590551181
        },
        {
          "duration": 0.7352933333333453,
          "durationTicks": 80,
          "midi": 78,
          "name": "F#5",
          "ticks": 16943,
          "time": 155.72593683333335,
          "velocity": 0.7795275590551181
        },
        {
          "duration": 0.7352933333333453,
          "durationTicks": 80,
          "midi": 72,
          "name": "C5",
          "ticks": 16944,
          "time": 155.735128,
          "velocity": 0.7795275590551181
        },
        {
          "duration": 0.39522016666666104,
          "durationTicks": 43,
          "midi": 78,
          "name": "F#5",
          "ticks": 17039,
          "time": 156.60828883333335,
          "velocity": 0.7795275590551181
        },
        {
          "duration": 0.39522016666668947,
          "durationTicks": 43,
          "midi": 72,
          "name": "C5",
          "ticks": 17040,
          "time": 156.61748,
          "velocity": 0.7795275590551181
        },
        {
          "duration": 0.21139683333336734,
          "durationTicks": 23,
          "midi": 77,
          "name": "F5",
          "ticks": 17087,
          "time": 157.04946483333333,
          "velocity": 0.7795275590551181
        },
        {
          "duration": 0.21139683333333892,
          "durationTicks": 23,
          "midi": 70,
          "name": "A#4",
          "ticks": 17088,
          "time": 157.058656,
          "velocity": 0.7795275590551181
        },
        {
          "duration": 0.44117599999998447,
          "durationTicks": 48,
          "midi": 78,
          "name": "F#5",
          "ticks": 17111,
          "time": 157.27005283333335,
          "velocity": 0.7795275590551181
        },
        {
          "duration": 0.43198483333333115,
          "durationTicks": 47,
          "midi": 72,
          "name": "C5",
          "ticks": 17112,
          "time": 157.279244,
          "velocity": 0.7795275590551181
        },
        {
          "duration": 0.11948516666666364,
          "durationTicks": 13,
          "midi": 77,
          "name": "F5",
          "ticks": 17159,
          "time": 157.71122883333334,
          "velocity": 0.7795275590551181
        },
        {
          "duration": 0.11029400000001033,
          "durationTicks": 12,
          "midi": 70,
          "name": "A#4",
          "ticks": 17160,
          "time": 157.72042,
          "velocity": 0.7795275590551181
        },
        {
          "duration": 0.22058799999999223,
          "durationTicks": 24,
          "midi": 78,
          "name": "F#5",
          "ticks": 17183,
          "time": 157.93181683333336,
          "velocity": 0.7795275590551181
        },
        {
          "duration": 0.21139683333333892,
          "durationTicks": 23,
          "midi": 72,
          "name": "C5",
          "ticks": 17184,
          "time": 157.941008,
          "velocity": 0.7795275590551181
        },
        {
          "duration": 0.7169110000000103,
          "durationTicks": 78,
          "midi": 80,
          "name": "G#5",
          "ticks": 17207,
          "time": 158.15240483333335,
          "velocity": 0.7795275590551181
        },
        {
          "duration": 0.7169110000000103,
          "durationTicks": 78,
          "midi": 74,
          "name": "D5",
          "ticks": 17208,
          "time": 158.161596,
          "velocity": 0.7795275590551181
        },
        {
          "duration": 1.709557000000018,
          "durationTicks": 186,
          "midi": 80,
          "name": "G#5",
          "ticks": 17327,
          "time": 159.25534483333334,
          "velocity": 0.6141732283464567
        },
        {
          "duration": 1.709557000000018,
          "durationTicks": 186,
          "midi": 77,
          "name": "F5",
          "ticks": 17327,
          "time": 159.25534483333334,
          "velocity": 0.8110236220472441
        },
        {
          "duration": 1.709557000000018,
          "durationTicks": 186,
          "midi": 73,
          "name": "C#5",
          "ticks": 17328,
          "time": 159.264536,
          "velocity": 0.8110236220472441
        },
        {
          "duration": 0.6525728333333518,
          "durationTicks": 71,
          "midi": 80,
          "name": "G#5",
          "ticks": 17519,
          "time": 161.02004883333333,
          "velocity": 0.6141732283464567
        },
        {
          "duration": 0.6433816666666701,
          "durationTicks": 70,
          "midi": 75,
          "name": "D#5",
          "ticks": 17519,
          "time": 161.02004883333333,
          "velocity": 0.7795275590551181
        },
        {
          "duration": 0.6433816666666701,
          "durationTicks": 70,
          "midi": 72,
          "name": "C5",
          "ticks": 17520,
          "time": 161.02924000000002,
          "velocity": 0.7795275590551181
        },
        {
          "duration": 0.21139683333333892,
          "durationTicks": 23,
          "midi": 80,
          "name": "G#5",
          "ticks": 17591,
          "time": 161.68181283333334,
          "velocity": 0.7795275590551181
        },
        {
          "duration": 0.21139683333336734,
          "durationTicks": 23,
          "midi": 73,
          "name": "C#5",
          "ticks": 17592,
          "time": 161.691004,
          "velocity": 0.8740157480314961
        },
        {
          "duration": 0.21139683333333892,
          "durationTicks": 23,
          "midi": 80,
          "name": "G#5",
          "ticks": 17615,
          "time": 161.90240083333336,
          "velocity": 0.7795275590551181
        },
        {
          "duration": 0.10110283333332859,
          "durationTicks": 11,
          "midi": 73,
          "name": "C#5",
          "ticks": 17616,
          "time": 161.911592,
          "velocity": 0.8740157480314961
        },
        {
          "duration": 0.21139683333333892,
          "durationTicks": 23,
          "midi": 72,
          "name": "C5",
          "ticks": 17639,
          "time": 162.12298883333335,
          "velocity": 0.8740157480314961
        },
        {
          "duration": 0.10110283333335701,
          "durationTicks": 11,
          "midi": 75,
          "name": "D#5",
          "ticks": 17663,
          "time": 162.34357683333334,
          "velocity": 0.8740157480314961
        },
        {
          "duration": 2.086394833333344,
          "durationTicks": 227,
          "midi": 73,
          "name": "C#5",
          "ticks": 17687,
          "time": 162.56416483333334,
          "velocity": 0.8740157480314961
        },
        {
          "duration": 1.8566156666666416,
          "durationTicks": 202,
          "midi": 80,
          "name": "G#5",
          "ticks": 17711,
          "time": 162.78475283333336,
          "velocity": 0.7795275590551181
        },
        {
          "duration": 1.8658068333333233,
          "durationTicks": 203,
          "midi": 75,
          "name": "D#5",
          "ticks": 17711,
          "time": 162.78475283333336,
          "velocity": 0.7007874015748031
        },
        {
          "duration": 0.4411760000000129,
          "durationTicks": 48,
          "midi": 80,
          "name": "G#5",
          "ticks": 18095,
          "time": 166.31416083333335,
          "velocity": 0.8740157480314961
        },
        {
          "duration": 0.4319848333333596,
          "durationTicks": 47,
          "midi": 73,
          "name": "C#5",
          "ticks": 18096,
          "time": 166.323352,
          "velocity": 0.7795275590551181
        },
        {
          "duration": 0.10110283333335701,
          "durationTicks": 11,
          "midi": 80,
          "name": "G#5",
          "ticks": 18191,
          "time": 167.19651283333334,
          "velocity": 0.7795275590551181
        },
        {
          "duration": 0.0919116666667037,
          "durationTicks": 10,
          "midi": 73,
          "name": "C#5",
          "ticks": 18192,
          "time": 167.205704,
          "velocity": 0.7795275590551181
        },
        {
          "duration": 0.33088200000000256,
          "durationTicks": 36,
          "midi": 82,
          "name": "A#5",
          "ticks": 18215,
          "time": 167.41710083333334,
          "velocity": 0.7795275590551181
        },
        {
          "duration": 0.33088199999997414,
          "durationTicks": 36,
          "midi": 75,
          "name": "D#5",
          "ticks": 18216,
          "time": 167.42629200000002,
          "velocity": 0.7795275590551181
        },
        {
          "duration": 0.33088200000000256,
          "durationTicks": 36,
          "midi": 80,
          "name": "G#5",
          "ticks": 18263,
          "time": 167.85827683333335,
          "velocity": 0.7795275590551181
        },
        {
          "duration": 0.32169083333334925,
          "durationTicks": 35,
          "midi": 73,
          "name": "C#5",
          "ticks": 18264,
          "time": 167.867468,
          "velocity": 0.7795275590551181
        },
        {
          "duration": 0.3676466666666727,
          "durationTicks": 40,
          "midi": 78,
          "name": "F#5",
          "ticks": 18311,
          "time": 168.29945283333333,
          "velocity": 0.7795275590551181
        },
        {
          "duration": 0.3676466666666727,
          "durationTicks": 40,
          "midi": 72,
          "name": "C5",
          "ticks": 18312,
          "time": 168.30864400000002,
          "velocity": 0.7795275590551181
        },
        {
          "duration": 0.29411733333333245,
          "durationTicks": 32,
          "midi": 77,
          "name": "F5",
          "ticks": 18359,
          "time": 168.74062883333335,
          "velocity": 0.7795275590551181
        },
        {
          "duration": 0.29411733333333245,
          "durationTicks": 32,
          "midi": 70,
          "name": "A#4",
          "ticks": 18360,
          "time": 168.74982,
          "velocity": 0.7795275590551181
        },
        {
          "duration": 0.376837833333326,
          "durationTicks": 41,
          "midi": 75,
          "name": "D#5",
          "ticks": 18407,
          "time": 169.18180483333336,
          "velocity": 0.7795275590551181
        },
        {
          "duration": 0.3676466666666727,
          "durationTicks": 40,
          "midi": 68,
          "name": "G#4",
          "ticks": 18408,
          "time": 169.190996,
          "velocity": 0.7795275590551181
        },
        {
          "duration": 0.10110283333335701,
          "durationTicks": 11,
          "midi": 75,
          "name": "D#5",
          "ticks": 18455,
          "time": 169.62298083333334,
          "velocity": 0.7795275590551181
        },
        {
          "duration": 0.14705866666668044,
          "durationTicks": 16,
          "midi": 68,
          "name": "G#4",
          "ticks": 18456,
          "time": 169.632172,
          "velocity": 0.7795275590551181
        },
        {
          "duration": 0.7352933333333453,
          "durationTicks": 80,
          "midi": 78,
          "name": "F#5",
          "ticks": 18479,
          "time": 169.84356883333334,
          "velocity": 0.7795275590551181
        },
        {
          "duration": 0.7352933333333169,
          "durationTicks": 80,
          "midi": 72,
          "name": "C5",
          "ticks": 18480,
          "time": 169.85276000000002,
          "velocity": 0.7795275590551181
        },
        {
          "duration": 0.4136025000000245,
          "durationTicks": 45,
          "midi": 78,
          "name": "F#5",
          "ticks": 18575,
          "time": 170.72592083333333,
          "velocity": 0.7795275590551181
        },
        {
          "duration": 0.4044113333333428,
          "durationTicks": 44,
          "midi": 72,
          "name": "C5",
          "ticks": 18576,
          "time": 170.73511200000002,
          "velocity": 0.7795275590551181
        },
        {
          "duration": 0.15624983333333375,
          "durationTicks": 17,
          "midi": 77,
          "name": "F5",
          "ticks": 18623,
          "time": 171.16709683333335,
          "velocity": 0.7795275590551181
        },
        {
          "duration": 0.14705866666668044,
          "durationTicks": 16,
          "midi": 70,
          "name": "A#4",
          "ticks": 18624,
          "time": 171.176288,
          "velocity": 0.7795275590551181
        },
        {
          "duration": 0.33088200000000256,
          "durationTicks": 36,
          "midi": 78,
          "name": "F#5",
          "ticks": 18647,
          "time": 171.38768483333334,
          "velocity": 0.7795275590551181
        },
        {
          "duration": 0.32169083333334925,
          "durationTicks": 35,
          "midi": 72,
          "name": "C5",
          "ticks": 18648,
          "time": 171.396876,
          "velocity": 0.7795275590551181
        },
        {
          "duration": 0.19301450000000386,
          "durationTicks": 21,
          "midi": 77,
          "name": "F5",
          "ticks": 18695,
          "time": 171.82886083333335,
          "velocity": 0.7795275590551181
        },
        {
          "duration": 0.19301450000000386,
          "durationTicks": 21,
          "midi": 70,
          "name": "A#4",
          "ticks": 18696,
          "time": 171.838052,
          "velocity": 0.7795275590551181
        },
        {
          "duration": 0.1378674999999987,
          "durationTicks": 15,
          "midi": 78,
          "name": "F#5",
          "ticks": 18719,
          "time": 172.04944883333334,
          "velocity": 0.7795275590551181
        },
        {
          "duration": 0.12867633333334538,
          "durationTicks": 14,
          "midi": 72,
          "name": "C5",
          "ticks": 18720,
          "time": 172.05864,
          "velocity": 0.7795275590551181
        },
        {
          "duration": 0.7352933333333453,
          "durationTicks": 80,
          "midi": 80,
          "name": "G#5",
          "ticks": 18743,
          "time": 172.27003683333334,
          "velocity": 0.7795275590551181
        },
        {
          "duration": 0.7352933333333169,
          "durationTicks": 80,
          "midi": 73,
          "name": "C#5",
          "ticks": 18744,
          "time": 172.27922800000002,
          "velocity": 0.7795275590551181
        },
        {
          "duration": 1.7095569999999896,
          "durationTicks": 186,
          "midi": 80,
          "name": "G#5",
          "ticks": 18863,
          "time": 173.37297683333335,
          "velocity": 0.6141732283464567
        },
        {
          "duration": 1.7095569999999896,
          "durationTicks": 186,
          "midi": 77,
          "name": "F5",
          "ticks": 18863,
          "time": 173.37297683333335,
          "velocity": 0.8110236220472441
        },
        {
          "duration": 1.7095569999999896,
          "durationTicks": 186,
          "midi": 73,
          "name": "C#5",
          "ticks": 18864,
          "time": 173.382168,
          "velocity": 0.8110236220472441
        },
        {
          "duration": 0.8363961666666455,
          "durationTicks": 91,
          "midi": 81,
          "name": "A5",
          "ticks": 19055,
          "time": 175.13768083333335,
          "velocity": 0.6141732283464567
        },
        {
          "duration": 0.8363961666666455,
          "durationTicks": 91,
          "midi": 75,
          "name": "D#5",
          "ticks": 19055,
          "time": 175.13768083333335,
          "velocity": 0.8110236220472441
        },
        {
          "duration": 0.8272049999999922,
          "durationTicks": 90,
          "midi": 72,
          "name": "C5",
          "ticks": 19056,
          "time": 175.146872,
          "velocity": 0.8110236220472441
        },
        {
          "duration": 0.8363961666666455,
          "durationTicks": 91,
          "midi": 75,
          "name": "D#5",
          "ticks": 19151,
          "time": 176.02003283333335,
          "velocity": 0.6141732283464567
        },
        {
          "duration": 0.8363961666666455,
          "durationTicks": 91,
          "midi": 72,
          "name": "C5",
          "ticks": 19151,
          "time": 176.02003283333335,
          "velocity": 0.8661417322834646
        },
        {
          "duration": 0.8272049999999922,
          "durationTicks": 90,
          "midi": 69,
          "name": "A4",
          "ticks": 19152,
          "time": 176.029224,
          "velocity": 0.7086614173228346
        },
        {
          "duration": 0.8363961666666739,
          "durationTicks": 91,
          "midi": 77,
          "name": "F5",
          "ticks": 19247,
          "time": 176.90238483333334,
          "velocity": 0.6141732283464567
        },
        {
          "duration": 0.8363961666666739,
          "durationTicks": 91,
          "midi": 73,
          "name": "C#5",
          "ticks": 19247,
          "time": 176.90238483333334,
          "velocity": 0.8110236220472441
        },
        {
          "duration": 0.8272050000000206,
          "durationTicks": 90,
          "midi": 68,
          "name": "G#4",
          "ticks": 19248,
          "time": 176.911576,
          "velocity": 0.8110236220472441
        },
        {
          "duration": 0.6525728333333518,
          "durationTicks": 71,
          "midi": 80,
          "name": "G#5",
          "ticks": 19343,
          "time": 177.78473683333334,
          "velocity": 0.6141732283464567
        },
        {
          "duration": 0.6525728333333518,
          "durationTicks": 71,
          "midi": 75,
          "name": "D#5",
          "ticks": 19343,
          "time": 177.78473683333334,
          "velocity": 0.8503937007874016
        },
        {
          "duration": 0.6433816666666985,
          "durationTicks": 70,
          "midi": 72,
          "name": "C5",
          "ticks": 19344,
          "time": 177.793928,
          "velocity": 0.7007874015748031
        },
        {
          "duration": 0.4136024999999961,
          "durationTicks": 45,
          "midi": 73,
          "name": "C#5",
          "ticks": 19415,
          "time": 178.44650083333335,
          "velocity": 0.6141732283464567
        },
        {
          "duration": 0.4136024999999961,
          "durationTicks": 45,
          "midi": 80,
          "name": "G#5",
          "ticks": 19415,
          "time": 178.44650083333335,
          "velocity": 0.8582677165354331
        },
        {
          "duration": 0.4044113333333428,
          "durationTicks": 44,
          "midi": 77,
          "name": "F5",
          "ticks": 19416,
          "time": 178.455692,
          "velocity": 0.7007874015748031
        },
        {
          "duration": 0.4136024999999961,
          "durationTicks": 45,
          "midi": 68,
          "name": "G#4",
          "ticks": 19463,
          "time": 178.88767683333336,
          "velocity": 0.6141732283464567
        },
        {
          "duration": 0.4136024999999961,
          "durationTicks": 45,
          "midi": 78,
          "name": "F#5",
          "ticks": 19463,
          "time": 178.88767683333336,
          "velocity": 0.8582677165354331
        },
        {
          "duration": 0.4136024999999961,
          "durationTicks": 45,
          "midi": 73,
          "name": "C#5",
          "ticks": 19464,
          "time": 178.896868,
          "velocity": 0.7007874015748031
        },
        {
          "duration": 0.4411760000000129,
          "durationTicks": 48,
          "midi": 68,
          "name": "G#4",
          "ticks": 19511,
          "time": 179.32885283333334,
          "velocity": 0.6141732283464567
        },
        {
          "duration": 0.4411760000000129,
          "durationTicks": 48,
          "midi": 77,
          "name": "F5",
          "ticks": 19511,
          "time": 179.32885283333334,
          "velocity": 0.7795275590551181
        },
        {
          "duration": 0.4319848333333596,
          "durationTicks": 47,
          "midi": 73,
          "name": "C#5",
          "ticks": 19512,
          "time": 179.338044,
          "velocity": 0.7007874015748031
        },
        {
          "duration": 0.4411760000000129,
          "durationTicks": 48,
          "midi": 80,
          "name": "G#5",
          "ticks": 19631,
          "time": 180.43179283333333,
          "velocity": 0.7795275590551181
        },
        {
          "duration": 0.43198483333333115,
          "durationTicks": 47,
          "midi": 73,
          "name": "C#5",
          "ticks": 19632,
          "time": 180.44098400000001,
          "velocity": 0.7795275590551181
        },
        {
          "duration": 0.10110283333332859,
          "durationTicks": 11,
          "midi": 80,
          "name": "G#5",
          "ticks": 19727,
          "time": 181.31414483333336,
          "velocity": 0.7795275590551181
        },
        {
          "duration": 0.09191166666667527,
          "durationTicks": 10,
          "midi": 73,
          "name": "C#5",
          "ticks": 19728,
          "time": 181.323336,
          "velocity": 0.7795275590551181
        },
        {
          "duration": 0.4227936666666494,
          "durationTicks": 46,
          "midi": 82,
          "name": "A#5",
          "ticks": 19751,
          "time": 181.53473283333335,
          "velocity": 0.7795275590551181
        },
        {
          "duration": 0.42279366666667784,
          "durationTicks": 46,
          "midi": 75,
          "name": "D#5",
          "ticks": 19752,
          "time": 181.543924,
          "velocity": 0.7795275590551181
        },
        {
          "duration": 0.33088200000000256,
          "durationTicks": 36,
          "midi": 80,
          "name": "G#5",
          "ticks": 19799,
          "time": 181.97590883333334,
          "velocity": 0.7795275590551181
        },
        {
          "duration": 0.3216908333333208,
          "durationTicks": 35,
          "midi": 73,
          "name": "C#5",
          "ticks": 19800,
          "time": 181.98510000000002,
          "velocity": 0.7795275590551181
        },
        {
          "duration": 0.36764666666664425,
          "durationTicks": 40,
          "midi": 78,
          "name": "F#5",
          "ticks": 19847,
          "time": 182.41708483333335,
          "velocity": 0.7795275590551181
        },
        {
          "duration": 0.3676466666666727,
          "durationTicks": 40,
          "midi": 72,
          "name": "C5",
          "ticks": 19848,
          "time": 182.426276,
          "velocity": 0.7795275590551181
        },
        {
          "duration": 0.3124996666666675,
          "durationTicks": 34,
          "midi": 77,
          "name": "F5",
          "ticks": 19895,
          "time": 182.85826083333333,
          "velocity": 0.7795275590551181
        },
        {
          "duration": 0.3124996666666675,
          "durationTicks": 34,
          "midi": 70,
          "name": "A#4",
          "ticks": 19896,
          "time": 182.86745200000001,
          "velocity": 0.7795275590551181
        },
        {
          "duration": 0.3400731666666559,
          "durationTicks": 37,
          "midi": 75,
          "name": "D#5",
          "ticks": 19943,
          "time": 183.29943683333335,
          "velocity": 0.7795275590551181
        },
        {
          "duration": 0.3400731666666843,
          "durationTicks": 37,
          "midi": 68,
          "name": "G#4",
          "ticks": 19944,
          "time": 183.308628,
          "velocity": 0.7795275590551181
        },
        {
          "duration": 0.10110283333332859,
          "durationTicks": 11,
          "midi": 75,
          "name": "D#5",
          "ticks": 19991,
          "time": 183.74061283333336,
          "velocity": 0.7795275590551181
        },
        {
          "duration": 0.14705866666668044,
          "durationTicks": 16,
          "midi": 68,
          "name": "G#4",
          "ticks": 19992,
          "time": 183.749804,
          "velocity": 0.7795275590551181
        },
        {
          "duration": 0.7352933333333453,
          "durationTicks": 80,
          "midi": 78,
          "name": "F#5",
          "ticks": 20015,
          "time": 183.96120083333335,
          "velocity": 0.7795275590551181
        },
        {
          "duration": 0.7352933333333453,
          "durationTicks": 80,
          "midi": 72,
          "name": "C5",
          "ticks": 20016,
          "time": 183.970392,
          "velocity": 0.7795275590551181
        },
        {
          "duration": 0.39522016666666104,
          "durationTicks": 43,
          "midi": 78,
          "name": "F#5",
          "ticks": 20111,
          "time": 184.84355283333335,
          "velocity": 0.7795275590551181
        },
        {
          "duration": 0.39522016666668947,
          "durationTicks": 43,
          "midi": 72,
          "name": "C5",
          "ticks": 20112,
          "time": 184.852744,
          "velocity": 0.7795275590551181
        },
        {
          "duration": 0.21139683333333892,
          "durationTicks": 23,
          "midi": 77,
          "name": "F5",
          "ticks": 20159,
          "time": 185.28472883333336,
          "velocity": 0.7795275590551181
        },
        {
          "duration": 0.21139683333333892,
          "durationTicks": 23,
          "midi": 70,
          "name": "A#4",
          "ticks": 20160,
          "time": 185.29392,
          "velocity": 0.7795275590551181
        },
        {
          "duration": 0.44117599999998447,
          "durationTicks": 48,
          "midi": 78,
          "name": "F#5",
          "ticks": 20183,
          "time": 185.50531683333335,
          "velocity": 0.7795275590551181
        },
        {
          "duration": 0.43198483333333115,
          "durationTicks": 47,
          "midi": 72,
          "name": "C5",
          "ticks": 20184,
          "time": 185.514508,
          "velocity": 0.7795275590551181
        },
        {
          "duration": 0.11948516666666364,
          "durationTicks": 13,
          "midi": 77,
          "name": "F5",
          "ticks": 20231,
          "time": 185.94649283333334,
          "velocity": 0.7795275590551181
        },
        {
          "duration": 0.11029400000001033,
          "durationTicks": 12,
          "midi": 70,
          "name": "A#4",
          "ticks": 20232,
          "time": 185.955684,
          "velocity": 0.7795275590551181
        },
        {
          "duration": 0.22058799999999223,
          "durationTicks": 24,
          "midi": 78,
          "name": "F#5",
          "ticks": 20255,
          "time": 186.16708083333336,
          "velocity": 0.7795275590551181
        },
        {
          "duration": 0.21139683333333892,
          "durationTicks": 23,
          "midi": 72,
          "name": "C5",
          "ticks": 20256,
          "time": 186.176272,
          "velocity": 0.7795275590551181
        },
        {
          "duration": 0.5514699999999948,
          "durationTicks": 60,
          "midi": 80,
          "name": "G#5",
          "ticks": 20279,
          "time": 186.38766883333335,
          "velocity": 0.7795275590551181
        },
        {
          "duration": 0.5514699999999948,
          "durationTicks": 60,
          "midi": 74,
          "name": "D5",
          "ticks": 20280,
          "time": 186.39686,
          "velocity": 0.7795275590551181
        },
        {
          "duration": 1.709557000000018,
          "durationTicks": 186,
          "midi": 80,
          "name": "G#5",
          "ticks": 20399,
          "time": 187.49060883333334,
          "velocity": 0.6141732283464567
        },
        {
          "duration": 1.709557000000018,
          "durationTicks": 186,
          "midi": 77,
          "name": "F5",
          "ticks": 20399,
          "time": 187.49060883333334,
          "velocity": 0.8110236220472441
        },
        {
          "duration": 1.709557000000018,
          "durationTicks": 186,
          "midi": 73,
          "name": "C#5",
          "ticks": 20400,
          "time": 187.4998,
          "velocity": 0.8110236220472441
        },
        {
          "duration": 0.6525728333333518,
          "durationTicks": 71,
          "midi": 80,
          "name": "G#5",
          "ticks": 20591,
          "time": 189.25531283333333,
          "velocity": 0.6141732283464567
        },
        {
          "duration": 0.6433816666666701,
          "durationTicks": 70,
          "midi": 75,
          "name": "D#5",
          "ticks": 20591,
          "time": 189.25531283333333,
          "velocity": 0.7795275590551181
        },
        {
          "duration": 0.6433816666666701,
          "durationTicks": 70,
          "midi": 72,
          "name": "C5",
          "ticks": 20592,
          "time": 189.26450400000002,
          "velocity": 0.7795275590551181
        },
        {
          "duration": 0.21139683333333892,
          "durationTicks": 23,
          "midi": 80,
          "name": "G#5",
          "ticks": 20663,
          "time": 189.91707683333334,
          "velocity": 0.7795275590551181
        },
        {
          "duration": 0.21139683333336734,
          "durationTicks": 23,
          "midi": 73,
          "name": "C#5",
          "ticks": 20664,
          "time": 189.926268,
          "velocity": 0.8740157480314961
        },
        {
          "duration": 0.21139683333333892,
          "durationTicks": 23,
          "midi": 80,
          "name": "G#5",
          "ticks": 20687,
          "time": 190.13766483333336,
          "velocity": 0.7795275590551181
        },
        {
          "duration": 0.10110283333332859,
          "durationTicks": 11,
          "midi": 73,
          "name": "C#5",
          "ticks": 20688,
          "time": 190.146856,
          "velocity": 0.8740157480314961
        },
        {
          "duration": 0.21139683333333892,
          "durationTicks": 23,
          "midi": 72,
          "name": "C5",
          "ticks": 20711,
          "time": 190.35825283333335,
          "velocity": 0.8740157480314961
        },
        {
          "duration": 0.10110283333335701,
          "durationTicks": 11,
          "midi": 75,
          "name": "D#5",
          "ticks": 20735,
          "time": 190.57884083333335,
          "velocity": 0.8740157480314961
        },
        {
          "duration": 1.7555128333333414,
          "durationTicks": 191,
          "midi": 73,
          "name": "C#5",
          "ticks": 20759,
          "time": 190.79942883333334,
          "velocity": 0.8740157480314961
        },
        {
          "duration": 1.5441160000000025,
          "durationTicks": 168,
          "midi": 77,
          "name": "F5",
          "ticks": 20783,
          "time": 191.02001683333336,
          "velocity": 0.7795275590551181
        },
        {
          "duration": 1.5441160000000025,
          "durationTicks": 168,
          "midi": 75,
          "name": "D#5",
          "ticks": 20783,
          "time": 191.02001683333336,
          "velocity": 0.7007874015748031
        },
        {
          "duration": 1.7095569999999896,
          "durationTicks": 186,
          "midi": 80,
          "name": "G#5",
          "ticks": 21167,
          "time": 194.54942483333335,
          "velocity": 0.6141732283464567
        },
        {
          "duration": 1.7095569999999896,
          "durationTicks": 186,
          "midi": 77,
          "name": "F5",
          "ticks": 21167,
          "time": 194.54942483333335,
          "velocity": 0.8110236220472441
        },
        {
          "duration": 1.709557000000018,
          "durationTicks": 186,
          "midi": 73,
          "name": "C#5",
          "ticks": 21168,
          "time": 194.558616,
          "velocity": 0.8110236220472441
        },
        {
          "duration": 0.6525728333333518,
          "durationTicks": 71,
          "midi": 80,
          "name": "G#5",
          "ticks": 21359,
          "time": 196.31412883333334,
          "velocity": 0.6141732283464567
        },
        {
          "duration": 0.6433816666666701,
          "durationTicks": 70,
          "midi": 75,
          "name": "D#5",
          "ticks": 21359,
          "time": 196.31412883333334,
          "velocity": 0.7795275590551181
        },
        {
          "duration": 0.6433816666666985,
          "durationTicks": 70,
          "midi": 72,
          "name": "C5",
          "ticks": 21360,
          "time": 196.32332,
          "velocity": 0.7795275590551181
        },
        {
          "duration": 0.21139683333333892,
          "durationTicks": 23,
          "midi": 80,
          "name": "G#5",
          "ticks": 21431,
          "time": 196.97589283333335,
          "velocity": 0.7795275590551181
        },
        {
          "duration": 0.14705866666668044,
          "durationTicks": 16,
          "midi": 72,
          "name": "C5",
          "ticks": 21432,
          "time": 196.985084,
          "velocity": 0.7795275590551181
        },
        {
          "duration": 0.21139683333333892,
          "durationTicks": 23,
          "midi": 80,
          "name": "G#5",
          "ticks": 21455,
          "time": 197.19648083333334,
          "velocity": 0.7795275590551181
        },
        {
          "duration": 0.10110283333335701,
          "durationTicks": 11,
          "midi": 73,
          "name": "C#5",
          "ticks": 21456,
          "time": 197.205672,
          "velocity": 0.8740157480314961
        },
        {
          "duration": 0.21139683333333892,
          "durationTicks": 23,
          "midi": 72,
          "name": "C5",
          "ticks": 21479,
          "time": 197.41706883333336,
          "velocity": 0.8740157480314961
        },
        {
          "duration": 0.14705866666665202,
          "durationTicks": 16,
          "midi": 75,
          "name": "D#5",
          "ticks": 21503,
          "time": 197.63765683333335,
          "velocity": 0.8740157480314961
        },
        {
          "duration": 3.520216833333336,
          "durationTicks": 383,
          "midi": 73,
          "name": "C#5",
          "ticks": 21527,
          "time": 197.85824483333334,
          "velocity": 0.8740157480314961
        },
        {
          "duration": 3.308819999999997,
          "durationTicks": 360,
          "midi": 80,
          "name": "G#5",
          "ticks": 21551,
          "time": 198.07883283333334,
          "velocity": 0.7795275590551181
        },
        {
          "duration": 3.308819999999997,
          "durationTicks": 360,
          "midi": 75,
          "name": "D#5",
          "ticks": 21551,
          "time": 198.07883283333334,
          "velocity": 0.7007874015748031
        }
      ]
    },
    {
      "channel": 2,
      "controlChanges": {
        "11": [
          {
            "number": 11,
            "ticks": 6427,
            "time": 59.07162816666666,
            "value": 0.7559055118110236
          },
          {
            "number": 11,
            "ticks": 6430,
            "time": 59.099201666666666,
            "value": 0.7322834645669292
          },
          {
            "number": 11,
            "ticks": 6433,
            "time": 59.12677516666667,
            "value": 0.7086614173228346
          },
          {
            "number": 11,
            "ticks": 6436,
            "time": 59.154348666666664,
            "value": 0.6771653543307087
          },
          {
            "number": 11,
            "ticks": 6440,
            "time": 59.191113333333334,
            "value": 0.6535433070866141
          },
          {
            "number": 11,
            "ticks": 6443,
            "time": 59.21868683333334,
            "value": 0.6220472440944882
          },
          {
            "number": 11,
            "ticks": 6446,
            "time": 59.24626033333334,
            "value": 0.5984251968503937
          },
          {
            "number": 11,
            "ticks": 6449,
            "time": 59.273833833333335,
            "value": 0.5748031496062992
          },
          {
            "number": 11,
            "ticks": 6453,
            "time": 59.310598500000005,
            "value": 0.5433070866141733
          },
          {
            "number": 11,
            "ticks": 6456,
            "time": 59.33817200000001,
            "value": 0.5196850393700787
          },
          {
            "number": 11,
            "ticks": 6459,
            "time": 59.36574550000001,
            "value": 0.4881889763779528
          },
          {
            "number": 11,
            "ticks": 6570,
            "time": 60.385965000000006,
            "value": 0.7795275590551181
          },
          {
            "number": 11,
            "ticks": 14875,
            "time": 136.7186041666667,
            "value": 0.7559055118110236
          },
          {
            "number": 11,
            "ticks": 14878,
            "time": 136.74617766666668,
            "value": 0.7322834645669292
          },
          {
            "number": 11,
            "ticks": 14881,
            "time": 136.7737511666667,
            "value": 0.7086614173228346
          },
          {
            "number": 11,
            "ticks": 14884,
            "time": 136.8013246666667,
            "value": 0.6771653543307087
          },
          {
            "number": 11,
            "ticks": 14888,
            "time": 136.83808933333336,
            "value": 0.6535433070866141
          },
          {
            "number": 11,
            "ticks": 14891,
            "time": 136.86566283333335,
            "value": 0.6220472440944882
          },
          {
            "number": 11,
            "ticks": 14894,
            "time": 136.89323633333333,
            "value": 0.5984251968503937
          },
          {
            "number": 11,
            "ticks": 14897,
            "time": 136.92080983333335,
            "value": 0.5748031496062992
          },
          {
            "number": 11,
            "ticks": 14901,
            "time": 136.9575745,
            "value": 0.5433070866141733
          },
          {
            "number": 11,
            "ticks": 14904,
            "time": 136.985148,
            "value": 0.5196850393700787
          },
          {
            "number": 11,
            "ticks": 14907,
            "time": 137.0127215,
            "value": 0.4881889763779528
          },
          {
            "number": 11,
            "ticks": 15018,
            "time": 138.032941,
            "value": 0.7795275590551181
          }
        ]
      },
      "pitchBends": [
        {
          "ticks": 6359,
          "time": 58.446628833333335,
          "value": -0.083251953125
        },
        {
          "ticks": 6361,
          "time": 58.46501116666666,
          "value": -0.053955078125
        },
        {
          "ticks": 6364,
          "time": 58.492584666666666,
          "value": -0.0269775390625
        },
        {
          "ticks": 6367,
          "time": 58.52015816666667,
          "value": 0
        },
        {
          "ticks": 14807,
          "time": 136.09360483333336,
          "value": -0.083251953125
        },
        {
          "ticks": 14809,
          "time": 136.1119871666667,
          "value": -0.053955078125
        },
        {
          "ticks": 14812,
          "time": 136.13956066666668,
          "value": -0.0269775390625
        },
        {
          "ticks": 14815,
          "time": 136.1671341666667,
          "value": 0
        }
      ],
      "instrument": {
        "family": "reed",
        "number": 69,
        "name": "english horn"
      },
      "name": "",
      "notes": [
        {
          "duration": 0.19301449999999676,
          "durationTicks": 21,
          "midi": 61,
          "name": "C#4",
          "ticks": 5807,
          "time": 53.373104833333336,
          "velocity": 0.7795275590551181
        },
        {
          "duration": 0.18382333333332923,
          "durationTicks": 20,
          "midi": 53,
          "name": "F3",
          "ticks": 5808,
          "time": 53.382296000000004,
          "velocity": 0.7795275590551181
        },
        {
          "duration": 0.19301449999999676,
          "durationTicks": 21,
          "midi": 58,
          "name": "A#3",
          "ticks": 5831,
          "time": 53.593692833333336,
          "velocity": 0.7795275590551181
        },
        {
          "duration": 0.18382333333332923,
          "durationTicks": 20,
          "midi": 49,
          "name": "C#3",
          "ticks": 5832,
          "time": 53.602884,
          "velocity": 0.7795275590551181
        },
        {
          "duration": 0.1011028333333357,
          "durationTicks": 11,
          "midi": 61,
          "name": "C#4",
          "ticks": 5855,
          "time": 53.814280833333335,
          "velocity": 0.7795275590551181
        },
        {
          "duration": 0.1011028333333357,
          "durationTicks": 11,
          "midi": 53,
          "name": "F3",
          "ticks": 5856,
          "time": 53.823472,
          "velocity": 0.7795275590551181
        },
        {
          "duration": 0.35845549999999804,
          "durationTicks": 39,
          "midi": 60,
          "name": "C4",
          "ticks": 5879,
          "time": 54.034868833333334,
          "velocity": 0.7795275590551181
        },
        {
          "duration": 0.3492643333333305,
          "durationTicks": 38,
          "midi": 51,
          "name": "D#3",
          "ticks": 5880,
          "time": 54.04406,
          "velocity": 0.7795275590551181
        },
        {
          "duration": 0.20220566666666429,
          "durationTicks": 22,
          "midi": 58,
          "name": "A#3",
          "ticks": 5927,
          "time": 54.47604483333333,
          "velocity": 0.7795275590551181
        },
        {
          "duration": 0.19301449999999676,
          "durationTicks": 21,
          "midi": 49,
          "name": "C#3",
          "ticks": 5928,
          "time": 54.485236,
          "velocity": 0.7795275590551181
        },
        {
          "duration": 0.1011028333333357,
          "durationTicks": 11,
          "midi": 56,
          "name": "G#3",
          "ticks": 5951,
          "time": 54.69663283333333,
          "velocity": 0.7795275590551181
        },
        {
          "duration": 0.1011028333333357,
          "durationTicks": 11,
          "midi": 48,
          "name": "C3",
          "ticks": 5952,
          "time": 54.705824,
          "velocity": 0.7795275590551181
        },
        {
          "duration": 0.3860290000000006,
          "durationTicks": 42,
          "midi": 58,
          "name": "A#3",
          "ticks": 5975,
          "time": 54.91722083333334,
          "velocity": 0.7795275590551181
        },
        {
          "duration": 0.3768378333333402,
          "durationTicks": 41,
          "midi": 49,
          "name": "C#3",
          "ticks": 5976,
          "time": 54.926412,
          "velocity": 0.7795275590551181
        },
        {
          "duration": 0.20220566666666429,
          "durationTicks": 22,
          "midi": 56,
          "name": "G#3",
          "ticks": 6023,
          "time": 55.35839683333334,
          "velocity": 0.7795275590551181
        },
        {
          "duration": 0.19301450000000386,
          "durationTicks": 21,
          "midi": 48,
          "name": "C3",
          "ticks": 6024,
          "time": 55.367588,
          "velocity": 0.7795275590551181
        },
        {
          "duration": 0.1011028333333357,
          "durationTicks": 11,
          "midi": 54,
          "name": "F#3",
          "ticks": 6047,
          "time": 55.57898483333334,
          "velocity": 0.7795275590551181
        },
        {
          "duration": 0.1011028333333357,
          "durationTicks": 11,
          "midi": 46,
          "name": "A#2",
          "ticks": 6048,
          "time": 55.588176,
          "velocity": 0.7795275590551181
        },
        {
          "duration": 0.3492643333333376,
          "durationTicks": 38,
          "midi": 56,
          "name": "G#3",
          "ticks": 6071,
          "time": 55.799572833333336,
          "velocity": 0.7795275590551181
        },
        {
          "duration": 0.3492643333333305,
          "durationTicks": 38,
          "midi": 48,
          "name": "C3",
          "ticks": 6072,
          "time": 55.808764000000004,
          "velocity": 0.7795275590551181
        },
        {
          "duration": 0.21139683333333892,
          "durationTicks": 23,
          "midi": 54,
          "name": "F#3",
          "ticks": 6119,
          "time": 56.240748833333335,
          "velocity": 0.7795275590551181
        },
        {
          "duration": 0.2022056666666714,
          "durationTicks": 22,
          "midi": 46,
          "name": "A#2",
          "ticks": 6120,
          "time": 56.24994,
          "velocity": 0.7795275590551181
        },
        {
          "duration": 0.19301450000000386,
          "durationTicks": 21,
          "midi": 53,
          "name": "F3",
          "ticks": 6143,
          "time": 56.461336833333334,
          "velocity": 0.7795275590551181
        },
        {
          "duration": 0.18382333333333634,
          "durationTicks": 20,
          "midi": 44,
          "name": "G#2",
          "ticks": 6144,
          "time": 56.470528,
          "velocity": 0.7795275590551181
        },
        {
          "duration": 0.1011028333333357,
          "durationTicks": 11,
          "midi": 53,
          "name": "F3",
          "ticks": 6167,
          "time": 56.68192483333333,
          "velocity": 0.7795275590551181
        },
        {
          "duration": 0.1011028333333357,
          "durationTicks": 11,
          "midi": 44,
          "name": "G#2",
          "ticks": 6168,
          "time": 56.691116,
          "velocity": 0.7795275590551181
        },
        {
          "duration": 0.1011028333333357,
          "durationTicks": 11,
          "midi": 54,
          "name": "F#3",
          "ticks": 6191,
          "time": 56.90251283333333,
          "velocity": 0.7795275590551181
        },
        {
          "duration": 0.1011028333333357,
          "durationTicks": 11,
          "midi": 46,
          "name": "A#2",
          "ticks": 6192,
          "time": 56.911704,
          "velocity": 0.7795275590551181
        },
        {
          "duration": 0.20220566666666429,
          "durationTicks": 22,
          "midi": 53,
          "name": "F3",
          "ticks": 6215,
          "time": 57.12310083333334,
          "velocity": 0.7795275590551181
        },
        {
          "duration": 0.19301450000000386,
          "durationTicks": 21,
          "midi": 44,
          "name": "G#2",
          "ticks": 6216,
          "time": 57.132292,
          "velocity": 0.7795275590551181
        },
        {
          "duration": 0.1011028333333357,
          "durationTicks": 11,
          "midi": 54,
          "name": "F#3",
          "ticks": 6239,
          "time": 57.34368883333334,
          "velocity": 0.7795275590551181
        },
        {
          "duration": 0.1011028333333357,
          "durationTicks": 11,
          "midi": 46,
          "name": "A#2",
          "ticks": 6240,
          "time": 57.35288,
          "velocity": 0.7795275590551181
        },
        {
          "duration": 0.35845549999999804,
          "durationTicks": 39,
          "midi": 56,
          "name": "G#3",
          "ticks": 6263,
          "time": 57.56427683333334,
          "velocity": 0.7795275590551181
        },
        {
          "duration": 0.35845550000000515,
          "durationTicks": 39,
          "midi": 48,
          "name": "C3",
          "ticks": 6264,
          "time": 57.573468,
          "velocity": 0.7795275590551181
        },
        {
          "duration": 0.1011028333333357,
          "durationTicks": 11,
          "midi": 54,
          "name": "F#3",
          "ticks": 6311,
          "time": 58.00545283333334,
          "velocity": 0.7795275590551181
        },
        {
          "duration": 0.1011028333333357,
          "durationTicks": 11,
          "midi": 46,
          "name": "A#2",
          "ticks": 6312,
          "time": 58.014644,
          "velocity": 0.7795275590551181
        },
        {
          "duration": 0.10110283333332859,
          "durationTicks": 11,
          "midi": 56,
          "name": "G#3",
          "ticks": 6335,
          "time": 58.226040833333336,
          "velocity": 0.7795275590551181
        },
        {
          "duration": 0.1011028333333357,
          "durationTicks": 11,
          "midi": 48,
          "name": "C3",
          "ticks": 6336,
          "time": 58.235232,
          "velocity": 0.7795275590551181
        },
        {
          "duration": 0.9558813333333305,
          "durationTicks": 104,
          "midi": 58,
          "name": "A#3",
          "ticks": 6359,
          "time": 58.446628833333335,
          "velocity": 0.7795275590551181
        },
        {
          "duration": 0.9466901666666558,
          "durationTicks": 103,
          "midi": 50,
          "name": "D3",
          "ticks": 6360,
          "time": 58.45582000000001,
          "velocity": 0.7795275590551181
        },
        {
          "duration": 0.19301450000000386,
          "durationTicks": 21,
          "midi": 61,
          "name": "C#4",
          "ticks": 14255,
          "time": 131.02008083333334,
          "velocity": 0.7795275590551181
        },
        {
          "duration": 0.18382333333335055,
          "durationTicks": 20,
          "midi": 53,
          "name": "F3",
          "ticks": 14256,
          "time": 131.029272,
          "velocity": 0.7795275590551181
        },
        {
          "duration": 0.19301449999997544,
          "durationTicks": 21,
          "midi": 58,
          "name": "A#3",
          "ticks": 14279,
          "time": 131.24066883333336,
          "velocity": 0.7795275590551181
        },
        {
          "duration": 0.18382333333332213,
          "durationTicks": 20,
          "midi": 49,
          "name": "C#3",
          "ticks": 14280,
          "time": 131.24986,
          "velocity": 0.7795275590551181
        },
        {
          "duration": 0.10110283333332859,
          "durationTicks": 11,
          "midi": 61,
          "name": "C#4",
          "ticks": 14303,
          "time": 131.46125683333335,
          "velocity": 0.7795275590551181
        },
        {
          "duration": 0.10110283333332859,
          "durationTicks": 11,
          "midi": 53,
          "name": "F3",
          "ticks": 14304,
          "time": 131.470448,
          "velocity": 0.7795275590551181
        },
        {
          "duration": 0.35845549999999093,
          "durationTicks": 39,
          "midi": 60,
          "name": "C4",
          "ticks": 14327,
          "time": 131.68184483333334,
          "velocity": 0.7795275590551181
        },
        {
          "duration": 0.3492643333333376,
          "durationTicks": 38,
          "midi": 51,
          "name": "D#3",
          "ticks": 14328,
          "time": 131.691036,
          "velocity": 0.7795275590551181
        },
        {
          "duration": 0.20220566666665718,
          "durationTicks": 22,
          "midi": 58,
          "name": "A#3",
          "ticks": 14375,
          "time": 132.12302083333336,
          "velocity": 0.7795275590551181
        },
        {
          "duration": 0.19301450000000386,
          "durationTicks": 21,
          "midi": 49,
          "name": "C#3",
          "ticks": 14376,
          "time": 132.132212,
          "velocity": 0.7795275590551181
        },
        {
          "duration": 0.10110283333332859,
          "durationTicks": 11,
          "midi": 56,
          "name": "G#3",
          "ticks": 14399,
          "time": 132.34360883333335,
          "velocity": 0.7795275590551181
        },
        {
          "duration": 0.10110283333335701,
          "durationTicks": 11,
          "midi": 48,
          "name": "C3",
          "ticks": 14400,
          "time": 132.3528,
          "velocity": 0.7795275590551181
        },
        {
          "duration": 0.3860290000000077,
          "durationTicks": 42,
          "midi": 58,
          "name": "A#3",
          "ticks": 14423,
          "time": 132.56419683333334,
          "velocity": 0.7795275590551181
        },
        {
          "duration": 0.3768378333333544,
          "durationTicks": 41,
          "midi": 49,
          "name": "C#3",
          "ticks": 14424,
          "time": 132.573388,
          "velocity": 0.7795275590551181
        },
        {
          "duration": 0.20220566666665718,
          "durationTicks": 22,
          "midi": 56,
          "name": "G#3",
          "ticks": 14471,
          "time": 133.00537283333335,
          "velocity": 0.7795275590551181
        },
        {
          "duration": 0.19301450000000386,
          "durationTicks": 21,
          "midi": 48,
          "name": "C3",
          "ticks": 14472,
          "time": 133.014564,
          "velocity": 0.7795275590551181
        },
        {
          "duration": 0.10110283333332859,
          "durationTicks": 11,
          "midi": 54,
          "name": "F#3",
          "ticks": 14495,
          "time": 133.22596083333335,
          "velocity": 0.7795275590551181
        },
        {
          "duration": 0.10110283333335701,
          "durationTicks": 11,
          "midi": 46,
          "name": "A#2",
          "ticks": 14496,
          "time": 133.235152,
          "velocity": 0.7795275590551181
        },
        {
          "duration": 0.3492643333333376,
          "durationTicks": 38,
          "midi": 56,
          "name": "G#3",
          "ticks": 14519,
          "time": 133.44654883333334,
          "velocity": 0.7795275590551181
        },
        {
          "duration": 0.34926433333336604,
          "durationTicks": 38,
          "midi": 48,
          "name": "C3",
          "ticks": 14520,
          "time": 133.45574,
          "velocity": 0.7795275590551181
        },
        {
          "duration": 0.21139683333333892,
          "durationTicks": 23,
          "midi": 54,
          "name": "F#3",
          "ticks": 14567,
          "time": 133.88772483333335,
          "velocity": 0.7795275590551181
        },
        {
          "duration": 0.2022056666666856,
          "durationTicks": 22,
          "midi": 46,
          "name": "A#2",
          "ticks": 14568,
          "time": 133.896916,
          "velocity": 0.7795275590551181
        },
        {
          "duration": 0.19301450000000386,
          "durationTicks": 21,
          "midi": 53,
          "name": "F3",
          "ticks": 14591,
          "time": 134.10831283333334,
          "velocity": 0.7795275590551181
        },
        {
          "duration": 0.18382333333335055,
          "durationTicks": 20,
          "midi": 44,
          "name": "G#2",
          "ticks": 14592,
          "time": 134.117504,
          "velocity": 0.7795275590551181
        },
        {
          "duration": 0.10110283333335701,
          "durationTicks": 11,
          "midi": 53,
          "name": "F3",
          "ticks": 14615,
          "time": 134.32890083333334,
          "velocity": 0.7795275590551181
        },
        {
          "duration": 0.10110283333332859,
          "durationTicks": 11,
          "midi": 44,
          "name": "G#2",
          "ticks": 14616,
          "time": 134.33809200000002,
          "velocity": 0.7795275590551181
        },
        {
          "duration": 0.10110283333332859,
          "durationTicks": 11,
          "midi": 54,
          "name": "F#3",
          "ticks": 14639,
          "time": 134.54948883333336,
          "velocity": 0.7795275590551181
        },
        {
          "duration": 0.10110283333332859,
          "durationTicks": 11,
          "midi": 46,
          "name": "A#2",
          "ticks": 14640,
          "time": 134.55868,
          "velocity": 0.7795275590551181
        },
        {
          "duration": 0.20220566666665718,
          "durationTicks": 22,
          "midi": 53,
          "name": "F3",
          "ticks": 14663,
          "time": 134.77007683333335,
          "velocity": 0.7795275590551181
        },
        {
          "duration": 0.19301450000000386,
          "durationTicks": 21,
          "midi": 44,
          "name": "G#2",
          "ticks": 14664,
          "time": 134.779268,
          "velocity": 0.7795275590551181
        },
        {
          "duration": 0.10110283333335701,
          "durationTicks": 11,
          "midi": 54,
          "name": "F#3",
          "ticks": 14687,
          "time": 134.99066483333334,
          "velocity": 0.7795275590551181
        },
        {
          "duration": 0.10110283333335701,
          "durationTicks": 11,
          "midi": 46,
          "name": "A#2",
          "ticks": 14688,
          "time": 134.999856,
          "velocity": 0.7795275590551181
        },
        {
          "duration": 0.35845550000001936,
          "durationTicks": 39,
          "midi": 56,
          "name": "G#3",
          "ticks": 14711,
          "time": 135.21125283333333,
          "velocity": 0.7795275590551181
        },
        {
          "duration": 0.35845549999999093,
          "durationTicks": 39,
          "midi": 48,
          "name": "C3",
          "ticks": 14712,
          "time": 135.22044400000001,
          "velocity": 0.7795275590551181
        },
        {
          "duration": 0.10110283333332859,
          "durationTicks": 11,
          "midi": 54,
          "name": "F#3",
          "ticks": 14759,
          "time": 135.65242883333335,
          "velocity": 0.7795275590551181
        },
        {
          "duration": 0.10110283333335701,
          "durationTicks": 11,
          "midi": 46,
          "name": "A#2",
          "ticks": 14760,
          "time": 135.66162,
          "velocity": 0.7795275590551181
        },
        {
          "duration": 0.10110283333335701,
          "durationTicks": 11,
          "midi": 56,
          "name": "G#3",
          "ticks": 14783,
          "time": 135.87301683333334,
          "velocity": 0.7795275590551181
        },
        {
          "duration": 0.10110283333335701,
          "durationTicks": 11,
          "midi": 48,
          "name": "C3",
          "ticks": 14784,
          "time": 135.882208,
          "velocity": 0.7795275590551181
        },
        {
          "duration": 0.9558813333333376,
          "durationTicks": 104,
          "midi": 58,
          "name": "A#3",
          "ticks": 14807,
          "time": 136.09360483333336,
          "velocity": 0.7795275590551181
        },
        {
          "duration": 0.9466901666666843,
          "durationTicks": 103,
          "midi": 50,
          "name": "D3",
          "ticks": 14808,
          "time": 136.102796,
          "velocity": 0.7795275590551181
        }
      ]
    },
    {
      "channel": 0,
      "controlChanges": {
        "0": [
          {
            "number": 0,
            "ticks": 139,
            "time": 1.2775721666666668,
            "value": 0
          }
        ],
        "32": [
          {
            "number": 32,
            "ticks": 143,
            "time": 1.3143368333333334,
            "value": 0.015748031496062992
          }
        ],
        "121": [
          {
            "number": 121,
            "ticks": 134,
            "time": 1.2316163333333332,
            "value": 0
          }
        ]
      },
      "pitchBends": [],
      "instrument": {
        "family": "piano",
        "number": 0,
        "name": "acoustic grand piano"
      },
      "name": "RevCymbal / Guitar Solo / Wind Bell",
      "notes": [],
      "endOfTrackTicks": 22511
    },
    {
      "channel": 3,
      "controlChanges": {
        "6": [
          {
            "number": 6,
            "ticks": 173,
            "time": 1.5900718333333332,
            "value": 1
          },
          {
            "number": 6,
            "ticks": 180,
            "time": 1.65441,
            "value": 0.09448818897637795
          }
        ],
        "7": [
          {
            "number": 7,
            "ticks": 151,
            "time": 1.3878661666666667,
            "value": 0.8346456692913385
          }
        ],
        "10": [
          {
            "number": 10,
            "ticks": 153,
            "time": 1.4062485,
            "value": 0.4881889763779528
          }
        ],
        "11": [
          {
            "number": 11,
            "ticks": 155,
            "time": 1.4246308333333333,
            "value": 0
          },
          {
            "number": 11,
            "ticks": 227,
            "time": 2.0863948333333333,
            "value": 0.07874015748031496
          },
          {
            "number": 11,
            "ticks": 231,
            "time": 2.1231595,
            "value": 0.09448818897637795
          },
          {
            "number": 11,
            "ticks": 236,
            "time": 2.1691153333333335,
            "value": 0.11023622047244094
          },
          {
            "number": 11,
            "ticks": 241,
            "time": 2.2150711666666667,
            "value": 0.12598425196850394
          },
          {
            "number": 11,
            "ticks": 246,
            "time": 2.261027,
            "value": 0.14960629921259844
          },
          {
            "number": 11,
            "ticks": 251,
            "time": 2.3069828333333335,
            "value": 0.16535433070866143
          },
          {
            "number": 11,
            "ticks": 256,
            "time": 2.3529386666666667,
            "value": 0.18110236220472442
          },
          {
            "number": 11,
            "ticks": 261,
            "time": 2.3988945,
            "value": 0.2047244094488189
          },
          {
            "number": 11,
            "ticks": 266,
            "time": 2.4448503333333336,
            "value": 0.2204724409448819
          },
          {
            "number": 11,
            "ticks": 271,
            "time": 2.4908061666666668,
            "value": 0.23622047244094488
          },
          {
            "number": 11,
            "ticks": 276,
            "time": 2.536762,
            "value": 0.25984251968503935
          },
          {
            "number": 11,
            "ticks": 281,
            "time": 2.5827178333333336,
            "value": 0.2755905511811024
          },
          {
            "number": 11,
            "ticks": 286,
            "time": 2.628673666666667,
            "value": 0.29133858267716534
          },
          {
            "number": 11,
            "ticks": 291,
            "time": 2.6746295,
            "value": 0.31496062992125984
          },
          {
            "number": 11,
            "ticks": 296,
            "time": 2.720585333333333,
            "value": 0.33070866141732286
          },
          {
            "number": 11,
            "ticks": 301,
            "time": 2.7665411666666664,
            "value": 0.3464566929133858
          },
          {
            "number": 11,
            "ticks": 306,
            "time": 2.8124970000000005,
            "value": 0.3700787401574803
          },
          {
            "number": 11,
            "ticks": 311,
            "time": 2.8584528333333337,
            "value": 0.3858267716535433
          },
          {
            "number": 11,
            "ticks": 316,
            "time": 2.904408666666667,
            "value": 0.4015748031496063
          },
          {
            "number": 11,
            "ticks": 321,
            "time": 2.9503645,
            "value": 0.4251968503937008
          },
          {
            "number": 11,
            "ticks": 327,
            "time": 3.0055115,
            "value": 0.4409448818897638
          },
          {
            "number": 11,
            "ticks": 332,
            "time": 3.0514673333333335,
            "value": 0.4645669291338583
          },
          {
            "number": 11,
            "ticks": 337,
            "time": 3.0974231666666667,
            "value": 0.48031496062992124
          },
          {
            "number": 11,
            "ticks": 342,
            "time": 3.1433790000000004,
            "value": 0.49606299212598426
          },
          {
            "number": 11,
            "ticks": 347,
            "time": 3.1893348333333336,
            "value": 0.5196850393700787
          },
          {
            "number": 11,
            "ticks": 352,
            "time": 3.2352906666666668,
            "value": 0.5354330708661418
          },
          {
            "number": 11,
            "ticks": 357,
            "time": 3.2812465,
            "value": 0.5511811023622047
          },
          {
            "number": 11,
            "ticks": 362,
            "time": 3.327202333333333,
            "value": 0.5748031496062992
          },
          {
            "number": 11,
            "ticks": 367,
            "time": 3.373158166666667,
            "value": 0.5905511811023622
          },
          {
            "number": 11,
            "ticks": 372,
            "time": 3.4191140000000004,
            "value": 0.6062992125984252
          },
          {
            "number": 11,
            "ticks": 377,
            "time": 3.4650698333333336,
            "value": 0.6299212598425197
          },
          {
            "number": 11,
            "ticks": 382,
            "time": 3.511025666666667,
            "value": 0.6456692913385826
          },
          {
            "number": 11,
            "ticks": 387,
            "time": 3.5569815,
            "value": 0.6614173228346457
          },
          {
            "number": 11,
            "ticks": 392,
            "time": 3.602937333333333,
            "value": 0.6850393700787402
          },
          {
            "number": 11,
            "ticks": 397,
            "time": 3.648893166666667,
            "value": 0.7007874015748031
          },
          {
            "number": 11,
            "ticks": 402,
            "time": 3.694849,
            "value": 0.7165354330708661
          },
          {
            "number": 11,
            "ticks": 407,
            "time": 3.7408048333333337,
            "value": 0.7401574803149606
          },
          {
            "number": 11,
            "ticks": 412,
            "time": 3.786760666666667,
            "value": 0.7559055118110236
          },
          {
            "number": 11,
            "ticks": 417,
            "time": 3.8327165,
            "value": 0.7795275590551181
          }
        ],
        "32": [
          {
            "number": 32,
            "ticks": 9930,
            "time": 91.268285,
            "value": 0.007874015748031496
          }
        ],
        "71": [
          {
            "number": 71,
            "ticks": 170,
            "time": 1.5624983333333333,
            "value": 0.5039370078740157
          }
        ],
        "74": [
          {
            "number": 74,
            "ticks": 167,
            "time": 1.5349248333333334,
            "value": 0.5039370078740157
          }
        ],
        "91": [
          {
            "number": 91,
            "ticks": 158,
            "time": 1.4522043333333332,
            "value": 0.31496062992125984
          }
        ],
        "93": [
          {
            "number": 93,
            "ticks": 164,
            "time": 1.5073513333333333,
            "value": 0
          }
        ],
        "94": [
          {
            "number": 94,
            "ticks": 165,
            "time": 1.5165425000000001,
            "value": 0
          }
        ],
        "98": [
          {
            "number": 98,
            "ticks": 173,
            "time": 1.5900718333333332,
            "value": 0.7874015748031497
          }
        ],
        "99": [
          {
            "number": 99,
            "ticks": 173,
            "time": 1.5900718333333332,
            "value": 0.007874015748031496
          }
        ],
        "100": [
          {
            "number": 100,
            "ticks": 177,
            "time": 1.6268365,
            "value": 0
          }
        ],
        "101": [
          {
            "number": 101,
            "ticks": 174,
            "time": 1.599263,
            "value": 0
          }
        ]
      },
      "pitchBends": [],
      "instrument": {
        "family": "percussive",
        "number": 119,
        "name": "reverse cymbal"
      },
      "name": "",
      "notes": [
        {
          "duration": 1.8658068333333335,
          "durationTicks": 203,
          "midi": 48,
          "name": "C3",
          "ticks": 228,
          "time": 2.095586,
          "velocity": 1
        }
      ]
    },
    {
      "channel": 3,
      "controlChanges": {
        "0": [
          {
            "number": 0,
            "ticks": 14931,
            "time": 137.2333095,
            "value": 0.03937007874015748
          }
        ],
        "1": [
          {
            "number": 1,
            "ticks": 12410,
            "time": 114.06237833333333,
            "value": 0.5433070866141733
          },
          {
            "number": 1,
            "ticks": 12434,
            "time": 114.28296633333333,
            "value": 0
          },
          {
            "number": 1,
            "ticks": 12602,
            "time": 115.82708233333334,
            "value": 0.2677165354330709
          },
          {
            "number": 1,
            "ticks": 12626,
            "time": 116.04767033333333,
            "value": 0
          },
          {
            "number": 1,
            "ticks": 14063,
            "time": 129.25537683333334,
            "value": 0.3543307086614173
          },
          {
            "number": 1,
            "ticks": 14111,
            "time": 129.69655283333333,
            "value": 0
          }
        ],
        "10": [
          {
            "number": 10,
            "ticks": 9936,
            "time": 91.323432,
            "value": 0.5039370078740157
          }
        ],
        "11": [
          {
            "number": 11,
            "ticks": 9938,
            "time": 91.34181433333333,
            "value": 0.8976377952755905
          },
          {
            "number": 11,
            "ticks": 14255,
            "time": 131.02008083333334,
            "value": 0.6141732283464567
          },
          {
            "number": 11,
            "ticks": 14282,
            "time": 131.26824233333335,
            "value": 0.4409448818897638
          }
        ],
        "71": [
          {
            "number": 71,
            "ticks": 10030,
            "time": 92.18740166666666,
            "value": 0.5748031496062992
          },
          {
            "number": 71,
            "ticks": 12851,
            "time": 118.11568283333332,
            "value": 0.6299212598425197
          },
          {
            "number": 71,
            "ticks": 13102,
            "time": 120.42266566666667,
            "value": 0.5039370078740157
          },
          {
            "number": 71,
            "ticks": 13415,
            "time": 123.29950083333333,
            "value": 0.6141732283464567
          },
          {
            "number": 71,
            "ticks": 13487,
            "time": 123.96126483333333,
            "value": 0.5748031496062992
          }
        ],
        "74": [
          {
            "number": 74,
            "ticks": 12856,
            "time": 118.16163866666668,
            "value": 0.4645669291338583
          },
          {
            "number": 74,
            "ticks": 12861,
            "time": 118.20759449999998,
            "value": 0.4094488188976378
          },
          {
            "number": 74,
            "ticks": 12866,
            "time": 118.25355033333334,
            "value": 0.3543307086614173
          },
          {
            "number": 74,
            "ticks": 12871,
            "time": 118.29950616666667,
            "value": 0.2992125984251969
          },
          {
            "number": 74,
            "ticks": 12875,
            "time": 118.33627083333333,
            "value": 0.23622047244094488
          },
          {
            "number": 74,
            "ticks": 12913,
            "time": 118.68553516666667,
            "value": 0.31496062992125984
          },
          {
            "number": 74,
            "ticks": 12932,
            "time": 118.86016733333334,
            "value": 0.33070866141732286
          },
          {
            "number": 74,
            "ticks": 12951,
            "time": 119.03479949999999,
            "value": 0.3543307086614173
          },
          {
            "number": 74,
            "ticks": 12970,
            "time": 119.20943166666667,
            "value": 0.3779527559055118
          },
          {
            "number": 74,
            "ticks": 12989,
            "time": 119.38406383333333,
            "value": 0.3937007874015748
          },
          {
            "number": 74,
            "ticks": 13009,
            "time": 119.56788716666667,
            "value": 0.41732283464566927
          },
          {
            "number": 74,
            "ticks": 13028,
            "time": 119.74251933333333,
            "value": 0.4409448818897638
          },
          {
            "number": 74,
            "ticks": 13047,
            "time": 119.91715149999999,
            "value": 0.4566929133858268
          },
          {
            "number": 74,
            "ticks": 13066,
            "time": 120.09178366666667,
            "value": 0.48031496062992124
          },
          {
            "number": 74,
            "ticks": 13085,
            "time": 120.26641583333333,
            "value": 0.5039370078740157
          },
          {
            "number": 74,
            "ticks": 13395,
            "time": 123.11567749999999,
            "value": 0.4645669291338583
          },
          {
            "number": 74,
            "ticks": 13399,
            "time": 123.15244216666667,
            "value": 0.4094488188976378
          },
          {
            "number": 74,
            "ticks": 13403,
            "time": 123.18920683333333,
            "value": 0.3543307086614173
          },
          {
            "number": 74,
            "ticks": 13407,
            "time": 123.22597149999999,
            "value": 0.2992125984251969
          },
          {
            "number": 74,
            "ticks": 13411,
            "time": 123.26273616666667,
            "value": 0.23622047244094488
          },
          {
            "number": 74,
            "ticks": 13417,
            "time": 123.31788316666668,
            "value": 0.2992125984251969
          },
          {
            "number": 74,
            "ticks": 13418,
            "time": 123.32707433333333,
            "value": 0.4094488188976378
          },
          {
            "number": 74,
            "ticks": 13421,
            "time": 123.35464783333333,
            "value": 0.5039370078740157
          },
          {
            "number": 74,
            "ticks": 13426,
            "time": 123.40060366666667,
            "value": 0.5039370078740157
          },
          {
            "number": 74,
            "ticks": 13439,
            "time": 123.52008883333333,
            "value": 0.5039370078740157
          },
          {
            "number": 74,
            "ticks": 13441,
            "time": 123.53847116666667,
            "value": 0.4645669291338583
          },
          {
            "number": 74,
            "ticks": 13443,
            "time": 123.55685349999999,
            "value": 0.4094488188976378
          },
          {
            "number": 74,
            "ticks": 13445,
            "time": 123.57523583333334,
            "value": 0.3543307086614173
          },
          {
            "number": 74,
            "ticks": 13447,
            "time": 123.59361816666667,
            "value": 0.2992125984251969
          },
          {
            "number": 74,
            "ticks": 13449,
            "time": 123.6120005,
            "value": 0.23622047244094488
          },
          {
            "number": 74,
            "ticks": 13453,
            "time": 123.64876516666668,
            "value": 0.2992125984251969
          },
          {
            "number": 74,
            "ticks": 13454,
            "time": 123.65795633333333,
            "value": 0.4094488188976378
          },
          {
            "number": 74,
            "ticks": 13457,
            "time": 123.68552983333333,
            "value": 0.5039370078740157
          },
          {
            "number": 74,
            "ticks": 13462,
            "time": 123.73148566666667,
            "value": 0.5039370078740157
          },
          {
            "number": 74,
            "ticks": 13475,
            "time": 123.85097083333334,
            "value": 0.5039370078740157
          },
          {
            "number": 74,
            "ticks": 13477,
            "time": 123.86935316666667,
            "value": 0.4645669291338583
          },
          {
            "number": 74,
            "ticks": 13479,
            "time": 123.88773549999999,
            "value": 0.4094488188976378
          },
          {
            "number": 74,
            "ticks": 13481,
            "time": 123.90611783333333,
            "value": 0.3543307086614173
          },
          {
            "number": 74,
            "ticks": 13483,
            "time": 123.92450016666668,
            "value": 0.2992125984251969
          },
          {
            "number": 74,
            "ticks": 13485,
            "time": 123.9428825,
            "value": 0.23622047244094488
          },
          {
            "number": 74,
            "ticks": 13487,
            "time": 123.96126483333333,
            "value": 0.5039370078740157
          },
          {
            "number": 74,
            "ticks": 13643,
            "time": 125.39508683333334,
            "value": 0.48031496062992124
          },
          {
            "number": 74,
            "ticks": 13647,
            "time": 125.4318515,
            "value": 0.4645669291338583
          },
          {
            "number": 74,
            "ticks": 13652,
            "time": 125.47780733333333,
            "value": 0.4409448818897638
          },
          {
            "number": 74,
            "ticks": 13656,
            "time": 125.51457199999999,
            "value": 0.41732283464566927
          },
          {
            "number": 74,
            "ticks": 13661,
            "time": 125.56052783333332,
            "value": 0.4015748031496063
          },
          {
            "number": 74,
            "ticks": 13665,
            "time": 125.5972925,
            "value": 0.3779527559055118
          },
          {
            "number": 74,
            "ticks": 13670,
            "time": 125.64324833333333,
            "value": 0.3543307086614173
          },
          {
            "number": 74,
            "ticks": 13674,
            "time": 125.68001299999999,
            "value": 0.33070866141732286
          },
          {
            "number": 74,
            "ticks": 13679,
            "time": 125.72596883333333,
            "value": 0.5039370078740157
          }
        ],
        "91": [
          {
            "number": 91,
            "ticks": 10025,
            "time": 92.14144583333334,
            "value": 0.03937007874015748
          }
        ],
        "93": [
          {
            "number": 93,
            "ticks": 10029,
            "time": 92.1782105,
            "value": 0.031496062992125984
          }
        ]
      },
      "pitchBends": [
        {
          "ticks": 11183,
          "time": 102.78481683333332,
          "value": -0.16650390625
        },
        {
          "ticks": 11187,
          "time": 102.82158150000001,
          "value": -0.13330078125
        },
        {
          "ticks": 11189,
          "time": 102.83996383333333,
          "value": -0.0999755859375
        },
        {
          "ticks": 11191,
          "time": 102.85834616666666,
          "value": -0.066650390625
        },
        {
          "ticks": 11193,
          "time": 102.8767285,
          "value": -0.0333251953125
        },
        {
          "ticks": 11195,
          "time": 102.89511083333333,
          "value": 0
        },
        {
          "ticks": 11351,
          "time": 104.32893283333333,
          "value": -0.16650390625
        },
        {
          "ticks": 11355,
          "time": 104.3656975,
          "value": -0.13330078125
        },
        {
          "ticks": 11357,
          "time": 104.38407983333333,
          "value": -0.0999755859375
        },
        {
          "ticks": 11359,
          "time": 104.40246216666667,
          "value": -0.066650390625
        },
        {
          "ticks": 11361,
          "time": 104.4208445,
          "value": -0.0333251953125
        },
        {
          "ticks": 11363,
          "time": 104.43922683333334,
          "value": 0
        },
        {
          "ticks": 11391,
          "time": 104.6965795,
          "value": -0.0333251953125
        },
        {
          "ticks": 11393,
          "time": 104.71496183333333,
          "value": -0.066650390625
        },
        {
          "ticks": 11395,
          "time": 104.73334416666665,
          "value": -0.0999755859375
        },
        {
          "ticks": 11399,
          "time": 104.77010883333332,
          "value": 0
        },
        {
          "ticks": 11423,
          "time": 104.99069683333333,
          "value": -0.16650390625
        },
        {
          "ticks": 11427,
          "time": 105.0274615,
          "value": -0.13330078125
        },
        {
          "ticks": 11429,
          "time": 105.04584383333334,
          "value": -0.0999755859375
        },
        {
          "ticks": 11431,
          "time": 105.06422616666666,
          "value": -0.066650390625
        },
        {
          "ticks": 11433,
          "time": 105.0826085,
          "value": -0.0333251953125
        },
        {
          "ticks": 11435,
          "time": 105.10099083333333,
          "value": 0
        },
        {
          "ticks": 11465,
          "time": 105.37672583333332,
          "value": -0.0333251953125
        },
        {
          "ticks": 11466,
          "time": 105.385917,
          "value": -0.066650390625
        },
        {
          "ticks": 11467,
          "time": 105.39510816666666,
          "value": -0.0999755859375
        },
        {
          "ticks": 11468,
          "time": 105.40429933333333,
          "value": -0.13330078125
        },
        {
          "ticks": 11469,
          "time": 105.4134905,
          "value": -0.16650390625
        },
        {
          "ticks": 11473,
          "time": 105.45025516666666,
          "value": -0.13330078125
        },
        {
          "ticks": 11475,
          "time": 105.4686375,
          "value": -0.0999755859375
        },
        {
          "ticks": 11476,
          "time": 105.47782866666665,
          "value": -0.066650390625
        },
        {
          "ticks": 11477,
          "time": 105.48701983333333,
          "value": -0.0333251953125
        },
        {
          "ticks": 11478,
          "time": 105.496211,
          "value": 0
        },
        {
          "ticks": 11493,
          "time": 105.6340785,
          "value": -0.0333251953125
        },
        {
          "ticks": 11494,
          "time": 105.64326966666665,
          "value": -0.066650390625
        },
        {
          "ticks": 11495,
          "time": 105.65246083333334,
          "value": -0.0999755859375
        },
        {
          "ticks": 11496,
          "time": 105.661652,
          "value": -0.13330078125
        },
        {
          "ticks": 11497,
          "time": 105.67084316666666,
          "value": -0.16650390625
        },
        {
          "ticks": 11519,
          "time": 105.87304883333333,
          "value": 0
        },
        {
          "ticks": 11561,
          "time": 106.25907783333334,
          "value": -0.083251953125
        },
        {
          "ticks": 11562,
          "time": 106.268269,
          "value": -0.16650390625
        },
        {
          "ticks": 11564,
          "time": 106.28665133333332,
          "value": -0.249755859375
        },
        {
          "ticks": 11567,
          "time": 106.31422483333333,
          "value": 0
        },
        {
          "ticks": 11591,
          "time": 106.53481283333333,
          "value": -0.16650390625
        },
        {
          "ticks": 11614,
          "time": 106.74620966666666,
          "value": 0
        },
        {
          "ticks": 11671,
          "time": 107.27010616666666,
          "value": -0.083251953125
        },
        {
          "ticks": 11673,
          "time": 107.2884885,
          "value": -0.16650390625
        },
        {
          "ticks": 11675,
          "time": 107.30687083333333,
          "value": -0.249755859375
        },
        {
          "ticks": 11677,
          "time": 107.32525316666666,
          "value": -0.3330078125
        },
        {
          "ticks": 11679,
          "time": 107.3436355,
          "value": -0.416259765625
        },
        {
          "ticks": 11681,
          "time": 107.36201783333333,
          "value": -0.49951171875
        },
        {
          "ticks": 11686,
          "time": 107.40797366666666,
          "value": -0.3330078125
        },
        {
          "ticks": 11688,
          "time": 107.426356,
          "value": -0.249755859375
        },
        {
          "ticks": 11689,
          "time": 107.43554716666667,
          "value": -0.16650390625
        },
        {
          "ticks": 11690,
          "time": 107.44473833333333,
          "value": -0.083251953125
        },
        {
          "ticks": 11691,
          "time": 107.4539295,
          "value": 0
        },
        {
          "ticks": 11735,
          "time": 107.85834083333333,
          "value": -0.16650390625
        },
        {
          "ticks": 11737,
          "time": 107.87672316666666,
          "value": -0.083251953125
        },
        {
          "ticks": 11739,
          "time": 107.8951055,
          "value": 0
        },
        {
          "ticks": 11869,
          "time": 109.08995716666666,
          "value": 0.249755859375
        },
        {
          "ticks": 11879,
          "time": 109.18186883333333,
          "value": 0
        },
        {
          "ticks": 11887,
          "time": 109.25539816666667,
          "value": 0.083251953125
        },
        {
          "ticks": 11895,
          "time": 109.3289275,
          "value": 0
        },
        {
          "ticks": 11906,
          "time": 109.43003033333333,
          "value": -0.0260009765625
        },
        {
          "ticks": 11909,
          "time": 109.45760383333334,
          "value": -0.052001953125
        },
        {
          "ticks": 11912,
          "time": 109.48517733333333,
          "value": -0.078125
        },
        {
          "ticks": 11915,
          "time": 109.51275083333333,
          "value": 0
        },
        {
          "ticks": 11921,
          "time": 109.56789783333333,
          "value": 0.083251953125
        },
        {
          "ticks": 11927,
          "time": 109.62304483333332,
          "value": 0
        },
        {
          "ticks": 11933,
          "time": 109.67819183333333,
          "value": 0.083251953125
        },
        {
          "ticks": 11935,
          "time": 109.69657416666666,
          "value": 0
        },
        {
          "ticks": 11937,
          "time": 109.7149565,
          "value": -0.0260009765625
        },
        {
          "ticks": 11939,
          "time": 109.73333883333333,
          "value": -0.052001953125
        },
        {
          "ticks": 11941,
          "time": 109.75172116666666,
          "value": -0.078125
        },
        {
          "ticks": 11943,
          "time": 109.7701035,
          "value": -0.104248046875
        },
        {
          "ticks": 11945,
          "time": 109.78848583333333,
          "value": -0.1259765625
        },
        {
          "ticks": 11947,
          "time": 109.80686816666666,
          "value": -0.16650390625
        },
        {
          "ticks": 11959,
          "time": 109.91716216666666,
          "value": -0.1387939453125
        },
        {
          "ticks": 11963,
          "time": 109.95392683333333,
          "value": -0.111083984375
        },
        {
          "ticks": 11967,
          "time": 109.9906915,
          "value": -0.083251953125
        },
        {
          "ticks": 11971,
          "time": 110.02745616666665,
          "value": -0.0555419921875
        },
        {
          "ticks": 11975,
          "time": 110.06422083333334,
          "value": -0.02783203125
        },
        {
          "ticks": 11979,
          "time": 110.10098550000001,
          "value": 0
        },
        {
          "ticks": 12016,
          "time": 110.44105866666666,
          "value": -0.02783203125
        },
        {
          "ticks": 12017,
          "time": 110.45024983333333,
          "value": -0.0555419921875
        },
        {
          "ticks": 12018,
          "time": 110.459441,
          "value": -0.083251953125
        },
        {
          "ticks": 12019,
          "time": 110.46863216666667,
          "value": -0.111083984375
        },
        {
          "ticks": 12021,
          "time": 110.4870145,
          "value": -0.1387939453125
        },
        {
          "ticks": 12023,
          "time": 110.50539683333334,
          "value": -0.083251953125
        },
        {
          "ticks": 12026,
          "time": 110.53297033333332,
          "value": 0
        },
        {
          "ticks": 12055,
          "time": 110.79951416666665,
          "value": 0.16650390625
        },
        {
          "ticks": 12063,
          "time": 110.8730435,
          "value": 0
        },
        {
          "ticks": 12127,
          "time": 111.46127816666666,
          "value": 0.083251953125
        },
        {
          "ticks": 12135,
          "time": 111.5348075,
          "value": 0
        },
        {
          "ticks": 12199,
          "time": 112.12304216666666,
          "value": 0.16650390625
        },
        {
          "ticks": 12207,
          "time": 112.1965715,
          "value": 0
        },
        {
          "ticks": 12271,
          "time": 112.78480616666666,
          "value": 0.16650390625
        },
        {
          "ticks": 12279,
          "time": 112.8583355,
          "value": 0
        },
        {
          "ticks": 12335,
          "time": 113.37304083333333,
          "value": -0.16650390625
        },
        {
          "ticks": 12337,
          "time": 113.39142316666666,
          "value": -0.083251953125
        },
        {
          "ticks": 12339,
          "time": 113.4098055,
          "value": 0
        },
        {
          "ticks": 12455,
          "time": 114.47598083333332,
          "value": -0.16650390625
        },
        {
          "ticks": 12457,
          "time": 114.49436316666666,
          "value": -0.083251953125
        },
        {
          "ticks": 12459,
          "time": 114.51274550000001,
          "value": 0
        },
        {
          "ticks": 12503,
          "time": 114.91715683333334,
          "value": -0.16650390625
        },
        {
          "ticks": 12507,
          "time": 114.95392149999999,
          "value": -0.083251953125
        },
        {
          "ticks": 12509,
          "time": 114.97230383333333,
          "value": 0
        },
        {
          "ticks": 12575,
          "time": 115.57892083333333,
          "value": -0.083251953125
        },
        {
          "ticks": 12578,
          "time": 115.60649433333333,
          "value": 0
        },
        {
          "ticks": 12676,
          "time": 116.50722866666668,
          "value": -0.083251953125
        },
        {
          "ticks": 12681,
          "time": 116.55318449999999,
          "value": -0.16650390625
        },
        {
          "ticks": 12686,
          "time": 116.59914033333332,
          "value": -0.249755859375
        },
        {
          "ticks": 12691,
          "time": 116.64509616666668,
          "value": -0.3330078125
        },
        {
          "ticks": 12696,
          "time": 116.69105199999998,
          "value": -0.416259765625
        },
        {
          "ticks": 12701,
          "time": 116.73700783333334,
          "value": -0.49951171875
        },
        {
          "ticks": 12713,
          "time": 116.84730183333333,
          "value": -0.3330078125
        },
        {
          "ticks": 12719,
          "time": 116.90244883333332,
          "value": 0
        },
        {
          "ticks": 13127,
          "time": 120.65244483333333,
          "value": 0.083251953125
        },
        {
          "ticks": 13151,
          "time": 120.87303283333333,
          "value": 0
        },
        {
          "ticks": 13255,
          "time": 121.82891416666668,
          "value": 0.16650390625
        },
        {
          "ticks": 13263,
          "time": 121.90244349999999,
          "value": 0
        },
        {
          "ticks": 13415,
          "time": 123.29950083333333,
          "value": -0.083251953125
        },
        {
          "ticks": 13416,
          "time": 123.308692,
          "value": -0.066650390625
        },
        {
          "ticks": 13417,
          "time": 123.31788316666668,
          "value": -0.0499267578125
        },
        {
          "ticks": 13419,
          "time": 123.33626549999998,
          "value": -0.0333251953125
        },
        {
          "ticks": 13422,
          "time": 123.36383899999998,
          "value": -0.0166015625
        },
        {
          "ticks": 13424,
          "time": 123.38222133333333,
          "value": 0
        },
        {
          "ticks": 13451,
          "time": 123.63038283333333,
          "value": -0.083251953125
        },
        {
          "ticks": 13452,
          "time": 123.63957399999998,
          "value": -0.066650390625
        },
        {
          "ticks": 13453,
          "time": 123.64876516666668,
          "value": -0.0499267578125
        },
        {
          "ticks": 13455,
          "time": 123.66714749999998,
          "value": -0.0333251953125
        },
        {
          "ticks": 13458,
          "time": 123.69472099999999,
          "value": -0.0166015625
        },
        {
          "ticks": 13460,
          "time": 123.71310333333334,
          "value": 0
        },
        {
          "ticks": 13487,
          "time": 123.96126483333333,
          "value": -0.16650390625
        },
        {
          "ticks": 13490,
          "time": 123.98883833333333,
          "value": -0.083251953125
        },
        {
          "ticks": 13493,
          "time": 124.01641183333334,
          "value": 0
        },
        {
          "ticks": 13607,
          "time": 125.06420483333333,
          "value": -0.00390625
        },
        {
          "ticks": 13610,
          "time": 125.09177833333334,
          "value": -0.014404296875
        },
        {
          "ticks": 13613,
          "time": 125.11935183333333,
          "value": -0.0250244140625
        },
        {
          "ticks": 13616,
          "time": 125.14692533333333,
          "value": -0.03564453125
        },
        {
          "ticks": 13619,
          "time": 125.17449883333333,
          "value": -0.0462646484375
        },
        {
          "ticks": 13622,
          "time": 125.20207233333333,
          "value": -0.056884765625
        },
        {
          "ticks": 13625,
          "time": 125.22964583333334,
          "value": -0.0675048828125
        },
        {
          "ticks": 13628,
          "time": 125.25721933333332,
          "value": -0.078125
        },
        {
          "ticks": 13631,
          "time": 125.28479283333333,
          "value": 0
        },
        {
          "ticks": 13643,
          "time": 125.39508683333334,
          "value": -0.16650390625
        },
        {
          "ticks": 13655,
          "time": 125.50538083333333,
          "value": 0
        },
        {
          "ticks": 13663,
          "time": 125.57891016666667,
          "value": -0.16650390625
        },
        {
          "ticks": 13671,
          "time": 125.65243949999999,
          "value": 0
        },
        {
          "ticks": 13751,
          "time": 126.38773283333333,
          "value": -0.16650390625
        },
        {
          "ticks": 13757,
          "time": 126.44287983333334,
          "value": -0.13330078125
        },
        {
          "ticks": 13760,
          "time": 126.47045333333332,
          "value": -0.10009765625
        },
        {
          "ticks": 13763,
          "time": 126.49802683333333,
          "value": -0.066650390625
        },
        {
          "ticks": 13766,
          "time": 126.52560033333333,
          "value": -0.033447265625
        },
        {
          "ticks": 13769,
          "time": 126.55317383333333,
          "value": 0
        },
        {
          "ticks": 13791,
          "time": 126.75537949999999,
          "value": -0.0167236328125
        },
        {
          "ticks": 13793,
          "time": 126.77376183333332,
          "value": -0.0333251953125
        },
        {
          "ticks": 13795,
          "time": 126.79214416666667,
          "value": -0.050048828125
        },
        {
          "ticks": 13797,
          "time": 126.8105265,
          "value": -0.066650390625
        },
        {
          "ticks": 13799,
          "time": 126.82890883333333,
          "value": 0
        },
        {
          "ticks": 13847,
          "time": 127.27008483333333,
          "value": -0.16650390625
        },
        {
          "ticks": 13853,
          "time": 127.32523183333333,
          "value": -0.13330078125
        },
        {
          "ticks": 13857,
          "time": 127.36199649999999,
          "value": -0.10009765625
        },
        {
          "ticks": 13861,
          "time": 127.39876116666667,
          "value": -0.066650390625
        },
        {
          "ticks": 13865,
          "time": 127.43552583333333,
          "value": -0.033447265625
        },
        {
          "ticks": 13869,
          "time": 127.47229049999999,
          "value": 0
        },
        {
          "ticks": 13999,
          "time": 128.66714216666668,
          "value": 0.083251953125
        },
        {
          "ticks": 14007,
          "time": 128.7406715,
          "value": 0
        },
        {
          "ticks": 14039,
          "time": 129.03478883333335,
          "value": -0.16650390625
        },
        {
          "ticks": 14042,
          "time": 129.06236233333334,
          "value": -0.083251953125
        },
        {
          "ticks": 14044,
          "time": 129.08074466666667,
          "value": 0
        },
        {
          "ticks": 14123,
          "time": 129.80684683333334,
          "value": -0.0167236328125
        },
        {
          "ticks": 14125,
          "time": 129.82522916666667,
          "value": -0.0333251953125
        },
        {
          "ticks": 14127,
          "time": 129.8436115,
          "value": -0.050048828125
        },
        {
          "ticks": 14129,
          "time": 129.86199383333334,
          "value": -0.066650390625
        },
        {
          "ticks": 14131,
          "time": 129.88037616666668,
          "value": -0.083251953125
        },
        {
          "ticks": 14133,
          "time": 129.8987585,
          "value": -0.09326171875
        },
        {
          "ticks": 14135,
          "time": 129.91714083333335,
          "value": -0.16650390625
        },
        {
          "ticks": 14150,
          "time": 130.05500833333335,
          "value": -0.13330078125
        },
        {
          "ticks": 14153,
          "time": 130.08258183333334,
          "value": -0.10009765625
        },
        {
          "ticks": 14155,
          "time": 130.1009641666667,
          "value": -0.066650390625
        },
        {
          "ticks": 14157,
          "time": 130.1193465,
          "value": -0.033447265625
        },
        {
          "ticks": 14160,
          "time": 130.14692,
          "value": 0
        },
        {
          "ticks": 14231,
          "time": 130.79949283333335,
          "value": -0.00390625
        },
        {
          "ticks": 14234,
          "time": 130.82706633333333,
          "value": -0.014404296875
        },
        {
          "ticks": 14237,
          "time": 130.85463983333335,
          "value": -0.0250244140625
        },
        {
          "ticks": 14240,
          "time": 130.88221333333334,
          "value": -0.03564453125
        },
        {
          "ticks": 14243,
          "time": 130.90978683333336,
          "value": -0.0462646484375
        },
        {
          "ticks": 14246,
          "time": 130.93736033333334,
          "value": -0.056884765625
        },
        {
          "ticks": 14249,
          "time": 130.96493383333333,
          "value": -0.0675048828125
        },
        {
          "ticks": 14252,
          "time": 130.99250733333335,
          "value": -0.078125
        },
        {
          "ticks": 14255,
          "time": 131.02008083333334,
          "value": 0
        },
        {
          "ticks": 14258,
          "time": 131.04765433333336,
          "value": -0.00390625
        },
        {
          "ticks": 14261,
          "time": 131.07522783333334,
          "value": -0.014404296875
        },
        {
          "ticks": 14264,
          "time": 131.10280133333333,
          "value": -0.0250244140625
        },
        {
          "ticks": 14267,
          "time": 131.13037483333335,
          "value": -0.03564453125
        },
        {
          "ticks": 14270,
          "time": 131.15794833333334,
          "value": -0.0462646484375
        },
        {
          "ticks": 14273,
          "time": 131.18552183333335,
          "value": -0.056884765625
        },
        {
          "ticks": 14276,
          "time": 131.21309533333334,
          "value": -0.0675048828125
        },
        {
          "ticks": 14279,
          "time": 131.24066883333336,
          "value": -0.078125
        },
        {
          "ticks": 14282,
          "time": 131.26824233333335,
          "value": 0
        },
        {
          "ticks": 14285,
          "time": 131.29581583333334,
          "value": -0.00390625
        },
        {
          "ticks": 14288,
          "time": 131.32338933333335,
          "value": -0.014404296875
        },
        {
          "ticks": 14291,
          "time": 131.35096283333334,
          "value": -0.0250244140625
        },
        {
          "ticks": 14294,
          "time": 131.37853633333336,
          "value": -0.03564453125
        },
        {
          "ticks": 14297,
          "time": 131.40610983333335,
          "value": -0.0462646484375
        },
        {
          "ticks": 14300,
          "time": 131.43368333333333,
          "value": -0.056884765625
        },
        {
          "ticks": 14303,
          "time": 131.46125683333335,
          "value": -0.0675048828125
        },
        {
          "ticks": 14306,
          "time": 131.48883033333334,
          "value": -0.078125
        },
        {
          "ticks": 14446,
          "time": 132.77559366666668,
          "value": 0
        }
      ],
      "instrument": {
        "family": "guitar",
        "number": 29,
        "name": "overdriven guitar"
      },
      "name": "",
      "notes": [
        {
          "duration": 0.11029399999999612,
          "durationTicks": 12,
          "midi": 68,
          "name": "G#4",
          "ticks": 11111,
          "time": 102.12305283333333,
          "velocity": 0.8740157480314961
        },
        {
          "duration": 0.11029399999999612,
          "durationTicks": 12,
          "midi": 70,
          "name": "A#4",
          "ticks": 11123,
          "time": 102.23334683333333,
          "velocity": 0.8740157480314961
        },
        {
          "duration": 0.22058800000000645,
          "durationTicks": 24,
          "midi": 73,
          "name": "C#5",
          "ticks": 11135,
          "time": 102.34364083333332,
          "velocity": 0.8740157480314961
        },
        {
          "duration": 0.1378674999999987,
          "durationTicks": 15,
          "midi": 70,
          "name": "A#4",
          "ticks": 11159,
          "time": 102.56422883333333,
          "velocity": 0.8740157480314961
        },
        {
          "duration": 0.018382333333320844,
          "durationTicks": 2,
          "midi": 75,
          "name": "D#5",
          "ticks": 11181,
          "time": 102.7664345,
          "velocity": 0.7795275590551181
        },
        {
          "duration": 1.1029400000000038,
          "durationTicks": 120,
          "midi": 77,
          "name": "F5",
          "ticks": 11183,
          "time": 102.78481683333332,
          "velocity": 0.8740157480314961
        },
        {
          "duration": 0.4411759999999987,
          "durationTicks": 48,
          "midi": 80,
          "name": "G#5",
          "ticks": 11303,
          "time": 103.88775683333333,
          "velocity": 0.8740157480314961
        },
        {
          "duration": 0.4136025000000103,
          "durationTicks": 45,
          "midi": 77,
          "name": "F5",
          "ticks": 11351,
          "time": 104.32893283333333,
          "velocity": 0.8346456692913385
        },
        {
          "duration": 0.2022056666666714,
          "durationTicks": 22,
          "midi": 80,
          "name": "G#5",
          "ticks": 11399,
          "time": 104.77010883333332,
          "velocity": 0.8740157480314961
        },
        {
          "duration": 0.43198483333333115,
          "durationTicks": 47,
          "midi": 77,
          "name": "F5",
          "ticks": 11423,
          "time": 104.99069683333333,
          "velocity": 0.8346456692913385
        },
        {
          "duration": 0.4136024999999961,
          "durationTicks": 45,
          "midi": 77,
          "name": "F5",
          "ticks": 11471,
          "time": 105.43187283333333,
          "velocity": 0.8740157480314961
        },
        {
          "duration": 0.2113968333333247,
          "durationTicks": 23,
          "midi": 73,
          "name": "C#5",
          "ticks": 11519,
          "time": 105.87304883333333,
          "velocity": 0.8740157480314961
        },
        {
          "duration": 0.22058800000000645,
          "durationTicks": 24,
          "midi": 72,
          "name": "C5",
          "ticks": 11542,
          "time": 106.08444566666665,
          "velocity": 0.8346456692913385
        },
        {
          "duration": 0.43198483333333115,
          "durationTicks": 47,
          "midi": 68,
          "name": "G#4",
          "ticks": 11567,
          "time": 106.31422483333333,
          "velocity": 0.8740157480314961
        },
        {
          "duration": 0.21139683333333892,
          "durationTicks": 23,
          "midi": 65,
          "name": "F4",
          "ticks": 11615,
          "time": 106.75540083333333,
          "velocity": 0.8740157480314961
        },
        {
          "duration": 0.3860289999999935,
          "durationTicks": 42,
          "midi": 61,
          "name": "C#4",
          "ticks": 11639,
          "time": 106.97598883333333,
          "velocity": 0.8740157480314961
        },
        {
          "duration": 0.4227936666666636,
          "durationTicks": 46,
          "midi": 73,
          "name": "C#5",
          "ticks": 11687,
          "time": 107.41716483333333,
          "velocity": 0.8740157480314961
        },
        {
          "duration": 0.42279366666667784,
          "durationTicks": 46,
          "midi": 75,
          "name": "D#5",
          "ticks": 11735,
          "time": 107.85834083333333,
          "velocity": 0.8740157480314961
        },
        {
          "duration": 0.22058800000000645,
          "durationTicks": 24,
          "midi": 73,
          "name": "C#5",
          "ticks": 11783,
          "time": 108.29951683333333,
          "velocity": 0.8740157480314961
        },
        {
          "duration": 0.2022056666666714,
          "durationTicks": 22,
          "midi": 75,
          "name": "D#5",
          "ticks": 11807,
          "time": 108.52010483333333,
          "velocity": 0.8740157480314961
        },
        {
          "duration": 0.4411759999999987,
          "durationTicks": 48,
          "midi": 77,
          "name": "F5",
          "ticks": 11830,
          "time": 108.73150166666666,
          "velocity": 0.8740157480314961
        },
        {
          "duration": 0.22058800000000645,
          "durationTicks": 24,
          "midi": 58,
          "name": "A#3",
          "ticks": 11879,
          "time": 109.18186883333333,
          "velocity": 0.8740157480314961
        },
        {
          "duration": 0.11029399999999612,
          "durationTicks": 12,
          "midi": 80,
          "name": "G#5",
          "ticks": 11895,
          "time": 109.3289275,
          "velocity": 0.7007874015748031
        },
        {
          "duration": 0.11029399999999612,
          "durationTicks": 12,
          "midi": 82,
          "name": "A#5",
          "ticks": 11903,
          "time": 109.40245683333333,
          "velocity": 0.8740157480314961
        },
        {
          "duration": 0.16544100000000128,
          "durationTicks": 18,
          "midi": 58,
          "name": "A#3",
          "ticks": 11915,
          "time": 109.51275083333333,
          "velocity": 0.84251968503937
        },
        {
          "duration": 0.14705866666666623,
          "durationTicks": 16,
          "midi": 82,
          "name": "A#5",
          "ticks": 11935,
          "time": 109.69657416666666,
          "velocity": 0.8503937007874016
        },
        {
          "duration": 0.606617,
          "durationTicks": 66,
          "midi": 82,
          "name": "A#5",
          "ticks": 11955,
          "time": 109.8803975,
          "velocity": 0.8740157480314961
        },
        {
          "duration": 0.15624983333331954,
          "durationTicks": 17,
          "midi": 80,
          "name": "G#5",
          "ticks": 12023,
          "time": 110.50539683333334,
          "velocity": 0.8346456692913385
        },
        {
          "duration": 0.2022056666666714,
          "durationTicks": 22,
          "midi": 78,
          "name": "F#5",
          "ticks": 12047,
          "time": 110.72598483333333,
          "velocity": 0.8740157480314961
        },
        {
          "duration": 0.2022056666666714,
          "durationTicks": 22,
          "midi": 77,
          "name": "F5",
          "ticks": 12071,
          "time": 110.94657283333333,
          "velocity": 0.8740157480314961
        },
        {
          "duration": 0.2022056666666714,
          "durationTicks": 22,
          "midi": 78,
          "name": "F#5",
          "ticks": 12095,
          "time": 111.16716083333333,
          "velocity": 0.8740157480314961
        },
        {
          "duration": 0.2022056666666714,
          "durationTicks": 22,
          "midi": 77,
          "name": "F5",
          "ticks": 12119,
          "time": 111.38774883333333,
          "velocity": 0.8740157480314961
        },
        {
          "duration": 0.2022056666666714,
          "durationTicks": 22,
          "midi": 75,
          "name": "D#5",
          "ticks": 12143,
          "time": 111.60833683333333,
          "velocity": 0.8740157480314961
        },
        {
          "duration": 0.2022056666666714,
          "durationTicks": 22,
          "midi": 77,
          "name": "F5",
          "ticks": 12167,
          "time": 111.82892483333333,
          "velocity": 0.8740157480314961
        },
        {
          "duration": 0.2022056666666714,
          "durationTicks": 22,
          "midi": 75,
          "name": "D#5",
          "ticks": 12191,
          "time": 112.04951283333332,
          "velocity": 0.8740157480314961
        },
        {
          "duration": 0.2022056666666714,
          "durationTicks": 22,
          "midi": 73,
          "name": "C#5",
          "ticks": 12215,
          "time": 112.27010083333333,
          "velocity": 0.8740157480314961
        },
        {
          "duration": 0.20220566666665718,
          "durationTicks": 22,
          "midi": 75,
          "name": "D#5",
          "ticks": 12239,
          "time": 112.49068883333334,
          "velocity": 0.8740157480314961
        },
        {
          "duration": 0.2022056666666714,
          "durationTicks": 22,
          "midi": 73,
          "name": "C#5",
          "ticks": 12263,
          "time": 112.71127683333333,
          "velocity": 0.8740157480314961
        },
        {
          "duration": 0.2022056666666714,
          "durationTicks": 22,
          "midi": 72,
          "name": "C5",
          "ticks": 12287,
          "time": 112.93186483333334,
          "velocity": 0.8740157480314961
        },
        {
          "duration": 0.2022056666666714,
          "durationTicks": 22,
          "midi": 73,
          "name": "C#5",
          "ticks": 12311,
          "time": 113.15245283333333,
          "velocity": 0.8740157480314961
        },
        {
          "duration": 0.2022056666666714,
          "durationTicks": 22,
          "midi": 78,
          "name": "F#5",
          "ticks": 12335,
          "time": 113.37304083333333,
          "velocity": 0.8740157480314961
        },
        {
          "duration": 0.2022056666666714,
          "durationTicks": 22,
          "midi": 77,
          "name": "F5",
          "ticks": 12359,
          "time": 113.59362883333333,
          "velocity": 0.8740157480314961
        },
        {
          "duration": 0.2022056666666714,
          "durationTicks": 22,
          "midi": 73,
          "name": "C#5",
          "ticks": 12383,
          "time": 113.81421683333333,
          "velocity": 0.8740157480314961
        },
        {
          "duration": 0.42279366666667784,
          "durationTicks": 46,
          "midi": 68,
          "name": "G#4",
          "ticks": 12407,
          "time": 114.03480483333333,
          "velocity": 0.8740157480314961
        },
        {
          "duration": 0.4227936666666636,
          "durationTicks": 46,
          "midi": 73,
          "name": "C#5",
          "ticks": 12455,
          "time": 114.47598083333332,
          "velocity": 0.8740157480314961
        },
        {
          "duration": 0.4227936666666494,
          "durationTicks": 46,
          "midi": 75,
          "name": "D#5",
          "ticks": 12503,
          "time": 114.91715683333334,
          "velocity": 0.8740157480314961
        },
        {
          "duration": 0.20220566666665718,
          "durationTicks": 22,
          "midi": 73,
          "name": "C#5",
          "ticks": 12551,
          "time": 115.35833283333334,
          "velocity": 0.8740157480314961
        },
        {
          "duration": 0.18382333333335055,
          "durationTicks": 20,
          "midi": 75,
          "name": "D#5",
          "ticks": 12575,
          "time": 115.57892083333333,
          "velocity": 0.8740157480314961
        },
        {
          "duration": 0.5974258333333324,
          "durationTicks": 65,
          "midi": 77,
          "name": "F5",
          "ticks": 12599,
          "time": 115.79950883333333,
          "velocity": 0.8740157480314961
        },
        {
          "duration": 0.027573500000002582,
          "durationTicks": 3,
          "midi": 80,
          "name": "G#5",
          "ticks": 12665,
          "time": 116.40612583333333,
          "velocity": 0.7007874015748031
        },
        {
          "duration": 0.33088200000000256,
          "durationTicks": 36,
          "midi": 51,
          "name": "D#3",
          "ticks": 12671,
          "time": 116.46127283333333,
          "velocity": 0.8740157480314961
        },
        {
          "duration": 0.08272050000000775,
          "durationTicks": 9,
          "midi": 51,
          "name": "D#3",
          "ticks": 12707,
          "time": 116.79215483333333,
          "velocity": 0.8740157480314961
        },
        {
          "duration": 0.22058800000000645,
          "durationTicks": 24,
          "midi": 58,
          "name": "A#3",
          "ticks": 12719,
          "time": 116.90244883333332,
          "velocity": 0.8740157480314961
        },
        {
          "duration": 0.22058800000000645,
          "durationTicks": 24,
          "midi": 65,
          "name": "F4",
          "ticks": 12743,
          "time": 117.12303683333333,
          "velocity": 0.8740157480314961
        },
        {
          "duration": 0.09191166666664685,
          "durationTicks": 10,
          "midi": 58,
          "name": "A#3",
          "ticks": 12767,
          "time": 117.34362483333334,
          "velocity": 0.8740157480314961
        },
        {
          "duration": 0.22058799999999223,
          "durationTicks": 24,
          "midi": 63,
          "name": "D#4",
          "ticks": 12779,
          "time": 117.45391883333333,
          "velocity": 0.8740157480314961
        },
        {
          "duration": 0.11029400000001033,
          "durationTicks": 12,
          "midi": 58,
          "name": "A#3",
          "ticks": 12803,
          "time": 117.67450683333333,
          "velocity": 0.8740157480314961
        },
        {
          "duration": 0.22058799999999223,
          "durationTicks": 24,
          "midi": 65,
          "name": "F4",
          "ticks": 12815,
          "time": 117.78480083333334,
          "velocity": 0.8740157480314961
        },
        {
          "duration": 0.11029399999999612,
          "durationTicks": 12,
          "midi": 58,
          "name": "A#3",
          "ticks": 12839,
          "time": 118.00538883333333,
          "velocity": 0.8740157480314961
        },
        {
          "duration": 0.22058800000000645,
          "durationTicks": 24,
          "midi": 63,
          "name": "D#4",
          "ticks": 12851,
          "time": 118.11568283333332,
          "velocity": 0.8740157480314961
        },
        {
          "duration": 0.11029399999999612,
          "durationTicks": 12,
          "midi": 58,
          "name": "A#3",
          "ticks": 12875,
          "time": 118.33627083333333,
          "velocity": 0.8740157480314961
        },
        {
          "duration": 0.22058800000000645,
          "durationTicks": 24,
          "midi": 65,
          "name": "F4",
          "ticks": 12887,
          "time": 118.44656483333333,
          "velocity": 0.8740157480314961
        },
        {
          "duration": 0.22058799999999223,
          "durationTicks": 24,
          "midi": 58,
          "name": "A#3",
          "ticks": 12911,
          "time": 118.66715283333333,
          "velocity": 0.8740157480314961
        },
        {
          "duration": 0.22058800000000645,
          "durationTicks": 24,
          "midi": 65,
          "name": "F4",
          "ticks": 12935,
          "time": 118.88774083333332,
          "velocity": 0.8740157480314961
        },
        {
          "duration": 0.1011028333333428,
          "durationTicks": 11,
          "midi": 58,
          "name": "A#3",
          "ticks": 12959,
          "time": 119.10832883333333,
          "velocity": 0.8740157480314961
        },
        {
          "duration": 0.22058800000000645,
          "durationTicks": 24,
          "midi": 63,
          "name": "D#4",
          "ticks": 12971,
          "time": 119.21862283333333,
          "velocity": 0.8740157480314961
        },
        {
          "duration": 0.11029399999999612,
          "durationTicks": 12,
          "midi": 58,
          "name": "A#3",
          "ticks": 12995,
          "time": 119.43921083333333,
          "velocity": 0.8740157480314961
        },
        {
          "duration": 0.22058800000000645,
          "durationTicks": 24,
          "midi": 65,
          "name": "F4",
          "ticks": 13007,
          "time": 119.54950483333333,
          "velocity": 0.8740157480314961
        },
        {
          "duration": 0.1011028333333428,
          "durationTicks": 11,
          "midi": 58,
          "name": "A#3",
          "ticks": 13031,
          "time": 119.77009283333334,
          "velocity": 0.8740157480314961
        },
        {
          "duration": 0.22058799999999223,
          "durationTicks": 24,
          "midi": 63,
          "name": "D#4",
          "ticks": 13043,
          "time": 119.88038683333333,
          "velocity": 0.8740157480314961
        },
        {
          "duration": 0.11029400000001033,
          "durationTicks": 12,
          "midi": 58,
          "name": "A#3",
          "ticks": 13067,
          "time": 120.10097483333332,
          "velocity": 0.8740157480314961
        },
        {
          "duration": 0.11029399999999612,
          "durationTicks": 12,
          "midi": 65,
          "name": "F4",
          "ticks": 13079,
          "time": 120.21126883333334,
          "velocity": 0.8740157480314961
        },
        {
          "duration": 0.018382333333335055,
          "durationTicks": 2,
          "midi": 65,
          "name": "F4",
          "ticks": 13091,
          "time": 120.32156283333333,
          "velocity": 0.952755905511811
        },
        {
          "duration": 0.4227936666666636,
          "durationTicks": 46,
          "midi": 65,
          "name": "F4",
          "ticks": 13103,
          "time": 120.43185683333333,
          "velocity": 0.8740157480314961
        },
        {
          "duration": 0.20220566666665718,
          "durationTicks": 22,
          "midi": 65,
          "name": "F4",
          "ticks": 13151,
          "time": 120.87303283333333,
          "velocity": 0.8740157480314961
        },
        {
          "duration": 0.06433816666665848,
          "durationTicks": 7,
          "midi": 85,
          "name": "C#6",
          "ticks": 13175,
          "time": 121.09362083333333,
          "velocity": 0.7795275590551181
        },
        {
          "duration": 0.42279366666669205,
          "durationTicks": 46,
          "midi": 61,
          "name": "C#4",
          "ticks": 13176,
          "time": 121.10281199999999,
          "velocity": 0.8740157480314961
        },
        {
          "duration": 0.19301450000000386,
          "durationTicks": 21,
          "midi": 63,
          "name": "D#4",
          "ticks": 13223,
          "time": 121.53479683333333,
          "velocity": 0.8740157480314961
        },
        {
          "duration": 0.21139683333333892,
          "durationTicks": 23,
          "midi": 61,
          "name": "C#4",
          "ticks": 13247,
          "time": 121.75538483333334,
          "velocity": 0.8740157480314961
        },
        {
          "duration": 0.22058800000000645,
          "durationTicks": 24,
          "midi": 60,
          "name": "C4",
          "ticks": 13271,
          "time": 121.97597283333333,
          "velocity": 0.8740157480314961
        },
        {
          "duration": 0.20220566666665718,
          "durationTicks": 22,
          "midi": 73,
          "name": "C#5",
          "ticks": 13295,
          "time": 122.19656083333334,
          "velocity": 0.7480314960629921
        },
        {
          "duration": 0.2022056666666856,
          "durationTicks": 22,
          "midi": 61,
          "name": "C#4",
          "ticks": 13296,
          "time": 122.20575199999999,
          "velocity": 0.8740157480314961
        },
        {
          "duration": 0.20220566666665718,
          "durationTicks": 22,
          "midi": 68,
          "name": "G#4",
          "ticks": 13319,
          "time": 122.41714883333333,
          "velocity": 0.7401574803149606
        },
        {
          "duration": 0.2022056666666856,
          "durationTicks": 22,
          "midi": 60,
          "name": "C4",
          "ticks": 13320,
          "time": 122.42633999999998,
          "velocity": 0.8267716535433071
        },
        {
          "duration": 0.20220566666665718,
          "durationTicks": 22,
          "midi": 73,
          "name": "C#5",
          "ticks": 13343,
          "time": 122.63773683333334,
          "velocity": 0.7322834645669292
        },
        {
          "duration": 0.2022056666666856,
          "durationTicks": 22,
          "midi": 61,
          "name": "C#4",
          "ticks": 13344,
          "time": 122.64692799999999,
          "velocity": 0.8267716535433071
        },
        {
          "duration": 0.22058800000000645,
          "durationTicks": 24,
          "midi": 75,
          "name": "D#5",
          "ticks": 13367,
          "time": 122.85832483333333,
          "velocity": 0.7480314960629921
        },
        {
          "duration": 0.21139683333333892,
          "durationTicks": 23,
          "midi": 63,
          "name": "D#4",
          "ticks": 13368,
          "time": 122.867516,
          "velocity": 0.8267716535433071
        },
        {
          "duration": 0.22058799999999223,
          "durationTicks": 24,
          "midi": 68,
          "name": "G#4",
          "ticks": 13391,
          "time": 123.07891283333333,
          "velocity": 0.7007874015748031
        },
        {
          "duration": 0.19301450000000386,
          "durationTicks": 21,
          "midi": 82,
          "name": "A#5",
          "ticks": 13415,
          "time": 123.29950083333333,
          "velocity": 0.6141732283464567
        },
        {
          "duration": 0.19301450000000386,
          "durationTicks": 21,
          "midi": 70,
          "name": "A#4",
          "ticks": 13415,
          "time": 123.29950083333333,
          "velocity": 0.8740157480314961
        },
        {
          "duration": 0.11029400000001033,
          "durationTicks": 12,
          "midi": 70,
          "name": "A#4",
          "ticks": 13437,
          "time": 123.50170649999998,
          "velocity": 0.7007874015748031
        },
        {
          "duration": 0.19301450000000386,
          "durationTicks": 21,
          "midi": 82,
          "name": "A#5",
          "ticks": 13451,
          "time": 123.63038283333333,
          "velocity": 0.6141732283464567
        },
        {
          "duration": 0.19301450000000386,
          "durationTicks": 21,
          "midi": 70,
          "name": "A#4",
          "ticks": 13451,
          "time": 123.63038283333333,
          "velocity": 0.8740157480314961
        },
        {
          "duration": 0.11029400000001033,
          "durationTicks": 12,
          "midi": 70,
          "name": "A#4",
          "ticks": 13473,
          "time": 123.83258849999999,
          "velocity": 0.7007874015748031
        },
        {
          "duration": 1.323527999999996,
          "durationTicks": 144,
          "midi": 70,
          "name": "A#4",
          "ticks": 13487,
          "time": 123.96126483333333,
          "velocity": 0.952755905511811
        },
        {
          "duration": 0.22058800000000645,
          "durationTicks": 24,
          "midi": 70,
          "name": "A#4",
          "ticks": 13631,
          "time": 125.28479283333333,
          "velocity": 0.8740157480314961
        },
        {
          "duration": 0.22058799999999223,
          "durationTicks": 24,
          "midi": 70,
          "name": "A#4",
          "ticks": 13655,
          "time": 125.50538083333333,
          "velocity": 0.8740157480314961
        },
        {
          "duration": 0.20220566666665718,
          "durationTicks": 22,
          "midi": 73,
          "name": "C#5",
          "ticks": 13679,
          "time": 125.72596883333333,
          "velocity": 0.8740157480314961
        },
        {
          "duration": 0.20220566666665718,
          "durationTicks": 22,
          "midi": 70,
          "name": "A#4",
          "ticks": 13703,
          "time": 125.94655683333333,
          "velocity": 0.8740157480314961
        },
        {
          "duration": 0.16544100000000128,
          "durationTicks": 18,
          "midi": 73,
          "name": "C#5",
          "ticks": 13727,
          "time": 126.16714483333332,
          "velocity": 0.8740157480314961
        },
        {
          "duration": 0.027573500000002582,
          "durationTicks": 3,
          "midi": 75,
          "name": "D#5",
          "ticks": 13745,
          "time": 126.33258583333333,
          "velocity": 0.8740157480314961
        },
        {
          "duration": 0.43198483333334536,
          "durationTicks": 47,
          "midi": 77,
          "name": "F5",
          "ticks": 13751,
          "time": 126.38773283333333,
          "velocity": 0.8740157480314961
        },
        {
          "duration": 0.19301450000000386,
          "durationTicks": 21,
          "midi": 75,
          "name": "D#5",
          "ticks": 13799,
          "time": 126.82890883333333,
          "velocity": 0.8740157480314961
        },
        {
          "duration": 0.19301449999998965,
          "durationTicks": 21,
          "midi": 73,
          "name": "C#5",
          "ticks": 13823,
          "time": 127.04949683333334,
          "velocity": 0.8740157480314961
        },
        {
          "duration": 0.4136024999999961,
          "durationTicks": 45,
          "midi": 82,
          "name": "A#5",
          "ticks": 13847,
          "time": 127.27008483333333,
          "velocity": 0.8740157480314961
        },
        {
          "duration": 0.19301450000000386,
          "durationTicks": 21,
          "midi": 80,
          "name": "G#5",
          "ticks": 13895,
          "time": 127.71126083333333,
          "velocity": 0.8740157480314961
        },
        {
          "duration": 0.19301450000000386,
          "durationTicks": 21,
          "midi": 78,
          "name": "F#5",
          "ticks": 13919,
          "time": 127.93184883333333,
          "velocity": 0.8740157480314961
        },
        {
          "duration": 0.19301450000000386,
          "durationTicks": 21,
          "midi": 77,
          "name": "F5",
          "ticks": 13943,
          "time": 128.15243683333333,
          "velocity": 0.8740157480314961
        },
        {
          "duration": 0.19301450000000386,
          "durationTicks": 21,
          "midi": 78,
          "name": "F#5",
          "ticks": 13967,
          "time": 128.37302483333335,
          "velocity": 0.8740157480314961
        },
        {
          "duration": 0.20220566666665718,
          "durationTicks": 22,
          "midi": 77,
          "name": "F5",
          "ticks": 13991,
          "time": 128.59361283333334,
          "velocity": 0.8740157480314961
        },
        {
          "duration": 0.21139683333333892,
          "durationTicks": 23,
          "midi": 73,
          "name": "C#5",
          "ticks": 14015,
          "time": 128.81420083333333,
          "velocity": 0.8740157480314961
        },
        {
          "duration": 0.8547784999999806,
          "durationTicks": 93,
          "midi": 75,
          "name": "D#5",
          "ticks": 14039,
          "time": 129.03478883333335,
          "velocity": 0.952755905511811
        },
        {
          "duration": 1.5992630000000077,
          "durationTicks": 174,
          "midi": 77,
          "name": "F5",
          "ticks": 14135,
          "time": 129.91714083333335,
          "velocity": 0.952755905511811
        }
      ]
    },
    {
      "channel": 3,
      "controlChanges": {
        "10": [
          {
            "number": 10,
            "ticks": 14936,
            "time": 137.27926533333334,
            "value": 0.33858267716535434
          }
        ],
        "11": [
          {
            "number": 11,
            "ticks": 14938,
            "time": 137.29764766666668,
            "value": 0.4409448818897638
          },
          {
            "number": 11,
            "ticks": 22127,
            "time": 203.37294483333335,
            "value": 0.4251968503937008
          },
          {
            "number": 11,
            "ticks": 22135,
            "time": 203.4464741666667,
            "value": 0.41732283464566927
          },
          {
            "number": 11,
            "ticks": 22143,
            "time": 203.5200035,
            "value": 0.4015748031496063
          },
          {
            "number": 11,
            "ticks": 22151,
            "time": 203.59353283333334,
            "value": 0.3858267716535433
          },
          {
            "number": 11,
            "ticks": 22159,
            "time": 203.66706216666668,
            "value": 0.3779527559055118
          },
          {
            "number": 11,
            "ticks": 22168,
            "time": 203.74978266666668,
            "value": 0.36220472440944884
          },
          {
            "number": 11,
            "ticks": 22176,
            "time": 203.82331200000002,
            "value": 0.3464566929133858
          },
          {
            "number": 11,
            "ticks": 22184,
            "time": 203.89684133333336,
            "value": 0.33858267716535434
          },
          {
            "number": 11,
            "ticks": 22192,
            "time": 203.9703706666667,
            "value": 0.3228346456692913
          },
          {
            "number": 11,
            "ticks": 22201,
            "time": 204.0530911666667,
            "value": 0.30708661417322836
          },
          {
            "number": 11,
            "ticks": 22209,
            "time": 204.1266205,
            "value": 0.2992125984251969
          },
          {
            "number": 11,
            "ticks": 22217,
            "time": 204.20014983333334,
            "value": 0.28346456692913385
          },
          {
            "number": 11,
            "ticks": 22225,
            "time": 204.27367916666668,
            "value": 0.2677165354330709
          },
          {
            "number": 11,
            "ticks": 22233,
            "time": 204.3472085,
            "value": 0.25984251968503935
          },
          {
            "number": 11,
            "ticks": 22242,
            "time": 204.42992900000002,
            "value": 0.2440944881889764
          },
          {
            "number": 11,
            "ticks": 22250,
            "time": 204.50345833333336,
            "value": 0.2283464566929134
          },
          {
            "number": 11,
            "ticks": 22258,
            "time": 204.5769876666667,
            "value": 0.2204724409448819
          },
          {
            "number": 11,
            "ticks": 22266,
            "time": 204.650517,
            "value": 0.2047244094488189
          },
          {
            "number": 11,
            "ticks": 22275,
            "time": 204.7332375,
            "value": 0.1889763779527559
          },
          {
            "number": 11,
            "ticks": 22283,
            "time": 204.80676683333334,
            "value": 0.18110236220472442
          },
          {
            "number": 11,
            "ticks": 22291,
            "time": 204.88029616666668,
            "value": 0.16535433070866143
          },
          {
            "number": 11,
            "ticks": 22299,
            "time": 204.9538255,
            "value": 0.14960629921259844
          },
          {
            "number": 11,
            "ticks": 22307,
            "time": 205.02735483333333,
            "value": 0.14173228346456693
          },
          {
            "number": 11,
            "ticks": 22316,
            "time": 205.11007533333336,
            "value": 0.12598425196850394
          },
          {
            "number": 11,
            "ticks": 22324,
            "time": 205.1836046666667,
            "value": 0.11023622047244094
          },
          {
            "number": 11,
            "ticks": 22332,
            "time": 205.257134,
            "value": 0.10236220472440945
          },
          {
            "number": 11,
            "ticks": 22340,
            "time": 205.33066333333335,
            "value": 0.08661417322834646
          },
          {
            "number": 11,
            "ticks": 22349,
            "time": 205.41338383333334,
            "value": 0.07086614173228346
          },
          {
            "number": 11,
            "ticks": 22357,
            "time": 205.48691316666668,
            "value": 0.06299212598425197
          },
          {
            "number": 11,
            "ticks": 22365,
            "time": 205.5604425,
            "value": 0.047244094488188976
          },
          {
            "number": 11,
            "ticks": 22373,
            "time": 205.63397183333333,
            "value": 0.031496062992125984
          }
        ],
        "71": [
          {
            "number": 71,
            "ticks": 14961,
            "time": 137.50904450000002,
            "value": 0.5039370078740157
          }
        ],
        "74": [
          {
            "number": 74,
            "ticks": 14962,
            "time": 137.5182356666667,
            "value": 0.5039370078740157
          }
        ],
        "91": [
          {
            "number": 91,
            "ticks": 14956,
            "time": 137.4630886666667,
            "value": 0.7007874015748031
          }
        ],
        "93": [
          {
            "number": 93,
            "ticks": 14960,
            "time": 137.49985333333333,
            "value": 0
          }
        ]
      },
      "pitchBends": [],
      "instrument": {
        "family": "sound effects",
        "number": 124,
        "name": "telephone ring"
      },
      "name": "",
      "notes": [
        {
          "duration": 4.411759999999987,
          "durationTicks": 480,
          "midi": 91,
          "name": "G6",
          "ticks": 21935,
          "time": 201.60824083333335,
          "velocity": 0.7086614173228346
        }
      ]
    },
    {
      "channel": 0,
      "controlChanges": {
        "0": [
          {
            "number": 0,
            "ticks": 161,
            "time": 1.4797778333333333,
            "value": 0
          }
        ],
        "32": [
          {
            "number": 32,
            "ticks": 163,
            "time": 1.4981601666666668,
            "value": 0.015748031496062992
          }
        ],
        "121": [
          {
            "number": 121,
            "ticks": 157,
            "time": 1.4430131666666668,
            "value": 0
          }
        ]
      },
      "pitchBends": [],
      "instrument": {
        "family": "piano",
        "number": 0,
        "name": "acoustic grand piano"
      },
      "name": "Piano",
      "notes": [],
      "endOfTrackTicks": 23856
    },
    {
      "channel": 4,
      "controlChanges": {
        "6": [
          {
            "number": 6,
            "ticks": 182,
            "time": 1.6727923333333332,
            "value": 0.09448818897637795
          }
        ],
        "7": [
          {
            "number": 7,
            "ticks": 167,
            "time": 1.5349248333333334,
            "value": 0.9921259842519685
          }
        ],
        "10": [
          {
            "number": 10,
            "ticks": 169,
            "time": 1.5533071666666667,
            "value": 0.5039370078740157
          }
        ],
        "11": [
          {
            "number": 11,
            "ticks": 171,
            "time": 1.5716895,
            "value": 0.5669291338582677
          },
          {
            "number": 11,
            "ticks": 23855,
            "time": 219.35330808333333,
            "value": 0.03937007874015748
          }
        ],
        "71": [
          {
            "number": 71,
            "ticks": 178,
            "time": 1.6360276666666669,
            "value": 0.5039370078740157
          }
        ],
        "74": [
          {
            "number": 74,
            "ticks": 177,
            "time": 1.6268365,
            "value": 0.5039370078740157
          }
        ],
        "91": [
          {
            "number": 91,
            "ticks": 173,
            "time": 1.5900718333333332,
            "value": 0.4566929133858268
          }
        ],
        "93": [
          {
            "number": 93,
            "ticks": 175,
            "time": 1.6084541666666667,
            "value": 0.18110236220472442
          }
        ],
        "94": [
          {
            "number": 94,
            "ticks": 176,
            "time": 1.6176453333333334,
            "value": 0
          }
        ],
        "100": [
          {
            "number": 100,
            "ticks": 180,
            "time": 1.65441,
            "value": 0
          }
        ],
        "101": [
          {
            "number": 101,
            "ticks": 179,
            "time": 1.6452188333333333,
            "value": 0
          }
        ]
      },
      "pitchBends": [],
      "instrument": {
        "family": "piano",
        "number": 1,
        "name": "bright acoustic piano"
      },
      "name": "",
      "notes": [
        {
          "duration": 1.7371304999999997,
          "durationTicks": 189,
          "midi": 30,
          "name": "F#1",
          "ticks": 432,
          "time": 3.970584,
          "velocity": 0.8661417322834646
        },
        {
          "duration": 1.7463216666666663,
          "durationTicks": 190,
          "midi": 42,
          "name": "F#2",
          "ticks": 432,
          "time": 3.970584,
          "velocity": 0.8661417322834646
        },
        {
          "duration": 1.755512833333333,
          "durationTicks": 191,
          "midi": 61,
          "name": "C#4",
          "ticks": 432,
          "time": 3.970584,
          "velocity": 0.8346456692913385
        },
        {
          "duration": 1.727939333333333,
          "durationTicks": 188,
          "midi": 65,
          "name": "F4",
          "ticks": 433,
          "time": 3.9797751666666668,
          "velocity": 0.8661417322834646
        },
        {
          "duration": 1.727939333333333,
          "durationTicks": 188,
          "midi": 56,
          "name": "G#3",
          "ticks": 433,
          "time": 3.9797751666666668,
          "velocity": 0.8346456692913385
        },
        {
          "duration": 1.7371305000000001,
          "durationTicks": 189,
          "midi": 32,
          "name": "G#1",
          "ticks": 624,
          "time": 5.735288000000001,
          "velocity": 0.9212598425196851
        },
        {
          "duration": 1.7371305000000001,
          "durationTicks": 189,
          "midi": 44,
          "name": "G#2",
          "ticks": 624,
          "time": 5.735288000000001,
          "velocity": 0.8740157480314961
        },
        {
          "duration": 0.6525728333333332,
          "durationTicks": 71,
          "midi": 61,
          "name": "C#4",
          "ticks": 624,
          "time": 5.735288000000001,
          "velocity": 0.8740157480314961
        },
        {
          "duration": 0.652572833333334,
          "durationTicks": 71,
          "midi": 65,
          "name": "F4",
          "ticks": 625,
          "time": 5.744479166666666,
          "velocity": 0.8818897637795275
        },
        {
          "duration": 0.652572833333334,
          "durationTicks": 71,
          "midi": 58,
          "name": "A#3",
          "ticks": 625,
          "time": 5.744479166666666,
          "velocity": 0.8661417322834646
        },
        {
          "duration": 1.0753665000000003,
          "durationTicks": 117,
          "midi": 63,
          "name": "D#4",
          "ticks": 696,
          "time": 6.397052,
          "velocity": 0.8661417322834646
        },
        {
          "duration": 1.0753665000000003,
          "durationTicks": 117,
          "midi": 60,
          "name": "C4",
          "ticks": 696,
          "time": 6.397052,
          "velocity": 0.8661417322834646
        },
        {
          "duration": 1.084557666666667,
          "durationTicks": 118,
          "midi": 56,
          "name": "G#3",
          "ticks": 697,
          "time": 6.406243166666667,
          "velocity": 0.8661417322834646
        },
        {
          "duration": 1.7463216666666668,
          "durationTicks": 190,
          "midi": 34,
          "name": "A#1",
          "ticks": 816,
          "time": 7.499992000000001,
          "velocity": 0.9133858267716536
        },
        {
          "duration": 1.7371304999999992,
          "durationTicks": 189,
          "midi": 46,
          "name": "A#2",
          "ticks": 816,
          "time": 7.499992000000001,
          "velocity": 0.8818897637795275
        },
        {
          "duration": 0.6525728333333323,
          "durationTicks": 71,
          "midi": 60,
          "name": "C4",
          "ticks": 816,
          "time": 7.499992000000001,
          "velocity": 0.84251968503937
        },
        {
          "duration": 0.652572833333334,
          "durationTicks": 71,
          "midi": 63,
          "name": "D#4",
          "ticks": 817,
          "time": 7.509183166666666,
          "velocity": 0.8582677165354331
        },
        {
          "duration": 0.652572833333334,
          "durationTicks": 71,
          "midi": 56,
          "name": "G#3",
          "ticks": 817,
          "time": 7.509183166666666,
          "velocity": 0.8503937007874016
        },
        {
          "duration": 1.084557666666667,
          "durationTicks": 118,
          "midi": 61,
          "name": "C#4",
          "ticks": 888,
          "time": 8.161756,
          "velocity": 0.84251968503937
        },
        {
          "duration": 1.0753664999999994,
          "durationTicks": 117,
          "midi": 65,
          "name": "F4",
          "ticks": 888,
          "time": 8.161756,
          "velocity": 0.8582677165354331
        },
        {
          "duration": 1.0753664999999994,
          "durationTicks": 117,
          "midi": 56,
          "name": "G#3",
          "ticks": 889,
          "time": 8.170947166666668,
          "velocity": 0.8503937007874016
        },
        {
          "duration": 0.661763999999998,
          "durationTicks": 72,
          "midi": 32,
          "name": "G#1",
          "ticks": 1008,
          "time": 9.264696,
          "velocity": 0.9133858267716536
        },
        {
          "duration": 0.661763999999998,
          "durationTicks": 72,
          "midi": 44,
          "name": "G#2",
          "ticks": 1008,
          "time": 9.264696,
          "velocity": 0.8818897637795275
        },
        {
          "duration": 0.2113968333333318,
          "durationTicks": 23,
          "midi": 63,
          "name": "D#4",
          "ticks": 1008,
          "time": 9.264696,
          "velocity": 0.8503937007874016
        },
        {
          "duration": 0.1930145000000003,
          "durationTicks": 21,
          "midi": 61,
          "name": "C#4",
          "ticks": 1009,
          "time": 9.273887166666668,
          "velocity": 0.905511811023622
        },
        {
          "duration": 0.1930145000000003,
          "durationTicks": 21,
          "midi": 66,
          "name": "F#4",
          "ticks": 1009,
          "time": 9.273887166666668,
          "velocity": 0.8503937007874016
        },
        {
          "duration": 0.2113968333333336,
          "durationTicks": 23,
          "midi": 63,
          "name": "D#4",
          "ticks": 1032,
          "time": 9.485284,
          "velocity": 0.8503937007874016
        },
        {
          "duration": 0.1930145000000003,
          "durationTicks": 21,
          "midi": 61,
          "name": "C#4",
          "ticks": 1032,
          "time": 9.485284,
          "velocity": 0.905511811023622
        },
        {
          "duration": 0.1930145000000003,
          "durationTicks": 21,
          "midi": 65,
          "name": "F4",
          "ticks": 1033,
          "time": 9.494475166666668,
          "velocity": 0.8503937007874016
        },
        {
          "duration": 0.21139683333333537,
          "durationTicks": 23,
          "midi": 63,
          "name": "D#4",
          "ticks": 1056,
          "time": 9.705872,
          "velocity": 0.8503937007874016
        },
        {
          "duration": 0.1930145000000003,
          "durationTicks": 21,
          "midi": 61,
          "name": "C#4",
          "ticks": 1056,
          "time": 9.705872,
          "velocity": 0.905511811023622
        },
        {
          "duration": 0.1930145000000003,
          "durationTicks": 21,
          "midi": 56,
          "name": "G#3",
          "ticks": 1057,
          "time": 9.715063166666667,
          "velocity": 0.8503937007874016
        },
        {
          "duration": 0.1930145000000003,
          "durationTicks": 21,
          "midi": 37,
          "name": "C#2",
          "ticks": 1080,
          "time": 9.926459999999999,
          "velocity": 0.9133858267716536
        },
        {
          "duration": 0.1930145000000003,
          "durationTicks": 21,
          "midi": 49,
          "name": "C#3",
          "ticks": 1080,
          "time": 9.926459999999999,
          "velocity": 0.8818897637795275
        },
        {
          "duration": 0.2113968333333318,
          "durationTicks": 23,
          "midi": 65,
          "name": "F4",
          "ticks": 1081,
          "time": 9.935651166666666,
          "velocity": 0.8503937007874016
        },
        {
          "duration": 0.20220566666666784,
          "durationTicks": 22,
          "midi": 59,
          "name": "B3",
          "ticks": 1081,
          "time": 9.935651166666666,
          "velocity": 0.905511811023622
        },
        {
          "duration": 0.20220566666666784,
          "durationTicks": 22,
          "midi": 56,
          "name": "G#3",
          "ticks": 1081,
          "time": 9.935651166666666,
          "velocity": 0.8503937007874016
        },
        {
          "duration": 0.8639696666666694,
          "durationTicks": 94,
          "midi": 30,
          "name": "F#1",
          "ticks": 1200,
          "time": 11.029399999999999,
          "velocity": 0.9133858267716536
        },
        {
          "duration": 0.8639696666666694,
          "durationTicks": 94,
          "midi": 42,
          "name": "F#2",
          "ticks": 1200,
          "time": 11.029399999999999,
          "velocity": 0.8818897637795275
        },
        {
          "duration": 0.44117600000000223,
          "durationTicks": 48,
          "midi": 61,
          "name": "C#4",
          "ticks": 1200,
          "time": 11.029399999999999,
          "velocity": 0.889763779527559
        },
        {
          "duration": 0.4319848333333347,
          "durationTicks": 47,
          "midi": 65,
          "name": "F4",
          "ticks": 1201,
          "time": 11.038591166666667,
          "velocity": 0.905511811023622
        },
        {
          "duration": 0.4319848333333347,
          "durationTicks": 47,
          "midi": 68,
          "name": "G#4",
          "ticks": 1201,
          "time": 11.038591166666667,
          "velocity": 0.8818897637795275
        },
        {
          "duration": 0.4411759999999987,
          "durationTicks": 48,
          "midi": 61,
          "name": "C#4",
          "ticks": 1248,
          "time": 11.470576000000001,
          "velocity": 0.889763779527559
        },
        {
          "duration": 0.4411759999999987,
          "durationTicks": 48,
          "midi": 65,
          "name": "F4",
          "ticks": 1248,
          "time": 11.470576000000001,
          "velocity": 0.889763779527559
        },
        {
          "duration": 0.43198483333333115,
          "durationTicks": 47,
          "midi": 68,
          "name": "G#4",
          "ticks": 1249,
          "time": 11.479767166666669,
          "velocity": 0.8582677165354331
        },
        {
          "duration": 0.8639696666666694,
          "durationTicks": 94,
          "midi": 30,
          "name": "F#1",
          "ticks": 1296,
          "time": 11.911752,
          "velocity": 0.8503937007874016
        },
        {
          "duration": 0.8731608333333334,
          "durationTicks": 95,
          "midi": 42,
          "name": "F#2",
          "ticks": 1296,
          "time": 11.911752,
          "velocity": 0.8267716535433071
        },
        {
          "duration": 0.8731608333333334,
          "durationTicks": 95,
          "midi": 61,
          "name": "C#4",
          "ticks": 1296,
          "time": 11.911752,
          "velocity": 0.889763779527559
        },
        {
          "duration": 0.8639696666666659,
          "durationTicks": 94,
          "midi": 65,
          "name": "F4",
          "ticks": 1297,
          "time": 11.920943166666667,
          "velocity": 0.8740157480314961
        },
        {
          "duration": 0.8639696666666659,
          "durationTicks": 94,
          "midi": 68,
          "name": "G#4",
          "ticks": 1297,
          "time": 11.920943166666667,
          "velocity": 0.8661417322834646
        },
        {
          "duration": 0.8731608333333334,
          "durationTicks": 95,
          "midi": 32,
          "name": "G#1",
          "ticks": 1392,
          "time": 12.794104,
          "velocity": 0.9133858267716536
        },
        {
          "duration": 0.8731608333333334,
          "durationTicks": 95,
          "midi": 44,
          "name": "G#2",
          "ticks": 1392,
          "time": 12.794104,
          "velocity": 0.8818897637795275
        },
        {
          "duration": 0.8731608333333334,
          "durationTicks": 95,
          "midi": 61,
          "name": "C#4",
          "ticks": 1392,
          "time": 12.794104,
          "velocity": 0.905511811023622
        },
        {
          "duration": 0.43198483333333115,
          "durationTicks": 47,
          "midi": 65,
          "name": "F4",
          "ticks": 1393,
          "time": 12.803295166666668,
          "velocity": 0.8818897637795275
        },
        {
          "duration": 0.43198483333333115,
          "durationTicks": 47,
          "midi": 68,
          "name": "G#4",
          "ticks": 1393,
          "time": 12.803295166666668,
          "velocity": 0.889763779527559
        },
        {
          "duration": 0.4411759999999987,
          "durationTicks": 48,
          "midi": 56,
          "name": "G#3",
          "ticks": 1440,
          "time": 13.23528,
          "velocity": 0.9133858267716536
        },
        {
          "duration": 0.4411759999999987,
          "durationTicks": 48,
          "midi": 60,
          "name": "C4",
          "ticks": 1440,
          "time": 13.23528,
          "velocity": 0.9291338582677166
        },
        {
          "duration": 0.43198483333333115,
          "durationTicks": 47,
          "midi": 63,
          "name": "D#4",
          "ticks": 1441,
          "time": 13.244471166666667,
          "velocity": 0.905511811023622
        },
        {
          "duration": 0.8731608333333369,
          "durationTicks": 95,
          "midi": 32,
          "name": "G#1",
          "ticks": 1488,
          "time": 13.676455999999998,
          "velocity": 0.8740157480314961
        },
        {
          "duration": 0.8731608333333369,
          "durationTicks": 95,
          "midi": 44,
          "name": "G#2",
          "ticks": 1488,
          "time": 13.676455999999998,
          "velocity": 0.889763779527559
        },
        {
          "duration": 0.44117600000000223,
          "durationTicks": 48,
          "midi": 68,
          "name": "G#4",
          "ticks": 1488,
          "time": 13.676455999999998,
          "velocity": 0.9291338582677166
        },
        {
          "duration": 0.44117600000000223,
          "durationTicks": 48,
          "midi": 61,
          "name": "C#4",
          "ticks": 1488,
          "time": 13.676455999999998,
          "velocity": 0.9291338582677166
        },
        {
          "duration": 0.43198483333333115,
          "durationTicks": 47,
          "midi": 65,
          "name": "F4",
          "ticks": 1489,
          "time": 13.68564716666667,
          "velocity": 0.905511811023622
        },
        {
          "duration": 0.4411759999999987,
          "durationTicks": 48,
          "midi": 68,
          "name": "G#4",
          "ticks": 1536,
          "time": 14.117632,
          "velocity": 0.9133858267716536
        },
        {
          "duration": 0.4411759999999987,
          "durationTicks": 48,
          "midi": 60,
          "name": "C4",
          "ticks": 1536,
          "time": 14.117632,
          "velocity": 0.9291338582677166
        },
        {
          "duration": 0.43198483333333115,
          "durationTicks": 47,
          "midi": 63,
          "name": "D#4",
          "ticks": 1537,
          "time": 14.126823166666668,
          "velocity": 0.905511811023622
        },
        {
          "duration": 0.8731608333333334,
          "durationTicks": 95,
          "midi": 37,
          "name": "C#2",
          "ticks": 1584,
          "time": 14.558807999999999,
          "velocity": 0.9133858267716536
        },
        {
          "duration": 0.8731608333333334,
          "durationTicks": 95,
          "midi": 49,
          "name": "C#3",
          "ticks": 1584,
          "time": 14.558807999999999,
          "velocity": 0.8818897637795275
        },
        {
          "duration": 0.4319848333333347,
          "durationTicks": 47,
          "midi": 60,
          "name": "C4",
          "ticks": 1584,
          "time": 14.558807999999999,
          "velocity": 0.905511811023622
        },
        {
          "duration": 0.4319848333333347,
          "durationTicks": 47,
          "midi": 63,
          "name": "D#4",
          "ticks": 1585,
          "time": 14.567999166666667,
          "velocity": 0.8818897637795275
        },
        {
          "duration": 0.4319848333333347,
          "durationTicks": 47,
          "midi": 68,
          "name": "G#4",
          "ticks": 1585,
          "time": 14.567999166666667,
          "velocity": 0.889763779527559
        },
        {
          "duration": 0.4411759999999987,
          "durationTicks": 48,
          "midi": 60,
          "name": "C4",
          "ticks": 1632,
          "time": 14.999984000000001,
          "velocity": 0.889763779527559
        },
        {
          "duration": 0.4411759999999987,
          "durationTicks": 48,
          "midi": 63,
          "name": "D#4",
          "ticks": 1632,
          "time": 14.999984000000001,
          "velocity": 0.8976377952755905
        },
        {
          "duration": 0.43198483333333115,
          "durationTicks": 47,
          "midi": 68,
          "name": "G#4",
          "ticks": 1633,
          "time": 15.009175166666669,
          "velocity": 0.889763779527559
        },
        {
          "duration": 0.6617640000000016,
          "durationTicks": 72,
          "midi": 37,
          "name": "C#2",
          "ticks": 1680,
          "time": 15.44116,
          "velocity": 0.9133858267716536
        },
        {
          "duration": 0.6617640000000016,
          "durationTicks": 72,
          "midi": 49,
          "name": "C#3",
          "ticks": 1680,
          "time": 15.44116,
          "velocity": 0.9133858267716536
        },
        {
          "duration": 0.6617640000000016,
          "durationTicks": 72,
          "midi": 60,
          "name": "C4",
          "ticks": 1680,
          "time": 15.44116,
          "velocity": 0.905511811023622
        },
        {
          "duration": 0.652572833333334,
          "durationTicks": 71,
          "midi": 63,
          "name": "D#4",
          "ticks": 1681,
          "time": 15.450351166666668,
          "velocity": 0.905511811023622
        },
        {
          "duration": 0.652572833333334,
          "durationTicks": 71,
          "midi": 68,
          "name": "G#4",
          "ticks": 1681,
          "time": 15.450351166666668,
          "velocity": 0.8818897637795275
        },
        {
          "duration": 0.8823520000000009,
          "durationTicks": 96,
          "midi": 34,
          "name": "A#1",
          "ticks": 1752,
          "time": 16.102924,
          "velocity": 0.9133858267716536
        },
        {
          "duration": 0.8823520000000009,
          "durationTicks": 96,
          "midi": 46,
          "name": "A#2",
          "ticks": 1752,
          "time": 16.102924,
          "velocity": 0.8818897637795275
        },
        {
          "duration": 0.8823520000000009,
          "durationTicks": 96,
          "midi": 60,
          "name": "C4",
          "ticks": 1752,
          "time": 16.102924,
          "velocity": 0.905511811023622
        },
        {
          "duration": 0.8731608333333369,
          "durationTicks": 95,
          "midi": 63,
          "name": "D#4",
          "ticks": 1753,
          "time": 16.112115166666666,
          "velocity": 0.8818897637795275
        },
        {
          "duration": 0.8731608333333369,
          "durationTicks": 95,
          "midi": 68,
          "name": "G#4",
          "ticks": 1753,
          "time": 16.112115166666666,
          "velocity": 0.889763779527559
        },
        {
          "duration": 1.0845576666666652,
          "durationTicks": 118,
          "midi": 34,
          "name": "A#1",
          "ticks": 1848,
          "time": 16.985276000000002,
          "velocity": 0.9133858267716536
        },
        {
          "duration": 1.0753665000000012,
          "durationTicks": 117,
          "midi": 46,
          "name": "A#2",
          "ticks": 1848,
          "time": 16.985276000000002,
          "velocity": 0.9212598425196851
        },
        {
          "duration": 0.643381666666663,
          "durationTicks": 70,
          "midi": 62,
          "name": "D4",
          "ticks": 1848,
          "time": 16.985276000000002,
          "velocity": 0.905511811023622
        },
        {
          "duration": 0.6433816666666665,
          "durationTicks": 70,
          "midi": 65,
          "name": "F4",
          "ticks": 1849,
          "time": 16.994467166666666,
          "velocity": 0.905511811023622
        },
        {
          "duration": 0.6433816666666665,
          "durationTicks": 70,
          "midi": 68,
          "name": "G#4",
          "ticks": 1849,
          "time": 16.994467166666666,
          "velocity": 0.905511811023622
        },
        {
          "duration": 0.4136025000000032,
          "durationTicks": 45,
          "midi": 62,
          "name": "D4",
          "ticks": 1920,
          "time": 17.64704,
          "velocity": 0.889763779527559
        },
        {
          "duration": 0.4136025000000032,
          "durationTicks": 45,
          "midi": 65,
          "name": "F4",
          "ticks": 1920,
          "time": 17.64704,
          "velocity": 0.889763779527559
        },
        {
          "duration": 0.4136025000000032,
          "durationTicks": 45,
          "midi": 68,
          "name": "G#4",
          "ticks": 1921,
          "time": 17.656231166666664,
          "velocity": 0.905511811023622
        },
        {
          "duration": 0.661763999999998,
          "durationTicks": 72,
          "midi": 39,
          "name": "D#2",
          "ticks": 1968,
          "time": 18.088216000000003,
          "velocity": 0.889763779527559
        },
        {
          "duration": 0.661763999999998,
          "durationTicks": 72,
          "midi": 51,
          "name": "D#3",
          "ticks": 1968,
          "time": 18.088216000000003,
          "velocity": 0.8818897637795275
        },
        {
          "duration": 0.661763999999998,
          "durationTicks": 72,
          "midi": 61,
          "name": "C#4",
          "ticks": 1968,
          "time": 18.088216000000003,
          "velocity": 0.889763779527559
        },
        {
          "duration": 0.652572833333334,
          "durationTicks": 71,
          "midi": 65,
          "name": "F4",
          "ticks": 1969,
          "time": 18.097407166666667,
          "velocity": 0.8818897637795275
        },
        {
          "duration": 0.652572833333334,
          "durationTicks": 71,
          "midi": 58,
          "name": "A#3",
          "ticks": 1969,
          "time": 18.097407166666667,
          "velocity": 0.889763779527559
        },
        {
          "duration": 1.0845576666666652,
          "durationTicks": 118,
          "midi": 39,
          "name": "D#2",
          "ticks": 2040,
          "time": 18.74998,
          "velocity": 0.889763779527559
        },
        {
          "duration": 1.0753665000000012,
          "durationTicks": 117,
          "midi": 51,
          "name": "D#3",
          "ticks": 2040,
          "time": 18.74998,
          "velocity": 0.8976377952755905
        },
        {
          "duration": 0.6433816666666665,
          "durationTicks": 70,
          "midi": 61,
          "name": "C#4",
          "ticks": 2040,
          "time": 18.74998,
          "velocity": 0.905511811023622
        },
        {
          "duration": 0.6433816666666665,
          "durationTicks": 70,
          "midi": 65,
          "name": "F4",
          "ticks": 2041,
          "time": 18.75917116666667,
          "velocity": 0.8976377952755905
        },
        {
          "duration": 0.6433816666666665,
          "durationTicks": 70,
          "midi": 58,
          "name": "A#3",
          "ticks": 2041,
          "time": 18.75917116666667,
          "velocity": 0.905511811023622
        },
        {
          "duration": 0.41360249999999965,
          "durationTicks": 45,
          "midi": 61,
          "name": "C#4",
          "ticks": 2112,
          "time": 19.411744000000002,
          "velocity": 0.889763779527559
        },
        {
          "duration": 0.41360249999999965,
          "durationTicks": 45,
          "midi": 65,
          "name": "F4",
          "ticks": 2112,
          "time": 19.411744000000002,
          "velocity": 0.8818897637795275
        },
        {
          "duration": 0.41360249999999965,
          "durationTicks": 45,
          "midi": 58,
          "name": "A#3",
          "ticks": 2113,
          "time": 19.420935166666666,
          "velocity": 0.905511811023622
        },
        {
          "duration": 0.8731608333333334,
          "durationTicks": 95,
          "midi": 32,
          "name": "G#1",
          "ticks": 2160,
          "time": 19.85292,
          "velocity": 0.889763779527559
        },
        {
          "duration": 0.8731608333333334,
          "durationTicks": 95,
          "midi": 44,
          "name": "G#2",
          "ticks": 2160,
          "time": 19.85292,
          "velocity": 0.8818897637795275
        },
        {
          "duration": 0.652572833333334,
          "durationTicks": 71,
          "midi": 60,
          "name": "C4",
          "ticks": 2160,
          "time": 19.85292,
          "velocity": 0.889763779527559
        },
        {
          "duration": 0.652572833333334,
          "durationTicks": 71,
          "midi": 63,
          "name": "D#4",
          "ticks": 2161,
          "time": 19.86211116666667,
          "velocity": 0.8818897637795275
        },
        {
          "duration": 0.652572833333334,
          "durationTicks": 71,
          "midi": 68,
          "name": "G#4",
          "ticks": 2161,
          "time": 19.86211116666667,
          "velocity": 0.889763779527559
        },
        {
          "duration": 0.2113968333333318,
          "durationTicks": 23,
          "midi": 56,
          "name": "G#3",
          "ticks": 2232,
          "time": 20.514684000000003,
          "velocity": 0.8818897637795275
        },
        {
          "duration": 0.2113968333333318,
          "durationTicks": 23,
          "midi": 63,
          "name": "D#4",
          "ticks": 2232,
          "time": 20.514684000000003,
          "velocity": 0.8818897637795275
        },
        {
          "duration": 0.21139683333333537,
          "durationTicks": 23,
          "midi": 60,
          "name": "C4",
          "ticks": 2233,
          "time": 20.523875166666667,
          "velocity": 0.8740157480314961
        },
        {
          "duration": 0.43198483333333115,
          "durationTicks": 47,
          "midi": 32,
          "name": "G#1",
          "ticks": 2256,
          "time": 20.735272000000002,
          "velocity": 0.9133858267716536
        },
        {
          "duration": 0.43198483333333115,
          "durationTicks": 47,
          "midi": 44,
          "name": "G#2",
          "ticks": 2256,
          "time": 20.735272000000002,
          "velocity": 0.8818897637795275
        },
        {
          "duration": 0.43198483333333115,
          "durationTicks": 47,
          "midi": 60,
          "name": "C4",
          "ticks": 2256,
          "time": 20.735272000000002,
          "velocity": 0.889763779527559
        },
        {
          "duration": 0.4227936666666672,
          "durationTicks": 46,
          "midi": 63,
          "name": "D#4",
          "ticks": 2257,
          "time": 20.744463166666666,
          "velocity": 0.8818897637795275
        },
        {
          "duration": 0.4227936666666672,
          "durationTicks": 46,
          "midi": 68,
          "name": "G#4",
          "ticks": 2257,
          "time": 20.744463166666666,
          "velocity": 0.889763779527559
        },
        {
          "duration": 0.43198483333333115,
          "durationTicks": 47,
          "midi": 32,
          "name": "G#1",
          "ticks": 2304,
          "time": 21.176448000000004,
          "velocity": 0.9133858267716536
        },
        {
          "duration": 0.43198483333333115,
          "durationTicks": 47,
          "midi": 44,
          "name": "G#2",
          "ticks": 2304,
          "time": 21.176448000000004,
          "velocity": 0.8818897637795275
        },
        {
          "duration": 0.43198483333333115,
          "durationTicks": 47,
          "midi": 60,
          "name": "C4",
          "ticks": 2304,
          "time": 21.176448000000004,
          "velocity": 0.889763779527559
        },
        {
          "duration": 0.4227936666666672,
          "durationTicks": 46,
          "midi": 63,
          "name": "D#4",
          "ticks": 2305,
          "time": 21.185639166666668,
          "velocity": 0.8818897637795275
        },
        {
          "duration": 0.4227936666666672,
          "durationTicks": 46,
          "midi": 68,
          "name": "G#4",
          "ticks": 2305,
          "time": 21.185639166666668,
          "velocity": 0.889763779527559
        },
        {
          "duration": 1.3051456666666645,
          "durationTicks": 142,
          "midi": 30,
          "name": "F#1",
          "ticks": 2352,
          "time": 21.617624000000003,
          "velocity": 0.8661417322834646
        },
        {
          "duration": 1.3051456666666645,
          "durationTicks": 142,
          "midi": 42,
          "name": "F#2",
          "ticks": 2352,
          "time": 21.617624000000003,
          "velocity": 0.889763779527559
        },
        {
          "duration": 0.643381666666663,
          "durationTicks": 70,
          "midi": 61,
          "name": "C#4",
          "ticks": 2352,
          "time": 21.617624000000003,
          "velocity": 0.8818897637795275
        },
        {
          "duration": 0.6433816666666665,
          "durationTicks": 70,
          "midi": 65,
          "name": "F4",
          "ticks": 2353,
          "time": 21.626815166666667,
          "velocity": 0.8661417322834646
        },
        {
          "duration": 0.6433816666666665,
          "durationTicks": 70,
          "midi": 56,
          "name": "G#3",
          "ticks": 2353,
          "time": 21.626815166666667,
          "velocity": 0.8740157480314961
        },
        {
          "duration": 0.6433816666666665,
          "durationTicks": 70,
          "midi": 61,
          "name": "C#4",
          "ticks": 2424,
          "time": 22.279388,
          "velocity": 0.8976377952755905
        },
        {
          "duration": 0.6433816666666665,
          "durationTicks": 70,
          "midi": 65,
          "name": "F4",
          "ticks": 2424,
          "time": 22.279388,
          "velocity": 0.889763779527559
        },
        {
          "duration": 0.6433816666666665,
          "durationTicks": 70,
          "midi": 56,
          "name": "G#3",
          "ticks": 2425,
          "time": 22.28857916666667,
          "velocity": 0.889763779527559
        },
        {
          "duration": 0.43198483333333115,
          "durationTicks": 47,
          "midi": 30,
          "name": "F#1",
          "ticks": 2496,
          "time": 22.941152000000002,
          "velocity": 0.8661417322834646
        },
        {
          "duration": 0.43198483333333115,
          "durationTicks": 47,
          "midi": 42,
          "name": "F#2",
          "ticks": 2496,
          "time": 22.941152000000002,
          "velocity": 0.8740157480314961
        },
        {
          "duration": 0.43198483333333115,
          "durationTicks": 47,
          "midi": 61,
          "name": "C#4",
          "ticks": 2496,
          "time": 22.941152000000002,
          "velocity": 0.8818897637795275
        },
        {
          "duration": 0.4319848333333347,
          "durationTicks": 47,
          "midi": 65,
          "name": "F4",
          "ticks": 2497,
          "time": 22.950343166666666,
          "velocity": 0.889763779527559
        },
        {
          "duration": 0.4319848333333347,
          "durationTicks": 47,
          "midi": 56,
          "name": "G#3",
          "ticks": 2497,
          "time": 22.950343166666666,
          "velocity": 0.8582677165354331
        },
        {
          "duration": 1.3051456666666645,
          "durationTicks": 142,
          "midi": 30,
          "name": "F#1",
          "ticks": 2544,
          "time": 23.382328,
          "velocity": 0.8661417322834646
        },
        {
          "duration": 1.3051456666666645,
          "durationTicks": 142,
          "midi": 42,
          "name": "F#2",
          "ticks": 2544,
          "time": 23.382328,
          "velocity": 0.889763779527559
        },
        {
          "duration": 0.6433816666666665,
          "durationTicks": 70,
          "midi": 61,
          "name": "C#4",
          "ticks": 2544,
          "time": 23.382328,
          "velocity": 0.8818897637795275
        },
        {
          "duration": 0.6433816666666665,
          "durationTicks": 70,
          "midi": 65,
          "name": "F4",
          "ticks": 2545,
          "time": 23.39151916666667,
          "velocity": 0.8661417322834646
        },
        {
          "duration": 0.6433816666666665,
          "durationTicks": 70,
          "midi": 56,
          "name": "G#3",
          "ticks": 2545,
          "time": 23.39151916666667,
          "velocity": 0.8740157480314961
        },
        {
          "duration": 0.643381666666663,
          "durationTicks": 70,
          "midi": 61,
          "name": "C#4",
          "ticks": 2616,
          "time": 24.044092000000003,
          "velocity": 0.8976377952755905
        },
        {
          "duration": 0.643381666666663,
          "durationTicks": 70,
          "midi": 65,
          "name": "F4",
          "ticks": 2616,
          "time": 24.044092000000003,
          "velocity": 0.889763779527559
        },
        {
          "duration": 0.6433816666666701,
          "durationTicks": 70,
          "midi": 56,
          "name": "G#3",
          "ticks": 2617,
          "time": 24.053283166666667,
          "velocity": 0.889763779527559
        },
        {
          "duration": 0.43198483333333115,
          "durationTicks": 47,
          "midi": 30,
          "name": "F#1",
          "ticks": 2688,
          "time": 24.705856000000004,
          "velocity": 0.8661417322834646
        },
        {
          "duration": 0.43198483333333115,
          "durationTicks": 47,
          "midi": 42,
          "name": "F#2",
          "ticks": 2688,
          "time": 24.705856000000004,
          "velocity": 0.8740157480314961
        },
        {
          "duration": 0.43198483333333115,
          "durationTicks": 47,
          "midi": 61,
          "name": "C#4",
          "ticks": 2688,
          "time": 24.705856000000004,
          "velocity": 0.8818897637795275
        },
        {
          "duration": 0.4319848333333347,
          "durationTicks": 47,
          "midi": 65,
          "name": "F4",
          "ticks": 2689,
          "time": 24.71504716666667,
          "velocity": 0.889763779527559
        },
        {
          "duration": 0.4319848333333347,
          "durationTicks": 47,
          "midi": 56,
          "name": "G#3",
          "ticks": 2689,
          "time": 24.71504716666667,
          "velocity": 0.8582677165354331
        },
        {
          "duration": 1.7555128333333307,
          "durationTicks": 191,
          "midi": 30,
          "name": "F#1",
          "ticks": 2736,
          "time": 25.147032000000003,
          "velocity": 0.8661417322834646
        },
        {
          "duration": 1.7555128333333307,
          "durationTicks": 191,
          "midi": 42,
          "name": "F#2",
          "ticks": 2736,
          "time": 25.147032000000003,
          "velocity": 0.889763779527559
        },
        {
          "duration": 1.7555128333333307,
          "durationTicks": 191,
          "midi": 53,
          "name": "F3",
          "ticks": 2736,
          "time": 25.147032000000003,
          "velocity": 0.8818897637795275
        },
        {
          "duration": 1.7463216666666668,
          "durationTicks": 190,
          "midi": 58,
          "name": "A#3",
          "ticks": 2737,
          "time": 25.156223166666667,
          "velocity": 0.8818897637795275
        },
        {
          "duration": 1.7371304999999992,
          "durationTicks": 189,
          "midi": 61,
          "name": "C#4",
          "ticks": 2737,
          "time": 25.156223166666667,
          "velocity": 0.8503937007874016
        },
        {
          "duration": 1.7555128333333343,
          "durationTicks": 191,
          "midi": 32,
          "name": "G#1",
          "ticks": 2928,
          "time": 26.911736,
          "velocity": 0.84251968503937
        },
        {
          "duration": 1.7555128333333343,
          "durationTicks": 191,
          "midi": 44,
          "name": "G#2",
          "ticks": 2928,
          "time": 26.911736,
          "velocity": 0.8503937007874016
        },
        {
          "duration": 0.6617640000000016,
          "durationTicks": 72,
          "midi": 53,
          "name": "F3",
          "ticks": 2928,
          "time": 26.911736,
          "velocity": 0.8818897637795275
        },
        {
          "duration": 0.661763999999998,
          "durationTicks": 72,
          "midi": 58,
          "name": "A#3",
          "ticks": 2929,
          "time": 26.92092716666667,
          "velocity": 0.905511811023622
        },
        {
          "duration": 0.661763999999998,
          "durationTicks": 72,
          "midi": 61,
          "name": "C#4",
          "ticks": 2929,
          "time": 26.92092716666667,
          "velocity": 0.8740157480314961
        },
        {
          "duration": 1.0845576666666652,
          "durationTicks": 118,
          "midi": 51,
          "name": "D#3",
          "ticks": 3000,
          "time": 27.573500000000003,
          "velocity": 0.8031496062992126
        },
        {
          "duration": 1.0845576666666652,
          "durationTicks": 118,
          "midi": 56,
          "name": "G#3",
          "ticks": 3000,
          "time": 27.573500000000003,
          "velocity": 0.8818897637795275
        },
        {
          "duration": 1.0845576666666688,
          "durationTicks": 118,
          "midi": 60,
          "name": "C4",
          "ticks": 3001,
          "time": 27.582691166666667,
          "velocity": 0.9212598425196851
        },
        {
          "duration": 1.0753665000000012,
          "durationTicks": 117,
          "midi": 63,
          "name": "D#4",
          "ticks": 3001,
          "time": 27.582691166666667,
          "velocity": 0.9291338582677166
        },
        {
          "duration": 3.511025666666665,
          "durationTicks": 382,
          "midi": 34,
          "name": "A#1",
          "ticks": 3120,
          "time": 28.676440000000003,
          "velocity": 0.8740157480314961
        },
        {
          "duration": 1.7555128333333307,
          "durationTicks": 191,
          "midi": 46,
          "name": "A#2",
          "ticks": 3120,
          "time": 28.676440000000003,
          "velocity": 0.8818897637795275
        },
        {
          "duration": 1.7555128333333307,
          "durationTicks": 191,
          "midi": 56,
          "name": "G#3",
          "ticks": 3120,
          "time": 28.676440000000003,
          "velocity": 0.8976377952755905
        },
        {
          "duration": 1.7463216666666668,
          "durationTicks": 190,
          "midi": 61,
          "name": "C#4",
          "ticks": 3121,
          "time": 28.685631166666667,
          "velocity": 0.8976377952755905
        },
        {
          "duration": 1.7371305000000028,
          "durationTicks": 189,
          "midi": 65,
          "name": "F4",
          "ticks": 3121,
          "time": 28.685631166666667,
          "velocity": 0.905511811023622
        },
        {
          "duration": 1.7463216666666668,
          "durationTicks": 190,
          "midi": 46,
          "name": "A#2",
          "ticks": 3312,
          "time": 30.441144,
          "velocity": 0.6141732283464567
        },
        {
          "duration": 1.5441159999999954,
          "durationTicks": 168,
          "midi": 53,
          "name": "F3",
          "ticks": 3336,
          "time": 30.661732,
          "velocity": 0.6929133858267716
        },
        {
          "duration": 1.305145666666668,
          "durationTicks": 142,
          "midi": 60,
          "name": "C4",
          "ticks": 3360,
          "time": 30.88232,
          "velocity": 0.7716535433070866
        },
        {
          "duration": 1.0845576666666688,
          "durationTicks": 118,
          "midi": 61,
          "name": "C#4",
          "ticks": 3384,
          "time": 31.102908,
          "velocity": 0.7952755905511811
        },
        {
          "duration": 0.6525728333333376,
          "durationTicks": 71,
          "midi": 56,
          "name": "G#3",
          "ticks": 3432,
          "time": 31.544083999999998,
          "velocity": 0.889763779527559
        },
        {
          "duration": 1.7555128333333414,
          "durationTicks": 191,
          "midi": 30,
          "name": "F#1",
          "ticks": 3504,
          "time": 32.205847999999996,
          "velocity": 0.8661417322834646
        },
        {
          "duration": 1.7555128333333414,
          "durationTicks": 191,
          "midi": 42,
          "name": "F#2",
          "ticks": 3504,
          "time": 32.205847999999996,
          "velocity": 0.889763779527559
        },
        {
          "duration": 1.7555128333333414,
          "durationTicks": 191,
          "midi": 65,
          "name": "F4",
          "ticks": 3504,
          "time": 32.205847999999996,
          "velocity": 0.8267716535433071
        },
        {
          "duration": 1.7463216666666668,
          "durationTicks": 190,
          "midi": 58,
          "name": "A#3",
          "ticks": 3505,
          "time": 32.21503916666667,
          "velocity": 0.8818897637795275
        },
        {
          "duration": 1.7371304999999992,
          "durationTicks": 189,
          "midi": 61,
          "name": "C#4",
          "ticks": 3505,
          "time": 32.21503916666667,
          "velocity": 0.8740157480314961
        },
        {
          "duration": 1.7555128333333343,
          "durationTicks": 191,
          "midi": 32,
          "name": "G#1",
          "ticks": 3696,
          "time": 33.970552,
          "velocity": 0.84251968503937
        },
        {
          "duration": 1.7555128333333343,
          "durationTicks": 191,
          "midi": 44,
          "name": "G#2",
          "ticks": 3696,
          "time": 33.970552,
          "velocity": 0.8503937007874016
        },
        {
          "duration": 0.6617640000000051,
          "durationTicks": 72,
          "midi": 65,
          "name": "F4",
          "ticks": 3696,
          "time": 33.970552,
          "velocity": 0.8267716535433071
        },
        {
          "duration": 0.661763999999998,
          "durationTicks": 72,
          "midi": 58,
          "name": "A#3",
          "ticks": 3697,
          "time": 33.97974316666667,
          "velocity": 0.905511811023622
        },
        {
          "duration": 0.661763999999998,
          "durationTicks": 72,
          "midi": 61,
          "name": "C#4",
          "ticks": 3697,
          "time": 33.97974316666667,
          "velocity": 0.8740157480314961
        },
        {
          "duration": 1.0845576666666688,
          "durationTicks": 118,
          "midi": 51,
          "name": "D#3",
          "ticks": 3768,
          "time": 34.632316,
          "velocity": 0.8031496062992126
        },
        {
          "duration": 1.0845576666666688,
          "durationTicks": 118,
          "midi": 56,
          "name": "G#3",
          "ticks": 3768,
          "time": 34.632316,
          "velocity": 0.8818897637795275
        },
        {
          "duration": 1.0845576666666616,
          "durationTicks": 118,
          "midi": 60,
          "name": "C4",
          "ticks": 3769,
          "time": 34.64150716666667,
          "velocity": 0.889763779527559
        },
        {
          "duration": 1.0753665000000012,
          "durationTicks": 117,
          "midi": 63,
          "name": "D#4",
          "ticks": 3769,
          "time": 34.64150716666667,
          "velocity": 0.8976377952755905
        },
        {
          "duration": 1.5165425,
          "durationTicks": 165,
          "midi": 37,
          "name": "C#2",
          "ticks": 3888,
          "time": 35.735256,
          "velocity": 0.8582677165354331
        },
        {
          "duration": 1.5165425,
          "durationTicks": 165,
          "midi": 49,
          "name": "C#3",
          "ticks": 3888,
          "time": 35.735256,
          "velocity": 0.8582677165354331
        },
        {
          "duration": 1.5073513333333324,
          "durationTicks": 164,
          "midi": 56,
          "name": "G#3",
          "ticks": 3888,
          "time": 35.735256,
          "velocity": 0.8740157480314961
        },
        {
          "duration": 1.5073513333333324,
          "durationTicks": 164,
          "midi": 60,
          "name": "C4",
          "ticks": 3888,
          "time": 35.735256,
          "velocity": 0.84251968503937
        },
        {
          "duration": 1.516542500000007,
          "durationTicks": 165,
          "midi": 63,
          "name": "D#4",
          "ticks": 3889,
          "time": 35.74444716666667,
          "velocity": 0.8346456692913385
        },
        {
          "duration": 1.5073513333333324,
          "durationTicks": 164,
          "midi": 65,
          "name": "F4",
          "ticks": 3889,
          "time": 35.74444716666667,
          "velocity": 0.8503937007874016
        },
        {
          "duration": 0.42279366666667073,
          "durationTicks": 46,
          "midi": 34,
          "name": "A#1",
          "ticks": 4056,
          "time": 37.279372,
          "velocity": 0.8582677165354331
        },
        {
          "duration": 0.42279366666667073,
          "durationTicks": 46,
          "midi": 60,
          "name": "C4",
          "ticks": 4056,
          "time": 37.279372,
          "velocity": 0.8582677165354331
        },
        {
          "duration": 0.42279366666667073,
          "durationTicks": 46,
          "midi": 63,
          "name": "D#4",
          "ticks": 4056,
          "time": 37.279372,
          "velocity": 0.84251968503937
        },
        {
          "duration": 0.4227936666666636,
          "durationTicks": 46,
          "midi": 65,
          "name": "F4",
          "ticks": 4057,
          "time": 37.28856316666667,
          "velocity": 0.8582677165354331
        },
        {
          "duration": 0.4136025000000032,
          "durationTicks": 45,
          "midi": 68,
          "name": "G#4",
          "ticks": 4057,
          "time": 37.28856316666667,
          "velocity": 0.8740157480314961
        },
        {
          "duration": 0.19301449999999676,
          "durationTicks": 21,
          "midi": 34,
          "name": "A#1",
          "ticks": 4104,
          "time": 37.720548,
          "velocity": 0.8188976377952756
        },
        {
          "duration": 0.2022056666666714,
          "durationTicks": 22,
          "midi": 60,
          "name": "C4",
          "ticks": 4104,
          "time": 37.720548,
          "velocity": 0.8740157480314961
        },
        {
          "duration": 0.19301449999999676,
          "durationTicks": 21,
          "midi": 63,
          "name": "D#4",
          "ticks": 4104,
          "time": 37.720548,
          "velocity": 0.8740157480314961
        },
        {
          "duration": 0.19301450000000386,
          "durationTicks": 21,
          "midi": 65,
          "name": "F4",
          "ticks": 4105,
          "time": 37.72973916666667,
          "velocity": 0.889763779527559
        },
        {
          "duration": 0.19301450000000386,
          "durationTicks": 21,
          "midi": 68,
          "name": "G#4",
          "ticks": 4105,
          "time": 37.72973916666667,
          "velocity": 0.8976377952755905
        },
        {
          "duration": 0.19301449999999676,
          "durationTicks": 21,
          "midi": 34,
          "name": "A#1",
          "ticks": 4128,
          "time": 37.941136,
          "velocity": 0.84251968503937
        },
        {
          "duration": 0.19301449999999676,
          "durationTicks": 21,
          "midi": 60,
          "name": "C4",
          "ticks": 4128,
          "time": 37.941136,
          "velocity": 0.84251968503937
        },
        {
          "duration": 0.18382333333333634,
          "durationTicks": 20,
          "midi": 63,
          "name": "D#4",
          "ticks": 4128,
          "time": 37.941136,
          "velocity": 0.8503937007874016
        },
        {
          "duration": 0.18382333333332923,
          "durationTicks": 20,
          "midi": 65,
          "name": "F4",
          "ticks": 4129,
          "time": 37.95032716666667,
          "velocity": 0.8976377952755905
        },
        {
          "duration": 0.18382333333332923,
          "durationTicks": 20,
          "midi": 70,
          "name": "A#4",
          "ticks": 4129,
          "time": 37.95032716666667,
          "velocity": 0.7322834645669292
        },
        {
          "duration": 0.2022056666666714,
          "durationTicks": 22,
          "midi": 34,
          "name": "A#1",
          "ticks": 4152,
          "time": 38.161724,
          "velocity": 0.8661417322834646
        },
        {
          "duration": 0.2022056666666714,
          "durationTicks": 22,
          "midi": 58,
          "name": "A#3",
          "ticks": 4152,
          "time": 38.161724,
          "velocity": 0.8582677165354331
        },
        {
          "duration": 0.19301450000000386,
          "durationTicks": 21,
          "midi": 62,
          "name": "D4",
          "ticks": 4152,
          "time": 38.161724,
          "velocity": 0.8661417322834646
        },
        {
          "duration": 0.19301449999999676,
          "durationTicks": 21,
          "midi": 65,
          "name": "F4",
          "ticks": 4153,
          "time": 38.170915166666674,
          "velocity": 0.8976377952755905
        },
        {
          "duration": 0.19301449999999676,
          "durationTicks": 21,
          "midi": 70,
          "name": "A#4",
          "ticks": 4153,
          "time": 38.170915166666674,
          "velocity": 0.905511811023622
        },
        {
          "duration": 1.305145666666668,
          "durationTicks": 142,
          "midi": 30,
          "name": "F#1",
          "ticks": 4272,
          "time": 39.264664,
          "velocity": 0.889763779527559
        },
        {
          "duration": 1.2959544999999935,
          "durationTicks": 141,
          "midi": 42,
          "name": "F#2",
          "ticks": 4272,
          "time": 39.264664,
          "velocity": 0.8582677165354331
        },
        {
          "duration": 0.6433816666666701,
          "durationTicks": 70,
          "midi": 61,
          "name": "C#4",
          "ticks": 4272,
          "time": 39.264664,
          "velocity": 0.8661417322834646
        },
        {
          "duration": 0.643381666666663,
          "durationTicks": 70,
          "midi": 65,
          "name": "F4",
          "ticks": 4273,
          "time": 39.27385516666667,
          "velocity": 0.8818897637795275
        },
        {
          "duration": 0.643381666666663,
          "durationTicks": 70,
          "midi": 56,
          "name": "G#3",
          "ticks": 4273,
          "time": 39.27385516666667,
          "velocity": 0.8582677165354331
        },
        {
          "duration": 0.6433816666666701,
          "durationTicks": 70,
          "midi": 61,
          "name": "C#4",
          "ticks": 4344,
          "time": 39.926428,
          "velocity": 0.8661417322834646
        },
        {
          "duration": 0.6341904999999954,
          "durationTicks": 69,
          "midi": 65,
          "name": "F4",
          "ticks": 4344,
          "time": 39.926428,
          "velocity": 0.8818897637795275
        },
        {
          "duration": 0.6341905000000025,
          "durationTicks": 69,
          "midi": 56,
          "name": "G#3",
          "ticks": 4345,
          "time": 39.93561916666667,
          "velocity": 0.8582677165354331
        },
        {
          "duration": 0.4136025000000032,
          "durationTicks": 45,
          "midi": 30,
          "name": "F#1",
          "ticks": 4416,
          "time": 40.588192,
          "velocity": 0.8267716535433071
        },
        {
          "duration": 0.4044113333333357,
          "durationTicks": 44,
          "midi": 42,
          "name": "F#2",
          "ticks": 4416,
          "time": 40.588192,
          "velocity": 0.8031496062992126
        },
        {
          "duration": 0.39522016666666815,
          "durationTicks": 43,
          "midi": 61,
          "name": "C#4",
          "ticks": 4416,
          "time": 40.588192,
          "velocity": 0.8661417322834646
        },
        {
          "duration": 0.39522016666666104,
          "durationTicks": 43,
          "midi": 65,
          "name": "F4",
          "ticks": 4417,
          "time": 40.597383166666674,
          "velocity": 0.8503937007874016
        },
        {
          "duration": 0.39522016666666104,
          "durationTicks": 43,
          "midi": 56,
          "name": "G#3",
          "ticks": 4417,
          "time": 40.597383166666674,
          "velocity": 0.84251968503937
        },
        {
          "duration": 1.2867633333333401,
          "durationTicks": 140,
          "midi": 32,
          "name": "G#1",
          "ticks": 4464,
          "time": 41.029368,
          "velocity": 0.889763779527559
        },
        {
          "duration": 1.2867633333333401,
          "durationTicks": 140,
          "midi": 44,
          "name": "G#2",
          "ticks": 4464,
          "time": 41.029368,
          "velocity": 0.8503937007874016
        },
        {
          "duration": 0.6433816666666701,
          "durationTicks": 70,
          "midi": 61,
          "name": "C#4",
          "ticks": 4464,
          "time": 41.029368,
          "velocity": 0.8503937007874016
        },
        {
          "duration": 0.643381666666663,
          "durationTicks": 70,
          "midi": 65,
          "name": "F4",
          "ticks": 4465,
          "time": 41.03855916666667,
          "velocity": 0.8582677165354331
        },
        {
          "duration": 0.643381666666663,
          "durationTicks": 70,
          "midi": 56,
          "name": "G#3",
          "ticks": 4465,
          "time": 41.03855916666667,
          "velocity": 0.8740157480314961
        },
        {
          "duration": 0.6433816666666701,
          "durationTicks": 70,
          "midi": 60,
          "name": "C4",
          "ticks": 4536,
          "time": 41.691132,
          "velocity": 0.8661417322834646
        },
        {
          "duration": 0.6341904999999954,
          "durationTicks": 69,
          "midi": 63,
          "name": "D#4",
          "ticks": 4536,
          "time": 41.691132,
          "velocity": 0.8661417322834646
        },
        {
          "duration": 0.643381666666663,
          "durationTicks": 70,
          "midi": 56,
          "name": "G#3",
          "ticks": 4537,
          "time": 41.70032316666667,
          "velocity": 0.8503937007874016
        },
        {
          "duration": 0.4136024999999961,
          "durationTicks": 45,
          "midi": 32,
          "name": "G#1",
          "ticks": 4608,
          "time": 42.352896,
          "velocity": 0.8346456692913385
        },
        {
          "duration": 0.4044113333333357,
          "durationTicks": 44,
          "midi": 44,
          "name": "G#2",
          "ticks": 4608,
          "time": 42.352896,
          "velocity": 0.8188976377952756
        },
        {
          "duration": 0.4044113333333357,
          "durationTicks": 44,
          "midi": 60,
          "name": "C4",
          "ticks": 4608,
          "time": 42.352896,
          "velocity": 0.8582677165354331
        },
        {
          "duration": 0.4136025000000032,
          "durationTicks": 45,
          "midi": 63,
          "name": "D#4",
          "ticks": 4609,
          "time": 42.36208716666667,
          "velocity": 0.8503937007874016
        },
        {
          "duration": 0.4136025000000032,
          "durationTicks": 45,
          "midi": 56,
          "name": "G#3",
          "ticks": 4609,
          "time": 42.36208716666667,
          "velocity": 0.8267716535433071
        },
        {
          "duration": 1.305145666666668,
          "durationTicks": 142,
          "midi": 34,
          "name": "A#1",
          "ticks": 4656,
          "time": 42.794072,
          "velocity": 0.889763779527559
        },
        {
          "duration": 1.2959545000000006,
          "durationTicks": 141,
          "midi": 46,
          "name": "A#2",
          "ticks": 4656,
          "time": 42.794072,
          "velocity": 0.8582677165354331
        },
        {
          "duration": 0.6433816666666701,
          "durationTicks": 70,
          "midi": 60,
          "name": "C4",
          "ticks": 4656,
          "time": 42.794072,
          "velocity": 0.8661417322834646
        },
        {
          "duration": 0.6433816666666701,
          "durationTicks": 70,
          "midi": 65,
          "name": "F4",
          "ticks": 4657,
          "time": 42.80326316666667,
          "velocity": 0.8818897637795275
        },
        {
          "duration": 0.6433816666666701,
          "durationTicks": 70,
          "midi": 68,
          "name": "G#4",
          "ticks": 4657,
          "time": 42.80326316666667,
          "velocity": 0.8582677165354331
        },
        {
          "duration": 0.6433816666666701,
          "durationTicks": 70,
          "midi": 60,
          "name": "C4",
          "ticks": 4728,
          "time": 43.455836,
          "velocity": 0.8661417322834646
        },
        {
          "duration": 0.6341905000000025,
          "durationTicks": 69,
          "midi": 63,
          "name": "D#4",
          "ticks": 4728,
          "time": 43.455836,
          "velocity": 0.8818897637795275
        },
        {
          "duration": 0.6341904999999954,
          "durationTicks": 69,
          "midi": 68,
          "name": "G#4",
          "ticks": 4729,
          "time": 43.46502716666667,
          "velocity": 0.8582677165354331
        },
        {
          "duration": 0.4136024999999961,
          "durationTicks": 45,
          "midi": 34,
          "name": "A#1",
          "ticks": 4800,
          "time": 44.1176,
          "velocity": 0.8582677165354331
        },
        {
          "duration": 0.4044113333333357,
          "durationTicks": 44,
          "midi": 46,
          "name": "A#2",
          "ticks": 4800,
          "time": 44.1176,
          "velocity": 0.8346456692913385
        },
        {
          "duration": 0.39522016666666815,
          "durationTicks": 43,
          "midi": 60,
          "name": "C4",
          "ticks": 4800,
          "time": 44.1176,
          "velocity": 0.8661417322834646
        },
        {
          "duration": 0.39522016666666815,
          "durationTicks": 43,
          "midi": 65,
          "name": "F4",
          "ticks": 4801,
          "time": 44.12679116666667,
          "velocity": 0.8503937007874016
        },
        {
          "duration": 0.39522016666666815,
          "durationTicks": 43,
          "midi": 68,
          "name": "G#4",
          "ticks": 4801,
          "time": 44.12679116666667,
          "velocity": 0.84251968503937
        },
        {
          "duration": 1.7371304999999992,
          "durationTicks": 189,
          "midi": 49,
          "name": "C#3",
          "ticks": 4848,
          "time": 44.558776,
          "velocity": 0.889763779527559
        },
        {
          "duration": 1.7371304999999992,
          "durationTicks": 189,
          "midi": 37,
          "name": "C#2",
          "ticks": 4848,
          "time": 44.558776,
          "velocity": 0.8503937007874016
        },
        {
          "duration": 0.6433816666666701,
          "durationTicks": 70,
          "midi": 60,
          "name": "C4",
          "ticks": 4848,
          "time": 44.558776,
          "velocity": 0.8503937007874016
        },
        {
          "duration": 0.643381666666663,
          "durationTicks": 70,
          "midi": 63,
          "name": "D#4",
          "ticks": 4849,
          "time": 44.56796716666667,
          "velocity": 0.8582677165354331
        },
        {
          "duration": 0.643381666666663,
          "durationTicks": 70,
          "midi": 56,
          "name": "G#3",
          "ticks": 4849,
          "time": 44.56796716666667,
          "velocity": 0.8740157480314961
        },
        {
          "duration": 0.42279366666667073,
          "durationTicks": 46,
          "midi": 60,
          "name": "C4",
          "ticks": 4920,
          "time": 45.22054,
          "velocity": 0.8818897637795275
        },
        {
          "duration": 0.4136025000000032,
          "durationTicks": 45,
          "midi": 65,
          "name": "F4",
          "ticks": 4920,
          "time": 45.22054,
          "velocity": 0.8818897637795275
        },
        {
          "duration": 0.4136024999999961,
          "durationTicks": 45,
          "midi": 56,
          "name": "G#3",
          "ticks": 4921,
          "time": 45.229731166666674,
          "velocity": 0.8740157480314961
        },
        {
          "duration": 0.624999333333335,
          "durationTicks": 68,
          "midi": 60,
          "name": "C4",
          "ticks": 4968,
          "time": 45.661716,
          "velocity": 0.8582677165354331
        },
        {
          "duration": 0.6249993333333279,
          "durationTicks": 68,
          "midi": 65,
          "name": "F4",
          "ticks": 4969,
          "time": 45.67090716666667,
          "velocity": 0.8503937007874016
        },
        {
          "duration": 0.6249993333333279,
          "durationTicks": 68,
          "midi": 56,
          "name": "G#3",
          "ticks": 4969,
          "time": 45.67090716666667,
          "velocity": 0.8267716535433071
        },
        {
          "duration": 1.305145666666668,
          "durationTicks": 142,
          "midi": 30,
          "name": "F#1",
          "ticks": 5040,
          "time": 46.32348,
          "velocity": 0.889763779527559
        },
        {
          "duration": 1.2959544999999935,
          "durationTicks": 141,
          "midi": 42,
          "name": "F#2",
          "ticks": 5040,
          "time": 46.32348,
          "velocity": 0.8582677165354331
        },
        {
          "duration": 0.6433816666666701,
          "durationTicks": 70,
          "midi": 61,
          "name": "C#4",
          "ticks": 5040,
          "time": 46.32348,
          "velocity": 0.8661417322834646
        },
        {
          "duration": 0.643381666666663,
          "durationTicks": 70,
          "midi": 65,
          "name": "F4",
          "ticks": 5041,
          "time": 46.33267116666667,
          "velocity": 0.8818897637795275
        },
        {
          "duration": 0.643381666666663,
          "durationTicks": 70,
          "midi": 58,
          "name": "A#3",
          "ticks": 5041,
          "time": 46.33267116666667,
          "velocity": 0.8582677165354331
        },
        {
          "duration": 0.22058799999999934,
          "durationTicks": 24,
          "midi": 54,
          "name": "F#3",
          "ticks": 5088,
          "time": 46.764656,
          "velocity": 0.8582677165354331
        },
        {
          "duration": 0.6433816666666701,
          "durationTicks": 70,
          "midi": 61,
          "name": "C#4",
          "ticks": 5112,
          "time": 46.985244,
          "velocity": 0.9133858267716536
        },
        {
          "duration": 0.6341904999999954,
          "durationTicks": 69,
          "midi": 65,
          "name": "F4",
          "ticks": 5112,
          "time": 46.985244,
          "velocity": 0.8818897637795275
        },
        {
          "duration": 0.43198483333333115,
          "durationTicks": 47,
          "midi": 58,
          "name": "A#3",
          "ticks": 5113,
          "time": 46.99443516666667,
          "velocity": 0.7637795275590551
        },
        {
          "duration": 0.43198483333333826,
          "durationTicks": 47,
          "midi": 54,
          "name": "F#3",
          "ticks": 5136,
          "time": 47.205832,
          "velocity": 0.8346456692913385
        },
        {
          "duration": 0.22058799999999934,
          "durationTicks": 24,
          "midi": 58,
          "name": "A#3",
          "ticks": 5160,
          "time": 47.42642,
          "velocity": 0.8582677165354331
        },
        {
          "duration": 0.4136025000000032,
          "durationTicks": 45,
          "midi": 30,
          "name": "F#1",
          "ticks": 5184,
          "time": 47.647008,
          "velocity": 0.8267716535433071
        },
        {
          "duration": 0.4044113333333357,
          "durationTicks": 44,
          "midi": 42,
          "name": "F#2",
          "ticks": 5184,
          "time": 47.647008,
          "velocity": 0.8031496062992126
        },
        {
          "duration": 0.39522016666666815,
          "durationTicks": 43,
          "midi": 61,
          "name": "C#4",
          "ticks": 5184,
          "time": 47.647008,
          "velocity": 0.8661417322834646
        },
        {
          "duration": 0.39522016666666104,
          "durationTicks": 43,
          "midi": 65,
          "name": "F4",
          "ticks": 5185,
          "time": 47.656199166666674,
          "velocity": 0.8503937007874016
        },
        {
          "duration": 0.39522016666666104,
          "durationTicks": 43,
          "midi": 58,
          "name": "A#3",
          "ticks": 5185,
          "time": 47.656199166666674,
          "velocity": 0.84251968503937
        },
        {
          "duration": 1.2867633333333401,
          "durationTicks": 140,
          "midi": 32,
          "name": "G#1",
          "ticks": 5232,
          "time": 48.088184,
          "velocity": 0.889763779527559
        },
        {
          "duration": 1.2867633333333401,
          "durationTicks": 140,
          "midi": 44,
          "name": "G#2",
          "ticks": 5232,
          "time": 48.088184,
          "velocity": 0.8503937007874016
        },
        {
          "duration": 0.6433816666666701,
          "durationTicks": 70,
          "midi": 61,
          "name": "C#4",
          "ticks": 5232,
          "time": 48.088184,
          "velocity": 0.8503937007874016
        },
        {
          "duration": 0.643381666666663,
          "durationTicks": 70,
          "midi": 65,
          "name": "F4",
          "ticks": 5233,
          "time": 48.09737516666667,
          "velocity": 0.8582677165354331
        },
        {
          "duration": 0.643381666666663,
          "durationTicks": 70,
          "midi": 56,
          "name": "G#3",
          "ticks": 5233,
          "time": 48.09737516666667,
          "velocity": 0.8740157480314961
        },
        {
          "duration": 0.6433816666666701,
          "durationTicks": 70,
          "midi": 60,
          "name": "C4",
          "ticks": 5304,
          "time": 48.749948,
          "velocity": 0.8661417322834646
        },
        {
          "duration": 0.6341904999999954,
          "durationTicks": 69,
          "midi": 63,
          "name": "D#4",
          "ticks": 5304,
          "time": 48.749948,
          "velocity": 0.8661417322834646
        },
        {
          "duration": 0.643381666666663,
          "durationTicks": 70,
          "midi": 56,
          "name": "G#3",
          "ticks": 5305,
          "time": 48.75913916666667,
          "velocity": 0.8503937007874016
        },
        {
          "duration": 0.4136024999999961,
          "durationTicks": 45,
          "midi": 32,
          "name": "G#1",
          "ticks": 5376,
          "time": 49.411712,
          "velocity": 0.8346456692913385
        },
        {
          "duration": 0.4044113333333357,
          "durationTicks": 44,
          "midi": 44,
          "name": "G#2",
          "ticks": 5376,
          "time": 49.411712,
          "velocity": 0.8188976377952756
        },
        {
          "duration": 0.4044113333333357,
          "durationTicks": 44,
          "midi": 60,
          "name": "C4",
          "ticks": 5376,
          "time": 49.411712,
          "velocity": 0.8582677165354331
        },
        {
          "duration": 0.4136025000000032,
          "durationTicks": 45,
          "midi": 63,
          "name": "D#4",
          "ticks": 5377,
          "time": 49.42090316666667,
          "velocity": 0.8503937007874016
        },
        {
          "duration": 0.4136025000000032,
          "durationTicks": 45,
          "midi": 56,
          "name": "G#3",
          "ticks": 5377,
          "time": 49.42090316666667,
          "velocity": 0.8267716535433071
        },
        {
          "duration": 1.305145666666668,
          "durationTicks": 142,
          "midi": 34,
          "name": "A#1",
          "ticks": 5424,
          "time": 49.852888,
          "velocity": 0.889763779527559
        },
        {
          "duration": 1.2959545000000006,
          "durationTicks": 141,
          "midi": 46,
          "name": "A#2",
          "ticks": 5424,
          "time": 49.852888,
          "velocity": 0.8582677165354331
        },
        {
          "duration": 0.6433816666666701,
          "durationTicks": 70,
          "midi": 60,
          "name": "C4",
          "ticks": 5424,
          "time": 49.852888,
          "velocity": 0.8661417322834646
        },
        {
          "duration": 0.6433816666666701,
          "durationTicks": 70,
          "midi": 65,
          "name": "F4",
          "ticks": 5425,
          "time": 49.86207916666667,
          "velocity": 0.8818897637795275
        },
        {
          "duration": 0.6433816666666701,
          "durationTicks": 70,
          "midi": 68,
          "name": "G#4",
          "ticks": 5425,
          "time": 49.86207916666667,
          "velocity": 0.8582677165354331
        },
        {
          "duration": 0.6433816666666701,
          "durationTicks": 70,
          "midi": 60,
          "name": "C4",
          "ticks": 5496,
          "time": 50.514652,
          "velocity": 0.8661417322834646
        },
        {
          "duration": 0.6341905000000025,
          "durationTicks": 69,
          "midi": 63,
          "name": "D#4",
          "ticks": 5496,
          "time": 50.514652,
          "velocity": 0.8818897637795275
        },
        {
          "duration": 0.6341904999999954,
          "durationTicks": 69,
          "midi": 68,
          "name": "G#4",
          "ticks": 5497,
          "time": 50.52384316666667,
          "velocity": 0.8582677165354331
        },
        {
          "duration": 0.4136024999999961,
          "durationTicks": 45,
          "midi": 34,
          "name": "A#1",
          "ticks": 5568,
          "time": 51.176416,
          "velocity": 0.8582677165354331
        },
        {
          "duration": 0.4044113333333357,
          "durationTicks": 44,
          "midi": 46,
          "name": "A#2",
          "ticks": 5568,
          "time": 51.176416,
          "velocity": 0.8346456692913385
        },
        {
          "duration": 0.39522016666666815,
          "durationTicks": 43,
          "midi": 60,
          "name": "C4",
          "ticks": 5568,
          "time": 51.176416,
          "velocity": 0.8661417322834646
        },
        {
          "duration": 0.39522016666666815,
          "durationTicks": 43,
          "midi": 65,
          "name": "F4",
          "ticks": 5569,
          "time": 51.18560716666667,
          "velocity": 0.8503937007874016
        },
        {
          "duration": 0.39522016666666815,
          "durationTicks": 43,
          "midi": 68,
          "name": "G#4",
          "ticks": 5569,
          "time": 51.18560716666667,
          "velocity": 0.84251968503937
        },
        {
          "duration": 1.7371304999999992,
          "durationTicks": 189,
          "midi": 49,
          "name": "C#3",
          "ticks": 5616,
          "time": 51.617592,
          "velocity": 0.889763779527559
        },
        {
          "duration": 1.7371304999999992,
          "durationTicks": 189,
          "midi": 37,
          "name": "C#2",
          "ticks": 5616,
          "time": 51.617592,
          "velocity": 0.8503937007874016
        },
        {
          "duration": 0.6433816666666701,
          "durationTicks": 70,
          "midi": 60,
          "name": "C4",
          "ticks": 5616,
          "time": 51.617592,
          "velocity": 0.8503937007874016
        },
        {
          "duration": 0.643381666666663,
          "durationTicks": 70,
          "midi": 63,
          "name": "D#4",
          "ticks": 5617,
          "time": 51.62678316666667,
          "velocity": 0.8582677165354331
        },
        {
          "duration": 0.643381666666663,
          "durationTicks": 70,
          "midi": 56,
          "name": "G#3",
          "ticks": 5617,
          "time": 51.62678316666667,
          "velocity": 0.8740157480314961
        },
        {
          "duration": 0.42279366666667073,
          "durationTicks": 46,
          "midi": 60,
          "name": "C4",
          "ticks": 5688,
          "time": 52.279356,
          "velocity": 0.8818897637795275
        },
        {
          "duration": 0.4136025000000032,
          "durationTicks": 45,
          "midi": 65,
          "name": "F4",
          "ticks": 5688,
          "time": 52.279356,
          "velocity": 0.8818897637795275
        },
        {
          "duration": 0.4136024999999961,
          "durationTicks": 45,
          "midi": 56,
          "name": "G#3",
          "ticks": 5689,
          "time": 52.288547166666675,
          "velocity": 0.8740157480314961
        },
        {
          "duration": 0.624999333333335,
          "durationTicks": 68,
          "midi": 60,
          "name": "C4",
          "ticks": 5736,
          "time": 52.720532,
          "velocity": 0.8582677165354331
        },
        {
          "duration": 0.6249993333333279,
          "durationTicks": 68,
          "midi": 65,
          "name": "F4",
          "ticks": 5737,
          "time": 52.72972316666667,
          "velocity": 0.8503937007874016
        },
        {
          "duration": 0.6249993333333279,
          "durationTicks": 68,
          "midi": 56,
          "name": "G#3",
          "ticks": 5737,
          "time": 52.72972316666667,
          "velocity": 0.8267716535433071
        },
        {
          "duration": 0.19301449999999676,
          "durationTicks": 21,
          "midi": 82,
          "name": "A#5",
          "ticks": 5808,
          "time": 53.382296000000004,
          "velocity": 0.8110236220472441
        },
        {
          "duration": 0.18382333333332923,
          "durationTicks": 20,
          "midi": 94,
          "name": "A#6",
          "ticks": 5808,
          "time": 53.382296000000004,
          "velocity": 0.8110236220472441
        },
        {
          "duration": 0.19301449999999676,
          "durationTicks": 21,
          "midi": 77,
          "name": "F5",
          "ticks": 5832,
          "time": 53.602884,
          "velocity": 0.7401574803149606
        },
        {
          "duration": 0.18382333333332923,
          "durationTicks": 20,
          "midi": 89,
          "name": "F6",
          "ticks": 5832,
          "time": 53.602884,
          "velocity": 0.7401574803149606
        },
        {
          "duration": 0.19301449999999676,
          "durationTicks": 21,
          "midi": 85,
          "name": "C#6",
          "ticks": 5856,
          "time": 53.823472,
          "velocity": 0.8267716535433071
        },
        {
          "duration": 0.19301449999999676,
          "durationTicks": 21,
          "midi": 97,
          "name": "C#7",
          "ticks": 5856,
          "time": 53.823472,
          "velocity": 0.8267716535433071
        },
        {
          "duration": 0.18382333333333634,
          "durationTicks": 20,
          "midi": 84,
          "name": "C6",
          "ticks": 5880,
          "time": 54.04406,
          "velocity": 0.8110236220472441
        },
        {
          "duration": 0.18382333333332923,
          "durationTicks": 20,
          "midi": 96,
          "name": "C7",
          "ticks": 5881,
          "time": 54.05325116666667,
          "velocity": 0.8110236220472441
        },
        {
          "duration": 0.18382333333333634,
          "durationTicks": 20,
          "midi": 80,
          "name": "G#5",
          "ticks": 5904,
          "time": 54.264648,
          "velocity": 0.8346456692913385
        },
        {
          "duration": 0.19301449999999676,
          "durationTicks": 21,
          "midi": 92,
          "name": "G#6",
          "ticks": 5904,
          "time": 54.264648,
          "velocity": 0.8267716535433071
        },
        {
          "duration": 0.19301449999999676,
          "durationTicks": 21,
          "midi": 75,
          "name": "D#5",
          "ticks": 5928,
          "time": 54.485236,
          "velocity": 0.8267716535433071
        },
        {
          "duration": 0.18382333333332923,
          "durationTicks": 20,
          "midi": 87,
          "name": "D#6",
          "ticks": 5929,
          "time": 54.49442716666667,
          "velocity": 0.8346456692913385
        },
        {
          "duration": 0.19301450000000386,
          "durationTicks": 21,
          "midi": 72,
          "name": "C5",
          "ticks": 5952,
          "time": 54.705824,
          "velocity": 0.8110236220472441
        },
        {
          "duration": 0.18382333333333634,
          "durationTicks": 20,
          "midi": 84,
          "name": "C6",
          "ticks": 5952,
          "time": 54.705824,
          "velocity": 0.8110236220472441
        },
        {
          "duration": 0.19301450000000386,
          "durationTicks": 21,
          "midi": 78,
          "name": "F#5",
          "ticks": 5976,
          "time": 54.926412,
          "velocity": 0.7874015748031497
        },
        {
          "duration": 0.1746321666666617,
          "durationTicks": 19,
          "midi": 90,
          "name": "F#6",
          "ticks": 5977,
          "time": 54.935603166666674,
          "velocity": 0.7952755905511811
        },
        {
          "duration": 0.19301450000000386,
          "durationTicks": 21,
          "midi": 73,
          "name": "C#5",
          "ticks": 6000,
          "time": 55.147,
          "velocity": 0.7952755905511811
        },
        {
          "duration": 0.18382333333333634,
          "durationTicks": 20,
          "midi": 85,
          "name": "C#6",
          "ticks": 6000,
          "time": 55.147,
          "velocity": 0.7874015748031497
        },
        {
          "duration": 0.19301450000000386,
          "durationTicks": 21,
          "midi": 70,
          "name": "A#4",
          "ticks": 6024,
          "time": 55.367588,
          "velocity": 0.8110236220472441
        },
        {
          "duration": 0.19301450000000386,
          "durationTicks": 21,
          "midi": 82,
          "name": "A#5",
          "ticks": 6024,
          "time": 55.367588,
          "velocity": 0.8110236220472441
        },
        {
          "duration": 0.18382333333333634,
          "durationTicks": 20,
          "midi": 82,
          "name": "A#5",
          "ticks": 6048,
          "time": 55.588176,
          "velocity": 0.8267716535433071
        },
        {
          "duration": 0.18382333333332923,
          "durationTicks": 20,
          "midi": 94,
          "name": "A#6",
          "ticks": 6049,
          "time": 55.59736716666667,
          "velocity": 0.8267716535433071
        },
        {
          "duration": 0.18382333333332923,
          "durationTicks": 20,
          "midi": 80,
          "name": "G#5",
          "ticks": 6072,
          "time": 55.808764000000004,
          "velocity": 0.8110236220472441
        },
        {
          "duration": 0.19301449999999676,
          "durationTicks": 21,
          "midi": 92,
          "name": "G#6",
          "ticks": 6072,
          "time": 55.808764000000004,
          "velocity": 0.8110236220472441
        },
        {
          "duration": 0.19301449999999676,
          "durationTicks": 21,
          "midi": 75,
          "name": "D#5",
          "ticks": 6096,
          "time": 56.029352,
          "velocity": 0.7795275590551181
        },
        {
          "duration": 0.18382333333333634,
          "durationTicks": 20,
          "midi": 87,
          "name": "D#6",
          "ticks": 6096,
          "time": 56.029352,
          "velocity": 0.7874015748031497
        },
        {
          "duration": 0.18382333333333634,
          "durationTicks": 20,
          "midi": 72,
          "name": "C5",
          "ticks": 6120,
          "time": 56.24994,
          "velocity": 0.7952755905511811
        },
        {
          "duration": 0.18382333333332923,
          "durationTicks": 20,
          "midi": 84,
          "name": "C6",
          "ticks": 6121,
          "time": 56.25913116666667,
          "velocity": 0.8031496062992126
        },
        {
          "duration": 0.18382333333333634,
          "durationTicks": 20,
          "midi": 68,
          "name": "G#4",
          "ticks": 6144,
          "time": 56.470528,
          "velocity": 0.8110236220472441
        },
        {
          "duration": 0.18382333333333634,
          "durationTicks": 20,
          "midi": 80,
          "name": "G#5",
          "ticks": 6144,
          "time": 56.470528,
          "velocity": 0.8110236220472441
        },
        {
          "duration": 0.19301449999999676,
          "durationTicks": 21,
          "midi": 80,
          "name": "G#5",
          "ticks": 6168,
          "time": 56.691116,
          "velocity": 0.8346456692913385
        },
        {
          "duration": 0.18382333333332923,
          "durationTicks": 20,
          "midi": 92,
          "name": "G#6",
          "ticks": 6169,
          "time": 56.70030716666667,
          "velocity": 0.8346456692913385
        },
        {
          "duration": 0.18382333333333634,
          "durationTicks": 20,
          "midi": 78,
          "name": "F#5",
          "ticks": 6192,
          "time": 56.911704,
          "velocity": 0.7952755905511811
        },
        {
          "duration": 0.18382333333333634,
          "durationTicks": 20,
          "midi": 90,
          "name": "F#6",
          "ticks": 6192,
          "time": 56.911704,
          "velocity": 0.7874015748031497
        },
        {
          "duration": 0.19301450000000386,
          "durationTicks": 21,
          "midi": 77,
          "name": "F5",
          "ticks": 6216,
          "time": 57.132292,
          "velocity": 0.5590551181102362
        },
        {
          "duration": 0.1746321666666617,
          "durationTicks": 19,
          "midi": 89,
          "name": "F6",
          "ticks": 6217,
          "time": 57.141483166666674,
          "velocity": 0.5748031496062992
        },
        {
          "duration": 0.18382333333333634,
          "durationTicks": 20,
          "midi": 73,
          "name": "C#5",
          "ticks": 6240,
          "time": 57.35288,
          "velocity": 0.8346456692913385
        },
        {
          "duration": 0.18382333333333634,
          "durationTicks": 20,
          "midi": 85,
          "name": "C#6",
          "ticks": 6240,
          "time": 57.35288,
          "velocity": 0.8346456692913385
        },
        {
          "duration": 0.19301450000000386,
          "durationTicks": 21,
          "midi": 80,
          "name": "G#5",
          "ticks": 6264,
          "time": 57.573468,
          "velocity": 0.8110236220472441
        },
        {
          "duration": 0.1746321666666617,
          "durationTicks": 19,
          "midi": 92,
          "name": "G#6",
          "ticks": 6265,
          "time": 57.58265916666667,
          "velocity": 0.8110236220472441
        },
        {
          "duration": 0.18382333333333634,
          "durationTicks": 20,
          "midi": 75,
          "name": "D#5",
          "ticks": 6288,
          "time": 57.794056,
          "velocity": 0.8110236220472441
        },
        {
          "duration": 0.19301450000000386,
          "durationTicks": 21,
          "midi": 87,
          "name": "D#6",
          "ticks": 6288,
          "time": 57.794056,
          "velocity": 0.8110236220472441
        },
        {
          "duration": 0.18382333333333634,
          "durationTicks": 20,
          "midi": 72,
          "name": "C5",
          "ticks": 6312,
          "time": 58.014644,
          "velocity": 0.7874015748031497
        },
        {
          "duration": 0.19301450000000386,
          "durationTicks": 21,
          "midi": 84,
          "name": "C6",
          "ticks": 6312,
          "time": 58.014644,
          "velocity": 0.7952755905511811
        },
        {
          "duration": 0.18382333333332923,
          "durationTicks": 20,
          "midi": 80,
          "name": "G#5",
          "ticks": 6336,
          "time": 58.235232,
          "velocity": 0.8346456692913385
        },
        {
          "duration": 0.18382333333334344,
          "durationTicks": 20,
          "midi": 92,
          "name": "G#6",
          "ticks": 6337,
          "time": 58.244423166666664,
          "velocity": 0.8346456692913385
        },
        {
          "duration": 1.5349248333333279,
          "durationTicks": 167,
          "midi": 82,
          "name": "A#5",
          "ticks": 6360,
          "time": 58.45582000000001,
          "velocity": 0.84251968503937
        },
        {
          "duration": 1.5349248333333279,
          "durationTicks": 167,
          "midi": 94,
          "name": "A#6",
          "ticks": 6360,
          "time": 58.45582000000001,
          "velocity": 0.84251968503937
        },
        {
          "duration": 0.8639696666666623,
          "durationTicks": 94,
          "midi": 30,
          "name": "F#1",
          "ticks": 6576,
          "time": 60.441112000000004,
          "velocity": 0.9133858267716536
        },
        {
          "duration": 0.8639696666666623,
          "durationTicks": 94,
          "midi": 42,
          "name": "F#2",
          "ticks": 6576,
          "time": 60.441112000000004,
          "velocity": 0.8818897637795275
        },
        {
          "duration": 0.4411760000000058,
          "durationTicks": 48,
          "midi": 61,
          "name": "C#4",
          "ticks": 6576,
          "time": 60.441112000000004,
          "velocity": 0.889763779527559
        },
        {
          "duration": 0.43198483333334536,
          "durationTicks": 47,
          "midi": 65,
          "name": "F4",
          "ticks": 6577,
          "time": 60.450303166666664,
          "velocity": 0.905511811023622
        },
        {
          "duration": 0.43198483333334536,
          "durationTicks": 47,
          "midi": 68,
          "name": "G#4",
          "ticks": 6577,
          "time": 60.450303166666664,
          "velocity": 0.8818897637795275
        },
        {
          "duration": 0.4411759999999987,
          "durationTicks": 48,
          "midi": 61,
          "name": "C#4",
          "ticks": 6624,
          "time": 60.88228800000001,
          "velocity": 0.889763779527559
        },
        {
          "duration": 0.4411759999999987,
          "durationTicks": 48,
          "midi": 65,
          "name": "F4",
          "ticks": 6624,
          "time": 60.88228800000001,
          "velocity": 0.889763779527559
        },
        {
          "duration": 0.43198483333334536,
          "durationTicks": 47,
          "midi": 68,
          "name": "G#4",
          "ticks": 6625,
          "time": 60.89147916666666,
          "velocity": 0.8582677165354331
        },
        {
          "duration": 0.8731608333333298,
          "durationTicks": 95,
          "midi": 30,
          "name": "F#1",
          "ticks": 6672,
          "time": 61.32346400000001,
          "velocity": 0.8503937007874016
        },
        {
          "duration": 0.8547785000000019,
          "durationTicks": 93,
          "midi": 42,
          "name": "F#2",
          "ticks": 6673,
          "time": 61.33265516666666,
          "velocity": 0.8267716535433071
        },
        {
          "duration": 0.4411759999999987,
          "durationTicks": 48,
          "midi": 61,
          "name": "C#4",
          "ticks": 6696,
          "time": 61.54405200000001,
          "velocity": 0.905511811023622
        },
        {
          "duration": 0.4411759999999987,
          "durationTicks": 48,
          "midi": 65,
          "name": "F4",
          "ticks": 6696,
          "time": 61.54405200000001,
          "velocity": 0.8582677165354331
        },
        {
          "duration": 0.43198483333333826,
          "durationTicks": 47,
          "midi": 68,
          "name": "G#4",
          "ticks": 6697,
          "time": 61.55324316666667,
          "velocity": 0.8740157480314961
        },
        {
          "duration": 0.22058799999999934,
          "durationTicks": 24,
          "midi": 61,
          "name": "C#4",
          "ticks": 6744,
          "time": 61.985228000000006,
          "velocity": 0.905511811023622
        },
        {
          "duration": 0.22058799999999934,
          "durationTicks": 24,
          "midi": 65,
          "name": "F4",
          "ticks": 6744,
          "time": 61.985228000000006,
          "velocity": 0.8740157480314961
        },
        {
          "duration": 0.21139683333333892,
          "durationTicks": 23,
          "midi": 68,
          "name": "G#4",
          "ticks": 6745,
          "time": 61.99441916666667,
          "velocity": 0.8503937007874016
        },
        {
          "duration": 0.8731608333333298,
          "durationTicks": 95,
          "midi": 32,
          "name": "G#1",
          "ticks": 6768,
          "time": 62.205816000000006,
          "velocity": 0.9133858267716536
        },
        {
          "duration": 0.8731608333333298,
          "durationTicks": 95,
          "midi": 44,
          "name": "G#2",
          "ticks": 6768,
          "time": 62.205816000000006,
          "velocity": 0.8818897637795275
        },
        {
          "duration": 0.8731608333333298,
          "durationTicks": 95,
          "midi": 61,
          "name": "C#4",
          "ticks": 6768,
          "time": 62.205816000000006,
          "velocity": 0.905511811023622
        },
        {
          "duration": 0.873160833333344,
          "durationTicks": 95,
          "midi": 68,
          "name": "G#4",
          "ticks": 6769,
          "time": 62.215007166666666,
          "velocity": 0.889763779527559
        },
        {
          "duration": 0.6617640000000051,
          "durationTicks": 72,
          "midi": 65,
          "name": "F4",
          "ticks": 6792,
          "time": 62.426404000000005,
          "velocity": 0.8661417322834646
        },
        {
          "duration": 0.22058799999999934,
          "durationTicks": 24,
          "midi": 72,
          "name": "C5",
          "ticks": 6816,
          "time": 62.646992000000004,
          "velocity": 0.9133858267716536
        },
        {
          "duration": 0.21139683333333892,
          "durationTicks": 23,
          "midi": 84,
          "name": "C6",
          "ticks": 6817,
          "time": 62.656183166666665,
          "velocity": 0.9133858267716536
        },
        {
          "duration": 0.4411760000000058,
          "durationTicks": 48,
          "midi": 73,
          "name": "C#5",
          "ticks": 6840,
          "time": 62.867580000000004,
          "velocity": 0.8740157480314961
        },
        {
          "duration": 0.43198483333334536,
          "durationTicks": 47,
          "midi": 85,
          "name": "C#6",
          "ticks": 6841,
          "time": 62.876771166666664,
          "velocity": 0.905511811023622
        },
        {
          "duration": 0.8731608333333227,
          "durationTicks": 95,
          "midi": 32,
          "name": "G#1",
          "ticks": 6864,
          "time": 63.08816800000001,
          "velocity": 0.8740157480314961
        },
        {
          "duration": 0.8272049999999993,
          "durationTicks": 90,
          "midi": 44,
          "name": "G#2",
          "ticks": 6865,
          "time": 63.097359166666664,
          "velocity": 0.889763779527559
        },
        {
          "duration": 0.6525728333333447,
          "durationTicks": 71,
          "midi": 68,
          "name": "G#4",
          "ticks": 6865,
          "time": 63.097359166666664,
          "velocity": 0.8661417322834646
        },
        {
          "duration": 0.8272049999999993,
          "durationTicks": 90,
          "midi": 63,
          "name": "D#4",
          "ticks": 6866,
          "time": 63.10655033333334,
          "velocity": 0.8503937007874016
        },
        {
          "duration": 0.22058799999999934,
          "durationTicks": 24,
          "midi": 72,
          "name": "C5",
          "ticks": 6888,
          "time": 63.30875600000001,
          "velocity": 0.889763779527559
        },
        {
          "duration": 0.21139683333334602,
          "durationTicks": 23,
          "midi": 84,
          "name": "C6",
          "ticks": 6889,
          "time": 63.31794716666666,
          "velocity": 0.8818897637795275
        },
        {
          "duration": 0.21139683333334602,
          "durationTicks": 23,
          "midi": 80,
          "name": "G#5",
          "ticks": 6913,
          "time": 63.53853516666666,
          "velocity": 0.9133858267716536
        },
        {
          "duration": 0.22058799999999934,
          "durationTicks": 24,
          "midi": 72,
          "name": "C5",
          "ticks": 6936,
          "time": 63.74993200000001,
          "velocity": 0.889763779527559
        },
        {
          "duration": 0.21139683333333892,
          "durationTicks": 23,
          "midi": 84,
          "name": "C6",
          "ticks": 6937,
          "time": 63.75912316666667,
          "velocity": 0.8818897637795275
        },
        {
          "duration": 0.8731608333333298,
          "durationTicks": 95,
          "midi": 37,
          "name": "C#2",
          "ticks": 6960,
          "time": 63.97052000000001,
          "velocity": 0.9133858267716536
        },
        {
          "duration": 0.8731608333333298,
          "durationTicks": 95,
          "midi": 49,
          "name": "C#3",
          "ticks": 6960,
          "time": 63.97052000000001,
          "velocity": 0.8818897637795275
        },
        {
          "duration": 0.43198483333333115,
          "durationTicks": 47,
          "midi": 60,
          "name": "C4",
          "ticks": 6960,
          "time": 63.97052000000001,
          "velocity": 0.905511811023622
        },
        {
          "duration": 0.43198483333333826,
          "durationTicks": 47,
          "midi": 63,
          "name": "D#4",
          "ticks": 6961,
          "time": 63.97971116666667,
          "velocity": 0.8818897637795275
        },
        {
          "duration": 0.43198483333333826,
          "durationTicks": 47,
          "midi": 68,
          "name": "G#4",
          "ticks": 6961,
          "time": 63.97971116666667,
          "velocity": 0.889763779527559
        },
        {
          "duration": 0.22058800000000645,
          "durationTicks": 24,
          "midi": 75,
          "name": "D#5",
          "ticks": 6984,
          "time": 64.191108,
          "velocity": 0.8818897637795275
        },
        {
          "duration": 0.4411759999999987,
          "durationTicks": 48,
          "midi": 60,
          "name": "C4",
          "ticks": 7008,
          "time": 64.411696,
          "velocity": 0.889763779527559
        },
        {
          "duration": 0.4411759999999987,
          "durationTicks": 48,
          "midi": 63,
          "name": "D#4",
          "ticks": 7008,
          "time": 64.411696,
          "velocity": 0.8976377952755905
        },
        {
          "duration": 0.43198483333334536,
          "durationTicks": 47,
          "midi": 68,
          "name": "G#4",
          "ticks": 7009,
          "time": 64.42088716666666,
          "velocity": 0.889763779527559
        },
        {
          "duration": 0.43198483333334536,
          "durationTicks": 47,
          "midi": 77,
          "name": "F5",
          "ticks": 7009,
          "time": 64.42088716666666,
          "velocity": 0.8346456692913385
        },
        {
          "duration": 0.22058800000000645,
          "durationTicks": 24,
          "midi": 92,
          "name": "G#6",
          "ticks": 7032,
          "time": 64.632284,
          "velocity": 0.889763779527559
        },
        {
          "duration": 0.21139683333333892,
          "durationTicks": 23,
          "midi": 80,
          "name": "G#5",
          "ticks": 7033,
          "time": 64.64147516666667,
          "velocity": 0.9133858267716536
        },
        {
          "duration": 0.6617640000000051,
          "durationTicks": 72,
          "midi": 37,
          "name": "C#2",
          "ticks": 7056,
          "time": 64.852872,
          "velocity": 0.9133858267716536
        },
        {
          "duration": 0.6617640000000051,
          "durationTicks": 72,
          "midi": 49,
          "name": "C#3",
          "ticks": 7056,
          "time": 64.852872,
          "velocity": 0.9133858267716536
        },
        {
          "duration": 0.6617640000000051,
          "durationTicks": 72,
          "midi": 60,
          "name": "C4",
          "ticks": 7056,
          "time": 64.852872,
          "velocity": 0.905511811023622
        },
        {
          "duration": 0.6525728333333518,
          "durationTicks": 71,
          "midi": 63,
          "name": "D#4",
          "ticks": 7057,
          "time": 64.86206316666666,
          "velocity": 0.905511811023622
        },
        {
          "duration": 0.6525728333333518,
          "durationTicks": 71,
          "midi": 68,
          "name": "G#4",
          "ticks": 7057,
          "time": 64.86206316666666,
          "velocity": 0.8818897637795275
        },
        {
          "duration": 0.22058800000000645,
          "durationTicks": 24,
          "midi": 92,
          "name": "G#6",
          "ticks": 7080,
          "time": 65.07346,
          "velocity": 0.889763779527559
        },
        {
          "duration": 0.21139683333333892,
          "durationTicks": 23,
          "midi": 80,
          "name": "G#5",
          "ticks": 7081,
          "time": 65.08265116666666,
          "velocity": 0.9133858267716536
        },
        {
          "duration": 0.22058800000000645,
          "durationTicks": 24,
          "midi": 89,
          "name": "F6",
          "ticks": 7104,
          "time": 65.294048,
          "velocity": 0.8582677165354331
        },
        {
          "duration": 0.21139683333335313,
          "durationTicks": 23,
          "midi": 77,
          "name": "F5",
          "ticks": 7105,
          "time": 65.30323916666666,
          "velocity": 0.889763779527559
        },
        {
          "duration": 0.8823519999999831,
          "durationTicks": 96,
          "midi": 34,
          "name": "A#1",
          "ticks": 7128,
          "time": 65.51463600000001,
          "velocity": 0.9133858267716536
        },
        {
          "duration": 0.8823519999999831,
          "durationTicks": 96,
          "midi": 46,
          "name": "A#2",
          "ticks": 7128,
          "time": 65.51463600000001,
          "velocity": 0.8818897637795275
        },
        {
          "duration": 0.6525728333333234,
          "durationTicks": 71,
          "midi": 60,
          "name": "C4",
          "ticks": 7128,
          "time": 65.51463600000001,
          "velocity": 0.905511811023622
        },
        {
          "duration": 0.6525728333333376,
          "durationTicks": 71,
          "midi": 63,
          "name": "D#4",
          "ticks": 7129,
          "time": 65.52382716666666,
          "velocity": 0.8818897637795275
        },
        {
          "duration": 0.6525728333333376,
          "durationTicks": 71,
          "midi": 68,
          "name": "G#4",
          "ticks": 7129,
          "time": 65.52382716666666,
          "velocity": 0.889763779527559
        },
        {
          "duration": 0.21139683333333892,
          "durationTicks": 23,
          "midi": 75,
          "name": "D#5",
          "ticks": 7129,
          "time": 65.52382716666666,
          "velocity": 0.905511811023622
        },
        {
          "duration": 0.2113968333333247,
          "durationTicks": 23,
          "midi": 60,
          "name": "C4",
          "ticks": 7200,
          "time": 66.1764,
          "velocity": 0.9212598425196851
        },
        {
          "duration": 0.2113968333333247,
          "durationTicks": 23,
          "midi": 63,
          "name": "D#4",
          "ticks": 7200,
          "time": 66.1764,
          "velocity": 0.8976377952755905
        },
        {
          "duration": 0.21139683333333892,
          "durationTicks": 23,
          "midi": 68,
          "name": "G#4",
          "ticks": 7201,
          "time": 66.18559116666665,
          "velocity": 0.905511811023622
        },
        {
          "duration": 0.8639696666666623,
          "durationTicks": 94,
          "midi": 34,
          "name": "A#1",
          "ticks": 7224,
          "time": 66.396988,
          "velocity": 0.9133858267716536
        },
        {
          "duration": 0.8639696666666623,
          "durationTicks": 94,
          "midi": 46,
          "name": "A#2",
          "ticks": 7224,
          "time": 66.396988,
          "velocity": 0.8818897637795275
        },
        {
          "duration": 0.8639696666666623,
          "durationTicks": 94,
          "midi": 61,
          "name": "C#4",
          "ticks": 7224,
          "time": 66.396988,
          "velocity": 0.905511811023622
        },
        {
          "duration": 0.8639696666666623,
          "durationTicks": 94,
          "midi": 65,
          "name": "F4",
          "ticks": 7225,
          "time": 66.40617916666666,
          "velocity": 0.8818897637795275
        },
        {
          "duration": 0.8639696666666623,
          "durationTicks": 94,
          "midi": 68,
          "name": "G#4",
          "ticks": 7225,
          "time": 66.40617916666666,
          "velocity": 0.889763779527559
        },
        {
          "duration": 0.4227936666666636,
          "durationTicks": 46,
          "midi": 94,
          "name": "A#6",
          "ticks": 7296,
          "time": 67.058752,
          "velocity": 0.8503937007874016
        },
        {
          "duration": 0.42279366666667784,
          "durationTicks": 46,
          "midi": 82,
          "name": "A#5",
          "ticks": 7297,
          "time": 67.06794316666665,
          "velocity": 0.8661417322834646
        },
        {
          "duration": 0.8639696666666623,
          "durationTicks": 94,
          "midi": 30,
          "name": "F#1",
          "ticks": 7344,
          "time": 67.499928,
          "velocity": 0.9133858267716536
        },
        {
          "duration": 0.8639696666666623,
          "durationTicks": 94,
          "midi": 42,
          "name": "F#2",
          "ticks": 7344,
          "time": 67.499928,
          "velocity": 0.8818897637795275
        },
        {
          "duration": 0.4411759999999987,
          "durationTicks": 48,
          "midi": 61,
          "name": "C#4",
          "ticks": 7344,
          "time": 67.499928,
          "velocity": 0.889763779527559
        },
        {
          "duration": 0.43198483333333115,
          "durationTicks": 47,
          "midi": 65,
          "name": "F4",
          "ticks": 7345,
          "time": 67.50911916666666,
          "velocity": 0.905511811023622
        },
        {
          "duration": 0.43198483333333115,
          "durationTicks": 47,
          "midi": 58,
          "name": "A#3",
          "ticks": 7345,
          "time": 67.50911916666666,
          "velocity": 0.8818897637795275
        },
        {
          "duration": 0.4411759999999987,
          "durationTicks": 48,
          "midi": 61,
          "name": "C#4",
          "ticks": 7392,
          "time": 67.941104,
          "velocity": 0.889763779527559
        },
        {
          "duration": 0.4411759999999987,
          "durationTicks": 48,
          "midi": 65,
          "name": "F4",
          "ticks": 7392,
          "time": 67.941104,
          "velocity": 0.889763779527559
        },
        {
          "duration": 0.43198483333333115,
          "durationTicks": 47,
          "midi": 58,
          "name": "A#3",
          "ticks": 7393,
          "time": 67.95029516666666,
          "velocity": 0.8582677165354331
        },
        {
          "duration": 0.6433816666666701,
          "durationTicks": 70,
          "midi": 30,
          "name": "F#1",
          "ticks": 7440,
          "time": 68.38228,
          "velocity": 0.8503937007874016
        },
        {
          "duration": 0.6433816666666701,
          "durationTicks": 70,
          "midi": 42,
          "name": "F#2",
          "ticks": 7441,
          "time": 68.39147116666666,
          "velocity": 0.8267716535433071
        },
        {
          "duration": 0.4411759999999987,
          "durationTicks": 48,
          "midi": 61,
          "name": "C#4",
          "ticks": 7464,
          "time": 68.602868,
          "velocity": 0.905511811023622
        },
        {
          "duration": 0.4411759999999987,
          "durationTicks": 48,
          "midi": 65,
          "name": "F4",
          "ticks": 7464,
          "time": 68.602868,
          "velocity": 0.8582677165354331
        },
        {
          "duration": 0.43198483333334536,
          "durationTicks": 47,
          "midi": 58,
          "name": "A#3",
          "ticks": 7465,
          "time": 68.61205916666665,
          "velocity": 0.8740157480314961
        },
        {
          "duration": 0.22058800000000645,
          "durationTicks": 24,
          "midi": 60,
          "name": "C4",
          "ticks": 7512,
          "time": 69.044044,
          "velocity": 0.8976377952755905
        },
        {
          "duration": 0.22058800000000645,
          "durationTicks": 24,
          "midi": 63,
          "name": "D#4",
          "ticks": 7512,
          "time": 69.044044,
          "velocity": 0.8582677165354331
        },
        {
          "duration": 0.21139683333335313,
          "durationTicks": 23,
          "midi": 57,
          "name": "A3",
          "ticks": 7513,
          "time": 69.05323516666665,
          "velocity": 0.8661417322834646
        },
        {
          "duration": 1.0845576666666545,
          "durationTicks": 118,
          "midi": 29,
          "name": "F1",
          "ticks": 7536,
          "time": 69.264632,
          "velocity": 0.9133858267716536
        },
        {
          "duration": 1.0845576666666545,
          "durationTicks": 118,
          "midi": 41,
          "name": "F2",
          "ticks": 7536,
          "time": 69.264632,
          "velocity": 0.8818897637795275
        },
        {
          "duration": 0.4411759999999987,
          "durationTicks": 48,
          "midi": 57,
          "name": "A3",
          "ticks": 7536,
          "time": 69.264632,
          "velocity": 0.889763779527559
        },
        {
          "duration": 0.43198483333334536,
          "durationTicks": 47,
          "midi": 63,
          "name": "D#4",
          "ticks": 7537,
          "time": 69.27382316666666,
          "velocity": 0.905511811023622
        },
        {
          "duration": 0.43198483333334536,
          "durationTicks": 47,
          "midi": 60,
          "name": "C4",
          "ticks": 7537,
          "time": 69.27382316666666,
          "velocity": 0.8818897637795275
        },
        {
          "duration": 0.22058799999999223,
          "durationTicks": 24,
          "midi": 57,
          "name": "A3",
          "ticks": 7584,
          "time": 69.705808,
          "velocity": 0.889763779527559
        },
        {
          "duration": 0.21139683333333892,
          "durationTicks": 23,
          "midi": 69,
          "name": "A4",
          "ticks": 7585,
          "time": 69.71499916666666,
          "velocity": 0.8582677165354331
        },
        {
          "duration": 0.4411759999999987,
          "durationTicks": 48,
          "midi": 60,
          "name": "C4",
          "ticks": 7608,
          "time": 69.926396,
          "velocity": 0.889763779527559
        },
        {
          "duration": 0.43198483333333115,
          "durationTicks": 47,
          "midi": 63,
          "name": "D#4",
          "ticks": 7608,
          "time": 69.926396,
          "velocity": 0.905511811023622
        },
        {
          "duration": 0.43198483333333115,
          "durationTicks": 47,
          "midi": 68,
          "name": "G#4",
          "ticks": 7609,
          "time": 69.93558716666666,
          "velocity": 0.8582677165354331
        },
        {
          "duration": 0.43198483333333115,
          "durationTicks": 47,
          "midi": 69,
          "name": "A4",
          "ticks": 7609,
          "time": 69.93558716666666,
          "velocity": 0.7716535433070866
        },
        {
          "duration": 0.8639696666666623,
          "durationTicks": 94,
          "midi": 29,
          "name": "F1",
          "ticks": 7656,
          "time": 70.367572,
          "velocity": 0.8818897637795275
        },
        {
          "duration": 0.8639696666666623,
          "durationTicks": 94,
          "midi": 41,
          "name": "F2",
          "ticks": 7656,
          "time": 70.367572,
          "velocity": 0.8661417322834646
        },
        {
          "duration": 0.43198483333333115,
          "durationTicks": 47,
          "midi": 60,
          "name": "C4",
          "ticks": 7657,
          "time": 70.37676316666666,
          "velocity": 0.905511811023622
        },
        {
          "duration": 0.43198483333333115,
          "durationTicks": 47,
          "midi": 63,
          "name": "D#4",
          "ticks": 7657,
          "time": 70.37676316666666,
          "velocity": 0.8582677165354331
        },
        {
          "duration": 0.43198483333333115,
          "durationTicks": 47,
          "midi": 66,
          "name": "F#4",
          "ticks": 7657,
          "time": 70.37676316666666,
          "velocity": 0.8740157480314961
        },
        {
          "duration": 0.22058800000000645,
          "durationTicks": 24,
          "midi": 60,
          "name": "C4",
          "ticks": 7704,
          "time": 70.808748,
          "velocity": 0.889763779527559
        },
        {
          "duration": 0.22058800000000645,
          "durationTicks": 24,
          "midi": 63,
          "name": "D#4",
          "ticks": 7704,
          "time": 70.808748,
          "velocity": 0.8503937007874016
        },
        {
          "duration": 0.21139683333333892,
          "durationTicks": 23,
          "midi": 68,
          "name": "G#4",
          "ticks": 7705,
          "time": 70.81793916666666,
          "velocity": 0.8503937007874016
        },
        {
          "duration": 0.8639696666666623,
          "durationTicks": 94,
          "midi": 34,
          "name": "A#1",
          "ticks": 7728,
          "time": 71.029336,
          "velocity": 0.9133858267716536
        },
        {
          "duration": 0.8639696666666623,
          "durationTicks": 94,
          "midi": 46,
          "name": "A#2",
          "ticks": 7728,
          "time": 71.029336,
          "velocity": 0.8818897637795275
        },
        {
          "duration": 0.4411759999999987,
          "durationTicks": 48,
          "midi": 56,
          "name": "G#3",
          "ticks": 7728,
          "time": 71.029336,
          "velocity": 0.889763779527559
        },
        {
          "duration": 0.43198483333334536,
          "durationTicks": 47,
          "midi": 61,
          "name": "C#4",
          "ticks": 7729,
          "time": 71.03852716666665,
          "velocity": 0.7559055118110236
        },
        {
          "duration": 0.43198483333334536,
          "durationTicks": 47,
          "midi": 63,
          "name": "D#4",
          "ticks": 7729,
          "time": 71.03852716666665,
          "velocity": 0.8818897637795275
        },
        {
          "duration": 0.4411759999999987,
          "durationTicks": 48,
          "midi": 56,
          "name": "G#3",
          "ticks": 7776,
          "time": 71.470512,
          "velocity": 0.889763779527559
        },
        {
          "duration": 0.4411759999999987,
          "durationTicks": 48,
          "midi": 60,
          "name": "C4",
          "ticks": 7776,
          "time": 71.470512,
          "velocity": 0.889763779527559
        },
        {
          "duration": 0.43198483333334536,
          "durationTicks": 47,
          "midi": 65,
          "name": "F4",
          "ticks": 7777,
          "time": 71.47970316666665,
          "velocity": 0.8582677165354331
        },
        {
          "duration": 0.8088226666666571,
          "durationTicks": 88,
          "midi": 36,
          "name": "C2",
          "ticks": 7824,
          "time": 71.911688,
          "velocity": 0.8582677165354331
        },
        {
          "duration": 0.7996315000000038,
          "durationTicks": 87,
          "midi": 48,
          "name": "C3",
          "ticks": 7824,
          "time": 71.911688,
          "velocity": 0.8661417322834646
        },
        {
          "duration": 0.4411759999999987,
          "durationTicks": 48,
          "midi": 56,
          "name": "G#3",
          "ticks": 7824,
          "time": 71.911688,
          "velocity": 0.8188976377952756
        },
        {
          "duration": 0.43198483333334536,
          "durationTicks": 47,
          "midi": 65,
          "name": "F4",
          "ticks": 7825,
          "time": 71.92087916666665,
          "velocity": 0.8976377952755905
        },
        {
          "duration": 0.4411759999999987,
          "durationTicks": 48,
          "midi": 63,
          "name": "D#4",
          "ticks": 7872,
          "time": 72.352864,
          "velocity": 0.7795275590551181
        },
        {
          "duration": 0.8639696666666623,
          "durationTicks": 94,
          "midi": 37,
          "name": "C#2",
          "ticks": 7920,
          "time": 72.79404,
          "velocity": 0.7086614173228346
        },
        {
          "duration": 0.8639696666666623,
          "durationTicks": 94,
          "midi": 49,
          "name": "C#3",
          "ticks": 7920,
          "time": 72.79404,
          "velocity": 0.7480314960629921
        },
        {
          "duration": 0.6617640000000051,
          "durationTicks": 72,
          "midi": 56,
          "name": "G#3",
          "ticks": 7920,
          "time": 72.79404,
          "velocity": 0.7244094488188977
        },
        {
          "duration": 0.6525728333333376,
          "durationTicks": 71,
          "midi": 65,
          "name": "F4",
          "ticks": 7921,
          "time": 72.80323116666666,
          "velocity": 0.7244094488188977
        },
        {
          "duration": 0.6525728333333376,
          "durationTicks": 71,
          "midi": 60,
          "name": "C4",
          "ticks": 7921,
          "time": 72.80323116666666,
          "velocity": 0.7086614173228346
        },
        {
          "duration": 0.4136024999999961,
          "durationTicks": 45,
          "midi": 56,
          "name": "G#3",
          "ticks": 7992,
          "time": 73.455804,
          "velocity": 0.8582677165354331
        },
        {
          "duration": 0.43198483333333115,
          "durationTicks": 47,
          "midi": 65,
          "name": "F4",
          "ticks": 7992,
          "time": 73.455804,
          "velocity": 0.8503937007874016
        },
        {
          "duration": 0.42279366666667784,
          "durationTicks": 46,
          "midi": 61,
          "name": "C#4",
          "ticks": 7993,
          "time": 73.46499516666665,
          "velocity": 0.889763779527559
        },
        {
          "duration": 0.43198483333334536,
          "durationTicks": 47,
          "midi": 84,
          "name": "C6",
          "ticks": 7993,
          "time": 73.46499516666665,
          "velocity": 0.937007874015748
        },
        {
          "duration": 0.42279366666667784,
          "durationTicks": 46,
          "midi": 72,
          "name": "C5",
          "ticks": 7993,
          "time": 73.46499516666665,
          "velocity": 0.9291338582677166
        },
        {
          "duration": 0.8547784999999948,
          "durationTicks": 93,
          "midi": 29,
          "name": "F1",
          "ticks": 8016,
          "time": 73.676392,
          "velocity": 0.7322834645669292
        },
        {
          "duration": 0.8455873333333415,
          "durationTicks": 92,
          "midi": 41,
          "name": "F2",
          "ticks": 8017,
          "time": 73.68558316666666,
          "velocity": 0.7874015748031497
        },
        {
          "duration": 0.2113968333333247,
          "durationTicks": 23,
          "midi": 56,
          "name": "G#3",
          "ticks": 8040,
          "time": 73.89698,
          "velocity": 0.8346456692913385
        },
        {
          "duration": 0.2113968333333247,
          "durationTicks": 23,
          "midi": 65,
          "name": "F4",
          "ticks": 8040,
          "time": 73.89698,
          "velocity": 0.8740157480314961
        },
        {
          "duration": 0.21139683333335313,
          "durationTicks": 23,
          "midi": 60,
          "name": "C4",
          "ticks": 8041,
          "time": 73.90617116666665,
          "velocity": 0.8661417322834646
        },
        {
          "duration": 0.4503671666666804,
          "durationTicks": 49,
          "midi": 85,
          "name": "C#6",
          "ticks": 8041,
          "time": 73.90617116666665,
          "velocity": 0.9212598425196851
        },
        {
          "duration": 0.4411760000000129,
          "durationTicks": 48,
          "midi": 73,
          "name": "C#5",
          "ticks": 8041,
          "time": 73.90617116666665,
          "velocity": 0.9291338582677166
        },
        {
          "duration": 0.4136024999999961,
          "durationTicks": 45,
          "midi": 56,
          "name": "G#3",
          "ticks": 8064,
          "time": 74.117568,
          "velocity": 0.7874015748031497
        },
        {
          "duration": 0.43198483333334536,
          "durationTicks": 47,
          "midi": 65,
          "name": "F4",
          "ticks": 8065,
          "time": 74.12675916666666,
          "velocity": 0.8267716535433071
        },
        {
          "duration": 0.2113968333333247,
          "durationTicks": 23,
          "midi": 60,
          "name": "C4",
          "ticks": 8088,
          "time": 74.338156,
          "velocity": 0.8661417322834646
        },
        {
          "duration": 0.6433816666666559,
          "durationTicks": 70,
          "midi": 80,
          "name": "G#5",
          "ticks": 8088,
          "time": 74.338156,
          "velocity": 0.9133858267716536
        },
        {
          "duration": 0.6525728333333376,
          "durationTicks": 71,
          "midi": 68,
          "name": "G#4",
          "ticks": 8089,
          "time": 74.34734716666667,
          "velocity": 0.9133858267716536
        },
        {
          "duration": 0.8639696666666481,
          "durationTicks": 94,
          "midi": 30,
          "name": "F#1",
          "ticks": 8112,
          "time": 74.558744,
          "velocity": 0.9133858267716536
        },
        {
          "duration": 0.8639696666666481,
          "durationTicks": 94,
          "midi": 42,
          "name": "F#2",
          "ticks": 8112,
          "time": 74.558744,
          "velocity": 0.8818897637795275
        },
        {
          "duration": 0.4411759999999987,
          "durationTicks": 48,
          "midi": 61,
          "name": "C#4",
          "ticks": 8112,
          "time": 74.558744,
          "velocity": 0.889763779527559
        },
        {
          "duration": 0.43198483333334536,
          "durationTicks": 47,
          "midi": 65,
          "name": "F4",
          "ticks": 8113,
          "time": 74.56793516666666,
          "velocity": 0.905511811023622
        },
        {
          "duration": 0.4411759999999987,
          "durationTicks": 48,
          "midi": 61,
          "name": "C#4",
          "ticks": 8160,
          "time": 74.99992,
          "velocity": 0.889763779527559
        },
        {
          "duration": 0.4411759999999987,
          "durationTicks": 48,
          "midi": 65,
          "name": "F4",
          "ticks": 8160,
          "time": 74.99992,
          "velocity": 0.889763779527559
        },
        {
          "duration": 0.43198483333334536,
          "durationTicks": 47,
          "midi": 68,
          "name": "G#4",
          "ticks": 8161,
          "time": 75.00911116666666,
          "velocity": 0.8582677165354331
        },
        {
          "duration": 0.8731608333333298,
          "durationTicks": 95,
          "midi": 30,
          "name": "F#1",
          "ticks": 8208,
          "time": 75.441096,
          "velocity": 0.8503937007874016
        },
        {
          "duration": 0.854778500000009,
          "durationTicks": 93,
          "midi": 42,
          "name": "F#2",
          "ticks": 8209,
          "time": 75.45028716666666,
          "velocity": 0.8267716535433071
        },
        {
          "duration": 0.4411760000000129,
          "durationTicks": 48,
          "midi": 61,
          "name": "C#4",
          "ticks": 8232,
          "time": 75.661684,
          "velocity": 0.905511811023622
        },
        {
          "duration": 0.4411760000000129,
          "durationTicks": 48,
          "midi": 65,
          "name": "F4",
          "ticks": 8232,
          "time": 75.661684,
          "velocity": 0.8582677165354331
        },
        {
          "duration": 0.43198483333334536,
          "durationTicks": 47,
          "midi": 68,
          "name": "G#4",
          "ticks": 8233,
          "time": 75.67087516666666,
          "velocity": 0.8740157480314961
        },
        {
          "duration": 0.22058799999999223,
          "durationTicks": 24,
          "midi": 61,
          "name": "C#4",
          "ticks": 8280,
          "time": 76.10286,
          "velocity": 0.905511811023622
        },
        {
          "duration": 0.22058799999999223,
          "durationTicks": 24,
          "midi": 65,
          "name": "F4",
          "ticks": 8280,
          "time": 76.10286,
          "velocity": 0.8740157480314961
        },
        {
          "duration": 0.21139683333333892,
          "durationTicks": 23,
          "midi": 68,
          "name": "G#4",
          "ticks": 8281,
          "time": 76.11205116666666,
          "velocity": 0.8503937007874016
        },
        {
          "duration": 0.8731608333333298,
          "durationTicks": 95,
          "midi": 32,
          "name": "G#1",
          "ticks": 8304,
          "time": 76.323448,
          "velocity": 0.9133858267716536
        },
        {
          "duration": 0.8731608333333298,
          "durationTicks": 95,
          "midi": 44,
          "name": "G#2",
          "ticks": 8304,
          "time": 76.323448,
          "velocity": 0.8818897637795275
        },
        {
          "duration": 0.8731608333333298,
          "durationTicks": 95,
          "midi": 61,
          "name": "C#4",
          "ticks": 8304,
          "time": 76.323448,
          "velocity": 0.905511811023622
        },
        {
          "duration": 0.873160833333344,
          "durationTicks": 95,
          "midi": 68,
          "name": "G#4",
          "ticks": 8305,
          "time": 76.33263916666665,
          "velocity": 0.889763779527559
        },
        {
          "duration": 0.6617639999999909,
          "durationTicks": 72,
          "midi": 65,
          "name": "F4",
          "ticks": 8328,
          "time": 76.544036,
          "velocity": 0.8661417322834646
        },
        {
          "duration": 0.22058800000000645,
          "durationTicks": 24,
          "midi": 72,
          "name": "C5",
          "ticks": 8352,
          "time": 76.764624,
          "velocity": 0.9133858267716536
        },
        {
          "duration": 0.21139683333333892,
          "durationTicks": 23,
          "midi": 84,
          "name": "C6",
          "ticks": 8353,
          "time": 76.77381516666667,
          "velocity": 0.9133858267716536
        },
        {
          "duration": 0.4411759999999987,
          "durationTicks": 48,
          "midi": 73,
          "name": "C#5",
          "ticks": 8376,
          "time": 76.985212,
          "velocity": 0.8740157480314961
        },
        {
          "duration": 0.43198483333334536,
          "durationTicks": 47,
          "midi": 85,
          "name": "C#6",
          "ticks": 8377,
          "time": 76.99440316666666,
          "velocity": 0.905511811023622
        },
        {
          "duration": 0.8731608333333298,
          "durationTicks": 95,
          "midi": 32,
          "name": "G#1",
          "ticks": 8400,
          "time": 77.2058,
          "velocity": 0.8740157480314961
        },
        {
          "duration": 0.8272049999999922,
          "durationTicks": 90,
          "midi": 44,
          "name": "G#2",
          "ticks": 8401,
          "time": 77.21499116666666,
          "velocity": 0.889763779527559
        },
        {
          "duration": 0.6525728333333376,
          "durationTicks": 71,
          "midi": 68,
          "name": "G#4",
          "ticks": 8401,
          "time": 77.21499116666666,
          "velocity": 0.8661417322834646
        },
        {
          "duration": 0.8272049999999922,
          "durationTicks": 90,
          "midi": 63,
          "name": "D#4",
          "ticks": 8402,
          "time": 77.22418233333333,
          "velocity": 0.8503937007874016
        },
        {
          "duration": 0.22058799999999223,
          "durationTicks": 24,
          "midi": 72,
          "name": "C5",
          "ticks": 8424,
          "time": 77.426388,
          "velocity": 0.889763779527559
        },
        {
          "duration": 0.21139683333333892,
          "durationTicks": 23,
          "midi": 84,
          "name": "C6",
          "ticks": 8425,
          "time": 77.43557916666666,
          "velocity": 0.8818897637795275
        },
        {
          "duration": 0.21139683333333892,
          "durationTicks": 23,
          "midi": 80,
          "name": "G#5",
          "ticks": 8449,
          "time": 77.65616716666666,
          "velocity": 0.9133858267716536
        },
        {
          "duration": 0.22058799999999223,
          "durationTicks": 24,
          "midi": 72,
          "name": "C5",
          "ticks": 8472,
          "time": 77.867564,
          "velocity": 0.889763779527559
        },
        {
          "duration": 0.21139683333333892,
          "durationTicks": 23,
          "midi": 84,
          "name": "C6",
          "ticks": 8473,
          "time": 77.87675516666665,
          "velocity": 0.8818897637795275
        },
        {
          "duration": 0.8731608333333298,
          "durationTicks": 95,
          "midi": 37,
          "name": "C#2",
          "ticks": 8496,
          "time": 78.088152,
          "velocity": 0.9133858267716536
        },
        {
          "duration": 0.8731608333333298,
          "durationTicks": 95,
          "midi": 49,
          "name": "C#3",
          "ticks": 8496,
          "time": 78.088152,
          "velocity": 0.8818897637795275
        },
        {
          "duration": 0.43198483333333115,
          "durationTicks": 47,
          "midi": 60,
          "name": "C4",
          "ticks": 8496,
          "time": 78.088152,
          "velocity": 0.905511811023622
        },
        {
          "duration": 0.43198483333334536,
          "durationTicks": 47,
          "midi": 63,
          "name": "D#4",
          "ticks": 8497,
          "time": 78.09734316666666,
          "velocity": 0.8818897637795275
        },
        {
          "duration": 0.43198483333334536,
          "durationTicks": 47,
          "midi": 68,
          "name": "G#4",
          "ticks": 8497,
          "time": 78.09734316666666,
          "velocity": 0.889763779527559
        },
        {
          "duration": 0.22058800000000645,
          "durationTicks": 24,
          "midi": 75,
          "name": "D#5",
          "ticks": 8520,
          "time": 78.30874,
          "velocity": 0.8818897637795275
        },
        {
          "duration": 0.4411759999999987,
          "durationTicks": 48,
          "midi": 60,
          "name": "C4",
          "ticks": 8544,
          "time": 78.529328,
          "velocity": 0.889763779527559
        },
        {
          "duration": 0.4411759999999987,
          "durationTicks": 48,
          "midi": 63,
          "name": "D#4",
          "ticks": 8544,
          "time": 78.529328,
          "velocity": 0.8976377952755905
        },
        {
          "duration": 0.43198483333334536,
          "durationTicks": 47,
          "midi": 68,
          "name": "G#4",
          "ticks": 8545,
          "time": 78.53851916666666,
          "velocity": 0.889763779527559
        },
        {
          "duration": 0.43198483333334536,
          "durationTicks": 47,
          "midi": 77,
          "name": "F5",
          "ticks": 8545,
          "time": 78.53851916666666,
          "velocity": 0.8346456692913385
        },
        {
          "duration": 0.22058800000000645,
          "durationTicks": 24,
          "midi": 92,
          "name": "G#6",
          "ticks": 8568,
          "time": 78.749916,
          "velocity": 0.889763779527559
        },
        {
          "duration": 0.21139683333335313,
          "durationTicks": 23,
          "midi": 80,
          "name": "G#5",
          "ticks": 8569,
          "time": 78.75910716666665,
          "velocity": 0.9133858267716536
        },
        {
          "duration": 0.6617639999999909,
          "durationTicks": 72,
          "midi": 37,
          "name": "C#2",
          "ticks": 8592,
          "time": 78.970504,
          "velocity": 0.9133858267716536
        },
        {
          "duration": 0.6617639999999909,
          "durationTicks": 72,
          "midi": 49,
          "name": "C#3",
          "ticks": 8592,
          "time": 78.970504,
          "velocity": 0.9133858267716536
        },
        {
          "duration": 0.6617639999999909,
          "durationTicks": 72,
          "midi": 60,
          "name": "C4",
          "ticks": 8592,
          "time": 78.970504,
          "velocity": 0.905511811023622
        },
        {
          "duration": 0.6525728333333376,
          "durationTicks": 71,
          "midi": 63,
          "name": "D#4",
          "ticks": 8593,
          "time": 78.97969516666666,
          "velocity": 0.905511811023622
        },
        {
          "duration": 0.6525728333333376,
          "durationTicks": 71,
          "midi": 68,
          "name": "G#4",
          "ticks": 8593,
          "time": 78.97969516666666,
          "velocity": 0.8818897637795275
        },
        {
          "duration": 0.22058800000000645,
          "durationTicks": 24,
          "midi": 92,
          "name": "G#6",
          "ticks": 8616,
          "time": 79.191092,
          "velocity": 0.889763779527559
        },
        {
          "duration": 0.21139683333333892,
          "durationTicks": 23,
          "midi": 80,
          "name": "G#5",
          "ticks": 8617,
          "time": 79.20028316666667,
          "velocity": 0.9133858267716536
        },
        {
          "duration": 0.22058799999999223,
          "durationTicks": 24,
          "midi": 89,
          "name": "F6",
          "ticks": 8640,
          "time": 79.41168,
          "velocity": 0.8582677165354331
        },
        {
          "duration": 0.21139683333333892,
          "durationTicks": 23,
          "midi": 77,
          "name": "F5",
          "ticks": 8641,
          "time": 79.42087116666666,
          "velocity": 0.889763779527559
        },
        {
          "duration": 0.8823519999999974,
          "durationTicks": 96,
          "midi": 34,
          "name": "A#1",
          "ticks": 8664,
          "time": 79.632268,
          "velocity": 0.9133858267716536
        },
        {
          "duration": 0.8823519999999974,
          "durationTicks": 96,
          "midi": 46,
          "name": "A#2",
          "ticks": 8664,
          "time": 79.632268,
          "velocity": 0.8818897637795275
        },
        {
          "duration": 0.6525728333333376,
          "durationTicks": 71,
          "midi": 60,
          "name": "C4",
          "ticks": 8664,
          "time": 79.632268,
          "velocity": 0.905511811023622
        },
        {
          "duration": 0.6525728333333376,
          "durationTicks": 71,
          "midi": 63,
          "name": "D#4",
          "ticks": 8665,
          "time": 79.64145916666666,
          "velocity": 0.8818897637795275
        },
        {
          "duration": 0.6525728333333376,
          "durationTicks": 71,
          "midi": 68,
          "name": "G#4",
          "ticks": 8665,
          "time": 79.64145916666666,
          "velocity": 0.889763779527559
        },
        {
          "duration": 0.21139683333333892,
          "durationTicks": 23,
          "midi": 75,
          "name": "D#5",
          "ticks": 8665,
          "time": 79.64145916666666,
          "velocity": 0.905511811023622
        },
        {
          "duration": 0.2113968333333247,
          "durationTicks": 23,
          "midi": 60,
          "name": "C4",
          "ticks": 8736,
          "time": 80.294032,
          "velocity": 0.9212598425196851
        },
        {
          "duration": 0.2113968333333247,
          "durationTicks": 23,
          "midi": 63,
          "name": "D#4",
          "ticks": 8736,
          "time": 80.294032,
          "velocity": 0.8976377952755905
        },
        {
          "duration": 0.21139683333333892,
          "durationTicks": 23,
          "midi": 68,
          "name": "G#4",
          "ticks": 8737,
          "time": 80.30322316666665,
          "velocity": 0.905511811023622
        },
        {
          "duration": 0.8639696666666623,
          "durationTicks": 94,
          "midi": 34,
          "name": "A#1",
          "ticks": 8760,
          "time": 80.51462,
          "velocity": 0.9133858267716536
        },
        {
          "duration": 0.8823520000000116,
          "durationTicks": 96,
          "midi": 46,
          "name": "A#2",
          "ticks": 8760,
          "time": 80.51462,
          "velocity": 0.8976377952755905
        },
        {
          "duration": 0.8731608333333298,
          "durationTicks": 95,
          "midi": 62,
          "name": "D4",
          "ticks": 8760,
          "time": 80.51462,
          "velocity": 0.889763779527559
        },
        {
          "duration": 0.8639696666666623,
          "durationTicks": 94,
          "midi": 65,
          "name": "F4",
          "ticks": 8761,
          "time": 80.52381116666666,
          "velocity": 0.8818897637795275
        },
        {
          "duration": 0.8639696666666623,
          "durationTicks": 94,
          "midi": 68,
          "name": "G#4",
          "ticks": 8761,
          "time": 80.52381116666666,
          "velocity": 0.889763779527559
        },
        {
          "duration": 0.4227936666666636,
          "durationTicks": 46,
          "midi": 94,
          "name": "A#6",
          "ticks": 8832,
          "time": 81.176384,
          "velocity": 0.84251968503937
        },
        {
          "duration": 0.4136025000000103,
          "durationTicks": 45,
          "midi": 82,
          "name": "A#5",
          "ticks": 8833,
          "time": 81.18557516666665,
          "velocity": 0.84251968503937
        },
        {
          "duration": 0.6617640000000051,
          "durationTicks": 72,
          "midi": 39,
          "name": "D#2",
          "ticks": 8880,
          "time": 81.61756,
          "velocity": 0.889763779527559
        },
        {
          "duration": 0.6617640000000051,
          "durationTicks": 72,
          "midi": 51,
          "name": "D#3",
          "ticks": 8880,
          "time": 81.61756,
          "velocity": 0.8818897637795275
        },
        {
          "duration": 0.6617640000000051,
          "durationTicks": 72,
          "midi": 61,
          "name": "C#4",
          "ticks": 8880,
          "time": 81.61756,
          "velocity": 0.889763779527559
        },
        {
          "duration": 0.6525728333333376,
          "durationTicks": 71,
          "midi": 65,
          "name": "F4",
          "ticks": 8881,
          "time": 81.62675116666666,
          "velocity": 0.8818897637795275
        },
        {
          "duration": 0.6525728333333376,
          "durationTicks": 71,
          "midi": 58,
          "name": "A#3",
          "ticks": 8881,
          "time": 81.62675116666666,
          "velocity": 0.889763779527559
        },
        {
          "duration": 1.0845576666666545,
          "durationTicks": 118,
          "midi": 39,
          "name": "D#2",
          "ticks": 8952,
          "time": 82.279324,
          "velocity": 0.889763779527559
        },
        {
          "duration": 1.0753665000000012,
          "durationTicks": 117,
          "midi": 51,
          "name": "D#3",
          "ticks": 8952,
          "time": 82.279324,
          "velocity": 0.8976377952755905
        },
        {
          "duration": 0.43198483333333115,
          "durationTicks": 47,
          "midi": 61,
          "name": "C#4",
          "ticks": 8952,
          "time": 82.279324,
          "velocity": 0.905511811023622
        },
        {
          "duration": 0.43198483333334536,
          "durationTicks": 47,
          "midi": 65,
          "name": "F4",
          "ticks": 8953,
          "time": 82.28851516666666,
          "velocity": 0.8976377952755905
        },
        {
          "duration": 1.066175333333348,
          "durationTicks": 116,
          "midi": 58,
          "name": "A#3",
          "ticks": 8953,
          "time": 82.28851516666666,
          "velocity": 0.905511811023622
        },
        {
          "duration": 0.4136024999999961,
          "durationTicks": 45,
          "midi": 61,
          "name": "C#4",
          "ticks": 9000,
          "time": 82.7205,
          "velocity": 0.8818897637795275
        },
        {
          "duration": 0.4136024999999961,
          "durationTicks": 45,
          "midi": 65,
          "name": "F4",
          "ticks": 9000,
          "time": 82.7205,
          "velocity": 0.8661417322834646
        },
        {
          "duration": 0.4136025000000103,
          "durationTicks": 45,
          "midi": 68,
          "name": "G#4",
          "ticks": 9001,
          "time": 82.72969116666665,
          "velocity": 0.889763779527559
        },
        {
          "duration": 0.2113968333333247,
          "durationTicks": 23,
          "midi": 61,
          "name": "C#4",
          "ticks": 9048,
          "time": 83.161676,
          "velocity": 0.889763779527559
        },
        {
          "duration": 0.20220566666665718,
          "durationTicks": 22,
          "midi": 65,
          "name": "F4",
          "ticks": 9048,
          "time": 83.161676,
          "velocity": 0.8818897637795275
        },
        {
          "duration": 0.2022056666666714,
          "durationTicks": 22,
          "midi": 68,
          "name": "G#4",
          "ticks": 9049,
          "time": 83.17086716666665,
          "velocity": 0.889763779527559
        },
        {
          "duration": 0.8731608333333298,
          "durationTicks": 95,
          "midi": 32,
          "name": "G#1",
          "ticks": 9072,
          "time": 83.382264,
          "velocity": 0.889763779527559
        },
        {
          "duration": 0.8731608333333298,
          "durationTicks": 95,
          "midi": 44,
          "name": "G#2",
          "ticks": 9072,
          "time": 83.382264,
          "velocity": 0.8818897637795275
        },
        {
          "duration": 0.6525728333333234,
          "durationTicks": 71,
          "midi": 60,
          "name": "C4",
          "ticks": 9072,
          "time": 83.382264,
          "velocity": 0.889763779527559
        },
        {
          "duration": 0.6525728333333376,
          "durationTicks": 71,
          "midi": 63,
          "name": "D#4",
          "ticks": 9073,
          "time": 83.39145516666666,
          "velocity": 0.8818897637795275
        },
        {
          "duration": 0.6525728333333376,
          "durationTicks": 71,
          "midi": 68,
          "name": "G#4",
          "ticks": 9073,
          "time": 83.39145516666666,
          "velocity": 0.889763779527559
        },
        {
          "duration": 0.4411759999999987,
          "durationTicks": 48,
          "midi": 65,
          "name": "F4",
          "ticks": 9096,
          "time": 83.602852,
          "velocity": 0.8818897637795275
        },
        {
          "duration": 0.21139683333333892,
          "durationTicks": 23,
          "midi": 68,
          "name": "G#4",
          "ticks": 9144,
          "time": 84.044028,
          "velocity": 0.8818897637795275
        },
        {
          "duration": 0.21139683333333892,
          "durationTicks": 23,
          "midi": 63,
          "name": "D#4",
          "ticks": 9144,
          "time": 84.044028,
          "velocity": 0.8818897637795275
        },
        {
          "duration": 0.21139683333333892,
          "durationTicks": 23,
          "midi": 60,
          "name": "C4",
          "ticks": 9145,
          "time": 84.05321916666666,
          "velocity": 0.8740157480314961
        },
        {
          "duration": 0.43198483333333115,
          "durationTicks": 47,
          "midi": 80,
          "name": "G#5",
          "ticks": 9145,
          "time": 84.05321916666666,
          "velocity": 0.8661417322834646
        },
        {
          "duration": 0.8639696666666481,
          "durationTicks": 94,
          "midi": 32,
          "name": "G#1",
          "ticks": 9168,
          "time": 84.264616,
          "velocity": 0.9133858267716536
        },
        {
          "duration": 0.8547784999999948,
          "durationTicks": 93,
          "midi": 44,
          "name": "G#2",
          "ticks": 9168,
          "time": 84.264616,
          "velocity": 0.8818897637795275
        },
        {
          "duration": 0.43198483333333115,
          "durationTicks": 47,
          "midi": 60,
          "name": "C4",
          "ticks": 9168,
          "time": 84.264616,
          "velocity": 0.889763779527559
        },
        {
          "duration": 0.42279366666667784,
          "durationTicks": 46,
          "midi": 63,
          "name": "D#4",
          "ticks": 9169,
          "time": 84.27380716666666,
          "velocity": 0.8818897637795275
        },
        {
          "duration": 0.42279366666667784,
          "durationTicks": 46,
          "midi": 56,
          "name": "G#3",
          "ticks": 9169,
          "time": 84.27380716666666,
          "velocity": 0.889763779527559
        },
        {
          "duration": 0.22058800000000645,
          "durationTicks": 24,
          "midi": 87,
          "name": "D#6",
          "ticks": 9192,
          "time": 84.485204,
          "velocity": 0.9212598425196851
        },
        {
          "duration": 0.21139683333333892,
          "durationTicks": 23,
          "midi": 75,
          "name": "D#5",
          "ticks": 9193,
          "time": 84.49439516666666,
          "velocity": 0.9133858267716536
        },
        {
          "duration": 0.43198483333333115,
          "durationTicks": 47,
          "midi": 60,
          "name": "C4",
          "ticks": 9216,
          "time": 84.705792,
          "velocity": 0.889763779527559
        },
        {
          "duration": 0.4227936666666494,
          "durationTicks": 46,
          "midi": 63,
          "name": "D#4",
          "ticks": 9216,
          "time": 84.705792,
          "velocity": 0.8818897637795275
        },
        {
          "duration": 0.42279366666667784,
          "durationTicks": 46,
          "midi": 68,
          "name": "G#4",
          "ticks": 9217,
          "time": 84.71498316666666,
          "velocity": 0.889763779527559
        },
        {
          "duration": 0.22058800000000645,
          "durationTicks": 24,
          "midi": 87,
          "name": "D#6",
          "ticks": 9240,
          "time": 84.92638,
          "velocity": 0.8503937007874016
        },
        {
          "duration": 0.21139683333333892,
          "durationTicks": 23,
          "midi": 75,
          "name": "D#5",
          "ticks": 9241,
          "time": 84.93557116666666,
          "velocity": 0.84251968503937
        },
        {
          "duration": 1.305145666666661,
          "durationTicks": 142,
          "midi": 30,
          "name": "F#1",
          "ticks": 9264,
          "time": 85.146968,
          "velocity": 0.8661417322834646
        },
        {
          "duration": 1.305145666666661,
          "durationTicks": 142,
          "midi": 42,
          "name": "F#2",
          "ticks": 9264,
          "time": 85.146968,
          "velocity": 0.889763779527559
        },
        {
          "duration": 0.6433816666666559,
          "durationTicks": 70,
          "midi": 61,
          "name": "C#4",
          "ticks": 9264,
          "time": 85.146968,
          "velocity": 0.8818897637795275
        },
        {
          "duration": 0.6433816666666701,
          "durationTicks": 70,
          "midi": 65,
          "name": "F4",
          "ticks": 9265,
          "time": 85.15615916666665,
          "velocity": 0.8661417322834646
        },
        {
          "duration": 1.0845576666666688,
          "durationTicks": 118,
          "midi": 56,
          "name": "G#3",
          "ticks": 9265,
          "time": 85.15615916666665,
          "velocity": 0.8740157480314961
        },
        {
          "duration": 0.6433816666666559,
          "durationTicks": 70,
          "midi": 63,
          "name": "D#4",
          "ticks": 9336,
          "time": 85.808732,
          "velocity": 0.8976377952755905
        },
        {
          "duration": 0.6433816666666701,
          "durationTicks": 70,
          "midi": 65,
          "name": "F4",
          "ticks": 9337,
          "time": 85.81792316666666,
          "velocity": 0.889763779527559
        },
        {
          "duration": 0.22058799999999223,
          "durationTicks": 24,
          "midi": 56,
          "name": "G#3",
          "ticks": 9384,
          "time": 86.249908,
          "velocity": 0.84251968503937
        },
        {
          "duration": 0.43198483333333115,
          "durationTicks": 47,
          "midi": 30,
          "name": "F#1",
          "ticks": 9408,
          "time": 86.470496,
          "velocity": 0.8661417322834646
        },
        {
          "duration": 0.43198483333333115,
          "durationTicks": 47,
          "midi": 42,
          "name": "F#2",
          "ticks": 9408,
          "time": 86.470496,
          "velocity": 0.8740157480314961
        },
        {
          "duration": 0.43198483333333115,
          "durationTicks": 47,
          "midi": 60,
          "name": "C4",
          "ticks": 9408,
          "time": 86.470496,
          "velocity": 0.8818897637795275
        },
        {
          "duration": 0.43198483333333115,
          "durationTicks": 47,
          "midi": 65,
          "name": "F4",
          "ticks": 9409,
          "time": 86.47968716666666,
          "velocity": 0.889763779527559
        },
        {
          "duration": 0.21139683333333892,
          "durationTicks": 23,
          "midi": 56,
          "name": "G#3",
          "ticks": 9409,
          "time": 86.47968716666666,
          "velocity": 0.8582677165354331
        },
        {
          "duration": 0.22058799999999223,
          "durationTicks": 24,
          "midi": 58,
          "name": "A#3",
          "ticks": 9432,
          "time": 86.691084,
          "velocity": 0.8740157480314961
        },
        {
          "duration": 1.305145666666661,
          "durationTicks": 142,
          "midi": 30,
          "name": "F#1",
          "ticks": 9456,
          "time": 86.911672,
          "velocity": 0.8661417322834646
        },
        {
          "duration": 1.305145666666661,
          "durationTicks": 142,
          "midi": 42,
          "name": "F#2",
          "ticks": 9457,
          "time": 86.92086316666666,
          "velocity": 0.889763779527559
        },
        {
          "duration": 0.4411759999999987,
          "durationTicks": 48,
          "midi": 65,
          "name": "F4",
          "ticks": 9480,
          "time": 87.13226,
          "velocity": 0.8661417322834646
        },
        {
          "duration": 0.3124996666666675,
          "durationTicks": 34,
          "midi": 56,
          "name": "G#3",
          "ticks": 9481,
          "time": 87.14145116666666,
          "velocity": 0.8740157480314961
        },
        {
          "duration": 0.32169083333333504,
          "durationTicks": 35,
          "midi": 61,
          "name": "C#4",
          "ticks": 9504,
          "time": 87.352848,
          "velocity": 0.8740157480314961
        },
        {
          "duration": 0.2113968333333247,
          "durationTicks": 23,
          "midi": 56,
          "name": "G#3",
          "ticks": 9516,
          "time": 87.463142,
          "velocity": 0.8740157480314961
        },
        {
          "duration": 0.5514699999999948,
          "durationTicks": 60,
          "midi": 63,
          "name": "D#4",
          "ticks": 9539,
          "time": 87.67453883333333,
          "velocity": 0.8976377952755905
        },
        {
          "duration": 0.551470000000009,
          "durationTicks": 60,
          "midi": 65,
          "name": "F4",
          "ticks": 9540,
          "time": 87.68373,
          "velocity": 0.889763779527559
        },
        {
          "duration": 0.22058800000000645,
          "durationTicks": 24,
          "midi": 56,
          "name": "G#3",
          "ticks": 9576,
          "time": 88.014612,
          "velocity": 0.84251968503937
        },
        {
          "duration": 0.43198483333331694,
          "durationTicks": 47,
          "midi": 30,
          "name": "F#1",
          "ticks": 9600,
          "time": 88.2352,
          "velocity": 0.8661417322834646
        },
        {
          "duration": 0.43198483333331694,
          "durationTicks": 47,
          "midi": 42,
          "name": "F#2",
          "ticks": 9600,
          "time": 88.2352,
          "velocity": 0.8740157480314961
        },
        {
          "duration": 0.43198483333331694,
          "durationTicks": 47,
          "midi": 60,
          "name": "C4",
          "ticks": 9600,
          "time": 88.2352,
          "velocity": 0.8818897637795275
        },
        {
          "duration": 0.43198483333334536,
          "durationTicks": 47,
          "midi": 65,
          "name": "F4",
          "ticks": 9601,
          "time": 88.24439116666666,
          "velocity": 0.889763779527559
        },
        {
          "duration": 0.21139683333333892,
          "durationTicks": 23,
          "midi": 56,
          "name": "G#3",
          "ticks": 9601,
          "time": 88.24439116666666,
          "velocity": 0.8582677165354331
        },
        {
          "duration": 0.22058800000000645,
          "durationTicks": 24,
          "midi": 58,
          "name": "A#3",
          "ticks": 9624,
          "time": 88.455788,
          "velocity": 0.8740157480314961
        },
        {
          "duration": 1.7555128333333272,
          "durationTicks": 191,
          "midi": 30,
          "name": "F#1",
          "ticks": 9648,
          "time": 88.676376,
          "velocity": 0.8661417322834646
        },
        {
          "duration": 1.7555128333333272,
          "durationTicks": 191,
          "midi": 42,
          "name": "F#2",
          "ticks": 9648,
          "time": 88.676376,
          "velocity": 0.889763779527559
        },
        {
          "duration": 1.7555128333333272,
          "durationTicks": 191,
          "midi": 53,
          "name": "F3",
          "ticks": 9648,
          "time": 88.676376,
          "velocity": 0.8818897637795275
        },
        {
          "duration": 1.7463216666666739,
          "durationTicks": 190,
          "midi": 58,
          "name": "A#3",
          "ticks": 9649,
          "time": 88.68556716666666,
          "velocity": 0.8818897637795275
        },
        {
          "duration": 1.7371305000000064,
          "durationTicks": 189,
          "midi": 61,
          "name": "C#4",
          "ticks": 9649,
          "time": 88.68556716666666,
          "velocity": 0.8503937007874016
        },
        {
          "duration": 1.7555128333333272,
          "durationTicks": 191,
          "midi": 32,
          "name": "G#1",
          "ticks": 9840,
          "time": 90.44108,
          "velocity": 0.84251968503937
        },
        {
          "duration": 1.7555128333333272,
          "durationTicks": 191,
          "midi": 44,
          "name": "G#2",
          "ticks": 9840,
          "time": 90.44108,
          "velocity": 0.8503937007874016
        },
        {
          "duration": 0.6617640000000051,
          "durationTicks": 72,
          "midi": 53,
          "name": "F3",
          "ticks": 9840,
          "time": 90.44108,
          "velocity": 0.8818897637795275
        },
        {
          "duration": 0.6617640000000051,
          "durationTicks": 72,
          "midi": 58,
          "name": "A#3",
          "ticks": 9841,
          "time": 90.45027116666665,
          "velocity": 0.905511811023622
        },
        {
          "duration": 0.6617640000000051,
          "durationTicks": 72,
          "midi": 61,
          "name": "C#4",
          "ticks": 9841,
          "time": 90.45027116666665,
          "velocity": 0.8740157480314961
        },
        {
          "duration": 1.0845576666666545,
          "durationTicks": 118,
          "midi": 51,
          "name": "D#3",
          "ticks": 9912,
          "time": 91.102844,
          "velocity": 0.8031496062992126
        },
        {
          "duration": 1.0845576666666545,
          "durationTicks": 118,
          "midi": 56,
          "name": "G#3",
          "ticks": 9912,
          "time": 91.102844,
          "velocity": 0.8818897637795275
        },
        {
          "duration": 1.0845576666666688,
          "durationTicks": 118,
          "midi": 60,
          "name": "C4",
          "ticks": 9913,
          "time": 91.11203516666666,
          "velocity": 0.9212598425196851
        },
        {
          "duration": 1.0753665000000012,
          "durationTicks": 117,
          "midi": 63,
          "name": "D#4",
          "ticks": 9913,
          "time": 91.11203516666666,
          "velocity": 0.9291338582677166
        },
        {
          "duration": 3.5110256666666686,
          "durationTicks": 382,
          "midi": 34,
          "name": "A#1",
          "ticks": 10032,
          "time": 92.205784,
          "velocity": 0.8267716535433071
        },
        {
          "duration": 1.7555128333333414,
          "durationTicks": 191,
          "midi": 46,
          "name": "A#2",
          "ticks": 10032,
          "time": 92.205784,
          "velocity": 0.8267716535433071
        },
        {
          "duration": 1.7555128333333414,
          "durationTicks": 191,
          "midi": 56,
          "name": "G#3",
          "ticks": 10032,
          "time": 92.205784,
          "velocity": 0.84251968503937
        },
        {
          "duration": 1.7463216666666739,
          "durationTicks": 190,
          "midi": 61,
          "name": "C#4",
          "ticks": 10033,
          "time": 92.21497516666666,
          "velocity": 0.8582677165354331
        },
        {
          "duration": 1.7371304999999921,
          "durationTicks": 189,
          "midi": 65,
          "name": "F4",
          "ticks": 10033,
          "time": 92.21497516666666,
          "velocity": 0.8503937007874016
        },
        {
          "duration": 1.7463216666666597,
          "durationTicks": 190,
          "midi": 46,
          "name": "A#2",
          "ticks": 10224,
          "time": 93.970488,
          "velocity": 0.8267716535433071
        },
        {
          "duration": 1.5441160000000025,
          "durationTicks": 168,
          "midi": 53,
          "name": "F3",
          "ticks": 10248,
          "time": 94.191076,
          "velocity": 0.6929133858267716
        },
        {
          "duration": 1.305145666666661,
          "durationTicks": 142,
          "midi": 60,
          "name": "C4",
          "ticks": 10272,
          "time": 94.411664,
          "velocity": 0.7716535433070866
        },
        {
          "duration": 1.0845576666666688,
          "durationTicks": 118,
          "midi": 61,
          "name": "C#4",
          "ticks": 10296,
          "time": 94.632252,
          "velocity": 0.7952755905511811
        },
        {
          "duration": 0.6525728333333234,
          "durationTicks": 71,
          "midi": 56,
          "name": "G#3",
          "ticks": 10344,
          "time": 95.073428,
          "velocity": 0.889763779527559
        },
        {
          "duration": 1.7555128333333272,
          "durationTicks": 191,
          "midi": 30,
          "name": "F#1",
          "ticks": 10416,
          "time": 95.735192,
          "velocity": 0.8661417322834646
        },
        {
          "duration": 1.7555128333333272,
          "durationTicks": 191,
          "midi": 42,
          "name": "F#2",
          "ticks": 10416,
          "time": 95.735192,
          "velocity": 0.889763779527559
        },
        {
          "duration": 1.7555128333333272,
          "durationTicks": 191,
          "midi": 65,
          "name": "F4",
          "ticks": 10416,
          "time": 95.735192,
          "velocity": 0.8267716535433071
        },
        {
          "duration": 1.7463216666666597,
          "durationTicks": 190,
          "midi": 58,
          "name": "A#3",
          "ticks": 10417,
          "time": 95.74438316666667,
          "velocity": 0.8818897637795275
        },
        {
          "duration": 1.7371304999999921,
          "durationTicks": 189,
          "midi": 61,
          "name": "C#4",
          "ticks": 10417,
          "time": 95.74438316666667,
          "velocity": 0.8740157480314961
        },
        {
          "duration": 1.7555128333333272,
          "durationTicks": 191,
          "midi": 32,
          "name": "G#1",
          "ticks": 10608,
          "time": 97.499896,
          "velocity": 0.84251968503937
        },
        {
          "duration": 1.7555128333333272,
          "durationTicks": 191,
          "midi": 44,
          "name": "G#2",
          "ticks": 10608,
          "time": 97.499896,
          "velocity": 0.8503937007874016
        },
        {
          "duration": 0.6617639999999909,
          "durationTicks": 72,
          "midi": 65,
          "name": "F4",
          "ticks": 10608,
          "time": 97.499896,
          "velocity": 0.7007874015748031
        },
        {
          "duration": 0.6617640000000051,
          "durationTicks": 72,
          "midi": 58,
          "name": "A#3",
          "ticks": 10609,
          "time": 97.50908716666666,
          "velocity": 0.905511811023622
        },
        {
          "duration": 0.6617640000000051,
          "durationTicks": 72,
          "midi": 61,
          "name": "C#4",
          "ticks": 10609,
          "time": 97.50908716666666,
          "velocity": 0.8740157480314961
        },
        {
          "duration": 1.0845576666666545,
          "durationTicks": 118,
          "midi": 51,
          "name": "D#3",
          "ticks": 10680,
          "time": 98.16166,
          "velocity": 0.8031496062992126
        },
        {
          "duration": 1.0845576666666545,
          "durationTicks": 118,
          "midi": 56,
          "name": "G#3",
          "ticks": 10680,
          "time": 98.16166,
          "velocity": 0.8818897637795275
        },
        {
          "duration": 1.0845576666666688,
          "durationTicks": 118,
          "midi": 60,
          "name": "C4",
          "ticks": 10681,
          "time": 98.17085116666667,
          "velocity": 0.889763779527559
        },
        {
          "duration": 1.075366499999987,
          "durationTicks": 117,
          "midi": 63,
          "name": "D#4",
          "ticks": 10681,
          "time": 98.17085116666667,
          "velocity": 0.8976377952755905
        },
        {
          "duration": 1.5165425,
          "durationTicks": 165,
          "midi": 37,
          "name": "C#2",
          "ticks": 10800,
          "time": 99.2646,
          "velocity": 0.8582677165354331
        },
        {
          "duration": 1.5165425,
          "durationTicks": 165,
          "midi": 49,
          "name": "C#3",
          "ticks": 10800,
          "time": 99.2646,
          "velocity": 0.8582677165354331
        },
        {
          "duration": 1.5073513333333324,
          "durationTicks": 164,
          "midi": 56,
          "name": "G#3",
          "ticks": 10800,
          "time": 99.2646,
          "velocity": 0.8740157480314961
        },
        {
          "duration": 1.5073513333333324,
          "durationTicks": 164,
          "midi": 60,
          "name": "C4",
          "ticks": 10800,
          "time": 99.2646,
          "velocity": 0.84251968503937
        },
        {
          "duration": 1.5165425,
          "durationTicks": 165,
          "midi": 63,
          "name": "D#4",
          "ticks": 10801,
          "time": 99.27379116666665,
          "velocity": 0.8346456692913385
        },
        {
          "duration": 1.5073513333333466,
          "durationTicks": 164,
          "midi": 65,
          "name": "F4",
          "ticks": 10801,
          "time": 99.27379116666665,
          "velocity": 0.8503937007874016
        },
        {
          "duration": 0.4227936666666494,
          "durationTicks": 46,
          "midi": 34,
          "name": "A#1",
          "ticks": 10968,
          "time": 100.808716,
          "velocity": 0.8582677165354331
        },
        {
          "duration": 0.4227936666666494,
          "durationTicks": 46,
          "midi": 60,
          "name": "C4",
          "ticks": 10968,
          "time": 100.808716,
          "velocity": 0.8582677165354331
        },
        {
          "duration": 0.4227936666666494,
          "durationTicks": 46,
          "midi": 63,
          "name": "D#4",
          "ticks": 10968,
          "time": 100.808716,
          "velocity": 0.84251968503937
        },
        {
          "duration": 0.42279366666667784,
          "durationTicks": 46,
          "midi": 65,
          "name": "F4",
          "ticks": 10969,
          "time": 100.81790716666666,
          "velocity": 0.8582677165354331
        },
        {
          "duration": 0.4136024999999961,
          "durationTicks": 45,
          "midi": 68,
          "name": "G#4",
          "ticks": 10969,
          "time": 100.81790716666666,
          "velocity": 0.8740157480314961
        },
        {
          "duration": 0.19301450000000386,
          "durationTicks": 21,
          "midi": 34,
          "name": "A#1",
          "ticks": 11016,
          "time": 101.249892,
          "velocity": 0.8188976377952756
        },
        {
          "duration": 0.20220566666665718,
          "durationTicks": 22,
          "midi": 60,
          "name": "C4",
          "ticks": 11016,
          "time": 101.249892,
          "velocity": 0.8740157480314961
        },
        {
          "duration": 0.19301450000000386,
          "durationTicks": 21,
          "midi": 63,
          "name": "D#4",
          "ticks": 11016,
          "time": 101.249892,
          "velocity": 0.8740157480314961
        },
        {
          "duration": 0.19301450000000386,
          "durationTicks": 21,
          "midi": 65,
          "name": "F4",
          "ticks": 11017,
          "time": 101.25908316666666,
          "velocity": 0.889763779527559
        },
        {
          "duration": 0.19301450000000386,
          "durationTicks": 21,
          "midi": 68,
          "name": "G#4",
          "ticks": 11017,
          "time": 101.25908316666666,
          "velocity": 0.8976377952755905
        },
        {
          "duration": 0.19301450000000386,
          "durationTicks": 21,
          "midi": 34,
          "name": "A#1",
          "ticks": 11040,
          "time": 101.47048,
          "velocity": 0.84251968503937
        },
        {
          "duration": 0.19301450000000386,
          "durationTicks": 21,
          "midi": 60,
          "name": "C4",
          "ticks": 11040,
          "time": 101.47048,
          "velocity": 0.84251968503937
        },
        {
          "duration": 0.18382333333333634,
          "durationTicks": 20,
          "midi": 63,
          "name": "D#4",
          "ticks": 11040,
          "time": 101.47048,
          "velocity": 0.8503937007874016
        },
        {
          "duration": 0.18382333333333634,
          "durationTicks": 20,
          "midi": 65,
          "name": "F4",
          "ticks": 11041,
          "time": 101.47967116666666,
          "velocity": 0.8976377952755905
        },
        {
          "duration": 0.18382333333333634,
          "durationTicks": 20,
          "midi": 70,
          "name": "A#4",
          "ticks": 11041,
          "time": 101.47967116666666,
          "velocity": 0.7322834645669292
        },
        {
          "duration": 0.20220566666665718,
          "durationTicks": 22,
          "midi": 34,
          "name": "A#1",
          "ticks": 11064,
          "time": 101.691068,
          "velocity": 0.8661417322834646
        },
        {
          "duration": 0.20220566666665718,
          "durationTicks": 22,
          "midi": 58,
          "name": "A#3",
          "ticks": 11064,
          "time": 101.691068,
          "velocity": 0.8582677165354331
        },
        {
          "duration": 0.19301450000000386,
          "durationTicks": 21,
          "midi": 62,
          "name": "D4",
          "ticks": 11064,
          "time": 101.691068,
          "velocity": 0.8661417322834646
        },
        {
          "duration": 0.19301450000000386,
          "durationTicks": 21,
          "midi": 65,
          "name": "F4",
          "ticks": 11065,
          "time": 101.70025916666665,
          "velocity": 0.8976377952755905
        },
        {
          "duration": 0.19301450000000386,
          "durationTicks": 21,
          "midi": 70,
          "name": "A#4",
          "ticks": 11065,
          "time": 101.70025916666665,
          "velocity": 0.905511811023622
        },
        {
          "duration": 1.0845576666666545,
          "durationTicks": 118,
          "midi": 30,
          "name": "F#1",
          "ticks": 11184,
          "time": 102.794008,
          "velocity": 0.889763779527559
        },
        {
          "duration": 1.0753665000000012,
          "durationTicks": 117,
          "midi": 42,
          "name": "F#2",
          "ticks": 11184,
          "time": 102.794008,
          "velocity": 0.8582677165354331
        },
        {
          "duration": 0.6433816666666559,
          "durationTicks": 70,
          "midi": 61,
          "name": "C#4",
          "ticks": 11184,
          "time": 102.794008,
          "velocity": 0.8661417322834646
        },
        {
          "duration": 0.6433816666666701,
          "durationTicks": 70,
          "midi": 65,
          "name": "F4",
          "ticks": 11185,
          "time": 102.80319916666666,
          "velocity": 0.8818897637795275
        },
        {
          "duration": 0.6433816666666701,
          "durationTicks": 70,
          "midi": 56,
          "name": "G#3",
          "ticks": 11185,
          "time": 102.80319916666666,
          "velocity": 0.8582677165354331
        },
        {
          "duration": 0.4411759999999987,
          "durationTicks": 48,
          "midi": 61,
          "name": "C#4",
          "ticks": 11256,
          "time": 103.455772,
          "velocity": 0.8661417322834646
        },
        {
          "duration": 0.43198483333333115,
          "durationTicks": 47,
          "midi": 65,
          "name": "F4",
          "ticks": 11256,
          "time": 103.455772,
          "velocity": 0.8818897637795275
        },
        {
          "duration": 0.43198483333333115,
          "durationTicks": 47,
          "midi": 56,
          "name": "G#3",
          "ticks": 11257,
          "time": 103.46496316666666,
          "velocity": 0.8582677165354331
        },
        {
          "duration": 0.6433816666666701,
          "durationTicks": 70,
          "midi": 30,
          "name": "F#1",
          "ticks": 11304,
          "time": 103.896948,
          "velocity": 0.7952755905511811
        },
        {
          "duration": 0.6433816666666701,
          "durationTicks": 70,
          "midi": 42,
          "name": "F#2",
          "ticks": 11304,
          "time": 103.896948,
          "velocity": 0.7480314960629921
        },
        {
          "duration": 0.39522016666666104,
          "durationTicks": 43,
          "midi": 61,
          "name": "C#4",
          "ticks": 11304,
          "time": 103.896948,
          "velocity": 0.8661417322834646
        },
        {
          "duration": 0.39522016666666104,
          "durationTicks": 43,
          "midi": 65,
          "name": "F4",
          "ticks": 11305,
          "time": 103.90613916666666,
          "velocity": 0.8503937007874016
        },
        {
          "duration": 0.39522016666666104,
          "durationTicks": 43,
          "midi": 56,
          "name": "G#3",
          "ticks": 11305,
          "time": 103.90613916666666,
          "velocity": 0.84251968503937
        },
        {
          "duration": 0.4411759999999987,
          "durationTicks": 48,
          "midi": 61,
          "name": "C#4",
          "ticks": 11352,
          "time": 104.33812400000001,
          "velocity": 0.8661417322834646
        },
        {
          "duration": 0.4411759999999987,
          "durationTicks": 48,
          "midi": 65,
          "name": "F4",
          "ticks": 11352,
          "time": 104.33812400000001,
          "velocity": 0.8818897637795275
        },
        {
          "duration": 0.43198483333334536,
          "durationTicks": 47,
          "midi": 56,
          "name": "G#3",
          "ticks": 11353,
          "time": 104.34731516666666,
          "velocity": 0.8582677165354331
        },
        {
          "duration": 1.0753665000000012,
          "durationTicks": 117,
          "midi": 32,
          "name": "G#1",
          "ticks": 11376,
          "time": 104.558712,
          "velocity": 0.889763779527559
        },
        {
          "duration": 1.084557666666683,
          "durationTicks": 118,
          "midi": 44,
          "name": "G#2",
          "ticks": 11377,
          "time": 104.56790316666665,
          "velocity": 0.8503937007874016
        },
        {
          "duration": 0.22058799999999223,
          "durationTicks": 24,
          "midi": 61,
          "name": "C#4",
          "ticks": 11400,
          "time": 104.7793,
          "velocity": 0.8503937007874016
        },
        {
          "duration": 0.22058800000000645,
          "durationTicks": 24,
          "midi": 65,
          "name": "F4",
          "ticks": 11401,
          "time": 104.78849116666666,
          "velocity": 0.8582677165354331
        },
        {
          "duration": 0.21139683333333892,
          "durationTicks": 23,
          "midi": 56,
          "name": "G#3",
          "ticks": 11401,
          "time": 104.78849116666666,
          "velocity": 0.8740157480314961
        },
        {
          "duration": 0.43198483333333115,
          "durationTicks": 47,
          "midi": 60,
          "name": "C4",
          "ticks": 11424,
          "time": 104.999888,
          "velocity": 0.8661417322834646
        },
        {
          "duration": 0.43198483333333115,
          "durationTicks": 47,
          "midi": 63,
          "name": "D#4",
          "ticks": 11424,
          "time": 104.999888,
          "velocity": 0.8661417322834646
        },
        {
          "duration": 0.4227936666666636,
          "durationTicks": 46,
          "midi": 56,
          "name": "G#3",
          "ticks": 11425,
          "time": 105.00907916666667,
          "velocity": 0.8503937007874016
        },
        {
          "duration": 0.22058800000000645,
          "durationTicks": 24,
          "midi": 61,
          "name": "C#4",
          "ticks": 11472,
          "time": 105.441064,
          "velocity": 0.8503937007874016
        },
        {
          "duration": 0.22058800000000645,
          "durationTicks": 24,
          "midi": 65,
          "name": "F4",
          "ticks": 11472,
          "time": 105.441064,
          "velocity": 0.8582677165354331
        },
        {
          "duration": 0.21139683333333892,
          "durationTicks": 23,
          "midi": 56,
          "name": "G#3",
          "ticks": 11473,
          "time": 105.45025516666666,
          "velocity": 0.8740157480314961
        },
        {
          "duration": 0.6433816666666559,
          "durationTicks": 70,
          "midi": 32,
          "name": "G#1",
          "ticks": 11496,
          "time": 105.661652,
          "velocity": 0.8582677165354331
        },
        {
          "duration": 0.6433816666666559,
          "durationTicks": 70,
          "midi": 44,
          "name": "G#2",
          "ticks": 11496,
          "time": 105.661652,
          "velocity": 0.8267716535433071
        },
        {
          "duration": 0.6433816666666559,
          "durationTicks": 70,
          "midi": 60,
          "name": "C4",
          "ticks": 11496,
          "time": 105.661652,
          "velocity": 0.8582677165354331
        },
        {
          "duration": 0.6433816666666701,
          "durationTicks": 70,
          "midi": 63,
          "name": "D#4",
          "ticks": 11497,
          "time": 105.67084316666666,
          "velocity": 0.8503937007874016
        },
        {
          "duration": 0.6433816666666701,
          "durationTicks": 70,
          "midi": 56,
          "name": "G#3",
          "ticks": 11497,
          "time": 105.67084316666666,
          "velocity": 0.8267716535433071
        },
        {
          "duration": 1.7463216666666597,
          "durationTicks": 190,
          "midi": 34,
          "name": "A#1",
          "ticks": 11568,
          "time": 106.323416,
          "velocity": 0.889763779527559
        },
        {
          "duration": 1.7463216666666597,
          "durationTicks": 190,
          "midi": 46,
          "name": "A#2",
          "ticks": 11568,
          "time": 106.323416,
          "velocity": 0.8582677165354331
        },
        {
          "duration": 0.6433816666666701,
          "durationTicks": 70,
          "midi": 60,
          "name": "C4",
          "ticks": 11568,
          "time": 106.323416,
          "velocity": 0.8661417322834646
        },
        {
          "duration": 0.6433816666666701,
          "durationTicks": 70,
          "midi": 65,
          "name": "F4",
          "ticks": 11569,
          "time": 106.33260716666666,
          "velocity": 0.8818897637795275
        },
        {
          "duration": 0.6433816666666701,
          "durationTicks": 70,
          "midi": 68,
          "name": "G#4",
          "ticks": 11569,
          "time": 106.33260716666666,
          "velocity": 0.8582677165354331
        },
        {
          "duration": 0.4411759999999987,
          "durationTicks": 48,
          "midi": 60,
          "name": "C4",
          "ticks": 11640,
          "time": 106.98518,
          "velocity": 0.8661417322834646
        },
        {
          "duration": 0.4411759999999987,
          "durationTicks": 48,
          "midi": 65,
          "name": "F4",
          "ticks": 11640,
          "time": 106.98518,
          "velocity": 0.8818897637795275
        },
        {
          "duration": 0.43198483333334536,
          "durationTicks": 47,
          "midi": 68,
          "name": "G#4",
          "ticks": 11641,
          "time": 106.99437116666665,
          "velocity": 0.8582677165354331
        },
        {
          "duration": 0.39522016666666104,
          "durationTicks": 43,
          "midi": 60,
          "name": "C4",
          "ticks": 11688,
          "time": 107.426356,
          "velocity": 0.8661417322834646
        },
        {
          "duration": 0.39522016666666104,
          "durationTicks": 43,
          "midi": 63,
          "name": "D#4",
          "ticks": 11689,
          "time": 107.43554716666667,
          "velocity": 0.8503937007874016
        },
        {
          "duration": 0.39522016666666104,
          "durationTicks": 43,
          "midi": 68,
          "name": "G#4",
          "ticks": 11689,
          "time": 107.43554716666667,
          "velocity": 0.84251968503937
        },
        {
          "duration": 0.4411759999999987,
          "durationTicks": 48,
          "midi": 60,
          "name": "C4",
          "ticks": 11736,
          "time": 107.867532,
          "velocity": 0.8661417322834646
        },
        {
          "duration": 0.4411759999999987,
          "durationTicks": 48,
          "midi": 65,
          "name": "F4",
          "ticks": 11736,
          "time": 107.867532,
          "velocity": 0.8818897637795275
        },
        {
          "duration": 0.43198483333333115,
          "durationTicks": 47,
          "midi": 68,
          "name": "G#4",
          "ticks": 11737,
          "time": 107.87672316666666,
          "velocity": 0.8582677165354331
        },
        {
          "duration": 0.8639696666666623,
          "durationTicks": 94,
          "midi": 34,
          "name": "A#1",
          "ticks": 11760,
          "time": 108.08812,
          "velocity": 0.889763779527559
        },
        {
          "duration": 0.8639696666666765,
          "durationTicks": 94,
          "midi": 46,
          "name": "A#2",
          "ticks": 11761,
          "time": 108.09731116666666,
          "velocity": 0.8582677165354331
        },
        {
          "duration": 0.22058800000000645,
          "durationTicks": 24,
          "midi": 60,
          "name": "C4",
          "ticks": 11784,
          "time": 108.308708,
          "velocity": 0.8661417322834646
        },
        {
          "duration": 0.21139683333333892,
          "durationTicks": 23,
          "midi": 65,
          "name": "F4",
          "ticks": 11784,
          "time": 108.308708,
          "velocity": 0.8818897637795275
        },
        {
          "duration": 0.21139683333333892,
          "durationTicks": 23,
          "midi": 68,
          "name": "G#4",
          "ticks": 11785,
          "time": 108.31789916666666,
          "velocity": 0.8582677165354331
        },
        {
          "duration": 0.4411759999999987,
          "durationTicks": 48,
          "midi": 60,
          "name": "C4",
          "ticks": 11808,
          "time": 108.529296,
          "velocity": 0.8661417322834646
        },
        {
          "duration": 0.4411759999999987,
          "durationTicks": 48,
          "midi": 63,
          "name": "D#4",
          "ticks": 11808,
          "time": 108.529296,
          "velocity": 0.8818897637795275
        },
        {
          "duration": 0.43198483333334536,
          "durationTicks": 47,
          "midi": 68,
          "name": "G#4",
          "ticks": 11809,
          "time": 108.53848716666666,
          "velocity": 0.8582677165354331
        },
        {
          "duration": 0.8731608333333298,
          "durationTicks": 95,
          "midi": 34,
          "name": "A#1",
          "ticks": 11856,
          "time": 108.970472,
          "velocity": 0.8582677165354331
        },
        {
          "duration": 0.8639696666666623,
          "durationTicks": 94,
          "midi": 46,
          "name": "A#2",
          "ticks": 11856,
          "time": 108.970472,
          "velocity": 0.8346456692913385
        },
        {
          "duration": 0.22058800000000645,
          "durationTicks": 24,
          "midi": 61,
          "name": "C#4",
          "ticks": 11856,
          "time": 108.970472,
          "velocity": 0.8661417322834646
        },
        {
          "duration": 0.21139683333335313,
          "durationTicks": 23,
          "midi": 65,
          "name": "F4",
          "ticks": 11857,
          "time": 108.97966316666665,
          "velocity": 0.8503937007874016
        },
        {
          "duration": 0.21139683333335313,
          "durationTicks": 23,
          "midi": 68,
          "name": "G#4",
          "ticks": 11857,
          "time": 108.97966316666665,
          "velocity": 0.84251968503937
        },
        {
          "duration": 0.6433816666666559,
          "durationTicks": 70,
          "midi": 61,
          "name": "C#4",
          "ticks": 11880,
          "time": 109.19106000000001,
          "velocity": 0.8661417322834646
        },
        {
          "duration": 0.6433816666666559,
          "durationTicks": 70,
          "midi": 63,
          "name": "D#4",
          "ticks": 11880,
          "time": 109.19106000000001,
          "velocity": 0.8818897637795275
        },
        {
          "duration": 0.6341905000000025,
          "durationTicks": 69,
          "midi": 68,
          "name": "G#4",
          "ticks": 11881,
          "time": 109.20025116666666,
          "velocity": 0.8582677165354331
        },
        {
          "duration": 0.8639696666666623,
          "durationTicks": 94,
          "midi": 30,
          "name": "F#1",
          "ticks": 11952,
          "time": 109.852824,
          "velocity": 0.889763779527559
        },
        {
          "duration": 0.8639696666666623,
          "durationTicks": 94,
          "midi": 42,
          "name": "F#2",
          "ticks": 11952,
          "time": 109.852824,
          "velocity": 0.8582677165354331
        },
        {
          "duration": 0.43198483333333115,
          "durationTicks": 47,
          "midi": 61,
          "name": "C#4",
          "ticks": 11952,
          "time": 109.852824,
          "velocity": 0.8661417322834646
        },
        {
          "duration": 0.4227936666666636,
          "durationTicks": 46,
          "midi": 65,
          "name": "F4",
          "ticks": 11953,
          "time": 109.86201516666667,
          "velocity": 0.8818897637795275
        },
        {
          "duration": 0.4227936666666636,
          "durationTicks": 46,
          "midi": 56,
          "name": "G#3",
          "ticks": 11953,
          "time": 109.86201516666667,
          "velocity": 0.8582677165354331
        },
        {
          "duration": 0.4411759999999987,
          "durationTicks": 48,
          "midi": 61,
          "name": "C#4",
          "ticks": 12000,
          "time": 110.294,
          "velocity": 0.8661417322834646
        },
        {
          "duration": 0.43198483333333115,
          "durationTicks": 47,
          "midi": 65,
          "name": "F4",
          "ticks": 12000,
          "time": 110.294,
          "velocity": 0.8818897637795275
        },
        {
          "duration": 0.43198483333333115,
          "durationTicks": 47,
          "midi": 56,
          "name": "G#3",
          "ticks": 12001,
          "time": 110.30319116666666,
          "velocity": 0.8582677165354331
        },
        {
          "duration": 0.8639696666666623,
          "durationTicks": 94,
          "midi": 30,
          "name": "F#1",
          "ticks": 12048,
          "time": 110.735176,
          "velocity": 0.889763779527559
        },
        {
          "duration": 0.8639696666666623,
          "durationTicks": 94,
          "midi": 42,
          "name": "F#2",
          "ticks": 12049,
          "time": 110.74436716666666,
          "velocity": 0.8582677165354331
        },
        {
          "duration": 0.39522016666666104,
          "durationTicks": 43,
          "midi": 61,
          "name": "C#4",
          "ticks": 12072,
          "time": 110.955764,
          "velocity": 0.8661417322834646
        },
        {
          "duration": 0.39522016666666104,
          "durationTicks": 43,
          "midi": 65,
          "name": "F4",
          "ticks": 12072,
          "time": 110.955764,
          "velocity": 0.8503937007874016
        },
        {
          "duration": 0.39522016666667525,
          "durationTicks": 43,
          "midi": 56,
          "name": "G#3",
          "ticks": 12073,
          "time": 110.96495516666666,
          "velocity": 0.84251968503937
        },
        {
          "duration": 0.4411759999999987,
          "durationTicks": 48,
          "midi": 61,
          "name": "C#4",
          "ticks": 12120,
          "time": 111.39694,
          "velocity": 0.8661417322834646
        },
        {
          "duration": 0.4411759999999987,
          "durationTicks": 48,
          "midi": 65,
          "name": "F4",
          "ticks": 12120,
          "time": 111.39694,
          "velocity": 0.8818897637795275
        },
        {
          "duration": 0.43198483333334536,
          "durationTicks": 47,
          "midi": 56,
          "name": "G#3",
          "ticks": 12121,
          "time": 111.40613116666665,
          "velocity": 0.8582677165354331
        },
        {
          "duration": 1.075366499999987,
          "durationTicks": 117,
          "midi": 32,
          "name": "G#1",
          "ticks": 12144,
          "time": 111.61752800000001,
          "velocity": 0.889763779527559
        },
        {
          "duration": 1.0845576666666688,
          "durationTicks": 118,
          "midi": 44,
          "name": "G#2",
          "ticks": 12145,
          "time": 111.62671916666666,
          "velocity": 0.8503937007874016
        },
        {
          "duration": 0.22058800000000645,
          "durationTicks": 24,
          "midi": 61,
          "name": "C#4",
          "ticks": 12168,
          "time": 111.838116,
          "velocity": 0.8503937007874016
        },
        {
          "duration": 0.22058800000000645,
          "durationTicks": 24,
          "midi": 65,
          "name": "F4",
          "ticks": 12169,
          "time": 111.84730716666665,
          "velocity": 0.8582677165354331
        },
        {
          "duration": 0.21139683333335313,
          "durationTicks": 23,
          "midi": 56,
          "name": "G#3",
          "ticks": 12169,
          "time": 111.84730716666665,
          "velocity": 0.8740157480314961
        },
        {
          "duration": 0.43198483333333115,
          "durationTicks": 47,
          "midi": 60,
          "name": "C4",
          "ticks": 12192,
          "time": 112.058704,
          "velocity": 0.8661417322834646
        },
        {
          "duration": 0.43198483333333115,
          "durationTicks": 47,
          "midi": 63,
          "name": "D#4",
          "ticks": 12192,
          "time": 112.058704,
          "velocity": 0.8661417322834646
        },
        {
          "duration": 0.42279366666667784,
          "durationTicks": 46,
          "midi": 56,
          "name": "G#3",
          "ticks": 12193,
          "time": 112.06789516666666,
          "velocity": 0.8503937007874016
        },
        {
          "duration": 0.22058799999999223,
          "durationTicks": 24,
          "midi": 61,
          "name": "C#4",
          "ticks": 12240,
          "time": 112.49988,
          "velocity": 0.8503937007874016
        },
        {
          "duration": 0.22058799999999223,
          "durationTicks": 24,
          "midi": 65,
          "name": "F4",
          "ticks": 12240,
          "time": 112.49988,
          "velocity": 0.8582677165354331
        },
        {
          "duration": 0.21139683333333892,
          "durationTicks": 23,
          "midi": 56,
          "name": "G#3",
          "ticks": 12241,
          "time": 112.50907116666666,
          "velocity": 0.8740157480314961
        },
        {
          "duration": 0.6433816666666559,
          "durationTicks": 70,
          "midi": 32,
          "name": "G#1",
          "ticks": 12264,
          "time": 112.720468,
          "velocity": 0.8582677165354331
        },
        {
          "duration": 0.6433816666666559,
          "durationTicks": 70,
          "midi": 44,
          "name": "G#2",
          "ticks": 12264,
          "time": 112.720468,
          "velocity": 0.8267716535433071
        },
        {
          "duration": 0.6433816666666559,
          "durationTicks": 70,
          "midi": 60,
          "name": "C4",
          "ticks": 12264,
          "time": 112.720468,
          "velocity": 0.8582677165354331
        },
        {
          "duration": 0.6433816666666701,
          "durationTicks": 70,
          "midi": 63,
          "name": "D#4",
          "ticks": 12265,
          "time": 112.72965916666666,
          "velocity": 0.8503937007874016
        },
        {
          "duration": 0.6433816666666701,
          "durationTicks": 70,
          "midi": 56,
          "name": "G#3",
          "ticks": 12265,
          "time": 112.72965916666666,
          "velocity": 0.8267716535433071
        },
        {
          "duration": 0.8639696666666623,
          "durationTicks": 94,
          "midi": 34,
          "name": "A#1",
          "ticks": 12336,
          "time": 113.382232,
          "velocity": 0.889763779527559
        },
        {
          "duration": 0.8639696666666623,
          "durationTicks": 94,
          "midi": 46,
          "name": "A#2",
          "ticks": 12336,
          "time": 113.382232,
          "velocity": 0.8582677165354331
        },
        {
          "duration": 0.4411759999999987,
          "durationTicks": 48,
          "midi": 60,
          "name": "C4",
          "ticks": 12336,
          "time": 113.382232,
          "velocity": 0.8661417322834646
        },
        {
          "duration": 0.43198483333334536,
          "durationTicks": 47,
          "midi": 63,
          "name": "D#4",
          "ticks": 12337,
          "time": 113.39142316666666,
          "velocity": 0.8818897637795275
        },
        {
          "duration": 0.43198483333334536,
          "durationTicks": 47,
          "midi": 68,
          "name": "G#4",
          "ticks": 12337,
          "time": 113.39142316666666,
          "velocity": 0.8582677165354331
        },
        {
          "duration": 0.4411759999999987,
          "durationTicks": 48,
          "midi": 60,
          "name": "C4",
          "ticks": 12384,
          "time": 113.823408,
          "velocity": 0.8661417322834646
        },
        {
          "duration": 0.4411759999999987,
          "durationTicks": 48,
          "midi": 65,
          "name": "F4",
          "ticks": 12384,
          "time": 113.823408,
          "velocity": 0.8818897637795275
        },
        {
          "duration": 0.43198483333334536,
          "durationTicks": 47,
          "midi": 68,
          "name": "G#4",
          "ticks": 12385,
          "time": 113.83259916666665,
          "velocity": 0.8582677165354331
        },
        {
          "duration": 0.6433816666666701,
          "durationTicks": 70,
          "midi": 34,
          "name": "A#1",
          "ticks": 12432,
          "time": 114.264584,
          "velocity": 0.8582677165354331
        },
        {
          "duration": 0.6433816666666701,
          "durationTicks": 70,
          "midi": 46,
          "name": "A#2",
          "ticks": 12432,
          "time": 114.264584,
          "velocity": 0.8346456692913385
        },
        {
          "duration": 0.22058800000000645,
          "durationTicks": 24,
          "midi": 60,
          "name": "C4",
          "ticks": 12432,
          "time": 114.264584,
          "velocity": 0.8661417322834646
        },
        {
          "duration": 0.21139683333335313,
          "durationTicks": 23,
          "midi": 63,
          "name": "D#4",
          "ticks": 12433,
          "time": 114.27377516666665,
          "velocity": 0.8503937007874016
        },
        {
          "duration": 0.21139683333335313,
          "durationTicks": 23,
          "midi": 68,
          "name": "G#4",
          "ticks": 12433,
          "time": 114.27377516666665,
          "velocity": 0.84251968503937
        },
        {
          "duration": 0.44117599999998447,
          "durationTicks": 48,
          "midi": 60,
          "name": "C4",
          "ticks": 12456,
          "time": 114.485172,
          "velocity": 0.8661417322834646
        },
        {
          "duration": 0.44117599999998447,
          "durationTicks": 48,
          "midi": 65,
          "name": "F4",
          "ticks": 12456,
          "time": 114.485172,
          "velocity": 0.8818897637795275
        },
        {
          "duration": 0.43198483333333115,
          "durationTicks": 47,
          "midi": 68,
          "name": "G#4",
          "ticks": 12457,
          "time": 114.49436316666666,
          "velocity": 0.8582677165354331
        },
        {
          "duration": 1.084557666666683,
          "durationTicks": 118,
          "midi": 37,
          "name": "C#2",
          "ticks": 12504,
          "time": 114.92634799999999,
          "velocity": 0.889763779527559
        },
        {
          "duration": 1.084557666666683,
          "durationTicks": 118,
          "midi": 49,
          "name": "C#3",
          "ticks": 12504,
          "time": 114.92634799999999,
          "velocity": 0.8582677165354331
        },
        {
          "duration": 0.4411759999999987,
          "durationTicks": 48,
          "midi": 60,
          "name": "C4",
          "ticks": 12504,
          "time": 114.92634799999999,
          "velocity": 0.8661417322834646
        },
        {
          "duration": 0.43198483333331694,
          "durationTicks": 47,
          "midi": 63,
          "name": "D#4",
          "ticks": 12505,
          "time": 114.93553916666667,
          "velocity": 0.8818897637795275
        },
        {
          "duration": 0.43198483333331694,
          "durationTicks": 47,
          "midi": 68,
          "name": "G#4",
          "ticks": 12505,
          "time": 114.93553916666667,
          "velocity": 0.8582677165354331
        },
        {
          "duration": 0.6433816666666843,
          "durationTicks": 70,
          "midi": 60,
          "name": "C4",
          "ticks": 12552,
          "time": 115.36752399999999,
          "velocity": 0.8661417322834646
        },
        {
          "duration": 0.6433816666666843,
          "durationTicks": 70,
          "midi": 65,
          "name": "F4",
          "ticks": 12552,
          "time": 115.36752399999999,
          "velocity": 0.8818897637795275
        },
        {
          "duration": 0.6433816666666559,
          "durationTicks": 70,
          "midi": 68,
          "name": "G#4",
          "ticks": 12553,
          "time": 115.37671516666667,
          "velocity": 0.8582677165354331
        },
        {
          "duration": 0.8639696666666765,
          "durationTicks": 94,
          "midi": 37,
          "name": "C#2",
          "ticks": 12624,
          "time": 116.029288,
          "velocity": 0.889763779527559
        },
        {
          "duration": 0.8639696666666765,
          "durationTicks": 94,
          "midi": 49,
          "name": "C#3",
          "ticks": 12624,
          "time": 116.029288,
          "velocity": 0.8582677165354331
        },
        {
          "duration": 0.22058799999999223,
          "durationTicks": 24,
          "midi": 60,
          "name": "C4",
          "ticks": 12624,
          "time": 116.029288,
          "velocity": 0.8661417322834646
        },
        {
          "duration": 0.2113968333333105,
          "durationTicks": 23,
          "midi": 63,
          "name": "D#4",
          "ticks": 12625,
          "time": 116.03847916666668,
          "velocity": 0.8818897637795275
        },
        {
          "duration": 0.2113968333333105,
          "durationTicks": 23,
          "midi": 68,
          "name": "G#4",
          "ticks": 12625,
          "time": 116.03847916666668,
          "velocity": 0.8582677165354331
        },
        {
          "duration": 0.6433816666666843,
          "durationTicks": 70,
          "midi": 60,
          "name": "C4",
          "ticks": 12648,
          "time": 116.24987599999999,
          "velocity": 0.8661417322834646
        },
        {
          "duration": 0.6433816666666843,
          "durationTicks": 70,
          "midi": 65,
          "name": "F4",
          "ticks": 12648,
          "time": 116.24987599999999,
          "velocity": 0.8818897637795275
        },
        {
          "duration": 0.6433816666666559,
          "durationTicks": 70,
          "midi": 68,
          "name": "G#4",
          "ticks": 12649,
          "time": 116.25906716666667,
          "velocity": 0.8582677165354331
        },
        {
          "duration": 0.42279366666667784,
          "durationTicks": 46,
          "midi": 31,
          "name": "G1",
          "ticks": 12720,
          "time": 116.91163999999999,
          "velocity": 0.889763779527559
        },
        {
          "duration": 0.42279366666667784,
          "durationTicks": 46,
          "midi": 43,
          "name": "G2",
          "ticks": 12720,
          "time": 116.91163999999999,
          "velocity": 0.8582677165354331
        },
        {
          "duration": 0.6433816666666843,
          "durationTicks": 70,
          "midi": 61,
          "name": "C#4",
          "ticks": 12720,
          "time": 116.91163999999999,
          "velocity": 0.8661417322834646
        },
        {
          "duration": 0.6433816666666559,
          "durationTicks": 70,
          "midi": 65,
          "name": "F4",
          "ticks": 12721,
          "time": 116.92083116666667,
          "velocity": 0.8818897637795275
        },
        {
          "duration": 0.6433816666666559,
          "durationTicks": 70,
          "midi": 70,
          "name": "A#4",
          "ticks": 12721,
          "time": 116.92083116666667,
          "velocity": 0.8582677165354331
        },
        {
          "duration": 0.8639696666666765,
          "durationTicks": 94,
          "midi": 31,
          "name": "G1",
          "ticks": 12768,
          "time": 117.35281599999999,
          "velocity": 0.8503937007874016
        },
        {
          "duration": 0.8639696666666623,
          "durationTicks": 94,
          "midi": 43,
          "name": "G2",
          "ticks": 12769,
          "time": 117.36200716666667,
          "velocity": 0.8188976377952756
        },
        {
          "duration": 0.6433816666666843,
          "durationTicks": 70,
          "midi": 61,
          "name": "C#4",
          "ticks": 12792,
          "time": 117.57340399999998,
          "velocity": 0.8661417322834646
        },
        {
          "duration": 0.6341905000000025,
          "durationTicks": 69,
          "midi": 65,
          "name": "F4",
          "ticks": 12792,
          "time": 117.57340399999998,
          "velocity": 0.8818897637795275
        },
        {
          "duration": 0.6341904999999883,
          "durationTicks": 69,
          "midi": 70,
          "name": "A#4",
          "ticks": 12793,
          "time": 117.58259516666668,
          "velocity": 0.8582677165354331
        },
        {
          "duration": 0.4136024999999961,
          "durationTicks": 45,
          "midi": 31,
          "name": "G1",
          "ticks": 12864,
          "time": 118.23516799999999,
          "velocity": 0.8267716535433071
        },
        {
          "duration": 0.4044113333333428,
          "durationTicks": 44,
          "midi": 43,
          "name": "G2",
          "ticks": 12864,
          "time": 118.23516799999999,
          "velocity": 0.8031496062992126
        },
        {
          "duration": 0.6433816666666843,
          "durationTicks": 70,
          "midi": 61,
          "name": "C#4",
          "ticks": 12864,
          "time": 118.23516799999999,
          "velocity": 0.8661417322834646
        },
        {
          "duration": 0.6433816666666559,
          "durationTicks": 70,
          "midi": 65,
          "name": "F4",
          "ticks": 12865,
          "time": 118.24435916666667,
          "velocity": 0.8503937007874016
        },
        {
          "duration": 0.6433816666666559,
          "durationTicks": 70,
          "midi": 70,
          "name": "A#4",
          "ticks": 12865,
          "time": 118.24435916666667,
          "velocity": 0.84251968503937
        },
        {
          "duration": 0.43198483333334536,
          "durationTicks": 47,
          "midi": 30,
          "name": "F#1",
          "ticks": 12912,
          "time": 118.67634399999999,
          "velocity": 0.889763779527559
        },
        {
          "duration": 0.4227936666666636,
          "durationTicks": 46,
          "midi": 42,
          "name": "F#2",
          "ticks": 12913,
          "time": 118.68553516666667,
          "velocity": 0.8582677165354331
        },
        {
          "duration": 0.4411759999999987,
          "durationTicks": 48,
          "midi": 60,
          "name": "C4",
          "ticks": 12936,
          "time": 118.89693199999999,
          "velocity": 0.8661417322834646
        },
        {
          "duration": 0.4411759999999987,
          "durationTicks": 48,
          "midi": 61,
          "name": "C#4",
          "ticks": 12936,
          "time": 118.89693199999999,
          "velocity": 0.8267716535433071
        },
        {
          "duration": 0.4411759999999987,
          "durationTicks": 48,
          "midi": 65,
          "name": "F4",
          "ticks": 12936,
          "time": 118.89693199999999,
          "velocity": 0.8818897637795275
        },
        {
          "duration": 0.43198483333331694,
          "durationTicks": 47,
          "midi": 70,
          "name": "A#4",
          "ticks": 12937,
          "time": 118.90612316666667,
          "velocity": 0.7007874015748031
        },
        {
          "duration": 0.873160833333344,
          "durationTicks": 95,
          "midi": 30,
          "name": "F#1",
          "ticks": 12960,
          "time": 119.11751999999998,
          "velocity": 0.8267716535433071
        },
        {
          "duration": 0.8639696666666623,
          "durationTicks": 94,
          "midi": 42,
          "name": "F#2",
          "ticks": 12961,
          "time": 119.12671116666667,
          "velocity": 0.8346456692913385
        },
        {
          "duration": 0.6433816666666843,
          "durationTicks": 70,
          "midi": 60,
          "name": "C4",
          "ticks": 12984,
          "time": 119.33810799999999,
          "velocity": 0.84251968503937
        },
        {
          "duration": 0.6433816666666843,
          "durationTicks": 70,
          "midi": 61,
          "name": "C#4",
          "ticks": 12984,
          "time": 119.33810799999999,
          "velocity": 0.8503937007874016
        },
        {
          "duration": 0.6341905000000025,
          "durationTicks": 69,
          "midi": 65,
          "name": "F4",
          "ticks": 12984,
          "time": 119.33810799999999,
          "velocity": 0.8661417322834646
        },
        {
          "duration": 0.6341905000000025,
          "durationTicks": 69,
          "midi": 70,
          "name": "A#4",
          "ticks": 12985,
          "time": 119.34729916666667,
          "velocity": 0.6377952755905512
        },
        {
          "duration": 0.4136025000000103,
          "durationTicks": 45,
          "midi": 30,
          "name": "F#1",
          "ticks": 13056,
          "time": 119.99987199999998,
          "velocity": 0.8110236220472441
        },
        {
          "duration": 0.4044113333333428,
          "durationTicks": 44,
          "midi": 42,
          "name": "F#2",
          "ticks": 13056,
          "time": 119.99987199999998,
          "velocity": 0.7795275590551181
        },
        {
          "duration": 0.39522016666668947,
          "durationTicks": 43,
          "midi": 61,
          "name": "C#4",
          "ticks": 13056,
          "time": 119.99987199999998,
          "velocity": 0.8818897637795275
        },
        {
          "duration": 0.39522016666664683,
          "durationTicks": 43,
          "midi": 65,
          "name": "F4",
          "ticks": 13057,
          "time": 120.00906316666668,
          "velocity": 0.8661417322834646
        },
        {
          "duration": 0.39522016666664683,
          "durationTicks": 43,
          "midi": 70,
          "name": "A#4",
          "ticks": 13057,
          "time": 120.00906316666668,
          "velocity": 0.8818897637795275
        },
        {
          "duration": 0.43198483333333115,
          "durationTicks": 47,
          "midi": 29,
          "name": "F1",
          "ticks": 13104,
          "time": 120.441048,
          "velocity": 0.8582677165354331
        },
        {
          "duration": 0.4227936666666494,
          "durationTicks": 46,
          "midi": 41,
          "name": "F2",
          "ticks": 13105,
          "time": 120.45023916666668,
          "velocity": 0.8740157480314961
        },
        {
          "duration": 0.4411759999999987,
          "durationTicks": 48,
          "midi": 60,
          "name": "C4",
          "ticks": 13128,
          "time": 120.66163599999999,
          "velocity": 0.8267716535433071
        },
        {
          "duration": 0.4411759999999987,
          "durationTicks": 48,
          "midi": 63,
          "name": "D#4",
          "ticks": 13128,
          "time": 120.66163599999999,
          "velocity": 0.8818897637795275
        },
        {
          "duration": 0.43198483333331694,
          "durationTicks": 47,
          "midi": 68,
          "name": "G#4",
          "ticks": 13129,
          "time": 120.67082716666667,
          "velocity": 0.84251968503937
        },
        {
          "duration": 0.873160833333344,
          "durationTicks": 95,
          "midi": 29,
          "name": "F1",
          "ticks": 13152,
          "time": 120.882224,
          "velocity": 0.8110236220472441
        },
        {
          "duration": 0.8639696666666623,
          "durationTicks": 94,
          "midi": 41,
          "name": "F2",
          "ticks": 13153,
          "time": 120.89141516666668,
          "velocity": 0.8110236220472441
        },
        {
          "duration": 0.4411759999999987,
          "durationTicks": 48,
          "midi": 60,
          "name": "C4",
          "ticks": 13176,
          "time": 121.10281199999999,
          "velocity": 0.8503937007874016
        },
        {
          "duration": 0.42279366666669205,
          "durationTicks": 46,
          "midi": 63,
          "name": "D#4",
          "ticks": 13176,
          "time": 121.10281199999999,
          "velocity": 0.8661417322834646
        },
        {
          "duration": 0.4227936666666636,
          "durationTicks": 46,
          "midi": 68,
          "name": "G#4",
          "ticks": 13177,
          "time": 121.11200316666667,
          "velocity": 0.8661417322834646
        },
        {
          "duration": 0.3400731666666843,
          "durationTicks": 37,
          "midi": 60,
          "name": "C4",
          "ticks": 13224,
          "time": 121.54398799999998,
          "velocity": 0.8503937007874016
        },
        {
          "duration": 0.33088200000000256,
          "durationTicks": 36,
          "midi": 63,
          "name": "D#4",
          "ticks": 13224,
          "time": 121.54398799999998,
          "velocity": 0.8661417322834646
        },
        {
          "duration": 0.33088200000000256,
          "durationTicks": 36,
          "midi": 68,
          "name": "G#4",
          "ticks": 13225,
          "time": 121.55317916666667,
          "velocity": 0.8661417322834646
        },
        {
          "duration": 0.18382333333333634,
          "durationTicks": 20,
          "midi": 29,
          "name": "F1",
          "ticks": 13248,
          "time": 121.76457599999999,
          "velocity": 0.7795275590551181
        },
        {
          "duration": 0.1746321666666546,
          "durationTicks": 19,
          "midi": 41,
          "name": "F2",
          "ticks": 13249,
          "time": 121.77376716666667,
          "velocity": 0.8031496062992126
        },
        {
          "duration": 0.6525728333333518,
          "durationTicks": 71,
          "midi": 34,
          "name": "A#1",
          "ticks": 13272,
          "time": 121.98516399999998,
          "velocity": 0.8582677165354331
        },
        {
          "duration": 0.6525728333333518,
          "durationTicks": 71,
          "midi": 46,
          "name": "A#2",
          "ticks": 13272,
          "time": 121.98516399999998,
          "velocity": 0.8740157480314961
        },
        {
          "duration": 0.4411759999999987,
          "durationTicks": 48,
          "midi": 60,
          "name": "C4",
          "ticks": 13272,
          "time": 121.98516399999998,
          "velocity": 0.8267716535433071
        },
        {
          "duration": 0.43198483333330273,
          "durationTicks": 47,
          "midi": 63,
          "name": "D#4",
          "ticks": 13273,
          "time": 121.99435516666668,
          "velocity": 0.8818897637795275
        },
        {
          "duration": 0.43198483333330273,
          "durationTicks": 47,
          "midi": 68,
          "name": "G#4",
          "ticks": 13273,
          "time": 121.99435516666668,
          "velocity": 0.84251968503937
        },
        {
          "duration": 0.22058800000000645,
          "durationTicks": 24,
          "midi": 60,
          "name": "C4",
          "ticks": 13320,
          "time": 122.42633999999998,
          "velocity": 0.8582677165354331
        },
        {
          "duration": 0.22058800000000645,
          "durationTicks": 24,
          "midi": 63,
          "name": "D#4",
          "ticks": 13320,
          "time": 122.42633999999998,
          "velocity": 0.8503937007874016
        },
        {
          "duration": 0.2113968333333105,
          "durationTicks": 23,
          "midi": 68,
          "name": "G#4",
          "ticks": 13321,
          "time": 122.43553116666668,
          "velocity": 0.8582677165354331
        },
        {
          "duration": 0.22058800000000645,
          "durationTicks": 24,
          "midi": 34,
          "name": "A#1",
          "ticks": 13344,
          "time": 122.64692799999999,
          "velocity": 0.8661417322834646
        },
        {
          "duration": 0.2113968333333247,
          "durationTicks": 23,
          "midi": 46,
          "name": "A#2",
          "ticks": 13345,
          "time": 122.65611916666667,
          "velocity": 0.8346456692913385
        },
        {
          "duration": 0.42279366666667784,
          "durationTicks": 46,
          "midi": 34,
          "name": "A#1",
          "ticks": 13368,
          "time": 122.867516,
          "velocity": 0.889763779527559
        },
        {
          "duration": 0.42279366666667784,
          "durationTicks": 46,
          "midi": 46,
          "name": "A#2",
          "ticks": 13368,
          "time": 122.867516,
          "velocity": 0.8582677165354331
        },
        {
          "duration": 0.6433816666666843,
          "durationTicks": 70,
          "midi": 61,
          "name": "C#4",
          "ticks": 13368,
          "time": 122.867516,
          "velocity": 0.8661417322834646
        },
        {
          "duration": 0.6433816666666559,
          "durationTicks": 70,
          "midi": 63,
          "name": "D#4",
          "ticks": 13369,
          "time": 122.87670716666668,
          "velocity": 0.8818897637795275
        },
        {
          "duration": 0.6433816666666559,
          "durationTicks": 70,
          "midi": 68,
          "name": "G#4",
          "ticks": 13369,
          "time": 122.87670716666668,
          "velocity": 0.8582677165354331
        },
        {
          "duration": 0.6525728333333376,
          "durationTicks": 71,
          "midi": 34,
          "name": "A#1",
          "ticks": 13416,
          "time": 123.308692,
          "velocity": 0.889763779527559
        },
        {
          "duration": 0.6433816666666559,
          "durationTicks": 70,
          "midi": 46,
          "name": "A#2",
          "ticks": 13417,
          "time": 123.31788316666668,
          "velocity": 0.8582677165354331
        },
        {
          "duration": 0.43198483333334536,
          "durationTicks": 47,
          "midi": 61,
          "name": "C#4",
          "ticks": 13440,
          "time": 123.52927999999999,
          "velocity": 0.8582677165354331
        },
        {
          "duration": 0.42279366666669205,
          "durationTicks": 46,
          "midi": 63,
          "name": "D#4",
          "ticks": 13440,
          "time": 123.52927999999999,
          "velocity": 0.8661417322834646
        },
        {
          "duration": 0.4227936666666636,
          "durationTicks": 46,
          "midi": 68,
          "name": "G#4",
          "ticks": 13441,
          "time": 123.53847116666667,
          "velocity": 0.8661417322834646
        },
        {
          "duration": 0.6433816666666843,
          "durationTicks": 70,
          "midi": 27,
          "name": "D#1",
          "ticks": 13488,
          "time": 123.97045599999998,
          "velocity": 0.889763779527559
        },
        {
          "duration": 0.6433816666666843,
          "durationTicks": 70,
          "midi": 39,
          "name": "D#2",
          "ticks": 13488,
          "time": 123.97045599999998,
          "velocity": 0.8582677165354331
        },
        {
          "duration": 0.6433816666666843,
          "durationTicks": 70,
          "midi": 61,
          "name": "C#4",
          "ticks": 13488,
          "time": 123.97045599999998,
          "velocity": 0.8818897637795275
        },
        {
          "duration": 0.6433816666666701,
          "durationTicks": 70,
          "midi": 66,
          "name": "F#4",
          "ticks": 13489,
          "time": 123.97964716666667,
          "velocity": 0.8818897637795275
        },
        {
          "duration": 0.6433816666666701,
          "durationTicks": 70,
          "midi": 58,
          "name": "A#3",
          "ticks": 13489,
          "time": 123.97964716666667,
          "velocity": 0.8582677165354331
        },
        {
          "duration": 0.873160833333344,
          "durationTicks": 95,
          "midi": 41,
          "name": "F2",
          "ticks": 13560,
          "time": 124.63221999999999,
          "velocity": 0.889763779527559
        },
        {
          "duration": 0.8639696666666765,
          "durationTicks": 94,
          "midi": 29,
          "name": "F1",
          "ticks": 13560,
          "time": 124.63221999999999,
          "velocity": 0.8582677165354331
        },
        {
          "duration": 0.43198483333334536,
          "durationTicks": 47,
          "midi": 60,
          "name": "C4",
          "ticks": 13560,
          "time": 124.63221999999999,
          "velocity": 0.889763779527559
        },
        {
          "duration": 0.43198483333331694,
          "durationTicks": 47,
          "midi": 63,
          "name": "D#4",
          "ticks": 13561,
          "time": 124.64141116666667,
          "velocity": 0.8661417322834646
        },
        {
          "duration": 0.43198483333331694,
          "durationTicks": 47,
          "midi": 68,
          "name": "G#4",
          "ticks": 13561,
          "time": 124.64141116666667,
          "velocity": 0.8582677165354331
        },
        {
          "duration": 0.42279366666667784,
          "durationTicks": 46,
          "midi": 60,
          "name": "C4",
          "ticks": 13608,
          "time": 125.07339599999999,
          "velocity": 0.8503937007874016
        },
        {
          "duration": 0.4136024999999961,
          "durationTicks": 45,
          "midi": 63,
          "name": "D#4",
          "ticks": 13608,
          "time": 125.07339599999999,
          "velocity": 0.8503937007874016
        },
        {
          "duration": 0.40441133333331436,
          "durationTicks": 44,
          "midi": 68,
          "name": "G#4",
          "ticks": 13609,
          "time": 125.08258716666667,
          "velocity": 0.889763779527559
        },
        {
          "duration": 0.854778500000009,
          "durationTicks": 93,
          "midi": 42,
          "name": "F#2",
          "ticks": 13656,
          "time": 125.51457199999999,
          "velocity": 0.8661417322834646
        },
        {
          "duration": 0.854778500000009,
          "durationTicks": 93,
          "midi": 30,
          "name": "F#1",
          "ticks": 13656,
          "time": 125.51457199999999,
          "velocity": 0.84251968503937
        },
        {
          "duration": 0.4411759999999987,
          "durationTicks": 48,
          "midi": 61,
          "name": "C#4",
          "ticks": 13656,
          "time": 125.51457199999999,
          "velocity": 0.8818897637795275
        },
        {
          "duration": 0.43198483333331694,
          "durationTicks": 47,
          "midi": 65,
          "name": "F4",
          "ticks": 13657,
          "time": 125.52376316666667,
          "velocity": 0.8818897637795275
        },
        {
          "duration": 0.43198483333331694,
          "durationTicks": 47,
          "midi": 70,
          "name": "A#4",
          "ticks": 13657,
          "time": 125.52376316666667,
          "velocity": 0.8582677165354331
        },
        {
          "duration": 0.43198483333334536,
          "durationTicks": 47,
          "midi": 61,
          "name": "C#4",
          "ticks": 13704,
          "time": 125.95574799999999,
          "velocity": 0.8818897637795275
        },
        {
          "duration": 0.42279366666669205,
          "durationTicks": 46,
          "midi": 65,
          "name": "F4",
          "ticks": 13704,
          "time": 125.95574799999999,
          "velocity": 0.8818897637795275
        },
        {
          "duration": 0.4227936666666636,
          "durationTicks": 46,
          "midi": 70,
          "name": "A#4",
          "ticks": 13705,
          "time": 125.96493916666667,
          "velocity": 0.8582677165354331
        },
        {
          "duration": 1.084557666666683,
          "durationTicks": 118,
          "midi": 43,
          "name": "G2",
          "ticks": 13752,
          "time": 126.39692399999998,
          "velocity": 0.905511811023622
        },
        {
          "duration": 1.0937488333333505,
          "durationTicks": 119,
          "midi": 31,
          "name": "G1",
          "ticks": 13752,
          "time": 126.39692399999998,
          "velocity": 0.8818897637795275
        },
        {
          "duration": 0.43198483333334536,
          "durationTicks": 47,
          "midi": 61,
          "name": "C#4",
          "ticks": 13752,
          "time": 126.39692399999998,
          "velocity": 0.905511811023622
        },
        {
          "duration": 0.43198483333334536,
          "durationTicks": 47,
          "midi": 63,
          "name": "D#4",
          "ticks": 13752,
          "time": 126.39692399999998,
          "velocity": 0.905511811023622
        },
        {
          "duration": 0.43198483333331694,
          "durationTicks": 47,
          "midi": 70,
          "name": "A#4",
          "ticks": 13753,
          "time": 126.40611516666667,
          "velocity": 0.8582677165354331
        },
        {
          "duration": 0.6433816666666843,
          "durationTicks": 70,
          "midi": 61,
          "name": "C#4",
          "ticks": 13800,
          "time": 126.83809999999998,
          "velocity": 0.8818897637795275
        },
        {
          "duration": 0.6433816666666843,
          "durationTicks": 70,
          "midi": 63,
          "name": "D#4",
          "ticks": 13800,
          "time": 126.83809999999998,
          "velocity": 0.8661417322834646
        },
        {
          "duration": 0.6433816666666559,
          "durationTicks": 70,
          "midi": 70,
          "name": "A#4",
          "ticks": 13801,
          "time": 126.84729116666668,
          "velocity": 0.889763779527559
        },
        {
          "duration": 1.2867633333333544,
          "durationTicks": 140,
          "midi": 32,
          "name": "G#1",
          "ticks": 13872,
          "time": 127.49986399999999,
          "velocity": 0.8661417322834646
        },
        {
          "duration": 1.3051456666666894,
          "durationTicks": 142,
          "midi": 44,
          "name": "G#2",
          "ticks": 13872,
          "time": 127.49986399999999,
          "velocity": 0.8740157480314961
        },
        {
          "duration": 0.4411759999999987,
          "durationTicks": 48,
          "midi": 61,
          "name": "C#4",
          "ticks": 13872,
          "time": 127.49986399999999,
          "velocity": 0.8346456692913385
        },
        {
          "duration": 0.43198483333331694,
          "durationTicks": 47,
          "midi": 65,
          "name": "F4",
          "ticks": 13873,
          "time": 127.50905516666667,
          "velocity": 0.8188976377952756
        },
        {
          "duration": 0.43198483333331694,
          "durationTicks": 47,
          "midi": 70,
          "name": "A#4",
          "ticks": 13873,
          "time": 127.50905516666667,
          "velocity": 0.889763779527559
        },
        {
          "duration": 0.42279366666670626,
          "durationTicks": 46,
          "midi": 61,
          "name": "C#4",
          "ticks": 13920,
          "time": 127.94103999999999,
          "velocity": 0.8110236220472441
        },
        {
          "duration": 0.4136024999999961,
          "durationTicks": 45,
          "midi": 65,
          "name": "F4",
          "ticks": 13920,
          "time": 127.94103999999999,
          "velocity": 0.8110236220472441
        },
        {
          "duration": 0.4136025000000245,
          "durationTicks": 45,
          "midi": 70,
          "name": "A#4",
          "ticks": 13921,
          "time": 127.95023116666667,
          "velocity": 0.905511811023622
        },
        {
          "duration": 0.22058799999999223,
          "durationTicks": 24,
          "midi": 61,
          "name": "C#4",
          "ticks": 13968,
          "time": 128.382216,
          "velocity": 0.8582677165354331
        },
        {
          "duration": 0.2113968333333105,
          "durationTicks": 23,
          "midi": 65,
          "name": "F4",
          "ticks": 13969,
          "time": 128.39140716666668,
          "velocity": 0.8188976377952756
        },
        {
          "duration": 0.2113968333333105,
          "durationTicks": 23,
          "midi": 70,
          "name": "A#4",
          "ticks": 13969,
          "time": 128.39140716666668,
          "velocity": 0.889763779527559
        },
        {
          "duration": 0.22058799999999223,
          "durationTicks": 24,
          "midi": 61,
          "name": "C#4",
          "ticks": 13992,
          "time": 128.602804,
          "velocity": 0.8582677165354331
        },
        {
          "duration": 0.21139683333333892,
          "durationTicks": 23,
          "midi": 65,
          "name": "F4",
          "ticks": 13992,
          "time": 128.602804,
          "velocity": 0.8188976377952756
        },
        {
          "duration": 0.2113968333333105,
          "durationTicks": 23,
          "midi": 70,
          "name": "A#4",
          "ticks": 13993,
          "time": 128.61199516666667,
          "velocity": 0.889763779527559
        },
        {
          "duration": 0.17463216666669723,
          "durationTicks": 19,
          "midi": 27,
          "name": "D#1",
          "ticks": 14016,
          "time": 128.82339199999998,
          "velocity": 0.7086614173228346
        },
        {
          "duration": 0.18382333333332213,
          "durationTicks": 20,
          "midi": 39,
          "name": "D#2",
          "ticks": 14017,
          "time": 128.83258316666667,
          "velocity": 0.7559055118110236
        },
        {
          "duration": 0.6525728333333234,
          "durationTicks": 71,
          "midi": 41,
          "name": "F2",
          "ticks": 14040,
          "time": 129.04398,
          "velocity": 0.8661417322834646
        },
        {
          "duration": 0.6525728333333234,
          "durationTicks": 71,
          "midi": 29,
          "name": "F1",
          "ticks": 14040,
          "time": 129.04398,
          "velocity": 0.84251968503937
        },
        {
          "duration": 0.44117599999998447,
          "durationTicks": 48,
          "midi": 57,
          "name": "A3",
          "ticks": 14040,
          "time": 129.04398,
          "velocity": 0.8582677165354331
        },
        {
          "duration": 0.44117599999998447,
          "durationTicks": 48,
          "midi": 60,
          "name": "C4",
          "ticks": 14040,
          "time": 129.04398,
          "velocity": 0.8818897637795275
        },
        {
          "duration": 0.43198483333330273,
          "durationTicks": 47,
          "midi": 63,
          "name": "D#4",
          "ticks": 14041,
          "time": 129.0531711666667,
          "velocity": 0.8582677165354331
        },
        {
          "duration": 0.43198483333330273,
          "durationTicks": 47,
          "midi": 68,
          "name": "G#4",
          "ticks": 14041,
          "time": 129.0531711666667,
          "velocity": 0.9448818897637795
        },
        {
          "duration": 0.4411760000000129,
          "durationTicks": 48,
          "midi": 57,
          "name": "A3",
          "ticks": 14088,
          "time": 129.485156,
          "velocity": 0.8346456692913385
        },
        {
          "duration": 0.4411760000000129,
          "durationTicks": 48,
          "midi": 60,
          "name": "C4",
          "ticks": 14088,
          "time": 129.485156,
          "velocity": 0.84251968503937
        },
        {
          "duration": 0.43198483333333115,
          "durationTicks": 47,
          "midi": 63,
          "name": "D#4",
          "ticks": 14089,
          "time": 129.49434716666667,
          "velocity": 0.8503937007874016
        },
        {
          "duration": 0.43198483333333115,
          "durationTicks": 47,
          "midi": 66,
          "name": "F#4",
          "ticks": 14089,
          "time": 129.49434716666667,
          "velocity": 0.9606299212598425
        },
        {
          "duration": 0.6525728333333234,
          "durationTicks": 71,
          "midi": 41,
          "name": "F2",
          "ticks": 14112,
          "time": 129.705744,
          "velocity": 0.84251968503937
        },
        {
          "duration": 0.6525728333333234,
          "durationTicks": 71,
          "midi": 29,
          "name": "F1",
          "ticks": 14113,
          "time": 129.7149351666667,
          "velocity": 0.8188976377952756
        },
        {
          "duration": 0.4411760000000129,
          "durationTicks": 48,
          "midi": 57,
          "name": "A3",
          "ticks": 14136,
          "time": 129.926332,
          "velocity": 0.8582677165354331
        },
        {
          "duration": 0.4411760000000129,
          "durationTicks": 48,
          "midi": 60,
          "name": "C4",
          "ticks": 14136,
          "time": 129.926332,
          "velocity": 0.8503937007874016
        },
        {
          "duration": 0.43198483333333115,
          "durationTicks": 47,
          "midi": 63,
          "name": "D#4",
          "ticks": 14137,
          "time": 129.93552316666668,
          "velocity": 0.9133858267716536
        },
        {
          "duration": 0.6341904999999883,
          "durationTicks": 69,
          "midi": 41,
          "name": "F2",
          "ticks": 14184,
          "time": 130.36750800000002,
          "velocity": 0.7795275590551181
        },
        {
          "duration": 0.6341904999999883,
          "durationTicks": 69,
          "midi": 29,
          "name": "F1",
          "ticks": 14184,
          "time": 130.36750800000002,
          "velocity": 0.7637795275590551
        },
        {
          "duration": 0.22058799999999223,
          "durationTicks": 24,
          "midi": 69,
          "name": "A4",
          "ticks": 14185,
          "time": 130.3766991666667,
          "velocity": 0.905511811023622
        },
        {
          "duration": 0.22058799999999223,
          "durationTicks": 24,
          "midi": 63,
          "name": "D#4",
          "ticks": 14208,
          "time": 130.588096,
          "velocity": 0.889763779527559
        },
        {
          "duration": 0.21139683333333892,
          "durationTicks": 23,
          "midi": 60,
          "name": "C4",
          "ticks": 14232,
          "time": 130.808684,
          "velocity": 0.9133858267716536
        },
        {
          "duration": 0.19301450000000386,
          "durationTicks": 21,
          "midi": 82,
          "name": "A#5",
          "ticks": 14256,
          "time": 131.029272,
          "velocity": 0.8110236220472441
        },
        {
          "duration": 0.18382333333335055,
          "durationTicks": 20,
          "midi": 94,
          "name": "A#6",
          "ticks": 14256,
          "time": 131.029272,
          "velocity": 0.8110236220472441
        },
        {
          "duration": 0.19301450000000386,
          "durationTicks": 21,
          "midi": 77,
          "name": "F5",
          "ticks": 14280,
          "time": 131.24986,
          "velocity": 0.7401574803149606
        },
        {
          "duration": 0.18382333333332213,
          "durationTicks": 20,
          "midi": 89,
          "name": "F6",
          "ticks": 14280,
          "time": 131.24986,
          "velocity": 0.7401574803149606
        },
        {
          "duration": 0.19301450000000386,
          "durationTicks": 21,
          "midi": 85,
          "name": "C#6",
          "ticks": 14304,
          "time": 131.470448,
          "velocity": 0.8267716535433071
        },
        {
          "duration": 0.19301450000000386,
          "durationTicks": 21,
          "midi": 97,
          "name": "C#7",
          "ticks": 14304,
          "time": 131.470448,
          "velocity": 0.8267716535433071
        },
        {
          "duration": 0.18382333333335055,
          "durationTicks": 20,
          "midi": 84,
          "name": "C6",
          "ticks": 14328,
          "time": 131.691036,
          "velocity": 0.8110236220472441
        },
        {
          "duration": 0.18382333333332213,
          "durationTicks": 20,
          "midi": 96,
          "name": "C7",
          "ticks": 14329,
          "time": 131.70022716666668,
          "velocity": 0.8110236220472441
        },
        {
          "duration": 0.18382333333332213,
          "durationTicks": 20,
          "midi": 80,
          "name": "G#5",
          "ticks": 14352,
          "time": 131.91162400000002,
          "velocity": 0.8346456692913385
        },
        {
          "duration": 0.19301449999997544,
          "durationTicks": 21,
          "midi": 92,
          "name": "G#6",
          "ticks": 14352,
          "time": 131.91162400000002,
          "velocity": 0.8267716535433071
        },
        {
          "duration": 0.19301450000000386,
          "durationTicks": 21,
          "midi": 75,
          "name": "D#5",
          "ticks": 14376,
          "time": 132.132212,
          "velocity": 0.8267716535433071
        },
        {
          "duration": 0.18382333333332213,
          "durationTicks": 20,
          "midi": 87,
          "name": "D#6",
          "ticks": 14377,
          "time": 132.1414031666667,
          "velocity": 0.8346456692913385
        },
        {
          "duration": 0.19301450000000386,
          "durationTicks": 21,
          "midi": 72,
          "name": "C5",
          "ticks": 14400,
          "time": 132.3528,
          "velocity": 0.8110236220472441
        },
        {
          "duration": 0.18382333333335055,
          "durationTicks": 20,
          "midi": 84,
          "name": "C6",
          "ticks": 14400,
          "time": 132.3528,
          "velocity": 0.8110236220472441
        },
        {
          "duration": 0.19301450000000386,
          "durationTicks": 21,
          "midi": 78,
          "name": "F#5",
          "ticks": 14424,
          "time": 132.573388,
          "velocity": 0.7874015748031497
        },
        {
          "duration": 0.1746321666666688,
          "durationTicks": 19,
          "midi": 90,
          "name": "F#6",
          "ticks": 14425,
          "time": 132.58257916666668,
          "velocity": 0.7952755905511811
        },
        {
          "duration": 0.19301449999997544,
          "durationTicks": 21,
          "midi": 73,
          "name": "C#5",
          "ticks": 14448,
          "time": 132.79397600000001,
          "velocity": 0.7952755905511811
        },
        {
          "duration": 0.18382333333332213,
          "durationTicks": 20,
          "midi": 85,
          "name": "C#6",
          "ticks": 14448,
          "time": 132.79397600000001,
          "velocity": 0.7874015748031497
        },
        {
          "duration": 0.19301450000000386,
          "durationTicks": 21,
          "midi": 70,
          "name": "A#4",
          "ticks": 14472,
          "time": 133.014564,
          "velocity": 0.8110236220472441
        },
        {
          "duration": 0.19301450000000386,
          "durationTicks": 21,
          "midi": 82,
          "name": "A#5",
          "ticks": 14472,
          "time": 133.014564,
          "velocity": 0.8110236220472441
        },
        {
          "duration": 0.18382333333335055,
          "durationTicks": 20,
          "midi": 82,
          "name": "A#5",
          "ticks": 14496,
          "time": 133.235152,
          "velocity": 0.8267716535433071
        },
        {
          "duration": 0.18382333333332213,
          "durationTicks": 20,
          "midi": 94,
          "name": "A#6",
          "ticks": 14497,
          "time": 133.24434316666668,
          "velocity": 0.8267716535433071
        },
        {
          "duration": 0.18382333333335055,
          "durationTicks": 20,
          "midi": 80,
          "name": "G#5",
          "ticks": 14520,
          "time": 133.45574,
          "velocity": 0.8110236220472441
        },
        {
          "duration": 0.19301450000000386,
          "durationTicks": 21,
          "midi": 92,
          "name": "G#6",
          "ticks": 14520,
          "time": 133.45574,
          "velocity": 0.8110236220472441
        },
        {
          "duration": 0.19301450000000386,
          "durationTicks": 21,
          "midi": 75,
          "name": "D#5",
          "ticks": 14544,
          "time": 133.676328,
          "velocity": 0.7795275590551181
        },
        {
          "duration": 0.18382333333332213,
          "durationTicks": 20,
          "midi": 87,
          "name": "D#6",
          "ticks": 14544,
          "time": 133.676328,
          "velocity": 0.7874015748031497
        },
        {
          "duration": 0.18382333333335055,
          "durationTicks": 20,
          "midi": 72,
          "name": "C5",
          "ticks": 14568,
          "time": 133.896916,
          "velocity": 0.7952755905511811
        },
        {
          "duration": 0.18382333333332213,
          "durationTicks": 20,
          "midi": 84,
          "name": "C6",
          "ticks": 14569,
          "time": 133.9061071666667,
          "velocity": 0.8031496062992126
        },
        {
          "duration": 0.18382333333335055,
          "durationTicks": 20,
          "midi": 68,
          "name": "G#4",
          "ticks": 14592,
          "time": 134.117504,
          "velocity": 0.8110236220472441
        },
        {
          "duration": 0.18382333333335055,
          "durationTicks": 20,
          "midi": 80,
          "name": "G#5",
          "ticks": 14592,
          "time": 134.117504,
          "velocity": 0.8110236220472441
        },
        {
          "duration": 0.19301449999997544,
          "durationTicks": 21,
          "midi": 80,
          "name": "G#5",
          "ticks": 14616,
          "time": 134.33809200000002,
          "velocity": 0.8346456692913385
        },
        {
          "duration": 0.1838233333332937,
          "durationTicks": 20,
          "midi": 92,
          "name": "G#6",
          "ticks": 14617,
          "time": 134.3472831666667,
          "velocity": 0.8346456692913385
        },
        {
          "duration": 0.18382333333332213,
          "durationTicks": 20,
          "midi": 78,
          "name": "F#5",
          "ticks": 14640,
          "time": 134.55868,
          "velocity": 0.7952755905511811
        },
        {
          "duration": 0.18382333333332213,
          "durationTicks": 20,
          "midi": 90,
          "name": "F#6",
          "ticks": 14640,
          "time": 134.55868,
          "velocity": 0.7874015748031497
        },
        {
          "duration": 0.19301450000000386,
          "durationTicks": 21,
          "midi": 77,
          "name": "F5",
          "ticks": 14664,
          "time": 134.779268,
          "velocity": 0.5590551181102362
        },
        {
          "duration": 0.1746321666666688,
          "durationTicks": 19,
          "midi": 89,
          "name": "F6",
          "ticks": 14665,
          "time": 134.78845916666668,
          "velocity": 0.5748031496062992
        },
        {
          "duration": 0.18382333333335055,
          "durationTicks": 20,
          "midi": 73,
          "name": "C#5",
          "ticks": 14688,
          "time": 134.999856,
          "velocity": 0.8346456692913385
        },
        {
          "duration": 0.18382333333335055,
          "durationTicks": 20,
          "midi": 85,
          "name": "C#6",
          "ticks": 14688,
          "time": 134.999856,
          "velocity": 0.8346456692913385
        },
        {
          "duration": 0.19301449999997544,
          "durationTicks": 21,
          "midi": 80,
          "name": "G#5",
          "ticks": 14712,
          "time": 135.22044400000001,
          "velocity": 0.8110236220472441
        },
        {
          "duration": 0.1746321666666404,
          "durationTicks": 19,
          "midi": 92,
          "name": "G#6",
          "ticks": 14713,
          "time": 135.2296351666667,
          "velocity": 0.8110236220472441
        },
        {
          "duration": 0.18382333333335055,
          "durationTicks": 20,
          "midi": 75,
          "name": "D#5",
          "ticks": 14736,
          "time": 135.441032,
          "velocity": 0.8110236220472441
        },
        {
          "duration": 0.19301450000000386,
          "durationTicks": 21,
          "midi": 87,
          "name": "D#6",
          "ticks": 14736,
          "time": 135.441032,
          "velocity": 0.8110236220472441
        },
        {
          "duration": 0.18382333333335055,
          "durationTicks": 20,
          "midi": 72,
          "name": "C5",
          "ticks": 14760,
          "time": 135.66162,
          "velocity": 0.7874015748031497
        },
        {
          "duration": 0.19301450000000386,
          "durationTicks": 21,
          "midi": 84,
          "name": "C6",
          "ticks": 14760,
          "time": 135.66162,
          "velocity": 0.7952755905511811
        },
        {
          "duration": 0.18382333333335055,
          "durationTicks": 20,
          "midi": 80,
          "name": "G#5",
          "ticks": 14784,
          "time": 135.882208,
          "velocity": 0.8346456692913385
        },
        {
          "duration": 0.18382333333332213,
          "durationTicks": 20,
          "midi": 92,
          "name": "G#6",
          "ticks": 14785,
          "time": 135.89139916666667,
          "velocity": 0.8346456692913385
        },
        {
          "duration": 1.5349248333333207,
          "durationTicks": 167,
          "midi": 82,
          "name": "A#5",
          "ticks": 14808,
          "time": 136.102796,
          "velocity": 0.84251968503937
        },
        {
          "duration": 1.5349248333333207,
          "durationTicks": 167,
          "midi": 94,
          "name": "A#6",
          "ticks": 14808,
          "time": 136.102796,
          "velocity": 0.84251968503937
        },
        {
          "duration": 0.8639696666666907,
          "durationTicks": 94,
          "midi": 30,
          "name": "F#1",
          "ticks": 15024,
          "time": 138.088088,
          "velocity": 0.8346456692913385
        },
        {
          "duration": 0.8639696666666907,
          "durationTicks": 94,
          "midi": 42,
          "name": "F#2",
          "ticks": 15024,
          "time": 138.088088,
          "velocity": 0.8031496062992126
        },
        {
          "duration": 0.4411760000000129,
          "durationTicks": 48,
          "midi": 61,
          "name": "C#4",
          "ticks": 15024,
          "time": 138.088088,
          "velocity": 0.8110236220472441
        },
        {
          "duration": 0.43198483333333115,
          "durationTicks": 47,
          "midi": 66,
          "name": "F#4",
          "ticks": 15025,
          "time": 138.09727916666668,
          "velocity": 0.8267716535433071
        },
        {
          "duration": 0.43198483333333115,
          "durationTicks": 47,
          "midi": 56,
          "name": "G#3",
          "ticks": 15025,
          "time": 138.09727916666668,
          "velocity": 0.8031496062992126
        },
        {
          "duration": 0.44117599999998447,
          "durationTicks": 48,
          "midi": 61,
          "name": "C#4",
          "ticks": 15072,
          "time": 138.529264,
          "velocity": 0.8110236220472441
        },
        {
          "duration": 0.44117599999998447,
          "durationTicks": 48,
          "midi": 65,
          "name": "F4",
          "ticks": 15072,
          "time": 138.529264,
          "velocity": 0.8110236220472441
        },
        {
          "duration": 0.43198483333330273,
          "durationTicks": 47,
          "midi": 56,
          "name": "G#3",
          "ticks": 15073,
          "time": 138.5384551666667,
          "velocity": 0.7795275590551181
        },
        {
          "duration": 0.873160833333344,
          "durationTicks": 95,
          "midi": 30,
          "name": "F#1",
          "ticks": 15120,
          "time": 138.97044,
          "velocity": 0.7716535433070866
        },
        {
          "duration": 0.854778500000009,
          "durationTicks": 93,
          "midi": 42,
          "name": "F#2",
          "ticks": 15120,
          "time": 138.97044,
          "velocity": 0.7480314960629921
        },
        {
          "duration": 0.22058800000002066,
          "durationTicks": 24,
          "midi": 61,
          "name": "C#4",
          "ticks": 15120,
          "time": 138.97044,
          "velocity": 0.8110236220472441
        },
        {
          "duration": 0.21139683333333892,
          "durationTicks": 23,
          "midi": 66,
          "name": "F#4",
          "ticks": 15121,
          "time": 138.97963116666668,
          "velocity": 0.8110236220472441
        },
        {
          "duration": 0.21139683333333892,
          "durationTicks": 23,
          "midi": 56,
          "name": "G#3",
          "ticks": 15121,
          "time": 138.97963116666668,
          "velocity": 0.7795275590551181
        },
        {
          "duration": 0.44117599999998447,
          "durationTicks": 48,
          "midi": 61,
          "name": "C#4",
          "ticks": 15144,
          "time": 139.19102800000002,
          "velocity": 0.8267716535433071
        },
        {
          "duration": 0.44117599999998447,
          "durationTicks": 48,
          "midi": 65,
          "name": "F4",
          "ticks": 15144,
          "time": 139.19102800000002,
          "velocity": 0.7795275590551181
        },
        {
          "duration": 0.43198483333330273,
          "durationTicks": 47,
          "midi": 56,
          "name": "G#3",
          "ticks": 15145,
          "time": 139.2002191666667,
          "velocity": 0.7952755905511811
        },
        {
          "duration": 0.22058799999999223,
          "durationTicks": 24,
          "midi": 61,
          "name": "C#4",
          "ticks": 15192,
          "time": 139.632204,
          "velocity": 0.8267716535433071
        },
        {
          "duration": 0.22058799999999223,
          "durationTicks": 24,
          "midi": 66,
          "name": "F#4",
          "ticks": 15192,
          "time": 139.632204,
          "velocity": 0.7952755905511811
        },
        {
          "duration": 0.2113968333333105,
          "durationTicks": 23,
          "midi": 56,
          "name": "G#3",
          "ticks": 15193,
          "time": 139.64139516666668,
          "velocity": 0.7716535433070866
        },
        {
          "duration": 0.873160833333344,
          "durationTicks": 95,
          "midi": 32,
          "name": "G#1",
          "ticks": 15216,
          "time": 139.852792,
          "velocity": 0.8110236220472441
        },
        {
          "duration": 0.8731608333333156,
          "durationTicks": 95,
          "midi": 44,
          "name": "G#2",
          "ticks": 15217,
          "time": 139.86198316666668,
          "velocity": 0.8031496062992126
        },
        {
          "duration": 0.44117599999998447,
          "durationTicks": 48,
          "midi": 56,
          "name": "G#3",
          "ticks": 15240,
          "time": 140.07338000000001,
          "velocity": 0.8267716535433071
        },
        {
          "duration": 0.44117599999998447,
          "durationTicks": 48,
          "midi": 61,
          "name": "C#4",
          "ticks": 15240,
          "time": 140.07338000000001,
          "velocity": 0.8267716535433071
        },
        {
          "duration": 0.43198483333330273,
          "durationTicks": 47,
          "midi": 65,
          "name": "F4",
          "ticks": 15241,
          "time": 140.0825711666667,
          "velocity": 0.8110236220472441
        },
        {
          "duration": 0.4411760000000129,
          "durationTicks": 48,
          "midi": 63,
          "name": "D#4",
          "ticks": 15288,
          "time": 140.514556,
          "velocity": 0.7952755905511811
        },
        {
          "duration": 0.4411760000000129,
          "durationTicks": 48,
          "midi": 61,
          "name": "C#4",
          "ticks": 15288,
          "time": 140.514556,
          "velocity": 0.7795275590551181
        },
        {
          "duration": 0.43198483333333115,
          "durationTicks": 47,
          "midi": 56,
          "name": "G#3",
          "ticks": 15289,
          "time": 140.52374716666668,
          "velocity": 0.8110236220472441
        },
        {
          "duration": 0.873160833333344,
          "durationTicks": 95,
          "midi": 32,
          "name": "G#1",
          "ticks": 15312,
          "time": 140.735144,
          "velocity": 0.7795275590551181
        },
        {
          "duration": 0.873160833333344,
          "durationTicks": 95,
          "midi": 44,
          "name": "G#2",
          "ticks": 15313,
          "time": 140.74433516666667,
          "velocity": 0.7480314960629921
        },
        {
          "duration": 0.6433816666666701,
          "durationTicks": 70,
          "midi": 56,
          "name": "G#3",
          "ticks": 15336,
          "time": 140.955732,
          "velocity": 0.8031496062992126
        },
        {
          "duration": 0.6341904999999883,
          "durationTicks": 69,
          "midi": 61,
          "name": "C#4",
          "ticks": 15336,
          "time": 140.955732,
          "velocity": 0.8110236220472441
        },
        {
          "duration": 0.6341904999999883,
          "durationTicks": 69,
          "midi": 63,
          "name": "D#4",
          "ticks": 15337,
          "time": 140.9649231666667,
          "velocity": 0.7952755905511811
        },
        {
          "duration": 0.6525728333333234,
          "durationTicks": 71,
          "midi": 37,
          "name": "C#2",
          "ticks": 15408,
          "time": 141.61749600000002,
          "velocity": 0.7795275590551181
        },
        {
          "duration": 0.6525728333333234,
          "durationTicks": 71,
          "midi": 49,
          "name": "C#3",
          "ticks": 15408,
          "time": 141.61749600000002,
          "velocity": 0.7952755905511811
        },
        {
          "duration": 0.43198483333333115,
          "durationTicks": 47,
          "midi": 60,
          "name": "C4",
          "ticks": 15408,
          "time": 141.61749600000002,
          "velocity": 0.8267716535433071
        },
        {
          "duration": 0.43198483333330273,
          "durationTicks": 47,
          "midi": 63,
          "name": "D#4",
          "ticks": 15409,
          "time": 141.6266871666667,
          "velocity": 0.8031496062992126
        },
        {
          "duration": 0.43198483333330273,
          "durationTicks": 47,
          "midi": 68,
          "name": "G#4",
          "ticks": 15409,
          "time": 141.6266871666667,
          "velocity": 0.8110236220472441
        },
        {
          "duration": 0.43198483333333115,
          "durationTicks": 47,
          "midi": 60,
          "name": "C4",
          "ticks": 15456,
          "time": 142.058672,
          "velocity": 0.8267716535433071
        },
        {
          "duration": 0.43198483333333115,
          "durationTicks": 47,
          "midi": 63,
          "name": "D#4",
          "ticks": 15457,
          "time": 142.06786316666668,
          "velocity": 0.8031496062992126
        },
        {
          "duration": 0.43198483333333115,
          "durationTicks": 47,
          "midi": 68,
          "name": "G#4",
          "ticks": 15457,
          "time": 142.06786316666668,
          "velocity": 0.8110236220472441
        },
        {
          "duration": 0.6617640000000051,
          "durationTicks": 72,
          "midi": 37,
          "name": "C#2",
          "ticks": 15480,
          "time": 142.27926,
          "velocity": 0.7480314960629921
        },
        {
          "duration": 0.6617640000000051,
          "durationTicks": 72,
          "midi": 49,
          "name": "C#3",
          "ticks": 15481,
          "time": 142.28845116666668,
          "velocity": 0.7874015748031497
        },
        {
          "duration": 0.22058799999999223,
          "durationTicks": 24,
          "midi": 60,
          "name": "C4",
          "ticks": 15528,
          "time": 142.720436,
          "velocity": 0.7952755905511811
        },
        {
          "duration": 0.22058799999999223,
          "durationTicks": 24,
          "midi": 63,
          "name": "D#4",
          "ticks": 15528,
          "time": 142.720436,
          "velocity": 0.8031496062992126
        },
        {
          "duration": 0.2113968333333105,
          "durationTicks": 23,
          "midi": 68,
          "name": "G#4",
          "ticks": 15529,
          "time": 142.7296271666667,
          "velocity": 0.8110236220472441
        },
        {
          "duration": 0.22058799999999223,
          "durationTicks": 24,
          "midi": 60,
          "name": "C4",
          "ticks": 15552,
          "time": 142.941024,
          "velocity": 0.7480314960629921
        },
        {
          "duration": 0.22058799999999223,
          "durationTicks": 24,
          "midi": 63,
          "name": "D#4",
          "ticks": 15552,
          "time": 142.941024,
          "velocity": 0.7716535433070866
        },
        {
          "duration": 0.2113968333333105,
          "durationTicks": 23,
          "midi": 66,
          "name": "F#4",
          "ticks": 15553,
          "time": 142.95021516666668,
          "velocity": 0.7716535433070866
        },
        {
          "duration": 0.21139683333336734,
          "durationTicks": 23,
          "midi": 36,
          "name": "C2",
          "ticks": 15576,
          "time": 143.161612,
          "velocity": 0.7716535433070866
        },
        {
          "duration": 0.21139683333336734,
          "durationTicks": 23,
          "midi": 48,
          "name": "C3",
          "ticks": 15576,
          "time": 143.161612,
          "velocity": 0.7559055118110236
        },
        {
          "duration": 0.22058800000002066,
          "durationTicks": 24,
          "midi": 66,
          "name": "F#4",
          "ticks": 15576,
          "time": 143.161612,
          "velocity": 0.7716535433070866
        },
        {
          "duration": 0.22058799999999223,
          "durationTicks": 24,
          "midi": 60,
          "name": "C4",
          "ticks": 15577,
          "time": 143.1708031666667,
          "velocity": 0.7637795275590551
        },
        {
          "duration": 0.2113968333333105,
          "durationTicks": 23,
          "midi": 63,
          "name": "D#4",
          "ticks": 15577,
          "time": 143.1708031666667,
          "velocity": 0.7559055118110236
        },
        {
          "duration": 0.873160833333344,
          "durationTicks": 95,
          "midi": 34,
          "name": "A#1",
          "ticks": 15600,
          "time": 143.3822,
          "velocity": 0.8110236220472441
        },
        {
          "duration": 0.8731608333333156,
          "durationTicks": 95,
          "midi": 46,
          "name": "A#2",
          "ticks": 15601,
          "time": 143.3913911666667,
          "velocity": 0.8031496062992126
        },
        {
          "duration": 0.4411760000000129,
          "durationTicks": 48,
          "midi": 56,
          "name": "G#3",
          "ticks": 15624,
          "time": 143.602788,
          "velocity": 0.8267716535433071
        },
        {
          "duration": 0.4411760000000129,
          "durationTicks": 48,
          "midi": 61,
          "name": "C#4",
          "ticks": 15624,
          "time": 143.602788,
          "velocity": 0.8267716535433071
        },
        {
          "duration": 0.43198483333333115,
          "durationTicks": 47,
          "midi": 65,
          "name": "F4",
          "ticks": 15625,
          "time": 143.61197916666669,
          "velocity": 0.8110236220472441
        },
        {
          "duration": 0.44117599999998447,
          "durationTicks": 48,
          "midi": 65,
          "name": "F4",
          "ticks": 15672,
          "time": 144.04396400000002,
          "velocity": 0.7952755905511811
        },
        {
          "duration": 0.44117599999998447,
          "durationTicks": 48,
          "midi": 61,
          "name": "C#4",
          "ticks": 15672,
          "time": 144.04396400000002,
          "velocity": 0.7795275590551181
        },
        {
          "duration": 0.43198483333330273,
          "durationTicks": 47,
          "midi": 56,
          "name": "G#3",
          "ticks": 15673,
          "time": 144.0531551666667,
          "velocity": 0.8110236220472441
        },
        {
          "duration": 0.42279366666667784,
          "durationTicks": 46,
          "midi": 34,
          "name": "A#1",
          "ticks": 15696,
          "time": 144.264552,
          "velocity": 0.7795275590551181
        },
        {
          "duration": 0.4227936666666494,
          "durationTicks": 46,
          "midi": 46,
          "name": "A#2",
          "ticks": 15697,
          "time": 144.2737431666667,
          "velocity": 0.7480314960629921
        },
        {
          "duration": 0.6433816666666985,
          "durationTicks": 70,
          "midi": 56,
          "name": "G#3",
          "ticks": 15720,
          "time": 144.48514,
          "velocity": 0.8031496062992126
        },
        {
          "duration": 0.6341905000000168,
          "durationTicks": 69,
          "midi": 61,
          "name": "C#4",
          "ticks": 15720,
          "time": 144.48514,
          "velocity": 0.8110236220472441
        },
        {
          "duration": 0.6341905000000168,
          "durationTicks": 69,
          "midi": 63,
          "name": "D#4",
          "ticks": 15721,
          "time": 144.49433116666668,
          "velocity": 0.7952755905511811
        },
        {
          "duration": 0.4411760000000129,
          "durationTicks": 48,
          "midi": 32,
          "name": "G#1",
          "ticks": 15744,
          "time": 144.705728,
          "velocity": 0.7559055118110236
        },
        {
          "duration": 0.43198483333333115,
          "durationTicks": 47,
          "midi": 44,
          "name": "G#2",
          "ticks": 15745,
          "time": 144.71491916666668,
          "velocity": 0.7165354330708661
        },
        {
          "duration": 0.8639696666666907,
          "durationTicks": 94,
          "midi": 30,
          "name": "F#1",
          "ticks": 15792,
          "time": 145.146904,
          "velocity": 0.8346456692913385
        },
        {
          "duration": 0.8639696666666907,
          "durationTicks": 94,
          "midi": 42,
          "name": "F#2",
          "ticks": 15792,
          "time": 145.146904,
          "velocity": 0.8031496062992126
        },
        {
          "duration": 0.44117599999998447,
          "durationTicks": 48,
          "midi": 61,
          "name": "C#4",
          "ticks": 15792,
          "time": 145.146904,
          "velocity": 0.8110236220472441
        },
        {
          "duration": 0.43198483333330273,
          "durationTicks": 47,
          "midi": 66,
          "name": "F#4",
          "ticks": 15793,
          "time": 145.1560951666667,
          "velocity": 0.8267716535433071
        },
        {
          "duration": 0.43198483333330273,
          "durationTicks": 47,
          "midi": 56,
          "name": "G#3",
          "ticks": 15793,
          "time": 145.1560951666667,
          "velocity": 0.8031496062992126
        },
        {
          "duration": 0.6617640000000051,
          "durationTicks": 72,
          "midi": 61,
          "name": "C#4",
          "ticks": 15840,
          "time": 145.58808,
          "velocity": 0.8110236220472441
        },
        {
          "duration": 0.6617640000000051,
          "durationTicks": 72,
          "midi": 66,
          "name": "F#4",
          "ticks": 15840,
          "time": 145.58808,
          "velocity": 0.8110236220472441
        },
        {
          "duration": 0.652572833333295,
          "durationTicks": 71,
          "midi": 56,
          "name": "G#3",
          "ticks": 15841,
          "time": 145.5972711666667,
          "velocity": 0.7795275590551181
        },
        {
          "duration": 0.8272049999999922,
          "durationTicks": 90,
          "midi": 30,
          "name": "F#1",
          "ticks": 15888,
          "time": 146.029256,
          "velocity": 0.7716535433070866
        },
        {
          "duration": 0.8272049999999922,
          "durationTicks": 90,
          "midi": 42,
          "name": "F#2",
          "ticks": 15889,
          "time": 146.03844716666669,
          "velocity": 0.7480314960629921
        },
        {
          "duration": 0.4411760000000129,
          "durationTicks": 48,
          "midi": 61,
          "name": "C#4",
          "ticks": 15912,
          "time": 146.249844,
          "velocity": 0.8267716535433071
        },
        {
          "duration": 0.4411760000000129,
          "durationTicks": 48,
          "midi": 65,
          "name": "F4",
          "ticks": 15912,
          "time": 146.249844,
          "velocity": 0.7795275590551181
        },
        {
          "duration": 0.43198483333333115,
          "durationTicks": 47,
          "midi": 56,
          "name": "G#3",
          "ticks": 15913,
          "time": 146.25903516666668,
          "velocity": 0.7952755905511811
        },
        {
          "duration": 0.22058799999999223,
          "durationTicks": 24,
          "midi": 60,
          "name": "C4",
          "ticks": 15960,
          "time": 146.69102,
          "velocity": 0.8267716535433071
        },
        {
          "duration": 0.21139683333333892,
          "durationTicks": 23,
          "midi": 63,
          "name": "D#4",
          "ticks": 15960,
          "time": 146.69102,
          "velocity": 0.7952755905511811
        },
        {
          "duration": 0.2113968333333105,
          "durationTicks": 23,
          "midi": 57,
          "name": "A3",
          "ticks": 15961,
          "time": 146.7002111666667,
          "velocity": 0.7716535433070866
        },
        {
          "duration": 0.873160833333344,
          "durationTicks": 95,
          "midi": 29,
          "name": "F1",
          "ticks": 15984,
          "time": 146.911608,
          "velocity": 0.8110236220472441
        },
        {
          "duration": 0.8731608333333156,
          "durationTicks": 95,
          "midi": 41,
          "name": "F2",
          "ticks": 15985,
          "time": 146.92079916666668,
          "velocity": 0.8031496062992126
        },
        {
          "duration": 0.4411760000000129,
          "durationTicks": 48,
          "midi": 63,
          "name": "D#4",
          "ticks": 16008,
          "time": 147.132196,
          "velocity": 0.8267716535433071
        },
        {
          "duration": 0.4411760000000129,
          "durationTicks": 48,
          "midi": 60,
          "name": "C4",
          "ticks": 16008,
          "time": 147.132196,
          "velocity": 0.8267716535433071
        },
        {
          "duration": 0.43198483333333115,
          "durationTicks": 47,
          "midi": 57,
          "name": "A3",
          "ticks": 16009,
          "time": 147.14138716666668,
          "velocity": 0.8110236220472441
        },
        {
          "duration": 0.44117599999998447,
          "durationTicks": 48,
          "midi": 68,
          "name": "G#4",
          "ticks": 16056,
          "time": 147.573372,
          "velocity": 0.7952755905511811
        },
        {
          "duration": 0.44117599999998447,
          "durationTicks": 48,
          "midi": 63,
          "name": "D#4",
          "ticks": 16056,
          "time": 147.573372,
          "velocity": 0.7795275590551181
        },
        {
          "duration": 0.43198483333330273,
          "durationTicks": 47,
          "midi": 60,
          "name": "C4",
          "ticks": 16057,
          "time": 147.5825631666667,
          "velocity": 0.8110236220472441
        },
        {
          "duration": 0.42279366666667784,
          "durationTicks": 46,
          "midi": 36,
          "name": "C2",
          "ticks": 16080,
          "time": 147.79396,
          "velocity": 0.7795275590551181
        },
        {
          "duration": 0.42279366666667784,
          "durationTicks": 46,
          "midi": 48,
          "name": "C3",
          "ticks": 16081,
          "time": 147.80315116666668,
          "velocity": 0.7480314960629921
        },
        {
          "duration": 0.6433816666666985,
          "durationTicks": 70,
          "midi": 66,
          "name": "F#4",
          "ticks": 16104,
          "time": 148.014548,
          "velocity": 0.8031496062992126
        },
        {
          "duration": 0.6341905000000168,
          "durationTicks": 69,
          "midi": 63,
          "name": "D#4",
          "ticks": 16104,
          "time": 148.014548,
          "velocity": 0.8110236220472441
        },
        {
          "duration": 0.6341904999999883,
          "durationTicks": 69,
          "midi": 60,
          "name": "C4",
          "ticks": 16105,
          "time": 148.0237391666667,
          "velocity": 0.7952755905511811
        },
        {
          "duration": 0.44117599999998447,
          "durationTicks": 48,
          "midi": 48,
          "name": "C3",
          "ticks": 16128,
          "time": 148.235136,
          "velocity": 0.7559055118110236
        },
        {
          "duration": 0.43198483333330273,
          "durationTicks": 47,
          "midi": 36,
          "name": "C2",
          "ticks": 16129,
          "time": 148.2443271666667,
          "velocity": 0.7165354330708661
        },
        {
          "duration": 0.4319848333333596,
          "durationTicks": 47,
          "midi": 34,
          "name": "A#1",
          "ticks": 16176,
          "time": 148.676312,
          "velocity": 0.8346456692913385
        },
        {
          "duration": 0.4319848333333596,
          "durationTicks": 47,
          "midi": 46,
          "name": "A#2",
          "ticks": 16176,
          "time": 148.676312,
          "velocity": 0.8031496062992126
        },
        {
          "duration": 0.4411760000000129,
          "durationTicks": 48,
          "midi": 63,
          "name": "D#4",
          "ticks": 16176,
          "time": 148.676312,
          "velocity": 0.8110236220472441
        },
        {
          "duration": 0.43198483333333115,
          "durationTicks": 47,
          "midi": 60,
          "name": "C4",
          "ticks": 16177,
          "time": 148.68550316666668,
          "velocity": 0.8267716535433071
        },
        {
          "duration": 0.43198483333333115,
          "durationTicks": 47,
          "midi": 56,
          "name": "G#3",
          "ticks": 16177,
          "time": 148.68550316666668,
          "velocity": 0.8031496062992126
        },
        {
          "duration": 0.43198483333333115,
          "durationTicks": 47,
          "midi": 34,
          "name": "A#1",
          "ticks": 16224,
          "time": 149.117488,
          "velocity": 0.7795275590551181
        },
        {
          "duration": 0.43198483333330273,
          "durationTicks": 47,
          "midi": 46,
          "name": "A#2",
          "ticks": 16225,
          "time": 149.1266791666667,
          "velocity": 0.7559055118110236
        },
        {
          "duration": 0.6617640000000051,
          "durationTicks": 72,
          "midi": 65,
          "name": "F4",
          "ticks": 16248,
          "time": 149.338076,
          "velocity": 0.8110236220472441
        },
        {
          "duration": 0.6617640000000051,
          "durationTicks": 72,
          "midi": 60,
          "name": "C4",
          "ticks": 16248,
          "time": 149.338076,
          "velocity": 0.8110236220472441
        },
        {
          "duration": 0.6525728333333234,
          "durationTicks": 71,
          "midi": 56,
          "name": "G#3",
          "ticks": 16249,
          "time": 149.34726716666668,
          "velocity": 0.7795275590551181
        },
        {
          "duration": 0.6433816666666985,
          "durationTicks": 70,
          "midi": 36,
          "name": "C2",
          "ticks": 16272,
          "time": 149.558664,
          "velocity": 0.7716535433070866
        },
        {
          "duration": 0.6433816666666701,
          "durationTicks": 70,
          "midi": 48,
          "name": "C3",
          "ticks": 16273,
          "time": 149.56785516666667,
          "velocity": 0.7480314960629921
        },
        {
          "duration": 0.22058799999999223,
          "durationTicks": 24,
          "midi": 63,
          "name": "D#4",
          "ticks": 16320,
          "time": 149.99984,
          "velocity": 0.8267716535433071
        },
        {
          "duration": 0.22058799999999223,
          "durationTicks": 24,
          "midi": 60,
          "name": "C4",
          "ticks": 16320,
          "time": 149.99984,
          "velocity": 0.7795275590551181
        },
        {
          "duration": 0.2113968333333105,
          "durationTicks": 23,
          "midi": 56,
          "name": "G#3",
          "ticks": 16321,
          "time": 150.0090311666667,
          "velocity": 0.7952755905511811
        },
        {
          "duration": 1.102940000000018,
          "durationTicks": 120,
          "midi": 37,
          "name": "C#2",
          "ticks": 16344,
          "time": 150.220428,
          "velocity": 0.7559055118110236
        },
        {
          "duration": 1.102940000000018,
          "durationTicks": 120,
          "midi": 49,
          "name": "C#3",
          "ticks": 16344,
          "time": 150.220428,
          "velocity": 0.7637795275590551
        },
        {
          "duration": 0.4411760000000129,
          "durationTicks": 48,
          "midi": 65,
          "name": "F4",
          "ticks": 16344,
          "time": 150.220428,
          "velocity": 0.8267716535433071
        },
        {
          "duration": 0.43198483333333115,
          "durationTicks": 47,
          "midi": 60,
          "name": "C4",
          "ticks": 16345,
          "time": 150.22961916666668,
          "velocity": 0.7795275590551181
        },
        {
          "duration": 0.43198483333333115,
          "durationTicks": 47,
          "midi": 56,
          "name": "G#3",
          "ticks": 16345,
          "time": 150.22961916666668,
          "velocity": 0.7952755905511811
        },
        {
          "duration": 0.44117599999998447,
          "durationTicks": 48,
          "midi": 60,
          "name": "C4",
          "ticks": 16392,
          "time": 150.661604,
          "velocity": 0.8110236220472441
        },
        {
          "duration": 0.43198483333333115,
          "durationTicks": 47,
          "midi": 65,
          "name": "F4",
          "ticks": 16392,
          "time": 150.661604,
          "velocity": 0.8110236220472441
        },
        {
          "duration": 0.43198483333330273,
          "durationTicks": 47,
          "midi": 68,
          "name": "G#4",
          "ticks": 16393,
          "time": 150.6707951666667,
          "velocity": 0.7795275590551181
        },
        {
          "duration": 0.4319848333333596,
          "durationTicks": 47,
          "midi": 65,
          "name": "F4",
          "ticks": 16440,
          "time": 151.10278,
          "velocity": 0.8267716535433071
        },
        {
          "duration": 0.43198483333333115,
          "durationTicks": 47,
          "midi": 60,
          "name": "C4",
          "ticks": 16441,
          "time": 151.11197116666668,
          "velocity": 0.7795275590551181
        },
        {
          "duration": 0.43198483333333115,
          "durationTicks": 47,
          "midi": 68,
          "name": "G#4",
          "ticks": 16441,
          "time": 151.11197116666668,
          "velocity": 0.7952755905511811
        },
        {
          "duration": 0.43198483333333115,
          "durationTicks": 47,
          "midi": 37,
          "name": "C#2",
          "ticks": 16464,
          "time": 151.32336800000002,
          "velocity": 0.7952755905511811
        },
        {
          "duration": 0.43198483333330273,
          "durationTicks": 47,
          "midi": 49,
          "name": "C#3",
          "ticks": 16465,
          "time": 151.3325591666667,
          "velocity": 0.8110236220472441
        },
        {
          "duration": 0.19301450000000386,
          "durationTicks": 21,
          "midi": 65,
          "name": "F4",
          "ticks": 16488,
          "time": 151.543956,
          "velocity": 0.8267716535433071
        },
        {
          "duration": 0.19301450000000386,
          "durationTicks": 21,
          "midi": 60,
          "name": "C4",
          "ticks": 16488,
          "time": 151.543956,
          "velocity": 0.8110236220472441
        },
        {
          "duration": 0.19301450000000386,
          "durationTicks": 21,
          "midi": 68,
          "name": "G#4",
          "ticks": 16489,
          "time": 151.5531471666667,
          "velocity": 0.8110236220472441
        },
        {
          "duration": 0.43198483333333115,
          "durationTicks": 47,
          "midi": 37,
          "name": "C#2",
          "ticks": 16512,
          "time": 151.764544,
          "velocity": 0.8188976377952756
        },
        {
          "duration": 0.43198483333333115,
          "durationTicks": 47,
          "midi": 49,
          "name": "C#3",
          "ticks": 16512,
          "time": 151.764544,
          "velocity": 0.8267716535433071
        },
        {
          "duration": 0.43198483333333115,
          "durationTicks": 47,
          "midi": 65,
          "name": "F4",
          "ticks": 16512,
          "time": 151.764544,
          "velocity": 0.84251968503937
        },
        {
          "duration": 0.4227936666666494,
          "durationTicks": 46,
          "midi": 60,
          "name": "C4",
          "ticks": 16513,
          "time": 151.77373516666668,
          "velocity": 0.8267716535433071
        },
        {
          "duration": 0.4227936666666494,
          "durationTicks": 46,
          "midi": 68,
          "name": "G#4",
          "ticks": 16513,
          "time": 151.77373516666668,
          "velocity": 0.8267716535433071
        },
        {
          "duration": 0.8639696666666623,
          "durationTicks": 94,
          "midi": 30,
          "name": "F#1",
          "ticks": 16560,
          "time": 152.20572,
          "velocity": 0.9133858267716536
        },
        {
          "duration": 0.8639696666666623,
          "durationTicks": 94,
          "midi": 42,
          "name": "F#2",
          "ticks": 16560,
          "time": 152.20572,
          "velocity": 0.8818897637795275
        },
        {
          "duration": 0.44117599999998447,
          "durationTicks": 48,
          "midi": 61,
          "name": "C#4",
          "ticks": 16560,
          "time": 152.20572,
          "velocity": 0.889763779527559
        },
        {
          "duration": 0.43198483333330273,
          "durationTicks": 47,
          "midi": 65,
          "name": "F4",
          "ticks": 16561,
          "time": 152.2149111666667,
          "velocity": 0.905511811023622
        },
        {
          "duration": 0.43198483333330273,
          "durationTicks": 47,
          "midi": 68,
          "name": "G#4",
          "ticks": 16561,
          "time": 152.2149111666667,
          "velocity": 0.8818897637795275
        },
        {
          "duration": 0.4411760000000129,
          "durationTicks": 48,
          "midi": 61,
          "name": "C#4",
          "ticks": 16608,
          "time": 152.646896,
          "velocity": 0.889763779527559
        },
        {
          "duration": 0.4411760000000129,
          "durationTicks": 48,
          "midi": 65,
          "name": "F4",
          "ticks": 16608,
          "time": 152.646896,
          "velocity": 0.889763779527559
        },
        {
          "duration": 0.43198483333333115,
          "durationTicks": 47,
          "midi": 68,
          "name": "G#4",
          "ticks": 16609,
          "time": 152.65608716666668,
          "velocity": 0.8582677165354331
        },
        {
          "duration": 0.873160833333344,
          "durationTicks": 95,
          "midi": 30,
          "name": "F#1",
          "ticks": 16656,
          "time": 153.088072,
          "velocity": 0.8503937007874016
        },
        {
          "duration": 0.8547784999999806,
          "durationTicks": 93,
          "midi": 42,
          "name": "F#2",
          "ticks": 16657,
          "time": 153.0972631666667,
          "velocity": 0.8267716535433071
        },
        {
          "duration": 0.4411760000000129,
          "durationTicks": 48,
          "midi": 61,
          "name": "C#4",
          "ticks": 16680,
          "time": 153.30866,
          "velocity": 0.905511811023622
        },
        {
          "duration": 0.4411760000000129,
          "durationTicks": 48,
          "midi": 65,
          "name": "F4",
          "ticks": 16680,
          "time": 153.30866,
          "velocity": 0.8582677165354331
        },
        {
          "duration": 0.43198483333333115,
          "durationTicks": 47,
          "midi": 68,
          "name": "G#4",
          "ticks": 16681,
          "time": 153.31785116666669,
          "velocity": 0.8740157480314961
        },
        {
          "duration": 0.22058799999999223,
          "durationTicks": 24,
          "midi": 61,
          "name": "C#4",
          "ticks": 16728,
          "time": 153.74983600000002,
          "velocity": 0.905511811023622
        },
        {
          "duration": 0.22058799999999223,
          "durationTicks": 24,
          "midi": 65,
          "name": "F4",
          "ticks": 16728,
          "time": 153.74983600000002,
          "velocity": 0.8740157480314961
        },
        {
          "duration": 0.2113968333333105,
          "durationTicks": 23,
          "midi": 68,
          "name": "G#4",
          "ticks": 16729,
          "time": 153.7590271666667,
          "velocity": 0.8503937007874016
        },
        {
          "duration": 0.873160833333344,
          "durationTicks": 95,
          "midi": 32,
          "name": "G#1",
          "ticks": 16752,
          "time": 153.970424,
          "velocity": 0.9133858267716536
        },
        {
          "duration": 0.873160833333344,
          "durationTicks": 95,
          "midi": 44,
          "name": "G#2",
          "ticks": 16752,
          "time": 153.970424,
          "velocity": 0.8818897637795275
        },
        {
          "duration": 0.873160833333344,
          "durationTicks": 95,
          "midi": 61,
          "name": "C#4",
          "ticks": 16752,
          "time": 153.970424,
          "velocity": 0.905511811023622
        },
        {
          "duration": 0.8731608333333156,
          "durationTicks": 95,
          "midi": 68,
          "name": "G#4",
          "ticks": 16753,
          "time": 153.9796151666667,
          "velocity": 0.889763779527559
        },
        {
          "duration": 0.6617640000000051,
          "durationTicks": 72,
          "midi": 65,
          "name": "F4",
          "ticks": 16776,
          "time": 154.191012,
          "velocity": 0.8661417322834646
        },
        {
          "duration": 0.22058800000002066,
          "durationTicks": 24,
          "midi": 72,
          "name": "C5",
          "ticks": 16800,
          "time": 154.4116,
          "velocity": 0.9133858267716536
        },
        {
          "duration": 0.21139683333333892,
          "durationTicks": 23,
          "midi": 84,
          "name": "C6",
          "ticks": 16801,
          "time": 154.42079116666667,
          "velocity": 0.9133858267716536
        },
        {
          "duration": 0.44117599999998447,
          "durationTicks": 48,
          "midi": 73,
          "name": "C#5",
          "ticks": 16824,
          "time": 154.632188,
          "velocity": 0.8740157480314961
        },
        {
          "duration": 0.43198483333330273,
          "durationTicks": 47,
          "midi": 85,
          "name": "C#6",
          "ticks": 16825,
          "time": 154.6413791666667,
          "velocity": 0.905511811023622
        },
        {
          "duration": 0.873160833333344,
          "durationTicks": 95,
          "midi": 32,
          "name": "G#1",
          "ticks": 16848,
          "time": 154.852776,
          "velocity": 0.8740157480314961
        },
        {
          "duration": 0.8272049999999922,
          "durationTicks": 90,
          "midi": 44,
          "name": "G#2",
          "ticks": 16849,
          "time": 154.8619671666667,
          "velocity": 0.889763779527559
        },
        {
          "duration": 0.6525728333333234,
          "durationTicks": 71,
          "midi": 68,
          "name": "G#4",
          "ticks": 16849,
          "time": 154.8619671666667,
          "velocity": 0.8661417322834646
        },
        {
          "duration": 0.8272049999999922,
          "durationTicks": 90,
          "midi": 63,
          "name": "D#4",
          "ticks": 16850,
          "time": 154.87115833333334,
          "velocity": 0.8503937007874016
        },
        {
          "duration": 0.22058799999999223,
          "durationTicks": 24,
          "midi": 72,
          "name": "C5",
          "ticks": 16872,
          "time": 155.073364,
          "velocity": 0.889763779527559
        },
        {
          "duration": 0.2113968333333105,
          "durationTicks": 23,
          "midi": 84,
          "name": "C6",
          "ticks": 16873,
          "time": 155.08255516666668,
          "velocity": 0.8818897637795275
        },
        {
          "duration": 0.2113968333333105,
          "durationTicks": 23,
          "midi": 80,
          "name": "G#5",
          "ticks": 16897,
          "time": 155.3031431666667,
          "velocity": 0.9133858267716536
        },
        {
          "duration": 0.22058799999999223,
          "durationTicks": 24,
          "midi": 72,
          "name": "C5",
          "ticks": 16920,
          "time": 155.51454,
          "velocity": 0.889763779527559
        },
        {
          "duration": 0.2113968333333105,
          "durationTicks": 23,
          "midi": 84,
          "name": "C6",
          "ticks": 16921,
          "time": 155.5237311666667,
          "velocity": 0.8818897637795275
        },
        {
          "duration": 0.873160833333344,
          "durationTicks": 95,
          "midi": 37,
          "name": "C#2",
          "ticks": 16944,
          "time": 155.735128,
          "velocity": 0.9133858267716536
        },
        {
          "duration": 0.873160833333344,
          "durationTicks": 95,
          "midi": 49,
          "name": "C#3",
          "ticks": 16944,
          "time": 155.735128,
          "velocity": 0.8818897637795275
        },
        {
          "duration": 0.43198483333333115,
          "durationTicks": 47,
          "midi": 60,
          "name": "C4",
          "ticks": 16944,
          "time": 155.735128,
          "velocity": 0.905511811023622
        },
        {
          "duration": 0.43198483333333115,
          "durationTicks": 47,
          "midi": 63,
          "name": "D#4",
          "ticks": 16945,
          "time": 155.74431916666668,
          "velocity": 0.8818897637795275
        },
        {
          "duration": 0.43198483333333115,
          "durationTicks": 47,
          "midi": 68,
          "name": "G#4",
          "ticks": 16945,
          "time": 155.74431916666668,
          "velocity": 0.889763779527559
        },
        {
          "duration": 0.22058800000002066,
          "durationTicks": 24,
          "midi": 75,
          "name": "D#5",
          "ticks": 16968,
          "time": 155.955716,
          "velocity": 0.8818897637795275
        },
        {
          "duration": 0.44117599999998447,
          "durationTicks": 48,
          "midi": 60,
          "name": "C4",
          "ticks": 16992,
          "time": 156.17630400000002,
          "velocity": 0.889763779527559
        },
        {
          "duration": 0.44117599999998447,
          "durationTicks": 48,
          "midi": 63,
          "name": "D#4",
          "ticks": 16992,
          "time": 156.17630400000002,
          "velocity": 0.8976377952755905
        },
        {
          "duration": 0.43198483333330273,
          "durationTicks": 47,
          "midi": 68,
          "name": "G#4",
          "ticks": 16993,
          "time": 156.1854951666667,
          "velocity": 0.889763779527559
        },
        {
          "duration": 0.43198483333330273,
          "durationTicks": 47,
          "midi": 77,
          "name": "F5",
          "ticks": 16993,
          "time": 156.1854951666667,
          "velocity": 0.8346456692913385
        },
        {
          "duration": 0.22058799999999223,
          "durationTicks": 24,
          "midi": 92,
          "name": "G#6",
          "ticks": 17016,
          "time": 156.396892,
          "velocity": 0.889763779527559
        },
        {
          "duration": 0.2113968333333105,
          "durationTicks": 23,
          "midi": 80,
          "name": "G#5",
          "ticks": 17017,
          "time": 156.4060831666667,
          "velocity": 0.9133858267716536
        },
        {
          "duration": 0.6617640000000051,
          "durationTicks": 72,
          "midi": 37,
          "name": "C#2",
          "ticks": 17040,
          "time": 156.61748,
          "velocity": 0.9133858267716536
        },
        {
          "duration": 0.6617640000000051,
          "durationTicks": 72,
          "midi": 49,
          "name": "C#3",
          "ticks": 17040,
          "time": 156.61748,
          "velocity": 0.9133858267716536
        },
        {
          "duration": 0.6617640000000051,
          "durationTicks": 72,
          "midi": 60,
          "name": "C4",
          "ticks": 17040,
          "time": 156.61748,
          "velocity": 0.905511811023622
        },
        {
          "duration": 0.6525728333333234,
          "durationTicks": 71,
          "midi": 63,
          "name": "D#4",
          "ticks": 17041,
          "time": 156.62667116666668,
          "velocity": 0.905511811023622
        },
        {
          "duration": 0.6525728333333234,
          "durationTicks": 71,
          "midi": 68,
          "name": "G#4",
          "ticks": 17041,
          "time": 156.62667116666668,
          "velocity": 0.8818897637795275
        },
        {
          "duration": 0.22058800000002066,
          "durationTicks": 24,
          "midi": 92,
          "name": "G#6",
          "ticks": 17064,
          "time": 156.838068,
          "velocity": 0.889763779527559
        },
        {
          "duration": 0.21139683333333892,
          "durationTicks": 23,
          "midi": 80,
          "name": "G#5",
          "ticks": 17065,
          "time": 156.84725916666667,
          "velocity": 0.9133858267716536
        },
        {
          "duration": 0.22058799999999223,
          "durationTicks": 24,
          "midi": 89,
          "name": "F6",
          "ticks": 17088,
          "time": 157.058656,
          "velocity": 0.8582677165354331
        },
        {
          "duration": 0.2113968333333105,
          "durationTicks": 23,
          "midi": 77,
          "name": "F5",
          "ticks": 17089,
          "time": 157.0678471666667,
          "velocity": 0.889763779527559
        },
        {
          "duration": 0.8823519999999974,
          "durationTicks": 96,
          "midi": 34,
          "name": "A#1",
          "ticks": 17112,
          "time": 157.279244,
          "velocity": 0.9133858267716536
        },
        {
          "duration": 0.8823519999999974,
          "durationTicks": 96,
          "midi": 46,
          "name": "A#2",
          "ticks": 17112,
          "time": 157.279244,
          "velocity": 0.8818897637795275
        },
        {
          "duration": 0.6525728333333518,
          "durationTicks": 71,
          "midi": 60,
          "name": "C4",
          "ticks": 17112,
          "time": 157.279244,
          "velocity": 0.905511811023622
        },
        {
          "duration": 0.6525728333333234,
          "durationTicks": 71,
          "midi": 63,
          "name": "D#4",
          "ticks": 17113,
          "time": 157.2884351666667,
          "velocity": 0.8818897637795275
        },
        {
          "duration": 0.6525728333333234,
          "durationTicks": 71,
          "midi": 68,
          "name": "G#4",
          "ticks": 17113,
          "time": 157.2884351666667,
          "velocity": 0.889763779527559
        },
        {
          "duration": 0.2113968333333105,
          "durationTicks": 23,
          "midi": 75,
          "name": "D#5",
          "ticks": 17113,
          "time": 157.2884351666667,
          "velocity": 0.905511811023622
        },
        {
          "duration": 0.21139683333333892,
          "durationTicks": 23,
          "midi": 60,
          "name": "C4",
          "ticks": 17184,
          "time": 157.941008,
          "velocity": 0.9212598425196851
        },
        {
          "duration": 0.21139683333333892,
          "durationTicks": 23,
          "midi": 63,
          "name": "D#4",
          "ticks": 17184,
          "time": 157.941008,
          "velocity": 0.8976377952755905
        },
        {
          "duration": 0.2113968333333105,
          "durationTicks": 23,
          "midi": 68,
          "name": "G#4",
          "ticks": 17185,
          "time": 157.9501991666667,
          "velocity": 0.905511811023622
        },
        {
          "duration": 1.084557666666683,
          "durationTicks": 118,
          "midi": 34,
          "name": "A#1",
          "ticks": 17208,
          "time": 158.161596,
          "velocity": 0.9133858267716536
        },
        {
          "duration": 1.0937488333333363,
          "durationTicks": 119,
          "midi": 46,
          "name": "A#2",
          "ticks": 17208,
          "time": 158.161596,
          "velocity": 0.8976377952755905
        },
        {
          "duration": 0.6525728333333518,
          "durationTicks": 71,
          "midi": 62,
          "name": "D4",
          "ticks": 17208,
          "time": 158.161596,
          "velocity": 0.889763779527559
        },
        {
          "duration": 0.6525728333333234,
          "durationTicks": 71,
          "midi": 65,
          "name": "F4",
          "ticks": 17209,
          "time": 158.17078716666668,
          "velocity": 0.8818897637795275
        },
        {
          "duration": 0.6525728333333234,
          "durationTicks": 71,
          "midi": 68,
          "name": "G#4",
          "ticks": 17209,
          "time": 158.17078716666668,
          "velocity": 0.889763779527559
        },
        {
          "duration": 0.42279366666667784,
          "durationTicks": 46,
          "midi": 62,
          "name": "D4",
          "ticks": 17280,
          "time": 158.82336,
          "velocity": 0.8661417322834646
        },
        {
          "duration": 0.4136024999999961,
          "durationTicks": 45,
          "midi": 65,
          "name": "F4",
          "ticks": 17280,
          "time": 158.82336,
          "velocity": 0.8661417322834646
        },
        {
          "duration": 0.4136024999999961,
          "durationTicks": 45,
          "midi": 68,
          "name": "G#4",
          "ticks": 17281,
          "time": 158.8325511666667,
          "velocity": 0.8661417322834646
        },
        {
          "duration": 0.6617640000000051,
          "durationTicks": 72,
          "midi": 39,
          "name": "D#2",
          "ticks": 17328,
          "time": 159.264536,
          "velocity": 0.889763779527559
        },
        {
          "duration": 0.6617640000000051,
          "durationTicks": 72,
          "midi": 51,
          "name": "D#3",
          "ticks": 17328,
          "time": 159.264536,
          "velocity": 0.8818897637795275
        },
        {
          "duration": 0.6617640000000051,
          "durationTicks": 72,
          "midi": 61,
          "name": "C#4",
          "ticks": 17328,
          "time": 159.264536,
          "velocity": 0.889763779527559
        },
        {
          "duration": 0.6525728333333234,
          "durationTicks": 71,
          "midi": 65,
          "name": "F4",
          "ticks": 17329,
          "time": 159.27372716666667,
          "velocity": 0.8818897637795275
        },
        {
          "duration": 0.6525728333333234,
          "durationTicks": 71,
          "midi": 58,
          "name": "A#3",
          "ticks": 17329,
          "time": 159.27372716666667,
          "velocity": 0.889763779527559
        },
        {
          "duration": 1.084557666666683,
          "durationTicks": 118,
          "midi": 39,
          "name": "D#2",
          "ticks": 17400,
          "time": 159.9263,
          "velocity": 0.889763779527559
        },
        {
          "duration": 1.0753665000000012,
          "durationTicks": 117,
          "midi": 51,
          "name": "D#3",
          "ticks": 17400,
          "time": 159.9263,
          "velocity": 0.8976377952755905
        },
        {
          "duration": 0.4319848333333596,
          "durationTicks": 47,
          "midi": 61,
          "name": "C#4",
          "ticks": 17400,
          "time": 159.9263,
          "velocity": 0.905511811023622
        },
        {
          "duration": 0.43198483333333115,
          "durationTicks": 47,
          "midi": 65,
          "name": "F4",
          "ticks": 17401,
          "time": 159.93549116666668,
          "velocity": 0.8976377952755905
        },
        {
          "duration": 1.0661753333333195,
          "durationTicks": 116,
          "midi": 58,
          "name": "A#3",
          "ticks": 17401,
          "time": 159.93549116666668,
          "velocity": 0.905511811023622
        },
        {
          "duration": 0.4136024999999961,
          "durationTicks": 45,
          "midi": 61,
          "name": "C#4",
          "ticks": 17448,
          "time": 160.367476,
          "velocity": 0.8818897637795275
        },
        {
          "duration": 0.4136024999999961,
          "durationTicks": 45,
          "midi": 65,
          "name": "F4",
          "ticks": 17448,
          "time": 160.367476,
          "velocity": 0.8110236220472441
        },
        {
          "duration": 0.40441133333331436,
          "durationTicks": 44,
          "midi": 63,
          "name": "D#4",
          "ticks": 17449,
          "time": 160.3766671666667,
          "velocity": 0.8110236220472441
        },
        {
          "duration": 0.4136024999999961,
          "durationTicks": 45,
          "midi": 68,
          "name": "G#4",
          "ticks": 17449,
          "time": 160.3766671666667,
          "velocity": 0.889763779527559
        },
        {
          "duration": 0.21139683333333892,
          "durationTicks": 23,
          "midi": 61,
          "name": "C#4",
          "ticks": 17496,
          "time": 160.808652,
          "velocity": 0.889763779527559
        },
        {
          "duration": 0.2022056666666856,
          "durationTicks": 22,
          "midi": 65,
          "name": "F4",
          "ticks": 17496,
          "time": 160.808652,
          "velocity": 0.8267716535433071
        },
        {
          "duration": 0.20220566666665718,
          "durationTicks": 22,
          "midi": 63,
          "name": "D#4",
          "ticks": 17497,
          "time": 160.81784316666668,
          "velocity": 0.8110236220472441
        },
        {
          "duration": 0.20220566666665718,
          "durationTicks": 22,
          "midi": 68,
          "name": "G#4",
          "ticks": 17497,
          "time": 160.81784316666668,
          "velocity": 0.889763779527559
        },
        {
          "duration": 0.873160833333344,
          "durationTicks": 95,
          "midi": 32,
          "name": "G#1",
          "ticks": 17520,
          "time": 161.02924000000002,
          "velocity": 0.889763779527559
        },
        {
          "duration": 0.873160833333344,
          "durationTicks": 95,
          "midi": 44,
          "name": "G#2",
          "ticks": 17520,
          "time": 161.02924000000002,
          "velocity": 0.8818897637795275
        },
        {
          "duration": 0.6525728333333234,
          "durationTicks": 71,
          "midi": 60,
          "name": "C4",
          "ticks": 17520,
          "time": 161.02924000000002,
          "velocity": 0.889763779527559
        },
        {
          "duration": 0.652572833333295,
          "durationTicks": 71,
          "midi": 63,
          "name": "D#4",
          "ticks": 17521,
          "time": 161.0384311666667,
          "velocity": 0.8818897637795275
        },
        {
          "duration": 0.652572833333295,
          "durationTicks": 71,
          "midi": 68,
          "name": "G#4",
          "ticks": 17521,
          "time": 161.0384311666667,
          "velocity": 0.889763779527559
        },
        {
          "duration": 0.44117599999998447,
          "durationTicks": 48,
          "midi": 65,
          "name": "F4",
          "ticks": 17544,
          "time": 161.249828,
          "velocity": 0.8818897637795275
        },
        {
          "duration": 0.21139683333336734,
          "durationTicks": 23,
          "midi": 68,
          "name": "G#4",
          "ticks": 17592,
          "time": 161.691004,
          "velocity": 0.8818897637795275
        },
        {
          "duration": 0.21139683333336734,
          "durationTicks": 23,
          "midi": 63,
          "name": "D#4",
          "ticks": 17592,
          "time": 161.691004,
          "velocity": 0.8818897637795275
        },
        {
          "duration": 0.21139683333333892,
          "durationTicks": 23,
          "midi": 60,
          "name": "C4",
          "ticks": 17593,
          "time": 161.70019516666667,
          "velocity": 0.8740157480314961
        },
        {
          "duration": 0.43198483333333115,
          "durationTicks": 47,
          "midi": 80,
          "name": "G#5",
          "ticks": 17593,
          "time": 161.70019516666667,
          "velocity": 0.8661417322834646
        },
        {
          "duration": 0.8639696666666623,
          "durationTicks": 94,
          "midi": 32,
          "name": "G#1",
          "ticks": 17616,
          "time": 161.911592,
          "velocity": 0.9133858267716536
        },
        {
          "duration": 0.8547784999999806,
          "durationTicks": 93,
          "midi": 44,
          "name": "G#2",
          "ticks": 17616,
          "time": 161.911592,
          "velocity": 0.8818897637795275
        },
        {
          "duration": 0.43198483333333115,
          "durationTicks": 47,
          "midi": 60,
          "name": "C4",
          "ticks": 17616,
          "time": 161.911592,
          "velocity": 0.889763779527559
        },
        {
          "duration": 0.4227936666666494,
          "durationTicks": 46,
          "midi": 63,
          "name": "D#4",
          "ticks": 17617,
          "time": 161.9207831666667,
          "velocity": 0.8818897637795275
        },
        {
          "duration": 0.4227936666666494,
          "durationTicks": 46,
          "midi": 56,
          "name": "G#3",
          "ticks": 17617,
          "time": 161.9207831666667,
          "velocity": 0.889763779527559
        },
        {
          "duration": 0.22058799999999223,
          "durationTicks": 24,
          "midi": 87,
          "name": "D#6",
          "ticks": 17640,
          "time": 162.13218,
          "velocity": 0.9212598425196851
        },
        {
          "duration": 0.2113968333333105,
          "durationTicks": 23,
          "midi": 75,
          "name": "D#5",
          "ticks": 17641,
          "time": 162.1413711666667,
          "velocity": 0.9133858267716536
        },
        {
          "duration": 0.4319848333333596,
          "durationTicks": 47,
          "midi": 60,
          "name": "C4",
          "ticks": 17664,
          "time": 162.352768,
          "velocity": 0.889763779527559
        },
        {
          "duration": 0.42279366666667784,
          "durationTicks": 46,
          "midi": 63,
          "name": "D#4",
          "ticks": 17664,
          "time": 162.352768,
          "velocity": 0.8818897637795275
        },
        {
          "duration": 0.42279366666667784,
          "durationTicks": 46,
          "midi": 68,
          "name": "G#4",
          "ticks": 17665,
          "time": 162.36195916666668,
          "velocity": 0.889763779527559
        },
        {
          "duration": 0.22058799999999223,
          "durationTicks": 24,
          "midi": 87,
          "name": "D#6",
          "ticks": 17688,
          "time": 162.57335600000002,
          "velocity": 0.8503937007874016
        },
        {
          "duration": 0.2113968333333105,
          "durationTicks": 23,
          "midi": 75,
          "name": "D#5",
          "ticks": 17689,
          "time": 162.5825471666667,
          "velocity": 0.84251968503937
        },
        {
          "duration": 1.3051456666666752,
          "durationTicks": 142,
          "midi": 30,
          "name": "F#1",
          "ticks": 17712,
          "time": 162.793944,
          "velocity": 0.8661417322834646
        },
        {
          "duration": 1.3051456666666752,
          "durationTicks": 142,
          "midi": 42,
          "name": "F#2",
          "ticks": 17712,
          "time": 162.793944,
          "velocity": 0.889763779527559
        },
        {
          "duration": 0.44117599999998447,
          "durationTicks": 48,
          "midi": 61,
          "name": "C#4",
          "ticks": 17712,
          "time": 162.793944,
          "velocity": 0.8818897637795275
        },
        {
          "duration": 0.43198483333330273,
          "durationTicks": 47,
          "midi": 65,
          "name": "F4",
          "ticks": 17713,
          "time": 162.8031351666667,
          "velocity": 0.8661417322834646
        },
        {
          "duration": 1.3143368333333,
          "durationTicks": 143,
          "midi": 56,
          "name": "G#3",
          "ticks": 17713,
          "time": 162.8031351666667,
          "velocity": 0.8740157480314961
        },
        {
          "duration": 0.21139683333333892,
          "durationTicks": 23,
          "midi": 60,
          "name": "C4",
          "ticks": 17760,
          "time": 163.23512,
          "velocity": 0.8503937007874016
        },
        {
          "duration": 0.873160833333344,
          "durationTicks": 95,
          "midi": 65,
          "name": "F4",
          "ticks": 17760,
          "time": 163.23512,
          "velocity": 0.8661417322834646
        },
        {
          "duration": 0.22058799999999223,
          "durationTicks": 24,
          "midi": 60,
          "name": "C4",
          "ticks": 17784,
          "time": 163.45570800000002,
          "velocity": 0.889763779527559
        },
        {
          "duration": 0.22058799999999223,
          "durationTicks": 24,
          "midi": 58,
          "name": "A#3",
          "ticks": 17808,
          "time": 163.676296,
          "velocity": 0.84251968503937
        },
        {
          "duration": 0.22058799999999223,
          "durationTicks": 24,
          "midi": 63,
          "name": "D#4",
          "ticks": 17832,
          "time": 163.896884,
          "velocity": 0.8661417322834646
        },
        {
          "duration": 0.4319848333333596,
          "durationTicks": 47,
          "midi": 30,
          "name": "F#1",
          "ticks": 17856,
          "time": 164.117472,
          "velocity": 0.8661417322834646
        },
        {
          "duration": 0.4319848333333596,
          "durationTicks": 47,
          "midi": 42,
          "name": "F#2",
          "ticks": 17856,
          "time": 164.117472,
          "velocity": 0.8740157480314961
        },
        {
          "duration": 0.4319848333333596,
          "durationTicks": 47,
          "midi": 60,
          "name": "C4",
          "ticks": 17856,
          "time": 164.117472,
          "velocity": 0.8818897637795275
        },
        {
          "duration": 0.43198483333333115,
          "durationTicks": 47,
          "midi": 65,
          "name": "F4",
          "ticks": 17857,
          "time": 164.12666316666667,
          "velocity": 0.889763779527559
        },
        {
          "duration": 0.21139683333333892,
          "durationTicks": 23,
          "midi": 58,
          "name": "A#3",
          "ticks": 17857,
          "time": 164.12666316666667,
          "velocity": 0.8582677165354331
        },
        {
          "duration": 0.22058799999999223,
          "durationTicks": 24,
          "midi": 63,
          "name": "D#4",
          "ticks": 17880,
          "time": 164.33806,
          "velocity": 0.8740157480314961
        },
        {
          "duration": 0.873160833333344,
          "durationTicks": 95,
          "midi": 32,
          "name": "G#1",
          "ticks": 17904,
          "time": 164.558648,
          "velocity": 0.8661417322834646
        },
        {
          "duration": 0.873160833333344,
          "durationTicks": 95,
          "midi": 44,
          "name": "G#2",
          "ticks": 17904,
          "time": 164.558648,
          "velocity": 0.8740157480314961
        },
        {
          "duration": 0.4411760000000129,
          "durationTicks": 48,
          "midi": 61,
          "name": "C#4",
          "ticks": 17904,
          "time": 164.558648,
          "velocity": 0.8818897637795275
        },
        {
          "duration": 0.43198483333333115,
          "durationTicks": 47,
          "midi": 65,
          "name": "F4",
          "ticks": 17905,
          "time": 164.5678391666667,
          "velocity": 0.8740157480314961
        },
        {
          "duration": 0.43198483333333115,
          "durationTicks": 47,
          "midi": 58,
          "name": "A#3",
          "ticks": 17905,
          "time": 164.5678391666667,
          "velocity": 0.8346456692913385
        },
        {
          "duration": 0.22058799999999223,
          "durationTicks": 24,
          "midi": 68,
          "name": "G#4",
          "ticks": 17952,
          "time": 164.99982400000002,
          "velocity": 0.7559055118110236
        },
        {
          "duration": 0.43198483333333115,
          "durationTicks": 47,
          "midi": 63,
          "name": "D#4",
          "ticks": 17952,
          "time": 164.99982400000002,
          "velocity": 0.8976377952755905
        },
        {
          "duration": 0.43198483333330273,
          "durationTicks": 47,
          "midi": 57,
          "name": "A3",
          "ticks": 17953,
          "time": 165.0090151666667,
          "velocity": 0.8346456692913385
        },
        {
          "duration": 0.22058799999999223,
          "durationTicks": 24,
          "midi": 69,
          "name": "A4",
          "ticks": 17976,
          "time": 165.220412,
          "velocity": 0.7795275590551181
        },
        {
          "duration": 0.22058799999999223,
          "durationTicks": 24,
          "midi": 60,
          "name": "C4",
          "ticks": 17976,
          "time": 165.220412,
          "velocity": 0.905511811023622
        },
        {
          "duration": 0.42279366666667784,
          "durationTicks": 46,
          "midi": 29,
          "name": "F1",
          "ticks": 18000,
          "time": 165.441,
          "velocity": 0.8503937007874016
        },
        {
          "duration": 0.42279366666667784,
          "durationTicks": 46,
          "midi": 41,
          "name": "F2",
          "ticks": 18000,
          "time": 165.441,
          "velocity": 0.8346456692913385
        },
        {
          "duration": 0.4411760000000129,
          "durationTicks": 48,
          "midi": 69,
          "name": "A4",
          "ticks": 18000,
          "time": 165.441,
          "velocity": 0.8031496062992126
        },
        {
          "duration": 0.43198483333333115,
          "durationTicks": 47,
          "midi": 63,
          "name": "D#4",
          "ticks": 18001,
          "time": 165.45019116666668,
          "velocity": 0.8110236220472441
        },
        {
          "duration": 0.43198483333333115,
          "durationTicks": 47,
          "midi": 60,
          "name": "C4",
          "ticks": 18001,
          "time": 165.45019116666668,
          "velocity": 0.7637795275590551
        },
        {
          "duration": 0.43198483333333115,
          "durationTicks": 47,
          "midi": 29,
          "name": "F1",
          "ticks": 18048,
          "time": 165.88217600000002,
          "velocity": 0.8110236220472441
        },
        {
          "duration": 0.43198483333333115,
          "durationTicks": 47,
          "midi": 41,
          "name": "F2",
          "ticks": 18048,
          "time": 165.88217600000002,
          "velocity": 0.7559055118110236
        },
        {
          "duration": 0.43198483333333115,
          "durationTicks": 47,
          "midi": 72,
          "name": "C5",
          "ticks": 18048,
          "time": 165.88217600000002,
          "velocity": 0.8976377952755905
        },
        {
          "duration": 0.4227936666666494,
          "durationTicks": 46,
          "midi": 75,
          "name": "D#5",
          "ticks": 18049,
          "time": 165.8913671666667,
          "velocity": 0.8740157480314961
        },
        {
          "duration": 0.4227936666666494,
          "durationTicks": 46,
          "midi": 69,
          "name": "A4",
          "ticks": 18049,
          "time": 165.8913671666667,
          "velocity": 0.8818897637795275
        },
        {
          "duration": 0.8639696666666907,
          "durationTicks": 94,
          "midi": 30,
          "name": "F#1",
          "ticks": 18096,
          "time": 166.323352,
          "velocity": 0.9133858267716536
        },
        {
          "duration": 0.8639696666666907,
          "durationTicks": 94,
          "midi": 42,
          "name": "F#2",
          "ticks": 18096,
          "time": 166.323352,
          "velocity": 0.8818897637795275
        },
        {
          "duration": 0.4411760000000129,
          "durationTicks": 48,
          "midi": 61,
          "name": "C#4",
          "ticks": 18096,
          "time": 166.323352,
          "velocity": 0.889763779527559
        },
        {
          "duration": 0.43198483333333115,
          "durationTicks": 47,
          "midi": 65,
          "name": "F4",
          "ticks": 18097,
          "time": 166.33254316666668,
          "velocity": 0.905511811023622
        },
        {
          "duration": 0.43198483333333115,
          "durationTicks": 47,
          "midi": 68,
          "name": "G#4",
          "ticks": 18097,
          "time": 166.33254316666668,
          "velocity": 0.8818897637795275
        },
        {
          "duration": 0.44117599999998447,
          "durationTicks": 48,
          "midi": 61,
          "name": "C#4",
          "ticks": 18144,
          "time": 166.764528,
          "velocity": 0.889763779527559
        },
        {
          "duration": 0.44117599999998447,
          "durationTicks": 48,
          "midi": 65,
          "name": "F4",
          "ticks": 18144,
          "time": 166.764528,
          "velocity": 0.889763779527559
        },
        {
          "duration": 0.43198483333330273,
          "durationTicks": 47,
          "midi": 68,
          "name": "G#4",
          "ticks": 18145,
          "time": 166.7737191666667,
          "velocity": 0.8582677165354331
        },
        {
          "duration": 0.873160833333344,
          "durationTicks": 95,
          "midi": 30,
          "name": "F#1",
          "ticks": 18192,
          "time": 167.205704,
          "velocity": 0.8503937007874016
        },
        {
          "duration": 0.854778500000009,
          "durationTicks": 93,
          "midi": 42,
          "name": "F#2",
          "ticks": 18193,
          "time": 167.21489516666668,
          "velocity": 0.8267716535433071
        },
        {
          "duration": 0.44117599999998447,
          "durationTicks": 48,
          "midi": 61,
          "name": "C#4",
          "ticks": 18216,
          "time": 167.42629200000002,
          "velocity": 0.905511811023622
        },
        {
          "duration": 0.44117599999998447,
          "durationTicks": 48,
          "midi": 65,
          "name": "F4",
          "ticks": 18216,
          "time": 167.42629200000002,
          "velocity": 0.8582677165354331
        },
        {
          "duration": 0.43198483333330273,
          "durationTicks": 47,
          "midi": 68,
          "name": "G#4",
          "ticks": 18217,
          "time": 167.4354831666667,
          "velocity": 0.8740157480314961
        },
        {
          "duration": 0.22058799999999223,
          "durationTicks": 24,
          "midi": 61,
          "name": "C#4",
          "ticks": 18264,
          "time": 167.867468,
          "velocity": 0.905511811023622
        },
        {
          "duration": 0.22058799999999223,
          "durationTicks": 24,
          "midi": 65,
          "name": "F4",
          "ticks": 18264,
          "time": 167.867468,
          "velocity": 0.8740157480314961
        },
        {
          "duration": 0.2113968333333105,
          "durationTicks": 23,
          "midi": 68,
          "name": "G#4",
          "ticks": 18265,
          "time": 167.87665916666668,
          "velocity": 0.8503937007874016
        },
        {
          "duration": 0.873160833333344,
          "durationTicks": 95,
          "midi": 32,
          "name": "G#1",
          "ticks": 18288,
          "time": 168.088056,
          "velocity": 0.9133858267716536
        },
        {
          "duration": 0.873160833333344,
          "durationTicks": 95,
          "midi": 44,
          "name": "G#2",
          "ticks": 18288,
          "time": 168.088056,
          "velocity": 0.8818897637795275
        },
        {
          "duration": 0.873160833333344,
          "durationTicks": 95,
          "midi": 61,
          "name": "C#4",
          "ticks": 18288,
          "time": 168.088056,
          "velocity": 0.905511811023622
        },
        {
          "duration": 0.8731608333333156,
          "durationTicks": 95,
          "midi": 68,
          "name": "G#4",
          "ticks": 18289,
          "time": 168.09724716666668,
          "velocity": 0.889763779527559
        },
        {
          "duration": 0.6617639999999767,
          "durationTicks": 72,
          "midi": 65,
          "name": "F4",
          "ticks": 18312,
          "time": 168.30864400000002,
          "velocity": 0.8661417322834646
        },
        {
          "duration": 0.22058799999999223,
          "durationTicks": 24,
          "midi": 72,
          "name": "C5",
          "ticks": 18336,
          "time": 168.529232,
          "velocity": 0.9133858267716536
        },
        {
          "duration": 0.2113968333333105,
          "durationTicks": 23,
          "midi": 84,
          "name": "C6",
          "ticks": 18337,
          "time": 168.5384231666667,
          "velocity": 0.9133858267716536
        },
        {
          "duration": 0.4411760000000129,
          "durationTicks": 48,
          "midi": 73,
          "name": "C#5",
          "ticks": 18360,
          "time": 168.74982,
          "velocity": 0.8740157480314961
        },
        {
          "duration": 0.43198483333333115,
          "durationTicks": 47,
          "midi": 85,
          "name": "C#6",
          "ticks": 18361,
          "time": 168.75901116666668,
          "velocity": 0.905511811023622
        },
        {
          "duration": 0.873160833333344,
          "durationTicks": 95,
          "midi": 32,
          "name": "G#1",
          "ticks": 18384,
          "time": 168.970408,
          "velocity": 0.8740157480314961
        },
        {
          "duration": 0.8272050000000206,
          "durationTicks": 90,
          "midi": 44,
          "name": "G#2",
          "ticks": 18385,
          "time": 168.97959916666667,
          "velocity": 0.889763779527559
        },
        {
          "duration": 0.6525728333333234,
          "durationTicks": 71,
          "midi": 68,
          "name": "G#4",
          "ticks": 18385,
          "time": 168.97959916666667,
          "velocity": 0.8661417322834646
        },
        {
          "duration": 0.8272049999999922,
          "durationTicks": 90,
          "midi": 63,
          "name": "D#4",
          "ticks": 18386,
          "time": 168.98879033333336,
          "velocity": 0.8503937007874016
        },
        {
          "duration": 0.22058799999999223,
          "durationTicks": 24,
          "midi": 72,
          "name": "C5",
          "ticks": 18408,
          "time": 169.190996,
          "velocity": 0.889763779527559
        },
        {
          "duration": 0.2113968333333105,
          "durationTicks": 23,
          "midi": 84,
          "name": "C6",
          "ticks": 18409,
          "time": 169.2001871666667,
          "velocity": 0.8818897637795275
        },
        {
          "duration": 0.2113968333333105,
          "durationTicks": 23,
          "midi": 80,
          "name": "G#5",
          "ticks": 18433,
          "time": 169.4207751666667,
          "velocity": 0.9133858267716536
        },
        {
          "duration": 0.22058800000002066,
          "durationTicks": 24,
          "midi": 75,
          "name": "D#5",
          "ticks": 18456,
          "time": 169.632172,
          "velocity": 0.889763779527559
        },
        {
          "duration": 0.21139683333333892,
          "durationTicks": 23,
          "midi": 87,
          "name": "D#6",
          "ticks": 18457,
          "time": 169.64136316666668,
          "velocity": 0.8818897637795275
        },
        {
          "duration": 0.8731608333333156,
          "durationTicks": 95,
          "midi": 37,
          "name": "C#2",
          "ticks": 18480,
          "time": 169.85276000000002,
          "velocity": 0.9133858267716536
        },
        {
          "duration": 0.8731608333333156,
          "durationTicks": 95,
          "midi": 49,
          "name": "C#3",
          "ticks": 18480,
          "time": 169.85276000000002,
          "velocity": 0.8818897637795275
        },
        {
          "duration": 0.43198483333333115,
          "durationTicks": 47,
          "midi": 60,
          "name": "C4",
          "ticks": 18480,
          "time": 169.85276000000002,
          "velocity": 0.905511811023622
        },
        {
          "duration": 0.43198483333330273,
          "durationTicks": 47,
          "midi": 63,
          "name": "D#4",
          "ticks": 18481,
          "time": 169.8619511666667,
          "velocity": 0.8818897637795275
        },
        {
          "duration": 0.43198483333330273,
          "durationTicks": 47,
          "midi": 68,
          "name": "G#4",
          "ticks": 18481,
          "time": 169.8619511666667,
          "velocity": 0.889763779527559
        },
        {
          "duration": 0.22058799999999223,
          "durationTicks": 24,
          "midi": 75,
          "name": "D#5",
          "ticks": 18504,
          "time": 170.073348,
          "velocity": 0.8818897637795275
        },
        {
          "duration": 0.4411760000000129,
          "durationTicks": 48,
          "midi": 60,
          "name": "C4",
          "ticks": 18528,
          "time": 170.293936,
          "velocity": 0.889763779527559
        },
        {
          "duration": 0.4411760000000129,
          "durationTicks": 48,
          "midi": 63,
          "name": "D#4",
          "ticks": 18528,
          "time": 170.293936,
          "velocity": 0.8976377952755905
        },
        {
          "duration": 0.43198483333333115,
          "durationTicks": 47,
          "midi": 68,
          "name": "G#4",
          "ticks": 18529,
          "time": 170.30312716666668,
          "velocity": 0.889763779527559
        },
        {
          "duration": 0.43198483333333115,
          "durationTicks": 47,
          "midi": 77,
          "name": "F5",
          "ticks": 18529,
          "time": 170.30312716666668,
          "velocity": 0.8346456692913385
        },
        {
          "duration": 0.22058800000002066,
          "durationTicks": 24,
          "midi": 92,
          "name": "G#6",
          "ticks": 18552,
          "time": 170.514524,
          "velocity": 0.889763779527559
        },
        {
          "duration": 0.21139683333333892,
          "durationTicks": 23,
          "midi": 80,
          "name": "G#5",
          "ticks": 18553,
          "time": 170.52371516666668,
          "velocity": 0.9133858267716536
        },
        {
          "duration": 0.6617639999999767,
          "durationTicks": 72,
          "midi": 37,
          "name": "C#2",
          "ticks": 18576,
          "time": 170.73511200000002,
          "velocity": 0.9133858267716536
        },
        {
          "duration": 0.6617639999999767,
          "durationTicks": 72,
          "midi": 49,
          "name": "C#3",
          "ticks": 18576,
          "time": 170.73511200000002,
          "velocity": 0.9133858267716536
        },
        {
          "duration": 0.6617639999999767,
          "durationTicks": 72,
          "midi": 60,
          "name": "C4",
          "ticks": 18576,
          "time": 170.73511200000002,
          "velocity": 0.905511811023622
        },
        {
          "duration": 0.652572833333295,
          "durationTicks": 71,
          "midi": 63,
          "name": "D#4",
          "ticks": 18577,
          "time": 170.7443031666667,
          "velocity": 0.905511811023622
        },
        {
          "duration": 0.652572833333295,
          "durationTicks": 71,
          "midi": 68,
          "name": "G#4",
          "ticks": 18577,
          "time": 170.7443031666667,
          "velocity": 0.8818897637795275
        },
        {
          "duration": 0.22058799999999223,
          "durationTicks": 24,
          "midi": 92,
          "name": "G#6",
          "ticks": 18600,
          "time": 170.9557,
          "velocity": 0.889763779527559
        },
        {
          "duration": 0.2113968333333105,
          "durationTicks": 23,
          "midi": 80,
          "name": "G#5",
          "ticks": 18601,
          "time": 170.9648911666667,
          "velocity": 0.9133858267716536
        },
        {
          "duration": 0.22058799999999223,
          "durationTicks": 24,
          "midi": 89,
          "name": "F6",
          "ticks": 18624,
          "time": 171.176288,
          "velocity": 0.8582677165354331
        },
        {
          "duration": 0.2113968333333105,
          "durationTicks": 23,
          "midi": 77,
          "name": "F5",
          "ticks": 18625,
          "time": 171.18547916666668,
          "velocity": 0.889763779527559
        },
        {
          "duration": 0.8823520000000258,
          "durationTicks": 96,
          "midi": 34,
          "name": "A#1",
          "ticks": 18648,
          "time": 171.396876,
          "velocity": 0.9133858267716536
        },
        {
          "duration": 0.8823520000000258,
          "durationTicks": 96,
          "midi": 46,
          "name": "A#2",
          "ticks": 18648,
          "time": 171.396876,
          "velocity": 0.8818897637795275
        },
        {
          "duration": 0.6525728333333518,
          "durationTicks": 71,
          "midi": 60,
          "name": "C4",
          "ticks": 18648,
          "time": 171.396876,
          "velocity": 0.905511811023622
        },
        {
          "duration": 0.652572833333295,
          "durationTicks": 71,
          "midi": 63,
          "name": "D#4",
          "ticks": 18649,
          "time": 171.4060671666667,
          "velocity": 0.8818897637795275
        },
        {
          "duration": 0.652572833333295,
          "durationTicks": 71,
          "midi": 68,
          "name": "G#4",
          "ticks": 18649,
          "time": 171.4060671666667,
          "velocity": 0.889763779527559
        },
        {
          "duration": 0.2113968333333105,
          "durationTicks": 23,
          "midi": 75,
          "name": "D#5",
          "ticks": 18649,
          "time": 171.4060671666667,
          "velocity": 0.905511811023622
        },
        {
          "duration": 0.21139683333333892,
          "durationTicks": 23,
          "midi": 60,
          "name": "C4",
          "ticks": 18720,
          "time": 172.05864,
          "velocity": 0.9212598425196851
        },
        {
          "duration": 0.21139683333333892,
          "durationTicks": 23,
          "midi": 63,
          "name": "D#4",
          "ticks": 18720,
          "time": 172.05864,
          "velocity": 0.8976377952755905
        },
        {
          "duration": 0.21139683333333892,
          "durationTicks": 23,
          "midi": 68,
          "name": "G#4",
          "ticks": 18721,
          "time": 172.06783116666668,
          "velocity": 0.905511811023622
        },
        {
          "duration": 1.084557666666683,
          "durationTicks": 118,
          "midi": 34,
          "name": "A#1",
          "ticks": 18744,
          "time": 172.27922800000002,
          "velocity": 0.9133858267716536
        },
        {
          "duration": 1.0753665000000012,
          "durationTicks": 117,
          "midi": 46,
          "name": "A#2",
          "ticks": 18744,
          "time": 172.27922800000002,
          "velocity": 0.8818897637795275
        },
        {
          "duration": 0.44117599999998447,
          "durationTicks": 48,
          "midi": 61,
          "name": "C#4",
          "ticks": 18744,
          "time": 172.27922800000002,
          "velocity": 0.905511811023622
        },
        {
          "duration": 0.43198483333330273,
          "durationTicks": 47,
          "midi": 65,
          "name": "F4",
          "ticks": 18745,
          "time": 172.2884191666667,
          "velocity": 0.8818897637795275
        },
        {
          "duration": 0.43198483333330273,
          "durationTicks": 47,
          "midi": 68,
          "name": "G#4",
          "ticks": 18745,
          "time": 172.2884191666667,
          "velocity": 0.889763779527559
        },
        {
          "duration": 0.6617640000000051,
          "durationTicks": 72,
          "midi": 61,
          "name": "C#4",
          "ticks": 18792,
          "time": 172.720404,
          "velocity": 0.905511811023622
        },
        {
          "duration": 0.6525728333333518,
          "durationTicks": 71,
          "midi": 65,
          "name": "F4",
          "ticks": 18792,
          "time": 172.720404,
          "velocity": 0.8818897637795275
        },
        {
          "duration": 0.6433816666666701,
          "durationTicks": 70,
          "midi": 68,
          "name": "G#4",
          "ticks": 18793,
          "time": 172.72959516666668,
          "velocity": 0.889763779527559
        },
        {
          "duration": 0.8639696666666907,
          "durationTicks": 94,
          "midi": 30,
          "name": "F#1",
          "ticks": 18864,
          "time": 173.382168,
          "velocity": 0.9133858267716536
        },
        {
          "duration": 0.8639696666666907,
          "durationTicks": 94,
          "midi": 42,
          "name": "F#2",
          "ticks": 18864,
          "time": 173.382168,
          "velocity": 0.8818897637795275
        },
        {
          "duration": 0.44117599999998447,
          "durationTicks": 48,
          "midi": 61,
          "name": "C#4",
          "ticks": 18864,
          "time": 173.382168,
          "velocity": 0.889763779527559
        },
        {
          "duration": 0.43198483333330273,
          "durationTicks": 47,
          "midi": 65,
          "name": "F4",
          "ticks": 18865,
          "time": 173.3913591666667,
          "velocity": 0.905511811023622
        },
        {
          "duration": 0.43198483333330273,
          "durationTicks": 47,
          "midi": 58,
          "name": "A#3",
          "ticks": 18865,
          "time": 173.3913591666667,
          "velocity": 0.8818897637795275
        },
        {
          "duration": 0.4411760000000129,
          "durationTicks": 48,
          "midi": 61,
          "name": "C#4",
          "ticks": 18912,
          "time": 173.823344,
          "velocity": 0.889763779527559
        },
        {
          "duration": 0.4411760000000129,
          "durationTicks": 48,
          "midi": 65,
          "name": "F4",
          "ticks": 18912,
          "time": 173.823344,
          "velocity": 0.889763779527559
        },
        {
          "duration": 0.43198483333330273,
          "durationTicks": 47,
          "midi": 58,
          "name": "A#3",
          "ticks": 18913,
          "time": 173.8325351666667,
          "velocity": 0.8582677165354331
        },
        {
          "duration": 0.6433816666666701,
          "durationTicks": 70,
          "midi": 30,
          "name": "F#1",
          "ticks": 18960,
          "time": 174.26452,
          "velocity": 0.8503937007874016
        },
        {
          "duration": 0.6433816666666701,
          "durationTicks": 70,
          "midi": 42,
          "name": "F#2",
          "ticks": 18961,
          "time": 174.2737111666667,
          "velocity": 0.8267716535433071
        },
        {
          "duration": 0.4411760000000129,
          "durationTicks": 48,
          "midi": 61,
          "name": "C#4",
          "ticks": 18984,
          "time": 174.485108,
          "velocity": 0.905511811023622
        },
        {
          "duration": 0.4411760000000129,
          "durationTicks": 48,
          "midi": 65,
          "name": "F4",
          "ticks": 18984,
          "time": 174.485108,
          "velocity": 0.8582677165354331
        },
        {
          "duration": 0.43198483333333115,
          "durationTicks": 47,
          "midi": 58,
          "name": "A#3",
          "ticks": 18985,
          "time": 174.49429916666668,
          "velocity": 0.8740157480314961
        },
        {
          "duration": 0.22058799999999223,
          "durationTicks": 24,
          "midi": 60,
          "name": "C4",
          "ticks": 19032,
          "time": 174.926284,
          "velocity": 0.8976377952755905
        },
        {
          "duration": 0.22058799999999223,
          "durationTicks": 24,
          "midi": 63,
          "name": "D#4",
          "ticks": 19032,
          "time": 174.926284,
          "velocity": 0.8582677165354331
        },
        {
          "duration": 0.2113968333333105,
          "durationTicks": 23,
          "midi": 57,
          "name": "A3",
          "ticks": 19033,
          "time": 174.9354751666667,
          "velocity": 0.8661417322834646
        },
        {
          "duration": 1.084557666666683,
          "durationTicks": 118,
          "midi": 29,
          "name": "F1",
          "ticks": 19056,
          "time": 175.146872,
          "velocity": 0.9133858267716536
        },
        {
          "duration": 1.084557666666683,
          "durationTicks": 118,
          "midi": 41,
          "name": "F2",
          "ticks": 19056,
          "time": 175.146872,
          "velocity": 0.8818897637795275
        },
        {
          "duration": 0.4411760000000129,
          "durationTicks": 48,
          "midi": 57,
          "name": "A3",
          "ticks": 19056,
          "time": 175.146872,
          "velocity": 0.889763779527559
        },
        {
          "duration": 0.43198483333333115,
          "durationTicks": 47,
          "midi": 63,
          "name": "D#4",
          "ticks": 19057,
          "time": 175.15606316666668,
          "velocity": 0.905511811023622
        },
        {
          "duration": 0.43198483333333115,
          "durationTicks": 47,
          "midi": 60,
          "name": "C4",
          "ticks": 19057,
          "time": 175.15606316666668,
          "velocity": 0.8818897637795275
        },
        {
          "duration": 0.22058799999999223,
          "durationTicks": 24,
          "midi": 57,
          "name": "A3",
          "ticks": 19104,
          "time": 175.58804800000001,
          "velocity": 0.889763779527559
        },
        {
          "duration": 0.2113968333333105,
          "durationTicks": 23,
          "midi": 69,
          "name": "A4",
          "ticks": 19105,
          "time": 175.5972391666667,
          "velocity": 0.8582677165354331
        },
        {
          "duration": 0.44117599999998447,
          "durationTicks": 48,
          "midi": 60,
          "name": "C4",
          "ticks": 19128,
          "time": 175.808636,
          "velocity": 0.889763779527559
        },
        {
          "duration": 0.43198483333333115,
          "durationTicks": 47,
          "midi": 63,
          "name": "D#4",
          "ticks": 19128,
          "time": 175.808636,
          "velocity": 0.905511811023622
        },
        {
          "duration": 0.43198483333330273,
          "durationTicks": 47,
          "midi": 68,
          "name": "G#4",
          "ticks": 19129,
          "time": 175.8178271666667,
          "velocity": 0.8582677165354331
        },
        {
          "duration": 0.43198483333330273,
          "durationTicks": 47,
          "midi": 69,
          "name": "A4",
          "ticks": 19129,
          "time": 175.8178271666667,
          "velocity": 0.7716535433070866
        },
        {
          "duration": 0.8639696666666907,
          "durationTicks": 94,
          "midi": 29,
          "name": "F1",
          "ticks": 19176,
          "time": 176.249812,
          "velocity": 0.8818897637795275
        },
        {
          "duration": 0.8639696666666907,
          "durationTicks": 94,
          "midi": 41,
          "name": "F2",
          "ticks": 19176,
          "time": 176.249812,
          "velocity": 0.8661417322834646
        },
        {
          "duration": 0.43198483333330273,
          "durationTicks": 47,
          "midi": 60,
          "name": "C4",
          "ticks": 19177,
          "time": 176.2590031666667,
          "velocity": 0.905511811023622
        },
        {
          "duration": 0.43198483333330273,
          "durationTicks": 47,
          "midi": 63,
          "name": "D#4",
          "ticks": 19177,
          "time": 176.2590031666667,
          "velocity": 0.8582677165354331
        },
        {
          "duration": 0.43198483333330273,
          "durationTicks": 47,
          "midi": 66,
          "name": "F#4",
          "ticks": 19177,
          "time": 176.2590031666667,
          "velocity": 0.8740157480314961
        },
        {
          "duration": 0.22058799999999223,
          "durationTicks": 24,
          "midi": 60,
          "name": "C4",
          "ticks": 19224,
          "time": 176.690988,
          "velocity": 0.889763779527559
        },
        {
          "duration": 0.22058799999999223,
          "durationTicks": 24,
          "midi": 63,
          "name": "D#4",
          "ticks": 19224,
          "time": 176.690988,
          "velocity": 0.8503937007874016
        },
        {
          "duration": 0.2113968333333105,
          "durationTicks": 23,
          "midi": 68,
          "name": "G#4",
          "ticks": 19225,
          "time": 176.7001791666667,
          "velocity": 0.8503937007874016
        },
        {
          "duration": 0.8639696666666907,
          "durationTicks": 94,
          "midi": 34,
          "name": "A#1",
          "ticks": 19248,
          "time": 176.911576,
          "velocity": 0.9133858267716536
        },
        {
          "duration": 0.8639696666666907,
          "durationTicks": 94,
          "midi": 46,
          "name": "A#2",
          "ticks": 19248,
          "time": 176.911576,
          "velocity": 0.8818897637795275
        },
        {
          "duration": 0.4411760000000129,
          "durationTicks": 48,
          "midi": 70,
          "name": "A#4",
          "ticks": 19248,
          "time": 176.911576,
          "velocity": 0.889763779527559
        },
        {
          "duration": 0.43198483333333115,
          "durationTicks": 47,
          "midi": 61,
          "name": "C#4",
          "ticks": 19249,
          "time": 176.92076716666668,
          "velocity": 0.7559055118110236
        },
        {
          "duration": 0.43198483333333115,
          "durationTicks": 47,
          "midi": 63,
          "name": "D#4",
          "ticks": 19249,
          "time": 176.92076716666668,
          "velocity": 0.8818897637795275
        },
        {
          "duration": 0.44117599999998447,
          "durationTicks": 48,
          "midi": 58,
          "name": "A#3",
          "ticks": 19296,
          "time": 177.352752,
          "velocity": 0.889763779527559
        },
        {
          "duration": 0.44117599999998447,
          "durationTicks": 48,
          "midi": 60,
          "name": "C4",
          "ticks": 19296,
          "time": 177.352752,
          "velocity": 0.889763779527559
        },
        {
          "duration": 0.43198483333330273,
          "durationTicks": 47,
          "midi": 63,
          "name": "D#4",
          "ticks": 19297,
          "time": 177.3619431666667,
          "velocity": 0.8582677165354331
        },
        {
          "duration": 0.8088226666666856,
          "durationTicks": 88,
          "midi": 36,
          "name": "C2",
          "ticks": 19344,
          "time": 177.793928,
          "velocity": 0.8582677165354331
        },
        {
          "duration": 0.7996315000000038,
          "durationTicks": 87,
          "midi": 48,
          "name": "C3",
          "ticks": 19345,
          "time": 177.80311916666668,
          "velocity": 0.8661417322834646
        },
        {
          "duration": 0.44117599999998447,
          "durationTicks": 48,
          "midi": 56,
          "name": "G#3",
          "ticks": 19368,
          "time": 178.01451600000001,
          "velocity": 0.8188976377952756
        },
        {
          "duration": 0.43198483333330273,
          "durationTicks": 47,
          "midi": 63,
          "name": "D#4",
          "ticks": 19369,
          "time": 178.0237071666667,
          "velocity": 0.8976377952755905
        },
        {
          "duration": 0.21139683333333892,
          "durationTicks": 23,
          "midi": 61,
          "name": "C#4",
          "ticks": 19416,
          "time": 178.455692,
          "velocity": 0.84251968503937
        },
        {
          "duration": 0.8639696666666907,
          "durationTicks": 94,
          "midi": 37,
          "name": "C#2",
          "ticks": 19440,
          "time": 178.67628,
          "velocity": 0.7086614173228346
        },
        {
          "duration": 0.8639696666666907,
          "durationTicks": 94,
          "midi": 49,
          "name": "C#3",
          "ticks": 19440,
          "time": 178.67628,
          "velocity": 0.7480314960629921
        },
        {
          "duration": 0.6617640000000051,
          "durationTicks": 72,
          "midi": 56,
          "name": "G#3",
          "ticks": 19440,
          "time": 178.67628,
          "velocity": 0.7244094488188977
        },
        {
          "duration": 0.652572833333295,
          "durationTicks": 71,
          "midi": 65,
          "name": "F4",
          "ticks": 19441,
          "time": 178.6854711666667,
          "velocity": 0.7244094488188977
        },
        {
          "duration": 0.652572833333295,
          "durationTicks": 71,
          "midi": 60,
          "name": "C4",
          "ticks": 19441,
          "time": 178.6854711666667,
          "velocity": 0.7086614173228346
        },
        {
          "duration": 0.4136024999999961,
          "durationTicks": 45,
          "midi": 56,
          "name": "G#3",
          "ticks": 19512,
          "time": 179.338044,
          "velocity": 0.8582677165354331
        },
        {
          "duration": 0.4319848333333596,
          "durationTicks": 47,
          "midi": 65,
          "name": "F4",
          "ticks": 19512,
          "time": 179.338044,
          "velocity": 0.8503937007874016
        },
        {
          "duration": 0.42279366666667784,
          "durationTicks": 46,
          "midi": 61,
          "name": "C#4",
          "ticks": 19513,
          "time": 179.34723516666668,
          "velocity": 0.889763779527559
        },
        {
          "duration": 0.43198483333333115,
          "durationTicks": 47,
          "midi": 84,
          "name": "C6",
          "ticks": 19513,
          "time": 179.34723516666668,
          "velocity": 0.984251968503937
        },
        {
          "duration": 0.42279366666667784,
          "durationTicks": 46,
          "midi": 72,
          "name": "C5",
          "ticks": 19513,
          "time": 179.34723516666668,
          "velocity": 0.937007874015748
        },
        {
          "duration": 0.8547784999999806,
          "durationTicks": 93,
          "midi": 29,
          "name": "F1",
          "ticks": 19536,
          "time": 179.55863200000002,
          "velocity": 0.7322834645669292
        },
        {
          "duration": 0.8455873333332988,
          "durationTicks": 92,
          "midi": 41,
          "name": "F2",
          "ticks": 19537,
          "time": 179.5678231666667,
          "velocity": 0.7874015748031497
        },
        {
          "duration": 0.21139683333333892,
          "durationTicks": 23,
          "midi": 56,
          "name": "G#3",
          "ticks": 19560,
          "time": 179.77922,
          "velocity": 0.8346456692913385
        },
        {
          "duration": 0.21139683333333892,
          "durationTicks": 23,
          "midi": 65,
          "name": "F4",
          "ticks": 19560,
          "time": 179.77922,
          "velocity": 0.8740157480314961
        },
        {
          "duration": 0.2113968333333105,
          "durationTicks": 23,
          "midi": 60,
          "name": "C4",
          "ticks": 19561,
          "time": 179.7884111666667,
          "velocity": 0.8661417322834646
        },
        {
          "duration": 0.4503671666666662,
          "durationTicks": 49,
          "midi": 85,
          "name": "C#6",
          "ticks": 19561,
          "time": 179.7884111666667,
          "velocity": 0.9606299212598425
        },
        {
          "duration": 0.44117599999998447,
          "durationTicks": 48,
          "midi": 73,
          "name": "C#5",
          "ticks": 19561,
          "time": 179.7884111666667,
          "velocity": 0.952755905511811
        },
        {
          "duration": 0.4136024999999961,
          "durationTicks": 45,
          "midi": 56,
          "name": "G#3",
          "ticks": 19584,
          "time": 179.999808,
          "velocity": 0.7874015748031497
        },
        {
          "duration": 0.43198483333333115,
          "durationTicks": 47,
          "midi": 65,
          "name": "F4",
          "ticks": 19585,
          "time": 180.00899916666668,
          "velocity": 0.8267716535433071
        },
        {
          "duration": 0.21139683333333892,
          "durationTicks": 23,
          "midi": 60,
          "name": "C4",
          "ticks": 19608,
          "time": 180.220396,
          "velocity": 0.8661417322834646
        },
        {
          "duration": 0.6433816666666985,
          "durationTicks": 70,
          "midi": 80,
          "name": "G#5",
          "ticks": 19608,
          "time": 180.220396,
          "velocity": 0.968503937007874
        },
        {
          "duration": 0.6525728333333234,
          "durationTicks": 71,
          "midi": 68,
          "name": "G#4",
          "ticks": 19609,
          "time": 180.22958716666668,
          "velocity": 0.937007874015748
        },
        {
          "duration": 0.8639696666666623,
          "durationTicks": 94,
          "midi": 30,
          "name": "F#1",
          "ticks": 19632,
          "time": 180.44098400000001,
          "velocity": 0.9133858267716536
        },
        {
          "duration": 0.8639696666666623,
          "durationTicks": 94,
          "midi": 42,
          "name": "F#2",
          "ticks": 19632,
          "time": 180.44098400000001,
          "velocity": 0.8818897637795275
        },
        {
          "duration": 0.44117599999998447,
          "durationTicks": 48,
          "midi": 61,
          "name": "C#4",
          "ticks": 19632,
          "time": 180.44098400000001,
          "velocity": 0.889763779527559
        },
        {
          "duration": 0.43198483333330273,
          "durationTicks": 47,
          "midi": 65,
          "name": "F4",
          "ticks": 19633,
          "time": 180.4501751666667,
          "velocity": 0.905511811023622
        },
        {
          "duration": 0.4411760000000129,
          "durationTicks": 48,
          "midi": 61,
          "name": "C#4",
          "ticks": 19680,
          "time": 180.88216,
          "velocity": 0.889763779527559
        },
        {
          "duration": 0.4411760000000129,
          "durationTicks": 48,
          "midi": 65,
          "name": "F4",
          "ticks": 19680,
          "time": 180.88216,
          "velocity": 0.889763779527559
        },
        {
          "duration": 0.43198483333333115,
          "durationTicks": 47,
          "midi": 68,
          "name": "G#4",
          "ticks": 19681,
          "time": 180.89135116666668,
          "velocity": 0.8582677165354331
        },
        {
          "duration": 0.873160833333344,
          "durationTicks": 95,
          "midi": 30,
          "name": "F#1",
          "ticks": 19728,
          "time": 181.323336,
          "velocity": 0.8503937007874016
        },
        {
          "duration": 0.8547784999999806,
          "durationTicks": 93,
          "midi": 42,
          "name": "F#2",
          "ticks": 19729,
          "time": 181.3325271666667,
          "velocity": 0.8267716535433071
        },
        {
          "duration": 0.4411760000000129,
          "durationTicks": 48,
          "midi": 61,
          "name": "C#4",
          "ticks": 19752,
          "time": 181.543924,
          "velocity": 0.905511811023622
        },
        {
          "duration": 0.4411760000000129,
          "durationTicks": 48,
          "midi": 65,
          "name": "F4",
          "ticks": 19752,
          "time": 181.543924,
          "velocity": 0.8582677165354331
        },
        {
          "duration": 0.43198483333333115,
          "durationTicks": 47,
          "midi": 68,
          "name": "G#4",
          "ticks": 19753,
          "time": 181.5531151666667,
          "velocity": 0.8740157480314961
        },
        {
          "duration": 0.22058799999999223,
          "durationTicks": 24,
          "midi": 61,
          "name": "C#4",
          "ticks": 19800,
          "time": 181.98510000000002,
          "velocity": 0.905511811023622
        },
        {
          "duration": 0.22058799999999223,
          "durationTicks": 24,
          "midi": 65,
          "name": "F4",
          "ticks": 19800,
          "time": 181.98510000000002,
          "velocity": 0.8740157480314961
        },
        {
          "duration": 0.2113968333333105,
          "durationTicks": 23,
          "midi": 68,
          "name": "G#4",
          "ticks": 19801,
          "time": 181.9942911666667,
          "velocity": 0.8503937007874016
        },
        {
          "duration": 0.873160833333344,
          "durationTicks": 95,
          "midi": 32,
          "name": "G#1",
          "ticks": 19824,
          "time": 182.205688,
          "velocity": 0.9133858267716536
        },
        {
          "duration": 0.873160833333344,
          "durationTicks": 95,
          "midi": 44,
          "name": "G#2",
          "ticks": 19824,
          "time": 182.205688,
          "velocity": 0.8818897637795275
        },
        {
          "duration": 0.873160833333344,
          "durationTicks": 95,
          "midi": 61,
          "name": "C#4",
          "ticks": 19824,
          "time": 182.205688,
          "velocity": 0.905511811023622
        },
        {
          "duration": 0.8731608333333156,
          "durationTicks": 95,
          "midi": 68,
          "name": "G#4",
          "ticks": 19825,
          "time": 182.2148791666667,
          "velocity": 0.889763779527559
        },
        {
          "duration": 0.6617640000000051,
          "durationTicks": 72,
          "midi": 65,
          "name": "F4",
          "ticks": 19848,
          "time": 182.426276,
          "velocity": 0.8661417322834646
        },
        {
          "duration": 0.22058800000002066,
          "durationTicks": 24,
          "midi": 72,
          "name": "C5",
          "ticks": 19872,
          "time": 182.646864,
          "velocity": 0.9133858267716536
        },
        {
          "duration": 0.21139683333333892,
          "durationTicks": 23,
          "midi": 84,
          "name": "C6",
          "ticks": 19873,
          "time": 182.65605516666668,
          "velocity": 0.9133858267716536
        },
        {
          "duration": 0.44117599999998447,
          "durationTicks": 48,
          "midi": 73,
          "name": "C#5",
          "ticks": 19896,
          "time": 182.86745200000001,
          "velocity": 0.8740157480314961
        },
        {
          "duration": 0.43198483333330273,
          "durationTicks": 47,
          "midi": 85,
          "name": "C#6",
          "ticks": 19897,
          "time": 182.8766431666667,
          "velocity": 0.905511811023622
        },
        {
          "duration": 0.873160833333344,
          "durationTicks": 95,
          "midi": 32,
          "name": "G#1",
          "ticks": 19920,
          "time": 183.08804,
          "velocity": 0.8740157480314961
        },
        {
          "duration": 0.8272049999999922,
          "durationTicks": 90,
          "midi": 44,
          "name": "G#2",
          "ticks": 19921,
          "time": 183.0972311666667,
          "velocity": 0.889763779527559
        },
        {
          "duration": 0.6525728333333234,
          "durationTicks": 71,
          "midi": 68,
          "name": "G#4",
          "ticks": 19921,
          "time": 183.0972311666667,
          "velocity": 0.8661417322834646
        },
        {
          "duration": 0.8272049999999922,
          "durationTicks": 90,
          "midi": 63,
          "name": "D#4",
          "ticks": 19922,
          "time": 183.10642233333334,
          "velocity": 0.8503937007874016
        },
        {
          "duration": 0.22058799999999223,
          "durationTicks": 24,
          "midi": 72,
          "name": "C5",
          "ticks": 19944,
          "time": 183.308628,
          "velocity": 0.889763779527559
        },
        {
          "duration": 0.2113968333333105,
          "durationTicks": 23,
          "midi": 84,
          "name": "C6",
          "ticks": 19945,
          "time": 183.31781916666668,
          "velocity": 0.8818897637795275
        },
        {
          "duration": 0.2113968333333105,
          "durationTicks": 23,
          "midi": 80,
          "name": "G#5",
          "ticks": 19969,
          "time": 183.5384071666667,
          "velocity": 0.9133858267716536
        },
        {
          "duration": 0.22058799999999223,
          "durationTicks": 24,
          "midi": 68,
          "name": "G#4",
          "ticks": 19992,
          "time": 183.749804,
          "velocity": 0.9133858267716536
        },
        {
          "duration": 0.2113968333333105,
          "durationTicks": 23,
          "midi": 80,
          "name": "G#5",
          "ticks": 19993,
          "time": 183.7589951666667,
          "velocity": 0.9133858267716536
        },
        {
          "duration": 0.873160833333344,
          "durationTicks": 95,
          "midi": 37,
          "name": "C#2",
          "ticks": 20016,
          "time": 183.970392,
          "velocity": 0.9133858267716536
        },
        {
          "duration": 0.873160833333344,
          "durationTicks": 95,
          "midi": 49,
          "name": "C#3",
          "ticks": 20016,
          "time": 183.970392,
          "velocity": 0.8818897637795275
        },
        {
          "duration": 0.43198483333333115,
          "durationTicks": 47,
          "midi": 60,
          "name": "C4",
          "ticks": 20016,
          "time": 183.970392,
          "velocity": 0.905511811023622
        },
        {
          "duration": 0.43198483333333115,
          "durationTicks": 47,
          "midi": 63,
          "name": "D#4",
          "ticks": 20017,
          "time": 183.97958316666669,
          "velocity": 0.8818897637795275
        },
        {
          "duration": 0.43198483333333115,
          "durationTicks": 47,
          "midi": 68,
          "name": "G#4",
          "ticks": 20017,
          "time": 183.97958316666669,
          "velocity": 0.889763779527559
        },
        {
          "duration": 0.22058800000002066,
          "durationTicks": 24,
          "midi": 75,
          "name": "D#5",
          "ticks": 20040,
          "time": 184.19098,
          "velocity": 0.8818897637795275
        },
        {
          "duration": 0.44117599999998447,
          "durationTicks": 48,
          "midi": 60,
          "name": "C4",
          "ticks": 20064,
          "time": 184.41156800000002,
          "velocity": 0.889763779527559
        },
        {
          "duration": 0.44117599999998447,
          "durationTicks": 48,
          "midi": 63,
          "name": "D#4",
          "ticks": 20064,
          "time": 184.41156800000002,
          "velocity": 0.8976377952755905
        },
        {
          "duration": 0.43198483333330273,
          "durationTicks": 47,
          "midi": 68,
          "name": "G#4",
          "ticks": 20065,
          "time": 184.4207591666667,
          "velocity": 0.889763779527559
        },
        {
          "duration": 0.43198483333330273,
          "durationTicks": 47,
          "midi": 77,
          "name": "F5",
          "ticks": 20065,
          "time": 184.4207591666667,
          "velocity": 0.8346456692913385
        },
        {
          "duration": 0.22058799999999223,
          "durationTicks": 24,
          "midi": 92,
          "name": "G#6",
          "ticks": 20088,
          "time": 184.632156,
          "velocity": 0.889763779527559
        },
        {
          "duration": 0.2113968333333105,
          "durationTicks": 23,
          "midi": 80,
          "name": "G#5",
          "ticks": 20089,
          "time": 184.6413471666667,
          "velocity": 0.9133858267716536
        },
        {
          "duration": 0.6617640000000051,
          "durationTicks": 72,
          "midi": 37,
          "name": "C#2",
          "ticks": 20112,
          "time": 184.852744,
          "velocity": 0.9133858267716536
        },
        {
          "duration": 0.6617640000000051,
          "durationTicks": 72,
          "midi": 49,
          "name": "C#3",
          "ticks": 20112,
          "time": 184.852744,
          "velocity": 0.9133858267716536
        },
        {
          "duration": 0.6617640000000051,
          "durationTicks": 72,
          "midi": 60,
          "name": "C4",
          "ticks": 20112,
          "time": 184.852744,
          "velocity": 0.905511811023622
        },
        {
          "duration": 0.6525728333333234,
          "durationTicks": 71,
          "midi": 63,
          "name": "D#4",
          "ticks": 20113,
          "time": 184.86193516666668,
          "velocity": 0.905511811023622
        },
        {
          "duration": 0.6525728333333234,
          "durationTicks": 71,
          "midi": 68,
          "name": "G#4",
          "ticks": 20113,
          "time": 184.86193516666668,
          "velocity": 0.8818897637795275
        },
        {
          "duration": 0.22058800000002066,
          "durationTicks": 24,
          "midi": 92,
          "name": "G#6",
          "ticks": 20136,
          "time": 185.073332,
          "velocity": 0.889763779527559
        },
        {
          "duration": 0.21139683333333892,
          "durationTicks": 23,
          "midi": 80,
          "name": "G#5",
          "ticks": 20137,
          "time": 185.08252316666668,
          "velocity": 0.9133858267716536
        },
        {
          "duration": 0.22058799999999223,
          "durationTicks": 24,
          "midi": 89,
          "name": "F6",
          "ticks": 20160,
          "time": 185.29392,
          "velocity": 0.8582677165354331
        },
        {
          "duration": 0.2113968333333105,
          "durationTicks": 23,
          "midi": 77,
          "name": "F5",
          "ticks": 20161,
          "time": 185.3031111666667,
          "velocity": 0.889763779527559
        },
        {
          "duration": 0.8823519999999974,
          "durationTicks": 96,
          "midi": 34,
          "name": "A#1",
          "ticks": 20184,
          "time": 185.514508,
          "velocity": 0.9133858267716536
        },
        {
          "duration": 0.8823519999999974,
          "durationTicks": 96,
          "midi": 46,
          "name": "A#2",
          "ticks": 20184,
          "time": 185.514508,
          "velocity": 0.8818897637795275
        },
        {
          "duration": 0.6525728333333518,
          "durationTicks": 71,
          "midi": 60,
          "name": "C4",
          "ticks": 20184,
          "time": 185.514508,
          "velocity": 0.905511811023622
        },
        {
          "duration": 0.6525728333333234,
          "durationTicks": 71,
          "midi": 63,
          "name": "D#4",
          "ticks": 20185,
          "time": 185.5236991666667,
          "velocity": 0.8818897637795275
        },
        {
          "duration": 0.6525728333333234,
          "durationTicks": 71,
          "midi": 68,
          "name": "G#4",
          "ticks": 20185,
          "time": 185.5236991666667,
          "velocity": 0.889763779527559
        },
        {
          "duration": 0.2113968333333105,
          "durationTicks": 23,
          "midi": 75,
          "name": "D#5",
          "ticks": 20185,
          "time": 185.5236991666667,
          "velocity": 0.905511811023622
        },
        {
          "duration": 0.21139683333333892,
          "durationTicks": 23,
          "midi": 60,
          "name": "C4",
          "ticks": 20256,
          "time": 186.176272,
          "velocity": 0.9212598425196851
        },
        {
          "duration": 0.21139683333333892,
          "durationTicks": 23,
          "midi": 63,
          "name": "D#4",
          "ticks": 20256,
          "time": 186.176272,
          "velocity": 0.8976377952755905
        },
        {
          "duration": 0.2113968333333105,
          "durationTicks": 23,
          "midi": 68,
          "name": "G#4",
          "ticks": 20257,
          "time": 186.1854631666667,
          "velocity": 0.905511811023622
        },
        {
          "duration": 0.8639696666666907,
          "durationTicks": 94,
          "midi": 34,
          "name": "A#1",
          "ticks": 20280,
          "time": 186.39686,
          "velocity": 0.9133858267716536
        },
        {
          "duration": 0.8823519999999974,
          "durationTicks": 96,
          "midi": 46,
          "name": "A#2",
          "ticks": 20280,
          "time": 186.39686,
          "velocity": 0.8976377952755905
        },
        {
          "duration": 0.873160833333344,
          "durationTicks": 95,
          "midi": 62,
          "name": "D4",
          "ticks": 20280,
          "time": 186.39686,
          "velocity": 0.889763779527559
        },
        {
          "duration": 0.8639696666666623,
          "durationTicks": 94,
          "midi": 65,
          "name": "F4",
          "ticks": 20281,
          "time": 186.40605116666669,
          "velocity": 0.8818897637795275
        },
        {
          "duration": 0.8639696666666623,
          "durationTicks": 94,
          "midi": 68,
          "name": "G#4",
          "ticks": 20281,
          "time": 186.40605116666669,
          "velocity": 0.889763779527559
        },
        {
          "duration": 0.42279366666667784,
          "durationTicks": 46,
          "midi": 94,
          "name": "A#6",
          "ticks": 20352,
          "time": 187.058624,
          "velocity": 0.84251968503937
        },
        {
          "duration": 0.4136024999999961,
          "durationTicks": 45,
          "midi": 82,
          "name": "A#5",
          "ticks": 20353,
          "time": 187.0678151666667,
          "velocity": 0.84251968503937
        },
        {
          "duration": 0.6617640000000051,
          "durationTicks": 72,
          "midi": 39,
          "name": "D#2",
          "ticks": 20400,
          "time": 187.4998,
          "velocity": 0.889763779527559
        },
        {
          "duration": 0.6617640000000051,
          "durationTicks": 72,
          "midi": 51,
          "name": "D#3",
          "ticks": 20400,
          "time": 187.4998,
          "velocity": 0.8818897637795275
        },
        {
          "duration": 0.6617640000000051,
          "durationTicks": 72,
          "midi": 61,
          "name": "C#4",
          "ticks": 20400,
          "time": 187.4998,
          "velocity": 0.889763779527559
        },
        {
          "duration": 0.6525728333333234,
          "durationTicks": 71,
          "midi": 65,
          "name": "F4",
          "ticks": 20401,
          "time": 187.50899116666668,
          "velocity": 0.8818897637795275
        },
        {
          "duration": 0.6525728333333234,
          "durationTicks": 71,
          "midi": 58,
          "name": "A#3",
          "ticks": 20401,
          "time": 187.50899116666668,
          "velocity": 0.889763779527559
        },
        {
          "duration": 1.084557666666683,
          "durationTicks": 118,
          "midi": 39,
          "name": "D#2",
          "ticks": 20472,
          "time": 188.161564,
          "velocity": 0.889763779527559
        },
        {
          "duration": 1.0753665000000012,
          "durationTicks": 117,
          "midi": 51,
          "name": "D#3",
          "ticks": 20472,
          "time": 188.161564,
          "velocity": 0.8976377952755905
        },
        {
          "duration": 0.4319848333333596,
          "durationTicks": 47,
          "midi": 61,
          "name": "C#4",
          "ticks": 20472,
          "time": 188.161564,
          "velocity": 0.905511811023622
        },
        {
          "duration": 0.43198483333333115,
          "durationTicks": 47,
          "midi": 65,
          "name": "F4",
          "ticks": 20473,
          "time": 188.17075516666668,
          "velocity": 0.8976377952755905
        },
        {
          "duration": 0.854778500000009,
          "durationTicks": 93,
          "midi": 58,
          "name": "A#3",
          "ticks": 20473,
          "time": 188.17075516666668,
          "velocity": 0.905511811023622
        },
        {
          "duration": 0.4136024999999961,
          "durationTicks": 45,
          "midi": 61,
          "name": "C#4",
          "ticks": 20520,
          "time": 188.60274,
          "velocity": 0.8818897637795275
        },
        {
          "duration": 0.4136024999999961,
          "durationTicks": 45,
          "midi": 66,
          "name": "F#4",
          "ticks": 20520,
          "time": 188.60274,
          "velocity": 0.8661417322834646
        },
        {
          "duration": 0.4136024999999961,
          "durationTicks": 45,
          "midi": 65,
          "name": "F4",
          "ticks": 20521,
          "time": 188.6119311666667,
          "velocity": 0.8346456692913385
        },
        {
          "duration": 0.21139683333333892,
          "durationTicks": 23,
          "midi": 61,
          "name": "C#4",
          "ticks": 20568,
          "time": 189.043916,
          "velocity": 0.889763779527559
        },
        {
          "duration": 0.2022056666666856,
          "durationTicks": 22,
          "midi": 65,
          "name": "F4",
          "ticks": 20568,
          "time": 189.043916,
          "velocity": 0.8818897637795275
        },
        {
          "duration": 0.20220566666665718,
          "durationTicks": 22,
          "midi": 58,
          "name": "A#3",
          "ticks": 20569,
          "time": 189.05310716666668,
          "velocity": 0.889763779527559
        },
        {
          "duration": 0.873160833333344,
          "durationTicks": 95,
          "midi": 32,
          "name": "G#1",
          "ticks": 20592,
          "time": 189.26450400000002,
          "velocity": 0.889763779527559
        },
        {
          "duration": 0.8731608333333156,
          "durationTicks": 95,
          "midi": 44,
          "name": "G#2",
          "ticks": 20593,
          "time": 189.2736951666667,
          "velocity": 0.8818897637795275
        },
        {
          "duration": 0.44117599999998447,
          "durationTicks": 48,
          "midi": 60,
          "name": "C4",
          "ticks": 20616,
          "time": 189.485092,
          "velocity": 0.889763779527559
        },
        {
          "duration": 0.43198483333333115,
          "durationTicks": 47,
          "midi": 63,
          "name": "D#4",
          "ticks": 20616,
          "time": 189.485092,
          "velocity": 0.8818897637795275
        },
        {
          "duration": 0.43198483333330273,
          "durationTicks": 47,
          "midi": 65,
          "name": "F4",
          "ticks": 20617,
          "time": 189.4942831666667,
          "velocity": 0.889763779527559
        },
        {
          "duration": 0.21139683333336734,
          "durationTicks": 23,
          "midi": 68,
          "name": "G#4",
          "ticks": 20664,
          "time": 189.926268,
          "velocity": 0.8818897637795275
        },
        {
          "duration": 0.21139683333336734,
          "durationTicks": 23,
          "midi": 63,
          "name": "D#4",
          "ticks": 20664,
          "time": 189.926268,
          "velocity": 0.8818897637795275
        },
        {
          "duration": 0.21139683333333892,
          "durationTicks": 23,
          "midi": 60,
          "name": "C4",
          "ticks": 20665,
          "time": 189.93545916666667,
          "velocity": 0.8740157480314961
        },
        {
          "duration": 0.43198483333333115,
          "durationTicks": 47,
          "midi": 80,
          "name": "G#5",
          "ticks": 20665,
          "time": 189.93545916666667,
          "velocity": 0.8661417322834646
        },
        {
          "duration": 0.8639696666666623,
          "durationTicks": 94,
          "midi": 32,
          "name": "G#1",
          "ticks": 20688,
          "time": 190.146856,
          "velocity": 0.9133858267716536
        },
        {
          "duration": 0.8547784999999806,
          "durationTicks": 93,
          "midi": 44,
          "name": "G#2",
          "ticks": 20688,
          "time": 190.146856,
          "velocity": 0.8818897637795275
        },
        {
          "duration": 0.43198483333333115,
          "durationTicks": 47,
          "midi": 60,
          "name": "C4",
          "ticks": 20688,
          "time": 190.146856,
          "velocity": 0.889763779527559
        },
        {
          "duration": 0.4227936666666494,
          "durationTicks": 46,
          "midi": 63,
          "name": "D#4",
          "ticks": 20689,
          "time": 190.1560471666667,
          "velocity": 0.8818897637795275
        },
        {
          "duration": 0.4227936666666494,
          "durationTicks": 46,
          "midi": 56,
          "name": "G#3",
          "ticks": 20689,
          "time": 190.1560471666667,
          "velocity": 0.889763779527559
        },
        {
          "duration": 0.22058799999999223,
          "durationTicks": 24,
          "midi": 87,
          "name": "D#6",
          "ticks": 20712,
          "time": 190.367444,
          "velocity": 0.9212598425196851
        },
        {
          "duration": 0.2113968333333105,
          "durationTicks": 23,
          "midi": 75,
          "name": "D#5",
          "ticks": 20713,
          "time": 190.3766351666667,
          "velocity": 0.9133858267716536
        },
        {
          "duration": 0.4319848333333596,
          "durationTicks": 47,
          "midi": 60,
          "name": "C4",
          "ticks": 20736,
          "time": 190.588032,
          "velocity": 0.889763779527559
        },
        {
          "duration": 0.42279366666667784,
          "durationTicks": 46,
          "midi": 63,
          "name": "D#4",
          "ticks": 20736,
          "time": 190.588032,
          "velocity": 0.8818897637795275
        },
        {
          "duration": 0.42279366666667784,
          "durationTicks": 46,
          "midi": 68,
          "name": "G#4",
          "ticks": 20737,
          "time": 190.59722316666668,
          "velocity": 0.889763779527559
        },
        {
          "duration": 0.22058799999999223,
          "durationTicks": 24,
          "midi": 87,
          "name": "D#6",
          "ticks": 20760,
          "time": 190.80862000000002,
          "velocity": 0.8503937007874016
        },
        {
          "duration": 0.2113968333333105,
          "durationTicks": 23,
          "midi": 75,
          "name": "D#5",
          "ticks": 20761,
          "time": 190.8178111666667,
          "velocity": 0.84251968503937
        },
        {
          "duration": 0.873160833333344,
          "durationTicks": 95,
          "midi": 34,
          "name": "A#1",
          "ticks": 20784,
          "time": 191.029208,
          "velocity": 0.8661417322834646
        },
        {
          "duration": 0.873160833333344,
          "durationTicks": 95,
          "midi": 46,
          "name": "A#2",
          "ticks": 20784,
          "time": 191.029208,
          "velocity": 0.8582677165354331
        },
        {
          "duration": 0.44117599999998447,
          "durationTicks": 48,
          "midi": 65,
          "name": "F4",
          "ticks": 20784,
          "time": 191.029208,
          "velocity": 0.8818897637795275
        },
        {
          "duration": 0.43198483333330273,
          "durationTicks": 47,
          "midi": 61,
          "name": "C#4",
          "ticks": 20785,
          "time": 191.0383991666667,
          "velocity": 0.8976377952755905
        },
        {
          "duration": 0.43198483333330273,
          "durationTicks": 47,
          "midi": 56,
          "name": "G#3",
          "ticks": 20785,
          "time": 191.0383991666667,
          "velocity": 0.8740157480314961
        },
        {
          "duration": 0.4411760000000129,
          "durationTicks": 48,
          "midi": 63,
          "name": "D#4",
          "ticks": 20832,
          "time": 191.470384,
          "velocity": 0.8661417322834646
        },
        {
          "duration": 0.4319848333333596,
          "durationTicks": 47,
          "midi": 60,
          "name": "C4",
          "ticks": 20832,
          "time": 191.470384,
          "velocity": 0.8818897637795275
        },
        {
          "duration": 0.43198483333333115,
          "durationTicks": 47,
          "midi": 56,
          "name": "G#3",
          "ticks": 20833,
          "time": 191.47957516666668,
          "velocity": 0.8818897637795275
        },
        {
          "duration": 0.873160833333344,
          "durationTicks": 95,
          "midi": 36,
          "name": "C2",
          "ticks": 20880,
          "time": 191.91156,
          "velocity": 0.8818897637795275
        },
        {
          "duration": 0.873160833333344,
          "durationTicks": 95,
          "midi": 48,
          "name": "C3",
          "ticks": 20880,
          "time": 191.91156,
          "velocity": 0.8818897637795275
        },
        {
          "duration": 0.8731608333333156,
          "durationTicks": 95,
          "midi": 65,
          "name": "F4",
          "ticks": 20881,
          "time": 191.9207511666667,
          "velocity": 0.8110236220472441
        },
        {
          "duration": 0.8731608333333156,
          "durationTicks": 95,
          "midi": 61,
          "name": "C#4",
          "ticks": 20881,
          "time": 191.9207511666667,
          "velocity": 0.8267716535433071
        },
        {
          "duration": 0.8731608333333156,
          "durationTicks": 95,
          "midi": 56,
          "name": "G#3",
          "ticks": 20881,
          "time": 191.9207511666667,
          "velocity": 0.8031496062992126
        },
        {
          "duration": 0.22058799999999223,
          "durationTicks": 24,
          "midi": 84,
          "name": "C6",
          "ticks": 20904,
          "time": 192.132148,
          "velocity": 0.9448818897637795
        },
        {
          "duration": 0.2113968333333105,
          "durationTicks": 23,
          "midi": 72,
          "name": "C5",
          "ticks": 20905,
          "time": 192.14133916666668,
          "velocity": 0.9291338582677166
        },
        {
          "duration": 0.22058800000002066,
          "durationTicks": 24,
          "midi": 80,
          "name": "G#5",
          "ticks": 20928,
          "time": 192.352736,
          "velocity": 0.937007874015748
        },
        {
          "duration": 0.21139683333333892,
          "durationTicks": 23,
          "midi": 68,
          "name": "G#4",
          "ticks": 20929,
          "time": 192.36192716666667,
          "velocity": 0.9291338582677166
        },
        {
          "duration": 0.22058799999999223,
          "durationTicks": 24,
          "midi": 85,
          "name": "C#6",
          "ticks": 20952,
          "time": 192.573324,
          "velocity": 0.952755905511811
        },
        {
          "duration": 0.2113968333333105,
          "durationTicks": 23,
          "midi": 73,
          "name": "C#5",
          "ticks": 20953,
          "time": 192.5825151666667,
          "velocity": 0.952755905511811
        },
        {
          "duration": 0.873160833333344,
          "durationTicks": 95,
          "midi": 37,
          "name": "C#2",
          "ticks": 20976,
          "time": 192.793912,
          "velocity": 0.8661417322834646
        },
        {
          "duration": 0.873160833333344,
          "durationTicks": 95,
          "midi": 49,
          "name": "C#3",
          "ticks": 20976,
          "time": 192.793912,
          "velocity": 0.8582677165354331
        },
        {
          "duration": 0.4411760000000129,
          "durationTicks": 48,
          "midi": 60,
          "name": "C4",
          "ticks": 20976,
          "time": 192.793912,
          "velocity": 0.8818897637795275
        },
        {
          "duration": 0.43198483333333115,
          "durationTicks": 47,
          "midi": 63,
          "name": "D#4",
          "ticks": 20977,
          "time": 192.8031031666667,
          "velocity": 0.8976377952755905
        },
        {
          "duration": 0.43198483333333115,
          "durationTicks": 47,
          "midi": 56,
          "name": "G#3",
          "ticks": 20977,
          "time": 192.8031031666667,
          "velocity": 0.84251968503937
        },
        {
          "duration": 0.4411760000000129,
          "durationTicks": 48,
          "midi": 84,
          "name": "C6",
          "ticks": 21000,
          "time": 193.0145,
          "velocity": 0.937007874015748
        },
        {
          "duration": 0.43198483333333115,
          "durationTicks": 47,
          "midi": 72,
          "name": "C5",
          "ticks": 21001,
          "time": 193.02369116666668,
          "velocity": 0.9291338582677166
        },
        {
          "duration": 0.6433816666666701,
          "durationTicks": 70,
          "midi": 60,
          "name": "C4",
          "ticks": 21024,
          "time": 193.23508800000002,
          "velocity": 0.7952755905511811
        },
        {
          "duration": 0.6433816666666701,
          "durationTicks": 70,
          "midi": 65,
          "name": "F4",
          "ticks": 21024,
          "time": 193.23508800000002,
          "velocity": 0.84251968503937
        },
        {
          "duration": 0.6433816666666416,
          "durationTicks": 70,
          "midi": 56,
          "name": "G#3",
          "ticks": 21025,
          "time": 193.2442791666667,
          "velocity": 0.8346456692913385
        },
        {
          "duration": 0.22058799999999223,
          "durationTicks": 24,
          "midi": 80,
          "name": "G#5",
          "ticks": 21048,
          "time": 193.455676,
          "velocity": 0.9212598425196851
        },
        {
          "duration": 0.2113968333333105,
          "durationTicks": 23,
          "midi": 68,
          "name": "G#4",
          "ticks": 21049,
          "time": 193.4648671666667,
          "velocity": 0.9448818897637795
        },
        {
          "duration": 0.873160833333344,
          "durationTicks": 95,
          "midi": 37,
          "name": "C#2",
          "ticks": 21072,
          "time": 193.676264,
          "velocity": 0.8267716535433071
        },
        {
          "duration": 0.8731608333333156,
          "durationTicks": 95,
          "midi": 49,
          "name": "C#3",
          "ticks": 21073,
          "time": 193.68545516666669,
          "velocity": 0.8188976377952756
        },
        {
          "duration": 0.6525728333333518,
          "durationTicks": 71,
          "midi": 60,
          "name": "C4",
          "ticks": 21096,
          "time": 193.896852,
          "velocity": 0.8110236220472441
        },
        {
          "duration": 0.6525728333333518,
          "durationTicks": 71,
          "midi": 65,
          "name": "F4",
          "ticks": 21096,
          "time": 193.896852,
          "velocity": 0.889763779527559
        },
        {
          "duration": 0.6433816666666701,
          "durationTicks": 70,
          "midi": 68,
          "name": "G#4",
          "ticks": 21097,
          "time": 193.90604316666668,
          "velocity": 0.889763779527559
        },
        {
          "duration": 0.8639696666666907,
          "durationTicks": 94,
          "midi": 30,
          "name": "F#1",
          "ticks": 21168,
          "time": 194.558616,
          "velocity": 0.9133858267716536
        },
        {
          "duration": 0.8639696666666907,
          "durationTicks": 94,
          "midi": 42,
          "name": "F#2",
          "ticks": 21168,
          "time": 194.558616,
          "velocity": 0.8818897637795275
        },
        {
          "duration": 0.4411760000000129,
          "durationTicks": 48,
          "midi": 61,
          "name": "C#4",
          "ticks": 21168,
          "time": 194.558616,
          "velocity": 0.889763779527559
        },
        {
          "duration": 0.43198483333333115,
          "durationTicks": 47,
          "midi": 65,
          "name": "F4",
          "ticks": 21169,
          "time": 194.56780716666668,
          "velocity": 0.905511811023622
        },
        {
          "duration": 0.43198483333333115,
          "durationTicks": 47,
          "midi": 56,
          "name": "G#3",
          "ticks": 21169,
          "time": 194.56780716666668,
          "velocity": 0.8818897637795275
        },
        {
          "duration": 0.44117599999998447,
          "durationTicks": 48,
          "midi": 61,
          "name": "C#4",
          "ticks": 21216,
          "time": 194.999792,
          "velocity": 0.889763779527559
        },
        {
          "duration": 0.44117599999998447,
          "durationTicks": 48,
          "midi": 65,
          "name": "F4",
          "ticks": 21216,
          "time": 194.999792,
          "velocity": 0.889763779527559
        },
        {
          "duration": 0.43198483333330273,
          "durationTicks": 47,
          "midi": 56,
          "name": "G#3",
          "ticks": 21217,
          "time": 195.0089831666667,
          "velocity": 0.8582677165354331
        },
        {
          "duration": 0.873160833333344,
          "durationTicks": 95,
          "midi": 30,
          "name": "F#1",
          "ticks": 21264,
          "time": 195.440968,
          "velocity": 0.8503937007874016
        },
        {
          "duration": 0.854778500000009,
          "durationTicks": 93,
          "midi": 42,
          "name": "F#2",
          "ticks": 21265,
          "time": 195.45015916666668,
          "velocity": 0.8267716535433071
        },
        {
          "duration": 0.44117599999998447,
          "durationTicks": 48,
          "midi": 61,
          "name": "C#4",
          "ticks": 21288,
          "time": 195.66155600000002,
          "velocity": 0.905511811023622
        },
        {
          "duration": 0.44117599999998447,
          "durationTicks": 48,
          "midi": 65,
          "name": "F4",
          "ticks": 21288,
          "time": 195.66155600000002,
          "velocity": 0.8582677165354331
        },
        {
          "duration": 0.43198483333330273,
          "durationTicks": 47,
          "midi": 56,
          "name": "G#3",
          "ticks": 21289,
          "time": 195.6707471666667,
          "velocity": 0.8740157480314961
        },
        {
          "duration": 0.22058799999999223,
          "durationTicks": 24,
          "midi": 61,
          "name": "C#4",
          "ticks": 21336,
          "time": 196.102732,
          "velocity": 0.905511811023622
        },
        {
          "duration": 0.22058799999999223,
          "durationTicks": 24,
          "midi": 65,
          "name": "F4",
          "ticks": 21336,
          "time": 196.102732,
          "velocity": 0.8740157480314961
        },
        {
          "duration": 0.2113968333333105,
          "durationTicks": 23,
          "midi": 56,
          "name": "G#3",
          "ticks": 21337,
          "time": 196.11192316666668,
          "velocity": 0.8503937007874016
        },
        {
          "duration": 0.8639696666666907,
          "durationTicks": 94,
          "midi": 32,
          "name": "G#1",
          "ticks": 21360,
          "time": 196.32332,
          "velocity": 0.8976377952755905
        },
        {
          "duration": 0.8639696666666623,
          "durationTicks": 94,
          "midi": 44,
          "name": "G#2",
          "ticks": 21361,
          "time": 196.33251116666668,
          "velocity": 0.8740157480314961
        },
        {
          "duration": 0.44117599999998447,
          "durationTicks": 48,
          "midi": 61,
          "name": "C#4",
          "ticks": 21384,
          "time": 196.54390800000002,
          "velocity": 0.889763779527559
        },
        {
          "duration": 0.43198483333333115,
          "durationTicks": 47,
          "midi": 65,
          "name": "F4",
          "ticks": 21384,
          "time": 196.54390800000002,
          "velocity": 0.905511811023622
        },
        {
          "duration": 0.43198483333330273,
          "durationTicks": 47,
          "midi": 58,
          "name": "A#3",
          "ticks": 21385,
          "time": 196.5530991666667,
          "velocity": 0.84251968503937
        },
        {
          "duration": 0.22058799999999223,
          "durationTicks": 24,
          "midi": 80,
          "name": "G#5",
          "ticks": 21432,
          "time": 196.985084,
          "velocity": 0.952755905511811
        },
        {
          "duration": 0.21139683333333892,
          "durationTicks": 23,
          "midi": 68,
          "name": "G#4",
          "ticks": 21432,
          "time": 196.985084,
          "velocity": 0.937007874015748
        },
        {
          "duration": 0.8639696666666623,
          "durationTicks": 94,
          "midi": 63,
          "name": "D#4",
          "ticks": 21433,
          "time": 196.99427516666668,
          "velocity": 0.905511811023622
        },
        {
          "duration": 0.43198483333333115,
          "durationTicks": 47,
          "midi": 61,
          "name": "C#4",
          "ticks": 21433,
          "time": 196.99427516666668,
          "velocity": 0.8503937007874016
        },
        {
          "duration": 0.873160833333344,
          "durationTicks": 95,
          "midi": 32,
          "name": "G#1",
          "ticks": 21456,
          "time": 197.205672,
          "velocity": 0.8503937007874016
        },
        {
          "duration": 0.873160833333344,
          "durationTicks": 95,
          "midi": 44,
          "name": "G#2",
          "ticks": 21456,
          "time": 197.205672,
          "velocity": 0.8503937007874016
        },
        {
          "duration": 0.6433816666666701,
          "durationTicks": 70,
          "midi": 60,
          "name": "C4",
          "ticks": 21457,
          "time": 197.21486316666667,
          "velocity": 0.889763779527559
        },
        {
          "duration": 0.44117599999998447,
          "durationTicks": 48,
          "midi": 87,
          "name": "D#6",
          "ticks": 21480,
          "time": 197.42626,
          "velocity": 0.952755905511811
        },
        {
          "duration": 0.43198483333330273,
          "durationTicks": 47,
          "midi": 75,
          "name": "D#5",
          "ticks": 21481,
          "time": 197.4354511666667,
          "velocity": 0.937007874015748
        },
        {
          "duration": 0.22058800000002066,
          "durationTicks": 24,
          "midi": 68,
          "name": "G#4",
          "ticks": 21528,
          "time": 197.867436,
          "velocity": 0.8818897637795275
        },
        {
          "duration": 0.22058800000002066,
          "durationTicks": 24,
          "midi": 63,
          "name": "D#4",
          "ticks": 21528,
          "time": 197.867436,
          "velocity": 0.8661417322834646
        },
        {
          "duration": 0.21139683333333892,
          "durationTicks": 23,
          "midi": 60,
          "name": "C4",
          "ticks": 21529,
          "time": 197.87662716666668,
          "velocity": 0.8661417322834646
        },
        {
          "duration": 0.8731608333333156,
          "durationTicks": 95,
          "midi": 30,
          "name": "F#1",
          "ticks": 21552,
          "time": 198.08802400000002,
          "velocity": 0.8661417322834646
        },
        {
          "duration": 0.8731608333333156,
          "durationTicks": 95,
          "midi": 42,
          "name": "F#2",
          "ticks": 21552,
          "time": 198.08802400000002,
          "velocity": 0.889763779527559
        },
        {
          "duration": 0.44117599999998447,
          "durationTicks": 48,
          "midi": 61,
          "name": "C#4",
          "ticks": 21552,
          "time": 198.08802400000002,
          "velocity": 0.8740157480314961
        },
        {
          "duration": 0.43198483333330273,
          "durationTicks": 47,
          "midi": 65,
          "name": "F4",
          "ticks": 21553,
          "time": 198.0972151666667,
          "velocity": 0.8661417322834646
        },
        {
          "duration": 0.43198483333330273,
          "durationTicks": 47,
          "midi": 56,
          "name": "G#3",
          "ticks": 21553,
          "time": 198.0972151666667,
          "velocity": 0.8740157480314961
        },
        {
          "duration": 0.6525728333333518,
          "durationTicks": 71,
          "midi": 61,
          "name": "C#4",
          "ticks": 21600,
          "time": 198.5292,
          "velocity": 0.8503937007874016
        },
        {
          "duration": 0.6525728333333518,
          "durationTicks": 71,
          "midi": 65,
          "name": "F4",
          "ticks": 21600,
          "time": 198.5292,
          "velocity": 0.8503937007874016
        },
        {
          "duration": 0.6433816666666701,
          "durationTicks": 70,
          "midi": 56,
          "name": "G#3",
          "ticks": 21601,
          "time": 198.53839116666668,
          "velocity": 0.8582677165354331
        },
        {
          "duration": 0.873160833333344,
          "durationTicks": 95,
          "midi": 30,
          "name": "F#1",
          "ticks": 21648,
          "time": 198.97037600000002,
          "velocity": 0.8661417322834646
        },
        {
          "duration": 0.8731608333333156,
          "durationTicks": 95,
          "midi": 42,
          "name": "F#2",
          "ticks": 21649,
          "time": 198.9795671666667,
          "velocity": 0.889763779527559
        },
        {
          "duration": 0.43198483333333115,
          "durationTicks": 47,
          "midi": 61,
          "name": "C#4",
          "ticks": 21672,
          "time": 199.190964,
          "velocity": 0.8818897637795275
        },
        {
          "duration": 0.43198483333333115,
          "durationTicks": 47,
          "midi": 65,
          "name": "F4",
          "ticks": 21672,
          "time": 199.190964,
          "velocity": 0.889763779527559
        },
        {
          "duration": 0.2113968333333105,
          "durationTicks": 23,
          "midi": 68,
          "name": "G#4",
          "ticks": 21673,
          "time": 199.2001551666667,
          "velocity": 0.8582677165354331
        },
        {
          "duration": 0.22058799999999223,
          "durationTicks": 24,
          "midi": 60,
          "name": "C4",
          "ticks": 21696,
          "time": 199.411552,
          "velocity": 0.8740157480314961
        },
        {
          "duration": 0.22058800000002066,
          "durationTicks": 24,
          "midi": 65,
          "name": "F4",
          "ticks": 21720,
          "time": 199.63214,
          "velocity": 0.8582677165354331
        },
        {
          "duration": 0.22058800000002066,
          "durationTicks": 24,
          "midi": 61,
          "name": "C#4",
          "ticks": 21720,
          "time": 199.63214,
          "velocity": 0.8661417322834646
        },
        {
          "duration": 0.2113968333333105,
          "durationTicks": 23,
          "midi": 58,
          "name": "A#3",
          "ticks": 21721,
          "time": 199.6413311666667,
          "velocity": 0.889763779527559
        },
        {
          "duration": 0.8823519999999974,
          "durationTicks": 96,
          "midi": 30,
          "name": "F#1",
          "ticks": 21744,
          "time": 199.852728,
          "velocity": 0.8661417322834646
        },
        {
          "duration": 0.8731608333333156,
          "durationTicks": 95,
          "midi": 42,
          "name": "F#2",
          "ticks": 21745,
          "time": 199.8619191666667,
          "velocity": 0.889763779527559
        },
        {
          "duration": 0.6617640000000051,
          "durationTicks": 72,
          "midi": 68,
          "name": "G#4",
          "ticks": 21768,
          "time": 200.073316,
          "velocity": 0.8661417322834646
        },
        {
          "duration": 0.6617640000000051,
          "durationTicks": 72,
          "midi": 65,
          "name": "F4",
          "ticks": 21768,
          "time": 200.073316,
          "velocity": 0.8661417322834646
        },
        {
          "duration": 0.22058799999999223,
          "durationTicks": 24,
          "midi": 61,
          "name": "C#4",
          "ticks": 21769,
          "time": 200.0825071666667,
          "velocity": 0.8582677165354331
        },
        {
          "duration": 0.22058800000002066,
          "durationTicks": 24,
          "midi": 60,
          "name": "C4",
          "ticks": 21792,
          "time": 200.293904,
          "velocity": 0.889763779527559
        },
        {
          "duration": 0.22058799999999223,
          "durationTicks": 24,
          "midi": 58,
          "name": "A#3",
          "ticks": 21816,
          "time": 200.51449200000002,
          "velocity": 0.8976377952755905
        },
        {
          "duration": 0.8823519999999974,
          "durationTicks": 96,
          "midi": 30,
          "name": "F#1",
          "ticks": 21840,
          "time": 200.73508,
          "velocity": 0.8976377952755905
        },
        {
          "duration": 0.8731608333333156,
          "durationTicks": 95,
          "midi": 42,
          "name": "F#2",
          "ticks": 21841,
          "time": 200.7442711666667,
          "velocity": 0.8661417322834646
        },
        {
          "duration": 0.43198483333333115,
          "durationTicks": 47,
          "midi": 61,
          "name": "C#4",
          "ticks": 21864,
          "time": 200.955668,
          "velocity": 0.8818897637795275
        },
        {
          "duration": 0.43198483333333115,
          "durationTicks": 47,
          "midi": 65,
          "name": "F4",
          "ticks": 21864,
          "time": 200.955668,
          "velocity": 0.889763779527559
        },
        {
          "duration": 0.2113968333333105,
          "durationTicks": 23,
          "midi": 68,
          "name": "G#4",
          "ticks": 21865,
          "time": 200.96485916666668,
          "velocity": 0.8582677165354331
        },
        {
          "duration": 0.22058800000002066,
          "durationTicks": 24,
          "midi": 60,
          "name": "C4",
          "ticks": 21888,
          "time": 201.176256,
          "velocity": 0.8740157480314961
        },
        {
          "duration": 0.22058799999999223,
          "durationTicks": 24,
          "midi": 68,
          "name": "G#4",
          "ticks": 21912,
          "time": 201.39684400000002,
          "velocity": 0.8031496062992126
        },
        {
          "duration": 0.22058799999999223,
          "durationTicks": 24,
          "midi": 65,
          "name": "F4",
          "ticks": 21912,
          "time": 201.39684400000002,
          "velocity": 0.8267716535433071
        },
        {
          "duration": 0.2113968333333105,
          "durationTicks": 23,
          "midi": 61,
          "name": "C#4",
          "ticks": 21913,
          "time": 201.4060351666667,
          "velocity": 0.905511811023622
        },
        {
          "duration": 0.6617640000000051,
          "durationTicks": 72,
          "midi": 31,
          "name": "G1",
          "ticks": 21936,
          "time": 201.617432,
          "velocity": 0.7952755905511811
        },
        {
          "duration": 0.6617640000000051,
          "durationTicks": 72,
          "midi": 43,
          "name": "G2",
          "ticks": 21960,
          "time": 201.83802,
          "velocity": 0.8267716535433071
        },
        {
          "duration": 0.22058799999999223,
          "durationTicks": 24,
          "midi": 58,
          "name": "A#3",
          "ticks": 21960,
          "time": 201.83802,
          "velocity": 0.7007874015748031
        },
        {
          "duration": 0.6617640000000051,
          "durationTicks": 72,
          "midi": 58,
          "name": "A#3",
          "ticks": 21984,
          "time": 202.058608,
          "velocity": 0.8346456692913385
        },
        {
          "duration": 1.102940000000018,
          "durationTicks": 120,
          "midi": 65,
          "name": "F4",
          "ticks": 21984,
          "time": 202.058608,
          "velocity": 0.8582677165354331
        },
        {
          "duration": 0.8731608333333156,
          "durationTicks": 95,
          "midi": 61,
          "name": "C#4",
          "ticks": 21985,
          "time": 202.0677991666667,
          "velocity": 0.7795275590551181
        },
        {
          "duration": 0.8823519999999974,
          "durationTicks": 96,
          "midi": 31,
          "name": "G1",
          "ticks": 22008,
          "time": 202.279196,
          "velocity": 0.8188976377952756
        },
        {
          "duration": 0.4411760000000129,
          "durationTicks": 48,
          "midi": 43,
          "name": "G2",
          "ticks": 22032,
          "time": 202.499784,
          "velocity": 0.7952755905511811
        },
        {
          "duration": 0.22058800000002066,
          "durationTicks": 24,
          "midi": 58,
          "name": "A#3",
          "ticks": 22056,
          "time": 202.720372,
          "velocity": 0.8031496062992126
        },
        {
          "duration": 0.22058799999999223,
          "durationTicks": 24,
          "midi": 43,
          "name": "G2",
          "ticks": 22080,
          "time": 202.94096000000002,
          "velocity": 0.7795275590551181
        },
        {
          "duration": 0.22058799999999223,
          "durationTicks": 24,
          "midi": 61,
          "name": "C#4",
          "ticks": 22080,
          "time": 202.94096000000002,
          "velocity": 0.8661417322834646
        },
        {
          "duration": 0.2113968333333105,
          "durationTicks": 23,
          "midi": 58,
          "name": "A#3",
          "ticks": 22081,
          "time": 202.9501511666667,
          "velocity": 0.8267716535433071
        },
        {
          "duration": 0.22058799999999223,
          "durationTicks": 24,
          "midi": 30,
          "name": "F#1",
          "ticks": 22104,
          "time": 203.161548,
          "velocity": 0.7007874015748031
        },
        {
          "duration": 0.6617640000000051,
          "durationTicks": 72,
          "midi": 42,
          "name": "F#2",
          "ticks": 22104,
          "time": 203.161548,
          "velocity": 0.7716535433070866
        },
        {
          "duration": 0.44117599999998447,
          "durationTicks": 48,
          "midi": 65,
          "name": "F4",
          "ticks": 22104,
          "time": 203.161548,
          "velocity": 0.84251968503937
        },
        {
          "duration": 0.43198483333330273,
          "durationTicks": 47,
          "midi": 61,
          "name": "C#4",
          "ticks": 22105,
          "time": 203.1707391666667,
          "velocity": 0.8188976377952756
        },
        {
          "duration": 0.43198483333330273,
          "durationTicks": 47,
          "midi": 58,
          "name": "A#3",
          "ticks": 22105,
          "time": 203.1707391666667,
          "velocity": 0.8267716535433071
        },
        {
          "duration": 0.6617640000000051,
          "durationTicks": 72,
          "midi": 30,
          "name": "F#1",
          "ticks": 22128,
          "time": 203.382136,
          "velocity": 0.8582677165354331
        },
        {
          "duration": 0.4411760000000129,
          "durationTicks": 48,
          "midi": 66,
          "name": "F#4",
          "ticks": 22152,
          "time": 203.602724,
          "velocity": 0.84251968503937
        },
        {
          "duration": 0.43198483333333115,
          "durationTicks": 47,
          "midi": 61,
          "name": "C#4",
          "ticks": 22153,
          "time": 203.61191516666668,
          "velocity": 0.7637795275590551
        },
        {
          "duration": 0.43198483333333115,
          "durationTicks": 47,
          "midi": 58,
          "name": "A#3",
          "ticks": 22153,
          "time": 203.61191516666668,
          "velocity": 0.8110236220472441
        },
        {
          "duration": 0.22058799999999223,
          "durationTicks": 24,
          "midi": 42,
          "name": "F#2",
          "ticks": 22176,
          "time": 203.82331200000002,
          "velocity": 0.7795275590551181
        },
        {
          "duration": 0.8823519999999974,
          "durationTicks": 96,
          "midi": 30,
          "name": "F#1",
          "ticks": 22200,
          "time": 204.0439,
          "velocity": 0.8031496062992126
        },
        {
          "duration": 0.44117599999998447,
          "durationTicks": 48,
          "midi": 65,
          "name": "F4",
          "ticks": 22200,
          "time": 204.0439,
          "velocity": 0.8188976377952756
        },
        {
          "duration": 0.43198483333330273,
          "durationTicks": 47,
          "midi": 61,
          "name": "C#4",
          "ticks": 22201,
          "time": 204.0530911666667,
          "velocity": 0.7637795275590551
        },
        {
          "duration": 0.43198483333330273,
          "durationTicks": 47,
          "midi": 58,
          "name": "A#3",
          "ticks": 22201,
          "time": 204.0530911666667,
          "velocity": 0.7874015748031497
        },
        {
          "duration": 0.4411760000000129,
          "durationTicks": 48,
          "midi": 61,
          "name": "C#4",
          "ticks": 22248,
          "time": 204.485076,
          "velocity": 0.84251968503937
        },
        {
          "duration": 0.4319848333333596,
          "durationTicks": 47,
          "midi": 58,
          "name": "A#3",
          "ticks": 22248,
          "time": 204.485076,
          "velocity": 0.7637795275590551
        },
        {
          "duration": 0.43198483333330273,
          "durationTicks": 47,
          "midi": 54,
          "name": "F#3",
          "ticks": 22249,
          "time": 204.4942671666667,
          "velocity": 0.8110236220472441
        },
        {
          "duration": 0.4136024999999961,
          "durationTicks": 45,
          "midi": 42,
          "name": "F#2",
          "ticks": 22272,
          "time": 204.705664,
          "velocity": 0.7795275590551181
        },
        {
          "duration": 0.2022056666666856,
          "durationTicks": 22,
          "midi": 30,
          "name": "F#1",
          "ticks": 22296,
          "time": 204.926252,
          "velocity": 0.6299212598425197
        },
        {
          "duration": 0.19301450000000386,
          "durationTicks": 21,
          "midi": 65,
          "name": "F4",
          "ticks": 22296,
          "time": 204.926252,
          "velocity": 0.84251968503937
        },
        {
          "duration": 0.18382333333332213,
          "durationTicks": 20,
          "midi": 61,
          "name": "C#4",
          "ticks": 22297,
          "time": 204.9354431666667,
          "velocity": 0.7637795275590551
        },
        {
          "duration": 0.18382333333332213,
          "durationTicks": 20,
          "midi": 58,
          "name": "A#3",
          "ticks": 22297,
          "time": 204.9354431666667,
          "velocity": 0.7480314960629921
        },
        {
          "duration": 0.8823519999999974,
          "durationTicks": 96,
          "midi": 29,
          "name": "F1",
          "ticks": 22320,
          "time": 205.14684,
          "velocity": 0.8031496062992126
        },
        {
          "duration": 0.6617640000000051,
          "durationTicks": 72,
          "midi": 41,
          "name": "F2",
          "ticks": 22320,
          "time": 205.14684,
          "velocity": 0.7637795275590551
        },
        {
          "duration": 0.4411760000000129,
          "durationTicks": 48,
          "midi": 63,
          "name": "D#4",
          "ticks": 22320,
          "time": 205.14684,
          "velocity": 0.84251968503937
        },
        {
          "duration": 0.43198483333333115,
          "durationTicks": 47,
          "midi": 60,
          "name": "C4",
          "ticks": 22321,
          "time": 205.15603116666668,
          "velocity": 0.7637795275590551
        },
        {
          "duration": 0.43198483333333115,
          "durationTicks": 47,
          "midi": 56,
          "name": "G#3",
          "ticks": 22321,
          "time": 205.15603116666668,
          "velocity": 0.8110236220472441
        },
        {
          "duration": 1.1029399999999896,
          "durationTicks": 120,
          "midi": 53,
          "name": "F3",
          "ticks": 22368,
          "time": 205.588016,
          "velocity": 0.8031496062992126
        },
        {
          "duration": 0.8823519999999974,
          "durationTicks": 96,
          "midi": 63,
          "name": "D#4",
          "ticks": 22368,
          "time": 205.588016,
          "velocity": 0.8031496062992126
        },
        {
          "duration": 0.6525728333333234,
          "durationTicks": 71,
          "midi": 60,
          "name": "C4",
          "ticks": 22369,
          "time": 205.5972071666667,
          "velocity": 0.7716535433070866
        },
        {
          "duration": 0.43198483333330273,
          "durationTicks": 47,
          "midi": 56,
          "name": "G#3",
          "ticks": 22369,
          "time": 205.5972071666667,
          "velocity": 0.7716535433070866
        },
        {
          "duration": 0.6617640000000051,
          "durationTicks": 72,
          "midi": 41,
          "name": "F2",
          "ticks": 22392,
          "time": 205.808604,
          "velocity": 0.7244094488188977
        },
        {
          "duration": 0.4411760000000129,
          "durationTicks": 48,
          "midi": 56,
          "name": "G#3",
          "ticks": 22416,
          "time": 206.029192,
          "velocity": 0.7795275590551181
        },
        {
          "duration": 0.6617640000000051,
          "durationTicks": 72,
          "midi": 29,
          "name": "F1",
          "ticks": 22416,
          "time": 206.029192,
          "velocity": 0.7401574803149606
        },
        {
          "duration": 0.22058799999999223,
          "durationTicks": 24,
          "midi": 60,
          "name": "C4",
          "ticks": 22440,
          "time": 206.24978000000002,
          "velocity": 0.7086614173228346
        },
        {
          "duration": 0.22058799999999223,
          "durationTicks": 24,
          "midi": 41,
          "name": "F2",
          "ticks": 22464,
          "time": 206.470368,
          "velocity": 0.84251968503937
        },
        {
          "duration": 0.22058799999999223,
          "durationTicks": 24,
          "midi": 63,
          "name": "D#4",
          "ticks": 22464,
          "time": 206.470368,
          "velocity": 0.8110236220472441
        },
        {
          "duration": 0.2113968333333105,
          "durationTicks": 23,
          "midi": 60,
          "name": "C4",
          "ticks": 22465,
          "time": 206.4795591666667,
          "velocity": 0.7716535433070866
        },
        {
          "duration": 0.2113968333333105,
          "durationTicks": 23,
          "midi": 56,
          "name": "G#3",
          "ticks": 22465,
          "time": 206.4795591666667,
          "velocity": 0.7716535433070866
        },
        {
          "duration": 1.3235280000000103,
          "durationTicks": 144,
          "midi": 34,
          "name": "A#1",
          "ticks": 22488,
          "time": 206.690956,
          "velocity": 0.8582677165354331
        },
        {
          "duration": 0.4411760000000129,
          "durationTicks": 48,
          "midi": 68,
          "name": "G#4",
          "ticks": 22488,
          "time": 206.690956,
          "velocity": 0.8031496062992126
        },
        {
          "duration": 0.43198483333333115,
          "durationTicks": 47,
          "midi": 63,
          "name": "D#4",
          "ticks": 22489,
          "time": 206.70014716666668,
          "velocity": 0.7795275590551181
        },
        {
          "duration": 0.43198483333333115,
          "durationTicks": 47,
          "midi": 60,
          "name": "C4",
          "ticks": 22489,
          "time": 206.70014716666668,
          "velocity": 0.7637795275590551
        },
        {
          "duration": 0.4411760000000129,
          "durationTicks": 48,
          "midi": 46,
          "name": "A#2",
          "ticks": 22512,
          "time": 206.911544,
          "velocity": 0.7401574803149606
        },
        {
          "duration": 0.44117599999998447,
          "durationTicks": 48,
          "midi": 66,
          "name": "F#4",
          "ticks": 22536,
          "time": 207.132132,
          "velocity": 0.8740157480314961
        },
        {
          "duration": 0.43198483333333115,
          "durationTicks": 47,
          "midi": 63,
          "name": "D#4",
          "ticks": 22536,
          "time": 207.132132,
          "velocity": 0.8503937007874016
        },
        {
          "duration": 0.43198483333330273,
          "durationTicks": 47,
          "midi": 60,
          "name": "C4",
          "ticks": 22537,
          "time": 207.1413231666667,
          "velocity": 0.8346456692913385
        },
        {
          "duration": 0.43198483333330273,
          "durationTicks": 47,
          "midi": 56,
          "name": "G#3",
          "ticks": 22537,
          "time": 207.1413231666667,
          "velocity": 0.7086614173228346
        },
        {
          "duration": 0.4411760000000129,
          "durationTicks": 48,
          "midi": 46,
          "name": "A#2",
          "ticks": 22560,
          "time": 207.35272,
          "velocity": 0.7559055118110236
        },
        {
          "duration": 0.4411760000000129,
          "durationTicks": 48,
          "midi": 65,
          "name": "F4",
          "ticks": 22584,
          "time": 207.573308,
          "velocity": 0.8346456692913385
        },
        {
          "duration": 0.4319848333333596,
          "durationTicks": 47,
          "midi": 60,
          "name": "C4",
          "ticks": 22584,
          "time": 207.573308,
          "velocity": 0.84251968503937
        },
        {
          "duration": 0.43198483333333115,
          "durationTicks": 47,
          "midi": 56,
          "name": "G#3",
          "ticks": 22585,
          "time": 207.58249916666668,
          "velocity": 0.7086614173228346
        },
        {
          "duration": 0.6617639999999767,
          "durationTicks": 72,
          "midi": 46,
          "name": "A#2",
          "ticks": 22608,
          "time": 207.79389600000002,
          "velocity": 0.7322834645669292
        },
        {
          "duration": 0.6525728333333234,
          "durationTicks": 71,
          "midi": 34,
          "name": "A#1",
          "ticks": 22632,
          "time": 208.014484,
          "velocity": 0.8188976377952756
        },
        {
          "duration": 0.6617640000000051,
          "durationTicks": 72,
          "midi": 63,
          "name": "D#4",
          "ticks": 22632,
          "time": 208.014484,
          "velocity": 0.7401574803149606
        },
        {
          "duration": 0.6525728333333234,
          "durationTicks": 71,
          "midi": 60,
          "name": "C4",
          "ticks": 22633,
          "time": 208.0236751666667,
          "velocity": 0.7480314960629921
        },
        {
          "duration": 0.6525728333333234,
          "durationTicks": 71,
          "midi": 56,
          "name": "G#3",
          "ticks": 22633,
          "time": 208.0236751666667,
          "velocity": 0.7322834645669292
        },
        {
          "duration": 0.21139683333333892,
          "durationTicks": 23,
          "midi": 46,
          "name": "A#2",
          "ticks": 22680,
          "time": 208.45566,
          "velocity": 0.6850393700787402
        },
        {
          "duration": 0.6525728333333234,
          "durationTicks": 71,
          "midi": 39,
          "name": "D#2",
          "ticks": 22704,
          "time": 208.67624800000002,
          "velocity": 0.8267716535433071
        },
        {
          "duration": 0.6617639999999767,
          "durationTicks": 72,
          "midi": 61,
          "name": "C#4",
          "ticks": 22704,
          "time": 208.67624800000002,
          "velocity": 0.7480314960629921
        },
        {
          "duration": 0.652572833333295,
          "durationTicks": 71,
          "midi": 58,
          "name": "A#3",
          "ticks": 22705,
          "time": 208.6854391666667,
          "velocity": 0.7244094488188977
        },
        {
          "duration": 0.43198483333330273,
          "durationTicks": 47,
          "midi": 54,
          "name": "F#3",
          "ticks": 22705,
          "time": 208.6854391666667,
          "velocity": 0.7165354330708661
        },
        {
          "duration": 0.8823519999999974,
          "durationTicks": 96,
          "midi": 51,
          "name": "D#3",
          "ticks": 22728,
          "time": 208.896836,
          "velocity": 0.6456692913385826
        },
        {
          "duration": 0.22058799999999223,
          "durationTicks": 24,
          "midi": 54,
          "name": "F#3",
          "ticks": 22752,
          "time": 209.117424,
          "velocity": 0.7401574803149606
        },
        {
          "duration": 0.6617640000000051,
          "durationTicks": 72,
          "midi": 39,
          "name": "D#2",
          "ticks": 22776,
          "time": 209.338012,
          "velocity": 0.8346456692913385
        },
        {
          "duration": 0.8823520000000258,
          "durationTicks": 96,
          "midi": 61,
          "name": "C#4",
          "ticks": 22776,
          "time": 209.338012,
          "velocity": 0.7480314960629921
        },
        {
          "duration": 0.8731608333333156,
          "durationTicks": 95,
          "midi": 58,
          "name": "A#3",
          "ticks": 22777,
          "time": 209.3472031666667,
          "velocity": 0.7795275590551181
        },
        {
          "duration": 0.43198483333330273,
          "durationTicks": 47,
          "midi": 54,
          "name": "F#3",
          "ticks": 22777,
          "time": 209.3472031666667,
          "velocity": 0.7165354330708661
        },
        {
          "duration": 0.6617640000000051,
          "durationTicks": 72,
          "midi": 27,
          "name": "D#1",
          "ticks": 22824,
          "time": 209.779188,
          "velocity": 0.48031496062992124
        },
        {
          "duration": 0.6617640000000051,
          "durationTicks": 72,
          "midi": 51,
          "name": "D#3",
          "ticks": 22824,
          "time": 209.779188,
          "velocity": 0.6771653543307087
        },
        {
          "duration": 0.4411760000000129,
          "durationTicks": 48,
          "midi": 39,
          "name": "D#2",
          "ticks": 22848,
          "time": 209.999776,
          "velocity": 0.7637795275590551
        },
        {
          "duration": 0.22058800000002066,
          "durationTicks": 24,
          "midi": 54,
          "name": "F#3",
          "ticks": 22848,
          "time": 209.999776,
          "velocity": 0.7559055118110236
        },
        {
          "duration": 0.22058799999999223,
          "durationTicks": 24,
          "midi": 61,
          "name": "C#4",
          "ticks": 22872,
          "time": 210.22036400000002,
          "velocity": 0.7322834645669292
        },
        {
          "duration": 0.22058799999999223,
          "durationTicks": 24,
          "midi": 58,
          "name": "A#3",
          "ticks": 22872,
          "time": 210.22036400000002,
          "velocity": 0.7480314960629921
        },
        {
          "duration": 0.2113968333333105,
          "durationTicks": 23,
          "midi": 54,
          "name": "F#3",
          "ticks": 22873,
          "time": 210.2295551666667,
          "velocity": 0.7165354330708661
        },
        {
          "duration": 0.6525728333333234,
          "durationTicks": 71,
          "midi": 29,
          "name": "F1",
          "ticks": 22896,
          "time": 210.440952,
          "velocity": 0.7007874015748031
        },
        {
          "duration": 0.6525728333333234,
          "durationTicks": 71,
          "midi": 41,
          "name": "F2",
          "ticks": 22896,
          "time": 210.440952,
          "velocity": 0.7244094488188977
        },
        {
          "duration": 0.6617640000000051,
          "durationTicks": 72,
          "midi": 63,
          "name": "D#4",
          "ticks": 22896,
          "time": 210.440952,
          "velocity": 0.7637795275590551
        },
        {
          "duration": 0.6525728333333234,
          "durationTicks": 71,
          "midi": 60,
          "name": "C4",
          "ticks": 22897,
          "time": 210.4501431666667,
          "velocity": 0.7244094488188977
        },
        {
          "duration": 0.43198483333330273,
          "durationTicks": 47,
          "midi": 56,
          "name": "G#3",
          "ticks": 22897,
          "time": 210.4501431666667,
          "velocity": 0.7165354330708661
        },
        {
          "duration": 0.8823519999999974,
          "durationTicks": 96,
          "midi": 53,
          "name": "F3",
          "ticks": 22920,
          "time": 210.66154,
          "velocity": 0.6456692913385826
        },
        {
          "duration": 0.22058800000002066,
          "durationTicks": 24,
          "midi": 56,
          "name": "G#3",
          "ticks": 22944,
          "time": 210.882128,
          "velocity": 0.7401574803149606
        },
        {
          "duration": 1.1029399999999896,
          "durationTicks": 120,
          "midi": 29,
          "name": "F1",
          "ticks": 22968,
          "time": 211.10271600000002,
          "velocity": 0.6456692913385826
        },
        {
          "duration": 0.6617639999999767,
          "durationTicks": 72,
          "midi": 41,
          "name": "F2",
          "ticks": 22968,
          "time": 211.10271600000002,
          "velocity": 0.7637795275590551
        },
        {
          "duration": 0.8823519999999974,
          "durationTicks": 96,
          "midi": 63,
          "name": "D#4",
          "ticks": 22968,
          "time": 211.10271600000002,
          "velocity": 0.7874015748031497
        },
        {
          "duration": 0.8731608333333156,
          "durationTicks": 95,
          "midi": 60,
          "name": "C4",
          "ticks": 22969,
          "time": 211.1119071666667,
          "velocity": 0.7795275590551181
        },
        {
          "duration": 0.43198483333330273,
          "durationTicks": 47,
          "midi": 56,
          "name": "G#3",
          "ticks": 22969,
          "time": 211.1119071666667,
          "velocity": 0.7322834645669292
        },
        {
          "duration": 0.6617640000000051,
          "durationTicks": 72,
          "midi": 53,
          "name": "F3",
          "ticks": 23016,
          "time": 211.543892,
          "velocity": 0.6456692913385826
        },
        {
          "duration": 0.4411760000000129,
          "durationTicks": 48,
          "midi": 41,
          "name": "F2",
          "ticks": 23040,
          "time": 211.76448,
          "velocity": 0.8110236220472441
        },
        {
          "duration": 0.22058800000002066,
          "durationTicks": 24,
          "midi": 56,
          "name": "G#3",
          "ticks": 23040,
          "time": 211.76448,
          "velocity": 0.7637795275590551
        },
        {
          "duration": 0.22058799999999223,
          "durationTicks": 24,
          "midi": 63,
          "name": "D#4",
          "ticks": 23064,
          "time": 211.985068,
          "velocity": 0.8188976377952756
        },
        {
          "duration": 0.22058799999999223,
          "durationTicks": 24,
          "midi": 60,
          "name": "C4",
          "ticks": 23064,
          "time": 211.985068,
          "velocity": 0.7637795275590551
        },
        {
          "duration": 0.2113968333333105,
          "durationTicks": 23,
          "midi": 56,
          "name": "G#3",
          "ticks": 23065,
          "time": 211.9942591666667,
          "velocity": 0.7401574803149606
        },
        {
          "duration": 0.6525728333333518,
          "durationTicks": 71,
          "midi": 30,
          "name": "F#1",
          "ticks": 23088,
          "time": 212.205656,
          "velocity": 0.7244094488188977
        },
        {
          "duration": 0.6525728333333518,
          "durationTicks": 71,
          "midi": 42,
          "name": "F#2",
          "ticks": 23088,
          "time": 212.205656,
          "velocity": 0.7559055118110236
        },
        {
          "duration": 0.6617640000000051,
          "durationTicks": 72,
          "midi": 65,
          "name": "F4",
          "ticks": 23088,
          "time": 212.205656,
          "velocity": 0.8188976377952756
        },
        {
          "duration": 0.6525728333333234,
          "durationTicks": 71,
          "midi": 61,
          "name": "C#4",
          "ticks": 23089,
          "time": 212.2148471666667,
          "velocity": 0.7795275590551181
        },
        {
          "duration": 0.43198483333333115,
          "durationTicks": 47,
          "midi": 58,
          "name": "A#3",
          "ticks": 23089,
          "time": 212.2148471666667,
          "velocity": 0.7716535433070866
        },
        {
          "duration": 0.8823519999999974,
          "durationTicks": 96,
          "midi": 54,
          "name": "F#3",
          "ticks": 23112,
          "time": 212.426244,
          "velocity": 0.7244094488188977
        },
        {
          "duration": 0.22058799999999223,
          "durationTicks": 24,
          "midi": 58,
          "name": "A#3",
          "ticks": 23136,
          "time": 212.64683200000002,
          "velocity": 0.7795275590551181
        },
        {
          "duration": 0.8823519999999974,
          "durationTicks": 96,
          "midi": 30,
          "name": "F#1",
          "ticks": 23160,
          "time": 212.86742,
          "velocity": 0.6535433070866141
        },
        {
          "duration": 0.6617640000000051,
          "durationTicks": 72,
          "midi": 42,
          "name": "F#2",
          "ticks": 23160,
          "time": 212.86742,
          "velocity": 0.7716535433070866
        },
        {
          "duration": 0.8823519999999974,
          "durationTicks": 96,
          "midi": 65,
          "name": "F4",
          "ticks": 23160,
          "time": 212.86742,
          "velocity": 0.84251968503937
        },
        {
          "duration": 0.8731608333333156,
          "durationTicks": 95,
          "midi": 61,
          "name": "C#4",
          "ticks": 23161,
          "time": 212.8766111666667,
          "velocity": 0.8346456692913385
        },
        {
          "duration": 0.43198483333330273,
          "durationTicks": 47,
          "midi": 58,
          "name": "A#3",
          "ticks": 23161,
          "time": 212.8766111666667,
          "velocity": 0.7874015748031497
        },
        {
          "duration": 0.6617640000000051,
          "durationTicks": 72,
          "midi": 54,
          "name": "F#3",
          "ticks": 23208,
          "time": 213.308596,
          "velocity": 0.6614173228346457
        },
        {
          "duration": 0.44117599999998447,
          "durationTicks": 48,
          "midi": 42,
          "name": "F#2",
          "ticks": 23232,
          "time": 213.52918400000001,
          "velocity": 0.8346456692913385
        },
        {
          "duration": 0.22058799999999223,
          "durationTicks": 24,
          "midi": 58,
          "name": "A#3",
          "ticks": 23232,
          "time": 213.52918400000001,
          "velocity": 0.7322834645669292
        },
        {
          "duration": 0.8674777916666585,
          "durationTicks": 94,
          "midi": 30,
          "name": "F#1",
          "ticks": 23256,
          "time": 213.749772,
          "velocity": 0.8503937007874016
        },
        {
          "duration": 0.8674777916666585,
          "durationTicks": 94,
          "midi": 65,
          "name": "F4",
          "ticks": 23256,
          "time": 213.749772,
          "velocity": 0.8740157480314961
        },
        {
          "duration": 0.6525728333333234,
          "durationTicks": 71,
          "midi": 61,
          "name": "C#4",
          "ticks": 23257,
          "time": 213.7589631666667,
          "velocity": 0.8346456692913385
        },
        {
          "duration": 0.8582866249999768,
          "durationTicks": 93,
          "midi": 58,
          "name": "A#3",
          "ticks": 23257,
          "time": 213.7589631666667,
          "velocity": 0.8267716535433071
        },
        {
          "duration": 0.41675981250000405,
          "durationTicks": 45,
          "midi": 42,
          "name": "F#2",
          "ticks": 23304,
          "time": 214.190948,
          "velocity": 0.7795275590551181
        },
        {
          "duration": 0.41675981250000405,
          "durationTicks": 45,
          "midi": 66,
          "name": "F#4",
          "ticks": 23304,
          "time": 214.190948,
          "velocity": 0.7244094488188977
        },
        {
          "duration": 0.1961718124999834,
          "durationTicks": 21,
          "midi": 61,
          "name": "C#4",
          "ticks": 23328,
          "time": 214.411536,
          "velocity": 0.7952755905511811
        },
        {
          "duration": 0.1961718124999834,
          "durationTicks": 21,
          "midi": 70,
          "name": "A#4",
          "ticks": 23328,
          "time": 214.411536,
          "velocity": 0.7874015748031497
        },
        {
          "duration": 0.45801499999998896,
          "durationTicks": 48,
          "midi": 30,
          "name": "F#1",
          "ticks": 23352,
          "time": 214.63633375,
          "velocity": 0.7874015748031497
        },
        {
          "duration": 0.45801499999998896,
          "durationTicks": 48,
          "midi": 42,
          "name": "F#2",
          "ticks": 23352,
          "time": 214.63633375,
          "velocity": 0.7165354330708661
        },
        {
          "duration": 0.45801499999998896,
          "durationTicks": 48,
          "midi": 66,
          "name": "F#4",
          "ticks": 23352,
          "time": 214.63633375,
          "velocity": 0.8661417322834646
        },
        {
          "duration": 0.45801499999998896,
          "durationTicks": 48,
          "midi": 70,
          "name": "A#4",
          "ticks": 23352,
          "time": 214.63633375,
          "velocity": 0.84251968503937
        },
        {
          "duration": 0.4484730208333474,
          "durationTicks": 47,
          "midi": 73,
          "name": "C#5",
          "ticks": 23353,
          "time": 214.64587572916665,
          "velocity": 0.84251968503937
        },
        {
          "duration": 0.4389310416666774,
          "durationTicks": 46,
          "midi": 77,
          "name": "F5",
          "ticks": 23354,
          "time": 214.65541770833332,
          "velocity": 0.8740157480314961
        },
        {
          "duration": 0.23622000000000298,
          "durationTicks": 24,
          "midi": 30,
          "name": "F#1",
          "ticks": 23400,
          "time": 215.09434875,
          "velocity": 0.8503937007874016
        },
        {
          "duration": 0.23622000000000298,
          "durationTicks": 24,
          "midi": 42,
          "name": "F#2",
          "ticks": 23400,
          "time": 215.09434875,
          "velocity": 0.7952755905511811
        },
        {
          "duration": 0.23622000000000298,
          "durationTicks": 24,
          "midi": 66,
          "name": "F#4",
          "ticks": 23400,
          "time": 215.09434875,
          "velocity": 0.7952755905511811
        },
        {
          "duration": 0.2365400833333524,
          "durationTicks": 24,
          "midi": 70,
          "name": "A#4",
          "ticks": 23401,
          "time": 215.10419124999999,
          "velocity": 0.84251968503937
        },
        {
          "duration": 0.22637750000001233,
          "durationTicks": 23,
          "midi": 73,
          "name": "C#5",
          "ticks": 23401,
          "time": 215.10419124999999,
          "velocity": 0.8110236220472441
        },
        {
          "duration": 0.22637750000001233,
          "durationTicks": 23,
          "midi": 77,
          "name": "F5",
          "ticks": 23401,
          "time": 215.10419124999999,
          "velocity": 0.8031496062992126
        },
        {
          "duration": 0.2439019999999914,
          "durationTicks": 24,
          "midi": 30,
          "name": "F#1",
          "ticks": 23424,
          "time": 215.33056875,
          "velocity": 0.8031496062992126
        },
        {
          "duration": 0.2439019999999914,
          "durationTicks": 24,
          "midi": 42,
          "name": "F#2",
          "ticks": 23424,
          "time": 215.33056875,
          "velocity": 0.7401574803149606
        },
        {
          "duration": 0.23373941666665132,
          "durationTicks": 23,
          "midi": 66,
          "name": "F#4",
          "ticks": 23425,
          "time": 215.34073133333334,
          "velocity": 0.8661417322834646
        },
        {
          "duration": 0.23373941666665132,
          "durationTicks": 23,
          "midi": 70,
          "name": "A#4",
          "ticks": 23425,
          "time": 215.34073133333334,
          "velocity": 0.84251968503937
        },
        {
          "duration": 0.23373941666665132,
          "durationTicks": 23,
          "midi": 73,
          "name": "C#5",
          "ticks": 23425,
          "time": 215.34073133333334,
          "velocity": 0.84251968503937
        },
        {
          "duration": 0.23373941666665132,
          "durationTicks": 23,
          "midi": 77,
          "name": "F5",
          "ticks": 23425,
          "time": 215.34073133333334,
          "velocity": 0.8740157480314961
        },
        {
          "duration": 0.25862050000000636,
          "durationTicks": 24,
          "midi": 30,
          "name": "F#1",
          "ticks": 23448,
          "time": 215.57447075,
          "velocity": 0.905511811023622
        },
        {
          "duration": 0.25862050000000636,
          "durationTicks": 24,
          "midi": 42,
          "name": "F#2",
          "ticks": 23448,
          "time": 215.57447075,
          "velocity": 0.8503937007874016
        },
        {
          "duration": 0.25862050000000636,
          "durationTicks": 24,
          "midi": 66,
          "name": "F#4",
          "ticks": 23448,
          "time": 215.57447075,
          "velocity": 0.8582677165354331
        },
        {
          "duration": 0.24784464583333943,
          "durationTicks": 23,
          "midi": 70,
          "name": "A#4",
          "ticks": 23449,
          "time": 215.58524660416666,
          "velocity": 0.8976377952755905
        },
        {
          "duration": 0.24784464583333943,
          "durationTicks": 23,
          "midi": 73,
          "name": "C#5",
          "ticks": 23449,
          "time": 215.58524660416666,
          "velocity": 0.8818897637795275
        },
        {
          "duration": 0.24784464583333943,
          "durationTicks": 23,
          "midi": 77,
          "name": "F5",
          "ticks": 23449,
          "time": 215.58524660416666,
          "velocity": 0.8818897637795275
        }
      ]
    },
    {
      "channel": 0,
      "controlChanges": {
        "0": [
          {
            "number": 0,
            "ticks": 141,
            "time": 1.2959545000000001,
            "value": 0
          }
        ],
        "32": [
          {
            "number": 32,
            "ticks": 145,
            "time": 1.3327191666666667,
            "value": 0.015748031496062992
          }
        ],
        "121": [
          {
            "number": 121,
            "ticks": 137,
            "time": 1.2591898333333333,
            "value": 0
          }
        ]
      },
      "pitchBends": [],
      "instrument": {
        "family": "piano",
        "number": 0,
        "name": "acoustic grand piano"
      },
      "name": "Strings",
      "notes": [],
      "endOfTrackTicks": 22128
    },
    {
      "channel": 5,
      "controlChanges": {
        "6": [
          {
            "number": 6,
            "ticks": 183,
            "time": 1.6819835,
            "value": 0.09448818897637795
          }
        ],
        "7": [
          {
            "number": 7,
            "ticks": 154,
            "time": 1.4154396666666669,
            "value": 0.8740157480314961
          }
        ],
        "10": [
          {
            "number": 10,
            "ticks": 160,
            "time": 1.4705866666666667,
            "value": 0.5039370078740157
          }
        ],
        "11": [
          {
            "number": 11,
            "ticks": 165,
            "time": 1.5165425000000001,
            "value": 0.5669291338582677
          },
          {
            "number": 11,
            "ticks": 21936,
            "time": 201.617432,
            "value": 0.5354330708661418
          },
          {
            "number": 11,
            "ticks": 21940,
            "time": 201.65419666666668,
            "value": 0.4881889763779528
          },
          {
            "number": 11,
            "ticks": 21944,
            "time": 201.69096133333335,
            "value": 0.4330708661417323
          },
          {
            "number": 11,
            "ticks": 21949,
            "time": 201.7369171666667,
            "value": 0.3779527559055118
          },
          {
            "number": 11,
            "ticks": 21953,
            "time": 201.77368183333334,
            "value": 0.3228346456692913
          },
          {
            "number": 11,
            "ticks": 21957,
            "time": 201.8104465,
            "value": 0.2677165354330709
          },
          {
            "number": 11,
            "ticks": 21962,
            "time": 201.85640233333334,
            "value": 0.2204724409448819
          },
          {
            "number": 11,
            "ticks": 21966,
            "time": 201.893167,
            "value": 0.16535433070866143
          },
          {
            "number": 11,
            "ticks": 21970,
            "time": 201.92993166666668,
            "value": 0.11023622047244094
          },
          {
            "number": 11,
            "ticks": 21975,
            "time": 201.9758875,
            "value": 0.05511811023622047
          },
          {
            "number": 11,
            "ticks": 21979,
            "time": 202.0126521666667,
            "value": 0
          }
        ],
        "71": [
          {
            "number": 71,
            "ticks": 175,
            "time": 1.6084541666666667,
            "value": 0.5039370078740157
          }
        ],
        "73": [
          {
            "number": 73,
            "ticks": 176,
            "time": 1.6176453333333334,
            "value": 0.4409448818897638
          }
        ],
        "74": [
          {
            "number": 74,
            "ticks": 174,
            "time": 1.599263,
            "value": 0.7322834645669292
          }
        ],
        "91": [
          {
            "number": 91,
            "ticks": 168,
            "time": 1.544116,
            "value": 0.8110236220472441
          }
        ],
        "93": [
          {
            "number": 93,
            "ticks": 171,
            "time": 1.5716895,
            "value": 0.4409448818897638
          }
        ],
        "94": [
          {
            "number": 94,
            "ticks": 173,
            "time": 1.5900718333333332,
            "value": 0.09448818897637795
          }
        ],
        "100": [
          {
            "number": 100,
            "ticks": 180,
            "time": 1.65441,
            "value": 0
          }
        ],
        "101": [
          {
            "number": 101,
            "ticks": 177,
            "time": 1.6268365,
            "value": 0
          }
        ]
      },
      "pitchBends": [],
      "instrument": {
        "family": "ensemble",
        "number": 50,
        "name": "synthstrings 1"
      },
      "name": "",
      "notes": [
        {
          "duration": 1.7463216666666663,
          "durationTicks": 190,
          "midi": 68,
          "name": "G#4",
          "ticks": 432,
          "time": 3.970584,
          "velocity": 0.7795275590551181
        },
        {
          "duration": 1.7463216666666663,
          "durationTicks": 190,
          "midi": 65,
          "name": "F4",
          "ticks": 432,
          "time": 3.970584,
          "velocity": 0.7795275590551181
        },
        {
          "duration": 1.7463216666666663,
          "durationTicks": 190,
          "midi": 61,
          "name": "C#4",
          "ticks": 433,
          "time": 3.9797751666666668,
          "velocity": 0.7795275590551181
        },
        {
          "duration": 1.7463216666666663,
          "durationTicks": 190,
          "midi": 56,
          "name": "G#3",
          "ticks": 433,
          "time": 3.9797751666666668,
          "velocity": 0.7795275590551181
        },
        {
          "duration": 1.7463216666666659,
          "durationTicks": 190,
          "midi": 68,
          "name": "G#4",
          "ticks": 624,
          "time": 5.735288000000001,
          "velocity": 0.7795275590551181
        },
        {
          "duration": 1.7463216666666659,
          "durationTicks": 190,
          "midi": 65,
          "name": "F4",
          "ticks": 624,
          "time": 5.735288000000001,
          "velocity": 0.7795275590551181
        },
        {
          "duration": 0.6617640000000007,
          "durationTicks": 72,
          "midi": 61,
          "name": "C#4",
          "ticks": 625,
          "time": 5.744479166666666,
          "velocity": 0.7795275590551181
        },
        {
          "duration": 1.7463216666666677,
          "durationTicks": 190,
          "midi": 56,
          "name": "G#3",
          "ticks": 625,
          "time": 5.744479166666666,
          "velocity": 0.7795275590551181
        },
        {
          "duration": 1.084557666666666,
          "durationTicks": 118,
          "midi": 60,
          "name": "C4",
          "ticks": 696,
          "time": 6.397052,
          "velocity": 0.7795275590551181
        },
        {
          "duration": 1.7463216666666668,
          "durationTicks": 190,
          "midi": 68,
          "name": "G#4",
          "ticks": 816,
          "time": 7.499992000000001,
          "velocity": 0.7795275590551181
        },
        {
          "duration": 0.6617639999999998,
          "durationTicks": 72,
          "midi": 63,
          "name": "D#4",
          "ticks": 816,
          "time": 7.499992000000001,
          "velocity": 0.7795275590551181
        },
        {
          "duration": 0.6617640000000016,
          "durationTicks": 72,
          "midi": 60,
          "name": "C4",
          "ticks": 817,
          "time": 7.509183166666666,
          "velocity": 0.7795275590551181
        },
        {
          "duration": 1.7463216666666668,
          "durationTicks": 190,
          "midi": 56,
          "name": "G#3",
          "ticks": 817,
          "time": 7.509183166666666,
          "velocity": 0.7795275590551181
        },
        {
          "duration": 1.084557666666667,
          "durationTicks": 118,
          "midi": 65,
          "name": "F4",
          "ticks": 888,
          "time": 8.161756,
          "velocity": 0.7795275590551181
        },
        {
          "duration": 1.0753664999999994,
          "durationTicks": 117,
          "midi": 61,
          "name": "C#4",
          "ticks": 889,
          "time": 8.170947166666668,
          "velocity": 0.7795275590551181
        },
        {
          "duration": 2.2058800000000005,
          "durationTicks": 240,
          "midi": 85,
          "name": "C#6",
          "ticks": 1200,
          "time": 11.029399999999999,
          "velocity": 0.7795275590551181
        },
        {
          "duration": 2.1966888333333365,
          "durationTicks": 239,
          "midi": 73,
          "name": "C#5",
          "ticks": 1200,
          "time": 11.029399999999999,
          "velocity": 0.7795275590551181
        },
        {
          "duration": 1.7463216666666668,
          "durationTicks": 190,
          "midi": 68,
          "name": "G#4",
          "ticks": 1201,
          "time": 11.038591166666667,
          "velocity": 0.7795275590551181
        },
        {
          "duration": 1.7463216666666668,
          "durationTicks": 190,
          "midi": 54,
          "name": "F#3",
          "ticks": 1201,
          "time": 11.038591166666667,
          "velocity": 0.7795275590551181
        },
        {
          "duration": 1.7463216666666668,
          "durationTicks": 190,
          "midi": 58,
          "name": "A#3",
          "ticks": 1201,
          "time": 11.038591166666667,
          "velocity": 0.7795275590551181
        },
        {
          "duration": 1.7463216666666668,
          "durationTicks": 190,
          "midi": 68,
          "name": "G#4",
          "ticks": 1393,
          "time": 12.803295166666668,
          "velocity": 0.7795275590551181
        },
        {
          "duration": 1.7463216666666668,
          "durationTicks": 190,
          "midi": 51,
          "name": "D#3",
          "ticks": 1393,
          "time": 12.803295166666668,
          "velocity": 0.7795275590551181
        },
        {
          "duration": 1.7463216666666668,
          "durationTicks": 190,
          "midi": 60,
          "name": "C4",
          "ticks": 1393,
          "time": 12.803295166666668,
          "velocity": 0.7795275590551181
        },
        {
          "duration": 0.8731608333333334,
          "durationTicks": 95,
          "midi": 84,
          "name": "C6",
          "ticks": 1440,
          "time": 13.23528,
          "velocity": 0.7795275590551181
        },
        {
          "duration": 0.8639696666666659,
          "durationTicks": 94,
          "midi": 72,
          "name": "C5",
          "ticks": 1441,
          "time": 13.244471166666667,
          "velocity": 0.7795275590551181
        },
        {
          "duration": 0.4411759999999987,
          "durationTicks": 48,
          "midi": 87,
          "name": "D#6",
          "ticks": 1536,
          "time": 14.117632,
          "velocity": 0.7795275590551181
        },
        {
          "duration": 0.43198483333333115,
          "durationTicks": 47,
          "midi": 75,
          "name": "D#5",
          "ticks": 1537,
          "time": 14.126823166666668,
          "velocity": 0.7795275590551181
        },
        {
          "duration": 0.652572833333334,
          "durationTicks": 71,
          "midi": 84,
          "name": "C6",
          "ticks": 1584,
          "time": 14.558807999999999,
          "velocity": 0.7795275590551181
        },
        {
          "duration": 0.652572833333334,
          "durationTicks": 71,
          "midi": 72,
          "name": "C5",
          "ticks": 1584,
          "time": 14.558807999999999,
          "velocity": 0.7795275590551181
        },
        {
          "duration": 0.6433816666666665,
          "durationTicks": 70,
          "midi": 68,
          "name": "G#4",
          "ticks": 1585,
          "time": 14.567999166666667,
          "velocity": 0.7795275590551181
        },
        {
          "duration": 1.7463216666666668,
          "durationTicks": 190,
          "midi": 53,
          "name": "F3",
          "ticks": 1585,
          "time": 14.567999166666667,
          "velocity": 0.7795275590551181
        },
        {
          "duration": 1.7463216666666668,
          "durationTicks": 190,
          "midi": 61,
          "name": "C#4",
          "ticks": 1585,
          "time": 14.567999166666667,
          "velocity": 0.7795275590551181
        },
        {
          "duration": 0.6433816666666665,
          "durationTicks": 70,
          "midi": 80,
          "name": "G#5",
          "ticks": 1656,
          "time": 15.220572,
          "velocity": 0.7795275590551181
        },
        {
          "duration": 0.6433816666666665,
          "durationTicks": 70,
          "midi": 68,
          "name": "G#4",
          "ticks": 1657,
          "time": 15.229763166666668,
          "velocity": 0.7795275590551181
        },
        {
          "duration": 0.22058799999999934,
          "durationTicks": 24,
          "midi": 84,
          "name": "C6",
          "ticks": 1728,
          "time": 15.882336000000002,
          "velocity": 0.7795275590551181
        },
        {
          "duration": 0.21139683333333537,
          "durationTicks": 23,
          "midi": 72,
          "name": "C5",
          "ticks": 1729,
          "time": 15.891527166666666,
          "velocity": 0.7795275590551181
        },
        {
          "duration": 0.8731608333333334,
          "durationTicks": 95,
          "midi": 87,
          "name": "D#6",
          "ticks": 1752,
          "time": 16.102924,
          "velocity": 0.7795275590551181
        },
        {
          "duration": 0.8639696666666694,
          "durationTicks": 94,
          "midi": 75,
          "name": "D#5",
          "ticks": 1753,
          "time": 16.112115166666666,
          "velocity": 0.7795275590551181
        },
        {
          "duration": 0.6433816666666701,
          "durationTicks": 70,
          "midi": 68,
          "name": "G#4",
          "ticks": 1777,
          "time": 16.332703166666665,
          "velocity": 0.7795275590551181
        },
        {
          "duration": 0.6525728333333376,
          "durationTicks": 71,
          "midi": 53,
          "name": "F3",
          "ticks": 1777,
          "time": 16.332703166666665,
          "velocity": 0.7795275590551181
        },
        {
          "duration": 0.6525728333333376,
          "durationTicks": 71,
          "midi": 60,
          "name": "C4",
          "ticks": 1777,
          "time": 16.332703166666665,
          "velocity": 0.7795275590551181
        },
        {
          "duration": 0.29411733333333245,
          "durationTicks": 32,
          "midi": 86,
          "name": "D6",
          "ticks": 1848,
          "time": 16.985276000000002,
          "velocity": 0.7795275590551181
        },
        {
          "duration": 0.29411733333333245,
          "durationTicks": 32,
          "midi": 74,
          "name": "D5",
          "ticks": 1848,
          "time": 16.985276000000002,
          "velocity": 0.7795275590551181
        },
        {
          "duration": 1.0753665000000012,
          "durationTicks": 117,
          "midi": 68,
          "name": "G#4",
          "ticks": 1849,
          "time": 16.994467166666666,
          "velocity": 0.7795275590551181
        },
        {
          "duration": 1.0661753333333372,
          "durationTicks": 116,
          "midi": 53,
          "name": "F3",
          "ticks": 1849,
          "time": 16.994467166666666,
          "velocity": 0.7795275590551181
        },
        {
          "duration": 1.0661753333333372,
          "durationTicks": 116,
          "midi": 58,
          "name": "A#3",
          "ticks": 1849,
          "time": 16.994467166666666,
          "velocity": 0.7795275590551181
        },
        {
          "duration": 0.6433816666666665,
          "durationTicks": 70,
          "midi": 86,
          "name": "D6",
          "ticks": 1896,
          "time": 17.426452,
          "velocity": 0.8110236220472441
        },
        {
          "duration": 0.6341905000000025,
          "durationTicks": 69,
          "midi": 74,
          "name": "D5",
          "ticks": 1897,
          "time": 17.435643166666665,
          "velocity": 0.8031496062992126
        },
        {
          "duration": 0.8731608333333334,
          "durationTicks": 95,
          "midi": 77,
          "name": "F5",
          "ticks": 1968,
          "time": 18.088216000000003,
          "velocity": 0.7795275590551181
        },
        {
          "duration": 0.8639696666666659,
          "durationTicks": 94,
          "midi": 65,
          "name": "F4",
          "ticks": 1968,
          "time": 18.088216000000003,
          "velocity": 0.7795275590551181
        },
        {
          "duration": 0.8731608333333369,
          "durationTicks": 95,
          "midi": 70,
          "name": "A#4",
          "ticks": 1969,
          "time": 18.097407166666667,
          "velocity": 0.7795275590551181
        },
        {
          "duration": 1.7371304999999992,
          "durationTicks": 189,
          "midi": 54,
          "name": "F#3",
          "ticks": 1969,
          "time": 18.097407166666667,
          "velocity": 0.7795275590551181
        },
        {
          "duration": 1.7371304999999992,
          "durationTicks": 189,
          "midi": 61,
          "name": "C#4",
          "ticks": 1969,
          "time": 18.097407166666667,
          "velocity": 0.7795275590551181
        },
        {
          "duration": 0.43198483333333115,
          "durationTicks": 47,
          "midi": 82,
          "name": "A#5",
          "ticks": 2064,
          "time": 18.970568000000004,
          "velocity": 0.7795275590551181
        },
        {
          "duration": 0.4227936666666672,
          "durationTicks": 46,
          "midi": 70,
          "name": "A#4",
          "ticks": 2065,
          "time": 18.979759166666668,
          "velocity": 0.7795275590551181
        },
        {
          "duration": 0.43198483333333115,
          "durationTicks": 47,
          "midi": 85,
          "name": "C#6",
          "ticks": 2112,
          "time": 19.411744000000002,
          "velocity": 0.7795275590551181
        },
        {
          "duration": 0.4227936666666672,
          "durationTicks": 46,
          "midi": 73,
          "name": "C#5",
          "ticks": 2113,
          "time": 19.420935166666666,
          "velocity": 0.7795275590551181
        },
        {
          "duration": 0.44117600000000223,
          "durationTicks": 48,
          "midi": 84,
          "name": "C6",
          "ticks": 2160,
          "time": 19.85292,
          "velocity": 0.7795275590551181
        },
        {
          "duration": 0.4319848333333347,
          "durationTicks": 47,
          "midi": 72,
          "name": "C5",
          "ticks": 2160,
          "time": 19.85292,
          "velocity": 0.7795275590551181
        },
        {
          "duration": 0.8731608333333334,
          "durationTicks": 95,
          "midi": 60,
          "name": "C4",
          "ticks": 2161,
          "time": 19.86211116666667,
          "velocity": 0.7795275590551181
        },
        {
          "duration": 1.7371304999999992,
          "durationTicks": 189,
          "midi": 63,
          "name": "D#4",
          "ticks": 2161,
          "time": 19.86211116666667,
          "velocity": 0.7795275590551181
        },
        {
          "duration": 1.7371304999999992,
          "durationTicks": 189,
          "midi": 56,
          "name": "G#3",
          "ticks": 2161,
          "time": 19.86211116666667,
          "velocity": 0.7795275590551181
        },
        {
          "duration": 0.43198483333333115,
          "durationTicks": 47,
          "midi": 80,
          "name": "G#5",
          "ticks": 2208,
          "time": 20.294096000000003,
          "velocity": 0.7795275590551181
        },
        {
          "duration": 0.4227936666666672,
          "durationTicks": 46,
          "midi": 68,
          "name": "G#4",
          "ticks": 2209,
          "time": 20.303287166666667,
          "velocity": 0.7795275590551181
        },
        {
          "duration": 0.22058799999999934,
          "durationTicks": 24,
          "midi": 85,
          "name": "C#6",
          "ticks": 2256,
          "time": 20.735272000000002,
          "velocity": 0.7795275590551181
        },
        {
          "duration": 0.21139683333333537,
          "durationTicks": 23,
          "midi": 73,
          "name": "C#5",
          "ticks": 2257,
          "time": 20.744463166666666,
          "velocity": 0.7795275590551181
        },
        {
          "duration": 0.652572833333334,
          "durationTicks": 71,
          "midi": 87,
          "name": "D#6",
          "ticks": 2280,
          "time": 20.95586,
          "velocity": 0.7795275590551181
        },
        {
          "duration": 0.652572833333334,
          "durationTicks": 71,
          "midi": 75,
          "name": "D#5",
          "ticks": 2281,
          "time": 20.96505116666667,
          "velocity": 0.7795275590551181
        },
        {
          "duration": 1.7463216666666632,
          "durationTicks": 190,
          "midi": 89,
          "name": "F6",
          "ticks": 2352,
          "time": 21.617624000000003,
          "velocity": 0.7795275590551181
        },
        {
          "duration": 1.7463216666666632,
          "durationTicks": 190,
          "midi": 77,
          "name": "F5",
          "ticks": 2352,
          "time": 21.617624000000003,
          "velocity": 0.7795275590551181
        },
        {
          "duration": 2.1966888333333365,
          "durationTicks": 239,
          "midi": 68,
          "name": "G#4",
          "ticks": 2353,
          "time": 21.626815166666667,
          "velocity": 0.7795275590551181
        },
        {
          "duration": 1.7555128333333343,
          "durationTicks": 191,
          "midi": 61,
          "name": "C#4",
          "ticks": 2353,
          "time": 21.626815166666667,
          "velocity": 0.7795275590551181
        },
        {
          "duration": 2.1966888333333365,
          "durationTicks": 239,
          "midi": 58,
          "name": "A#3",
          "ticks": 2353,
          "time": 21.626815166666667,
          "velocity": 0.7795275590551181
        },
        {
          "duration": 0.44117600000000223,
          "durationTicks": 48,
          "midi": 89,
          "name": "F6",
          "ticks": 2544,
          "time": 23.382328,
          "velocity": 0.7795275590551181
        },
        {
          "duration": 0.44117600000000223,
          "durationTicks": 48,
          "midi": 77,
          "name": "F5",
          "ticks": 2544,
          "time": 23.382328,
          "velocity": 0.7795275590551181
        },
        {
          "duration": 0.44117600000000223,
          "durationTicks": 48,
          "midi": 61,
          "name": "C#4",
          "ticks": 2544,
          "time": 23.382328,
          "velocity": 0.7795275590551181
        },
        {
          "duration": 1.7463216666666668,
          "durationTicks": 190,
          "midi": 65,
          "name": "F4",
          "ticks": 4272,
          "time": 39.264664,
          "velocity": 0.7007874015748031
        },
        {
          "duration": 1.7463216666666668,
          "durationTicks": 190,
          "midi": 61,
          "name": "C#4",
          "ticks": 4272,
          "time": 39.264664,
          "velocity": 0.7007874015748031
        },
        {
          "duration": 1.7463216666666668,
          "durationTicks": 190,
          "midi": 56,
          "name": "G#3",
          "ticks": 4273,
          "time": 39.27385516666667,
          "velocity": 0.7007874015748031
        },
        {
          "duration": 1.7463216666666668,
          "durationTicks": 190,
          "midi": 42,
          "name": "F#2",
          "ticks": 4273,
          "time": 39.27385516666667,
          "velocity": 0.7795275590551181
        },
        {
          "duration": 0.6525728333333376,
          "durationTicks": 71,
          "midi": 65,
          "name": "F4",
          "ticks": 4464,
          "time": 41.029368,
          "velocity": 0.7007874015748031
        },
        {
          "duration": 0.6525728333333376,
          "durationTicks": 71,
          "midi": 61,
          "name": "C#4",
          "ticks": 4464,
          "time": 41.029368,
          "velocity": 0.7007874015748031
        },
        {
          "duration": 0.643381666666663,
          "durationTicks": 70,
          "midi": 56,
          "name": "G#3",
          "ticks": 4465,
          "time": 41.03855916666667,
          "velocity": 0.7007874015748031
        },
        {
          "duration": 0.643381666666663,
          "durationTicks": 70,
          "midi": 44,
          "name": "G#2",
          "ticks": 4465,
          "time": 41.03855916666667,
          "velocity": 0.7795275590551181
        },
        {
          "duration": 1.0845576666666688,
          "durationTicks": 118,
          "midi": 65,
          "name": "F4",
          "ticks": 4536,
          "time": 41.691132,
          "velocity": 0.7007874015748031
        },
        {
          "duration": 1.0845576666666688,
          "durationTicks": 118,
          "midi": 60,
          "name": "C4",
          "ticks": 4536,
          "time": 41.691132,
          "velocity": 0.7007874015748031
        },
        {
          "duration": 1.0753665000000012,
          "durationTicks": 117,
          "midi": 56,
          "name": "G#3",
          "ticks": 4537,
          "time": 41.70032316666667,
          "velocity": 0.7007874015748031
        },
        {
          "duration": 1.0753665000000012,
          "durationTicks": 117,
          "midi": 44,
          "name": "G#2",
          "ticks": 4537,
          "time": 41.70032316666667,
          "velocity": 0.7795275590551181
        },
        {
          "duration": 1.7463216666666739,
          "durationTicks": 190,
          "midi": 63,
          "name": "D#4",
          "ticks": 4656,
          "time": 42.794072,
          "velocity": 0.7007874015748031
        },
        {
          "duration": 1.7463216666666739,
          "durationTicks": 190,
          "midi": 60,
          "name": "C4",
          "ticks": 4656,
          "time": 42.794072,
          "velocity": 0.7007874015748031
        },
        {
          "duration": 1.7371305000000064,
          "durationTicks": 189,
          "midi": 56,
          "name": "G#3",
          "ticks": 4657,
          "time": 42.80326316666667,
          "velocity": 0.7007874015748031
        },
        {
          "duration": 1.7371305000000064,
          "durationTicks": 189,
          "midi": 46,
          "name": "A#2",
          "ticks": 4657,
          "time": 42.80326316666667,
          "velocity": 0.7795275590551181
        },
        {
          "duration": 1.7463216666666668,
          "durationTicks": 190,
          "midi": 65,
          "name": "F4",
          "ticks": 4848,
          "time": 44.558776,
          "velocity": 0.7007874015748031
        },
        {
          "duration": 1.7463216666666668,
          "durationTicks": 190,
          "midi": 60,
          "name": "C4",
          "ticks": 4848,
          "time": 44.558776,
          "velocity": 0.7007874015748031
        },
        {
          "duration": 1.7371304999999992,
          "durationTicks": 189,
          "midi": 56,
          "name": "G#3",
          "ticks": 4849,
          "time": 44.56796716666667,
          "velocity": 0.7007874015748031
        },
        {
          "duration": 1.7371304999999992,
          "durationTicks": 189,
          "midi": 49,
          "name": "C#3",
          "ticks": 4849,
          "time": 44.56796716666667,
          "velocity": 0.7795275590551181
        },
        {
          "duration": 1.7463216666666668,
          "durationTicks": 190,
          "midi": 65,
          "name": "F4",
          "ticks": 5040,
          "time": 46.32348,
          "velocity": 0.7007874015748031
        },
        {
          "duration": 1.7463216666666668,
          "durationTicks": 190,
          "midi": 61,
          "name": "C#4",
          "ticks": 5040,
          "time": 46.32348,
          "velocity": 0.7007874015748031
        },
        {
          "duration": 1.7463216666666668,
          "durationTicks": 190,
          "midi": 56,
          "name": "G#3",
          "ticks": 5041,
          "time": 46.33267116666667,
          "velocity": 0.7007874015748031
        },
        {
          "duration": 1.7463216666666668,
          "durationTicks": 190,
          "midi": 42,
          "name": "F#2",
          "ticks": 5041,
          "time": 46.33267116666667,
          "velocity": 0.7795275590551181
        },
        {
          "duration": 0.6525728333333376,
          "durationTicks": 71,
          "midi": 65,
          "name": "F4",
          "ticks": 5232,
          "time": 48.088184,
          "velocity": 0.7007874015748031
        },
        {
          "duration": 0.6525728333333376,
          "durationTicks": 71,
          "midi": 61,
          "name": "C#4",
          "ticks": 5232,
          "time": 48.088184,
          "velocity": 0.7007874015748031
        },
        {
          "duration": 0.643381666666663,
          "durationTicks": 70,
          "midi": 56,
          "name": "G#3",
          "ticks": 5233,
          "time": 48.09737516666667,
          "velocity": 0.7007874015748031
        },
        {
          "duration": 0.643381666666663,
          "durationTicks": 70,
          "midi": 44,
          "name": "G#2",
          "ticks": 5233,
          "time": 48.09737516666667,
          "velocity": 0.7795275590551181
        },
        {
          "duration": 1.0845576666666688,
          "durationTicks": 118,
          "midi": 65,
          "name": "F4",
          "ticks": 5304,
          "time": 48.749948,
          "velocity": 0.7007874015748031
        },
        {
          "duration": 1.0845576666666688,
          "durationTicks": 118,
          "midi": 60,
          "name": "C4",
          "ticks": 5304,
          "time": 48.749948,
          "velocity": 0.7007874015748031
        },
        {
          "duration": 1.0753665000000012,
          "durationTicks": 117,
          "midi": 56,
          "name": "G#3",
          "ticks": 5305,
          "time": 48.75913916666667,
          "velocity": 0.7007874015748031
        },
        {
          "duration": 1.0753665000000012,
          "durationTicks": 117,
          "midi": 44,
          "name": "G#2",
          "ticks": 5305,
          "time": 48.75913916666667,
          "velocity": 0.7795275590551181
        },
        {
          "duration": 1.7463216666666739,
          "durationTicks": 190,
          "midi": 63,
          "name": "D#4",
          "ticks": 5424,
          "time": 49.852888,
          "velocity": 0.7007874015748031
        },
        {
          "duration": 1.7463216666666739,
          "durationTicks": 190,
          "midi": 60,
          "name": "C4",
          "ticks": 5424,
          "time": 49.852888,
          "velocity": 0.7007874015748031
        },
        {
          "duration": 1.7371305000000064,
          "durationTicks": 189,
          "midi": 56,
          "name": "G#3",
          "ticks": 5425,
          "time": 49.86207916666667,
          "velocity": 0.7007874015748031
        },
        {
          "duration": 1.7371305000000064,
          "durationTicks": 189,
          "midi": 46,
          "name": "A#2",
          "ticks": 5425,
          "time": 49.86207916666667,
          "velocity": 0.7795275590551181
        },
        {
          "duration": 1.7463216666666668,
          "durationTicks": 190,
          "midi": 65,
          "name": "F4",
          "ticks": 5616,
          "time": 51.617592,
          "velocity": 0.7007874015748031
        },
        {
          "duration": 1.7463216666666668,
          "durationTicks": 190,
          "midi": 60,
          "name": "C4",
          "ticks": 5616,
          "time": 51.617592,
          "velocity": 0.7007874015748031
        },
        {
          "duration": 1.7371304999999992,
          "durationTicks": 189,
          "midi": 56,
          "name": "G#3",
          "ticks": 5617,
          "time": 51.62678316666667,
          "velocity": 0.7007874015748031
        },
        {
          "duration": 1.7371304999999992,
          "durationTicks": 189,
          "midi": 49,
          "name": "C#3",
          "ticks": 5617,
          "time": 51.62678316666667,
          "velocity": 0.7795275590551181
        },
        {
          "duration": 2.2058800000000005,
          "durationTicks": 240,
          "midi": 85,
          "name": "C#6",
          "ticks": 6576,
          "time": 60.441112000000004,
          "velocity": 0.7795275590551181
        },
        {
          "duration": 2.196688833333333,
          "durationTicks": 239,
          "midi": 73,
          "name": "C#5",
          "ticks": 6576,
          "time": 60.441112000000004,
          "velocity": 0.7795275590551181
        },
        {
          "duration": 1.7463216666666739,
          "durationTicks": 190,
          "midi": 68,
          "name": "G#4",
          "ticks": 6577,
          "time": 60.450303166666664,
          "velocity": 0.7795275590551181
        },
        {
          "duration": 1.7463216666666739,
          "durationTicks": 190,
          "midi": 54,
          "name": "F#3",
          "ticks": 6577,
          "time": 60.450303166666664,
          "velocity": 0.7795275590551181
        },
        {
          "duration": 1.7463216666666739,
          "durationTicks": 190,
          "midi": 58,
          "name": "A#3",
          "ticks": 6577,
          "time": 60.450303166666664,
          "velocity": 0.7795275590551181
        },
        {
          "duration": 1.7463216666666668,
          "durationTicks": 190,
          "midi": 68,
          "name": "G#4",
          "ticks": 6769,
          "time": 62.215007166666666,
          "velocity": 0.7795275590551181
        },
        {
          "duration": 1.7463216666666668,
          "durationTicks": 190,
          "midi": 51,
          "name": "D#3",
          "ticks": 6769,
          "time": 62.215007166666666,
          "velocity": 0.7795275590551181
        },
        {
          "duration": 1.7463216666666668,
          "durationTicks": 190,
          "midi": 60,
          "name": "C4",
          "ticks": 6769,
          "time": 62.215007166666666,
          "velocity": 0.7795275590551181
        },
        {
          "duration": 0.8731608333333298,
          "durationTicks": 95,
          "midi": 84,
          "name": "C6",
          "ticks": 6816,
          "time": 62.646992000000004,
          "velocity": 0.7795275590551181
        },
        {
          "duration": 0.8639696666666694,
          "durationTicks": 94,
          "midi": 72,
          "name": "C5",
          "ticks": 6817,
          "time": 62.656183166666665,
          "velocity": 0.7795275590551181
        },
        {
          "duration": 0.4411759999999987,
          "durationTicks": 48,
          "midi": 87,
          "name": "D#6",
          "ticks": 6912,
          "time": 63.52934400000001,
          "velocity": 0.7795275590551181
        },
        {
          "duration": 0.43198483333334536,
          "durationTicks": 47,
          "midi": 75,
          "name": "D#5",
          "ticks": 6913,
          "time": 63.53853516666666,
          "velocity": 0.7795275590551181
        },
        {
          "duration": 0.6525728333333234,
          "durationTicks": 71,
          "midi": 84,
          "name": "C6",
          "ticks": 6960,
          "time": 63.97052000000001,
          "velocity": 0.7795275590551181
        },
        {
          "duration": 0.6525728333333234,
          "durationTicks": 71,
          "midi": 72,
          "name": "C5",
          "ticks": 6960,
          "time": 63.97052000000001,
          "velocity": 0.7795275590551181
        },
        {
          "duration": 0.643381666666663,
          "durationTicks": 70,
          "midi": 68,
          "name": "G#4",
          "ticks": 6961,
          "time": 63.97971116666667,
          "velocity": 0.7795275590551181
        },
        {
          "duration": 1.7463216666666668,
          "durationTicks": 190,
          "midi": 53,
          "name": "F3",
          "ticks": 6961,
          "time": 63.97971116666667,
          "velocity": 0.7795275590551181
        },
        {
          "duration": 1.7463216666666668,
          "durationTicks": 190,
          "midi": 61,
          "name": "C#4",
          "ticks": 6961,
          "time": 63.97971116666667,
          "velocity": 0.7795275590551181
        },
        {
          "duration": 0.6433816666666701,
          "durationTicks": 70,
          "midi": 80,
          "name": "G#5",
          "ticks": 7032,
          "time": 64.632284,
          "velocity": 0.7795275590551181
        },
        {
          "duration": 0.6433816666666701,
          "durationTicks": 70,
          "midi": 68,
          "name": "G#4",
          "ticks": 7033,
          "time": 64.64147516666667,
          "velocity": 0.7795275590551181
        },
        {
          "duration": 0.22058800000000645,
          "durationTicks": 24,
          "midi": 84,
          "name": "C6",
          "ticks": 7104,
          "time": 65.294048,
          "velocity": 0.7795275590551181
        },
        {
          "duration": 0.21139683333335313,
          "durationTicks": 23,
          "midi": 72,
          "name": "C5",
          "ticks": 7105,
          "time": 65.30323916666666,
          "velocity": 0.7795275590551181
        },
        {
          "duration": 0.8731608333333156,
          "durationTicks": 95,
          "midi": 87,
          "name": "D#6",
          "ticks": 7128,
          "time": 65.51463600000001,
          "velocity": 0.7795275590551181
        },
        {
          "duration": 0.8639696666666623,
          "durationTicks": 94,
          "midi": 75,
          "name": "D#5",
          "ticks": 7129,
          "time": 65.52382716666666,
          "velocity": 0.7795275590551181
        },
        {
          "duration": 0.6433816666666701,
          "durationTicks": 70,
          "midi": 68,
          "name": "G#4",
          "ticks": 7153,
          "time": 65.74441516666666,
          "velocity": 0.7795275590551181
        },
        {
          "duration": 0.6525728333333376,
          "durationTicks": 71,
          "midi": 53,
          "name": "F3",
          "ticks": 7153,
          "time": 65.74441516666666,
          "velocity": 0.7795275590551181
        },
        {
          "duration": 0.6525728333333376,
          "durationTicks": 71,
          "midi": 60,
          "name": "C4",
          "ticks": 7153,
          "time": 65.74441516666666,
          "velocity": 0.7795275590551181
        },
        {
          "duration": 1.0845576666666688,
          "durationTicks": 118,
          "midi": 85,
          "name": "C#6",
          "ticks": 7224,
          "time": 66.396988,
          "velocity": 0.7795275590551181
        },
        {
          "duration": 1.0845576666666688,
          "durationTicks": 118,
          "midi": 73,
          "name": "C#5",
          "ticks": 7224,
          "time": 66.396988,
          "velocity": 0.7795275590551181
        },
        {
          "duration": 1.0753665000000012,
          "durationTicks": 117,
          "midi": 68,
          "name": "G#4",
          "ticks": 7225,
          "time": 66.40617916666666,
          "velocity": 0.7795275590551181
        },
        {
          "duration": 1.0661753333333337,
          "durationTicks": 116,
          "midi": 53,
          "name": "F3",
          "ticks": 7225,
          "time": 66.40617916666666,
          "velocity": 0.7795275590551181
        },
        {
          "duration": 1.0661753333333337,
          "durationTicks": 116,
          "midi": 58,
          "name": "A#3",
          "ticks": 7225,
          "time": 66.40617916666666,
          "velocity": 0.7795275590551181
        },
        {
          "duration": 1.7922774999999973,
          "durationTicks": 195,
          "midi": 85,
          "name": "C#6",
          "ticks": 7344,
          "time": 67.499928,
          "velocity": 0.7795275590551181
        },
        {
          "duration": 1.7922774999999973,
          "durationTicks": 195,
          "midi": 73,
          "name": "C#5",
          "ticks": 7344,
          "time": 67.499928,
          "velocity": 0.7795275590551181
        },
        {
          "duration": 1.7463216666666597,
          "durationTicks": 190,
          "midi": 68,
          "name": "G#4",
          "ticks": 7345,
          "time": 67.50911916666666,
          "velocity": 0.7795275590551181
        },
        {
          "duration": 1.7463216666666597,
          "durationTicks": 190,
          "midi": 54,
          "name": "F#3",
          "ticks": 7345,
          "time": 67.50911916666666,
          "velocity": 0.7795275590551181
        },
        {
          "duration": 1.7463216666666597,
          "durationTicks": 190,
          "midi": 58,
          "name": "A#3",
          "ticks": 7345,
          "time": 67.50911916666666,
          "velocity": 0.7795275590551181
        },
        {
          "duration": 0.8731608333333298,
          "durationTicks": 95,
          "midi": 84,
          "name": "C6",
          "ticks": 7536,
          "time": 69.264632,
          "velocity": 0.7795275590551181
        },
        {
          "duration": 0.8731608333333298,
          "durationTicks": 95,
          "midi": 72,
          "name": "C5",
          "ticks": 7536,
          "time": 69.264632,
          "velocity": 0.7795275590551181
        },
        {
          "duration": 1.7463216666666739,
          "durationTicks": 190,
          "midi": 69,
          "name": "A4",
          "ticks": 7537,
          "time": 69.27382316666666,
          "velocity": 0.7795275590551181
        },
        {
          "duration": 1.7463216666666739,
          "durationTicks": 190,
          "midi": 53,
          "name": "F3",
          "ticks": 7537,
          "time": 69.27382316666666,
          "velocity": 0.7795275590551181
        },
        {
          "duration": 1.7463216666666739,
          "durationTicks": 190,
          "midi": 63,
          "name": "D#4",
          "ticks": 7537,
          "time": 69.27382316666666,
          "velocity": 0.7795275590551181
        },
        {
          "duration": 0.8731608333333298,
          "durationTicks": 95,
          "midi": 87,
          "name": "D#6",
          "ticks": 7632,
          "time": 70.146984,
          "velocity": 0.7795275590551181
        },
        {
          "duration": 0.873160833333344,
          "durationTicks": 95,
          "midi": 75,
          "name": "D#5",
          "ticks": 7633,
          "time": 70.15617516666666,
          "velocity": 0.7795275590551181
        },
        {
          "duration": 0.6341905000000025,
          "durationTicks": 69,
          "midi": 87,
          "name": "D#6",
          "ticks": 7728,
          "time": 71.029336,
          "velocity": 0.7795275590551181
        },
        {
          "duration": 0.624999333333335,
          "durationTicks": 68,
          "midi": 75,
          "name": "D#5",
          "ticks": 7728,
          "time": 71.029336,
          "velocity": 0.7795275590551181
        },
        {
          "duration": 1.7463216666666739,
          "durationTicks": 190,
          "midi": 68,
          "name": "G#4",
          "ticks": 7729,
          "time": 71.03852716666665,
          "velocity": 0.7795275590551181
        },
        {
          "duration": 1.7463216666666739,
          "durationTicks": 190,
          "midi": 53,
          "name": "F3",
          "ticks": 7729,
          "time": 71.03852716666665,
          "velocity": 0.7795275590551181
        },
        {
          "duration": 0.8823519999999974,
          "durationTicks": 96,
          "midi": 61,
          "name": "C#4",
          "ticks": 7729,
          "time": 71.03852716666665,
          "velocity": 0.7795275590551181
        },
        {
          "duration": 0.2113968333333247,
          "durationTicks": 23,
          "midi": 87,
          "name": "D#6",
          "ticks": 7800,
          "time": 71.6911,
          "velocity": 0.7795275590551181
        },
        {
          "duration": 0.2022056666666714,
          "durationTicks": 22,
          "midi": 75,
          "name": "D#5",
          "ticks": 7801,
          "time": 71.70029116666666,
          "velocity": 0.7795275590551181
        },
        {
          "duration": 0.854778500000009,
          "durationTicks": 93,
          "midi": 60,
          "name": "C4",
          "ticks": 7824,
          "time": 71.911688,
          "velocity": 0.7795275590551181
        },
        {
          "duration": 0.6525728333333376,
          "durationTicks": 71,
          "midi": 89,
          "name": "F6",
          "ticks": 7824,
          "time": 71.911688,
          "velocity": 0.7795275590551181
        },
        {
          "duration": 0.6433816666666843,
          "durationTicks": 70,
          "midi": 77,
          "name": "F5",
          "ticks": 7825,
          "time": 71.92087916666665,
          "velocity": 0.7795275590551181
        },
        {
          "duration": 0.22058799999999223,
          "durationTicks": 24,
          "midi": 92,
          "name": "G#6",
          "ticks": 7896,
          "time": 72.573452,
          "velocity": 0.7795275590551181
        },
        {
          "duration": 0.21139683333333892,
          "durationTicks": 23,
          "midi": 80,
          "name": "G#5",
          "ticks": 7897,
          "time": 72.58264316666666,
          "velocity": 0.7795275590551181
        },
        {
          "duration": 0.8731608333333298,
          "durationTicks": 95,
          "midi": 90,
          "name": "F#6",
          "ticks": 7920,
          "time": 72.79404,
          "velocity": 0.7795275590551181
        },
        {
          "duration": 0.8731608333333298,
          "durationTicks": 95,
          "midi": 78,
          "name": "F#5",
          "ticks": 7920,
          "time": 72.79404,
          "velocity": 0.7795275590551181
        },
        {
          "duration": 1.7463216666666597,
          "durationTicks": 190,
          "midi": 68,
          "name": "G#4",
          "ticks": 7921,
          "time": 72.80323116666666,
          "velocity": 0.7795275590551181
        },
        {
          "duration": 1.7463216666666597,
          "durationTicks": 190,
          "midi": 53,
          "name": "F3",
          "ticks": 7921,
          "time": 72.80323116666666,
          "velocity": 0.7795275590551181
        },
        {
          "duration": 0.8639696666666623,
          "durationTicks": 94,
          "midi": 60,
          "name": "C4",
          "ticks": 7921,
          "time": 72.80323116666666,
          "velocity": 0.7795275590551181
        },
        {
          "duration": 0.22058799999999223,
          "durationTicks": 24,
          "midi": 89,
          "name": "F6",
          "ticks": 8016,
          "time": 73.676392,
          "velocity": 0.7795275590551181
        },
        {
          "duration": 0.2113968333333247,
          "durationTicks": 23,
          "midi": 77,
          "name": "F5",
          "ticks": 8016,
          "time": 73.676392,
          "velocity": 0.7795275590551181
        },
        {
          "duration": 0.8639696666666623,
          "durationTicks": 94,
          "midi": 61,
          "name": "C#4",
          "ticks": 8017,
          "time": 73.68558316666666,
          "velocity": 0.7795275590551181
        },
        {
          "duration": 0.22058800000000645,
          "durationTicks": 24,
          "midi": 85,
          "name": "C#6",
          "ticks": 8040,
          "time": 73.89698,
          "velocity": 0.7795275590551181
        },
        {
          "duration": 0.21139683333335313,
          "durationTicks": 23,
          "midi": 73,
          "name": "C#5",
          "ticks": 8041,
          "time": 73.90617116666665,
          "velocity": 0.7795275590551181
        },
        {
          "duration": 0.43198483333331694,
          "durationTicks": 47,
          "midi": 80,
          "name": "G#5",
          "ticks": 8064,
          "time": 74.117568,
          "velocity": 0.7795275590551181
        },
        {
          "duration": 2.2058799999999934,
          "durationTicks": 240,
          "midi": 85,
          "name": "C#6",
          "ticks": 8112,
          "time": 74.558744,
          "velocity": 0.7795275590551181
        },
        {
          "duration": 2.196688833333326,
          "durationTicks": 239,
          "midi": 73,
          "name": "C#5",
          "ticks": 8112,
          "time": 74.558744,
          "velocity": 0.7795275590551181
        },
        {
          "duration": 1.7463216666666739,
          "durationTicks": 190,
          "midi": 68,
          "name": "G#4",
          "ticks": 8113,
          "time": 74.56793516666666,
          "velocity": 0.7795275590551181
        },
        {
          "duration": 1.7463216666666739,
          "durationTicks": 190,
          "midi": 54,
          "name": "F#3",
          "ticks": 8113,
          "time": 74.56793516666666,
          "velocity": 0.7795275590551181
        },
        {
          "duration": 1.7463216666666739,
          "durationTicks": 190,
          "midi": 58,
          "name": "A#3",
          "ticks": 8113,
          "time": 74.56793516666666,
          "velocity": 0.7795275590551181
        },
        {
          "duration": 1.7463216666666739,
          "durationTicks": 190,
          "midi": 68,
          "name": "G#4",
          "ticks": 8305,
          "time": 76.33263916666665,
          "velocity": 0.7795275590551181
        },
        {
          "duration": 1.7463216666666739,
          "durationTicks": 190,
          "midi": 51,
          "name": "D#3",
          "ticks": 8305,
          "time": 76.33263916666665,
          "velocity": 0.7795275590551181
        },
        {
          "duration": 1.7463216666666739,
          "durationTicks": 190,
          "midi": 60,
          "name": "C4",
          "ticks": 8305,
          "time": 76.33263916666665,
          "velocity": 0.7795275590551181
        },
        {
          "duration": 0.8731608333333298,
          "durationTicks": 95,
          "midi": 84,
          "name": "C6",
          "ticks": 8352,
          "time": 76.764624,
          "velocity": 0.7795275590551181
        },
        {
          "duration": 0.8639696666666623,
          "durationTicks": 94,
          "midi": 72,
          "name": "C5",
          "ticks": 8353,
          "time": 76.77381516666667,
          "velocity": 0.7795275590551181
        },
        {
          "duration": 0.4411759999999987,
          "durationTicks": 48,
          "midi": 87,
          "name": "D#6",
          "ticks": 8448,
          "time": 77.646976,
          "velocity": 0.7795275590551181
        },
        {
          "duration": 0.43198483333333115,
          "durationTicks": 47,
          "midi": 75,
          "name": "D#5",
          "ticks": 8449,
          "time": 77.65616716666666,
          "velocity": 0.7795275590551181
        },
        {
          "duration": 0.6525728333333376,
          "durationTicks": 71,
          "midi": 84,
          "name": "C6",
          "ticks": 8496,
          "time": 78.088152,
          "velocity": 0.7795275590551181
        },
        {
          "duration": 0.6525728333333376,
          "durationTicks": 71,
          "midi": 72,
          "name": "C5",
          "ticks": 8496,
          "time": 78.088152,
          "velocity": 0.7795275590551181
        },
        {
          "duration": 0.6433816666666701,
          "durationTicks": 70,
          "midi": 68,
          "name": "G#4",
          "ticks": 8497,
          "time": 78.09734316666666,
          "velocity": 0.7795275590551181
        },
        {
          "duration": 1.7463216666666739,
          "durationTicks": 190,
          "midi": 53,
          "name": "F3",
          "ticks": 8497,
          "time": 78.09734316666666,
          "velocity": 0.7795275590551181
        },
        {
          "duration": 1.7463216666666739,
          "durationTicks": 190,
          "midi": 61,
          "name": "C#4",
          "ticks": 8497,
          "time": 78.09734316666666,
          "velocity": 0.7795275590551181
        },
        {
          "duration": 0.6433816666666559,
          "durationTicks": 70,
          "midi": 80,
          "name": "G#5",
          "ticks": 8568,
          "time": 78.749916,
          "velocity": 0.7795275590551181
        },
        {
          "duration": 0.6433816666666701,
          "durationTicks": 70,
          "midi": 68,
          "name": "G#4",
          "ticks": 8569,
          "time": 78.75910716666665,
          "velocity": 0.7795275590551181
        },
        {
          "duration": 0.22058799999999223,
          "durationTicks": 24,
          "midi": 84,
          "name": "C6",
          "ticks": 8640,
          "time": 79.41168,
          "velocity": 0.7795275590551181
        },
        {
          "duration": 0.21139683333333892,
          "durationTicks": 23,
          "midi": 72,
          "name": "C5",
          "ticks": 8641,
          "time": 79.42087116666666,
          "velocity": 0.7795275590551181
        },
        {
          "duration": 0.8731608333333298,
          "durationTicks": 95,
          "midi": 87,
          "name": "D#6",
          "ticks": 8664,
          "time": 79.632268,
          "velocity": 0.7795275590551181
        },
        {
          "duration": 0.8639696666666623,
          "durationTicks": 94,
          "midi": 75,
          "name": "D#5",
          "ticks": 8665,
          "time": 79.64145916666666,
          "velocity": 0.7795275590551181
        },
        {
          "duration": 0.6433816666666701,
          "durationTicks": 70,
          "midi": 68,
          "name": "G#4",
          "ticks": 8689,
          "time": 79.86204716666666,
          "velocity": 0.7795275590551181
        },
        {
          "duration": 0.6525728333333376,
          "durationTicks": 71,
          "midi": 53,
          "name": "F3",
          "ticks": 8689,
          "time": 79.86204716666666,
          "velocity": 0.7795275590551181
        },
        {
          "duration": 0.6525728333333376,
          "durationTicks": 71,
          "midi": 60,
          "name": "C4",
          "ticks": 8689,
          "time": 79.86204716666666,
          "velocity": 0.7795275590551181
        },
        {
          "duration": 0.29411733333333245,
          "durationTicks": 32,
          "midi": 86,
          "name": "D6",
          "ticks": 8760,
          "time": 80.51462,
          "velocity": 0.7795275590551181
        },
        {
          "duration": 0.29411733333333245,
          "durationTicks": 32,
          "midi": 74,
          "name": "D5",
          "ticks": 8760,
          "time": 80.51462,
          "velocity": 0.7795275590551181
        },
        {
          "duration": 1.0753665000000012,
          "durationTicks": 117,
          "midi": 68,
          "name": "G#4",
          "ticks": 8761,
          "time": 80.52381116666666,
          "velocity": 0.7795275590551181
        },
        {
          "duration": 1.0661753333333337,
          "durationTicks": 116,
          "midi": 53,
          "name": "F3",
          "ticks": 8761,
          "time": 80.52381116666666,
          "velocity": 0.7795275590551181
        },
        {
          "duration": 1.0661753333333337,
          "durationTicks": 116,
          "midi": 58,
          "name": "A#3",
          "ticks": 8761,
          "time": 80.52381116666666,
          "velocity": 0.7795275590551181
        },
        {
          "duration": 0.6433816666666559,
          "durationTicks": 70,
          "midi": 86,
          "name": "D6",
          "ticks": 8808,
          "time": 80.955796,
          "velocity": 0.8110236220472441
        },
        {
          "duration": 0.6341905000000025,
          "durationTicks": 69,
          "midi": 74,
          "name": "D5",
          "ticks": 8809,
          "time": 80.96498716666666,
          "velocity": 0.8031496062992126
        },
        {
          "duration": 0.8731608333333298,
          "durationTicks": 95,
          "midi": 77,
          "name": "F5",
          "ticks": 8880,
          "time": 81.61756,
          "velocity": 0.7795275590551181
        },
        {
          "duration": 0.8639696666666623,
          "durationTicks": 94,
          "midi": 65,
          "name": "F4",
          "ticks": 8880,
          "time": 81.61756,
          "velocity": 0.7795275590551181
        },
        {
          "duration": 0.8731608333333298,
          "durationTicks": 95,
          "midi": 70,
          "name": "A#4",
          "ticks": 8881,
          "time": 81.62675116666666,
          "velocity": 0.7795275590551181
        },
        {
          "duration": 1.7371304999999921,
          "durationTicks": 189,
          "midi": 54,
          "name": "F#3",
          "ticks": 8881,
          "time": 81.62675116666666,
          "velocity": 0.7795275590551181
        },
        {
          "duration": 1.7371304999999921,
          "durationTicks": 189,
          "midi": 61,
          "name": "C#4",
          "ticks": 8881,
          "time": 81.62675116666666,
          "velocity": 0.7795275590551181
        },
        {
          "duration": 0.43198483333333115,
          "durationTicks": 47,
          "midi": 82,
          "name": "A#5",
          "ticks": 8976,
          "time": 82.499912,
          "velocity": 0.7795275590551181
        },
        {
          "duration": 0.4227936666666636,
          "durationTicks": 46,
          "midi": 70,
          "name": "A#4",
          "ticks": 8977,
          "time": 82.50910316666666,
          "velocity": 0.7795275590551181
        },
        {
          "duration": 0.43198483333333115,
          "durationTicks": 47,
          "midi": 85,
          "name": "C#6",
          "ticks": 9024,
          "time": 82.941088,
          "velocity": 0.7795275590551181
        },
        {
          "duration": 0.4227936666666636,
          "durationTicks": 46,
          "midi": 73,
          "name": "C#5",
          "ticks": 9025,
          "time": 82.95027916666666,
          "velocity": 0.7795275590551181
        },
        {
          "duration": 0.4411759999999987,
          "durationTicks": 48,
          "midi": 84,
          "name": "C6",
          "ticks": 9072,
          "time": 83.382264,
          "velocity": 0.7795275590551181
        },
        {
          "duration": 0.43198483333331694,
          "durationTicks": 47,
          "midi": 72,
          "name": "C5",
          "ticks": 9072,
          "time": 83.382264,
          "velocity": 0.7795275590551181
        },
        {
          "duration": 0.873160833333344,
          "durationTicks": 95,
          "midi": 60,
          "name": "C4",
          "ticks": 9073,
          "time": 83.39145516666666,
          "velocity": 0.7795275590551181
        },
        {
          "duration": 1.7371304999999921,
          "durationTicks": 189,
          "midi": 63,
          "name": "D#4",
          "ticks": 9073,
          "time": 83.39145516666666,
          "velocity": 0.7795275590551181
        },
        {
          "duration": 1.7371304999999921,
          "durationTicks": 189,
          "midi": 56,
          "name": "G#3",
          "ticks": 9073,
          "time": 83.39145516666666,
          "velocity": 0.7795275590551181
        },
        {
          "duration": 0.43198483333333115,
          "durationTicks": 47,
          "midi": 80,
          "name": "G#5",
          "ticks": 9120,
          "time": 83.82344,
          "velocity": 0.7795275590551181
        },
        {
          "duration": 0.42279366666667784,
          "durationTicks": 46,
          "midi": 68,
          "name": "G#4",
          "ticks": 9121,
          "time": 83.83263116666666,
          "velocity": 0.7795275590551181
        },
        {
          "duration": 0.22058799999999223,
          "durationTicks": 24,
          "midi": 85,
          "name": "C#6",
          "ticks": 9168,
          "time": 84.264616,
          "velocity": 0.7795275590551181
        },
        {
          "duration": 0.21139683333333892,
          "durationTicks": 23,
          "midi": 73,
          "name": "C#5",
          "ticks": 9169,
          "time": 84.27380716666666,
          "velocity": 0.7795275590551181
        },
        {
          "duration": 0.6525728333333376,
          "durationTicks": 71,
          "midi": 87,
          "name": "D#6",
          "ticks": 9192,
          "time": 84.485204,
          "velocity": 0.7795275590551181
        },
        {
          "duration": 0.6525728333333376,
          "durationTicks": 71,
          "midi": 75,
          "name": "D#5",
          "ticks": 9193,
          "time": 84.49439516666666,
          "velocity": 0.7795275590551181
        },
        {
          "duration": 1.7463216666666597,
          "durationTicks": 190,
          "midi": 89,
          "name": "F6",
          "ticks": 9264,
          "time": 85.146968,
          "velocity": 0.7795275590551181
        },
        {
          "duration": 1.7463216666666597,
          "durationTicks": 190,
          "midi": 77,
          "name": "F5",
          "ticks": 9264,
          "time": 85.146968,
          "velocity": 0.7795275590551181
        },
        {
          "duration": 2.19668883333334,
          "durationTicks": 239,
          "midi": 68,
          "name": "G#4",
          "ticks": 9265,
          "time": 85.15615916666665,
          "velocity": 0.7795275590551181
        },
        {
          "duration": 1.7555128333333414,
          "durationTicks": 191,
          "midi": 61,
          "name": "C#4",
          "ticks": 9265,
          "time": 85.15615916666665,
          "velocity": 0.7795275590551181
        },
        {
          "duration": 2.19668883333334,
          "durationTicks": 239,
          "midi": 58,
          "name": "A#3",
          "ticks": 9265,
          "time": 85.15615916666665,
          "velocity": 0.7795275590551181
        },
        {
          "duration": 0.4411759999999987,
          "durationTicks": 48,
          "midi": 89,
          "name": "F6",
          "ticks": 9456,
          "time": 86.911672,
          "velocity": 0.7795275590551181
        },
        {
          "duration": 0.4411759999999987,
          "durationTicks": 48,
          "midi": 77,
          "name": "F5",
          "ticks": 9456,
          "time": 86.911672,
          "velocity": 0.7795275590551181
        },
        {
          "duration": 0.4411759999999987,
          "durationTicks": 48,
          "midi": 61,
          "name": "C#4",
          "ticks": 9456,
          "time": 86.911672,
          "velocity": 0.7795275590551181
        },
        {
          "duration": 1.7463216666666597,
          "durationTicks": 190,
          "midi": 65,
          "name": "F4",
          "ticks": 11184,
          "time": 102.794008,
          "velocity": 0.7007874015748031
        },
        {
          "duration": 1.7463216666666597,
          "durationTicks": 190,
          "midi": 61,
          "name": "C#4",
          "ticks": 11184,
          "time": 102.794008,
          "velocity": 0.7007874015748031
        },
        {
          "duration": 1.7463216666666739,
          "durationTicks": 190,
          "midi": 56,
          "name": "G#3",
          "ticks": 11185,
          "time": 102.80319916666666,
          "velocity": 0.7007874015748031
        },
        {
          "duration": 1.7463216666666739,
          "durationTicks": 190,
          "midi": 42,
          "name": "F#2",
          "ticks": 11185,
          "time": 102.80319916666666,
          "velocity": 0.7795275590551181
        },
        {
          "duration": 0.6525728333333234,
          "durationTicks": 71,
          "midi": 65,
          "name": "F4",
          "ticks": 11376,
          "time": 104.558712,
          "velocity": 0.7007874015748031
        },
        {
          "duration": 0.6525728333333234,
          "durationTicks": 71,
          "midi": 61,
          "name": "C#4",
          "ticks": 11376,
          "time": 104.558712,
          "velocity": 0.7007874015748031
        },
        {
          "duration": 0.6433816666666701,
          "durationTicks": 70,
          "midi": 56,
          "name": "G#3",
          "ticks": 11377,
          "time": 104.56790316666665,
          "velocity": 0.7007874015748031
        },
        {
          "duration": 0.6433816666666701,
          "durationTicks": 70,
          "midi": 44,
          "name": "G#2",
          "ticks": 11377,
          "time": 104.56790316666665,
          "velocity": 0.7795275590551181
        },
        {
          "duration": 1.0845576666666545,
          "durationTicks": 118,
          "midi": 65,
          "name": "F4",
          "ticks": 11448,
          "time": 105.220476,
          "velocity": 0.7007874015748031
        },
        {
          "duration": 1.0845576666666545,
          "durationTicks": 118,
          "midi": 60,
          "name": "C4",
          "ticks": 11448,
          "time": 105.220476,
          "velocity": 0.7007874015748031
        },
        {
          "duration": 1.0753665000000012,
          "durationTicks": 117,
          "midi": 56,
          "name": "G#3",
          "ticks": 11449,
          "time": 105.22966716666666,
          "velocity": 0.7007874015748031
        },
        {
          "duration": 1.0753665000000012,
          "durationTicks": 117,
          "midi": 44,
          "name": "G#2",
          "ticks": 11449,
          "time": 105.22966716666666,
          "velocity": 0.7795275590551181
        },
        {
          "duration": 1.7463216666666597,
          "durationTicks": 190,
          "midi": 63,
          "name": "D#4",
          "ticks": 11568,
          "time": 106.323416,
          "velocity": 0.7007874015748031
        },
        {
          "duration": 1.7463216666666597,
          "durationTicks": 190,
          "midi": 60,
          "name": "C4",
          "ticks": 11568,
          "time": 106.323416,
          "velocity": 0.7007874015748031
        },
        {
          "duration": 1.7371304999999921,
          "durationTicks": 189,
          "midi": 56,
          "name": "G#3",
          "ticks": 11569,
          "time": 106.33260716666666,
          "velocity": 0.7007874015748031
        },
        {
          "duration": 1.7371304999999921,
          "durationTicks": 189,
          "midi": 46,
          "name": "A#2",
          "ticks": 11569,
          "time": 106.33260716666666,
          "velocity": 0.7795275590551181
        },
        {
          "duration": 0.6525728333333234,
          "durationTicks": 71,
          "midi": 63,
          "name": "D#4",
          "ticks": 11760,
          "time": 108.08812,
          "velocity": 0.7007874015748031
        },
        {
          "duration": 0.6525728333333234,
          "durationTicks": 71,
          "midi": 60,
          "name": "C4",
          "ticks": 11760,
          "time": 108.08812,
          "velocity": 0.7007874015748031
        },
        {
          "duration": 0.6433816666666701,
          "durationTicks": 70,
          "midi": 56,
          "name": "G#3",
          "ticks": 11761,
          "time": 108.09731116666666,
          "velocity": 0.7007874015748031
        },
        {
          "duration": 0.6433816666666701,
          "durationTicks": 70,
          "midi": 46,
          "name": "A#2",
          "ticks": 11761,
          "time": 108.09731116666666,
          "velocity": 0.7795275590551181
        },
        {
          "duration": 1.0845576666666688,
          "durationTicks": 118,
          "midi": 65,
          "name": "F4",
          "ticks": 11832,
          "time": 108.749884,
          "velocity": 0.7007874015748031
        },
        {
          "duration": 1.0845576666666688,
          "durationTicks": 118,
          "midi": 61,
          "name": "C#4",
          "ticks": 11832,
          "time": 108.749884,
          "velocity": 0.7007874015748031
        },
        {
          "duration": 1.0753665000000012,
          "durationTicks": 117,
          "midi": 56,
          "name": "G#3",
          "ticks": 11833,
          "time": 108.75907516666666,
          "velocity": 0.7007874015748031
        },
        {
          "duration": 1.0753665000000012,
          "durationTicks": 117,
          "midi": 46,
          "name": "A#2",
          "ticks": 11833,
          "time": 108.75907516666666,
          "velocity": 0.7795275590551181
        },
        {
          "duration": 1.7555128333333272,
          "durationTicks": 191,
          "midi": 77,
          "name": "F5",
          "ticks": 11952,
          "time": 109.852824,
          "velocity": 0.7795275590551181
        },
        {
          "duration": 1.7463216666666597,
          "durationTicks": 190,
          "midi": 65,
          "name": "F4",
          "ticks": 11952,
          "time": 109.852824,
          "velocity": 0.7007874015748031
        },
        {
          "duration": 1.7463216666666597,
          "durationTicks": 190,
          "midi": 61,
          "name": "C#4",
          "ticks": 11952,
          "time": 109.852824,
          "velocity": 0.7007874015748031
        },
        {
          "duration": 1.7463216666666597,
          "durationTicks": 190,
          "midi": 56,
          "name": "G#3",
          "ticks": 11953,
          "time": 109.86201516666667,
          "velocity": 0.7007874015748031
        },
        {
          "duration": 1.7463216666666597,
          "durationTicks": 190,
          "midi": 42,
          "name": "F#2",
          "ticks": 11953,
          "time": 109.86201516666667,
          "velocity": 0.7795275590551181
        },
        {
          "duration": 0.4227936666666494,
          "durationTicks": 46,
          "midi": 75,
          "name": "D#5",
          "ticks": 12144,
          "time": 111.61752800000001,
          "velocity": 0.7795275590551181
        },
        {
          "duration": 0.6525728333333234,
          "durationTicks": 71,
          "midi": 65,
          "name": "F4",
          "ticks": 12144,
          "time": 111.61752800000001,
          "velocity": 0.7007874015748031
        },
        {
          "duration": 0.6525728333333234,
          "durationTicks": 71,
          "midi": 61,
          "name": "C#4",
          "ticks": 12144,
          "time": 111.61752800000001,
          "velocity": 0.7007874015748031
        },
        {
          "duration": 0.6433816666666701,
          "durationTicks": 70,
          "midi": 56,
          "name": "G#3",
          "ticks": 12145,
          "time": 111.62671916666666,
          "velocity": 0.7007874015748031
        },
        {
          "duration": 0.6433816666666701,
          "durationTicks": 70,
          "midi": 44,
          "name": "G#2",
          "ticks": 12145,
          "time": 111.62671916666666,
          "velocity": 0.7795275590551181
        },
        {
          "duration": 0.2113968333333247,
          "durationTicks": 23,
          "midi": 77,
          "name": "F5",
          "ticks": 12192,
          "time": 112.058704,
          "velocity": 0.7795275590551181
        },
        {
          "duration": 0.21139683333333892,
          "durationTicks": 23,
          "midi": 75,
          "name": "D#5",
          "ticks": 12216,
          "time": 112.279292,
          "velocity": 0.7795275590551181
        },
        {
          "duration": 1.0845576666666545,
          "durationTicks": 118,
          "midi": 65,
          "name": "F4",
          "ticks": 12216,
          "time": 112.279292,
          "velocity": 0.7007874015748031
        },
        {
          "duration": 1.0845576666666545,
          "durationTicks": 118,
          "midi": 60,
          "name": "C4",
          "ticks": 12216,
          "time": 112.279292,
          "velocity": 0.7007874015748031
        },
        {
          "duration": 1.075366499999987,
          "durationTicks": 117,
          "midi": 56,
          "name": "G#3",
          "ticks": 12217,
          "time": 112.28848316666667,
          "velocity": 0.7007874015748031
        },
        {
          "duration": 1.075366499999987,
          "durationTicks": 117,
          "midi": 44,
          "name": "G#2",
          "ticks": 12217,
          "time": 112.28848316666667,
          "velocity": 0.7795275590551181
        },
        {
          "duration": 0.8547784999999948,
          "durationTicks": 93,
          "midi": 80,
          "name": "G#5",
          "ticks": 12240,
          "time": 112.49988,
          "velocity": 0.7795275590551181
        },
        {
          "duration": 0.8639696666666623,
          "durationTicks": 94,
          "midi": 72,
          "name": "C5",
          "ticks": 12336,
          "time": 113.382232,
          "velocity": 0.7795275590551181
        },
        {
          "duration": 1.5165424999999857,
          "durationTicks": 165,
          "midi": 63,
          "name": "D#4",
          "ticks": 12336,
          "time": 113.382232,
          "velocity": 0.7007874015748031
        },
        {
          "duration": 1.5165424999999857,
          "durationTicks": 165,
          "midi": 60,
          "name": "C4",
          "ticks": 12336,
          "time": 113.382232,
          "velocity": 0.7007874015748031
        },
        {
          "duration": 1.5165425000000141,
          "durationTicks": 165,
          "midi": 56,
          "name": "G#3",
          "ticks": 12337,
          "time": 113.39142316666666,
          "velocity": 0.7007874015748031
        },
        {
          "duration": 1.5165425000000141,
          "durationTicks": 165,
          "midi": 46,
          "name": "A#2",
          "ticks": 12337,
          "time": 113.39142316666666,
          "velocity": 0.7795275590551181
        },
        {
          "duration": 0.6617639999999909,
          "durationTicks": 72,
          "midi": 73,
          "name": "C#5",
          "ticks": 12432,
          "time": 114.264584,
          "velocity": 0.7795275590551181
        },
        {
          "duration": 0.43198483333334536,
          "durationTicks": 47,
          "midi": 75,
          "name": "D#5",
          "ticks": 12504,
          "time": 114.92634799999999,
          "velocity": 0.7795275590551181
        },
        {
          "duration": 1.9669096666666803,
          "durationTicks": 214,
          "midi": 65,
          "name": "F4",
          "ticks": 12504,
          "time": 114.92634799999999,
          "velocity": 0.7007874015748031
        },
        {
          "duration": 1.9669096666666803,
          "durationTicks": 214,
          "midi": 60,
          "name": "C4",
          "ticks": 12504,
          "time": 114.92634799999999,
          "velocity": 0.7007874015748031
        },
        {
          "duration": 1.9485273333333168,
          "durationTicks": 212,
          "midi": 56,
          "name": "G#3",
          "ticks": 12505,
          "time": 114.93553916666667,
          "velocity": 0.7007874015748031
        },
        {
          "duration": 1.9485273333333168,
          "durationTicks": 212,
          "midi": 49,
          "name": "C#3",
          "ticks": 12505,
          "time": 114.93553916666667,
          "velocity": 0.7795275590551181
        },
        {
          "duration": 0.43198483333334536,
          "durationTicks": 47,
          "midi": 80,
          "name": "G#5",
          "ticks": 12552,
          "time": 115.36752399999999,
          "velocity": 0.7795275590551181
        },
        {
          "duration": 0.43198483333334536,
          "durationTicks": 47,
          "midi": 75,
          "name": "D#5",
          "ticks": 12600,
          "time": 115.80869999999999,
          "velocity": 0.7795275590551181
        },
        {
          "duration": 0.21139683333333892,
          "durationTicks": 23,
          "midi": 77,
          "name": "F5",
          "ticks": 12648,
          "time": 116.24987599999999,
          "velocity": 0.8740157480314961
        },
        {
          "duration": 0.11029399999999612,
          "durationTicks": 12,
          "midi": 80,
          "name": "G#5",
          "ticks": 12672,
          "time": 116.47046399999999,
          "velocity": 0.8740157480314961
        },
        {
          "duration": 0.11029399999999612,
          "durationTicks": 12,
          "midi": 82,
          "name": "A#5",
          "ticks": 12684,
          "time": 116.58075799999999,
          "velocity": 0.8740157480314961
        },
        {
          "duration": 0.11029400000001033,
          "durationTicks": 12,
          "midi": 80,
          "name": "G#5",
          "ticks": 12696,
          "time": 116.69105199999998,
          "velocity": 0.8740157480314961
        },
        {
          "duration": 0.11029399999999612,
          "durationTicks": 12,
          "midi": 85,
          "name": "C#6",
          "ticks": 12708,
          "time": 116.801346,
          "velocity": 0.8740157480314961
        },
        {
          "duration": 1.084557666666683,
          "durationTicks": 118,
          "midi": 85,
          "name": "C#6",
          "ticks": 12720,
          "time": 116.91163999999999,
          "velocity": 0.7795275590551181
        },
        {
          "duration": 1.7463216666666597,
          "durationTicks": 190,
          "midi": 65,
          "name": "F4",
          "ticks": 12721,
          "time": 116.92083116666667,
          "velocity": 0.7795275590551181
        },
        {
          "duration": 1.7463216666666597,
          "durationTicks": 190,
          "midi": 70,
          "name": "A#4",
          "ticks": 12721,
          "time": 116.92083116666667,
          "velocity": 0.7795275590551181
        },
        {
          "duration": 1.7463216666666597,
          "durationTicks": 190,
          "midi": 55,
          "name": "G3",
          "ticks": 12721,
          "time": 116.92083116666667,
          "velocity": 0.7795275590551181
        },
        {
          "duration": 0.2022056666666714,
          "durationTicks": 22,
          "midi": 77,
          "name": "F5",
          "ticks": 12840,
          "time": 118.01458,
          "velocity": 0.7795275590551181
        },
        {
          "duration": 0.2022056666666856,
          "durationTicks": 22,
          "midi": 84,
          "name": "C6",
          "ticks": 12864,
          "time": 118.23516799999999,
          "velocity": 0.7795275590551181
        },
        {
          "duration": 0.2022056666666714,
          "durationTicks": 22,
          "midi": 85,
          "name": "C#6",
          "ticks": 12888,
          "time": 118.455756,
          "velocity": 0.7795275590551181
        },
        {
          "duration": 0.873160833333344,
          "durationTicks": 95,
          "midi": 87,
          "name": "D#6",
          "ticks": 12912,
          "time": 118.67634399999999,
          "velocity": 0.7795275590551181
        },
        {
          "duration": 1.7463216666666597,
          "durationTicks": 190,
          "midi": 65,
          "name": "F4",
          "ticks": 12913,
          "time": 118.68553516666667,
          "velocity": 0.7795275590551181
        },
        {
          "duration": 1.7463216666666597,
          "durationTicks": 190,
          "midi": 70,
          "name": "A#4",
          "ticks": 12913,
          "time": 118.68553516666667,
          "velocity": 0.7795275590551181
        },
        {
          "duration": 1.7463216666666597,
          "durationTicks": 190,
          "midi": 54,
          "name": "F#3",
          "ticks": 12913,
          "time": 118.68553516666667,
          "velocity": 0.7795275590551181
        },
        {
          "duration": 0.43198483333334536,
          "durationTicks": 47,
          "midi": 84,
          "name": "C6",
          "ticks": 13008,
          "time": 119.55869599999998,
          "velocity": 0.7795275590551181
        },
        {
          "duration": 0.43198483333334536,
          "durationTicks": 47,
          "midi": 85,
          "name": "C#6",
          "ticks": 13056,
          "time": 119.99987199999998,
          "velocity": 0.7795275590551181
        },
        {
          "duration": 0.43198483333333115,
          "durationTicks": 47,
          "midi": 80,
          "name": "G#5",
          "ticks": 13104,
          "time": 120.441048,
          "velocity": 0.7795275590551181
        },
        {
          "duration": 1.7463216666666597,
          "durationTicks": 190,
          "midi": 63,
          "name": "D#4",
          "ticks": 13105,
          "time": 120.45023916666668,
          "velocity": 0.7795275590551181
        },
        {
          "duration": 2.3988944999999973,
          "durationTicks": 261,
          "midi": 72,
          "name": "C5",
          "ticks": 13105,
          "time": 120.45023916666668,
          "velocity": 0.7795275590551181
        },
        {
          "duration": 1.7463216666666597,
          "durationTicks": 190,
          "midi": 53,
          "name": "F3",
          "ticks": 13105,
          "time": 120.45023916666668,
          "velocity": 0.7795275590551181
        },
        {
          "duration": 0.43198483333333115,
          "durationTicks": 47,
          "midi": 87,
          "name": "D#6",
          "ticks": 13152,
          "time": 120.882224,
          "velocity": 0.7795275590551181
        },
        {
          "duration": 0.43198483333334536,
          "durationTicks": 47,
          "midi": 92,
          "name": "G#6",
          "ticks": 13200,
          "time": 121.32339999999999,
          "velocity": 0.7795275590551181
        },
        {
          "duration": 0.43198483333334536,
          "durationTicks": 47,
          "midi": 90,
          "name": "F#6",
          "ticks": 13248,
          "time": 121.76457599999999,
          "velocity": 0.7795275590551181
        },
        {
          "duration": 0.8639696666666907,
          "durationTicks": 94,
          "midi": 65,
          "name": "F4",
          "ticks": 13272,
          "time": 121.98516399999998,
          "velocity": 0.7795275590551181
        },
        {
          "duration": 0.8547784999999948,
          "durationTicks": 93,
          "midi": 58,
          "name": "A#3",
          "ticks": 13273,
          "time": 121.99435516666668,
          "velocity": 0.7795275590551181
        },
        {
          "duration": 0.43198483333331694,
          "durationTicks": 47,
          "midi": 92,
          "name": "G#6",
          "ticks": 13297,
          "time": 122.21494316666667,
          "velocity": 0.7007874015748031
        },
        {
          "duration": 0.43198483333334536,
          "durationTicks": 47,
          "midi": 89,
          "name": "F6",
          "ticks": 13344,
          "time": 122.64692799999999,
          "velocity": 0.7795275590551181
        },
        {
          "duration": 1.084557666666683,
          "durationTicks": 118,
          "midi": 65,
          "name": "F4",
          "ticks": 13368,
          "time": 122.867516,
          "velocity": 0.7795275590551181
        },
        {
          "duration": 1.084557666666683,
          "durationTicks": 118,
          "midi": 61,
          "name": "C#4",
          "ticks": 13368,
          "time": 122.867516,
          "velocity": 0.7795275590551181
        },
        {
          "duration": 1.0845576666666545,
          "durationTicks": 118,
          "midi": 58,
          "name": "A#3",
          "ticks": 13369,
          "time": 122.87670716666668,
          "velocity": 0.7795275590551181
        },
        {
          "duration": 0.43198483333334536,
          "durationTicks": 47,
          "midi": 87,
          "name": "D#6",
          "ticks": 13392,
          "time": 123.08810399999999,
          "velocity": 0.7795275590551181
        },
        {
          "duration": 0.34926433333335183,
          "durationTicks": 38,
          "midi": 85,
          "name": "C#6",
          "ticks": 13440,
          "time": 123.52927999999999,
          "velocity": 0.7795275590551181
        },
        {
          "duration": 0.43198483333334536,
          "durationTicks": 47,
          "midi": 75,
          "name": "D#5",
          "ticks": 13488,
          "time": 123.97045599999998,
          "velocity": 0.7795275590551181
        },
        {
          "duration": 0.43198483333334536,
          "durationTicks": 47,
          "midi": 66,
          "name": "F#4",
          "ticks": 13488,
          "time": 123.97045599999998,
          "velocity": 0.7795275590551181
        },
        {
          "duration": 0.4503671666666662,
          "durationTicks": 49,
          "midi": 61,
          "name": "C#4",
          "ticks": 13489,
          "time": 123.97964716666667,
          "velocity": 0.7795275590551181
        },
        {
          "duration": 0.43198483333331694,
          "durationTicks": 47,
          "midi": 51,
          "name": "D#3",
          "ticks": 13489,
          "time": 123.97964716666667,
          "velocity": 0.7795275590551181
        },
        {
          "duration": 0.6433816666666843,
          "durationTicks": 70,
          "midi": 77,
          "name": "F5",
          "ticks": 13560,
          "time": 124.63221999999999,
          "velocity": 0.7795275590551181
        },
        {
          "duration": 0.6617640000000051,
          "durationTicks": 72,
          "midi": 68,
          "name": "G#4",
          "ticks": 13560,
          "time": 124.63221999999999,
          "velocity": 0.7795275590551181
        },
        {
          "duration": 0.6617640000000051,
          "durationTicks": 72,
          "midi": 63,
          "name": "D#4",
          "ticks": 13561,
          "time": 124.64141116666667,
          "velocity": 0.7795275590551181
        },
        {
          "duration": 0.6617640000000051,
          "durationTicks": 72,
          "midi": 53,
          "name": "F3",
          "ticks": 13561,
          "time": 124.64141116666667,
          "velocity": 0.7795275590551181
        },
        {
          "duration": 0.4411759999999987,
          "durationTicks": 48,
          "midi": 82,
          "name": "A#5",
          "ticks": 13656,
          "time": 125.51457199999999,
          "velocity": 0.7795275590551181
        },
        {
          "duration": 0.6525728333333376,
          "durationTicks": 71,
          "midi": 65,
          "name": "F4",
          "ticks": 13656,
          "time": 125.51457199999999,
          "velocity": 0.7795275590551181
        },
        {
          "duration": 0.6525728333333234,
          "durationTicks": 71,
          "midi": 61,
          "name": "C#4",
          "ticks": 13657,
          "time": 125.52376316666667,
          "velocity": 0.7795275590551181
        },
        {
          "duration": 0.6525728333333234,
          "durationTicks": 71,
          "midi": 54,
          "name": "F#3",
          "ticks": 13657,
          "time": 125.52376316666667,
          "velocity": 0.7795275590551181
        },
        {
          "duration": 0.1011028333333428,
          "durationTicks": 11,
          "midi": 80,
          "name": "G#5",
          "ticks": 13704,
          "time": 125.95574799999999,
          "velocity": 0.7795275590551181
        },
        {
          "duration": 0.1011028333333428,
          "durationTicks": 11,
          "midi": 82,
          "name": "A#5",
          "ticks": 13728,
          "time": 126.17633599999999,
          "velocity": 0.7795275590551181
        },
        {
          "duration": 0.1011028333333428,
          "durationTicks": 11,
          "midi": 85,
          "name": "C#6",
          "ticks": 13740,
          "time": 126.28662999999999,
          "velocity": 0.7795275590551181
        },
        {
          "duration": 0.3676466666666869,
          "durationTicks": 40,
          "midi": 85,
          "name": "C#6",
          "ticks": 13752,
          "time": 126.39692399999998,
          "velocity": 0.7795275590551181
        },
        {
          "duration": 0.9926460000000077,
          "durationTicks": 108,
          "midi": 65,
          "name": "F4",
          "ticks": 13752,
          "time": 126.39692399999998,
          "velocity": 0.7795275590551181
        },
        {
          "duration": 0.9926460000000077,
          "durationTicks": 108,
          "midi": 58,
          "name": "A#3",
          "ticks": 13753,
          "time": 126.40611516666667,
          "velocity": 0.7795275590551181
        },
        {
          "duration": 0.983454833333326,
          "durationTicks": 107,
          "midi": 55,
          "name": "G3",
          "ticks": 13753,
          "time": 126.40611516666667,
          "velocity": 0.7795275590551181
        },
        {
          "duration": 0.1011028333333428,
          "durationTicks": 11,
          "midi": 82,
          "name": "A#5",
          "ticks": 13800,
          "time": 126.83809999999998,
          "velocity": 0.7795275590551181
        },
        {
          "duration": 0.1011028333333428,
          "durationTicks": 11,
          "midi": 84,
          "name": "C6",
          "ticks": 13812,
          "time": 126.948394,
          "velocity": 0.7795275590551181
        },
        {
          "duration": 0.19301450000000386,
          "durationTicks": 21,
          "midi": 85,
          "name": "C#6",
          "ticks": 13824,
          "time": 127.05868799999999,
          "velocity": 0.7795275590551181
        },
        {
          "duration": 0.10110283333332859,
          "durationTicks": 11,
          "midi": 87,
          "name": "D#6",
          "ticks": 13848,
          "time": 127.279276,
          "velocity": 0.7795275590551181
        },
        {
          "duration": 1.0569841666666804,
          "durationTicks": 115,
          "midi": 89,
          "name": "F6",
          "ticks": 13872,
          "time": 127.49986399999999,
          "velocity": 0.7795275590551181
        },
        {
          "duration": 1.470586666666705,
          "durationTicks": 160,
          "midi": 58,
          "name": "A#3",
          "ticks": 13872,
          "time": 127.49986399999999,
          "velocity": 0.7795275590551181
        },
        {
          "duration": 1.4705866666666765,
          "durationTicks": 160,
          "midi": 61,
          "name": "C#4",
          "ticks": 13873,
          "time": 127.50905516666667,
          "velocity": 0.7795275590551181
        },
        {
          "duration": 1.4705866666666765,
          "durationTicks": 160,
          "midi": 56,
          "name": "G#3",
          "ticks": 13873,
          "time": 127.50905516666667,
          "velocity": 0.7795275590551181
        },
        {
          "duration": 0.07352933333334022,
          "durationTicks": 8,
          "midi": 82,
          "name": "A#5",
          "ticks": 13992,
          "time": 128.602804,
          "velocity": 0.84251968503937
        },
        {
          "duration": 0.07352933333334022,
          "durationTicks": 8,
          "midi": 84,
          "name": "C6",
          "ticks": 14000,
          "time": 128.67633333333333,
          "velocity": 0.84251968503937
        },
        {
          "duration": 0.0735293333333118,
          "durationTicks": 8,
          "midi": 85,
          "name": "C#6",
          "ticks": 14008,
          "time": 128.74986266666667,
          "velocity": 0.84251968503937
        },
        {
          "duration": 0.07352933333334022,
          "durationTicks": 8,
          "midi": 87,
          "name": "D#6",
          "ticks": 14016,
          "time": 128.82339199999998,
          "velocity": 0.84251968503937
        },
        {
          "duration": 0.07352933333336864,
          "durationTicks": 8,
          "midi": 89,
          "name": "F6",
          "ticks": 14024,
          "time": 128.89692133333332,
          "velocity": 0.84251968503937
        },
        {
          "duration": 0.0735293333333118,
          "durationTicks": 8,
          "midi": 90,
          "name": "F#6",
          "ticks": 14032,
          "time": 128.9704506666667,
          "velocity": 0.84251968503937
        },
        {
          "duration": 0.4044113333333428,
          "durationTicks": 44,
          "midi": 92,
          "name": "G#6",
          "ticks": 14040,
          "time": 129.04398,
          "velocity": 0.7795275590551181
        },
        {
          "duration": 1.9669096666666803,
          "durationTicks": 214,
          "midi": 57,
          "name": "A3",
          "ticks": 14040,
          "time": 129.04398,
          "velocity": 0.7795275590551181
        },
        {
          "duration": 1.9577184999999986,
          "durationTicks": 213,
          "midi": 60,
          "name": "C4",
          "ticks": 14041,
          "time": 129.0531711666667,
          "velocity": 0.7795275590551181
        },
        {
          "duration": 1.9577184999999986,
          "durationTicks": 213,
          "midi": 53,
          "name": "F3",
          "ticks": 14041,
          "time": 129.0531711666667,
          "velocity": 0.7795275590551181
        },
        {
          "duration": 0.4044113333333428,
          "durationTicks": 44,
          "midi": 90,
          "name": "F#6",
          "ticks": 14088,
          "time": 129.485156,
          "velocity": 0.7795275590551181
        },
        {
          "duration": 0.4044113333333428,
          "durationTicks": 44,
          "midi": 89,
          "name": "F6",
          "ticks": 14136,
          "time": 129.926332,
          "velocity": 0.7795275590551181
        },
        {
          "duration": 0.6341904999999883,
          "durationTicks": 69,
          "midi": 87,
          "name": "D#6",
          "ticks": 14184,
          "time": 130.36750800000002,
          "velocity": 0.7795275590551181
        },
        {
          "duration": 1.746321666666688,
          "durationTicks": 190,
          "midi": 66,
          "name": "F#4",
          "ticks": 15024,
          "time": 138.088088,
          "velocity": 0.7795275590551181
        },
        {
          "duration": 1.746321666666688,
          "durationTicks": 190,
          "midi": 61,
          "name": "C#4",
          "ticks": 15024,
          "time": 138.088088,
          "velocity": 0.7795275590551181
        },
        {
          "duration": 1.7463216666666597,
          "durationTicks": 190,
          "midi": 56,
          "name": "G#3",
          "ticks": 15025,
          "time": 138.09727916666668,
          "velocity": 0.7795275590551181
        },
        {
          "duration": 1.3235280000000103,
          "durationTicks": 144,
          "midi": 68,
          "name": "G#4",
          "ticks": 15216,
          "time": 139.852792,
          "velocity": 0.7795275590551181
        },
        {
          "duration": 1.3235280000000103,
          "durationTicks": 144,
          "midi": 63,
          "name": "D#4",
          "ticks": 15216,
          "time": 139.852792,
          "velocity": 0.7795275590551181
        },
        {
          "duration": 0.43198483333333115,
          "durationTicks": 47,
          "midi": 61,
          "name": "C#4",
          "ticks": 15217,
          "time": 139.86198316666668,
          "velocity": 0.7795275590551181
        },
        {
          "duration": 0.44117599999998447,
          "durationTicks": 48,
          "midi": 60,
          "name": "C4",
          "ticks": 15264,
          "time": 140.293968,
          "velocity": 0.7795275590551181
        },
        {
          "duration": 0.4411760000000129,
          "durationTicks": 48,
          "midi": 61,
          "name": "C#4",
          "ticks": 15312,
          "time": 140.735144,
          "velocity": 0.7795275590551181
        },
        {
          "duration": 0.4411760000000129,
          "durationTicks": 48,
          "midi": 63,
          "name": "D#4",
          "ticks": 15360,
          "time": 141.17632,
          "velocity": 0.7795275590551181
        },
        {
          "duration": 0.43198483333333115,
          "durationTicks": 47,
          "midi": 68,
          "name": "G#4",
          "ticks": 15360,
          "time": 141.17632,
          "velocity": 0.7795275590551181
        },
        {
          "duration": 0.2113968333333105,
          "durationTicks": 23,
          "midi": 73,
          "name": "C#5",
          "ticks": 15361,
          "time": 141.18551116666669,
          "velocity": 0.7795275590551181
        },
        {
          "duration": 0.11029400000001033,
          "durationTicks": 12,
          "midi": 75,
          "name": "D#5",
          "ticks": 15384,
          "time": 141.396908,
          "velocity": 0.7795275590551181
        },
        {
          "duration": 0.11029400000001033,
          "durationTicks": 12,
          "midi": 73,
          "name": "C#5",
          "ticks": 15396,
          "time": 141.507202,
          "velocity": 0.7795275590551181
        },
        {
          "duration": 1.3143368333333285,
          "durationTicks": 143,
          "midi": 72,
          "name": "C5",
          "ticks": 15408,
          "time": 141.61749600000002,
          "velocity": 0.7795275590551181
        },
        {
          "duration": 1.3143368333333285,
          "durationTicks": 143,
          "midi": 65,
          "name": "F4",
          "ticks": 15408,
          "time": 141.61749600000002,
          "velocity": 0.7795275590551181
        },
        {
          "duration": 1.3051456666666468,
          "durationTicks": 142,
          "midi": 56,
          "name": "G#3",
          "ticks": 15409,
          "time": 141.6266871666667,
          "velocity": 0.7795275590551181
        },
        {
          "duration": 0.4411760000000129,
          "durationTicks": 48,
          "midi": 63,
          "name": "D#4",
          "ticks": 15552,
          "time": 142.941024,
          "velocity": 0.7795275590551181
        },
        {
          "duration": 0.4319848333333596,
          "durationTicks": 47,
          "midi": 54,
          "name": "F#3",
          "ticks": 15552,
          "time": 142.941024,
          "velocity": 0.7795275590551181
        },
        {
          "duration": 0.2113968333333105,
          "durationTicks": 23,
          "midi": 73,
          "name": "C#5",
          "ticks": 15553,
          "time": 142.95021516666668,
          "velocity": 0.7795275590551181
        },
        {
          "duration": 0.11029400000001033,
          "durationTicks": 12,
          "midi": 75,
          "name": "D#5",
          "ticks": 15576,
          "time": 143.161612,
          "velocity": 0.7795275590551181
        },
        {
          "duration": 0.11029400000001033,
          "durationTicks": 12,
          "midi": 73,
          "name": "C#5",
          "ticks": 15588,
          "time": 143.271906,
          "velocity": 0.7795275590551181
        },
        {
          "duration": 0.873160833333344,
          "durationTicks": 95,
          "midi": 73,
          "name": "C#5",
          "ticks": 15600,
          "time": 143.3822,
          "velocity": 0.7795275590551181
        },
        {
          "duration": 0.873160833333344,
          "durationTicks": 95,
          "midi": 68,
          "name": "G#4",
          "ticks": 15600,
          "time": 143.3822,
          "velocity": 0.7795275590551181
        },
        {
          "duration": 0.8639696666666623,
          "durationTicks": 94,
          "midi": 53,
          "name": "F3",
          "ticks": 15601,
          "time": 143.3913911666667,
          "velocity": 0.7795275590551181
        },
        {
          "duration": 0.873160833333344,
          "durationTicks": 95,
          "midi": 75,
          "name": "D#5",
          "ticks": 15696,
          "time": 144.264552,
          "velocity": 0.7795275590551181
        },
        {
          "duration": 0.873160833333344,
          "durationTicks": 95,
          "midi": 68,
          "name": "G#4",
          "ticks": 15696,
          "time": 144.264552,
          "velocity": 0.7795275590551181
        },
        {
          "duration": 0.43198483333330273,
          "durationTicks": 47,
          "midi": 53,
          "name": "F3",
          "ticks": 15697,
          "time": 144.2737431666667,
          "velocity": 0.7795275590551181
        },
        {
          "duration": 0.42279366666670626,
          "durationTicks": 46,
          "midi": 51,
          "name": "D#3",
          "ticks": 15744,
          "time": 144.705728,
          "velocity": 0.7795275590551181
        },
        {
          "duration": 1.746321666666688,
          "durationTicks": 190,
          "midi": 73,
          "name": "C#5",
          "ticks": 15792,
          "time": 145.146904,
          "velocity": 0.7795275590551181
        },
        {
          "duration": 1.746321666666688,
          "durationTicks": 190,
          "midi": 65,
          "name": "F4",
          "ticks": 15792,
          "time": 145.146904,
          "velocity": 0.7795275590551181
        },
        {
          "duration": 1.7463216666666597,
          "durationTicks": 190,
          "midi": 58,
          "name": "A#3",
          "ticks": 15793,
          "time": 145.1560951666667,
          "velocity": 0.7795275590551181
        },
        {
          "duration": 1.746321666666688,
          "durationTicks": 190,
          "midi": 72,
          "name": "C5",
          "ticks": 15984,
          "time": 146.911608,
          "velocity": 0.7795275590551181
        },
        {
          "duration": 1.746321666666688,
          "durationTicks": 190,
          "midi": 63,
          "name": "D#4",
          "ticks": 15984,
          "time": 146.911608,
          "velocity": 0.7795275590551181
        },
        {
          "duration": 1.7463216666666597,
          "durationTicks": 190,
          "midi": 57,
          "name": "A3",
          "ticks": 15985,
          "time": 146.92079916666668,
          "velocity": 0.7795275590551181
        },
        {
          "duration": 1.746321666666688,
          "durationTicks": 190,
          "midi": 68,
          "name": "G#4",
          "ticks": 16176,
          "time": 148.676312,
          "velocity": 0.7795275590551181
        },
        {
          "duration": 1.746321666666688,
          "durationTicks": 190,
          "midi": 53,
          "name": "F3",
          "ticks": 16176,
          "time": 148.676312,
          "velocity": 0.7795275590551181
        },
        {
          "duration": 0.8731608333333156,
          "durationTicks": 95,
          "midi": 61,
          "name": "C#4",
          "ticks": 16177,
          "time": 148.68550316666668,
          "velocity": 0.7795275590551181
        },
        {
          "duration": 0.8639696666666907,
          "durationTicks": 94,
          "midi": 60,
          "name": "C4",
          "ticks": 16272,
          "time": 149.558664,
          "velocity": 0.7795275590551181
        },
        {
          "duration": 1.746321666666688,
          "durationTicks": 190,
          "midi": 68,
          "name": "G#4",
          "ticks": 16368,
          "time": 150.441016,
          "velocity": 0.7795275590551181
        },
        {
          "duration": 1.746321666666688,
          "durationTicks": 190,
          "midi": 53,
          "name": "F3",
          "ticks": 16368,
          "time": 150.441016,
          "velocity": 0.7795275590551181
        },
        {
          "duration": 0.8731608333333156,
          "durationTicks": 95,
          "midi": 60,
          "name": "C4",
          "ticks": 16369,
          "time": 150.4502071666667,
          "velocity": 0.7795275590551181
        },
        {
          "duration": 0.8731608333333156,
          "durationTicks": 95,
          "midi": 61,
          "name": "C#4",
          "ticks": 16464,
          "time": 151.32336800000002,
          "velocity": 0.7795275590551181
        },
        {
          "duration": 2.205879999999979,
          "durationTicks": 240,
          "midi": 85,
          "name": "C#6",
          "ticks": 16560,
          "time": 152.20572,
          "velocity": 0.7795275590551181
        },
        {
          "duration": 2.196688833333326,
          "durationTicks": 239,
          "midi": 73,
          "name": "C#5",
          "ticks": 16560,
          "time": 152.20572,
          "velocity": 0.7795275590551181
        },
        {
          "duration": 1.7463216666666597,
          "durationTicks": 190,
          "midi": 68,
          "name": "G#4",
          "ticks": 16561,
          "time": 152.2149111666667,
          "velocity": 0.7795275590551181
        },
        {
          "duration": 1.7463216666666597,
          "durationTicks": 190,
          "midi": 54,
          "name": "F#3",
          "ticks": 16561,
          "time": 152.2149111666667,
          "velocity": 0.7795275590551181
        },
        {
          "duration": 1.7463216666666597,
          "durationTicks": 190,
          "midi": 58,
          "name": "A#3",
          "ticks": 16561,
          "time": 152.2149111666667,
          "velocity": 0.7795275590551181
        },
        {
          "duration": 1.7463216666666597,
          "durationTicks": 190,
          "midi": 68,
          "name": "G#4",
          "ticks": 16753,
          "time": 153.9796151666667,
          "velocity": 0.7795275590551181
        },
        {
          "duration": 1.7463216666666597,
          "durationTicks": 190,
          "midi": 51,
          "name": "D#3",
          "ticks": 16753,
          "time": 153.9796151666667,
          "velocity": 0.7795275590551181
        },
        {
          "duration": 1.7463216666666597,
          "durationTicks": 190,
          "midi": 60,
          "name": "C4",
          "ticks": 16753,
          "time": 153.9796151666667,
          "velocity": 0.7795275590551181
        },
        {
          "duration": 0.873160833333344,
          "durationTicks": 95,
          "midi": 84,
          "name": "C6",
          "ticks": 16800,
          "time": 154.4116,
          "velocity": 0.7795275590551181
        },
        {
          "duration": 0.8639696666666623,
          "durationTicks": 94,
          "midi": 72,
          "name": "C5",
          "ticks": 16801,
          "time": 154.42079116666667,
          "velocity": 0.7795275590551181
        },
        {
          "duration": 0.4411760000000129,
          "durationTicks": 48,
          "midi": 87,
          "name": "D#6",
          "ticks": 16896,
          "time": 155.293952,
          "velocity": 0.7795275590551181
        },
        {
          "duration": 0.43198483333330273,
          "durationTicks": 47,
          "midi": 75,
          "name": "D#5",
          "ticks": 16897,
          "time": 155.3031431666667,
          "velocity": 0.7795275590551181
        },
        {
          "duration": 0.6525728333333518,
          "durationTicks": 71,
          "midi": 84,
          "name": "C6",
          "ticks": 16944,
          "time": 155.735128,
          "velocity": 0.7795275590551181
        },
        {
          "duration": 0.6525728333333518,
          "durationTicks": 71,
          "midi": 72,
          "name": "C5",
          "ticks": 16944,
          "time": 155.735128,
          "velocity": 0.7795275590551181
        },
        {
          "duration": 0.6433816666666701,
          "durationTicks": 70,
          "midi": 68,
          "name": "G#4",
          "ticks": 16945,
          "time": 155.74431916666668,
          "velocity": 0.7795275590551181
        },
        {
          "duration": 1.7463216666666597,
          "durationTicks": 190,
          "midi": 53,
          "name": "F3",
          "ticks": 16945,
          "time": 155.74431916666668,
          "velocity": 0.7795275590551181
        },
        {
          "duration": 1.7463216666666597,
          "durationTicks": 190,
          "midi": 61,
          "name": "C#4",
          "ticks": 16945,
          "time": 155.74431916666668,
          "velocity": 0.7795275590551181
        },
        {
          "duration": 0.6433816666666701,
          "durationTicks": 70,
          "midi": 80,
          "name": "G#5",
          "ticks": 17016,
          "time": 156.396892,
          "velocity": 0.7795275590551181
        },
        {
          "duration": 0.6433816666666416,
          "durationTicks": 70,
          "midi": 68,
          "name": "G#4",
          "ticks": 17017,
          "time": 156.4060831666667,
          "velocity": 0.7795275590551181
        },
        {
          "duration": 0.22058799999999223,
          "durationTicks": 24,
          "midi": 84,
          "name": "C6",
          "ticks": 17088,
          "time": 157.058656,
          "velocity": 0.7795275590551181
        },
        {
          "duration": 0.2113968333333105,
          "durationTicks": 23,
          "midi": 72,
          "name": "C5",
          "ticks": 17089,
          "time": 157.0678471666667,
          "velocity": 0.7795275590551181
        },
        {
          "duration": 0.873160833333344,
          "durationTicks": 95,
          "midi": 87,
          "name": "D#6",
          "ticks": 17112,
          "time": 157.279244,
          "velocity": 0.7795275590551181
        },
        {
          "duration": 0.8639696666666623,
          "durationTicks": 94,
          "midi": 75,
          "name": "D#5",
          "ticks": 17113,
          "time": 157.2884351666667,
          "velocity": 0.7795275590551181
        },
        {
          "duration": 0.6433816666666701,
          "durationTicks": 70,
          "midi": 68,
          "name": "G#4",
          "ticks": 17137,
          "time": 157.50902316666668,
          "velocity": 0.7795275590551181
        },
        {
          "duration": 0.6525728333333234,
          "durationTicks": 71,
          "midi": 53,
          "name": "F3",
          "ticks": 17137,
          "time": 157.50902316666668,
          "velocity": 0.7795275590551181
        },
        {
          "duration": 0.6525728333333234,
          "durationTicks": 71,
          "midi": 60,
          "name": "C4",
          "ticks": 17137,
          "time": 157.50902316666668,
          "velocity": 0.7795275590551181
        },
        {
          "duration": 0.29411733333333245,
          "durationTicks": 32,
          "midi": 86,
          "name": "D6",
          "ticks": 17208,
          "time": 158.161596,
          "velocity": 0.7795275590551181
        },
        {
          "duration": 0.29411733333333245,
          "durationTicks": 32,
          "midi": 74,
          "name": "D5",
          "ticks": 17208,
          "time": 158.161596,
          "velocity": 0.7795275590551181
        },
        {
          "duration": 1.0753665000000012,
          "durationTicks": 117,
          "midi": 68,
          "name": "G#4",
          "ticks": 17209,
          "time": 158.17078716666668,
          "velocity": 0.7795275590551181
        },
        {
          "duration": 1.0661753333333195,
          "durationTicks": 116,
          "midi": 53,
          "name": "F3",
          "ticks": 17209,
          "time": 158.17078716666668,
          "velocity": 0.7795275590551181
        },
        {
          "duration": 1.0661753333333195,
          "durationTicks": 116,
          "midi": 58,
          "name": "A#3",
          "ticks": 17209,
          "time": 158.17078716666668,
          "velocity": 0.7795275590551181
        },
        {
          "duration": 0.6433816666666701,
          "durationTicks": 70,
          "midi": 86,
          "name": "D6",
          "ticks": 17256,
          "time": 158.60277200000002,
          "velocity": 0.8110236220472441
        },
        {
          "duration": 0.6341904999999883,
          "durationTicks": 69,
          "midi": 74,
          "name": "D5",
          "ticks": 17257,
          "time": 158.6119631666667,
          "velocity": 0.8031496062992126
        },
        {
          "duration": 0.873160833333344,
          "durationTicks": 95,
          "midi": 77,
          "name": "F5",
          "ticks": 17328,
          "time": 159.264536,
          "velocity": 0.7795275590551181
        },
        {
          "duration": 0.8639696666666907,
          "durationTicks": 94,
          "midi": 65,
          "name": "F4",
          "ticks": 17328,
          "time": 159.264536,
          "velocity": 0.7795275590551181
        },
        {
          "duration": 0.873160833333344,
          "durationTicks": 95,
          "midi": 70,
          "name": "A#4",
          "ticks": 17329,
          "time": 159.27372716666667,
          "velocity": 0.7795275590551181
        },
        {
          "duration": 1.7371305000000064,
          "durationTicks": 189,
          "midi": 54,
          "name": "F#3",
          "ticks": 17329,
          "time": 159.27372716666667,
          "velocity": 0.7795275590551181
        },
        {
          "duration": 1.7371305000000064,
          "durationTicks": 189,
          "midi": 61,
          "name": "C#4",
          "ticks": 17329,
          "time": 159.27372716666667,
          "velocity": 0.7795275590551181
        },
        {
          "duration": 0.43198483333333115,
          "durationTicks": 47,
          "midi": 82,
          "name": "A#5",
          "ticks": 17424,
          "time": 160.14688800000002,
          "velocity": 0.7795275590551181
        },
        {
          "duration": 0.4227936666666494,
          "durationTicks": 46,
          "midi": 70,
          "name": "A#4",
          "ticks": 17425,
          "time": 160.1560791666667,
          "velocity": 0.7795275590551181
        },
        {
          "duration": 0.43198483333333115,
          "durationTicks": 47,
          "midi": 85,
          "name": "C#6",
          "ticks": 17472,
          "time": 160.588064,
          "velocity": 0.7795275590551181
        },
        {
          "duration": 0.4227936666666494,
          "durationTicks": 46,
          "midi": 73,
          "name": "C#5",
          "ticks": 17473,
          "time": 160.59725516666668,
          "velocity": 0.7795275590551181
        },
        {
          "duration": 0.44117599999998447,
          "durationTicks": 48,
          "midi": 84,
          "name": "C6",
          "ticks": 17520,
          "time": 161.02924000000002,
          "velocity": 0.7795275590551181
        },
        {
          "duration": 0.43198483333333115,
          "durationTicks": 47,
          "midi": 72,
          "name": "C5",
          "ticks": 17520,
          "time": 161.02924000000002,
          "velocity": 0.7795275590551181
        },
        {
          "duration": 0.8731608333333156,
          "durationTicks": 95,
          "midi": 60,
          "name": "C4",
          "ticks": 17521,
          "time": 161.0384311666667,
          "velocity": 0.7795275590551181
        },
        {
          "duration": 1.737130499999978,
          "durationTicks": 189,
          "midi": 63,
          "name": "D#4",
          "ticks": 17521,
          "time": 161.0384311666667,
          "velocity": 0.7795275590551181
        },
        {
          "duration": 1.737130499999978,
          "durationTicks": 189,
          "midi": 56,
          "name": "G#3",
          "ticks": 17521,
          "time": 161.0384311666667,
          "velocity": 0.7795275590551181
        },
        {
          "duration": 0.4319848333333596,
          "durationTicks": 47,
          "midi": 80,
          "name": "G#5",
          "ticks": 17568,
          "time": 161.470416,
          "velocity": 0.7795275590551181
        },
        {
          "duration": 0.42279366666667784,
          "durationTicks": 46,
          "midi": 68,
          "name": "G#4",
          "ticks": 17569,
          "time": 161.47960716666668,
          "velocity": 0.7795275590551181
        },
        {
          "duration": 0.22058799999999223,
          "durationTicks": 24,
          "midi": 85,
          "name": "C#6",
          "ticks": 17616,
          "time": 161.911592,
          "velocity": 0.7795275590551181
        },
        {
          "duration": 0.2113968333333105,
          "durationTicks": 23,
          "midi": 73,
          "name": "C#5",
          "ticks": 17617,
          "time": 161.9207831666667,
          "velocity": 0.7795275590551181
        },
        {
          "duration": 0.6525728333333518,
          "durationTicks": 71,
          "midi": 87,
          "name": "D#6",
          "ticks": 17640,
          "time": 162.13218,
          "velocity": 0.7795275590551181
        },
        {
          "duration": 0.6525728333333234,
          "durationTicks": 71,
          "midi": 75,
          "name": "D#5",
          "ticks": 17641,
          "time": 162.1413711666667,
          "velocity": 0.7795275590551181
        },
        {
          "duration": 0.44117599999998447,
          "durationTicks": 48,
          "midi": 80,
          "name": "G#5",
          "ticks": 17712,
          "time": 162.793944,
          "velocity": 0.7795275590551181
        },
        {
          "duration": 1.7830863333333298,
          "durationTicks": 194,
          "midi": 68,
          "name": "G#4",
          "ticks": 17712,
          "time": 162.793944,
          "velocity": 0.7795275590551181
        },
        {
          "duration": 1.755512833333313,
          "durationTicks": 191,
          "midi": 61,
          "name": "C#4",
          "ticks": 17713,
          "time": 162.8031351666667,
          "velocity": 0.7795275590551181
        },
        {
          "duration": 1.7647039999999947,
          "durationTicks": 192,
          "midi": 58,
          "name": "A#3",
          "ticks": 17713,
          "time": 162.8031351666667,
          "velocity": 0.7795275590551181
        },
        {
          "duration": 0.4411760000000129,
          "durationTicks": 48,
          "midi": 87,
          "name": "D#6",
          "ticks": 17760,
          "time": 163.23512,
          "velocity": 0.7795275590551181
        },
        {
          "duration": 0.43198483333333115,
          "durationTicks": 47,
          "midi": 75,
          "name": "D#5",
          "ticks": 17761,
          "time": 163.24431116666668,
          "velocity": 0.7795275590551181
        },
        {
          "duration": 0.44117599999998447,
          "durationTicks": 48,
          "midi": 85,
          "name": "C#6",
          "ticks": 17808,
          "time": 163.676296,
          "velocity": 0.7795275590551181
        },
        {
          "duration": 0.43198483333330273,
          "durationTicks": 47,
          "midi": 73,
          "name": "C#5",
          "ticks": 17809,
          "time": 163.6854871666667,
          "velocity": 0.7795275590551181
        },
        {
          "duration": 0.07352933333334022,
          "durationTicks": 8,
          "midi": 82,
          "name": "A#5",
          "ticks": 17856,
          "time": 164.117472,
          "velocity": 0.84251968503937
        },
        {
          "duration": 0.07352933333336864,
          "durationTicks": 8,
          "midi": 84,
          "name": "C6",
          "ticks": 17864,
          "time": 164.19100133333333,
          "velocity": 0.84251968503937
        },
        {
          "duration": 0.0735293333333118,
          "durationTicks": 8,
          "midi": 85,
          "name": "C#6",
          "ticks": 17872,
          "time": 164.2645306666667,
          "velocity": 0.84251968503937
        },
        {
          "duration": 0.07352933333334022,
          "durationTicks": 8,
          "midi": 87,
          "name": "D#6",
          "ticks": 17880,
          "time": 164.33806,
          "velocity": 0.84251968503937
        },
        {
          "duration": 0.07352933333334022,
          "durationTicks": 8,
          "midi": 89,
          "name": "F6",
          "ticks": 17888,
          "time": 164.41158933333335,
          "velocity": 0.84251968503937
        },
        {
          "duration": 0.0735293333333118,
          "durationTicks": 8,
          "midi": 90,
          "name": "F#6",
          "ticks": 17896,
          "time": 164.4851186666667,
          "velocity": 0.84251968503937
        },
        {
          "duration": 0.4411760000000129,
          "durationTicks": 48,
          "midi": 92,
          "name": "G#6",
          "ticks": 17904,
          "time": 164.558648,
          "velocity": 0.7795275590551181
        },
        {
          "duration": 0.4411760000000129,
          "durationTicks": 48,
          "midi": 80,
          "name": "G#5",
          "ticks": 17904,
          "time": 164.558648,
          "velocity": 0.7795275590551181
        },
        {
          "duration": 0.8823519999999974,
          "durationTicks": 96,
          "midi": 65,
          "name": "F4",
          "ticks": 17904,
          "time": 164.558648,
          "velocity": 0.7795275590551181
        },
        {
          "duration": 0.8731608333333156,
          "durationTicks": 95,
          "midi": 61,
          "name": "C#4",
          "ticks": 17905,
          "time": 164.5678391666667,
          "velocity": 0.7795275590551181
        },
        {
          "duration": 0.8731608333333156,
          "durationTicks": 95,
          "midi": 56,
          "name": "G#3",
          "ticks": 17905,
          "time": 164.5678391666667,
          "velocity": 0.7795275590551181
        },
        {
          "duration": 0.43198483333333115,
          "durationTicks": 47,
          "midi": 90,
          "name": "F#6",
          "ticks": 17952,
          "time": 164.99982400000002,
          "velocity": 0.7795275590551181
        },
        {
          "duration": 0.4227936666666494,
          "durationTicks": 46,
          "midi": 78,
          "name": "F#5",
          "ticks": 17953,
          "time": 165.0090151666667,
          "velocity": 0.7795275590551181
        },
        {
          "duration": 0.21139683333333892,
          "durationTicks": 23,
          "midi": 87,
          "name": "D#6",
          "ticks": 18000,
          "time": 165.441,
          "velocity": 0.7795275590551181
        },
        {
          "duration": 0.21139683333333892,
          "durationTicks": 23,
          "midi": 75,
          "name": "D#5",
          "ticks": 18000,
          "time": 165.441,
          "velocity": 0.7795275590551181
        },
        {
          "duration": 0.8823519999999974,
          "durationTicks": 96,
          "midi": 63,
          "name": "D#4",
          "ticks": 18000,
          "time": 165.441,
          "velocity": 0.7795275590551181
        },
        {
          "duration": 0.8731608333333156,
          "durationTicks": 95,
          "midi": 60,
          "name": "C4",
          "ticks": 18001,
          "time": 165.45019116666668,
          "velocity": 0.7795275590551181
        },
        {
          "duration": 0.8731608333333156,
          "durationTicks": 95,
          "midi": 57,
          "name": "A3",
          "ticks": 18001,
          "time": 165.45019116666668,
          "velocity": 0.7795275590551181
        },
        {
          "duration": 0.22058800000002066,
          "durationTicks": 24,
          "midi": 89,
          "name": "F6",
          "ticks": 18024,
          "time": 165.661588,
          "velocity": 0.7795275590551181
        },
        {
          "duration": 0.21139683333333892,
          "durationTicks": 23,
          "midi": 77,
          "name": "F5",
          "ticks": 18025,
          "time": 165.67077916666668,
          "velocity": 0.7795275590551181
        },
        {
          "duration": 0.22058799999999223,
          "durationTicks": 24,
          "midi": 84,
          "name": "C6",
          "ticks": 18048,
          "time": 165.88217600000002,
          "velocity": 0.7795275590551181
        },
        {
          "duration": 0.2113968333333105,
          "durationTicks": 23,
          "midi": 72,
          "name": "C5",
          "ticks": 18049,
          "time": 165.8913671666667,
          "velocity": 0.7795275590551181
        },
        {
          "duration": 0.22058799999999223,
          "durationTicks": 24,
          "midi": 87,
          "name": "D#6",
          "ticks": 18072,
          "time": 166.102764,
          "velocity": 0.7795275590551181
        },
        {
          "duration": 0.2113968333333105,
          "durationTicks": 23,
          "midi": 75,
          "name": "D#5",
          "ticks": 18073,
          "time": 166.1119551666667,
          "velocity": 0.7795275590551181
        },
        {
          "duration": 2.2058800000000076,
          "durationTicks": 240,
          "midi": 85,
          "name": "C#6",
          "ticks": 18096,
          "time": 166.323352,
          "velocity": 0.7795275590551181
        },
        {
          "duration": 2.1966888333333543,
          "durationTicks": 239,
          "midi": 73,
          "name": "C#5",
          "ticks": 18096,
          "time": 166.323352,
          "velocity": 0.7795275590551181
        },
        {
          "duration": 1.7463216666666597,
          "durationTicks": 190,
          "midi": 68,
          "name": "G#4",
          "ticks": 18097,
          "time": 166.33254316666668,
          "velocity": 0.7795275590551181
        },
        {
          "duration": 1.7463216666666597,
          "durationTicks": 190,
          "midi": 54,
          "name": "F#3",
          "ticks": 18097,
          "time": 166.33254316666668,
          "velocity": 0.7795275590551181
        },
        {
          "duration": 1.7463216666666597,
          "durationTicks": 190,
          "midi": 58,
          "name": "A#3",
          "ticks": 18097,
          "time": 166.33254316666668,
          "velocity": 0.7795275590551181
        },
        {
          "duration": 1.7463216666666597,
          "durationTicks": 190,
          "midi": 68,
          "name": "G#4",
          "ticks": 18289,
          "time": 168.09724716666668,
          "velocity": 0.7795275590551181
        },
        {
          "duration": 1.7463216666666597,
          "durationTicks": 190,
          "midi": 51,
          "name": "D#3",
          "ticks": 18289,
          "time": 168.09724716666668,
          "velocity": 0.7795275590551181
        },
        {
          "duration": 1.7463216666666597,
          "durationTicks": 190,
          "midi": 60,
          "name": "C4",
          "ticks": 18289,
          "time": 168.09724716666668,
          "velocity": 0.7795275590551181
        },
        {
          "duration": 0.873160833333344,
          "durationTicks": 95,
          "midi": 84,
          "name": "C6",
          "ticks": 18336,
          "time": 168.529232,
          "velocity": 0.7795275590551181
        },
        {
          "duration": 0.8639696666666623,
          "durationTicks": 94,
          "midi": 72,
          "name": "C5",
          "ticks": 18337,
          "time": 168.5384231666667,
          "velocity": 0.7795275590551181
        },
        {
          "duration": 0.4411760000000129,
          "durationTicks": 48,
          "midi": 87,
          "name": "D#6",
          "ticks": 18432,
          "time": 169.411584,
          "velocity": 0.7795275590551181
        },
        {
          "duration": 0.43198483333333115,
          "durationTicks": 47,
          "midi": 75,
          "name": "D#5",
          "ticks": 18433,
          "time": 169.4207751666667,
          "velocity": 0.7795275590551181
        },
        {
          "duration": 0.6525728333333234,
          "durationTicks": 71,
          "midi": 84,
          "name": "C6",
          "ticks": 18480,
          "time": 169.85276000000002,
          "velocity": 0.7795275590551181
        },
        {
          "duration": 0.6525728333333234,
          "durationTicks": 71,
          "midi": 72,
          "name": "C5",
          "ticks": 18480,
          "time": 169.85276000000002,
          "velocity": 0.7795275590551181
        },
        {
          "duration": 0.6433816666666416,
          "durationTicks": 70,
          "midi": 68,
          "name": "G#4",
          "ticks": 18481,
          "time": 169.8619511666667,
          "velocity": 0.7795275590551181
        },
        {
          "duration": 1.7463216666666597,
          "durationTicks": 190,
          "midi": 53,
          "name": "F3",
          "ticks": 18481,
          "time": 169.8619511666667,
          "velocity": 0.7795275590551181
        },
        {
          "duration": 1.7463216666666597,
          "durationTicks": 190,
          "midi": 61,
          "name": "C#4",
          "ticks": 18481,
          "time": 169.8619511666667,
          "velocity": 0.7795275590551181
        },
        {
          "duration": 0.6433816666666985,
          "durationTicks": 70,
          "midi": 80,
          "name": "G#5",
          "ticks": 18552,
          "time": 170.514524,
          "velocity": 0.7795275590551181
        },
        {
          "duration": 0.6433816666666701,
          "durationTicks": 70,
          "midi": 68,
          "name": "G#4",
          "ticks": 18553,
          "time": 170.52371516666668,
          "velocity": 0.7795275590551181
        },
        {
          "duration": 0.22058799999999223,
          "durationTicks": 24,
          "midi": 84,
          "name": "C6",
          "ticks": 18624,
          "time": 171.176288,
          "velocity": 0.7795275590551181
        },
        {
          "duration": 0.2113968333333105,
          "durationTicks": 23,
          "midi": 72,
          "name": "C5",
          "ticks": 18625,
          "time": 171.18547916666668,
          "velocity": 0.7795275590551181
        },
        {
          "duration": 0.873160833333344,
          "durationTicks": 95,
          "midi": 87,
          "name": "D#6",
          "ticks": 18648,
          "time": 171.396876,
          "velocity": 0.7795275590551181
        },
        {
          "duration": 0.8639696666666339,
          "durationTicks": 94,
          "midi": 75,
          "name": "D#5",
          "ticks": 18649,
          "time": 171.4060671666667,
          "velocity": 0.7795275590551181
        },
        {
          "duration": 0.6433816666666416,
          "durationTicks": 70,
          "midi": 68,
          "name": "G#4",
          "ticks": 18673,
          "time": 171.6266551666667,
          "velocity": 0.7795275590551181
        },
        {
          "duration": 0.6525728333333234,
          "durationTicks": 71,
          "midi": 53,
          "name": "F3",
          "ticks": 18673,
          "time": 171.6266551666667,
          "velocity": 0.7795275590551181
        },
        {
          "duration": 0.6525728333333234,
          "durationTicks": 71,
          "midi": 60,
          "name": "C4",
          "ticks": 18673,
          "time": 171.6266551666667,
          "velocity": 0.7795275590551181
        },
        {
          "duration": 1.084557666666683,
          "durationTicks": 118,
          "midi": 85,
          "name": "C#6",
          "ticks": 18744,
          "time": 172.27922800000002,
          "velocity": 0.7795275590551181
        },
        {
          "duration": 1.084557666666683,
          "durationTicks": 118,
          "midi": 73,
          "name": "C#5",
          "ticks": 18744,
          "time": 172.27922800000002,
          "velocity": 0.7795275590551181
        },
        {
          "duration": 1.0753665000000012,
          "durationTicks": 117,
          "midi": 68,
          "name": "G#4",
          "ticks": 18745,
          "time": 172.2884191666667,
          "velocity": 0.7795275590551181
        },
        {
          "duration": 1.0661753333333195,
          "durationTicks": 116,
          "midi": 53,
          "name": "F3",
          "ticks": 18745,
          "time": 172.2884191666667,
          "velocity": 0.7795275590551181
        },
        {
          "duration": 1.0661753333333195,
          "durationTicks": 116,
          "midi": 58,
          "name": "A#3",
          "ticks": 18745,
          "time": 172.2884191666667,
          "velocity": 0.7795275590551181
        },
        {
          "duration": 1.7922775000000115,
          "durationTicks": 195,
          "midi": 85,
          "name": "C#6",
          "ticks": 18864,
          "time": 173.382168,
          "velocity": 0.7795275590551181
        },
        {
          "duration": 1.7922775000000115,
          "durationTicks": 195,
          "midi": 73,
          "name": "C#5",
          "ticks": 18864,
          "time": 173.382168,
          "velocity": 0.7795275590551181
        },
        {
          "duration": 1.7463216666666597,
          "durationTicks": 190,
          "midi": 68,
          "name": "G#4",
          "ticks": 18865,
          "time": 173.3913591666667,
          "velocity": 0.7795275590551181
        },
        {
          "duration": 1.7463216666666597,
          "durationTicks": 190,
          "midi": 54,
          "name": "F#3",
          "ticks": 18865,
          "time": 173.3913591666667,
          "velocity": 0.7795275590551181
        },
        {
          "duration": 1.7463216666666597,
          "durationTicks": 190,
          "midi": 58,
          "name": "A#3",
          "ticks": 18865,
          "time": 173.3913591666667,
          "velocity": 0.7795275590551181
        },
        {
          "duration": 0.873160833333344,
          "durationTicks": 95,
          "midi": 84,
          "name": "C6",
          "ticks": 19056,
          "time": 175.146872,
          "velocity": 0.7795275590551181
        },
        {
          "duration": 0.873160833333344,
          "durationTicks": 95,
          "midi": 72,
          "name": "C5",
          "ticks": 19056,
          "time": 175.146872,
          "velocity": 0.7795275590551181
        },
        {
          "duration": 1.7463216666666597,
          "durationTicks": 190,
          "midi": 69,
          "name": "A4",
          "ticks": 19057,
          "time": 175.15606316666668,
          "velocity": 0.7795275590551181
        },
        {
          "duration": 1.7463216666666597,
          "durationTicks": 190,
          "midi": 53,
          "name": "F3",
          "ticks": 19057,
          "time": 175.15606316666668,
          "velocity": 0.7795275590551181
        },
        {
          "duration": 1.7463216666666597,
          "durationTicks": 190,
          "midi": 63,
          "name": "D#4",
          "ticks": 19057,
          "time": 175.15606316666668,
          "velocity": 0.7795275590551181
        },
        {
          "duration": 0.873160833333344,
          "durationTicks": 95,
          "midi": 87,
          "name": "D#6",
          "ticks": 19152,
          "time": 176.029224,
          "velocity": 0.7795275590551181
        },
        {
          "duration": 0.8731608333333156,
          "durationTicks": 95,
          "midi": 75,
          "name": "D#5",
          "ticks": 19153,
          "time": 176.03841516666668,
          "velocity": 0.7795275590551181
        },
        {
          "duration": 0.6341905000000168,
          "durationTicks": 69,
          "midi": 87,
          "name": "D#6",
          "ticks": 19248,
          "time": 176.911576,
          "velocity": 0.7795275590551181
        },
        {
          "duration": 0.6249993333333634,
          "durationTicks": 68,
          "midi": 75,
          "name": "D#5",
          "ticks": 19248,
          "time": 176.911576,
          "velocity": 0.7795275590551181
        },
        {
          "duration": 1.7463216666666597,
          "durationTicks": 190,
          "midi": 68,
          "name": "G#4",
          "ticks": 19249,
          "time": 176.92076716666668,
          "velocity": 0.7795275590551181
        },
        {
          "duration": 1.7463216666666597,
          "durationTicks": 190,
          "midi": 53,
          "name": "F3",
          "ticks": 19249,
          "time": 176.92076716666668,
          "velocity": 0.7795275590551181
        },
        {
          "duration": 0.8823519999999974,
          "durationTicks": 96,
          "midi": 61,
          "name": "C#4",
          "ticks": 19249,
          "time": 176.92076716666668,
          "velocity": 0.7795275590551181
        },
        {
          "duration": 0.21139683333333892,
          "durationTicks": 23,
          "midi": 87,
          "name": "D#6",
          "ticks": 19320,
          "time": 177.57334,
          "velocity": 0.7795275590551181
        },
        {
          "duration": 0.20220566666665718,
          "durationTicks": 22,
          "midi": 75,
          "name": "D#5",
          "ticks": 19321,
          "time": 177.58253116666668,
          "velocity": 0.7795275590551181
        },
        {
          "duration": 0.854778500000009,
          "durationTicks": 93,
          "midi": 60,
          "name": "C4",
          "ticks": 19344,
          "time": 177.793928,
          "velocity": 0.7795275590551181
        },
        {
          "duration": 0.6525728333333518,
          "durationTicks": 71,
          "midi": 89,
          "name": "F6",
          "ticks": 19344,
          "time": 177.793928,
          "velocity": 0.7795275590551181
        },
        {
          "duration": 0.6433816666666701,
          "durationTicks": 70,
          "midi": 77,
          "name": "F5",
          "ticks": 19345,
          "time": 177.80311916666668,
          "velocity": 0.7795275590551181
        },
        {
          "duration": 0.22058799999999223,
          "durationTicks": 24,
          "midi": 92,
          "name": "G#6",
          "ticks": 19416,
          "time": 178.455692,
          "velocity": 0.7795275590551181
        },
        {
          "duration": 0.2113968333333105,
          "durationTicks": 23,
          "midi": 80,
          "name": "G#5",
          "ticks": 19417,
          "time": 178.46488316666668,
          "velocity": 0.7795275590551181
        },
        {
          "duration": 0.873160833333344,
          "durationTicks": 95,
          "midi": 90,
          "name": "F#6",
          "ticks": 19440,
          "time": 178.67628,
          "velocity": 0.7795275590551181
        },
        {
          "duration": 0.873160833333344,
          "durationTicks": 95,
          "midi": 78,
          "name": "F#5",
          "ticks": 19440,
          "time": 178.67628,
          "velocity": 0.7795275590551181
        },
        {
          "duration": 1.7463216666666312,
          "durationTicks": 190,
          "midi": 68,
          "name": "G#4",
          "ticks": 19441,
          "time": 178.6854711666667,
          "velocity": 0.7795275590551181
        },
        {
          "duration": 1.7463216666666312,
          "durationTicks": 190,
          "midi": 53,
          "name": "F3",
          "ticks": 19441,
          "time": 178.6854711666667,
          "velocity": 0.7795275590551181
        },
        {
          "duration": 0.8639696666666339,
          "durationTicks": 94,
          "midi": 60,
          "name": "C4",
          "ticks": 19441,
          "time": 178.6854711666667,
          "velocity": 0.7795275590551181
        },
        {
          "duration": 0.22058799999999223,
          "durationTicks": 24,
          "midi": 89,
          "name": "F6",
          "ticks": 19536,
          "time": 179.55863200000002,
          "velocity": 0.7795275590551181
        },
        {
          "duration": 0.21139683333333892,
          "durationTicks": 23,
          "midi": 77,
          "name": "F5",
          "ticks": 19536,
          "time": 179.55863200000002,
          "velocity": 0.7795275590551181
        },
        {
          "duration": 0.8639696666666339,
          "durationTicks": 94,
          "midi": 61,
          "name": "C#4",
          "ticks": 19537,
          "time": 179.5678231666667,
          "velocity": 0.7795275590551181
        },
        {
          "duration": 0.22058799999999223,
          "durationTicks": 24,
          "midi": 85,
          "name": "C#6",
          "ticks": 19560,
          "time": 179.77922,
          "velocity": 0.7795275590551181
        },
        {
          "duration": 0.2113968333333105,
          "durationTicks": 23,
          "midi": 73,
          "name": "C#5",
          "ticks": 19561,
          "time": 179.7884111666667,
          "velocity": 0.7795275590551181
        },
        {
          "duration": 0.43198483333333115,
          "durationTicks": 47,
          "midi": 80,
          "name": "G#5",
          "ticks": 19584,
          "time": 179.999808,
          "velocity": 0.7795275590551181
        },
        {
          "duration": 2.205879999999979,
          "durationTicks": 240,
          "midi": 85,
          "name": "C#6",
          "ticks": 19632,
          "time": 180.44098400000001,
          "velocity": 0.7795275590551181
        },
        {
          "duration": 2.196688833333326,
          "durationTicks": 239,
          "midi": 73,
          "name": "C#5",
          "ticks": 19632,
          "time": 180.44098400000001,
          "velocity": 0.7795275590551181
        },
        {
          "duration": 1.7463216666666597,
          "durationTicks": 190,
          "midi": 68,
          "name": "G#4",
          "ticks": 19633,
          "time": 180.4501751666667,
          "velocity": 0.7795275590551181
        },
        {
          "duration": 1.7463216666666597,
          "durationTicks": 190,
          "midi": 54,
          "name": "F#3",
          "ticks": 19633,
          "time": 180.4501751666667,
          "velocity": 0.7795275590551181
        },
        {
          "duration": 1.7463216666666597,
          "durationTicks": 190,
          "midi": 58,
          "name": "A#3",
          "ticks": 19633,
          "time": 180.4501751666667,
          "velocity": 0.7795275590551181
        },
        {
          "duration": 1.7463216666666597,
          "durationTicks": 190,
          "midi": 68,
          "name": "G#4",
          "ticks": 19825,
          "time": 182.2148791666667,
          "velocity": 0.7795275590551181
        },
        {
          "duration": 1.7463216666666597,
          "durationTicks": 190,
          "midi": 51,
          "name": "D#3",
          "ticks": 19825,
          "time": 182.2148791666667,
          "velocity": 0.7795275590551181
        },
        {
          "duration": 1.7463216666666597,
          "durationTicks": 190,
          "midi": 60,
          "name": "C4",
          "ticks": 19825,
          "time": 182.2148791666667,
          "velocity": 0.7795275590551181
        },
        {
          "duration": 0.873160833333344,
          "durationTicks": 95,
          "midi": 84,
          "name": "C6",
          "ticks": 19872,
          "time": 182.646864,
          "velocity": 0.7795275590551181
        },
        {
          "duration": 0.8639696666666623,
          "durationTicks": 94,
          "midi": 72,
          "name": "C5",
          "ticks": 19873,
          "time": 182.65605516666668,
          "velocity": 0.7795275590551181
        },
        {
          "duration": 0.4411760000000129,
          "durationTicks": 48,
          "midi": 87,
          "name": "D#6",
          "ticks": 19968,
          "time": 183.529216,
          "velocity": 0.7795275590551181
        },
        {
          "duration": 0.43198483333330273,
          "durationTicks": 47,
          "midi": 75,
          "name": "D#5",
          "ticks": 19969,
          "time": 183.5384071666667,
          "velocity": 0.7795275590551181
        },
        {
          "duration": 0.6525728333333518,
          "durationTicks": 71,
          "midi": 84,
          "name": "C6",
          "ticks": 20016,
          "time": 183.970392,
          "velocity": 0.7795275590551181
        },
        {
          "duration": 0.6525728333333518,
          "durationTicks": 71,
          "midi": 72,
          "name": "C5",
          "ticks": 20016,
          "time": 183.970392,
          "velocity": 0.7795275590551181
        },
        {
          "duration": 0.6433816666666701,
          "durationTicks": 70,
          "midi": 68,
          "name": "G#4",
          "ticks": 20017,
          "time": 183.97958316666669,
          "velocity": 0.7795275590551181
        },
        {
          "duration": 1.7463216666666597,
          "durationTicks": 190,
          "midi": 53,
          "name": "F3",
          "ticks": 20017,
          "time": 183.97958316666669,
          "velocity": 0.7795275590551181
        },
        {
          "duration": 1.7463216666666597,
          "durationTicks": 190,
          "midi": 61,
          "name": "C#4",
          "ticks": 20017,
          "time": 183.97958316666669,
          "velocity": 0.7795275590551181
        },
        {
          "duration": 0.6433816666666701,
          "durationTicks": 70,
          "midi": 80,
          "name": "G#5",
          "ticks": 20088,
          "time": 184.632156,
          "velocity": 0.7795275590551181
        },
        {
          "duration": 0.6433816666666701,
          "durationTicks": 70,
          "midi": 68,
          "name": "G#4",
          "ticks": 20089,
          "time": 184.6413471666667,
          "velocity": 0.7795275590551181
        },
        {
          "duration": 0.22058799999999223,
          "durationTicks": 24,
          "midi": 84,
          "name": "C6",
          "ticks": 20160,
          "time": 185.29392,
          "velocity": 0.7795275590551181
        },
        {
          "duration": 0.2113968333333105,
          "durationTicks": 23,
          "midi": 72,
          "name": "C5",
          "ticks": 20161,
          "time": 185.3031111666667,
          "velocity": 0.7795275590551181
        },
        {
          "duration": 0.873160833333344,
          "durationTicks": 95,
          "midi": 87,
          "name": "D#6",
          "ticks": 20184,
          "time": 185.514508,
          "velocity": 0.7795275590551181
        },
        {
          "duration": 0.8639696666666623,
          "durationTicks": 94,
          "midi": 75,
          "name": "D#5",
          "ticks": 20185,
          "time": 185.5236991666667,
          "velocity": 0.7795275590551181
        },
        {
          "duration": 0.6433816666666701,
          "durationTicks": 70,
          "midi": 68,
          "name": "G#4",
          "ticks": 20209,
          "time": 185.74428716666668,
          "velocity": 0.7795275590551181
        },
        {
          "duration": 0.6525728333333234,
          "durationTicks": 71,
          "midi": 53,
          "name": "F3",
          "ticks": 20209,
          "time": 185.74428716666668,
          "velocity": 0.7795275590551181
        },
        {
          "duration": 0.6525728333333234,
          "durationTicks": 71,
          "midi": 60,
          "name": "C4",
          "ticks": 20209,
          "time": 185.74428716666668,
          "velocity": 0.7795275590551181
        },
        {
          "duration": 0.29411733333333245,
          "durationTicks": 32,
          "midi": 86,
          "name": "D6",
          "ticks": 20280,
          "time": 186.39686,
          "velocity": 0.7795275590551181
        },
        {
          "duration": 0.29411733333333245,
          "durationTicks": 32,
          "midi": 74,
          "name": "D5",
          "ticks": 20280,
          "time": 186.39686,
          "velocity": 0.7795275590551181
        },
        {
          "duration": 1.0753665000000012,
          "durationTicks": 117,
          "midi": 68,
          "name": "G#4",
          "ticks": 20281,
          "time": 186.40605116666669,
          "velocity": 0.7795275590551181
        },
        {
          "duration": 1.0661753333333195,
          "durationTicks": 116,
          "midi": 53,
          "name": "F3",
          "ticks": 20281,
          "time": 186.40605116666669,
          "velocity": 0.7795275590551181
        },
        {
          "duration": 1.0661753333333195,
          "durationTicks": 116,
          "midi": 58,
          "name": "A#3",
          "ticks": 20281,
          "time": 186.40605116666669,
          "velocity": 0.7795275590551181
        },
        {
          "duration": 0.6433816666666701,
          "durationTicks": 70,
          "midi": 86,
          "name": "D6",
          "ticks": 20328,
          "time": 186.83803600000002,
          "velocity": 0.8110236220472441
        },
        {
          "duration": 0.6341904999999883,
          "durationTicks": 69,
          "midi": 74,
          "name": "D5",
          "ticks": 20329,
          "time": 186.8472271666667,
          "velocity": 0.8031496062992126
        },
        {
          "duration": 0.873160833333344,
          "durationTicks": 95,
          "midi": 77,
          "name": "F5",
          "ticks": 20400,
          "time": 187.4998,
          "velocity": 0.7795275590551181
        },
        {
          "duration": 0.8639696666666907,
          "durationTicks": 94,
          "midi": 65,
          "name": "F4",
          "ticks": 20400,
          "time": 187.4998,
          "velocity": 0.7795275590551181
        },
        {
          "duration": 0.873160833333344,
          "durationTicks": 95,
          "midi": 70,
          "name": "A#4",
          "ticks": 20401,
          "time": 187.50899116666668,
          "velocity": 0.7795275590551181
        },
        {
          "duration": 1.7371305000000064,
          "durationTicks": 189,
          "midi": 54,
          "name": "F#3",
          "ticks": 20401,
          "time": 187.50899116666668,
          "velocity": 0.7795275590551181
        },
        {
          "duration": 1.7371305000000064,
          "durationTicks": 189,
          "midi": 61,
          "name": "C#4",
          "ticks": 20401,
          "time": 187.50899116666668,
          "velocity": 0.7795275590551181
        },
        {
          "duration": 0.43198483333333115,
          "durationTicks": 47,
          "midi": 82,
          "name": "A#5",
          "ticks": 20496,
          "time": 188.38215200000002,
          "velocity": 0.7795275590551181
        },
        {
          "duration": 0.4227936666666494,
          "durationTicks": 46,
          "midi": 70,
          "name": "A#4",
          "ticks": 20497,
          "time": 188.3913431666667,
          "velocity": 0.7795275590551181
        },
        {
          "duration": 0.43198483333333115,
          "durationTicks": 47,
          "midi": 85,
          "name": "C#6",
          "ticks": 20544,
          "time": 188.823328,
          "velocity": 0.7795275590551181
        },
        {
          "duration": 0.4227936666666494,
          "durationTicks": 46,
          "midi": 73,
          "name": "C#5",
          "ticks": 20545,
          "time": 188.83251916666669,
          "velocity": 0.7795275590551181
        },
        {
          "duration": 0.44117599999998447,
          "durationTicks": 48,
          "midi": 84,
          "name": "C6",
          "ticks": 20592,
          "time": 189.26450400000002,
          "velocity": 0.7795275590551181
        },
        {
          "duration": 0.43198483333333115,
          "durationTicks": 47,
          "midi": 72,
          "name": "C5",
          "ticks": 20592,
          "time": 189.26450400000002,
          "velocity": 0.7795275590551181
        },
        {
          "duration": 0.8731608333333156,
          "durationTicks": 95,
          "midi": 60,
          "name": "C4",
          "ticks": 20593,
          "time": 189.2736951666667,
          "velocity": 0.7795275590551181
        },
        {
          "duration": 1.737130499999978,
          "durationTicks": 189,
          "midi": 63,
          "name": "D#4",
          "ticks": 20593,
          "time": 189.2736951666667,
          "velocity": 0.7795275590551181
        },
        {
          "duration": 1.737130499999978,
          "durationTicks": 189,
          "midi": 56,
          "name": "G#3",
          "ticks": 20593,
          "time": 189.2736951666667,
          "velocity": 0.7795275590551181
        },
        {
          "duration": 0.4319848333333596,
          "durationTicks": 47,
          "midi": 80,
          "name": "G#5",
          "ticks": 20640,
          "time": 189.70568,
          "velocity": 0.7795275590551181
        },
        {
          "duration": 0.42279366666667784,
          "durationTicks": 46,
          "midi": 68,
          "name": "G#4",
          "ticks": 20641,
          "time": 189.71487116666668,
          "velocity": 0.7795275590551181
        },
        {
          "duration": 0.22058799999999223,
          "durationTicks": 24,
          "midi": 85,
          "name": "C#6",
          "ticks": 20688,
          "time": 190.146856,
          "velocity": 0.7795275590551181
        },
        {
          "duration": 0.2113968333333105,
          "durationTicks": 23,
          "midi": 73,
          "name": "C#5",
          "ticks": 20689,
          "time": 190.1560471666667,
          "velocity": 0.7795275590551181
        },
        {
          "duration": 0.6525728333333518,
          "durationTicks": 71,
          "midi": 87,
          "name": "D#6",
          "ticks": 20712,
          "time": 190.367444,
          "velocity": 0.7795275590551181
        },
        {
          "duration": 0.6525728333333234,
          "durationTicks": 71,
          "midi": 75,
          "name": "D#5",
          "ticks": 20713,
          "time": 190.3766351666667,
          "velocity": 0.7795275590551181
        },
        {
          "duration": 1.746321666666688,
          "durationTicks": 190,
          "midi": 89,
          "name": "F6",
          "ticks": 20784,
          "time": 191.029208,
          "velocity": 0.7795275590551181
        },
        {
          "duration": 1.746321666666688,
          "durationTicks": 190,
          "midi": 77,
          "name": "F5",
          "ticks": 20784,
          "time": 191.029208,
          "velocity": 0.7795275590551181
        },
        {
          "duration": 1.746321666666688,
          "durationTicks": 190,
          "midi": 68,
          "name": "G#4",
          "ticks": 20784,
          "time": 191.029208,
          "velocity": 0.7795275590551181
        },
        {
          "duration": 1.746321666666688,
          "durationTicks": 190,
          "midi": 53,
          "name": "F3",
          "ticks": 20784,
          "time": 191.029208,
          "velocity": 0.7795275590551181
        },
        {
          "duration": 0.8731608333333156,
          "durationTicks": 95,
          "midi": 61,
          "name": "C#4",
          "ticks": 20785,
          "time": 191.0383991666667,
          "velocity": 0.7795275590551181
        },
        {
          "duration": 0.8639696666666907,
          "durationTicks": 94,
          "midi": 60,
          "name": "C4",
          "ticks": 20880,
          "time": 191.91156,
          "velocity": 0.7795275590551181
        },
        {
          "duration": 0.43198483333333115,
          "durationTicks": 47,
          "midi": 87,
          "name": "D#6",
          "ticks": 20976,
          "time": 192.793912,
          "velocity": 0.7795275590551181
        },
        {
          "duration": 0.43198483333333115,
          "durationTicks": 47,
          "midi": 75,
          "name": "D#5",
          "ticks": 20976,
          "time": 192.793912,
          "velocity": 0.7795275590551181
        },
        {
          "duration": 1.7463216666666597,
          "durationTicks": 190,
          "midi": 68,
          "name": "G#4",
          "ticks": 20977,
          "time": 192.8031031666667,
          "velocity": 0.7795275590551181
        },
        {
          "duration": 1.7463216666666597,
          "durationTicks": 190,
          "midi": 53,
          "name": "F3",
          "ticks": 20977,
          "time": 192.8031031666667,
          "velocity": 0.7795275590551181
        },
        {
          "duration": 0.8731608333333156,
          "durationTicks": 95,
          "midi": 60,
          "name": "C4",
          "ticks": 20977,
          "time": 192.8031031666667,
          "velocity": 0.7795275590551181
        },
        {
          "duration": 0.43198483333333115,
          "durationTicks": 47,
          "midi": 89,
          "name": "F6",
          "ticks": 21024,
          "time": 193.23508800000002,
          "velocity": 0.7795275590551181
        },
        {
          "duration": 0.4227936666666494,
          "durationTicks": 46,
          "midi": 77,
          "name": "F5",
          "ticks": 21025,
          "time": 193.2442791666667,
          "velocity": 0.7795275590551181
        },
        {
          "duration": 0.43198483333333115,
          "durationTicks": 47,
          "midi": 90,
          "name": "F#6",
          "ticks": 21072,
          "time": 193.676264,
          "velocity": 0.7795275590551181
        },
        {
          "duration": 0.42279366666667784,
          "durationTicks": 46,
          "midi": 78,
          "name": "F#5",
          "ticks": 21072,
          "time": 193.676264,
          "velocity": 0.7795275590551181
        },
        {
          "duration": 0.8731608333333156,
          "durationTicks": 95,
          "midi": 61,
          "name": "C#4",
          "ticks": 21073,
          "time": 193.68545516666669,
          "velocity": 0.7795275590551181
        },
        {
          "duration": 0.43198483333333115,
          "durationTicks": 47,
          "midi": 89,
          "name": "F6",
          "ticks": 21120,
          "time": 194.11744000000002,
          "velocity": 0.7795275590551181
        },
        {
          "duration": 0.4227936666666494,
          "durationTicks": 46,
          "midi": 77,
          "name": "F5",
          "ticks": 21121,
          "time": 194.1266311666667,
          "velocity": 0.7795275590551181
        },
        {
          "duration": 1.7555128333333414,
          "durationTicks": 191,
          "midi": 85,
          "name": "C#6",
          "ticks": 21168,
          "time": 194.558616,
          "velocity": 0.7795275590551181
        },
        {
          "duration": 1.746321666666688,
          "durationTicks": 190,
          "midi": 73,
          "name": "C#5",
          "ticks": 21168,
          "time": 194.558616,
          "velocity": 0.7795275590551181
        },
        {
          "duration": 1.7463216666666597,
          "durationTicks": 190,
          "midi": 68,
          "name": "G#4",
          "ticks": 21169,
          "time": 194.56780716666668,
          "velocity": 0.7795275590551181
        },
        {
          "duration": 1.7463216666666597,
          "durationTicks": 190,
          "midi": 54,
          "name": "F#3",
          "ticks": 21169,
          "time": 194.56780716666668,
          "velocity": 0.7795275590551181
        },
        {
          "duration": 1.7463216666666597,
          "durationTicks": 190,
          "midi": 58,
          "name": "A#3",
          "ticks": 21169,
          "time": 194.56780716666668,
          "velocity": 0.7795275590551181
        },
        {
          "duration": 0.4411760000000129,
          "durationTicks": 48,
          "midi": 84,
          "name": "C6",
          "ticks": 21360,
          "time": 196.32332,
          "velocity": 0.7795275590551181
        },
        {
          "duration": 0.4319848333333596,
          "durationTicks": 47,
          "midi": 72,
          "name": "C5",
          "ticks": 21360,
          "time": 196.32332,
          "velocity": 0.7795275590551181
        },
        {
          "duration": 0.8731608333333156,
          "durationTicks": 95,
          "midi": 60,
          "name": "C4",
          "ticks": 21361,
          "time": 196.33251116666668,
          "velocity": 0.7795275590551181
        },
        {
          "duration": 1.7371305000000064,
          "durationTicks": 189,
          "midi": 63,
          "name": "D#4",
          "ticks": 21361,
          "time": 196.33251116666668,
          "velocity": 0.7795275590551181
        },
        {
          "duration": 1.7371305000000064,
          "durationTicks": 189,
          "midi": 56,
          "name": "G#3",
          "ticks": 21361,
          "time": 196.33251116666668,
          "velocity": 0.7795275590551181
        },
        {
          "duration": 0.43198483333333115,
          "durationTicks": 47,
          "midi": 80,
          "name": "G#5",
          "ticks": 21408,
          "time": 196.764496,
          "velocity": 0.7795275590551181
        },
        {
          "duration": 0.4227936666666494,
          "durationTicks": 46,
          "midi": 68,
          "name": "G#4",
          "ticks": 21409,
          "time": 196.7736871666667,
          "velocity": 0.7795275590551181
        },
        {
          "duration": 0.22058800000002066,
          "durationTicks": 24,
          "midi": 85,
          "name": "C#6",
          "ticks": 21456,
          "time": 197.205672,
          "velocity": 0.7795275590551181
        },
        {
          "duration": 0.21139683333333892,
          "durationTicks": 23,
          "midi": 73,
          "name": "C#5",
          "ticks": 21457,
          "time": 197.21486316666667,
          "velocity": 0.7795275590551181
        },
        {
          "duration": 0.6525728333333234,
          "durationTicks": 71,
          "midi": 87,
          "name": "D#6",
          "ticks": 21480,
          "time": 197.42626,
          "velocity": 0.7795275590551181
        },
        {
          "duration": 0.6525728333333234,
          "durationTicks": 71,
          "midi": 75,
          "name": "D#5",
          "ticks": 21481,
          "time": 197.4354511666667,
          "velocity": 0.7795275590551181
        },
        {
          "duration": 0.8731608333333156,
          "durationTicks": 95,
          "midi": 89,
          "name": "F6",
          "ticks": 21552,
          "time": 198.08802400000002,
          "velocity": 0.7795275590551181
        },
        {
          "duration": 0.8731608333333156,
          "durationTicks": 95,
          "midi": 77,
          "name": "F5",
          "ticks": 21552,
          "time": 198.08802400000002,
          "velocity": 0.7795275590551181
        },
        {
          "duration": 3.5202168333333077,
          "durationTicks": 383,
          "midi": 68,
          "name": "G#4",
          "ticks": 21553,
          "time": 198.0972151666667,
          "velocity": 0.7795275590551181
        },
        {
          "duration": 3.5202168333333077,
          "durationTicks": 383,
          "midi": 61,
          "name": "C#4",
          "ticks": 21553,
          "time": 198.0972151666667,
          "velocity": 0.7795275590551181
        },
        {
          "duration": 3.5202168333333077,
          "durationTicks": 383,
          "midi": 58,
          "name": "A#3",
          "ticks": 21553,
          "time": 198.0972151666667,
          "velocity": 0.7795275590551181
        },
        {
          "duration": 0.873160833333344,
          "durationTicks": 95,
          "midi": 90,
          "name": "F#6",
          "ticks": 21648,
          "time": 198.97037600000002,
          "velocity": 0.7795275590551181
        },
        {
          "duration": 0.8639696666666623,
          "durationTicks": 94,
          "midi": 78,
          "name": "F#5",
          "ticks": 21649,
          "time": 198.9795671666667,
          "velocity": 0.7795275590551181
        },
        {
          "duration": 0.873160833333344,
          "durationTicks": 95,
          "midi": 92,
          "name": "G#6",
          "ticks": 21744,
          "time": 199.852728,
          "velocity": 0.7795275590551181
        },
        {
          "duration": 0.873160833333344,
          "durationTicks": 95,
          "midi": 80,
          "name": "G#5",
          "ticks": 21744,
          "time": 199.852728,
          "velocity": 0.7795275590551181
        },
        {
          "duration": 0.873160833333344,
          "durationTicks": 95,
          "midi": 97,
          "name": "C#7",
          "ticks": 21840,
          "time": 200.73508,
          "velocity": 0.7795275590551181
        },
        {
          "duration": 0.8639696666666623,
          "durationTicks": 94,
          "midi": 85,
          "name": "C#6",
          "ticks": 21841,
          "time": 200.7442711666667,
          "velocity": 0.7795275590551181
        }
      ]
    },
    {
      "channel": 0,
      "controlChanges": {
        "0": [
          {
            "number": 0,
            "ticks": 139,
            "time": 1.2775721666666668,
            "value": 0
          }
        ],
        "32": [
          {
            "number": 32,
            "ticks": 143,
            "time": 1.3143368333333334,
            "value": 0.007874015748031496
          }
        ],
        "121": [
          {
            "number": 121,
            "ticks": 135,
            "time": 1.2408075,
            "value": 0
          }
        ]
      },
      "pitchBends": [],
      "instrument": {
        "family": "piano",
        "number": 0,
        "name": "acoustic grand piano"
      },
      "name": "Guitar L",
      "notes": [],
      "endOfTrackTicks": 22127
    },
    {
      "channel": 6,
      "controlChanges": {
        "6": [
          {
            "number": 6,
            "ticks": 184,
            "time": 1.6911746666666667,
            "value": 0.09448818897637795
          }
        ],
        "7": [
          {
            "number": 7,
            "ticks": 151,
            "time": 1.3878661666666667,
            "value": 0.5590551181102362
          }
        ],
        "10": [
          {
            "number": 10,
            "ticks": 154,
            "time": 1.4154396666666669,
            "value": 0.15748031496062992
          }
        ],
        "11": [
          {
            "number": 11,
            "ticks": 157,
            "time": 1.4430131666666668,
            "value": 0.6141732283464567
          }
        ],
        "71": [
          {
            "number": 71,
            "ticks": 172,
            "time": 1.5808806666666668,
            "value": 0.6771653543307087
          }
        ],
        "72": [
          {
            "number": 72,
            "ticks": 175,
            "time": 1.6084541666666667,
            "value": 0.48031496062992124
          }
        ],
        "74": [
          {
            "number": 74,
            "ticks": 169,
            "time": 1.5533071666666667,
            "value": 0.5511811023622047
          }
        ],
        "91": [
          {
            "number": 91,
            "ticks": 160,
            "time": 1.4705866666666667,
            "value": 0
          }
        ],
        "93": [
          {
            "number": 93,
            "ticks": 163,
            "time": 1.4981601666666668,
            "value": 0
          }
        ],
        "94": [
          {
            "number": 94,
            "ticks": 166,
            "time": 1.5257336666666668,
            "value": 0
          }
        ],
        "100": [
          {
            "number": 100,
            "ticks": 181,
            "time": 1.6636011666666668,
            "value": 0
          }
        ],
        "101": [
          {
            "number": 101,
            "ticks": 178,
            "time": 1.6360276666666669,
            "value": 0
          }
        ]
      },
      "pitchBends": [
        {
          "ticks": 1833,
          "time": 16.8474085,
          "value": 0.083251953125
        },
        {
          "ticks": 1836,
          "time": 16.874982000000003,
          "value": 0.16650390625
        },
        {
          "ticks": 1847,
          "time": 16.976084833333335,
          "value": 0
        },
        {
          "ticks": 1955,
          "time": 17.968730833333336,
          "value": 0.083251953125
        },
        {
          "ticks": 1967,
          "time": 18.079024833333335,
          "value": 0
        },
        {
          "ticks": 2171,
          "time": 19.954022833333333,
          "value": 0.16650390625
        },
        {
          "ticks": 2183,
          "time": 20.064316833333336,
          "value": 0
        },
        {
          "ticks": 2336,
          "time": 21.470565333333337,
          "value": -0.083251953125
        },
        {
          "ticks": 2339,
          "time": 21.498138833333336,
          "value": -0.16650390625
        },
        {
          "ticks": 2351,
          "time": 21.608432833333335,
          "value": 0
        },
        {
          "ticks": 4641,
          "time": 42.6562045,
          "value": -0.005859375
        },
        {
          "ticks": 4644,
          "time": 42.683778,
          "value": -0.01806640625
        },
        {
          "ticks": 4647,
          "time": 42.7113515,
          "value": -0.0302734375
        },
        {
          "ticks": 4650,
          "time": 42.738925,
          "value": -0.04248046875
        },
        {
          "ticks": 4652,
          "time": 42.75730733333334,
          "value": -0.0546875
        },
        {
          "ticks": 4655,
          "time": 42.78488083333333,
          "value": 0
        },
        {
          "ticks": 4799,
          "time": 44.108408833333336,
          "value": -0.16650390625
        },
        {
          "ticks": 4821,
          "time": 44.3106145,
          "value": -0.083251953125
        },
        {
          "ticks": 4823,
          "time": 44.328996833333335,
          "value": 0
        },
        {
          "ticks": 5409,
          "time": 49.7150205,
          "value": -0.005859375
        },
        {
          "ticks": 5412,
          "time": 49.742594,
          "value": -0.01806640625
        },
        {
          "ticks": 5415,
          "time": 49.7701675,
          "value": -0.0302734375
        },
        {
          "ticks": 5418,
          "time": 49.797741,
          "value": -0.04248046875
        },
        {
          "ticks": 5420,
          "time": 49.81612333333334,
          "value": -0.0546875
        },
        {
          "ticks": 5423,
          "time": 49.84369683333333,
          "value": 0
        },
        {
          "ticks": 5567,
          "time": 51.167224833333336,
          "value": -0.16650390625
        },
        {
          "ticks": 5589,
          "time": 51.3694305,
          "value": -0.083251953125
        },
        {
          "ticks": 5591,
          "time": 51.387812833333335,
          "value": 0
        },
        {
          "ticks": 5921,
          "time": 54.420897833333335,
          "value": -0.083251953125
        },
        {
          "ticks": 5922,
          "time": 54.430089,
          "value": -0.16650390625
        },
        {
          "ticks": 5927,
          "time": 54.47604483333333,
          "value": 0
        },
        {
          "ticks": 6359,
          "time": 58.446628833333335,
          "value": -0.16650390625
        },
        {
          "ticks": 6362,
          "time": 58.47420233333334,
          "value": -0.1326904296875
        },
        {
          "ticks": 6364,
          "time": 58.492584666666666,
          "value": -0.098876953125
        },
        {
          "ticks": 6365,
          "time": 58.50177583333333,
          "value": -0.0650634765625
        },
        {
          "ticks": 6366,
          "time": 58.51096700000001,
          "value": -0.03125
        },
        {
          "ticks": 6368,
          "time": 58.529349333333336,
          "value": 0
        },
        {
          "ticks": 7331,
          "time": 67.38044283333333,
          "value": -0.083251953125
        },
        {
          "ticks": 7343,
          "time": 67.49073683333333,
          "value": 0
        },
        {
          "ticks": 8745,
          "time": 80.3767525,
          "value": 0.083251953125
        },
        {
          "ticks": 8748,
          "time": 80.404326,
          "value": 0.16650390625
        },
        {
          "ticks": 8759,
          "time": 80.50542883333333,
          "value": 0
        },
        {
          "ticks": 8867,
          "time": 81.49807483333333,
          "value": 0.083251953125
        },
        {
          "ticks": 8879,
          "time": 81.60836883333333,
          "value": 0
        },
        {
          "ticks": 8915,
          "time": 81.93925083333333,
          "value": 0.083251953125
        },
        {
          "ticks": 8927,
          "time": 82.04954483333333,
          "value": 0
        },
        {
          "ticks": 14369,
          "time": 132.06787383333335,
          "value": -0.083251953125
        },
        {
          "ticks": 14370,
          "time": 132.077065,
          "value": -0.16650390625
        },
        {
          "ticks": 14375,
          "time": 132.12302083333336,
          "value": 0
        },
        {
          "ticks": 14807,
          "time": 136.09360483333336,
          "value": -0.16650390625
        },
        {
          "ticks": 14810,
          "time": 136.12117833333335,
          "value": -0.1326904296875
        },
        {
          "ticks": 14812,
          "time": 136.13956066666668,
          "value": -0.098876953125
        },
        {
          "ticks": 14813,
          "time": 136.14875183333334,
          "value": -0.0650634765625
        },
        {
          "ticks": 14814,
          "time": 136.15794300000002,
          "value": -0.03125
        },
        {
          "ticks": 14816,
          "time": 136.17632533333335,
          "value": 0
        },
        {
          "ticks": 17193,
          "time": 158.0237285,
          "value": 0.083251953125
        },
        {
          "ticks": 17196,
          "time": 158.051302,
          "value": 0.16650390625
        },
        {
          "ticks": 17207,
          "time": 158.15240483333335,
          "value": 0
        },
        {
          "ticks": 17315,
          "time": 159.14505083333336,
          "value": 0.083251953125
        },
        {
          "ticks": 17327,
          "time": 159.25534483333334,
          "value": 0
        },
        {
          "ticks": 17363,
          "time": 159.58622683333334,
          "value": 0.083251953125
        },
        {
          "ticks": 17375,
          "time": 159.69652083333335,
          "value": 0
        },
        {
          "ticks": 17531,
          "time": 161.13034283333334,
          "value": 0.16650390625
        },
        {
          "ticks": 17543,
          "time": 161.24063683333335,
          "value": 0
        },
        {
          "ticks": 18851,
          "time": 173.26268283333334,
          "value": -0.083251953125
        },
        {
          "ticks": 18863,
          "time": 173.37297683333335,
          "value": 0
        },
        {
          "ticks": 20265,
          "time": 186.2589925,
          "value": 0.083251953125
        },
        {
          "ticks": 20268,
          "time": 186.286566,
          "value": 0
        },
        {
          "ticks": 20435,
          "time": 187.82149083333334,
          "value": 0.083251953125
        },
        {
          "ticks": 20447,
          "time": 187.93178483333335,
          "value": 0
        },
        {
          "ticks": 21371,
          "time": 196.42442283333335,
          "value": 0.16650390625
        },
        {
          "ticks": 21383,
          "time": 196.53471683333333,
          "value": 0
        }
      ],
      "instrument": {
        "family": "guitar",
        "number": 26,
        "name": "electric guitar (jazz)"
      },
      "name": "",
      "notes": [
        {
          "duration": 1.755512833333333,
          "durationTicks": 191,
          "midi": 54,
          "name": "F#3",
          "ticks": 431,
          "time": 3.9613928333333335,
          "velocity": 0.7795275590551181
        },
        {
          "duration": 0.441176,
          "durationTicks": 48,
          "midi": 65,
          "name": "F4",
          "ticks": 431,
          "time": 3.9613928333333335,
          "velocity": 0.6141732283464567
        },
        {
          "duration": 0.22058799999999978,
          "durationTicks": 24,
          "midi": 68,
          "name": "G#4",
          "ticks": 431,
          "time": 3.9613928333333335,
          "velocity": 0.6141732283464567
        },
        {
          "duration": 1.755512833333333,
          "durationTicks": 191,
          "midi": 77,
          "name": "F5",
          "ticks": 432,
          "time": 3.970584,
          "velocity": 1
        },
        {
          "duration": 0.882352,
          "durationTicks": 96,
          "midi": 68,
          "name": "G#4",
          "ticks": 455,
          "time": 4.181980833333333,
          "velocity": 1
        },
        {
          "duration": 0.44117600000000046,
          "durationTicks": 48,
          "midi": 65,
          "name": "F4",
          "ticks": 479,
          "time": 4.4025688333333335,
          "velocity": 1
        },
        {
          "duration": 1.764704,
          "durationTicks": 192,
          "midi": 75,
          "name": "D#5",
          "ticks": 503,
          "time": 4.623156833333334,
          "velocity": 1
        },
        {
          "duration": 0.44117599999999957,
          "durationTicks": 48,
          "midi": 65,
          "name": "F4",
          "ticks": 527,
          "time": 4.843744833333334,
          "velocity": 0.6141732283464567
        },
        {
          "duration": 0.882352,
          "durationTicks": 96,
          "midi": 68,
          "name": "G#4",
          "ticks": 551,
          "time": 5.064332833333333,
          "velocity": 1
        },
        {
          "duration": 0.44117599999999957,
          "durationTicks": 48,
          "midi": 65,
          "name": "F4",
          "ticks": 575,
          "time": 5.2849208333333335,
          "velocity": 1
        },
        {
          "duration": 1.764704,
          "durationTicks": 192,
          "midi": 73,
          "name": "C#5",
          "ticks": 599,
          "time": 5.505508833333334,
          "velocity": 1
        },
        {
          "duration": 0.44117600000000046,
          "durationTicks": 48,
          "midi": 65,
          "name": "F4",
          "ticks": 623,
          "time": 5.726096833333333,
          "velocity": 1
        },
        {
          "duration": 1.6544099999999995,
          "durationTicks": 180,
          "midi": 56,
          "name": "G#3",
          "ticks": 624,
          "time": 5.735288000000001,
          "velocity": 0.8031496062992126
        },
        {
          "duration": 0.882352,
          "durationTicks": 96,
          "midi": 68,
          "name": "G#4",
          "ticks": 647,
          "time": 5.946684833333333,
          "velocity": 1
        },
        {
          "duration": 0.44117599999999957,
          "durationTicks": 48,
          "midi": 65,
          "name": "F4",
          "ticks": 671,
          "time": 6.1672728333333335,
          "velocity": 1
        },
        {
          "duration": 0.9926459999999997,
          "durationTicks": 108,
          "midi": 75,
          "name": "D#5",
          "ticks": 695,
          "time": 6.387860833333334,
          "velocity": 1
        },
        {
          "duration": 0.44117600000000046,
          "durationTicks": 48,
          "midi": 65,
          "name": "F4",
          "ticks": 719,
          "time": 6.608448833333333,
          "velocity": 1
        },
        {
          "duration": 0.5514700000000001,
          "durationTicks": 60,
          "midi": 68,
          "name": "G#4",
          "ticks": 743,
          "time": 6.829036833333333,
          "velocity": 1
        },
        {
          "duration": 0.3308819999999999,
          "durationTicks": 36,
          "midi": 65,
          "name": "F4",
          "ticks": 767,
          "time": 7.049624833333334,
          "velocity": 1
        },
        {
          "duration": 0.11029399999999967,
          "durationTicks": 12,
          "midi": 73,
          "name": "C#5",
          "ticks": 791,
          "time": 7.270212833333334,
          "velocity": 0.8110236220472441
        },
        {
          "duration": 0.027573499999999918,
          "durationTicks": 3,
          "midi": 73,
          "name": "C#5",
          "ticks": 803,
          "time": 7.3805068333333335,
          "velocity": 0.7007874015748031
        },
        {
          "duration": 1.7279393333333326,
          "durationTicks": 188,
          "midi": 58,
          "name": "A#3",
          "ticks": 815,
          "time": 7.490800833333334,
          "velocity": 0.7952755905511811
        },
        {
          "duration": 0.22058799999999934,
          "durationTicks": 24,
          "midi": 63,
          "name": "D#4",
          "ticks": 815,
          "time": 7.490800833333334,
          "velocity": 1
        },
        {
          "duration": 1.0937488333333327,
          "durationTicks": 119,
          "midi": 72,
          "name": "C5",
          "ticks": 816,
          "time": 7.499992000000001,
          "velocity": 1
        },
        {
          "duration": 1.1029400000000011,
          "durationTicks": 120,
          "midi": 68,
          "name": "G#4",
          "ticks": 839,
          "time": 7.711388833333333,
          "velocity": 1
        },
        {
          "duration": 1.3051456666666663,
          "durationTicks": 142,
          "midi": 63,
          "name": "D#4",
          "ticks": 863,
          "time": 7.931976833333334,
          "velocity": 1
        },
        {
          "duration": 1.084557666666667,
          "durationTicks": 118,
          "midi": 65,
          "name": "F4",
          "ticks": 887,
          "time": 8.152564833333333,
          "velocity": 0.8661417322834646
        },
        {
          "duration": 0.6433816666666665,
          "durationTicks": 70,
          "midi": 73,
          "name": "C#5",
          "ticks": 935,
          "time": 8.593740833333333,
          "velocity": 1
        },
        {
          "duration": 0.4227936666666654,
          "durationTicks": 46,
          "midi": 68,
          "name": "G#4",
          "ticks": 959,
          "time": 8.814328833333335,
          "velocity": 0.9291338582677166
        },
        {
          "duration": 0.20220566666666606,
          "durationTicks": 22,
          "midi": 75,
          "name": "D#5",
          "ticks": 983,
          "time": 9.034916833333334,
          "velocity": 1
        },
        {
          "duration": 0.22058799999999934,
          "durationTicks": 24,
          "midi": 63,
          "name": "D#4",
          "ticks": 1007,
          "time": 9.255504833333333,
          "velocity": 0.8740157480314961
        },
        {
          "duration": 0.2113968333333318,
          "durationTicks": 23,
          "midi": 68,
          "name": "G#4",
          "ticks": 1008,
          "time": 9.264696,
          "velocity": 1
        },
        {
          "duration": 0.20220566666666784,
          "durationTicks": 22,
          "midi": 63,
          "name": "D#4",
          "ticks": 1031,
          "time": 9.476092833333333,
          "velocity": 0.8740157480314961
        },
        {
          "duration": 0.20220566666666784,
          "durationTicks": 22,
          "midi": 68,
          "name": "G#4",
          "ticks": 1031,
          "time": 9.476092833333333,
          "velocity": 1
        },
        {
          "duration": 0.19301449999999853,
          "durationTicks": 21,
          "midi": 61,
          "name": "C#4",
          "ticks": 1055,
          "time": 9.696680833333334,
          "velocity": 0.9291338582677166
        },
        {
          "duration": 0.18382333333333278,
          "durationTicks": 20,
          "midi": 75,
          "name": "D#5",
          "ticks": 1056,
          "time": 9.705872,
          "velocity": 1
        },
        {
          "duration": 0.2113968333333318,
          "durationTicks": 23,
          "midi": 61,
          "name": "C#4",
          "ticks": 1079,
          "time": 9.917268833333335,
          "velocity": 0.952755905511811
        },
        {
          "duration": 0.2113968333333318,
          "durationTicks": 23,
          "midi": 73,
          "name": "C#5",
          "ticks": 1079,
          "time": 9.917268833333335,
          "velocity": 1
        },
        {
          "duration": 0.4411759999999987,
          "durationTicks": 48,
          "midi": 54,
          "name": "F#3",
          "ticks": 1199,
          "time": 11.020208833333335,
          "velocity": 0.7874015748031497
        },
        {
          "duration": 0.4411759999999987,
          "durationTicks": 48,
          "midi": 61,
          "name": "C#4",
          "ticks": 1199,
          "time": 11.020208833333335,
          "velocity": 0.7795275590551181
        },
        {
          "duration": 0.4411759999999987,
          "durationTicks": 48,
          "midi": 65,
          "name": "F4",
          "ticks": 1199,
          "time": 11.020208833333335,
          "velocity": 0.8976377952755905
        },
        {
          "duration": 0.4319848333333347,
          "durationTicks": 47,
          "midi": 68,
          "name": "G#4",
          "ticks": 1200,
          "time": 11.029399999999999,
          "velocity": 0.7637795275590551
        },
        {
          "duration": 0.4319848333333347,
          "durationTicks": 47,
          "midi": 73,
          "name": "C#5",
          "ticks": 1200,
          "time": 11.029399999999999,
          "velocity": 0.8267716535433071
        },
        {
          "duration": 0.22058799999999934,
          "durationTicks": 24,
          "midi": 68,
          "name": "G#4",
          "ticks": 1247,
          "time": 11.461384833333334,
          "velocity": 0.8661417322834646
        },
        {
          "duration": 0.22058799999999934,
          "durationTicks": 24,
          "midi": 73,
          "name": "C#5",
          "ticks": 1247,
          "time": 11.461384833333334,
          "velocity": 0.7795275590551181
        },
        {
          "duration": 0.2113968333333318,
          "durationTicks": 23,
          "midi": 77,
          "name": "F5",
          "ticks": 1248,
          "time": 11.470576000000001,
          "velocity": 0.8740157480314961
        },
        {
          "duration": 0.018382333333335055,
          "durationTicks": 2,
          "midi": 68,
          "name": "G#4",
          "ticks": 1271,
          "time": 11.681972833333333,
          "velocity": 0.8976377952755905
        },
        {
          "duration": 0.009191166666667527,
          "durationTicks": 1,
          "midi": 73,
          "name": "C#5",
          "ticks": 1272,
          "time": 11.691164,
          "velocity": 0.8740157480314961
        },
        {
          "duration": 0.009191166666667527,
          "durationTicks": 1,
          "midi": 63,
          "name": "D#4",
          "ticks": 1283,
          "time": 11.792266833333333,
          "velocity": 0.8976377952755905
        },
        {
          "duration": 0.2205880000000029,
          "durationTicks": 24,
          "midi": 54,
          "name": "F#3",
          "ticks": 1295,
          "time": 11.902560833333332,
          "velocity": 0.7874015748031497
        },
        {
          "duration": 0.2205880000000029,
          "durationTicks": 24,
          "midi": 61,
          "name": "C#4",
          "ticks": 1295,
          "time": 11.902560833333332,
          "velocity": 0.8110236220472441
        },
        {
          "duration": 0.21139683333333537,
          "durationTicks": 23,
          "midi": 63,
          "name": "D#4",
          "ticks": 1296,
          "time": 11.911752,
          "velocity": 0.8976377952755905
        },
        {
          "duration": 0.21139683333333537,
          "durationTicks": 23,
          "midi": 68,
          "name": "G#4",
          "ticks": 1296,
          "time": 11.911752,
          "velocity": 0.8031496062992126
        },
        {
          "duration": 0.22058799999999934,
          "durationTicks": 24,
          "midi": 65,
          "name": "F4",
          "ticks": 1319,
          "time": 12.123148833333335,
          "velocity": 0.8661417322834646
        },
        {
          "duration": 0.22058799999999934,
          "durationTicks": 24,
          "midi": 68,
          "name": "G#4",
          "ticks": 1319,
          "time": 12.123148833333335,
          "velocity": 0.7637795275590551
        },
        {
          "duration": 0.22058799999999934,
          "durationTicks": 24,
          "midi": 73,
          "name": "C#5",
          "ticks": 1319,
          "time": 12.123148833333335,
          "velocity": 0.7874015748031497
        },
        {
          "duration": 0.21139683333333537,
          "durationTicks": 23,
          "midi": 77,
          "name": "F5",
          "ticks": 1320,
          "time": 12.13234,
          "velocity": 0.8740157480314961
        },
        {
          "duration": 0.018382333333331502,
          "durationTicks": 2,
          "midi": 68,
          "name": "G#4",
          "ticks": 1343,
          "time": 12.343736833333335,
          "velocity": 0.905511811023622
        },
        {
          "duration": 0.009191166666667527,
          "durationTicks": 1,
          "midi": 73,
          "name": "C#5",
          "ticks": 1344,
          "time": 12.352927999999999,
          "velocity": 0.8740157480314961
        },
        {
          "duration": 0.009191166666663975,
          "durationTicks": 1,
          "midi": 66,
          "name": "F#4",
          "ticks": 1355,
          "time": 12.454030833333334,
          "velocity": 0.8976377952755905
        },
        {
          "duration": 0.4411759999999987,
          "durationTicks": 48,
          "midi": 56,
          "name": "G#3",
          "ticks": 1367,
          "time": 12.564324833333334,
          "velocity": 0.7637795275590551
        },
        {
          "duration": 0.4411759999999987,
          "durationTicks": 48,
          "midi": 61,
          "name": "C#4",
          "ticks": 1367,
          "time": 12.564324833333334,
          "velocity": 0.8582677165354331
        },
        {
          "duration": 0.4411759999999987,
          "durationTicks": 48,
          "midi": 65,
          "name": "F4",
          "ticks": 1367,
          "time": 12.564324833333334,
          "velocity": 0.8661417322834646
        },
        {
          "duration": 0.43198483333333115,
          "durationTicks": 47,
          "midi": 68,
          "name": "G#4",
          "ticks": 1368,
          "time": 12.573516000000001,
          "velocity": 0.7637795275590551
        },
        {
          "duration": 0.43198483333333115,
          "durationTicks": 47,
          "midi": 75,
          "name": "D#5",
          "ticks": 1368,
          "time": 12.573516000000001,
          "velocity": 0.84251968503937
        },
        {
          "duration": 0.2205880000000029,
          "durationTicks": 24,
          "midi": 60,
          "name": "C4",
          "ticks": 1415,
          "time": 13.005500833333333,
          "velocity": 0.7401574803149606
        },
        {
          "duration": 0.2205880000000029,
          "durationTicks": 24,
          "midi": 65,
          "name": "F4",
          "ticks": 1415,
          "time": 13.005500833333333,
          "velocity": 0.8267716535433071
        },
        {
          "duration": 0.21139683333333537,
          "durationTicks": 23,
          "midi": 68,
          "name": "G#4",
          "ticks": 1416,
          "time": 13.014692,
          "velocity": 0.7637795275590551
        },
        {
          "duration": 0.21139683333333537,
          "durationTicks": 23,
          "midi": 75,
          "name": "D#5",
          "ticks": 1416,
          "time": 13.014692,
          "velocity": 0.7952755905511811
        },
        {
          "duration": 0.22058799999999934,
          "durationTicks": 24,
          "midi": 68,
          "name": "G#4",
          "ticks": 1439,
          "time": 13.226088833333336,
          "velocity": 0.8110236220472441
        },
        {
          "duration": 0.22058799999999934,
          "durationTicks": 24,
          "midi": 72,
          "name": "C5",
          "ticks": 1439,
          "time": 13.226088833333336,
          "velocity": 0.7559055118110236
        },
        {
          "duration": 0.21139683333333537,
          "durationTicks": 23,
          "midi": 75,
          "name": "D#5",
          "ticks": 1440,
          "time": 13.23528,
          "velocity": 0.7637795275590551
        },
        {
          "duration": 0.21139683333333537,
          "durationTicks": 23,
          "midi": 80,
          "name": "G#5",
          "ticks": 1440,
          "time": 13.23528,
          "velocity": 0.7401574803149606
        },
        {
          "duration": 0.018382333333331502,
          "durationTicks": 2,
          "midi": 61,
          "name": "C#4",
          "ticks": 1463,
          "time": 13.446676833333335,
          "velocity": 0.9133858267716536
        },
        {
          "duration": 0.009191166666667527,
          "durationTicks": 1,
          "midi": 65,
          "name": "F4",
          "ticks": 1464,
          "time": 13.455867999999999,
          "velocity": 0.7716535433070866
        },
        {
          "duration": 0.009191166666663975,
          "durationTicks": 1,
          "midi": 61,
          "name": "C#4",
          "ticks": 1475,
          "time": 13.556970833333335,
          "velocity": 0.8976377952755905
        },
        {
          "duration": 0.22058799999999934,
          "durationTicks": 24,
          "midi": 56,
          "name": "G#3",
          "ticks": 1487,
          "time": 13.667264833333334,
          "velocity": 0.7637795275590551
        },
        {
          "duration": 0.22058799999999934,
          "durationTicks": 24,
          "midi": 60,
          "name": "C4",
          "ticks": 1487,
          "time": 13.667264833333334,
          "velocity": 0.7401574803149606
        },
        {
          "duration": 0.22058799999999934,
          "durationTicks": 24,
          "midi": 65,
          "name": "F4",
          "ticks": 1487,
          "time": 13.667264833333334,
          "velocity": 0.889763779527559
        },
        {
          "duration": 0.21139683333333537,
          "durationTicks": 23,
          "midi": 68,
          "name": "G#4",
          "ticks": 1488,
          "time": 13.676455999999998,
          "velocity": 0.7952755905511811
        },
        {
          "duration": 0.21139683333333537,
          "durationTicks": 23,
          "midi": 75,
          "name": "D#5",
          "ticks": 1488,
          "time": 13.676455999999998,
          "velocity": 0.8267716535433071
        },
        {
          "duration": 0.21139683333333537,
          "durationTicks": 23,
          "midi": 65,
          "name": "F4",
          "ticks": 1511,
          "time": 13.887852833333334,
          "velocity": 0.8661417322834646
        },
        {
          "duration": 0.21139683333333537,
          "durationTicks": 23,
          "midi": 68,
          "name": "G#4",
          "ticks": 1511,
          "time": 13.887852833333334,
          "velocity": 0.889763779527559
        },
        {
          "duration": 0.22058799999999934,
          "durationTicks": 24,
          "midi": 75,
          "name": "D#5",
          "ticks": 1512,
          "time": 13.897044000000001,
          "velocity": 0.7007874015748031
        },
        {
          "duration": 0.15624983333333375,
          "durationTicks": 17,
          "midi": 65,
          "name": "F4",
          "ticks": 1535,
          "time": 14.108440833333333,
          "velocity": 0.9133858267716536
        },
        {
          "duration": 0.1746321666666688,
          "durationTicks": 19,
          "midi": 63,
          "name": "D#4",
          "ticks": 1559,
          "time": 14.329028833333332,
          "velocity": 0.8976377952755905
        },
        {
          "duration": 0.16544100000000128,
          "durationTicks": 18,
          "midi": 75,
          "name": "D#5",
          "ticks": 1560,
          "time": 14.33822,
          "velocity": 0.7086614173228346
        },
        {
          "duration": 0.4411759999999987,
          "durationTicks": 48,
          "midi": 56,
          "name": "G#3",
          "ticks": 1583,
          "time": 14.549616833333335,
          "velocity": 0.7637795275590551
        },
        {
          "duration": 0.4411759999999987,
          "durationTicks": 48,
          "midi": 63,
          "name": "D#4",
          "ticks": 1583,
          "time": 14.549616833333335,
          "velocity": 0.9212598425196851
        },
        {
          "duration": 0.4411759999999987,
          "durationTicks": 48,
          "midi": 68,
          "name": "G#4",
          "ticks": 1583,
          "time": 14.549616833333335,
          "velocity": 0.7874015748031497
        },
        {
          "duration": 0.4319848333333347,
          "durationTicks": 47,
          "midi": 72,
          "name": "C5",
          "ticks": 1584,
          "time": 14.558807999999999,
          "velocity": 0.7637795275590551
        },
        {
          "duration": 0.4319848333333347,
          "durationTicks": 47,
          "midi": 75,
          "name": "D#5",
          "ticks": 1584,
          "time": 14.558807999999999,
          "velocity": 0.7401574803149606
        },
        {
          "duration": 0.22058799999999934,
          "durationTicks": 24,
          "midi": 56,
          "name": "G#3",
          "ticks": 1631,
          "time": 14.990792833333334,
          "velocity": 0.7086614173228346
        },
        {
          "duration": 0.22058799999999934,
          "durationTicks": 24,
          "midi": 63,
          "name": "D#4",
          "ticks": 1631,
          "time": 14.990792833333334,
          "velocity": 0.7952755905511811
        },
        {
          "duration": 0.22058799999999934,
          "durationTicks": 24,
          "midi": 68,
          "name": "G#4",
          "ticks": 1631,
          "time": 14.990792833333334,
          "velocity": 0.8976377952755905
        },
        {
          "duration": 0.2113968333333318,
          "durationTicks": 23,
          "midi": 72,
          "name": "C5",
          "ticks": 1632,
          "time": 14.999984000000001,
          "velocity": 0.7637795275590551
        },
        {
          "duration": 0.2113968333333318,
          "durationTicks": 23,
          "midi": 75,
          "name": "D#5",
          "ticks": 1632,
          "time": 14.999984000000001,
          "velocity": 0.6692913385826772
        },
        {
          "duration": 0.018382333333335055,
          "durationTicks": 2,
          "midi": 56,
          "name": "G#3",
          "ticks": 1655,
          "time": 15.211380833333333,
          "velocity": 0.7795275590551181
        },
        {
          "duration": 0.009191166666667527,
          "durationTicks": 1,
          "midi": 63,
          "name": "D#4",
          "ticks": 1656,
          "time": 15.220572,
          "velocity": 0.889763779527559
        },
        {
          "duration": 0.009191166666667527,
          "durationTicks": 1,
          "midi": 68,
          "name": "G#4",
          "ticks": 1667,
          "time": 15.321674833333333,
          "velocity": 0.8976377952755905
        },
        {
          "duration": 0.2205880000000029,
          "durationTicks": 24,
          "midi": 63,
          "name": "D#4",
          "ticks": 1679,
          "time": 15.431968833333332,
          "velocity": 0.8661417322834646
        },
        {
          "duration": 0.2205880000000029,
          "durationTicks": 24,
          "midi": 68,
          "name": "G#4",
          "ticks": 1679,
          "time": 15.431968833333332,
          "velocity": 0.9212598425196851
        },
        {
          "duration": 0.21139683333333537,
          "durationTicks": 23,
          "midi": 72,
          "name": "C5",
          "ticks": 1680,
          "time": 15.44116,
          "velocity": 0.7637795275590551
        },
        {
          "duration": 0.22058799999999934,
          "durationTicks": 24,
          "midi": 56,
          "name": "G#3",
          "ticks": 1703,
          "time": 15.652556833333335,
          "velocity": 0.7322834645669292
        },
        {
          "duration": 0.22058799999999934,
          "durationTicks": 24,
          "midi": 63,
          "name": "D#4",
          "ticks": 1703,
          "time": 15.652556833333335,
          "velocity": 0.905511811023622
        },
        {
          "duration": 0.22058799999999934,
          "durationTicks": 24,
          "midi": 68,
          "name": "G#4",
          "ticks": 1703,
          "time": 15.652556833333335,
          "velocity": 0.7952755905511811
        },
        {
          "duration": 0.21139683333333537,
          "durationTicks": 23,
          "midi": 72,
          "name": "C5",
          "ticks": 1704,
          "time": 15.661748,
          "velocity": 0.7480314960629921
        },
        {
          "duration": 0.018382333333331502,
          "durationTicks": 2,
          "midi": 56,
          "name": "G#3",
          "ticks": 1727,
          "time": 15.873144833333335,
          "velocity": 0.7795275590551181
        },
        {
          "duration": 0.009191166666663975,
          "durationTicks": 1,
          "midi": 63,
          "name": "D#4",
          "ticks": 1728,
          "time": 15.882336000000002,
          "velocity": 0.889763779527559
        },
        {
          "duration": 0.009191166666667527,
          "durationTicks": 1,
          "midi": 65,
          "name": "F4",
          "ticks": 1739,
          "time": 15.983438833333334,
          "velocity": 0.8976377952755905
        },
        {
          "duration": 0.6617640000000016,
          "durationTicks": 72,
          "midi": 56,
          "name": "G#3",
          "ticks": 1751,
          "time": 16.093732833333334,
          "velocity": 0.6850393700787402
        },
        {
          "duration": 0.6617640000000016,
          "durationTicks": 72,
          "midi": 63,
          "name": "D#4",
          "ticks": 1751,
          "time": 16.093732833333334,
          "velocity": 0.889763779527559
        },
        {
          "duration": 0.6617640000000016,
          "durationTicks": 72,
          "midi": 68,
          "name": "G#4",
          "ticks": 1751,
          "time": 16.093732833333334,
          "velocity": 0.6141732283464567
        },
        {
          "duration": 0.652572833333334,
          "durationTicks": 71,
          "midi": 72,
          "name": "C5",
          "ticks": 1752,
          "time": 16.102924,
          "velocity": 0.7795275590551181
        },
        {
          "duration": 0.652572833333334,
          "durationTicks": 71,
          "midi": 75,
          "name": "D#5",
          "ticks": 1752,
          "time": 16.102924,
          "velocity": 0.84251968503937
        },
        {
          "duration": 0.1194851666666672,
          "durationTicks": 13,
          "midi": 72,
          "name": "C5",
          "ticks": 1823,
          "time": 16.755496833333336,
          "velocity": 0.968503937007874
        },
        {
          "duration": 0.22058799999999934,
          "durationTicks": 24,
          "midi": 68,
          "name": "G#4",
          "ticks": 1847,
          "time": 16.976084833333335,
          "velocity": 0.889763779527559
        },
        {
          "duration": 0.22058799999999934,
          "durationTicks": 24,
          "midi": 74,
          "name": "D5",
          "ticks": 1847,
          "time": 16.976084833333335,
          "velocity": 0.7716535433070866
        },
        {
          "duration": 0.2113968333333318,
          "durationTicks": 23,
          "midi": 77,
          "name": "F5",
          "ticks": 1848,
          "time": 16.985276000000002,
          "velocity": 0.7952755905511811
        },
        {
          "duration": 0.2113968333333318,
          "durationTicks": 23,
          "midi": 82,
          "name": "A#5",
          "ticks": 1848,
          "time": 16.985276000000002,
          "velocity": 0.8110236220472441
        },
        {
          "duration": 0.11029399999999967,
          "durationTicks": 12,
          "midi": 82,
          "name": "A#5",
          "ticks": 1871,
          "time": 17.196672833333334,
          "velocity": 0.8110236220472441
        },
        {
          "duration": 0.018382333333331502,
          "durationTicks": 2,
          "midi": 70,
          "name": "A#4",
          "ticks": 1883,
          "time": 17.306966833333334,
          "velocity": 0.8110236220472441
        },
        {
          "duration": 0.11029399999999967,
          "durationTicks": 12,
          "midi": 70,
          "name": "A#4",
          "ticks": 1895,
          "time": 17.417260833333334,
          "velocity": 0.8661417322834646
        },
        {
          "duration": 0.11029399999999967,
          "durationTicks": 12,
          "midi": 70,
          "name": "A#4",
          "ticks": 1907,
          "time": 17.527554833333333,
          "velocity": 0.905511811023622
        },
        {
          "duration": 0.2205880000000029,
          "durationTicks": 24,
          "midi": 68,
          "name": "G#4",
          "ticks": 1919,
          "time": 17.637848833333333,
          "velocity": 0.8503937007874016
        },
        {
          "duration": 0.2205880000000029,
          "durationTicks": 24,
          "midi": 74,
          "name": "D5",
          "ticks": 1919,
          "time": 17.637848833333333,
          "velocity": 0.8188976377952756
        },
        {
          "duration": 0.21139683333333537,
          "durationTicks": 23,
          "midi": 77,
          "name": "F5",
          "ticks": 1920,
          "time": 17.64704,
          "velocity": 0.7952755905511811
        },
        {
          "duration": 0.21139683333333537,
          "durationTicks": 23,
          "midi": 82,
          "name": "A#5",
          "ticks": 1920,
          "time": 17.64704,
          "velocity": 0.7559055118110236
        },
        {
          "duration": 0.1562498333333302,
          "durationTicks": 17,
          "midi": 67,
          "name": "G4",
          "ticks": 1943,
          "time": 17.858436833333336,
          "velocity": 0.7952755905511811
        },
        {
          "duration": 0.4411759999999987,
          "durationTicks": 48,
          "midi": 51,
          "name": "D#3",
          "ticks": 1967,
          "time": 18.079024833333335,
          "velocity": 0.7637795275590551
        },
        {
          "duration": 0.4411759999999987,
          "durationTicks": 48,
          "midi": 61,
          "name": "C#4",
          "ticks": 1967,
          "time": 18.079024833333335,
          "velocity": 0.8346456692913385
        },
        {
          "duration": 0.4411759999999987,
          "durationTicks": 48,
          "midi": 65,
          "name": "F4",
          "ticks": 1967,
          "time": 18.079024833333335,
          "velocity": 0.7874015748031497
        },
        {
          "duration": 0.43198483333333115,
          "durationTicks": 47,
          "midi": 68,
          "name": "G#4",
          "ticks": 1968,
          "time": 18.088216000000003,
          "velocity": 0.7637795275590551
        },
        {
          "duration": 0.43198483333333115,
          "durationTicks": 47,
          "midi": 73,
          "name": "C#5",
          "ticks": 1968,
          "time": 18.088216000000003,
          "velocity": 0.8582677165354331
        },
        {
          "duration": 0.018382333333331502,
          "durationTicks": 2,
          "midi": 65,
          "name": "F4",
          "ticks": 2015,
          "time": 18.520200833333334,
          "velocity": 0.7795275590551181
        },
        {
          "duration": 0.009191166666663975,
          "durationTicks": 1,
          "midi": 68,
          "name": "G#4",
          "ticks": 2016,
          "time": 18.529392,
          "velocity": 0.889763779527559
        },
        {
          "duration": 0.009191166666667527,
          "durationTicks": 1,
          "midi": 72,
          "name": "C5",
          "ticks": 2027,
          "time": 18.630494833333334,
          "velocity": 0.8976377952755905
        },
        {
          "duration": 0.44117600000000223,
          "durationTicks": 48,
          "midi": 61,
          "name": "C#4",
          "ticks": 2039,
          "time": 18.740788833333333,
          "velocity": 0.7401574803149606
        },
        {
          "duration": 0.44117600000000223,
          "durationTicks": 48,
          "midi": 66,
          "name": "F#4",
          "ticks": 2039,
          "time": 18.740788833333333,
          "velocity": 0.905511811023622
        },
        {
          "duration": 0.4319848333333347,
          "durationTicks": 47,
          "midi": 68,
          "name": "G#4",
          "ticks": 2040,
          "time": 18.74998,
          "velocity": 0.6141732283464567
        },
        {
          "duration": 0.4319848333333347,
          "durationTicks": 47,
          "midi": 73,
          "name": "C#5",
          "ticks": 2040,
          "time": 18.74998,
          "velocity": 0.8267716535433071
        },
        {
          "duration": 0.22058799999999934,
          "durationTicks": 24,
          "midi": 61,
          "name": "C#4",
          "ticks": 2087,
          "time": 19.181964833333335,
          "velocity": 0.905511811023622
        },
        {
          "duration": 0.22058799999999934,
          "durationTicks": 24,
          "midi": 65,
          "name": "F4",
          "ticks": 2087,
          "time": 19.181964833333335,
          "velocity": 0.7086614173228346
        },
        {
          "duration": 0.2113968333333318,
          "durationTicks": 23,
          "midi": 68,
          "name": "G#4",
          "ticks": 2088,
          "time": 19.191156000000003,
          "velocity": 0.7086614173228346
        },
        {
          "duration": 0.2113968333333318,
          "durationTicks": 23,
          "midi": 73,
          "name": "C#5",
          "ticks": 2088,
          "time": 19.191156000000003,
          "velocity": 0.8031496062992126
        },
        {
          "duration": 0.22058799999999934,
          "durationTicks": 24,
          "midi": 61,
          "name": "C#4",
          "ticks": 2111,
          "time": 19.402552833333335,
          "velocity": 0.7401574803149606
        },
        {
          "duration": 0.22058799999999934,
          "durationTicks": 24,
          "midi": 66,
          "name": "F#4",
          "ticks": 2111,
          "time": 19.402552833333335,
          "velocity": 0.905511811023622
        },
        {
          "duration": 0.2113968333333318,
          "durationTicks": 23,
          "midi": 68,
          "name": "G#4",
          "ticks": 2112,
          "time": 19.411744000000002,
          "velocity": 0.6456692913385826
        },
        {
          "duration": 0.2113968333333318,
          "durationTicks": 23,
          "midi": 73,
          "name": "C#5",
          "ticks": 2112,
          "time": 19.411744000000002,
          "velocity": 0.8267716535433071
        },
        {
          "duration": 0.20220566666666784,
          "durationTicks": 22,
          "midi": 61,
          "name": "C#4",
          "ticks": 2135,
          "time": 19.623140833333334,
          "velocity": 0.905511811023622
        },
        {
          "duration": 0.20220566666666784,
          "durationTicks": 22,
          "midi": 65,
          "name": "F4",
          "ticks": 2135,
          "time": 19.623140833333334,
          "velocity": 0.7086614173228346
        },
        {
          "duration": 0.1930145000000003,
          "durationTicks": 21,
          "midi": 68,
          "name": "G#4",
          "ticks": 2136,
          "time": 19.632332,
          "velocity": 0.7874015748031497
        },
        {
          "duration": 0.1930145000000003,
          "durationTicks": 21,
          "midi": 73,
          "name": "C#5",
          "ticks": 2136,
          "time": 19.632332,
          "velocity": 0.8031496062992126
        },
        {
          "duration": 0.20220566666666784,
          "durationTicks": 22,
          "midi": 61,
          "name": "C#4",
          "ticks": 2159,
          "time": 19.843728833333333,
          "velocity": 0.8582677165354331
        },
        {
          "duration": 0.20220566666666784,
          "durationTicks": 22,
          "midi": 66,
          "name": "F#4",
          "ticks": 2159,
          "time": 19.843728833333333,
          "velocity": 0.7086614173228346
        },
        {
          "duration": 0.1930145000000003,
          "durationTicks": 21,
          "midi": 73,
          "name": "C#5",
          "ticks": 2160,
          "time": 19.85292,
          "velocity": 0.889763779527559
        },
        {
          "duration": 0.4411759999999987,
          "durationTicks": 48,
          "midi": 56,
          "name": "G#3",
          "ticks": 2183,
          "time": 20.064316833333336,
          "velocity": 0.7244094488188977
        },
        {
          "duration": 0.4411759999999987,
          "durationTicks": 48,
          "midi": 61,
          "name": "C#4",
          "ticks": 2183,
          "time": 20.064316833333336,
          "velocity": 0.7007874015748031
        },
        {
          "duration": 0.4411759999999987,
          "durationTicks": 48,
          "midi": 63,
          "name": "D#4",
          "ticks": 2183,
          "time": 20.064316833333336,
          "velocity": 0.8582677165354331
        },
        {
          "duration": 0.43198483333333115,
          "durationTicks": 47,
          "midi": 68,
          "name": "G#4",
          "ticks": 2184,
          "time": 20.073508000000004,
          "velocity": 0.7716535433070866
        },
        {
          "duration": 0.43198483333333115,
          "durationTicks": 47,
          "midi": 75,
          "name": "D#5",
          "ticks": 2184,
          "time": 20.073508000000004,
          "velocity": 0.889763779527559
        },
        {
          "duration": 0.1930145000000003,
          "durationTicks": 21,
          "midi": 63,
          "name": "D#4",
          "ticks": 2231,
          "time": 20.505492833333335,
          "velocity": 0.7952755905511811
        },
        {
          "duration": 0.18382333333333278,
          "durationTicks": 20,
          "midi": 68,
          "name": "G#4",
          "ticks": 2232,
          "time": 20.514684000000003,
          "velocity": 0.8976377952755905
        },
        {
          "duration": 0.22058799999999934,
          "durationTicks": 24,
          "midi": 63,
          "name": "D#4",
          "ticks": 2255,
          "time": 20.726080833333334,
          "velocity": 0.8346456692913385
        },
        {
          "duration": 0.22058799999999934,
          "durationTicks": 24,
          "midi": 68,
          "name": "G#4",
          "ticks": 2255,
          "time": 20.726080833333334,
          "velocity": 0.8031496062992126
        },
        {
          "duration": 0.2113968333333318,
          "durationTicks": 23,
          "midi": 73,
          "name": "C#5",
          "ticks": 2256,
          "time": 20.735272000000002,
          "velocity": 0.905511811023622
        },
        {
          "duration": 0.22058799999999934,
          "durationTicks": 24,
          "midi": 56,
          "name": "G#3",
          "ticks": 2279,
          "time": 20.946668833333334,
          "velocity": 0.889763779527559
        },
        {
          "duration": 0.22058799999999934,
          "durationTicks": 24,
          "midi": 63,
          "name": "D#4",
          "ticks": 2279,
          "time": 20.946668833333334,
          "velocity": 0.889763779527559
        },
        {
          "duration": 0.2113968333333318,
          "durationTicks": 23,
          "midi": 68,
          "name": "G#4",
          "ticks": 2280,
          "time": 20.95586,
          "velocity": 0.7244094488188977
        },
        {
          "duration": 0.2205880000000029,
          "durationTicks": 24,
          "midi": 56,
          "name": "G#3",
          "ticks": 2303,
          "time": 21.167256833333333,
          "velocity": 0.7244094488188977
        },
        {
          "duration": 0.2205880000000029,
          "durationTicks": 24,
          "midi": 63,
          "name": "D#4",
          "ticks": 2303,
          "time": 21.167256833333333,
          "velocity": 0.8582677165354331
        },
        {
          "duration": 0.2205880000000029,
          "durationTicks": 24,
          "midi": 68,
          "name": "G#4",
          "ticks": 2303,
          "time": 21.167256833333333,
          "velocity": 0.8188976377952756
        },
        {
          "duration": 0.2113968333333318,
          "durationTicks": 23,
          "midi": 75,
          "name": "D#5",
          "ticks": 2304,
          "time": 21.176448000000004,
          "velocity": 0.7874015748031497
        },
        {
          "duration": 0.18382333333333278,
          "durationTicks": 20,
          "midi": 75,
          "name": "D#5",
          "ticks": 2327,
          "time": 21.387844833333336,
          "velocity": 0.7637795275590551
        },
        {
          "duration": 1.7555128333333307,
          "durationTicks": 191,
          "midi": 54,
          "name": "F#3",
          "ticks": 2351,
          "time": 21.608432833333335,
          "velocity": 0.7795275590551181
        },
        {
          "duration": 0.4411759999999987,
          "durationTicks": 48,
          "midi": 65,
          "name": "F4",
          "ticks": 2351,
          "time": 21.608432833333335,
          "velocity": 0.6141732283464567
        },
        {
          "duration": 0.22058799999999934,
          "durationTicks": 24,
          "midi": 68,
          "name": "G#4",
          "ticks": 2351,
          "time": 21.608432833333335,
          "velocity": 0.6141732283464567
        },
        {
          "duration": 1.7555128333333307,
          "durationTicks": 191,
          "midi": 77,
          "name": "F5",
          "ticks": 2352,
          "time": 21.617624000000003,
          "velocity": 1
        },
        {
          "duration": 0.8823520000000009,
          "durationTicks": 96,
          "midi": 68,
          "name": "G#4",
          "ticks": 2375,
          "time": 21.829020833333335,
          "velocity": 1
        },
        {
          "duration": 0.44117600000000223,
          "durationTicks": 48,
          "midi": 65,
          "name": "F4",
          "ticks": 2399,
          "time": 22.049608833333334,
          "velocity": 1
        },
        {
          "duration": 1.1121311666666678,
          "durationTicks": 121,
          "midi": 75,
          "name": "D#5",
          "ticks": 2423,
          "time": 22.270196833333333,
          "velocity": 1
        },
        {
          "duration": 0.4411759999999987,
          "durationTicks": 48,
          "midi": 65,
          "name": "F4",
          "ticks": 2447,
          "time": 22.490784833333336,
          "velocity": 0.6141732283464567
        },
        {
          "duration": 0.6709551666666655,
          "durationTicks": 73,
          "midi": 68,
          "name": "G#4",
          "ticks": 2471,
          "time": 22.711372833333336,
          "velocity": 1
        },
        {
          "duration": 0.4411759999999987,
          "durationTicks": 48,
          "midi": 65,
          "name": "F4",
          "ticks": 2495,
          "time": 22.931960833333335,
          "velocity": 1
        },
        {
          "duration": 0.2389703333333344,
          "durationTicks": 26,
          "midi": 73,
          "name": "C#5",
          "ticks": 2519,
          "time": 23.152548833333334,
          "velocity": 1
        },
        {
          "duration": 1.6727923333333337,
          "durationTicks": 182,
          "midi": 54,
          "name": "F#3",
          "ticks": 2543,
          "time": 23.373136833333334,
          "velocity": 0.7086614173228346
        },
        {
          "duration": 0.4319848333333347,
          "durationTicks": 47,
          "midi": 65,
          "name": "F4",
          "ticks": 2544,
          "time": 23.382328,
          "velocity": 0.6456692913385826
        },
        {
          "duration": 0.8823519999999974,
          "durationTicks": 96,
          "midi": 68,
          "name": "G#4",
          "ticks": 2567,
          "time": 23.593724833333336,
          "velocity": 1
        },
        {
          "duration": 0.4411759999999987,
          "durationTicks": 48,
          "midi": 65,
          "name": "F4",
          "ticks": 2591,
          "time": 23.814312833333336,
          "velocity": 0.889763779527559
        },
        {
          "duration": 0.8823520000000009,
          "durationTicks": 96,
          "midi": 73,
          "name": "C#5",
          "ticks": 2615,
          "time": 24.034900833333335,
          "velocity": 1
        },
        {
          "duration": 0.44117600000000223,
          "durationTicks": 48,
          "midi": 65,
          "name": "F4",
          "ticks": 2639,
          "time": 24.255488833333334,
          "velocity": 0.905511811023622
        },
        {
          "duration": 0.5882346666666685,
          "durationTicks": 64,
          "midi": 68,
          "name": "G#4",
          "ticks": 2663,
          "time": 24.476076833333334,
          "velocity": 1
        },
        {
          "duration": 0.36764666666666557,
          "durationTicks": 40,
          "midi": 65,
          "name": "F4",
          "ticks": 2687,
          "time": 24.696664833333337,
          "velocity": 1
        },
        {
          "duration": 0.14705866666666623,
          "durationTicks": 16,
          "midi": 73,
          "name": "C#5",
          "ticks": 2711,
          "time": 24.917252833333336,
          "velocity": 0.905511811023622
        },
        {
          "duration": 2.849261666666667,
          "durationTicks": 310,
          "midi": 54,
          "name": "F#3",
          "ticks": 2735,
          "time": 25.137840833333335,
          "velocity": 0.84251968503937
        },
        {
          "duration": 2.849261666666667,
          "durationTicks": 310,
          "midi": 58,
          "name": "A#3",
          "ticks": 2735,
          "time": 25.137840833333335,
          "velocity": 0.7401574803149606
        },
        {
          "duration": 2.8400704999999995,
          "durationTicks": 309,
          "midi": 65,
          "name": "F4",
          "ticks": 2736,
          "time": 25.147032000000003,
          "velocity": 0.905511811023622
        },
        {
          "duration": 2.8124970000000005,
          "durationTicks": 306,
          "midi": 68,
          "name": "G#4",
          "ticks": 2738,
          "time": 25.165414333333334,
          "velocity": 0.8031496062992126
        },
        {
          "duration": 2.803305833333333,
          "durationTicks": 305,
          "midi": 73,
          "name": "C#5",
          "ticks": 2739,
          "time": 25.174605500000002,
          "velocity": 0.84251968503937
        },
        {
          "duration": 0.44117600000000223,
          "durationTicks": 48,
          "midi": 65,
          "name": "F4",
          "ticks": 3047,
          "time": 28.005484833333334,
          "velocity": 0.9291338582677166
        },
        {
          "duration": 0.4044113333333357,
          "durationTicks": 44,
          "midi": 68,
          "name": "G#4",
          "ticks": 3071,
          "time": 28.226072833333333,
          "velocity": 0.905511811023622
        },
        {
          "duration": 0.18382333333333278,
          "durationTicks": 20,
          "midi": 65,
          "name": "F4",
          "ticks": 3095,
          "time": 28.446660833333336,
          "velocity": 0.905511811023622
        },
        {
          "duration": 1.7371304999999992,
          "durationTicks": 189,
          "midi": 58,
          "name": "A#3",
          "ticks": 3119,
          "time": 28.667248833333336,
          "velocity": 0.7795275590551181
        },
        {
          "duration": 1.7371304999999992,
          "durationTicks": 189,
          "midi": 63,
          "name": "D#4",
          "ticks": 3119,
          "time": 28.667248833333336,
          "velocity": 0.6850393700787402
        },
        {
          "duration": 1.7279393333333317,
          "durationTicks": 188,
          "midi": 65,
          "name": "F4",
          "ticks": 3120,
          "time": 28.676440000000003,
          "velocity": 0.8818897637795275
        },
        {
          "duration": 1.7187481666666677,
          "durationTicks": 187,
          "midi": 68,
          "name": "G#4",
          "ticks": 3121,
          "time": 28.685631166666667,
          "velocity": 0.7716535433070866
        },
        {
          "duration": 1.7095570000000002,
          "durationTicks": 186,
          "midi": 73,
          "name": "C#5",
          "ticks": 3122,
          "time": 28.694822333333335,
          "velocity": 0.84251968503937
        },
        {
          "duration": 0.6617640000000016,
          "durationTicks": 72,
          "midi": 58,
          "name": "A#3",
          "ticks": 3311,
          "time": 30.431952833333334,
          "velocity": 0.7559055118110236
        },
        {
          "duration": 0.6617640000000016,
          "durationTicks": 72,
          "midi": 65,
          "name": "F4",
          "ticks": 3311,
          "time": 30.431952833333334,
          "velocity": 0.8110236220472441
        },
        {
          "duration": 0.652572833333334,
          "durationTicks": 71,
          "midi": 68,
          "name": "G#4",
          "ticks": 3312,
          "time": 30.441144,
          "velocity": 0.84251968503937
        },
        {
          "duration": 0.652572833333334,
          "durationTicks": 71,
          "midi": 75,
          "name": "D#5",
          "ticks": 3312,
          "time": 30.441144,
          "velocity": 0.9133858267716536
        },
        {
          "duration": 1.0753664999999977,
          "durationTicks": 117,
          "midi": 58,
          "name": "A#3",
          "ticks": 3383,
          "time": 31.093716833333335,
          "velocity": 0.7795275590551181
        },
        {
          "duration": 1.0753664999999977,
          "durationTicks": 117,
          "midi": 63,
          "name": "D#4",
          "ticks": 3383,
          "time": 31.093716833333335,
          "velocity": 0.6850393700787402
        },
        {
          "duration": 1.0753664999999977,
          "durationTicks": 117,
          "midi": 65,
          "name": "F4",
          "ticks": 3385,
          "time": 31.11209916666667,
          "velocity": 0.84251968503937
        },
        {
          "duration": 1.0569841666666662,
          "durationTicks": 115,
          "midi": 68,
          "name": "G#4",
          "ticks": 3386,
          "time": 31.121290333333334,
          "velocity": 0.8031496062992126
        },
        {
          "duration": 1.0386018333333311,
          "durationTicks": 113,
          "midi": 73,
          "name": "C#5",
          "ticks": 3388,
          "time": 31.13967266666667,
          "velocity": 0.8976377952755905
        },
        {
          "duration": 2.8492616666666635,
          "durationTicks": 310,
          "midi": 54,
          "name": "F#3",
          "ticks": 3503,
          "time": 32.196656833333336,
          "velocity": 0.84251968503937
        },
        {
          "duration": 2.8492616666666635,
          "durationTicks": 310,
          "midi": 58,
          "name": "A#3",
          "ticks": 3503,
          "time": 32.196656833333336,
          "velocity": 0.7401574803149606
        },
        {
          "duration": 2.840070500000003,
          "durationTicks": 309,
          "midi": 65,
          "name": "F4",
          "ticks": 3504,
          "time": 32.205847999999996,
          "velocity": 0.905511811023622
        },
        {
          "duration": 2.8124970000000076,
          "durationTicks": 306,
          "midi": 70,
          "name": "A#4",
          "ticks": 3506,
          "time": 32.22423033333333,
          "velocity": 0.8976377952755905
        },
        {
          "duration": 2.80330583333334,
          "durationTicks": 305,
          "midi": 73,
          "name": "C#5",
          "ticks": 3507,
          "time": 32.2334215,
          "velocity": 0.84251968503937
        },
        {
          "duration": 0.4411759999999987,
          "durationTicks": 48,
          "midi": 65,
          "name": "F4",
          "ticks": 3815,
          "time": 35.064300833333334,
          "velocity": 0.9291338582677166
        },
        {
          "duration": 0.4044113333333357,
          "durationTicks": 44,
          "midi": 68,
          "name": "G#4",
          "ticks": 3839,
          "time": 35.28488883333333,
          "velocity": 0.905511811023622
        },
        {
          "duration": 0.18382333333333634,
          "durationTicks": 20,
          "midi": 65,
          "name": "F4",
          "ticks": 3863,
          "time": 35.50547683333333,
          "velocity": 0.905511811023622
        },
        {
          "duration": 1.5165425,
          "durationTicks": 165,
          "midi": 49,
          "name": "C#3",
          "ticks": 3887,
          "time": 35.72606483333333,
          "velocity": 0.7559055118110236
        },
        {
          "duration": 1.5165425,
          "durationTicks": 165,
          "midi": 60,
          "name": "C4",
          "ticks": 3887,
          "time": 35.72606483333333,
          "velocity": 0.8188976377952756
        },
        {
          "duration": 1.5073513333333324,
          "durationTicks": 164,
          "midi": 65,
          "name": "F4",
          "ticks": 3888,
          "time": 35.735256,
          "velocity": 0.8267716535433071
        },
        {
          "duration": 1.4981601666666648,
          "durationTicks": 163,
          "midi": 68,
          "name": "G#4",
          "ticks": 3889,
          "time": 35.74444716666667,
          "velocity": 0.8818897637795275
        },
        {
          "duration": 1.4889689999999973,
          "durationTicks": 162,
          "midi": 73,
          "name": "C#5",
          "ticks": 3890,
          "time": 35.753638333333335,
          "velocity": 0.8740157480314961
        },
        {
          "duration": 0.4411759999999987,
          "durationTicks": 48,
          "midi": 58,
          "name": "A#3",
          "ticks": 4055,
          "time": 37.270180833333335,
          "velocity": 0.8110236220472441
        },
        {
          "duration": 0.4411759999999987,
          "durationTicks": 48,
          "midi": 65,
          "name": "F4",
          "ticks": 4055,
          "time": 37.270180833333335,
          "velocity": 0.8661417322834646
        },
        {
          "duration": 0.43198483333333115,
          "durationTicks": 47,
          "midi": 68,
          "name": "G#4",
          "ticks": 4056,
          "time": 37.279372,
          "velocity": 0.84251968503937
        },
        {
          "duration": 0.4227936666666636,
          "durationTicks": 46,
          "midi": 75,
          "name": "D#5",
          "ticks": 4057,
          "time": 37.28856316666667,
          "velocity": 0.9133858267716536
        },
        {
          "duration": 0.22058799999999934,
          "durationTicks": 24,
          "midi": 58,
          "name": "A#3",
          "ticks": 4103,
          "time": 37.71135683333333,
          "velocity": 0.8267716535433071
        },
        {
          "duration": 0.22058799999999934,
          "durationTicks": 24,
          "midi": 65,
          "name": "F4",
          "ticks": 4103,
          "time": 37.71135683333333,
          "velocity": 0.7952755905511811
        },
        {
          "duration": 0.2113968333333318,
          "durationTicks": 23,
          "midi": 68,
          "name": "G#4",
          "ticks": 4104,
          "time": 37.720548,
          "velocity": 0.8346456692913385
        },
        {
          "duration": 0.2113968333333318,
          "durationTicks": 23,
          "midi": 75,
          "name": "D#5",
          "ticks": 4104,
          "time": 37.720548,
          "velocity": 0.9133858267716536
        },
        {
          "duration": 0.21139683333333892,
          "durationTicks": 23,
          "midi": 58,
          "name": "A#3",
          "ticks": 4127,
          "time": 37.93194483333333,
          "velocity": 0.8503937007874016
        },
        {
          "duration": 0.21139683333333892,
          "durationTicks": 23,
          "midi": 65,
          "name": "F4",
          "ticks": 4127,
          "time": 37.93194483333333,
          "velocity": 0.7952755905511811
        },
        {
          "duration": 0.2022056666666714,
          "durationTicks": 22,
          "midi": 68,
          "name": "G#4",
          "ticks": 4128,
          "time": 37.941136,
          "velocity": 0.8818897637795275
        },
        {
          "duration": 0.2022056666666714,
          "durationTicks": 22,
          "midi": 75,
          "name": "D#5",
          "ticks": 4128,
          "time": 37.941136,
          "velocity": 0.8818897637795275
        },
        {
          "duration": 0.22058800000000645,
          "durationTicks": 24,
          "midi": 58,
          "name": "A#3",
          "ticks": 4151,
          "time": 38.15253283333333,
          "velocity": 0.8740157480314961
        },
        {
          "duration": 0.22058800000000645,
          "durationTicks": 24,
          "midi": 65,
          "name": "F4",
          "ticks": 4151,
          "time": 38.15253283333333,
          "velocity": 0.8267716535433071
        },
        {
          "duration": 0.22058800000000645,
          "durationTicks": 24,
          "midi": 70,
          "name": "A#4",
          "ticks": 4151,
          "time": 38.15253283333333,
          "velocity": 0.7952755905511811
        },
        {
          "duration": 0.21139683333333892,
          "durationTicks": 23,
          "midi": 74,
          "name": "D5",
          "ticks": 4152,
          "time": 38.161724,
          "velocity": 0.9133858267716536
        },
        {
          "duration": 0.21139683333333892,
          "durationTicks": 23,
          "midi": 77,
          "name": "F5",
          "ticks": 4152,
          "time": 38.161724,
          "velocity": 0.905511811023622
        },
        {
          "duration": 1.7555128333333343,
          "durationTicks": 191,
          "midi": 54,
          "name": "F#3",
          "ticks": 4271,
          "time": 39.255472833333336,
          "velocity": 0.7795275590551181
        },
        {
          "duration": 0.4411759999999987,
          "durationTicks": 48,
          "midi": 65,
          "name": "F4",
          "ticks": 4271,
          "time": 39.255472833333336,
          "velocity": 0.6141732283464567
        },
        {
          "duration": 0.22058799999999934,
          "durationTicks": 24,
          "midi": 68,
          "name": "G#4",
          "ticks": 4271,
          "time": 39.255472833333336,
          "velocity": 0.6141732283464567
        },
        {
          "duration": 1.3143368333333285,
          "durationTicks": 143,
          "midi": 77,
          "name": "F5",
          "ticks": 4272,
          "time": 39.264664,
          "velocity": 1
        },
        {
          "duration": 0.661763999999998,
          "durationTicks": 72,
          "midi": 68,
          "name": "G#4",
          "ticks": 4295,
          "time": 39.476060833333335,
          "velocity": 0.9212598425196851
        },
        {
          "duration": 0.661763999999998,
          "durationTicks": 72,
          "midi": 65,
          "name": "F4",
          "ticks": 4319,
          "time": 39.696648833333334,
          "velocity": 0.8976377952755905
        },
        {
          "duration": 1.3235280000000031,
          "durationTicks": 144,
          "midi": 75,
          "name": "D#5",
          "ticks": 4343,
          "time": 39.917236833333334,
          "velocity": 1
        },
        {
          "duration": 0.6617640000000051,
          "durationTicks": 72,
          "midi": 68,
          "name": "G#4",
          "ticks": 4367,
          "time": 40.13782483333333,
          "velocity": 0.937007874015748
        },
        {
          "duration": 0.6617640000000051,
          "durationTicks": 72,
          "midi": 65,
          "name": "F4",
          "ticks": 4391,
          "time": 40.35841283333333,
          "velocity": 0.905511811023622
        },
        {
          "duration": 0.4411760000000058,
          "durationTicks": 48,
          "midi": 77,
          "name": "F5",
          "ticks": 4415,
          "time": 40.57900083333333,
          "velocity": 1
        },
        {
          "duration": 0.661763999999998,
          "durationTicks": 72,
          "midi": 68,
          "name": "G#4",
          "ticks": 4439,
          "time": 40.79958883333334,
          "velocity": 0.905511811023622
        },
        {
          "duration": 0.661763999999998,
          "durationTicks": 72,
          "midi": 65,
          "name": "F4",
          "ticks": 4463,
          "time": 41.02017683333334,
          "velocity": 0.8740157480314961
        },
        {
          "duration": 1.6544099999999986,
          "durationTicks": 180,
          "midi": 56,
          "name": "G#3",
          "ticks": 4464,
          "time": 41.029368,
          "velocity": 0.8031496062992126
        },
        {
          "duration": 1.1029399999999967,
          "durationTicks": 120,
          "midi": 75,
          "name": "D#5",
          "ticks": 4487,
          "time": 41.24076483333334,
          "velocity": 1
        },
        {
          "duration": 0.661763999999998,
          "durationTicks": 72,
          "midi": 68,
          "name": "G#4",
          "ticks": 4511,
          "time": 41.461352833333336,
          "velocity": 0.7007874015748031
        },
        {
          "duration": 0.9926460000000006,
          "durationTicks": 108,
          "midi": 65,
          "name": "F4",
          "ticks": 4535,
          "time": 41.681940833333336,
          "velocity": 1
        },
        {
          "duration": 0.4411759999999987,
          "durationTicks": 48,
          "midi": 73,
          "name": "C#5",
          "ticks": 4559,
          "time": 41.902528833333335,
          "velocity": 1
        },
        {
          "duration": 0.5514700000000019,
          "durationTicks": 60,
          "midi": 68,
          "name": "G#4",
          "ticks": 4583,
          "time": 42.123116833333334,
          "velocity": 1
        },
        {
          "duration": 0.36764666666666557,
          "durationTicks": 40,
          "midi": 75,
          "name": "D#5",
          "ticks": 4607,
          "time": 42.343704833333334,
          "velocity": 1
        },
        {
          "duration": 1.268381000000005,
          "durationTicks": 138,
          "midi": 58,
          "name": "A#3",
          "ticks": 4655,
          "time": 42.78488083333333,
          "velocity": 0.7952755905511811
        },
        {
          "duration": 0.4411760000000058,
          "durationTicks": 48,
          "midi": 63,
          "name": "D#4",
          "ticks": 4655,
          "time": 42.78488083333333,
          "velocity": 1
        },
        {
          "duration": 0.6525728333333376,
          "durationTicks": 71,
          "midi": 72,
          "name": "C5",
          "ticks": 4656,
          "time": 42.794072,
          "velocity": 1
        },
        {
          "duration": 0.661763999999998,
          "durationTicks": 72,
          "midi": 68,
          "name": "G#4",
          "ticks": 4679,
          "time": 43.00546883333334,
          "velocity": 1
        },
        {
          "duration": 0.661763999999998,
          "durationTicks": 72,
          "midi": 63,
          "name": "D#4",
          "ticks": 4703,
          "time": 43.22605683333334,
          "velocity": 1
        },
        {
          "duration": 0.624999333333335,
          "durationTicks": 68,
          "midi": 72,
          "name": "C5",
          "ticks": 4727,
          "time": 43.44664483333334,
          "velocity": 1
        },
        {
          "duration": 0.4044113333333357,
          "durationTicks": 44,
          "midi": 68,
          "name": "G#4",
          "ticks": 4751,
          "time": 43.66723283333334,
          "velocity": 1
        },
        {
          "duration": 0.18382333333333634,
          "durationTicks": 20,
          "midi": 63,
          "name": "D#4",
          "ticks": 4775,
          "time": 43.887820833333336,
          "velocity": 1
        },
        {
          "duration": 1.1029399999999967,
          "durationTicks": 120,
          "midi": 65,
          "name": "F4",
          "ticks": 4799,
          "time": 44.108408833333336,
          "velocity": 1
        },
        {
          "duration": 0.4411759999999987,
          "durationTicks": 48,
          "midi": 68,
          "name": "G#4",
          "ticks": 4847,
          "time": 44.549584833333334,
          "velocity": 0.7086614173228346
        },
        {
          "duration": 1.7003658333333362,
          "durationTicks": 185,
          "midi": 60,
          "name": "C4",
          "ticks": 4847,
          "time": 44.549584833333334,
          "velocity": 0.7795275590551181
        },
        {
          "duration": 1.7003658333333362,
          "durationTicks": 185,
          "midi": 49,
          "name": "C#3",
          "ticks": 4847,
          "time": 44.549584833333334,
          "velocity": 0.5905511811023622
        },
        {
          "duration": 0.8823520000000045,
          "durationTicks": 96,
          "midi": 73,
          "name": "C#5",
          "ticks": 4871,
          "time": 44.77017283333333,
          "velocity": 1
        },
        {
          "duration": 1.1029400000000038,
          "durationTicks": 120,
          "midi": 68,
          "name": "G#4",
          "ticks": 4895,
          "time": 44.99076083333333,
          "velocity": 1
        },
        {
          "duration": 0.4411760000000058,
          "durationTicks": 48,
          "midi": 65,
          "name": "F4",
          "ticks": 4919,
          "time": 45.21134883333333,
          "velocity": 0.8740157480314961
        },
        {
          "duration": 0.4411759999999987,
          "durationTicks": 48,
          "midi": 75,
          "name": "D#5",
          "ticks": 4943,
          "time": 45.43193683333334,
          "velocity": 1
        },
        {
          "duration": 0.624999333333335,
          "durationTicks": 68,
          "midi": 65,
          "name": "F4",
          "ticks": 4967,
          "time": 45.65252483333334,
          "velocity": 0.7086614173228346
        },
        {
          "duration": 0.4044113333333357,
          "durationTicks": 44,
          "midi": 73,
          "name": "C#5",
          "ticks": 4991,
          "time": 45.87311283333334,
          "velocity": 1
        },
        {
          "duration": 0.18382333333333634,
          "durationTicks": 20,
          "midi": 68,
          "name": "G#4",
          "ticks": 5015,
          "time": 46.09370083333334,
          "velocity": 0.8031496062992126
        },
        {
          "duration": 1.7555128333333343,
          "durationTicks": 191,
          "midi": 54,
          "name": "F#3",
          "ticks": 5039,
          "time": 46.314288833333336,
          "velocity": 0.7795275590551181
        },
        {
          "duration": 0.4411759999999987,
          "durationTicks": 48,
          "midi": 65,
          "name": "F4",
          "ticks": 5039,
          "time": 46.314288833333336,
          "velocity": 0.6141732283464567
        },
        {
          "duration": 0.22058799999999934,
          "durationTicks": 24,
          "midi": 68,
          "name": "G#4",
          "ticks": 5039,
          "time": 46.314288833333336,
          "velocity": 0.6141732283464567
        },
        {
          "duration": 1.3143368333333356,
          "durationTicks": 143,
          "midi": 77,
          "name": "F5",
          "ticks": 5040,
          "time": 46.32348,
          "velocity": 1
        },
        {
          "duration": 0.661763999999998,
          "durationTicks": 72,
          "midi": 68,
          "name": "G#4",
          "ticks": 5063,
          "time": 46.534876833333335,
          "velocity": 0.9212598425196851
        },
        {
          "duration": 0.661763999999998,
          "durationTicks": 72,
          "midi": 65,
          "name": "F4",
          "ticks": 5087,
          "time": 46.755464833333335,
          "velocity": 0.8976377952755905
        },
        {
          "duration": 1.3235280000000031,
          "durationTicks": 144,
          "midi": 75,
          "name": "D#5",
          "ticks": 5111,
          "time": 46.976052833333334,
          "velocity": 1
        },
        {
          "duration": 0.6617640000000051,
          "durationTicks": 72,
          "midi": 68,
          "name": "G#4",
          "ticks": 5135,
          "time": 47.19664083333333,
          "velocity": 0.937007874015748
        },
        {
          "duration": 0.6617640000000051,
          "durationTicks": 72,
          "midi": 65,
          "name": "F4",
          "ticks": 5159,
          "time": 47.41722883333333,
          "velocity": 0.905511811023622
        },
        {
          "duration": 0.4411759999999987,
          "durationTicks": 48,
          "midi": 77,
          "name": "F5",
          "ticks": 5183,
          "time": 47.63781683333334,
          "velocity": 1
        },
        {
          "duration": 0.661763999999998,
          "durationTicks": 72,
          "midi": 68,
          "name": "G#4",
          "ticks": 5207,
          "time": 47.85840483333334,
          "velocity": 0.905511811023622
        },
        {
          "duration": 0.661763999999998,
          "durationTicks": 72,
          "midi": 65,
          "name": "F4",
          "ticks": 5231,
          "time": 48.07899283333334,
          "velocity": 0.8740157480314961
        },
        {
          "duration": 1.6544099999999986,
          "durationTicks": 180,
          "midi": 56,
          "name": "G#3",
          "ticks": 5232,
          "time": 48.088184,
          "velocity": 0.8031496062992126
        },
        {
          "duration": 1.1029399999999967,
          "durationTicks": 120,
          "midi": 75,
          "name": "D#5",
          "ticks": 5255,
          "time": 48.29958083333334,
          "velocity": 1
        },
        {
          "duration": 0.661763999999998,
          "durationTicks": 72,
          "midi": 68,
          "name": "G#4",
          "ticks": 5279,
          "time": 48.52016883333334,
          "velocity": 0.8976377952755905
        },
        {
          "duration": 0.9926460000000006,
          "durationTicks": 108,
          "midi": 65,
          "name": "F4",
          "ticks": 5303,
          "time": 48.740756833333336,
          "velocity": 1
        },
        {
          "duration": 0.4411759999999987,
          "durationTicks": 48,
          "midi": 73,
          "name": "C#5",
          "ticks": 5327,
          "time": 48.961344833333335,
          "velocity": 1
        },
        {
          "duration": 0.5514700000000019,
          "durationTicks": 60,
          "midi": 68,
          "name": "G#4",
          "ticks": 5351,
          "time": 49.181932833333335,
          "velocity": 1
        },
        {
          "duration": 0.36764666666666557,
          "durationTicks": 40,
          "midi": 75,
          "name": "D#5",
          "ticks": 5375,
          "time": 49.402520833333334,
          "velocity": 1
        },
        {
          "duration": 1.268381000000005,
          "durationTicks": 138,
          "midi": 58,
          "name": "A#3",
          "ticks": 5423,
          "time": 49.84369683333333,
          "velocity": 0.7952755905511811
        },
        {
          "duration": 0.4411760000000058,
          "durationTicks": 48,
          "midi": 63,
          "name": "D#4",
          "ticks": 5423,
          "time": 49.84369683333333,
          "velocity": 1
        },
        {
          "duration": 0.6525728333333376,
          "durationTicks": 71,
          "midi": 72,
          "name": "C5",
          "ticks": 5424,
          "time": 49.852888,
          "velocity": 1
        },
        {
          "duration": 0.661763999999998,
          "durationTicks": 72,
          "midi": 68,
          "name": "G#4",
          "ticks": 5447,
          "time": 50.06428483333334,
          "velocity": 1
        },
        {
          "duration": 0.661763999999998,
          "durationTicks": 72,
          "midi": 63,
          "name": "D#4",
          "ticks": 5471,
          "time": 50.28487283333334,
          "velocity": 1
        },
        {
          "duration": 0.624999333333335,
          "durationTicks": 68,
          "midi": 72,
          "name": "C5",
          "ticks": 5495,
          "time": 50.50546083333334,
          "velocity": 1
        },
        {
          "duration": 0.4044113333333357,
          "durationTicks": 44,
          "midi": 68,
          "name": "G#4",
          "ticks": 5519,
          "time": 50.72604883333334,
          "velocity": 1
        },
        {
          "duration": 0.18382333333333634,
          "durationTicks": 20,
          "midi": 63,
          "name": "D#4",
          "ticks": 5543,
          "time": 50.946636833333336,
          "velocity": 1
        },
        {
          "duration": 1.1029399999999967,
          "durationTicks": 120,
          "midi": 65,
          "name": "F4",
          "ticks": 5567,
          "time": 51.167224833333336,
          "velocity": 1
        },
        {
          "duration": 0.4411759999999987,
          "durationTicks": 48,
          "midi": 68,
          "name": "G#4",
          "ticks": 5615,
          "time": 51.608400833333334,
          "velocity": 0.7086614173228346
        },
        {
          "duration": 1.7003658333333362,
          "durationTicks": 185,
          "midi": 60,
          "name": "C4",
          "ticks": 5615,
          "time": 51.608400833333334,
          "velocity": 0.7795275590551181
        },
        {
          "duration": 1.7003658333333362,
          "durationTicks": 185,
          "midi": 49,
          "name": "C#3",
          "ticks": 5615,
          "time": 51.608400833333334,
          "velocity": 0.5905511811023622
        },
        {
          "duration": 0.8823520000000045,
          "durationTicks": 96,
          "midi": 73,
          "name": "C#5",
          "ticks": 5639,
          "time": 51.828988833333334,
          "velocity": 1
        },
        {
          "duration": 0.6617640000000051,
          "durationTicks": 72,
          "midi": 68,
          "name": "G#4",
          "ticks": 5663,
          "time": 52.04957683333333,
          "velocity": 1
        },
        {
          "duration": 0.4411760000000058,
          "durationTicks": 48,
          "midi": 65,
          "name": "F4",
          "ticks": 5687,
          "time": 52.27016483333333,
          "velocity": 0.9448818897637795
        },
        {
          "duration": 0.4411759999999987,
          "durationTicks": 48,
          "midi": 75,
          "name": "D#5",
          "ticks": 5711,
          "time": 52.49075283333334,
          "velocity": 1
        },
        {
          "duration": 0.4411759999999987,
          "durationTicks": 48,
          "midi": 68,
          "name": "G#4",
          "ticks": 5735,
          "time": 52.71134083333334,
          "velocity": 0.8188976377952756
        },
        {
          "duration": 0.4044113333333357,
          "durationTicks": 44,
          "midi": 73,
          "name": "C#5",
          "ticks": 5759,
          "time": 52.93192883333334,
          "velocity": 1
        },
        {
          "duration": 0.18382333333333634,
          "durationTicks": 20,
          "midi": 68,
          "name": "G#4",
          "ticks": 5783,
          "time": 53.15251683333334,
          "velocity": 0.8976377952755905
        },
        {
          "duration": 0.18382333333333634,
          "durationTicks": 20,
          "midi": 65,
          "name": "F4",
          "ticks": 5807,
          "time": 53.373104833333336,
          "velocity": 0.7795275590551181
        },
        {
          "duration": 0.18382333333333634,
          "durationTicks": 20,
          "midi": 70,
          "name": "A#4",
          "ticks": 5807,
          "time": 53.373104833333336,
          "velocity": 1
        },
        {
          "duration": 0.18382333333333634,
          "durationTicks": 20,
          "midi": 61,
          "name": "C#4",
          "ticks": 5831,
          "time": 53.593692833333336,
          "velocity": 0.7795275590551181
        },
        {
          "duration": 0.18382333333333634,
          "durationTicks": 20,
          "midi": 65,
          "name": "F4",
          "ticks": 5831,
          "time": 53.593692833333336,
          "velocity": 1
        },
        {
          "duration": 0.14705866666666623,
          "durationTicks": 16,
          "midi": 65,
          "name": "F4",
          "ticks": 5855,
          "time": 53.814280833333335,
          "velocity": 0.7795275590551181
        },
        {
          "duration": 0.14705866666666623,
          "durationTicks": 16,
          "midi": 70,
          "name": "A#4",
          "ticks": 5855,
          "time": 53.814280833333335,
          "velocity": 1
        },
        {
          "duration": 0.3860290000000006,
          "durationTicks": 42,
          "midi": 63,
          "name": "D#4",
          "ticks": 5879,
          "time": 54.034868833333334,
          "velocity": 0.7795275590551181
        },
        {
          "duration": 0.39522016666666815,
          "durationTicks": 43,
          "midi": 68,
          "name": "G#4",
          "ticks": 5879,
          "time": 54.034868833333334,
          "velocity": 1
        },
        {
          "duration": 0.18382333333333634,
          "durationTicks": 20,
          "midi": 61,
          "name": "C#4",
          "ticks": 5927,
          "time": 54.47604483333333,
          "velocity": 0.7795275590551181
        },
        {
          "duration": 0.18382333333333634,
          "durationTicks": 20,
          "midi": 66,
          "name": "F#4",
          "ticks": 5927,
          "time": 54.47604483333333,
          "velocity": 1
        },
        {
          "duration": 0.1746321666666688,
          "durationTicks": 19,
          "midi": 60,
          "name": "C4",
          "ticks": 5951,
          "time": 54.69663283333333,
          "velocity": 0.7795275590551181
        },
        {
          "duration": 0.1746321666666688,
          "durationTicks": 19,
          "midi": 65,
          "name": "F4",
          "ticks": 5951,
          "time": 54.69663283333333,
          "velocity": 1
        },
        {
          "duration": 0.3768378333333331,
          "durationTicks": 41,
          "midi": 61,
          "name": "C#4",
          "ticks": 5975,
          "time": 54.91722083333334,
          "velocity": 0.7795275590551181
        },
        {
          "duration": 0.3768378333333331,
          "durationTicks": 41,
          "midi": 66,
          "name": "F#4",
          "ticks": 5975,
          "time": 54.91722083333334,
          "velocity": 1
        },
        {
          "duration": 0.15624983333333375,
          "durationTicks": 17,
          "midi": 60,
          "name": "C4",
          "ticks": 6023,
          "time": 55.35839683333334,
          "velocity": 0.7795275590551181
        },
        {
          "duration": 0.15624983333333375,
          "durationTicks": 17,
          "midi": 65,
          "name": "F4",
          "ticks": 6023,
          "time": 55.35839683333334,
          "velocity": 1
        },
        {
          "duration": 0.1746321666666617,
          "durationTicks": 19,
          "midi": 58,
          "name": "A#3",
          "ticks": 6047,
          "time": 55.57898483333334,
          "velocity": 0.7795275590551181
        },
        {
          "duration": 0.1746321666666617,
          "durationTicks": 19,
          "midi": 63,
          "name": "D#4",
          "ticks": 6047,
          "time": 55.57898483333334,
          "velocity": 1
        },
        {
          "duration": 0.3860290000000006,
          "durationTicks": 42,
          "midi": 60,
          "name": "C4",
          "ticks": 6071,
          "time": 55.799572833333336,
          "velocity": 0.7795275590551181
        },
        {
          "duration": 0.3860290000000006,
          "durationTicks": 42,
          "midi": 65,
          "name": "F4",
          "ticks": 6071,
          "time": 55.799572833333336,
          "velocity": 1
        },
        {
          "duration": 0.15624983333333375,
          "durationTicks": 17,
          "midi": 58,
          "name": "A#3",
          "ticks": 6119,
          "time": 56.240748833333335,
          "velocity": 0.7795275590551181
        },
        {
          "duration": 0.15624983333333375,
          "durationTicks": 17,
          "midi": 63,
          "name": "D#4",
          "ticks": 6119,
          "time": 56.240748833333335,
          "velocity": 1
        },
        {
          "duration": 0.3860290000000006,
          "durationTicks": 42,
          "midi": 56,
          "name": "G#3",
          "ticks": 6143,
          "time": 56.461336833333334,
          "velocity": 0.7795275590551181
        },
        {
          "duration": 0.39522016666666815,
          "durationTicks": 43,
          "midi": 60,
          "name": "C4",
          "ticks": 6143,
          "time": 56.461336833333334,
          "velocity": 1
        },
        {
          "duration": 0.15624983333334086,
          "durationTicks": 17,
          "midi": 58,
          "name": "A#3",
          "ticks": 6191,
          "time": 56.90251283333333,
          "velocity": 0.7795275590551181
        },
        {
          "duration": 0.15624983333334086,
          "durationTicks": 17,
          "midi": 61,
          "name": "C#4",
          "ticks": 6191,
          "time": 56.90251283333333,
          "velocity": 1
        },
        {
          "duration": 0.1746321666666617,
          "durationTicks": 19,
          "midi": 56,
          "name": "G#3",
          "ticks": 6215,
          "time": 57.12310083333334,
          "velocity": 0.7795275590551181
        },
        {
          "duration": 0.1746321666666617,
          "durationTicks": 19,
          "midi": 60,
          "name": "C4",
          "ticks": 6215,
          "time": 57.12310083333334,
          "velocity": 1
        },
        {
          "duration": 0.1378674999999987,
          "durationTicks": 15,
          "midi": 58,
          "name": "A#3",
          "ticks": 6239,
          "time": 57.34368883333334,
          "velocity": 0.7795275590551181
        },
        {
          "duration": 0.1378674999999987,
          "durationTicks": 15,
          "midi": 61,
          "name": "C#4",
          "ticks": 6239,
          "time": 57.34368883333334,
          "velocity": 1
        },
        {
          "duration": 0.3768378333333331,
          "durationTicks": 41,
          "midi": 60,
          "name": "C4",
          "ticks": 6263,
          "time": 57.56427683333334,
          "velocity": 0.7795275590551181
        },
        {
          "duration": 0.3768378333333331,
          "durationTicks": 41,
          "midi": 63,
          "name": "D#4",
          "ticks": 6263,
          "time": 57.56427683333334,
          "velocity": 1
        },
        {
          "duration": 0.15624983333333375,
          "durationTicks": 17,
          "midi": 58,
          "name": "A#3",
          "ticks": 6311,
          "time": 58.00545283333334,
          "velocity": 0.7795275590551181
        },
        {
          "duration": 0.15624983333333375,
          "durationTicks": 17,
          "midi": 61,
          "name": "C#4",
          "ticks": 6311,
          "time": 58.00545283333334,
          "velocity": 1
        },
        {
          "duration": 0.14705866666667333,
          "durationTicks": 16,
          "midi": 60,
          "name": "C4",
          "ticks": 6335,
          "time": 58.226040833333336,
          "velocity": 0.7795275590551181
        },
        {
          "duration": 0.14705866666667333,
          "durationTicks": 16,
          "midi": 63,
          "name": "D#4",
          "ticks": 6335,
          "time": 58.226040833333336,
          "velocity": 1
        },
        {
          "duration": 1.5257336666666532,
          "durationTicks": 166,
          "midi": 62,
          "name": "D4",
          "ticks": 6360,
          "time": 58.45582000000001,
          "velocity": 0.7795275590551181
        },
        {
          "duration": 1.5257336666666532,
          "durationTicks": 166,
          "midi": 65,
          "name": "F4",
          "ticks": 6360,
          "time": 58.45582000000001,
          "velocity": 1
        },
        {
          "duration": 0.4411759999999987,
          "durationTicks": 48,
          "midi": 54,
          "name": "F#3",
          "ticks": 6575,
          "time": 60.431920833333336,
          "velocity": 0.7874015748031497
        },
        {
          "duration": 0.4411759999999987,
          "durationTicks": 48,
          "midi": 61,
          "name": "C#4",
          "ticks": 6575,
          "time": 60.431920833333336,
          "velocity": 0.7795275590551181
        },
        {
          "duration": 0.4411759999999987,
          "durationTicks": 48,
          "midi": 65,
          "name": "F4",
          "ticks": 6575,
          "time": 60.431920833333336,
          "velocity": 0.8976377952755905
        },
        {
          "duration": 0.43198483333333115,
          "durationTicks": 47,
          "midi": 68,
          "name": "G#4",
          "ticks": 6576,
          "time": 60.441112000000004,
          "velocity": 0.7637795275590551
        },
        {
          "duration": 0.43198483333333115,
          "durationTicks": 47,
          "midi": 75,
          "name": "D#5",
          "ticks": 6576,
          "time": 60.441112000000004,
          "velocity": 0.7559055118110236
        },
        {
          "duration": 0.22058799999999934,
          "durationTicks": 24,
          "midi": 68,
          "name": "G#4",
          "ticks": 6623,
          "time": 60.873096833333335,
          "velocity": 0.8661417322834646
        },
        {
          "duration": 0.22058799999999934,
          "durationTicks": 24,
          "midi": 73,
          "name": "C#5",
          "ticks": 6623,
          "time": 60.873096833333335,
          "velocity": 0.7795275590551181
        },
        {
          "duration": 0.2113968333333247,
          "durationTicks": 23,
          "midi": 77,
          "name": "F5",
          "ticks": 6624,
          "time": 60.88228800000001,
          "velocity": 0.8740157480314961
        },
        {
          "duration": 0.01838233333332795,
          "durationTicks": 2,
          "midi": 68,
          "name": "G#4",
          "ticks": 6647,
          "time": 61.093684833333334,
          "velocity": 0.8976377952755905
        },
        {
          "duration": 0.009191166666653316,
          "durationTicks": 1,
          "midi": 73,
          "name": "C#5",
          "ticks": 6648,
          "time": 61.10287600000001,
          "velocity": 0.8740157480314961
        },
        {
          "duration": 0.009191166666667527,
          "durationTicks": 1,
          "midi": 63,
          "name": "D#4",
          "ticks": 6659,
          "time": 61.20397883333334,
          "velocity": 0.8976377952755905
        },
        {
          "duration": 0.22058799999999934,
          "durationTicks": 24,
          "midi": 54,
          "name": "F#3",
          "ticks": 6671,
          "time": 61.314272833333334,
          "velocity": 0.7874015748031497
        },
        {
          "duration": 0.22058799999999934,
          "durationTicks": 24,
          "midi": 61,
          "name": "C#4",
          "ticks": 6671,
          "time": 61.314272833333334,
          "velocity": 0.8110236220472441
        },
        {
          "duration": 0.2113968333333247,
          "durationTicks": 23,
          "midi": 65,
          "name": "F4",
          "ticks": 6672,
          "time": 61.32346400000001,
          "velocity": 0.84251968503937
        },
        {
          "duration": 0.2113968333333247,
          "durationTicks": 23,
          "midi": 68,
          "name": "G#4",
          "ticks": 6672,
          "time": 61.32346400000001,
          "velocity": 0.8031496062992126
        },
        {
          "duration": 0.2113968333333247,
          "durationTicks": 23,
          "midi": 75,
          "name": "D#5",
          "ticks": 6672,
          "time": 61.32346400000001,
          "velocity": 0.8740157480314961
        },
        {
          "duration": 0.22058800000000645,
          "durationTicks": 24,
          "midi": 65,
          "name": "F4",
          "ticks": 6695,
          "time": 61.53486083333333,
          "velocity": 0.8661417322834646
        },
        {
          "duration": 0.22058800000000645,
          "durationTicks": 24,
          "midi": 68,
          "name": "G#4",
          "ticks": 6695,
          "time": 61.53486083333333,
          "velocity": 0.7637795275590551
        },
        {
          "duration": 0.22058800000000645,
          "durationTicks": 24,
          "midi": 73,
          "name": "C#5",
          "ticks": 6695,
          "time": 61.53486083333333,
          "velocity": 0.7874015748031497
        },
        {
          "duration": 0.2113968333333318,
          "durationTicks": 23,
          "midi": 77,
          "name": "F5",
          "ticks": 6696,
          "time": 61.54405200000001,
          "velocity": 0.8740157480314961
        },
        {
          "duration": 0.01838233333332795,
          "durationTicks": 2,
          "midi": 68,
          "name": "G#4",
          "ticks": 6719,
          "time": 61.75544883333334,
          "velocity": 0.905511811023622
        },
        {
          "duration": 0.009191166666660422,
          "durationTicks": 1,
          "midi": 73,
          "name": "C#5",
          "ticks": 6720,
          "time": 61.76464000000001,
          "velocity": 0.8740157480314961
        },
        {
          "duration": 0.009191166666674633,
          "durationTicks": 1,
          "midi": 66,
          "name": "F#4",
          "ticks": 6731,
          "time": 61.865742833333336,
          "velocity": 0.8976377952755905
        },
        {
          "duration": 0.4411759999999987,
          "durationTicks": 48,
          "midi": 56,
          "name": "G#3",
          "ticks": 6743,
          "time": 61.97603683333334,
          "velocity": 0.7637795275590551
        },
        {
          "duration": 0.4411759999999987,
          "durationTicks": 48,
          "midi": 61,
          "name": "C#4",
          "ticks": 6743,
          "time": 61.97603683333334,
          "velocity": 0.8582677165354331
        },
        {
          "duration": 0.4411759999999987,
          "durationTicks": 48,
          "midi": 65,
          "name": "F4",
          "ticks": 6743,
          "time": 61.97603683333334,
          "velocity": 0.8661417322834646
        },
        {
          "duration": 0.43198483333333115,
          "durationTicks": 47,
          "midi": 68,
          "name": "G#4",
          "ticks": 6744,
          "time": 61.985228000000006,
          "velocity": 0.9212598425196851
        },
        {
          "duration": 0.43198483333333115,
          "durationTicks": 47,
          "midi": 75,
          "name": "D#5",
          "ticks": 6744,
          "time": 61.985228000000006,
          "velocity": 0.84251968503937
        },
        {
          "duration": 0.22058799999999934,
          "durationTicks": 24,
          "midi": 60,
          "name": "C4",
          "ticks": 6791,
          "time": 62.41721283333334,
          "velocity": 0.7401574803149606
        },
        {
          "duration": 0.22058799999999934,
          "durationTicks": 24,
          "midi": 65,
          "name": "F4",
          "ticks": 6791,
          "time": 62.41721283333334,
          "velocity": 0.905511811023622
        },
        {
          "duration": 0.2113968333333318,
          "durationTicks": 23,
          "midi": 68,
          "name": "G#4",
          "ticks": 6792,
          "time": 62.426404000000005,
          "velocity": 0.7637795275590551
        },
        {
          "duration": 0.2113968333333318,
          "durationTicks": 23,
          "midi": 75,
          "name": "D#5",
          "ticks": 6792,
          "time": 62.426404000000005,
          "velocity": 0.7952755905511811
        },
        {
          "duration": 0.22058799999999934,
          "durationTicks": 24,
          "midi": 68,
          "name": "G#4",
          "ticks": 6815,
          "time": 62.63780083333334,
          "velocity": 0.8110236220472441
        },
        {
          "duration": 0.22058799999999934,
          "durationTicks": 24,
          "midi": 72,
          "name": "C5",
          "ticks": 6815,
          "time": 62.63780083333334,
          "velocity": 0.7559055118110236
        },
        {
          "duration": 0.2113968333333318,
          "durationTicks": 23,
          "midi": 75,
          "name": "D#5",
          "ticks": 6816,
          "time": 62.646992000000004,
          "velocity": 0.7637795275590551
        },
        {
          "duration": 0.2113968333333318,
          "durationTicks": 23,
          "midi": 80,
          "name": "G#5",
          "ticks": 6816,
          "time": 62.646992000000004,
          "velocity": 0.7401574803149606
        },
        {
          "duration": 0.01838233333332795,
          "durationTicks": 2,
          "midi": 61,
          "name": "C#4",
          "ticks": 6839,
          "time": 62.858388833333336,
          "velocity": 0.9133858267716536
        },
        {
          "duration": 0.009191166666660422,
          "durationTicks": 1,
          "midi": 65,
          "name": "F4",
          "ticks": 6840,
          "time": 62.867580000000004,
          "velocity": 0.7716535433070866
        },
        {
          "duration": 0.009191166666667527,
          "durationTicks": 1,
          "midi": 61,
          "name": "C#4",
          "ticks": 6851,
          "time": 62.96868283333334,
          "velocity": 0.8976377952755905
        },
        {
          "duration": 0.22058799999999934,
          "durationTicks": 24,
          "midi": 56,
          "name": "G#3",
          "ticks": 6863,
          "time": 63.078976833333336,
          "velocity": 0.7637795275590551
        },
        {
          "duration": 0.22058799999999934,
          "durationTicks": 24,
          "midi": 60,
          "name": "C4",
          "ticks": 6863,
          "time": 63.078976833333336,
          "velocity": 0.7401574803149606
        },
        {
          "duration": 0.22058799999999934,
          "durationTicks": 24,
          "midi": 65,
          "name": "F4",
          "ticks": 6863,
          "time": 63.078976833333336,
          "velocity": 0.889763779527559
        },
        {
          "duration": 0.2113968333333247,
          "durationTicks": 23,
          "midi": 68,
          "name": "G#4",
          "ticks": 6864,
          "time": 63.08816800000001,
          "velocity": 0.7952755905511811
        },
        {
          "duration": 0.2113968333333247,
          "durationTicks": 23,
          "midi": 75,
          "name": "D#5",
          "ticks": 6864,
          "time": 63.08816800000001,
          "velocity": 0.8818897637795275
        },
        {
          "duration": 0.2113968333333318,
          "durationTicks": 23,
          "midi": 63,
          "name": "D#4",
          "ticks": 6887,
          "time": 63.299564833333335,
          "velocity": 0.8661417322834646
        },
        {
          "duration": 0.2113968333333318,
          "durationTicks": 23,
          "midi": 68,
          "name": "G#4",
          "ticks": 6887,
          "time": 63.299564833333335,
          "velocity": 0.889763779527559
        },
        {
          "duration": 0.43198483333332405,
          "durationTicks": 47,
          "midi": 72,
          "name": "C5",
          "ticks": 6888,
          "time": 63.30875600000001,
          "velocity": 0.8661417322834646
        },
        {
          "duration": 0.22058799999999934,
          "durationTicks": 24,
          "midi": 68,
          "name": "G#4",
          "ticks": 6911,
          "time": 63.520152833333334,
          "velocity": 0.8110236220472441
        },
        {
          "duration": 0.2113968333333247,
          "durationTicks": 23,
          "midi": 75,
          "name": "D#5",
          "ticks": 6912,
          "time": 63.52934400000001,
          "velocity": 0.8110236220472441
        },
        {
          "duration": 0.2113968333333247,
          "durationTicks": 23,
          "midi": 80,
          "name": "G#5",
          "ticks": 6912,
          "time": 63.52934400000001,
          "velocity": 0.8661417322834646
        },
        {
          "duration": 0.018382333333335055,
          "durationTicks": 2,
          "midi": 61,
          "name": "C#4",
          "ticks": 6935,
          "time": 63.740740833333334,
          "velocity": 0.9133858267716536
        },
        {
          "duration": 0.009191166666660422,
          "durationTicks": 1,
          "midi": 65,
          "name": "F4",
          "ticks": 6936,
          "time": 63.74993200000001,
          "velocity": 0.7716535433070866
        },
        {
          "duration": 0.11029399999999612,
          "durationTicks": 12,
          "midi": 68,
          "name": "G#4",
          "ticks": 6947,
          "time": 63.85103483333334,
          "velocity": 0.8976377952755905
        },
        {
          "duration": 0.4411760000000058,
          "durationTicks": 48,
          "midi": 56,
          "name": "G#3",
          "ticks": 6959,
          "time": 63.96132883333333,
          "velocity": 0.7952755905511811
        },
        {
          "duration": 0.4411760000000058,
          "durationTicks": 48,
          "midi": 60,
          "name": "C4",
          "ticks": 6959,
          "time": 63.96132883333333,
          "velocity": 0.7952755905511811
        },
        {
          "duration": 0.4411760000000058,
          "durationTicks": 48,
          "midi": 63,
          "name": "D#4",
          "ticks": 6959,
          "time": 63.96132883333333,
          "velocity": 0.905511811023622
        },
        {
          "duration": 0.43198483333333115,
          "durationTicks": 47,
          "midi": 68,
          "name": "G#4",
          "ticks": 6960,
          "time": 63.97052000000001,
          "velocity": 0.7637795275590551
        },
        {
          "duration": 0.43198483333333115,
          "durationTicks": 47,
          "midi": 72,
          "name": "C5",
          "ticks": 6960,
          "time": 63.97052000000001,
          "velocity": 0.7401574803149606
        },
        {
          "duration": 0.22058799999999223,
          "durationTicks": 24,
          "midi": 56,
          "name": "G#3",
          "ticks": 7007,
          "time": 64.40250483333334,
          "velocity": 0.7086614173228346
        },
        {
          "duration": 0.22058799999999223,
          "durationTicks": 24,
          "midi": 60,
          "name": "C4",
          "ticks": 7007,
          "time": 64.40250483333334,
          "velocity": 0.7086614173228346
        },
        {
          "duration": 0.22058799999999223,
          "durationTicks": 24,
          "midi": 63,
          "name": "D#4",
          "ticks": 7007,
          "time": 64.40250483333334,
          "velocity": 0.7952755905511811
        },
        {
          "duration": 0.22058799999999223,
          "durationTicks": 24,
          "midi": 68,
          "name": "G#4",
          "ticks": 7007,
          "time": 64.40250483333334,
          "velocity": 0.8976377952755905
        },
        {
          "duration": 0.2113968333333247,
          "durationTicks": 23,
          "midi": 72,
          "name": "C5",
          "ticks": 7008,
          "time": 64.411696,
          "velocity": 0.7637795275590551
        },
        {
          "duration": 0.018382333333335055,
          "durationTicks": 2,
          "midi": 56,
          "name": "G#3",
          "ticks": 7031,
          "time": 64.62309283333333,
          "velocity": 0.7795275590551181
        },
        {
          "duration": 0.009191166666667527,
          "durationTicks": 1,
          "midi": 63,
          "name": "D#4",
          "ticks": 7032,
          "time": 64.632284,
          "velocity": 0.889763779527559
        },
        {
          "duration": 0.009191166666681738,
          "durationTicks": 1,
          "midi": 68,
          "name": "G#4",
          "ticks": 7043,
          "time": 64.73338683333333,
          "velocity": 0.8976377952755905
        },
        {
          "duration": 0.22058799999999223,
          "durationTicks": 24,
          "midi": 56,
          "name": "G#3",
          "ticks": 7055,
          "time": 64.84368083333334,
          "velocity": 0.7874015748031497
        },
        {
          "duration": 0.22058799999999223,
          "durationTicks": 24,
          "midi": 60,
          "name": "C4",
          "ticks": 7055,
          "time": 64.84368083333334,
          "velocity": 0.7637795275590551
        },
        {
          "duration": 0.22058799999999223,
          "durationTicks": 24,
          "midi": 63,
          "name": "D#4",
          "ticks": 7055,
          "time": 64.84368083333334,
          "velocity": 0.905511811023622
        },
        {
          "duration": 0.2113968333333247,
          "durationTicks": 23,
          "midi": 68,
          "name": "G#4",
          "ticks": 7056,
          "time": 64.852872,
          "velocity": 0.7637795275590551
        },
        {
          "duration": 0.2113968333333247,
          "durationTicks": 23,
          "midi": 72,
          "name": "C5",
          "ticks": 7056,
          "time": 64.852872,
          "velocity": 0.7401574803149606
        },
        {
          "duration": 0.22058800000000645,
          "durationTicks": 24,
          "midi": 56,
          "name": "G#3",
          "ticks": 7079,
          "time": 65.06426883333333,
          "velocity": 0.7322834645669292
        },
        {
          "duration": 0.22058800000000645,
          "durationTicks": 24,
          "midi": 63,
          "name": "D#4",
          "ticks": 7079,
          "time": 65.06426883333333,
          "velocity": 0.905511811023622
        },
        {
          "duration": 0.22058800000000645,
          "durationTicks": 24,
          "midi": 68,
          "name": "G#4",
          "ticks": 7079,
          "time": 65.06426883333333,
          "velocity": 0.7952755905511811
        },
        {
          "duration": 0.21139683333333892,
          "durationTicks": 23,
          "midi": 72,
          "name": "C5",
          "ticks": 7080,
          "time": 65.07346,
          "velocity": 0.7480314960629921
        },
        {
          "duration": 0.018382333333320844,
          "durationTicks": 2,
          "midi": 56,
          "name": "G#3",
          "ticks": 7103,
          "time": 65.28485683333334,
          "velocity": 0.7795275590551181
        },
        {
          "duration": 0.009191166666653316,
          "durationTicks": 1,
          "midi": 63,
          "name": "D#4",
          "ticks": 7104,
          "time": 65.294048,
          "velocity": 0.889763779527559
        },
        {
          "duration": 0.009191166666667527,
          "durationTicks": 1,
          "midi": 65,
          "name": "F4",
          "ticks": 7115,
          "time": 65.39515083333333,
          "velocity": 0.8976377952755905
        },
        {
          "duration": 0.4411759999999987,
          "durationTicks": 48,
          "midi": 56,
          "name": "G#3",
          "ticks": 7127,
          "time": 65.50544483333333,
          "velocity": 0.6850393700787402
        },
        {
          "duration": 0.4411759999999987,
          "durationTicks": 48,
          "midi": 60,
          "name": "C4",
          "ticks": 7127,
          "time": 65.50544483333333,
          "velocity": 0.7716535433070866
        },
        {
          "duration": 0.4411759999999987,
          "durationTicks": 48,
          "midi": 63,
          "name": "D#4",
          "ticks": 7127,
          "time": 65.50544483333333,
          "velocity": 0.889763779527559
        },
        {
          "duration": 0.4411759999999987,
          "durationTicks": 48,
          "midi": 68,
          "name": "G#4",
          "ticks": 7127,
          "time": 65.50544483333333,
          "velocity": 0.6141732283464567
        },
        {
          "duration": 0.43198483333331694,
          "durationTicks": 47,
          "midi": 72,
          "name": "C5",
          "ticks": 7128,
          "time": 65.51463600000001,
          "velocity": 0.7795275590551181
        },
        {
          "duration": 0.22058800000000645,
          "durationTicks": 24,
          "midi": 56,
          "name": "G#3",
          "ticks": 7175,
          "time": 65.94662083333333,
          "velocity": 0.6850393700787402
        },
        {
          "duration": 0.22058800000000645,
          "durationTicks": 24,
          "midi": 60,
          "name": "C4",
          "ticks": 7175,
          "time": 65.94662083333333,
          "velocity": 0.7716535433070866
        },
        {
          "duration": 0.22058800000000645,
          "durationTicks": 24,
          "midi": 63,
          "name": "D#4",
          "ticks": 7175,
          "time": 65.94662083333333,
          "velocity": 0.8110236220472441
        },
        {
          "duration": 0.21139683333333892,
          "durationTicks": 23,
          "midi": 68,
          "name": "G#4",
          "ticks": 7176,
          "time": 65.955812,
          "velocity": 0.6771653543307087
        },
        {
          "duration": 0.21139683333333892,
          "durationTicks": 23,
          "midi": 72,
          "name": "C5",
          "ticks": 7176,
          "time": 65.955812,
          "velocity": 0.8267716535433071
        },
        {
          "duration": 0.018382333333320844,
          "durationTicks": 2,
          "midi": 56,
          "name": "G#3",
          "ticks": 7199,
          "time": 66.16720883333333,
          "velocity": 0.7795275590551181
        },
        {
          "duration": 0.009191166666653316,
          "durationTicks": 1,
          "midi": 63,
          "name": "D#4",
          "ticks": 7200,
          "time": 66.1764,
          "velocity": 0.889763779527559
        },
        {
          "duration": 0.009191166666667527,
          "durationTicks": 1,
          "midi": 68,
          "name": "G#4",
          "ticks": 7211,
          "time": 66.27750283333333,
          "velocity": 0.8976377952755905
        },
        {
          "duration": 0.4411759999999987,
          "durationTicks": 48,
          "midi": 58,
          "name": "A#3",
          "ticks": 7223,
          "time": 66.38779683333333,
          "velocity": 0.8582677165354331
        },
        {
          "duration": 0.4411759999999987,
          "durationTicks": 48,
          "midi": 61,
          "name": "C#4",
          "ticks": 7223,
          "time": 66.38779683333333,
          "velocity": 0.889763779527559
        },
        {
          "duration": 0.4411759999999987,
          "durationTicks": 48,
          "midi": 65,
          "name": "F4",
          "ticks": 7223,
          "time": 66.38779683333333,
          "velocity": 0.7716535433070866
        },
        {
          "duration": 0.43198483333333115,
          "durationTicks": 47,
          "midi": 68,
          "name": "G#4",
          "ticks": 7224,
          "time": 66.396988,
          "velocity": 0.7952755905511811
        },
        {
          "duration": 0.43198483333333115,
          "durationTicks": 47,
          "midi": 73,
          "name": "C#5",
          "ticks": 7224,
          "time": 66.396988,
          "velocity": 0.8110236220472441
        },
        {
          "duration": 0.22058800000000645,
          "durationTicks": 24,
          "midi": 58,
          "name": "A#3",
          "ticks": 7271,
          "time": 66.82897283333332,
          "velocity": 0.7874015748031497
        },
        {
          "duration": 0.22058800000000645,
          "durationTicks": 24,
          "midi": 61,
          "name": "C#4",
          "ticks": 7271,
          "time": 66.82897283333332,
          "velocity": 0.7637795275590551
        },
        {
          "duration": 0.22058800000000645,
          "durationTicks": 24,
          "midi": 65,
          "name": "F4",
          "ticks": 7271,
          "time": 66.82897283333332,
          "velocity": 0.7952755905511811
        },
        {
          "duration": 0.2113968333333247,
          "durationTicks": 23,
          "midi": 68,
          "name": "G#4",
          "ticks": 7272,
          "time": 66.838164,
          "velocity": 0.7716535433070866
        },
        {
          "duration": 0.2113968333333247,
          "durationTicks": 23,
          "midi": 73,
          "name": "C#5",
          "ticks": 7272,
          "time": 66.838164,
          "velocity": 0.905511811023622
        },
        {
          "duration": 0.11029399999999612,
          "durationTicks": 12,
          "midi": 61,
          "name": "C#4",
          "ticks": 7295,
          "time": 67.04956083333333,
          "velocity": 0.84251968503937
        },
        {
          "duration": 0.11029399999999612,
          "durationTicks": 12,
          "midi": 73,
          "name": "C#5",
          "ticks": 7295,
          "time": 67.04956083333333,
          "velocity": 0.889763779527559
        },
        {
          "duration": 0.009191166666667527,
          "durationTicks": 1,
          "midi": 73,
          "name": "C#5",
          "ticks": 7307,
          "time": 67.15985483333333,
          "velocity": 0.8976377952755905
        },
        {
          "duration": 0.15624983333333375,
          "durationTicks": 17,
          "midi": 54,
          "name": "F#3",
          "ticks": 7319,
          "time": 67.27014883333332,
          "velocity": 0.8976377952755905
        },
        {
          "duration": 0.4411759999999987,
          "durationTicks": 48,
          "midi": 54,
          "name": "F#3",
          "ticks": 7343,
          "time": 67.49073683333333,
          "velocity": 0.7874015748031497
        },
        {
          "duration": 0.4411759999999987,
          "durationTicks": 48,
          "midi": 61,
          "name": "C#4",
          "ticks": 7343,
          "time": 67.49073683333333,
          "velocity": 0.7795275590551181
        },
        {
          "duration": 0.4411759999999987,
          "durationTicks": 48,
          "midi": 65,
          "name": "F4",
          "ticks": 7343,
          "time": 67.49073683333333,
          "velocity": 0.8346456692913385
        },
        {
          "duration": 0.43198483333333115,
          "durationTicks": 47,
          "midi": 68,
          "name": "G#4",
          "ticks": 7344,
          "time": 67.499928,
          "velocity": 0.7637795275590551
        },
        {
          "duration": 0.43198483333333115,
          "durationTicks": 47,
          "midi": 73,
          "name": "C#5",
          "ticks": 7344,
          "time": 67.499928,
          "velocity": 0.8031496062992126
        },
        {
          "duration": 0.018382333333335055,
          "durationTicks": 2,
          "midi": 65,
          "name": "F4",
          "ticks": 7391,
          "time": 67.93191283333333,
          "velocity": 0.8976377952755905
        },
        {
          "duration": 0.009191166666667527,
          "durationTicks": 1,
          "midi": 68,
          "name": "G#4",
          "ticks": 7392,
          "time": 67.941104,
          "velocity": 0.8740157480314961
        },
        {
          "duration": 0.11029400000001033,
          "durationTicks": 12,
          "midi": 72,
          "name": "C5",
          "ticks": 7403,
          "time": 68.04220683333332,
          "velocity": 0.8188976377952756
        },
        {
          "duration": 0.22058799999999223,
          "durationTicks": 24,
          "midi": 61,
          "name": "C#4",
          "ticks": 7415,
          "time": 68.15250083333333,
          "velocity": 0.8582677165354331
        },
        {
          "duration": 0.2113968333333247,
          "durationTicks": 23,
          "midi": 73,
          "name": "C#5",
          "ticks": 7416,
          "time": 68.161692,
          "velocity": 0.9133858267716536
        },
        {
          "duration": 0.22058800000000645,
          "durationTicks": 24,
          "midi": 54,
          "name": "F#3",
          "ticks": 7439,
          "time": 68.37308883333333,
          "velocity": 0.7874015748031497
        },
        {
          "duration": 0.22058800000000645,
          "durationTicks": 24,
          "midi": 61,
          "name": "C#4",
          "ticks": 7439,
          "time": 68.37308883333333,
          "velocity": 0.8110236220472441
        },
        {
          "duration": 0.21139683333333892,
          "durationTicks": 23,
          "midi": 63,
          "name": "D#4",
          "ticks": 7440,
          "time": 68.38228,
          "velocity": 0.8976377952755905
        },
        {
          "duration": 0.21139683333333892,
          "durationTicks": 23,
          "midi": 68,
          "name": "G#4",
          "ticks": 7440,
          "time": 68.38228,
          "velocity": 0.8031496062992126
        },
        {
          "duration": 0.22058799999999223,
          "durationTicks": 24,
          "midi": 54,
          "name": "F#3",
          "ticks": 7463,
          "time": 68.59367683333333,
          "velocity": 0.8661417322834646
        },
        {
          "duration": 0.22058799999999223,
          "durationTicks": 24,
          "midi": 61,
          "name": "C#4",
          "ticks": 7463,
          "time": 68.59367683333333,
          "velocity": 0.7637795275590551
        },
        {
          "duration": 0.22058799999999223,
          "durationTicks": 24,
          "midi": 65,
          "name": "F4",
          "ticks": 7463,
          "time": 68.59367683333333,
          "velocity": 0.7874015748031497
        },
        {
          "duration": 0.2113968333333247,
          "durationTicks": 23,
          "midi": 70,
          "name": "A#4",
          "ticks": 7464,
          "time": 68.602868,
          "velocity": 0.8740157480314961
        },
        {
          "duration": 0.11029400000001033,
          "durationTicks": 12,
          "midi": 65,
          "name": "F4",
          "ticks": 7487,
          "time": 68.81426483333333,
          "velocity": 0.7480314960629921
        },
        {
          "duration": 0.11029400000001033,
          "durationTicks": 12,
          "midi": 68,
          "name": "G#4",
          "ticks": 7487,
          "time": 68.81426483333333,
          "velocity": 0.905511811023622
        },
        {
          "duration": 0.1011028333333428,
          "durationTicks": 11,
          "midi": 73,
          "name": "C#5",
          "ticks": 7488,
          "time": 68.823456,
          "velocity": 0.8740157480314961
        },
        {
          "duration": 0.009191166666667527,
          "durationTicks": 1,
          "midi": 66,
          "name": "F#4",
          "ticks": 7499,
          "time": 68.92455883333334,
          "velocity": 0.8976377952755905
        },
        {
          "duration": 0.018382333333320844,
          "durationTicks": 2,
          "midi": 65,
          "name": "F4",
          "ticks": 7511,
          "time": 69.03485283333333,
          "velocity": 0.8976377952755905
        },
        {
          "duration": 0.009191166666653316,
          "durationTicks": 1,
          "midi": 68,
          "name": "G#4",
          "ticks": 7512,
          "time": 69.044044,
          "velocity": 0.8740157480314961
        },
        {
          "duration": 0.11029399999999612,
          "durationTicks": 12,
          "midi": 57,
          "name": "A3",
          "ticks": 7523,
          "time": 69.14514683333333,
          "velocity": 0.7874015748031497
        },
        {
          "duration": 0.10110283333332859,
          "durationTicks": 11,
          "midi": 69,
          "name": "A4",
          "ticks": 7524,
          "time": 69.154338,
          "velocity": 0.84251968503937
        },
        {
          "duration": 0.4411759999999987,
          "durationTicks": 48,
          "midi": 53,
          "name": "F3",
          "ticks": 7535,
          "time": 69.25544083333332,
          "velocity": 0.7874015748031497
        },
        {
          "duration": 0.4411759999999987,
          "durationTicks": 48,
          "midi": 60,
          "name": "C4",
          "ticks": 7535,
          "time": 69.25544083333332,
          "velocity": 0.7795275590551181
        },
        {
          "duration": 0.4411759999999987,
          "durationTicks": 48,
          "midi": 63,
          "name": "D#4",
          "ticks": 7535,
          "time": 69.25544083333332,
          "velocity": 0.8976377952755905
        },
        {
          "duration": 0.43198483333331694,
          "durationTicks": 47,
          "midi": 69,
          "name": "A4",
          "ticks": 7536,
          "time": 69.264632,
          "velocity": 0.7637795275590551
        },
        {
          "duration": 0.43198483333331694,
          "durationTicks": 47,
          "midi": 72,
          "name": "C5",
          "ticks": 7536,
          "time": 69.264632,
          "velocity": 0.8267716535433071
        },
        {
          "duration": 0.018382333333335055,
          "durationTicks": 2,
          "midi": 63,
          "name": "D#4",
          "ticks": 7583,
          "time": 69.69661683333332,
          "velocity": 0.8976377952755905
        },
        {
          "duration": 0.009191166666653316,
          "durationTicks": 1,
          "midi": 69,
          "name": "A4",
          "ticks": 7584,
          "time": 69.705808,
          "velocity": 0.8740157480314961
        },
        {
          "duration": 0.009191166666667527,
          "durationTicks": 1,
          "midi": 72,
          "name": "C5",
          "ticks": 7595,
          "time": 69.80691083333333,
          "velocity": 0.8976377952755905
        },
        {
          "duration": 0.4136024999999961,
          "durationTicks": 45,
          "midi": 63,
          "name": "D#4",
          "ticks": 7607,
          "time": 69.91720483333333,
          "velocity": 0.84251968503937
        },
        {
          "duration": 0.4136024999999961,
          "durationTicks": 45,
          "midi": 69,
          "name": "A4",
          "ticks": 7607,
          "time": 69.91720483333333,
          "velocity": 0.8661417322834646
        },
        {
          "duration": 0.40441133333332857,
          "durationTicks": 44,
          "midi": 72,
          "name": "C5",
          "ticks": 7608,
          "time": 69.926396,
          "velocity": 0.7795275590551181
        },
        {
          "duration": 0.40441133333332857,
          "durationTicks": 44,
          "midi": 75,
          "name": "D#5",
          "ticks": 7608,
          "time": 69.926396,
          "velocity": 0.9212598425196851
        },
        {
          "duration": 0.22058800000000645,
          "durationTicks": 24,
          "midi": 60,
          "name": "C4",
          "ticks": 7655,
          "time": 70.35838083333333,
          "velocity": 0.8818897637795275
        },
        {
          "duration": 0.22058800000000645,
          "durationTicks": 24,
          "midi": 66,
          "name": "F#4",
          "ticks": 7655,
          "time": 70.35838083333333,
          "velocity": 0.7637795275590551
        },
        {
          "duration": 0.22058800000000645,
          "durationTicks": 24,
          "midi": 69,
          "name": "A4",
          "ticks": 7655,
          "time": 70.35838083333333,
          "velocity": 0.7874015748031497
        },
        {
          "duration": 0.21139683333333892,
          "durationTicks": 23,
          "midi": 72,
          "name": "C5",
          "ticks": 7656,
          "time": 70.367572,
          "velocity": 0.8031496062992126
        },
        {
          "duration": 0.018382333333320844,
          "durationTicks": 2,
          "midi": 60,
          "name": "C4",
          "ticks": 7679,
          "time": 70.57896883333333,
          "velocity": 0.905511811023622
        },
        {
          "duration": 0.009191166666667527,
          "durationTicks": 1,
          "midi": 66,
          "name": "F#4",
          "ticks": 7679,
          "time": 70.57896883333333,
          "velocity": 0.8740157480314961
        },
        {
          "duration": 0.045955833333323426,
          "durationTicks": 5,
          "midi": 69,
          "name": "A4",
          "ticks": 7680,
          "time": 70.58816,
          "velocity": 0.7952755905511811
        },
        {
          "duration": 0.009191166666667527,
          "durationTicks": 1,
          "midi": 69,
          "name": "A4",
          "ticks": 7691,
          "time": 70.68926283333333,
          "velocity": 0.8976377952755905
        },
        {
          "duration": 0.009191166666667527,
          "durationTicks": 1,
          "midi": 60,
          "name": "C4",
          "ticks": 7703,
          "time": 70.79955683333333,
          "velocity": 0.8740157480314961
        },
        {
          "duration": 0.009191166666667527,
          "durationTicks": 1,
          "midi": 63,
          "name": "D#4",
          "ticks": 7703,
          "time": 70.79955683333333,
          "velocity": 0.7952755905511811
        },
        {
          "duration": 0.018382333333335055,
          "durationTicks": 2,
          "midi": 68,
          "name": "G#4",
          "ticks": 7704,
          "time": 70.808748,
          "velocity": 0.905511811023622
        },
        {
          "duration": 0.018382333333335055,
          "durationTicks": 2,
          "midi": 68,
          "name": "G#4",
          "ticks": 7715,
          "time": 70.90985083333332,
          "velocity": 0.8976377952755905
        },
        {
          "duration": 0.22058799999999223,
          "durationTicks": 24,
          "midi": 58,
          "name": "A#3",
          "ticks": 7727,
          "time": 71.02014483333333,
          "velocity": 0.8110236220472441
        },
        {
          "duration": 0.22058799999999223,
          "durationTicks": 24,
          "midi": 63,
          "name": "D#4",
          "ticks": 7727,
          "time": 71.02014483333333,
          "velocity": 0.8740157480314961
        },
        {
          "duration": 0.22058799999999223,
          "durationTicks": 24,
          "midi": 68,
          "name": "G#4",
          "ticks": 7727,
          "time": 71.02014483333333,
          "velocity": 0.8661417322834646
        },
        {
          "duration": 0.2113968333333247,
          "durationTicks": 23,
          "midi": 73,
          "name": "C#5",
          "ticks": 7728,
          "time": 71.029336,
          "velocity": 0.8267716535433071
        },
        {
          "duration": 0.2113968333333247,
          "durationTicks": 23,
          "midi": 75,
          "name": "D#5",
          "ticks": 7728,
          "time": 71.029336,
          "velocity": 0.9133858267716536
        },
        {
          "duration": 0.03676466666667011,
          "durationTicks": 4,
          "midi": 58,
          "name": "A#3",
          "ticks": 7751,
          "time": 71.24073283333333,
          "velocity": 0.8031496062992126
        },
        {
          "duration": 0.027573500000002582,
          "durationTicks": 3,
          "midi": 63,
          "name": "D#4",
          "ticks": 7752,
          "time": 71.249924,
          "velocity": 0.9133858267716536
        },
        {
          "duration": 0.11029399999999612,
          "durationTicks": 12,
          "midi": 75,
          "name": "D#5",
          "ticks": 7763,
          "time": 71.35102683333334,
          "velocity": 0.9133858267716536
        },
        {
          "duration": 0.11029399999999612,
          "durationTicks": 12,
          "midi": 73,
          "name": "C#5",
          "ticks": 7763,
          "time": 71.35102683333334,
          "velocity": 0.8661417322834646
        },
        {
          "duration": 0.10110283333332859,
          "durationTicks": 11,
          "midi": 68,
          "name": "G#4",
          "ticks": 7764,
          "time": 71.360218,
          "velocity": 0.8661417322834646
        },
        {
          "duration": 0.10110283333332859,
          "durationTicks": 11,
          "midi": 63,
          "name": "D#4",
          "ticks": 7764,
          "time": 71.360218,
          "velocity": 0.8740157480314961
        },
        {
          "duration": 0.027573500000002582,
          "durationTicks": 3,
          "midi": 63,
          "name": "D#4",
          "ticks": 7775,
          "time": 71.46132083333333,
          "velocity": 0.905511811023622
        },
        {
          "duration": 0.027573500000002582,
          "durationTicks": 3,
          "midi": 68,
          "name": "G#4",
          "ticks": 7776,
          "time": 71.470512,
          "velocity": 0.8031496062992126
        },
        {
          "duration": 0.018382333333335055,
          "durationTicks": 2,
          "midi": 63,
          "name": "D#4",
          "ticks": 7787,
          "time": 71.57161483333333,
          "velocity": 0.9133858267716536
        },
        {
          "duration": 0.22058800000000645,
          "durationTicks": 24,
          "midi": 63,
          "name": "D#4",
          "ticks": 7799,
          "time": 71.68190883333332,
          "velocity": 0.8740157480314961
        },
        {
          "duration": 0.22058800000000645,
          "durationTicks": 24,
          "midi": 68,
          "name": "G#4",
          "ticks": 7799,
          "time": 71.68190883333332,
          "velocity": 0.8661417322834646
        },
        {
          "duration": 0.2113968333333247,
          "durationTicks": 23,
          "midi": 73,
          "name": "C#5",
          "ticks": 7800,
          "time": 71.6911,
          "velocity": 0.8267716535433071
        },
        {
          "duration": 0.2113968333333247,
          "durationTicks": 23,
          "midi": 75,
          "name": "D#5",
          "ticks": 7800,
          "time": 71.6911,
          "velocity": 0.9133858267716536
        },
        {
          "duration": 0.027573500000002582,
          "durationTicks": 3,
          "midi": 58,
          "name": "A#3",
          "ticks": 7823,
          "time": 71.90249683333333,
          "velocity": 0.8031496062992126
        },
        {
          "duration": 0.027573500000002582,
          "durationTicks": 3,
          "midi": 63,
          "name": "D#4",
          "ticks": 7824,
          "time": 71.911688,
          "velocity": 0.9133858267716536
        },
        {
          "duration": 0.11029399999999612,
          "durationTicks": 12,
          "midi": 75,
          "name": "D#5",
          "ticks": 7835,
          "time": 72.01279083333333,
          "velocity": 0.9133858267716536
        },
        {
          "duration": 0.11029399999999612,
          "durationTicks": 12,
          "midi": 72,
          "name": "C5",
          "ticks": 7835,
          "time": 72.01279083333333,
          "velocity": 0.8661417322834646
        },
        {
          "duration": 0.10110283333332859,
          "durationTicks": 11,
          "midi": 68,
          "name": "G#4",
          "ticks": 7836,
          "time": 72.021982,
          "velocity": 0.8661417322834646
        },
        {
          "duration": 0.10110283333332859,
          "durationTicks": 11,
          "midi": 63,
          "name": "D#4",
          "ticks": 7836,
          "time": 72.021982,
          "velocity": 0.8740157480314961
        },
        {
          "duration": 0.027573500000002582,
          "durationTicks": 3,
          "midi": 63,
          "name": "D#4",
          "ticks": 7847,
          "time": 72.12308483333332,
          "velocity": 0.905511811023622
        },
        {
          "duration": 0.018382333333320844,
          "durationTicks": 2,
          "midi": 68,
          "name": "G#4",
          "ticks": 7848,
          "time": 72.132276,
          "velocity": 0.8031496062992126
        },
        {
          "duration": 0.018382333333320844,
          "durationTicks": 2,
          "midi": 63,
          "name": "D#4",
          "ticks": 7859,
          "time": 72.23337883333333,
          "velocity": 0.9133858267716536
        },
        {
          "duration": 0.22058800000000645,
          "durationTicks": 24,
          "midi": 63,
          "name": "D#4",
          "ticks": 7871,
          "time": 72.34367283333333,
          "velocity": 0.8740157480314961
        },
        {
          "duration": 0.22058800000000645,
          "durationTicks": 24,
          "midi": 68,
          "name": "G#4",
          "ticks": 7871,
          "time": 72.34367283333333,
          "velocity": 0.8661417322834646
        },
        {
          "duration": 0.21139683333333892,
          "durationTicks": 23,
          "midi": 72,
          "name": "C5",
          "ticks": 7872,
          "time": 72.352864,
          "velocity": 0.8267716535433071
        },
        {
          "duration": 0.21139683333333892,
          "durationTicks": 23,
          "midi": 75,
          "name": "D#5",
          "ticks": 7872,
          "time": 72.352864,
          "velocity": 0.9133858267716536
        },
        {
          "duration": 0.02757349999998837,
          "durationTicks": 3,
          "midi": 63,
          "name": "D#4",
          "ticks": 7895,
          "time": 72.56426083333334,
          "velocity": 0.905511811023622
        },
        {
          "duration": 0.018382333333320844,
          "durationTicks": 2,
          "midi": 68,
          "name": "G#4",
          "ticks": 7896,
          "time": 72.573452,
          "velocity": 0.8031496062992126
        },
        {
          "duration": 0.018382333333320844,
          "durationTicks": 2,
          "midi": 63,
          "name": "D#4",
          "ticks": 7907,
          "time": 72.67455483333333,
          "velocity": 0.9133858267716536
        },
        {
          "duration": 0.22058800000000645,
          "durationTicks": 24,
          "midi": 61,
          "name": "C#4",
          "ticks": 7919,
          "time": 72.78484883333333,
          "velocity": 0.8740157480314961
        },
        {
          "duration": 0.22058800000000645,
          "durationTicks": 24,
          "midi": 65,
          "name": "F4",
          "ticks": 7919,
          "time": 72.78484883333333,
          "velocity": 0.8661417322834646
        },
        {
          "duration": 0.21139683333333892,
          "durationTicks": 23,
          "midi": 68,
          "name": "G#4",
          "ticks": 7920,
          "time": 72.79404,
          "velocity": 0.8267716535433071
        },
        {
          "duration": 0.21139683333333892,
          "durationTicks": 23,
          "midi": 73,
          "name": "C#5",
          "ticks": 7920,
          "time": 72.79404,
          "velocity": 0.9133858267716536
        },
        {
          "duration": 0.02757349999998837,
          "durationTicks": 3,
          "midi": 61,
          "name": "C#4",
          "ticks": 7943,
          "time": 73.00543683333333,
          "velocity": 0.8031496062992126
        },
        {
          "duration": 0.018382333333320844,
          "durationTicks": 2,
          "midi": 65,
          "name": "F4",
          "ticks": 7944,
          "time": 73.014628,
          "velocity": 0.9133858267716536
        },
        {
          "duration": 0.11029399999999612,
          "durationTicks": 12,
          "midi": 73,
          "name": "C#5",
          "ticks": 7955,
          "time": 73.11573083333333,
          "velocity": 0.8188976377952756
        },
        {
          "duration": 0.11029399999999612,
          "durationTicks": 12,
          "midi": 68,
          "name": "G#4",
          "ticks": 7955,
          "time": 73.11573083333333,
          "velocity": 0.905511811023622
        },
        {
          "duration": 0.10110283333332859,
          "durationTicks": 11,
          "midi": 65,
          "name": "F4",
          "ticks": 7956,
          "time": 73.124922,
          "velocity": 0.84251968503937
        },
        {
          "duration": 0.10110283333332859,
          "durationTicks": 11,
          "midi": 61,
          "name": "C#4",
          "ticks": 7956,
          "time": 73.124922,
          "velocity": 0.8503937007874016
        },
        {
          "duration": 0.027573500000002582,
          "durationTicks": 3,
          "midi": 65,
          "name": "F4",
          "ticks": 7967,
          "time": 73.22602483333333,
          "velocity": 0.905511811023622
        },
        {
          "duration": 0.018382333333335055,
          "durationTicks": 2,
          "midi": 68,
          "name": "G#4",
          "ticks": 7968,
          "time": 73.235216,
          "velocity": 0.8031496062992126
        },
        {
          "duration": 0.018382333333335055,
          "durationTicks": 2,
          "midi": 72,
          "name": "C5",
          "ticks": 7979,
          "time": 73.33631883333332,
          "velocity": 0.9133858267716536
        },
        {
          "duration": 0.22058799999999223,
          "durationTicks": 24,
          "midi": 61,
          "name": "C#4",
          "ticks": 7991,
          "time": 73.44661283333333,
          "velocity": 0.8740157480314961
        },
        {
          "duration": 0.22058799999999223,
          "durationTicks": 24,
          "midi": 65,
          "name": "F4",
          "ticks": 7991,
          "time": 73.44661283333333,
          "velocity": 0.8661417322834646
        },
        {
          "duration": 0.2113968333333247,
          "durationTicks": 23,
          "midi": 68,
          "name": "G#4",
          "ticks": 7992,
          "time": 73.455804,
          "velocity": 0.8740157480314961
        },
        {
          "duration": 0.2113968333333247,
          "durationTicks": 23,
          "midi": 72,
          "name": "C5",
          "ticks": 7992,
          "time": 73.455804,
          "velocity": 0.937007874015748
        },
        {
          "duration": 0.027573500000002582,
          "durationTicks": 3,
          "midi": 68,
          "name": "G#4",
          "ticks": 8015,
          "time": 73.66720083333333,
          "velocity": 0.905511811023622
        },
        {
          "duration": 0.018382333333320844,
          "durationTicks": 2,
          "midi": 65,
          "name": "F4",
          "ticks": 8016,
          "time": 73.676392,
          "velocity": 0.8031496062992126
        },
        {
          "duration": 0.11029399999999612,
          "durationTicks": 12,
          "midi": 68,
          "name": "G#4",
          "ticks": 8027,
          "time": 73.77749483333334,
          "velocity": 0.905511811023622
        },
        {
          "duration": 0.10110283333332859,
          "durationTicks": 11,
          "midi": 65,
          "name": "F4",
          "ticks": 8027,
          "time": 73.77749483333334,
          "velocity": 0.8740157480314961
        },
        {
          "duration": 0.10110283333332859,
          "durationTicks": 11,
          "midi": 61,
          "name": "C#4",
          "ticks": 8028,
          "time": 73.786686,
          "velocity": 0.8818897637795275
        },
        {
          "duration": 0.10110283333332859,
          "durationTicks": 11,
          "midi": 56,
          "name": "G#3",
          "ticks": 8028,
          "time": 73.786686,
          "velocity": 0.8346456692913385
        },
        {
          "duration": 0.018382333333320844,
          "durationTicks": 2,
          "midi": 61,
          "name": "C#4",
          "ticks": 8039,
          "time": 73.88778883333333,
          "velocity": 0.905511811023622
        },
        {
          "duration": 0.009191166666653316,
          "durationTicks": 1,
          "midi": 65,
          "name": "F4",
          "ticks": 8040,
          "time": 73.89698,
          "velocity": 0.8031496062992126
        },
        {
          "duration": 0.018382333333335055,
          "durationTicks": 2,
          "midi": 68,
          "name": "G#4",
          "ticks": 8051,
          "time": 73.99808283333333,
          "velocity": 0.9133858267716536
        },
        {
          "duration": 0.22058800000000645,
          "durationTicks": 24,
          "midi": 56,
          "name": "G#3",
          "ticks": 8063,
          "time": 74.10837683333332,
          "velocity": 0.8740157480314961
        },
        {
          "duration": 0.22058800000000645,
          "durationTicks": 24,
          "midi": 61,
          "name": "C#4",
          "ticks": 8063,
          "time": 74.10837683333332,
          "velocity": 0.8582677165354331
        },
        {
          "duration": 0.2113968333333247,
          "durationTicks": 23,
          "midi": 65,
          "name": "F4",
          "ticks": 8064,
          "time": 74.117568,
          "velocity": 0.8661417322834646
        },
        {
          "duration": 0.2113968333333247,
          "durationTicks": 23,
          "midi": 68,
          "name": "G#4",
          "ticks": 8064,
          "time": 74.117568,
          "velocity": 0.905511811023622
        },
        {
          "duration": 0.018382333333335055,
          "durationTicks": 2,
          "midi": 61,
          "name": "C#4",
          "ticks": 8087,
          "time": 74.32896483333333,
          "velocity": 0.905511811023622
        },
        {
          "duration": 0.009191166666667527,
          "durationTicks": 1,
          "midi": 65,
          "name": "F4",
          "ticks": 8087,
          "time": 74.32896483333333,
          "velocity": 0.8031496062992126
        },
        {
          "duration": 0.009191166666667527,
          "durationTicks": 1,
          "midi": 68,
          "name": "G#4",
          "ticks": 8088,
          "time": 74.338156,
          "velocity": 0.8031496062992126
        },
        {
          "duration": 0.018382333333335055,
          "durationTicks": 2,
          "midi": 68,
          "name": "G#4",
          "ticks": 8099,
          "time": 74.43925883333333,
          "velocity": 0.9133858267716536
        },
        {
          "duration": 0.009191166666667527,
          "durationTicks": 1,
          "midi": 65,
          "name": "F4",
          "ticks": 8100,
          "time": 74.44845,
          "velocity": 0.8740157480314961
        },
        {
          "duration": 0.4411760000000129,
          "durationTicks": 48,
          "midi": 54,
          "name": "F#3",
          "ticks": 8111,
          "time": 74.54955283333332,
          "velocity": 0.7874015748031497
        },
        {
          "duration": 0.4411760000000129,
          "durationTicks": 48,
          "midi": 61,
          "name": "C#4",
          "ticks": 8111,
          "time": 74.54955283333332,
          "velocity": 0.7795275590551181
        },
        {
          "duration": 0.4411760000000129,
          "durationTicks": 48,
          "midi": 65,
          "name": "F4",
          "ticks": 8111,
          "time": 74.54955283333332,
          "velocity": 0.8976377952755905
        },
        {
          "duration": 0.43198483333333115,
          "durationTicks": 47,
          "midi": 68,
          "name": "G#4",
          "ticks": 8112,
          "time": 74.558744,
          "velocity": 0.8110236220472441
        },
        {
          "duration": 0.43198483333333115,
          "durationTicks": 47,
          "midi": 75,
          "name": "D#5",
          "ticks": 8112,
          "time": 74.558744,
          "velocity": 0.9133858267716536
        },
        {
          "duration": 0.22058799999999223,
          "durationTicks": 24,
          "midi": 68,
          "name": "G#4",
          "ticks": 8159,
          "time": 74.99072883333334,
          "velocity": 0.8661417322834646
        },
        {
          "duration": 0.22058799999999223,
          "durationTicks": 24,
          "midi": 73,
          "name": "C#5",
          "ticks": 8159,
          "time": 74.99072883333334,
          "velocity": 0.7795275590551181
        },
        {
          "duration": 0.2113968333333247,
          "durationTicks": 23,
          "midi": 77,
          "name": "F5",
          "ticks": 8160,
          "time": 74.99992,
          "velocity": 0.8740157480314961
        },
        {
          "duration": 0.018382333333335055,
          "durationTicks": 2,
          "midi": 68,
          "name": "G#4",
          "ticks": 8183,
          "time": 75.21131683333333,
          "velocity": 0.8976377952755905
        },
        {
          "duration": 0.009191166666667527,
          "durationTicks": 1,
          "midi": 73,
          "name": "C#5",
          "ticks": 8184,
          "time": 75.220508,
          "velocity": 0.8740157480314961
        },
        {
          "duration": 0.009191166666681738,
          "durationTicks": 1,
          "midi": 63,
          "name": "D#4",
          "ticks": 8195,
          "time": 75.32161083333332,
          "velocity": 0.8976377952755905
        },
        {
          "duration": 0.22058799999999223,
          "durationTicks": 24,
          "midi": 54,
          "name": "F#3",
          "ticks": 8207,
          "time": 75.43190483333333,
          "velocity": 0.7874015748031497
        },
        {
          "duration": 0.22058799999999223,
          "durationTicks": 24,
          "midi": 61,
          "name": "C#4",
          "ticks": 8207,
          "time": 75.43190483333333,
          "velocity": 0.8110236220472441
        },
        {
          "duration": 0.2113968333333247,
          "durationTicks": 23,
          "midi": 65,
          "name": "F4",
          "ticks": 8208,
          "time": 75.441096,
          "velocity": 0.8110236220472441
        },
        {
          "duration": 0.2113968333333247,
          "durationTicks": 23,
          "midi": 68,
          "name": "G#4",
          "ticks": 8208,
          "time": 75.441096,
          "velocity": 0.8740157480314961
        },
        {
          "duration": 0.2113968333333247,
          "durationTicks": 23,
          "midi": 75,
          "name": "D#5",
          "ticks": 8208,
          "time": 75.441096,
          "velocity": 0.905511811023622
        },
        {
          "duration": 0.22058800000000645,
          "durationTicks": 24,
          "midi": 65,
          "name": "F4",
          "ticks": 8231,
          "time": 75.65249283333333,
          "velocity": 0.9133858267716536
        },
        {
          "duration": 0.22058800000000645,
          "durationTicks": 24,
          "midi": 68,
          "name": "G#4",
          "ticks": 8231,
          "time": 75.65249283333333,
          "velocity": 0.7637795275590551
        },
        {
          "duration": 0.22058800000000645,
          "durationTicks": 24,
          "midi": 73,
          "name": "C#5",
          "ticks": 8231,
          "time": 75.65249283333333,
          "velocity": 0.7874015748031497
        },
        {
          "duration": 0.21139683333333892,
          "durationTicks": 23,
          "midi": 77,
          "name": "F5",
          "ticks": 8232,
          "time": 75.661684,
          "velocity": 0.8740157480314961
        },
        {
          "duration": 0.018382333333320844,
          "durationTicks": 2,
          "midi": 68,
          "name": "G#4",
          "ticks": 8255,
          "time": 75.87308083333333,
          "velocity": 0.905511811023622
        },
        {
          "duration": 0.009191166666653316,
          "durationTicks": 1,
          "midi": 73,
          "name": "C#5",
          "ticks": 8256,
          "time": 75.882272,
          "velocity": 0.8740157480314961
        },
        {
          "duration": 0.009191166666667527,
          "durationTicks": 1,
          "midi": 66,
          "name": "F#4",
          "ticks": 8267,
          "time": 75.98337483333333,
          "velocity": 0.8976377952755905
        },
        {
          "duration": 0.4411759999999987,
          "durationTicks": 48,
          "midi": 61,
          "name": "C#4",
          "ticks": 8279,
          "time": 76.09366883333333,
          "velocity": 0.8582677165354331
        },
        {
          "duration": 0.4411759999999987,
          "durationTicks": 48,
          "midi": 65,
          "name": "F4",
          "ticks": 8279,
          "time": 76.09366883333333,
          "velocity": 0.8976377952755905
        },
        {
          "duration": 0.43198483333331694,
          "durationTicks": 47,
          "midi": 68,
          "name": "G#4",
          "ticks": 8280,
          "time": 76.10286,
          "velocity": 0.7637795275590551
        },
        {
          "duration": 0.43198483333331694,
          "durationTicks": 47,
          "midi": 75,
          "name": "D#5",
          "ticks": 8280,
          "time": 76.10286,
          "velocity": 0.7795275590551181
        },
        {
          "duration": 0.22058800000000645,
          "durationTicks": 24,
          "midi": 60,
          "name": "C4",
          "ticks": 8327,
          "time": 76.53484483333332,
          "velocity": 0.7401574803149606
        },
        {
          "duration": 0.22058800000000645,
          "durationTicks": 24,
          "midi": 65,
          "name": "F4",
          "ticks": 8327,
          "time": 76.53484483333332,
          "velocity": 0.8976377952755905
        },
        {
          "duration": 0.2113968333333247,
          "durationTicks": 23,
          "midi": 68,
          "name": "G#4",
          "ticks": 8328,
          "time": 76.544036,
          "velocity": 0.7637795275590551
        },
        {
          "duration": 0.2113968333333247,
          "durationTicks": 23,
          "midi": 75,
          "name": "D#5",
          "ticks": 8328,
          "time": 76.544036,
          "velocity": 0.7952755905511811
        },
        {
          "duration": 0.22058799999999223,
          "durationTicks": 24,
          "midi": 68,
          "name": "G#4",
          "ticks": 8351,
          "time": 76.75543283333333,
          "velocity": 0.8110236220472441
        },
        {
          "duration": 0.22058799999999223,
          "durationTicks": 24,
          "midi": 72,
          "name": "C5",
          "ticks": 8351,
          "time": 76.75543283333333,
          "velocity": 0.7559055118110236
        },
        {
          "duration": 0.2113968333333247,
          "durationTicks": 23,
          "midi": 75,
          "name": "D#5",
          "ticks": 8352,
          "time": 76.764624,
          "velocity": 0.7637795275590551
        },
        {
          "duration": 0.2113968333333247,
          "durationTicks": 23,
          "midi": 80,
          "name": "G#5",
          "ticks": 8352,
          "time": 76.764624,
          "velocity": 0.7401574803149606
        },
        {
          "duration": 0.018382333333335055,
          "durationTicks": 2,
          "midi": 61,
          "name": "C#4",
          "ticks": 8375,
          "time": 76.97602083333332,
          "velocity": 0.9133858267716536
        },
        {
          "duration": 0.009191166666653316,
          "durationTicks": 1,
          "midi": 65,
          "name": "F4",
          "ticks": 8376,
          "time": 76.985212,
          "velocity": 0.7716535433070866
        },
        {
          "duration": 0.009191166666667527,
          "durationTicks": 1,
          "midi": 61,
          "name": "C#4",
          "ticks": 8387,
          "time": 77.08631483333333,
          "velocity": 0.8976377952755905
        },
        {
          "duration": 0.22058800000000645,
          "durationTicks": 24,
          "midi": 56,
          "name": "G#3",
          "ticks": 8399,
          "time": 77.19660883333333,
          "velocity": 0.7637795275590551
        },
        {
          "duration": 0.22058800000000645,
          "durationTicks": 24,
          "midi": 60,
          "name": "C4",
          "ticks": 8399,
          "time": 77.19660883333333,
          "velocity": 0.7401574803149606
        },
        {
          "duration": 0.22058800000000645,
          "durationTicks": 24,
          "midi": 65,
          "name": "F4",
          "ticks": 8399,
          "time": 77.19660883333333,
          "velocity": 0.8267716535433071
        },
        {
          "duration": 0.21139683333333892,
          "durationTicks": 23,
          "midi": 68,
          "name": "G#4",
          "ticks": 8400,
          "time": 77.2058,
          "velocity": 0.7952755905511811
        },
        {
          "duration": 0.21139683333333892,
          "durationTicks": 23,
          "midi": 75,
          "name": "D#5",
          "ticks": 8400,
          "time": 77.2058,
          "velocity": 0.905511811023622
        },
        {
          "duration": 0.2113968333333247,
          "durationTicks": 23,
          "midi": 65,
          "name": "F4",
          "ticks": 8423,
          "time": 77.41719683333334,
          "velocity": 0.8661417322834646
        },
        {
          "duration": 0.2113968333333247,
          "durationTicks": 23,
          "midi": 68,
          "name": "G#4",
          "ticks": 8423,
          "time": 77.41719683333334,
          "velocity": 0.889763779527559
        },
        {
          "duration": 0.22058799999999223,
          "durationTicks": 24,
          "midi": 75,
          "name": "D#5",
          "ticks": 8424,
          "time": 77.426388,
          "velocity": 0.8503937007874016
        },
        {
          "duration": 0.15624983333333375,
          "durationTicks": 17,
          "midi": 65,
          "name": "F4",
          "ticks": 8447,
          "time": 77.63778483333333,
          "velocity": 0.9133858267716536
        },
        {
          "duration": 0.018382333333320844,
          "durationTicks": 2,
          "midi": 63,
          "name": "D#4",
          "ticks": 8471,
          "time": 77.85837283333333,
          "velocity": 0.9133858267716536
        },
        {
          "duration": 0.009191166666653316,
          "durationTicks": 1,
          "midi": 68,
          "name": "G#4",
          "ticks": 8472,
          "time": 77.867564,
          "velocity": 0.7716535433070866
        },
        {
          "duration": 0.009191166666667527,
          "durationTicks": 1,
          "midi": 63,
          "name": "D#4",
          "ticks": 8483,
          "time": 77.96866683333333,
          "velocity": 0.8976377952755905
        },
        {
          "duration": 0.4411759999999987,
          "durationTicks": 48,
          "midi": 56,
          "name": "G#3",
          "ticks": 8495,
          "time": 78.07896083333333,
          "velocity": 0.7637795275590551
        },
        {
          "duration": 0.4411759999999987,
          "durationTicks": 48,
          "midi": 63,
          "name": "D#4",
          "ticks": 8495,
          "time": 78.07896083333333,
          "velocity": 0.9212598425196851
        },
        {
          "duration": 0.4411759999999987,
          "durationTicks": 48,
          "midi": 68,
          "name": "G#4",
          "ticks": 8495,
          "time": 78.07896083333333,
          "velocity": 0.7874015748031497
        },
        {
          "duration": 0.43198483333333115,
          "durationTicks": 47,
          "midi": 72,
          "name": "C5",
          "ticks": 8496,
          "time": 78.088152,
          "velocity": 0.7637795275590551
        },
        {
          "duration": 0.43198483333333115,
          "durationTicks": 47,
          "midi": 75,
          "name": "D#5",
          "ticks": 8496,
          "time": 78.088152,
          "velocity": 0.7401574803149606
        },
        {
          "duration": 0.22058800000000645,
          "durationTicks": 24,
          "midi": 56,
          "name": "G#3",
          "ticks": 8543,
          "time": 78.52013683333332,
          "velocity": 0.7086614173228346
        },
        {
          "duration": 0.22058800000000645,
          "durationTicks": 24,
          "midi": 63,
          "name": "D#4",
          "ticks": 8543,
          "time": 78.52013683333332,
          "velocity": 0.7952755905511811
        },
        {
          "duration": 0.22058800000000645,
          "durationTicks": 24,
          "midi": 68,
          "name": "G#4",
          "ticks": 8543,
          "time": 78.52013683333332,
          "velocity": 0.8976377952755905
        },
        {
          "duration": 0.2113968333333247,
          "durationTicks": 23,
          "midi": 72,
          "name": "C5",
          "ticks": 8544,
          "time": 78.529328,
          "velocity": 0.7637795275590551
        },
        {
          "duration": 0.2113968333333247,
          "durationTicks": 23,
          "midi": 75,
          "name": "D#5",
          "ticks": 8544,
          "time": 78.529328,
          "velocity": 0.6692913385826772
        },
        {
          "duration": 0.018382333333320844,
          "durationTicks": 2,
          "midi": 56,
          "name": "G#3",
          "ticks": 8567,
          "time": 78.74072483333333,
          "velocity": 0.7795275590551181
        },
        {
          "duration": 0.009191166666653316,
          "durationTicks": 1,
          "midi": 63,
          "name": "D#4",
          "ticks": 8568,
          "time": 78.749916,
          "velocity": 0.889763779527559
        },
        {
          "duration": 0.11029399999999612,
          "durationTicks": 12,
          "midi": 68,
          "name": "G#4",
          "ticks": 8579,
          "time": 78.85101883333333,
          "velocity": 0.8976377952755905
        },
        {
          "duration": 0.22058800000000645,
          "durationTicks": 24,
          "midi": 56,
          "name": "G#3",
          "ticks": 8591,
          "time": 78.96131283333332,
          "velocity": 0.84251968503937
        },
        {
          "duration": 0.22058800000000645,
          "durationTicks": 24,
          "midi": 63,
          "name": "D#4",
          "ticks": 8591,
          "time": 78.96131283333332,
          "velocity": 0.8661417322834646
        },
        {
          "duration": 0.2113968333333247,
          "durationTicks": 23,
          "midi": 68,
          "name": "G#4",
          "ticks": 8592,
          "time": 78.970504,
          "velocity": 0.9212598425196851
        },
        {
          "duration": 0.2113968333333247,
          "durationTicks": 23,
          "midi": 72,
          "name": "C5",
          "ticks": 8592,
          "time": 78.970504,
          "velocity": 0.7637795275590551
        },
        {
          "duration": 0.2113968333333247,
          "durationTicks": 23,
          "midi": 75,
          "name": "D#5",
          "ticks": 8592,
          "time": 78.970504,
          "velocity": 0.7480314960629921
        },
        {
          "duration": 0.22058799999999223,
          "durationTicks": 24,
          "midi": 56,
          "name": "G#3",
          "ticks": 8615,
          "time": 79.18190083333333,
          "velocity": 0.7322834645669292
        },
        {
          "duration": 0.22058799999999223,
          "durationTicks": 24,
          "midi": 63,
          "name": "D#4",
          "ticks": 8615,
          "time": 79.18190083333333,
          "velocity": 0.905511811023622
        },
        {
          "duration": 0.22058799999999223,
          "durationTicks": 24,
          "midi": 68,
          "name": "G#4",
          "ticks": 8615,
          "time": 79.18190083333333,
          "velocity": 0.7952755905511811
        },
        {
          "duration": 0.2113968333333247,
          "durationTicks": 23,
          "midi": 72,
          "name": "C5",
          "ticks": 8616,
          "time": 79.191092,
          "velocity": 0.7480314960629921
        },
        {
          "duration": 0.018382333333335055,
          "durationTicks": 2,
          "midi": 56,
          "name": "G#3",
          "ticks": 8639,
          "time": 79.40248883333332,
          "velocity": 0.7795275590551181
        },
        {
          "duration": 0.009191166666653316,
          "durationTicks": 1,
          "midi": 63,
          "name": "D#4",
          "ticks": 8640,
          "time": 79.41168,
          "velocity": 0.889763779527559
        },
        {
          "duration": 0.11029399999999612,
          "durationTicks": 12,
          "midi": 68,
          "name": "G#4",
          "ticks": 8651,
          "time": 79.51278283333333,
          "velocity": 0.9212598425196851
        },
        {
          "duration": 0.4411759999999987,
          "durationTicks": 48,
          "midi": 56,
          "name": "G#3",
          "ticks": 8663,
          "time": 79.62307683333333,
          "velocity": 0.6850393700787402
        },
        {
          "duration": 0.4411759999999987,
          "durationTicks": 48,
          "midi": 63,
          "name": "D#4",
          "ticks": 8663,
          "time": 79.62307683333333,
          "velocity": 0.889763779527559
        },
        {
          "duration": 0.4411759999999987,
          "durationTicks": 48,
          "midi": 68,
          "name": "G#4",
          "ticks": 8663,
          "time": 79.62307683333333,
          "velocity": 0.9212598425196851
        },
        {
          "duration": 0.43198483333333115,
          "durationTicks": 47,
          "midi": 72,
          "name": "C5",
          "ticks": 8664,
          "time": 79.632268,
          "velocity": 0.7795275590551181
        },
        {
          "duration": 0.43198483333333115,
          "durationTicks": 47,
          "midi": 75,
          "name": "D#5",
          "ticks": 8664,
          "time": 79.632268,
          "velocity": 0.84251968503937
        },
        {
          "duration": 0.11029399999999612,
          "durationTicks": 12,
          "midi": 63,
          "name": "D#4",
          "ticks": 8711,
          "time": 80.06425283333333,
          "velocity": 0.889763779527559
        },
        {
          "duration": 0.11029400000001033,
          "durationTicks": 12,
          "midi": 75,
          "name": "D#5",
          "ticks": 8723,
          "time": 80.17454683333332,
          "velocity": 0.7165354330708661
        },
        {
          "duration": 0.11029400000001033,
          "durationTicks": 12,
          "midi": 68,
          "name": "G#4",
          "ticks": 8723,
          "time": 80.17454683333332,
          "velocity": 0.9212598425196851
        },
        {
          "duration": 0.11948516666666364,
          "durationTicks": 13,
          "midi": 72,
          "name": "C5",
          "ticks": 8735,
          "time": 80.28484083333333,
          "velocity": 0.968503937007874
        },
        {
          "duration": 0.22058800000000645,
          "durationTicks": 24,
          "midi": 68,
          "name": "G#4",
          "ticks": 8759,
          "time": 80.50542883333333,
          "velocity": 0.889763779527559
        },
        {
          "duration": 0.22058800000000645,
          "durationTicks": 24,
          "midi": 74,
          "name": "D5",
          "ticks": 8759,
          "time": 80.50542883333333,
          "velocity": 0.7716535433070866
        },
        {
          "duration": 0.21139683333333892,
          "durationTicks": 23,
          "midi": 77,
          "name": "F5",
          "ticks": 8760,
          "time": 80.51462,
          "velocity": 0.7952755905511811
        },
        {
          "duration": 0.21139683333333892,
          "durationTicks": 23,
          "midi": 82,
          "name": "A#5",
          "ticks": 8760,
          "time": 80.51462,
          "velocity": 0.8110236220472441
        },
        {
          "duration": 0.11029399999999612,
          "durationTicks": 12,
          "midi": 82,
          "name": "A#5",
          "ticks": 8783,
          "time": 80.72601683333333,
          "velocity": 0.8110236220472441
        },
        {
          "duration": 0.018382333333335055,
          "durationTicks": 2,
          "midi": 70,
          "name": "A#4",
          "ticks": 8795,
          "time": 80.83631083333333,
          "velocity": 0.8110236220472441
        },
        {
          "duration": 0.11029400000001033,
          "durationTicks": 12,
          "midi": 70,
          "name": "A#4",
          "ticks": 8807,
          "time": 80.94660483333332,
          "velocity": 0.8661417322834646
        },
        {
          "duration": 0.11029399999999612,
          "durationTicks": 12,
          "midi": 70,
          "name": "A#4",
          "ticks": 8819,
          "time": 81.05689883333334,
          "velocity": 0.905511811023622
        },
        {
          "duration": 0.22058799999999223,
          "durationTicks": 24,
          "midi": 68,
          "name": "G#4",
          "ticks": 8831,
          "time": 81.16719283333333,
          "velocity": 0.8503937007874016
        },
        {
          "duration": 0.22058799999999223,
          "durationTicks": 24,
          "midi": 74,
          "name": "D5",
          "ticks": 8831,
          "time": 81.16719283333333,
          "velocity": 0.8188976377952756
        },
        {
          "duration": 0.2113968333333247,
          "durationTicks": 23,
          "midi": 77,
          "name": "F5",
          "ticks": 8832,
          "time": 81.176384,
          "velocity": 0.7952755905511811
        },
        {
          "duration": 0.2113968333333247,
          "durationTicks": 23,
          "midi": 82,
          "name": "A#5",
          "ticks": 8832,
          "time": 81.176384,
          "velocity": 0.7559055118110236
        },
        {
          "duration": 0.15624983333333375,
          "durationTicks": 17,
          "midi": 67,
          "name": "G4",
          "ticks": 8855,
          "time": 81.38778083333332,
          "velocity": 0.7952755905511811
        },
        {
          "duration": 0.05514699999999095,
          "durationTicks": 6,
          "midi": 72,
          "name": "C5",
          "ticks": 8867,
          "time": 81.49807483333333,
          "velocity": 0.7086614173228346
        },
        {
          "duration": 0.22058800000000645,
          "durationTicks": 24,
          "midi": 51,
          "name": "D#3",
          "ticks": 8879,
          "time": 81.60836883333333,
          "velocity": 0.7637795275590551
        },
        {
          "duration": 0.22058800000000645,
          "durationTicks": 24,
          "midi": 61,
          "name": "C#4",
          "ticks": 8879,
          "time": 81.60836883333333,
          "velocity": 0.8346456692913385
        },
        {
          "duration": 0.22058800000000645,
          "durationTicks": 24,
          "midi": 65,
          "name": "F4",
          "ticks": 8879,
          "time": 81.60836883333333,
          "velocity": 0.7874015748031497
        },
        {
          "duration": 0.21139683333333892,
          "durationTicks": 23,
          "midi": 68,
          "name": "G#4",
          "ticks": 8880,
          "time": 81.61756,
          "velocity": 0.7637795275590551
        },
        {
          "duration": 0.21139683333333892,
          "durationTicks": 23,
          "midi": 73,
          "name": "C#5",
          "ticks": 8880,
          "time": 81.61756,
          "velocity": 0.8582677165354331
        },
        {
          "duration": 0.22058799999999223,
          "durationTicks": 24,
          "midi": 65,
          "name": "F4",
          "ticks": 8903,
          "time": 81.82895683333334,
          "velocity": 0.9133858267716536
        },
        {
          "duration": 0.018382333333335055,
          "durationTicks": 2,
          "midi": 65,
          "name": "F4",
          "ticks": 8927,
          "time": 82.04954483333333,
          "velocity": 0.7795275590551181
        },
        {
          "duration": 0.009191166666667527,
          "durationTicks": 1,
          "midi": 68,
          "name": "G#4",
          "ticks": 8928,
          "time": 82.058736,
          "velocity": 0.889763779527559
        },
        {
          "duration": 0.018382333333335055,
          "durationTicks": 2,
          "midi": 72,
          "name": "C5",
          "ticks": 8939,
          "time": 82.15983883333332,
          "velocity": 0.937007874015748
        },
        {
          "duration": 0.4411759999999987,
          "durationTicks": 48,
          "midi": 61,
          "name": "C#4",
          "ticks": 8951,
          "time": 82.27013283333334,
          "velocity": 0.7401574803149606
        },
        {
          "duration": 0.4411759999999987,
          "durationTicks": 48,
          "midi": 66,
          "name": "F#4",
          "ticks": 8951,
          "time": 82.27013283333334,
          "velocity": 0.905511811023622
        },
        {
          "duration": 0.43198483333333115,
          "durationTicks": 47,
          "midi": 68,
          "name": "G#4",
          "ticks": 8952,
          "time": 82.279324,
          "velocity": 0.6141732283464567
        },
        {
          "duration": 0.43198483333333115,
          "durationTicks": 47,
          "midi": 73,
          "name": "C#5",
          "ticks": 8952,
          "time": 82.279324,
          "velocity": 0.8267716535433071
        },
        {
          "duration": 0.22058799999999223,
          "durationTicks": 24,
          "midi": 61,
          "name": "C#4",
          "ticks": 8999,
          "time": 82.71130883333333,
          "velocity": 0.8740157480314961
        },
        {
          "duration": 0.22058799999999223,
          "durationTicks": 24,
          "midi": 66,
          "name": "F#4",
          "ticks": 8999,
          "time": 82.71130883333333,
          "velocity": 0.8267716535433071
        },
        {
          "duration": 0.2113968333333247,
          "durationTicks": 23,
          "midi": 70,
          "name": "A#4",
          "ticks": 9000,
          "time": 82.7205,
          "velocity": 0.9133858267716536
        },
        {
          "duration": 0.22058800000000645,
          "durationTicks": 24,
          "midi": 61,
          "name": "C#4",
          "ticks": 9023,
          "time": 82.93189683333333,
          "velocity": 0.7401574803149606
        },
        {
          "duration": 0.22058800000000645,
          "durationTicks": 24,
          "midi": 66,
          "name": "F#4",
          "ticks": 9023,
          "time": 82.93189683333333,
          "velocity": 0.905511811023622
        },
        {
          "duration": 0.21139683333333892,
          "durationTicks": 23,
          "midi": 68,
          "name": "G#4",
          "ticks": 9024,
          "time": 82.941088,
          "velocity": 0.7795275590551181
        },
        {
          "duration": 0.21139683333333892,
          "durationTicks": 23,
          "midi": 73,
          "name": "C#5",
          "ticks": 9024,
          "time": 82.941088,
          "velocity": 0.7086614173228346
        },
        {
          "duration": 0.3676466666666727,
          "durationTicks": 40,
          "midi": 61,
          "name": "C#4",
          "ticks": 9047,
          "time": 83.15248483333333,
          "velocity": 0.905511811023622
        },
        {
          "duration": 0.3676466666666727,
          "durationTicks": 40,
          "midi": 65,
          "name": "F4",
          "ticks": 9047,
          "time": 83.15248483333333,
          "velocity": 0.7086614173228346
        },
        {
          "duration": 0.35845550000000515,
          "durationTicks": 39,
          "midi": 68,
          "name": "G#4",
          "ticks": 9048,
          "time": 83.161676,
          "velocity": 0.7874015748031497
        },
        {
          "duration": 0.35845550000000515,
          "durationTicks": 39,
          "midi": 73,
          "name": "C#5",
          "ticks": 9048,
          "time": 83.161676,
          "velocity": 0.905511811023622
        },
        {
          "duration": 0.22058799999999223,
          "durationTicks": 24,
          "midi": 56,
          "name": "G#3",
          "ticks": 9095,
          "time": 83.59366083333333,
          "velocity": 0.7795275590551181
        },
        {
          "duration": 0.22058799999999223,
          "durationTicks": 24,
          "midi": 63,
          "name": "D#4",
          "ticks": 9095,
          "time": 83.59366083333333,
          "velocity": 0.8582677165354331
        },
        {
          "duration": 0.2113968333333247,
          "durationTicks": 23,
          "midi": 68,
          "name": "G#4",
          "ticks": 9096,
          "time": 83.602852,
          "velocity": 0.8346456692913385
        },
        {
          "duration": 0.2113968333333247,
          "durationTicks": 23,
          "midi": 72,
          "name": "C5",
          "ticks": 9096,
          "time": 83.602852,
          "velocity": 0.889763779527559
        },
        {
          "duration": 0.22058800000000645,
          "durationTicks": 24,
          "midi": 63,
          "name": "D#4",
          "ticks": 9119,
          "time": 83.81424883333332,
          "velocity": 0.9133858267716536
        },
        {
          "duration": 0.19301450000000386,
          "durationTicks": 21,
          "midi": 63,
          "name": "D#4",
          "ticks": 9143,
          "time": 84.03483683333333,
          "velocity": 0.7952755905511811
        },
        {
          "duration": 0.18382333333333634,
          "durationTicks": 20,
          "midi": 68,
          "name": "G#4",
          "ticks": 9144,
          "time": 84.044028,
          "velocity": 0.8976377952755905
        },
        {
          "duration": 0.22058799999999223,
          "durationTicks": 24,
          "midi": 63,
          "name": "D#4",
          "ticks": 9167,
          "time": 84.25542483333334,
          "velocity": 0.8346456692913385
        },
        {
          "duration": 0.22058799999999223,
          "durationTicks": 24,
          "midi": 68,
          "name": "G#4",
          "ticks": 9167,
          "time": 84.25542483333334,
          "velocity": 0.8031496062992126
        },
        {
          "duration": 0.2113968333333247,
          "durationTicks": 23,
          "midi": 73,
          "name": "C#5",
          "ticks": 9168,
          "time": 84.264616,
          "velocity": 0.905511811023622
        },
        {
          "duration": 0.22058800000000645,
          "durationTicks": 24,
          "midi": 63,
          "name": "D#4",
          "ticks": 9191,
          "time": 84.47601283333333,
          "velocity": 0.889763779527559
        },
        {
          "duration": 0.25735266666666234,
          "durationTicks": 28,
          "midi": 56,
          "name": "G#3",
          "ticks": 9215,
          "time": 84.69660083333333,
          "velocity": 0.8976377952755905
        },
        {
          "duration": 0.25735266666666234,
          "durationTicks": 28,
          "midi": 63,
          "name": "D#4",
          "ticks": 9215,
          "time": 84.69660083333333,
          "velocity": 0.8661417322834646
        },
        {
          "duration": 0.25735266666666234,
          "durationTicks": 28,
          "midi": 68,
          "name": "G#4",
          "ticks": 9216,
          "time": 84.705792,
          "velocity": 0.9133858267716536
        },
        {
          "duration": 1.7555128333333272,
          "durationTicks": 191,
          "midi": 54,
          "name": "F#3",
          "ticks": 9263,
          "time": 85.13777683333333,
          "velocity": 0.7795275590551181
        },
        {
          "duration": 0.4411759999999987,
          "durationTicks": 48,
          "midi": 65,
          "name": "F4",
          "ticks": 9263,
          "time": 85.13777683333333,
          "velocity": 0.6141732283464567
        },
        {
          "duration": 0.22058799999999223,
          "durationTicks": 24,
          "midi": 68,
          "name": "G#4",
          "ticks": 9263,
          "time": 85.13777683333333,
          "velocity": 0.6141732283464567
        },
        {
          "duration": 1.7555128333333272,
          "durationTicks": 191,
          "midi": 77,
          "name": "F5",
          "ticks": 9264,
          "time": 85.146968,
          "velocity": 1
        },
        {
          "duration": 0.8823519999999974,
          "durationTicks": 96,
          "midi": 68,
          "name": "G#4",
          "ticks": 9287,
          "time": 85.35836483333333,
          "velocity": 1
        },
        {
          "duration": 0.4411759999999987,
          "durationTicks": 48,
          "midi": 65,
          "name": "F4",
          "ticks": 9311,
          "time": 85.57895283333333,
          "velocity": 1
        },
        {
          "duration": 1.1121311666666713,
          "durationTicks": 121,
          "midi": 75,
          "name": "D#5",
          "ticks": 9335,
          "time": 85.79954083333332,
          "velocity": 1
        },
        {
          "duration": 0.4411759999999987,
          "durationTicks": 48,
          "midi": 65,
          "name": "F4",
          "ticks": 9359,
          "time": 86.02012883333333,
          "velocity": 0.6141732283464567
        },
        {
          "duration": 0.6709551666666727,
          "durationTicks": 73,
          "midi": 68,
          "name": "G#4",
          "ticks": 9383,
          "time": 86.24071683333332,
          "velocity": 1
        },
        {
          "duration": 0.4411759999999987,
          "durationTicks": 48,
          "midi": 65,
          "name": "F4",
          "ticks": 9407,
          "time": 86.46130483333333,
          "velocity": 1
        },
        {
          "duration": 0.2389703333333273,
          "durationTicks": 26,
          "midi": 73,
          "name": "C#5",
          "ticks": 9431,
          "time": 86.68189283333334,
          "velocity": 1
        },
        {
          "duration": 1.6727923333333337,
          "durationTicks": 182,
          "midi": 54,
          "name": "F#3",
          "ticks": 9455,
          "time": 86.90248083333333,
          "velocity": 0.7086614173228346
        },
        {
          "duration": 0.43198483333333115,
          "durationTicks": 47,
          "midi": 65,
          "name": "F4",
          "ticks": 9456,
          "time": 86.911672,
          "velocity": 0.6456692913385826
        },
        {
          "duration": 0.8823519999999974,
          "durationTicks": 96,
          "midi": 68,
          "name": "G#4",
          "ticks": 9479,
          "time": 87.12306883333333,
          "velocity": 1
        },
        {
          "duration": 0.4411759999999987,
          "durationTicks": 48,
          "midi": 65,
          "name": "F4",
          "ticks": 9503,
          "time": 87.34365683333333,
          "velocity": 0.889763779527559
        },
        {
          "duration": 0.22058799999999223,
          "durationTicks": 24,
          "midi": 75,
          "name": "D#5",
          "ticks": 9527,
          "time": 87.56424483333333,
          "velocity": 1
        },
        {
          "duration": 0.4411759999999987,
          "durationTicks": 48,
          "midi": 65,
          "name": "F4",
          "ticks": 9551,
          "time": 87.78483283333333,
          "velocity": 0.905511811023622
        },
        {
          "duration": 0.5882346666666649,
          "durationTicks": 64,
          "midi": 68,
          "name": "G#4",
          "ticks": 9575,
          "time": 88.00542083333333,
          "velocity": 1
        },
        {
          "duration": 0.3676466666666727,
          "durationTicks": 40,
          "midi": 65,
          "name": "F4",
          "ticks": 9599,
          "time": 88.22600883333332,
          "velocity": 1
        },
        {
          "duration": 0.14705866666666623,
          "durationTicks": 16,
          "midi": 73,
          "name": "C#5",
          "ticks": 9623,
          "time": 88.44659683333333,
          "velocity": 0.905511811023622
        },
        {
          "duration": 2.876835166666666,
          "durationTicks": 313,
          "midi": 54,
          "name": "F#3",
          "ticks": 9644,
          "time": 88.63961133333333,
          "velocity": 0.84251968503937
        },
        {
          "duration": 2.8676439999999985,
          "durationTicks": 312,
          "midi": 58,
          "name": "A#3",
          "ticks": 9645,
          "time": 88.6488025,
          "velocity": 0.7401574803149606
        },
        {
          "duration": 2.858452833333345,
          "durationTicks": 311,
          "midi": 65,
          "name": "F4",
          "ticks": 9646,
          "time": 88.65799366666666,
          "velocity": 0.8503937007874016
        },
        {
          "duration": 2.84007050000001,
          "durationTicks": 309,
          "midi": 68,
          "name": "G#4",
          "ticks": 9647,
          "time": 88.66718483333332,
          "velocity": 0.8031496062992126
        },
        {
          "duration": 2.8308793333333284,
          "durationTicks": 308,
          "midi": 73,
          "name": "C#5",
          "ticks": 9648,
          "time": 88.676376,
          "velocity": 0.8818897637795275
        },
        {
          "duration": 0.4411759999999987,
          "durationTicks": 48,
          "midi": 65,
          "name": "F4",
          "ticks": 9959,
          "time": 91.53482883333334,
          "velocity": 0.9291338582677166
        },
        {
          "duration": 0.40441133333332857,
          "durationTicks": 44,
          "midi": 68,
          "name": "G#4",
          "ticks": 9983,
          "time": 91.75541683333333,
          "velocity": 0.8031496062992126
        },
        {
          "duration": 0.18382333333332213,
          "durationTicks": 20,
          "midi": 65,
          "name": "F4",
          "ticks": 10007,
          "time": 91.97600483333333,
          "velocity": 0.905511811023622
        },
        {
          "duration": 1.7371305000000064,
          "durationTicks": 189,
          "midi": 58,
          "name": "A#3",
          "ticks": 10031,
          "time": 92.19659283333333,
          "velocity": 0.7795275590551181
        },
        {
          "duration": 1.7371305000000064,
          "durationTicks": 189,
          "midi": 63,
          "name": "D#4",
          "ticks": 10031,
          "time": 92.19659283333333,
          "velocity": 0.6850393700787402
        },
        {
          "duration": 1.7279393333333388,
          "durationTicks": 188,
          "midi": 65,
          "name": "F4",
          "ticks": 10032,
          "time": 92.205784,
          "velocity": 0.8818897637795275
        },
        {
          "duration": 1.7187481666666713,
          "durationTicks": 187,
          "midi": 68,
          "name": "G#4",
          "ticks": 10033,
          "time": 92.21497516666666,
          "velocity": 0.7716535433070866
        },
        {
          "duration": 1.7095570000000038,
          "durationTicks": 186,
          "midi": 73,
          "name": "C#5",
          "ticks": 10034,
          "time": 92.22416633333333,
          "velocity": 0.84251968503937
        },
        {
          "duration": 0.6617639999999909,
          "durationTicks": 72,
          "midi": 58,
          "name": "A#3",
          "ticks": 10223,
          "time": 93.96129683333334,
          "velocity": 0.7559055118110236
        },
        {
          "duration": 0.6617639999999909,
          "durationTicks": 72,
          "midi": 65,
          "name": "F4",
          "ticks": 10223,
          "time": 93.96129683333334,
          "velocity": 0.8110236220472441
        },
        {
          "duration": 0.6525728333333234,
          "durationTicks": 71,
          "midi": 68,
          "name": "G#4",
          "ticks": 10224,
          "time": 93.970488,
          "velocity": 0.84251968503937
        },
        {
          "duration": 0.6525728333333234,
          "durationTicks": 71,
          "midi": 75,
          "name": "D#5",
          "ticks": 10224,
          "time": 93.970488,
          "velocity": 0.9133858267716536
        },
        {
          "duration": 1.0753665000000012,
          "durationTicks": 117,
          "midi": 58,
          "name": "A#3",
          "ticks": 10295,
          "time": 94.62306083333333,
          "velocity": 0.7795275590551181
        },
        {
          "duration": 1.0753665000000012,
          "durationTicks": 117,
          "midi": 63,
          "name": "D#4",
          "ticks": 10295,
          "time": 94.62306083333333,
          "velocity": 0.6850393700787402
        },
        {
          "duration": 1.0753665000000012,
          "durationTicks": 117,
          "midi": 65,
          "name": "F4",
          "ticks": 10297,
          "time": 94.64144316666666,
          "velocity": 0.84251968503937
        },
        {
          "duration": 1.0569841666666662,
          "durationTicks": 115,
          "midi": 68,
          "name": "G#4",
          "ticks": 10298,
          "time": 94.65063433333333,
          "velocity": 0.8031496062992126
        },
        {
          "duration": 1.0386018333333311,
          "durationTicks": 113,
          "midi": 73,
          "name": "C#5",
          "ticks": 10300,
          "time": 94.66901666666666,
          "velocity": 0.8976377952755905
        },
        {
          "duration": 2.8492616666666635,
          "durationTicks": 310,
          "midi": 54,
          "name": "F#3",
          "ticks": 10415,
          "time": 95.72600083333333,
          "velocity": 0.84251968503937
        },
        {
          "duration": 2.8492616666666635,
          "durationTicks": 310,
          "midi": 58,
          "name": "A#3",
          "ticks": 10415,
          "time": 95.72600083333333,
          "velocity": 0.7401574803149606
        },
        {
          "duration": 2.840070499999996,
          "durationTicks": 309,
          "midi": 65,
          "name": "F4",
          "ticks": 10416,
          "time": 95.735192,
          "velocity": 0.905511811023622
        },
        {
          "duration": 2.8124969999999934,
          "durationTicks": 306,
          "midi": 70,
          "name": "A#4",
          "ticks": 10418,
          "time": 95.75357433333333,
          "velocity": 0.8976377952755905
        },
        {
          "duration": 2.803305833333326,
          "durationTicks": 305,
          "midi": 73,
          "name": "C#5",
          "ticks": 10419,
          "time": 95.7627655,
          "velocity": 0.84251968503937
        },
        {
          "duration": 0.4411759999999987,
          "durationTicks": 48,
          "midi": 65,
          "name": "F4",
          "ticks": 10727,
          "time": 98.59364483333333,
          "velocity": 0.9291338582677166
        },
        {
          "duration": 0.40441133333332857,
          "durationTicks": 44,
          "midi": 68,
          "name": "G#4",
          "ticks": 10751,
          "time": 98.81423283333334,
          "velocity": 0.905511811023622
        },
        {
          "duration": 0.18382333333333634,
          "durationTicks": 20,
          "midi": 65,
          "name": "F4",
          "ticks": 10775,
          "time": 99.03482083333333,
          "velocity": 0.905511811023622
        },
        {
          "duration": 1.5165425,
          "durationTicks": 165,
          "midi": 49,
          "name": "C#3",
          "ticks": 10799,
          "time": 99.25540883333333,
          "velocity": 0.7559055118110236
        },
        {
          "duration": 1.5165425,
          "durationTicks": 165,
          "midi": 60,
          "name": "C4",
          "ticks": 10799,
          "time": 99.25540883333333,
          "velocity": 0.8188976377952756
        },
        {
          "duration": 1.5073513333333324,
          "durationTicks": 164,
          "midi": 65,
          "name": "F4",
          "ticks": 10800,
          "time": 99.2646,
          "velocity": 0.8267716535433071
        },
        {
          "duration": 1.498160166666679,
          "durationTicks": 163,
          "midi": 68,
          "name": "G#4",
          "ticks": 10801,
          "time": 99.27379116666665,
          "velocity": 0.8818897637795275
        },
        {
          "duration": 1.4889689999999973,
          "durationTicks": 162,
          "midi": 73,
          "name": "C#5",
          "ticks": 10802,
          "time": 99.28298233333334,
          "velocity": 0.8740157480314961
        },
        {
          "duration": 0.4411759999999987,
          "durationTicks": 48,
          "midi": 58,
          "name": "A#3",
          "ticks": 10967,
          "time": 100.79952483333334,
          "velocity": 0.8110236220472441
        },
        {
          "duration": 0.4411759999999987,
          "durationTicks": 48,
          "midi": 65,
          "name": "F4",
          "ticks": 10967,
          "time": 100.79952483333334,
          "velocity": 0.8661417322834646
        },
        {
          "duration": 0.43198483333333115,
          "durationTicks": 47,
          "midi": 68,
          "name": "G#4",
          "ticks": 10968,
          "time": 100.808716,
          "velocity": 0.84251968503937
        },
        {
          "duration": 0.42279366666667784,
          "durationTicks": 46,
          "midi": 75,
          "name": "D#5",
          "ticks": 10969,
          "time": 100.81790716666666,
          "velocity": 0.9133858267716536
        },
        {
          "duration": 0.22058799999999223,
          "durationTicks": 24,
          "midi": 58,
          "name": "A#3",
          "ticks": 11015,
          "time": 101.24070083333334,
          "velocity": 0.8267716535433071
        },
        {
          "duration": 0.22058799999999223,
          "durationTicks": 24,
          "midi": 65,
          "name": "F4",
          "ticks": 11015,
          "time": 101.24070083333334,
          "velocity": 0.7952755905511811
        },
        {
          "duration": 0.2113968333333247,
          "durationTicks": 23,
          "midi": 68,
          "name": "G#4",
          "ticks": 11016,
          "time": 101.249892,
          "velocity": 0.8346456692913385
        },
        {
          "duration": 0.2113968333333247,
          "durationTicks": 23,
          "midi": 75,
          "name": "D#5",
          "ticks": 11016,
          "time": 101.249892,
          "velocity": 0.9133858267716536
        },
        {
          "duration": 0.21139683333333892,
          "durationTicks": 23,
          "midi": 58,
          "name": "A#3",
          "ticks": 11039,
          "time": 101.46128883333333,
          "velocity": 0.8503937007874016
        },
        {
          "duration": 0.21139683333333892,
          "durationTicks": 23,
          "midi": 65,
          "name": "F4",
          "ticks": 11039,
          "time": 101.46128883333333,
          "velocity": 0.7952755905511811
        },
        {
          "duration": 0.2022056666666714,
          "durationTicks": 22,
          "midi": 68,
          "name": "G#4",
          "ticks": 11040,
          "time": 101.47048,
          "velocity": 0.8818897637795275
        },
        {
          "duration": 0.2022056666666714,
          "durationTicks": 22,
          "midi": 75,
          "name": "D#5",
          "ticks": 11040,
          "time": 101.47048,
          "velocity": 0.8818897637795275
        },
        {
          "duration": 0.22058799999999223,
          "durationTicks": 24,
          "midi": 58,
          "name": "A#3",
          "ticks": 11063,
          "time": 101.68187683333333,
          "velocity": 0.8740157480314961
        },
        {
          "duration": 0.22058799999999223,
          "durationTicks": 24,
          "midi": 65,
          "name": "F4",
          "ticks": 11063,
          "time": 101.68187683333333,
          "velocity": 0.8267716535433071
        },
        {
          "duration": 0.22058799999999223,
          "durationTicks": 24,
          "midi": 70,
          "name": "A#4",
          "ticks": 11063,
          "time": 101.68187683333333,
          "velocity": 0.7952755905511811
        },
        {
          "duration": 0.2113968333333247,
          "durationTicks": 23,
          "midi": 74,
          "name": "D5",
          "ticks": 11064,
          "time": 101.691068,
          "velocity": 0.9133858267716536
        },
        {
          "duration": 0.2113968333333247,
          "durationTicks": 23,
          "midi": 77,
          "name": "F5",
          "ticks": 11064,
          "time": 101.691068,
          "velocity": 0.8661417322834646
        },
        {
          "duration": 0.4411760000000129,
          "durationTicks": 48,
          "midi": 54,
          "name": "F#3",
          "ticks": 11183,
          "time": 102.78481683333332,
          "velocity": 0.7874015748031497
        },
        {
          "duration": 0.4411760000000129,
          "durationTicks": 48,
          "midi": 61,
          "name": "C#4",
          "ticks": 11183,
          "time": 102.78481683333332,
          "velocity": 0.7795275590551181
        },
        {
          "duration": 0.4411760000000129,
          "durationTicks": 48,
          "midi": 65,
          "name": "F4",
          "ticks": 11183,
          "time": 102.78481683333332,
          "velocity": 0.8976377952755905
        },
        {
          "duration": 0.43198483333333115,
          "durationTicks": 47,
          "midi": 68,
          "name": "G#4",
          "ticks": 11184,
          "time": 102.794008,
          "velocity": 0.7637795275590551
        },
        {
          "duration": 0.43198483333333115,
          "durationTicks": 47,
          "midi": 75,
          "name": "D#5",
          "ticks": 11184,
          "time": 102.794008,
          "velocity": 0.7559055118110236
        },
        {
          "duration": 0.22058799999999223,
          "durationTicks": 24,
          "midi": 68,
          "name": "G#4",
          "ticks": 11231,
          "time": 103.22599283333334,
          "velocity": 0.8661417322834646
        },
        {
          "duration": 0.22058799999999223,
          "durationTicks": 24,
          "midi": 73,
          "name": "C#5",
          "ticks": 11231,
          "time": 103.22599283333334,
          "velocity": 0.7795275590551181
        },
        {
          "duration": 0.2113968333333247,
          "durationTicks": 23,
          "midi": 77,
          "name": "F5",
          "ticks": 11232,
          "time": 103.235184,
          "velocity": 0.8740157480314961
        },
        {
          "duration": 0.018382333333335055,
          "durationTicks": 2,
          "midi": 68,
          "name": "G#4",
          "ticks": 11255,
          "time": 103.44658083333333,
          "velocity": 0.8976377952755905
        },
        {
          "duration": 0.009191166666667527,
          "durationTicks": 1,
          "midi": 73,
          "name": "C#5",
          "ticks": 11256,
          "time": 103.455772,
          "velocity": 0.8740157480314961
        },
        {
          "duration": 0.009191166666681738,
          "durationTicks": 1,
          "midi": 63,
          "name": "D#4",
          "ticks": 11267,
          "time": 103.55687483333332,
          "velocity": 0.8976377952755905
        },
        {
          "duration": 0.22058799999999223,
          "durationTicks": 24,
          "midi": 54,
          "name": "F#3",
          "ticks": 11279,
          "time": 103.66716883333333,
          "velocity": 0.7874015748031497
        },
        {
          "duration": 0.22058799999999223,
          "durationTicks": 24,
          "midi": 61,
          "name": "C#4",
          "ticks": 11279,
          "time": 103.66716883333333,
          "velocity": 0.8110236220472441
        },
        {
          "duration": 0.2113968333333247,
          "durationTicks": 23,
          "midi": 65,
          "name": "F4",
          "ticks": 11280,
          "time": 103.67636,
          "velocity": 0.84251968503937
        },
        {
          "duration": 0.2113968333333247,
          "durationTicks": 23,
          "midi": 68,
          "name": "G#4",
          "ticks": 11280,
          "time": 103.67636,
          "velocity": 0.8031496062992126
        },
        {
          "duration": 0.2113968333333247,
          "durationTicks": 23,
          "midi": 75,
          "name": "D#5",
          "ticks": 11280,
          "time": 103.67636,
          "velocity": 0.8740157480314961
        },
        {
          "duration": 0.22058800000000645,
          "durationTicks": 24,
          "midi": 65,
          "name": "F4",
          "ticks": 11303,
          "time": 103.88775683333333,
          "velocity": 0.8661417322834646
        },
        {
          "duration": 0.22058800000000645,
          "durationTicks": 24,
          "midi": 68,
          "name": "G#4",
          "ticks": 11303,
          "time": 103.88775683333333,
          "velocity": 0.7637795275590551
        },
        {
          "duration": 0.22058800000000645,
          "durationTicks": 24,
          "midi": 73,
          "name": "C#5",
          "ticks": 11303,
          "time": 103.88775683333333,
          "velocity": 0.7874015748031497
        },
        {
          "duration": 0.21139683333333892,
          "durationTicks": 23,
          "midi": 77,
          "name": "F5",
          "ticks": 11304,
          "time": 103.896948,
          "velocity": 0.8740157480314961
        },
        {
          "duration": 0.018382333333320844,
          "durationTicks": 2,
          "midi": 68,
          "name": "G#4",
          "ticks": 11327,
          "time": 104.10834483333333,
          "velocity": 0.905511811023622
        },
        {
          "duration": 0.009191166666653316,
          "durationTicks": 1,
          "midi": 73,
          "name": "C#5",
          "ticks": 11328,
          "time": 104.117536,
          "velocity": 0.8740157480314961
        },
        {
          "duration": 0.009191166666667527,
          "durationTicks": 1,
          "midi": 66,
          "name": "F#4",
          "ticks": 11339,
          "time": 104.21863883333333,
          "velocity": 0.8976377952755905
        },
        {
          "duration": 0.4411759999999987,
          "durationTicks": 48,
          "midi": 56,
          "name": "G#3",
          "ticks": 11351,
          "time": 104.32893283333333,
          "velocity": 0.7637795275590551
        },
        {
          "duration": 0.4411759999999987,
          "durationTicks": 48,
          "midi": 61,
          "name": "C#4",
          "ticks": 11351,
          "time": 104.32893283333333,
          "velocity": 0.8582677165354331
        },
        {
          "duration": 0.4411759999999987,
          "durationTicks": 48,
          "midi": 65,
          "name": "F4",
          "ticks": 11351,
          "time": 104.32893283333333,
          "velocity": 0.8661417322834646
        },
        {
          "duration": 0.22977916666664555,
          "durationTicks": 25,
          "midi": 68,
          "name": "G#4",
          "ticks": 11352,
          "time": 104.33812400000001,
          "velocity": 0.9212598425196851
        },
        {
          "duration": 0.43198483333331694,
          "durationTicks": 47,
          "midi": 75,
          "name": "D#5",
          "ticks": 11352,
          "time": 104.33812400000001,
          "velocity": 0.84251968503937
        },
        {
          "duration": 0.22058800000000645,
          "durationTicks": 24,
          "midi": 60,
          "name": "C4",
          "ticks": 11399,
          "time": 104.77010883333332,
          "velocity": 0.7401574803149606
        },
        {
          "duration": 0.22058800000000645,
          "durationTicks": 24,
          "midi": 65,
          "name": "F4",
          "ticks": 11399,
          "time": 104.77010883333332,
          "velocity": 0.905511811023622
        },
        {
          "duration": 0.2113968333333247,
          "durationTicks": 23,
          "midi": 68,
          "name": "G#4",
          "ticks": 11400,
          "time": 104.7793,
          "velocity": 0.7637795275590551
        },
        {
          "duration": 0.2113968333333247,
          "durationTicks": 23,
          "midi": 75,
          "name": "D#5",
          "ticks": 11400,
          "time": 104.7793,
          "velocity": 0.7952755905511811
        },
        {
          "duration": 0.22058799999999223,
          "durationTicks": 24,
          "midi": 68,
          "name": "G#4",
          "ticks": 11423,
          "time": 104.99069683333333,
          "velocity": 0.8110236220472441
        },
        {
          "duration": 0.22058799999999223,
          "durationTicks": 24,
          "midi": 72,
          "name": "C5",
          "ticks": 11423,
          "time": 104.99069683333333,
          "velocity": 0.7559055118110236
        },
        {
          "duration": 0.2113968333333247,
          "durationTicks": 23,
          "midi": 75,
          "name": "D#5",
          "ticks": 11424,
          "time": 104.999888,
          "velocity": 0.7637795275590551
        },
        {
          "duration": 0.2113968333333247,
          "durationTicks": 23,
          "midi": 80,
          "name": "G#5",
          "ticks": 11424,
          "time": 104.999888,
          "velocity": 0.7401574803149606
        },
        {
          "duration": 0.018382333333335055,
          "durationTicks": 2,
          "midi": 61,
          "name": "C#4",
          "ticks": 11447,
          "time": 105.21128483333332,
          "velocity": 0.9133858267716536
        },
        {
          "duration": 0.009191166666653316,
          "durationTicks": 1,
          "midi": 65,
          "name": "F4",
          "ticks": 11448,
          "time": 105.220476,
          "velocity": 0.7716535433070866
        },
        {
          "duration": 0.009191166666667527,
          "durationTicks": 1,
          "midi": 61,
          "name": "C#4",
          "ticks": 11459,
          "time": 105.32157883333333,
          "velocity": 0.8976377952755905
        },
        {
          "duration": 0.22058800000000645,
          "durationTicks": 24,
          "midi": 56,
          "name": "G#3",
          "ticks": 11471,
          "time": 105.43187283333333,
          "velocity": 0.7637795275590551
        },
        {
          "duration": 0.22058800000000645,
          "durationTicks": 24,
          "midi": 60,
          "name": "C4",
          "ticks": 11471,
          "time": 105.43187283333333,
          "velocity": 0.7401574803149606
        },
        {
          "duration": 0.22058800000000645,
          "durationTicks": 24,
          "midi": 65,
          "name": "F4",
          "ticks": 11471,
          "time": 105.43187283333333,
          "velocity": 0.889763779527559
        },
        {
          "duration": 0.21139683333333892,
          "durationTicks": 23,
          "midi": 68,
          "name": "G#4",
          "ticks": 11472,
          "time": 105.441064,
          "velocity": 0.7952755905511811
        },
        {
          "duration": 0.21139683333333892,
          "durationTicks": 23,
          "midi": 75,
          "name": "D#5",
          "ticks": 11472,
          "time": 105.441064,
          "velocity": 0.8818897637795275
        },
        {
          "duration": 0.2113968333333247,
          "durationTicks": 23,
          "midi": 63,
          "name": "D#4",
          "ticks": 11495,
          "time": 105.65246083333334,
          "velocity": 0.8661417322834646
        },
        {
          "duration": 0.2113968333333247,
          "durationTicks": 23,
          "midi": 68,
          "name": "G#4",
          "ticks": 11495,
          "time": 105.65246083333334,
          "velocity": 0.889763779527559
        },
        {
          "duration": 0.43198483333333115,
          "durationTicks": 47,
          "midi": 73,
          "name": "C#5",
          "ticks": 11496,
          "time": 105.661652,
          "velocity": 0.8661417322834646
        },
        {
          "duration": 0.22058800000000645,
          "durationTicks": 24,
          "midi": 68,
          "name": "G#4",
          "ticks": 11519,
          "time": 105.87304883333333,
          "velocity": 0.8110236220472441
        },
        {
          "duration": 0.21139683333333892,
          "durationTicks": 23,
          "midi": 77,
          "name": "F5",
          "ticks": 11520,
          "time": 105.88224,
          "velocity": 0.9133858267716536
        },
        {
          "duration": 0.018382333333320844,
          "durationTicks": 2,
          "midi": 61,
          "name": "C#4",
          "ticks": 11543,
          "time": 106.09363683333333,
          "velocity": 0.9133858267716536
        },
        {
          "duration": 0.009191166666653316,
          "durationTicks": 1,
          "midi": 65,
          "name": "F4",
          "ticks": 11544,
          "time": 106.102828,
          "velocity": 0.7716535433070866
        },
        {
          "duration": 0.11029399999999612,
          "durationTicks": 12,
          "midi": 68,
          "name": "G#4",
          "ticks": 11555,
          "time": 106.20393083333333,
          "velocity": 0.8976377952755905
        },
        {
          "duration": 0.4411759999999987,
          "durationTicks": 48,
          "midi": 46,
          "name": "A#2",
          "ticks": 11567,
          "time": 106.31422483333333,
          "velocity": 0.7874015748031497
        },
        {
          "duration": 0.4411759999999987,
          "durationTicks": 48,
          "midi": 53,
          "name": "F3",
          "ticks": 11567,
          "time": 106.31422483333333,
          "velocity": 0.8031496062992126
        },
        {
          "duration": 0.4411759999999987,
          "durationTicks": 48,
          "midi": 60,
          "name": "C4",
          "ticks": 11567,
          "time": 106.31422483333333,
          "velocity": 0.7716535433070866
        },
        {
          "duration": 0.43198483333333115,
          "durationTicks": 47,
          "midi": 63,
          "name": "D#4",
          "ticks": 11568,
          "time": 106.323416,
          "velocity": 0.9212598425196851
        },
        {
          "duration": 0.43198483333333115,
          "durationTicks": 47,
          "midi": 68,
          "name": "G#4",
          "ticks": 11568,
          "time": 106.323416,
          "velocity": 0.7716535433070866
        },
        {
          "duration": 0.22058800000000645,
          "durationTicks": 24,
          "midi": 60,
          "name": "C4",
          "ticks": 11615,
          "time": 106.75540083333333,
          "velocity": 0.8661417322834646
        },
        {
          "duration": 0.22058800000000645,
          "durationTicks": 24,
          "midi": 63,
          "name": "D#4",
          "ticks": 11615,
          "time": 106.75540083333333,
          "velocity": 0.7795275590551181
        },
        {
          "duration": 0.2113968333333247,
          "durationTicks": 23,
          "midi": 68,
          "name": "G#4",
          "ticks": 11616,
          "time": 106.76459200000001,
          "velocity": 0.8740157480314961
        },
        {
          "duration": 0.018382333333320844,
          "durationTicks": 2,
          "midi": 63,
          "name": "D#4",
          "ticks": 11639,
          "time": 106.97598883333333,
          "velocity": 0.8976377952755905
        },
        {
          "duration": 0.009191166666653316,
          "durationTicks": 1,
          "midi": 68,
          "name": "G#4",
          "ticks": 11640,
          "time": 106.98518,
          "velocity": 0.8740157480314961
        },
        {
          "duration": 0.009191166666667527,
          "durationTicks": 1,
          "midi": 60,
          "name": "C4",
          "ticks": 11651,
          "time": 107.08628283333333,
          "velocity": 0.8976377952755905
        },
        {
          "duration": 0.22058800000000645,
          "durationTicks": 24,
          "midi": 65,
          "name": "F4",
          "ticks": 11663,
          "time": 107.19657683333332,
          "velocity": 0.8110236220472441
        },
        {
          "duration": 0.21139683333333892,
          "durationTicks": 23,
          "midi": 68,
          "name": "G#4",
          "ticks": 11663,
          "time": 107.19657683333332,
          "velocity": 0.84251968503937
        },
        {
          "duration": 0.2113968333333247,
          "durationTicks": 23,
          "midi": 72,
          "name": "C5",
          "ticks": 11664,
          "time": 107.205768,
          "velocity": 0.8031496062992126
        },
        {
          "duration": 0.2113968333333247,
          "durationTicks": 23,
          "midi": 75,
          "name": "D#5",
          "ticks": 11664,
          "time": 107.205768,
          "velocity": 0.9133858267716536
        },
        {
          "duration": 0.22058799999999223,
          "durationTicks": 24,
          "midi": 63,
          "name": "D#4",
          "ticks": 11687,
          "time": 107.41716483333333,
          "velocity": 0.889763779527559
        },
        {
          "duration": 0.22058799999999223,
          "durationTicks": 24,
          "midi": 60,
          "name": "C4",
          "ticks": 11687,
          "time": 107.41716483333333,
          "velocity": 0.7637795275590551
        },
        {
          "duration": 0.22058799999999223,
          "durationTicks": 24,
          "midi": 53,
          "name": "F3",
          "ticks": 11687,
          "time": 107.41716483333333,
          "velocity": 0.7874015748031497
        },
        {
          "duration": 0.2113968333333247,
          "durationTicks": 23,
          "midi": 46,
          "name": "A#2",
          "ticks": 11688,
          "time": 107.426356,
          "velocity": 0.8740157480314961
        },
        {
          "duration": 0.018382333333335055,
          "durationTicks": 2,
          "midi": 68,
          "name": "G#4",
          "ticks": 11711,
          "time": 107.63775283333332,
          "velocity": 0.905511811023622
        },
        {
          "duration": 0.009191166666653316,
          "durationTicks": 1,
          "midi": 72,
          "name": "C5",
          "ticks": 11712,
          "time": 107.646944,
          "velocity": 0.8740157480314961
        },
        {
          "duration": 0.009191166666667527,
          "durationTicks": 1,
          "midi": 63,
          "name": "D#4",
          "ticks": 11723,
          "time": 107.74804683333333,
          "velocity": 0.8976377952755905
        },
        {
          "duration": 0.4411759999999987,
          "durationTicks": 48,
          "midi": 58,
          "name": "A#3",
          "ticks": 11735,
          "time": 107.85834083333333,
          "velocity": 0.7952755905511811
        },
        {
          "duration": 0.4411759999999987,
          "durationTicks": 48,
          "midi": 65,
          "name": "F4",
          "ticks": 11735,
          "time": 107.85834083333333,
          "velocity": 0.7637795275590551
        },
        {
          "duration": 0.4411759999999987,
          "durationTicks": 48,
          "midi": 68,
          "name": "G#4",
          "ticks": 11735,
          "time": 107.85834083333333,
          "velocity": 0.8582677165354331
        },
        {
          "duration": 0.4411759999999987,
          "durationTicks": 48,
          "midi": 72,
          "name": "C5",
          "ticks": 11735,
          "time": 107.85834083333333,
          "velocity": 0.8661417322834646
        },
        {
          "duration": 0.43198483333333115,
          "durationTicks": 47,
          "midi": 75,
          "name": "D#5",
          "ticks": 11736,
          "time": 107.867532,
          "velocity": 0.84251968503937
        },
        {
          "duration": 0.22058800000000645,
          "durationTicks": 24,
          "midi": 46,
          "name": "A#2",
          "ticks": 11783,
          "time": 108.29951683333333,
          "velocity": 0.8031496062992126
        },
        {
          "duration": 0.22058800000000645,
          "durationTicks": 24,
          "midi": 60,
          "name": "C4",
          "ticks": 11783,
          "time": 108.29951683333333,
          "velocity": 0.8661417322834646
        },
        {
          "duration": 0.21139683333333892,
          "durationTicks": 23,
          "midi": 63,
          "name": "D#4",
          "ticks": 11784,
          "time": 108.308708,
          "velocity": 0.8976377952755905
        },
        {
          "duration": 0.21139683333333892,
          "durationTicks": 23,
          "midi": 68,
          "name": "G#4",
          "ticks": 11784,
          "time": 108.308708,
          "velocity": 0.7716535433070866
        },
        {
          "duration": 0.018382333333320844,
          "durationTicks": 2,
          "midi": 63,
          "name": "D#4",
          "ticks": 11807,
          "time": 108.52010483333333,
          "velocity": 0.8976377952755905
        },
        {
          "duration": 0.009191166666653316,
          "durationTicks": 1,
          "midi": 68,
          "name": "G#4",
          "ticks": 11808,
          "time": 108.529296,
          "velocity": 0.8740157480314961
        },
        {
          "duration": 0.009191166666667527,
          "durationTicks": 1,
          "midi": 60,
          "name": "C4",
          "ticks": 11819,
          "time": 108.63039883333333,
          "velocity": 0.8976377952755905
        },
        {
          "duration": 0.4411759999999987,
          "durationTicks": 48,
          "midi": 46,
          "name": "A#2",
          "ticks": 11831,
          "time": 108.74069283333333,
          "velocity": 0.7559055118110236
        },
        {
          "duration": 0.4411759999999987,
          "durationTicks": 48,
          "midi": 53,
          "name": "F3",
          "ticks": 11831,
          "time": 108.74069283333333,
          "velocity": 0.8110236220472441
        },
        {
          "duration": 0.4411759999999987,
          "durationTicks": 48,
          "midi": 61,
          "name": "C#4",
          "ticks": 11831,
          "time": 108.74069283333333,
          "velocity": 0.84251968503937
        },
        {
          "duration": 0.43198483333333115,
          "durationTicks": 47,
          "midi": 63,
          "name": "D#4",
          "ticks": 11832,
          "time": 108.749884,
          "velocity": 0.9133858267716536
        },
        {
          "duration": 0.43198483333333115,
          "durationTicks": 47,
          "midi": 68,
          "name": "G#4",
          "ticks": 11832,
          "time": 108.749884,
          "velocity": 0.8267716535433071
        },
        {
          "duration": 0.22058800000000645,
          "durationTicks": 24,
          "midi": 46,
          "name": "A#2",
          "ticks": 11879,
          "time": 109.18186883333333,
          "velocity": 0.7086614173228346
        },
        {
          "duration": 0.22058800000000645,
          "durationTicks": 24,
          "midi": 53,
          "name": "F3",
          "ticks": 11879,
          "time": 109.18186883333333,
          "velocity": 0.889763779527559
        },
        {
          "duration": 0.2113968333333247,
          "durationTicks": 23,
          "midi": 61,
          "name": "C#4",
          "ticks": 11880,
          "time": 109.19106000000001,
          "velocity": 0.7637795275590551
        },
        {
          "duration": 0.2113968333333247,
          "durationTicks": 23,
          "midi": 63,
          "name": "D#4",
          "ticks": 11880,
          "time": 109.19106000000001,
          "velocity": 0.8976377952755905
        },
        {
          "duration": 0.2113968333333247,
          "durationTicks": 23,
          "midi": 68,
          "name": "G#4",
          "ticks": 11880,
          "time": 109.19106000000001,
          "velocity": 0.7952755905511811
        },
        {
          "duration": 0.018382333333320844,
          "durationTicks": 2,
          "midi": 68,
          "name": "G#4",
          "ticks": 11903,
          "time": 109.40245683333333,
          "velocity": 0.905511811023622
        },
        {
          "duration": 0.009191166666653316,
          "durationTicks": 1,
          "midi": 73,
          "name": "C#5",
          "ticks": 11904,
          "time": 109.411648,
          "velocity": 0.8740157480314961
        },
        {
          "duration": 0.11029399999999612,
          "durationTicks": 12,
          "midi": 63,
          "name": "D#4",
          "ticks": 11915,
          "time": 109.51275083333333,
          "velocity": 0.8976377952755905
        },
        {
          "duration": 0.11029400000001033,
          "durationTicks": 12,
          "midi": 46,
          "name": "A#2",
          "ticks": 11927,
          "time": 109.62304483333332,
          "velocity": 0.8976377952755905
        },
        {
          "duration": 0.11029400000001033,
          "durationTicks": 12,
          "midi": 53,
          "name": "F3",
          "ticks": 11927,
          "time": 109.62304483333332,
          "velocity": 0.8110236220472441
        },
        {
          "duration": 0.11029399999999612,
          "durationTicks": 12,
          "midi": 63,
          "name": "D#4",
          "ticks": 11939,
          "time": 109.73333883333333,
          "velocity": 0.8582677165354331
        },
        {
          "duration": 0.10110283333332859,
          "durationTicks": 11,
          "midi": 61,
          "name": "C#4",
          "ticks": 11939,
          "time": 109.73333883333333,
          "velocity": 0.8661417322834646
        },
        {
          "duration": 0.10110283333332859,
          "durationTicks": 11,
          "midi": 53,
          "name": "F3",
          "ticks": 11940,
          "time": 109.74253,
          "velocity": 0.84251968503937
        },
        {
          "duration": 0.4411759999999987,
          "durationTicks": 48,
          "midi": 54,
          "name": "F#3",
          "ticks": 11951,
          "time": 109.84363283333333,
          "velocity": 0.7874015748031497
        },
        {
          "duration": 0.4411759999999987,
          "durationTicks": 48,
          "midi": 61,
          "name": "C#4",
          "ticks": 11951,
          "time": 109.84363283333333,
          "velocity": 0.7795275590551181
        },
        {
          "duration": 0.4411759999999987,
          "durationTicks": 48,
          "midi": 65,
          "name": "F4",
          "ticks": 11951,
          "time": 109.84363283333333,
          "velocity": 0.8976377952755905
        },
        {
          "duration": 0.43198483333333115,
          "durationTicks": 47,
          "midi": 68,
          "name": "G#4",
          "ticks": 11952,
          "time": 109.852824,
          "velocity": 0.7637795275590551
        },
        {
          "duration": 0.43198483333333115,
          "durationTicks": 47,
          "midi": 75,
          "name": "D#5",
          "ticks": 11952,
          "time": 109.852824,
          "velocity": 0.7559055118110236
        },
        {
          "duration": 0.22058800000000645,
          "durationTicks": 24,
          "midi": 68,
          "name": "G#4",
          "ticks": 11999,
          "time": 110.28480883333333,
          "velocity": 0.8661417322834646
        },
        {
          "duration": 0.22058800000000645,
          "durationTicks": 24,
          "midi": 73,
          "name": "C#5",
          "ticks": 11999,
          "time": 110.28480883333333,
          "velocity": 0.7795275590551181
        },
        {
          "duration": 0.21139683333333892,
          "durationTicks": 23,
          "midi": 77,
          "name": "F5",
          "ticks": 12000,
          "time": 110.294,
          "velocity": 0.8740157480314961
        },
        {
          "duration": 0.018382333333320844,
          "durationTicks": 2,
          "midi": 68,
          "name": "G#4",
          "ticks": 12023,
          "time": 110.50539683333334,
          "velocity": 0.8976377952755905
        },
        {
          "duration": 0.009191166666653316,
          "durationTicks": 1,
          "midi": 73,
          "name": "C#5",
          "ticks": 12024,
          "time": 110.514588,
          "velocity": 0.8740157480314961
        },
        {
          "duration": 0.009191166666667527,
          "durationTicks": 1,
          "midi": 63,
          "name": "D#4",
          "ticks": 12035,
          "time": 110.61569083333333,
          "velocity": 0.8976377952755905
        },
        {
          "duration": 0.22058800000000645,
          "durationTicks": 24,
          "midi": 54,
          "name": "F#3",
          "ticks": 12047,
          "time": 110.72598483333333,
          "velocity": 0.7874015748031497
        },
        {
          "duration": 0.22058800000000645,
          "durationTicks": 24,
          "midi": 61,
          "name": "C#4",
          "ticks": 12047,
          "time": 110.72598483333333,
          "velocity": 0.8110236220472441
        },
        {
          "duration": 0.21139683333333892,
          "durationTicks": 23,
          "midi": 65,
          "name": "F4",
          "ticks": 12048,
          "time": 110.735176,
          "velocity": 0.84251968503937
        },
        {
          "duration": 0.21139683333333892,
          "durationTicks": 23,
          "midi": 68,
          "name": "G#4",
          "ticks": 12048,
          "time": 110.735176,
          "velocity": 0.8031496062992126
        },
        {
          "duration": 0.21139683333333892,
          "durationTicks": 23,
          "midi": 75,
          "name": "D#5",
          "ticks": 12048,
          "time": 110.735176,
          "velocity": 0.8740157480314961
        },
        {
          "duration": 0.22058799999999223,
          "durationTicks": 24,
          "midi": 65,
          "name": "F4",
          "ticks": 12071,
          "time": 110.94657283333333,
          "velocity": 0.8661417322834646
        },
        {
          "duration": 0.22058799999999223,
          "durationTicks": 24,
          "midi": 68,
          "name": "G#4",
          "ticks": 12071,
          "time": 110.94657283333333,
          "velocity": 0.7637795275590551
        },
        {
          "duration": 0.22058799999999223,
          "durationTicks": 24,
          "midi": 73,
          "name": "C#5",
          "ticks": 12071,
          "time": 110.94657283333333,
          "velocity": 0.7874015748031497
        },
        {
          "duration": 0.2113968333333247,
          "durationTicks": 23,
          "midi": 77,
          "name": "F5",
          "ticks": 12072,
          "time": 110.955764,
          "velocity": 0.8740157480314961
        },
        {
          "duration": 0.018382333333335055,
          "durationTicks": 2,
          "midi": 68,
          "name": "G#4",
          "ticks": 12095,
          "time": 111.16716083333333,
          "velocity": 0.905511811023622
        },
        {
          "duration": 0.009191166666667527,
          "durationTicks": 1,
          "midi": 73,
          "name": "C#5",
          "ticks": 12096,
          "time": 111.176352,
          "velocity": 0.8740157480314961
        },
        {
          "duration": 0.009191166666667527,
          "durationTicks": 1,
          "midi": 66,
          "name": "F#4",
          "ticks": 12107,
          "time": 111.27745483333334,
          "velocity": 0.8976377952755905
        },
        {
          "duration": 0.4411759999999987,
          "durationTicks": 48,
          "midi": 56,
          "name": "G#3",
          "ticks": 12119,
          "time": 111.38774883333333,
          "velocity": 0.7952755905511811
        },
        {
          "duration": 0.4411759999999987,
          "durationTicks": 48,
          "midi": 61,
          "name": "C#4",
          "ticks": 12119,
          "time": 111.38774883333333,
          "velocity": 0.7637795275590551
        },
        {
          "duration": 0.4411759999999987,
          "durationTicks": 48,
          "midi": 65,
          "name": "F4",
          "ticks": 12119,
          "time": 111.38774883333333,
          "velocity": 0.8582677165354331
        },
        {
          "duration": 0.43198483333333115,
          "durationTicks": 47,
          "midi": 68,
          "name": "G#4",
          "ticks": 12120,
          "time": 111.39694,
          "velocity": 0.8661417322834646
        },
        {
          "duration": 0.43198483333333115,
          "durationTicks": 47,
          "midi": 75,
          "name": "D#5",
          "ticks": 12120,
          "time": 111.39694,
          "velocity": 0.84251968503937
        },
        {
          "duration": 0.22058799999999223,
          "durationTicks": 24,
          "midi": 60,
          "name": "C4",
          "ticks": 12167,
          "time": 111.82892483333333,
          "velocity": 0.7401574803149606
        },
        {
          "duration": 0.22058799999999223,
          "durationTicks": 24,
          "midi": 65,
          "name": "F4",
          "ticks": 12167,
          "time": 111.82892483333333,
          "velocity": 0.905511811023622
        },
        {
          "duration": 0.2113968333333247,
          "durationTicks": 23,
          "midi": 68,
          "name": "G#4",
          "ticks": 12168,
          "time": 111.838116,
          "velocity": 0.7637795275590551
        },
        {
          "duration": 0.2113968333333247,
          "durationTicks": 23,
          "midi": 75,
          "name": "D#5",
          "ticks": 12168,
          "time": 111.838116,
          "velocity": 0.7952755905511811
        },
        {
          "duration": 0.22058800000000645,
          "durationTicks": 24,
          "midi": 68,
          "name": "G#4",
          "ticks": 12191,
          "time": 112.04951283333332,
          "velocity": 0.8110236220472441
        },
        {
          "duration": 0.22058800000000645,
          "durationTicks": 24,
          "midi": 72,
          "name": "C5",
          "ticks": 12191,
          "time": 112.04951283333332,
          "velocity": 0.7559055118110236
        },
        {
          "duration": 0.2113968333333247,
          "durationTicks": 23,
          "midi": 75,
          "name": "D#5",
          "ticks": 12192,
          "time": 112.058704,
          "velocity": 0.7637795275590551
        },
        {
          "duration": 0.2113968333333247,
          "durationTicks": 23,
          "midi": 80,
          "name": "G#5",
          "ticks": 12192,
          "time": 112.058704,
          "velocity": 0.7401574803149606
        },
        {
          "duration": 0.018382333333335055,
          "durationTicks": 2,
          "midi": 61,
          "name": "C#4",
          "ticks": 12215,
          "time": 112.27010083333333,
          "velocity": 0.9133858267716536
        },
        {
          "duration": 0.009191166666667527,
          "durationTicks": 1,
          "midi": 65,
          "name": "F4",
          "ticks": 12216,
          "time": 112.279292,
          "velocity": 0.7716535433070866
        },
        {
          "duration": 0.009191166666667527,
          "durationTicks": 1,
          "midi": 61,
          "name": "C#4",
          "ticks": 12227,
          "time": 112.38039483333333,
          "velocity": 0.8976377952755905
        },
        {
          "duration": 0.22058799999999223,
          "durationTicks": 24,
          "midi": 56,
          "name": "G#3",
          "ticks": 12239,
          "time": 112.49068883333334,
          "velocity": 0.7637795275590551
        },
        {
          "duration": 0.22058799999999223,
          "durationTicks": 24,
          "midi": 60,
          "name": "C4",
          "ticks": 12239,
          "time": 112.49068883333334,
          "velocity": 0.7401574803149606
        },
        {
          "duration": 0.22058799999999223,
          "durationTicks": 24,
          "midi": 65,
          "name": "F4",
          "ticks": 12239,
          "time": 112.49068883333334,
          "velocity": 0.889763779527559
        },
        {
          "duration": 0.2113968333333247,
          "durationTicks": 23,
          "midi": 68,
          "name": "G#4",
          "ticks": 12240,
          "time": 112.49988,
          "velocity": 0.7952755905511811
        },
        {
          "duration": 0.2113968333333247,
          "durationTicks": 23,
          "midi": 75,
          "name": "D#5",
          "ticks": 12240,
          "time": 112.49988,
          "velocity": 0.8818897637795275
        },
        {
          "duration": 0.2113968333333247,
          "durationTicks": 23,
          "midi": 63,
          "name": "D#4",
          "ticks": 12263,
          "time": 112.71127683333333,
          "velocity": 0.8661417322834646
        },
        {
          "duration": 0.2113968333333247,
          "durationTicks": 23,
          "midi": 68,
          "name": "G#4",
          "ticks": 12263,
          "time": 112.71127683333333,
          "velocity": 0.889763779527559
        },
        {
          "duration": 0.43198483333333115,
          "durationTicks": 47,
          "midi": 72,
          "name": "C5",
          "ticks": 12264,
          "time": 112.720468,
          "velocity": 0.8661417322834646
        },
        {
          "duration": 0.22058799999999223,
          "durationTicks": 24,
          "midi": 68,
          "name": "G#4",
          "ticks": 12287,
          "time": 112.93186483333334,
          "velocity": 0.8110236220472441
        },
        {
          "duration": 0.2113968333333247,
          "durationTicks": 23,
          "midi": 77,
          "name": "F5",
          "ticks": 12288,
          "time": 112.941056,
          "velocity": 0.8661417322834646
        },
        {
          "duration": 0.018382333333335055,
          "durationTicks": 2,
          "midi": 61,
          "name": "C#4",
          "ticks": 12311,
          "time": 113.15245283333333,
          "velocity": 0.9133858267716536
        },
        {
          "duration": 0.009191166666667527,
          "durationTicks": 1,
          "midi": 65,
          "name": "F4",
          "ticks": 12312,
          "time": 113.161644,
          "velocity": 0.7716535433070866
        },
        {
          "duration": 0.018382333333335055,
          "durationTicks": 2,
          "midi": 73,
          "name": "C#5",
          "ticks": 12323,
          "time": 113.26274683333332,
          "velocity": 0.8976377952755905
        },
        {
          "duration": 0.4411759999999987,
          "durationTicks": 48,
          "midi": 46,
          "name": "A#2",
          "ticks": 12335,
          "time": 113.37304083333333,
          "velocity": 0.7874015748031497
        },
        {
          "duration": 0.4411759999999987,
          "durationTicks": 48,
          "midi": 53,
          "name": "F3",
          "ticks": 12335,
          "time": 113.37304083333333,
          "velocity": 0.8031496062992126
        },
        {
          "duration": 0.4411759999999987,
          "durationTicks": 48,
          "midi": 60,
          "name": "C4",
          "ticks": 12335,
          "time": 113.37304083333333,
          "velocity": 0.7716535433070866
        },
        {
          "duration": 0.43198483333333115,
          "durationTicks": 47,
          "midi": 63,
          "name": "D#4",
          "ticks": 12336,
          "time": 113.382232,
          "velocity": 0.8661417322834646
        },
        {
          "duration": 0.43198483333333115,
          "durationTicks": 47,
          "midi": 68,
          "name": "G#4",
          "ticks": 12336,
          "time": 113.382232,
          "velocity": 0.905511811023622
        },
        {
          "duration": 0.22058799999999223,
          "durationTicks": 24,
          "midi": 60,
          "name": "C4",
          "ticks": 12383,
          "time": 113.81421683333333,
          "velocity": 0.8661417322834646
        },
        {
          "duration": 0.22058799999999223,
          "durationTicks": 24,
          "midi": 63,
          "name": "D#4",
          "ticks": 12383,
          "time": 113.81421683333333,
          "velocity": 0.7795275590551181
        },
        {
          "duration": 0.2113968333333247,
          "durationTicks": 23,
          "midi": 68,
          "name": "G#4",
          "ticks": 12384,
          "time": 113.823408,
          "velocity": 0.8740157480314961
        },
        {
          "duration": 0.2113968333333247,
          "durationTicks": 23,
          "midi": 72,
          "name": "C5",
          "ticks": 12384,
          "time": 113.823408,
          "velocity": 0.8503937007874016
        },
        {
          "duration": 0.018382333333335055,
          "durationTicks": 2,
          "midi": 63,
          "name": "D#4",
          "ticks": 12407,
          "time": 114.03480483333333,
          "velocity": 0.8976377952755905
        },
        {
          "duration": 0.009191166666653316,
          "durationTicks": 1,
          "midi": 68,
          "name": "G#4",
          "ticks": 12408,
          "time": 114.043996,
          "velocity": 0.8740157480314961
        },
        {
          "duration": 0.018382333333320844,
          "durationTicks": 2,
          "midi": 72,
          "name": "C5",
          "ticks": 12419,
          "time": 114.14509883333334,
          "velocity": 0.8976377952755905
        },
        {
          "duration": 0.22058799999999223,
          "durationTicks": 24,
          "midi": 65,
          "name": "F4",
          "ticks": 12431,
          "time": 114.25539283333333,
          "velocity": 0.8110236220472441
        },
        {
          "duration": 0.2113968333333247,
          "durationTicks": 23,
          "midi": 68,
          "name": "G#4",
          "ticks": 12431,
          "time": 114.25539283333333,
          "velocity": 0.84251968503937
        },
        {
          "duration": 0.2113968333333247,
          "durationTicks": 23,
          "midi": 72,
          "name": "C5",
          "ticks": 12432,
          "time": 114.264584,
          "velocity": 0.8031496062992126
        },
        {
          "duration": 0.2113968333333247,
          "durationTicks": 23,
          "midi": 75,
          "name": "D#5",
          "ticks": 12432,
          "time": 114.264584,
          "velocity": 0.9133858267716536
        },
        {
          "duration": 0.22058800000000645,
          "durationTicks": 24,
          "midi": 68,
          "name": "G#4",
          "ticks": 12455,
          "time": 114.47598083333332,
          "velocity": 0.889763779527559
        },
        {
          "duration": 0.22058800000000645,
          "durationTicks": 24,
          "midi": 63,
          "name": "D#4",
          "ticks": 12455,
          "time": 114.47598083333332,
          "velocity": 0.7637795275590551
        },
        {
          "duration": 0.22058800000000645,
          "durationTicks": 24,
          "midi": 60,
          "name": "C4",
          "ticks": 12455,
          "time": 114.47598083333332,
          "velocity": 0.7874015748031497
        },
        {
          "duration": 0.22058799999997802,
          "durationTicks": 24,
          "midi": 53,
          "name": "F3",
          "ticks": 12456,
          "time": 114.485172,
          "velocity": 0.7637795275590551
        },
        {
          "duration": 0.2113968333333247,
          "durationTicks": 23,
          "midi": 46,
          "name": "A#2",
          "ticks": 12456,
          "time": 114.485172,
          "velocity": 0.8740157480314961
        },
        {
          "duration": 0.018382333333335055,
          "durationTicks": 2,
          "midi": 63,
          "name": "D#4",
          "ticks": 12479,
          "time": 114.69656883333333,
          "velocity": 0.905511811023622
        },
        {
          "duration": 0.009191166666681738,
          "durationTicks": 1,
          "midi": 68,
          "name": "G#4",
          "ticks": 12480,
          "time": 114.70575999999998,
          "velocity": 0.8740157480314961
        },
        {
          "duration": 0.018382333333349266,
          "durationTicks": 2,
          "midi": 73,
          "name": "C#5",
          "ticks": 12491,
          "time": 114.80686283333333,
          "velocity": 0.8976377952755905
        },
        {
          "duration": 0.4411759999999987,
          "durationTicks": 48,
          "midi": 61,
          "name": "C#4",
          "ticks": 12503,
          "time": 114.91715683333334,
          "velocity": 0.7952755905511811
        },
        {
          "duration": 0.4411759999999987,
          "durationTicks": 48,
          "midi": 65,
          "name": "F4",
          "ticks": 12503,
          "time": 114.91715683333334,
          "velocity": 0.7637795275590551
        },
        {
          "duration": 0.4411759999999987,
          "durationTicks": 48,
          "midi": 72,
          "name": "C5",
          "ticks": 12503,
          "time": 114.91715683333334,
          "velocity": 0.8582677165354331
        },
        {
          "duration": 0.43198483333334536,
          "durationTicks": 47,
          "midi": 75,
          "name": "D#5",
          "ticks": 12504,
          "time": 114.92634799999999,
          "velocity": 0.8661417322834646
        },
        {
          "duration": 0.43198483333334536,
          "durationTicks": 47,
          "midi": 80,
          "name": "G#5",
          "ticks": 12504,
          "time": 114.92634799999999,
          "velocity": 0.84251968503937
        },
        {
          "duration": 0.22058799999999223,
          "durationTicks": 24,
          "midi": 65,
          "name": "F4",
          "ticks": 12551,
          "time": 115.35833283333334,
          "velocity": 0.84251968503937
        },
        {
          "duration": 0.22058799999999223,
          "durationTicks": 24,
          "midi": 72,
          "name": "C5",
          "ticks": 12551,
          "time": 115.35833283333334,
          "velocity": 0.7795275590551181
        },
        {
          "duration": 0.21139683333333892,
          "durationTicks": 23,
          "midi": 75,
          "name": "D#5",
          "ticks": 12552,
          "time": 115.36752399999999,
          "velocity": 0.8503937007874016
        },
        {
          "duration": 0.21139683333333892,
          "durationTicks": 23,
          "midi": 80,
          "name": "G#5",
          "ticks": 12552,
          "time": 115.36752399999999,
          "velocity": 0.8818897637795275
        },
        {
          "duration": 0.018382333333349266,
          "durationTicks": 2,
          "midi": 65,
          "name": "F4",
          "ticks": 12575,
          "time": 115.57892083333333,
          "velocity": 0.8976377952755905
        },
        {
          "duration": 0.009191166666681738,
          "durationTicks": 1,
          "midi": 72,
          "name": "C5",
          "ticks": 12576,
          "time": 115.588112,
          "velocity": 0.8740157480314961
        },
        {
          "duration": 0.018382333333349266,
          "durationTicks": 2,
          "midi": 61,
          "name": "C#4",
          "ticks": 12587,
          "time": 115.68921483333332,
          "velocity": 0.8976377952755905
        },
        {
          "duration": 0.4411759999999987,
          "durationTicks": 48,
          "midi": 49,
          "name": "C#3",
          "ticks": 12599,
          "time": 115.79950883333333,
          "velocity": 0.8661417322834646
        },
        {
          "duration": 0.4411759999999987,
          "durationTicks": 48,
          "midi": 53,
          "name": "F3",
          "ticks": 12599,
          "time": 115.79950883333333,
          "velocity": 0.7637795275590551
        },
        {
          "duration": 0.4411759999999987,
          "durationTicks": 48,
          "midi": 60,
          "name": "C4",
          "ticks": 12599,
          "time": 115.79950883333333,
          "velocity": 0.7874015748031497
        },
        {
          "duration": 0.43198483333334536,
          "durationTicks": 47,
          "midi": 63,
          "name": "D#4",
          "ticks": 12600,
          "time": 115.80869999999999,
          "velocity": 0.9133858267716536
        },
        {
          "duration": 0.43198483333334536,
          "durationTicks": 47,
          "midi": 68,
          "name": "G#4",
          "ticks": 12600,
          "time": 115.80869999999999,
          "velocity": 0.7322834645669292
        },
        {
          "duration": 0.11029399999999612,
          "durationTicks": 12,
          "midi": 53,
          "name": "F3",
          "ticks": 12647,
          "time": 116.24068483333333,
          "velocity": 0.84251968503937
        },
        {
          "duration": 0.11029399999999612,
          "durationTicks": 12,
          "midi": 60,
          "name": "C4",
          "ticks": 12647,
          "time": 116.24068483333333,
          "velocity": 0.7795275590551181
        },
        {
          "duration": 0.1011028333333428,
          "durationTicks": 11,
          "midi": 65,
          "name": "F4",
          "ticks": 12648,
          "time": 116.24987599999999,
          "velocity": 0.8503937007874016
        },
        {
          "duration": 0.1011028333333428,
          "durationTicks": 11,
          "midi": 68,
          "name": "G#4",
          "ticks": 12648,
          "time": 116.24987599999999,
          "velocity": 0.8818897637795275
        },
        {
          "duration": 0.11029399999999612,
          "durationTicks": 12,
          "midi": 49,
          "name": "C#3",
          "ticks": 12659,
          "time": 116.35097883333333,
          "velocity": 0.8503937007874016
        },
        {
          "duration": 0.22058800000000645,
          "durationTicks": 24,
          "midi": 49,
          "name": "C#3",
          "ticks": 12671,
          "time": 116.46127283333333,
          "velocity": 0.7637795275590551
        },
        {
          "duration": 0.22058800000000645,
          "durationTicks": 24,
          "midi": 53,
          "name": "F3",
          "ticks": 12671,
          "time": 116.46127283333333,
          "velocity": 0.7874015748031497
        },
        {
          "duration": 0.22058799999999223,
          "durationTicks": 24,
          "midi": 60,
          "name": "C4",
          "ticks": 12672,
          "time": 116.47046399999999,
          "velocity": 0.7637795275590551
        },
        {
          "duration": 0.21139683333333892,
          "durationTicks": 23,
          "midi": 63,
          "name": "D#4",
          "ticks": 12672,
          "time": 116.47046399999999,
          "velocity": 0.8740157480314961
        },
        {
          "duration": 0.018382333333335055,
          "durationTicks": 2,
          "midi": 49,
          "name": "C#3",
          "ticks": 12695,
          "time": 116.68186083333333,
          "velocity": 0.905511811023622
        },
        {
          "duration": 0.009191166666681738,
          "durationTicks": 1,
          "midi": 53,
          "name": "F3",
          "ticks": 12696,
          "time": 116.69105199999998,
          "velocity": 0.8740157480314961
        },
        {
          "duration": 0.055147000000005164,
          "durationTicks": 6,
          "midi": 63,
          "name": "D#4",
          "ticks": 12707,
          "time": 116.79215483333333,
          "velocity": 0.8976377952755905
        },
        {
          "duration": 0.4411760000000129,
          "durationTicks": 48,
          "midi": 55,
          "name": "G3",
          "ticks": 12719,
          "time": 116.90244883333332,
          "velocity": 0.7874015748031497
        },
        {
          "duration": 0.4411760000000129,
          "durationTicks": 48,
          "midi": 61,
          "name": "C#4",
          "ticks": 12719,
          "time": 116.90244883333332,
          "velocity": 0.7795275590551181
        },
        {
          "duration": 0.4411760000000129,
          "durationTicks": 48,
          "midi": 65,
          "name": "F4",
          "ticks": 12719,
          "time": 116.90244883333332,
          "velocity": 0.8976377952755905
        },
        {
          "duration": 0.43198483333334536,
          "durationTicks": 47,
          "midi": 70,
          "name": "A#4",
          "ticks": 12720,
          "time": 116.91163999999999,
          "velocity": 0.7637795275590551
        },
        {
          "duration": 0.22058800000000645,
          "durationTicks": 24,
          "midi": 73,
          "name": "C#5",
          "ticks": 12743,
          "time": 117.12303683333333,
          "velocity": 0.8976377952755905
        },
        {
          "duration": 0.11029399999999612,
          "durationTicks": 12,
          "midi": 70,
          "name": "A#4",
          "ticks": 12767,
          "time": 117.34362483333334,
          "velocity": 0.8661417322834646
        },
        {
          "duration": 0.11029399999999612,
          "durationTicks": 12,
          "midi": 73,
          "name": "C#5",
          "ticks": 12767,
          "time": 117.34362483333334,
          "velocity": 0.7795275590551181
        },
        {
          "duration": 0.1011028333333428,
          "durationTicks": 11,
          "midi": 77,
          "name": "F5",
          "ticks": 12768,
          "time": 117.35281599999999,
          "velocity": 0.8740157480314961
        },
        {
          "duration": 0.018382333333335055,
          "durationTicks": 2,
          "midi": 68,
          "name": "G#4",
          "ticks": 12779,
          "time": 117.45391883333333,
          "velocity": 0.8976377952755905
        },
        {
          "duration": 0.009191166666681738,
          "durationTicks": 1,
          "midi": 73,
          "name": "C#5",
          "ticks": 12780,
          "time": 117.46310999999999,
          "velocity": 0.8740157480314961
        },
        {
          "duration": 0.22058800000000645,
          "durationTicks": 24,
          "midi": 61,
          "name": "C#4",
          "ticks": 12791,
          "time": 117.56421283333333,
          "velocity": 0.7795275590551181
        },
        {
          "duration": 0.22058800000000645,
          "durationTicks": 24,
          "midi": 65,
          "name": "F4",
          "ticks": 12791,
          "time": 117.56421283333333,
          "velocity": 0.7086614173228346
        },
        {
          "duration": 0.21139683333335313,
          "durationTicks": 23,
          "midi": 70,
          "name": "A#4",
          "ticks": 12792,
          "time": 117.57340399999998,
          "velocity": 0.7637795275590551
        },
        {
          "duration": 0.21139683333335313,
          "durationTicks": 23,
          "midi": 73,
          "name": "C#5",
          "ticks": 12792,
          "time": 117.57340399999998,
          "velocity": 0.7559055118110236
        },
        {
          "duration": 0.22058799999999223,
          "durationTicks": 24,
          "midi": 55,
          "name": "G3",
          "ticks": 12815,
          "time": 117.78480083333334,
          "velocity": 0.7874015748031497
        },
        {
          "duration": 0.22058799999999223,
          "durationTicks": 24,
          "midi": 61,
          "name": "C#4",
          "ticks": 12815,
          "time": 117.78480083333334,
          "velocity": 0.8110236220472441
        },
        {
          "duration": 0.21139683333333892,
          "durationTicks": 23,
          "midi": 65,
          "name": "F4",
          "ticks": 12816,
          "time": 117.79399199999999,
          "velocity": 0.84251968503937
        },
        {
          "duration": 0.21139683333333892,
          "durationTicks": 23,
          "midi": 70,
          "name": "A#4",
          "ticks": 12816,
          "time": 117.79399199999999,
          "velocity": 0.8031496062992126
        },
        {
          "duration": 0.21139683333333892,
          "durationTicks": 23,
          "midi": 75,
          "name": "D#5",
          "ticks": 12816,
          "time": 117.79399199999999,
          "velocity": 0.8740157480314961
        },
        {
          "duration": 0.22058800000000645,
          "durationTicks": 24,
          "midi": 65,
          "name": "F4",
          "ticks": 12839,
          "time": 118.00538883333333,
          "velocity": 0.8661417322834646
        },
        {
          "duration": 0.22058800000000645,
          "durationTicks": 24,
          "midi": 70,
          "name": "A#4",
          "ticks": 12839,
          "time": 118.00538883333333,
          "velocity": 0.7637795275590551
        },
        {
          "duration": 0.22058799999999223,
          "durationTicks": 24,
          "midi": 73,
          "name": "C#5",
          "ticks": 12840,
          "time": 118.01458,
          "velocity": 0.7874015748031497
        },
        {
          "duration": 0.21139683333333892,
          "durationTicks": 23,
          "midi": 77,
          "name": "F5",
          "ticks": 12840,
          "time": 118.01458,
          "velocity": 0.905511811023622
        },
        {
          "duration": 0.018382333333335055,
          "durationTicks": 2,
          "midi": 70,
          "name": "A#4",
          "ticks": 12863,
          "time": 118.22597683333333,
          "velocity": 0.905511811023622
        },
        {
          "duration": 0.009191166666681738,
          "durationTicks": 1,
          "midi": 75,
          "name": "D#5",
          "ticks": 12864,
          "time": 118.23516799999999,
          "velocity": 0.8740157480314961
        },
        {
          "duration": 0.009191166666653316,
          "durationTicks": 1,
          "midi": 65,
          "name": "F4",
          "ticks": 12875,
          "time": 118.33627083333333,
          "velocity": 0.8976377952755905
        },
        {
          "duration": 0.4411759999999987,
          "durationTicks": 48,
          "midi": 54,
          "name": "F#3",
          "ticks": 12887,
          "time": 118.44656483333333,
          "velocity": 0.7637795275590551
        },
        {
          "duration": 0.4411759999999987,
          "durationTicks": 48,
          "midi": 61,
          "name": "C#4",
          "ticks": 12887,
          "time": 118.44656483333333,
          "velocity": 0.8582677165354331
        },
        {
          "duration": 0.4411759999999987,
          "durationTicks": 48,
          "midi": 65,
          "name": "F4",
          "ticks": 12887,
          "time": 118.44656483333333,
          "velocity": 0.8661417322834646
        },
        {
          "duration": 0.43198483333333115,
          "durationTicks": 47,
          "midi": 70,
          "name": "A#4",
          "ticks": 12888,
          "time": 118.455756,
          "velocity": 0.9212598425196851
        },
        {
          "duration": 0.43198483333333115,
          "durationTicks": 47,
          "midi": 75,
          "name": "D#5",
          "ticks": 12888,
          "time": 118.455756,
          "velocity": 0.84251968503937
        },
        {
          "duration": 0.22058800000000645,
          "durationTicks": 24,
          "midi": 54,
          "name": "F#3",
          "ticks": 12935,
          "time": 118.88774083333332,
          "velocity": 0.7874015748031497
        },
        {
          "duration": 0.22058800000000645,
          "durationTicks": 24,
          "midi": 61,
          "name": "C#4",
          "ticks": 12935,
          "time": 118.88774083333332,
          "velocity": 0.8110236220472441
        },
        {
          "duration": 0.21139683333333892,
          "durationTicks": 23,
          "midi": 65,
          "name": "F4",
          "ticks": 12936,
          "time": 118.89693199999999,
          "velocity": 0.84251968503937
        },
        {
          "duration": 0.21139683333333892,
          "durationTicks": 23,
          "midi": 70,
          "name": "A#4",
          "ticks": 12936,
          "time": 118.89693199999999,
          "velocity": 0.8031496062992126
        },
        {
          "duration": 0.21139683333333892,
          "durationTicks": 23,
          "midi": 75,
          "name": "D#5",
          "ticks": 12936,
          "time": 118.89693199999999,
          "velocity": 0.8740157480314961
        },
        {
          "duration": 0.11029399999999612,
          "durationTicks": 12,
          "midi": 65,
          "name": "F4",
          "ticks": 12959,
          "time": 119.10832883333333,
          "velocity": 0.8661417322834646
        },
        {
          "duration": 0.11029399999999612,
          "durationTicks": 12,
          "midi": 70,
          "name": "A#4",
          "ticks": 12959,
          "time": 119.10832883333333,
          "velocity": 0.7637795275590551
        },
        {
          "duration": 0.1011028333333428,
          "durationTicks": 11,
          "midi": 73,
          "name": "C#5",
          "ticks": 12960,
          "time": 119.11751999999998,
          "velocity": 0.7874015748031497
        },
        {
          "duration": 0.1011028333333428,
          "durationTicks": 11,
          "midi": 77,
          "name": "F5",
          "ticks": 12960,
          "time": 119.11751999999998,
          "velocity": 0.905511811023622
        },
        {
          "duration": 0.018382333333349266,
          "durationTicks": 2,
          "midi": 70,
          "name": "A#4",
          "ticks": 12971,
          "time": 119.21862283333333,
          "velocity": 0.905511811023622
        },
        {
          "duration": 0.009191166666681738,
          "durationTicks": 1,
          "midi": 75,
          "name": "D#5",
          "ticks": 12972,
          "time": 119.227814,
          "velocity": 0.8740157480314961
        },
        {
          "duration": 0.009191166666667527,
          "durationTicks": 1,
          "midi": 65,
          "name": "F4",
          "ticks": 12983,
          "time": 119.32891683333332,
          "velocity": 0.8976377952755905
        },
        {
          "duration": 0.11029399999999612,
          "durationTicks": 12,
          "midi": 75,
          "name": "D#5",
          "ticks": 12995,
          "time": 119.43921083333333,
          "velocity": 0.8267716535433071
        },
        {
          "duration": 0.22058800000000645,
          "durationTicks": 24,
          "midi": 54,
          "name": "F#3",
          "ticks": 13007,
          "time": 119.54950483333333,
          "velocity": 0.7874015748031497
        },
        {
          "duration": 0.22058800000000645,
          "durationTicks": 24,
          "midi": 61,
          "name": "C#4",
          "ticks": 13007,
          "time": 119.54950483333333,
          "velocity": 0.8110236220472441
        },
        {
          "duration": 0.21139683333335313,
          "durationTicks": 23,
          "midi": 65,
          "name": "F4",
          "ticks": 13008,
          "time": 119.55869599999998,
          "velocity": 0.84251968503937
        },
        {
          "duration": 0.21139683333335313,
          "durationTicks": 23,
          "midi": 70,
          "name": "A#4",
          "ticks": 13008,
          "time": 119.55869599999998,
          "velocity": 0.8031496062992126
        },
        {
          "duration": 0.21139683333335313,
          "durationTicks": 23,
          "midi": 75,
          "name": "D#5",
          "ticks": 13008,
          "time": 119.55869599999998,
          "velocity": 0.8740157480314961
        },
        {
          "duration": 0.22058799999999223,
          "durationTicks": 24,
          "midi": 65,
          "name": "F4",
          "ticks": 13031,
          "time": 119.77009283333334,
          "velocity": 0.8661417322834646
        },
        {
          "duration": 0.22058799999999223,
          "durationTicks": 24,
          "midi": 70,
          "name": "A#4",
          "ticks": 13031,
          "time": 119.77009283333334,
          "velocity": 0.7637795275590551
        },
        {
          "duration": 0.22058799999999223,
          "durationTicks": 24,
          "midi": 73,
          "name": "C#5",
          "ticks": 13032,
          "time": 119.77928399999999,
          "velocity": 0.7874015748031497
        },
        {
          "duration": 0.21139683333333892,
          "durationTicks": 23,
          "midi": 77,
          "name": "F5",
          "ticks": 13032,
          "time": 119.77928399999999,
          "velocity": 0.905511811023622
        },
        {
          "duration": 0.11029399999999612,
          "durationTicks": 12,
          "midi": 61,
          "name": "C#4",
          "ticks": 13055,
          "time": 119.99068083333333,
          "velocity": 0.8110236220472441
        },
        {
          "duration": 0.11029399999999612,
          "durationTicks": 12,
          "midi": 65,
          "name": "F4",
          "ticks": 13055,
          "time": 119.99068083333333,
          "velocity": 0.84251968503937
        },
        {
          "duration": 0.1011028333333428,
          "durationTicks": 11,
          "midi": 70,
          "name": "A#4",
          "ticks": 13056,
          "time": 119.99987199999998,
          "velocity": 0.8031496062992126
        },
        {
          "duration": 0.1011028333333428,
          "durationTicks": 11,
          "midi": 75,
          "name": "D#5",
          "ticks": 13056,
          "time": 119.99987199999998,
          "velocity": 0.8740157480314961
        },
        {
          "duration": 0.11029400000001033,
          "durationTicks": 12,
          "midi": 77,
          "name": "F5",
          "ticks": 13067,
          "time": 120.10097483333332,
          "velocity": 0.905511811023622
        },
        {
          "duration": 0.11029400000001033,
          "durationTicks": 12,
          "midi": 73,
          "name": "C#5",
          "ticks": 13067,
          "time": 120.10097483333332,
          "velocity": 0.7874015748031497
        },
        {
          "duration": 0.1011028333333428,
          "durationTicks": 11,
          "midi": 70,
          "name": "A#4",
          "ticks": 13068,
          "time": 120.11016599999999,
          "velocity": 0.7637795275590551
        },
        {
          "duration": 0.018382333333335055,
          "durationTicks": 2,
          "midi": 54,
          "name": "F#3",
          "ticks": 13079,
          "time": 120.21126883333334,
          "velocity": 0.905511811023622
        },
        {
          "duration": 0.009191166666681738,
          "durationTicks": 1,
          "midi": 61,
          "name": "C#4",
          "ticks": 13080,
          "time": 120.22045999999999,
          "velocity": 0.8740157480314961
        },
        {
          "duration": 0.06433816666665848,
          "durationTicks": 7,
          "midi": 75,
          "name": "D#5",
          "ticks": 13091,
          "time": 120.32156283333333,
          "velocity": 0.905511811023622
        },
        {
          "duration": 0.055147000000005164,
          "durationTicks": 6,
          "midi": 73,
          "name": "C#5",
          "ticks": 13091,
          "time": 120.32156283333333,
          "velocity": 0.7874015748031497
        },
        {
          "duration": 0.04595583333335185,
          "durationTicks": 5,
          "midi": 70,
          "name": "A#4",
          "ticks": 13092,
          "time": 120.33075399999998,
          "velocity": 0.7637795275590551
        },
        {
          "duration": 0.4411759999999987,
          "durationTicks": 48,
          "midi": 53,
          "name": "F3",
          "ticks": 13103,
          "time": 120.43185683333333,
          "velocity": 0.7874015748031497
        },
        {
          "duration": 0.4411759999999987,
          "durationTicks": 48,
          "midi": 63,
          "name": "D#4",
          "ticks": 13103,
          "time": 120.43185683333333,
          "velocity": 0.905511811023622
        },
        {
          "duration": 0.4411759999999987,
          "durationTicks": 48,
          "midi": 68,
          "name": "G#4",
          "ticks": 13103,
          "time": 120.43185683333333,
          "velocity": 0.7952755905511811
        },
        {
          "duration": 0.43198483333333115,
          "durationTicks": 47,
          "midi": 72,
          "name": "C5",
          "ticks": 13104,
          "time": 120.441048,
          "velocity": 0.7637795275590551
        },
        {
          "duration": 0.43198483333333115,
          "durationTicks": 47,
          "midi": 75,
          "name": "D#5",
          "ticks": 13104,
          "time": 120.441048,
          "velocity": 0.7322834645669292
        },
        {
          "duration": 0.22058800000000645,
          "durationTicks": 24,
          "midi": 53,
          "name": "F3",
          "ticks": 13151,
          "time": 120.87303283333333,
          "velocity": 0.7795275590551181
        },
        {
          "duration": 0.22058800000000645,
          "durationTicks": 24,
          "midi": 63,
          "name": "D#4",
          "ticks": 13151,
          "time": 120.87303283333333,
          "velocity": 0.8031496062992126
        },
        {
          "duration": 0.21139683333333892,
          "durationTicks": 23,
          "midi": 68,
          "name": "G#4",
          "ticks": 13152,
          "time": 120.882224,
          "velocity": 0.905511811023622
        },
        {
          "duration": 0.21139683333333892,
          "durationTicks": 23,
          "midi": 72,
          "name": "C5",
          "ticks": 13152,
          "time": 120.882224,
          "velocity": 0.7637795275590551
        },
        {
          "duration": 0.018382333333335055,
          "durationTicks": 2,
          "midi": 63,
          "name": "D#4",
          "ticks": 13175,
          "time": 121.09362083333333,
          "velocity": 0.8976377952755905
        },
        {
          "duration": 0.009191166666681738,
          "durationTicks": 1,
          "midi": 72,
          "name": "C5",
          "ticks": 13176,
          "time": 121.10281199999999,
          "velocity": 0.9133858267716536
        },
        {
          "duration": 0.018382333333349266,
          "durationTicks": 2,
          "midi": 68,
          "name": "G#4",
          "ticks": 13187,
          "time": 121.20391483333333,
          "velocity": 0.8976377952755905
        },
        {
          "duration": 0.22058800000000645,
          "durationTicks": 24,
          "midi": 53,
          "name": "F3",
          "ticks": 13199,
          "time": 121.31420883333332,
          "velocity": 0.7874015748031497
        },
        {
          "duration": 0.22058800000000645,
          "durationTicks": 24,
          "midi": 65,
          "name": "F4",
          "ticks": 13199,
          "time": 121.31420883333332,
          "velocity": 0.8110236220472441
        },
        {
          "duration": 0.21139683333333892,
          "durationTicks": 23,
          "midi": 68,
          "name": "G#4",
          "ticks": 13200,
          "time": 121.32339999999999,
          "velocity": 0.905511811023622
        },
        {
          "duration": 0.21139683333333892,
          "durationTicks": 23,
          "midi": 72,
          "name": "C5",
          "ticks": 13200,
          "time": 121.32339999999999,
          "velocity": 0.7874015748031497
        },
        {
          "duration": 0.21139683333333892,
          "durationTicks": 23,
          "midi": 75,
          "name": "D#5",
          "ticks": 13200,
          "time": 121.32339999999999,
          "velocity": 0.7716535433070866
        },
        {
          "duration": 0.22058800000000645,
          "durationTicks": 24,
          "midi": 63,
          "name": "D#4",
          "ticks": 13223,
          "time": 121.53479683333333,
          "velocity": 0.8661417322834646
        },
        {
          "duration": 0.22058800000000645,
          "durationTicks": 24,
          "midi": 68,
          "name": "G#4",
          "ticks": 13223,
          "time": 121.53479683333333,
          "velocity": 0.8976377952755905
        },
        {
          "duration": 0.22058800000000645,
          "durationTicks": 24,
          "midi": 72,
          "name": "C5",
          "ticks": 13223,
          "time": 121.53479683333333,
          "velocity": 0.7874015748031497
        },
        {
          "duration": 0.21139683333335313,
          "durationTicks": 23,
          "midi": 75,
          "name": "D#5",
          "ticks": 13224,
          "time": 121.54398799999998,
          "velocity": 0.8740157480314961
        },
        {
          "duration": 0.018382333333335055,
          "durationTicks": 2,
          "midi": 68,
          "name": "G#4",
          "ticks": 13247,
          "time": 121.75538483333334,
          "velocity": 0.905511811023622
        },
        {
          "duration": 0.009191166666681738,
          "durationTicks": 1,
          "midi": 72,
          "name": "C5",
          "ticks": 13248,
          "time": 121.76457599999999,
          "velocity": 0.8740157480314961
        },
        {
          "duration": 0.009191166666653316,
          "durationTicks": 1,
          "midi": 63,
          "name": "D#4",
          "ticks": 13259,
          "time": 121.86567883333333,
          "velocity": 0.8976377952755905
        },
        {
          "duration": 0.4411759999999987,
          "durationTicks": 48,
          "midi": 46,
          "name": "A#2",
          "ticks": 13271,
          "time": 121.97597283333333,
          "velocity": 0.7637795275590551
        },
        {
          "duration": 0.4411759999999987,
          "durationTicks": 48,
          "midi": 53,
          "name": "F3",
          "ticks": 13271,
          "time": 121.97597283333333,
          "velocity": 0.8582677165354331
        },
        {
          "duration": 0.4411759999999987,
          "durationTicks": 48,
          "midi": 63,
          "name": "D#4",
          "ticks": 13271,
          "time": 121.97597283333333,
          "velocity": 0.8661417322834646
        },
        {
          "duration": 0.43198483333334536,
          "durationTicks": 47,
          "midi": 68,
          "name": "G#4",
          "ticks": 13272,
          "time": 121.98516399999998,
          "velocity": 0.9212598425196851
        },
        {
          "duration": 0.43198483333334536,
          "durationTicks": 47,
          "midi": 72,
          "name": "C5",
          "ticks": 13272,
          "time": 121.98516399999998,
          "velocity": 0.84251968503937
        },
        {
          "duration": 0.22058800000000645,
          "durationTicks": 24,
          "midi": 46,
          "name": "A#2",
          "ticks": 13319,
          "time": 122.41714883333333,
          "velocity": 0.7637795275590551
        },
        {
          "duration": 0.22058800000000645,
          "durationTicks": 24,
          "midi": 53,
          "name": "F3",
          "ticks": 13319,
          "time": 122.41714883333333,
          "velocity": 0.7874015748031497
        },
        {
          "duration": 0.22058800000000645,
          "durationTicks": 24,
          "midi": 63,
          "name": "D#4",
          "ticks": 13320,
          "time": 122.42633999999998,
          "velocity": 0.7637795275590551
        },
        {
          "duration": 0.21139683333335313,
          "durationTicks": 23,
          "midi": 68,
          "name": "G#4",
          "ticks": 13320,
          "time": 122.42633999999998,
          "velocity": 0.8740157480314961
        },
        {
          "duration": 0.018382333333335055,
          "durationTicks": 2,
          "midi": 46,
          "name": "A#2",
          "ticks": 13343,
          "time": 122.63773683333334,
          "velocity": 0.905511811023622
        },
        {
          "duration": 0.009191166666681738,
          "durationTicks": 1,
          "midi": 53,
          "name": "F3",
          "ticks": 13344,
          "time": 122.64692799999999,
          "velocity": 0.8740157480314961
        },
        {
          "duration": 0.027573500000002582,
          "durationTicks": 3,
          "midi": 63,
          "name": "D#4",
          "ticks": 13355,
          "time": 122.74803083333333,
          "velocity": 0.8976377952755905
        },
        {
          "duration": 0.6617640000000051,
          "durationTicks": 72,
          "midi": 46,
          "name": "A#2",
          "ticks": 13367,
          "time": 122.85832483333333,
          "velocity": 0.8188976377952756
        },
        {
          "duration": 0.6617640000000051,
          "durationTicks": 72,
          "midi": 53,
          "name": "F3",
          "ticks": 13367,
          "time": 122.85832483333333,
          "velocity": 0.8110236220472441
        },
        {
          "duration": 0.6525728333333376,
          "durationTicks": 71,
          "midi": 61,
          "name": "C#4",
          "ticks": 13368,
          "time": 122.867516,
          "velocity": 0.84251968503937
        },
        {
          "duration": 0.6525728333333376,
          "durationTicks": 71,
          "midi": 63,
          "name": "D#4",
          "ticks": 13368,
          "time": 122.867516,
          "velocity": 0.8976377952755905
        },
        {
          "duration": 0.6525728333333376,
          "durationTicks": 71,
          "midi": 68,
          "name": "G#4",
          "ticks": 13368,
          "time": 122.867516,
          "velocity": 0.7559055118110236
        },
        {
          "duration": 0.22058799999999223,
          "durationTicks": 24,
          "midi": 46,
          "name": "A#2",
          "ticks": 13439,
          "time": 123.52008883333333,
          "velocity": 0.8661417322834646
        },
        {
          "duration": 0.22058799999999223,
          "durationTicks": 24,
          "midi": 53,
          "name": "F3",
          "ticks": 13439,
          "time": 123.52008883333333,
          "velocity": 0.8110236220472441
        },
        {
          "duration": 0.21139683333333892,
          "durationTicks": 23,
          "midi": 61,
          "name": "C#4",
          "ticks": 13440,
          "time": 123.52927999999999,
          "velocity": 0.905511811023622
        },
        {
          "duration": 0.21139683333333892,
          "durationTicks": 23,
          "midi": 63,
          "name": "D#4",
          "ticks": 13440,
          "time": 123.52927999999999,
          "velocity": 0.7874015748031497
        },
        {
          "duration": 0.21139683333333892,
          "durationTicks": 23,
          "midi": 68,
          "name": "G#4",
          "ticks": 13440,
          "time": 123.52927999999999,
          "velocity": 0.7716535433070866
        },
        {
          "duration": 0.018382333333349266,
          "durationTicks": 2,
          "midi": 46,
          "name": "A#2",
          "ticks": 13463,
          "time": 123.74067683333332,
          "velocity": 0.905511811023622
        },
        {
          "duration": 0.009191166666681738,
          "durationTicks": 1,
          "midi": 53,
          "name": "F3",
          "ticks": 13464,
          "time": 123.74986799999999,
          "velocity": 0.8740157480314961
        },
        {
          "duration": 0.018382333333335055,
          "durationTicks": 2,
          "midi": 63,
          "name": "D#4",
          "ticks": 13475,
          "time": 123.85097083333334,
          "velocity": 0.8976377952755905
        },
        {
          "duration": 0.4411759999999987,
          "durationTicks": 48,
          "midi": 51,
          "name": "D#3",
          "ticks": 13487,
          "time": 123.96126483333333,
          "velocity": 0.8188976377952756
        },
        {
          "duration": 0.4411759999999987,
          "durationTicks": 48,
          "midi": 58,
          "name": "A#3",
          "ticks": 13487,
          "time": 123.96126483333333,
          "velocity": 0.8346456692913385
        },
        {
          "duration": 0.43198483333334536,
          "durationTicks": 47,
          "midi": 61,
          "name": "C#4",
          "ticks": 13488,
          "time": 123.97045599999998,
          "velocity": 0.8976377952755905
        },
        {
          "duration": 0.43198483333334536,
          "durationTicks": 47,
          "midi": 66,
          "name": "F#4",
          "ticks": 13488,
          "time": 123.97045599999998,
          "velocity": 0.8110236220472441
        },
        {
          "duration": 0.43198483333334536,
          "durationTicks": 47,
          "midi": 70,
          "name": "A#4",
          "ticks": 13488,
          "time": 123.97045599999998,
          "velocity": 0.7244094488188977
        },
        {
          "duration": 0.0367646666666559,
          "durationTicks": 4,
          "midi": 51,
          "name": "D#3",
          "ticks": 13535,
          "time": 124.40244083333333,
          "velocity": 0.7322834645669292
        },
        {
          "duration": 0.018382333333349266,
          "durationTicks": 2,
          "midi": 65,
          "name": "F4",
          "ticks": 13547,
          "time": 124.51273483333333,
          "velocity": 0.9133858267716536
        },
        {
          "duration": 0.4411759999999987,
          "durationTicks": 48,
          "midi": 53,
          "name": "F3",
          "ticks": 13559,
          "time": 124.62302883333334,
          "velocity": 0.7559055118110236
        },
        {
          "duration": 0.4411759999999987,
          "durationTicks": 48,
          "midi": 61,
          "name": "C#4",
          "ticks": 13559,
          "time": 124.62302883333334,
          "velocity": 0.8188976377952756
        },
        {
          "duration": 0.43198483333334536,
          "durationTicks": 47,
          "midi": 65,
          "name": "F4",
          "ticks": 13560,
          "time": 124.63221999999999,
          "velocity": 0.889763779527559
        },
        {
          "duration": 0.43198483333334536,
          "durationTicks": 47,
          "midi": 68,
          "name": "G#4",
          "ticks": 13560,
          "time": 124.63221999999999,
          "velocity": 0.8267716535433071
        },
        {
          "duration": 0.43198483333334536,
          "durationTicks": 47,
          "midi": 73,
          "name": "C#5",
          "ticks": 13560,
          "time": 124.63221999999999,
          "velocity": 0.7244094488188977
        },
        {
          "duration": 0.11029399999999612,
          "durationTicks": 12,
          "midi": 65,
          "name": "F4",
          "ticks": 13607,
          "time": 125.06420483333333,
          "velocity": 0.7716535433070866
        },
        {
          "duration": 0.11029399999999612,
          "durationTicks": 12,
          "midi": 68,
          "name": "G#4",
          "ticks": 13607,
          "time": 125.06420483333333,
          "velocity": 0.8267716535433071
        },
        {
          "duration": 0.1011028333333428,
          "durationTicks": 11,
          "midi": 73,
          "name": "C#5",
          "ticks": 13608,
          "time": 125.07339599999999,
          "velocity": 0.905511811023622
        },
        {
          "duration": 0.11029399999999612,
          "durationTicks": 12,
          "midi": 73,
          "name": "C#5",
          "ticks": 13619,
          "time": 125.17449883333333,
          "velocity": 0.7716535433070866
        },
        {
          "duration": 0.11029399999999612,
          "durationTicks": 12,
          "midi": 68,
          "name": "G#4",
          "ticks": 13619,
          "time": 125.17449883333333,
          "velocity": 0.7086614173228346
        },
        {
          "duration": 0.1011028333333428,
          "durationTicks": 11,
          "midi": 65,
          "name": "F4",
          "ticks": 13620,
          "time": 125.18368999999998,
          "velocity": 0.7007874015748031
        },
        {
          "duration": 0.11029400000001033,
          "durationTicks": 12,
          "midi": 68,
          "name": "G#4",
          "ticks": 13631,
          "time": 125.28479283333333,
          "velocity": 0.84251968503937
        },
        {
          "duration": 0.11029399999999612,
          "durationTicks": 12,
          "midi": 73,
          "name": "C#5",
          "ticks": 13643,
          "time": 125.39508683333334,
          "velocity": 0.905511811023622
        },
        {
          "duration": 0.4411759999999987,
          "durationTicks": 48,
          "midi": 54,
          "name": "F#3",
          "ticks": 13655,
          "time": 125.50538083333333,
          "velocity": 0.8188976377952756
        },
        {
          "duration": 0.4411759999999987,
          "durationTicks": 48,
          "midi": 58,
          "name": "A#3",
          "ticks": 13655,
          "time": 125.50538083333333,
          "velocity": 0.8346456692913385
        },
        {
          "duration": 0.43198483333334536,
          "durationTicks": 47,
          "midi": 61,
          "name": "C#4",
          "ticks": 13656,
          "time": 125.51457199999999,
          "velocity": 0.8976377952755905
        },
        {
          "duration": 0.43198483333334536,
          "durationTicks": 47,
          "midi": 66,
          "name": "F#4",
          "ticks": 13656,
          "time": 125.51457199999999,
          "velocity": 0.8110236220472441
        },
        {
          "duration": 0.43198483333334536,
          "durationTicks": 47,
          "midi": 70,
          "name": "A#4",
          "ticks": 13656,
          "time": 125.51457199999999,
          "velocity": 0.7244094488188977
        },
        {
          "duration": 0.22058799999999223,
          "durationTicks": 24,
          "midi": 54,
          "name": "F#3",
          "ticks": 13703,
          "time": 125.94655683333333,
          "velocity": 0.8503937007874016
        },
        {
          "duration": 0.22058799999999223,
          "durationTicks": 24,
          "midi": 58,
          "name": "A#3",
          "ticks": 13703,
          "time": 125.94655683333333,
          "velocity": 0.7874015748031497
        },
        {
          "duration": 0.21139683333333892,
          "durationTicks": 23,
          "midi": 61,
          "name": "C#4",
          "ticks": 13704,
          "time": 125.95574799999999,
          "velocity": 0.8740157480314961
        },
        {
          "duration": 0.21139683333333892,
          "durationTicks": 23,
          "midi": 66,
          "name": "F#4",
          "ticks": 13704,
          "time": 125.95574799999999,
          "velocity": 0.7716535433070866
        },
        {
          "duration": 0.21139683333333892,
          "durationTicks": 23,
          "midi": 70,
          "name": "A#4",
          "ticks": 13704,
          "time": 125.95574799999999,
          "velocity": 0.7559055118110236
        },
        {
          "duration": 0.027573500000002582,
          "durationTicks": 3,
          "midi": 54,
          "name": "F#3",
          "ticks": 13727,
          "time": 126.16714483333332,
          "velocity": 0.8661417322834646
        },
        {
          "duration": 0.018382333333335055,
          "durationTicks": 2,
          "midi": 61,
          "name": "C#4",
          "ticks": 13728,
          "time": 126.17633599999999,
          "velocity": 0.7322834645669292
        },
        {
          "duration": 0.009191166666653316,
          "durationTicks": 1,
          "midi": 70,
          "name": "A#4",
          "ticks": 13739,
          "time": 126.27743883333333,
          "velocity": 0.8740157480314961
        },
        {
          "duration": 0.6617640000000051,
          "durationTicks": 72,
          "midi": 55,
          "name": "G3",
          "ticks": 13751,
          "time": 126.38773283333333,
          "velocity": 0.7559055118110236
        },
        {
          "duration": 0.6617640000000051,
          "durationTicks": 72,
          "midi": 61,
          "name": "C#4",
          "ticks": 13751,
          "time": 126.38773283333333,
          "velocity": 0.8188976377952756
        },
        {
          "duration": 0.6525728333333518,
          "durationTicks": 71,
          "midi": 63,
          "name": "D#4",
          "ticks": 13752,
          "time": 126.39692399999998,
          "velocity": 0.889763779527559
        },
        {
          "duration": 0.43198483333334536,
          "durationTicks": 47,
          "midi": 70,
          "name": "A#4",
          "ticks": 13752,
          "time": 126.39692399999998,
          "velocity": 0.8267716535433071
        },
        {
          "duration": 0.551470000000009,
          "durationTicks": 60,
          "midi": 73,
          "name": "C#5",
          "ticks": 13763,
          "time": 126.49802683333333,
          "velocity": 0.7244094488188977
        },
        {
          "duration": 0.22058800000000645,
          "durationTicks": 24,
          "midi": 70,
          "name": "A#4",
          "ticks": 13799,
          "time": 126.82890883333333,
          "velocity": 0.8267716535433071
        },
        {
          "duration": 0.22058799999999223,
          "durationTicks": 24,
          "midi": 55,
          "name": "G3",
          "ticks": 13823,
          "time": 127.04949683333334,
          "velocity": 0.8031496062992126
        },
        {
          "duration": 0.22058799999999223,
          "durationTicks": 24,
          "midi": 61,
          "name": "C#4",
          "ticks": 13823,
          "time": 127.04949683333334,
          "velocity": 0.8188976377952756
        },
        {
          "duration": 0.21139683333333892,
          "durationTicks": 23,
          "midi": 63,
          "name": "D#4",
          "ticks": 13824,
          "time": 127.05868799999999,
          "velocity": 0.8346456692913385
        },
        {
          "duration": 0.21139683333333892,
          "durationTicks": 23,
          "midi": 70,
          "name": "A#4",
          "ticks": 13824,
          "time": 127.05868799999999,
          "velocity": 0.7244094488188977
        },
        {
          "duration": 0.027573500000002582,
          "durationTicks": 3,
          "midi": 55,
          "name": "G3",
          "ticks": 13847,
          "time": 127.27008483333333,
          "velocity": 0.8661417322834646
        },
        {
          "duration": 0.018382333333335055,
          "durationTicks": 2,
          "midi": 63,
          "name": "D#4",
          "ticks": 13848,
          "time": 127.279276,
          "velocity": 0.9212598425196851
        },
        {
          "duration": 0.1011028333333428,
          "durationTicks": 11,
          "midi": 65,
          "name": "F4",
          "ticks": 13859,
          "time": 127.38037883333332,
          "velocity": 0.8346456692913385
        },
        {
          "duration": 0.4411759999999987,
          "durationTicks": 48,
          "midi": 44,
          "name": "G#2",
          "ticks": 13871,
          "time": 127.49067283333333,
          "velocity": 0.7952755905511811
        },
        {
          "duration": 0.4411759999999987,
          "durationTicks": 48,
          "midi": 51,
          "name": "D#3",
          "ticks": 13871,
          "time": 127.49067283333333,
          "velocity": 0.8346456692913385
        },
        {
          "duration": 0.43198483333334536,
          "durationTicks": 47,
          "midi": 61,
          "name": "C#4",
          "ticks": 13872,
          "time": 127.49986399999999,
          "velocity": 0.8346456692913385
        },
        {
          "duration": 0.4227936666666636,
          "durationTicks": 46,
          "midi": 65,
          "name": "F4",
          "ticks": 13873,
          "time": 127.50905516666667,
          "velocity": 0.8976377952755905
        },
        {
          "duration": 0.4227936666666636,
          "durationTicks": 46,
          "midi": 70,
          "name": "A#4",
          "ticks": 13873,
          "time": 127.50905516666667,
          "velocity": 0.8110236220472441
        },
        {
          "duration": 0.4136024999999961,
          "durationTicks": 45,
          "midi": 73,
          "name": "C#5",
          "ticks": 13874,
          "time": 127.51824633333334,
          "velocity": 0.7244094488188977
        },
        {
          "duration": 0.22058799999999223,
          "durationTicks": 24,
          "midi": 44,
          "name": "G#2",
          "ticks": 13919,
          "time": 127.93184883333333,
          "velocity": 0.6850393700787402
        },
        {
          "duration": 0.22058799999999223,
          "durationTicks": 24,
          "midi": 51,
          "name": "D#3",
          "ticks": 13919,
          "time": 127.93184883333333,
          "velocity": 0.7165354330708661
        },
        {
          "duration": 0.21139683333333892,
          "durationTicks": 23,
          "midi": 61,
          "name": "C#4",
          "ticks": 13920,
          "time": 127.94103999999999,
          "velocity": 0.8346456692913385
        },
        {
          "duration": 0.21139683333333892,
          "durationTicks": 23,
          "midi": 65,
          "name": "F4",
          "ticks": 13920,
          "time": 127.94103999999999,
          "velocity": 0.8661417322834646
        },
        {
          "duration": 0.20220566666665718,
          "durationTicks": 22,
          "midi": 70,
          "name": "A#4",
          "ticks": 13921,
          "time": 127.95023116666667,
          "velocity": 0.8110236220472441
        },
        {
          "duration": 0.20220566666665718,
          "durationTicks": 22,
          "midi": 73,
          "name": "C#5",
          "ticks": 13921,
          "time": 127.95023116666667,
          "velocity": 0.8267716535433071
        },
        {
          "duration": 0.027573500000016793,
          "durationTicks": 3,
          "midi": 56,
          "name": "G#3",
          "ticks": 13943,
          "time": 128.15243683333333,
          "velocity": 0.8661417322834646
        },
        {
          "duration": 0.018382333333335055,
          "durationTicks": 2,
          "midi": 51,
          "name": "D#3",
          "ticks": 13944,
          "time": 128.161628,
          "velocity": 0.7322834645669292
        },
        {
          "duration": 0.009191166666653316,
          "durationTicks": 1,
          "midi": 70,
          "name": "A#4",
          "ticks": 13955,
          "time": 128.26273083333334,
          "velocity": 0.8740157480314961
        },
        {
          "duration": 0.22058799999999223,
          "durationTicks": 24,
          "midi": 44,
          "name": "G#2",
          "ticks": 13967,
          "time": 128.37302483333335,
          "velocity": 0.7952755905511811
        },
        {
          "duration": 0.22058799999999223,
          "durationTicks": 24,
          "midi": 51,
          "name": "D#3",
          "ticks": 13967,
          "time": 128.37302483333335,
          "velocity": 0.8346456692913385
        },
        {
          "duration": 0.22058799999999223,
          "durationTicks": 24,
          "midi": 61,
          "name": "C#4",
          "ticks": 13967,
          "time": 128.37302483333335,
          "velocity": 0.8346456692913385
        },
        {
          "duration": 0.21139683333333892,
          "durationTicks": 23,
          "midi": 65,
          "name": "F4",
          "ticks": 13968,
          "time": 128.382216,
          "velocity": 0.8976377952755905
        },
        {
          "duration": 0.21139683333333892,
          "durationTicks": 23,
          "midi": 70,
          "name": "A#4",
          "ticks": 13968,
          "time": 128.382216,
          "velocity": 0.8110236220472441
        },
        {
          "duration": 0.21139683333333892,
          "durationTicks": 23,
          "midi": 73,
          "name": "C#5",
          "ticks": 13968,
          "time": 128.382216,
          "velocity": 0.7795275590551181
        },
        {
          "duration": 0.22058799999999223,
          "durationTicks": 24,
          "midi": 44,
          "name": "G#2",
          "ticks": 13991,
          "time": 128.59361283333334,
          "velocity": 0.7952755905511811
        },
        {
          "duration": 0.22058799999999223,
          "durationTicks": 24,
          "midi": 51,
          "name": "D#3",
          "ticks": 13991,
          "time": 128.59361283333334,
          "velocity": 0.7401574803149606
        },
        {
          "duration": 0.21139683333333892,
          "durationTicks": 23,
          "midi": 61,
          "name": "C#4",
          "ticks": 13992,
          "time": 128.602804,
          "velocity": 0.8346456692913385
        },
        {
          "duration": 0.21139683333333892,
          "durationTicks": 23,
          "midi": 65,
          "name": "F4",
          "ticks": 13992,
          "time": 128.602804,
          "velocity": 0.8031496062992126
        },
        {
          "duration": 0.21139683333333892,
          "durationTicks": 23,
          "midi": 70,
          "name": "A#4",
          "ticks": 13992,
          "time": 128.602804,
          "velocity": 0.7716535433070866
        },
        {
          "duration": 0.21139683333333892,
          "durationTicks": 23,
          "midi": 73,
          "name": "C#5",
          "ticks": 13992,
          "time": 128.602804,
          "velocity": 0.8267716535433071
        },
        {
          "duration": 0.027573500000016793,
          "durationTicks": 3,
          "midi": 56,
          "name": "G#3",
          "ticks": 14015,
          "time": 128.81420083333333,
          "velocity": 0.8661417322834646
        },
        {
          "duration": 0.018382333333363476,
          "durationTicks": 2,
          "midi": 51,
          "name": "D#3",
          "ticks": 14016,
          "time": 128.82339199999998,
          "velocity": 0.7322834645669292
        },
        {
          "duration": 0.009191166666653316,
          "durationTicks": 1,
          "midi": 70,
          "name": "A#4",
          "ticks": 14027,
          "time": 128.92449483333334,
          "velocity": 0.8740157480314961
        },
        {
          "duration": 0.6617639999999767,
          "durationTicks": 72,
          "midi": 53,
          "name": "F3",
          "ticks": 14039,
          "time": 129.03478883333335,
          "velocity": 0.7952755905511811
        },
        {
          "duration": 0.6617639999999767,
          "durationTicks": 72,
          "midi": 60,
          "name": "C4",
          "ticks": 14039,
          "time": 129.03478883333335,
          "velocity": 0.8346456692913385
        },
        {
          "duration": 0.6525728333333234,
          "durationTicks": 71,
          "midi": 63,
          "name": "D#4",
          "ticks": 14040,
          "time": 129.04398,
          "velocity": 0.8976377952755905
        },
        {
          "duration": 0.6525728333333234,
          "durationTicks": 71,
          "midi": 69,
          "name": "A4",
          "ticks": 14040,
          "time": 129.04398,
          "velocity": 0.8110236220472441
        },
        {
          "duration": 0.6525728333333234,
          "durationTicks": 71,
          "midi": 72,
          "name": "C5",
          "ticks": 14040,
          "time": 129.04398,
          "velocity": 0.7795275590551181
        },
        {
          "duration": 0.22058800000002066,
          "durationTicks": 24,
          "midi": 53,
          "name": "F3",
          "ticks": 14111,
          "time": 129.69655283333333,
          "velocity": 0.8503937007874016
        },
        {
          "duration": 0.22058800000002066,
          "durationTicks": 24,
          "midi": 60,
          "name": "C4",
          "ticks": 14111,
          "time": 129.69655283333333,
          "velocity": 0.7874015748031497
        },
        {
          "duration": 0.21139683333333892,
          "durationTicks": 23,
          "midi": 63,
          "name": "D#4",
          "ticks": 14112,
          "time": 129.705744,
          "velocity": 0.889763779527559
        },
        {
          "duration": 0.21139683333333892,
          "durationTicks": 23,
          "midi": 69,
          "name": "A4",
          "ticks": 14112,
          "time": 129.705744,
          "velocity": 0.7637795275590551
        },
        {
          "duration": 0.21139683333333892,
          "durationTicks": 23,
          "midi": 72,
          "name": "C5",
          "ticks": 14112,
          "time": 129.705744,
          "velocity": 0.7716535433070866
        },
        {
          "duration": 0.018382333333335055,
          "durationTicks": 2,
          "midi": 53,
          "name": "F3",
          "ticks": 14135,
          "time": 129.91714083333335,
          "velocity": 0.8503937007874016
        },
        {
          "duration": 0.018382333333335055,
          "durationTicks": 2,
          "midi": 60,
          "name": "C4",
          "ticks": 14136,
          "time": 129.926332,
          "velocity": 0.8188976377952756
        },
        {
          "duration": 0.4411760000000129,
          "durationTicks": 48,
          "midi": 60,
          "name": "C4",
          "ticks": 14159,
          "time": 130.13772883333334,
          "velocity": 0.8661417322834646
        },
        {
          "duration": 0.6617640000000051,
          "durationTicks": 72,
          "midi": 63,
          "name": "D#4",
          "ticks": 14183,
          "time": 130.35831683333333,
          "velocity": 0.9212598425196851
        },
        {
          "duration": 0.44117599999998447,
          "durationTicks": 48,
          "midi": 60,
          "name": "C4",
          "ticks": 14207,
          "time": 130.57890483333335,
          "velocity": 0.8188976377952756
        },
        {
          "duration": 0.22058799999999223,
          "durationTicks": 24,
          "midi": 57,
          "name": "A3",
          "ticks": 14231,
          "time": 130.79949283333335,
          "velocity": 0.84251968503937
        },
        {
          "duration": 0.18382333333335055,
          "durationTicks": 20,
          "midi": 65,
          "name": "F4",
          "ticks": 14255,
          "time": 131.02008083333334,
          "velocity": 0.7795275590551181
        },
        {
          "duration": 0.18382333333335055,
          "durationTicks": 20,
          "midi": 70,
          "name": "A#4",
          "ticks": 14255,
          "time": 131.02008083333334,
          "velocity": 1
        },
        {
          "duration": 0.18382333333332213,
          "durationTicks": 20,
          "midi": 61,
          "name": "C#4",
          "ticks": 14279,
          "time": 131.24066883333336,
          "velocity": 0.7795275590551181
        },
        {
          "duration": 0.18382333333332213,
          "durationTicks": 20,
          "midi": 65,
          "name": "F4",
          "ticks": 14279,
          "time": 131.24066883333336,
          "velocity": 1
        },
        {
          "duration": 0.14705866666665202,
          "durationTicks": 16,
          "midi": 65,
          "name": "F4",
          "ticks": 14303,
          "time": 131.46125683333335,
          "velocity": 0.7795275590551181
        },
        {
          "duration": 0.14705866666665202,
          "durationTicks": 16,
          "midi": 70,
          "name": "A#4",
          "ticks": 14303,
          "time": 131.46125683333335,
          "velocity": 1
        },
        {
          "duration": 0.3860290000000077,
          "durationTicks": 42,
          "midi": 63,
          "name": "D#4",
          "ticks": 14327,
          "time": 131.68184483333334,
          "velocity": 0.7795275590551181
        },
        {
          "duration": 0.39522016666666104,
          "durationTicks": 43,
          "midi": 68,
          "name": "G#4",
          "ticks": 14327,
          "time": 131.68184483333334,
          "velocity": 1
        },
        {
          "duration": 0.18382333333332213,
          "durationTicks": 20,
          "midi": 61,
          "name": "C#4",
          "ticks": 14375,
          "time": 132.12302083333336,
          "velocity": 0.7795275590551181
        },
        {
          "duration": 0.18382333333332213,
          "durationTicks": 20,
          "midi": 66,
          "name": "F#4",
          "ticks": 14375,
          "time": 132.12302083333336,
          "velocity": 1
        },
        {
          "duration": 0.1746321666666688,
          "durationTicks": 19,
          "midi": 60,
          "name": "C4",
          "ticks": 14399,
          "time": 132.34360883333335,
          "velocity": 0.7795275590551181
        },
        {
          "duration": 0.1746321666666688,
          "durationTicks": 19,
          "midi": 65,
          "name": "F4",
          "ticks": 14399,
          "time": 132.34360883333335,
          "velocity": 1
        },
        {
          "duration": 0.3768378333333544,
          "durationTicks": 41,
          "midi": 61,
          "name": "C#4",
          "ticks": 14423,
          "time": 132.56419683333334,
          "velocity": 0.7795275590551181
        },
        {
          "duration": 0.3768378333333544,
          "durationTicks": 41,
          "midi": 66,
          "name": "F#4",
          "ticks": 14423,
          "time": 132.56419683333334,
          "velocity": 1
        },
        {
          "duration": 0.15624983333333375,
          "durationTicks": 17,
          "midi": 60,
          "name": "C4",
          "ticks": 14471,
          "time": 133.00537283333335,
          "velocity": 0.7795275590551181
        },
        {
          "duration": 0.15624983333333375,
          "durationTicks": 17,
          "midi": 65,
          "name": "F4",
          "ticks": 14471,
          "time": 133.00537283333335,
          "velocity": 1
        },
        {
          "duration": 0.1746321666666688,
          "durationTicks": 19,
          "midi": 58,
          "name": "A#3",
          "ticks": 14495,
          "time": 133.22596083333335,
          "velocity": 0.7795275590551181
        },
        {
          "duration": 0.1746321666666688,
          "durationTicks": 19,
          "midi": 63,
          "name": "D#4",
          "ticks": 14495,
          "time": 133.22596083333335,
          "velocity": 1
        },
        {
          "duration": 0.3860290000000077,
          "durationTicks": 42,
          "midi": 60,
          "name": "C4",
          "ticks": 14519,
          "time": 133.44654883333334,
          "velocity": 0.7795275590551181
        },
        {
          "duration": 0.3860290000000077,
          "durationTicks": 42,
          "midi": 65,
          "name": "F4",
          "ticks": 14519,
          "time": 133.44654883333334,
          "velocity": 1
        },
        {
          "duration": 0.15624983333333375,
          "durationTicks": 17,
          "midi": 58,
          "name": "A#3",
          "ticks": 14567,
          "time": 133.88772483333335,
          "velocity": 0.7795275590551181
        },
        {
          "duration": 0.15624983333333375,
          "durationTicks": 17,
          "midi": 63,
          "name": "D#4",
          "ticks": 14567,
          "time": 133.88772483333335,
          "velocity": 1
        },
        {
          "duration": 0.3860290000000077,
          "durationTicks": 42,
          "midi": 56,
          "name": "G#3",
          "ticks": 14591,
          "time": 134.10831283333334,
          "velocity": 0.7795275590551181
        },
        {
          "duration": 0.39522016666666104,
          "durationTicks": 43,
          "midi": 60,
          "name": "C4",
          "ticks": 14591,
          "time": 134.10831283333334,
          "velocity": 1
        },
        {
          "duration": 0.15624983333333375,
          "durationTicks": 17,
          "midi": 58,
          "name": "A#3",
          "ticks": 14639,
          "time": 134.54948883333336,
          "velocity": 0.7795275590551181
        },
        {
          "duration": 0.15624983333333375,
          "durationTicks": 17,
          "midi": 61,
          "name": "C#4",
          "ticks": 14639,
          "time": 134.54948883333336,
          "velocity": 1
        },
        {
          "duration": 0.1746321666666688,
          "durationTicks": 19,
          "midi": 56,
          "name": "G#3",
          "ticks": 14663,
          "time": 134.77007683333335,
          "velocity": 0.7795275590551181
        },
        {
          "duration": 0.1746321666666688,
          "durationTicks": 19,
          "midi": 60,
          "name": "C4",
          "ticks": 14663,
          "time": 134.77007683333335,
          "velocity": 1
        },
        {
          "duration": 0.1378674999999987,
          "durationTicks": 15,
          "midi": 58,
          "name": "A#3",
          "ticks": 14687,
          "time": 134.99066483333334,
          "velocity": 0.7795275590551181
        },
        {
          "duration": 0.1378674999999987,
          "durationTicks": 15,
          "midi": 61,
          "name": "C#4",
          "ticks": 14687,
          "time": 134.99066483333334,
          "velocity": 1
        },
        {
          "duration": 0.3768378333333544,
          "durationTicks": 41,
          "midi": 60,
          "name": "C4",
          "ticks": 14711,
          "time": 135.21125283333333,
          "velocity": 0.7795275590551181
        },
        {
          "duration": 0.3768378333333544,
          "durationTicks": 41,
          "midi": 63,
          "name": "D#4",
          "ticks": 14711,
          "time": 135.21125283333333,
          "velocity": 1
        },
        {
          "duration": 0.15624983333333375,
          "durationTicks": 17,
          "midi": 58,
          "name": "A#3",
          "ticks": 14759,
          "time": 135.65242883333335,
          "velocity": 0.7795275590551181
        },
        {
          "duration": 0.15624983333333375,
          "durationTicks": 17,
          "midi": 61,
          "name": "C#4",
          "ticks": 14759,
          "time": 135.65242883333335,
          "velocity": 1
        },
        {
          "duration": 0.14705866666665202,
          "durationTicks": 16,
          "midi": 60,
          "name": "C4",
          "ticks": 14783,
          "time": 135.87301683333334,
          "velocity": 0.7795275590551181
        },
        {
          "duration": 0.14705866666665202,
          "durationTicks": 16,
          "midi": 63,
          "name": "D#4",
          "ticks": 14783,
          "time": 135.87301683333334,
          "velocity": 1
        },
        {
          "duration": 1.8658068333333233,
          "durationTicks": 203,
          "midi": 62,
          "name": "D4",
          "ticks": 14808,
          "time": 136.102796,
          "velocity": 0.7795275590551181
        },
        {
          "duration": 1.8658068333333233,
          "durationTicks": 203,
          "midi": 65,
          "name": "F4",
          "ticks": 14808,
          "time": 136.102796,
          "velocity": 1
        },
        {
          "duration": 0.4136024999999961,
          "durationTicks": 45,
          "midi": 41,
          "name": "F2",
          "ticks": 16127,
          "time": 148.22594483333336,
          "velocity": 0.7322834645669292
        },
        {
          "duration": 0.4227936666666494,
          "durationTicks": 46,
          "midi": 57,
          "name": "A3",
          "ticks": 16127,
          "time": 148.22594483333336,
          "velocity": 0.8976377952755905
        },
        {
          "duration": 0.42279366666667784,
          "durationTicks": 46,
          "midi": 60,
          "name": "C4",
          "ticks": 16128,
          "time": 148.235136,
          "velocity": 0.7480314960629921
        },
        {
          "duration": 0.4136024999999961,
          "durationTicks": 45,
          "midi": 63,
          "name": "D#4",
          "ticks": 16128,
          "time": 148.235136,
          "velocity": 0.7480314960629921
        },
        {
          "duration": 0.4136024999999961,
          "durationTicks": 45,
          "midi": 68,
          "name": "G#4",
          "ticks": 16128,
          "time": 148.235136,
          "velocity": 0.8031496062992126
        },
        {
          "duration": 0.22058799999999223,
          "durationTicks": 24,
          "midi": 58,
          "name": "A#3",
          "ticks": 16175,
          "time": 148.66712083333334,
          "velocity": 0.8110236220472441
        },
        {
          "duration": 0.22058799999999223,
          "durationTicks": 24,
          "midi": 63,
          "name": "D#4",
          "ticks": 16175,
          "time": 148.66712083333334,
          "velocity": 0.8740157480314961
        },
        {
          "duration": 0.22058799999999223,
          "durationTicks": 24,
          "midi": 68,
          "name": "G#4",
          "ticks": 16175,
          "time": 148.66712083333334,
          "velocity": 0.8661417322834646
        },
        {
          "duration": 0.21139683333333892,
          "durationTicks": 23,
          "midi": 73,
          "name": "C#5",
          "ticks": 16176,
          "time": 148.676312,
          "velocity": 0.8267716535433071
        },
        {
          "duration": 0.21139683333333892,
          "durationTicks": 23,
          "midi": 75,
          "name": "D#5",
          "ticks": 16176,
          "time": 148.676312,
          "velocity": 0.9133858267716536
        },
        {
          "duration": 0.03676466666667011,
          "durationTicks": 4,
          "midi": 58,
          "name": "A#3",
          "ticks": 16199,
          "time": 148.88770883333333,
          "velocity": 0.8031496062992126
        },
        {
          "duration": 0.02757349999998837,
          "durationTicks": 3,
          "midi": 63,
          "name": "D#4",
          "ticks": 16200,
          "time": 148.89690000000002,
          "velocity": 0.9133858267716536
        },
        {
          "duration": 0.11029400000001033,
          "durationTicks": 12,
          "midi": 75,
          "name": "D#5",
          "ticks": 16211,
          "time": 148.99800283333335,
          "velocity": 0.9133858267716536
        },
        {
          "duration": 0.11029400000001033,
          "durationTicks": 12,
          "midi": 73,
          "name": "C#5",
          "ticks": 16211,
          "time": 148.99800283333335,
          "velocity": 0.8661417322834646
        },
        {
          "duration": 0.10110283333335701,
          "durationTicks": 11,
          "midi": 68,
          "name": "G#4",
          "ticks": 16212,
          "time": 149.007194,
          "velocity": 0.8661417322834646
        },
        {
          "duration": 0.10110283333335701,
          "durationTicks": 11,
          "midi": 63,
          "name": "D#4",
          "ticks": 16212,
          "time": 149.007194,
          "velocity": 0.8740157480314961
        },
        {
          "duration": 0.02757349999998837,
          "durationTicks": 3,
          "midi": 63,
          "name": "D#4",
          "ticks": 16223,
          "time": 149.10829683333336,
          "velocity": 0.905511811023622
        },
        {
          "duration": 0.02757349999998837,
          "durationTicks": 3,
          "midi": 68,
          "name": "G#4",
          "ticks": 16224,
          "time": 149.117488,
          "velocity": 0.8031496062992126
        },
        {
          "duration": 0.018382333333363476,
          "durationTicks": 2,
          "midi": 63,
          "name": "D#4",
          "ticks": 16235,
          "time": 149.21859083333334,
          "velocity": 0.9133858267716536
        },
        {
          "duration": 0.22058799999999223,
          "durationTicks": 24,
          "midi": 63,
          "name": "D#4",
          "ticks": 16247,
          "time": 149.32888483333335,
          "velocity": 0.8740157480314961
        },
        {
          "duration": 0.22058799999999223,
          "durationTicks": 24,
          "midi": 68,
          "name": "G#4",
          "ticks": 16247,
          "time": 149.32888483333335,
          "velocity": 0.8661417322834646
        },
        {
          "duration": 0.21139683333333892,
          "durationTicks": 23,
          "midi": 73,
          "name": "C#5",
          "ticks": 16248,
          "time": 149.338076,
          "velocity": 0.8267716535433071
        },
        {
          "duration": 0.21139683333333892,
          "durationTicks": 23,
          "midi": 75,
          "name": "D#5",
          "ticks": 16248,
          "time": 149.338076,
          "velocity": 0.9133858267716536
        },
        {
          "duration": 0.027573500000016793,
          "durationTicks": 3,
          "midi": 58,
          "name": "A#3",
          "ticks": 16271,
          "time": 149.54947283333334,
          "velocity": 0.8031496062992126
        },
        {
          "duration": 0.027573500000016793,
          "durationTicks": 3,
          "midi": 63,
          "name": "D#4",
          "ticks": 16272,
          "time": 149.558664,
          "velocity": 0.9133858267716536
        },
        {
          "duration": 0.1102939999999819,
          "durationTicks": 12,
          "midi": 75,
          "name": "D#5",
          "ticks": 16283,
          "time": 149.65976683333335,
          "velocity": 0.9133858267716536
        },
        {
          "duration": 0.1102939999999819,
          "durationTicks": 12,
          "midi": 72,
          "name": "C5",
          "ticks": 16283,
          "time": 149.65976683333335,
          "velocity": 0.8661417322834646
        },
        {
          "duration": 0.10110283333332859,
          "durationTicks": 11,
          "midi": 68,
          "name": "G#4",
          "ticks": 16284,
          "time": 149.668958,
          "velocity": 0.8661417322834646
        },
        {
          "duration": 0.10110283333332859,
          "durationTicks": 11,
          "midi": 63,
          "name": "D#4",
          "ticks": 16284,
          "time": 149.668958,
          "velocity": 0.8740157480314961
        },
        {
          "duration": 0.027573500000016793,
          "durationTicks": 3,
          "midi": 63,
          "name": "D#4",
          "ticks": 16295,
          "time": 149.77006083333333,
          "velocity": 0.905511811023622
        },
        {
          "duration": 0.018382333333335055,
          "durationTicks": 2,
          "midi": 68,
          "name": "G#4",
          "ticks": 16296,
          "time": 149.779252,
          "velocity": 0.8031496062992126
        },
        {
          "duration": 0.018382333333335055,
          "durationTicks": 2,
          "midi": 63,
          "name": "D#4",
          "ticks": 16307,
          "time": 149.88035483333334,
          "velocity": 0.9133858267716536
        },
        {
          "duration": 0.22058799999999223,
          "durationTicks": 24,
          "midi": 63,
          "name": "D#4",
          "ticks": 16319,
          "time": 149.99064883333335,
          "velocity": 0.8740157480314961
        },
        {
          "duration": 0.22058799999999223,
          "durationTicks": 24,
          "midi": 68,
          "name": "G#4",
          "ticks": 16319,
          "time": 149.99064883333335,
          "velocity": 0.8661417322834646
        },
        {
          "duration": 0.21139683333333892,
          "durationTicks": 23,
          "midi": 72,
          "name": "C5",
          "ticks": 16320,
          "time": 149.99984,
          "velocity": 0.8267716535433071
        },
        {
          "duration": 0.21139683333333892,
          "durationTicks": 23,
          "midi": 75,
          "name": "D#5",
          "ticks": 16320,
          "time": 149.99984,
          "velocity": 0.9133858267716536
        },
        {
          "duration": 0.02757349999998837,
          "durationTicks": 3,
          "midi": 63,
          "name": "D#4",
          "ticks": 16343,
          "time": 150.21123683333334,
          "velocity": 0.905511811023622
        },
        {
          "duration": 0.018382333333335055,
          "durationTicks": 2,
          "midi": 68,
          "name": "G#4",
          "ticks": 16344,
          "time": 150.220428,
          "velocity": 0.8031496062992126
        },
        {
          "duration": 0.018382333333335055,
          "durationTicks": 2,
          "midi": 63,
          "name": "D#4",
          "ticks": 16355,
          "time": 150.32153083333336,
          "velocity": 0.9133858267716536
        },
        {
          "duration": 0.22058800000002066,
          "durationTicks": 24,
          "midi": 65,
          "name": "F4",
          "ticks": 16367,
          "time": 150.43182483333334,
          "velocity": 0.8740157480314961
        },
        {
          "duration": 0.22058800000002066,
          "durationTicks": 24,
          "midi": 68,
          "name": "G#4",
          "ticks": 16367,
          "time": 150.43182483333334,
          "velocity": 0.8661417322834646
        },
        {
          "duration": 0.21139683333336734,
          "durationTicks": 23,
          "midi": 73,
          "name": "C#5",
          "ticks": 16368,
          "time": 150.441016,
          "velocity": 0.8267716535433071
        },
        {
          "duration": 0.21139683333336734,
          "durationTicks": 23,
          "midi": 77,
          "name": "F5",
          "ticks": 16368,
          "time": 150.441016,
          "velocity": 0.9133858267716536
        },
        {
          "duration": 0.02757349999998837,
          "durationTicks": 3,
          "midi": 65,
          "name": "F4",
          "ticks": 16391,
          "time": 150.65241283333336,
          "velocity": 0.8031496062992126
        },
        {
          "duration": 0.018382333333335055,
          "durationTicks": 2,
          "midi": 68,
          "name": "G#4",
          "ticks": 16392,
          "time": 150.661604,
          "velocity": 0.9133858267716536
        },
        {
          "duration": 0.11029400000001033,
          "durationTicks": 12,
          "midi": 77,
          "name": "F5",
          "ticks": 16403,
          "time": 150.76270683333334,
          "velocity": 0.8188976377952756
        },
        {
          "duration": 0.11029400000001033,
          "durationTicks": 12,
          "midi": 61,
          "name": "C#4",
          "ticks": 16403,
          "time": 150.76270683333334,
          "velocity": 0.905511811023622
        },
        {
          "duration": 0.10110283333335701,
          "durationTicks": 11,
          "midi": 68,
          "name": "G#4",
          "ticks": 16404,
          "time": 150.771898,
          "velocity": 0.84251968503937
        },
        {
          "duration": 0.10110283333335701,
          "durationTicks": 11,
          "midi": 65,
          "name": "F4",
          "ticks": 16404,
          "time": 150.771898,
          "velocity": 0.8503937007874016
        },
        {
          "duration": 0.02757349999998837,
          "durationTicks": 3,
          "midi": 65,
          "name": "F4",
          "ticks": 16415,
          "time": 150.87300083333335,
          "velocity": 0.905511811023622
        },
        {
          "duration": 0.018382333333335055,
          "durationTicks": 2,
          "midi": 68,
          "name": "G#4",
          "ticks": 16416,
          "time": 150.882192,
          "velocity": 0.8031496062992126
        },
        {
          "duration": 0.018382333333363476,
          "durationTicks": 2,
          "midi": 72,
          "name": "C5",
          "ticks": 16427,
          "time": 150.98329483333333,
          "velocity": 0.9133858267716536
        },
        {
          "duration": 0.11029400000001033,
          "durationTicks": 12,
          "midi": 68,
          "name": "G#4",
          "ticks": 16439,
          "time": 151.09358883333334,
          "velocity": 0.8740157480314961
        },
        {
          "duration": 0.11029400000001033,
          "durationTicks": 12,
          "midi": 73,
          "name": "C#5",
          "ticks": 16439,
          "time": 151.09358883333334,
          "velocity": 0.8661417322834646
        },
        {
          "duration": 0.10110283333335701,
          "durationTicks": 11,
          "midi": 77,
          "name": "F5",
          "ticks": 16440,
          "time": 151.10278,
          "velocity": 0.8740157480314961
        },
        {
          "duration": 0.10110283333335701,
          "durationTicks": 11,
          "midi": 80,
          "name": "G#5",
          "ticks": 16440,
          "time": 151.10278,
          "velocity": 0.937007874015748
        },
        {
          "duration": 0.1102939999999819,
          "durationTicks": 12,
          "midi": 80,
          "name": "G#5",
          "ticks": 16451,
          "time": 151.20388283333335,
          "velocity": 0.8818897637795275
        },
        {
          "duration": 0.1102939999999819,
          "durationTicks": 12,
          "midi": 77,
          "name": "F5",
          "ticks": 16451,
          "time": 151.20388283333335,
          "velocity": 0.8267716535433071
        },
        {
          "duration": 0.027573500000016793,
          "durationTicks": 3,
          "midi": 68,
          "name": "G#4",
          "ticks": 16463,
          "time": 151.31417683333333,
          "velocity": 0.905511811023622
        },
        {
          "duration": 0.018382333333335055,
          "durationTicks": 2,
          "midi": 65,
          "name": "F4",
          "ticks": 16464,
          "time": 151.32336800000002,
          "velocity": 0.8031496062992126
        },
        {
          "duration": 0.11029400000001033,
          "durationTicks": 12,
          "midi": 80,
          "name": "G#5",
          "ticks": 16475,
          "time": 151.42447083333334,
          "velocity": 0.905511811023622
        },
        {
          "duration": 0.10110283333332859,
          "durationTicks": 11,
          "midi": 77,
          "name": "F5",
          "ticks": 16475,
          "time": 151.42447083333334,
          "velocity": 0.8740157480314961
        },
        {
          "duration": 0.10110283333335701,
          "durationTicks": 11,
          "midi": 73,
          "name": "C#5",
          "ticks": 16476,
          "time": 151.433662,
          "velocity": 0.8818897637795275
        },
        {
          "duration": 0.10110283333335701,
          "durationTicks": 11,
          "midi": 68,
          "name": "G#4",
          "ticks": 16476,
          "time": 151.433662,
          "velocity": 0.8346456692913385
        },
        {
          "duration": 0.018382333333335055,
          "durationTicks": 2,
          "midi": 73,
          "name": "C#5",
          "ticks": 16487,
          "time": 151.53476483333336,
          "velocity": 0.905511811023622
        },
        {
          "duration": 0.009191166666681738,
          "durationTicks": 1,
          "midi": 77,
          "name": "F5",
          "ticks": 16488,
          "time": 151.543956,
          "velocity": 0.8031496062992126
        },
        {
          "duration": 0.018382333333363476,
          "durationTicks": 2,
          "midi": 80,
          "name": "G#5",
          "ticks": 16499,
          "time": 151.64505883333334,
          "velocity": 0.9133858267716536
        },
        {
          "duration": 0.22058799999999223,
          "durationTicks": 24,
          "midi": 68,
          "name": "G#4",
          "ticks": 16511,
          "time": 151.75535283333335,
          "velocity": 0.8740157480314961
        },
        {
          "duration": 0.22058799999999223,
          "durationTicks": 24,
          "midi": 73,
          "name": "C#5",
          "ticks": 16511,
          "time": 151.75535283333335,
          "velocity": 0.8582677165354331
        },
        {
          "duration": 0.21139683333333892,
          "durationTicks": 23,
          "midi": 77,
          "name": "F5",
          "ticks": 16512,
          "time": 151.764544,
          "velocity": 0.8661417322834646
        },
        {
          "duration": 0.21139683333333892,
          "durationTicks": 23,
          "midi": 80,
          "name": "G#5",
          "ticks": 16512,
          "time": 151.764544,
          "velocity": 0.905511811023622
        },
        {
          "duration": 0.018382333333335055,
          "durationTicks": 2,
          "midi": 61,
          "name": "C#4",
          "ticks": 16535,
          "time": 151.97594083333334,
          "velocity": 0.905511811023622
        },
        {
          "duration": 0.009191166666653316,
          "durationTicks": 1,
          "midi": 65,
          "name": "F4",
          "ticks": 16535,
          "time": 151.97594083333334,
          "velocity": 0.8031496062992126
        },
        {
          "duration": 0.009191166666681738,
          "durationTicks": 1,
          "midi": 68,
          "name": "G#4",
          "ticks": 16536,
          "time": 151.985132,
          "velocity": 0.8031496062992126
        },
        {
          "duration": 0.018382333333335055,
          "durationTicks": 2,
          "midi": 68,
          "name": "G#4",
          "ticks": 16547,
          "time": 152.08623483333335,
          "velocity": 0.9133858267716536
        },
        {
          "duration": 0.009191166666681738,
          "durationTicks": 1,
          "midi": 65,
          "name": "F4",
          "ticks": 16548,
          "time": 152.095426,
          "velocity": 0.8740157480314961
        },
        {
          "duration": 0.4411760000000129,
          "durationTicks": 48,
          "midi": 54,
          "name": "F#3",
          "ticks": 16559,
          "time": 152.19652883333333,
          "velocity": 0.7874015748031497
        },
        {
          "duration": 0.4411760000000129,
          "durationTicks": 48,
          "midi": 61,
          "name": "C#4",
          "ticks": 16559,
          "time": 152.19652883333333,
          "velocity": 0.7795275590551181
        },
        {
          "duration": 0.4411760000000129,
          "durationTicks": 48,
          "midi": 65,
          "name": "F4",
          "ticks": 16559,
          "time": 152.19652883333333,
          "velocity": 0.8976377952755905
        },
        {
          "duration": 0.43198483333333115,
          "durationTicks": 47,
          "midi": 68,
          "name": "G#4",
          "ticks": 16560,
          "time": 152.20572,
          "velocity": 0.8110236220472441
        },
        {
          "duration": 0.43198483333333115,
          "durationTicks": 47,
          "midi": 75,
          "name": "D#5",
          "ticks": 16560,
          "time": 152.20572,
          "velocity": 0.9133858267716536
        },
        {
          "duration": 0.22058799999999223,
          "durationTicks": 24,
          "midi": 68,
          "name": "G#4",
          "ticks": 16607,
          "time": 152.63770483333334,
          "velocity": 0.8661417322834646
        },
        {
          "duration": 0.22058799999999223,
          "durationTicks": 24,
          "midi": 73,
          "name": "C#5",
          "ticks": 16607,
          "time": 152.63770483333334,
          "velocity": 0.7795275590551181
        },
        {
          "duration": 0.21139683333333892,
          "durationTicks": 23,
          "midi": 77,
          "name": "F5",
          "ticks": 16608,
          "time": 152.646896,
          "velocity": 0.8740157480314961
        },
        {
          "duration": 0.018382333333363476,
          "durationTicks": 2,
          "midi": 68,
          "name": "G#4",
          "ticks": 16631,
          "time": 152.85829283333334,
          "velocity": 0.8976377952755905
        },
        {
          "duration": 0.00919116666671016,
          "durationTicks": 1,
          "midi": 73,
          "name": "C#5",
          "ticks": 16632,
          "time": 152.867484,
          "velocity": 0.8740157480314961
        },
        {
          "duration": 0.009191166666653316,
          "durationTicks": 1,
          "midi": 63,
          "name": "D#4",
          "ticks": 16643,
          "time": 152.96858683333335,
          "velocity": 0.8976377952755905
        },
        {
          "duration": 0.22058799999999223,
          "durationTicks": 24,
          "midi": 54,
          "name": "F#3",
          "ticks": 16655,
          "time": 153.07888083333336,
          "velocity": 0.7874015748031497
        },
        {
          "duration": 0.22058799999999223,
          "durationTicks": 24,
          "midi": 61,
          "name": "C#4",
          "ticks": 16655,
          "time": 153.07888083333336,
          "velocity": 0.8110236220472441
        },
        {
          "duration": 0.21139683333333892,
          "durationTicks": 23,
          "midi": 65,
          "name": "F4",
          "ticks": 16656,
          "time": 153.088072,
          "velocity": 0.8110236220472441
        },
        {
          "duration": 0.21139683333333892,
          "durationTicks": 23,
          "midi": 68,
          "name": "G#4",
          "ticks": 16656,
          "time": 153.088072,
          "velocity": 0.8740157480314961
        },
        {
          "duration": 0.21139683333333892,
          "durationTicks": 23,
          "midi": 75,
          "name": "D#5",
          "ticks": 16656,
          "time": 153.088072,
          "velocity": 0.905511811023622
        },
        {
          "duration": 0.1102939999999819,
          "durationTicks": 12,
          "midi": 65,
          "name": "F4",
          "ticks": 16679,
          "time": 153.29946883333335,
          "velocity": 0.9133858267716536
        },
        {
          "duration": 0.1102939999999819,
          "durationTicks": 12,
          "midi": 68,
          "name": "G#4",
          "ticks": 16679,
          "time": 153.29946883333335,
          "velocity": 0.7637795275590551
        },
        {
          "duration": 0.1102939999999819,
          "durationTicks": 12,
          "midi": 73,
          "name": "C#5",
          "ticks": 16679,
          "time": 153.29946883333335,
          "velocity": 0.7874015748031497
        },
        {
          "duration": 0.10110283333332859,
          "durationTicks": 11,
          "midi": 77,
          "name": "F5",
          "ticks": 16680,
          "time": 153.30866,
          "velocity": 0.8740157480314961
        },
        {
          "duration": 0.018382333333363476,
          "durationTicks": 2,
          "midi": 68,
          "name": "G#4",
          "ticks": 16691,
          "time": 153.40976283333333,
          "velocity": 0.8740157480314961
        },
        {
          "duration": 0.018382333333363476,
          "durationTicks": 2,
          "midi": 65,
          "name": "F4",
          "ticks": 16691,
          "time": 153.40976283333333,
          "velocity": 0.7637795275590551
        },
        {
          "duration": 0.018382333333335055,
          "durationTicks": 2,
          "midi": 68,
          "name": "G#4",
          "ticks": 16703,
          "time": 153.52005683333334,
          "velocity": 0.905511811023622
        },
        {
          "duration": 0.009191166666681738,
          "durationTicks": 1,
          "midi": 73,
          "name": "C#5",
          "ticks": 16704,
          "time": 153.529248,
          "velocity": 0.8740157480314961
        },
        {
          "duration": 0.009191166666653316,
          "durationTicks": 1,
          "midi": 66,
          "name": "F#4",
          "ticks": 16715,
          "time": 153.63035083333335,
          "velocity": 0.8976377952755905
        },
        {
          "duration": 0.4411760000000129,
          "durationTicks": 48,
          "midi": 61,
          "name": "C#4",
          "ticks": 16727,
          "time": 153.74064483333333,
          "velocity": 0.8582677165354331
        },
        {
          "duration": 0.4411760000000129,
          "durationTicks": 48,
          "midi": 65,
          "name": "F4",
          "ticks": 16727,
          "time": 153.74064483333333,
          "velocity": 0.8976377952755905
        },
        {
          "duration": 0.43198483333333115,
          "durationTicks": 47,
          "midi": 68,
          "name": "G#4",
          "ticks": 16728,
          "time": 153.74983600000002,
          "velocity": 0.7637795275590551
        },
        {
          "duration": 0.43198483333333115,
          "durationTicks": 47,
          "midi": 75,
          "name": "D#5",
          "ticks": 16728,
          "time": 153.74983600000002,
          "velocity": 0.7795275590551181
        },
        {
          "duration": 0.22058799999999223,
          "durationTicks": 24,
          "midi": 60,
          "name": "C4",
          "ticks": 16775,
          "time": 154.18182083333335,
          "velocity": 0.7401574803149606
        },
        {
          "duration": 0.22058799999999223,
          "durationTicks": 24,
          "midi": 65,
          "name": "F4",
          "ticks": 16775,
          "time": 154.18182083333335,
          "velocity": 0.8976377952755905
        },
        {
          "duration": 0.21139683333333892,
          "durationTicks": 23,
          "midi": 68,
          "name": "G#4",
          "ticks": 16776,
          "time": 154.191012,
          "velocity": 0.7637795275590551
        },
        {
          "duration": 0.21139683333333892,
          "durationTicks": 23,
          "midi": 75,
          "name": "D#5",
          "ticks": 16776,
          "time": 154.191012,
          "velocity": 0.7952755905511811
        },
        {
          "duration": 0.22058799999999223,
          "durationTicks": 24,
          "midi": 68,
          "name": "G#4",
          "ticks": 16799,
          "time": 154.40240883333334,
          "velocity": 0.8110236220472441
        },
        {
          "duration": 0.22058799999999223,
          "durationTicks": 24,
          "midi": 72,
          "name": "C5",
          "ticks": 16799,
          "time": 154.40240883333334,
          "velocity": 0.7559055118110236
        },
        {
          "duration": 0.21139683333333892,
          "durationTicks": 23,
          "midi": 75,
          "name": "D#5",
          "ticks": 16800,
          "time": 154.4116,
          "velocity": 0.7637795275590551
        },
        {
          "duration": 0.21139683333333892,
          "durationTicks": 23,
          "midi": 80,
          "name": "G#5",
          "ticks": 16800,
          "time": 154.4116,
          "velocity": 0.7401574803149606
        },
        {
          "duration": 0.018382333333363476,
          "durationTicks": 2,
          "midi": 61,
          "name": "C#4",
          "ticks": 16823,
          "time": 154.62299683333333,
          "velocity": 0.9133858267716536
        },
        {
          "duration": 0.009191166666681738,
          "durationTicks": 1,
          "midi": 65,
          "name": "F4",
          "ticks": 16824,
          "time": 154.632188,
          "velocity": 0.7716535433070866
        },
        {
          "duration": 0.009191166666653316,
          "durationTicks": 1,
          "midi": 61,
          "name": "C#4",
          "ticks": 16835,
          "time": 154.73329083333334,
          "velocity": 0.8976377952755905
        },
        {
          "duration": 0.22058799999999223,
          "durationTicks": 24,
          "midi": 56,
          "name": "G#3",
          "ticks": 16847,
          "time": 154.84358483333335,
          "velocity": 0.7637795275590551
        },
        {
          "duration": 0.22058799999999223,
          "durationTicks": 24,
          "midi": 60,
          "name": "C4",
          "ticks": 16847,
          "time": 154.84358483333335,
          "velocity": 0.7401574803149606
        },
        {
          "duration": 0.22058799999999223,
          "durationTicks": 24,
          "midi": 65,
          "name": "F4",
          "ticks": 16847,
          "time": 154.84358483333335,
          "velocity": 0.8267716535433071
        },
        {
          "duration": 0.21139683333333892,
          "durationTicks": 23,
          "midi": 68,
          "name": "G#4",
          "ticks": 16848,
          "time": 154.852776,
          "velocity": 0.7952755905511811
        },
        {
          "duration": 0.21139683333333892,
          "durationTicks": 23,
          "midi": 75,
          "name": "D#5",
          "ticks": 16848,
          "time": 154.852776,
          "velocity": 0.905511811023622
        },
        {
          "duration": 0.21139683333333892,
          "durationTicks": 23,
          "midi": 65,
          "name": "F4",
          "ticks": 16871,
          "time": 155.06417283333334,
          "velocity": 0.8661417322834646
        },
        {
          "duration": 0.21139683333333892,
          "durationTicks": 23,
          "midi": 68,
          "name": "G#4",
          "ticks": 16871,
          "time": 155.06417283333334,
          "velocity": 0.889763779527559
        },
        {
          "duration": 0.4319848333333596,
          "durationTicks": 47,
          "midi": 75,
          "name": "D#5",
          "ticks": 16872,
          "time": 155.073364,
          "velocity": 0.8503937007874016
        },
        {
          "duration": 0.22058800000002066,
          "durationTicks": 24,
          "midi": 65,
          "name": "F4",
          "ticks": 16895,
          "time": 155.28476083333334,
          "velocity": 0.7795275590551181
        },
        {
          "duration": 0.22058800000002066,
          "durationTicks": 24,
          "midi": 72,
          "name": "C5",
          "ticks": 16895,
          "time": 155.28476083333334,
          "velocity": 0.7559055118110236
        },
        {
          "duration": 0.21139683333336734,
          "durationTicks": 23,
          "midi": 80,
          "name": "G#5",
          "ticks": 16896,
          "time": 155.293952,
          "velocity": 0.8582677165354331
        },
        {
          "duration": 0.05514699999997674,
          "durationTicks": 6,
          "midi": 63,
          "name": "D#4",
          "ticks": 16919,
          "time": 155.50534883333336,
          "velocity": 0.9133858267716536
        },
        {
          "duration": 0.009191166666681738,
          "durationTicks": 1,
          "midi": 68,
          "name": "G#4",
          "ticks": 16920,
          "time": 155.51454,
          "velocity": 0.7716535433070866
        },
        {
          "duration": 0.10110283333335701,
          "durationTicks": 11,
          "midi": 68,
          "name": "G#4",
          "ticks": 16931,
          "time": 155.61564283333334,
          "velocity": 0.8740157480314961
        },
        {
          "duration": 0.44117599999998447,
          "durationTicks": 48,
          "midi": 56,
          "name": "G#3",
          "ticks": 16943,
          "time": 155.72593683333335,
          "velocity": 0.7637795275590551
        },
        {
          "duration": 0.44117599999998447,
          "durationTicks": 48,
          "midi": 63,
          "name": "D#4",
          "ticks": 16943,
          "time": 155.72593683333335,
          "velocity": 0.9212598425196851
        },
        {
          "duration": 0.44117599999998447,
          "durationTicks": 48,
          "midi": 68,
          "name": "G#4",
          "ticks": 16943,
          "time": 155.72593683333335,
          "velocity": 0.7874015748031497
        },
        {
          "duration": 0.43198483333333115,
          "durationTicks": 47,
          "midi": 72,
          "name": "C5",
          "ticks": 16944,
          "time": 155.735128,
          "velocity": 0.7637795275590551
        },
        {
          "duration": 0.43198483333333115,
          "durationTicks": 47,
          "midi": 75,
          "name": "D#5",
          "ticks": 16944,
          "time": 155.735128,
          "velocity": 0.7401574803149606
        },
        {
          "duration": 0.22058800000002066,
          "durationTicks": 24,
          "midi": 68,
          "name": "G#4",
          "ticks": 16991,
          "time": 156.16711283333333,
          "velocity": 0.7952755905511811
        },
        {
          "duration": 0.22058800000002066,
          "durationTicks": 24,
          "midi": 72,
          "name": "C5",
          "ticks": 16991,
          "time": 156.16711283333333,
          "velocity": 0.8976377952755905
        },
        {
          "duration": 0.21139683333333892,
          "durationTicks": 23,
          "midi": 75,
          "name": "D#5",
          "ticks": 16992,
          "time": 156.17630400000002,
          "velocity": 0.7874015748031497
        },
        {
          "duration": 0.21139683333333892,
          "durationTicks": 23,
          "midi": 80,
          "name": "G#5",
          "ticks": 16992,
          "time": 156.17630400000002,
          "velocity": 0.7007874015748031
        },
        {
          "duration": 0.018382333333335055,
          "durationTicks": 2,
          "midi": 56,
          "name": "G#3",
          "ticks": 17015,
          "time": 156.38770083333335,
          "velocity": 0.7795275590551181
        },
        {
          "duration": 0.009191166666681738,
          "durationTicks": 1,
          "midi": 63,
          "name": "D#4",
          "ticks": 17016,
          "time": 156.396892,
          "velocity": 0.889763779527559
        },
        {
          "duration": 0.11029400000001033,
          "durationTicks": 12,
          "midi": 68,
          "name": "G#4",
          "ticks": 17027,
          "time": 156.49799483333334,
          "velocity": 0.8976377952755905
        },
        {
          "duration": 0.22058799999999223,
          "durationTicks": 24,
          "midi": 56,
          "name": "G#3",
          "ticks": 17039,
          "time": 156.60828883333335,
          "velocity": 0.84251968503937
        },
        {
          "duration": 0.22058799999999223,
          "durationTicks": 24,
          "midi": 63,
          "name": "D#4",
          "ticks": 17039,
          "time": 156.60828883333335,
          "velocity": 0.8661417322834646
        },
        {
          "duration": 0.21139683333333892,
          "durationTicks": 23,
          "midi": 68,
          "name": "G#4",
          "ticks": 17040,
          "time": 156.61748,
          "velocity": 0.9212598425196851
        },
        {
          "duration": 0.21139683333333892,
          "durationTicks": 23,
          "midi": 72,
          "name": "C5",
          "ticks": 17040,
          "time": 156.61748,
          "velocity": 0.7637795275590551
        },
        {
          "duration": 0.21139683333333892,
          "durationTicks": 23,
          "midi": 75,
          "name": "D#5",
          "ticks": 17040,
          "time": 156.61748,
          "velocity": 0.7480314960629921
        },
        {
          "duration": 0.22058799999999223,
          "durationTicks": 24,
          "midi": 68,
          "name": "G#4",
          "ticks": 17063,
          "time": 156.82887683333334,
          "velocity": 0.7322834645669292
        },
        {
          "duration": 0.22058799999999223,
          "durationTicks": 24,
          "midi": 72,
          "name": "C5",
          "ticks": 17063,
          "time": 156.82887683333334,
          "velocity": 0.905511811023622
        },
        {
          "duration": 0.22058799999999223,
          "durationTicks": 24,
          "midi": 75,
          "name": "D#5",
          "ticks": 17063,
          "time": 156.82887683333334,
          "velocity": 0.7952755905511811
        },
        {
          "duration": 0.21139683333333892,
          "durationTicks": 23,
          "midi": 80,
          "name": "G#5",
          "ticks": 17064,
          "time": 156.838068,
          "velocity": 0.8661417322834646
        },
        {
          "duration": 0.018382333333363476,
          "durationTicks": 2,
          "midi": 56,
          "name": "G#3",
          "ticks": 17087,
          "time": 157.04946483333333,
          "velocity": 0.7795275590551181
        },
        {
          "duration": 0.009191166666681738,
          "durationTicks": 1,
          "midi": 63,
          "name": "D#4",
          "ticks": 17088,
          "time": 157.058656,
          "velocity": 0.889763779527559
        },
        {
          "duration": 0.11029400000001033,
          "durationTicks": 12,
          "midi": 68,
          "name": "G#4",
          "ticks": 17099,
          "time": 157.15975883333334,
          "velocity": 0.9212598425196851
        },
        {
          "duration": 0.6617640000000051,
          "durationTicks": 72,
          "midi": 56,
          "name": "G#3",
          "ticks": 17111,
          "time": 157.27005283333335,
          "velocity": 0.6850393700787402
        },
        {
          "duration": 0.6617640000000051,
          "durationTicks": 72,
          "midi": 63,
          "name": "D#4",
          "ticks": 17111,
          "time": 157.27005283333335,
          "velocity": 0.889763779527559
        },
        {
          "duration": 0.6617640000000051,
          "durationTicks": 72,
          "midi": 68,
          "name": "G#4",
          "ticks": 17111,
          "time": 157.27005283333335,
          "velocity": 0.9212598425196851
        },
        {
          "duration": 0.6525728333333518,
          "durationTicks": 71,
          "midi": 72,
          "name": "C5",
          "ticks": 17112,
          "time": 157.279244,
          "velocity": 0.7795275590551181
        },
        {
          "duration": 0.6525728333333518,
          "durationTicks": 71,
          "midi": 75,
          "name": "D#5",
          "ticks": 17112,
          "time": 157.279244,
          "velocity": 0.84251968503937
        },
        {
          "duration": 0.19301449999997544,
          "durationTicks": 21,
          "midi": 72,
          "name": "C5",
          "ticks": 17183,
          "time": 157.93181683333336,
          "velocity": 0.968503937007874
        },
        {
          "duration": 0.44117599999998447,
          "durationTicks": 48,
          "midi": 68,
          "name": "G#4",
          "ticks": 17207,
          "time": 158.15240483333335,
          "velocity": 0.7716535433070866
        },
        {
          "duration": 0.44117599999998447,
          "durationTicks": 48,
          "midi": 74,
          "name": "D5",
          "ticks": 17207,
          "time": 158.15240483333335,
          "velocity": 0.7874015748031497
        },
        {
          "duration": 0.43198483333333115,
          "durationTicks": 47,
          "midi": 77,
          "name": "F5",
          "ticks": 17208,
          "time": 158.161596,
          "velocity": 0.7952755905511811
        },
        {
          "duration": 0.43198483333333115,
          "durationTicks": 47,
          "midi": 82,
          "name": "A#5",
          "ticks": 17208,
          "time": 158.161596,
          "velocity": 0.8110236220472441
        },
        {
          "duration": 0.11029400000001033,
          "durationTicks": 12,
          "midi": 70,
          "name": "A#4",
          "ticks": 17255,
          "time": 158.59358083333333,
          "velocity": 0.8661417322834646
        },
        {
          "duration": 0.11029400000001033,
          "durationTicks": 12,
          "midi": 70,
          "name": "A#4",
          "ticks": 17267,
          "time": 158.70387483333334,
          "velocity": 0.905511811023622
        },
        {
          "duration": 0.22058799999999223,
          "durationTicks": 24,
          "midi": 68,
          "name": "G#4",
          "ticks": 17279,
          "time": 158.81416883333335,
          "velocity": 0.8503937007874016
        },
        {
          "duration": 0.22058799999999223,
          "durationTicks": 24,
          "midi": 74,
          "name": "D5",
          "ticks": 17279,
          "time": 158.81416883333335,
          "velocity": 0.8188976377952756
        },
        {
          "duration": 0.21139683333333892,
          "durationTicks": 23,
          "midi": 77,
          "name": "F5",
          "ticks": 17280,
          "time": 158.82336,
          "velocity": 0.7952755905511811
        },
        {
          "duration": 0.21139683333333892,
          "durationTicks": 23,
          "midi": 82,
          "name": "A#5",
          "ticks": 17280,
          "time": 158.82336,
          "velocity": 0.7559055118110236
        },
        {
          "duration": 0.15624983333333375,
          "durationTicks": 17,
          "midi": 67,
          "name": "G4",
          "ticks": 17303,
          "time": 159.03475683333335,
          "velocity": 0.7952755905511811
        },
        {
          "duration": 0.22058800000002066,
          "durationTicks": 24,
          "midi": 51,
          "name": "D#3",
          "ticks": 17327,
          "time": 159.25534483333334,
          "velocity": 0.7637795275590551
        },
        {
          "duration": 0.22058800000002066,
          "durationTicks": 24,
          "midi": 61,
          "name": "C#4",
          "ticks": 17327,
          "time": 159.25534483333334,
          "velocity": 0.8346456692913385
        },
        {
          "duration": 0.22058800000002066,
          "durationTicks": 24,
          "midi": 65,
          "name": "F4",
          "ticks": 17327,
          "time": 159.25534483333334,
          "velocity": 0.7874015748031497
        },
        {
          "duration": 0.21139683333336734,
          "durationTicks": 23,
          "midi": 68,
          "name": "G#4",
          "ticks": 17328,
          "time": 159.264536,
          "velocity": 0.7637795275590551
        },
        {
          "duration": 0.21139683333336734,
          "durationTicks": 23,
          "midi": 73,
          "name": "C#5",
          "ticks": 17328,
          "time": 159.264536,
          "velocity": 0.8582677165354331
        },
        {
          "duration": 0.22058799999999223,
          "durationTicks": 24,
          "midi": 65,
          "name": "F4",
          "ticks": 17351,
          "time": 159.47593283333336,
          "velocity": 0.9133858267716536
        },
        {
          "duration": 0.018382333333335055,
          "durationTicks": 2,
          "midi": 65,
          "name": "F4",
          "ticks": 17375,
          "time": 159.69652083333335,
          "velocity": 0.7795275590551181
        },
        {
          "duration": 0.009191166666681738,
          "durationTicks": 1,
          "midi": 68,
          "name": "G#4",
          "ticks": 17376,
          "time": 159.705712,
          "velocity": 0.889763779527559
        },
        {
          "duration": 0.018382333333363476,
          "durationTicks": 2,
          "midi": 72,
          "name": "C5",
          "ticks": 17387,
          "time": 159.80681483333333,
          "velocity": 0.937007874015748
        },
        {
          "duration": 0.4411760000000129,
          "durationTicks": 48,
          "midi": 61,
          "name": "C#4",
          "ticks": 17399,
          "time": 159.91710883333334,
          "velocity": 0.7401574803149606
        },
        {
          "duration": 0.4411760000000129,
          "durationTicks": 48,
          "midi": 65,
          "name": "F4",
          "ticks": 17399,
          "time": 159.91710883333334,
          "velocity": 0.905511811023622
        },
        {
          "duration": 0.4319848333333596,
          "durationTicks": 47,
          "midi": 68,
          "name": "G#4",
          "ticks": 17400,
          "time": 159.9263,
          "velocity": 0.6141732283464567
        },
        {
          "duration": 0.4319848333333596,
          "durationTicks": 47,
          "midi": 73,
          "name": "C#5",
          "ticks": 17400,
          "time": 159.9263,
          "velocity": 0.8267716535433071
        },
        {
          "duration": 0.22058799999999223,
          "durationTicks": 24,
          "midi": 61,
          "name": "C#4",
          "ticks": 17447,
          "time": 160.35828483333336,
          "velocity": 0.8740157480314961
        },
        {
          "duration": 0.22058799999999223,
          "durationTicks": 24,
          "midi": 65,
          "name": "F4",
          "ticks": 17447,
          "time": 160.35828483333336,
          "velocity": 0.8267716535433071
        },
        {
          "duration": 0.21139683333333892,
          "durationTicks": 23,
          "midi": 68,
          "name": "G#4",
          "ticks": 17448,
          "time": 160.367476,
          "velocity": 0.9133858267716536
        },
        {
          "duration": 0.22058799999999223,
          "durationTicks": 24,
          "midi": 61,
          "name": "C#4",
          "ticks": 17471,
          "time": 160.57887283333335,
          "velocity": 0.7401574803149606
        },
        {
          "duration": 0.21139683333333892,
          "durationTicks": 23,
          "midi": 65,
          "name": "F4",
          "ticks": 17472,
          "time": 160.588064,
          "velocity": 0.905511811023622
        },
        {
          "duration": 0.22058799999999223,
          "durationTicks": 24,
          "midi": 61,
          "name": "C#4",
          "ticks": 17495,
          "time": 160.79946083333334,
          "velocity": 0.905511811023622
        },
        {
          "duration": 0.22058799999999223,
          "durationTicks": 24,
          "midi": 65,
          "name": "F4",
          "ticks": 17495,
          "time": 160.79946083333334,
          "velocity": 0.7086614173228346
        },
        {
          "duration": 0.21139683333333892,
          "durationTicks": 23,
          "midi": 68,
          "name": "G#4",
          "ticks": 17496,
          "time": 160.808652,
          "velocity": 0.7874015748031497
        },
        {
          "duration": 0.21139683333333892,
          "durationTicks": 23,
          "midi": 73,
          "name": "C#5",
          "ticks": 17496,
          "time": 160.808652,
          "velocity": 0.905511811023622
        },
        {
          "duration": 0.19301450000000386,
          "durationTicks": 21,
          "midi": 66,
          "name": "F#4",
          "ticks": 17519,
          "time": 161.02004883333333,
          "velocity": 0.905511811023622
        },
        {
          "duration": 0.44117599999998447,
          "durationTicks": 48,
          "midi": 56,
          "name": "G#3",
          "ticks": 17543,
          "time": 161.24063683333335,
          "velocity": 0.7795275590551181
        },
        {
          "duration": 0.44117599999998447,
          "durationTicks": 48,
          "midi": 63,
          "name": "D#4",
          "ticks": 17543,
          "time": 161.24063683333335,
          "velocity": 0.8582677165354331
        },
        {
          "duration": 0.43198483333333115,
          "durationTicks": 47,
          "midi": 68,
          "name": "G#4",
          "ticks": 17544,
          "time": 161.249828,
          "velocity": 0.889763779527559
        },
        {
          "duration": 0.43198483333333115,
          "durationTicks": 47,
          "midi": 72,
          "name": "C5",
          "ticks": 17544,
          "time": 161.249828,
          "velocity": 0.8110236220472441
        },
        {
          "duration": 0.22058799999999223,
          "durationTicks": 24,
          "midi": 75,
          "name": "D#5",
          "ticks": 17567,
          "time": 161.46122483333335,
          "velocity": 0.9133858267716536
        },
        {
          "duration": 0.19301450000000386,
          "durationTicks": 21,
          "midi": 63,
          "name": "D#4",
          "ticks": 17591,
          "time": 161.68181283333334,
          "velocity": 0.7952755905511811
        },
        {
          "duration": 0.18382333333335055,
          "durationTicks": 20,
          "midi": 68,
          "name": "G#4",
          "ticks": 17592,
          "time": 161.691004,
          "velocity": 0.8976377952755905
        },
        {
          "duration": 0.44117599999998447,
          "durationTicks": 48,
          "midi": 63,
          "name": "D#4",
          "ticks": 17615,
          "time": 161.90240083333336,
          "velocity": 0.8346456692913385
        },
        {
          "duration": 0.44117599999998447,
          "durationTicks": 48,
          "midi": 68,
          "name": "G#4",
          "ticks": 17615,
          "time": 161.90240083333336,
          "velocity": 0.8031496062992126
        },
        {
          "duration": 0.43198483333333115,
          "durationTicks": 47,
          "midi": 73,
          "name": "C#5",
          "ticks": 17616,
          "time": 161.911592,
          "velocity": 0.905511811023622
        },
        {
          "duration": 0.22058799999999223,
          "durationTicks": 24,
          "midi": 75,
          "name": "D#5",
          "ticks": 17639,
          "time": 162.12298883333335,
          "velocity": 0.889763779527559
        },
        {
          "duration": 0.4227936666666494,
          "durationTicks": 46,
          "midi": 56,
          "name": "G#3",
          "ticks": 17663,
          "time": 162.34357683333334,
          "velocity": 0.8976377952755905
        },
        {
          "duration": 0.42279366666667784,
          "durationTicks": 46,
          "midi": 63,
          "name": "D#4",
          "ticks": 17664,
          "time": 162.352768,
          "velocity": 0.8661417322834646
        },
        {
          "duration": 0.21139683333333892,
          "durationTicks": 23,
          "midi": 68,
          "name": "G#4",
          "ticks": 17687,
          "time": 162.56416483333334,
          "velocity": 0.9133858267716536
        },
        {
          "duration": 0.22058799999999223,
          "durationTicks": 24,
          "midi": 54,
          "name": "F#3",
          "ticks": 17711,
          "time": 162.78475283333336,
          "velocity": 0.8110236220472441
        },
        {
          "duration": 0.22058799999999223,
          "durationTicks": 24,
          "midi": 58,
          "name": "A#3",
          "ticks": 17711,
          "time": 162.78475283333336,
          "velocity": 0.8740157480314961
        },
        {
          "duration": 0.22058799999999223,
          "durationTicks": 24,
          "midi": 68,
          "name": "G#4",
          "ticks": 17711,
          "time": 162.78475283333336,
          "velocity": 0.8661417322834646
        },
        {
          "duration": 0.21139683333333892,
          "durationTicks": 23,
          "midi": 73,
          "name": "C#5",
          "ticks": 17712,
          "time": 162.793944,
          "velocity": 0.8267716535433071
        },
        {
          "duration": 0.21139683333333892,
          "durationTicks": 23,
          "midi": 77,
          "name": "F5",
          "ticks": 17712,
          "time": 162.793944,
          "velocity": 0.9133858267716536
        },
        {
          "duration": 0.03676466666664169,
          "durationTicks": 4,
          "midi": 68,
          "name": "G#4",
          "ticks": 17735,
          "time": 163.00534083333335,
          "velocity": 0.8031496062992126
        },
        {
          "duration": 0.09191166666667527,
          "durationTicks": 10,
          "midi": 73,
          "name": "C#5",
          "ticks": 17736,
          "time": 163.014532,
          "velocity": 0.9133858267716536
        },
        {
          "duration": 0.1102939999999819,
          "durationTicks": 12,
          "midi": 75,
          "name": "D#5",
          "ticks": 17747,
          "time": 163.11563483333336,
          "velocity": 0.9133858267716536
        },
        {
          "duration": 0.1102939999999819,
          "durationTicks": 12,
          "midi": 73,
          "name": "C#5",
          "ticks": 17747,
          "time": 163.11563483333336,
          "velocity": 0.8661417322834646
        },
        {
          "duration": 0.10110283333332859,
          "durationTicks": 11,
          "midi": 68,
          "name": "G#4",
          "ticks": 17748,
          "time": 163.124826,
          "velocity": 0.8661417322834646
        },
        {
          "duration": 0.10110283333332859,
          "durationTicks": 11,
          "midi": 58,
          "name": "A#3",
          "ticks": 17748,
          "time": 163.124826,
          "velocity": 0.8740157480314961
        },
        {
          "duration": 0.027573500000016793,
          "durationTicks": 3,
          "midi": 54,
          "name": "F#3",
          "ticks": 17759,
          "time": 163.22592883333334,
          "velocity": 0.905511811023622
        },
        {
          "duration": 0.027573500000016793,
          "durationTicks": 3,
          "midi": 58,
          "name": "A#3",
          "ticks": 17760,
          "time": 163.23512,
          "velocity": 0.8031496062992126
        },
        {
          "duration": 0.018382333333335055,
          "durationTicks": 2,
          "midi": 68,
          "name": "G#4",
          "ticks": 17771,
          "time": 163.33622283333335,
          "velocity": 0.9133858267716536
        },
        {
          "duration": 0.22058800000002066,
          "durationTicks": 24,
          "midi": 54,
          "name": "F#3",
          "ticks": 17783,
          "time": 163.44651683333333,
          "velocity": 0.8346456692913385
        },
        {
          "duration": 0.22058800000002066,
          "durationTicks": 24,
          "midi": 58,
          "name": "A#3",
          "ticks": 17783,
          "time": 163.44651683333333,
          "velocity": 0.8740157480314961
        },
        {
          "duration": 0.22058800000002066,
          "durationTicks": 24,
          "midi": 68,
          "name": "G#4",
          "ticks": 17783,
          "time": 163.44651683333333,
          "velocity": 0.8661417322834646
        },
        {
          "duration": 0.21139683333333892,
          "durationTicks": 23,
          "midi": 73,
          "name": "C#5",
          "ticks": 17784,
          "time": 163.45570800000002,
          "velocity": 0.8267716535433071
        },
        {
          "duration": 0.21139683333333892,
          "durationTicks": 23,
          "midi": 75,
          "name": "D#5",
          "ticks": 17784,
          "time": 163.45570800000002,
          "velocity": 0.9133858267716536
        },
        {
          "duration": 0.02757349999998837,
          "durationTicks": 3,
          "midi": 58,
          "name": "A#3",
          "ticks": 17807,
          "time": 163.66710483333335,
          "velocity": 0.8031496062992126
        },
        {
          "duration": 0.02757349999998837,
          "durationTicks": 3,
          "midi": 63,
          "name": "D#4",
          "ticks": 17808,
          "time": 163.676296,
          "velocity": 0.9133858267716536
        },
        {
          "duration": 0.11029400000001033,
          "durationTicks": 12,
          "midi": 73,
          "name": "C#5",
          "ticks": 17819,
          "time": 163.77739883333334,
          "velocity": 0.9133858267716536
        },
        {
          "duration": 0.11029400000001033,
          "durationTicks": 12,
          "midi": 68,
          "name": "G#4",
          "ticks": 17819,
          "time": 163.77739883333334,
          "velocity": 0.8661417322834646
        },
        {
          "duration": 0.10110283333332859,
          "durationTicks": 11,
          "midi": 58,
          "name": "A#3",
          "ticks": 17820,
          "time": 163.78659000000002,
          "velocity": 0.8740157480314961
        },
        {
          "duration": 0.02757349999998837,
          "durationTicks": 3,
          "midi": 58,
          "name": "A#3",
          "ticks": 17831,
          "time": 163.88769283333335,
          "velocity": 0.905511811023622
        },
        {
          "duration": 0.018382333333335055,
          "durationTicks": 2,
          "midi": 68,
          "name": "G#4",
          "ticks": 17832,
          "time": 163.896884,
          "velocity": 0.8031496062992126
        },
        {
          "duration": 0.018382333333335055,
          "durationTicks": 2,
          "midi": 63,
          "name": "D#4",
          "ticks": 17843,
          "time": 163.99798683333336,
          "velocity": 0.9133858267716536
        },
        {
          "duration": 0.22058800000002066,
          "durationTicks": 24,
          "midi": 58,
          "name": "A#3",
          "ticks": 17855,
          "time": 164.10828083333334,
          "velocity": 0.8740157480314961
        },
        {
          "duration": 0.22058800000002066,
          "durationTicks": 24,
          "midi": 68,
          "name": "G#4",
          "ticks": 17855,
          "time": 164.10828083333334,
          "velocity": 0.8661417322834646
        },
        {
          "duration": 0.21139683333336734,
          "durationTicks": 23,
          "midi": 73,
          "name": "C#5",
          "ticks": 17856,
          "time": 164.117472,
          "velocity": 0.8267716535433071
        },
        {
          "duration": 0.21139683333336734,
          "durationTicks": 23,
          "midi": 75,
          "name": "D#5",
          "ticks": 17856,
          "time": 164.117472,
          "velocity": 0.9133858267716536
        },
        {
          "duration": 0.02757349999998837,
          "durationTicks": 3,
          "midi": 63,
          "name": "D#4",
          "ticks": 17879,
          "time": 164.32886883333336,
          "velocity": 0.905511811023622
        },
        {
          "duration": 0.018382333333335055,
          "durationTicks": 2,
          "midi": 68,
          "name": "G#4",
          "ticks": 17880,
          "time": 164.33806,
          "velocity": 0.8031496062992126
        },
        {
          "duration": 0.07352933333334022,
          "durationTicks": 8,
          "midi": 75,
          "name": "D#5",
          "ticks": 17891,
          "time": 164.43916283333334,
          "velocity": 0.9133858267716536
        },
        {
          "duration": 0.22058799999999223,
          "durationTicks": 24,
          "midi": 56,
          "name": "G#3",
          "ticks": 17903,
          "time": 164.54945683333335,
          "velocity": 0.8110236220472441
        },
        {
          "duration": 0.22058799999999223,
          "durationTicks": 24,
          "midi": 63,
          "name": "D#4",
          "ticks": 17903,
          "time": 164.54945683333335,
          "velocity": 0.8740157480314961
        },
        {
          "duration": 0.22058799999999223,
          "durationTicks": 24,
          "midi": 68,
          "name": "G#4",
          "ticks": 17903,
          "time": 164.54945683333335,
          "velocity": 0.8661417322834646
        },
        {
          "duration": 0.21139683333333892,
          "durationTicks": 23,
          "midi": 73,
          "name": "C#5",
          "ticks": 17904,
          "time": 164.558648,
          "velocity": 0.8267716535433071
        },
        {
          "duration": 0.21139683333333892,
          "durationTicks": 23,
          "midi": 77,
          "name": "F5",
          "ticks": 17904,
          "time": 164.558648,
          "velocity": 0.9133858267716536
        },
        {
          "duration": 0.03676466666667011,
          "durationTicks": 4,
          "midi": 63,
          "name": "D#4",
          "ticks": 17927,
          "time": 164.77004483333334,
          "velocity": 0.8031496062992126
        },
        {
          "duration": 0.027573500000016793,
          "durationTicks": 3,
          "midi": 68,
          "name": "G#4",
          "ticks": 17928,
          "time": 164.779236,
          "velocity": 0.9133858267716536
        },
        {
          "duration": 0.1102939999999819,
          "durationTicks": 12,
          "midi": 68,
          "name": "G#4",
          "ticks": 17939,
          "time": 164.88033883333335,
          "velocity": 0.9133858267716536
        },
        {
          "duration": 0.1102939999999819,
          "durationTicks": 12,
          "midi": 65,
          "name": "F4",
          "ticks": 17939,
          "time": 164.88033883333335,
          "velocity": 0.8661417322834646
        },
        {
          "duration": 0.10110283333332859,
          "durationTicks": 11,
          "midi": 56,
          "name": "G#3",
          "ticks": 17940,
          "time": 164.88953,
          "velocity": 0.8740157480314961
        },
        {
          "duration": 0.018382333333363476,
          "durationTicks": 2,
          "midi": 63,
          "name": "D#4",
          "ticks": 17951,
          "time": 164.99063283333334,
          "velocity": 0.8740157480314961
        },
        {
          "duration": 0.009191166666681738,
          "durationTicks": 1,
          "midi": 68,
          "name": "G#4",
          "ticks": 17952,
          "time": 164.99982400000002,
          "velocity": 0.9133858267716536
        },
        {
          "duration": 0.11029400000001033,
          "durationTicks": 12,
          "midi": 69,
          "name": "A4",
          "ticks": 17963,
          "time": 165.10092683333335,
          "velocity": 0.9133858267716536
        },
        {
          "duration": 0.11029400000001033,
          "durationTicks": 12,
          "midi": 65,
          "name": "F4",
          "ticks": 17963,
          "time": 165.10092683333335,
          "velocity": 0.8661417322834646
        },
        {
          "duration": 0.10110283333335701,
          "durationTicks": 11,
          "midi": 60,
          "name": "C4",
          "ticks": 17964,
          "time": 165.110118,
          "velocity": 0.8740157480314961
        },
        {
          "duration": 0.22058799999999223,
          "durationTicks": 24,
          "midi": 53,
          "name": "F3",
          "ticks": 17975,
          "time": 165.21122083333336,
          "velocity": 0.84251968503937
        },
        {
          "duration": 0.22058799999999223,
          "durationTicks": 24,
          "midi": 60,
          "name": "C4",
          "ticks": 17975,
          "time": 165.21122083333336,
          "velocity": 0.9133858267716536
        },
        {
          "duration": 0.21139683333333892,
          "durationTicks": 23,
          "midi": 63,
          "name": "D#4",
          "ticks": 17976,
          "time": 165.220412,
          "velocity": 0.8661417322834646
        },
        {
          "duration": 0.21139683333333892,
          "durationTicks": 23,
          "midi": 69,
          "name": "A4",
          "ticks": 17976,
          "time": 165.220412,
          "velocity": 0.8740157480314961
        },
        {
          "duration": 0.018382333333335055,
          "durationTicks": 2,
          "midi": 53,
          "name": "F3",
          "ticks": 17999,
          "time": 165.43180883333335,
          "velocity": 0.8582677165354331
        },
        {
          "duration": 0.02757349999998837,
          "durationTicks": 3,
          "midi": 60,
          "name": "C4",
          "ticks": 18000,
          "time": 165.441,
          "velocity": 0.8740157480314961
        },
        {
          "duration": 0.1102939999999819,
          "durationTicks": 12,
          "midi": 63,
          "name": "D#4",
          "ticks": 18011,
          "time": 165.54210283333336,
          "velocity": 0.7952755905511811
        },
        {
          "duration": 0.1102939999999819,
          "durationTicks": 12,
          "midi": 69,
          "name": "A4",
          "ticks": 18011,
          "time": 165.54210283333336,
          "velocity": 0.9133858267716536
        },
        {
          "duration": 0.10110283333332859,
          "durationTicks": 11,
          "midi": 72,
          "name": "C5",
          "ticks": 18012,
          "time": 165.551294,
          "velocity": 0.8661417322834646
        },
        {
          "duration": 0.10110283333332859,
          "durationTicks": 11,
          "midi": 75,
          "name": "D#5",
          "ticks": 18012,
          "time": 165.551294,
          "velocity": 0.8740157480314961
        },
        {
          "duration": 0.018382333333335055,
          "durationTicks": 2,
          "midi": 53,
          "name": "F3",
          "ticks": 18023,
          "time": 165.65239683333334,
          "velocity": 0.8582677165354331
        },
        {
          "duration": 0.027573500000016793,
          "durationTicks": 3,
          "midi": 60,
          "name": "C4",
          "ticks": 18024,
          "time": 165.661588,
          "velocity": 0.8740157480314961
        },
        {
          "duration": 0.1102939999999819,
          "durationTicks": 12,
          "midi": 69,
          "name": "A4",
          "ticks": 18035,
          "time": 165.76269083333335,
          "velocity": 0.8188976377952756
        },
        {
          "duration": 0.10110283333332859,
          "durationTicks": 11,
          "midi": 63,
          "name": "D#4",
          "ticks": 18036,
          "time": 165.771882,
          "velocity": 0.7795275590551181
        },
        {
          "duration": 0.22058800000002066,
          "durationTicks": 24,
          "midi": 63,
          "name": "D#4",
          "ticks": 18047,
          "time": 165.87298483333333,
          "velocity": 0.8110236220472441
        },
        {
          "duration": 0.22058800000002066,
          "durationTicks": 24,
          "midi": 69,
          "name": "A4",
          "ticks": 18047,
          "time": 165.87298483333333,
          "velocity": 0.7952755905511811
        },
        {
          "duration": 0.21139683333333892,
          "durationTicks": 23,
          "midi": 72,
          "name": "C5",
          "ticks": 18048,
          "time": 165.88217600000002,
          "velocity": 0.889763779527559
        },
        {
          "duration": 0.21139683333333892,
          "durationTicks": 23,
          "midi": 75,
          "name": "D#5",
          "ticks": 18048,
          "time": 165.88217600000002,
          "velocity": 0.7952755905511811
        },
        {
          "duration": 0.1102939999999819,
          "durationTicks": 12,
          "midi": 63,
          "name": "D#4",
          "ticks": 18071,
          "time": 166.09357283333335,
          "velocity": 0.8110236220472441
        },
        {
          "duration": 0.1102939999999819,
          "durationTicks": 12,
          "midi": 69,
          "name": "A4",
          "ticks": 18071,
          "time": 166.09357283333335,
          "velocity": 0.7952755905511811
        },
        {
          "duration": 0.10110283333332859,
          "durationTicks": 11,
          "midi": 72,
          "name": "C5",
          "ticks": 18072,
          "time": 166.102764,
          "velocity": 0.889763779527559
        },
        {
          "duration": 0.10110283333332859,
          "durationTicks": 11,
          "midi": 75,
          "name": "D#5",
          "ticks": 18072,
          "time": 166.102764,
          "velocity": 0.9133858267716536
        },
        {
          "duration": 0.11029400000001033,
          "durationTicks": 12,
          "midi": 75,
          "name": "D#5",
          "ticks": 18083,
          "time": 166.20386683333334,
          "velocity": 0.8976377952755905
        },
        {
          "duration": 0.10110283333335701,
          "durationTicks": 11,
          "midi": 72,
          "name": "C5",
          "ticks": 18083,
          "time": 166.20386683333334,
          "velocity": 0.8740157480314961
        },
        {
          "duration": 0.09191166666667527,
          "durationTicks": 10,
          "midi": 69,
          "name": "A4",
          "ticks": 18084,
          "time": 166.21305800000002,
          "velocity": 0.7795275590551181
        },
        {
          "duration": 0.4411760000000129,
          "durationTicks": 48,
          "midi": 54,
          "name": "F#3",
          "ticks": 18095,
          "time": 166.31416083333335,
          "velocity": 0.7874015748031497
        },
        {
          "duration": 0.4411760000000129,
          "durationTicks": 48,
          "midi": 61,
          "name": "C#4",
          "ticks": 18095,
          "time": 166.31416083333335,
          "velocity": 0.7795275590551181
        },
        {
          "duration": 0.4411760000000129,
          "durationTicks": 48,
          "midi": 65,
          "name": "F4",
          "ticks": 18095,
          "time": 166.31416083333335,
          "velocity": 0.8976377952755905
        },
        {
          "duration": 0.4319848333333596,
          "durationTicks": 47,
          "midi": 68,
          "name": "G#4",
          "ticks": 18096,
          "time": 166.323352,
          "velocity": 0.7637795275590551
        },
        {
          "duration": 0.4319848333333596,
          "durationTicks": 47,
          "midi": 75,
          "name": "D#5",
          "ticks": 18096,
          "time": 166.323352,
          "velocity": 0.905511811023622
        },
        {
          "duration": 0.22058799999999223,
          "durationTicks": 24,
          "midi": 68,
          "name": "G#4",
          "ticks": 18143,
          "time": 166.75533683333336,
          "velocity": 0.8661417322834646
        },
        {
          "duration": 0.22058799999999223,
          "durationTicks": 24,
          "midi": 73,
          "name": "C#5",
          "ticks": 18143,
          "time": 166.75533683333336,
          "velocity": 0.7795275590551181
        },
        {
          "duration": 0.21139683333333892,
          "durationTicks": 23,
          "midi": 77,
          "name": "F5",
          "ticks": 18144,
          "time": 166.764528,
          "velocity": 0.8740157480314961
        },
        {
          "duration": 0.018382333333335055,
          "durationTicks": 2,
          "midi": 68,
          "name": "G#4",
          "ticks": 18167,
          "time": 166.97592483333335,
          "velocity": 0.8976377952755905
        },
        {
          "duration": 0.009191166666681738,
          "durationTicks": 1,
          "midi": 73,
          "name": "C#5",
          "ticks": 18168,
          "time": 166.985116,
          "velocity": 0.8740157480314961
        },
        {
          "duration": 0.009191166666681738,
          "durationTicks": 1,
          "midi": 63,
          "name": "D#4",
          "ticks": 18179,
          "time": 167.08621883333333,
          "velocity": 0.8976377952755905
        },
        {
          "duration": 0.22058799999999223,
          "durationTicks": 24,
          "midi": 54,
          "name": "F#3",
          "ticks": 18191,
          "time": 167.19651283333334,
          "velocity": 0.7874015748031497
        },
        {
          "duration": 0.22058799999999223,
          "durationTicks": 24,
          "midi": 61,
          "name": "C#4",
          "ticks": 18191,
          "time": 167.19651283333334,
          "velocity": 0.8110236220472441
        },
        {
          "duration": 0.21139683333333892,
          "durationTicks": 23,
          "midi": 65,
          "name": "F4",
          "ticks": 18192,
          "time": 167.205704,
          "velocity": 0.84251968503937
        },
        {
          "duration": 0.21139683333333892,
          "durationTicks": 23,
          "midi": 68,
          "name": "G#4",
          "ticks": 18192,
          "time": 167.205704,
          "velocity": 0.8031496062992126
        },
        {
          "duration": 0.21139683333333892,
          "durationTicks": 23,
          "midi": 75,
          "name": "D#5",
          "ticks": 18192,
          "time": 167.205704,
          "velocity": 0.8740157480314961
        },
        {
          "duration": 0.22058800000002066,
          "durationTicks": 24,
          "midi": 65,
          "name": "F4",
          "ticks": 18215,
          "time": 167.41710083333334,
          "velocity": 0.8661417322834646
        },
        {
          "duration": 0.22058800000002066,
          "durationTicks": 24,
          "midi": 68,
          "name": "G#4",
          "ticks": 18215,
          "time": 167.41710083333334,
          "velocity": 0.7637795275590551
        },
        {
          "duration": 0.22058800000002066,
          "durationTicks": 24,
          "midi": 73,
          "name": "C#5",
          "ticks": 18215,
          "time": 167.41710083333334,
          "velocity": 0.7874015748031497
        },
        {
          "duration": 0.21139683333333892,
          "durationTicks": 23,
          "midi": 77,
          "name": "F5",
          "ticks": 18216,
          "time": 167.42629200000002,
          "velocity": 0.8740157480314961
        },
        {
          "duration": 0.018382333333335055,
          "durationTicks": 2,
          "midi": 68,
          "name": "G#4",
          "ticks": 18239,
          "time": 167.63768883333336,
          "velocity": 0.905511811023622
        },
        {
          "duration": 0.009191166666681738,
          "durationTicks": 1,
          "midi": 73,
          "name": "C#5",
          "ticks": 18240,
          "time": 167.64688,
          "velocity": 0.8740157480314961
        },
        {
          "duration": 0.009191166666653316,
          "durationTicks": 1,
          "midi": 66,
          "name": "F#4",
          "ticks": 18251,
          "time": 167.74798283333334,
          "velocity": 0.8976377952755905
        },
        {
          "duration": 0.44117599999998447,
          "durationTicks": 48,
          "midi": 56,
          "name": "G#3",
          "ticks": 18263,
          "time": 167.85827683333335,
          "velocity": 0.7637795275590551
        },
        {
          "duration": 0.44117599999998447,
          "durationTicks": 48,
          "midi": 61,
          "name": "C#4",
          "ticks": 18263,
          "time": 167.85827683333335,
          "velocity": 0.8582677165354331
        },
        {
          "duration": 0.44117599999998447,
          "durationTicks": 48,
          "midi": 65,
          "name": "F4",
          "ticks": 18263,
          "time": 167.85827683333335,
          "velocity": 0.8661417322834646
        },
        {
          "duration": 0.43198483333333115,
          "durationTicks": 47,
          "midi": 68,
          "name": "G#4",
          "ticks": 18264,
          "time": 167.867468,
          "velocity": 0.9212598425196851
        },
        {
          "duration": 0.43198483333333115,
          "durationTicks": 47,
          "midi": 75,
          "name": "D#5",
          "ticks": 18264,
          "time": 167.867468,
          "velocity": 0.84251968503937
        },
        {
          "duration": 0.22058800000002066,
          "durationTicks": 24,
          "midi": 60,
          "name": "C4",
          "ticks": 18311,
          "time": 168.29945283333333,
          "velocity": 0.7401574803149606
        },
        {
          "duration": 0.22058800000002066,
          "durationTicks": 24,
          "midi": 65,
          "name": "F4",
          "ticks": 18311,
          "time": 168.29945283333333,
          "velocity": 0.905511811023622
        },
        {
          "duration": 0.21139683333333892,
          "durationTicks": 23,
          "midi": 68,
          "name": "G#4",
          "ticks": 18312,
          "time": 168.30864400000002,
          "velocity": 0.7637795275590551
        },
        {
          "duration": 0.21139683333333892,
          "durationTicks": 23,
          "midi": 77,
          "name": "F5",
          "ticks": 18312,
          "time": 168.30864400000002,
          "velocity": 0.7952755905511811
        },
        {
          "duration": 0.22058799999999223,
          "durationTicks": 24,
          "midi": 68,
          "name": "G#4",
          "ticks": 18335,
          "time": 168.52004083333335,
          "velocity": 0.8110236220472441
        },
        {
          "duration": 0.22058799999999223,
          "durationTicks": 24,
          "midi": 72,
          "name": "C5",
          "ticks": 18335,
          "time": 168.52004083333335,
          "velocity": 0.7559055118110236
        },
        {
          "duration": 0.21139683333333892,
          "durationTicks": 23,
          "midi": 75,
          "name": "D#5",
          "ticks": 18336,
          "time": 168.529232,
          "velocity": 0.7637795275590551
        },
        {
          "duration": 0.21139683333333892,
          "durationTicks": 23,
          "midi": 80,
          "name": "G#5",
          "ticks": 18336,
          "time": 168.529232,
          "velocity": 0.7401574803149606
        },
        {
          "duration": 0.018382333333335055,
          "durationTicks": 2,
          "midi": 61,
          "name": "C#4",
          "ticks": 18359,
          "time": 168.74062883333335,
          "velocity": 0.9133858267716536
        },
        {
          "duration": 0.009191166666681738,
          "durationTicks": 1,
          "midi": 65,
          "name": "F4",
          "ticks": 18360,
          "time": 168.74982,
          "velocity": 0.7716535433070866
        },
        {
          "duration": 0.1102939999999819,
          "durationTicks": 12,
          "midi": 73,
          "name": "C#5",
          "ticks": 18371,
          "time": 168.85092283333336,
          "velocity": 0.8976377952755905
        },
        {
          "duration": 0.10110283333332859,
          "durationTicks": 11,
          "midi": 65,
          "name": "F4",
          "ticks": 18372,
          "time": 168.860114,
          "velocity": 0.8976377952755905
        },
        {
          "duration": 0.22058800000002066,
          "durationTicks": 24,
          "midi": 56,
          "name": "G#3",
          "ticks": 18383,
          "time": 168.96121683333334,
          "velocity": 0.7637795275590551
        },
        {
          "duration": 0.22058800000002066,
          "durationTicks": 24,
          "midi": 60,
          "name": "C4",
          "ticks": 18383,
          "time": 168.96121683333334,
          "velocity": 0.7401574803149606
        },
        {
          "duration": 0.22058800000002066,
          "durationTicks": 24,
          "midi": 65,
          "name": "F4",
          "ticks": 18383,
          "time": 168.96121683333334,
          "velocity": 0.889763779527559
        },
        {
          "duration": 0.21139683333336734,
          "durationTicks": 23,
          "midi": 68,
          "name": "G#4",
          "ticks": 18384,
          "time": 168.970408,
          "velocity": 0.7952755905511811
        },
        {
          "duration": 0.21139683333336734,
          "durationTicks": 23,
          "midi": 75,
          "name": "D#5",
          "ticks": 18384,
          "time": 168.970408,
          "velocity": 0.8818897637795275
        },
        {
          "duration": 0.21139683333333892,
          "durationTicks": 23,
          "midi": 63,
          "name": "D#4",
          "ticks": 18407,
          "time": 169.18180483333336,
          "velocity": 0.8661417322834646
        },
        {
          "duration": 0.21139683333333892,
          "durationTicks": 23,
          "midi": 68,
          "name": "G#4",
          "ticks": 18407,
          "time": 169.18180483333336,
          "velocity": 0.889763779527559
        },
        {
          "duration": 0.43198483333333115,
          "durationTicks": 47,
          "midi": 72,
          "name": "C5",
          "ticks": 18408,
          "time": 169.190996,
          "velocity": 0.8661417322834646
        },
        {
          "duration": 0.22058799999999223,
          "durationTicks": 24,
          "midi": 68,
          "name": "G#4",
          "ticks": 18431,
          "time": 169.40239283333335,
          "velocity": 0.8110236220472441
        },
        {
          "duration": 0.21139683333333892,
          "durationTicks": 23,
          "midi": 75,
          "name": "D#5",
          "ticks": 18432,
          "time": 169.411584,
          "velocity": 0.8110236220472441
        },
        {
          "duration": 0.21139683333333892,
          "durationTicks": 23,
          "midi": 80,
          "name": "G#5",
          "ticks": 18432,
          "time": 169.411584,
          "velocity": 0.8661417322834646
        },
        {
          "duration": 0.018382333333335055,
          "durationTicks": 2,
          "midi": 61,
          "name": "C#4",
          "ticks": 18455,
          "time": 169.62298083333334,
          "velocity": 0.9133858267716536
        },
        {
          "duration": 0.009191166666681738,
          "durationTicks": 1,
          "midi": 65,
          "name": "F4",
          "ticks": 18456,
          "time": 169.632172,
          "velocity": 0.7716535433070866
        },
        {
          "duration": 0.1102939999999819,
          "durationTicks": 12,
          "midi": 75,
          "name": "D#5",
          "ticks": 18467,
          "time": 169.73327483333335,
          "velocity": 0.8976377952755905
        },
        {
          "duration": 0.10110283333332859,
          "durationTicks": 11,
          "midi": 68,
          "name": "G#4",
          "ticks": 18468,
          "time": 169.742466,
          "velocity": 0.8582677165354331
        },
        {
          "duration": 0.6617640000000051,
          "durationTicks": 72,
          "midi": 56,
          "name": "G#3",
          "ticks": 18479,
          "time": 169.84356883333334,
          "velocity": 0.7952755905511811
        },
        {
          "duration": 0.6617640000000051,
          "durationTicks": 72,
          "midi": 60,
          "name": "C4",
          "ticks": 18479,
          "time": 169.84356883333334,
          "velocity": 0.7952755905511811
        },
        {
          "duration": 0.6617640000000051,
          "durationTicks": 72,
          "midi": 63,
          "name": "D#4",
          "ticks": 18479,
          "time": 169.84356883333334,
          "velocity": 0.905511811023622
        },
        {
          "duration": 0.6525728333333234,
          "durationTicks": 71,
          "midi": 68,
          "name": "G#4",
          "ticks": 18480,
          "time": 169.85276000000002,
          "velocity": 0.8110236220472441
        },
        {
          "duration": 0.6525728333333234,
          "durationTicks": 71,
          "midi": 72,
          "name": "C5",
          "ticks": 18480,
          "time": 169.85276000000002,
          "velocity": 0.8740157480314961
        },
        {
          "duration": 0.018382333333335055,
          "durationTicks": 2,
          "midi": 56,
          "name": "G#3",
          "ticks": 18551,
          "time": 170.50533283333334,
          "velocity": 0.7795275590551181
        },
        {
          "duration": 0.009191166666681738,
          "durationTicks": 1,
          "midi": 63,
          "name": "D#4",
          "ticks": 18552,
          "time": 170.514524,
          "velocity": 0.889763779527559
        },
        {
          "duration": 0.018382333333335055,
          "durationTicks": 2,
          "midi": 63,
          "name": "D#4",
          "ticks": 18563,
          "time": 170.61562683333335,
          "velocity": 0.8976377952755905
        },
        {
          "duration": 0.22058800000002066,
          "durationTicks": 24,
          "midi": 56,
          "name": "G#3",
          "ticks": 18575,
          "time": 170.72592083333333,
          "velocity": 0.7874015748031497
        },
        {
          "duration": 0.22058800000002066,
          "durationTicks": 24,
          "midi": 60,
          "name": "C4",
          "ticks": 18575,
          "time": 170.72592083333333,
          "velocity": 0.7637795275590551
        },
        {
          "duration": 0.22058800000002066,
          "durationTicks": 24,
          "midi": 63,
          "name": "D#4",
          "ticks": 18575,
          "time": 170.72592083333333,
          "velocity": 0.905511811023622
        },
        {
          "duration": 0.21139683333333892,
          "durationTicks": 23,
          "midi": 68,
          "name": "G#4",
          "ticks": 18576,
          "time": 170.73511200000002,
          "velocity": 0.7637795275590551
        },
        {
          "duration": 0.21139683333333892,
          "durationTicks": 23,
          "midi": 72,
          "name": "C5",
          "ticks": 18576,
          "time": 170.73511200000002,
          "velocity": 0.7401574803149606
        },
        {
          "duration": 0.22058799999999223,
          "durationTicks": 24,
          "midi": 56,
          "name": "G#3",
          "ticks": 18599,
          "time": 170.94650883333335,
          "velocity": 0.7322834645669292
        },
        {
          "duration": 0.22058799999999223,
          "durationTicks": 24,
          "midi": 63,
          "name": "D#4",
          "ticks": 18599,
          "time": 170.94650883333335,
          "velocity": 0.905511811023622
        },
        {
          "duration": 0.22058799999999223,
          "durationTicks": 24,
          "midi": 68,
          "name": "G#4",
          "ticks": 18599,
          "time": 170.94650883333335,
          "velocity": 0.7952755905511811
        },
        {
          "duration": 0.21139683333333892,
          "durationTicks": 23,
          "midi": 72,
          "name": "C5",
          "ticks": 18600,
          "time": 170.9557,
          "velocity": 0.7480314960629921
        },
        {
          "duration": 0.018382333333335055,
          "durationTicks": 2,
          "midi": 56,
          "name": "G#3",
          "ticks": 18623,
          "time": 171.16709683333335,
          "velocity": 0.7795275590551181
        },
        {
          "duration": 0.009191166666681738,
          "durationTicks": 1,
          "midi": 63,
          "name": "D#4",
          "ticks": 18624,
          "time": 171.176288,
          "velocity": 0.889763779527559
        },
        {
          "duration": 0.009191166666653316,
          "durationTicks": 1,
          "midi": 65,
          "name": "F4",
          "ticks": 18635,
          "time": 171.27739083333336,
          "velocity": 0.8976377952755905
        },
        {
          "duration": 0.4411760000000129,
          "durationTicks": 48,
          "midi": 63,
          "name": "D#4",
          "ticks": 18647,
          "time": 171.38768483333334,
          "velocity": 0.8740157480314961
        },
        {
          "duration": 0.4411760000000129,
          "durationTicks": 48,
          "midi": 68,
          "name": "G#4",
          "ticks": 18647,
          "time": 171.38768483333334,
          "velocity": 0.889763779527559
        },
        {
          "duration": 0.4411760000000129,
          "durationTicks": 48,
          "midi": 72,
          "name": "C5",
          "ticks": 18647,
          "time": 171.38768483333334,
          "velocity": 0.6141732283464567
        },
        {
          "duration": 0.4319848333333596,
          "durationTicks": 47,
          "midi": 75,
          "name": "D#5",
          "ticks": 18648,
          "time": 171.396876,
          "velocity": 0.8110236220472441
        },
        {
          "duration": 0.22058799999999223,
          "durationTicks": 24,
          "midi": 60,
          "name": "C4",
          "ticks": 18695,
          "time": 171.82886083333335,
          "velocity": 0.6850393700787402
        },
        {
          "duration": 0.22058799999999223,
          "durationTicks": 24,
          "midi": 63,
          "name": "D#4",
          "ticks": 18695,
          "time": 171.82886083333335,
          "velocity": 0.7716535433070866
        },
        {
          "duration": 0.22058799999999223,
          "durationTicks": 24,
          "midi": 68,
          "name": "G#4",
          "ticks": 18695,
          "time": 171.82886083333335,
          "velocity": 0.8110236220472441
        },
        {
          "duration": 0.21139683333333892,
          "durationTicks": 23,
          "midi": 72,
          "name": "C5",
          "ticks": 18696,
          "time": 171.838052,
          "velocity": 0.6771653543307087
        },
        {
          "duration": 0.21139683333333892,
          "durationTicks": 23,
          "midi": 75,
          "name": "D#5",
          "ticks": 18696,
          "time": 171.838052,
          "velocity": 0.8267716535433071
        },
        {
          "duration": 0.018382333333335055,
          "durationTicks": 2,
          "midi": 56,
          "name": "G#3",
          "ticks": 18719,
          "time": 172.04944883333334,
          "velocity": 0.7795275590551181
        },
        {
          "duration": 0.009191166666681738,
          "durationTicks": 1,
          "midi": 63,
          "name": "D#4",
          "ticks": 18720,
          "time": 172.05864,
          "velocity": 0.889763779527559
        },
        {
          "duration": 0.009191166666653316,
          "durationTicks": 1,
          "midi": 68,
          "name": "G#4",
          "ticks": 18731,
          "time": 172.15974283333335,
          "velocity": 0.8976377952755905
        },
        {
          "duration": 0.4411760000000129,
          "durationTicks": 48,
          "midi": 58,
          "name": "A#3",
          "ticks": 18743,
          "time": 172.27003683333334,
          "velocity": 0.8582677165354331
        },
        {
          "duration": 0.4411760000000129,
          "durationTicks": 48,
          "midi": 61,
          "name": "C#4",
          "ticks": 18743,
          "time": 172.27003683333334,
          "velocity": 0.889763779527559
        },
        {
          "duration": 0.4411760000000129,
          "durationTicks": 48,
          "midi": 65,
          "name": "F4",
          "ticks": 18743,
          "time": 172.27003683333334,
          "velocity": 0.7716535433070866
        },
        {
          "duration": 0.43198483333333115,
          "durationTicks": 47,
          "midi": 68,
          "name": "G#4",
          "ticks": 18744,
          "time": 172.27922800000002,
          "velocity": 0.7952755905511811
        },
        {
          "duration": 0.43198483333333115,
          "durationTicks": 47,
          "midi": 73,
          "name": "C#5",
          "ticks": 18744,
          "time": 172.27922800000002,
          "velocity": 0.8110236220472441
        },
        {
          "duration": 0.22058799999999223,
          "durationTicks": 24,
          "midi": 58,
          "name": "A#3",
          "ticks": 18791,
          "time": 172.71121283333335,
          "velocity": 0.7874015748031497
        },
        {
          "duration": 0.22058799999999223,
          "durationTicks": 24,
          "midi": 61,
          "name": "C#4",
          "ticks": 18791,
          "time": 172.71121283333335,
          "velocity": 0.7637795275590551
        },
        {
          "duration": 0.22058799999999223,
          "durationTicks": 24,
          "midi": 65,
          "name": "F4",
          "ticks": 18791,
          "time": 172.71121283333335,
          "velocity": 0.7952755905511811
        },
        {
          "duration": 0.21139683333333892,
          "durationTicks": 23,
          "midi": 68,
          "name": "G#4",
          "ticks": 18792,
          "time": 172.720404,
          "velocity": 0.7716535433070866
        },
        {
          "duration": 0.21139683333333892,
          "durationTicks": 23,
          "midi": 73,
          "name": "C#5",
          "ticks": 18792,
          "time": 172.720404,
          "velocity": 0.905511811023622
        },
        {
          "duration": 0.11029400000001033,
          "durationTicks": 12,
          "midi": 61,
          "name": "C#4",
          "ticks": 18815,
          "time": 172.93180083333334,
          "velocity": 0.84251968503937
        },
        {
          "duration": 0.11029400000001033,
          "durationTicks": 12,
          "midi": 73,
          "name": "C#5",
          "ticks": 18815,
          "time": 172.93180083333334,
          "velocity": 0.889763779527559
        },
        {
          "duration": 0.009191166666653316,
          "durationTicks": 1,
          "midi": 73,
          "name": "C#5",
          "ticks": 18827,
          "time": 173.04209483333335,
          "velocity": 0.8976377952755905
        },
        {
          "duration": 0.19301450000000386,
          "durationTicks": 21,
          "midi": 54,
          "name": "F#3",
          "ticks": 18839,
          "time": 173.15238883333333,
          "velocity": 0.8976377952755905
        },
        {
          "duration": 0.44117599999998447,
          "durationTicks": 48,
          "midi": 54,
          "name": "F#3",
          "ticks": 18863,
          "time": 173.37297683333335,
          "velocity": 0.7874015748031497
        },
        {
          "duration": 0.44117599999998447,
          "durationTicks": 48,
          "midi": 61,
          "name": "C#4",
          "ticks": 18863,
          "time": 173.37297683333335,
          "velocity": 0.7795275590551181
        },
        {
          "duration": 0.44117599999998447,
          "durationTicks": 48,
          "midi": 65,
          "name": "F4",
          "ticks": 18863,
          "time": 173.37297683333335,
          "velocity": 0.8346456692913385
        },
        {
          "duration": 0.43198483333333115,
          "durationTicks": 47,
          "midi": 68,
          "name": "G#4",
          "ticks": 18864,
          "time": 173.382168,
          "velocity": 0.7637795275590551
        },
        {
          "duration": 0.43198483333333115,
          "durationTicks": 47,
          "midi": 73,
          "name": "C#5",
          "ticks": 18864,
          "time": 173.382168,
          "velocity": 0.8031496062992126
        },
        {
          "duration": 0.018382333333363476,
          "durationTicks": 2,
          "midi": 65,
          "name": "F4",
          "ticks": 18911,
          "time": 173.81415283333334,
          "velocity": 0.8976377952755905
        },
        {
          "duration": 0.00919116666671016,
          "durationTicks": 1,
          "midi": 68,
          "name": "G#4",
          "ticks": 18912,
          "time": 173.823344,
          "velocity": 0.8740157480314961
        },
        {
          "duration": 0.11029400000001033,
          "durationTicks": 12,
          "midi": 72,
          "name": "C5",
          "ticks": 18923,
          "time": 173.92444683333335,
          "velocity": 0.8188976377952756
        },
        {
          "duration": 0.44117599999998447,
          "durationTicks": 48,
          "midi": 61,
          "name": "C#4",
          "ticks": 18935,
          "time": 174.03474083333336,
          "velocity": 0.8582677165354331
        },
        {
          "duration": 0.43198483333333115,
          "durationTicks": 47,
          "midi": 73,
          "name": "C#5",
          "ticks": 18936,
          "time": 174.043932,
          "velocity": 0.9133858267716536
        },
        {
          "duration": 0.22058799999999223,
          "durationTicks": 24,
          "midi": 54,
          "name": "F#3",
          "ticks": 18959,
          "time": 174.25532883333335,
          "velocity": 0.7874015748031497
        },
        {
          "duration": 0.22058799999999223,
          "durationTicks": 24,
          "midi": 54,
          "name": "F#3",
          "ticks": 18983,
          "time": 174.47591683333334,
          "velocity": 0.8661417322834646
        },
        {
          "duration": 0.22058799999999223,
          "durationTicks": 24,
          "midi": 61,
          "name": "C#4",
          "ticks": 18983,
          "time": 174.47591683333334,
          "velocity": 0.7637795275590551
        },
        {
          "duration": 0.22058799999999223,
          "durationTicks": 24,
          "midi": 65,
          "name": "F4",
          "ticks": 18983,
          "time": 174.47591683333334,
          "velocity": 0.7874015748031497
        },
        {
          "duration": 0.21139683333333892,
          "durationTicks": 23,
          "midi": 68,
          "name": "G#4",
          "ticks": 18984,
          "time": 174.485108,
          "velocity": 0.8740157480314961
        },
        {
          "duration": 0.11029400000001033,
          "durationTicks": 12,
          "midi": 65,
          "name": "F4",
          "ticks": 19007,
          "time": 174.69650483333334,
          "velocity": 0.7480314960629921
        },
        {
          "duration": 0.11029400000001033,
          "durationTicks": 12,
          "midi": 70,
          "name": "A#4",
          "ticks": 19007,
          "time": 174.69650483333334,
          "velocity": 0.905511811023622
        },
        {
          "duration": 0.10110283333332859,
          "durationTicks": 11,
          "midi": 73,
          "name": "C#5",
          "ticks": 19008,
          "time": 174.70569600000002,
          "velocity": 0.8740157480314961
        },
        {
          "duration": 0.009191166666653316,
          "durationTicks": 1,
          "midi": 66,
          "name": "F#4",
          "ticks": 19019,
          "time": 174.80679883333335,
          "velocity": 0.8976377952755905
        },
        {
          "duration": 0.018382333333335055,
          "durationTicks": 2,
          "midi": 65,
          "name": "F4",
          "ticks": 19031,
          "time": 174.91709283333336,
          "velocity": 0.8976377952755905
        },
        {
          "duration": 0.009191166666681738,
          "durationTicks": 1,
          "midi": 68,
          "name": "G#4",
          "ticks": 19032,
          "time": 174.926284,
          "velocity": 0.8740157480314961
        },
        {
          "duration": 0.11029400000001033,
          "durationTicks": 12,
          "midi": 57,
          "name": "A3",
          "ticks": 19043,
          "time": 175.02738683333334,
          "velocity": 0.7874015748031497
        },
        {
          "duration": 0.10110283333335701,
          "durationTicks": 11,
          "midi": 69,
          "name": "A4",
          "ticks": 19044,
          "time": 175.036578,
          "velocity": 0.84251968503937
        },
        {
          "duration": 0.44117599999998447,
          "durationTicks": 48,
          "midi": 53,
          "name": "F3",
          "ticks": 19055,
          "time": 175.13768083333335,
          "velocity": 0.7874015748031497
        },
        {
          "duration": 0.44117599999998447,
          "durationTicks": 48,
          "midi": 60,
          "name": "C4",
          "ticks": 19055,
          "time": 175.13768083333335,
          "velocity": 0.7795275590551181
        },
        {
          "duration": 0.44117599999998447,
          "durationTicks": 48,
          "midi": 63,
          "name": "D#4",
          "ticks": 19055,
          "time": 175.13768083333335,
          "velocity": 0.8976377952755905
        },
        {
          "duration": 0.43198483333333115,
          "durationTicks": 47,
          "midi": 69,
          "name": "A4",
          "ticks": 19056,
          "time": 175.146872,
          "velocity": 0.7637795275590551
        },
        {
          "duration": 0.43198483333333115,
          "durationTicks": 47,
          "midi": 77,
          "name": "F5",
          "ticks": 19056,
          "time": 175.146872,
          "velocity": 0.8267716535433071
        },
        {
          "duration": 0.018382333333363476,
          "durationTicks": 2,
          "midi": 63,
          "name": "D#4",
          "ticks": 19103,
          "time": 175.57885683333333,
          "velocity": 0.8976377952755905
        },
        {
          "duration": 0.009191166666681738,
          "durationTicks": 1,
          "midi": 69,
          "name": "A4",
          "ticks": 19104,
          "time": 175.58804800000001,
          "velocity": 0.8740157480314961
        },
        {
          "duration": 0.009191166666653316,
          "durationTicks": 1,
          "midi": 72,
          "name": "C5",
          "ticks": 19115,
          "time": 175.68915083333334,
          "velocity": 0.8976377952755905
        },
        {
          "duration": 0.4136024999999961,
          "durationTicks": 45,
          "midi": 63,
          "name": "D#4",
          "ticks": 19127,
          "time": 175.79944483333335,
          "velocity": 0.84251968503937
        },
        {
          "duration": 0.4136024999999961,
          "durationTicks": 45,
          "midi": 69,
          "name": "A4",
          "ticks": 19127,
          "time": 175.79944483333335,
          "velocity": 0.8661417322834646
        },
        {
          "duration": 0.4044113333333428,
          "durationTicks": 44,
          "midi": 72,
          "name": "C5",
          "ticks": 19128,
          "time": 175.808636,
          "velocity": 0.7795275590551181
        },
        {
          "duration": 0.4044113333333428,
          "durationTicks": 44,
          "midi": 75,
          "name": "D#5",
          "ticks": 19128,
          "time": 175.808636,
          "velocity": 0.9212598425196851
        },
        {
          "duration": 0.4411760000000129,
          "durationTicks": 48,
          "midi": 60,
          "name": "C4",
          "ticks": 19175,
          "time": 176.24062083333334,
          "velocity": 0.8818897637795275
        },
        {
          "duration": 0.4411760000000129,
          "durationTicks": 48,
          "midi": 66,
          "name": "F#4",
          "ticks": 19175,
          "time": 176.24062083333334,
          "velocity": 0.7637795275590551
        },
        {
          "duration": 0.4411760000000129,
          "durationTicks": 48,
          "midi": 69,
          "name": "A4",
          "ticks": 19175,
          "time": 176.24062083333334,
          "velocity": 0.7795275590551181
        },
        {
          "duration": 0.4319848333333596,
          "durationTicks": 47,
          "midi": 72,
          "name": "C5",
          "ticks": 19176,
          "time": 176.249812,
          "velocity": 0.8740157480314961
        },
        {
          "duration": 0.009191166666653316,
          "durationTicks": 1,
          "midi": 60,
          "name": "C4",
          "ticks": 19223,
          "time": 176.68179683333335,
          "velocity": 0.8740157480314961
        },
        {
          "duration": 0.009191166666653316,
          "durationTicks": 1,
          "midi": 65,
          "name": "F4",
          "ticks": 19223,
          "time": 176.68179683333335,
          "velocity": 0.7952755905511811
        },
        {
          "duration": 0.018382333333335055,
          "durationTicks": 2,
          "midi": 69,
          "name": "A4",
          "ticks": 19224,
          "time": 176.690988,
          "velocity": 0.905511811023622
        },
        {
          "duration": 0.07352933333336864,
          "durationTicks": 8,
          "midi": 75,
          "name": "D#5",
          "ticks": 19235,
          "time": 176.79209083333333,
          "velocity": 0.8976377952755905
        },
        {
          "duration": 0.22058799999999223,
          "durationTicks": 24,
          "midi": 58,
          "name": "A#3",
          "ticks": 19247,
          "time": 176.90238483333334,
          "velocity": 0.8110236220472441
        },
        {
          "duration": 0.22058799999999223,
          "durationTicks": 24,
          "midi": 63,
          "name": "D#4",
          "ticks": 19247,
          "time": 176.90238483333334,
          "velocity": 0.8740157480314961
        },
        {
          "duration": 0.22058799999999223,
          "durationTicks": 24,
          "midi": 68,
          "name": "G#4",
          "ticks": 19247,
          "time": 176.90238483333334,
          "velocity": 0.8661417322834646
        },
        {
          "duration": 0.21139683333333892,
          "durationTicks": 23,
          "midi": 73,
          "name": "C#5",
          "ticks": 19248,
          "time": 176.911576,
          "velocity": 0.8267716535433071
        },
        {
          "duration": 0.21139683333333892,
          "durationTicks": 23,
          "midi": 75,
          "name": "D#5",
          "ticks": 19248,
          "time": 176.911576,
          "velocity": 0.9133858267716536
        },
        {
          "duration": 0.03676466666667011,
          "durationTicks": 4,
          "midi": 58,
          "name": "A#3",
          "ticks": 19271,
          "time": 177.12297283333334,
          "velocity": 0.8031496062992126
        },
        {
          "duration": 0.02757349999998837,
          "durationTicks": 3,
          "midi": 63,
          "name": "D#4",
          "ticks": 19272,
          "time": 177.13216400000002,
          "velocity": 0.9133858267716536
        },
        {
          "duration": 0.11029400000001033,
          "durationTicks": 12,
          "midi": 75,
          "name": "D#5",
          "ticks": 19283,
          "time": 177.23326683333335,
          "velocity": 0.9133858267716536
        },
        {
          "duration": 0.11029400000001033,
          "durationTicks": 12,
          "midi": 73,
          "name": "C#5",
          "ticks": 19283,
          "time": 177.23326683333335,
          "velocity": 0.8661417322834646
        },
        {
          "duration": 0.10110283333335701,
          "durationTicks": 11,
          "midi": 68,
          "name": "G#4",
          "ticks": 19284,
          "time": 177.242458,
          "velocity": 0.8661417322834646
        },
        {
          "duration": 0.10110283333335701,
          "durationTicks": 11,
          "midi": 63,
          "name": "D#4",
          "ticks": 19284,
          "time": 177.242458,
          "velocity": 0.8740157480314961
        },
        {
          "duration": 0.02757349999998837,
          "durationTicks": 3,
          "midi": 63,
          "name": "D#4",
          "ticks": 19295,
          "time": 177.34356083333336,
          "velocity": 0.905511811023622
        },
        {
          "duration": 0.02757349999998837,
          "durationTicks": 3,
          "midi": 68,
          "name": "G#4",
          "ticks": 19296,
          "time": 177.352752,
          "velocity": 0.8031496062992126
        },
        {
          "duration": 0.018382333333363476,
          "durationTicks": 2,
          "midi": 63,
          "name": "D#4",
          "ticks": 19307,
          "time": 177.45385483333334,
          "velocity": 0.9133858267716536
        },
        {
          "duration": 0.22058799999999223,
          "durationTicks": 24,
          "midi": 63,
          "name": "D#4",
          "ticks": 19319,
          "time": 177.56414883333335,
          "velocity": 0.8740157480314961
        },
        {
          "duration": 0.22058799999999223,
          "durationTicks": 24,
          "midi": 68,
          "name": "G#4",
          "ticks": 19319,
          "time": 177.56414883333335,
          "velocity": 0.8661417322834646
        },
        {
          "duration": 0.21139683333333892,
          "durationTicks": 23,
          "midi": 73,
          "name": "C#5",
          "ticks": 19320,
          "time": 177.57334,
          "velocity": 0.8267716535433071
        },
        {
          "duration": 0.21139683333333892,
          "durationTicks": 23,
          "midi": 75,
          "name": "D#5",
          "ticks": 19320,
          "time": 177.57334,
          "velocity": 0.9133858267716536
        },
        {
          "duration": 0.027573500000016793,
          "durationTicks": 3,
          "midi": 58,
          "name": "A#3",
          "ticks": 19343,
          "time": 177.78473683333334,
          "velocity": 0.8031496062992126
        },
        {
          "duration": 0.027573500000016793,
          "durationTicks": 3,
          "midi": 63,
          "name": "D#4",
          "ticks": 19344,
          "time": 177.793928,
          "velocity": 0.9133858267716536
        },
        {
          "duration": 0.1102939999999819,
          "durationTicks": 12,
          "midi": 75,
          "name": "D#5",
          "ticks": 19355,
          "time": 177.89503083333335,
          "velocity": 0.9133858267716536
        },
        {
          "duration": 0.1102939999999819,
          "durationTicks": 12,
          "midi": 72,
          "name": "C5",
          "ticks": 19355,
          "time": 177.89503083333335,
          "velocity": 0.8661417322834646
        },
        {
          "duration": 0.10110283333332859,
          "durationTicks": 11,
          "midi": 68,
          "name": "G#4",
          "ticks": 19356,
          "time": 177.904222,
          "velocity": 0.8661417322834646
        },
        {
          "duration": 0.10110283333332859,
          "durationTicks": 11,
          "midi": 63,
          "name": "D#4",
          "ticks": 19356,
          "time": 177.904222,
          "velocity": 0.8740157480314961
        },
        {
          "duration": 0.027573500000016793,
          "durationTicks": 3,
          "midi": 63,
          "name": "D#4",
          "ticks": 19367,
          "time": 178.00532483333333,
          "velocity": 0.905511811023622
        },
        {
          "duration": 0.018382333333335055,
          "durationTicks": 2,
          "midi": 68,
          "name": "G#4",
          "ticks": 19368,
          "time": 178.01451600000001,
          "velocity": 0.8031496062992126
        },
        {
          "duration": 0.018382333333335055,
          "durationTicks": 2,
          "midi": 63,
          "name": "D#4",
          "ticks": 19379,
          "time": 178.11561883333334,
          "velocity": 0.9133858267716536
        },
        {
          "duration": 0.22058799999999223,
          "durationTicks": 24,
          "midi": 63,
          "name": "D#4",
          "ticks": 19391,
          "time": 178.22591283333335,
          "velocity": 0.8740157480314961
        },
        {
          "duration": 0.22058799999999223,
          "durationTicks": 24,
          "midi": 68,
          "name": "G#4",
          "ticks": 19391,
          "time": 178.22591283333335,
          "velocity": 0.8661417322834646
        },
        {
          "duration": 0.21139683333333892,
          "durationTicks": 23,
          "midi": 72,
          "name": "C5",
          "ticks": 19392,
          "time": 178.235104,
          "velocity": 0.8267716535433071
        },
        {
          "duration": 0.21139683333333892,
          "durationTicks": 23,
          "midi": 75,
          "name": "D#5",
          "ticks": 19392,
          "time": 178.235104,
          "velocity": 0.9133858267716536
        },
        {
          "duration": 0.02757349999998837,
          "durationTicks": 3,
          "midi": 63,
          "name": "D#4",
          "ticks": 19415,
          "time": 178.44650083333335,
          "velocity": 0.905511811023622
        },
        {
          "duration": 0.018382333333335055,
          "durationTicks": 2,
          "midi": 68,
          "name": "G#4",
          "ticks": 19416,
          "time": 178.455692,
          "velocity": 0.8031496062992126
        },
        {
          "duration": 0.018382333333335055,
          "durationTicks": 2,
          "midi": 63,
          "name": "D#4",
          "ticks": 19427,
          "time": 178.55679483333336,
          "velocity": 0.9133858267716536
        },
        {
          "duration": 0.22058800000002066,
          "durationTicks": 24,
          "midi": 61,
          "name": "C#4",
          "ticks": 19439,
          "time": 178.66708883333334,
          "velocity": 0.8740157480314961
        },
        {
          "duration": 0.22058800000002066,
          "durationTicks": 24,
          "midi": 65,
          "name": "F4",
          "ticks": 19439,
          "time": 178.66708883333334,
          "velocity": 0.8661417322834646
        },
        {
          "duration": 0.21139683333336734,
          "durationTicks": 23,
          "midi": 68,
          "name": "G#4",
          "ticks": 19440,
          "time": 178.67628,
          "velocity": 0.8267716535433071
        },
        {
          "duration": 0.21139683333336734,
          "durationTicks": 23,
          "midi": 73,
          "name": "C#5",
          "ticks": 19440,
          "time": 178.67628,
          "velocity": 0.9133858267716536
        },
        {
          "duration": 0.02757349999998837,
          "durationTicks": 3,
          "midi": 61,
          "name": "C#4",
          "ticks": 19463,
          "time": 178.88767683333336,
          "velocity": 0.8031496062992126
        },
        {
          "duration": 0.018382333333335055,
          "durationTicks": 2,
          "midi": 65,
          "name": "F4",
          "ticks": 19464,
          "time": 178.896868,
          "velocity": 0.9133858267716536
        },
        {
          "duration": 0.11029400000001033,
          "durationTicks": 12,
          "midi": 73,
          "name": "C#5",
          "ticks": 19475,
          "time": 178.99797083333334,
          "velocity": 0.8188976377952756
        },
        {
          "duration": 0.11029400000001033,
          "durationTicks": 12,
          "midi": 68,
          "name": "G#4",
          "ticks": 19475,
          "time": 178.99797083333334,
          "velocity": 0.905511811023622
        },
        {
          "duration": 0.10110283333335701,
          "durationTicks": 11,
          "midi": 65,
          "name": "F4",
          "ticks": 19476,
          "time": 179.007162,
          "velocity": 0.84251968503937
        },
        {
          "duration": 0.10110283333335701,
          "durationTicks": 11,
          "midi": 61,
          "name": "C#4",
          "ticks": 19476,
          "time": 179.007162,
          "velocity": 0.8503937007874016
        },
        {
          "duration": 0.02757349999998837,
          "durationTicks": 3,
          "midi": 65,
          "name": "F4",
          "ticks": 19487,
          "time": 179.10826483333335,
          "velocity": 0.905511811023622
        },
        {
          "duration": 0.018382333333335055,
          "durationTicks": 2,
          "midi": 68,
          "name": "G#4",
          "ticks": 19488,
          "time": 179.117456,
          "velocity": 0.8031496062992126
        },
        {
          "duration": 0.018382333333363476,
          "durationTicks": 2,
          "midi": 72,
          "name": "C5",
          "ticks": 19499,
          "time": 179.21855883333333,
          "velocity": 0.9133858267716536
        },
        {
          "duration": 0.22058799999999223,
          "durationTicks": 24,
          "midi": 61,
          "name": "C#4",
          "ticks": 19511,
          "time": 179.32885283333334,
          "velocity": 0.8740157480314961
        },
        {
          "duration": 0.22058799999999223,
          "durationTicks": 24,
          "midi": 65,
          "name": "F4",
          "ticks": 19511,
          "time": 179.32885283333334,
          "velocity": 0.8661417322834646
        },
        {
          "duration": 0.21139683333333892,
          "durationTicks": 23,
          "midi": 68,
          "name": "G#4",
          "ticks": 19512,
          "time": 179.338044,
          "velocity": 0.8740157480314961
        },
        {
          "duration": 0.21139683333333892,
          "durationTicks": 23,
          "midi": 72,
          "name": "C5",
          "ticks": 19512,
          "time": 179.338044,
          "velocity": 0.937007874015748
        },
        {
          "duration": 0.027573500000016793,
          "durationTicks": 3,
          "midi": 68,
          "name": "G#4",
          "ticks": 19535,
          "time": 179.54944083333334,
          "velocity": 0.905511811023622
        },
        {
          "duration": 0.018382333333335055,
          "durationTicks": 2,
          "midi": 65,
          "name": "F4",
          "ticks": 19536,
          "time": 179.55863200000002,
          "velocity": 0.8031496062992126
        },
        {
          "duration": 0.11029400000001033,
          "durationTicks": 12,
          "midi": 68,
          "name": "G#4",
          "ticks": 19547,
          "time": 179.65973483333335,
          "velocity": 0.905511811023622
        },
        {
          "duration": 0.10110283333332859,
          "durationTicks": 11,
          "midi": 65,
          "name": "F4",
          "ticks": 19547,
          "time": 179.65973483333335,
          "velocity": 0.8740157480314961
        },
        {
          "duration": 0.10110283333335701,
          "durationTicks": 11,
          "midi": 61,
          "name": "C#4",
          "ticks": 19548,
          "time": 179.668926,
          "velocity": 0.8818897637795275
        },
        {
          "duration": 0.10110283333335701,
          "durationTicks": 11,
          "midi": 56,
          "name": "G#3",
          "ticks": 19548,
          "time": 179.668926,
          "velocity": 0.8346456692913385
        },
        {
          "duration": 0.018382333333335055,
          "durationTicks": 2,
          "midi": 61,
          "name": "C#4",
          "ticks": 19559,
          "time": 179.77002883333336,
          "velocity": 0.905511811023622
        },
        {
          "duration": 0.009191166666681738,
          "durationTicks": 1,
          "midi": 65,
          "name": "F4",
          "ticks": 19560,
          "time": 179.77922,
          "velocity": 0.8031496062992126
        },
        {
          "duration": 0.018382333333363476,
          "durationTicks": 2,
          "midi": 68,
          "name": "G#4",
          "ticks": 19571,
          "time": 179.88032283333334,
          "velocity": 0.9133858267716536
        },
        {
          "duration": 0.22058799999999223,
          "durationTicks": 24,
          "midi": 56,
          "name": "G#3",
          "ticks": 19583,
          "time": 179.99061683333335,
          "velocity": 0.8740157480314961
        },
        {
          "duration": 0.22058799999999223,
          "durationTicks": 24,
          "midi": 61,
          "name": "C#4",
          "ticks": 19583,
          "time": 179.99061683333335,
          "velocity": 0.8582677165354331
        },
        {
          "duration": 0.21139683333333892,
          "durationTicks": 23,
          "midi": 65,
          "name": "F4",
          "ticks": 19584,
          "time": 179.999808,
          "velocity": 0.8661417322834646
        },
        {
          "duration": 0.21139683333333892,
          "durationTicks": 23,
          "midi": 68,
          "name": "G#4",
          "ticks": 19584,
          "time": 179.999808,
          "velocity": 0.905511811023622
        },
        {
          "duration": 0.018382333333335055,
          "durationTicks": 2,
          "midi": 61,
          "name": "C#4",
          "ticks": 19607,
          "time": 180.21120483333334,
          "velocity": 0.905511811023622
        },
        {
          "duration": 0.009191166666653316,
          "durationTicks": 1,
          "midi": 65,
          "name": "F4",
          "ticks": 19607,
          "time": 180.21120483333334,
          "velocity": 0.8031496062992126
        },
        {
          "duration": 0.009191166666681738,
          "durationTicks": 1,
          "midi": 68,
          "name": "G#4",
          "ticks": 19608,
          "time": 180.220396,
          "velocity": 0.8031496062992126
        },
        {
          "duration": 0.10110283333332859,
          "durationTicks": 11,
          "midi": 68,
          "name": "G#4",
          "ticks": 19619,
          "time": 180.32149883333335,
          "velocity": 0.9133858267716536
        },
        {
          "duration": 0.09191166666667527,
          "durationTicks": 10,
          "midi": 65,
          "name": "F4",
          "ticks": 19620,
          "time": 180.33069,
          "velocity": 0.8740157480314961
        },
        {
          "duration": 0.4411760000000129,
          "durationTicks": 48,
          "midi": 54,
          "name": "F#3",
          "ticks": 19631,
          "time": 180.43179283333333,
          "velocity": 0.7874015748031497
        },
        {
          "duration": 0.4411760000000129,
          "durationTicks": 48,
          "midi": 61,
          "name": "C#4",
          "ticks": 19631,
          "time": 180.43179283333333,
          "velocity": 0.7795275590551181
        },
        {
          "duration": 0.4411760000000129,
          "durationTicks": 48,
          "midi": 65,
          "name": "F4",
          "ticks": 19631,
          "time": 180.43179283333333,
          "velocity": 0.8976377952755905
        },
        {
          "duration": 0.43198483333333115,
          "durationTicks": 47,
          "midi": 68,
          "name": "G#4",
          "ticks": 19632,
          "time": 180.44098400000001,
          "velocity": 0.8110236220472441
        },
        {
          "duration": 0.43198483333333115,
          "durationTicks": 47,
          "midi": 75,
          "name": "D#5",
          "ticks": 19632,
          "time": 180.44098400000001,
          "velocity": 0.9133858267716536
        },
        {
          "duration": 0.22058799999999223,
          "durationTicks": 24,
          "midi": 68,
          "name": "G#4",
          "ticks": 19679,
          "time": 180.87296883333335,
          "velocity": 0.8661417322834646
        },
        {
          "duration": 0.22058799999999223,
          "durationTicks": 24,
          "midi": 73,
          "name": "C#5",
          "ticks": 19679,
          "time": 180.87296883333335,
          "velocity": 0.7795275590551181
        },
        {
          "duration": 0.21139683333333892,
          "durationTicks": 23,
          "midi": 77,
          "name": "F5",
          "ticks": 19680,
          "time": 180.88216,
          "velocity": 0.8740157480314961
        },
        {
          "duration": 0.018382333333363476,
          "durationTicks": 2,
          "midi": 68,
          "name": "G#4",
          "ticks": 19703,
          "time": 181.09355683333334,
          "velocity": 0.8976377952755905
        },
        {
          "duration": 0.00919116666671016,
          "durationTicks": 1,
          "midi": 73,
          "name": "C#5",
          "ticks": 19704,
          "time": 181.102748,
          "velocity": 0.8740157480314961
        },
        {
          "duration": 0.009191166666653316,
          "durationTicks": 1,
          "midi": 63,
          "name": "D#4",
          "ticks": 19715,
          "time": 181.20385083333335,
          "velocity": 0.8976377952755905
        },
        {
          "duration": 0.22058799999999223,
          "durationTicks": 24,
          "midi": 54,
          "name": "F#3",
          "ticks": 19727,
          "time": 181.31414483333336,
          "velocity": 0.7874015748031497
        },
        {
          "duration": 0.22058799999999223,
          "durationTicks": 24,
          "midi": 61,
          "name": "C#4",
          "ticks": 19727,
          "time": 181.31414483333336,
          "velocity": 0.8110236220472441
        },
        {
          "duration": 0.21139683333333892,
          "durationTicks": 23,
          "midi": 65,
          "name": "F4",
          "ticks": 19728,
          "time": 181.323336,
          "velocity": 0.8110236220472441
        },
        {
          "duration": 0.21139683333333892,
          "durationTicks": 23,
          "midi": 68,
          "name": "G#4",
          "ticks": 19728,
          "time": 181.323336,
          "velocity": 0.8740157480314961
        },
        {
          "duration": 0.21139683333333892,
          "durationTicks": 23,
          "midi": 75,
          "name": "D#5",
          "ticks": 19728,
          "time": 181.323336,
          "velocity": 0.905511811023622
        },
        {
          "duration": 0.22058799999999223,
          "durationTicks": 24,
          "midi": 65,
          "name": "F4",
          "ticks": 19751,
          "time": 181.53473283333335,
          "velocity": 0.9133858267716536
        },
        {
          "duration": 0.22058799999999223,
          "durationTicks": 24,
          "midi": 68,
          "name": "G#4",
          "ticks": 19751,
          "time": 181.53473283333335,
          "velocity": 0.7637795275590551
        },
        {
          "duration": 0.22058799999999223,
          "durationTicks": 24,
          "midi": 73,
          "name": "C#5",
          "ticks": 19751,
          "time": 181.53473283333335,
          "velocity": 0.7874015748031497
        },
        {
          "duration": 0.21139683333333892,
          "durationTicks": 23,
          "midi": 77,
          "name": "F5",
          "ticks": 19752,
          "time": 181.543924,
          "velocity": 0.8740157480314961
        },
        {
          "duration": 0.018382333333335055,
          "durationTicks": 2,
          "midi": 68,
          "name": "G#4",
          "ticks": 19775,
          "time": 181.75532083333334,
          "velocity": 0.905511811023622
        },
        {
          "duration": 0.009191166666681738,
          "durationTicks": 1,
          "midi": 73,
          "name": "C#5",
          "ticks": 19776,
          "time": 181.764512,
          "velocity": 0.8740157480314961
        },
        {
          "duration": 0.009191166666653316,
          "durationTicks": 1,
          "midi": 66,
          "name": "F#4",
          "ticks": 19787,
          "time": 181.86561483333335,
          "velocity": 0.8976377952755905
        },
        {
          "duration": 0.4411760000000129,
          "durationTicks": 48,
          "midi": 61,
          "name": "C#4",
          "ticks": 19799,
          "time": 181.97590883333334,
          "velocity": 0.8582677165354331
        },
        {
          "duration": 0.4411760000000129,
          "durationTicks": 48,
          "midi": 65,
          "name": "F4",
          "ticks": 19799,
          "time": 181.97590883333334,
          "velocity": 0.8976377952755905
        },
        {
          "duration": 0.43198483333333115,
          "durationTicks": 47,
          "midi": 68,
          "name": "G#4",
          "ticks": 19800,
          "time": 181.98510000000002,
          "velocity": 0.7637795275590551
        },
        {
          "duration": 0.43198483333333115,
          "durationTicks": 47,
          "midi": 75,
          "name": "D#5",
          "ticks": 19800,
          "time": 181.98510000000002,
          "velocity": 0.7795275590551181
        },
        {
          "duration": 0.22058799999999223,
          "durationTicks": 24,
          "midi": 60,
          "name": "C4",
          "ticks": 19847,
          "time": 182.41708483333335,
          "velocity": 0.7401574803149606
        },
        {
          "duration": 0.22058799999999223,
          "durationTicks": 24,
          "midi": 65,
          "name": "F4",
          "ticks": 19847,
          "time": 182.41708483333335,
          "velocity": 0.8976377952755905
        },
        {
          "duration": 0.21139683333333892,
          "durationTicks": 23,
          "midi": 68,
          "name": "G#4",
          "ticks": 19848,
          "time": 182.426276,
          "velocity": 0.7637795275590551
        },
        {
          "duration": 0.21139683333333892,
          "durationTicks": 23,
          "midi": 77,
          "name": "F5",
          "ticks": 19848,
          "time": 182.426276,
          "velocity": 0.8740157480314961
        },
        {
          "duration": 0.22058799999999223,
          "durationTicks": 24,
          "midi": 68,
          "name": "G#4",
          "ticks": 19871,
          "time": 182.63767283333334,
          "velocity": 0.8110236220472441
        },
        {
          "duration": 0.22058799999999223,
          "durationTicks": 24,
          "midi": 72,
          "name": "C5",
          "ticks": 19871,
          "time": 182.63767283333334,
          "velocity": 0.7559055118110236
        },
        {
          "duration": 0.21139683333333892,
          "durationTicks": 23,
          "midi": 75,
          "name": "D#5",
          "ticks": 19872,
          "time": 182.646864,
          "velocity": 0.7637795275590551
        },
        {
          "duration": 0.21139683333333892,
          "durationTicks": 23,
          "midi": 80,
          "name": "G#5",
          "ticks": 19872,
          "time": 182.646864,
          "velocity": 0.7401574803149606
        },
        {
          "duration": 0.018382333333363476,
          "durationTicks": 2,
          "midi": 61,
          "name": "C#4",
          "ticks": 19895,
          "time": 182.85826083333333,
          "velocity": 0.9133858267716536
        },
        {
          "duration": 0.009191166666681738,
          "durationTicks": 1,
          "midi": 65,
          "name": "F4",
          "ticks": 19896,
          "time": 182.86745200000001,
          "velocity": 0.7716535433070866
        },
        {
          "duration": 0.009191166666653316,
          "durationTicks": 1,
          "midi": 61,
          "name": "C#4",
          "ticks": 19907,
          "time": 182.96855483333334,
          "velocity": 0.8976377952755905
        },
        {
          "duration": 0.22058799999999223,
          "durationTicks": 24,
          "midi": 56,
          "name": "G#3",
          "ticks": 19919,
          "time": 183.07884883333335,
          "velocity": 0.7637795275590551
        },
        {
          "duration": 0.22058799999999223,
          "durationTicks": 24,
          "midi": 60,
          "name": "C4",
          "ticks": 19919,
          "time": 183.07884883333335,
          "velocity": 0.7401574803149606
        },
        {
          "duration": 0.22058799999999223,
          "durationTicks": 24,
          "midi": 65,
          "name": "F4",
          "ticks": 19919,
          "time": 183.07884883333335,
          "velocity": 0.8267716535433071
        },
        {
          "duration": 0.21139683333333892,
          "durationTicks": 23,
          "midi": 68,
          "name": "G#4",
          "ticks": 19920,
          "time": 183.08804,
          "velocity": 0.7952755905511811
        },
        {
          "duration": 0.21139683333333892,
          "durationTicks": 23,
          "midi": 75,
          "name": "D#5",
          "ticks": 19920,
          "time": 183.08804,
          "velocity": 0.905511811023622
        },
        {
          "duration": 0.21139683333333892,
          "durationTicks": 23,
          "midi": 65,
          "name": "F4",
          "ticks": 19943,
          "time": 183.29943683333335,
          "velocity": 0.8661417322834646
        },
        {
          "duration": 0.21139683333333892,
          "durationTicks": 23,
          "midi": 68,
          "name": "G#4",
          "ticks": 19943,
          "time": 183.29943683333335,
          "velocity": 0.889763779527559
        },
        {
          "duration": 0.42279366666667784,
          "durationTicks": 46,
          "midi": 75,
          "name": "D#5",
          "ticks": 19944,
          "time": 183.308628,
          "velocity": 0.8503937007874016
        },
        {
          "duration": 0.22058800000002066,
          "durationTicks": 24,
          "midi": 68,
          "name": "G#4",
          "ticks": 19967,
          "time": 183.52002483333334,
          "velocity": 0.7795275590551181
        },
        {
          "duration": 0.21139683333336734,
          "durationTicks": 23,
          "midi": 80,
          "name": "G#5",
          "ticks": 19968,
          "time": 183.529216,
          "velocity": 0.7952755905511811
        },
        {
          "duration": 0.1102939999999819,
          "durationTicks": 12,
          "midi": 63,
          "name": "D#4",
          "ticks": 19991,
          "time": 183.74061283333336,
          "velocity": 0.9133858267716536
        },
        {
          "duration": 0.009191166666681738,
          "durationTicks": 1,
          "midi": 68,
          "name": "G#4",
          "ticks": 19992,
          "time": 183.749804,
          "velocity": 0.7716535433070866
        },
        {
          "duration": 0.08272049999999354,
          "durationTicks": 9,
          "midi": 68,
          "name": "G#4",
          "ticks": 20003,
          "time": 183.85090683333334,
          "velocity": 0.8976377952755905
        },
        {
          "duration": 0.44117599999998447,
          "durationTicks": 48,
          "midi": 56,
          "name": "G#3",
          "ticks": 20015,
          "time": 183.96120083333335,
          "velocity": 0.7637795275590551
        },
        {
          "duration": 0.44117599999998447,
          "durationTicks": 48,
          "midi": 63,
          "name": "D#4",
          "ticks": 20015,
          "time": 183.96120083333335,
          "velocity": 0.9212598425196851
        },
        {
          "duration": 0.44117599999998447,
          "durationTicks": 48,
          "midi": 68,
          "name": "G#4",
          "ticks": 20015,
          "time": 183.96120083333335,
          "velocity": 0.7874015748031497
        },
        {
          "duration": 0.43198483333333115,
          "durationTicks": 47,
          "midi": 72,
          "name": "C5",
          "ticks": 20016,
          "time": 183.970392,
          "velocity": 0.7637795275590551
        },
        {
          "duration": 0.43198483333333115,
          "durationTicks": 47,
          "midi": 75,
          "name": "D#5",
          "ticks": 20016,
          "time": 183.970392,
          "velocity": 0.7401574803149606
        },
        {
          "duration": 0.22058800000002066,
          "durationTicks": 24,
          "midi": 68,
          "name": "G#4",
          "ticks": 20063,
          "time": 184.40237683333334,
          "velocity": 0.8976377952755905
        },
        {
          "duration": 0.21139683333336734,
          "durationTicks": 23,
          "midi": 72,
          "name": "C5",
          "ticks": 20063,
          "time": 184.40237683333334,
          "velocity": 0.6692913385826772
        },
        {
          "duration": 0.21139683333333892,
          "durationTicks": 23,
          "midi": 75,
          "name": "D#5",
          "ticks": 20064,
          "time": 184.41156800000002,
          "velocity": 0.6692913385826772
        },
        {
          "duration": 0.21139683333333892,
          "durationTicks": 23,
          "midi": 80,
          "name": "G#5",
          "ticks": 20064,
          "time": 184.41156800000002,
          "velocity": 0.8740157480314961
        },
        {
          "duration": 0.018382333333335055,
          "durationTicks": 2,
          "midi": 56,
          "name": "G#3",
          "ticks": 20087,
          "time": 184.62296483333336,
          "velocity": 0.7795275590551181
        },
        {
          "duration": 0.009191166666681738,
          "durationTicks": 1,
          "midi": 63,
          "name": "D#4",
          "ticks": 20088,
          "time": 184.632156,
          "velocity": 0.889763779527559
        },
        {
          "duration": 0.11029400000001033,
          "durationTicks": 12,
          "midi": 80,
          "name": "G#5",
          "ticks": 20099,
          "time": 184.73325883333334,
          "velocity": 0.8976377952755905
        },
        {
          "duration": 0.10110283333335701,
          "durationTicks": 11,
          "midi": 68,
          "name": "G#4",
          "ticks": 20100,
          "time": 184.74245,
          "velocity": 0.8661417322834646
        },
        {
          "duration": 0.22058799999999223,
          "durationTicks": 24,
          "midi": 56,
          "name": "G#3",
          "ticks": 20111,
          "time": 184.84355283333335,
          "velocity": 0.84251968503937
        },
        {
          "duration": 0.22058799999999223,
          "durationTicks": 24,
          "midi": 63,
          "name": "D#4",
          "ticks": 20111,
          "time": 184.84355283333335,
          "velocity": 0.8661417322834646
        },
        {
          "duration": 0.21139683333333892,
          "durationTicks": 23,
          "midi": 68,
          "name": "G#4",
          "ticks": 20112,
          "time": 184.852744,
          "velocity": 0.9212598425196851
        },
        {
          "duration": 0.21139683333333892,
          "durationTicks": 23,
          "midi": 72,
          "name": "C5",
          "ticks": 20112,
          "time": 184.852744,
          "velocity": 0.7637795275590551
        },
        {
          "duration": 0.21139683333333892,
          "durationTicks": 23,
          "midi": 75,
          "name": "D#5",
          "ticks": 20112,
          "time": 184.852744,
          "velocity": 0.7480314960629921
        },
        {
          "duration": 0.22058800000002066,
          "durationTicks": 24,
          "midi": 68,
          "name": "G#4",
          "ticks": 20135,
          "time": 185.06414083333334,
          "velocity": 0.7952755905511811
        },
        {
          "duration": 0.22058800000002066,
          "durationTicks": 24,
          "midi": 72,
          "name": "C5",
          "ticks": 20135,
          "time": 185.06414083333334,
          "velocity": 0.7322834645669292
        },
        {
          "duration": 0.22058800000002066,
          "durationTicks": 24,
          "midi": 75,
          "name": "D#5",
          "ticks": 20136,
          "time": 185.073332,
          "velocity": 0.7952755905511811
        },
        {
          "duration": 0.21139683333336734,
          "durationTicks": 23,
          "midi": 80,
          "name": "G#5",
          "ticks": 20136,
          "time": 185.073332,
          "velocity": 0.7480314960629921
        },
        {
          "duration": 0.018382333333335055,
          "durationTicks": 2,
          "midi": 56,
          "name": "G#3",
          "ticks": 20159,
          "time": 185.28472883333336,
          "velocity": 0.7795275590551181
        },
        {
          "duration": 0.009191166666681738,
          "durationTicks": 1,
          "midi": 63,
          "name": "D#4",
          "ticks": 20160,
          "time": 185.29392,
          "velocity": 0.889763779527559
        },
        {
          "duration": 0.11029400000001033,
          "durationTicks": 12,
          "midi": 68,
          "name": "G#4",
          "ticks": 20171,
          "time": 185.39502283333334,
          "velocity": 0.9212598425196851
        },
        {
          "duration": 0.44117599999998447,
          "durationTicks": 48,
          "midi": 56,
          "name": "G#3",
          "ticks": 20183,
          "time": 185.50531683333335,
          "velocity": 0.6850393700787402
        },
        {
          "duration": 0.44117599999998447,
          "durationTicks": 48,
          "midi": 63,
          "name": "D#4",
          "ticks": 20183,
          "time": 185.50531683333335,
          "velocity": 0.889763779527559
        },
        {
          "duration": 0.44117599999998447,
          "durationTicks": 48,
          "midi": 68,
          "name": "G#4",
          "ticks": 20183,
          "time": 185.50531683333335,
          "velocity": 0.9212598425196851
        },
        {
          "duration": 0.43198483333333115,
          "durationTicks": 47,
          "midi": 72,
          "name": "C5",
          "ticks": 20184,
          "time": 185.514508,
          "velocity": 0.7795275590551181
        },
        {
          "duration": 0.43198483333333115,
          "durationTicks": 47,
          "midi": 75,
          "name": "D#5",
          "ticks": 20184,
          "time": 185.514508,
          "velocity": 0.84251968503937
        },
        {
          "duration": 0.22058800000002066,
          "durationTicks": 24,
          "midi": 56,
          "name": "G#3",
          "ticks": 20231,
          "time": 185.94649283333334,
          "velocity": 0.7322834645669292
        },
        {
          "duration": 0.22058800000002066,
          "durationTicks": 24,
          "midi": 63,
          "name": "D#4",
          "ticks": 20231,
          "time": 185.94649283333334,
          "velocity": 0.8188976377952756
        },
        {
          "duration": 0.22058800000002066,
          "durationTicks": 24,
          "midi": 68,
          "name": "G#4",
          "ticks": 20231,
          "time": 185.94649283333334,
          "velocity": 0.8740157480314961
        },
        {
          "duration": 0.21139683333336734,
          "durationTicks": 23,
          "midi": 72,
          "name": "C5",
          "ticks": 20232,
          "time": 185.955684,
          "velocity": 0.8661417322834646
        },
        {
          "duration": 0.21139683333336734,
          "durationTicks": 23,
          "midi": 75,
          "name": "D#5",
          "ticks": 20232,
          "time": 185.955684,
          "velocity": 0.8740157480314961
        },
        {
          "duration": 0.11948516666663522,
          "durationTicks": 13,
          "midi": 73,
          "name": "C#5",
          "ticks": 20255,
          "time": 186.16708083333336,
          "velocity": 0.968503937007874
        },
        {
          "duration": 0.44117599999998447,
          "durationTicks": 48,
          "midi": 65,
          "name": "F4",
          "ticks": 20279,
          "time": 186.38766883333335,
          "velocity": 0.8976377952755905
        },
        {
          "duration": 0.44117599999998447,
          "durationTicks": 48,
          "midi": 68,
          "name": "G#4",
          "ticks": 20279,
          "time": 186.38766883333335,
          "velocity": 0.889763779527559
        },
        {
          "duration": 0.44117599999998447,
          "durationTicks": 48,
          "midi": 74,
          "name": "D5",
          "ticks": 20279,
          "time": 186.38766883333335,
          "velocity": 0.7716535433070866
        },
        {
          "duration": 0.43198483333333115,
          "durationTicks": 47,
          "midi": 77,
          "name": "F5",
          "ticks": 20280,
          "time": 186.39686,
          "velocity": 0.7952755905511811
        },
        {
          "duration": 0.43198483333333115,
          "durationTicks": 47,
          "midi": 82,
          "name": "A#5",
          "ticks": 20280,
          "time": 186.39686,
          "velocity": 0.8110236220472441
        },
        {
          "duration": 0.11029400000001033,
          "durationTicks": 12,
          "midi": 65,
          "name": "F4",
          "ticks": 20327,
          "time": 186.82884483333333,
          "velocity": 0.8661417322834646
        },
        {
          "duration": 0.11029400000001033,
          "durationTicks": 12,
          "midi": 65,
          "name": "F4",
          "ticks": 20339,
          "time": 186.93913883333335,
          "velocity": 0.905511811023622
        },
        {
          "duration": 0.22058799999999223,
          "durationTicks": 24,
          "midi": 68,
          "name": "G#4",
          "ticks": 20351,
          "time": 187.04943283333336,
          "velocity": 0.8503937007874016
        },
        {
          "duration": 0.22058799999999223,
          "durationTicks": 24,
          "midi": 74,
          "name": "D5",
          "ticks": 20351,
          "time": 187.04943283333336,
          "velocity": 0.8188976377952756
        },
        {
          "duration": 0.21139683333333892,
          "durationTicks": 23,
          "midi": 77,
          "name": "F5",
          "ticks": 20352,
          "time": 187.058624,
          "velocity": 0.7952755905511811
        },
        {
          "duration": 0.21139683333333892,
          "durationTicks": 23,
          "midi": 82,
          "name": "A#5",
          "ticks": 20352,
          "time": 187.058624,
          "velocity": 0.7559055118110236
        },
        {
          "duration": 0.11029400000001033,
          "durationTicks": 12,
          "midi": 66,
          "name": "F#4",
          "ticks": 20375,
          "time": 187.27002083333335,
          "velocity": 0.7952755905511811
        },
        {
          "duration": 0.05514699999997674,
          "durationTicks": 6,
          "midi": 65,
          "name": "F4",
          "ticks": 20387,
          "time": 187.38031483333336,
          "velocity": 0.8188976377952756
        },
        {
          "duration": 0.22058800000002066,
          "durationTicks": 24,
          "midi": 51,
          "name": "D#3",
          "ticks": 20399,
          "time": 187.49060883333334,
          "velocity": 0.7637795275590551
        },
        {
          "duration": 0.22058800000002066,
          "durationTicks": 24,
          "midi": 61,
          "name": "C#4",
          "ticks": 20399,
          "time": 187.49060883333334,
          "velocity": 0.8346456692913385
        },
        {
          "duration": 0.22058800000002066,
          "durationTicks": 24,
          "midi": 65,
          "name": "F4",
          "ticks": 20399,
          "time": 187.49060883333334,
          "velocity": 0.7874015748031497
        },
        {
          "duration": 0.21139683333336734,
          "durationTicks": 23,
          "midi": 68,
          "name": "G#4",
          "ticks": 20400,
          "time": 187.4998,
          "velocity": 0.7637795275590551
        },
        {
          "duration": 0.21139683333336734,
          "durationTicks": 23,
          "midi": 73,
          "name": "C#5",
          "ticks": 20400,
          "time": 187.4998,
          "velocity": 0.8582677165354331
        },
        {
          "duration": 0.22058799999999223,
          "durationTicks": 24,
          "midi": 65,
          "name": "F4",
          "ticks": 20423,
          "time": 187.71119683333336,
          "velocity": 0.9133858267716536
        },
        {
          "duration": 0.018382333333335055,
          "durationTicks": 2,
          "midi": 65,
          "name": "F4",
          "ticks": 20447,
          "time": 187.93178483333335,
          "velocity": 0.7795275590551181
        },
        {
          "duration": 0.009191166666681738,
          "durationTicks": 1,
          "midi": 68,
          "name": "G#4",
          "ticks": 20448,
          "time": 187.940976,
          "velocity": 0.889763779527559
        },
        {
          "duration": 0.018382333333363476,
          "durationTicks": 2,
          "midi": 72,
          "name": "C5",
          "ticks": 20459,
          "time": 188.04207883333333,
          "velocity": 0.937007874015748
        },
        {
          "duration": 0.4411760000000129,
          "durationTicks": 48,
          "midi": 61,
          "name": "C#4",
          "ticks": 20471,
          "time": 188.15237283333335,
          "velocity": 0.7401574803149606
        },
        {
          "duration": 0.4411760000000129,
          "durationTicks": 48,
          "midi": 66,
          "name": "F#4",
          "ticks": 20471,
          "time": 188.15237283333335,
          "velocity": 0.905511811023622
        },
        {
          "duration": 0.4319848333333596,
          "durationTicks": 47,
          "midi": 68,
          "name": "G#4",
          "ticks": 20472,
          "time": 188.161564,
          "velocity": 0.6141732283464567
        },
        {
          "duration": 0.4319848333333596,
          "durationTicks": 47,
          "midi": 73,
          "name": "C#5",
          "ticks": 20472,
          "time": 188.161564,
          "velocity": 0.8267716535433071
        },
        {
          "duration": 0.22058799999999223,
          "durationTicks": 24,
          "midi": 61,
          "name": "C#4",
          "ticks": 20519,
          "time": 188.59354883333336,
          "velocity": 0.8740157480314961
        },
        {
          "duration": 0.22058799999999223,
          "durationTicks": 24,
          "midi": 66,
          "name": "F#4",
          "ticks": 20519,
          "time": 188.59354883333336,
          "velocity": 0.8267716535433071
        },
        {
          "duration": 0.21139683333333892,
          "durationTicks": 23,
          "midi": 68,
          "name": "G#4",
          "ticks": 20520,
          "time": 188.60274,
          "velocity": 0.9133858267716536
        },
        {
          "duration": 0.22058799999999223,
          "durationTicks": 24,
          "midi": 61,
          "name": "C#4",
          "ticks": 20543,
          "time": 188.81413683333335,
          "velocity": 0.7401574803149606
        },
        {
          "duration": 0.22058799999999223,
          "durationTicks": 24,
          "midi": 65,
          "name": "F4",
          "ticks": 20543,
          "time": 188.81413683333335,
          "velocity": 0.905511811023622
        },
        {
          "duration": 0.21139683333333892,
          "durationTicks": 23,
          "midi": 68,
          "name": "G#4",
          "ticks": 20544,
          "time": 188.823328,
          "velocity": 0.7795275590551181
        },
        {
          "duration": 0.4411760000000129,
          "durationTicks": 48,
          "midi": 61,
          "name": "C#4",
          "ticks": 20567,
          "time": 189.03472483333334,
          "velocity": 0.905511811023622
        },
        {
          "duration": 0.4411760000000129,
          "durationTicks": 48,
          "midi": 65,
          "name": "F4",
          "ticks": 20567,
          "time": 189.03472483333334,
          "velocity": 0.7086614173228346
        },
        {
          "duration": 0.4319848333333596,
          "durationTicks": 47,
          "midi": 68,
          "name": "G#4",
          "ticks": 20568,
          "time": 189.043916,
          "velocity": 0.7874015748031497
        },
        {
          "duration": 0.4319848333333596,
          "durationTicks": 47,
          "midi": 73,
          "name": "C#5",
          "ticks": 20568,
          "time": 189.043916,
          "velocity": 0.905511811023622
        },
        {
          "duration": 0.22058799999999223,
          "durationTicks": 24,
          "midi": 56,
          "name": "G#3",
          "ticks": 20615,
          "time": 189.47590083333336,
          "velocity": 0.7795275590551181
        },
        {
          "duration": 0.22058799999999223,
          "durationTicks": 24,
          "midi": 65,
          "name": "F4",
          "ticks": 20615,
          "time": 189.47590083333336,
          "velocity": 0.8582677165354331
        },
        {
          "duration": 0.21139683333333892,
          "durationTicks": 23,
          "midi": 68,
          "name": "G#4",
          "ticks": 20616,
          "time": 189.485092,
          "velocity": 0.8346456692913385
        },
        {
          "duration": 0.21139683333333892,
          "durationTicks": 23,
          "midi": 72,
          "name": "C5",
          "ticks": 20616,
          "time": 189.485092,
          "velocity": 0.889763779527559
        },
        {
          "duration": 0.4411760000000129,
          "durationTicks": 48,
          "midi": 56,
          "name": "G#3",
          "ticks": 20639,
          "time": 189.69648883333335,
          "velocity": 0.8110236220472441
        },
        {
          "duration": 0.4411760000000129,
          "durationTicks": 48,
          "midi": 63,
          "name": "D#4",
          "ticks": 20639,
          "time": 189.69648883333335,
          "velocity": 0.905511811023622
        },
        {
          "duration": 0.4319848333333596,
          "durationTicks": 47,
          "midi": 68,
          "name": "G#4",
          "ticks": 20640,
          "time": 189.70568,
          "velocity": 0.7874015748031497
        },
        {
          "duration": 0.4319848333333596,
          "durationTicks": 47,
          "midi": 72,
          "name": "C5",
          "ticks": 20640,
          "time": 189.70568,
          "velocity": 0.905511811023622
        },
        {
          "duration": 0.22058799999999223,
          "durationTicks": 24,
          "midi": 63,
          "name": "D#4",
          "ticks": 20687,
          "time": 190.13766483333336,
          "velocity": 0.8740157480314961
        },
        {
          "duration": 0.22058799999999223,
          "durationTicks": 24,
          "midi": 68,
          "name": "G#4",
          "ticks": 20687,
          "time": 190.13766483333336,
          "velocity": 0.8031496062992126
        },
        {
          "duration": 0.21139683333333892,
          "durationTicks": 23,
          "midi": 73,
          "name": "C#5",
          "ticks": 20688,
          "time": 190.146856,
          "velocity": 0.905511811023622
        },
        {
          "duration": 0.22058799999999223,
          "durationTicks": 24,
          "midi": 63,
          "name": "D#4",
          "ticks": 20711,
          "time": 190.35825283333335,
          "velocity": 0.889763779527559
        },
        {
          "duration": 0.4044113333333428,
          "durationTicks": 44,
          "midi": 56,
          "name": "G#3",
          "ticks": 20735,
          "time": 190.57884083333335,
          "velocity": 0.8976377952755905
        },
        {
          "duration": 0.4044113333333428,
          "durationTicks": 44,
          "midi": 63,
          "name": "D#4",
          "ticks": 20735,
          "time": 190.57884083333335,
          "velocity": 0.8661417322834646
        },
        {
          "duration": 0.39522016666668947,
          "durationTicks": 43,
          "midi": 68,
          "name": "G#4",
          "ticks": 20736,
          "time": 190.588032,
          "velocity": 0.9133858267716536
        },
        {
          "duration": 0.22058799999999223,
          "durationTicks": 24,
          "midi": 58,
          "name": "A#3",
          "ticks": 20783,
          "time": 191.02001683333336,
          "velocity": 0.8110236220472441
        },
        {
          "duration": 0.22058799999999223,
          "durationTicks": 24,
          "midi": 63,
          "name": "D#4",
          "ticks": 20783,
          "time": 191.02001683333336,
          "velocity": 0.8740157480314961
        },
        {
          "duration": 0.22058799999999223,
          "durationTicks": 24,
          "midi": 68,
          "name": "G#4",
          "ticks": 20783,
          "time": 191.02001683333336,
          "velocity": 0.8661417322834646
        },
        {
          "duration": 0.21139683333333892,
          "durationTicks": 23,
          "midi": 73,
          "name": "C#5",
          "ticks": 20784,
          "time": 191.029208,
          "velocity": 0.8267716535433071
        },
        {
          "duration": 0.21139683333333892,
          "durationTicks": 23,
          "midi": 75,
          "name": "D#5",
          "ticks": 20784,
          "time": 191.029208,
          "velocity": 0.9133858267716536
        },
        {
          "duration": 0.03676466666664169,
          "durationTicks": 4,
          "midi": 58,
          "name": "A#3",
          "ticks": 20807,
          "time": 191.24060483333335,
          "velocity": 0.8031496062992126
        },
        {
          "duration": 0.02757349999998837,
          "durationTicks": 3,
          "midi": 63,
          "name": "D#4",
          "ticks": 20808,
          "time": 191.249796,
          "velocity": 0.9133858267716536
        },
        {
          "duration": 0.1102939999999819,
          "durationTicks": 12,
          "midi": 75,
          "name": "D#5",
          "ticks": 20819,
          "time": 191.35089883333336,
          "velocity": 0.9133858267716536
        },
        {
          "duration": 0.1102939999999819,
          "durationTicks": 12,
          "midi": 73,
          "name": "C#5",
          "ticks": 20819,
          "time": 191.35089883333336,
          "velocity": 0.8661417322834646
        },
        {
          "duration": 0.10110283333332859,
          "durationTicks": 11,
          "midi": 68,
          "name": "G#4",
          "ticks": 20820,
          "time": 191.36009,
          "velocity": 0.8661417322834646
        },
        {
          "duration": 0.10110283333332859,
          "durationTicks": 11,
          "midi": 63,
          "name": "D#4",
          "ticks": 20820,
          "time": 191.36009,
          "velocity": 0.8740157480314961
        },
        {
          "duration": 0.027573500000016793,
          "durationTicks": 3,
          "midi": 63,
          "name": "D#4",
          "ticks": 20831,
          "time": 191.46119283333334,
          "velocity": 0.905511811023622
        },
        {
          "duration": 0.027573500000016793,
          "durationTicks": 3,
          "midi": 68,
          "name": "G#4",
          "ticks": 20832,
          "time": 191.470384,
          "velocity": 0.8031496062992126
        },
        {
          "duration": 0.018382333333335055,
          "durationTicks": 2,
          "midi": 63,
          "name": "D#4",
          "ticks": 20843,
          "time": 191.57148683333335,
          "velocity": 0.9133858267716536
        },
        {
          "duration": 0.22058800000002066,
          "durationTicks": 24,
          "midi": 63,
          "name": "D#4",
          "ticks": 20855,
          "time": 191.68178083333333,
          "velocity": 0.8740157480314961
        },
        {
          "duration": 0.22058800000002066,
          "durationTicks": 24,
          "midi": 68,
          "name": "G#4",
          "ticks": 20855,
          "time": 191.68178083333333,
          "velocity": 0.8661417322834646
        },
        {
          "duration": 0.21139683333333892,
          "durationTicks": 23,
          "midi": 73,
          "name": "C#5",
          "ticks": 20856,
          "time": 191.69097200000002,
          "velocity": 0.8267716535433071
        },
        {
          "duration": 0.21139683333333892,
          "durationTicks": 23,
          "midi": 75,
          "name": "D#5",
          "ticks": 20856,
          "time": 191.69097200000002,
          "velocity": 0.9133858267716536
        },
        {
          "duration": 0.02757349999998837,
          "durationTicks": 3,
          "midi": 58,
          "name": "A#3",
          "ticks": 20879,
          "time": 191.90236883333336,
          "velocity": 0.8031496062992126
        },
        {
          "duration": 0.02757349999998837,
          "durationTicks": 3,
          "midi": 63,
          "name": "D#4",
          "ticks": 20880,
          "time": 191.91156,
          "velocity": 0.9133858267716536
        },
        {
          "duration": 0.11029400000001033,
          "durationTicks": 12,
          "midi": 75,
          "name": "D#5",
          "ticks": 20891,
          "time": 192.01266283333334,
          "velocity": 0.9133858267716536
        },
        {
          "duration": 0.11029400000001033,
          "durationTicks": 12,
          "midi": 72,
          "name": "C5",
          "ticks": 20891,
          "time": 192.01266283333334,
          "velocity": 0.8661417322834646
        },
        {
          "duration": 0.10110283333332859,
          "durationTicks": 11,
          "midi": 68,
          "name": "G#4",
          "ticks": 20892,
          "time": 192.02185400000002,
          "velocity": 0.8661417322834646
        },
        {
          "duration": 0.10110283333332859,
          "durationTicks": 11,
          "midi": 63,
          "name": "D#4",
          "ticks": 20892,
          "time": 192.02185400000002,
          "velocity": 0.8740157480314961
        },
        {
          "duration": 0.02757349999998837,
          "durationTicks": 3,
          "midi": 63,
          "name": "D#4",
          "ticks": 20903,
          "time": 192.12295683333335,
          "velocity": 0.905511811023622
        },
        {
          "duration": 0.018382333333335055,
          "durationTicks": 2,
          "midi": 68,
          "name": "G#4",
          "ticks": 20904,
          "time": 192.132148,
          "velocity": 0.8031496062992126
        },
        {
          "duration": 0.018382333333335055,
          "durationTicks": 2,
          "midi": 63,
          "name": "D#4",
          "ticks": 20915,
          "time": 192.23325083333336,
          "velocity": 0.9133858267716536
        },
        {
          "duration": 0.22058800000002066,
          "durationTicks": 24,
          "midi": 63,
          "name": "D#4",
          "ticks": 20927,
          "time": 192.34354483333334,
          "velocity": 0.8740157480314961
        },
        {
          "duration": 0.22058800000002066,
          "durationTicks": 24,
          "midi": 68,
          "name": "G#4",
          "ticks": 20927,
          "time": 192.34354483333334,
          "velocity": 0.8661417322834646
        },
        {
          "duration": 0.21139683333336734,
          "durationTicks": 23,
          "midi": 72,
          "name": "C5",
          "ticks": 20928,
          "time": 192.352736,
          "velocity": 0.8267716535433071
        },
        {
          "duration": 0.21139683333336734,
          "durationTicks": 23,
          "midi": 75,
          "name": "D#5",
          "ticks": 20928,
          "time": 192.352736,
          "velocity": 0.9133858267716536
        },
        {
          "duration": 0.02757349999998837,
          "durationTicks": 3,
          "midi": 63,
          "name": "D#4",
          "ticks": 20951,
          "time": 192.56413283333336,
          "velocity": 0.905511811023622
        },
        {
          "duration": 0.018382333333335055,
          "durationTicks": 2,
          "midi": 68,
          "name": "G#4",
          "ticks": 20952,
          "time": 192.573324,
          "velocity": 0.8031496062992126
        },
        {
          "duration": 0.018382333333335055,
          "durationTicks": 2,
          "midi": 63,
          "name": "D#4",
          "ticks": 20963,
          "time": 192.67442683333334,
          "velocity": 0.9133858267716536
        },
        {
          "duration": 0.22058799999999223,
          "durationTicks": 24,
          "midi": 65,
          "name": "F4",
          "ticks": 20975,
          "time": 192.78472083333335,
          "velocity": 0.8740157480314961
        },
        {
          "duration": 0.22058799999999223,
          "durationTicks": 24,
          "midi": 68,
          "name": "G#4",
          "ticks": 20975,
          "time": 192.78472083333335,
          "velocity": 0.8661417322834646
        },
        {
          "duration": 0.21139683333333892,
          "durationTicks": 23,
          "midi": 73,
          "name": "C#5",
          "ticks": 20976,
          "time": 192.793912,
          "velocity": 0.905511811023622
        },
        {
          "duration": 0.21139683333333892,
          "durationTicks": 23,
          "midi": 77,
          "name": "F5",
          "ticks": 20976,
          "time": 192.793912,
          "velocity": 0.7874015748031497
        },
        {
          "duration": 0.02757349999998837,
          "durationTicks": 3,
          "midi": 65,
          "name": "F4",
          "ticks": 20999,
          "time": 193.00530883333334,
          "velocity": 0.8031496062992126
        },
        {
          "duration": 0.018382333333335055,
          "durationTicks": 2,
          "midi": 68,
          "name": "G#4",
          "ticks": 21000,
          "time": 193.0145,
          "velocity": 0.9133858267716536
        },
        {
          "duration": 0.1102939999999819,
          "durationTicks": 12,
          "midi": 77,
          "name": "F5",
          "ticks": 21011,
          "time": 193.11560283333336,
          "velocity": 0.8188976377952756
        },
        {
          "duration": 0.1102939999999819,
          "durationTicks": 12,
          "midi": 61,
          "name": "C#4",
          "ticks": 21011,
          "time": 193.11560283333336,
          "velocity": 0.905511811023622
        },
        {
          "duration": 0.10110283333332859,
          "durationTicks": 11,
          "midi": 68,
          "name": "G#4",
          "ticks": 21012,
          "time": 193.124794,
          "velocity": 0.84251968503937
        },
        {
          "duration": 0.10110283333332859,
          "durationTicks": 11,
          "midi": 65,
          "name": "F4",
          "ticks": 21012,
          "time": 193.124794,
          "velocity": 0.8503937007874016
        },
        {
          "duration": 0.027573500000016793,
          "durationTicks": 3,
          "midi": 65,
          "name": "F4",
          "ticks": 21023,
          "time": 193.22589683333334,
          "velocity": 0.905511811023622
        },
        {
          "duration": 0.018382333333335055,
          "durationTicks": 2,
          "midi": 68,
          "name": "G#4",
          "ticks": 21024,
          "time": 193.23508800000002,
          "velocity": 0.8031496062992126
        },
        {
          "duration": 0.018382333333335055,
          "durationTicks": 2,
          "midi": 72,
          "name": "C5",
          "ticks": 21035,
          "time": 193.33619083333335,
          "velocity": 0.9133858267716536
        },
        {
          "duration": 0.1102939999999819,
          "durationTicks": 12,
          "midi": 68,
          "name": "G#4",
          "ticks": 21047,
          "time": 193.44648483333336,
          "velocity": 0.8740157480314961
        },
        {
          "duration": 0.1102939999999819,
          "durationTicks": 12,
          "midi": 73,
          "name": "C#5",
          "ticks": 21047,
          "time": 193.44648483333336,
          "velocity": 0.8661417322834646
        },
        {
          "duration": 0.10110283333332859,
          "durationTicks": 11,
          "midi": 77,
          "name": "F5",
          "ticks": 21048,
          "time": 193.455676,
          "velocity": 0.8740157480314961
        },
        {
          "duration": 0.10110283333332859,
          "durationTicks": 11,
          "midi": 80,
          "name": "G#5",
          "ticks": 21048,
          "time": 193.455676,
          "velocity": 0.937007874015748
        },
        {
          "duration": 0.11029400000001033,
          "durationTicks": 12,
          "midi": 80,
          "name": "G#5",
          "ticks": 21059,
          "time": 193.55677883333334,
          "velocity": 0.8818897637795275
        },
        {
          "duration": 0.11029400000001033,
          "durationTicks": 12,
          "midi": 77,
          "name": "F5",
          "ticks": 21059,
          "time": 193.55677883333334,
          "velocity": 0.8267716535433071
        },
        {
          "duration": 0.02757349999998837,
          "durationTicks": 3,
          "midi": 68,
          "name": "G#4",
          "ticks": 21071,
          "time": 193.66707283333335,
          "velocity": 0.905511811023622
        },
        {
          "duration": 0.018382333333335055,
          "durationTicks": 2,
          "midi": 65,
          "name": "F4",
          "ticks": 21072,
          "time": 193.676264,
          "velocity": 0.8031496062992126
        },
        {
          "duration": 0.1102939999999819,
          "durationTicks": 12,
          "midi": 80,
          "name": "G#5",
          "ticks": 21083,
          "time": 193.77736683333336,
          "velocity": 0.8188976377952756
        },
        {
          "duration": 0.10110283333332859,
          "durationTicks": 11,
          "midi": 77,
          "name": "F5",
          "ticks": 21083,
          "time": 193.77736683333336,
          "velocity": 0.905511811023622
        },
        {
          "duration": 0.10110283333332859,
          "durationTicks": 11,
          "midi": 73,
          "name": "C#5",
          "ticks": 21084,
          "time": 193.786558,
          "velocity": 0.8818897637795275
        },
        {
          "duration": 0.10110283333332859,
          "durationTicks": 11,
          "midi": 68,
          "name": "G#4",
          "ticks": 21084,
          "time": 193.786558,
          "velocity": 0.8346456692913385
        },
        {
          "duration": 0.018382333333335055,
          "durationTicks": 2,
          "midi": 73,
          "name": "C#5",
          "ticks": 21095,
          "time": 193.88766083333334,
          "velocity": 0.905511811023622
        },
        {
          "duration": 0.009191166666681738,
          "durationTicks": 1,
          "midi": 77,
          "name": "F5",
          "ticks": 21096,
          "time": 193.896852,
          "velocity": 0.905511811023622
        },
        {
          "duration": 0.018382333333335055,
          "durationTicks": 2,
          "midi": 80,
          "name": "G#5",
          "ticks": 21107,
          "time": 193.99795483333335,
          "velocity": 0.7952755905511811
        },
        {
          "duration": 0.22058800000002066,
          "durationTicks": 24,
          "midi": 68,
          "name": "G#4",
          "ticks": 21119,
          "time": 194.10824883333333,
          "velocity": 0.8740157480314961
        },
        {
          "duration": 0.22058800000002066,
          "durationTicks": 24,
          "midi": 73,
          "name": "C#5",
          "ticks": 21119,
          "time": 194.10824883333333,
          "velocity": 0.8582677165354331
        },
        {
          "duration": 0.21139683333333892,
          "durationTicks": 23,
          "midi": 77,
          "name": "F5",
          "ticks": 21120,
          "time": 194.11744000000002,
          "velocity": 0.905511811023622
        },
        {
          "duration": 0.21139683333333892,
          "durationTicks": 23,
          "midi": 80,
          "name": "G#5",
          "ticks": 21120,
          "time": 194.11744000000002,
          "velocity": 0.7874015748031497
        },
        {
          "duration": 0.018382333333335055,
          "durationTicks": 2,
          "midi": 61,
          "name": "C#4",
          "ticks": 21143,
          "time": 194.32883683333336,
          "velocity": 0.905511811023622
        },
        {
          "duration": 0.009191166666653316,
          "durationTicks": 1,
          "midi": 65,
          "name": "F4",
          "ticks": 21143,
          "time": 194.32883683333336,
          "velocity": 0.8031496062992126
        },
        {
          "duration": 0.009191166666681738,
          "durationTicks": 1,
          "midi": 68,
          "name": "G#4",
          "ticks": 21144,
          "time": 194.338028,
          "velocity": 0.8031496062992126
        },
        {
          "duration": 0.018382333333363476,
          "durationTicks": 2,
          "midi": 68,
          "name": "G#4",
          "ticks": 21155,
          "time": 194.43913083333334,
          "velocity": 0.9133858267716536
        },
        {
          "duration": 0.009191166666681738,
          "durationTicks": 1,
          "midi": 65,
          "name": "F4",
          "ticks": 21156,
          "time": 194.44832200000002,
          "velocity": 0.8740157480314961
        },
        {
          "duration": 0.4411760000000129,
          "durationTicks": 48,
          "midi": 54,
          "name": "F#3",
          "ticks": 21167,
          "time": 194.54942483333335,
          "velocity": 0.7637795275590551
        },
        {
          "duration": 0.4411760000000129,
          "durationTicks": 48,
          "midi": 61,
          "name": "C#4",
          "ticks": 21167,
          "time": 194.54942483333335,
          "velocity": 0.8346456692913385
        },
        {
          "duration": 0.4411760000000129,
          "durationTicks": 48,
          "midi": 65,
          "name": "F4",
          "ticks": 21167,
          "time": 194.54942483333335,
          "velocity": 0.7874015748031497
        },
        {
          "duration": 0.4319848333333596,
          "durationTicks": 47,
          "midi": 70,
          "name": "A#4",
          "ticks": 21168,
          "time": 194.558616,
          "velocity": 0.7637795275590551
        },
        {
          "duration": 0.4319848333333596,
          "durationTicks": 47,
          "midi": 73,
          "name": "C#5",
          "ticks": 21168,
          "time": 194.558616,
          "velocity": 0.8582677165354331
        },
        {
          "duration": 0.018382333333335055,
          "durationTicks": 2,
          "midi": 65,
          "name": "F4",
          "ticks": 21215,
          "time": 194.99060083333336,
          "velocity": 0.7795275590551181
        },
        {
          "duration": 0.009191166666681738,
          "durationTicks": 1,
          "midi": 68,
          "name": "G#4",
          "ticks": 21216,
          "time": 194.999792,
          "velocity": 0.889763779527559
        },
        {
          "duration": 0.018382333333335055,
          "durationTicks": 2,
          "midi": 73,
          "name": "C#5",
          "ticks": 21227,
          "time": 195.10089483333334,
          "velocity": 0.937007874015748
        },
        {
          "duration": 0.22058799999999223,
          "durationTicks": 24,
          "midi": 61,
          "name": "C#4",
          "ticks": 21239,
          "time": 195.21118883333335,
          "velocity": 0.7401574803149606
        },
        {
          "duration": 0.22058799999999223,
          "durationTicks": 24,
          "midi": 65,
          "name": "F4",
          "ticks": 21239,
          "time": 195.21118883333335,
          "velocity": 0.8110236220472441
        },
        {
          "duration": 0.21139683333333892,
          "durationTicks": 23,
          "midi": 70,
          "name": "A#4",
          "ticks": 21240,
          "time": 195.22038,
          "velocity": 0.6141732283464567
        },
        {
          "duration": 0.21139683333333892,
          "durationTicks": 23,
          "midi": 73,
          "name": "C#5",
          "ticks": 21240,
          "time": 195.22038,
          "velocity": 0.8740157480314961
        },
        {
          "duration": 0.11029400000001033,
          "durationTicks": 12,
          "midi": 73,
          "name": "C#5",
          "ticks": 21263,
          "time": 195.43177683333334,
          "velocity": 0.8740157480314961
        },
        {
          "duration": 0.009191166666653316,
          "durationTicks": 1,
          "midi": 61,
          "name": "C#4",
          "ticks": 21275,
          "time": 195.54207083333336,
          "velocity": 0.8503937007874016
        },
        {
          "duration": 0.22058800000002066,
          "durationTicks": 24,
          "midi": 61,
          "name": "C#4",
          "ticks": 21287,
          "time": 195.65236483333334,
          "velocity": 0.8740157480314961
        },
        {
          "duration": 0.22058800000002066,
          "durationTicks": 24,
          "midi": 65,
          "name": "F4",
          "ticks": 21287,
          "time": 195.65236483333334,
          "velocity": 0.8267716535433071
        },
        {
          "duration": 0.21139683333333892,
          "durationTicks": 23,
          "midi": 68,
          "name": "G#4",
          "ticks": 21288,
          "time": 195.66155600000002,
          "velocity": 0.9133858267716536
        },
        {
          "duration": 0.22058799999999223,
          "durationTicks": 24,
          "midi": 54,
          "name": "F#3",
          "ticks": 21311,
          "time": 195.87295283333336,
          "velocity": 0.7559055118110236
        },
        {
          "duration": 0.22058799999999223,
          "durationTicks": 24,
          "midi": 61,
          "name": "C#4",
          "ticks": 21311,
          "time": 195.87295283333336,
          "velocity": 0.7401574803149606
        },
        {
          "duration": 0.22058799999999223,
          "durationTicks": 24,
          "midi": 66,
          "name": "F#4",
          "ticks": 21312,
          "time": 195.882144,
          "velocity": 0.905511811023622
        },
        {
          "duration": 0.21139683333333892,
          "durationTicks": 23,
          "midi": 68,
          "name": "G#4",
          "ticks": 21312,
          "time": 195.882144,
          "velocity": 0.7795275590551181
        },
        {
          "duration": 0.22058799999999223,
          "durationTicks": 24,
          "midi": 61,
          "name": "C#4",
          "ticks": 21335,
          "time": 196.09354083333335,
          "velocity": 0.8740157480314961
        },
        {
          "duration": 0.22058799999999223,
          "durationTicks": 24,
          "midi": 65,
          "name": "F4",
          "ticks": 21335,
          "time": 196.09354083333335,
          "velocity": 0.7086614173228346
        },
        {
          "duration": 0.21139683333333892,
          "durationTicks": 23,
          "midi": 68,
          "name": "G#4",
          "ticks": 21336,
          "time": 196.102732,
          "velocity": 0.7874015748031497
        },
        {
          "duration": 0.21139683333333892,
          "durationTicks": 23,
          "midi": 73,
          "name": "C#5",
          "ticks": 21336,
          "time": 196.102732,
          "velocity": 0.905511811023622
        },
        {
          "duration": 0.21139683333333892,
          "durationTicks": 23,
          "midi": 66,
          "name": "F#4",
          "ticks": 21359,
          "time": 196.31412883333334,
          "velocity": 0.905511811023622
        },
        {
          "duration": 0.2022056666666856,
          "durationTicks": 22,
          "midi": 73,
          "name": "C#5",
          "ticks": 21360,
          "time": 196.32332,
          "velocity": 0.889763779527559
        },
        {
          "duration": 0.22058800000002066,
          "durationTicks": 24,
          "midi": 60,
          "name": "C4",
          "ticks": 21383,
          "time": 196.53471683333333,
          "velocity": 0.8740157480314961
        },
        {
          "duration": 0.22058800000002066,
          "durationTicks": 24,
          "midi": 65,
          "name": "F4",
          "ticks": 21383,
          "time": 196.53471683333333,
          "velocity": 0.7086614173228346
        },
        {
          "duration": 0.21139683333333892,
          "durationTicks": 23,
          "midi": 68,
          "name": "G#4",
          "ticks": 21384,
          "time": 196.54390800000002,
          "velocity": 0.7480314960629921
        },
        {
          "duration": 0.21139683333333892,
          "durationTicks": 23,
          "midi": 75,
          "name": "D#5",
          "ticks": 21384,
          "time": 196.54390800000002,
          "velocity": 0.8503937007874016
        },
        {
          "duration": 0.44117599999998447,
          "durationTicks": 48,
          "midi": 60,
          "name": "C4",
          "ticks": 21407,
          "time": 196.75530483333335,
          "velocity": 0.8740157480314961
        },
        {
          "duration": 0.44117599999998447,
          "durationTicks": 48,
          "midi": 63,
          "name": "D#4",
          "ticks": 21407,
          "time": 196.75530483333335,
          "velocity": 0.7086614173228346
        },
        {
          "duration": 0.43198483333333115,
          "durationTicks": 47,
          "midi": 68,
          "name": "G#4",
          "ticks": 21408,
          "time": 196.764496,
          "velocity": 0.8661417322834646
        },
        {
          "duration": 0.43198483333333115,
          "durationTicks": 47,
          "midi": 75,
          "name": "D#5",
          "ticks": 21408,
          "time": 196.764496,
          "velocity": 0.905511811023622
        },
        {
          "duration": 0.22058800000002066,
          "durationTicks": 24,
          "midi": 63,
          "name": "D#4",
          "ticks": 21455,
          "time": 197.19648083333334,
          "velocity": 0.7086614173228346
        },
        {
          "duration": 0.21139683333333892,
          "durationTicks": 23,
          "midi": 68,
          "name": "G#4",
          "ticks": 21455,
          "time": 197.19648083333334,
          "velocity": 0.7480314960629921
        },
        {
          "duration": 0.21139683333336734,
          "durationTicks": 23,
          "midi": 75,
          "name": "D#5",
          "ticks": 21456,
          "time": 197.205672,
          "velocity": 0.8503937007874016
        },
        {
          "duration": 0.018382333333335055,
          "durationTicks": 2,
          "midi": 63,
          "name": "D#4",
          "ticks": 21479,
          "time": 197.41706883333336,
          "velocity": 0.7795275590551181
        },
        {
          "duration": 0.009191166666681738,
          "durationTicks": 1,
          "midi": 68,
          "name": "G#4",
          "ticks": 21480,
          "time": 197.42626,
          "velocity": 0.889763779527559
        },
        {
          "duration": 0.018382333333335055,
          "durationTicks": 2,
          "midi": 75,
          "name": "D#5",
          "ticks": 21491,
          "time": 197.52736283333334,
          "velocity": 0.8110236220472441
        },
        {
          "duration": 0.4227936666666494,
          "durationTicks": 46,
          "midi": 60,
          "name": "C4",
          "ticks": 21503,
          "time": 197.63765683333335,
          "velocity": 0.8740157480314961
        },
        {
          "duration": 0.4227936666666494,
          "durationTicks": 46,
          "midi": 63,
          "name": "D#4",
          "ticks": 21503,
          "time": 197.63765683333335,
          "velocity": 0.7322834645669292
        },
        {
          "duration": 0.4136024999999961,
          "durationTicks": 45,
          "midi": 68,
          "name": "G#4",
          "ticks": 21504,
          "time": 197.646848,
          "velocity": 0.8661417322834646
        },
        {
          "duration": 0.4136024999999961,
          "durationTicks": 45,
          "midi": 75,
          "name": "D#5",
          "ticks": 21504,
          "time": 197.646848,
          "velocity": 0.889763779527559
        },
        {
          "duration": 1.7555128333333414,
          "durationTicks": 191,
          "midi": 54,
          "name": "F#3",
          "ticks": 21551,
          "time": 198.07883283333334,
          "velocity": 0.7795275590551181
        },
        {
          "duration": 0.4411760000000129,
          "durationTicks": 48,
          "midi": 65,
          "name": "F4",
          "ticks": 21551,
          "time": 198.07883283333334,
          "velocity": 0.6141732283464567
        },
        {
          "duration": 0.22058800000002066,
          "durationTicks": 24,
          "midi": 68,
          "name": "G#4",
          "ticks": 21551,
          "time": 198.07883283333334,
          "velocity": 0.6141732283464567
        },
        {
          "duration": 1.7555128333333414,
          "durationTicks": 191,
          "midi": 77,
          "name": "F5",
          "ticks": 21552,
          "time": 198.08802400000002,
          "velocity": 1
        },
        {
          "duration": 0.8823519999999974,
          "durationTicks": 96,
          "midi": 68,
          "name": "G#4",
          "ticks": 21575,
          "time": 198.29942083333336,
          "velocity": 1
        },
        {
          "duration": 0.44117599999998447,
          "durationTicks": 48,
          "midi": 65,
          "name": "F4",
          "ticks": 21599,
          "time": 198.52000883333335,
          "velocity": 1
        },
        {
          "duration": 1.1121311666666713,
          "durationTicks": 121,
          "midi": 75,
          "name": "D#5",
          "ticks": 21623,
          "time": 198.74059683333334,
          "velocity": 1
        },
        {
          "duration": 0.4411760000000129,
          "durationTicks": 48,
          "midi": 65,
          "name": "F4",
          "ticks": 21647,
          "time": 198.96118483333333,
          "velocity": 0.6141732283464567
        },
        {
          "duration": 0.6709551666666584,
          "durationTicks": 73,
          "midi": 68,
          "name": "G#4",
          "ticks": 21671,
          "time": 199.18177283333335,
          "velocity": 1
        },
        {
          "duration": 0.4411760000000129,
          "durationTicks": 48,
          "midi": 65,
          "name": "F4",
          "ticks": 21695,
          "time": 199.40236083333335,
          "velocity": 1
        },
        {
          "duration": 0.2389703333333557,
          "durationTicks": 26,
          "midi": 73,
          "name": "C#5",
          "ticks": 21719,
          "time": 199.62294883333334,
          "velocity": 1
        },
        {
          "duration": 1.6727923333333194,
          "durationTicks": 182,
          "midi": 54,
          "name": "F#3",
          "ticks": 21743,
          "time": 199.84353683333336,
          "velocity": 0.7086614173228346
        },
        {
          "duration": 0.43198483333333115,
          "durationTicks": 47,
          "midi": 65,
          "name": "F4",
          "ticks": 21744,
          "time": 199.852728,
          "velocity": 0.6456692913385826
        },
        {
          "duration": 0.8823519999999974,
          "durationTicks": 96,
          "midi": 68,
          "name": "G#4",
          "ticks": 21767,
          "time": 200.06412483333335,
          "velocity": 1
        },
        {
          "duration": 0.4411760000000129,
          "durationTicks": 48,
          "midi": 65,
          "name": "F4",
          "ticks": 21791,
          "time": 200.28471283333334,
          "velocity": 0.889763779527559
        },
        {
          "duration": 0.22058800000002066,
          "durationTicks": 24,
          "midi": 75,
          "name": "D#5",
          "ticks": 21815,
          "time": 200.50530083333334,
          "velocity": 1
        },
        {
          "duration": 0.44117599999998447,
          "durationTicks": 48,
          "midi": 65,
          "name": "F4",
          "ticks": 21839,
          "time": 200.72588883333336,
          "velocity": 0.9291338582677166
        },
        {
          "duration": 0.5882346666666649,
          "durationTicks": 64,
          "midi": 68,
          "name": "G#4",
          "ticks": 21863,
          "time": 200.94647683333335,
          "velocity": 0.7952755905511811
        },
        {
          "duration": 0.22058799999999223,
          "durationTicks": 24,
          "midi": 72,
          "name": "C5",
          "ticks": 21887,
          "time": 201.16706483333334,
          "velocity": 1
        },
        {
          "duration": 0.24816150000000903,
          "durationTicks": 27,
          "midi": 73,
          "name": "C#5",
          "ticks": 21911,
          "time": 201.38765283333333,
          "velocity": 0.9606299212598425
        }
      ]
    },
    {
      "channel": 0,
      "controlChanges": {
        "0": [
          {
            "number": 0,
            "ticks": 160,
            "time": 1.4705866666666667,
            "value": 0
          }
        ],
        "32": [
          {
            "number": 32,
            "ticks": 164,
            "time": 1.5073513333333333,
            "value": 0.007874015748031496
          }
        ],
        "121": [
          {
            "number": 121,
            "ticks": 156,
            "time": 1.4338220000000002,
            "value": 0
          }
        ]
      },
      "pitchBends": [],
      "instrument": {
        "family": "piano",
        "number": 0,
        "name": "acoustic grand piano"
      },
      "name": "Guitar R",
      "notes": [],
      "endOfTrackTicks": 21936
    },
    {
      "channel": 7,
      "controlChanges": {
        "6": [
          {
            "number": 6,
            "ticks": 182,
            "time": 1.6727923333333332,
            "value": 0.09448818897637795
          }
        ],
        "7": [
          {
            "number": 7,
            "ticks": 172,
            "time": 1.5808806666666668,
            "value": 0.8188976377952756
          }
        ],
        "10": [
          {
            "number": 10,
            "ticks": 173,
            "time": 1.5900718333333332,
            "value": 0.84251968503937
          }
        ],
        "11": [
          {
            "number": 11,
            "ticks": 174,
            "time": 1.599263,
            "value": 0.7795275590551181
          }
        ],
        "71": [
          {
            "number": 71,
            "ticks": 179,
            "time": 1.6452188333333333,
            "value": 0.5039370078740157
          }
        ],
        "74": [
          {
            "number": 74,
            "ticks": 178,
            "time": 1.6360276666666669,
            "value": 0.5039370078740157
          }
        ],
        "91": [
          {
            "number": 91,
            "ticks": 175,
            "time": 1.6084541666666667,
            "value": 0
          }
        ],
        "93": [
          {
            "number": 93,
            "ticks": 176,
            "time": 1.6176453333333334,
            "value": 0.31496062992125984
          }
        ],
        "94": [
          {
            "number": 94,
            "ticks": 177,
            "time": 1.6268365,
            "value": 0
          }
        ],
        "100": [
          {
            "number": 100,
            "ticks": 181,
            "time": 1.6636011666666668,
            "value": 0
          }
        ],
        "101": [
          {
            "number": 101,
            "ticks": 180,
            "time": 1.65441,
            "value": 0
          }
        ]
      },
      "pitchBends": [
        {
          "ticks": 808,
          "time": 7.426462666666667,
          "value": -0.083251953125
        },
        {
          "ticks": 816,
          "time": 7.499992000000001,
          "value": 0
        },
        {
          "ticks": 6360,
          "time": 58.45582000000001,
          "value": -0.16650390625
        },
        {
          "ticks": 6362,
          "time": 58.47420233333334,
          "value": -0.1326904296875
        },
        {
          "ticks": 6363,
          "time": 58.483393500000005,
          "value": -0.098876953125
        },
        {
          "ticks": 6364,
          "time": 58.492584666666666,
          "value": -0.0650634765625
        },
        {
          "ticks": 6365,
          "time": 58.50177583333333,
          "value": -0.03125
        },
        {
          "ticks": 6366,
          "time": 58.51096700000001,
          "value": 0
        },
        {
          "ticks": 14808,
          "time": 136.102796,
          "value": -0.16650390625
        },
        {
          "ticks": 14810,
          "time": 136.12117833333335,
          "value": -0.1326904296875
        },
        {
          "ticks": 14811,
          "time": 136.1303695,
          "value": -0.098876953125
        },
        {
          "ticks": 14812,
          "time": 136.13956066666668,
          "value": -0.0650634765625
        },
        {
          "ticks": 14813,
          "time": 136.14875183333334,
          "value": -0.03125
        },
        {
          "ticks": 14814,
          "time": 136.15794300000002,
          "value": 0
        }
      ],
      "instrument": {
        "family": "guitar",
        "number": 27,
        "name": "electric guitar (clean)"
      },
      "name": "",
      "notes": [
        {
          "duration": 1.7463216666666663,
          "durationTicks": 190,
          "midi": 42,
          "name": "F#2",
          "ticks": 432,
          "time": 3.970584,
          "velocity": 0.7007874015748031
        },
        {
          "duration": 1.7463216666666663,
          "durationTicks": 190,
          "midi": 49,
          "name": "C#3",
          "ticks": 432,
          "time": 3.970584,
          "velocity": 0.6141732283464567
        },
        {
          "duration": 0.4319848333333334,
          "durationTicks": 47,
          "midi": 56,
          "name": "G#3",
          "ticks": 433,
          "time": 3.9797751666666668,
          "velocity": 0.7795275590551181
        },
        {
          "duration": 0.44117600000000046,
          "durationTicks": 48,
          "midi": 61,
          "name": "C#4",
          "ticks": 456,
          "time": 4.191172,
          "velocity": 0.7795275590551181
        },
        {
          "duration": 0.6617639999999998,
          "durationTicks": 72,
          "midi": 56,
          "name": "G#3",
          "ticks": 480,
          "time": 4.41176,
          "velocity": 0.7795275590551181
        },
        {
          "duration": 0.6617639999999998,
          "durationTicks": 72,
          "midi": 63,
          "name": "D#4",
          "ticks": 504,
          "time": 4.632348,
          "velocity": 0.7795275590551181
        },
        {
          "duration": 0.6617640000000007,
          "durationTicks": 72,
          "midi": 56,
          "name": "G#3",
          "ticks": 552,
          "time": 5.073524,
          "velocity": 0.7795275590551181
        },
        {
          "duration": 0.44117600000000046,
          "durationTicks": 48,
          "midi": 61,
          "name": "C#4",
          "ticks": 576,
          "time": 5.294112,
          "velocity": 0.7795275590551181
        },
        {
          "duration": 1.691174666666666,
          "durationTicks": 184,
          "midi": 44,
          "name": "G#2",
          "ticks": 624,
          "time": 5.735288000000001,
          "velocity": 0.6929133858267716
        },
        {
          "duration": 1.6819835000000003,
          "durationTicks": 183,
          "midi": 51,
          "name": "D#3",
          "ticks": 624,
          "time": 5.735288000000001,
          "velocity": 0.6456692913385826
        },
        {
          "duration": 0.4319848333333338,
          "durationTicks": 47,
          "midi": 56,
          "name": "G#3",
          "ticks": 625,
          "time": 5.744479166666666,
          "velocity": 0.7795275590551181
        },
        {
          "duration": 0.44117599999999957,
          "durationTicks": 48,
          "midi": 61,
          "name": "C#4",
          "ticks": 648,
          "time": 5.955876000000001,
          "velocity": 0.7795275590551181
        },
        {
          "duration": 0.6617640000000007,
          "durationTicks": 72,
          "midi": 56,
          "name": "G#3",
          "ticks": 672,
          "time": 6.176464,
          "velocity": 0.7795275590551181
        },
        {
          "duration": 0.6617639999999998,
          "durationTicks": 72,
          "midi": 63,
          "name": "D#4",
          "ticks": 696,
          "time": 6.397052,
          "velocity": 0.7795275590551181
        },
        {
          "duration": 0.5882346666666658,
          "durationTicks": 64,
          "midi": 56,
          "name": "G#3",
          "ticks": 744,
          "time": 6.838228000000001,
          "velocity": 0.7795275590551181
        },
        {
          "duration": 0.4227936666666663,
          "durationTicks": 46,
          "midi": 61,
          "name": "C#4",
          "ticks": 768,
          "time": 7.058816,
          "velocity": 0.7795275590551181
        },
        {
          "duration": 1.7555128333333325,
          "durationTicks": 191,
          "midi": 46,
          "name": "A#2",
          "ticks": 816,
          "time": 7.499992000000001,
          "velocity": 0.7007874015748031
        },
        {
          "duration": 1.7555128333333325,
          "durationTicks": 191,
          "midi": 53,
          "name": "F3",
          "ticks": 816,
          "time": 7.499992000000001,
          "velocity": 0.6141732283464567
        },
        {
          "duration": 0.4319848333333338,
          "durationTicks": 47,
          "midi": 56,
          "name": "G#3",
          "ticks": 817,
          "time": 7.509183166666666,
          "velocity": 0.7795275590551181
        },
        {
          "duration": 0.44117599999999957,
          "durationTicks": 48,
          "midi": 60,
          "name": "C4",
          "ticks": 840,
          "time": 7.720580000000001,
          "velocity": 0.7795275590551181
        },
        {
          "duration": 0.6617640000000007,
          "durationTicks": 72,
          "midi": 63,
          "name": "D#4",
          "ticks": 864,
          "time": 7.941168,
          "velocity": 0.7007874015748031
        },
        {
          "duration": 0.661763999999998,
          "durationTicks": 72,
          "midi": 61,
          "name": "C#4",
          "ticks": 888,
          "time": 8.161756,
          "velocity": 0.7795275590551181
        },
        {
          "duration": 0.6617639999999998,
          "durationTicks": 72,
          "midi": 56,
          "name": "G#3",
          "ticks": 936,
          "time": 8.602932000000001,
          "velocity": 0.8661417322834646
        },
        {
          "duration": 0.22058800000000112,
          "durationTicks": 24,
          "midi": 60,
          "name": "C4",
          "ticks": 960,
          "time": 8.823519999999998,
          "velocity": 0.7795275590551181
        },
        {
          "duration": 0.22058800000000112,
          "durationTicks": 24,
          "midi": 61,
          "name": "C#4",
          "ticks": 984,
          "time": 9.044108,
          "velocity": 0.5669291338582677
        },
        {
          "duration": 0.18382333333333278,
          "durationTicks": 20,
          "midi": 66,
          "name": "F#4",
          "ticks": 1008,
          "time": 9.264696,
          "velocity": 0.8582677165354331
        },
        {
          "duration": 0.22058799999999934,
          "durationTicks": 24,
          "midi": 56,
          "name": "G#3",
          "ticks": 1008,
          "time": 9.264696,
          "velocity": 0.6614173228346457
        },
        {
          "duration": 0.18382333333333278,
          "durationTicks": 20,
          "midi": 65,
          "name": "F4",
          "ticks": 1032,
          "time": 9.485284,
          "velocity": 0.8582677165354331
        },
        {
          "duration": 0.22058799999999934,
          "durationTicks": 24,
          "midi": 56,
          "name": "G#3",
          "ticks": 1032,
          "time": 9.485284,
          "velocity": 0.6141732283464567
        },
        {
          "duration": 0.18382333333333278,
          "durationTicks": 20,
          "midi": 61,
          "name": "C#4",
          "ticks": 1056,
          "time": 9.705872,
          "velocity": 0.8110236220472441
        },
        {
          "duration": 0.22058799999999934,
          "durationTicks": 24,
          "midi": 56,
          "name": "G#3",
          "ticks": 1056,
          "time": 9.705872,
          "velocity": 0.8740157480314961
        },
        {
          "duration": 0.18382333333333634,
          "durationTicks": 20,
          "midi": 56,
          "name": "G#3",
          "ticks": 1080,
          "time": 9.926459999999999,
          "velocity": 0.8740157480314961
        },
        {
          "duration": 0.1746321666666688,
          "durationTicks": 19,
          "midi": 65,
          "name": "F4",
          "ticks": 1081,
          "time": 9.935651166666666,
          "velocity": 0.7795275590551181
        },
        {
          "duration": 0.22058799999999934,
          "durationTicks": 24,
          "midi": 77,
          "name": "F5",
          "ticks": 1082,
          "time": 9.944842333333334,
          "velocity": 0.8188976377952756
        },
        {
          "duration": 0.6617640000000016,
          "durationTicks": 72,
          "midi": 54,
          "name": "F#3",
          "ticks": 1200,
          "time": 11.029399999999999,
          "velocity": 0.5354330708661418
        },
        {
          "duration": 1.7279393333333317,
          "durationTicks": 188,
          "midi": 65,
          "name": "F4",
          "ticks": 1201,
          "time": 11.038591166666667,
          "velocity": 0.7244094488188977
        },
        {
          "duration": 1.4981601666666684,
          "durationTicks": 163,
          "midi": 73,
          "name": "C#5",
          "ticks": 1224,
          "time": 11.249987999999998,
          "velocity": 0.8031496062992126
        },
        {
          "duration": 0.661763999999998,
          "durationTicks": 72,
          "midi": 63,
          "name": "D#4",
          "ticks": 1248,
          "time": 11.470576000000001,
          "velocity": 0.7559055118110236
        },
        {
          "duration": 1.0569841666666662,
          "durationTicks": 115,
          "midi": 54,
          "name": "F#3",
          "ticks": 1272,
          "time": 11.691164,
          "velocity": 0.5354330708661418
        },
        {
          "duration": 0.6617640000000016,
          "durationTicks": 72,
          "midi": 68,
          "name": "G#4",
          "ticks": 1296,
          "time": 11.911752,
          "velocity": 0.7401574803149606
        },
        {
          "duration": 0.624999333333335,
          "durationTicks": 68,
          "midi": 63,
          "name": "D#4",
          "ticks": 1320,
          "time": 12.13234,
          "velocity": 0.6929133858267716
        },
        {
          "duration": 0.4044113333333357,
          "durationTicks": 44,
          "midi": 61,
          "name": "C#4",
          "ticks": 1344,
          "time": 12.352927999999999,
          "velocity": 0.7637795275590551
        },
        {
          "duration": 0.18382333333333278,
          "durationTicks": 20,
          "midi": 68,
          "name": "G#4",
          "ticks": 1368,
          "time": 12.573516000000001,
          "velocity": 0.7795275590551181
        },
        {
          "duration": 0.661763999999998,
          "durationTicks": 72,
          "midi": 56,
          "name": "G#3",
          "ticks": 1392,
          "time": 12.794104,
          "velocity": 0.5511811023622047
        },
        {
          "duration": 0.6525728333333305,
          "durationTicks": 71,
          "midi": 61,
          "name": "C#4",
          "ticks": 1393,
          "time": 12.803295166666668,
          "velocity": 0.7637795275590551
        },
        {
          "duration": 1.5257336666666674,
          "durationTicks": 166,
          "midi": 65,
          "name": "F4",
          "ticks": 1416,
          "time": 13.014692,
          "velocity": 0.6535433070866141
        },
        {
          "duration": 0.6617640000000016,
          "durationTicks": 72,
          "midi": 63,
          "name": "D#4",
          "ticks": 1440,
          "time": 13.23528,
          "velocity": 0.6929133858267716
        },
        {
          "duration": 0.6617640000000016,
          "durationTicks": 72,
          "midi": 56,
          "name": "G#3",
          "ticks": 1464,
          "time": 13.455867999999999,
          "velocity": 0.6535433070866141
        },
        {
          "duration": 0.6617640000000016,
          "durationTicks": 72,
          "midi": 60,
          "name": "C4",
          "ticks": 1465,
          "time": 13.465059166666666,
          "velocity": 0.7480314960629921
        },
        {
          "duration": 0.6617640000000016,
          "durationTicks": 72,
          "midi": 68,
          "name": "G#4",
          "ticks": 1488,
          "time": 13.676455999999998,
          "velocity": 0.7086614173228346
        },
        {
          "duration": 0.6433816666666665,
          "durationTicks": 70,
          "midi": 63,
          "name": "D#4",
          "ticks": 1512,
          "time": 13.897044000000001,
          "velocity": 0.7322834645669292
        },
        {
          "duration": 0.4227936666666672,
          "durationTicks": 46,
          "midi": 56,
          "name": "G#3",
          "ticks": 1536,
          "time": 14.117632,
          "velocity": 0.6535433070866141
        },
        {
          "duration": 0.41360249999999965,
          "durationTicks": 45,
          "midi": 60,
          "name": "C4",
          "ticks": 1537,
          "time": 14.126823166666668,
          "velocity": 0.7480314960629921
        },
        {
          "duration": 0.20220566666666784,
          "durationTicks": 22,
          "midi": 68,
          "name": "G#4",
          "ticks": 1560,
          "time": 14.33822,
          "velocity": 0.6850393700787402
        },
        {
          "duration": 0.8547785000000019,
          "durationTicks": 93,
          "midi": 49,
          "name": "C#3",
          "ticks": 1584,
          "time": 14.558807999999999,
          "velocity": 0.6299212598425197
        },
        {
          "duration": 0.652572833333334,
          "durationTicks": 71,
          "midi": 60,
          "name": "C4",
          "ticks": 1584,
          "time": 14.558807999999999,
          "velocity": 0.7716535433070866
        },
        {
          "duration": 0.2113968333333318,
          "durationTicks": 23,
          "midi": 68,
          "name": "G#4",
          "ticks": 1585,
          "time": 14.567999166666667,
          "velocity": 0.5826771653543307
        },
        {
          "duration": 0.6617640000000016,
          "durationTicks": 72,
          "midi": 68,
          "name": "G#4",
          "ticks": 1608,
          "time": 14.779395999999998,
          "velocity": 0.7637795275590551
        },
        {
          "duration": 0.4411759999999987,
          "durationTicks": 48,
          "midi": 63,
          "name": "D#4",
          "ticks": 1632,
          "time": 14.999984000000001,
          "velocity": 0.7244094488188977
        },
        {
          "duration": 0.20220566666666784,
          "durationTicks": 22,
          "midi": 61,
          "name": "C#4",
          "ticks": 1656,
          "time": 15.220572,
          "velocity": 0.6535433070866141
        },
        {
          "duration": 0.8547785000000019,
          "durationTicks": 93,
          "midi": 49,
          "name": "C#3",
          "ticks": 1680,
          "time": 15.44116,
          "velocity": 0.5354330708661418
        },
        {
          "duration": 0.44117600000000223,
          "durationTicks": 48,
          "midi": 60,
          "name": "C4",
          "ticks": 1680,
          "time": 15.44116,
          "velocity": 0.6535433070866141
        },
        {
          "duration": 0.8731608333333334,
          "durationTicks": 95,
          "midi": 68,
          "name": "G#4",
          "ticks": 1681,
          "time": 15.450351166666668,
          "velocity": 0.7480314960629921
        },
        {
          "duration": 0.44117600000000223,
          "durationTicks": 48,
          "midi": 63,
          "name": "D#4",
          "ticks": 1704,
          "time": 15.661748,
          "velocity": 0.7244094488188977
        },
        {
          "duration": 0.4411759999999987,
          "durationTicks": 48,
          "midi": 61,
          "name": "C#4",
          "ticks": 1728,
          "time": 15.882336000000002,
          "velocity": 0.6535433070866141
        },
        {
          "duration": 0.2113968333333318,
          "durationTicks": 23,
          "midi": 63,
          "name": "D#4",
          "ticks": 1752,
          "time": 16.102924,
          "velocity": 0.7795275590551181
        },
        {
          "duration": 0.6433816666666665,
          "durationTicks": 70,
          "midi": 46,
          "name": "A#2",
          "ticks": 1776,
          "time": 16.323512,
          "velocity": 0.6456692913385826
        },
        {
          "duration": 0.6433816666666701,
          "durationTicks": 70,
          "midi": 60,
          "name": "C4",
          "ticks": 1777,
          "time": 16.332703166666665,
          "velocity": 0.7874015748031497
        },
        {
          "duration": 0.4227936666666672,
          "durationTicks": 46,
          "midi": 65,
          "name": "F4",
          "ticks": 1800,
          "time": 16.5441,
          "velocity": 0.7007874015748031
        },
        {
          "duration": 0.20220566666666429,
          "durationTicks": 22,
          "midi": 63,
          "name": "D#4",
          "ticks": 1824,
          "time": 16.764688000000003,
          "velocity": 0.7322834645669292
        },
        {
          "duration": 0.8639696666666659,
          "durationTicks": 94,
          "midi": 46,
          "name": "A#2",
          "ticks": 1848,
          "time": 16.985276000000002,
          "velocity": 0.6614173228346457
        },
        {
          "duration": 0.4411759999999987,
          "durationTicks": 48,
          "midi": 56,
          "name": "G#3",
          "ticks": 1848,
          "time": 16.985276000000002,
          "velocity": 0.6535433070866141
        },
        {
          "duration": 0.652572833333334,
          "durationTicks": 71,
          "midi": 62,
          "name": "D4",
          "ticks": 1849,
          "time": 16.994467166666666,
          "velocity": 0.7322834645669292
        },
        {
          "duration": 0.6433816666666665,
          "durationTicks": 70,
          "midi": 56,
          "name": "G#3",
          "ticks": 1896,
          "time": 17.426452,
          "velocity": 0.6850393700787402
        },
        {
          "duration": 0.4227936666666672,
          "durationTicks": 46,
          "midi": 65,
          "name": "F4",
          "ticks": 1920,
          "time": 17.64704,
          "velocity": 0.8267716535433071
        },
        {
          "duration": 0.20220566666666429,
          "durationTicks": 22,
          "midi": 62,
          "name": "D4",
          "ticks": 1944,
          "time": 17.867628000000003,
          "velocity": 0.7401574803149606
        },
        {
          "duration": 1.7187481666666642,
          "durationTicks": 187,
          "midi": 51,
          "name": "D#3",
          "ticks": 1968,
          "time": 18.088216000000003,
          "velocity": 0.6850393700787402
        },
        {
          "duration": 0.4411759999999987,
          "durationTicks": 48,
          "midi": 61,
          "name": "C#4",
          "ticks": 1968,
          "time": 18.088216000000003,
          "velocity": 0.8031496062992126
        },
        {
          "duration": 1.7371304999999992,
          "durationTicks": 189,
          "midi": 65,
          "name": "F4",
          "ticks": 1969,
          "time": 18.097407166666667,
          "velocity": 0.7165354330708661
        },
        {
          "duration": 0.22058799999999934,
          "durationTicks": 24,
          "midi": 63,
          "name": "D#4",
          "ticks": 2016,
          "time": 18.529392,
          "velocity": 0.6929133858267716
        },
        {
          "duration": 0.6617640000000016,
          "durationTicks": 72,
          "midi": 61,
          "name": "C#4",
          "ticks": 2040,
          "time": 18.74998,
          "velocity": 0.7322834645669292
        },
        {
          "duration": 0.661763999999998,
          "durationTicks": 72,
          "midi": 73,
          "name": "C#5",
          "ticks": 2064,
          "time": 18.970568000000004,
          "velocity": 0.6771653543307087
        },
        {
          "duration": 0.6249993333333315,
          "durationTicks": 68,
          "midi": 68,
          "name": "G#4",
          "ticks": 2088,
          "time": 19.191156000000003,
          "velocity": 0.6535433070866141
        },
        {
          "duration": 0.41360249999999965,
          "durationTicks": 45,
          "midi": 61,
          "name": "C#4",
          "ticks": 2112,
          "time": 19.411744000000002,
          "velocity": 0.7480314960629921
        },
        {
          "duration": 0.1930145000000003,
          "durationTicks": 21,
          "midi": 73,
          "name": "C#5",
          "ticks": 2136,
          "time": 19.632332,
          "velocity": 0.7874015748031497
        },
        {
          "duration": 0.8823520000000009,
          "durationTicks": 96,
          "midi": 44,
          "name": "G#2",
          "ticks": 2160,
          "time": 19.85292,
          "velocity": 0.6692913385826772
        },
        {
          "duration": 0.4319848333333347,
          "durationTicks": 47,
          "midi": 61,
          "name": "C#4",
          "ticks": 2161,
          "time": 19.86211116666667,
          "velocity": 0.7086614173228346
        },
        {
          "duration": 0.643381666666663,
          "durationTicks": 70,
          "midi": 68,
          "name": "G#4",
          "ticks": 2184,
          "time": 20.073508000000004,
          "velocity": 0.7795275590551181
        },
        {
          "duration": 0.43198483333333115,
          "durationTicks": 47,
          "midi": 63,
          "name": "D#4",
          "ticks": 2208,
          "time": 20.294096000000003,
          "velocity": 0.6850393700787402
        },
        {
          "duration": 0.1930145000000003,
          "durationTicks": 21,
          "midi": 61,
          "name": "C#4",
          "ticks": 2232,
          "time": 20.514684000000003,
          "velocity": 0.7952755905511811
        },
        {
          "duration": 0.8639696666666659,
          "durationTicks": 94,
          "midi": 44,
          "name": "G#2",
          "ticks": 2256,
          "time": 20.735272000000002,
          "velocity": 0.7007874015748031
        },
        {
          "duration": 0.44117600000000223,
          "durationTicks": 48,
          "midi": 61,
          "name": "C#4",
          "ticks": 2257,
          "time": 20.744463166666666,
          "velocity": 0.7322834645669292
        },
        {
          "duration": 0.44117600000000223,
          "durationTicks": 48,
          "midi": 63,
          "name": "D#4",
          "ticks": 2280,
          "time": 20.95586,
          "velocity": 0.7559055118110236
        },
        {
          "duration": 0.41360249999999965,
          "durationTicks": 45,
          "midi": 60,
          "name": "C4",
          "ticks": 2304,
          "time": 21.176448000000004,
          "velocity": 0.7322834645669292
        },
        {
          "duration": 0.1930145000000003,
          "durationTicks": 21,
          "midi": 63,
          "name": "D#4",
          "ticks": 2328,
          "time": 21.397036000000003,
          "velocity": 0.7322834645669292
        },
        {
          "duration": 1.7463216666666632,
          "durationTicks": 190,
          "midi": 42,
          "name": "F#2",
          "ticks": 2352,
          "time": 21.617624000000003,
          "velocity": 0.7007874015748031
        },
        {
          "duration": 1.7463216666666632,
          "durationTicks": 190,
          "midi": 49,
          "name": "C#3",
          "ticks": 2352,
          "time": 21.617624000000003,
          "velocity": 0.6141732283464567
        },
        {
          "duration": 0.4319848333333347,
          "durationTicks": 47,
          "midi": 56,
          "name": "G#3",
          "ticks": 2353,
          "time": 21.626815166666667,
          "velocity": 0.7795275590551181
        },
        {
          "duration": 0.4411759999999987,
          "durationTicks": 48,
          "midi": 61,
          "name": "C#4",
          "ticks": 2376,
          "time": 21.838212000000002,
          "velocity": 0.7795275590551181
        },
        {
          "duration": 0.6617640000000016,
          "durationTicks": 72,
          "midi": 56,
          "name": "G#3",
          "ticks": 2400,
          "time": 22.0588,
          "velocity": 0.7795275590551181
        },
        {
          "duration": 0.6617640000000016,
          "durationTicks": 72,
          "midi": 63,
          "name": "D#4",
          "ticks": 2424,
          "time": 22.279388,
          "velocity": 0.7795275590551181
        },
        {
          "duration": 0.661763999999998,
          "durationTicks": 72,
          "midi": 56,
          "name": "G#3",
          "ticks": 2472,
          "time": 22.720564000000003,
          "velocity": 0.7795275590551181
        },
        {
          "duration": 0.22058799999999934,
          "durationTicks": 24,
          "midi": 60,
          "name": "C4",
          "ticks": 2496,
          "time": 22.941152000000002,
          "velocity": 0.7086614173228346
        },
        {
          "duration": 0.22058799999999934,
          "durationTicks": 24,
          "midi": 61,
          "name": "C#4",
          "ticks": 2520,
          "time": 23.16174,
          "velocity": 0.7795275590551181
        },
        {
          "duration": 1.7463216666666668,
          "durationTicks": 190,
          "midi": 42,
          "name": "F#2",
          "ticks": 2544,
          "time": 23.382328,
          "velocity": 0.7007874015748031
        },
        {
          "duration": 1.7463216666666668,
          "durationTicks": 190,
          "midi": 49,
          "name": "C#3",
          "ticks": 2544,
          "time": 23.382328,
          "velocity": 0.6141732283464567
        },
        {
          "duration": 0.4319848333333347,
          "durationTicks": 47,
          "midi": 56,
          "name": "G#3",
          "ticks": 2545,
          "time": 23.39151916666667,
          "velocity": 0.7795275590551181
        },
        {
          "duration": 0.4411759999999987,
          "durationTicks": 48,
          "midi": 61,
          "name": "C#4",
          "ticks": 2568,
          "time": 23.602916000000004,
          "velocity": 0.7795275590551181
        },
        {
          "duration": 0.661763999999998,
          "durationTicks": 72,
          "midi": 56,
          "name": "G#3",
          "ticks": 2592,
          "time": 23.823504000000003,
          "velocity": 0.7795275590551181
        },
        {
          "duration": 0.6617640000000016,
          "durationTicks": 72,
          "midi": 63,
          "name": "D#4",
          "ticks": 2616,
          "time": 24.044092000000003,
          "velocity": 0.7795275590551181
        },
        {
          "duration": 0.6617640000000016,
          "durationTicks": 72,
          "midi": 56,
          "name": "G#3",
          "ticks": 2664,
          "time": 24.485268,
          "velocity": 0.7795275590551181
        },
        {
          "duration": 0.22058799999999934,
          "durationTicks": 24,
          "midi": 60,
          "name": "C4",
          "ticks": 2688,
          "time": 24.705856000000004,
          "velocity": 0.7086614173228346
        },
        {
          "duration": 0.22058799999999934,
          "durationTicks": 24,
          "midi": 61,
          "name": "C#4",
          "ticks": 2712,
          "time": 24.926444000000004,
          "velocity": 0.7795275590551181
        },
        {
          "duration": 3.4742609999999985,
          "durationTicks": 378,
          "midi": 42,
          "name": "F#2",
          "ticks": 2736,
          "time": 25.147032000000003,
          "velocity": 0.7795275590551181
        },
        {
          "duration": 3.455878666666667,
          "durationTicks": 376,
          "midi": 49,
          "name": "C#3",
          "ticks": 2738,
          "time": 25.165414333333334,
          "velocity": 0.7795275590551181
        },
        {
          "duration": 3.4466874999999995,
          "durationTicks": 375,
          "midi": 53,
          "name": "F3",
          "ticks": 2739,
          "time": 25.174605500000002,
          "velocity": 0.7795275590551181
        },
        {
          "duration": 3.4374963333333355,
          "durationTicks": 374,
          "midi": 56,
          "name": "G#3",
          "ticks": 2740,
          "time": 25.183796666666666,
          "velocity": 0.7795275590551181
        },
        {
          "duration": 3.428305166666668,
          "durationTicks": 373,
          "midi": 61,
          "name": "C#4",
          "ticks": 2741,
          "time": 25.192987833333333,
          "velocity": 0.7795275590551181
        },
        {
          "duration": 1.7003658333333327,
          "durationTicks": 185,
          "midi": 46,
          "name": "A#2",
          "ticks": 3120,
          "time": 28.676440000000003,
          "velocity": 0.5275590551181102
        },
        {
          "duration": 1.7095570000000038,
          "durationTicks": 186,
          "midi": 53,
          "name": "F3",
          "ticks": 3121,
          "time": 28.685631166666667,
          "velocity": 0.5275590551181102
        },
        {
          "duration": 1.7187481666666642,
          "durationTicks": 187,
          "midi": 56,
          "name": "G#3",
          "ticks": 3122,
          "time": 28.694822333333335,
          "velocity": 0.5275590551181102
        },
        {
          "duration": 1.7095569999999967,
          "durationTicks": 186,
          "midi": 63,
          "name": "D#4",
          "ticks": 3123,
          "time": 28.704013500000002,
          "velocity": 0.5275590551181102
        },
        {
          "duration": 0.4411759999999987,
          "durationTicks": 48,
          "midi": 53,
          "name": "F3",
          "ticks": 3336,
          "time": 30.661732,
          "velocity": 0.5275590551181102
        },
        {
          "duration": 0.22058799999999934,
          "durationTicks": 24,
          "midi": 60,
          "name": "C4",
          "ticks": 3360,
          "time": 30.88232,
          "velocity": 0.5275590551181102
        },
        {
          "duration": 0.8823520000000009,
          "durationTicks": 96,
          "midi": 53,
          "name": "F3",
          "ticks": 3384,
          "time": 31.102908,
          "velocity": 0.5275590551181102
        },
        {
          "duration": 0.4319848333333276,
          "durationTicks": 47,
          "midi": 56,
          "name": "G#3",
          "ticks": 3385,
          "time": 31.11209916666667,
          "velocity": 0.5275590551181102
        },
        {
          "duration": 0.8639696666666659,
          "durationTicks": 94,
          "midi": 61,
          "name": "C#4",
          "ticks": 3386,
          "time": 31.121290333333334,
          "velocity": 0.5275590551181102
        },
        {
          "duration": 0.44117600000000223,
          "durationTicks": 48,
          "midi": 56,
          "name": "G#3",
          "ticks": 3432,
          "time": 31.544083999999998,
          "velocity": 0.5748031496062992
        },
        {
          "duration": 0.03676466666666656,
          "durationTicks": 4,
          "midi": 42,
          "name": "F#2",
          "ticks": 3480,
          "time": 31.98526,
          "velocity": 0.6141732283464567
        },
        {
          "duration": 0.036764666666663004,
          "durationTicks": 4,
          "midi": 49,
          "name": "C#3",
          "ticks": 3482,
          "time": 32.00364233333333,
          "velocity": 0.6535433070866141
        },
        {
          "duration": 0.027573499999995477,
          "durationTicks": 3,
          "midi": 53,
          "name": "F3",
          "ticks": 3483,
          "time": 32.0128335,
          "velocity": 0.7007874015748031
        },
        {
          "duration": 0.1378674999999987,
          "durationTicks": 15,
          "midi": 61,
          "name": "C#4",
          "ticks": 3492,
          "time": 32.095554,
          "velocity": 0.7795275590551181
        },
        {
          "duration": 0.027573500000002582,
          "durationTicks": 3,
          "midi": 56,
          "name": "G#3",
          "ticks": 3493,
          "time": 32.10474516666667,
          "velocity": 0.6141732283464567
        },
        {
          "duration": 3.4742610000000056,
          "durationTicks": 378,
          "midi": 42,
          "name": "F#2",
          "ticks": 3504,
          "time": 32.205847999999996,
          "velocity": 0.7795275590551181
        },
        {
          "duration": 3.465069833333331,
          "durationTicks": 377,
          "midi": 49,
          "name": "C#3",
          "ticks": 3505,
          "time": 32.21503916666667,
          "velocity": 0.7795275590551181
        },
        {
          "duration": 3.4558786666666705,
          "durationTicks": 376,
          "midi": 53,
          "name": "F3",
          "ticks": 3506,
          "time": 32.22423033333333,
          "velocity": 0.7795275590551181
        },
        {
          "duration": 3.4558786666666705,
          "durationTicks": 376,
          "midi": 56,
          "name": "G#3",
          "ticks": 3506,
          "time": 32.22423033333333,
          "velocity": 0.7795275590551181
        },
        {
          "duration": 3.446687500000003,
          "durationTicks": 375,
          "midi": 61,
          "name": "C#4",
          "ticks": 3507,
          "time": 32.2334215,
          "velocity": 0.7795275590551181
        },
        {
          "duration": 1.4889689999999973,
          "durationTicks": 162,
          "midi": 49,
          "name": "C#3",
          "ticks": 3888,
          "time": 35.735256,
          "velocity": 0.6299212598425197
        },
        {
          "duration": 1.4797778333333298,
          "durationTicks": 161,
          "midi": 53,
          "name": "F3",
          "ticks": 3889,
          "time": 35.74444716666667,
          "velocity": 0.5669291338582677
        },
        {
          "duration": 1.4705866666666623,
          "durationTicks": 160,
          "midi": 56,
          "name": "G#3",
          "ticks": 3890,
          "time": 35.753638333333335,
          "velocity": 0.5511811023622047
        },
        {
          "duration": 1.4613954999999947,
          "durationTicks": 159,
          "midi": 60,
          "name": "C4",
          "ticks": 3891,
          "time": 35.7628295,
          "velocity": 0.5669291338582677
        },
        {
          "duration": 1.4522043333333272,
          "durationTicks": 158,
          "midi": 63,
          "name": "D#4",
          "ticks": 3892,
          "time": 35.77202066666667,
          "velocity": 0.5984251968503937
        },
        {
          "duration": 0.4411759999999987,
          "durationTicks": 48,
          "midi": 46,
          "name": "A#2",
          "ticks": 4056,
          "time": 37.279372,
          "velocity": 0.7795275590551181
        },
        {
          "duration": 0.4411759999999987,
          "durationTicks": 48,
          "midi": 53,
          "name": "F3",
          "ticks": 4056,
          "time": 37.279372,
          "velocity": 0.7480314960629921
        },
        {
          "duration": 0.43198483333333115,
          "durationTicks": 47,
          "midi": 56,
          "name": "G#3",
          "ticks": 4057,
          "time": 37.28856316666667,
          "velocity": 0.7637795275590551
        },
        {
          "duration": 0.4227936666666636,
          "durationTicks": 46,
          "midi": 61,
          "name": "C#4",
          "ticks": 4058,
          "time": 37.29775433333334,
          "velocity": 0.8188976377952756
        },
        {
          "duration": 0.22058799999999934,
          "durationTicks": 24,
          "midi": 46,
          "name": "A#2",
          "ticks": 4104,
          "time": 37.720548,
          "velocity": 0.7795275590551181
        },
        {
          "duration": 0.22058799999999934,
          "durationTicks": 24,
          "midi": 53,
          "name": "F3",
          "ticks": 4104,
          "time": 37.720548,
          "velocity": 0.7480314960629921
        },
        {
          "duration": 0.2113968333333318,
          "durationTicks": 23,
          "midi": 56,
          "name": "G#3",
          "ticks": 4105,
          "time": 37.72973916666667,
          "velocity": 0.7637795275590551
        },
        {
          "duration": 0.2113968333333318,
          "durationTicks": 23,
          "midi": 61,
          "name": "C#4",
          "ticks": 4105,
          "time": 37.72973916666667,
          "velocity": 0.8188976377952756
        },
        {
          "duration": 0.22058799999999934,
          "durationTicks": 24,
          "midi": 46,
          "name": "A#2",
          "ticks": 4128,
          "time": 37.941136,
          "velocity": 0.7795275590551181
        },
        {
          "duration": 0.22058799999999934,
          "durationTicks": 24,
          "midi": 53,
          "name": "F3",
          "ticks": 4128,
          "time": 37.941136,
          "velocity": 0.7480314960629921
        },
        {
          "duration": 0.2113968333333318,
          "durationTicks": 23,
          "midi": 58,
          "name": "A#3",
          "ticks": 4129,
          "time": 37.95032716666667,
          "velocity": 0.6141732283464567
        },
        {
          "duration": 0.22058799999999934,
          "durationTicks": 24,
          "midi": 46,
          "name": "A#2",
          "ticks": 4152,
          "time": 38.161724,
          "velocity": 0.7795275590551181
        },
        {
          "duration": 0.22058799999999934,
          "durationTicks": 24,
          "midi": 53,
          "name": "F3",
          "ticks": 4152,
          "time": 38.161724,
          "velocity": 0.7480314960629921
        },
        {
          "duration": 0.2113968333333247,
          "durationTicks": 23,
          "midi": 58,
          "name": "A#3",
          "ticks": 4153,
          "time": 38.170915166666674,
          "velocity": 0.7637795275590551
        },
        {
          "duration": 0.2113968333333247,
          "durationTicks": 23,
          "midi": 62,
          "name": "D4",
          "ticks": 4153,
          "time": 38.170915166666674,
          "velocity": 0.7795275590551181
        },
        {
          "duration": 0.6433816666666701,
          "durationTicks": 70,
          "midi": 42,
          "name": "F#2",
          "ticks": 4272,
          "time": 39.264664,
          "velocity": 0.6535433070866141
        },
        {
          "duration": 0.6433816666666701,
          "durationTicks": 70,
          "midi": 49,
          "name": "C#3",
          "ticks": 4272,
          "time": 39.264664,
          "velocity": 0.6692913385826772
        },
        {
          "duration": 0.43198483333333115,
          "durationTicks": 47,
          "midi": 61,
          "name": "C#4",
          "ticks": 4273,
          "time": 39.27385516666667,
          "velocity": 0.7795275590551181
        },
        {
          "duration": 0.661763999999998,
          "durationTicks": 72,
          "midi": 68,
          "name": "G#4",
          "ticks": 4296,
          "time": 39.485252,
          "velocity": 0.7795275590551181
        },
        {
          "duration": 0.661763999999998,
          "durationTicks": 72,
          "midi": 63,
          "name": "D#4",
          "ticks": 4320,
          "time": 39.70584,
          "velocity": 0.7795275590551181
        },
        {
          "duration": 0.6433816666666701,
          "durationTicks": 70,
          "midi": 42,
          "name": "F#2",
          "ticks": 4344,
          "time": 39.926428,
          "velocity": 0.6535433070866141
        },
        {
          "duration": 0.6433816666666701,
          "durationTicks": 70,
          "midi": 49,
          "name": "C#3",
          "ticks": 4344,
          "time": 39.926428,
          "velocity": 0.6141732283464567
        },
        {
          "duration": 0.6525728333333305,
          "durationTicks": 71,
          "midi": 61,
          "name": "C#4",
          "ticks": 4345,
          "time": 39.93561916666667,
          "velocity": 0.7795275590551181
        },
        {
          "duration": 0.661763999999998,
          "durationTicks": 72,
          "midi": 68,
          "name": "G#4",
          "ticks": 4368,
          "time": 40.147016,
          "velocity": 0.7795275590551181
        },
        {
          "duration": 0.661763999999998,
          "durationTicks": 72,
          "midi": 63,
          "name": "D#4",
          "ticks": 4392,
          "time": 40.367604,
          "velocity": 0.7795275590551181
        },
        {
          "duration": 0.4044113333333357,
          "durationTicks": 44,
          "midi": 42,
          "name": "F#2",
          "ticks": 4416,
          "time": 40.588192,
          "velocity": 0.6535433070866141
        },
        {
          "duration": 0.4044113333333357,
          "durationTicks": 44,
          "midi": 49,
          "name": "C#3",
          "ticks": 4416,
          "time": 40.588192,
          "velocity": 0.6692913385826772
        },
        {
          "duration": 0.4411759999999987,
          "durationTicks": 48,
          "midi": 61,
          "name": "C#4",
          "ticks": 4417,
          "time": 40.597383166666674,
          "velocity": 0.7795275590551181
        },
        {
          "duration": 0.661763999999998,
          "durationTicks": 72,
          "midi": 68,
          "name": "G#4",
          "ticks": 4440,
          "time": 40.80878,
          "velocity": 0.7795275590551181
        },
        {
          "duration": 0.6433816666666701,
          "durationTicks": 70,
          "midi": 44,
          "name": "G#2",
          "ticks": 4464,
          "time": 41.029368,
          "velocity": 0.6850393700787402
        },
        {
          "duration": 0.6433816666666701,
          "durationTicks": 70,
          "midi": 51,
          "name": "D#3",
          "ticks": 4464,
          "time": 41.029368,
          "velocity": 0.6535433070866141
        },
        {
          "duration": 0.6525728333333305,
          "durationTicks": 71,
          "midi": 61,
          "name": "C#4",
          "ticks": 4465,
          "time": 41.03855916666667,
          "velocity": 0.7795275590551181
        },
        {
          "duration": 0.4411760000000058,
          "durationTicks": 48,
          "midi": 60,
          "name": "C4",
          "ticks": 4488,
          "time": 41.249956,
          "velocity": 0.5748031496062992
        },
        {
          "duration": 0.6617640000000051,
          "durationTicks": 72,
          "midi": 63,
          "name": "D#4",
          "ticks": 4512,
          "time": 41.470544,
          "velocity": 0.7795275590551181
        },
        {
          "duration": 0.6433816666666701,
          "durationTicks": 70,
          "midi": 44,
          "name": "G#2",
          "ticks": 4536,
          "time": 41.691132,
          "velocity": 0.7007874015748031
        },
        {
          "duration": 0.6433816666666701,
          "durationTicks": 70,
          "midi": 51,
          "name": "D#3",
          "ticks": 4536,
          "time": 41.691132,
          "velocity": 0.6535433070866141
        },
        {
          "duration": 0.6525728333333305,
          "durationTicks": 71,
          "midi": 60,
          "name": "C4",
          "ticks": 4537,
          "time": 41.70032316666667,
          "velocity": 0.8346456692913385
        },
        {
          "duration": 0.661763999999998,
          "durationTicks": 72,
          "midi": 68,
          "name": "G#4",
          "ticks": 4560,
          "time": 41.91172,
          "velocity": 0.6141732283464567
        },
        {
          "duration": 0.6433816666666701,
          "durationTicks": 70,
          "midi": 63,
          "name": "D#4",
          "ticks": 4584,
          "time": 42.132308,
          "velocity": 0.7795275590551181
        },
        {
          "duration": 0.4044113333333357,
          "durationTicks": 44,
          "midi": 44,
          "name": "G#2",
          "ticks": 4608,
          "time": 42.352896,
          "velocity": 0.6614173228346457
        },
        {
          "duration": 0.4044113333333357,
          "durationTicks": 44,
          "midi": 51,
          "name": "D#3",
          "ticks": 4608,
          "time": 42.352896,
          "velocity": 0.6535433070866141
        },
        {
          "duration": 0.4136025000000032,
          "durationTicks": 45,
          "midi": 60,
          "name": "C4",
          "ticks": 4609,
          "time": 42.36208716666667,
          "velocity": 0.7795275590551181
        },
        {
          "duration": 0.2022056666666714,
          "durationTicks": 22,
          "midi": 68,
          "name": "G#4",
          "ticks": 4632,
          "time": 42.573484,
          "velocity": 0.7401574803149606
        },
        {
          "duration": 0.6433816666666701,
          "durationTicks": 70,
          "midi": 46,
          "name": "A#2",
          "ticks": 4656,
          "time": 42.794072,
          "velocity": 0.6535433070866141
        },
        {
          "duration": 0.6433816666666701,
          "durationTicks": 70,
          "midi": 53,
          "name": "F3",
          "ticks": 4656,
          "time": 42.794072,
          "velocity": 0.6141732283464567
        },
        {
          "duration": 0.43198483333333115,
          "durationTicks": 47,
          "midi": 60,
          "name": "C4",
          "ticks": 4657,
          "time": 42.80326316666667,
          "velocity": 0.7795275590551181
        },
        {
          "duration": 0.4411759999999987,
          "durationTicks": 48,
          "midi": 68,
          "name": "G#4",
          "ticks": 4680,
          "time": 43.01466,
          "velocity": 0.6456692913385826
        },
        {
          "duration": 0.661763999999998,
          "durationTicks": 72,
          "midi": 63,
          "name": "D#4",
          "ticks": 4704,
          "time": 43.235248,
          "velocity": 0.84251968503937
        },
        {
          "duration": 0.6433816666666701,
          "durationTicks": 70,
          "midi": 46,
          "name": "A#2",
          "ticks": 4728,
          "time": 43.455836,
          "velocity": 0.6535433070866141
        },
        {
          "duration": 0.6433816666666701,
          "durationTicks": 70,
          "midi": 53,
          "name": "F3",
          "ticks": 4728,
          "time": 43.455836,
          "velocity": 0.7007874015748031
        },
        {
          "duration": 0.6525728333333305,
          "durationTicks": 71,
          "midi": 60,
          "name": "C4",
          "ticks": 4729,
          "time": 43.46502716666667,
          "velocity": 0.7795275590551181
        },
        {
          "duration": 0.6617640000000051,
          "durationTicks": 72,
          "midi": 68,
          "name": "G#4",
          "ticks": 4752,
          "time": 43.676424,
          "velocity": 0.7795275590551181
        },
        {
          "duration": 0.6617640000000051,
          "durationTicks": 72,
          "midi": 63,
          "name": "D#4",
          "ticks": 4776,
          "time": 43.897012,
          "velocity": 0.7795275590551181
        },
        {
          "duration": 0.42279366666667073,
          "durationTicks": 46,
          "midi": 46,
          "name": "A#2",
          "ticks": 4800,
          "time": 44.1176,
          "velocity": 0.6535433070866141
        },
        {
          "duration": 0.42279366666667073,
          "durationTicks": 46,
          "midi": 53,
          "name": "F3",
          "ticks": 4800,
          "time": 44.1176,
          "velocity": 0.6771653543307087
        },
        {
          "duration": 0.43198483333333115,
          "durationTicks": 47,
          "midi": 60,
          "name": "C4",
          "ticks": 4801,
          "time": 44.12679116666667,
          "velocity": 0.7795275590551181
        },
        {
          "duration": 0.4411759999999987,
          "durationTicks": 48,
          "midi": 68,
          "name": "G#4",
          "ticks": 4824,
          "time": 44.338188,
          "velocity": 0.7795275590551181
        },
        {
          "duration": 0.6433816666666701,
          "durationTicks": 70,
          "midi": 49,
          "name": "C#3",
          "ticks": 4848,
          "time": 44.558776,
          "velocity": 0.6535433070866141
        },
        {
          "duration": 0.6433816666666701,
          "durationTicks": 70,
          "midi": 56,
          "name": "G#3",
          "ticks": 4848,
          "time": 44.558776,
          "velocity": 0.6141732283464567
        },
        {
          "duration": 0.43198483333333115,
          "durationTicks": 47,
          "midi": 61,
          "name": "C#4",
          "ticks": 4849,
          "time": 44.56796716666667,
          "velocity": 0.7795275590551181
        },
        {
          "duration": 0.661763999999998,
          "durationTicks": 72,
          "midi": 68,
          "name": "G#4",
          "ticks": 4872,
          "time": 44.779364,
          "velocity": 0.7795275590551181
        },
        {
          "duration": 0.661763999999998,
          "durationTicks": 72,
          "midi": 63,
          "name": "D#4",
          "ticks": 4896,
          "time": 44.999952,
          "velocity": 0.7795275590551181
        },
        {
          "duration": 0.6433816666666701,
          "durationTicks": 70,
          "midi": 49,
          "name": "C#3",
          "ticks": 4920,
          "time": 45.22054,
          "velocity": 0.7007874015748031
        },
        {
          "duration": 0.6433816666666701,
          "durationTicks": 70,
          "midi": 56,
          "name": "G#3",
          "ticks": 4920,
          "time": 45.22054,
          "velocity": 0.7007874015748031
        },
        {
          "duration": 0.6525728333333234,
          "durationTicks": 71,
          "midi": 61,
          "name": "C#4",
          "ticks": 4921,
          "time": 45.229731166666674,
          "velocity": 0.7795275590551181
        },
        {
          "duration": 0.661763999999998,
          "durationTicks": 72,
          "midi": 68,
          "name": "G#4",
          "ticks": 4944,
          "time": 45.441128,
          "velocity": 0.7795275590551181
        },
        {
          "duration": 0.6617640000000051,
          "durationTicks": 72,
          "midi": 63,
          "name": "D#4",
          "ticks": 4968,
          "time": 45.661716,
          "velocity": 0.7795275590551181
        },
        {
          "duration": 0.4044113333333357,
          "durationTicks": 44,
          "midi": 49,
          "name": "C#3",
          "ticks": 4992,
          "time": 45.882304,
          "velocity": 0.7007874015748031
        },
        {
          "duration": 0.4044113333333357,
          "durationTicks": 44,
          "midi": 56,
          "name": "G#3",
          "ticks": 4992,
          "time": 45.882304,
          "velocity": 0.6771653543307087
        },
        {
          "duration": 0.4136024999999961,
          "durationTicks": 45,
          "midi": 61,
          "name": "C#4",
          "ticks": 4993,
          "time": 45.89149516666667,
          "velocity": 0.7795275590551181
        },
        {
          "duration": 0.2022056666666714,
          "durationTicks": 22,
          "midi": 68,
          "name": "G#4",
          "ticks": 5016,
          "time": 46.102892,
          "velocity": 0.7795275590551181
        },
        {
          "duration": 0.6433816666666701,
          "durationTicks": 70,
          "midi": 42,
          "name": "F#2",
          "ticks": 5040,
          "time": 46.32348,
          "velocity": 0.6535433070866141
        },
        {
          "duration": 0.6433816666666701,
          "durationTicks": 70,
          "midi": 49,
          "name": "C#3",
          "ticks": 5040,
          "time": 46.32348,
          "velocity": 0.6141732283464567
        },
        {
          "duration": 0.43198483333333115,
          "durationTicks": 47,
          "midi": 61,
          "name": "C#4",
          "ticks": 5041,
          "time": 46.33267116666667,
          "velocity": 0.7795275590551181
        },
        {
          "duration": 0.661763999999998,
          "durationTicks": 72,
          "midi": 68,
          "name": "G#4",
          "ticks": 5064,
          "time": 46.544068,
          "velocity": 0.7795275590551181
        },
        {
          "duration": 0.661763999999998,
          "durationTicks": 72,
          "midi": 63,
          "name": "D#4",
          "ticks": 5088,
          "time": 46.764656,
          "velocity": 0.7795275590551181
        },
        {
          "duration": 0.6433816666666701,
          "durationTicks": 70,
          "midi": 42,
          "name": "F#2",
          "ticks": 5112,
          "time": 46.985244,
          "velocity": 0.7007874015748031
        },
        {
          "duration": 0.6433816666666701,
          "durationTicks": 70,
          "midi": 49,
          "name": "C#3",
          "ticks": 5112,
          "time": 46.985244,
          "velocity": 0.6535433070866141
        },
        {
          "duration": 0.6525728333333305,
          "durationTicks": 71,
          "midi": 61,
          "name": "C#4",
          "ticks": 5113,
          "time": 46.99443516666667,
          "velocity": 0.7795275590551181
        },
        {
          "duration": 0.661763999999998,
          "durationTicks": 72,
          "midi": 68,
          "name": "G#4",
          "ticks": 5136,
          "time": 47.205832,
          "velocity": 0.7795275590551181
        },
        {
          "duration": 0.661763999999998,
          "durationTicks": 72,
          "midi": 63,
          "name": "D#4",
          "ticks": 5160,
          "time": 47.42642,
          "velocity": 0.7795275590551181
        },
        {
          "duration": 0.4044113333333357,
          "durationTicks": 44,
          "midi": 42,
          "name": "F#2",
          "ticks": 5184,
          "time": 47.647008,
          "velocity": 0.6377952755905512
        },
        {
          "duration": 0.4044113333333357,
          "durationTicks": 44,
          "midi": 49,
          "name": "C#3",
          "ticks": 5184,
          "time": 47.647008,
          "velocity": 0.6377952755905512
        },
        {
          "duration": 0.4227936666666636,
          "durationTicks": 46,
          "midi": 61,
          "name": "C#4",
          "ticks": 5185,
          "time": 47.656199166666674,
          "velocity": 0.7795275590551181
        },
        {
          "duration": 0.22058799999999934,
          "durationTicks": 24,
          "midi": 68,
          "name": "G#4",
          "ticks": 5208,
          "time": 47.867596,
          "velocity": 0.7795275590551181
        },
        {
          "duration": 0.6433816666666701,
          "durationTicks": 70,
          "midi": 44,
          "name": "G#2",
          "ticks": 5232,
          "time": 48.088184,
          "velocity": 0.6614173228346457
        },
        {
          "duration": 0.6433816666666701,
          "durationTicks": 70,
          "midi": 51,
          "name": "D#3",
          "ticks": 5232,
          "time": 48.088184,
          "velocity": 0.6535433070866141
        },
        {
          "duration": 0.6525728333333305,
          "durationTicks": 71,
          "midi": 61,
          "name": "C#4",
          "ticks": 5233,
          "time": 48.09737516666667,
          "velocity": 0.7795275590551181
        },
        {
          "duration": 0.4411760000000058,
          "durationTicks": 48,
          "midi": 68,
          "name": "G#4",
          "ticks": 5256,
          "time": 48.308772,
          "velocity": 0.7795275590551181
        },
        {
          "duration": 0.6617640000000051,
          "durationTicks": 72,
          "midi": 63,
          "name": "D#4",
          "ticks": 5280,
          "time": 48.52936,
          "velocity": 0.7795275590551181
        },
        {
          "duration": 0.6433816666666701,
          "durationTicks": 70,
          "midi": 44,
          "name": "G#2",
          "ticks": 5304,
          "time": 48.749948,
          "velocity": 0.7007874015748031
        },
        {
          "duration": 0.6433816666666701,
          "durationTicks": 70,
          "midi": 51,
          "name": "D#3",
          "ticks": 5304,
          "time": 48.749948,
          "velocity": 0.6535433070866141
        },
        {
          "duration": 0.6525728333333305,
          "durationTicks": 71,
          "midi": 60,
          "name": "C4",
          "ticks": 5305,
          "time": 48.75913916666667,
          "velocity": 0.7795275590551181
        },
        {
          "duration": 0.661763999999998,
          "durationTicks": 72,
          "midi": 68,
          "name": "G#4",
          "ticks": 5328,
          "time": 48.970536,
          "velocity": 0.7795275590551181
        },
        {
          "duration": 0.6433816666666701,
          "durationTicks": 70,
          "midi": 63,
          "name": "D#4",
          "ticks": 5352,
          "time": 49.191124,
          "velocity": 0.7795275590551181
        },
        {
          "duration": 0.4044113333333357,
          "durationTicks": 44,
          "midi": 44,
          "name": "G#2",
          "ticks": 5376,
          "time": 49.411712,
          "velocity": 0.6850393700787402
        },
        {
          "duration": 0.4044113333333357,
          "durationTicks": 44,
          "midi": 51,
          "name": "D#3",
          "ticks": 5376,
          "time": 49.411712,
          "velocity": 0.6535433070866141
        },
        {
          "duration": 0.4227936666666636,
          "durationTicks": 46,
          "midi": 60,
          "name": "C4",
          "ticks": 5377,
          "time": 49.42090316666667,
          "velocity": 0.7795275590551181
        },
        {
          "duration": 0.2022056666666714,
          "durationTicks": 22,
          "midi": 68,
          "name": "G#4",
          "ticks": 5400,
          "time": 49.6323,
          "velocity": 0.7795275590551181
        },
        {
          "duration": 0.6433816666666701,
          "durationTicks": 70,
          "midi": 46,
          "name": "A#2",
          "ticks": 5424,
          "time": 49.852888,
          "velocity": 0.6850393700787402
        },
        {
          "duration": 0.6433816666666701,
          "durationTicks": 70,
          "midi": 53,
          "name": "F3",
          "ticks": 5424,
          "time": 49.852888,
          "velocity": 0.6614173228346457
        },
        {
          "duration": 0.43198483333333115,
          "durationTicks": 47,
          "midi": 60,
          "name": "C4",
          "ticks": 5425,
          "time": 49.86207916666667,
          "velocity": 0.7795275590551181
        },
        {
          "duration": 0.4411759999999987,
          "durationTicks": 48,
          "midi": 68,
          "name": "G#4",
          "ticks": 5448,
          "time": 50.073476,
          "velocity": 0.7795275590551181
        },
        {
          "duration": 0.661763999999998,
          "durationTicks": 72,
          "midi": 63,
          "name": "D#4",
          "ticks": 5472,
          "time": 50.294064,
          "velocity": 0.7795275590551181
        },
        {
          "duration": 0.6433816666666701,
          "durationTicks": 70,
          "midi": 46,
          "name": "A#2",
          "ticks": 5496,
          "time": 50.514652,
          "velocity": 0.6850393700787402
        },
        {
          "duration": 0.6433816666666701,
          "durationTicks": 70,
          "midi": 53,
          "name": "F3",
          "ticks": 5496,
          "time": 50.514652,
          "velocity": 0.6614173228346457
        },
        {
          "duration": 0.6525728333333305,
          "durationTicks": 71,
          "midi": 60,
          "name": "C4",
          "ticks": 5497,
          "time": 50.52384316666667,
          "velocity": 0.7795275590551181
        },
        {
          "duration": 0.6617640000000051,
          "durationTicks": 72,
          "midi": 68,
          "name": "G#4",
          "ticks": 5520,
          "time": 50.73524,
          "velocity": 0.7795275590551181
        },
        {
          "duration": 0.6617640000000051,
          "durationTicks": 72,
          "midi": 63,
          "name": "D#4",
          "ticks": 5544,
          "time": 50.955828,
          "velocity": 0.7795275590551181
        },
        {
          "duration": 0.4136024999999961,
          "durationTicks": 45,
          "midi": 46,
          "name": "A#2",
          "ticks": 5568,
          "time": 51.176416,
          "velocity": 0.6614173228346457
        },
        {
          "duration": 0.4136024999999961,
          "durationTicks": 45,
          "midi": 53,
          "name": "F3",
          "ticks": 5568,
          "time": 51.176416,
          "velocity": 0.6456692913385826
        },
        {
          "duration": 0.4411759999999987,
          "durationTicks": 48,
          "midi": 60,
          "name": "C4",
          "ticks": 5569,
          "time": 51.18560716666667,
          "velocity": 0.7795275590551181
        },
        {
          "duration": 0.4411759999999987,
          "durationTicks": 48,
          "midi": 68,
          "name": "G#4",
          "ticks": 5592,
          "time": 51.397004,
          "velocity": 0.7795275590551181
        },
        {
          "duration": 0.6433816666666701,
          "durationTicks": 70,
          "midi": 49,
          "name": "C#3",
          "ticks": 5616,
          "time": 51.617592,
          "velocity": 0.7007874015748031
        },
        {
          "duration": 0.6433816666666701,
          "durationTicks": 70,
          "midi": 56,
          "name": "G#3",
          "ticks": 5616,
          "time": 51.617592,
          "velocity": 0.6535433070866141
        },
        {
          "duration": 0.43198483333333115,
          "durationTicks": 47,
          "midi": 61,
          "name": "C#4",
          "ticks": 5617,
          "time": 51.62678316666667,
          "velocity": 0.7795275590551181
        },
        {
          "duration": 0.661763999999998,
          "durationTicks": 72,
          "midi": 68,
          "name": "G#4",
          "ticks": 5640,
          "time": 51.83818,
          "velocity": 0.7795275590551181
        },
        {
          "duration": 0.661763999999998,
          "durationTicks": 72,
          "midi": 63,
          "name": "D#4",
          "ticks": 5664,
          "time": 52.058768,
          "velocity": 0.7795275590551181
        },
        {
          "duration": 0.6433816666666701,
          "durationTicks": 70,
          "midi": 49,
          "name": "C#3",
          "ticks": 5688,
          "time": 52.279356,
          "velocity": 0.6850393700787402
        },
        {
          "duration": 0.6433816666666701,
          "durationTicks": 70,
          "midi": 56,
          "name": "G#3",
          "ticks": 5688,
          "time": 52.279356,
          "velocity": 0.6535433070866141
        },
        {
          "duration": 0.6525728333333234,
          "durationTicks": 71,
          "midi": 61,
          "name": "C#4",
          "ticks": 5689,
          "time": 52.288547166666675,
          "velocity": 0.7795275590551181
        },
        {
          "duration": 0.661763999999998,
          "durationTicks": 72,
          "midi": 68,
          "name": "G#4",
          "ticks": 5712,
          "time": 52.499944,
          "velocity": 0.7795275590551181
        },
        {
          "duration": 0.5514700000000019,
          "durationTicks": 60,
          "midi": 63,
          "name": "D#4",
          "ticks": 5736,
          "time": 52.720532,
          "velocity": 0.7795275590551181
        },
        {
          "duration": 0.3124996666666746,
          "durationTicks": 34,
          "midi": 49,
          "name": "C#3",
          "ticks": 5760,
          "time": 52.94112,
          "velocity": 0.6614173228346457
        },
        {
          "duration": 0.3124996666666746,
          "durationTicks": 34,
          "midi": 56,
          "name": "G#3",
          "ticks": 5760,
          "time": 52.94112,
          "velocity": 0.6535433070866141
        },
        {
          "duration": 0.32169083333332793,
          "durationTicks": 35,
          "midi": 61,
          "name": "C#4",
          "ticks": 5761,
          "time": 52.95031116666667,
          "velocity": 0.7795275590551181
        },
        {
          "duration": 0.1011028333333357,
          "durationTicks": 11,
          "midi": 68,
          "name": "G#4",
          "ticks": 5784,
          "time": 53.161708,
          "velocity": 0.7795275590551181
        },
        {
          "duration": 0.009191166666667527,
          "durationTicks": 1,
          "midi": 68,
          "name": "G#4",
          "ticks": 5796,
          "time": 53.272002,
          "velocity": 0.6141732283464567
        },
        {
          "duration": 0.20220566666666429,
          "durationTicks": 22,
          "midi": 53,
          "name": "F3",
          "ticks": 5808,
          "time": 53.382296000000004,
          "velocity": 0.6141732283464567
        },
        {
          "duration": 0.20220566666666429,
          "durationTicks": 22,
          "midi": 61,
          "name": "C#4",
          "ticks": 5808,
          "time": 53.382296000000004,
          "velocity": 0.7795275590551181
        },
        {
          "duration": 0.2022056666666714,
          "durationTicks": 22,
          "midi": 49,
          "name": "C#3",
          "ticks": 5832,
          "time": 53.602884,
          "velocity": 0.6141732283464567
        },
        {
          "duration": 0.2022056666666714,
          "durationTicks": 22,
          "midi": 58,
          "name": "A#3",
          "ticks": 5832,
          "time": 53.602884,
          "velocity": 0.7795275590551181
        },
        {
          "duration": 0.15624983333333375,
          "durationTicks": 17,
          "midi": 53,
          "name": "F3",
          "ticks": 5856,
          "time": 53.823472,
          "velocity": 0.6141732283464567
        },
        {
          "duration": 0.15624983333333375,
          "durationTicks": 17,
          "midi": 61,
          "name": "C#4",
          "ticks": 5856,
          "time": 53.823472,
          "velocity": 0.7795275590551181
        },
        {
          "duration": 0.3676466666666727,
          "durationTicks": 40,
          "midi": 51,
          "name": "D#3",
          "ticks": 5880,
          "time": 54.04406,
          "velocity": 0.6141732283464567
        },
        {
          "duration": 0.3768378333333331,
          "durationTicks": 41,
          "midi": 60,
          "name": "C4",
          "ticks": 5880,
          "time": 54.04406,
          "velocity": 0.7795275590551181
        },
        {
          "duration": 0.1746321666666688,
          "durationTicks": 19,
          "midi": 49,
          "name": "C#3",
          "ticks": 5928,
          "time": 54.485236,
          "velocity": 0.6141732283464567
        },
        {
          "duration": 0.18382333333333634,
          "durationTicks": 20,
          "midi": 58,
          "name": "A#3",
          "ticks": 5928,
          "time": 54.485236,
          "velocity": 0.7795275590551181
        },
        {
          "duration": 0.1746321666666688,
          "durationTicks": 19,
          "midi": 48,
          "name": "C3",
          "ticks": 5952,
          "time": 54.705824,
          "velocity": 0.6141732283464567
        },
        {
          "duration": 0.1746321666666688,
          "durationTicks": 19,
          "midi": 56,
          "name": "G#3",
          "ticks": 5952,
          "time": 54.705824,
          "velocity": 0.7795275590551181
        },
        {
          "duration": 0.3768378333333402,
          "durationTicks": 41,
          "midi": 49,
          "name": "C#3",
          "ticks": 5976,
          "time": 54.926412,
          "velocity": 0.6141732283464567
        },
        {
          "duration": 0.3768378333333402,
          "durationTicks": 41,
          "midi": 58,
          "name": "A#3",
          "ticks": 5976,
          "time": 54.926412,
          "velocity": 0.7795275590551181
        },
        {
          "duration": 0.15624983333334086,
          "durationTicks": 17,
          "midi": 48,
          "name": "C3",
          "ticks": 6024,
          "time": 55.367588,
          "velocity": 0.6141732283464567
        },
        {
          "duration": 0.15624983333334086,
          "durationTicks": 17,
          "midi": 56,
          "name": "G#3",
          "ticks": 6024,
          "time": 55.367588,
          "velocity": 0.7795275590551181
        },
        {
          "duration": 0.1378675000000058,
          "durationTicks": 15,
          "midi": 46,
          "name": "A#2",
          "ticks": 6048,
          "time": 55.588176,
          "velocity": 0.6141732283464567
        },
        {
          "duration": 0.1378675000000058,
          "durationTicks": 15,
          "midi": 54,
          "name": "F#3",
          "ticks": 6048,
          "time": 55.588176,
          "velocity": 0.7795275590551181
        },
        {
          "duration": 0.36764666666666557,
          "durationTicks": 40,
          "midi": 48,
          "name": "C3",
          "ticks": 6072,
          "time": 55.808764000000004,
          "velocity": 0.6141732283464567
        },
        {
          "duration": 0.3860289999999935,
          "durationTicks": 42,
          "midi": 56,
          "name": "G#3",
          "ticks": 6072,
          "time": 55.808764000000004,
          "velocity": 0.7795275590551181
        },
        {
          "duration": 0.15624983333333375,
          "durationTicks": 17,
          "midi": 46,
          "name": "A#2",
          "ticks": 6120,
          "time": 56.24994,
          "velocity": 0.6141732283464567
        },
        {
          "duration": 0.15624983333333375,
          "durationTicks": 17,
          "midi": 54,
          "name": "F#3",
          "ticks": 6120,
          "time": 56.24994,
          "velocity": 0.7795275590551181
        },
        {
          "duration": 0.39522016666666815,
          "durationTicks": 43,
          "midi": 44,
          "name": "G#2",
          "ticks": 6144,
          "time": 56.470528,
          "velocity": 0.6141732283464567
        },
        {
          "duration": 0.39522016666666815,
          "durationTicks": 43,
          "midi": 53,
          "name": "F3",
          "ticks": 6144,
          "time": 56.470528,
          "velocity": 0.7795275590551181
        },
        {
          "duration": 0.15624983333333375,
          "durationTicks": 17,
          "midi": 46,
          "name": "A#2",
          "ticks": 6192,
          "time": 56.911704,
          "velocity": 0.6141732283464567
        },
        {
          "duration": 0.15624983333333375,
          "durationTicks": 17,
          "midi": 54,
          "name": "F#3",
          "ticks": 6192,
          "time": 56.911704,
          "velocity": 0.7795275590551181
        },
        {
          "duration": 0.15624983333333375,
          "durationTicks": 17,
          "midi": 44,
          "name": "G#2",
          "ticks": 6216,
          "time": 57.132292,
          "velocity": 0.6141732283464567
        },
        {
          "duration": 0.16544100000000128,
          "durationTicks": 18,
          "midi": 53,
          "name": "F3",
          "ticks": 6216,
          "time": 57.132292,
          "velocity": 0.7795275590551181
        },
        {
          "duration": 0.12867633333333828,
          "durationTicks": 14,
          "midi": 46,
          "name": "A#2",
          "ticks": 6240,
          "time": 57.35288,
          "velocity": 0.6141732283464567
        },
        {
          "duration": 0.1378674999999987,
          "durationTicks": 15,
          "midi": 54,
          "name": "F#3",
          "ticks": 6240,
          "time": 57.35288,
          "velocity": 0.7795275590551181
        },
        {
          "duration": 0.3676466666666727,
          "durationTicks": 40,
          "midi": 48,
          "name": "C3",
          "ticks": 6264,
          "time": 57.573468,
          "velocity": 0.6141732283464567
        },
        {
          "duration": 0.3768378333333402,
          "durationTicks": 41,
          "midi": 56,
          "name": "G#3",
          "ticks": 6264,
          "time": 57.573468,
          "velocity": 0.7795275590551181
        },
        {
          "duration": 0.15624983333334086,
          "durationTicks": 17,
          "midi": 46,
          "name": "A#2",
          "ticks": 6312,
          "time": 58.014644,
          "velocity": 0.6141732283464567
        },
        {
          "duration": 0.15624983333334086,
          "durationTicks": 17,
          "midi": 54,
          "name": "F#3",
          "ticks": 6312,
          "time": 58.014644,
          "velocity": 0.7795275590551181
        },
        {
          "duration": 0.1378675000000058,
          "durationTicks": 15,
          "midi": 48,
          "name": "C3",
          "ticks": 6336,
          "time": 58.235232,
          "velocity": 0.6141732283464567
        },
        {
          "duration": 0.14705866666665912,
          "durationTicks": 16,
          "midi": 56,
          "name": "G#3",
          "ticks": 6336,
          "time": 58.235232,
          "velocity": 0.7795275590551181
        },
        {
          "duration": 1.5257336666666745,
          "durationTicks": 166,
          "midi": 50,
          "name": "D3",
          "ticks": 6361,
          "time": 58.46501116666666,
          "velocity": 0.6141732283464567
        },
        {
          "duration": 1.5257336666666745,
          "durationTicks": 166,
          "midi": 58,
          "name": "A#3",
          "ticks": 6361,
          "time": 58.46501116666666,
          "velocity": 0.7795275590551181
        },
        {
          "duration": 0.6617640000000051,
          "durationTicks": 72,
          "midi": 54,
          "name": "F#3",
          "ticks": 6576,
          "time": 60.441112000000004,
          "velocity": 0.6141732283464567
        },
        {
          "duration": 1.3051456666666752,
          "durationTicks": 142,
          "midi": 61,
          "name": "C#4",
          "ticks": 6577,
          "time": 60.450303166666664,
          "velocity": 0.7244094488188977
        },
        {
          "duration": 0.6617640000000051,
          "durationTicks": 72,
          "midi": 65,
          "name": "F4",
          "ticks": 6600,
          "time": 60.6617,
          "velocity": 0.8031496062992126
        },
        {
          "duration": 0.661763999999998,
          "durationTicks": 72,
          "midi": 63,
          "name": "D#4",
          "ticks": 6624,
          "time": 60.88228800000001,
          "velocity": 0.7559055118110236
        },
        {
          "duration": 1.056984166666659,
          "durationTicks": 115,
          "midi": 54,
          "name": "F#3",
          "ticks": 6648,
          "time": 61.10287600000001,
          "velocity": 0.6141732283464567
        },
        {
          "duration": 0.6525728333333447,
          "durationTicks": 71,
          "midi": 68,
          "name": "G#4",
          "ticks": 6673,
          "time": 61.33265516666666,
          "velocity": 0.7401574803149606
        },
        {
          "duration": 0.6249993333333279,
          "durationTicks": 68,
          "midi": 63,
          "name": "D#4",
          "ticks": 6696,
          "time": 61.54405200000001,
          "velocity": 0.6929133858267716
        },
        {
          "duration": 0.40441133333332857,
          "durationTicks": 44,
          "midi": 61,
          "name": "C#4",
          "ticks": 6720,
          "time": 61.76464000000001,
          "velocity": 0.7637795275590551
        },
        {
          "duration": 0.2113968333333318,
          "durationTicks": 23,
          "midi": 68,
          "name": "G#4",
          "ticks": 6744,
          "time": 61.985228000000006,
          "velocity": 0.7795275590551181
        },
        {
          "duration": 0.661763999999998,
          "durationTicks": 72,
          "midi": 56,
          "name": "G#3",
          "ticks": 6768,
          "time": 62.205816000000006,
          "velocity": 0.5511811023622047
        },
        {
          "duration": 0.6525728333333376,
          "durationTicks": 71,
          "midi": 61,
          "name": "C#4",
          "ticks": 6769,
          "time": 62.215007166666666,
          "velocity": 0.7637795275590551
        },
        {
          "duration": 1.5257336666666603,
          "durationTicks": 166,
          "midi": 65,
          "name": "F4",
          "ticks": 6792,
          "time": 62.426404000000005,
          "velocity": 0.6535433070866141
        },
        {
          "duration": 0.6617640000000051,
          "durationTicks": 72,
          "midi": 63,
          "name": "D#4",
          "ticks": 6816,
          "time": 62.646992000000004,
          "velocity": 0.6929133858267716
        },
        {
          "duration": 0.6617640000000051,
          "durationTicks": 72,
          "midi": 56,
          "name": "G#3",
          "ticks": 6840,
          "time": 62.867580000000004,
          "velocity": 0.6535433070866141
        },
        {
          "duration": 0.661763999999998,
          "durationTicks": 72,
          "midi": 60,
          "name": "C4",
          "ticks": 6841,
          "time": 62.876771166666664,
          "velocity": 0.7480314960629921
        },
        {
          "duration": 0.661763999999998,
          "durationTicks": 72,
          "midi": 68,
          "name": "G#4",
          "ticks": 6864,
          "time": 63.08816800000001,
          "velocity": 0.7086614173228346
        },
        {
          "duration": 0.6433816666666559,
          "durationTicks": 70,
          "midi": 63,
          "name": "D#4",
          "ticks": 6888,
          "time": 63.30875600000001,
          "velocity": 0.7322834645669292
        },
        {
          "duration": 0.4227936666666565,
          "durationTicks": 46,
          "midi": 56,
          "name": "G#3",
          "ticks": 6912,
          "time": 63.52934400000001,
          "velocity": 0.6535433070866141
        },
        {
          "duration": 0.4136025000000032,
          "durationTicks": 45,
          "midi": 60,
          "name": "C4",
          "ticks": 6913,
          "time": 63.53853516666666,
          "velocity": 0.7480314960629921
        },
        {
          "duration": 0.20220566666665718,
          "durationTicks": 22,
          "midi": 68,
          "name": "G#4",
          "ticks": 6936,
          "time": 63.74993200000001,
          "velocity": 0.6850393700787402
        },
        {
          "duration": 0.8547784999999948,
          "durationTicks": 93,
          "midi": 49,
          "name": "C#3",
          "ticks": 6960,
          "time": 63.97052000000001,
          "velocity": 0.6299212598425197
        },
        {
          "duration": 0.6525728333333305,
          "durationTicks": 71,
          "midi": 60,
          "name": "C4",
          "ticks": 6961,
          "time": 63.97971116666667,
          "velocity": 0.7716535433070866
        },
        {
          "duration": 0.6617640000000051,
          "durationTicks": 72,
          "midi": 68,
          "name": "G#4",
          "ticks": 6984,
          "time": 64.191108,
          "velocity": 0.7637795275590551
        },
        {
          "duration": 0.4411759999999987,
          "durationTicks": 48,
          "midi": 63,
          "name": "D#4",
          "ticks": 7008,
          "time": 64.411696,
          "velocity": 0.7244094488188977
        },
        {
          "duration": 0.20220566666665718,
          "durationTicks": 22,
          "midi": 61,
          "name": "C#4",
          "ticks": 7032,
          "time": 64.632284,
          "velocity": 0.6535433070866141
        },
        {
          "duration": 0.8547784999999948,
          "durationTicks": 93,
          "midi": 49,
          "name": "C#3",
          "ticks": 7056,
          "time": 64.852872,
          "velocity": 0.5354330708661418
        },
        {
          "duration": 0.4411759999999987,
          "durationTicks": 48,
          "midi": 60,
          "name": "C4",
          "ticks": 7056,
          "time": 64.852872,
          "velocity": 0.6535433070866141
        },
        {
          "duration": 0.873160833333344,
          "durationTicks": 95,
          "midi": 68,
          "name": "G#4",
          "ticks": 7057,
          "time": 64.86206316666666,
          "velocity": 0.7480314960629921
        },
        {
          "duration": 0.4411760000000129,
          "durationTicks": 48,
          "midi": 63,
          "name": "D#4",
          "ticks": 7080,
          "time": 65.07346,
          "velocity": 0.7244094488188977
        },
        {
          "duration": 0.4411759999999987,
          "durationTicks": 48,
          "midi": 61,
          "name": "C#4",
          "ticks": 7104,
          "time": 65.294048,
          "velocity": 0.6535433070866141
        },
        {
          "duration": 0.2113968333333247,
          "durationTicks": 23,
          "midi": 63,
          "name": "D#4",
          "ticks": 7128,
          "time": 65.51463600000001,
          "velocity": 0.7795275590551181
        },
        {
          "duration": 0.6433816666666559,
          "durationTicks": 70,
          "midi": 46,
          "name": "A#2",
          "ticks": 7152,
          "time": 65.735224,
          "velocity": 0.6456692913385826
        },
        {
          "duration": 0.6433816666666701,
          "durationTicks": 70,
          "midi": 60,
          "name": "C4",
          "ticks": 7153,
          "time": 65.74441516666666,
          "velocity": 0.7874015748031497
        },
        {
          "duration": 0.4227936666666636,
          "durationTicks": 46,
          "midi": 65,
          "name": "F4",
          "ticks": 7176,
          "time": 65.955812,
          "velocity": 0.7007874015748031
        },
        {
          "duration": 0.20220566666665718,
          "durationTicks": 22,
          "midi": 63,
          "name": "D#4",
          "ticks": 7200,
          "time": 66.1764,
          "velocity": 0.7322834645669292
        },
        {
          "duration": 0.8639696666666623,
          "durationTicks": 94,
          "midi": 46,
          "name": "A#2",
          "ticks": 7224,
          "time": 66.396988,
          "velocity": 0.6614173228346457
        },
        {
          "duration": 0.4411759999999987,
          "durationTicks": 48,
          "midi": 61,
          "name": "C#4",
          "ticks": 7225,
          "time": 66.40617916666666,
          "velocity": 0.6535433070866141
        },
        {
          "duration": 0.4411759999999987,
          "durationTicks": 48,
          "midi": 56,
          "name": "G#3",
          "ticks": 7272,
          "time": 66.838164,
          "velocity": 0.7795275590551181
        },
        {
          "duration": 0.4227936666666636,
          "durationTicks": 46,
          "midi": 61,
          "name": "C#4",
          "ticks": 7296,
          "time": 67.058752,
          "velocity": 0.8267716535433071
        },
        {
          "duration": 0.20220566666665718,
          "durationTicks": 22,
          "midi": 56,
          "name": "G#3",
          "ticks": 7320,
          "time": 67.27934,
          "velocity": 0.7401574803149606
        },
        {
          "duration": 0.6617640000000051,
          "durationTicks": 72,
          "midi": 54,
          "name": "F#3",
          "ticks": 7344,
          "time": 67.499928,
          "velocity": 0.6141732283464567
        },
        {
          "duration": 0.6617639999999909,
          "durationTicks": 72,
          "midi": 61,
          "name": "C#4",
          "ticks": 7368,
          "time": 67.720516,
          "velocity": 0.7244094488188977
        },
        {
          "duration": 0.6617640000000051,
          "durationTicks": 72,
          "midi": 63,
          "name": "D#4",
          "ticks": 7392,
          "time": 67.941104,
          "velocity": 0.7559055118110236
        },
        {
          "duration": 1.056984166666652,
          "durationTicks": 115,
          "midi": 54,
          "name": "F#3",
          "ticks": 7416,
          "time": 68.161692,
          "velocity": 0.7007874015748031
        },
        {
          "duration": 0.43198483333333115,
          "durationTicks": 47,
          "midi": 61,
          "name": "C#4",
          "ticks": 7440,
          "time": 68.38228,
          "velocity": 0.7244094488188977
        },
        {
          "duration": 0.6525728333333376,
          "durationTicks": 71,
          "midi": 66,
          "name": "F#4",
          "ticks": 7441,
          "time": 68.39147116666666,
          "velocity": 0.7401574803149606
        },
        {
          "duration": 0.624999333333335,
          "durationTicks": 68,
          "midi": 63,
          "name": "D#4",
          "ticks": 7464,
          "time": 68.602868,
          "velocity": 0.6929133858267716
        },
        {
          "duration": 0.4044113333333428,
          "durationTicks": 44,
          "midi": 61,
          "name": "C#4",
          "ticks": 7488,
          "time": 68.823456,
          "velocity": 0.7637795275590551
        },
        {
          "duration": 0.2113968333333247,
          "durationTicks": 23,
          "midi": 66,
          "name": "F#4",
          "ticks": 7512,
          "time": 69.044044,
          "velocity": 0.7795275590551181
        },
        {
          "duration": 0.6617639999999909,
          "durationTicks": 72,
          "midi": 53,
          "name": "F3",
          "ticks": 7536,
          "time": 69.264632,
          "velocity": 0.5511811023622047
        },
        {
          "duration": 0.6525728333333376,
          "durationTicks": 71,
          "midi": 60,
          "name": "C4",
          "ticks": 7537,
          "time": 69.27382316666666,
          "velocity": 0.7637795275590551
        },
        {
          "duration": 0.6617640000000051,
          "durationTicks": 72,
          "midi": 69,
          "name": "A4",
          "ticks": 7560,
          "time": 69.48522,
          "velocity": 0.7086614173228346
        },
        {
          "duration": 0.6617639999999909,
          "durationTicks": 72,
          "midi": 63,
          "name": "D#4",
          "ticks": 7584,
          "time": 69.705808,
          "velocity": 0.6929133858267716
        },
        {
          "duration": 1.0845576666666545,
          "durationTicks": 118,
          "midi": 53,
          "name": "F3",
          "ticks": 7608,
          "time": 69.926396,
          "velocity": 0.5511811023622047
        },
        {
          "duration": 0.6525728333333376,
          "durationTicks": 71,
          "midi": 60,
          "name": "C4",
          "ticks": 7609,
          "time": 69.93558716666666,
          "velocity": 0.7480314960629921
        },
        {
          "duration": 0.6617639999999909,
          "durationTicks": 72,
          "midi": 69,
          "name": "A4",
          "ticks": 7632,
          "time": 70.146984,
          "velocity": 0.7086614173228346
        },
        {
          "duration": 0.6433816666666559,
          "durationTicks": 70,
          "midi": 66,
          "name": "F#4",
          "ticks": 7656,
          "time": 70.367572,
          "velocity": 0.7322834645669292
        },
        {
          "duration": 0.4136024999999961,
          "durationTicks": 45,
          "midi": 60,
          "name": "C4",
          "ticks": 7680,
          "time": 70.58816,
          "velocity": 0.7480314960629921
        },
        {
          "duration": 0.20220566666665718,
          "durationTicks": 22,
          "midi": 69,
          "name": "A4",
          "ticks": 7704,
          "time": 70.808748,
          "velocity": 0.6850393700787402
        },
        {
          "duration": 0.6617640000000051,
          "durationTicks": 72,
          "midi": 58,
          "name": "A#3",
          "ticks": 7728,
          "time": 71.029336,
          "velocity": 0.5511811023622047
        },
        {
          "duration": 0.6525728333333518,
          "durationTicks": 71,
          "midi": 70,
          "name": "A#4",
          "ticks": 7729,
          "time": 71.03852716666665,
          "velocity": 0.7637795275590551
        },
        {
          "duration": 0.6617640000000051,
          "durationTicks": 72,
          "midi": 68,
          "name": "G#4",
          "ticks": 7752,
          "time": 71.249924,
          "velocity": 0.7086614173228346
        },
        {
          "duration": 0.6617640000000051,
          "durationTicks": 72,
          "midi": 63,
          "name": "D#4",
          "ticks": 7776,
          "time": 71.470512,
          "velocity": 0.6929133858267716
        },
        {
          "duration": 1.0845576666666545,
          "durationTicks": 118,
          "midi": 58,
          "name": "A#3",
          "ticks": 7800,
          "time": 71.6911,
          "velocity": 0.5511811023622047
        },
        {
          "duration": 0.6525728333333376,
          "durationTicks": 71,
          "midi": 70,
          "name": "A#4",
          "ticks": 7801,
          "time": 71.70029116666666,
          "velocity": 0.7480314960629921
        },
        {
          "duration": 0.6617640000000051,
          "durationTicks": 72,
          "midi": 68,
          "name": "G#4",
          "ticks": 7824,
          "time": 71.911688,
          "velocity": 0.7086614173228346
        },
        {
          "duration": 0.6433816666666559,
          "durationTicks": 70,
          "midi": 63,
          "name": "D#4",
          "ticks": 7848,
          "time": 72.132276,
          "velocity": 0.7322834645669292
        },
        {
          "duration": 0.4136025000000103,
          "durationTicks": 45,
          "midi": 70,
          "name": "A#4",
          "ticks": 7872,
          "time": 72.352864,
          "velocity": 0.7480314960629921
        },
        {
          "duration": 0.20220566666665718,
          "durationTicks": 22,
          "midi": 68,
          "name": "G#4",
          "ticks": 7896,
          "time": 72.573452,
          "velocity": 0.6850393700787402
        },
        {
          "duration": 0.6617640000000051,
          "durationTicks": 72,
          "midi": 58,
          "name": "A#3",
          "ticks": 7920,
          "time": 72.79404,
          "velocity": 0.5511811023622047
        },
        {
          "duration": 0.6525728333333376,
          "durationTicks": 71,
          "midi": 61,
          "name": "C#4",
          "ticks": 7921,
          "time": 72.80323116666666,
          "velocity": 0.7165354330708661
        },
        {
          "duration": 0.6617640000000051,
          "durationTicks": 72,
          "midi": 68,
          "name": "G#4",
          "ticks": 7944,
          "time": 73.014628,
          "velocity": 0.7637795275590551
        },
        {
          "duration": 0.6617640000000051,
          "durationTicks": 72,
          "midi": 63,
          "name": "D#4",
          "ticks": 7968,
          "time": 73.235216,
          "velocity": 0.7086614173228346
        },
        {
          "duration": 0.6617640000000051,
          "durationTicks": 72,
          "midi": 61,
          "name": "C#4",
          "ticks": 7992,
          "time": 73.455804,
          "velocity": 0.6929133858267716
        },
        {
          "duration": 0.6617639999999909,
          "durationTicks": 72,
          "midi": 68,
          "name": "G#4",
          "ticks": 8016,
          "time": 73.676392,
          "velocity": 0.7637795275590551
        },
        {
          "duration": 0.6341905000000025,
          "durationTicks": 69,
          "midi": 63,
          "name": "D#4",
          "ticks": 8040,
          "time": 73.89698,
          "velocity": 0.7086614173228346
        },
        {
          "duration": 0.4227936666666494,
          "durationTicks": 46,
          "midi": 61,
          "name": "C#4",
          "ticks": 8064,
          "time": 74.117568,
          "velocity": 0.6929133858267716
        },
        {
          "duration": 0.20220566666665718,
          "durationTicks": 22,
          "midi": 68,
          "name": "G#4",
          "ticks": 8088,
          "time": 74.338156,
          "velocity": 0.7637795275590551
        },
        {
          "duration": 1.7371304999999921,
          "durationTicks": 189,
          "midi": 54,
          "name": "F#3",
          "ticks": 8112,
          "time": 74.558744,
          "velocity": 0.5354330708661418
        },
        {
          "duration": 0.6525728333333376,
          "durationTicks": 71,
          "midi": 61,
          "name": "C#4",
          "ticks": 8113,
          "time": 74.56793516666666,
          "velocity": 0.7244094488188977
        },
        {
          "duration": 0.6617640000000051,
          "durationTicks": 72,
          "midi": 68,
          "name": "G#4",
          "ticks": 8136,
          "time": 74.779332,
          "velocity": 0.8031496062992126
        },
        {
          "duration": 0.6617639999999909,
          "durationTicks": 72,
          "midi": 63,
          "name": "D#4",
          "ticks": 8160,
          "time": 74.99992,
          "velocity": 0.7559055118110236
        },
        {
          "duration": 0.6617640000000051,
          "durationTicks": 72,
          "midi": 61,
          "name": "C#4",
          "ticks": 8184,
          "time": 75.220508,
          "velocity": 0.7086614173228346
        },
        {
          "duration": 0.6617640000000051,
          "durationTicks": 72,
          "midi": 68,
          "name": "G#4",
          "ticks": 8208,
          "time": 75.441096,
          "velocity": 0.7401574803149606
        },
        {
          "duration": 0.624999333333335,
          "durationTicks": 68,
          "midi": 63,
          "name": "D#4",
          "ticks": 8232,
          "time": 75.661684,
          "velocity": 0.6929133858267716
        },
        {
          "duration": 0.40441133333332857,
          "durationTicks": 44,
          "midi": 61,
          "name": "C#4",
          "ticks": 8256,
          "time": 75.882272,
          "velocity": 0.7637795275590551
        },
        {
          "duration": 0.18382333333332213,
          "durationTicks": 20,
          "midi": 68,
          "name": "G#4",
          "ticks": 8280,
          "time": 76.10286,
          "velocity": 0.7795275590551181
        },
        {
          "duration": 0.6617640000000051,
          "durationTicks": 72,
          "midi": 56,
          "name": "G#3",
          "ticks": 8304,
          "time": 76.323448,
          "velocity": 0.5511811023622047
        },
        {
          "duration": 0.6525728333333518,
          "durationTicks": 71,
          "midi": 61,
          "name": "C#4",
          "ticks": 8305,
          "time": 76.33263916666665,
          "velocity": 0.7637795275590551
        },
        {
          "duration": 1.5257336666666532,
          "durationTicks": 166,
          "midi": 65,
          "name": "F4",
          "ticks": 8328,
          "time": 76.544036,
          "velocity": 0.6535433070866141
        },
        {
          "duration": 0.6617640000000051,
          "durationTicks": 72,
          "midi": 63,
          "name": "D#4",
          "ticks": 8352,
          "time": 76.764624,
          "velocity": 0.6929133858267716
        },
        {
          "duration": 0.6617639999999909,
          "durationTicks": 72,
          "midi": 56,
          "name": "G#3",
          "ticks": 8376,
          "time": 76.985212,
          "velocity": 0.6535433070866141
        },
        {
          "duration": 0.6617640000000051,
          "durationTicks": 72,
          "midi": 60,
          "name": "C4",
          "ticks": 8377,
          "time": 76.99440316666666,
          "velocity": 0.7480314960629921
        },
        {
          "duration": 0.6617640000000051,
          "durationTicks": 72,
          "midi": 68,
          "name": "G#4",
          "ticks": 8400,
          "time": 77.2058,
          "velocity": 0.7086614173228346
        },
        {
          "duration": 0.6433816666666559,
          "durationTicks": 70,
          "midi": 63,
          "name": "D#4",
          "ticks": 8424,
          "time": 77.426388,
          "velocity": 0.7322834645669292
        },
        {
          "duration": 0.4227936666666636,
          "durationTicks": 46,
          "midi": 56,
          "name": "G#3",
          "ticks": 8448,
          "time": 77.646976,
          "velocity": 0.6535433070866141
        },
        {
          "duration": 0.4136024999999961,
          "durationTicks": 45,
          "midi": 60,
          "name": "C4",
          "ticks": 8449,
          "time": 77.65616716666666,
          "velocity": 0.7480314960629921
        },
        {
          "duration": 0.20220566666665718,
          "durationTicks": 22,
          "midi": 68,
          "name": "G#4",
          "ticks": 8472,
          "time": 77.867564,
          "velocity": 0.6850393700787402
        },
        {
          "duration": 1.7279393333333388,
          "durationTicks": 188,
          "midi": 49,
          "name": "C#3",
          "ticks": 8496,
          "time": 78.088152,
          "velocity": 0.6299212598425197
        },
        {
          "duration": 0.6525728333333376,
          "durationTicks": 71,
          "midi": 60,
          "name": "C4",
          "ticks": 8497,
          "time": 78.09734316666666,
          "velocity": 0.7716535433070866
        },
        {
          "duration": 0.4411759999999987,
          "durationTicks": 48,
          "midi": 68,
          "name": "G#4",
          "ticks": 8520,
          "time": 78.30874,
          "velocity": 0.7637795275590551
        },
        {
          "duration": 1.3143368333333285,
          "durationTicks": 143,
          "midi": 56,
          "name": "G#3",
          "ticks": 8544,
          "time": 78.529328,
          "velocity": 0.5354330708661418
        },
        {
          "duration": 0.4411759999999987,
          "durationTicks": 48,
          "midi": 63,
          "name": "D#4",
          "ticks": 8545,
          "time": 78.53851916666666,
          "velocity": 0.7244094488188977
        },
        {
          "duration": 0.20220566666665718,
          "durationTicks": 22,
          "midi": 68,
          "name": "G#4",
          "ticks": 8568,
          "time": 78.749916,
          "velocity": 0.7007874015748031
        },
        {
          "duration": 0.4411759999999987,
          "durationTicks": 48,
          "midi": 60,
          "name": "C4",
          "ticks": 8592,
          "time": 78.970504,
          "velocity": 0.6535433070866141
        },
        {
          "duration": 0.6525728333333376,
          "durationTicks": 71,
          "midi": 68,
          "name": "G#4",
          "ticks": 8593,
          "time": 78.97969516666666,
          "velocity": 0.7480314960629921
        },
        {
          "duration": 0.4411759999999987,
          "durationTicks": 48,
          "midi": 63,
          "name": "D#4",
          "ticks": 8616,
          "time": 79.191092,
          "velocity": 0.7244094488188977
        },
        {
          "duration": 0.4411759999999987,
          "durationTicks": 48,
          "midi": 61,
          "name": "C#4",
          "ticks": 8640,
          "time": 79.41168,
          "velocity": 0.6535433070866141
        },
        {
          "duration": 0.21139683333333892,
          "durationTicks": 23,
          "midi": 68,
          "name": "G#4",
          "ticks": 8664,
          "time": 79.632268,
          "velocity": 0.7086614173228346
        },
        {
          "duration": 0.6433816666666559,
          "durationTicks": 70,
          "midi": 46,
          "name": "A#2",
          "ticks": 8688,
          "time": 79.852856,
          "velocity": 0.6456692913385826
        },
        {
          "duration": 0.6433816666666701,
          "durationTicks": 70,
          "midi": 60,
          "name": "C4",
          "ticks": 8689,
          "time": 79.86204716666666,
          "velocity": 0.7874015748031497
        },
        {
          "duration": 0.4227936666666636,
          "durationTicks": 46,
          "midi": 63,
          "name": "D#4",
          "ticks": 8712,
          "time": 80.073444,
          "velocity": 0.7007874015748031
        },
        {
          "duration": 0.20220566666665718,
          "durationTicks": 22,
          "midi": 70,
          "name": "A#4",
          "ticks": 8736,
          "time": 80.294032,
          "velocity": 0.7322834645669292
        },
        {
          "duration": 0.7720580000000012,
          "durationTicks": 84,
          "midi": 46,
          "name": "A#2",
          "ticks": 8760,
          "time": 80.51462,
          "velocity": 0.6614173228346457
        },
        {
          "duration": 0.4411760000000129,
          "durationTicks": 48,
          "midi": 56,
          "name": "G#3",
          "ticks": 8760,
          "time": 80.51462,
          "velocity": 0.6535433070866141
        },
        {
          "duration": 0.6525728333333376,
          "durationTicks": 71,
          "midi": 62,
          "name": "D4",
          "ticks": 8761,
          "time": 80.52381116666666,
          "velocity": 0.7322834645669292
        },
        {
          "duration": 0.5514699999999948,
          "durationTicks": 60,
          "midi": 56,
          "name": "G#3",
          "ticks": 8808,
          "time": 80.955796,
          "velocity": 0.6850393700787402
        },
        {
          "duration": 0.33088200000000256,
          "durationTicks": 36,
          "midi": 65,
          "name": "F4",
          "ticks": 8832,
          "time": 81.176384,
          "velocity": 0.8267716535433071
        },
        {
          "duration": 0.10110283333332859,
          "durationTicks": 11,
          "midi": 62,
          "name": "D4",
          "ticks": 8856,
          "time": 81.396972,
          "velocity": 0.7401574803149606
        },
        {
          "duration": 0.009191166666653316,
          "durationTicks": 1,
          "midi": 62,
          "name": "D4",
          "ticks": 8868,
          "time": 81.507266,
          "velocity": 0.7795275590551181
        },
        {
          "duration": 1.718748166666657,
          "durationTicks": 187,
          "midi": 51,
          "name": "D#3",
          "ticks": 8880,
          "time": 81.61756,
          "velocity": 0.6850393700787402
        },
        {
          "duration": 0.43198483333333115,
          "durationTicks": 47,
          "midi": 73,
          "name": "C#5",
          "ticks": 8880,
          "time": 81.61756,
          "velocity": 0.8031496062992126
        },
        {
          "duration": 1.7279393333333388,
          "durationTicks": 188,
          "midi": 65,
          "name": "F4",
          "ticks": 8881,
          "time": 81.62675116666666,
          "velocity": 0.7165354330708661
        },
        {
          "duration": 0.6617639999999909,
          "durationTicks": 72,
          "midi": 68,
          "name": "G#4",
          "ticks": 8904,
          "time": 81.838148,
          "velocity": 0.7165354330708661
        },
        {
          "duration": 0.22058800000000645,
          "durationTicks": 24,
          "midi": 63,
          "name": "D#4",
          "ticks": 8928,
          "time": 82.058736,
          "velocity": 0.6929133858267716
        },
        {
          "duration": 0.6617639999999909,
          "durationTicks": 72,
          "midi": 61,
          "name": "C#4",
          "ticks": 8952,
          "time": 82.279324,
          "velocity": 0.7322834645669292
        },
        {
          "duration": 0.6617640000000051,
          "durationTicks": 72,
          "midi": 68,
          "name": "G#4",
          "ticks": 8976,
          "time": 82.499912,
          "velocity": 0.6771653543307087
        },
        {
          "duration": 0.624999333333335,
          "durationTicks": 68,
          "midi": 63,
          "name": "D#4",
          "ticks": 9000,
          "time": 82.7205,
          "velocity": 0.6535433070866141
        },
        {
          "duration": 0.4136025000000103,
          "durationTicks": 45,
          "midi": 61,
          "name": "C#4",
          "ticks": 9024,
          "time": 82.941088,
          "velocity": 0.7480314960629921
        },
        {
          "duration": 0.19301450000000386,
          "durationTicks": 21,
          "midi": 68,
          "name": "G#4",
          "ticks": 9048,
          "time": 83.161676,
          "velocity": 0.7795275590551181
        },
        {
          "duration": 0.8823519999999974,
          "durationTicks": 96,
          "midi": 44,
          "name": "G#2",
          "ticks": 9072,
          "time": 83.382264,
          "velocity": 0.6692913385826772
        },
        {
          "duration": 0.43198483333334536,
          "durationTicks": 47,
          "midi": 61,
          "name": "C#4",
          "ticks": 9073,
          "time": 83.39145516666666,
          "velocity": 0.7086614173228346
        },
        {
          "duration": 0.6433816666666559,
          "durationTicks": 70,
          "midi": 65,
          "name": "F4",
          "ticks": 9096,
          "time": 83.602852,
          "velocity": 0.7795275590551181
        },
        {
          "duration": 0.43198483333333115,
          "durationTicks": 47,
          "midi": 63,
          "name": "D#4",
          "ticks": 9120,
          "time": 83.82344,
          "velocity": 0.6850393700787402
        },
        {
          "duration": 0.19301450000000386,
          "durationTicks": 21,
          "midi": 61,
          "name": "C#4",
          "ticks": 9144,
          "time": 84.044028,
          "velocity": 0.7952755905511811
        },
        {
          "duration": 0.8639696666666481,
          "durationTicks": 94,
          "midi": 44,
          "name": "G#2",
          "ticks": 9168,
          "time": 84.264616,
          "velocity": 0.7007874015748031
        },
        {
          "duration": 0.4411759999999987,
          "durationTicks": 48,
          "midi": 61,
          "name": "C#4",
          "ticks": 9169,
          "time": 84.27380716666666,
          "velocity": 0.7322834645669292
        },
        {
          "duration": 0.4411759999999987,
          "durationTicks": 48,
          "midi": 63,
          "name": "D#4",
          "ticks": 9192,
          "time": 84.485204,
          "velocity": 0.7559055118110236
        },
        {
          "duration": 0.4227936666666494,
          "durationTicks": 46,
          "midi": 60,
          "name": "C4",
          "ticks": 9216,
          "time": 84.705792,
          "velocity": 0.7322834645669292
        },
        {
          "duration": 0.21139683333333892,
          "durationTicks": 23,
          "midi": 63,
          "name": "D#4",
          "ticks": 9240,
          "time": 84.92638,
          "velocity": 0.7795275590551181
        },
        {
          "duration": 1.7463216666666597,
          "durationTicks": 190,
          "midi": 42,
          "name": "F#2",
          "ticks": 9264,
          "time": 85.146968,
          "velocity": 0.7007874015748031
        },
        {
          "duration": 1.7463216666666597,
          "durationTicks": 190,
          "midi": 49,
          "name": "C#3",
          "ticks": 9264,
          "time": 85.146968,
          "velocity": 0.6141732283464567
        },
        {
          "duration": 0.43198483333334536,
          "durationTicks": 47,
          "midi": 56,
          "name": "G#3",
          "ticks": 9265,
          "time": 85.15615916666665,
          "velocity": 0.7795275590551181
        },
        {
          "duration": 0.4411760000000129,
          "durationTicks": 48,
          "midi": 61,
          "name": "C#4",
          "ticks": 9288,
          "time": 85.367556,
          "velocity": 0.7795275590551181
        },
        {
          "duration": 0.6617640000000051,
          "durationTicks": 72,
          "midi": 56,
          "name": "G#3",
          "ticks": 9312,
          "time": 85.588144,
          "velocity": 0.7795275590551181
        },
        {
          "duration": 0.6617639999999909,
          "durationTicks": 72,
          "midi": 63,
          "name": "D#4",
          "ticks": 9336,
          "time": 85.808732,
          "velocity": 0.7795275590551181
        },
        {
          "duration": 0.6617639999999909,
          "durationTicks": 72,
          "midi": 56,
          "name": "G#3",
          "ticks": 9384,
          "time": 86.249908,
          "velocity": 0.7795275590551181
        },
        {
          "duration": 0.22058800000000645,
          "durationTicks": 24,
          "midi": 60,
          "name": "C4",
          "ticks": 9408,
          "time": 86.470496,
          "velocity": 0.7086614173228346
        },
        {
          "duration": 0.22058799999999223,
          "durationTicks": 24,
          "midi": 61,
          "name": "C#4",
          "ticks": 9432,
          "time": 86.691084,
          "velocity": 0.7795275590551181
        },
        {
          "duration": 1.6727923333333337,
          "durationTicks": 182,
          "midi": 42,
          "name": "F#2",
          "ticks": 9456,
          "time": 86.911672,
          "velocity": 0.6141732283464567
        },
        {
          "duration": 1.6727923333333337,
          "durationTicks": 182,
          "midi": 49,
          "name": "C#3",
          "ticks": 9456,
          "time": 86.911672,
          "velocity": 0.6141732283464567
        },
        {
          "duration": 0.43198483333333115,
          "durationTicks": 47,
          "midi": 56,
          "name": "G#3",
          "ticks": 9457,
          "time": 86.92086316666666,
          "velocity": 0.7795275590551181
        },
        {
          "duration": 0.4411759999999987,
          "durationTicks": 48,
          "midi": 61,
          "name": "C#4",
          "ticks": 9480,
          "time": 87.13226,
          "velocity": 0.7795275590551181
        },
        {
          "duration": 0.6617640000000051,
          "durationTicks": 72,
          "midi": 56,
          "name": "G#3",
          "ticks": 9504,
          "time": 87.352848,
          "velocity": 0.7795275590551181
        },
        {
          "duration": 0.6617640000000051,
          "durationTicks": 72,
          "midi": 63,
          "name": "D#4",
          "ticks": 9528,
          "time": 87.573436,
          "velocity": 0.7795275590551181
        },
        {
          "duration": 0.5514699999999948,
          "durationTicks": 60,
          "midi": 56,
          "name": "G#3",
          "ticks": 9576,
          "time": 88.014612,
          "velocity": 0.7795275590551181
        },
        {
          "duration": 0.22058799999999223,
          "durationTicks": 24,
          "midi": 60,
          "name": "C4",
          "ticks": 9600,
          "time": 88.2352,
          "velocity": 0.7086614173228346
        },
        {
          "duration": 0.2113968333333247,
          "durationTicks": 23,
          "midi": 61,
          "name": "C#4",
          "ticks": 9624,
          "time": 88.455788,
          "velocity": 0.7795275590551181
        },
        {
          "duration": 0.055147000000005164,
          "durationTicks": 6,
          "midi": 56,
          "name": "G#3",
          "ticks": 9636,
          "time": 88.566082,
          "velocity": 0.7165354330708661
        },
        {
          "duration": 3.5110256666666686,
          "durationTicks": 382,
          "midi": 42,
          "name": "F#2",
          "ticks": 9644,
          "time": 88.63961133333333,
          "velocity": 0.6377952755905512
        },
        {
          "duration": 3.4926433333333478,
          "durationTicks": 380,
          "midi": 49,
          "name": "C#3",
          "ticks": 9646,
          "time": 88.65799366666666,
          "velocity": 0.5984251968503937
        },
        {
          "duration": 3.4834521666666802,
          "durationTicks": 379,
          "midi": 53,
          "name": "F3",
          "ticks": 9647,
          "time": 88.66718483333332,
          "velocity": 0.5984251968503937
        },
        {
          "duration": 3.4742609999999985,
          "durationTicks": 378,
          "midi": 56,
          "name": "G#3",
          "ticks": 9648,
          "time": 88.676376,
          "velocity": 0.7165354330708661
        },
        {
          "duration": 3.4558786666666776,
          "durationTicks": 376,
          "midi": 61,
          "name": "C#4",
          "ticks": 9650,
          "time": 88.69475833333333,
          "velocity": 0.5511811023622047
        },
        {
          "duration": 1.7003658333333362,
          "durationTicks": 185,
          "midi": 46,
          "name": "A#2",
          "ticks": 10032,
          "time": 92.205784,
          "velocity": 0.5275590551181102
        },
        {
          "duration": 1.7095570000000038,
          "durationTicks": 186,
          "midi": 53,
          "name": "F3",
          "ticks": 10033,
          "time": 92.21497516666666,
          "velocity": 0.5275590551181102
        },
        {
          "duration": 1.7187481666666713,
          "durationTicks": 187,
          "midi": 56,
          "name": "G#3",
          "ticks": 10034,
          "time": 92.22416633333333,
          "velocity": 0.5275590551181102
        },
        {
          "duration": 1.7095570000000038,
          "durationTicks": 186,
          "midi": 63,
          "name": "D#4",
          "ticks": 10035,
          "time": 92.2333575,
          "velocity": 0.5275590551181102
        },
        {
          "duration": 0.4411759999999987,
          "durationTicks": 48,
          "midi": 53,
          "name": "F3",
          "ticks": 10248,
          "time": 94.191076,
          "velocity": 0.5275590551181102
        },
        {
          "duration": 0.22058799999999223,
          "durationTicks": 24,
          "midi": 60,
          "name": "C4",
          "ticks": 10272,
          "time": 94.411664,
          "velocity": 0.5275590551181102
        },
        {
          "duration": 0.8823520000000116,
          "durationTicks": 96,
          "midi": 53,
          "name": "F3",
          "ticks": 10296,
          "time": 94.632252,
          "velocity": 0.5275590551181102
        },
        {
          "duration": 0.43198483333334536,
          "durationTicks": 47,
          "midi": 56,
          "name": "G#3",
          "ticks": 10297,
          "time": 94.64144316666666,
          "velocity": 0.5275590551181102
        },
        {
          "duration": 0.8639696666666765,
          "durationTicks": 94,
          "midi": 61,
          "name": "C#4",
          "ticks": 10298,
          "time": 94.65063433333333,
          "velocity": 0.5275590551181102
        },
        {
          "duration": 0.4411759999999987,
          "durationTicks": 48,
          "midi": 56,
          "name": "G#3",
          "ticks": 10344,
          "time": 95.073428,
          "velocity": 0.5748031496062992
        },
        {
          "duration": 0.0367646666666559,
          "durationTicks": 4,
          "midi": 42,
          "name": "F#2",
          "ticks": 10392,
          "time": 95.514604,
          "velocity": 0.6141732283464567
        },
        {
          "duration": 0.03676466666667011,
          "durationTicks": 4,
          "midi": 49,
          "name": "C#3",
          "ticks": 10394,
          "time": 95.53298633333333,
          "velocity": 0.6535433070866141
        },
        {
          "duration": 0.027573500000002582,
          "durationTicks": 3,
          "midi": 53,
          "name": "F3",
          "ticks": 10395,
          "time": 95.5421775,
          "velocity": 0.7007874015748031
        },
        {
          "duration": 0.1378674999999987,
          "durationTicks": 15,
          "midi": 61,
          "name": "C#4",
          "ticks": 10404,
          "time": 95.624898,
          "velocity": 0.7795275590551181
        },
        {
          "duration": 0.027573500000002582,
          "durationTicks": 3,
          "midi": 56,
          "name": "G#3",
          "ticks": 10405,
          "time": 95.63408916666666,
          "velocity": 0.6141732283464567
        },
        {
          "duration": 3.4742609999999985,
          "durationTicks": 378,
          "midi": 42,
          "name": "F#2",
          "ticks": 10416,
          "time": 95.735192,
          "velocity": 0.7795275590551181
        },
        {
          "duration": 3.465069833333331,
          "durationTicks": 377,
          "midi": 49,
          "name": "C#3",
          "ticks": 10417,
          "time": 95.74438316666667,
          "velocity": 0.7795275590551181
        },
        {
          "duration": 3.4558786666666634,
          "durationTicks": 376,
          "midi": 53,
          "name": "F3",
          "ticks": 10418,
          "time": 95.75357433333333,
          "velocity": 0.7795275590551181
        },
        {
          "duration": 3.4558786666666634,
          "durationTicks": 376,
          "midi": 56,
          "name": "G#3",
          "ticks": 10418,
          "time": 95.75357433333333,
          "velocity": 0.7795275590551181
        },
        {
          "duration": 3.446687499999996,
          "durationTicks": 375,
          "midi": 61,
          "name": "C#4",
          "ticks": 10419,
          "time": 95.7627655,
          "velocity": 0.7795275590551181
        },
        {
          "duration": 1.4889689999999973,
          "durationTicks": 162,
          "midi": 49,
          "name": "C#3",
          "ticks": 10800,
          "time": 99.2646,
          "velocity": 0.6299212598425197
        },
        {
          "duration": 1.479777833333344,
          "durationTicks": 161,
          "midi": 53,
          "name": "F3",
          "ticks": 10801,
          "time": 99.27379116666665,
          "velocity": 0.5669291338582677
        },
        {
          "duration": 1.4705866666666623,
          "durationTicks": 160,
          "midi": 56,
          "name": "G#3",
          "ticks": 10802,
          "time": 99.28298233333334,
          "velocity": 0.5511811023622047
        },
        {
          "duration": 1.4613954999999947,
          "durationTicks": 159,
          "midi": 60,
          "name": "C4",
          "ticks": 10803,
          "time": 99.2921735,
          "velocity": 0.5669291338582677
        },
        {
          "duration": 1.4522043333333414,
          "durationTicks": 158,
          "midi": 63,
          "name": "D#4",
          "ticks": 10804,
          "time": 99.30136466666666,
          "velocity": 0.5984251968503937
        },
        {
          "duration": 0.4411759999999987,
          "durationTicks": 48,
          "midi": 46,
          "name": "A#2",
          "ticks": 10968,
          "time": 100.808716,
          "velocity": 0.7795275590551181
        },
        {
          "duration": 0.4411759999999987,
          "durationTicks": 48,
          "midi": 53,
          "name": "F3",
          "ticks": 10968,
          "time": 100.808716,
          "velocity": 0.7480314960629921
        },
        {
          "duration": 0.43198483333334536,
          "durationTicks": 47,
          "midi": 56,
          "name": "G#3",
          "ticks": 10969,
          "time": 100.81790716666666,
          "velocity": 0.7637795275590551
        },
        {
          "duration": 0.42279366666667784,
          "durationTicks": 46,
          "midi": 61,
          "name": "C#4",
          "ticks": 10970,
          "time": 100.82709833333332,
          "velocity": 0.8188976377952756
        },
        {
          "duration": 0.22058799999999223,
          "durationTicks": 24,
          "midi": 46,
          "name": "A#2",
          "ticks": 11016,
          "time": 101.249892,
          "velocity": 0.7795275590551181
        },
        {
          "duration": 0.22058799999999223,
          "durationTicks": 24,
          "midi": 53,
          "name": "F3",
          "ticks": 11016,
          "time": 101.249892,
          "velocity": 0.7480314960629921
        },
        {
          "duration": 0.21139683333333892,
          "durationTicks": 23,
          "midi": 56,
          "name": "G#3",
          "ticks": 11017,
          "time": 101.25908316666666,
          "velocity": 0.7637795275590551
        },
        {
          "duration": 0.21139683333333892,
          "durationTicks": 23,
          "midi": 61,
          "name": "C#4",
          "ticks": 11017,
          "time": 101.25908316666666,
          "velocity": 0.8188976377952756
        },
        {
          "duration": 0.22058800000000645,
          "durationTicks": 24,
          "midi": 46,
          "name": "A#2",
          "ticks": 11040,
          "time": 101.47048,
          "velocity": 0.7795275590551181
        },
        {
          "duration": 0.22058800000000645,
          "durationTicks": 24,
          "midi": 53,
          "name": "F3",
          "ticks": 11040,
          "time": 101.47048,
          "velocity": 0.7480314960629921
        },
        {
          "duration": 0.21139683333333892,
          "durationTicks": 23,
          "midi": 58,
          "name": "A#3",
          "ticks": 11041,
          "time": 101.47967116666666,
          "velocity": 0.7007874015748031
        },
        {
          "duration": 0.22058800000000645,
          "durationTicks": 24,
          "midi": 46,
          "name": "A#2",
          "ticks": 11064,
          "time": 101.691068,
          "velocity": 0.7795275590551181
        },
        {
          "duration": 0.22058800000000645,
          "durationTicks": 24,
          "midi": 53,
          "name": "F3",
          "ticks": 11064,
          "time": 101.691068,
          "velocity": 0.7480314960629921
        },
        {
          "duration": 0.21139683333335313,
          "durationTicks": 23,
          "midi": 58,
          "name": "A#3",
          "ticks": 11065,
          "time": 101.70025916666665,
          "velocity": 0.7637795275590551
        },
        {
          "duration": 0.21139683333335313,
          "durationTicks": 23,
          "midi": 62,
          "name": "D4",
          "ticks": 11065,
          "time": 101.70025916666665,
          "velocity": 0.7795275590551181
        },
        {
          "duration": 0.6433816666666559,
          "durationTicks": 70,
          "midi": 42,
          "name": "F#2",
          "ticks": 11184,
          "time": 102.794008,
          "velocity": 0.6535433070866141
        },
        {
          "duration": 0.6433816666666559,
          "durationTicks": 70,
          "midi": 49,
          "name": "C#3",
          "ticks": 11184,
          "time": 102.794008,
          "velocity": 0.6692913385826772
        },
        {
          "duration": 0.43198483333334536,
          "durationTicks": 47,
          "midi": 61,
          "name": "C#4",
          "ticks": 11185,
          "time": 102.80319916666666,
          "velocity": 0.7795275590551181
        },
        {
          "duration": 0.6617640000000051,
          "durationTicks": 72,
          "midi": 68,
          "name": "G#4",
          "ticks": 11208,
          "time": 103.014596,
          "velocity": 0.7795275590551181
        },
        {
          "duration": 0.6617639999999909,
          "durationTicks": 72,
          "midi": 63,
          "name": "D#4",
          "ticks": 11232,
          "time": 103.235184,
          "velocity": 0.7795275590551181
        },
        {
          "duration": 0.6433816666666701,
          "durationTicks": 70,
          "midi": 42,
          "name": "F#2",
          "ticks": 11256,
          "time": 103.455772,
          "velocity": 0.6535433070866141
        },
        {
          "duration": 0.6433816666666701,
          "durationTicks": 70,
          "midi": 49,
          "name": "C#3",
          "ticks": 11256,
          "time": 103.455772,
          "velocity": 0.6141732283464567
        },
        {
          "duration": 0.6525728333333376,
          "durationTicks": 71,
          "midi": 61,
          "name": "C#4",
          "ticks": 11257,
          "time": 103.46496316666666,
          "velocity": 0.7795275590551181
        },
        {
          "duration": 0.6617640000000051,
          "durationTicks": 72,
          "midi": 68,
          "name": "G#4",
          "ticks": 11280,
          "time": 103.67636,
          "velocity": 0.7795275590551181
        },
        {
          "duration": 0.6617640000000051,
          "durationTicks": 72,
          "midi": 63,
          "name": "D#4",
          "ticks": 11304,
          "time": 103.896948,
          "velocity": 0.7795275590551181
        },
        {
          "duration": 0.40441133333332857,
          "durationTicks": 44,
          "midi": 42,
          "name": "F#2",
          "ticks": 11328,
          "time": 104.117536,
          "velocity": 0.6535433070866141
        },
        {
          "duration": 0.40441133333332857,
          "durationTicks": 44,
          "midi": 49,
          "name": "C#3",
          "ticks": 11328,
          "time": 104.117536,
          "velocity": 0.6692913385826772
        },
        {
          "duration": 0.4411759999999987,
          "durationTicks": 48,
          "midi": 61,
          "name": "C#4",
          "ticks": 11329,
          "time": 104.12672716666665,
          "velocity": 0.7795275590551181
        },
        {
          "duration": 0.4411759999999987,
          "durationTicks": 48,
          "midi": 68,
          "name": "G#4",
          "ticks": 11352,
          "time": 104.33812400000001,
          "velocity": 0.7795275590551181
        },
        {
          "duration": 0.6433816666666559,
          "durationTicks": 70,
          "midi": 44,
          "name": "G#2",
          "ticks": 11376,
          "time": 104.558712,
          "velocity": 0.6850393700787402
        },
        {
          "duration": 0.6433816666666559,
          "durationTicks": 70,
          "midi": 51,
          "name": "D#3",
          "ticks": 11376,
          "time": 104.558712,
          "velocity": 0.6535433070866141
        },
        {
          "duration": 0.6525728333333518,
          "durationTicks": 71,
          "midi": 61,
          "name": "C#4",
          "ticks": 11377,
          "time": 104.56790316666665,
          "velocity": 0.7795275590551181
        },
        {
          "duration": 0.4411759999999987,
          "durationTicks": 48,
          "midi": 68,
          "name": "G#4",
          "ticks": 11400,
          "time": 104.7793,
          "velocity": 0.7007874015748031
        },
        {
          "duration": 0.6617640000000051,
          "durationTicks": 72,
          "midi": 63,
          "name": "D#4",
          "ticks": 11424,
          "time": 104.999888,
          "velocity": 0.7795275590551181
        },
        {
          "duration": 0.6433816666666559,
          "durationTicks": 70,
          "midi": 44,
          "name": "G#2",
          "ticks": 11448,
          "time": 105.220476,
          "velocity": 0.7007874015748031
        },
        {
          "duration": 0.6433816666666559,
          "durationTicks": 70,
          "midi": 51,
          "name": "D#3",
          "ticks": 11448,
          "time": 105.220476,
          "velocity": 0.6535433070866141
        },
        {
          "duration": 0.6525728333333376,
          "durationTicks": 71,
          "midi": 60,
          "name": "C4",
          "ticks": 11449,
          "time": 105.22966716666666,
          "velocity": 0.8346456692913385
        },
        {
          "duration": 0.6617640000000051,
          "durationTicks": 72,
          "midi": 68,
          "name": "G#4",
          "ticks": 11472,
          "time": 105.441064,
          "velocity": 0.6141732283464567
        },
        {
          "duration": 0.6433816666666559,
          "durationTicks": 70,
          "midi": 63,
          "name": "D#4",
          "ticks": 11496,
          "time": 105.661652,
          "velocity": 0.7795275590551181
        },
        {
          "duration": 0.40441133333332857,
          "durationTicks": 44,
          "midi": 44,
          "name": "G#2",
          "ticks": 11520,
          "time": 105.88224,
          "velocity": 0.6614173228346457
        },
        {
          "duration": 0.40441133333332857,
          "durationTicks": 44,
          "midi": 51,
          "name": "D#3",
          "ticks": 11520,
          "time": 105.88224,
          "velocity": 0.6535433070866141
        },
        {
          "duration": 0.4136024999999961,
          "durationTicks": 45,
          "midi": 60,
          "name": "C4",
          "ticks": 11521,
          "time": 105.89143116666666,
          "velocity": 0.7795275590551181
        },
        {
          "duration": 0.20220566666665718,
          "durationTicks": 22,
          "midi": 68,
          "name": "G#4",
          "ticks": 11544,
          "time": 106.102828,
          "velocity": 0.7401574803149606
        },
        {
          "duration": 0.6433816666666701,
          "durationTicks": 70,
          "midi": 46,
          "name": "A#2",
          "ticks": 11568,
          "time": 106.323416,
          "velocity": 0.6535433070866141
        },
        {
          "duration": 0.6433816666666701,
          "durationTicks": 70,
          "midi": 53,
          "name": "F3",
          "ticks": 11568,
          "time": 106.323416,
          "velocity": 0.6141732283464567
        },
        {
          "duration": 0.43198483333334536,
          "durationTicks": 47,
          "midi": 60,
          "name": "C4",
          "ticks": 11569,
          "time": 106.33260716666666,
          "velocity": 0.7795275590551181
        },
        {
          "duration": 0.4411759999999987,
          "durationTicks": 48,
          "midi": 68,
          "name": "G#4",
          "ticks": 11592,
          "time": 106.544004,
          "velocity": 0.6456692913385826
        },
        {
          "duration": 0.6617639999999909,
          "durationTicks": 72,
          "midi": 63,
          "name": "D#4",
          "ticks": 11616,
          "time": 106.76459200000001,
          "velocity": 0.84251968503937
        },
        {
          "duration": 0.6433816666666559,
          "durationTicks": 70,
          "midi": 46,
          "name": "A#2",
          "ticks": 11640,
          "time": 106.98518,
          "velocity": 0.6535433070866141
        },
        {
          "duration": 0.6433816666666559,
          "durationTicks": 70,
          "midi": 53,
          "name": "F3",
          "ticks": 11640,
          "time": 106.98518,
          "velocity": 0.7007874015748031
        },
        {
          "duration": 0.6525728333333518,
          "durationTicks": 71,
          "midi": 60,
          "name": "C4",
          "ticks": 11641,
          "time": 106.99437116666665,
          "velocity": 0.7795275590551181
        },
        {
          "duration": 0.6617639999999909,
          "durationTicks": 72,
          "midi": 68,
          "name": "G#4",
          "ticks": 11664,
          "time": 107.205768,
          "velocity": 0.7795275590551181
        },
        {
          "duration": 0.6617640000000051,
          "durationTicks": 72,
          "midi": 63,
          "name": "D#4",
          "ticks": 11688,
          "time": 107.426356,
          "velocity": 0.7795275590551181
        },
        {
          "duration": 0.4227936666666494,
          "durationTicks": 46,
          "midi": 46,
          "name": "A#2",
          "ticks": 11712,
          "time": 107.646944,
          "velocity": 0.6535433070866141
        },
        {
          "duration": 0.4227936666666494,
          "durationTicks": 46,
          "midi": 53,
          "name": "F3",
          "ticks": 11712,
          "time": 107.646944,
          "velocity": 0.6771653543307087
        },
        {
          "duration": 0.43198483333334536,
          "durationTicks": 47,
          "midi": 60,
          "name": "C4",
          "ticks": 11713,
          "time": 107.65613516666666,
          "velocity": 0.7795275590551181
        },
        {
          "duration": 0.4411759999999987,
          "durationTicks": 48,
          "midi": 68,
          "name": "G#4",
          "ticks": 11736,
          "time": 107.867532,
          "velocity": 0.7795275590551181
        },
        {
          "duration": 0.6433816666666559,
          "durationTicks": 70,
          "midi": 46,
          "name": "A#2",
          "ticks": 11760,
          "time": 108.08812,
          "velocity": 0.6535433070866141
        },
        {
          "duration": 0.6433816666666559,
          "durationTicks": 70,
          "midi": 53,
          "name": "F3",
          "ticks": 11760,
          "time": 108.08812,
          "velocity": 0.6141732283464567
        },
        {
          "duration": 0.43198483333334536,
          "durationTicks": 47,
          "midi": 60,
          "name": "C4",
          "ticks": 11761,
          "time": 108.09731116666666,
          "velocity": 0.7795275590551181
        },
        {
          "duration": 0.4411759999999987,
          "durationTicks": 48,
          "midi": 68,
          "name": "G#4",
          "ticks": 11784,
          "time": 108.308708,
          "velocity": 0.6456692913385826
        },
        {
          "duration": 0.6617640000000051,
          "durationTicks": 72,
          "midi": 63,
          "name": "D#4",
          "ticks": 11808,
          "time": 108.529296,
          "velocity": 0.84251968503937
        },
        {
          "duration": 0.6433816666666701,
          "durationTicks": 70,
          "midi": 46,
          "name": "A#2",
          "ticks": 11832,
          "time": 108.749884,
          "velocity": 0.6535433070866141
        },
        {
          "duration": 0.6433816666666701,
          "durationTicks": 70,
          "midi": 53,
          "name": "F3",
          "ticks": 11832,
          "time": 108.749884,
          "velocity": 0.7007874015748031
        },
        {
          "duration": 0.6525728333333376,
          "durationTicks": 71,
          "midi": 61,
          "name": "C#4",
          "ticks": 11833,
          "time": 108.75907516666666,
          "velocity": 0.7795275590551181
        },
        {
          "duration": 0.6617640000000051,
          "durationTicks": 72,
          "midi": 68,
          "name": "G#4",
          "ticks": 11856,
          "time": 108.970472,
          "velocity": 0.7795275590551181
        },
        {
          "duration": 0.6617639999999909,
          "durationTicks": 72,
          "midi": 63,
          "name": "D#4",
          "ticks": 11880,
          "time": 109.19106000000001,
          "velocity": 0.7795275590551181
        },
        {
          "duration": 0.4227936666666636,
          "durationTicks": 46,
          "midi": 46,
          "name": "A#2",
          "ticks": 11904,
          "time": 109.411648,
          "velocity": 0.6535433070866141
        },
        {
          "duration": 0.4227936666666636,
          "durationTicks": 46,
          "midi": 53,
          "name": "F3",
          "ticks": 11904,
          "time": 109.411648,
          "velocity": 0.6771653543307087
        },
        {
          "duration": 0.43198483333334536,
          "durationTicks": 47,
          "midi": 61,
          "name": "C#4",
          "ticks": 11905,
          "time": 109.42083916666665,
          "velocity": 0.7795275590551181
        },
        {
          "duration": 0.4411759999999987,
          "durationTicks": 48,
          "midi": 68,
          "name": "G#4",
          "ticks": 11928,
          "time": 109.632236,
          "velocity": 0.7795275590551181
        },
        {
          "duration": 0.6433816666666559,
          "durationTicks": 70,
          "midi": 42,
          "name": "F#2",
          "ticks": 11952,
          "time": 109.852824,
          "velocity": 0.6535433070866141
        },
        {
          "duration": 0.6433816666666559,
          "durationTicks": 70,
          "midi": 49,
          "name": "C#3",
          "ticks": 11952,
          "time": 109.852824,
          "velocity": 0.6692913385826772
        },
        {
          "duration": 0.43198483333333115,
          "durationTicks": 47,
          "midi": 61,
          "name": "C#4",
          "ticks": 11953,
          "time": 109.86201516666667,
          "velocity": 0.7795275590551181
        },
        {
          "duration": 0.6617639999999909,
          "durationTicks": 72,
          "midi": 68,
          "name": "G#4",
          "ticks": 11976,
          "time": 110.073412,
          "velocity": 0.7795275590551181
        },
        {
          "duration": 0.6617640000000051,
          "durationTicks": 72,
          "midi": 63,
          "name": "D#4",
          "ticks": 12000,
          "time": 110.294,
          "velocity": 0.7795275590551181
        },
        {
          "duration": 0.6433816666666559,
          "durationTicks": 70,
          "midi": 42,
          "name": "F#2",
          "ticks": 12024,
          "time": 110.514588,
          "velocity": 0.6535433070866141
        },
        {
          "duration": 0.6433816666666559,
          "durationTicks": 70,
          "midi": 49,
          "name": "C#3",
          "ticks": 12024,
          "time": 110.514588,
          "velocity": 0.6141732283464567
        },
        {
          "duration": 0.6525728333333376,
          "durationTicks": 71,
          "midi": 61,
          "name": "C#4",
          "ticks": 12025,
          "time": 110.52377916666666,
          "velocity": 0.7795275590551181
        },
        {
          "duration": 0.6617640000000051,
          "durationTicks": 72,
          "midi": 68,
          "name": "G#4",
          "ticks": 12048,
          "time": 110.735176,
          "velocity": 0.7795275590551181
        },
        {
          "duration": 0.6617640000000051,
          "durationTicks": 72,
          "midi": 63,
          "name": "D#4",
          "ticks": 12072,
          "time": 110.955764,
          "velocity": 0.7795275590551181
        },
        {
          "duration": 0.4044113333333428,
          "durationTicks": 44,
          "midi": 42,
          "name": "F#2",
          "ticks": 12096,
          "time": 111.176352,
          "velocity": 0.6535433070866141
        },
        {
          "duration": 0.4044113333333428,
          "durationTicks": 44,
          "midi": 49,
          "name": "C#3",
          "ticks": 12096,
          "time": 111.176352,
          "velocity": 0.6692913385826772
        },
        {
          "duration": 0.4411759999999987,
          "durationTicks": 48,
          "midi": 61,
          "name": "C#4",
          "ticks": 12097,
          "time": 111.18554316666666,
          "velocity": 0.7795275590551181
        },
        {
          "duration": 0.4411759999999987,
          "durationTicks": 48,
          "midi": 68,
          "name": "G#4",
          "ticks": 12120,
          "time": 111.39694,
          "velocity": 0.7795275590551181
        },
        {
          "duration": 0.6433816666666559,
          "durationTicks": 70,
          "midi": 44,
          "name": "G#2",
          "ticks": 12144,
          "time": 111.61752800000001,
          "velocity": 0.6850393700787402
        },
        {
          "duration": 0.6433816666666559,
          "durationTicks": 70,
          "midi": 51,
          "name": "D#3",
          "ticks": 12144,
          "time": 111.61752800000001,
          "velocity": 0.6535433070866141
        },
        {
          "duration": 0.6525728333333376,
          "durationTicks": 71,
          "midi": 61,
          "name": "C#4",
          "ticks": 12145,
          "time": 111.62671916666666,
          "velocity": 0.7795275590551181
        },
        {
          "duration": 0.4411759999999987,
          "durationTicks": 48,
          "midi": 68,
          "name": "G#4",
          "ticks": 12168,
          "time": 111.838116,
          "velocity": 0.7007874015748031
        },
        {
          "duration": 0.6617639999999909,
          "durationTicks": 72,
          "midi": 63,
          "name": "D#4",
          "ticks": 12192,
          "time": 112.058704,
          "velocity": 0.7795275590551181
        },
        {
          "duration": 0.6433816666666559,
          "durationTicks": 70,
          "midi": 44,
          "name": "G#2",
          "ticks": 12216,
          "time": 112.279292,
          "velocity": 0.7007874015748031
        },
        {
          "duration": 0.6433816666666559,
          "durationTicks": 70,
          "midi": 51,
          "name": "D#3",
          "ticks": 12216,
          "time": 112.279292,
          "velocity": 0.6535433070866141
        },
        {
          "duration": 0.6525728333333376,
          "durationTicks": 71,
          "midi": 60,
          "name": "C4",
          "ticks": 12217,
          "time": 112.28848316666667,
          "velocity": 0.8346456692913385
        },
        {
          "duration": 0.6617639999999909,
          "durationTicks": 72,
          "midi": 68,
          "name": "G#4",
          "ticks": 12240,
          "time": 112.49988,
          "velocity": 0.6141732283464567
        },
        {
          "duration": 0.6433816666666559,
          "durationTicks": 70,
          "midi": 63,
          "name": "D#4",
          "ticks": 12264,
          "time": 112.720468,
          "velocity": 0.7795275590551181
        },
        {
          "duration": 0.40441133333332857,
          "durationTicks": 44,
          "midi": 44,
          "name": "G#2",
          "ticks": 12288,
          "time": 112.941056,
          "velocity": 0.6614173228346457
        },
        {
          "duration": 0.40441133333332857,
          "durationTicks": 44,
          "midi": 51,
          "name": "D#3",
          "ticks": 12288,
          "time": 112.941056,
          "velocity": 0.6535433070866141
        },
        {
          "duration": 0.4136024999999961,
          "durationTicks": 45,
          "midi": 60,
          "name": "C4",
          "ticks": 12289,
          "time": 112.95024716666666,
          "velocity": 0.5826771653543307
        },
        {
          "duration": 0.20220566666665718,
          "durationTicks": 22,
          "midi": 68,
          "name": "G#4",
          "ticks": 12312,
          "time": 113.161644,
          "velocity": 0.7401574803149606
        },
        {
          "duration": 0.6433816666666559,
          "durationTicks": 70,
          "midi": 46,
          "name": "A#2",
          "ticks": 12336,
          "time": 113.382232,
          "velocity": 0.6535433070866141
        },
        {
          "duration": 0.6433816666666559,
          "durationTicks": 70,
          "midi": 53,
          "name": "F3",
          "ticks": 12336,
          "time": 113.382232,
          "velocity": 0.6141732283464567
        },
        {
          "duration": 0.43198483333334536,
          "durationTicks": 47,
          "midi": 60,
          "name": "C4",
          "ticks": 12337,
          "time": 113.39142316666666,
          "velocity": 0.7795275590551181
        },
        {
          "duration": 0.4411760000000129,
          "durationTicks": 48,
          "midi": 68,
          "name": "G#4",
          "ticks": 12360,
          "time": 113.60282,
          "velocity": 0.7952755905511811
        },
        {
          "duration": 0.6617640000000051,
          "durationTicks": 72,
          "midi": 63,
          "name": "D#4",
          "ticks": 12384,
          "time": 113.823408,
          "velocity": 0.84251968503937
        },
        {
          "duration": 0.6433816666666559,
          "durationTicks": 70,
          "midi": 46,
          "name": "A#2",
          "ticks": 12408,
          "time": 114.043996,
          "velocity": 0.6535433070866141
        },
        {
          "duration": 0.6433816666666559,
          "durationTicks": 70,
          "midi": 53,
          "name": "F3",
          "ticks": 12408,
          "time": 114.043996,
          "velocity": 0.7007874015748031
        },
        {
          "duration": 0.6525728333333234,
          "durationTicks": 71,
          "midi": 60,
          "name": "C4",
          "ticks": 12409,
          "time": 114.05318716666666,
          "velocity": 0.7795275590551181
        },
        {
          "duration": 0.6617639999999909,
          "durationTicks": 72,
          "midi": 68,
          "name": "G#4",
          "ticks": 12432,
          "time": 114.264584,
          "velocity": 0.7795275590551181
        },
        {
          "duration": 0.44117599999998447,
          "durationTicks": 48,
          "midi": 63,
          "name": "D#4",
          "ticks": 12456,
          "time": 114.485172,
          "velocity": 0.7795275590551181
        },
        {
          "duration": 0.19301450000000386,
          "durationTicks": 21,
          "midi": 46,
          "name": "A#2",
          "ticks": 12480,
          "time": 114.70575999999998,
          "velocity": 0.6535433070866141
        },
        {
          "duration": 0.19301450000000386,
          "durationTicks": 21,
          "midi": 53,
          "name": "F3",
          "ticks": 12480,
          "time": 114.70575999999998,
          "velocity": 0.6771653543307087
        },
        {
          "duration": 0.19301450000000386,
          "durationTicks": 21,
          "midi": 60,
          "name": "C4",
          "ticks": 12481,
          "time": 114.71495116666667,
          "velocity": 0.7795275590551181
        },
        {
          "duration": 0.8639696666666765,
          "durationTicks": 94,
          "midi": 49,
          "name": "C#3",
          "ticks": 12504,
          "time": 114.92634799999999,
          "velocity": 0.6535433070866141
        },
        {
          "duration": 0.8639696666666765,
          "durationTicks": 94,
          "midi": 56,
          "name": "G#3",
          "ticks": 12504,
          "time": 114.92634799999999,
          "velocity": 0.6141732283464567
        },
        {
          "duration": 0.2113968333333105,
          "durationTicks": 23,
          "midi": 68,
          "name": "G#4",
          "ticks": 12505,
          "time": 114.93553916666667,
          "velocity": 0.7795275590551181
        },
        {
          "duration": 0.43198483333334536,
          "durationTicks": 47,
          "midi": 61,
          "name": "C#4",
          "ticks": 12528,
          "time": 115.14693599999998,
          "velocity": 0.7007874015748031
        },
        {
          "duration": 0.4411759999999987,
          "durationTicks": 48,
          "midi": 68,
          "name": "G#4",
          "ticks": 12552,
          "time": 115.36752399999999,
          "velocity": 0.7795275590551181
        },
        {
          "duration": 1.3051456666666752,
          "durationTicks": 142,
          "midi": 63,
          "name": "D#4",
          "ticks": 12576,
          "time": 115.588112,
          "velocity": 0.7795275590551181
        },
        {
          "duration": 0.4411759999999987,
          "durationTicks": 48,
          "midi": 49,
          "name": "C#3",
          "ticks": 12600,
          "time": 115.80869999999999,
          "velocity": 0.7007874015748031
        },
        {
          "duration": 0.4411759999999987,
          "durationTicks": 48,
          "midi": 56,
          "name": "G#3",
          "ticks": 12600,
          "time": 115.80869999999999,
          "velocity": 0.7007874015748031
        },
        {
          "duration": 0.43198483333331694,
          "durationTicks": 47,
          "midi": 61,
          "name": "C#4",
          "ticks": 12601,
          "time": 115.81789116666667,
          "velocity": 0.6299212598425197
        },
        {
          "duration": 0.43198483333331694,
          "durationTicks": 47,
          "midi": 68,
          "name": "G#4",
          "ticks": 12601,
          "time": 115.81789116666667,
          "velocity": 0.7795275590551181
        },
        {
          "duration": 0.6525728333333376,
          "durationTicks": 71,
          "midi": 49,
          "name": "C#3",
          "ticks": 12648,
          "time": 116.24987599999999,
          "velocity": 0.7007874015748031
        },
        {
          "duration": 0.6525728333333376,
          "durationTicks": 71,
          "midi": 56,
          "name": "G#3",
          "ticks": 12648,
          "time": 116.24987599999999,
          "velocity": 0.7007874015748031
        },
        {
          "duration": 0.6433816666666559,
          "durationTicks": 70,
          "midi": 61,
          "name": "C#4",
          "ticks": 12649,
          "time": 116.25906716666667,
          "velocity": 0.6299212598425197
        },
        {
          "duration": 0.6433816666666559,
          "durationTicks": 70,
          "midi": 68,
          "name": "G#4",
          "ticks": 12649,
          "time": 116.25906716666667,
          "velocity": 0.7795275590551181
        },
        {
          "duration": 0.6433816666666843,
          "durationTicks": 70,
          "midi": 43,
          "name": "G2",
          "ticks": 12720,
          "time": 116.91163999999999,
          "velocity": 0.6535433070866141
        },
        {
          "duration": 0.6433816666666843,
          "durationTicks": 70,
          "midi": 49,
          "name": "C#3",
          "ticks": 12720,
          "time": 116.91163999999999,
          "velocity": 0.6692913385826772
        },
        {
          "duration": 0.6433816666666559,
          "durationTicks": 70,
          "midi": 53,
          "name": "F3",
          "ticks": 12721,
          "time": 116.92083116666667,
          "velocity": 0.6929133858267716
        },
        {
          "duration": 0.43198483333331694,
          "durationTicks": 47,
          "midi": 61,
          "name": "C#4",
          "ticks": 12721,
          "time": 116.92083116666667,
          "velocity": 0.7795275590551181
        },
        {
          "duration": 0.6617640000000051,
          "durationTicks": 72,
          "midi": 70,
          "name": "A#4",
          "ticks": 12744,
          "time": 117.13222799999998,
          "velocity": 0.7795275590551181
        },
        {
          "duration": 0.6617640000000051,
          "durationTicks": 72,
          "midi": 63,
          "name": "D#4",
          "ticks": 12768,
          "time": 117.35281599999999,
          "velocity": 0.7795275590551181
        },
        {
          "duration": 0.6433816666666843,
          "durationTicks": 70,
          "midi": 43,
          "name": "G2",
          "ticks": 12792,
          "time": 117.57340399999998,
          "velocity": 0.6535433070866141
        },
        {
          "duration": 0.6433816666666843,
          "durationTicks": 70,
          "midi": 49,
          "name": "C#3",
          "ticks": 12792,
          "time": 117.57340399999998,
          "velocity": 0.6141732283464567
        },
        {
          "duration": 0.6433816666666559,
          "durationTicks": 70,
          "midi": 53,
          "name": "F3",
          "ticks": 12793,
          "time": 117.58259516666668,
          "velocity": 0.6299212598425197
        },
        {
          "duration": 0.6525728333333092,
          "durationTicks": 71,
          "midi": 61,
          "name": "C#4",
          "ticks": 12793,
          "time": 117.58259516666668,
          "velocity": 0.7795275590551181
        },
        {
          "duration": 0.6617640000000051,
          "durationTicks": 72,
          "midi": 70,
          "name": "A#4",
          "ticks": 12816,
          "time": 117.79399199999999,
          "velocity": 0.7795275590551181
        },
        {
          "duration": 0.6617639999999909,
          "durationTicks": 72,
          "midi": 63,
          "name": "D#4",
          "ticks": 12840,
          "time": 118.01458,
          "velocity": 0.7795275590551181
        },
        {
          "duration": 0.4044113333333428,
          "durationTicks": 44,
          "midi": 43,
          "name": "G2",
          "ticks": 12864,
          "time": 118.23516799999999,
          "velocity": 0.6535433070866141
        },
        {
          "duration": 0.4044113333333428,
          "durationTicks": 44,
          "midi": 49,
          "name": "C#3",
          "ticks": 12864,
          "time": 118.23516799999999,
          "velocity": 0.6692913385826772
        },
        {
          "duration": 0.40441133333331436,
          "durationTicks": 44,
          "midi": 53,
          "name": "F3",
          "ticks": 12865,
          "time": 118.24435916666667,
          "velocity": 0.6850393700787402
        },
        {
          "duration": 0.4411759999999987,
          "durationTicks": 48,
          "midi": 61,
          "name": "C#4",
          "ticks": 12865,
          "time": 118.24435916666667,
          "velocity": 0.7795275590551181
        },
        {
          "duration": 0.4411759999999987,
          "durationTicks": 48,
          "midi": 68,
          "name": "G#4",
          "ticks": 12888,
          "time": 118.455756,
          "velocity": 0.7795275590551181
        },
        {
          "duration": 0.6433816666666843,
          "durationTicks": 70,
          "midi": 42,
          "name": "F#2",
          "ticks": 12912,
          "time": 118.67634399999999,
          "velocity": 0.6535433070866141
        },
        {
          "duration": 0.6433816666666843,
          "durationTicks": 70,
          "midi": 49,
          "name": "C#3",
          "ticks": 12912,
          "time": 118.67634399999999,
          "velocity": 0.6692913385826772
        },
        {
          "duration": 0.43198483333331694,
          "durationTicks": 47,
          "midi": 61,
          "name": "C#4",
          "ticks": 12913,
          "time": 118.68553516666667,
          "velocity": 0.7795275590551181
        },
        {
          "duration": 0.6617639999999909,
          "durationTicks": 72,
          "midi": 68,
          "name": "G#4",
          "ticks": 12936,
          "time": 118.89693199999999,
          "velocity": 0.7795275590551181
        },
        {
          "duration": 0.6617640000000051,
          "durationTicks": 72,
          "midi": 63,
          "name": "D#4",
          "ticks": 12960,
          "time": 119.11751999999998,
          "velocity": 0.7795275590551181
        },
        {
          "duration": 0.6433816666666843,
          "durationTicks": 70,
          "midi": 42,
          "name": "F#2",
          "ticks": 12984,
          "time": 119.33810799999999,
          "velocity": 0.6535433070866141
        },
        {
          "duration": 0.6433816666666843,
          "durationTicks": 70,
          "midi": 49,
          "name": "C#3",
          "ticks": 12984,
          "time": 119.33810799999999,
          "velocity": 0.6141732283464567
        },
        {
          "duration": 0.6525728333333092,
          "durationTicks": 71,
          "midi": 61,
          "name": "C#4",
          "ticks": 12985,
          "time": 119.34729916666667,
          "velocity": 0.7795275590551181
        },
        {
          "duration": 0.6617640000000051,
          "durationTicks": 72,
          "midi": 68,
          "name": "G#4",
          "ticks": 13008,
          "time": 119.55869599999998,
          "velocity": 0.7795275590551181
        },
        {
          "duration": 0.6617640000000051,
          "durationTicks": 72,
          "midi": 63,
          "name": "D#4",
          "ticks": 13032,
          "time": 119.77928399999999,
          "velocity": 0.7795275590551181
        },
        {
          "duration": 0.4044113333333428,
          "durationTicks": 44,
          "midi": 42,
          "name": "F#2",
          "ticks": 13056,
          "time": 119.99987199999998,
          "velocity": 0.6535433070866141
        },
        {
          "duration": 0.4044113333333428,
          "durationTicks": 44,
          "midi": 49,
          "name": "C#3",
          "ticks": 13056,
          "time": 119.99987199999998,
          "velocity": 0.6692913385826772
        },
        {
          "duration": 0.4411759999999987,
          "durationTicks": 48,
          "midi": 61,
          "name": "C#4",
          "ticks": 13057,
          "time": 120.00906316666668,
          "velocity": 0.7795275590551181
        },
        {
          "duration": 0.6617640000000051,
          "durationTicks": 72,
          "midi": 70,
          "name": "A#4",
          "ticks": 13080,
          "time": 120.22045999999999,
          "velocity": 0.7795275590551181
        },
        {
          "duration": 0.6433816666666843,
          "durationTicks": 70,
          "midi": 41,
          "name": "F2",
          "ticks": 13104,
          "time": 120.441048,
          "velocity": 0.6535433070866141
        },
        {
          "duration": 0.6433816666666843,
          "durationTicks": 70,
          "midi": 48,
          "name": "C3",
          "ticks": 13104,
          "time": 120.441048,
          "velocity": 0.6692913385826772
        },
        {
          "duration": 0.43198483333331694,
          "durationTicks": 47,
          "midi": 60,
          "name": "C4",
          "ticks": 13105,
          "time": 120.45023916666668,
          "velocity": 0.7795275590551181
        },
        {
          "duration": 0.6617640000000051,
          "durationTicks": 72,
          "midi": 68,
          "name": "G#4",
          "ticks": 13128,
          "time": 120.66163599999999,
          "velocity": 0.7795275590551181
        },
        {
          "duration": 0.6617639999999909,
          "durationTicks": 72,
          "midi": 63,
          "name": "D#4",
          "ticks": 13152,
          "time": 120.882224,
          "velocity": 0.7795275590551181
        },
        {
          "duration": 0.6433816666666843,
          "durationTicks": 70,
          "midi": 41,
          "name": "F2",
          "ticks": 13176,
          "time": 121.10281199999999,
          "velocity": 0.6535433070866141
        },
        {
          "duration": 0.6433816666666843,
          "durationTicks": 70,
          "midi": 48,
          "name": "C3",
          "ticks": 13176,
          "time": 121.10281199999999,
          "velocity": 0.6141732283464567
        },
        {
          "duration": 0.6525728333333234,
          "durationTicks": 71,
          "midi": 60,
          "name": "C4",
          "ticks": 13177,
          "time": 121.11200316666667,
          "velocity": 0.7795275590551181
        },
        {
          "duration": 0.6617639999999909,
          "durationTicks": 72,
          "midi": 68,
          "name": "G#4",
          "ticks": 13200,
          "time": 121.32339999999999,
          "velocity": 0.7795275590551181
        },
        {
          "duration": 0.6617640000000051,
          "durationTicks": 72,
          "midi": 63,
          "name": "D#4",
          "ticks": 13224,
          "time": 121.54398799999998,
          "velocity": 0.7795275590551181
        },
        {
          "duration": 0.2022056666666856,
          "durationTicks": 22,
          "midi": 41,
          "name": "F2",
          "ticks": 13248,
          "time": 121.76457599999999,
          "velocity": 0.6535433070866141
        },
        {
          "duration": 0.2022056666666856,
          "durationTicks": 22,
          "midi": 48,
          "name": "C3",
          "ticks": 13248,
          "time": 121.76457599999999,
          "velocity": 0.6692913385826772
        },
        {
          "duration": 0.2113968333333105,
          "durationTicks": 23,
          "midi": 60,
          "name": "C4",
          "ticks": 13249,
          "time": 121.77376716666667,
          "velocity": 0.7795275590551181
        },
        {
          "duration": 0.8823520000000116,
          "durationTicks": 96,
          "midi": 46,
          "name": "A#2",
          "ticks": 13272,
          "time": 121.98516399999998,
          "velocity": 0.6535433070866141
        },
        {
          "duration": 0.8823520000000116,
          "durationTicks": 96,
          "midi": 53,
          "name": "F3",
          "ticks": 13272,
          "time": 121.98516399999998,
          "velocity": 0.6141732283464567
        },
        {
          "duration": 0.2113968333333105,
          "durationTicks": 23,
          "midi": 60,
          "name": "C4",
          "ticks": 13273,
          "time": 121.99435516666668,
          "velocity": 0.7007874015748031
        },
        {
          "duration": 0.43198483333330273,
          "durationTicks": 47,
          "midi": 68,
          "name": "G#4",
          "ticks": 13273,
          "time": 121.99435516666668,
          "velocity": 0.7795275590551181
        },
        {
          "duration": 0.22058799999999223,
          "durationTicks": 24,
          "midi": 61,
          "name": "C#4",
          "ticks": 13296,
          "time": 122.20575199999999,
          "velocity": 0.7086614173228346
        },
        {
          "duration": 0.22058800000000645,
          "durationTicks": 24,
          "midi": 60,
          "name": "C4",
          "ticks": 13320,
          "time": 122.42633999999998,
          "velocity": 0.7401574803149606
        },
        {
          "duration": 0.4411760000000129,
          "durationTicks": 48,
          "midi": 68,
          "name": "G#4",
          "ticks": 13320,
          "time": 122.42633999999998,
          "velocity": 0.7795275590551181
        },
        {
          "duration": 0.6617640000000051,
          "durationTicks": 72,
          "midi": 63,
          "name": "D#4",
          "ticks": 13344,
          "time": 122.64692799999999,
          "velocity": 0.7795275590551181
        },
        {
          "duration": 0.6433816666666843,
          "durationTicks": 70,
          "midi": 46,
          "name": "A#2",
          "ticks": 13368,
          "time": 122.867516,
          "velocity": 0.6535433070866141
        },
        {
          "duration": 0.6433816666666843,
          "durationTicks": 70,
          "midi": 53,
          "name": "F3",
          "ticks": 13368,
          "time": 122.867516,
          "velocity": 0.7007874015748031
        },
        {
          "duration": 0.10110283333331438,
          "durationTicks": 11,
          "midi": 60,
          "name": "C4",
          "ticks": 13369,
          "time": 122.87670716666668,
          "velocity": 0.6141732283464567
        },
        {
          "duration": 0.7720580000000012,
          "durationTicks": 84,
          "midi": 61,
          "name": "C#4",
          "ticks": 13380,
          "time": 122.97780999999999,
          "velocity": 0.7007874015748031
        },
        {
          "duration": 0.6617639999999909,
          "durationTicks": 72,
          "midi": 68,
          "name": "G#4",
          "ticks": 13416,
          "time": 123.308692,
          "velocity": 0.7795275590551181
        },
        {
          "duration": 0.42279366666669205,
          "durationTicks": 46,
          "midi": 46,
          "name": "A#2",
          "ticks": 13440,
          "time": 123.52927999999999,
          "velocity": 0.6535433070866141
        },
        {
          "duration": 0.42279366666669205,
          "durationTicks": 46,
          "midi": 53,
          "name": "F3",
          "ticks": 13440,
          "time": 123.52927999999999,
          "velocity": 0.6771653543307087
        },
        {
          "duration": 0.43198483333331694,
          "durationTicks": 47,
          "midi": 63,
          "name": "D#4",
          "ticks": 13441,
          "time": 123.53847116666667,
          "velocity": 0.7795275590551181
        },
        {
          "duration": 0.22058799999999223,
          "durationTicks": 24,
          "midi": 61,
          "name": "C#4",
          "ticks": 13464,
          "time": 123.74986799999999,
          "velocity": 0.7795275590551181
        },
        {
          "duration": 0.6433816666666843,
          "durationTicks": 70,
          "midi": 39,
          "name": "D#2",
          "ticks": 13488,
          "time": 123.97045599999998,
          "velocity": 0.6535433070866141
        },
        {
          "duration": 0.6433816666666843,
          "durationTicks": 70,
          "midi": 46,
          "name": "A#2",
          "ticks": 13488,
          "time": 123.97045599999998,
          "velocity": 0.6692913385826772
        },
        {
          "duration": 0.43198483333331694,
          "durationTicks": 47,
          "midi": 61,
          "name": "C#4",
          "ticks": 13489,
          "time": 123.97964716666667,
          "velocity": 0.7795275590551181
        },
        {
          "duration": 0.6617640000000051,
          "durationTicks": 72,
          "midi": 68,
          "name": "G#4",
          "ticks": 13512,
          "time": 124.19104399999999,
          "velocity": 0.7795275590551181
        },
        {
          "duration": 0.6617640000000051,
          "durationTicks": 72,
          "midi": 63,
          "name": "D#4",
          "ticks": 13536,
          "time": 124.41163199999998,
          "velocity": 0.7795275590551181
        },
        {
          "duration": 0.8639696666666765,
          "durationTicks": 94,
          "midi": 41,
          "name": "F2",
          "ticks": 13560,
          "time": 124.63221999999999,
          "velocity": 0.6535433070866141
        },
        {
          "duration": 0.8639696666666765,
          "durationTicks": 94,
          "midi": 48,
          "name": "C3",
          "ticks": 13560,
          "time": 124.63221999999999,
          "velocity": 0.6141732283464567
        },
        {
          "duration": 0.8639696666666623,
          "durationTicks": 94,
          "midi": 61,
          "name": "C#4",
          "ticks": 13561,
          "time": 124.64141116666667,
          "velocity": 0.7795275590551181
        },
        {
          "duration": 0.6617640000000051,
          "durationTicks": 72,
          "midi": 68,
          "name": "G#4",
          "ticks": 13608,
          "time": 125.07339599999999,
          "velocity": 0.7795275590551181
        },
        {
          "duration": 0.6617639999999909,
          "durationTicks": 72,
          "midi": 63,
          "name": "D#4",
          "ticks": 13632,
          "time": 125.293984,
          "velocity": 0.7795275590551181
        },
        {
          "duration": 0.8823519999999974,
          "durationTicks": 96,
          "midi": 42,
          "name": "F#2",
          "ticks": 13656,
          "time": 125.51457199999999,
          "velocity": 0.6771653543307087
        },
        {
          "duration": 0.8823519999999974,
          "durationTicks": 96,
          "midi": 49,
          "name": "C#3",
          "ticks": 13656,
          "time": 125.51457199999999,
          "velocity": 0.6850393700787402
        },
        {
          "duration": 0.8731608333333156,
          "durationTicks": 95,
          "midi": 61,
          "name": "C#4",
          "ticks": 13657,
          "time": 125.52376316666667,
          "velocity": 0.7795275590551181
        },
        {
          "duration": 0.6617640000000051,
          "durationTicks": 72,
          "midi": 68,
          "name": "G#4",
          "ticks": 13704,
          "time": 125.95574799999999,
          "velocity": 0.7795275590551181
        },
        {
          "duration": 0.6617639999999909,
          "durationTicks": 72,
          "midi": 63,
          "name": "D#4",
          "ticks": 13728,
          "time": 126.17633599999999,
          "velocity": 0.7795275590551181
        },
        {
          "duration": 1.084557666666683,
          "durationTicks": 118,
          "midi": 43,
          "name": "G2",
          "ticks": 13752,
          "time": 126.39692399999998,
          "velocity": 0.7007874015748031
        },
        {
          "duration": 1.084557666666683,
          "durationTicks": 118,
          "midi": 51,
          "name": "D#3",
          "ticks": 13752,
          "time": 126.39692399999998,
          "velocity": 0.7007874015748031
        },
        {
          "duration": 0.6525728333333234,
          "durationTicks": 71,
          "midi": 61,
          "name": "C#4",
          "ticks": 13753,
          "time": 126.40611516666667,
          "velocity": 0.7795275590551181
        },
        {
          "duration": 0.6525728333333518,
          "durationTicks": 71,
          "midi": 70,
          "name": "A#4",
          "ticks": 13800,
          "time": 126.83809999999998,
          "velocity": 0.7795275590551181
        },
        {
          "duration": 0.43198483333334536,
          "durationTicks": 47,
          "midi": 63,
          "name": "D#4",
          "ticks": 13824,
          "time": 127.05868799999999,
          "velocity": 0.7795275590551181
        },
        {
          "duration": 0.21139683333333892,
          "durationTicks": 23,
          "midi": 61,
          "name": "C#4",
          "ticks": 13848,
          "time": 127.279276,
          "velocity": 0.7795275590551181
        },
        {
          "duration": 0.6433816666666843,
          "durationTicks": 70,
          "midi": 44,
          "name": "G#2",
          "ticks": 13872,
          "time": 127.49986399999999,
          "velocity": 0.6850393700787402
        },
        {
          "duration": 0.6433816666666843,
          "durationTicks": 70,
          "midi": 51,
          "name": "D#3",
          "ticks": 13872,
          "time": 127.49986399999999,
          "velocity": 0.6535433070866141
        },
        {
          "duration": 0.6525728333333376,
          "durationTicks": 71,
          "midi": 61,
          "name": "C#4",
          "ticks": 13873,
          "time": 127.50905516666667,
          "velocity": 0.7795275590551181
        },
        {
          "duration": 0.4411760000000129,
          "durationTicks": 48,
          "midi": 68,
          "name": "G#4",
          "ticks": 13896,
          "time": 127.720452,
          "velocity": 0.7637795275590551
        },
        {
          "duration": 0.6617640000000051,
          "durationTicks": 72,
          "midi": 63,
          "name": "D#4",
          "ticks": 13920,
          "time": 127.94103999999999,
          "velocity": 0.7795275590551181
        },
        {
          "duration": 0.8639696666666623,
          "durationTicks": 94,
          "midi": 44,
          "name": "G#2",
          "ticks": 13944,
          "time": 128.161628,
          "velocity": 0.7007874015748031
        },
        {
          "duration": 0.8639696666666623,
          "durationTicks": 94,
          "midi": 51,
          "name": "D#3",
          "ticks": 13944,
          "time": 128.161628,
          "velocity": 0.6535433070866141
        },
        {
          "duration": 0.652572833333295,
          "durationTicks": 71,
          "midi": 61,
          "name": "C#4",
          "ticks": 13945,
          "time": 128.1708191666667,
          "velocity": 0.7795275590551181
        },
        {
          "duration": 0.6617640000000051,
          "durationTicks": 72,
          "midi": 68,
          "name": "G#4",
          "ticks": 13968,
          "time": 128.382216,
          "velocity": 0.6141732283464567
        },
        {
          "duration": 0.4411760000000129,
          "durationTicks": 48,
          "midi": 63,
          "name": "D#4",
          "ticks": 13992,
          "time": 128.602804,
          "velocity": 0.7795275590551181
        },
        {
          "duration": 0.22058800000002066,
          "durationTicks": 24,
          "midi": 61,
          "name": "C#4",
          "ticks": 14016,
          "time": 128.82339199999998,
          "velocity": 0.7795275590551181
        },
        {
          "duration": 0.8639696666666907,
          "durationTicks": 94,
          "midi": 41,
          "name": "F2",
          "ticks": 14040,
          "time": 129.04398,
          "velocity": 0.7086614173228346
        },
        {
          "duration": 0.8639696666666907,
          "durationTicks": 94,
          "midi": 48,
          "name": "C3",
          "ticks": 14040,
          "time": 129.04398,
          "velocity": 0.6535433070866141
        },
        {
          "duration": 0.854778500000009,
          "durationTicks": 93,
          "midi": 57,
          "name": "A3",
          "ticks": 14041,
          "time": 129.0531711666667,
          "velocity": 0.6850393700787402
        },
        {
          "duration": 0.8731608333333156,
          "durationTicks": 95,
          "midi": 68,
          "name": "G#4",
          "ticks": 14041,
          "time": 129.0531711666667,
          "velocity": 0.7086614173228346
        },
        {
          "duration": 1.102940000000018,
          "durationTicks": 120,
          "midi": 63,
          "name": "D#4",
          "ticks": 14088,
          "time": 129.485156,
          "velocity": 0.7795275590551181
        },
        {
          "duration": 1.0477930000000129,
          "durationTicks": 114,
          "midi": 41,
          "name": "F2",
          "ticks": 14136,
          "time": 129.926332,
          "velocity": 0.7165354330708661
        },
        {
          "duration": 1.0477930000000129,
          "durationTicks": 114,
          "midi": 48,
          "name": "C3",
          "ticks": 14136,
          "time": 129.926332,
          "velocity": 0.6377952755905512
        },
        {
          "duration": 1.0477930000000129,
          "durationTicks": 114,
          "midi": 57,
          "name": "A3",
          "ticks": 14137,
          "time": 129.93552316666668,
          "velocity": 0.6850393700787402
        },
        {
          "duration": 0.6525728333333234,
          "durationTicks": 71,
          "midi": 60,
          "name": "C4",
          "ticks": 14137,
          "time": 129.93552316666668,
          "velocity": 0.7795275590551181
        },
        {
          "duration": 0.624999333333335,
          "durationTicks": 68,
          "midi": 69,
          "name": "A4",
          "ticks": 14184,
          "time": 130.36750800000002,
          "velocity": 0.7795275590551181
        },
        {
          "duration": 0.4044113333333428,
          "durationTicks": 44,
          "midi": 63,
          "name": "D#4",
          "ticks": 14208,
          "time": 130.588096,
          "velocity": 0.7795275590551181
        },
        {
          "duration": 0.19301450000000386,
          "durationTicks": 21,
          "midi": 60,
          "name": "C4",
          "ticks": 14232,
          "time": 130.808684,
          "velocity": 0.7795275590551181
        },
        {
          "duration": 0.2022056666666856,
          "durationTicks": 22,
          "midi": 53,
          "name": "F3",
          "ticks": 14256,
          "time": 131.029272,
          "velocity": 0.6141732283464567
        },
        {
          "duration": 0.2022056666666856,
          "durationTicks": 22,
          "midi": 61,
          "name": "C#4",
          "ticks": 14256,
          "time": 131.029272,
          "velocity": 0.7795275590551181
        },
        {
          "duration": 0.2022056666666856,
          "durationTicks": 22,
          "midi": 49,
          "name": "C#3",
          "ticks": 14280,
          "time": 131.24986,
          "velocity": 0.6141732283464567
        },
        {
          "duration": 0.2022056666666856,
          "durationTicks": 22,
          "midi": 58,
          "name": "A#3",
          "ticks": 14280,
          "time": 131.24986,
          "velocity": 0.7795275590551181
        },
        {
          "duration": 0.15624983333333375,
          "durationTicks": 17,
          "midi": 53,
          "name": "F3",
          "ticks": 14304,
          "time": 131.470448,
          "velocity": 0.6141732283464567
        },
        {
          "duration": 0.15624983333333375,
          "durationTicks": 17,
          "midi": 61,
          "name": "C#4",
          "ticks": 14304,
          "time": 131.470448,
          "velocity": 0.7795275590551181
        },
        {
          "duration": 0.3676466666667011,
          "durationTicks": 40,
          "midi": 51,
          "name": "D#3",
          "ticks": 14328,
          "time": 131.691036,
          "velocity": 0.6141732283464567
        },
        {
          "duration": 0.3768378333333544,
          "durationTicks": 41,
          "midi": 60,
          "name": "C4",
          "ticks": 14328,
          "time": 131.691036,
          "velocity": 0.7795275590551181
        },
        {
          "duration": 0.1746321666666688,
          "durationTicks": 19,
          "midi": 49,
          "name": "C#3",
          "ticks": 14376,
          "time": 132.132212,
          "velocity": 0.6141732283464567
        },
        {
          "duration": 0.18382333333332213,
          "durationTicks": 20,
          "midi": 58,
          "name": "A#3",
          "ticks": 14376,
          "time": 132.132212,
          "velocity": 0.7795275590551181
        },
        {
          "duration": 0.17463216666669723,
          "durationTicks": 19,
          "midi": 48,
          "name": "C3",
          "ticks": 14400,
          "time": 132.3528,
          "velocity": 0.6141732283464567
        },
        {
          "duration": 0.17463216666669723,
          "durationTicks": 19,
          "midi": 56,
          "name": "G#3",
          "ticks": 14400,
          "time": 132.3528,
          "velocity": 0.7795275590551181
        },
        {
          "duration": 0.3768378333333544,
          "durationTicks": 41,
          "midi": 49,
          "name": "C#3",
          "ticks": 14424,
          "time": 132.573388,
          "velocity": 0.6141732283464567
        },
        {
          "duration": 0.3768378333333544,
          "durationTicks": 41,
          "midi": 58,
          "name": "A#3",
          "ticks": 14424,
          "time": 132.573388,
          "velocity": 0.7795275590551181
        },
        {
          "duration": 0.15624983333333375,
          "durationTicks": 17,
          "midi": 48,
          "name": "C3",
          "ticks": 14472,
          "time": 133.014564,
          "velocity": 0.6141732283464567
        },
        {
          "duration": 0.15624983333333375,
          "durationTicks": 17,
          "midi": 56,
          "name": "G#3",
          "ticks": 14472,
          "time": 133.014564,
          "velocity": 0.7795275590551181
        },
        {
          "duration": 0.1378674999999987,
          "durationTicks": 15,
          "midi": 46,
          "name": "A#2",
          "ticks": 14496,
          "time": 133.235152,
          "velocity": 0.6141732283464567
        },
        {
          "duration": 0.1378674999999987,
          "durationTicks": 15,
          "midi": 54,
          "name": "F#3",
          "ticks": 14496,
          "time": 133.235152,
          "velocity": 0.7795275590551181
        },
        {
          "duration": 0.3676466666667011,
          "durationTicks": 40,
          "midi": 48,
          "name": "C3",
          "ticks": 14520,
          "time": 133.45574,
          "velocity": 0.6141732283464567
        },
        {
          "duration": 0.3860290000000077,
          "durationTicks": 42,
          "midi": 56,
          "name": "G#3",
          "ticks": 14520,
          "time": 133.45574,
          "velocity": 0.7795275590551181
        },
        {
          "duration": 0.15624983333333375,
          "durationTicks": 17,
          "midi": 46,
          "name": "A#2",
          "ticks": 14568,
          "time": 133.896916,
          "velocity": 0.6141732283464567
        },
        {
          "duration": 0.15624983333333375,
          "durationTicks": 17,
          "midi": 54,
          "name": "F#3",
          "ticks": 14568,
          "time": 133.896916,
          "velocity": 0.7795275590551181
        },
        {
          "duration": 0.39522016666668947,
          "durationTicks": 43,
          "midi": 44,
          "name": "G#2",
          "ticks": 14592,
          "time": 134.117504,
          "velocity": 0.6141732283464567
        },
        {
          "duration": 0.39522016666668947,
          "durationTicks": 43,
          "midi": 53,
          "name": "F3",
          "ticks": 14592,
          "time": 134.117504,
          "velocity": 0.7795275590551181
        },
        {
          "duration": 0.15624983333333375,
          "durationTicks": 17,
          "midi": 46,
          "name": "A#2",
          "ticks": 14640,
          "time": 134.55868,
          "velocity": 0.6141732283464567
        },
        {
          "duration": 0.15624983333333375,
          "durationTicks": 17,
          "midi": 54,
          "name": "F#3",
          "ticks": 14640,
          "time": 134.55868,
          "velocity": 0.7795275590551181
        },
        {
          "duration": 0.15624983333333375,
          "durationTicks": 17,
          "midi": 44,
          "name": "G#2",
          "ticks": 14664,
          "time": 134.779268,
          "velocity": 0.6141732283464567
        },
        {
          "duration": 0.1654410000000155,
          "durationTicks": 18,
          "midi": 53,
          "name": "F3",
          "ticks": 14664,
          "time": 134.779268,
          "velocity": 0.7795275590551181
        },
        {
          "duration": 0.12867633333334538,
          "durationTicks": 14,
          "midi": 46,
          "name": "A#2",
          "ticks": 14688,
          "time": 134.999856,
          "velocity": 0.6141732283464567
        },
        {
          "duration": 0.1378674999999987,
          "durationTicks": 15,
          "midi": 54,
          "name": "F#3",
          "ticks": 14688,
          "time": 134.999856,
          "velocity": 0.7795275590551181
        },
        {
          "duration": 0.3676466666666727,
          "durationTicks": 40,
          "midi": 48,
          "name": "C3",
          "ticks": 14712,
          "time": 135.22044400000001,
          "velocity": 0.6141732283464567
        },
        {
          "duration": 0.376837833333326,
          "durationTicks": 41,
          "midi": 56,
          "name": "G#3",
          "ticks": 14712,
          "time": 135.22044400000001,
          "velocity": 0.7795275590551181
        },
        {
          "duration": 0.15624983333333375,
          "durationTicks": 17,
          "midi": 46,
          "name": "A#2",
          "ticks": 14760,
          "time": 135.66162,
          "velocity": 0.6141732283464567
        },
        {
          "duration": 0.15624983333333375,
          "durationTicks": 17,
          "midi": 54,
          "name": "F#3",
          "ticks": 14760,
          "time": 135.66162,
          "velocity": 0.7795275590551181
        },
        {
          "duration": 0.1378674999999987,
          "durationTicks": 15,
          "midi": 48,
          "name": "C3",
          "ticks": 14784,
          "time": 135.882208,
          "velocity": 0.6141732283464567
        },
        {
          "duration": 0.14705866666670886,
          "durationTicks": 16,
          "midi": 56,
          "name": "G#3",
          "ticks": 14784,
          "time": 135.882208,
          "velocity": 0.7795275590551181
        },
        {
          "duration": 1.525733666666639,
          "durationTicks": 166,
          "midi": 50,
          "name": "D3",
          "ticks": 14809,
          "time": 136.1119871666667,
          "velocity": 0.6141732283464567
        },
        {
          "duration": 1.525733666666639,
          "durationTicks": 166,
          "midi": 58,
          "name": "A#3",
          "ticks": 14809,
          "time": 136.1119871666667,
          "velocity": 0.7795275590551181
        },
        {
          "duration": 0.8823519999999974,
          "durationTicks": 96,
          "midi": 46,
          "name": "A#2",
          "ticks": 16176,
          "time": 148.676312,
          "velocity": 0.5511811023622047
        },
        {
          "duration": 0.8731608333333156,
          "durationTicks": 95,
          "midi": 70,
          "name": "A#4",
          "ticks": 16177,
          "time": 148.68550316666668,
          "velocity": 0.7637795275590551
        },
        {
          "duration": 0.6617639999999767,
          "durationTicks": 72,
          "midi": 68,
          "name": "G#4",
          "ticks": 16200,
          "time": 148.89690000000002,
          "velocity": 0.7086614173228346
        },
        {
          "duration": 0.44117599999998447,
          "durationTicks": 48,
          "midi": 63,
          "name": "D#4",
          "ticks": 16224,
          "time": 149.117488,
          "velocity": 0.6929133858267716
        },
        {
          "duration": 0.6617640000000051,
          "durationTicks": 72,
          "midi": 48,
          "name": "C3",
          "ticks": 16272,
          "time": 149.558664,
          "velocity": 0.5511811023622047
        },
        {
          "duration": 0.6525728333333234,
          "durationTicks": 71,
          "midi": 73,
          "name": "C#5",
          "ticks": 16273,
          "time": 149.56785516666667,
          "velocity": 0.7480314960629921
        },
        {
          "duration": 0.44117599999998447,
          "durationTicks": 48,
          "midi": 63,
          "name": "D#4",
          "ticks": 16296,
          "time": 149.779252,
          "velocity": 0.7086614173228346
        },
        {
          "duration": 0.22058799999999223,
          "durationTicks": 24,
          "midi": 68,
          "name": "G#4",
          "ticks": 16320,
          "time": 149.99984,
          "velocity": 0.5275590551181102
        },
        {
          "duration": 0.4411760000000129,
          "durationTicks": 48,
          "midi": 49,
          "name": "C#3",
          "ticks": 16344,
          "time": 150.220428,
          "velocity": 0.5511811023622047
        },
        {
          "duration": 0.20220566666665718,
          "durationTicks": 22,
          "midi": 73,
          "name": "C#5",
          "ticks": 16345,
          "time": 150.22961916666668,
          "velocity": 0.7480314960629921
        },
        {
          "duration": 0.6525728333333518,
          "durationTicks": 71,
          "midi": 65,
          "name": "F4",
          "ticks": 16368,
          "time": 150.441016,
          "velocity": 0.6929133858267716
        },
        {
          "duration": 0.6617640000000051,
          "durationTicks": 72,
          "midi": 49,
          "name": "C#3",
          "ticks": 16392,
          "time": 150.661604,
          "velocity": 0.5511811023622047
        },
        {
          "duration": 0.6525728333333234,
          "durationTicks": 71,
          "midi": 73,
          "name": "C#5",
          "ticks": 16393,
          "time": 150.6707951666667,
          "velocity": 0.7637795275590551
        },
        {
          "duration": 0.6617640000000051,
          "durationTicks": 72,
          "midi": 63,
          "name": "D#4",
          "ticks": 16416,
          "time": 150.882192,
          "velocity": 0.7086614173228346
        },
        {
          "duration": 0.6617640000000051,
          "durationTicks": 72,
          "midi": 61,
          "name": "C#4",
          "ticks": 16440,
          "time": 151.10278,
          "velocity": 0.6929133858267716
        },
        {
          "duration": 0.8731608333333156,
          "durationTicks": 95,
          "midi": 49,
          "name": "C#3",
          "ticks": 16464,
          "time": 151.32336800000002,
          "velocity": 0.5511811023622047
        },
        {
          "duration": 0.652572833333295,
          "durationTicks": 71,
          "midi": 73,
          "name": "C#5",
          "ticks": 16465,
          "time": 151.3325591666667,
          "velocity": 0.7637795275590551
        },
        {
          "duration": 0.6341904999999883,
          "durationTicks": 69,
          "midi": 63,
          "name": "D#4",
          "ticks": 16488,
          "time": 151.543956,
          "velocity": 0.7086614173228346
        },
        {
          "duration": 0.42279366666667784,
          "durationTicks": 46,
          "midi": 61,
          "name": "C#4",
          "ticks": 16512,
          "time": 151.764544,
          "velocity": 0.6929133858267716
        },
        {
          "duration": 0.2022056666666856,
          "durationTicks": 22,
          "midi": 73,
          "name": "C#5",
          "ticks": 16536,
          "time": 151.985132,
          "velocity": 0.7637795275590551
        },
        {
          "duration": 1.737130499999978,
          "durationTicks": 189,
          "midi": 54,
          "name": "F#3",
          "ticks": 16560,
          "time": 152.20572,
          "velocity": 0.5354330708661418
        },
        {
          "duration": 0.652572833333295,
          "durationTicks": 71,
          "midi": 61,
          "name": "C#4",
          "ticks": 16561,
          "time": 152.2149111666667,
          "velocity": 0.7244094488188977
        },
        {
          "duration": 0.6617640000000051,
          "durationTicks": 72,
          "midi": 73,
          "name": "C#5",
          "ticks": 16584,
          "time": 152.426308,
          "velocity": 0.8031496062992126
        },
        {
          "duration": 0.6617640000000051,
          "durationTicks": 72,
          "midi": 63,
          "name": "D#4",
          "ticks": 16608,
          "time": 152.646896,
          "velocity": 0.7559055118110236
        },
        {
          "duration": 0.6617640000000051,
          "durationTicks": 72,
          "midi": 61,
          "name": "C#4",
          "ticks": 16632,
          "time": 152.867484,
          "velocity": 0.7086614173228346
        },
        {
          "duration": 0.6617640000000051,
          "durationTicks": 72,
          "midi": 73,
          "name": "C#5",
          "ticks": 16656,
          "time": 153.088072,
          "velocity": 0.7401574803149606
        },
        {
          "duration": 0.624999333333335,
          "durationTicks": 68,
          "midi": 63,
          "name": "D#4",
          "ticks": 16680,
          "time": 153.30866,
          "velocity": 0.6929133858267716
        },
        {
          "duration": 0.4044113333333428,
          "durationTicks": 44,
          "midi": 61,
          "name": "C#4",
          "ticks": 16704,
          "time": 153.529248,
          "velocity": 0.7637795275590551
        },
        {
          "duration": 0.18382333333332213,
          "durationTicks": 20,
          "midi": 73,
          "name": "C#5",
          "ticks": 16728,
          "time": 153.74983600000002,
          "velocity": 0.7795275590551181
        },
        {
          "duration": 0.6617640000000051,
          "durationTicks": 72,
          "midi": 56,
          "name": "G#3",
          "ticks": 16752,
          "time": 153.970424,
          "velocity": 0.5511811023622047
        },
        {
          "duration": 0.6525728333333234,
          "durationTicks": 71,
          "midi": 61,
          "name": "C#4",
          "ticks": 16753,
          "time": 153.9796151666667,
          "velocity": 0.7637795275590551
        },
        {
          "duration": 1.5257336666666959,
          "durationTicks": 166,
          "midi": 73,
          "name": "C#5",
          "ticks": 16776,
          "time": 154.191012,
          "velocity": 0.6535433070866141
        },
        {
          "duration": 0.6617640000000051,
          "durationTicks": 72,
          "midi": 65,
          "name": "F4",
          "ticks": 16800,
          "time": 154.4116,
          "velocity": 0.6929133858267716
        },
        {
          "duration": 0.6617639999999767,
          "durationTicks": 72,
          "midi": 56,
          "name": "G#3",
          "ticks": 16824,
          "time": 154.632188,
          "velocity": 0.6535433070866141
        },
        {
          "duration": 0.43198483333330273,
          "durationTicks": 47,
          "midi": 63,
          "name": "D#4",
          "ticks": 16825,
          "time": 154.6413791666667,
          "velocity": 0.7480314960629921
        },
        {
          "duration": 0.6617640000000051,
          "durationTicks": 72,
          "midi": 75,
          "name": "D#5",
          "ticks": 16848,
          "time": 154.852776,
          "velocity": 0.7086614173228346
        },
        {
          "duration": 0.6433816666666985,
          "durationTicks": 70,
          "midi": 63,
          "name": "D#4",
          "ticks": 16872,
          "time": 155.073364,
          "velocity": 0.7322834645669292
        },
        {
          "duration": 0.42279366666670626,
          "durationTicks": 46,
          "midi": 56,
          "name": "G#3",
          "ticks": 16896,
          "time": 155.293952,
          "velocity": 0.6535433070866141
        },
        {
          "duration": 0.4136024999999961,
          "durationTicks": 45,
          "midi": 60,
          "name": "C4",
          "ticks": 16897,
          "time": 155.3031431666667,
          "velocity": 0.7480314960629921
        },
        {
          "duration": 0.2022056666666856,
          "durationTicks": 22,
          "midi": 75,
          "name": "D#5",
          "ticks": 16920,
          "time": 155.51454,
          "velocity": 0.6850393700787402
        },
        {
          "duration": 1.727939333333353,
          "durationTicks": 188,
          "midi": 49,
          "name": "C#3",
          "ticks": 16944,
          "time": 155.735128,
          "velocity": 0.6299212598425197
        },
        {
          "duration": 0.6525728333333234,
          "durationTicks": 71,
          "midi": 60,
          "name": "C4",
          "ticks": 16945,
          "time": 155.74431916666668,
          "velocity": 0.7716535433070866
        },
        {
          "duration": 0.4411760000000129,
          "durationTicks": 48,
          "midi": 75,
          "name": "D#5",
          "ticks": 16968,
          "time": 155.955716,
          "velocity": 0.7637795275590551
        },
        {
          "duration": 0.44117599999998447,
          "durationTicks": 48,
          "midi": 63,
          "name": "D#4",
          "ticks": 16992,
          "time": 156.17630400000002,
          "velocity": 0.7244094488188977
        },
        {
          "duration": 0.22058799999999223,
          "durationTicks": 24,
          "midi": 61,
          "name": "C#4",
          "ticks": 17016,
          "time": 156.396892,
          "velocity": 0.7007874015748031
        },
        {
          "duration": 0.4411760000000129,
          "durationTicks": 48,
          "midi": 60,
          "name": "C4",
          "ticks": 17040,
          "time": 156.61748,
          "velocity": 0.6535433070866141
        },
        {
          "duration": 0.6525728333333234,
          "durationTicks": 71,
          "midi": 75,
          "name": "D#5",
          "ticks": 17041,
          "time": 156.62667116666668,
          "velocity": 0.7480314960629921
        },
        {
          "duration": 0.4411760000000129,
          "durationTicks": 48,
          "midi": 63,
          "name": "D#4",
          "ticks": 17064,
          "time": 156.838068,
          "velocity": 0.7244094488188977
        },
        {
          "duration": 0.44117599999998447,
          "durationTicks": 48,
          "midi": 61,
          "name": "C#4",
          "ticks": 17088,
          "time": 157.058656,
          "velocity": 0.6535433070866141
        },
        {
          "duration": 0.21139683333333892,
          "durationTicks": 23,
          "midi": 75,
          "name": "D#5",
          "ticks": 17112,
          "time": 157.279244,
          "velocity": 0.7086614173228346
        },
        {
          "duration": 0.6433816666666985,
          "durationTicks": 70,
          "midi": 46,
          "name": "A#2",
          "ticks": 17136,
          "time": 157.499832,
          "velocity": 0.6456692913385826
        },
        {
          "duration": 0.6433816666666701,
          "durationTicks": 70,
          "midi": 60,
          "name": "C4",
          "ticks": 17137,
          "time": 157.50902316666668,
          "velocity": 0.7874015748031497
        },
        {
          "duration": 0.42279366666670626,
          "durationTicks": 46,
          "midi": 63,
          "name": "D#4",
          "ticks": 17160,
          "time": 157.72042,
          "velocity": 0.7007874015748031
        },
        {
          "duration": 0.2022056666666856,
          "durationTicks": 22,
          "midi": 70,
          "name": "A#4",
          "ticks": 17184,
          "time": 157.941008,
          "velocity": 0.7322834645669292
        },
        {
          "duration": 0.772057999999987,
          "durationTicks": 84,
          "midi": 46,
          "name": "A#2",
          "ticks": 17208,
          "time": 158.161596,
          "velocity": 0.6614173228346457
        },
        {
          "duration": 0.4411760000000129,
          "durationTicks": 48,
          "midi": 56,
          "name": "G#3",
          "ticks": 17208,
          "time": 158.161596,
          "velocity": 0.6535433070866141
        },
        {
          "duration": 0.6525728333333234,
          "durationTicks": 71,
          "midi": 62,
          "name": "D4",
          "ticks": 17209,
          "time": 158.17078716666668,
          "velocity": 0.7322834645669292
        },
        {
          "duration": 0.5514699999999948,
          "durationTicks": 60,
          "midi": 56,
          "name": "G#3",
          "ticks": 17256,
          "time": 158.60277200000002,
          "velocity": 0.6850393700787402
        },
        {
          "duration": 0.22058799999999223,
          "durationTicks": 24,
          "midi": 65,
          "name": "F4",
          "ticks": 17280,
          "time": 158.82336,
          "velocity": 0.8267716535433071
        },
        {
          "duration": 0.10110283333335701,
          "durationTicks": 11,
          "midi": 62,
          "name": "D4",
          "ticks": 17304,
          "time": 159.043948,
          "velocity": 0.7401574803149606
        },
        {
          "duration": 0.009191166666681738,
          "durationTicks": 1,
          "midi": 62,
          "name": "D4",
          "ticks": 17316,
          "time": 159.154242,
          "velocity": 0.7795275590551181
        },
        {
          "duration": 1.7187481666666997,
          "durationTicks": 187,
          "midi": 51,
          "name": "D#3",
          "ticks": 17328,
          "time": 159.264536,
          "velocity": 0.6850393700787402
        },
        {
          "duration": 0.4319848333333596,
          "durationTicks": 47,
          "midi": 73,
          "name": "C#5",
          "ticks": 17328,
          "time": 159.264536,
          "velocity": 0.8031496062992126
        },
        {
          "duration": 1.7279393333333246,
          "durationTicks": 188,
          "midi": 65,
          "name": "F4",
          "ticks": 17329,
          "time": 159.27372716666667,
          "velocity": 0.7165354330708661
        },
        {
          "duration": 0.6617640000000051,
          "durationTicks": 72,
          "midi": 68,
          "name": "G#4",
          "ticks": 17352,
          "time": 159.485124,
          "velocity": 0.7165354330708661
        },
        {
          "duration": 0.22058799999999223,
          "durationTicks": 24,
          "midi": 63,
          "name": "D#4",
          "ticks": 17376,
          "time": 159.705712,
          "velocity": 0.6929133858267716
        },
        {
          "duration": 0.6617640000000051,
          "durationTicks": 72,
          "midi": 61,
          "name": "C#4",
          "ticks": 17400,
          "time": 159.9263,
          "velocity": 0.7322834645669292
        },
        {
          "duration": 0.6617639999999767,
          "durationTicks": 72,
          "midi": 68,
          "name": "G#4",
          "ticks": 17424,
          "time": 160.14688800000002,
          "velocity": 0.6771653543307087
        },
        {
          "duration": 0.624999333333335,
          "durationTicks": 68,
          "midi": 63,
          "name": "D#4",
          "ticks": 17448,
          "time": 160.367476,
          "velocity": 0.6535433070866141
        },
        {
          "duration": 0.4136024999999961,
          "durationTicks": 45,
          "midi": 61,
          "name": "C#4",
          "ticks": 17472,
          "time": 160.588064,
          "velocity": 0.7480314960629921
        },
        {
          "duration": 0.19301450000000386,
          "durationTicks": 21,
          "midi": 68,
          "name": "G#4",
          "ticks": 17496,
          "time": 160.808652,
          "velocity": 0.7795275590551181
        },
        {
          "duration": 0.8823519999999974,
          "durationTicks": 96,
          "midi": 44,
          "name": "G#2",
          "ticks": 17520,
          "time": 161.02924000000002,
          "velocity": 0.6692913385826772
        },
        {
          "duration": 0.43198483333330273,
          "durationTicks": 47,
          "midi": 61,
          "name": "C#4",
          "ticks": 17521,
          "time": 161.0384311666667,
          "velocity": 0.7086614173228346
        },
        {
          "duration": 0.6433816666666701,
          "durationTicks": 70,
          "midi": 65,
          "name": "F4",
          "ticks": 17544,
          "time": 161.249828,
          "velocity": 0.7795275590551181
        },
        {
          "duration": 0.4319848333333596,
          "durationTicks": 47,
          "midi": 63,
          "name": "D#4",
          "ticks": 17568,
          "time": 161.470416,
          "velocity": 0.6850393700787402
        },
        {
          "duration": 0.19301450000000386,
          "durationTicks": 21,
          "midi": 60,
          "name": "C4",
          "ticks": 17592,
          "time": 161.691004,
          "velocity": 0.7952755905511811
        },
        {
          "duration": 0.8639696666666623,
          "durationTicks": 94,
          "midi": 44,
          "name": "G#2",
          "ticks": 17616,
          "time": 161.911592,
          "velocity": 0.7007874015748031
        },
        {
          "duration": 0.44117599999998447,
          "durationTicks": 48,
          "midi": 68,
          "name": "G#4",
          "ticks": 17617,
          "time": 161.9207831666667,
          "velocity": 0.7322834645669292
        },
        {
          "duration": 0.4411760000000129,
          "durationTicks": 48,
          "midi": 63,
          "name": "D#4",
          "ticks": 17640,
          "time": 162.13218,
          "velocity": 0.7559055118110236
        },
        {
          "duration": 0.42279366666667784,
          "durationTicks": 46,
          "midi": 60,
          "name": "C4",
          "ticks": 17664,
          "time": 162.352768,
          "velocity": 0.7322834645669292
        },
        {
          "duration": 0.21139683333333892,
          "durationTicks": 23,
          "midi": 68,
          "name": "G#4",
          "ticks": 17688,
          "time": 162.57335600000002,
          "velocity": 0.7795275590551181
        },
        {
          "duration": 0.6617640000000051,
          "durationTicks": 72,
          "midi": 42,
          "name": "F#2",
          "ticks": 17712,
          "time": 162.793944,
          "velocity": 0.6141732283464567
        },
        {
          "duration": 0.6525728333333234,
          "durationTicks": 71,
          "midi": 61,
          "name": "C#4",
          "ticks": 17713,
          "time": 162.8031351666667,
          "velocity": 0.7244094488188977
        },
        {
          "duration": 0.6617640000000051,
          "durationTicks": 72,
          "midi": 68,
          "name": "G#4",
          "ticks": 17736,
          "time": 163.014532,
          "velocity": 0.8031496062992126
        },
        {
          "duration": 0.6617640000000051,
          "durationTicks": 72,
          "midi": 63,
          "name": "D#4",
          "ticks": 17760,
          "time": 163.23512,
          "velocity": 0.7559055118110236
        },
        {
          "duration": 0.44117599999998447,
          "durationTicks": 48,
          "midi": 61,
          "name": "C#4",
          "ticks": 17784,
          "time": 163.45570800000002,
          "velocity": 0.7244094488188977
        },
        {
          "duration": 0.652572833333295,
          "durationTicks": 71,
          "midi": 42,
          "name": "F#2",
          "ticks": 17785,
          "time": 163.4648991666667,
          "velocity": 0.6141732283464567
        },
        {
          "duration": 0.6525728333333518,
          "durationTicks": 71,
          "midi": 68,
          "name": "G#4",
          "ticks": 17808,
          "time": 163.676296,
          "velocity": 0.7401574803149606
        },
        {
          "duration": 0.624999333333335,
          "durationTicks": 68,
          "midi": 63,
          "name": "D#4",
          "ticks": 17832,
          "time": 163.896884,
          "velocity": 0.6929133858267716
        },
        {
          "duration": 0.4411760000000129,
          "durationTicks": 48,
          "midi": 42,
          "name": "F#2",
          "ticks": 17856,
          "time": 164.117472,
          "velocity": 0.6141732283464567
        },
        {
          "duration": 0.4044113333333428,
          "durationTicks": 44,
          "midi": 61,
          "name": "C#4",
          "ticks": 17857,
          "time": 164.12666316666667,
          "velocity": 0.7637795275590551
        },
        {
          "duration": 0.21139683333333892,
          "durationTicks": 23,
          "midi": 68,
          "name": "G#4",
          "ticks": 17880,
          "time": 164.33806,
          "velocity": 0.7795275590551181
        },
        {
          "duration": 0.6617640000000051,
          "durationTicks": 72,
          "midi": 44,
          "name": "G#2",
          "ticks": 17904,
          "time": 164.558648,
          "velocity": 0.6141732283464567
        },
        {
          "duration": 0.6525728333333234,
          "durationTicks": 71,
          "midi": 61,
          "name": "C#4",
          "ticks": 17905,
          "time": 164.5678391666667,
          "velocity": 0.7244094488188977
        },
        {
          "duration": 0.6617640000000051,
          "durationTicks": 72,
          "midi": 68,
          "name": "G#4",
          "ticks": 17928,
          "time": 164.779236,
          "velocity": 0.8031496062992126
        },
        {
          "duration": 0.6617639999999767,
          "durationTicks": 72,
          "midi": 63,
          "name": "D#4",
          "ticks": 17952,
          "time": 164.99982400000002,
          "velocity": 0.7559055118110236
        },
        {
          "duration": 0.44117599999998447,
          "durationTicks": 48,
          "midi": 60,
          "name": "C4",
          "ticks": 17976,
          "time": 165.220412,
          "velocity": 0.7244094488188977
        },
        {
          "duration": 0.6525728333333234,
          "durationTicks": 71,
          "midi": 41,
          "name": "F2",
          "ticks": 17977,
          "time": 165.2296031666667,
          "velocity": 0.6141732283464567
        },
        {
          "duration": 0.6525728333333518,
          "durationTicks": 71,
          "midi": 69,
          "name": "A4",
          "ticks": 18000,
          "time": 165.441,
          "velocity": 0.7401574803149606
        },
        {
          "duration": 0.6249993333333634,
          "durationTicks": 68,
          "midi": 63,
          "name": "D#4",
          "ticks": 18024,
          "time": 165.661588,
          "velocity": 0.6929133858267716
        },
        {
          "duration": 0.44117599999998447,
          "durationTicks": 48,
          "midi": 41,
          "name": "F2",
          "ticks": 18048,
          "time": 165.88217600000002,
          "velocity": 0.6141732283464567
        },
        {
          "duration": 0.40441133333331436,
          "durationTicks": 44,
          "midi": 60,
          "name": "C4",
          "ticks": 18049,
          "time": 165.8913671666667,
          "velocity": 0.7637795275590551
        },
        {
          "duration": 0.21139683333333892,
          "durationTicks": 23,
          "midi": 69,
          "name": "A4",
          "ticks": 18072,
          "time": 166.102764,
          "velocity": 0.7795275590551181
        },
        {
          "duration": 0.8823519999999974,
          "durationTicks": 96,
          "midi": 54,
          "name": "F#3",
          "ticks": 18096,
          "time": 166.323352,
          "velocity": 0.6141732283464567
        },
        {
          "duration": 0.6525728333333234,
          "durationTicks": 71,
          "midi": 61,
          "name": "C#4",
          "ticks": 18097,
          "time": 166.33254316666668,
          "velocity": 0.7244094488188977
        },
        {
          "duration": 0.6617640000000051,
          "durationTicks": 72,
          "midi": 68,
          "name": "G#4",
          "ticks": 18120,
          "time": 166.54394,
          "velocity": 0.8031496062992126
        },
        {
          "duration": 0.6525728333333234,
          "durationTicks": 71,
          "midi": 63,
          "name": "D#4",
          "ticks": 18144,
          "time": 166.764528,
          "velocity": 0.7559055118110236
        },
        {
          "duration": 0.43198483333333115,
          "durationTicks": 47,
          "midi": 61,
          "name": "C#4",
          "ticks": 18168,
          "time": 166.985116,
          "velocity": 0.7401574803149606
        },
        {
          "duration": 0.8823519999999974,
          "durationTicks": 96,
          "midi": 54,
          "name": "F#3",
          "ticks": 18192,
          "time": 167.205704,
          "velocity": 0.6141732283464567
        },
        {
          "duration": 0.6525728333333234,
          "durationTicks": 71,
          "midi": 68,
          "name": "G#4",
          "ticks": 18193,
          "time": 167.21489516666668,
          "velocity": 0.7401574803149606
        },
        {
          "duration": 0.624999333333335,
          "durationTicks": 68,
          "midi": 63,
          "name": "D#4",
          "ticks": 18216,
          "time": 167.42629200000002,
          "velocity": 0.6929133858267716
        },
        {
          "duration": 0.4044113333333428,
          "durationTicks": 44,
          "midi": 61,
          "name": "C#4",
          "ticks": 18240,
          "time": 167.64688,
          "velocity": 0.7637795275590551
        },
        {
          "duration": 0.21139683333333892,
          "durationTicks": 23,
          "midi": 68,
          "name": "G#4",
          "ticks": 18264,
          "time": 167.867468,
          "velocity": 0.7795275590551181
        },
        {
          "duration": 0.6617640000000051,
          "durationTicks": 72,
          "midi": 56,
          "name": "G#3",
          "ticks": 18288,
          "time": 168.088056,
          "velocity": 0.5511811023622047
        },
        {
          "duration": 0.6525728333333234,
          "durationTicks": 71,
          "midi": 61,
          "name": "C#4",
          "ticks": 18289,
          "time": 168.09724716666668,
          "velocity": 0.7637795275590551
        },
        {
          "duration": 0.6617639999999767,
          "durationTicks": 72,
          "midi": 68,
          "name": "G#4",
          "ticks": 18312,
          "time": 168.30864400000002,
          "velocity": 0.7480314960629921
        },
        {
          "duration": 0.6617640000000051,
          "durationTicks": 72,
          "midi": 63,
          "name": "D#4",
          "ticks": 18336,
          "time": 168.529232,
          "velocity": 0.6929133858267716
        },
        {
          "duration": 0.6617640000000051,
          "durationTicks": 72,
          "midi": 56,
          "name": "G#3",
          "ticks": 18360,
          "time": 168.74982,
          "velocity": 0.6535433070866141
        },
        {
          "duration": 0.6617640000000051,
          "durationTicks": 72,
          "midi": 60,
          "name": "C4",
          "ticks": 18361,
          "time": 168.75901116666668,
          "velocity": 0.7795275590551181
        },
        {
          "duration": 0.6617640000000051,
          "durationTicks": 72,
          "midi": 68,
          "name": "G#4",
          "ticks": 18384,
          "time": 168.970408,
          "velocity": 0.7086614173228346
        },
        {
          "duration": 0.6433816666666701,
          "durationTicks": 70,
          "midi": 63,
          "name": "D#4",
          "ticks": 18408,
          "time": 169.190996,
          "velocity": 0.7322834645669292
        },
        {
          "duration": 0.42279366666667784,
          "durationTicks": 46,
          "midi": 56,
          "name": "G#3",
          "ticks": 18432,
          "time": 169.411584,
          "velocity": 0.6535433070866141
        },
        {
          "duration": 0.4136024999999961,
          "durationTicks": 45,
          "midi": 60,
          "name": "C4",
          "ticks": 18433,
          "time": 169.4207751666667,
          "velocity": 0.7480314960629921
        },
        {
          "duration": 0.2022056666666856,
          "durationTicks": 22,
          "midi": 68,
          "name": "G#4",
          "ticks": 18456,
          "time": 169.632172,
          "velocity": 0.6850393700787402
        },
        {
          "duration": 0.8547784999999806,
          "durationTicks": 93,
          "midi": 49,
          "name": "C#3",
          "ticks": 18480,
          "time": 169.85276000000002,
          "velocity": 0.6299212598425197
        },
        {
          "duration": 0.652572833333295,
          "durationTicks": 71,
          "midi": 60,
          "name": "C4",
          "ticks": 18481,
          "time": 169.8619511666667,
          "velocity": 0.7716535433070866
        },
        {
          "duration": 0.6617640000000051,
          "durationTicks": 72,
          "midi": 66,
          "name": "F#4",
          "ticks": 18504,
          "time": 170.073348,
          "velocity": 0.7637795275590551
        },
        {
          "duration": 0.4411760000000129,
          "durationTicks": 48,
          "midi": 63,
          "name": "D#4",
          "ticks": 18528,
          "time": 170.293936,
          "velocity": 0.7244094488188977
        },
        {
          "duration": 0.2022056666666856,
          "durationTicks": 22,
          "midi": 61,
          "name": "C#4",
          "ticks": 18552,
          "time": 170.514524,
          "velocity": 0.6535433070866141
        },
        {
          "duration": 0.8547784999999806,
          "durationTicks": 93,
          "midi": 49,
          "name": "C#3",
          "ticks": 18576,
          "time": 170.73511200000002,
          "velocity": 0.5354330708661418
        },
        {
          "duration": 0.44117599999998447,
          "durationTicks": 48,
          "midi": 60,
          "name": "C4",
          "ticks": 18576,
          "time": 170.73511200000002,
          "velocity": 0.6535433070866141
        },
        {
          "duration": 0.652572833333295,
          "durationTicks": 71,
          "midi": 68,
          "name": "G#4",
          "ticks": 18577,
          "time": 170.7443031666667,
          "velocity": 0.7480314960629921
        },
        {
          "duration": 0.44117599999998447,
          "durationTicks": 48,
          "midi": 66,
          "name": "F#4",
          "ticks": 18600,
          "time": 170.9557,
          "velocity": 0.7244094488188977
        },
        {
          "duration": 0.4411760000000129,
          "durationTicks": 48,
          "midi": 61,
          "name": "C#4",
          "ticks": 18624,
          "time": 171.176288,
          "velocity": 0.6535433070866141
        },
        {
          "duration": 0.21139683333336734,
          "durationTicks": 23,
          "midi": 68,
          "name": "G#4",
          "ticks": 18648,
          "time": 171.396876,
          "velocity": 0.7795275590551181
        },
        {
          "duration": 0.6433816666666701,
          "durationTicks": 70,
          "midi": 46,
          "name": "A#2",
          "ticks": 18672,
          "time": 171.617464,
          "velocity": 0.6456692913385826
        },
        {
          "duration": 0.6433816666666416,
          "durationTicks": 70,
          "midi": 60,
          "name": "C4",
          "ticks": 18673,
          "time": 171.6266551666667,
          "velocity": 0.7874015748031497
        },
        {
          "duration": 0.42279366666667784,
          "durationTicks": 46,
          "midi": 65,
          "name": "F4",
          "ticks": 18696,
          "time": 171.838052,
          "velocity": 0.7007874015748031
        },
        {
          "duration": 0.6617640000000051,
          "durationTicks": 72,
          "midi": 63,
          "name": "D#4",
          "ticks": 18720,
          "time": 172.05864,
          "velocity": 0.7322834645669292
        },
        {
          "duration": 1.0937488333333363,
          "durationTicks": 119,
          "midi": 46,
          "name": "A#2",
          "ticks": 18744,
          "time": 172.27922800000002,
          "velocity": 0.6614173228346457
        },
        {
          "duration": 0.652572833333295,
          "durationTicks": 71,
          "midi": 61,
          "name": "C#4",
          "ticks": 18745,
          "time": 172.2884191666667,
          "velocity": 0.6535433070866141
        },
        {
          "duration": 0.6617640000000051,
          "durationTicks": 72,
          "midi": 68,
          "name": "G#4",
          "ticks": 18768,
          "time": 172.499816,
          "velocity": 0.7795275590551181
        },
        {
          "duration": 0.4411760000000129,
          "durationTicks": 48,
          "midi": 63,
          "name": "D#4",
          "ticks": 18792,
          "time": 172.720404,
          "velocity": 0.7795275590551181
        },
        {
          "duration": 0.42279366666670626,
          "durationTicks": 46,
          "midi": 61,
          "name": "C#4",
          "ticks": 18816,
          "time": 172.940992,
          "velocity": 0.8267716535433071
        },
        {
          "duration": 0.2022056666666856,
          "durationTicks": 22,
          "midi": 68,
          "name": "G#4",
          "ticks": 18840,
          "time": 173.16158000000001,
          "velocity": 0.7401574803149606
        },
        {
          "duration": 0.873160833333344,
          "durationTicks": 95,
          "midi": 54,
          "name": "F#3",
          "ticks": 18864,
          "time": 173.382168,
          "velocity": 0.6141732283464567
        },
        {
          "duration": 0.6525728333333234,
          "durationTicks": 71,
          "midi": 61,
          "name": "C#4",
          "ticks": 18865,
          "time": 173.3913591666667,
          "velocity": 0.7244094488188977
        },
        {
          "duration": 0.6617640000000051,
          "durationTicks": 72,
          "midi": 68,
          "name": "G#4",
          "ticks": 18888,
          "time": 173.602756,
          "velocity": 0.7401574803149606
        },
        {
          "duration": 0.6617640000000051,
          "durationTicks": 72,
          "midi": 63,
          "name": "D#4",
          "ticks": 18912,
          "time": 173.823344,
          "velocity": 0.7559055118110236
        },
        {
          "duration": 0.43198483333333115,
          "durationTicks": 47,
          "midi": 61,
          "name": "C#4",
          "ticks": 18936,
          "time": 174.043932,
          "velocity": 0.7244094488188977
        },
        {
          "duration": 0.873160833333344,
          "durationTicks": 95,
          "midi": 54,
          "name": "F#3",
          "ticks": 18960,
          "time": 174.26452,
          "velocity": 0.7007874015748031
        },
        {
          "duration": 0.6525728333333234,
          "durationTicks": 71,
          "midi": 68,
          "name": "G#4",
          "ticks": 18961,
          "time": 174.2737111666667,
          "velocity": 0.7401574803149606
        },
        {
          "duration": 0.6249993333333634,
          "durationTicks": 68,
          "midi": 63,
          "name": "D#4",
          "ticks": 18984,
          "time": 174.485108,
          "velocity": 0.6929133858267716
        },
        {
          "duration": 0.4044113333333428,
          "durationTicks": 44,
          "midi": 61,
          "name": "C#4",
          "ticks": 19008,
          "time": 174.70569600000002,
          "velocity": 0.7637795275590551
        },
        {
          "duration": 0.21139683333333892,
          "durationTicks": 23,
          "midi": 68,
          "name": "G#4",
          "ticks": 19032,
          "time": 174.926284,
          "velocity": 0.7795275590551181
        },
        {
          "duration": 0.6617640000000051,
          "durationTicks": 72,
          "midi": 53,
          "name": "F3",
          "ticks": 19056,
          "time": 175.146872,
          "velocity": 0.5511811023622047
        },
        {
          "duration": 0.6525728333333234,
          "durationTicks": 71,
          "midi": 60,
          "name": "C4",
          "ticks": 19057,
          "time": 175.15606316666668,
          "velocity": 0.7637795275590551
        },
        {
          "duration": 0.6617640000000051,
          "durationTicks": 72,
          "midi": 69,
          "name": "A4",
          "ticks": 19080,
          "time": 175.36746,
          "velocity": 0.7086614173228346
        },
        {
          "duration": 0.6617639999999767,
          "durationTicks": 72,
          "midi": 63,
          "name": "D#4",
          "ticks": 19104,
          "time": 175.58804800000001,
          "velocity": 0.6929133858267716
        },
        {
          "duration": 0.9926460000000077,
          "durationTicks": 108,
          "midi": 53,
          "name": "F3",
          "ticks": 19128,
          "time": 175.808636,
          "velocity": 0.5511811023622047
        },
        {
          "duration": 0.6525728333333234,
          "durationTicks": 71,
          "midi": 60,
          "name": "C4",
          "ticks": 19129,
          "time": 175.8178271666667,
          "velocity": 0.7480314960629921
        },
        {
          "duration": 0.6617640000000051,
          "durationTicks": 72,
          "midi": 69,
          "name": "A4",
          "ticks": 19152,
          "time": 176.029224,
          "velocity": 0.7086614173228346
        },
        {
          "duration": 0.5514700000000232,
          "durationTicks": 60,
          "midi": 63,
          "name": "D#4",
          "ticks": 19176,
          "time": 176.249812,
          "velocity": 0.7322834645669292
        },
        {
          "duration": 0.33088200000000256,
          "durationTicks": 36,
          "midi": 60,
          "name": "C4",
          "ticks": 19200,
          "time": 176.4704,
          "velocity": 0.7480314960629921
        },
        {
          "duration": 0.11029400000001033,
          "durationTicks": 12,
          "midi": 69,
          "name": "A4",
          "ticks": 19224,
          "time": 176.690988,
          "velocity": 0.7795275590551181
        },
        {
          "duration": 0.009191166666681738,
          "durationTicks": 1,
          "midi": 69,
          "name": "A4",
          "ticks": 19236,
          "time": 176.80128200000001,
          "velocity": 0.6220472440944882
        },
        {
          "duration": 0.6617640000000051,
          "durationTicks": 72,
          "midi": 58,
          "name": "A#3",
          "ticks": 19248,
          "time": 176.911576,
          "velocity": 0.5511811023622047
        },
        {
          "duration": 0.6525728333333234,
          "durationTicks": 71,
          "midi": 70,
          "name": "A#4",
          "ticks": 19249,
          "time": 176.92076716666668,
          "velocity": 0.7637795275590551
        },
        {
          "duration": 0.6617639999999767,
          "durationTicks": 72,
          "midi": 68,
          "name": "G#4",
          "ticks": 19272,
          "time": 177.13216400000002,
          "velocity": 0.7086614173228346
        },
        {
          "duration": 0.6617640000000051,
          "durationTicks": 72,
          "midi": 63,
          "name": "D#4",
          "ticks": 19296,
          "time": 177.352752,
          "velocity": 0.6929133858267716
        },
        {
          "duration": 1.084557666666683,
          "durationTicks": 118,
          "midi": 58,
          "name": "A#3",
          "ticks": 19320,
          "time": 177.57334,
          "velocity": 0.5511811023622047
        },
        {
          "duration": 0.6525728333333234,
          "durationTicks": 71,
          "midi": 70,
          "name": "A#4",
          "ticks": 19321,
          "time": 177.58253116666668,
          "velocity": 0.7480314960629921
        },
        {
          "duration": 0.6617640000000051,
          "durationTicks": 72,
          "midi": 68,
          "name": "G#4",
          "ticks": 19344,
          "time": 177.793928,
          "velocity": 0.5590551181102362
        },
        {
          "duration": 0.44117599999998447,
          "durationTicks": 48,
          "midi": 63,
          "name": "D#4",
          "ticks": 19368,
          "time": 178.01451600000001,
          "velocity": 0.7322834645669292
        },
        {
          "duration": 0.4136024999999961,
          "durationTicks": 45,
          "midi": 70,
          "name": "A#4",
          "ticks": 19392,
          "time": 178.235104,
          "velocity": 0.7480314960629921
        },
        {
          "duration": 0.2022056666666856,
          "durationTicks": 22,
          "midi": 63,
          "name": "D#4",
          "ticks": 19416,
          "time": 178.455692,
          "velocity": 0.6850393700787402
        },
        {
          "duration": 0.6617640000000051,
          "durationTicks": 72,
          "midi": 58,
          "name": "A#3",
          "ticks": 19440,
          "time": 178.67628,
          "velocity": 0.5511811023622047
        },
        {
          "duration": 0.652572833333295,
          "durationTicks": 71,
          "midi": 61,
          "name": "C#4",
          "ticks": 19441,
          "time": 178.6854711666667,
          "velocity": 0.7165354330708661
        },
        {
          "duration": 0.6617640000000051,
          "durationTicks": 72,
          "midi": 68,
          "name": "G#4",
          "ticks": 19464,
          "time": 178.896868,
          "velocity": 0.7637795275590551
        },
        {
          "duration": 0.6617640000000051,
          "durationTicks": 72,
          "midi": 63,
          "name": "D#4",
          "ticks": 19488,
          "time": 179.117456,
          "velocity": 0.7086614173228346
        },
        {
          "duration": 0.6617640000000051,
          "durationTicks": 72,
          "midi": 61,
          "name": "C#4",
          "ticks": 19512,
          "time": 179.338044,
          "velocity": 0.6929133858267716
        },
        {
          "duration": 0.6617639999999767,
          "durationTicks": 72,
          "midi": 68,
          "name": "G#4",
          "ticks": 19536,
          "time": 179.55863200000002,
          "velocity": 0.7637795275590551
        },
        {
          "duration": 0.6341904999999883,
          "durationTicks": 69,
          "midi": 63,
          "name": "D#4",
          "ticks": 19560,
          "time": 179.77922,
          "velocity": 0.7086614173228346
        },
        {
          "duration": 0.42279366666667784,
          "durationTicks": 46,
          "midi": 61,
          "name": "C#4",
          "ticks": 19584,
          "time": 179.999808,
          "velocity": 0.6929133858267716
        },
        {
          "duration": 0.2022056666666856,
          "durationTicks": 22,
          "midi": 68,
          "name": "G#4",
          "ticks": 19608,
          "time": 180.220396,
          "velocity": 0.7637795275590551
        },
        {
          "duration": 1.737130499999978,
          "durationTicks": 189,
          "midi": 54,
          "name": "F#3",
          "ticks": 19632,
          "time": 180.44098400000001,
          "velocity": 0.5354330708661418
        },
        {
          "duration": 0.652572833333295,
          "durationTicks": 71,
          "midi": 61,
          "name": "C#4",
          "ticks": 19633,
          "time": 180.4501751666667,
          "velocity": 0.7244094488188977
        },
        {
          "duration": 0.6617640000000051,
          "durationTicks": 72,
          "midi": 73,
          "name": "C#5",
          "ticks": 19656,
          "time": 180.661572,
          "velocity": 0.8031496062992126
        },
        {
          "duration": 0.6617640000000051,
          "durationTicks": 72,
          "midi": 63,
          "name": "D#4",
          "ticks": 19680,
          "time": 180.88216,
          "velocity": 0.7559055118110236
        },
        {
          "duration": 0.6617640000000051,
          "durationTicks": 72,
          "midi": 61,
          "name": "C#4",
          "ticks": 19704,
          "time": 181.102748,
          "velocity": 0.7086614173228346
        },
        {
          "duration": 0.6617640000000051,
          "durationTicks": 72,
          "midi": 73,
          "name": "C#5",
          "ticks": 19728,
          "time": 181.323336,
          "velocity": 0.7401574803149606
        },
        {
          "duration": 0.624999333333335,
          "durationTicks": 68,
          "midi": 63,
          "name": "D#4",
          "ticks": 19752,
          "time": 181.543924,
          "velocity": 0.6929133858267716
        },
        {
          "duration": 0.4044113333333428,
          "durationTicks": 44,
          "midi": 61,
          "name": "C#4",
          "ticks": 19776,
          "time": 181.764512,
          "velocity": 0.7637795275590551
        },
        {
          "duration": 0.18382333333332213,
          "durationTicks": 20,
          "midi": 73,
          "name": "C#5",
          "ticks": 19800,
          "time": 181.98510000000002,
          "velocity": 0.7795275590551181
        },
        {
          "duration": 0.6617640000000051,
          "durationTicks": 72,
          "midi": 56,
          "name": "G#3",
          "ticks": 19824,
          "time": 182.205688,
          "velocity": 0.5511811023622047
        },
        {
          "duration": 0.6525728333333234,
          "durationTicks": 71,
          "midi": 61,
          "name": "C#4",
          "ticks": 19825,
          "time": 182.2148791666667,
          "velocity": 0.7637795275590551
        },
        {
          "duration": 0.6617640000000051,
          "durationTicks": 72,
          "midi": 75,
          "name": "D#5",
          "ticks": 19848,
          "time": 182.426276,
          "velocity": 0.7086614173228346
        },
        {
          "duration": 0.6617640000000051,
          "durationTicks": 72,
          "midi": 65,
          "name": "F4",
          "ticks": 19872,
          "time": 182.646864,
          "velocity": 0.6929133858267716
        },
        {
          "duration": 0.6617639999999767,
          "durationTicks": 72,
          "midi": 56,
          "name": "G#3",
          "ticks": 19896,
          "time": 182.86745200000001,
          "velocity": 0.6535433070866141
        },
        {
          "duration": 0.43198483333330273,
          "durationTicks": 47,
          "midi": 63,
          "name": "D#4",
          "ticks": 19897,
          "time": 182.8766431666667,
          "velocity": 0.7480314960629921
        },
        {
          "duration": 0.6617640000000051,
          "durationTicks": 72,
          "midi": 75,
          "name": "D#5",
          "ticks": 19920,
          "time": 183.08804,
          "velocity": 0.7795275590551181
        },
        {
          "duration": 0.6433816666666985,
          "durationTicks": 70,
          "midi": 63,
          "name": "D#4",
          "ticks": 19944,
          "time": 183.308628,
          "velocity": 0.7322834645669292
        },
        {
          "duration": 0.42279366666670626,
          "durationTicks": 46,
          "midi": 56,
          "name": "G#3",
          "ticks": 19968,
          "time": 183.529216,
          "velocity": 0.6535433070866141
        },
        {
          "duration": 0.4136024999999961,
          "durationTicks": 45,
          "midi": 60,
          "name": "C4",
          "ticks": 19969,
          "time": 183.5384071666667,
          "velocity": 0.7480314960629921
        },
        {
          "duration": 0.2022056666666856,
          "durationTicks": 22,
          "midi": 75,
          "name": "D#5",
          "ticks": 19992,
          "time": 183.749804,
          "velocity": 0.6850393700787402
        },
        {
          "duration": 1.727939333333353,
          "durationTicks": 188,
          "midi": 49,
          "name": "C#3",
          "ticks": 20016,
          "time": 183.970392,
          "velocity": 0.6299212598425197
        },
        {
          "duration": 0.6525728333333234,
          "durationTicks": 71,
          "midi": 60,
          "name": "C4",
          "ticks": 20017,
          "time": 183.97958316666669,
          "velocity": 0.7716535433070866
        },
        {
          "duration": 0.4411760000000129,
          "durationTicks": 48,
          "midi": 75,
          "name": "D#5",
          "ticks": 20040,
          "time": 184.19098,
          "velocity": 0.7637795275590551
        },
        {
          "duration": 0.44117599999998447,
          "durationTicks": 48,
          "midi": 63,
          "name": "D#4",
          "ticks": 20064,
          "time": 184.41156800000002,
          "velocity": 0.7244094488188977
        },
        {
          "duration": 0.22058799999999223,
          "durationTicks": 24,
          "midi": 61,
          "name": "C#4",
          "ticks": 20088,
          "time": 184.632156,
          "velocity": 0.7007874015748031
        },
        {
          "duration": 0.4411760000000129,
          "durationTicks": 48,
          "midi": 60,
          "name": "C4",
          "ticks": 20112,
          "time": 184.852744,
          "velocity": 0.6535433070866141
        },
        {
          "duration": 0.6525728333333234,
          "durationTicks": 71,
          "midi": 75,
          "name": "D#5",
          "ticks": 20113,
          "time": 184.86193516666668,
          "velocity": 0.7480314960629921
        },
        {
          "duration": 0.4411760000000129,
          "durationTicks": 48,
          "midi": 63,
          "name": "D#4",
          "ticks": 20136,
          "time": 185.073332,
          "velocity": 0.7244094488188977
        },
        {
          "duration": 0.44117599999998447,
          "durationTicks": 48,
          "midi": 61,
          "name": "C#4",
          "ticks": 20160,
          "time": 185.29392,
          "velocity": 0.6535433070866141
        },
        {
          "duration": 0.21139683333333892,
          "durationTicks": 23,
          "midi": 75,
          "name": "D#5",
          "ticks": 20184,
          "time": 185.514508,
          "velocity": 0.7086614173228346
        },
        {
          "duration": 0.6433816666666985,
          "durationTicks": 70,
          "midi": 46,
          "name": "A#2",
          "ticks": 20208,
          "time": 185.735096,
          "velocity": 0.6456692913385826
        },
        {
          "duration": 0.6433816666666701,
          "durationTicks": 70,
          "midi": 60,
          "name": "C4",
          "ticks": 20209,
          "time": 185.74428716666668,
          "velocity": 0.7874015748031497
        },
        {
          "duration": 0.42279366666670626,
          "durationTicks": 46,
          "midi": 68,
          "name": "G#4",
          "ticks": 20232,
          "time": 185.955684,
          "velocity": 0.7007874015748031
        },
        {
          "duration": 0.2022056666666856,
          "durationTicks": 22,
          "midi": 63,
          "name": "D#4",
          "ticks": 20256,
          "time": 186.176272,
          "velocity": 0.7322834645669292
        },
        {
          "duration": 0.772057999999987,
          "durationTicks": 84,
          "midi": 46,
          "name": "A#2",
          "ticks": 20280,
          "time": 186.39686,
          "velocity": 0.6614173228346457
        },
        {
          "duration": 0.4411760000000129,
          "durationTicks": 48,
          "midi": 56,
          "name": "G#3",
          "ticks": 20280,
          "time": 186.39686,
          "velocity": 0.6535433070866141
        },
        {
          "duration": 0.6525728333333234,
          "durationTicks": 71,
          "midi": 62,
          "name": "D4",
          "ticks": 20281,
          "time": 186.40605116666669,
          "velocity": 0.7322834645669292
        },
        {
          "duration": 0.5514699999999948,
          "durationTicks": 60,
          "midi": 56,
          "name": "G#3",
          "ticks": 20328,
          "time": 186.83803600000002,
          "velocity": 0.6850393700787402
        },
        {
          "duration": 0.22058799999999223,
          "durationTicks": 24,
          "midi": 65,
          "name": "F4",
          "ticks": 20352,
          "time": 187.058624,
          "velocity": 0.8267716535433071
        },
        {
          "duration": 0.10110283333335701,
          "durationTicks": 11,
          "midi": 62,
          "name": "D4",
          "ticks": 20376,
          "time": 187.279212,
          "velocity": 0.7401574803149606
        },
        {
          "duration": 0.009191166666681738,
          "durationTicks": 1,
          "midi": 62,
          "name": "D4",
          "ticks": 20388,
          "time": 187.389506,
          "velocity": 0.7795275590551181
        },
        {
          "duration": 1.7187481666666997,
          "durationTicks": 187,
          "midi": 51,
          "name": "D#3",
          "ticks": 20400,
          "time": 187.4998,
          "velocity": 0.6850393700787402
        },
        {
          "duration": 0.4319848333333596,
          "durationTicks": 47,
          "midi": 73,
          "name": "C#5",
          "ticks": 20400,
          "time": 187.4998,
          "velocity": 0.6929133858267716
        },
        {
          "duration": 1.7279393333333246,
          "durationTicks": 188,
          "midi": 65,
          "name": "F4",
          "ticks": 20401,
          "time": 187.50899116666668,
          "velocity": 0.7165354330708661
        },
        {
          "duration": 0.6617640000000051,
          "durationTicks": 72,
          "midi": 68,
          "name": "G#4",
          "ticks": 20424,
          "time": 187.720388,
          "velocity": 0.7874015748031497
        },
        {
          "duration": 0.22058799999999223,
          "durationTicks": 24,
          "midi": 63,
          "name": "D#4",
          "ticks": 20448,
          "time": 187.940976,
          "velocity": 0.6929133858267716
        },
        {
          "duration": 0.6617640000000051,
          "durationTicks": 72,
          "midi": 61,
          "name": "C#4",
          "ticks": 20472,
          "time": 188.161564,
          "velocity": 0.7322834645669292
        },
        {
          "duration": 0.6617639999999767,
          "durationTicks": 72,
          "midi": 68,
          "name": "G#4",
          "ticks": 20496,
          "time": 188.38215200000002,
          "velocity": 0.6771653543307087
        },
        {
          "duration": 0.624999333333335,
          "durationTicks": 68,
          "midi": 63,
          "name": "D#4",
          "ticks": 20520,
          "time": 188.60274,
          "velocity": 0.6535433070866141
        },
        {
          "duration": 0.4136024999999961,
          "durationTicks": 45,
          "midi": 61,
          "name": "C#4",
          "ticks": 20544,
          "time": 188.823328,
          "velocity": 0.7480314960629921
        },
        {
          "duration": 0.19301450000000386,
          "durationTicks": 21,
          "midi": 68,
          "name": "G#4",
          "ticks": 20568,
          "time": 189.043916,
          "velocity": 0.7795275590551181
        },
        {
          "duration": 0.8823519999999974,
          "durationTicks": 96,
          "midi": 44,
          "name": "G#2",
          "ticks": 20592,
          "time": 189.26450400000002,
          "velocity": 0.6692913385826772
        },
        {
          "duration": 0.43198483333330273,
          "durationTicks": 47,
          "midi": 61,
          "name": "C#4",
          "ticks": 20593,
          "time": 189.2736951666667,
          "velocity": 0.7086614173228346
        },
        {
          "duration": 0.6433816666666701,
          "durationTicks": 70,
          "midi": 65,
          "name": "F4",
          "ticks": 20616,
          "time": 189.485092,
          "velocity": 0.7795275590551181
        },
        {
          "duration": 0.4319848333333596,
          "durationTicks": 47,
          "midi": 63,
          "name": "D#4",
          "ticks": 20640,
          "time": 189.70568,
          "velocity": 0.6850393700787402
        },
        {
          "duration": 0.19301450000000386,
          "durationTicks": 21,
          "midi": 60,
          "name": "C4",
          "ticks": 20664,
          "time": 189.926268,
          "velocity": 0.7952755905511811
        },
        {
          "duration": 0.8639696666666623,
          "durationTicks": 94,
          "midi": 44,
          "name": "G#2",
          "ticks": 20688,
          "time": 190.146856,
          "velocity": 0.7007874015748031
        },
        {
          "duration": 0.44117599999998447,
          "durationTicks": 48,
          "midi": 68,
          "name": "G#4",
          "ticks": 20689,
          "time": 190.1560471666667,
          "velocity": 0.7322834645669292
        },
        {
          "duration": 0.4411760000000129,
          "durationTicks": 48,
          "midi": 63,
          "name": "D#4",
          "ticks": 20712,
          "time": 190.367444,
          "velocity": 0.7559055118110236
        },
        {
          "duration": 0.42279366666667784,
          "durationTicks": 46,
          "midi": 60,
          "name": "C4",
          "ticks": 20736,
          "time": 190.588032,
          "velocity": 0.7322834645669292
        },
        {
          "duration": 0.21139683333333892,
          "durationTicks": 23,
          "midi": 68,
          "name": "G#4",
          "ticks": 20760,
          "time": 190.80862000000002,
          "velocity": 0.7795275590551181
        },
        {
          "duration": 0.8823519999999974,
          "durationTicks": 96,
          "midi": 46,
          "name": "A#2",
          "ticks": 20784,
          "time": 191.029208,
          "velocity": 0.5511811023622047
        },
        {
          "duration": 0.8731608333333156,
          "durationTicks": 95,
          "midi": 70,
          "name": "A#4",
          "ticks": 20785,
          "time": 191.0383991666667,
          "velocity": 0.7637795275590551
        },
        {
          "duration": 0.6617640000000051,
          "durationTicks": 72,
          "midi": 68,
          "name": "G#4",
          "ticks": 20808,
          "time": 191.249796,
          "velocity": 0.7086614173228346
        },
        {
          "duration": 0.4411760000000129,
          "durationTicks": 48,
          "midi": 63,
          "name": "D#4",
          "ticks": 20832,
          "time": 191.470384,
          "velocity": 0.6929133858267716
        },
        {
          "duration": 0.6617640000000051,
          "durationTicks": 72,
          "midi": 48,
          "name": "C3",
          "ticks": 20880,
          "time": 191.91156,
          "velocity": 0.5511811023622047
        },
        {
          "duration": 0.6525728333333234,
          "durationTicks": 71,
          "midi": 73,
          "name": "C#5",
          "ticks": 20881,
          "time": 191.9207511666667,
          "velocity": 0.7480314960629921
        },
        {
          "duration": 0.4411760000000129,
          "durationTicks": 48,
          "midi": 63,
          "name": "D#4",
          "ticks": 20904,
          "time": 192.132148,
          "velocity": 0.7086614173228346
        },
        {
          "duration": 0.4411760000000129,
          "durationTicks": 48,
          "midi": 61,
          "name": "C#4",
          "ticks": 20928,
          "time": 192.352736,
          "velocity": 0.7007874015748031
        },
        {
          "duration": 0.44117599999998447,
          "durationTicks": 48,
          "midi": 49,
          "name": "C#3",
          "ticks": 20952,
          "time": 192.573324,
          "velocity": 0.5511811023622047
        },
        {
          "duration": 0.20220566666665718,
          "durationTicks": 22,
          "midi": 73,
          "name": "C#5",
          "ticks": 20953,
          "time": 192.5825151666667,
          "velocity": 0.7480314960629921
        },
        {
          "duration": 0.6525728333333518,
          "durationTicks": 71,
          "midi": 61,
          "name": "C#4",
          "ticks": 20976,
          "time": 192.793912,
          "velocity": 0.6929133858267716
        },
        {
          "duration": 0.6617640000000051,
          "durationTicks": 72,
          "midi": 49,
          "name": "C#3",
          "ticks": 21000,
          "time": 193.0145,
          "velocity": 0.5511811023622047
        },
        {
          "duration": 0.6525728333333234,
          "durationTicks": 71,
          "midi": 72,
          "name": "C5",
          "ticks": 21001,
          "time": 193.02369116666668,
          "velocity": 0.7637795275590551
        },
        {
          "duration": 0.6617639999999767,
          "durationTicks": 72,
          "midi": 63,
          "name": "D#4",
          "ticks": 21024,
          "time": 193.23508800000002,
          "velocity": 0.7086614173228346
        },
        {
          "duration": 0.6617640000000051,
          "durationTicks": 72,
          "midi": 61,
          "name": "C#4",
          "ticks": 21048,
          "time": 193.455676,
          "velocity": 0.6929133858267716
        },
        {
          "duration": 0.873160833333344,
          "durationTicks": 95,
          "midi": 49,
          "name": "C#3",
          "ticks": 21072,
          "time": 193.676264,
          "velocity": 0.5511811023622047
        },
        {
          "duration": 0.6525728333333234,
          "durationTicks": 71,
          "midi": 68,
          "name": "G#4",
          "ticks": 21073,
          "time": 193.68545516666669,
          "velocity": 0.7637795275590551
        },
        {
          "duration": 0.6341905000000168,
          "durationTicks": 69,
          "midi": 63,
          "name": "D#4",
          "ticks": 21096,
          "time": 193.896852,
          "velocity": 0.7086614173228346
        },
        {
          "duration": 0.42279366666667784,
          "durationTicks": 46,
          "midi": 61,
          "name": "C#4",
          "ticks": 21120,
          "time": 194.11744000000002,
          "velocity": 0.6929133858267716
        },
        {
          "duration": 0.2022056666666856,
          "durationTicks": 22,
          "midi": 68,
          "name": "G#4",
          "ticks": 21144,
          "time": 194.338028,
          "velocity": 0.7637795275590551
        },
        {
          "duration": 1.7371305000000064,
          "durationTicks": 189,
          "midi": 54,
          "name": "F#3",
          "ticks": 21168,
          "time": 194.558616,
          "velocity": 0.5354330708661418
        },
        {
          "duration": 0.6525728333333234,
          "durationTicks": 71,
          "midi": 61,
          "name": "C#4",
          "ticks": 21169,
          "time": 194.56780716666668,
          "velocity": 0.7244094488188977
        },
        {
          "duration": 0.6617640000000051,
          "durationTicks": 72,
          "midi": 73,
          "name": "C#5",
          "ticks": 21192,
          "time": 194.779204,
          "velocity": 0.8031496062992126
        },
        {
          "duration": 0.6617640000000051,
          "durationTicks": 72,
          "midi": 63,
          "name": "D#4",
          "ticks": 21216,
          "time": 194.999792,
          "velocity": 0.7559055118110236
        },
        {
          "duration": 0.6617640000000051,
          "durationTicks": 72,
          "midi": 61,
          "name": "C#4",
          "ticks": 21240,
          "time": 195.22038,
          "velocity": 0.7086614173228346
        },
        {
          "duration": 0.6617640000000051,
          "durationTicks": 72,
          "midi": 73,
          "name": "C#5",
          "ticks": 21264,
          "time": 195.440968,
          "velocity": 0.7401574803149606
        },
        {
          "duration": 0.624999333333335,
          "durationTicks": 68,
          "midi": 63,
          "name": "D#4",
          "ticks": 21288,
          "time": 195.66155600000002,
          "velocity": 0.6929133858267716
        },
        {
          "duration": 0.4044113333333428,
          "durationTicks": 44,
          "midi": 61,
          "name": "C#4",
          "ticks": 21312,
          "time": 195.882144,
          "velocity": 0.7637795275590551
        },
        {
          "duration": 0.18382333333335055,
          "durationTicks": 20,
          "midi": 73,
          "name": "C#5",
          "ticks": 21336,
          "time": 196.102732,
          "velocity": 0.7086614173228346
        },
        {
          "duration": 0.6617640000000051,
          "durationTicks": 72,
          "midi": 56,
          "name": "G#3",
          "ticks": 21360,
          "time": 196.32332,
          "velocity": 0.5511811023622047
        },
        {
          "duration": 0.43198483333333115,
          "durationTicks": 47,
          "midi": 61,
          "name": "C#4",
          "ticks": 21361,
          "time": 196.33251116666668,
          "velocity": 0.7952755905511811
        },
        {
          "duration": 0.6617639999999767,
          "durationTicks": 72,
          "midi": 65,
          "name": "F4",
          "ticks": 21384,
          "time": 196.54390800000002,
          "velocity": 0.7086614173228346
        },
        {
          "duration": 0.21139683333333892,
          "durationTicks": 23,
          "midi": 61,
          "name": "C#4",
          "ticks": 21408,
          "time": 196.764496,
          "velocity": 0.7795275590551181
        },
        {
          "duration": 0.6617640000000051,
          "durationTicks": 72,
          "midi": 56,
          "name": "G#3",
          "ticks": 21432,
          "time": 196.985084,
          "velocity": 0.6535433070866141
        },
        {
          "duration": 0.43198483333333115,
          "durationTicks": 47,
          "midi": 60,
          "name": "C4",
          "ticks": 21433,
          "time": 196.99427516666668,
          "velocity": 0.7480314960629921
        },
        {
          "duration": 0.6617640000000051,
          "durationTicks": 72,
          "midi": 68,
          "name": "G#4",
          "ticks": 21456,
          "time": 197.205672,
          "velocity": 0.7795275590551181
        },
        {
          "duration": 0.6433816666666701,
          "durationTicks": 70,
          "midi": 63,
          "name": "D#4",
          "ticks": 21480,
          "time": 197.42626,
          "velocity": 0.7322834645669292
        },
        {
          "duration": 0.42279366666667784,
          "durationTicks": 46,
          "midi": 56,
          "name": "G#3",
          "ticks": 21504,
          "time": 197.646848,
          "velocity": 0.6535433070866141
        },
        {
          "duration": 0.4136024999999961,
          "durationTicks": 45,
          "midi": 60,
          "name": "C4",
          "ticks": 21505,
          "time": 197.6560391666667,
          "velocity": 0.7480314960629921
        },
        {
          "duration": 0.2022056666666856,
          "durationTicks": 22,
          "midi": 68,
          "name": "G#4",
          "ticks": 21528,
          "time": 197.867436,
          "velocity": 0.6850393700787402
        },
        {
          "duration": 1.7463216666666597,
          "durationTicks": 190,
          "midi": 42,
          "name": "F#2",
          "ticks": 21552,
          "time": 198.08802400000002,
          "velocity": 0.7007874015748031
        },
        {
          "duration": 1.7463216666666597,
          "durationTicks": 190,
          "midi": 49,
          "name": "C#3",
          "ticks": 21552,
          "time": 198.08802400000002,
          "velocity": 0.6141732283464567
        },
        {
          "duration": 0.43198483333330273,
          "durationTicks": 47,
          "midi": 56,
          "name": "G#3",
          "ticks": 21553,
          "time": 198.0972151666667,
          "velocity": 0.7795275590551181
        },
        {
          "duration": 0.44117599999998447,
          "durationTicks": 48,
          "midi": 61,
          "name": "C#4",
          "ticks": 21576,
          "time": 198.308612,
          "velocity": 0.7795275590551181
        },
        {
          "duration": 0.6617640000000051,
          "durationTicks": 72,
          "midi": 56,
          "name": "G#3",
          "ticks": 21600,
          "time": 198.5292,
          "velocity": 0.7795275590551181
        },
        {
          "duration": 0.6617640000000051,
          "durationTicks": 72,
          "midi": 63,
          "name": "D#4",
          "ticks": 21624,
          "time": 198.749788,
          "velocity": 0.7795275590551181
        },
        {
          "duration": 0.6617640000000051,
          "durationTicks": 72,
          "midi": 56,
          "name": "G#3",
          "ticks": 21672,
          "time": 199.190964,
          "velocity": 0.7795275590551181
        },
        {
          "duration": 0.22058799999999223,
          "durationTicks": 24,
          "midi": 60,
          "name": "C4",
          "ticks": 21696,
          "time": 199.411552,
          "velocity": 0.7086614173228346
        },
        {
          "duration": 0.22058800000002066,
          "durationTicks": 24,
          "midi": 61,
          "name": "C#4",
          "ticks": 21720,
          "time": 199.63214,
          "velocity": 0.7795275590551181
        },
        {
          "duration": 1.746321666666688,
          "durationTicks": 190,
          "midi": 42,
          "name": "F#2",
          "ticks": 21744,
          "time": 199.852728,
          "velocity": 0.6141732283464567
        },
        {
          "duration": 1.746321666666688,
          "durationTicks": 190,
          "midi": 49,
          "name": "C#3",
          "ticks": 21744,
          "time": 199.852728,
          "velocity": 0.6141732283464567
        },
        {
          "duration": 0.43198483333330273,
          "durationTicks": 47,
          "midi": 56,
          "name": "G#3",
          "ticks": 21745,
          "time": 199.8619191666667,
          "velocity": 0.7795275590551181
        },
        {
          "duration": 0.4411760000000129,
          "durationTicks": 48,
          "midi": 61,
          "name": "C#4",
          "ticks": 21768,
          "time": 200.073316,
          "velocity": 0.7795275590551181
        },
        {
          "duration": 0.44117599999998447,
          "durationTicks": 48,
          "midi": 56,
          "name": "G#3",
          "ticks": 21816,
          "time": 200.51449200000002,
          "velocity": 0.7795275590551181
        },
        {
          "duration": 0.8823519999999974,
          "durationTicks": 96,
          "midi": 63,
          "name": "D#4",
          "ticks": 21840,
          "time": 200.73508,
          "velocity": 0.7795275590551181
        },
        {
          "duration": 0.6617640000000051,
          "durationTicks": 72,
          "midi": 56,
          "name": "G#3",
          "ticks": 21864,
          "time": 200.955668,
          "velocity": 0.7795275590551181
        },
        {
          "duration": 0.22058800000002066,
          "durationTicks": 24,
          "midi": 60,
          "name": "C4",
          "ticks": 21888,
          "time": 201.176256,
          "velocity": 0.7086614173228346
        },
        {
          "duration": 0.21139683333333892,
          "durationTicks": 23,
          "midi": 61,
          "name": "C#4",
          "ticks": 21912,
          "time": 201.39684400000002,
          "velocity": 0.7795275590551181
        }
      ]
    },
    {
      "channel": 0,
      "controlChanges": {
        "0": [
          {
            "number": 0,
            "ticks": 146,
            "time": 1.3419103333333333,
            "value": 0
          }
        ],
        "32": [
          {
            "number": 32,
            "ticks": 150,
            "time": 1.378675,
            "value": 0.015748031496062992
          }
        ],
        "121": [
          {
            "number": 121,
            "ticks": 142,
            "time": 1.3051456666666668,
            "value": 0
          }
        ]
      },
      "pitchBends": [],
      "instrument": {
        "family": "piano",
        "number": 0,
        "name": "acoustic grand piano"
      },
      "name": "Brass",
      "notes": [],
      "endOfTrackTicks": 21936
    },
    {
      "channel": 8,
      "controlChanges": {
        "6": [
          {
            "number": 6,
            "ticks": 179,
            "time": 1.6452188333333333,
            "value": 0.09448818897637795
          }
        ],
        "7": [
          {
            "number": 7,
            "ticks": 158,
            "time": 1.4522043333333332,
            "value": 0.9133858267716536
          }
        ],
        "10": [
          {
            "number": 10,
            "ticks": 162,
            "time": 1.488969,
            "value": 0.5039370078740157
          },
          {
            "number": 10,
            "ticks": 11947,
            "time": 109.80686816666666,
            "value": 0.7244094488188977
          },
          {
            "number": 10,
            "ticks": 14255,
            "time": 131.02008083333334,
            "value": 0.5039370078740157
          }
        ],
        "11": [
          {
            "number": 11,
            "ticks": 164,
            "time": 1.5073513333333333,
            "value": 0.7795275590551181
          },
          {
            "number": 11,
            "ticks": 1200,
            "time": 11.029399999999999,
            "value": 0.6614173228346457
          },
          {
            "number": 11,
            "ticks": 1896,
            "time": 17.426452,
            "value": 0.7007874015748031
          },
          {
            "number": 11,
            "ticks": 1904,
            "time": 17.499981333333334,
            "value": 0.6771653543307087
          },
          {
            "number": 11,
            "ticks": 1907,
            "time": 17.527554833333333,
            "value": 0.6299212598425197
          },
          {
            "number": 11,
            "ticks": 1910,
            "time": 17.555128333333332,
            "value": 0.5826771653543307
          },
          {
            "number": 11,
            "ticks": 1913,
            "time": 17.582701833333335,
            "value": 0.5354330708661418
          },
          {
            "number": 11,
            "ticks": 1916,
            "time": 17.610275333333334,
            "value": 0.4881889763779528
          },
          {
            "number": 11,
            "ticks": 1926,
            "time": 17.702187000000002,
            "value": 0.5039370078740157
          },
          {
            "number": 11,
            "ticks": 1929,
            "time": 17.7297605,
            "value": 0.5354330708661418
          },
          {
            "number": 11,
            "ticks": 1932,
            "time": 17.757334000000004,
            "value": 0.5748031496062992
          },
          {
            "number": 11,
            "ticks": 1935,
            "time": 17.784907500000003,
            "value": 0.6062992125984252
          },
          {
            "number": 11,
            "ticks": 1938,
            "time": 17.812481000000002,
            "value": 0.6456692913385826
          },
          {
            "number": 11,
            "ticks": 1941,
            "time": 17.8400545,
            "value": 0.6771653543307087
          },
          {
            "number": 11,
            "ticks": 1944,
            "time": 17.867628000000003,
            "value": 0.7165354330708661
          },
          {
            "number": 11,
            "ticks": 1947,
            "time": 17.895201500000002,
            "value": 0.7480314960629921
          },
          {
            "number": 11,
            "ticks": 1950,
            "time": 17.922775,
            "value": 0.7874015748031497
          },
          {
            "number": 11,
            "ticks": 1953,
            "time": 17.950348500000004,
            "value": 0.8110236220472441
          },
          {
            "number": 11,
            "ticks": 1956,
            "time": 17.977922000000003,
            "value": 0.8267716535433071
          },
          {
            "number": 11,
            "ticks": 1967,
            "time": 18.079024833333335,
            "value": 0.6614173228346457
          },
          {
            "number": 11,
            "ticks": 2352,
            "time": 21.617624000000003,
            "value": 0.7795275590551181
          },
          {
            "number": 11,
            "ticks": 6576,
            "time": 60.441112000000004,
            "value": 0.6614173228346457
          },
          {
            "number": 11,
            "ticks": 7272,
            "time": 66.838164,
            "value": 0.7007874015748031
          },
          {
            "number": 11,
            "ticks": 7280,
            "time": 66.91169333333333,
            "value": 0.6771653543307087
          },
          {
            "number": 11,
            "ticks": 7283,
            "time": 66.93926683333333,
            "value": 0.6299212598425197
          },
          {
            "number": 11,
            "ticks": 7286,
            "time": 66.96684033333332,
            "value": 0.5826771653543307
          },
          {
            "number": 11,
            "ticks": 7289,
            "time": 66.99441383333333,
            "value": 0.5354330708661418
          },
          {
            "number": 11,
            "ticks": 7292,
            "time": 67.02198733333333,
            "value": 0.4881889763779528
          },
          {
            "number": 11,
            "ticks": 7302,
            "time": 67.113899,
            "value": 0.5039370078740157
          },
          {
            "number": 11,
            "ticks": 7305,
            "time": 67.1414725,
            "value": 0.5354330708661418
          },
          {
            "number": 11,
            "ticks": 7308,
            "time": 67.169046,
            "value": 0.5748031496062992
          },
          {
            "number": 11,
            "ticks": 7311,
            "time": 67.1966195,
            "value": 0.6062992125984252
          },
          {
            "number": 11,
            "ticks": 7314,
            "time": 67.224193,
            "value": 0.6456692913385826
          },
          {
            "number": 11,
            "ticks": 7317,
            "time": 67.2517665,
            "value": 0.6771653543307087
          },
          {
            "number": 11,
            "ticks": 7320,
            "time": 67.27934,
            "value": 0.7165354330708661
          },
          {
            "number": 11,
            "ticks": 7323,
            "time": 67.3069135,
            "value": 0.7480314960629921
          },
          {
            "number": 11,
            "ticks": 7326,
            "time": 67.334487,
            "value": 0.7874015748031497
          },
          {
            "number": 11,
            "ticks": 7329,
            "time": 67.3620605,
            "value": 0.8110236220472441
          },
          {
            "number": 11,
            "ticks": 7332,
            "time": 67.389634,
            "value": 0.8267716535433071
          },
          {
            "number": 11,
            "ticks": 7343,
            "time": 67.49073683333333,
            "value": 0.6614173228346457
          },
          {
            "number": 11,
            "ticks": 7656,
            "time": 70.367572,
            "value": 0.7007874015748031
          },
          {
            "number": 11,
            "ticks": 7664,
            "time": 70.44110133333334,
            "value": 0.6771653543307087
          },
          {
            "number": 11,
            "ticks": 7667,
            "time": 70.46867483333332,
            "value": 0.6299212598425197
          },
          {
            "number": 11,
            "ticks": 7670,
            "time": 70.49624833333333,
            "value": 0.5826771653543307
          },
          {
            "number": 11,
            "ticks": 7673,
            "time": 70.52382183333333,
            "value": 0.5354330708661418
          },
          {
            "number": 11,
            "ticks": 7676,
            "time": 70.55139533333333,
            "value": 0.4881889763779528
          },
          {
            "number": 11,
            "ticks": 7686,
            "time": 70.643307,
            "value": 0.5039370078740157
          },
          {
            "number": 11,
            "ticks": 7689,
            "time": 70.6708805,
            "value": 0.5354330708661418
          },
          {
            "number": 11,
            "ticks": 7692,
            "time": 70.698454,
            "value": 0.5748031496062992
          },
          {
            "number": 11,
            "ticks": 7695,
            "time": 70.7260275,
            "value": 0.6062992125984252
          },
          {
            "number": 11,
            "ticks": 7698,
            "time": 70.753601,
            "value": 0.6456692913385826
          },
          {
            "number": 11,
            "ticks": 7701,
            "time": 70.7811745,
            "value": 0.6771653543307087
          },
          {
            "number": 11,
            "ticks": 7704,
            "time": 70.808748,
            "value": 0.7165354330708661
          },
          {
            "number": 11,
            "ticks": 7707,
            "time": 70.8363215,
            "value": 0.7480314960629921
          },
          {
            "number": 11,
            "ticks": 7710,
            "time": 70.863895,
            "value": 0.7874015748031497
          },
          {
            "number": 11,
            "ticks": 7713,
            "time": 70.8914685,
            "value": 0.8110236220472441
          },
          {
            "number": 11,
            "ticks": 7716,
            "time": 70.919042,
            "value": 0.8267716535433071
          },
          {
            "number": 11,
            "ticks": 7727,
            "time": 71.02014483333333,
            "value": 0.6614173228346457
          },
          {
            "number": 11,
            "ticks": 8808,
            "time": 80.955796,
            "value": 0.7007874015748031
          },
          {
            "number": 11,
            "ticks": 8816,
            "time": 81.02932533333333,
            "value": 0.6771653543307087
          },
          {
            "number": 11,
            "ticks": 8819,
            "time": 81.05689883333334,
            "value": 0.6299212598425197
          },
          {
            "number": 11,
            "ticks": 8822,
            "time": 81.08447233333332,
            "value": 0.5826771653543307
          },
          {
            "number": 11,
            "ticks": 8825,
            "time": 81.11204583333333,
            "value": 0.5354330708661418
          },
          {
            "number": 11,
            "ticks": 8828,
            "time": 81.13961933333333,
            "value": 0.4881889763779528
          },
          {
            "number": 11,
            "ticks": 8838,
            "time": 81.231531,
            "value": 0.5039370078740157
          },
          {
            "number": 11,
            "ticks": 8841,
            "time": 81.2591045,
            "value": 0.5354330708661418
          },
          {
            "number": 11,
            "ticks": 8844,
            "time": 81.286678,
            "value": 0.5748031496062992
          },
          {
            "number": 11,
            "ticks": 8847,
            "time": 81.3142515,
            "value": 0.6062992125984252
          },
          {
            "number": 11,
            "ticks": 8850,
            "time": 81.341825,
            "value": 0.6456692913385826
          },
          {
            "number": 11,
            "ticks": 8853,
            "time": 81.3693985,
            "value": 0.6771653543307087
          },
          {
            "number": 11,
            "ticks": 8856,
            "time": 81.396972,
            "value": 0.7165354330708661
          },
          {
            "number": 11,
            "ticks": 8859,
            "time": 81.4245455,
            "value": 0.7480314960629921
          },
          {
            "number": 11,
            "ticks": 8862,
            "time": 81.452119,
            "value": 0.7874015748031497
          },
          {
            "number": 11,
            "ticks": 8865,
            "time": 81.4796925,
            "value": 0.8110236220472441
          },
          {
            "number": 11,
            "ticks": 8868,
            "time": 81.507266,
            "value": 0.8267716535433071
          },
          {
            "number": 11,
            "ticks": 8879,
            "time": 81.60836883333333,
            "value": 0.6614173228346457
          },
          {
            "number": 11,
            "ticks": 9192,
            "time": 84.485204,
            "value": 0.7007874015748031
          },
          {
            "number": 11,
            "ticks": 9200,
            "time": 84.55873333333334,
            "value": 0.6771653543307087
          },
          {
            "number": 11,
            "ticks": 9203,
            "time": 84.58630683333332,
            "value": 0.6299212598425197
          },
          {
            "number": 11,
            "ticks": 9206,
            "time": 84.61388033333333,
            "value": 0.5826771653543307
          },
          {
            "number": 11,
            "ticks": 9209,
            "time": 84.64145383333333,
            "value": 0.5354330708661418
          },
          {
            "number": 11,
            "ticks": 9212,
            "time": 84.66902733333333,
            "value": 0.4881889763779528
          },
          {
            "number": 11,
            "ticks": 9222,
            "time": 84.760939,
            "value": 0.5039370078740157
          },
          {
            "number": 11,
            "ticks": 9225,
            "time": 84.7885125,
            "value": 0.5354330708661418
          },
          {
            "number": 11,
            "ticks": 9228,
            "time": 84.816086,
            "value": 0.5748031496062992
          },
          {
            "number": 11,
            "ticks": 9231,
            "time": 84.8436595,
            "value": 0.6062992125984252
          },
          {
            "number": 11,
            "ticks": 9234,
            "time": 84.871233,
            "value": 0.6456692913385826
          },
          {
            "number": 11,
            "ticks": 9237,
            "time": 84.8988065,
            "value": 0.6771653543307087
          },
          {
            "number": 11,
            "ticks": 9240,
            "time": 84.92638,
            "value": 0.7165354330708661
          },
          {
            "number": 11,
            "ticks": 9243,
            "time": 84.9539535,
            "value": 0.7480314960629921
          },
          {
            "number": 11,
            "ticks": 9246,
            "time": 84.981527,
            "value": 0.7874015748031497
          },
          {
            "number": 11,
            "ticks": 9249,
            "time": 85.0091005,
            "value": 0.8110236220472441
          },
          {
            "number": 11,
            "ticks": 9252,
            "time": 85.036674,
            "value": 0.8267716535433071
          },
          {
            "number": 11,
            "ticks": 9263,
            "time": 85.13777683333333,
            "value": 0.7795275590551181
          },
          {
            "number": 11,
            "ticks": 11949,
            "time": 109.8252505,
            "value": 0.5905511811023622
          },
          {
            "number": 11,
            "ticks": 13654,
            "time": 125.49618966666667,
            "value": 0.6299212598425197
          },
          {
            "number": 11,
            "ticks": 14254,
            "time": 131.01088966666669,
            "value": 0.6614173228346457
          },
          {
            "number": 11,
            "ticks": 17256,
            "time": 158.60277200000002,
            "value": 0.7007874015748031
          },
          {
            "number": 11,
            "ticks": 17264,
            "time": 158.67630133333336,
            "value": 0.6771653543307087
          },
          {
            "number": 11,
            "ticks": 17267,
            "time": 158.70387483333334,
            "value": 0.6299212598425197
          },
          {
            "number": 11,
            "ticks": 17270,
            "time": 158.73144833333333,
            "value": 0.5826771653543307
          },
          {
            "number": 11,
            "ticks": 17273,
            "time": 158.75902183333335,
            "value": 0.5354330708661418
          },
          {
            "number": 11,
            "ticks": 17276,
            "time": 158.78659533333334,
            "value": 0.4881889763779528
          },
          {
            "number": 11,
            "ticks": 17286,
            "time": 158.878507,
            "value": 0.5039370078740157
          },
          {
            "number": 11,
            "ticks": 17289,
            "time": 158.9060805,
            "value": 0.5354330708661418
          },
          {
            "number": 11,
            "ticks": 17292,
            "time": 158.933654,
            "value": 0.5748031496062992
          },
          {
            "number": 11,
            "ticks": 17295,
            "time": 158.9612275,
            "value": 0.6062992125984252
          },
          {
            "number": 11,
            "ticks": 17298,
            "time": 158.988801,
            "value": 0.6456692913385826
          },
          {
            "number": 11,
            "ticks": 17301,
            "time": 159.0163745,
            "value": 0.6771653543307087
          },
          {
            "number": 11,
            "ticks": 17304,
            "time": 159.043948,
            "value": 0.7165354330708661
          },
          {
            "number": 11,
            "ticks": 17307,
            "time": 159.07152150000002,
            "value": 0.7480314960629921
          },
          {
            "number": 11,
            "ticks": 17310,
            "time": 159.099095,
            "value": 0.7874015748031497
          },
          {
            "number": 11,
            "ticks": 17313,
            "time": 159.1266685,
            "value": 0.8110236220472441
          },
          {
            "number": 11,
            "ticks": 17316,
            "time": 159.154242,
            "value": 0.8267716535433071
          },
          {
            "number": 11,
            "ticks": 17327,
            "time": 159.25534483333334,
            "value": 0.6614173228346457
          },
          {
            "number": 11,
            "ticks": 17640,
            "time": 162.13218,
            "value": 0.7007874015748031
          },
          {
            "number": 11,
            "ticks": 17648,
            "time": 162.20570933333335,
            "value": 0.6771653543307087
          },
          {
            "number": 11,
            "ticks": 17651,
            "time": 162.23328283333333,
            "value": 0.6299212598425197
          },
          {
            "number": 11,
            "ticks": 17654,
            "time": 162.26085633333335,
            "value": 0.5826771653543307
          },
          {
            "number": 11,
            "ticks": 17657,
            "time": 162.28842983333334,
            "value": 0.5354330708661418
          },
          {
            "number": 11,
            "ticks": 17660,
            "time": 162.31600333333336,
            "value": 0.4881889763779528
          },
          {
            "number": 11,
            "ticks": 17670,
            "time": 162.407915,
            "value": 0.5039370078740157
          },
          {
            "number": 11,
            "ticks": 17673,
            "time": 162.4354885,
            "value": 0.5354330708661418
          },
          {
            "number": 11,
            "ticks": 17676,
            "time": 162.463062,
            "value": 0.5748031496062992
          },
          {
            "number": 11,
            "ticks": 17679,
            "time": 162.4906355,
            "value": 0.6062992125984252
          },
          {
            "number": 11,
            "ticks": 17682,
            "time": 162.518209,
            "value": 0.6456692913385826
          },
          {
            "number": 11,
            "ticks": 17685,
            "time": 162.5457825,
            "value": 0.6771653543307087
          },
          {
            "number": 11,
            "ticks": 17688,
            "time": 162.57335600000002,
            "value": 0.7165354330708661
          },
          {
            "number": 11,
            "ticks": 17691,
            "time": 162.6009295,
            "value": 0.7480314960629921
          },
          {
            "number": 11,
            "ticks": 17694,
            "time": 162.628503,
            "value": 0.7874015748031497
          },
          {
            "number": 11,
            "ticks": 17697,
            "time": 162.6560765,
            "value": 0.8110236220472441
          },
          {
            "number": 11,
            "ticks": 17700,
            "time": 162.68365,
            "value": 0.8267716535433071
          },
          {
            "number": 11,
            "ticks": 17711,
            "time": 162.78475283333336,
            "value": 0.6614173228346457
          },
          {
            "number": 11,
            "ticks": 18792,
            "time": 172.720404,
            "value": 0.7007874015748031
          },
          {
            "number": 11,
            "ticks": 18800,
            "time": 172.79393333333334,
            "value": 0.6771653543307087
          },
          {
            "number": 11,
            "ticks": 18803,
            "time": 172.82150683333336,
            "value": 0.6299212598425197
          },
          {
            "number": 11,
            "ticks": 18806,
            "time": 172.84908033333335,
            "value": 0.5826771653543307
          },
          {
            "number": 11,
            "ticks": 18809,
            "time": 172.87665383333334,
            "value": 0.5354330708661418
          },
          {
            "number": 11,
            "ticks": 18812,
            "time": 172.90422733333335,
            "value": 0.4881889763779528
          },
          {
            "number": 11,
            "ticks": 18822,
            "time": 172.996139,
            "value": 0.5039370078740157
          },
          {
            "number": 11,
            "ticks": 18825,
            "time": 173.02371250000002,
            "value": 0.5354330708661418
          },
          {
            "number": 11,
            "ticks": 18828,
            "time": 173.051286,
            "value": 0.5748031496062992
          },
          {
            "number": 11,
            "ticks": 18831,
            "time": 173.0788595,
            "value": 0.6062992125984252
          },
          {
            "number": 11,
            "ticks": 18834,
            "time": 173.106433,
            "value": 0.6456692913385826
          },
          {
            "number": 11,
            "ticks": 18837,
            "time": 173.1340065,
            "value": 0.6771653543307087
          },
          {
            "number": 11,
            "ticks": 18840,
            "time": 173.16158000000001,
            "value": 0.7165354330708661
          },
          {
            "number": 11,
            "ticks": 18843,
            "time": 173.1891535,
            "value": 0.7480314960629921
          },
          {
            "number": 11,
            "ticks": 18846,
            "time": 173.216727,
            "value": 0.7874015748031497
          },
          {
            "number": 11,
            "ticks": 18849,
            "time": 173.2443005,
            "value": 0.8110236220472441
          },
          {
            "number": 11,
            "ticks": 18852,
            "time": 173.271874,
            "value": 0.8267716535433071
          },
          {
            "number": 11,
            "ticks": 18863,
            "time": 173.37297683333335,
            "value": 0.6614173228346457
          },
          {
            "number": 11,
            "ticks": 19176,
            "time": 176.249812,
            "value": 0.7007874015748031
          },
          {
            "number": 11,
            "ticks": 19184,
            "time": 176.32334133333336,
            "value": 0.6771653543307087
          },
          {
            "number": 11,
            "ticks": 19187,
            "time": 176.35091483333335,
            "value": 0.6299212598425197
          },
          {
            "number": 11,
            "ticks": 19190,
            "time": 176.37848833333334,
            "value": 0.5826771653543307
          },
          {
            "number": 11,
            "ticks": 19193,
            "time": 176.40606183333335,
            "value": 0.5354330708661418
          },
          {
            "number": 11,
            "ticks": 19196,
            "time": 176.43363533333334,
            "value": 0.4881889763779528
          },
          {
            "number": 11,
            "ticks": 19206,
            "time": 176.52554700000002,
            "value": 0.5039370078740157
          },
          {
            "number": 11,
            "ticks": 19209,
            "time": 176.5531205,
            "value": 0.5354330708661418
          },
          {
            "number": 11,
            "ticks": 19212,
            "time": 176.580694,
            "value": 0.5748031496062992
          },
          {
            "number": 11,
            "ticks": 19215,
            "time": 176.6082675,
            "value": 0.6062992125984252
          },
          {
            "number": 11,
            "ticks": 19218,
            "time": 176.635841,
            "value": 0.6456692913385826
          },
          {
            "number": 11,
            "ticks": 19221,
            "time": 176.66341450000002,
            "value": 0.6771653543307087
          },
          {
            "number": 11,
            "ticks": 19224,
            "time": 176.690988,
            "value": 0.7165354330708661
          },
          {
            "number": 11,
            "ticks": 19227,
            "time": 176.7185615,
            "value": 0.7480314960629921
          },
          {
            "number": 11,
            "ticks": 19230,
            "time": 176.746135,
            "value": 0.7874015748031497
          },
          {
            "number": 11,
            "ticks": 19233,
            "time": 176.7737085,
            "value": 0.8110236220472441
          },
          {
            "number": 11,
            "ticks": 19236,
            "time": 176.80128200000001,
            "value": 0.8267716535433071
          },
          {
            "number": 11,
            "ticks": 19247,
            "time": 176.90238483333334,
            "value": 0.6614173228346457
          },
          {
            "number": 11,
            "ticks": 20328,
            "time": 186.83803600000002,
            "value": 0.7007874015748031
          },
          {
            "number": 11,
            "ticks": 20336,
            "time": 186.91156533333336,
            "value": 0.6771653543307087
          },
          {
            "number": 11,
            "ticks": 20339,
            "time": 186.93913883333335,
            "value": 0.6299212598425197
          },
          {
            "number": 11,
            "ticks": 20342,
            "time": 186.96671233333333,
            "value": 0.5826771653543307
          },
          {
            "number": 11,
            "ticks": 20345,
            "time": 186.99428583333335,
            "value": 0.5354330708661418
          },
          {
            "number": 11,
            "ticks": 20348,
            "time": 187.02185933333334,
            "value": 0.4881889763779528
          },
          {
            "number": 11,
            "ticks": 20358,
            "time": 187.113771,
            "value": 0.5039370078740157
          },
          {
            "number": 11,
            "ticks": 20361,
            "time": 187.1413445,
            "value": 0.5354330708661418
          },
          {
            "number": 11,
            "ticks": 20364,
            "time": 187.168918,
            "value": 0.5748031496062992
          },
          {
            "number": 11,
            "ticks": 20367,
            "time": 187.1964915,
            "value": 0.6062992125984252
          },
          {
            "number": 11,
            "ticks": 20370,
            "time": 187.224065,
            "value": 0.6456692913385826
          },
          {
            "number": 11,
            "ticks": 20373,
            "time": 187.2516385,
            "value": 0.6771653543307087
          },
          {
            "number": 11,
            "ticks": 20376,
            "time": 187.279212,
            "value": 0.7165354330708661
          },
          {
            "number": 11,
            "ticks": 20379,
            "time": 187.30678550000002,
            "value": 0.7480314960629921
          },
          {
            "number": 11,
            "ticks": 20382,
            "time": 187.334359,
            "value": 0.7874015748031497
          },
          {
            "number": 11,
            "ticks": 20385,
            "time": 187.3619325,
            "value": 0.8110236220472441
          },
          {
            "number": 11,
            "ticks": 20388,
            "time": 187.389506,
            "value": 0.8267716535433071
          },
          {
            "number": 11,
            "ticks": 20399,
            "time": 187.49060883333334,
            "value": 0.6614173228346457
          },
          {
            "number": 11,
            "ticks": 20712,
            "time": 190.367444,
            "value": 0.7007874015748031
          },
          {
            "number": 11,
            "ticks": 20720,
            "time": 190.44097333333335,
            "value": 0.6771653543307087
          },
          {
            "number": 11,
            "ticks": 20723,
            "time": 190.46854683333333,
            "value": 0.6299212598425197
          },
          {
            "number": 11,
            "ticks": 20726,
            "time": 190.49612033333335,
            "value": 0.5826771653543307
          },
          {
            "number": 11,
            "ticks": 20729,
            "time": 190.52369383333334,
            "value": 0.5354330708661418
          },
          {
            "number": 11,
            "ticks": 20732,
            "time": 190.55126733333336,
            "value": 0.4881889763779528
          },
          {
            "number": 11,
            "ticks": 20742,
            "time": 190.643179,
            "value": 0.5039370078740157
          },
          {
            "number": 11,
            "ticks": 20745,
            "time": 190.6707525,
            "value": 0.5354330708661418
          },
          {
            "number": 11,
            "ticks": 20748,
            "time": 190.698326,
            "value": 0.5748031496062992
          },
          {
            "number": 11,
            "ticks": 20751,
            "time": 190.7258995,
            "value": 0.6062992125984252
          },
          {
            "number": 11,
            "ticks": 20754,
            "time": 190.753473,
            "value": 0.6456692913385826
          },
          {
            "number": 11,
            "ticks": 20757,
            "time": 190.7810465,
            "value": 0.6771653543307087
          },
          {
            "number": 11,
            "ticks": 20760,
            "time": 190.80862000000002,
            "value": 0.7165354330708661
          },
          {
            "number": 11,
            "ticks": 20763,
            "time": 190.8361935,
            "value": 0.7480314960629921
          },
          {
            "number": 11,
            "ticks": 20766,
            "time": 190.863767,
            "value": 0.7874015748031497
          },
          {
            "number": 11,
            "ticks": 20769,
            "time": 190.8913405,
            "value": 0.8110236220472441
          },
          {
            "number": 11,
            "ticks": 20772,
            "time": 190.918914,
            "value": 0.8267716535433071
          },
          {
            "number": 11,
            "ticks": 20783,
            "time": 191.02001683333336,
            "value": 0.6614173228346457
          },
          {
            "number": 11,
            "ticks": 21480,
            "time": 197.42626,
            "value": 0.7007874015748031
          },
          {
            "number": 11,
            "ticks": 21488,
            "time": 197.49978933333335,
            "value": 0.6771653543307087
          },
          {
            "number": 11,
            "ticks": 21491,
            "time": 197.52736283333334,
            "value": 0.6299212598425197
          },
          {
            "number": 11,
            "ticks": 21494,
            "time": 197.55493633333336,
            "value": 0.5826771653543307
          },
          {
            "number": 11,
            "ticks": 21497,
            "time": 197.58250983333335,
            "value": 0.5354330708661418
          },
          {
            "number": 11,
            "ticks": 21500,
            "time": 197.61008333333334,
            "value": 0.4881889763779528
          },
          {
            "number": 11,
            "ticks": 21510,
            "time": 197.701995,
            "value": 0.5039370078740157
          },
          {
            "number": 11,
            "ticks": 21513,
            "time": 197.7295685,
            "value": 0.5354330708661418
          },
          {
            "number": 11,
            "ticks": 21516,
            "time": 197.75714200000002,
            "value": 0.5748031496062992
          },
          {
            "number": 11,
            "ticks": 21519,
            "time": 197.7847155,
            "value": 0.6062992125984252
          },
          {
            "number": 11,
            "ticks": 21522,
            "time": 197.812289,
            "value": 0.6456692913385826
          },
          {
            "number": 11,
            "ticks": 21525,
            "time": 197.8398625,
            "value": 0.6771653543307087
          },
          {
            "number": 11,
            "ticks": 21528,
            "time": 197.867436,
            "value": 0.7165354330708661
          },
          {
            "number": 11,
            "ticks": 21531,
            "time": 197.89500950000001,
            "value": 0.7480314960629921
          },
          {
            "number": 11,
            "ticks": 21534,
            "time": 197.922583,
            "value": 0.7874015748031497
          },
          {
            "number": 11,
            "ticks": 21537,
            "time": 197.9501565,
            "value": 0.8110236220472441
          },
          {
            "number": 11,
            "ticks": 21540,
            "time": 197.97773,
            "value": 0.8267716535433071
          },
          {
            "number": 11,
            "ticks": 21551,
            "time": 198.07883283333334,
            "value": 0.7795275590551181
          }
        ],
        "71": [
          {
            "number": 71,
            "ticks": 171,
            "time": 1.5716895,
            "value": 0.5039370078740157
          }
        ],
        "74": [
          {
            "number": 74,
            "ticks": 170,
            "time": 1.5624983333333333,
            "value": 0.5039370078740157
          }
        ],
        "91": [
          {
            "number": 91,
            "ticks": 166,
            "time": 1.5257336666666668,
            "value": 0.31496062992125984
          }
        ],
        "93": [
          {
            "number": 93,
            "ticks": 168,
            "time": 1.544116,
            "value": 0.11023622047244094
          }
        ],
        "94": [
          {
            "number": 94,
            "ticks": 169,
            "time": 1.5533071666666667,
            "value": 0
          }
        ],
        "100": [
          {
            "number": 100,
            "ticks": 176,
            "time": 1.6176453333333334,
            "value": 0
          }
        ],
        "101": [
          {
            "number": 101,
            "ticks": 173,
            "time": 1.5900718333333332,
            "value": 0
          }
        ]
      },
      "pitchBends": [],
      "instrument": {
        "family": "brass",
        "number": 61,
        "name": "brass section"
      },
      "name": "",
      "notes": [
        {
          "duration": 0.19301449999999987,
          "durationTicks": 21,
          "midi": 56,
          "name": "G#3",
          "ticks": 432,
          "time": 3.970584,
          "velocity": 0.8740157480314961
        },
        {
          "duration": 0.1930145000000003,
          "durationTicks": 21,
          "midi": 68,
          "name": "G#4",
          "ticks": 456,
          "time": 4.191172,
          "velocity": 0.8740157480314961
        },
        {
          "duration": 0.18382333333333278,
          "durationTicks": 20,
          "midi": 56,
          "name": "G#3",
          "ticks": 457,
          "time": 4.200363166666667,
          "velocity": 0.8740157480314961
        },
        {
          "duration": 0.08272049999999975,
          "durationTicks": 9,
          "midi": 80,
          "name": "G#5",
          "ticks": 480,
          "time": 4.41176,
          "velocity": 0.8740157480314961
        },
        {
          "duration": 0.08272049999999975,
          "durationTicks": 9,
          "midi": 68,
          "name": "G#4",
          "ticks": 480,
          "time": 4.41176,
          "velocity": 0.8740157480314961
        },
        {
          "duration": 0.10110283333333392,
          "durationTicks": 11,
          "midi": 56,
          "name": "G#3",
          "ticks": 481,
          "time": 4.420951166666667,
          "velocity": 0.8740157480314961
        },
        {
          "duration": 0.08272049999999886,
          "durationTicks": 9,
          "midi": 78,
          "name": "F#5",
          "ticks": 492,
          "time": 4.522054000000001,
          "velocity": 0.8740157480314961
        },
        {
          "duration": 0.08272049999999886,
          "durationTicks": 9,
          "midi": 66,
          "name": "F#4",
          "ticks": 492,
          "time": 4.522054000000001,
          "velocity": 0.8740157480314961
        },
        {
          "duration": 0.10110283333333392,
          "durationTicks": 11,
          "midi": 56,
          "name": "G#3",
          "ticks": 493,
          "time": 4.531245166666666,
          "velocity": 0.8740157480314961
        },
        {
          "duration": 0.08272050000000064,
          "durationTicks": 9,
          "midi": 77,
          "name": "F5",
          "ticks": 516,
          "time": 4.742642,
          "velocity": 0.8740157480314961
        },
        {
          "duration": 0.08272050000000064,
          "durationTicks": 9,
          "midi": 65,
          "name": "F4",
          "ticks": 516,
          "time": 4.742642,
          "velocity": 0.8740157480314961
        },
        {
          "duration": 0.10110283333333214,
          "durationTicks": 11,
          "midi": 56,
          "name": "G#3",
          "ticks": 517,
          "time": 4.7518331666666676,
          "velocity": 0.8740157480314961
        },
        {
          "duration": 0.08272049999999975,
          "durationTicks": 9,
          "midi": 77,
          "name": "F5",
          "ticks": 540,
          "time": 4.96323,
          "velocity": 0.8740157480314961
        },
        {
          "duration": 0.08272049999999975,
          "durationTicks": 9,
          "midi": 65,
          "name": "F4",
          "ticks": 540,
          "time": 4.96323,
          "velocity": 0.8740157480314961
        },
        {
          "duration": 0.10110283333333303,
          "durationTicks": 11,
          "midi": 56,
          "name": "G#3",
          "ticks": 541,
          "time": 4.972421166666667,
          "velocity": 0.8740157480314961
        },
        {
          "duration": 0.08272049999999975,
          "durationTicks": 9,
          "midi": 77,
          "name": "F5",
          "ticks": 564,
          "time": 5.1838180000000005,
          "velocity": 0.8740157480314961
        },
        {
          "duration": 0.08272049999999975,
          "durationTicks": 9,
          "midi": 65,
          "name": "F4",
          "ticks": 564,
          "time": 5.1838180000000005,
          "velocity": 0.8740157480314961
        },
        {
          "duration": 0.10110283333333303,
          "durationTicks": 11,
          "midi": 56,
          "name": "G#3",
          "ticks": 565,
          "time": 5.193009166666667,
          "velocity": 0.8740157480314961
        },
        {
          "duration": 0.1930145000000003,
          "durationTicks": 21,
          "midi": 72,
          "name": "C5",
          "ticks": 576,
          "time": 5.294112,
          "velocity": 0.8740157480314961
        },
        {
          "duration": 0.1930145000000003,
          "durationTicks": 21,
          "midi": 60,
          "name": "C4",
          "ticks": 576,
          "time": 5.294112,
          "velocity": 0.8740157480314961
        },
        {
          "duration": 0.19301449999999942,
          "durationTicks": 21,
          "midi": 56,
          "name": "G#3",
          "ticks": 577,
          "time": 5.303303166666667,
          "velocity": 0.8740157480314961
        },
        {
          "duration": 0.19301449999999942,
          "durationTicks": 21,
          "midi": 73,
          "name": "C#5",
          "ticks": 600,
          "time": 5.5147,
          "velocity": 0.8740157480314961
        },
        {
          "duration": 0.19301449999999942,
          "durationTicks": 21,
          "midi": 61,
          "name": "C#4",
          "ticks": 600,
          "time": 5.5147,
          "velocity": 0.8740157480314961
        },
        {
          "duration": 0.19301449999999942,
          "durationTicks": 21,
          "midi": 56,
          "name": "G#3",
          "ticks": 601,
          "time": 5.523891166666667,
          "velocity": 0.8740157480314961
        },
        {
          "duration": 0.19301449999999942,
          "durationTicks": 21,
          "midi": 56,
          "name": "G#3",
          "ticks": 624,
          "time": 5.735288000000001,
          "velocity": 0.8740157480314961
        },
        {
          "duration": 0.19301449999999942,
          "durationTicks": 21,
          "midi": 68,
          "name": "G#4",
          "ticks": 648,
          "time": 5.955876000000001,
          "velocity": 0.8740157480314961
        },
        {
          "duration": 0.18382333333333367,
          "durationTicks": 20,
          "midi": 56,
          "name": "G#3",
          "ticks": 649,
          "time": 5.965067166666667,
          "velocity": 0.8740157480314961
        },
        {
          "duration": 0.08272050000000064,
          "durationTicks": 9,
          "midi": 80,
          "name": "G#5",
          "ticks": 672,
          "time": 6.176464,
          "velocity": 0.8740157480314961
        },
        {
          "duration": 0.08272050000000064,
          "durationTicks": 9,
          "midi": 68,
          "name": "G#4",
          "ticks": 672,
          "time": 6.176464,
          "velocity": 0.8740157480314961
        },
        {
          "duration": 0.10110283333333392,
          "durationTicks": 11,
          "midi": 56,
          "name": "G#3",
          "ticks": 673,
          "time": 6.185655166666667,
          "velocity": 0.8740157480314961
        },
        {
          "duration": 0.08272049999999975,
          "durationTicks": 9,
          "midi": 78,
          "name": "F#5",
          "ticks": 684,
          "time": 6.286758000000001,
          "velocity": 0.8740157480314961
        },
        {
          "duration": 0.08272049999999975,
          "durationTicks": 9,
          "midi": 66,
          "name": "F#4",
          "ticks": 684,
          "time": 6.286758000000001,
          "velocity": 0.8740157480314961
        },
        {
          "duration": 0.10110283333333392,
          "durationTicks": 11,
          "midi": 56,
          "name": "G#3",
          "ticks": 685,
          "time": 6.2959491666666665,
          "velocity": 0.8740157480314961
        },
        {
          "duration": 0.08272050000000064,
          "durationTicks": 9,
          "midi": 77,
          "name": "F5",
          "ticks": 708,
          "time": 6.507346,
          "velocity": 0.8740157480314961
        },
        {
          "duration": 0.08272050000000064,
          "durationTicks": 9,
          "midi": 65,
          "name": "F4",
          "ticks": 708,
          "time": 6.507346,
          "velocity": 0.8740157480314961
        },
        {
          "duration": 0.10110283333333392,
          "durationTicks": 11,
          "midi": 56,
          "name": "G#3",
          "ticks": 709,
          "time": 6.516537166666667,
          "velocity": 0.8740157480314961
        },
        {
          "duration": 0.08272049999999975,
          "durationTicks": 9,
          "midi": 77,
          "name": "F5",
          "ticks": 732,
          "time": 6.727934,
          "velocity": 0.8740157480314961
        },
        {
          "duration": 0.08272049999999975,
          "durationTicks": 9,
          "midi": 65,
          "name": "F4",
          "ticks": 732,
          "time": 6.727934,
          "velocity": 0.8740157480314961
        },
        {
          "duration": 0.10110283333333392,
          "durationTicks": 11,
          "midi": 56,
          "name": "G#3",
          "ticks": 733,
          "time": 6.737125166666667,
          "velocity": 0.8740157480314961
        },
        {
          "duration": 0.08272049999999975,
          "durationTicks": 9,
          "midi": 77,
          "name": "F5",
          "ticks": 756,
          "time": 6.9485220000000005,
          "velocity": 0.8740157480314961
        },
        {
          "duration": 0.08272049999999975,
          "durationTicks": 9,
          "midi": 65,
          "name": "F4",
          "ticks": 756,
          "time": 6.9485220000000005,
          "velocity": 0.8740157480314961
        },
        {
          "duration": 0.10110283333333392,
          "durationTicks": 11,
          "midi": 56,
          "name": "G#3",
          "ticks": 757,
          "time": 6.957713166666666,
          "velocity": 0.8740157480314961
        },
        {
          "duration": 0.1930145000000003,
          "durationTicks": 21,
          "midi": 72,
          "name": "C5",
          "ticks": 768,
          "time": 7.058816,
          "velocity": 0.8740157480314961
        },
        {
          "duration": 0.1930145000000003,
          "durationTicks": 21,
          "midi": 60,
          "name": "C4",
          "ticks": 768,
          "time": 7.058816,
          "velocity": 0.8740157480314961
        },
        {
          "duration": 0.19301449999999942,
          "durationTicks": 21,
          "midi": 56,
          "name": "G#3",
          "ticks": 769,
          "time": 7.068007166666667,
          "velocity": 0.8740157480314961
        },
        {
          "duration": 0.1930145000000003,
          "durationTicks": 21,
          "midi": 73,
          "name": "C#5",
          "ticks": 792,
          "time": 7.279404,
          "velocity": 0.8740157480314961
        },
        {
          "duration": 0.1930145000000003,
          "durationTicks": 21,
          "midi": 61,
          "name": "C#4",
          "ticks": 792,
          "time": 7.279404,
          "velocity": 0.8740157480314961
        },
        {
          "duration": 0.19301449999999942,
          "durationTicks": 21,
          "midi": 56,
          "name": "G#3",
          "ticks": 793,
          "time": 7.288595166666667,
          "velocity": 0.8740157480314961
        },
        {
          "duration": 0.19301449999999942,
          "durationTicks": 21,
          "midi": 56,
          "name": "G#3",
          "ticks": 816,
          "time": 7.499992000000001,
          "velocity": 0.8740157480314961
        },
        {
          "duration": 0.19301449999999942,
          "durationTicks": 21,
          "midi": 68,
          "name": "G#4",
          "ticks": 840,
          "time": 7.720580000000001,
          "velocity": 0.8740157480314961
        },
        {
          "duration": 0.18382333333333367,
          "durationTicks": 20,
          "midi": 56,
          "name": "G#3",
          "ticks": 841,
          "time": 7.729771166666667,
          "velocity": 0.8740157480314961
        },
        {
          "duration": 0.08272050000000153,
          "durationTicks": 9,
          "midi": 80,
          "name": "G#5",
          "ticks": 864,
          "time": 7.941168,
          "velocity": 0.8740157480314961
        },
        {
          "duration": 0.08272050000000153,
          "durationTicks": 9,
          "midi": 68,
          "name": "G#4",
          "ticks": 864,
          "time": 7.941168,
          "velocity": 0.8740157480314961
        },
        {
          "duration": 0.10110283333333392,
          "durationTicks": 11,
          "midi": 56,
          "name": "G#3",
          "ticks": 865,
          "time": 7.950359166666667,
          "velocity": 0.8740157480314961
        },
        {
          "duration": 0.08272050000000064,
          "durationTicks": 9,
          "midi": 78,
          "name": "F#5",
          "ticks": 876,
          "time": 8.051462,
          "velocity": 0.8740157480314961
        },
        {
          "duration": 0.08272050000000064,
          "durationTicks": 9,
          "midi": 66,
          "name": "F#4",
          "ticks": 876,
          "time": 8.051462,
          "velocity": 0.8740157480314961
        },
        {
          "duration": 0.10110283333333392,
          "durationTicks": 11,
          "midi": 56,
          "name": "G#3",
          "ticks": 877,
          "time": 8.060653166666667,
          "velocity": 0.8740157480314961
        },
        {
          "duration": 0.08272050000000064,
          "durationTicks": 9,
          "midi": 77,
          "name": "F5",
          "ticks": 900,
          "time": 8.27205,
          "velocity": 0.8740157480314961
        },
        {
          "duration": 0.08272050000000064,
          "durationTicks": 9,
          "midi": 65,
          "name": "F4",
          "ticks": 900,
          "time": 8.27205,
          "velocity": 0.8740157480314961
        },
        {
          "duration": 0.10110283333333214,
          "durationTicks": 11,
          "midi": 56,
          "name": "G#3",
          "ticks": 901,
          "time": 8.281241166666668,
          "velocity": 0.8740157480314961
        },
        {
          "duration": 0.08272050000000064,
          "durationTicks": 9,
          "midi": 77,
          "name": "F5",
          "ticks": 924,
          "time": 8.492638,
          "velocity": 0.8740157480314961
        },
        {
          "duration": 0.08272050000000064,
          "durationTicks": 9,
          "midi": 65,
          "name": "F4",
          "ticks": 924,
          "time": 8.492638,
          "velocity": 0.8740157480314961
        },
        {
          "duration": 0.10110283333333392,
          "durationTicks": 11,
          "midi": 56,
          "name": "G#3",
          "ticks": 925,
          "time": 8.501829166666667,
          "velocity": 0.8740157480314961
        },
        {
          "duration": 0.08272049999999886,
          "durationTicks": 9,
          "midi": 77,
          "name": "F5",
          "ticks": 948,
          "time": 8.713226,
          "velocity": 0.8740157480314961
        },
        {
          "duration": 0.08272049999999886,
          "durationTicks": 9,
          "midi": 65,
          "name": "F4",
          "ticks": 948,
          "time": 8.713226,
          "velocity": 0.8740157480314961
        },
        {
          "duration": 0.10110283333333214,
          "durationTicks": 11,
          "midi": 56,
          "name": "G#3",
          "ticks": 949,
          "time": 8.722417166666666,
          "velocity": 0.8740157480314961
        },
        {
          "duration": 0.1930145000000003,
          "durationTicks": 21,
          "midi": 72,
          "name": "C5",
          "ticks": 960,
          "time": 8.823519999999998,
          "velocity": 0.8740157480314961
        },
        {
          "duration": 0.1930145000000003,
          "durationTicks": 21,
          "midi": 60,
          "name": "C4",
          "ticks": 960,
          "time": 8.823519999999998,
          "velocity": 0.8740157480314961
        },
        {
          "duration": 0.19301449999999853,
          "durationTicks": 21,
          "midi": 56,
          "name": "G#3",
          "ticks": 961,
          "time": 8.832711166666668,
          "velocity": 0.8740157480314961
        },
        {
          "duration": 0.18382333333333456,
          "durationTicks": 20,
          "midi": 73,
          "name": "C#5",
          "ticks": 984,
          "time": 9.044108,
          "velocity": 0.8740157480314961
        },
        {
          "duration": 0.17463216666666703,
          "durationTicks": 19,
          "midi": 61,
          "name": "C#4",
          "ticks": 984,
          "time": 9.044108,
          "velocity": 0.8740157480314961
        },
        {
          "duration": 0.17463216666666703,
          "durationTicks": 19,
          "midi": 56,
          "name": "G#3",
          "ticks": 985,
          "time": 9.053299166666667,
          "velocity": 0.8740157480314961
        },
        {
          "duration": 0.1930145000000003,
          "durationTicks": 21,
          "midi": 75,
          "name": "D#5",
          "ticks": 1008,
          "time": 9.264696,
          "velocity": 0.8740157480314961
        },
        {
          "duration": 0.1930145000000003,
          "durationTicks": 21,
          "midi": 63,
          "name": "D#4",
          "ticks": 1008,
          "time": 9.264696,
          "velocity": 0.8740157480314961
        },
        {
          "duration": 0.1930145000000003,
          "durationTicks": 21,
          "midi": 56,
          "name": "G#3",
          "ticks": 1009,
          "time": 9.273887166666668,
          "velocity": 0.8740157480314961
        },
        {
          "duration": 0.1930145000000003,
          "durationTicks": 21,
          "midi": 75,
          "name": "D#5",
          "ticks": 1032,
          "time": 9.485284,
          "velocity": 0.8740157480314961
        },
        {
          "duration": 0.1930145000000003,
          "durationTicks": 21,
          "midi": 63,
          "name": "D#4",
          "ticks": 1032,
          "time": 9.485284,
          "velocity": 0.8740157480314961
        },
        {
          "duration": 0.1930145000000003,
          "durationTicks": 21,
          "midi": 56,
          "name": "G#3",
          "ticks": 1033,
          "time": 9.494475166666668,
          "velocity": 0.8740157480314961
        },
        {
          "duration": 0.15624983333333375,
          "durationTicks": 17,
          "midi": 75,
          "name": "D#5",
          "ticks": 1056,
          "time": 9.705872,
          "velocity": 0.8740157480314961
        },
        {
          "duration": 0.14705866666666978,
          "durationTicks": 16,
          "midi": 63,
          "name": "D#4",
          "ticks": 1056,
          "time": 9.705872,
          "velocity": 0.8740157480314961
        },
        {
          "duration": 0.14705866666666623,
          "durationTicks": 16,
          "midi": 56,
          "name": "G#3",
          "ticks": 1057,
          "time": 9.715063166666667,
          "velocity": 0.8740157480314961
        },
        {
          "duration": 0.08272050000000064,
          "durationTicks": 9,
          "midi": 75,
          "name": "D#5",
          "ticks": 1080,
          "time": 9.926459999999999,
          "velocity": 0.8740157480314961
        },
        {
          "duration": 0.08272050000000064,
          "durationTicks": 9,
          "midi": 63,
          "name": "D#4",
          "ticks": 1080,
          "time": 9.926459999999999,
          "velocity": 0.8740157480314961
        },
        {
          "duration": 0.08272050000000064,
          "durationTicks": 9,
          "midi": 56,
          "name": "G#3",
          "ticks": 1081,
          "time": 9.935651166666666,
          "velocity": 0.8740157480314961
        },
        {
          "duration": 0.09191166666666817,
          "durationTicks": 10,
          "midi": 77,
          "name": "F5",
          "ticks": 1092,
          "time": 10.036753999999998,
          "velocity": 0.952755905511811
        },
        {
          "duration": 0.08272050000000064,
          "durationTicks": 9,
          "midi": 65,
          "name": "F4",
          "ticks": 1092,
          "time": 10.036753999999998,
          "velocity": 0.952755905511811
        },
        {
          "duration": 0.08272050000000064,
          "durationTicks": 9,
          "midi": 56,
          "name": "G#3",
          "ticks": 1093,
          "time": 10.045945166666666,
          "velocity": 0.8740157480314961
        },
        {
          "duration": 0.018382333333335055,
          "durationTicks": 2,
          "midi": 75,
          "name": "D#5",
          "ticks": 1104,
          "time": 10.147047999999998,
          "velocity": 0.8740157480314961
        },
        {
          "duration": 0.018382333333335055,
          "durationTicks": 2,
          "midi": 63,
          "name": "D#4",
          "ticks": 1104,
          "time": 10.147047999999998,
          "velocity": 0.8740157480314961
        },
        {
          "duration": 0.02757349999999903,
          "durationTicks": 3,
          "midi": 73,
          "name": "C#5",
          "ticks": 1106,
          "time": 10.165430333333333,
          "velocity": 0.7795275590551181
        },
        {
          "duration": 0.018382333333335055,
          "durationTicks": 2,
          "midi": 72,
          "name": "C5",
          "ticks": 1109,
          "time": 10.193003833333332,
          "velocity": 0.7559055118110236
        },
        {
          "duration": 0.018382333333331502,
          "durationTicks": 2,
          "midi": 70,
          "name": "A#4",
          "ticks": 1111,
          "time": 10.211386166666667,
          "velocity": 0.6771653543307087
        },
        {
          "duration": 0.018382333333335055,
          "durationTicks": 2,
          "midi": 68,
          "name": "G#4",
          "ticks": 1113,
          "time": 10.229768499999999,
          "velocity": 0.6535433070866141
        },
        {
          "duration": 0.02757349999999903,
          "durationTicks": 3,
          "midi": 66,
          "name": "F#4",
          "ticks": 1115,
          "time": 10.248150833333334,
          "velocity": 0.6299212598425197
        },
        {
          "duration": 0.027573500000002582,
          "durationTicks": 3,
          "midi": 65,
          "name": "F4",
          "ticks": 1118,
          "time": 10.275724333333333,
          "velocity": 0.5984251968503937
        },
        {
          "duration": 0.1930145000000003,
          "durationTicks": 21,
          "midi": 77,
          "name": "F5",
          "ticks": 1200,
          "time": 11.029399999999999,
          "velocity": 0.8740157480314961
        },
        {
          "duration": 0.1930145000000003,
          "durationTicks": 21,
          "midi": 65,
          "name": "F4",
          "ticks": 1200,
          "time": 11.029399999999999,
          "velocity": 0.8740157480314961
        },
        {
          "duration": 0.4227936666666672,
          "durationTicks": 46,
          "midi": 56,
          "name": "G#3",
          "ticks": 1201,
          "time": 11.038591166666667,
          "velocity": 0.8740157480314961
        },
        {
          "duration": 0.1930145000000003,
          "durationTicks": 21,
          "midi": 73,
          "name": "C#5",
          "ticks": 1224,
          "time": 11.249987999999998,
          "velocity": 0.7795275590551181
        },
        {
          "duration": 0.1930145000000003,
          "durationTicks": 21,
          "midi": 61,
          "name": "C#4",
          "ticks": 1225,
          "time": 11.259179166666666,
          "velocity": 0.7795275590551181
        },
        {
          "duration": 0.16544099999999773,
          "durationTicks": 18,
          "midi": 77,
          "name": "F5",
          "ticks": 1248,
          "time": 11.470576000000001,
          "velocity": 0.7795275590551181
        },
        {
          "duration": 0.16544099999999773,
          "durationTicks": 18,
          "midi": 65,
          "name": "F4",
          "ticks": 1248,
          "time": 11.470576000000001,
          "velocity": 0.7795275590551181
        },
        {
          "duration": 0.2113968333333318,
          "durationTicks": 23,
          "midi": 61,
          "name": "C#4",
          "ticks": 1249,
          "time": 11.479767166666669,
          "velocity": 0.8740157480314961
        },
        {
          "duration": 0.09191166666666817,
          "durationTicks": 10,
          "midi": 73,
          "name": "C#5",
          "ticks": 1272,
          "time": 11.691164,
          "velocity": 0.7795275590551181
        },
        {
          "duration": 0.08272050000000064,
          "durationTicks": 9,
          "midi": 61,
          "name": "C#4",
          "ticks": 1273,
          "time": 11.700355166666668,
          "velocity": 0.7795275590551181
        },
        {
          "duration": 0.09191166666666817,
          "durationTicks": 10,
          "midi": 75,
          "name": "D#5",
          "ticks": 1284,
          "time": 11.801458,
          "velocity": 0.7795275590551181
        },
        {
          "duration": 0.08272050000000064,
          "durationTicks": 9,
          "midi": 63,
          "name": "D#4",
          "ticks": 1285,
          "time": 11.810649166666668,
          "velocity": 0.7795275590551181
        },
        {
          "duration": 0.1930145000000003,
          "durationTicks": 21,
          "midi": 77,
          "name": "F5",
          "ticks": 1416,
          "time": 13.014692,
          "velocity": 0.7795275590551181
        },
        {
          "duration": 0.1930145000000003,
          "durationTicks": 21,
          "midi": 65,
          "name": "F4",
          "ticks": 1417,
          "time": 13.023883166666668,
          "velocity": 0.7795275590551181
        },
        {
          "duration": 0.1746321666666688,
          "durationTicks": 19,
          "midi": 80,
          "name": "G#5",
          "ticks": 1440,
          "time": 13.23528,
          "velocity": 0.8740157480314961
        },
        {
          "duration": 0.17463216666666526,
          "durationTicks": 19,
          "midi": 68,
          "name": "G#4",
          "ticks": 1441,
          "time": 13.244471166666667,
          "velocity": 0.8740157480314961
        },
        {
          "duration": 0.21139683333333537,
          "durationTicks": 23,
          "midi": 85,
          "name": "C#6",
          "ticks": 1464,
          "time": 13.455867999999999,
          "velocity": 0.8740157480314961
        },
        {
          "duration": 0.2113968333333318,
          "durationTicks": 23,
          "midi": 73,
          "name": "C#5",
          "ticks": 1465,
          "time": 13.465059166666666,
          "velocity": 0.8740157480314961
        },
        {
          "duration": 0.1930145000000003,
          "durationTicks": 21,
          "midi": 84,
          "name": "C6",
          "ticks": 1512,
          "time": 13.897044000000001,
          "velocity": 0.8740157480314961
        },
        {
          "duration": 0.1930145000000003,
          "durationTicks": 21,
          "midi": 72,
          "name": "C5",
          "ticks": 1513,
          "time": 13.906235166666669,
          "velocity": 0.8740157480314961
        },
        {
          "duration": 0.16544100000000128,
          "durationTicks": 18,
          "midi": 80,
          "name": "G#5",
          "ticks": 1536,
          "time": 14.117632,
          "velocity": 0.8740157480314961
        },
        {
          "duration": 0.16544100000000128,
          "durationTicks": 18,
          "midi": 68,
          "name": "G#4",
          "ticks": 1537,
          "time": 14.126823166666668,
          "velocity": 0.8740157480314961
        },
        {
          "duration": 0.1930145000000003,
          "durationTicks": 21,
          "midi": 75,
          "name": "D#5",
          "ticks": 1560,
          "time": 14.33822,
          "velocity": 0.8740157480314961
        },
        {
          "duration": 0.1930145000000003,
          "durationTicks": 21,
          "midi": 63,
          "name": "D#4",
          "ticks": 1561,
          "time": 14.347411166666667,
          "velocity": 0.8740157480314961
        },
        {
          "duration": 0.1930145000000003,
          "durationTicks": 21,
          "midi": 77,
          "name": "F5",
          "ticks": 1608,
          "time": 14.779395999999998,
          "velocity": 0.8740157480314961
        },
        {
          "duration": 0.1930145000000003,
          "durationTicks": 21,
          "midi": 65,
          "name": "F4",
          "ticks": 1609,
          "time": 14.788587166666666,
          "velocity": 0.8740157480314961
        },
        {
          "duration": 0.2389703333333344,
          "durationTicks": 26,
          "midi": 80,
          "name": "G#5",
          "ticks": 1656,
          "time": 15.220572,
          "velocity": 0.8740157480314961
        },
        {
          "duration": 0.23897033333333084,
          "durationTicks": 26,
          "midi": 68,
          "name": "G#4",
          "ticks": 1657,
          "time": 15.229763166666668,
          "velocity": 0.8740157480314961
        },
        {
          "duration": 0.1930145000000003,
          "durationTicks": 21,
          "midi": 80,
          "name": "G#5",
          "ticks": 1704,
          "time": 15.661748,
          "velocity": 0.8740157480314961
        },
        {
          "duration": 0.1930145000000003,
          "durationTicks": 21,
          "midi": 68,
          "name": "G#4",
          "ticks": 1705,
          "time": 15.670939166666667,
          "velocity": 0.8740157480314961
        },
        {
          "duration": 0.1930145000000003,
          "durationTicks": 21,
          "midi": 77,
          "name": "F5",
          "ticks": 1728,
          "time": 15.882336000000002,
          "velocity": 0.8740157480314961
        },
        {
          "duration": 0.1930145000000003,
          "durationTicks": 21,
          "midi": 65,
          "name": "F4",
          "ticks": 1729,
          "time": 15.891527166666666,
          "velocity": 0.8740157480314961
        },
        {
          "duration": 0.1930145000000003,
          "durationTicks": 21,
          "midi": 75,
          "name": "D#5",
          "ticks": 1752,
          "time": 16.102924,
          "velocity": 0.8740157480314961
        },
        {
          "duration": 0.1930145000000003,
          "durationTicks": 21,
          "midi": 63,
          "name": "D#4",
          "ticks": 1753,
          "time": 16.112115166666666,
          "velocity": 0.8740157480314961
        },
        {
          "duration": 0.2205880000000029,
          "durationTicks": 24,
          "midi": 77,
          "name": "F5",
          "ticks": 1800,
          "time": 16.5441,
          "velocity": 0.8740157480314961
        },
        {
          "duration": 0.22058799999999934,
          "durationTicks": 24,
          "midi": 65,
          "name": "F4",
          "ticks": 1801,
          "time": 16.553291166666668,
          "velocity": 0.8740157480314961
        },
        {
          "duration": 0.1930145000000003,
          "durationTicks": 21,
          "midi": 82,
          "name": "A#5",
          "ticks": 1848,
          "time": 16.985276000000002,
          "velocity": 0.8740157480314961
        },
        {
          "duration": 0.1930145000000003,
          "durationTicks": 21,
          "midi": 70,
          "name": "A#4",
          "ticks": 1849,
          "time": 16.994467166666666,
          "velocity": 0.8740157480314961
        },
        {
          "duration": 0.6158081666666675,
          "durationTicks": 67,
          "midi": 82,
          "name": "A#5",
          "ticks": 1896,
          "time": 17.426452,
          "velocity": 0.8740157480314961
        },
        {
          "duration": 0.6066170000000035,
          "durationTicks": 66,
          "midi": 70,
          "name": "A#4",
          "ticks": 1897,
          "time": 17.435643166666665,
          "velocity": 0.8740157480314961
        },
        {
          "duration": 0.10110283333333214,
          "durationTicks": 11,
          "midi": 80,
          "name": "G#5",
          "ticks": 2088,
          "time": 19.191156000000003,
          "velocity": 0.8740157480314961
        },
        {
          "duration": 0.09191166666666817,
          "durationTicks": 10,
          "midi": 68,
          "name": "G#4",
          "ticks": 2089,
          "time": 19.200347166666667,
          "velocity": 0.8740157480314961
        },
        {
          "duration": 0.08272050000000064,
          "durationTicks": 9,
          "midi": 82,
          "name": "A#5",
          "ticks": 2112,
          "time": 19.411744000000002,
          "velocity": 0.8740157480314961
        },
        {
          "duration": 0.07352933333333667,
          "durationTicks": 8,
          "midi": 70,
          "name": "A#4",
          "ticks": 2113,
          "time": 19.420935166666666,
          "velocity": 0.8740157480314961
        },
        {
          "duration": 0.1930145000000003,
          "durationTicks": 21,
          "midi": 85,
          "name": "C#6",
          "ticks": 2136,
          "time": 19.632332,
          "velocity": 0.8740157480314961
        },
        {
          "duration": 0.1930145000000003,
          "durationTicks": 21,
          "midi": 73,
          "name": "C#5",
          "ticks": 2137,
          "time": 19.641523166666666,
          "velocity": 0.8740157480314961
        },
        {
          "duration": 0.22058799999999934,
          "durationTicks": 24,
          "midi": 84,
          "name": "C6",
          "ticks": 2184,
          "time": 20.073508000000004,
          "velocity": 0.8740157480314961
        },
        {
          "duration": 0.21139683333333537,
          "durationTicks": 23,
          "midi": 72,
          "name": "C5",
          "ticks": 2185,
          "time": 20.082699166666668,
          "velocity": 0.8740157480314961
        },
        {
          "duration": 0.20220566666666429,
          "durationTicks": 22,
          "midi": 80,
          "name": "G#5",
          "ticks": 2232,
          "time": 20.514684000000003,
          "velocity": 0.8740157480314961
        },
        {
          "duration": 0.20220566666666784,
          "durationTicks": 22,
          "midi": 68,
          "name": "G#4",
          "ticks": 2233,
          "time": 20.523875166666667,
          "velocity": 0.8740157480314961
        },
        {
          "duration": 0.4227936666666672,
          "durationTicks": 46,
          "midi": 75,
          "name": "D#5",
          "ticks": 2280,
          "time": 20.95586,
          "velocity": 0.8740157480314961
        },
        {
          "duration": 0.41360249999999965,
          "durationTicks": 45,
          "midi": 63,
          "name": "D#4",
          "ticks": 2281,
          "time": 20.96505116666667,
          "velocity": 0.8740157480314961
        },
        {
          "duration": 0.1930145000000003,
          "durationTicks": 21,
          "midi": 80,
          "name": "G#5",
          "ticks": 2328,
          "time": 21.397036000000003,
          "velocity": 0.8740157480314961
        },
        {
          "duration": 0.1930145000000003,
          "durationTicks": 21,
          "midi": 68,
          "name": "G#4",
          "ticks": 2329,
          "time": 21.406227166666667,
          "velocity": 0.8740157480314961
        },
        {
          "duration": 0.1930145000000003,
          "durationTicks": 21,
          "midi": 56,
          "name": "G#3",
          "ticks": 2352,
          "time": 21.617624000000003,
          "velocity": 0.8740157480314961
        },
        {
          "duration": 0.1930145000000003,
          "durationTicks": 21,
          "midi": 68,
          "name": "G#4",
          "ticks": 2376,
          "time": 21.838212000000002,
          "velocity": 0.8740157480314961
        },
        {
          "duration": 0.18382333333333634,
          "durationTicks": 20,
          "midi": 56,
          "name": "G#3",
          "ticks": 2377,
          "time": 21.847403166666666,
          "velocity": 0.8740157480314961
        },
        {
          "duration": 0.08272050000000064,
          "durationTicks": 9,
          "midi": 80,
          "name": "G#5",
          "ticks": 2400,
          "time": 22.0588,
          "velocity": 0.8740157480314961
        },
        {
          "duration": 0.08272050000000064,
          "durationTicks": 9,
          "midi": 68,
          "name": "G#4",
          "ticks": 2400,
          "time": 22.0588,
          "velocity": 0.8740157480314961
        },
        {
          "duration": 0.1011028333333357,
          "durationTicks": 11,
          "midi": 56,
          "name": "G#3",
          "ticks": 2401,
          "time": 22.067991166666665,
          "velocity": 0.8740157480314961
        },
        {
          "duration": 0.08272050000000064,
          "durationTicks": 9,
          "midi": 78,
          "name": "F#5",
          "ticks": 2412,
          "time": 22.169094,
          "velocity": 0.8740157480314961
        },
        {
          "duration": 0.08272050000000064,
          "durationTicks": 9,
          "midi": 66,
          "name": "F#4",
          "ticks": 2412,
          "time": 22.169094,
          "velocity": 0.8740157480314961
        },
        {
          "duration": 0.10110283333333214,
          "durationTicks": 11,
          "midi": 56,
          "name": "G#3",
          "ticks": 2413,
          "time": 22.17828516666667,
          "velocity": 0.8740157480314961
        },
        {
          "duration": 0.08272049999999709,
          "durationTicks": 9,
          "midi": 77,
          "name": "F5",
          "ticks": 2436,
          "time": 22.389682000000004,
          "velocity": 0.8740157480314961
        },
        {
          "duration": 0.08272049999999709,
          "durationTicks": 9,
          "midi": 65,
          "name": "F4",
          "ticks": 2436,
          "time": 22.389682000000004,
          "velocity": 0.8740157480314961
        },
        {
          "duration": 0.1011028333333357,
          "durationTicks": 11,
          "midi": 56,
          "name": "G#3",
          "ticks": 2437,
          "time": 22.398873166666668,
          "velocity": 0.8740157480314961
        },
        {
          "duration": 0.08272050000000064,
          "durationTicks": 9,
          "midi": 77,
          "name": "F5",
          "ticks": 2460,
          "time": 22.610270000000003,
          "velocity": 0.8740157480314961
        },
        {
          "duration": 0.08272050000000064,
          "durationTicks": 9,
          "midi": 65,
          "name": "F4",
          "ticks": 2460,
          "time": 22.610270000000003,
          "velocity": 0.8740157480314961
        },
        {
          "duration": 0.1011028333333357,
          "durationTicks": 11,
          "midi": 56,
          "name": "G#3",
          "ticks": 2461,
          "time": 22.619461166666667,
          "velocity": 0.8740157480314961
        },
        {
          "duration": 0.08272050000000064,
          "durationTicks": 9,
          "midi": 77,
          "name": "F5",
          "ticks": 2484,
          "time": 22.830858000000003,
          "velocity": 0.8740157480314961
        },
        {
          "duration": 0.08272050000000064,
          "durationTicks": 9,
          "midi": 65,
          "name": "F4",
          "ticks": 2484,
          "time": 22.830858000000003,
          "velocity": 0.8740157480314961
        },
        {
          "duration": 0.1011028333333357,
          "durationTicks": 11,
          "midi": 56,
          "name": "G#3",
          "ticks": 2485,
          "time": 22.840049166666667,
          "velocity": 0.8740157480314961
        },
        {
          "duration": 0.1930145000000003,
          "durationTicks": 21,
          "midi": 72,
          "name": "C5",
          "ticks": 2496,
          "time": 22.941152000000002,
          "velocity": 0.8740157480314961
        },
        {
          "duration": 0.1930145000000003,
          "durationTicks": 21,
          "midi": 60,
          "name": "C4",
          "ticks": 2496,
          "time": 22.941152000000002,
          "velocity": 0.8740157480314961
        },
        {
          "duration": 0.1930145000000003,
          "durationTicks": 21,
          "midi": 56,
          "name": "G#3",
          "ticks": 2497,
          "time": 22.950343166666666,
          "velocity": 0.8740157480314961
        },
        {
          "duration": 0.1930145000000003,
          "durationTicks": 21,
          "midi": 73,
          "name": "C#5",
          "ticks": 2520,
          "time": 23.16174,
          "velocity": 0.8740157480314961
        },
        {
          "duration": 0.1930145000000003,
          "durationTicks": 21,
          "midi": 61,
          "name": "C#4",
          "ticks": 2520,
          "time": 23.16174,
          "velocity": 0.8740157480314961
        },
        {
          "duration": 0.1930145000000003,
          "durationTicks": 21,
          "midi": 56,
          "name": "G#3",
          "ticks": 2521,
          "time": 23.170931166666666,
          "velocity": 0.8740157480314961
        },
        {
          "duration": 0.1930145000000003,
          "durationTicks": 21,
          "midi": 56,
          "name": "G#3",
          "ticks": 2544,
          "time": 23.382328,
          "velocity": 0.8740157480314961
        },
        {
          "duration": 0.1930145000000003,
          "durationTicks": 21,
          "midi": 68,
          "name": "G#4",
          "ticks": 2568,
          "time": 23.602916000000004,
          "velocity": 0.8740157480314961
        },
        {
          "duration": 0.18382333333333634,
          "durationTicks": 20,
          "midi": 56,
          "name": "G#3",
          "ticks": 2569,
          "time": 23.612107166666668,
          "velocity": 0.8740157480314961
        },
        {
          "duration": 0.08272050000000064,
          "durationTicks": 9,
          "midi": 80,
          "name": "G#5",
          "ticks": 2592,
          "time": 23.823504000000003,
          "velocity": 0.8740157480314961
        },
        {
          "duration": 0.08272050000000064,
          "durationTicks": 9,
          "midi": 68,
          "name": "G#4",
          "ticks": 2592,
          "time": 23.823504000000003,
          "velocity": 0.8740157480314961
        },
        {
          "duration": 0.1011028333333357,
          "durationTicks": 11,
          "midi": 56,
          "name": "G#3",
          "ticks": 2593,
          "time": 23.832695166666667,
          "velocity": 0.8740157480314961
        },
        {
          "duration": 0.08272050000000064,
          "durationTicks": 9,
          "midi": 78,
          "name": "F#5",
          "ticks": 2604,
          "time": 23.933798000000003,
          "velocity": 0.8740157480314961
        },
        {
          "duration": 0.08272050000000064,
          "durationTicks": 9,
          "midi": 66,
          "name": "F#4",
          "ticks": 2604,
          "time": 23.933798000000003,
          "velocity": 0.8740157480314961
        },
        {
          "duration": 0.1011028333333357,
          "durationTicks": 11,
          "midi": 56,
          "name": "G#3",
          "ticks": 2605,
          "time": 23.942989166666667,
          "velocity": 0.8740157480314961
        },
        {
          "duration": 0.08272050000000064,
          "durationTicks": 9,
          "midi": 77,
          "name": "F5",
          "ticks": 2628,
          "time": 24.154386000000002,
          "velocity": 0.8740157480314961
        },
        {
          "duration": 0.08272050000000064,
          "durationTicks": 9,
          "midi": 65,
          "name": "F4",
          "ticks": 2628,
          "time": 24.154386000000002,
          "velocity": 0.8740157480314961
        },
        {
          "duration": 0.1011028333333357,
          "durationTicks": 11,
          "midi": 56,
          "name": "G#3",
          "ticks": 2629,
          "time": 24.163577166666666,
          "velocity": 0.8740157480314961
        },
        {
          "duration": 0.08272050000000064,
          "durationTicks": 9,
          "midi": 77,
          "name": "F5",
          "ticks": 2652,
          "time": 24.374974,
          "velocity": 0.8740157480314961
        },
        {
          "duration": 0.08272050000000064,
          "durationTicks": 9,
          "midi": 65,
          "name": "F4",
          "ticks": 2652,
          "time": 24.374974,
          "velocity": 0.8740157480314961
        },
        {
          "duration": 0.1011028333333357,
          "durationTicks": 11,
          "midi": 56,
          "name": "G#3",
          "ticks": 2653,
          "time": 24.384165166666666,
          "velocity": 0.8740157480314961
        },
        {
          "duration": 0.08272050000000064,
          "durationTicks": 9,
          "midi": 77,
          "name": "F5",
          "ticks": 2676,
          "time": 24.595562,
          "velocity": 0.8740157480314961
        },
        {
          "duration": 0.08272050000000064,
          "durationTicks": 9,
          "midi": 65,
          "name": "F4",
          "ticks": 2676,
          "time": 24.595562,
          "velocity": 0.8740157480314961
        },
        {
          "duration": 0.1011028333333357,
          "durationTicks": 11,
          "midi": 56,
          "name": "G#3",
          "ticks": 2677,
          "time": 24.60475316666667,
          "velocity": 0.8740157480314961
        },
        {
          "duration": 0.19301449999999676,
          "durationTicks": 21,
          "midi": 72,
          "name": "C5",
          "ticks": 2688,
          "time": 24.705856000000004,
          "velocity": 0.8740157480314961
        },
        {
          "duration": 0.19301449999999676,
          "durationTicks": 21,
          "midi": 60,
          "name": "C4",
          "ticks": 2688,
          "time": 24.705856000000004,
          "velocity": 0.8740157480314961
        },
        {
          "duration": 0.1930145000000003,
          "durationTicks": 21,
          "midi": 56,
          "name": "G#3",
          "ticks": 2689,
          "time": 24.71504716666667,
          "velocity": 0.8740157480314961
        },
        {
          "duration": 0.1930145000000003,
          "durationTicks": 21,
          "midi": 73,
          "name": "C#5",
          "ticks": 2712,
          "time": 24.926444000000004,
          "velocity": 0.8740157480314961
        },
        {
          "duration": 0.1930145000000003,
          "durationTicks": 21,
          "midi": 61,
          "name": "C#4",
          "ticks": 2712,
          "time": 24.926444000000004,
          "velocity": 0.8740157480314961
        },
        {
          "duration": 0.1930145000000003,
          "durationTicks": 21,
          "midi": 56,
          "name": "G#3",
          "ticks": 2713,
          "time": 24.935635166666668,
          "velocity": 0.8740157480314961
        },
        {
          "duration": 0.19301450000000386,
          "durationTicks": 21,
          "midi": 77,
          "name": "F5",
          "ticks": 6576,
          "time": 60.441112000000004,
          "velocity": 0.8740157480314961
        },
        {
          "duration": 0.19301450000000386,
          "durationTicks": 21,
          "midi": 65,
          "name": "F4",
          "ticks": 6576,
          "time": 60.441112000000004,
          "velocity": 0.8740157480314961
        },
        {
          "duration": 0.42279366666667073,
          "durationTicks": 46,
          "midi": 56,
          "name": "G#3",
          "ticks": 6577,
          "time": 60.450303166666664,
          "velocity": 0.8740157480314961
        },
        {
          "duration": 0.19301450000000386,
          "durationTicks": 21,
          "midi": 73,
          "name": "C#5",
          "ticks": 6600,
          "time": 60.6617,
          "velocity": 0.7795275590551181
        },
        {
          "duration": 0.19301450000000386,
          "durationTicks": 21,
          "midi": 61,
          "name": "C#4",
          "ticks": 6601,
          "time": 60.670891166666664,
          "velocity": 0.7795275590551181
        },
        {
          "duration": 0.16544099999999418,
          "durationTicks": 18,
          "midi": 77,
          "name": "F5",
          "ticks": 6624,
          "time": 60.88228800000001,
          "velocity": 0.7795275590551181
        },
        {
          "duration": 0.16544099999999418,
          "durationTicks": 18,
          "midi": 65,
          "name": "F4",
          "ticks": 6624,
          "time": 60.88228800000001,
          "velocity": 0.7795275590551181
        },
        {
          "duration": 0.21139683333334602,
          "durationTicks": 23,
          "midi": 61,
          "name": "C#4",
          "ticks": 6625,
          "time": 60.89147916666666,
          "velocity": 0.8740157480314961
        },
        {
          "duration": 0.09191166666665396,
          "durationTicks": 10,
          "midi": 73,
          "name": "C#5",
          "ticks": 6648,
          "time": 61.10287600000001,
          "velocity": 0.7795275590551181
        },
        {
          "duration": 0.08272050000000064,
          "durationTicks": 9,
          "midi": 61,
          "name": "C#4",
          "ticks": 6649,
          "time": 61.11206716666666,
          "velocity": 0.7795275590551181
        },
        {
          "duration": 0.09191166666666106,
          "durationTicks": 10,
          "midi": 75,
          "name": "D#5",
          "ticks": 6660,
          "time": 61.213170000000005,
          "velocity": 0.7795275590551181
        },
        {
          "duration": 0.08272050000000064,
          "durationTicks": 9,
          "midi": 63,
          "name": "D#4",
          "ticks": 6661,
          "time": 61.222361166666666,
          "velocity": 0.7795275590551181
        },
        {
          "duration": 0.19301450000000386,
          "durationTicks": 21,
          "midi": 77,
          "name": "F5",
          "ticks": 6792,
          "time": 62.426404000000005,
          "velocity": 0.7795275590551181
        },
        {
          "duration": 0.19301449999999676,
          "durationTicks": 21,
          "midi": 65,
          "name": "F4",
          "ticks": 6793,
          "time": 62.435595166666666,
          "velocity": 0.7795275590551181
        },
        {
          "duration": 0.1746321666666617,
          "durationTicks": 19,
          "midi": 80,
          "name": "G#5",
          "ticks": 6816,
          "time": 62.646992000000004,
          "velocity": 0.8740157480314961
        },
        {
          "duration": 0.1746321666666688,
          "durationTicks": 19,
          "midi": 68,
          "name": "G#4",
          "ticks": 6817,
          "time": 62.656183166666665,
          "velocity": 0.8740157480314961
        },
        {
          "duration": 0.2113968333333318,
          "durationTicks": 23,
          "midi": 85,
          "name": "C#6",
          "ticks": 6840,
          "time": 62.867580000000004,
          "velocity": 0.8740157480314961
        },
        {
          "duration": 0.21139683333334602,
          "durationTicks": 23,
          "midi": 73,
          "name": "C#5",
          "ticks": 6841,
          "time": 62.876771166666664,
          "velocity": 0.8740157480314961
        },
        {
          "duration": 0.19301449999999676,
          "durationTicks": 21,
          "midi": 84,
          "name": "C6",
          "ticks": 6888,
          "time": 63.30875600000001,
          "velocity": 0.8740157480314961
        },
        {
          "duration": 0.19301450000000386,
          "durationTicks": 21,
          "midi": 72,
          "name": "C5",
          "ticks": 6889,
          "time": 63.31794716666666,
          "velocity": 0.8740157480314961
        },
        {
          "duration": 0.4411759999999987,
          "durationTicks": 48,
          "midi": 80,
          "name": "G#5",
          "ticks": 6912,
          "time": 63.52934400000001,
          "velocity": 0.8740157480314961
        },
        {
          "duration": 0.43198483333334536,
          "durationTicks": 47,
          "midi": 68,
          "name": "G#4",
          "ticks": 6913,
          "time": 63.53853516666666,
          "velocity": 0.8740157480314961
        },
        {
          "duration": 0.19301450000000386,
          "durationTicks": 21,
          "midi": 75,
          "name": "D#5",
          "ticks": 6984,
          "time": 64.191108,
          "velocity": 0.8740157480314961
        },
        {
          "duration": 0.19301449999998965,
          "durationTicks": 21,
          "midi": 63,
          "name": "D#4",
          "ticks": 6985,
          "time": 64.20029916666667,
          "velocity": 0.8740157480314961
        },
        {
          "duration": 0.19301450000000386,
          "durationTicks": 21,
          "midi": 77,
          "name": "F5",
          "ticks": 7008,
          "time": 64.411696,
          "velocity": 0.8740157480314961
        },
        {
          "duration": 0.19301450000000386,
          "durationTicks": 21,
          "midi": 65,
          "name": "F4",
          "ticks": 7009,
          "time": 64.42088716666666,
          "velocity": 0.8740157480314961
        },
        {
          "duration": 0.2389703333333273,
          "durationTicks": 26,
          "midi": 80,
          "name": "G#5",
          "ticks": 7032,
          "time": 64.632284,
          "velocity": 0.8740157480314961
        },
        {
          "duration": 0.2389703333333415,
          "durationTicks": 26,
          "midi": 68,
          "name": "G#4",
          "ticks": 7033,
          "time": 64.64147516666667,
          "velocity": 0.8740157480314961
        },
        {
          "duration": 0.19301450000000386,
          "durationTicks": 21,
          "midi": 80,
          "name": "G#5",
          "ticks": 7080,
          "time": 65.07346,
          "velocity": 0.8740157480314961
        },
        {
          "duration": 0.19301450000000386,
          "durationTicks": 21,
          "midi": 68,
          "name": "G#4",
          "ticks": 7081,
          "time": 65.08265116666666,
          "velocity": 0.8740157480314961
        },
        {
          "duration": 0.19301450000000386,
          "durationTicks": 21,
          "midi": 77,
          "name": "F5",
          "ticks": 7104,
          "time": 65.294048,
          "velocity": 0.8740157480314961
        },
        {
          "duration": 0.19301450000000386,
          "durationTicks": 21,
          "midi": 65,
          "name": "F4",
          "ticks": 7105,
          "time": 65.30323916666666,
          "velocity": 0.8740157480314961
        },
        {
          "duration": 0.19301449999998965,
          "durationTicks": 21,
          "midi": 75,
          "name": "D#5",
          "ticks": 7128,
          "time": 65.51463600000001,
          "velocity": 0.8740157480314961
        },
        {
          "duration": 0.19301450000000386,
          "durationTicks": 21,
          "midi": 63,
          "name": "D#4",
          "ticks": 7129,
          "time": 65.52382716666666,
          "velocity": 0.8740157480314961
        },
        {
          "duration": 0.22058800000000645,
          "durationTicks": 24,
          "midi": 77,
          "name": "F5",
          "ticks": 7176,
          "time": 65.955812,
          "velocity": 0.8740157480314961
        },
        {
          "duration": 0.22058799999999223,
          "durationTicks": 24,
          "midi": 65,
          "name": "F4",
          "ticks": 7177,
          "time": 65.96500316666666,
          "velocity": 0.8740157480314961
        },
        {
          "duration": 0.19301450000000386,
          "durationTicks": 21,
          "midi": 82,
          "name": "A#5",
          "ticks": 7224,
          "time": 66.396988,
          "velocity": 0.8740157480314961
        },
        {
          "duration": 0.19301450000000386,
          "durationTicks": 21,
          "midi": 70,
          "name": "A#4",
          "ticks": 7225,
          "time": 66.40617916666666,
          "velocity": 0.8740157480314961
        },
        {
          "duration": 0.6525728333333234,
          "durationTicks": 71,
          "midi": 82,
          "name": "A#5",
          "ticks": 7272,
          "time": 66.838164,
          "velocity": 0.8740157480314961
        },
        {
          "duration": 0.6433816666666701,
          "durationTicks": 70,
          "midi": 70,
          "name": "A#4",
          "ticks": 7273,
          "time": 66.84735516666666,
          "velocity": 0.8740157480314961
        },
        {
          "duration": 0.19301450000000386,
          "durationTicks": 21,
          "midi": 78,
          "name": "F#5",
          "ticks": 7440,
          "time": 68.38228,
          "velocity": 0.8740157480314961
        },
        {
          "duration": 0.19301449999998965,
          "durationTicks": 21,
          "midi": 66,
          "name": "F#4",
          "ticks": 7441,
          "time": 68.39147116666666,
          "velocity": 0.8740157480314961
        },
        {
          "duration": 0.10110283333332859,
          "durationTicks": 11,
          "midi": 75,
          "name": "D#5",
          "ticks": 7464,
          "time": 68.602868,
          "velocity": 0.8740157480314961
        },
        {
          "duration": 0.1011028333333428,
          "durationTicks": 11,
          "midi": 63,
          "name": "D#4",
          "ticks": 7465,
          "time": 68.61205916666665,
          "velocity": 0.8740157480314961
        },
        {
          "duration": 0.1011028333333428,
          "durationTicks": 11,
          "midi": 73,
          "name": "C#5",
          "ticks": 7488,
          "time": 68.823456,
          "velocity": 0.7795275590551181
        },
        {
          "duration": 0.1011028333333428,
          "durationTicks": 11,
          "midi": 61,
          "name": "C#4",
          "ticks": 7489,
          "time": 68.83264716666666,
          "velocity": 0.7795275590551181
        },
        {
          "duration": 0.18382333333333634,
          "durationTicks": 20,
          "midi": 78,
          "name": "F#5",
          "ticks": 7512,
          "time": 69.044044,
          "velocity": 0.8740157480314961
        },
        {
          "duration": 0.18382333333335055,
          "durationTicks": 20,
          "midi": 66,
          "name": "F#4",
          "ticks": 7513,
          "time": 69.05323516666665,
          "velocity": 0.8740157480314961
        },
        {
          "duration": 0.16544099999998707,
          "durationTicks": 18,
          "midi": 77,
          "name": "F5",
          "ticks": 7536,
          "time": 69.264632,
          "velocity": 0.8740157480314961
        },
        {
          "duration": 0.16544100000000128,
          "durationTicks": 18,
          "midi": 65,
          "name": "F4",
          "ticks": 7537,
          "time": 69.27382316666666,
          "velocity": 0.8740157480314961
        },
        {
          "duration": 0.15624983333333375,
          "durationTicks": 17,
          "midi": 73,
          "name": "C#5",
          "ticks": 7560,
          "time": 69.48522,
          "velocity": 0.8740157480314961
        },
        {
          "duration": 0.15624983333334796,
          "durationTicks": 17,
          "midi": 61,
          "name": "C#4",
          "ticks": 7561,
          "time": 69.49441116666665,
          "velocity": 0.8740157480314961
        },
        {
          "duration": 0.10110283333332859,
          "durationTicks": 11,
          "midi": 69,
          "name": "A4",
          "ticks": 7584,
          "time": 69.705808,
          "velocity": 0.7795275590551181
        },
        {
          "duration": 0.1011028333333428,
          "durationTicks": 11,
          "midi": 57,
          "name": "A3",
          "ticks": 7585,
          "time": 69.71499916666666,
          "velocity": 0.7795275590551181
        },
        {
          "duration": 0.16544100000000128,
          "durationTicks": 18,
          "midi": 75,
          "name": "D#5",
          "ticks": 7608,
          "time": 69.926396,
          "velocity": 0.8740157480314961
        },
        {
          "duration": 0.16544099999998707,
          "durationTicks": 18,
          "midi": 63,
          "name": "D#4",
          "ticks": 7609,
          "time": 69.93558716666666,
          "velocity": 0.8740157480314961
        },
        {
          "duration": 0.6525728333333376,
          "durationTicks": 71,
          "midi": 87,
          "name": "D#6",
          "ticks": 7656,
          "time": 70.367572,
          "velocity": 0.8740157480314961
        },
        {
          "duration": 0.6433816666666701,
          "durationTicks": 70,
          "midi": 75,
          "name": "D#5",
          "ticks": 7657,
          "time": 70.37676316666666,
          "velocity": 0.8740157480314961
        },
        {
          "duration": 0.8180138333333247,
          "durationTicks": 89,
          "midi": 87,
          "name": "D#6",
          "ticks": 7728,
          "time": 71.029336,
          "velocity": 0.8740157480314961
        },
        {
          "duration": 0.8088226666666714,
          "durationTicks": 88,
          "midi": 75,
          "name": "D#5",
          "ticks": 7729,
          "time": 71.03852716666665,
          "velocity": 0.8740157480314961
        },
        {
          "duration": 0.8180138333333247,
          "durationTicks": 89,
          "midi": 89,
          "name": "F6",
          "ticks": 7824,
          "time": 71.911688,
          "velocity": 0.8740157480314961
        },
        {
          "duration": 0.8088226666666714,
          "durationTicks": 88,
          "midi": 77,
          "name": "F5",
          "ticks": 7825,
          "time": 71.92087916666665,
          "velocity": 0.8740157480314961
        },
        {
          "duration": 0.18382333333333634,
          "durationTicks": 20,
          "midi": 92,
          "name": "G#6",
          "ticks": 7920,
          "time": 72.79404,
          "velocity": 0.8740157480314961
        },
        {
          "duration": 0.18382333333333634,
          "durationTicks": 20,
          "midi": 80,
          "name": "G#5",
          "ticks": 7921,
          "time": 72.80323116666666,
          "velocity": 0.8740157480314961
        },
        {
          "duration": 0.4136024999999961,
          "durationTicks": 45,
          "midi": 90,
          "name": "F#6",
          "ticks": 7944,
          "time": 73.014628,
          "velocity": 0.8740157480314961
        },
        {
          "duration": 0.4044113333333428,
          "durationTicks": 44,
          "midi": 78,
          "name": "F#5",
          "ticks": 7945,
          "time": 73.02381916666666,
          "velocity": 0.8740157480314961
        },
        {
          "duration": 0.4136024999999961,
          "durationTicks": 45,
          "midi": 89,
          "name": "F6",
          "ticks": 7992,
          "time": 73.455804,
          "velocity": 0.8740157480314961
        },
        {
          "duration": 0.4044113333333428,
          "durationTicks": 44,
          "midi": 77,
          "name": "F5",
          "ticks": 7993,
          "time": 73.46499516666665,
          "velocity": 0.8740157480314961
        },
        {
          "duration": 0.40441133333332857,
          "durationTicks": 44,
          "midi": 85,
          "name": "C#6",
          "ticks": 8040,
          "time": 73.89698,
          "velocity": 0.8740157480314961
        },
        {
          "duration": 0.39522016666667525,
          "durationTicks": 43,
          "midi": 73,
          "name": "C#5",
          "ticks": 8041,
          "time": 73.90617116666665,
          "velocity": 0.8740157480314961
        },
        {
          "duration": 0.18382333333333634,
          "durationTicks": 20,
          "midi": 80,
          "name": "G#5",
          "ticks": 8088,
          "time": 74.338156,
          "velocity": 0.8740157480314961
        },
        {
          "duration": 0.1746321666666688,
          "durationTicks": 19,
          "midi": 68,
          "name": "G#4",
          "ticks": 8089,
          "time": 74.34734716666667,
          "velocity": 0.8740157480314961
        },
        {
          "duration": 0.19301449999998965,
          "durationTicks": 21,
          "midi": 77,
          "name": "F5",
          "ticks": 8112,
          "time": 74.558744,
          "velocity": 0.8740157480314961
        },
        {
          "duration": 0.19301449999998965,
          "durationTicks": 21,
          "midi": 65,
          "name": "F4",
          "ticks": 8112,
          "time": 74.558744,
          "velocity": 0.8740157480314961
        },
        {
          "duration": 0.42279366666667784,
          "durationTicks": 46,
          "midi": 56,
          "name": "G#3",
          "ticks": 8113,
          "time": 74.56793516666666,
          "velocity": 0.8740157480314961
        },
        {
          "duration": 0.19301450000000386,
          "durationTicks": 21,
          "midi": 73,
          "name": "C#5",
          "ticks": 8136,
          "time": 74.779332,
          "velocity": 0.7795275590551181
        },
        {
          "duration": 0.19301449999998965,
          "durationTicks": 21,
          "midi": 61,
          "name": "C#4",
          "ticks": 8137,
          "time": 74.78852316666666,
          "velocity": 0.7795275590551181
        },
        {
          "duration": 0.16544100000000128,
          "durationTicks": 18,
          "midi": 77,
          "name": "F5",
          "ticks": 8160,
          "time": 74.99992,
          "velocity": 0.7795275590551181
        },
        {
          "duration": 0.16544100000000128,
          "durationTicks": 18,
          "midi": 65,
          "name": "F4",
          "ticks": 8160,
          "time": 74.99992,
          "velocity": 0.7795275590551181
        },
        {
          "duration": 0.21139683333333892,
          "durationTicks": 23,
          "midi": 61,
          "name": "C#4",
          "ticks": 8161,
          "time": 75.00911116666666,
          "velocity": 0.8740157480314961
        },
        {
          "duration": 0.09191166666666106,
          "durationTicks": 10,
          "midi": 73,
          "name": "C#5",
          "ticks": 8184,
          "time": 75.220508,
          "velocity": 0.7795275590551181
        },
        {
          "duration": 0.08272049999999354,
          "durationTicks": 9,
          "midi": 61,
          "name": "C#4",
          "ticks": 8185,
          "time": 75.22969916666666,
          "velocity": 0.7795275590551181
        },
        {
          "duration": 0.09191166666664685,
          "durationTicks": 10,
          "midi": 75,
          "name": "D#5",
          "ticks": 8196,
          "time": 75.330802,
          "velocity": 0.7795275590551181
        },
        {
          "duration": 0.08272049999999354,
          "durationTicks": 9,
          "midi": 63,
          "name": "D#4",
          "ticks": 8197,
          "time": 75.33999316666666,
          "velocity": 0.7795275590551181
        },
        {
          "duration": 0.19301449999998965,
          "durationTicks": 21,
          "midi": 77,
          "name": "F5",
          "ticks": 8328,
          "time": 76.544036,
          "velocity": 0.7795275590551181
        },
        {
          "duration": 0.19301450000000386,
          "durationTicks": 21,
          "midi": 65,
          "name": "F4",
          "ticks": 8329,
          "time": 76.55322716666666,
          "velocity": 0.7795275590551181
        },
        {
          "duration": 0.1746321666666546,
          "durationTicks": 19,
          "midi": 80,
          "name": "G#5",
          "ticks": 8352,
          "time": 76.764624,
          "velocity": 0.8740157480314961
        },
        {
          "duration": 0.1746321666666688,
          "durationTicks": 19,
          "midi": 68,
          "name": "G#4",
          "ticks": 8353,
          "time": 76.77381516666667,
          "velocity": 0.8740157480314961
        },
        {
          "duration": 0.2113968333333247,
          "durationTicks": 23,
          "midi": 85,
          "name": "C#6",
          "ticks": 8376,
          "time": 76.985212,
          "velocity": 0.8740157480314961
        },
        {
          "duration": 0.21139683333333892,
          "durationTicks": 23,
          "midi": 73,
          "name": "C#5",
          "ticks": 8377,
          "time": 76.99440316666666,
          "velocity": 0.8740157480314961
        },
        {
          "duration": 0.19301450000000386,
          "durationTicks": 21,
          "midi": 84,
          "name": "C6",
          "ticks": 8424,
          "time": 77.426388,
          "velocity": 0.8740157480314961
        },
        {
          "duration": 0.19301450000000386,
          "durationTicks": 21,
          "midi": 72,
          "name": "C5",
          "ticks": 8425,
          "time": 77.43557916666666,
          "velocity": 0.8740157480314961
        },
        {
          "duration": 0.4411759999999987,
          "durationTicks": 48,
          "midi": 80,
          "name": "G#5",
          "ticks": 8448,
          "time": 77.646976,
          "velocity": 0.8740157480314961
        },
        {
          "duration": 0.43198483333333115,
          "durationTicks": 47,
          "midi": 68,
          "name": "G#4",
          "ticks": 8449,
          "time": 77.65616716666666,
          "velocity": 0.8740157480314961
        },
        {
          "duration": 0.19301450000000386,
          "durationTicks": 21,
          "midi": 75,
          "name": "D#5",
          "ticks": 8520,
          "time": 78.30874,
          "velocity": 0.8740157480314961
        },
        {
          "duration": 0.19301450000000386,
          "durationTicks": 21,
          "midi": 63,
          "name": "D#4",
          "ticks": 8521,
          "time": 78.31793116666665,
          "velocity": 0.8740157480314961
        },
        {
          "duration": 0.19301449999998965,
          "durationTicks": 21,
          "midi": 77,
          "name": "F5",
          "ticks": 8544,
          "time": 78.529328,
          "velocity": 0.8740157480314961
        },
        {
          "duration": 0.19301450000000386,
          "durationTicks": 21,
          "midi": 65,
          "name": "F4",
          "ticks": 8545,
          "time": 78.53851916666666,
          "velocity": 0.8740157480314961
        },
        {
          "duration": 0.2389703333333273,
          "durationTicks": 26,
          "midi": 80,
          "name": "G#5",
          "ticks": 8568,
          "time": 78.749916,
          "velocity": 0.8740157480314961
        },
        {
          "duration": 0.2389703333333415,
          "durationTicks": 26,
          "midi": 68,
          "name": "G#4",
          "ticks": 8569,
          "time": 78.75910716666665,
          "velocity": 0.8740157480314961
        },
        {
          "duration": 0.19301450000000386,
          "durationTicks": 21,
          "midi": 80,
          "name": "G#5",
          "ticks": 8616,
          "time": 79.191092,
          "velocity": 0.8740157480314961
        },
        {
          "duration": 0.19301449999998965,
          "durationTicks": 21,
          "midi": 68,
          "name": "G#4",
          "ticks": 8617,
          "time": 79.20028316666667,
          "velocity": 0.8740157480314961
        },
        {
          "duration": 0.19301449999998965,
          "durationTicks": 21,
          "midi": 77,
          "name": "F5",
          "ticks": 8640,
          "time": 79.41168,
          "velocity": 0.8740157480314961
        },
        {
          "duration": 0.19301450000000386,
          "durationTicks": 21,
          "midi": 65,
          "name": "F4",
          "ticks": 8641,
          "time": 79.42087116666666,
          "velocity": 0.8740157480314961
        },
        {
          "duration": 0.19301450000000386,
          "durationTicks": 21,
          "midi": 75,
          "name": "D#5",
          "ticks": 8664,
          "time": 79.632268,
          "velocity": 0.8740157480314961
        },
        {
          "duration": 0.19301449999998965,
          "durationTicks": 21,
          "midi": 63,
          "name": "D#4",
          "ticks": 8665,
          "time": 79.64145916666666,
          "velocity": 0.8740157480314961
        },
        {
          "duration": 0.22058800000000645,
          "durationTicks": 24,
          "midi": 77,
          "name": "F5",
          "ticks": 8712,
          "time": 80.073444,
          "velocity": 0.8740157480314961
        },
        {
          "duration": 0.22058799999999223,
          "durationTicks": 24,
          "midi": 65,
          "name": "F4",
          "ticks": 8713,
          "time": 80.08263516666666,
          "velocity": 0.8740157480314961
        },
        {
          "duration": 0.19301450000000386,
          "durationTicks": 21,
          "midi": 82,
          "name": "A#5",
          "ticks": 8760,
          "time": 80.51462,
          "velocity": 0.8740157480314961
        },
        {
          "duration": 0.19301450000000386,
          "durationTicks": 21,
          "midi": 70,
          "name": "A#4",
          "ticks": 8761,
          "time": 80.52381116666666,
          "velocity": 0.8740157480314961
        },
        {
          "duration": 0.6158081666666533,
          "durationTicks": 67,
          "midi": 82,
          "name": "A#5",
          "ticks": 8808,
          "time": 80.955796,
          "velocity": 0.8740157480314961
        },
        {
          "duration": 0.606617,
          "durationTicks": 66,
          "midi": 70,
          "name": "A#4",
          "ticks": 8809,
          "time": 80.96498716666666,
          "velocity": 0.8740157480314961
        },
        {
          "duration": 0.10110283333332859,
          "durationTicks": 11,
          "midi": 80,
          "name": "G#5",
          "ticks": 9000,
          "time": 82.7205,
          "velocity": 0.8740157480314961
        },
        {
          "duration": 0.09191166666667527,
          "durationTicks": 10,
          "midi": 68,
          "name": "G#4",
          "ticks": 9001,
          "time": 82.72969116666665,
          "velocity": 0.8740157480314961
        },
        {
          "duration": 0.08272050000000775,
          "durationTicks": 9,
          "midi": 82,
          "name": "A#5",
          "ticks": 9024,
          "time": 82.941088,
          "velocity": 0.8740157480314961
        },
        {
          "duration": 0.07352933333334022,
          "durationTicks": 8,
          "midi": 70,
          "name": "A#4",
          "ticks": 9025,
          "time": 82.95027916666666,
          "velocity": 0.8740157480314961
        },
        {
          "duration": 0.19301450000000386,
          "durationTicks": 21,
          "midi": 85,
          "name": "C#6",
          "ticks": 9048,
          "time": 83.161676,
          "velocity": 0.8740157480314961
        },
        {
          "duration": 0.19301450000000386,
          "durationTicks": 21,
          "midi": 73,
          "name": "C#5",
          "ticks": 9049,
          "time": 83.17086716666665,
          "velocity": 0.8740157480314961
        },
        {
          "duration": 0.22058800000000645,
          "durationTicks": 24,
          "midi": 84,
          "name": "C6",
          "ticks": 9096,
          "time": 83.602852,
          "velocity": 0.8740157480314961
        },
        {
          "duration": 0.21139683333335313,
          "durationTicks": 23,
          "midi": 72,
          "name": "C5",
          "ticks": 9097,
          "time": 83.61204316666665,
          "velocity": 0.8740157480314961
        },
        {
          "duration": 0.19301450000000386,
          "durationTicks": 21,
          "midi": 80,
          "name": "G#5",
          "ticks": 9144,
          "time": 84.044028,
          "velocity": 0.8740157480314961
        },
        {
          "duration": 0.19301449999998965,
          "durationTicks": 21,
          "midi": 68,
          "name": "G#4",
          "ticks": 9145,
          "time": 84.05321916666666,
          "velocity": 0.8740157480314961
        },
        {
          "duration": 0.18382333333332213,
          "durationTicks": 20,
          "midi": 85,
          "name": "C#6",
          "ticks": 9168,
          "time": 84.264616,
          "velocity": 0.8740157480314961
        },
        {
          "duration": 0.18382333333333634,
          "durationTicks": 20,
          "midi": 73,
          "name": "C#5",
          "ticks": 9169,
          "time": 84.27380716666666,
          "velocity": 0.8740157480314961
        },
        {
          "duration": 0.6158081666666675,
          "durationTicks": 67,
          "midi": 87,
          "name": "D#6",
          "ticks": 9192,
          "time": 84.485204,
          "velocity": 0.8740157480314961
        },
        {
          "duration": 0.606617,
          "durationTicks": 66,
          "midi": 75,
          "name": "D#5",
          "ticks": 9193,
          "time": 84.49439516666666,
          "velocity": 0.8740157480314961
        },
        {
          "duration": 0.19301450000000386,
          "durationTicks": 21,
          "midi": 56,
          "name": "G#3",
          "ticks": 9264,
          "time": 85.146968,
          "velocity": 0.8740157480314961
        },
        {
          "duration": 0.19301450000000386,
          "durationTicks": 21,
          "midi": 68,
          "name": "G#4",
          "ticks": 9288,
          "time": 85.367556,
          "velocity": 0.8740157480314961
        },
        {
          "duration": 0.18382333333333634,
          "durationTicks": 20,
          "midi": 56,
          "name": "G#3",
          "ticks": 9289,
          "time": 85.37674716666666,
          "velocity": 0.8740157480314961
        },
        {
          "duration": 0.08272050000000775,
          "durationTicks": 9,
          "midi": 80,
          "name": "G#5",
          "ticks": 9312,
          "time": 85.588144,
          "velocity": 0.8740157480314961
        },
        {
          "duration": 0.08272050000000775,
          "durationTicks": 9,
          "midi": 68,
          "name": "G#4",
          "ticks": 9312,
          "time": 85.588144,
          "velocity": 0.8740157480314961
        },
        {
          "duration": 0.1011028333333428,
          "durationTicks": 11,
          "midi": 56,
          "name": "G#3",
          "ticks": 9313,
          "time": 85.59733516666665,
          "velocity": 0.8740157480314961
        },
        {
          "duration": 0.08272050000000775,
          "durationTicks": 9,
          "midi": 78,
          "name": "F#5",
          "ticks": 9324,
          "time": 85.698438,
          "velocity": 0.8740157480314961
        },
        {
          "duration": 0.08272050000000775,
          "durationTicks": 9,
          "midi": 66,
          "name": "F#4",
          "ticks": 9324,
          "time": 85.698438,
          "velocity": 0.8740157480314961
        },
        {
          "duration": 0.1011028333333428,
          "durationTicks": 11,
          "midi": 56,
          "name": "G#3",
          "ticks": 9325,
          "time": 85.70762916666666,
          "velocity": 0.8740157480314961
        },
        {
          "duration": 0.08272049999999354,
          "durationTicks": 9,
          "midi": 77,
          "name": "F5",
          "ticks": 9348,
          "time": 85.919026,
          "velocity": 0.8740157480314961
        },
        {
          "duration": 0.08272049999999354,
          "durationTicks": 9,
          "midi": 65,
          "name": "F4",
          "ticks": 9348,
          "time": 85.919026,
          "velocity": 0.8740157480314961
        },
        {
          "duration": 0.1011028333333428,
          "durationTicks": 11,
          "midi": 56,
          "name": "G#3",
          "ticks": 9349,
          "time": 85.92821716666666,
          "velocity": 0.8740157480314961
        },
        {
          "duration": 0.08272050000000775,
          "durationTicks": 9,
          "midi": 77,
          "name": "F5",
          "ticks": 9372,
          "time": 86.139614,
          "velocity": 0.8740157480314961
        },
        {
          "duration": 0.08272050000000775,
          "durationTicks": 9,
          "midi": 65,
          "name": "F4",
          "ticks": 9372,
          "time": 86.139614,
          "velocity": 0.8740157480314961
        },
        {
          "duration": 0.1011028333333428,
          "durationTicks": 11,
          "midi": 56,
          "name": "G#3",
          "ticks": 9373,
          "time": 86.14880516666666,
          "velocity": 0.8740157480314961
        },
        {
          "duration": 0.08272049999999354,
          "durationTicks": 9,
          "midi": 77,
          "name": "F5",
          "ticks": 9396,
          "time": 86.360202,
          "velocity": 0.8740157480314961
        },
        {
          "duration": 0.08272049999999354,
          "durationTicks": 9,
          "midi": 65,
          "name": "F4",
          "ticks": 9396,
          "time": 86.360202,
          "velocity": 0.8740157480314961
        },
        {
          "duration": 0.1011028333333428,
          "durationTicks": 11,
          "midi": 56,
          "name": "G#3",
          "ticks": 9397,
          "time": 86.36939316666665,
          "velocity": 0.8740157480314961
        },
        {
          "duration": 0.19301450000000386,
          "durationTicks": 21,
          "midi": 72,
          "name": "C5",
          "ticks": 9408,
          "time": 86.470496,
          "velocity": 0.8740157480314961
        },
        {
          "duration": 0.19301450000000386,
          "durationTicks": 21,
          "midi": 60,
          "name": "C4",
          "ticks": 9408,
          "time": 86.470496,
          "velocity": 0.8740157480314961
        },
        {
          "duration": 0.19301449999998965,
          "durationTicks": 21,
          "midi": 56,
          "name": "G#3",
          "ticks": 9409,
          "time": 86.47968716666666,
          "velocity": 0.8740157480314961
        },
        {
          "duration": 0.19301450000000386,
          "durationTicks": 21,
          "midi": 73,
          "name": "C#5",
          "ticks": 9432,
          "time": 86.691084,
          "velocity": 0.8740157480314961
        },
        {
          "duration": 0.19301450000000386,
          "durationTicks": 21,
          "midi": 61,
          "name": "C#4",
          "ticks": 9432,
          "time": 86.691084,
          "velocity": 0.8740157480314961
        },
        {
          "duration": 0.19301450000000386,
          "durationTicks": 21,
          "midi": 56,
          "name": "G#3",
          "ticks": 9433,
          "time": 86.70027516666666,
          "velocity": 0.8740157480314961
        },
        {
          "duration": 0.19301450000000386,
          "durationTicks": 21,
          "midi": 56,
          "name": "G#3",
          "ticks": 9456,
          "time": 86.911672,
          "velocity": 0.8740157480314961
        },
        {
          "duration": 0.19301450000000386,
          "durationTicks": 21,
          "midi": 68,
          "name": "G#4",
          "ticks": 9480,
          "time": 87.13226,
          "velocity": 0.8740157480314961
        },
        {
          "duration": 0.18382333333335055,
          "durationTicks": 20,
          "midi": 56,
          "name": "G#3",
          "ticks": 9481,
          "time": 87.14145116666666,
          "velocity": 0.8740157480314961
        },
        {
          "duration": 0.08272050000000775,
          "durationTicks": 9,
          "midi": 80,
          "name": "G#5",
          "ticks": 9504,
          "time": 87.352848,
          "velocity": 0.8740157480314961
        },
        {
          "duration": 0.08272050000000775,
          "durationTicks": 9,
          "midi": 68,
          "name": "G#4",
          "ticks": 9504,
          "time": 87.352848,
          "velocity": 0.8740157480314961
        },
        {
          "duration": 0.1011028333333428,
          "durationTicks": 11,
          "midi": 56,
          "name": "G#3",
          "ticks": 9505,
          "time": 87.36203916666666,
          "velocity": 0.8740157480314961
        },
        {
          "duration": 0.08272049999999354,
          "durationTicks": 9,
          "midi": 78,
          "name": "F#5",
          "ticks": 9516,
          "time": 87.463142,
          "velocity": 0.8740157480314961
        },
        {
          "duration": 0.08272049999999354,
          "durationTicks": 9,
          "midi": 66,
          "name": "F#4",
          "ticks": 9516,
          "time": 87.463142,
          "velocity": 0.8740157480314961
        },
        {
          "duration": 0.1011028333333428,
          "durationTicks": 11,
          "midi": 56,
          "name": "G#3",
          "ticks": 9517,
          "time": 87.47233316666666,
          "velocity": 0.8740157480314961
        },
        {
          "duration": 0.08272050000000775,
          "durationTicks": 9,
          "midi": 77,
          "name": "F5",
          "ticks": 9540,
          "time": 87.68373,
          "velocity": 0.8740157480314961
        },
        {
          "duration": 0.08272050000000775,
          "durationTicks": 9,
          "midi": 65,
          "name": "F4",
          "ticks": 9540,
          "time": 87.68373,
          "velocity": 0.8740157480314961
        },
        {
          "duration": 0.1011028333333428,
          "durationTicks": 11,
          "midi": 56,
          "name": "G#3",
          "ticks": 9541,
          "time": 87.69292116666666,
          "velocity": 0.8740157480314961
        },
        {
          "duration": 0.08272049999999354,
          "durationTicks": 9,
          "midi": 77,
          "name": "F5",
          "ticks": 9564,
          "time": 87.904318,
          "velocity": 0.8740157480314961
        },
        {
          "duration": 0.08272049999999354,
          "durationTicks": 9,
          "midi": 65,
          "name": "F4",
          "ticks": 9564,
          "time": 87.904318,
          "velocity": 0.8740157480314961
        },
        {
          "duration": 0.1011028333333428,
          "durationTicks": 11,
          "midi": 56,
          "name": "G#3",
          "ticks": 9565,
          "time": 87.91350916666666,
          "velocity": 0.8740157480314961
        },
        {
          "duration": 0.08272050000000775,
          "durationTicks": 9,
          "midi": 77,
          "name": "F5",
          "ticks": 9588,
          "time": 88.124906,
          "velocity": 0.8740157480314961
        },
        {
          "duration": 0.08272050000000775,
          "durationTicks": 9,
          "midi": 65,
          "name": "F4",
          "ticks": 9588,
          "time": 88.124906,
          "velocity": 0.8740157480314961
        },
        {
          "duration": 0.1011028333333428,
          "durationTicks": 11,
          "midi": 56,
          "name": "G#3",
          "ticks": 9589,
          "time": 88.13409716666666,
          "velocity": 0.8740157480314961
        },
        {
          "duration": 0.19301449999998965,
          "durationTicks": 21,
          "midi": 72,
          "name": "C5",
          "ticks": 9600,
          "time": 88.2352,
          "velocity": 0.8740157480314961
        },
        {
          "duration": 0.19301449999998965,
          "durationTicks": 21,
          "midi": 60,
          "name": "C4",
          "ticks": 9600,
          "time": 88.2352,
          "velocity": 0.8740157480314961
        },
        {
          "duration": 0.19301450000000386,
          "durationTicks": 21,
          "midi": 56,
          "name": "G#3",
          "ticks": 9601,
          "time": 88.24439116666666,
          "velocity": 0.8740157480314961
        },
        {
          "duration": 0.19301450000000386,
          "durationTicks": 21,
          "midi": 73,
          "name": "C#5",
          "ticks": 9624,
          "time": 88.455788,
          "velocity": 0.8740157480314961
        },
        {
          "duration": 0.19301450000000386,
          "durationTicks": 21,
          "midi": 61,
          "name": "C#4",
          "ticks": 9624,
          "time": 88.455788,
          "velocity": 0.8740157480314961
        },
        {
          "duration": 0.19301449999998965,
          "durationTicks": 21,
          "midi": 56,
          "name": "G#3",
          "ticks": 9625,
          "time": 88.46497916666667,
          "velocity": 0.8740157480314961
        },
        {
          "duration": 1.7371305000000064,
          "durationTicks": 189,
          "midi": 65,
          "name": "F4",
          "ticks": 11952,
          "time": 109.852824,
          "velocity": 0.7795275590551181
        },
        {
          "duration": 0.40441133333332857,
          "durationTicks": 44,
          "midi": 63,
          "name": "D#4",
          "ticks": 12144,
          "time": 111.61752800000001,
          "velocity": 0.7795275590551181
        },
        {
          "duration": 0.19301449999998965,
          "durationTicks": 21,
          "midi": 65,
          "name": "F4",
          "ticks": 12192,
          "time": 112.058704,
          "velocity": 0.7795275590551181
        },
        {
          "duration": 0.19301450000000386,
          "durationTicks": 21,
          "midi": 63,
          "name": "D#4",
          "ticks": 12216,
          "time": 112.279292,
          "velocity": 0.7795275590551181
        },
        {
          "duration": 0.8363961666666597,
          "durationTicks": 91,
          "midi": 68,
          "name": "G#4",
          "ticks": 12240,
          "time": 112.49988,
          "velocity": 0.7795275590551181
        },
        {
          "duration": 0.8455873333333273,
          "durationTicks": 92,
          "midi": 60,
          "name": "C4",
          "ticks": 12336,
          "time": 113.382232,
          "velocity": 0.7795275590551181
        },
        {
          "duration": 0.6433816666666701,
          "durationTicks": 70,
          "midi": 61,
          "name": "C#4",
          "ticks": 12432,
          "time": 114.264584,
          "velocity": 0.7795275590551181
        },
        {
          "duration": 0.4136024999999961,
          "durationTicks": 45,
          "midi": 63,
          "name": "D#4",
          "ticks": 12504,
          "time": 114.92634799999999,
          "velocity": 0.7795275590551181
        },
        {
          "duration": 0.4136024999999961,
          "durationTicks": 45,
          "midi": 68,
          "name": "G#4",
          "ticks": 12552,
          "time": 115.36752399999999,
          "velocity": 0.7795275590551181
        },
        {
          "duration": 0.4136024999999961,
          "durationTicks": 45,
          "midi": 63,
          "name": "D#4",
          "ticks": 12600,
          "time": 115.80869999999999,
          "velocity": 0.7795275590551181
        },
        {
          "duration": 0.19301450000000386,
          "durationTicks": 21,
          "midi": 65,
          "name": "F4",
          "ticks": 12648,
          "time": 116.24987599999999,
          "velocity": 0.7795275590551181
        },
        {
          "duration": 0.09191166666667527,
          "durationTicks": 10,
          "midi": 68,
          "name": "G#4",
          "ticks": 12672,
          "time": 116.47046399999999,
          "velocity": 0.7795275590551181
        },
        {
          "duration": 0.09191166666668948,
          "durationTicks": 10,
          "midi": 70,
          "name": "A#4",
          "ticks": 12684,
          "time": 116.58075799999999,
          "velocity": 0.7795275590551181
        },
        {
          "duration": 0.09191166666668948,
          "durationTicks": 10,
          "midi": 68,
          "name": "G#4",
          "ticks": 12696,
          "time": 116.69105199999998,
          "velocity": 0.7795275590551181
        },
        {
          "duration": 0.09191166666667527,
          "durationTicks": 10,
          "midi": 73,
          "name": "C#5",
          "ticks": 12708,
          "time": 116.801346,
          "velocity": 0.7795275590551181
        },
        {
          "duration": 1.0661753333333337,
          "durationTicks": 116,
          "midi": 73,
          "name": "C#5",
          "ticks": 12720,
          "time": 116.91163999999999,
          "velocity": 0.7795275590551181
        },
        {
          "duration": 0.15624983333333375,
          "durationTicks": 17,
          "midi": 65,
          "name": "F4",
          "ticks": 12840,
          "time": 118.01458,
          "velocity": 0.7795275590551181
        },
        {
          "duration": 0.15624983333334796,
          "durationTicks": 17,
          "midi": 72,
          "name": "C5",
          "ticks": 12864,
          "time": 118.23516799999999,
          "velocity": 0.7795275590551181
        },
        {
          "duration": 0.15624983333333375,
          "durationTicks": 17,
          "midi": 73,
          "name": "C#5",
          "ticks": 12888,
          "time": 118.455756,
          "velocity": 0.7795275590551181
        },
        {
          "duration": 0.854778500000009,
          "durationTicks": 93,
          "midi": 75,
          "name": "D#5",
          "ticks": 12912,
          "time": 118.67634399999999,
          "velocity": 0.7795275590551181
        },
        {
          "duration": 0.4136025000000103,
          "durationTicks": 45,
          "midi": 72,
          "name": "C5",
          "ticks": 13008,
          "time": 119.55869599999998,
          "velocity": 0.7795275590551181
        },
        {
          "duration": 0.4136025000000103,
          "durationTicks": 45,
          "midi": 73,
          "name": "C#5",
          "ticks": 13056,
          "time": 119.99987199999998,
          "velocity": 0.7795275590551181
        },
        {
          "duration": 0.40441133333332857,
          "durationTicks": 44,
          "midi": 68,
          "name": "G#4",
          "ticks": 13104,
          "time": 120.441048,
          "velocity": 0.7795275590551181
        },
        {
          "duration": 0.4044113333333428,
          "durationTicks": 44,
          "midi": 75,
          "name": "D#5",
          "ticks": 13152,
          "time": 120.882224,
          "velocity": 0.7795275590551181
        },
        {
          "duration": 0.4044113333333428,
          "durationTicks": 44,
          "midi": 80,
          "name": "G#5",
          "ticks": 13200,
          "time": 121.32339999999999,
          "velocity": 0.7795275590551181
        },
        {
          "duration": 0.4044113333333428,
          "durationTicks": 44,
          "midi": 78,
          "name": "F#5",
          "ticks": 13248,
          "time": 121.76457599999999,
          "velocity": 0.7795275590551181
        },
        {
          "duration": 0.4044113333333428,
          "durationTicks": 44,
          "midi": 80,
          "name": "G#5",
          "ticks": 13296,
          "time": 122.20575199999999,
          "velocity": 0.7795275590551181
        },
        {
          "duration": 0.39522016666668947,
          "durationTicks": 43,
          "midi": 77,
          "name": "F5",
          "ticks": 13344,
          "time": 122.64692799999999,
          "velocity": 0.7795275590551181
        },
        {
          "duration": 0.39522016666668947,
          "durationTicks": 43,
          "midi": 75,
          "name": "D#5",
          "ticks": 13392,
          "time": 123.08810399999999,
          "velocity": 0.7795275590551181
        },
        {
          "duration": 0.3124996666666817,
          "durationTicks": 34,
          "midi": 73,
          "name": "C#5",
          "ticks": 13440,
          "time": 123.52927999999999,
          "velocity": 0.7795275590551181
        },
        {
          "duration": 0.43198483333334536,
          "durationTicks": 47,
          "midi": 63,
          "name": "D#4",
          "ticks": 13488,
          "time": 123.97045599999998,
          "velocity": 0.7795275590551181
        },
        {
          "duration": 0.6433816666666843,
          "durationTicks": 70,
          "midi": 65,
          "name": "F4",
          "ticks": 13560,
          "time": 124.63221999999999,
          "velocity": 0.7795275590551181
        },
        {
          "duration": 0.4411759999999987,
          "durationTicks": 48,
          "midi": 70,
          "name": "A#4",
          "ticks": 13656,
          "time": 125.51457199999999,
          "velocity": 0.7795275590551181
        },
        {
          "duration": 0.1011028333333428,
          "durationTicks": 11,
          "midi": 68,
          "name": "G#4",
          "ticks": 13704,
          "time": 125.95574799999999,
          "velocity": 0.7795275590551181
        },
        {
          "duration": 0.1011028333333428,
          "durationTicks": 11,
          "midi": 70,
          "name": "A#4",
          "ticks": 13728,
          "time": 126.17633599999999,
          "velocity": 0.7795275590551181
        },
        {
          "duration": 0.1011028333333428,
          "durationTicks": 11,
          "midi": 73,
          "name": "C#5",
          "ticks": 13740,
          "time": 126.28662999999999,
          "velocity": 0.7795275590551181
        },
        {
          "duration": 0.3676466666666869,
          "durationTicks": 40,
          "midi": 73,
          "name": "C#5",
          "ticks": 13752,
          "time": 126.39692399999998,
          "velocity": 0.7795275590551181
        },
        {
          "duration": 0.1011028333333428,
          "durationTicks": 11,
          "midi": 70,
          "name": "A#4",
          "ticks": 13800,
          "time": 126.83809999999998,
          "velocity": 0.7795275590551181
        },
        {
          "duration": 0.1011028333333428,
          "durationTicks": 11,
          "midi": 72,
          "name": "C5",
          "ticks": 13812,
          "time": 126.948394,
          "velocity": 0.7795275590551181
        },
        {
          "duration": 0.19301450000000386,
          "durationTicks": 21,
          "midi": 73,
          "name": "C#5",
          "ticks": 13824,
          "time": 127.05868799999999,
          "velocity": 0.7795275590551181
        },
        {
          "duration": 0.10110283333332859,
          "durationTicks": 11,
          "midi": 75,
          "name": "D#5",
          "ticks": 13848,
          "time": 127.279276,
          "velocity": 0.7795275590551181
        },
        {
          "duration": 1.0569841666666804,
          "durationTicks": 115,
          "midi": 77,
          "name": "F5",
          "ticks": 13872,
          "time": 127.49986399999999,
          "velocity": 0.7795275590551181
        },
        {
          "duration": 0.07352933333334022,
          "durationTicks": 8,
          "midi": 70,
          "name": "A#4",
          "ticks": 13992,
          "time": 128.602804,
          "velocity": 0.7795275590551181
        },
        {
          "duration": 0.07352933333334022,
          "durationTicks": 8,
          "midi": 72,
          "name": "C5",
          "ticks": 14000,
          "time": 128.67633333333333,
          "velocity": 0.7795275590551181
        },
        {
          "duration": 0.0735293333333118,
          "durationTicks": 8,
          "midi": 73,
          "name": "C#5",
          "ticks": 14008,
          "time": 128.74986266666667,
          "velocity": 0.7795275590551181
        },
        {
          "duration": 0.07352933333334022,
          "durationTicks": 8,
          "midi": 75,
          "name": "D#5",
          "ticks": 14016,
          "time": 128.82339199999998,
          "velocity": 0.7795275590551181
        },
        {
          "duration": 0.07352933333336864,
          "durationTicks": 8,
          "midi": 77,
          "name": "F5",
          "ticks": 14024,
          "time": 128.89692133333332,
          "velocity": 0.7795275590551181
        },
        {
          "duration": 0.0735293333333118,
          "durationTicks": 8,
          "midi": 78,
          "name": "F#5",
          "ticks": 14032,
          "time": 128.9704506666667,
          "velocity": 0.7795275590551181
        },
        {
          "duration": 0.4044113333333428,
          "durationTicks": 44,
          "midi": 80,
          "name": "G#5",
          "ticks": 14040,
          "time": 129.04398,
          "velocity": 0.7795275590551181
        },
        {
          "duration": 0.4044113333333428,
          "durationTicks": 44,
          "midi": 78,
          "name": "F#5",
          "ticks": 14088,
          "time": 129.485156,
          "velocity": 0.7795275590551181
        },
        {
          "duration": 0.4044113333333428,
          "durationTicks": 44,
          "midi": 77,
          "name": "F5",
          "ticks": 14136,
          "time": 129.926332,
          "velocity": 0.7795275590551181
        },
        {
          "duration": 0.6341904999999883,
          "durationTicks": 69,
          "midi": 75,
          "name": "D#5",
          "ticks": 14184,
          "time": 130.36750800000002,
          "velocity": 0.7795275590551181
        },
        {
          "duration": 0.19301450000000386,
          "durationTicks": 21,
          "midi": 77,
          "name": "F5",
          "ticks": 16560,
          "time": 152.20572,
          "velocity": 0.8740157480314961
        },
        {
          "duration": 0.19301450000000386,
          "durationTicks": 21,
          "midi": 65,
          "name": "F4",
          "ticks": 16560,
          "time": 152.20572,
          "velocity": 0.8740157480314961
        },
        {
          "duration": 0.4227936666666494,
          "durationTicks": 46,
          "midi": 56,
          "name": "G#3",
          "ticks": 16561,
          "time": 152.2149111666667,
          "velocity": 0.8740157480314961
        },
        {
          "duration": 0.19301450000000386,
          "durationTicks": 21,
          "midi": 73,
          "name": "C#5",
          "ticks": 16584,
          "time": 152.426308,
          "velocity": 0.7795275590551181
        },
        {
          "duration": 0.19301450000000386,
          "durationTicks": 21,
          "midi": 61,
          "name": "C#4",
          "ticks": 16585,
          "time": 152.4354991666667,
          "velocity": 0.7795275590551181
        },
        {
          "duration": 0.1654410000000155,
          "durationTicks": 18,
          "midi": 77,
          "name": "F5",
          "ticks": 16608,
          "time": 152.646896,
          "velocity": 0.7795275590551181
        },
        {
          "duration": 0.1654410000000155,
          "durationTicks": 18,
          "midi": 65,
          "name": "F4",
          "ticks": 16608,
          "time": 152.646896,
          "velocity": 0.7795275590551181
        },
        {
          "duration": 0.2113968333333105,
          "durationTicks": 23,
          "midi": 61,
          "name": "C#4",
          "ticks": 16609,
          "time": 152.65608716666668,
          "velocity": 0.8740157480314961
        },
        {
          "duration": 0.0919116666667037,
          "durationTicks": 10,
          "midi": 73,
          "name": "C#5",
          "ticks": 16632,
          "time": 152.867484,
          "velocity": 0.7795275590551181
        },
        {
          "duration": 0.08272049999999354,
          "durationTicks": 9,
          "midi": 61,
          "name": "C#4",
          "ticks": 16633,
          "time": 152.8766751666667,
          "velocity": 0.7795275590551181
        },
        {
          "duration": 0.09191166666667527,
          "durationTicks": 10,
          "midi": 75,
          "name": "D#5",
          "ticks": 16644,
          "time": 152.977778,
          "velocity": 0.7795275590551181
        },
        {
          "duration": 0.08272049999999354,
          "durationTicks": 9,
          "midi": 63,
          "name": "D#4",
          "ticks": 16645,
          "time": 152.98696916666668,
          "velocity": 0.7795275590551181
        },
        {
          "duration": 0.19301450000000386,
          "durationTicks": 21,
          "midi": 77,
          "name": "F5",
          "ticks": 16776,
          "time": 154.191012,
          "velocity": 0.7795275590551181
        },
        {
          "duration": 0.19301450000000386,
          "durationTicks": 21,
          "midi": 65,
          "name": "F4",
          "ticks": 16777,
          "time": 154.20020316666668,
          "velocity": 0.7795275590551181
        },
        {
          "duration": 0.17463216666669723,
          "durationTicks": 19,
          "midi": 84,
          "name": "C6",
          "ticks": 16800,
          "time": 154.4116,
          "velocity": 0.8740157480314961
        },
        {
          "duration": 0.1746321666666688,
          "durationTicks": 19,
          "midi": 72,
          "name": "C5",
          "ticks": 16801,
          "time": 154.42079116666667,
          "velocity": 0.8740157480314961
        },
        {
          "duration": 0.21139683333333892,
          "durationTicks": 23,
          "midi": 85,
          "name": "C#6",
          "ticks": 16824,
          "time": 154.632188,
          "velocity": 0.8740157480314961
        },
        {
          "duration": 0.2113968333333105,
          "durationTicks": 23,
          "midi": 73,
          "name": "C#5",
          "ticks": 16825,
          "time": 154.6413791666667,
          "velocity": 0.8740157480314961
        },
        {
          "duration": 0.19301450000000386,
          "durationTicks": 21,
          "midi": 84,
          "name": "C6",
          "ticks": 16872,
          "time": 155.073364,
          "velocity": 0.8740157480314961
        },
        {
          "duration": 0.19301450000000386,
          "durationTicks": 21,
          "midi": 72,
          "name": "C5",
          "ticks": 16873,
          "time": 155.08255516666668,
          "velocity": 0.8740157480314961
        },
        {
          "duration": 0.4319848333333596,
          "durationTicks": 47,
          "midi": 80,
          "name": "G#5",
          "ticks": 16896,
          "time": 155.293952,
          "velocity": 0.8740157480314961
        },
        {
          "duration": 0.4227936666666494,
          "durationTicks": 46,
          "midi": 68,
          "name": "G#4",
          "ticks": 16897,
          "time": 155.3031431666667,
          "velocity": 0.8740157480314961
        },
        {
          "duration": 0.19301450000000386,
          "durationTicks": 21,
          "midi": 75,
          "name": "D#5",
          "ticks": 16968,
          "time": 155.955716,
          "velocity": 0.8740157480314961
        },
        {
          "duration": 0.19301450000000386,
          "durationTicks": 21,
          "midi": 63,
          "name": "D#4",
          "ticks": 16969,
          "time": 155.96490716666668,
          "velocity": 0.8740157480314961
        },
        {
          "duration": 0.18382333333332213,
          "durationTicks": 20,
          "midi": 77,
          "name": "F5",
          "ticks": 16992,
          "time": 156.17630400000002,
          "velocity": 0.8740157480314961
        },
        {
          "duration": 0.1838233333332937,
          "durationTicks": 20,
          "midi": 65,
          "name": "F4",
          "ticks": 16993,
          "time": 156.1854951666667,
          "velocity": 0.8740157480314961
        },
        {
          "duration": 0.22977916666667397,
          "durationTicks": 25,
          "midi": 80,
          "name": "G#5",
          "ticks": 17016,
          "time": 156.396892,
          "velocity": 0.8740157480314961
        },
        {
          "duration": 0.22058799999999223,
          "durationTicks": 24,
          "midi": 68,
          "name": "G#4",
          "ticks": 17017,
          "time": 156.4060831666667,
          "velocity": 0.8740157480314961
        },
        {
          "duration": 0.19301450000000386,
          "durationTicks": 21,
          "midi": 80,
          "name": "G#5",
          "ticks": 17064,
          "time": 156.838068,
          "velocity": 0.8740157480314961
        },
        {
          "duration": 0.19301450000000386,
          "durationTicks": 21,
          "midi": 68,
          "name": "G#4",
          "ticks": 17065,
          "time": 156.84725916666667,
          "velocity": 0.8740157480314961
        },
        {
          "duration": 0.19301450000000386,
          "durationTicks": 21,
          "midi": 77,
          "name": "F5",
          "ticks": 17088,
          "time": 157.058656,
          "velocity": 0.8740157480314961
        },
        {
          "duration": 0.19301450000000386,
          "durationTicks": 21,
          "midi": 65,
          "name": "F4",
          "ticks": 17089,
          "time": 157.0678471666667,
          "velocity": 0.8740157480314961
        },
        {
          "duration": 0.19301450000000386,
          "durationTicks": 21,
          "midi": 75,
          "name": "D#5",
          "ticks": 17112,
          "time": 157.279244,
          "velocity": 0.8740157480314961
        },
        {
          "duration": 0.19301450000000386,
          "durationTicks": 21,
          "midi": 63,
          "name": "D#4",
          "ticks": 17113,
          "time": 157.2884351666667,
          "velocity": 0.8740157480314961
        },
        {
          "duration": 0.18382333333335055,
          "durationTicks": 20,
          "midi": 77,
          "name": "F5",
          "ticks": 17160,
          "time": 157.72042,
          "velocity": 0.8740157480314961
        },
        {
          "duration": 0.1838233333332937,
          "durationTicks": 20,
          "midi": 65,
          "name": "F4",
          "ticks": 17161,
          "time": 157.7296111666667,
          "velocity": 0.8740157480314961
        },
        {
          "duration": 0.19301450000000386,
          "durationTicks": 21,
          "midi": 82,
          "name": "A#5",
          "ticks": 17208,
          "time": 158.161596,
          "velocity": 0.8740157480314961
        },
        {
          "duration": 0.19301450000000386,
          "durationTicks": 21,
          "midi": 70,
          "name": "A#4",
          "ticks": 17209,
          "time": 158.17078716666668,
          "velocity": 0.8740157480314961
        },
        {
          "duration": 0.6158081666666817,
          "durationTicks": 67,
          "midi": 82,
          "name": "A#5",
          "ticks": 17256,
          "time": 158.60277200000002,
          "velocity": 0.8740157480314961
        },
        {
          "duration": 0.606617,
          "durationTicks": 66,
          "midi": 70,
          "name": "A#4",
          "ticks": 17257,
          "time": 158.6119631666667,
          "velocity": 0.8740157480314961
        },
        {
          "duration": 0.10110283333332859,
          "durationTicks": 11,
          "midi": 80,
          "name": "G#5",
          "ticks": 17448,
          "time": 160.367476,
          "velocity": 0.8740157480314961
        },
        {
          "duration": 0.09191166666664685,
          "durationTicks": 10,
          "midi": 68,
          "name": "G#4",
          "ticks": 17449,
          "time": 160.3766671666667,
          "velocity": 0.8740157480314961
        },
        {
          "duration": 0.08272049999999354,
          "durationTicks": 9,
          "midi": 82,
          "name": "A#5",
          "ticks": 17472,
          "time": 160.588064,
          "velocity": 0.8740157480314961
        },
        {
          "duration": 0.0735293333333118,
          "durationTicks": 8,
          "midi": 70,
          "name": "A#4",
          "ticks": 17473,
          "time": 160.59725516666668,
          "velocity": 0.8740157480314961
        },
        {
          "duration": 0.19301450000000386,
          "durationTicks": 21,
          "midi": 85,
          "name": "C#6",
          "ticks": 17496,
          "time": 160.808652,
          "velocity": 0.8740157480314961
        },
        {
          "duration": 0.19301450000000386,
          "durationTicks": 21,
          "midi": 73,
          "name": "C#5",
          "ticks": 17497,
          "time": 160.81784316666668,
          "velocity": 0.8740157480314961
        },
        {
          "duration": 0.22058799999999223,
          "durationTicks": 24,
          "midi": 84,
          "name": "C6",
          "ticks": 17544,
          "time": 161.249828,
          "velocity": 0.8740157480314961
        },
        {
          "duration": 0.2113968333333105,
          "durationTicks": 23,
          "midi": 72,
          "name": "C5",
          "ticks": 17545,
          "time": 161.2590191666667,
          "velocity": 0.8740157480314961
        },
        {
          "duration": 0.19301450000000386,
          "durationTicks": 21,
          "midi": 80,
          "name": "G#5",
          "ticks": 17592,
          "time": 161.691004,
          "velocity": 0.8740157480314961
        },
        {
          "duration": 0.19301450000000386,
          "durationTicks": 21,
          "midi": 68,
          "name": "G#4",
          "ticks": 17593,
          "time": 161.70019516666667,
          "velocity": 0.8740157480314961
        },
        {
          "duration": 0.1746321666666688,
          "durationTicks": 19,
          "midi": 73,
          "name": "C#5",
          "ticks": 17616,
          "time": 161.911592,
          "velocity": 0.8740157480314961
        },
        {
          "duration": 0.1746321666666404,
          "durationTicks": 19,
          "midi": 85,
          "name": "C#6",
          "ticks": 17617,
          "time": 161.9207831666667,
          "velocity": 0.8740157480314961
        },
        {
          "duration": 0.6158081666666817,
          "durationTicks": 67,
          "midi": 87,
          "name": "D#6",
          "ticks": 17640,
          "time": 162.13218,
          "velocity": 0.8740157480314961
        },
        {
          "duration": 0.606617,
          "durationTicks": 66,
          "midi": 75,
          "name": "D#5",
          "ticks": 17641,
          "time": 162.1413711666667,
          "velocity": 0.8740157480314961
        },
        {
          "duration": 0.4136024999999961,
          "durationTicks": 45,
          "midi": 80,
          "name": "G#5",
          "ticks": 17712,
          "time": 162.793944,
          "velocity": 0.8188976377952756
        },
        {
          "duration": 0.4136024999999961,
          "durationTicks": 45,
          "midi": 68,
          "name": "G#4",
          "ticks": 17713,
          "time": 162.8031351666667,
          "velocity": 0.8188976377952756
        },
        {
          "duration": 0.4044113333333428,
          "durationTicks": 44,
          "midi": 84,
          "name": "C6",
          "ticks": 17760,
          "time": 163.23512,
          "velocity": 0.8188976377952756
        },
        {
          "duration": 0.39522016666666104,
          "durationTicks": 43,
          "midi": 72,
          "name": "C5",
          "ticks": 17761,
          "time": 163.24431116666668,
          "velocity": 0.8188976377952756
        },
        {
          "duration": 0.4136024999999961,
          "durationTicks": 45,
          "midi": 85,
          "name": "C#6",
          "ticks": 17808,
          "time": 163.676296,
          "velocity": 0.8188976377952756
        },
        {
          "duration": 0.40441133333331436,
          "durationTicks": 44,
          "midi": 73,
          "name": "C#5",
          "ticks": 17809,
          "time": 163.6854871666667,
          "velocity": 0.8188976377952756
        },
        {
          "duration": 0.4136025000000245,
          "durationTicks": 45,
          "midi": 87,
          "name": "D#6",
          "ticks": 17856,
          "time": 164.117472,
          "velocity": 0.8188976377952756
        },
        {
          "duration": 0.4044113333333428,
          "durationTicks": 44,
          "midi": 75,
          "name": "D#5",
          "ticks": 17857,
          "time": 164.12666316666667,
          "velocity": 0.8188976377952756
        },
        {
          "duration": 0.4136024999999961,
          "durationTicks": 45,
          "midi": 92,
          "name": "G#6",
          "ticks": 17904,
          "time": 164.558648,
          "velocity": 0.8188976377952756
        },
        {
          "duration": 0.4136024999999961,
          "durationTicks": 45,
          "midi": 80,
          "name": "G#5",
          "ticks": 17905,
          "time": 164.5678391666667,
          "velocity": 0.8188976377952756
        },
        {
          "duration": 0.40441133333331436,
          "durationTicks": 44,
          "midi": 90,
          "name": "F#6",
          "ticks": 17952,
          "time": 164.99982400000002,
          "velocity": 0.8188976377952756
        },
        {
          "duration": 0.3952201666666326,
          "durationTicks": 43,
          "midi": 78,
          "name": "F#5",
          "ticks": 17953,
          "time": 165.0090151666667,
          "velocity": 0.8188976377952756
        },
        {
          "duration": 0.22058799999999223,
          "durationTicks": 24,
          "midi": 87,
          "name": "D#6",
          "ticks": 18000,
          "time": 165.441,
          "velocity": 0.8188976377952756
        },
        {
          "duration": 0.2113968333333105,
          "durationTicks": 23,
          "midi": 75,
          "name": "D#5",
          "ticks": 18001,
          "time": 165.45019116666668,
          "velocity": 0.8188976377952756
        },
        {
          "duration": 0.2022056666666856,
          "durationTicks": 22,
          "midi": 89,
          "name": "F6",
          "ticks": 18024,
          "time": 165.661588,
          "velocity": 0.8188976377952756
        },
        {
          "duration": 0.19301450000000386,
          "durationTicks": 21,
          "midi": 77,
          "name": "F5",
          "ticks": 18025,
          "time": 165.67077916666668,
          "velocity": 0.8188976377952756
        },
        {
          "duration": 0.22058799999999223,
          "durationTicks": 24,
          "midi": 84,
          "name": "C6",
          "ticks": 18048,
          "time": 165.88217600000002,
          "velocity": 0.8188976377952756
        },
        {
          "duration": 0.2113968333333105,
          "durationTicks": 23,
          "midi": 72,
          "name": "C5",
          "ticks": 18049,
          "time": 165.8913671666667,
          "velocity": 0.8188976377952756
        },
        {
          "duration": 0.22058799999999223,
          "durationTicks": 24,
          "midi": 87,
          "name": "D#6",
          "ticks": 18072,
          "time": 166.102764,
          "velocity": 0.8188976377952756
        },
        {
          "duration": 0.2113968333333105,
          "durationTicks": 23,
          "midi": 75,
          "name": "D#5",
          "ticks": 18073,
          "time": 166.1119551666667,
          "velocity": 0.8188976377952756
        },
        {
          "duration": 0.19301450000000386,
          "durationTicks": 21,
          "midi": 77,
          "name": "F5",
          "ticks": 18096,
          "time": 166.323352,
          "velocity": 0.8740157480314961
        },
        {
          "duration": 0.19301450000000386,
          "durationTicks": 21,
          "midi": 65,
          "name": "F4",
          "ticks": 18096,
          "time": 166.323352,
          "velocity": 0.8740157480314961
        },
        {
          "duration": 0.42279366666667784,
          "durationTicks": 46,
          "midi": 56,
          "name": "G#3",
          "ticks": 18097,
          "time": 166.33254316666668,
          "velocity": 0.8740157480314961
        },
        {
          "duration": 0.19301450000000386,
          "durationTicks": 21,
          "midi": 73,
          "name": "C#5",
          "ticks": 18120,
          "time": 166.54394,
          "velocity": 0.7795275590551181
        },
        {
          "duration": 0.19301450000000386,
          "durationTicks": 21,
          "midi": 61,
          "name": "C#4",
          "ticks": 18121,
          "time": 166.55313116666667,
          "velocity": 0.7795275590551181
        },
        {
          "duration": 0.16544099999998707,
          "durationTicks": 18,
          "midi": 77,
          "name": "F5",
          "ticks": 18144,
          "time": 166.764528,
          "velocity": 0.7795275590551181
        },
        {
          "duration": 0.16544099999998707,
          "durationTicks": 18,
          "midi": 65,
          "name": "F4",
          "ticks": 18144,
          "time": 166.764528,
          "velocity": 0.7795275590551181
        },
        {
          "duration": 0.2113968333333105,
          "durationTicks": 23,
          "midi": 61,
          "name": "C#4",
          "ticks": 18145,
          "time": 166.7737191666667,
          "velocity": 0.8740157480314961
        },
        {
          "duration": 0.09191166666667527,
          "durationTicks": 10,
          "midi": 73,
          "name": "C#5",
          "ticks": 18168,
          "time": 166.985116,
          "velocity": 0.7795275590551181
        },
        {
          "duration": 0.08272049999999354,
          "durationTicks": 9,
          "midi": 61,
          "name": "C#4",
          "ticks": 18169,
          "time": 166.9943071666667,
          "velocity": 0.7795275590551181
        },
        {
          "duration": 0.09191166666667527,
          "durationTicks": 10,
          "midi": 75,
          "name": "D#5",
          "ticks": 18180,
          "time": 167.09541000000002,
          "velocity": 0.7795275590551181
        },
        {
          "duration": 0.08272049999999354,
          "durationTicks": 9,
          "midi": 63,
          "name": "D#4",
          "ticks": 18181,
          "time": 167.1046011666667,
          "velocity": 0.7795275590551181
        },
        {
          "duration": 0.19301449999997544,
          "durationTicks": 21,
          "midi": 77,
          "name": "F5",
          "ticks": 18312,
          "time": 168.30864400000002,
          "velocity": 0.7795275590551181
        },
        {
          "duration": 0.19301450000000386,
          "durationTicks": 21,
          "midi": 65,
          "name": "F4",
          "ticks": 18313,
          "time": 168.3178351666667,
          "velocity": 0.7795275590551181
        },
        {
          "duration": 0.1746321666666688,
          "durationTicks": 19,
          "midi": 80,
          "name": "G#5",
          "ticks": 18336,
          "time": 168.529232,
          "velocity": 0.8740157480314961
        },
        {
          "duration": 0.1746321666666688,
          "durationTicks": 19,
          "midi": 68,
          "name": "G#4",
          "ticks": 18337,
          "time": 168.5384231666667,
          "velocity": 0.8740157480314961
        },
        {
          "duration": 0.21139683333333892,
          "durationTicks": 23,
          "midi": 85,
          "name": "C#6",
          "ticks": 18360,
          "time": 168.74982,
          "velocity": 0.8740157480314961
        },
        {
          "duration": 0.2113968333333105,
          "durationTicks": 23,
          "midi": 73,
          "name": "C#5",
          "ticks": 18361,
          "time": 168.75901116666668,
          "velocity": 0.8740157480314961
        },
        {
          "duration": 0.19301450000000386,
          "durationTicks": 21,
          "midi": 84,
          "name": "C6",
          "ticks": 18408,
          "time": 169.190996,
          "velocity": 0.8740157480314961
        },
        {
          "duration": 0.19301450000000386,
          "durationTicks": 21,
          "midi": 72,
          "name": "C5",
          "ticks": 18409,
          "time": 169.2001871666667,
          "velocity": 0.8740157480314961
        },
        {
          "duration": 0.4411760000000129,
          "durationTicks": 48,
          "midi": 80,
          "name": "G#5",
          "ticks": 18432,
          "time": 169.411584,
          "velocity": 0.8740157480314961
        },
        {
          "duration": 0.43198483333333115,
          "durationTicks": 47,
          "midi": 68,
          "name": "G#4",
          "ticks": 18433,
          "time": 169.4207751666667,
          "velocity": 0.8740157480314961
        },
        {
          "duration": 0.19301450000000386,
          "durationTicks": 21,
          "midi": 75,
          "name": "D#5",
          "ticks": 18504,
          "time": 170.073348,
          "velocity": 0.8740157480314961
        },
        {
          "duration": 0.19301450000000386,
          "durationTicks": 21,
          "midi": 63,
          "name": "D#4",
          "ticks": 18505,
          "time": 170.0825391666667,
          "velocity": 0.8740157480314961
        },
        {
          "duration": 0.19301450000000386,
          "durationTicks": 21,
          "midi": 77,
          "name": "F5",
          "ticks": 18528,
          "time": 170.293936,
          "velocity": 0.8740157480314961
        },
        {
          "duration": 0.19301450000000386,
          "durationTicks": 21,
          "midi": 65,
          "name": "F4",
          "ticks": 18529,
          "time": 170.30312716666668,
          "velocity": 0.8740157480314961
        },
        {
          "duration": 0.2389703333333557,
          "durationTicks": 26,
          "midi": 80,
          "name": "G#5",
          "ticks": 18552,
          "time": 170.514524,
          "velocity": 0.8740157480314961
        },
        {
          "duration": 0.2389703333333273,
          "durationTicks": 26,
          "midi": 68,
          "name": "G#4",
          "ticks": 18553,
          "time": 170.52371516666668,
          "velocity": 0.8740157480314961
        },
        {
          "duration": 0.19301450000000386,
          "durationTicks": 21,
          "midi": 80,
          "name": "G#5",
          "ticks": 18600,
          "time": 170.9557,
          "velocity": 0.8740157480314961
        },
        {
          "duration": 0.19301450000000386,
          "durationTicks": 21,
          "midi": 68,
          "name": "G#4",
          "ticks": 18601,
          "time": 170.9648911666667,
          "velocity": 0.8740157480314961
        },
        {
          "duration": 0.19301450000000386,
          "durationTicks": 21,
          "midi": 77,
          "name": "F5",
          "ticks": 18624,
          "time": 171.176288,
          "velocity": 0.8740157480314961
        },
        {
          "duration": 0.19301450000000386,
          "durationTicks": 21,
          "midi": 65,
          "name": "F4",
          "ticks": 18625,
          "time": 171.18547916666668,
          "velocity": 0.8740157480314961
        },
        {
          "duration": 0.19301450000000386,
          "durationTicks": 21,
          "midi": 75,
          "name": "D#5",
          "ticks": 18648,
          "time": 171.396876,
          "velocity": 0.8740157480314961
        },
        {
          "duration": 0.19301449999997544,
          "durationTicks": 21,
          "midi": 63,
          "name": "D#4",
          "ticks": 18649,
          "time": 171.4060671666667,
          "velocity": 0.8740157480314961
        },
        {
          "duration": 0.22058799999999223,
          "durationTicks": 24,
          "midi": 77,
          "name": "F5",
          "ticks": 18696,
          "time": 171.838052,
          "velocity": 0.8740157480314961
        },
        {
          "duration": 0.22058799999999223,
          "durationTicks": 24,
          "midi": 65,
          "name": "F4",
          "ticks": 18697,
          "time": 171.8472431666667,
          "velocity": 0.8740157480314961
        },
        {
          "duration": 0.19301449999997544,
          "durationTicks": 21,
          "midi": 82,
          "name": "A#5",
          "ticks": 18744,
          "time": 172.27922800000002,
          "velocity": 0.8740157480314961
        },
        {
          "duration": 0.19301449999997544,
          "durationTicks": 21,
          "midi": 70,
          "name": "A#4",
          "ticks": 18745,
          "time": 172.2884191666667,
          "velocity": 0.8740157480314961
        },
        {
          "duration": 0.6525728333333518,
          "durationTicks": 71,
          "midi": 82,
          "name": "A#5",
          "ticks": 18792,
          "time": 172.720404,
          "velocity": 0.8740157480314961
        },
        {
          "duration": 0.6433816666666701,
          "durationTicks": 70,
          "midi": 70,
          "name": "A#4",
          "ticks": 18793,
          "time": 172.72959516666668,
          "velocity": 0.8740157480314961
        },
        {
          "duration": 0.19301450000000386,
          "durationTicks": 21,
          "midi": 78,
          "name": "F#5",
          "ticks": 18960,
          "time": 174.26452,
          "velocity": 0.8740157480314961
        },
        {
          "duration": 0.19301450000000386,
          "durationTicks": 21,
          "midi": 66,
          "name": "F#4",
          "ticks": 18961,
          "time": 174.2737111666667,
          "velocity": 0.8740157480314961
        },
        {
          "duration": 0.10110283333335701,
          "durationTicks": 11,
          "midi": 75,
          "name": "D#5",
          "ticks": 18984,
          "time": 174.485108,
          "velocity": 0.8740157480314961
        },
        {
          "duration": 0.10110283333332859,
          "durationTicks": 11,
          "midi": 63,
          "name": "D#4",
          "ticks": 18985,
          "time": 174.49429916666668,
          "velocity": 0.8740157480314961
        },
        {
          "duration": 0.10110283333332859,
          "durationTicks": 11,
          "midi": 73,
          "name": "C#5",
          "ticks": 19008,
          "time": 174.70569600000002,
          "velocity": 0.7795275590551181
        },
        {
          "duration": 0.10110283333330017,
          "durationTicks": 11,
          "midi": 61,
          "name": "C#4",
          "ticks": 19009,
          "time": 174.7148871666667,
          "velocity": 0.7795275590551181
        },
        {
          "duration": 0.18382333333335055,
          "durationTicks": 20,
          "midi": 78,
          "name": "F#5",
          "ticks": 19032,
          "time": 174.926284,
          "velocity": 0.8740157480314961
        },
        {
          "duration": 0.18382333333332213,
          "durationTicks": 20,
          "midi": 66,
          "name": "F#4",
          "ticks": 19033,
          "time": 174.9354751666667,
          "velocity": 0.8740157480314961
        },
        {
          "duration": 0.1654410000000155,
          "durationTicks": 18,
          "midi": 77,
          "name": "F5",
          "ticks": 19056,
          "time": 175.146872,
          "velocity": 0.8740157480314961
        },
        {
          "duration": 0.1654410000000155,
          "durationTicks": 18,
          "midi": 65,
          "name": "F4",
          "ticks": 19057,
          "time": 175.15606316666668,
          "velocity": 0.8740157480314961
        },
        {
          "duration": 0.15624983333336218,
          "durationTicks": 17,
          "midi": 73,
          "name": "C#5",
          "ticks": 19080,
          "time": 175.36746,
          "velocity": 0.8740157480314961
        },
        {
          "duration": 0.15624983333333375,
          "durationTicks": 17,
          "midi": 61,
          "name": "C#4",
          "ticks": 19081,
          "time": 175.37665116666668,
          "velocity": 0.8740157480314961
        },
        {
          "duration": 0.10110283333332859,
          "durationTicks": 11,
          "midi": 69,
          "name": "A4",
          "ticks": 19104,
          "time": 175.58804800000001,
          "velocity": 0.7795275590551181
        },
        {
          "duration": 0.10110283333330017,
          "durationTicks": 11,
          "midi": 57,
          "name": "A3",
          "ticks": 19105,
          "time": 175.5972391666667,
          "velocity": 0.7795275590551181
        },
        {
          "duration": 0.16544099999998707,
          "durationTicks": 18,
          "midi": 75,
          "name": "D#5",
          "ticks": 19128,
          "time": 175.808636,
          "velocity": 0.8740157480314961
        },
        {
          "duration": 0.16544099999998707,
          "durationTicks": 18,
          "midi": 63,
          "name": "D#4",
          "ticks": 19129,
          "time": 175.8178271666667,
          "velocity": 0.8740157480314961
        },
        {
          "duration": 0.6525728333333518,
          "durationTicks": 71,
          "midi": 87,
          "name": "D#6",
          "ticks": 19176,
          "time": 176.249812,
          "velocity": 0.8740157480314961
        },
        {
          "duration": 0.6433816666666416,
          "durationTicks": 70,
          "midi": 75,
          "name": "D#5",
          "ticks": 19177,
          "time": 176.2590031666667,
          "velocity": 0.8740157480314961
        },
        {
          "duration": 0.8180138333333389,
          "durationTicks": 89,
          "midi": 87,
          "name": "D#6",
          "ticks": 19248,
          "time": 176.911576,
          "velocity": 0.8740157480314961
        },
        {
          "duration": 0.8088226666666571,
          "durationTicks": 88,
          "midi": 75,
          "name": "D#5",
          "ticks": 19249,
          "time": 176.92076716666668,
          "velocity": 0.8740157480314961
        },
        {
          "duration": 0.8180138333333389,
          "durationTicks": 89,
          "midi": 89,
          "name": "F6",
          "ticks": 19344,
          "time": 177.793928,
          "velocity": 0.8740157480314961
        },
        {
          "duration": 0.8088226666666571,
          "durationTicks": 88,
          "midi": 77,
          "name": "F5",
          "ticks": 19345,
          "time": 177.80311916666668,
          "velocity": 0.8740157480314961
        },
        {
          "duration": 0.18382333333335055,
          "durationTicks": 20,
          "midi": 92,
          "name": "G#6",
          "ticks": 19440,
          "time": 178.67628,
          "velocity": 0.8740157480314961
        },
        {
          "duration": 0.1838233333332937,
          "durationTicks": 20,
          "midi": 80,
          "name": "G#5",
          "ticks": 19441,
          "time": 178.6854711666667,
          "velocity": 0.8740157480314961
        },
        {
          "duration": 0.4136024999999961,
          "durationTicks": 45,
          "midi": 90,
          "name": "F#6",
          "ticks": 19464,
          "time": 178.896868,
          "velocity": 0.8740157480314961
        },
        {
          "duration": 0.40441133333331436,
          "durationTicks": 44,
          "midi": 78,
          "name": "F#5",
          "ticks": 19465,
          "time": 178.9060591666667,
          "velocity": 0.8740157480314961
        },
        {
          "duration": 0.4136024999999961,
          "durationTicks": 45,
          "midi": 89,
          "name": "F6",
          "ticks": 19512,
          "time": 179.338044,
          "velocity": 0.8740157480314961
        },
        {
          "duration": 0.40441133333331436,
          "durationTicks": 44,
          "midi": 77,
          "name": "F5",
          "ticks": 19513,
          "time": 179.34723516666668,
          "velocity": 0.8740157480314961
        },
        {
          "duration": 0.4044113333333428,
          "durationTicks": 44,
          "midi": 85,
          "name": "C#6",
          "ticks": 19560,
          "time": 179.77922,
          "velocity": 0.8740157480314961
        },
        {
          "duration": 0.39522016666666104,
          "durationTicks": 43,
          "midi": 73,
          "name": "C#5",
          "ticks": 19561,
          "time": 179.7884111666667,
          "velocity": 0.8740157480314961
        },
        {
          "duration": 0.18382333333335055,
          "durationTicks": 20,
          "midi": 80,
          "name": "G#5",
          "ticks": 19608,
          "time": 180.220396,
          "velocity": 0.8740157480314961
        },
        {
          "duration": 0.1746321666666688,
          "durationTicks": 19,
          "midi": 68,
          "name": "G#4",
          "ticks": 19609,
          "time": 180.22958716666668,
          "velocity": 0.8740157480314961
        },
        {
          "duration": 0.19301450000000386,
          "durationTicks": 21,
          "midi": 77,
          "name": "F5",
          "ticks": 19632,
          "time": 180.44098400000001,
          "velocity": 0.8740157480314961
        },
        {
          "duration": 0.19301450000000386,
          "durationTicks": 21,
          "midi": 65,
          "name": "F4",
          "ticks": 19632,
          "time": 180.44098400000001,
          "velocity": 0.8740157480314961
        },
        {
          "duration": 0.4227936666666494,
          "durationTicks": 46,
          "midi": 56,
          "name": "G#3",
          "ticks": 19633,
          "time": 180.4501751666667,
          "velocity": 0.8740157480314961
        },
        {
          "duration": 0.19301450000000386,
          "durationTicks": 21,
          "midi": 73,
          "name": "C#5",
          "ticks": 19656,
          "time": 180.661572,
          "velocity": 0.7795275590551181
        },
        {
          "duration": 0.19301450000000386,
          "durationTicks": 21,
          "midi": 61,
          "name": "C#4",
          "ticks": 19657,
          "time": 180.6707631666667,
          "velocity": 0.7795275590551181
        },
        {
          "duration": 0.1654410000000155,
          "durationTicks": 18,
          "midi": 77,
          "name": "F5",
          "ticks": 19680,
          "time": 180.88216,
          "velocity": 0.7795275590551181
        },
        {
          "duration": 0.1654410000000155,
          "durationTicks": 18,
          "midi": 65,
          "name": "F4",
          "ticks": 19680,
          "time": 180.88216,
          "velocity": 0.7795275590551181
        },
        {
          "duration": 0.2113968333333105,
          "durationTicks": 23,
          "midi": 61,
          "name": "C#4",
          "ticks": 19681,
          "time": 180.89135116666668,
          "velocity": 0.8740157480314961
        },
        {
          "duration": 0.0919116666667037,
          "durationTicks": 10,
          "midi": 73,
          "name": "C#5",
          "ticks": 19704,
          "time": 181.102748,
          "velocity": 0.7795275590551181
        },
        {
          "duration": 0.08272049999999354,
          "durationTicks": 9,
          "midi": 61,
          "name": "C#4",
          "ticks": 19705,
          "time": 181.1119391666667,
          "velocity": 0.7795275590551181
        },
        {
          "duration": 0.09191166666667527,
          "durationTicks": 10,
          "midi": 75,
          "name": "D#5",
          "ticks": 19716,
          "time": 181.213042,
          "velocity": 0.7795275590551181
        },
        {
          "duration": 0.08272049999999354,
          "durationTicks": 9,
          "midi": 63,
          "name": "D#4",
          "ticks": 19717,
          "time": 181.22223316666668,
          "velocity": 0.7795275590551181
        },
        {
          "duration": 0.19301450000000386,
          "durationTicks": 21,
          "midi": 77,
          "name": "F5",
          "ticks": 19848,
          "time": 182.426276,
          "velocity": 0.7795275590551181
        },
        {
          "duration": 0.19301450000000386,
          "durationTicks": 21,
          "midi": 65,
          "name": "F4",
          "ticks": 19849,
          "time": 182.43546716666668,
          "velocity": 0.7795275590551181
        },
        {
          "duration": 0.17463216666669723,
          "durationTicks": 19,
          "midi": 80,
          "name": "G#5",
          "ticks": 19872,
          "time": 182.646864,
          "velocity": 0.8740157480314961
        },
        {
          "duration": 0.1746321666666688,
          "durationTicks": 19,
          "midi": 68,
          "name": "G#4",
          "ticks": 19873,
          "time": 182.65605516666668,
          "velocity": 0.8740157480314961
        },
        {
          "duration": 0.21139683333333892,
          "durationTicks": 23,
          "midi": 85,
          "name": "C#6",
          "ticks": 19896,
          "time": 182.86745200000001,
          "velocity": 0.8740157480314961
        },
        {
          "duration": 0.2113968333333105,
          "durationTicks": 23,
          "midi": 73,
          "name": "C#5",
          "ticks": 19897,
          "time": 182.8766431666667,
          "velocity": 0.8740157480314961
        },
        {
          "duration": 0.19301450000000386,
          "durationTicks": 21,
          "midi": 84,
          "name": "C6",
          "ticks": 19944,
          "time": 183.308628,
          "velocity": 0.8740157480314961
        },
        {
          "duration": 0.19301450000000386,
          "durationTicks": 21,
          "midi": 72,
          "name": "C5",
          "ticks": 19945,
          "time": 183.31781916666668,
          "velocity": 0.8740157480314961
        },
        {
          "duration": 0.4411760000000129,
          "durationTicks": 48,
          "midi": 80,
          "name": "G#5",
          "ticks": 19968,
          "time": 183.529216,
          "velocity": 0.8740157480314961
        },
        {
          "duration": 0.43198483333330273,
          "durationTicks": 47,
          "midi": 68,
          "name": "G#4",
          "ticks": 19969,
          "time": 183.5384071666667,
          "velocity": 0.8740157480314961
        },
        {
          "duration": 0.19301450000000386,
          "durationTicks": 21,
          "midi": 75,
          "name": "D#5",
          "ticks": 20040,
          "time": 184.19098,
          "velocity": 0.8740157480314961
        },
        {
          "duration": 0.19301450000000386,
          "durationTicks": 21,
          "midi": 63,
          "name": "D#4",
          "ticks": 20041,
          "time": 184.20017116666668,
          "velocity": 0.8740157480314961
        },
        {
          "duration": 0.19301449999997544,
          "durationTicks": 21,
          "midi": 77,
          "name": "F5",
          "ticks": 20064,
          "time": 184.41156800000002,
          "velocity": 0.8740157480314961
        },
        {
          "duration": 0.19301450000000386,
          "durationTicks": 21,
          "midi": 65,
          "name": "F4",
          "ticks": 20065,
          "time": 184.4207591666667,
          "velocity": 0.8740157480314961
        },
        {
          "duration": 0.2389703333333273,
          "durationTicks": 26,
          "midi": 80,
          "name": "G#5",
          "ticks": 20088,
          "time": 184.632156,
          "velocity": 0.8740157480314961
        },
        {
          "duration": 0.2389703333333273,
          "durationTicks": 26,
          "midi": 68,
          "name": "G#4",
          "ticks": 20089,
          "time": 184.6413471666667,
          "velocity": 0.8740157480314961
        },
        {
          "duration": 0.19301450000000386,
          "durationTicks": 21,
          "midi": 80,
          "name": "G#5",
          "ticks": 20136,
          "time": 185.073332,
          "velocity": 0.8740157480314961
        },
        {
          "duration": 0.19301450000000386,
          "durationTicks": 21,
          "midi": 68,
          "name": "G#4",
          "ticks": 20137,
          "time": 185.08252316666668,
          "velocity": 0.8740157480314961
        },
        {
          "duration": 0.19301450000000386,
          "durationTicks": 21,
          "midi": 77,
          "name": "F5",
          "ticks": 20160,
          "time": 185.29392,
          "velocity": 0.8740157480314961
        },
        {
          "duration": 0.19301450000000386,
          "durationTicks": 21,
          "midi": 65,
          "name": "F4",
          "ticks": 20161,
          "time": 185.3031111666667,
          "velocity": 0.8740157480314961
        },
        {
          "duration": 0.19301450000000386,
          "durationTicks": 21,
          "midi": 75,
          "name": "D#5",
          "ticks": 20184,
          "time": 185.514508,
          "velocity": 0.8740157480314961
        },
        {
          "duration": 0.19301450000000386,
          "durationTicks": 21,
          "midi": 63,
          "name": "D#4",
          "ticks": 20185,
          "time": 185.5236991666667,
          "velocity": 0.8740157480314961
        },
        {
          "duration": 0.22058800000002066,
          "durationTicks": 24,
          "midi": 77,
          "name": "F5",
          "ticks": 20232,
          "time": 185.955684,
          "velocity": 0.8740157480314961
        },
        {
          "duration": 0.22058799999999223,
          "durationTicks": 24,
          "midi": 65,
          "name": "F4",
          "ticks": 20233,
          "time": 185.9648751666667,
          "velocity": 0.8740157480314961
        },
        {
          "duration": 0.19301450000000386,
          "durationTicks": 21,
          "midi": 82,
          "name": "A#5",
          "ticks": 20280,
          "time": 186.39686,
          "velocity": 0.8740157480314961
        },
        {
          "duration": 0.19301450000000386,
          "durationTicks": 21,
          "midi": 70,
          "name": "A#4",
          "ticks": 20281,
          "time": 186.40605116666669,
          "velocity": 0.8740157480314961
        },
        {
          "duration": 0.6158081666666817,
          "durationTicks": 67,
          "midi": 82,
          "name": "A#5",
          "ticks": 20328,
          "time": 186.83803600000002,
          "velocity": 0.8740157480314961
        },
        {
          "duration": 0.606617,
          "durationTicks": 66,
          "midi": 70,
          "name": "A#4",
          "ticks": 20329,
          "time": 186.8472271666667,
          "velocity": 0.8740157480314961
        },
        {
          "duration": 0.10110283333332859,
          "durationTicks": 11,
          "midi": 80,
          "name": "G#5",
          "ticks": 20520,
          "time": 188.60274,
          "velocity": 0.8740157480314961
        },
        {
          "duration": 0.09191166666664685,
          "durationTicks": 10,
          "midi": 68,
          "name": "G#4",
          "ticks": 20521,
          "time": 188.6119311666667,
          "velocity": 0.8740157480314961
        },
        {
          "duration": 0.08272049999999354,
          "durationTicks": 9,
          "midi": 82,
          "name": "A#5",
          "ticks": 20544,
          "time": 188.823328,
          "velocity": 0.8740157480314961
        },
        {
          "duration": 0.0735293333333118,
          "durationTicks": 8,
          "midi": 70,
          "name": "A#4",
          "ticks": 20545,
          "time": 188.83251916666669,
          "velocity": 0.8740157480314961
        },
        {
          "duration": 0.19301450000000386,
          "durationTicks": 21,
          "midi": 85,
          "name": "C#6",
          "ticks": 20568,
          "time": 189.043916,
          "velocity": 0.8740157480314961
        },
        {
          "duration": 0.19301450000000386,
          "durationTicks": 21,
          "midi": 73,
          "name": "C#5",
          "ticks": 20569,
          "time": 189.05310716666668,
          "velocity": 0.8740157480314961
        },
        {
          "duration": 0.22058799999999223,
          "durationTicks": 24,
          "midi": 84,
          "name": "C6",
          "ticks": 20616,
          "time": 189.485092,
          "velocity": 0.8740157480314961
        },
        {
          "duration": 0.2113968333333105,
          "durationTicks": 23,
          "midi": 72,
          "name": "C5",
          "ticks": 20617,
          "time": 189.4942831666667,
          "velocity": 0.8740157480314961
        },
        {
          "duration": 0.19301450000000386,
          "durationTicks": 21,
          "midi": 80,
          "name": "G#5",
          "ticks": 20664,
          "time": 189.926268,
          "velocity": 0.8740157480314961
        },
        {
          "duration": 0.19301450000000386,
          "durationTicks": 21,
          "midi": 68,
          "name": "G#4",
          "ticks": 20665,
          "time": 189.93545916666667,
          "velocity": 0.8740157480314961
        },
        {
          "duration": 0.18382333333332213,
          "durationTicks": 20,
          "midi": 85,
          "name": "C#6",
          "ticks": 20688,
          "time": 190.146856,
          "velocity": 0.8740157480314961
        },
        {
          "duration": 0.18382333333332213,
          "durationTicks": 20,
          "midi": 73,
          "name": "C#5",
          "ticks": 20689,
          "time": 190.1560471666667,
          "velocity": 0.8740157480314961
        },
        {
          "duration": 0.6158081666666817,
          "durationTicks": 67,
          "midi": 87,
          "name": "D#6",
          "ticks": 20712,
          "time": 190.367444,
          "velocity": 0.8740157480314961
        },
        {
          "duration": 0.606617,
          "durationTicks": 66,
          "midi": 75,
          "name": "D#5",
          "ticks": 20713,
          "time": 190.3766351666667,
          "velocity": 0.8740157480314961
        },
        {
          "duration": 0.19301449999997544,
          "durationTicks": 21,
          "midi": 87,
          "name": "D#6",
          "ticks": 20856,
          "time": 191.69097200000002,
          "velocity": 0.8740157480314961
        },
        {
          "duration": 0.19301450000000386,
          "durationTicks": 21,
          "midi": 75,
          "name": "D#5",
          "ticks": 20857,
          "time": 191.7001631666667,
          "velocity": 0.8740157480314961
        },
        {
          "duration": 0.19301450000000386,
          "durationTicks": 21,
          "midi": 84,
          "name": "C6",
          "ticks": 20904,
          "time": 192.132148,
          "velocity": 0.8740157480314961
        },
        {
          "duration": 0.18382333333332213,
          "durationTicks": 20,
          "midi": 72,
          "name": "C5",
          "ticks": 20905,
          "time": 192.14133916666668,
          "velocity": 0.8740157480314961
        },
        {
          "duration": 0.19301450000000386,
          "durationTicks": 21,
          "midi": 80,
          "name": "G#5",
          "ticks": 20928,
          "time": 192.352736,
          "velocity": 0.8740157480314961
        },
        {
          "duration": 0.18382333333332213,
          "durationTicks": 20,
          "midi": 68,
          "name": "G#4",
          "ticks": 20929,
          "time": 192.36192716666667,
          "velocity": 0.8740157480314961
        },
        {
          "duration": 0.19301450000000386,
          "durationTicks": 21,
          "midi": 85,
          "name": "C#6",
          "ticks": 20952,
          "time": 192.573324,
          "velocity": 0.8740157480314961
        },
        {
          "duration": 0.18382333333332213,
          "durationTicks": 20,
          "midi": 73,
          "name": "C#5",
          "ticks": 20953,
          "time": 192.5825151666667,
          "velocity": 0.8740157480314961
        },
        {
          "duration": 0.19301450000000386,
          "durationTicks": 21,
          "midi": 84,
          "name": "C6",
          "ticks": 21000,
          "time": 193.0145,
          "velocity": 0.8740157480314961
        },
        {
          "duration": 0.19301450000000386,
          "durationTicks": 21,
          "midi": 72,
          "name": "C5",
          "ticks": 21001,
          "time": 193.02369116666668,
          "velocity": 0.8740157480314961
        },
        {
          "duration": 0.19301450000000386,
          "durationTicks": 21,
          "midi": 80,
          "name": "G#5",
          "ticks": 21048,
          "time": 193.455676,
          "velocity": 0.8740157480314961
        },
        {
          "duration": 0.18382333333332213,
          "durationTicks": 20,
          "midi": 68,
          "name": "G#4",
          "ticks": 21049,
          "time": 193.4648671666667,
          "velocity": 0.8740157480314961
        },
        {
          "duration": 0.6433816666666985,
          "durationTicks": 70,
          "midi": 80,
          "name": "G#5",
          "ticks": 21096,
          "time": 193.896852,
          "velocity": 0.7795275590551181
        },
        {
          "duration": 0.6341905000000168,
          "durationTicks": 69,
          "midi": 68,
          "name": "G#4",
          "ticks": 21097,
          "time": 193.90604316666668,
          "velocity": 0.7795275590551181
        },
        {
          "duration": 0.10110283333332859,
          "durationTicks": 11,
          "midi": 80,
          "name": "G#5",
          "ticks": 21288,
          "time": 195.66155600000002,
          "velocity": 0.8740157480314961
        },
        {
          "duration": 0.09191166666664685,
          "durationTicks": 10,
          "midi": 68,
          "name": "G#4",
          "ticks": 21289,
          "time": 195.6707471666667,
          "velocity": 0.8740157480314961
        },
        {
          "duration": 0.08272049999999354,
          "durationTicks": 9,
          "midi": 82,
          "name": "A#5",
          "ticks": 21312,
          "time": 195.882144,
          "velocity": 0.8740157480314961
        },
        {
          "duration": 0.0735293333333118,
          "durationTicks": 8,
          "midi": 70,
          "name": "A#4",
          "ticks": 21313,
          "time": 195.8913351666667,
          "velocity": 0.8740157480314961
        },
        {
          "duration": 0.19301450000000386,
          "durationTicks": 21,
          "midi": 85,
          "name": "C#6",
          "ticks": 21336,
          "time": 196.102732,
          "velocity": 0.8740157480314961
        },
        {
          "duration": 0.19301450000000386,
          "durationTicks": 21,
          "midi": 73,
          "name": "C#5",
          "ticks": 21337,
          "time": 196.11192316666668,
          "velocity": 0.8740157480314961
        },
        {
          "duration": 0.22058799999999223,
          "durationTicks": 24,
          "midi": 84,
          "name": "C6",
          "ticks": 21384,
          "time": 196.54390800000002,
          "velocity": 0.8740157480314961
        },
        {
          "duration": 0.2113968333333105,
          "durationTicks": 23,
          "midi": 72,
          "name": "C5",
          "ticks": 21385,
          "time": 196.5530991666667,
          "velocity": 0.8740157480314961
        },
        {
          "duration": 0.19301450000000386,
          "durationTicks": 21,
          "midi": 80,
          "name": "G#5",
          "ticks": 21432,
          "time": 196.985084,
          "velocity": 0.8740157480314961
        },
        {
          "duration": 0.19301450000000386,
          "durationTicks": 21,
          "midi": 68,
          "name": "G#4",
          "ticks": 21433,
          "time": 196.99427516666668,
          "velocity": 0.8740157480314961
        },
        {
          "duration": 0.18382333333335055,
          "durationTicks": 20,
          "midi": 85,
          "name": "C#6",
          "ticks": 21456,
          "time": 197.205672,
          "velocity": 0.8740157480314961
        },
        {
          "duration": 0.18382333333332213,
          "durationTicks": 20,
          "midi": 73,
          "name": "C#5",
          "ticks": 21457,
          "time": 197.21486316666667,
          "velocity": 0.8740157480314961
        },
        {
          "duration": 0.6158081666666817,
          "durationTicks": 67,
          "midi": 87,
          "name": "D#6",
          "ticks": 21480,
          "time": 197.42626,
          "velocity": 0.8740157480314961
        },
        {
          "duration": 0.606617,
          "durationTicks": 66,
          "midi": 75,
          "name": "D#5",
          "ticks": 21481,
          "time": 197.4354511666667,
          "velocity": 0.8740157480314961
        },
        {
          "duration": 0.19301449999997544,
          "durationTicks": 21,
          "midi": 56,
          "name": "G#3",
          "ticks": 21552,
          "time": 198.08802400000002,
          "velocity": 0.8740157480314961
        },
        {
          "duration": 0.19301450000000386,
          "durationTicks": 21,
          "midi": 68,
          "name": "G#4",
          "ticks": 21576,
          "time": 198.308612,
          "velocity": 0.8740157480314961
        },
        {
          "duration": 0.18382333333332213,
          "durationTicks": 20,
          "midi": 56,
          "name": "G#3",
          "ticks": 21577,
          "time": 198.3178031666667,
          "velocity": 0.8740157480314961
        },
        {
          "duration": 0.08272049999999354,
          "durationTicks": 9,
          "midi": 80,
          "name": "G#5",
          "ticks": 21600,
          "time": 198.5292,
          "velocity": 0.8740157480314961
        },
        {
          "duration": 0.08272049999999354,
          "durationTicks": 9,
          "midi": 68,
          "name": "G#4",
          "ticks": 21600,
          "time": 198.5292,
          "velocity": 0.8740157480314961
        },
        {
          "duration": 0.10110283333332859,
          "durationTicks": 11,
          "midi": 56,
          "name": "G#3",
          "ticks": 21601,
          "time": 198.53839116666668,
          "velocity": 0.8740157480314961
        },
        {
          "duration": 0.08272049999999354,
          "durationTicks": 9,
          "midi": 78,
          "name": "F#5",
          "ticks": 21612,
          "time": 198.639494,
          "velocity": 0.8740157480314961
        },
        {
          "duration": 0.08272049999999354,
          "durationTicks": 9,
          "midi": 66,
          "name": "F#4",
          "ticks": 21612,
          "time": 198.639494,
          "velocity": 0.8740157480314961
        },
        {
          "duration": 0.10110283333330017,
          "durationTicks": 11,
          "midi": 56,
          "name": "G#3",
          "ticks": 21613,
          "time": 198.6486851666667,
          "velocity": 0.8740157480314961
        },
        {
          "duration": 0.08272049999999354,
          "durationTicks": 9,
          "midi": 77,
          "name": "F5",
          "ticks": 21636,
          "time": 198.860082,
          "velocity": 0.8740157480314961
        },
        {
          "duration": 0.08272049999999354,
          "durationTicks": 9,
          "midi": 65,
          "name": "F4",
          "ticks": 21636,
          "time": 198.860082,
          "velocity": 0.8740157480314961
        },
        {
          "duration": 0.10110283333332859,
          "durationTicks": 11,
          "midi": 56,
          "name": "G#3",
          "ticks": 21637,
          "time": 198.8692731666667,
          "velocity": 0.8740157480314961
        },
        {
          "duration": 0.08272049999999354,
          "durationTicks": 9,
          "midi": 77,
          "name": "F5",
          "ticks": 21660,
          "time": 199.08067,
          "velocity": 0.8740157480314961
        },
        {
          "duration": 0.08272049999999354,
          "durationTicks": 9,
          "midi": 65,
          "name": "F4",
          "ticks": 21660,
          "time": 199.08067,
          "velocity": 0.8740157480314961
        },
        {
          "duration": 0.10110283333332859,
          "durationTicks": 11,
          "midi": 56,
          "name": "G#3",
          "ticks": 21661,
          "time": 199.08986116666668,
          "velocity": 0.8740157480314961
        },
        {
          "duration": 0.08272049999999354,
          "durationTicks": 9,
          "midi": 77,
          "name": "F5",
          "ticks": 21684,
          "time": 199.30125800000002,
          "velocity": 0.8740157480314961
        },
        {
          "duration": 0.08272049999999354,
          "durationTicks": 9,
          "midi": 65,
          "name": "F4",
          "ticks": 21684,
          "time": 199.30125800000002,
          "velocity": 0.8740157480314961
        },
        {
          "duration": 0.10110283333330017,
          "durationTicks": 11,
          "midi": 56,
          "name": "G#3",
          "ticks": 21685,
          "time": 199.3104491666667,
          "velocity": 0.8740157480314961
        },
        {
          "duration": 0.19301450000000386,
          "durationTicks": 21,
          "midi": 72,
          "name": "C5",
          "ticks": 21696,
          "time": 199.411552,
          "velocity": 0.8740157480314961
        },
        {
          "duration": 0.19301450000000386,
          "durationTicks": 21,
          "midi": 60,
          "name": "C4",
          "ticks": 21696,
          "time": 199.411552,
          "velocity": 0.8740157480314961
        },
        {
          "duration": 0.19301450000000386,
          "durationTicks": 21,
          "midi": 56,
          "name": "G#3",
          "ticks": 21697,
          "time": 199.42074316666668,
          "velocity": 0.8740157480314961
        },
        {
          "duration": 0.19301450000000386,
          "durationTicks": 21,
          "midi": 73,
          "name": "C#5",
          "ticks": 21720,
          "time": 199.63214,
          "velocity": 0.8740157480314961
        },
        {
          "duration": 0.19301450000000386,
          "durationTicks": 21,
          "midi": 61,
          "name": "C#4",
          "ticks": 21720,
          "time": 199.63214,
          "velocity": 0.8740157480314961
        },
        {
          "duration": 0.19301449999997544,
          "durationTicks": 21,
          "midi": 56,
          "name": "G#3",
          "ticks": 21721,
          "time": 199.6413311666667,
          "velocity": 0.8740157480314961
        },
        {
          "duration": 0.19301450000000386,
          "durationTicks": 21,
          "midi": 56,
          "name": "G#3",
          "ticks": 21744,
          "time": 199.852728,
          "velocity": 0.8740157480314961
        },
        {
          "duration": 0.19301450000000386,
          "durationTicks": 21,
          "midi": 68,
          "name": "G#4",
          "ticks": 21768,
          "time": 200.073316,
          "velocity": 0.8740157480314961
        },
        {
          "duration": 0.18382333333332213,
          "durationTicks": 20,
          "midi": 56,
          "name": "G#3",
          "ticks": 21769,
          "time": 200.0825071666667,
          "velocity": 0.8740157480314961
        },
        {
          "duration": 0.08272049999999354,
          "durationTicks": 9,
          "midi": 80,
          "name": "G#5",
          "ticks": 21792,
          "time": 200.293904,
          "velocity": 0.8740157480314961
        },
        {
          "duration": 0.08272049999999354,
          "durationTicks": 9,
          "midi": 68,
          "name": "G#4",
          "ticks": 21792,
          "time": 200.293904,
          "velocity": 0.8740157480314961
        },
        {
          "duration": 0.10110283333332859,
          "durationTicks": 11,
          "midi": 56,
          "name": "G#3",
          "ticks": 21793,
          "time": 200.30309516666668,
          "velocity": 0.8740157480314961
        },
        {
          "duration": 0.08272049999999354,
          "durationTicks": 9,
          "midi": 78,
          "name": "F#5",
          "ticks": 21804,
          "time": 200.404198,
          "velocity": 0.8740157480314961
        },
        {
          "duration": 0.08272049999999354,
          "durationTicks": 9,
          "midi": 66,
          "name": "F#4",
          "ticks": 21804,
          "time": 200.404198,
          "velocity": 0.8740157480314961
        },
        {
          "duration": 0.10110283333332859,
          "durationTicks": 11,
          "midi": 56,
          "name": "G#3",
          "ticks": 21805,
          "time": 200.4133891666667,
          "velocity": 0.8740157480314961
        },
        {
          "duration": 0.08272049999999354,
          "durationTicks": 9,
          "midi": 77,
          "name": "F5",
          "ticks": 21828,
          "time": 200.624786,
          "velocity": 0.8740157480314961
        },
        {
          "duration": 0.08272049999999354,
          "durationTicks": 9,
          "midi": 65,
          "name": "F4",
          "ticks": 21828,
          "time": 200.624786,
          "velocity": 0.8740157480314961
        },
        {
          "duration": 0.10110283333332859,
          "durationTicks": 11,
          "midi": 56,
          "name": "G#3",
          "ticks": 21829,
          "time": 200.63397716666668,
          "velocity": 0.8740157480314961
        },
        {
          "duration": 0.08272050000002196,
          "durationTicks": 9,
          "midi": 77,
          "name": "F5",
          "ticks": 21852,
          "time": 200.845374,
          "velocity": 0.8740157480314961
        },
        {
          "duration": 0.08272050000002196,
          "durationTicks": 9,
          "midi": 65,
          "name": "F4",
          "ticks": 21852,
          "time": 200.845374,
          "velocity": 0.8740157480314961
        },
        {
          "duration": 0.10110283333330017,
          "durationTicks": 11,
          "midi": 56,
          "name": "G#3",
          "ticks": 21853,
          "time": 200.8545651666667,
          "velocity": 0.8740157480314961
        },
        {
          "duration": 0.08272049999999354,
          "durationTicks": 9,
          "midi": 77,
          "name": "F5",
          "ticks": 21876,
          "time": 201.065962,
          "velocity": 0.8740157480314961
        },
        {
          "duration": 0.08272049999999354,
          "durationTicks": 9,
          "midi": 65,
          "name": "F4",
          "ticks": 21876,
          "time": 201.065962,
          "velocity": 0.8740157480314961
        },
        {
          "duration": 0.10110283333330017,
          "durationTicks": 11,
          "midi": 56,
          "name": "G#3",
          "ticks": 21877,
          "time": 201.0751531666667,
          "velocity": 0.8740157480314961
        },
        {
          "duration": 0.19301450000000386,
          "durationTicks": 21,
          "midi": 72,
          "name": "C5",
          "ticks": 21888,
          "time": 201.176256,
          "velocity": 0.8740157480314961
        },
        {
          "duration": 0.19301450000000386,
          "durationTicks": 21,
          "midi": 60,
          "name": "C4",
          "ticks": 21888,
          "time": 201.176256,
          "velocity": 0.8740157480314961
        },
        {
          "duration": 0.19301450000000386,
          "durationTicks": 21,
          "midi": 56,
          "name": "G#3",
          "ticks": 21889,
          "time": 201.18544716666668,
          "velocity": 0.8740157480314961
        },
        {
          "duration": 0.19301450000000386,
          "durationTicks": 21,
          "midi": 73,
          "name": "C#5",
          "ticks": 21912,
          "time": 201.39684400000002,
          "velocity": 0.8740157480314961
        },
        {
          "duration": 0.19301450000000386,
          "durationTicks": 21,
          "midi": 61,
          "name": "C#4",
          "ticks": 21912,
          "time": 201.39684400000002,
          "velocity": 0.8740157480314961
        },
        {
          "duration": 0.19301450000000386,
          "durationTicks": 21,
          "midi": 56,
          "name": "G#3",
          "ticks": 21913,
          "time": 201.4060351666667,
          "velocity": 0.8740157480314961
        }
      ]
    },
    {
      "channel": 9,
      "controlChanges": {},
      "pitchBends": [],
      "instrument": {
        "family": "drums",
        "number": 0,
        "name": "standard kit"
      },
      "name": "Cymbal",
      "notes": [
        {
          "duration": 0.00919116666666664,
          "durationTicks": 1,
          "midi": 49,
          "name": "C#3",
          "ticks": 432,
          "time": 3.970584,
          "velocity": 0.47244094488188976
        },
        {
          "duration": 0.009191166666667527,
          "durationTicks": 1,
          "midi": 42,
          "name": "F#2",
          "ticks": 456,
          "time": 4.191172,
          "velocity": 0.4409448818897638
        },
        {
          "duration": 0.009191166666667527,
          "durationTicks": 1,
          "midi": 42,
          "name": "F#2",
          "ticks": 468,
          "time": 4.301466,
          "velocity": 0.4094488188976378
        },
        {
          "duration": 0.00919116666666664,
          "durationTicks": 1,
          "midi": 42,
          "name": "F#2",
          "ticks": 480,
          "time": 4.41176,
          "velocity": 0.6299212598425197
        },
        {
          "duration": 0.009191166666665751,
          "durationTicks": 1,
          "midi": 42,
          "name": "F#2",
          "ticks": 492,
          "time": 4.522054000000001,
          "velocity": 0.4409448818897638
        },
        {
          "duration": 0.00919116666666664,
          "durationTicks": 1,
          "midi": 42,
          "name": "F#2",
          "ticks": 504,
          "time": 4.632348,
          "velocity": 0.3228346456692913
        },
        {
          "duration": 0.009191166666667527,
          "durationTicks": 1,
          "midi": 42,
          "name": "F#2",
          "ticks": 516,
          "time": 4.742642,
          "velocity": 0.4094488188976378
        },
        {
          "duration": 0.009191166666667527,
          "durationTicks": 1,
          "midi": 42,
          "name": "F#2",
          "ticks": 528,
          "time": 4.852936,
          "velocity": 0.6299212598425197
        },
        {
          "duration": 0.00919116666666664,
          "durationTicks": 1,
          "midi": 42,
          "name": "F#2",
          "ticks": 540,
          "time": 4.96323,
          "velocity": 0.4409448818897638
        },
        {
          "duration": 0.00919116666666664,
          "durationTicks": 1,
          "midi": 42,
          "name": "F#2",
          "ticks": 552,
          "time": 5.073524,
          "velocity": 0.3228346456692913
        },
        {
          "duration": 0.00919116666666664,
          "durationTicks": 1,
          "midi": 42,
          "name": "F#2",
          "ticks": 564,
          "time": 5.1838180000000005,
          "velocity": 0.4094488188976378
        },
        {
          "duration": 0.00919116666666664,
          "durationTicks": 1,
          "midi": 42,
          "name": "F#2",
          "ticks": 576,
          "time": 5.294112,
          "velocity": 0.6299212598425197
        },
        {
          "duration": 0.00919116666666664,
          "durationTicks": 1,
          "midi": 42,
          "name": "F#2",
          "ticks": 588,
          "time": 5.404406,
          "velocity": 0.4409448818897638
        },
        {
          "duration": 0.00919116666666664,
          "durationTicks": 1,
          "midi": 42,
          "name": "F#2",
          "ticks": 600,
          "time": 5.5147,
          "velocity": 0.3228346456692913
        },
        {
          "duration": 0.009191166666665751,
          "durationTicks": 1,
          "midi": 42,
          "name": "F#2",
          "ticks": 612,
          "time": 5.624994000000001,
          "velocity": 0.4094488188976378
        },
        {
          "duration": 0.009191166666665751,
          "durationTicks": 1,
          "midi": 57,
          "name": "A3",
          "ticks": 624,
          "time": 5.735288000000001,
          "velocity": 0.41732283464566927
        },
        {
          "duration": 0.009191166666665751,
          "durationTicks": 1,
          "midi": 42,
          "name": "F#2",
          "ticks": 648,
          "time": 5.955876000000001,
          "velocity": 0.4409448818897638
        },
        {
          "duration": 0.009191166666665751,
          "durationTicks": 1,
          "midi": 42,
          "name": "F#2",
          "ticks": 660,
          "time": 6.0661700000000005,
          "velocity": 0.4094488188976378
        },
        {
          "duration": 0.00919116666666664,
          "durationTicks": 1,
          "midi": 42,
          "name": "F#2",
          "ticks": 672,
          "time": 6.176464,
          "velocity": 0.6299212598425197
        },
        {
          "duration": 0.009191166666665751,
          "durationTicks": 1,
          "midi": 42,
          "name": "F#2",
          "ticks": 684,
          "time": 6.286758000000001,
          "velocity": 0.4409448818897638
        },
        {
          "duration": 0.00919116666666664,
          "durationTicks": 1,
          "midi": 42,
          "name": "F#2",
          "ticks": 696,
          "time": 6.397052,
          "velocity": 0.3228346456692913
        },
        {
          "duration": 0.00919116666666664,
          "durationTicks": 1,
          "midi": 42,
          "name": "F#2",
          "ticks": 708,
          "time": 6.507346,
          "velocity": 0.4094488188976378
        },
        {
          "duration": 0.009191166666665751,
          "durationTicks": 1,
          "midi": 42,
          "name": "F#2",
          "ticks": 720,
          "time": 6.617640000000001,
          "velocity": 0.6299212598425197
        },
        {
          "duration": 0.00919116666666664,
          "durationTicks": 1,
          "midi": 42,
          "name": "F#2",
          "ticks": 732,
          "time": 6.727934,
          "velocity": 0.4409448818897638
        },
        {
          "duration": 0.009191166666665751,
          "durationTicks": 1,
          "midi": 42,
          "name": "F#2",
          "ticks": 744,
          "time": 6.838228000000001,
          "velocity": 0.3228346456692913
        },
        {
          "duration": 0.009191166666665751,
          "durationTicks": 1,
          "midi": 42,
          "name": "F#2",
          "ticks": 756,
          "time": 6.9485220000000005,
          "velocity": 0.4094488188976378
        },
        {
          "duration": 0.00919116666666664,
          "durationTicks": 1,
          "midi": 42,
          "name": "F#2",
          "ticks": 768,
          "time": 7.058816,
          "velocity": 0.6299212598425197
        },
        {
          "duration": 0.009191166666665751,
          "durationTicks": 1,
          "midi": 42,
          "name": "F#2",
          "ticks": 780,
          "time": 7.169110000000001,
          "velocity": 0.4409448818897638
        },
        {
          "duration": 0.00919116666666664,
          "durationTicks": 1,
          "midi": 42,
          "name": "F#2",
          "ticks": 792,
          "time": 7.279404,
          "velocity": 0.3228346456692913
        },
        {
          "duration": 0.00919116666666664,
          "durationTicks": 1,
          "midi": 42,
          "name": "F#2",
          "ticks": 804,
          "time": 7.389698,
          "velocity": 0.4094488188976378
        },
        {
          "duration": 0.009191166666665751,
          "durationTicks": 1,
          "midi": 57,
          "name": "A3",
          "ticks": 816,
          "time": 7.499992000000001,
          "velocity": 0.41732283464566927
        },
        {
          "duration": 0.009191166666665751,
          "durationTicks": 1,
          "midi": 42,
          "name": "F#2",
          "ticks": 840,
          "time": 7.720580000000001,
          "velocity": 0.4409448818897638
        },
        {
          "duration": 0.009191166666665751,
          "durationTicks": 1,
          "midi": 42,
          "name": "F#2",
          "ticks": 852,
          "time": 7.830874000000001,
          "velocity": 0.4094488188976378
        },
        {
          "duration": 0.00919116666666664,
          "durationTicks": 1,
          "midi": 42,
          "name": "F#2",
          "ticks": 864,
          "time": 7.941168,
          "velocity": 0.6299212598425197
        },
        {
          "duration": 0.009191166666665751,
          "durationTicks": 1,
          "midi": 42,
          "name": "F#2",
          "ticks": 876,
          "time": 8.051462,
          "velocity": 0.4409448818897638
        },
        {
          "duration": 0.009191166666667527,
          "durationTicks": 1,
          "midi": 42,
          "name": "F#2",
          "ticks": 888,
          "time": 8.161756,
          "velocity": 0.3228346456692913
        },
        {
          "duration": 0.009191166666667527,
          "durationTicks": 1,
          "midi": 42,
          "name": "F#2",
          "ticks": 900,
          "time": 8.27205,
          "velocity": 0.4094488188976378
        },
        {
          "duration": 0.009191166666667527,
          "durationTicks": 1,
          "midi": 42,
          "name": "F#2",
          "ticks": 912,
          "time": 8.382344,
          "velocity": 0.6299212598425197
        },
        {
          "duration": 0.009191166666667527,
          "durationTicks": 1,
          "midi": 42,
          "name": "F#2",
          "ticks": 924,
          "time": 8.492638,
          "velocity": 0.4409448818897638
        },
        {
          "duration": 0.009191166666665751,
          "durationTicks": 1,
          "midi": 42,
          "name": "F#2",
          "ticks": 936,
          "time": 8.602932000000001,
          "velocity": 0.3228346456692913
        },
        {
          "duration": 0.009191166666665751,
          "durationTicks": 1,
          "midi": 42,
          "name": "F#2",
          "ticks": 948,
          "time": 8.713226,
          "velocity": 0.4094488188976378
        },
        {
          "duration": 0.009191166666669304,
          "durationTicks": 1,
          "midi": 42,
          "name": "F#2",
          "ticks": 960,
          "time": 8.823519999999998,
          "velocity": 0.6299212598425197
        },
        {
          "duration": 0.009191166666667527,
          "durationTicks": 1,
          "midi": 42,
          "name": "F#2",
          "ticks": 972,
          "time": 8.933814,
          "velocity": 0.4409448818897638
        },
        {
          "duration": 0.009191166666667527,
          "durationTicks": 1,
          "midi": 42,
          "name": "F#2",
          "ticks": 984,
          "time": 9.044108,
          "velocity": 0.3228346456692913
        },
        {
          "duration": 0.009191166666667527,
          "durationTicks": 1,
          "midi": 42,
          "name": "F#2",
          "ticks": 996,
          "time": 9.154402000000001,
          "velocity": 0.4094488188976378
        },
        {
          "duration": 0.009191166666667527,
          "durationTicks": 1,
          "midi": 49,
          "name": "C#3",
          "ticks": 1200,
          "time": 11.029399999999999,
          "velocity": 0.4881889763779528
        },
        {
          "duration": 0.009191166666667527,
          "durationTicks": 1,
          "midi": 46,
          "name": "A#2",
          "ticks": 1224,
          "time": 11.249987999999998,
          "velocity": 0.5039370078740157
        },
        {
          "duration": 0.009191166666667527,
          "durationTicks": 1,
          "midi": 42,
          "name": "F#2",
          "ticks": 1248,
          "time": 11.470576000000001,
          "velocity": 0.4566929133858268
        },
        {
          "duration": 0.009191166666667527,
          "durationTicks": 1,
          "midi": 46,
          "name": "A#2",
          "ticks": 1272,
          "time": 11.691164,
          "velocity": 0.4566929133858268
        },
        {
          "duration": 0.009191166666667527,
          "durationTicks": 1,
          "midi": 42,
          "name": "F#2",
          "ticks": 1296,
          "time": 11.911752,
          "velocity": 0.4330708661417323
        },
        {
          "duration": 0.009191166666667527,
          "durationTicks": 1,
          "midi": 46,
          "name": "A#2",
          "ticks": 1320,
          "time": 12.13234,
          "velocity": 0.4645669291338583
        },
        {
          "duration": 0.009191166666667527,
          "durationTicks": 1,
          "midi": 42,
          "name": "F#2",
          "ticks": 1344,
          "time": 12.352927999999999,
          "velocity": 0.4566929133858268
        },
        {
          "duration": 0.009191166666667527,
          "durationTicks": 1,
          "midi": 46,
          "name": "A#2",
          "ticks": 1368,
          "time": 12.573516000000001,
          "velocity": 0.5433070866141733
        },
        {
          "duration": 0.009191166666667527,
          "durationTicks": 1,
          "midi": 42,
          "name": "F#2",
          "ticks": 1392,
          "time": 12.794104,
          "velocity": 0.4645669291338583
        },
        {
          "duration": 0.009191166666667527,
          "durationTicks": 1,
          "midi": 46,
          "name": "A#2",
          "ticks": 1416,
          "time": 13.014692,
          "velocity": 0.48031496062992124
        },
        {
          "duration": 0.009191166666667527,
          "durationTicks": 1,
          "midi": 42,
          "name": "F#2",
          "ticks": 1440,
          "time": 13.23528,
          "velocity": 0.4566929133858268
        },
        {
          "duration": 0.009191166666667527,
          "durationTicks": 1,
          "midi": 46,
          "name": "A#2",
          "ticks": 1464,
          "time": 13.455867999999999,
          "velocity": 0.4645669291338583
        },
        {
          "duration": 0.00919116666667108,
          "durationTicks": 1,
          "midi": 42,
          "name": "F#2",
          "ticks": 1488,
          "time": 13.676455999999998,
          "velocity": 0.4330708661417323
        },
        {
          "duration": 0.009191166666667527,
          "durationTicks": 1,
          "midi": 46,
          "name": "A#2",
          "ticks": 1512,
          "time": 13.897044000000001,
          "velocity": 0.4881889763779528
        },
        {
          "duration": 0.009191166666667527,
          "durationTicks": 1,
          "midi": 42,
          "name": "F#2",
          "ticks": 1536,
          "time": 14.117632,
          "velocity": 0.4566929133858268
        },
        {
          "duration": 0.009191166666667527,
          "durationTicks": 1,
          "midi": 46,
          "name": "A#2",
          "ticks": 1560,
          "time": 14.33822,
          "velocity": 0.5354330708661418
        },
        {
          "duration": 0.009191166666667527,
          "durationTicks": 1,
          "midi": 42,
          "name": "F#2",
          "ticks": 1584,
          "time": 14.558807999999999,
          "velocity": 0.4645669291338583
        },
        {
          "duration": 0.009191166666667527,
          "durationTicks": 1,
          "midi": 46,
          "name": "A#2",
          "ticks": 1608,
          "time": 14.779395999999998,
          "velocity": 0.48031496062992124
        },
        {
          "duration": 0.009191166666667527,
          "durationTicks": 1,
          "midi": 42,
          "name": "F#2",
          "ticks": 1632,
          "time": 14.999984000000001,
          "velocity": 0.4645669291338583
        },
        {
          "duration": 0.009191166666667527,
          "durationTicks": 1,
          "midi": 46,
          "name": "A#2",
          "ticks": 1656,
          "time": 15.220572,
          "velocity": 0.48031496062992124
        },
        {
          "duration": 0.009191166666667527,
          "durationTicks": 1,
          "midi": 42,
          "name": "F#2",
          "ticks": 1680,
          "time": 15.44116,
          "velocity": 0.4645669291338583
        },
        {
          "duration": 0.009191166666667527,
          "durationTicks": 1,
          "midi": 46,
          "name": "A#2",
          "ticks": 1704,
          "time": 15.661748,
          "velocity": 0.4881889763779528
        },
        {
          "duration": 0.009191166666663975,
          "durationTicks": 1,
          "midi": 42,
          "name": "F#2",
          "ticks": 1728,
          "time": 15.882336000000002,
          "velocity": 0.4645669291338583
        },
        {
          "duration": 0.009191166666663975,
          "durationTicks": 1,
          "midi": 46,
          "name": "A#2",
          "ticks": 1752,
          "time": 16.102924,
          "velocity": 0.48031496062992124
        },
        {
          "duration": 0.009191166666663975,
          "durationTicks": 1,
          "midi": 42,
          "name": "F#2",
          "ticks": 1776,
          "time": 16.323512,
          "velocity": 0.4645669291338583
        },
        {
          "duration": 0.009191166666667527,
          "durationTicks": 1,
          "midi": 46,
          "name": "A#2",
          "ticks": 1800,
          "time": 16.5441,
          "velocity": 0.48031496062992124
        },
        {
          "duration": 0.009191166666663975,
          "durationTicks": 1,
          "midi": 42,
          "name": "F#2",
          "ticks": 1824,
          "time": 16.764688000000003,
          "velocity": 0.4645669291338583
        },
        {
          "duration": 0.009191166666663975,
          "durationTicks": 1,
          "midi": 46,
          "name": "A#2",
          "ticks": 1848,
          "time": 16.985276000000002,
          "velocity": 0.48031496062992124
        },
        {
          "duration": 0.009191166666663975,
          "durationTicks": 1,
          "midi": 42,
          "name": "F#2",
          "ticks": 1872,
          "time": 17.205864000000002,
          "velocity": 0.4645669291338583
        },
        {
          "duration": 0.009191166666663975,
          "durationTicks": 1,
          "midi": 46,
          "name": "A#2",
          "ticks": 1896,
          "time": 17.426452,
          "velocity": 0.5433070866141733
        },
        {
          "duration": 0.009191166666663975,
          "durationTicks": 1,
          "midi": 57,
          "name": "A3",
          "ticks": 1968,
          "time": 18.088216000000003,
          "velocity": 0.4094488188976378
        },
        {
          "duration": 0.009191166666663975,
          "durationTicks": 1,
          "midi": 46,
          "name": "A#2",
          "ticks": 1992,
          "time": 18.308804000000002,
          "velocity": 0.5039370078740157
        },
        {
          "duration": 0.009191166666663975,
          "durationTicks": 1,
          "midi": 42,
          "name": "F#2",
          "ticks": 2016,
          "time": 18.529392,
          "velocity": 0.4566929133858268
        },
        {
          "duration": 0.009191166666667527,
          "durationTicks": 1,
          "midi": 46,
          "name": "A#2",
          "ticks": 2040,
          "time": 18.74998,
          "velocity": 0.4566929133858268
        },
        {
          "duration": 0.009191166666663975,
          "durationTicks": 1,
          "midi": 42,
          "name": "F#2",
          "ticks": 2064,
          "time": 18.970568000000004,
          "velocity": 0.4330708661417323
        },
        {
          "duration": 0.009191166666663975,
          "durationTicks": 1,
          "midi": 46,
          "name": "A#2",
          "ticks": 2088,
          "time": 19.191156000000003,
          "velocity": 0.4645669291338583
        },
        {
          "duration": 0.009191166666663975,
          "durationTicks": 1,
          "midi": 42,
          "name": "F#2",
          "ticks": 2112,
          "time": 19.411744000000002,
          "velocity": 0.4566929133858268
        },
        {
          "duration": 0.009191166666663975,
          "durationTicks": 1,
          "midi": 46,
          "name": "A#2",
          "ticks": 2136,
          "time": 19.632332,
          "velocity": 0.5196850393700787
        },
        {
          "duration": 0.009191166666667527,
          "durationTicks": 1,
          "midi": 42,
          "name": "F#2",
          "ticks": 2160,
          "time": 19.85292,
          "velocity": 0.4645669291338583
        },
        {
          "duration": 0.009191166666663975,
          "durationTicks": 1,
          "midi": 46,
          "name": "A#2",
          "ticks": 2184,
          "time": 20.073508000000004,
          "velocity": 0.48031496062992124
        },
        {
          "duration": 0.009191166666663975,
          "durationTicks": 1,
          "midi": 42,
          "name": "F#2",
          "ticks": 2208,
          "time": 20.294096000000003,
          "velocity": 0.4645669291338583
        },
        {
          "duration": 0.009191166666663975,
          "durationTicks": 1,
          "midi": 46,
          "name": "A#2",
          "ticks": 2232,
          "time": 20.514684000000003,
          "velocity": 0.48031496062992124
        },
        {
          "duration": 0.009191166666663975,
          "durationTicks": 1,
          "midi": 42,
          "name": "F#2",
          "ticks": 2256,
          "time": 20.735272000000002,
          "velocity": 0.4645669291338583
        },
        {
          "duration": 0.009191166666667527,
          "durationTicks": 1,
          "midi": 46,
          "name": "A#2",
          "ticks": 2280,
          "time": 20.95586,
          "velocity": 0.4881889763779528
        },
        {
          "duration": 0.009191166666663975,
          "durationTicks": 1,
          "midi": 42,
          "name": "F#2",
          "ticks": 2304,
          "time": 21.176448000000004,
          "velocity": 0.4645669291338583
        },
        {
          "duration": 0.009191166666663975,
          "durationTicks": 1,
          "midi": 46,
          "name": "A#2",
          "ticks": 2328,
          "time": 21.397036000000003,
          "velocity": 0.48031496062992124
        },
        {
          "duration": 0.009191166666663975,
          "durationTicks": 1,
          "midi": 49,
          "name": "C#3",
          "ticks": 2352,
          "time": 21.617624000000003,
          "velocity": 0.47244094488188976
        },
        {
          "duration": 0.009191166666663975,
          "durationTicks": 1,
          "midi": 46,
          "name": "A#2",
          "ticks": 2376,
          "time": 21.838212000000002,
          "velocity": 0.5039370078740157
        },
        {
          "duration": 0.009191166666663975,
          "durationTicks": 1,
          "midi": 42,
          "name": "F#2",
          "ticks": 2400,
          "time": 22.0588,
          "velocity": 0.4566929133858268
        },
        {
          "duration": 0.009191166666667527,
          "durationTicks": 1,
          "midi": 46,
          "name": "A#2",
          "ticks": 2424,
          "time": 22.279388,
          "velocity": 0.4566929133858268
        },
        {
          "duration": 0.009191166666663975,
          "durationTicks": 1,
          "midi": 42,
          "name": "F#2",
          "ticks": 2448,
          "time": 22.499976000000004,
          "velocity": 0.4330708661417323
        },
        {
          "duration": 0.009191166666663975,
          "durationTicks": 1,
          "midi": 46,
          "name": "A#2",
          "ticks": 2472,
          "time": 22.720564000000003,
          "velocity": 0.4645669291338583
        },
        {
          "duration": 0.009191166666663975,
          "durationTicks": 1,
          "midi": 42,
          "name": "F#2",
          "ticks": 2496,
          "time": 22.941152000000002,
          "velocity": 0.4566929133858268
        },
        {
          "duration": 0.009191166666663975,
          "durationTicks": 1,
          "midi": 46,
          "name": "A#2",
          "ticks": 2520,
          "time": 23.16174,
          "velocity": 0.5196850393700787
        },
        {
          "duration": 0.009191166666667527,
          "durationTicks": 1,
          "midi": 42,
          "name": "F#2",
          "ticks": 2544,
          "time": 23.382328,
          "velocity": 0.4645669291338583
        },
        {
          "duration": 0.009191166666663975,
          "durationTicks": 1,
          "midi": 57,
          "name": "A3",
          "ticks": 2568,
          "time": 23.602916000000004,
          "velocity": 0.4409448818897638
        },
        {
          "duration": 0.009191166666663975,
          "durationTicks": 1,
          "midi": 57,
          "name": "A3",
          "ticks": 2592,
          "time": 23.823504000000003,
          "velocity": 0.4330708661417323
        },
        {
          "duration": 0.009191166666663975,
          "durationTicks": 1,
          "midi": 46,
          "name": "A#2",
          "ticks": 2616,
          "time": 24.044092000000003,
          "velocity": 0.48031496062992124
        },
        {
          "duration": 0.009191166666663975,
          "durationTicks": 1,
          "midi": 46,
          "name": "A#2",
          "ticks": 2640,
          "time": 24.264680000000002,
          "velocity": 0.4409448818897638
        },
        {
          "duration": 0.009191166666667527,
          "durationTicks": 1,
          "midi": 57,
          "name": "A3",
          "ticks": 2664,
          "time": 24.485268,
          "velocity": 0.4566929133858268
        },
        {
          "duration": 0.009191166666663975,
          "durationTicks": 1,
          "midi": 57,
          "name": "A3",
          "ticks": 2688,
          "time": 24.705856000000004,
          "velocity": 0.4409448818897638
        },
        {
          "duration": 0.009191166666663975,
          "durationTicks": 1,
          "midi": 57,
          "name": "A3",
          "ticks": 2736,
          "time": 25.147032000000003,
          "velocity": 0.47244094488188976
        },
        {
          "duration": 0.009191166666663975,
          "durationTicks": 1,
          "midi": 42,
          "name": "F#2",
          "ticks": 2760,
          "time": 25.367620000000002,
          "velocity": 0.3543307086614173
        },
        {
          "duration": 0.009191166666663975,
          "durationTicks": 1,
          "midi": 42,
          "name": "F#2",
          "ticks": 2784,
          "time": 25.588208,
          "velocity": 0.48031496062992124
        },
        {
          "duration": 0.009191166666667527,
          "durationTicks": 1,
          "midi": 42,
          "name": "F#2",
          "ticks": 2808,
          "time": 25.808796,
          "velocity": 0.33070866141732286
        },
        {
          "duration": 0.009191166666663975,
          "durationTicks": 1,
          "midi": 42,
          "name": "F#2",
          "ticks": 2832,
          "time": 26.029384000000004,
          "velocity": 0.44881889763779526
        },
        {
          "duration": 0.009191166666663975,
          "durationTicks": 1,
          "midi": 42,
          "name": "F#2",
          "ticks": 2856,
          "time": 26.249972000000003,
          "velocity": 0.33858267716535434
        },
        {
          "duration": 0.009191166666663975,
          "durationTicks": 1,
          "midi": 42,
          "name": "F#2",
          "ticks": 2880,
          "time": 26.470560000000003,
          "velocity": 0.48031496062992124
        },
        {
          "duration": 0.009191166666663975,
          "durationTicks": 1,
          "midi": 42,
          "name": "F#2",
          "ticks": 2904,
          "time": 26.691148000000002,
          "velocity": 0.3464566929133858
        },
        {
          "duration": 0.009191166666667527,
          "durationTicks": 1,
          "midi": 42,
          "name": "F#2",
          "ticks": 2928,
          "time": 26.911736,
          "velocity": 0.4645669291338583
        },
        {
          "duration": 0.009191166666663975,
          "durationTicks": 1,
          "midi": 42,
          "name": "F#2",
          "ticks": 2952,
          "time": 27.132324000000004,
          "velocity": 0.33070866141732286
        },
        {
          "duration": 0.009191166666663975,
          "durationTicks": 1,
          "midi": 42,
          "name": "F#2",
          "ticks": 2976,
          "time": 27.352912000000003,
          "velocity": 0.4409448818897638
        },
        {
          "duration": 0.009191166666663975,
          "durationTicks": 1,
          "midi": 42,
          "name": "F#2",
          "ticks": 3000,
          "time": 27.573500000000003,
          "velocity": 0.31496062992125984
        },
        {
          "duration": 0.009191166666663975,
          "durationTicks": 1,
          "midi": 42,
          "name": "F#2",
          "ticks": 3024,
          "time": 27.794088000000002,
          "velocity": 0.4645669291338583
        },
        {
          "duration": 0.009191166666667527,
          "durationTicks": 1,
          "midi": 42,
          "name": "F#2",
          "ticks": 3048,
          "time": 28.014676,
          "velocity": 0.33858267716535434
        },
        {
          "duration": 0.009191166666663975,
          "durationTicks": 1,
          "midi": 42,
          "name": "F#2",
          "ticks": 3072,
          "time": 28.235264000000004,
          "velocity": 0.44881889763779526
        },
        {
          "duration": 0.009191166666663975,
          "durationTicks": 1,
          "midi": 42,
          "name": "F#2",
          "ticks": 3096,
          "time": 28.455852000000004,
          "velocity": 0.31496062992125984
        },
        {
          "duration": 0.009191166666663975,
          "durationTicks": 1,
          "midi": 42,
          "name": "F#2",
          "ticks": 3120,
          "time": 28.676440000000003,
          "velocity": 0.4645669291338583
        },
        {
          "duration": 0.009191166666663975,
          "durationTicks": 1,
          "midi": 42,
          "name": "F#2",
          "ticks": 3144,
          "time": 28.897028000000002,
          "velocity": 0.33070866141732286
        },
        {
          "duration": 0.009191166666663975,
          "durationTicks": 1,
          "midi": 42,
          "name": "F#2",
          "ticks": 3168,
          "time": 29.117616,
          "velocity": 0.4409448818897638
        },
        {
          "duration": 0.009191166666667527,
          "durationTicks": 1,
          "midi": 42,
          "name": "F#2",
          "ticks": 3192,
          "time": 29.338204,
          "velocity": 0.31496062992125984
        },
        {
          "duration": 0.009191166666663975,
          "durationTicks": 1,
          "midi": 42,
          "name": "F#2",
          "ticks": 3216,
          "time": 29.558792000000004,
          "velocity": 0.4645669291338583
        },
        {
          "duration": 0.009191166666663975,
          "durationTicks": 1,
          "midi": 42,
          "name": "F#2",
          "ticks": 3240,
          "time": 29.779380000000003,
          "velocity": 0.33858267716535434
        },
        {
          "duration": 0.00919116666667108,
          "durationTicks": 1,
          "midi": 42,
          "name": "F#2",
          "ticks": 3264,
          "time": 29.999968,
          "velocity": 0.44881889763779526
        },
        {
          "duration": 0.00919116666667108,
          "durationTicks": 1,
          "midi": 42,
          "name": "F#2",
          "ticks": 3288,
          "time": 30.220556,
          "velocity": 0.31496062992125984
        },
        {
          "duration": 0.009191166666667527,
          "durationTicks": 1,
          "midi": 42,
          "name": "F#2",
          "ticks": 3312,
          "time": 30.441144,
          "velocity": 0.4409448818897638
        },
        {
          "duration": 0.00919116666667108,
          "durationTicks": 1,
          "midi": 42,
          "name": "F#2",
          "ticks": 3336,
          "time": 30.661732,
          "velocity": 0.31496062992125984
        },
        {
          "duration": 0.00919116666667108,
          "durationTicks": 1,
          "midi": 42,
          "name": "F#2",
          "ticks": 3360,
          "time": 30.88232,
          "velocity": 0.4566929133858268
        },
        {
          "duration": 0.00919116666667108,
          "durationTicks": 1,
          "midi": 42,
          "name": "F#2",
          "ticks": 3384,
          "time": 31.102908,
          "velocity": 0.31496062992125984
        },
        {
          "duration": 0.00919116666667108,
          "durationTicks": 1,
          "midi": 42,
          "name": "F#2",
          "ticks": 3408,
          "time": 31.323496,
          "velocity": 0.47244094488188976
        },
        {
          "duration": 0.00919116666667108,
          "durationTicks": 1,
          "midi": 42,
          "name": "F#2",
          "ticks": 3432,
          "time": 31.544083999999998,
          "velocity": 0.3228346456692913
        },
        {
          "duration": 0.00919116666667108,
          "durationTicks": 1,
          "midi": 46,
          "name": "A#2",
          "ticks": 3480,
          "time": 31.98526,
          "velocity": 0.36220472440944884
        },
        {
          "duration": 0.009191166666674633,
          "durationTicks": 1,
          "midi": 57,
          "name": "A3",
          "ticks": 3504,
          "time": 32.205847999999996,
          "velocity": 0.47244094488188976
        },
        {
          "duration": 0.009191166666674633,
          "durationTicks": 1,
          "midi": 42,
          "name": "F#2",
          "ticks": 3528,
          "time": 32.426435999999995,
          "velocity": 0.3543307086614173
        },
        {
          "duration": 0.009191166666674633,
          "durationTicks": 1,
          "midi": 42,
          "name": "F#2",
          "ticks": 3552,
          "time": 32.647023999999995,
          "velocity": 0.48031496062992124
        },
        {
          "duration": 0.009191166666667527,
          "durationTicks": 1,
          "midi": 42,
          "name": "F#2",
          "ticks": 3576,
          "time": 32.867612,
          "velocity": 0.33070866141732286
        },
        {
          "duration": 0.009191166666667527,
          "durationTicks": 1,
          "midi": 42,
          "name": "F#2",
          "ticks": 3600,
          "time": 33.0882,
          "velocity": 0.44881889763779526
        },
        {
          "duration": 0.009191166666667527,
          "durationTicks": 1,
          "midi": 42,
          "name": "F#2",
          "ticks": 3624,
          "time": 33.308788,
          "velocity": 0.33858267716535434
        },
        {
          "duration": 0.009191166666667527,
          "durationTicks": 1,
          "midi": 42,
          "name": "F#2",
          "ticks": 3648,
          "time": 33.529376,
          "velocity": 0.48031496062992124
        },
        {
          "duration": 0.009191166666674633,
          "durationTicks": 1,
          "midi": 42,
          "name": "F#2",
          "ticks": 3672,
          "time": 33.749964,
          "velocity": 0.3464566929133858
        },
        {
          "duration": 0.009191166666674633,
          "durationTicks": 1,
          "midi": 42,
          "name": "F#2",
          "ticks": 3696,
          "time": 33.970552,
          "velocity": 0.4645669291338583
        },
        {
          "duration": 0.009191166666674633,
          "durationTicks": 1,
          "midi": 42,
          "name": "F#2",
          "ticks": 3720,
          "time": 34.19114,
          "velocity": 0.33070866141732286
        },
        {
          "duration": 0.009191166666674633,
          "durationTicks": 1,
          "midi": 42,
          "name": "F#2",
          "ticks": 3744,
          "time": 34.411728,
          "velocity": 0.4409448818897638
        },
        {
          "duration": 0.009191166666667527,
          "durationTicks": 1,
          "midi": 42,
          "name": "F#2",
          "ticks": 3768,
          "time": 34.632316,
          "velocity": 0.31496062992125984
        },
        {
          "duration": 0.009191166666667527,
          "durationTicks": 1,
          "midi": 42,
          "name": "F#2",
          "ticks": 3792,
          "time": 34.852904,
          "velocity": 0.4645669291338583
        },
        {
          "duration": 0.009191166666667527,
          "durationTicks": 1,
          "midi": 42,
          "name": "F#2",
          "ticks": 3816,
          "time": 35.073492,
          "velocity": 0.33858267716535434
        },
        {
          "duration": 0.009191166666667527,
          "durationTicks": 1,
          "midi": 42,
          "name": "F#2",
          "ticks": 3840,
          "time": 35.29408,
          "velocity": 0.44881889763779526
        },
        {
          "duration": 0.009191166666667527,
          "durationTicks": 1,
          "midi": 42,
          "name": "F#2",
          "ticks": 3864,
          "time": 35.514668,
          "velocity": 0.31496062992125984
        },
        {
          "duration": 0.009191166666667527,
          "durationTicks": 1,
          "midi": 42,
          "name": "F#2",
          "ticks": 3888,
          "time": 35.735256,
          "velocity": 0.4409448818897638
        },
        {
          "duration": 0.009191166666674633,
          "durationTicks": 1,
          "midi": 42,
          "name": "F#2",
          "ticks": 3912,
          "time": 35.955844,
          "velocity": 0.3464566929133858
        },
        {
          "duration": 0.009191166666674633,
          "durationTicks": 1,
          "midi": 42,
          "name": "F#2",
          "ticks": 3936,
          "time": 36.176432,
          "velocity": 0.4645669291338583
        },
        {
          "duration": 0.009191166666674633,
          "durationTicks": 1,
          "midi": 42,
          "name": "F#2",
          "ticks": 3960,
          "time": 36.39702,
          "velocity": 0.3228346456692913
        },
        {
          "duration": 0.009191166666674633,
          "durationTicks": 1,
          "midi": 42,
          "name": "F#2",
          "ticks": 3984,
          "time": 36.617608,
          "velocity": 0.47244094488188976
        },
        {
          "duration": 0.009191166666674633,
          "durationTicks": 1,
          "midi": 42,
          "name": "F#2",
          "ticks": 4008,
          "time": 36.838195999999996,
          "velocity": 0.33858267716535434
        },
        {
          "duration": 0.009191166666667527,
          "durationTicks": 1,
          "midi": 42,
          "name": "F#2",
          "ticks": 4032,
          "time": 37.058784,
          "velocity": 0.44881889763779526
        },
        {
          "duration": 0.009191166666667527,
          "durationTicks": 1,
          "midi": 42,
          "name": "F#2",
          "ticks": 4056,
          "time": 37.279372,
          "velocity": 0.3700787401574803
        },
        {
          "duration": 0.009191166666674633,
          "durationTicks": 1,
          "midi": 42,
          "name": "F#2",
          "ticks": 4068,
          "time": 37.389666,
          "velocity": 0.4409448818897638
        },
        {
          "duration": 0.009191166666667527,
          "durationTicks": 1,
          "midi": 46,
          "name": "A#2",
          "ticks": 4080,
          "time": 37.49996,
          "velocity": 0.48031496062992124
        },
        {
          "duration": 0.009191166666667527,
          "durationTicks": 1,
          "midi": 46,
          "name": "A#2",
          "ticks": 4104,
          "time": 37.720548,
          "velocity": 0.36220472440944884
        },
        {
          "duration": 0.009191166666667527,
          "durationTicks": 1,
          "midi": 46,
          "name": "A#2",
          "ticks": 4128,
          "time": 37.941136,
          "velocity": 0.33070866141732286
        },
        {
          "duration": 0.009191166666674633,
          "durationTicks": 1,
          "midi": 46,
          "name": "A#2",
          "ticks": 4152,
          "time": 38.161724,
          "velocity": 0.4409448818897638
        },
        {
          "duration": 0.009191166666674633,
          "durationTicks": 1,
          "midi": 42,
          "name": "F#2",
          "ticks": 4176,
          "time": 38.382312,
          "velocity": 0.47244094488188976
        },
        {
          "duration": 0.009191166666667527,
          "durationTicks": 1,
          "midi": 57,
          "name": "A3",
          "ticks": 4272,
          "time": 39.264664,
          "velocity": 0.4409448818897638
        },
        {
          "duration": 0.009191166666667527,
          "durationTicks": 1,
          "midi": 46,
          "name": "A#2",
          "ticks": 4296,
          "time": 39.485252,
          "velocity": 0.33070866141732286
        },
        {
          "duration": 0.009191166666667527,
          "durationTicks": 1,
          "midi": 42,
          "name": "F#2",
          "ticks": 4320,
          "time": 39.70584,
          "velocity": 0.2992125984251969
        },
        {
          "duration": 0.009191166666667527,
          "durationTicks": 1,
          "midi": 42,
          "name": "F#2",
          "ticks": 4344,
          "time": 39.926428,
          "velocity": 0.3543307086614173
        },
        {
          "duration": 0.009191166666674633,
          "durationTicks": 1,
          "midi": 42,
          "name": "F#2",
          "ticks": 4356,
          "time": 40.036722,
          "velocity": 0.4251968503937008
        },
        {
          "duration": 0.009191166666667527,
          "durationTicks": 1,
          "midi": 42,
          "name": "F#2",
          "ticks": 4368,
          "time": 40.147016,
          "velocity": 0.5511811023622047
        },
        {
          "duration": 0.009191166666674633,
          "durationTicks": 1,
          "midi": 42,
          "name": "F#2",
          "ticks": 4380,
          "time": 40.25731,
          "velocity": 0.33858267716535434
        },
        {
          "duration": 0.009191166666667527,
          "durationTicks": 1,
          "midi": 46,
          "name": "A#2",
          "ticks": 4392,
          "time": 40.367604,
          "velocity": 0.3464566929133858
        },
        {
          "duration": 0.009191166666674633,
          "durationTicks": 1,
          "midi": 42,
          "name": "F#2",
          "ticks": 4416,
          "time": 40.588192,
          "velocity": 0.4094488188976378
        },
        {
          "duration": 0.009191166666667527,
          "durationTicks": 1,
          "midi": 42,
          "name": "F#2",
          "ticks": 4428,
          "time": 40.698486,
          "velocity": 0.33858267716535434
        },
        {
          "duration": 0.009191166666674633,
          "durationTicks": 1,
          "midi": 46,
          "name": "A#2",
          "ticks": 4440,
          "time": 40.80878,
          "velocity": 0.36220472440944884
        },
        {
          "duration": 0.009191166666674633,
          "durationTicks": 1,
          "midi": 42,
          "name": "F#2",
          "ticks": 4464,
          "time": 41.029368,
          "velocity": 0.4409448818897638
        },
        {
          "duration": 0.009191166666674633,
          "durationTicks": 1,
          "midi": 46,
          "name": "A#2",
          "ticks": 4488,
          "time": 41.249956,
          "velocity": 0.3543307086614173
        },
        {
          "duration": 0.009191166666674633,
          "durationTicks": 1,
          "midi": 42,
          "name": "F#2",
          "ticks": 4512,
          "time": 41.470544,
          "velocity": 0.2992125984251969
        },
        {
          "duration": 0.009191166666667527,
          "durationTicks": 1,
          "midi": 42,
          "name": "F#2",
          "ticks": 4536,
          "time": 41.691132,
          "velocity": 0.3543307086614173
        },
        {
          "duration": 0.009191166666674633,
          "durationTicks": 1,
          "midi": 42,
          "name": "F#2",
          "ticks": 4548,
          "time": 41.801426,
          "velocity": 0.4251968503937008
        },
        {
          "duration": 0.009191166666667527,
          "durationTicks": 1,
          "midi": 42,
          "name": "F#2",
          "ticks": 4560,
          "time": 41.91172,
          "velocity": 0.5511811023622047
        },
        {
          "duration": 0.009191166666674633,
          "durationTicks": 1,
          "midi": 42,
          "name": "F#2",
          "ticks": 4572,
          "time": 42.022014,
          "velocity": 0.33858267716535434
        },
        {
          "duration": 0.009191166666667527,
          "durationTicks": 1,
          "midi": 46,
          "name": "A#2",
          "ticks": 4584,
          "time": 42.132308,
          "velocity": 0.3228346456692913
        },
        {
          "duration": 0.009191166666667527,
          "durationTicks": 1,
          "midi": 42,
          "name": "F#2",
          "ticks": 4608,
          "time": 42.352896,
          "velocity": 0.3937007874015748
        },
        {
          "duration": 0.009191166666674633,
          "durationTicks": 1,
          "midi": 42,
          "name": "F#2",
          "ticks": 4620,
          "time": 42.46319,
          "velocity": 0.33070866141732286
        },
        {
          "duration": 0.009191166666667527,
          "durationTicks": 1,
          "midi": 46,
          "name": "A#2",
          "ticks": 4632,
          "time": 42.573484,
          "velocity": 0.33070866141732286
        },
        {
          "duration": 0.009191166666667527,
          "durationTicks": 1,
          "midi": 42,
          "name": "F#2",
          "ticks": 4656,
          "time": 42.794072,
          "velocity": 0.4409448818897638
        },
        {
          "duration": 0.009191166666674633,
          "durationTicks": 1,
          "midi": 46,
          "name": "A#2",
          "ticks": 4680,
          "time": 43.01466,
          "velocity": 0.4251968503937008
        },
        {
          "duration": 0.009191166666674633,
          "durationTicks": 1,
          "midi": 42,
          "name": "F#2",
          "ticks": 4704,
          "time": 43.235248,
          "velocity": 0.2992125984251969
        },
        {
          "duration": 0.009191166666674633,
          "durationTicks": 1,
          "midi": 42,
          "name": "F#2",
          "ticks": 4728,
          "time": 43.455836,
          "velocity": 0.3543307086614173
        },
        {
          "duration": 0.009191166666667527,
          "durationTicks": 1,
          "midi": 42,
          "name": "F#2",
          "ticks": 4740,
          "time": 43.56613,
          "velocity": 0.4251968503937008
        },
        {
          "duration": 0.009191166666674633,
          "durationTicks": 1,
          "midi": 42,
          "name": "F#2",
          "ticks": 4752,
          "time": 43.676424,
          "velocity": 0.5511811023622047
        },
        {
          "duration": 0.009191166666667527,
          "durationTicks": 1,
          "midi": 42,
          "name": "F#2",
          "ticks": 4764,
          "time": 43.786718,
          "velocity": 0.33858267716535434
        },
        {
          "duration": 0.009191166666674633,
          "durationTicks": 1,
          "midi": 46,
          "name": "A#2",
          "ticks": 4776,
          "time": 43.897012,
          "velocity": 0.3228346456692913
        },
        {
          "duration": 0.009191166666667527,
          "durationTicks": 1,
          "midi": 42,
          "name": "F#2",
          "ticks": 4800,
          "time": 44.1176,
          "velocity": 0.3937007874015748
        },
        {
          "duration": 0.009191166666674633,
          "durationTicks": 1,
          "midi": 42,
          "name": "F#2",
          "ticks": 4812,
          "time": 44.227894,
          "velocity": 0.33070866141732286
        },
        {
          "duration": 0.009191166666667527,
          "durationTicks": 1,
          "midi": 46,
          "name": "A#2",
          "ticks": 4824,
          "time": 44.338188,
          "velocity": 0.33070866141732286
        },
        {
          "duration": 0.009191166666667527,
          "durationTicks": 1,
          "midi": 42,
          "name": "F#2",
          "ticks": 4848,
          "time": 44.558776,
          "velocity": 0.4409448818897638
        },
        {
          "duration": 0.009191166666667527,
          "durationTicks": 1,
          "midi": 46,
          "name": "A#2",
          "ticks": 4872,
          "time": 44.779364,
          "velocity": 0.3543307086614173
        },
        {
          "duration": 0.009191166666667527,
          "durationTicks": 1,
          "midi": 42,
          "name": "F#2",
          "ticks": 4896,
          "time": 44.999952,
          "velocity": 0.2992125984251969
        },
        {
          "duration": 0.009191166666674633,
          "durationTicks": 1,
          "midi": 42,
          "name": "F#2",
          "ticks": 4920,
          "time": 45.22054,
          "velocity": 0.3543307086614173
        },
        {
          "duration": 0.009191166666667527,
          "durationTicks": 1,
          "midi": 42,
          "name": "F#2",
          "ticks": 4932,
          "time": 45.330834,
          "velocity": 0.4251968503937008
        },
        {
          "duration": 0.009191166666674633,
          "durationTicks": 1,
          "midi": 42,
          "name": "F#2",
          "ticks": 4944,
          "time": 45.441128,
          "velocity": 0.5511811023622047
        },
        {
          "duration": 0.009191166666667527,
          "durationTicks": 1,
          "midi": 42,
          "name": "F#2",
          "ticks": 4956,
          "time": 45.551422,
          "velocity": 0.33858267716535434
        },
        {
          "duration": 0.009191166666674633,
          "durationTicks": 1,
          "midi": 46,
          "name": "A#2",
          "ticks": 4968,
          "time": 45.661716,
          "velocity": 0.3228346456692913
        },
        {
          "duration": 0.009191166666674633,
          "durationTicks": 1,
          "midi": 42,
          "name": "F#2",
          "ticks": 4992,
          "time": 45.882304,
          "velocity": 0.3937007874015748
        },
        {
          "duration": 0.009191166666667527,
          "durationTicks": 1,
          "midi": 42,
          "name": "F#2",
          "ticks": 5004,
          "time": 45.992598,
          "velocity": 0.33070866141732286
        },
        {
          "duration": 0.009191166666674633,
          "durationTicks": 1,
          "midi": 46,
          "name": "A#2",
          "ticks": 5016,
          "time": 46.102892,
          "velocity": 0.33070866141732286
        },
        {
          "duration": 0.009191166666667527,
          "durationTicks": 1,
          "midi": 57,
          "name": "A3",
          "ticks": 5040,
          "time": 46.32348,
          "velocity": 0.4409448818897638
        },
        {
          "duration": 0.009191166666667527,
          "durationTicks": 1,
          "midi": 46,
          "name": "A#2",
          "ticks": 5064,
          "time": 46.544068,
          "velocity": 0.33070866141732286
        },
        {
          "duration": 0.009191166666667527,
          "durationTicks": 1,
          "midi": 42,
          "name": "F#2",
          "ticks": 5088,
          "time": 46.764656,
          "velocity": 0.2992125984251969
        },
        {
          "duration": 0.009191166666667527,
          "durationTicks": 1,
          "midi": 42,
          "name": "F#2",
          "ticks": 5112,
          "time": 46.985244,
          "velocity": 0.3543307086614173
        },
        {
          "duration": 0.009191166666674633,
          "durationTicks": 1,
          "midi": 42,
          "name": "F#2",
          "ticks": 5124,
          "time": 47.095538,
          "velocity": 0.4251968503937008
        },
        {
          "duration": 0.009191166666667527,
          "durationTicks": 1,
          "midi": 42,
          "name": "F#2",
          "ticks": 5136,
          "time": 47.205832,
          "velocity": 0.5511811023622047
        },
        {
          "duration": 0.009191166666674633,
          "durationTicks": 1,
          "midi": 42,
          "name": "F#2",
          "ticks": 5148,
          "time": 47.316126,
          "velocity": 0.33858267716535434
        },
        {
          "duration": 0.009191166666667527,
          "durationTicks": 1,
          "midi": 46,
          "name": "A#2",
          "ticks": 5160,
          "time": 47.42642,
          "velocity": 0.3464566929133858
        },
        {
          "duration": 0.009191166666674633,
          "durationTicks": 1,
          "midi": 42,
          "name": "F#2",
          "ticks": 5184,
          "time": 47.647008,
          "velocity": 0.4094488188976378
        },
        {
          "duration": 0.009191166666667527,
          "durationTicks": 1,
          "midi": 42,
          "name": "F#2",
          "ticks": 5196,
          "time": 47.757302,
          "velocity": 0.33858267716535434
        },
        {
          "duration": 0.009191166666674633,
          "durationTicks": 1,
          "midi": 46,
          "name": "A#2",
          "ticks": 5208,
          "time": 47.867596,
          "velocity": 0.36220472440944884
        },
        {
          "duration": 0.009191166666674633,
          "durationTicks": 1,
          "midi": 42,
          "name": "F#2",
          "ticks": 5232,
          "time": 48.088184,
          "velocity": 0.4409448818897638
        },
        {
          "duration": 0.009191166666674633,
          "durationTicks": 1,
          "midi": 46,
          "name": "A#2",
          "ticks": 5256,
          "time": 48.308772,
          "velocity": 0.3543307086614173
        },
        {
          "duration": 0.009191166666674633,
          "durationTicks": 1,
          "midi": 42,
          "name": "F#2",
          "ticks": 5280,
          "time": 48.52936,
          "velocity": 0.2992125984251969
        },
        {
          "duration": 0.009191166666667527,
          "durationTicks": 1,
          "midi": 42,
          "name": "F#2",
          "ticks": 5304,
          "time": 48.749948,
          "velocity": 0.3543307086614173
        },
        {
          "duration": 0.009191166666674633,
          "durationTicks": 1,
          "midi": 42,
          "name": "F#2",
          "ticks": 5316,
          "time": 48.860242,
          "velocity": 0.4251968503937008
        },
        {
          "duration": 0.009191166666667527,
          "durationTicks": 1,
          "midi": 42,
          "name": "F#2",
          "ticks": 5328,
          "time": 48.970536,
          "velocity": 0.5511811023622047
        },
        {
          "duration": 0.009191166666674633,
          "durationTicks": 1,
          "midi": 42,
          "name": "F#2",
          "ticks": 5340,
          "time": 49.08083,
          "velocity": 0.33858267716535434
        },
        {
          "duration": 0.009191166666667527,
          "durationTicks": 1,
          "midi": 46,
          "name": "A#2",
          "ticks": 5352,
          "time": 49.191124,
          "velocity": 0.3228346456692913
        },
        {
          "duration": 0.009191166666667527,
          "durationTicks": 1,
          "midi": 42,
          "name": "F#2",
          "ticks": 5376,
          "time": 49.411712,
          "velocity": 0.3937007874015748
        },
        {
          "duration": 0.009191166666674633,
          "durationTicks": 1,
          "midi": 42,
          "name": "F#2",
          "ticks": 5388,
          "time": 49.522006,
          "velocity": 0.33070866141732286
        },
        {
          "duration": 0.009191166666667527,
          "durationTicks": 1,
          "midi": 46,
          "name": "A#2",
          "ticks": 5400,
          "time": 49.6323,
          "velocity": 0.33070866141732286
        },
        {
          "duration": 0.009191166666667527,
          "durationTicks": 1,
          "midi": 42,
          "name": "F#2",
          "ticks": 5424,
          "time": 49.852888,
          "velocity": 0.4409448818897638
        },
        {
          "duration": 0.009191166666674633,
          "durationTicks": 1,
          "midi": 46,
          "name": "A#2",
          "ticks": 5448,
          "time": 50.073476,
          "velocity": 0.4251968503937008
        },
        {
          "duration": 0.009191166666674633,
          "durationTicks": 1,
          "midi": 42,
          "name": "F#2",
          "ticks": 5472,
          "time": 50.294064,
          "velocity": 0.2992125984251969
        },
        {
          "duration": 0.009191166666674633,
          "durationTicks": 1,
          "midi": 42,
          "name": "F#2",
          "ticks": 5496,
          "time": 50.514652,
          "velocity": 0.3543307086614173
        },
        {
          "duration": 0.009191166666667527,
          "durationTicks": 1,
          "midi": 42,
          "name": "F#2",
          "ticks": 5508,
          "time": 50.624946,
          "velocity": 0.4251968503937008
        },
        {
          "duration": 0.009191166666674633,
          "durationTicks": 1,
          "midi": 42,
          "name": "F#2",
          "ticks": 5520,
          "time": 50.73524,
          "velocity": 0.5511811023622047
        },
        {
          "duration": 0.009191166666667527,
          "durationTicks": 1,
          "midi": 42,
          "name": "F#2",
          "ticks": 5532,
          "time": 50.845534,
          "velocity": 0.33858267716535434
        },
        {
          "duration": 0.009191166666674633,
          "durationTicks": 1,
          "midi": 46,
          "name": "A#2",
          "ticks": 5544,
          "time": 50.955828,
          "velocity": 0.3228346456692913
        },
        {
          "duration": 0.009191166666667527,
          "durationTicks": 1,
          "midi": 42,
          "name": "F#2",
          "ticks": 5568,
          "time": 51.176416,
          "velocity": 0.3937007874015748
        },
        {
          "duration": 0.009191166666674633,
          "durationTicks": 1,
          "midi": 42,
          "name": "F#2",
          "ticks": 5580,
          "time": 51.28671,
          "velocity": 0.33070866141732286
        },
        {
          "duration": 0.009191166666667527,
          "durationTicks": 1,
          "midi": 46,
          "name": "A#2",
          "ticks": 5592,
          "time": 51.397004,
          "velocity": 0.33070866141732286
        },
        {
          "duration": 0.009191166666667527,
          "durationTicks": 1,
          "midi": 42,
          "name": "F#2",
          "ticks": 5616,
          "time": 51.617592,
          "velocity": 0.4409448818897638
        },
        {
          "duration": 0.009191166666667527,
          "durationTicks": 1,
          "midi": 46,
          "name": "A#2",
          "ticks": 5640,
          "time": 51.83818,
          "velocity": 0.3543307086614173
        },
        {
          "duration": 0.009191166666667527,
          "durationTicks": 1,
          "midi": 42,
          "name": "F#2",
          "ticks": 5664,
          "time": 52.058768,
          "velocity": 0.5275590551181102
        },
        {
          "duration": 0.009191166666667527,
          "durationTicks": 1,
          "midi": 42,
          "name": "F#2",
          "ticks": 5676,
          "time": 52.169062000000004,
          "velocity": 0.3700787401574803
        },
        {
          "duration": 0.009191166666674633,
          "durationTicks": 1,
          "midi": 46,
          "name": "A#2",
          "ticks": 5688,
          "time": 52.279356,
          "velocity": 0.36220472440944884
        },
        {
          "duration": 0.009191166666674633,
          "durationTicks": 1,
          "midi": 42,
          "name": "F#2",
          "ticks": 5712,
          "time": 52.499944,
          "velocity": 0.4409448818897638
        },
        {
          "duration": 0.009191166666667527,
          "durationTicks": 1,
          "midi": 57,
          "name": "A3",
          "ticks": 5808,
          "time": 53.382296000000004,
          "velocity": 0.47244094488188976
        },
        {
          "duration": 0.009191166666667527,
          "durationTicks": 1,
          "midi": 42,
          "name": "F#2",
          "ticks": 5856,
          "time": 53.823472,
          "velocity": 0.48031496062992124
        },
        {
          "duration": 0.009191166666667527,
          "durationTicks": 1,
          "midi": 42,
          "name": "F#2",
          "ticks": 5880,
          "time": 54.04406,
          "velocity": 0.33070866141732286
        },
        {
          "duration": 0.009191166666667527,
          "durationTicks": 1,
          "midi": 42,
          "name": "F#2",
          "ticks": 5904,
          "time": 54.264648,
          "velocity": 0.44881889763779526
        },
        {
          "duration": 0.009191166666667527,
          "durationTicks": 1,
          "midi": 42,
          "name": "F#2",
          "ticks": 5928,
          "time": 54.485236,
          "velocity": 0.33858267716535434
        },
        {
          "duration": 0.009191166666674633,
          "durationTicks": 1,
          "midi": 42,
          "name": "F#2",
          "ticks": 5952,
          "time": 54.705824,
          "velocity": 0.48031496062992124
        },
        {
          "duration": 0.009191166666674633,
          "durationTicks": 1,
          "midi": 42,
          "name": "F#2",
          "ticks": 5976,
          "time": 54.926412,
          "velocity": 0.3464566929133858
        },
        {
          "duration": 0.009191166666674633,
          "durationTicks": 1,
          "midi": 42,
          "name": "F#2",
          "ticks": 6000,
          "time": 55.147,
          "velocity": 0.3937007874015748
        },
        {
          "duration": 0.009191166666674633,
          "durationTicks": 1,
          "midi": 42,
          "name": "F#2",
          "ticks": 6024,
          "time": 55.367588,
          "velocity": 0.33070866141732286
        },
        {
          "duration": 0.009191166666674633,
          "durationTicks": 1,
          "midi": 42,
          "name": "F#2",
          "ticks": 6048,
          "time": 55.588176,
          "velocity": 0.4409448818897638
        },
        {
          "duration": 0.009191166666667527,
          "durationTicks": 1,
          "midi": 42,
          "name": "F#2",
          "ticks": 6072,
          "time": 55.808764000000004,
          "velocity": 0.31496062992125984
        },
        {
          "duration": 0.009191166666667527,
          "durationTicks": 1,
          "midi": 42,
          "name": "F#2",
          "ticks": 6096,
          "time": 56.029352,
          "velocity": 0.4645669291338583
        },
        {
          "duration": 0.009191166666667527,
          "durationTicks": 1,
          "midi": 42,
          "name": "F#2",
          "ticks": 6120,
          "time": 56.24994,
          "velocity": 0.33858267716535434
        },
        {
          "duration": 0.009191166666667527,
          "durationTicks": 1,
          "midi": 42,
          "name": "F#2",
          "ticks": 6144,
          "time": 56.470528,
          "velocity": 0.44881889763779526
        },
        {
          "duration": 0.009191166666667527,
          "durationTicks": 1,
          "midi": 42,
          "name": "F#2",
          "ticks": 6168,
          "time": 56.691116,
          "velocity": 0.3937007874015748
        },
        {
          "duration": 0.009191166666667527,
          "durationTicks": 1,
          "midi": 42,
          "name": "F#2",
          "ticks": 6192,
          "time": 56.911704,
          "velocity": 0.4645669291338583
        },
        {
          "duration": 0.009191166666674633,
          "durationTicks": 1,
          "midi": 42,
          "name": "F#2",
          "ticks": 6216,
          "time": 57.132292,
          "velocity": 0.33070866141732286
        },
        {
          "duration": 0.009191166666674633,
          "durationTicks": 1,
          "midi": 42,
          "name": "F#2",
          "ticks": 6240,
          "time": 57.35288,
          "velocity": 0.4409448818897638
        },
        {
          "duration": 0.009191166666674633,
          "durationTicks": 1,
          "midi": 46,
          "name": "A#2",
          "ticks": 6264,
          "time": 57.573468,
          "velocity": 0.2755905511811024
        },
        {
          "duration": 0.009191166666674633,
          "durationTicks": 1,
          "midi": 42,
          "name": "F#2",
          "ticks": 6288,
          "time": 57.794056,
          "velocity": 0.33858267716535434
        },
        {
          "duration": 0.009191166666653316,
          "durationTicks": 1,
          "midi": 57,
          "name": "A3",
          "ticks": 6360,
          "time": 58.45582000000001,
          "velocity": 0.47244094488188976
        },
        {
          "duration": 0.009191166666660422,
          "durationTicks": 1,
          "midi": 49,
          "name": "C#3",
          "ticks": 6576,
          "time": 60.441112000000004,
          "velocity": 0.4881889763779528
        },
        {
          "duration": 0.009191166666660422,
          "durationTicks": 1,
          "midi": 46,
          "name": "A#2",
          "ticks": 6600,
          "time": 60.6617,
          "velocity": 0.5039370078740157
        },
        {
          "duration": 0.009191166666653316,
          "durationTicks": 1,
          "midi": 42,
          "name": "F#2",
          "ticks": 6624,
          "time": 60.88228800000001,
          "velocity": 0.4566929133858268
        },
        {
          "duration": 0.009191166666653316,
          "durationTicks": 1,
          "midi": 46,
          "name": "A#2",
          "ticks": 6648,
          "time": 61.10287600000001,
          "velocity": 0.4566929133858268
        },
        {
          "duration": 0.009191166666653316,
          "durationTicks": 1,
          "midi": 42,
          "name": "F#2",
          "ticks": 6672,
          "time": 61.32346400000001,
          "velocity": 0.4330708661417323
        },
        {
          "duration": 0.009191166666660422,
          "durationTicks": 1,
          "midi": 46,
          "name": "A#2",
          "ticks": 6696,
          "time": 61.54405200000001,
          "velocity": 0.4645669291338583
        },
        {
          "duration": 0.009191166666660422,
          "durationTicks": 1,
          "midi": 42,
          "name": "F#2",
          "ticks": 6720,
          "time": 61.76464000000001,
          "velocity": 0.4566929133858268
        },
        {
          "duration": 0.009191166666660422,
          "durationTicks": 1,
          "midi": 46,
          "name": "A#2",
          "ticks": 6744,
          "time": 61.985228000000006,
          "velocity": 0.5433070866141733
        },
        {
          "duration": 0.009191166666660422,
          "durationTicks": 1,
          "midi": 42,
          "name": "F#2",
          "ticks": 6768,
          "time": 62.205816000000006,
          "velocity": 0.4645669291338583
        },
        {
          "duration": 0.009191166666660422,
          "durationTicks": 1,
          "midi": 46,
          "name": "A#2",
          "ticks": 6792,
          "time": 62.426404000000005,
          "velocity": 0.48031496062992124
        },
        {
          "duration": 0.009191166666660422,
          "durationTicks": 1,
          "midi": 42,
          "name": "F#2",
          "ticks": 6816,
          "time": 62.646992000000004,
          "velocity": 0.4566929133858268
        },
        {
          "duration": 0.009191166666660422,
          "durationTicks": 1,
          "midi": 46,
          "name": "A#2",
          "ticks": 6840,
          "time": 62.867580000000004,
          "velocity": 0.4645669291338583
        },
        {
          "duration": 0.009191166666653316,
          "durationTicks": 1,
          "midi": 42,
          "name": "F#2",
          "ticks": 6864,
          "time": 63.08816800000001,
          "velocity": 0.4330708661417323
        },
        {
          "duration": 0.009191166666653316,
          "durationTicks": 1,
          "midi": 46,
          "name": "A#2",
          "ticks": 6888,
          "time": 63.30875600000001,
          "velocity": 0.4881889763779528
        },
        {
          "duration": 0.009191166666653316,
          "durationTicks": 1,
          "midi": 42,
          "name": "F#2",
          "ticks": 6912,
          "time": 63.52934400000001,
          "velocity": 0.4566929133858268
        },
        {
          "duration": 0.009191166666660422,
          "durationTicks": 1,
          "midi": 46,
          "name": "A#2",
          "ticks": 6936,
          "time": 63.74993200000001,
          "velocity": 0.5354330708661418
        },
        {
          "duration": 0.009191166666660422,
          "durationTicks": 1,
          "midi": 42,
          "name": "F#2",
          "ticks": 6960,
          "time": 63.97052000000001,
          "velocity": 0.4645669291338583
        },
        {
          "duration": 0.009191166666667527,
          "durationTicks": 1,
          "midi": 46,
          "name": "A#2",
          "ticks": 6984,
          "time": 64.191108,
          "velocity": 0.48031496062992124
        },
        {
          "duration": 0.009191166666653316,
          "durationTicks": 1,
          "midi": 42,
          "name": "F#2",
          "ticks": 7008,
          "time": 64.411696,
          "velocity": 0.4645669291338583
        },
        {
          "duration": 0.009191166666667527,
          "durationTicks": 1,
          "midi": 46,
          "name": "A#2",
          "ticks": 7032,
          "time": 64.632284,
          "velocity": 0.48031496062992124
        },
        {
          "duration": 0.009191166666653316,
          "durationTicks": 1,
          "midi": 42,
          "name": "F#2",
          "ticks": 7056,
          "time": 64.852872,
          "velocity": 0.4645669291338583
        },
        {
          "duration": 0.009191166666667527,
          "durationTicks": 1,
          "midi": 46,
          "name": "A#2",
          "ticks": 7080,
          "time": 65.07346,
          "velocity": 0.4881889763779528
        },
        {
          "duration": 0.009191166666653316,
          "durationTicks": 1,
          "midi": 42,
          "name": "F#2",
          "ticks": 7104,
          "time": 65.294048,
          "velocity": 0.4645669291338583
        },
        {
          "duration": 0.009191166666653316,
          "durationTicks": 1,
          "midi": 46,
          "name": "A#2",
          "ticks": 7128,
          "time": 65.51463600000001,
          "velocity": 0.48031496062992124
        },
        {
          "duration": 0.009191166666653316,
          "durationTicks": 1,
          "midi": 42,
          "name": "F#2",
          "ticks": 7152,
          "time": 65.735224,
          "velocity": 0.4645669291338583
        },
        {
          "duration": 0.009191166666667527,
          "durationTicks": 1,
          "midi": 46,
          "name": "A#2",
          "ticks": 7176,
          "time": 65.955812,
          "velocity": 0.48031496062992124
        },
        {
          "duration": 0.009191166666653316,
          "durationTicks": 1,
          "midi": 42,
          "name": "F#2",
          "ticks": 7200,
          "time": 66.1764,
          "velocity": 0.4645669291338583
        },
        {
          "duration": 0.009191166666667527,
          "durationTicks": 1,
          "midi": 46,
          "name": "A#2",
          "ticks": 7224,
          "time": 66.396988,
          "velocity": 0.48031496062992124
        },
        {
          "duration": 0.009191166666653316,
          "durationTicks": 1,
          "midi": 42,
          "name": "F#2",
          "ticks": 7248,
          "time": 66.617576,
          "velocity": 0.4645669291338583
        },
        {
          "duration": 0.009191166666653316,
          "durationTicks": 1,
          "midi": 46,
          "name": "A#2",
          "ticks": 7272,
          "time": 66.838164,
          "velocity": 0.5590551181102362
        },
        {
          "duration": 0.009191166666653316,
          "durationTicks": 1,
          "midi": 42,
          "name": "F#2",
          "ticks": 7296,
          "time": 67.058752,
          "velocity": 0.5905511811023622
        },
        {
          "duration": 0.009191166666667527,
          "durationTicks": 1,
          "midi": 57,
          "name": "A3",
          "ticks": 7344,
          "time": 67.499928,
          "velocity": 0.4566929133858268
        },
        {
          "duration": 0.009191166666653316,
          "durationTicks": 1,
          "midi": 46,
          "name": "A#2",
          "ticks": 7368,
          "time": 67.720516,
          "velocity": 0.5039370078740157
        },
        {
          "duration": 0.009191166666667527,
          "durationTicks": 1,
          "midi": 42,
          "name": "F#2",
          "ticks": 7392,
          "time": 67.941104,
          "velocity": 0.4566929133858268
        },
        {
          "duration": 0.009191166666653316,
          "durationTicks": 1,
          "midi": 46,
          "name": "A#2",
          "ticks": 7416,
          "time": 68.161692,
          "velocity": 0.4566929133858268
        },
        {
          "duration": 0.009191166666667527,
          "durationTicks": 1,
          "midi": 42,
          "name": "F#2",
          "ticks": 7440,
          "time": 68.38228,
          "velocity": 0.6141732283464567
        },
        {
          "duration": 0.009191166666653316,
          "durationTicks": 1,
          "midi": 46,
          "name": "A#2",
          "ticks": 7464,
          "time": 68.602868,
          "velocity": 0.4645669291338583
        },
        {
          "duration": 0.009191166666667527,
          "durationTicks": 1,
          "midi": 42,
          "name": "F#2",
          "ticks": 7488,
          "time": 68.823456,
          "velocity": 0.4566929133858268
        },
        {
          "duration": 0.009191166666653316,
          "durationTicks": 1,
          "midi": 46,
          "name": "A#2",
          "ticks": 7512,
          "time": 69.044044,
          "velocity": 0.5433070866141733
        },
        {
          "duration": 0.009191166666653316,
          "durationTicks": 1,
          "midi": 42,
          "name": "F#2",
          "ticks": 7536,
          "time": 69.264632,
          "velocity": 0.4645669291338583
        },
        {
          "duration": 0.009191166666653316,
          "durationTicks": 1,
          "midi": 46,
          "name": "A#2",
          "ticks": 7560,
          "time": 69.48522,
          "velocity": 0.48031496062992124
        },
        {
          "duration": 0.009191166666653316,
          "durationTicks": 1,
          "midi": 42,
          "name": "F#2",
          "ticks": 7584,
          "time": 69.705808,
          "velocity": 0.4566929133858268
        },
        {
          "duration": 0.009191166666667527,
          "durationTicks": 1,
          "midi": 46,
          "name": "A#2",
          "ticks": 7608,
          "time": 69.926396,
          "velocity": 0.4645669291338583
        },
        {
          "duration": 0.009191166666653316,
          "durationTicks": 1,
          "midi": 42,
          "name": "F#2",
          "ticks": 7632,
          "time": 70.146984,
          "velocity": 0.4330708661417323
        },
        {
          "duration": 0.009191166666667527,
          "durationTicks": 1,
          "midi": 46,
          "name": "A#2",
          "ticks": 7656,
          "time": 70.367572,
          "velocity": 0.4881889763779528
        },
        {
          "duration": 0.009191166666653316,
          "durationTicks": 1,
          "midi": 42,
          "name": "F#2",
          "ticks": 7680,
          "time": 70.58816,
          "velocity": 0.4566929133858268
        },
        {
          "duration": 0.009191166666667527,
          "durationTicks": 1,
          "midi": 46,
          "name": "A#2",
          "ticks": 7704,
          "time": 70.808748,
          "velocity": 0.5354330708661418
        },
        {
          "duration": 0.009191166666653316,
          "durationTicks": 1,
          "midi": 57,
          "name": "A3",
          "ticks": 7728,
          "time": 71.029336,
          "velocity": 0.4645669291338583
        },
        {
          "duration": 0.009191166666667527,
          "durationTicks": 1,
          "midi": 46,
          "name": "A#2",
          "ticks": 7752,
          "time": 71.249924,
          "velocity": 0.48031496062992124
        },
        {
          "duration": 0.009191166666653316,
          "durationTicks": 1,
          "midi": 42,
          "name": "F#2",
          "ticks": 7776,
          "time": 71.470512,
          "velocity": 0.4645669291338583
        },
        {
          "duration": 0.009191166666653316,
          "durationTicks": 1,
          "midi": 46,
          "name": "A#2",
          "ticks": 7800,
          "time": 71.6911,
          "velocity": 0.48031496062992124
        },
        {
          "duration": 0.009191166666653316,
          "durationTicks": 1,
          "midi": 42,
          "name": "F#2",
          "ticks": 7824,
          "time": 71.911688,
          "velocity": 0.4645669291338583
        },
        {
          "duration": 0.009191166666653316,
          "durationTicks": 1,
          "midi": 46,
          "name": "A#2",
          "ticks": 7848,
          "time": 72.132276,
          "velocity": 0.4881889763779528
        },
        {
          "duration": 0.009191166666667527,
          "durationTicks": 1,
          "midi": 42,
          "name": "F#2",
          "ticks": 7872,
          "time": 72.352864,
          "velocity": 0.4645669291338583
        },
        {
          "duration": 0.009191166666653316,
          "durationTicks": 1,
          "midi": 46,
          "name": "A#2",
          "ticks": 7896,
          "time": 72.573452,
          "velocity": 0.48031496062992124
        },
        {
          "duration": 0.009191166666667527,
          "durationTicks": 1,
          "midi": 49,
          "name": "C#3",
          "ticks": 7920,
          "time": 72.79404,
          "velocity": 0.4251968503937008
        },
        {
          "duration": 0.009191166666653316,
          "durationTicks": 1,
          "midi": 46,
          "name": "A#2",
          "ticks": 7944,
          "time": 73.014628,
          "velocity": 0.4566929133858268
        },
        {
          "duration": 0.009191166666667527,
          "durationTicks": 1,
          "midi": 46,
          "name": "A#2",
          "ticks": 7968,
          "time": 73.235216,
          "velocity": 0.4094488188976378
        },
        {
          "duration": 0.009191166666653316,
          "durationTicks": 1,
          "midi": 46,
          "name": "A#2",
          "ticks": 7992,
          "time": 73.455804,
          "velocity": 0.5196850393700787
        },
        {
          "duration": 0.009191166666653316,
          "durationTicks": 1,
          "midi": 42,
          "name": "F#2",
          "ticks": 8016,
          "time": 73.676392,
          "velocity": 0.4881889763779528
        },
        {
          "duration": 0.009191166666653316,
          "durationTicks": 1,
          "midi": 42,
          "name": "F#2",
          "ticks": 8040,
          "time": 73.89698,
          "velocity": 0.49606299212598426
        },
        {
          "duration": 0.009191166666653316,
          "durationTicks": 1,
          "midi": 57,
          "name": "A3",
          "ticks": 8064,
          "time": 74.117568,
          "velocity": 0.44881889763779526
        },
        {
          "duration": 0.009191166666667527,
          "durationTicks": 1,
          "midi": 46,
          "name": "A#2",
          "ticks": 8088,
          "time": 74.338156,
          "velocity": 0.4566929133858268
        },
        {
          "duration": 0.009191166666653316,
          "durationTicks": 1,
          "midi": 57,
          "name": "A3",
          "ticks": 8112,
          "time": 74.558744,
          "velocity": 0.4881889763779528
        },
        {
          "duration": 0.009191166666653316,
          "durationTicks": 1,
          "midi": 49,
          "name": "C#3",
          "ticks": 8160,
          "time": 74.99992,
          "velocity": 0.4566929133858268
        },
        {
          "duration": 0.009191166666653316,
          "durationTicks": 1,
          "midi": 42,
          "name": "F#2",
          "ticks": 8208,
          "time": 75.441096,
          "velocity": 0.4330708661417323
        },
        {
          "duration": 0.009191166666667527,
          "durationTicks": 1,
          "midi": 46,
          "name": "A#2",
          "ticks": 8232,
          "time": 75.661684,
          "velocity": 0.4645669291338583
        },
        {
          "duration": 0.009191166666653316,
          "durationTicks": 1,
          "midi": 42,
          "name": "F#2",
          "ticks": 8256,
          "time": 75.882272,
          "velocity": 0.4566929133858268
        },
        {
          "duration": 0.009191166666653316,
          "durationTicks": 1,
          "midi": 46,
          "name": "A#2",
          "ticks": 8280,
          "time": 76.10286,
          "velocity": 0.5433070866141733
        },
        {
          "duration": 0.009191166666653316,
          "durationTicks": 1,
          "midi": 42,
          "name": "F#2",
          "ticks": 8304,
          "time": 76.323448,
          "velocity": 0.4645669291338583
        },
        {
          "duration": 0.009191166666653316,
          "durationTicks": 1,
          "midi": 46,
          "name": "A#2",
          "ticks": 8328,
          "time": 76.544036,
          "velocity": 0.48031496062992124
        },
        {
          "duration": 0.009191166666667527,
          "durationTicks": 1,
          "midi": 42,
          "name": "F#2",
          "ticks": 8352,
          "time": 76.764624,
          "velocity": 0.4566929133858268
        },
        {
          "duration": 0.009191166666653316,
          "durationTicks": 1,
          "midi": 46,
          "name": "A#2",
          "ticks": 8376,
          "time": 76.985212,
          "velocity": 0.4645669291338583
        },
        {
          "duration": 0.009191166666667527,
          "durationTicks": 1,
          "midi": 42,
          "name": "F#2",
          "ticks": 8400,
          "time": 77.2058,
          "velocity": 0.4330708661417323
        },
        {
          "duration": 0.009191166666653316,
          "durationTicks": 1,
          "midi": 46,
          "name": "A#2",
          "ticks": 8424,
          "time": 77.426388,
          "velocity": 0.4881889763779528
        },
        {
          "duration": 0.009191166666667527,
          "durationTicks": 1,
          "midi": 42,
          "name": "F#2",
          "ticks": 8448,
          "time": 77.646976,
          "velocity": 0.4566929133858268
        },
        {
          "duration": 0.009191166666653316,
          "durationTicks": 1,
          "midi": 46,
          "name": "A#2",
          "ticks": 8472,
          "time": 77.867564,
          "velocity": 0.5354330708661418
        },
        {
          "duration": 0.009191166666667527,
          "durationTicks": 1,
          "midi": 42,
          "name": "F#2",
          "ticks": 8496,
          "time": 78.088152,
          "velocity": 0.4645669291338583
        },
        {
          "duration": 0.009191166666653316,
          "durationTicks": 1,
          "midi": 46,
          "name": "A#2",
          "ticks": 8520,
          "time": 78.30874,
          "velocity": 0.48031496062992124
        },
        {
          "duration": 0.009191166666653316,
          "durationTicks": 1,
          "midi": 42,
          "name": "F#2",
          "ticks": 8544,
          "time": 78.529328,
          "velocity": 0.4645669291338583
        },
        {
          "duration": 0.009191166666653316,
          "durationTicks": 1,
          "midi": 46,
          "name": "A#2",
          "ticks": 8568,
          "time": 78.749916,
          "velocity": 0.48031496062992124
        },
        {
          "duration": 0.009191166666653316,
          "durationTicks": 1,
          "midi": 42,
          "name": "F#2",
          "ticks": 8592,
          "time": 78.970504,
          "velocity": 0.4645669291338583
        },
        {
          "duration": 0.009191166666667527,
          "durationTicks": 1,
          "midi": 46,
          "name": "A#2",
          "ticks": 8616,
          "time": 79.191092,
          "velocity": 0.4881889763779528
        },
        {
          "duration": 0.009191166666653316,
          "durationTicks": 1,
          "midi": 42,
          "name": "F#2",
          "ticks": 8640,
          "time": 79.41168,
          "velocity": 0.4645669291338583
        },
        {
          "duration": 0.009191166666667527,
          "durationTicks": 1,
          "midi": 46,
          "name": "A#2",
          "ticks": 8664,
          "time": 79.632268,
          "velocity": 0.48031496062992124
        },
        {
          "duration": 0.009191166666653316,
          "durationTicks": 1,
          "midi": 42,
          "name": "F#2",
          "ticks": 8688,
          "time": 79.852856,
          "velocity": 0.4645669291338583
        },
        {
          "duration": 0.009191166666667527,
          "durationTicks": 1,
          "midi": 46,
          "name": "A#2",
          "ticks": 8712,
          "time": 80.073444,
          "velocity": 0.48031496062992124
        },
        {
          "duration": 0.009191166666653316,
          "durationTicks": 1,
          "midi": 42,
          "name": "F#2",
          "ticks": 8736,
          "time": 80.294032,
          "velocity": 0.4645669291338583
        },
        {
          "duration": 0.009191166666667527,
          "durationTicks": 1,
          "midi": 46,
          "name": "A#2",
          "ticks": 8760,
          "time": 80.51462,
          "velocity": 0.48031496062992124
        },
        {
          "duration": 0.009191166666653316,
          "durationTicks": 1,
          "midi": 42,
          "name": "F#2",
          "ticks": 8784,
          "time": 80.735208,
          "velocity": 0.4645669291338583
        },
        {
          "duration": 0.009191166666653316,
          "durationTicks": 1,
          "midi": 46,
          "name": "A#2",
          "ticks": 8808,
          "time": 80.955796,
          "velocity": 0.5433070866141733
        },
        {
          "duration": 0.009191166666653316,
          "durationTicks": 1,
          "midi": 42,
          "name": "F#2",
          "ticks": 8832,
          "time": 81.176384,
          "velocity": 0.5669291338582677
        },
        {
          "duration": 0.009191166666667527,
          "durationTicks": 1,
          "midi": 49,
          "name": "C#3",
          "ticks": 8880,
          "time": 81.61756,
          "velocity": 0.4094488188976378
        },
        {
          "duration": 0.009191166666653316,
          "durationTicks": 1,
          "midi": 46,
          "name": "A#2",
          "ticks": 8904,
          "time": 81.838148,
          "velocity": 0.5039370078740157
        },
        {
          "duration": 0.009191166666667527,
          "durationTicks": 1,
          "midi": 42,
          "name": "F#2",
          "ticks": 8928,
          "time": 82.058736,
          "velocity": 0.4566929133858268
        },
        {
          "duration": 0.009191166666653316,
          "durationTicks": 1,
          "midi": 46,
          "name": "A#2",
          "ticks": 8952,
          "time": 82.279324,
          "velocity": 0.4566929133858268
        },
        {
          "duration": 0.009191166666667527,
          "durationTicks": 1,
          "midi": 42,
          "name": "F#2",
          "ticks": 8976,
          "time": 82.499912,
          "velocity": 0.4330708661417323
        },
        {
          "duration": 0.009191166666653316,
          "durationTicks": 1,
          "midi": 46,
          "name": "A#2",
          "ticks": 9000,
          "time": 82.7205,
          "velocity": 0.4645669291338583
        },
        {
          "duration": 0.009191166666667527,
          "durationTicks": 1,
          "midi": 42,
          "name": "F#2",
          "ticks": 9024,
          "time": 82.941088,
          "velocity": 0.4566929133858268
        },
        {
          "duration": 0.009191166666653316,
          "durationTicks": 1,
          "midi": 46,
          "name": "A#2",
          "ticks": 9048,
          "time": 83.161676,
          "velocity": 0.5196850393700787
        },
        {
          "duration": 0.009191166666653316,
          "durationTicks": 1,
          "midi": 42,
          "name": "F#2",
          "ticks": 9072,
          "time": 83.382264,
          "velocity": 0.4645669291338583
        },
        {
          "duration": 0.009191166666653316,
          "durationTicks": 1,
          "midi": 46,
          "name": "A#2",
          "ticks": 9096,
          "time": 83.602852,
          "velocity": 0.48031496062992124
        },
        {
          "duration": 0.009191166666653316,
          "durationTicks": 1,
          "midi": 42,
          "name": "F#2",
          "ticks": 9120,
          "time": 83.82344,
          "velocity": 0.4645669291338583
        },
        {
          "duration": 0.009191166666667527,
          "durationTicks": 1,
          "midi": 46,
          "name": "A#2",
          "ticks": 9144,
          "time": 84.044028,
          "velocity": 0.48031496062992124
        },
        {
          "duration": 0.009191166666653316,
          "durationTicks": 1,
          "midi": 42,
          "name": "F#2",
          "ticks": 9168,
          "time": 84.264616,
          "velocity": 0.4645669291338583
        },
        {
          "duration": 0.009191166666667527,
          "durationTicks": 1,
          "midi": 46,
          "name": "A#2",
          "ticks": 9192,
          "time": 84.485204,
          "velocity": 0.5275590551181102
        },
        {
          "duration": 0.009191166666653316,
          "durationTicks": 1,
          "midi": 42,
          "name": "F#2",
          "ticks": 9216,
          "time": 84.705792,
          "velocity": 0.4645669291338583
        },
        {
          "duration": 0.009191166666667527,
          "durationTicks": 1,
          "midi": 46,
          "name": "A#2",
          "ticks": 9240,
          "time": 84.92638,
          "velocity": 0.4645669291338583
        },
        {
          "duration": 0.009191166666653316,
          "durationTicks": 1,
          "midi": 57,
          "name": "A3",
          "ticks": 9264,
          "time": 85.146968,
          "velocity": 0.49606299212598426
        },
        {
          "duration": 0.009191166666667527,
          "durationTicks": 1,
          "midi": 46,
          "name": "A#2",
          "ticks": 9288,
          "time": 85.367556,
          "velocity": 0.5039370078740157
        },
        {
          "duration": 0.009191166666653316,
          "durationTicks": 1,
          "midi": 42,
          "name": "F#2",
          "ticks": 9312,
          "time": 85.588144,
          "velocity": 0.4566929133858268
        },
        {
          "duration": 0.009191166666653316,
          "durationTicks": 1,
          "midi": 46,
          "name": "A#2",
          "ticks": 9336,
          "time": 85.808732,
          "velocity": 0.4566929133858268
        },
        {
          "duration": 0.009191166666653316,
          "durationTicks": 1,
          "midi": 42,
          "name": "F#2",
          "ticks": 9360,
          "time": 86.02932,
          "velocity": 0.4330708661417323
        },
        {
          "duration": 0.009191166666653316,
          "durationTicks": 1,
          "midi": 46,
          "name": "A#2",
          "ticks": 9384,
          "time": 86.249908,
          "velocity": 0.4645669291338583
        },
        {
          "duration": 0.009191166666667527,
          "durationTicks": 1,
          "midi": 42,
          "name": "F#2",
          "ticks": 9408,
          "time": 86.470496,
          "velocity": 0.4566929133858268
        },
        {
          "duration": 0.009191166666653316,
          "durationTicks": 1,
          "midi": 46,
          "name": "A#2",
          "ticks": 9432,
          "time": 86.691084,
          "velocity": 0.5196850393700787
        },
        {
          "duration": 0.009191166666667527,
          "durationTicks": 1,
          "midi": 57,
          "name": "A3",
          "ticks": 9456,
          "time": 86.911672,
          "velocity": 0.4645669291338583
        },
        {
          "duration": 0.009191166666653316,
          "durationTicks": 1,
          "midi": 46,
          "name": "A#2",
          "ticks": 9480,
          "time": 87.13226,
          "velocity": 0.4881889763779528
        },
        {
          "duration": 0.009191166666667527,
          "durationTicks": 1,
          "midi": 57,
          "name": "A3",
          "ticks": 9504,
          "time": 87.352848,
          "velocity": 0.49606299212598426
        },
        {
          "duration": 0.009191166666667527,
          "durationTicks": 1,
          "midi": 46,
          "name": "A#2",
          "ticks": 9542,
          "time": 87.70211233333333,
          "velocity": 0.3858267716535433
        },
        {
          "duration": 0.009191166666653316,
          "durationTicks": 1,
          "midi": 46,
          "name": "A#2",
          "ticks": 9552,
          "time": 87.79402400000001,
          "velocity": 0.5511811023622047
        },
        {
          "duration": 0.009191166666653316,
          "durationTicks": 1,
          "midi": 57,
          "name": "A3",
          "ticks": 9576,
          "time": 88.014612,
          "velocity": 0.4409448818897638
        },
        {
          "duration": 0.009191166666653316,
          "durationTicks": 1,
          "midi": 46,
          "name": "A#2",
          "ticks": 9600,
          "time": 88.2352,
          "velocity": 0.4881889763779528
        },
        {
          "duration": 0.009191166666653316,
          "durationTicks": 1,
          "midi": 57,
          "name": "A3",
          "ticks": 9648,
          "time": 88.676376,
          "velocity": 0.47244094488188976
        },
        {
          "duration": 0.009191166666653316,
          "durationTicks": 1,
          "midi": 42,
          "name": "F#2",
          "ticks": 9696,
          "time": 89.117552,
          "velocity": 0.5039370078740157
        },
        {
          "duration": 0.009191166666667527,
          "durationTicks": 1,
          "midi": 42,
          "name": "F#2",
          "ticks": 9720,
          "time": 89.33814,
          "velocity": 0.33070866141732286
        },
        {
          "duration": 0.009191166666653316,
          "durationTicks": 1,
          "midi": 42,
          "name": "F#2",
          "ticks": 9744,
          "time": 89.558728,
          "velocity": 0.44881889763779526
        },
        {
          "duration": 0.009191166666667527,
          "durationTicks": 1,
          "midi": 42,
          "name": "F#2",
          "ticks": 9768,
          "time": 89.779316,
          "velocity": 0.33858267716535434
        },
        {
          "duration": 0.009191166666653316,
          "durationTicks": 1,
          "midi": 42,
          "name": "F#2",
          "ticks": 9792,
          "time": 89.999904,
          "velocity": 0.48031496062992124
        },
        {
          "duration": 0.009191166666653316,
          "durationTicks": 1,
          "midi": 42,
          "name": "F#2",
          "ticks": 9816,
          "time": 90.22049200000001,
          "velocity": 0.3464566929133858
        },
        {
          "duration": 0.009191166666653316,
          "durationTicks": 1,
          "midi": 42,
          "name": "F#2",
          "ticks": 9840,
          "time": 90.44108,
          "velocity": 0.4645669291338583
        },
        {
          "duration": 0.009191166666653316,
          "durationTicks": 1,
          "midi": 42,
          "name": "F#2",
          "ticks": 9864,
          "time": 90.661668,
          "velocity": 0.33070866141732286
        },
        {
          "duration": 0.009191166666667527,
          "durationTicks": 1,
          "midi": 42,
          "name": "F#2",
          "ticks": 9888,
          "time": 90.882256,
          "velocity": 0.4409448818897638
        },
        {
          "duration": 0.009191166666653316,
          "durationTicks": 1,
          "midi": 42,
          "name": "F#2",
          "ticks": 9912,
          "time": 91.102844,
          "velocity": 0.31496062992125984
        },
        {
          "duration": 0.009191166666667527,
          "durationTicks": 1,
          "midi": 42,
          "name": "F#2",
          "ticks": 9936,
          "time": 91.323432,
          "velocity": 0.4645669291338583
        },
        {
          "duration": 0.009191166666653316,
          "durationTicks": 1,
          "midi": 42,
          "name": "F#2",
          "ticks": 9960,
          "time": 91.54402,
          "velocity": 0.33858267716535434
        },
        {
          "duration": 0.009191166666667527,
          "durationTicks": 1,
          "midi": 42,
          "name": "F#2",
          "ticks": 9984,
          "time": 91.764608,
          "velocity": 0.44881889763779526
        },
        {
          "duration": 0.009191166666653316,
          "durationTicks": 1,
          "midi": 42,
          "name": "F#2",
          "ticks": 10008,
          "time": 91.985196,
          "velocity": 0.31496062992125984
        },
        {
          "duration": 0.009191166666667527,
          "durationTicks": 1,
          "midi": 42,
          "name": "F#2",
          "ticks": 10032,
          "time": 92.205784,
          "velocity": 0.4645669291338583
        },
        {
          "duration": 0.009191166666653316,
          "durationTicks": 1,
          "midi": 42,
          "name": "F#2",
          "ticks": 10056,
          "time": 92.426372,
          "velocity": 0.33070866141732286
        },
        {
          "duration": 0.009191166666653316,
          "durationTicks": 1,
          "midi": 42,
          "name": "F#2",
          "ticks": 10080,
          "time": 92.64696,
          "velocity": 0.4409448818897638
        },
        {
          "duration": 0.009191166666653316,
          "durationTicks": 1,
          "midi": 42,
          "name": "F#2",
          "ticks": 10104,
          "time": 92.867548,
          "velocity": 0.31496062992125984
        },
        {
          "duration": 0.009191166666653316,
          "durationTicks": 1,
          "midi": 42,
          "name": "F#2",
          "ticks": 10128,
          "time": 93.088136,
          "velocity": 0.4645669291338583
        },
        {
          "duration": 0.009191166666667527,
          "durationTicks": 1,
          "midi": 42,
          "name": "F#2",
          "ticks": 10152,
          "time": 93.308724,
          "velocity": 0.33858267716535434
        },
        {
          "duration": 0.009191166666653316,
          "durationTicks": 1,
          "midi": 42,
          "name": "F#2",
          "ticks": 10176,
          "time": 93.529312,
          "velocity": 0.44881889763779526
        },
        {
          "duration": 0.009191166666667527,
          "durationTicks": 1,
          "midi": 42,
          "name": "F#2",
          "ticks": 10200,
          "time": 93.7499,
          "velocity": 0.31496062992125984
        },
        {
          "duration": 0.009191166666653316,
          "durationTicks": 1,
          "midi": 42,
          "name": "F#2",
          "ticks": 10224,
          "time": 93.970488,
          "velocity": 0.4409448818897638
        },
        {
          "duration": 0.009191166666667527,
          "durationTicks": 1,
          "midi": 42,
          "name": "F#2",
          "ticks": 10248,
          "time": 94.191076,
          "velocity": 0.31496062992125984
        },
        {
          "duration": 0.009191166666653316,
          "durationTicks": 1,
          "midi": 42,
          "name": "F#2",
          "ticks": 10272,
          "time": 94.411664,
          "velocity": 0.4566929133858268
        },
        {
          "duration": 0.009191166666667527,
          "durationTicks": 1,
          "midi": 42,
          "name": "F#2",
          "ticks": 10296,
          "time": 94.632252,
          "velocity": 0.31496062992125984
        },
        {
          "duration": 0.009191166666653316,
          "durationTicks": 1,
          "midi": 42,
          "name": "F#2",
          "ticks": 10320,
          "time": 94.85284,
          "velocity": 0.47244094488188976
        },
        {
          "duration": 0.009191166666653316,
          "durationTicks": 1,
          "midi": 42,
          "name": "F#2",
          "ticks": 10344,
          "time": 95.073428,
          "velocity": 0.3228346456692913
        },
        {
          "duration": 0.009191166666653316,
          "durationTicks": 1,
          "midi": 46,
          "name": "A#2",
          "ticks": 10392,
          "time": 95.514604,
          "velocity": 0.36220472440944884
        },
        {
          "duration": 0.009191166666667527,
          "durationTicks": 1,
          "midi": 57,
          "name": "A3",
          "ticks": 10416,
          "time": 95.735192,
          "velocity": 0.47244094488188976
        },
        {
          "duration": 0.009191166666653316,
          "durationTicks": 1,
          "midi": 42,
          "name": "F#2",
          "ticks": 10440,
          "time": 95.95578,
          "velocity": 0.3543307086614173
        },
        {
          "duration": 0.009191166666667527,
          "durationTicks": 1,
          "midi": 42,
          "name": "F#2",
          "ticks": 10464,
          "time": 96.176368,
          "velocity": 0.48031496062992124
        },
        {
          "duration": 0.009191166666653316,
          "durationTicks": 1,
          "midi": 42,
          "name": "F#2",
          "ticks": 10488,
          "time": 96.396956,
          "velocity": 0.33070866141732286
        },
        {
          "duration": 0.009191166666667527,
          "durationTicks": 1,
          "midi": 42,
          "name": "F#2",
          "ticks": 10512,
          "time": 96.617544,
          "velocity": 0.44881889763779526
        },
        {
          "duration": 0.009191166666653316,
          "durationTicks": 1,
          "midi": 42,
          "name": "F#2",
          "ticks": 10536,
          "time": 96.838132,
          "velocity": 0.33858267716535434
        },
        {
          "duration": 0.009191166666667527,
          "durationTicks": 1,
          "midi": 42,
          "name": "F#2",
          "ticks": 10560,
          "time": 97.05872,
          "velocity": 0.48031496062992124
        },
        {
          "duration": 0.009191166666653316,
          "durationTicks": 1,
          "midi": 42,
          "name": "F#2",
          "ticks": 10584,
          "time": 97.279308,
          "velocity": 0.3464566929133858
        },
        {
          "duration": 0.009191166666653316,
          "durationTicks": 1,
          "midi": 42,
          "name": "F#2",
          "ticks": 10608,
          "time": 97.499896,
          "velocity": 0.4645669291338583
        },
        {
          "duration": 0.009191166666653316,
          "durationTicks": 1,
          "midi": 42,
          "name": "F#2",
          "ticks": 10632,
          "time": 97.720484,
          "velocity": 0.33070866141732286
        },
        {
          "duration": 0.009191166666653316,
          "durationTicks": 1,
          "midi": 42,
          "name": "F#2",
          "ticks": 10656,
          "time": 97.941072,
          "velocity": 0.4409448818897638
        },
        {
          "duration": 0.009191166666667527,
          "durationTicks": 1,
          "midi": 42,
          "name": "F#2",
          "ticks": 10680,
          "time": 98.16166,
          "velocity": 0.31496062992125984
        },
        {
          "duration": 0.009191166666653316,
          "durationTicks": 1,
          "midi": 42,
          "name": "F#2",
          "ticks": 10704,
          "time": 98.382248,
          "velocity": 0.4645669291338583
        },
        {
          "duration": 0.009191166666667527,
          "durationTicks": 1,
          "midi": 42,
          "name": "F#2",
          "ticks": 10728,
          "time": 98.602836,
          "velocity": 0.33858267716535434
        },
        {
          "duration": 0.009191166666653316,
          "durationTicks": 1,
          "midi": 42,
          "name": "F#2",
          "ticks": 10752,
          "time": 98.823424,
          "velocity": 0.44881889763779526
        },
        {
          "duration": 0.009191166666667527,
          "durationTicks": 1,
          "midi": 42,
          "name": "F#2",
          "ticks": 10776,
          "time": 99.044012,
          "velocity": 0.31496062992125984
        },
        {
          "duration": 0.009191166666653316,
          "durationTicks": 1,
          "midi": 42,
          "name": "F#2",
          "ticks": 10800,
          "time": 99.2646,
          "velocity": 0.4409448818897638
        },
        {
          "duration": 0.009191166666667527,
          "durationTicks": 1,
          "midi": 42,
          "name": "F#2",
          "ticks": 10824,
          "time": 99.485188,
          "velocity": 0.3464566929133858
        },
        {
          "duration": 0.009191166666653316,
          "durationTicks": 1,
          "midi": 42,
          "name": "F#2",
          "ticks": 10848,
          "time": 99.705776,
          "velocity": 0.4645669291338583
        },
        {
          "duration": 0.009191166666653316,
          "durationTicks": 1,
          "midi": 42,
          "name": "F#2",
          "ticks": 10872,
          "time": 99.926364,
          "velocity": 0.3228346456692913
        },
        {
          "duration": 0.009191166666653316,
          "durationTicks": 1,
          "midi": 42,
          "name": "F#2",
          "ticks": 10896,
          "time": 100.146952,
          "velocity": 0.47244094488188976
        },
        {
          "duration": 0.009191166666653316,
          "durationTicks": 1,
          "midi": 42,
          "name": "F#2",
          "ticks": 10920,
          "time": 100.36754,
          "velocity": 0.33858267716535434
        },
        {
          "duration": 0.009191166666667527,
          "durationTicks": 1,
          "midi": 42,
          "name": "F#2",
          "ticks": 10944,
          "time": 100.588128,
          "velocity": 0.44881889763779526
        },
        {
          "duration": 0.009191166666653316,
          "durationTicks": 1,
          "midi": 42,
          "name": "F#2",
          "ticks": 10968,
          "time": 100.808716,
          "velocity": 0.3700787401574803
        },
        {
          "duration": 0.009191166666653316,
          "durationTicks": 1,
          "midi": 42,
          "name": "F#2",
          "ticks": 10980,
          "time": 100.91901,
          "velocity": 0.4409448818897638
        },
        {
          "duration": 0.009191166666667527,
          "durationTicks": 1,
          "midi": 46,
          "name": "A#2",
          "ticks": 10992,
          "time": 101.029304,
          "velocity": 0.4409448818897638
        },
        {
          "duration": 0.009191166666653316,
          "durationTicks": 1,
          "midi": 46,
          "name": "A#2",
          "ticks": 11016,
          "time": 101.249892,
          "velocity": 0.36220472440944884
        },
        {
          "duration": 0.009191166666667527,
          "durationTicks": 1,
          "midi": 46,
          "name": "A#2",
          "ticks": 11040,
          "time": 101.47048,
          "velocity": 0.3858267716535433
        },
        {
          "duration": 0.009191166666653316,
          "durationTicks": 1,
          "midi": 46,
          "name": "A#2",
          "ticks": 11064,
          "time": 101.691068,
          "velocity": 0.4409448818897638
        },
        {
          "duration": 0.009191166666653316,
          "durationTicks": 1,
          "midi": 42,
          "name": "F#2",
          "ticks": 11088,
          "time": 101.91165600000001,
          "velocity": 0.47244094488188976
        },
        {
          "duration": 0.009191166666653316,
          "durationTicks": 1,
          "midi": 57,
          "name": "A3",
          "ticks": 11184,
          "time": 102.794008,
          "velocity": 0.4881889763779528
        },
        {
          "duration": 0.009191166666653316,
          "durationTicks": 1,
          "midi": 46,
          "name": "A#2",
          "ticks": 11232,
          "time": 103.235184,
          "velocity": 0.3700787401574803
        },
        {
          "duration": 0.009191166666667527,
          "durationTicks": 1,
          "midi": 53,
          "name": "F3",
          "ticks": 11256,
          "time": 103.455772,
          "velocity": 0.4330708661417323
        },
        {
          "duration": 0.009191166666653316,
          "durationTicks": 1,
          "midi": 46,
          "name": "A#2",
          "ticks": 11280,
          "time": 103.67636,
          "velocity": 0.33858267716535434
        },
        {
          "duration": 0.009191166666667527,
          "durationTicks": 1,
          "midi": 53,
          "name": "F3",
          "ticks": 11304,
          "time": 103.896948,
          "velocity": 0.36220472440944884
        },
        {
          "duration": 0.009191166666653316,
          "durationTicks": 1,
          "midi": 46,
          "name": "A#2",
          "ticks": 11328,
          "time": 104.117536,
          "velocity": 0.3700787401574803
        },
        {
          "duration": 0.009191166666653316,
          "durationTicks": 1,
          "midi": 53,
          "name": "F3",
          "ticks": 11352,
          "time": 104.33812400000001,
          "velocity": 0.4409448818897638
        },
        {
          "duration": 0.009191166666653316,
          "durationTicks": 1,
          "midi": 46,
          "name": "A#2",
          "ticks": 11376,
          "time": 104.558712,
          "velocity": 0.33858267716535434
        },
        {
          "duration": 0.009191166666653316,
          "durationTicks": 1,
          "midi": 53,
          "name": "F3",
          "ticks": 11400,
          "time": 104.7793,
          "velocity": 0.4251968503937008
        },
        {
          "duration": 0.009191166666667527,
          "durationTicks": 1,
          "midi": 46,
          "name": "A#2",
          "ticks": 11424,
          "time": 104.999888,
          "velocity": 0.3700787401574803
        },
        {
          "duration": 0.009191166666653316,
          "durationTicks": 1,
          "midi": 53,
          "name": "F3",
          "ticks": 11448,
          "time": 105.220476,
          "velocity": 0.3543307086614173
        },
        {
          "duration": 0.009191166666667527,
          "durationTicks": 1,
          "midi": 46,
          "name": "A#2",
          "ticks": 11472,
          "time": 105.441064,
          "velocity": 0.33858267716535434
        },
        {
          "duration": 0.009191166666653316,
          "durationTicks": 1,
          "midi": 53,
          "name": "F3",
          "ticks": 11496,
          "time": 105.661652,
          "velocity": 0.4330708661417323
        },
        {
          "duration": 0.009191166666667527,
          "durationTicks": 1,
          "midi": 46,
          "name": "A#2",
          "ticks": 11520,
          "time": 105.88224,
          "velocity": 0.3700787401574803
        },
        {
          "duration": 0.009191166666653316,
          "durationTicks": 1,
          "midi": 53,
          "name": "F3",
          "ticks": 11544,
          "time": 106.102828,
          "velocity": 0.4409448818897638
        },
        {
          "duration": 0.009191166666667527,
          "durationTicks": 1,
          "midi": 53,
          "name": "F3",
          "ticks": 11556,
          "time": 106.213122,
          "velocity": 0.3779527559055118
        },
        {
          "duration": 0.009191166666667527,
          "durationTicks": 1,
          "midi": 46,
          "name": "A#2",
          "ticks": 11568,
          "time": 106.323416,
          "velocity": 0.3779527559055118
        },
        {
          "duration": 0.009191166666653316,
          "durationTicks": 1,
          "midi": 53,
          "name": "F3",
          "ticks": 11592,
          "time": 106.544004,
          "velocity": 0.3937007874015748
        },
        {
          "duration": 0.009191166666653316,
          "durationTicks": 1,
          "midi": 46,
          "name": "A#2",
          "ticks": 11616,
          "time": 106.76459200000001,
          "velocity": 0.3858267716535433
        },
        {
          "duration": 0.009191166666653316,
          "durationTicks": 1,
          "midi": 53,
          "name": "F3",
          "ticks": 11640,
          "time": 106.98518,
          "velocity": 0.47244094488188976
        },
        {
          "duration": 0.009191166666653316,
          "durationTicks": 1,
          "midi": 46,
          "name": "A#2",
          "ticks": 11664,
          "time": 107.205768,
          "velocity": 0.31496062992125984
        },
        {
          "duration": 0.009191166666667527,
          "durationTicks": 1,
          "midi": 53,
          "name": "F3",
          "ticks": 11688,
          "time": 107.426356,
          "velocity": 0.4094488188976378
        },
        {
          "duration": 0.009191166666653316,
          "durationTicks": 1,
          "midi": 46,
          "name": "A#2",
          "ticks": 11712,
          "time": 107.646944,
          "velocity": 0.33858267716535434
        },
        {
          "duration": 0.009191166666667527,
          "durationTicks": 1,
          "midi": 53,
          "name": "F3",
          "ticks": 11736,
          "time": 107.867532,
          "velocity": 0.4645669291338583
        },
        {
          "duration": 0.009191166666653316,
          "durationTicks": 1,
          "midi": 46,
          "name": "A#2",
          "ticks": 11760,
          "time": 108.08812,
          "velocity": 0.3779527559055118
        },
        {
          "duration": 0.009191166666667527,
          "durationTicks": 1,
          "midi": 53,
          "name": "F3",
          "ticks": 11784,
          "time": 108.308708,
          "velocity": 0.3937007874015748
        },
        {
          "duration": 0.009191166666653316,
          "durationTicks": 1,
          "midi": 46,
          "name": "A#2",
          "ticks": 11808,
          "time": 108.529296,
          "velocity": 0.3858267716535433
        },
        {
          "duration": 0.009191166666667527,
          "durationTicks": 1,
          "midi": 53,
          "name": "F3",
          "ticks": 11832,
          "time": 108.749884,
          "velocity": 0.47244094488188976
        },
        {
          "duration": 0.009191166666653316,
          "durationTicks": 1,
          "midi": 53,
          "name": "F3",
          "ticks": 11844,
          "time": 108.860178,
          "velocity": 0.2755905511811024
        },
        {
          "duration": 0.009191166666653316,
          "durationTicks": 1,
          "midi": 46,
          "name": "A#2",
          "ticks": 11856,
          "time": 108.970472,
          "velocity": 0.31496062992125984
        },
        {
          "duration": 0.009191166666653316,
          "durationTicks": 1,
          "midi": 53,
          "name": "F3",
          "ticks": 11880,
          "time": 109.19106000000001,
          "velocity": 0.36220472440944884
        },
        {
          "duration": 0.009191166666653316,
          "durationTicks": 1,
          "midi": 46,
          "name": "A#2",
          "ticks": 11904,
          "time": 109.411648,
          "velocity": 0.33858267716535434
        },
        {
          "duration": 0.009191166666653316,
          "durationTicks": 1,
          "midi": 53,
          "name": "F3",
          "ticks": 11928,
          "time": 109.632236,
          "velocity": 0.48031496062992124
        },
        {
          "duration": 0.009191166666667527,
          "durationTicks": 1,
          "midi": 57,
          "name": "A3",
          "ticks": 11952,
          "time": 109.852824,
          "velocity": 0.4881889763779528
        },
        {
          "duration": 0.009191166666653316,
          "durationTicks": 1,
          "midi": 53,
          "name": "F3",
          "ticks": 11976,
          "time": 110.073412,
          "velocity": 0.48031496062992124
        },
        {
          "duration": 0.009191166666667527,
          "durationTicks": 1,
          "midi": 46,
          "name": "A#2",
          "ticks": 12000,
          "time": 110.294,
          "velocity": 0.3700787401574803
        },
        {
          "duration": 0.009191166666653316,
          "durationTicks": 1,
          "midi": 53,
          "name": "F3",
          "ticks": 12024,
          "time": 110.514588,
          "velocity": 0.4330708661417323
        },
        {
          "duration": 0.009191166666667527,
          "durationTicks": 1,
          "midi": 46,
          "name": "A#2",
          "ticks": 12048,
          "time": 110.735176,
          "velocity": 0.33858267716535434
        },
        {
          "duration": 0.009191166666653316,
          "durationTicks": 1,
          "midi": 53,
          "name": "F3",
          "ticks": 12072,
          "time": 110.955764,
          "velocity": 0.4566929133858268
        },
        {
          "duration": 0.009191166666667527,
          "durationTicks": 1,
          "midi": 46,
          "name": "A#2",
          "ticks": 12096,
          "time": 111.176352,
          "velocity": 0.3700787401574803
        },
        {
          "duration": 0.009191166666653316,
          "durationTicks": 1,
          "midi": 53,
          "name": "F3",
          "ticks": 12120,
          "time": 111.39694,
          "velocity": 0.36220472440944884
        },
        {
          "duration": 0.009191166666653316,
          "durationTicks": 1,
          "midi": 46,
          "name": "A#2",
          "ticks": 12144,
          "time": 111.61752800000001,
          "velocity": 0.33858267716535434
        },
        {
          "duration": 0.009191166666653316,
          "durationTicks": 1,
          "midi": 53,
          "name": "F3",
          "ticks": 12168,
          "time": 111.838116,
          "velocity": 0.3858267716535433
        },
        {
          "duration": 0.009191166666653316,
          "durationTicks": 1,
          "midi": 46,
          "name": "A#2",
          "ticks": 12192,
          "time": 112.058704,
          "velocity": 0.3700787401574803
        },
        {
          "duration": 0.009191166666667527,
          "durationTicks": 1,
          "midi": 53,
          "name": "F3",
          "ticks": 12216,
          "time": 112.279292,
          "velocity": 0.44881889763779526
        },
        {
          "duration": 0.009191166666653316,
          "durationTicks": 1,
          "midi": 46,
          "name": "A#2",
          "ticks": 12240,
          "time": 112.49988,
          "velocity": 0.33858267716535434
        },
        {
          "duration": 0.009191166666667527,
          "durationTicks": 1,
          "midi": 53,
          "name": "F3",
          "ticks": 12264,
          "time": 112.720468,
          "velocity": 0.3700787401574803
        },
        {
          "duration": 0.009191166666653316,
          "durationTicks": 1,
          "midi": 46,
          "name": "A#2",
          "ticks": 12288,
          "time": 112.941056,
          "velocity": 0.3700787401574803
        },
        {
          "duration": 0.009191166666667527,
          "durationTicks": 1,
          "midi": 53,
          "name": "F3",
          "ticks": 12312,
          "time": 113.161644,
          "velocity": 0.44881889763779526
        },
        {
          "duration": 0.009191166666653316,
          "durationTicks": 1,
          "midi": 46,
          "name": "A#2",
          "ticks": 12336,
          "time": 113.382232,
          "velocity": 0.3779527559055118
        },
        {
          "duration": 0.009191166666667527,
          "durationTicks": 1,
          "midi": 53,
          "name": "F3",
          "ticks": 12360,
          "time": 113.60282,
          "velocity": 0.3543307086614173
        },
        {
          "duration": 0.009191166666653316,
          "durationTicks": 1,
          "midi": 46,
          "name": "A#2",
          "ticks": 12384,
          "time": 113.823408,
          "velocity": 0.3858267716535433
        },
        {
          "duration": 0.009191166666653316,
          "durationTicks": 1,
          "midi": 53,
          "name": "F3",
          "ticks": 12408,
          "time": 114.043996,
          "velocity": 0.47244094488188976
        },
        {
          "duration": 0.009191166666653316,
          "durationTicks": 1,
          "midi": 46,
          "name": "A#2",
          "ticks": 12432,
          "time": 114.264584,
          "velocity": 0.31496062992125984
        },
        {
          "duration": 0.009191166666653316,
          "durationTicks": 1,
          "midi": 53,
          "name": "F3",
          "ticks": 12456,
          "time": 114.485172,
          "velocity": 0.41732283464566927
        },
        {
          "duration": 0.009191166666681738,
          "durationTicks": 1,
          "midi": 46,
          "name": "A#2",
          "ticks": 12480,
          "time": 114.70575999999998,
          "velocity": 0.3700787401574803
        },
        {
          "duration": 0.009191166666681738,
          "durationTicks": 1,
          "midi": 57,
          "name": "A3",
          "ticks": 12504,
          "time": 114.92634799999999,
          "velocity": 0.4251968503937008
        },
        {
          "duration": 0.009191166666695949,
          "durationTicks": 1,
          "midi": 46,
          "name": "A#2",
          "ticks": 12528,
          "time": 115.14693599999998,
          "velocity": 0.3779527559055118
        },
        {
          "duration": 0.009191166666681738,
          "durationTicks": 1,
          "midi": 53,
          "name": "F3",
          "ticks": 12552,
          "time": 115.36752399999999,
          "velocity": 0.3937007874015748
        },
        {
          "duration": 0.009191166666681738,
          "durationTicks": 1,
          "midi": 49,
          "name": "C#3",
          "ticks": 12576,
          "time": 115.588112,
          "velocity": 0.4015748031496063
        },
        {
          "duration": 0.009191166666681738,
          "durationTicks": 1,
          "midi": 46,
          "name": "A#2",
          "ticks": 12624,
          "time": 116.029288,
          "velocity": 0.30708661417322836
        },
        {
          "duration": 0.009191166666681738,
          "durationTicks": 1,
          "midi": 46,
          "name": "A#2",
          "ticks": 12672,
          "time": 116.47046399999999,
          "velocity": 0.2992125984251969
        },
        {
          "duration": 0.009191166666681738,
          "durationTicks": 1,
          "midi": 57,
          "name": "A3",
          "ticks": 12720,
          "time": 116.91163999999999,
          "velocity": 0.4645669291338583
        },
        {
          "duration": 0.009191166666681738,
          "durationTicks": 1,
          "midi": 46,
          "name": "A#2",
          "ticks": 12768,
          "time": 117.35281599999999,
          "velocity": 0.3700787401574803
        },
        {
          "duration": 0.009191166666695949,
          "durationTicks": 1,
          "midi": 53,
          "name": "F3",
          "ticks": 12792,
          "time": 117.57340399999998,
          "velocity": 0.4330708661417323
        },
        {
          "duration": 0.009191166666681738,
          "durationTicks": 1,
          "midi": 46,
          "name": "A#2",
          "ticks": 12816,
          "time": 117.79399199999999,
          "velocity": 0.2047244094488189
        },
        {
          "duration": 0.009191166666681738,
          "durationTicks": 1,
          "midi": 53,
          "name": "F3",
          "ticks": 12840,
          "time": 118.01458,
          "velocity": 0.5118110236220472
        },
        {
          "duration": 0.009191166666681738,
          "durationTicks": 1,
          "midi": 46,
          "name": "A#2",
          "ticks": 12864,
          "time": 118.23516799999999,
          "velocity": 0.3700787401574803
        },
        {
          "duration": 0.009191166666681738,
          "durationTicks": 1,
          "midi": 53,
          "name": "F3",
          "ticks": 12888,
          "time": 118.455756,
          "velocity": 0.6535433070866141
        },
        {
          "duration": 0.009191166666681738,
          "durationTicks": 1,
          "midi": 46,
          "name": "A#2",
          "ticks": 12912,
          "time": 118.67634399999999,
          "velocity": 0.3779527559055118
        },
        {
          "duration": 0.009191166666681738,
          "durationTicks": 1,
          "midi": 53,
          "name": "F3",
          "ticks": 12936,
          "time": 118.89693199999999,
          "velocity": 0.5118110236220472
        },
        {
          "duration": 0.009191166666681738,
          "durationTicks": 1,
          "midi": 46,
          "name": "A#2",
          "ticks": 12960,
          "time": 119.11751999999998,
          "velocity": 0.3858267716535433
        },
        {
          "duration": 0.009191166666681738,
          "durationTicks": 1,
          "midi": 53,
          "name": "F3",
          "ticks": 12984,
          "time": 119.33810799999999,
          "velocity": 0.47244094488188976
        },
        {
          "duration": 0.009191166666681738,
          "durationTicks": 1,
          "midi": 46,
          "name": "A#2",
          "ticks": 13008,
          "time": 119.55869599999998,
          "velocity": 0.31496062992125984
        },
        {
          "duration": 0.009191166666681738,
          "durationTicks": 1,
          "midi": 53,
          "name": "F3",
          "ticks": 13032,
          "time": 119.77928399999999,
          "velocity": 0.48031496062992124
        },
        {
          "duration": 0.009191166666695949,
          "durationTicks": 1,
          "midi": 46,
          "name": "A#2",
          "ticks": 13056,
          "time": 119.99987199999998,
          "velocity": 0.33858267716535434
        },
        {
          "duration": 0.009191166666681738,
          "durationTicks": 1,
          "midi": 53,
          "name": "F3",
          "ticks": 13080,
          "time": 120.22045999999999,
          "velocity": 0.5039370078740157
        },
        {
          "duration": 0.009191166666681738,
          "durationTicks": 1,
          "midi": 46,
          "name": "A#2",
          "ticks": 13104,
          "time": 120.441048,
          "velocity": 0.3464566929133858
        },
        {
          "duration": 0.009191166666681738,
          "durationTicks": 1,
          "midi": 53,
          "name": "F3",
          "ticks": 13128,
          "time": 120.66163599999999,
          "velocity": 0.5905511811023622
        },
        {
          "duration": 0.009191166666681738,
          "durationTicks": 1,
          "midi": 46,
          "name": "A#2",
          "ticks": 13152,
          "time": 120.882224,
          "velocity": 0.33070866141732286
        },
        {
          "duration": 0.009191166666681738,
          "durationTicks": 1,
          "midi": 53,
          "name": "F3",
          "ticks": 13176,
          "time": 121.10281199999999,
          "velocity": 0.5433070866141733
        },
        {
          "duration": 0.009191166666681738,
          "durationTicks": 1,
          "midi": 46,
          "name": "A#2",
          "ticks": 13200,
          "time": 121.32339999999999,
          "velocity": 0.3228346456692913
        },
        {
          "duration": 0.009191166666681738,
          "durationTicks": 1,
          "midi": 53,
          "name": "F3",
          "ticks": 13224,
          "time": 121.54398799999998,
          "velocity": 0.4645669291338583
        },
        {
          "duration": 0.009191166666681738,
          "durationTicks": 1,
          "midi": 46,
          "name": "A#2",
          "ticks": 13248,
          "time": 121.76457599999999,
          "velocity": 0.30708661417322836
        },
        {
          "duration": 0.009191166666695949,
          "durationTicks": 1,
          "midi": 57,
          "name": "A3",
          "ticks": 13272,
          "time": 121.98516399999998,
          "velocity": 0.47244094488188976
        },
        {
          "duration": 0.009191166666681738,
          "durationTicks": 1,
          "midi": 46,
          "name": "A#2",
          "ticks": 13296,
          "time": 122.20575199999999,
          "velocity": 0.31496062992125984
        },
        {
          "duration": 0.009191166666695949,
          "durationTicks": 1,
          "midi": 53,
          "name": "F3",
          "ticks": 13320,
          "time": 122.42633999999998,
          "velocity": 0.3937007874015748
        },
        {
          "duration": 0.009191166666681738,
          "durationTicks": 1,
          "midi": 49,
          "name": "C#3",
          "ticks": 13344,
          "time": 122.64692799999999,
          "velocity": 0.4015748031496063
        },
        {
          "duration": 0.009191166666681738,
          "durationTicks": 1,
          "midi": 46,
          "name": "A#2",
          "ticks": 13392,
          "time": 123.08810399999999,
          "velocity": 0.30708661417322836
        },
        {
          "duration": 0.009191166666681738,
          "durationTicks": 1,
          "midi": 53,
          "name": "F3",
          "ticks": 13416,
          "time": 123.308692,
          "velocity": 0.4094488188976378
        },
        {
          "duration": 0.009191166666681738,
          "durationTicks": 1,
          "midi": 57,
          "name": "A3",
          "ticks": 13440,
          "time": 123.52927999999999,
          "velocity": 0.4251968503937008
        },
        {
          "duration": 0.009191166666681738,
          "durationTicks": 1,
          "midi": 49,
          "name": "C#3",
          "ticks": 13488,
          "time": 123.97045599999998,
          "velocity": 0.3464566929133858
        },
        {
          "duration": 0.009191166666681738,
          "durationTicks": 1,
          "midi": 57,
          "name": "A3",
          "ticks": 13560,
          "time": 124.63221999999999,
          "velocity": 0.4566929133858268
        },
        {
          "duration": 0.009191166666681738,
          "durationTicks": 1,
          "midi": 46,
          "name": "A#2",
          "ticks": 13608,
          "time": 125.07339599999999,
          "velocity": 0.4330708661417323
        },
        {
          "duration": 0.009191166666681738,
          "durationTicks": 1,
          "midi": 42,
          "name": "F#2",
          "ticks": 13632,
          "time": 125.293984,
          "velocity": 0.3937007874015748
        },
        {
          "duration": 0.009191166666681738,
          "durationTicks": 1,
          "midi": 49,
          "name": "C#3",
          "ticks": 13656,
          "time": 125.51457199999999,
          "velocity": 0.3464566929133858
        },
        {
          "duration": 0.009191166666681738,
          "durationTicks": 1,
          "midi": 46,
          "name": "A#2",
          "ticks": 13704,
          "time": 125.95574799999999,
          "velocity": 0.4330708661417323
        },
        {
          "duration": 0.009191166666681738,
          "durationTicks": 1,
          "midi": 42,
          "name": "F#2",
          "ticks": 13728,
          "time": 126.17633599999999,
          "velocity": 0.3937007874015748
        },
        {
          "duration": 0.009191166666681738,
          "durationTicks": 1,
          "midi": 57,
          "name": "A3",
          "ticks": 13752,
          "time": 126.39692399999998,
          "velocity": 0.47244094488188976
        },
        {
          "duration": 0.009191166666681738,
          "durationTicks": 1,
          "midi": 46,
          "name": "A#2",
          "ticks": 13776,
          "time": 126.61751199999999,
          "velocity": 0.3543307086614173
        },
        {
          "duration": 0.009191166666695949,
          "durationTicks": 1,
          "midi": 46,
          "name": "A#2",
          "ticks": 13800,
          "time": 126.83809999999998,
          "velocity": 0.29133858267716534
        },
        {
          "duration": 0.009191166666681738,
          "durationTicks": 1,
          "midi": 49,
          "name": "C#3",
          "ticks": 13824,
          "time": 127.05868799999999,
          "velocity": 0.4015748031496063
        },
        {
          "duration": 0.009191166666681738,
          "durationTicks": 1,
          "midi": 57,
          "name": "A3",
          "ticks": 13872,
          "time": 127.49986399999999,
          "velocity": 0.4094488188976378
        },
        {
          "duration": 0.009191166666681738,
          "durationTicks": 1,
          "midi": 49,
          "name": "C#3",
          "ticks": 13920,
          "time": 127.94103999999999,
          "velocity": 0.47244094488188976
        },
        {
          "duration": 0.009191166666681738,
          "durationTicks": 1,
          "midi": 46,
          "name": "A#2",
          "ticks": 13968,
          "time": 128.382216,
          "velocity": 0.33858267716535434
        },
        {
          "duration": 0.009191166666681738,
          "durationTicks": 1,
          "midi": 42,
          "name": "F#2",
          "ticks": 13987,
          "time": 128.55684816666667,
          "velocity": 0.29133858267716534
        },
        {
          "duration": 0.009191166666681738,
          "durationTicks": 1,
          "midi": 57,
          "name": "A3",
          "ticks": 14040,
          "time": 129.04398,
          "velocity": 0.4330708661417323
        },
        {
          "duration": 0.009191166666681738,
          "durationTicks": 1,
          "midi": 49,
          "name": "C#3",
          "ticks": 14112,
          "time": 129.705744,
          "velocity": 0.4094488188976378
        },
        {
          "duration": 0.009191166666681738,
          "durationTicks": 1,
          "midi": 46,
          "name": "A#2",
          "ticks": 14136,
          "time": 129.926332,
          "velocity": 0.2992125984251969
        },
        {
          "duration": 0.009191166666681738,
          "durationTicks": 1,
          "midi": 57,
          "name": "A3",
          "ticks": 14256,
          "time": 131.029272,
          "velocity": 0.3937007874015748
        },
        {
          "duration": 0.009191166666681738,
          "durationTicks": 1,
          "midi": 42,
          "name": "F#2",
          "ticks": 14304,
          "time": 131.470448,
          "velocity": 0.48031496062992124
        },
        {
          "duration": 0.009191166666681738,
          "durationTicks": 1,
          "midi": 42,
          "name": "F#2",
          "ticks": 14328,
          "time": 131.691036,
          "velocity": 0.33070866141732286
        },
        {
          "duration": 0.009191166666681738,
          "durationTicks": 1,
          "midi": 42,
          "name": "F#2",
          "ticks": 14352,
          "time": 131.91162400000002,
          "velocity": 0.44881889763779526
        },
        {
          "duration": 0.009191166666681738,
          "durationTicks": 1,
          "midi": 42,
          "name": "F#2",
          "ticks": 14376,
          "time": 132.132212,
          "velocity": 0.33858267716535434
        },
        {
          "duration": 0.009191166666681738,
          "durationTicks": 1,
          "midi": 42,
          "name": "F#2",
          "ticks": 14400,
          "time": 132.3528,
          "velocity": 0.48031496062992124
        },
        {
          "duration": 0.009191166666681738,
          "durationTicks": 1,
          "midi": 42,
          "name": "F#2",
          "ticks": 14424,
          "time": 132.573388,
          "velocity": 0.3464566929133858
        },
        {
          "duration": 0.009191166666681738,
          "durationTicks": 1,
          "midi": 42,
          "name": "F#2",
          "ticks": 14448,
          "time": 132.79397600000001,
          "velocity": 0.3464566929133858
        },
        {
          "duration": 0.009191166666681738,
          "durationTicks": 1,
          "midi": 42,
          "name": "F#2",
          "ticks": 14472,
          "time": 133.014564,
          "velocity": 0.33070866141732286
        },
        {
          "duration": 0.009191166666681738,
          "durationTicks": 1,
          "midi": 42,
          "name": "F#2",
          "ticks": 14496,
          "time": 133.235152,
          "velocity": 0.4409448818897638
        },
        {
          "duration": 0.009191166666681738,
          "durationTicks": 1,
          "midi": 42,
          "name": "F#2",
          "ticks": 14520,
          "time": 133.45574,
          "velocity": 0.31496062992125984
        },
        {
          "duration": 0.009191166666681738,
          "durationTicks": 1,
          "midi": 42,
          "name": "F#2",
          "ticks": 14544,
          "time": 133.676328,
          "velocity": 0.4645669291338583
        },
        {
          "duration": 0.009191166666681738,
          "durationTicks": 1,
          "midi": 42,
          "name": "F#2",
          "ticks": 14568,
          "time": 133.896916,
          "velocity": 0.33858267716535434
        },
        {
          "duration": 0.009191166666681738,
          "durationTicks": 1,
          "midi": 42,
          "name": "F#2",
          "ticks": 14592,
          "time": 134.117504,
          "velocity": 0.44881889763779526
        },
        {
          "duration": 0.009191166666681738,
          "durationTicks": 1,
          "midi": 42,
          "name": "F#2",
          "ticks": 14616,
          "time": 134.33809200000002,
          "velocity": 0.3937007874015748
        },
        {
          "duration": 0.009191166666681738,
          "durationTicks": 1,
          "midi": 42,
          "name": "F#2",
          "ticks": 14640,
          "time": 134.55868,
          "velocity": 0.4645669291338583
        },
        {
          "duration": 0.009191166666681738,
          "durationTicks": 1,
          "midi": 42,
          "name": "F#2",
          "ticks": 14664,
          "time": 134.779268,
          "velocity": 0.33070866141732286
        },
        {
          "duration": 0.009191166666681738,
          "durationTicks": 1,
          "midi": 42,
          "name": "F#2",
          "ticks": 14688,
          "time": 134.999856,
          "velocity": 0.5511811023622047
        },
        {
          "duration": 0.009191166666681738,
          "durationTicks": 1,
          "midi": 46,
          "name": "A#2",
          "ticks": 14712,
          "time": 135.22044400000001,
          "velocity": 0.1889763779527559
        },
        {
          "duration": 0.009191166666681738,
          "durationTicks": 1,
          "midi": 42,
          "name": "F#2",
          "ticks": 14736,
          "time": 135.441032,
          "velocity": 0.33858267716535434
        },
        {
          "duration": 0.009191166666681738,
          "durationTicks": 1,
          "midi": 57,
          "name": "A3",
          "ticks": 14808,
          "time": 136.102796,
          "velocity": 0.47244094488188976
        },
        {
          "duration": 0.009191166666681738,
          "durationTicks": 1,
          "midi": 49,
          "name": "C#3",
          "ticks": 14880,
          "time": 136.76456000000002,
          "velocity": 0.44881889763779526
        },
        {
          "duration": 0.009191166666681738,
          "durationTicks": 1,
          "midi": 46,
          "name": "A#2",
          "ticks": 14928,
          "time": 137.205736,
          "velocity": 0.3228346456692913
        },
        {
          "duration": 0.009191166666681738,
          "durationTicks": 1,
          "midi": 42,
          "name": "F#2",
          "ticks": 14952,
          "time": 137.426324,
          "velocity": 0.2992125984251969
        },
        {
          "duration": 0.009191166666681738,
          "durationTicks": 1,
          "midi": 46,
          "name": "A#2",
          "ticks": 14976,
          "time": 137.64691200000001,
          "velocity": 0.48031496062992124
        },
        {
          "duration": 0.009191166666681738,
          "durationTicks": 1,
          "midi": 57,
          "name": "A3",
          "ticks": 15024,
          "time": 138.088088,
          "velocity": 0.4645669291338583
        },
        {
          "duration": 0.009191166666681738,
          "durationTicks": 1,
          "midi": 42,
          "name": "F#2",
          "ticks": 15048,
          "time": 138.308676,
          "velocity": 0.4409448818897638
        },
        {
          "duration": 0.009191166666681738,
          "durationTicks": 1,
          "midi": 42,
          "name": "F#2",
          "ticks": 15060,
          "time": 138.41897,
          "velocity": 0.4094488188976378
        },
        {
          "duration": 0.009191166666681738,
          "durationTicks": 1,
          "midi": 42,
          "name": "F#2",
          "ticks": 15072,
          "time": 138.529264,
          "velocity": 0.6299212598425197
        },
        {
          "duration": 0.009191166666681738,
          "durationTicks": 1,
          "midi": 42,
          "name": "F#2",
          "ticks": 15084,
          "time": 138.639558,
          "velocity": 0.4409448818897638
        },
        {
          "duration": 0.009191166666681738,
          "durationTicks": 1,
          "midi": 42,
          "name": "F#2",
          "ticks": 15096,
          "time": 138.749852,
          "velocity": 0.3228346456692913
        },
        {
          "duration": 0.009191166666681738,
          "durationTicks": 1,
          "midi": 42,
          "name": "F#2",
          "ticks": 15108,
          "time": 138.86014600000001,
          "velocity": 0.4094488188976378
        },
        {
          "duration": 0.009191166666681738,
          "durationTicks": 1,
          "midi": 42,
          "name": "F#2",
          "ticks": 15120,
          "time": 138.97044,
          "velocity": 0.6299212598425197
        },
        {
          "duration": 0.009191166666681738,
          "durationTicks": 1,
          "midi": 42,
          "name": "F#2",
          "ticks": 15132,
          "time": 139.080734,
          "velocity": 0.4409448818897638
        },
        {
          "duration": 0.009191166666681738,
          "durationTicks": 1,
          "midi": 42,
          "name": "F#2",
          "ticks": 15144,
          "time": 139.19102800000002,
          "velocity": 0.3228346456692913
        },
        {
          "duration": 0.009191166666681738,
          "durationTicks": 1,
          "midi": 42,
          "name": "F#2",
          "ticks": 15156,
          "time": 139.301322,
          "velocity": 0.4094488188976378
        },
        {
          "duration": 0.009191166666681738,
          "durationTicks": 1,
          "midi": 42,
          "name": "F#2",
          "ticks": 15168,
          "time": 139.411616,
          "velocity": 0.6299212598425197
        },
        {
          "duration": 0.009191166666681738,
          "durationTicks": 1,
          "midi": 42,
          "name": "F#2",
          "ticks": 15180,
          "time": 139.52191,
          "velocity": 0.4409448818897638
        },
        {
          "duration": 0.009191166666681738,
          "durationTicks": 1,
          "midi": 42,
          "name": "F#2",
          "ticks": 15192,
          "time": 139.632204,
          "velocity": 0.3228346456692913
        },
        {
          "duration": 0.009191166666681738,
          "durationTicks": 1,
          "midi": 42,
          "name": "F#2",
          "ticks": 15204,
          "time": 139.742498,
          "velocity": 0.4094488188976378
        },
        {
          "duration": 0.009191166666681738,
          "durationTicks": 1,
          "midi": 42,
          "name": "F#2",
          "ticks": 15216,
          "time": 139.852792,
          "velocity": 0.6299212598425197
        },
        {
          "duration": 0.009191166666681738,
          "durationTicks": 1,
          "midi": 42,
          "name": "F#2",
          "ticks": 15228,
          "time": 139.963086,
          "velocity": 0.4409448818897638
        },
        {
          "duration": 0.009191166666681738,
          "durationTicks": 1,
          "midi": 42,
          "name": "F#2",
          "ticks": 15240,
          "time": 140.07338000000001,
          "velocity": 0.3228346456692913
        },
        {
          "duration": 0.009191166666681738,
          "durationTicks": 1,
          "midi": 42,
          "name": "F#2",
          "ticks": 15252,
          "time": 140.183674,
          "velocity": 0.4094488188976378
        },
        {
          "duration": 0.009191166666681738,
          "durationTicks": 1,
          "midi": 42,
          "name": "F#2",
          "ticks": 15264,
          "time": 140.293968,
          "velocity": 0.6299212598425197
        },
        {
          "duration": 0.009191166666681738,
          "durationTicks": 1,
          "midi": 42,
          "name": "F#2",
          "ticks": 15276,
          "time": 140.40426200000002,
          "velocity": 0.4409448818897638
        },
        {
          "duration": 0.009191166666681738,
          "durationTicks": 1,
          "midi": 42,
          "name": "F#2",
          "ticks": 15288,
          "time": 140.514556,
          "velocity": 0.3228346456692913
        },
        {
          "duration": 0.009191166666681738,
          "durationTicks": 1,
          "midi": 42,
          "name": "F#2",
          "ticks": 15300,
          "time": 140.62485,
          "velocity": 0.4094488188976378
        },
        {
          "duration": 0.009191166666681738,
          "durationTicks": 1,
          "midi": 42,
          "name": "F#2",
          "ticks": 15312,
          "time": 140.735144,
          "velocity": 0.6299212598425197
        },
        {
          "duration": 0.009191166666681738,
          "durationTicks": 1,
          "midi": 42,
          "name": "F#2",
          "ticks": 15324,
          "time": 140.845438,
          "velocity": 0.4409448818897638
        },
        {
          "duration": 0.009191166666681738,
          "durationTicks": 1,
          "midi": 42,
          "name": "F#2",
          "ticks": 15336,
          "time": 140.955732,
          "velocity": 0.3228346456692913
        },
        {
          "duration": 0.009191166666681738,
          "durationTicks": 1,
          "midi": 42,
          "name": "F#2",
          "ticks": 15348,
          "time": 141.066026,
          "velocity": 0.4094488188976378
        },
        {
          "duration": 0.009191166666681738,
          "durationTicks": 1,
          "midi": 42,
          "name": "F#2",
          "ticks": 15360,
          "time": 141.17632,
          "velocity": 0.6299212598425197
        },
        {
          "duration": 0.009191166666681738,
          "durationTicks": 1,
          "midi": 42,
          "name": "F#2",
          "ticks": 15372,
          "time": 141.28661400000001,
          "velocity": 0.4409448818897638
        },
        {
          "duration": 0.009191166666681738,
          "durationTicks": 1,
          "midi": 42,
          "name": "F#2",
          "ticks": 15384,
          "time": 141.396908,
          "velocity": 0.3228346456692913
        },
        {
          "duration": 0.009191166666681738,
          "durationTicks": 1,
          "midi": 42,
          "name": "F#2",
          "ticks": 15396,
          "time": 141.507202,
          "velocity": 0.4094488188976378
        },
        {
          "duration": 0.009191166666681738,
          "durationTicks": 1,
          "midi": 42,
          "name": "F#2",
          "ticks": 15408,
          "time": 141.61749600000002,
          "velocity": 0.6299212598425197
        },
        {
          "duration": 0.009191166666681738,
          "durationTicks": 1,
          "midi": 42,
          "name": "F#2",
          "ticks": 15420,
          "time": 141.72779,
          "velocity": 0.4409448818897638
        },
        {
          "duration": 0.009191166666681738,
          "durationTicks": 1,
          "midi": 42,
          "name": "F#2",
          "ticks": 15432,
          "time": 141.838084,
          "velocity": 0.3228346456692913
        },
        {
          "duration": 0.00919116666671016,
          "durationTicks": 1,
          "midi": 42,
          "name": "F#2",
          "ticks": 15444,
          "time": 141.948378,
          "velocity": 0.4094488188976378
        },
        {
          "duration": 0.009191166666681738,
          "durationTicks": 1,
          "midi": 42,
          "name": "F#2",
          "ticks": 15456,
          "time": 142.058672,
          "velocity": 0.6299212598425197
        },
        {
          "duration": 0.009191166666681738,
          "durationTicks": 1,
          "midi": 42,
          "name": "F#2",
          "ticks": 15468,
          "time": 142.168966,
          "velocity": 0.4409448818897638
        },
        {
          "duration": 0.009191166666681738,
          "durationTicks": 1,
          "midi": 42,
          "name": "F#2",
          "ticks": 15480,
          "time": 142.27926,
          "velocity": 0.3228346456692913
        },
        {
          "duration": 0.009191166666681738,
          "durationTicks": 1,
          "midi": 42,
          "name": "F#2",
          "ticks": 15492,
          "time": 142.389554,
          "velocity": 0.4094488188976378
        },
        {
          "duration": 0.009191166666681738,
          "durationTicks": 1,
          "midi": 42,
          "name": "F#2",
          "ticks": 15504,
          "time": 142.49984800000001,
          "velocity": 0.6299212598425197
        },
        {
          "duration": 0.009191166666681738,
          "durationTicks": 1,
          "midi": 42,
          "name": "F#2",
          "ticks": 15516,
          "time": 142.610142,
          "velocity": 0.4409448818897638
        },
        {
          "duration": 0.009191166666681738,
          "durationTicks": 1,
          "midi": 42,
          "name": "F#2",
          "ticks": 15528,
          "time": 142.720436,
          "velocity": 0.3228346456692913
        },
        {
          "duration": 0.009191166666681738,
          "durationTicks": 1,
          "midi": 42,
          "name": "F#2",
          "ticks": 15540,
          "time": 142.83073000000002,
          "velocity": 0.4094488188976378
        },
        {
          "duration": 0.009191166666681738,
          "durationTicks": 1,
          "midi": 42,
          "name": "F#2",
          "ticks": 15552,
          "time": 142.941024,
          "velocity": 0.6299212598425197
        },
        {
          "duration": 0.009191166666681738,
          "durationTicks": 1,
          "midi": 42,
          "name": "F#2",
          "ticks": 15564,
          "time": 143.051318,
          "velocity": 0.4409448818897638
        },
        {
          "duration": 0.00919116666671016,
          "durationTicks": 1,
          "midi": 42,
          "name": "F#2",
          "ticks": 15576,
          "time": 143.161612,
          "velocity": 0.3228346456692913
        },
        {
          "duration": 0.009191166666681738,
          "durationTicks": 1,
          "midi": 42,
          "name": "F#2",
          "ticks": 15588,
          "time": 143.271906,
          "velocity": 0.4094488188976378
        },
        {
          "duration": 0.009191166666681738,
          "durationTicks": 1,
          "midi": 42,
          "name": "F#2",
          "ticks": 15600,
          "time": 143.3822,
          "velocity": 0.6299212598425197
        },
        {
          "duration": 0.009191166666681738,
          "durationTicks": 1,
          "midi": 42,
          "name": "F#2",
          "ticks": 15612,
          "time": 143.492494,
          "velocity": 0.4409448818897638
        },
        {
          "duration": 0.009191166666681738,
          "durationTicks": 1,
          "midi": 42,
          "name": "F#2",
          "ticks": 15624,
          "time": 143.602788,
          "velocity": 0.3228346456692913
        },
        {
          "duration": 0.009191166666681738,
          "durationTicks": 1,
          "midi": 42,
          "name": "F#2",
          "ticks": 15636,
          "time": 143.713082,
          "velocity": 0.4094488188976378
        },
        {
          "duration": 0.009191166666681738,
          "durationTicks": 1,
          "midi": 42,
          "name": "F#2",
          "ticks": 15648,
          "time": 143.823376,
          "velocity": 0.6299212598425197
        },
        {
          "duration": 0.009191166666681738,
          "durationTicks": 1,
          "midi": 42,
          "name": "F#2",
          "ticks": 15660,
          "time": 143.93367,
          "velocity": 0.4409448818897638
        },
        {
          "duration": 0.009191166666681738,
          "durationTicks": 1,
          "midi": 42,
          "name": "F#2",
          "ticks": 15672,
          "time": 144.04396400000002,
          "velocity": 0.3228346456692913
        },
        {
          "duration": 0.009191166666681738,
          "durationTicks": 1,
          "midi": 42,
          "name": "F#2",
          "ticks": 15684,
          "time": 144.154258,
          "velocity": 0.4094488188976378
        },
        {
          "duration": 0.009191166666681738,
          "durationTicks": 1,
          "midi": 42,
          "name": "F#2",
          "ticks": 15696,
          "time": 144.264552,
          "velocity": 0.6299212598425197
        },
        {
          "duration": 0.00919116666671016,
          "durationTicks": 1,
          "midi": 42,
          "name": "F#2",
          "ticks": 15708,
          "time": 144.374846,
          "velocity": 0.4409448818897638
        },
        {
          "duration": 0.009191166666681738,
          "durationTicks": 1,
          "midi": 42,
          "name": "F#2",
          "ticks": 15720,
          "time": 144.48514,
          "velocity": 0.3228346456692913
        },
        {
          "duration": 0.009191166666681738,
          "durationTicks": 1,
          "midi": 42,
          "name": "F#2",
          "ticks": 15732,
          "time": 144.595434,
          "velocity": 0.4094488188976378
        },
        {
          "duration": 0.009191166666681738,
          "durationTicks": 1,
          "midi": 42,
          "name": "F#2",
          "ticks": 15744,
          "time": 144.705728,
          "velocity": 0.6299212598425197
        },
        {
          "duration": 0.009191166666681738,
          "durationTicks": 1,
          "midi": 42,
          "name": "F#2",
          "ticks": 15756,
          "time": 144.816022,
          "velocity": 0.4409448818897638
        },
        {
          "duration": 0.009191166666681738,
          "durationTicks": 1,
          "midi": 42,
          "name": "F#2",
          "ticks": 15768,
          "time": 144.926316,
          "velocity": 0.3228346456692913
        },
        {
          "duration": 0.009191166666681738,
          "durationTicks": 1,
          "midi": 42,
          "name": "F#2",
          "ticks": 15780,
          "time": 145.03661,
          "velocity": 0.4094488188976378
        },
        {
          "duration": 0.009191166666681738,
          "durationTicks": 1,
          "midi": 57,
          "name": "A3",
          "ticks": 15792,
          "time": 145.146904,
          "velocity": 0.44881889763779526
        },
        {
          "duration": 0.009191166666681738,
          "durationTicks": 1,
          "midi": 42,
          "name": "F#2",
          "ticks": 15816,
          "time": 145.367492,
          "velocity": 0.4409448818897638
        },
        {
          "duration": 0.009191166666681738,
          "durationTicks": 1,
          "midi": 42,
          "name": "F#2",
          "ticks": 15828,
          "time": 145.477786,
          "velocity": 0.4094488188976378
        },
        {
          "duration": 0.00919116666671016,
          "durationTicks": 1,
          "midi": 46,
          "name": "A#2",
          "ticks": 15840,
          "time": 145.58808,
          "velocity": 0.3464566929133858
        },
        {
          "duration": 0.009191166666681738,
          "durationTicks": 1,
          "midi": 46,
          "name": "A#2",
          "ticks": 15888,
          "time": 146.029256,
          "velocity": 0.3937007874015748
        },
        {
          "duration": 0.009191166666681738,
          "durationTicks": 1,
          "midi": 46,
          "name": "A#2",
          "ticks": 15936,
          "time": 146.47043200000002,
          "velocity": 0.4881889763779528
        },
        {
          "duration": 0.009191166666681738,
          "durationTicks": 1,
          "midi": 46,
          "name": "A#2",
          "ticks": 15960,
          "time": 146.69102,
          "velocity": 0.29133858267716534
        },
        {
          "duration": 0.00919116666671016,
          "durationTicks": 1,
          "midi": 46,
          "name": "A#2",
          "ticks": 15972,
          "time": 146.801314,
          "velocity": 0.3228346456692913
        },
        {
          "duration": 0.009191166666681738,
          "durationTicks": 1,
          "midi": 49,
          "name": "C#3",
          "ticks": 15984,
          "time": 146.911608,
          "velocity": 0.3543307086614173
        },
        {
          "duration": 0.009191166666681738,
          "durationTicks": 1,
          "midi": 46,
          "name": "A#2",
          "ticks": 16008,
          "time": 147.132196,
          "velocity": 0.31496062992125984
        },
        {
          "duration": 0.009191166666681738,
          "durationTicks": 1,
          "midi": 46,
          "name": "A#2",
          "ticks": 16020,
          "time": 147.24249,
          "velocity": 0.2755905511811024
        },
        {
          "duration": 0.009191166666681738,
          "durationTicks": 1,
          "midi": 46,
          "name": "A#2",
          "ticks": 16032,
          "time": 147.352784,
          "velocity": 0.4409448818897638
        },
        {
          "duration": 0.009191166666681738,
          "durationTicks": 1,
          "midi": 46,
          "name": "A#2",
          "ticks": 16056,
          "time": 147.573372,
          "velocity": 0.3543307086614173
        },
        {
          "duration": 0.009191166666681738,
          "durationTicks": 1,
          "midi": 46,
          "name": "A#2",
          "ticks": 16080,
          "time": 147.79396,
          "velocity": 0.33858267716535434
        },
        {
          "duration": 0.00919116666671016,
          "durationTicks": 1,
          "midi": 46,
          "name": "A#2",
          "ticks": 16104,
          "time": 148.014548,
          "velocity": 0.3543307086614173
        },
        {
          "duration": 0.009191166666681738,
          "durationTicks": 1,
          "midi": 46,
          "name": "A#2",
          "ticks": 16116,
          "time": 148.124842,
          "velocity": 0.3779527559055118
        },
        {
          "duration": 0.009191166666681738,
          "durationTicks": 1,
          "midi": 46,
          "name": "A#2",
          "ticks": 16140,
          "time": 148.34543,
          "velocity": 0.29133858267716534
        },
        {
          "duration": 0.009191166666681738,
          "durationTicks": 1,
          "midi": 46,
          "name": "A#2",
          "ticks": 16152,
          "time": 148.455724,
          "velocity": 0.4015748031496063
        },
        {
          "duration": 0.009191166666681738,
          "durationTicks": 1,
          "midi": 57,
          "name": "A3",
          "ticks": 16176,
          "time": 148.676312,
          "velocity": 0.47244094488188976
        },
        {
          "duration": 0.009191166666681738,
          "durationTicks": 1,
          "midi": 49,
          "name": "C#3",
          "ticks": 16344,
          "time": 150.220428,
          "velocity": 0.4251968503937008
        },
        {
          "duration": 0.009191166666681738,
          "durationTicks": 1,
          "midi": 49,
          "name": "C#3",
          "ticks": 16416,
          "time": 150.882192,
          "velocity": 0.4566929133858268
        },
        {
          "duration": 0.009191166666681738,
          "durationTicks": 1,
          "midi": 57,
          "name": "A3",
          "ticks": 16464,
          "time": 151.32336800000002,
          "velocity": 0.3779527559055118
        },
        {
          "duration": 0.009191166666681738,
          "durationTicks": 1,
          "midi": 49,
          "name": "C#3",
          "ticks": 16512,
          "time": 151.764544,
          "velocity": 0.4409448818897638
        },
        {
          "duration": 0.009191166666681738,
          "durationTicks": 1,
          "midi": 57,
          "name": "A3",
          "ticks": 16560,
          "time": 152.20572,
          "velocity": 0.4251968503937008
        },
        {
          "duration": 0.009191166666681738,
          "durationTicks": 1,
          "midi": 49,
          "name": "C#3",
          "ticks": 16608,
          "time": 152.646896,
          "velocity": 0.47244094488188976
        },
        {
          "duration": 0.009191166666681738,
          "durationTicks": 1,
          "midi": 42,
          "name": "F#2",
          "ticks": 16656,
          "time": 153.088072,
          "velocity": 0.4330708661417323
        },
        {
          "duration": 0.009191166666681738,
          "durationTicks": 1,
          "midi": 46,
          "name": "A#2",
          "ticks": 16680,
          "time": 153.30866,
          "velocity": 0.4645669291338583
        },
        {
          "duration": 0.009191166666681738,
          "durationTicks": 1,
          "midi": 42,
          "name": "F#2",
          "ticks": 16704,
          "time": 153.529248,
          "velocity": 0.4566929133858268
        },
        {
          "duration": 0.009191166666681738,
          "durationTicks": 1,
          "midi": 46,
          "name": "A#2",
          "ticks": 16728,
          "time": 153.74983600000002,
          "velocity": 0.5433070866141733
        },
        {
          "duration": 0.009191166666681738,
          "durationTicks": 1,
          "midi": 42,
          "name": "F#2",
          "ticks": 16752,
          "time": 153.970424,
          "velocity": 0.4645669291338583
        },
        {
          "duration": 0.009191166666681738,
          "durationTicks": 1,
          "midi": 46,
          "name": "A#2",
          "ticks": 16776,
          "time": 154.191012,
          "velocity": 0.48031496062992124
        },
        {
          "duration": 0.009191166666681738,
          "durationTicks": 1,
          "midi": 42,
          "name": "F#2",
          "ticks": 16800,
          "time": 154.4116,
          "velocity": 0.4566929133858268
        },
        {
          "duration": 0.009191166666681738,
          "durationTicks": 1,
          "midi": 46,
          "name": "A#2",
          "ticks": 16824,
          "time": 154.632188,
          "velocity": 0.4645669291338583
        },
        {
          "duration": 0.009191166666681738,
          "durationTicks": 1,
          "midi": 42,
          "name": "F#2",
          "ticks": 16848,
          "time": 154.852776,
          "velocity": 0.4330708661417323
        },
        {
          "duration": 0.009191166666681738,
          "durationTicks": 1,
          "midi": 46,
          "name": "A#2",
          "ticks": 16872,
          "time": 155.073364,
          "velocity": 0.4881889763779528
        },
        {
          "duration": 0.00919116666671016,
          "durationTicks": 1,
          "midi": 42,
          "name": "F#2",
          "ticks": 16896,
          "time": 155.293952,
          "velocity": 0.4566929133858268
        },
        {
          "duration": 0.009191166666681738,
          "durationTicks": 1,
          "midi": 46,
          "name": "A#2",
          "ticks": 16920,
          "time": 155.51454,
          "velocity": 0.5354330708661418
        },
        {
          "duration": 0.009191166666681738,
          "durationTicks": 1,
          "midi": 57,
          "name": "A3",
          "ticks": 16944,
          "time": 155.735128,
          "velocity": 0.3937007874015748
        },
        {
          "duration": 0.009191166666681738,
          "durationTicks": 1,
          "midi": 46,
          "name": "A#2",
          "ticks": 16968,
          "time": 155.955716,
          "velocity": 0.48031496062992124
        },
        {
          "duration": 0.009191166666681738,
          "durationTicks": 1,
          "midi": 42,
          "name": "F#2",
          "ticks": 16992,
          "time": 156.17630400000002,
          "velocity": 0.4645669291338583
        },
        {
          "duration": 0.009191166666681738,
          "durationTicks": 1,
          "midi": 46,
          "name": "A#2",
          "ticks": 17016,
          "time": 156.396892,
          "velocity": 0.48031496062992124
        },
        {
          "duration": 0.009191166666681738,
          "durationTicks": 1,
          "midi": 42,
          "name": "F#2",
          "ticks": 17040,
          "time": 156.61748,
          "velocity": 0.4645669291338583
        },
        {
          "duration": 0.009191166666681738,
          "durationTicks": 1,
          "midi": 46,
          "name": "A#2",
          "ticks": 17064,
          "time": 156.838068,
          "velocity": 0.4881889763779528
        },
        {
          "duration": 0.009191166666681738,
          "durationTicks": 1,
          "midi": 42,
          "name": "F#2",
          "ticks": 17088,
          "time": 157.058656,
          "velocity": 0.4645669291338583
        },
        {
          "duration": 0.009191166666681738,
          "durationTicks": 1,
          "midi": 46,
          "name": "A#2",
          "ticks": 17112,
          "time": 157.279244,
          "velocity": 0.48031496062992124
        },
        {
          "duration": 0.009191166666681738,
          "durationTicks": 1,
          "midi": 42,
          "name": "F#2",
          "ticks": 17136,
          "time": 157.499832,
          "velocity": 0.4645669291338583
        },
        {
          "duration": 0.00919116666671016,
          "durationTicks": 1,
          "midi": 46,
          "name": "A#2",
          "ticks": 17160,
          "time": 157.72042,
          "velocity": 0.48031496062992124
        },
        {
          "duration": 0.009191166666681738,
          "durationTicks": 1,
          "midi": 42,
          "name": "F#2",
          "ticks": 17184,
          "time": 157.941008,
          "velocity": 0.4645669291338583
        },
        {
          "duration": 0.009191166666681738,
          "durationTicks": 1,
          "midi": 46,
          "name": "A#2",
          "ticks": 17208,
          "time": 158.161596,
          "velocity": 0.48031496062992124
        },
        {
          "duration": 0.009191166666681738,
          "durationTicks": 1,
          "midi": 42,
          "name": "F#2",
          "ticks": 17232,
          "time": 158.382184,
          "velocity": 0.4645669291338583
        },
        {
          "duration": 0.009191166666681738,
          "durationTicks": 1,
          "midi": 46,
          "name": "A#2",
          "ticks": 17256,
          "time": 158.60277200000002,
          "velocity": 0.5433070866141733
        },
        {
          "duration": 0.009191166666681738,
          "durationTicks": 1,
          "midi": 42,
          "name": "F#2",
          "ticks": 17280,
          "time": 158.82336,
          "velocity": 0.5669291338582677
        },
        {
          "duration": 0.009191166666681738,
          "durationTicks": 1,
          "midi": 49,
          "name": "C#3",
          "ticks": 17328,
          "time": 159.264536,
          "velocity": 0.4094488188976378
        },
        {
          "duration": 0.009191166666681738,
          "durationTicks": 1,
          "midi": 46,
          "name": "A#2",
          "ticks": 17352,
          "time": 159.485124,
          "velocity": 0.5039370078740157
        },
        {
          "duration": 0.009191166666681738,
          "durationTicks": 1,
          "midi": 42,
          "name": "F#2",
          "ticks": 17376,
          "time": 159.705712,
          "velocity": 0.4566929133858268
        },
        {
          "duration": 0.009191166666681738,
          "durationTicks": 1,
          "midi": 46,
          "name": "A#2",
          "ticks": 17400,
          "time": 159.9263,
          "velocity": 0.4566929133858268
        },
        {
          "duration": 0.009191166666681738,
          "durationTicks": 1,
          "midi": 42,
          "name": "F#2",
          "ticks": 17424,
          "time": 160.14688800000002,
          "velocity": 0.4330708661417323
        },
        {
          "duration": 0.009191166666681738,
          "durationTicks": 1,
          "midi": 46,
          "name": "A#2",
          "ticks": 17448,
          "time": 160.367476,
          "velocity": 0.4645669291338583
        },
        {
          "duration": 0.009191166666681738,
          "durationTicks": 1,
          "midi": 42,
          "name": "F#2",
          "ticks": 17472,
          "time": 160.588064,
          "velocity": 0.4566929133858268
        },
        {
          "duration": 0.009191166666681738,
          "durationTicks": 1,
          "midi": 46,
          "name": "A#2",
          "ticks": 17496,
          "time": 160.808652,
          "velocity": 0.5196850393700787
        },
        {
          "duration": 0.009191166666681738,
          "durationTicks": 1,
          "midi": 42,
          "name": "F#2",
          "ticks": 17520,
          "time": 161.02924000000002,
          "velocity": 0.4645669291338583
        },
        {
          "duration": 0.009191166666681738,
          "durationTicks": 1,
          "midi": 46,
          "name": "A#2",
          "ticks": 17544,
          "time": 161.249828,
          "velocity": 0.48031496062992124
        },
        {
          "duration": 0.009191166666681738,
          "durationTicks": 1,
          "midi": 42,
          "name": "F#2",
          "ticks": 17568,
          "time": 161.470416,
          "velocity": 0.4645669291338583
        },
        {
          "duration": 0.009191166666681738,
          "durationTicks": 1,
          "midi": 46,
          "name": "A#2",
          "ticks": 17592,
          "time": 161.691004,
          "velocity": 0.48031496062992124
        },
        {
          "duration": 0.009191166666681738,
          "durationTicks": 1,
          "midi": 42,
          "name": "F#2",
          "ticks": 17616,
          "time": 161.911592,
          "velocity": 0.4645669291338583
        },
        {
          "duration": 0.009191166666681738,
          "durationTicks": 1,
          "midi": 46,
          "name": "A#2",
          "ticks": 17640,
          "time": 162.13218,
          "velocity": 0.5275590551181102
        },
        {
          "duration": 0.009191166666681738,
          "durationTicks": 1,
          "midi": 42,
          "name": "F#2",
          "ticks": 17664,
          "time": 162.352768,
          "velocity": 0.4645669291338583
        },
        {
          "duration": 0.009191166666681738,
          "durationTicks": 1,
          "midi": 46,
          "name": "A#2",
          "ticks": 17688,
          "time": 162.57335600000002,
          "velocity": 0.4645669291338583
        },
        {
          "duration": 0.009191166666681738,
          "durationTicks": 1,
          "midi": 57,
          "name": "A3",
          "ticks": 17712,
          "time": 162.793944,
          "velocity": 0.49606299212598426
        },
        {
          "duration": 0.009191166666681738,
          "durationTicks": 1,
          "midi": 46,
          "name": "A#2",
          "ticks": 17736,
          "time": 163.014532,
          "velocity": 0.5039370078740157
        },
        {
          "duration": 0.009191166666681738,
          "durationTicks": 1,
          "midi": 42,
          "name": "F#2",
          "ticks": 17760,
          "time": 163.23512,
          "velocity": 0.4566929133858268
        },
        {
          "duration": 0.009191166666681738,
          "durationTicks": 1,
          "midi": 46,
          "name": "A#2",
          "ticks": 17784,
          "time": 163.45570800000002,
          "velocity": 0.4566929133858268
        },
        {
          "duration": 0.009191166666681738,
          "durationTicks": 1,
          "midi": 42,
          "name": "F#2",
          "ticks": 17808,
          "time": 163.676296,
          "velocity": 0.4330708661417323
        },
        {
          "duration": 0.009191166666681738,
          "durationTicks": 1,
          "midi": 46,
          "name": "A#2",
          "ticks": 17832,
          "time": 163.896884,
          "velocity": 0.4645669291338583
        },
        {
          "duration": 0.009191166666681738,
          "durationTicks": 1,
          "midi": 42,
          "name": "F#2",
          "ticks": 17856,
          "time": 164.117472,
          "velocity": 0.4566929133858268
        },
        {
          "duration": 0.009191166666681738,
          "durationTicks": 1,
          "midi": 46,
          "name": "A#2",
          "ticks": 17880,
          "time": 164.33806,
          "velocity": 0.5196850393700787
        },
        {
          "duration": 0.009191166666681738,
          "durationTicks": 1,
          "midi": 46,
          "name": "A#2",
          "ticks": 17904,
          "time": 164.558648,
          "velocity": 0.3858267716535433
        },
        {
          "duration": 0.009191166666681738,
          "durationTicks": 1,
          "midi": 57,
          "name": "A3",
          "ticks": 17904,
          "time": 164.558648,
          "velocity": 0.4251968503937008
        },
        {
          "duration": 0.009191166666681738,
          "durationTicks": 1,
          "midi": 42,
          "name": "F#2",
          "ticks": 17928,
          "time": 164.779236,
          "velocity": 0.33858267716535434
        },
        {
          "duration": 0.009191166666681738,
          "durationTicks": 1,
          "midi": 49,
          "name": "C#3",
          "ticks": 17928,
          "time": 164.779236,
          "velocity": 0.3937007874015748
        },
        {
          "duration": 0.009191166666681738,
          "durationTicks": 1,
          "midi": 49,
          "name": "C#3",
          "ticks": 17952,
          "time": 164.99982400000002,
          "velocity": 0.41732283464566927
        },
        {
          "duration": 0.009191166666681738,
          "durationTicks": 1,
          "midi": 46,
          "name": "A#2",
          "ticks": 18000,
          "time": 165.441,
          "velocity": 0.44881889763779526
        },
        {
          "duration": 0.009191166666681738,
          "durationTicks": 1,
          "midi": 42,
          "name": "F#2",
          "ticks": 18024,
          "time": 165.661588,
          "velocity": 0.4409448818897638
        },
        {
          "duration": 0.009191166666681738,
          "durationTicks": 1,
          "midi": 49,
          "name": "C#3",
          "ticks": 18048,
          "time": 165.88217600000002,
          "velocity": 0.4409448818897638
        },
        {
          "duration": 0.009191166666681738,
          "durationTicks": 1,
          "midi": 46,
          "name": "A#2",
          "ticks": 18096,
          "time": 166.323352,
          "velocity": 0.5354330708661418
        },
        {
          "duration": 0.009191166666681738,
          "durationTicks": 1,
          "midi": 42,
          "name": "F#2",
          "ticks": 18120,
          "time": 166.54394,
          "velocity": 0.5275590551181102
        },
        {
          "duration": 0.009191166666681738,
          "durationTicks": 1,
          "midi": 57,
          "name": "A3",
          "ticks": 18144,
          "time": 166.764528,
          "velocity": 0.4330708661417323
        },
        {
          "duration": 0.009191166666681738,
          "durationTicks": 1,
          "midi": 46,
          "name": "A#2",
          "ticks": 18168,
          "time": 166.985116,
          "velocity": 0.4566929133858268
        },
        {
          "duration": 0.009191166666681738,
          "durationTicks": 1,
          "midi": 42,
          "name": "F#2",
          "ticks": 18192,
          "time": 167.205704,
          "velocity": 0.4330708661417323
        },
        {
          "duration": 0.009191166666681738,
          "durationTicks": 1,
          "midi": 46,
          "name": "A#2",
          "ticks": 18216,
          "time": 167.42629200000002,
          "velocity": 0.4645669291338583
        },
        {
          "duration": 0.009191166666681738,
          "durationTicks": 1,
          "midi": 42,
          "name": "F#2",
          "ticks": 18240,
          "time": 167.64688,
          "velocity": 0.4566929133858268
        },
        {
          "duration": 0.009191166666681738,
          "durationTicks": 1,
          "midi": 46,
          "name": "A#2",
          "ticks": 18264,
          "time": 167.867468,
          "velocity": 0.5433070866141733
        },
        {
          "duration": 0.009191166666681738,
          "durationTicks": 1,
          "midi": 42,
          "name": "F#2",
          "ticks": 18288,
          "time": 168.088056,
          "velocity": 0.4645669291338583
        },
        {
          "duration": 0.009191166666681738,
          "durationTicks": 1,
          "midi": 46,
          "name": "A#2",
          "ticks": 18312,
          "time": 168.30864400000002,
          "velocity": 0.48031496062992124
        },
        {
          "duration": 0.009191166666681738,
          "durationTicks": 1,
          "midi": 42,
          "name": "F#2",
          "ticks": 18336,
          "time": 168.529232,
          "velocity": 0.4566929133858268
        },
        {
          "duration": 0.009191166666681738,
          "durationTicks": 1,
          "midi": 46,
          "name": "A#2",
          "ticks": 18360,
          "time": 168.74982,
          "velocity": 0.4645669291338583
        },
        {
          "duration": 0.009191166666681738,
          "durationTicks": 1,
          "midi": 42,
          "name": "F#2",
          "ticks": 18384,
          "time": 168.970408,
          "velocity": 0.4330708661417323
        },
        {
          "duration": 0.009191166666681738,
          "durationTicks": 1,
          "midi": 46,
          "name": "A#2",
          "ticks": 18408,
          "time": 169.190996,
          "velocity": 0.4881889763779528
        },
        {
          "duration": 0.009191166666681738,
          "durationTicks": 1,
          "midi": 42,
          "name": "F#2",
          "ticks": 18432,
          "time": 169.411584,
          "velocity": 0.4566929133858268
        },
        {
          "duration": 0.009191166666681738,
          "durationTicks": 1,
          "midi": 46,
          "name": "A#2",
          "ticks": 18456,
          "time": 169.632172,
          "velocity": 0.5354330708661418
        },
        {
          "duration": 0.009191166666681738,
          "durationTicks": 1,
          "midi": 42,
          "name": "F#2",
          "ticks": 18480,
          "time": 169.85276000000002,
          "velocity": 0.4645669291338583
        },
        {
          "duration": 0.009191166666681738,
          "durationTicks": 1,
          "midi": 46,
          "name": "A#2",
          "ticks": 18504,
          "time": 170.073348,
          "velocity": 0.48031496062992124
        },
        {
          "duration": 0.009191166666681738,
          "durationTicks": 1,
          "midi": 42,
          "name": "F#2",
          "ticks": 18528,
          "time": 170.293936,
          "velocity": 0.4645669291338583
        },
        {
          "duration": 0.009191166666681738,
          "durationTicks": 1,
          "midi": 46,
          "name": "A#2",
          "ticks": 18552,
          "time": 170.514524,
          "velocity": 0.48031496062992124
        },
        {
          "duration": 0.009191166666681738,
          "durationTicks": 1,
          "midi": 42,
          "name": "F#2",
          "ticks": 18576,
          "time": 170.73511200000002,
          "velocity": 0.4645669291338583
        },
        {
          "duration": 0.009191166666681738,
          "durationTicks": 1,
          "midi": 46,
          "name": "A#2",
          "ticks": 18600,
          "time": 170.9557,
          "velocity": 0.4881889763779528
        },
        {
          "duration": 0.009191166666681738,
          "durationTicks": 1,
          "midi": 42,
          "name": "F#2",
          "ticks": 18624,
          "time": 171.176288,
          "velocity": 0.4645669291338583
        },
        {
          "duration": 0.00919116666671016,
          "durationTicks": 1,
          "midi": 46,
          "name": "A#2",
          "ticks": 18648,
          "time": 171.396876,
          "velocity": 0.48031496062992124
        },
        {
          "duration": 0.009191166666681738,
          "durationTicks": 1,
          "midi": 42,
          "name": "F#2",
          "ticks": 18672,
          "time": 171.617464,
          "velocity": 0.4645669291338583
        },
        {
          "duration": 0.009191166666681738,
          "durationTicks": 1,
          "midi": 46,
          "name": "A#2",
          "ticks": 18696,
          "time": 171.838052,
          "velocity": 0.48031496062992124
        },
        {
          "duration": 0.009191166666681738,
          "durationTicks": 1,
          "midi": 42,
          "name": "F#2",
          "ticks": 18720,
          "time": 172.05864,
          "velocity": 0.4645669291338583
        },
        {
          "duration": 0.009191166666681738,
          "durationTicks": 1,
          "midi": 46,
          "name": "A#2",
          "ticks": 18744,
          "time": 172.27922800000002,
          "velocity": 0.48031496062992124
        },
        {
          "duration": 0.009191166666681738,
          "durationTicks": 1,
          "midi": 42,
          "name": "F#2",
          "ticks": 18768,
          "time": 172.499816,
          "velocity": 0.4645669291338583
        },
        {
          "duration": 0.009191166666681738,
          "durationTicks": 1,
          "midi": 46,
          "name": "A#2",
          "ticks": 18792,
          "time": 172.720404,
          "velocity": 0.5590551181102362
        },
        {
          "duration": 0.009191166666681738,
          "durationTicks": 1,
          "midi": 42,
          "name": "F#2",
          "ticks": 18816,
          "time": 172.940992,
          "velocity": 0.5905511811023622
        },
        {
          "duration": 0.009191166666681738,
          "durationTicks": 1,
          "midi": 49,
          "name": "C#3",
          "ticks": 18864,
          "time": 173.382168,
          "velocity": 0.4251968503937008
        },
        {
          "duration": 0.009191166666681738,
          "durationTicks": 1,
          "midi": 46,
          "name": "A#2",
          "ticks": 18888,
          "time": 173.602756,
          "velocity": 0.5039370078740157
        },
        {
          "duration": 0.00919116666671016,
          "durationTicks": 1,
          "midi": 42,
          "name": "F#2",
          "ticks": 18912,
          "time": 173.823344,
          "velocity": 0.4566929133858268
        },
        {
          "duration": 0.009191166666681738,
          "durationTicks": 1,
          "midi": 46,
          "name": "A#2",
          "ticks": 18936,
          "time": 174.043932,
          "velocity": 0.4566929133858268
        },
        {
          "duration": 0.009191166666681738,
          "durationTicks": 1,
          "midi": 42,
          "name": "F#2",
          "ticks": 18960,
          "time": 174.26452,
          "velocity": 0.6141732283464567
        },
        {
          "duration": 0.009191166666681738,
          "durationTicks": 1,
          "midi": 46,
          "name": "A#2",
          "ticks": 18984,
          "time": 174.485108,
          "velocity": 0.4645669291338583
        },
        {
          "duration": 0.009191166666681738,
          "durationTicks": 1,
          "midi": 42,
          "name": "F#2",
          "ticks": 19008,
          "time": 174.70569600000002,
          "velocity": 0.4566929133858268
        },
        {
          "duration": 0.009191166666681738,
          "durationTicks": 1,
          "midi": 46,
          "name": "A#2",
          "ticks": 19032,
          "time": 174.926284,
          "velocity": 0.5433070866141733
        },
        {
          "duration": 0.009191166666681738,
          "durationTicks": 1,
          "midi": 42,
          "name": "F#2",
          "ticks": 19056,
          "time": 175.146872,
          "velocity": 0.4645669291338583
        },
        {
          "duration": 0.009191166666681738,
          "durationTicks": 1,
          "midi": 46,
          "name": "A#2",
          "ticks": 19080,
          "time": 175.36746,
          "velocity": 0.48031496062992124
        },
        {
          "duration": 0.009191166666681738,
          "durationTicks": 1,
          "midi": 42,
          "name": "F#2",
          "ticks": 19104,
          "time": 175.58804800000001,
          "velocity": 0.4566929133858268
        },
        {
          "duration": 0.009191166666681738,
          "durationTicks": 1,
          "midi": 46,
          "name": "A#2",
          "ticks": 19128,
          "time": 175.808636,
          "velocity": 0.4645669291338583
        },
        {
          "duration": 0.009191166666681738,
          "durationTicks": 1,
          "midi": 42,
          "name": "F#2",
          "ticks": 19152,
          "time": 176.029224,
          "velocity": 0.4330708661417323
        },
        {
          "duration": 0.00919116666671016,
          "durationTicks": 1,
          "midi": 46,
          "name": "A#2",
          "ticks": 19176,
          "time": 176.249812,
          "velocity": 0.4881889763779528
        },
        {
          "duration": 0.009191166666681738,
          "durationTicks": 1,
          "midi": 42,
          "name": "F#2",
          "ticks": 19200,
          "time": 176.4704,
          "velocity": 0.4566929133858268
        },
        {
          "duration": 0.009191166666681738,
          "durationTicks": 1,
          "midi": 46,
          "name": "A#2",
          "ticks": 19224,
          "time": 176.690988,
          "velocity": 0.5354330708661418
        },
        {
          "duration": 0.009191166666681738,
          "durationTicks": 1,
          "midi": 57,
          "name": "A3",
          "ticks": 19248,
          "time": 176.911576,
          "velocity": 0.4645669291338583
        },
        {
          "duration": 0.009191166666681738,
          "durationTicks": 1,
          "midi": 46,
          "name": "A#2",
          "ticks": 19272,
          "time": 177.13216400000002,
          "velocity": 0.48031496062992124
        },
        {
          "duration": 0.009191166666681738,
          "durationTicks": 1,
          "midi": 42,
          "name": "F#2",
          "ticks": 19296,
          "time": 177.352752,
          "velocity": 0.4645669291338583
        },
        {
          "duration": 0.009191166666681738,
          "durationTicks": 1,
          "midi": 46,
          "name": "A#2",
          "ticks": 19320,
          "time": 177.57334,
          "velocity": 0.48031496062992124
        },
        {
          "duration": 0.009191166666681738,
          "durationTicks": 1,
          "midi": 42,
          "name": "F#2",
          "ticks": 19344,
          "time": 177.793928,
          "velocity": 0.4645669291338583
        },
        {
          "duration": 0.009191166666681738,
          "durationTicks": 1,
          "midi": 46,
          "name": "A#2",
          "ticks": 19368,
          "time": 178.01451600000001,
          "velocity": 0.4881889763779528
        },
        {
          "duration": 0.009191166666681738,
          "durationTicks": 1,
          "midi": 42,
          "name": "F#2",
          "ticks": 19392,
          "time": 178.235104,
          "velocity": 0.4645669291338583
        },
        {
          "duration": 0.009191166666681738,
          "durationTicks": 1,
          "midi": 46,
          "name": "A#2",
          "ticks": 19416,
          "time": 178.455692,
          "velocity": 0.48031496062992124
        },
        {
          "duration": 0.00919116666671016,
          "durationTicks": 1,
          "midi": 57,
          "name": "A3",
          "ticks": 19440,
          "time": 178.67628,
          "velocity": 0.4251968503937008
        },
        {
          "duration": 0.009191166666681738,
          "durationTicks": 1,
          "midi": 49,
          "name": "C#3",
          "ticks": 19464,
          "time": 178.896868,
          "velocity": 0.3937007874015748
        },
        {
          "duration": 0.009191166666681738,
          "durationTicks": 1,
          "midi": 49,
          "name": "C#3",
          "ticks": 19488,
          "time": 179.117456,
          "velocity": 0.4566929133858268
        },
        {
          "duration": 0.009191166666681738,
          "durationTicks": 1,
          "midi": 46,
          "name": "A#2",
          "ticks": 19536,
          "time": 179.55863200000002,
          "velocity": 0.4409448818897638
        },
        {
          "duration": 0.009191166666681738,
          "durationTicks": 1,
          "midi": 42,
          "name": "F#2",
          "ticks": 19560,
          "time": 179.77922,
          "velocity": 0.4251968503937008
        },
        {
          "duration": 0.009191166666681738,
          "durationTicks": 1,
          "midi": 49,
          "name": "C#3",
          "ticks": 19584,
          "time": 179.999808,
          "velocity": 0.41732283464566927
        },
        {
          "duration": 0.009191166666681738,
          "durationTicks": 1,
          "midi": 57,
          "name": "A3",
          "ticks": 19608,
          "time": 180.220396,
          "velocity": 0.4409448818897638
        },
        {
          "duration": 0.009191166666681738,
          "durationTicks": 1,
          "midi": 57,
          "name": "A3",
          "ticks": 19680,
          "time": 180.88216,
          "velocity": 0.47244094488188976
        },
        {
          "duration": 0.009191166666681738,
          "durationTicks": 1,
          "midi": 42,
          "name": "F#2",
          "ticks": 19728,
          "time": 181.323336,
          "velocity": 0.4330708661417323
        },
        {
          "duration": 0.009191166666681738,
          "durationTicks": 1,
          "midi": 46,
          "name": "A#2",
          "ticks": 19752,
          "time": 181.543924,
          "velocity": 0.4645669291338583
        },
        {
          "duration": 0.009191166666681738,
          "durationTicks": 1,
          "midi": 42,
          "name": "F#2",
          "ticks": 19776,
          "time": 181.764512,
          "velocity": 0.4566929133858268
        },
        {
          "duration": 0.009191166666681738,
          "durationTicks": 1,
          "midi": 46,
          "name": "A#2",
          "ticks": 19800,
          "time": 181.98510000000002,
          "velocity": 0.5433070866141733
        },
        {
          "duration": 0.009191166666681738,
          "durationTicks": 1,
          "midi": 42,
          "name": "F#2",
          "ticks": 19824,
          "time": 182.205688,
          "velocity": 0.4645669291338583
        },
        {
          "duration": 0.009191166666681738,
          "durationTicks": 1,
          "midi": 46,
          "name": "A#2",
          "ticks": 19848,
          "time": 182.426276,
          "velocity": 0.48031496062992124
        },
        {
          "duration": 0.009191166666681738,
          "durationTicks": 1,
          "midi": 42,
          "name": "F#2",
          "ticks": 19872,
          "time": 182.646864,
          "velocity": 0.4566929133858268
        },
        {
          "duration": 0.009191166666681738,
          "durationTicks": 1,
          "midi": 46,
          "name": "A#2",
          "ticks": 19896,
          "time": 182.86745200000001,
          "velocity": 0.4645669291338583
        },
        {
          "duration": 0.009191166666681738,
          "durationTicks": 1,
          "midi": 42,
          "name": "F#2",
          "ticks": 19920,
          "time": 183.08804,
          "velocity": 0.4330708661417323
        },
        {
          "duration": 0.009191166666681738,
          "durationTicks": 1,
          "midi": 46,
          "name": "A#2",
          "ticks": 19944,
          "time": 183.308628,
          "velocity": 0.4881889763779528
        },
        {
          "duration": 0.00919116666671016,
          "durationTicks": 1,
          "midi": 42,
          "name": "F#2",
          "ticks": 19968,
          "time": 183.529216,
          "velocity": 0.4566929133858268
        },
        {
          "duration": 0.009191166666681738,
          "durationTicks": 1,
          "midi": 46,
          "name": "A#2",
          "ticks": 19992,
          "time": 183.749804,
          "velocity": 0.5354330708661418
        },
        {
          "duration": 0.009191166666681738,
          "durationTicks": 1,
          "midi": 57,
          "name": "A3",
          "ticks": 20016,
          "time": 183.970392,
          "velocity": 0.4094488188976378
        },
        {
          "duration": 0.009191166666681738,
          "durationTicks": 1,
          "midi": 46,
          "name": "A#2",
          "ticks": 20040,
          "time": 184.19098,
          "velocity": 0.48031496062992124
        },
        {
          "duration": 0.009191166666681738,
          "durationTicks": 1,
          "midi": 42,
          "name": "F#2",
          "ticks": 20064,
          "time": 184.41156800000002,
          "velocity": 0.4645669291338583
        },
        {
          "duration": 0.009191166666681738,
          "durationTicks": 1,
          "midi": 46,
          "name": "A#2",
          "ticks": 20088,
          "time": 184.632156,
          "velocity": 0.48031496062992124
        },
        {
          "duration": 0.009191166666681738,
          "durationTicks": 1,
          "midi": 42,
          "name": "F#2",
          "ticks": 20112,
          "time": 184.852744,
          "velocity": 0.4645669291338583
        },
        {
          "duration": 0.009191166666681738,
          "durationTicks": 1,
          "midi": 46,
          "name": "A#2",
          "ticks": 20136,
          "time": 185.073332,
          "velocity": 0.4881889763779528
        },
        {
          "duration": 0.009191166666681738,
          "durationTicks": 1,
          "midi": 42,
          "name": "F#2",
          "ticks": 20160,
          "time": 185.29392,
          "velocity": 0.4645669291338583
        },
        {
          "duration": 0.009191166666681738,
          "durationTicks": 1,
          "midi": 46,
          "name": "A#2",
          "ticks": 20184,
          "time": 185.514508,
          "velocity": 0.48031496062992124
        },
        {
          "duration": 0.009191166666681738,
          "durationTicks": 1,
          "midi": 42,
          "name": "F#2",
          "ticks": 20208,
          "time": 185.735096,
          "velocity": 0.4645669291338583
        },
        {
          "duration": 0.00919116666671016,
          "durationTicks": 1,
          "midi": 46,
          "name": "A#2",
          "ticks": 20232,
          "time": 185.955684,
          "velocity": 0.48031496062992124
        },
        {
          "duration": 0.009191166666681738,
          "durationTicks": 1,
          "midi": 42,
          "name": "F#2",
          "ticks": 20256,
          "time": 186.176272,
          "velocity": 0.4645669291338583
        },
        {
          "duration": 0.009191166666681738,
          "durationTicks": 1,
          "midi": 57,
          "name": "A3",
          "ticks": 20280,
          "time": 186.39686,
          "velocity": 0.4566929133858268
        },
        {
          "duration": 0.009191166666681738,
          "durationTicks": 1,
          "midi": 46,
          "name": "A#2",
          "ticks": 20328,
          "time": 186.83803600000002,
          "velocity": 0.4409448818897638
        },
        {
          "duration": 0.009191166666681738,
          "durationTicks": 1,
          "midi": 42,
          "name": "F#2",
          "ticks": 20352,
          "time": 187.058624,
          "velocity": 0.4409448818897638
        },
        {
          "duration": 0.009191166666681738,
          "durationTicks": 1,
          "midi": 46,
          "name": "A#2",
          "ticks": 20376,
          "time": 187.279212,
          "velocity": 0.4566929133858268
        },
        {
          "duration": 0.009191166666681738,
          "durationTicks": 1,
          "midi": 57,
          "name": "A3",
          "ticks": 20400,
          "time": 187.4998,
          "velocity": 0.3228346456692913
        },
        {
          "duration": 0.009191166666681738,
          "durationTicks": 1,
          "midi": 46,
          "name": "A#2",
          "ticks": 20424,
          "time": 187.720388,
          "velocity": 0.5039370078740157
        },
        {
          "duration": 0.009191166666681738,
          "durationTicks": 1,
          "midi": 42,
          "name": "F#2",
          "ticks": 20448,
          "time": 187.940976,
          "velocity": 0.4566929133858268
        },
        {
          "duration": 0.009191166666681738,
          "durationTicks": 1,
          "midi": 46,
          "name": "A#2",
          "ticks": 20472,
          "time": 188.161564,
          "velocity": 0.4566929133858268
        },
        {
          "duration": 0.009191166666681738,
          "durationTicks": 1,
          "midi": 42,
          "name": "F#2",
          "ticks": 20496,
          "time": 188.38215200000002,
          "velocity": 0.4330708661417323
        },
        {
          "duration": 0.009191166666681738,
          "durationTicks": 1,
          "midi": 46,
          "name": "A#2",
          "ticks": 20520,
          "time": 188.60274,
          "velocity": 0.4645669291338583
        },
        {
          "duration": 0.009191166666681738,
          "durationTicks": 1,
          "midi": 42,
          "name": "F#2",
          "ticks": 20544,
          "time": 188.823328,
          "velocity": 0.4566929133858268
        },
        {
          "duration": 0.009191166666681738,
          "durationTicks": 1,
          "midi": 46,
          "name": "A#2",
          "ticks": 20568,
          "time": 189.043916,
          "velocity": 0.5196850393700787
        },
        {
          "duration": 0.009191166666681738,
          "durationTicks": 1,
          "midi": 57,
          "name": "A3",
          "ticks": 20592,
          "time": 189.26450400000002,
          "velocity": 0.4330708661417323
        },
        {
          "duration": 0.009191166666681738,
          "durationTicks": 1,
          "midi": 46,
          "name": "A#2",
          "ticks": 20616,
          "time": 189.485092,
          "velocity": 0.48031496062992124
        },
        {
          "duration": 0.009191166666681738,
          "durationTicks": 1,
          "midi": 42,
          "name": "F#2",
          "ticks": 20640,
          "time": 189.70568,
          "velocity": 0.4645669291338583
        },
        {
          "duration": 0.009191166666681738,
          "durationTicks": 1,
          "midi": 46,
          "name": "A#2",
          "ticks": 20664,
          "time": 189.926268,
          "velocity": 0.48031496062992124
        },
        {
          "duration": 0.009191166666681738,
          "durationTicks": 1,
          "midi": 42,
          "name": "F#2",
          "ticks": 20688,
          "time": 190.146856,
          "velocity": 0.4645669291338583
        },
        {
          "duration": 0.009191166666681738,
          "durationTicks": 1,
          "midi": 46,
          "name": "A#2",
          "ticks": 20712,
          "time": 190.367444,
          "velocity": 0.5275590551181102
        },
        {
          "duration": 0.009191166666681738,
          "durationTicks": 1,
          "midi": 42,
          "name": "F#2",
          "ticks": 20736,
          "time": 190.588032,
          "velocity": 0.4645669291338583
        },
        {
          "duration": 0.009191166666681738,
          "durationTicks": 1,
          "midi": 57,
          "name": "A3",
          "ticks": 20784,
          "time": 191.029208,
          "velocity": 0.2992125984251969
        },
        {
          "duration": 0.009191166666681738,
          "durationTicks": 1,
          "midi": 46,
          "name": "A#2",
          "ticks": 20808,
          "time": 191.249796,
          "velocity": 0.5039370078740157
        },
        {
          "duration": 0.009191166666681738,
          "durationTicks": 1,
          "midi": 42,
          "name": "F#2",
          "ticks": 20832,
          "time": 191.470384,
          "velocity": 0.4566929133858268
        },
        {
          "duration": 0.009191166666681738,
          "durationTicks": 1,
          "midi": 46,
          "name": "A#2",
          "ticks": 20856,
          "time": 191.69097200000002,
          "velocity": 0.4566929133858268
        },
        {
          "duration": 0.009191166666681738,
          "durationTicks": 1,
          "midi": 42,
          "name": "F#2",
          "ticks": 20880,
          "time": 191.91156,
          "velocity": 0.4330708661417323
        },
        {
          "duration": 0.009191166666681738,
          "durationTicks": 1,
          "midi": 46,
          "name": "A#2",
          "ticks": 20904,
          "time": 192.132148,
          "velocity": 0.4645669291338583
        },
        {
          "duration": 0.009191166666681738,
          "durationTicks": 1,
          "midi": 42,
          "name": "F#2",
          "ticks": 20928,
          "time": 192.352736,
          "velocity": 0.4566929133858268
        },
        {
          "duration": 0.009191166666681738,
          "durationTicks": 1,
          "midi": 46,
          "name": "A#2",
          "ticks": 20952,
          "time": 192.573324,
          "velocity": 0.5196850393700787
        },
        {
          "duration": 0.009191166666681738,
          "durationTicks": 1,
          "midi": 42,
          "name": "F#2",
          "ticks": 20976,
          "time": 192.793912,
          "velocity": 0.4645669291338583
        },
        {
          "duration": 0.009191166666681738,
          "durationTicks": 1,
          "midi": 46,
          "name": "A#2",
          "ticks": 21000,
          "time": 193.0145,
          "velocity": 0.48031496062992124
        },
        {
          "duration": 0.009191166666681738,
          "durationTicks": 1,
          "midi": 49,
          "name": "C#3",
          "ticks": 21024,
          "time": 193.23508800000002,
          "velocity": 0.4015748031496063
        },
        {
          "duration": 0.009191166666681738,
          "durationTicks": 1,
          "midi": 46,
          "name": "A#2",
          "ticks": 21048,
          "time": 193.455676,
          "velocity": 0.3700787401574803
        },
        {
          "duration": 0.009191166666681738,
          "durationTicks": 1,
          "midi": 42,
          "name": "F#2",
          "ticks": 21072,
          "time": 193.676264,
          "velocity": 0.4330708661417323
        },
        {
          "duration": 0.009191166666681738,
          "durationTicks": 1,
          "midi": 42,
          "name": "F#2",
          "ticks": 21084,
          "time": 193.786558,
          "velocity": 0.3464566929133858
        },
        {
          "duration": 0.009191166666681738,
          "durationTicks": 1,
          "midi": 42,
          "name": "F#2",
          "ticks": 21096,
          "time": 193.896852,
          "velocity": 0.3858267716535433
        },
        {
          "duration": 0.009191166666681738,
          "durationTicks": 1,
          "midi": 46,
          "name": "A#2",
          "ticks": 21108,
          "time": 194.007146,
          "velocity": 0.3464566929133858
        },
        {
          "duration": 0.009191166666681738,
          "durationTicks": 1,
          "midi": 57,
          "name": "A3",
          "ticks": 21120,
          "time": 194.11744000000002,
          "velocity": 0.48031496062992124
        },
        {
          "duration": 0.009191166666681738,
          "durationTicks": 1,
          "midi": 46,
          "name": "A#2",
          "ticks": 21144,
          "time": 194.338028,
          "velocity": 0.4566929133858268
        },
        {
          "duration": 0.009191166666681738,
          "durationTicks": 1,
          "midi": 49,
          "name": "C#3",
          "ticks": 21168,
          "time": 194.558616,
          "velocity": 0.41732283464566927
        },
        {
          "duration": 0.009191166666681738,
          "durationTicks": 1,
          "midi": 46,
          "name": "A#2",
          "ticks": 21192,
          "time": 194.779204,
          "velocity": 0.48031496062992124
        },
        {
          "duration": 0.009191166666681738,
          "durationTicks": 1,
          "midi": 42,
          "name": "F#2",
          "ticks": 21216,
          "time": 194.999792,
          "velocity": 0.4645669291338583
        },
        {
          "duration": 0.009191166666681738,
          "durationTicks": 1,
          "midi": 46,
          "name": "A#2",
          "ticks": 21240,
          "time": 195.22038,
          "velocity": 0.48031496062992124
        },
        {
          "duration": 0.009191166666681738,
          "durationTicks": 1,
          "midi": 42,
          "name": "F#2",
          "ticks": 21264,
          "time": 195.440968,
          "velocity": 0.4645669291338583
        },
        {
          "duration": 0.009191166666681738,
          "durationTicks": 1,
          "midi": 46,
          "name": "A#2",
          "ticks": 21288,
          "time": 195.66155600000002,
          "velocity": 0.4881889763779528
        },
        {
          "duration": 0.009191166666681738,
          "durationTicks": 1,
          "midi": 42,
          "name": "F#2",
          "ticks": 21312,
          "time": 195.882144,
          "velocity": 0.4645669291338583
        },
        {
          "duration": 0.009191166666681738,
          "durationTicks": 1,
          "midi": 46,
          "name": "A#2",
          "ticks": 21336,
          "time": 196.102732,
          "velocity": 0.48031496062992124
        },
        {
          "duration": 0.009191166666681738,
          "durationTicks": 1,
          "midi": 57,
          "name": "A3",
          "ticks": 21360,
          "time": 196.32332,
          "velocity": 0.4251968503937008
        },
        {
          "duration": 0.009191166666681738,
          "durationTicks": 1,
          "midi": 46,
          "name": "A#2",
          "ticks": 21384,
          "time": 196.54390800000002,
          "velocity": 0.48031496062992124
        },
        {
          "duration": 0.009191166666681738,
          "durationTicks": 1,
          "midi": 42,
          "name": "F#2",
          "ticks": 21408,
          "time": 196.764496,
          "velocity": 0.4645669291338583
        },
        {
          "duration": 0.009191166666681738,
          "durationTicks": 1,
          "midi": 46,
          "name": "A#2",
          "ticks": 21432,
          "time": 196.985084,
          "velocity": 0.48031496062992124
        },
        {
          "duration": 0.009191166666681738,
          "durationTicks": 1,
          "midi": 42,
          "name": "F#2",
          "ticks": 21456,
          "time": 197.205672,
          "velocity": 0.4645669291338583
        },
        {
          "duration": 0.009191166666681738,
          "durationTicks": 1,
          "midi": 46,
          "name": "A#2",
          "ticks": 21480,
          "time": 197.42626,
          "velocity": 0.4881889763779528
        },
        {
          "duration": 0.009191166666681738,
          "durationTicks": 1,
          "midi": 57,
          "name": "A3",
          "ticks": 21504,
          "time": 197.646848,
          "velocity": 0.41732283464566927
        },
        {
          "duration": 0.009191166666681738,
          "durationTicks": 1,
          "midi": 57,
          "name": "A3",
          "ticks": 21552,
          "time": 198.08802400000002,
          "velocity": 0.4251968503937008
        },
        {
          "duration": 0.009191166666681738,
          "durationTicks": 1,
          "midi": 46,
          "name": "A#2",
          "ticks": 21576,
          "time": 198.308612,
          "velocity": 0.3779527559055118
        },
        {
          "duration": 0.009191166666681738,
          "durationTicks": 1,
          "midi": 57,
          "name": "A3",
          "ticks": 21600,
          "time": 198.5292,
          "velocity": 0.4409448818897638
        },
        {
          "duration": 0.009191166666681738,
          "durationTicks": 1,
          "midi": 46,
          "name": "A#2",
          "ticks": 21624,
          "time": 198.749788,
          "velocity": 0.3858267716535433
        },
        {
          "duration": 0.009191166666681738,
          "durationTicks": 1,
          "midi": 57,
          "name": "A3",
          "ticks": 21648,
          "time": 198.97037600000002,
          "velocity": 0.47244094488188976
        },
        {
          "duration": 0.009191166666681738,
          "durationTicks": 1,
          "midi": 46,
          "name": "A#2",
          "ticks": 21672,
          "time": 199.190964,
          "velocity": 0.3858267716535433
        },
        {
          "duration": 0.009191166666681738,
          "durationTicks": 1,
          "midi": 46,
          "name": "A#2",
          "ticks": 21696,
          "time": 199.411552,
          "velocity": 0.3543307086614173
        },
        {
          "duration": 0.00919116666671016,
          "durationTicks": 1,
          "midi": 57,
          "name": "A3",
          "ticks": 21720,
          "time": 199.63214,
          "velocity": 0.4881889763779528
        },
        {
          "duration": 0.009191166666681738,
          "durationTicks": 1,
          "midi": 57,
          "name": "A3",
          "ticks": 21936,
          "time": 201.617432,
          "velocity": 0.49606299212598426
        }
      ],
      "endOfTrackTicks": 22128
    },
    {
      "channel": 0,
      "controlChanges": {
        "0": [
          {
            "number": 0,
            "ticks": 157,
            "time": 1.4430131666666668,
            "value": 0
          }
        ],
        "32": [
          {
            "number": 32,
            "ticks": 162,
            "time": 1.488969,
            "value": 0.015748031496062992
          }
        ],
        "121": [
          {
            "number": 121,
            "ticks": 152,
            "time": 1.3970573333333334,
            "value": 0
          }
        ]
      },
      "pitchBends": [],
      "instrument": {
        "family": "piano",
        "number": 0,
        "name": "acoustic grand piano"
      },
      "name": "Strings Low (L)",
      "notes": [],
      "endOfTrackTicks": 21937
    },
    {
      "channel": 10,
      "controlChanges": {
        "6": [
          {
            "number": 6,
            "ticks": 182,
            "time": 1.6727923333333332,
            "value": 0.09448818897637795
          }
        ],
        "7": [
          {
            "number": 7,
            "ticks": 172,
            "time": 1.5808806666666668,
            "value": 0.6614173228346457
          }
        ],
        "10": [
          {
            "number": 10,
            "ticks": 173,
            "time": 1.5900718333333332,
            "value": 0.16535433070866143
          }
        ],
        "11": [
          {
            "number": 11,
            "ticks": 174,
            "time": 1.599263,
            "value": 0.7007874015748031
          }
        ],
        "71": [
          {
            "number": 71,
            "ticks": 179,
            "time": 1.6452188333333333,
            "value": 0.5039370078740157
          }
        ],
        "74": [
          {
            "number": 74,
            "ticks": 178,
            "time": 1.6360276666666669,
            "value": 0.5039370078740157
          }
        ],
        "91": [
          {
            "number": 91,
            "ticks": 175,
            "time": 1.6084541666666667,
            "value": 0.16535433070866143
          }
        ],
        "93": [
          {
            "number": 93,
            "ticks": 176,
            "time": 1.6176453333333334,
            "value": 0.3543307086614173
          }
        ],
        "94": [
          {
            "number": 94,
            "ticks": 177,
            "time": 1.6268365,
            "value": 0
          }
        ],
        "100": [
          {
            "number": 100,
            "ticks": 181,
            "time": 1.6636011666666668,
            "value": 0
          }
        ],
        "101": [
          {
            "number": 101,
            "ticks": 180,
            "time": 1.65441,
            "value": 0
          }
        ]
      },
      "pitchBends": [
        {
          "ticks": 191,
          "time": 1.7555128333333334,
          "value": 0.010986328125
        }
      ],
      "instrument": {
        "family": "ensemble",
        "number": 48,
        "name": "string ensemble 1"
      },
      "name": "",
      "notes": [
        {
          "duration": 1.7463216666666663,
          "durationTicks": 190,
          "midi": 30,
          "name": "F#1",
          "ticks": 433,
          "time": 3.9797751666666668,
          "velocity": 0.7795275590551181
        },
        {
          "duration": 1.7463216666666677,
          "durationTicks": 190,
          "midi": 32,
          "name": "G#1",
          "ticks": 625,
          "time": 5.744479166666666,
          "velocity": 0.7795275590551181
        },
        {
          "duration": 1.7463216666666668,
          "durationTicks": 190,
          "midi": 34,
          "name": "A#1",
          "ticks": 817,
          "time": 7.509183166666666,
          "velocity": 0.7795275590551181
        },
        {
          "duration": 1.7463216666666668,
          "durationTicks": 190,
          "midi": 30,
          "name": "F#1",
          "ticks": 1201,
          "time": 11.038591166666667,
          "velocity": 0.7795275590551181
        },
        {
          "duration": 1.7463216666666668,
          "durationTicks": 190,
          "midi": 32,
          "name": "G#1",
          "ticks": 1393,
          "time": 12.803295166666668,
          "velocity": 0.7795275590551181
        },
        {
          "duration": 1.5257336666666674,
          "durationTicks": 166,
          "midi": 37,
          "name": "C#2",
          "ticks": 1585,
          "time": 14.567999166666667,
          "velocity": 0.7795275590551181
        },
        {
          "duration": 0.8639696666666694,
          "durationTicks": 94,
          "midi": 34,
          "name": "A#1",
          "ticks": 1753,
          "time": 16.112115166666666,
          "velocity": 0.7795275590551181
        },
        {
          "duration": 1.0845576666666688,
          "durationTicks": 118,
          "midi": 34,
          "name": "A#1",
          "ticks": 1849,
          "time": 16.994467166666666,
          "velocity": 0.7795275590551181
        },
        {
          "duration": 1.7463216666666668,
          "durationTicks": 190,
          "midi": 27,
          "name": "D#1",
          "ticks": 1969,
          "time": 18.097407166666667,
          "velocity": 0.7795275590551181
        },
        {
          "duration": 1.7463216666666668,
          "durationTicks": 190,
          "midi": 32,
          "name": "G#1",
          "ticks": 2161,
          "time": 19.86211116666667,
          "velocity": 0.7795275590551181
        },
        {
          "duration": 1.7463216666666668,
          "durationTicks": 190,
          "midi": 30,
          "name": "F#1",
          "ticks": 2353,
          "time": 21.626815166666667,
          "velocity": 0.7795275590551181
        },
        {
          "duration": 1.7463216666666739,
          "durationTicks": 190,
          "midi": 30,
          "name": "F#1",
          "ticks": 6577,
          "time": 60.450303166666664,
          "velocity": 0.7795275590551181
        },
        {
          "duration": 1.7463216666666668,
          "durationTicks": 190,
          "midi": 32,
          "name": "G#1",
          "ticks": 6769,
          "time": 62.215007166666666,
          "velocity": 0.7795275590551181
        },
        {
          "duration": 1.5257336666666603,
          "durationTicks": 166,
          "midi": 37,
          "name": "C#2",
          "ticks": 6961,
          "time": 63.97971116666667,
          "velocity": 0.7795275590551181
        },
        {
          "duration": 0.8639696666666623,
          "durationTicks": 94,
          "midi": 34,
          "name": "A#1",
          "ticks": 7129,
          "time": 65.52382716666666,
          "velocity": 0.7795275590551181
        },
        {
          "duration": 0.6433816666666701,
          "durationTicks": 70,
          "midi": 34,
          "name": "A#1",
          "ticks": 7225,
          "time": 66.40617916666666,
          "velocity": 0.7795275590551181
        },
        {
          "duration": 0.42279366666667784,
          "durationTicks": 46,
          "midi": 32,
          "name": "G#1",
          "ticks": 7297,
          "time": 67.06794316666665,
          "velocity": 0.7795275590551181
        },
        {
          "duration": 1.7463216666666597,
          "durationTicks": 190,
          "midi": 30,
          "name": "F#1",
          "ticks": 7345,
          "time": 67.50911916666666,
          "velocity": 0.7795275590551181
        },
        {
          "duration": 0.8639696666666765,
          "durationTicks": 94,
          "midi": 29,
          "name": "F1",
          "ticks": 7537,
          "time": 69.27382316666666,
          "velocity": 0.7795275590551181
        },
        {
          "duration": 0.8639696666666765,
          "durationTicks": 94,
          "midi": 36,
          "name": "C2",
          "ticks": 7633,
          "time": 70.15617516666666,
          "velocity": 0.7795275590551181
        },
        {
          "duration": 1.3051456666666752,
          "durationTicks": 142,
          "midi": 34,
          "name": "A#1",
          "ticks": 7729,
          "time": 71.03852716666665,
          "velocity": 0.7795275590551181
        },
        {
          "duration": 0.2022056666666714,
          "durationTicks": 22,
          "midi": 34,
          "name": "A#1",
          "ticks": 7873,
          "time": 72.36205516666666,
          "velocity": 0.7795275590551181
        },
        {
          "duration": 0.2022056666666714,
          "durationTicks": 22,
          "midi": 36,
          "name": "C2",
          "ticks": 7897,
          "time": 72.58264316666666,
          "velocity": 0.7795275590551181
        },
        {
          "duration": 0.8639696666666623,
          "durationTicks": 94,
          "midi": 37,
          "name": "C#2",
          "ticks": 7921,
          "time": 72.80323116666666,
          "velocity": 0.7795275590551181
        },
        {
          "duration": 0.4227936666666636,
          "durationTicks": 46,
          "midi": 32,
          "name": "G#1",
          "ticks": 8017,
          "time": 73.68558316666666,
          "velocity": 0.7795275590551181
        },
        {
          "duration": 0.4227936666666636,
          "durationTicks": 46,
          "midi": 32,
          "name": "G#1",
          "ticks": 8065,
          "time": 74.12675916666666,
          "velocity": 0.7795275590551181
        },
        {
          "duration": 1.7463216666666739,
          "durationTicks": 190,
          "midi": 30,
          "name": "F#1",
          "ticks": 8113,
          "time": 74.56793516666666,
          "velocity": 0.7795275590551181
        },
        {
          "duration": 1.7463216666666739,
          "durationTicks": 190,
          "midi": 32,
          "name": "G#1",
          "ticks": 8305,
          "time": 76.33263916666665,
          "velocity": 0.7795275590551181
        },
        {
          "duration": 1.5257336666666674,
          "durationTicks": 166,
          "midi": 37,
          "name": "C#2",
          "ticks": 8497,
          "time": 78.09734316666666,
          "velocity": 0.7795275590551181
        },
        {
          "duration": 0.8639696666666623,
          "durationTicks": 94,
          "midi": 34,
          "name": "A#1",
          "ticks": 8665,
          "time": 79.64145916666666,
          "velocity": 0.7795275590551181
        },
        {
          "duration": 1.0845576666666688,
          "durationTicks": 118,
          "midi": 34,
          "name": "A#1",
          "ticks": 8761,
          "time": 80.52381116666666,
          "velocity": 0.7795275590551181
        },
        {
          "duration": 1.7463216666666597,
          "durationTicks": 190,
          "midi": 27,
          "name": "D#1",
          "ticks": 8881,
          "time": 81.62675116666666,
          "velocity": 0.7795275590551181
        },
        {
          "duration": 1.7463216666666739,
          "durationTicks": 190,
          "midi": 32,
          "name": "G#1",
          "ticks": 9073,
          "time": 83.39145516666666,
          "velocity": 0.7795275590551181
        },
        {
          "duration": 1.7463216666666739,
          "durationTicks": 190,
          "midi": 30,
          "name": "F#1",
          "ticks": 9265,
          "time": 85.15615916666665,
          "velocity": 0.7795275590551181
        },
        {
          "duration": 1.7463216666666739,
          "durationTicks": 190,
          "midi": 30,
          "name": "F#1",
          "ticks": 11185,
          "time": 102.80319916666666,
          "velocity": 0.7795275590551181
        },
        {
          "duration": 1.7463216666666739,
          "durationTicks": 190,
          "midi": 32,
          "name": "G#1",
          "ticks": 11377,
          "time": 104.56790316666665,
          "velocity": 0.7795275590551181
        },
        {
          "duration": 1.7463216666666739,
          "durationTicks": 190,
          "midi": 34,
          "name": "A#1",
          "ticks": 11569,
          "time": 106.33260716666666,
          "velocity": 0.7795275590551181
        },
        {
          "duration": 0.6341905000000025,
          "durationTicks": 69,
          "midi": 34,
          "name": "A#1",
          "ticks": 11761,
          "time": 108.09731116666666,
          "velocity": 0.7795275590551181
        },
        {
          "duration": 0.21139683333333892,
          "durationTicks": 23,
          "midi": 25,
          "name": "C#1",
          "ticks": 11833,
          "time": 108.75907516666666,
          "velocity": 0.7795275590551181
        },
        {
          "duration": 0.42279366666667784,
          "durationTicks": 46,
          "midi": 32,
          "name": "G#1",
          "ticks": 11857,
          "time": 108.97966316666665,
          "velocity": 0.7795275590551181
        },
        {
          "duration": 0.21139683333335313,
          "durationTicks": 23,
          "midi": 34,
          "name": "A#1",
          "ticks": 11905,
          "time": 109.42083916666665,
          "velocity": 0.7795275590551181
        },
        {
          "duration": 0.21139683333333892,
          "durationTicks": 23,
          "midi": 25,
          "name": "C#1",
          "ticks": 11929,
          "time": 109.64142716666666,
          "velocity": 0.7795275590551181
        },
        {
          "duration": 1.7463216666666597,
          "durationTicks": 190,
          "midi": 30,
          "name": "F#1",
          "ticks": 11953,
          "time": 109.86201516666667,
          "velocity": 0.7795275590551181
        },
        {
          "duration": 1.7463216666666739,
          "durationTicks": 190,
          "midi": 32,
          "name": "G#1",
          "ticks": 12145,
          "time": 111.62671916666666,
          "velocity": 0.7795275590551181
        },
        {
          "duration": 1.7463216666666739,
          "durationTicks": 190,
          "midi": 34,
          "name": "A#1",
          "ticks": 12337,
          "time": 113.39142316666666,
          "velocity": 0.7795275590551181
        },
        {
          "duration": 1.7463216666666455,
          "durationTicks": 190,
          "midi": 37,
          "name": "C#2",
          "ticks": 12529,
          "time": 115.15612716666668,
          "velocity": 0.7795275590551181
        },
        {
          "duration": 1.7463216666666597,
          "durationTicks": 190,
          "midi": 31,
          "name": "G1",
          "ticks": 12721,
          "time": 116.92083116666667,
          "velocity": 0.7795275590551181
        },
        {
          "duration": 1.7463216666666597,
          "durationTicks": 190,
          "midi": 42,
          "name": "F#2",
          "ticks": 12913,
          "time": 118.68553516666667,
          "velocity": 0.7795275590551181
        },
        {
          "duration": 1.470586666666648,
          "durationTicks": 160,
          "midi": 41,
          "name": "F2",
          "ticks": 13105,
          "time": 120.45023916666668,
          "velocity": 0.7795275590551181
        },
        {
          "duration": 0.845587333333313,
          "durationTicks": 92,
          "midi": 34,
          "name": "A#1",
          "ticks": 13273,
          "time": 121.99435516666668,
          "velocity": 0.7795275590551181
        },
        {
          "duration": 0.6341905000000025,
          "durationTicks": 69,
          "midi": 34,
          "name": "A#1",
          "ticks": 13369,
          "time": 122.87670716666668,
          "velocity": 0.7795275590551181
        },
        {
          "duration": 0.20220566666665718,
          "durationTicks": 22,
          "midi": 32,
          "name": "G#1",
          "ticks": 13441,
          "time": 123.53847116666667,
          "velocity": 0.7795275590551181
        },
        {
          "duration": 0.19301450000000386,
          "durationTicks": 21,
          "midi": 29,
          "name": "F1",
          "ticks": 13465,
          "time": 123.75905916666667,
          "velocity": 0.7795275590551181
        },
        {
          "duration": 0.6249993333333208,
          "durationTicks": 68,
          "midi": 27,
          "name": "D#1",
          "ticks": 13489,
          "time": 123.97964716666667,
          "velocity": 0.7795275590551181
        },
        {
          "duration": 0.845587333333313,
          "durationTicks": 92,
          "midi": 29,
          "name": "F1",
          "ticks": 13561,
          "time": 124.64141116666667,
          "velocity": 0.7795275590551181
        },
        {
          "duration": 0.8455873333333273,
          "durationTicks": 92,
          "midi": 30,
          "name": "F#1",
          "ticks": 13657,
          "time": 125.52376316666667,
          "velocity": 0.7795275590551181
        },
        {
          "duration": 1.0569841666666662,
          "durationTicks": 115,
          "midi": 31,
          "name": "G1",
          "ticks": 13753,
          "time": 126.40611516666667,
          "velocity": 0.7795275590551181
        },
        {
          "duration": 1.1029400000000038,
          "durationTicks": 120,
          "midi": 32,
          "name": "G#1",
          "ticks": 13873,
          "time": 127.50905516666667,
          "velocity": 0.7795275590551181
        },
        {
          "duration": 0.19301450000000386,
          "durationTicks": 21,
          "midi": 29,
          "name": "F1",
          "ticks": 13993,
          "time": 128.61199516666667,
          "velocity": 0.7795275590551181
        },
        {
          "duration": 0.19301450000000386,
          "durationTicks": 21,
          "midi": 27,
          "name": "D#1",
          "ticks": 14017,
          "time": 128.83258316666667,
          "velocity": 0.7795275590551181
        },
        {
          "duration": 0.8639696666666623,
          "durationTicks": 94,
          "midi": 29,
          "name": "F1",
          "ticks": 14041,
          "time": 129.0531711666667,
          "velocity": 0.7795275590551181
        },
        {
          "duration": 0.19301450000000386,
          "durationTicks": 21,
          "midi": 24,
          "name": "C1",
          "ticks": 14137,
          "time": 129.93552316666668,
          "velocity": 0.7795275590551181
        },
        {
          "duration": 0.854778500000009,
          "durationTicks": 93,
          "midi": 29,
          "name": "F1",
          "ticks": 14161,
          "time": 130.15611116666668,
          "velocity": 0.7795275590551181
        },
        {
          "duration": 1.7463216666666597,
          "durationTicks": 190,
          "midi": 30,
          "name": "F#1",
          "ticks": 15025,
          "time": 138.09727916666668,
          "velocity": 0.7795275590551181
        },
        {
          "duration": 1.7463216666666597,
          "durationTicks": 190,
          "midi": 32,
          "name": "G#1",
          "ticks": 15217,
          "time": 139.86198316666668,
          "velocity": 0.7795275590551181
        },
        {
          "duration": 1.3051456666666468,
          "durationTicks": 142,
          "midi": 37,
          "name": "C#2",
          "ticks": 15409,
          "time": 141.6266871666667,
          "velocity": 0.7795275590551181
        },
        {
          "duration": 0.42279366666667784,
          "durationTicks": 46,
          "midi": 36,
          "name": "C2",
          "ticks": 15553,
          "time": 142.95021516666668,
          "velocity": 0.7795275590551181
        },
        {
          "duration": 1.3051456666666468,
          "durationTicks": 142,
          "midi": 34,
          "name": "A#1",
          "ticks": 15601,
          "time": 143.3913911666667,
          "velocity": 0.7795275590551181
        },
        {
          "duration": 0.42279366666667784,
          "durationTicks": 46,
          "midi": 32,
          "name": "G#1",
          "ticks": 15745,
          "time": 144.71491916666668,
          "velocity": 0.7795275590551181
        },
        {
          "duration": 1.7463216666666597,
          "durationTicks": 190,
          "midi": 30,
          "name": "F#1",
          "ticks": 15793,
          "time": 145.1560951666667,
          "velocity": 0.7795275590551181
        },
        {
          "duration": 0.8639696666666623,
          "durationTicks": 94,
          "midi": 29,
          "name": "F1",
          "ticks": 15985,
          "time": 146.92079916666668,
          "velocity": 0.7795275590551181
        },
        {
          "duration": 0.8639696666666623,
          "durationTicks": 94,
          "midi": 36,
          "name": "C2",
          "ticks": 16081,
          "time": 147.80315116666668,
          "velocity": 0.7795275590551181
        },
        {
          "duration": 0.8639696666666623,
          "durationTicks": 94,
          "midi": 34,
          "name": "A#1",
          "ticks": 16177,
          "time": 148.68550316666668,
          "velocity": 0.7795275590551181
        },
        {
          "duration": 0.42279366666667784,
          "durationTicks": 46,
          "midi": 24,
          "name": "C1",
          "ticks": 16273,
          "time": 149.56785516666667,
          "velocity": 0.7795275590551181
        },
        {
          "duration": 0.20220566666665718,
          "durationTicks": 22,
          "midi": 34,
          "name": "A#1",
          "ticks": 16321,
          "time": 150.0090311666667,
          "velocity": 0.7795275590551181
        },
        {
          "duration": 0.20220566666665718,
          "durationTicks": 22,
          "midi": 36,
          "name": "C2",
          "ticks": 16345,
          "time": 150.22961916666668,
          "velocity": 0.7795275590551181
        },
        {
          "duration": 0.8639696666666339,
          "durationTicks": 94,
          "midi": 37,
          "name": "C#2",
          "ticks": 16369,
          "time": 150.4502071666667,
          "velocity": 0.7795275590551181
        },
        {
          "duration": 0.4227936666666494,
          "durationTicks": 46,
          "midi": 32,
          "name": "G#1",
          "ticks": 16465,
          "time": 151.3325591666667,
          "velocity": 0.7795275590551181
        },
        {
          "duration": 0.4227936666666494,
          "durationTicks": 46,
          "midi": 32,
          "name": "G#1",
          "ticks": 16513,
          "time": 151.77373516666668,
          "velocity": 0.7795275590551181
        },
        {
          "duration": 1.7463216666666597,
          "durationTicks": 190,
          "midi": 30,
          "name": "F#1",
          "ticks": 16561,
          "time": 152.2149111666667,
          "velocity": 0.7795275590551181
        },
        {
          "duration": 1.7463216666666597,
          "durationTicks": 190,
          "midi": 32,
          "name": "G#1",
          "ticks": 16753,
          "time": 153.9796151666667,
          "velocity": 0.7795275590551181
        },
        {
          "duration": 1.5257336666666674,
          "durationTicks": 166,
          "midi": 37,
          "name": "C#2",
          "ticks": 16945,
          "time": 155.74431916666668,
          "velocity": 0.7795275590551181
        },
        {
          "duration": 0.8639696666666623,
          "durationTicks": 94,
          "midi": 34,
          "name": "A#1",
          "ticks": 17113,
          "time": 157.2884351666667,
          "velocity": 0.7795275590551181
        },
        {
          "duration": 1.0845576666666545,
          "durationTicks": 118,
          "midi": 34,
          "name": "A#1",
          "ticks": 17209,
          "time": 158.17078716666668,
          "velocity": 0.7795275590551181
        },
        {
          "duration": 1.7463216666666597,
          "durationTicks": 190,
          "midi": 27,
          "name": "D#1",
          "ticks": 17329,
          "time": 159.27372716666667,
          "velocity": 0.7795275590551181
        },
        {
          "duration": 1.7463216666666597,
          "durationTicks": 190,
          "midi": 32,
          "name": "G#1",
          "ticks": 17521,
          "time": 161.0384311666667,
          "velocity": 0.7795275590551181
        },
        {
          "duration": 1.7463216666666597,
          "durationTicks": 190,
          "midi": 30,
          "name": "F#1",
          "ticks": 17713,
          "time": 162.8031351666667,
          "velocity": 0.7795275590551181
        },
        {
          "duration": 0.8639696666666623,
          "durationTicks": 94,
          "midi": 32,
          "name": "G#1",
          "ticks": 17905,
          "time": 164.5678391666667,
          "velocity": 0.7795275590551181
        },
        {
          "duration": 0.8639696666666623,
          "durationTicks": 94,
          "midi": 29,
          "name": "F1",
          "ticks": 18001,
          "time": 165.45019116666668,
          "velocity": 0.7795275590551181
        },
        {
          "duration": 1.7463216666666597,
          "durationTicks": 190,
          "midi": 30,
          "name": "F#1",
          "ticks": 18097,
          "time": 166.33254316666668,
          "velocity": 0.7795275590551181
        },
        {
          "duration": 1.7463216666666597,
          "durationTicks": 190,
          "midi": 32,
          "name": "G#1",
          "ticks": 18289,
          "time": 168.09724716666668,
          "velocity": 0.7795275590551181
        },
        {
          "duration": 1.525733666666639,
          "durationTicks": 166,
          "midi": 37,
          "name": "C#2",
          "ticks": 18481,
          "time": 169.8619511666667,
          "velocity": 0.7795275590551181
        },
        {
          "duration": 0.8639696666666339,
          "durationTicks": 94,
          "midi": 34,
          "name": "A#1",
          "ticks": 18649,
          "time": 171.4060671666667,
          "velocity": 0.7795275590551181
        },
        {
          "duration": 0.6433816666666416,
          "durationTicks": 70,
          "midi": 34,
          "name": "A#1",
          "ticks": 18745,
          "time": 172.2884191666667,
          "velocity": 0.7795275590551181
        },
        {
          "duration": 0.42279366666667784,
          "durationTicks": 46,
          "midi": 32,
          "name": "G#1",
          "ticks": 18817,
          "time": 172.95018316666668,
          "velocity": 0.7795275590551181
        },
        {
          "duration": 1.7463216666666597,
          "durationTicks": 190,
          "midi": 30,
          "name": "F#1",
          "ticks": 18865,
          "time": 173.3913591666667,
          "velocity": 0.7795275590551181
        },
        {
          "duration": 0.8639696666666623,
          "durationTicks": 94,
          "midi": 29,
          "name": "F1",
          "ticks": 19057,
          "time": 175.15606316666668,
          "velocity": 0.7795275590551181
        },
        {
          "duration": 0.8639696666666623,
          "durationTicks": 94,
          "midi": 36,
          "name": "C2",
          "ticks": 19153,
          "time": 176.03841516666668,
          "velocity": 0.7795275590551181
        },
        {
          "duration": 1.3051456666666752,
          "durationTicks": 142,
          "midi": 34,
          "name": "A#1",
          "ticks": 19249,
          "time": 176.92076716666668,
          "velocity": 0.7795275590551181
        },
        {
          "duration": 0.20220566666665718,
          "durationTicks": 22,
          "midi": 34,
          "name": "A#1",
          "ticks": 19393,
          "time": 178.2442951666667,
          "velocity": 0.7795275590551181
        },
        {
          "duration": 0.20220566666665718,
          "durationTicks": 22,
          "midi": 36,
          "name": "C2",
          "ticks": 19417,
          "time": 178.46488316666668,
          "velocity": 0.7795275590551181
        },
        {
          "duration": 0.8639696666666339,
          "durationTicks": 94,
          "midi": 37,
          "name": "C#2",
          "ticks": 19441,
          "time": 178.6854711666667,
          "velocity": 0.7795275590551181
        },
        {
          "duration": 0.4227936666666494,
          "durationTicks": 46,
          "midi": 32,
          "name": "G#1",
          "ticks": 19537,
          "time": 179.5678231666667,
          "velocity": 0.7795275590551181
        },
        {
          "duration": 0.4227936666666494,
          "durationTicks": 46,
          "midi": 32,
          "name": "G#1",
          "ticks": 19585,
          "time": 180.00899916666668,
          "velocity": 0.7795275590551181
        },
        {
          "duration": 1.7463216666666597,
          "durationTicks": 190,
          "midi": 30,
          "name": "F#1",
          "ticks": 19633,
          "time": 180.4501751666667,
          "velocity": 0.7795275590551181
        },
        {
          "duration": 1.7463216666666597,
          "durationTicks": 190,
          "midi": 32,
          "name": "G#1",
          "ticks": 19825,
          "time": 182.2148791666667,
          "velocity": 0.7795275590551181
        },
        {
          "duration": 1.5257336666666674,
          "durationTicks": 166,
          "midi": 37,
          "name": "C#2",
          "ticks": 20017,
          "time": 183.97958316666669,
          "velocity": 0.7795275590551181
        },
        {
          "duration": 0.8639696666666623,
          "durationTicks": 94,
          "midi": 34,
          "name": "A#1",
          "ticks": 20185,
          "time": 185.5236991666667,
          "velocity": 0.7795275590551181
        },
        {
          "duration": 1.0845576666666545,
          "durationTicks": 118,
          "midi": 34,
          "name": "A#1",
          "ticks": 20281,
          "time": 186.40605116666669,
          "velocity": 0.7795275590551181
        },
        {
          "duration": 1.7463216666666597,
          "durationTicks": 190,
          "midi": 27,
          "name": "D#1",
          "ticks": 20401,
          "time": 187.50899116666668,
          "velocity": 0.7795275590551181
        },
        {
          "duration": 1.7463216666666597,
          "durationTicks": 190,
          "midi": 32,
          "name": "G#1",
          "ticks": 20593,
          "time": 189.2736951666667,
          "velocity": 0.7795275590551181
        },
        {
          "duration": 1.3051456666666468,
          "durationTicks": 142,
          "midi": 34,
          "name": "A#1",
          "ticks": 20785,
          "time": 191.0383991666667,
          "velocity": 0.7795275590551181
        },
        {
          "duration": 0.2022056666666856,
          "durationTicks": 22,
          "midi": 34,
          "name": "A#1",
          "ticks": 20929,
          "time": 192.36192716666667,
          "velocity": 0.7795275590551181
        },
        {
          "duration": 0.20220566666665718,
          "durationTicks": 22,
          "midi": 36,
          "name": "C2",
          "ticks": 20953,
          "time": 192.5825151666667,
          "velocity": 0.7795275590551181
        },
        {
          "duration": 0.8639696666666623,
          "durationTicks": 94,
          "midi": 37,
          "name": "C#2",
          "ticks": 20977,
          "time": 192.8031031666667,
          "velocity": 0.7795275590551181
        },
        {
          "duration": 0.4227936666666494,
          "durationTicks": 46,
          "midi": 25,
          "name": "C#1",
          "ticks": 21073,
          "time": 193.68545516666669,
          "velocity": 0.7795275590551181
        },
        {
          "duration": 0.4227936666666494,
          "durationTicks": 46,
          "midi": 32,
          "name": "G#1",
          "ticks": 21121,
          "time": 194.1266311666667,
          "velocity": 0.7795275590551181
        },
        {
          "duration": 1.7463216666666597,
          "durationTicks": 190,
          "midi": 30,
          "name": "F#1",
          "ticks": 21169,
          "time": 194.56780716666668,
          "velocity": 0.7795275590551181
        },
        {
          "duration": 1.7463216666666597,
          "durationTicks": 190,
          "midi": 32,
          "name": "G#1",
          "ticks": 21361,
          "time": 196.33251116666668,
          "velocity": 0.7795275590551181
        },
        {
          "duration": 3.5202168333333077,
          "durationTicks": 383,
          "midi": 30,
          "name": "F#1",
          "ticks": 21553,
          "time": 198.0972151666667,
          "velocity": 0.7795275590551181
        }
      ]
    },
    {
      "channel": 0,
      "controlChanges": {
        "0": [
          {
            "number": 0,
            "ticks": 157,
            "time": 1.4430131666666668,
            "value": 0
          }
        ],
        "32": [
          {
            "number": 32,
            "ticks": 162,
            "time": 1.488969,
            "value": 0.015748031496062992
          }
        ],
        "121": [
          {
            "number": 121,
            "ticks": 152,
            "time": 1.3970573333333334,
            "value": 0
          }
        ]
      },
      "pitchBends": [],
      "instrument": {
        "family": "piano",
        "number": 0,
        "name": "acoustic grand piano"
      },
      "name": "Strings Low (R)",
      "notes": [],
      "endOfTrackTicks": 21940
    },
    {
      "channel": 11,
      "controlChanges": {
        "6": [
          {
            "number": 6,
            "ticks": 182,
            "time": 1.6727923333333332,
            "value": 0.09448818897637795
          }
        ],
        "7": [
          {
            "number": 7,
            "ticks": 172,
            "time": 1.5808806666666668,
            "value": 0.6614173228346457
          }
        ],
        "10": [
          {
            "number": 10,
            "ticks": 173,
            "time": 1.5900718333333332,
            "value": 0.8346456692913385
          }
        ],
        "11": [
          {
            "number": 11,
            "ticks": 174,
            "time": 1.599263,
            "value": 0.7007874015748031
          }
        ],
        "71": [
          {
            "number": 71,
            "ticks": 179,
            "time": 1.6452188333333333,
            "value": 0.5039370078740157
          }
        ],
        "74": [
          {
            "number": 74,
            "ticks": 178,
            "time": 1.6360276666666669,
            "value": 0.5039370078740157
          }
        ],
        "91": [
          {
            "number": 91,
            "ticks": 175,
            "time": 1.6084541666666667,
            "value": 0.16535433070866143
          }
        ],
        "93": [
          {
            "number": 93,
            "ticks": 176,
            "time": 1.6176453333333334,
            "value": 0.3543307086614173
          }
        ],
        "94": [
          {
            "number": 94,
            "ticks": 177,
            "time": 1.6268365,
            "value": 0
          }
        ],
        "100": [
          {
            "number": 100,
            "ticks": 181,
            "time": 1.6636011666666668,
            "value": 0
          }
        ],
        "101": [
          {
            "number": 101,
            "ticks": 180,
            "time": 1.65441,
            "value": 0
          }
        ]
      },
      "pitchBends": [
        {
          "ticks": 191,
          "time": 1.7555128333333334,
          "value": 0.010986328125
        }
      ],
      "instrument": {
        "family": "ensemble",
        "number": 48,
        "name": "string ensemble 1"
      },
      "name": "",
      "notes": [
        {
          "duration": 1.7463216666666668,
          "durationTicks": 190,
          "midi": 42,
          "name": "F#2",
          "ticks": 436,
          "time": 4.007348666666667,
          "velocity": 0.7795275590551181
        },
        {
          "duration": 1.7463216666666677,
          "durationTicks": 190,
          "midi": 44,
          "name": "G#2",
          "ticks": 628,
          "time": 5.772052666666666,
          "velocity": 0.7795275590551181
        },
        {
          "duration": 1.7463216666666677,
          "durationTicks": 190,
          "midi": 46,
          "name": "A#2",
          "ticks": 820,
          "time": 7.536756666666666,
          "velocity": 0.7795275590551181
        },
        {
          "duration": 1.7463216666666632,
          "durationTicks": 190,
          "midi": 42,
          "name": "F#2",
          "ticks": 1204,
          "time": 11.066164666666669,
          "velocity": 0.7795275590551181
        },
        {
          "duration": 1.7463216666666668,
          "durationTicks": 190,
          "midi": 44,
          "name": "G#2",
          "ticks": 1396,
          "time": 12.830868666666667,
          "velocity": 0.7795275590551181
        },
        {
          "duration": 1.5257336666666639,
          "durationTicks": 166,
          "midi": 49,
          "name": "C#3",
          "ticks": 1588,
          "time": 14.59557266666667,
          "velocity": 0.7795275590551181
        },
        {
          "duration": 0.8639696666666694,
          "durationTicks": 94,
          "midi": 46,
          "name": "A#2",
          "ticks": 1756,
          "time": 16.139688666666665,
          "velocity": 0.7795275590551181
        },
        {
          "duration": 1.0845576666666688,
          "durationTicks": 118,
          "midi": 46,
          "name": "A#2",
          "ticks": 1852,
          "time": 17.022040666666665,
          "velocity": 0.7795275590551181
        },
        {
          "duration": 1.7463216666666703,
          "durationTicks": 190,
          "midi": 39,
          "name": "D#2",
          "ticks": 1972,
          "time": 18.124980666666666,
          "velocity": 0.7795275590551181
        },
        {
          "duration": 1.7463216666666668,
          "durationTicks": 190,
          "midi": 44,
          "name": "G#2",
          "ticks": 2164,
          "time": 19.889684666666668,
          "velocity": 0.7795275590551181
        },
        {
          "duration": 1.7463216666666703,
          "durationTicks": 190,
          "midi": 42,
          "name": "F#2",
          "ticks": 2356,
          "time": 21.654388666666666,
          "velocity": 0.7795275590551181
        },
        {
          "duration": 1.7463216666666668,
          "durationTicks": 190,
          "midi": 42,
          "name": "F#2",
          "ticks": 6580,
          "time": 60.47787666666667,
          "velocity": 0.7795275590551181
        },
        {
          "duration": 1.7463216666666739,
          "durationTicks": 190,
          "midi": 44,
          "name": "G#2",
          "ticks": 6772,
          "time": 62.24258066666666,
          "velocity": 0.7795275590551181
        },
        {
          "duration": 1.5257336666666674,
          "durationTicks": 166,
          "midi": 49,
          "name": "C#3",
          "ticks": 6964,
          "time": 64.00728466666666,
          "velocity": 0.7795275590551181
        },
        {
          "duration": 0.8639696666666623,
          "durationTicks": 94,
          "midi": 46,
          "name": "A#2",
          "ticks": 7132,
          "time": 65.55140066666667,
          "velocity": 0.7795275590551181
        },
        {
          "duration": 0.6433816666666701,
          "durationTicks": 70,
          "midi": 46,
          "name": "A#2",
          "ticks": 7228,
          "time": 66.43375266666666,
          "velocity": 0.7795275590551181
        },
        {
          "duration": 0.42279366666667784,
          "durationTicks": 46,
          "midi": 44,
          "name": "G#2",
          "ticks": 7300,
          "time": 67.09551666666665,
          "velocity": 0.7795275590551181
        },
        {
          "duration": 1.7463216666666739,
          "durationTicks": 190,
          "midi": 42,
          "name": "F#2",
          "ticks": 7348,
          "time": 67.53669266666665,
          "velocity": 0.7795275590551181
        },
        {
          "duration": 0.8639696666666623,
          "durationTicks": 94,
          "midi": 41,
          "name": "F2",
          "ticks": 7540,
          "time": 69.30139666666666,
          "velocity": 0.7795275590551181
        },
        {
          "duration": 0.8639696666666765,
          "durationTicks": 94,
          "midi": 48,
          "name": "C3",
          "ticks": 7636,
          "time": 70.18374866666666,
          "velocity": 0.7795275590551181
        },
        {
          "duration": 1.3051456666666752,
          "durationTicks": 142,
          "midi": 46,
          "name": "A#2",
          "ticks": 7732,
          "time": 71.06610066666666,
          "velocity": 0.7795275590551181
        },
        {
          "duration": 0.2022056666666714,
          "durationTicks": 22,
          "midi": 46,
          "name": "A#2",
          "ticks": 7876,
          "time": 72.38962866666665,
          "velocity": 0.7795275590551181
        },
        {
          "duration": 0.2022056666666714,
          "durationTicks": 22,
          "midi": 48,
          "name": "C3",
          "ticks": 7900,
          "time": 72.61021666666666,
          "velocity": 0.7795275590551181
        },
        {
          "duration": 0.8639696666666765,
          "durationTicks": 94,
          "midi": 49,
          "name": "C#3",
          "ticks": 7924,
          "time": 72.83080466666665,
          "velocity": 0.7795275590551181
        },
        {
          "duration": 0.4227936666666636,
          "durationTicks": 46,
          "midi": 44,
          "name": "G#2",
          "ticks": 8020,
          "time": 73.71315666666666,
          "velocity": 0.7795275590551181
        },
        {
          "duration": 0.4227936666666636,
          "durationTicks": 46,
          "midi": 44,
          "name": "G#2",
          "ticks": 8068,
          "time": 74.15433266666666,
          "velocity": 0.7795275590551181
        },
        {
          "duration": 1.7463216666666739,
          "durationTicks": 190,
          "midi": 42,
          "name": "F#2",
          "ticks": 8116,
          "time": 74.59550866666666,
          "velocity": 0.7795275590551181
        },
        {
          "duration": 1.7463216666666739,
          "durationTicks": 190,
          "midi": 44,
          "name": "G#2",
          "ticks": 8308,
          "time": 76.36021266666665,
          "velocity": 0.7795275590551181
        },
        {
          "duration": 1.5257336666666674,
          "durationTicks": 166,
          "midi": 49,
          "name": "C#3",
          "ticks": 8500,
          "time": 78.12491666666666,
          "velocity": 0.7795275590551181
        },
        {
          "duration": 0.8639696666666765,
          "durationTicks": 94,
          "midi": 46,
          "name": "A#2",
          "ticks": 8668,
          "time": 79.66903266666665,
          "velocity": 0.7795275590551181
        },
        {
          "duration": 1.0845576666666688,
          "durationTicks": 118,
          "midi": 46,
          "name": "A#2",
          "ticks": 8764,
          "time": 80.55138466666666,
          "velocity": 0.7795275590551181
        },
        {
          "duration": 1.7463216666666739,
          "durationTicks": 190,
          "midi": 39,
          "name": "D#2",
          "ticks": 8884,
          "time": 81.65432466666665,
          "velocity": 0.7795275590551181
        },
        {
          "duration": 1.7463216666666739,
          "durationTicks": 190,
          "midi": 44,
          "name": "G#2",
          "ticks": 9076,
          "time": 83.41902866666666,
          "velocity": 0.7795275590551181
        },
        {
          "duration": 1.7463216666666739,
          "durationTicks": 190,
          "midi": 42,
          "name": "F#2",
          "ticks": 9268,
          "time": 85.18373266666666,
          "velocity": 0.7795275590551181
        },
        {
          "duration": 1.7463216666666739,
          "durationTicks": 190,
          "midi": 42,
          "name": "F#2",
          "ticks": 11188,
          "time": 102.83077266666666,
          "velocity": 0.7795275590551181
        },
        {
          "duration": 1.7463216666666739,
          "durationTicks": 190,
          "midi": 44,
          "name": "G#2",
          "ticks": 11380,
          "time": 104.59547666666666,
          "velocity": 0.7795275590551181
        },
        {
          "duration": 1.7463216666666597,
          "durationTicks": 190,
          "midi": 46,
          "name": "A#2",
          "ticks": 11572,
          "time": 106.36018066666666,
          "velocity": 0.7795275590551181
        },
        {
          "duration": 0.6341905000000025,
          "durationTicks": 69,
          "midi": 46,
          "name": "A#2",
          "ticks": 11764,
          "time": 108.12488466666666,
          "velocity": 0.7795275590551181
        },
        {
          "duration": 0.21139683333333892,
          "durationTicks": 23,
          "midi": 37,
          "name": "C#2",
          "ticks": 11836,
          "time": 108.78664866666666,
          "velocity": 0.7795275590551181
        },
        {
          "duration": 0.42279366666667784,
          "durationTicks": 46,
          "midi": 44,
          "name": "G#2",
          "ticks": 11860,
          "time": 109.00723666666666,
          "velocity": 0.7795275590551181
        },
        {
          "duration": 0.21139683333333892,
          "durationTicks": 23,
          "midi": 46,
          "name": "A#2",
          "ticks": 11908,
          "time": 109.44841266666666,
          "velocity": 0.7795275590551181
        },
        {
          "duration": 0.21139683333333892,
          "durationTicks": 23,
          "midi": 37,
          "name": "C#2",
          "ticks": 11932,
          "time": 109.66900066666666,
          "velocity": 0.7795275590551181
        },
        {
          "duration": 1.7463216666666739,
          "durationTicks": 190,
          "midi": 42,
          "name": "F#2",
          "ticks": 11956,
          "time": 109.88958866666665,
          "velocity": 0.7795275590551181
        },
        {
          "duration": 1.7463216666666739,
          "durationTicks": 190,
          "midi": 44,
          "name": "G#2",
          "ticks": 12148,
          "time": 111.65429266666666,
          "velocity": 0.7795275590551181
        },
        {
          "duration": 1.7463216666666739,
          "durationTicks": 190,
          "midi": 46,
          "name": "A#2",
          "ticks": 12340,
          "time": 113.41899666666666,
          "velocity": 0.7795275590551181
        },
        {
          "duration": 1.7463216666666597,
          "durationTicks": 190,
          "midi": 49,
          "name": "C#3",
          "ticks": 12532,
          "time": 115.18370066666667,
          "velocity": 0.7795275590551181
        },
        {
          "duration": 1.7463216666666597,
          "durationTicks": 190,
          "midi": 43,
          "name": "G2",
          "ticks": 12724,
          "time": 116.94840466666668,
          "velocity": 0.7795275590551181
        },
        {
          "duration": 1.7463216666666597,
          "durationTicks": 190,
          "midi": 54,
          "name": "F#3",
          "ticks": 12916,
          "time": 118.71310866666667,
          "velocity": 0.7795275590551181
        },
        {
          "duration": 1.470586666666648,
          "durationTicks": 160,
          "midi": 53,
          "name": "F3",
          "ticks": 13108,
          "time": 120.47781266666668,
          "velocity": 0.7795275590551181
        },
        {
          "duration": 0.8455873333333273,
          "durationTicks": 92,
          "midi": 46,
          "name": "A#2",
          "ticks": 13276,
          "time": 122.02192866666667,
          "velocity": 0.7795275590551181
        },
        {
          "duration": 0.6341904999999883,
          "durationTicks": 69,
          "midi": 46,
          "name": "A#2",
          "ticks": 13372,
          "time": 122.90428066666668,
          "velocity": 0.7795275590551181
        },
        {
          "duration": 0.20220566666665718,
          "durationTicks": 22,
          "midi": 44,
          "name": "G#2",
          "ticks": 13444,
          "time": 123.56604466666667,
          "velocity": 0.7795275590551181
        },
        {
          "duration": 0.19301449999998965,
          "durationTicks": 21,
          "midi": 41,
          "name": "F2",
          "ticks": 13468,
          "time": 123.78663266666668,
          "velocity": 0.7795275590551181
        },
        {
          "duration": 0.6249993333333208,
          "durationTicks": 68,
          "midi": 39,
          "name": "D#2",
          "ticks": 13492,
          "time": 124.00722066666667,
          "velocity": 0.7795275590551181
        },
        {
          "duration": 0.845587333333313,
          "durationTicks": 92,
          "midi": 41,
          "name": "F2",
          "ticks": 13564,
          "time": 124.66898466666667,
          "velocity": 0.7795275590551181
        },
        {
          "duration": 0.845587333333313,
          "durationTicks": 92,
          "midi": 42,
          "name": "F#2",
          "ticks": 13660,
          "time": 125.55133666666667,
          "velocity": 0.7795275590551181
        },
        {
          "duration": 1.0569841666666662,
          "durationTicks": 115,
          "midi": 43,
          "name": "G2",
          "ticks": 13756,
          "time": 126.43368866666667,
          "velocity": 0.7795275590551181
        },
        {
          "duration": 1.102940000000018,
          "durationTicks": 120,
          "midi": 44,
          "name": "G#2",
          "ticks": 13876,
          "time": 127.53662866666667,
          "velocity": 0.7795275590551181
        },
        {
          "duration": 0.19301449999997544,
          "durationTicks": 21,
          "midi": 41,
          "name": "F2",
          "ticks": 13996,
          "time": 128.6395686666667,
          "velocity": 0.7795275590551181
        },
        {
          "duration": 0.19301450000000386,
          "durationTicks": 21,
          "midi": 39,
          "name": "D#2",
          "ticks": 14020,
          "time": 128.86015666666668,
          "velocity": 0.7795275590551181
        },
        {
          "duration": 0.8823520000000258,
          "durationTicks": 96,
          "midi": 41,
          "name": "F2",
          "ticks": 14044,
          "time": 129.08074466666667,
          "velocity": 0.7795275590551181
        },
        {
          "duration": 0.19301449999997544,
          "durationTicks": 21,
          "midi": 36,
          "name": "C2",
          "ticks": 14140,
          "time": 129.9630966666667,
          "velocity": 0.7795275590551181
        },
        {
          "duration": 0.8639696666666623,
          "durationTicks": 94,
          "midi": 41,
          "name": "F2",
          "ticks": 14164,
          "time": 130.1836846666667,
          "velocity": 0.7795275590551181
        },
        {
          "duration": 1.7463216666666597,
          "durationTicks": 190,
          "midi": 42,
          "name": "F#2",
          "ticks": 15028,
          "time": 138.1248526666667,
          "velocity": 0.7795275590551181
        },
        {
          "duration": 1.7463216666666597,
          "durationTicks": 190,
          "midi": 44,
          "name": "G#2",
          "ticks": 15220,
          "time": 139.8895566666667,
          "velocity": 0.7795275590551181
        },
        {
          "duration": 1.3051456666666468,
          "durationTicks": 142,
          "midi": 49,
          "name": "C#3",
          "ticks": 15412,
          "time": 141.6542606666667,
          "velocity": 0.7795275590551181
        },
        {
          "duration": 0.4227936666666494,
          "durationTicks": 46,
          "midi": 48,
          "name": "C3",
          "ticks": 15556,
          "time": 142.9777886666667,
          "velocity": 0.7795275590551181
        },
        {
          "duration": 1.3051456666666752,
          "durationTicks": 142,
          "midi": 46,
          "name": "A#2",
          "ticks": 15604,
          "time": 143.41896466666668,
          "velocity": 0.7795275590551181
        },
        {
          "duration": 0.4227936666666494,
          "durationTicks": 46,
          "midi": 44,
          "name": "G#2",
          "ticks": 15748,
          "time": 144.7424926666667,
          "velocity": 0.7795275590551181
        },
        {
          "duration": 1.7463216666666597,
          "durationTicks": 190,
          "midi": 42,
          "name": "F#2",
          "ticks": 15796,
          "time": 145.18366866666668,
          "velocity": 0.7795275590551181
        },
        {
          "duration": 0.8639696666666339,
          "durationTicks": 94,
          "midi": 41,
          "name": "F2",
          "ticks": 15988,
          "time": 146.9483726666667,
          "velocity": 0.7795275590551181
        },
        {
          "duration": 0.8639696666666623,
          "durationTicks": 94,
          "midi": 48,
          "name": "C3",
          "ticks": 16084,
          "time": 147.8307246666667,
          "velocity": 0.7795275590551181
        },
        {
          "duration": 0.8639696666666623,
          "durationTicks": 94,
          "midi": 46,
          "name": "A#2",
          "ticks": 16180,
          "time": 148.7130766666667,
          "velocity": 0.7795275590551181
        },
        {
          "duration": 0.4227936666666494,
          "durationTicks": 46,
          "midi": 36,
          "name": "C2",
          "ticks": 16276,
          "time": 149.5954286666667,
          "velocity": 0.7795275590551181
        },
        {
          "duration": 0.20220566666665718,
          "durationTicks": 22,
          "midi": 46,
          "name": "A#2",
          "ticks": 16324,
          "time": 150.03660466666668,
          "velocity": 0.7795275590551181
        },
        {
          "duration": 0.20220566666665718,
          "durationTicks": 22,
          "midi": 48,
          "name": "C3",
          "ticks": 16348,
          "time": 150.2571926666667,
          "velocity": 0.7795275590551181
        },
        {
          "duration": 0.8639696666666623,
          "durationTicks": 94,
          "midi": 49,
          "name": "C#3",
          "ticks": 16372,
          "time": 150.4777806666667,
          "velocity": 0.7795275590551181
        },
        {
          "duration": 0.4227936666666494,
          "durationTicks": 46,
          "midi": 44,
          "name": "G#2",
          "ticks": 16468,
          "time": 151.3601326666667,
          "velocity": 0.7795275590551181
        },
        {
          "duration": 0.4227936666666494,
          "durationTicks": 46,
          "midi": 44,
          "name": "G#2",
          "ticks": 16516,
          "time": 151.8013086666667,
          "velocity": 0.7795275590551181
        },
        {
          "duration": 1.7463216666666597,
          "durationTicks": 190,
          "midi": 42,
          "name": "F#2",
          "ticks": 16564,
          "time": 152.24248466666668,
          "velocity": 0.7795275590551181
        },
        {
          "duration": 1.7463216666666597,
          "durationTicks": 190,
          "midi": 44,
          "name": "G#2",
          "ticks": 16756,
          "time": 154.00718866666668,
          "velocity": 0.7795275590551181
        },
        {
          "duration": 1.525733666666639,
          "durationTicks": 166,
          "midi": 49,
          "name": "C#3",
          "ticks": 16948,
          "time": 155.7718926666667,
          "velocity": 0.7795275590551181
        },
        {
          "duration": 0.8639696666666623,
          "durationTicks": 94,
          "midi": 46,
          "name": "A#2",
          "ticks": 17116,
          "time": 157.31600866666668,
          "velocity": 0.7795275590551181
        },
        {
          "duration": 1.0845576666666545,
          "durationTicks": 118,
          "midi": 46,
          "name": "A#2",
          "ticks": 17212,
          "time": 158.1983606666667,
          "velocity": 0.7795275590551181
        },
        {
          "duration": 1.7463216666666597,
          "durationTicks": 190,
          "midi": 39,
          "name": "D#2",
          "ticks": 17332,
          "time": 159.3013006666667,
          "velocity": 0.7795275590551181
        },
        {
          "duration": 1.7463216666666597,
          "durationTicks": 190,
          "midi": 44,
          "name": "G#2",
          "ticks": 17524,
          "time": 161.0660046666667,
          "velocity": 0.7795275590551181
        },
        {
          "duration": 1.7463216666666597,
          "durationTicks": 190,
          "midi": 42,
          "name": "F#2",
          "ticks": 17716,
          "time": 162.83070866666668,
          "velocity": 0.7795275590551181
        },
        {
          "duration": 0.8639696666666623,
          "durationTicks": 94,
          "midi": 44,
          "name": "G#2",
          "ticks": 17908,
          "time": 164.59541266666668,
          "velocity": 0.7795275590551181
        },
        {
          "duration": 0.8639696666666339,
          "durationTicks": 94,
          "midi": 41,
          "name": "F2",
          "ticks": 18004,
          "time": 165.4777646666667,
          "velocity": 0.7795275590551181
        },
        {
          "duration": 1.7463216666666597,
          "durationTicks": 190,
          "midi": 42,
          "name": "F#2",
          "ticks": 18100,
          "time": 166.3601166666667,
          "velocity": 0.7795275590551181
        },
        {
          "duration": 1.7463216666666597,
          "durationTicks": 190,
          "midi": 44,
          "name": "G#2",
          "ticks": 18292,
          "time": 168.1248206666667,
          "velocity": 0.7795275590551181
        },
        {
          "duration": 1.5257336666666674,
          "durationTicks": 166,
          "midi": 49,
          "name": "C#3",
          "ticks": 18484,
          "time": 169.8895246666667,
          "velocity": 0.7795275590551181
        },
        {
          "duration": 0.8639696666666623,
          "durationTicks": 94,
          "midi": 46,
          "name": "A#2",
          "ticks": 18652,
          "time": 171.4336406666667,
          "velocity": 0.7795275590551181
        },
        {
          "duration": 0.6433816666666701,
          "durationTicks": 70,
          "midi": 46,
          "name": "A#2",
          "ticks": 18748,
          "time": 172.3159926666667,
          "velocity": 0.7795275590551181
        },
        {
          "duration": 0.4227936666666494,
          "durationTicks": 46,
          "midi": 44,
          "name": "G#2",
          "ticks": 18820,
          "time": 172.9777566666667,
          "velocity": 0.7795275590551181
        },
        {
          "duration": 1.7463216666666597,
          "durationTicks": 190,
          "midi": 42,
          "name": "F#2",
          "ticks": 18868,
          "time": 173.41893266666668,
          "velocity": 0.7795275590551181
        },
        {
          "duration": 0.8639696666666339,
          "durationTicks": 94,
          "midi": 41,
          "name": "F2",
          "ticks": 19060,
          "time": 175.1836366666667,
          "velocity": 0.7795275590551181
        },
        {
          "duration": 0.8639696666666623,
          "durationTicks": 94,
          "midi": 48,
          "name": "C3",
          "ticks": 19156,
          "time": 176.0659886666667,
          "velocity": 0.7795275590551181
        },
        {
          "duration": 1.3051456666666468,
          "durationTicks": 142,
          "midi": 46,
          "name": "A#2",
          "ticks": 19252,
          "time": 176.9483406666667,
          "velocity": 0.7795275590551181
        },
        {
          "duration": 0.20220566666665718,
          "durationTicks": 22,
          "midi": 46,
          "name": "A#2",
          "ticks": 19396,
          "time": 178.27186866666668,
          "velocity": 0.7795275590551181
        },
        {
          "duration": 0.20220566666665718,
          "durationTicks": 22,
          "midi": 48,
          "name": "C3",
          "ticks": 19420,
          "time": 178.4924566666667,
          "velocity": 0.7795275590551181
        },
        {
          "duration": 0.8639696666666623,
          "durationTicks": 94,
          "midi": 49,
          "name": "C#3",
          "ticks": 19444,
          "time": 178.7130446666667,
          "velocity": 0.7795275590551181
        },
        {
          "duration": 0.4227936666666494,
          "durationTicks": 46,
          "midi": 44,
          "name": "G#2",
          "ticks": 19540,
          "time": 179.5953966666667,
          "velocity": 0.7795275590551181
        },
        {
          "duration": 0.4227936666666494,
          "durationTicks": 46,
          "midi": 44,
          "name": "G#2",
          "ticks": 19588,
          "time": 180.0365726666667,
          "velocity": 0.7795275590551181
        },
        {
          "duration": 1.7463216666666597,
          "durationTicks": 190,
          "midi": 42,
          "name": "F#2",
          "ticks": 19636,
          "time": 180.47774866666668,
          "velocity": 0.7795275590551181
        },
        {
          "duration": 1.7463216666666597,
          "durationTicks": 190,
          "midi": 44,
          "name": "G#2",
          "ticks": 19828,
          "time": 182.24245266666668,
          "velocity": 0.7795275590551181
        },
        {
          "duration": 1.525733666666639,
          "durationTicks": 166,
          "midi": 49,
          "name": "C#3",
          "ticks": 20020,
          "time": 184.0071566666667,
          "velocity": 0.7795275590551181
        },
        {
          "duration": 0.8639696666666623,
          "durationTicks": 94,
          "midi": 46,
          "name": "A#2",
          "ticks": 20188,
          "time": 185.55127266666668,
          "velocity": 0.7795275590551181
        },
        {
          "duration": 1.0845576666666545,
          "durationTicks": 118,
          "midi": 46,
          "name": "A#2",
          "ticks": 20284,
          "time": 186.4336246666667,
          "velocity": 0.7795275590551181
        },
        {
          "duration": 1.7463216666666597,
          "durationTicks": 190,
          "midi": 39,
          "name": "D#2",
          "ticks": 20404,
          "time": 187.5365646666667,
          "velocity": 0.7795275590551181
        },
        {
          "duration": 1.7463216666666597,
          "durationTicks": 190,
          "midi": 44,
          "name": "G#2",
          "ticks": 20596,
          "time": 189.3012686666667,
          "velocity": 0.7795275590551181
        },
        {
          "duration": 1.3051456666666752,
          "durationTicks": 142,
          "midi": 46,
          "name": "A#2",
          "ticks": 20788,
          "time": 191.06597266666668,
          "velocity": 0.7795275590551181
        },
        {
          "duration": 0.20220566666665718,
          "durationTicks": 22,
          "midi": 46,
          "name": "A#2",
          "ticks": 20932,
          "time": 192.3895006666667,
          "velocity": 0.7795275590551181
        },
        {
          "duration": 0.20220566666665718,
          "durationTicks": 22,
          "midi": 48,
          "name": "C3",
          "ticks": 20956,
          "time": 192.61008866666668,
          "velocity": 0.7795275590551181
        },
        {
          "duration": 0.8639696666666623,
          "durationTicks": 94,
          "midi": 49,
          "name": "C#3",
          "ticks": 20980,
          "time": 192.83067666666668,
          "velocity": 0.7795275590551181
        },
        {
          "duration": 0.4227936666666494,
          "durationTicks": 46,
          "midi": 37,
          "name": "C#2",
          "ticks": 21076,
          "time": 193.7130286666667,
          "velocity": 0.7795275590551181
        },
        {
          "duration": 0.4227936666666494,
          "durationTicks": 46,
          "midi": 44,
          "name": "G#2",
          "ticks": 21124,
          "time": 194.1542046666667,
          "velocity": 0.7795275590551181
        },
        {
          "duration": 1.7463216666666597,
          "durationTicks": 190,
          "midi": 42,
          "name": "F#2",
          "ticks": 21172,
          "time": 194.5953806666667,
          "velocity": 0.7795275590551181
        },
        {
          "duration": 1.7463216666666597,
          "durationTicks": 190,
          "midi": 44,
          "name": "G#2",
          "ticks": 21364,
          "time": 196.3600846666667,
          "velocity": 0.7795275590551181
        },
        {
          "duration": 3.5202168333333077,
          "durationTicks": 383,
          "midi": 42,
          "name": "F#2",
          "ticks": 21556,
          "time": 198.1247886666667,
          "velocity": 0.7795275590551181
        }
      ]
    },
    {
      "channel": 0,
      "controlChanges": {
        "0": [
          {
            "number": 0,
            "ticks": 143,
            "time": 1.3143368333333334,
            "value": 0
          }
        ],
        "32": [
          {
            "number": 32,
            "ticks": 147,
            "time": 1.3511015,
            "value": 0.007874015748031496
          }
        ],
        "121": [
          {
            "number": 121,
            "ticks": 139,
            "time": 1.2775721666666668,
            "value": 0
          }
        ]
      },
      "pitchBends": [],
      "instrument": {
        "family": "piano",
        "number": 0,
        "name": "acoustic grand piano"
      },
      "name": "Guitar L sub",
      "notes": [],
      "endOfTrackTicks": 22127
    },
    {
      "channel": 12,
      "controlChanges": {
        "6": [
          {
            "number": 6,
            "ticks": 181,
            "time": 1.6636011666666668,
            "value": 0.09448818897637795
          }
        ],
        "7": [
          {
            "number": 7,
            "ticks": 155,
            "time": 1.4246308333333333,
            "value": 0.5196850393700787
          }
        ],
        "10": [
          {
            "number": 10,
            "ticks": 159,
            "time": 1.4613955,
            "value": 0.15748031496062992
          }
        ],
        "11": [
          {
            "number": 11,
            "ticks": 162,
            "time": 1.488969,
            "value": 0.6141732283464567
          }
        ],
        "71": [
          {
            "number": 71,
            "ticks": 173,
            "time": 1.5900718333333332,
            "value": 0.5039370078740157
          }
        ],
        "74": [
          {
            "number": 74,
            "ticks": 172,
            "time": 1.5808806666666668,
            "value": 0.3937007874015748
          }
        ],
        "91": [
          {
            "number": 91,
            "ticks": 165,
            "time": 1.5165425000000001,
            "value": 0
          }
        ],
        "93": [
          {
            "number": 93,
            "ticks": 168,
            "time": 1.544116,
            "value": 0
          }
        ],
        "94": [
          {
            "number": 94,
            "ticks": 171,
            "time": 1.5716895,
            "value": 0
          }
        ],
        "100": [
          {
            "number": 100,
            "ticks": 178,
            "time": 1.6360276666666669,
            "value": 0
          }
        ],
        "101": [
          {
            "number": 101,
            "ticks": 175,
            "time": 1.6084541666666667,
            "value": 0
          }
        ]
      },
      "pitchBends": [
        {
          "ticks": 1833,
          "time": 16.8474085,
          "value": 0.083251953125
        },
        {
          "ticks": 1836,
          "time": 16.874982000000003,
          "value": 0.16650390625
        },
        {
          "ticks": 1847,
          "time": 16.976084833333335,
          "value": 0
        },
        {
          "ticks": 1955,
          "time": 17.968730833333336,
          "value": 0.083251953125
        },
        {
          "ticks": 1967,
          "time": 18.079024833333335,
          "value": 0
        },
        {
          "ticks": 2171,
          "time": 19.954022833333333,
          "value": 0.16650390625
        },
        {
          "ticks": 2183,
          "time": 20.064316833333336,
          "value": 0
        },
        {
          "ticks": 2336,
          "time": 21.470565333333337,
          "value": -0.083251953125
        },
        {
          "ticks": 2339,
          "time": 21.498138833333336,
          "value": -0.16650390625
        },
        {
          "ticks": 2351,
          "time": 21.608432833333335,
          "value": 0
        },
        {
          "ticks": 4641,
          "time": 42.6562045,
          "value": -0.005859375
        },
        {
          "ticks": 4644,
          "time": 42.683778,
          "value": -0.01806640625
        },
        {
          "ticks": 4647,
          "time": 42.7113515,
          "value": -0.0302734375
        },
        {
          "ticks": 4650,
          "time": 42.738925,
          "value": -0.04248046875
        },
        {
          "ticks": 4652,
          "time": 42.75730733333334,
          "value": -0.0546875
        },
        {
          "ticks": 4655,
          "time": 42.78488083333333,
          "value": 0
        },
        {
          "ticks": 4799,
          "time": 44.108408833333336,
          "value": -0.16650390625
        },
        {
          "ticks": 4821,
          "time": 44.3106145,
          "value": -0.083251953125
        },
        {
          "ticks": 4823,
          "time": 44.328996833333335,
          "value": 0
        },
        {
          "ticks": 5409,
          "time": 49.7150205,
          "value": -0.005859375
        },
        {
          "ticks": 5412,
          "time": 49.742594,
          "value": -0.01806640625
        },
        {
          "ticks": 5415,
          "time": 49.7701675,
          "value": -0.0302734375
        },
        {
          "ticks": 5418,
          "time": 49.797741,
          "value": -0.04248046875
        },
        {
          "ticks": 5420,
          "time": 49.81612333333334,
          "value": -0.0546875
        },
        {
          "ticks": 5423,
          "time": 49.84369683333333,
          "value": 0
        },
        {
          "ticks": 5567,
          "time": 51.167224833333336,
          "value": -0.16650390625
        },
        {
          "ticks": 5589,
          "time": 51.3694305,
          "value": -0.083251953125
        },
        {
          "ticks": 5591,
          "time": 51.387812833333335,
          "value": 0
        },
        {
          "ticks": 5921,
          "time": 54.420897833333335,
          "value": -0.083251953125
        },
        {
          "ticks": 5922,
          "time": 54.430089,
          "value": -0.16650390625
        },
        {
          "ticks": 5927,
          "time": 54.47604483333333,
          "value": 0
        },
        {
          "ticks": 6359,
          "time": 58.446628833333335,
          "value": -0.16650390625
        },
        {
          "ticks": 6362,
          "time": 58.47420233333334,
          "value": -0.1326904296875
        },
        {
          "ticks": 6364,
          "time": 58.492584666666666,
          "value": -0.098876953125
        },
        {
          "ticks": 6365,
          "time": 58.50177583333333,
          "value": -0.0650634765625
        },
        {
          "ticks": 6366,
          "time": 58.51096700000001,
          "value": -0.03125
        },
        {
          "ticks": 6368,
          "time": 58.529349333333336,
          "value": 0
        },
        {
          "ticks": 7331,
          "time": 67.38044283333333,
          "value": -0.083251953125
        },
        {
          "ticks": 7343,
          "time": 67.49073683333333,
          "value": 0
        },
        {
          "ticks": 8745,
          "time": 80.3767525,
          "value": 0.083251953125
        },
        {
          "ticks": 8748,
          "time": 80.404326,
          "value": 0.16650390625
        },
        {
          "ticks": 8759,
          "time": 80.50542883333333,
          "value": 0
        },
        {
          "ticks": 8867,
          "time": 81.49807483333333,
          "value": 0.083251953125
        },
        {
          "ticks": 8879,
          "time": 81.60836883333333,
          "value": 0
        },
        {
          "ticks": 8915,
          "time": 81.93925083333333,
          "value": 0.083251953125
        },
        {
          "ticks": 8927,
          "time": 82.04954483333333,
          "value": 0
        },
        {
          "ticks": 14369,
          "time": 132.06787383333335,
          "value": -0.083251953125
        },
        {
          "ticks": 14370,
          "time": 132.077065,
          "value": -0.16650390625
        },
        {
          "ticks": 14375,
          "time": 132.12302083333336,
          "value": 0
        },
        {
          "ticks": 14807,
          "time": 136.09360483333336,
          "value": -0.16650390625
        },
        {
          "ticks": 14810,
          "time": 136.12117833333335,
          "value": -0.1326904296875
        },
        {
          "ticks": 14812,
          "time": 136.13956066666668,
          "value": -0.098876953125
        },
        {
          "ticks": 14813,
          "time": 136.14875183333334,
          "value": -0.0650634765625
        },
        {
          "ticks": 14814,
          "time": 136.15794300000002,
          "value": -0.03125
        },
        {
          "ticks": 14816,
          "time": 136.17632533333335,
          "value": 0
        },
        {
          "ticks": 17193,
          "time": 158.0237285,
          "value": 0.083251953125
        },
        {
          "ticks": 17196,
          "time": 158.051302,
          "value": 0.16650390625
        },
        {
          "ticks": 17207,
          "time": 158.15240483333335,
          "value": 0
        },
        {
          "ticks": 17315,
          "time": 159.14505083333336,
          "value": 0.083251953125
        },
        {
          "ticks": 17327,
          "time": 159.25534483333334,
          "value": 0
        },
        {
          "ticks": 17363,
          "time": 159.58622683333334,
          "value": 0.083251953125
        },
        {
          "ticks": 17375,
          "time": 159.69652083333335,
          "value": 0
        },
        {
          "ticks": 17531,
          "time": 161.13034283333334,
          "value": 0.16650390625
        },
        {
          "ticks": 17543,
          "time": 161.24063683333335,
          "value": 0
        },
        {
          "ticks": 18851,
          "time": 173.26268283333334,
          "value": -0.083251953125
        },
        {
          "ticks": 18863,
          "time": 173.37297683333335,
          "value": 0
        },
        {
          "ticks": 20265,
          "time": 186.2589925,
          "value": 0.083251953125
        },
        {
          "ticks": 20268,
          "time": 186.286566,
          "value": 0
        },
        {
          "ticks": 20435,
          "time": 187.82149083333334,
          "value": 0.083251953125
        },
        {
          "ticks": 20447,
          "time": 187.93178483333335,
          "value": 0
        },
        {
          "ticks": 21371,
          "time": 196.42442283333335,
          "value": 0.16650390625
        },
        {
          "ticks": 21383,
          "time": 196.53471683333333,
          "value": 0
        }
      ],
      "instrument": {
        "family": "guitar",
        "number": 30,
        "name": "distortion guitar"
      },
      "name": "",
      "notes": [
        {
          "duration": 1.755512833333333,
          "durationTicks": 191,
          "midi": 54,
          "name": "F#3",
          "ticks": 431,
          "time": 3.9613928333333335,
          "velocity": 0.7795275590551181
        },
        {
          "duration": 0.441176,
          "durationTicks": 48,
          "midi": 65,
          "name": "F4",
          "ticks": 431,
          "time": 3.9613928333333335,
          "velocity": 0.6141732283464567
        },
        {
          "duration": 0.22058799999999978,
          "durationTicks": 24,
          "midi": 68,
          "name": "G#4",
          "ticks": 431,
          "time": 3.9613928333333335,
          "velocity": 0.6141732283464567
        },
        {
          "duration": 1.755512833333333,
          "durationTicks": 191,
          "midi": 77,
          "name": "F5",
          "ticks": 432,
          "time": 3.970584,
          "velocity": 1
        },
        {
          "duration": 0.882352,
          "durationTicks": 96,
          "midi": 68,
          "name": "G#4",
          "ticks": 455,
          "time": 4.181980833333333,
          "velocity": 1
        },
        {
          "duration": 0.44117600000000046,
          "durationTicks": 48,
          "midi": 65,
          "name": "F4",
          "ticks": 479,
          "time": 4.4025688333333335,
          "velocity": 1
        },
        {
          "duration": 1.764704,
          "durationTicks": 192,
          "midi": 75,
          "name": "D#5",
          "ticks": 503,
          "time": 4.623156833333334,
          "velocity": 1
        },
        {
          "duration": 0.44117599999999957,
          "durationTicks": 48,
          "midi": 65,
          "name": "F4",
          "ticks": 527,
          "time": 4.843744833333334,
          "velocity": 0.6141732283464567
        },
        {
          "duration": 0.882352,
          "durationTicks": 96,
          "midi": 68,
          "name": "G#4",
          "ticks": 551,
          "time": 5.064332833333333,
          "velocity": 1
        },
        {
          "duration": 0.44117599999999957,
          "durationTicks": 48,
          "midi": 65,
          "name": "F4",
          "ticks": 575,
          "time": 5.2849208333333335,
          "velocity": 1
        },
        {
          "duration": 1.764704,
          "durationTicks": 192,
          "midi": 73,
          "name": "C#5",
          "ticks": 599,
          "time": 5.505508833333334,
          "velocity": 1
        },
        {
          "duration": 0.44117600000000046,
          "durationTicks": 48,
          "midi": 65,
          "name": "F4",
          "ticks": 623,
          "time": 5.726096833333333,
          "velocity": 1
        },
        {
          "duration": 1.6544099999999995,
          "durationTicks": 180,
          "midi": 56,
          "name": "G#3",
          "ticks": 624,
          "time": 5.735288000000001,
          "velocity": 0.8031496062992126
        },
        {
          "duration": 0.882352,
          "durationTicks": 96,
          "midi": 68,
          "name": "G#4",
          "ticks": 647,
          "time": 5.946684833333333,
          "velocity": 1
        },
        {
          "duration": 0.44117599999999957,
          "durationTicks": 48,
          "midi": 65,
          "name": "F4",
          "ticks": 671,
          "time": 6.1672728333333335,
          "velocity": 1
        },
        {
          "duration": 0.9926459999999997,
          "durationTicks": 108,
          "midi": 75,
          "name": "D#5",
          "ticks": 695,
          "time": 6.387860833333334,
          "velocity": 1
        },
        {
          "duration": 0.44117600000000046,
          "durationTicks": 48,
          "midi": 65,
          "name": "F4",
          "ticks": 719,
          "time": 6.608448833333333,
          "velocity": 1
        },
        {
          "duration": 0.5514700000000001,
          "durationTicks": 60,
          "midi": 68,
          "name": "G#4",
          "ticks": 743,
          "time": 6.829036833333333,
          "velocity": 1
        },
        {
          "duration": 0.3308819999999999,
          "durationTicks": 36,
          "midi": 65,
          "name": "F4",
          "ticks": 767,
          "time": 7.049624833333334,
          "velocity": 1
        },
        {
          "duration": 0.11029399999999967,
          "durationTicks": 12,
          "midi": 73,
          "name": "C#5",
          "ticks": 791,
          "time": 7.270212833333334,
          "velocity": 0.8110236220472441
        },
        {
          "duration": 0.027573499999999918,
          "durationTicks": 3,
          "midi": 73,
          "name": "C#5",
          "ticks": 803,
          "time": 7.3805068333333335,
          "velocity": 0.7007874015748031
        },
        {
          "duration": 1.7279393333333326,
          "durationTicks": 188,
          "midi": 58,
          "name": "A#3",
          "ticks": 815,
          "time": 7.490800833333334,
          "velocity": 0.7952755905511811
        },
        {
          "duration": 0.22058799999999934,
          "durationTicks": 24,
          "midi": 63,
          "name": "D#4",
          "ticks": 815,
          "time": 7.490800833333334,
          "velocity": 1
        },
        {
          "duration": 1.0937488333333327,
          "durationTicks": 119,
          "midi": 72,
          "name": "C5",
          "ticks": 816,
          "time": 7.499992000000001,
          "velocity": 1
        },
        {
          "duration": 1.1029400000000011,
          "durationTicks": 120,
          "midi": 68,
          "name": "G#4",
          "ticks": 839,
          "time": 7.711388833333333,
          "velocity": 1
        },
        {
          "duration": 1.3051456666666663,
          "durationTicks": 142,
          "midi": 63,
          "name": "D#4",
          "ticks": 863,
          "time": 7.931976833333334,
          "velocity": 1
        },
        {
          "duration": 1.084557666666667,
          "durationTicks": 118,
          "midi": 65,
          "name": "F4",
          "ticks": 887,
          "time": 8.152564833333333,
          "velocity": 0.8661417322834646
        },
        {
          "duration": 0.6433816666666665,
          "durationTicks": 70,
          "midi": 73,
          "name": "C#5",
          "ticks": 935,
          "time": 8.593740833333333,
          "velocity": 1
        },
        {
          "duration": 0.4227936666666654,
          "durationTicks": 46,
          "midi": 68,
          "name": "G#4",
          "ticks": 959,
          "time": 8.814328833333335,
          "velocity": 0.9291338582677166
        },
        {
          "duration": 0.20220566666666606,
          "durationTicks": 22,
          "midi": 75,
          "name": "D#5",
          "ticks": 983,
          "time": 9.034916833333334,
          "velocity": 1
        },
        {
          "duration": 0.22058799999999934,
          "durationTicks": 24,
          "midi": 63,
          "name": "D#4",
          "ticks": 1007,
          "time": 9.255504833333333,
          "velocity": 0.8740157480314961
        },
        {
          "duration": 0.2113968333333318,
          "durationTicks": 23,
          "midi": 68,
          "name": "G#4",
          "ticks": 1008,
          "time": 9.264696,
          "velocity": 1
        },
        {
          "duration": 0.20220566666666784,
          "durationTicks": 22,
          "midi": 63,
          "name": "D#4",
          "ticks": 1031,
          "time": 9.476092833333333,
          "velocity": 0.8740157480314961
        },
        {
          "duration": 0.20220566666666784,
          "durationTicks": 22,
          "midi": 68,
          "name": "G#4",
          "ticks": 1031,
          "time": 9.476092833333333,
          "velocity": 1
        },
        {
          "duration": 0.19301449999999853,
          "durationTicks": 21,
          "midi": 61,
          "name": "C#4",
          "ticks": 1055,
          "time": 9.696680833333334,
          "velocity": 0.9291338582677166
        },
        {
          "duration": 0.18382333333333278,
          "durationTicks": 20,
          "midi": 75,
          "name": "D#5",
          "ticks": 1056,
          "time": 9.705872,
          "velocity": 1
        },
        {
          "duration": 0.2113968333333318,
          "durationTicks": 23,
          "midi": 61,
          "name": "C#4",
          "ticks": 1079,
          "time": 9.917268833333335,
          "velocity": 0.952755905511811
        },
        {
          "duration": 0.2113968333333318,
          "durationTicks": 23,
          "midi": 73,
          "name": "C#5",
          "ticks": 1079,
          "time": 9.917268833333335,
          "velocity": 1
        },
        {
          "duration": 0.4411759999999987,
          "durationTicks": 48,
          "midi": 54,
          "name": "F#3",
          "ticks": 1199,
          "time": 11.020208833333335,
          "velocity": 0.7874015748031497
        },
        {
          "duration": 0.4411759999999987,
          "durationTicks": 48,
          "midi": 61,
          "name": "C#4",
          "ticks": 1199,
          "time": 11.020208833333335,
          "velocity": 0.7795275590551181
        },
        {
          "duration": 0.4411759999999987,
          "durationTicks": 48,
          "midi": 65,
          "name": "F4",
          "ticks": 1199,
          "time": 11.020208833333335,
          "velocity": 0.8976377952755905
        },
        {
          "duration": 0.4319848333333347,
          "durationTicks": 47,
          "midi": 68,
          "name": "G#4",
          "ticks": 1200,
          "time": 11.029399999999999,
          "velocity": 0.7637795275590551
        },
        {
          "duration": 0.4319848333333347,
          "durationTicks": 47,
          "midi": 73,
          "name": "C#5",
          "ticks": 1200,
          "time": 11.029399999999999,
          "velocity": 0.8267716535433071
        },
        {
          "duration": 0.22058799999999934,
          "durationTicks": 24,
          "midi": 68,
          "name": "G#4",
          "ticks": 1247,
          "time": 11.461384833333334,
          "velocity": 0.8661417322834646
        },
        {
          "duration": 0.22058799999999934,
          "durationTicks": 24,
          "midi": 73,
          "name": "C#5",
          "ticks": 1247,
          "time": 11.461384833333334,
          "velocity": 0.7795275590551181
        },
        {
          "duration": 0.2113968333333318,
          "durationTicks": 23,
          "midi": 77,
          "name": "F5",
          "ticks": 1248,
          "time": 11.470576000000001,
          "velocity": 0.8740157480314961
        },
        {
          "duration": 0.018382333333335055,
          "durationTicks": 2,
          "midi": 68,
          "name": "G#4",
          "ticks": 1271,
          "time": 11.681972833333333,
          "velocity": 0.8976377952755905
        },
        {
          "duration": 0.009191166666667527,
          "durationTicks": 1,
          "midi": 73,
          "name": "C#5",
          "ticks": 1272,
          "time": 11.691164,
          "velocity": 0.8740157480314961
        },
        {
          "duration": 0.009191166666667527,
          "durationTicks": 1,
          "midi": 63,
          "name": "D#4",
          "ticks": 1283,
          "time": 11.792266833333333,
          "velocity": 0.8976377952755905
        },
        {
          "duration": 0.2205880000000029,
          "durationTicks": 24,
          "midi": 54,
          "name": "F#3",
          "ticks": 1295,
          "time": 11.902560833333332,
          "velocity": 0.7874015748031497
        },
        {
          "duration": 0.2205880000000029,
          "durationTicks": 24,
          "midi": 61,
          "name": "C#4",
          "ticks": 1295,
          "time": 11.902560833333332,
          "velocity": 0.8110236220472441
        },
        {
          "duration": 0.21139683333333537,
          "durationTicks": 23,
          "midi": 63,
          "name": "D#4",
          "ticks": 1296,
          "time": 11.911752,
          "velocity": 0.8976377952755905
        },
        {
          "duration": 0.21139683333333537,
          "durationTicks": 23,
          "midi": 68,
          "name": "G#4",
          "ticks": 1296,
          "time": 11.911752,
          "velocity": 0.8031496062992126
        },
        {
          "duration": 0.22058799999999934,
          "durationTicks": 24,
          "midi": 65,
          "name": "F4",
          "ticks": 1319,
          "time": 12.123148833333335,
          "velocity": 0.8661417322834646
        },
        {
          "duration": 0.22058799999999934,
          "durationTicks": 24,
          "midi": 68,
          "name": "G#4",
          "ticks": 1319,
          "time": 12.123148833333335,
          "velocity": 0.7637795275590551
        },
        {
          "duration": 0.22058799999999934,
          "durationTicks": 24,
          "midi": 73,
          "name": "C#5",
          "ticks": 1319,
          "time": 12.123148833333335,
          "velocity": 0.7874015748031497
        },
        {
          "duration": 0.21139683333333537,
          "durationTicks": 23,
          "midi": 77,
          "name": "F5",
          "ticks": 1320,
          "time": 12.13234,
          "velocity": 0.8740157480314961
        },
        {
          "duration": 0.018382333333331502,
          "durationTicks": 2,
          "midi": 68,
          "name": "G#4",
          "ticks": 1343,
          "time": 12.343736833333335,
          "velocity": 0.905511811023622
        },
        {
          "duration": 0.009191166666667527,
          "durationTicks": 1,
          "midi": 73,
          "name": "C#5",
          "ticks": 1344,
          "time": 12.352927999999999,
          "velocity": 0.8740157480314961
        },
        {
          "duration": 0.009191166666663975,
          "durationTicks": 1,
          "midi": 66,
          "name": "F#4",
          "ticks": 1355,
          "time": 12.454030833333334,
          "velocity": 0.8976377952755905
        },
        {
          "duration": 0.4411759999999987,
          "durationTicks": 48,
          "midi": 56,
          "name": "G#3",
          "ticks": 1367,
          "time": 12.564324833333334,
          "velocity": 0.7637795275590551
        },
        {
          "duration": 0.4411759999999987,
          "durationTicks": 48,
          "midi": 61,
          "name": "C#4",
          "ticks": 1367,
          "time": 12.564324833333334,
          "velocity": 0.8582677165354331
        },
        {
          "duration": 0.4411759999999987,
          "durationTicks": 48,
          "midi": 65,
          "name": "F4",
          "ticks": 1367,
          "time": 12.564324833333334,
          "velocity": 0.8661417322834646
        },
        {
          "duration": 0.43198483333333115,
          "durationTicks": 47,
          "midi": 68,
          "name": "G#4",
          "ticks": 1368,
          "time": 12.573516000000001,
          "velocity": 0.7637795275590551
        },
        {
          "duration": 0.43198483333333115,
          "durationTicks": 47,
          "midi": 75,
          "name": "D#5",
          "ticks": 1368,
          "time": 12.573516000000001,
          "velocity": 0.84251968503937
        },
        {
          "duration": 0.2205880000000029,
          "durationTicks": 24,
          "midi": 60,
          "name": "C4",
          "ticks": 1415,
          "time": 13.005500833333333,
          "velocity": 0.7401574803149606
        },
        {
          "duration": 0.2205880000000029,
          "durationTicks": 24,
          "midi": 65,
          "name": "F4",
          "ticks": 1415,
          "time": 13.005500833333333,
          "velocity": 0.8267716535433071
        },
        {
          "duration": 0.21139683333333537,
          "durationTicks": 23,
          "midi": 68,
          "name": "G#4",
          "ticks": 1416,
          "time": 13.014692,
          "velocity": 0.7637795275590551
        },
        {
          "duration": 0.21139683333333537,
          "durationTicks": 23,
          "midi": 75,
          "name": "D#5",
          "ticks": 1416,
          "time": 13.014692,
          "velocity": 0.7952755905511811
        },
        {
          "duration": 0.22058799999999934,
          "durationTicks": 24,
          "midi": 68,
          "name": "G#4",
          "ticks": 1439,
          "time": 13.226088833333336,
          "velocity": 0.8110236220472441
        },
        {
          "duration": 0.22058799999999934,
          "durationTicks": 24,
          "midi": 72,
          "name": "C5",
          "ticks": 1439,
          "time": 13.226088833333336,
          "velocity": 0.7559055118110236
        },
        {
          "duration": 0.21139683333333537,
          "durationTicks": 23,
          "midi": 75,
          "name": "D#5",
          "ticks": 1440,
          "time": 13.23528,
          "velocity": 0.7637795275590551
        },
        {
          "duration": 0.21139683333333537,
          "durationTicks": 23,
          "midi": 80,
          "name": "G#5",
          "ticks": 1440,
          "time": 13.23528,
          "velocity": 0.7401574803149606
        },
        {
          "duration": 0.018382333333331502,
          "durationTicks": 2,
          "midi": 61,
          "name": "C#4",
          "ticks": 1463,
          "time": 13.446676833333335,
          "velocity": 0.9133858267716536
        },
        {
          "duration": 0.009191166666667527,
          "durationTicks": 1,
          "midi": 65,
          "name": "F4",
          "ticks": 1464,
          "time": 13.455867999999999,
          "velocity": 0.7716535433070866
        },
        {
          "duration": 0.009191166666663975,
          "durationTicks": 1,
          "midi": 61,
          "name": "C#4",
          "ticks": 1475,
          "time": 13.556970833333335,
          "velocity": 0.8976377952755905
        },
        {
          "duration": 0.22058799999999934,
          "durationTicks": 24,
          "midi": 56,
          "name": "G#3",
          "ticks": 1487,
          "time": 13.667264833333334,
          "velocity": 0.7637795275590551
        },
        {
          "duration": 0.22058799999999934,
          "durationTicks": 24,
          "midi": 60,
          "name": "C4",
          "ticks": 1487,
          "time": 13.667264833333334,
          "velocity": 0.7401574803149606
        },
        {
          "duration": 0.22058799999999934,
          "durationTicks": 24,
          "midi": 65,
          "name": "F4",
          "ticks": 1487,
          "time": 13.667264833333334,
          "velocity": 0.889763779527559
        },
        {
          "duration": 0.21139683333333537,
          "durationTicks": 23,
          "midi": 68,
          "name": "G#4",
          "ticks": 1488,
          "time": 13.676455999999998,
          "velocity": 0.7952755905511811
        },
        {
          "duration": 0.21139683333333537,
          "durationTicks": 23,
          "midi": 75,
          "name": "D#5",
          "ticks": 1488,
          "time": 13.676455999999998,
          "velocity": 0.8267716535433071
        },
        {
          "duration": 0.21139683333333537,
          "durationTicks": 23,
          "midi": 65,
          "name": "F4",
          "ticks": 1511,
          "time": 13.887852833333334,
          "velocity": 0.8661417322834646
        },
        {
          "duration": 0.21139683333333537,
          "durationTicks": 23,
          "midi": 68,
          "name": "G#4",
          "ticks": 1511,
          "time": 13.887852833333334,
          "velocity": 0.889763779527559
        },
        {
          "duration": 0.22058799999999934,
          "durationTicks": 24,
          "midi": 75,
          "name": "D#5",
          "ticks": 1512,
          "time": 13.897044000000001,
          "velocity": 0.7007874015748031
        },
        {
          "duration": 0.15624983333333375,
          "durationTicks": 17,
          "midi": 65,
          "name": "F4",
          "ticks": 1535,
          "time": 14.108440833333333,
          "velocity": 0.9133858267716536
        },
        {
          "duration": 0.1746321666666688,
          "durationTicks": 19,
          "midi": 63,
          "name": "D#4",
          "ticks": 1559,
          "time": 14.329028833333332,
          "velocity": 0.8976377952755905
        },
        {
          "duration": 0.16544100000000128,
          "durationTicks": 18,
          "midi": 75,
          "name": "D#5",
          "ticks": 1560,
          "time": 14.33822,
          "velocity": 0.7086614173228346
        },
        {
          "duration": 0.4411759999999987,
          "durationTicks": 48,
          "midi": 56,
          "name": "G#3",
          "ticks": 1583,
          "time": 14.549616833333335,
          "velocity": 0.7637795275590551
        },
        {
          "duration": 0.4411759999999987,
          "durationTicks": 48,
          "midi": 63,
          "name": "D#4",
          "ticks": 1583,
          "time": 14.549616833333335,
          "velocity": 0.9212598425196851
        },
        {
          "duration": 0.4411759999999987,
          "durationTicks": 48,
          "midi": 68,
          "name": "G#4",
          "ticks": 1583,
          "time": 14.549616833333335,
          "velocity": 0.7874015748031497
        },
        {
          "duration": 0.4319848333333347,
          "durationTicks": 47,
          "midi": 72,
          "name": "C5",
          "ticks": 1584,
          "time": 14.558807999999999,
          "velocity": 0.7637795275590551
        },
        {
          "duration": 0.4319848333333347,
          "durationTicks": 47,
          "midi": 75,
          "name": "D#5",
          "ticks": 1584,
          "time": 14.558807999999999,
          "velocity": 0.7401574803149606
        },
        {
          "duration": 0.22058799999999934,
          "durationTicks": 24,
          "midi": 56,
          "name": "G#3",
          "ticks": 1631,
          "time": 14.990792833333334,
          "velocity": 0.7086614173228346
        },
        {
          "duration": 0.22058799999999934,
          "durationTicks": 24,
          "midi": 63,
          "name": "D#4",
          "ticks": 1631,
          "time": 14.990792833333334,
          "velocity": 0.7952755905511811
        },
        {
          "duration": 0.22058799999999934,
          "durationTicks": 24,
          "midi": 68,
          "name": "G#4",
          "ticks": 1631,
          "time": 14.990792833333334,
          "velocity": 0.8976377952755905
        },
        {
          "duration": 0.2113968333333318,
          "durationTicks": 23,
          "midi": 72,
          "name": "C5",
          "ticks": 1632,
          "time": 14.999984000000001,
          "velocity": 0.7637795275590551
        },
        {
          "duration": 0.2113968333333318,
          "durationTicks": 23,
          "midi": 75,
          "name": "D#5",
          "ticks": 1632,
          "time": 14.999984000000001,
          "velocity": 0.6692913385826772
        },
        {
          "duration": 0.018382333333335055,
          "durationTicks": 2,
          "midi": 56,
          "name": "G#3",
          "ticks": 1655,
          "time": 15.211380833333333,
          "velocity": 0.7795275590551181
        },
        {
          "duration": 0.009191166666667527,
          "durationTicks": 1,
          "midi": 63,
          "name": "D#4",
          "ticks": 1656,
          "time": 15.220572,
          "velocity": 0.889763779527559
        },
        {
          "duration": 0.009191166666667527,
          "durationTicks": 1,
          "midi": 68,
          "name": "G#4",
          "ticks": 1667,
          "time": 15.321674833333333,
          "velocity": 0.8976377952755905
        },
        {
          "duration": 0.2205880000000029,
          "durationTicks": 24,
          "midi": 63,
          "name": "D#4",
          "ticks": 1679,
          "time": 15.431968833333332,
          "velocity": 0.8661417322834646
        },
        {
          "duration": 0.2205880000000029,
          "durationTicks": 24,
          "midi": 68,
          "name": "G#4",
          "ticks": 1679,
          "time": 15.431968833333332,
          "velocity": 0.9212598425196851
        },
        {
          "duration": 0.21139683333333537,
          "durationTicks": 23,
          "midi": 72,
          "name": "C5",
          "ticks": 1680,
          "time": 15.44116,
          "velocity": 0.7637795275590551
        },
        {
          "duration": 0.22058799999999934,
          "durationTicks": 24,
          "midi": 56,
          "name": "G#3",
          "ticks": 1703,
          "time": 15.652556833333335,
          "velocity": 0.7322834645669292
        },
        {
          "duration": 0.22058799999999934,
          "durationTicks": 24,
          "midi": 63,
          "name": "D#4",
          "ticks": 1703,
          "time": 15.652556833333335,
          "velocity": 0.905511811023622
        },
        {
          "duration": 0.22058799999999934,
          "durationTicks": 24,
          "midi": 68,
          "name": "G#4",
          "ticks": 1703,
          "time": 15.652556833333335,
          "velocity": 0.7952755905511811
        },
        {
          "duration": 0.21139683333333537,
          "durationTicks": 23,
          "midi": 72,
          "name": "C5",
          "ticks": 1704,
          "time": 15.661748,
          "velocity": 0.7480314960629921
        },
        {
          "duration": 0.018382333333331502,
          "durationTicks": 2,
          "midi": 56,
          "name": "G#3",
          "ticks": 1727,
          "time": 15.873144833333335,
          "velocity": 0.7795275590551181
        },
        {
          "duration": 0.009191166666663975,
          "durationTicks": 1,
          "midi": 63,
          "name": "D#4",
          "ticks": 1728,
          "time": 15.882336000000002,
          "velocity": 0.889763779527559
        },
        {
          "duration": 0.009191166666667527,
          "durationTicks": 1,
          "midi": 65,
          "name": "F4",
          "ticks": 1739,
          "time": 15.983438833333334,
          "velocity": 0.8976377952755905
        },
        {
          "duration": 0.6617640000000016,
          "durationTicks": 72,
          "midi": 56,
          "name": "G#3",
          "ticks": 1751,
          "time": 16.093732833333334,
          "velocity": 0.6850393700787402
        },
        {
          "duration": 0.6617640000000016,
          "durationTicks": 72,
          "midi": 63,
          "name": "D#4",
          "ticks": 1751,
          "time": 16.093732833333334,
          "velocity": 0.889763779527559
        },
        {
          "duration": 0.6617640000000016,
          "durationTicks": 72,
          "midi": 68,
          "name": "G#4",
          "ticks": 1751,
          "time": 16.093732833333334,
          "velocity": 0.6141732283464567
        },
        {
          "duration": 0.652572833333334,
          "durationTicks": 71,
          "midi": 72,
          "name": "C5",
          "ticks": 1752,
          "time": 16.102924,
          "velocity": 0.7795275590551181
        },
        {
          "duration": 0.652572833333334,
          "durationTicks": 71,
          "midi": 75,
          "name": "D#5",
          "ticks": 1752,
          "time": 16.102924,
          "velocity": 0.84251968503937
        },
        {
          "duration": 0.1194851666666672,
          "durationTicks": 13,
          "midi": 72,
          "name": "C5",
          "ticks": 1823,
          "time": 16.755496833333336,
          "velocity": 0.968503937007874
        },
        {
          "duration": 0.22058799999999934,
          "durationTicks": 24,
          "midi": 68,
          "name": "G#4",
          "ticks": 1847,
          "time": 16.976084833333335,
          "velocity": 0.889763779527559
        },
        {
          "duration": 0.22058799999999934,
          "durationTicks": 24,
          "midi": 74,
          "name": "D5",
          "ticks": 1847,
          "time": 16.976084833333335,
          "velocity": 0.7716535433070866
        },
        {
          "duration": 0.2113968333333318,
          "durationTicks": 23,
          "midi": 77,
          "name": "F5",
          "ticks": 1848,
          "time": 16.985276000000002,
          "velocity": 0.7952755905511811
        },
        {
          "duration": 0.2113968333333318,
          "durationTicks": 23,
          "midi": 82,
          "name": "A#5",
          "ticks": 1848,
          "time": 16.985276000000002,
          "velocity": 0.8110236220472441
        },
        {
          "duration": 0.11029399999999967,
          "durationTicks": 12,
          "midi": 82,
          "name": "A#5",
          "ticks": 1871,
          "time": 17.196672833333334,
          "velocity": 0.8110236220472441
        },
        {
          "duration": 0.018382333333331502,
          "durationTicks": 2,
          "midi": 70,
          "name": "A#4",
          "ticks": 1883,
          "time": 17.306966833333334,
          "velocity": 0.8110236220472441
        },
        {
          "duration": 0.11029399999999967,
          "durationTicks": 12,
          "midi": 70,
          "name": "A#4",
          "ticks": 1895,
          "time": 17.417260833333334,
          "velocity": 0.8661417322834646
        },
        {
          "duration": 0.11029399999999967,
          "durationTicks": 12,
          "midi": 70,
          "name": "A#4",
          "ticks": 1907,
          "time": 17.527554833333333,
          "velocity": 0.905511811023622
        },
        {
          "duration": 0.2205880000000029,
          "durationTicks": 24,
          "midi": 68,
          "name": "G#4",
          "ticks": 1919,
          "time": 17.637848833333333,
          "velocity": 0.8503937007874016
        },
        {
          "duration": 0.2205880000000029,
          "durationTicks": 24,
          "midi": 74,
          "name": "D5",
          "ticks": 1919,
          "time": 17.637848833333333,
          "velocity": 0.8188976377952756
        },
        {
          "duration": 0.21139683333333537,
          "durationTicks": 23,
          "midi": 77,
          "name": "F5",
          "ticks": 1920,
          "time": 17.64704,
          "velocity": 0.7952755905511811
        },
        {
          "duration": 0.21139683333333537,
          "durationTicks": 23,
          "midi": 82,
          "name": "A#5",
          "ticks": 1920,
          "time": 17.64704,
          "velocity": 0.7559055118110236
        },
        {
          "duration": 0.1562498333333302,
          "durationTicks": 17,
          "midi": 67,
          "name": "G4",
          "ticks": 1943,
          "time": 17.858436833333336,
          "velocity": 0.7952755905511811
        },
        {
          "duration": 0.4411759999999987,
          "durationTicks": 48,
          "midi": 51,
          "name": "D#3",
          "ticks": 1967,
          "time": 18.079024833333335,
          "velocity": 0.7637795275590551
        },
        {
          "duration": 0.4411759999999987,
          "durationTicks": 48,
          "midi": 61,
          "name": "C#4",
          "ticks": 1967,
          "time": 18.079024833333335,
          "velocity": 0.8346456692913385
        },
        {
          "duration": 0.4411759999999987,
          "durationTicks": 48,
          "midi": 65,
          "name": "F4",
          "ticks": 1967,
          "time": 18.079024833333335,
          "velocity": 0.7874015748031497
        },
        {
          "duration": 0.43198483333333115,
          "durationTicks": 47,
          "midi": 68,
          "name": "G#4",
          "ticks": 1968,
          "time": 18.088216000000003,
          "velocity": 0.7637795275590551
        },
        {
          "duration": 0.43198483333333115,
          "durationTicks": 47,
          "midi": 73,
          "name": "C#5",
          "ticks": 1968,
          "time": 18.088216000000003,
          "velocity": 0.8582677165354331
        },
        {
          "duration": 0.018382333333331502,
          "durationTicks": 2,
          "midi": 65,
          "name": "F4",
          "ticks": 2015,
          "time": 18.520200833333334,
          "velocity": 0.7795275590551181
        },
        {
          "duration": 0.009191166666663975,
          "durationTicks": 1,
          "midi": 68,
          "name": "G#4",
          "ticks": 2016,
          "time": 18.529392,
          "velocity": 0.889763779527559
        },
        {
          "duration": 0.009191166666667527,
          "durationTicks": 1,
          "midi": 72,
          "name": "C5",
          "ticks": 2027,
          "time": 18.630494833333334,
          "velocity": 0.8976377952755905
        },
        {
          "duration": 0.44117600000000223,
          "durationTicks": 48,
          "midi": 61,
          "name": "C#4",
          "ticks": 2039,
          "time": 18.740788833333333,
          "velocity": 0.7401574803149606
        },
        {
          "duration": 0.44117600000000223,
          "durationTicks": 48,
          "midi": 66,
          "name": "F#4",
          "ticks": 2039,
          "time": 18.740788833333333,
          "velocity": 0.905511811023622
        },
        {
          "duration": 0.4319848333333347,
          "durationTicks": 47,
          "midi": 68,
          "name": "G#4",
          "ticks": 2040,
          "time": 18.74998,
          "velocity": 0.6141732283464567
        },
        {
          "duration": 0.4319848333333347,
          "durationTicks": 47,
          "midi": 73,
          "name": "C#5",
          "ticks": 2040,
          "time": 18.74998,
          "velocity": 0.8267716535433071
        },
        {
          "duration": 0.22058799999999934,
          "durationTicks": 24,
          "midi": 61,
          "name": "C#4",
          "ticks": 2087,
          "time": 19.181964833333335,
          "velocity": 0.905511811023622
        },
        {
          "duration": 0.22058799999999934,
          "durationTicks": 24,
          "midi": 65,
          "name": "F4",
          "ticks": 2087,
          "time": 19.181964833333335,
          "velocity": 0.7086614173228346
        },
        {
          "duration": 0.2113968333333318,
          "durationTicks": 23,
          "midi": 68,
          "name": "G#4",
          "ticks": 2088,
          "time": 19.191156000000003,
          "velocity": 0.7086614173228346
        },
        {
          "duration": 0.2113968333333318,
          "durationTicks": 23,
          "midi": 73,
          "name": "C#5",
          "ticks": 2088,
          "time": 19.191156000000003,
          "velocity": 0.8031496062992126
        },
        {
          "duration": 0.22058799999999934,
          "durationTicks": 24,
          "midi": 61,
          "name": "C#4",
          "ticks": 2111,
          "time": 19.402552833333335,
          "velocity": 0.7401574803149606
        },
        {
          "duration": 0.22058799999999934,
          "durationTicks": 24,
          "midi": 66,
          "name": "F#4",
          "ticks": 2111,
          "time": 19.402552833333335,
          "velocity": 0.905511811023622
        },
        {
          "duration": 0.2113968333333318,
          "durationTicks": 23,
          "midi": 68,
          "name": "G#4",
          "ticks": 2112,
          "time": 19.411744000000002,
          "velocity": 0.6456692913385826
        },
        {
          "duration": 0.2113968333333318,
          "durationTicks": 23,
          "midi": 73,
          "name": "C#5",
          "ticks": 2112,
          "time": 19.411744000000002,
          "velocity": 0.8267716535433071
        },
        {
          "duration": 0.20220566666666784,
          "durationTicks": 22,
          "midi": 61,
          "name": "C#4",
          "ticks": 2135,
          "time": 19.623140833333334,
          "velocity": 0.905511811023622
        },
        {
          "duration": 0.20220566666666784,
          "durationTicks": 22,
          "midi": 65,
          "name": "F4",
          "ticks": 2135,
          "time": 19.623140833333334,
          "velocity": 0.7086614173228346
        },
        {
          "duration": 0.1930145000000003,
          "durationTicks": 21,
          "midi": 68,
          "name": "G#4",
          "ticks": 2136,
          "time": 19.632332,
          "velocity": 0.7874015748031497
        },
        {
          "duration": 0.1930145000000003,
          "durationTicks": 21,
          "midi": 73,
          "name": "C#5",
          "ticks": 2136,
          "time": 19.632332,
          "velocity": 0.8031496062992126
        },
        {
          "duration": 0.20220566666666784,
          "durationTicks": 22,
          "midi": 61,
          "name": "C#4",
          "ticks": 2159,
          "time": 19.843728833333333,
          "velocity": 0.8582677165354331
        },
        {
          "duration": 0.20220566666666784,
          "durationTicks": 22,
          "midi": 66,
          "name": "F#4",
          "ticks": 2159,
          "time": 19.843728833333333,
          "velocity": 0.7086614173228346
        },
        {
          "duration": 0.1930145000000003,
          "durationTicks": 21,
          "midi": 73,
          "name": "C#5",
          "ticks": 2160,
          "time": 19.85292,
          "velocity": 0.889763779527559
        },
        {
          "duration": 0.4411759999999987,
          "durationTicks": 48,
          "midi": 56,
          "name": "G#3",
          "ticks": 2183,
          "time": 20.064316833333336,
          "velocity": 0.7244094488188977
        },
        {
          "duration": 0.4411759999999987,
          "durationTicks": 48,
          "midi": 61,
          "name": "C#4",
          "ticks": 2183,
          "time": 20.064316833333336,
          "velocity": 0.7007874015748031
        },
        {
          "duration": 0.4411759999999987,
          "durationTicks": 48,
          "midi": 63,
          "name": "D#4",
          "ticks": 2183,
          "time": 20.064316833333336,
          "velocity": 0.8582677165354331
        },
        {
          "duration": 0.43198483333333115,
          "durationTicks": 47,
          "midi": 68,
          "name": "G#4",
          "ticks": 2184,
          "time": 20.073508000000004,
          "velocity": 0.7716535433070866
        },
        {
          "duration": 0.43198483333333115,
          "durationTicks": 47,
          "midi": 75,
          "name": "D#5",
          "ticks": 2184,
          "time": 20.073508000000004,
          "velocity": 0.889763779527559
        },
        {
          "duration": 0.1930145000000003,
          "durationTicks": 21,
          "midi": 63,
          "name": "D#4",
          "ticks": 2231,
          "time": 20.505492833333335,
          "velocity": 0.7952755905511811
        },
        {
          "duration": 0.18382333333333278,
          "durationTicks": 20,
          "midi": 68,
          "name": "G#4",
          "ticks": 2232,
          "time": 20.514684000000003,
          "velocity": 0.8976377952755905
        },
        {
          "duration": 0.22058799999999934,
          "durationTicks": 24,
          "midi": 63,
          "name": "D#4",
          "ticks": 2255,
          "time": 20.726080833333334,
          "velocity": 0.8346456692913385
        },
        {
          "duration": 0.22058799999999934,
          "durationTicks": 24,
          "midi": 68,
          "name": "G#4",
          "ticks": 2255,
          "time": 20.726080833333334,
          "velocity": 0.8031496062992126
        },
        {
          "duration": 0.2113968333333318,
          "durationTicks": 23,
          "midi": 73,
          "name": "C#5",
          "ticks": 2256,
          "time": 20.735272000000002,
          "velocity": 0.905511811023622
        },
        {
          "duration": 0.22058799999999934,
          "durationTicks": 24,
          "midi": 56,
          "name": "G#3",
          "ticks": 2279,
          "time": 20.946668833333334,
          "velocity": 0.889763779527559
        },
        {
          "duration": 0.22058799999999934,
          "durationTicks": 24,
          "midi": 63,
          "name": "D#4",
          "ticks": 2279,
          "time": 20.946668833333334,
          "velocity": 0.889763779527559
        },
        {
          "duration": 0.2113968333333318,
          "durationTicks": 23,
          "midi": 68,
          "name": "G#4",
          "ticks": 2280,
          "time": 20.95586,
          "velocity": 0.7244094488188977
        },
        {
          "duration": 0.2205880000000029,
          "durationTicks": 24,
          "midi": 56,
          "name": "G#3",
          "ticks": 2303,
          "time": 21.167256833333333,
          "velocity": 0.7244094488188977
        },
        {
          "duration": 0.2205880000000029,
          "durationTicks": 24,
          "midi": 63,
          "name": "D#4",
          "ticks": 2303,
          "time": 21.167256833333333,
          "velocity": 0.8582677165354331
        },
        {
          "duration": 0.2205880000000029,
          "durationTicks": 24,
          "midi": 68,
          "name": "G#4",
          "ticks": 2303,
          "time": 21.167256833333333,
          "velocity": 0.8188976377952756
        },
        {
          "duration": 0.2113968333333318,
          "durationTicks": 23,
          "midi": 75,
          "name": "D#5",
          "ticks": 2304,
          "time": 21.176448000000004,
          "velocity": 0.7874015748031497
        },
        {
          "duration": 0.18382333333333278,
          "durationTicks": 20,
          "midi": 75,
          "name": "D#5",
          "ticks": 2327,
          "time": 21.387844833333336,
          "velocity": 0.7637795275590551
        },
        {
          "duration": 1.7555128333333307,
          "durationTicks": 191,
          "midi": 54,
          "name": "F#3",
          "ticks": 2351,
          "time": 21.608432833333335,
          "velocity": 0.7795275590551181
        },
        {
          "duration": 0.4411759999999987,
          "durationTicks": 48,
          "midi": 65,
          "name": "F4",
          "ticks": 2351,
          "time": 21.608432833333335,
          "velocity": 0.6141732283464567
        },
        {
          "duration": 0.22058799999999934,
          "durationTicks": 24,
          "midi": 68,
          "name": "G#4",
          "ticks": 2351,
          "time": 21.608432833333335,
          "velocity": 0.6141732283464567
        },
        {
          "duration": 1.7555128333333307,
          "durationTicks": 191,
          "midi": 77,
          "name": "F5",
          "ticks": 2352,
          "time": 21.617624000000003,
          "velocity": 1
        },
        {
          "duration": 0.8823520000000009,
          "durationTicks": 96,
          "midi": 68,
          "name": "G#4",
          "ticks": 2375,
          "time": 21.829020833333335,
          "velocity": 1
        },
        {
          "duration": 0.44117600000000223,
          "durationTicks": 48,
          "midi": 65,
          "name": "F4",
          "ticks": 2399,
          "time": 22.049608833333334,
          "velocity": 1
        },
        {
          "duration": 1.1121311666666678,
          "durationTicks": 121,
          "midi": 75,
          "name": "D#5",
          "ticks": 2423,
          "time": 22.270196833333333,
          "velocity": 1
        },
        {
          "duration": 0.4411759999999987,
          "durationTicks": 48,
          "midi": 65,
          "name": "F4",
          "ticks": 2447,
          "time": 22.490784833333336,
          "velocity": 0.6141732283464567
        },
        {
          "duration": 0.6709551666666655,
          "durationTicks": 73,
          "midi": 68,
          "name": "G#4",
          "ticks": 2471,
          "time": 22.711372833333336,
          "velocity": 1
        },
        {
          "duration": 0.4411759999999987,
          "durationTicks": 48,
          "midi": 65,
          "name": "F4",
          "ticks": 2495,
          "time": 22.931960833333335,
          "velocity": 1
        },
        {
          "duration": 0.2389703333333344,
          "durationTicks": 26,
          "midi": 73,
          "name": "C#5",
          "ticks": 2519,
          "time": 23.152548833333334,
          "velocity": 1
        },
        {
          "duration": 1.6727923333333337,
          "durationTicks": 182,
          "midi": 54,
          "name": "F#3",
          "ticks": 2543,
          "time": 23.373136833333334,
          "velocity": 0.7086614173228346
        },
        {
          "duration": 0.4319848333333347,
          "durationTicks": 47,
          "midi": 65,
          "name": "F4",
          "ticks": 2544,
          "time": 23.382328,
          "velocity": 0.6456692913385826
        },
        {
          "duration": 0.8823519999999974,
          "durationTicks": 96,
          "midi": 68,
          "name": "G#4",
          "ticks": 2567,
          "time": 23.593724833333336,
          "velocity": 1
        },
        {
          "duration": 0.4411759999999987,
          "durationTicks": 48,
          "midi": 65,
          "name": "F4",
          "ticks": 2591,
          "time": 23.814312833333336,
          "velocity": 0.889763779527559
        },
        {
          "duration": 0.8823520000000009,
          "durationTicks": 96,
          "midi": 73,
          "name": "C#5",
          "ticks": 2615,
          "time": 24.034900833333335,
          "velocity": 1
        },
        {
          "duration": 0.44117600000000223,
          "durationTicks": 48,
          "midi": 65,
          "name": "F4",
          "ticks": 2639,
          "time": 24.255488833333334,
          "velocity": 0.905511811023622
        },
        {
          "duration": 0.5882346666666685,
          "durationTicks": 64,
          "midi": 68,
          "name": "G#4",
          "ticks": 2663,
          "time": 24.476076833333334,
          "velocity": 1
        },
        {
          "duration": 0.36764666666666557,
          "durationTicks": 40,
          "midi": 65,
          "name": "F4",
          "ticks": 2687,
          "time": 24.696664833333337,
          "velocity": 1
        },
        {
          "duration": 0.14705866666666623,
          "durationTicks": 16,
          "midi": 73,
          "name": "C#5",
          "ticks": 2711,
          "time": 24.917252833333336,
          "velocity": 0.905511811023622
        },
        {
          "duration": 2.849261666666667,
          "durationTicks": 310,
          "midi": 54,
          "name": "F#3",
          "ticks": 2735,
          "time": 25.137840833333335,
          "velocity": 0.84251968503937
        },
        {
          "duration": 2.849261666666667,
          "durationTicks": 310,
          "midi": 58,
          "name": "A#3",
          "ticks": 2735,
          "time": 25.137840833333335,
          "velocity": 0.7401574803149606
        },
        {
          "duration": 2.8400704999999995,
          "durationTicks": 309,
          "midi": 65,
          "name": "F4",
          "ticks": 2736,
          "time": 25.147032000000003,
          "velocity": 0.905511811023622
        },
        {
          "duration": 2.8124970000000005,
          "durationTicks": 306,
          "midi": 68,
          "name": "G#4",
          "ticks": 2738,
          "time": 25.165414333333334,
          "velocity": 0.8031496062992126
        },
        {
          "duration": 2.803305833333333,
          "durationTicks": 305,
          "midi": 73,
          "name": "C#5",
          "ticks": 2739,
          "time": 25.174605500000002,
          "velocity": 0.84251968503937
        },
        {
          "duration": 0.44117600000000223,
          "durationTicks": 48,
          "midi": 65,
          "name": "F4",
          "ticks": 3047,
          "time": 28.005484833333334,
          "velocity": 0.9291338582677166
        },
        {
          "duration": 0.4044113333333357,
          "durationTicks": 44,
          "midi": 68,
          "name": "G#4",
          "ticks": 3071,
          "time": 28.226072833333333,
          "velocity": 0.905511811023622
        },
        {
          "duration": 0.18382333333333278,
          "durationTicks": 20,
          "midi": 65,
          "name": "F4",
          "ticks": 3095,
          "time": 28.446660833333336,
          "velocity": 0.905511811023622
        },
        {
          "duration": 1.7371304999999992,
          "durationTicks": 189,
          "midi": 58,
          "name": "A#3",
          "ticks": 3119,
          "time": 28.667248833333336,
          "velocity": 0.7795275590551181
        },
        {
          "duration": 1.7371304999999992,
          "durationTicks": 189,
          "midi": 63,
          "name": "D#4",
          "ticks": 3119,
          "time": 28.667248833333336,
          "velocity": 0.6850393700787402
        },
        {
          "duration": 1.7279393333333317,
          "durationTicks": 188,
          "midi": 65,
          "name": "F4",
          "ticks": 3120,
          "time": 28.676440000000003,
          "velocity": 0.8818897637795275
        },
        {
          "duration": 1.7187481666666677,
          "durationTicks": 187,
          "midi": 68,
          "name": "G#4",
          "ticks": 3121,
          "time": 28.685631166666667,
          "velocity": 0.7716535433070866
        },
        {
          "duration": 1.7095570000000002,
          "durationTicks": 186,
          "midi": 73,
          "name": "C#5",
          "ticks": 3122,
          "time": 28.694822333333335,
          "velocity": 0.84251968503937
        },
        {
          "duration": 0.6617640000000016,
          "durationTicks": 72,
          "midi": 58,
          "name": "A#3",
          "ticks": 3311,
          "time": 30.431952833333334,
          "velocity": 0.7559055118110236
        },
        {
          "duration": 0.6617640000000016,
          "durationTicks": 72,
          "midi": 65,
          "name": "F4",
          "ticks": 3311,
          "time": 30.431952833333334,
          "velocity": 0.8110236220472441
        },
        {
          "duration": 0.652572833333334,
          "durationTicks": 71,
          "midi": 68,
          "name": "G#4",
          "ticks": 3312,
          "time": 30.441144,
          "velocity": 0.84251968503937
        },
        {
          "duration": 0.652572833333334,
          "durationTicks": 71,
          "midi": 75,
          "name": "D#5",
          "ticks": 3312,
          "time": 30.441144,
          "velocity": 0.9133858267716536
        },
        {
          "duration": 1.0753664999999977,
          "durationTicks": 117,
          "midi": 58,
          "name": "A#3",
          "ticks": 3383,
          "time": 31.093716833333335,
          "velocity": 0.7795275590551181
        },
        {
          "duration": 1.0753664999999977,
          "durationTicks": 117,
          "midi": 63,
          "name": "D#4",
          "ticks": 3383,
          "time": 31.093716833333335,
          "velocity": 0.6850393700787402
        },
        {
          "duration": 1.0753664999999977,
          "durationTicks": 117,
          "midi": 65,
          "name": "F4",
          "ticks": 3385,
          "time": 31.11209916666667,
          "velocity": 0.84251968503937
        },
        {
          "duration": 1.0569841666666662,
          "durationTicks": 115,
          "midi": 68,
          "name": "G#4",
          "ticks": 3386,
          "time": 31.121290333333334,
          "velocity": 0.8031496062992126
        },
        {
          "duration": 1.0386018333333311,
          "durationTicks": 113,
          "midi": 73,
          "name": "C#5",
          "ticks": 3388,
          "time": 31.13967266666667,
          "velocity": 0.8976377952755905
        },
        {
          "duration": 2.8492616666666635,
          "durationTicks": 310,
          "midi": 54,
          "name": "F#3",
          "ticks": 3503,
          "time": 32.196656833333336,
          "velocity": 0.84251968503937
        },
        {
          "duration": 2.8492616666666635,
          "durationTicks": 310,
          "midi": 58,
          "name": "A#3",
          "ticks": 3503,
          "time": 32.196656833333336,
          "velocity": 0.7401574803149606
        },
        {
          "duration": 2.840070500000003,
          "durationTicks": 309,
          "midi": 65,
          "name": "F4",
          "ticks": 3504,
          "time": 32.205847999999996,
          "velocity": 0.905511811023622
        },
        {
          "duration": 2.8124970000000076,
          "durationTicks": 306,
          "midi": 70,
          "name": "A#4",
          "ticks": 3506,
          "time": 32.22423033333333,
          "velocity": 0.8976377952755905
        },
        {
          "duration": 2.80330583333334,
          "durationTicks": 305,
          "midi": 73,
          "name": "C#5",
          "ticks": 3507,
          "time": 32.2334215,
          "velocity": 0.84251968503937
        },
        {
          "duration": 0.4411759999999987,
          "durationTicks": 48,
          "midi": 65,
          "name": "F4",
          "ticks": 3815,
          "time": 35.064300833333334,
          "velocity": 0.9291338582677166
        },
        {
          "duration": 0.4044113333333357,
          "durationTicks": 44,
          "midi": 68,
          "name": "G#4",
          "ticks": 3839,
          "time": 35.28488883333333,
          "velocity": 0.905511811023622
        },
        {
          "duration": 0.18382333333333634,
          "durationTicks": 20,
          "midi": 65,
          "name": "F4",
          "ticks": 3863,
          "time": 35.50547683333333,
          "velocity": 0.905511811023622
        },
        {
          "duration": 1.5165425,
          "durationTicks": 165,
          "midi": 49,
          "name": "C#3",
          "ticks": 3887,
          "time": 35.72606483333333,
          "velocity": 0.7559055118110236
        },
        {
          "duration": 1.5165425,
          "durationTicks": 165,
          "midi": 60,
          "name": "C4",
          "ticks": 3887,
          "time": 35.72606483333333,
          "velocity": 0.8188976377952756
        },
        {
          "duration": 1.5073513333333324,
          "durationTicks": 164,
          "midi": 65,
          "name": "F4",
          "ticks": 3888,
          "time": 35.735256,
          "velocity": 0.8267716535433071
        },
        {
          "duration": 1.4981601666666648,
          "durationTicks": 163,
          "midi": 68,
          "name": "G#4",
          "ticks": 3889,
          "time": 35.74444716666667,
          "velocity": 0.8818897637795275
        },
        {
          "duration": 1.4889689999999973,
          "durationTicks": 162,
          "midi": 73,
          "name": "C#5",
          "ticks": 3890,
          "time": 35.753638333333335,
          "velocity": 0.8740157480314961
        },
        {
          "duration": 0.4411759999999987,
          "durationTicks": 48,
          "midi": 58,
          "name": "A#3",
          "ticks": 4055,
          "time": 37.270180833333335,
          "velocity": 0.8110236220472441
        },
        {
          "duration": 0.4411759999999987,
          "durationTicks": 48,
          "midi": 65,
          "name": "F4",
          "ticks": 4055,
          "time": 37.270180833333335,
          "velocity": 0.8661417322834646
        },
        {
          "duration": 0.43198483333333115,
          "durationTicks": 47,
          "midi": 68,
          "name": "G#4",
          "ticks": 4056,
          "time": 37.279372,
          "velocity": 0.84251968503937
        },
        {
          "duration": 0.4227936666666636,
          "durationTicks": 46,
          "midi": 75,
          "name": "D#5",
          "ticks": 4057,
          "time": 37.28856316666667,
          "velocity": 0.9133858267716536
        },
        {
          "duration": 0.22058799999999934,
          "durationTicks": 24,
          "midi": 58,
          "name": "A#3",
          "ticks": 4103,
          "time": 37.71135683333333,
          "velocity": 0.8267716535433071
        },
        {
          "duration": 0.22058799999999934,
          "durationTicks": 24,
          "midi": 65,
          "name": "F4",
          "ticks": 4103,
          "time": 37.71135683333333,
          "velocity": 0.7952755905511811
        },
        {
          "duration": 0.2113968333333318,
          "durationTicks": 23,
          "midi": 68,
          "name": "G#4",
          "ticks": 4104,
          "time": 37.720548,
          "velocity": 0.8346456692913385
        },
        {
          "duration": 0.2113968333333318,
          "durationTicks": 23,
          "midi": 75,
          "name": "D#5",
          "ticks": 4104,
          "time": 37.720548,
          "velocity": 0.9133858267716536
        },
        {
          "duration": 0.21139683333333892,
          "durationTicks": 23,
          "midi": 58,
          "name": "A#3",
          "ticks": 4127,
          "time": 37.93194483333333,
          "velocity": 0.8503937007874016
        },
        {
          "duration": 0.21139683333333892,
          "durationTicks": 23,
          "midi": 65,
          "name": "F4",
          "ticks": 4127,
          "time": 37.93194483333333,
          "velocity": 0.7952755905511811
        },
        {
          "duration": 0.2022056666666714,
          "durationTicks": 22,
          "midi": 68,
          "name": "G#4",
          "ticks": 4128,
          "time": 37.941136,
          "velocity": 0.8818897637795275
        },
        {
          "duration": 0.2022056666666714,
          "durationTicks": 22,
          "midi": 75,
          "name": "D#5",
          "ticks": 4128,
          "time": 37.941136,
          "velocity": 0.8818897637795275
        },
        {
          "duration": 0.22058800000000645,
          "durationTicks": 24,
          "midi": 58,
          "name": "A#3",
          "ticks": 4151,
          "time": 38.15253283333333,
          "velocity": 0.8740157480314961
        },
        {
          "duration": 0.22058800000000645,
          "durationTicks": 24,
          "midi": 65,
          "name": "F4",
          "ticks": 4151,
          "time": 38.15253283333333,
          "velocity": 0.8267716535433071
        },
        {
          "duration": 0.22058800000000645,
          "durationTicks": 24,
          "midi": 70,
          "name": "A#4",
          "ticks": 4151,
          "time": 38.15253283333333,
          "velocity": 0.7952755905511811
        },
        {
          "duration": 0.21139683333333892,
          "durationTicks": 23,
          "midi": 74,
          "name": "D5",
          "ticks": 4152,
          "time": 38.161724,
          "velocity": 0.9133858267716536
        },
        {
          "duration": 0.21139683333333892,
          "durationTicks": 23,
          "midi": 77,
          "name": "F5",
          "ticks": 4152,
          "time": 38.161724,
          "velocity": 0.905511811023622
        },
        {
          "duration": 1.7555128333333343,
          "durationTicks": 191,
          "midi": 54,
          "name": "F#3",
          "ticks": 4271,
          "time": 39.255472833333336,
          "velocity": 0.7795275590551181
        },
        {
          "duration": 0.4411759999999987,
          "durationTicks": 48,
          "midi": 65,
          "name": "F4",
          "ticks": 4271,
          "time": 39.255472833333336,
          "velocity": 0.6141732283464567
        },
        {
          "duration": 0.22058799999999934,
          "durationTicks": 24,
          "midi": 68,
          "name": "G#4",
          "ticks": 4271,
          "time": 39.255472833333336,
          "velocity": 0.6141732283464567
        },
        {
          "duration": 1.3143368333333285,
          "durationTicks": 143,
          "midi": 77,
          "name": "F5",
          "ticks": 4272,
          "time": 39.264664,
          "velocity": 1
        },
        {
          "duration": 0.661763999999998,
          "durationTicks": 72,
          "midi": 68,
          "name": "G#4",
          "ticks": 4295,
          "time": 39.476060833333335,
          "velocity": 0.9212598425196851
        },
        {
          "duration": 0.661763999999998,
          "durationTicks": 72,
          "midi": 65,
          "name": "F4",
          "ticks": 4319,
          "time": 39.696648833333334,
          "velocity": 0.8976377952755905
        },
        {
          "duration": 1.3235280000000031,
          "durationTicks": 144,
          "midi": 75,
          "name": "D#5",
          "ticks": 4343,
          "time": 39.917236833333334,
          "velocity": 1
        },
        {
          "duration": 0.6617640000000051,
          "durationTicks": 72,
          "midi": 68,
          "name": "G#4",
          "ticks": 4367,
          "time": 40.13782483333333,
          "velocity": 0.937007874015748
        },
        {
          "duration": 0.6617640000000051,
          "durationTicks": 72,
          "midi": 65,
          "name": "F4",
          "ticks": 4391,
          "time": 40.35841283333333,
          "velocity": 0.905511811023622
        },
        {
          "duration": 0.4411760000000058,
          "durationTicks": 48,
          "midi": 77,
          "name": "F5",
          "ticks": 4415,
          "time": 40.57900083333333,
          "velocity": 1
        },
        {
          "duration": 0.661763999999998,
          "durationTicks": 72,
          "midi": 68,
          "name": "G#4",
          "ticks": 4439,
          "time": 40.79958883333334,
          "velocity": 0.905511811023622
        },
        {
          "duration": 0.661763999999998,
          "durationTicks": 72,
          "midi": 65,
          "name": "F4",
          "ticks": 4463,
          "time": 41.02017683333334,
          "velocity": 0.8740157480314961
        },
        {
          "duration": 1.6544099999999986,
          "durationTicks": 180,
          "midi": 56,
          "name": "G#3",
          "ticks": 4464,
          "time": 41.029368,
          "velocity": 0.8031496062992126
        },
        {
          "duration": 1.1029399999999967,
          "durationTicks": 120,
          "midi": 75,
          "name": "D#5",
          "ticks": 4487,
          "time": 41.24076483333334,
          "velocity": 1
        },
        {
          "duration": 0.661763999999998,
          "durationTicks": 72,
          "midi": 68,
          "name": "G#4",
          "ticks": 4511,
          "time": 41.461352833333336,
          "velocity": 0.7007874015748031
        },
        {
          "duration": 0.9926460000000006,
          "durationTicks": 108,
          "midi": 65,
          "name": "F4",
          "ticks": 4535,
          "time": 41.681940833333336,
          "velocity": 1
        },
        {
          "duration": 0.4411759999999987,
          "durationTicks": 48,
          "midi": 73,
          "name": "C#5",
          "ticks": 4559,
          "time": 41.902528833333335,
          "velocity": 1
        },
        {
          "duration": 0.5514700000000019,
          "durationTicks": 60,
          "midi": 68,
          "name": "G#4",
          "ticks": 4583,
          "time": 42.123116833333334,
          "velocity": 1
        },
        {
          "duration": 0.36764666666666557,
          "durationTicks": 40,
          "midi": 75,
          "name": "D#5",
          "ticks": 4607,
          "time": 42.343704833333334,
          "velocity": 1
        },
        {
          "duration": 1.268381000000005,
          "durationTicks": 138,
          "midi": 58,
          "name": "A#3",
          "ticks": 4655,
          "time": 42.78488083333333,
          "velocity": 0.7952755905511811
        },
        {
          "duration": 0.4411760000000058,
          "durationTicks": 48,
          "midi": 63,
          "name": "D#4",
          "ticks": 4655,
          "time": 42.78488083333333,
          "velocity": 1
        },
        {
          "duration": 0.6525728333333376,
          "durationTicks": 71,
          "midi": 72,
          "name": "C5",
          "ticks": 4656,
          "time": 42.794072,
          "velocity": 1
        },
        {
          "duration": 0.661763999999998,
          "durationTicks": 72,
          "midi": 68,
          "name": "G#4",
          "ticks": 4679,
          "time": 43.00546883333334,
          "velocity": 1
        },
        {
          "duration": 0.661763999999998,
          "durationTicks": 72,
          "midi": 63,
          "name": "D#4",
          "ticks": 4703,
          "time": 43.22605683333334,
          "velocity": 1
        },
        {
          "duration": 0.624999333333335,
          "durationTicks": 68,
          "midi": 72,
          "name": "C5",
          "ticks": 4727,
          "time": 43.44664483333334,
          "velocity": 1
        },
        {
          "duration": 0.4044113333333357,
          "durationTicks": 44,
          "midi": 68,
          "name": "G#4",
          "ticks": 4751,
          "time": 43.66723283333334,
          "velocity": 1
        },
        {
          "duration": 0.18382333333333634,
          "durationTicks": 20,
          "midi": 63,
          "name": "D#4",
          "ticks": 4775,
          "time": 43.887820833333336,
          "velocity": 1
        },
        {
          "duration": 1.1029399999999967,
          "durationTicks": 120,
          "midi": 65,
          "name": "F4",
          "ticks": 4799,
          "time": 44.108408833333336,
          "velocity": 1
        },
        {
          "duration": 0.4411759999999987,
          "durationTicks": 48,
          "midi": 68,
          "name": "G#4",
          "ticks": 4847,
          "time": 44.549584833333334,
          "velocity": 0.7086614173228346
        },
        {
          "duration": 1.7003658333333362,
          "durationTicks": 185,
          "midi": 60,
          "name": "C4",
          "ticks": 4847,
          "time": 44.549584833333334,
          "velocity": 0.7795275590551181
        },
        {
          "duration": 1.7003658333333362,
          "durationTicks": 185,
          "midi": 49,
          "name": "C#3",
          "ticks": 4847,
          "time": 44.549584833333334,
          "velocity": 0.5905511811023622
        },
        {
          "duration": 0.8823520000000045,
          "durationTicks": 96,
          "midi": 73,
          "name": "C#5",
          "ticks": 4871,
          "time": 44.77017283333333,
          "velocity": 1
        },
        {
          "duration": 1.1029400000000038,
          "durationTicks": 120,
          "midi": 68,
          "name": "G#4",
          "ticks": 4895,
          "time": 44.99076083333333,
          "velocity": 1
        },
        {
          "duration": 0.4411760000000058,
          "durationTicks": 48,
          "midi": 65,
          "name": "F4",
          "ticks": 4919,
          "time": 45.21134883333333,
          "velocity": 0.8740157480314961
        },
        {
          "duration": 0.4411759999999987,
          "durationTicks": 48,
          "midi": 75,
          "name": "D#5",
          "ticks": 4943,
          "time": 45.43193683333334,
          "velocity": 1
        },
        {
          "duration": 0.624999333333335,
          "durationTicks": 68,
          "midi": 65,
          "name": "F4",
          "ticks": 4967,
          "time": 45.65252483333334,
          "velocity": 0.7086614173228346
        },
        {
          "duration": 0.4044113333333357,
          "durationTicks": 44,
          "midi": 73,
          "name": "C#5",
          "ticks": 4991,
          "time": 45.87311283333334,
          "velocity": 1
        },
        {
          "duration": 0.18382333333333634,
          "durationTicks": 20,
          "midi": 68,
          "name": "G#4",
          "ticks": 5015,
          "time": 46.09370083333334,
          "velocity": 0.8031496062992126
        },
        {
          "duration": 1.7555128333333343,
          "durationTicks": 191,
          "midi": 54,
          "name": "F#3",
          "ticks": 5039,
          "time": 46.314288833333336,
          "velocity": 0.7795275590551181
        },
        {
          "duration": 0.4411759999999987,
          "durationTicks": 48,
          "midi": 65,
          "name": "F4",
          "ticks": 5039,
          "time": 46.314288833333336,
          "velocity": 0.6141732283464567
        },
        {
          "duration": 0.22058799999999934,
          "durationTicks": 24,
          "midi": 68,
          "name": "G#4",
          "ticks": 5039,
          "time": 46.314288833333336,
          "velocity": 0.6141732283464567
        },
        {
          "duration": 1.3143368333333356,
          "durationTicks": 143,
          "midi": 77,
          "name": "F5",
          "ticks": 5040,
          "time": 46.32348,
          "velocity": 1
        },
        {
          "duration": 0.661763999999998,
          "durationTicks": 72,
          "midi": 68,
          "name": "G#4",
          "ticks": 5063,
          "time": 46.534876833333335,
          "velocity": 0.9212598425196851
        },
        {
          "duration": 0.661763999999998,
          "durationTicks": 72,
          "midi": 65,
          "name": "F4",
          "ticks": 5087,
          "time": 46.755464833333335,
          "velocity": 0.8976377952755905
        },
        {
          "duration": 1.3235280000000031,
          "durationTicks": 144,
          "midi": 75,
          "name": "D#5",
          "ticks": 5111,
          "time": 46.976052833333334,
          "velocity": 1
        },
        {
          "duration": 0.6617640000000051,
          "durationTicks": 72,
          "midi": 68,
          "name": "G#4",
          "ticks": 5135,
          "time": 47.19664083333333,
          "velocity": 0.937007874015748
        },
        {
          "duration": 0.6617640000000051,
          "durationTicks": 72,
          "midi": 65,
          "name": "F4",
          "ticks": 5159,
          "time": 47.41722883333333,
          "velocity": 0.905511811023622
        },
        {
          "duration": 0.4411759999999987,
          "durationTicks": 48,
          "midi": 77,
          "name": "F5",
          "ticks": 5183,
          "time": 47.63781683333334,
          "velocity": 1
        },
        {
          "duration": 0.661763999999998,
          "durationTicks": 72,
          "midi": 68,
          "name": "G#4",
          "ticks": 5207,
          "time": 47.85840483333334,
          "velocity": 0.905511811023622
        },
        {
          "duration": 0.661763999999998,
          "durationTicks": 72,
          "midi": 65,
          "name": "F4",
          "ticks": 5231,
          "time": 48.07899283333334,
          "velocity": 0.8740157480314961
        },
        {
          "duration": 1.6544099999999986,
          "durationTicks": 180,
          "midi": 56,
          "name": "G#3",
          "ticks": 5232,
          "time": 48.088184,
          "velocity": 0.8031496062992126
        },
        {
          "duration": 1.1029399999999967,
          "durationTicks": 120,
          "midi": 75,
          "name": "D#5",
          "ticks": 5255,
          "time": 48.29958083333334,
          "velocity": 1
        },
        {
          "duration": 0.661763999999998,
          "durationTicks": 72,
          "midi": 68,
          "name": "G#4",
          "ticks": 5279,
          "time": 48.52016883333334,
          "velocity": 0.8976377952755905
        },
        {
          "duration": 0.9926460000000006,
          "durationTicks": 108,
          "midi": 65,
          "name": "F4",
          "ticks": 5303,
          "time": 48.740756833333336,
          "velocity": 1
        },
        {
          "duration": 0.4411759999999987,
          "durationTicks": 48,
          "midi": 73,
          "name": "C#5",
          "ticks": 5327,
          "time": 48.961344833333335,
          "velocity": 1
        },
        {
          "duration": 0.5514700000000019,
          "durationTicks": 60,
          "midi": 68,
          "name": "G#4",
          "ticks": 5351,
          "time": 49.181932833333335,
          "velocity": 1
        },
        {
          "duration": 0.36764666666666557,
          "durationTicks": 40,
          "midi": 75,
          "name": "D#5",
          "ticks": 5375,
          "time": 49.402520833333334,
          "velocity": 1
        },
        {
          "duration": 1.268381000000005,
          "durationTicks": 138,
          "midi": 58,
          "name": "A#3",
          "ticks": 5423,
          "time": 49.84369683333333,
          "velocity": 0.7952755905511811
        },
        {
          "duration": 0.4411760000000058,
          "durationTicks": 48,
          "midi": 63,
          "name": "D#4",
          "ticks": 5423,
          "time": 49.84369683333333,
          "velocity": 1
        },
        {
          "duration": 0.6525728333333376,
          "durationTicks": 71,
          "midi": 72,
          "name": "C5",
          "ticks": 5424,
          "time": 49.852888,
          "velocity": 1
        },
        {
          "duration": 0.661763999999998,
          "durationTicks": 72,
          "midi": 68,
          "name": "G#4",
          "ticks": 5447,
          "time": 50.06428483333334,
          "velocity": 1
        },
        {
          "duration": 0.661763999999998,
          "durationTicks": 72,
          "midi": 63,
          "name": "D#4",
          "ticks": 5471,
          "time": 50.28487283333334,
          "velocity": 1
        },
        {
          "duration": 0.624999333333335,
          "durationTicks": 68,
          "midi": 72,
          "name": "C5",
          "ticks": 5495,
          "time": 50.50546083333334,
          "velocity": 1
        },
        {
          "duration": 0.4044113333333357,
          "durationTicks": 44,
          "midi": 68,
          "name": "G#4",
          "ticks": 5519,
          "time": 50.72604883333334,
          "velocity": 1
        },
        {
          "duration": 0.18382333333333634,
          "durationTicks": 20,
          "midi": 63,
          "name": "D#4",
          "ticks": 5543,
          "time": 50.946636833333336,
          "velocity": 1
        },
        {
          "duration": 1.1029399999999967,
          "durationTicks": 120,
          "midi": 65,
          "name": "F4",
          "ticks": 5567,
          "time": 51.167224833333336,
          "velocity": 1
        },
        {
          "duration": 0.4411759999999987,
          "durationTicks": 48,
          "midi": 68,
          "name": "G#4",
          "ticks": 5615,
          "time": 51.608400833333334,
          "velocity": 0.7086614173228346
        },
        {
          "duration": 1.7003658333333362,
          "durationTicks": 185,
          "midi": 60,
          "name": "C4",
          "ticks": 5615,
          "time": 51.608400833333334,
          "velocity": 0.7795275590551181
        },
        {
          "duration": 1.7003658333333362,
          "durationTicks": 185,
          "midi": 49,
          "name": "C#3",
          "ticks": 5615,
          "time": 51.608400833333334,
          "velocity": 0.5905511811023622
        },
        {
          "duration": 0.8823520000000045,
          "durationTicks": 96,
          "midi": 73,
          "name": "C#5",
          "ticks": 5639,
          "time": 51.828988833333334,
          "velocity": 1
        },
        {
          "duration": 0.6617640000000051,
          "durationTicks": 72,
          "midi": 68,
          "name": "G#4",
          "ticks": 5663,
          "time": 52.04957683333333,
          "velocity": 1
        },
        {
          "duration": 0.4411760000000058,
          "durationTicks": 48,
          "midi": 65,
          "name": "F4",
          "ticks": 5687,
          "time": 52.27016483333333,
          "velocity": 0.9448818897637795
        },
        {
          "duration": 0.4411759999999987,
          "durationTicks": 48,
          "midi": 75,
          "name": "D#5",
          "ticks": 5711,
          "time": 52.49075283333334,
          "velocity": 1
        },
        {
          "duration": 0.4411759999999987,
          "durationTicks": 48,
          "midi": 68,
          "name": "G#4",
          "ticks": 5735,
          "time": 52.71134083333334,
          "velocity": 0.8188976377952756
        },
        {
          "duration": 0.4044113333333357,
          "durationTicks": 44,
          "midi": 73,
          "name": "C#5",
          "ticks": 5759,
          "time": 52.93192883333334,
          "velocity": 1
        },
        {
          "duration": 0.18382333333333634,
          "durationTicks": 20,
          "midi": 68,
          "name": "G#4",
          "ticks": 5783,
          "time": 53.15251683333334,
          "velocity": 0.8976377952755905
        },
        {
          "duration": 0.18382333333333634,
          "durationTicks": 20,
          "midi": 65,
          "name": "F4",
          "ticks": 5807,
          "time": 53.373104833333336,
          "velocity": 0.7795275590551181
        },
        {
          "duration": 0.18382333333333634,
          "durationTicks": 20,
          "midi": 70,
          "name": "A#4",
          "ticks": 5807,
          "time": 53.373104833333336,
          "velocity": 1
        },
        {
          "duration": 0.18382333333333634,
          "durationTicks": 20,
          "midi": 61,
          "name": "C#4",
          "ticks": 5831,
          "time": 53.593692833333336,
          "velocity": 0.7795275590551181
        },
        {
          "duration": 0.18382333333333634,
          "durationTicks": 20,
          "midi": 65,
          "name": "F4",
          "ticks": 5831,
          "time": 53.593692833333336,
          "velocity": 1
        },
        {
          "duration": 0.14705866666666623,
          "durationTicks": 16,
          "midi": 65,
          "name": "F4",
          "ticks": 5855,
          "time": 53.814280833333335,
          "velocity": 0.7795275590551181
        },
        {
          "duration": 0.14705866666666623,
          "durationTicks": 16,
          "midi": 70,
          "name": "A#4",
          "ticks": 5855,
          "time": 53.814280833333335,
          "velocity": 1
        },
        {
          "duration": 0.3860290000000006,
          "durationTicks": 42,
          "midi": 63,
          "name": "D#4",
          "ticks": 5879,
          "time": 54.034868833333334,
          "velocity": 0.7795275590551181
        },
        {
          "duration": 0.39522016666666815,
          "durationTicks": 43,
          "midi": 68,
          "name": "G#4",
          "ticks": 5879,
          "time": 54.034868833333334,
          "velocity": 1
        },
        {
          "duration": 0.18382333333333634,
          "durationTicks": 20,
          "midi": 61,
          "name": "C#4",
          "ticks": 5927,
          "time": 54.47604483333333,
          "velocity": 0.7795275590551181
        },
        {
          "duration": 0.18382333333333634,
          "durationTicks": 20,
          "midi": 66,
          "name": "F#4",
          "ticks": 5927,
          "time": 54.47604483333333,
          "velocity": 1
        },
        {
          "duration": 0.1746321666666688,
          "durationTicks": 19,
          "midi": 60,
          "name": "C4",
          "ticks": 5951,
          "time": 54.69663283333333,
          "velocity": 0.7795275590551181
        },
        {
          "duration": 0.1746321666666688,
          "durationTicks": 19,
          "midi": 65,
          "name": "F4",
          "ticks": 5951,
          "time": 54.69663283333333,
          "velocity": 1
        },
        {
          "duration": 0.3768378333333331,
          "durationTicks": 41,
          "midi": 61,
          "name": "C#4",
          "ticks": 5975,
          "time": 54.91722083333334,
          "velocity": 0.7795275590551181
        },
        {
          "duration": 0.3768378333333331,
          "durationTicks": 41,
          "midi": 66,
          "name": "F#4",
          "ticks": 5975,
          "time": 54.91722083333334,
          "velocity": 1
        },
        {
          "duration": 0.15624983333333375,
          "durationTicks": 17,
          "midi": 60,
          "name": "C4",
          "ticks": 6023,
          "time": 55.35839683333334,
          "velocity": 0.7795275590551181
        },
        {
          "duration": 0.15624983333333375,
          "durationTicks": 17,
          "midi": 65,
          "name": "F4",
          "ticks": 6023,
          "time": 55.35839683333334,
          "velocity": 1
        },
        {
          "duration": 0.1746321666666617,
          "durationTicks": 19,
          "midi": 58,
          "name": "A#3",
          "ticks": 6047,
          "time": 55.57898483333334,
          "velocity": 0.7795275590551181
        },
        {
          "duration": 0.1746321666666617,
          "durationTicks": 19,
          "midi": 63,
          "name": "D#4",
          "ticks": 6047,
          "time": 55.57898483333334,
          "velocity": 1
        },
        {
          "duration": 0.3860290000000006,
          "durationTicks": 42,
          "midi": 60,
          "name": "C4",
          "ticks": 6071,
          "time": 55.799572833333336,
          "velocity": 0.7795275590551181
        },
        {
          "duration": 0.3860290000000006,
          "durationTicks": 42,
          "midi": 65,
          "name": "F4",
          "ticks": 6071,
          "time": 55.799572833333336,
          "velocity": 1
        },
        {
          "duration": 0.15624983333333375,
          "durationTicks": 17,
          "midi": 58,
          "name": "A#3",
          "ticks": 6119,
          "time": 56.240748833333335,
          "velocity": 0.7795275590551181
        },
        {
          "duration": 0.15624983333333375,
          "durationTicks": 17,
          "midi": 63,
          "name": "D#4",
          "ticks": 6119,
          "time": 56.240748833333335,
          "velocity": 1
        },
        {
          "duration": 0.3860290000000006,
          "durationTicks": 42,
          "midi": 56,
          "name": "G#3",
          "ticks": 6143,
          "time": 56.461336833333334,
          "velocity": 0.7795275590551181
        },
        {
          "duration": 0.39522016666666815,
          "durationTicks": 43,
          "midi": 60,
          "name": "C4",
          "ticks": 6143,
          "time": 56.461336833333334,
          "velocity": 1
        },
        {
          "duration": 0.15624983333334086,
          "durationTicks": 17,
          "midi": 58,
          "name": "A#3",
          "ticks": 6191,
          "time": 56.90251283333333,
          "velocity": 0.7795275590551181
        },
        {
          "duration": 0.15624983333334086,
          "durationTicks": 17,
          "midi": 61,
          "name": "C#4",
          "ticks": 6191,
          "time": 56.90251283333333,
          "velocity": 1
        },
        {
          "duration": 0.1746321666666617,
          "durationTicks": 19,
          "midi": 56,
          "name": "G#3",
          "ticks": 6215,
          "time": 57.12310083333334,
          "velocity": 0.7795275590551181
        },
        {
          "duration": 0.1746321666666617,
          "durationTicks": 19,
          "midi": 60,
          "name": "C4",
          "ticks": 6215,
          "time": 57.12310083333334,
          "velocity": 1
        },
        {
          "duration": 0.1378674999999987,
          "durationTicks": 15,
          "midi": 58,
          "name": "A#3",
          "ticks": 6239,
          "time": 57.34368883333334,
          "velocity": 0.7795275590551181
        },
        {
          "duration": 0.1378674999999987,
          "durationTicks": 15,
          "midi": 61,
          "name": "C#4",
          "ticks": 6239,
          "time": 57.34368883333334,
          "velocity": 1
        },
        {
          "duration": 0.3768378333333331,
          "durationTicks": 41,
          "midi": 60,
          "name": "C4",
          "ticks": 6263,
          "time": 57.56427683333334,
          "velocity": 0.7795275590551181
        },
        {
          "duration": 0.3768378333333331,
          "durationTicks": 41,
          "midi": 63,
          "name": "D#4",
          "ticks": 6263,
          "time": 57.56427683333334,
          "velocity": 1
        },
        {
          "duration": 0.15624983333333375,
          "durationTicks": 17,
          "midi": 58,
          "name": "A#3",
          "ticks": 6311,
          "time": 58.00545283333334,
          "velocity": 0.7795275590551181
        },
        {
          "duration": 0.15624983333333375,
          "durationTicks": 17,
          "midi": 61,
          "name": "C#4",
          "ticks": 6311,
          "time": 58.00545283333334,
          "velocity": 1
        },
        {
          "duration": 0.14705866666667333,
          "durationTicks": 16,
          "midi": 60,
          "name": "C4",
          "ticks": 6335,
          "time": 58.226040833333336,
          "velocity": 0.7795275590551181
        },
        {
          "duration": 0.14705866666667333,
          "durationTicks": 16,
          "midi": 63,
          "name": "D#4",
          "ticks": 6335,
          "time": 58.226040833333336,
          "velocity": 1
        },
        {
          "duration": 1.5257336666666532,
          "durationTicks": 166,
          "midi": 62,
          "name": "D4",
          "ticks": 6360,
          "time": 58.45582000000001,
          "velocity": 0.7795275590551181
        },
        {
          "duration": 1.5257336666666532,
          "durationTicks": 166,
          "midi": 65,
          "name": "F4",
          "ticks": 6360,
          "time": 58.45582000000001,
          "velocity": 1
        },
        {
          "duration": 0.4411759999999987,
          "durationTicks": 48,
          "midi": 54,
          "name": "F#3",
          "ticks": 6575,
          "time": 60.431920833333336,
          "velocity": 0.7874015748031497
        },
        {
          "duration": 0.4411759999999987,
          "durationTicks": 48,
          "midi": 61,
          "name": "C#4",
          "ticks": 6575,
          "time": 60.431920833333336,
          "velocity": 0.7795275590551181
        },
        {
          "duration": 0.4411759999999987,
          "durationTicks": 48,
          "midi": 65,
          "name": "F4",
          "ticks": 6575,
          "time": 60.431920833333336,
          "velocity": 0.8976377952755905
        },
        {
          "duration": 0.43198483333333115,
          "durationTicks": 47,
          "midi": 68,
          "name": "G#4",
          "ticks": 6576,
          "time": 60.441112000000004,
          "velocity": 0.7637795275590551
        },
        {
          "duration": 0.43198483333333115,
          "durationTicks": 47,
          "midi": 75,
          "name": "D#5",
          "ticks": 6576,
          "time": 60.441112000000004,
          "velocity": 0.7559055118110236
        },
        {
          "duration": 0.22058799999999934,
          "durationTicks": 24,
          "midi": 68,
          "name": "G#4",
          "ticks": 6623,
          "time": 60.873096833333335,
          "velocity": 0.8661417322834646
        },
        {
          "duration": 0.22058799999999934,
          "durationTicks": 24,
          "midi": 73,
          "name": "C#5",
          "ticks": 6623,
          "time": 60.873096833333335,
          "velocity": 0.7795275590551181
        },
        {
          "duration": 0.2113968333333247,
          "durationTicks": 23,
          "midi": 77,
          "name": "F5",
          "ticks": 6624,
          "time": 60.88228800000001,
          "velocity": 0.8740157480314961
        },
        {
          "duration": 0.01838233333332795,
          "durationTicks": 2,
          "midi": 68,
          "name": "G#4",
          "ticks": 6647,
          "time": 61.093684833333334,
          "velocity": 0.8976377952755905
        },
        {
          "duration": 0.009191166666653316,
          "durationTicks": 1,
          "midi": 73,
          "name": "C#5",
          "ticks": 6648,
          "time": 61.10287600000001,
          "velocity": 0.8740157480314961
        },
        {
          "duration": 0.009191166666667527,
          "durationTicks": 1,
          "midi": 63,
          "name": "D#4",
          "ticks": 6659,
          "time": 61.20397883333334,
          "velocity": 0.8976377952755905
        },
        {
          "duration": 0.22058799999999934,
          "durationTicks": 24,
          "midi": 54,
          "name": "F#3",
          "ticks": 6671,
          "time": 61.314272833333334,
          "velocity": 0.7874015748031497
        },
        {
          "duration": 0.22058799999999934,
          "durationTicks": 24,
          "midi": 61,
          "name": "C#4",
          "ticks": 6671,
          "time": 61.314272833333334,
          "velocity": 0.8110236220472441
        },
        {
          "duration": 0.2113968333333247,
          "durationTicks": 23,
          "midi": 65,
          "name": "F4",
          "ticks": 6672,
          "time": 61.32346400000001,
          "velocity": 0.84251968503937
        },
        {
          "duration": 0.2113968333333247,
          "durationTicks": 23,
          "midi": 68,
          "name": "G#4",
          "ticks": 6672,
          "time": 61.32346400000001,
          "velocity": 0.8031496062992126
        },
        {
          "duration": 0.2113968333333247,
          "durationTicks": 23,
          "midi": 75,
          "name": "D#5",
          "ticks": 6672,
          "time": 61.32346400000001,
          "velocity": 0.8740157480314961
        },
        {
          "duration": 0.22058800000000645,
          "durationTicks": 24,
          "midi": 65,
          "name": "F4",
          "ticks": 6695,
          "time": 61.53486083333333,
          "velocity": 0.8661417322834646
        },
        {
          "duration": 0.22058800000000645,
          "durationTicks": 24,
          "midi": 68,
          "name": "G#4",
          "ticks": 6695,
          "time": 61.53486083333333,
          "velocity": 0.7637795275590551
        },
        {
          "duration": 0.22058800000000645,
          "durationTicks": 24,
          "midi": 73,
          "name": "C#5",
          "ticks": 6695,
          "time": 61.53486083333333,
          "velocity": 0.7874015748031497
        },
        {
          "duration": 0.2113968333333318,
          "durationTicks": 23,
          "midi": 77,
          "name": "F5",
          "ticks": 6696,
          "time": 61.54405200000001,
          "velocity": 0.8740157480314961
        },
        {
          "duration": 0.01838233333332795,
          "durationTicks": 2,
          "midi": 68,
          "name": "G#4",
          "ticks": 6719,
          "time": 61.75544883333334,
          "velocity": 0.905511811023622
        },
        {
          "duration": 0.009191166666660422,
          "durationTicks": 1,
          "midi": 73,
          "name": "C#5",
          "ticks": 6720,
          "time": 61.76464000000001,
          "velocity": 0.8740157480314961
        },
        {
          "duration": 0.009191166666674633,
          "durationTicks": 1,
          "midi": 66,
          "name": "F#4",
          "ticks": 6731,
          "time": 61.865742833333336,
          "velocity": 0.8976377952755905
        },
        {
          "duration": 0.4411759999999987,
          "durationTicks": 48,
          "midi": 56,
          "name": "G#3",
          "ticks": 6743,
          "time": 61.97603683333334,
          "velocity": 0.7637795275590551
        },
        {
          "duration": 0.4411759999999987,
          "durationTicks": 48,
          "midi": 61,
          "name": "C#4",
          "ticks": 6743,
          "time": 61.97603683333334,
          "velocity": 0.8582677165354331
        },
        {
          "duration": 0.4411759999999987,
          "durationTicks": 48,
          "midi": 65,
          "name": "F4",
          "ticks": 6743,
          "time": 61.97603683333334,
          "velocity": 0.8661417322834646
        },
        {
          "duration": 0.43198483333333115,
          "durationTicks": 47,
          "midi": 68,
          "name": "G#4",
          "ticks": 6744,
          "time": 61.985228000000006,
          "velocity": 0.9212598425196851
        },
        {
          "duration": 0.43198483333333115,
          "durationTicks": 47,
          "midi": 75,
          "name": "D#5",
          "ticks": 6744,
          "time": 61.985228000000006,
          "velocity": 0.84251968503937
        },
        {
          "duration": 0.22058799999999934,
          "durationTicks": 24,
          "midi": 60,
          "name": "C4",
          "ticks": 6791,
          "time": 62.41721283333334,
          "velocity": 0.7401574803149606
        },
        {
          "duration": 0.22058799999999934,
          "durationTicks": 24,
          "midi": 65,
          "name": "F4",
          "ticks": 6791,
          "time": 62.41721283333334,
          "velocity": 0.905511811023622
        },
        {
          "duration": 0.2113968333333318,
          "durationTicks": 23,
          "midi": 68,
          "name": "G#4",
          "ticks": 6792,
          "time": 62.426404000000005,
          "velocity": 0.7637795275590551
        },
        {
          "duration": 0.2113968333333318,
          "durationTicks": 23,
          "midi": 75,
          "name": "D#5",
          "ticks": 6792,
          "time": 62.426404000000005,
          "velocity": 0.7952755905511811
        },
        {
          "duration": 0.22058799999999934,
          "durationTicks": 24,
          "midi": 68,
          "name": "G#4",
          "ticks": 6815,
          "time": 62.63780083333334,
          "velocity": 0.8110236220472441
        },
        {
          "duration": 0.22058799999999934,
          "durationTicks": 24,
          "midi": 72,
          "name": "C5",
          "ticks": 6815,
          "time": 62.63780083333334,
          "velocity": 0.7559055118110236
        },
        {
          "duration": 0.2113968333333318,
          "durationTicks": 23,
          "midi": 75,
          "name": "D#5",
          "ticks": 6816,
          "time": 62.646992000000004,
          "velocity": 0.7637795275590551
        },
        {
          "duration": 0.2113968333333318,
          "durationTicks": 23,
          "midi": 80,
          "name": "G#5",
          "ticks": 6816,
          "time": 62.646992000000004,
          "velocity": 0.7401574803149606
        },
        {
          "duration": 0.01838233333332795,
          "durationTicks": 2,
          "midi": 61,
          "name": "C#4",
          "ticks": 6839,
          "time": 62.858388833333336,
          "velocity": 0.9133858267716536
        },
        {
          "duration": 0.009191166666660422,
          "durationTicks": 1,
          "midi": 65,
          "name": "F4",
          "ticks": 6840,
          "time": 62.867580000000004,
          "velocity": 0.7716535433070866
        },
        {
          "duration": 0.009191166666667527,
          "durationTicks": 1,
          "midi": 61,
          "name": "C#4",
          "ticks": 6851,
          "time": 62.96868283333334,
          "velocity": 0.8976377952755905
        },
        {
          "duration": 0.22058799999999934,
          "durationTicks": 24,
          "midi": 56,
          "name": "G#3",
          "ticks": 6863,
          "time": 63.078976833333336,
          "velocity": 0.7637795275590551
        },
        {
          "duration": 0.22058799999999934,
          "durationTicks": 24,
          "midi": 60,
          "name": "C4",
          "ticks": 6863,
          "time": 63.078976833333336,
          "velocity": 0.7401574803149606
        },
        {
          "duration": 0.22058799999999934,
          "durationTicks": 24,
          "midi": 65,
          "name": "F4",
          "ticks": 6863,
          "time": 63.078976833333336,
          "velocity": 0.889763779527559
        },
        {
          "duration": 0.2113968333333247,
          "durationTicks": 23,
          "midi": 68,
          "name": "G#4",
          "ticks": 6864,
          "time": 63.08816800000001,
          "velocity": 0.7952755905511811
        },
        {
          "duration": 0.2113968333333247,
          "durationTicks": 23,
          "midi": 75,
          "name": "D#5",
          "ticks": 6864,
          "time": 63.08816800000001,
          "velocity": 0.8818897637795275
        },
        {
          "duration": 0.2113968333333318,
          "durationTicks": 23,
          "midi": 63,
          "name": "D#4",
          "ticks": 6887,
          "time": 63.299564833333335,
          "velocity": 0.8661417322834646
        },
        {
          "duration": 0.2113968333333318,
          "durationTicks": 23,
          "midi": 68,
          "name": "G#4",
          "ticks": 6887,
          "time": 63.299564833333335,
          "velocity": 0.889763779527559
        },
        {
          "duration": 0.43198483333332405,
          "durationTicks": 47,
          "midi": 72,
          "name": "C5",
          "ticks": 6888,
          "time": 63.30875600000001,
          "velocity": 0.8661417322834646
        },
        {
          "duration": 0.22058799999999934,
          "durationTicks": 24,
          "midi": 68,
          "name": "G#4",
          "ticks": 6911,
          "time": 63.520152833333334,
          "velocity": 0.8110236220472441
        },
        {
          "duration": 0.2113968333333247,
          "durationTicks": 23,
          "midi": 75,
          "name": "D#5",
          "ticks": 6912,
          "time": 63.52934400000001,
          "velocity": 0.8110236220472441
        },
        {
          "duration": 0.2113968333333247,
          "durationTicks": 23,
          "midi": 80,
          "name": "G#5",
          "ticks": 6912,
          "time": 63.52934400000001,
          "velocity": 0.8661417322834646
        },
        {
          "duration": 0.018382333333335055,
          "durationTicks": 2,
          "midi": 61,
          "name": "C#4",
          "ticks": 6935,
          "time": 63.740740833333334,
          "velocity": 0.9133858267716536
        },
        {
          "duration": 0.009191166666660422,
          "durationTicks": 1,
          "midi": 65,
          "name": "F4",
          "ticks": 6936,
          "time": 63.74993200000001,
          "velocity": 0.7716535433070866
        },
        {
          "duration": 0.11029399999999612,
          "durationTicks": 12,
          "midi": 68,
          "name": "G#4",
          "ticks": 6947,
          "time": 63.85103483333334,
          "velocity": 0.8976377952755905
        },
        {
          "duration": 0.4411760000000058,
          "durationTicks": 48,
          "midi": 56,
          "name": "G#3",
          "ticks": 6959,
          "time": 63.96132883333333,
          "velocity": 0.7952755905511811
        },
        {
          "duration": 0.4411760000000058,
          "durationTicks": 48,
          "midi": 60,
          "name": "C4",
          "ticks": 6959,
          "time": 63.96132883333333,
          "velocity": 0.7952755905511811
        },
        {
          "duration": 0.4411760000000058,
          "durationTicks": 48,
          "midi": 63,
          "name": "D#4",
          "ticks": 6959,
          "time": 63.96132883333333,
          "velocity": 0.905511811023622
        },
        {
          "duration": 0.43198483333333115,
          "durationTicks": 47,
          "midi": 68,
          "name": "G#4",
          "ticks": 6960,
          "time": 63.97052000000001,
          "velocity": 0.7637795275590551
        },
        {
          "duration": 0.43198483333333115,
          "durationTicks": 47,
          "midi": 72,
          "name": "C5",
          "ticks": 6960,
          "time": 63.97052000000001,
          "velocity": 0.7401574803149606
        },
        {
          "duration": 0.22058799999999223,
          "durationTicks": 24,
          "midi": 56,
          "name": "G#3",
          "ticks": 7007,
          "time": 64.40250483333334,
          "velocity": 0.7086614173228346
        },
        {
          "duration": 0.22058799999999223,
          "durationTicks": 24,
          "midi": 60,
          "name": "C4",
          "ticks": 7007,
          "time": 64.40250483333334,
          "velocity": 0.7086614173228346
        },
        {
          "duration": 0.22058799999999223,
          "durationTicks": 24,
          "midi": 63,
          "name": "D#4",
          "ticks": 7007,
          "time": 64.40250483333334,
          "velocity": 0.7952755905511811
        },
        {
          "duration": 0.22058799999999223,
          "durationTicks": 24,
          "midi": 68,
          "name": "G#4",
          "ticks": 7007,
          "time": 64.40250483333334,
          "velocity": 0.8976377952755905
        },
        {
          "duration": 0.2113968333333247,
          "durationTicks": 23,
          "midi": 72,
          "name": "C5",
          "ticks": 7008,
          "time": 64.411696,
          "velocity": 0.7637795275590551
        },
        {
          "duration": 0.018382333333335055,
          "durationTicks": 2,
          "midi": 56,
          "name": "G#3",
          "ticks": 7031,
          "time": 64.62309283333333,
          "velocity": 0.7795275590551181
        },
        {
          "duration": 0.009191166666667527,
          "durationTicks": 1,
          "midi": 63,
          "name": "D#4",
          "ticks": 7032,
          "time": 64.632284,
          "velocity": 0.889763779527559
        },
        {
          "duration": 0.009191166666681738,
          "durationTicks": 1,
          "midi": 68,
          "name": "G#4",
          "ticks": 7043,
          "time": 64.73338683333333,
          "velocity": 0.8976377952755905
        },
        {
          "duration": 0.22058799999999223,
          "durationTicks": 24,
          "midi": 56,
          "name": "G#3",
          "ticks": 7055,
          "time": 64.84368083333334,
          "velocity": 0.7874015748031497
        },
        {
          "duration": 0.22058799999999223,
          "durationTicks": 24,
          "midi": 60,
          "name": "C4",
          "ticks": 7055,
          "time": 64.84368083333334,
          "velocity": 0.7637795275590551
        },
        {
          "duration": 0.22058799999999223,
          "durationTicks": 24,
          "midi": 63,
          "name": "D#4",
          "ticks": 7055,
          "time": 64.84368083333334,
          "velocity": 0.905511811023622
        },
        {
          "duration": 0.2113968333333247,
          "durationTicks": 23,
          "midi": 68,
          "name": "G#4",
          "ticks": 7056,
          "time": 64.852872,
          "velocity": 0.7637795275590551
        },
        {
          "duration": 0.2113968333333247,
          "durationTicks": 23,
          "midi": 72,
          "name": "C5",
          "ticks": 7056,
          "time": 64.852872,
          "velocity": 0.7401574803149606
        },
        {
          "duration": 0.22058800000000645,
          "durationTicks": 24,
          "midi": 56,
          "name": "G#3",
          "ticks": 7079,
          "time": 65.06426883333333,
          "velocity": 0.7322834645669292
        },
        {
          "duration": 0.22058800000000645,
          "durationTicks": 24,
          "midi": 63,
          "name": "D#4",
          "ticks": 7079,
          "time": 65.06426883333333,
          "velocity": 0.905511811023622
        },
        {
          "duration": 0.22058800000000645,
          "durationTicks": 24,
          "midi": 68,
          "name": "G#4",
          "ticks": 7079,
          "time": 65.06426883333333,
          "velocity": 0.7952755905511811
        },
        {
          "duration": 0.21139683333333892,
          "durationTicks": 23,
          "midi": 72,
          "name": "C5",
          "ticks": 7080,
          "time": 65.07346,
          "velocity": 0.7480314960629921
        },
        {
          "duration": 0.018382333333320844,
          "durationTicks": 2,
          "midi": 56,
          "name": "G#3",
          "ticks": 7103,
          "time": 65.28485683333334,
          "velocity": 0.7795275590551181
        },
        {
          "duration": 0.009191166666653316,
          "durationTicks": 1,
          "midi": 63,
          "name": "D#4",
          "ticks": 7104,
          "time": 65.294048,
          "velocity": 0.889763779527559
        },
        {
          "duration": 0.009191166666667527,
          "durationTicks": 1,
          "midi": 65,
          "name": "F4",
          "ticks": 7115,
          "time": 65.39515083333333,
          "velocity": 0.8976377952755905
        },
        {
          "duration": 0.4411759999999987,
          "durationTicks": 48,
          "midi": 56,
          "name": "G#3",
          "ticks": 7127,
          "time": 65.50544483333333,
          "velocity": 0.6850393700787402
        },
        {
          "duration": 0.4411759999999987,
          "durationTicks": 48,
          "midi": 60,
          "name": "C4",
          "ticks": 7127,
          "time": 65.50544483333333,
          "velocity": 0.7716535433070866
        },
        {
          "duration": 0.4411759999999987,
          "durationTicks": 48,
          "midi": 63,
          "name": "D#4",
          "ticks": 7127,
          "time": 65.50544483333333,
          "velocity": 0.889763779527559
        },
        {
          "duration": 0.4411759999999987,
          "durationTicks": 48,
          "midi": 68,
          "name": "G#4",
          "ticks": 7127,
          "time": 65.50544483333333,
          "velocity": 0.6141732283464567
        },
        {
          "duration": 0.43198483333331694,
          "durationTicks": 47,
          "midi": 72,
          "name": "C5",
          "ticks": 7128,
          "time": 65.51463600000001,
          "velocity": 0.7795275590551181
        },
        {
          "duration": 0.22058800000000645,
          "durationTicks": 24,
          "midi": 56,
          "name": "G#3",
          "ticks": 7175,
          "time": 65.94662083333333,
          "velocity": 0.6850393700787402
        },
        {
          "duration": 0.22058800000000645,
          "durationTicks": 24,
          "midi": 60,
          "name": "C4",
          "ticks": 7175,
          "time": 65.94662083333333,
          "velocity": 0.7716535433070866
        },
        {
          "duration": 0.22058800000000645,
          "durationTicks": 24,
          "midi": 63,
          "name": "D#4",
          "ticks": 7175,
          "time": 65.94662083333333,
          "velocity": 0.8110236220472441
        },
        {
          "duration": 0.21139683333333892,
          "durationTicks": 23,
          "midi": 68,
          "name": "G#4",
          "ticks": 7176,
          "time": 65.955812,
          "velocity": 0.6771653543307087
        },
        {
          "duration": 0.21139683333333892,
          "durationTicks": 23,
          "midi": 72,
          "name": "C5",
          "ticks": 7176,
          "time": 65.955812,
          "velocity": 0.8267716535433071
        },
        {
          "duration": 0.018382333333320844,
          "durationTicks": 2,
          "midi": 56,
          "name": "G#3",
          "ticks": 7199,
          "time": 66.16720883333333,
          "velocity": 0.7795275590551181
        },
        {
          "duration": 0.009191166666653316,
          "durationTicks": 1,
          "midi": 63,
          "name": "D#4",
          "ticks": 7200,
          "time": 66.1764,
          "velocity": 0.889763779527559
        },
        {
          "duration": 0.009191166666667527,
          "durationTicks": 1,
          "midi": 68,
          "name": "G#4",
          "ticks": 7211,
          "time": 66.27750283333333,
          "velocity": 0.8976377952755905
        },
        {
          "duration": 0.4411759999999987,
          "durationTicks": 48,
          "midi": 58,
          "name": "A#3",
          "ticks": 7223,
          "time": 66.38779683333333,
          "velocity": 0.8582677165354331
        },
        {
          "duration": 0.4411759999999987,
          "durationTicks": 48,
          "midi": 61,
          "name": "C#4",
          "ticks": 7223,
          "time": 66.38779683333333,
          "velocity": 0.889763779527559
        },
        {
          "duration": 0.4411759999999987,
          "durationTicks": 48,
          "midi": 65,
          "name": "F4",
          "ticks": 7223,
          "time": 66.38779683333333,
          "velocity": 0.7716535433070866
        },
        {
          "duration": 0.43198483333333115,
          "durationTicks": 47,
          "midi": 68,
          "name": "G#4",
          "ticks": 7224,
          "time": 66.396988,
          "velocity": 0.7952755905511811
        },
        {
          "duration": 0.43198483333333115,
          "durationTicks": 47,
          "midi": 73,
          "name": "C#5",
          "ticks": 7224,
          "time": 66.396988,
          "velocity": 0.8110236220472441
        },
        {
          "duration": 0.22058800000000645,
          "durationTicks": 24,
          "midi": 58,
          "name": "A#3",
          "ticks": 7271,
          "time": 66.82897283333332,
          "velocity": 0.7874015748031497
        },
        {
          "duration": 0.22058800000000645,
          "durationTicks": 24,
          "midi": 61,
          "name": "C#4",
          "ticks": 7271,
          "time": 66.82897283333332,
          "velocity": 0.7637795275590551
        },
        {
          "duration": 0.22058800000000645,
          "durationTicks": 24,
          "midi": 65,
          "name": "F4",
          "ticks": 7271,
          "time": 66.82897283333332,
          "velocity": 0.7952755905511811
        },
        {
          "duration": 0.2113968333333247,
          "durationTicks": 23,
          "midi": 68,
          "name": "G#4",
          "ticks": 7272,
          "time": 66.838164,
          "velocity": 0.7716535433070866
        },
        {
          "duration": 0.2113968333333247,
          "durationTicks": 23,
          "midi": 73,
          "name": "C#5",
          "ticks": 7272,
          "time": 66.838164,
          "velocity": 0.905511811023622
        },
        {
          "duration": 0.11029399999999612,
          "durationTicks": 12,
          "midi": 61,
          "name": "C#4",
          "ticks": 7295,
          "time": 67.04956083333333,
          "velocity": 0.84251968503937
        },
        {
          "duration": 0.11029399999999612,
          "durationTicks": 12,
          "midi": 73,
          "name": "C#5",
          "ticks": 7295,
          "time": 67.04956083333333,
          "velocity": 0.889763779527559
        },
        {
          "duration": 0.009191166666667527,
          "durationTicks": 1,
          "midi": 73,
          "name": "C#5",
          "ticks": 7307,
          "time": 67.15985483333333,
          "velocity": 0.8976377952755905
        },
        {
          "duration": 0.15624983333333375,
          "durationTicks": 17,
          "midi": 54,
          "name": "F#3",
          "ticks": 7319,
          "time": 67.27014883333332,
          "velocity": 0.8976377952755905
        },
        {
          "duration": 0.4411759999999987,
          "durationTicks": 48,
          "midi": 54,
          "name": "F#3",
          "ticks": 7343,
          "time": 67.49073683333333,
          "velocity": 0.7874015748031497
        },
        {
          "duration": 0.4411759999999987,
          "durationTicks": 48,
          "midi": 61,
          "name": "C#4",
          "ticks": 7343,
          "time": 67.49073683333333,
          "velocity": 0.7795275590551181
        },
        {
          "duration": 0.4411759999999987,
          "durationTicks": 48,
          "midi": 65,
          "name": "F4",
          "ticks": 7343,
          "time": 67.49073683333333,
          "velocity": 0.8346456692913385
        },
        {
          "duration": 0.43198483333333115,
          "durationTicks": 47,
          "midi": 68,
          "name": "G#4",
          "ticks": 7344,
          "time": 67.499928,
          "velocity": 0.7637795275590551
        },
        {
          "duration": 0.43198483333333115,
          "durationTicks": 47,
          "midi": 73,
          "name": "C#5",
          "ticks": 7344,
          "time": 67.499928,
          "velocity": 0.8031496062992126
        },
        {
          "duration": 0.018382333333335055,
          "durationTicks": 2,
          "midi": 65,
          "name": "F4",
          "ticks": 7391,
          "time": 67.93191283333333,
          "velocity": 0.8976377952755905
        },
        {
          "duration": 0.009191166666667527,
          "durationTicks": 1,
          "midi": 68,
          "name": "G#4",
          "ticks": 7392,
          "time": 67.941104,
          "velocity": 0.8740157480314961
        },
        {
          "duration": 0.11029400000001033,
          "durationTicks": 12,
          "midi": 72,
          "name": "C5",
          "ticks": 7403,
          "time": 68.04220683333332,
          "velocity": 0.8188976377952756
        },
        {
          "duration": 0.22058799999999223,
          "durationTicks": 24,
          "midi": 61,
          "name": "C#4",
          "ticks": 7415,
          "time": 68.15250083333333,
          "velocity": 0.8582677165354331
        },
        {
          "duration": 0.2113968333333247,
          "durationTicks": 23,
          "midi": 73,
          "name": "C#5",
          "ticks": 7416,
          "time": 68.161692,
          "velocity": 0.9133858267716536
        },
        {
          "duration": 0.22058800000000645,
          "durationTicks": 24,
          "midi": 54,
          "name": "F#3",
          "ticks": 7439,
          "time": 68.37308883333333,
          "velocity": 0.7874015748031497
        },
        {
          "duration": 0.22058800000000645,
          "durationTicks": 24,
          "midi": 61,
          "name": "C#4",
          "ticks": 7439,
          "time": 68.37308883333333,
          "velocity": 0.8110236220472441
        },
        {
          "duration": 0.21139683333333892,
          "durationTicks": 23,
          "midi": 63,
          "name": "D#4",
          "ticks": 7440,
          "time": 68.38228,
          "velocity": 0.8976377952755905
        },
        {
          "duration": 0.21139683333333892,
          "durationTicks": 23,
          "midi": 68,
          "name": "G#4",
          "ticks": 7440,
          "time": 68.38228,
          "velocity": 0.8031496062992126
        },
        {
          "duration": 0.22058799999999223,
          "durationTicks": 24,
          "midi": 54,
          "name": "F#3",
          "ticks": 7463,
          "time": 68.59367683333333,
          "velocity": 0.8661417322834646
        },
        {
          "duration": 0.22058799999999223,
          "durationTicks": 24,
          "midi": 61,
          "name": "C#4",
          "ticks": 7463,
          "time": 68.59367683333333,
          "velocity": 0.7637795275590551
        },
        {
          "duration": 0.22058799999999223,
          "durationTicks": 24,
          "midi": 65,
          "name": "F4",
          "ticks": 7463,
          "time": 68.59367683333333,
          "velocity": 0.7874015748031497
        },
        {
          "duration": 0.2113968333333247,
          "durationTicks": 23,
          "midi": 70,
          "name": "A#4",
          "ticks": 7464,
          "time": 68.602868,
          "velocity": 0.8740157480314961
        },
        {
          "duration": 0.11029400000001033,
          "durationTicks": 12,
          "midi": 65,
          "name": "F4",
          "ticks": 7487,
          "time": 68.81426483333333,
          "velocity": 0.7480314960629921
        },
        {
          "duration": 0.11029400000001033,
          "durationTicks": 12,
          "midi": 68,
          "name": "G#4",
          "ticks": 7487,
          "time": 68.81426483333333,
          "velocity": 0.905511811023622
        },
        {
          "duration": 0.1011028333333428,
          "durationTicks": 11,
          "midi": 73,
          "name": "C#5",
          "ticks": 7488,
          "time": 68.823456,
          "velocity": 0.8740157480314961
        },
        {
          "duration": 0.009191166666667527,
          "durationTicks": 1,
          "midi": 66,
          "name": "F#4",
          "ticks": 7499,
          "time": 68.92455883333334,
          "velocity": 0.8976377952755905
        },
        {
          "duration": 0.018382333333320844,
          "durationTicks": 2,
          "midi": 65,
          "name": "F4",
          "ticks": 7511,
          "time": 69.03485283333333,
          "velocity": 0.8976377952755905
        },
        {
          "duration": 0.009191166666653316,
          "durationTicks": 1,
          "midi": 68,
          "name": "G#4",
          "ticks": 7512,
          "time": 69.044044,
          "velocity": 0.8740157480314961
        },
        {
          "duration": 0.11029399999999612,
          "durationTicks": 12,
          "midi": 57,
          "name": "A3",
          "ticks": 7523,
          "time": 69.14514683333333,
          "velocity": 0.7874015748031497
        },
        {
          "duration": 0.10110283333332859,
          "durationTicks": 11,
          "midi": 69,
          "name": "A4",
          "ticks": 7524,
          "time": 69.154338,
          "velocity": 0.84251968503937
        },
        {
          "duration": 0.4411759999999987,
          "durationTicks": 48,
          "midi": 53,
          "name": "F3",
          "ticks": 7535,
          "time": 69.25544083333332,
          "velocity": 0.7874015748031497
        },
        {
          "duration": 0.4411759999999987,
          "durationTicks": 48,
          "midi": 60,
          "name": "C4",
          "ticks": 7535,
          "time": 69.25544083333332,
          "velocity": 0.7795275590551181
        },
        {
          "duration": 0.4411759999999987,
          "durationTicks": 48,
          "midi": 63,
          "name": "D#4",
          "ticks": 7535,
          "time": 69.25544083333332,
          "velocity": 0.8976377952755905
        },
        {
          "duration": 0.43198483333331694,
          "durationTicks": 47,
          "midi": 69,
          "name": "A4",
          "ticks": 7536,
          "time": 69.264632,
          "velocity": 0.7637795275590551
        },
        {
          "duration": 0.43198483333331694,
          "durationTicks": 47,
          "midi": 72,
          "name": "C5",
          "ticks": 7536,
          "time": 69.264632,
          "velocity": 0.8267716535433071
        },
        {
          "duration": 0.018382333333335055,
          "durationTicks": 2,
          "midi": 63,
          "name": "D#4",
          "ticks": 7583,
          "time": 69.69661683333332,
          "velocity": 0.8976377952755905
        },
        {
          "duration": 0.009191166666653316,
          "durationTicks": 1,
          "midi": 69,
          "name": "A4",
          "ticks": 7584,
          "time": 69.705808,
          "velocity": 0.8740157480314961
        },
        {
          "duration": 0.009191166666667527,
          "durationTicks": 1,
          "midi": 72,
          "name": "C5",
          "ticks": 7595,
          "time": 69.80691083333333,
          "velocity": 0.8976377952755905
        },
        {
          "duration": 0.4136024999999961,
          "durationTicks": 45,
          "midi": 63,
          "name": "D#4",
          "ticks": 7607,
          "time": 69.91720483333333,
          "velocity": 0.84251968503937
        },
        {
          "duration": 0.4136024999999961,
          "durationTicks": 45,
          "midi": 69,
          "name": "A4",
          "ticks": 7607,
          "time": 69.91720483333333,
          "velocity": 0.8661417322834646
        },
        {
          "duration": 0.40441133333332857,
          "durationTicks": 44,
          "midi": 72,
          "name": "C5",
          "ticks": 7608,
          "time": 69.926396,
          "velocity": 0.7795275590551181
        },
        {
          "duration": 0.40441133333332857,
          "durationTicks": 44,
          "midi": 75,
          "name": "D#5",
          "ticks": 7608,
          "time": 69.926396,
          "velocity": 0.9212598425196851
        },
        {
          "duration": 0.22058800000000645,
          "durationTicks": 24,
          "midi": 60,
          "name": "C4",
          "ticks": 7655,
          "time": 70.35838083333333,
          "velocity": 0.8818897637795275
        },
        {
          "duration": 0.22058800000000645,
          "durationTicks": 24,
          "midi": 66,
          "name": "F#4",
          "ticks": 7655,
          "time": 70.35838083333333,
          "velocity": 0.7637795275590551
        },
        {
          "duration": 0.22058800000000645,
          "durationTicks": 24,
          "midi": 69,
          "name": "A4",
          "ticks": 7655,
          "time": 70.35838083333333,
          "velocity": 0.7874015748031497
        },
        {
          "duration": 0.21139683333333892,
          "durationTicks": 23,
          "midi": 72,
          "name": "C5",
          "ticks": 7656,
          "time": 70.367572,
          "velocity": 0.8031496062992126
        },
        {
          "duration": 0.018382333333320844,
          "durationTicks": 2,
          "midi": 60,
          "name": "C4",
          "ticks": 7679,
          "time": 70.57896883333333,
          "velocity": 0.905511811023622
        },
        {
          "duration": 0.009191166666667527,
          "durationTicks": 1,
          "midi": 66,
          "name": "F#4",
          "ticks": 7679,
          "time": 70.57896883333333,
          "velocity": 0.8740157480314961
        },
        {
          "duration": 0.045955833333323426,
          "durationTicks": 5,
          "midi": 69,
          "name": "A4",
          "ticks": 7680,
          "time": 70.58816,
          "velocity": 0.7952755905511811
        },
        {
          "duration": 0.009191166666667527,
          "durationTicks": 1,
          "midi": 69,
          "name": "A4",
          "ticks": 7691,
          "time": 70.68926283333333,
          "velocity": 0.8976377952755905
        },
        {
          "duration": 0.009191166666667527,
          "durationTicks": 1,
          "midi": 60,
          "name": "C4",
          "ticks": 7703,
          "time": 70.79955683333333,
          "velocity": 0.8740157480314961
        },
        {
          "duration": 0.009191166666667527,
          "durationTicks": 1,
          "midi": 63,
          "name": "D#4",
          "ticks": 7703,
          "time": 70.79955683333333,
          "velocity": 0.7952755905511811
        },
        {
          "duration": 0.018382333333335055,
          "durationTicks": 2,
          "midi": 68,
          "name": "G#4",
          "ticks": 7704,
          "time": 70.808748,
          "velocity": 0.905511811023622
        },
        {
          "duration": 0.018382333333335055,
          "durationTicks": 2,
          "midi": 68,
          "name": "G#4",
          "ticks": 7715,
          "time": 70.90985083333332,
          "velocity": 0.8976377952755905
        },
        {
          "duration": 0.22058799999999223,
          "durationTicks": 24,
          "midi": 58,
          "name": "A#3",
          "ticks": 7727,
          "time": 71.02014483333333,
          "velocity": 0.8110236220472441
        },
        {
          "duration": 0.22058799999999223,
          "durationTicks": 24,
          "midi": 63,
          "name": "D#4",
          "ticks": 7727,
          "time": 71.02014483333333,
          "velocity": 0.8740157480314961
        },
        {
          "duration": 0.22058799999999223,
          "durationTicks": 24,
          "midi": 68,
          "name": "G#4",
          "ticks": 7727,
          "time": 71.02014483333333,
          "velocity": 0.8661417322834646
        },
        {
          "duration": 0.2113968333333247,
          "durationTicks": 23,
          "midi": 73,
          "name": "C#5",
          "ticks": 7728,
          "time": 71.029336,
          "velocity": 0.8267716535433071
        },
        {
          "duration": 0.2113968333333247,
          "durationTicks": 23,
          "midi": 75,
          "name": "D#5",
          "ticks": 7728,
          "time": 71.029336,
          "velocity": 0.9133858267716536
        },
        {
          "duration": 0.03676466666667011,
          "durationTicks": 4,
          "midi": 58,
          "name": "A#3",
          "ticks": 7751,
          "time": 71.24073283333333,
          "velocity": 0.8031496062992126
        },
        {
          "duration": 0.027573500000002582,
          "durationTicks": 3,
          "midi": 63,
          "name": "D#4",
          "ticks": 7752,
          "time": 71.249924,
          "velocity": 0.9133858267716536
        },
        {
          "duration": 0.11029399999999612,
          "durationTicks": 12,
          "midi": 75,
          "name": "D#5",
          "ticks": 7763,
          "time": 71.35102683333334,
          "velocity": 0.9133858267716536
        },
        {
          "duration": 0.11029399999999612,
          "durationTicks": 12,
          "midi": 73,
          "name": "C#5",
          "ticks": 7763,
          "time": 71.35102683333334,
          "velocity": 0.8661417322834646
        },
        {
          "duration": 0.10110283333332859,
          "durationTicks": 11,
          "midi": 68,
          "name": "G#4",
          "ticks": 7764,
          "time": 71.360218,
          "velocity": 0.8661417322834646
        },
        {
          "duration": 0.10110283333332859,
          "durationTicks": 11,
          "midi": 63,
          "name": "D#4",
          "ticks": 7764,
          "time": 71.360218,
          "velocity": 0.8740157480314961
        },
        {
          "duration": 0.027573500000002582,
          "durationTicks": 3,
          "midi": 63,
          "name": "D#4",
          "ticks": 7775,
          "time": 71.46132083333333,
          "velocity": 0.905511811023622
        },
        {
          "duration": 0.027573500000002582,
          "durationTicks": 3,
          "midi": 68,
          "name": "G#4",
          "ticks": 7776,
          "time": 71.470512,
          "velocity": 0.8031496062992126
        },
        {
          "duration": 0.018382333333335055,
          "durationTicks": 2,
          "midi": 63,
          "name": "D#4",
          "ticks": 7787,
          "time": 71.57161483333333,
          "velocity": 0.9133858267716536
        },
        {
          "duration": 0.22058800000000645,
          "durationTicks": 24,
          "midi": 63,
          "name": "D#4",
          "ticks": 7799,
          "time": 71.68190883333332,
          "velocity": 0.8740157480314961
        },
        {
          "duration": 0.22058800000000645,
          "durationTicks": 24,
          "midi": 68,
          "name": "G#4",
          "ticks": 7799,
          "time": 71.68190883333332,
          "velocity": 0.8661417322834646
        },
        {
          "duration": 0.2113968333333247,
          "durationTicks": 23,
          "midi": 73,
          "name": "C#5",
          "ticks": 7800,
          "time": 71.6911,
          "velocity": 0.8267716535433071
        },
        {
          "duration": 0.2113968333333247,
          "durationTicks": 23,
          "midi": 75,
          "name": "D#5",
          "ticks": 7800,
          "time": 71.6911,
          "velocity": 0.9133858267716536
        },
        {
          "duration": 0.027573500000002582,
          "durationTicks": 3,
          "midi": 58,
          "name": "A#3",
          "ticks": 7823,
          "time": 71.90249683333333,
          "velocity": 0.8031496062992126
        },
        {
          "duration": 0.027573500000002582,
          "durationTicks": 3,
          "midi": 63,
          "name": "D#4",
          "ticks": 7824,
          "time": 71.911688,
          "velocity": 0.9133858267716536
        },
        {
          "duration": 0.11029399999999612,
          "durationTicks": 12,
          "midi": 75,
          "name": "D#5",
          "ticks": 7835,
          "time": 72.01279083333333,
          "velocity": 0.9133858267716536
        },
        {
          "duration": 0.11029399999999612,
          "durationTicks": 12,
          "midi": 72,
          "name": "C5",
          "ticks": 7835,
          "time": 72.01279083333333,
          "velocity": 0.8661417322834646
        },
        {
          "duration": 0.10110283333332859,
          "durationTicks": 11,
          "midi": 68,
          "name": "G#4",
          "ticks": 7836,
          "time": 72.021982,
          "velocity": 0.8661417322834646
        },
        {
          "duration": 0.10110283333332859,
          "durationTicks": 11,
          "midi": 63,
          "name": "D#4",
          "ticks": 7836,
          "time": 72.021982,
          "velocity": 0.8740157480314961
        },
        {
          "duration": 0.027573500000002582,
          "durationTicks": 3,
          "midi": 63,
          "name": "D#4",
          "ticks": 7847,
          "time": 72.12308483333332,
          "velocity": 0.905511811023622
        },
        {
          "duration": 0.018382333333320844,
          "durationTicks": 2,
          "midi": 68,
          "name": "G#4",
          "ticks": 7848,
          "time": 72.132276,
          "velocity": 0.8031496062992126
        },
        {
          "duration": 0.018382333333320844,
          "durationTicks": 2,
          "midi": 63,
          "name": "D#4",
          "ticks": 7859,
          "time": 72.23337883333333,
          "velocity": 0.9133858267716536
        },
        {
          "duration": 0.22058800000000645,
          "durationTicks": 24,
          "midi": 63,
          "name": "D#4",
          "ticks": 7871,
          "time": 72.34367283333333,
          "velocity": 0.8740157480314961
        },
        {
          "duration": 0.22058800000000645,
          "durationTicks": 24,
          "midi": 68,
          "name": "G#4",
          "ticks": 7871,
          "time": 72.34367283333333,
          "velocity": 0.8661417322834646
        },
        {
          "duration": 0.21139683333333892,
          "durationTicks": 23,
          "midi": 72,
          "name": "C5",
          "ticks": 7872,
          "time": 72.352864,
          "velocity": 0.8267716535433071
        },
        {
          "duration": 0.21139683333333892,
          "durationTicks": 23,
          "midi": 75,
          "name": "D#5",
          "ticks": 7872,
          "time": 72.352864,
          "velocity": 0.9133858267716536
        },
        {
          "duration": 0.02757349999998837,
          "durationTicks": 3,
          "midi": 63,
          "name": "D#4",
          "ticks": 7895,
          "time": 72.56426083333334,
          "velocity": 0.905511811023622
        },
        {
          "duration": 0.018382333333320844,
          "durationTicks": 2,
          "midi": 68,
          "name": "G#4",
          "ticks": 7896,
          "time": 72.573452,
          "velocity": 0.8031496062992126
        },
        {
          "duration": 0.018382333333320844,
          "durationTicks": 2,
          "midi": 63,
          "name": "D#4",
          "ticks": 7907,
          "time": 72.67455483333333,
          "velocity": 0.9133858267716536
        },
        {
          "duration": 0.22058800000000645,
          "durationTicks": 24,
          "midi": 61,
          "name": "C#4",
          "ticks": 7919,
          "time": 72.78484883333333,
          "velocity": 0.8740157480314961
        },
        {
          "duration": 0.22058800000000645,
          "durationTicks": 24,
          "midi": 65,
          "name": "F4",
          "ticks": 7919,
          "time": 72.78484883333333,
          "velocity": 0.8661417322834646
        },
        {
          "duration": 0.21139683333333892,
          "durationTicks": 23,
          "midi": 68,
          "name": "G#4",
          "ticks": 7920,
          "time": 72.79404,
          "velocity": 0.8267716535433071
        },
        {
          "duration": 0.21139683333333892,
          "durationTicks": 23,
          "midi": 73,
          "name": "C#5",
          "ticks": 7920,
          "time": 72.79404,
          "velocity": 0.9133858267716536
        },
        {
          "duration": 0.02757349999998837,
          "durationTicks": 3,
          "midi": 61,
          "name": "C#4",
          "ticks": 7943,
          "time": 73.00543683333333,
          "velocity": 0.8031496062992126
        },
        {
          "duration": 0.018382333333320844,
          "durationTicks": 2,
          "midi": 65,
          "name": "F4",
          "ticks": 7944,
          "time": 73.014628,
          "velocity": 0.9133858267716536
        },
        {
          "duration": 0.11029399999999612,
          "durationTicks": 12,
          "midi": 73,
          "name": "C#5",
          "ticks": 7955,
          "time": 73.11573083333333,
          "velocity": 0.8188976377952756
        },
        {
          "duration": 0.11029399999999612,
          "durationTicks": 12,
          "midi": 68,
          "name": "G#4",
          "ticks": 7955,
          "time": 73.11573083333333,
          "velocity": 0.905511811023622
        },
        {
          "duration": 0.10110283333332859,
          "durationTicks": 11,
          "midi": 65,
          "name": "F4",
          "ticks": 7956,
          "time": 73.124922,
          "velocity": 0.84251968503937
        },
        {
          "duration": 0.10110283333332859,
          "durationTicks": 11,
          "midi": 61,
          "name": "C#4",
          "ticks": 7956,
          "time": 73.124922,
          "velocity": 0.8503937007874016
        },
        {
          "duration": 0.027573500000002582,
          "durationTicks": 3,
          "midi": 65,
          "name": "F4",
          "ticks": 7967,
          "time": 73.22602483333333,
          "velocity": 0.905511811023622
        },
        {
          "duration": 0.018382333333335055,
          "durationTicks": 2,
          "midi": 68,
          "name": "G#4",
          "ticks": 7968,
          "time": 73.235216,
          "velocity": 0.8031496062992126
        },
        {
          "duration": 0.018382333333335055,
          "durationTicks": 2,
          "midi": 72,
          "name": "C5",
          "ticks": 7979,
          "time": 73.33631883333332,
          "velocity": 0.9133858267716536
        },
        {
          "duration": 0.22058799999999223,
          "durationTicks": 24,
          "midi": 61,
          "name": "C#4",
          "ticks": 7991,
          "time": 73.44661283333333,
          "velocity": 0.8740157480314961
        },
        {
          "duration": 0.22058799999999223,
          "durationTicks": 24,
          "midi": 65,
          "name": "F4",
          "ticks": 7991,
          "time": 73.44661283333333,
          "velocity": 0.8661417322834646
        },
        {
          "duration": 0.2113968333333247,
          "durationTicks": 23,
          "midi": 68,
          "name": "G#4",
          "ticks": 7992,
          "time": 73.455804,
          "velocity": 0.8740157480314961
        },
        {
          "duration": 0.2113968333333247,
          "durationTicks": 23,
          "midi": 72,
          "name": "C5",
          "ticks": 7992,
          "time": 73.455804,
          "velocity": 0.937007874015748
        },
        {
          "duration": 0.027573500000002582,
          "durationTicks": 3,
          "midi": 68,
          "name": "G#4",
          "ticks": 8015,
          "time": 73.66720083333333,
          "velocity": 0.905511811023622
        },
        {
          "duration": 0.018382333333320844,
          "durationTicks": 2,
          "midi": 65,
          "name": "F4",
          "ticks": 8016,
          "time": 73.676392,
          "velocity": 0.8031496062992126
        },
        {
          "duration": 0.11029399999999612,
          "durationTicks": 12,
          "midi": 68,
          "name": "G#4",
          "ticks": 8027,
          "time": 73.77749483333334,
          "velocity": 0.905511811023622
        },
        {
          "duration": 0.10110283333332859,
          "durationTicks": 11,
          "midi": 65,
          "name": "F4",
          "ticks": 8027,
          "time": 73.77749483333334,
          "velocity": 0.8740157480314961
        },
        {
          "duration": 0.10110283333332859,
          "durationTicks": 11,
          "midi": 61,
          "name": "C#4",
          "ticks": 8028,
          "time": 73.786686,
          "velocity": 0.8818897637795275
        },
        {
          "duration": 0.10110283333332859,
          "durationTicks": 11,
          "midi": 56,
          "name": "G#3",
          "ticks": 8028,
          "time": 73.786686,
          "velocity": 0.8346456692913385
        },
        {
          "duration": 0.018382333333320844,
          "durationTicks": 2,
          "midi": 61,
          "name": "C#4",
          "ticks": 8039,
          "time": 73.88778883333333,
          "velocity": 0.905511811023622
        },
        {
          "duration": 0.009191166666653316,
          "durationTicks": 1,
          "midi": 65,
          "name": "F4",
          "ticks": 8040,
          "time": 73.89698,
          "velocity": 0.8031496062992126
        },
        {
          "duration": 0.018382333333335055,
          "durationTicks": 2,
          "midi": 68,
          "name": "G#4",
          "ticks": 8051,
          "time": 73.99808283333333,
          "velocity": 0.9133858267716536
        },
        {
          "duration": 0.22058800000000645,
          "durationTicks": 24,
          "midi": 56,
          "name": "G#3",
          "ticks": 8063,
          "time": 74.10837683333332,
          "velocity": 0.8740157480314961
        },
        {
          "duration": 0.22058800000000645,
          "durationTicks": 24,
          "midi": 61,
          "name": "C#4",
          "ticks": 8063,
          "time": 74.10837683333332,
          "velocity": 0.8582677165354331
        },
        {
          "duration": 0.2113968333333247,
          "durationTicks": 23,
          "midi": 65,
          "name": "F4",
          "ticks": 8064,
          "time": 74.117568,
          "velocity": 0.8661417322834646
        },
        {
          "duration": 0.2113968333333247,
          "durationTicks": 23,
          "midi": 68,
          "name": "G#4",
          "ticks": 8064,
          "time": 74.117568,
          "velocity": 0.905511811023622
        },
        {
          "duration": 0.018382333333335055,
          "durationTicks": 2,
          "midi": 61,
          "name": "C#4",
          "ticks": 8087,
          "time": 74.32896483333333,
          "velocity": 0.905511811023622
        },
        {
          "duration": 0.009191166666667527,
          "durationTicks": 1,
          "midi": 65,
          "name": "F4",
          "ticks": 8087,
          "time": 74.32896483333333,
          "velocity": 0.8031496062992126
        },
        {
          "duration": 0.009191166666667527,
          "durationTicks": 1,
          "midi": 68,
          "name": "G#4",
          "ticks": 8088,
          "time": 74.338156,
          "velocity": 0.8031496062992126
        },
        {
          "duration": 0.018382333333335055,
          "durationTicks": 2,
          "midi": 68,
          "name": "G#4",
          "ticks": 8099,
          "time": 74.43925883333333,
          "velocity": 0.9133858267716536
        },
        {
          "duration": 0.009191166666667527,
          "durationTicks": 1,
          "midi": 65,
          "name": "F4",
          "ticks": 8100,
          "time": 74.44845,
          "velocity": 0.8740157480314961
        },
        {
          "duration": 0.4411760000000129,
          "durationTicks": 48,
          "midi": 54,
          "name": "F#3",
          "ticks": 8111,
          "time": 74.54955283333332,
          "velocity": 0.7874015748031497
        },
        {
          "duration": 0.4411760000000129,
          "durationTicks": 48,
          "midi": 61,
          "name": "C#4",
          "ticks": 8111,
          "time": 74.54955283333332,
          "velocity": 0.7795275590551181
        },
        {
          "duration": 0.4411760000000129,
          "durationTicks": 48,
          "midi": 65,
          "name": "F4",
          "ticks": 8111,
          "time": 74.54955283333332,
          "velocity": 0.8976377952755905
        },
        {
          "duration": 0.43198483333333115,
          "durationTicks": 47,
          "midi": 68,
          "name": "G#4",
          "ticks": 8112,
          "time": 74.558744,
          "velocity": 0.8110236220472441
        },
        {
          "duration": 0.43198483333333115,
          "durationTicks": 47,
          "midi": 75,
          "name": "D#5",
          "ticks": 8112,
          "time": 74.558744,
          "velocity": 0.9133858267716536
        },
        {
          "duration": 0.22058799999999223,
          "durationTicks": 24,
          "midi": 68,
          "name": "G#4",
          "ticks": 8159,
          "time": 74.99072883333334,
          "velocity": 0.8661417322834646
        },
        {
          "duration": 0.22058799999999223,
          "durationTicks": 24,
          "midi": 73,
          "name": "C#5",
          "ticks": 8159,
          "time": 74.99072883333334,
          "velocity": 0.7795275590551181
        },
        {
          "duration": 0.2113968333333247,
          "durationTicks": 23,
          "midi": 77,
          "name": "F5",
          "ticks": 8160,
          "time": 74.99992,
          "velocity": 0.8740157480314961
        },
        {
          "duration": 0.018382333333335055,
          "durationTicks": 2,
          "midi": 68,
          "name": "G#4",
          "ticks": 8183,
          "time": 75.21131683333333,
          "velocity": 0.8976377952755905
        },
        {
          "duration": 0.009191166666667527,
          "durationTicks": 1,
          "midi": 73,
          "name": "C#5",
          "ticks": 8184,
          "time": 75.220508,
          "velocity": 0.8740157480314961
        },
        {
          "duration": 0.009191166666681738,
          "durationTicks": 1,
          "midi": 63,
          "name": "D#4",
          "ticks": 8195,
          "time": 75.32161083333332,
          "velocity": 0.8976377952755905
        },
        {
          "duration": 0.22058799999999223,
          "durationTicks": 24,
          "midi": 54,
          "name": "F#3",
          "ticks": 8207,
          "time": 75.43190483333333,
          "velocity": 0.7874015748031497
        },
        {
          "duration": 0.22058799999999223,
          "durationTicks": 24,
          "midi": 61,
          "name": "C#4",
          "ticks": 8207,
          "time": 75.43190483333333,
          "velocity": 0.8110236220472441
        },
        {
          "duration": 0.2113968333333247,
          "durationTicks": 23,
          "midi": 65,
          "name": "F4",
          "ticks": 8208,
          "time": 75.441096,
          "velocity": 0.8110236220472441
        },
        {
          "duration": 0.2113968333333247,
          "durationTicks": 23,
          "midi": 68,
          "name": "G#4",
          "ticks": 8208,
          "time": 75.441096,
          "velocity": 0.8740157480314961
        },
        {
          "duration": 0.2113968333333247,
          "durationTicks": 23,
          "midi": 75,
          "name": "D#5",
          "ticks": 8208,
          "time": 75.441096,
          "velocity": 0.905511811023622
        },
        {
          "duration": 0.22058800000000645,
          "durationTicks": 24,
          "midi": 65,
          "name": "F4",
          "ticks": 8231,
          "time": 75.65249283333333,
          "velocity": 0.9133858267716536
        },
        {
          "duration": 0.22058800000000645,
          "durationTicks": 24,
          "midi": 68,
          "name": "G#4",
          "ticks": 8231,
          "time": 75.65249283333333,
          "velocity": 0.7637795275590551
        },
        {
          "duration": 0.22058800000000645,
          "durationTicks": 24,
          "midi": 73,
          "name": "C#5",
          "ticks": 8231,
          "time": 75.65249283333333,
          "velocity": 0.7874015748031497
        },
        {
          "duration": 0.21139683333333892,
          "durationTicks": 23,
          "midi": 77,
          "name": "F5",
          "ticks": 8232,
          "time": 75.661684,
          "velocity": 0.8740157480314961
        },
        {
          "duration": 0.018382333333320844,
          "durationTicks": 2,
          "midi": 68,
          "name": "G#4",
          "ticks": 8255,
          "time": 75.87308083333333,
          "velocity": 0.905511811023622
        },
        {
          "duration": 0.009191166666653316,
          "durationTicks": 1,
          "midi": 73,
          "name": "C#5",
          "ticks": 8256,
          "time": 75.882272,
          "velocity": 0.8740157480314961
        },
        {
          "duration": 0.009191166666667527,
          "durationTicks": 1,
          "midi": 66,
          "name": "F#4",
          "ticks": 8267,
          "time": 75.98337483333333,
          "velocity": 0.8976377952755905
        },
        {
          "duration": 0.4411759999999987,
          "durationTicks": 48,
          "midi": 61,
          "name": "C#4",
          "ticks": 8279,
          "time": 76.09366883333333,
          "velocity": 0.8582677165354331
        },
        {
          "duration": 0.4411759999999987,
          "durationTicks": 48,
          "midi": 65,
          "name": "F4",
          "ticks": 8279,
          "time": 76.09366883333333,
          "velocity": 0.8976377952755905
        },
        {
          "duration": 0.43198483333331694,
          "durationTicks": 47,
          "midi": 68,
          "name": "G#4",
          "ticks": 8280,
          "time": 76.10286,
          "velocity": 0.7637795275590551
        },
        {
          "duration": 0.43198483333331694,
          "durationTicks": 47,
          "midi": 75,
          "name": "D#5",
          "ticks": 8280,
          "time": 76.10286,
          "velocity": 0.7795275590551181
        },
        {
          "duration": 0.22058800000000645,
          "durationTicks": 24,
          "midi": 60,
          "name": "C4",
          "ticks": 8327,
          "time": 76.53484483333332,
          "velocity": 0.7401574803149606
        },
        {
          "duration": 0.22058800000000645,
          "durationTicks": 24,
          "midi": 65,
          "name": "F4",
          "ticks": 8327,
          "time": 76.53484483333332,
          "velocity": 0.8976377952755905
        },
        {
          "duration": 0.2113968333333247,
          "durationTicks": 23,
          "midi": 68,
          "name": "G#4",
          "ticks": 8328,
          "time": 76.544036,
          "velocity": 0.7637795275590551
        },
        {
          "duration": 0.2113968333333247,
          "durationTicks": 23,
          "midi": 75,
          "name": "D#5",
          "ticks": 8328,
          "time": 76.544036,
          "velocity": 0.7952755905511811
        },
        {
          "duration": 0.22058799999999223,
          "durationTicks": 24,
          "midi": 68,
          "name": "G#4",
          "ticks": 8351,
          "time": 76.75543283333333,
          "velocity": 0.8110236220472441
        },
        {
          "duration": 0.22058799999999223,
          "durationTicks": 24,
          "midi": 72,
          "name": "C5",
          "ticks": 8351,
          "time": 76.75543283333333,
          "velocity": 0.7559055118110236
        },
        {
          "duration": 0.2113968333333247,
          "durationTicks": 23,
          "midi": 75,
          "name": "D#5",
          "ticks": 8352,
          "time": 76.764624,
          "velocity": 0.7637795275590551
        },
        {
          "duration": 0.2113968333333247,
          "durationTicks": 23,
          "midi": 80,
          "name": "G#5",
          "ticks": 8352,
          "time": 76.764624,
          "velocity": 0.7401574803149606
        },
        {
          "duration": 0.018382333333335055,
          "durationTicks": 2,
          "midi": 61,
          "name": "C#4",
          "ticks": 8375,
          "time": 76.97602083333332,
          "velocity": 0.9133858267716536
        },
        {
          "duration": 0.009191166666653316,
          "durationTicks": 1,
          "midi": 65,
          "name": "F4",
          "ticks": 8376,
          "time": 76.985212,
          "velocity": 0.7716535433070866
        },
        {
          "duration": 0.009191166666667527,
          "durationTicks": 1,
          "midi": 61,
          "name": "C#4",
          "ticks": 8387,
          "time": 77.08631483333333,
          "velocity": 0.8976377952755905
        },
        {
          "duration": 0.22058800000000645,
          "durationTicks": 24,
          "midi": 56,
          "name": "G#3",
          "ticks": 8399,
          "time": 77.19660883333333,
          "velocity": 0.7637795275590551
        },
        {
          "duration": 0.22058800000000645,
          "durationTicks": 24,
          "midi": 60,
          "name": "C4",
          "ticks": 8399,
          "time": 77.19660883333333,
          "velocity": 0.7401574803149606
        },
        {
          "duration": 0.22058800000000645,
          "durationTicks": 24,
          "midi": 65,
          "name": "F4",
          "ticks": 8399,
          "time": 77.19660883333333,
          "velocity": 0.8267716535433071
        },
        {
          "duration": 0.21139683333333892,
          "durationTicks": 23,
          "midi": 68,
          "name": "G#4",
          "ticks": 8400,
          "time": 77.2058,
          "velocity": 0.7952755905511811
        },
        {
          "duration": 0.21139683333333892,
          "durationTicks": 23,
          "midi": 75,
          "name": "D#5",
          "ticks": 8400,
          "time": 77.2058,
          "velocity": 0.905511811023622
        },
        {
          "duration": 0.2113968333333247,
          "durationTicks": 23,
          "midi": 65,
          "name": "F4",
          "ticks": 8423,
          "time": 77.41719683333334,
          "velocity": 0.8661417322834646
        },
        {
          "duration": 0.2113968333333247,
          "durationTicks": 23,
          "midi": 68,
          "name": "G#4",
          "ticks": 8423,
          "time": 77.41719683333334,
          "velocity": 0.889763779527559
        },
        {
          "duration": 0.22058799999999223,
          "durationTicks": 24,
          "midi": 75,
          "name": "D#5",
          "ticks": 8424,
          "time": 77.426388,
          "velocity": 0.8503937007874016
        },
        {
          "duration": 0.15624983333333375,
          "durationTicks": 17,
          "midi": 65,
          "name": "F4",
          "ticks": 8447,
          "time": 77.63778483333333,
          "velocity": 0.9133858267716536
        },
        {
          "duration": 0.018382333333320844,
          "durationTicks": 2,
          "midi": 63,
          "name": "D#4",
          "ticks": 8471,
          "time": 77.85837283333333,
          "velocity": 0.9133858267716536
        },
        {
          "duration": 0.009191166666653316,
          "durationTicks": 1,
          "midi": 68,
          "name": "G#4",
          "ticks": 8472,
          "time": 77.867564,
          "velocity": 0.7716535433070866
        },
        {
          "duration": 0.009191166666667527,
          "durationTicks": 1,
          "midi": 63,
          "name": "D#4",
          "ticks": 8483,
          "time": 77.96866683333333,
          "velocity": 0.8976377952755905
        },
        {
          "duration": 0.4411759999999987,
          "durationTicks": 48,
          "midi": 56,
          "name": "G#3",
          "ticks": 8495,
          "time": 78.07896083333333,
          "velocity": 0.7637795275590551
        },
        {
          "duration": 0.4411759999999987,
          "durationTicks": 48,
          "midi": 63,
          "name": "D#4",
          "ticks": 8495,
          "time": 78.07896083333333,
          "velocity": 0.9212598425196851
        },
        {
          "duration": 0.4411759999999987,
          "durationTicks": 48,
          "midi": 68,
          "name": "G#4",
          "ticks": 8495,
          "time": 78.07896083333333,
          "velocity": 0.7874015748031497
        },
        {
          "duration": 0.43198483333333115,
          "durationTicks": 47,
          "midi": 72,
          "name": "C5",
          "ticks": 8496,
          "time": 78.088152,
          "velocity": 0.7637795275590551
        },
        {
          "duration": 0.43198483333333115,
          "durationTicks": 47,
          "midi": 75,
          "name": "D#5",
          "ticks": 8496,
          "time": 78.088152,
          "velocity": 0.7401574803149606
        },
        {
          "duration": 0.22058800000000645,
          "durationTicks": 24,
          "midi": 56,
          "name": "G#3",
          "ticks": 8543,
          "time": 78.52013683333332,
          "velocity": 0.7086614173228346
        },
        {
          "duration": 0.22058800000000645,
          "durationTicks": 24,
          "midi": 63,
          "name": "D#4",
          "ticks": 8543,
          "time": 78.52013683333332,
          "velocity": 0.7952755905511811
        },
        {
          "duration": 0.22058800000000645,
          "durationTicks": 24,
          "midi": 68,
          "name": "G#4",
          "ticks": 8543,
          "time": 78.52013683333332,
          "velocity": 0.8976377952755905
        },
        {
          "duration": 0.2113968333333247,
          "durationTicks": 23,
          "midi": 72,
          "name": "C5",
          "ticks": 8544,
          "time": 78.529328,
          "velocity": 0.7637795275590551
        },
        {
          "duration": 0.2113968333333247,
          "durationTicks": 23,
          "midi": 75,
          "name": "D#5",
          "ticks": 8544,
          "time": 78.529328,
          "velocity": 0.6692913385826772
        },
        {
          "duration": 0.018382333333320844,
          "durationTicks": 2,
          "midi": 56,
          "name": "G#3",
          "ticks": 8567,
          "time": 78.74072483333333,
          "velocity": 0.7795275590551181
        },
        {
          "duration": 0.009191166666653316,
          "durationTicks": 1,
          "midi": 63,
          "name": "D#4",
          "ticks": 8568,
          "time": 78.749916,
          "velocity": 0.889763779527559
        },
        {
          "duration": 0.11029399999999612,
          "durationTicks": 12,
          "midi": 68,
          "name": "G#4",
          "ticks": 8579,
          "time": 78.85101883333333,
          "velocity": 0.8976377952755905
        },
        {
          "duration": 0.22058800000000645,
          "durationTicks": 24,
          "midi": 56,
          "name": "G#3",
          "ticks": 8591,
          "time": 78.96131283333332,
          "velocity": 0.84251968503937
        },
        {
          "duration": 0.22058800000000645,
          "durationTicks": 24,
          "midi": 63,
          "name": "D#4",
          "ticks": 8591,
          "time": 78.96131283333332,
          "velocity": 0.8661417322834646
        },
        {
          "duration": 0.2113968333333247,
          "durationTicks": 23,
          "midi": 68,
          "name": "G#4",
          "ticks": 8592,
          "time": 78.970504,
          "velocity": 0.9212598425196851
        },
        {
          "duration": 0.2113968333333247,
          "durationTicks": 23,
          "midi": 72,
          "name": "C5",
          "ticks": 8592,
          "time": 78.970504,
          "velocity": 0.7637795275590551
        },
        {
          "duration": 0.2113968333333247,
          "durationTicks": 23,
          "midi": 75,
          "name": "D#5",
          "ticks": 8592,
          "time": 78.970504,
          "velocity": 0.7480314960629921
        },
        {
          "duration": 0.22058799999999223,
          "durationTicks": 24,
          "midi": 56,
          "name": "G#3",
          "ticks": 8615,
          "time": 79.18190083333333,
          "velocity": 0.7322834645669292
        },
        {
          "duration": 0.22058799999999223,
          "durationTicks": 24,
          "midi": 63,
          "name": "D#4",
          "ticks": 8615,
          "time": 79.18190083333333,
          "velocity": 0.905511811023622
        },
        {
          "duration": 0.22058799999999223,
          "durationTicks": 24,
          "midi": 68,
          "name": "G#4",
          "ticks": 8615,
          "time": 79.18190083333333,
          "velocity": 0.7952755905511811
        },
        {
          "duration": 0.2113968333333247,
          "durationTicks": 23,
          "midi": 72,
          "name": "C5",
          "ticks": 8616,
          "time": 79.191092,
          "velocity": 0.7480314960629921
        },
        {
          "duration": 0.018382333333335055,
          "durationTicks": 2,
          "midi": 56,
          "name": "G#3",
          "ticks": 8639,
          "time": 79.40248883333332,
          "velocity": 0.7795275590551181
        },
        {
          "duration": 0.009191166666653316,
          "durationTicks": 1,
          "midi": 63,
          "name": "D#4",
          "ticks": 8640,
          "time": 79.41168,
          "velocity": 0.889763779527559
        },
        {
          "duration": 0.11029399999999612,
          "durationTicks": 12,
          "midi": 68,
          "name": "G#4",
          "ticks": 8651,
          "time": 79.51278283333333,
          "velocity": 0.9212598425196851
        },
        {
          "duration": 0.4411759999999987,
          "durationTicks": 48,
          "midi": 56,
          "name": "G#3",
          "ticks": 8663,
          "time": 79.62307683333333,
          "velocity": 0.6850393700787402
        },
        {
          "duration": 0.4411759999999987,
          "durationTicks": 48,
          "midi": 63,
          "name": "D#4",
          "ticks": 8663,
          "time": 79.62307683333333,
          "velocity": 0.889763779527559
        },
        {
          "duration": 0.4411759999999987,
          "durationTicks": 48,
          "midi": 68,
          "name": "G#4",
          "ticks": 8663,
          "time": 79.62307683333333,
          "velocity": 0.9212598425196851
        },
        {
          "duration": 0.43198483333333115,
          "durationTicks": 47,
          "midi": 72,
          "name": "C5",
          "ticks": 8664,
          "time": 79.632268,
          "velocity": 0.7795275590551181
        },
        {
          "duration": 0.43198483333333115,
          "durationTicks": 47,
          "midi": 75,
          "name": "D#5",
          "ticks": 8664,
          "time": 79.632268,
          "velocity": 0.84251968503937
        },
        {
          "duration": 0.11029399999999612,
          "durationTicks": 12,
          "midi": 63,
          "name": "D#4",
          "ticks": 8711,
          "time": 80.06425283333333,
          "velocity": 0.889763779527559
        },
        {
          "duration": 0.11029400000001033,
          "durationTicks": 12,
          "midi": 75,
          "name": "D#5",
          "ticks": 8723,
          "time": 80.17454683333332,
          "velocity": 0.7165354330708661
        },
        {
          "duration": 0.11029400000001033,
          "durationTicks": 12,
          "midi": 68,
          "name": "G#4",
          "ticks": 8723,
          "time": 80.17454683333332,
          "velocity": 0.9212598425196851
        },
        {
          "duration": 0.11948516666666364,
          "durationTicks": 13,
          "midi": 72,
          "name": "C5",
          "ticks": 8735,
          "time": 80.28484083333333,
          "velocity": 0.968503937007874
        },
        {
          "duration": 0.22058800000000645,
          "durationTicks": 24,
          "midi": 68,
          "name": "G#4",
          "ticks": 8759,
          "time": 80.50542883333333,
          "velocity": 0.889763779527559
        },
        {
          "duration": 0.22058800000000645,
          "durationTicks": 24,
          "midi": 74,
          "name": "D5",
          "ticks": 8759,
          "time": 80.50542883333333,
          "velocity": 0.7716535433070866
        },
        {
          "duration": 0.21139683333333892,
          "durationTicks": 23,
          "midi": 77,
          "name": "F5",
          "ticks": 8760,
          "time": 80.51462,
          "velocity": 0.7952755905511811
        },
        {
          "duration": 0.21139683333333892,
          "durationTicks": 23,
          "midi": 82,
          "name": "A#5",
          "ticks": 8760,
          "time": 80.51462,
          "velocity": 0.8110236220472441
        },
        {
          "duration": 0.11029399999999612,
          "durationTicks": 12,
          "midi": 82,
          "name": "A#5",
          "ticks": 8783,
          "time": 80.72601683333333,
          "velocity": 0.8110236220472441
        },
        {
          "duration": 0.018382333333335055,
          "durationTicks": 2,
          "midi": 70,
          "name": "A#4",
          "ticks": 8795,
          "time": 80.83631083333333,
          "velocity": 0.8110236220472441
        },
        {
          "duration": 0.11029400000001033,
          "durationTicks": 12,
          "midi": 70,
          "name": "A#4",
          "ticks": 8807,
          "time": 80.94660483333332,
          "velocity": 0.8661417322834646
        },
        {
          "duration": 0.11029399999999612,
          "durationTicks": 12,
          "midi": 70,
          "name": "A#4",
          "ticks": 8819,
          "time": 81.05689883333334,
          "velocity": 0.905511811023622
        },
        {
          "duration": 0.22058799999999223,
          "durationTicks": 24,
          "midi": 68,
          "name": "G#4",
          "ticks": 8831,
          "time": 81.16719283333333,
          "velocity": 0.8503937007874016
        },
        {
          "duration": 0.22058799999999223,
          "durationTicks": 24,
          "midi": 74,
          "name": "D5",
          "ticks": 8831,
          "time": 81.16719283333333,
          "velocity": 0.8188976377952756
        },
        {
          "duration": 0.2113968333333247,
          "durationTicks": 23,
          "midi": 77,
          "name": "F5",
          "ticks": 8832,
          "time": 81.176384,
          "velocity": 0.7952755905511811
        },
        {
          "duration": 0.2113968333333247,
          "durationTicks": 23,
          "midi": 82,
          "name": "A#5",
          "ticks": 8832,
          "time": 81.176384,
          "velocity": 0.7559055118110236
        },
        {
          "duration": 0.15624983333333375,
          "durationTicks": 17,
          "midi": 67,
          "name": "G4",
          "ticks": 8855,
          "time": 81.38778083333332,
          "velocity": 0.7952755905511811
        },
        {
          "duration": 0.05514699999999095,
          "durationTicks": 6,
          "midi": 72,
          "name": "C5",
          "ticks": 8867,
          "time": 81.49807483333333,
          "velocity": 0.7086614173228346
        },
        {
          "duration": 0.22058800000000645,
          "durationTicks": 24,
          "midi": 51,
          "name": "D#3",
          "ticks": 8879,
          "time": 81.60836883333333,
          "velocity": 0.7637795275590551
        },
        {
          "duration": 0.22058800000000645,
          "durationTicks": 24,
          "midi": 61,
          "name": "C#4",
          "ticks": 8879,
          "time": 81.60836883333333,
          "velocity": 0.8346456692913385
        },
        {
          "duration": 0.22058800000000645,
          "durationTicks": 24,
          "midi": 65,
          "name": "F4",
          "ticks": 8879,
          "time": 81.60836883333333,
          "velocity": 0.7874015748031497
        },
        {
          "duration": 0.21139683333333892,
          "durationTicks": 23,
          "midi": 68,
          "name": "G#4",
          "ticks": 8880,
          "time": 81.61756,
          "velocity": 0.7637795275590551
        },
        {
          "duration": 0.21139683333333892,
          "durationTicks": 23,
          "midi": 73,
          "name": "C#5",
          "ticks": 8880,
          "time": 81.61756,
          "velocity": 0.8582677165354331
        },
        {
          "duration": 0.22058799999999223,
          "durationTicks": 24,
          "midi": 65,
          "name": "F4",
          "ticks": 8903,
          "time": 81.82895683333334,
          "velocity": 0.9133858267716536
        },
        {
          "duration": 0.018382333333335055,
          "durationTicks": 2,
          "midi": 65,
          "name": "F4",
          "ticks": 8927,
          "time": 82.04954483333333,
          "velocity": 0.7795275590551181
        },
        {
          "duration": 0.009191166666667527,
          "durationTicks": 1,
          "midi": 68,
          "name": "G#4",
          "ticks": 8928,
          "time": 82.058736,
          "velocity": 0.889763779527559
        },
        {
          "duration": 0.018382333333335055,
          "durationTicks": 2,
          "midi": 72,
          "name": "C5",
          "ticks": 8939,
          "time": 82.15983883333332,
          "velocity": 0.937007874015748
        },
        {
          "duration": 0.4411759999999987,
          "durationTicks": 48,
          "midi": 61,
          "name": "C#4",
          "ticks": 8951,
          "time": 82.27013283333334,
          "velocity": 0.7401574803149606
        },
        {
          "duration": 0.4411759999999987,
          "durationTicks": 48,
          "midi": 66,
          "name": "F#4",
          "ticks": 8951,
          "time": 82.27013283333334,
          "velocity": 0.905511811023622
        },
        {
          "duration": 0.43198483333333115,
          "durationTicks": 47,
          "midi": 68,
          "name": "G#4",
          "ticks": 8952,
          "time": 82.279324,
          "velocity": 0.6141732283464567
        },
        {
          "duration": 0.43198483333333115,
          "durationTicks": 47,
          "midi": 73,
          "name": "C#5",
          "ticks": 8952,
          "time": 82.279324,
          "velocity": 0.8267716535433071
        },
        {
          "duration": 0.22058799999999223,
          "durationTicks": 24,
          "midi": 61,
          "name": "C#4",
          "ticks": 8999,
          "time": 82.71130883333333,
          "velocity": 0.8740157480314961
        },
        {
          "duration": 0.22058799999999223,
          "durationTicks": 24,
          "midi": 66,
          "name": "F#4",
          "ticks": 8999,
          "time": 82.71130883333333,
          "velocity": 0.8267716535433071
        },
        {
          "duration": 0.2113968333333247,
          "durationTicks": 23,
          "midi": 70,
          "name": "A#4",
          "ticks": 9000,
          "time": 82.7205,
          "velocity": 0.9133858267716536
        },
        {
          "duration": 0.22058800000000645,
          "durationTicks": 24,
          "midi": 61,
          "name": "C#4",
          "ticks": 9023,
          "time": 82.93189683333333,
          "velocity": 0.7401574803149606
        },
        {
          "duration": 0.22058800000000645,
          "durationTicks": 24,
          "midi": 66,
          "name": "F#4",
          "ticks": 9023,
          "time": 82.93189683333333,
          "velocity": 0.905511811023622
        },
        {
          "duration": 0.21139683333333892,
          "durationTicks": 23,
          "midi": 68,
          "name": "G#4",
          "ticks": 9024,
          "time": 82.941088,
          "velocity": 0.7795275590551181
        },
        {
          "duration": 0.21139683333333892,
          "durationTicks": 23,
          "midi": 73,
          "name": "C#5",
          "ticks": 9024,
          "time": 82.941088,
          "velocity": 0.7086614173228346
        },
        {
          "duration": 0.3676466666666727,
          "durationTicks": 40,
          "midi": 61,
          "name": "C#4",
          "ticks": 9047,
          "time": 83.15248483333333,
          "velocity": 0.905511811023622
        },
        {
          "duration": 0.3676466666666727,
          "durationTicks": 40,
          "midi": 65,
          "name": "F4",
          "ticks": 9047,
          "time": 83.15248483333333,
          "velocity": 0.7086614173228346
        },
        {
          "duration": 0.35845550000000515,
          "durationTicks": 39,
          "midi": 68,
          "name": "G#4",
          "ticks": 9048,
          "time": 83.161676,
          "velocity": 0.7874015748031497
        },
        {
          "duration": 0.35845550000000515,
          "durationTicks": 39,
          "midi": 73,
          "name": "C#5",
          "ticks": 9048,
          "time": 83.161676,
          "velocity": 0.905511811023622
        },
        {
          "duration": 0.22058799999999223,
          "durationTicks": 24,
          "midi": 56,
          "name": "G#3",
          "ticks": 9095,
          "time": 83.59366083333333,
          "velocity": 0.7795275590551181
        },
        {
          "duration": 0.22058799999999223,
          "durationTicks": 24,
          "midi": 63,
          "name": "D#4",
          "ticks": 9095,
          "time": 83.59366083333333,
          "velocity": 0.8582677165354331
        },
        {
          "duration": 0.2113968333333247,
          "durationTicks": 23,
          "midi": 68,
          "name": "G#4",
          "ticks": 9096,
          "time": 83.602852,
          "velocity": 0.8346456692913385
        },
        {
          "duration": 0.2113968333333247,
          "durationTicks": 23,
          "midi": 72,
          "name": "C5",
          "ticks": 9096,
          "time": 83.602852,
          "velocity": 0.889763779527559
        },
        {
          "duration": 0.22058800000000645,
          "durationTicks": 24,
          "midi": 63,
          "name": "D#4",
          "ticks": 9119,
          "time": 83.81424883333332,
          "velocity": 0.9133858267716536
        },
        {
          "duration": 0.19301450000000386,
          "durationTicks": 21,
          "midi": 63,
          "name": "D#4",
          "ticks": 9143,
          "time": 84.03483683333333,
          "velocity": 0.7952755905511811
        },
        {
          "duration": 0.18382333333333634,
          "durationTicks": 20,
          "midi": 68,
          "name": "G#4",
          "ticks": 9144,
          "time": 84.044028,
          "velocity": 0.8976377952755905
        },
        {
          "duration": 0.22058799999999223,
          "durationTicks": 24,
          "midi": 63,
          "name": "D#4",
          "ticks": 9167,
          "time": 84.25542483333334,
          "velocity": 0.8346456692913385
        },
        {
          "duration": 0.22058799999999223,
          "durationTicks": 24,
          "midi": 68,
          "name": "G#4",
          "ticks": 9167,
          "time": 84.25542483333334,
          "velocity": 0.8031496062992126
        },
        {
          "duration": 0.2113968333333247,
          "durationTicks": 23,
          "midi": 73,
          "name": "C#5",
          "ticks": 9168,
          "time": 84.264616,
          "velocity": 0.905511811023622
        },
        {
          "duration": 0.22058800000000645,
          "durationTicks": 24,
          "midi": 63,
          "name": "D#4",
          "ticks": 9191,
          "time": 84.47601283333333,
          "velocity": 0.889763779527559
        },
        {
          "duration": 0.25735266666666234,
          "durationTicks": 28,
          "midi": 56,
          "name": "G#3",
          "ticks": 9215,
          "time": 84.69660083333333,
          "velocity": 0.8976377952755905
        },
        {
          "duration": 0.25735266666666234,
          "durationTicks": 28,
          "midi": 63,
          "name": "D#4",
          "ticks": 9215,
          "time": 84.69660083333333,
          "velocity": 0.8661417322834646
        },
        {
          "duration": 0.25735266666666234,
          "durationTicks": 28,
          "midi": 68,
          "name": "G#4",
          "ticks": 9216,
          "time": 84.705792,
          "velocity": 0.9133858267716536
        },
        {
          "duration": 1.7555128333333272,
          "durationTicks": 191,
          "midi": 54,
          "name": "F#3",
          "ticks": 9263,
          "time": 85.13777683333333,
          "velocity": 0.7795275590551181
        },
        {
          "duration": 0.4411759999999987,
          "durationTicks": 48,
          "midi": 65,
          "name": "F4",
          "ticks": 9263,
          "time": 85.13777683333333,
          "velocity": 0.6141732283464567
        },
        {
          "duration": 0.22058799999999223,
          "durationTicks": 24,
          "midi": 68,
          "name": "G#4",
          "ticks": 9263,
          "time": 85.13777683333333,
          "velocity": 0.6141732283464567
        },
        {
          "duration": 1.7555128333333272,
          "durationTicks": 191,
          "midi": 77,
          "name": "F5",
          "ticks": 9264,
          "time": 85.146968,
          "velocity": 1
        },
        {
          "duration": 0.8823519999999974,
          "durationTicks": 96,
          "midi": 68,
          "name": "G#4",
          "ticks": 9287,
          "time": 85.35836483333333,
          "velocity": 1
        },
        {
          "duration": 0.4411759999999987,
          "durationTicks": 48,
          "midi": 65,
          "name": "F4",
          "ticks": 9311,
          "time": 85.57895283333333,
          "velocity": 1
        },
        {
          "duration": 1.1121311666666713,
          "durationTicks": 121,
          "midi": 75,
          "name": "D#5",
          "ticks": 9335,
          "time": 85.79954083333332,
          "velocity": 1
        },
        {
          "duration": 0.4411759999999987,
          "durationTicks": 48,
          "midi": 65,
          "name": "F4",
          "ticks": 9359,
          "time": 86.02012883333333,
          "velocity": 0.6141732283464567
        },
        {
          "duration": 0.6709551666666727,
          "durationTicks": 73,
          "midi": 68,
          "name": "G#4",
          "ticks": 9383,
          "time": 86.24071683333332,
          "velocity": 1
        },
        {
          "duration": 0.4411759999999987,
          "durationTicks": 48,
          "midi": 65,
          "name": "F4",
          "ticks": 9407,
          "time": 86.46130483333333,
          "velocity": 1
        },
        {
          "duration": 0.2389703333333273,
          "durationTicks": 26,
          "midi": 73,
          "name": "C#5",
          "ticks": 9431,
          "time": 86.68189283333334,
          "velocity": 1
        },
        {
          "duration": 1.6727923333333337,
          "durationTicks": 182,
          "midi": 54,
          "name": "F#3",
          "ticks": 9455,
          "time": 86.90248083333333,
          "velocity": 0.7086614173228346
        },
        {
          "duration": 0.43198483333333115,
          "durationTicks": 47,
          "midi": 65,
          "name": "F4",
          "ticks": 9456,
          "time": 86.911672,
          "velocity": 0.6456692913385826
        },
        {
          "duration": 0.8823519999999974,
          "durationTicks": 96,
          "midi": 68,
          "name": "G#4",
          "ticks": 9479,
          "time": 87.12306883333333,
          "velocity": 1
        },
        {
          "duration": 0.4411759999999987,
          "durationTicks": 48,
          "midi": 65,
          "name": "F4",
          "ticks": 9503,
          "time": 87.34365683333333,
          "velocity": 0.889763779527559
        },
        {
          "duration": 0.22058799999999223,
          "durationTicks": 24,
          "midi": 75,
          "name": "D#5",
          "ticks": 9527,
          "time": 87.56424483333333,
          "velocity": 1
        },
        {
          "duration": 0.4411759999999987,
          "durationTicks": 48,
          "midi": 65,
          "name": "F4",
          "ticks": 9551,
          "time": 87.78483283333333,
          "velocity": 0.905511811023622
        },
        {
          "duration": 0.5882346666666649,
          "durationTicks": 64,
          "midi": 68,
          "name": "G#4",
          "ticks": 9575,
          "time": 88.00542083333333,
          "velocity": 1
        },
        {
          "duration": 0.3676466666666727,
          "durationTicks": 40,
          "midi": 65,
          "name": "F4",
          "ticks": 9599,
          "time": 88.22600883333332,
          "velocity": 1
        },
        {
          "duration": 0.14705866666666623,
          "durationTicks": 16,
          "midi": 73,
          "name": "C#5",
          "ticks": 9623,
          "time": 88.44659683333333,
          "velocity": 0.905511811023622
        },
        {
          "duration": 2.876835166666666,
          "durationTicks": 313,
          "midi": 54,
          "name": "F#3",
          "ticks": 9644,
          "time": 88.63961133333333,
          "velocity": 0.84251968503937
        },
        {
          "duration": 2.8676439999999985,
          "durationTicks": 312,
          "midi": 58,
          "name": "A#3",
          "ticks": 9645,
          "time": 88.6488025,
          "velocity": 0.7401574803149606
        },
        {
          "duration": 2.858452833333345,
          "durationTicks": 311,
          "midi": 65,
          "name": "F4",
          "ticks": 9646,
          "time": 88.65799366666666,
          "velocity": 0.8503937007874016
        },
        {
          "duration": 2.84007050000001,
          "durationTicks": 309,
          "midi": 68,
          "name": "G#4",
          "ticks": 9647,
          "time": 88.66718483333332,
          "velocity": 0.8031496062992126
        },
        {
          "duration": 2.8308793333333284,
          "durationTicks": 308,
          "midi": 73,
          "name": "C#5",
          "ticks": 9648,
          "time": 88.676376,
          "velocity": 0.8818897637795275
        },
        {
          "duration": 0.4411759999999987,
          "durationTicks": 48,
          "midi": 65,
          "name": "F4",
          "ticks": 9959,
          "time": 91.53482883333334,
          "velocity": 0.9291338582677166
        },
        {
          "duration": 0.40441133333332857,
          "durationTicks": 44,
          "midi": 68,
          "name": "G#4",
          "ticks": 9983,
          "time": 91.75541683333333,
          "velocity": 0.8031496062992126
        },
        {
          "duration": 0.18382333333332213,
          "durationTicks": 20,
          "midi": 65,
          "name": "F4",
          "ticks": 10007,
          "time": 91.97600483333333,
          "velocity": 0.905511811023622
        },
        {
          "duration": 1.7371305000000064,
          "durationTicks": 189,
          "midi": 58,
          "name": "A#3",
          "ticks": 10031,
          "time": 92.19659283333333,
          "velocity": 0.7795275590551181
        },
        {
          "duration": 1.7371305000000064,
          "durationTicks": 189,
          "midi": 63,
          "name": "D#4",
          "ticks": 10031,
          "time": 92.19659283333333,
          "velocity": 0.6850393700787402
        },
        {
          "duration": 1.7279393333333388,
          "durationTicks": 188,
          "midi": 65,
          "name": "F4",
          "ticks": 10032,
          "time": 92.205784,
          "velocity": 0.8818897637795275
        },
        {
          "duration": 1.7187481666666713,
          "durationTicks": 187,
          "midi": 68,
          "name": "G#4",
          "ticks": 10033,
          "time": 92.21497516666666,
          "velocity": 0.7716535433070866
        },
        {
          "duration": 1.7095570000000038,
          "durationTicks": 186,
          "midi": 73,
          "name": "C#5",
          "ticks": 10034,
          "time": 92.22416633333333,
          "velocity": 0.84251968503937
        },
        {
          "duration": 0.6617639999999909,
          "durationTicks": 72,
          "midi": 58,
          "name": "A#3",
          "ticks": 10223,
          "time": 93.96129683333334,
          "velocity": 0.7559055118110236
        },
        {
          "duration": 0.6617639999999909,
          "durationTicks": 72,
          "midi": 65,
          "name": "F4",
          "ticks": 10223,
          "time": 93.96129683333334,
          "velocity": 0.8110236220472441
        },
        {
          "duration": 0.6525728333333234,
          "durationTicks": 71,
          "midi": 68,
          "name": "G#4",
          "ticks": 10224,
          "time": 93.970488,
          "velocity": 0.84251968503937
        },
        {
          "duration": 0.6525728333333234,
          "durationTicks": 71,
          "midi": 75,
          "name": "D#5",
          "ticks": 10224,
          "time": 93.970488,
          "velocity": 0.9133858267716536
        },
        {
          "duration": 1.0753665000000012,
          "durationTicks": 117,
          "midi": 58,
          "name": "A#3",
          "ticks": 10295,
          "time": 94.62306083333333,
          "velocity": 0.7795275590551181
        },
        {
          "duration": 1.0753665000000012,
          "durationTicks": 117,
          "midi": 63,
          "name": "D#4",
          "ticks": 10295,
          "time": 94.62306083333333,
          "velocity": 0.6850393700787402
        },
        {
          "duration": 1.0753665000000012,
          "durationTicks": 117,
          "midi": 65,
          "name": "F4",
          "ticks": 10297,
          "time": 94.64144316666666,
          "velocity": 0.84251968503937
        },
        {
          "duration": 1.0569841666666662,
          "durationTicks": 115,
          "midi": 68,
          "name": "G#4",
          "ticks": 10298,
          "time": 94.65063433333333,
          "velocity": 0.8031496062992126
        },
        {
          "duration": 1.0386018333333311,
          "durationTicks": 113,
          "midi": 73,
          "name": "C#5",
          "ticks": 10300,
          "time": 94.66901666666666,
          "velocity": 0.8976377952755905
        },
        {
          "duration": 2.8492616666666635,
          "durationTicks": 310,
          "midi": 54,
          "name": "F#3",
          "ticks": 10415,
          "time": 95.72600083333333,
          "velocity": 0.84251968503937
        },
        {
          "duration": 2.8492616666666635,
          "durationTicks": 310,
          "midi": 58,
          "name": "A#3",
          "ticks": 10415,
          "time": 95.72600083333333,
          "velocity": 0.7401574803149606
        },
        {
          "duration": 2.840070499999996,
          "durationTicks": 309,
          "midi": 65,
          "name": "F4",
          "ticks": 10416,
          "time": 95.735192,
          "velocity": 0.905511811023622
        },
        {
          "duration": 2.8124969999999934,
          "durationTicks": 306,
          "midi": 70,
          "name": "A#4",
          "ticks": 10418,
          "time": 95.75357433333333,
          "velocity": 0.8976377952755905
        },
        {
          "duration": 2.803305833333326,
          "durationTicks": 305,
          "midi": 73,
          "name": "C#5",
          "ticks": 10419,
          "time": 95.7627655,
          "velocity": 0.84251968503937
        },
        {
          "duration": 0.4411759999999987,
          "durationTicks": 48,
          "midi": 65,
          "name": "F4",
          "ticks": 10727,
          "time": 98.59364483333333,
          "velocity": 0.9291338582677166
        },
        {
          "duration": 0.40441133333332857,
          "durationTicks": 44,
          "midi": 68,
          "name": "G#4",
          "ticks": 10751,
          "time": 98.81423283333334,
          "velocity": 0.905511811023622
        },
        {
          "duration": 0.18382333333333634,
          "durationTicks": 20,
          "midi": 65,
          "name": "F4",
          "ticks": 10775,
          "time": 99.03482083333333,
          "velocity": 0.905511811023622
        },
        {
          "duration": 1.5165425,
          "durationTicks": 165,
          "midi": 49,
          "name": "C#3",
          "ticks": 10799,
          "time": 99.25540883333333,
          "velocity": 0.7559055118110236
        },
        {
          "duration": 1.5165425,
          "durationTicks": 165,
          "midi": 60,
          "name": "C4",
          "ticks": 10799,
          "time": 99.25540883333333,
          "velocity": 0.8188976377952756
        },
        {
          "duration": 1.5073513333333324,
          "durationTicks": 164,
          "midi": 65,
          "name": "F4",
          "ticks": 10800,
          "time": 99.2646,
          "velocity": 0.8267716535433071
        },
        {
          "duration": 1.498160166666679,
          "durationTicks": 163,
          "midi": 68,
          "name": "G#4",
          "ticks": 10801,
          "time": 99.27379116666665,
          "velocity": 0.8818897637795275
        },
        {
          "duration": 1.4889689999999973,
          "durationTicks": 162,
          "midi": 73,
          "name": "C#5",
          "ticks": 10802,
          "time": 99.28298233333334,
          "velocity": 0.8740157480314961
        },
        {
          "duration": 0.4411759999999987,
          "durationTicks": 48,
          "midi": 58,
          "name": "A#3",
          "ticks": 10967,
          "time": 100.79952483333334,
          "velocity": 0.8110236220472441
        },
        {
          "duration": 0.4411759999999987,
          "durationTicks": 48,
          "midi": 65,
          "name": "F4",
          "ticks": 10967,
          "time": 100.79952483333334,
          "velocity": 0.8661417322834646
        },
        {
          "duration": 0.43198483333333115,
          "durationTicks": 47,
          "midi": 68,
          "name": "G#4",
          "ticks": 10968,
          "time": 100.808716,
          "velocity": 0.84251968503937
        },
        {
          "duration": 0.42279366666667784,
          "durationTicks": 46,
          "midi": 75,
          "name": "D#5",
          "ticks": 10969,
          "time": 100.81790716666666,
          "velocity": 0.9133858267716536
        },
        {
          "duration": 0.22058799999999223,
          "durationTicks": 24,
          "midi": 58,
          "name": "A#3",
          "ticks": 11015,
          "time": 101.24070083333334,
          "velocity": 0.8267716535433071
        },
        {
          "duration": 0.22058799999999223,
          "durationTicks": 24,
          "midi": 65,
          "name": "F4",
          "ticks": 11015,
          "time": 101.24070083333334,
          "velocity": 0.7952755905511811
        },
        {
          "duration": 0.2113968333333247,
          "durationTicks": 23,
          "midi": 68,
          "name": "G#4",
          "ticks": 11016,
          "time": 101.249892,
          "velocity": 0.8346456692913385
        },
        {
          "duration": 0.2113968333333247,
          "durationTicks": 23,
          "midi": 75,
          "name": "D#5",
          "ticks": 11016,
          "time": 101.249892,
          "velocity": 0.9133858267716536
        },
        {
          "duration": 0.21139683333333892,
          "durationTicks": 23,
          "midi": 58,
          "name": "A#3",
          "ticks": 11039,
          "time": 101.46128883333333,
          "velocity": 0.8503937007874016
        },
        {
          "duration": 0.21139683333333892,
          "durationTicks": 23,
          "midi": 65,
          "name": "F4",
          "ticks": 11039,
          "time": 101.46128883333333,
          "velocity": 0.7952755905511811
        },
        {
          "duration": 0.2022056666666714,
          "durationTicks": 22,
          "midi": 68,
          "name": "G#4",
          "ticks": 11040,
          "time": 101.47048,
          "velocity": 0.8818897637795275
        },
        {
          "duration": 0.2022056666666714,
          "durationTicks": 22,
          "midi": 75,
          "name": "D#5",
          "ticks": 11040,
          "time": 101.47048,
          "velocity": 0.8818897637795275
        },
        {
          "duration": 0.22058799999999223,
          "durationTicks": 24,
          "midi": 58,
          "name": "A#3",
          "ticks": 11063,
          "time": 101.68187683333333,
          "velocity": 0.8740157480314961
        },
        {
          "duration": 0.22058799999999223,
          "durationTicks": 24,
          "midi": 65,
          "name": "F4",
          "ticks": 11063,
          "time": 101.68187683333333,
          "velocity": 0.8267716535433071
        },
        {
          "duration": 0.22058799999999223,
          "durationTicks": 24,
          "midi": 70,
          "name": "A#4",
          "ticks": 11063,
          "time": 101.68187683333333,
          "velocity": 0.7952755905511811
        },
        {
          "duration": 0.2113968333333247,
          "durationTicks": 23,
          "midi": 74,
          "name": "D5",
          "ticks": 11064,
          "time": 101.691068,
          "velocity": 0.9133858267716536
        },
        {
          "duration": 0.2113968333333247,
          "durationTicks": 23,
          "midi": 77,
          "name": "F5",
          "ticks": 11064,
          "time": 101.691068,
          "velocity": 0.8661417322834646
        },
        {
          "duration": 0.4411760000000129,
          "durationTicks": 48,
          "midi": 54,
          "name": "F#3",
          "ticks": 11183,
          "time": 102.78481683333332,
          "velocity": 0.7874015748031497
        },
        {
          "duration": 0.4411760000000129,
          "durationTicks": 48,
          "midi": 61,
          "name": "C#4",
          "ticks": 11183,
          "time": 102.78481683333332,
          "velocity": 0.7795275590551181
        },
        {
          "duration": 0.4411760000000129,
          "durationTicks": 48,
          "midi": 65,
          "name": "F4",
          "ticks": 11183,
          "time": 102.78481683333332,
          "velocity": 0.8976377952755905
        },
        {
          "duration": 0.43198483333333115,
          "durationTicks": 47,
          "midi": 68,
          "name": "G#4",
          "ticks": 11184,
          "time": 102.794008,
          "velocity": 0.7637795275590551
        },
        {
          "duration": 0.43198483333333115,
          "durationTicks": 47,
          "midi": 75,
          "name": "D#5",
          "ticks": 11184,
          "time": 102.794008,
          "velocity": 0.7559055118110236
        },
        {
          "duration": 0.22058799999999223,
          "durationTicks": 24,
          "midi": 68,
          "name": "G#4",
          "ticks": 11231,
          "time": 103.22599283333334,
          "velocity": 0.8661417322834646
        },
        {
          "duration": 0.22058799999999223,
          "durationTicks": 24,
          "midi": 73,
          "name": "C#5",
          "ticks": 11231,
          "time": 103.22599283333334,
          "velocity": 0.7795275590551181
        },
        {
          "duration": 0.2113968333333247,
          "durationTicks": 23,
          "midi": 77,
          "name": "F5",
          "ticks": 11232,
          "time": 103.235184,
          "velocity": 0.8740157480314961
        },
        {
          "duration": 0.018382333333335055,
          "durationTicks": 2,
          "midi": 68,
          "name": "G#4",
          "ticks": 11255,
          "time": 103.44658083333333,
          "velocity": 0.8976377952755905
        },
        {
          "duration": 0.009191166666667527,
          "durationTicks": 1,
          "midi": 73,
          "name": "C#5",
          "ticks": 11256,
          "time": 103.455772,
          "velocity": 0.8740157480314961
        },
        {
          "duration": 0.009191166666681738,
          "durationTicks": 1,
          "midi": 63,
          "name": "D#4",
          "ticks": 11267,
          "time": 103.55687483333332,
          "velocity": 0.8976377952755905
        },
        {
          "duration": 0.22058799999999223,
          "durationTicks": 24,
          "midi": 54,
          "name": "F#3",
          "ticks": 11279,
          "time": 103.66716883333333,
          "velocity": 0.7874015748031497
        },
        {
          "duration": 0.22058799999999223,
          "durationTicks": 24,
          "midi": 61,
          "name": "C#4",
          "ticks": 11279,
          "time": 103.66716883333333,
          "velocity": 0.8110236220472441
        },
        {
          "duration": 0.2113968333333247,
          "durationTicks": 23,
          "midi": 65,
          "name": "F4",
          "ticks": 11280,
          "time": 103.67636,
          "velocity": 0.84251968503937
        },
        {
          "duration": 0.2113968333333247,
          "durationTicks": 23,
          "midi": 68,
          "name": "G#4",
          "ticks": 11280,
          "time": 103.67636,
          "velocity": 0.8031496062992126
        },
        {
          "duration": 0.2113968333333247,
          "durationTicks": 23,
          "midi": 75,
          "name": "D#5",
          "ticks": 11280,
          "time": 103.67636,
          "velocity": 0.8740157480314961
        },
        {
          "duration": 0.22058800000000645,
          "durationTicks": 24,
          "midi": 65,
          "name": "F4",
          "ticks": 11303,
          "time": 103.88775683333333,
          "velocity": 0.8661417322834646
        },
        {
          "duration": 0.22058800000000645,
          "durationTicks": 24,
          "midi": 68,
          "name": "G#4",
          "ticks": 11303,
          "time": 103.88775683333333,
          "velocity": 0.7637795275590551
        },
        {
          "duration": 0.22058800000000645,
          "durationTicks": 24,
          "midi": 73,
          "name": "C#5",
          "ticks": 11303,
          "time": 103.88775683333333,
          "velocity": 0.7874015748031497
        },
        {
          "duration": 0.21139683333333892,
          "durationTicks": 23,
          "midi": 77,
          "name": "F5",
          "ticks": 11304,
          "time": 103.896948,
          "velocity": 0.8740157480314961
        },
        {
          "duration": 0.018382333333320844,
          "durationTicks": 2,
          "midi": 68,
          "name": "G#4",
          "ticks": 11327,
          "time": 104.10834483333333,
          "velocity": 0.905511811023622
        },
        {
          "duration": 0.009191166666653316,
          "durationTicks": 1,
          "midi": 73,
          "name": "C#5",
          "ticks": 11328,
          "time": 104.117536,
          "velocity": 0.8740157480314961
        },
        {
          "duration": 0.009191166666667527,
          "durationTicks": 1,
          "midi": 66,
          "name": "F#4",
          "ticks": 11339,
          "time": 104.21863883333333,
          "velocity": 0.8976377952755905
        },
        {
          "duration": 0.4411759999999987,
          "durationTicks": 48,
          "midi": 56,
          "name": "G#3",
          "ticks": 11351,
          "time": 104.32893283333333,
          "velocity": 0.7637795275590551
        },
        {
          "duration": 0.4411759999999987,
          "durationTicks": 48,
          "midi": 61,
          "name": "C#4",
          "ticks": 11351,
          "time": 104.32893283333333,
          "velocity": 0.8582677165354331
        },
        {
          "duration": 0.4411759999999987,
          "durationTicks": 48,
          "midi": 65,
          "name": "F4",
          "ticks": 11351,
          "time": 104.32893283333333,
          "velocity": 0.8661417322834646
        },
        {
          "duration": 0.22977916666664555,
          "durationTicks": 25,
          "midi": 68,
          "name": "G#4",
          "ticks": 11352,
          "time": 104.33812400000001,
          "velocity": 0.9212598425196851
        },
        {
          "duration": 0.43198483333331694,
          "durationTicks": 47,
          "midi": 75,
          "name": "D#5",
          "ticks": 11352,
          "time": 104.33812400000001,
          "velocity": 0.84251968503937
        },
        {
          "duration": 0.22058800000000645,
          "durationTicks": 24,
          "midi": 60,
          "name": "C4",
          "ticks": 11399,
          "time": 104.77010883333332,
          "velocity": 0.7401574803149606
        },
        {
          "duration": 0.22058800000000645,
          "durationTicks": 24,
          "midi": 65,
          "name": "F4",
          "ticks": 11399,
          "time": 104.77010883333332,
          "velocity": 0.905511811023622
        },
        {
          "duration": 0.2113968333333247,
          "durationTicks": 23,
          "midi": 68,
          "name": "G#4",
          "ticks": 11400,
          "time": 104.7793,
          "velocity": 0.7637795275590551
        },
        {
          "duration": 0.2113968333333247,
          "durationTicks": 23,
          "midi": 75,
          "name": "D#5",
          "ticks": 11400,
          "time": 104.7793,
          "velocity": 0.7952755905511811
        },
        {
          "duration": 0.22058799999999223,
          "durationTicks": 24,
          "midi": 68,
          "name": "G#4",
          "ticks": 11423,
          "time": 104.99069683333333,
          "velocity": 0.8110236220472441
        },
        {
          "duration": 0.22058799999999223,
          "durationTicks": 24,
          "midi": 72,
          "name": "C5",
          "ticks": 11423,
          "time": 104.99069683333333,
          "velocity": 0.7559055118110236
        },
        {
          "duration": 0.2113968333333247,
          "durationTicks": 23,
          "midi": 75,
          "name": "D#5",
          "ticks": 11424,
          "time": 104.999888,
          "velocity": 0.7637795275590551
        },
        {
          "duration": 0.2113968333333247,
          "durationTicks": 23,
          "midi": 80,
          "name": "G#5",
          "ticks": 11424,
          "time": 104.999888,
          "velocity": 0.7401574803149606
        },
        {
          "duration": 0.018382333333335055,
          "durationTicks": 2,
          "midi": 61,
          "name": "C#4",
          "ticks": 11447,
          "time": 105.21128483333332,
          "velocity": 0.9133858267716536
        },
        {
          "duration": 0.009191166666653316,
          "durationTicks": 1,
          "midi": 65,
          "name": "F4",
          "ticks": 11448,
          "time": 105.220476,
          "velocity": 0.7716535433070866
        },
        {
          "duration": 0.009191166666667527,
          "durationTicks": 1,
          "midi": 61,
          "name": "C#4",
          "ticks": 11459,
          "time": 105.32157883333333,
          "velocity": 0.8976377952755905
        },
        {
          "duration": 0.22058800000000645,
          "durationTicks": 24,
          "midi": 56,
          "name": "G#3",
          "ticks": 11471,
          "time": 105.43187283333333,
          "velocity": 0.7637795275590551
        },
        {
          "duration": 0.22058800000000645,
          "durationTicks": 24,
          "midi": 60,
          "name": "C4",
          "ticks": 11471,
          "time": 105.43187283333333,
          "velocity": 0.7401574803149606
        },
        {
          "duration": 0.22058800000000645,
          "durationTicks": 24,
          "midi": 65,
          "name": "F4",
          "ticks": 11471,
          "time": 105.43187283333333,
          "velocity": 0.889763779527559
        },
        {
          "duration": 0.21139683333333892,
          "durationTicks": 23,
          "midi": 68,
          "name": "G#4",
          "ticks": 11472,
          "time": 105.441064,
          "velocity": 0.7952755905511811
        },
        {
          "duration": 0.21139683333333892,
          "durationTicks": 23,
          "midi": 75,
          "name": "D#5",
          "ticks": 11472,
          "time": 105.441064,
          "velocity": 0.8818897637795275
        },
        {
          "duration": 0.2113968333333247,
          "durationTicks": 23,
          "midi": 63,
          "name": "D#4",
          "ticks": 11495,
          "time": 105.65246083333334,
          "velocity": 0.8661417322834646
        },
        {
          "duration": 0.2113968333333247,
          "durationTicks": 23,
          "midi": 68,
          "name": "G#4",
          "ticks": 11495,
          "time": 105.65246083333334,
          "velocity": 0.889763779527559
        },
        {
          "duration": 0.43198483333333115,
          "durationTicks": 47,
          "midi": 73,
          "name": "C#5",
          "ticks": 11496,
          "time": 105.661652,
          "velocity": 0.8661417322834646
        },
        {
          "duration": 0.22058800000000645,
          "durationTicks": 24,
          "midi": 68,
          "name": "G#4",
          "ticks": 11519,
          "time": 105.87304883333333,
          "velocity": 0.8110236220472441
        },
        {
          "duration": 0.21139683333333892,
          "durationTicks": 23,
          "midi": 77,
          "name": "F5",
          "ticks": 11520,
          "time": 105.88224,
          "velocity": 0.9133858267716536
        },
        {
          "duration": 0.018382333333320844,
          "durationTicks": 2,
          "midi": 61,
          "name": "C#4",
          "ticks": 11543,
          "time": 106.09363683333333,
          "velocity": 0.9133858267716536
        },
        {
          "duration": 0.009191166666653316,
          "durationTicks": 1,
          "midi": 65,
          "name": "F4",
          "ticks": 11544,
          "time": 106.102828,
          "velocity": 0.7716535433070866
        },
        {
          "duration": 0.11029399999999612,
          "durationTicks": 12,
          "midi": 68,
          "name": "G#4",
          "ticks": 11555,
          "time": 106.20393083333333,
          "velocity": 0.8976377952755905
        },
        {
          "duration": 0.4411759999999987,
          "durationTicks": 48,
          "midi": 46,
          "name": "A#2",
          "ticks": 11567,
          "time": 106.31422483333333,
          "velocity": 0.7874015748031497
        },
        {
          "duration": 0.4411759999999987,
          "durationTicks": 48,
          "midi": 53,
          "name": "F3",
          "ticks": 11567,
          "time": 106.31422483333333,
          "velocity": 0.8031496062992126
        },
        {
          "duration": 0.4411759999999987,
          "durationTicks": 48,
          "midi": 60,
          "name": "C4",
          "ticks": 11567,
          "time": 106.31422483333333,
          "velocity": 0.7716535433070866
        },
        {
          "duration": 0.43198483333333115,
          "durationTicks": 47,
          "midi": 63,
          "name": "D#4",
          "ticks": 11568,
          "time": 106.323416,
          "velocity": 0.9212598425196851
        },
        {
          "duration": 0.43198483333333115,
          "durationTicks": 47,
          "midi": 68,
          "name": "G#4",
          "ticks": 11568,
          "time": 106.323416,
          "velocity": 0.7716535433070866
        },
        {
          "duration": 0.22058800000000645,
          "durationTicks": 24,
          "midi": 60,
          "name": "C4",
          "ticks": 11615,
          "time": 106.75540083333333,
          "velocity": 0.8661417322834646
        },
        {
          "duration": 0.22058800000000645,
          "durationTicks": 24,
          "midi": 63,
          "name": "D#4",
          "ticks": 11615,
          "time": 106.75540083333333,
          "velocity": 0.7795275590551181
        },
        {
          "duration": 0.2113968333333247,
          "durationTicks": 23,
          "midi": 68,
          "name": "G#4",
          "ticks": 11616,
          "time": 106.76459200000001,
          "velocity": 0.8740157480314961
        },
        {
          "duration": 0.018382333333320844,
          "durationTicks": 2,
          "midi": 63,
          "name": "D#4",
          "ticks": 11639,
          "time": 106.97598883333333,
          "velocity": 0.8976377952755905
        },
        {
          "duration": 0.009191166666653316,
          "durationTicks": 1,
          "midi": 68,
          "name": "G#4",
          "ticks": 11640,
          "time": 106.98518,
          "velocity": 0.8740157480314961
        },
        {
          "duration": 0.009191166666667527,
          "durationTicks": 1,
          "midi": 60,
          "name": "C4",
          "ticks": 11651,
          "time": 107.08628283333333,
          "velocity": 0.8976377952755905
        },
        {
          "duration": 0.22058800000000645,
          "durationTicks": 24,
          "midi": 65,
          "name": "F4",
          "ticks": 11663,
          "time": 107.19657683333332,
          "velocity": 0.8110236220472441
        },
        {
          "duration": 0.21139683333333892,
          "durationTicks": 23,
          "midi": 68,
          "name": "G#4",
          "ticks": 11663,
          "time": 107.19657683333332,
          "velocity": 0.84251968503937
        },
        {
          "duration": 0.2113968333333247,
          "durationTicks": 23,
          "midi": 72,
          "name": "C5",
          "ticks": 11664,
          "time": 107.205768,
          "velocity": 0.8031496062992126
        },
        {
          "duration": 0.2113968333333247,
          "durationTicks": 23,
          "midi": 75,
          "name": "D#5",
          "ticks": 11664,
          "time": 107.205768,
          "velocity": 0.9133858267716536
        },
        {
          "duration": 0.22058799999999223,
          "durationTicks": 24,
          "midi": 63,
          "name": "D#4",
          "ticks": 11687,
          "time": 107.41716483333333,
          "velocity": 0.889763779527559
        },
        {
          "duration": 0.22058799999999223,
          "durationTicks": 24,
          "midi": 60,
          "name": "C4",
          "ticks": 11687,
          "time": 107.41716483333333,
          "velocity": 0.7637795275590551
        },
        {
          "duration": 0.22058799999999223,
          "durationTicks": 24,
          "midi": 53,
          "name": "F3",
          "ticks": 11687,
          "time": 107.41716483333333,
          "velocity": 0.7874015748031497
        },
        {
          "duration": 0.2113968333333247,
          "durationTicks": 23,
          "midi": 46,
          "name": "A#2",
          "ticks": 11688,
          "time": 107.426356,
          "velocity": 0.8740157480314961
        },
        {
          "duration": 0.018382333333335055,
          "durationTicks": 2,
          "midi": 68,
          "name": "G#4",
          "ticks": 11711,
          "time": 107.63775283333332,
          "velocity": 0.905511811023622
        },
        {
          "duration": 0.009191166666653316,
          "durationTicks": 1,
          "midi": 72,
          "name": "C5",
          "ticks": 11712,
          "time": 107.646944,
          "velocity": 0.8740157480314961
        },
        {
          "duration": 0.009191166666667527,
          "durationTicks": 1,
          "midi": 63,
          "name": "D#4",
          "ticks": 11723,
          "time": 107.74804683333333,
          "velocity": 0.8976377952755905
        },
        {
          "duration": 0.4411759999999987,
          "durationTicks": 48,
          "midi": 58,
          "name": "A#3",
          "ticks": 11735,
          "time": 107.85834083333333,
          "velocity": 0.7952755905511811
        },
        {
          "duration": 0.4411759999999987,
          "durationTicks": 48,
          "midi": 65,
          "name": "F4",
          "ticks": 11735,
          "time": 107.85834083333333,
          "velocity": 0.7637795275590551
        },
        {
          "duration": 0.4411759999999987,
          "durationTicks": 48,
          "midi": 68,
          "name": "G#4",
          "ticks": 11735,
          "time": 107.85834083333333,
          "velocity": 0.8582677165354331
        },
        {
          "duration": 0.4411759999999987,
          "durationTicks": 48,
          "midi": 72,
          "name": "C5",
          "ticks": 11735,
          "time": 107.85834083333333,
          "velocity": 0.8661417322834646
        },
        {
          "duration": 0.43198483333333115,
          "durationTicks": 47,
          "midi": 75,
          "name": "D#5",
          "ticks": 11736,
          "time": 107.867532,
          "velocity": 0.84251968503937
        },
        {
          "duration": 0.22058800000000645,
          "durationTicks": 24,
          "midi": 46,
          "name": "A#2",
          "ticks": 11783,
          "time": 108.29951683333333,
          "velocity": 0.8031496062992126
        },
        {
          "duration": 0.22058800000000645,
          "durationTicks": 24,
          "midi": 60,
          "name": "C4",
          "ticks": 11783,
          "time": 108.29951683333333,
          "velocity": 0.8661417322834646
        },
        {
          "duration": 0.21139683333333892,
          "durationTicks": 23,
          "midi": 63,
          "name": "D#4",
          "ticks": 11784,
          "time": 108.308708,
          "velocity": 0.8976377952755905
        },
        {
          "duration": 0.21139683333333892,
          "durationTicks": 23,
          "midi": 68,
          "name": "G#4",
          "ticks": 11784,
          "time": 108.308708,
          "velocity": 0.7716535433070866
        },
        {
          "duration": 0.018382333333320844,
          "durationTicks": 2,
          "midi": 63,
          "name": "D#4",
          "ticks": 11807,
          "time": 108.52010483333333,
          "velocity": 0.8976377952755905
        },
        {
          "duration": 0.009191166666653316,
          "durationTicks": 1,
          "midi": 68,
          "name": "G#4",
          "ticks": 11808,
          "time": 108.529296,
          "velocity": 0.8740157480314961
        },
        {
          "duration": 0.009191166666667527,
          "durationTicks": 1,
          "midi": 60,
          "name": "C4",
          "ticks": 11819,
          "time": 108.63039883333333,
          "velocity": 0.8976377952755905
        },
        {
          "duration": 0.4411759999999987,
          "durationTicks": 48,
          "midi": 46,
          "name": "A#2",
          "ticks": 11831,
          "time": 108.74069283333333,
          "velocity": 0.7559055118110236
        },
        {
          "duration": 0.4411759999999987,
          "durationTicks": 48,
          "midi": 53,
          "name": "F3",
          "ticks": 11831,
          "time": 108.74069283333333,
          "velocity": 0.8110236220472441
        },
        {
          "duration": 0.4411759999999987,
          "durationTicks": 48,
          "midi": 60,
          "name": "C4",
          "ticks": 11831,
          "time": 108.74069283333333,
          "velocity": 0.84251968503937
        },
        {
          "duration": 0.43198483333333115,
          "durationTicks": 47,
          "midi": 63,
          "name": "D#4",
          "ticks": 11832,
          "time": 108.749884,
          "velocity": 0.9133858267716536
        },
        {
          "duration": 0.43198483333333115,
          "durationTicks": 47,
          "midi": 68,
          "name": "G#4",
          "ticks": 11832,
          "time": 108.749884,
          "velocity": 0.8267716535433071
        },
        {
          "duration": 0.22058800000000645,
          "durationTicks": 24,
          "midi": 46,
          "name": "A#2",
          "ticks": 11879,
          "time": 109.18186883333333,
          "velocity": 0.7086614173228346
        },
        {
          "duration": 0.22058800000000645,
          "durationTicks": 24,
          "midi": 53,
          "name": "F3",
          "ticks": 11879,
          "time": 109.18186883333333,
          "velocity": 0.889763779527559
        },
        {
          "duration": 0.2113968333333247,
          "durationTicks": 23,
          "midi": 60,
          "name": "C4",
          "ticks": 11880,
          "time": 109.19106000000001,
          "velocity": 0.7637795275590551
        },
        {
          "duration": 0.2113968333333247,
          "durationTicks": 23,
          "midi": 63,
          "name": "D#4",
          "ticks": 11880,
          "time": 109.19106000000001,
          "velocity": 0.8976377952755905
        },
        {
          "duration": 0.2113968333333247,
          "durationTicks": 23,
          "midi": 68,
          "name": "G#4",
          "ticks": 11880,
          "time": 109.19106000000001,
          "velocity": 0.7952755905511811
        },
        {
          "duration": 0.018382333333320844,
          "durationTicks": 2,
          "midi": 68,
          "name": "G#4",
          "ticks": 11903,
          "time": 109.40245683333333,
          "velocity": 0.905511811023622
        },
        {
          "duration": 0.009191166666653316,
          "durationTicks": 1,
          "midi": 72,
          "name": "C5",
          "ticks": 11904,
          "time": 109.411648,
          "velocity": 0.8740157480314961
        },
        {
          "duration": 0.11029399999999612,
          "durationTicks": 12,
          "midi": 63,
          "name": "D#4",
          "ticks": 11915,
          "time": 109.51275083333333,
          "velocity": 0.8976377952755905
        },
        {
          "duration": 0.11029400000001033,
          "durationTicks": 12,
          "midi": 46,
          "name": "A#2",
          "ticks": 11927,
          "time": 109.62304483333332,
          "velocity": 0.8976377952755905
        },
        {
          "duration": 0.11029400000001033,
          "durationTicks": 12,
          "midi": 53,
          "name": "F3",
          "ticks": 11927,
          "time": 109.62304483333332,
          "velocity": 0.8110236220472441
        },
        {
          "duration": 0.11029399999999612,
          "durationTicks": 12,
          "midi": 63,
          "name": "D#4",
          "ticks": 11939,
          "time": 109.73333883333333,
          "velocity": 0.8582677165354331
        },
        {
          "duration": 0.10110283333332859,
          "durationTicks": 11,
          "midi": 60,
          "name": "C4",
          "ticks": 11939,
          "time": 109.73333883333333,
          "velocity": 0.8661417322834646
        },
        {
          "duration": 0.10110283333332859,
          "durationTicks": 11,
          "midi": 53,
          "name": "F3",
          "ticks": 11940,
          "time": 109.74253,
          "velocity": 0.84251968503937
        },
        {
          "duration": 0.4411759999999987,
          "durationTicks": 48,
          "midi": 54,
          "name": "F#3",
          "ticks": 11951,
          "time": 109.84363283333333,
          "velocity": 0.7874015748031497
        },
        {
          "duration": 0.4411759999999987,
          "durationTicks": 48,
          "midi": 61,
          "name": "C#4",
          "ticks": 11951,
          "time": 109.84363283333333,
          "velocity": 0.7795275590551181
        },
        {
          "duration": 0.4411759999999987,
          "durationTicks": 48,
          "midi": 65,
          "name": "F4",
          "ticks": 11951,
          "time": 109.84363283333333,
          "velocity": 0.8976377952755905
        },
        {
          "duration": 0.43198483333333115,
          "durationTicks": 47,
          "midi": 68,
          "name": "G#4",
          "ticks": 11952,
          "time": 109.852824,
          "velocity": 0.7637795275590551
        },
        {
          "duration": 0.43198483333333115,
          "durationTicks": 47,
          "midi": 75,
          "name": "D#5",
          "ticks": 11952,
          "time": 109.852824,
          "velocity": 0.7559055118110236
        },
        {
          "duration": 0.22058800000000645,
          "durationTicks": 24,
          "midi": 68,
          "name": "G#4",
          "ticks": 11999,
          "time": 110.28480883333333,
          "velocity": 0.8661417322834646
        },
        {
          "duration": 0.22058800000000645,
          "durationTicks": 24,
          "midi": 73,
          "name": "C#5",
          "ticks": 11999,
          "time": 110.28480883333333,
          "velocity": 0.7795275590551181
        },
        {
          "duration": 0.21139683333333892,
          "durationTicks": 23,
          "midi": 77,
          "name": "F5",
          "ticks": 12000,
          "time": 110.294,
          "velocity": 0.8740157480314961
        },
        {
          "duration": 0.018382333333320844,
          "durationTicks": 2,
          "midi": 68,
          "name": "G#4",
          "ticks": 12023,
          "time": 110.50539683333334,
          "velocity": 0.8976377952755905
        },
        {
          "duration": 0.009191166666653316,
          "durationTicks": 1,
          "midi": 73,
          "name": "C#5",
          "ticks": 12024,
          "time": 110.514588,
          "velocity": 0.8740157480314961
        },
        {
          "duration": 0.009191166666667527,
          "durationTicks": 1,
          "midi": 63,
          "name": "D#4",
          "ticks": 12035,
          "time": 110.61569083333333,
          "velocity": 0.8976377952755905
        },
        {
          "duration": 0.22058800000000645,
          "durationTicks": 24,
          "midi": 54,
          "name": "F#3",
          "ticks": 12047,
          "time": 110.72598483333333,
          "velocity": 0.7874015748031497
        },
        {
          "duration": 0.22058800000000645,
          "durationTicks": 24,
          "midi": 61,
          "name": "C#4",
          "ticks": 12047,
          "time": 110.72598483333333,
          "velocity": 0.8110236220472441
        },
        {
          "duration": 0.21139683333333892,
          "durationTicks": 23,
          "midi": 65,
          "name": "F4",
          "ticks": 12048,
          "time": 110.735176,
          "velocity": 0.84251968503937
        },
        {
          "duration": 0.21139683333333892,
          "durationTicks": 23,
          "midi": 68,
          "name": "G#4",
          "ticks": 12048,
          "time": 110.735176,
          "velocity": 0.8031496062992126
        },
        {
          "duration": 0.21139683333333892,
          "durationTicks": 23,
          "midi": 75,
          "name": "D#5",
          "ticks": 12048,
          "time": 110.735176,
          "velocity": 0.8740157480314961
        },
        {
          "duration": 0.22058799999999223,
          "durationTicks": 24,
          "midi": 65,
          "name": "F4",
          "ticks": 12071,
          "time": 110.94657283333333,
          "velocity": 0.8661417322834646
        },
        {
          "duration": 0.22058799999999223,
          "durationTicks": 24,
          "midi": 68,
          "name": "G#4",
          "ticks": 12071,
          "time": 110.94657283333333,
          "velocity": 0.7637795275590551
        },
        {
          "duration": 0.22058799999999223,
          "durationTicks": 24,
          "midi": 73,
          "name": "C#5",
          "ticks": 12071,
          "time": 110.94657283333333,
          "velocity": 0.7874015748031497
        },
        {
          "duration": 0.2113968333333247,
          "durationTicks": 23,
          "midi": 77,
          "name": "F5",
          "ticks": 12072,
          "time": 110.955764,
          "velocity": 0.8740157480314961
        },
        {
          "duration": 0.018382333333335055,
          "durationTicks": 2,
          "midi": 68,
          "name": "G#4",
          "ticks": 12095,
          "time": 111.16716083333333,
          "velocity": 0.905511811023622
        },
        {
          "duration": 0.009191166666667527,
          "durationTicks": 1,
          "midi": 73,
          "name": "C#5",
          "ticks": 12096,
          "time": 111.176352,
          "velocity": 0.8740157480314961
        },
        {
          "duration": 0.009191166666667527,
          "durationTicks": 1,
          "midi": 66,
          "name": "F#4",
          "ticks": 12107,
          "time": 111.27745483333334,
          "velocity": 0.8976377952755905
        },
        {
          "duration": 0.4411759999999987,
          "durationTicks": 48,
          "midi": 56,
          "name": "G#3",
          "ticks": 12119,
          "time": 111.38774883333333,
          "velocity": 0.7952755905511811
        },
        {
          "duration": 0.4411759999999987,
          "durationTicks": 48,
          "midi": 61,
          "name": "C#4",
          "ticks": 12119,
          "time": 111.38774883333333,
          "velocity": 0.7637795275590551
        },
        {
          "duration": 0.4411759999999987,
          "durationTicks": 48,
          "midi": 65,
          "name": "F4",
          "ticks": 12119,
          "time": 111.38774883333333,
          "velocity": 0.8582677165354331
        },
        {
          "duration": 0.43198483333333115,
          "durationTicks": 47,
          "midi": 68,
          "name": "G#4",
          "ticks": 12120,
          "time": 111.39694,
          "velocity": 0.8661417322834646
        },
        {
          "duration": 0.43198483333333115,
          "durationTicks": 47,
          "midi": 75,
          "name": "D#5",
          "ticks": 12120,
          "time": 111.39694,
          "velocity": 0.84251968503937
        },
        {
          "duration": 0.22058799999999223,
          "durationTicks": 24,
          "midi": 60,
          "name": "C4",
          "ticks": 12167,
          "time": 111.82892483333333,
          "velocity": 0.7401574803149606
        },
        {
          "duration": 0.22058799999999223,
          "durationTicks": 24,
          "midi": 65,
          "name": "F4",
          "ticks": 12167,
          "time": 111.82892483333333,
          "velocity": 0.905511811023622
        },
        {
          "duration": 0.2113968333333247,
          "durationTicks": 23,
          "midi": 68,
          "name": "G#4",
          "ticks": 12168,
          "time": 111.838116,
          "velocity": 0.7637795275590551
        },
        {
          "duration": 0.2113968333333247,
          "durationTicks": 23,
          "midi": 75,
          "name": "D#5",
          "ticks": 12168,
          "time": 111.838116,
          "velocity": 0.7952755905511811
        },
        {
          "duration": 0.22058800000000645,
          "durationTicks": 24,
          "midi": 68,
          "name": "G#4",
          "ticks": 12191,
          "time": 112.04951283333332,
          "velocity": 0.8110236220472441
        },
        {
          "duration": 0.22058800000000645,
          "durationTicks": 24,
          "midi": 72,
          "name": "C5",
          "ticks": 12191,
          "time": 112.04951283333332,
          "velocity": 0.7559055118110236
        },
        {
          "duration": 0.2113968333333247,
          "durationTicks": 23,
          "midi": 75,
          "name": "D#5",
          "ticks": 12192,
          "time": 112.058704,
          "velocity": 0.7637795275590551
        },
        {
          "duration": 0.2113968333333247,
          "durationTicks": 23,
          "midi": 80,
          "name": "G#5",
          "ticks": 12192,
          "time": 112.058704,
          "velocity": 0.7401574803149606
        },
        {
          "duration": 0.018382333333335055,
          "durationTicks": 2,
          "midi": 61,
          "name": "C#4",
          "ticks": 12215,
          "time": 112.27010083333333,
          "velocity": 0.9133858267716536
        },
        {
          "duration": 0.009191166666667527,
          "durationTicks": 1,
          "midi": 65,
          "name": "F4",
          "ticks": 12216,
          "time": 112.279292,
          "velocity": 0.7716535433070866
        },
        {
          "duration": 0.009191166666667527,
          "durationTicks": 1,
          "midi": 61,
          "name": "C#4",
          "ticks": 12227,
          "time": 112.38039483333333,
          "velocity": 0.8976377952755905
        },
        {
          "duration": 0.22058799999999223,
          "durationTicks": 24,
          "midi": 56,
          "name": "G#3",
          "ticks": 12239,
          "time": 112.49068883333334,
          "velocity": 0.7637795275590551
        },
        {
          "duration": 0.22058799999999223,
          "durationTicks": 24,
          "midi": 60,
          "name": "C4",
          "ticks": 12239,
          "time": 112.49068883333334,
          "velocity": 0.7401574803149606
        },
        {
          "duration": 0.22058799999999223,
          "durationTicks": 24,
          "midi": 65,
          "name": "F4",
          "ticks": 12239,
          "time": 112.49068883333334,
          "velocity": 0.889763779527559
        },
        {
          "duration": 0.2113968333333247,
          "durationTicks": 23,
          "midi": 68,
          "name": "G#4",
          "ticks": 12240,
          "time": 112.49988,
          "velocity": 0.7952755905511811
        },
        {
          "duration": 0.2113968333333247,
          "durationTicks": 23,
          "midi": 75,
          "name": "D#5",
          "ticks": 12240,
          "time": 112.49988,
          "velocity": 0.8818897637795275
        },
        {
          "duration": 0.2113968333333247,
          "durationTicks": 23,
          "midi": 63,
          "name": "D#4",
          "ticks": 12263,
          "time": 112.71127683333333,
          "velocity": 0.8661417322834646
        },
        {
          "duration": 0.2113968333333247,
          "durationTicks": 23,
          "midi": 68,
          "name": "G#4",
          "ticks": 12263,
          "time": 112.71127683333333,
          "velocity": 0.889763779527559
        },
        {
          "duration": 0.43198483333333115,
          "durationTicks": 47,
          "midi": 72,
          "name": "C5",
          "ticks": 12264,
          "time": 112.720468,
          "velocity": 0.8661417322834646
        },
        {
          "duration": 0.22058799999999223,
          "durationTicks": 24,
          "midi": 68,
          "name": "G#4",
          "ticks": 12287,
          "time": 112.93186483333334,
          "velocity": 0.8110236220472441
        },
        {
          "duration": 0.2113968333333247,
          "durationTicks": 23,
          "midi": 77,
          "name": "F5",
          "ticks": 12288,
          "time": 112.941056,
          "velocity": 0.8661417322834646
        },
        {
          "duration": 0.018382333333335055,
          "durationTicks": 2,
          "midi": 61,
          "name": "C#4",
          "ticks": 12311,
          "time": 113.15245283333333,
          "velocity": 0.9133858267716536
        },
        {
          "duration": 0.009191166666667527,
          "durationTicks": 1,
          "midi": 65,
          "name": "F4",
          "ticks": 12312,
          "time": 113.161644,
          "velocity": 0.7716535433070866
        },
        {
          "duration": 0.018382333333335055,
          "durationTicks": 2,
          "midi": 73,
          "name": "C#5",
          "ticks": 12323,
          "time": 113.26274683333332,
          "velocity": 0.8976377952755905
        },
        {
          "duration": 0.4411759999999987,
          "durationTicks": 48,
          "midi": 46,
          "name": "A#2",
          "ticks": 12335,
          "time": 113.37304083333333,
          "velocity": 0.7874015748031497
        },
        {
          "duration": 0.4411759999999987,
          "durationTicks": 48,
          "midi": 53,
          "name": "F3",
          "ticks": 12335,
          "time": 113.37304083333333,
          "velocity": 0.8031496062992126
        },
        {
          "duration": 0.4411759999999987,
          "durationTicks": 48,
          "midi": 60,
          "name": "C4",
          "ticks": 12335,
          "time": 113.37304083333333,
          "velocity": 0.7716535433070866
        },
        {
          "duration": 0.43198483333333115,
          "durationTicks": 47,
          "midi": 63,
          "name": "D#4",
          "ticks": 12336,
          "time": 113.382232,
          "velocity": 0.8661417322834646
        },
        {
          "duration": 0.43198483333333115,
          "durationTicks": 47,
          "midi": 68,
          "name": "G#4",
          "ticks": 12336,
          "time": 113.382232,
          "velocity": 0.905511811023622
        },
        {
          "duration": 0.22058799999999223,
          "durationTicks": 24,
          "midi": 60,
          "name": "C4",
          "ticks": 12383,
          "time": 113.81421683333333,
          "velocity": 0.8661417322834646
        },
        {
          "duration": 0.22058799999999223,
          "durationTicks": 24,
          "midi": 63,
          "name": "D#4",
          "ticks": 12383,
          "time": 113.81421683333333,
          "velocity": 0.7795275590551181
        },
        {
          "duration": 0.2113968333333247,
          "durationTicks": 23,
          "midi": 68,
          "name": "G#4",
          "ticks": 12384,
          "time": 113.823408,
          "velocity": 0.8740157480314961
        },
        {
          "duration": 0.2113968333333247,
          "durationTicks": 23,
          "midi": 72,
          "name": "C5",
          "ticks": 12384,
          "time": 113.823408,
          "velocity": 0.8503937007874016
        },
        {
          "duration": 0.018382333333335055,
          "durationTicks": 2,
          "midi": 63,
          "name": "D#4",
          "ticks": 12407,
          "time": 114.03480483333333,
          "velocity": 0.8976377952755905
        },
        {
          "duration": 0.009191166666653316,
          "durationTicks": 1,
          "midi": 68,
          "name": "G#4",
          "ticks": 12408,
          "time": 114.043996,
          "velocity": 0.8740157480314961
        },
        {
          "duration": 0.018382333333320844,
          "durationTicks": 2,
          "midi": 72,
          "name": "C5",
          "ticks": 12419,
          "time": 114.14509883333334,
          "velocity": 0.8976377952755905
        },
        {
          "duration": 0.22058799999999223,
          "durationTicks": 24,
          "midi": 65,
          "name": "F4",
          "ticks": 12431,
          "time": 114.25539283333333,
          "velocity": 0.8110236220472441
        },
        {
          "duration": 0.2113968333333247,
          "durationTicks": 23,
          "midi": 68,
          "name": "G#4",
          "ticks": 12431,
          "time": 114.25539283333333,
          "velocity": 0.84251968503937
        },
        {
          "duration": 0.2113968333333247,
          "durationTicks": 23,
          "midi": 72,
          "name": "C5",
          "ticks": 12432,
          "time": 114.264584,
          "velocity": 0.8031496062992126
        },
        {
          "duration": 0.2113968333333247,
          "durationTicks": 23,
          "midi": 75,
          "name": "D#5",
          "ticks": 12432,
          "time": 114.264584,
          "velocity": 0.9133858267716536
        },
        {
          "duration": 0.22058800000000645,
          "durationTicks": 24,
          "midi": 68,
          "name": "G#4",
          "ticks": 12455,
          "time": 114.47598083333332,
          "velocity": 0.889763779527559
        },
        {
          "duration": 0.22058800000000645,
          "durationTicks": 24,
          "midi": 63,
          "name": "D#4",
          "ticks": 12455,
          "time": 114.47598083333332,
          "velocity": 0.7637795275590551
        },
        {
          "duration": 0.22058800000000645,
          "durationTicks": 24,
          "midi": 60,
          "name": "C4",
          "ticks": 12455,
          "time": 114.47598083333332,
          "velocity": 0.7874015748031497
        },
        {
          "duration": 0.22058799999997802,
          "durationTicks": 24,
          "midi": 53,
          "name": "F3",
          "ticks": 12456,
          "time": 114.485172,
          "velocity": 0.7637795275590551
        },
        {
          "duration": 0.2113968333333247,
          "durationTicks": 23,
          "midi": 46,
          "name": "A#2",
          "ticks": 12456,
          "time": 114.485172,
          "velocity": 0.8740157480314961
        },
        {
          "duration": 0.018382333333335055,
          "durationTicks": 2,
          "midi": 63,
          "name": "D#4",
          "ticks": 12479,
          "time": 114.69656883333333,
          "velocity": 0.905511811023622
        },
        {
          "duration": 0.009191166666681738,
          "durationTicks": 1,
          "midi": 68,
          "name": "G#4",
          "ticks": 12480,
          "time": 114.70575999999998,
          "velocity": 0.8740157480314961
        },
        {
          "duration": 0.018382333333349266,
          "durationTicks": 2,
          "midi": 73,
          "name": "C#5",
          "ticks": 12491,
          "time": 114.80686283333333,
          "velocity": 0.8976377952755905
        },
        {
          "duration": 0.4411759999999987,
          "durationTicks": 48,
          "midi": 61,
          "name": "C#4",
          "ticks": 12503,
          "time": 114.91715683333334,
          "velocity": 0.7952755905511811
        },
        {
          "duration": 0.4411759999999987,
          "durationTicks": 48,
          "midi": 65,
          "name": "F4",
          "ticks": 12503,
          "time": 114.91715683333334,
          "velocity": 0.7637795275590551
        },
        {
          "duration": 0.4411759999999987,
          "durationTicks": 48,
          "midi": 72,
          "name": "C5",
          "ticks": 12503,
          "time": 114.91715683333334,
          "velocity": 0.8582677165354331
        },
        {
          "duration": 0.43198483333334536,
          "durationTicks": 47,
          "midi": 75,
          "name": "D#5",
          "ticks": 12504,
          "time": 114.92634799999999,
          "velocity": 0.8661417322834646
        },
        {
          "duration": 0.43198483333334536,
          "durationTicks": 47,
          "midi": 80,
          "name": "G#5",
          "ticks": 12504,
          "time": 114.92634799999999,
          "velocity": 0.84251968503937
        },
        {
          "duration": 0.22058799999999223,
          "durationTicks": 24,
          "midi": 65,
          "name": "F4",
          "ticks": 12551,
          "time": 115.35833283333334,
          "velocity": 0.84251968503937
        },
        {
          "duration": 0.22058799999999223,
          "durationTicks": 24,
          "midi": 72,
          "name": "C5",
          "ticks": 12551,
          "time": 115.35833283333334,
          "velocity": 0.7795275590551181
        },
        {
          "duration": 0.21139683333333892,
          "durationTicks": 23,
          "midi": 75,
          "name": "D#5",
          "ticks": 12552,
          "time": 115.36752399999999,
          "velocity": 0.8503937007874016
        },
        {
          "duration": 0.21139683333333892,
          "durationTicks": 23,
          "midi": 80,
          "name": "G#5",
          "ticks": 12552,
          "time": 115.36752399999999,
          "velocity": 0.8818897637795275
        },
        {
          "duration": 0.018382333333349266,
          "durationTicks": 2,
          "midi": 65,
          "name": "F4",
          "ticks": 12575,
          "time": 115.57892083333333,
          "velocity": 0.8976377952755905
        },
        {
          "duration": 0.009191166666681738,
          "durationTicks": 1,
          "midi": 72,
          "name": "C5",
          "ticks": 12576,
          "time": 115.588112,
          "velocity": 0.8740157480314961
        },
        {
          "duration": 0.018382333333349266,
          "durationTicks": 2,
          "midi": 61,
          "name": "C#4",
          "ticks": 12587,
          "time": 115.68921483333332,
          "velocity": 0.8976377952755905
        },
        {
          "duration": 0.4411759999999987,
          "durationTicks": 48,
          "midi": 49,
          "name": "C#3",
          "ticks": 12599,
          "time": 115.79950883333333,
          "velocity": 0.8661417322834646
        },
        {
          "duration": 0.4411759999999987,
          "durationTicks": 48,
          "midi": 53,
          "name": "F3",
          "ticks": 12599,
          "time": 115.79950883333333,
          "velocity": 0.7637795275590551
        },
        {
          "duration": 0.4411759999999987,
          "durationTicks": 48,
          "midi": 60,
          "name": "C4",
          "ticks": 12599,
          "time": 115.79950883333333,
          "velocity": 0.7874015748031497
        },
        {
          "duration": 0.43198483333334536,
          "durationTicks": 47,
          "midi": 63,
          "name": "D#4",
          "ticks": 12600,
          "time": 115.80869999999999,
          "velocity": 0.9133858267716536
        },
        {
          "duration": 0.43198483333334536,
          "durationTicks": 47,
          "midi": 68,
          "name": "G#4",
          "ticks": 12600,
          "time": 115.80869999999999,
          "velocity": 0.7322834645669292
        },
        {
          "duration": 0.11029399999999612,
          "durationTicks": 12,
          "midi": 53,
          "name": "F3",
          "ticks": 12647,
          "time": 116.24068483333333,
          "velocity": 0.84251968503937
        },
        {
          "duration": 0.11029399999999612,
          "durationTicks": 12,
          "midi": 60,
          "name": "C4",
          "ticks": 12647,
          "time": 116.24068483333333,
          "velocity": 0.7795275590551181
        },
        {
          "duration": 0.1011028333333428,
          "durationTicks": 11,
          "midi": 65,
          "name": "F4",
          "ticks": 12648,
          "time": 116.24987599999999,
          "velocity": 0.8503937007874016
        },
        {
          "duration": 0.1011028333333428,
          "durationTicks": 11,
          "midi": 68,
          "name": "G#4",
          "ticks": 12648,
          "time": 116.24987599999999,
          "velocity": 0.8818897637795275
        },
        {
          "duration": 0.11029399999999612,
          "durationTicks": 12,
          "midi": 49,
          "name": "C#3",
          "ticks": 12659,
          "time": 116.35097883333333,
          "velocity": 0.8503937007874016
        },
        {
          "duration": 0.22058800000000645,
          "durationTicks": 24,
          "midi": 49,
          "name": "C#3",
          "ticks": 12671,
          "time": 116.46127283333333,
          "velocity": 0.7637795275590551
        },
        {
          "duration": 0.22058800000000645,
          "durationTicks": 24,
          "midi": 53,
          "name": "F3",
          "ticks": 12671,
          "time": 116.46127283333333,
          "velocity": 0.7874015748031497
        },
        {
          "duration": 0.22058799999999223,
          "durationTicks": 24,
          "midi": 60,
          "name": "C4",
          "ticks": 12672,
          "time": 116.47046399999999,
          "velocity": 0.7637795275590551
        },
        {
          "duration": 0.21139683333333892,
          "durationTicks": 23,
          "midi": 63,
          "name": "D#4",
          "ticks": 12672,
          "time": 116.47046399999999,
          "velocity": 0.8740157480314961
        },
        {
          "duration": 0.018382333333335055,
          "durationTicks": 2,
          "midi": 49,
          "name": "C#3",
          "ticks": 12695,
          "time": 116.68186083333333,
          "velocity": 0.905511811023622
        },
        {
          "duration": 0.009191166666681738,
          "durationTicks": 1,
          "midi": 53,
          "name": "F3",
          "ticks": 12696,
          "time": 116.69105199999998,
          "velocity": 0.8740157480314961
        },
        {
          "duration": 0.055147000000005164,
          "durationTicks": 6,
          "midi": 63,
          "name": "D#4",
          "ticks": 12707,
          "time": 116.79215483333333,
          "velocity": 0.8976377952755905
        },
        {
          "duration": 0.4411760000000129,
          "durationTicks": 48,
          "midi": 55,
          "name": "G3",
          "ticks": 12719,
          "time": 116.90244883333332,
          "velocity": 0.7874015748031497
        },
        {
          "duration": 0.4411760000000129,
          "durationTicks": 48,
          "midi": 61,
          "name": "C#4",
          "ticks": 12719,
          "time": 116.90244883333332,
          "velocity": 0.7795275590551181
        },
        {
          "duration": 0.4411760000000129,
          "durationTicks": 48,
          "midi": 65,
          "name": "F4",
          "ticks": 12719,
          "time": 116.90244883333332,
          "velocity": 0.8976377952755905
        },
        {
          "duration": 0.43198483333334536,
          "durationTicks": 47,
          "midi": 70,
          "name": "A#4",
          "ticks": 12720,
          "time": 116.91163999999999,
          "velocity": 0.7637795275590551
        },
        {
          "duration": 0.22058800000000645,
          "durationTicks": 24,
          "midi": 73,
          "name": "C#5",
          "ticks": 12743,
          "time": 117.12303683333333,
          "velocity": 0.8976377952755905
        },
        {
          "duration": 0.11029399999999612,
          "durationTicks": 12,
          "midi": 70,
          "name": "A#4",
          "ticks": 12767,
          "time": 117.34362483333334,
          "velocity": 0.8661417322834646
        },
        {
          "duration": 0.11029399999999612,
          "durationTicks": 12,
          "midi": 73,
          "name": "C#5",
          "ticks": 12767,
          "time": 117.34362483333334,
          "velocity": 0.7795275590551181
        },
        {
          "duration": 0.1011028333333428,
          "durationTicks": 11,
          "midi": 77,
          "name": "F5",
          "ticks": 12768,
          "time": 117.35281599999999,
          "velocity": 0.8740157480314961
        },
        {
          "duration": 0.018382333333335055,
          "durationTicks": 2,
          "midi": 68,
          "name": "G#4",
          "ticks": 12779,
          "time": 117.45391883333333,
          "velocity": 0.8976377952755905
        },
        {
          "duration": 0.009191166666681738,
          "durationTicks": 1,
          "midi": 73,
          "name": "C#5",
          "ticks": 12780,
          "time": 117.46310999999999,
          "velocity": 0.8740157480314961
        },
        {
          "duration": 0.22058800000000645,
          "durationTicks": 24,
          "midi": 61,
          "name": "C#4",
          "ticks": 12791,
          "time": 117.56421283333333,
          "velocity": 0.7795275590551181
        },
        {
          "duration": 0.22058800000000645,
          "durationTicks": 24,
          "midi": 65,
          "name": "F4",
          "ticks": 12791,
          "time": 117.56421283333333,
          "velocity": 0.7086614173228346
        },
        {
          "duration": 0.21139683333335313,
          "durationTicks": 23,
          "midi": 70,
          "name": "A#4",
          "ticks": 12792,
          "time": 117.57340399999998,
          "velocity": 0.7637795275590551
        },
        {
          "duration": 0.21139683333335313,
          "durationTicks": 23,
          "midi": 73,
          "name": "C#5",
          "ticks": 12792,
          "time": 117.57340399999998,
          "velocity": 0.7559055118110236
        },
        {
          "duration": 0.22058799999999223,
          "durationTicks": 24,
          "midi": 55,
          "name": "G3",
          "ticks": 12815,
          "time": 117.78480083333334,
          "velocity": 0.7874015748031497
        },
        {
          "duration": 0.22058799999999223,
          "durationTicks": 24,
          "midi": 61,
          "name": "C#4",
          "ticks": 12815,
          "time": 117.78480083333334,
          "velocity": 0.8110236220472441
        },
        {
          "duration": 0.21139683333333892,
          "durationTicks": 23,
          "midi": 65,
          "name": "F4",
          "ticks": 12816,
          "time": 117.79399199999999,
          "velocity": 0.84251968503937
        },
        {
          "duration": 0.21139683333333892,
          "durationTicks": 23,
          "midi": 70,
          "name": "A#4",
          "ticks": 12816,
          "time": 117.79399199999999,
          "velocity": 0.8031496062992126
        },
        {
          "duration": 0.21139683333333892,
          "durationTicks": 23,
          "midi": 75,
          "name": "D#5",
          "ticks": 12816,
          "time": 117.79399199999999,
          "velocity": 0.8740157480314961
        },
        {
          "duration": 0.22058800000000645,
          "durationTicks": 24,
          "midi": 65,
          "name": "F4",
          "ticks": 12839,
          "time": 118.00538883333333,
          "velocity": 0.8661417322834646
        },
        {
          "duration": 0.22058800000000645,
          "durationTicks": 24,
          "midi": 70,
          "name": "A#4",
          "ticks": 12839,
          "time": 118.00538883333333,
          "velocity": 0.7637795275590551
        },
        {
          "duration": 0.22058799999999223,
          "durationTicks": 24,
          "midi": 73,
          "name": "C#5",
          "ticks": 12840,
          "time": 118.01458,
          "velocity": 0.7874015748031497
        },
        {
          "duration": 0.21139683333333892,
          "durationTicks": 23,
          "midi": 77,
          "name": "F5",
          "ticks": 12840,
          "time": 118.01458,
          "velocity": 0.905511811023622
        },
        {
          "duration": 0.018382333333335055,
          "durationTicks": 2,
          "midi": 70,
          "name": "A#4",
          "ticks": 12863,
          "time": 118.22597683333333,
          "velocity": 0.905511811023622
        },
        {
          "duration": 0.009191166666681738,
          "durationTicks": 1,
          "midi": 75,
          "name": "D#5",
          "ticks": 12864,
          "time": 118.23516799999999,
          "velocity": 0.8740157480314961
        },
        {
          "duration": 0.009191166666653316,
          "durationTicks": 1,
          "midi": 65,
          "name": "F4",
          "ticks": 12875,
          "time": 118.33627083333333,
          "velocity": 0.8976377952755905
        },
        {
          "duration": 0.4411759999999987,
          "durationTicks": 48,
          "midi": 54,
          "name": "F#3",
          "ticks": 12887,
          "time": 118.44656483333333,
          "velocity": 0.7637795275590551
        },
        {
          "duration": 0.4411759999999987,
          "durationTicks": 48,
          "midi": 61,
          "name": "C#4",
          "ticks": 12887,
          "time": 118.44656483333333,
          "velocity": 0.8582677165354331
        },
        {
          "duration": 0.4411759999999987,
          "durationTicks": 48,
          "midi": 65,
          "name": "F4",
          "ticks": 12887,
          "time": 118.44656483333333,
          "velocity": 0.8661417322834646
        },
        {
          "duration": 0.43198483333333115,
          "durationTicks": 47,
          "midi": 70,
          "name": "A#4",
          "ticks": 12888,
          "time": 118.455756,
          "velocity": 0.9212598425196851
        },
        {
          "duration": 0.43198483333333115,
          "durationTicks": 47,
          "midi": 75,
          "name": "D#5",
          "ticks": 12888,
          "time": 118.455756,
          "velocity": 0.84251968503937
        },
        {
          "duration": 0.22058800000000645,
          "durationTicks": 24,
          "midi": 54,
          "name": "F#3",
          "ticks": 12935,
          "time": 118.88774083333332,
          "velocity": 0.7874015748031497
        },
        {
          "duration": 0.22058800000000645,
          "durationTicks": 24,
          "midi": 61,
          "name": "C#4",
          "ticks": 12935,
          "time": 118.88774083333332,
          "velocity": 0.8110236220472441
        },
        {
          "duration": 0.21139683333333892,
          "durationTicks": 23,
          "midi": 65,
          "name": "F4",
          "ticks": 12936,
          "time": 118.89693199999999,
          "velocity": 0.84251968503937
        },
        {
          "duration": 0.21139683333333892,
          "durationTicks": 23,
          "midi": 70,
          "name": "A#4",
          "ticks": 12936,
          "time": 118.89693199999999,
          "velocity": 0.8031496062992126
        },
        {
          "duration": 0.21139683333333892,
          "durationTicks": 23,
          "midi": 75,
          "name": "D#5",
          "ticks": 12936,
          "time": 118.89693199999999,
          "velocity": 0.8740157480314961
        },
        {
          "duration": 0.11029399999999612,
          "durationTicks": 12,
          "midi": 65,
          "name": "F4",
          "ticks": 12959,
          "time": 119.10832883333333,
          "velocity": 0.8661417322834646
        },
        {
          "duration": 0.11029399999999612,
          "durationTicks": 12,
          "midi": 70,
          "name": "A#4",
          "ticks": 12959,
          "time": 119.10832883333333,
          "velocity": 0.7637795275590551
        },
        {
          "duration": 0.1011028333333428,
          "durationTicks": 11,
          "midi": 73,
          "name": "C#5",
          "ticks": 12960,
          "time": 119.11751999999998,
          "velocity": 0.7874015748031497
        },
        {
          "duration": 0.1011028333333428,
          "durationTicks": 11,
          "midi": 77,
          "name": "F5",
          "ticks": 12960,
          "time": 119.11751999999998,
          "velocity": 0.905511811023622
        },
        {
          "duration": 0.018382333333349266,
          "durationTicks": 2,
          "midi": 70,
          "name": "A#4",
          "ticks": 12971,
          "time": 119.21862283333333,
          "velocity": 0.905511811023622
        },
        {
          "duration": 0.009191166666681738,
          "durationTicks": 1,
          "midi": 75,
          "name": "D#5",
          "ticks": 12972,
          "time": 119.227814,
          "velocity": 0.8740157480314961
        },
        {
          "duration": 0.009191166666667527,
          "durationTicks": 1,
          "midi": 65,
          "name": "F4",
          "ticks": 12983,
          "time": 119.32891683333332,
          "velocity": 0.8976377952755905
        },
        {
          "duration": 0.11029399999999612,
          "durationTicks": 12,
          "midi": 75,
          "name": "D#5",
          "ticks": 12995,
          "time": 119.43921083333333,
          "velocity": 0.8267716535433071
        },
        {
          "duration": 0.22058800000000645,
          "durationTicks": 24,
          "midi": 54,
          "name": "F#3",
          "ticks": 13007,
          "time": 119.54950483333333,
          "velocity": 0.7874015748031497
        },
        {
          "duration": 0.22058800000000645,
          "durationTicks": 24,
          "midi": 61,
          "name": "C#4",
          "ticks": 13007,
          "time": 119.54950483333333,
          "velocity": 0.8110236220472441
        },
        {
          "duration": 0.21139683333335313,
          "durationTicks": 23,
          "midi": 65,
          "name": "F4",
          "ticks": 13008,
          "time": 119.55869599999998,
          "velocity": 0.84251968503937
        },
        {
          "duration": 0.21139683333335313,
          "durationTicks": 23,
          "midi": 70,
          "name": "A#4",
          "ticks": 13008,
          "time": 119.55869599999998,
          "velocity": 0.8031496062992126
        },
        {
          "duration": 0.21139683333335313,
          "durationTicks": 23,
          "midi": 75,
          "name": "D#5",
          "ticks": 13008,
          "time": 119.55869599999998,
          "velocity": 0.8740157480314961
        },
        {
          "duration": 0.22058799999999223,
          "durationTicks": 24,
          "midi": 65,
          "name": "F4",
          "ticks": 13031,
          "time": 119.77009283333334,
          "velocity": 0.8661417322834646
        },
        {
          "duration": 0.22058799999999223,
          "durationTicks": 24,
          "midi": 70,
          "name": "A#4",
          "ticks": 13031,
          "time": 119.77009283333334,
          "velocity": 0.7637795275590551
        },
        {
          "duration": 0.22058799999999223,
          "durationTicks": 24,
          "midi": 73,
          "name": "C#5",
          "ticks": 13032,
          "time": 119.77928399999999,
          "velocity": 0.7874015748031497
        },
        {
          "duration": 0.21139683333333892,
          "durationTicks": 23,
          "midi": 77,
          "name": "F5",
          "ticks": 13032,
          "time": 119.77928399999999,
          "velocity": 0.905511811023622
        },
        {
          "duration": 0.11029399999999612,
          "durationTicks": 12,
          "midi": 61,
          "name": "C#4",
          "ticks": 13055,
          "time": 119.99068083333333,
          "velocity": 0.8110236220472441
        },
        {
          "duration": 0.11029399999999612,
          "durationTicks": 12,
          "midi": 65,
          "name": "F4",
          "ticks": 13055,
          "time": 119.99068083333333,
          "velocity": 0.84251968503937
        },
        {
          "duration": 0.1011028333333428,
          "durationTicks": 11,
          "midi": 70,
          "name": "A#4",
          "ticks": 13056,
          "time": 119.99987199999998,
          "velocity": 0.8031496062992126
        },
        {
          "duration": 0.1011028333333428,
          "durationTicks": 11,
          "midi": 75,
          "name": "D#5",
          "ticks": 13056,
          "time": 119.99987199999998,
          "velocity": 0.8740157480314961
        },
        {
          "duration": 0.11029400000001033,
          "durationTicks": 12,
          "midi": 77,
          "name": "F5",
          "ticks": 13067,
          "time": 120.10097483333332,
          "velocity": 0.905511811023622
        },
        {
          "duration": 0.11029400000001033,
          "durationTicks": 12,
          "midi": 73,
          "name": "C#5",
          "ticks": 13067,
          "time": 120.10097483333332,
          "velocity": 0.7874015748031497
        },
        {
          "duration": 0.1011028333333428,
          "durationTicks": 11,
          "midi": 70,
          "name": "A#4",
          "ticks": 13068,
          "time": 120.11016599999999,
          "velocity": 0.7637795275590551
        },
        {
          "duration": 0.018382333333335055,
          "durationTicks": 2,
          "midi": 54,
          "name": "F#3",
          "ticks": 13079,
          "time": 120.21126883333334,
          "velocity": 0.905511811023622
        },
        {
          "duration": 0.009191166666681738,
          "durationTicks": 1,
          "midi": 61,
          "name": "C#4",
          "ticks": 13080,
          "time": 120.22045999999999,
          "velocity": 0.8740157480314961
        },
        {
          "duration": 0.06433816666665848,
          "durationTicks": 7,
          "midi": 75,
          "name": "D#5",
          "ticks": 13091,
          "time": 120.32156283333333,
          "velocity": 0.905511811023622
        },
        {
          "duration": 0.055147000000005164,
          "durationTicks": 6,
          "midi": 73,
          "name": "C#5",
          "ticks": 13091,
          "time": 120.32156283333333,
          "velocity": 0.7874015748031497
        },
        {
          "duration": 0.04595583333335185,
          "durationTicks": 5,
          "midi": 70,
          "name": "A#4",
          "ticks": 13092,
          "time": 120.33075399999998,
          "velocity": 0.7637795275590551
        },
        {
          "duration": 0.4411759999999987,
          "durationTicks": 48,
          "midi": 53,
          "name": "F3",
          "ticks": 13103,
          "time": 120.43185683333333,
          "velocity": 0.7874015748031497
        },
        {
          "duration": 0.4411759999999987,
          "durationTicks": 48,
          "midi": 63,
          "name": "D#4",
          "ticks": 13103,
          "time": 120.43185683333333,
          "velocity": 0.905511811023622
        },
        {
          "duration": 0.4411759999999987,
          "durationTicks": 48,
          "midi": 68,
          "name": "G#4",
          "ticks": 13103,
          "time": 120.43185683333333,
          "velocity": 0.7952755905511811
        },
        {
          "duration": 0.43198483333333115,
          "durationTicks": 47,
          "midi": 72,
          "name": "C5",
          "ticks": 13104,
          "time": 120.441048,
          "velocity": 0.7637795275590551
        },
        {
          "duration": 0.43198483333333115,
          "durationTicks": 47,
          "midi": 75,
          "name": "D#5",
          "ticks": 13104,
          "time": 120.441048,
          "velocity": 0.7322834645669292
        },
        {
          "duration": 0.22058800000000645,
          "durationTicks": 24,
          "midi": 53,
          "name": "F3",
          "ticks": 13151,
          "time": 120.87303283333333,
          "velocity": 0.7795275590551181
        },
        {
          "duration": 0.22058800000000645,
          "durationTicks": 24,
          "midi": 63,
          "name": "D#4",
          "ticks": 13151,
          "time": 120.87303283333333,
          "velocity": 0.8031496062992126
        },
        {
          "duration": 0.21139683333333892,
          "durationTicks": 23,
          "midi": 68,
          "name": "G#4",
          "ticks": 13152,
          "time": 120.882224,
          "velocity": 0.905511811023622
        },
        {
          "duration": 0.21139683333333892,
          "durationTicks": 23,
          "midi": 72,
          "name": "C5",
          "ticks": 13152,
          "time": 120.882224,
          "velocity": 0.7637795275590551
        },
        {
          "duration": 0.018382333333335055,
          "durationTicks": 2,
          "midi": 63,
          "name": "D#4",
          "ticks": 13175,
          "time": 121.09362083333333,
          "velocity": 0.8976377952755905
        },
        {
          "duration": 0.009191166666681738,
          "durationTicks": 1,
          "midi": 72,
          "name": "C5",
          "ticks": 13176,
          "time": 121.10281199999999,
          "velocity": 0.9133858267716536
        },
        {
          "duration": 0.018382333333349266,
          "durationTicks": 2,
          "midi": 68,
          "name": "G#4",
          "ticks": 13187,
          "time": 121.20391483333333,
          "velocity": 0.8976377952755905
        },
        {
          "duration": 0.22058800000000645,
          "durationTicks": 24,
          "midi": 53,
          "name": "F3",
          "ticks": 13199,
          "time": 121.31420883333332,
          "velocity": 0.7874015748031497
        },
        {
          "duration": 0.22058800000000645,
          "durationTicks": 24,
          "midi": 65,
          "name": "F4",
          "ticks": 13199,
          "time": 121.31420883333332,
          "velocity": 0.8110236220472441
        },
        {
          "duration": 0.21139683333333892,
          "durationTicks": 23,
          "midi": 68,
          "name": "G#4",
          "ticks": 13200,
          "time": 121.32339999999999,
          "velocity": 0.905511811023622
        },
        {
          "duration": 0.21139683333333892,
          "durationTicks": 23,
          "midi": 72,
          "name": "C5",
          "ticks": 13200,
          "time": 121.32339999999999,
          "velocity": 0.7874015748031497
        },
        {
          "duration": 0.21139683333333892,
          "durationTicks": 23,
          "midi": 75,
          "name": "D#5",
          "ticks": 13200,
          "time": 121.32339999999999,
          "velocity": 0.7716535433070866
        },
        {
          "duration": 0.22058800000000645,
          "durationTicks": 24,
          "midi": 63,
          "name": "D#4",
          "ticks": 13223,
          "time": 121.53479683333333,
          "velocity": 0.8661417322834646
        },
        {
          "duration": 0.22058800000000645,
          "durationTicks": 24,
          "midi": 68,
          "name": "G#4",
          "ticks": 13223,
          "time": 121.53479683333333,
          "velocity": 0.8976377952755905
        },
        {
          "duration": 0.22058800000000645,
          "durationTicks": 24,
          "midi": 72,
          "name": "C5",
          "ticks": 13223,
          "time": 121.53479683333333,
          "velocity": 0.7874015748031497
        },
        {
          "duration": 0.21139683333335313,
          "durationTicks": 23,
          "midi": 75,
          "name": "D#5",
          "ticks": 13224,
          "time": 121.54398799999998,
          "velocity": 0.8740157480314961
        },
        {
          "duration": 0.018382333333335055,
          "durationTicks": 2,
          "midi": 68,
          "name": "G#4",
          "ticks": 13247,
          "time": 121.75538483333334,
          "velocity": 0.905511811023622
        },
        {
          "duration": 0.009191166666681738,
          "durationTicks": 1,
          "midi": 72,
          "name": "C5",
          "ticks": 13248,
          "time": 121.76457599999999,
          "velocity": 0.8740157480314961
        },
        {
          "duration": 0.009191166666653316,
          "durationTicks": 1,
          "midi": 63,
          "name": "D#4",
          "ticks": 13259,
          "time": 121.86567883333333,
          "velocity": 0.8976377952755905
        },
        {
          "duration": 0.4411759999999987,
          "durationTicks": 48,
          "midi": 46,
          "name": "A#2",
          "ticks": 13271,
          "time": 121.97597283333333,
          "velocity": 0.7637795275590551
        },
        {
          "duration": 0.4411759999999987,
          "durationTicks": 48,
          "midi": 53,
          "name": "F3",
          "ticks": 13271,
          "time": 121.97597283333333,
          "velocity": 0.8582677165354331
        },
        {
          "duration": 0.4411759999999987,
          "durationTicks": 48,
          "midi": 63,
          "name": "D#4",
          "ticks": 13271,
          "time": 121.97597283333333,
          "velocity": 0.8661417322834646
        },
        {
          "duration": 0.43198483333334536,
          "durationTicks": 47,
          "midi": 68,
          "name": "G#4",
          "ticks": 13272,
          "time": 121.98516399999998,
          "velocity": 0.9212598425196851
        },
        {
          "duration": 0.43198483333334536,
          "durationTicks": 47,
          "midi": 72,
          "name": "C5",
          "ticks": 13272,
          "time": 121.98516399999998,
          "velocity": 0.84251968503937
        },
        {
          "duration": 0.22058800000000645,
          "durationTicks": 24,
          "midi": 46,
          "name": "A#2",
          "ticks": 13319,
          "time": 122.41714883333333,
          "velocity": 0.7637795275590551
        },
        {
          "duration": 0.22058800000000645,
          "durationTicks": 24,
          "midi": 53,
          "name": "F3",
          "ticks": 13319,
          "time": 122.41714883333333,
          "velocity": 0.7874015748031497
        },
        {
          "duration": 0.22058800000000645,
          "durationTicks": 24,
          "midi": 63,
          "name": "D#4",
          "ticks": 13320,
          "time": 122.42633999999998,
          "velocity": 0.7637795275590551
        },
        {
          "duration": 0.21139683333335313,
          "durationTicks": 23,
          "midi": 68,
          "name": "G#4",
          "ticks": 13320,
          "time": 122.42633999999998,
          "velocity": 0.8740157480314961
        },
        {
          "duration": 0.018382333333335055,
          "durationTicks": 2,
          "midi": 46,
          "name": "A#2",
          "ticks": 13343,
          "time": 122.63773683333334,
          "velocity": 0.905511811023622
        },
        {
          "duration": 0.009191166666681738,
          "durationTicks": 1,
          "midi": 53,
          "name": "F3",
          "ticks": 13344,
          "time": 122.64692799999999,
          "velocity": 0.8740157480314961
        },
        {
          "duration": 0.027573500000002582,
          "durationTicks": 3,
          "midi": 63,
          "name": "D#4",
          "ticks": 13355,
          "time": 122.74803083333333,
          "velocity": 0.8976377952755905
        },
        {
          "duration": 0.6617640000000051,
          "durationTicks": 72,
          "midi": 46,
          "name": "A#2",
          "ticks": 13367,
          "time": 122.85832483333333,
          "velocity": 0.8188976377952756
        },
        {
          "duration": 0.6617640000000051,
          "durationTicks": 72,
          "midi": 53,
          "name": "F3",
          "ticks": 13367,
          "time": 122.85832483333333,
          "velocity": 0.8110236220472441
        },
        {
          "duration": 0.6525728333333376,
          "durationTicks": 71,
          "midi": 61,
          "name": "C#4",
          "ticks": 13368,
          "time": 122.867516,
          "velocity": 0.84251968503937
        },
        {
          "duration": 0.6525728333333376,
          "durationTicks": 71,
          "midi": 63,
          "name": "D#4",
          "ticks": 13368,
          "time": 122.867516,
          "velocity": 0.8976377952755905
        },
        {
          "duration": 0.6525728333333376,
          "durationTicks": 71,
          "midi": 68,
          "name": "G#4",
          "ticks": 13368,
          "time": 122.867516,
          "velocity": 0.7559055118110236
        },
        {
          "duration": 0.22058799999999223,
          "durationTicks": 24,
          "midi": 46,
          "name": "A#2",
          "ticks": 13439,
          "time": 123.52008883333333,
          "velocity": 0.8661417322834646
        },
        {
          "duration": 0.22058799999999223,
          "durationTicks": 24,
          "midi": 53,
          "name": "F3",
          "ticks": 13439,
          "time": 123.52008883333333,
          "velocity": 0.8110236220472441
        },
        {
          "duration": 0.21139683333333892,
          "durationTicks": 23,
          "midi": 61,
          "name": "C#4",
          "ticks": 13440,
          "time": 123.52927999999999,
          "velocity": 0.905511811023622
        },
        {
          "duration": 0.21139683333333892,
          "durationTicks": 23,
          "midi": 63,
          "name": "D#4",
          "ticks": 13440,
          "time": 123.52927999999999,
          "velocity": 0.7874015748031497
        },
        {
          "duration": 0.21139683333333892,
          "durationTicks": 23,
          "midi": 68,
          "name": "G#4",
          "ticks": 13440,
          "time": 123.52927999999999,
          "velocity": 0.7716535433070866
        },
        {
          "duration": 0.018382333333349266,
          "durationTicks": 2,
          "midi": 46,
          "name": "A#2",
          "ticks": 13463,
          "time": 123.74067683333332,
          "velocity": 0.905511811023622
        },
        {
          "duration": 0.009191166666681738,
          "durationTicks": 1,
          "midi": 53,
          "name": "F3",
          "ticks": 13464,
          "time": 123.74986799999999,
          "velocity": 0.8740157480314961
        },
        {
          "duration": 0.018382333333335055,
          "durationTicks": 2,
          "midi": 63,
          "name": "D#4",
          "ticks": 13475,
          "time": 123.85097083333334,
          "velocity": 0.8976377952755905
        },
        {
          "duration": 0.4411759999999987,
          "durationTicks": 48,
          "midi": 51,
          "name": "D#3",
          "ticks": 13487,
          "time": 123.96126483333333,
          "velocity": 0.8188976377952756
        },
        {
          "duration": 0.4411759999999987,
          "durationTicks": 48,
          "midi": 58,
          "name": "A#3",
          "ticks": 13487,
          "time": 123.96126483333333,
          "velocity": 0.8346456692913385
        },
        {
          "duration": 0.43198483333334536,
          "durationTicks": 47,
          "midi": 61,
          "name": "C#4",
          "ticks": 13488,
          "time": 123.97045599999998,
          "velocity": 0.8976377952755905
        },
        {
          "duration": 0.43198483333334536,
          "durationTicks": 47,
          "midi": 66,
          "name": "F#4",
          "ticks": 13488,
          "time": 123.97045599999998,
          "velocity": 0.8110236220472441
        },
        {
          "duration": 0.43198483333334536,
          "durationTicks": 47,
          "midi": 70,
          "name": "A#4",
          "ticks": 13488,
          "time": 123.97045599999998,
          "velocity": 0.7244094488188977
        },
        {
          "duration": 0.0367646666666559,
          "durationTicks": 4,
          "midi": 51,
          "name": "D#3",
          "ticks": 13535,
          "time": 124.40244083333333,
          "velocity": 0.7322834645669292
        },
        {
          "duration": 0.018382333333349266,
          "durationTicks": 2,
          "midi": 65,
          "name": "F4",
          "ticks": 13547,
          "time": 124.51273483333333,
          "velocity": 0.9133858267716536
        },
        {
          "duration": 0.4411759999999987,
          "durationTicks": 48,
          "midi": 53,
          "name": "F3",
          "ticks": 13559,
          "time": 124.62302883333334,
          "velocity": 0.7559055118110236
        },
        {
          "duration": 0.4411759999999987,
          "durationTicks": 48,
          "midi": 61,
          "name": "C#4",
          "ticks": 13559,
          "time": 124.62302883333334,
          "velocity": 0.8188976377952756
        },
        {
          "duration": 0.43198483333334536,
          "durationTicks": 47,
          "midi": 65,
          "name": "F4",
          "ticks": 13560,
          "time": 124.63221999999999,
          "velocity": 0.889763779527559
        },
        {
          "duration": 0.43198483333334536,
          "durationTicks": 47,
          "midi": 68,
          "name": "G#4",
          "ticks": 13560,
          "time": 124.63221999999999,
          "velocity": 0.8267716535433071
        },
        {
          "duration": 0.43198483333334536,
          "durationTicks": 47,
          "midi": 73,
          "name": "C#5",
          "ticks": 13560,
          "time": 124.63221999999999,
          "velocity": 0.7244094488188977
        },
        {
          "duration": 0.11029399999999612,
          "durationTicks": 12,
          "midi": 65,
          "name": "F4",
          "ticks": 13607,
          "time": 125.06420483333333,
          "velocity": 0.7716535433070866
        },
        {
          "duration": 0.11029399999999612,
          "durationTicks": 12,
          "midi": 68,
          "name": "G#4",
          "ticks": 13607,
          "time": 125.06420483333333,
          "velocity": 0.8267716535433071
        },
        {
          "duration": 0.1011028333333428,
          "durationTicks": 11,
          "midi": 73,
          "name": "C#5",
          "ticks": 13608,
          "time": 125.07339599999999,
          "velocity": 0.905511811023622
        },
        {
          "duration": 0.11029399999999612,
          "durationTicks": 12,
          "midi": 73,
          "name": "C#5",
          "ticks": 13619,
          "time": 125.17449883333333,
          "velocity": 0.7716535433070866
        },
        {
          "duration": 0.11029399999999612,
          "durationTicks": 12,
          "midi": 68,
          "name": "G#4",
          "ticks": 13619,
          "time": 125.17449883333333,
          "velocity": 0.7086614173228346
        },
        {
          "duration": 0.1011028333333428,
          "durationTicks": 11,
          "midi": 65,
          "name": "F4",
          "ticks": 13620,
          "time": 125.18368999999998,
          "velocity": 0.7007874015748031
        },
        {
          "duration": 0.11029400000001033,
          "durationTicks": 12,
          "midi": 68,
          "name": "G#4",
          "ticks": 13631,
          "time": 125.28479283333333,
          "velocity": 0.84251968503937
        },
        {
          "duration": 0.11029399999999612,
          "durationTicks": 12,
          "midi": 73,
          "name": "C#5",
          "ticks": 13643,
          "time": 125.39508683333334,
          "velocity": 0.905511811023622
        },
        {
          "duration": 0.4411759999999987,
          "durationTicks": 48,
          "midi": 54,
          "name": "F#3",
          "ticks": 13655,
          "time": 125.50538083333333,
          "velocity": 0.8188976377952756
        },
        {
          "duration": 0.4411759999999987,
          "durationTicks": 48,
          "midi": 58,
          "name": "A#3",
          "ticks": 13655,
          "time": 125.50538083333333,
          "velocity": 0.8346456692913385
        },
        {
          "duration": 0.43198483333334536,
          "durationTicks": 47,
          "midi": 61,
          "name": "C#4",
          "ticks": 13656,
          "time": 125.51457199999999,
          "velocity": 0.8976377952755905
        },
        {
          "duration": 0.43198483333334536,
          "durationTicks": 47,
          "midi": 66,
          "name": "F#4",
          "ticks": 13656,
          "time": 125.51457199999999,
          "velocity": 0.8110236220472441
        },
        {
          "duration": 0.43198483333334536,
          "durationTicks": 47,
          "midi": 70,
          "name": "A#4",
          "ticks": 13656,
          "time": 125.51457199999999,
          "velocity": 0.7244094488188977
        },
        {
          "duration": 0.22058799999999223,
          "durationTicks": 24,
          "midi": 54,
          "name": "F#3",
          "ticks": 13703,
          "time": 125.94655683333333,
          "velocity": 0.8503937007874016
        },
        {
          "duration": 0.22058799999999223,
          "durationTicks": 24,
          "midi": 58,
          "name": "A#3",
          "ticks": 13703,
          "time": 125.94655683333333,
          "velocity": 0.7874015748031497
        },
        {
          "duration": 0.21139683333333892,
          "durationTicks": 23,
          "midi": 61,
          "name": "C#4",
          "ticks": 13704,
          "time": 125.95574799999999,
          "velocity": 0.8740157480314961
        },
        {
          "duration": 0.21139683333333892,
          "durationTicks": 23,
          "midi": 66,
          "name": "F#4",
          "ticks": 13704,
          "time": 125.95574799999999,
          "velocity": 0.7716535433070866
        },
        {
          "duration": 0.21139683333333892,
          "durationTicks": 23,
          "midi": 70,
          "name": "A#4",
          "ticks": 13704,
          "time": 125.95574799999999,
          "velocity": 0.7559055118110236
        },
        {
          "duration": 0.027573500000002582,
          "durationTicks": 3,
          "midi": 54,
          "name": "F#3",
          "ticks": 13727,
          "time": 126.16714483333332,
          "velocity": 0.8661417322834646
        },
        {
          "duration": 0.018382333333335055,
          "durationTicks": 2,
          "midi": 61,
          "name": "C#4",
          "ticks": 13728,
          "time": 126.17633599999999,
          "velocity": 0.7322834645669292
        },
        {
          "duration": 0.009191166666653316,
          "durationTicks": 1,
          "midi": 70,
          "name": "A#4",
          "ticks": 13739,
          "time": 126.27743883333333,
          "velocity": 0.8740157480314961
        },
        {
          "duration": 0.6617640000000051,
          "durationTicks": 72,
          "midi": 55,
          "name": "G3",
          "ticks": 13751,
          "time": 126.38773283333333,
          "velocity": 0.7559055118110236
        },
        {
          "duration": 0.6617640000000051,
          "durationTicks": 72,
          "midi": 61,
          "name": "C#4",
          "ticks": 13751,
          "time": 126.38773283333333,
          "velocity": 0.8188976377952756
        },
        {
          "duration": 0.6525728333333518,
          "durationTicks": 71,
          "midi": 63,
          "name": "D#4",
          "ticks": 13752,
          "time": 126.39692399999998,
          "velocity": 0.889763779527559
        },
        {
          "duration": 0.43198483333334536,
          "durationTicks": 47,
          "midi": 70,
          "name": "A#4",
          "ticks": 13752,
          "time": 126.39692399999998,
          "velocity": 0.8267716535433071
        },
        {
          "duration": 0.551470000000009,
          "durationTicks": 60,
          "midi": 73,
          "name": "C#5",
          "ticks": 13763,
          "time": 126.49802683333333,
          "velocity": 0.7244094488188977
        },
        {
          "duration": 0.22058800000000645,
          "durationTicks": 24,
          "midi": 70,
          "name": "A#4",
          "ticks": 13799,
          "time": 126.82890883333333,
          "velocity": 0.8267716535433071
        },
        {
          "duration": 0.22058799999999223,
          "durationTicks": 24,
          "midi": 55,
          "name": "G3",
          "ticks": 13823,
          "time": 127.04949683333334,
          "velocity": 0.8031496062992126
        },
        {
          "duration": 0.22058799999999223,
          "durationTicks": 24,
          "midi": 61,
          "name": "C#4",
          "ticks": 13823,
          "time": 127.04949683333334,
          "velocity": 0.8188976377952756
        },
        {
          "duration": 0.21139683333333892,
          "durationTicks": 23,
          "midi": 63,
          "name": "D#4",
          "ticks": 13824,
          "time": 127.05868799999999,
          "velocity": 0.8346456692913385
        },
        {
          "duration": 0.21139683333333892,
          "durationTicks": 23,
          "midi": 70,
          "name": "A#4",
          "ticks": 13824,
          "time": 127.05868799999999,
          "velocity": 0.7244094488188977
        },
        {
          "duration": 0.027573500000002582,
          "durationTicks": 3,
          "midi": 55,
          "name": "G3",
          "ticks": 13847,
          "time": 127.27008483333333,
          "velocity": 0.8661417322834646
        },
        {
          "duration": 0.018382333333335055,
          "durationTicks": 2,
          "midi": 63,
          "name": "D#4",
          "ticks": 13848,
          "time": 127.279276,
          "velocity": 0.9212598425196851
        },
        {
          "duration": 0.1011028333333428,
          "durationTicks": 11,
          "midi": 65,
          "name": "F4",
          "ticks": 13859,
          "time": 127.38037883333332,
          "velocity": 0.8346456692913385
        },
        {
          "duration": 0.4411759999999987,
          "durationTicks": 48,
          "midi": 44,
          "name": "G#2",
          "ticks": 13871,
          "time": 127.49067283333333,
          "velocity": 0.7952755905511811
        },
        {
          "duration": 0.4411759999999987,
          "durationTicks": 48,
          "midi": 51,
          "name": "D#3",
          "ticks": 13871,
          "time": 127.49067283333333,
          "velocity": 0.8346456692913385
        },
        {
          "duration": 0.43198483333334536,
          "durationTicks": 47,
          "midi": 61,
          "name": "C#4",
          "ticks": 13872,
          "time": 127.49986399999999,
          "velocity": 0.8346456692913385
        },
        {
          "duration": 0.4227936666666636,
          "durationTicks": 46,
          "midi": 65,
          "name": "F4",
          "ticks": 13873,
          "time": 127.50905516666667,
          "velocity": 0.8976377952755905
        },
        {
          "duration": 0.4227936666666636,
          "durationTicks": 46,
          "midi": 70,
          "name": "A#4",
          "ticks": 13873,
          "time": 127.50905516666667,
          "velocity": 0.8110236220472441
        },
        {
          "duration": 0.4136024999999961,
          "durationTicks": 45,
          "midi": 73,
          "name": "C#5",
          "ticks": 13874,
          "time": 127.51824633333334,
          "velocity": 0.7244094488188977
        },
        {
          "duration": 0.22058799999999223,
          "durationTicks": 24,
          "midi": 44,
          "name": "G#2",
          "ticks": 13919,
          "time": 127.93184883333333,
          "velocity": 0.6850393700787402
        },
        {
          "duration": 0.22058799999999223,
          "durationTicks": 24,
          "midi": 51,
          "name": "D#3",
          "ticks": 13919,
          "time": 127.93184883333333,
          "velocity": 0.7165354330708661
        },
        {
          "duration": 0.21139683333333892,
          "durationTicks": 23,
          "midi": 61,
          "name": "C#4",
          "ticks": 13920,
          "time": 127.94103999999999,
          "velocity": 0.8346456692913385
        },
        {
          "duration": 0.21139683333333892,
          "durationTicks": 23,
          "midi": 65,
          "name": "F4",
          "ticks": 13920,
          "time": 127.94103999999999,
          "velocity": 0.8661417322834646
        },
        {
          "duration": 0.20220566666665718,
          "durationTicks": 22,
          "midi": 70,
          "name": "A#4",
          "ticks": 13921,
          "time": 127.95023116666667,
          "velocity": 0.8110236220472441
        },
        {
          "duration": 0.20220566666665718,
          "durationTicks": 22,
          "midi": 73,
          "name": "C#5",
          "ticks": 13921,
          "time": 127.95023116666667,
          "velocity": 0.8267716535433071
        },
        {
          "duration": 0.027573500000016793,
          "durationTicks": 3,
          "midi": 56,
          "name": "G#3",
          "ticks": 13943,
          "time": 128.15243683333333,
          "velocity": 0.8661417322834646
        },
        {
          "duration": 0.018382333333335055,
          "durationTicks": 2,
          "midi": 51,
          "name": "D#3",
          "ticks": 13944,
          "time": 128.161628,
          "velocity": 0.7322834645669292
        },
        {
          "duration": 0.009191166666653316,
          "durationTicks": 1,
          "midi": 70,
          "name": "A#4",
          "ticks": 13955,
          "time": 128.26273083333334,
          "velocity": 0.8740157480314961
        },
        {
          "duration": 0.22058799999999223,
          "durationTicks": 24,
          "midi": 44,
          "name": "G#2",
          "ticks": 13967,
          "time": 128.37302483333335,
          "velocity": 0.7952755905511811
        },
        {
          "duration": 0.22058799999999223,
          "durationTicks": 24,
          "midi": 51,
          "name": "D#3",
          "ticks": 13967,
          "time": 128.37302483333335,
          "velocity": 0.8346456692913385
        },
        {
          "duration": 0.22058799999999223,
          "durationTicks": 24,
          "midi": 61,
          "name": "C#4",
          "ticks": 13967,
          "time": 128.37302483333335,
          "velocity": 0.8346456692913385
        },
        {
          "duration": 0.21139683333333892,
          "durationTicks": 23,
          "midi": 65,
          "name": "F4",
          "ticks": 13968,
          "time": 128.382216,
          "velocity": 0.8976377952755905
        },
        {
          "duration": 0.21139683333333892,
          "durationTicks": 23,
          "midi": 70,
          "name": "A#4",
          "ticks": 13968,
          "time": 128.382216,
          "velocity": 0.8110236220472441
        },
        {
          "duration": 0.21139683333333892,
          "durationTicks": 23,
          "midi": 73,
          "name": "C#5",
          "ticks": 13968,
          "time": 128.382216,
          "velocity": 0.7795275590551181
        },
        {
          "duration": 0.22058799999999223,
          "durationTicks": 24,
          "midi": 44,
          "name": "G#2",
          "ticks": 13991,
          "time": 128.59361283333334,
          "velocity": 0.7952755905511811
        },
        {
          "duration": 0.22058799999999223,
          "durationTicks": 24,
          "midi": 51,
          "name": "D#3",
          "ticks": 13991,
          "time": 128.59361283333334,
          "velocity": 0.7401574803149606
        },
        {
          "duration": 0.21139683333333892,
          "durationTicks": 23,
          "midi": 61,
          "name": "C#4",
          "ticks": 13992,
          "time": 128.602804,
          "velocity": 0.8346456692913385
        },
        {
          "duration": 0.21139683333333892,
          "durationTicks": 23,
          "midi": 65,
          "name": "F4",
          "ticks": 13992,
          "time": 128.602804,
          "velocity": 0.8031496062992126
        },
        {
          "duration": 0.21139683333333892,
          "durationTicks": 23,
          "midi": 70,
          "name": "A#4",
          "ticks": 13992,
          "time": 128.602804,
          "velocity": 0.7716535433070866
        },
        {
          "duration": 0.21139683333333892,
          "durationTicks": 23,
          "midi": 73,
          "name": "C#5",
          "ticks": 13992,
          "time": 128.602804,
          "velocity": 0.8267716535433071
        },
        {
          "duration": 0.027573500000016793,
          "durationTicks": 3,
          "midi": 56,
          "name": "G#3",
          "ticks": 14015,
          "time": 128.81420083333333,
          "velocity": 0.8661417322834646
        },
        {
          "duration": 0.018382333333363476,
          "durationTicks": 2,
          "midi": 51,
          "name": "D#3",
          "ticks": 14016,
          "time": 128.82339199999998,
          "velocity": 0.7322834645669292
        },
        {
          "duration": 0.009191166666653316,
          "durationTicks": 1,
          "midi": 70,
          "name": "A#4",
          "ticks": 14027,
          "time": 128.92449483333334,
          "velocity": 0.8740157480314961
        },
        {
          "duration": 0.6617639999999767,
          "durationTicks": 72,
          "midi": 53,
          "name": "F3",
          "ticks": 14039,
          "time": 129.03478883333335,
          "velocity": 0.7952755905511811
        },
        {
          "duration": 0.6617639999999767,
          "durationTicks": 72,
          "midi": 60,
          "name": "C4",
          "ticks": 14039,
          "time": 129.03478883333335,
          "velocity": 0.8346456692913385
        },
        {
          "duration": 0.6525728333333234,
          "durationTicks": 71,
          "midi": 63,
          "name": "D#4",
          "ticks": 14040,
          "time": 129.04398,
          "velocity": 0.8976377952755905
        },
        {
          "duration": 0.6525728333333234,
          "durationTicks": 71,
          "midi": 69,
          "name": "A4",
          "ticks": 14040,
          "time": 129.04398,
          "velocity": 0.8110236220472441
        },
        {
          "duration": 0.6525728333333234,
          "durationTicks": 71,
          "midi": 72,
          "name": "C5",
          "ticks": 14040,
          "time": 129.04398,
          "velocity": 0.7795275590551181
        },
        {
          "duration": 0.22058800000002066,
          "durationTicks": 24,
          "midi": 53,
          "name": "F3",
          "ticks": 14111,
          "time": 129.69655283333333,
          "velocity": 0.8503937007874016
        },
        {
          "duration": 0.22058800000002066,
          "durationTicks": 24,
          "midi": 60,
          "name": "C4",
          "ticks": 14111,
          "time": 129.69655283333333,
          "velocity": 0.7874015748031497
        },
        {
          "duration": 0.21139683333333892,
          "durationTicks": 23,
          "midi": 63,
          "name": "D#4",
          "ticks": 14112,
          "time": 129.705744,
          "velocity": 0.889763779527559
        },
        {
          "duration": 0.21139683333333892,
          "durationTicks": 23,
          "midi": 69,
          "name": "A4",
          "ticks": 14112,
          "time": 129.705744,
          "velocity": 0.7637795275590551
        },
        {
          "duration": 0.21139683333333892,
          "durationTicks": 23,
          "midi": 72,
          "name": "C5",
          "ticks": 14112,
          "time": 129.705744,
          "velocity": 0.7716535433070866
        },
        {
          "duration": 0.018382333333335055,
          "durationTicks": 2,
          "midi": 53,
          "name": "F3",
          "ticks": 14135,
          "time": 129.91714083333335,
          "velocity": 0.8503937007874016
        },
        {
          "duration": 0.018382333333335055,
          "durationTicks": 2,
          "midi": 60,
          "name": "C4",
          "ticks": 14136,
          "time": 129.926332,
          "velocity": 0.8188976377952756
        },
        {
          "duration": 0.4411760000000129,
          "durationTicks": 48,
          "midi": 60,
          "name": "C4",
          "ticks": 14159,
          "time": 130.13772883333334,
          "velocity": 0.8661417322834646
        },
        {
          "duration": 0.6617640000000051,
          "durationTicks": 72,
          "midi": 63,
          "name": "D#4",
          "ticks": 14183,
          "time": 130.35831683333333,
          "velocity": 0.9212598425196851
        },
        {
          "duration": 0.44117599999998447,
          "durationTicks": 48,
          "midi": 60,
          "name": "C4",
          "ticks": 14207,
          "time": 130.57890483333335,
          "velocity": 0.8188976377952756
        },
        {
          "duration": 0.22058799999999223,
          "durationTicks": 24,
          "midi": 57,
          "name": "A3",
          "ticks": 14231,
          "time": 130.79949283333335,
          "velocity": 0.84251968503937
        },
        {
          "duration": 0.18382333333335055,
          "durationTicks": 20,
          "midi": 65,
          "name": "F4",
          "ticks": 14255,
          "time": 131.02008083333334,
          "velocity": 0.7795275590551181
        },
        {
          "duration": 0.18382333333335055,
          "durationTicks": 20,
          "midi": 70,
          "name": "A#4",
          "ticks": 14255,
          "time": 131.02008083333334,
          "velocity": 1
        },
        {
          "duration": 0.18382333333332213,
          "durationTicks": 20,
          "midi": 61,
          "name": "C#4",
          "ticks": 14279,
          "time": 131.24066883333336,
          "velocity": 0.7795275590551181
        },
        {
          "duration": 0.18382333333332213,
          "durationTicks": 20,
          "midi": 65,
          "name": "F4",
          "ticks": 14279,
          "time": 131.24066883333336,
          "velocity": 1
        },
        {
          "duration": 0.14705866666665202,
          "durationTicks": 16,
          "midi": 65,
          "name": "F4",
          "ticks": 14303,
          "time": 131.46125683333335,
          "velocity": 0.7795275590551181
        },
        {
          "duration": 0.14705866666665202,
          "durationTicks": 16,
          "midi": 70,
          "name": "A#4",
          "ticks": 14303,
          "time": 131.46125683333335,
          "velocity": 1
        },
        {
          "duration": 0.3860290000000077,
          "durationTicks": 42,
          "midi": 63,
          "name": "D#4",
          "ticks": 14327,
          "time": 131.68184483333334,
          "velocity": 0.7795275590551181
        },
        {
          "duration": 0.39522016666666104,
          "durationTicks": 43,
          "midi": 68,
          "name": "G#4",
          "ticks": 14327,
          "time": 131.68184483333334,
          "velocity": 1
        },
        {
          "duration": 0.18382333333332213,
          "durationTicks": 20,
          "midi": 61,
          "name": "C#4",
          "ticks": 14375,
          "time": 132.12302083333336,
          "velocity": 0.7795275590551181
        },
        {
          "duration": 0.18382333333332213,
          "durationTicks": 20,
          "midi": 66,
          "name": "F#4",
          "ticks": 14375,
          "time": 132.12302083333336,
          "velocity": 1
        },
        {
          "duration": 0.1746321666666688,
          "durationTicks": 19,
          "midi": 60,
          "name": "C4",
          "ticks": 14399,
          "time": 132.34360883333335,
          "velocity": 0.7795275590551181
        },
        {
          "duration": 0.1746321666666688,
          "durationTicks": 19,
          "midi": 65,
          "name": "F4",
          "ticks": 14399,
          "time": 132.34360883333335,
          "velocity": 1
        },
        {
          "duration": 0.3768378333333544,
          "durationTicks": 41,
          "midi": 61,
          "name": "C#4",
          "ticks": 14423,
          "time": 132.56419683333334,
          "velocity": 0.7795275590551181
        },
        {
          "duration": 0.3768378333333544,
          "durationTicks": 41,
          "midi": 66,
          "name": "F#4",
          "ticks": 14423,
          "time": 132.56419683333334,
          "velocity": 1
        },
        {
          "duration": 0.15624983333333375,
          "durationTicks": 17,
          "midi": 60,
          "name": "C4",
          "ticks": 14471,
          "time": 133.00537283333335,
          "velocity": 0.7795275590551181
        },
        {
          "duration": 0.15624983333333375,
          "durationTicks": 17,
          "midi": 65,
          "name": "F4",
          "ticks": 14471,
          "time": 133.00537283333335,
          "velocity": 1
        },
        {
          "duration": 0.1746321666666688,
          "durationTicks": 19,
          "midi": 58,
          "name": "A#3",
          "ticks": 14495,
          "time": 133.22596083333335,
          "velocity": 0.7795275590551181
        },
        {
          "duration": 0.1746321666666688,
          "durationTicks": 19,
          "midi": 63,
          "name": "D#4",
          "ticks": 14495,
          "time": 133.22596083333335,
          "velocity": 1
        },
        {
          "duration": 0.3860290000000077,
          "durationTicks": 42,
          "midi": 60,
          "name": "C4",
          "ticks": 14519,
          "time": 133.44654883333334,
          "velocity": 0.7795275590551181
        },
        {
          "duration": 0.3860290000000077,
          "durationTicks": 42,
          "midi": 65,
          "name": "F4",
          "ticks": 14519,
          "time": 133.44654883333334,
          "velocity": 1
        },
        {
          "duration": 0.15624983333333375,
          "durationTicks": 17,
          "midi": 58,
          "name": "A#3",
          "ticks": 14567,
          "time": 133.88772483333335,
          "velocity": 0.7795275590551181
        },
        {
          "duration": 0.15624983333333375,
          "durationTicks": 17,
          "midi": 63,
          "name": "D#4",
          "ticks": 14567,
          "time": 133.88772483333335,
          "velocity": 1
        },
        {
          "duration": 0.3860290000000077,
          "durationTicks": 42,
          "midi": 56,
          "name": "G#3",
          "ticks": 14591,
          "time": 134.10831283333334,
          "velocity": 0.7795275590551181
        },
        {
          "duration": 0.39522016666666104,
          "durationTicks": 43,
          "midi": 60,
          "name": "C4",
          "ticks": 14591,
          "time": 134.10831283333334,
          "velocity": 1
        },
        {
          "duration": 0.15624983333333375,
          "durationTicks": 17,
          "midi": 58,
          "name": "A#3",
          "ticks": 14639,
          "time": 134.54948883333336,
          "velocity": 0.7795275590551181
        },
        {
          "duration": 0.15624983333333375,
          "durationTicks": 17,
          "midi": 61,
          "name": "C#4",
          "ticks": 14639,
          "time": 134.54948883333336,
          "velocity": 1
        },
        {
          "duration": 0.1746321666666688,
          "durationTicks": 19,
          "midi": 56,
          "name": "G#3",
          "ticks": 14663,
          "time": 134.77007683333335,
          "velocity": 0.7795275590551181
        },
        {
          "duration": 0.1746321666666688,
          "durationTicks": 19,
          "midi": 60,
          "name": "C4",
          "ticks": 14663,
          "time": 134.77007683333335,
          "velocity": 1
        },
        {
          "duration": 0.1378674999999987,
          "durationTicks": 15,
          "midi": 58,
          "name": "A#3",
          "ticks": 14687,
          "time": 134.99066483333334,
          "velocity": 0.7795275590551181
        },
        {
          "duration": 0.1378674999999987,
          "durationTicks": 15,
          "midi": 61,
          "name": "C#4",
          "ticks": 14687,
          "time": 134.99066483333334,
          "velocity": 1
        },
        {
          "duration": 0.3768378333333544,
          "durationTicks": 41,
          "midi": 60,
          "name": "C4",
          "ticks": 14711,
          "time": 135.21125283333333,
          "velocity": 0.7795275590551181
        },
        {
          "duration": 0.3768378333333544,
          "durationTicks": 41,
          "midi": 63,
          "name": "D#4",
          "ticks": 14711,
          "time": 135.21125283333333,
          "velocity": 1
        },
        {
          "duration": 0.15624983333333375,
          "durationTicks": 17,
          "midi": 58,
          "name": "A#3",
          "ticks": 14759,
          "time": 135.65242883333335,
          "velocity": 0.7795275590551181
        },
        {
          "duration": 0.15624983333333375,
          "durationTicks": 17,
          "midi": 61,
          "name": "C#4",
          "ticks": 14759,
          "time": 135.65242883333335,
          "velocity": 1
        },
        {
          "duration": 0.14705866666665202,
          "durationTicks": 16,
          "midi": 60,
          "name": "C4",
          "ticks": 14783,
          "time": 135.87301683333334,
          "velocity": 0.7795275590551181
        },
        {
          "duration": 0.14705866666665202,
          "durationTicks": 16,
          "midi": 63,
          "name": "D#4",
          "ticks": 14783,
          "time": 135.87301683333334,
          "velocity": 1
        },
        {
          "duration": 1.8658068333333233,
          "durationTicks": 203,
          "midi": 62,
          "name": "D4",
          "ticks": 14808,
          "time": 136.102796,
          "velocity": 0.7795275590551181
        },
        {
          "duration": 1.8658068333333233,
          "durationTicks": 203,
          "midi": 65,
          "name": "F4",
          "ticks": 14808,
          "time": 136.102796,
          "velocity": 1
        },
        {
          "duration": 0.4136024999999961,
          "durationTicks": 45,
          "midi": 41,
          "name": "F2",
          "ticks": 16127,
          "time": 148.22594483333336,
          "velocity": 0.7322834645669292
        },
        {
          "duration": 0.4227936666666494,
          "durationTicks": 46,
          "midi": 57,
          "name": "A3",
          "ticks": 16127,
          "time": 148.22594483333336,
          "velocity": 0.8976377952755905
        },
        {
          "duration": 0.42279366666667784,
          "durationTicks": 46,
          "midi": 60,
          "name": "C4",
          "ticks": 16128,
          "time": 148.235136,
          "velocity": 0.7480314960629921
        },
        {
          "duration": 0.4136024999999961,
          "durationTicks": 45,
          "midi": 63,
          "name": "D#4",
          "ticks": 16128,
          "time": 148.235136,
          "velocity": 0.7480314960629921
        },
        {
          "duration": 0.4136024999999961,
          "durationTicks": 45,
          "midi": 68,
          "name": "G#4",
          "ticks": 16128,
          "time": 148.235136,
          "velocity": 0.8031496062992126
        },
        {
          "duration": 0.22058799999999223,
          "durationTicks": 24,
          "midi": 58,
          "name": "A#3",
          "ticks": 16175,
          "time": 148.66712083333334,
          "velocity": 0.8110236220472441
        },
        {
          "duration": 0.22058799999999223,
          "durationTicks": 24,
          "midi": 63,
          "name": "D#4",
          "ticks": 16175,
          "time": 148.66712083333334,
          "velocity": 0.8740157480314961
        },
        {
          "duration": 0.22058799999999223,
          "durationTicks": 24,
          "midi": 68,
          "name": "G#4",
          "ticks": 16175,
          "time": 148.66712083333334,
          "velocity": 0.8661417322834646
        },
        {
          "duration": 0.21139683333333892,
          "durationTicks": 23,
          "midi": 73,
          "name": "C#5",
          "ticks": 16176,
          "time": 148.676312,
          "velocity": 0.8267716535433071
        },
        {
          "duration": 0.21139683333333892,
          "durationTicks": 23,
          "midi": 75,
          "name": "D#5",
          "ticks": 16176,
          "time": 148.676312,
          "velocity": 0.9133858267716536
        },
        {
          "duration": 0.03676466666667011,
          "durationTicks": 4,
          "midi": 58,
          "name": "A#3",
          "ticks": 16199,
          "time": 148.88770883333333,
          "velocity": 0.8031496062992126
        },
        {
          "duration": 0.02757349999998837,
          "durationTicks": 3,
          "midi": 63,
          "name": "D#4",
          "ticks": 16200,
          "time": 148.89690000000002,
          "velocity": 0.9133858267716536
        },
        {
          "duration": 0.11029400000001033,
          "durationTicks": 12,
          "midi": 75,
          "name": "D#5",
          "ticks": 16211,
          "time": 148.99800283333335,
          "velocity": 0.9133858267716536
        },
        {
          "duration": 0.11029400000001033,
          "durationTicks": 12,
          "midi": 73,
          "name": "C#5",
          "ticks": 16211,
          "time": 148.99800283333335,
          "velocity": 0.8661417322834646
        },
        {
          "duration": 0.10110283333335701,
          "durationTicks": 11,
          "midi": 68,
          "name": "G#4",
          "ticks": 16212,
          "time": 149.007194,
          "velocity": 0.8661417322834646
        },
        {
          "duration": 0.10110283333335701,
          "durationTicks": 11,
          "midi": 63,
          "name": "D#4",
          "ticks": 16212,
          "time": 149.007194,
          "velocity": 0.8740157480314961
        },
        {
          "duration": 0.02757349999998837,
          "durationTicks": 3,
          "midi": 63,
          "name": "D#4",
          "ticks": 16223,
          "time": 149.10829683333336,
          "velocity": 0.905511811023622
        },
        {
          "duration": 0.02757349999998837,
          "durationTicks": 3,
          "midi": 68,
          "name": "G#4",
          "ticks": 16224,
          "time": 149.117488,
          "velocity": 0.8031496062992126
        },
        {
          "duration": 0.018382333333363476,
          "durationTicks": 2,
          "midi": 63,
          "name": "D#4",
          "ticks": 16235,
          "time": 149.21859083333334,
          "velocity": 0.9133858267716536
        },
        {
          "duration": 0.22058799999999223,
          "durationTicks": 24,
          "midi": 63,
          "name": "D#4",
          "ticks": 16247,
          "time": 149.32888483333335,
          "velocity": 0.8740157480314961
        },
        {
          "duration": 0.22058799999999223,
          "durationTicks": 24,
          "midi": 68,
          "name": "G#4",
          "ticks": 16247,
          "time": 149.32888483333335,
          "velocity": 0.8661417322834646
        },
        {
          "duration": 0.21139683333333892,
          "durationTicks": 23,
          "midi": 73,
          "name": "C#5",
          "ticks": 16248,
          "time": 149.338076,
          "velocity": 0.8267716535433071
        },
        {
          "duration": 0.21139683333333892,
          "durationTicks": 23,
          "midi": 75,
          "name": "D#5",
          "ticks": 16248,
          "time": 149.338076,
          "velocity": 0.9133858267716536
        },
        {
          "duration": 0.027573500000016793,
          "durationTicks": 3,
          "midi": 58,
          "name": "A#3",
          "ticks": 16271,
          "time": 149.54947283333334,
          "velocity": 0.8031496062992126
        },
        {
          "duration": 0.027573500000016793,
          "durationTicks": 3,
          "midi": 63,
          "name": "D#4",
          "ticks": 16272,
          "time": 149.558664,
          "velocity": 0.9133858267716536
        },
        {
          "duration": 0.1102939999999819,
          "durationTicks": 12,
          "midi": 75,
          "name": "D#5",
          "ticks": 16283,
          "time": 149.65976683333335,
          "velocity": 0.9133858267716536
        },
        {
          "duration": 0.1102939999999819,
          "durationTicks": 12,
          "midi": 72,
          "name": "C5",
          "ticks": 16283,
          "time": 149.65976683333335,
          "velocity": 0.8661417322834646
        },
        {
          "duration": 0.10110283333332859,
          "durationTicks": 11,
          "midi": 68,
          "name": "G#4",
          "ticks": 16284,
          "time": 149.668958,
          "velocity": 0.8661417322834646
        },
        {
          "duration": 0.10110283333332859,
          "durationTicks": 11,
          "midi": 63,
          "name": "D#4",
          "ticks": 16284,
          "time": 149.668958,
          "velocity": 0.8740157480314961
        },
        {
          "duration": 0.027573500000016793,
          "durationTicks": 3,
          "midi": 63,
          "name": "D#4",
          "ticks": 16295,
          "time": 149.77006083333333,
          "velocity": 0.905511811023622
        },
        {
          "duration": 0.018382333333335055,
          "durationTicks": 2,
          "midi": 68,
          "name": "G#4",
          "ticks": 16296,
          "time": 149.779252,
          "velocity": 0.8031496062992126
        },
        {
          "duration": 0.018382333333335055,
          "durationTicks": 2,
          "midi": 63,
          "name": "D#4",
          "ticks": 16307,
          "time": 149.88035483333334,
          "velocity": 0.9133858267716536
        },
        {
          "duration": 0.22058799999999223,
          "durationTicks": 24,
          "midi": 63,
          "name": "D#4",
          "ticks": 16319,
          "time": 149.99064883333335,
          "velocity": 0.8740157480314961
        },
        {
          "duration": 0.22058799999999223,
          "durationTicks": 24,
          "midi": 68,
          "name": "G#4",
          "ticks": 16319,
          "time": 149.99064883333335,
          "velocity": 0.8661417322834646
        },
        {
          "duration": 0.21139683333333892,
          "durationTicks": 23,
          "midi": 72,
          "name": "C5",
          "ticks": 16320,
          "time": 149.99984,
          "velocity": 0.8267716535433071
        },
        {
          "duration": 0.21139683333333892,
          "durationTicks": 23,
          "midi": 75,
          "name": "D#5",
          "ticks": 16320,
          "time": 149.99984,
          "velocity": 0.9133858267716536
        },
        {
          "duration": 0.02757349999998837,
          "durationTicks": 3,
          "midi": 63,
          "name": "D#4",
          "ticks": 16343,
          "time": 150.21123683333334,
          "velocity": 0.905511811023622
        },
        {
          "duration": 0.018382333333335055,
          "durationTicks": 2,
          "midi": 68,
          "name": "G#4",
          "ticks": 16344,
          "time": 150.220428,
          "velocity": 0.8031496062992126
        },
        {
          "duration": 0.018382333333335055,
          "durationTicks": 2,
          "midi": 63,
          "name": "D#4",
          "ticks": 16355,
          "time": 150.32153083333336,
          "velocity": 0.9133858267716536
        },
        {
          "duration": 0.22058800000002066,
          "durationTicks": 24,
          "midi": 65,
          "name": "F4",
          "ticks": 16367,
          "time": 150.43182483333334,
          "velocity": 0.8740157480314961
        },
        {
          "duration": 0.22058800000002066,
          "durationTicks": 24,
          "midi": 68,
          "name": "G#4",
          "ticks": 16367,
          "time": 150.43182483333334,
          "velocity": 0.8661417322834646
        },
        {
          "duration": 0.21139683333336734,
          "durationTicks": 23,
          "midi": 73,
          "name": "C#5",
          "ticks": 16368,
          "time": 150.441016,
          "velocity": 0.8267716535433071
        },
        {
          "duration": 0.21139683333336734,
          "durationTicks": 23,
          "midi": 77,
          "name": "F5",
          "ticks": 16368,
          "time": 150.441016,
          "velocity": 0.9133858267716536
        },
        {
          "duration": 0.02757349999998837,
          "durationTicks": 3,
          "midi": 65,
          "name": "F4",
          "ticks": 16391,
          "time": 150.65241283333336,
          "velocity": 0.8031496062992126
        },
        {
          "duration": 0.018382333333335055,
          "durationTicks": 2,
          "midi": 68,
          "name": "G#4",
          "ticks": 16392,
          "time": 150.661604,
          "velocity": 0.9133858267716536
        },
        {
          "duration": 0.11029400000001033,
          "durationTicks": 12,
          "midi": 77,
          "name": "F5",
          "ticks": 16403,
          "time": 150.76270683333334,
          "velocity": 0.8188976377952756
        },
        {
          "duration": 0.11029400000001033,
          "durationTicks": 12,
          "midi": 61,
          "name": "C#4",
          "ticks": 16403,
          "time": 150.76270683333334,
          "velocity": 0.905511811023622
        },
        {
          "duration": 0.10110283333335701,
          "durationTicks": 11,
          "midi": 68,
          "name": "G#4",
          "ticks": 16404,
          "time": 150.771898,
          "velocity": 0.84251968503937
        },
        {
          "duration": 0.10110283333335701,
          "durationTicks": 11,
          "midi": 65,
          "name": "F4",
          "ticks": 16404,
          "time": 150.771898,
          "velocity": 0.8503937007874016
        },
        {
          "duration": 0.02757349999998837,
          "durationTicks": 3,
          "midi": 65,
          "name": "F4",
          "ticks": 16415,
          "time": 150.87300083333335,
          "velocity": 0.905511811023622
        },
        {
          "duration": 0.018382333333335055,
          "durationTicks": 2,
          "midi": 68,
          "name": "G#4",
          "ticks": 16416,
          "time": 150.882192,
          "velocity": 0.8031496062992126
        },
        {
          "duration": 0.018382333333363476,
          "durationTicks": 2,
          "midi": 72,
          "name": "C5",
          "ticks": 16427,
          "time": 150.98329483333333,
          "velocity": 0.9133858267716536
        },
        {
          "duration": 0.11029400000001033,
          "durationTicks": 12,
          "midi": 68,
          "name": "G#4",
          "ticks": 16439,
          "time": 151.09358883333334,
          "velocity": 0.8740157480314961
        },
        {
          "duration": 0.11029400000001033,
          "durationTicks": 12,
          "midi": 73,
          "name": "C#5",
          "ticks": 16439,
          "time": 151.09358883333334,
          "velocity": 0.8661417322834646
        },
        {
          "duration": 0.10110283333335701,
          "durationTicks": 11,
          "midi": 77,
          "name": "F5",
          "ticks": 16440,
          "time": 151.10278,
          "velocity": 0.8740157480314961
        },
        {
          "duration": 0.10110283333335701,
          "durationTicks": 11,
          "midi": 80,
          "name": "G#5",
          "ticks": 16440,
          "time": 151.10278,
          "velocity": 0.937007874015748
        },
        {
          "duration": 0.1102939999999819,
          "durationTicks": 12,
          "midi": 80,
          "name": "G#5",
          "ticks": 16451,
          "time": 151.20388283333335,
          "velocity": 0.8818897637795275
        },
        {
          "duration": 0.1102939999999819,
          "durationTicks": 12,
          "midi": 77,
          "name": "F5",
          "ticks": 16451,
          "time": 151.20388283333335,
          "velocity": 0.8267716535433071
        },
        {
          "duration": 0.027573500000016793,
          "durationTicks": 3,
          "midi": 68,
          "name": "G#4",
          "ticks": 16463,
          "time": 151.31417683333333,
          "velocity": 0.905511811023622
        },
        {
          "duration": 0.018382333333335055,
          "durationTicks": 2,
          "midi": 65,
          "name": "F4",
          "ticks": 16464,
          "time": 151.32336800000002,
          "velocity": 0.8031496062992126
        },
        {
          "duration": 0.11029400000001033,
          "durationTicks": 12,
          "midi": 80,
          "name": "G#5",
          "ticks": 16475,
          "time": 151.42447083333334,
          "velocity": 0.905511811023622
        },
        {
          "duration": 0.10110283333332859,
          "durationTicks": 11,
          "midi": 77,
          "name": "F5",
          "ticks": 16475,
          "time": 151.42447083333334,
          "velocity": 0.8740157480314961
        },
        {
          "duration": 0.10110283333335701,
          "durationTicks": 11,
          "midi": 73,
          "name": "C#5",
          "ticks": 16476,
          "time": 151.433662,
          "velocity": 0.8818897637795275
        },
        {
          "duration": 0.10110283333335701,
          "durationTicks": 11,
          "midi": 68,
          "name": "G#4",
          "ticks": 16476,
          "time": 151.433662,
          "velocity": 0.8346456692913385
        },
        {
          "duration": 0.018382333333335055,
          "durationTicks": 2,
          "midi": 73,
          "name": "C#5",
          "ticks": 16487,
          "time": 151.53476483333336,
          "velocity": 0.905511811023622
        },
        {
          "duration": 0.009191166666681738,
          "durationTicks": 1,
          "midi": 77,
          "name": "F5",
          "ticks": 16488,
          "time": 151.543956,
          "velocity": 0.8031496062992126
        },
        {
          "duration": 0.018382333333363476,
          "durationTicks": 2,
          "midi": 80,
          "name": "G#5",
          "ticks": 16499,
          "time": 151.64505883333334,
          "velocity": 0.9133858267716536
        },
        {
          "duration": 0.22058799999999223,
          "durationTicks": 24,
          "midi": 68,
          "name": "G#4",
          "ticks": 16511,
          "time": 151.75535283333335,
          "velocity": 0.8740157480314961
        },
        {
          "duration": 0.22058799999999223,
          "durationTicks": 24,
          "midi": 73,
          "name": "C#5",
          "ticks": 16511,
          "time": 151.75535283333335,
          "velocity": 0.8582677165354331
        },
        {
          "duration": 0.21139683333333892,
          "durationTicks": 23,
          "midi": 77,
          "name": "F5",
          "ticks": 16512,
          "time": 151.764544,
          "velocity": 0.8661417322834646
        },
        {
          "duration": 0.21139683333333892,
          "durationTicks": 23,
          "midi": 80,
          "name": "G#5",
          "ticks": 16512,
          "time": 151.764544,
          "velocity": 0.905511811023622
        },
        {
          "duration": 0.018382333333335055,
          "durationTicks": 2,
          "midi": 61,
          "name": "C#4",
          "ticks": 16535,
          "time": 151.97594083333334,
          "velocity": 0.905511811023622
        },
        {
          "duration": 0.009191166666653316,
          "durationTicks": 1,
          "midi": 65,
          "name": "F4",
          "ticks": 16535,
          "time": 151.97594083333334,
          "velocity": 0.8031496062992126
        },
        {
          "duration": 0.009191166666681738,
          "durationTicks": 1,
          "midi": 68,
          "name": "G#4",
          "ticks": 16536,
          "time": 151.985132,
          "velocity": 0.8031496062992126
        },
        {
          "duration": 0.018382333333335055,
          "durationTicks": 2,
          "midi": 68,
          "name": "G#4",
          "ticks": 16547,
          "time": 152.08623483333335,
          "velocity": 0.9133858267716536
        },
        {
          "duration": 0.009191166666681738,
          "durationTicks": 1,
          "midi": 65,
          "name": "F4",
          "ticks": 16548,
          "time": 152.095426,
          "velocity": 0.8740157480314961
        },
        {
          "duration": 0.4411760000000129,
          "durationTicks": 48,
          "midi": 54,
          "name": "F#3",
          "ticks": 16559,
          "time": 152.19652883333333,
          "velocity": 0.7874015748031497
        },
        {
          "duration": 0.4411760000000129,
          "durationTicks": 48,
          "midi": 61,
          "name": "C#4",
          "ticks": 16559,
          "time": 152.19652883333333,
          "velocity": 0.7795275590551181
        },
        {
          "duration": 0.4411760000000129,
          "durationTicks": 48,
          "midi": 65,
          "name": "F4",
          "ticks": 16559,
          "time": 152.19652883333333,
          "velocity": 0.8976377952755905
        },
        {
          "duration": 0.43198483333333115,
          "durationTicks": 47,
          "midi": 68,
          "name": "G#4",
          "ticks": 16560,
          "time": 152.20572,
          "velocity": 0.8110236220472441
        },
        {
          "duration": 0.43198483333333115,
          "durationTicks": 47,
          "midi": 75,
          "name": "D#5",
          "ticks": 16560,
          "time": 152.20572,
          "velocity": 0.9133858267716536
        },
        {
          "duration": 0.22058799999999223,
          "durationTicks": 24,
          "midi": 68,
          "name": "G#4",
          "ticks": 16607,
          "time": 152.63770483333334,
          "velocity": 0.8661417322834646
        },
        {
          "duration": 0.22058799999999223,
          "durationTicks": 24,
          "midi": 73,
          "name": "C#5",
          "ticks": 16607,
          "time": 152.63770483333334,
          "velocity": 0.7795275590551181
        },
        {
          "duration": 0.21139683333333892,
          "durationTicks": 23,
          "midi": 77,
          "name": "F5",
          "ticks": 16608,
          "time": 152.646896,
          "velocity": 0.8740157480314961
        },
        {
          "duration": 0.018382333333363476,
          "durationTicks": 2,
          "midi": 68,
          "name": "G#4",
          "ticks": 16631,
          "time": 152.85829283333334,
          "velocity": 0.8976377952755905
        },
        {
          "duration": 0.00919116666671016,
          "durationTicks": 1,
          "midi": 73,
          "name": "C#5",
          "ticks": 16632,
          "time": 152.867484,
          "velocity": 0.8740157480314961
        },
        {
          "duration": 0.009191166666653316,
          "durationTicks": 1,
          "midi": 63,
          "name": "D#4",
          "ticks": 16643,
          "time": 152.96858683333335,
          "velocity": 0.8976377952755905
        },
        {
          "duration": 0.22058799999999223,
          "durationTicks": 24,
          "midi": 54,
          "name": "F#3",
          "ticks": 16655,
          "time": 153.07888083333336,
          "velocity": 0.7874015748031497
        },
        {
          "duration": 0.22058799999999223,
          "durationTicks": 24,
          "midi": 61,
          "name": "C#4",
          "ticks": 16655,
          "time": 153.07888083333336,
          "velocity": 0.8110236220472441
        },
        {
          "duration": 0.21139683333333892,
          "durationTicks": 23,
          "midi": 65,
          "name": "F4",
          "ticks": 16656,
          "time": 153.088072,
          "velocity": 0.8110236220472441
        },
        {
          "duration": 0.21139683333333892,
          "durationTicks": 23,
          "midi": 68,
          "name": "G#4",
          "ticks": 16656,
          "time": 153.088072,
          "velocity": 0.8740157480314961
        },
        {
          "duration": 0.21139683333333892,
          "durationTicks": 23,
          "midi": 75,
          "name": "D#5",
          "ticks": 16656,
          "time": 153.088072,
          "velocity": 0.905511811023622
        },
        {
          "duration": 0.1102939999999819,
          "durationTicks": 12,
          "midi": 65,
          "name": "F4",
          "ticks": 16679,
          "time": 153.29946883333335,
          "velocity": 0.9133858267716536
        },
        {
          "duration": 0.1102939999999819,
          "durationTicks": 12,
          "midi": 68,
          "name": "G#4",
          "ticks": 16679,
          "time": 153.29946883333335,
          "velocity": 0.7637795275590551
        },
        {
          "duration": 0.1102939999999819,
          "durationTicks": 12,
          "midi": 73,
          "name": "C#5",
          "ticks": 16679,
          "time": 153.29946883333335,
          "velocity": 0.7874015748031497
        },
        {
          "duration": 0.10110283333332859,
          "durationTicks": 11,
          "midi": 77,
          "name": "F5",
          "ticks": 16680,
          "time": 153.30866,
          "velocity": 0.8740157480314961
        },
        {
          "duration": 0.018382333333363476,
          "durationTicks": 2,
          "midi": 68,
          "name": "G#4",
          "ticks": 16691,
          "time": 153.40976283333333,
          "velocity": 0.8740157480314961
        },
        {
          "duration": 0.018382333333363476,
          "durationTicks": 2,
          "midi": 65,
          "name": "F4",
          "ticks": 16691,
          "time": 153.40976283333333,
          "velocity": 0.7637795275590551
        },
        {
          "duration": 0.018382333333335055,
          "durationTicks": 2,
          "midi": 68,
          "name": "G#4",
          "ticks": 16703,
          "time": 153.52005683333334,
          "velocity": 0.905511811023622
        },
        {
          "duration": 0.009191166666681738,
          "durationTicks": 1,
          "midi": 73,
          "name": "C#5",
          "ticks": 16704,
          "time": 153.529248,
          "velocity": 0.8740157480314961
        },
        {
          "duration": 0.009191166666653316,
          "durationTicks": 1,
          "midi": 66,
          "name": "F#4",
          "ticks": 16715,
          "time": 153.63035083333335,
          "velocity": 0.8976377952755905
        },
        {
          "duration": 0.4411760000000129,
          "durationTicks": 48,
          "midi": 61,
          "name": "C#4",
          "ticks": 16727,
          "time": 153.74064483333333,
          "velocity": 0.8582677165354331
        },
        {
          "duration": 0.4411760000000129,
          "durationTicks": 48,
          "midi": 65,
          "name": "F4",
          "ticks": 16727,
          "time": 153.74064483333333,
          "velocity": 0.8976377952755905
        },
        {
          "duration": 0.43198483333333115,
          "durationTicks": 47,
          "midi": 68,
          "name": "G#4",
          "ticks": 16728,
          "time": 153.74983600000002,
          "velocity": 0.7637795275590551
        },
        {
          "duration": 0.43198483333333115,
          "durationTicks": 47,
          "midi": 75,
          "name": "D#5",
          "ticks": 16728,
          "time": 153.74983600000002,
          "velocity": 0.7795275590551181
        },
        {
          "duration": 0.22058799999999223,
          "durationTicks": 24,
          "midi": 60,
          "name": "C4",
          "ticks": 16775,
          "time": 154.18182083333335,
          "velocity": 0.7401574803149606
        },
        {
          "duration": 0.22058799999999223,
          "durationTicks": 24,
          "midi": 65,
          "name": "F4",
          "ticks": 16775,
          "time": 154.18182083333335,
          "velocity": 0.8976377952755905
        },
        {
          "duration": 0.21139683333333892,
          "durationTicks": 23,
          "midi": 68,
          "name": "G#4",
          "ticks": 16776,
          "time": 154.191012,
          "velocity": 0.7637795275590551
        },
        {
          "duration": 0.21139683333333892,
          "durationTicks": 23,
          "midi": 75,
          "name": "D#5",
          "ticks": 16776,
          "time": 154.191012,
          "velocity": 0.7952755905511811
        },
        {
          "duration": 0.22058799999999223,
          "durationTicks": 24,
          "midi": 68,
          "name": "G#4",
          "ticks": 16799,
          "time": 154.40240883333334,
          "velocity": 0.8110236220472441
        },
        {
          "duration": 0.22058799999999223,
          "durationTicks": 24,
          "midi": 72,
          "name": "C5",
          "ticks": 16799,
          "time": 154.40240883333334,
          "velocity": 0.7559055118110236
        },
        {
          "duration": 0.21139683333333892,
          "durationTicks": 23,
          "midi": 75,
          "name": "D#5",
          "ticks": 16800,
          "time": 154.4116,
          "velocity": 0.7637795275590551
        },
        {
          "duration": 0.21139683333333892,
          "durationTicks": 23,
          "midi": 80,
          "name": "G#5",
          "ticks": 16800,
          "time": 154.4116,
          "velocity": 0.7401574803149606
        },
        {
          "duration": 0.018382333333363476,
          "durationTicks": 2,
          "midi": 61,
          "name": "C#4",
          "ticks": 16823,
          "time": 154.62299683333333,
          "velocity": 0.9133858267716536
        },
        {
          "duration": 0.009191166666681738,
          "durationTicks": 1,
          "midi": 65,
          "name": "F4",
          "ticks": 16824,
          "time": 154.632188,
          "velocity": 0.7716535433070866
        },
        {
          "duration": 0.009191166666653316,
          "durationTicks": 1,
          "midi": 61,
          "name": "C#4",
          "ticks": 16835,
          "time": 154.73329083333334,
          "velocity": 0.8976377952755905
        },
        {
          "duration": 0.22058799999999223,
          "durationTicks": 24,
          "midi": 56,
          "name": "G#3",
          "ticks": 16847,
          "time": 154.84358483333335,
          "velocity": 0.7637795275590551
        },
        {
          "duration": 0.22058799999999223,
          "durationTicks": 24,
          "midi": 60,
          "name": "C4",
          "ticks": 16847,
          "time": 154.84358483333335,
          "velocity": 0.7401574803149606
        },
        {
          "duration": 0.22058799999999223,
          "durationTicks": 24,
          "midi": 65,
          "name": "F4",
          "ticks": 16847,
          "time": 154.84358483333335,
          "velocity": 0.8267716535433071
        },
        {
          "duration": 0.21139683333333892,
          "durationTicks": 23,
          "midi": 68,
          "name": "G#4",
          "ticks": 16848,
          "time": 154.852776,
          "velocity": 0.7952755905511811
        },
        {
          "duration": 0.21139683333333892,
          "durationTicks": 23,
          "midi": 75,
          "name": "D#5",
          "ticks": 16848,
          "time": 154.852776,
          "velocity": 0.905511811023622
        },
        {
          "duration": 0.21139683333333892,
          "durationTicks": 23,
          "midi": 65,
          "name": "F4",
          "ticks": 16871,
          "time": 155.06417283333334,
          "velocity": 0.8661417322834646
        },
        {
          "duration": 0.21139683333333892,
          "durationTicks": 23,
          "midi": 68,
          "name": "G#4",
          "ticks": 16871,
          "time": 155.06417283333334,
          "velocity": 0.889763779527559
        },
        {
          "duration": 0.4319848333333596,
          "durationTicks": 47,
          "midi": 75,
          "name": "D#5",
          "ticks": 16872,
          "time": 155.073364,
          "velocity": 0.8503937007874016
        },
        {
          "duration": 0.22058800000002066,
          "durationTicks": 24,
          "midi": 65,
          "name": "F4",
          "ticks": 16895,
          "time": 155.28476083333334,
          "velocity": 0.7795275590551181
        },
        {
          "duration": 0.22058800000002066,
          "durationTicks": 24,
          "midi": 72,
          "name": "C5",
          "ticks": 16895,
          "time": 155.28476083333334,
          "velocity": 0.7559055118110236
        },
        {
          "duration": 0.21139683333336734,
          "durationTicks": 23,
          "midi": 80,
          "name": "G#5",
          "ticks": 16896,
          "time": 155.293952,
          "velocity": 0.8582677165354331
        },
        {
          "duration": 0.05514699999997674,
          "durationTicks": 6,
          "midi": 63,
          "name": "D#4",
          "ticks": 16919,
          "time": 155.50534883333336,
          "velocity": 0.9133858267716536
        },
        {
          "duration": 0.009191166666681738,
          "durationTicks": 1,
          "midi": 68,
          "name": "G#4",
          "ticks": 16920,
          "time": 155.51454,
          "velocity": 0.7716535433070866
        },
        {
          "duration": 0.10110283333335701,
          "durationTicks": 11,
          "midi": 68,
          "name": "G#4",
          "ticks": 16931,
          "time": 155.61564283333334,
          "velocity": 0.8740157480314961
        },
        {
          "duration": 0.44117599999998447,
          "durationTicks": 48,
          "midi": 56,
          "name": "G#3",
          "ticks": 16943,
          "time": 155.72593683333335,
          "velocity": 0.7637795275590551
        },
        {
          "duration": 0.44117599999998447,
          "durationTicks": 48,
          "midi": 63,
          "name": "D#4",
          "ticks": 16943,
          "time": 155.72593683333335,
          "velocity": 0.9212598425196851
        },
        {
          "duration": 0.44117599999998447,
          "durationTicks": 48,
          "midi": 68,
          "name": "G#4",
          "ticks": 16943,
          "time": 155.72593683333335,
          "velocity": 0.7874015748031497
        },
        {
          "duration": 0.43198483333333115,
          "durationTicks": 47,
          "midi": 72,
          "name": "C5",
          "ticks": 16944,
          "time": 155.735128,
          "velocity": 0.7637795275590551
        },
        {
          "duration": 0.43198483333333115,
          "durationTicks": 47,
          "midi": 75,
          "name": "D#5",
          "ticks": 16944,
          "time": 155.735128,
          "velocity": 0.7401574803149606
        },
        {
          "duration": 0.22058800000002066,
          "durationTicks": 24,
          "midi": 68,
          "name": "G#4",
          "ticks": 16991,
          "time": 156.16711283333333,
          "velocity": 0.7952755905511811
        },
        {
          "duration": 0.22058800000002066,
          "durationTicks": 24,
          "midi": 72,
          "name": "C5",
          "ticks": 16991,
          "time": 156.16711283333333,
          "velocity": 0.8976377952755905
        },
        {
          "duration": 0.21139683333333892,
          "durationTicks": 23,
          "midi": 75,
          "name": "D#5",
          "ticks": 16992,
          "time": 156.17630400000002,
          "velocity": 0.7874015748031497
        },
        {
          "duration": 0.21139683333333892,
          "durationTicks": 23,
          "midi": 80,
          "name": "G#5",
          "ticks": 16992,
          "time": 156.17630400000002,
          "velocity": 0.7007874015748031
        },
        {
          "duration": 0.018382333333335055,
          "durationTicks": 2,
          "midi": 56,
          "name": "G#3",
          "ticks": 17015,
          "time": 156.38770083333335,
          "velocity": 0.7795275590551181
        },
        {
          "duration": 0.009191166666681738,
          "durationTicks": 1,
          "midi": 63,
          "name": "D#4",
          "ticks": 17016,
          "time": 156.396892,
          "velocity": 0.889763779527559
        },
        {
          "duration": 0.11029400000001033,
          "durationTicks": 12,
          "midi": 68,
          "name": "G#4",
          "ticks": 17027,
          "time": 156.49799483333334,
          "velocity": 0.8976377952755905
        },
        {
          "duration": 0.22058799999999223,
          "durationTicks": 24,
          "midi": 56,
          "name": "G#3",
          "ticks": 17039,
          "time": 156.60828883333335,
          "velocity": 0.84251968503937
        },
        {
          "duration": 0.22058799999999223,
          "durationTicks": 24,
          "midi": 63,
          "name": "D#4",
          "ticks": 17039,
          "time": 156.60828883333335,
          "velocity": 0.8661417322834646
        },
        {
          "duration": 0.21139683333333892,
          "durationTicks": 23,
          "midi": 68,
          "name": "G#4",
          "ticks": 17040,
          "time": 156.61748,
          "velocity": 0.9212598425196851
        },
        {
          "duration": 0.21139683333333892,
          "durationTicks": 23,
          "midi": 72,
          "name": "C5",
          "ticks": 17040,
          "time": 156.61748,
          "velocity": 0.7637795275590551
        },
        {
          "duration": 0.21139683333333892,
          "durationTicks": 23,
          "midi": 75,
          "name": "D#5",
          "ticks": 17040,
          "time": 156.61748,
          "velocity": 0.7480314960629921
        },
        {
          "duration": 0.22058799999999223,
          "durationTicks": 24,
          "midi": 68,
          "name": "G#4",
          "ticks": 17063,
          "time": 156.82887683333334,
          "velocity": 0.7322834645669292
        },
        {
          "duration": 0.22058799999999223,
          "durationTicks": 24,
          "midi": 72,
          "name": "C5",
          "ticks": 17063,
          "time": 156.82887683333334,
          "velocity": 0.905511811023622
        },
        {
          "duration": 0.22058799999999223,
          "durationTicks": 24,
          "midi": 75,
          "name": "D#5",
          "ticks": 17063,
          "time": 156.82887683333334,
          "velocity": 0.7952755905511811
        },
        {
          "duration": 0.21139683333333892,
          "durationTicks": 23,
          "midi": 80,
          "name": "G#5",
          "ticks": 17064,
          "time": 156.838068,
          "velocity": 0.8661417322834646
        },
        {
          "duration": 0.018382333333363476,
          "durationTicks": 2,
          "midi": 56,
          "name": "G#3",
          "ticks": 17087,
          "time": 157.04946483333333,
          "velocity": 0.7795275590551181
        },
        {
          "duration": 0.009191166666681738,
          "durationTicks": 1,
          "midi": 63,
          "name": "D#4",
          "ticks": 17088,
          "time": 157.058656,
          "velocity": 0.889763779527559
        },
        {
          "duration": 0.11029400000001033,
          "durationTicks": 12,
          "midi": 68,
          "name": "G#4",
          "ticks": 17099,
          "time": 157.15975883333334,
          "velocity": 0.9212598425196851
        },
        {
          "duration": 0.6617640000000051,
          "durationTicks": 72,
          "midi": 56,
          "name": "G#3",
          "ticks": 17111,
          "time": 157.27005283333335,
          "velocity": 0.6850393700787402
        },
        {
          "duration": 0.6617640000000051,
          "durationTicks": 72,
          "midi": 63,
          "name": "D#4",
          "ticks": 17111,
          "time": 157.27005283333335,
          "velocity": 0.889763779527559
        },
        {
          "duration": 0.6617640000000051,
          "durationTicks": 72,
          "midi": 68,
          "name": "G#4",
          "ticks": 17111,
          "time": 157.27005283333335,
          "velocity": 0.9212598425196851
        },
        {
          "duration": 0.6525728333333518,
          "durationTicks": 71,
          "midi": 72,
          "name": "C5",
          "ticks": 17112,
          "time": 157.279244,
          "velocity": 0.7795275590551181
        },
        {
          "duration": 0.6525728333333518,
          "durationTicks": 71,
          "midi": 75,
          "name": "D#5",
          "ticks": 17112,
          "time": 157.279244,
          "velocity": 0.84251968503937
        },
        {
          "duration": 0.19301449999997544,
          "durationTicks": 21,
          "midi": 72,
          "name": "C5",
          "ticks": 17183,
          "time": 157.93181683333336,
          "velocity": 0.968503937007874
        },
        {
          "duration": 0.44117599999998447,
          "durationTicks": 48,
          "midi": 68,
          "name": "G#4",
          "ticks": 17207,
          "time": 158.15240483333335,
          "velocity": 0.7716535433070866
        },
        {
          "duration": 0.44117599999998447,
          "durationTicks": 48,
          "midi": 74,
          "name": "D5",
          "ticks": 17207,
          "time": 158.15240483333335,
          "velocity": 0.7874015748031497
        },
        {
          "duration": 0.43198483333333115,
          "durationTicks": 47,
          "midi": 77,
          "name": "F5",
          "ticks": 17208,
          "time": 158.161596,
          "velocity": 0.7952755905511811
        },
        {
          "duration": 0.43198483333333115,
          "durationTicks": 47,
          "midi": 82,
          "name": "A#5",
          "ticks": 17208,
          "time": 158.161596,
          "velocity": 0.8110236220472441
        },
        {
          "duration": 0.11029400000001033,
          "durationTicks": 12,
          "midi": 70,
          "name": "A#4",
          "ticks": 17255,
          "time": 158.59358083333333,
          "velocity": 0.8661417322834646
        },
        {
          "duration": 0.11029400000001033,
          "durationTicks": 12,
          "midi": 70,
          "name": "A#4",
          "ticks": 17267,
          "time": 158.70387483333334,
          "velocity": 0.905511811023622
        },
        {
          "duration": 0.22058799999999223,
          "durationTicks": 24,
          "midi": 68,
          "name": "G#4",
          "ticks": 17279,
          "time": 158.81416883333335,
          "velocity": 0.8503937007874016
        },
        {
          "duration": 0.22058799999999223,
          "durationTicks": 24,
          "midi": 74,
          "name": "D5",
          "ticks": 17279,
          "time": 158.81416883333335,
          "velocity": 0.8188976377952756
        },
        {
          "duration": 0.21139683333333892,
          "durationTicks": 23,
          "midi": 77,
          "name": "F5",
          "ticks": 17280,
          "time": 158.82336,
          "velocity": 0.7952755905511811
        },
        {
          "duration": 0.21139683333333892,
          "durationTicks": 23,
          "midi": 82,
          "name": "A#5",
          "ticks": 17280,
          "time": 158.82336,
          "velocity": 0.7559055118110236
        },
        {
          "duration": 0.15624983333333375,
          "durationTicks": 17,
          "midi": 67,
          "name": "G4",
          "ticks": 17303,
          "time": 159.03475683333335,
          "velocity": 0.7952755905511811
        },
        {
          "duration": 0.22058800000002066,
          "durationTicks": 24,
          "midi": 51,
          "name": "D#3",
          "ticks": 17327,
          "time": 159.25534483333334,
          "velocity": 0.7637795275590551
        },
        {
          "duration": 0.22058800000002066,
          "durationTicks": 24,
          "midi": 61,
          "name": "C#4",
          "ticks": 17327,
          "time": 159.25534483333334,
          "velocity": 0.8346456692913385
        },
        {
          "duration": 0.22058800000002066,
          "durationTicks": 24,
          "midi": 65,
          "name": "F4",
          "ticks": 17327,
          "time": 159.25534483333334,
          "velocity": 0.7874015748031497
        },
        {
          "duration": 0.21139683333336734,
          "durationTicks": 23,
          "midi": 68,
          "name": "G#4",
          "ticks": 17328,
          "time": 159.264536,
          "velocity": 0.7637795275590551
        },
        {
          "duration": 0.21139683333336734,
          "durationTicks": 23,
          "midi": 73,
          "name": "C#5",
          "ticks": 17328,
          "time": 159.264536,
          "velocity": 0.8582677165354331
        },
        {
          "duration": 0.22058799999999223,
          "durationTicks": 24,
          "midi": 65,
          "name": "F4",
          "ticks": 17351,
          "time": 159.47593283333336,
          "velocity": 0.9133858267716536
        },
        {
          "duration": 0.018382333333335055,
          "durationTicks": 2,
          "midi": 65,
          "name": "F4",
          "ticks": 17375,
          "time": 159.69652083333335,
          "velocity": 0.7795275590551181
        },
        {
          "duration": 0.009191166666681738,
          "durationTicks": 1,
          "midi": 68,
          "name": "G#4",
          "ticks": 17376,
          "time": 159.705712,
          "velocity": 0.889763779527559
        },
        {
          "duration": 0.018382333333363476,
          "durationTicks": 2,
          "midi": 72,
          "name": "C5",
          "ticks": 17387,
          "time": 159.80681483333333,
          "velocity": 0.937007874015748
        },
        {
          "duration": 0.4411760000000129,
          "durationTicks": 48,
          "midi": 61,
          "name": "C#4",
          "ticks": 17399,
          "time": 159.91710883333334,
          "velocity": 0.7401574803149606
        },
        {
          "duration": 0.4411760000000129,
          "durationTicks": 48,
          "midi": 65,
          "name": "F4",
          "ticks": 17399,
          "time": 159.91710883333334,
          "velocity": 0.905511811023622
        },
        {
          "duration": 0.4319848333333596,
          "durationTicks": 47,
          "midi": 68,
          "name": "G#4",
          "ticks": 17400,
          "time": 159.9263,
          "velocity": 0.6141732283464567
        },
        {
          "duration": 0.4319848333333596,
          "durationTicks": 47,
          "midi": 73,
          "name": "C#5",
          "ticks": 17400,
          "time": 159.9263,
          "velocity": 0.8267716535433071
        },
        {
          "duration": 0.22058799999999223,
          "durationTicks": 24,
          "midi": 61,
          "name": "C#4",
          "ticks": 17447,
          "time": 160.35828483333336,
          "velocity": 0.8740157480314961
        },
        {
          "duration": 0.22058799999999223,
          "durationTicks": 24,
          "midi": 65,
          "name": "F4",
          "ticks": 17447,
          "time": 160.35828483333336,
          "velocity": 0.8267716535433071
        },
        {
          "duration": 0.21139683333333892,
          "durationTicks": 23,
          "midi": 68,
          "name": "G#4",
          "ticks": 17448,
          "time": 160.367476,
          "velocity": 0.9133858267716536
        },
        {
          "duration": 0.22058799999999223,
          "durationTicks": 24,
          "midi": 61,
          "name": "C#4",
          "ticks": 17471,
          "time": 160.57887283333335,
          "velocity": 0.7401574803149606
        },
        {
          "duration": 0.21139683333333892,
          "durationTicks": 23,
          "midi": 65,
          "name": "F4",
          "ticks": 17472,
          "time": 160.588064,
          "velocity": 0.905511811023622
        },
        {
          "duration": 0.22058799999999223,
          "durationTicks": 24,
          "midi": 61,
          "name": "C#4",
          "ticks": 17495,
          "time": 160.79946083333334,
          "velocity": 0.905511811023622
        },
        {
          "duration": 0.22058799999999223,
          "durationTicks": 24,
          "midi": 65,
          "name": "F4",
          "ticks": 17495,
          "time": 160.79946083333334,
          "velocity": 0.7086614173228346
        },
        {
          "duration": 0.21139683333333892,
          "durationTicks": 23,
          "midi": 68,
          "name": "G#4",
          "ticks": 17496,
          "time": 160.808652,
          "velocity": 0.7874015748031497
        },
        {
          "duration": 0.21139683333333892,
          "durationTicks": 23,
          "midi": 73,
          "name": "C#5",
          "ticks": 17496,
          "time": 160.808652,
          "velocity": 0.905511811023622
        },
        {
          "duration": 0.19301450000000386,
          "durationTicks": 21,
          "midi": 66,
          "name": "F#4",
          "ticks": 17519,
          "time": 161.02004883333333,
          "velocity": 0.905511811023622
        },
        {
          "duration": 0.44117599999998447,
          "durationTicks": 48,
          "midi": 56,
          "name": "G#3",
          "ticks": 17543,
          "time": 161.24063683333335,
          "velocity": 0.7795275590551181
        },
        {
          "duration": 0.44117599999998447,
          "durationTicks": 48,
          "midi": 63,
          "name": "D#4",
          "ticks": 17543,
          "time": 161.24063683333335,
          "velocity": 0.8582677165354331
        },
        {
          "duration": 0.43198483333333115,
          "durationTicks": 47,
          "midi": 68,
          "name": "G#4",
          "ticks": 17544,
          "time": 161.249828,
          "velocity": 0.889763779527559
        },
        {
          "duration": 0.43198483333333115,
          "durationTicks": 47,
          "midi": 72,
          "name": "C5",
          "ticks": 17544,
          "time": 161.249828,
          "velocity": 0.8110236220472441
        },
        {
          "duration": 0.22058799999999223,
          "durationTicks": 24,
          "midi": 75,
          "name": "D#5",
          "ticks": 17567,
          "time": 161.46122483333335,
          "velocity": 0.9133858267716536
        },
        {
          "duration": 0.19301450000000386,
          "durationTicks": 21,
          "midi": 63,
          "name": "D#4",
          "ticks": 17591,
          "time": 161.68181283333334,
          "velocity": 0.7952755905511811
        },
        {
          "duration": 0.18382333333335055,
          "durationTicks": 20,
          "midi": 68,
          "name": "G#4",
          "ticks": 17592,
          "time": 161.691004,
          "velocity": 0.8976377952755905
        },
        {
          "duration": 0.44117599999998447,
          "durationTicks": 48,
          "midi": 63,
          "name": "D#4",
          "ticks": 17615,
          "time": 161.90240083333336,
          "velocity": 0.8346456692913385
        },
        {
          "duration": 0.44117599999998447,
          "durationTicks": 48,
          "midi": 68,
          "name": "G#4",
          "ticks": 17615,
          "time": 161.90240083333336,
          "velocity": 0.8031496062992126
        },
        {
          "duration": 0.43198483333333115,
          "durationTicks": 47,
          "midi": 73,
          "name": "C#5",
          "ticks": 17616,
          "time": 161.911592,
          "velocity": 0.905511811023622
        },
        {
          "duration": 0.22058799999999223,
          "durationTicks": 24,
          "midi": 75,
          "name": "D#5",
          "ticks": 17639,
          "time": 162.12298883333335,
          "velocity": 0.889763779527559
        },
        {
          "duration": 0.4227936666666494,
          "durationTicks": 46,
          "midi": 56,
          "name": "G#3",
          "ticks": 17663,
          "time": 162.34357683333334,
          "velocity": 0.8976377952755905
        },
        {
          "duration": 0.42279366666667784,
          "durationTicks": 46,
          "midi": 63,
          "name": "D#4",
          "ticks": 17664,
          "time": 162.352768,
          "velocity": 0.8661417322834646
        },
        {
          "duration": 0.21139683333333892,
          "durationTicks": 23,
          "midi": 68,
          "name": "G#4",
          "ticks": 17687,
          "time": 162.56416483333334,
          "velocity": 0.9133858267716536
        },
        {
          "duration": 0.22058799999999223,
          "durationTicks": 24,
          "midi": 54,
          "name": "F#3",
          "ticks": 17711,
          "time": 162.78475283333336,
          "velocity": 0.8110236220472441
        },
        {
          "duration": 0.22058799999999223,
          "durationTicks": 24,
          "midi": 58,
          "name": "A#3",
          "ticks": 17711,
          "time": 162.78475283333336,
          "velocity": 0.8740157480314961
        },
        {
          "duration": 0.22058799999999223,
          "durationTicks": 24,
          "midi": 68,
          "name": "G#4",
          "ticks": 17711,
          "time": 162.78475283333336,
          "velocity": 0.8661417322834646
        },
        {
          "duration": 0.21139683333333892,
          "durationTicks": 23,
          "midi": 73,
          "name": "C#5",
          "ticks": 17712,
          "time": 162.793944,
          "velocity": 0.8267716535433071
        },
        {
          "duration": 0.21139683333333892,
          "durationTicks": 23,
          "midi": 77,
          "name": "F5",
          "ticks": 17712,
          "time": 162.793944,
          "velocity": 0.9133858267716536
        },
        {
          "duration": 0.03676466666664169,
          "durationTicks": 4,
          "midi": 68,
          "name": "G#4",
          "ticks": 17735,
          "time": 163.00534083333335,
          "velocity": 0.8031496062992126
        },
        {
          "duration": 0.09191166666667527,
          "durationTicks": 10,
          "midi": 73,
          "name": "C#5",
          "ticks": 17736,
          "time": 163.014532,
          "velocity": 0.9133858267716536
        },
        {
          "duration": 0.1102939999999819,
          "durationTicks": 12,
          "midi": 75,
          "name": "D#5",
          "ticks": 17747,
          "time": 163.11563483333336,
          "velocity": 0.9133858267716536
        },
        {
          "duration": 0.1102939999999819,
          "durationTicks": 12,
          "midi": 73,
          "name": "C#5",
          "ticks": 17747,
          "time": 163.11563483333336,
          "velocity": 0.8661417322834646
        },
        {
          "duration": 0.10110283333332859,
          "durationTicks": 11,
          "midi": 68,
          "name": "G#4",
          "ticks": 17748,
          "time": 163.124826,
          "velocity": 0.8661417322834646
        },
        {
          "duration": 0.10110283333332859,
          "durationTicks": 11,
          "midi": 58,
          "name": "A#3",
          "ticks": 17748,
          "time": 163.124826,
          "velocity": 0.8740157480314961
        },
        {
          "duration": 0.027573500000016793,
          "durationTicks": 3,
          "midi": 54,
          "name": "F#3",
          "ticks": 17759,
          "time": 163.22592883333334,
          "velocity": 0.905511811023622
        },
        {
          "duration": 0.027573500000016793,
          "durationTicks": 3,
          "midi": 58,
          "name": "A#3",
          "ticks": 17760,
          "time": 163.23512,
          "velocity": 0.8031496062992126
        },
        {
          "duration": 0.018382333333335055,
          "durationTicks": 2,
          "midi": 68,
          "name": "G#4",
          "ticks": 17771,
          "time": 163.33622283333335,
          "velocity": 0.9133858267716536
        },
        {
          "duration": 0.22058800000002066,
          "durationTicks": 24,
          "midi": 54,
          "name": "F#3",
          "ticks": 17783,
          "time": 163.44651683333333,
          "velocity": 0.8346456692913385
        },
        {
          "duration": 0.22058800000002066,
          "durationTicks": 24,
          "midi": 58,
          "name": "A#3",
          "ticks": 17783,
          "time": 163.44651683333333,
          "velocity": 0.8740157480314961
        },
        {
          "duration": 0.22058800000002066,
          "durationTicks": 24,
          "midi": 68,
          "name": "G#4",
          "ticks": 17783,
          "time": 163.44651683333333,
          "velocity": 0.8661417322834646
        },
        {
          "duration": 0.21139683333333892,
          "durationTicks": 23,
          "midi": 73,
          "name": "C#5",
          "ticks": 17784,
          "time": 163.45570800000002,
          "velocity": 0.8267716535433071
        },
        {
          "duration": 0.21139683333333892,
          "durationTicks": 23,
          "midi": 75,
          "name": "D#5",
          "ticks": 17784,
          "time": 163.45570800000002,
          "velocity": 0.9133858267716536
        },
        {
          "duration": 0.02757349999998837,
          "durationTicks": 3,
          "midi": 58,
          "name": "A#3",
          "ticks": 17807,
          "time": 163.66710483333335,
          "velocity": 0.8031496062992126
        },
        {
          "duration": 0.02757349999998837,
          "durationTicks": 3,
          "midi": 63,
          "name": "D#4",
          "ticks": 17808,
          "time": 163.676296,
          "velocity": 0.9133858267716536
        },
        {
          "duration": 0.11029400000001033,
          "durationTicks": 12,
          "midi": 73,
          "name": "C#5",
          "ticks": 17819,
          "time": 163.77739883333334,
          "velocity": 0.9133858267716536
        },
        {
          "duration": 0.11029400000001033,
          "durationTicks": 12,
          "midi": 68,
          "name": "G#4",
          "ticks": 17819,
          "time": 163.77739883333334,
          "velocity": 0.8661417322834646
        },
        {
          "duration": 0.10110283333332859,
          "durationTicks": 11,
          "midi": 58,
          "name": "A#3",
          "ticks": 17820,
          "time": 163.78659000000002,
          "velocity": 0.8740157480314961
        },
        {
          "duration": 0.02757349999998837,
          "durationTicks": 3,
          "midi": 58,
          "name": "A#3",
          "ticks": 17831,
          "time": 163.88769283333335,
          "velocity": 0.905511811023622
        },
        {
          "duration": 0.018382333333335055,
          "durationTicks": 2,
          "midi": 68,
          "name": "G#4",
          "ticks": 17832,
          "time": 163.896884,
          "velocity": 0.8031496062992126
        },
        {
          "duration": 0.018382333333335055,
          "durationTicks": 2,
          "midi": 63,
          "name": "D#4",
          "ticks": 17843,
          "time": 163.99798683333336,
          "velocity": 0.9133858267716536
        },
        {
          "duration": 0.22058800000002066,
          "durationTicks": 24,
          "midi": 58,
          "name": "A#3",
          "ticks": 17855,
          "time": 164.10828083333334,
          "velocity": 0.8740157480314961
        },
        {
          "duration": 0.22058800000002066,
          "durationTicks": 24,
          "midi": 68,
          "name": "G#4",
          "ticks": 17855,
          "time": 164.10828083333334,
          "velocity": 0.8661417322834646
        },
        {
          "duration": 0.21139683333336734,
          "durationTicks": 23,
          "midi": 73,
          "name": "C#5",
          "ticks": 17856,
          "time": 164.117472,
          "velocity": 0.8267716535433071
        },
        {
          "duration": 0.21139683333336734,
          "durationTicks": 23,
          "midi": 75,
          "name": "D#5",
          "ticks": 17856,
          "time": 164.117472,
          "velocity": 0.9133858267716536
        },
        {
          "duration": 0.02757349999998837,
          "durationTicks": 3,
          "midi": 63,
          "name": "D#4",
          "ticks": 17879,
          "time": 164.32886883333336,
          "velocity": 0.905511811023622
        },
        {
          "duration": 0.018382333333335055,
          "durationTicks": 2,
          "midi": 68,
          "name": "G#4",
          "ticks": 17880,
          "time": 164.33806,
          "velocity": 0.8031496062992126
        },
        {
          "duration": 0.07352933333334022,
          "durationTicks": 8,
          "midi": 75,
          "name": "D#5",
          "ticks": 17891,
          "time": 164.43916283333334,
          "velocity": 0.9133858267716536
        },
        {
          "duration": 0.22058799999999223,
          "durationTicks": 24,
          "midi": 56,
          "name": "G#3",
          "ticks": 17903,
          "time": 164.54945683333335,
          "velocity": 0.8110236220472441
        },
        {
          "duration": 0.22058799999999223,
          "durationTicks": 24,
          "midi": 63,
          "name": "D#4",
          "ticks": 17903,
          "time": 164.54945683333335,
          "velocity": 0.8740157480314961
        },
        {
          "duration": 0.22058799999999223,
          "durationTicks": 24,
          "midi": 68,
          "name": "G#4",
          "ticks": 17903,
          "time": 164.54945683333335,
          "velocity": 0.8661417322834646
        },
        {
          "duration": 0.21139683333333892,
          "durationTicks": 23,
          "midi": 73,
          "name": "C#5",
          "ticks": 17904,
          "time": 164.558648,
          "velocity": 0.8267716535433071
        },
        {
          "duration": 0.21139683333333892,
          "durationTicks": 23,
          "midi": 77,
          "name": "F5",
          "ticks": 17904,
          "time": 164.558648,
          "velocity": 0.9133858267716536
        },
        {
          "duration": 0.03676466666667011,
          "durationTicks": 4,
          "midi": 63,
          "name": "D#4",
          "ticks": 17927,
          "time": 164.77004483333334,
          "velocity": 0.8031496062992126
        },
        {
          "duration": 0.027573500000016793,
          "durationTicks": 3,
          "midi": 68,
          "name": "G#4",
          "ticks": 17928,
          "time": 164.779236,
          "velocity": 0.9133858267716536
        },
        {
          "duration": 0.1102939999999819,
          "durationTicks": 12,
          "midi": 68,
          "name": "G#4",
          "ticks": 17939,
          "time": 164.88033883333335,
          "velocity": 0.9133858267716536
        },
        {
          "duration": 0.1102939999999819,
          "durationTicks": 12,
          "midi": 65,
          "name": "F4",
          "ticks": 17939,
          "time": 164.88033883333335,
          "velocity": 0.8661417322834646
        },
        {
          "duration": 0.10110283333332859,
          "durationTicks": 11,
          "midi": 56,
          "name": "G#3",
          "ticks": 17940,
          "time": 164.88953,
          "velocity": 0.8740157480314961
        },
        {
          "duration": 0.018382333333363476,
          "durationTicks": 2,
          "midi": 63,
          "name": "D#4",
          "ticks": 17951,
          "time": 164.99063283333334,
          "velocity": 0.8740157480314961
        },
        {
          "duration": 0.009191166666681738,
          "durationTicks": 1,
          "midi": 68,
          "name": "G#4",
          "ticks": 17952,
          "time": 164.99982400000002,
          "velocity": 0.9133858267716536
        },
        {
          "duration": 0.11029400000001033,
          "durationTicks": 12,
          "midi": 69,
          "name": "A4",
          "ticks": 17963,
          "time": 165.10092683333335,
          "velocity": 0.9133858267716536
        },
        {
          "duration": 0.11029400000001033,
          "durationTicks": 12,
          "midi": 65,
          "name": "F4",
          "ticks": 17963,
          "time": 165.10092683333335,
          "velocity": 0.8661417322834646
        },
        {
          "duration": 0.10110283333335701,
          "durationTicks": 11,
          "midi": 60,
          "name": "C4",
          "ticks": 17964,
          "time": 165.110118,
          "velocity": 0.8740157480314961
        },
        {
          "duration": 0.22058799999999223,
          "durationTicks": 24,
          "midi": 53,
          "name": "F3",
          "ticks": 17975,
          "time": 165.21122083333336,
          "velocity": 0.84251968503937
        },
        {
          "duration": 0.22058799999999223,
          "durationTicks": 24,
          "midi": 60,
          "name": "C4",
          "ticks": 17975,
          "time": 165.21122083333336,
          "velocity": 0.9133858267716536
        },
        {
          "duration": 0.21139683333333892,
          "durationTicks": 23,
          "midi": 63,
          "name": "D#4",
          "ticks": 17976,
          "time": 165.220412,
          "velocity": 0.8661417322834646
        },
        {
          "duration": 0.21139683333333892,
          "durationTicks": 23,
          "midi": 69,
          "name": "A4",
          "ticks": 17976,
          "time": 165.220412,
          "velocity": 0.8740157480314961
        },
        {
          "duration": 0.018382333333335055,
          "durationTicks": 2,
          "midi": 53,
          "name": "F3",
          "ticks": 17999,
          "time": 165.43180883333335,
          "velocity": 0.8582677165354331
        },
        {
          "duration": 0.02757349999998837,
          "durationTicks": 3,
          "midi": 60,
          "name": "C4",
          "ticks": 18000,
          "time": 165.441,
          "velocity": 0.8740157480314961
        },
        {
          "duration": 0.1102939999999819,
          "durationTicks": 12,
          "midi": 63,
          "name": "D#4",
          "ticks": 18011,
          "time": 165.54210283333336,
          "velocity": 0.7952755905511811
        },
        {
          "duration": 0.1102939999999819,
          "durationTicks": 12,
          "midi": 69,
          "name": "A4",
          "ticks": 18011,
          "time": 165.54210283333336,
          "velocity": 0.9133858267716536
        },
        {
          "duration": 0.10110283333332859,
          "durationTicks": 11,
          "midi": 72,
          "name": "C5",
          "ticks": 18012,
          "time": 165.551294,
          "velocity": 0.8661417322834646
        },
        {
          "duration": 0.10110283333332859,
          "durationTicks": 11,
          "midi": 75,
          "name": "D#5",
          "ticks": 18012,
          "time": 165.551294,
          "velocity": 0.8740157480314961
        },
        {
          "duration": 0.018382333333335055,
          "durationTicks": 2,
          "midi": 53,
          "name": "F3",
          "ticks": 18023,
          "time": 165.65239683333334,
          "velocity": 0.8582677165354331
        },
        {
          "duration": 0.027573500000016793,
          "durationTicks": 3,
          "midi": 60,
          "name": "C4",
          "ticks": 18024,
          "time": 165.661588,
          "velocity": 0.8740157480314961
        },
        {
          "duration": 0.1102939999999819,
          "durationTicks": 12,
          "midi": 69,
          "name": "A4",
          "ticks": 18035,
          "time": 165.76269083333335,
          "velocity": 0.8188976377952756
        },
        {
          "duration": 0.10110283333332859,
          "durationTicks": 11,
          "midi": 63,
          "name": "D#4",
          "ticks": 18036,
          "time": 165.771882,
          "velocity": 0.7795275590551181
        },
        {
          "duration": 0.22058800000002066,
          "durationTicks": 24,
          "midi": 63,
          "name": "D#4",
          "ticks": 18047,
          "time": 165.87298483333333,
          "velocity": 0.8110236220472441
        },
        {
          "duration": 0.22058800000002066,
          "durationTicks": 24,
          "midi": 69,
          "name": "A4",
          "ticks": 18047,
          "time": 165.87298483333333,
          "velocity": 0.7952755905511811
        },
        {
          "duration": 0.21139683333333892,
          "durationTicks": 23,
          "midi": 72,
          "name": "C5",
          "ticks": 18048,
          "time": 165.88217600000002,
          "velocity": 0.889763779527559
        },
        {
          "duration": 0.21139683333333892,
          "durationTicks": 23,
          "midi": 75,
          "name": "D#5",
          "ticks": 18048,
          "time": 165.88217600000002,
          "velocity": 0.7952755905511811
        },
        {
          "duration": 0.1102939999999819,
          "durationTicks": 12,
          "midi": 63,
          "name": "D#4",
          "ticks": 18071,
          "time": 166.09357283333335,
          "velocity": 0.8110236220472441
        },
        {
          "duration": 0.1102939999999819,
          "durationTicks": 12,
          "midi": 69,
          "name": "A4",
          "ticks": 18071,
          "time": 166.09357283333335,
          "velocity": 0.7952755905511811
        },
        {
          "duration": 0.10110283333332859,
          "durationTicks": 11,
          "midi": 72,
          "name": "C5",
          "ticks": 18072,
          "time": 166.102764,
          "velocity": 0.889763779527559
        },
        {
          "duration": 0.10110283333332859,
          "durationTicks": 11,
          "midi": 75,
          "name": "D#5",
          "ticks": 18072,
          "time": 166.102764,
          "velocity": 0.9133858267716536
        },
        {
          "duration": 0.11029400000001033,
          "durationTicks": 12,
          "midi": 75,
          "name": "D#5",
          "ticks": 18083,
          "time": 166.20386683333334,
          "velocity": 0.8976377952755905
        },
        {
          "duration": 0.10110283333335701,
          "durationTicks": 11,
          "midi": 72,
          "name": "C5",
          "ticks": 18083,
          "time": 166.20386683333334,
          "velocity": 0.8740157480314961
        },
        {
          "duration": 0.09191166666667527,
          "durationTicks": 10,
          "midi": 69,
          "name": "A4",
          "ticks": 18084,
          "time": 166.21305800000002,
          "velocity": 0.7795275590551181
        },
        {
          "duration": 0.4411760000000129,
          "durationTicks": 48,
          "midi": 54,
          "name": "F#3",
          "ticks": 18095,
          "time": 166.31416083333335,
          "velocity": 0.7874015748031497
        },
        {
          "duration": 0.4411760000000129,
          "durationTicks": 48,
          "midi": 61,
          "name": "C#4",
          "ticks": 18095,
          "time": 166.31416083333335,
          "velocity": 0.7795275590551181
        },
        {
          "duration": 0.4411760000000129,
          "durationTicks": 48,
          "midi": 65,
          "name": "F4",
          "ticks": 18095,
          "time": 166.31416083333335,
          "velocity": 0.8976377952755905
        },
        {
          "duration": 0.4319848333333596,
          "durationTicks": 47,
          "midi": 68,
          "name": "G#4",
          "ticks": 18096,
          "time": 166.323352,
          "velocity": 0.7637795275590551
        },
        {
          "duration": 0.4319848333333596,
          "durationTicks": 47,
          "midi": 75,
          "name": "D#5",
          "ticks": 18096,
          "time": 166.323352,
          "velocity": 0.905511811023622
        },
        {
          "duration": 0.22058799999999223,
          "durationTicks": 24,
          "midi": 68,
          "name": "G#4",
          "ticks": 18143,
          "time": 166.75533683333336,
          "velocity": 0.8661417322834646
        },
        {
          "duration": 0.22058799999999223,
          "durationTicks": 24,
          "midi": 73,
          "name": "C#5",
          "ticks": 18143,
          "time": 166.75533683333336,
          "velocity": 0.7795275590551181
        },
        {
          "duration": 0.21139683333333892,
          "durationTicks": 23,
          "midi": 77,
          "name": "F5",
          "ticks": 18144,
          "time": 166.764528,
          "velocity": 0.8740157480314961
        },
        {
          "duration": 0.018382333333335055,
          "durationTicks": 2,
          "midi": 68,
          "name": "G#4",
          "ticks": 18167,
          "time": 166.97592483333335,
          "velocity": 0.8976377952755905
        },
        {
          "duration": 0.009191166666681738,
          "durationTicks": 1,
          "midi": 73,
          "name": "C#5",
          "ticks": 18168,
          "time": 166.985116,
          "velocity": 0.8740157480314961
        },
        {
          "duration": 0.009191166666681738,
          "durationTicks": 1,
          "midi": 63,
          "name": "D#4",
          "ticks": 18179,
          "time": 167.08621883333333,
          "velocity": 0.8976377952755905
        },
        {
          "duration": 0.22058799999999223,
          "durationTicks": 24,
          "midi": 54,
          "name": "F#3",
          "ticks": 18191,
          "time": 167.19651283333334,
          "velocity": 0.7874015748031497
        },
        {
          "duration": 0.22058799999999223,
          "durationTicks": 24,
          "midi": 61,
          "name": "C#4",
          "ticks": 18191,
          "time": 167.19651283333334,
          "velocity": 0.8110236220472441
        },
        {
          "duration": 0.21139683333333892,
          "durationTicks": 23,
          "midi": 65,
          "name": "F4",
          "ticks": 18192,
          "time": 167.205704,
          "velocity": 0.84251968503937
        },
        {
          "duration": 0.21139683333333892,
          "durationTicks": 23,
          "midi": 68,
          "name": "G#4",
          "ticks": 18192,
          "time": 167.205704,
          "velocity": 0.8031496062992126
        },
        {
          "duration": 0.21139683333333892,
          "durationTicks": 23,
          "midi": 75,
          "name": "D#5",
          "ticks": 18192,
          "time": 167.205704,
          "velocity": 0.8740157480314961
        },
        {
          "duration": 0.22058800000002066,
          "durationTicks": 24,
          "midi": 65,
          "name": "F4",
          "ticks": 18215,
          "time": 167.41710083333334,
          "velocity": 0.8661417322834646
        },
        {
          "duration": 0.22058800000002066,
          "durationTicks": 24,
          "midi": 68,
          "name": "G#4",
          "ticks": 18215,
          "time": 167.41710083333334,
          "velocity": 0.7637795275590551
        },
        {
          "duration": 0.22058800000002066,
          "durationTicks": 24,
          "midi": 73,
          "name": "C#5",
          "ticks": 18215,
          "time": 167.41710083333334,
          "velocity": 0.7874015748031497
        },
        {
          "duration": 0.21139683333333892,
          "durationTicks": 23,
          "midi": 77,
          "name": "F5",
          "ticks": 18216,
          "time": 167.42629200000002,
          "velocity": 0.8740157480314961
        },
        {
          "duration": 0.018382333333335055,
          "durationTicks": 2,
          "midi": 68,
          "name": "G#4",
          "ticks": 18239,
          "time": 167.63768883333336,
          "velocity": 0.905511811023622
        },
        {
          "duration": 0.009191166666681738,
          "durationTicks": 1,
          "midi": 73,
          "name": "C#5",
          "ticks": 18240,
          "time": 167.64688,
          "velocity": 0.8740157480314961
        },
        {
          "duration": 0.009191166666653316,
          "durationTicks": 1,
          "midi": 66,
          "name": "F#4",
          "ticks": 18251,
          "time": 167.74798283333334,
          "velocity": 0.8976377952755905
        },
        {
          "duration": 0.44117599999998447,
          "durationTicks": 48,
          "midi": 56,
          "name": "G#3",
          "ticks": 18263,
          "time": 167.85827683333335,
          "velocity": 0.7637795275590551
        },
        {
          "duration": 0.44117599999998447,
          "durationTicks": 48,
          "midi": 61,
          "name": "C#4",
          "ticks": 18263,
          "time": 167.85827683333335,
          "velocity": 0.8582677165354331
        },
        {
          "duration": 0.44117599999998447,
          "durationTicks": 48,
          "midi": 65,
          "name": "F4",
          "ticks": 18263,
          "time": 167.85827683333335,
          "velocity": 0.8661417322834646
        },
        {
          "duration": 0.43198483333333115,
          "durationTicks": 47,
          "midi": 68,
          "name": "G#4",
          "ticks": 18264,
          "time": 167.867468,
          "velocity": 0.9212598425196851
        },
        {
          "duration": 0.43198483333333115,
          "durationTicks": 47,
          "midi": 75,
          "name": "D#5",
          "ticks": 18264,
          "time": 167.867468,
          "velocity": 0.84251968503937
        },
        {
          "duration": 0.22058800000002066,
          "durationTicks": 24,
          "midi": 60,
          "name": "C4",
          "ticks": 18311,
          "time": 168.29945283333333,
          "velocity": 0.7401574803149606
        },
        {
          "duration": 0.22058800000002066,
          "durationTicks": 24,
          "midi": 65,
          "name": "F4",
          "ticks": 18311,
          "time": 168.29945283333333,
          "velocity": 0.905511811023622
        },
        {
          "duration": 0.21139683333333892,
          "durationTicks": 23,
          "midi": 68,
          "name": "G#4",
          "ticks": 18312,
          "time": 168.30864400000002,
          "velocity": 0.7637795275590551
        },
        {
          "duration": 0.21139683333333892,
          "durationTicks": 23,
          "midi": 77,
          "name": "F5",
          "ticks": 18312,
          "time": 168.30864400000002,
          "velocity": 0.7952755905511811
        },
        {
          "duration": 0.22058799999999223,
          "durationTicks": 24,
          "midi": 68,
          "name": "G#4",
          "ticks": 18335,
          "time": 168.52004083333335,
          "velocity": 0.8110236220472441
        },
        {
          "duration": 0.22058799999999223,
          "durationTicks": 24,
          "midi": 72,
          "name": "C5",
          "ticks": 18335,
          "time": 168.52004083333335,
          "velocity": 0.7559055118110236
        },
        {
          "duration": 0.21139683333333892,
          "durationTicks": 23,
          "midi": 75,
          "name": "D#5",
          "ticks": 18336,
          "time": 168.529232,
          "velocity": 0.7637795275590551
        },
        {
          "duration": 0.21139683333333892,
          "durationTicks": 23,
          "midi": 80,
          "name": "G#5",
          "ticks": 18336,
          "time": 168.529232,
          "velocity": 0.7401574803149606
        },
        {
          "duration": 0.018382333333335055,
          "durationTicks": 2,
          "midi": 61,
          "name": "C#4",
          "ticks": 18359,
          "time": 168.74062883333335,
          "velocity": 0.9133858267716536
        },
        {
          "duration": 0.009191166666681738,
          "durationTicks": 1,
          "midi": 65,
          "name": "F4",
          "ticks": 18360,
          "time": 168.74982,
          "velocity": 0.7716535433070866
        },
        {
          "duration": 0.1102939999999819,
          "durationTicks": 12,
          "midi": 73,
          "name": "C#5",
          "ticks": 18371,
          "time": 168.85092283333336,
          "velocity": 0.8976377952755905
        },
        {
          "duration": 0.10110283333332859,
          "durationTicks": 11,
          "midi": 65,
          "name": "F4",
          "ticks": 18372,
          "time": 168.860114,
          "velocity": 0.8976377952755905
        },
        {
          "duration": 0.22058800000002066,
          "durationTicks": 24,
          "midi": 56,
          "name": "G#3",
          "ticks": 18383,
          "time": 168.96121683333334,
          "velocity": 0.7637795275590551
        },
        {
          "duration": 0.22058800000002066,
          "durationTicks": 24,
          "midi": 60,
          "name": "C4",
          "ticks": 18383,
          "time": 168.96121683333334,
          "velocity": 0.7401574803149606
        },
        {
          "duration": 0.22058800000002066,
          "durationTicks": 24,
          "midi": 65,
          "name": "F4",
          "ticks": 18383,
          "time": 168.96121683333334,
          "velocity": 0.889763779527559
        },
        {
          "duration": 0.21139683333336734,
          "durationTicks": 23,
          "midi": 68,
          "name": "G#4",
          "ticks": 18384,
          "time": 168.970408,
          "velocity": 0.7952755905511811
        },
        {
          "duration": 0.21139683333336734,
          "durationTicks": 23,
          "midi": 75,
          "name": "D#5",
          "ticks": 18384,
          "time": 168.970408,
          "velocity": 0.8818897637795275
        },
        {
          "duration": 0.21139683333333892,
          "durationTicks": 23,
          "midi": 63,
          "name": "D#4",
          "ticks": 18407,
          "time": 169.18180483333336,
          "velocity": 0.8661417322834646
        },
        {
          "duration": 0.21139683333333892,
          "durationTicks": 23,
          "midi": 68,
          "name": "G#4",
          "ticks": 18407,
          "time": 169.18180483333336,
          "velocity": 0.889763779527559
        },
        {
          "duration": 0.43198483333333115,
          "durationTicks": 47,
          "midi": 72,
          "name": "C5",
          "ticks": 18408,
          "time": 169.190996,
          "velocity": 0.8661417322834646
        },
        {
          "duration": 0.22058799999999223,
          "durationTicks": 24,
          "midi": 68,
          "name": "G#4",
          "ticks": 18431,
          "time": 169.40239283333335,
          "velocity": 0.8110236220472441
        },
        {
          "duration": 0.21139683333333892,
          "durationTicks": 23,
          "midi": 75,
          "name": "D#5",
          "ticks": 18432,
          "time": 169.411584,
          "velocity": 0.8110236220472441
        },
        {
          "duration": 0.21139683333333892,
          "durationTicks": 23,
          "midi": 80,
          "name": "G#5",
          "ticks": 18432,
          "time": 169.411584,
          "velocity": 0.8661417322834646
        },
        {
          "duration": 0.018382333333335055,
          "durationTicks": 2,
          "midi": 61,
          "name": "C#4",
          "ticks": 18455,
          "time": 169.62298083333334,
          "velocity": 0.9133858267716536
        },
        {
          "duration": 0.009191166666681738,
          "durationTicks": 1,
          "midi": 65,
          "name": "F4",
          "ticks": 18456,
          "time": 169.632172,
          "velocity": 0.7716535433070866
        },
        {
          "duration": 0.1102939999999819,
          "durationTicks": 12,
          "midi": 75,
          "name": "D#5",
          "ticks": 18467,
          "time": 169.73327483333335,
          "velocity": 0.8976377952755905
        },
        {
          "duration": 0.10110283333332859,
          "durationTicks": 11,
          "midi": 68,
          "name": "G#4",
          "ticks": 18468,
          "time": 169.742466,
          "velocity": 0.8582677165354331
        },
        {
          "duration": 0.6617640000000051,
          "durationTicks": 72,
          "midi": 56,
          "name": "G#3",
          "ticks": 18479,
          "time": 169.84356883333334,
          "velocity": 0.7952755905511811
        },
        {
          "duration": 0.6617640000000051,
          "durationTicks": 72,
          "midi": 60,
          "name": "C4",
          "ticks": 18479,
          "time": 169.84356883333334,
          "velocity": 0.7952755905511811
        },
        {
          "duration": 0.6617640000000051,
          "durationTicks": 72,
          "midi": 63,
          "name": "D#4",
          "ticks": 18479,
          "time": 169.84356883333334,
          "velocity": 0.905511811023622
        },
        {
          "duration": 0.6525728333333234,
          "durationTicks": 71,
          "midi": 68,
          "name": "G#4",
          "ticks": 18480,
          "time": 169.85276000000002,
          "velocity": 0.8110236220472441
        },
        {
          "duration": 0.6525728333333234,
          "durationTicks": 71,
          "midi": 72,
          "name": "C5",
          "ticks": 18480,
          "time": 169.85276000000002,
          "velocity": 0.8740157480314961
        },
        {
          "duration": 0.018382333333335055,
          "durationTicks": 2,
          "midi": 56,
          "name": "G#3",
          "ticks": 18551,
          "time": 170.50533283333334,
          "velocity": 0.7795275590551181
        },
        {
          "duration": 0.009191166666681738,
          "durationTicks": 1,
          "midi": 63,
          "name": "D#4",
          "ticks": 18552,
          "time": 170.514524,
          "velocity": 0.889763779527559
        },
        {
          "duration": 0.018382333333335055,
          "durationTicks": 2,
          "midi": 63,
          "name": "D#4",
          "ticks": 18563,
          "time": 170.61562683333335,
          "velocity": 0.8976377952755905
        },
        {
          "duration": 0.22058800000002066,
          "durationTicks": 24,
          "midi": 56,
          "name": "G#3",
          "ticks": 18575,
          "time": 170.72592083333333,
          "velocity": 0.7874015748031497
        },
        {
          "duration": 0.22058800000002066,
          "durationTicks": 24,
          "midi": 60,
          "name": "C4",
          "ticks": 18575,
          "time": 170.72592083333333,
          "velocity": 0.7637795275590551
        },
        {
          "duration": 0.22058800000002066,
          "durationTicks": 24,
          "midi": 63,
          "name": "D#4",
          "ticks": 18575,
          "time": 170.72592083333333,
          "velocity": 0.905511811023622
        },
        {
          "duration": 0.21139683333333892,
          "durationTicks": 23,
          "midi": 68,
          "name": "G#4",
          "ticks": 18576,
          "time": 170.73511200000002,
          "velocity": 0.7637795275590551
        },
        {
          "duration": 0.21139683333333892,
          "durationTicks": 23,
          "midi": 72,
          "name": "C5",
          "ticks": 18576,
          "time": 170.73511200000002,
          "velocity": 0.7401574803149606
        },
        {
          "duration": 0.22058799999999223,
          "durationTicks": 24,
          "midi": 56,
          "name": "G#3",
          "ticks": 18599,
          "time": 170.94650883333335,
          "velocity": 0.7322834645669292
        },
        {
          "duration": 0.22058799999999223,
          "durationTicks": 24,
          "midi": 63,
          "name": "D#4",
          "ticks": 18599,
          "time": 170.94650883333335,
          "velocity": 0.905511811023622
        },
        {
          "duration": 0.22058799999999223,
          "durationTicks": 24,
          "midi": 68,
          "name": "G#4",
          "ticks": 18599,
          "time": 170.94650883333335,
          "velocity": 0.7952755905511811
        },
        {
          "duration": 0.21139683333333892,
          "durationTicks": 23,
          "midi": 72,
          "name": "C5",
          "ticks": 18600,
          "time": 170.9557,
          "velocity": 0.7480314960629921
        },
        {
          "duration": 0.018382333333335055,
          "durationTicks": 2,
          "midi": 56,
          "name": "G#3",
          "ticks": 18623,
          "time": 171.16709683333335,
          "velocity": 0.7795275590551181
        },
        {
          "duration": 0.009191166666681738,
          "durationTicks": 1,
          "midi": 63,
          "name": "D#4",
          "ticks": 18624,
          "time": 171.176288,
          "velocity": 0.889763779527559
        },
        {
          "duration": 0.009191166666653316,
          "durationTicks": 1,
          "midi": 65,
          "name": "F4",
          "ticks": 18635,
          "time": 171.27739083333336,
          "velocity": 0.8976377952755905
        },
        {
          "duration": 0.4411760000000129,
          "durationTicks": 48,
          "midi": 63,
          "name": "D#4",
          "ticks": 18647,
          "time": 171.38768483333334,
          "velocity": 0.8740157480314961
        },
        {
          "duration": 0.4411760000000129,
          "durationTicks": 48,
          "midi": 68,
          "name": "G#4",
          "ticks": 18647,
          "time": 171.38768483333334,
          "velocity": 0.889763779527559
        },
        {
          "duration": 0.4411760000000129,
          "durationTicks": 48,
          "midi": 72,
          "name": "C5",
          "ticks": 18647,
          "time": 171.38768483333334,
          "velocity": 0.6141732283464567
        },
        {
          "duration": 0.4319848333333596,
          "durationTicks": 47,
          "midi": 75,
          "name": "D#5",
          "ticks": 18648,
          "time": 171.396876,
          "velocity": 0.8110236220472441
        },
        {
          "duration": 0.22058799999999223,
          "durationTicks": 24,
          "midi": 60,
          "name": "C4",
          "ticks": 18695,
          "time": 171.82886083333335,
          "velocity": 0.6850393700787402
        },
        {
          "duration": 0.22058799999999223,
          "durationTicks": 24,
          "midi": 63,
          "name": "D#4",
          "ticks": 18695,
          "time": 171.82886083333335,
          "velocity": 0.7716535433070866
        },
        {
          "duration": 0.22058799999999223,
          "durationTicks": 24,
          "midi": 68,
          "name": "G#4",
          "ticks": 18695,
          "time": 171.82886083333335,
          "velocity": 0.8110236220472441
        },
        {
          "duration": 0.21139683333333892,
          "durationTicks": 23,
          "midi": 72,
          "name": "C5",
          "ticks": 18696,
          "time": 171.838052,
          "velocity": 0.6771653543307087
        },
        {
          "duration": 0.21139683333333892,
          "durationTicks": 23,
          "midi": 75,
          "name": "D#5",
          "ticks": 18696,
          "time": 171.838052,
          "velocity": 0.8267716535433071
        },
        {
          "duration": 0.018382333333335055,
          "durationTicks": 2,
          "midi": 56,
          "name": "G#3",
          "ticks": 18719,
          "time": 172.04944883333334,
          "velocity": 0.7795275590551181
        },
        {
          "duration": 0.009191166666681738,
          "durationTicks": 1,
          "midi": 63,
          "name": "D#4",
          "ticks": 18720,
          "time": 172.05864,
          "velocity": 0.889763779527559
        },
        {
          "duration": 0.009191166666653316,
          "durationTicks": 1,
          "midi": 68,
          "name": "G#4",
          "ticks": 18731,
          "time": 172.15974283333335,
          "velocity": 0.8976377952755905
        },
        {
          "duration": 0.4411760000000129,
          "durationTicks": 48,
          "midi": 58,
          "name": "A#3",
          "ticks": 18743,
          "time": 172.27003683333334,
          "velocity": 0.8582677165354331
        },
        {
          "duration": 0.4411760000000129,
          "durationTicks": 48,
          "midi": 61,
          "name": "C#4",
          "ticks": 18743,
          "time": 172.27003683333334,
          "velocity": 0.889763779527559
        },
        {
          "duration": 0.4411760000000129,
          "durationTicks": 48,
          "midi": 65,
          "name": "F4",
          "ticks": 18743,
          "time": 172.27003683333334,
          "velocity": 0.7716535433070866
        },
        {
          "duration": 0.43198483333333115,
          "durationTicks": 47,
          "midi": 68,
          "name": "G#4",
          "ticks": 18744,
          "time": 172.27922800000002,
          "velocity": 0.7952755905511811
        },
        {
          "duration": 0.43198483333333115,
          "durationTicks": 47,
          "midi": 73,
          "name": "C#5",
          "ticks": 18744,
          "time": 172.27922800000002,
          "velocity": 0.8110236220472441
        },
        {
          "duration": 0.22058799999999223,
          "durationTicks": 24,
          "midi": 58,
          "name": "A#3",
          "ticks": 18791,
          "time": 172.71121283333335,
          "velocity": 0.7874015748031497
        },
        {
          "duration": 0.22058799999999223,
          "durationTicks": 24,
          "midi": 61,
          "name": "C#4",
          "ticks": 18791,
          "time": 172.71121283333335,
          "velocity": 0.7637795275590551
        },
        {
          "duration": 0.22058799999999223,
          "durationTicks": 24,
          "midi": 65,
          "name": "F4",
          "ticks": 18791,
          "time": 172.71121283333335,
          "velocity": 0.7952755905511811
        },
        {
          "duration": 0.21139683333333892,
          "durationTicks": 23,
          "midi": 68,
          "name": "G#4",
          "ticks": 18792,
          "time": 172.720404,
          "velocity": 0.7716535433070866
        },
        {
          "duration": 0.21139683333333892,
          "durationTicks": 23,
          "midi": 73,
          "name": "C#5",
          "ticks": 18792,
          "time": 172.720404,
          "velocity": 0.905511811023622
        },
        {
          "duration": 0.11029400000001033,
          "durationTicks": 12,
          "midi": 61,
          "name": "C#4",
          "ticks": 18815,
          "time": 172.93180083333334,
          "velocity": 0.84251968503937
        },
        {
          "duration": 0.11029400000001033,
          "durationTicks": 12,
          "midi": 73,
          "name": "C#5",
          "ticks": 18815,
          "time": 172.93180083333334,
          "velocity": 0.889763779527559
        },
        {
          "duration": 0.009191166666653316,
          "durationTicks": 1,
          "midi": 73,
          "name": "C#5",
          "ticks": 18827,
          "time": 173.04209483333335,
          "velocity": 0.8976377952755905
        },
        {
          "duration": 0.19301450000000386,
          "durationTicks": 21,
          "midi": 54,
          "name": "F#3",
          "ticks": 18839,
          "time": 173.15238883333333,
          "velocity": 0.8976377952755905
        },
        {
          "duration": 0.44117599999998447,
          "durationTicks": 48,
          "midi": 54,
          "name": "F#3",
          "ticks": 18863,
          "time": 173.37297683333335,
          "velocity": 0.7874015748031497
        },
        {
          "duration": 0.44117599999998447,
          "durationTicks": 48,
          "midi": 61,
          "name": "C#4",
          "ticks": 18863,
          "time": 173.37297683333335,
          "velocity": 0.7795275590551181
        },
        {
          "duration": 0.44117599999998447,
          "durationTicks": 48,
          "midi": 65,
          "name": "F4",
          "ticks": 18863,
          "time": 173.37297683333335,
          "velocity": 0.8346456692913385
        },
        {
          "duration": 0.43198483333333115,
          "durationTicks": 47,
          "midi": 68,
          "name": "G#4",
          "ticks": 18864,
          "time": 173.382168,
          "velocity": 0.7637795275590551
        },
        {
          "duration": 0.43198483333333115,
          "durationTicks": 47,
          "midi": 73,
          "name": "C#5",
          "ticks": 18864,
          "time": 173.382168,
          "velocity": 0.8031496062992126
        },
        {
          "duration": 0.018382333333363476,
          "durationTicks": 2,
          "midi": 65,
          "name": "F4",
          "ticks": 18911,
          "time": 173.81415283333334,
          "velocity": 0.8976377952755905
        },
        {
          "duration": 0.00919116666671016,
          "durationTicks": 1,
          "midi": 68,
          "name": "G#4",
          "ticks": 18912,
          "time": 173.823344,
          "velocity": 0.8740157480314961
        },
        {
          "duration": 0.11029400000001033,
          "durationTicks": 12,
          "midi": 72,
          "name": "C5",
          "ticks": 18923,
          "time": 173.92444683333335,
          "velocity": 0.8188976377952756
        },
        {
          "duration": 0.44117599999998447,
          "durationTicks": 48,
          "midi": 61,
          "name": "C#4",
          "ticks": 18935,
          "time": 174.03474083333336,
          "velocity": 0.8582677165354331
        },
        {
          "duration": 0.43198483333333115,
          "durationTicks": 47,
          "midi": 73,
          "name": "C#5",
          "ticks": 18936,
          "time": 174.043932,
          "velocity": 0.9133858267716536
        },
        {
          "duration": 0.22058799999999223,
          "durationTicks": 24,
          "midi": 54,
          "name": "F#3",
          "ticks": 18959,
          "time": 174.25532883333335,
          "velocity": 0.7874015748031497
        },
        {
          "duration": 0.22058799999999223,
          "durationTicks": 24,
          "midi": 54,
          "name": "F#3",
          "ticks": 18983,
          "time": 174.47591683333334,
          "velocity": 0.8661417322834646
        },
        {
          "duration": 0.22058799999999223,
          "durationTicks": 24,
          "midi": 61,
          "name": "C#4",
          "ticks": 18983,
          "time": 174.47591683333334,
          "velocity": 0.7637795275590551
        },
        {
          "duration": 0.22058799999999223,
          "durationTicks": 24,
          "midi": 65,
          "name": "F4",
          "ticks": 18983,
          "time": 174.47591683333334,
          "velocity": 0.7874015748031497
        },
        {
          "duration": 0.21139683333333892,
          "durationTicks": 23,
          "midi": 68,
          "name": "G#4",
          "ticks": 18984,
          "time": 174.485108,
          "velocity": 0.8740157480314961
        },
        {
          "duration": 0.11029400000001033,
          "durationTicks": 12,
          "midi": 65,
          "name": "F4",
          "ticks": 19007,
          "time": 174.69650483333334,
          "velocity": 0.7480314960629921
        },
        {
          "duration": 0.11029400000001033,
          "durationTicks": 12,
          "midi": 70,
          "name": "A#4",
          "ticks": 19007,
          "time": 174.69650483333334,
          "velocity": 0.905511811023622
        },
        {
          "duration": 0.10110283333332859,
          "durationTicks": 11,
          "midi": 73,
          "name": "C#5",
          "ticks": 19008,
          "time": 174.70569600000002,
          "velocity": 0.8740157480314961
        },
        {
          "duration": 0.009191166666653316,
          "durationTicks": 1,
          "midi": 66,
          "name": "F#4",
          "ticks": 19019,
          "time": 174.80679883333335,
          "velocity": 0.8976377952755905
        },
        {
          "duration": 0.018382333333335055,
          "durationTicks": 2,
          "midi": 65,
          "name": "F4",
          "ticks": 19031,
          "time": 174.91709283333336,
          "velocity": 0.8976377952755905
        },
        {
          "duration": 0.009191166666681738,
          "durationTicks": 1,
          "midi": 68,
          "name": "G#4",
          "ticks": 19032,
          "time": 174.926284,
          "velocity": 0.8740157480314961
        },
        {
          "duration": 0.11029400000001033,
          "durationTicks": 12,
          "midi": 57,
          "name": "A3",
          "ticks": 19043,
          "time": 175.02738683333334,
          "velocity": 0.7874015748031497
        },
        {
          "duration": 0.10110283333335701,
          "durationTicks": 11,
          "midi": 69,
          "name": "A4",
          "ticks": 19044,
          "time": 175.036578,
          "velocity": 0.84251968503937
        },
        {
          "duration": 0.44117599999998447,
          "durationTicks": 48,
          "midi": 53,
          "name": "F3",
          "ticks": 19055,
          "time": 175.13768083333335,
          "velocity": 0.7874015748031497
        },
        {
          "duration": 0.44117599999998447,
          "durationTicks": 48,
          "midi": 60,
          "name": "C4",
          "ticks": 19055,
          "time": 175.13768083333335,
          "velocity": 0.7795275590551181
        },
        {
          "duration": 0.44117599999998447,
          "durationTicks": 48,
          "midi": 63,
          "name": "D#4",
          "ticks": 19055,
          "time": 175.13768083333335,
          "velocity": 0.8976377952755905
        },
        {
          "duration": 0.43198483333333115,
          "durationTicks": 47,
          "midi": 69,
          "name": "A4",
          "ticks": 19056,
          "time": 175.146872,
          "velocity": 0.7637795275590551
        },
        {
          "duration": 0.43198483333333115,
          "durationTicks": 47,
          "midi": 77,
          "name": "F5",
          "ticks": 19056,
          "time": 175.146872,
          "velocity": 0.8267716535433071
        },
        {
          "duration": 0.018382333333363476,
          "durationTicks": 2,
          "midi": 63,
          "name": "D#4",
          "ticks": 19103,
          "time": 175.57885683333333,
          "velocity": 0.8976377952755905
        },
        {
          "duration": 0.009191166666681738,
          "durationTicks": 1,
          "midi": 69,
          "name": "A4",
          "ticks": 19104,
          "time": 175.58804800000001,
          "velocity": 0.8740157480314961
        },
        {
          "duration": 0.009191166666653316,
          "durationTicks": 1,
          "midi": 72,
          "name": "C5",
          "ticks": 19115,
          "time": 175.68915083333334,
          "velocity": 0.8976377952755905
        },
        {
          "duration": 0.4136024999999961,
          "durationTicks": 45,
          "midi": 63,
          "name": "D#4",
          "ticks": 19127,
          "time": 175.79944483333335,
          "velocity": 0.84251968503937
        },
        {
          "duration": 0.4136024999999961,
          "durationTicks": 45,
          "midi": 69,
          "name": "A4",
          "ticks": 19127,
          "time": 175.79944483333335,
          "velocity": 0.8661417322834646
        },
        {
          "duration": 0.4044113333333428,
          "durationTicks": 44,
          "midi": 72,
          "name": "C5",
          "ticks": 19128,
          "time": 175.808636,
          "velocity": 0.7795275590551181
        },
        {
          "duration": 0.4044113333333428,
          "durationTicks": 44,
          "midi": 75,
          "name": "D#5",
          "ticks": 19128,
          "time": 175.808636,
          "velocity": 0.9212598425196851
        },
        {
          "duration": 0.4411760000000129,
          "durationTicks": 48,
          "midi": 60,
          "name": "C4",
          "ticks": 19175,
          "time": 176.24062083333334,
          "velocity": 0.8818897637795275
        },
        {
          "duration": 0.4411760000000129,
          "durationTicks": 48,
          "midi": 66,
          "name": "F#4",
          "ticks": 19175,
          "time": 176.24062083333334,
          "velocity": 0.7637795275590551
        },
        {
          "duration": 0.4411760000000129,
          "durationTicks": 48,
          "midi": 69,
          "name": "A4",
          "ticks": 19175,
          "time": 176.24062083333334,
          "velocity": 0.7795275590551181
        },
        {
          "duration": 0.4319848333333596,
          "durationTicks": 47,
          "midi": 72,
          "name": "C5",
          "ticks": 19176,
          "time": 176.249812,
          "velocity": 0.8740157480314961
        },
        {
          "duration": 0.009191166666653316,
          "durationTicks": 1,
          "midi": 60,
          "name": "C4",
          "ticks": 19223,
          "time": 176.68179683333335,
          "velocity": 0.8740157480314961
        },
        {
          "duration": 0.009191166666653316,
          "durationTicks": 1,
          "midi": 65,
          "name": "F4",
          "ticks": 19223,
          "time": 176.68179683333335,
          "velocity": 0.7952755905511811
        },
        {
          "duration": 0.018382333333335055,
          "durationTicks": 2,
          "midi": 69,
          "name": "A4",
          "ticks": 19224,
          "time": 176.690988,
          "velocity": 0.905511811023622
        },
        {
          "duration": 0.07352933333336864,
          "durationTicks": 8,
          "midi": 75,
          "name": "D#5",
          "ticks": 19235,
          "time": 176.79209083333333,
          "velocity": 0.8976377952755905
        },
        {
          "duration": 0.22058799999999223,
          "durationTicks": 24,
          "midi": 58,
          "name": "A#3",
          "ticks": 19247,
          "time": 176.90238483333334,
          "velocity": 0.8110236220472441
        },
        {
          "duration": 0.22058799999999223,
          "durationTicks": 24,
          "midi": 63,
          "name": "D#4",
          "ticks": 19247,
          "time": 176.90238483333334,
          "velocity": 0.8740157480314961
        },
        {
          "duration": 0.22058799999999223,
          "durationTicks": 24,
          "midi": 68,
          "name": "G#4",
          "ticks": 19247,
          "time": 176.90238483333334,
          "velocity": 0.8661417322834646
        },
        {
          "duration": 0.21139683333333892,
          "durationTicks": 23,
          "midi": 73,
          "name": "C#5",
          "ticks": 19248,
          "time": 176.911576,
          "velocity": 0.8267716535433071
        },
        {
          "duration": 0.21139683333333892,
          "durationTicks": 23,
          "midi": 75,
          "name": "D#5",
          "ticks": 19248,
          "time": 176.911576,
          "velocity": 0.9133858267716536
        },
        {
          "duration": 0.03676466666667011,
          "durationTicks": 4,
          "midi": 58,
          "name": "A#3",
          "ticks": 19271,
          "time": 177.12297283333334,
          "velocity": 0.8031496062992126
        },
        {
          "duration": 0.02757349999998837,
          "durationTicks": 3,
          "midi": 63,
          "name": "D#4",
          "ticks": 19272,
          "time": 177.13216400000002,
          "velocity": 0.9133858267716536
        },
        {
          "duration": 0.11029400000001033,
          "durationTicks": 12,
          "midi": 75,
          "name": "D#5",
          "ticks": 19283,
          "time": 177.23326683333335,
          "velocity": 0.9133858267716536
        },
        {
          "duration": 0.11029400000001033,
          "durationTicks": 12,
          "midi": 73,
          "name": "C#5",
          "ticks": 19283,
          "time": 177.23326683333335,
          "velocity": 0.8661417322834646
        },
        {
          "duration": 0.10110283333335701,
          "durationTicks": 11,
          "midi": 68,
          "name": "G#4",
          "ticks": 19284,
          "time": 177.242458,
          "velocity": 0.8661417322834646
        },
        {
          "duration": 0.10110283333335701,
          "durationTicks": 11,
          "midi": 63,
          "name": "D#4",
          "ticks": 19284,
          "time": 177.242458,
          "velocity": 0.8740157480314961
        },
        {
          "duration": 0.02757349999998837,
          "durationTicks": 3,
          "midi": 63,
          "name": "D#4",
          "ticks": 19295,
          "time": 177.34356083333336,
          "velocity": 0.905511811023622
        },
        {
          "duration": 0.02757349999998837,
          "durationTicks": 3,
          "midi": 68,
          "name": "G#4",
          "ticks": 19296,
          "time": 177.352752,
          "velocity": 0.8031496062992126
        },
        {
          "duration": 0.018382333333363476,
          "durationTicks": 2,
          "midi": 63,
          "name": "D#4",
          "ticks": 19307,
          "time": 177.45385483333334,
          "velocity": 0.9133858267716536
        },
        {
          "duration": 0.22058799999999223,
          "durationTicks": 24,
          "midi": 63,
          "name": "D#4",
          "ticks": 19319,
          "time": 177.56414883333335,
          "velocity": 0.8740157480314961
        },
        {
          "duration": 0.22058799999999223,
          "durationTicks": 24,
          "midi": 68,
          "name": "G#4",
          "ticks": 19319,
          "time": 177.56414883333335,
          "velocity": 0.8661417322834646
        },
        {
          "duration": 0.21139683333333892,
          "durationTicks": 23,
          "midi": 73,
          "name": "C#5",
          "ticks": 19320,
          "time": 177.57334,
          "velocity": 0.8267716535433071
        },
        {
          "duration": 0.21139683333333892,
          "durationTicks": 23,
          "midi": 75,
          "name": "D#5",
          "ticks": 19320,
          "time": 177.57334,
          "velocity": 0.9133858267716536
        },
        {
          "duration": 0.027573500000016793,
          "durationTicks": 3,
          "midi": 58,
          "name": "A#3",
          "ticks": 19343,
          "time": 177.78473683333334,
          "velocity": 0.8031496062992126
        },
        {
          "duration": 0.027573500000016793,
          "durationTicks": 3,
          "midi": 63,
          "name": "D#4",
          "ticks": 19344,
          "time": 177.793928,
          "velocity": 0.9133858267716536
        },
        {
          "duration": 0.1102939999999819,
          "durationTicks": 12,
          "midi": 75,
          "name": "D#5",
          "ticks": 19355,
          "time": 177.89503083333335,
          "velocity": 0.9133858267716536
        },
        {
          "duration": 0.1102939999999819,
          "durationTicks": 12,
          "midi": 72,
          "name": "C5",
          "ticks": 19355,
          "time": 177.89503083333335,
          "velocity": 0.8661417322834646
        },
        {
          "duration": 0.10110283333332859,
          "durationTicks": 11,
          "midi": 68,
          "name": "G#4",
          "ticks": 19356,
          "time": 177.904222,
          "velocity": 0.8661417322834646
        },
        {
          "duration": 0.10110283333332859,
          "durationTicks": 11,
          "midi": 63,
          "name": "D#4",
          "ticks": 19356,
          "time": 177.904222,
          "velocity": 0.8740157480314961
        },
        {
          "duration": 0.027573500000016793,
          "durationTicks": 3,
          "midi": 63,
          "name": "D#4",
          "ticks": 19367,
          "time": 178.00532483333333,
          "velocity": 0.905511811023622
        },
        {
          "duration": 0.018382333333335055,
          "durationTicks": 2,
          "midi": 68,
          "name": "G#4",
          "ticks": 19368,
          "time": 178.01451600000001,
          "velocity": 0.8031496062992126
        },
        {
          "duration": 0.018382333333335055,
          "durationTicks": 2,
          "midi": 63,
          "name": "D#4",
          "ticks": 19379,
          "time": 178.11561883333334,
          "velocity": 0.9133858267716536
        },
        {
          "duration": 0.22058799999999223,
          "durationTicks": 24,
          "midi": 63,
          "name": "D#4",
          "ticks": 19391,
          "time": 178.22591283333335,
          "velocity": 0.8740157480314961
        },
        {
          "duration": 0.22058799999999223,
          "durationTicks": 24,
          "midi": 68,
          "name": "G#4",
          "ticks": 19391,
          "time": 178.22591283333335,
          "velocity": 0.8661417322834646
        },
        {
          "duration": 0.21139683333333892,
          "durationTicks": 23,
          "midi": 72,
          "name": "C5",
          "ticks": 19392,
          "time": 178.235104,
          "velocity": 0.8267716535433071
        },
        {
          "duration": 0.21139683333333892,
          "durationTicks": 23,
          "midi": 75,
          "name": "D#5",
          "ticks": 19392,
          "time": 178.235104,
          "velocity": 0.9133858267716536
        },
        {
          "duration": 0.02757349999998837,
          "durationTicks": 3,
          "midi": 63,
          "name": "D#4",
          "ticks": 19415,
          "time": 178.44650083333335,
          "velocity": 0.905511811023622
        },
        {
          "duration": 0.018382333333335055,
          "durationTicks": 2,
          "midi": 68,
          "name": "G#4",
          "ticks": 19416,
          "time": 178.455692,
          "velocity": 0.8031496062992126
        },
        {
          "duration": 0.018382333333335055,
          "durationTicks": 2,
          "midi": 63,
          "name": "D#4",
          "ticks": 19427,
          "time": 178.55679483333336,
          "velocity": 0.9133858267716536
        },
        {
          "duration": 0.22058800000002066,
          "durationTicks": 24,
          "midi": 61,
          "name": "C#4",
          "ticks": 19439,
          "time": 178.66708883333334,
          "velocity": 0.8740157480314961
        },
        {
          "duration": 0.22058800000002066,
          "durationTicks": 24,
          "midi": 65,
          "name": "F4",
          "ticks": 19439,
          "time": 178.66708883333334,
          "velocity": 0.8661417322834646
        },
        {
          "duration": 0.21139683333336734,
          "durationTicks": 23,
          "midi": 68,
          "name": "G#4",
          "ticks": 19440,
          "time": 178.67628,
          "velocity": 0.8267716535433071
        },
        {
          "duration": 0.21139683333336734,
          "durationTicks": 23,
          "midi": 73,
          "name": "C#5",
          "ticks": 19440,
          "time": 178.67628,
          "velocity": 0.9133858267716536
        },
        {
          "duration": 0.02757349999998837,
          "durationTicks": 3,
          "midi": 61,
          "name": "C#4",
          "ticks": 19463,
          "time": 178.88767683333336,
          "velocity": 0.8031496062992126
        },
        {
          "duration": 0.018382333333335055,
          "durationTicks": 2,
          "midi": 65,
          "name": "F4",
          "ticks": 19464,
          "time": 178.896868,
          "velocity": 0.9133858267716536
        },
        {
          "duration": 0.11029400000001033,
          "durationTicks": 12,
          "midi": 73,
          "name": "C#5",
          "ticks": 19475,
          "time": 178.99797083333334,
          "velocity": 0.8188976377952756
        },
        {
          "duration": 0.11029400000001033,
          "durationTicks": 12,
          "midi": 68,
          "name": "G#4",
          "ticks": 19475,
          "time": 178.99797083333334,
          "velocity": 0.905511811023622
        },
        {
          "duration": 0.10110283333335701,
          "durationTicks": 11,
          "midi": 65,
          "name": "F4",
          "ticks": 19476,
          "time": 179.007162,
          "velocity": 0.84251968503937
        },
        {
          "duration": 0.10110283333335701,
          "durationTicks": 11,
          "midi": 61,
          "name": "C#4",
          "ticks": 19476,
          "time": 179.007162,
          "velocity": 0.8503937007874016
        },
        {
          "duration": 0.02757349999998837,
          "durationTicks": 3,
          "midi": 65,
          "name": "F4",
          "ticks": 19487,
          "time": 179.10826483333335,
          "velocity": 0.905511811023622
        },
        {
          "duration": 0.018382333333335055,
          "durationTicks": 2,
          "midi": 68,
          "name": "G#4",
          "ticks": 19488,
          "time": 179.117456,
          "velocity": 0.8031496062992126
        },
        {
          "duration": 0.018382333333363476,
          "durationTicks": 2,
          "midi": 72,
          "name": "C5",
          "ticks": 19499,
          "time": 179.21855883333333,
          "velocity": 0.9133858267716536
        },
        {
          "duration": 0.22058799999999223,
          "durationTicks": 24,
          "midi": 61,
          "name": "C#4",
          "ticks": 19511,
          "time": 179.32885283333334,
          "velocity": 0.8740157480314961
        },
        {
          "duration": 0.22058799999999223,
          "durationTicks": 24,
          "midi": 65,
          "name": "F4",
          "ticks": 19511,
          "time": 179.32885283333334,
          "velocity": 0.8661417322834646
        },
        {
          "duration": 0.21139683333333892,
          "durationTicks": 23,
          "midi": 68,
          "name": "G#4",
          "ticks": 19512,
          "time": 179.338044,
          "velocity": 0.8740157480314961
        },
        {
          "duration": 0.21139683333333892,
          "durationTicks": 23,
          "midi": 72,
          "name": "C5",
          "ticks": 19512,
          "time": 179.338044,
          "velocity": 0.937007874015748
        },
        {
          "duration": 0.027573500000016793,
          "durationTicks": 3,
          "midi": 68,
          "name": "G#4",
          "ticks": 19535,
          "time": 179.54944083333334,
          "velocity": 0.905511811023622
        },
        {
          "duration": 0.018382333333335055,
          "durationTicks": 2,
          "midi": 65,
          "name": "F4",
          "ticks": 19536,
          "time": 179.55863200000002,
          "velocity": 0.8031496062992126
        },
        {
          "duration": 0.11029400000001033,
          "durationTicks": 12,
          "midi": 68,
          "name": "G#4",
          "ticks": 19547,
          "time": 179.65973483333335,
          "velocity": 0.905511811023622
        },
        {
          "duration": 0.10110283333332859,
          "durationTicks": 11,
          "midi": 65,
          "name": "F4",
          "ticks": 19547,
          "time": 179.65973483333335,
          "velocity": 0.8740157480314961
        },
        {
          "duration": 0.10110283333335701,
          "durationTicks": 11,
          "midi": 61,
          "name": "C#4",
          "ticks": 19548,
          "time": 179.668926,
          "velocity": 0.8818897637795275
        },
        {
          "duration": 0.10110283333335701,
          "durationTicks": 11,
          "midi": 56,
          "name": "G#3",
          "ticks": 19548,
          "time": 179.668926,
          "velocity": 0.8346456692913385
        },
        {
          "duration": 0.018382333333335055,
          "durationTicks": 2,
          "midi": 61,
          "name": "C#4",
          "ticks": 19559,
          "time": 179.77002883333336,
          "velocity": 0.905511811023622
        },
        {
          "duration": 0.009191166666681738,
          "durationTicks": 1,
          "midi": 65,
          "name": "F4",
          "ticks": 19560,
          "time": 179.77922,
          "velocity": 0.8031496062992126
        },
        {
          "duration": 0.018382333333363476,
          "durationTicks": 2,
          "midi": 68,
          "name": "G#4",
          "ticks": 19571,
          "time": 179.88032283333334,
          "velocity": 0.9133858267716536
        },
        {
          "duration": 0.22058799999999223,
          "durationTicks": 24,
          "midi": 56,
          "name": "G#3",
          "ticks": 19583,
          "time": 179.99061683333335,
          "velocity": 0.8740157480314961
        },
        {
          "duration": 0.22058799999999223,
          "durationTicks": 24,
          "midi": 61,
          "name": "C#4",
          "ticks": 19583,
          "time": 179.99061683333335,
          "velocity": 0.8582677165354331
        },
        {
          "duration": 0.21139683333333892,
          "durationTicks": 23,
          "midi": 65,
          "name": "F4",
          "ticks": 19584,
          "time": 179.999808,
          "velocity": 0.8661417322834646
        },
        {
          "duration": 0.21139683333333892,
          "durationTicks": 23,
          "midi": 68,
          "name": "G#4",
          "ticks": 19584,
          "time": 179.999808,
          "velocity": 0.905511811023622
        },
        {
          "duration": 0.018382333333335055,
          "durationTicks": 2,
          "midi": 61,
          "name": "C#4",
          "ticks": 19607,
          "time": 180.21120483333334,
          "velocity": 0.905511811023622
        },
        {
          "duration": 0.009191166666653316,
          "durationTicks": 1,
          "midi": 65,
          "name": "F4",
          "ticks": 19607,
          "time": 180.21120483333334,
          "velocity": 0.8031496062992126
        },
        {
          "duration": 0.009191166666681738,
          "durationTicks": 1,
          "midi": 68,
          "name": "G#4",
          "ticks": 19608,
          "time": 180.220396,
          "velocity": 0.8031496062992126
        },
        {
          "duration": 0.10110283333332859,
          "durationTicks": 11,
          "midi": 68,
          "name": "G#4",
          "ticks": 19619,
          "time": 180.32149883333335,
          "velocity": 0.9133858267716536
        },
        {
          "duration": 0.09191166666667527,
          "durationTicks": 10,
          "midi": 65,
          "name": "F4",
          "ticks": 19620,
          "time": 180.33069,
          "velocity": 0.8740157480314961
        },
        {
          "duration": 0.4411760000000129,
          "durationTicks": 48,
          "midi": 54,
          "name": "F#3",
          "ticks": 19631,
          "time": 180.43179283333333,
          "velocity": 0.7874015748031497
        },
        {
          "duration": 0.4411760000000129,
          "durationTicks": 48,
          "midi": 61,
          "name": "C#4",
          "ticks": 19631,
          "time": 180.43179283333333,
          "velocity": 0.7795275590551181
        },
        {
          "duration": 0.4411760000000129,
          "durationTicks": 48,
          "midi": 65,
          "name": "F4",
          "ticks": 19631,
          "time": 180.43179283333333,
          "velocity": 0.8976377952755905
        },
        {
          "duration": 0.43198483333333115,
          "durationTicks": 47,
          "midi": 68,
          "name": "G#4",
          "ticks": 19632,
          "time": 180.44098400000001,
          "velocity": 0.8110236220472441
        },
        {
          "duration": 0.43198483333333115,
          "durationTicks": 47,
          "midi": 75,
          "name": "D#5",
          "ticks": 19632,
          "time": 180.44098400000001,
          "velocity": 0.9133858267716536
        },
        {
          "duration": 0.22058799999999223,
          "durationTicks": 24,
          "midi": 68,
          "name": "G#4",
          "ticks": 19679,
          "time": 180.87296883333335,
          "velocity": 0.8661417322834646
        },
        {
          "duration": 0.22058799999999223,
          "durationTicks": 24,
          "midi": 73,
          "name": "C#5",
          "ticks": 19679,
          "time": 180.87296883333335,
          "velocity": 0.7795275590551181
        },
        {
          "duration": 0.21139683333333892,
          "durationTicks": 23,
          "midi": 77,
          "name": "F5",
          "ticks": 19680,
          "time": 180.88216,
          "velocity": 0.8740157480314961
        },
        {
          "duration": 0.018382333333363476,
          "durationTicks": 2,
          "midi": 68,
          "name": "G#4",
          "ticks": 19703,
          "time": 181.09355683333334,
          "velocity": 0.8976377952755905
        },
        {
          "duration": 0.00919116666671016,
          "durationTicks": 1,
          "midi": 73,
          "name": "C#5",
          "ticks": 19704,
          "time": 181.102748,
          "velocity": 0.8740157480314961
        },
        {
          "duration": 0.009191166666653316,
          "durationTicks": 1,
          "midi": 63,
          "name": "D#4",
          "ticks": 19715,
          "time": 181.20385083333335,
          "velocity": 0.8976377952755905
        },
        {
          "duration": 0.22058799999999223,
          "durationTicks": 24,
          "midi": 54,
          "name": "F#3",
          "ticks": 19727,
          "time": 181.31414483333336,
          "velocity": 0.7874015748031497
        },
        {
          "duration": 0.22058799999999223,
          "durationTicks": 24,
          "midi": 61,
          "name": "C#4",
          "ticks": 19727,
          "time": 181.31414483333336,
          "velocity": 0.8110236220472441
        },
        {
          "duration": 0.21139683333333892,
          "durationTicks": 23,
          "midi": 65,
          "name": "F4",
          "ticks": 19728,
          "time": 181.323336,
          "velocity": 0.8110236220472441
        },
        {
          "duration": 0.21139683333333892,
          "durationTicks": 23,
          "midi": 68,
          "name": "G#4",
          "ticks": 19728,
          "time": 181.323336,
          "velocity": 0.8740157480314961
        },
        {
          "duration": 0.21139683333333892,
          "durationTicks": 23,
          "midi": 75,
          "name": "D#5",
          "ticks": 19728,
          "time": 181.323336,
          "velocity": 0.905511811023622
        },
        {
          "duration": 0.22058799999999223,
          "durationTicks": 24,
          "midi": 65,
          "name": "F4",
          "ticks": 19751,
          "time": 181.53473283333335,
          "velocity": 0.9133858267716536
        },
        {
          "duration": 0.22058799999999223,
          "durationTicks": 24,
          "midi": 68,
          "name": "G#4",
          "ticks": 19751,
          "time": 181.53473283333335,
          "velocity": 0.7637795275590551
        },
        {
          "duration": 0.22058799999999223,
          "durationTicks": 24,
          "midi": 73,
          "name": "C#5",
          "ticks": 19751,
          "time": 181.53473283333335,
          "velocity": 0.7874015748031497
        },
        {
          "duration": 0.21139683333333892,
          "durationTicks": 23,
          "midi": 77,
          "name": "F5",
          "ticks": 19752,
          "time": 181.543924,
          "velocity": 0.8740157480314961
        },
        {
          "duration": 0.018382333333335055,
          "durationTicks": 2,
          "midi": 68,
          "name": "G#4",
          "ticks": 19775,
          "time": 181.75532083333334,
          "velocity": 0.905511811023622
        },
        {
          "duration": 0.009191166666681738,
          "durationTicks": 1,
          "midi": 73,
          "name": "C#5",
          "ticks": 19776,
          "time": 181.764512,
          "velocity": 0.8740157480314961
        },
        {
          "duration": 0.009191166666653316,
          "durationTicks": 1,
          "midi": 66,
          "name": "F#4",
          "ticks": 19787,
          "time": 181.86561483333335,
          "velocity": 0.8976377952755905
        },
        {
          "duration": 0.4411760000000129,
          "durationTicks": 48,
          "midi": 61,
          "name": "C#4",
          "ticks": 19799,
          "time": 181.97590883333334,
          "velocity": 0.8582677165354331
        },
        {
          "duration": 0.4411760000000129,
          "durationTicks": 48,
          "midi": 65,
          "name": "F4",
          "ticks": 19799,
          "time": 181.97590883333334,
          "velocity": 0.8976377952755905
        },
        {
          "duration": 0.43198483333333115,
          "durationTicks": 47,
          "midi": 68,
          "name": "G#4",
          "ticks": 19800,
          "time": 181.98510000000002,
          "velocity": 0.7637795275590551
        },
        {
          "duration": 0.43198483333333115,
          "durationTicks": 47,
          "midi": 75,
          "name": "D#5",
          "ticks": 19800,
          "time": 181.98510000000002,
          "velocity": 0.7795275590551181
        },
        {
          "duration": 0.22058799999999223,
          "durationTicks": 24,
          "midi": 60,
          "name": "C4",
          "ticks": 19847,
          "time": 182.41708483333335,
          "velocity": 0.7401574803149606
        },
        {
          "duration": 0.22058799999999223,
          "durationTicks": 24,
          "midi": 65,
          "name": "F4",
          "ticks": 19847,
          "time": 182.41708483333335,
          "velocity": 0.8976377952755905
        },
        {
          "duration": 0.21139683333333892,
          "durationTicks": 23,
          "midi": 68,
          "name": "G#4",
          "ticks": 19848,
          "time": 182.426276,
          "velocity": 0.7637795275590551
        },
        {
          "duration": 0.21139683333333892,
          "durationTicks": 23,
          "midi": 77,
          "name": "F5",
          "ticks": 19848,
          "time": 182.426276,
          "velocity": 0.8740157480314961
        },
        {
          "duration": 0.22058799999999223,
          "durationTicks": 24,
          "midi": 68,
          "name": "G#4",
          "ticks": 19871,
          "time": 182.63767283333334,
          "velocity": 0.8110236220472441
        },
        {
          "duration": 0.22058799999999223,
          "durationTicks": 24,
          "midi": 72,
          "name": "C5",
          "ticks": 19871,
          "time": 182.63767283333334,
          "velocity": 0.7559055118110236
        },
        {
          "duration": 0.21139683333333892,
          "durationTicks": 23,
          "midi": 75,
          "name": "D#5",
          "ticks": 19872,
          "time": 182.646864,
          "velocity": 0.7637795275590551
        },
        {
          "duration": 0.21139683333333892,
          "durationTicks": 23,
          "midi": 80,
          "name": "G#5",
          "ticks": 19872,
          "time": 182.646864,
          "velocity": 0.7401574803149606
        },
        {
          "duration": 0.018382333333363476,
          "durationTicks": 2,
          "midi": 61,
          "name": "C#4",
          "ticks": 19895,
          "time": 182.85826083333333,
          "velocity": 0.9133858267716536
        },
        {
          "duration": 0.009191166666681738,
          "durationTicks": 1,
          "midi": 65,
          "name": "F4",
          "ticks": 19896,
          "time": 182.86745200000001,
          "velocity": 0.7716535433070866
        },
        {
          "duration": 0.009191166666653316,
          "durationTicks": 1,
          "midi": 61,
          "name": "C#4",
          "ticks": 19907,
          "time": 182.96855483333334,
          "velocity": 0.8976377952755905
        },
        {
          "duration": 0.22058799999999223,
          "durationTicks": 24,
          "midi": 56,
          "name": "G#3",
          "ticks": 19919,
          "time": 183.07884883333335,
          "velocity": 0.7637795275590551
        },
        {
          "duration": 0.22058799999999223,
          "durationTicks": 24,
          "midi": 60,
          "name": "C4",
          "ticks": 19919,
          "time": 183.07884883333335,
          "velocity": 0.7401574803149606
        },
        {
          "duration": 0.22058799999999223,
          "durationTicks": 24,
          "midi": 65,
          "name": "F4",
          "ticks": 19919,
          "time": 183.07884883333335,
          "velocity": 0.8267716535433071
        },
        {
          "duration": 0.21139683333333892,
          "durationTicks": 23,
          "midi": 68,
          "name": "G#4",
          "ticks": 19920,
          "time": 183.08804,
          "velocity": 0.7952755905511811
        },
        {
          "duration": 0.21139683333333892,
          "durationTicks": 23,
          "midi": 75,
          "name": "D#5",
          "ticks": 19920,
          "time": 183.08804,
          "velocity": 0.905511811023622
        },
        {
          "duration": 0.21139683333333892,
          "durationTicks": 23,
          "midi": 65,
          "name": "F4",
          "ticks": 19943,
          "time": 183.29943683333335,
          "velocity": 0.8661417322834646
        },
        {
          "duration": 0.21139683333333892,
          "durationTicks": 23,
          "midi": 68,
          "name": "G#4",
          "ticks": 19943,
          "time": 183.29943683333335,
          "velocity": 0.889763779527559
        },
        {
          "duration": 0.42279366666667784,
          "durationTicks": 46,
          "midi": 75,
          "name": "D#5",
          "ticks": 19944,
          "time": 183.308628,
          "velocity": 0.8503937007874016
        },
        {
          "duration": 0.22058800000002066,
          "durationTicks": 24,
          "midi": 68,
          "name": "G#4",
          "ticks": 19967,
          "time": 183.52002483333334,
          "velocity": 0.7795275590551181
        },
        {
          "duration": 0.21139683333336734,
          "durationTicks": 23,
          "midi": 80,
          "name": "G#5",
          "ticks": 19968,
          "time": 183.529216,
          "velocity": 0.7952755905511811
        },
        {
          "duration": 0.1102939999999819,
          "durationTicks": 12,
          "midi": 63,
          "name": "D#4",
          "ticks": 19991,
          "time": 183.74061283333336,
          "velocity": 0.9133858267716536
        },
        {
          "duration": 0.009191166666681738,
          "durationTicks": 1,
          "midi": 68,
          "name": "G#4",
          "ticks": 19992,
          "time": 183.749804,
          "velocity": 0.7716535433070866
        },
        {
          "duration": 0.08272049999999354,
          "durationTicks": 9,
          "midi": 68,
          "name": "G#4",
          "ticks": 20003,
          "time": 183.85090683333334,
          "velocity": 0.8976377952755905
        },
        {
          "duration": 0.44117599999998447,
          "durationTicks": 48,
          "midi": 56,
          "name": "G#3",
          "ticks": 20015,
          "time": 183.96120083333335,
          "velocity": 0.7637795275590551
        },
        {
          "duration": 0.44117599999998447,
          "durationTicks": 48,
          "midi": 63,
          "name": "D#4",
          "ticks": 20015,
          "time": 183.96120083333335,
          "velocity": 0.9212598425196851
        },
        {
          "duration": 0.44117599999998447,
          "durationTicks": 48,
          "midi": 68,
          "name": "G#4",
          "ticks": 20015,
          "time": 183.96120083333335,
          "velocity": 0.7874015748031497
        },
        {
          "duration": 0.43198483333333115,
          "durationTicks": 47,
          "midi": 72,
          "name": "C5",
          "ticks": 20016,
          "time": 183.970392,
          "velocity": 0.7637795275590551
        },
        {
          "duration": 0.43198483333333115,
          "durationTicks": 47,
          "midi": 75,
          "name": "D#5",
          "ticks": 20016,
          "time": 183.970392,
          "velocity": 0.7401574803149606
        },
        {
          "duration": 0.22058800000002066,
          "durationTicks": 24,
          "midi": 68,
          "name": "G#4",
          "ticks": 20063,
          "time": 184.40237683333334,
          "velocity": 0.8976377952755905
        },
        {
          "duration": 0.21139683333336734,
          "durationTicks": 23,
          "midi": 72,
          "name": "C5",
          "ticks": 20063,
          "time": 184.40237683333334,
          "velocity": 0.6692913385826772
        },
        {
          "duration": 0.21139683333333892,
          "durationTicks": 23,
          "midi": 75,
          "name": "D#5",
          "ticks": 20064,
          "time": 184.41156800000002,
          "velocity": 0.6692913385826772
        },
        {
          "duration": 0.21139683333333892,
          "durationTicks": 23,
          "midi": 80,
          "name": "G#5",
          "ticks": 20064,
          "time": 184.41156800000002,
          "velocity": 0.8740157480314961
        },
        {
          "duration": 0.018382333333335055,
          "durationTicks": 2,
          "midi": 56,
          "name": "G#3",
          "ticks": 20087,
          "time": 184.62296483333336,
          "velocity": 0.7795275590551181
        },
        {
          "duration": 0.009191166666681738,
          "durationTicks": 1,
          "midi": 63,
          "name": "D#4",
          "ticks": 20088,
          "time": 184.632156,
          "velocity": 0.889763779527559
        },
        {
          "duration": 0.11029400000001033,
          "durationTicks": 12,
          "midi": 80,
          "name": "G#5",
          "ticks": 20099,
          "time": 184.73325883333334,
          "velocity": 0.8976377952755905
        },
        {
          "duration": 0.10110283333335701,
          "durationTicks": 11,
          "midi": 68,
          "name": "G#4",
          "ticks": 20100,
          "time": 184.74245,
          "velocity": 0.8661417322834646
        },
        {
          "duration": 0.22058799999999223,
          "durationTicks": 24,
          "midi": 56,
          "name": "G#3",
          "ticks": 20111,
          "time": 184.84355283333335,
          "velocity": 0.84251968503937
        },
        {
          "duration": 0.22058799999999223,
          "durationTicks": 24,
          "midi": 63,
          "name": "D#4",
          "ticks": 20111,
          "time": 184.84355283333335,
          "velocity": 0.8661417322834646
        },
        {
          "duration": 0.21139683333333892,
          "durationTicks": 23,
          "midi": 68,
          "name": "G#4",
          "ticks": 20112,
          "time": 184.852744,
          "velocity": 0.9212598425196851
        },
        {
          "duration": 0.21139683333333892,
          "durationTicks": 23,
          "midi": 72,
          "name": "C5",
          "ticks": 20112,
          "time": 184.852744,
          "velocity": 0.7637795275590551
        },
        {
          "duration": 0.21139683333333892,
          "durationTicks": 23,
          "midi": 75,
          "name": "D#5",
          "ticks": 20112,
          "time": 184.852744,
          "velocity": 0.7480314960629921
        },
        {
          "duration": 0.22058800000002066,
          "durationTicks": 24,
          "midi": 68,
          "name": "G#4",
          "ticks": 20135,
          "time": 185.06414083333334,
          "velocity": 0.7952755905511811
        },
        {
          "duration": 0.22058800000002066,
          "durationTicks": 24,
          "midi": 72,
          "name": "C5",
          "ticks": 20135,
          "time": 185.06414083333334,
          "velocity": 0.7322834645669292
        },
        {
          "duration": 0.22058800000002066,
          "durationTicks": 24,
          "midi": 75,
          "name": "D#5",
          "ticks": 20136,
          "time": 185.073332,
          "velocity": 0.7952755905511811
        },
        {
          "duration": 0.21139683333336734,
          "durationTicks": 23,
          "midi": 80,
          "name": "G#5",
          "ticks": 20136,
          "time": 185.073332,
          "velocity": 0.7480314960629921
        },
        {
          "duration": 0.018382333333335055,
          "durationTicks": 2,
          "midi": 56,
          "name": "G#3",
          "ticks": 20159,
          "time": 185.28472883333336,
          "velocity": 0.7795275590551181
        },
        {
          "duration": 0.009191166666681738,
          "durationTicks": 1,
          "midi": 63,
          "name": "D#4",
          "ticks": 20160,
          "time": 185.29392,
          "velocity": 0.889763779527559
        },
        {
          "duration": 0.11029400000001033,
          "durationTicks": 12,
          "midi": 68,
          "name": "G#4",
          "ticks": 20171,
          "time": 185.39502283333334,
          "velocity": 0.9212598425196851
        },
        {
          "duration": 0.44117599999998447,
          "durationTicks": 48,
          "midi": 56,
          "name": "G#3",
          "ticks": 20183,
          "time": 185.50531683333335,
          "velocity": 0.6850393700787402
        },
        {
          "duration": 0.44117599999998447,
          "durationTicks": 48,
          "midi": 63,
          "name": "D#4",
          "ticks": 20183,
          "time": 185.50531683333335,
          "velocity": 0.889763779527559
        },
        {
          "duration": 0.44117599999998447,
          "durationTicks": 48,
          "midi": 68,
          "name": "G#4",
          "ticks": 20183,
          "time": 185.50531683333335,
          "velocity": 0.9212598425196851
        },
        {
          "duration": 0.43198483333333115,
          "durationTicks": 47,
          "midi": 72,
          "name": "C5",
          "ticks": 20184,
          "time": 185.514508,
          "velocity": 0.7795275590551181
        },
        {
          "duration": 0.43198483333333115,
          "durationTicks": 47,
          "midi": 75,
          "name": "D#5",
          "ticks": 20184,
          "time": 185.514508,
          "velocity": 0.84251968503937
        },
        {
          "duration": 0.22058800000002066,
          "durationTicks": 24,
          "midi": 56,
          "name": "G#3",
          "ticks": 20231,
          "time": 185.94649283333334,
          "velocity": 0.7322834645669292
        },
        {
          "duration": 0.22058800000002066,
          "durationTicks": 24,
          "midi": 63,
          "name": "D#4",
          "ticks": 20231,
          "time": 185.94649283333334,
          "velocity": 0.8188976377952756
        },
        {
          "duration": 0.22058800000002066,
          "durationTicks": 24,
          "midi": 68,
          "name": "G#4",
          "ticks": 20231,
          "time": 185.94649283333334,
          "velocity": 0.8740157480314961
        },
        {
          "duration": 0.21139683333336734,
          "durationTicks": 23,
          "midi": 72,
          "name": "C5",
          "ticks": 20232,
          "time": 185.955684,
          "velocity": 0.8661417322834646
        },
        {
          "duration": 0.21139683333336734,
          "durationTicks": 23,
          "midi": 75,
          "name": "D#5",
          "ticks": 20232,
          "time": 185.955684,
          "velocity": 0.8740157480314961
        },
        {
          "duration": 0.11948516666663522,
          "durationTicks": 13,
          "midi": 73,
          "name": "C#5",
          "ticks": 20255,
          "time": 186.16708083333336,
          "velocity": 0.968503937007874
        },
        {
          "duration": 0.44117599999998447,
          "durationTicks": 48,
          "midi": 65,
          "name": "F4",
          "ticks": 20279,
          "time": 186.38766883333335,
          "velocity": 0.8976377952755905
        },
        {
          "duration": 0.44117599999998447,
          "durationTicks": 48,
          "midi": 68,
          "name": "G#4",
          "ticks": 20279,
          "time": 186.38766883333335,
          "velocity": 0.889763779527559
        },
        {
          "duration": 0.44117599999998447,
          "durationTicks": 48,
          "midi": 74,
          "name": "D5",
          "ticks": 20279,
          "time": 186.38766883333335,
          "velocity": 0.7716535433070866
        },
        {
          "duration": 0.43198483333333115,
          "durationTicks": 47,
          "midi": 77,
          "name": "F5",
          "ticks": 20280,
          "time": 186.39686,
          "velocity": 0.7952755905511811
        },
        {
          "duration": 0.43198483333333115,
          "durationTicks": 47,
          "midi": 82,
          "name": "A#5",
          "ticks": 20280,
          "time": 186.39686,
          "velocity": 0.8110236220472441
        },
        {
          "duration": 0.11029400000001033,
          "durationTicks": 12,
          "midi": 65,
          "name": "F4",
          "ticks": 20327,
          "time": 186.82884483333333,
          "velocity": 0.8661417322834646
        },
        {
          "duration": 0.11029400000001033,
          "durationTicks": 12,
          "midi": 65,
          "name": "F4",
          "ticks": 20339,
          "time": 186.93913883333335,
          "velocity": 0.905511811023622
        },
        {
          "duration": 0.22058799999999223,
          "durationTicks": 24,
          "midi": 68,
          "name": "G#4",
          "ticks": 20351,
          "time": 187.04943283333336,
          "velocity": 0.8503937007874016
        },
        {
          "duration": 0.22058799999999223,
          "durationTicks": 24,
          "midi": 74,
          "name": "D5",
          "ticks": 20351,
          "time": 187.04943283333336,
          "velocity": 0.8188976377952756
        },
        {
          "duration": 0.21139683333333892,
          "durationTicks": 23,
          "midi": 77,
          "name": "F5",
          "ticks": 20352,
          "time": 187.058624,
          "velocity": 0.7952755905511811
        },
        {
          "duration": 0.21139683333333892,
          "durationTicks": 23,
          "midi": 82,
          "name": "A#5",
          "ticks": 20352,
          "time": 187.058624,
          "velocity": 0.7559055118110236
        },
        {
          "duration": 0.11029400000001033,
          "durationTicks": 12,
          "midi": 66,
          "name": "F#4",
          "ticks": 20375,
          "time": 187.27002083333335,
          "velocity": 0.7952755905511811
        },
        {
          "duration": 0.05514699999997674,
          "durationTicks": 6,
          "midi": 65,
          "name": "F4",
          "ticks": 20387,
          "time": 187.38031483333336,
          "velocity": 0.8188976377952756
        },
        {
          "duration": 0.22058800000002066,
          "durationTicks": 24,
          "midi": 51,
          "name": "D#3",
          "ticks": 20399,
          "time": 187.49060883333334,
          "velocity": 0.7637795275590551
        },
        {
          "duration": 0.22058800000002066,
          "durationTicks": 24,
          "midi": 61,
          "name": "C#4",
          "ticks": 20399,
          "time": 187.49060883333334,
          "velocity": 0.8346456692913385
        },
        {
          "duration": 0.22058800000002066,
          "durationTicks": 24,
          "midi": 65,
          "name": "F4",
          "ticks": 20399,
          "time": 187.49060883333334,
          "velocity": 0.7874015748031497
        },
        {
          "duration": 0.21139683333336734,
          "durationTicks": 23,
          "midi": 68,
          "name": "G#4",
          "ticks": 20400,
          "time": 187.4998,
          "velocity": 0.7637795275590551
        },
        {
          "duration": 0.21139683333336734,
          "durationTicks": 23,
          "midi": 73,
          "name": "C#5",
          "ticks": 20400,
          "time": 187.4998,
          "velocity": 0.8582677165354331
        },
        {
          "duration": 0.22058799999999223,
          "durationTicks": 24,
          "midi": 65,
          "name": "F4",
          "ticks": 20423,
          "time": 187.71119683333336,
          "velocity": 0.9133858267716536
        },
        {
          "duration": 0.018382333333335055,
          "durationTicks": 2,
          "midi": 65,
          "name": "F4",
          "ticks": 20447,
          "time": 187.93178483333335,
          "velocity": 0.7795275590551181
        },
        {
          "duration": 0.009191166666681738,
          "durationTicks": 1,
          "midi": 68,
          "name": "G#4",
          "ticks": 20448,
          "time": 187.940976,
          "velocity": 0.889763779527559
        },
        {
          "duration": 0.018382333333363476,
          "durationTicks": 2,
          "midi": 72,
          "name": "C5",
          "ticks": 20459,
          "time": 188.04207883333333,
          "velocity": 0.937007874015748
        },
        {
          "duration": 0.4411760000000129,
          "durationTicks": 48,
          "midi": 61,
          "name": "C#4",
          "ticks": 20471,
          "time": 188.15237283333335,
          "velocity": 0.7401574803149606
        },
        {
          "duration": 0.4411760000000129,
          "durationTicks": 48,
          "midi": 66,
          "name": "F#4",
          "ticks": 20471,
          "time": 188.15237283333335,
          "velocity": 0.905511811023622
        },
        {
          "duration": 0.4319848333333596,
          "durationTicks": 47,
          "midi": 68,
          "name": "G#4",
          "ticks": 20472,
          "time": 188.161564,
          "velocity": 0.6141732283464567
        },
        {
          "duration": 0.4319848333333596,
          "durationTicks": 47,
          "midi": 73,
          "name": "C#5",
          "ticks": 20472,
          "time": 188.161564,
          "velocity": 0.8267716535433071
        },
        {
          "duration": 0.22058799999999223,
          "durationTicks": 24,
          "midi": 61,
          "name": "C#4",
          "ticks": 20519,
          "time": 188.59354883333336,
          "velocity": 0.8740157480314961
        },
        {
          "duration": 0.22058799999999223,
          "durationTicks": 24,
          "midi": 66,
          "name": "F#4",
          "ticks": 20519,
          "time": 188.59354883333336,
          "velocity": 0.8267716535433071
        },
        {
          "duration": 0.21139683333333892,
          "durationTicks": 23,
          "midi": 68,
          "name": "G#4",
          "ticks": 20520,
          "time": 188.60274,
          "velocity": 0.9133858267716536
        },
        {
          "duration": 0.22058799999999223,
          "durationTicks": 24,
          "midi": 61,
          "name": "C#4",
          "ticks": 20543,
          "time": 188.81413683333335,
          "velocity": 0.7401574803149606
        },
        {
          "duration": 0.22058799999999223,
          "durationTicks": 24,
          "midi": 65,
          "name": "F4",
          "ticks": 20543,
          "time": 188.81413683333335,
          "velocity": 0.905511811023622
        },
        {
          "duration": 0.21139683333333892,
          "durationTicks": 23,
          "midi": 68,
          "name": "G#4",
          "ticks": 20544,
          "time": 188.823328,
          "velocity": 0.7795275590551181
        },
        {
          "duration": 0.4411760000000129,
          "durationTicks": 48,
          "midi": 61,
          "name": "C#4",
          "ticks": 20567,
          "time": 189.03472483333334,
          "velocity": 0.905511811023622
        },
        {
          "duration": 0.4411760000000129,
          "durationTicks": 48,
          "midi": 65,
          "name": "F4",
          "ticks": 20567,
          "time": 189.03472483333334,
          "velocity": 0.7086614173228346
        },
        {
          "duration": 0.4319848333333596,
          "durationTicks": 47,
          "midi": 68,
          "name": "G#4",
          "ticks": 20568,
          "time": 189.043916,
          "velocity": 0.7874015748031497
        },
        {
          "duration": 0.4319848333333596,
          "durationTicks": 47,
          "midi": 73,
          "name": "C#5",
          "ticks": 20568,
          "time": 189.043916,
          "velocity": 0.905511811023622
        },
        {
          "duration": 0.22058799999999223,
          "durationTicks": 24,
          "midi": 56,
          "name": "G#3",
          "ticks": 20615,
          "time": 189.47590083333336,
          "velocity": 0.7795275590551181
        },
        {
          "duration": 0.22058799999999223,
          "durationTicks": 24,
          "midi": 65,
          "name": "F4",
          "ticks": 20615,
          "time": 189.47590083333336,
          "velocity": 0.8582677165354331
        },
        {
          "duration": 0.21139683333333892,
          "durationTicks": 23,
          "midi": 68,
          "name": "G#4",
          "ticks": 20616,
          "time": 189.485092,
          "velocity": 0.8346456692913385
        },
        {
          "duration": 0.21139683333333892,
          "durationTicks": 23,
          "midi": 72,
          "name": "C5",
          "ticks": 20616,
          "time": 189.485092,
          "velocity": 0.889763779527559
        },
        {
          "duration": 0.4411760000000129,
          "durationTicks": 48,
          "midi": 56,
          "name": "G#3",
          "ticks": 20639,
          "time": 189.69648883333335,
          "velocity": 0.8110236220472441
        },
        {
          "duration": 0.4411760000000129,
          "durationTicks": 48,
          "midi": 63,
          "name": "D#4",
          "ticks": 20639,
          "time": 189.69648883333335,
          "velocity": 0.905511811023622
        },
        {
          "duration": 0.4319848333333596,
          "durationTicks": 47,
          "midi": 68,
          "name": "G#4",
          "ticks": 20640,
          "time": 189.70568,
          "velocity": 0.7874015748031497
        },
        {
          "duration": 0.4319848333333596,
          "durationTicks": 47,
          "midi": 72,
          "name": "C5",
          "ticks": 20640,
          "time": 189.70568,
          "velocity": 0.905511811023622
        },
        {
          "duration": 0.22058799999999223,
          "durationTicks": 24,
          "midi": 63,
          "name": "D#4",
          "ticks": 20687,
          "time": 190.13766483333336,
          "velocity": 0.8740157480314961
        },
        {
          "duration": 0.22058799999999223,
          "durationTicks": 24,
          "midi": 68,
          "name": "G#4",
          "ticks": 20687,
          "time": 190.13766483333336,
          "velocity": 0.8031496062992126
        },
        {
          "duration": 0.21139683333333892,
          "durationTicks": 23,
          "midi": 73,
          "name": "C#5",
          "ticks": 20688,
          "time": 190.146856,
          "velocity": 0.905511811023622
        },
        {
          "duration": 0.22058799999999223,
          "durationTicks": 24,
          "midi": 63,
          "name": "D#4",
          "ticks": 20711,
          "time": 190.35825283333335,
          "velocity": 0.889763779527559
        },
        {
          "duration": 0.4044113333333428,
          "durationTicks": 44,
          "midi": 56,
          "name": "G#3",
          "ticks": 20735,
          "time": 190.57884083333335,
          "velocity": 0.8976377952755905
        },
        {
          "duration": 0.4044113333333428,
          "durationTicks": 44,
          "midi": 63,
          "name": "D#4",
          "ticks": 20735,
          "time": 190.57884083333335,
          "velocity": 0.8661417322834646
        },
        {
          "duration": 0.39522016666668947,
          "durationTicks": 43,
          "midi": 68,
          "name": "G#4",
          "ticks": 20736,
          "time": 190.588032,
          "velocity": 0.9133858267716536
        },
        {
          "duration": 0.22058799999999223,
          "durationTicks": 24,
          "midi": 58,
          "name": "A#3",
          "ticks": 20783,
          "time": 191.02001683333336,
          "velocity": 0.8110236220472441
        },
        {
          "duration": 0.22058799999999223,
          "durationTicks": 24,
          "midi": 63,
          "name": "D#4",
          "ticks": 20783,
          "time": 191.02001683333336,
          "velocity": 0.8740157480314961
        },
        {
          "duration": 0.22058799999999223,
          "durationTicks": 24,
          "midi": 68,
          "name": "G#4",
          "ticks": 20783,
          "time": 191.02001683333336,
          "velocity": 0.8661417322834646
        },
        {
          "duration": 0.21139683333333892,
          "durationTicks": 23,
          "midi": 73,
          "name": "C#5",
          "ticks": 20784,
          "time": 191.029208,
          "velocity": 0.8267716535433071
        },
        {
          "duration": 0.21139683333333892,
          "durationTicks": 23,
          "midi": 75,
          "name": "D#5",
          "ticks": 20784,
          "time": 191.029208,
          "velocity": 0.9133858267716536
        },
        {
          "duration": 0.03676466666664169,
          "durationTicks": 4,
          "midi": 58,
          "name": "A#3",
          "ticks": 20807,
          "time": 191.24060483333335,
          "velocity": 0.8031496062992126
        },
        {
          "duration": 0.02757349999998837,
          "durationTicks": 3,
          "midi": 63,
          "name": "D#4",
          "ticks": 20808,
          "time": 191.249796,
          "velocity": 0.9133858267716536
        },
        {
          "duration": 0.1102939999999819,
          "durationTicks": 12,
          "midi": 75,
          "name": "D#5",
          "ticks": 20819,
          "time": 191.35089883333336,
          "velocity": 0.9133858267716536
        },
        {
          "duration": 0.1102939999999819,
          "durationTicks": 12,
          "midi": 73,
          "name": "C#5",
          "ticks": 20819,
          "time": 191.35089883333336,
          "velocity": 0.8661417322834646
        },
        {
          "duration": 0.10110283333332859,
          "durationTicks": 11,
          "midi": 68,
          "name": "G#4",
          "ticks": 20820,
          "time": 191.36009,
          "velocity": 0.8661417322834646
        },
        {
          "duration": 0.10110283333332859,
          "durationTicks": 11,
          "midi": 63,
          "name": "D#4",
          "ticks": 20820,
          "time": 191.36009,
          "velocity": 0.8740157480314961
        },
        {
          "duration": 0.027573500000016793,
          "durationTicks": 3,
          "midi": 63,
          "name": "D#4",
          "ticks": 20831,
          "time": 191.46119283333334,
          "velocity": 0.905511811023622
        },
        {
          "duration": 0.027573500000016793,
          "durationTicks": 3,
          "midi": 68,
          "name": "G#4",
          "ticks": 20832,
          "time": 191.470384,
          "velocity": 0.8031496062992126
        },
        {
          "duration": 0.018382333333335055,
          "durationTicks": 2,
          "midi": 63,
          "name": "D#4",
          "ticks": 20843,
          "time": 191.57148683333335,
          "velocity": 0.9133858267716536
        },
        {
          "duration": 0.22058800000002066,
          "durationTicks": 24,
          "midi": 63,
          "name": "D#4",
          "ticks": 20855,
          "time": 191.68178083333333,
          "velocity": 0.8740157480314961
        },
        {
          "duration": 0.22058800000002066,
          "durationTicks": 24,
          "midi": 68,
          "name": "G#4",
          "ticks": 20855,
          "time": 191.68178083333333,
          "velocity": 0.8661417322834646
        },
        {
          "duration": 0.21139683333333892,
          "durationTicks": 23,
          "midi": 73,
          "name": "C#5",
          "ticks": 20856,
          "time": 191.69097200000002,
          "velocity": 0.8267716535433071
        },
        {
          "duration": 0.21139683333333892,
          "durationTicks": 23,
          "midi": 75,
          "name": "D#5",
          "ticks": 20856,
          "time": 191.69097200000002,
          "velocity": 0.9133858267716536
        },
        {
          "duration": 0.02757349999998837,
          "durationTicks": 3,
          "midi": 58,
          "name": "A#3",
          "ticks": 20879,
          "time": 191.90236883333336,
          "velocity": 0.8031496062992126
        },
        {
          "duration": 0.02757349999998837,
          "durationTicks": 3,
          "midi": 63,
          "name": "D#4",
          "ticks": 20880,
          "time": 191.91156,
          "velocity": 0.9133858267716536
        },
        {
          "duration": 0.11029400000001033,
          "durationTicks": 12,
          "midi": 75,
          "name": "D#5",
          "ticks": 20891,
          "time": 192.01266283333334,
          "velocity": 0.9133858267716536
        },
        {
          "duration": 0.11029400000001033,
          "durationTicks": 12,
          "midi": 72,
          "name": "C5",
          "ticks": 20891,
          "time": 192.01266283333334,
          "velocity": 0.8661417322834646
        },
        {
          "duration": 0.10110283333332859,
          "durationTicks": 11,
          "midi": 68,
          "name": "G#4",
          "ticks": 20892,
          "time": 192.02185400000002,
          "velocity": 0.8661417322834646
        },
        {
          "duration": 0.10110283333332859,
          "durationTicks": 11,
          "midi": 63,
          "name": "D#4",
          "ticks": 20892,
          "time": 192.02185400000002,
          "velocity": 0.8740157480314961
        },
        {
          "duration": 0.02757349999998837,
          "durationTicks": 3,
          "midi": 63,
          "name": "D#4",
          "ticks": 20903,
          "time": 192.12295683333335,
          "velocity": 0.905511811023622
        },
        {
          "duration": 0.018382333333335055,
          "durationTicks": 2,
          "midi": 68,
          "name": "G#4",
          "ticks": 20904,
          "time": 192.132148,
          "velocity": 0.8031496062992126
        },
        {
          "duration": 0.018382333333335055,
          "durationTicks": 2,
          "midi": 63,
          "name": "D#4",
          "ticks": 20915,
          "time": 192.23325083333336,
          "velocity": 0.9133858267716536
        },
        {
          "duration": 0.22058800000002066,
          "durationTicks": 24,
          "midi": 63,
          "name": "D#4",
          "ticks": 20927,
          "time": 192.34354483333334,
          "velocity": 0.8740157480314961
        },
        {
          "duration": 0.22058800000002066,
          "durationTicks": 24,
          "midi": 68,
          "name": "G#4",
          "ticks": 20927,
          "time": 192.34354483333334,
          "velocity": 0.8661417322834646
        },
        {
          "duration": 0.21139683333336734,
          "durationTicks": 23,
          "midi": 72,
          "name": "C5",
          "ticks": 20928,
          "time": 192.352736,
          "velocity": 0.8267716535433071
        },
        {
          "duration": 0.21139683333336734,
          "durationTicks": 23,
          "midi": 75,
          "name": "D#5",
          "ticks": 20928,
          "time": 192.352736,
          "velocity": 0.9133858267716536
        },
        {
          "duration": 0.02757349999998837,
          "durationTicks": 3,
          "midi": 63,
          "name": "D#4",
          "ticks": 20951,
          "time": 192.56413283333336,
          "velocity": 0.905511811023622
        },
        {
          "duration": 0.018382333333335055,
          "durationTicks": 2,
          "midi": 68,
          "name": "G#4",
          "ticks": 20952,
          "time": 192.573324,
          "velocity": 0.8031496062992126
        },
        {
          "duration": 0.018382333333335055,
          "durationTicks": 2,
          "midi": 63,
          "name": "D#4",
          "ticks": 20963,
          "time": 192.67442683333334,
          "velocity": 0.9133858267716536
        },
        {
          "duration": 0.22058799999999223,
          "durationTicks": 24,
          "midi": 65,
          "name": "F4",
          "ticks": 20975,
          "time": 192.78472083333335,
          "velocity": 0.8740157480314961
        },
        {
          "duration": 0.22058799999999223,
          "durationTicks": 24,
          "midi": 68,
          "name": "G#4",
          "ticks": 20975,
          "time": 192.78472083333335,
          "velocity": 0.8661417322834646
        },
        {
          "duration": 0.21139683333333892,
          "durationTicks": 23,
          "midi": 73,
          "name": "C#5",
          "ticks": 20976,
          "time": 192.793912,
          "velocity": 0.905511811023622
        },
        {
          "duration": 0.21139683333333892,
          "durationTicks": 23,
          "midi": 77,
          "name": "F5",
          "ticks": 20976,
          "time": 192.793912,
          "velocity": 0.7874015748031497
        },
        {
          "duration": 0.02757349999998837,
          "durationTicks": 3,
          "midi": 65,
          "name": "F4",
          "ticks": 20999,
          "time": 193.00530883333334,
          "velocity": 0.8031496062992126
        },
        {
          "duration": 0.018382333333335055,
          "durationTicks": 2,
          "midi": 68,
          "name": "G#4",
          "ticks": 21000,
          "time": 193.0145,
          "velocity": 0.9133858267716536
        },
        {
          "duration": 0.1102939999999819,
          "durationTicks": 12,
          "midi": 77,
          "name": "F5",
          "ticks": 21011,
          "time": 193.11560283333336,
          "velocity": 0.8188976377952756
        },
        {
          "duration": 0.1102939999999819,
          "durationTicks": 12,
          "midi": 61,
          "name": "C#4",
          "ticks": 21011,
          "time": 193.11560283333336,
          "velocity": 0.905511811023622
        },
        {
          "duration": 0.10110283333332859,
          "durationTicks": 11,
          "midi": 68,
          "name": "G#4",
          "ticks": 21012,
          "time": 193.124794,
          "velocity": 0.84251968503937
        },
        {
          "duration": 0.10110283333332859,
          "durationTicks": 11,
          "midi": 65,
          "name": "F4",
          "ticks": 21012,
          "time": 193.124794,
          "velocity": 0.8503937007874016
        },
        {
          "duration": 0.027573500000016793,
          "durationTicks": 3,
          "midi": 65,
          "name": "F4",
          "ticks": 21023,
          "time": 193.22589683333334,
          "velocity": 0.905511811023622
        },
        {
          "duration": 0.018382333333335055,
          "durationTicks": 2,
          "midi": 68,
          "name": "G#4",
          "ticks": 21024,
          "time": 193.23508800000002,
          "velocity": 0.8031496062992126
        },
        {
          "duration": 0.018382333333335055,
          "durationTicks": 2,
          "midi": 72,
          "name": "C5",
          "ticks": 21035,
          "time": 193.33619083333335,
          "velocity": 0.9133858267716536
        },
        {
          "duration": 0.1102939999999819,
          "durationTicks": 12,
          "midi": 68,
          "name": "G#4",
          "ticks": 21047,
          "time": 193.44648483333336,
          "velocity": 0.8740157480314961
        },
        {
          "duration": 0.1102939999999819,
          "durationTicks": 12,
          "midi": 73,
          "name": "C#5",
          "ticks": 21047,
          "time": 193.44648483333336,
          "velocity": 0.8661417322834646
        },
        {
          "duration": 0.10110283333332859,
          "durationTicks": 11,
          "midi": 77,
          "name": "F5",
          "ticks": 21048,
          "time": 193.455676,
          "velocity": 0.8740157480314961
        },
        {
          "duration": 0.10110283333332859,
          "durationTicks": 11,
          "midi": 80,
          "name": "G#5",
          "ticks": 21048,
          "time": 193.455676,
          "velocity": 0.937007874015748
        },
        {
          "duration": 0.11029400000001033,
          "durationTicks": 12,
          "midi": 80,
          "name": "G#5",
          "ticks": 21059,
          "time": 193.55677883333334,
          "velocity": 0.8818897637795275
        },
        {
          "duration": 0.11029400000001033,
          "durationTicks": 12,
          "midi": 77,
          "name": "F5",
          "ticks": 21059,
          "time": 193.55677883333334,
          "velocity": 0.8267716535433071
        },
        {
          "duration": 0.02757349999998837,
          "durationTicks": 3,
          "midi": 68,
          "name": "G#4",
          "ticks": 21071,
          "time": 193.66707283333335,
          "velocity": 0.905511811023622
        },
        {
          "duration": 0.018382333333335055,
          "durationTicks": 2,
          "midi": 65,
          "name": "F4",
          "ticks": 21072,
          "time": 193.676264,
          "velocity": 0.8031496062992126
        },
        {
          "duration": 0.1102939999999819,
          "durationTicks": 12,
          "midi": 80,
          "name": "G#5",
          "ticks": 21083,
          "time": 193.77736683333336,
          "velocity": 0.8188976377952756
        },
        {
          "duration": 0.10110283333332859,
          "durationTicks": 11,
          "midi": 77,
          "name": "F5",
          "ticks": 21083,
          "time": 193.77736683333336,
          "velocity": 0.905511811023622
        },
        {
          "duration": 0.10110283333332859,
          "durationTicks": 11,
          "midi": 73,
          "name": "C#5",
          "ticks": 21084,
          "time": 193.786558,
          "velocity": 0.8818897637795275
        },
        {
          "duration": 0.10110283333332859,
          "durationTicks": 11,
          "midi": 68,
          "name": "G#4",
          "ticks": 21084,
          "time": 193.786558,
          "velocity": 0.8346456692913385
        },
        {
          "duration": 0.018382333333335055,
          "durationTicks": 2,
          "midi": 73,
          "name": "C#5",
          "ticks": 21095,
          "time": 193.88766083333334,
          "velocity": 0.905511811023622
        },
        {
          "duration": 0.009191166666681738,
          "durationTicks": 1,
          "midi": 77,
          "name": "F5",
          "ticks": 21096,
          "time": 193.896852,
          "velocity": 0.905511811023622
        },
        {
          "duration": 0.018382333333335055,
          "durationTicks": 2,
          "midi": 80,
          "name": "G#5",
          "ticks": 21107,
          "time": 193.99795483333335,
          "velocity": 0.7952755905511811
        },
        {
          "duration": 0.22058800000002066,
          "durationTicks": 24,
          "midi": 68,
          "name": "G#4",
          "ticks": 21119,
          "time": 194.10824883333333,
          "velocity": 0.8740157480314961
        },
        {
          "duration": 0.22058800000002066,
          "durationTicks": 24,
          "midi": 73,
          "name": "C#5",
          "ticks": 21119,
          "time": 194.10824883333333,
          "velocity": 0.8582677165354331
        },
        {
          "duration": 0.21139683333333892,
          "durationTicks": 23,
          "midi": 77,
          "name": "F5",
          "ticks": 21120,
          "time": 194.11744000000002,
          "velocity": 0.905511811023622
        },
        {
          "duration": 0.21139683333333892,
          "durationTicks": 23,
          "midi": 80,
          "name": "G#5",
          "ticks": 21120,
          "time": 194.11744000000002,
          "velocity": 0.7874015748031497
        },
        {
          "duration": 0.018382333333335055,
          "durationTicks": 2,
          "midi": 61,
          "name": "C#4",
          "ticks": 21143,
          "time": 194.32883683333336,
          "velocity": 0.905511811023622
        },
        {
          "duration": 0.009191166666653316,
          "durationTicks": 1,
          "midi": 65,
          "name": "F4",
          "ticks": 21143,
          "time": 194.32883683333336,
          "velocity": 0.8031496062992126
        },
        {
          "duration": 0.009191166666681738,
          "durationTicks": 1,
          "midi": 68,
          "name": "G#4",
          "ticks": 21144,
          "time": 194.338028,
          "velocity": 0.8031496062992126
        },
        {
          "duration": 0.018382333333363476,
          "durationTicks": 2,
          "midi": 68,
          "name": "G#4",
          "ticks": 21155,
          "time": 194.43913083333334,
          "velocity": 0.9133858267716536
        },
        {
          "duration": 0.009191166666681738,
          "durationTicks": 1,
          "midi": 65,
          "name": "F4",
          "ticks": 21156,
          "time": 194.44832200000002,
          "velocity": 0.8740157480314961
        },
        {
          "duration": 0.4411760000000129,
          "durationTicks": 48,
          "midi": 54,
          "name": "F#3",
          "ticks": 21167,
          "time": 194.54942483333335,
          "velocity": 0.7637795275590551
        },
        {
          "duration": 0.4411760000000129,
          "durationTicks": 48,
          "midi": 61,
          "name": "C#4",
          "ticks": 21167,
          "time": 194.54942483333335,
          "velocity": 0.8346456692913385
        },
        {
          "duration": 0.4411760000000129,
          "durationTicks": 48,
          "midi": 65,
          "name": "F4",
          "ticks": 21167,
          "time": 194.54942483333335,
          "velocity": 0.7874015748031497
        },
        {
          "duration": 0.4319848333333596,
          "durationTicks": 47,
          "midi": 70,
          "name": "A#4",
          "ticks": 21168,
          "time": 194.558616,
          "velocity": 0.7637795275590551
        },
        {
          "duration": 0.4319848333333596,
          "durationTicks": 47,
          "midi": 73,
          "name": "C#5",
          "ticks": 21168,
          "time": 194.558616,
          "velocity": 0.8582677165354331
        },
        {
          "duration": 0.018382333333335055,
          "durationTicks": 2,
          "midi": 65,
          "name": "F4",
          "ticks": 21215,
          "time": 194.99060083333336,
          "velocity": 0.7795275590551181
        },
        {
          "duration": 0.009191166666681738,
          "durationTicks": 1,
          "midi": 68,
          "name": "G#4",
          "ticks": 21216,
          "time": 194.999792,
          "velocity": 0.889763779527559
        },
        {
          "duration": 0.018382333333335055,
          "durationTicks": 2,
          "midi": 73,
          "name": "C#5",
          "ticks": 21227,
          "time": 195.10089483333334,
          "velocity": 0.937007874015748
        },
        {
          "duration": 0.22058799999999223,
          "durationTicks": 24,
          "midi": 61,
          "name": "C#4",
          "ticks": 21239,
          "time": 195.21118883333335,
          "velocity": 0.7401574803149606
        },
        {
          "duration": 0.22058799999999223,
          "durationTicks": 24,
          "midi": 65,
          "name": "F4",
          "ticks": 21239,
          "time": 195.21118883333335,
          "velocity": 0.8110236220472441
        },
        {
          "duration": 0.21139683333333892,
          "durationTicks": 23,
          "midi": 70,
          "name": "A#4",
          "ticks": 21240,
          "time": 195.22038,
          "velocity": 0.6141732283464567
        },
        {
          "duration": 0.21139683333333892,
          "durationTicks": 23,
          "midi": 73,
          "name": "C#5",
          "ticks": 21240,
          "time": 195.22038,
          "velocity": 0.8740157480314961
        },
        {
          "duration": 0.11029400000001033,
          "durationTicks": 12,
          "midi": 73,
          "name": "C#5",
          "ticks": 21263,
          "time": 195.43177683333334,
          "velocity": 0.8740157480314961
        },
        {
          "duration": 0.009191166666653316,
          "durationTicks": 1,
          "midi": 61,
          "name": "C#4",
          "ticks": 21275,
          "time": 195.54207083333336,
          "velocity": 0.8503937007874016
        },
        {
          "duration": 0.22058800000002066,
          "durationTicks": 24,
          "midi": 61,
          "name": "C#4",
          "ticks": 21287,
          "time": 195.65236483333334,
          "velocity": 0.8740157480314961
        },
        {
          "duration": 0.22058800000002066,
          "durationTicks": 24,
          "midi": 65,
          "name": "F4",
          "ticks": 21287,
          "time": 195.65236483333334,
          "velocity": 0.8267716535433071
        },
        {
          "duration": 0.21139683333333892,
          "durationTicks": 23,
          "midi": 68,
          "name": "G#4",
          "ticks": 21288,
          "time": 195.66155600000002,
          "velocity": 0.9133858267716536
        },
        {
          "duration": 0.22058799999999223,
          "durationTicks": 24,
          "midi": 54,
          "name": "F#3",
          "ticks": 21311,
          "time": 195.87295283333336,
          "velocity": 0.7559055118110236
        },
        {
          "duration": 0.22058799999999223,
          "durationTicks": 24,
          "midi": 61,
          "name": "C#4",
          "ticks": 21311,
          "time": 195.87295283333336,
          "velocity": 0.7401574803149606
        },
        {
          "duration": 0.22058799999999223,
          "durationTicks": 24,
          "midi": 66,
          "name": "F#4",
          "ticks": 21312,
          "time": 195.882144,
          "velocity": 0.905511811023622
        },
        {
          "duration": 0.21139683333333892,
          "durationTicks": 23,
          "midi": 68,
          "name": "G#4",
          "ticks": 21312,
          "time": 195.882144,
          "velocity": 0.7795275590551181
        },
        {
          "duration": 0.22058799999999223,
          "durationTicks": 24,
          "midi": 61,
          "name": "C#4",
          "ticks": 21335,
          "time": 196.09354083333335,
          "velocity": 0.8740157480314961
        },
        {
          "duration": 0.22058799999999223,
          "durationTicks": 24,
          "midi": 65,
          "name": "F4",
          "ticks": 21335,
          "time": 196.09354083333335,
          "velocity": 0.7086614173228346
        },
        {
          "duration": 0.21139683333333892,
          "durationTicks": 23,
          "midi": 68,
          "name": "G#4",
          "ticks": 21336,
          "time": 196.102732,
          "velocity": 0.7874015748031497
        },
        {
          "duration": 0.21139683333333892,
          "durationTicks": 23,
          "midi": 73,
          "name": "C#5",
          "ticks": 21336,
          "time": 196.102732,
          "velocity": 0.905511811023622
        },
        {
          "duration": 0.21139683333333892,
          "durationTicks": 23,
          "midi": 66,
          "name": "F#4",
          "ticks": 21359,
          "time": 196.31412883333334,
          "velocity": 0.905511811023622
        },
        {
          "duration": 0.2022056666666856,
          "durationTicks": 22,
          "midi": 73,
          "name": "C#5",
          "ticks": 21360,
          "time": 196.32332,
          "velocity": 0.889763779527559
        },
        {
          "duration": 0.22058800000002066,
          "durationTicks": 24,
          "midi": 60,
          "name": "C4",
          "ticks": 21383,
          "time": 196.53471683333333,
          "velocity": 0.8740157480314961
        },
        {
          "duration": 0.22058800000002066,
          "durationTicks": 24,
          "midi": 65,
          "name": "F4",
          "ticks": 21383,
          "time": 196.53471683333333,
          "velocity": 0.7086614173228346
        },
        {
          "duration": 0.21139683333333892,
          "durationTicks": 23,
          "midi": 68,
          "name": "G#4",
          "ticks": 21384,
          "time": 196.54390800000002,
          "velocity": 0.7480314960629921
        },
        {
          "duration": 0.21139683333333892,
          "durationTicks": 23,
          "midi": 75,
          "name": "D#5",
          "ticks": 21384,
          "time": 196.54390800000002,
          "velocity": 0.8503937007874016
        },
        {
          "duration": 0.44117599999998447,
          "durationTicks": 48,
          "midi": 60,
          "name": "C4",
          "ticks": 21407,
          "time": 196.75530483333335,
          "velocity": 0.8740157480314961
        },
        {
          "duration": 0.44117599999998447,
          "durationTicks": 48,
          "midi": 63,
          "name": "D#4",
          "ticks": 21407,
          "time": 196.75530483333335,
          "velocity": 0.7086614173228346
        },
        {
          "duration": 0.43198483333333115,
          "durationTicks": 47,
          "midi": 68,
          "name": "G#4",
          "ticks": 21408,
          "time": 196.764496,
          "velocity": 0.8661417322834646
        },
        {
          "duration": 0.43198483333333115,
          "durationTicks": 47,
          "midi": 75,
          "name": "D#5",
          "ticks": 21408,
          "time": 196.764496,
          "velocity": 0.905511811023622
        },
        {
          "duration": 0.22058800000002066,
          "durationTicks": 24,
          "midi": 63,
          "name": "D#4",
          "ticks": 21455,
          "time": 197.19648083333334,
          "velocity": 0.7086614173228346
        },
        {
          "duration": 0.21139683333333892,
          "durationTicks": 23,
          "midi": 68,
          "name": "G#4",
          "ticks": 21455,
          "time": 197.19648083333334,
          "velocity": 0.7480314960629921
        },
        {
          "duration": 0.21139683333336734,
          "durationTicks": 23,
          "midi": 75,
          "name": "D#5",
          "ticks": 21456,
          "time": 197.205672,
          "velocity": 0.8503937007874016
        },
        {
          "duration": 0.018382333333335055,
          "durationTicks": 2,
          "midi": 63,
          "name": "D#4",
          "ticks": 21479,
          "time": 197.41706883333336,
          "velocity": 0.7795275590551181
        },
        {
          "duration": 0.009191166666681738,
          "durationTicks": 1,
          "midi": 68,
          "name": "G#4",
          "ticks": 21480,
          "time": 197.42626,
          "velocity": 0.889763779527559
        },
        {
          "duration": 0.018382333333335055,
          "durationTicks": 2,
          "midi": 75,
          "name": "D#5",
          "ticks": 21491,
          "time": 197.52736283333334,
          "velocity": 0.8110236220472441
        },
        {
          "duration": 0.4227936666666494,
          "durationTicks": 46,
          "midi": 60,
          "name": "C4",
          "ticks": 21503,
          "time": 197.63765683333335,
          "velocity": 0.8740157480314961
        },
        {
          "duration": 0.4227936666666494,
          "durationTicks": 46,
          "midi": 63,
          "name": "D#4",
          "ticks": 21503,
          "time": 197.63765683333335,
          "velocity": 0.7322834645669292
        },
        {
          "duration": 0.4136024999999961,
          "durationTicks": 45,
          "midi": 68,
          "name": "G#4",
          "ticks": 21504,
          "time": 197.646848,
          "velocity": 0.8661417322834646
        },
        {
          "duration": 0.4136024999999961,
          "durationTicks": 45,
          "midi": 75,
          "name": "D#5",
          "ticks": 21504,
          "time": 197.646848,
          "velocity": 0.889763779527559
        },
        {
          "duration": 1.7555128333333414,
          "durationTicks": 191,
          "midi": 54,
          "name": "F#3",
          "ticks": 21551,
          "time": 198.07883283333334,
          "velocity": 0.7795275590551181
        },
        {
          "duration": 0.4411760000000129,
          "durationTicks": 48,
          "midi": 65,
          "name": "F4",
          "ticks": 21551,
          "time": 198.07883283333334,
          "velocity": 0.6141732283464567
        },
        {
          "duration": 0.22058800000002066,
          "durationTicks": 24,
          "midi": 68,
          "name": "G#4",
          "ticks": 21551,
          "time": 198.07883283333334,
          "velocity": 0.6141732283464567
        },
        {
          "duration": 1.7555128333333414,
          "durationTicks": 191,
          "midi": 77,
          "name": "F5",
          "ticks": 21552,
          "time": 198.08802400000002,
          "velocity": 1
        },
        {
          "duration": 0.8823519999999974,
          "durationTicks": 96,
          "midi": 68,
          "name": "G#4",
          "ticks": 21575,
          "time": 198.29942083333336,
          "velocity": 1
        },
        {
          "duration": 0.44117599999998447,
          "durationTicks": 48,
          "midi": 65,
          "name": "F4",
          "ticks": 21599,
          "time": 198.52000883333335,
          "velocity": 1
        },
        {
          "duration": 1.1121311666666713,
          "durationTicks": 121,
          "midi": 75,
          "name": "D#5",
          "ticks": 21623,
          "time": 198.74059683333334,
          "velocity": 1
        },
        {
          "duration": 0.4411760000000129,
          "durationTicks": 48,
          "midi": 65,
          "name": "F4",
          "ticks": 21647,
          "time": 198.96118483333333,
          "velocity": 0.6141732283464567
        },
        {
          "duration": 0.6709551666666584,
          "durationTicks": 73,
          "midi": 68,
          "name": "G#4",
          "ticks": 21671,
          "time": 199.18177283333335,
          "velocity": 1
        },
        {
          "duration": 0.4411760000000129,
          "durationTicks": 48,
          "midi": 65,
          "name": "F4",
          "ticks": 21695,
          "time": 199.40236083333335,
          "velocity": 1
        },
        {
          "duration": 0.2389703333333557,
          "durationTicks": 26,
          "midi": 73,
          "name": "C#5",
          "ticks": 21719,
          "time": 199.62294883333334,
          "velocity": 1
        },
        {
          "duration": 1.6727923333333194,
          "durationTicks": 182,
          "midi": 54,
          "name": "F#3",
          "ticks": 21743,
          "time": 199.84353683333336,
          "velocity": 0.7086614173228346
        },
        {
          "duration": 0.43198483333333115,
          "durationTicks": 47,
          "midi": 65,
          "name": "F4",
          "ticks": 21744,
          "time": 199.852728,
          "velocity": 0.6456692913385826
        },
        {
          "duration": 0.8823519999999974,
          "durationTicks": 96,
          "midi": 68,
          "name": "G#4",
          "ticks": 21767,
          "time": 200.06412483333335,
          "velocity": 1
        },
        {
          "duration": 0.4411760000000129,
          "durationTicks": 48,
          "midi": 65,
          "name": "F4",
          "ticks": 21791,
          "time": 200.28471283333334,
          "velocity": 0.889763779527559
        },
        {
          "duration": 0.22058800000002066,
          "durationTicks": 24,
          "midi": 75,
          "name": "D#5",
          "ticks": 21815,
          "time": 200.50530083333334,
          "velocity": 1
        },
        {
          "duration": 0.44117599999998447,
          "durationTicks": 48,
          "midi": 65,
          "name": "F4",
          "ticks": 21839,
          "time": 200.72588883333336,
          "velocity": 0.9291338582677166
        },
        {
          "duration": 0.5882346666666649,
          "durationTicks": 64,
          "midi": 68,
          "name": "G#4",
          "ticks": 21863,
          "time": 200.94647683333335,
          "velocity": 0.7952755905511811
        },
        {
          "duration": 0.22058799999999223,
          "durationTicks": 24,
          "midi": 72,
          "name": "C5",
          "ticks": 21887,
          "time": 201.16706483333334,
          "velocity": 1
        },
        {
          "duration": 0.24816150000000903,
          "durationTicks": 27,
          "midi": 73,
          "name": "C#5",
          "ticks": 21911,
          "time": 201.38765283333333,
          "velocity": 0.9606299212598425
        }
      ]
    },
    {
      "channel": 0,
      "controlChanges": {
        "0": [
          {
            "number": 0,
            "ticks": 142,
            "time": 1.3051456666666668,
            "value": 0
          }
        ],
        "32": [
          {
            "number": 32,
            "ticks": 143,
            "time": 1.3143368333333334,
            "value": 0.015748031496062992
          }
        ],
        "121": [
          {
            "number": 121,
            "ticks": 138,
            "time": 1.268381,
            "value": 0
          }
        ]
      },
      "pitchBends": [],
      "instrument": {
        "family": "piano",
        "number": 0,
        "name": "acoustic grand piano"
      },
      "name": "SEQ",
      "notes": [],
      "endOfTrackTicks": 16560
    },
    {
      "channel": 13,
      "controlChanges": {
        "6": [
          {
            "number": 6,
            "ticks": 178,
            "time": 1.6360276666666669,
            "value": 0.09448818897637795
          }
        ],
        "7": [
          {
            "number": 7,
            "ticks": 145,
            "time": 1.3327191666666667,
            "value": 0.5433070866141733
          }
        ],
        "10": [
          {
            "number": 10,
            "ticks": 146,
            "time": 1.3419103333333333,
            "value": 0.5039370078740157
          },
          {
            "number": 10,
            "ticks": 2760,
            "time": 25.367620000000002,
            "value": 0.7401574803149606
          },
          {
            "number": 10,
            "ticks": 2772,
            "time": 25.477914000000002,
            "value": 0.2677165354330709
          },
          {
            "number": 10,
            "ticks": 2784,
            "time": 25.588208,
            "value": 0.5039370078740157
          },
          {
            "number": 10,
            "ticks": 2808,
            "time": 25.808796,
            "value": 0.7401574803149606
          },
          {
            "number": 10,
            "ticks": 2820,
            "time": 25.919090000000004,
            "value": 0.2677165354330709
          },
          {
            "number": 10,
            "ticks": 2832,
            "time": 26.029384000000004,
            "value": 0.5039370078740157
          },
          {
            "number": 10,
            "ticks": 2856,
            "time": 26.249972000000003,
            "value": 0.2677165354330709
          },
          {
            "number": 10,
            "ticks": 2868,
            "time": 26.360266000000003,
            "value": 0.7401574803149606
          },
          {
            "number": 10,
            "ticks": 2880,
            "time": 26.470560000000003,
            "value": 0.5039370078740157
          },
          {
            "number": 10,
            "ticks": 2904,
            "time": 26.691148000000002,
            "value": 0.2677165354330709
          },
          {
            "number": 10,
            "ticks": 2916,
            "time": 26.801442,
            "value": 0.5039370078740157
          },
          {
            "number": 10,
            "ticks": 2952,
            "time": 27.132324000000004,
            "value": 0.7401574803149606
          },
          {
            "number": 10,
            "ticks": 2964,
            "time": 27.242618000000004,
            "value": 0.2677165354330709
          },
          {
            "number": 10,
            "ticks": 2976,
            "time": 27.352912000000003,
            "value": 0.5039370078740157
          },
          {
            "number": 10,
            "ticks": 2988,
            "time": 27.463206000000003,
            "value": 0.7401574803149606
          },
          {
            "number": 10,
            "ticks": 3000,
            "time": 27.573500000000003,
            "value": 0.2677165354330709
          },
          {
            "number": 10,
            "ticks": 3012,
            "time": 27.683794000000002,
            "value": 0.5039370078740157
          },
          {
            "number": 10,
            "ticks": 3024,
            "time": 27.794088000000002,
            "value": 0.7401574803149606
          },
          {
            "number": 10,
            "ticks": 3036,
            "time": 27.904382000000002,
            "value": 0.2677165354330709
          },
          {
            "number": 10,
            "ticks": 3048,
            "time": 28.014676,
            "value": 0.5039370078740157
          },
          {
            "number": 10,
            "ticks": 3060,
            "time": 28.12497,
            "value": 0.2677165354330709
          },
          {
            "number": 10,
            "ticks": 3072,
            "time": 28.235264000000004,
            "value": 0.5039370078740157
          },
          {
            "number": 10,
            "ticks": 3084,
            "time": 28.345558000000004,
            "value": 0.2677165354330709
          },
          {
            "number": 10,
            "ticks": 3096,
            "time": 28.455852000000004,
            "value": 0.7401574803149606
          },
          {
            "number": 10,
            "ticks": 3108,
            "time": 28.566146000000003,
            "value": 0.5039370078740157
          },
          {
            "number": 10,
            "ticks": 3144,
            "time": 28.897028000000002,
            "value": 0.7401574803149606
          },
          {
            "number": 10,
            "ticks": 3156,
            "time": 29.007322000000002,
            "value": 0.2677165354330709
          },
          {
            "number": 10,
            "ticks": 3168,
            "time": 29.117616,
            "value": 0.5039370078740157
          },
          {
            "number": 10,
            "ticks": 3192,
            "time": 29.338204,
            "value": 0.7401574803149606
          },
          {
            "number": 10,
            "ticks": 3204,
            "time": 29.448498000000004,
            "value": 0.2677165354330709
          },
          {
            "number": 10,
            "ticks": 3216,
            "time": 29.558792000000004,
            "value": 0.5039370078740157
          },
          {
            "number": 10,
            "ticks": 3240,
            "time": 29.779380000000003,
            "value": 0.2677165354330709
          },
          {
            "number": 10,
            "ticks": 3252,
            "time": 29.889674000000003,
            "value": 0.7401574803149606
          },
          {
            "number": 10,
            "ticks": 3264,
            "time": 29.999968,
            "value": 0.5039370078740157
          },
          {
            "number": 10,
            "ticks": 3288,
            "time": 30.220556,
            "value": 0.2677165354330709
          },
          {
            "number": 10,
            "ticks": 3300,
            "time": 30.330849999999998,
            "value": 0.5039370078740157
          },
          {
            "number": 10,
            "ticks": 3336,
            "time": 30.661732,
            "value": 0.7401574803149606
          },
          {
            "number": 10,
            "ticks": 3348,
            "time": 30.772026,
            "value": 0.2677165354330709
          },
          {
            "number": 10,
            "ticks": 3360,
            "time": 30.88232,
            "value": 0.5039370078740157
          },
          {
            "number": 10,
            "ticks": 3372,
            "time": 30.992614,
            "value": 0.7401574803149606
          },
          {
            "number": 10,
            "ticks": 3384,
            "time": 31.102908,
            "value": 0.2677165354330709
          },
          {
            "number": 10,
            "ticks": 3396,
            "time": 31.213202,
            "value": 0.5039370078740157
          },
          {
            "number": 10,
            "ticks": 3408,
            "time": 31.323496,
            "value": 0.7401574803149606
          },
          {
            "number": 10,
            "ticks": 3420,
            "time": 31.43379,
            "value": 0.2677165354330709
          },
          {
            "number": 10,
            "ticks": 3432,
            "time": 31.544083999999998,
            "value": 0.5039370078740157
          },
          {
            "number": 10,
            "ticks": 3444,
            "time": 31.654378,
            "value": 0.2677165354330709
          },
          {
            "number": 10,
            "ticks": 3456,
            "time": 31.764672,
            "value": 0.5039370078740157
          },
          {
            "number": 10,
            "ticks": 3468,
            "time": 31.874966,
            "value": 0.2677165354330709
          },
          {
            "number": 10,
            "ticks": 3480,
            "time": 31.98526,
            "value": 0.7401574803149606
          },
          {
            "number": 10,
            "ticks": 3492,
            "time": 32.095554,
            "value": 0.5039370078740157
          },
          {
            "number": 10,
            "ticks": 3528,
            "time": 32.426435999999995,
            "value": 0.7401574803149606
          },
          {
            "number": 10,
            "ticks": 3540,
            "time": 32.53673,
            "value": 0.2677165354330709
          },
          {
            "number": 10,
            "ticks": 3552,
            "time": 32.647023999999995,
            "value": 0.5039370078740157
          },
          {
            "number": 10,
            "ticks": 3576,
            "time": 32.867612,
            "value": 0.7401574803149606
          },
          {
            "number": 10,
            "ticks": 3588,
            "time": 32.977906,
            "value": 0.2677165354330709
          },
          {
            "number": 10,
            "ticks": 3600,
            "time": 33.0882,
            "value": 0.5039370078740157
          },
          {
            "number": 10,
            "ticks": 3624,
            "time": 33.308788,
            "value": 0.2677165354330709
          },
          {
            "number": 10,
            "ticks": 3636,
            "time": 33.419081999999996,
            "value": 0.7401574803149606
          },
          {
            "number": 10,
            "ticks": 3648,
            "time": 33.529376,
            "value": 0.5039370078740157
          },
          {
            "number": 10,
            "ticks": 3672,
            "time": 33.749964,
            "value": 0.2677165354330709
          },
          {
            "number": 10,
            "ticks": 3684,
            "time": 33.860258,
            "value": 0.5039370078740157
          },
          {
            "number": 10,
            "ticks": 3720,
            "time": 34.19114,
            "value": 0.7401574803149606
          },
          {
            "number": 10,
            "ticks": 3732,
            "time": 34.301434,
            "value": 0.2677165354330709
          },
          {
            "number": 10,
            "ticks": 3744,
            "time": 34.411728,
            "value": 0.5039370078740157
          },
          {
            "number": 10,
            "ticks": 3756,
            "time": 34.522022,
            "value": 0.7401574803149606
          },
          {
            "number": 10,
            "ticks": 3768,
            "time": 34.632316,
            "value": 0.2677165354330709
          },
          {
            "number": 10,
            "ticks": 3780,
            "time": 34.74261,
            "value": 0.5039370078740157
          },
          {
            "number": 10,
            "ticks": 3792,
            "time": 34.852904,
            "value": 0.7401574803149606
          },
          {
            "number": 10,
            "ticks": 3804,
            "time": 34.963198,
            "value": 0.2677165354330709
          },
          {
            "number": 10,
            "ticks": 3816,
            "time": 35.073492,
            "value": 0.5039370078740157
          },
          {
            "number": 10,
            "ticks": 3828,
            "time": 35.183786,
            "value": 0.2677165354330709
          },
          {
            "number": 10,
            "ticks": 3840,
            "time": 35.29408,
            "value": 0.5039370078740157
          },
          {
            "number": 10,
            "ticks": 3852,
            "time": 35.404374,
            "value": 0.2677165354330709
          },
          {
            "number": 10,
            "ticks": 3864,
            "time": 35.514668,
            "value": 0.7401574803149606
          },
          {
            "number": 10,
            "ticks": 3876,
            "time": 35.624962,
            "value": 0.5039370078740157
          },
          {
            "number": 10,
            "ticks": 3900,
            "time": 35.84555,
            "value": 0.2677165354330709
          },
          {
            "number": 10,
            "ticks": 3912,
            "time": 35.955844,
            "value": 0.7401574803149606
          },
          {
            "number": 10,
            "ticks": 3924,
            "time": 36.066138,
            "value": 0.2677165354330709
          },
          {
            "number": 10,
            "ticks": 3936,
            "time": 36.176432,
            "value": 0.5039370078740157
          },
          {
            "number": 10,
            "ticks": 3960,
            "time": 36.39702,
            "value": 0.7401574803149606
          },
          {
            "number": 10,
            "ticks": 3972,
            "time": 36.507314,
            "value": 0.2677165354330709
          },
          {
            "number": 10,
            "ticks": 3984,
            "time": 36.617608,
            "value": 0.5039370078740157
          },
          {
            "number": 10,
            "ticks": 4008,
            "time": 36.838195999999996,
            "value": 0.2677165354330709
          },
          {
            "number": 10,
            "ticks": 4020,
            "time": 36.94849,
            "value": 0.7401574803149606
          },
          {
            "number": 10,
            "ticks": 4032,
            "time": 37.058784,
            "value": 0.5039370078740157
          },
          {
            "number": 10,
            "ticks": 4056,
            "time": 37.279372,
            "value": 0.2677165354330709
          },
          {
            "number": 10,
            "ticks": 4068,
            "time": 37.389666,
            "value": 0.5039370078740157
          },
          {
            "number": 10,
            "ticks": 4104,
            "time": 37.720548,
            "value": 0.7401574803149606
          },
          {
            "number": 10,
            "ticks": 4116,
            "time": 37.830842,
            "value": 0.2677165354330709
          },
          {
            "number": 10,
            "ticks": 4128,
            "time": 37.941136,
            "value": 0.5039370078740157
          },
          {
            "number": 10,
            "ticks": 4140,
            "time": 38.05143,
            "value": 0.7401574803149606
          },
          {
            "number": 10,
            "ticks": 4152,
            "time": 38.161724,
            "value": 0.2677165354330709
          },
          {
            "number": 10,
            "ticks": 4164,
            "time": 38.272018,
            "value": 0.5039370078740157
          },
          {
            "number": 10,
            "ticks": 4296,
            "time": 39.485252,
            "value": 0.7401574803149606
          },
          {
            "number": 10,
            "ticks": 4308,
            "time": 39.595546,
            "value": 0.2677165354330709
          },
          {
            "number": 10,
            "ticks": 4320,
            "time": 39.70584,
            "value": 0.5039370078740157
          },
          {
            "number": 10,
            "ticks": 4344,
            "time": 39.926428,
            "value": 0.7401574803149606
          },
          {
            "number": 10,
            "ticks": 4356,
            "time": 40.036722,
            "value": 0.2677165354330709
          },
          {
            "number": 10,
            "ticks": 4368,
            "time": 40.147016,
            "value": 0.5039370078740157
          },
          {
            "number": 10,
            "ticks": 4392,
            "time": 40.367604,
            "value": 0.2677165354330709
          },
          {
            "number": 10,
            "ticks": 4404,
            "time": 40.477898,
            "value": 0.7401574803149606
          },
          {
            "number": 10,
            "ticks": 4416,
            "time": 40.588192,
            "value": 0.5039370078740157
          },
          {
            "number": 10,
            "ticks": 4440,
            "time": 40.80878,
            "value": 0.2677165354330709
          },
          {
            "number": 10,
            "ticks": 4452,
            "time": 40.919074,
            "value": 0.5039370078740157
          },
          {
            "number": 10,
            "ticks": 4488,
            "time": 41.249956,
            "value": 0.7401574803149606
          },
          {
            "number": 10,
            "ticks": 4500,
            "time": 41.36025,
            "value": 0.2677165354330709
          },
          {
            "number": 10,
            "ticks": 4512,
            "time": 41.470544,
            "value": 0.5039370078740157
          },
          {
            "number": 10,
            "ticks": 4524,
            "time": 41.580838,
            "value": 0.7401574803149606
          },
          {
            "number": 10,
            "ticks": 4536,
            "time": 41.691132,
            "value": 0.2677165354330709
          },
          {
            "number": 10,
            "ticks": 4548,
            "time": 41.801426,
            "value": 0.5039370078740157
          },
          {
            "number": 10,
            "ticks": 4560,
            "time": 41.91172,
            "value": 0.7401574803149606
          },
          {
            "number": 10,
            "ticks": 4572,
            "time": 42.022014,
            "value": 0.2677165354330709
          },
          {
            "number": 10,
            "ticks": 4584,
            "time": 42.132308,
            "value": 0.5039370078740157
          },
          {
            "number": 10,
            "ticks": 4596,
            "time": 42.242602,
            "value": 0.2677165354330709
          },
          {
            "number": 10,
            "ticks": 4608,
            "time": 42.352896,
            "value": 0.5039370078740157
          },
          {
            "number": 10,
            "ticks": 4620,
            "time": 42.46319,
            "value": 0.2677165354330709
          },
          {
            "number": 10,
            "ticks": 4632,
            "time": 42.573484,
            "value": 0.7401574803149606
          },
          {
            "number": 10,
            "ticks": 4644,
            "time": 42.683778,
            "value": 0.5039370078740157
          },
          {
            "number": 10,
            "ticks": 4680,
            "time": 43.01466,
            "value": 0.7401574803149606
          },
          {
            "number": 10,
            "ticks": 4692,
            "time": 43.124954,
            "value": 0.2677165354330709
          },
          {
            "number": 10,
            "ticks": 4704,
            "time": 43.235248,
            "value": 0.5039370078740157
          },
          {
            "number": 10,
            "ticks": 4728,
            "time": 43.455836,
            "value": 0.7401574803149606
          },
          {
            "number": 10,
            "ticks": 4740,
            "time": 43.56613,
            "value": 0.2677165354330709
          },
          {
            "number": 10,
            "ticks": 4752,
            "time": 43.676424,
            "value": 0.5039370078740157
          },
          {
            "number": 10,
            "ticks": 4776,
            "time": 43.897012,
            "value": 0.2677165354330709
          },
          {
            "number": 10,
            "ticks": 4788,
            "time": 44.007306,
            "value": 0.7401574803149606
          },
          {
            "number": 10,
            "ticks": 4800,
            "time": 44.1176,
            "value": 0.5039370078740157
          },
          {
            "number": 10,
            "ticks": 4824,
            "time": 44.338188,
            "value": 0.2677165354330709
          },
          {
            "number": 10,
            "ticks": 4836,
            "time": 44.448482,
            "value": 0.5039370078740157
          },
          {
            "number": 10,
            "ticks": 4872,
            "time": 44.779364,
            "value": 0.7401574803149606
          },
          {
            "number": 10,
            "ticks": 4884,
            "time": 44.889658,
            "value": 0.2677165354330709
          },
          {
            "number": 10,
            "ticks": 4896,
            "time": 44.999952,
            "value": 0.5039370078740157
          },
          {
            "number": 10,
            "ticks": 4908,
            "time": 45.110246000000004,
            "value": 0.7401574803149606
          },
          {
            "number": 10,
            "ticks": 4920,
            "time": 45.22054,
            "value": 0.2677165354330709
          },
          {
            "number": 10,
            "ticks": 4932,
            "time": 45.330834,
            "value": 0.5039370078740157
          },
          {
            "number": 10,
            "ticks": 4944,
            "time": 45.441128,
            "value": 0.7401574803149606
          },
          {
            "number": 10,
            "ticks": 4956,
            "time": 45.551422,
            "value": 0.2677165354330709
          },
          {
            "number": 10,
            "ticks": 4968,
            "time": 45.661716,
            "value": 0.5039370078740157
          },
          {
            "number": 10,
            "ticks": 4980,
            "time": 45.77201,
            "value": 0.2677165354330709
          },
          {
            "number": 10,
            "ticks": 4992,
            "time": 45.882304,
            "value": 0.5039370078740157
          },
          {
            "number": 10,
            "ticks": 5004,
            "time": 45.992598,
            "value": 0.2677165354330709
          },
          {
            "number": 10,
            "ticks": 5016,
            "time": 46.102892,
            "value": 0.7401574803149606
          },
          {
            "number": 10,
            "ticks": 5028,
            "time": 46.213186,
            "value": 0.5039370078740157
          },
          {
            "number": 10,
            "ticks": 5064,
            "time": 46.544068,
            "value": 0.7401574803149606
          },
          {
            "number": 10,
            "ticks": 5076,
            "time": 46.654362,
            "value": 0.2677165354330709
          },
          {
            "number": 10,
            "ticks": 5088,
            "time": 46.764656,
            "value": 0.5039370078740157
          },
          {
            "number": 10,
            "ticks": 5112,
            "time": 46.985244,
            "value": 0.7401574803149606
          },
          {
            "number": 10,
            "ticks": 5124,
            "time": 47.095538,
            "value": 0.2677165354330709
          },
          {
            "number": 10,
            "ticks": 5136,
            "time": 47.205832,
            "value": 0.5039370078740157
          },
          {
            "number": 10,
            "ticks": 5160,
            "time": 47.42642,
            "value": 0.2677165354330709
          },
          {
            "number": 10,
            "ticks": 5172,
            "time": 47.536714,
            "value": 0.7401574803149606
          },
          {
            "number": 10,
            "ticks": 5184,
            "time": 47.647008,
            "value": 0.5039370078740157
          },
          {
            "number": 10,
            "ticks": 5208,
            "time": 47.867596,
            "value": 0.2677165354330709
          },
          {
            "number": 10,
            "ticks": 5220,
            "time": 47.97789,
            "value": 0.5039370078740157
          },
          {
            "number": 10,
            "ticks": 5256,
            "time": 48.308772,
            "value": 0.7401574803149606
          },
          {
            "number": 10,
            "ticks": 5268,
            "time": 48.419066,
            "value": 0.2677165354330709
          },
          {
            "number": 10,
            "ticks": 5280,
            "time": 48.52936,
            "value": 0.5039370078740157
          },
          {
            "number": 10,
            "ticks": 5292,
            "time": 48.639654,
            "value": 0.7401574803149606
          },
          {
            "number": 10,
            "ticks": 5304,
            "time": 48.749948,
            "value": 0.2677165354330709
          },
          {
            "number": 10,
            "ticks": 5316,
            "time": 48.860242,
            "value": 0.5039370078740157
          },
          {
            "number": 10,
            "ticks": 5328,
            "time": 48.970536,
            "value": 0.7401574803149606
          },
          {
            "number": 10,
            "ticks": 5340,
            "time": 49.08083,
            "value": 0.2677165354330709
          },
          {
            "number": 10,
            "ticks": 5352,
            "time": 49.191124,
            "value": 0.5039370078740157
          },
          {
            "number": 10,
            "ticks": 5364,
            "time": 49.301418,
            "value": 0.2677165354330709
          },
          {
            "number": 10,
            "ticks": 5376,
            "time": 49.411712,
            "value": 0.5039370078740157
          },
          {
            "number": 10,
            "ticks": 5388,
            "time": 49.522006,
            "value": 0.2677165354330709
          },
          {
            "number": 10,
            "ticks": 5400,
            "time": 49.6323,
            "value": 0.7401574803149606
          },
          {
            "number": 10,
            "ticks": 5412,
            "time": 49.742594,
            "value": 0.5039370078740157
          },
          {
            "number": 10,
            "ticks": 5448,
            "time": 50.073476,
            "value": 0.7401574803149606
          },
          {
            "number": 10,
            "ticks": 5460,
            "time": 50.18377,
            "value": 0.2677165354330709
          },
          {
            "number": 10,
            "ticks": 5472,
            "time": 50.294064,
            "value": 0.5039370078740157
          },
          {
            "number": 10,
            "ticks": 5496,
            "time": 50.514652,
            "value": 0.7401574803149606
          },
          {
            "number": 10,
            "ticks": 5508,
            "time": 50.624946,
            "value": 0.2677165354330709
          },
          {
            "number": 10,
            "ticks": 5520,
            "time": 50.73524,
            "value": 0.5039370078740157
          },
          {
            "number": 10,
            "ticks": 5544,
            "time": 50.955828,
            "value": 0.2677165354330709
          },
          {
            "number": 10,
            "ticks": 5556,
            "time": 51.066122,
            "value": 0.7401574803149606
          },
          {
            "number": 10,
            "ticks": 5568,
            "time": 51.176416,
            "value": 0.5039370078740157
          },
          {
            "number": 10,
            "ticks": 5592,
            "time": 51.397004,
            "value": 0.2677165354330709
          },
          {
            "number": 10,
            "ticks": 5604,
            "time": 51.507298,
            "value": 0.5039370078740157
          },
          {
            "number": 10,
            "ticks": 5640,
            "time": 51.83818,
            "value": 0.7401574803149606
          },
          {
            "number": 10,
            "ticks": 5652,
            "time": 51.948474,
            "value": 0.2677165354330709
          },
          {
            "number": 10,
            "ticks": 5664,
            "time": 52.058768,
            "value": 0.5039370078740157
          },
          {
            "number": 10,
            "ticks": 5676,
            "time": 52.169062000000004,
            "value": 0.7401574803149606
          },
          {
            "number": 10,
            "ticks": 5688,
            "time": 52.279356,
            "value": 0.2677165354330709
          },
          {
            "number": 10,
            "ticks": 5700,
            "time": 52.38965,
            "value": 0.5039370078740157
          },
          {
            "number": 10,
            "ticks": 5712,
            "time": 52.499944,
            "value": 0.7401574803149606
          },
          {
            "number": 10,
            "ticks": 5724,
            "time": 52.610238,
            "value": 0.2677165354330709
          },
          {
            "number": 10,
            "ticks": 5736,
            "time": 52.720532,
            "value": 0.5039370078740157
          },
          {
            "number": 10,
            "ticks": 5748,
            "time": 52.830826,
            "value": 0.2677165354330709
          },
          {
            "number": 10,
            "ticks": 5760,
            "time": 52.94112,
            "value": 0.5039370078740157
          },
          {
            "number": 10,
            "ticks": 5772,
            "time": 53.051414,
            "value": 0.2677165354330709
          },
          {
            "number": 10,
            "ticks": 5784,
            "time": 53.161708,
            "value": 0.7401574803149606
          },
          {
            "number": 10,
            "ticks": 5796,
            "time": 53.272002,
            "value": 0.5039370078740157
          },
          {
            "number": 10,
            "ticks": 9672,
            "time": 88.896964,
            "value": 0.7401574803149606
          },
          {
            "number": 10,
            "ticks": 9684,
            "time": 89.00725800000001,
            "value": 0.2677165354330709
          },
          {
            "number": 10,
            "ticks": 9696,
            "time": 89.117552,
            "value": 0.5039370078740157
          },
          {
            "number": 10,
            "ticks": 9720,
            "time": 89.33814,
            "value": 0.7401574803149606
          },
          {
            "number": 10,
            "ticks": 9732,
            "time": 89.448434,
            "value": 0.2677165354330709
          },
          {
            "number": 10,
            "ticks": 9744,
            "time": 89.558728,
            "value": 0.5039370078740157
          },
          {
            "number": 10,
            "ticks": 9768,
            "time": 89.779316,
            "value": 0.2677165354330709
          },
          {
            "number": 10,
            "ticks": 9780,
            "time": 89.88961,
            "value": 0.7401574803149606
          },
          {
            "number": 10,
            "ticks": 9792,
            "time": 89.999904,
            "value": 0.5039370078740157
          },
          {
            "number": 10,
            "ticks": 9816,
            "time": 90.22049200000001,
            "value": 0.2677165354330709
          },
          {
            "number": 10,
            "ticks": 9828,
            "time": 90.330786,
            "value": 0.5039370078740157
          },
          {
            "number": 10,
            "ticks": 9864,
            "time": 90.661668,
            "value": 0.7401574803149606
          },
          {
            "number": 10,
            "ticks": 9876,
            "time": 90.771962,
            "value": 0.2677165354330709
          },
          {
            "number": 10,
            "ticks": 9888,
            "time": 90.882256,
            "value": 0.5039370078740157
          },
          {
            "number": 10,
            "ticks": 9900,
            "time": 90.99255,
            "value": 0.7401574803149606
          },
          {
            "number": 10,
            "ticks": 9912,
            "time": 91.102844,
            "value": 0.2677165354330709
          },
          {
            "number": 10,
            "ticks": 9924,
            "time": 91.213138,
            "value": 0.5039370078740157
          },
          {
            "number": 10,
            "ticks": 9936,
            "time": 91.323432,
            "value": 0.7401574803149606
          },
          {
            "number": 10,
            "ticks": 9948,
            "time": 91.43372600000001,
            "value": 0.2677165354330709
          },
          {
            "number": 10,
            "ticks": 9960,
            "time": 91.54402,
            "value": 0.5039370078740157
          },
          {
            "number": 10,
            "ticks": 9972,
            "time": 91.654314,
            "value": 0.2677165354330709
          },
          {
            "number": 10,
            "ticks": 9984,
            "time": 91.764608,
            "value": 0.5039370078740157
          },
          {
            "number": 10,
            "ticks": 9996,
            "time": 91.874902,
            "value": 0.2677165354330709
          },
          {
            "number": 10,
            "ticks": 10008,
            "time": 91.985196,
            "value": 0.7401574803149606
          },
          {
            "number": 10,
            "ticks": 10020,
            "time": 92.09549,
            "value": 0.5039370078740157
          },
          {
            "number": 10,
            "ticks": 10056,
            "time": 92.426372,
            "value": 0.7401574803149606
          },
          {
            "number": 10,
            "ticks": 10068,
            "time": 92.536666,
            "value": 0.2677165354330709
          },
          {
            "number": 10,
            "ticks": 10080,
            "time": 92.64696,
            "value": 0.5039370078740157
          },
          {
            "number": 10,
            "ticks": 10104,
            "time": 92.867548,
            "value": 0.7401574803149606
          },
          {
            "number": 10,
            "ticks": 10116,
            "time": 92.977842,
            "value": 0.2677165354330709
          },
          {
            "number": 10,
            "ticks": 10128,
            "time": 93.088136,
            "value": 0.5039370078740157
          },
          {
            "number": 10,
            "ticks": 10152,
            "time": 93.308724,
            "value": 0.2677165354330709
          },
          {
            "number": 10,
            "ticks": 10164,
            "time": 93.419018,
            "value": 0.7401574803149606
          },
          {
            "number": 10,
            "ticks": 10176,
            "time": 93.529312,
            "value": 0.5039370078740157
          },
          {
            "number": 10,
            "ticks": 10200,
            "time": 93.7499,
            "value": 0.2677165354330709
          },
          {
            "number": 10,
            "ticks": 10212,
            "time": 93.860194,
            "value": 0.5039370078740157
          },
          {
            "number": 10,
            "ticks": 10248,
            "time": 94.191076,
            "value": 0.7401574803149606
          },
          {
            "number": 10,
            "ticks": 10260,
            "time": 94.30137,
            "value": 0.2677165354330709
          },
          {
            "number": 10,
            "ticks": 10272,
            "time": 94.411664,
            "value": 0.5039370078740157
          },
          {
            "number": 10,
            "ticks": 10284,
            "time": 94.521958,
            "value": 0.7401574803149606
          },
          {
            "number": 10,
            "ticks": 10296,
            "time": 94.632252,
            "value": 0.2677165354330709
          },
          {
            "number": 10,
            "ticks": 10308,
            "time": 94.742546,
            "value": 0.5039370078740157
          },
          {
            "number": 10,
            "ticks": 10320,
            "time": 94.85284,
            "value": 0.7401574803149606
          },
          {
            "number": 10,
            "ticks": 10332,
            "time": 94.963134,
            "value": 0.2677165354330709
          },
          {
            "number": 10,
            "ticks": 10344,
            "time": 95.073428,
            "value": 0.5039370078740157
          },
          {
            "number": 10,
            "ticks": 10356,
            "time": 95.183722,
            "value": 0.2677165354330709
          },
          {
            "number": 10,
            "ticks": 10368,
            "time": 95.294016,
            "value": 0.5039370078740157
          },
          {
            "number": 10,
            "ticks": 10380,
            "time": 95.40431,
            "value": 0.2677165354330709
          },
          {
            "number": 10,
            "ticks": 10392,
            "time": 95.514604,
            "value": 0.7401574803149606
          },
          {
            "number": 10,
            "ticks": 10404,
            "time": 95.624898,
            "value": 0.5039370078740157
          },
          {
            "number": 10,
            "ticks": 10440,
            "time": 95.95578,
            "value": 0.7401574803149606
          },
          {
            "number": 10,
            "ticks": 10452,
            "time": 96.066074,
            "value": 0.2677165354330709
          },
          {
            "number": 10,
            "ticks": 10464,
            "time": 96.176368,
            "value": 0.5039370078740157
          },
          {
            "number": 10,
            "ticks": 10488,
            "time": 96.396956,
            "value": 0.7401574803149606
          },
          {
            "number": 10,
            "ticks": 10500,
            "time": 96.50725,
            "value": 0.2677165354330709
          },
          {
            "number": 10,
            "ticks": 10512,
            "time": 96.617544,
            "value": 0.5039370078740157
          },
          {
            "number": 10,
            "ticks": 10536,
            "time": 96.838132,
            "value": 0.2677165354330709
          },
          {
            "number": 10,
            "ticks": 10548,
            "time": 96.948426,
            "value": 0.7401574803149606
          },
          {
            "number": 10,
            "ticks": 10560,
            "time": 97.05872,
            "value": 0.5039370078740157
          },
          {
            "number": 10,
            "ticks": 10584,
            "time": 97.279308,
            "value": 0.2677165354330709
          },
          {
            "number": 10,
            "ticks": 10596,
            "time": 97.389602,
            "value": 0.5039370078740157
          },
          {
            "number": 10,
            "ticks": 10632,
            "time": 97.720484,
            "value": 0.7401574803149606
          },
          {
            "number": 10,
            "ticks": 10644,
            "time": 97.830778,
            "value": 0.2677165354330709
          },
          {
            "number": 10,
            "ticks": 10656,
            "time": 97.941072,
            "value": 0.5039370078740157
          },
          {
            "number": 10,
            "ticks": 10668,
            "time": 98.051366,
            "value": 0.7401574803149606
          },
          {
            "number": 10,
            "ticks": 10680,
            "time": 98.16166,
            "value": 0.2677165354330709
          },
          {
            "number": 10,
            "ticks": 10692,
            "time": 98.271954,
            "value": 0.5039370078740157
          },
          {
            "number": 10,
            "ticks": 10704,
            "time": 98.382248,
            "value": 0.7401574803149606
          },
          {
            "number": 10,
            "ticks": 10716,
            "time": 98.492542,
            "value": 0.2677165354330709
          },
          {
            "number": 10,
            "ticks": 10728,
            "time": 98.602836,
            "value": 0.5039370078740157
          },
          {
            "number": 10,
            "ticks": 10740,
            "time": 98.71313,
            "value": 0.2677165354330709
          },
          {
            "number": 10,
            "ticks": 10752,
            "time": 98.823424,
            "value": 0.5039370078740157
          },
          {
            "number": 10,
            "ticks": 10764,
            "time": 98.933718,
            "value": 0.2677165354330709
          },
          {
            "number": 10,
            "ticks": 10776,
            "time": 99.044012,
            "value": 0.7401574803149606
          },
          {
            "number": 10,
            "ticks": 10788,
            "time": 99.154306,
            "value": 0.5039370078740157
          },
          {
            "number": 10,
            "ticks": 10812,
            "time": 99.374894,
            "value": 0.2677165354330709
          },
          {
            "number": 10,
            "ticks": 10824,
            "time": 99.485188,
            "value": 0.7401574803149606
          },
          {
            "number": 10,
            "ticks": 10836,
            "time": 99.595482,
            "value": 0.2677165354330709
          },
          {
            "number": 10,
            "ticks": 10848,
            "time": 99.705776,
            "value": 0.5039370078740157
          },
          {
            "number": 10,
            "ticks": 10872,
            "time": 99.926364,
            "value": 0.7401574803149606
          },
          {
            "number": 10,
            "ticks": 10884,
            "time": 100.036658,
            "value": 0.2677165354330709
          },
          {
            "number": 10,
            "ticks": 10896,
            "time": 100.146952,
            "value": 0.5039370078740157
          },
          {
            "number": 10,
            "ticks": 10920,
            "time": 100.36754,
            "value": 0.2677165354330709
          },
          {
            "number": 10,
            "ticks": 10932,
            "time": 100.477834,
            "value": 0.7401574803149606
          },
          {
            "number": 10,
            "ticks": 10944,
            "time": 100.588128,
            "value": 0.5039370078740157
          },
          {
            "number": 10,
            "ticks": 10968,
            "time": 100.808716,
            "value": 0.2677165354330709
          },
          {
            "number": 10,
            "ticks": 10980,
            "time": 100.91901,
            "value": 0.5039370078740157
          },
          {
            "number": 10,
            "ticks": 11016,
            "time": 101.249892,
            "value": 0.7401574803149606
          },
          {
            "number": 10,
            "ticks": 11028,
            "time": 101.360186,
            "value": 0.2677165354330709
          },
          {
            "number": 10,
            "ticks": 11040,
            "time": 101.47048,
            "value": 0.5039370078740157
          },
          {
            "number": 10,
            "ticks": 11052,
            "time": 101.580774,
            "value": 0.7401574803149606
          },
          {
            "number": 10,
            "ticks": 11064,
            "time": 101.691068,
            "value": 0.2677165354330709
          },
          {
            "number": 10,
            "ticks": 11076,
            "time": 101.801362,
            "value": 0.5039370078740157
          },
          {
            "number": 10,
            "ticks": 15048,
            "time": 138.308676,
            "value": 0.7401574803149606
          },
          {
            "number": 10,
            "ticks": 15060,
            "time": 138.41897,
            "value": 0.2677165354330709
          },
          {
            "number": 10,
            "ticks": 15072,
            "time": 138.529264,
            "value": 0.5039370078740157
          },
          {
            "number": 10,
            "ticks": 15096,
            "time": 138.749852,
            "value": 0.7401574803149606
          },
          {
            "number": 10,
            "ticks": 15108,
            "time": 138.86014600000001,
            "value": 0.2677165354330709
          },
          {
            "number": 10,
            "ticks": 15120,
            "time": 138.97044,
            "value": 0.5039370078740157
          },
          {
            "number": 10,
            "ticks": 15144,
            "time": 139.19102800000002,
            "value": 0.2677165354330709
          },
          {
            "number": 10,
            "ticks": 15156,
            "time": 139.301322,
            "value": 0.7401574803149606
          },
          {
            "number": 10,
            "ticks": 15168,
            "time": 139.411616,
            "value": 0.5039370078740157
          },
          {
            "number": 10,
            "ticks": 15192,
            "time": 139.632204,
            "value": 0.2677165354330709
          },
          {
            "number": 10,
            "ticks": 15204,
            "time": 139.742498,
            "value": 0.5039370078740157
          },
          {
            "number": 10,
            "ticks": 15240,
            "time": 140.07338000000001,
            "value": 0.7401574803149606
          },
          {
            "number": 10,
            "ticks": 15252,
            "time": 140.183674,
            "value": 0.2677165354330709
          },
          {
            "number": 10,
            "ticks": 15264,
            "time": 140.293968,
            "value": 0.5039370078740157
          },
          {
            "number": 10,
            "ticks": 15276,
            "time": 140.40426200000002,
            "value": 0.7401574803149606
          },
          {
            "number": 10,
            "ticks": 15288,
            "time": 140.514556,
            "value": 0.2677165354330709
          },
          {
            "number": 10,
            "ticks": 15300,
            "time": 140.62485,
            "value": 0.5039370078740157
          },
          {
            "number": 10,
            "ticks": 15312,
            "time": 140.735144,
            "value": 0.7401574803149606
          },
          {
            "number": 10,
            "ticks": 15324,
            "time": 140.845438,
            "value": 0.2677165354330709
          },
          {
            "number": 10,
            "ticks": 15336,
            "time": 140.955732,
            "value": 0.5039370078740157
          },
          {
            "number": 10,
            "ticks": 15348,
            "time": 141.066026,
            "value": 0.2677165354330709
          },
          {
            "number": 10,
            "ticks": 15360,
            "time": 141.17632,
            "value": 0.5039370078740157
          },
          {
            "number": 10,
            "ticks": 15372,
            "time": 141.28661400000001,
            "value": 0.2677165354330709
          },
          {
            "number": 10,
            "ticks": 15384,
            "time": 141.396908,
            "value": 0.7401574803149606
          },
          {
            "number": 10,
            "ticks": 15396,
            "time": 141.507202,
            "value": 0.5039370078740157
          },
          {
            "number": 10,
            "ticks": 15432,
            "time": 141.838084,
            "value": 0.7401574803149606
          },
          {
            "number": 10,
            "ticks": 15444,
            "time": 141.948378,
            "value": 0.2677165354330709
          },
          {
            "number": 10,
            "ticks": 15456,
            "time": 142.058672,
            "value": 0.5039370078740157
          },
          {
            "number": 10,
            "ticks": 15480,
            "time": 142.27926,
            "value": 0.7401574803149606
          },
          {
            "number": 10,
            "ticks": 15492,
            "time": 142.389554,
            "value": 0.2677165354330709
          },
          {
            "number": 10,
            "ticks": 15504,
            "time": 142.49984800000001,
            "value": 0.5039370078740157
          },
          {
            "number": 10,
            "ticks": 15528,
            "time": 142.720436,
            "value": 0.2677165354330709
          },
          {
            "number": 10,
            "ticks": 15540,
            "time": 142.83073000000002,
            "value": 0.7401574803149606
          },
          {
            "number": 10,
            "ticks": 15552,
            "time": 142.941024,
            "value": 0.5039370078740157
          },
          {
            "number": 10,
            "ticks": 15576,
            "time": 143.161612,
            "value": 0.2677165354330709
          },
          {
            "number": 10,
            "ticks": 15588,
            "time": 143.271906,
            "value": 0.5039370078740157
          },
          {
            "number": 10,
            "ticks": 15624,
            "time": 143.602788,
            "value": 0.7401574803149606
          },
          {
            "number": 10,
            "ticks": 15636,
            "time": 143.713082,
            "value": 0.2677165354330709
          },
          {
            "number": 10,
            "ticks": 15648,
            "time": 143.823376,
            "value": 0.5039370078740157
          },
          {
            "number": 10,
            "ticks": 15660,
            "time": 143.93367,
            "value": 0.7401574803149606
          },
          {
            "number": 10,
            "ticks": 15672,
            "time": 144.04396400000002,
            "value": 0.2677165354330709
          },
          {
            "number": 10,
            "ticks": 15684,
            "time": 144.154258,
            "value": 0.5039370078740157
          },
          {
            "number": 10,
            "ticks": 15696,
            "time": 144.264552,
            "value": 0.7401574803149606
          },
          {
            "number": 10,
            "ticks": 15708,
            "time": 144.374846,
            "value": 0.2677165354330709
          },
          {
            "number": 10,
            "ticks": 15720,
            "time": 144.48514,
            "value": 0.5039370078740157
          },
          {
            "number": 10,
            "ticks": 15732,
            "time": 144.595434,
            "value": 0.2677165354330709
          },
          {
            "number": 10,
            "ticks": 15744,
            "time": 144.705728,
            "value": 0.5039370078740157
          },
          {
            "number": 10,
            "ticks": 15756,
            "time": 144.816022,
            "value": 0.2677165354330709
          },
          {
            "number": 10,
            "ticks": 15768,
            "time": 144.926316,
            "value": 0.7401574803149606
          },
          {
            "number": 10,
            "ticks": 15780,
            "time": 145.03661,
            "value": 0.5039370078740157
          },
          {
            "number": 10,
            "ticks": 15816,
            "time": 145.367492,
            "value": 0.7401574803149606
          },
          {
            "number": 10,
            "ticks": 15828,
            "time": 145.477786,
            "value": 0.2677165354330709
          },
          {
            "number": 10,
            "ticks": 15840,
            "time": 145.58808,
            "value": 0.5039370078740157
          },
          {
            "number": 10,
            "ticks": 15864,
            "time": 145.808668,
            "value": 0.7401574803149606
          },
          {
            "number": 10,
            "ticks": 15876,
            "time": 145.918962,
            "value": 0.2677165354330709
          },
          {
            "number": 10,
            "ticks": 15888,
            "time": 146.029256,
            "value": 0.5039370078740157
          },
          {
            "number": 10,
            "ticks": 15912,
            "time": 146.249844,
            "value": 0.2677165354330709
          },
          {
            "number": 10,
            "ticks": 15924,
            "time": 146.360138,
            "value": 0.7401574803149606
          },
          {
            "number": 10,
            "ticks": 15936,
            "time": 146.47043200000002,
            "value": 0.5039370078740157
          },
          {
            "number": 10,
            "ticks": 15960,
            "time": 146.69102,
            "value": 0.2677165354330709
          },
          {
            "number": 10,
            "ticks": 15972,
            "time": 146.801314,
            "value": 0.5039370078740157
          },
          {
            "number": 10,
            "ticks": 16008,
            "time": 147.132196,
            "value": 0.7401574803149606
          },
          {
            "number": 10,
            "ticks": 16020,
            "time": 147.24249,
            "value": 0.2677165354330709
          },
          {
            "number": 10,
            "ticks": 16032,
            "time": 147.352784,
            "value": 0.5039370078740157
          },
          {
            "number": 10,
            "ticks": 16044,
            "time": 147.463078,
            "value": 0.7401574803149606
          },
          {
            "number": 10,
            "ticks": 16056,
            "time": 147.573372,
            "value": 0.2677165354330709
          },
          {
            "number": 10,
            "ticks": 16068,
            "time": 147.68366600000002,
            "value": 0.5039370078740157
          },
          {
            "number": 10,
            "ticks": 16080,
            "time": 147.79396,
            "value": 0.7401574803149606
          },
          {
            "number": 10,
            "ticks": 16092,
            "time": 147.904254,
            "value": 0.2677165354330709
          },
          {
            "number": 10,
            "ticks": 16104,
            "time": 148.014548,
            "value": 0.5039370078740157
          },
          {
            "number": 10,
            "ticks": 16116,
            "time": 148.124842,
            "value": 0.2677165354330709
          },
          {
            "number": 10,
            "ticks": 16128,
            "time": 148.235136,
            "value": 0.5039370078740157
          },
          {
            "number": 10,
            "ticks": 16140,
            "time": 148.34543,
            "value": 0.2677165354330709
          },
          {
            "number": 10,
            "ticks": 16152,
            "time": 148.455724,
            "value": 0.7401574803149606
          },
          {
            "number": 10,
            "ticks": 16164,
            "time": 148.566018,
            "value": 0.5039370078740157
          },
          {
            "number": 10,
            "ticks": 16200,
            "time": 148.89690000000002,
            "value": 0.7401574803149606
          },
          {
            "number": 10,
            "ticks": 16212,
            "time": 149.007194,
            "value": 0.2677165354330709
          },
          {
            "number": 10,
            "ticks": 16224,
            "time": 149.117488,
            "value": 0.5039370078740157
          },
          {
            "number": 10,
            "ticks": 16248,
            "time": 149.338076,
            "value": 0.7401574803149606
          },
          {
            "number": 10,
            "ticks": 16260,
            "time": 149.44837,
            "value": 0.2677165354330709
          },
          {
            "number": 10,
            "ticks": 16272,
            "time": 149.558664,
            "value": 0.5039370078740157
          },
          {
            "number": 10,
            "ticks": 16296,
            "time": 149.779252,
            "value": 0.2677165354330709
          },
          {
            "number": 10,
            "ticks": 16308,
            "time": 149.889546,
            "value": 0.7401574803149606
          },
          {
            "number": 10,
            "ticks": 16320,
            "time": 149.99984,
            "value": 0.5039370078740157
          },
          {
            "number": 10,
            "ticks": 16344,
            "time": 150.220428,
            "value": 0.2677165354330709
          },
          {
            "number": 10,
            "ticks": 16356,
            "time": 150.330722,
            "value": 0.5039370078740157
          },
          {
            "number": 10,
            "ticks": 16392,
            "time": 150.661604,
            "value": 0.7401574803149606
          },
          {
            "number": 10,
            "ticks": 16404,
            "time": 150.771898,
            "value": 0.2677165354330709
          },
          {
            "number": 10,
            "ticks": 16416,
            "time": 150.882192,
            "value": 0.5039370078740157
          },
          {
            "number": 10,
            "ticks": 16428,
            "time": 150.992486,
            "value": 0.7401574803149606
          },
          {
            "number": 10,
            "ticks": 16440,
            "time": 151.10278,
            "value": 0.2677165354330709
          },
          {
            "number": 10,
            "ticks": 16452,
            "time": 151.213074,
            "value": 0.5039370078740157
          },
          {
            "number": 10,
            "ticks": 16464,
            "time": 151.32336800000002,
            "value": 0.7401574803149606
          },
          {
            "number": 10,
            "ticks": 16476,
            "time": 151.433662,
            "value": 0.2677165354330709
          },
          {
            "number": 10,
            "ticks": 16488,
            "time": 151.543956,
            "value": 0.5039370078740157
          },
          {
            "number": 10,
            "ticks": 16500,
            "time": 151.65425,
            "value": 0.2677165354330709
          },
          {
            "number": 10,
            "ticks": 16512,
            "time": 151.764544,
            "value": 0.5039370078740157
          },
          {
            "number": 10,
            "ticks": 16524,
            "time": 151.874838,
            "value": 0.2677165354330709
          },
          {
            "number": 10,
            "ticks": 16536,
            "time": 151.985132,
            "value": 0.7401574803149606
          },
          {
            "number": 10,
            "ticks": 16548,
            "time": 152.095426,
            "value": 0.5039370078740157
          }
        ],
        "11": [
          {
            "number": 11,
            "ticks": 148,
            "time": 1.3602926666666668,
            "value": 0.6141732283464567
          },
          {
            "number": 11,
            "ticks": 4271,
            "time": 39.255472833333336,
            "value": 0.3937007874015748
          },
          {
            "number": 11,
            "ticks": 9646,
            "time": 88.65799366666666,
            "value": 0.6141732283464567
          },
          {
            "number": 11,
            "ticks": 11183,
            "time": 102.78481683333332,
            "value": 0.3937007874015748
          },
          {
            "number": 11,
            "ticks": 15022,
            "time": 138.0697056666667,
            "value": 0.7007874015748031
          }
        ],
        "71": [
          {
            "number": 71,
            "ticks": 168,
            "time": 1.544116,
            "value": 0.5039370078740157
          }
        ],
        "74": [
          {
            "number": 74,
            "ticks": 166,
            "time": 1.5257336666666668,
            "value": 0.5984251968503937
          }
        ],
        "91": [
          {
            "number": 91,
            "ticks": 151,
            "time": 1.3878661666666667,
            "value": 0.07874015748031496
          }
        ],
        "93": [
          {
            "number": 93,
            "ticks": 156,
            "time": 1.4338220000000002,
            "value": 0
          }
        ],
        "94": [
          {
            "number": 94,
            "ticks": 161,
            "time": 1.4797778333333333,
            "value": 0
          }
        ],
        "100": [
          {
            "number": 100,
            "ticks": 174,
            "time": 1.599263,
            "value": 0
          }
        ],
        "101": [
          {
            "number": 101,
            "ticks": 170,
            "time": 1.5624983333333333,
            "value": 0
          }
        ]
      },
      "pitchBends": [
        {
          "ticks": 2760,
          "time": 25.367620000000002,
          "value": -0.083251953125
        },
        {
          "ticks": 2761,
          "time": 25.376811166666666,
          "value": 0
        },
        {
          "ticks": 2796,
          "time": 25.698502,
          "value": -0.083251953125
        },
        {
          "ticks": 2797,
          "time": 25.70769316666667,
          "value": 0
        },
        {
          "ticks": 2832,
          "time": 26.029384000000004,
          "value": -0.0416259765625
        },
        {
          "ticks": 2833,
          "time": 26.038575166666668,
          "value": 0
        },
        {
          "ticks": 2868,
          "time": 26.360266000000003,
          "value": -0.083251953125
        },
        {
          "ticks": 2869,
          "time": 26.369457166666667,
          "value": 0
        },
        {
          "ticks": 2904,
          "time": 26.691148000000002,
          "value": -0.083251953125
        },
        {
          "ticks": 2905,
          "time": 26.700339166666666,
          "value": 0
        },
        {
          "ticks": 2952,
          "time": 27.132324000000004,
          "value": -0.083251953125
        },
        {
          "ticks": 2953,
          "time": 27.141515166666668,
          "value": 0
        },
        {
          "ticks": 2988,
          "time": 27.463206000000003,
          "value": -0.083251953125
        },
        {
          "ticks": 2989,
          "time": 27.472397166666667,
          "value": 0
        },
        {
          "ticks": 3024,
          "time": 27.794088000000002,
          "value": -0.0416259765625
        },
        {
          "ticks": 3025,
          "time": 27.803279166666666,
          "value": 0
        },
        {
          "ticks": 3060,
          "time": 28.12497,
          "value": -0.083251953125
        },
        {
          "ticks": 3061,
          "time": 28.13416116666667,
          "value": 0
        },
        {
          "ticks": 3096,
          "time": 28.455852000000004,
          "value": -0.083251953125
        },
        {
          "ticks": 3097,
          "time": 28.465043166666668,
          "value": 0
        },
        {
          "ticks": 3144,
          "time": 28.897028000000002,
          "value": -0.083251953125
        },
        {
          "ticks": 3145,
          "time": 28.906219166666666,
          "value": 0
        },
        {
          "ticks": 3180,
          "time": 29.22791,
          "value": -0.083251953125
        },
        {
          "ticks": 3181,
          "time": 29.23710116666667,
          "value": 0
        },
        {
          "ticks": 3216,
          "time": 29.558792000000004,
          "value": -0.0416259765625
        },
        {
          "ticks": 3217,
          "time": 29.567983166666668,
          "value": 0
        },
        {
          "ticks": 3252,
          "time": 29.889674000000003,
          "value": -0.083251953125
        },
        {
          "ticks": 3253,
          "time": 29.898865166666667,
          "value": 0
        },
        {
          "ticks": 3288,
          "time": 30.220556,
          "value": -0.083251953125
        },
        {
          "ticks": 3289,
          "time": 30.22974716666667,
          "value": 0
        },
        {
          "ticks": 3336,
          "time": 30.661732,
          "value": -0.083251953125
        },
        {
          "ticks": 3337,
          "time": 30.67092316666667,
          "value": 0
        },
        {
          "ticks": 3372,
          "time": 30.992614,
          "value": -0.083251953125
        },
        {
          "ticks": 3373,
          "time": 31.00180516666667,
          "value": 0
        },
        {
          "ticks": 3408,
          "time": 31.323496,
          "value": -0.0416259765625
        },
        {
          "ticks": 3409,
          "time": 31.33268716666667,
          "value": 0
        },
        {
          "ticks": 3444,
          "time": 31.654378,
          "value": -0.083251953125
        },
        {
          "ticks": 3445,
          "time": 31.663569166666672,
          "value": 0
        },
        {
          "ticks": 3480,
          "time": 31.98526,
          "value": -0.083251953125
        },
        {
          "ticks": 3481,
          "time": 31.99445116666667,
          "value": 0
        },
        {
          "ticks": 3528,
          "time": 32.426435999999995,
          "value": -0.083251953125
        },
        {
          "ticks": 3529,
          "time": 32.43562716666667,
          "value": 0
        },
        {
          "ticks": 3564,
          "time": 32.757318,
          "value": -0.083251953125
        },
        {
          "ticks": 3565,
          "time": 32.766509166666665,
          "value": 0
        },
        {
          "ticks": 3600,
          "time": 33.0882,
          "value": -0.0416259765625
        },
        {
          "ticks": 3601,
          "time": 33.09739116666667,
          "value": 0
        },
        {
          "ticks": 3636,
          "time": 33.419081999999996,
          "value": -0.083251953125
        },
        {
          "ticks": 3637,
          "time": 33.42827316666667,
          "value": 0
        },
        {
          "ticks": 3672,
          "time": 33.749964,
          "value": -0.083251953125
        },
        {
          "ticks": 3673,
          "time": 33.75915516666667,
          "value": 0
        },
        {
          "ticks": 3720,
          "time": 34.19114,
          "value": -0.083251953125
        },
        {
          "ticks": 3721,
          "time": 34.20033116666667,
          "value": 0
        },
        {
          "ticks": 3756,
          "time": 34.522022,
          "value": -0.083251953125
        },
        {
          "ticks": 3757,
          "time": 34.53121316666667,
          "value": 0
        },
        {
          "ticks": 3792,
          "time": 34.852904,
          "value": -0.0416259765625
        },
        {
          "ticks": 3793,
          "time": 34.86209516666667,
          "value": 0
        },
        {
          "ticks": 3828,
          "time": 35.183786,
          "value": -0.083251953125
        },
        {
          "ticks": 3829,
          "time": 35.19297716666667,
          "value": 0
        },
        {
          "ticks": 3864,
          "time": 35.514668,
          "value": -0.083251953125
        },
        {
          "ticks": 3865,
          "time": 35.52385916666667,
          "value": 0
        },
        {
          "ticks": 3912,
          "time": 35.955844,
          "value": -0.083251953125
        },
        {
          "ticks": 3913,
          "time": 35.965035166666674,
          "value": 0
        },
        {
          "ticks": 3948,
          "time": 36.286726,
          "value": -0.083251953125
        },
        {
          "ticks": 3949,
          "time": 36.29591716666667,
          "value": 0
        },
        {
          "ticks": 3984,
          "time": 36.617608,
          "value": -0.0416259765625
        },
        {
          "ticks": 3985,
          "time": 36.62679916666667,
          "value": 0
        },
        {
          "ticks": 4020,
          "time": 36.94849,
          "value": -0.083251953125
        },
        {
          "ticks": 4021,
          "time": 36.957681166666674,
          "value": 0
        },
        {
          "ticks": 4056,
          "time": 37.279372,
          "value": -0.083251953125
        },
        {
          "ticks": 4057,
          "time": 37.28856316666667,
          "value": 0
        },
        {
          "ticks": 4104,
          "time": 37.720548,
          "value": -0.083251953125
        },
        {
          "ticks": 4105,
          "time": 37.72973916666667,
          "value": 0
        },
        {
          "ticks": 4140,
          "time": 38.05143,
          "value": -0.083251953125
        },
        {
          "ticks": 4141,
          "time": 38.06062116666667,
          "value": 0
        },
        {
          "ticks": 4164,
          "time": 38.272018,
          "value": -0.083251953125
        },
        {
          "ticks": 4165,
          "time": 38.28120916666667,
          "value": 0
        },
        {
          "ticks": 4296,
          "time": 39.485252,
          "value": -0.083251953125
        },
        {
          "ticks": 4297,
          "time": 39.49444316666667,
          "value": 0
        },
        {
          "ticks": 4332,
          "time": 39.816134,
          "value": -0.083251953125
        },
        {
          "ticks": 4333,
          "time": 39.82532516666667,
          "value": 0
        },
        {
          "ticks": 4368,
          "time": 40.147016,
          "value": -0.0416259765625
        },
        {
          "ticks": 4369,
          "time": 40.15620716666667,
          "value": 0
        },
        {
          "ticks": 4404,
          "time": 40.477898,
          "value": -0.083251953125
        },
        {
          "ticks": 4405,
          "time": 40.48708916666667,
          "value": 0
        },
        {
          "ticks": 4440,
          "time": 40.80878,
          "value": -0.083251953125
        },
        {
          "ticks": 4441,
          "time": 40.81797116666667,
          "value": 0
        },
        {
          "ticks": 4488,
          "time": 41.249956,
          "value": -0.083251953125
        },
        {
          "ticks": 4489,
          "time": 41.25914716666667,
          "value": 0
        },
        {
          "ticks": 4524,
          "time": 41.580838,
          "value": -0.083251953125
        },
        {
          "ticks": 4525,
          "time": 41.59002916666667,
          "value": 0
        },
        {
          "ticks": 4560,
          "time": 41.91172,
          "value": -0.0416259765625
        },
        {
          "ticks": 4561,
          "time": 41.92091116666667,
          "value": 0
        },
        {
          "ticks": 4596,
          "time": 42.242602,
          "value": -0.083251953125
        },
        {
          "ticks": 4597,
          "time": 42.25179316666667,
          "value": 0
        },
        {
          "ticks": 4632,
          "time": 42.573484,
          "value": -0.083251953125
        },
        {
          "ticks": 4633,
          "time": 42.58267516666667,
          "value": 0
        },
        {
          "ticks": 4680,
          "time": 43.01466,
          "value": -0.083251953125
        },
        {
          "ticks": 4681,
          "time": 43.023851166666674,
          "value": 0
        },
        {
          "ticks": 4716,
          "time": 43.345542,
          "value": -0.083251953125
        },
        {
          "ticks": 4717,
          "time": 43.35473316666667,
          "value": 0
        },
        {
          "ticks": 4752,
          "time": 43.676424,
          "value": -0.0416259765625
        },
        {
          "ticks": 4753,
          "time": 43.68561516666667,
          "value": 0
        },
        {
          "ticks": 4788,
          "time": 44.007306,
          "value": -0.083251953125
        },
        {
          "ticks": 4789,
          "time": 44.016497166666674,
          "value": 0
        },
        {
          "ticks": 4824,
          "time": 44.338188,
          "value": -0.083251953125
        },
        {
          "ticks": 4825,
          "time": 44.34737916666667,
          "value": 0
        },
        {
          "ticks": 4872,
          "time": 44.779364,
          "value": -0.083251953125
        },
        {
          "ticks": 4873,
          "time": 44.78855516666667,
          "value": 0
        },
        {
          "ticks": 4908,
          "time": 45.110246000000004,
          "value": -0.083251953125
        },
        {
          "ticks": 4909,
          "time": 45.11943716666667,
          "value": 0
        },
        {
          "ticks": 4944,
          "time": 45.441128,
          "value": -0.0416259765625
        },
        {
          "ticks": 4945,
          "time": 45.450319166666674,
          "value": 0
        },
        {
          "ticks": 4980,
          "time": 45.77201,
          "value": -0.083251953125
        },
        {
          "ticks": 4981,
          "time": 45.78120116666667,
          "value": 0
        },
        {
          "ticks": 5016,
          "time": 46.102892,
          "value": -0.083251953125
        },
        {
          "ticks": 5017,
          "time": 46.11208316666667,
          "value": 0
        },
        {
          "ticks": 5064,
          "time": 46.544068,
          "value": -0.083251953125
        },
        {
          "ticks": 5065,
          "time": 46.55325916666667,
          "value": 0
        },
        {
          "ticks": 5100,
          "time": 46.87495,
          "value": -0.083251953125
        },
        {
          "ticks": 5101,
          "time": 46.88414116666667,
          "value": 0
        },
        {
          "ticks": 5136,
          "time": 47.205832,
          "value": -0.0416259765625
        },
        {
          "ticks": 5137,
          "time": 47.21502316666667,
          "value": 0
        },
        {
          "ticks": 5172,
          "time": 47.536714,
          "value": -0.083251953125
        },
        {
          "ticks": 5173,
          "time": 47.54590516666667,
          "value": 0
        },
        {
          "ticks": 5208,
          "time": 47.867596,
          "value": -0.083251953125
        },
        {
          "ticks": 5209,
          "time": 47.876787166666674,
          "value": 0
        },
        {
          "ticks": 5256,
          "time": 48.308772,
          "value": -0.083251953125
        },
        {
          "ticks": 5257,
          "time": 48.31796316666667,
          "value": 0
        },
        {
          "ticks": 5292,
          "time": 48.639654,
          "value": -0.083251953125
        },
        {
          "ticks": 5293,
          "time": 48.64884516666667,
          "value": 0
        },
        {
          "ticks": 5328,
          "time": 48.970536,
          "value": -0.0416259765625
        },
        {
          "ticks": 5329,
          "time": 48.97972716666667,
          "value": 0
        },
        {
          "ticks": 5364,
          "time": 49.301418,
          "value": -0.083251953125
        },
        {
          "ticks": 5365,
          "time": 49.31060916666667,
          "value": 0
        },
        {
          "ticks": 5400,
          "time": 49.6323,
          "value": -0.083251953125
        },
        {
          "ticks": 5401,
          "time": 49.64149116666667,
          "value": 0
        },
        {
          "ticks": 5448,
          "time": 50.073476,
          "value": -0.083251953125
        },
        {
          "ticks": 5449,
          "time": 50.082667166666674,
          "value": 0
        },
        {
          "ticks": 5484,
          "time": 50.404358,
          "value": -0.083251953125
        },
        {
          "ticks": 5485,
          "time": 50.41354916666667,
          "value": 0
        },
        {
          "ticks": 5520,
          "time": 50.73524,
          "value": -0.0416259765625
        },
        {
          "ticks": 5521,
          "time": 50.74443116666667,
          "value": 0
        },
        {
          "ticks": 5556,
          "time": 51.066122,
          "value": -0.083251953125
        },
        {
          "ticks": 5557,
          "time": 51.075313166666675,
          "value": 0
        },
        {
          "ticks": 5592,
          "time": 51.397004,
          "value": -0.083251953125
        },
        {
          "ticks": 5593,
          "time": 51.40619516666667,
          "value": 0
        },
        {
          "ticks": 5640,
          "time": 51.83818,
          "value": -0.083251953125
        },
        {
          "ticks": 5641,
          "time": 51.84737116666667,
          "value": 0
        },
        {
          "ticks": 5676,
          "time": 52.169062000000004,
          "value": -0.083251953125
        },
        {
          "ticks": 5677,
          "time": 52.17825316666667,
          "value": 0
        },
        {
          "ticks": 5712,
          "time": 52.499944,
          "value": -0.0416259765625
        },
        {
          "ticks": 5713,
          "time": 52.509135166666674,
          "value": 0
        },
        {
          "ticks": 5748,
          "time": 52.830826,
          "value": -0.083251953125
        },
        {
          "ticks": 5749,
          "time": 52.84001716666667,
          "value": 0
        },
        {
          "ticks": 5784,
          "time": 53.161708,
          "value": -0.083251953125
        },
        {
          "ticks": 5785,
          "time": 53.17089916666667,
          "value": 0
        },
        {
          "ticks": 9672,
          "time": 88.896964,
          "value": -0.083251953125
        },
        {
          "ticks": 9673,
          "time": 88.90615516666666,
          "value": 0
        },
        {
          "ticks": 9708,
          "time": 89.227846,
          "value": -0.083251953125
        },
        {
          "ticks": 9709,
          "time": 89.23703716666665,
          "value": 0
        },
        {
          "ticks": 9744,
          "time": 89.558728,
          "value": -0.0416259765625
        },
        {
          "ticks": 9745,
          "time": 89.56791916666666,
          "value": 0
        },
        {
          "ticks": 9780,
          "time": 89.88961,
          "value": -0.083251953125
        },
        {
          "ticks": 9781,
          "time": 89.89880116666666,
          "value": 0
        },
        {
          "ticks": 9816,
          "time": 90.22049200000001,
          "value": -0.083251953125
        },
        {
          "ticks": 9817,
          "time": 90.22968316666666,
          "value": 0
        },
        {
          "ticks": 9864,
          "time": 90.661668,
          "value": -0.083251953125
        },
        {
          "ticks": 9865,
          "time": 90.67085916666666,
          "value": 0
        },
        {
          "ticks": 9900,
          "time": 90.99255,
          "value": -0.083251953125
        },
        {
          "ticks": 9901,
          "time": 91.00174116666666,
          "value": 0
        },
        {
          "ticks": 9936,
          "time": 91.323432,
          "value": -0.0416259765625
        },
        {
          "ticks": 9937,
          "time": 91.33262316666666,
          "value": 0
        },
        {
          "ticks": 9972,
          "time": 91.654314,
          "value": -0.083251953125
        },
        {
          "ticks": 9973,
          "time": 91.66350516666665,
          "value": 0
        },
        {
          "ticks": 10008,
          "time": 91.985196,
          "value": -0.083251953125
        },
        {
          "ticks": 10009,
          "time": 91.99438716666666,
          "value": 0
        },
        {
          "ticks": 10056,
          "time": 92.426372,
          "value": -0.083251953125
        },
        {
          "ticks": 10057,
          "time": 92.43556316666665,
          "value": 0
        },
        {
          "ticks": 10092,
          "time": 92.757254,
          "value": -0.083251953125
        },
        {
          "ticks": 10093,
          "time": 92.76644516666666,
          "value": 0
        },
        {
          "ticks": 10128,
          "time": 93.088136,
          "value": -0.0416259765625
        },
        {
          "ticks": 10129,
          "time": 93.09732716666666,
          "value": 0
        },
        {
          "ticks": 10164,
          "time": 93.419018,
          "value": -0.083251953125
        },
        {
          "ticks": 10165,
          "time": 93.42820916666666,
          "value": 0
        },
        {
          "ticks": 10200,
          "time": 93.7499,
          "value": -0.083251953125
        },
        {
          "ticks": 10201,
          "time": 93.75909116666666,
          "value": 0
        },
        {
          "ticks": 10248,
          "time": 94.191076,
          "value": -0.083251953125
        },
        {
          "ticks": 10249,
          "time": 94.20026716666666,
          "value": 0
        },
        {
          "ticks": 10284,
          "time": 94.521958,
          "value": -0.083251953125
        },
        {
          "ticks": 10285,
          "time": 94.53114916666667,
          "value": 0
        },
        {
          "ticks": 10320,
          "time": 94.85284,
          "value": -0.0416259765625
        },
        {
          "ticks": 10321,
          "time": 94.86203116666665,
          "value": 0
        },
        {
          "ticks": 10356,
          "time": 95.183722,
          "value": -0.083251953125
        },
        {
          "ticks": 10357,
          "time": 95.19291316666666,
          "value": 0
        },
        {
          "ticks": 10392,
          "time": 95.514604,
          "value": -0.083251953125
        },
        {
          "ticks": 10393,
          "time": 95.52379516666666,
          "value": 0
        },
        {
          "ticks": 10440,
          "time": 95.95578,
          "value": -0.083251953125
        },
        {
          "ticks": 10441,
          "time": 95.96497116666666,
          "value": 0
        },
        {
          "ticks": 10476,
          "time": 96.286662,
          "value": -0.083251953125
        },
        {
          "ticks": 10477,
          "time": 96.29585316666666,
          "value": 0
        },
        {
          "ticks": 10512,
          "time": 96.617544,
          "value": -0.0416259765625
        },
        {
          "ticks": 10513,
          "time": 96.62673516666666,
          "value": 0
        },
        {
          "ticks": 10548,
          "time": 96.948426,
          "value": -0.083251953125
        },
        {
          "ticks": 10549,
          "time": 96.95761716666667,
          "value": 0
        },
        {
          "ticks": 10584,
          "time": 97.279308,
          "value": -0.083251953125
        },
        {
          "ticks": 10585,
          "time": 97.28849916666665,
          "value": 0
        },
        {
          "ticks": 10632,
          "time": 97.720484,
          "value": -0.083251953125
        },
        {
          "ticks": 10633,
          "time": 97.72967516666665,
          "value": 0
        },
        {
          "ticks": 10668,
          "time": 98.051366,
          "value": -0.083251953125
        },
        {
          "ticks": 10669,
          "time": 98.06055716666665,
          "value": 0
        },
        {
          "ticks": 10704,
          "time": 98.382248,
          "value": -0.0416259765625
        },
        {
          "ticks": 10705,
          "time": 98.39143916666666,
          "value": 0
        },
        {
          "ticks": 10740,
          "time": 98.71313,
          "value": -0.083251953125
        },
        {
          "ticks": 10741,
          "time": 98.72232116666666,
          "value": 0
        },
        {
          "ticks": 10776,
          "time": 99.044012,
          "value": -0.083251953125
        },
        {
          "ticks": 10777,
          "time": 99.05320316666666,
          "value": 0
        },
        {
          "ticks": 10824,
          "time": 99.485188,
          "value": -0.083251953125
        },
        {
          "ticks": 10825,
          "time": 99.49437916666666,
          "value": 0
        },
        {
          "ticks": 10860,
          "time": 99.81607,
          "value": -0.083251953125
        },
        {
          "ticks": 10861,
          "time": 99.82526116666666,
          "value": 0
        },
        {
          "ticks": 10896,
          "time": 100.146952,
          "value": -0.0416259765625
        },
        {
          "ticks": 10897,
          "time": 100.15614316666665,
          "value": 0
        },
        {
          "ticks": 10932,
          "time": 100.477834,
          "value": -0.083251953125
        },
        {
          "ticks": 10933,
          "time": 100.48702516666665,
          "value": 0
        },
        {
          "ticks": 10968,
          "time": 100.808716,
          "value": -0.083251953125
        },
        {
          "ticks": 10969,
          "time": 100.81790716666666,
          "value": 0
        },
        {
          "ticks": 11016,
          "time": 101.249892,
          "value": -0.083251953125
        },
        {
          "ticks": 11017,
          "time": 101.25908316666666,
          "value": 0
        },
        {
          "ticks": 11052,
          "time": 101.580774,
          "value": -0.083251953125
        },
        {
          "ticks": 11053,
          "time": 101.58996516666666,
          "value": 0
        },
        {
          "ticks": 11076,
          "time": 101.801362,
          "value": -0.083251953125
        },
        {
          "ticks": 11077,
          "time": 101.81055316666666,
          "value": 0
        },
        {
          "ticks": 15048,
          "time": 138.308676,
          "value": -0.083251953125
        },
        {
          "ticks": 15049,
          "time": 138.31786716666667,
          "value": 0
        },
        {
          "ticks": 15084,
          "time": 138.639558,
          "value": -0.083251953125
        },
        {
          "ticks": 15085,
          "time": 138.64874916666668,
          "value": 0
        },
        {
          "ticks": 15120,
          "time": 138.97044,
          "value": -0.0416259765625
        },
        {
          "ticks": 15121,
          "time": 138.97963116666668,
          "value": 0
        },
        {
          "ticks": 15156,
          "time": 139.301322,
          "value": -0.083251953125
        },
        {
          "ticks": 15157,
          "time": 139.31051316666668,
          "value": 0
        },
        {
          "ticks": 15192,
          "time": 139.632204,
          "value": -0.083251953125
        },
        {
          "ticks": 15193,
          "time": 139.64139516666668,
          "value": 0
        },
        {
          "ticks": 15240,
          "time": 140.07338000000001,
          "value": -0.083251953125
        },
        {
          "ticks": 15241,
          "time": 140.0825711666667,
          "value": 0
        },
        {
          "ticks": 15276,
          "time": 140.40426200000002,
          "value": -0.083251953125
        },
        {
          "ticks": 15277,
          "time": 140.4134531666667,
          "value": 0
        },
        {
          "ticks": 15312,
          "time": 140.735144,
          "value": -0.0416259765625
        },
        {
          "ticks": 15313,
          "time": 140.74433516666667,
          "value": 0
        },
        {
          "ticks": 15348,
          "time": 141.066026,
          "value": -0.083251953125
        },
        {
          "ticks": 15349,
          "time": 141.07521716666668,
          "value": 0
        },
        {
          "ticks": 15384,
          "time": 141.396908,
          "value": -0.083251953125
        },
        {
          "ticks": 15385,
          "time": 141.40609916666668,
          "value": 0
        },
        {
          "ticks": 15432,
          "time": 141.838084,
          "value": -0.083251953125
        },
        {
          "ticks": 15433,
          "time": 141.8472751666667,
          "value": 0
        },
        {
          "ticks": 15468,
          "time": 142.168966,
          "value": -0.083251953125
        },
        {
          "ticks": 15469,
          "time": 142.1781571666667,
          "value": 0
        },
        {
          "ticks": 15504,
          "time": 142.49984800000001,
          "value": -0.0416259765625
        },
        {
          "ticks": 15505,
          "time": 142.5090391666667,
          "value": 0
        },
        {
          "ticks": 15540,
          "time": 142.83073000000002,
          "value": -0.083251953125
        },
        {
          "ticks": 15541,
          "time": 142.8399211666667,
          "value": 0
        },
        {
          "ticks": 15576,
          "time": 143.161612,
          "value": -0.083251953125
        },
        {
          "ticks": 15577,
          "time": 143.1708031666667,
          "value": 0
        },
        {
          "ticks": 15624,
          "time": 143.602788,
          "value": -0.083251953125
        },
        {
          "ticks": 15625,
          "time": 143.61197916666669,
          "value": 0
        },
        {
          "ticks": 15660,
          "time": 143.93367,
          "value": -0.083251953125
        },
        {
          "ticks": 15661,
          "time": 143.9428611666667,
          "value": 0
        },
        {
          "ticks": 15696,
          "time": 144.264552,
          "value": -0.0416259765625
        },
        {
          "ticks": 15697,
          "time": 144.2737431666667,
          "value": 0
        },
        {
          "ticks": 15732,
          "time": 144.595434,
          "value": -0.083251953125
        },
        {
          "ticks": 15733,
          "time": 144.6046251666667,
          "value": 0
        },
        {
          "ticks": 15768,
          "time": 144.926316,
          "value": -0.083251953125
        },
        {
          "ticks": 15769,
          "time": 144.9355071666667,
          "value": 0
        },
        {
          "ticks": 15816,
          "time": 145.367492,
          "value": -0.083251953125
        },
        {
          "ticks": 15817,
          "time": 145.37668316666668,
          "value": 0
        },
        {
          "ticks": 15852,
          "time": 145.698374,
          "value": -0.083251953125
        },
        {
          "ticks": 15853,
          "time": 145.70756516666668,
          "value": 0
        },
        {
          "ticks": 15888,
          "time": 146.029256,
          "value": -0.0416259765625
        },
        {
          "ticks": 15889,
          "time": 146.03844716666669,
          "value": 0
        },
        {
          "ticks": 15924,
          "time": 146.360138,
          "value": -0.083251953125
        },
        {
          "ticks": 15925,
          "time": 146.3693291666667,
          "value": 0
        },
        {
          "ticks": 15960,
          "time": 146.69102,
          "value": -0.083251953125
        },
        {
          "ticks": 15961,
          "time": 146.7002111666667,
          "value": 0
        },
        {
          "ticks": 16008,
          "time": 147.132196,
          "value": -0.083251953125
        },
        {
          "ticks": 16009,
          "time": 147.14138716666668,
          "value": 0
        },
        {
          "ticks": 16044,
          "time": 147.463078,
          "value": -0.083251953125
        },
        {
          "ticks": 16045,
          "time": 147.47226916666668,
          "value": 0
        },
        {
          "ticks": 16080,
          "time": 147.79396,
          "value": -0.0416259765625
        },
        {
          "ticks": 16081,
          "time": 147.80315116666668,
          "value": 0
        },
        {
          "ticks": 16116,
          "time": 148.124842,
          "value": -0.083251953125
        },
        {
          "ticks": 16117,
          "time": 148.13403316666668,
          "value": 0
        },
        {
          "ticks": 16152,
          "time": 148.455724,
          "value": -0.083251953125
        },
        {
          "ticks": 16153,
          "time": 148.46491516666669,
          "value": 0
        },
        {
          "ticks": 16200,
          "time": 148.89690000000002,
          "value": -0.083251953125
        },
        {
          "ticks": 16201,
          "time": 148.9060911666667,
          "value": 0
        },
        {
          "ticks": 16236,
          "time": 149.227782,
          "value": -0.083251953125
        },
        {
          "ticks": 16237,
          "time": 149.2369731666667,
          "value": 0
        },
        {
          "ticks": 16272,
          "time": 149.558664,
          "value": -0.0416259765625
        },
        {
          "ticks": 16273,
          "time": 149.56785516666667,
          "value": 0
        },
        {
          "ticks": 16308,
          "time": 149.889546,
          "value": -0.083251953125
        },
        {
          "ticks": 16309,
          "time": 149.89873716666668,
          "value": 0
        },
        {
          "ticks": 16344,
          "time": 150.220428,
          "value": -0.083251953125
        },
        {
          "ticks": 16345,
          "time": 150.22961916666668,
          "value": 0
        },
        {
          "ticks": 16392,
          "time": 150.661604,
          "value": -0.083251953125
        },
        {
          "ticks": 16393,
          "time": 150.6707951666667,
          "value": 0
        },
        {
          "ticks": 16428,
          "time": 150.992486,
          "value": -0.083251953125
        },
        {
          "ticks": 16429,
          "time": 151.0016771666667,
          "value": 0
        },
        {
          "ticks": 16464,
          "time": 151.32336800000002,
          "value": -0.0416259765625
        },
        {
          "ticks": 16465,
          "time": 151.3325591666667,
          "value": 0
        },
        {
          "ticks": 16500,
          "time": 151.65425,
          "value": -0.083251953125
        },
        {
          "ticks": 16501,
          "time": 151.6634411666667,
          "value": 0
        },
        {
          "ticks": 16536,
          "time": 151.985132,
          "value": -0.083251953125
        },
        {
          "ticks": 16537,
          "time": 151.99432316666667,
          "value": 0
        }
      ],
      "instrument": {
        "family": "synth lead",
        "number": 87,
        "name": "lead 8 (bass + lead)"
      },
      "name": "",
      "notes": [
        {
          "duration": 0.10110283333333214,
          "durationTicks": 11,
          "midi": 68,
          "name": "G#4",
          "ticks": 2736,
          "time": 25.147032000000003,
          "velocity": 0.7795275590551181
        },
        {
          "duration": 0.10110283333333214,
          "durationTicks": 11,
          "midi": 68,
          "name": "G#4",
          "ticks": 2748,
          "time": 25.257326000000003,
          "velocity": 0.7795275590551181
        },
        {
          "duration": 0.10110283333333214,
          "durationTicks": 11,
          "midi": 77,
          "name": "F5",
          "ticks": 2760,
          "time": 25.367620000000002,
          "velocity": 0.7795275590551181
        },
        {
          "duration": 0.10110283333333214,
          "durationTicks": 11,
          "midi": 68,
          "name": "G#4",
          "ticks": 2772,
          "time": 25.477914000000002,
          "velocity": 0.7795275590551181
        },
        {
          "duration": 0.10110283333333214,
          "durationTicks": 11,
          "midi": 68,
          "name": "G#4",
          "ticks": 2784,
          "time": 25.588208,
          "velocity": 0.7795275590551181
        },
        {
          "duration": 0.10110283333333214,
          "durationTicks": 11,
          "midi": 75,
          "name": "D#5",
          "ticks": 2796,
          "time": 25.698502,
          "velocity": 0.7795275590551181
        },
        {
          "duration": 0.1011028333333357,
          "durationTicks": 11,
          "midi": 68,
          "name": "G#4",
          "ticks": 2808,
          "time": 25.808796,
          "velocity": 0.7795275590551181
        },
        {
          "duration": 0.10110283333333214,
          "durationTicks": 11,
          "midi": 68,
          "name": "G#4",
          "ticks": 2820,
          "time": 25.919090000000004,
          "velocity": 0.7795275590551181
        },
        {
          "duration": 0.10110283333333214,
          "durationTicks": 11,
          "midi": 70,
          "name": "A#4",
          "ticks": 2832,
          "time": 26.029384000000004,
          "velocity": 0.7795275590551181
        },
        {
          "duration": 0.10110283333333214,
          "durationTicks": 11,
          "midi": 68,
          "name": "G#4",
          "ticks": 2844,
          "time": 26.139678000000004,
          "velocity": 0.7795275590551181
        },
        {
          "duration": 0.10110283333333214,
          "durationTicks": 11,
          "midi": 68,
          "name": "G#4",
          "ticks": 2856,
          "time": 26.249972000000003,
          "velocity": 0.7795275590551181
        },
        {
          "duration": 0.10110283333333214,
          "durationTicks": 11,
          "midi": 75,
          "name": "D#5",
          "ticks": 2868,
          "time": 26.360266000000003,
          "velocity": 0.7795275590551181
        },
        {
          "duration": 0.10110283333333214,
          "durationTicks": 11,
          "midi": 68,
          "name": "G#4",
          "ticks": 2880,
          "time": 26.470560000000003,
          "velocity": 0.7795275590551181
        },
        {
          "duration": 0.10110283333333214,
          "durationTicks": 11,
          "midi": 68,
          "name": "G#4",
          "ticks": 2892,
          "time": 26.580854000000002,
          "velocity": 0.7795275590551181
        },
        {
          "duration": 0.10110283333333214,
          "durationTicks": 11,
          "midi": 75,
          "name": "D#5",
          "ticks": 2904,
          "time": 26.691148000000002,
          "velocity": 0.7795275590551181
        },
        {
          "duration": 0.10110283333333214,
          "durationTicks": 11,
          "midi": 77,
          "name": "F5",
          "ticks": 2916,
          "time": 26.801442,
          "velocity": 0.7795275590551181
        },
        {
          "duration": 0.10110283333333214,
          "durationTicks": 11,
          "midi": 68,
          "name": "G#4",
          "ticks": 2928,
          "time": 26.911736,
          "velocity": 0.7795275590551181
        },
        {
          "duration": 0.10110283333333214,
          "durationTicks": 11,
          "midi": 68,
          "name": "G#4",
          "ticks": 2940,
          "time": 27.022030000000004,
          "velocity": 0.7795275590551181
        },
        {
          "duration": 0.10110283333333214,
          "durationTicks": 11,
          "midi": 77,
          "name": "F5",
          "ticks": 2952,
          "time": 27.132324000000004,
          "velocity": 0.7795275590551181
        },
        {
          "duration": 0.10110283333333214,
          "durationTicks": 11,
          "midi": 68,
          "name": "G#4",
          "ticks": 2964,
          "time": 27.242618000000004,
          "velocity": 0.7795275590551181
        },
        {
          "duration": 0.10110283333333214,
          "durationTicks": 11,
          "midi": 68,
          "name": "G#4",
          "ticks": 2976,
          "time": 27.352912000000003,
          "velocity": 0.7795275590551181
        },
        {
          "duration": 0.10110283333333214,
          "durationTicks": 11,
          "midi": 75,
          "name": "D#5",
          "ticks": 2988,
          "time": 27.463206000000003,
          "velocity": 0.7795275590551181
        },
        {
          "duration": 0.10110283333333214,
          "durationTicks": 11,
          "midi": 68,
          "name": "G#4",
          "ticks": 3000,
          "time": 27.573500000000003,
          "velocity": 0.7795275590551181
        },
        {
          "duration": 0.10110283333333214,
          "durationTicks": 11,
          "midi": 68,
          "name": "G#4",
          "ticks": 3012,
          "time": 27.683794000000002,
          "velocity": 0.7795275590551181
        },
        {
          "duration": 0.10110283333333214,
          "durationTicks": 11,
          "midi": 70,
          "name": "A#4",
          "ticks": 3024,
          "time": 27.794088000000002,
          "velocity": 0.7795275590551181
        },
        {
          "duration": 0.10110283333333214,
          "durationTicks": 11,
          "midi": 68,
          "name": "G#4",
          "ticks": 3036,
          "time": 27.904382000000002,
          "velocity": 0.7795275590551181
        },
        {
          "duration": 0.10110283333333214,
          "durationTicks": 11,
          "midi": 68,
          "name": "G#4",
          "ticks": 3048,
          "time": 28.014676,
          "velocity": 0.7795275590551181
        },
        {
          "duration": 0.10110283333333214,
          "durationTicks": 11,
          "midi": 75,
          "name": "D#5",
          "ticks": 3060,
          "time": 28.12497,
          "velocity": 0.7795275590551181
        },
        {
          "duration": 0.10110283333333214,
          "durationTicks": 11,
          "midi": 68,
          "name": "G#4",
          "ticks": 3072,
          "time": 28.235264000000004,
          "velocity": 0.7795275590551181
        },
        {
          "duration": 0.10110283333333214,
          "durationTicks": 11,
          "midi": 68,
          "name": "G#4",
          "ticks": 3084,
          "time": 28.345558000000004,
          "velocity": 0.7795275590551181
        },
        {
          "duration": 0.10110283333333214,
          "durationTicks": 11,
          "midi": 75,
          "name": "D#5",
          "ticks": 3096,
          "time": 28.455852000000004,
          "velocity": 0.7795275590551181
        },
        {
          "duration": 0.10110283333333214,
          "durationTicks": 11,
          "midi": 77,
          "name": "F5",
          "ticks": 3108,
          "time": 28.566146000000003,
          "velocity": 0.7795275590551181
        },
        {
          "duration": 0.10110283333333214,
          "durationTicks": 11,
          "midi": 68,
          "name": "G#4",
          "ticks": 3120,
          "time": 28.676440000000003,
          "velocity": 0.7795275590551181
        },
        {
          "duration": 0.10110283333333214,
          "durationTicks": 11,
          "midi": 68,
          "name": "G#4",
          "ticks": 3132,
          "time": 28.786734000000003,
          "velocity": 0.7795275590551181
        },
        {
          "duration": 0.10110283333333214,
          "durationTicks": 11,
          "midi": 77,
          "name": "F5",
          "ticks": 3144,
          "time": 28.897028000000002,
          "velocity": 0.7795275590551181
        },
        {
          "duration": 0.10110283333333214,
          "durationTicks": 11,
          "midi": 68,
          "name": "G#4",
          "ticks": 3156,
          "time": 29.007322000000002,
          "velocity": 0.7795275590551181
        },
        {
          "duration": 0.10110283333333214,
          "durationTicks": 11,
          "midi": 68,
          "name": "G#4",
          "ticks": 3168,
          "time": 29.117616,
          "velocity": 0.7795275590551181
        },
        {
          "duration": 0.10110283333333214,
          "durationTicks": 11,
          "midi": 75,
          "name": "D#5",
          "ticks": 3180,
          "time": 29.22791,
          "velocity": 0.7795275590551181
        },
        {
          "duration": 0.1011028333333357,
          "durationTicks": 11,
          "midi": 68,
          "name": "G#4",
          "ticks": 3192,
          "time": 29.338204,
          "velocity": 0.7795275590551181
        },
        {
          "duration": 0.10110283333333214,
          "durationTicks": 11,
          "midi": 68,
          "name": "G#4",
          "ticks": 3204,
          "time": 29.448498000000004,
          "velocity": 0.7795275590551181
        },
        {
          "duration": 0.10110283333333214,
          "durationTicks": 11,
          "midi": 70,
          "name": "A#4",
          "ticks": 3216,
          "time": 29.558792000000004,
          "velocity": 0.7795275590551181
        },
        {
          "duration": 0.10110283333333214,
          "durationTicks": 11,
          "midi": 68,
          "name": "G#4",
          "ticks": 3228,
          "time": 29.669086000000004,
          "velocity": 0.7795275590551181
        },
        {
          "duration": 0.10110283333333214,
          "durationTicks": 11,
          "midi": 68,
          "name": "G#4",
          "ticks": 3240,
          "time": 29.779380000000003,
          "velocity": 0.7795275590551181
        },
        {
          "duration": 0.10110283333333214,
          "durationTicks": 11,
          "midi": 75,
          "name": "D#5",
          "ticks": 3252,
          "time": 29.889674000000003,
          "velocity": 0.7795275590551181
        },
        {
          "duration": 0.1011028333333357,
          "durationTicks": 11,
          "midi": 68,
          "name": "G#4",
          "ticks": 3264,
          "time": 29.999968,
          "velocity": 0.7795275590551181
        },
        {
          "duration": 0.1011028333333357,
          "durationTicks": 11,
          "midi": 68,
          "name": "G#4",
          "ticks": 3276,
          "time": 30.110262,
          "velocity": 0.7795275590551181
        },
        {
          "duration": 0.1011028333333357,
          "durationTicks": 11,
          "midi": 75,
          "name": "D#5",
          "ticks": 3288,
          "time": 30.220556,
          "velocity": 0.7795275590551181
        },
        {
          "duration": 0.1011028333333357,
          "durationTicks": 11,
          "midi": 77,
          "name": "F5",
          "ticks": 3300,
          "time": 30.330849999999998,
          "velocity": 0.7795275590551181
        },
        {
          "duration": 0.10110283333333214,
          "durationTicks": 11,
          "midi": 68,
          "name": "G#4",
          "ticks": 3312,
          "time": 30.441144,
          "velocity": 0.7795275590551181
        },
        {
          "duration": 0.1011028333333357,
          "durationTicks": 11,
          "midi": 68,
          "name": "G#4",
          "ticks": 3324,
          "time": 30.551438,
          "velocity": 0.7795275590551181
        },
        {
          "duration": 0.1011028333333357,
          "durationTicks": 11,
          "midi": 77,
          "name": "F5",
          "ticks": 3336,
          "time": 30.661732,
          "velocity": 0.7795275590551181
        },
        {
          "duration": 0.1011028333333357,
          "durationTicks": 11,
          "midi": 68,
          "name": "G#4",
          "ticks": 3348,
          "time": 30.772026,
          "velocity": 0.7795275590551181
        },
        {
          "duration": 0.1011028333333357,
          "durationTicks": 11,
          "midi": 68,
          "name": "G#4",
          "ticks": 3360,
          "time": 30.88232,
          "velocity": 0.7795275590551181
        },
        {
          "duration": 0.1011028333333357,
          "durationTicks": 11,
          "midi": 75,
          "name": "D#5",
          "ticks": 3372,
          "time": 30.992614,
          "velocity": 0.7795275590551181
        },
        {
          "duration": 0.1011028333333357,
          "durationTicks": 11,
          "midi": 68,
          "name": "G#4",
          "ticks": 3384,
          "time": 31.102908,
          "velocity": 0.7795275590551181
        },
        {
          "duration": 0.1011028333333357,
          "durationTicks": 11,
          "midi": 68,
          "name": "G#4",
          "ticks": 3396,
          "time": 31.213202,
          "velocity": 0.7795275590551181
        },
        {
          "duration": 0.1011028333333357,
          "durationTicks": 11,
          "midi": 70,
          "name": "A#4",
          "ticks": 3408,
          "time": 31.323496,
          "velocity": 0.7795275590551181
        },
        {
          "duration": 0.1011028333333357,
          "durationTicks": 11,
          "midi": 68,
          "name": "G#4",
          "ticks": 3420,
          "time": 31.43379,
          "velocity": 0.7795275590551181
        },
        {
          "duration": 0.1011028333333357,
          "durationTicks": 11,
          "midi": 68,
          "name": "G#4",
          "ticks": 3432,
          "time": 31.544083999999998,
          "velocity": 0.7795275590551181
        },
        {
          "duration": 0.1011028333333357,
          "durationTicks": 11,
          "midi": 75,
          "name": "D#5",
          "ticks": 3444,
          "time": 31.654378,
          "velocity": 0.7795275590551181
        },
        {
          "duration": 0.1011028333333357,
          "durationTicks": 11,
          "midi": 68,
          "name": "G#4",
          "ticks": 3456,
          "time": 31.764672,
          "velocity": 0.7795275590551181
        },
        {
          "duration": 0.1011028333333357,
          "durationTicks": 11,
          "midi": 68,
          "name": "G#4",
          "ticks": 3468,
          "time": 31.874966,
          "velocity": 0.7795275590551181
        },
        {
          "duration": 0.10110283333333214,
          "durationTicks": 11,
          "midi": 75,
          "name": "D#5",
          "ticks": 3480,
          "time": 31.98526,
          "velocity": 0.7795275590551181
        },
        {
          "duration": 0.1011028333333357,
          "durationTicks": 11,
          "midi": 77,
          "name": "F5",
          "ticks": 3492,
          "time": 32.095554,
          "velocity": 0.7795275590551181
        },
        {
          "duration": 0.1011028333333357,
          "durationTicks": 11,
          "midi": 68,
          "name": "G#4",
          "ticks": 3504,
          "time": 32.205847999999996,
          "velocity": 0.7795275590551181
        },
        {
          "duration": 0.1011028333333357,
          "durationTicks": 11,
          "midi": 68,
          "name": "G#4",
          "ticks": 3516,
          "time": 32.316142,
          "velocity": 0.7795275590551181
        },
        {
          "duration": 0.1011028333333357,
          "durationTicks": 11,
          "midi": 77,
          "name": "F5",
          "ticks": 3528,
          "time": 32.426435999999995,
          "velocity": 0.7795275590551181
        },
        {
          "duration": 0.1011028333333357,
          "durationTicks": 11,
          "midi": 68,
          "name": "G#4",
          "ticks": 3540,
          "time": 32.53673,
          "velocity": 0.7795275590551181
        },
        {
          "duration": 0.1011028333333357,
          "durationTicks": 11,
          "midi": 68,
          "name": "G#4",
          "ticks": 3552,
          "time": 32.647023999999995,
          "velocity": 0.7795275590551181
        },
        {
          "duration": 0.1011028333333357,
          "durationTicks": 11,
          "midi": 75,
          "name": "D#5",
          "ticks": 3564,
          "time": 32.757318,
          "velocity": 0.7795275590551181
        },
        {
          "duration": 0.1011028333333357,
          "durationTicks": 11,
          "midi": 68,
          "name": "G#4",
          "ticks": 3576,
          "time": 32.867612,
          "velocity": 0.7795275590551181
        },
        {
          "duration": 0.1011028333333357,
          "durationTicks": 11,
          "midi": 68,
          "name": "G#4",
          "ticks": 3588,
          "time": 32.977906,
          "velocity": 0.7795275590551181
        },
        {
          "duration": 0.1011028333333357,
          "durationTicks": 11,
          "midi": 70,
          "name": "A#4",
          "ticks": 3600,
          "time": 33.0882,
          "velocity": 0.7795275590551181
        },
        {
          "duration": 0.1011028333333357,
          "durationTicks": 11,
          "midi": 68,
          "name": "G#4",
          "ticks": 3612,
          "time": 33.198494,
          "velocity": 0.7795275590551181
        },
        {
          "duration": 0.1011028333333357,
          "durationTicks": 11,
          "midi": 68,
          "name": "G#4",
          "ticks": 3624,
          "time": 33.308788,
          "velocity": 0.7795275590551181
        },
        {
          "duration": 0.1011028333333357,
          "durationTicks": 11,
          "midi": 75,
          "name": "D#5",
          "ticks": 3636,
          "time": 33.419081999999996,
          "velocity": 0.7795275590551181
        },
        {
          "duration": 0.1011028333333357,
          "durationTicks": 11,
          "midi": 68,
          "name": "G#4",
          "ticks": 3648,
          "time": 33.529376,
          "velocity": 0.7795275590551181
        },
        {
          "duration": 0.1011028333333357,
          "durationTicks": 11,
          "midi": 68,
          "name": "G#4",
          "ticks": 3660,
          "time": 33.639669999999995,
          "velocity": 0.7795275590551181
        },
        {
          "duration": 0.1011028333333357,
          "durationTicks": 11,
          "midi": 75,
          "name": "D#5",
          "ticks": 3672,
          "time": 33.749964,
          "velocity": 0.7795275590551181
        },
        {
          "duration": 0.1011028333333357,
          "durationTicks": 11,
          "midi": 77,
          "name": "F5",
          "ticks": 3684,
          "time": 33.860258,
          "velocity": 0.7795275590551181
        },
        {
          "duration": 0.1011028333333357,
          "durationTicks": 11,
          "midi": 68,
          "name": "G#4",
          "ticks": 3696,
          "time": 33.970552,
          "velocity": 0.7795275590551181
        },
        {
          "duration": 0.1011028333333357,
          "durationTicks": 11,
          "midi": 68,
          "name": "G#4",
          "ticks": 3708,
          "time": 34.080846,
          "velocity": 0.7795275590551181
        },
        {
          "duration": 0.1011028333333357,
          "durationTicks": 11,
          "midi": 77,
          "name": "F5",
          "ticks": 3720,
          "time": 34.19114,
          "velocity": 0.7795275590551181
        },
        {
          "duration": 0.1011028333333357,
          "durationTicks": 11,
          "midi": 68,
          "name": "G#4",
          "ticks": 3732,
          "time": 34.301434,
          "velocity": 0.7795275590551181
        },
        {
          "duration": 0.1011028333333357,
          "durationTicks": 11,
          "midi": 68,
          "name": "G#4",
          "ticks": 3744,
          "time": 34.411728,
          "velocity": 0.7795275590551181
        },
        {
          "duration": 0.1011028333333357,
          "durationTicks": 11,
          "midi": 75,
          "name": "D#5",
          "ticks": 3756,
          "time": 34.522022,
          "velocity": 0.7795275590551181
        },
        {
          "duration": 0.1011028333333357,
          "durationTicks": 11,
          "midi": 68,
          "name": "G#4",
          "ticks": 3768,
          "time": 34.632316,
          "velocity": 0.7795275590551181
        },
        {
          "duration": 0.1011028333333357,
          "durationTicks": 11,
          "midi": 68,
          "name": "G#4",
          "ticks": 3780,
          "time": 34.74261,
          "velocity": 0.7795275590551181
        },
        {
          "duration": 0.1011028333333357,
          "durationTicks": 11,
          "midi": 70,
          "name": "A#4",
          "ticks": 3792,
          "time": 34.852904,
          "velocity": 0.7795275590551181
        },
        {
          "duration": 0.1011028333333357,
          "durationTicks": 11,
          "midi": 68,
          "name": "G#4",
          "ticks": 3804,
          "time": 34.963198,
          "velocity": 0.7795275590551181
        },
        {
          "duration": 0.1011028333333357,
          "durationTicks": 11,
          "midi": 68,
          "name": "G#4",
          "ticks": 3816,
          "time": 35.073492,
          "velocity": 0.7795275590551181
        },
        {
          "duration": 0.1011028333333357,
          "durationTicks": 11,
          "midi": 75,
          "name": "D#5",
          "ticks": 3828,
          "time": 35.183786,
          "velocity": 0.7795275590551181
        },
        {
          "duration": 0.1011028333333357,
          "durationTicks": 11,
          "midi": 68,
          "name": "G#4",
          "ticks": 3840,
          "time": 35.29408,
          "velocity": 0.7795275590551181
        },
        {
          "duration": 0.1011028333333357,
          "durationTicks": 11,
          "midi": 68,
          "name": "G#4",
          "ticks": 3852,
          "time": 35.404374,
          "velocity": 0.7795275590551181
        },
        {
          "duration": 0.1011028333333357,
          "durationTicks": 11,
          "midi": 75,
          "name": "D#5",
          "ticks": 3864,
          "time": 35.514668,
          "velocity": 0.7795275590551181
        },
        {
          "duration": 0.1011028333333357,
          "durationTicks": 11,
          "midi": 77,
          "name": "F5",
          "ticks": 3876,
          "time": 35.624962,
          "velocity": 0.7795275590551181
        },
        {
          "duration": 0.1011028333333357,
          "durationTicks": 11,
          "midi": 68,
          "name": "G#4",
          "ticks": 3888,
          "time": 35.735256,
          "velocity": 0.7795275590551181
        },
        {
          "duration": 0.1011028333333357,
          "durationTicks": 11,
          "midi": 73,
          "name": "C#5",
          "ticks": 3900,
          "time": 35.84555,
          "velocity": 0.7795275590551181
        },
        {
          "duration": 0.1011028333333357,
          "durationTicks": 11,
          "midi": 77,
          "name": "F5",
          "ticks": 3912,
          "time": 35.955844,
          "velocity": 0.7795275590551181
        },
        {
          "duration": 0.1011028333333357,
          "durationTicks": 11,
          "midi": 68,
          "name": "G#4",
          "ticks": 3924,
          "time": 36.066138,
          "velocity": 0.7795275590551181
        },
        {
          "duration": 0.1011028333333357,
          "durationTicks": 11,
          "midi": 68,
          "name": "G#4",
          "ticks": 3936,
          "time": 36.176432,
          "velocity": 0.7795275590551181
        },
        {
          "duration": 0.1011028333333357,
          "durationTicks": 11,
          "midi": 75,
          "name": "D#5",
          "ticks": 3948,
          "time": 36.286726,
          "velocity": 0.7795275590551181
        },
        {
          "duration": 0.1011028333333357,
          "durationTicks": 11,
          "midi": 68,
          "name": "G#4",
          "ticks": 3960,
          "time": 36.39702,
          "velocity": 0.7795275590551181
        },
        {
          "duration": 0.1011028333333357,
          "durationTicks": 11,
          "midi": 68,
          "name": "G#4",
          "ticks": 3972,
          "time": 36.507314,
          "velocity": 0.7795275590551181
        },
        {
          "duration": 0.1011028333333357,
          "durationTicks": 11,
          "midi": 70,
          "name": "A#4",
          "ticks": 3984,
          "time": 36.617608,
          "velocity": 0.7795275590551181
        },
        {
          "duration": 0.1011028333333357,
          "durationTicks": 11,
          "midi": 68,
          "name": "G#4",
          "ticks": 3996,
          "time": 36.727902,
          "velocity": 0.7795275590551181
        },
        {
          "duration": 0.1011028333333357,
          "durationTicks": 11,
          "midi": 68,
          "name": "G#4",
          "ticks": 4008,
          "time": 36.838195999999996,
          "velocity": 0.7795275590551181
        },
        {
          "duration": 0.1011028333333357,
          "durationTicks": 11,
          "midi": 75,
          "name": "D#5",
          "ticks": 4020,
          "time": 36.94849,
          "velocity": 0.7795275590551181
        },
        {
          "duration": 0.1011028333333357,
          "durationTicks": 11,
          "midi": 68,
          "name": "G#4",
          "ticks": 4032,
          "time": 37.058784,
          "velocity": 0.7795275590551181
        },
        {
          "duration": 0.1011028333333357,
          "durationTicks": 11,
          "midi": 68,
          "name": "G#4",
          "ticks": 4044,
          "time": 37.169078,
          "velocity": 0.7795275590551181
        },
        {
          "duration": 0.1011028333333357,
          "durationTicks": 11,
          "midi": 75,
          "name": "D#5",
          "ticks": 4056,
          "time": 37.279372,
          "velocity": 0.7795275590551181
        },
        {
          "duration": 0.1011028333333357,
          "durationTicks": 11,
          "midi": 77,
          "name": "F5",
          "ticks": 4068,
          "time": 37.389666,
          "velocity": 0.7795275590551181
        },
        {
          "duration": 0.1011028333333357,
          "durationTicks": 11,
          "midi": 68,
          "name": "G#4",
          "ticks": 4080,
          "time": 37.49996,
          "velocity": 0.7795275590551181
        },
        {
          "duration": 0.1011028333333357,
          "durationTicks": 11,
          "midi": 68,
          "name": "G#4",
          "ticks": 4092,
          "time": 37.610254,
          "velocity": 0.7795275590551181
        },
        {
          "duration": 0.1011028333333357,
          "durationTicks": 11,
          "midi": 77,
          "name": "F5",
          "ticks": 4104,
          "time": 37.720548,
          "velocity": 0.7795275590551181
        },
        {
          "duration": 0.1011028333333357,
          "durationTicks": 11,
          "midi": 68,
          "name": "G#4",
          "ticks": 4116,
          "time": 37.830842,
          "velocity": 0.7795275590551181
        },
        {
          "duration": 0.1011028333333357,
          "durationTicks": 11,
          "midi": 68,
          "name": "G#4",
          "ticks": 4128,
          "time": 37.941136,
          "velocity": 0.7795275590551181
        },
        {
          "duration": 0.10110283333332859,
          "durationTicks": 11,
          "midi": 77,
          "name": "F5",
          "ticks": 4140,
          "time": 38.05143,
          "velocity": 0.7795275590551181
        },
        {
          "duration": 0.1011028333333357,
          "durationTicks": 11,
          "midi": 68,
          "name": "G#4",
          "ticks": 4152,
          "time": 38.161724,
          "velocity": 0.7795275590551181
        },
        {
          "duration": 0.1011028333333357,
          "durationTicks": 11,
          "midi": 77,
          "name": "F5",
          "ticks": 4164,
          "time": 38.272018,
          "velocity": 0.7795275590551181
        },
        {
          "duration": 0.10110283333332859,
          "durationTicks": 11,
          "midi": 68,
          "name": "G#4",
          "ticks": 4272,
          "time": 39.264664,
          "velocity": 0.7795275590551181
        },
        {
          "duration": 0.1011028333333357,
          "durationTicks": 11,
          "midi": 68,
          "name": "G#4",
          "ticks": 4284,
          "time": 39.374958,
          "velocity": 0.7795275590551181
        },
        {
          "duration": 0.1011028333333357,
          "durationTicks": 11,
          "midi": 77,
          "name": "F5",
          "ticks": 4296,
          "time": 39.485252,
          "velocity": 0.7795275590551181
        },
        {
          "duration": 0.1011028333333357,
          "durationTicks": 11,
          "midi": 68,
          "name": "G#4",
          "ticks": 4308,
          "time": 39.595546,
          "velocity": 0.7795275590551181
        },
        {
          "duration": 0.1011028333333357,
          "durationTicks": 11,
          "midi": 68,
          "name": "G#4",
          "ticks": 4320,
          "time": 39.70584,
          "velocity": 0.7795275590551181
        },
        {
          "duration": 0.1011028333333357,
          "durationTicks": 11,
          "midi": 75,
          "name": "D#5",
          "ticks": 4332,
          "time": 39.816134,
          "velocity": 0.7795275590551181
        },
        {
          "duration": 0.1011028333333357,
          "durationTicks": 11,
          "midi": 68,
          "name": "G#4",
          "ticks": 4344,
          "time": 39.926428,
          "velocity": 0.7795275590551181
        },
        {
          "duration": 0.1011028333333357,
          "durationTicks": 11,
          "midi": 68,
          "name": "G#4",
          "ticks": 4356,
          "time": 40.036722,
          "velocity": 0.7795275590551181
        },
        {
          "duration": 0.1011028333333357,
          "durationTicks": 11,
          "midi": 70,
          "name": "A#4",
          "ticks": 4368,
          "time": 40.147016,
          "velocity": 0.7795275590551181
        },
        {
          "duration": 0.1011028333333357,
          "durationTicks": 11,
          "midi": 68,
          "name": "G#4",
          "ticks": 4380,
          "time": 40.25731,
          "velocity": 0.7795275590551181
        },
        {
          "duration": 0.1011028333333357,
          "durationTicks": 11,
          "midi": 68,
          "name": "G#4",
          "ticks": 4392,
          "time": 40.367604,
          "velocity": 0.7795275590551181
        },
        {
          "duration": 0.10110283333332859,
          "durationTicks": 11,
          "midi": 75,
          "name": "D#5",
          "ticks": 4404,
          "time": 40.477898,
          "velocity": 0.7795275590551181
        },
        {
          "duration": 0.1011028333333357,
          "durationTicks": 11,
          "midi": 68,
          "name": "G#4",
          "ticks": 4416,
          "time": 40.588192,
          "velocity": 0.7795275590551181
        },
        {
          "duration": 0.1011028333333357,
          "durationTicks": 11,
          "midi": 68,
          "name": "G#4",
          "ticks": 4428,
          "time": 40.698486,
          "velocity": 0.7795275590551181
        },
        {
          "duration": 0.1011028333333357,
          "durationTicks": 11,
          "midi": 75,
          "name": "D#5",
          "ticks": 4440,
          "time": 40.80878,
          "velocity": 0.7795275590551181
        },
        {
          "duration": 0.1011028333333357,
          "durationTicks": 11,
          "midi": 77,
          "name": "F5",
          "ticks": 4452,
          "time": 40.919074,
          "velocity": 0.7795275590551181
        },
        {
          "duration": 0.1011028333333357,
          "durationTicks": 11,
          "midi": 68,
          "name": "G#4",
          "ticks": 4464,
          "time": 41.029368,
          "velocity": 0.7795275590551181
        },
        {
          "duration": 0.1011028333333357,
          "durationTicks": 11,
          "midi": 68,
          "name": "G#4",
          "ticks": 4476,
          "time": 41.139662,
          "velocity": 0.7795275590551181
        },
        {
          "duration": 0.1011028333333357,
          "durationTicks": 11,
          "midi": 77,
          "name": "F5",
          "ticks": 4488,
          "time": 41.249956,
          "velocity": 0.7795275590551181
        },
        {
          "duration": 0.1011028333333357,
          "durationTicks": 11,
          "midi": 68,
          "name": "G#4",
          "ticks": 4500,
          "time": 41.36025,
          "velocity": 0.7795275590551181
        },
        {
          "duration": 0.1011028333333357,
          "durationTicks": 11,
          "midi": 68,
          "name": "G#4",
          "ticks": 4512,
          "time": 41.470544,
          "velocity": 0.7795275590551181
        },
        {
          "duration": 0.1011028333333357,
          "durationTicks": 11,
          "midi": 75,
          "name": "D#5",
          "ticks": 4524,
          "time": 41.580838,
          "velocity": 0.7795275590551181
        },
        {
          "duration": 0.1011028333333357,
          "durationTicks": 11,
          "midi": 68,
          "name": "G#4",
          "ticks": 4536,
          "time": 41.691132,
          "velocity": 0.7795275590551181
        },
        {
          "duration": 0.1011028333333357,
          "durationTicks": 11,
          "midi": 68,
          "name": "G#4",
          "ticks": 4548,
          "time": 41.801426,
          "velocity": 0.7795275590551181
        },
        {
          "duration": 0.1011028333333357,
          "durationTicks": 11,
          "midi": 70,
          "name": "A#4",
          "ticks": 4560,
          "time": 41.91172,
          "velocity": 0.7795275590551181
        },
        {
          "duration": 0.1011028333333357,
          "durationTicks": 11,
          "midi": 68,
          "name": "G#4",
          "ticks": 4572,
          "time": 42.022014,
          "velocity": 0.7795275590551181
        },
        {
          "duration": 0.1011028333333357,
          "durationTicks": 11,
          "midi": 68,
          "name": "G#4",
          "ticks": 4584,
          "time": 42.132308,
          "velocity": 0.7795275590551181
        },
        {
          "duration": 0.1011028333333357,
          "durationTicks": 11,
          "midi": 75,
          "name": "D#5",
          "ticks": 4596,
          "time": 42.242602,
          "velocity": 0.7795275590551181
        },
        {
          "duration": 0.1011028333333357,
          "durationTicks": 11,
          "midi": 68,
          "name": "G#4",
          "ticks": 4608,
          "time": 42.352896,
          "velocity": 0.7795275590551181
        },
        {
          "duration": 0.1011028333333357,
          "durationTicks": 11,
          "midi": 68,
          "name": "G#4",
          "ticks": 4620,
          "time": 42.46319,
          "velocity": 0.7795275590551181
        },
        {
          "duration": 0.1011028333333357,
          "durationTicks": 11,
          "midi": 75,
          "name": "D#5",
          "ticks": 4632,
          "time": 42.573484,
          "velocity": 0.7795275590551181
        },
        {
          "duration": 0.1011028333333357,
          "durationTicks": 11,
          "midi": 77,
          "name": "F5",
          "ticks": 4644,
          "time": 42.683778,
          "velocity": 0.7795275590551181
        },
        {
          "duration": 0.1011028333333357,
          "durationTicks": 11,
          "midi": 68,
          "name": "G#4",
          "ticks": 4656,
          "time": 42.794072,
          "velocity": 0.7795275590551181
        },
        {
          "duration": 0.1011028333333357,
          "durationTicks": 11,
          "midi": 68,
          "name": "G#4",
          "ticks": 4668,
          "time": 42.904366,
          "velocity": 0.7795275590551181
        },
        {
          "duration": 0.1011028333333357,
          "durationTicks": 11,
          "midi": 77,
          "name": "F5",
          "ticks": 4680,
          "time": 43.01466,
          "velocity": 0.7795275590551181
        },
        {
          "duration": 0.1011028333333357,
          "durationTicks": 11,
          "midi": 68,
          "name": "G#4",
          "ticks": 4692,
          "time": 43.124954,
          "velocity": 0.7795275590551181
        },
        {
          "duration": 0.1011028333333357,
          "durationTicks": 11,
          "midi": 68,
          "name": "G#4",
          "ticks": 4704,
          "time": 43.235248,
          "velocity": 0.7795275590551181
        },
        {
          "duration": 0.1011028333333357,
          "durationTicks": 11,
          "midi": 75,
          "name": "D#5",
          "ticks": 4716,
          "time": 43.345542,
          "velocity": 0.7795275590551181
        },
        {
          "duration": 0.1011028333333357,
          "durationTicks": 11,
          "midi": 68,
          "name": "G#4",
          "ticks": 4728,
          "time": 43.455836,
          "velocity": 0.7795275590551181
        },
        {
          "duration": 0.1011028333333357,
          "durationTicks": 11,
          "midi": 68,
          "name": "G#4",
          "ticks": 4740,
          "time": 43.56613,
          "velocity": 0.7795275590551181
        },
        {
          "duration": 0.1011028333333357,
          "durationTicks": 11,
          "midi": 70,
          "name": "A#4",
          "ticks": 4752,
          "time": 43.676424,
          "velocity": 0.7795275590551181
        },
        {
          "duration": 0.1011028333333357,
          "durationTicks": 11,
          "midi": 68,
          "name": "G#4",
          "ticks": 4764,
          "time": 43.786718,
          "velocity": 0.7795275590551181
        },
        {
          "duration": 0.1011028333333357,
          "durationTicks": 11,
          "midi": 68,
          "name": "G#4",
          "ticks": 4776,
          "time": 43.897012,
          "velocity": 0.7795275590551181
        },
        {
          "duration": 0.1011028333333357,
          "durationTicks": 11,
          "midi": 75,
          "name": "D#5",
          "ticks": 4788,
          "time": 44.007306,
          "velocity": 0.7795275590551181
        },
        {
          "duration": 0.1011028333333357,
          "durationTicks": 11,
          "midi": 68,
          "name": "G#4",
          "ticks": 4800,
          "time": 44.1176,
          "velocity": 0.7795275590551181
        },
        {
          "duration": 0.1011028333333357,
          "durationTicks": 11,
          "midi": 68,
          "name": "G#4",
          "ticks": 4812,
          "time": 44.227894,
          "velocity": 0.7795275590551181
        },
        {
          "duration": 0.1011028333333357,
          "durationTicks": 11,
          "midi": 75,
          "name": "D#5",
          "ticks": 4824,
          "time": 44.338188,
          "velocity": 0.7795275590551181
        },
        {
          "duration": 0.1011028333333357,
          "durationTicks": 11,
          "midi": 77,
          "name": "F5",
          "ticks": 4836,
          "time": 44.448482,
          "velocity": 0.7795275590551181
        },
        {
          "duration": 0.1011028333333357,
          "durationTicks": 11,
          "midi": 68,
          "name": "G#4",
          "ticks": 4848,
          "time": 44.558776,
          "velocity": 0.7795275590551181
        },
        {
          "duration": 0.1011028333333357,
          "durationTicks": 11,
          "midi": 68,
          "name": "G#4",
          "ticks": 4860,
          "time": 44.66907,
          "velocity": 0.7795275590551181
        },
        {
          "duration": 0.1011028333333357,
          "durationTicks": 11,
          "midi": 77,
          "name": "F5",
          "ticks": 4872,
          "time": 44.779364,
          "velocity": 0.7795275590551181
        },
        {
          "duration": 0.1011028333333357,
          "durationTicks": 11,
          "midi": 68,
          "name": "G#4",
          "ticks": 4884,
          "time": 44.889658,
          "velocity": 0.7795275590551181
        },
        {
          "duration": 0.1011028333333357,
          "durationTicks": 11,
          "midi": 68,
          "name": "G#4",
          "ticks": 4896,
          "time": 44.999952,
          "velocity": 0.7795275590551181
        },
        {
          "duration": 0.10110283333332859,
          "durationTicks": 11,
          "midi": 75,
          "name": "D#5",
          "ticks": 4908,
          "time": 45.110246000000004,
          "velocity": 0.7795275590551181
        },
        {
          "duration": 0.1011028333333357,
          "durationTicks": 11,
          "midi": 68,
          "name": "G#4",
          "ticks": 4920,
          "time": 45.22054,
          "velocity": 0.7795275590551181
        },
        {
          "duration": 0.1011028333333357,
          "durationTicks": 11,
          "midi": 68,
          "name": "G#4",
          "ticks": 4932,
          "time": 45.330834,
          "velocity": 0.7795275590551181
        },
        {
          "duration": 0.1011028333333357,
          "durationTicks": 11,
          "midi": 70,
          "name": "A#4",
          "ticks": 4944,
          "time": 45.441128,
          "velocity": 0.7795275590551181
        },
        {
          "duration": 0.1011028333333357,
          "durationTicks": 11,
          "midi": 68,
          "name": "G#4",
          "ticks": 4956,
          "time": 45.551422,
          "velocity": 0.7795275590551181
        },
        {
          "duration": 0.1011028333333357,
          "durationTicks": 11,
          "midi": 68,
          "name": "G#4",
          "ticks": 4968,
          "time": 45.661716,
          "velocity": 0.7795275590551181
        },
        {
          "duration": 0.1011028333333357,
          "durationTicks": 11,
          "midi": 75,
          "name": "D#5",
          "ticks": 4980,
          "time": 45.77201,
          "velocity": 0.7795275590551181
        },
        {
          "duration": 0.1011028333333357,
          "durationTicks": 11,
          "midi": 68,
          "name": "G#4",
          "ticks": 4992,
          "time": 45.882304,
          "velocity": 0.7795275590551181
        },
        {
          "duration": 0.1011028333333357,
          "durationTicks": 11,
          "midi": 68,
          "name": "G#4",
          "ticks": 5004,
          "time": 45.992598,
          "velocity": 0.7795275590551181
        },
        {
          "duration": 0.1011028333333357,
          "durationTicks": 11,
          "midi": 75,
          "name": "D#5",
          "ticks": 5016,
          "time": 46.102892,
          "velocity": 0.7795275590551181
        },
        {
          "duration": 0.1011028333333357,
          "durationTicks": 11,
          "midi": 77,
          "name": "F5",
          "ticks": 5028,
          "time": 46.213186,
          "velocity": 0.7795275590551181
        },
        {
          "duration": 0.10110283333332859,
          "durationTicks": 11,
          "midi": 68,
          "name": "G#4",
          "ticks": 5040,
          "time": 46.32348,
          "velocity": 0.7795275590551181
        },
        {
          "duration": 0.1011028333333357,
          "durationTicks": 11,
          "midi": 68,
          "name": "G#4",
          "ticks": 5052,
          "time": 46.433774,
          "velocity": 0.7795275590551181
        },
        {
          "duration": 0.1011028333333357,
          "durationTicks": 11,
          "midi": 77,
          "name": "F5",
          "ticks": 5064,
          "time": 46.544068,
          "velocity": 0.7795275590551181
        },
        {
          "duration": 0.1011028333333357,
          "durationTicks": 11,
          "midi": 68,
          "name": "G#4",
          "ticks": 5076,
          "time": 46.654362,
          "velocity": 0.7795275590551181
        },
        {
          "duration": 0.1011028333333357,
          "durationTicks": 11,
          "midi": 68,
          "name": "G#4",
          "ticks": 5088,
          "time": 46.764656,
          "velocity": 0.7795275590551181
        },
        {
          "duration": 0.1011028333333357,
          "durationTicks": 11,
          "midi": 75,
          "name": "D#5",
          "ticks": 5100,
          "time": 46.87495,
          "velocity": 0.7795275590551181
        },
        {
          "duration": 0.1011028333333357,
          "durationTicks": 11,
          "midi": 68,
          "name": "G#4",
          "ticks": 5112,
          "time": 46.985244,
          "velocity": 0.7795275590551181
        },
        {
          "duration": 0.1011028333333357,
          "durationTicks": 11,
          "midi": 68,
          "name": "G#4",
          "ticks": 5124,
          "time": 47.095538,
          "velocity": 0.7795275590551181
        },
        {
          "duration": 0.1011028333333357,
          "durationTicks": 11,
          "midi": 70,
          "name": "A#4",
          "ticks": 5136,
          "time": 47.205832,
          "velocity": 0.7795275590551181
        },
        {
          "duration": 0.1011028333333357,
          "durationTicks": 11,
          "midi": 68,
          "name": "G#4",
          "ticks": 5148,
          "time": 47.316126,
          "velocity": 0.7795275590551181
        },
        {
          "duration": 0.1011028333333357,
          "durationTicks": 11,
          "midi": 68,
          "name": "G#4",
          "ticks": 5160,
          "time": 47.42642,
          "velocity": 0.7795275590551181
        },
        {
          "duration": 0.1011028333333357,
          "durationTicks": 11,
          "midi": 75,
          "name": "D#5",
          "ticks": 5172,
          "time": 47.536714,
          "velocity": 0.7795275590551181
        },
        {
          "duration": 0.1011028333333357,
          "durationTicks": 11,
          "midi": 68,
          "name": "G#4",
          "ticks": 5184,
          "time": 47.647008,
          "velocity": 0.7795275590551181
        },
        {
          "duration": 0.1011028333333357,
          "durationTicks": 11,
          "midi": 68,
          "name": "G#4",
          "ticks": 5196,
          "time": 47.757302,
          "velocity": 0.7795275590551181
        },
        {
          "duration": 0.1011028333333357,
          "durationTicks": 11,
          "midi": 75,
          "name": "D#5",
          "ticks": 5208,
          "time": 47.867596,
          "velocity": 0.7795275590551181
        },
        {
          "duration": 0.1011028333333357,
          "durationTicks": 11,
          "midi": 77,
          "name": "F5",
          "ticks": 5220,
          "time": 47.97789,
          "velocity": 0.7795275590551181
        },
        {
          "duration": 0.1011028333333357,
          "durationTicks": 11,
          "midi": 68,
          "name": "G#4",
          "ticks": 5232,
          "time": 48.088184,
          "velocity": 0.7795275590551181
        },
        {
          "duration": 0.1011028333333357,
          "durationTicks": 11,
          "midi": 68,
          "name": "G#4",
          "ticks": 5244,
          "time": 48.198478,
          "velocity": 0.7795275590551181
        },
        {
          "duration": 0.1011028333333357,
          "durationTicks": 11,
          "midi": 77,
          "name": "F5",
          "ticks": 5256,
          "time": 48.308772,
          "velocity": 0.7795275590551181
        },
        {
          "duration": 0.1011028333333357,
          "durationTicks": 11,
          "midi": 68,
          "name": "G#4",
          "ticks": 5268,
          "time": 48.419066,
          "velocity": 0.7795275590551181
        },
        {
          "duration": 0.1011028333333357,
          "durationTicks": 11,
          "midi": 68,
          "name": "G#4",
          "ticks": 5280,
          "time": 48.52936,
          "velocity": 0.7795275590551181
        },
        {
          "duration": 0.1011028333333357,
          "durationTicks": 11,
          "midi": 75,
          "name": "D#5",
          "ticks": 5292,
          "time": 48.639654,
          "velocity": 0.7795275590551181
        },
        {
          "duration": 0.1011028333333357,
          "durationTicks": 11,
          "midi": 68,
          "name": "G#4",
          "ticks": 5304,
          "time": 48.749948,
          "velocity": 0.7795275590551181
        },
        {
          "duration": 0.1011028333333357,
          "durationTicks": 11,
          "midi": 68,
          "name": "G#4",
          "ticks": 5316,
          "time": 48.860242,
          "velocity": 0.7795275590551181
        },
        {
          "duration": 0.1011028333333357,
          "durationTicks": 11,
          "midi": 70,
          "name": "A#4",
          "ticks": 5328,
          "time": 48.970536,
          "velocity": 0.7795275590551181
        },
        {
          "duration": 0.1011028333333357,
          "durationTicks": 11,
          "midi": 68,
          "name": "G#4",
          "ticks": 5340,
          "time": 49.08083,
          "velocity": 0.7795275590551181
        },
        {
          "duration": 0.1011028333333357,
          "durationTicks": 11,
          "midi": 68,
          "name": "G#4",
          "ticks": 5352,
          "time": 49.191124,
          "velocity": 0.7795275590551181
        },
        {
          "duration": 0.1011028333333357,
          "durationTicks": 11,
          "midi": 75,
          "name": "D#5",
          "ticks": 5364,
          "time": 49.301418,
          "velocity": 0.7795275590551181
        },
        {
          "duration": 0.1011028333333357,
          "durationTicks": 11,
          "midi": 68,
          "name": "G#4",
          "ticks": 5376,
          "time": 49.411712,
          "velocity": 0.7795275590551181
        },
        {
          "duration": 0.1011028333333357,
          "durationTicks": 11,
          "midi": 68,
          "name": "G#4",
          "ticks": 5388,
          "time": 49.522006,
          "velocity": 0.7795275590551181
        },
        {
          "duration": 0.1011028333333357,
          "durationTicks": 11,
          "midi": 75,
          "name": "D#5",
          "ticks": 5400,
          "time": 49.6323,
          "velocity": 0.7795275590551181
        },
        {
          "duration": 0.1011028333333357,
          "durationTicks": 11,
          "midi": 77,
          "name": "F5",
          "ticks": 5412,
          "time": 49.742594,
          "velocity": 0.7795275590551181
        },
        {
          "duration": 0.1011028333333357,
          "durationTicks": 11,
          "midi": 68,
          "name": "G#4",
          "ticks": 5424,
          "time": 49.852888,
          "velocity": 0.7795275590551181
        },
        {
          "duration": 0.1011028333333357,
          "durationTicks": 11,
          "midi": 68,
          "name": "G#4",
          "ticks": 5436,
          "time": 49.963182,
          "velocity": 0.7795275590551181
        },
        {
          "duration": 0.1011028333333357,
          "durationTicks": 11,
          "midi": 77,
          "name": "F5",
          "ticks": 5448,
          "time": 50.073476,
          "velocity": 0.7795275590551181
        },
        {
          "duration": 0.1011028333333357,
          "durationTicks": 11,
          "midi": 68,
          "name": "G#4",
          "ticks": 5460,
          "time": 50.18377,
          "velocity": 0.7795275590551181
        },
        {
          "duration": 0.1011028333333357,
          "durationTicks": 11,
          "midi": 68,
          "name": "G#4",
          "ticks": 5472,
          "time": 50.294064,
          "velocity": 0.7795275590551181
        },
        {
          "duration": 0.1011028333333357,
          "durationTicks": 11,
          "midi": 75,
          "name": "D#5",
          "ticks": 5484,
          "time": 50.404358,
          "velocity": 0.7795275590551181
        },
        {
          "duration": 0.1011028333333357,
          "durationTicks": 11,
          "midi": 68,
          "name": "G#4",
          "ticks": 5496,
          "time": 50.514652,
          "velocity": 0.7795275590551181
        },
        {
          "duration": 0.1011028333333357,
          "durationTicks": 11,
          "midi": 68,
          "name": "G#4",
          "ticks": 5508,
          "time": 50.624946,
          "velocity": 0.7795275590551181
        },
        {
          "duration": 0.1011028333333357,
          "durationTicks": 11,
          "midi": 70,
          "name": "A#4",
          "ticks": 5520,
          "time": 50.73524,
          "velocity": 0.7795275590551181
        },
        {
          "duration": 0.1011028333333357,
          "durationTicks": 11,
          "midi": 68,
          "name": "G#4",
          "ticks": 5532,
          "time": 50.845534,
          "velocity": 0.7795275590551181
        },
        {
          "duration": 0.1011028333333357,
          "durationTicks": 11,
          "midi": 68,
          "name": "G#4",
          "ticks": 5544,
          "time": 50.955828,
          "velocity": 0.7795275590551181
        },
        {
          "duration": 0.1011028333333357,
          "durationTicks": 11,
          "midi": 75,
          "name": "D#5",
          "ticks": 5556,
          "time": 51.066122,
          "velocity": 0.7795275590551181
        },
        {
          "duration": 0.1011028333333357,
          "durationTicks": 11,
          "midi": 68,
          "name": "G#4",
          "ticks": 5568,
          "time": 51.176416,
          "velocity": 0.7795275590551181
        },
        {
          "duration": 0.1011028333333357,
          "durationTicks": 11,
          "midi": 68,
          "name": "G#4",
          "ticks": 5580,
          "time": 51.28671,
          "velocity": 0.7795275590551181
        },
        {
          "duration": 0.1011028333333357,
          "durationTicks": 11,
          "midi": 75,
          "name": "D#5",
          "ticks": 5592,
          "time": 51.397004,
          "velocity": 0.7795275590551181
        },
        {
          "duration": 0.1011028333333357,
          "durationTicks": 11,
          "midi": 77,
          "name": "F5",
          "ticks": 5604,
          "time": 51.507298,
          "velocity": 0.7795275590551181
        },
        {
          "duration": 0.1011028333333357,
          "durationTicks": 11,
          "midi": 68,
          "name": "G#4",
          "ticks": 5616,
          "time": 51.617592,
          "velocity": 0.7795275590551181
        },
        {
          "duration": 0.1011028333333357,
          "durationTicks": 11,
          "midi": 68,
          "name": "G#4",
          "ticks": 5628,
          "time": 51.727886,
          "velocity": 0.7795275590551181
        },
        {
          "duration": 0.1011028333333357,
          "durationTicks": 11,
          "midi": 77,
          "name": "F5",
          "ticks": 5640,
          "time": 51.83818,
          "velocity": 0.7795275590551181
        },
        {
          "duration": 0.1011028333333357,
          "durationTicks": 11,
          "midi": 68,
          "name": "G#4",
          "ticks": 5652,
          "time": 51.948474,
          "velocity": 0.7795275590551181
        },
        {
          "duration": 0.1011028333333357,
          "durationTicks": 11,
          "midi": 68,
          "name": "G#4",
          "ticks": 5664,
          "time": 52.058768,
          "velocity": 0.7795275590551181
        },
        {
          "duration": 0.10110283333332859,
          "durationTicks": 11,
          "midi": 75,
          "name": "D#5",
          "ticks": 5676,
          "time": 52.169062000000004,
          "velocity": 0.7795275590551181
        },
        {
          "duration": 0.1011028333333357,
          "durationTicks": 11,
          "midi": 68,
          "name": "G#4",
          "ticks": 5688,
          "time": 52.279356,
          "velocity": 0.7795275590551181
        },
        {
          "duration": 0.1011028333333357,
          "durationTicks": 11,
          "midi": 68,
          "name": "G#4",
          "ticks": 5700,
          "time": 52.38965,
          "velocity": 0.7795275590551181
        },
        {
          "duration": 0.1011028333333357,
          "durationTicks": 11,
          "midi": 70,
          "name": "A#4",
          "ticks": 5712,
          "time": 52.499944,
          "velocity": 0.7795275590551181
        },
        {
          "duration": 0.1011028333333357,
          "durationTicks": 11,
          "midi": 68,
          "name": "G#4",
          "ticks": 5724,
          "time": 52.610238,
          "velocity": 0.7795275590551181
        },
        {
          "duration": 0.1011028333333357,
          "durationTicks": 11,
          "midi": 68,
          "name": "G#4",
          "ticks": 5736,
          "time": 52.720532,
          "velocity": 0.7795275590551181
        },
        {
          "duration": 0.1011028333333357,
          "durationTicks": 11,
          "midi": 75,
          "name": "D#5",
          "ticks": 5748,
          "time": 52.830826,
          "velocity": 0.7795275590551181
        },
        {
          "duration": 0.1011028333333357,
          "durationTicks": 11,
          "midi": 68,
          "name": "G#4",
          "ticks": 5760,
          "time": 52.94112,
          "velocity": 0.7795275590551181
        },
        {
          "duration": 0.1011028333333357,
          "durationTicks": 11,
          "midi": 68,
          "name": "G#4",
          "ticks": 5772,
          "time": 53.051414,
          "velocity": 0.7795275590551181
        },
        {
          "duration": 0.1011028333333357,
          "durationTicks": 11,
          "midi": 75,
          "name": "D#5",
          "ticks": 5784,
          "time": 53.161708,
          "velocity": 0.7795275590551181
        },
        {
          "duration": 0.1011028333333357,
          "durationTicks": 11,
          "midi": 77,
          "name": "F5",
          "ticks": 5796,
          "time": 53.272002,
          "velocity": 0.7795275590551181
        },
        {
          "duration": 0.10110283333332859,
          "durationTicks": 11,
          "midi": 68,
          "name": "G#4",
          "ticks": 9648,
          "time": 88.676376,
          "velocity": 0.7795275590551181
        },
        {
          "duration": 0.10110283333332859,
          "durationTicks": 11,
          "midi": 68,
          "name": "G#4",
          "ticks": 9660,
          "time": 88.78667,
          "velocity": 0.7795275590551181
        },
        {
          "duration": 0.10110283333332859,
          "durationTicks": 11,
          "midi": 77,
          "name": "F5",
          "ticks": 9672,
          "time": 88.896964,
          "velocity": 0.7795275590551181
        },
        {
          "duration": 0.10110283333332859,
          "durationTicks": 11,
          "midi": 68,
          "name": "G#4",
          "ticks": 9684,
          "time": 89.00725800000001,
          "velocity": 0.7795275590551181
        },
        {
          "duration": 0.10110283333332859,
          "durationTicks": 11,
          "midi": 68,
          "name": "G#4",
          "ticks": 9696,
          "time": 89.117552,
          "velocity": 0.7795275590551181
        },
        {
          "duration": 0.10110283333332859,
          "durationTicks": 11,
          "midi": 75,
          "name": "D#5",
          "ticks": 9708,
          "time": 89.227846,
          "velocity": 0.7795275590551181
        },
        {
          "duration": 0.10110283333332859,
          "durationTicks": 11,
          "midi": 68,
          "name": "G#4",
          "ticks": 9720,
          "time": 89.33814,
          "velocity": 0.7795275590551181
        },
        {
          "duration": 0.10110283333332859,
          "durationTicks": 11,
          "midi": 68,
          "name": "G#4",
          "ticks": 9732,
          "time": 89.448434,
          "velocity": 0.7795275590551181
        },
        {
          "duration": 0.10110283333332859,
          "durationTicks": 11,
          "midi": 70,
          "name": "A#4",
          "ticks": 9744,
          "time": 89.558728,
          "velocity": 0.7795275590551181
        },
        {
          "duration": 0.10110283333332859,
          "durationTicks": 11,
          "midi": 68,
          "name": "G#4",
          "ticks": 9756,
          "time": 89.669022,
          "velocity": 0.7795275590551181
        },
        {
          "duration": 0.10110283333332859,
          "durationTicks": 11,
          "midi": 68,
          "name": "G#4",
          "ticks": 9768,
          "time": 89.779316,
          "velocity": 0.7795275590551181
        },
        {
          "duration": 0.10110283333332859,
          "durationTicks": 11,
          "midi": 75,
          "name": "D#5",
          "ticks": 9780,
          "time": 89.88961,
          "velocity": 0.7795275590551181
        },
        {
          "duration": 0.10110283333332859,
          "durationTicks": 11,
          "midi": 68,
          "name": "G#4",
          "ticks": 9792,
          "time": 89.999904,
          "velocity": 0.7795275590551181
        },
        {
          "duration": 0.10110283333332859,
          "durationTicks": 11,
          "midi": 68,
          "name": "G#4",
          "ticks": 9804,
          "time": 90.110198,
          "velocity": 0.7795275590551181
        },
        {
          "duration": 0.10110283333332859,
          "durationTicks": 11,
          "midi": 75,
          "name": "D#5",
          "ticks": 9816,
          "time": 90.22049200000001,
          "velocity": 0.7795275590551181
        },
        {
          "duration": 0.10110283333332859,
          "durationTicks": 11,
          "midi": 77,
          "name": "F5",
          "ticks": 9828,
          "time": 90.330786,
          "velocity": 0.7795275590551181
        },
        {
          "duration": 0.10110283333332859,
          "durationTicks": 11,
          "midi": 68,
          "name": "G#4",
          "ticks": 9840,
          "time": 90.44108,
          "velocity": 0.7795275590551181
        },
        {
          "duration": 0.10110283333332859,
          "durationTicks": 11,
          "midi": 68,
          "name": "G#4",
          "ticks": 9852,
          "time": 90.551374,
          "velocity": 0.7795275590551181
        },
        {
          "duration": 0.10110283333332859,
          "durationTicks": 11,
          "midi": 77,
          "name": "F5",
          "ticks": 9864,
          "time": 90.661668,
          "velocity": 0.7795275590551181
        },
        {
          "duration": 0.10110283333332859,
          "durationTicks": 11,
          "midi": 68,
          "name": "G#4",
          "ticks": 9876,
          "time": 90.771962,
          "velocity": 0.7795275590551181
        },
        {
          "duration": 0.10110283333332859,
          "durationTicks": 11,
          "midi": 68,
          "name": "G#4",
          "ticks": 9888,
          "time": 90.882256,
          "velocity": 0.7795275590551181
        },
        {
          "duration": 0.10110283333332859,
          "durationTicks": 11,
          "midi": 75,
          "name": "D#5",
          "ticks": 9900,
          "time": 90.99255,
          "velocity": 0.7795275590551181
        },
        {
          "duration": 0.10110283333332859,
          "durationTicks": 11,
          "midi": 68,
          "name": "G#4",
          "ticks": 9912,
          "time": 91.102844,
          "velocity": 0.7795275590551181
        },
        {
          "duration": 0.10110283333332859,
          "durationTicks": 11,
          "midi": 68,
          "name": "G#4",
          "ticks": 9924,
          "time": 91.213138,
          "velocity": 0.7795275590551181
        },
        {
          "duration": 0.10110283333332859,
          "durationTicks": 11,
          "midi": 70,
          "name": "A#4",
          "ticks": 9936,
          "time": 91.323432,
          "velocity": 0.7795275590551181
        },
        {
          "duration": 0.10110283333332859,
          "durationTicks": 11,
          "midi": 68,
          "name": "G#4",
          "ticks": 9948,
          "time": 91.43372600000001,
          "velocity": 0.7795275590551181
        },
        {
          "duration": 0.10110283333332859,
          "durationTicks": 11,
          "midi": 68,
          "name": "G#4",
          "ticks": 9960,
          "time": 91.54402,
          "velocity": 0.7795275590551181
        },
        {
          "duration": 0.10110283333332859,
          "durationTicks": 11,
          "midi": 75,
          "name": "D#5",
          "ticks": 9972,
          "time": 91.654314,
          "velocity": 0.7795275590551181
        },
        {
          "duration": 0.10110283333332859,
          "durationTicks": 11,
          "midi": 68,
          "name": "G#4",
          "ticks": 9984,
          "time": 91.764608,
          "velocity": 0.7795275590551181
        },
        {
          "duration": 0.10110283333332859,
          "durationTicks": 11,
          "midi": 68,
          "name": "G#4",
          "ticks": 9996,
          "time": 91.874902,
          "velocity": 0.7795275590551181
        },
        {
          "duration": 0.10110283333332859,
          "durationTicks": 11,
          "midi": 75,
          "name": "D#5",
          "ticks": 10008,
          "time": 91.985196,
          "velocity": 0.7795275590551181
        },
        {
          "duration": 0.10110283333332859,
          "durationTicks": 11,
          "midi": 77,
          "name": "F5",
          "ticks": 10020,
          "time": 92.09549,
          "velocity": 0.7795275590551181
        },
        {
          "duration": 0.10110283333332859,
          "durationTicks": 11,
          "midi": 68,
          "name": "G#4",
          "ticks": 10032,
          "time": 92.205784,
          "velocity": 0.7795275590551181
        },
        {
          "duration": 0.10110283333332859,
          "durationTicks": 11,
          "midi": 68,
          "name": "G#4",
          "ticks": 10044,
          "time": 92.316078,
          "velocity": 0.7795275590551181
        },
        {
          "duration": 0.10110283333332859,
          "durationTicks": 11,
          "midi": 77,
          "name": "F5",
          "ticks": 10056,
          "time": 92.426372,
          "velocity": 0.7795275590551181
        },
        {
          "duration": 0.10110283333332859,
          "durationTicks": 11,
          "midi": 68,
          "name": "G#4",
          "ticks": 10068,
          "time": 92.536666,
          "velocity": 0.7795275590551181
        },
        {
          "duration": 0.10110283333332859,
          "durationTicks": 11,
          "midi": 68,
          "name": "G#4",
          "ticks": 10080,
          "time": 92.64696,
          "velocity": 0.7795275590551181
        },
        {
          "duration": 0.10110283333332859,
          "durationTicks": 11,
          "midi": 75,
          "name": "D#5",
          "ticks": 10092,
          "time": 92.757254,
          "velocity": 0.7795275590551181
        },
        {
          "duration": 0.10110283333332859,
          "durationTicks": 11,
          "midi": 68,
          "name": "G#4",
          "ticks": 10104,
          "time": 92.867548,
          "velocity": 0.7795275590551181
        },
        {
          "duration": 0.10110283333332859,
          "durationTicks": 11,
          "midi": 68,
          "name": "G#4",
          "ticks": 10116,
          "time": 92.977842,
          "velocity": 0.7795275590551181
        },
        {
          "duration": 0.10110283333332859,
          "durationTicks": 11,
          "midi": 70,
          "name": "A#4",
          "ticks": 10128,
          "time": 93.088136,
          "velocity": 0.7795275590551181
        },
        {
          "duration": 0.10110283333332859,
          "durationTicks": 11,
          "midi": 68,
          "name": "G#4",
          "ticks": 10140,
          "time": 93.19843,
          "velocity": 0.7795275590551181
        },
        {
          "duration": 0.10110283333332859,
          "durationTicks": 11,
          "midi": 68,
          "name": "G#4",
          "ticks": 10152,
          "time": 93.308724,
          "velocity": 0.7795275590551181
        },
        {
          "duration": 0.1011028333333428,
          "durationTicks": 11,
          "midi": 75,
          "name": "D#5",
          "ticks": 10164,
          "time": 93.419018,
          "velocity": 0.7795275590551181
        },
        {
          "duration": 0.10110283333332859,
          "durationTicks": 11,
          "midi": 68,
          "name": "G#4",
          "ticks": 10176,
          "time": 93.529312,
          "velocity": 0.7795275590551181
        },
        {
          "duration": 0.10110283333332859,
          "durationTicks": 11,
          "midi": 68,
          "name": "G#4",
          "ticks": 10188,
          "time": 93.639606,
          "velocity": 0.7795275590551181
        },
        {
          "duration": 0.10110283333332859,
          "durationTicks": 11,
          "midi": 75,
          "name": "D#5",
          "ticks": 10200,
          "time": 93.7499,
          "velocity": 0.7795275590551181
        },
        {
          "duration": 0.10110283333332859,
          "durationTicks": 11,
          "midi": 77,
          "name": "F5",
          "ticks": 10212,
          "time": 93.860194,
          "velocity": 0.7795275590551181
        },
        {
          "duration": 0.10110283333332859,
          "durationTicks": 11,
          "midi": 68,
          "name": "G#4",
          "ticks": 10224,
          "time": 93.970488,
          "velocity": 0.7795275590551181
        },
        {
          "duration": 0.10110283333332859,
          "durationTicks": 11,
          "midi": 68,
          "name": "G#4",
          "ticks": 10236,
          "time": 94.080782,
          "velocity": 0.7795275590551181
        },
        {
          "duration": 0.10110283333332859,
          "durationTicks": 11,
          "midi": 77,
          "name": "F5",
          "ticks": 10248,
          "time": 94.191076,
          "velocity": 0.7795275590551181
        },
        {
          "duration": 0.10110283333332859,
          "durationTicks": 11,
          "midi": 68,
          "name": "G#4",
          "ticks": 10260,
          "time": 94.30137,
          "velocity": 0.7795275590551181
        },
        {
          "duration": 0.10110283333332859,
          "durationTicks": 11,
          "midi": 68,
          "name": "G#4",
          "ticks": 10272,
          "time": 94.411664,
          "velocity": 0.7795275590551181
        },
        {
          "duration": 0.10110283333332859,
          "durationTicks": 11,
          "midi": 75,
          "name": "D#5",
          "ticks": 10284,
          "time": 94.521958,
          "velocity": 0.7795275590551181
        },
        {
          "duration": 0.1011028333333428,
          "durationTicks": 11,
          "midi": 68,
          "name": "G#4",
          "ticks": 10296,
          "time": 94.632252,
          "velocity": 0.7795275590551181
        },
        {
          "duration": 0.10110283333332859,
          "durationTicks": 11,
          "midi": 68,
          "name": "G#4",
          "ticks": 10308,
          "time": 94.742546,
          "velocity": 0.7795275590551181
        },
        {
          "duration": 0.10110283333332859,
          "durationTicks": 11,
          "midi": 70,
          "name": "A#4",
          "ticks": 10320,
          "time": 94.85284,
          "velocity": 0.7795275590551181
        },
        {
          "duration": 0.10110283333332859,
          "durationTicks": 11,
          "midi": 68,
          "name": "G#4",
          "ticks": 10332,
          "time": 94.963134,
          "velocity": 0.7795275590551181
        },
        {
          "duration": 0.10110283333332859,
          "durationTicks": 11,
          "midi": 68,
          "name": "G#4",
          "ticks": 10344,
          "time": 95.073428,
          "velocity": 0.7795275590551181
        },
        {
          "duration": 0.10110283333332859,
          "durationTicks": 11,
          "midi": 75,
          "name": "D#5",
          "ticks": 10356,
          "time": 95.183722,
          "velocity": 0.7795275590551181
        },
        {
          "duration": 0.10110283333332859,
          "durationTicks": 11,
          "midi": 68,
          "name": "G#4",
          "ticks": 10368,
          "time": 95.294016,
          "velocity": 0.7795275590551181
        },
        {
          "duration": 0.10110283333332859,
          "durationTicks": 11,
          "midi": 68,
          "name": "G#4",
          "ticks": 10380,
          "time": 95.40431,
          "velocity": 0.7795275590551181
        },
        {
          "duration": 0.10110283333332859,
          "durationTicks": 11,
          "midi": 75,
          "name": "D#5",
          "ticks": 10392,
          "time": 95.514604,
          "velocity": 0.7795275590551181
        },
        {
          "duration": 0.10110283333332859,
          "durationTicks": 11,
          "midi": 77,
          "name": "F5",
          "ticks": 10404,
          "time": 95.624898,
          "velocity": 0.7795275590551181
        },
        {
          "duration": 0.10110283333332859,
          "durationTicks": 11,
          "midi": 68,
          "name": "G#4",
          "ticks": 10416,
          "time": 95.735192,
          "velocity": 0.7795275590551181
        },
        {
          "duration": 0.1011028333333428,
          "durationTicks": 11,
          "midi": 68,
          "name": "G#4",
          "ticks": 10428,
          "time": 95.845486,
          "velocity": 0.7795275590551181
        },
        {
          "duration": 0.10110283333332859,
          "durationTicks": 11,
          "midi": 77,
          "name": "F5",
          "ticks": 10440,
          "time": 95.95578,
          "velocity": 0.7795275590551181
        },
        {
          "duration": 0.10110283333332859,
          "durationTicks": 11,
          "midi": 68,
          "name": "G#4",
          "ticks": 10452,
          "time": 96.066074,
          "velocity": 0.7795275590551181
        },
        {
          "duration": 0.10110283333332859,
          "durationTicks": 11,
          "midi": 68,
          "name": "G#4",
          "ticks": 10464,
          "time": 96.176368,
          "velocity": 0.7795275590551181
        },
        {
          "duration": 0.10110283333332859,
          "durationTicks": 11,
          "midi": 75,
          "name": "D#5",
          "ticks": 10476,
          "time": 96.286662,
          "velocity": 0.7795275590551181
        },
        {
          "duration": 0.10110283333332859,
          "durationTicks": 11,
          "midi": 68,
          "name": "G#4",
          "ticks": 10488,
          "time": 96.396956,
          "velocity": 0.7795275590551181
        },
        {
          "duration": 0.10110283333332859,
          "durationTicks": 11,
          "midi": 68,
          "name": "G#4",
          "ticks": 10500,
          "time": 96.50725,
          "velocity": 0.7795275590551181
        },
        {
          "duration": 0.10110283333332859,
          "durationTicks": 11,
          "midi": 70,
          "name": "A#4",
          "ticks": 10512,
          "time": 96.617544,
          "velocity": 0.7795275590551181
        },
        {
          "duration": 0.10110283333332859,
          "durationTicks": 11,
          "midi": 68,
          "name": "G#4",
          "ticks": 10524,
          "time": 96.727838,
          "velocity": 0.7795275590551181
        },
        {
          "duration": 0.10110283333332859,
          "durationTicks": 11,
          "midi": 68,
          "name": "G#4",
          "ticks": 10536,
          "time": 96.838132,
          "velocity": 0.7795275590551181
        },
        {
          "duration": 0.10110283333332859,
          "durationTicks": 11,
          "midi": 75,
          "name": "D#5",
          "ticks": 10548,
          "time": 96.948426,
          "velocity": 0.7795275590551181
        },
        {
          "duration": 0.1011028333333428,
          "durationTicks": 11,
          "midi": 68,
          "name": "G#4",
          "ticks": 10560,
          "time": 97.05872,
          "velocity": 0.7795275590551181
        },
        {
          "duration": 0.10110283333332859,
          "durationTicks": 11,
          "midi": 68,
          "name": "G#4",
          "ticks": 10572,
          "time": 97.169014,
          "velocity": 0.7795275590551181
        },
        {
          "duration": 0.10110283333332859,
          "durationTicks": 11,
          "midi": 75,
          "name": "D#5",
          "ticks": 10584,
          "time": 97.279308,
          "velocity": 0.7795275590551181
        },
        {
          "duration": 0.10110283333332859,
          "durationTicks": 11,
          "midi": 77,
          "name": "F5",
          "ticks": 10596,
          "time": 97.389602,
          "velocity": 0.7795275590551181
        },
        {
          "duration": 0.10110283333332859,
          "durationTicks": 11,
          "midi": 68,
          "name": "G#4",
          "ticks": 10608,
          "time": 97.499896,
          "velocity": 0.7795275590551181
        },
        {
          "duration": 0.10110283333332859,
          "durationTicks": 11,
          "midi": 68,
          "name": "G#4",
          "ticks": 10620,
          "time": 97.61019,
          "velocity": 0.7795275590551181
        },
        {
          "duration": 0.10110283333332859,
          "durationTicks": 11,
          "midi": 77,
          "name": "F5",
          "ticks": 10632,
          "time": 97.720484,
          "velocity": 0.7795275590551181
        },
        {
          "duration": 0.10110283333332859,
          "durationTicks": 11,
          "midi": 68,
          "name": "G#4",
          "ticks": 10644,
          "time": 97.830778,
          "velocity": 0.7795275590551181
        },
        {
          "duration": 0.10110283333332859,
          "durationTicks": 11,
          "midi": 68,
          "name": "G#4",
          "ticks": 10656,
          "time": 97.941072,
          "velocity": 0.7795275590551181
        },
        {
          "duration": 0.10110283333332859,
          "durationTicks": 11,
          "midi": 75,
          "name": "D#5",
          "ticks": 10668,
          "time": 98.051366,
          "velocity": 0.7795275590551181
        },
        {
          "duration": 0.10110283333332859,
          "durationTicks": 11,
          "midi": 68,
          "name": "G#4",
          "ticks": 10680,
          "time": 98.16166,
          "velocity": 0.7795275590551181
        },
        {
          "duration": 0.1011028333333428,
          "durationTicks": 11,
          "midi": 68,
          "name": "G#4",
          "ticks": 10692,
          "time": 98.271954,
          "velocity": 0.7795275590551181
        },
        {
          "duration": 0.10110283333332859,
          "durationTicks": 11,
          "midi": 70,
          "name": "A#4",
          "ticks": 10704,
          "time": 98.382248,
          "velocity": 0.7795275590551181
        },
        {
          "duration": 0.10110283333332859,
          "durationTicks": 11,
          "midi": 68,
          "name": "G#4",
          "ticks": 10716,
          "time": 98.492542,
          "velocity": 0.7795275590551181
        },
        {
          "duration": 0.10110283333332859,
          "durationTicks": 11,
          "midi": 68,
          "name": "G#4",
          "ticks": 10728,
          "time": 98.602836,
          "velocity": 0.7795275590551181
        },
        {
          "duration": 0.10110283333332859,
          "durationTicks": 11,
          "midi": 75,
          "name": "D#5",
          "ticks": 10740,
          "time": 98.71313,
          "velocity": 0.7795275590551181
        },
        {
          "duration": 0.10110283333332859,
          "durationTicks": 11,
          "midi": 68,
          "name": "G#4",
          "ticks": 10752,
          "time": 98.823424,
          "velocity": 0.7795275590551181
        },
        {
          "duration": 0.10110283333332859,
          "durationTicks": 11,
          "midi": 68,
          "name": "G#4",
          "ticks": 10764,
          "time": 98.933718,
          "velocity": 0.7795275590551181
        },
        {
          "duration": 0.10110283333332859,
          "durationTicks": 11,
          "midi": 75,
          "name": "D#5",
          "ticks": 10776,
          "time": 99.044012,
          "velocity": 0.7795275590551181
        },
        {
          "duration": 0.10110283333332859,
          "durationTicks": 11,
          "midi": 77,
          "name": "F5",
          "ticks": 10788,
          "time": 99.154306,
          "velocity": 0.7795275590551181
        },
        {
          "duration": 0.10110283333332859,
          "durationTicks": 11,
          "midi": 68,
          "name": "G#4",
          "ticks": 10800,
          "time": 99.2646,
          "velocity": 0.7795275590551181
        },
        {
          "duration": 0.10110283333332859,
          "durationTicks": 11,
          "midi": 73,
          "name": "C#5",
          "ticks": 10812,
          "time": 99.374894,
          "velocity": 0.7795275590551181
        },
        {
          "duration": 0.1011028333333428,
          "durationTicks": 11,
          "midi": 77,
          "name": "F5",
          "ticks": 10824,
          "time": 99.485188,
          "velocity": 0.7795275590551181
        },
        {
          "duration": 0.10110283333332859,
          "durationTicks": 11,
          "midi": 68,
          "name": "G#4",
          "ticks": 10836,
          "time": 99.595482,
          "velocity": 0.7795275590551181
        },
        {
          "duration": 0.10110283333332859,
          "durationTicks": 11,
          "midi": 68,
          "name": "G#4",
          "ticks": 10848,
          "time": 99.705776,
          "velocity": 0.7795275590551181
        },
        {
          "duration": 0.10110283333332859,
          "durationTicks": 11,
          "midi": 75,
          "name": "D#5",
          "ticks": 10860,
          "time": 99.81607,
          "velocity": 0.7795275590551181
        },
        {
          "duration": 0.10110283333332859,
          "durationTicks": 11,
          "midi": 68,
          "name": "G#4",
          "ticks": 10872,
          "time": 99.926364,
          "velocity": 0.7795275590551181
        },
        {
          "duration": 0.10110283333332859,
          "durationTicks": 11,
          "midi": 68,
          "name": "G#4",
          "ticks": 10884,
          "time": 100.036658,
          "velocity": 0.7795275590551181
        },
        {
          "duration": 0.10110283333332859,
          "durationTicks": 11,
          "midi": 70,
          "name": "A#4",
          "ticks": 10896,
          "time": 100.146952,
          "velocity": 0.7795275590551181
        },
        {
          "duration": 0.10110283333332859,
          "durationTicks": 11,
          "midi": 68,
          "name": "G#4",
          "ticks": 10908,
          "time": 100.257246,
          "velocity": 0.7795275590551181
        },
        {
          "duration": 0.10110283333332859,
          "durationTicks": 11,
          "midi": 68,
          "name": "G#4",
          "ticks": 10920,
          "time": 100.36754,
          "velocity": 0.7795275590551181
        },
        {
          "duration": 0.10110283333332859,
          "durationTicks": 11,
          "midi": 75,
          "name": "D#5",
          "ticks": 10932,
          "time": 100.477834,
          "velocity": 0.7795275590551181
        },
        {
          "duration": 0.10110283333332859,
          "durationTicks": 11,
          "midi": 68,
          "name": "G#4",
          "ticks": 10944,
          "time": 100.588128,
          "velocity": 0.7795275590551181
        },
        {
          "duration": 0.10110283333332859,
          "durationTicks": 11,
          "midi": 68,
          "name": "G#4",
          "ticks": 10956,
          "time": 100.69842200000001,
          "velocity": 0.7795275590551181
        },
        {
          "duration": 0.10110283333332859,
          "durationTicks": 11,
          "midi": 75,
          "name": "D#5",
          "ticks": 10968,
          "time": 100.808716,
          "velocity": 0.7795275590551181
        },
        {
          "duration": 0.10110283333332859,
          "durationTicks": 11,
          "midi": 77,
          "name": "F5",
          "ticks": 10980,
          "time": 100.91901,
          "velocity": 0.7795275590551181
        },
        {
          "duration": 0.10110283333332859,
          "durationTicks": 11,
          "midi": 68,
          "name": "G#4",
          "ticks": 10992,
          "time": 101.029304,
          "velocity": 0.7795275590551181
        },
        {
          "duration": 0.10110283333332859,
          "durationTicks": 11,
          "midi": 68,
          "name": "G#4",
          "ticks": 11004,
          "time": 101.139598,
          "velocity": 0.7795275590551181
        },
        {
          "duration": 0.10110283333332859,
          "durationTicks": 11,
          "midi": 77,
          "name": "F5",
          "ticks": 11016,
          "time": 101.249892,
          "velocity": 0.7795275590551181
        },
        {
          "duration": 0.10110283333332859,
          "durationTicks": 11,
          "midi": 68,
          "name": "G#4",
          "ticks": 11028,
          "time": 101.360186,
          "velocity": 0.7795275590551181
        },
        {
          "duration": 0.10110283333332859,
          "durationTicks": 11,
          "midi": 68,
          "name": "G#4",
          "ticks": 11040,
          "time": 101.47048,
          "velocity": 0.7795275590551181
        },
        {
          "duration": 0.10110283333332859,
          "durationTicks": 11,
          "midi": 77,
          "name": "F5",
          "ticks": 11052,
          "time": 101.580774,
          "velocity": 0.7795275590551181
        },
        {
          "duration": 0.10110283333332859,
          "durationTicks": 11,
          "midi": 68,
          "name": "G#4",
          "ticks": 11064,
          "time": 101.691068,
          "velocity": 0.7795275590551181
        },
        {
          "duration": 0.10110283333332859,
          "durationTicks": 11,
          "midi": 77,
          "name": "F5",
          "ticks": 11076,
          "time": 101.801362,
          "velocity": 0.7795275590551181
        },
        {
          "duration": 0.10110283333335701,
          "durationTicks": 11,
          "midi": 61,
          "name": "C#4",
          "ticks": 15024,
          "time": 138.088088,
          "velocity": 0.7795275590551181
        },
        {
          "duration": 0.10110283333332859,
          "durationTicks": 11,
          "midi": 66,
          "name": "F#4",
          "ticks": 15036,
          "time": 138.198382,
          "velocity": 0.7795275590551181
        },
        {
          "duration": 0.10110283333335701,
          "durationTicks": 11,
          "midi": 73,
          "name": "C#5",
          "ticks": 15048,
          "time": 138.308676,
          "velocity": 0.7795275590551181
        },
        {
          "duration": 0.10110283333335701,
          "durationTicks": 11,
          "midi": 61,
          "name": "C#4",
          "ticks": 15060,
          "time": 138.41897,
          "velocity": 0.7795275590551181
        },
        {
          "duration": 0.10110283333332859,
          "durationTicks": 11,
          "midi": 66,
          "name": "F#4",
          "ticks": 15072,
          "time": 138.529264,
          "velocity": 0.7795275590551181
        },
        {
          "duration": 0.10110283333335701,
          "durationTicks": 11,
          "midi": 72,
          "name": "C5",
          "ticks": 15084,
          "time": 138.639558,
          "velocity": 0.7795275590551181
        },
        {
          "duration": 0.10110283333332859,
          "durationTicks": 11,
          "midi": 61,
          "name": "C#4",
          "ticks": 15096,
          "time": 138.749852,
          "velocity": 0.7795275590551181
        },
        {
          "duration": 0.10110283333332859,
          "durationTicks": 11,
          "midi": 66,
          "name": "F#4",
          "ticks": 15108,
          "time": 138.86014600000001,
          "velocity": 0.7795275590551181
        },
        {
          "duration": 0.10110283333335701,
          "durationTicks": 11,
          "midi": 73,
          "name": "C#5",
          "ticks": 15120,
          "time": 138.97044,
          "velocity": 0.7795275590551181
        },
        {
          "duration": 0.10110283333332859,
          "durationTicks": 11,
          "midi": 61,
          "name": "C#4",
          "ticks": 15132,
          "time": 139.080734,
          "velocity": 0.7795275590551181
        },
        {
          "duration": 0.10110283333332859,
          "durationTicks": 11,
          "midi": 66,
          "name": "F#4",
          "ticks": 15144,
          "time": 139.19102800000002,
          "velocity": 0.7795275590551181
        },
        {
          "duration": 0.10110283333335701,
          "durationTicks": 11,
          "midi": 72,
          "name": "C5",
          "ticks": 15156,
          "time": 139.301322,
          "velocity": 0.7795275590551181
        },
        {
          "duration": 0.10110283333332859,
          "durationTicks": 11,
          "midi": 61,
          "name": "C#4",
          "ticks": 15168,
          "time": 139.411616,
          "velocity": 0.7795275590551181
        },
        {
          "duration": 0.10110283333335701,
          "durationTicks": 11,
          "midi": 66,
          "name": "F#4",
          "ticks": 15180,
          "time": 139.52191,
          "velocity": 0.7795275590551181
        },
        {
          "duration": 0.10110283333335701,
          "durationTicks": 11,
          "midi": 75,
          "name": "D#5",
          "ticks": 15192,
          "time": 139.632204,
          "velocity": 0.7795275590551181
        },
        {
          "duration": 0.10110283333332859,
          "durationTicks": 11,
          "midi": 73,
          "name": "C#5",
          "ticks": 15204,
          "time": 139.742498,
          "velocity": 0.7795275590551181
        },
        {
          "duration": 0.10110283333335701,
          "durationTicks": 11,
          "midi": 61,
          "name": "C#4",
          "ticks": 15216,
          "time": 139.852792,
          "velocity": 0.7795275590551181
        },
        {
          "duration": 0.10110283333332859,
          "durationTicks": 11,
          "midi": 68,
          "name": "G#4",
          "ticks": 15228,
          "time": 139.963086,
          "velocity": 0.7795275590551181
        },
        {
          "duration": 0.10110283333332859,
          "durationTicks": 11,
          "midi": 73,
          "name": "C#5",
          "ticks": 15240,
          "time": 140.07338000000001,
          "velocity": 0.7795275590551181
        },
        {
          "duration": 0.10110283333335701,
          "durationTicks": 11,
          "midi": 61,
          "name": "C#4",
          "ticks": 15252,
          "time": 140.183674,
          "velocity": 0.7795275590551181
        },
        {
          "duration": 0.10110283333332859,
          "durationTicks": 11,
          "midi": 68,
          "name": "G#4",
          "ticks": 15264,
          "time": 140.293968,
          "velocity": 0.7795275590551181
        },
        {
          "duration": 0.10110283333332859,
          "durationTicks": 11,
          "midi": 72,
          "name": "C5",
          "ticks": 15276,
          "time": 140.40426200000002,
          "velocity": 0.7795275590551181
        },
        {
          "duration": 0.10110283333335701,
          "durationTicks": 11,
          "midi": 61,
          "name": "C#4",
          "ticks": 15288,
          "time": 140.514556,
          "velocity": 0.7795275590551181
        },
        {
          "duration": 0.10110283333332859,
          "durationTicks": 11,
          "midi": 68,
          "name": "G#4",
          "ticks": 15300,
          "time": 140.62485,
          "velocity": 0.7795275590551181
        },
        {
          "duration": 0.10110283333335701,
          "durationTicks": 11,
          "midi": 73,
          "name": "C#5",
          "ticks": 15312,
          "time": 140.735144,
          "velocity": 0.7795275590551181
        },
        {
          "duration": 0.10110283333335701,
          "durationTicks": 11,
          "midi": 61,
          "name": "C#4",
          "ticks": 15324,
          "time": 140.845438,
          "velocity": 0.7795275590551181
        },
        {
          "duration": 0.10110283333332859,
          "durationTicks": 11,
          "midi": 68,
          "name": "G#4",
          "ticks": 15336,
          "time": 140.955732,
          "velocity": 0.7795275590551181
        },
        {
          "duration": 0.10110283333335701,
          "durationTicks": 11,
          "midi": 72,
          "name": "C5",
          "ticks": 15348,
          "time": 141.066026,
          "velocity": 0.7795275590551181
        },
        {
          "duration": 0.10110283333332859,
          "durationTicks": 11,
          "midi": 61,
          "name": "C#4",
          "ticks": 15360,
          "time": 141.17632,
          "velocity": 0.7795275590551181
        },
        {
          "duration": 0.10110283333332859,
          "durationTicks": 11,
          "midi": 68,
          "name": "G#4",
          "ticks": 15372,
          "time": 141.28661400000001,
          "velocity": 0.7795275590551181
        },
        {
          "duration": 0.10110283333335701,
          "durationTicks": 11,
          "midi": 75,
          "name": "D#5",
          "ticks": 15384,
          "time": 141.396908,
          "velocity": 0.7795275590551181
        },
        {
          "duration": 0.10110283333332859,
          "durationTicks": 11,
          "midi": 73,
          "name": "C#5",
          "ticks": 15396,
          "time": 141.507202,
          "velocity": 0.7795275590551181
        },
        {
          "duration": 0.10110283333332859,
          "durationTicks": 11,
          "midi": 61,
          "name": "C#4",
          "ticks": 15408,
          "time": 141.61749600000002,
          "velocity": 0.7795275590551181
        },
        {
          "duration": 0.10110283333335701,
          "durationTicks": 11,
          "midi": 68,
          "name": "G#4",
          "ticks": 15420,
          "time": 141.72779,
          "velocity": 0.7795275590551181
        },
        {
          "duration": 0.10110283333332859,
          "durationTicks": 11,
          "midi": 73,
          "name": "C#5",
          "ticks": 15432,
          "time": 141.838084,
          "velocity": 0.7795275590551181
        },
        {
          "duration": 0.10110283333335701,
          "durationTicks": 11,
          "midi": 61,
          "name": "C#4",
          "ticks": 15444,
          "time": 141.948378,
          "velocity": 0.7795275590551181
        },
        {
          "duration": 0.10110283333335701,
          "durationTicks": 11,
          "midi": 68,
          "name": "G#4",
          "ticks": 15456,
          "time": 142.058672,
          "velocity": 0.7795275590551181
        },
        {
          "duration": 0.10110283333332859,
          "durationTicks": 11,
          "midi": 72,
          "name": "C5",
          "ticks": 15468,
          "time": 142.168966,
          "velocity": 0.7795275590551181
        },
        {
          "duration": 0.10110283333335701,
          "durationTicks": 11,
          "midi": 61,
          "name": "C#4",
          "ticks": 15480,
          "time": 142.27926,
          "velocity": 0.7795275590551181
        },
        {
          "duration": 0.10110283333332859,
          "durationTicks": 11,
          "midi": 68,
          "name": "G#4",
          "ticks": 15492,
          "time": 142.389554,
          "velocity": 0.7795275590551181
        },
        {
          "duration": 0.10110283333332859,
          "durationTicks": 11,
          "midi": 73,
          "name": "C#5",
          "ticks": 15504,
          "time": 142.49984800000001,
          "velocity": 0.7795275590551181
        },
        {
          "duration": 0.10110283333335701,
          "durationTicks": 11,
          "midi": 61,
          "name": "C#4",
          "ticks": 15516,
          "time": 142.610142,
          "velocity": 0.7795275590551181
        },
        {
          "duration": 0.10110283333332859,
          "durationTicks": 11,
          "midi": 68,
          "name": "G#4",
          "ticks": 15528,
          "time": 142.720436,
          "velocity": 0.7795275590551181
        },
        {
          "duration": 0.10110283333332859,
          "durationTicks": 11,
          "midi": 72,
          "name": "C5",
          "ticks": 15540,
          "time": 142.83073000000002,
          "velocity": 0.7795275590551181
        },
        {
          "duration": 0.10110283333335701,
          "durationTicks": 11,
          "midi": 61,
          "name": "C#4",
          "ticks": 15552,
          "time": 142.941024,
          "velocity": 0.7795275590551181
        },
        {
          "duration": 0.10110283333332859,
          "durationTicks": 11,
          "midi": 68,
          "name": "G#4",
          "ticks": 15564,
          "time": 143.051318,
          "velocity": 0.7795275590551181
        },
        {
          "duration": 0.10110283333335701,
          "durationTicks": 11,
          "midi": 75,
          "name": "D#5",
          "ticks": 15576,
          "time": 143.161612,
          "velocity": 0.7795275590551181
        },
        {
          "duration": 0.10110283333335701,
          "durationTicks": 11,
          "midi": 73,
          "name": "C#5",
          "ticks": 15588,
          "time": 143.271906,
          "velocity": 0.7795275590551181
        },
        {
          "duration": 0.10110283333332859,
          "durationTicks": 11,
          "midi": 61,
          "name": "C#4",
          "ticks": 15600,
          "time": 143.3822,
          "velocity": 0.7795275590551181
        },
        {
          "duration": 0.10110283333335701,
          "durationTicks": 11,
          "midi": 70,
          "name": "A#4",
          "ticks": 15612,
          "time": 143.492494,
          "velocity": 0.7795275590551181
        },
        {
          "duration": 0.10110283333332859,
          "durationTicks": 11,
          "midi": 73,
          "name": "C#5",
          "ticks": 15624,
          "time": 143.602788,
          "velocity": 0.7795275590551181
        },
        {
          "duration": 0.10110283333332859,
          "durationTicks": 11,
          "midi": 61,
          "name": "C#4",
          "ticks": 15636,
          "time": 143.713082,
          "velocity": 0.7795275590551181
        },
        {
          "duration": 0.10110283333335701,
          "durationTicks": 11,
          "midi": 70,
          "name": "A#4",
          "ticks": 15648,
          "time": 143.823376,
          "velocity": 0.7795275590551181
        },
        {
          "duration": 0.10110283333332859,
          "durationTicks": 11,
          "midi": 72,
          "name": "C5",
          "ticks": 15660,
          "time": 143.93367,
          "velocity": 0.7795275590551181
        },
        {
          "duration": 0.10110283333332859,
          "durationTicks": 11,
          "midi": 61,
          "name": "C#4",
          "ticks": 15672,
          "time": 144.04396400000002,
          "velocity": 0.7795275590551181
        },
        {
          "duration": 0.10110283333335701,
          "durationTicks": 11,
          "midi": 70,
          "name": "A#4",
          "ticks": 15684,
          "time": 144.154258,
          "velocity": 0.7795275590551181
        },
        {
          "duration": 0.10110283333332859,
          "durationTicks": 11,
          "midi": 73,
          "name": "C#5",
          "ticks": 15696,
          "time": 144.264552,
          "velocity": 0.7795275590551181
        },
        {
          "duration": 0.10110283333335701,
          "durationTicks": 11,
          "midi": 61,
          "name": "C#4",
          "ticks": 15708,
          "time": 144.374846,
          "velocity": 0.7795275590551181
        },
        {
          "duration": 0.10110283333335701,
          "durationTicks": 11,
          "midi": 70,
          "name": "A#4",
          "ticks": 15720,
          "time": 144.48514,
          "velocity": 0.7795275590551181
        },
        {
          "duration": 0.10110283333332859,
          "durationTicks": 11,
          "midi": 72,
          "name": "C5",
          "ticks": 15732,
          "time": 144.595434,
          "velocity": 0.7795275590551181
        },
        {
          "duration": 0.10110283333335701,
          "durationTicks": 11,
          "midi": 61,
          "name": "C#4",
          "ticks": 15744,
          "time": 144.705728,
          "velocity": 0.7795275590551181
        },
        {
          "duration": 0.10110283333332859,
          "durationTicks": 11,
          "midi": 70,
          "name": "A#4",
          "ticks": 15756,
          "time": 144.816022,
          "velocity": 0.7795275590551181
        },
        {
          "duration": 0.10110283333332859,
          "durationTicks": 11,
          "midi": 75,
          "name": "D#5",
          "ticks": 15768,
          "time": 144.926316,
          "velocity": 0.7795275590551181
        },
        {
          "duration": 0.10110283333335701,
          "durationTicks": 11,
          "midi": 73,
          "name": "C#5",
          "ticks": 15780,
          "time": 145.03661,
          "velocity": 0.7795275590551181
        },
        {
          "duration": 0.10110283333332859,
          "durationTicks": 11,
          "midi": 61,
          "name": "C#4",
          "ticks": 15792,
          "time": 145.146904,
          "velocity": 0.7795275590551181
        },
        {
          "duration": 0.10110283333332859,
          "durationTicks": 11,
          "midi": 66,
          "name": "F#4",
          "ticks": 15804,
          "time": 145.25719800000002,
          "velocity": 0.7795275590551181
        },
        {
          "duration": 0.10110283333335701,
          "durationTicks": 11,
          "midi": 73,
          "name": "C#5",
          "ticks": 15816,
          "time": 145.367492,
          "velocity": 0.7795275590551181
        },
        {
          "duration": 0.10110283333332859,
          "durationTicks": 11,
          "midi": 61,
          "name": "C#4",
          "ticks": 15828,
          "time": 145.477786,
          "velocity": 0.7795275590551181
        },
        {
          "duration": 0.10110283333335701,
          "durationTicks": 11,
          "midi": 66,
          "name": "F#4",
          "ticks": 15840,
          "time": 145.58808,
          "velocity": 0.7795275590551181
        },
        {
          "duration": 0.10110283333335701,
          "durationTicks": 11,
          "midi": 72,
          "name": "C5",
          "ticks": 15852,
          "time": 145.698374,
          "velocity": 0.7795275590551181
        },
        {
          "duration": 0.10110283333332859,
          "durationTicks": 11,
          "midi": 61,
          "name": "C#4",
          "ticks": 15864,
          "time": 145.808668,
          "velocity": 0.7795275590551181
        },
        {
          "duration": 0.10110283333335701,
          "durationTicks": 11,
          "midi": 66,
          "name": "F#4",
          "ticks": 15876,
          "time": 145.918962,
          "velocity": 0.7795275590551181
        },
        {
          "duration": 0.10110283333332859,
          "durationTicks": 11,
          "midi": 73,
          "name": "C#5",
          "ticks": 15888,
          "time": 146.029256,
          "velocity": 0.7795275590551181
        },
        {
          "duration": 0.10110283333332859,
          "durationTicks": 11,
          "midi": 61,
          "name": "C#4",
          "ticks": 15900,
          "time": 146.13955,
          "velocity": 0.7795275590551181
        },
        {
          "duration": 0.10110283333335701,
          "durationTicks": 11,
          "midi": 66,
          "name": "F#4",
          "ticks": 15912,
          "time": 146.249844,
          "velocity": 0.7795275590551181
        },
        {
          "duration": 0.10110283333332859,
          "durationTicks": 11,
          "midi": 72,
          "name": "C5",
          "ticks": 15924,
          "time": 146.360138,
          "velocity": 0.7795275590551181
        },
        {
          "duration": 0.10110283333332859,
          "durationTicks": 11,
          "midi": 61,
          "name": "C#4",
          "ticks": 15936,
          "time": 146.47043200000002,
          "velocity": 0.7795275590551181
        },
        {
          "duration": 0.10110283333335701,
          "durationTicks": 11,
          "midi": 66,
          "name": "F#4",
          "ticks": 15948,
          "time": 146.580726,
          "velocity": 0.7795275590551181
        },
        {
          "duration": 0.10110283333332859,
          "durationTicks": 11,
          "midi": 75,
          "name": "D#5",
          "ticks": 15960,
          "time": 146.69102,
          "velocity": 0.7795275590551181
        },
        {
          "duration": 0.10110283333335701,
          "durationTicks": 11,
          "midi": 73,
          "name": "C#5",
          "ticks": 15972,
          "time": 146.801314,
          "velocity": 0.7795275590551181
        },
        {
          "duration": 0.10110283333335701,
          "durationTicks": 11,
          "midi": 61,
          "name": "C#4",
          "ticks": 15984,
          "time": 146.911608,
          "velocity": 0.7795275590551181
        },
        {
          "duration": 0.10110283333332859,
          "durationTicks": 11,
          "midi": 77,
          "name": "F5",
          "ticks": 15996,
          "time": 147.021902,
          "velocity": 0.7795275590551181
        },
        {
          "duration": 0.10110283333335701,
          "durationTicks": 11,
          "midi": 73,
          "name": "C#5",
          "ticks": 16008,
          "time": 147.132196,
          "velocity": 0.7795275590551181
        },
        {
          "duration": 0.10110283333332859,
          "durationTicks": 11,
          "midi": 61,
          "name": "C#4",
          "ticks": 16020,
          "time": 147.24249,
          "velocity": 0.7795275590551181
        },
        {
          "duration": 0.10110283333332859,
          "durationTicks": 11,
          "midi": 77,
          "name": "F5",
          "ticks": 16032,
          "time": 147.352784,
          "velocity": 0.7795275590551181
        },
        {
          "duration": 0.10110283333335701,
          "durationTicks": 11,
          "midi": 72,
          "name": "C5",
          "ticks": 16044,
          "time": 147.463078,
          "velocity": 0.7795275590551181
        },
        {
          "duration": 0.10110283333332859,
          "durationTicks": 11,
          "midi": 61,
          "name": "C#4",
          "ticks": 16056,
          "time": 147.573372,
          "velocity": 0.7795275590551181
        },
        {
          "duration": 0.10110283333332859,
          "durationTicks": 11,
          "midi": 77,
          "name": "F5",
          "ticks": 16068,
          "time": 147.68366600000002,
          "velocity": 0.7795275590551181
        },
        {
          "duration": 0.10110283333335701,
          "durationTicks": 11,
          "midi": 73,
          "name": "C#5",
          "ticks": 16080,
          "time": 147.79396,
          "velocity": 0.7795275590551181
        },
        {
          "duration": 0.10110283333332859,
          "durationTicks": 11,
          "midi": 60,
          "name": "C4",
          "ticks": 16092,
          "time": 147.904254,
          "velocity": 0.7795275590551181
        },
        {
          "duration": 0.10110283333335701,
          "durationTicks": 11,
          "midi": 77,
          "name": "F5",
          "ticks": 16104,
          "time": 148.014548,
          "velocity": 0.7795275590551181
        },
        {
          "duration": 0.10110283333335701,
          "durationTicks": 11,
          "midi": 72,
          "name": "C5",
          "ticks": 16116,
          "time": 148.124842,
          "velocity": 0.7795275590551181
        },
        {
          "duration": 0.10110283333332859,
          "durationTicks": 11,
          "midi": 60,
          "name": "C4",
          "ticks": 16128,
          "time": 148.235136,
          "velocity": 0.7795275590551181
        },
        {
          "duration": 0.10110283333335701,
          "durationTicks": 11,
          "midi": 77,
          "name": "F5",
          "ticks": 16140,
          "time": 148.34543,
          "velocity": 0.7795275590551181
        },
        {
          "duration": 0.10110283333332859,
          "durationTicks": 11,
          "midi": 75,
          "name": "D#5",
          "ticks": 16152,
          "time": 148.455724,
          "velocity": 0.7795275590551181
        },
        {
          "duration": 0.10110283333332859,
          "durationTicks": 11,
          "midi": 73,
          "name": "C#5",
          "ticks": 16164,
          "time": 148.566018,
          "velocity": 0.7795275590551181
        },
        {
          "duration": 0.10110283333335701,
          "durationTicks": 11,
          "midi": 61,
          "name": "C#4",
          "ticks": 16176,
          "time": 148.676312,
          "velocity": 0.7795275590551181
        },
        {
          "duration": 0.10110283333332859,
          "durationTicks": 11,
          "midi": 75,
          "name": "D#5",
          "ticks": 16188,
          "time": 148.786606,
          "velocity": 0.7795275590551181
        },
        {
          "duration": 0.10110283333332859,
          "durationTicks": 11,
          "midi": 73,
          "name": "C#5",
          "ticks": 16200,
          "time": 148.89690000000002,
          "velocity": 0.7795275590551181
        },
        {
          "duration": 0.10110283333335701,
          "durationTicks": 11,
          "midi": 61,
          "name": "C#4",
          "ticks": 16212,
          "time": 149.007194,
          "velocity": 0.7795275590551181
        },
        {
          "duration": 0.10110283333332859,
          "durationTicks": 11,
          "midi": 75,
          "name": "D#5",
          "ticks": 16224,
          "time": 149.117488,
          "velocity": 0.7795275590551181
        },
        {
          "duration": 0.10110283333335701,
          "durationTicks": 11,
          "midi": 72,
          "name": "C5",
          "ticks": 16236,
          "time": 149.227782,
          "velocity": 0.7795275590551181
        },
        {
          "duration": 0.10110283333335701,
          "durationTicks": 11,
          "midi": 61,
          "name": "C#4",
          "ticks": 16248,
          "time": 149.338076,
          "velocity": 0.7795275590551181
        },
        {
          "duration": 0.10110283333332859,
          "durationTicks": 11,
          "midi": 75,
          "name": "D#5",
          "ticks": 16260,
          "time": 149.44837,
          "velocity": 0.7795275590551181
        },
        {
          "duration": 0.10110283333335701,
          "durationTicks": 11,
          "midi": 73,
          "name": "C#5",
          "ticks": 16272,
          "time": 149.558664,
          "velocity": 0.7795275590551181
        },
        {
          "duration": 0.10110283333332859,
          "durationTicks": 11,
          "midi": 60,
          "name": "C4",
          "ticks": 16284,
          "time": 149.668958,
          "velocity": 0.7795275590551181
        },
        {
          "duration": 0.10110283333332859,
          "durationTicks": 11,
          "midi": 75,
          "name": "D#5",
          "ticks": 16296,
          "time": 149.779252,
          "velocity": 0.7795275590551181
        },
        {
          "duration": 0.10110283333335701,
          "durationTicks": 11,
          "midi": 72,
          "name": "C5",
          "ticks": 16308,
          "time": 149.889546,
          "velocity": 0.7795275590551181
        },
        {
          "duration": 0.10110283333332859,
          "durationTicks": 11,
          "midi": 60,
          "name": "C4",
          "ticks": 16320,
          "time": 149.99984,
          "velocity": 0.7795275590551181
        },
        {
          "duration": 0.10110283333332859,
          "durationTicks": 11,
          "midi": 75,
          "name": "D#5",
          "ticks": 16332,
          "time": 150.11013400000002,
          "velocity": 0.7795275590551181
        },
        {
          "duration": 0.10110283333335701,
          "durationTicks": 11,
          "midi": 75,
          "name": "D#5",
          "ticks": 16344,
          "time": 150.220428,
          "velocity": 0.7795275590551181
        },
        {
          "duration": 0.10110283333332859,
          "durationTicks": 11,
          "midi": 73,
          "name": "C#5",
          "ticks": 16356,
          "time": 150.330722,
          "velocity": 0.7795275590551181
        },
        {
          "duration": 0.10110283333335701,
          "durationTicks": 11,
          "midi": 73,
          "name": "C#5",
          "ticks": 16368,
          "time": 150.441016,
          "velocity": 0.7795275590551181
        },
        {
          "duration": 0.10110283333335701,
          "durationTicks": 11,
          "midi": 61,
          "name": "C#4",
          "ticks": 16380,
          "time": 150.55131,
          "velocity": 0.7795275590551181
        },
        {
          "duration": 0.10110283333332859,
          "durationTicks": 11,
          "midi": 68,
          "name": "G#4",
          "ticks": 16392,
          "time": 150.661604,
          "velocity": 0.7795275590551181
        },
        {
          "duration": 0.10110283333335701,
          "durationTicks": 11,
          "midi": 80,
          "name": "G#5",
          "ticks": 16404,
          "time": 150.771898,
          "velocity": 0.7795275590551181
        },
        {
          "duration": 0.10110283333332859,
          "durationTicks": 11,
          "midi": 73,
          "name": "C#5",
          "ticks": 16416,
          "time": 150.882192,
          "velocity": 0.7795275590551181
        },
        {
          "duration": 0.10110283333332859,
          "durationTicks": 11,
          "midi": 68,
          "name": "G#4",
          "ticks": 16428,
          "time": 150.992486,
          "velocity": 0.7795275590551181
        },
        {
          "duration": 0.10110283333335701,
          "durationTicks": 11,
          "midi": 80,
          "name": "G#5",
          "ticks": 16440,
          "time": 151.10278,
          "velocity": 0.7795275590551181
        },
        {
          "duration": 0.10110283333332859,
          "durationTicks": 11,
          "midi": 73,
          "name": "C#5",
          "ticks": 16452,
          "time": 151.213074,
          "velocity": 0.7795275590551181
        },
        {
          "duration": 0.10110283333332859,
          "durationTicks": 11,
          "midi": 68,
          "name": "G#4",
          "ticks": 16464,
          "time": 151.32336800000002,
          "velocity": 0.7795275590551181
        },
        {
          "duration": 0.10110283333335701,
          "durationTicks": 11,
          "midi": 80,
          "name": "G#5",
          "ticks": 16476,
          "time": 151.433662,
          "velocity": 0.7795275590551181
        },
        {
          "duration": 0.10110283333332859,
          "durationTicks": 11,
          "midi": 73,
          "name": "C#5",
          "ticks": 16488,
          "time": 151.543956,
          "velocity": 0.7795275590551181
        },
        {
          "duration": 0.10110283333335701,
          "durationTicks": 11,
          "midi": 68,
          "name": "G#4",
          "ticks": 16500,
          "time": 151.65425,
          "velocity": 0.7795275590551181
        },
        {
          "duration": 0.10110283333335701,
          "durationTicks": 11,
          "midi": 77,
          "name": "F5",
          "ticks": 16512,
          "time": 151.764544,
          "velocity": 0.7795275590551181
        },
        {
          "duration": 0.10110283333332859,
          "durationTicks": 11,
          "midi": 73,
          "name": "C#5",
          "ticks": 16524,
          "time": 151.874838,
          "velocity": 0.7795275590551181
        },
        {
          "duration": 0.10110283333335701,
          "durationTicks": 11,
          "midi": 80,
          "name": "G#5",
          "ticks": 16536,
          "time": 151.985132,
          "velocity": 0.7795275590551181
        },
        {
          "duration": 0.10110283333332859,
          "durationTicks": 11,
          "midi": 68,
          "name": "G#4",
          "ticks": 16548,
          "time": 152.095426,
          "velocity": 0.7795275590551181
        }
      ]
    },
    {
      "channel": 0,
      "controlChanges": {
        "71": [
          {
            "number": 71,
            "ticks": 2736,
            "time": 25.147032000000003,
            "value": 0.49606299212598426
          },
          {
            "number": 71,
            "ticks": 2742,
            "time": 25.202179,
            "value": 0.5118110236220472
          },
          {
            "number": 71,
            "ticks": 2748,
            "time": 25.257326000000003,
            "value": 0.5196850393700787
          },
          {
            "number": 71,
            "ticks": 2755,
            "time": 25.321664166666668,
            "value": 0.5354330708661418
          },
          {
            "number": 71,
            "ticks": 2761,
            "time": 25.376811166666666,
            "value": 0.5511811023622047
          },
          {
            "number": 71,
            "ticks": 2768,
            "time": 25.441149333333335,
            "value": 0.5669291338582677
          },
          {
            "number": 71,
            "ticks": 2774,
            "time": 25.496296333333333,
            "value": 0.5826771653543307
          },
          {
            "number": 71,
            "ticks": 2781,
            "time": 25.560634500000003,
            "value": 0.5984251968503937
          },
          {
            "number": 71,
            "ticks": 2787,
            "time": 25.615781500000004,
            "value": 0.6062992125984252
          },
          {
            "number": 71,
            "ticks": 2794,
            "time": 25.680119666666666,
            "value": 0.6299212598425197
          },
          {
            "number": 71,
            "ticks": 2800,
            "time": 25.735266666666668,
            "value": 0.6377952755905512
          },
          {
            "number": 71,
            "ticks": 2807,
            "time": 25.799604833333333,
            "value": 0.6535433070866141
          },
          {
            "number": 71,
            "ticks": 2813,
            "time": 25.854751833333335,
            "value": 0.6692913385826772
          },
          {
            "number": 71,
            "ticks": 2820,
            "time": 25.919090000000004,
            "value": 0.6850393700787402
          },
          {
            "number": 71,
            "ticks": 2826,
            "time": 25.974237000000002,
            "value": 0.7007874015748031
          },
          {
            "number": 71,
            "ticks": 2832,
            "time": 26.029384000000004,
            "value": 0.7165354330708661
          },
          {
            "number": 71,
            "ticks": 2839,
            "time": 26.093722166666666,
            "value": 0.7244094488188977
          },
          {
            "number": 71,
            "ticks": 2845,
            "time": 26.148869166666667,
            "value": 0.7480314960629921
          },
          {
            "number": 71,
            "ticks": 2852,
            "time": 26.213207333333337,
            "value": 0.7559055118110236
          },
          {
            "number": 71,
            "ticks": 2858,
            "time": 26.268354333333335,
            "value": 0.7716535433070866
          },
          {
            "number": 71,
            "ticks": 2865,
            "time": 26.332692500000004,
            "value": 0.7874015748031497
          },
          {
            "number": 71,
            "ticks": 2871,
            "time": 26.387839500000002,
            "value": 0.8031496062992126
          },
          {
            "number": 71,
            "ticks": 2878,
            "time": 26.452177666666667,
            "value": 0.8188976377952756
          },
          {
            "number": 71,
            "ticks": 2884,
            "time": 26.507324666666666,
            "value": 0.8346456692913385
          },
          {
            "number": 71,
            "ticks": 2891,
            "time": 26.571662833333335,
            "value": 0.84251968503937
          },
          {
            "number": 71,
            "ticks": 2897,
            "time": 26.626809833333336,
            "value": 0.8661417322834646
          },
          {
            "number": 71,
            "ticks": 2904,
            "time": 26.691148000000002,
            "value": 0.8661417322834646
          },
          {
            "number": 71,
            "ticks": 2911,
            "time": 26.755486166666667,
            "value": 0.84251968503937
          },
          {
            "number": 71,
            "ticks": 2917,
            "time": 26.81063316666667,
            "value": 0.8346456692913385
          },
          {
            "number": 71,
            "ticks": 2924,
            "time": 26.874971333333335,
            "value": 0.8188976377952756
          },
          {
            "number": 71,
            "ticks": 2930,
            "time": 26.930118333333336,
            "value": 0.8031496062992126
          },
          {
            "number": 71,
            "ticks": 2937,
            "time": 26.994456500000002,
            "value": 0.7874015748031497
          },
          {
            "number": 71,
            "ticks": 2943,
            "time": 27.049603500000003,
            "value": 0.7716535433070866
          },
          {
            "number": 71,
            "ticks": 2950,
            "time": 27.11394166666667,
            "value": 0.7559055118110236
          },
          {
            "number": 71,
            "ticks": 2956,
            "time": 27.169088666666667,
            "value": 0.7480314960629921
          },
          {
            "number": 71,
            "ticks": 2963,
            "time": 27.233426833333336,
            "value": 0.7244094488188977
          },
          {
            "number": 71,
            "ticks": 2969,
            "time": 27.288573833333334,
            "value": 0.7165354330708661
          },
          {
            "number": 71,
            "ticks": 2976,
            "time": 27.352912000000003,
            "value": 0.7007874015748031
          },
          {
            "number": 71,
            "ticks": 2982,
            "time": 27.408059,
            "value": 0.6850393700787402
          },
          {
            "number": 71,
            "ticks": 2988,
            "time": 27.463206000000003,
            "value": 0.6692913385826772
          },
          {
            "number": 71,
            "ticks": 2995,
            "time": 27.52754416666667,
            "value": 0.6535433070866141
          },
          {
            "number": 71,
            "ticks": 3001,
            "time": 27.582691166666667,
            "value": 0.6377952755905512
          },
          {
            "number": 71,
            "ticks": 3008,
            "time": 27.647029333333336,
            "value": 0.6299212598425197
          },
          {
            "number": 71,
            "ticks": 3014,
            "time": 27.702176333333334,
            "value": 0.6062992125984252
          },
          {
            "number": 71,
            "ticks": 3021,
            "time": 27.766514500000003,
            "value": 0.5984251968503937
          },
          {
            "number": 71,
            "ticks": 3027,
            "time": 27.8216615,
            "value": 0.5826771653543307
          },
          {
            "number": 71,
            "ticks": 3034,
            "time": 27.885999666666667,
            "value": 0.5669291338582677
          },
          {
            "number": 71,
            "ticks": 3040,
            "time": 27.94114666666667,
            "value": 0.5511811023622047
          },
          {
            "number": 71,
            "ticks": 3047,
            "time": 28.005484833333334,
            "value": 0.5354330708661418
          },
          {
            "number": 71,
            "ticks": 3053,
            "time": 28.060631833333336,
            "value": 0.5196850393700787
          },
          {
            "number": 71,
            "ticks": 3060,
            "time": 28.12497,
            "value": 0.5118110236220472
          },
          {
            "number": 71,
            "ticks": 3066,
            "time": 28.180117000000003,
            "value": 0.49606299212598426
          },
          {
            "number": 71,
            "ticks": 3072,
            "time": 28.235264000000004,
            "value": 0.49606299212598426
          },
          {
            "number": 71,
            "ticks": 3078,
            "time": 28.290411000000002,
            "value": 0.5118110236220472
          },
          {
            "number": 71,
            "ticks": 3084,
            "time": 28.345558000000004,
            "value": 0.5196850393700787
          },
          {
            "number": 71,
            "ticks": 3091,
            "time": 28.409896166666666,
            "value": 0.5354330708661418
          },
          {
            "number": 71,
            "ticks": 3097,
            "time": 28.465043166666668,
            "value": 0.5511811023622047
          },
          {
            "number": 71,
            "ticks": 3104,
            "time": 28.529381333333337,
            "value": 0.5669291338582677
          },
          {
            "number": 71,
            "ticks": 3110,
            "time": 28.584528333333335,
            "value": 0.5826771653543307
          },
          {
            "number": 71,
            "ticks": 3117,
            "time": 28.648866500000004,
            "value": 0.5984251968503937
          },
          {
            "number": 71,
            "ticks": 3123,
            "time": 28.704013500000002,
            "value": 0.6062992125984252
          },
          {
            "number": 71,
            "ticks": 3130,
            "time": 28.768351666666668,
            "value": 0.6299212598425197
          },
          {
            "number": 71,
            "ticks": 3136,
            "time": 28.823498666666666,
            "value": 0.6377952755905512
          },
          {
            "number": 71,
            "ticks": 3143,
            "time": 28.887836833333335,
            "value": 0.6535433070866141
          },
          {
            "number": 71,
            "ticks": 3149,
            "time": 28.942983833333336,
            "value": 0.6692913385826772
          },
          {
            "number": 71,
            "ticks": 3156,
            "time": 29.007322000000002,
            "value": 0.6850393700787402
          },
          {
            "number": 71,
            "ticks": 3162,
            "time": 29.062469000000004,
            "value": 0.7007874015748031
          },
          {
            "number": 71,
            "ticks": 3168,
            "time": 29.117616,
            "value": 0.7165354330708661
          },
          {
            "number": 71,
            "ticks": 3175,
            "time": 29.181954166666667,
            "value": 0.7244094488188977
          },
          {
            "number": 71,
            "ticks": 3181,
            "time": 29.23710116666667,
            "value": 0.7480314960629921
          },
          {
            "number": 71,
            "ticks": 3188,
            "time": 29.301439333333335,
            "value": 0.7559055118110236
          },
          {
            "number": 71,
            "ticks": 3194,
            "time": 29.356586333333336,
            "value": 0.7716535433070866
          },
          {
            "number": 71,
            "ticks": 3201,
            "time": 29.4209245,
            "value": 0.7874015748031497
          },
          {
            "number": 71,
            "ticks": 3207,
            "time": 29.476071500000003,
            "value": 0.8031496062992126
          },
          {
            "number": 71,
            "ticks": 3214,
            "time": 29.54040966666667,
            "value": 0.8188976377952756
          },
          {
            "number": 71,
            "ticks": 3220,
            "time": 29.595556666666667,
            "value": 0.8346456692913385
          },
          {
            "number": 71,
            "ticks": 3227,
            "time": 29.659894833333336,
            "value": 0.84251968503937
          },
          {
            "number": 71,
            "ticks": 3233,
            "time": 29.715041833333334,
            "value": 0.8661417322834646
          },
          {
            "number": 71,
            "ticks": 3240,
            "time": 29.779380000000003,
            "value": 0.8661417322834646
          },
          {
            "number": 71,
            "ticks": 3247,
            "time": 29.84371816666667,
            "value": 0.84251968503937
          },
          {
            "number": 71,
            "ticks": 3253,
            "time": 29.898865166666667,
            "value": 0.8346456692913385
          },
          {
            "number": 71,
            "ticks": 3260,
            "time": 29.963203333333336,
            "value": 0.8188976377952756
          },
          {
            "number": 71,
            "ticks": 3266,
            "time": 30.018350333333334,
            "value": 0.8031496062992126
          },
          {
            "number": 71,
            "ticks": 3273,
            "time": 30.0826885,
            "value": 0.7874015748031497
          },
          {
            "number": 71,
            "ticks": 3279,
            "time": 30.1378355,
            "value": 0.7716535433070866
          },
          {
            "number": 71,
            "ticks": 3286,
            "time": 30.20217366666667,
            "value": 0.7559055118110236
          },
          {
            "number": 71,
            "ticks": 3292,
            "time": 30.257320666666672,
            "value": 0.7480314960629921
          },
          {
            "number": 71,
            "ticks": 3299,
            "time": 30.321658833333334,
            "value": 0.7244094488188977
          },
          {
            "number": 71,
            "ticks": 3305,
            "time": 30.376805833333336,
            "value": 0.7165354330708661
          },
          {
            "number": 71,
            "ticks": 3312,
            "time": 30.441144,
            "value": 0.7007874015748031
          },
          {
            "number": 71,
            "ticks": 3318,
            "time": 30.496291,
            "value": 0.6850393700787402
          },
          {
            "number": 71,
            "ticks": 3324,
            "time": 30.551438,
            "value": 0.6692913385826772
          },
          {
            "number": 71,
            "ticks": 3331,
            "time": 30.61577616666667,
            "value": 0.6535433070866141
          },
          {
            "number": 71,
            "ticks": 3337,
            "time": 30.67092316666667,
            "value": 0.6377952755905512
          },
          {
            "number": 71,
            "ticks": 3344,
            "time": 30.735261333333334,
            "value": 0.6299212598425197
          },
          {
            "number": 71,
            "ticks": 3350,
            "time": 30.790408333333335,
            "value": 0.6062992125984252
          },
          {
            "number": 71,
            "ticks": 3357,
            "time": 30.8547465,
            "value": 0.5984251968503937
          },
          {
            "number": 71,
            "ticks": 3363,
            "time": 30.9098935,
            "value": 0.5826771653543307
          },
          {
            "number": 71,
            "ticks": 3370,
            "time": 30.97423166666667,
            "value": 0.5669291338582677
          },
          {
            "number": 71,
            "ticks": 3376,
            "time": 31.02937866666667,
            "value": 0.5511811023622047
          },
          {
            "number": 71,
            "ticks": 3383,
            "time": 31.093716833333335,
            "value": 0.5354330708661418
          },
          {
            "number": 71,
            "ticks": 3389,
            "time": 31.148863833333333,
            "value": 0.5196850393700787
          },
          {
            "number": 71,
            "ticks": 3396,
            "time": 31.213202,
            "value": 0.5118110236220472
          },
          {
            "number": 71,
            "ticks": 3402,
            "time": 31.268349,
            "value": 0.49606299212598426
          },
          {
            "number": 71,
            "ticks": 3408,
            "time": 31.323496,
            "value": 0.49606299212598426
          },
          {
            "number": 71,
            "ticks": 3414,
            "time": 31.378643,
            "value": 0.5118110236220472
          },
          {
            "number": 71,
            "ticks": 3420,
            "time": 31.43379,
            "value": 0.5196850393700787
          },
          {
            "number": 71,
            "ticks": 3427,
            "time": 31.49812816666667,
            "value": 0.5354330708661418
          },
          {
            "number": 71,
            "ticks": 3433,
            "time": 31.55327516666667,
            "value": 0.5511811023622047
          },
          {
            "number": 71,
            "ticks": 3440,
            "time": 31.617613333333335,
            "value": 0.5669291338582677
          },
          {
            "number": 71,
            "ticks": 3446,
            "time": 31.672760333333336,
            "value": 0.5826771653543307
          },
          {
            "number": 71,
            "ticks": 3453,
            "time": 31.7370985,
            "value": 0.5984251968503937
          },
          {
            "number": 71,
            "ticks": 3459,
            "time": 31.7922455,
            "value": 0.6062992125984252
          },
          {
            "number": 71,
            "ticks": 3466,
            "time": 31.85658366666667,
            "value": 0.6299212598425197
          },
          {
            "number": 71,
            "ticks": 3472,
            "time": 31.91173066666667,
            "value": 0.6377952755905512
          },
          {
            "number": 71,
            "ticks": 3479,
            "time": 31.976068833333336,
            "value": 0.6535433070866141
          },
          {
            "number": 71,
            "ticks": 3485,
            "time": 32.031215833333334,
            "value": 0.6692913385826772
          },
          {
            "number": 71,
            "ticks": 3492,
            "time": 32.095554,
            "value": 0.6850393700787402
          },
          {
            "number": 71,
            "ticks": 3498,
            "time": 32.150701,
            "value": 0.7007874015748031
          },
          {
            "number": 71,
            "ticks": 3504,
            "time": 32.205847999999996,
            "value": 0.7165354330708661
          },
          {
            "number": 71,
            "ticks": 3511,
            "time": 32.27018616666667,
            "value": 0.7244094488188977
          },
          {
            "number": 71,
            "ticks": 3517,
            "time": 32.32533316666667,
            "value": 0.7480314960629921
          },
          {
            "number": 71,
            "ticks": 3524,
            "time": 32.38967133333333,
            "value": 0.7559055118110236
          },
          {
            "number": 71,
            "ticks": 3530,
            "time": 32.44481833333333,
            "value": 0.7716535433070866
          },
          {
            "number": 71,
            "ticks": 3537,
            "time": 32.509156499999996,
            "value": 0.7874015748031497
          },
          {
            "number": 71,
            "ticks": 3543,
            "time": 32.5643035,
            "value": 0.8031496062992126
          },
          {
            "number": 71,
            "ticks": 3550,
            "time": 32.62864166666667,
            "value": 0.8188976377952756
          },
          {
            "number": 71,
            "ticks": 3556,
            "time": 32.68378866666667,
            "value": 0.8346456692913385
          },
          {
            "number": 71,
            "ticks": 3563,
            "time": 32.74812683333333,
            "value": 0.84251968503937
          },
          {
            "number": 71,
            "ticks": 3569,
            "time": 32.803273833333336,
            "value": 0.8661417322834646
          },
          {
            "number": 71,
            "ticks": 3576,
            "time": 32.867612,
            "value": 0.8661417322834646
          },
          {
            "number": 71,
            "ticks": 3583,
            "time": 32.93195016666667,
            "value": 0.84251968503937
          },
          {
            "number": 71,
            "ticks": 3589,
            "time": 32.98709716666667,
            "value": 0.8346456692913385
          },
          {
            "number": 71,
            "ticks": 3596,
            "time": 33.05143533333333,
            "value": 0.8188976377952756
          },
          {
            "number": 71,
            "ticks": 3602,
            "time": 33.106582333333336,
            "value": 0.8031496062992126
          },
          {
            "number": 71,
            "ticks": 3609,
            "time": 33.1709205,
            "value": 0.7874015748031497
          },
          {
            "number": 71,
            "ticks": 3615,
            "time": 33.2260675,
            "value": 0.7716535433070866
          },
          {
            "number": 71,
            "ticks": 3622,
            "time": 33.29040566666667,
            "value": 0.7559055118110236
          },
          {
            "number": 71,
            "ticks": 3628,
            "time": 33.34555266666667,
            "value": 0.7480314960629921
          },
          {
            "number": 71,
            "ticks": 3635,
            "time": 33.409890833333336,
            "value": 0.7244094488188977
          },
          {
            "number": 71,
            "ticks": 3641,
            "time": 33.465037833333334,
            "value": 0.7165354330708661
          },
          {
            "number": 71,
            "ticks": 3648,
            "time": 33.529376,
            "value": 0.7007874015748031
          },
          {
            "number": 71,
            "ticks": 3654,
            "time": 33.584523,
            "value": 0.6850393700787402
          },
          {
            "number": 71,
            "ticks": 3660,
            "time": 33.639669999999995,
            "value": 0.6692913385826772
          },
          {
            "number": 71,
            "ticks": 3667,
            "time": 33.70400816666667,
            "value": 0.6535433070866141
          },
          {
            "number": 71,
            "ticks": 3673,
            "time": 33.75915516666667,
            "value": 0.6377952755905512
          },
          {
            "number": 71,
            "ticks": 3680,
            "time": 33.82349333333334,
            "value": 0.6299212598425197
          },
          {
            "number": 71,
            "ticks": 3686,
            "time": 33.87864033333334,
            "value": 0.6062992125984252
          },
          {
            "number": 71,
            "ticks": 3693,
            "time": 33.9429785,
            "value": 0.5984251968503937
          },
          {
            "number": 71,
            "ticks": 3699,
            "time": 33.9981255,
            "value": 0.5826771653543307
          },
          {
            "number": 71,
            "ticks": 3706,
            "time": 34.06246366666667,
            "value": 0.5669291338582677
          },
          {
            "number": 71,
            "ticks": 3712,
            "time": 34.11761066666667,
            "value": 0.5511811023622047
          },
          {
            "number": 71,
            "ticks": 3719,
            "time": 34.18194883333334,
            "value": 0.5354330708661418
          },
          {
            "number": 71,
            "ticks": 3725,
            "time": 34.237095833333335,
            "value": 0.5196850393700787
          },
          {
            "number": 71,
            "ticks": 3732,
            "time": 34.301434,
            "value": 0.5118110236220472
          },
          {
            "number": 71,
            "ticks": 3738,
            "time": 34.356581,
            "value": 0.49606299212598426
          },
          {
            "number": 71,
            "ticks": 3744,
            "time": 34.411728,
            "value": 0.49606299212598426
          },
          {
            "number": 71,
            "ticks": 3750,
            "time": 34.466875,
            "value": 0.5118110236220472
          },
          {
            "number": 71,
            "ticks": 3756,
            "time": 34.522022,
            "value": 0.5196850393700787
          },
          {
            "number": 71,
            "ticks": 3763,
            "time": 34.58636016666667,
            "value": 0.5354330708661418
          },
          {
            "number": 71,
            "ticks": 3769,
            "time": 34.64150716666667,
            "value": 0.5511811023622047
          },
          {
            "number": 71,
            "ticks": 3776,
            "time": 34.705845333333336,
            "value": 0.5669291338582677
          },
          {
            "number": 71,
            "ticks": 3782,
            "time": 34.760992333333334,
            "value": 0.5826771653543307
          },
          {
            "number": 71,
            "ticks": 3789,
            "time": 34.8253305,
            "value": 0.5984251968503937
          },
          {
            "number": 71,
            "ticks": 3795,
            "time": 34.8804775,
            "value": 0.6062992125984252
          },
          {
            "number": 71,
            "ticks": 3802,
            "time": 34.94481566666667,
            "value": 0.6299212598425197
          },
          {
            "number": 71,
            "ticks": 3808,
            "time": 34.99996266666667,
            "value": 0.6377952755905512
          },
          {
            "number": 71,
            "ticks": 3815,
            "time": 35.064300833333334,
            "value": 0.6535433070866141
          },
          {
            "number": 71,
            "ticks": 3821,
            "time": 35.11944783333333,
            "value": 0.6692913385826772
          },
          {
            "number": 71,
            "ticks": 3828,
            "time": 35.183786,
            "value": 0.6850393700787402
          },
          {
            "number": 71,
            "ticks": 3834,
            "time": 35.238933,
            "value": 0.7007874015748031
          },
          {
            "number": 71,
            "ticks": 3840,
            "time": 35.29408,
            "value": 0.7165354330708661
          },
          {
            "number": 71,
            "ticks": 3847,
            "time": 35.358418166666674,
            "value": 0.7244094488188977
          },
          {
            "number": 71,
            "ticks": 3853,
            "time": 35.41356516666667,
            "value": 0.7480314960629921
          },
          {
            "number": 71,
            "ticks": 3860,
            "time": 35.47790333333334,
            "value": 0.7559055118110236
          },
          {
            "number": 71,
            "ticks": 3866,
            "time": 35.533050333333335,
            "value": 0.7716535433070866
          },
          {
            "number": 71,
            "ticks": 3873,
            "time": 35.5973885,
            "value": 0.7874015748031497
          },
          {
            "number": 71,
            "ticks": 3879,
            "time": 35.6525355,
            "value": 0.8031496062992126
          },
          {
            "number": 71,
            "ticks": 3886,
            "time": 35.71687366666667,
            "value": 0.8188976377952756
          },
          {
            "number": 71,
            "ticks": 3892,
            "time": 35.77202066666667,
            "value": 0.8346456692913385
          },
          {
            "number": 71,
            "ticks": 3899,
            "time": 35.836358833333335,
            "value": 0.84251968503937
          },
          {
            "number": 71,
            "ticks": 3905,
            "time": 35.89150583333333,
            "value": 0.8661417322834646
          },
          {
            "number": 71,
            "ticks": 3912,
            "time": 35.955844,
            "value": 0.8661417322834646
          },
          {
            "number": 71,
            "ticks": 3919,
            "time": 36.02018216666667,
            "value": 0.84251968503937
          },
          {
            "number": 71,
            "ticks": 3925,
            "time": 36.07532916666667,
            "value": 0.8346456692913385
          },
          {
            "number": 71,
            "ticks": 3932,
            "time": 36.139667333333335,
            "value": 0.8188976377952756
          },
          {
            "number": 71,
            "ticks": 3938,
            "time": 36.19481433333333,
            "value": 0.8031496062992126
          },
          {
            "number": 71,
            "ticks": 3945,
            "time": 36.2591525,
            "value": 0.7874015748031497
          },
          {
            "number": 71,
            "ticks": 3951,
            "time": 36.3142995,
            "value": 0.7716535433070866
          },
          {
            "number": 71,
            "ticks": 3958,
            "time": 36.37863766666667,
            "value": 0.7559055118110236
          },
          {
            "number": 71,
            "ticks": 3964,
            "time": 36.43378466666667,
            "value": 0.7480314960629921
          },
          {
            "number": 71,
            "ticks": 3971,
            "time": 36.49812283333333,
            "value": 0.7244094488188977
          },
          {
            "number": 71,
            "ticks": 3977,
            "time": 36.55326983333334,
            "value": 0.7165354330708661
          },
          {
            "number": 71,
            "ticks": 3984,
            "time": 36.617608,
            "value": 0.7007874015748031
          },
          {
            "number": 71,
            "ticks": 3990,
            "time": 36.672755,
            "value": 0.6850393700787402
          },
          {
            "number": 71,
            "ticks": 3996,
            "time": 36.727902,
            "value": 0.6692913385826772
          },
          {
            "number": 71,
            "ticks": 4003,
            "time": 36.79224016666667,
            "value": 0.6535433070866141
          },
          {
            "number": 71,
            "ticks": 4009,
            "time": 36.84738716666667,
            "value": 0.6377952755905512
          },
          {
            "number": 71,
            "ticks": 4016,
            "time": 36.91172533333334,
            "value": 0.6299212598425197
          },
          {
            "number": 71,
            "ticks": 4022,
            "time": 36.966872333333335,
            "value": 0.6062992125984252
          },
          {
            "number": 71,
            "ticks": 4029,
            "time": 37.0312105,
            "value": 0.5984251968503937
          },
          {
            "number": 71,
            "ticks": 4035,
            "time": 37.0863575,
            "value": 0.5826771653543307
          },
          {
            "number": 71,
            "ticks": 4042,
            "time": 37.15069566666667,
            "value": 0.5669291338582677
          },
          {
            "number": 71,
            "ticks": 4048,
            "time": 37.20584266666667,
            "value": 0.5511811023622047
          },
          {
            "number": 71,
            "ticks": 4055,
            "time": 37.270180833333335,
            "value": 0.5354330708661418
          },
          {
            "number": 71,
            "ticks": 4061,
            "time": 37.32532783333333,
            "value": 0.5196850393700787
          },
          {
            "number": 71,
            "ticks": 4068,
            "time": 37.389666,
            "value": 0.5118110236220472
          },
          {
            "number": 71,
            "ticks": 4074,
            "time": 37.444812999999996,
            "value": 0.49606299212598426
          },
          {
            "number": 71,
            "ticks": 4080,
            "time": 37.49996,
            "value": 0.49606299212598426
          },
          {
            "number": 71,
            "ticks": 4086,
            "time": 37.555107,
            "value": 0.5118110236220472
          },
          {
            "number": 71,
            "ticks": 4092,
            "time": 37.610254,
            "value": 0.5196850393700787
          },
          {
            "number": 71,
            "ticks": 4099,
            "time": 37.67459216666667,
            "value": 0.5354330708661418
          },
          {
            "number": 71,
            "ticks": 4105,
            "time": 37.72973916666667,
            "value": 0.5511811023622047
          },
          {
            "number": 71,
            "ticks": 4112,
            "time": 37.794077333333334,
            "value": 0.5669291338582677
          },
          {
            "number": 71,
            "ticks": 4118,
            "time": 37.84922433333333,
            "value": 0.5826771653543307
          },
          {
            "number": 71,
            "ticks": 4125,
            "time": 37.9135625,
            "value": 0.5984251968503937
          },
          {
            "number": 71,
            "ticks": 4131,
            "time": 37.9687095,
            "value": 0.6062992125984252
          },
          {
            "number": 71,
            "ticks": 4138,
            "time": 38.03304766666667,
            "value": 0.6299212598425197
          },
          {
            "number": 71,
            "ticks": 4144,
            "time": 38.08819466666667,
            "value": 0.6377952755905512
          },
          {
            "number": 71,
            "ticks": 4151,
            "time": 38.15253283333333,
            "value": 0.6535433070866141
          },
          {
            "number": 71,
            "ticks": 4157,
            "time": 38.20767983333334,
            "value": 0.6692913385826772
          },
          {
            "number": 71,
            "ticks": 4164,
            "time": 38.272018,
            "value": 0.6850393700787402
          },
          {
            "number": 71,
            "ticks": 4170,
            "time": 38.327165,
            "value": 0.7007874015748031
          },
          {
            "number": 71,
            "ticks": 4176,
            "time": 38.382312,
            "value": 0.7165354330708661
          },
          {
            "number": 71,
            "ticks": 4183,
            "time": 38.44665016666667,
            "value": 0.7244094488188977
          },
          {
            "number": 71,
            "ticks": 4189,
            "time": 38.50179716666667,
            "value": 0.7480314960629921
          },
          {
            "number": 71,
            "ticks": 4196,
            "time": 38.566135333333335,
            "value": 0.7559055118110236
          },
          {
            "number": 71,
            "ticks": 4202,
            "time": 38.62128233333333,
            "value": 0.7716535433070866
          },
          {
            "number": 71,
            "ticks": 4209,
            "time": 38.6856205,
            "value": 0.7874015748031497
          },
          {
            "number": 71,
            "ticks": 4215,
            "time": 38.7407675,
            "value": 0.8031496062992126
          },
          {
            "number": 71,
            "ticks": 4222,
            "time": 38.80510566666667,
            "value": 0.8188976377952756
          },
          {
            "number": 71,
            "ticks": 4228,
            "time": 38.86025266666667,
            "value": 0.8346456692913385
          },
          {
            "number": 71,
            "ticks": 4235,
            "time": 38.92459083333333,
            "value": 0.84251968503937
          },
          {
            "number": 71,
            "ticks": 4241,
            "time": 38.97973783333334,
            "value": 0.8661417322834646
          },
          {
            "number": 71,
            "ticks": 4248,
            "time": 39.044076,
            "value": 0.8661417322834646
          },
          {
            "number": 71,
            "ticks": 4255,
            "time": 39.10841416666667,
            "value": 0.84251968503937
          },
          {
            "number": 71,
            "ticks": 4261,
            "time": 39.16356116666667,
            "value": 0.8346456692913385
          },
          {
            "number": 71,
            "ticks": 4268,
            "time": 39.22789933333333,
            "value": 0.8188976377952756
          },
          {
            "number": 71,
            "ticks": 4274,
            "time": 39.28304633333334,
            "value": 0.8031496062992126
          },
          {
            "number": 71,
            "ticks": 4281,
            "time": 39.3473845,
            "value": 0.7874015748031497
          },
          {
            "number": 71,
            "ticks": 4287,
            "time": 39.4025315,
            "value": 0.7716535433070866
          },
          {
            "number": 71,
            "ticks": 4294,
            "time": 39.46686966666667,
            "value": 0.7559055118110236
          },
          {
            "number": 71,
            "ticks": 4300,
            "time": 39.52201666666667,
            "value": 0.7480314960629921
          },
          {
            "number": 71,
            "ticks": 4307,
            "time": 39.58635483333334,
            "value": 0.7244094488188977
          },
          {
            "number": 71,
            "ticks": 4313,
            "time": 39.641501833333336,
            "value": 0.7165354330708661
          },
          {
            "number": 71,
            "ticks": 4320,
            "time": 39.70584,
            "value": 0.7007874015748031
          },
          {
            "number": 71,
            "ticks": 4326,
            "time": 39.760987,
            "value": 0.6850393700787402
          },
          {
            "number": 71,
            "ticks": 4332,
            "time": 39.816134,
            "value": 0.6692913385826772
          },
          {
            "number": 71,
            "ticks": 4339,
            "time": 39.88047216666667,
            "value": 0.6535433070866141
          },
          {
            "number": 71,
            "ticks": 4345,
            "time": 39.93561916666667,
            "value": 0.6377952755905512
          },
          {
            "number": 71,
            "ticks": 4352,
            "time": 39.999957333333334,
            "value": 0.6299212598425197
          },
          {
            "number": 71,
            "ticks": 4358,
            "time": 40.05510433333333,
            "value": 0.6062992125984252
          },
          {
            "number": 71,
            "ticks": 4365,
            "time": 40.1194425,
            "value": 0.5984251968503937
          },
          {
            "number": 71,
            "ticks": 4371,
            "time": 40.1745895,
            "value": 0.5826771653543307
          },
          {
            "number": 71,
            "ticks": 4378,
            "time": 40.23892766666667,
            "value": 0.5669291338582677
          },
          {
            "number": 71,
            "ticks": 4384,
            "time": 40.294074666666674,
            "value": 0.5511811023622047
          },
          {
            "number": 71,
            "ticks": 4391,
            "time": 40.35841283333333,
            "value": 0.5354330708661418
          },
          {
            "number": 71,
            "ticks": 4397,
            "time": 40.41355983333334,
            "value": 0.5196850393700787
          },
          {
            "number": 71,
            "ticks": 4404,
            "time": 40.477898,
            "value": 0.5118110236220472
          },
          {
            "number": 71,
            "ticks": 4410,
            "time": 40.533045,
            "value": 0.49606299212598426
          },
          {
            "number": 71,
            "ticks": 4416,
            "time": 40.588192,
            "value": 0.49606299212598426
          },
          {
            "number": 71,
            "ticks": 4422,
            "time": 40.643339,
            "value": 0.5118110236220472
          },
          {
            "number": 71,
            "ticks": 4428,
            "time": 40.698486,
            "value": 0.5196850393700787
          },
          {
            "number": 71,
            "ticks": 4435,
            "time": 40.76282416666667,
            "value": 0.5354330708661418
          },
          {
            "number": 71,
            "ticks": 4441,
            "time": 40.81797116666667,
            "value": 0.5511811023622047
          },
          {
            "number": 71,
            "ticks": 4448,
            "time": 40.88230933333334,
            "value": 0.5669291338582677
          },
          {
            "number": 71,
            "ticks": 4454,
            "time": 40.93745633333334,
            "value": 0.5826771653543307
          },
          {
            "number": 71,
            "ticks": 4461,
            "time": 41.0017945,
            "value": 0.5984251968503937
          },
          {
            "number": 71,
            "ticks": 4467,
            "time": 41.0569415,
            "value": 0.6062992125984252
          },
          {
            "number": 71,
            "ticks": 4474,
            "time": 41.12127966666667,
            "value": 0.6299212598425197
          },
          {
            "number": 71,
            "ticks": 4480,
            "time": 41.17642666666667,
            "value": 0.6377952755905512
          },
          {
            "number": 71,
            "ticks": 4487,
            "time": 41.24076483333334,
            "value": 0.6535433070866141
          },
          {
            "number": 71,
            "ticks": 4493,
            "time": 41.295911833333335,
            "value": 0.6692913385826772
          },
          {
            "number": 71,
            "ticks": 4500,
            "time": 41.36025,
            "value": 0.6850393700787402
          },
          {
            "number": 71,
            "ticks": 4506,
            "time": 41.415397,
            "value": 0.7007874015748031
          },
          {
            "number": 71,
            "ticks": 4512,
            "time": 41.470544,
            "value": 0.7165354330708661
          },
          {
            "number": 71,
            "ticks": 4519,
            "time": 41.53488216666667,
            "value": 0.7244094488188977
          },
          {
            "number": 71,
            "ticks": 4525,
            "time": 41.59002916666667,
            "value": 0.7480314960629921
          },
          {
            "number": 71,
            "ticks": 4532,
            "time": 41.65436733333333,
            "value": 0.7559055118110236
          },
          {
            "number": 71,
            "ticks": 4538,
            "time": 41.70951433333334,
            "value": 0.7716535433070866
          },
          {
            "number": 71,
            "ticks": 4545,
            "time": 41.7738525,
            "value": 0.7874015748031497
          },
          {
            "number": 71,
            "ticks": 4551,
            "time": 41.8289995,
            "value": 0.8031496062992126
          },
          {
            "number": 71,
            "ticks": 4558,
            "time": 41.89333766666667,
            "value": 0.8188976377952756
          },
          {
            "number": 71,
            "ticks": 4564,
            "time": 41.94848466666667,
            "value": 0.8346456692913385
          },
          {
            "number": 71,
            "ticks": 4571,
            "time": 42.01282283333334,
            "value": 0.84251968503937
          },
          {
            "number": 71,
            "ticks": 4577,
            "time": 42.067969833333336,
            "value": 0.8661417322834646
          },
          {
            "number": 71,
            "ticks": 4584,
            "time": 42.132308,
            "value": 0.8661417322834646
          },
          {
            "number": 71,
            "ticks": 4591,
            "time": 42.19664616666667,
            "value": 0.84251968503937
          },
          {
            "number": 71,
            "ticks": 4597,
            "time": 42.25179316666667,
            "value": 0.8346456692913385
          },
          {
            "number": 71,
            "ticks": 4604,
            "time": 42.31613133333334,
            "value": 0.8188976377952756
          },
          {
            "number": 71,
            "ticks": 4610,
            "time": 42.371278333333336,
            "value": 0.8031496062992126
          },
          {
            "number": 71,
            "ticks": 4617,
            "time": 42.4356165,
            "value": 0.7874015748031497
          },
          {
            "number": 71,
            "ticks": 4623,
            "time": 42.4907635,
            "value": 0.7716535433070866
          },
          {
            "number": 71,
            "ticks": 4630,
            "time": 42.55510166666667,
            "value": 0.7559055118110236
          },
          {
            "number": 71,
            "ticks": 4636,
            "time": 42.61024866666667,
            "value": 0.7480314960629921
          },
          {
            "number": 71,
            "ticks": 4643,
            "time": 42.674586833333336,
            "value": 0.7244094488188977
          },
          {
            "number": 71,
            "ticks": 4649,
            "time": 42.729733833333334,
            "value": 0.7165354330708661
          },
          {
            "number": 71,
            "ticks": 4656,
            "time": 42.794072,
            "value": 0.7007874015748031
          },
          {
            "number": 71,
            "ticks": 4662,
            "time": 42.849219,
            "value": 0.6850393700787402
          },
          {
            "number": 71,
            "ticks": 4668,
            "time": 42.904366,
            "value": 0.6692913385826772
          },
          {
            "number": 71,
            "ticks": 4675,
            "time": 42.96870416666667,
            "value": 0.6535433070866141
          },
          {
            "number": 71,
            "ticks": 4681,
            "time": 43.023851166666674,
            "value": 0.6377952755905512
          },
          {
            "number": 71,
            "ticks": 4688,
            "time": 43.08818933333333,
            "value": 0.6299212598425197
          },
          {
            "number": 71,
            "ticks": 4694,
            "time": 43.14333633333334,
            "value": 0.6062992125984252
          },
          {
            "number": 71,
            "ticks": 4701,
            "time": 43.2076745,
            "value": 0.5984251968503937
          },
          {
            "number": 71,
            "ticks": 4707,
            "time": 43.2628215,
            "value": 0.5826771653543307
          },
          {
            "number": 71,
            "ticks": 4714,
            "time": 43.327159666666674,
            "value": 0.5669291338582677
          },
          {
            "number": 71,
            "ticks": 4720,
            "time": 43.38230666666667,
            "value": 0.5511811023622047
          },
          {
            "number": 71,
            "ticks": 4727,
            "time": 43.44664483333334,
            "value": 0.5354330708661418
          },
          {
            "number": 71,
            "ticks": 4733,
            "time": 43.501791833333336,
            "value": 0.5196850393700787
          },
          {
            "number": 71,
            "ticks": 4740,
            "time": 43.56613,
            "value": 0.5118110236220472
          },
          {
            "number": 71,
            "ticks": 4746,
            "time": 43.621277,
            "value": 0.49606299212598426
          },
          {
            "number": 71,
            "ticks": 4752,
            "time": 43.676424,
            "value": 0.49606299212598426
          },
          {
            "number": 71,
            "ticks": 4758,
            "time": 43.731571,
            "value": 0.5118110236220472
          },
          {
            "number": 71,
            "ticks": 4764,
            "time": 43.786718,
            "value": 0.5196850393700787
          },
          {
            "number": 71,
            "ticks": 4771,
            "time": 43.85105616666667,
            "value": 0.5354330708661418
          },
          {
            "number": 71,
            "ticks": 4777,
            "time": 43.90620316666667,
            "value": 0.5511811023622047
          },
          {
            "number": 71,
            "ticks": 4784,
            "time": 43.97054133333334,
            "value": 0.5669291338582677
          },
          {
            "number": 71,
            "ticks": 4790,
            "time": 44.025688333333335,
            "value": 0.5826771653543307
          },
          {
            "number": 71,
            "ticks": 4797,
            "time": 44.0900265,
            "value": 0.5984251968503937
          },
          {
            "number": 71,
            "ticks": 4803,
            "time": 44.1451735,
            "value": 0.6062992125984252
          },
          {
            "number": 71,
            "ticks": 4810,
            "time": 44.20951166666667,
            "value": 0.6299212598425197
          },
          {
            "number": 71,
            "ticks": 4816,
            "time": 44.26465866666667,
            "value": 0.6377952755905512
          },
          {
            "number": 71,
            "ticks": 4823,
            "time": 44.328996833333335,
            "value": 0.6535433070866141
          },
          {
            "number": 71,
            "ticks": 4829,
            "time": 44.38414383333333,
            "value": 0.6692913385826772
          },
          {
            "number": 71,
            "ticks": 4836,
            "time": 44.448482,
            "value": 0.6850393700787402
          },
          {
            "number": 71,
            "ticks": 4842,
            "time": 44.503629,
            "value": 0.7007874015748031
          },
          {
            "number": 71,
            "ticks": 4848,
            "time": 44.558776,
            "value": 0.7165354330708661
          },
          {
            "number": 71,
            "ticks": 4855,
            "time": 44.623114166666674,
            "value": 0.7244094488188977
          },
          {
            "number": 71,
            "ticks": 4861,
            "time": 44.67826116666667,
            "value": 0.7480314960629921
          },
          {
            "number": 71,
            "ticks": 4868,
            "time": 44.74259933333334,
            "value": 0.7559055118110236
          },
          {
            "number": 71,
            "ticks": 4874,
            "time": 44.797746333333336,
            "value": 0.7716535433070866
          },
          {
            "number": 71,
            "ticks": 4881,
            "time": 44.8620845,
            "value": 0.7874015748031497
          },
          {
            "number": 71,
            "ticks": 4887,
            "time": 44.9172315,
            "value": 0.8031496062992126
          },
          {
            "number": 71,
            "ticks": 4894,
            "time": 44.98156966666667,
            "value": 0.8188976377952756
          },
          {
            "number": 71,
            "ticks": 4900,
            "time": 45.03671666666667,
            "value": 0.8346456692913385
          },
          {
            "number": 71,
            "ticks": 4907,
            "time": 45.101054833333336,
            "value": 0.84251968503937
          },
          {
            "number": 71,
            "ticks": 4913,
            "time": 45.156201833333334,
            "value": 0.8661417322834646
          },
          {
            "number": 71,
            "ticks": 4920,
            "time": 45.22054,
            "value": 0.8661417322834646
          },
          {
            "number": 71,
            "ticks": 4927,
            "time": 45.28487816666667,
            "value": 0.84251968503937
          },
          {
            "number": 71,
            "ticks": 4933,
            "time": 45.34002516666667,
            "value": 0.8346456692913385
          },
          {
            "number": 71,
            "ticks": 4940,
            "time": 45.404363333333336,
            "value": 0.8188976377952756
          },
          {
            "number": 71,
            "ticks": 4946,
            "time": 45.459510333333334,
            "value": 0.8031496062992126
          },
          {
            "number": 71,
            "ticks": 4953,
            "time": 45.5238485,
            "value": 0.7874015748031497
          },
          {
            "number": 71,
            "ticks": 4959,
            "time": 45.5789955,
            "value": 0.7716535433070866
          },
          {
            "number": 71,
            "ticks": 4966,
            "time": 45.64333366666667,
            "value": 0.7559055118110236
          },
          {
            "number": 71,
            "ticks": 4972,
            "time": 45.69848066666667,
            "value": 0.7480314960629921
          },
          {
            "number": 71,
            "ticks": 4979,
            "time": 45.762818833333334,
            "value": 0.7244094488188977
          },
          {
            "number": 71,
            "ticks": 4985,
            "time": 45.81796583333333,
            "value": 0.7165354330708661
          },
          {
            "number": 71,
            "ticks": 4992,
            "time": 45.882304,
            "value": 0.7007874015748031
          },
          {
            "number": 71,
            "ticks": 4998,
            "time": 45.937451,
            "value": 0.6850393700787402
          },
          {
            "number": 71,
            "ticks": 5004,
            "time": 45.992598,
            "value": 0.6692913385826772
          },
          {
            "number": 71,
            "ticks": 5011,
            "time": 46.056936166666674,
            "value": 0.6535433070866141
          },
          {
            "number": 71,
            "ticks": 5017,
            "time": 46.11208316666667,
            "value": 0.6377952755905512
          },
          {
            "number": 71,
            "ticks": 5024,
            "time": 46.17642133333334,
            "value": 0.6299212598425197
          },
          {
            "number": 71,
            "ticks": 5030,
            "time": 46.231568333333335,
            "value": 0.6062992125984252
          },
          {
            "number": 71,
            "ticks": 5037,
            "time": 46.2959065,
            "value": 0.5984251968503937
          },
          {
            "number": 71,
            "ticks": 5044,
            "time": 46.360244666666674,
            "value": 0.8346456692913385
          },
          {
            "number": 71,
            "ticks": 5051,
            "time": 46.42458283333333,
            "value": 0.84251968503937
          },
          {
            "number": 71,
            "ticks": 5057,
            "time": 46.47972983333334,
            "value": 0.8661417322834646
          },
          {
            "number": 71,
            "ticks": 5064,
            "time": 46.544068,
            "value": 0.8661417322834646
          },
          {
            "number": 71,
            "ticks": 5071,
            "time": 46.60840616666667,
            "value": 0.84251968503937
          },
          {
            "number": 71,
            "ticks": 5077,
            "time": 46.663553166666674,
            "value": 0.8346456692913385
          },
          {
            "number": 71,
            "ticks": 5084,
            "time": 46.72789133333333,
            "value": 0.8188976377952756
          },
          {
            "number": 71,
            "ticks": 5090,
            "time": 46.78303833333334,
            "value": 0.8031496062992126
          },
          {
            "number": 71,
            "ticks": 5097,
            "time": 46.8473765,
            "value": 0.7874015748031497
          },
          {
            "number": 71,
            "ticks": 5103,
            "time": 46.9025235,
            "value": 0.7716535433070866
          },
          {
            "number": 71,
            "ticks": 5110,
            "time": 46.966861666666674,
            "value": 0.7559055118110236
          },
          {
            "number": 71,
            "ticks": 5116,
            "time": 47.02200866666667,
            "value": 0.7480314960629921
          },
          {
            "number": 71,
            "ticks": 5123,
            "time": 47.08634683333334,
            "value": 0.7244094488188977
          },
          {
            "number": 71,
            "ticks": 5129,
            "time": 47.141493833333335,
            "value": 0.7165354330708661
          },
          {
            "number": 71,
            "ticks": 5136,
            "time": 47.205832,
            "value": 0.7007874015748031
          },
          {
            "number": 71,
            "ticks": 5142,
            "time": 47.260979,
            "value": 0.6850393700787402
          },
          {
            "number": 71,
            "ticks": 5148,
            "time": 47.316126,
            "value": 0.6692913385826772
          },
          {
            "number": 71,
            "ticks": 5155,
            "time": 47.38046416666667,
            "value": 0.6535433070866141
          },
          {
            "number": 71,
            "ticks": 5161,
            "time": 47.43561116666667,
            "value": 0.6377952755905512
          },
          {
            "number": 71,
            "ticks": 5168,
            "time": 47.49994933333333,
            "value": 0.6299212598425197
          },
          {
            "number": 71,
            "ticks": 5174,
            "time": 47.55509633333334,
            "value": 0.6062992125984252
          },
          {
            "number": 71,
            "ticks": 5181,
            "time": 47.6194345,
            "value": 0.5984251968503937
          },
          {
            "number": 71,
            "ticks": 5187,
            "time": 47.6745815,
            "value": 0.5826771653543307
          },
          {
            "number": 71,
            "ticks": 5194,
            "time": 47.73891966666667,
            "value": 0.5669291338582677
          },
          {
            "number": 71,
            "ticks": 5200,
            "time": 47.79406666666667,
            "value": 0.5511811023622047
          },
          {
            "number": 71,
            "ticks": 5207,
            "time": 47.85840483333334,
            "value": 0.5354330708661418
          },
          {
            "number": 71,
            "ticks": 5213,
            "time": 47.91355183333334,
            "value": 0.5196850393700787
          },
          {
            "number": 71,
            "ticks": 5220,
            "time": 47.97789,
            "value": 0.5118110236220472
          },
          {
            "number": 71,
            "ticks": 5226,
            "time": 48.033037,
            "value": 0.49606299212598426
          },
          {
            "number": 71,
            "ticks": 5232,
            "time": 48.088184,
            "value": 0.49606299212598426
          },
          {
            "number": 71,
            "ticks": 5238,
            "time": 48.143331,
            "value": 0.5118110236220472
          },
          {
            "number": 71,
            "ticks": 5244,
            "time": 48.198478,
            "value": 0.5196850393700787
          },
          {
            "number": 71,
            "ticks": 5251,
            "time": 48.262816166666674,
            "value": 0.5354330708661418
          },
          {
            "number": 71,
            "ticks": 5257,
            "time": 48.31796316666667,
            "value": 0.5511811023622047
          },
          {
            "number": 71,
            "ticks": 5264,
            "time": 48.38230133333334,
            "value": 0.5669291338582677
          },
          {
            "number": 71,
            "ticks": 5270,
            "time": 48.437448333333336,
            "value": 0.5826771653543307
          },
          {
            "number": 71,
            "ticks": 5277,
            "time": 48.5017865,
            "value": 0.5984251968503937
          },
          {
            "number": 71,
            "ticks": 5283,
            "time": 48.5569335,
            "value": 0.6062992125984252
          },
          {
            "number": 71,
            "ticks": 5290,
            "time": 48.62127166666667,
            "value": 0.6299212598425197
          },
          {
            "number": 71,
            "ticks": 5296,
            "time": 48.67641866666667,
            "value": 0.6377952755905512
          },
          {
            "number": 71,
            "ticks": 5303,
            "time": 48.740756833333336,
            "value": 0.6535433070866141
          },
          {
            "number": 71,
            "ticks": 5309,
            "time": 48.795903833333334,
            "value": 0.6692913385826772
          },
          {
            "number": 71,
            "ticks": 5316,
            "time": 48.860242,
            "value": 0.6850393700787402
          },
          {
            "number": 71,
            "ticks": 5322,
            "time": 48.915389,
            "value": 0.7007874015748031
          },
          {
            "number": 71,
            "ticks": 5328,
            "time": 48.970536,
            "value": 0.7165354330708661
          },
          {
            "number": 71,
            "ticks": 5335,
            "time": 49.03487416666667,
            "value": 0.7244094488188977
          },
          {
            "number": 71,
            "ticks": 5341,
            "time": 49.09002116666667,
            "value": 0.7480314960629921
          },
          {
            "number": 71,
            "ticks": 5348,
            "time": 49.15435933333334,
            "value": 0.7559055118110236
          },
          {
            "number": 71,
            "ticks": 5354,
            "time": 49.20950633333334,
            "value": 0.7716535433070866
          },
          {
            "number": 71,
            "ticks": 5361,
            "time": 49.2738445,
            "value": 0.7874015748031497
          },
          {
            "number": 71,
            "ticks": 5367,
            "time": 49.3289915,
            "value": 0.8031496062992126
          },
          {
            "number": 71,
            "ticks": 5374,
            "time": 49.39332966666667,
            "value": 0.8188976377952756
          },
          {
            "number": 71,
            "ticks": 5380,
            "time": 49.44847666666667,
            "value": 0.8346456692913385
          },
          {
            "number": 71,
            "ticks": 5387,
            "time": 49.51281483333334,
            "value": 0.84251968503937
          },
          {
            "number": 71,
            "ticks": 5393,
            "time": 49.567961833333335,
            "value": 0.8661417322834646
          },
          {
            "number": 71,
            "ticks": 5400,
            "time": 49.6323,
            "value": 0.8661417322834646
          },
          {
            "number": 71,
            "ticks": 5407,
            "time": 49.69663816666667,
            "value": 0.84251968503937
          },
          {
            "number": 71,
            "ticks": 5413,
            "time": 49.75178516666667,
            "value": 0.8346456692913385
          },
          {
            "number": 71,
            "ticks": 5420,
            "time": 49.81612333333334,
            "value": 0.8188976377952756
          },
          {
            "number": 71,
            "ticks": 5426,
            "time": 49.871270333333335,
            "value": 0.8031496062992126
          },
          {
            "number": 71,
            "ticks": 5433,
            "time": 49.9356085,
            "value": 0.7874015748031497
          },
          {
            "number": 71,
            "ticks": 5439,
            "time": 49.9907555,
            "value": 0.7716535433070866
          },
          {
            "number": 71,
            "ticks": 5446,
            "time": 50.05509366666667,
            "value": 0.7559055118110236
          },
          {
            "number": 71,
            "ticks": 5452,
            "time": 50.11024066666667,
            "value": 0.7480314960629921
          },
          {
            "number": 71,
            "ticks": 5459,
            "time": 50.174578833333335,
            "value": 0.7244094488188977
          },
          {
            "number": 71,
            "ticks": 5465,
            "time": 50.22972583333333,
            "value": 0.7165354330708661
          },
          {
            "number": 71,
            "ticks": 5472,
            "time": 50.294064,
            "value": 0.7007874015748031
          },
          {
            "number": 71,
            "ticks": 5478,
            "time": 50.349211,
            "value": 0.6850393700787402
          },
          {
            "number": 71,
            "ticks": 5484,
            "time": 50.404358,
            "value": 0.6692913385826772
          },
          {
            "number": 71,
            "ticks": 5491,
            "time": 50.46869616666667,
            "value": 0.6535433070866141
          },
          {
            "number": 71,
            "ticks": 5497,
            "time": 50.52384316666667,
            "value": 0.6377952755905512
          },
          {
            "number": 71,
            "ticks": 5504,
            "time": 50.58818133333334,
            "value": 0.6299212598425197
          },
          {
            "number": 71,
            "ticks": 5510,
            "time": 50.643328333333336,
            "value": 0.6062992125984252
          },
          {
            "number": 71,
            "ticks": 5517,
            "time": 50.7076665,
            "value": 0.5984251968503937
          },
          {
            "number": 71,
            "ticks": 5523,
            "time": 50.7628135,
            "value": 0.5826771653543307
          },
          {
            "number": 71,
            "ticks": 5530,
            "time": 50.82715166666667,
            "value": 0.5669291338582677
          },
          {
            "number": 71,
            "ticks": 5536,
            "time": 50.88229866666667,
            "value": 0.5511811023622047
          },
          {
            "number": 71,
            "ticks": 5543,
            "time": 50.946636833333336,
            "value": 0.5354330708661418
          },
          {
            "number": 71,
            "ticks": 5549,
            "time": 51.001783833333334,
            "value": 0.5196850393700787
          },
          {
            "number": 71,
            "ticks": 5556,
            "time": 51.066122,
            "value": 0.5118110236220472
          },
          {
            "number": 71,
            "ticks": 5562,
            "time": 51.121269,
            "value": 0.49606299212598426
          },
          {
            "number": 71,
            "ticks": 5568,
            "time": 51.176416,
            "value": 0.49606299212598426
          },
          {
            "number": 71,
            "ticks": 5574,
            "time": 51.231563,
            "value": 0.5118110236220472
          },
          {
            "number": 71,
            "ticks": 5580,
            "time": 51.28671,
            "value": 0.5196850393700787
          },
          {
            "number": 71,
            "ticks": 5587,
            "time": 51.35104816666667,
            "value": 0.5354330708661418
          },
          {
            "number": 71,
            "ticks": 5593,
            "time": 51.40619516666667,
            "value": 0.5511811023622047
          },
          {
            "number": 71,
            "ticks": 5600,
            "time": 51.470533333333336,
            "value": 0.5669291338582677
          },
          {
            "number": 71,
            "ticks": 5606,
            "time": 51.525680333333334,
            "value": 0.5826771653543307
          },
          {
            "number": 71,
            "ticks": 5613,
            "time": 51.5900185,
            "value": 0.5984251968503937
          },
          {
            "number": 71,
            "ticks": 5619,
            "time": 51.6451655,
            "value": 0.6062992125984252
          },
          {
            "number": 71,
            "ticks": 5626,
            "time": 51.70950366666667,
            "value": 0.6299212598425197
          },
          {
            "number": 71,
            "ticks": 5632,
            "time": 51.76465066666667,
            "value": 0.6377952755905512
          },
          {
            "number": 71,
            "ticks": 5639,
            "time": 51.828988833333334,
            "value": 0.6535433070866141
          },
          {
            "number": 71,
            "ticks": 5645,
            "time": 51.88413583333334,
            "value": 0.6692913385826772
          },
          {
            "number": 71,
            "ticks": 5652,
            "time": 51.948474,
            "value": 0.6850393700787402
          },
          {
            "number": 71,
            "ticks": 5658,
            "time": 52.003621,
            "value": 0.7007874015748031
          },
          {
            "number": 71,
            "ticks": 5664,
            "time": 52.058768,
            "value": 0.7165354330708661
          },
          {
            "number": 71,
            "ticks": 5671,
            "time": 52.12310616666667,
            "value": 0.7244094488188977
          },
          {
            "number": 71,
            "ticks": 5677,
            "time": 52.17825316666667,
            "value": 0.7480314960629921
          },
          {
            "number": 71,
            "ticks": 5684,
            "time": 52.24259133333334,
            "value": 0.7559055118110236
          },
          {
            "number": 71,
            "ticks": 5690,
            "time": 52.297738333333335,
            "value": 0.7716535433070866
          },
          {
            "number": 71,
            "ticks": 5697,
            "time": 52.3620765,
            "value": 0.7874015748031497
          },
          {
            "number": 71,
            "ticks": 5703,
            "time": 52.4172235,
            "value": 0.8031496062992126
          },
          {
            "number": 71,
            "ticks": 5710,
            "time": 52.48156166666667,
            "value": 0.8188976377952756
          },
          {
            "number": 71,
            "ticks": 5716,
            "time": 52.53670866666667,
            "value": 0.8346456692913385
          },
          {
            "number": 71,
            "ticks": 5723,
            "time": 52.601046833333335,
            "value": 0.84251968503937
          },
          {
            "number": 71,
            "ticks": 5729,
            "time": 52.65619383333333,
            "value": 0.8661417322834646
          },
          {
            "number": 71,
            "ticks": 5736,
            "time": 52.720532,
            "value": 0.8661417322834646
          },
          {
            "number": 71,
            "ticks": 5743,
            "time": 52.78487016666667,
            "value": 0.84251968503937
          },
          {
            "number": 71,
            "ticks": 5749,
            "time": 52.84001716666667,
            "value": 0.8346456692913385
          },
          {
            "number": 71,
            "ticks": 5756,
            "time": 52.904355333333335,
            "value": 0.8188976377952756
          },
          {
            "number": 71,
            "ticks": 5762,
            "time": 52.95950233333333,
            "value": 0.8031496062992126
          },
          {
            "number": 71,
            "ticks": 5769,
            "time": 53.0238405,
            "value": 0.7874015748031497
          },
          {
            "number": 71,
            "ticks": 5775,
            "time": 53.078987500000004,
            "value": 0.7716535433070866
          },
          {
            "number": 71,
            "ticks": 5782,
            "time": 53.14332566666667,
            "value": 0.7559055118110236
          },
          {
            "number": 71,
            "ticks": 5788,
            "time": 53.198472666666675,
            "value": 0.7480314960629921
          },
          {
            "number": 71,
            "ticks": 5795,
            "time": 53.26281083333333,
            "value": 0.7244094488188977
          },
          {
            "number": 71,
            "ticks": 5801,
            "time": 53.31795783333334,
            "value": 0.7165354330708661
          },
          {
            "number": 71,
            "ticks": 9648,
            "time": 88.676376,
            "value": 0.49606299212598426
          },
          {
            "number": 71,
            "ticks": 9654,
            "time": 88.731523,
            "value": 0.5118110236220472
          },
          {
            "number": 71,
            "ticks": 9660,
            "time": 88.78667,
            "value": 0.5196850393700787
          },
          {
            "number": 71,
            "ticks": 9667,
            "time": 88.85100816666666,
            "value": 0.5354330708661418
          },
          {
            "number": 71,
            "ticks": 9673,
            "time": 88.90615516666666,
            "value": 0.5511811023622047
          },
          {
            "number": 71,
            "ticks": 9680,
            "time": 88.97049333333332,
            "value": 0.5669291338582677
          },
          {
            "number": 71,
            "ticks": 9686,
            "time": 89.02564033333333,
            "value": 0.5826771653543307
          },
          {
            "number": 71,
            "ticks": 9693,
            "time": 89.0899785,
            "value": 0.5984251968503937
          },
          {
            "number": 71,
            "ticks": 9699,
            "time": 89.1451255,
            "value": 0.6062992125984252
          },
          {
            "number": 71,
            "ticks": 9706,
            "time": 89.20946366666666,
            "value": 0.6299212598425197
          },
          {
            "number": 71,
            "ticks": 9712,
            "time": 89.26461066666666,
            "value": 0.6377952755905512
          },
          {
            "number": 71,
            "ticks": 9719,
            "time": 89.32894883333333,
            "value": 0.6535433070866141
          },
          {
            "number": 71,
            "ticks": 9725,
            "time": 89.38409583333333,
            "value": 0.6692913385826772
          },
          {
            "number": 71,
            "ticks": 9732,
            "time": 89.448434,
            "value": 0.6850393700787402
          },
          {
            "number": 71,
            "ticks": 9738,
            "time": 89.503581,
            "value": 0.7007874015748031
          },
          {
            "number": 71,
            "ticks": 9744,
            "time": 89.558728,
            "value": 0.7165354330708661
          },
          {
            "number": 71,
            "ticks": 9751,
            "time": 89.62306616666666,
            "value": 0.7244094488188977
          },
          {
            "number": 71,
            "ticks": 9757,
            "time": 89.67821316666667,
            "value": 0.7480314960629921
          },
          {
            "number": 71,
            "ticks": 9764,
            "time": 89.74255133333332,
            "value": 0.7559055118110236
          },
          {
            "number": 71,
            "ticks": 9770,
            "time": 89.79769833333333,
            "value": 0.7716535433070866
          },
          {
            "number": 71,
            "ticks": 9777,
            "time": 89.8620365,
            "value": 0.7874015748031497
          },
          {
            "number": 71,
            "ticks": 9783,
            "time": 89.91718350000001,
            "value": 0.8031496062992126
          },
          {
            "number": 71,
            "ticks": 9790,
            "time": 89.98152166666667,
            "value": 0.8188976377952756
          },
          {
            "number": 71,
            "ticks": 9796,
            "time": 90.03666866666666,
            "value": 0.8346456692913385
          },
          {
            "number": 71,
            "ticks": 9803,
            "time": 90.10100683333333,
            "value": 0.84251968503937
          },
          {
            "number": 71,
            "ticks": 9809,
            "time": 90.15615383333333,
            "value": 0.8661417322834646
          },
          {
            "number": 71,
            "ticks": 9816,
            "time": 90.22049200000001,
            "value": 0.8661417322834646
          },
          {
            "number": 71,
            "ticks": 9823,
            "time": 90.28483016666667,
            "value": 0.84251968503937
          },
          {
            "number": 71,
            "ticks": 9829,
            "time": 90.33997716666666,
            "value": 0.8346456692913385
          },
          {
            "number": 71,
            "ticks": 9836,
            "time": 90.40431533333333,
            "value": 0.8188976377952756
          },
          {
            "number": 71,
            "ticks": 9842,
            "time": 90.45946233333333,
            "value": 0.8031496062992126
          },
          {
            "number": 71,
            "ticks": 9849,
            "time": 90.52380050000001,
            "value": 0.7874015748031497
          },
          {
            "number": 71,
            "ticks": 9855,
            "time": 90.5789475,
            "value": 0.7716535433070866
          },
          {
            "number": 71,
            "ticks": 9862,
            "time": 90.64328566666666,
            "value": 0.7559055118110236
          },
          {
            "number": 71,
            "ticks": 9868,
            "time": 90.69843266666666,
            "value": 0.7480314960629921
          },
          {
            "number": 71,
            "ticks": 9875,
            "time": 90.76277083333333,
            "value": 0.7244094488188977
          },
          {
            "number": 71,
            "ticks": 9881,
            "time": 90.81791783333333,
            "value": 0.7165354330708661
          },
          {
            "number": 71,
            "ticks": 9888,
            "time": 90.882256,
            "value": 0.7007874015748031
          },
          {
            "number": 71,
            "ticks": 9894,
            "time": 90.937403,
            "value": 0.6850393700787402
          },
          {
            "number": 71,
            "ticks": 9900,
            "time": 90.99255,
            "value": 0.6692913385826772
          },
          {
            "number": 71,
            "ticks": 9907,
            "time": 91.05688816666665,
            "value": 0.6535433070866141
          },
          {
            "number": 71,
            "ticks": 9913,
            "time": 91.11203516666666,
            "value": 0.6377952755905512
          },
          {
            "number": 71,
            "ticks": 9920,
            "time": 91.17637333333333,
            "value": 0.6299212598425197
          },
          {
            "number": 71,
            "ticks": 9926,
            "time": 91.23152033333334,
            "value": 0.6062992125984252
          },
          {
            "number": 71,
            "ticks": 9933,
            "time": 91.2958585,
            "value": 0.5984251968503937
          },
          {
            "number": 71,
            "ticks": 9939,
            "time": 91.3510055,
            "value": 0.5826771653543307
          },
          {
            "number": 71,
            "ticks": 9946,
            "time": 91.41534366666666,
            "value": 0.5669291338582677
          },
          {
            "number": 71,
            "ticks": 9952,
            "time": 91.47049066666666,
            "value": 0.5511811023622047
          },
          {
            "number": 71,
            "ticks": 9959,
            "time": 91.53482883333334,
            "value": 0.5354330708661418
          },
          {
            "number": 71,
            "ticks": 9965,
            "time": 91.58997583333333,
            "value": 0.5196850393700787
          },
          {
            "number": 71,
            "ticks": 9972,
            "time": 91.654314,
            "value": 0.5118110236220472
          },
          {
            "number": 71,
            "ticks": 9978,
            "time": 91.709461,
            "value": 0.49606299212598426
          },
          {
            "number": 71,
            "ticks": 9984,
            "time": 91.764608,
            "value": 0.49606299212598426
          },
          {
            "number": 71,
            "ticks": 9990,
            "time": 91.819755,
            "value": 0.5118110236220472
          },
          {
            "number": 71,
            "ticks": 9996,
            "time": 91.874902,
            "value": 0.5196850393700787
          },
          {
            "number": 71,
            "ticks": 10003,
            "time": 91.93924016666666,
            "value": 0.5354330708661418
          },
          {
            "number": 71,
            "ticks": 10009,
            "time": 91.99438716666666,
            "value": 0.5511811023622047
          },
          {
            "number": 71,
            "ticks": 10016,
            "time": 92.05872533333333,
            "value": 0.5669291338582677
          },
          {
            "number": 71,
            "ticks": 10022,
            "time": 92.11387233333333,
            "value": 0.5826771653543307
          },
          {
            "number": 71,
            "ticks": 10029,
            "time": 92.1782105,
            "value": 0.5984251968503937
          },
          {
            "number": 71,
            "ticks": 10035,
            "time": 92.2333575,
            "value": 0.6062992125984252
          },
          {
            "number": 71,
            "ticks": 10042,
            "time": 92.29769566666666,
            "value": 0.6299212598425197
          },
          {
            "number": 71,
            "ticks": 10048,
            "time": 92.35284266666666,
            "value": 0.6377952755905512
          },
          {
            "number": 71,
            "ticks": 10055,
            "time": 92.41718083333333,
            "value": 0.6535433070866141
          },
          {
            "number": 71,
            "ticks": 10061,
            "time": 92.47232783333332,
            "value": 0.6692913385826772
          },
          {
            "number": 71,
            "ticks": 10068,
            "time": 92.536666,
            "value": 0.6850393700787402
          },
          {
            "number": 71,
            "ticks": 10074,
            "time": 92.591813,
            "value": 0.7007874015748031
          },
          {
            "number": 71,
            "ticks": 10080,
            "time": 92.64696,
            "value": 0.7165354330708661
          },
          {
            "number": 71,
            "ticks": 10087,
            "time": 92.71129816666667,
            "value": 0.7244094488188977
          },
          {
            "number": 71,
            "ticks": 10093,
            "time": 92.76644516666666,
            "value": 0.7480314960629921
          },
          {
            "number": 71,
            "ticks": 10100,
            "time": 92.83078333333333,
            "value": 0.7559055118110236
          },
          {
            "number": 71,
            "ticks": 10106,
            "time": 92.88593033333333,
            "value": 0.7716535433070866
          },
          {
            "number": 71,
            "ticks": 10113,
            "time": 92.9502685,
            "value": 0.7874015748031497
          },
          {
            "number": 71,
            "ticks": 10119,
            "time": 93.0054155,
            "value": 0.8031496062992126
          },
          {
            "number": 71,
            "ticks": 10126,
            "time": 93.06975366666666,
            "value": 0.8188976377952756
          },
          {
            "number": 71,
            "ticks": 10132,
            "time": 93.12490066666666,
            "value": 0.8346456692913385
          },
          {
            "number": 71,
            "ticks": 10139,
            "time": 93.18923883333333,
            "value": 0.84251968503937
          },
          {
            "number": 71,
            "ticks": 10145,
            "time": 93.24438583333333,
            "value": 0.8661417322834646
          },
          {
            "number": 71,
            "ticks": 10152,
            "time": 93.308724,
            "value": 0.8661417322834646
          },
          {
            "number": 71,
            "ticks": 10159,
            "time": 93.37306216666666,
            "value": 0.84251968503937
          },
          {
            "number": 71,
            "ticks": 10165,
            "time": 93.42820916666666,
            "value": 0.8346456692913385
          },
          {
            "number": 71,
            "ticks": 10172,
            "time": 93.49254733333333,
            "value": 0.8188976377952756
          },
          {
            "number": 71,
            "ticks": 10178,
            "time": 93.54769433333333,
            "value": 0.8031496062992126
          },
          {
            "number": 71,
            "ticks": 10185,
            "time": 93.6120325,
            "value": 0.7874015748031497
          },
          {
            "number": 71,
            "ticks": 10191,
            "time": 93.6671795,
            "value": 0.7716535433070866
          },
          {
            "number": 71,
            "ticks": 10198,
            "time": 93.73151766666666,
            "value": 0.7559055118110236
          },
          {
            "number": 71,
            "ticks": 10204,
            "time": 93.78666466666665,
            "value": 0.7480314960629921
          },
          {
            "number": 71,
            "ticks": 10211,
            "time": 93.85100283333333,
            "value": 0.7244094488188977
          },
          {
            "number": 71,
            "ticks": 10217,
            "time": 93.90614983333333,
            "value": 0.7165354330708661
          },
          {
            "number": 71,
            "ticks": 10224,
            "time": 93.970488,
            "value": 0.7007874015748031
          },
          {
            "number": 71,
            "ticks": 10230,
            "time": 94.025635,
            "value": 0.6850393700787402
          },
          {
            "number": 71,
            "ticks": 10236,
            "time": 94.080782,
            "value": 0.6692913385826772
          },
          {
            "number": 71,
            "ticks": 10243,
            "time": 94.14512016666666,
            "value": 0.6535433070866141
          },
          {
            "number": 71,
            "ticks": 10249,
            "time": 94.20026716666666,
            "value": 0.6377952755905512
          },
          {
            "number": 71,
            "ticks": 10256,
            "time": 94.26460533333334,
            "value": 0.6299212598425197
          },
          {
            "number": 71,
            "ticks": 10262,
            "time": 94.31975233333333,
            "value": 0.6062992125984252
          },
          {
            "number": 71,
            "ticks": 10269,
            "time": 94.3840905,
            "value": 0.5984251968503937
          },
          {
            "number": 71,
            "ticks": 10275,
            "time": 94.4392375,
            "value": 0.5826771653543307
          },
          {
            "number": 71,
            "ticks": 10282,
            "time": 94.50357566666666,
            "value": 0.5669291338582677
          },
          {
            "number": 71,
            "ticks": 10288,
            "time": 94.55872266666665,
            "value": 0.5511811023622047
          },
          {
            "number": 71,
            "ticks": 10295,
            "time": 94.62306083333333,
            "value": 0.5354330708661418
          },
          {
            "number": 71,
            "ticks": 10301,
            "time": 94.67820783333333,
            "value": 0.5196850393700787
          },
          {
            "number": 71,
            "ticks": 10308,
            "time": 94.742546,
            "value": 0.5118110236220472
          },
          {
            "number": 71,
            "ticks": 10314,
            "time": 94.797693,
            "value": 0.49606299212598426
          },
          {
            "number": 71,
            "ticks": 10320,
            "time": 94.85284,
            "value": 0.49606299212598426
          },
          {
            "number": 71,
            "ticks": 10326,
            "time": 94.907987,
            "value": 0.5118110236220472
          },
          {
            "number": 71,
            "ticks": 10332,
            "time": 94.963134,
            "value": 0.5196850393700787
          },
          {
            "number": 71,
            "ticks": 10339,
            "time": 95.02747216666666,
            "value": 0.5354330708661418
          },
          {
            "number": 71,
            "ticks": 10345,
            "time": 95.08261916666666,
            "value": 0.5511811023622047
          },
          {
            "number": 71,
            "ticks": 10352,
            "time": 95.14695733333333,
            "value": 0.5669291338582677
          },
          {
            "number": 71,
            "ticks": 10358,
            "time": 95.20210433333332,
            "value": 0.5826771653543307
          },
          {
            "number": 71,
            "ticks": 10365,
            "time": 95.2664425,
            "value": 0.5984251968503937
          },
          {
            "number": 71,
            "ticks": 10371,
            "time": 95.3215895,
            "value": 0.6062992125984252
          },
          {
            "number": 71,
            "ticks": 10378,
            "time": 95.38592766666666,
            "value": 0.6299212598425197
          },
          {
            "number": 71,
            "ticks": 10384,
            "time": 95.44107466666667,
            "value": 0.6377952755905512
          },
          {
            "number": 71,
            "ticks": 10391,
            "time": 95.50541283333332,
            "value": 0.6535433070866141
          },
          {
            "number": 71,
            "ticks": 10397,
            "time": 95.56055983333333,
            "value": 0.6692913385826772
          },
          {
            "number": 71,
            "ticks": 10404,
            "time": 95.624898,
            "value": 0.6850393700787402
          },
          {
            "number": 71,
            "ticks": 10410,
            "time": 95.680045,
            "value": 0.7007874015748031
          },
          {
            "number": 71,
            "ticks": 10416,
            "time": 95.735192,
            "value": 0.7165354330708661
          },
          {
            "number": 71,
            "ticks": 10423,
            "time": 95.79953016666666,
            "value": 0.7244094488188977
          },
          {
            "number": 71,
            "ticks": 10429,
            "time": 95.85467716666666,
            "value": 0.7480314960629921
          },
          {
            "number": 71,
            "ticks": 10436,
            "time": 95.91901533333333,
            "value": 0.7559055118110236
          },
          {
            "number": 71,
            "ticks": 10442,
            "time": 95.97416233333333,
            "value": 0.7716535433070866
          },
          {
            "number": 71,
            "ticks": 10449,
            "time": 96.0385005,
            "value": 0.7874015748031497
          },
          {
            "number": 71,
            "ticks": 10455,
            "time": 96.0936475,
            "value": 0.8031496062992126
          },
          {
            "number": 71,
            "ticks": 10462,
            "time": 96.15798566666666,
            "value": 0.8188976377952756
          },
          {
            "number": 71,
            "ticks": 10468,
            "time": 96.21313266666665,
            "value": 0.8346456692913385
          },
          {
            "number": 71,
            "ticks": 10475,
            "time": 96.27747083333333,
            "value": 0.84251968503937
          },
          {
            "number": 71,
            "ticks": 10481,
            "time": 96.33261783333333,
            "value": 0.8661417322834646
          },
          {
            "number": 71,
            "ticks": 10488,
            "time": 96.396956,
            "value": 0.8661417322834646
          },
          {
            "number": 71,
            "ticks": 10495,
            "time": 96.46129416666666,
            "value": 0.84251968503937
          },
          {
            "number": 71,
            "ticks": 10501,
            "time": 96.51644116666665,
            "value": 0.8346456692913385
          },
          {
            "number": 71,
            "ticks": 10508,
            "time": 96.58077933333333,
            "value": 0.8188976377952756
          },
          {
            "number": 71,
            "ticks": 10514,
            "time": 96.63592633333333,
            "value": 0.8031496062992126
          },
          {
            "number": 71,
            "ticks": 10521,
            "time": 96.7002645,
            "value": 0.7874015748031497
          },
          {
            "number": 71,
            "ticks": 10527,
            "time": 96.7554115,
            "value": 0.7716535433070866
          },
          {
            "number": 71,
            "ticks": 10534,
            "time": 96.81974966666665,
            "value": 0.7559055118110236
          },
          {
            "number": 71,
            "ticks": 10540,
            "time": 96.87489666666666,
            "value": 0.7480314960629921
          },
          {
            "number": 71,
            "ticks": 10547,
            "time": 96.93923483333333,
            "value": 0.7244094488188977
          },
          {
            "number": 71,
            "ticks": 10553,
            "time": 96.99438183333334,
            "value": 0.7165354330708661
          },
          {
            "number": 71,
            "ticks": 10560,
            "time": 97.05872,
            "value": 0.7007874015748031
          },
          {
            "number": 71,
            "ticks": 10566,
            "time": 97.113867,
            "value": 0.6850393700787402
          },
          {
            "number": 71,
            "ticks": 10572,
            "time": 97.169014,
            "value": 0.6692913385826772
          },
          {
            "number": 71,
            "ticks": 10579,
            "time": 97.23335216666666,
            "value": 0.6535433070866141
          },
          {
            "number": 71,
            "ticks": 10585,
            "time": 97.28849916666665,
            "value": 0.6377952755905512
          },
          {
            "number": 71,
            "ticks": 10592,
            "time": 97.35283733333333,
            "value": 0.6299212598425197
          },
          {
            "number": 71,
            "ticks": 10598,
            "time": 97.40798433333333,
            "value": 0.6062992125984252
          },
          {
            "number": 71,
            "ticks": 10605,
            "time": 97.4723225,
            "value": 0.5984251968503937
          },
          {
            "number": 71,
            "ticks": 10611,
            "time": 97.5274695,
            "value": 0.5826771653543307
          },
          {
            "number": 71,
            "ticks": 10618,
            "time": 97.59180766666665,
            "value": 0.5669291338582677
          },
          {
            "number": 71,
            "ticks": 10624,
            "time": 97.64695466666666,
            "value": 0.5511811023622047
          },
          {
            "number": 71,
            "ticks": 10631,
            "time": 97.71129283333333,
            "value": 0.5354330708661418
          },
          {
            "number": 71,
            "ticks": 10637,
            "time": 97.76643983333334,
            "value": 0.5196850393700787
          },
          {
            "number": 71,
            "ticks": 10644,
            "time": 97.830778,
            "value": 0.5118110236220472
          },
          {
            "number": 71,
            "ticks": 10650,
            "time": 97.885925,
            "value": 0.49606299212598426
          },
          {
            "number": 71,
            "ticks": 10656,
            "time": 97.941072,
            "value": 0.49606299212598426
          },
          {
            "number": 71,
            "ticks": 10662,
            "time": 97.996219,
            "value": 0.5118110236220472
          },
          {
            "number": 71,
            "ticks": 10668,
            "time": 98.051366,
            "value": 0.5196850393700787
          },
          {
            "number": 71,
            "ticks": 10675,
            "time": 98.11570416666666,
            "value": 0.5354330708661418
          },
          {
            "number": 71,
            "ticks": 10681,
            "time": 98.17085116666667,
            "value": 0.5511811023622047
          },
          {
            "number": 71,
            "ticks": 10688,
            "time": 98.23518933333332,
            "value": 0.5669291338582677
          },
          {
            "number": 71,
            "ticks": 10694,
            "time": 98.29033633333333,
            "value": 0.5826771653543307
          },
          {
            "number": 71,
            "ticks": 10701,
            "time": 98.3546745,
            "value": 0.5984251968503937
          },
          {
            "number": 71,
            "ticks": 10707,
            "time": 98.4098215,
            "value": 0.6062992125984252
          },
          {
            "number": 71,
            "ticks": 10714,
            "time": 98.47415966666667,
            "value": 0.6299212598425197
          },
          {
            "number": 71,
            "ticks": 10720,
            "time": 98.52930666666666,
            "value": 0.6377952755905512
          },
          {
            "number": 71,
            "ticks": 10727,
            "time": 98.59364483333333,
            "value": 0.6535433070866141
          },
          {
            "number": 71,
            "ticks": 10733,
            "time": 98.64879183333333,
            "value": 0.6692913385826772
          },
          {
            "number": 71,
            "ticks": 10740,
            "time": 98.71313,
            "value": 0.6850393700787402
          },
          {
            "number": 71,
            "ticks": 10746,
            "time": 98.768277,
            "value": 0.7007874015748031
          },
          {
            "number": 71,
            "ticks": 10752,
            "time": 98.823424,
            "value": 0.7165354330708661
          },
          {
            "number": 71,
            "ticks": 10759,
            "time": 98.88776216666666,
            "value": 0.7244094488188977
          },
          {
            "number": 71,
            "ticks": 10765,
            "time": 98.94290916666665,
            "value": 0.7480314960629921
          },
          {
            "number": 71,
            "ticks": 10772,
            "time": 99.00724733333332,
            "value": 0.7559055118110236
          },
          {
            "number": 71,
            "ticks": 10778,
            "time": 99.06239433333333,
            "value": 0.7716535433070866
          },
          {
            "number": 71,
            "ticks": 10785,
            "time": 99.1267325,
            "value": 0.7874015748031497
          },
          {
            "number": 71,
            "ticks": 10791,
            "time": 99.1818795,
            "value": 0.8031496062992126
          },
          {
            "number": 71,
            "ticks": 10798,
            "time": 99.24621766666665,
            "value": 0.8188976377952756
          },
          {
            "number": 71,
            "ticks": 10804,
            "time": 99.30136466666666,
            "value": 0.8346456692913385
          },
          {
            "number": 71,
            "ticks": 10811,
            "time": 99.36570283333333,
            "value": 0.84251968503937
          },
          {
            "number": 71,
            "ticks": 10817,
            "time": 99.42084983333334,
            "value": 0.8661417322834646
          },
          {
            "number": 71,
            "ticks": 10824,
            "time": 99.485188,
            "value": 0.8661417322834646
          },
          {
            "number": 71,
            "ticks": 10831,
            "time": 99.54952616666665,
            "value": 0.84251968503937
          },
          {
            "number": 71,
            "ticks": 10837,
            "time": 99.60467316666666,
            "value": 0.8346456692913385
          },
          {
            "number": 71,
            "ticks": 10844,
            "time": 99.66901133333333,
            "value": 0.8188976377952756
          },
          {
            "number": 71,
            "ticks": 10850,
            "time": 99.72415833333334,
            "value": 0.8031496062992126
          },
          {
            "number": 71,
            "ticks": 10857,
            "time": 99.78849650000001,
            "value": 0.7874015748031497
          },
          {
            "number": 71,
            "ticks": 10863,
            "time": 99.8436435,
            "value": 0.7716535433070866
          },
          {
            "number": 71,
            "ticks": 10870,
            "time": 99.90798166666666,
            "value": 0.7559055118110236
          },
          {
            "number": 71,
            "ticks": 10876,
            "time": 99.96312866666666,
            "value": 0.7480314960629921
          },
          {
            "number": 71,
            "ticks": 10883,
            "time": 100.02746683333334,
            "value": 0.7244094488188977
          },
          {
            "number": 71,
            "ticks": 10889,
            "time": 100.08261383333333,
            "value": 0.7165354330708661
          },
          {
            "number": 71,
            "ticks": 10896,
            "time": 100.146952,
            "value": 0.7007874015748031
          },
          {
            "number": 71,
            "ticks": 10902,
            "time": 100.202099,
            "value": 0.6850393700787402
          },
          {
            "number": 71,
            "ticks": 10908,
            "time": 100.257246,
            "value": 0.6692913385826772
          },
          {
            "number": 71,
            "ticks": 10915,
            "time": 100.32158416666665,
            "value": 0.6535433070866141
          },
          {
            "number": 71,
            "ticks": 10921,
            "time": 100.37673116666666,
            "value": 0.6377952755905512
          },
          {
            "number": 71,
            "ticks": 10928,
            "time": 100.44106933333333,
            "value": 0.6299212598425197
          },
          {
            "number": 71,
            "ticks": 10934,
            "time": 100.49621633333334,
            "value": 0.6062992125984252
          },
          {
            "number": 71,
            "ticks": 10941,
            "time": 100.5605545,
            "value": 0.5984251968503937
          },
          {
            "number": 71,
            "ticks": 10947,
            "time": 100.6157015,
            "value": 0.5826771653543307
          },
          {
            "number": 71,
            "ticks": 10954,
            "time": 100.68003966666666,
            "value": 0.5669291338582677
          },
          {
            "number": 71,
            "ticks": 10960,
            "time": 100.73518666666666,
            "value": 0.5511811023622047
          },
          {
            "number": 71,
            "ticks": 10967,
            "time": 100.79952483333334,
            "value": 0.5354330708661418
          },
          {
            "number": 71,
            "ticks": 10973,
            "time": 100.85467183333333,
            "value": 0.5196850393700787
          },
          {
            "number": 71,
            "ticks": 10980,
            "time": 100.91901,
            "value": 0.5118110236220472
          },
          {
            "number": 71,
            "ticks": 10986,
            "time": 100.974157,
            "value": 0.49606299212598426
          },
          {
            "number": 71,
            "ticks": 10992,
            "time": 101.029304,
            "value": 0.49606299212598426
          },
          {
            "number": 71,
            "ticks": 10998,
            "time": 101.084451,
            "value": 0.5118110236220472
          },
          {
            "number": 71,
            "ticks": 11004,
            "time": 101.139598,
            "value": 0.5196850393700787
          },
          {
            "number": 71,
            "ticks": 11011,
            "time": 101.20393616666667,
            "value": 0.5354330708661418
          },
          {
            "number": 71,
            "ticks": 11017,
            "time": 101.25908316666666,
            "value": 0.5511811023622047
          },
          {
            "number": 71,
            "ticks": 11024,
            "time": 101.32342133333333,
            "value": 0.5669291338582677
          },
          {
            "number": 71,
            "ticks": 11030,
            "time": 101.37856833333333,
            "value": 0.5826771653543307
          },
          {
            "number": 71,
            "ticks": 11037,
            "time": 101.4429065,
            "value": 0.5984251968503937
          },
          {
            "number": 71,
            "ticks": 11043,
            "time": 101.4980535,
            "value": 0.6062992125984252
          },
          {
            "number": 71,
            "ticks": 11050,
            "time": 101.56239166666666,
            "value": 0.6299212598425197
          },
          {
            "number": 71,
            "ticks": 11056,
            "time": 101.61753866666666,
            "value": 0.6377952755905512
          },
          {
            "number": 71,
            "ticks": 11063,
            "time": 101.68187683333333,
            "value": 0.6535433070866141
          },
          {
            "number": 71,
            "ticks": 11069,
            "time": 101.73702383333332,
            "value": 0.6692913385826772
          },
          {
            "number": 71,
            "ticks": 11076,
            "time": 101.801362,
            "value": 0.6850393700787402
          },
          {
            "number": 71,
            "ticks": 11082,
            "time": 101.856509,
            "value": 0.7007874015748031
          },
          {
            "number": 71,
            "ticks": 11088,
            "time": 101.91165600000001,
            "value": 0.7165354330708661
          },
          {
            "number": 71,
            "ticks": 11095,
            "time": 101.97599416666667,
            "value": 0.7244094488188977
          },
          {
            "number": 71,
            "ticks": 11101,
            "time": 102.03114116666666,
            "value": 0.7480314960629921
          },
          {
            "number": 71,
            "ticks": 11108,
            "time": 102.09547933333333,
            "value": 0.7559055118110236
          },
          {
            "number": 71,
            "ticks": 11114,
            "time": 102.15062633333334,
            "value": 0.7716535433070866
          },
          {
            "number": 71,
            "ticks": 11121,
            "time": 102.21496450000001,
            "value": 0.7874015748031497
          },
          {
            "number": 71,
            "ticks": 11127,
            "time": 102.2701115,
            "value": 0.8031496062992126
          },
          {
            "number": 71,
            "ticks": 11134,
            "time": 102.33444966666666,
            "value": 0.8188976377952756
          },
          {
            "number": 71,
            "ticks": 11140,
            "time": 102.38959666666666,
            "value": 0.8346456692913385
          },
          {
            "number": 71,
            "ticks": 11147,
            "time": 102.45393483333334,
            "value": 0.84251968503937
          },
          {
            "number": 71,
            "ticks": 11153,
            "time": 102.50908183333333,
            "value": 0.8661417322834646
          },
          {
            "number": 71,
            "ticks": 11160,
            "time": 102.57342,
            "value": 0.8661417322834646
          },
          {
            "number": 71,
            "ticks": 11167,
            "time": 102.63775816666666,
            "value": 0.84251968503937
          },
          {
            "number": 71,
            "ticks": 11173,
            "time": 102.69290516666666,
            "value": 0.8346456692913385
          },
          {
            "number": 71,
            "ticks": 11180,
            "time": 102.75724333333334,
            "value": 0.8188976377952756
          },
          {
            "number": 71,
            "ticks": 15024,
            "time": 138.088088,
            "value": 0.49606299212598426
          },
          {
            "number": 71,
            "ticks": 15030,
            "time": 138.143235,
            "value": 0.5118110236220472
          },
          {
            "number": 71,
            "ticks": 15036,
            "time": 138.198382,
            "value": 0.5196850393700787
          },
          {
            "number": 71,
            "ticks": 15043,
            "time": 138.2627201666667,
            "value": 0.5354330708661418
          },
          {
            "number": 71,
            "ticks": 15049,
            "time": 138.31786716666667,
            "value": 0.5511811023622047
          },
          {
            "number": 71,
            "ticks": 15056,
            "time": 138.38220533333333,
            "value": 0.5669291338582677
          },
          {
            "number": 71,
            "ticks": 15062,
            "time": 138.43735233333334,
            "value": 0.5826771653543307
          },
          {
            "number": 71,
            "ticks": 15069,
            "time": 138.5016905,
            "value": 0.5984251968503937
          },
          {
            "number": 71,
            "ticks": 15075,
            "time": 138.5568375,
            "value": 0.6062992125984252
          },
          {
            "number": 71,
            "ticks": 15082,
            "time": 138.6211756666667,
            "value": 0.6299212598425197
          },
          {
            "number": 71,
            "ticks": 15088,
            "time": 138.6763226666667,
            "value": 0.6377952755905512
          },
          {
            "number": 71,
            "ticks": 15095,
            "time": 138.74066083333335,
            "value": 0.6535433070866141
          },
          {
            "number": 71,
            "ticks": 15101,
            "time": 138.79580783333336,
            "value": 0.6692913385826772
          },
          {
            "number": 71,
            "ticks": 15108,
            "time": 138.86014600000001,
            "value": 0.6850393700787402
          },
          {
            "number": 71,
            "ticks": 15114,
            "time": 138.915293,
            "value": 0.7007874015748031
          },
          {
            "number": 71,
            "ticks": 15120,
            "time": 138.97044,
            "value": 0.7165354330708661
          },
          {
            "number": 71,
            "ticks": 15127,
            "time": 139.03477816666668,
            "value": 0.7244094488188977
          },
          {
            "number": 71,
            "ticks": 15133,
            "time": 139.0899251666667,
            "value": 0.7480314960629921
          },
          {
            "number": 71,
            "ticks": 15140,
            "time": 139.15426333333335,
            "value": 0.7559055118110236
          },
          {
            "number": 71,
            "ticks": 15146,
            "time": 139.20941033333335,
            "value": 0.7716535433070866
          },
          {
            "number": 71,
            "ticks": 15153,
            "time": 139.2737485,
            "value": 0.7874015748031497
          },
          {
            "number": 71,
            "ticks": 15159,
            "time": 139.32889550000002,
            "value": 0.8031496062992126
          },
          {
            "number": 71,
            "ticks": 15166,
            "time": 139.39323366666667,
            "value": 0.8188976377952756
          },
          {
            "number": 71,
            "ticks": 15172,
            "time": 139.44838066666668,
            "value": 0.8346456692913385
          },
          {
            "number": 71,
            "ticks": 15179,
            "time": 139.51271883333334,
            "value": 0.84251968503937
          },
          {
            "number": 71,
            "ticks": 15185,
            "time": 139.56786583333334,
            "value": 0.8661417322834646
          },
          {
            "number": 71,
            "ticks": 15192,
            "time": 139.632204,
            "value": 0.8661417322834646
          },
          {
            "number": 71,
            "ticks": 15199,
            "time": 139.6965421666667,
            "value": 0.84251968503937
          },
          {
            "number": 71,
            "ticks": 15205,
            "time": 139.7516891666667,
            "value": 0.8346456692913385
          },
          {
            "number": 71,
            "ticks": 15212,
            "time": 139.81602733333335,
            "value": 0.8188976377952756
          },
          {
            "number": 71,
            "ticks": 15218,
            "time": 139.87117433333336,
            "value": 0.8031496062992126
          },
          {
            "number": 71,
            "ticks": 15225,
            "time": 139.93551250000002,
            "value": 0.7874015748031497
          },
          {
            "number": 71,
            "ticks": 15231,
            "time": 139.9906595,
            "value": 0.7716535433070866
          },
          {
            "number": 71,
            "ticks": 15238,
            "time": 140.05499766666668,
            "value": 0.7559055118110236
          },
          {
            "number": 71,
            "ticks": 15244,
            "time": 140.11014466666668,
            "value": 0.7480314960629921
          },
          {
            "number": 71,
            "ticks": 15251,
            "time": 140.17448283333334,
            "value": 0.7244094488188977
          },
          {
            "number": 71,
            "ticks": 15257,
            "time": 140.22962983333335,
            "value": 0.7165354330708661
          },
          {
            "number": 71,
            "ticks": 15264,
            "time": 140.293968,
            "value": 0.7007874015748031
          },
          {
            "number": 71,
            "ticks": 15270,
            "time": 140.349115,
            "value": 0.6850393700787402
          },
          {
            "number": 71,
            "ticks": 15276,
            "time": 140.40426200000002,
            "value": 0.6692913385826772
          },
          {
            "number": 71,
            "ticks": 15283,
            "time": 140.46860016666668,
            "value": 0.6535433070866141
          },
          {
            "number": 71,
            "ticks": 15289,
            "time": 140.52374716666668,
            "value": 0.6377952755905512
          },
          {
            "number": 71,
            "ticks": 15296,
            "time": 140.58808533333334,
            "value": 0.6299212598425197
          },
          {
            "number": 71,
            "ticks": 15302,
            "time": 140.64323233333334,
            "value": 0.6062992125984252
          },
          {
            "number": 71,
            "ticks": 15309,
            "time": 140.7075705,
            "value": 0.5984251968503937
          },
          {
            "number": 71,
            "ticks": 15315,
            "time": 140.7627175,
            "value": 0.5826771653543307
          },
          {
            "number": 71,
            "ticks": 15322,
            "time": 140.8270556666667,
            "value": 0.5669291338582677
          },
          {
            "number": 71,
            "ticks": 15328,
            "time": 140.8822026666667,
            "value": 0.5511811023622047
          },
          {
            "number": 71,
            "ticks": 15335,
            "time": 140.94654083333336,
            "value": 0.5354330708661418
          },
          {
            "number": 71,
            "ticks": 15341,
            "time": 141.00168783333334,
            "value": 0.5196850393700787
          },
          {
            "number": 71,
            "ticks": 15348,
            "time": 141.066026,
            "value": 0.5118110236220472
          },
          {
            "number": 71,
            "ticks": 15354,
            "time": 141.121173,
            "value": 0.49606299212598426
          },
          {
            "number": 71,
            "ticks": 15360,
            "time": 141.17632,
            "value": 0.49606299212598426
          },
          {
            "number": 71,
            "ticks": 15366,
            "time": 141.231467,
            "value": 0.5118110236220472
          },
          {
            "number": 71,
            "ticks": 15372,
            "time": 141.28661400000001,
            "value": 0.5196850393700787
          },
          {
            "number": 71,
            "ticks": 15379,
            "time": 141.3509521666667,
            "value": 0.5354330708661418
          },
          {
            "number": 71,
            "ticks": 15385,
            "time": 141.40609916666668,
            "value": 0.5511811023622047
          },
          {
            "number": 71,
            "ticks": 15392,
            "time": 141.47043733333334,
            "value": 0.5669291338582677
          },
          {
            "number": 71,
            "ticks": 15398,
            "time": 141.52558433333334,
            "value": 0.5826771653543307
          },
          {
            "number": 71,
            "ticks": 15405,
            "time": 141.5899225,
            "value": 0.5984251968503937
          },
          {
            "number": 71,
            "ticks": 15411,
            "time": 141.6450695,
            "value": 0.6062992125984252
          },
          {
            "number": 71,
            "ticks": 15418,
            "time": 141.7094076666667,
            "value": 0.6299212598425197
          },
          {
            "number": 71,
            "ticks": 15424,
            "time": 141.7645546666667,
            "value": 0.6377952755905512
          },
          {
            "number": 71,
            "ticks": 15431,
            "time": 141.82889283333336,
            "value": 0.6535433070866141
          },
          {
            "number": 71,
            "ticks": 15437,
            "time": 141.88403983333333,
            "value": 0.6692913385826772
          },
          {
            "number": 71,
            "ticks": 15444,
            "time": 141.948378,
            "value": 0.6850393700787402
          },
          {
            "number": 71,
            "ticks": 15450,
            "time": 142.003525,
            "value": 0.7007874015748031
          },
          {
            "number": 71,
            "ticks": 15456,
            "time": 142.058672,
            "value": 0.7165354330708661
          },
          {
            "number": 71,
            "ticks": 15463,
            "time": 142.1230101666667,
            "value": 0.7244094488188977
          },
          {
            "number": 71,
            "ticks": 15469,
            "time": 142.1781571666667,
            "value": 0.7480314960629921
          },
          {
            "number": 71,
            "ticks": 15476,
            "time": 142.24249533333335,
            "value": 0.7559055118110236
          },
          {
            "number": 71,
            "ticks": 15482,
            "time": 142.29764233333336,
            "value": 0.7716535433070866
          },
          {
            "number": 71,
            "ticks": 15489,
            "time": 142.36198050000002,
            "value": 0.7874015748031497
          },
          {
            "number": 71,
            "ticks": 15495,
            "time": 142.4171275,
            "value": 0.8031496062992126
          },
          {
            "number": 71,
            "ticks": 15502,
            "time": 142.48146566666668,
            "value": 0.8188976377952756
          },
          {
            "number": 71,
            "ticks": 15508,
            "time": 142.53661266666668,
            "value": 0.8346456692913385
          },
          {
            "number": 71,
            "ticks": 15515,
            "time": 142.60095083333334,
            "value": 0.84251968503937
          },
          {
            "number": 71,
            "ticks": 15521,
            "time": 142.65609783333335,
            "value": 0.8661417322834646
          },
          {
            "number": 71,
            "ticks": 15528,
            "time": 142.720436,
            "value": 0.8661417322834646
          },
          {
            "number": 71,
            "ticks": 15535,
            "time": 142.7847741666667,
            "value": 0.84251968503937
          },
          {
            "number": 71,
            "ticks": 15541,
            "time": 142.8399211666667,
            "value": 0.8346456692913385
          },
          {
            "number": 71,
            "ticks": 15548,
            "time": 142.90425933333336,
            "value": 0.8188976377952756
          },
          {
            "number": 71,
            "ticks": 15554,
            "time": 142.95940633333333,
            "value": 0.8031496062992126
          },
          {
            "number": 71,
            "ticks": 15561,
            "time": 143.0237445,
            "value": 0.7874015748031497
          },
          {
            "number": 71,
            "ticks": 15567,
            "time": 143.0788915,
            "value": 0.7716535433070866
          },
          {
            "number": 71,
            "ticks": 15574,
            "time": 143.14322966666668,
            "value": 0.7559055118110236
          },
          {
            "number": 71,
            "ticks": 15580,
            "time": 143.1983766666667,
            "value": 0.7480314960629921
          },
          {
            "number": 71,
            "ticks": 15587,
            "time": 143.26271483333335,
            "value": 0.7244094488188977
          },
          {
            "number": 71,
            "ticks": 15593,
            "time": 143.31786183333335,
            "value": 0.7165354330708661
          },
          {
            "number": 71,
            "ticks": 15600,
            "time": 143.3822,
            "value": 0.7007874015748031
          },
          {
            "number": 71,
            "ticks": 15606,
            "time": 143.43734700000002,
            "value": 0.6850393700787402
          },
          {
            "number": 71,
            "ticks": 15612,
            "time": 143.492494,
            "value": 0.6692913385826772
          },
          {
            "number": 71,
            "ticks": 15619,
            "time": 143.55683216666668,
            "value": 0.6535433070866141
          },
          {
            "number": 71,
            "ticks": 15625,
            "time": 143.61197916666669,
            "value": 0.6377952755905512
          },
          {
            "number": 71,
            "ticks": 15632,
            "time": 143.67631733333334,
            "value": 0.6299212598425197
          },
          {
            "number": 71,
            "ticks": 15638,
            "time": 143.73146433333335,
            "value": 0.6062992125984252
          },
          {
            "number": 71,
            "ticks": 15645,
            "time": 143.7958025,
            "value": 0.5984251968503937
          },
          {
            "number": 71,
            "ticks": 15651,
            "time": 143.8509495,
            "value": 0.5826771653543307
          },
          {
            "number": 71,
            "ticks": 15658,
            "time": 143.9152876666667,
            "value": 0.5669291338582677
          },
          {
            "number": 71,
            "ticks": 15664,
            "time": 143.97043466666668,
            "value": 0.5511811023622047
          },
          {
            "number": 71,
            "ticks": 15671,
            "time": 144.03477283333334,
            "value": 0.5354330708661418
          },
          {
            "number": 71,
            "ticks": 15677,
            "time": 144.08991983333334,
            "value": 0.5196850393700787
          },
          {
            "number": 71,
            "ticks": 15684,
            "time": 144.154258,
            "value": 0.5118110236220472
          },
          {
            "number": 71,
            "ticks": 15690,
            "time": 144.209405,
            "value": 0.49606299212598426
          },
          {
            "number": 71,
            "ticks": 15696,
            "time": 144.264552,
            "value": 0.49606299212598426
          },
          {
            "number": 71,
            "ticks": 15702,
            "time": 144.319699,
            "value": 0.5118110236220472
          },
          {
            "number": 71,
            "ticks": 15708,
            "time": 144.374846,
            "value": 0.5196850393700787
          },
          {
            "number": 71,
            "ticks": 15715,
            "time": 144.43918416666668,
            "value": 0.5354330708661418
          },
          {
            "number": 71,
            "ticks": 15721,
            "time": 144.49433116666668,
            "value": 0.5511811023622047
          },
          {
            "number": 71,
            "ticks": 15728,
            "time": 144.55866933333334,
            "value": 0.5669291338582677
          },
          {
            "number": 71,
            "ticks": 15734,
            "time": 144.61381633333335,
            "value": 0.5826771653543307
          },
          {
            "number": 71,
            "ticks": 15741,
            "time": 144.6781545,
            "value": 0.5984251968503937
          },
          {
            "number": 71,
            "ticks": 15747,
            "time": 144.7333015,
            "value": 0.6062992125984252
          },
          {
            "number": 71,
            "ticks": 15754,
            "time": 144.7976396666667,
            "value": 0.6299212598425197
          },
          {
            "number": 71,
            "ticks": 15760,
            "time": 144.85278666666667,
            "value": 0.6377952755905512
          },
          {
            "number": 71,
            "ticks": 15767,
            "time": 144.91712483333333,
            "value": 0.6535433070866141
          },
          {
            "number": 71,
            "ticks": 15773,
            "time": 144.97227183333334,
            "value": 0.6692913385826772
          },
          {
            "number": 71,
            "ticks": 15780,
            "time": 145.03661,
            "value": 0.6850393700787402
          },
          {
            "number": 71,
            "ticks": 15786,
            "time": 145.091757,
            "value": 0.7007874015748031
          },
          {
            "number": 71,
            "ticks": 15792,
            "time": 145.146904,
            "value": 0.7165354330708661
          },
          {
            "number": 71,
            "ticks": 15799,
            "time": 145.2112421666667,
            "value": 0.7244094488188977
          },
          {
            "number": 71,
            "ticks": 15805,
            "time": 145.2663891666667,
            "value": 0.7480314960629921
          },
          {
            "number": 71,
            "ticks": 15812,
            "time": 145.33072733333336,
            "value": 0.7559055118110236
          },
          {
            "number": 71,
            "ticks": 15818,
            "time": 145.38587433333333,
            "value": 0.7716535433070866
          },
          {
            "number": 71,
            "ticks": 15825,
            "time": 145.4502125,
            "value": 0.7874015748031497
          },
          {
            "number": 71,
            "ticks": 15831,
            "time": 145.5053595,
            "value": 0.8031496062992126
          },
          {
            "number": 71,
            "ticks": 15838,
            "time": 145.56969766666668,
            "value": 0.8188976377952756
          },
          {
            "number": 71,
            "ticks": 15844,
            "time": 145.6248446666667,
            "value": 0.8346456692913385
          },
          {
            "number": 71,
            "ticks": 15851,
            "time": 145.68918283333335,
            "value": 0.84251968503937
          },
          {
            "number": 71,
            "ticks": 15857,
            "time": 145.74432983333335,
            "value": 0.8661417322834646
          },
          {
            "number": 71,
            "ticks": 15864,
            "time": 145.808668,
            "value": 0.8661417322834646
          },
          {
            "number": 71,
            "ticks": 15871,
            "time": 145.8730061666667,
            "value": 0.84251968503937
          },
          {
            "number": 71,
            "ticks": 15877,
            "time": 145.92815316666668,
            "value": 0.8346456692913385
          },
          {
            "number": 71,
            "ticks": 15884,
            "time": 145.99249133333333,
            "value": 0.8188976377952756
          },
          {
            "number": 71,
            "ticks": 15890,
            "time": 146.04763833333334,
            "value": 0.8031496062992126
          },
          {
            "number": 71,
            "ticks": 15897,
            "time": 146.1119765,
            "value": 0.7874015748031497
          },
          {
            "number": 71,
            "ticks": 15903,
            "time": 146.1671235,
            "value": 0.7716535433070866
          },
          {
            "number": 71,
            "ticks": 15910,
            "time": 146.2314616666667,
            "value": 0.7559055118110236
          },
          {
            "number": 71,
            "ticks": 15916,
            "time": 146.2866086666667,
            "value": 0.7480314960629921
          },
          {
            "number": 71,
            "ticks": 15923,
            "time": 146.35094683333335,
            "value": 0.7244094488188977
          },
          {
            "number": 71,
            "ticks": 15929,
            "time": 146.40609383333336,
            "value": 0.7165354330708661
          },
          {
            "number": 71,
            "ticks": 15936,
            "time": 146.47043200000002,
            "value": 0.7007874015748031
          },
          {
            "number": 71,
            "ticks": 15942,
            "time": 146.525579,
            "value": 0.6850393700787402
          },
          {
            "number": 71,
            "ticks": 15948,
            "time": 146.580726,
            "value": 0.6692913385826772
          },
          {
            "number": 71,
            "ticks": 15955,
            "time": 146.64506416666669,
            "value": 0.6535433070866141
          },
          {
            "number": 71,
            "ticks": 15961,
            "time": 146.7002111666667,
            "value": 0.6377952755905512
          },
          {
            "number": 71,
            "ticks": 15968,
            "time": 146.76454933333335,
            "value": 0.6299212598425197
          },
          {
            "number": 71,
            "ticks": 15974,
            "time": 146.81969633333335,
            "value": 0.6062992125984252
          },
          {
            "number": 71,
            "ticks": 15981,
            "time": 146.8840345,
            "value": 0.5984251968503937
          },
          {
            "number": 71,
            "ticks": 15987,
            "time": 146.93918150000002,
            "value": 0.5826771653543307
          },
          {
            "number": 71,
            "ticks": 15994,
            "time": 147.00351966666668,
            "value": 0.5669291338582677
          },
          {
            "number": 71,
            "ticks": 16000,
            "time": 147.05866666666668,
            "value": 0.5511811023622047
          },
          {
            "number": 71,
            "ticks": 16007,
            "time": 147.12300483333334,
            "value": 0.5354330708661418
          },
          {
            "number": 71,
            "ticks": 16013,
            "time": 147.17815183333335,
            "value": 0.5196850393700787
          },
          {
            "number": 71,
            "ticks": 16020,
            "time": 147.24249,
            "value": 0.5118110236220472
          },
          {
            "number": 71,
            "ticks": 16026,
            "time": 147.297637,
            "value": 0.49606299212598426
          },
          {
            "number": 71,
            "ticks": 16032,
            "time": 147.352784,
            "value": 0.49606299212598426
          },
          {
            "number": 71,
            "ticks": 16038,
            "time": 147.407931,
            "value": 0.5118110236220472
          },
          {
            "number": 71,
            "ticks": 16044,
            "time": 147.463078,
            "value": 0.5196850393700787
          },
          {
            "number": 71,
            "ticks": 16051,
            "time": 147.52741616666668,
            "value": 0.5354330708661418
          },
          {
            "number": 71,
            "ticks": 16057,
            "time": 147.5825631666667,
            "value": 0.5511811023622047
          },
          {
            "number": 71,
            "ticks": 16064,
            "time": 147.64690133333335,
            "value": 0.5669291338582677
          },
          {
            "number": 71,
            "ticks": 16070,
            "time": 147.70204833333335,
            "value": 0.5826771653543307
          },
          {
            "number": 71,
            "ticks": 16077,
            "time": 147.7663865,
            "value": 0.5984251968503937
          },
          {
            "number": 71,
            "ticks": 16083,
            "time": 147.82153350000002,
            "value": 0.6062992125984252
          },
          {
            "number": 71,
            "ticks": 16090,
            "time": 147.88587166666667,
            "value": 0.6299212598425197
          },
          {
            "number": 71,
            "ticks": 16096,
            "time": 147.94101866666668,
            "value": 0.6377952755905512
          },
          {
            "number": 71,
            "ticks": 16103,
            "time": 148.00535683333334,
            "value": 0.6535433070866141
          },
          {
            "number": 71,
            "ticks": 16109,
            "time": 148.06050383333334,
            "value": 0.6692913385826772
          },
          {
            "number": 71,
            "ticks": 16116,
            "time": 148.124842,
            "value": 0.6850393700787402
          },
          {
            "number": 71,
            "ticks": 16122,
            "time": 148.179989,
            "value": 0.7007874015748031
          },
          {
            "number": 71,
            "ticks": 16128,
            "time": 148.235136,
            "value": 0.7165354330708661
          },
          {
            "number": 71,
            "ticks": 16135,
            "time": 148.2994741666667,
            "value": 0.7244094488188977
          },
          {
            "number": 71,
            "ticks": 16141,
            "time": 148.35462116666667,
            "value": 0.7480314960629921
          },
          {
            "number": 71,
            "ticks": 16148,
            "time": 148.41895933333333,
            "value": 0.7559055118110236
          },
          {
            "number": 71,
            "ticks": 16154,
            "time": 148.47410633333334,
            "value": 0.7716535433070866
          },
          {
            "number": 71,
            "ticks": 16161,
            "time": 148.5384445,
            "value": 0.7874015748031497
          },
          {
            "number": 71,
            "ticks": 16167,
            "time": 148.5935915,
            "value": 0.8031496062992126
          },
          {
            "number": 71,
            "ticks": 16174,
            "time": 148.6579296666667,
            "value": 0.8188976377952756
          },
          {
            "number": 71,
            "ticks": 16180,
            "time": 148.7130766666667,
            "value": 0.8346456692913385
          },
          {
            "number": 71,
            "ticks": 16187,
            "time": 148.77741483333335,
            "value": 0.84251968503937
          },
          {
            "number": 71,
            "ticks": 16193,
            "time": 148.83256183333336,
            "value": 0.8661417322834646
          },
          {
            "number": 71,
            "ticks": 16200,
            "time": 148.89690000000002,
            "value": 0.8661417322834646
          },
          {
            "number": 71,
            "ticks": 16207,
            "time": 148.96123816666667,
            "value": 0.84251968503937
          },
          {
            "number": 71,
            "ticks": 16213,
            "time": 149.01638516666668,
            "value": 0.8346456692913385
          },
          {
            "number": 71,
            "ticks": 16220,
            "time": 149.08072333333334,
            "value": 0.8188976377952756
          },
          {
            "number": 71,
            "ticks": 16226,
            "time": 149.13587033333334,
            "value": 0.8031496062992126
          },
          {
            "number": 71,
            "ticks": 16233,
            "time": 149.2002085,
            "value": 0.7874015748031497
          },
          {
            "number": 71,
            "ticks": 16239,
            "time": 149.2553555,
            "value": 0.7716535433070866
          },
          {
            "number": 71,
            "ticks": 16246,
            "time": 149.3196936666667,
            "value": 0.7559055118110236
          },
          {
            "number": 71,
            "ticks": 16252,
            "time": 149.3748406666667,
            "value": 0.7480314960629921
          },
          {
            "number": 71,
            "ticks": 16259,
            "time": 149.43917883333336,
            "value": 0.7244094488188977
          },
          {
            "number": 71,
            "ticks": 16265,
            "time": 149.49432583333333,
            "value": 0.7165354330708661
          },
          {
            "number": 71,
            "ticks": 16272,
            "time": 149.558664,
            "value": 0.7007874015748031
          },
          {
            "number": 71,
            "ticks": 16278,
            "time": 149.613811,
            "value": 0.6850393700787402
          },
          {
            "number": 71,
            "ticks": 16284,
            "time": 149.668958,
            "value": 0.6692913385826772
          },
          {
            "number": 71,
            "ticks": 16291,
            "time": 149.7332961666667,
            "value": 0.6535433070866141
          },
          {
            "number": 71,
            "ticks": 16297,
            "time": 149.7884431666667,
            "value": 0.6377952755905512
          },
          {
            "number": 71,
            "ticks": 16304,
            "time": 149.85278133333335,
            "value": 0.6299212598425197
          },
          {
            "number": 71,
            "ticks": 16310,
            "time": 149.90792833333336,
            "value": 0.6062992125984252
          },
          {
            "number": 71,
            "ticks": 16317,
            "time": 149.97226650000002,
            "value": 0.5984251968503937
          },
          {
            "number": 71,
            "ticks": 16323,
            "time": 150.0274135,
            "value": 0.5826771653543307
          },
          {
            "number": 71,
            "ticks": 16330,
            "time": 150.09175166666668,
            "value": 0.5669291338582677
          },
          {
            "number": 71,
            "ticks": 16336,
            "time": 150.1468986666667,
            "value": 0.5511811023622047
          },
          {
            "number": 71,
            "ticks": 16343,
            "time": 150.21123683333334,
            "value": 0.5354330708661418
          },
          {
            "number": 71,
            "ticks": 16349,
            "time": 150.26638383333335,
            "value": 0.5196850393700787
          },
          {
            "number": 71,
            "ticks": 16356,
            "time": 150.330722,
            "value": 0.5118110236220472
          },
          {
            "number": 71,
            "ticks": 16362,
            "time": 150.385869,
            "value": 0.49606299212598426
          },
          {
            "number": 71,
            "ticks": 16368,
            "time": 150.441016,
            "value": 0.49606299212598426
          },
          {
            "number": 71,
            "ticks": 16374,
            "time": 150.496163,
            "value": 0.5118110236220472
          },
          {
            "number": 71,
            "ticks": 16380,
            "time": 150.55131,
            "value": 0.5196850393700787
          },
          {
            "number": 71,
            "ticks": 16387,
            "time": 150.6156481666667,
            "value": 0.5354330708661418
          },
          {
            "number": 71,
            "ticks": 16393,
            "time": 150.6707951666667,
            "value": 0.5511811023622047
          },
          {
            "number": 71,
            "ticks": 16400,
            "time": 150.73513333333335,
            "value": 0.5669291338582677
          },
          {
            "number": 71,
            "ticks": 16406,
            "time": 150.79028033333336,
            "value": 0.5826771653543307
          },
          {
            "number": 71,
            "ticks": 16413,
            "time": 150.85461850000002,
            "value": 0.5984251968503937
          },
          {
            "number": 71,
            "ticks": 16419,
            "time": 150.9097655,
            "value": 0.6062992125984252
          },
          {
            "number": 71,
            "ticks": 16426,
            "time": 150.97410366666668,
            "value": 0.6299212598425197
          },
          {
            "number": 71,
            "ticks": 16432,
            "time": 151.02925066666668,
            "value": 0.6377952755905512
          },
          {
            "number": 71,
            "ticks": 16439,
            "time": 151.09358883333334,
            "value": 0.6535433070866141
          },
          {
            "number": 71,
            "ticks": 16445,
            "time": 151.14873583333335,
            "value": 0.6692913385826772
          },
          {
            "number": 71,
            "ticks": 16452,
            "time": 151.213074,
            "value": 0.6850393700787402
          },
          {
            "number": 71,
            "ticks": 16458,
            "time": 151.268221,
            "value": 0.7007874015748031
          },
          {
            "number": 71,
            "ticks": 16464,
            "time": 151.32336800000002,
            "value": 0.7165354330708661
          },
          {
            "number": 71,
            "ticks": 16471,
            "time": 151.38770616666667,
            "value": 0.7244094488188977
          },
          {
            "number": 71,
            "ticks": 16477,
            "time": 151.44285316666668,
            "value": 0.7480314960629921
          },
          {
            "number": 71,
            "ticks": 16484,
            "time": 151.50719133333334,
            "value": 0.7559055118110236
          },
          {
            "number": 71,
            "ticks": 16490,
            "time": 151.56233833333334,
            "value": 0.7716535433070866
          },
          {
            "number": 71,
            "ticks": 16497,
            "time": 151.6266765,
            "value": 0.7874015748031497
          },
          {
            "number": 71,
            "ticks": 16503,
            "time": 151.6818235,
            "value": 0.8031496062992126
          },
          {
            "number": 71,
            "ticks": 16510,
            "time": 151.7461616666667,
            "value": 0.8188976377952756
          },
          {
            "number": 71,
            "ticks": 16516,
            "time": 151.8013086666667,
            "value": 0.8346456692913385
          },
          {
            "number": 71,
            "ticks": 16523,
            "time": 151.86564683333336,
            "value": 0.84251968503937
          },
          {
            "number": 71,
            "ticks": 16529,
            "time": 151.92079383333333,
            "value": 0.8661417322834646
          },
          {
            "number": 71,
            "ticks": 16536,
            "time": 151.985132,
            "value": 0.8661417322834646
          },
          {
            "number": 71,
            "ticks": 16543,
            "time": 152.04947016666668,
            "value": 0.84251968503937
          },
          {
            "number": 71,
            "ticks": 16549,
            "time": 152.10461716666669,
            "value": 0.8346456692913385
          },
          {
            "number": 71,
            "ticks": 16556,
            "time": 152.16895533333334,
            "value": 0.8188976377952756
          }
        ]
      },
      "pitchBends": [],
      "instrument": {
        "family": "piano",
        "number": 0,
        "name": "acoustic grand piano"
      },
      "name": "SEQ Filter",
      "notes": [],
      "endOfTrackTicks": 16560
    },
    {
      "channel": 0,
      "controlChanges": {
        "0": [
          {
            "number": 0,
            "ticks": 137,
            "time": 1.2591898333333333,
            "value": 0
          }
        ],
        "32": [
          {
            "number": 32,
            "ticks": 141,
            "time": 1.2959545000000001,
            "value": 0.015748031496062992
          }
        ],
        "121": [
          {
            "number": 121,
            "ticks": 133,
            "time": 1.2224251666666668,
            "value": 0
          }
        ]
      },
      "pitchBends": [],
      "instrument": {
        "family": "piano",
        "number": 0,
        "name": "acoustic grand piano"
      },
      "name": "Timpani",
      "notes": [],
      "endOfTrackTicks": 22128
    },
    {
      "channel": 14,
      "controlChanges": {
        "6": [
          {
            "number": 6,
            "ticks": 176,
            "time": 1.6176453333333334,
            "value": 0.09448818897637795
          }
        ],
        "7": [
          {
            "number": 7,
            "ticks": 149,
            "time": 1.3694838333333332,
            "value": 0.84251968503937
          }
        ],
        "10": [
          {
            "number": 10,
            "ticks": 153,
            "time": 1.4062485,
            "value": 0.7874015748031497
          }
        ],
        "11": [
          {
            "number": 11,
            "ticks": 157,
            "time": 1.4430131666666668,
            "value": 0.7795275590551181
          }
        ],
        "71": [
          {
            "number": 71,
            "ticks": 168,
            "time": 1.544116,
            "value": 0.5039370078740157
          }
        ],
        "74": [
          {
            "number": 74,
            "ticks": 166,
            "time": 1.5257336666666668,
            "value": 0.5039370078740157
          }
        ],
        "91": [
          {
            "number": 91,
            "ticks": 161,
            "time": 1.4797778333333333,
            "value": 0.6692913385826772
          }
        ],
        "93": [
          {
            "number": 93,
            "ticks": 162,
            "time": 1.488969,
            "value": 0.13385826771653545
          }
        ],
        "94": [
          {
            "number": 94,
            "ticks": 164,
            "time": 1.5073513333333333,
            "value": 0
          }
        ],
        "100": [
          {
            "number": 100,
            "ticks": 174,
            "time": 1.599263,
            "value": 0
          }
        ],
        "101": [
          {
            "number": 101,
            "ticks": 170,
            "time": 1.5624983333333333,
            "value": 0
          }
        ]
      },
      "pitchBends": [],
      "instrument": {
        "family": "strings",
        "number": 47,
        "name": "timpani"
      },
      "name": "",
      "notes": [
        {
          "duration": 0.05514700000000006,
          "durationTicks": 6,
          "midi": 40,
          "name": "E2",
          "ticks": 192,
          "time": 1.764704,
          "velocity": 0.047244094488188976
        },
        {
          "duration": 0.05514700000000006,
          "durationTicks": 6,
          "midi": 40,
          "name": "E2",
          "ticks": 199,
          "time": 1.8290421666666667,
          "velocity": 0.07086614173228346
        },
        {
          "duration": 0.05514700000000006,
          "durationTicks": 6,
          "midi": 40,
          "name": "E2",
          "ticks": 206,
          "time": 1.8933803333333334,
          "velocity": 0.09448818897637795
        },
        {
          "duration": 0.05514700000000006,
          "durationTicks": 6,
          "midi": 40,
          "name": "E2",
          "ticks": 212,
          "time": 1.9485273333333335,
          "velocity": 0.12598425196850394
        },
        {
          "duration": 0.055146999999999835,
          "durationTicks": 6,
          "midi": 40,
          "name": "E2",
          "ticks": 219,
          "time": 2.0128655,
          "velocity": 0.14173228346456693
        },
        {
          "duration": 0.055146999999999835,
          "durationTicks": 6,
          "midi": 40,
          "name": "E2",
          "ticks": 226,
          "time": 2.0772036666666667,
          "velocity": 0.1732283464566929
        },
        {
          "duration": 0.05514700000000028,
          "durationTicks": 6,
          "midi": 40,
          "name": "E2",
          "ticks": 232,
          "time": 2.1323506666666665,
          "velocity": 0.2047244094488189
        },
        {
          "duration": 0.055146999999999835,
          "durationTicks": 6,
          "midi": 40,
          "name": "E2",
          "ticks": 239,
          "time": 2.1966888333333334,
          "velocity": 0.2204724409448819
        },
        {
          "duration": 0.05514700000000028,
          "durationTicks": 6,
          "midi": 40,
          "name": "E2",
          "ticks": 245,
          "time": 2.2518358333333333,
          "velocity": 0.25196850393700787
        },
        {
          "duration": 0.055146999999999835,
          "durationTicks": 6,
          "midi": 40,
          "name": "E2",
          "ticks": 252,
          "time": 2.316174,
          "velocity": 0.25984251968503935
        },
        {
          "duration": 0.055146999999999835,
          "durationTicks": 6,
          "midi": 40,
          "name": "E2",
          "ticks": 258,
          "time": 2.371321,
          "velocity": 0.30708661417322836
        },
        {
          "duration": 0.055146999999999835,
          "durationTicks": 6,
          "midi": 40,
          "name": "E2",
          "ticks": 265,
          "time": 2.435659166666667,
          "velocity": 0.3228346456692913
        },
        {
          "duration": 0.05514700000000028,
          "durationTicks": 6,
          "midi": 40,
          "name": "E2",
          "ticks": 271,
          "time": 2.4908061666666668,
          "velocity": 0.3543307086614173
        },
        {
          "duration": 0.055146999999999835,
          "durationTicks": 6,
          "midi": 40,
          "name": "E2",
          "ticks": 278,
          "time": 2.5551443333333337,
          "velocity": 0.3779527559055118
        },
        {
          "duration": 0.055146999999999835,
          "durationTicks": 6,
          "midi": 40,
          "name": "E2",
          "ticks": 285,
          "time": 2.6194825,
          "velocity": 0.4330708661417323
        },
        {
          "duration": 0.05514700000000028,
          "durationTicks": 6,
          "midi": 40,
          "name": "E2",
          "ticks": 291,
          "time": 2.6746295,
          "velocity": 0.4645669291338583
        },
        {
          "duration": 0.05514700000000028,
          "durationTicks": 6,
          "midi": 40,
          "name": "E2",
          "ticks": 298,
          "time": 2.7389676666666665,
          "velocity": 0.5039370078740157
        },
        {
          "duration": 0.05514700000000028,
          "durationTicks": 6,
          "midi": 40,
          "name": "E2",
          "ticks": 305,
          "time": 2.8033058333333334,
          "velocity": 0.5275590551181102
        },
        {
          "duration": 0.055146999999999835,
          "durationTicks": 6,
          "midi": 40,
          "name": "E2",
          "ticks": 311,
          "time": 2.8584528333333337,
          "velocity": 0.5590551181102362
        },
        {
          "duration": 0.055146999999999835,
          "durationTicks": 6,
          "midi": 40,
          "name": "E2",
          "ticks": 318,
          "time": 2.922791,
          "velocity": 0.5905511811023622
        },
        {
          "duration": 0.055146999999999835,
          "durationTicks": 6,
          "midi": 40,
          "name": "E2",
          "ticks": 325,
          "time": 2.9871291666666666,
          "velocity": 0.6141732283464567
        },
        {
          "duration": 0.055146999999999835,
          "durationTicks": 6,
          "midi": 40,
          "name": "E2",
          "ticks": 332,
          "time": 3.0514673333333335,
          "velocity": 0.6220472440944882
        },
        {
          "duration": 0.055146999999999835,
          "durationTicks": 6,
          "midi": 40,
          "name": "E2",
          "ticks": 339,
          "time": 3.1158055000000004,
          "velocity": 0.6456692913385826
        },
        {
          "duration": 0.055146999999999835,
          "durationTicks": 6,
          "midi": 40,
          "name": "E2",
          "ticks": 346,
          "time": 3.180143666666667,
          "velocity": 0.6535433070866141
        },
        {
          "duration": 0.055146999999999835,
          "durationTicks": 6,
          "midi": 40,
          "name": "E2",
          "ticks": 352,
          "time": 3.2352906666666668,
          "velocity": 0.6771653543307087
        },
        {
          "duration": 0.05514700000000028,
          "durationTicks": 6,
          "midi": 40,
          "name": "E2",
          "ticks": 359,
          "time": 3.2996288333333332,
          "velocity": 0.6929133858267716
        },
        {
          "duration": 0.05514700000000028,
          "durationTicks": 6,
          "midi": 40,
          "name": "E2",
          "ticks": 366,
          "time": 3.363967,
          "velocity": 0.7086614173228346
        },
        {
          "duration": 0.055146999999999835,
          "durationTicks": 6,
          "midi": 40,
          "name": "E2",
          "ticks": 372,
          "time": 3.4191140000000004,
          "velocity": 0.7086614173228346
        },
        {
          "duration": 0.055146999999999835,
          "durationTicks": 6,
          "midi": 40,
          "name": "E2",
          "ticks": 379,
          "time": 3.483452166666667,
          "velocity": 0.7244094488188977
        },
        {
          "duration": 0.05514700000000028,
          "durationTicks": 6,
          "midi": 40,
          "name": "E2",
          "ticks": 385,
          "time": 3.5385991666666667,
          "velocity": 0.7401574803149606
        },
        {
          "duration": 0.055146999999999835,
          "durationTicks": 6,
          "midi": 40,
          "name": "E2",
          "ticks": 391,
          "time": 3.593746166666667,
          "velocity": 0.7559055118110236
        },
        {
          "duration": 0.05514700000000028,
          "durationTicks": 6,
          "midi": 40,
          "name": "E2",
          "ticks": 398,
          "time": 3.6580843333333335,
          "velocity": 0.7716535433070866
        },
        {
          "duration": 0.055146999999999835,
          "durationTicks": 6,
          "midi": 40,
          "name": "E2",
          "ticks": 405,
          "time": 3.7224225,
          "velocity": 0.7952755905511811
        },
        {
          "duration": 0.055146999999999835,
          "durationTicks": 6,
          "midi": 40,
          "name": "E2",
          "ticks": 412,
          "time": 3.786760666666667,
          "velocity": 0.8188976377952756
        },
        {
          "duration": 0.05514700000000028,
          "durationTicks": 6,
          "midi": 40,
          "name": "E2",
          "ticks": 419,
          "time": 3.8510988333333334,
          "velocity": 0.8503937007874016
        },
        {
          "duration": 0.055146999999999835,
          "durationTicks": 6,
          "midi": 40,
          "name": "E2",
          "ticks": 425,
          "time": 3.9062458333333336,
          "velocity": 0.8661417322834646
        },
        {
          "duration": 1.7647040000000005,
          "durationTicks": 192,
          "midi": 42,
          "name": "F#2",
          "ticks": 432,
          "time": 3.970584,
          "velocity": 1
        },
        {
          "duration": 1.7647040000000018,
          "durationTicks": 192,
          "midi": 42,
          "name": "F#2",
          "ticks": 1200,
          "time": 11.029399999999999,
          "velocity": 1
        },
        {
          "duration": 0.05514699999999806,
          "durationTicks": 6,
          "midi": 44,
          "name": "G#2",
          "ticks": 2205,
          "time": 20.266522500000004,
          "velocity": 0.05511811023622047
        },
        {
          "duration": 0.05514700000000161,
          "durationTicks": 6,
          "midi": 44,
          "name": "G#2",
          "ticks": 2212,
          "time": 20.330860666666666,
          "velocity": 0.14960629921259844
        },
        {
          "duration": 0.05514699999999806,
          "durationTicks": 6,
          "midi": 44,
          "name": "G#2",
          "ticks": 2218,
          "time": 20.386007666666668,
          "velocity": 0.2047244094488189
        },
        {
          "duration": 0.05514700000000161,
          "durationTicks": 6,
          "midi": 44,
          "name": "G#2",
          "ticks": 2225,
          "time": 20.450345833333333,
          "velocity": 0.2755905511811024
        },
        {
          "duration": 0.05514700000000161,
          "durationTicks": 6,
          "midi": 44,
          "name": "G#2",
          "ticks": 2232,
          "time": 20.514684000000003,
          "velocity": 0.3228346456692913
        },
        {
          "duration": 0.05514699999999806,
          "durationTicks": 6,
          "midi": 44,
          "name": "G#2",
          "ticks": 2238,
          "time": 20.569831000000004,
          "velocity": 0.3779527559055118
        },
        {
          "duration": 0.05514700000000161,
          "durationTicks": 6,
          "midi": 44,
          "name": "G#2",
          "ticks": 2245,
          "time": 20.634169166666666,
          "velocity": 0.4330708661417323
        },
        {
          "duration": 0.05514699999999806,
          "durationTicks": 6,
          "midi": 44,
          "name": "G#2",
          "ticks": 2252,
          "time": 20.698507333333335,
          "velocity": 0.48031496062992124
        },
        {
          "duration": 0.05514700000000161,
          "durationTicks": 6,
          "midi": 44,
          "name": "G#2",
          "ticks": 2259,
          "time": 20.7628455,
          "velocity": 0.49606299212598426
        },
        {
          "duration": 0.05514700000000161,
          "durationTicks": 6,
          "midi": 44,
          "name": "G#2",
          "ticks": 2266,
          "time": 20.827183666666667,
          "velocity": 0.5354330708661418
        },
        {
          "duration": 0.05514699999999806,
          "durationTicks": 6,
          "midi": 44,
          "name": "G#2",
          "ticks": 2273,
          "time": 20.891521833333336,
          "velocity": 0.5590551181102362
        },
        {
          "duration": 0.05514700000000161,
          "durationTicks": 6,
          "midi": 44,
          "name": "G#2",
          "ticks": 2279,
          "time": 20.946668833333334,
          "velocity": 0.5984251968503937
        },
        {
          "duration": 0.05514699999999806,
          "durationTicks": 6,
          "midi": 44,
          "name": "G#2",
          "ticks": 2286,
          "time": 21.011007000000003,
          "velocity": 0.6299212598425197
        },
        {
          "duration": 0.05514699999999806,
          "durationTicks": 6,
          "midi": 44,
          "name": "G#2",
          "ticks": 2293,
          "time": 21.07534516666667,
          "velocity": 0.6456692913385826
        },
        {
          "duration": 0.05514700000000161,
          "durationTicks": 6,
          "midi": 44,
          "name": "G#2",
          "ticks": 2299,
          "time": 21.130492166666667,
          "velocity": 0.6456692913385826
        },
        {
          "duration": 0.05514699999999806,
          "durationTicks": 6,
          "midi": 44,
          "name": "G#2",
          "ticks": 2306,
          "time": 21.194830333333336,
          "velocity": 0.6771653543307087
        },
        {
          "duration": 0.05514700000000161,
          "durationTicks": 6,
          "midi": 44,
          "name": "G#2",
          "ticks": 2312,
          "time": 21.249977333333334,
          "velocity": 0.7086614173228346
        },
        {
          "duration": 0.05514699999999806,
          "durationTicks": 6,
          "midi": 44,
          "name": "G#2",
          "ticks": 2318,
          "time": 21.305124333333335,
          "velocity": 0.7401574803149606
        },
        {
          "duration": 0.05514700000000161,
          "durationTicks": 6,
          "midi": 44,
          "name": "G#2",
          "ticks": 2325,
          "time": 21.3694625,
          "velocity": 0.7716535433070866
        },
        {
          "duration": 0.05514700000000161,
          "durationTicks": 6,
          "midi": 44,
          "name": "G#2",
          "ticks": 2332,
          "time": 21.433800666666667,
          "velocity": 0.8110236220472441
        },
        {
          "duration": 0.05514699999999806,
          "durationTicks": 6,
          "midi": 44,
          "name": "G#2",
          "ticks": 2339,
          "time": 21.498138833333336,
          "velocity": 0.8503937007874016
        },
        {
          "duration": 1.7647039999999983,
          "durationTicks": 192,
          "midi": 42,
          "name": "F#2",
          "ticks": 2352,
          "time": 21.617624000000003,
          "velocity": 1
        },
        {
          "duration": 0.05514699999999806,
          "durationTicks": 6,
          "midi": 41,
          "name": "F2",
          "ticks": 6432,
          "time": 59.11758400000001,
          "velocity": 0.05511811023622047
        },
        {
          "duration": 0.05514699999999806,
          "durationTicks": 6,
          "midi": 41,
          "name": "F2",
          "ticks": 6439,
          "time": 59.181922166666666,
          "velocity": 0.14960629921259844
        },
        {
          "duration": 0.05514699999999806,
          "durationTicks": 6,
          "midi": 41,
          "name": "F2",
          "ticks": 6445,
          "time": 59.237069166666664,
          "velocity": 0.2047244094488189
        },
        {
          "duration": 0.05514699999999806,
          "durationTicks": 6,
          "midi": 41,
          "name": "F2",
          "ticks": 6452,
          "time": 59.30140733333334,
          "velocity": 0.2755905511811024
        },
        {
          "duration": 0.05514699999999806,
          "durationTicks": 6,
          "midi": 41,
          "name": "F2",
          "ticks": 6459,
          "time": 59.36574550000001,
          "velocity": 0.3228346456692913
        },
        {
          "duration": 0.05514699999999806,
          "durationTicks": 6,
          "midi": 41,
          "name": "F2",
          "ticks": 6465,
          "time": 59.42089250000001,
          "velocity": 0.3779527559055118
        },
        {
          "duration": 0.05514699999999806,
          "durationTicks": 6,
          "midi": 41,
          "name": "F2",
          "ticks": 6472,
          "time": 59.485230666666666,
          "velocity": 0.4330708661417323
        },
        {
          "duration": 0.05514699999999806,
          "durationTicks": 6,
          "midi": 41,
          "name": "F2",
          "ticks": 6479,
          "time": 59.54956883333334,
          "velocity": 0.48031496062992124
        },
        {
          "duration": 0.055147000000005164,
          "durationTicks": 6,
          "midi": 41,
          "name": "F2",
          "ticks": 6486,
          "time": 59.613907000000005,
          "velocity": 0.49606299212598426
        },
        {
          "duration": 0.055147000000005164,
          "durationTicks": 6,
          "midi": 41,
          "name": "F2",
          "ticks": 6493,
          "time": 59.67824516666666,
          "velocity": 0.5354330708661418
        },
        {
          "duration": 0.05514699999999806,
          "durationTicks": 6,
          "midi": 41,
          "name": "F2",
          "ticks": 6500,
          "time": 59.742583333333336,
          "velocity": 0.5590551181102362
        },
        {
          "duration": 0.055147000000005164,
          "durationTicks": 6,
          "midi": 41,
          "name": "F2",
          "ticks": 6506,
          "time": 59.797730333333334,
          "velocity": 0.5984251968503937
        },
        {
          "duration": 0.05514699999999806,
          "durationTicks": 6,
          "midi": 41,
          "name": "F2",
          "ticks": 6513,
          "time": 59.86206850000001,
          "velocity": 0.6299212598425197
        },
        {
          "duration": 0.05514699999999806,
          "durationTicks": 6,
          "midi": 41,
          "name": "F2",
          "ticks": 6520,
          "time": 59.926406666666665,
          "velocity": 0.6456692913385826
        },
        {
          "duration": 0.055147000000005164,
          "durationTicks": 6,
          "midi": 41,
          "name": "F2",
          "ticks": 6526,
          "time": 59.98155366666666,
          "velocity": 0.6614173228346457
        },
        {
          "duration": 0.05514699999999806,
          "durationTicks": 6,
          "midi": 41,
          "name": "F2",
          "ticks": 6533,
          "time": 60.045891833333336,
          "velocity": 0.6850393700787402
        },
        {
          "duration": 0.055147000000005164,
          "durationTicks": 6,
          "midi": 41,
          "name": "F2",
          "ticks": 6539,
          "time": 60.101038833333334,
          "velocity": 0.7007874015748031
        },
        {
          "duration": 0.05514699999999806,
          "durationTicks": 6,
          "midi": 41,
          "name": "F2",
          "ticks": 6545,
          "time": 60.15618583333334,
          "velocity": 0.7244094488188977
        },
        {
          "duration": 0.055147000000005164,
          "durationTicks": 6,
          "midi": 41,
          "name": "F2",
          "ticks": 6552,
          "time": 60.220524000000005,
          "velocity": 0.7401574803149606
        },
        {
          "duration": 0.055147000000005164,
          "durationTicks": 6,
          "midi": 41,
          "name": "F2",
          "ticks": 6559,
          "time": 60.28486216666666,
          "velocity": 0.7637795275590551
        },
        {
          "duration": 0.05514699999999806,
          "durationTicks": 6,
          "midi": 41,
          "name": "F2",
          "ticks": 6566,
          "time": 60.349200333333336,
          "velocity": 0.7874015748031497
        },
        {
          "duration": 1.7647040000000018,
          "durationTicks": 192,
          "midi": 42,
          "name": "F#2",
          "ticks": 6576,
          "time": 60.441112000000004,
          "velocity": 1
        },
        {
          "duration": 0.22058800000000645,
          "durationTicks": 24,
          "midi": 44,
          "name": "G#2",
          "ticks": 8040,
          "time": 73.89698,
          "velocity": 0.7874015748031497
        },
        {
          "duration": 0.22058799999999223,
          "durationTicks": 24,
          "midi": 39,
          "name": "D#2",
          "ticks": 8064,
          "time": 74.117568,
          "velocity": 0.7322834645669292
        },
        {
          "duration": 0.22058800000000645,
          "durationTicks": 24,
          "midi": 44,
          "name": "G#2",
          "ticks": 8088,
          "time": 74.338156,
          "velocity": 0.7401574803149606
        },
        {
          "duration": 0.055147000000005164,
          "durationTicks": 6,
          "midi": 42,
          "name": "F#2",
          "ticks": 8136,
          "time": 74.779332,
          "velocity": 0.3700787401574803
        },
        {
          "duration": 0.055147000000005164,
          "durationTicks": 6,
          "midi": 42,
          "name": "F#2",
          "ticks": 8142,
          "time": 74.834479,
          "velocity": 0.5275590551181102
        },
        {
          "duration": 0.05514699999999095,
          "durationTicks": 6,
          "midi": 42,
          "name": "F#2",
          "ticks": 8148,
          "time": 74.889626,
          "velocity": 0.6377952755905512
        },
        {
          "duration": 0.055147000000005164,
          "durationTicks": 6,
          "midi": 42,
          "name": "F#2",
          "ticks": 8154,
          "time": 74.944773,
          "velocity": 0.7322834645669292
        },
        {
          "duration": 1.305145666666661,
          "durationTicks": 142,
          "midi": 49,
          "name": "C#3",
          "ticks": 8160,
          "time": 74.99992,
          "velocity": 1
        },
        {
          "duration": 0.05514699999999095,
          "durationTicks": 6,
          "midi": 44,
          "name": "G#2",
          "ticks": 9117,
          "time": 83.7958665,
          "velocity": 0.05511811023622047
        },
        {
          "duration": 0.05514699999999095,
          "durationTicks": 6,
          "midi": 44,
          "name": "G#2",
          "ticks": 9124,
          "time": 83.86020466666666,
          "velocity": 0.14960629921259844
        },
        {
          "duration": 0.055147000000005164,
          "durationTicks": 6,
          "midi": 44,
          "name": "G#2",
          "ticks": 9130,
          "time": 83.91535166666665,
          "velocity": 0.2047244094488189
        },
        {
          "duration": 0.055147000000005164,
          "durationTicks": 6,
          "midi": 44,
          "name": "G#2",
          "ticks": 9137,
          "time": 83.97968983333332,
          "velocity": 0.2755905511811024
        },
        {
          "duration": 0.055147000000005164,
          "durationTicks": 6,
          "midi": 44,
          "name": "G#2",
          "ticks": 9144,
          "time": 84.044028,
          "velocity": 0.3228346456692913
        },
        {
          "duration": 0.05514699999999095,
          "durationTicks": 6,
          "midi": 44,
          "name": "G#2",
          "ticks": 9150,
          "time": 84.099175,
          "velocity": 0.3779527559055118
        },
        {
          "duration": 0.05514699999999095,
          "durationTicks": 6,
          "midi": 44,
          "name": "G#2",
          "ticks": 9157,
          "time": 84.16351316666666,
          "velocity": 0.4330708661417323
        },
        {
          "duration": 0.05514699999999095,
          "durationTicks": 6,
          "midi": 44,
          "name": "G#2",
          "ticks": 9164,
          "time": 84.22785133333333,
          "velocity": 0.48031496062992124
        },
        {
          "duration": 0.05514699999999095,
          "durationTicks": 6,
          "midi": 44,
          "name": "G#2",
          "ticks": 9171,
          "time": 84.2921895,
          "velocity": 0.49606299212598426
        },
        {
          "duration": 0.05514699999999095,
          "durationTicks": 6,
          "midi": 44,
          "name": "G#2",
          "ticks": 9178,
          "time": 84.35652766666666,
          "velocity": 0.5354330708661418
        },
        {
          "duration": 0.055147000000005164,
          "durationTicks": 6,
          "midi": 44,
          "name": "G#2",
          "ticks": 9185,
          "time": 84.42086583333332,
          "velocity": 0.5590551181102362
        },
        {
          "duration": 0.055147000000005164,
          "durationTicks": 6,
          "midi": 44,
          "name": "G#2",
          "ticks": 9191,
          "time": 84.47601283333333,
          "velocity": 0.5984251968503937
        },
        {
          "duration": 0.055147000000005164,
          "durationTicks": 6,
          "midi": 44,
          "name": "G#2",
          "ticks": 9198,
          "time": 84.540351,
          "velocity": 0.6299212598425197
        },
        {
          "duration": 0.055147000000005164,
          "durationTicks": 6,
          "midi": 44,
          "name": "G#2",
          "ticks": 9205,
          "time": 84.60468916666666,
          "velocity": 0.6456692913385826
        },
        {
          "duration": 0.05514699999999095,
          "durationTicks": 6,
          "midi": 44,
          "name": "G#2",
          "ticks": 9211,
          "time": 84.65983616666666,
          "velocity": 0.6456692913385826
        },
        {
          "duration": 0.055147000000005164,
          "durationTicks": 6,
          "midi": 44,
          "name": "G#2",
          "ticks": 9218,
          "time": 84.72417433333332,
          "velocity": 0.6771653543307087
        },
        {
          "duration": 0.055147000000005164,
          "durationTicks": 6,
          "midi": 44,
          "name": "G#2",
          "ticks": 9224,
          "time": 84.77932133333333,
          "velocity": 0.7086614173228346
        },
        {
          "duration": 0.05514699999999095,
          "durationTicks": 6,
          "midi": 44,
          "name": "G#2",
          "ticks": 9230,
          "time": 84.83446833333333,
          "velocity": 0.7401574803149606
        },
        {
          "duration": 0.05514699999999095,
          "durationTicks": 6,
          "midi": 44,
          "name": "G#2",
          "ticks": 9237,
          "time": 84.8988065,
          "velocity": 0.7716535433070866
        },
        {
          "duration": 0.05514699999999095,
          "durationTicks": 6,
          "midi": 44,
          "name": "G#2",
          "ticks": 9244,
          "time": 84.96314466666666,
          "velocity": 0.8110236220472441
        },
        {
          "duration": 0.055147000000005164,
          "durationTicks": 6,
          "midi": 44,
          "name": "G#2",
          "ticks": 9251,
          "time": 85.02748283333332,
          "velocity": 0.8503937007874016
        },
        {
          "duration": 1.7647039999999947,
          "durationTicks": 192,
          "midi": 42,
          "name": "F#2",
          "ticks": 9264,
          "time": 85.146968,
          "velocity": 1
        },
        {
          "duration": 0.055147000000005164,
          "durationTicks": 6,
          "midi": 41,
          "name": "F2",
          "ticks": 11040,
          "time": 101.47048,
          "velocity": 0.03937007874015748
        },
        {
          "duration": 0.055147000000005164,
          "durationTicks": 6,
          "midi": 41,
          "name": "F2",
          "ticks": 11047,
          "time": 101.53481816666665,
          "velocity": 0.10236220472440945
        },
        {
          "duration": 0.055147000000005164,
          "durationTicks": 6,
          "midi": 41,
          "name": "F2",
          "ticks": 11053,
          "time": 101.58996516666666,
          "velocity": 0.14960629921259844
        },
        {
          "duration": 0.055147000000005164,
          "durationTicks": 6,
          "midi": 41,
          "name": "F2",
          "ticks": 11060,
          "time": 101.65430333333333,
          "velocity": 0.1889763779527559
        },
        {
          "duration": 0.05514699999999095,
          "durationTicks": 6,
          "midi": 41,
          "name": "F2",
          "ticks": 11067,
          "time": 101.7186415,
          "velocity": 0.2283464566929134
        },
        {
          "duration": 0.055147000000005164,
          "durationTicks": 6,
          "midi": 41,
          "name": "F2",
          "ticks": 11073,
          "time": 101.7737885,
          "velocity": 0.2677165354330709
        },
        {
          "duration": 0.055147000000005164,
          "durationTicks": 6,
          "midi": 41,
          "name": "F2",
          "ticks": 11080,
          "time": 101.83812666666665,
          "velocity": 0.30708661417322836
        },
        {
          "duration": 0.055147000000005164,
          "durationTicks": 6,
          "midi": 41,
          "name": "F2",
          "ticks": 11087,
          "time": 101.90246483333333,
          "velocity": 0.3464566929133858
        },
        {
          "duration": 0.055147000000005164,
          "durationTicks": 6,
          "midi": 41,
          "name": "F2",
          "ticks": 11094,
          "time": 101.966803,
          "velocity": 0.3858267716535433
        },
        {
          "duration": 0.055147000000005164,
          "durationTicks": 6,
          "midi": 41,
          "name": "F2",
          "ticks": 11101,
          "time": 102.03114116666666,
          "velocity": 0.41732283464566927
        },
        {
          "duration": 0.055147000000005164,
          "durationTicks": 6,
          "midi": 41,
          "name": "F2",
          "ticks": 11108,
          "time": 102.09547933333333,
          "velocity": 0.44881889763779526
        },
        {
          "duration": 0.05514699999999095,
          "durationTicks": 6,
          "midi": 41,
          "name": "F2",
          "ticks": 11114,
          "time": 102.15062633333334,
          "velocity": 0.47244094488188976
        },
        {
          "duration": 0.05514699999999095,
          "durationTicks": 6,
          "midi": 41,
          "name": "F2",
          "ticks": 11121,
          "time": 102.21496450000001,
          "velocity": 0.49606299212598426
        },
        {
          "duration": 0.05514699999999095,
          "durationTicks": 6,
          "midi": 41,
          "name": "F2",
          "ticks": 11128,
          "time": 102.27930266666667,
          "velocity": 0.5118110236220472
        },
        {
          "duration": 0.055147000000005164,
          "durationTicks": 6,
          "midi": 41,
          "name": "F2",
          "ticks": 11134,
          "time": 102.33444966666666,
          "velocity": 0.5433070866141733
        },
        {
          "duration": 0.055147000000005164,
          "durationTicks": 6,
          "midi": 41,
          "name": "F2",
          "ticks": 11141,
          "time": 102.39878783333333,
          "velocity": 0.5669291338582677
        },
        {
          "duration": 0.05514699999999095,
          "durationTicks": 6,
          "midi": 41,
          "name": "F2",
          "ticks": 11147,
          "time": 102.45393483333334,
          "velocity": 0.5905511811023622
        },
        {
          "duration": 0.055147000000005164,
          "durationTicks": 6,
          "midi": 41,
          "name": "F2",
          "ticks": 11153,
          "time": 102.50908183333333,
          "velocity": 0.6141732283464567
        },
        {
          "duration": 0.055147000000005164,
          "durationTicks": 6,
          "midi": 41,
          "name": "F2",
          "ticks": 11160,
          "time": 102.57342,
          "velocity": 0.6377952755905512
        },
        {
          "duration": 0.055147000000005164,
          "durationTicks": 6,
          "midi": 41,
          "name": "F2",
          "ticks": 11167,
          "time": 102.63775816666666,
          "velocity": 0.6692913385826772
        },
        {
          "duration": 0.055147000000005164,
          "durationTicks": 6,
          "midi": 41,
          "name": "F2",
          "ticks": 11174,
          "time": 102.70209633333333,
          "velocity": 0.7086614173228346
        },
        {
          "duration": 1.7647039999999947,
          "durationTicks": 192,
          "midi": 42,
          "name": "F#2",
          "ticks": 11184,
          "time": 102.794008,
          "velocity": 1
        },
        {
          "duration": 0.05514699999999095,
          "durationTicks": 6,
          "midi": 41,
          "name": "F2",
          "ticks": 12576,
          "time": 115.588112,
          "velocity": 0.03937007874015748
        },
        {
          "duration": 0.055147000000005164,
          "durationTicks": 6,
          "midi": 41,
          "name": "F2",
          "ticks": 12583,
          "time": 115.65245016666667,
          "velocity": 0.10236220472440945
        },
        {
          "duration": 0.055147000000005164,
          "durationTicks": 6,
          "midi": 41,
          "name": "F2",
          "ticks": 12589,
          "time": 115.70759716666667,
          "velocity": 0.14960629921259844
        },
        {
          "duration": 0.055147000000005164,
          "durationTicks": 6,
          "midi": 41,
          "name": "F2",
          "ticks": 12596,
          "time": 115.77193533333333,
          "velocity": 0.1889763779527559
        },
        {
          "duration": 0.055147000000005164,
          "durationTicks": 6,
          "midi": 41,
          "name": "F2",
          "ticks": 12603,
          "time": 115.83627349999999,
          "velocity": 0.2283464566929134
        },
        {
          "duration": 0.05514699999999095,
          "durationTicks": 6,
          "midi": 41,
          "name": "F2",
          "ticks": 12609,
          "time": 115.8914205,
          "velocity": 0.2677165354330709
        },
        {
          "duration": 0.055147000000005164,
          "durationTicks": 6,
          "midi": 41,
          "name": "F2",
          "ticks": 12616,
          "time": 115.95575866666667,
          "velocity": 0.30708661417322836
        },
        {
          "duration": 0.055147000000005164,
          "durationTicks": 6,
          "midi": 41,
          "name": "F2",
          "ticks": 12623,
          "time": 116.02009683333333,
          "velocity": 0.3464566929133858
        },
        {
          "duration": 0.055147000000005164,
          "durationTicks": 6,
          "midi": 41,
          "name": "F2",
          "ticks": 12630,
          "time": 116.08443499999998,
          "velocity": 0.3858267716535433
        },
        {
          "duration": 0.055147000000005164,
          "durationTicks": 6,
          "midi": 41,
          "name": "F2",
          "ticks": 12637,
          "time": 116.14877316666667,
          "velocity": 0.41732283464566927
        },
        {
          "duration": 0.055147000000005164,
          "durationTicks": 6,
          "midi": 41,
          "name": "F2",
          "ticks": 12644,
          "time": 116.21311133333333,
          "velocity": 0.44881889763779526
        },
        {
          "duration": 0.05514699999999095,
          "durationTicks": 6,
          "midi": 41,
          "name": "F2",
          "ticks": 12650,
          "time": 116.26825833333334,
          "velocity": 0.47244094488188976
        },
        {
          "duration": 0.05514699999999095,
          "durationTicks": 6,
          "midi": 41,
          "name": "F2",
          "ticks": 12657,
          "time": 116.3325965,
          "velocity": 0.49606299212598426
        },
        {
          "duration": 0.055147000000005164,
          "durationTicks": 6,
          "midi": 41,
          "name": "F2",
          "ticks": 12664,
          "time": 116.39693466666667,
          "velocity": 0.5118110236220472
        },
        {
          "duration": 0.055147000000005164,
          "durationTicks": 6,
          "midi": 41,
          "name": "F2",
          "ticks": 12670,
          "time": 116.45208166666667,
          "velocity": 0.5433070866141733
        },
        {
          "duration": 0.055147000000005164,
          "durationTicks": 6,
          "midi": 41,
          "name": "F2",
          "ticks": 12677,
          "time": 116.51641983333333,
          "velocity": 0.5669291338582677
        },
        {
          "duration": 0.05514699999999095,
          "durationTicks": 6,
          "midi": 41,
          "name": "F2",
          "ticks": 12683,
          "time": 116.57156683333334,
          "velocity": 0.5905511811023622
        },
        {
          "duration": 0.055147000000005164,
          "durationTicks": 6,
          "midi": 41,
          "name": "F2",
          "ticks": 12689,
          "time": 116.62671383333333,
          "velocity": 0.6141732283464567
        },
        {
          "duration": 0.055147000000005164,
          "durationTicks": 6,
          "midi": 41,
          "name": "F2",
          "ticks": 12696,
          "time": 116.69105199999998,
          "velocity": 0.6377952755905512
        },
        {
          "duration": 0.055147000000005164,
          "durationTicks": 6,
          "midi": 41,
          "name": "F2",
          "ticks": 12703,
          "time": 116.75539016666667,
          "velocity": 0.6692913385826772
        },
        {
          "duration": 0.055147000000005164,
          "durationTicks": 6,
          "midi": 41,
          "name": "F2",
          "ticks": 12710,
          "time": 116.81972833333333,
          "velocity": 0.7086614173228346
        },
        {
          "duration": 1.7647039999999947,
          "durationTicks": 192,
          "midi": 43,
          "name": "G2",
          "ticks": 12720,
          "time": 116.91163999999999,
          "velocity": 1
        },
        {
          "duration": 0.05514699999997674,
          "durationTicks": 6,
          "midi": 41,
          "name": "F2",
          "ticks": 14880,
          "time": 136.76456000000002,
          "velocity": 0.05511811023622047
        },
        {
          "duration": 0.055147000000005164,
          "durationTicks": 6,
          "midi": 41,
          "name": "F2",
          "ticks": 14887,
          "time": 136.82889816666668,
          "velocity": 0.14960629921259844
        },
        {
          "duration": 0.055147000000005164,
          "durationTicks": 6,
          "midi": 41,
          "name": "F2",
          "ticks": 14893,
          "time": 136.88404516666668,
          "velocity": 0.2047244094488189
        },
        {
          "duration": 0.055147000000005164,
          "durationTicks": 6,
          "midi": 41,
          "name": "F2",
          "ticks": 14900,
          "time": 136.94838333333334,
          "velocity": 0.2755905511811024
        },
        {
          "duration": 0.055147000000005164,
          "durationTicks": 6,
          "midi": 41,
          "name": "F2",
          "ticks": 14907,
          "time": 137.0127215,
          "velocity": 0.3228346456692913
        },
        {
          "duration": 0.055147000000005164,
          "durationTicks": 6,
          "midi": 41,
          "name": "F2",
          "ticks": 14913,
          "time": 137.0678685,
          "velocity": 0.3779527559055118
        },
        {
          "duration": 0.055147000000005164,
          "durationTicks": 6,
          "midi": 41,
          "name": "F2",
          "ticks": 14920,
          "time": 137.1322066666667,
          "velocity": 0.4330708661417323
        },
        {
          "duration": 0.055147000000005164,
          "durationTicks": 6,
          "midi": 41,
          "name": "F2",
          "ticks": 14927,
          "time": 137.19654483333335,
          "velocity": 0.48031496062992124
        },
        {
          "duration": 0.055147000000005164,
          "durationTicks": 6,
          "midi": 41,
          "name": "F2",
          "ticks": 14934,
          "time": 137.260883,
          "velocity": 0.49606299212598426
        },
        {
          "duration": 0.055147000000005164,
          "durationTicks": 6,
          "midi": 41,
          "name": "F2",
          "ticks": 14941,
          "time": 137.3252211666667,
          "velocity": 0.5354330708661418
        },
        {
          "duration": 0.055147000000005164,
          "durationTicks": 6,
          "midi": 41,
          "name": "F2",
          "ticks": 14948,
          "time": 137.38955933333335,
          "velocity": 0.5590551181102362
        },
        {
          "duration": 0.05514699999997674,
          "durationTicks": 6,
          "midi": 41,
          "name": "F2",
          "ticks": 14954,
          "time": 137.44470633333336,
          "velocity": 0.5984251968503937
        },
        {
          "duration": 0.05514699999997674,
          "durationTicks": 6,
          "midi": 41,
          "name": "F2",
          "ticks": 14961,
          "time": 137.50904450000002,
          "velocity": 0.6299212598425197
        },
        {
          "duration": 0.055147000000005164,
          "durationTicks": 6,
          "midi": 41,
          "name": "F2",
          "ticks": 14968,
          "time": 137.57338266666667,
          "velocity": 0.6456692913385826
        },
        {
          "duration": 0.055147000000005164,
          "durationTicks": 6,
          "midi": 41,
          "name": "F2",
          "ticks": 14974,
          "time": 137.62852966666668,
          "velocity": 0.6614173228346457
        },
        {
          "duration": 0.055147000000005164,
          "durationTicks": 6,
          "midi": 41,
          "name": "F2",
          "ticks": 14981,
          "time": 137.69286783333334,
          "velocity": 0.6850393700787402
        },
        {
          "duration": 0.055147000000005164,
          "durationTicks": 6,
          "midi": 41,
          "name": "F2",
          "ticks": 14987,
          "time": 137.74801483333334,
          "velocity": 0.7007874015748031
        },
        {
          "duration": 0.055147000000005164,
          "durationTicks": 6,
          "midi": 41,
          "name": "F2",
          "ticks": 14993,
          "time": 137.80316183333335,
          "velocity": 0.7244094488188977
        },
        {
          "duration": 0.055147000000005164,
          "durationTicks": 6,
          "midi": 41,
          "name": "F2",
          "ticks": 15000,
          "time": 137.8675,
          "velocity": 0.7401574803149606
        },
        {
          "duration": 0.055147000000005164,
          "durationTicks": 6,
          "midi": 41,
          "name": "F2",
          "ticks": 15007,
          "time": 137.9318381666667,
          "velocity": 0.7637795275590551
        },
        {
          "duration": 0.055147000000005164,
          "durationTicks": 6,
          "midi": 41,
          "name": "F2",
          "ticks": 15014,
          "time": 137.99617633333335,
          "velocity": 0.7874015748031497
        },
        {
          "duration": 1.7647039999999947,
          "durationTicks": 192,
          "midi": 42,
          "name": "F#2",
          "ticks": 15024,
          "time": 138.088088,
          "velocity": 1
        },
        {
          "duration": 0.05514699999997674,
          "durationTicks": 6,
          "midi": 41,
          "name": "F2",
          "ticks": 16032,
          "time": 147.352784,
          "velocity": 0.05511811023622047
        },
        {
          "duration": 0.05514699999997674,
          "durationTicks": 6,
          "midi": 41,
          "name": "F2",
          "ticks": 16039,
          "time": 147.4171221666667,
          "velocity": 0.14960629921259844
        },
        {
          "duration": 0.055147000000005164,
          "durationTicks": 6,
          "midi": 41,
          "name": "F2",
          "ticks": 16045,
          "time": 147.47226916666668,
          "velocity": 0.2047244094488189
        },
        {
          "duration": 0.055147000000005164,
          "durationTicks": 6,
          "midi": 41,
          "name": "F2",
          "ticks": 16052,
          "time": 147.53660733333334,
          "velocity": 0.2755905511811024
        },
        {
          "duration": 0.055147000000005164,
          "durationTicks": 6,
          "midi": 41,
          "name": "F2",
          "ticks": 16059,
          "time": 147.6009455,
          "velocity": 0.3228346456692913
        },
        {
          "duration": 0.055147000000005164,
          "durationTicks": 6,
          "midi": 41,
          "name": "F2",
          "ticks": 16065,
          "time": 147.6560925,
          "velocity": 0.3779527559055118
        },
        {
          "duration": 0.055147000000005164,
          "durationTicks": 6,
          "midi": 41,
          "name": "F2",
          "ticks": 16072,
          "time": 147.7204306666667,
          "velocity": 0.4330708661417323
        },
        {
          "duration": 0.055147000000005164,
          "durationTicks": 6,
          "midi": 41,
          "name": "F2",
          "ticks": 16079,
          "time": 147.78476883333335,
          "velocity": 0.48031496062992124
        },
        {
          "duration": 0.055147000000005164,
          "durationTicks": 6,
          "midi": 41,
          "name": "F2",
          "ticks": 16086,
          "time": 147.849107,
          "velocity": 0.49606299212598426
        },
        {
          "duration": 0.055147000000005164,
          "durationTicks": 6,
          "midi": 41,
          "name": "F2",
          "ticks": 16093,
          "time": 147.9134451666667,
          "velocity": 0.5354330708661418
        },
        {
          "duration": 0.055147000000005164,
          "durationTicks": 6,
          "midi": 41,
          "name": "F2",
          "ticks": 16100,
          "time": 147.97778333333335,
          "velocity": 0.5590551181102362
        },
        {
          "duration": 0.055147000000005164,
          "durationTicks": 6,
          "midi": 41,
          "name": "F2",
          "ticks": 16106,
          "time": 148.03293033333335,
          "velocity": 0.5984251968503937
        },
        {
          "duration": 0.055147000000005164,
          "durationTicks": 6,
          "midi": 41,
          "name": "F2",
          "ticks": 16113,
          "time": 148.0972685,
          "velocity": 0.6299212598425197
        },
        {
          "duration": 0.05514699999997674,
          "durationTicks": 6,
          "midi": 41,
          "name": "F2",
          "ticks": 16120,
          "time": 148.1616066666667,
          "velocity": 0.6456692913385826
        },
        {
          "duration": 0.055147000000005164,
          "durationTicks": 6,
          "midi": 41,
          "name": "F2",
          "ticks": 16126,
          "time": 148.21675366666668,
          "velocity": 0.6614173228346457
        },
        {
          "duration": 0.055147000000005164,
          "durationTicks": 6,
          "midi": 41,
          "name": "F2",
          "ticks": 16133,
          "time": 148.28109183333333,
          "velocity": 0.6850393700787402
        },
        {
          "duration": 0.055147000000005164,
          "durationTicks": 6,
          "midi": 41,
          "name": "F2",
          "ticks": 16139,
          "time": 148.33623883333334,
          "velocity": 0.7007874015748031
        },
        {
          "duration": 0.055147000000005164,
          "durationTicks": 6,
          "midi": 41,
          "name": "F2",
          "ticks": 16145,
          "time": 148.39138583333335,
          "velocity": 0.7244094488188977
        },
        {
          "duration": 0.055147000000005164,
          "durationTicks": 6,
          "midi": 41,
          "name": "F2",
          "ticks": 16152,
          "time": 148.455724,
          "velocity": 0.7401574803149606
        },
        {
          "duration": 0.055147000000005164,
          "durationTicks": 6,
          "midi": 41,
          "name": "F2",
          "ticks": 16159,
          "time": 148.5200621666667,
          "velocity": 0.7637795275590551
        },
        {
          "duration": 0.055147000000005164,
          "durationTicks": 6,
          "midi": 41,
          "name": "F2",
          "ticks": 16166,
          "time": 148.58440033333335,
          "velocity": 0.7874015748031497
        },
        {
          "duration": 1.7647039999999947,
          "durationTicks": 192,
          "midi": 46,
          "name": "A#2",
          "ticks": 16176,
          "time": 148.676312,
          "velocity": 1
        },
        {
          "duration": 0.055147000000005164,
          "durationTicks": 6,
          "midi": 41,
          "name": "F2",
          "ticks": 16416,
          "time": 150.882192,
          "velocity": 0.03937007874015748
        },
        {
          "duration": 0.055147000000005164,
          "durationTicks": 6,
          "midi": 41,
          "name": "F2",
          "ticks": 16423,
          "time": 150.9465301666667,
          "velocity": 0.10236220472440945
        },
        {
          "duration": 0.055147000000005164,
          "durationTicks": 6,
          "midi": 41,
          "name": "F2",
          "ticks": 16429,
          "time": 151.0016771666667,
          "velocity": 0.14960629921259844
        },
        {
          "duration": 0.055147000000005164,
          "durationTicks": 6,
          "midi": 41,
          "name": "F2",
          "ticks": 16436,
          "time": 151.06601533333335,
          "velocity": 0.1889763779527559
        },
        {
          "duration": 0.055147000000005164,
          "durationTicks": 6,
          "midi": 41,
          "name": "F2",
          "ticks": 16443,
          "time": 151.1303535,
          "velocity": 0.2283464566929134
        },
        {
          "duration": 0.05514699999997674,
          "durationTicks": 6,
          "midi": 41,
          "name": "F2",
          "ticks": 16449,
          "time": 151.18550050000002,
          "velocity": 0.2677165354330709
        },
        {
          "duration": 0.055147000000005164,
          "durationTicks": 6,
          "midi": 41,
          "name": "F2",
          "ticks": 16456,
          "time": 151.24983866666668,
          "velocity": 0.30708661417322836
        },
        {
          "duration": 0.055147000000005164,
          "durationTicks": 6,
          "midi": 41,
          "name": "F2",
          "ticks": 16463,
          "time": 151.31417683333333,
          "velocity": 0.3464566929133858
        },
        {
          "duration": 0.055147000000005164,
          "durationTicks": 6,
          "midi": 41,
          "name": "F2",
          "ticks": 16470,
          "time": 151.378515,
          "velocity": 0.3858267716535433
        },
        {
          "duration": 0.055147000000005164,
          "durationTicks": 6,
          "midi": 41,
          "name": "F2",
          "ticks": 16477,
          "time": 151.44285316666668,
          "velocity": 0.41732283464566927
        },
        {
          "duration": 0.055147000000005164,
          "durationTicks": 6,
          "midi": 41,
          "name": "F2",
          "ticks": 16484,
          "time": 151.50719133333334,
          "velocity": 0.44881889763779526
        },
        {
          "duration": 0.055147000000005164,
          "durationTicks": 6,
          "midi": 41,
          "name": "F2",
          "ticks": 16490,
          "time": 151.56233833333334,
          "velocity": 0.47244094488188976
        },
        {
          "duration": 0.055147000000005164,
          "durationTicks": 6,
          "midi": 41,
          "name": "F2",
          "ticks": 16497,
          "time": 151.6266765,
          "velocity": 0.49606299212598426
        },
        {
          "duration": 0.055147000000005164,
          "durationTicks": 6,
          "midi": 41,
          "name": "F2",
          "ticks": 16504,
          "time": 151.6910146666667,
          "velocity": 0.5118110236220472
        },
        {
          "duration": 0.055147000000005164,
          "durationTicks": 6,
          "midi": 41,
          "name": "F2",
          "ticks": 16510,
          "time": 151.7461616666667,
          "velocity": 0.5433070866141733
        },
        {
          "duration": 0.055147000000005164,
          "durationTicks": 6,
          "midi": 41,
          "name": "F2",
          "ticks": 16517,
          "time": 151.81049983333335,
          "velocity": 0.5669291338582677
        },
        {
          "duration": 0.05514699999997674,
          "durationTicks": 6,
          "midi": 41,
          "name": "F2",
          "ticks": 16523,
          "time": 151.86564683333336,
          "velocity": 0.5905511811023622
        },
        {
          "duration": 0.055147000000005164,
          "durationTicks": 6,
          "midi": 41,
          "name": "F2",
          "ticks": 16529,
          "time": 151.92079383333333,
          "velocity": 0.6141732283464567
        },
        {
          "duration": 0.055147000000005164,
          "durationTicks": 6,
          "midi": 41,
          "name": "F2",
          "ticks": 16536,
          "time": 151.985132,
          "velocity": 0.6377952755905512
        },
        {
          "duration": 0.055147000000005164,
          "durationTicks": 6,
          "midi": 41,
          "name": "F2",
          "ticks": 16543,
          "time": 152.04947016666668,
          "velocity": 0.6692913385826772
        },
        {
          "duration": 0.055147000000005164,
          "durationTicks": 6,
          "midi": 41,
          "name": "F2",
          "ticks": 16550,
          "time": 152.11380833333334,
          "velocity": 0.7086614173228346
        },
        {
          "duration": 1.7647039999999947,
          "durationTicks": 192,
          "midi": 42,
          "name": "F#2",
          "ticks": 16560,
          "time": 152.20572,
          "velocity": 1
        },
        {
          "duration": 0.05514699999997674,
          "durationTicks": 6,
          "midi": 41,
          "name": "F2",
          "ticks": 17952,
          "time": 164.99982400000002,
          "velocity": 0.05511811023622047
        },
        {
          "duration": 0.055147000000005164,
          "durationTicks": 6,
          "midi": 41,
          "name": "F2",
          "ticks": 17959,
          "time": 165.06416216666668,
          "velocity": 0.14960629921259844
        },
        {
          "duration": 0.055147000000005164,
          "durationTicks": 6,
          "midi": 41,
          "name": "F2",
          "ticks": 17965,
          "time": 165.11930916666668,
          "velocity": 0.2047244094488189
        },
        {
          "duration": 0.055147000000005164,
          "durationTicks": 6,
          "midi": 41,
          "name": "F2",
          "ticks": 17972,
          "time": 165.18364733333334,
          "velocity": 0.2755905511811024
        },
        {
          "duration": 0.055147000000005164,
          "durationTicks": 6,
          "midi": 41,
          "name": "F2",
          "ticks": 17979,
          "time": 165.2479855,
          "velocity": 0.3228346456692913
        },
        {
          "duration": 0.055147000000005164,
          "durationTicks": 6,
          "midi": 41,
          "name": "F2",
          "ticks": 17985,
          "time": 165.3031325,
          "velocity": 0.3779527559055118
        },
        {
          "duration": 0.055147000000005164,
          "durationTicks": 6,
          "midi": 41,
          "name": "F2",
          "ticks": 17992,
          "time": 165.3674706666667,
          "velocity": 0.4330708661417323
        },
        {
          "duration": 0.055147000000005164,
          "durationTicks": 6,
          "midi": 41,
          "name": "F2",
          "ticks": 17999,
          "time": 165.43180883333335,
          "velocity": 0.48031496062992124
        },
        {
          "duration": 0.055147000000005164,
          "durationTicks": 6,
          "midi": 41,
          "name": "F2",
          "ticks": 18006,
          "time": 165.496147,
          "velocity": 0.49606299212598426
        },
        {
          "duration": 0.055147000000005164,
          "durationTicks": 6,
          "midi": 41,
          "name": "F2",
          "ticks": 18013,
          "time": 165.5604851666667,
          "velocity": 0.5354330708661418
        },
        {
          "duration": 0.055147000000005164,
          "durationTicks": 6,
          "midi": 41,
          "name": "F2",
          "ticks": 18020,
          "time": 165.62482333333335,
          "velocity": 0.5590551181102362
        },
        {
          "duration": 0.05514699999997674,
          "durationTicks": 6,
          "midi": 41,
          "name": "F2",
          "ticks": 18026,
          "time": 165.67997033333336,
          "velocity": 0.5984251968503937
        },
        {
          "duration": 0.05514699999997674,
          "durationTicks": 6,
          "midi": 41,
          "name": "F2",
          "ticks": 18033,
          "time": 165.74430850000002,
          "velocity": 0.6299212598425197
        },
        {
          "duration": 0.055147000000005164,
          "durationTicks": 6,
          "midi": 41,
          "name": "F2",
          "ticks": 18040,
          "time": 165.80864666666668,
          "velocity": 0.6456692913385826
        },
        {
          "duration": 0.055147000000005164,
          "durationTicks": 6,
          "midi": 41,
          "name": "F2",
          "ticks": 18046,
          "time": 165.86379366666668,
          "velocity": 0.6614173228346457
        },
        {
          "duration": 0.055147000000005164,
          "durationTicks": 6,
          "midi": 41,
          "name": "F2",
          "ticks": 18053,
          "time": 165.92813183333334,
          "velocity": 0.6850393700787402
        },
        {
          "duration": 0.055147000000005164,
          "durationTicks": 6,
          "midi": 41,
          "name": "F2",
          "ticks": 18059,
          "time": 165.98327883333334,
          "velocity": 0.7007874015748031
        },
        {
          "duration": 0.055147000000005164,
          "durationTicks": 6,
          "midi": 41,
          "name": "F2",
          "ticks": 18065,
          "time": 166.03842583333335,
          "velocity": 0.7244094488188977
        },
        {
          "duration": 0.055147000000005164,
          "durationTicks": 6,
          "midi": 41,
          "name": "F2",
          "ticks": 18072,
          "time": 166.102764,
          "velocity": 0.7401574803149606
        },
        {
          "duration": 0.055147000000005164,
          "durationTicks": 6,
          "midi": 41,
          "name": "F2",
          "ticks": 18079,
          "time": 166.1671021666667,
          "velocity": 0.7637795275590551
        },
        {
          "duration": 0.055147000000005164,
          "durationTicks": 6,
          "midi": 41,
          "name": "F2",
          "ticks": 18086,
          "time": 166.23144033333335,
          "velocity": 0.7874015748031497
        },
        {
          "duration": 1.7647039999999947,
          "durationTicks": 192,
          "midi": 42,
          "name": "F#2",
          "ticks": 18096,
          "time": 166.323352,
          "velocity": 1
        },
        {
          "duration": 0.22058799999999223,
          "durationTicks": 24,
          "midi": 44,
          "name": "G#2",
          "ticks": 19560,
          "time": 179.77922,
          "velocity": 0.7874015748031497
        },
        {
          "duration": 0.22058799999999223,
          "durationTicks": 24,
          "midi": 39,
          "name": "D#2",
          "ticks": 19584,
          "time": 179.999808,
          "velocity": 0.7322834645669292
        },
        {
          "duration": 0.22058800000002066,
          "durationTicks": 24,
          "midi": 44,
          "name": "G#2",
          "ticks": 19608,
          "time": 180.220396,
          "velocity": 0.7401574803149606
        },
        {
          "duration": 0.055147000000005164,
          "durationTicks": 6,
          "midi": 42,
          "name": "F#2",
          "ticks": 19656,
          "time": 180.661572,
          "velocity": 0.3700787401574803
        },
        {
          "duration": 0.055147000000005164,
          "durationTicks": 6,
          "midi": 42,
          "name": "F#2",
          "ticks": 19662,
          "time": 180.716719,
          "velocity": 0.5275590551181102
        },
        {
          "duration": 0.05514699999997674,
          "durationTicks": 6,
          "midi": 42,
          "name": "F#2",
          "ticks": 19668,
          "time": 180.77186600000002,
          "velocity": 0.6377952755905512
        },
        {
          "duration": 0.055147000000005164,
          "durationTicks": 6,
          "midi": 42,
          "name": "F#2",
          "ticks": 19674,
          "time": 180.827013,
          "velocity": 0.7322834645669292
        },
        {
          "duration": 1.3051456666666752,
          "durationTicks": 142,
          "midi": 49,
          "name": "C#3",
          "ticks": 19680,
          "time": 180.88216,
          "velocity": 1
        },
        {
          "duration": 0.22058799999999223,
          "durationTicks": 24,
          "midi": 44,
          "name": "G#2",
          "ticks": 21480,
          "time": 197.42626,
          "velocity": 0.7874015748031497
        },
        {
          "duration": 0.22058799999999223,
          "durationTicks": 24,
          "midi": 39,
          "name": "D#2",
          "ticks": 21504,
          "time": 197.646848,
          "velocity": 0.7322834645669292
        },
        {
          "duration": 0.22058800000002066,
          "durationTicks": 24,
          "midi": 44,
          "name": "G#2",
          "ticks": 21528,
          "time": 197.867436,
          "velocity": 0.7401574803149606
        },
        {
          "duration": 1.7647039999999947,
          "durationTicks": 192,
          "midi": 42,
          "name": "F#2",
          "ticks": 21552,
          "time": 198.08802400000002,
          "velocity": 1
        },
        {
          "duration": 0.055147000000005164,
          "durationTicks": 6,
          "midi": 41,
          "name": "F2",
          "ticks": 21792,
          "time": 200.293904,
          "velocity": 0.05511811023622047
        },
        {
          "duration": 0.055147000000005164,
          "durationTicks": 6,
          "midi": 41,
          "name": "F2",
          "ticks": 21799,
          "time": 200.35824216666668,
          "velocity": 0.14960629921259844
        },
        {
          "duration": 0.055147000000005164,
          "durationTicks": 6,
          "midi": 41,
          "name": "F2",
          "ticks": 21805,
          "time": 200.4133891666667,
          "velocity": 0.2047244094488189
        },
        {
          "duration": 0.055147000000005164,
          "durationTicks": 6,
          "midi": 41,
          "name": "F2",
          "ticks": 21812,
          "time": 200.47772733333335,
          "velocity": 0.2755905511811024
        },
        {
          "duration": 0.055147000000005164,
          "durationTicks": 6,
          "midi": 41,
          "name": "F2",
          "ticks": 21819,
          "time": 200.5420655,
          "velocity": 0.3228346456692913
        },
        {
          "duration": 0.055147000000005164,
          "durationTicks": 6,
          "midi": 41,
          "name": "F2",
          "ticks": 21825,
          "time": 200.5972125,
          "velocity": 0.3779527559055118
        },
        {
          "duration": 0.05514699999997674,
          "durationTicks": 6,
          "midi": 41,
          "name": "F2",
          "ticks": 21832,
          "time": 200.6615506666667,
          "velocity": 0.4330708661417323
        },
        {
          "duration": 0.05514699999997674,
          "durationTicks": 6,
          "midi": 41,
          "name": "F2",
          "ticks": 21839,
          "time": 200.72588883333336,
          "velocity": 0.48031496062992124
        },
        {
          "duration": 0.05514699999997674,
          "durationTicks": 6,
          "midi": 41,
          "name": "F2",
          "ticks": 21846,
          "time": 200.79022700000002,
          "velocity": 0.49606299212598426
        },
        {
          "duration": 0.05514699999997674,
          "durationTicks": 6,
          "midi": 41,
          "name": "F2",
          "ticks": 21853,
          "time": 200.8545651666667,
          "velocity": 0.5354330708661418
        },
        {
          "duration": 0.05514699999997674,
          "durationTicks": 6,
          "midi": 41,
          "name": "F2",
          "ticks": 21860,
          "time": 200.91890333333336,
          "velocity": 0.5590551181102362
        },
        {
          "duration": 0.055147000000005164,
          "durationTicks": 6,
          "midi": 41,
          "name": "F2",
          "ticks": 21866,
          "time": 200.97405033333334,
          "velocity": 0.5984251968503937
        },
        {
          "duration": 0.055147000000005164,
          "durationTicks": 6,
          "midi": 41,
          "name": "F2",
          "ticks": 21873,
          "time": 201.0383885,
          "velocity": 0.6299212598425197
        },
        {
          "duration": 0.055147000000005164,
          "durationTicks": 6,
          "midi": 41,
          "name": "F2",
          "ticks": 21880,
          "time": 201.10272666666668,
          "velocity": 0.6456692913385826
        },
        {
          "duration": 0.055147000000005164,
          "durationTicks": 6,
          "midi": 41,
          "name": "F2",
          "ticks": 21886,
          "time": 201.1578736666667,
          "velocity": 0.6614173228346457
        },
        {
          "duration": 0.055147000000005164,
          "durationTicks": 6,
          "midi": 41,
          "name": "F2",
          "ticks": 21893,
          "time": 201.22221183333335,
          "velocity": 0.6850393700787402
        },
        {
          "duration": 0.055147000000005164,
          "durationTicks": 6,
          "midi": 41,
          "name": "F2",
          "ticks": 21899,
          "time": 201.27735883333335,
          "velocity": 0.7007874015748031
        },
        {
          "duration": 0.05514699999997674,
          "durationTicks": 6,
          "midi": 41,
          "name": "F2",
          "ticks": 21905,
          "time": 201.33250583333336,
          "velocity": 0.7244094488188977
        },
        {
          "duration": 0.05514699999997674,
          "durationTicks": 6,
          "midi": 41,
          "name": "F2",
          "ticks": 21912,
          "time": 201.39684400000002,
          "velocity": 0.7401574803149606
        },
        {
          "duration": 0.05514699999997674,
          "durationTicks": 6,
          "midi": 41,
          "name": "F2",
          "ticks": 21919,
          "time": 201.4611821666667,
          "velocity": 0.7637795275590551
        },
        {
          "duration": 0.05514699999997674,
          "durationTicks": 6,
          "midi": 41,
          "name": "F2",
          "ticks": 21926,
          "time": 201.52552033333336,
          "velocity": 0.7874015748031497
        },
        {
          "duration": 1.7555128333333414,
          "durationTicks": 191,
          "midi": 42,
          "name": "F#2",
          "ticks": 21936,
          "time": 201.617432,
          "velocity": 0.7795275590551181
        }
      ]
    },
    {
      "channel": 0,
      "controlChanges": {
        "0": [
          {
            "number": 0,
            "ticks": 156,
            "time": 1.4338220000000002,
            "value": 0
          }
        ],
        "32": [
          {
            "number": 32,
            "ticks": 160,
            "time": 1.4705866666666667,
            "value": 0.007874015748031496
          }
        ],
        "121": [
          {
            "number": 121,
            "ticks": 152,
            "time": 1.3970573333333334,
            "value": 0
          }
        ]
      },
      "pitchBends": [],
      "instrument": {
        "family": "piano",
        "number": 0,
        "name": "acoustic grand piano"
      },
      "name": "Melo1 Delay / Guitar Solo Delay",
      "notes": [],
      "endOfTrackTicks": 22922
    },
    {
      "channel": 15,
      "controlChanges": {
        "1": [
          {
            "number": 1,
            "ticks": 1397,
            "time": 12.840059833333335,
            "value": 0.3228346456692913
          },
          {
            "number": 1,
            "ticks": 1441,
            "time": 13.244471166666667,
            "value": 0
          },
          {
            "number": 1,
            "ticks": 1541,
            "time": 14.163587833333334,
            "value": 0.31496062992125984
          },
          {
            "number": 1,
            "ticks": 1582,
            "time": 14.540425666666668,
            "value": 0
          },
          {
            "number": 1,
            "ticks": 2117,
            "time": 19.457699833333336,
            "value": 0.4409448818897638
          },
          {
            "number": 1,
            "ticks": 2138,
            "time": 19.650714333333333,
            "value": 0
          },
          {
            "number": 1,
            "ticks": 3458,
            "time": 31.783054333333336,
            "value": 0.3937007874015748
          },
          {
            "number": 1,
            "ticks": 3506,
            "time": 32.22423033333333,
            "value": 0
          },
          {
            "number": 1,
            "ticks": 4082,
            "time": 37.51834233333334,
            "value": 0.3937007874015748
          },
          {
            "number": 1,
            "ticks": 4136,
            "time": 38.01466533333333,
            "value": 0
          },
          {
            "number": 1,
            "ticks": 4324,
            "time": 39.74260466666667,
            "value": 0.3543307086614173
          },
          {
            "number": 1,
            "ticks": 4346,
            "time": 39.944810333333336,
            "value": 0
          },
          {
            "number": 1,
            "ticks": 4420,
            "time": 40.62495666666667,
            "value": 0.3543307086614173
          },
          {
            "number": 1,
            "ticks": 4442,
            "time": 40.827162333333334,
            "value": 0
          },
          {
            "number": 1,
            "ticks": 4516,
            "time": 41.507308666666674,
            "value": 0.3543307086614173
          },
          {
            "number": 1,
            "ticks": 4538,
            "time": 41.70951433333334,
            "value": 0
          },
          {
            "number": 1,
            "ticks": 4612,
            "time": 42.38966066666667,
            "value": 0.3543307086614173
          },
          {
            "number": 1,
            "ticks": 4634,
            "time": 42.591866333333336,
            "value": 0
          },
          {
            "number": 1,
            "ticks": 4708,
            "time": 43.27201266666667,
            "value": 0.3543307086614173
          },
          {
            "number": 1,
            "ticks": 4730,
            "time": 43.47421833333333,
            "value": 0
          },
          {
            "number": 1,
            "ticks": 4804,
            "time": 44.15436466666667,
            "value": 0.3543307086614173
          },
          {
            "number": 1,
            "ticks": 4826,
            "time": 44.35657033333334,
            "value": 0
          },
          {
            "number": 1,
            "ticks": 5092,
            "time": 46.80142066666667,
            "value": 0.3543307086614173
          },
          {
            "number": 1,
            "ticks": 5114,
            "time": 47.00362633333334,
            "value": 0
          },
          {
            "number": 1,
            "ticks": 5188,
            "time": 47.68377266666667,
            "value": 0.3543307086614173
          },
          {
            "number": 1,
            "ticks": 5210,
            "time": 47.885978333333334,
            "value": 0
          },
          {
            "number": 1,
            "ticks": 5284,
            "time": 48.566124666666674,
            "value": 0.3543307086614173
          },
          {
            "number": 1,
            "ticks": 5306,
            "time": 48.76833033333334,
            "value": 0
          },
          {
            "number": 1,
            "ticks": 5380,
            "time": 49.44847666666667,
            "value": 0.3543307086614173
          },
          {
            "number": 1,
            "ticks": 5402,
            "time": 49.650682333333336,
            "value": 0
          },
          {
            "number": 1,
            "ticks": 5762,
            "time": 52.95950233333333,
            "value": 0.3937007874015748
          },
          {
            "number": 1,
            "ticks": 5832,
            "time": 53.602884,
            "value": 0
          },
          {
            "number": 1,
            "ticks": 6958,
            "time": 63.952137666666665,
            "value": 0
          },
          {
            "number": 1,
            "ticks": 7372,
            "time": 67.75728066666666,
            "value": 0.4330708661417323
          },
          {
            "number": 1,
            "ticks": 7412,
            "time": 68.12492733333333,
            "value": 0
          },
          {
            "number": 1,
            "ticks": 7802,
            "time": 71.70948233333333,
            "value": 0.4330708661417323
          },
          {
            "number": 1,
            "ticks": 7850,
            "time": 72.15065833333333,
            "value": 0
          },
          {
            "number": 1,
            "ticks": 7994,
            "time": 73.47418633333334,
            "value": 0.4330708661417323
          },
          {
            "number": 1,
            "ticks": 8046,
            "time": 73.952127,
            "value": 0
          },
          {
            "number": 1,
            "ticks": 8309,
            "time": 76.36940383333332,
            "value": 0.3228346456692913
          },
          {
            "number": 1,
            "ticks": 8353,
            "time": 76.77381516666667,
            "value": 0
          },
          {
            "number": 1,
            "ticks": 8453,
            "time": 77.69293183333333,
            "value": 0.31496062992125984
          },
          {
            "number": 1,
            "ticks": 8494,
            "time": 78.06976966666666,
            "value": 0
          },
          {
            "number": 1,
            "ticks": 9029,
            "time": 82.98704383333333,
            "value": 0.4409448818897638
          },
          {
            "number": 1,
            "ticks": 9059,
            "time": 83.26277883333333,
            "value": 0
          },
          {
            "number": 1,
            "ticks": 10370,
            "time": 95.31239833333333,
            "value": 0.3937007874015748
          },
          {
            "number": 1,
            "ticks": 10418,
            "time": 95.75357433333333,
            "value": 0
          },
          {
            "number": 1,
            "ticks": 10994,
            "time": 101.04768633333333,
            "value": 0.3937007874015748
          },
          {
            "number": 1,
            "ticks": 11048,
            "time": 101.54400933333334,
            "value": 0
          },
          {
            "number": 1,
            "ticks": 15097,
            "time": 138.7590431666667,
            "value": 0.3858267716535433
          },
          {
            "number": 1,
            "ticks": 15144,
            "time": 139.19102800000002,
            "value": 0
          },
          {
            "number": 1,
            "ticks": 15188,
            "time": 139.59543933333333,
            "value": 0.31496062992125984
          },
          {
            "number": 1,
            "ticks": 15216,
            "time": 139.852792,
            "value": 0
          },
          {
            "number": 1,
            "ticks": 15365,
            "time": 141.22227583333336,
            "value": 0.3543307086614173
          },
          {
            "number": 1,
            "ticks": 15408,
            "time": 141.61749600000002,
            "value": 0
          },
          {
            "number": 1,
            "ticks": 15820,
            "time": 145.4042566666667,
            "value": 0.4330708661417323
          },
          {
            "number": 1,
            "ticks": 15860,
            "time": 145.77190333333334,
            "value": 0
          },
          {
            "number": 1,
            "ticks": 16442,
            "time": 151.12116233333336,
            "value": 0.4330708661417323
          },
          {
            "number": 1,
            "ticks": 16490,
            "time": 151.56233833333334,
            "value": 0
          },
          {
            "number": 1,
            "ticks": 16757,
            "time": 154.01637983333333,
            "value": 0.3228346456692913
          },
          {
            "number": 1,
            "ticks": 16801,
            "time": 154.42079116666667,
            "value": 0
          },
          {
            "number": 1,
            "ticks": 16901,
            "time": 155.33990783333334,
            "value": 0.31496062992125984
          },
          {
            "number": 1,
            "ticks": 16942,
            "time": 155.7167456666667,
            "value": 0
          },
          {
            "number": 1,
            "ticks": 17477,
            "time": 160.63401983333335,
            "value": 0.4409448818897638
          },
          {
            "number": 1,
            "ticks": 17507,
            "time": 160.90975483333335,
            "value": 0
          },
          {
            "number": 1,
            "ticks": 18478,
            "time": 169.83437766666668,
            "value": 0
          },
          {
            "number": 1,
            "ticks": 18553,
            "time": 170.52371516666668,
            "value": 0.3937007874015748
          },
          {
            "number": 1,
            "ticks": 18599,
            "time": 170.94650883333335,
            "value": 0
          },
          {
            "number": 1,
            "ticks": 18892,
            "time": 173.6395206666667,
            "value": 0.4330708661417323
          },
          {
            "number": 1,
            "ticks": 18932,
            "time": 174.00716733333334,
            "value": 0
          },
          {
            "number": 1,
            "ticks": 19322,
            "time": 177.59172233333334,
            "value": 0.4330708661417323
          },
          {
            "number": 1,
            "ticks": 19370,
            "time": 178.03289833333335,
            "value": 0
          },
          {
            "number": 1,
            "ticks": 19514,
            "time": 179.35642633333336,
            "value": 0.4330708661417323
          },
          {
            "number": 1,
            "ticks": 19562,
            "time": 179.79760233333334,
            "value": 0
          },
          {
            "number": 1,
            "ticks": 19829,
            "time": 182.25164383333333,
            "value": 0.3228346456692913
          },
          {
            "number": 1,
            "ticks": 19873,
            "time": 182.65605516666668,
            "value": 0
          },
          {
            "number": 1,
            "ticks": 19973,
            "time": 183.57517183333334,
            "value": 0.31496062992125984
          },
          {
            "number": 1,
            "ticks": 20014,
            "time": 183.9520096666667,
            "value": 0
          },
          {
            "number": 1,
            "ticks": 20549,
            "time": 188.86928383333336,
            "value": 0.4409448818897638
          },
          {
            "number": 1,
            "ticks": 20579,
            "time": 189.14501883333335,
            "value": 0
          },
          {
            "number": 1,
            "ticks": 21004,
            "time": 193.0512646666667,
            "value": 0.49606299212598426
          },
          {
            "number": 1,
            "ticks": 21025,
            "time": 193.2442791666667,
            "value": 0
          },
          {
            "number": 1,
            "ticks": 21028,
            "time": 193.2718526666667,
            "value": 0.4409448818897638
          },
          {
            "number": 1,
            "ticks": 21121,
            "time": 194.1266311666667,
            "value": 0
          },
          {
            "number": 1,
            "ticks": 21317,
            "time": 195.92809983333333,
            "value": 0.4409448818897638
          },
          {
            "number": 1,
            "ticks": 21347,
            "time": 196.20383483333336,
            "value": 0
          },
          {
            "number": 1,
            "ticks": 21841,
            "time": 200.7442711666667,
            "value": 0.31496062992125984
          },
          {
            "number": 1,
            "ticks": 21878,
            "time": 201.08434433333335,
            "value": 0
          },
          {
            "number": 1,
            "ticks": 22009,
            "time": 202.2883871666667,
            "value": 0.3858267716535433
          },
          {
            "number": 1,
            "ticks": 22056,
            "time": 202.720372,
            "value": 0
          },
          {
            "number": 1,
            "ticks": 22100,
            "time": 203.12478333333334,
            "value": 0.31496062992125984
          },
          {
            "number": 1,
            "ticks": 22128,
            "time": 203.382136,
            "value": 0
          },
          {
            "number": 1,
            "ticks": 22230,
            "time": 204.319635,
            "value": 0.3543307086614173
          },
          {
            "number": 1,
            "ticks": 22273,
            "time": 204.7148551666667,
            "value": 0
          },
          {
            "number": 1,
            "ticks": 22370,
            "time": 205.60639833333335,
            "value": 0.3543307086614173
          },
          {
            "number": 1,
            "ticks": 22394,
            "time": 205.82698633333334,
            "value": 0
          },
          {
            "number": 1,
            "ticks": 22445,
            "time": 206.29573583333334,
            "value": 0.4409448818897638
          },
          {
            "number": 1,
            "ticks": 22489,
            "time": 206.70014716666668,
            "value": 0
          },
          {
            "number": 1,
            "ticks": 22682,
            "time": 208.47404233333336,
            "value": 0.3937007874015748
          },
          {
            "number": 1,
            "ticks": 22820,
            "time": 209.74242333333333,
            "value": 0
          }
        ],
        "6": [
          {
            "number": 6,
            "ticks": 181,
            "time": 1.6636011666666668,
            "value": 0.09448818897637795
          }
        ],
        "7": [
          {
            "number": 7,
            "ticks": 168,
            "time": 1.544116,
            "value": 0.5196850393700787
          }
        ],
        "10": [
          {
            "number": 10,
            "ticks": 172,
            "time": 1.5808806666666668,
            "value": 0.5039370078740157
          }
        ],
        "11": [
          {
            "number": 11,
            "ticks": 173,
            "time": 1.5900718333333332,
            "value": 0.7795275590551181
          },
          {
            "number": 11,
            "ticks": 1274,
            "time": 11.709546333333332,
            "value": 0.6456692913385826
          },
          {
            "number": 11,
            "ticks": 1276,
            "time": 11.727928666666667,
            "value": 0.6141732283464567
          },
          {
            "number": 11,
            "ticks": 1278,
            "time": 11.746310999999999,
            "value": 0.5748031496062992
          },
          {
            "number": 11,
            "ticks": 1280,
            "time": 11.764693333333334,
            "value": 0.5433070866141733
          },
          {
            "number": 11,
            "ticks": 1283,
            "time": 11.792266833333333,
            "value": 0.5039370078740157
          },
          {
            "number": 11,
            "ticks": 1285,
            "time": 11.810649166666668,
            "value": 0.47244094488188976
          },
          {
            "number": 11,
            "ticks": 1287,
            "time": 11.8290315,
            "value": 0.4330708661417323
          },
          {
            "number": 11,
            "ticks": 1289,
            "time": 11.847413833333334,
            "value": 0.3937007874015748
          },
          {
            "number": 11,
            "ticks": 1321,
            "time": 12.141531166666667,
            "value": 0.7795275590551181
          },
          {
            "number": 11,
            "ticks": 1559,
            "time": 14.329028833333332,
            "value": 0.7165354330708661
          },
          {
            "number": 11,
            "ticks": 1561,
            "time": 14.347411166666667,
            "value": 0.6850393700787402
          },
          {
            "number": 11,
            "ticks": 1563,
            "time": 14.365793499999999,
            "value": 0.6456692913385826
          },
          {
            "number": 11,
            "ticks": 1565,
            "time": 14.384175833333334,
            "value": 0.6141732283464567
          },
          {
            "number": 11,
            "ticks": 1567,
            "time": 14.402558166666669,
            "value": 0.5748031496062992
          },
          {
            "number": 11,
            "ticks": 1583,
            "time": 14.549616833333335,
            "value": 0.7795275590551181
          },
          {
            "number": 11,
            "ticks": 2013,
            "time": 18.501818500000002,
            "value": 0.7244094488188977
          },
          {
            "number": 11,
            "ticks": 2015,
            "time": 18.520200833333334,
            "value": 0.6850393700787402
          },
          {
            "number": 11,
            "ticks": 2017,
            "time": 18.538583166666665,
            "value": 0.6456692913385826
          },
          {
            "number": 11,
            "ticks": 2019,
            "time": 18.556965500000004,
            "value": 0.6062992125984252
          },
          {
            "number": 11,
            "ticks": 2042,
            "time": 18.768362333333336,
            "value": 0.7795275590551181
          },
          {
            "number": 11,
            "ticks": 3482,
            "time": 32.00364233333333,
            "value": 0.7559055118110236
          },
          {
            "number": 11,
            "ticks": 3484,
            "time": 32.02202466666667,
            "value": 0.7401574803149606
          },
          {
            "number": 11,
            "ticks": 3487,
            "time": 32.04959816666667,
            "value": 0.7165354330708661
          },
          {
            "number": 11,
            "ticks": 3490,
            "time": 32.07717166666667,
            "value": 0.6929133858267716
          },
          {
            "number": 11,
            "ticks": 3492,
            "time": 32.095554,
            "value": 0.6692913385826772
          },
          {
            "number": 11,
            "ticks": 3495,
            "time": 32.123127499999995,
            "value": 0.6535433070866141
          },
          {
            "number": 11,
            "ticks": 3498,
            "time": 32.150701,
            "value": 0.6299212598425197
          },
          {
            "number": 11,
            "ticks": 3500,
            "time": 32.16908333333333,
            "value": 0.6062992125984252
          },
          {
            "number": 11,
            "ticks": 3503,
            "time": 32.196656833333336,
            "value": 0.5826771653543307
          },
          {
            "number": 11,
            "ticks": 3529,
            "time": 32.43562716666667,
            "value": 0.7795275590551181
          },
          {
            "number": 11,
            "ticks": 4108,
            "time": 37.75731266666667,
            "value": 0.7637795275590551
          },
          {
            "number": 11,
            "ticks": 4111,
            "time": 37.78488616666667,
            "value": 0.7322834645669292
          },
          {
            "number": 11,
            "ticks": 4114,
            "time": 37.81245966666667,
            "value": 0.7007874015748031
          },
          {
            "number": 11,
            "ticks": 4117,
            "time": 37.84003316666667,
            "value": 0.6614173228346457
          },
          {
            "number": 11,
            "ticks": 4120,
            "time": 37.867606666666674,
            "value": 0.6299212598425197
          },
          {
            "number": 11,
            "ticks": 4123,
            "time": 37.89518016666667,
            "value": 0.5984251968503937
          },
          {
            "number": 11,
            "ticks": 4126,
            "time": 37.92275366666667,
            "value": 0.5590551181102362
          },
          {
            "number": 11,
            "ticks": 4129,
            "time": 37.95032716666667,
            "value": 0.5275590551181102
          },
          {
            "number": 11,
            "ticks": 4132,
            "time": 37.97790066666667,
            "value": 0.4881889763779528
          },
          {
            "number": 11,
            "ticks": 4152,
            "time": 38.161724,
            "value": 0.7795275590551181
          },
          {
            "number": 11,
            "ticks": 4334,
            "time": 39.83451633333333,
            "value": 0.7637795275590551
          },
          {
            "number": 11,
            "ticks": 4336,
            "time": 39.85289866666667,
            "value": 0.7401574803149606
          },
          {
            "number": 11,
            "ticks": 4338,
            "time": 39.871281,
            "value": 0.7165354330708661
          },
          {
            "number": 11,
            "ticks": 4340,
            "time": 39.88966333333334,
            "value": 0.6929133858267716
          },
          {
            "number": 11,
            "ticks": 4342,
            "time": 39.90804566666667,
            "value": 0.6692913385826772
          },
          {
            "number": 11,
            "ticks": 4344,
            "time": 39.926428,
            "value": 0.6456692913385826
          },
          {
            "number": 11,
            "ticks": 4369,
            "time": 40.15620716666667,
            "value": 0.7795275590551181
          },
          {
            "number": 11,
            "ticks": 4430,
            "time": 40.71686833333334,
            "value": 0.7637795275590551
          },
          {
            "number": 11,
            "ticks": 4432,
            "time": 40.73525066666667,
            "value": 0.7401574803149606
          },
          {
            "number": 11,
            "ticks": 4434,
            "time": 40.753633,
            "value": 0.7165354330708661
          },
          {
            "number": 11,
            "ticks": 4436,
            "time": 40.772015333333336,
            "value": 0.6929133858267716
          },
          {
            "number": 11,
            "ticks": 4438,
            "time": 40.79039766666667,
            "value": 0.6692913385826772
          },
          {
            "number": 11,
            "ticks": 4440,
            "time": 40.80878,
            "value": 0.6456692913385826
          },
          {
            "number": 11,
            "ticks": 4465,
            "time": 41.03855916666667,
            "value": 0.7795275590551181
          },
          {
            "number": 11,
            "ticks": 4526,
            "time": 41.599220333333335,
            "value": 0.7637795275590551
          },
          {
            "number": 11,
            "ticks": 4528,
            "time": 41.61760266666667,
            "value": 0.7401574803149606
          },
          {
            "number": 11,
            "ticks": 4530,
            "time": 41.635985,
            "value": 0.7165354330708661
          },
          {
            "number": 11,
            "ticks": 4532,
            "time": 41.65436733333333,
            "value": 0.6929133858267716
          },
          {
            "number": 11,
            "ticks": 4534,
            "time": 41.67274966666667,
            "value": 0.6692913385826772
          },
          {
            "number": 11,
            "ticks": 4536,
            "time": 41.691132,
            "value": 0.6456692913385826
          },
          {
            "number": 11,
            "ticks": 4561,
            "time": 41.92091116666667,
            "value": 0.7795275590551181
          },
          {
            "number": 11,
            "ticks": 4622,
            "time": 42.48157233333333,
            "value": 0.7637795275590551
          },
          {
            "number": 11,
            "ticks": 4624,
            "time": 42.49995466666667,
            "value": 0.7401574803149606
          },
          {
            "number": 11,
            "ticks": 4626,
            "time": 42.518337,
            "value": 0.7165354330708661
          },
          {
            "number": 11,
            "ticks": 4628,
            "time": 42.53671933333334,
            "value": 0.6929133858267716
          },
          {
            "number": 11,
            "ticks": 4630,
            "time": 42.55510166666667,
            "value": 0.6692913385826772
          },
          {
            "number": 11,
            "ticks": 4632,
            "time": 42.573484,
            "value": 0.6456692913385826
          },
          {
            "number": 11,
            "ticks": 4657,
            "time": 42.80326316666667,
            "value": 0.7795275590551181
          },
          {
            "number": 11,
            "ticks": 4718,
            "time": 43.36392433333334,
            "value": 0.7637795275590551
          },
          {
            "number": 11,
            "ticks": 4720,
            "time": 43.38230666666667,
            "value": 0.7401574803149606
          },
          {
            "number": 11,
            "ticks": 4722,
            "time": 43.400689,
            "value": 0.7165354330708661
          },
          {
            "number": 11,
            "ticks": 4724,
            "time": 43.419071333333335,
            "value": 0.6929133858267716
          },
          {
            "number": 11,
            "ticks": 4726,
            "time": 43.43745366666667,
            "value": 0.6692913385826772
          },
          {
            "number": 11,
            "ticks": 4728,
            "time": 43.455836,
            "value": 0.6456692913385826
          },
          {
            "number": 11,
            "ticks": 4753,
            "time": 43.68561516666667,
            "value": 0.7795275590551181
          },
          {
            "number": 11,
            "ticks": 4814,
            "time": 44.246276333333334,
            "value": 0.7637795275590551
          },
          {
            "number": 11,
            "ticks": 4816,
            "time": 44.26465866666667,
            "value": 0.7401574803149606
          },
          {
            "number": 11,
            "ticks": 4818,
            "time": 44.283041,
            "value": 0.7165354330708661
          },
          {
            "number": 11,
            "ticks": 4820,
            "time": 44.30142333333333,
            "value": 0.6929133858267716
          },
          {
            "number": 11,
            "ticks": 4822,
            "time": 44.319805666666674,
            "value": 0.6692913385826772
          },
          {
            "number": 11,
            "ticks": 4824,
            "time": 44.338188,
            "value": 0.6456692913385826
          },
          {
            "number": 11,
            "ticks": 4849,
            "time": 44.56796716666667,
            "value": 0.7795275590551181
          },
          {
            "number": 11,
            "ticks": 5102,
            "time": 46.89333233333333,
            "value": 0.7637795275590551
          },
          {
            "number": 11,
            "ticks": 5104,
            "time": 46.91171466666667,
            "value": 0.7401574803149606
          },
          {
            "number": 11,
            "ticks": 5106,
            "time": 46.930097,
            "value": 0.7165354330708661
          },
          {
            "number": 11,
            "ticks": 5108,
            "time": 46.94847933333334,
            "value": 0.6929133858267716
          },
          {
            "number": 11,
            "ticks": 5110,
            "time": 46.966861666666674,
            "value": 0.6692913385826772
          },
          {
            "number": 11,
            "ticks": 5112,
            "time": 46.985244,
            "value": 0.6456692913385826
          },
          {
            "number": 11,
            "ticks": 5137,
            "time": 47.21502316666667,
            "value": 0.7795275590551181
          },
          {
            "number": 11,
            "ticks": 5198,
            "time": 47.77568433333334,
            "value": 0.7637795275590551
          },
          {
            "number": 11,
            "ticks": 5200,
            "time": 47.79406666666667,
            "value": 0.7401574803149606
          },
          {
            "number": 11,
            "ticks": 5202,
            "time": 47.812449,
            "value": 0.7165354330708661
          },
          {
            "number": 11,
            "ticks": 5204,
            "time": 47.830831333333336,
            "value": 0.6929133858267716
          },
          {
            "number": 11,
            "ticks": 5206,
            "time": 47.84921366666667,
            "value": 0.6692913385826772
          },
          {
            "number": 11,
            "ticks": 5208,
            "time": 47.867596,
            "value": 0.6456692913385826
          },
          {
            "number": 11,
            "ticks": 5233,
            "time": 48.09737516666667,
            "value": 0.7795275590551181
          },
          {
            "number": 11,
            "ticks": 5294,
            "time": 48.658036333333335,
            "value": 0.7637795275590551
          },
          {
            "number": 11,
            "ticks": 5296,
            "time": 48.67641866666667,
            "value": 0.7401574803149606
          },
          {
            "number": 11,
            "ticks": 5298,
            "time": 48.694801,
            "value": 0.7165354330708661
          },
          {
            "number": 11,
            "ticks": 5300,
            "time": 48.71318333333333,
            "value": 0.6929133858267716
          },
          {
            "number": 11,
            "ticks": 5302,
            "time": 48.73156566666667,
            "value": 0.6692913385826772
          },
          {
            "number": 11,
            "ticks": 5304,
            "time": 48.749948,
            "value": 0.6456692913385826
          },
          {
            "number": 11,
            "ticks": 5329,
            "time": 48.97972716666667,
            "value": 0.7795275590551181
          },
          {
            "number": 11,
            "ticks": 5390,
            "time": 49.54038833333333,
            "value": 0.7637795275590551
          },
          {
            "number": 11,
            "ticks": 5392,
            "time": 49.55877066666667,
            "value": 0.7401574803149606
          },
          {
            "number": 11,
            "ticks": 5394,
            "time": 49.577153,
            "value": 0.7165354330708661
          },
          {
            "number": 11,
            "ticks": 5396,
            "time": 49.59553533333334,
            "value": 0.6929133858267716
          },
          {
            "number": 11,
            "ticks": 5398,
            "time": 49.61391766666667,
            "value": 0.6692913385826772
          },
          {
            "number": 11,
            "ticks": 5400,
            "time": 49.6323,
            "value": 0.6456692913385826
          },
          {
            "number": 11,
            "ticks": 5425,
            "time": 49.86207916666667,
            "value": 0.7795275590551181
          },
          {
            "number": 11,
            "ticks": 5786,
            "time": 53.18009033333333,
            "value": 0.7795275590551181
          },
          {
            "number": 11,
            "ticks": 5793,
            "time": 53.2444285,
            "value": 0.7637795275590551
          },
          {
            "number": 11,
            "ticks": 5797,
            "time": 53.28119316666667,
            "value": 0.7401574803149606
          },
          {
            "number": 11,
            "ticks": 5800,
            "time": 53.30876666666667,
            "value": 0.7007874015748031
          },
          {
            "number": 11,
            "ticks": 5804,
            "time": 53.345531333333334,
            "value": 0.6535433070866141
          },
          {
            "number": 11,
            "ticks": 5808,
            "time": 53.382296000000004,
            "value": 0.6062992125984252
          },
          {
            "number": 11,
            "ticks": 5811,
            "time": 53.4098695,
            "value": 0.5433070866141733
          },
          {
            "number": 11,
            "ticks": 5815,
            "time": 53.44663416666667,
            "value": 0.48031496062992124
          },
          {
            "number": 11,
            "ticks": 5819,
            "time": 53.48339883333333,
            "value": 0.4015748031496063
          },
          {
            "number": 11,
            "ticks": 5822,
            "time": 53.510972333333335,
            "value": 0.33070866141732286
          },
          {
            "number": 11,
            "ticks": 5826,
            "time": 53.547737,
            "value": 0.25196850393700787
          },
          {
            "number": 11,
            "ticks": 5833,
            "time": 53.61207516666667,
            "value": 0.7795275590551181
          },
          {
            "number": 11,
            "ticks": 6529,
            "time": 60.009127166666666,
            "value": 0.7795275590551181
          },
          {
            "number": 11,
            "ticks": 6935,
            "time": 63.740740833333334,
            "value": 0.7165354330708661
          },
          {
            "number": 11,
            "ticks": 6937,
            "time": 63.75912316666667,
            "value": 0.6850393700787402
          },
          {
            "number": 11,
            "ticks": 6939,
            "time": 63.777505500000004,
            "value": 0.6456692913385826
          },
          {
            "number": 11,
            "ticks": 6941,
            "time": 63.79588783333334,
            "value": 0.6141732283464567
          },
          {
            "number": 11,
            "ticks": 6959,
            "time": 63.96132883333333,
            "value": 0.7795275590551181
          },
          {
            "number": 11,
            "ticks": 8010,
            "time": 73.621245,
            "value": 0.7716535433070866
          },
          {
            "number": 11,
            "ticks": 8012,
            "time": 73.63962733333332,
            "value": 0.7637795275590551
          },
          {
            "number": 11,
            "ticks": 8014,
            "time": 73.65800966666666,
            "value": 0.7480314960629921
          },
          {
            "number": 11,
            "ticks": 8016,
            "time": 73.676392,
            "value": 0.7244094488188977
          },
          {
            "number": 11,
            "ticks": 8018,
            "time": 73.69477433333333,
            "value": 0.7086614173228346
          },
          {
            "number": 11,
            "ticks": 8020,
            "time": 73.71315666666666,
            "value": 0.6929133858267716
          },
          {
            "number": 11,
            "ticks": 8022,
            "time": 73.731539,
            "value": 0.6692913385826772
          },
          {
            "number": 11,
            "ticks": 8024,
            "time": 73.74992133333333,
            "value": 0.6535433070866141
          },
          {
            "number": 11,
            "ticks": 8026,
            "time": 73.76830366666665,
            "value": 0.6299212598425197
          },
          {
            "number": 11,
            "ticks": 8065,
            "time": 74.12675916666666,
            "value": 0.7795275590551181
          },
          {
            "number": 11,
            "ticks": 8186,
            "time": 75.23889033333333,
            "value": 0.6456692913385826
          },
          {
            "number": 11,
            "ticks": 8188,
            "time": 75.25727266666667,
            "value": 0.6141732283464567
          },
          {
            "number": 11,
            "ticks": 8190,
            "time": 75.275655,
            "value": 0.5748031496062992
          },
          {
            "number": 11,
            "ticks": 8192,
            "time": 75.29403733333334,
            "value": 0.5433070866141733
          },
          {
            "number": 11,
            "ticks": 8195,
            "time": 75.32161083333332,
            "value": 0.5039370078740157
          },
          {
            "number": 11,
            "ticks": 8197,
            "time": 75.33999316666666,
            "value": 0.47244094488188976
          },
          {
            "number": 11,
            "ticks": 8199,
            "time": 75.3583755,
            "value": 0.4330708661417323
          },
          {
            "number": 11,
            "ticks": 8201,
            "time": 75.37675783333333,
            "value": 0.3937007874015748
          },
          {
            "number": 11,
            "ticks": 8233,
            "time": 75.67087516666666,
            "value": 0.7795275590551181
          },
          {
            "number": 11,
            "ticks": 8471,
            "time": 77.85837283333333,
            "value": 0.7165354330708661
          },
          {
            "number": 11,
            "ticks": 8473,
            "time": 77.87675516666665,
            "value": 0.6850393700787402
          },
          {
            "number": 11,
            "ticks": 8475,
            "time": 77.8951375,
            "value": 0.6456692913385826
          },
          {
            "number": 11,
            "ticks": 8477,
            "time": 77.91351983333332,
            "value": 0.6141732283464567
          },
          {
            "number": 11,
            "ticks": 8479,
            "time": 77.93190216666666,
            "value": 0.5748031496062992
          },
          {
            "number": 11,
            "ticks": 8495,
            "time": 78.07896083333333,
            "value": 0.7795275590551181
          },
          {
            "number": 11,
            "ticks": 8925,
            "time": 82.0311625,
            "value": 0.7244094488188977
          },
          {
            "number": 11,
            "ticks": 8927,
            "time": 82.04954483333333,
            "value": 0.6850393700787402
          },
          {
            "number": 11,
            "ticks": 8929,
            "time": 82.06792716666666,
            "value": 0.6456692913385826
          },
          {
            "number": 11,
            "ticks": 8931,
            "time": 82.0863095,
            "value": 0.6062992125984252
          },
          {
            "number": 11,
            "ticks": 8954,
            "time": 82.29770633333332,
            "value": 0.7795275590551181
          },
          {
            "number": 11,
            "ticks": 9047,
            "time": 83.15248483333333,
            "value": 0.7401574803149606
          },
          {
            "number": 11,
            "ticks": 9049,
            "time": 83.17086716666665,
            "value": 0.7244094488188977
          },
          {
            "number": 11,
            "ticks": 9051,
            "time": 83.1892495,
            "value": 0.7007874015748031
          },
          {
            "number": 11,
            "ticks": 9053,
            "time": 83.20763183333332,
            "value": 0.6850393700787402
          },
          {
            "number": 11,
            "ticks": 9055,
            "time": 83.22601416666666,
            "value": 0.6614173228346457
          },
          {
            "number": 11,
            "ticks": 9057,
            "time": 83.2443965,
            "value": 0.6377952755905512
          },
          {
            "number": 11,
            "ticks": 9073,
            "time": 83.39145516666666,
            "value": 0.7795275590551181
          },
          {
            "number": 11,
            "ticks": 10394,
            "time": 95.53298633333333,
            "value": 0.7559055118110236
          },
          {
            "number": 11,
            "ticks": 10396,
            "time": 95.55136866666666,
            "value": 0.7401574803149606
          },
          {
            "number": 11,
            "ticks": 10399,
            "time": 95.57894216666666,
            "value": 0.7165354330708661
          },
          {
            "number": 11,
            "ticks": 10402,
            "time": 95.60651566666665,
            "value": 0.6929133858267716
          },
          {
            "number": 11,
            "ticks": 10404,
            "time": 95.624898,
            "value": 0.6692913385826772
          },
          {
            "number": 11,
            "ticks": 10407,
            "time": 95.6524715,
            "value": 0.6535433070866141
          },
          {
            "number": 11,
            "ticks": 10410,
            "time": 95.680045,
            "value": 0.6299212598425197
          },
          {
            "number": 11,
            "ticks": 10412,
            "time": 95.69842733333333,
            "value": 0.6062992125984252
          },
          {
            "number": 11,
            "ticks": 10415,
            "time": 95.72600083333333,
            "value": 0.5826771653543307
          },
          {
            "number": 11,
            "ticks": 10441,
            "time": 95.96497116666666,
            "value": 0.7795275590551181
          },
          {
            "number": 11,
            "ticks": 11020,
            "time": 101.28665666666666,
            "value": 0.7637795275590551
          },
          {
            "number": 11,
            "ticks": 11023,
            "time": 101.31423016666666,
            "value": 0.7322834645669292
          },
          {
            "number": 11,
            "ticks": 11026,
            "time": 101.34180366666666,
            "value": 0.7007874015748031
          },
          {
            "number": 11,
            "ticks": 11029,
            "time": 101.36937716666665,
            "value": 0.6614173228346457
          },
          {
            "number": 11,
            "ticks": 11032,
            "time": 101.39695066666665,
            "value": 0.6299212598425197
          },
          {
            "number": 11,
            "ticks": 11035,
            "time": 101.42452416666666,
            "value": 0.5984251968503937
          },
          {
            "number": 11,
            "ticks": 11038,
            "time": 101.45209766666666,
            "value": 0.5590551181102362
          },
          {
            "number": 11,
            "ticks": 11041,
            "time": 101.47967116666666,
            "value": 0.5275590551181102
          },
          {
            "number": 11,
            "ticks": 11044,
            "time": 101.50724466666667,
            "value": 0.4881889763779528
          },
          {
            "number": 11,
            "ticks": 11064,
            "time": 101.691068,
            "value": 0.7795275590551181
          },
          {
            "number": 11,
            "ticks": 14977,
            "time": 137.6561031666667,
            "value": 0.7795275590551181
          },
          {
            "number": 11,
            "ticks": 15098,
            "time": 138.76823433333334,
            "value": 0.7559055118110236
          },
          {
            "number": 11,
            "ticks": 15101,
            "time": 138.79580783333336,
            "value": 0.7244094488188977
          },
          {
            "number": 11,
            "ticks": 15105,
            "time": 138.8325725,
            "value": 0.6850393700787402
          },
          {
            "number": 11,
            "ticks": 15108,
            "time": 138.86014600000001,
            "value": 0.6456692913385826
          },
          {
            "number": 11,
            "ticks": 15112,
            "time": 138.89691066666668,
            "value": 0.6062992125984252
          },
          {
            "number": 11,
            "ticks": 15115,
            "time": 138.92448416666667,
            "value": 0.5748031496062992
          },
          {
            "number": 11,
            "ticks": 15119,
            "time": 138.96124883333334,
            "value": 0.5354330708661418
          },
          {
            "number": 11,
            "ticks": 15122,
            "time": 138.98882233333333,
            "value": 0.49606299212598426
          },
          {
            "number": 11,
            "ticks": 15126,
            "time": 139.025587,
            "value": 0.4566929133858268
          },
          {
            "number": 11,
            "ticks": 15146,
            "time": 139.20941033333335,
            "value": 0.7795275590551181
          },
          {
            "number": 11,
            "ticks": 15409,
            "time": 141.6266871666667,
            "value": 0.7795275590551181
          },
          {
            "number": 11,
            "ticks": 16298,
            "time": 149.79763433333335,
            "value": 0.6456692913385826
          },
          {
            "number": 11,
            "ticks": 16300,
            "time": 149.81601666666668,
            "value": 0.6141732283464567
          },
          {
            "number": 11,
            "ticks": 16302,
            "time": 149.834399,
            "value": 0.5748031496062992
          },
          {
            "number": 11,
            "ticks": 16304,
            "time": 149.85278133333335,
            "value": 0.5433070866141733
          },
          {
            "number": 11,
            "ticks": 16307,
            "time": 149.88035483333334,
            "value": 0.5039370078740157
          },
          {
            "number": 11,
            "ticks": 16309,
            "time": 149.89873716666668,
            "value": 0.47244094488188976
          },
          {
            "number": 11,
            "ticks": 16311,
            "time": 149.9171195,
            "value": 0.4330708661417323
          },
          {
            "number": 11,
            "ticks": 16313,
            "time": 149.93550183333335,
            "value": 0.3937007874015748
          },
          {
            "number": 11,
            "ticks": 16321,
            "time": 150.0090311666667,
            "value": 0.7795275590551181
          },
          {
            "number": 11,
            "ticks": 16634,
            "time": 152.88586633333335,
            "value": 0.6456692913385826
          },
          {
            "number": 11,
            "ticks": 16636,
            "time": 152.9042486666667,
            "value": 0.6141732283464567
          },
          {
            "number": 11,
            "ticks": 16638,
            "time": 152.922631,
            "value": 0.5748031496062992
          },
          {
            "number": 11,
            "ticks": 16640,
            "time": 152.94101333333336,
            "value": 0.5433070866141733
          },
          {
            "number": 11,
            "ticks": 16643,
            "time": 152.96858683333335,
            "value": 0.5039370078740157
          },
          {
            "number": 11,
            "ticks": 16645,
            "time": 152.98696916666668,
            "value": 0.47244094488188976
          },
          {
            "number": 11,
            "ticks": 16647,
            "time": 153.00535150000002,
            "value": 0.4330708661417323
          },
          {
            "number": 11,
            "ticks": 16649,
            "time": 153.02373383333335,
            "value": 0.3937007874015748
          },
          {
            "number": 11,
            "ticks": 16681,
            "time": 153.31785116666669,
            "value": 0.7795275590551181
          },
          {
            "number": 11,
            "ticks": 16919,
            "time": 155.50534883333336,
            "value": 0.7165354330708661
          },
          {
            "number": 11,
            "ticks": 16921,
            "time": 155.5237311666667,
            "value": 0.6850393700787402
          },
          {
            "number": 11,
            "ticks": 16923,
            "time": 155.5421135,
            "value": 0.6456692913385826
          },
          {
            "number": 11,
            "ticks": 16925,
            "time": 155.56049583333333,
            "value": 0.6141732283464567
          },
          {
            "number": 11,
            "ticks": 16927,
            "time": 155.5788781666667,
            "value": 0.5748031496062992
          },
          {
            "number": 11,
            "ticks": 16943,
            "time": 155.72593683333335,
            "value": 0.7795275590551181
          },
          {
            "number": 11,
            "ticks": 17373,
            "time": 159.67813850000002,
            "value": 0.7244094488188977
          },
          {
            "number": 11,
            "ticks": 17375,
            "time": 159.69652083333335,
            "value": 0.6850393700787402
          },
          {
            "number": 11,
            "ticks": 17377,
            "time": 159.7149031666667,
            "value": 0.6456692913385826
          },
          {
            "number": 11,
            "ticks": 17379,
            "time": 159.7332855,
            "value": 0.6062992125984252
          },
          {
            "number": 11,
            "ticks": 17402,
            "time": 159.94468233333333,
            "value": 0.7795275590551181
          },
          {
            "number": 11,
            "ticks": 17495,
            "time": 160.79946083333334,
            "value": 0.7401574803149606
          },
          {
            "number": 11,
            "ticks": 17497,
            "time": 160.81784316666668,
            "value": 0.7244094488188977
          },
          {
            "number": 11,
            "ticks": 17499,
            "time": 160.8362255,
            "value": 0.7007874015748031
          },
          {
            "number": 11,
            "ticks": 17501,
            "time": 160.85460783333335,
            "value": 0.6850393700787402
          },
          {
            "number": 11,
            "ticks": 17503,
            "time": 160.87299016666668,
            "value": 0.6614173228346457
          },
          {
            "number": 11,
            "ticks": 17505,
            "time": 160.89137250000002,
            "value": 0.6377952755905512
          },
          {
            "number": 11,
            "ticks": 17521,
            "time": 161.0384311666667,
            "value": 0.7795275590551181
          },
          {
            "number": 11,
            "ticks": 18455,
            "time": 169.62298083333334,
            "value": 0.7165354330708661
          },
          {
            "number": 11,
            "ticks": 18457,
            "time": 169.64136316666668,
            "value": 0.6850393700787402
          },
          {
            "number": 11,
            "ticks": 18459,
            "time": 169.6597455,
            "value": 0.6456692913385826
          },
          {
            "number": 11,
            "ticks": 18461,
            "time": 169.67812783333335,
            "value": 0.6141732283464567
          },
          {
            "number": 11,
            "ticks": 18479,
            "time": 169.84356883333334,
            "value": 0.7795275590551181
          },
          {
            "number": 11,
            "ticks": 18554,
            "time": 170.53290633333336,
            "value": 0.7559055118110236
          },
          {
            "number": 11,
            "ticks": 18556,
            "time": 170.5512886666667,
            "value": 0.7244094488188977
          },
          {
            "number": 11,
            "ticks": 18559,
            "time": 170.57886216666668,
            "value": 0.6850393700787402
          },
          {
            "number": 11,
            "ticks": 18562,
            "time": 170.6064356666667,
            "value": 0.6535433070866141
          },
          {
            "number": 11,
            "ticks": 18564,
            "time": 170.624818,
            "value": 0.6141732283464567
          },
          {
            "number": 11,
            "ticks": 18567,
            "time": 170.6523915,
            "value": 0.5748031496062992
          },
          {
            "number": 11,
            "ticks": 18570,
            "time": 170.679965,
            "value": 0.5433070866141733
          },
          {
            "number": 11,
            "ticks": 18572,
            "time": 170.69834733333334,
            "value": 0.5039370078740157
          },
          {
            "number": 11,
            "ticks": 18575,
            "time": 170.72592083333333,
            "value": 0.4645669291338583
          },
          {
            "number": 11,
            "ticks": 18578,
            "time": 170.75349433333335,
            "value": 0.4330708661417323
          },
          {
            "number": 11,
            "ticks": 18580,
            "time": 170.77187666666669,
            "value": 0.3937007874015748
          },
          {
            "number": 11,
            "ticks": 18583,
            "time": 170.7994501666667,
            "value": 0.3543307086614173
          },
          {
            "number": 11,
            "ticks": 18601,
            "time": 170.9648911666667,
            "value": 0.7795275590551181
          },
          {
            "number": 11,
            "ticks": 19121,
            "time": 175.74429783333335,
            "value": 0.7244094488188977
          },
          {
            "number": 11,
            "ticks": 19123,
            "time": 175.76268016666668,
            "value": 0.6850393700787402
          },
          {
            "number": 11,
            "ticks": 19125,
            "time": 175.78106250000002,
            "value": 0.6456692913385826
          },
          {
            "number": 11,
            "ticks": 19127,
            "time": 175.79944483333335,
            "value": 0.6062992125984252
          },
          {
            "number": 11,
            "ticks": 19130,
            "time": 175.82701833333334,
            "value": 0.7795275590551181
          },
          {
            "number": 11,
            "ticks": 19706,
            "time": 181.12113033333335,
            "value": 0.6456692913385826
          },
          {
            "number": 11,
            "ticks": 19708,
            "time": 181.1395126666667,
            "value": 0.6141732283464567
          },
          {
            "number": 11,
            "ticks": 19710,
            "time": 181.157895,
            "value": 0.5748031496062992
          },
          {
            "number": 11,
            "ticks": 19712,
            "time": 181.17627733333336,
            "value": 0.5433070866141733
          },
          {
            "number": 11,
            "ticks": 19715,
            "time": 181.20385083333335,
            "value": 0.5039370078740157
          },
          {
            "number": 11,
            "ticks": 19717,
            "time": 181.22223316666668,
            "value": 0.47244094488188976
          },
          {
            "number": 11,
            "ticks": 19719,
            "time": 181.24061550000002,
            "value": 0.4330708661417323
          },
          {
            "number": 11,
            "ticks": 19721,
            "time": 181.25899783333335,
            "value": 0.3937007874015748
          },
          {
            "number": 11,
            "ticks": 19753,
            "time": 181.5531151666667,
            "value": 0.7795275590551181
          },
          {
            "number": 11,
            "ticks": 19991,
            "time": 183.74061283333336,
            "value": 0.7165354330708661
          },
          {
            "number": 11,
            "ticks": 19993,
            "time": 183.7589951666667,
            "value": 0.6850393700787402
          },
          {
            "number": 11,
            "ticks": 19995,
            "time": 183.7773775,
            "value": 0.6456692913385826
          },
          {
            "number": 11,
            "ticks": 19997,
            "time": 183.79575983333334,
            "value": 0.6141732283464567
          },
          {
            "number": 11,
            "ticks": 19999,
            "time": 183.8141421666667,
            "value": 0.5748031496062992
          },
          {
            "number": 11,
            "ticks": 20015,
            "time": 183.96120083333335,
            "value": 0.7795275590551181
          },
          {
            "number": 11,
            "ticks": 20445,
            "time": 187.91340250000002,
            "value": 0.7244094488188977
          },
          {
            "number": 11,
            "ticks": 20447,
            "time": 187.93178483333335,
            "value": 0.6850393700787402
          },
          {
            "number": 11,
            "ticks": 20449,
            "time": 187.9501671666667,
            "value": 0.6456692913385826
          },
          {
            "number": 11,
            "ticks": 20451,
            "time": 187.9685495,
            "value": 0.6062992125984252
          },
          {
            "number": 11,
            "ticks": 20474,
            "time": 188.17994633333333,
            "value": 0.7795275590551181
          },
          {
            "number": 11,
            "ticks": 20567,
            "time": 189.03472483333334,
            "value": 0.7401574803149606
          },
          {
            "number": 11,
            "ticks": 20569,
            "time": 189.05310716666668,
            "value": 0.7244094488188977
          },
          {
            "number": 11,
            "ticks": 20571,
            "time": 189.0714895,
            "value": 0.7007874015748031
          },
          {
            "number": 11,
            "ticks": 20573,
            "time": 189.08987183333335,
            "value": 0.6850393700787402
          },
          {
            "number": 11,
            "ticks": 20575,
            "time": 189.10825416666668,
            "value": 0.6614173228346457
          },
          {
            "number": 11,
            "ticks": 20577,
            "time": 189.12663650000002,
            "value": 0.6377952755905512
          },
          {
            "number": 11,
            "ticks": 20593,
            "time": 189.2736951666667,
            "value": 0.7795275590551181
          },
          {
            "number": 11,
            "ticks": 21335,
            "time": 196.09354083333335,
            "value": 0.7401574803149606
          },
          {
            "number": 11,
            "ticks": 21337,
            "time": 196.11192316666668,
            "value": 0.7244094488188977
          },
          {
            "number": 11,
            "ticks": 21339,
            "time": 196.1303055,
            "value": 0.7007874015748031
          },
          {
            "number": 11,
            "ticks": 21341,
            "time": 196.14868783333336,
            "value": 0.6850393700787402
          },
          {
            "number": 11,
            "ticks": 21343,
            "time": 196.1670701666667,
            "value": 0.6614173228346457
          },
          {
            "number": 11,
            "ticks": 21345,
            "time": 196.1854525,
            "value": 0.6377952755905512
          },
          {
            "number": 11,
            "ticks": 21361,
            "time": 196.33251116666668,
            "value": 0.7795275590551181
          },
          {
            "number": 11,
            "ticks": 21842,
            "time": 200.75346233333335,
            "value": 0.7637795275590551
          },
          {
            "number": 11,
            "ticks": 21844,
            "time": 200.77184466666668,
            "value": 0.7401574803149606
          },
          {
            "number": 11,
            "ticks": 21846,
            "time": 200.79022700000002,
            "value": 0.7086614173228346
          },
          {
            "number": 11,
            "ticks": 21848,
            "time": 200.80860933333335,
            "value": 0.6771653543307087
          },
          {
            "number": 11,
            "ticks": 21850,
            "time": 200.8269916666667,
            "value": 0.6456692913385826
          },
          {
            "number": 11,
            "ticks": 21852,
            "time": 200.845374,
            "value": 0.6141732283464567
          },
          {
            "number": 11,
            "ticks": 21854,
            "time": 200.86375633333336,
            "value": 0.5826771653543307
          },
          {
            "number": 11,
            "ticks": 21856,
            "time": 200.8821386666667,
            "value": 0.5511811023622047
          },
          {
            "number": 11,
            "ticks": 21858,
            "time": 200.900521,
            "value": 0.5196850393700787
          },
          {
            "number": 11,
            "ticks": 21860,
            "time": 200.91890333333336,
            "value": 0.49606299212598426
          },
          {
            "number": 11,
            "ticks": 21862,
            "time": 200.9372856666667,
            "value": 0.4645669291338583
          },
          {
            "number": 11,
            "ticks": 21864,
            "time": 200.955668,
            "value": 0.4330708661417323
          },
          {
            "number": 11,
            "ticks": 21866,
            "time": 200.97405033333334,
            "value": 0.4015748031496063
          },
          {
            "number": 11,
            "ticks": 21868,
            "time": 200.9924326666667,
            "value": 0.3700787401574803
          },
          {
            "number": 11,
            "ticks": 21870,
            "time": 201.010815,
            "value": 0.33858267716535434
          },
          {
            "number": 11,
            "ticks": 21872,
            "time": 201.02919733333334,
            "value": 0.30708661417322836
          },
          {
            "number": 11,
            "ticks": 21874,
            "time": 201.04757966666668,
            "value": 0.2755905511811024
          },
          {
            "number": 11,
            "ticks": 21876,
            "time": 201.065962,
            "value": 0.2440944881889764
          },
          {
            "number": 11,
            "ticks": 21890,
            "time": 201.19463833333336,
            "value": 0.7795275590551181
          },
          {
            "number": 11,
            "ticks": 22010,
            "time": 202.29757833333335,
            "value": 0.7559055118110236
          },
          {
            "number": 11,
            "ticks": 22013,
            "time": 202.32515183333334,
            "value": 0.7244094488188977
          },
          {
            "number": 11,
            "ticks": 22017,
            "time": 202.3619165,
            "value": 0.6850393700787402
          },
          {
            "number": 11,
            "ticks": 22020,
            "time": 202.38949,
            "value": 0.6456692913385826
          },
          {
            "number": 11,
            "ticks": 22024,
            "time": 202.4262546666667,
            "value": 0.6062992125984252
          },
          {
            "number": 11,
            "ticks": 22027,
            "time": 202.45382816666668,
            "value": 0.5748031496062992
          },
          {
            "number": 11,
            "ticks": 22031,
            "time": 202.49059283333335,
            "value": 0.5354330708661418
          },
          {
            "number": 11,
            "ticks": 22034,
            "time": 202.51816633333334,
            "value": 0.49606299212598426
          },
          {
            "number": 11,
            "ticks": 22038,
            "time": 202.554931,
            "value": 0.4566929133858268
          },
          {
            "number": 11,
            "ticks": 22058,
            "time": 202.73875433333336,
            "value": 0.7795275590551181
          },
          {
            "number": 11,
            "ticks": 22303,
            "time": 204.9905901666667,
            "value": 0.7559055118110236
          },
          {
            "number": 11,
            "ticks": 22305,
            "time": 205.0089725,
            "value": 0.7244094488188977
          },
          {
            "number": 11,
            "ticks": 22307,
            "time": 205.02735483333333,
            "value": 0.6929133858267716
          },
          {
            "number": 11,
            "ticks": 22309,
            "time": 205.0457371666667,
            "value": 0.6614173228346457
          },
          {
            "number": 11,
            "ticks": 22311,
            "time": 205.0641195,
            "value": 0.6299212598425197
          },
          {
            "number": 11,
            "ticks": 22313,
            "time": 205.08250183333334,
            "value": 0.5905511811023622
          },
          {
            "number": 11,
            "ticks": 22322,
            "time": 205.16522233333336,
            "value": 0.7795275590551181
          }
        ],
        "71": [
          {
            "number": 71,
            "ticks": 178,
            "time": 1.6360276666666669,
            "value": 0.5039370078740157
          },
          {
            "number": 71,
            "ticks": 14808,
            "time": 136.102796,
            "value": 0.5039370078740157
          }
        ],
        "74": [
          {
            "number": 74,
            "ticks": 177,
            "time": 1.6268365,
            "value": 0.5039370078740157
          },
          {
            "number": 74,
            "ticks": 14774,
            "time": 135.79029633333334,
            "value": 0.5039370078740157
          }
        ],
        "91": [
          {
            "number": 91,
            "ticks": 174,
            "time": 1.599263,
            "value": 0.47244094488188976
          }
        ],
        "93": [
          {
            "number": 93,
            "ticks": 175,
            "time": 1.6084541666666667,
            "value": 0.2204724409448819
          }
        ],
        "94": [
          {
            "number": 94,
            "ticks": 176,
            "time": 1.6176453333333334,
            "value": 0
          }
        ],
        "100": [
          {
            "number": 100,
            "ticks": 180,
            "time": 1.65441,
            "value": 0
          }
        ],
        "101": [
          {
            "number": 101,
            "ticks": 179,
            "time": 1.6452188333333333,
            "value": 0
          }
        ]
      },
      "pitchBends": [
        {
          "ticks": 191,
          "time": 1.7555128333333334,
          "value": 0.010986328125
        },
        {
          "ticks": 1226,
          "time": 11.268370333333333,
          "value": -0.155517578125
        },
        {
          "ticks": 1228,
          "time": 11.286752666666668,
          "value": -0.124267578125
        },
        {
          "ticks": 1230,
          "time": 11.305135,
          "value": -0.09033203125
        },
        {
          "ticks": 1232,
          "time": 11.323517333333335,
          "value": -0.0562744140625
        },
        {
          "ticks": 1234,
          "time": 11.341899666666666,
          "value": -0.022216796875
        },
        {
          "ticks": 1236,
          "time": 11.360282000000002,
          "value": 0.010986328125
        },
        {
          "ticks": 1274,
          "time": 11.709546333333332,
          "value": -0.031982421875
        },
        {
          "ticks": 1276,
          "time": 11.727928666666667,
          "value": -0.0794677734375
        },
        {
          "ticks": 1279,
          "time": 11.755502166666666,
          "value": -0.126953125
        },
        {
          "ticks": 1281,
          "time": 11.773884500000001,
          "value": -0.174560546875
        },
        {
          "ticks": 1284,
          "time": 11.801458,
          "value": -0.2220458984375
        },
        {
          "ticks": 1286,
          "time": 11.819840333333335,
          "value": -0.26953125
        },
        {
          "ticks": 1289,
          "time": 11.847413833333334,
          "value": -0.317138671875
        },
        {
          "ticks": 1320,
          "time": 12.13234,
          "value": 0.010986328125
        },
        {
          "ticks": 1346,
          "time": 12.371310333333334,
          "value": -0.155517578125
        },
        {
          "ticks": 1352,
          "time": 12.426457333333335,
          "value": -0.096923828125
        },
        {
          "ticks": 1354,
          "time": 12.444839666666667,
          "value": -0.04296875
        },
        {
          "ticks": 1357,
          "time": 12.47241316666667,
          "value": 0.010986328125
        },
        {
          "ticks": 1610,
          "time": 14.797778333333333,
          "value": -0.072265625
        },
        {
          "ticks": 1612,
          "time": 14.816160666666669,
          "value": -0.052734375
        },
        {
          "ticks": 1614,
          "time": 14.834543,
          "value": -0.0400390625
        },
        {
          "ticks": 1616,
          "time": 14.852925333333335,
          "value": -0.02734375
        },
        {
          "ticks": 1618,
          "time": 14.871307666666667,
          "value": -0.0145263671875
        },
        {
          "ticks": 1620,
          "time": 14.889690000000002,
          "value": -0.0018310546875
        },
        {
          "ticks": 1622,
          "time": 14.908072333333333,
          "value": 0.010986328125
        },
        {
          "ticks": 1706,
          "time": 15.680130333333334,
          "value": -0.155517578125
        },
        {
          "ticks": 1710,
          "time": 15.716895000000001,
          "value": -0.096923828125
        },
        {
          "ticks": 1713,
          "time": 15.7444685,
          "value": -0.04296875
        },
        {
          "ticks": 1716,
          "time": 15.772041999999999,
          "value": 0.010986328125
        },
        {
          "ticks": 1778,
          "time": 16.341894333333332,
          "value": -0.155517578125
        },
        {
          "ticks": 1782,
          "time": 16.378659000000003,
          "value": -0.096923828125
        },
        {
          "ticks": 1785,
          "time": 16.4062325,
          "value": -0.04296875
        },
        {
          "ticks": 1788,
          "time": 16.433806,
          "value": 0.010986328125
        },
        {
          "ticks": 1874,
          "time": 17.224246333333333,
          "value": -0.155517578125
        },
        {
          "ticks": 1882,
          "time": 17.297775666666666,
          "value": -0.096923828125
        },
        {
          "ticks": 1885,
          "time": 17.325349166666665,
          "value": -0.04296875
        },
        {
          "ticks": 1888,
          "time": 17.352922666666664,
          "value": 0.010986328125
        },
        {
          "ticks": 2013,
          "time": 18.501818500000002,
          "value": -0.072265625
        },
        {
          "ticks": 2014,
          "time": 18.511009666666666,
          "value": -0.155517578125
        },
        {
          "ticks": 2016,
          "time": 18.529392,
          "value": -0.23876953125
        },
        {
          "ticks": 2017,
          "time": 18.538583166666665,
          "value": -0.322021484375
        },
        {
          "ticks": 2018,
          "time": 18.547774333333336,
          "value": -0.4052734375
        },
        {
          "ticks": 2019,
          "time": 18.556965500000004,
          "value": -0.57177734375
        },
        {
          "ticks": 2041,
          "time": 18.75917116666667,
          "value": 0.010986328125
        },
        {
          "ticks": 2162,
          "time": 19.871302333333336,
          "value": -0.072265625
        },
        {
          "ticks": 2168,
          "time": 19.926449333333334,
          "value": -0.052734375
        },
        {
          "ticks": 2171,
          "time": 19.954022833333333,
          "value": -0.0400390625
        },
        {
          "ticks": 2174,
          "time": 19.981596333333336,
          "value": -0.02734375
        },
        {
          "ticks": 2177,
          "time": 20.009169833333335,
          "value": -0.0145263671875
        },
        {
          "ticks": 2180,
          "time": 20.036743333333334,
          "value": -0.0018310546875
        },
        {
          "ticks": 2183,
          "time": 20.064316833333336,
          "value": 0.010986328125
        },
        {
          "ticks": 2354,
          "time": 21.636006333333334,
          "value": 0.09423828125
        },
        {
          "ticks": 2376,
          "time": 21.838212000000002,
          "value": 0.010986328125
        },
        {
          "ticks": 2809,
          "time": 25.81798716666667,
          "value": -0.155517578125
        },
        {
          "ticks": 2813,
          "time": 25.854751833333335,
          "value": -0.096923828125
        },
        {
          "ticks": 2815,
          "time": 25.873134166666667,
          "value": -0.04296875
        },
        {
          "ticks": 2817,
          "time": 25.8915165,
          "value": 0.010986328125
        },
        {
          "ticks": 2861,
          "time": 26.295927833333334,
          "value": -0.0159912109375
        },
        {
          "ticks": 2863,
          "time": 26.31431016666667,
          "value": -0.04296875
        },
        {
          "ticks": 2865,
          "time": 26.332692500000004,
          "value": -0.0159912109375
        },
        {
          "ticks": 2867,
          "time": 26.351074833333335,
          "value": 0.010986328125
        },
        {
          "ticks": 3001,
          "time": 27.582691166666667,
          "value": -0.155517578125
        },
        {
          "ticks": 3005,
          "time": 27.619455833333333,
          "value": -0.096923828125
        },
        {
          "ticks": 3008,
          "time": 27.647029333333336,
          "value": -0.04296875
        },
        {
          "ticks": 3011,
          "time": 27.674602833333335,
          "value": 0.010986328125
        },
        {
          "ticks": 3073,
          "time": 28.24445516666667,
          "value": -0.155517578125
        },
        {
          "ticks": 3097,
          "time": 28.465043166666668,
          "value": 0.010986328125
        },
        {
          "ticks": 3146,
          "time": 28.915410333333334,
          "value": -0.072265625
        },
        {
          "ticks": 3168,
          "time": 29.117616,
          "value": -0.04296875
        },
        {
          "ticks": 3170,
          "time": 29.135998333333337,
          "value": -0.0159912109375
        },
        {
          "ticks": 3172,
          "time": 29.15438066666667,
          "value": 0.010986328125
        },
        {
          "ticks": 3262,
          "time": 29.981585666666668,
          "value": 0.343994140625
        },
        {
          "ticks": 3266,
          "time": 30.018350333333334,
          "value": 0.010986328125
        },
        {
          "ticks": 3320,
          "time": 30.514673333333334,
          "value": 0.177490234375
        },
        {
          "ticks": 3338,
          "time": 30.680114333333336,
          "value": 0.010986328125
        },
        {
          "ticks": 3577,
          "time": 32.87680316666667,
          "value": -0.155517578125
        },
        {
          "ticks": 3581,
          "time": 32.91356783333333,
          "value": -0.096923828125
        },
        {
          "ticks": 3583,
          "time": 32.93195016666667,
          "value": -0.04296875
        },
        {
          "ticks": 3585,
          "time": 32.950332499999995,
          "value": 0.010986328125
        },
        {
          "ticks": 3625,
          "time": 33.31797916666667,
          "value": -0.072265625
        },
        {
          "ticks": 3629,
          "time": 33.35474383333333,
          "value": -0.04296875
        },
        {
          "ticks": 3631,
          "time": 33.373126166666665,
          "value": -0.0159912109375
        },
        {
          "ticks": 3633,
          "time": 33.3915085,
          "value": 0.010986328125
        },
        {
          "ticks": 3769,
          "time": 34.64150716666667,
          "value": -0.155517578125
        },
        {
          "ticks": 3773,
          "time": 34.67827183333333,
          "value": -0.096923828125
        },
        {
          "ticks": 3776,
          "time": 34.705845333333336,
          "value": -0.04296875
        },
        {
          "ticks": 3779,
          "time": 34.73341883333334,
          "value": 0.010986328125
        },
        {
          "ticks": 3841,
          "time": 35.30327116666667,
          "value": -0.155517578125
        },
        {
          "ticks": 3866,
          "time": 35.533050333333335,
          "value": 0.010986328125
        },
        {
          "ticks": 3914,
          "time": 35.974226333333334,
          "value": -0.1138916015625
        },
        {
          "ticks": 3916,
          "time": 35.99260866666667,
          "value": -0.0699462890625
        },
        {
          "ticks": 3918,
          "time": 36.010991,
          "value": -0.0294189453125
        },
        {
          "ticks": 3920,
          "time": 36.02937333333333,
          "value": 0.010986328125
        },
        {
          "ticks": 4153,
          "time": 38.170915166666674,
          "value": -0.072265625
        },
        {
          "ticks": 4157,
          "time": 38.20767983333334,
          "value": -0.04296875
        },
        {
          "ticks": 4159,
          "time": 38.22606216666667,
          "value": -0.0159912109375
        },
        {
          "ticks": 4161,
          "time": 38.2444445,
          "value": 0.010986328125
        },
        {
          "ticks": 4201,
          "time": 38.61209116666667,
          "value": -0.072265625
        },
        {
          "ticks": 4205,
          "time": 38.648855833333336,
          "value": -0.04296875
        },
        {
          "ticks": 4207,
          "time": 38.66723816666667,
          "value": -0.0159912109375
        },
        {
          "ticks": 4209,
          "time": 38.6856205,
          "value": 0.010986328125
        },
        {
          "ticks": 4946,
          "time": 45.459510333333334,
          "value": -0.072265625
        },
        {
          "ticks": 4948,
          "time": 45.47789266666667,
          "value": -0.04296875
        },
        {
          "ticks": 4951,
          "time": 45.50546616666667,
          "value": -0.0159912109375
        },
        {
          "ticks": 4954,
          "time": 45.533039666666674,
          "value": 0.010986328125
        },
        {
          "ticks": 5474,
          "time": 50.312446333333334,
          "value": -0.57177734375
        },
        {
          "ticks": 5498,
          "time": 50.53303433333333,
          "value": 0.010986328125
        },
        {
          "ticks": 5618,
          "time": 51.63597433333334,
          "value": -0.1138916015625
        },
        {
          "ticks": 5621,
          "time": 51.66354783333333,
          "value": -0.0699462890625
        },
        {
          "ticks": 5624,
          "time": 51.691121333333335,
          "value": -0.0294189453125
        },
        {
          "ticks": 5627,
          "time": 51.71869483333334,
          "value": 0.010986328125
        },
        {
          "ticks": 5714,
          "time": 52.518326333333334,
          "value": -0.155517578125
        },
        {
          "ticks": 5737,
          "time": 52.72972316666667,
          "value": 0.010986328125
        },
        {
          "ticks": 6554,
          "time": 60.23890633333333,
          "value": -0.155517578125
        },
        {
          "ticks": 6555,
          "time": 60.24809750000001,
          "value": -0.096923828125
        },
        {
          "ticks": 6556,
          "time": 60.25728866666667,
          "value": -0.04296875
        },
        {
          "ticks": 6557,
          "time": 60.266479833333335,
          "value": 0.010986328125
        },
        {
          "ticks": 6602,
          "time": 60.68008233333334,
          "value": -0.155517578125
        },
        {
          "ticks": 6604,
          "time": 60.698464666666666,
          "value": -0.124267578125
        },
        {
          "ticks": 6606,
          "time": 60.71684700000001,
          "value": -0.09033203125
        },
        {
          "ticks": 6608,
          "time": 60.735229333333336,
          "value": -0.0562744140625
        },
        {
          "ticks": 6610,
          "time": 60.753611666666664,
          "value": -0.022216796875
        },
        {
          "ticks": 6612,
          "time": 60.77199400000001,
          "value": 0.010986328125
        },
        {
          "ticks": 6698,
          "time": 61.562434333333336,
          "value": -0.155517578125
        },
        {
          "ticks": 6700,
          "time": 61.580816666666664,
          "value": -0.096923828125
        },
        {
          "ticks": 6702,
          "time": 61.599199000000006,
          "value": -0.04296875
        },
        {
          "ticks": 6705,
          "time": 61.62677250000001,
          "value": 0.010986328125
        },
        {
          "ticks": 6722,
          "time": 61.783022333333335,
          "value": -0.155517578125
        },
        {
          "ticks": 6728,
          "time": 61.83816933333333,
          "value": -0.096923828125
        },
        {
          "ticks": 6730,
          "time": 61.85655166666667,
          "value": -0.04296875
        },
        {
          "ticks": 6733,
          "time": 61.884125166666664,
          "value": 0.010986328125
        },
        {
          "ticks": 6770,
          "time": 62.224198333333334,
          "value": -0.155517578125
        },
        {
          "ticks": 6773,
          "time": 62.251771833333336,
          "value": -0.096923828125
        },
        {
          "ticks": 6775,
          "time": 62.270154166666664,
          "value": -0.04296875
        },
        {
          "ticks": 6778,
          "time": 62.29772766666667,
          "value": 0.010986328125
        },
        {
          "ticks": 6943,
          "time": 63.81427016666667,
          "value": -0.022216796875
        },
        {
          "ticks": 6945,
          "time": 63.83265250000001,
          "value": -0.096923828125
        },
        {
          "ticks": 6947,
          "time": 63.85103483333334,
          "value": -0.171630859375
        },
        {
          "ticks": 6949,
          "time": 63.869417166666665,
          "value": -0.246337890625
        },
        {
          "ticks": 6951,
          "time": 63.88779950000001,
          "value": -0.322021484375
        },
        {
          "ticks": 6962,
          "time": 63.988902333333336,
          "value": 0.010986328125
        },
        {
          "ticks": 6986,
          "time": 64.20949033333333,
          "value": -0.072265625
        },
        {
          "ticks": 6988,
          "time": 64.22787266666666,
          "value": -0.052734375
        },
        {
          "ticks": 6990,
          "time": 64.246255,
          "value": -0.0400390625
        },
        {
          "ticks": 6992,
          "time": 64.26463733333333,
          "value": -0.02734375
        },
        {
          "ticks": 6994,
          "time": 64.28301966666666,
          "value": -0.0145263671875
        },
        {
          "ticks": 6996,
          "time": 64.30140200000001,
          "value": -0.0018310546875
        },
        {
          "ticks": 6998,
          "time": 64.31978433333333,
          "value": 0.010986328125
        },
        {
          "ticks": 7082,
          "time": 65.09184233333333,
          "value": -0.155517578125
        },
        {
          "ticks": 7086,
          "time": 65.128607,
          "value": -0.096923828125
        },
        {
          "ticks": 7089,
          "time": 65.1561805,
          "value": -0.04296875
        },
        {
          "ticks": 7092,
          "time": 65.18375400000001,
          "value": 0.010986328125
        },
        {
          "ticks": 7154,
          "time": 65.75360633333334,
          "value": -0.155517578125
        },
        {
          "ticks": 7158,
          "time": 65.790371,
          "value": -0.096923828125
        },
        {
          "ticks": 7161,
          "time": 65.8179445,
          "value": -0.04296875
        },
        {
          "ticks": 7164,
          "time": 65.845518,
          "value": 0.010986328125
        },
        {
          "ticks": 7250,
          "time": 66.63595833333333,
          "value": -0.155517578125
        },
        {
          "ticks": 7253,
          "time": 66.66353183333332,
          "value": -0.096923828125
        },
        {
          "ticks": 7256,
          "time": 66.69110533333333,
          "value": -0.04296875
        },
        {
          "ticks": 7259,
          "time": 66.71867883333333,
          "value": 0.010986328125
        },
        {
          "ticks": 7562,
          "time": 69.50360233333333,
          "value": -0.155517578125
        },
        {
          "ticks": 7564,
          "time": 69.52198466666665,
          "value": -0.096923828125
        },
        {
          "ticks": 7566,
          "time": 69.540367,
          "value": -0.04296875
        },
        {
          "ticks": 7569,
          "time": 69.5679405,
          "value": 0.010986328125
        },
        {
          "ticks": 7682,
          "time": 70.60654233333332,
          "value": -0.155517578125
        },
        {
          "ticks": 7685,
          "time": 70.63411583333333,
          "value": -0.096923828125
        },
        {
          "ticks": 7688,
          "time": 70.66168933333333,
          "value": -0.04296875
        },
        {
          "ticks": 7691,
          "time": 70.68926283333333,
          "value": 0.010986328125
        },
        {
          "ticks": 7922,
          "time": 72.81242233333333,
          "value": -0.155517578125
        },
        {
          "ticks": 7944,
          "time": 73.014628,
          "value": 0.010986328125
        },
        {
          "ticks": 8138,
          "time": 74.79771433333333,
          "value": -0.155517578125
        },
        {
          "ticks": 8140,
          "time": 74.81609666666665,
          "value": -0.124267578125
        },
        {
          "ticks": 8142,
          "time": 74.834479,
          "value": -0.09033203125
        },
        {
          "ticks": 8144,
          "time": 74.85286133333332,
          "value": -0.0562744140625
        },
        {
          "ticks": 8146,
          "time": 74.87124366666666,
          "value": -0.022216796875
        },
        {
          "ticks": 8148,
          "time": 74.889626,
          "value": 0.010986328125
        },
        {
          "ticks": 8186,
          "time": 75.23889033333333,
          "value": -0.031982421875
        },
        {
          "ticks": 8188,
          "time": 75.25727266666667,
          "value": -0.0794677734375
        },
        {
          "ticks": 8191,
          "time": 75.28484616666665,
          "value": -0.126953125
        },
        {
          "ticks": 8193,
          "time": 75.3032285,
          "value": -0.174560546875
        },
        {
          "ticks": 8196,
          "time": 75.330802,
          "value": -0.2220458984375
        },
        {
          "ticks": 8198,
          "time": 75.34918433333333,
          "value": -0.26953125
        },
        {
          "ticks": 8201,
          "time": 75.37675783333333,
          "value": -0.317138671875
        },
        {
          "ticks": 8232,
          "time": 75.661684,
          "value": 0.010986328125
        },
        {
          "ticks": 8258,
          "time": 75.90065433333334,
          "value": -0.155517578125
        },
        {
          "ticks": 8264,
          "time": 75.95580133333333,
          "value": -0.096923828125
        },
        {
          "ticks": 8266,
          "time": 75.97418366666666,
          "value": -0.04296875
        },
        {
          "ticks": 8269,
          "time": 76.00175716666666,
          "value": 0.010986328125
        },
        {
          "ticks": 8522,
          "time": 78.32712233333334,
          "value": -0.072265625
        },
        {
          "ticks": 8524,
          "time": 78.34550466666666,
          "value": -0.052734375
        },
        {
          "ticks": 8526,
          "time": 78.363887,
          "value": -0.0400390625
        },
        {
          "ticks": 8528,
          "time": 78.38226933333333,
          "value": -0.02734375
        },
        {
          "ticks": 8530,
          "time": 78.40065166666666,
          "value": -0.0145263671875
        },
        {
          "ticks": 8532,
          "time": 78.419034,
          "value": -0.0018310546875
        },
        {
          "ticks": 8534,
          "time": 78.43741633333333,
          "value": 0.010986328125
        },
        {
          "ticks": 8618,
          "time": 79.20947433333333,
          "value": -0.155517578125
        },
        {
          "ticks": 8622,
          "time": 79.246239,
          "value": -0.096923828125
        },
        {
          "ticks": 8625,
          "time": 79.2738125,
          "value": -0.04296875
        },
        {
          "ticks": 8628,
          "time": 79.301386,
          "value": 0.010986328125
        },
        {
          "ticks": 8690,
          "time": 79.87123833333332,
          "value": -0.155517578125
        },
        {
          "ticks": 8694,
          "time": 79.908003,
          "value": -0.096923828125
        },
        {
          "ticks": 8697,
          "time": 79.9355765,
          "value": -0.04296875
        },
        {
          "ticks": 8700,
          "time": 79.96315,
          "value": 0.010986328125
        },
        {
          "ticks": 8786,
          "time": 80.75359033333334,
          "value": -0.155517578125
        },
        {
          "ticks": 8794,
          "time": 80.82711966666666,
          "value": -0.096923828125
        },
        {
          "ticks": 8797,
          "time": 80.85469316666666,
          "value": -0.04296875
        },
        {
          "ticks": 8800,
          "time": 80.88226666666665,
          "value": 0.010986328125
        },
        {
          "ticks": 8925,
          "time": 82.0311625,
          "value": -0.072265625
        },
        {
          "ticks": 8926,
          "time": 82.04035366666666,
          "value": -0.155517578125
        },
        {
          "ticks": 8928,
          "time": 82.058736,
          "value": -0.23876953125
        },
        {
          "ticks": 8929,
          "time": 82.06792716666666,
          "value": -0.322021484375
        },
        {
          "ticks": 8930,
          "time": 82.07711833333333,
          "value": -0.4052734375
        },
        {
          "ticks": 8931,
          "time": 82.0863095,
          "value": -0.57177734375
        },
        {
          "ticks": 8953,
          "time": 82.28851516666666,
          "value": 0.010986328125
        },
        {
          "ticks": 9074,
          "time": 83.40064633333333,
          "value": -0.072265625
        },
        {
          "ticks": 9080,
          "time": 83.45579333333333,
          "value": -0.052734375
        },
        {
          "ticks": 9083,
          "time": 83.48336683333333,
          "value": -0.0400390625
        },
        {
          "ticks": 9086,
          "time": 83.51094033333332,
          "value": -0.02734375
        },
        {
          "ticks": 9089,
          "time": 83.53851383333333,
          "value": -0.0145263671875
        },
        {
          "ticks": 9092,
          "time": 83.56608733333333,
          "value": -0.0018310546875
        },
        {
          "ticks": 9095,
          "time": 83.59366083333333,
          "value": 0.010986328125
        },
        {
          "ticks": 9266,
          "time": 85.16535033333334,
          "value": 0.09423828125
        },
        {
          "ticks": 9288,
          "time": 85.367556,
          "value": 0.010986328125
        },
        {
          "ticks": 9721,
          "time": 89.34733116666666,
          "value": -0.155517578125
        },
        {
          "ticks": 9723,
          "time": 89.3657135,
          "value": -0.096923828125
        },
        {
          "ticks": 9724,
          "time": 89.37490466666667,
          "value": -0.04296875
        },
        {
          "ticks": 9725,
          "time": 89.38409583333333,
          "value": 0.010986328125
        },
        {
          "ticks": 9773,
          "time": 89.82527183333333,
          "value": -0.0159912109375
        },
        {
          "ticks": 9775,
          "time": 89.84365416666665,
          "value": -0.04296875
        },
        {
          "ticks": 9777,
          "time": 89.8620365,
          "value": -0.0159912109375
        },
        {
          "ticks": 9779,
          "time": 89.88041883333332,
          "value": 0.010986328125
        },
        {
          "ticks": 9913,
          "time": 91.11203516666666,
          "value": -0.155517578125
        },
        {
          "ticks": 9917,
          "time": 91.14879983333333,
          "value": -0.096923828125
        },
        {
          "ticks": 9920,
          "time": 91.17637333333333,
          "value": -0.04296875
        },
        {
          "ticks": 9923,
          "time": 91.20394683333333,
          "value": 0.010986328125
        },
        {
          "ticks": 9985,
          "time": 91.77379916666666,
          "value": -0.155517578125
        },
        {
          "ticks": 10009,
          "time": 91.99438716666666,
          "value": 0.010986328125
        },
        {
          "ticks": 10058,
          "time": 92.44475433333334,
          "value": -0.072265625
        },
        {
          "ticks": 10076,
          "time": 92.61019533333332,
          "value": -0.04296875
        },
        {
          "ticks": 10079,
          "time": 92.63776883333333,
          "value": -0.0159912109375
        },
        {
          "ticks": 10082,
          "time": 92.66534233333333,
          "value": 0.010986328125
        },
        {
          "ticks": 10174,
          "time": 93.51092966666666,
          "value": 0.343994140625
        },
        {
          "ticks": 10178,
          "time": 93.54769433333333,
          "value": 0.010986328125
        },
        {
          "ticks": 10232,
          "time": 94.04401733333333,
          "value": 0.177490234375
        },
        {
          "ticks": 10250,
          "time": 94.20945833333333,
          "value": 0.010986328125
        },
        {
          "ticks": 10489,
          "time": 96.40614716666666,
          "value": -0.155517578125
        },
        {
          "ticks": 10493,
          "time": 96.44291183333333,
          "value": -0.096923828125
        },
        {
          "ticks": 10495,
          "time": 96.46129416666666,
          "value": -0.04296875
        },
        {
          "ticks": 10497,
          "time": 96.4796765,
          "value": 0.010986328125
        },
        {
          "ticks": 10537,
          "time": 96.84732316666665,
          "value": -0.072265625
        },
        {
          "ticks": 10541,
          "time": 96.88408783333333,
          "value": -0.04296875
        },
        {
          "ticks": 10543,
          "time": 96.90247016666666,
          "value": -0.0159912109375
        },
        {
          "ticks": 10545,
          "time": 96.9208525,
          "value": 0.010986328125
        },
        {
          "ticks": 10681,
          "time": 98.17085116666667,
          "value": -0.155517578125
        },
        {
          "ticks": 10685,
          "time": 98.20761583333334,
          "value": -0.096923828125
        },
        {
          "ticks": 10688,
          "time": 98.23518933333332,
          "value": -0.04296875
        },
        {
          "ticks": 10691,
          "time": 98.26276283333333,
          "value": 0.010986328125
        },
        {
          "ticks": 10753,
          "time": 98.83261516666666,
          "value": -0.155517578125
        },
        {
          "ticks": 10778,
          "time": 99.06239433333333,
          "value": 0.010986328125
        },
        {
          "ticks": 10826,
          "time": 99.50357033333333,
          "value": -0.072265625
        },
        {
          "ticks": 10844,
          "time": 99.66901133333333,
          "value": -0.0435791015625
        },
        {
          "ticks": 10846,
          "time": 99.68739366666667,
          "value": -0.0294189453125
        },
        {
          "ticks": 10848,
          "time": 99.705776,
          "value": -0.0091552734375
        },
        {
          "ticks": 10850,
          "time": 99.72415833333334,
          "value": 0.010986328125
        },
        {
          "ticks": 11065,
          "time": 101.70025916666665,
          "value": -0.072265625
        },
        {
          "ticks": 11069,
          "time": 101.73702383333332,
          "value": -0.04296875
        },
        {
          "ticks": 11071,
          "time": 101.75540616666666,
          "value": -0.0159912109375
        },
        {
          "ticks": 11073,
          "time": 101.7737885,
          "value": 0.010986328125
        },
        {
          "ticks": 11113,
          "time": 102.14143516666665,
          "value": -0.072265625
        },
        {
          "ticks": 11117,
          "time": 102.17819983333332,
          "value": -0.04296875
        },
        {
          "ticks": 11119,
          "time": 102.19658216666666,
          "value": -0.0159912109375
        },
        {
          "ticks": 11121,
          "time": 102.21496450000001,
          "value": 0.010986328125
        },
        {
          "ticks": 15002,
          "time": 137.88588233333334,
          "value": -0.155517578125
        },
        {
          "ticks": 15003,
          "time": 137.8950735,
          "value": -0.096923828125
        },
        {
          "ticks": 15004,
          "time": 137.90426466666668,
          "value": -0.04296875
        },
        {
          "ticks": 15005,
          "time": 137.91345583333336,
          "value": 0.010986328125
        },
        {
          "ticks": 15050,
          "time": 138.32705833333335,
          "value": -0.155517578125
        },
        {
          "ticks": 15052,
          "time": 138.3454406666667,
          "value": -0.124267578125
        },
        {
          "ticks": 15054,
          "time": 138.363823,
          "value": -0.09033203125
        },
        {
          "ticks": 15056,
          "time": 138.38220533333333,
          "value": -0.0562744140625
        },
        {
          "ticks": 15058,
          "time": 138.4005876666667,
          "value": -0.022216796875
        },
        {
          "ticks": 15060,
          "time": 138.41897,
          "value": 0.010986328125
        },
        {
          "ticks": 15146,
          "time": 139.20941033333335,
          "value": -0.155517578125
        },
        {
          "ticks": 15147,
          "time": 139.2186015,
          "value": -0.096923828125
        },
        {
          "ticks": 15148,
          "time": 139.2277926666667,
          "value": -0.04296875
        },
        {
          "ticks": 15149,
          "time": 139.23698383333334,
          "value": 0.010986328125
        },
        {
          "ticks": 15170,
          "time": 139.42999833333334,
          "value": -0.155517578125
        },
        {
          "ticks": 15176,
          "time": 139.48514533333335,
          "value": -0.096923828125
        },
        {
          "ticks": 15178,
          "time": 139.50352766666668,
          "value": -0.04296875
        },
        {
          "ticks": 15181,
          "time": 139.53110116666667,
          "value": 0.010986328125
        },
        {
          "ticks": 15218,
          "time": 139.87117433333336,
          "value": -0.155517578125
        },
        {
          "ticks": 15220,
          "time": 139.8895566666667,
          "value": -0.096923828125
        },
        {
          "ticks": 15221,
          "time": 139.89874783333335,
          "value": -0.04296875
        },
        {
          "ticks": 15222,
          "time": 139.907939,
          "value": 0.010986328125
        },
        {
          "ticks": 15410,
          "time": 141.63587833333335,
          "value": 0.010986328125
        },
        {
          "ticks": 15434,
          "time": 141.85646633333334,
          "value": -0.155517578125
        },
        {
          "ticks": 15443,
          "time": 141.93918683333334,
          "value": -0.116455078125
        },
        {
          "ticks": 15444,
          "time": 141.948378,
          "value": -0.091064453125
        },
        {
          "ticks": 15445,
          "time": 141.9575691666667,
          "value": -0.065673828125
        },
        {
          "ticks": 15446,
          "time": 141.96676033333335,
          "value": -0.0400390625
        },
        {
          "ticks": 15447,
          "time": 141.9759515,
          "value": -0.0146484375
        },
        {
          "ticks": 15448,
          "time": 141.9851426666667,
          "value": 0.010986328125
        },
        {
          "ticks": 15530,
          "time": 142.73881833333334,
          "value": -0.155517578125
        },
        {
          "ticks": 15532,
          "time": 142.75720066666668,
          "value": -0.096923828125
        },
        {
          "ticks": 15534,
          "time": 142.775583,
          "value": -0.04296875
        },
        {
          "ticks": 15536,
          "time": 142.79396533333335,
          "value": 0.010986328125
        },
        {
          "ticks": 15602,
          "time": 143.40058233333335,
          "value": -0.072265625
        },
        {
          "ticks": 15605,
          "time": 143.42815583333334,
          "value": -0.04296875
        },
        {
          "ticks": 15607,
          "time": 143.4465381666667,
          "value": -0.0159912109375
        },
        {
          "ticks": 15609,
          "time": 143.4649205,
          "value": 0.010986328125
        },
        {
          "ticks": 15698,
          "time": 144.28293433333334,
          "value": -0.155517578125
        },
        {
          "ticks": 15719,
          "time": 144.47594883333335,
          "value": -0.096923828125
        },
        {
          "ticks": 15720,
          "time": 144.48514,
          "value": -0.04296875
        },
        {
          "ticks": 15721,
          "time": 144.49433116666668,
          "value": 0.010986328125
        },
        {
          "ticks": 16010,
          "time": 147.15057833333336,
          "value": -0.155517578125
        },
        {
          "ticks": 16012,
          "time": 147.1689606666667,
          "value": -0.096923828125
        },
        {
          "ticks": 16014,
          "time": 147.187343,
          "value": -0.04296875
        },
        {
          "ticks": 16017,
          "time": 147.21491650000002,
          "value": 0.010986328125
        },
        {
          "ticks": 16130,
          "time": 148.25351833333335,
          "value": -0.155517578125
        },
        {
          "ticks": 16133,
          "time": 148.28109183333333,
          "value": -0.096923828125
        },
        {
          "ticks": 16135,
          "time": 148.2994741666667,
          "value": -0.04296875
        },
        {
          "ticks": 16137,
          "time": 148.3178565,
          "value": 0.010986328125
        },
        {
          "ticks": 16202,
          "time": 148.91528233333335,
          "value": -0.155517578125
        },
        {
          "ticks": 16205,
          "time": 148.94285583333334,
          "value": -0.096923828125
        },
        {
          "ticks": 16207,
          "time": 148.96123816666667,
          "value": -0.04296875
        },
        {
          "ticks": 16209,
          "time": 148.9796205,
          "value": 0.010986328125
        },
        {
          "ticks": 16298,
          "time": 149.79763433333335,
          "value": -0.031982421875
        },
        {
          "ticks": 16300,
          "time": 149.81601666666668,
          "value": -0.0794677734375
        },
        {
          "ticks": 16303,
          "time": 149.8435901666667,
          "value": -0.126953125
        },
        {
          "ticks": 16305,
          "time": 149.8619725,
          "value": -0.174560546875
        },
        {
          "ticks": 16308,
          "time": 149.889546,
          "value": -0.2220458984375
        },
        {
          "ticks": 16310,
          "time": 149.90792833333336,
          "value": -0.26953125
        },
        {
          "ticks": 16313,
          "time": 149.93550183333335,
          "value": -0.317138671875
        },
        {
          "ticks": 16320,
          "time": 149.99984,
          "value": 0.010986328125
        },
        {
          "ticks": 16370,
          "time": 150.45939833333335,
          "value": -0.155517578125
        },
        {
          "ticks": 16392,
          "time": 150.661604,
          "value": 0.010986328125
        },
        {
          "ticks": 16586,
          "time": 152.44469033333334,
          "value": -0.155517578125
        },
        {
          "ticks": 16588,
          "time": 152.46307266666668,
          "value": -0.124267578125
        },
        {
          "ticks": 16590,
          "time": 152.481455,
          "value": -0.09033203125
        },
        {
          "ticks": 16592,
          "time": 152.49983733333335,
          "value": -0.0562744140625
        },
        {
          "ticks": 16594,
          "time": 152.51821966666668,
          "value": -0.022216796875
        },
        {
          "ticks": 16596,
          "time": 152.53660200000002,
          "value": 0.010986328125
        },
        {
          "ticks": 16634,
          "time": 152.88586633333335,
          "value": -0.031982421875
        },
        {
          "ticks": 16636,
          "time": 152.9042486666667,
          "value": -0.0794677734375
        },
        {
          "ticks": 16639,
          "time": 152.93182216666668,
          "value": -0.126953125
        },
        {
          "ticks": 16641,
          "time": 152.9502045,
          "value": -0.174560546875
        },
        {
          "ticks": 16644,
          "time": 152.977778,
          "value": -0.2220458984375
        },
        {
          "ticks": 16646,
          "time": 152.99616033333334,
          "value": -0.26953125
        },
        {
          "ticks": 16649,
          "time": 153.02373383333335,
          "value": -0.317138671875
        },
        {
          "ticks": 16680,
          "time": 153.30866,
          "value": 0.010986328125
        },
        {
          "ticks": 16706,
          "time": 153.54763033333336,
          "value": -0.155517578125
        },
        {
          "ticks": 16712,
          "time": 153.60277733333334,
          "value": -0.096923828125
        },
        {
          "ticks": 16714,
          "time": 153.6211596666667,
          "value": -0.04296875
        },
        {
          "ticks": 16717,
          "time": 153.6487331666667,
          "value": 0.010986328125
        },
        {
          "ticks": 16970,
          "time": 155.97409833333336,
          "value": -0.072265625
        },
        {
          "ticks": 16972,
          "time": 155.9924806666667,
          "value": -0.052734375
        },
        {
          "ticks": 16974,
          "time": 156.010863,
          "value": -0.0400390625
        },
        {
          "ticks": 16976,
          "time": 156.02924533333334,
          "value": -0.02734375
        },
        {
          "ticks": 16978,
          "time": 156.0476276666667,
          "value": -0.0145263671875
        },
        {
          "ticks": 16980,
          "time": 156.06601,
          "value": -0.0018310546875
        },
        {
          "ticks": 16982,
          "time": 156.08439233333334,
          "value": 0.010986328125
        },
        {
          "ticks": 17066,
          "time": 156.85645033333336,
          "value": -0.155517578125
        },
        {
          "ticks": 17070,
          "time": 156.893215,
          "value": -0.096923828125
        },
        {
          "ticks": 17073,
          "time": 156.92078850000001,
          "value": -0.04296875
        },
        {
          "ticks": 17076,
          "time": 156.948362,
          "value": 0.010986328125
        },
        {
          "ticks": 17138,
          "time": 157.51821433333333,
          "value": -0.155517578125
        },
        {
          "ticks": 17142,
          "time": 157.554979,
          "value": -0.096923828125
        },
        {
          "ticks": 17145,
          "time": 157.5825525,
          "value": -0.04296875
        },
        {
          "ticks": 17148,
          "time": 157.610126,
          "value": 0.010986328125
        },
        {
          "ticks": 17234,
          "time": 158.40056633333336,
          "value": -0.155517578125
        },
        {
          "ticks": 17242,
          "time": 158.4740956666667,
          "value": -0.096923828125
        },
        {
          "ticks": 17245,
          "time": 158.5016691666667,
          "value": -0.04296875
        },
        {
          "ticks": 17248,
          "time": 158.52924266666668,
          "value": 0.010986328125
        },
        {
          "ticks": 17373,
          "time": 159.67813850000002,
          "value": -0.072265625
        },
        {
          "ticks": 17374,
          "time": 159.6873296666667,
          "value": -0.155517578125
        },
        {
          "ticks": 17376,
          "time": 159.705712,
          "value": -0.23876953125
        },
        {
          "ticks": 17377,
          "time": 159.7149031666667,
          "value": -0.322021484375
        },
        {
          "ticks": 17378,
          "time": 159.72409433333334,
          "value": -0.4052734375
        },
        {
          "ticks": 17379,
          "time": 159.7332855,
          "value": -0.57177734375
        },
        {
          "ticks": 17401,
          "time": 159.93549116666668,
          "value": 0.010986328125
        },
        {
          "ticks": 17522,
          "time": 161.04762233333335,
          "value": -0.072265625
        },
        {
          "ticks": 17528,
          "time": 161.10276933333336,
          "value": -0.052734375
        },
        {
          "ticks": 17531,
          "time": 161.13034283333334,
          "value": -0.0400390625
        },
        {
          "ticks": 17534,
          "time": 161.15791633333333,
          "value": -0.02734375
        },
        {
          "ticks": 17537,
          "time": 161.18548983333335,
          "value": -0.0145263671875
        },
        {
          "ticks": 17540,
          "time": 161.21306333333334,
          "value": -0.0018310546875
        },
        {
          "ticks": 17543,
          "time": 161.24063683333335,
          "value": 0.010986328125
        },
        {
          "ticks": 17714,
          "time": 162.81232633333335,
          "value": 0.09423828125
        },
        {
          "ticks": 17736,
          "time": 163.014532,
          "value": 0.010986328125
        },
        {
          "ticks": 18074,
          "time": 166.12114633333334,
          "value": -0.155517578125
        },
        {
          "ticks": 18075,
          "time": 166.1303375,
          "value": -0.096923828125
        },
        {
          "ticks": 18076,
          "time": 166.13952866666668,
          "value": -0.04296875
        },
        {
          "ticks": 18077,
          "time": 166.14871983333336,
          "value": 0.010986328125
        },
        {
          "ticks": 18122,
          "time": 166.56232233333336,
          "value": -0.155517578125
        },
        {
          "ticks": 18124,
          "time": 166.5807046666667,
          "value": -0.124267578125
        },
        {
          "ticks": 18126,
          "time": 166.599087,
          "value": -0.09033203125
        },
        {
          "ticks": 18128,
          "time": 166.61746933333333,
          "value": -0.0562744140625
        },
        {
          "ticks": 18130,
          "time": 166.6358516666667,
          "value": -0.022216796875
        },
        {
          "ticks": 18132,
          "time": 166.654234,
          "value": 0.010986328125
        },
        {
          "ticks": 18218,
          "time": 167.44467433333335,
          "value": -0.155517578125
        },
        {
          "ticks": 18220,
          "time": 167.4630566666667,
          "value": -0.096923828125
        },
        {
          "ticks": 18222,
          "time": 167.481439,
          "value": -0.04296875
        },
        {
          "ticks": 18225,
          "time": 167.5090125,
          "value": 0.010986328125
        },
        {
          "ticks": 18242,
          "time": 167.66526233333335,
          "value": -0.155517578125
        },
        {
          "ticks": 18248,
          "time": 167.72040933333335,
          "value": -0.096923828125
        },
        {
          "ticks": 18250,
          "time": 167.73879166666669,
          "value": -0.04296875
        },
        {
          "ticks": 18253,
          "time": 167.76636516666667,
          "value": 0.010986328125
        },
        {
          "ticks": 18290,
          "time": 168.10643833333336,
          "value": -0.155517578125
        },
        {
          "ticks": 18293,
          "time": 168.13401183333335,
          "value": -0.096923828125
        },
        {
          "ticks": 18295,
          "time": 168.15239416666668,
          "value": -0.04296875
        },
        {
          "ticks": 18298,
          "time": 168.1799676666667,
          "value": 0.010986328125
        },
        {
          "ticks": 18463,
          "time": 169.69651016666668,
          "value": -0.022216796875
        },
        {
          "ticks": 18465,
          "time": 169.7148925,
          "value": -0.096923828125
        },
        {
          "ticks": 18467,
          "time": 169.73327483333335,
          "value": -0.171630859375
        },
        {
          "ticks": 18469,
          "time": 169.7516571666667,
          "value": -0.246337890625
        },
        {
          "ticks": 18471,
          "time": 169.7700395,
          "value": -0.322021484375
        },
        {
          "ticks": 18482,
          "time": 169.87114233333335,
          "value": 0.010986328125
        },
        {
          "ticks": 18506,
          "time": 170.09173033333335,
          "value": -0.072265625
        },
        {
          "ticks": 18508,
          "time": 170.11011266666668,
          "value": -0.052734375
        },
        {
          "ticks": 18510,
          "time": 170.12849500000002,
          "value": -0.0400390625
        },
        {
          "ticks": 18512,
          "time": 170.14687733333335,
          "value": -0.02734375
        },
        {
          "ticks": 18514,
          "time": 170.16525966666669,
          "value": -0.0145263671875
        },
        {
          "ticks": 18516,
          "time": 170.183642,
          "value": -0.0018310546875
        },
        {
          "ticks": 18518,
          "time": 170.20202433333336,
          "value": 0.010986328125
        },
        {
          "ticks": 18602,
          "time": 170.97408233333334,
          "value": -0.155517578125
        },
        {
          "ticks": 18606,
          "time": 171.010847,
          "value": -0.096923828125
        },
        {
          "ticks": 18609,
          "time": 171.0384205,
          "value": -0.04296875
        },
        {
          "ticks": 18612,
          "time": 171.06599400000002,
          "value": 0.010986328125
        },
        {
          "ticks": 18674,
          "time": 171.63584633333335,
          "value": -0.155517578125
        },
        {
          "ticks": 18678,
          "time": 171.67261100000002,
          "value": -0.096923828125
        },
        {
          "ticks": 18681,
          "time": 171.7001845,
          "value": -0.04296875
        },
        {
          "ticks": 18684,
          "time": 171.727758,
          "value": 0.010986328125
        },
        {
          "ticks": 18770,
          "time": 172.51819833333334,
          "value": -0.155517578125
        },
        {
          "ticks": 18773,
          "time": 172.54577183333333,
          "value": -0.096923828125
        },
        {
          "ticks": 18776,
          "time": 172.57334533333335,
          "value": -0.04296875
        },
        {
          "ticks": 18779,
          "time": 172.60091883333334,
          "value": 0.010986328125
        },
        {
          "ticks": 19082,
          "time": 175.38584233333336,
          "value": -0.155517578125
        },
        {
          "ticks": 19084,
          "time": 175.4042246666667,
          "value": -0.096923828125
        },
        {
          "ticks": 19086,
          "time": 175.422607,
          "value": -0.04296875
        },
        {
          "ticks": 19089,
          "time": 175.45018050000002,
          "value": 0.010986328125
        },
        {
          "ticks": 19121,
          "time": 175.74429783333335,
          "value": -0.072265625
        },
        {
          "ticks": 19122,
          "time": 175.753489,
          "value": -0.155517578125
        },
        {
          "ticks": 19124,
          "time": 175.77187133333334,
          "value": -0.23876953125
        },
        {
          "ticks": 19125,
          "time": 175.78106250000002,
          "value": -0.322021484375
        },
        {
          "ticks": 19126,
          "time": 175.7902536666667,
          "value": -0.4052734375
        },
        {
          "ticks": 19127,
          "time": 175.79944483333335,
          "value": -0.57177734375
        },
        {
          "ticks": 19129,
          "time": 175.8178271666667,
          "value": 0.010986328125
        },
        {
          "ticks": 19202,
          "time": 176.48878233333335,
          "value": -0.155517578125
        },
        {
          "ticks": 19205,
          "time": 176.51635583333334,
          "value": -0.096923828125
        },
        {
          "ticks": 19208,
          "time": 176.54392933333335,
          "value": -0.04296875
        },
        {
          "ticks": 19211,
          "time": 176.57150283333334,
          "value": 0.010986328125
        },
        {
          "ticks": 19442,
          "time": 178.69466233333335,
          "value": -0.155517578125
        },
        {
          "ticks": 19464,
          "time": 178.896868,
          "value": 0.010986328125
        },
        {
          "ticks": 19658,
          "time": 180.67995433333334,
          "value": -0.155517578125
        },
        {
          "ticks": 19660,
          "time": 180.69833666666668,
          "value": -0.124267578125
        },
        {
          "ticks": 19662,
          "time": 180.716719,
          "value": -0.09033203125
        },
        {
          "ticks": 19664,
          "time": 180.73510133333335,
          "value": -0.0562744140625
        },
        {
          "ticks": 19666,
          "time": 180.75348366666668,
          "value": -0.022216796875
        },
        {
          "ticks": 19668,
          "time": 180.77186600000002,
          "value": 0.010986328125
        },
        {
          "ticks": 19706,
          "time": 181.12113033333335,
          "value": -0.031982421875
        },
        {
          "ticks": 19708,
          "time": 181.1395126666667,
          "value": -0.0794677734375
        },
        {
          "ticks": 19711,
          "time": 181.16708616666668,
          "value": -0.126953125
        },
        {
          "ticks": 19713,
          "time": 181.1854685,
          "value": -0.174560546875
        },
        {
          "ticks": 19716,
          "time": 181.213042,
          "value": -0.2220458984375
        },
        {
          "ticks": 19718,
          "time": 181.23142433333334,
          "value": -0.26953125
        },
        {
          "ticks": 19721,
          "time": 181.25899783333335,
          "value": -0.317138671875
        },
        {
          "ticks": 19752,
          "time": 181.543924,
          "value": 0.010986328125
        },
        {
          "ticks": 19778,
          "time": 181.78289433333336,
          "value": -0.155517578125
        },
        {
          "ticks": 19784,
          "time": 181.83804133333334,
          "value": -0.096923828125
        },
        {
          "ticks": 19786,
          "time": 181.8564236666667,
          "value": -0.04296875
        },
        {
          "ticks": 19789,
          "time": 181.8839971666667,
          "value": 0.010986328125
        },
        {
          "ticks": 20042,
          "time": 184.20936233333336,
          "value": -0.072265625
        },
        {
          "ticks": 20044,
          "time": 184.2277446666667,
          "value": -0.052734375
        },
        {
          "ticks": 20046,
          "time": 184.246127,
          "value": -0.0400390625
        },
        {
          "ticks": 20048,
          "time": 184.26450933333334,
          "value": -0.02734375
        },
        {
          "ticks": 20050,
          "time": 184.2828916666667,
          "value": -0.0145263671875
        },
        {
          "ticks": 20052,
          "time": 184.301274,
          "value": -0.0018310546875
        },
        {
          "ticks": 20054,
          "time": 184.31965633333334,
          "value": 0.010986328125
        },
        {
          "ticks": 20138,
          "time": 185.09171433333336,
          "value": -0.155517578125
        },
        {
          "ticks": 20142,
          "time": 185.128479,
          "value": -0.096923828125
        },
        {
          "ticks": 20145,
          "time": 185.15605250000002,
          "value": -0.04296875
        },
        {
          "ticks": 20148,
          "time": 185.183626,
          "value": 0.010986328125
        },
        {
          "ticks": 20210,
          "time": 185.75347833333333,
          "value": -0.155517578125
        },
        {
          "ticks": 20214,
          "time": 185.790243,
          "value": -0.096923828125
        },
        {
          "ticks": 20217,
          "time": 185.8178165,
          "value": -0.04296875
        },
        {
          "ticks": 20220,
          "time": 185.84539,
          "value": 0.010986328125
        },
        {
          "ticks": 20258,
          "time": 186.19465433333335,
          "value": -0.155517578125
        },
        {
          "ticks": 20260,
          "time": 186.21303666666668,
          "value": -0.096923828125
        },
        {
          "ticks": 20262,
          "time": 186.23141900000002,
          "value": -0.04296875
        },
        {
          "ticks": 20264,
          "time": 186.24980133333335,
          "value": 0.010986328125
        },
        {
          "ticks": 20306,
          "time": 186.63583033333336,
          "value": 0.09423828125
        },
        {
          "ticks": 20329,
          "time": 186.8472271666667,
          "value": 0.06494140625
        },
        {
          "ticks": 20330,
          "time": 186.85641833333335,
          "value": 0.0379638671875
        },
        {
          "ticks": 20331,
          "time": 186.8656095,
          "value": 0.010986328125
        },
        {
          "ticks": 20445,
          "time": 187.91340250000002,
          "value": -0.072265625
        },
        {
          "ticks": 20446,
          "time": 187.9225936666667,
          "value": -0.155517578125
        },
        {
          "ticks": 20448,
          "time": 187.940976,
          "value": -0.23876953125
        },
        {
          "ticks": 20449,
          "time": 187.9501671666667,
          "value": -0.322021484375
        },
        {
          "ticks": 20450,
          "time": 187.95935833333334,
          "value": -0.4052734375
        },
        {
          "ticks": 20451,
          "time": 187.9685495,
          "value": -0.57177734375
        },
        {
          "ticks": 20473,
          "time": 188.17075516666668,
          "value": 0.010986328125
        },
        {
          "ticks": 20594,
          "time": 189.28288633333335,
          "value": -0.072265625
        },
        {
          "ticks": 20600,
          "time": 189.33803333333336,
          "value": -0.052734375
        },
        {
          "ticks": 20603,
          "time": 189.36560683333335,
          "value": -0.0400390625
        },
        {
          "ticks": 20606,
          "time": 189.39318033333333,
          "value": -0.02734375
        },
        {
          "ticks": 20609,
          "time": 189.42075383333335,
          "value": -0.0145263671875
        },
        {
          "ticks": 20612,
          "time": 189.44832733333334,
          "value": -0.0018310546875
        },
        {
          "ticks": 20615,
          "time": 189.47590083333336,
          "value": 0.010986328125
        },
        {
          "ticks": 20786,
          "time": 191.04759033333335,
          "value": 0.09423828125
        },
        {
          "ticks": 20808,
          "time": 191.249796,
          "value": 0.010986328125
        },
        {
          "ticks": 20930,
          "time": 192.37111833333336,
          "value": -0.155517578125
        },
        {
          "ticks": 20932,
          "time": 192.3895006666667,
          "value": -0.116455078125
        },
        {
          "ticks": 20934,
          "time": 192.407883,
          "value": -0.091064453125
        },
        {
          "ticks": 20936,
          "time": 192.42626533333333,
          "value": -0.065673828125
        },
        {
          "ticks": 20938,
          "time": 192.4446476666667,
          "value": -0.0400390625
        },
        {
          "ticks": 20940,
          "time": 192.46303,
          "value": -0.0146484375
        },
        {
          "ticks": 20942,
          "time": 192.48141233333334,
          "value": 0.010986328125
        },
        {
          "ticks": 20966,
          "time": 192.70200033333336,
          "value": -0.155517578125
        },
        {
          "ticks": 20979,
          "time": 192.8214855,
          "value": -0.116455078125
        },
        {
          "ticks": 20980,
          "time": 192.83067666666668,
          "value": -0.091064453125
        },
        {
          "ticks": 20981,
          "time": 192.83986783333336,
          "value": -0.065673828125
        },
        {
          "ticks": 20982,
          "time": 192.849059,
          "value": -0.0400390625
        },
        {
          "ticks": 20983,
          "time": 192.8582501666667,
          "value": -0.0146484375
        },
        {
          "ticks": 20984,
          "time": 192.86744133333335,
          "value": 0.010986328125
        },
        {
          "ticks": 20996,
          "time": 192.97773533333336,
          "value": -0.155517578125
        },
        {
          "ticks": 21002,
          "time": 193.03288233333333,
          "value": 0.010986328125
        },
        {
          "ticks": 21362,
          "time": 196.34170233333336,
          "value": -0.072265625
        },
        {
          "ticks": 21368,
          "time": 196.39684933333334,
          "value": -0.052734375
        },
        {
          "ticks": 21371,
          "time": 196.42442283333335,
          "value": -0.0400390625
        },
        {
          "ticks": 21374,
          "time": 196.45199633333334,
          "value": -0.02734375
        },
        {
          "ticks": 21377,
          "time": 196.47956983333336,
          "value": -0.0145263671875
        },
        {
          "ticks": 21380,
          "time": 196.50714333333335,
          "value": -0.0018310546875
        },
        {
          "ticks": 21383,
          "time": 196.53471683333333,
          "value": 0.010986328125
        },
        {
          "ticks": 21410,
          "time": 196.78287833333334,
          "value": -0.072265625
        },
        {
          "ticks": 21413,
          "time": 196.81045183333336,
          "value": -0.0400390625
        },
        {
          "ticks": 21415,
          "time": 196.8288341666667,
          "value": -0.0145263671875
        },
        {
          "ticks": 21417,
          "time": 196.8472165,
          "value": 0.010986328125
        },
        {
          "ticks": 21554,
          "time": 198.10640633333335,
          "value": 0.09423828125
        },
        {
          "ticks": 21576,
          "time": 198.308612,
          "value": 0.010986328125
        },
        {
          "ticks": 21914,
          "time": 201.41522633333335,
          "value": -0.155517578125
        },
        {
          "ticks": 21915,
          "time": 201.4244175,
          "value": -0.096923828125
        },
        {
          "ticks": 21916,
          "time": 201.4336086666667,
          "value": -0.04296875
        },
        {
          "ticks": 21917,
          "time": 201.44279983333334,
          "value": 0.010986328125
        },
        {
          "ticks": 21962,
          "time": 201.85640233333334,
          "value": -0.155517578125
        },
        {
          "ticks": 21980,
          "time": 202.02184333333335,
          "value": -0.124267578125
        },
        {
          "ticks": 21981,
          "time": 202.0310345,
          "value": -0.09033203125
        },
        {
          "ticks": 21982,
          "time": 202.0402256666667,
          "value": -0.0562744140625
        },
        {
          "ticks": 21983,
          "time": 202.04941683333334,
          "value": -0.022216796875
        },
        {
          "ticks": 21984,
          "time": 202.058608,
          "value": 0.010986328125
        },
        {
          "ticks": 22058,
          "time": 202.73875433333336,
          "value": -0.155517578125
        },
        {
          "ticks": 22059,
          "time": 202.74794550000001,
          "value": -0.096923828125
        },
        {
          "ticks": 22060,
          "time": 202.7571366666667,
          "value": -0.04296875
        },
        {
          "ticks": 22061,
          "time": 202.76632783333335,
          "value": 0.010986328125
        },
        {
          "ticks": 22082,
          "time": 202.95934233333335,
          "value": -0.155517578125
        },
        {
          "ticks": 22088,
          "time": 203.01448933333336,
          "value": -0.096923828125
        },
        {
          "ticks": 22090,
          "time": 203.0328716666667,
          "value": -0.04296875
        },
        {
          "ticks": 22093,
          "time": 203.06044516666668,
          "value": 0.010986328125
        },
        {
          "ticks": 22130,
          "time": 203.40051833333334,
          "value": -0.155517578125
        },
        {
          "ticks": 22132,
          "time": 203.4189006666667,
          "value": -0.096923828125
        },
        {
          "ticks": 22133,
          "time": 203.42809183333335,
          "value": -0.04296875
        },
        {
          "ticks": 22134,
          "time": 203.437283,
          "value": 0.010986328125
        },
        {
          "ticks": 22346,
          "time": 205.38581033333335,
          "value": -0.155517578125
        },
        {
          "ticks": 22355,
          "time": 205.46853083333335,
          "value": -0.116455078125
        },
        {
          "ticks": 22356,
          "time": 205.477722,
          "value": -0.091064453125
        },
        {
          "ticks": 22357,
          "time": 205.48691316666668,
          "value": -0.065673828125
        },
        {
          "ticks": 22358,
          "time": 205.49610433333334,
          "value": -0.0400390625
        },
        {
          "ticks": 22359,
          "time": 205.50529550000002,
          "value": -0.0146484375
        },
        {
          "ticks": 22360,
          "time": 205.5144866666667,
          "value": 0.010986328125
        },
        {
          "ticks": 22514,
          "time": 206.92992633333336,
          "value": -0.072265625
        },
        {
          "ticks": 22517,
          "time": 206.95749983333334,
          "value": -0.04296875
        },
        {
          "ticks": 22519,
          "time": 206.97588216666668,
          "value": -0.0159912109375
        },
        {
          "ticks": 22521,
          "time": 206.9942645,
          "value": 0.010986328125
        },
        {
          "ticks": 22610,
          "time": 207.81227833333335,
          "value": -0.155517578125
        },
        {
          "ticks": 22631,
          "time": 208.00529283333336,
          "value": -0.096923828125
        },
        {
          "ticks": 22632,
          "time": 208.014484,
          "value": -0.04296875
        },
        {
          "ticks": 22633,
          "time": 208.0236751666667,
          "value": 0.010986328125
        }
      ],
      "instrument": {
        "family": "strings",
        "number": 40,
        "name": "violin"
      },
      "name": "",
      "notes": [
        {
          "duration": 0.07352933333333311,
          "durationTicks": 8,
          "midi": 68,
          "name": "G#4",
          "ticks": 1154,
          "time": 10.606606333333335,
          "velocity": 0.8818897637795275
        },
        {
          "duration": 0.2113968333333318,
          "durationTicks": 23,
          "midi": 80,
          "name": "G#5",
          "ticks": 1178,
          "time": 10.827194333333335,
          "velocity": 0.952755905511811
        },
        {
          "duration": 0.20220566666666429,
          "durationTicks": 22,
          "midi": 78,
          "name": "F#5",
          "ticks": 1202,
          "time": 11.047782333333334,
          "velocity": 0.889763779527559
        },
        {
          "duration": 0.606617,
          "durationTicks": 66,
          "midi": 77,
          "name": "F5",
          "ticks": 1226,
          "time": 11.268370333333333,
          "velocity": 0.905511811023622
        },
        {
          "duration": 0.10110283333333214,
          "durationTicks": 11,
          "midi": 77,
          "name": "F5",
          "ticks": 1322,
          "time": 12.150722333333334,
          "velocity": 0.952755905511811
        },
        {
          "duration": 0.4044113333333357,
          "durationTicks": 44,
          "midi": 78,
          "name": "F#5",
          "ticks": 1346,
          "time": 12.371310333333334,
          "velocity": 0.9212598425196851
        },
        {
          "duration": 0.33088200000000256,
          "durationTicks": 36,
          "midi": 77,
          "name": "F5",
          "ticks": 1394,
          "time": 12.812486333333332,
          "velocity": 0.9212598425196851
        },
        {
          "duration": 0.36764666666666557,
          "durationTicks": 40,
          "midi": 75,
          "name": "D#5",
          "ticks": 1442,
          "time": 13.253662333333335,
          "velocity": 0.84251968503937
        },
        {
          "duration": 0.3124996666666675,
          "durationTicks": 34,
          "midi": 73,
          "name": "C#5",
          "ticks": 1490,
          "time": 13.694838333333333,
          "velocity": 0.8976377952755905
        },
        {
          "duration": 0.29411733333333245,
          "durationTicks": 32,
          "midi": 72,
          "name": "C5",
          "ticks": 1538,
          "time": 14.136014333333335,
          "velocity": 0.952755905511811
        },
        {
          "duration": 0.10110283333333214,
          "durationTicks": 11,
          "midi": 68,
          "name": "G#4",
          "ticks": 1586,
          "time": 14.577190333333334,
          "velocity": 0.9133858267716536
        },
        {
          "duration": 0.7261021666666672,
          "durationTicks": 79,
          "midi": 75,
          "name": "D#5",
          "ticks": 1610,
          "time": 14.797778333333333,
          "velocity": 0.9212598425196851
        },
        {
          "duration": 0.36764666666666557,
          "durationTicks": 40,
          "midi": 75,
          "name": "D#5",
          "ticks": 1706,
          "time": 15.680130333333334,
          "velocity": 0.905511811023622
        },
        {
          "duration": 0.18382333333333278,
          "durationTicks": 20,
          "midi": 73,
          "name": "C#5",
          "ticks": 1754,
          "time": 16.121306333333333,
          "velocity": 0.9212598425196851
        },
        {
          "duration": 0.44117600000000223,
          "durationTicks": 48,
          "midi": 75,
          "name": "D#5",
          "ticks": 1778,
          "time": 16.341894333333332,
          "velocity": 0.937007874015748
        },
        {
          "duration": 0.10110283333333214,
          "durationTicks": 11,
          "midi": 73,
          "name": "C#5",
          "ticks": 1826,
          "time": 16.783070333333335,
          "velocity": 0.9133858267716536
        },
        {
          "duration": 0.16544100000000128,
          "durationTicks": 18,
          "midi": 75,
          "name": "D#5",
          "ticks": 1850,
          "time": 17.003658333333334,
          "velocity": 0.9212598425196851
        },
        {
          "duration": 0.624999333333335,
          "durationTicks": 68,
          "midi": 77,
          "name": "F5",
          "ticks": 1874,
          "time": 17.224246333333333,
          "velocity": 0.952755905511811
        },
        {
          "duration": 0.11029399999999967,
          "durationTicks": 12,
          "midi": 77,
          "name": "F5",
          "ticks": 1970,
          "time": 18.106598333333334,
          "velocity": 0.952755905511811
        },
        {
          "duration": 0.32169083333333504,
          "durationTicks": 35,
          "midi": 77,
          "name": "F5",
          "ticks": 1994,
          "time": 18.327186333333334,
          "velocity": 0.952755905511811
        },
        {
          "duration": 0.16544099999999773,
          "durationTicks": 18,
          "midi": 70,
          "name": "A#4",
          "ticks": 2042,
          "time": 18.768362333333336,
          "velocity": 0.8976377952755905
        },
        {
          "duration": 0.41360249999999965,
          "durationTicks": 45,
          "midi": 73,
          "name": "C#5",
          "ticks": 2066,
          "time": 18.988950333333335,
          "velocity": 0.9291338582677166
        },
        {
          "duration": 0.22058799999999934,
          "durationTicks": 24,
          "midi": 75,
          "name": "D#5",
          "ticks": 2114,
          "time": 19.430126333333334,
          "velocity": 0.952755905511811
        },
        {
          "duration": 0.34007316666666654,
          "durationTicks": 37,
          "midi": 80,
          "name": "G#5",
          "ticks": 2162,
          "time": 19.871302333333336,
          "velocity": 0.968503937007874
        },
        {
          "duration": 0.1930145000000003,
          "durationTicks": 21,
          "midi": 80,
          "name": "G#5",
          "ticks": 2210,
          "time": 20.312478333333335,
          "velocity": 0.889763779527559
        },
        {
          "duration": 0.10110283333333214,
          "durationTicks": 11,
          "midi": 78,
          "name": "F#5",
          "ticks": 2234,
          "time": 20.533066333333334,
          "velocity": 0.905511811023622
        },
        {
          "duration": 0.1930145000000003,
          "durationTicks": 21,
          "midi": 78,
          "name": "F#5",
          "ticks": 2258,
          "time": 20.753654333333333,
          "velocity": 0.9212598425196851
        },
        {
          "duration": 0.1194851666666672,
          "durationTicks": 13,
          "midi": 77,
          "name": "F5",
          "ticks": 2282,
          "time": 20.974242333333336,
          "velocity": 0.9763779527559056
        },
        {
          "duration": 0.18382333333333278,
          "durationTicks": 20,
          "midi": 75,
          "name": "D#5",
          "ticks": 2306,
          "time": 21.194830333333336,
          "velocity": 0.9291338582677166
        },
        {
          "duration": 0.1930145000000003,
          "durationTicks": 21,
          "midi": 78,
          "name": "F#5",
          "ticks": 2330,
          "time": 21.415418333333335,
          "velocity": 0.952755905511811
        },
        {
          "duration": 2.0863948333333333,
          "durationTicks": 227,
          "midi": 77,
          "name": "F5",
          "ticks": 2354,
          "time": 21.636006333333334,
          "velocity": 0.968503937007874
        },
        {
          "duration": 0.35845549999999804,
          "durationTicks": 39,
          "midi": 77,
          "name": "F5",
          "ticks": 2810,
          "time": 25.827178333333336,
          "velocity": 0.8661417322834646
        },
        {
          "duration": 0.3584555000000016,
          "durationTicks": 39,
          "midi": 77,
          "name": "F5",
          "ticks": 2858,
          "time": 26.268354333333335,
          "velocity": 0.9212598425196851
        },
        {
          "duration": 0.1930145000000003,
          "durationTicks": 21,
          "midi": 75,
          "name": "D#5",
          "ticks": 2906,
          "time": 26.709530333333333,
          "velocity": 0.8661417322834646
        },
        {
          "duration": 0.1930145000000003,
          "durationTicks": 21,
          "midi": 73,
          "name": "C#5",
          "ticks": 2930,
          "time": 26.930118333333336,
          "velocity": 0.8503937007874016
        },
        {
          "duration": 0.36764666666666557,
          "durationTicks": 40,
          "midi": 75,
          "name": "D#5",
          "ticks": 2954,
          "time": 27.150706333333336,
          "velocity": 0.8976377952755905
        },
        {
          "duration": 0.3584555000000016,
          "durationTicks": 39,
          "midi": 77,
          "name": "F5",
          "ticks": 3002,
          "time": 27.591882333333334,
          "velocity": 0.84251968503937
        },
        {
          "duration": 0.36764666666666557,
          "durationTicks": 40,
          "midi": 75,
          "name": "D#5",
          "ticks": 3050,
          "time": 28.033058333333337,
          "velocity": 0.889763779527559
        },
        {
          "duration": 0.3676466666666691,
          "durationTicks": 40,
          "midi": 73,
          "name": "C#5",
          "ticks": 3098,
          "time": 28.474234333333335,
          "velocity": 0.9212598425196851
        },
        {
          "duration": 1.0569841666666697,
          "durationTicks": 115,
          "midi": 73,
          "name": "C#5",
          "ticks": 3146,
          "time": 28.915410333333334,
          "velocity": 0.8818897637795275
        },
        {
          "duration": 0.22058799999999934,
          "durationTicks": 24,
          "midi": 68,
          "name": "G#4",
          "ticks": 3266,
          "time": 30.018350333333334,
          "velocity": 0.8818897637795275
        },
        {
          "duration": 0.20220566666666784,
          "durationTicks": 22,
          "midi": 70,
          "name": "A#4",
          "ticks": 3290,
          "time": 30.238938333333333,
          "velocity": 0.8503937007874016
        },
        {
          "duration": 0.21139683333333537,
          "durationTicks": 23,
          "midi": 68,
          "name": "G#4",
          "ticks": 3314,
          "time": 30.459526333333336,
          "velocity": 0.8818897637795275
        },
        {
          "duration": 1.5441159999999954,
          "durationTicks": 168,
          "midi": 68,
          "name": "G#4",
          "ticks": 3338,
          "time": 30.680114333333336,
          "velocity": 0.8818897637795275
        },
        {
          "duration": 0.35845549999999804,
          "durationTicks": 39,
          "midi": 77,
          "name": "F5",
          "ticks": 3578,
          "time": 32.885994333333336,
          "velocity": 0.8661417322834646
        },
        {
          "duration": 0.35845549999999804,
          "durationTicks": 39,
          "midi": 77,
          "name": "F5",
          "ticks": 3626,
          "time": 33.327170333333335,
          "velocity": 0.8661417322834646
        },
        {
          "duration": 0.15624983333333375,
          "durationTicks": 17,
          "midi": 75,
          "name": "D#5",
          "ticks": 3674,
          "time": 33.768346333333334,
          "velocity": 0.8661417322834646
        },
        {
          "duration": 0.19301450000000386,
          "durationTicks": 21,
          "midi": 73,
          "name": "C#5",
          "ticks": 3698,
          "time": 33.98893433333333,
          "velocity": 0.905511811023622
        },
        {
          "duration": 0.36764666666666557,
          "durationTicks": 40,
          "midi": 75,
          "name": "D#5",
          "ticks": 3722,
          "time": 34.20952233333333,
          "velocity": 0.8976377952755905
        },
        {
          "duration": 0.35845549999999804,
          "durationTicks": 39,
          "midi": 77,
          "name": "F5",
          "ticks": 3770,
          "time": 34.65069833333334,
          "velocity": 0.8661417322834646
        },
        {
          "duration": 0.4136024999999961,
          "durationTicks": 45,
          "midi": 75,
          "name": "D#5",
          "ticks": 3818,
          "time": 35.09187433333334,
          "velocity": 0.889763779527559
        },
        {
          "duration": 0.39522016666666104,
          "durationTicks": 43,
          "midi": 73,
          "name": "C#5",
          "ticks": 3866,
          "time": 35.533050333333335,
          "velocity": 0.9212598425196851
        },
        {
          "duration": 2.0404389999999992,
          "durationTicks": 222,
          "midi": 73,
          "name": "C#5",
          "ticks": 3914,
          "time": 35.974226333333334,
          "velocity": 0.8818897637795275
        },
        {
          "duration": 0.35845549999999804,
          "durationTicks": 39,
          "midi": 78,
          "name": "F#5",
          "ticks": 4154,
          "time": 38.180106333333335,
          "velocity": 0.9133858267716536
        },
        {
          "duration": 0.35845550000000515,
          "durationTicks": 39,
          "midi": 77,
          "name": "F5",
          "ticks": 4202,
          "time": 38.62128233333333,
          "velocity": 0.905511811023622
        },
        {
          "duration": 0.22058800000000645,
          "durationTicks": 24,
          "midi": 75,
          "name": "D#5",
          "ticks": 4250,
          "time": 39.06245833333333,
          "velocity": 0.8818897637795275
        },
        {
          "duration": 0.1378674999999987,
          "durationTicks": 15,
          "midi": 73,
          "name": "C#5",
          "ticks": 4274,
          "time": 39.28304633333334,
          "velocity": 0.9133858267716536
        },
        {
          "duration": 0.18382333333333634,
          "durationTicks": 20,
          "midi": 72,
          "name": "C5",
          "ticks": 4298,
          "time": 39.50363433333334,
          "velocity": 0.8503937007874016
        },
        {
          "duration": 0.24816149999999482,
          "durationTicks": 27,
          "midi": 73,
          "name": "C#5",
          "ticks": 4322,
          "time": 39.72422233333334,
          "velocity": 0.905511811023622
        },
        {
          "duration": 0.1378674999999987,
          "durationTicks": 15,
          "midi": 73,
          "name": "C#5",
          "ticks": 4370,
          "time": 40.165398333333336,
          "velocity": 0.8740157480314961
        },
        {
          "duration": 0.19301449999999676,
          "durationTicks": 21,
          "midi": 72,
          "name": "C5",
          "ticks": 4394,
          "time": 40.385986333333335,
          "velocity": 0.84251968503937
        },
        {
          "duration": 0.24816150000000192,
          "durationTicks": 27,
          "midi": 73,
          "name": "C#5",
          "ticks": 4418,
          "time": 40.606574333333334,
          "velocity": 0.8976377952755905
        },
        {
          "duration": 0.1378675000000058,
          "durationTicks": 15,
          "midi": 73,
          "name": "C#5",
          "ticks": 4466,
          "time": 41.04775033333333,
          "velocity": 0.8740157480314961
        },
        {
          "duration": 0.18382333333333634,
          "durationTicks": 20,
          "midi": 72,
          "name": "C5",
          "ticks": 4490,
          "time": 41.26833833333333,
          "velocity": 0.8346456692913385
        },
        {
          "duration": 0.24816149999999482,
          "durationTicks": 27,
          "midi": 73,
          "name": "C#5",
          "ticks": 4514,
          "time": 41.48892633333334,
          "velocity": 0.8582677165354331
        },
        {
          "duration": 0.1378674999999987,
          "durationTicks": 15,
          "midi": 73,
          "name": "C#5",
          "ticks": 4562,
          "time": 41.93010233333334,
          "velocity": 0.905511811023622
        },
        {
          "duration": 0.19301449999999676,
          "durationTicks": 21,
          "midi": 72,
          "name": "C5",
          "ticks": 4586,
          "time": 42.15069033333334,
          "velocity": 0.84251968503937
        },
        {
          "duration": 0.24816150000000192,
          "durationTicks": 27,
          "midi": 73,
          "name": "C#5",
          "ticks": 4610,
          "time": 42.371278333333336,
          "velocity": 0.8740157480314961
        },
        {
          "duration": 0.1378674999999987,
          "durationTicks": 15,
          "midi": 73,
          "name": "C#5",
          "ticks": 4658,
          "time": 42.812454333333335,
          "velocity": 0.8740157480314961
        },
        {
          "duration": 0.18382333333333634,
          "durationTicks": 20,
          "midi": 72,
          "name": "C5",
          "ticks": 4682,
          "time": 43.033042333333334,
          "velocity": 0.8503937007874016
        },
        {
          "duration": 0.24816150000000192,
          "durationTicks": 27,
          "midi": 73,
          "name": "C#5",
          "ticks": 4706,
          "time": 43.253630333333334,
          "velocity": 0.905511811023622
        },
        {
          "duration": 0.1378675000000058,
          "durationTicks": 15,
          "midi": 73,
          "name": "C#5",
          "ticks": 4754,
          "time": 43.69480633333333,
          "velocity": 0.8740157480314961
        },
        {
          "duration": 0.19301449999999676,
          "durationTicks": 21,
          "midi": 72,
          "name": "C5",
          "ticks": 4778,
          "time": 43.91539433333334,
          "velocity": 0.84251968503937
        },
        {
          "duration": 0.16544099999999418,
          "durationTicks": 18,
          "midi": 73,
          "name": "C#5",
          "ticks": 4802,
          "time": 44.13598233333334,
          "velocity": 0.8976377952755905
        },
        {
          "duration": 0.16544100000000128,
          "durationTicks": 18,
          "midi": 73,
          "name": "C#5",
          "ticks": 4850,
          "time": 44.57715833333334,
          "velocity": 0.889763779527559
        },
        {
          "duration": 0.18382333333333634,
          "durationTicks": 20,
          "midi": 75,
          "name": "D#5",
          "ticks": 4874,
          "time": 44.797746333333336,
          "velocity": 0.8740157480314961
        },
        {
          "duration": 0.18382333333333634,
          "durationTicks": 20,
          "midi": 73,
          "name": "C#5",
          "ticks": 4898,
          "time": 45.018334333333335,
          "velocity": 0.889763779527559
        },
        {
          "duration": 0.15624983333333375,
          "durationTicks": 17,
          "midi": 75,
          "name": "D#5",
          "ticks": 4922,
          "time": 45.238922333333335,
          "velocity": 0.8582677165354331
        },
        {
          "duration": 0.5790435000000045,
          "durationTicks": 63,
          "midi": 77,
          "name": "F5",
          "ticks": 4946,
          "time": 45.459510333333334,
          "velocity": 0.905511811023622
        },
        {
          "duration": 0.08272050000000064,
          "durationTicks": 9,
          "midi": 75,
          "name": "D#5",
          "ticks": 5018,
          "time": 46.12127433333333,
          "velocity": 0.84251968503937
        },
        {
          "duration": 0.19301449999999676,
          "durationTicks": 21,
          "midi": 73,
          "name": "C#5",
          "ticks": 5042,
          "time": 46.34186233333334,
          "velocity": 0.8740157480314961
        },
        {
          "duration": 0.18382333333333634,
          "durationTicks": 20,
          "midi": 72,
          "name": "C5",
          "ticks": 5066,
          "time": 46.56245033333334,
          "velocity": 0.8503937007874016
        },
        {
          "duration": 0.16544100000000128,
          "durationTicks": 18,
          "midi": 73,
          "name": "C#5",
          "ticks": 5090,
          "time": 46.78303833333334,
          "velocity": 0.905511811023622
        },
        {
          "duration": 0.19301449999999676,
          "durationTicks": 21,
          "midi": 73,
          "name": "C#5",
          "ticks": 5138,
          "time": 47.224214333333336,
          "velocity": 0.889763779527559
        },
        {
          "duration": 0.12867633333333828,
          "durationTicks": 14,
          "midi": 72,
          "name": "C5",
          "ticks": 5162,
          "time": 47.444802333333335,
          "velocity": 0.84251968503937
        },
        {
          "duration": 0.24816150000000192,
          "durationTicks": 27,
          "midi": 73,
          "name": "C#5",
          "ticks": 5186,
          "time": 47.665390333333335,
          "velocity": 0.8976377952755905
        },
        {
          "duration": 0.09191166666666817,
          "durationTicks": 10,
          "midi": 73,
          "name": "C#5",
          "ticks": 5234,
          "time": 48.10656633333333,
          "velocity": 0.8740157480314961
        },
        {
          "duration": 0.18382333333333634,
          "durationTicks": 20,
          "midi": 72,
          "name": "C5",
          "ticks": 5258,
          "time": 48.32715433333333,
          "velocity": 0.8346456692913385
        },
        {
          "duration": 0.24816149999999482,
          "durationTicks": 27,
          "midi": 73,
          "name": "C#5",
          "ticks": 5282,
          "time": 48.54774233333334,
          "velocity": 0.8582677165354331
        },
        {
          "duration": 0.09191166666666106,
          "durationTicks": 10,
          "midi": 73,
          "name": "C#5",
          "ticks": 5330,
          "time": 48.98891833333334,
          "velocity": 0.905511811023622
        },
        {
          "duration": 0.19301449999999676,
          "durationTicks": 21,
          "midi": 72,
          "name": "C5",
          "ticks": 5354,
          "time": 49.20950633333334,
          "velocity": 0.889763779527559
        },
        {
          "duration": 0.15624983333333375,
          "durationTicks": 17,
          "midi": 73,
          "name": "C#5",
          "ticks": 5378,
          "time": 49.43009433333334,
          "velocity": 0.8740157480314961
        },
        {
          "duration": 0.08272050000000064,
          "durationTicks": 9,
          "midi": 73,
          "name": "C#5",
          "ticks": 5426,
          "time": 49.871270333333335,
          "velocity": 0.905511811023622
        },
        {
          "duration": 0.36764666666666557,
          "durationTicks": 40,
          "midi": 80,
          "name": "G#5",
          "ticks": 5450,
          "time": 50.091858333333334,
          "velocity": 0.9291338582677166
        },
        {
          "duration": 0.1746321666666688,
          "durationTicks": 19,
          "midi": 73,
          "name": "C#5",
          "ticks": 5498,
          "time": 50.53303433333333,
          "velocity": 0.8740157480314961
        },
        {
          "duration": 0.3492643333333376,
          "durationTicks": 38,
          "midi": 72,
          "name": "C5",
          "ticks": 5522,
          "time": 50.75362233333333,
          "velocity": 0.9212598425196851
        },
        {
          "duration": 0.36764666666665846,
          "durationTicks": 40,
          "midi": 72,
          "name": "C5",
          "ticks": 5570,
          "time": 51.19479833333334,
          "velocity": 0.8503937007874016
        },
        {
          "duration": 0.4136024999999961,
          "durationTicks": 45,
          "midi": 73,
          "name": "C#5",
          "ticks": 5618,
          "time": 51.63597433333334,
          "velocity": 0.8976377952755905
        },
        {
          "duration": 0.1011028333333357,
          "durationTicks": 11,
          "midi": 73,
          "name": "C#5",
          "ticks": 5666,
          "time": 52.077150333333336,
          "velocity": 0.8976377952755905
        },
        {
          "duration": 0.18382333333333634,
          "durationTicks": 20,
          "midi": 75,
          "name": "D#5",
          "ticks": 5690,
          "time": 52.297738333333335,
          "velocity": 0.8976377952755905
        },
        {
          "duration": 1.0110283333333356,
          "durationTicks": 110,
          "midi": 77,
          "name": "F5",
          "ticks": 5714,
          "time": 52.518326333333334,
          "velocity": 0.8740157480314961
        },
        {
          "duration": 0.19301450000000386,
          "durationTicks": 21,
          "midi": 68,
          "name": "G#4",
          "ticks": 6530,
          "time": 60.01831833333333,
          "velocity": 0.8818897637795275
        },
        {
          "duration": 0.2113968333333318,
          "durationTicks": 23,
          "midi": 80,
          "name": "G#5",
          "ticks": 6554,
          "time": 60.23890633333333,
          "velocity": 0.9133858267716536
        },
        {
          "duration": 0.10110283333332859,
          "durationTicks": 11,
          "midi": 78,
          "name": "F#5",
          "ticks": 6578,
          "time": 60.45949433333334,
          "velocity": 0.8740157480314961
        },
        {
          "duration": 0.4411759999999987,
          "durationTicks": 48,
          "midi": 77,
          "name": "F5",
          "ticks": 6602,
          "time": 60.68008233333334,
          "velocity": 0.905511811023622
        },
        {
          "duration": 0.11029400000000322,
          "durationTicks": 12,
          "midi": 77,
          "name": "F5",
          "ticks": 6698,
          "time": 61.562434333333336,
          "velocity": 0.9133858267716536
        },
        {
          "duration": 0.40441133333332857,
          "durationTicks": 44,
          "midi": 78,
          "name": "F#5",
          "ticks": 6722,
          "time": 61.783022333333335,
          "velocity": 0.9212598425196851
        },
        {
          "duration": 0.33088200000000256,
          "durationTicks": 36,
          "midi": 77,
          "name": "F5",
          "ticks": 6770,
          "time": 62.224198333333334,
          "velocity": 0.9291338582677166
        },
        {
          "duration": 0.33088199999999546,
          "durationTicks": 36,
          "midi": 75,
          "name": "D#5",
          "ticks": 6818,
          "time": 62.66537433333334,
          "velocity": 0.9133858267716536
        },
        {
          "duration": 0.33088199999999546,
          "durationTicks": 36,
          "midi": 73,
          "name": "C#5",
          "ticks": 6866,
          "time": 63.10655033333334,
          "velocity": 0.9212598425196851
        },
        {
          "duration": 0.35845549999999804,
          "durationTicks": 39,
          "midi": 72,
          "name": "C5",
          "ticks": 6914,
          "time": 63.54772633333334,
          "velocity": 0.952755905511811
        },
        {
          "duration": 0.10110283333332148,
          "durationTicks": 11,
          "midi": 68,
          "name": "G#4",
          "ticks": 6962,
          "time": 63.988902333333336,
          "velocity": 0.9133858267716536
        },
        {
          "duration": 0.7077198333333286,
          "durationTicks": 77,
          "midi": 75,
          "name": "D#5",
          "ticks": 6986,
          "time": 64.20949033333333,
          "velocity": 0.9212598425196851
        },
        {
          "duration": 0.3676466666666727,
          "durationTicks": 40,
          "midi": 75,
          "name": "D#5",
          "ticks": 7082,
          "time": 65.09184233333333,
          "velocity": 0.9291338582677166
        },
        {
          "duration": 0.11029399999999612,
          "durationTicks": 12,
          "midi": 73,
          "name": "C#5",
          "ticks": 7130,
          "time": 65.53301833333333,
          "velocity": 0.8661417322834646
        },
        {
          "duration": 0.2849261666666649,
          "durationTicks": 31,
          "midi": 75,
          "name": "D#5",
          "ticks": 7154,
          "time": 65.75360633333334,
          "velocity": 0.937007874015748
        },
        {
          "duration": 0.1746321666666688,
          "durationTicks": 19,
          "midi": 73,
          "name": "C#5",
          "ticks": 7202,
          "time": 66.19478233333334,
          "velocity": 0.9133858267716536
        },
        {
          "duration": 0.09191166666667527,
          "durationTicks": 10,
          "midi": 75,
          "name": "D#5",
          "ticks": 7226,
          "time": 66.41537033333333,
          "velocity": 0.9212598425196851
        },
        {
          "duration": 0.6249993333333208,
          "durationTicks": 68,
          "midi": 77,
          "name": "F5",
          "ticks": 7250,
          "time": 66.63595833333333,
          "velocity": 0.952755905511811
        },
        {
          "duration": 0.11948516666666364,
          "durationTicks": 13,
          "midi": 77,
          "name": "F5",
          "ticks": 7346,
          "time": 67.51831033333333,
          "velocity": 0.952755905511811
        },
        {
          "duration": 0.3033085,
          "durationTicks": 33,
          "midi": 77,
          "name": "F5",
          "ticks": 7370,
          "time": 67.73889833333332,
          "velocity": 0.952755905511811
        },
        {
          "duration": 0.11029400000001033,
          "durationTicks": 12,
          "midi": 78,
          "name": "F#5",
          "ticks": 7418,
          "time": 68.18007433333332,
          "velocity": 0.8976377952755905
        },
        {
          "duration": 0.33088200000000256,
          "durationTicks": 36,
          "midi": 70,
          "name": "A#4",
          "ticks": 7442,
          "time": 68.40066233333333,
          "velocity": 0.9291338582677166
        },
        {
          "duration": 0.32169083333333504,
          "durationTicks": 35,
          "midi": 78,
          "name": "F#5",
          "ticks": 7490,
          "time": 68.84183833333333,
          "velocity": 0.952755905511811
        },
        {
          "duration": 0.09191166666667527,
          "durationTicks": 10,
          "midi": 78,
          "name": "F#5",
          "ticks": 7538,
          "time": 69.28301433333333,
          "velocity": 0.952755905511811
        },
        {
          "duration": 0.33088200000000256,
          "durationTicks": 36,
          "midi": 80,
          "name": "G#5",
          "ticks": 7562,
          "time": 69.50360233333333,
          "velocity": 0.8976377952755905
        },
        {
          "duration": 0.15624983333331954,
          "durationTicks": 17,
          "midi": 72,
          "name": "C5",
          "ticks": 7610,
          "time": 69.94477833333333,
          "velocity": 0.937007874015748
        },
        {
          "duration": 0.33088200000000256,
          "durationTicks": 36,
          "midi": 72,
          "name": "C5",
          "ticks": 7634,
          "time": 70.16536633333332,
          "velocity": 0.9291338582677166
        },
        {
          "duration": 0.32169083333333504,
          "durationTicks": 35,
          "midi": 75,
          "name": "D#5",
          "ticks": 7682,
          "time": 70.60654233333332,
          "velocity": 0.9212598425196851
        },
        {
          "duration": 0.11029399999999612,
          "durationTicks": 12,
          "midi": 75,
          "name": "D#5",
          "ticks": 7730,
          "time": 71.04771833333334,
          "velocity": 0.952755905511811
        },
        {
          "duration": 0.8272050000000064,
          "durationTicks": 90,
          "midi": 75,
          "name": "D#5",
          "ticks": 7754,
          "time": 71.26830633333333,
          "velocity": 0.952755905511811
        },
        {
          "duration": 0.19301450000000386,
          "durationTicks": 21,
          "midi": 73,
          "name": "C#5",
          "ticks": 7874,
          "time": 72.37124633333333,
          "velocity": 0.9212598425196851
        },
        {
          "duration": 0.07352933333334022,
          "durationTicks": 8,
          "midi": 75,
          "name": "D#5",
          "ticks": 7898,
          "time": 72.59183433333332,
          "velocity": 0.952755905511811
        },
        {
          "duration": 0.94669016666667,
          "durationTicks": 103,
          "midi": 77,
          "name": "F5",
          "ticks": 7922,
          "time": 72.81242233333333,
          "velocity": 0.9606299212598425
        },
        {
          "duration": 0.11029399999999612,
          "durationTicks": 12,
          "midi": 68,
          "name": "G#4",
          "ticks": 8066,
          "time": 74.13595033333333,
          "velocity": 0.984251968503937
        },
        {
          "duration": 0.2113968333333247,
          "durationTicks": 23,
          "midi": 80,
          "name": "G#5",
          "ticks": 8090,
          "time": 74.35653833333333,
          "velocity": 0.952755905511811
        },
        {
          "duration": 0.2022056666666714,
          "durationTicks": 22,
          "midi": 78,
          "name": "F#5",
          "ticks": 8114,
          "time": 74.57712633333333,
          "velocity": 0.889763779527559
        },
        {
          "duration": 0.606617,
          "durationTicks": 66,
          "midi": 77,
          "name": "F5",
          "ticks": 8138,
          "time": 74.79771433333333,
          "velocity": 0.905511811023622
        },
        {
          "duration": 0.10110283333332859,
          "durationTicks": 11,
          "midi": 77,
          "name": "F5",
          "ticks": 8234,
          "time": 75.68006633333333,
          "velocity": 0.952755905511811
        },
        {
          "duration": 0.376837833333326,
          "durationTicks": 41,
          "midi": 78,
          "name": "F#5",
          "ticks": 8258,
          "time": 75.90065433333334,
          "velocity": 0.9212598425196851
        },
        {
          "duration": 0.33088199999998835,
          "durationTicks": 36,
          "midi": 77,
          "name": "F5",
          "ticks": 8306,
          "time": 76.34183033333333,
          "velocity": 0.9212598425196851
        },
        {
          "duration": 0.3676466666666727,
          "durationTicks": 40,
          "midi": 75,
          "name": "D#5",
          "ticks": 8354,
          "time": 76.78300633333333,
          "velocity": 0.84251968503937
        },
        {
          "duration": 0.3124996666666675,
          "durationTicks": 34,
          "midi": 73,
          "name": "C#5",
          "ticks": 8402,
          "time": 77.22418233333333,
          "velocity": 0.8976377952755905
        },
        {
          "duration": 0.29411733333333245,
          "durationTicks": 32,
          "midi": 72,
          "name": "C5",
          "ticks": 8450,
          "time": 77.66535833333333,
          "velocity": 0.952755905511811
        },
        {
          "duration": 0.1746321666666688,
          "durationTicks": 19,
          "midi": 68,
          "name": "G#4",
          "ticks": 8498,
          "time": 78.10653433333333,
          "velocity": 0.9133858267716536
        },
        {
          "duration": 0.7261021666666636,
          "durationTicks": 79,
          "midi": 75,
          "name": "D#5",
          "ticks": 8522,
          "time": 78.32712233333334,
          "velocity": 0.9212598425196851
        },
        {
          "duration": 0.3676466666666727,
          "durationTicks": 40,
          "midi": 75,
          "name": "D#5",
          "ticks": 8618,
          "time": 79.20947433333333,
          "velocity": 0.905511811023622
        },
        {
          "duration": 0.18382333333332213,
          "durationTicks": 20,
          "midi": 73,
          "name": "C#5",
          "ticks": 8666,
          "time": 79.65065033333333,
          "velocity": 0.9212598425196851
        },
        {
          "duration": 0.4411760000000129,
          "durationTicks": 48,
          "midi": 75,
          "name": "D#5",
          "ticks": 8690,
          "time": 79.87123833333332,
          "velocity": 0.937007874015748
        },
        {
          "duration": 0.10110283333332859,
          "durationTicks": 11,
          "midi": 73,
          "name": "C#5",
          "ticks": 8738,
          "time": 80.31241433333334,
          "velocity": 0.9133858267716536
        },
        {
          "duration": 0.16544100000000128,
          "durationTicks": 18,
          "midi": 75,
          "name": "D#5",
          "ticks": 8762,
          "time": 80.53300233333333,
          "velocity": 0.9212598425196851
        },
        {
          "duration": 0.6249993333333208,
          "durationTicks": 68,
          "midi": 77,
          "name": "F5",
          "ticks": 8786,
          "time": 80.75359033333334,
          "velocity": 0.952755905511811
        },
        {
          "duration": 0.14705866666666623,
          "durationTicks": 16,
          "midi": 77,
          "name": "F5",
          "ticks": 8882,
          "time": 81.63594233333333,
          "velocity": 0.952755905511811
        },
        {
          "duration": 0.32169083333333504,
          "durationTicks": 35,
          "midi": 77,
          "name": "F5",
          "ticks": 8906,
          "time": 81.85653033333332,
          "velocity": 0.952755905511811
        },
        {
          "duration": 0.16544100000000128,
          "durationTicks": 18,
          "midi": 70,
          "name": "A#4",
          "ticks": 8954,
          "time": 82.29770633333332,
          "velocity": 0.8976377952755905
        },
        {
          "duration": 0.4136024999999961,
          "durationTicks": 45,
          "midi": 73,
          "name": "C#5",
          "ticks": 8978,
          "time": 82.51829433333333,
          "velocity": 0.9291338582677166
        },
        {
          "duration": 0.3033085,
          "durationTicks": 33,
          "midi": 75,
          "name": "D#5",
          "ticks": 9026,
          "time": 82.95947033333333,
          "velocity": 0.952755905511811
        },
        {
          "duration": 0.3400731666666701,
          "durationTicks": 37,
          "midi": 80,
          "name": "G#5",
          "ticks": 9074,
          "time": 83.40064633333333,
          "velocity": 0.968503937007874
        },
        {
          "duration": 0.19301450000000386,
          "durationTicks": 21,
          "midi": 80,
          "name": "G#5",
          "ticks": 9122,
          "time": 83.84182233333333,
          "velocity": 0.889763779527559
        },
        {
          "duration": 0.10110283333332859,
          "durationTicks": 11,
          "midi": 78,
          "name": "F#5",
          "ticks": 9146,
          "time": 84.06241033333333,
          "velocity": 0.905511811023622
        },
        {
          "duration": 0.19301450000000386,
          "durationTicks": 21,
          "midi": 78,
          "name": "F#5",
          "ticks": 9170,
          "time": 84.28299833333332,
          "velocity": 0.9212598425196851
        },
        {
          "duration": 0.11948516666666364,
          "durationTicks": 13,
          "midi": 77,
          "name": "F5",
          "ticks": 9194,
          "time": 84.50358633333333,
          "velocity": 0.9763779527559056
        },
        {
          "duration": 0.18382333333333634,
          "durationTicks": 20,
          "midi": 75,
          "name": "D#5",
          "ticks": 9218,
          "time": 84.72417433333332,
          "velocity": 0.9291338582677166
        },
        {
          "duration": 0.19301450000000386,
          "durationTicks": 21,
          "midi": 78,
          "name": "F#5",
          "ticks": 9242,
          "time": 84.94476233333333,
          "velocity": 0.952755905511811
        },
        {
          "duration": 2.1231595,
          "durationTicks": 231,
          "midi": 77,
          "name": "F5",
          "ticks": 9266,
          "time": 85.16535033333334,
          "velocity": 0.968503937007874
        },
        {
          "duration": 0.35845550000000515,
          "durationTicks": 39,
          "midi": 77,
          "name": "F5",
          "ticks": 9722,
          "time": 89.35652233333333,
          "velocity": 0.8661417322834646
        },
        {
          "duration": 0.35845550000000515,
          "durationTicks": 39,
          "midi": 77,
          "name": "F5",
          "ticks": 9770,
          "time": 89.79769833333333,
          "velocity": 0.9212598425196851
        },
        {
          "duration": 0.19301450000000386,
          "durationTicks": 21,
          "midi": 75,
          "name": "D#5",
          "ticks": 9818,
          "time": 90.23887433333333,
          "velocity": 0.8661417322834646
        },
        {
          "duration": 0.19301449999998965,
          "durationTicks": 21,
          "midi": 73,
          "name": "C#5",
          "ticks": 9842,
          "time": 90.45946233333333,
          "velocity": 0.8503937007874016
        },
        {
          "duration": 0.3676466666666727,
          "durationTicks": 40,
          "midi": 75,
          "name": "D#5",
          "ticks": 9866,
          "time": 90.68005033333333,
          "velocity": 0.8976377952755905
        },
        {
          "duration": 0.35845550000000515,
          "durationTicks": 39,
          "midi": 77,
          "name": "F5",
          "ticks": 9914,
          "time": 91.12122633333333,
          "velocity": 0.889763779527559
        },
        {
          "duration": 0.3676466666666727,
          "durationTicks": 40,
          "midi": 75,
          "name": "D#5",
          "ticks": 9962,
          "time": 91.56240233333332,
          "velocity": 0.9212598425196851
        },
        {
          "duration": 0.35845550000000515,
          "durationTicks": 39,
          "midi": 73,
          "name": "C#5",
          "ticks": 10010,
          "time": 92.00357833333332,
          "velocity": 0.8661417322834646
        },
        {
          "duration": 1.0569841666666662,
          "durationTicks": 115,
          "midi": 73,
          "name": "C#5",
          "ticks": 10058,
          "time": 92.44475433333334,
          "velocity": 0.8818897637795275
        },
        {
          "duration": 0.22058800000000645,
          "durationTicks": 24,
          "midi": 68,
          "name": "G#4",
          "ticks": 10178,
          "time": 93.54769433333333,
          "velocity": 0.8818897637795275
        },
        {
          "duration": 0.2022056666666714,
          "durationTicks": 22,
          "midi": 70,
          "name": "A#4",
          "ticks": 10202,
          "time": 93.76828233333333,
          "velocity": 0.8503937007874016
        },
        {
          "duration": 0.21139683333333892,
          "durationTicks": 23,
          "midi": 68,
          "name": "G#4",
          "ticks": 10226,
          "time": 93.98887033333332,
          "velocity": 0.8818897637795275
        },
        {
          "duration": 1.5441160000000025,
          "durationTicks": 168,
          "midi": 68,
          "name": "G#4",
          "ticks": 10250,
          "time": 94.20945833333333,
          "velocity": 0.8818897637795275
        },
        {
          "duration": 0.3860290000000077,
          "durationTicks": 42,
          "midi": 77,
          "name": "F5",
          "ticks": 10490,
          "time": 96.41533833333332,
          "velocity": 0.8661417322834646
        },
        {
          "duration": 0.376837833333326,
          "durationTicks": 41,
          "midi": 77,
          "name": "F5",
          "ticks": 10538,
          "time": 96.85651433333334,
          "velocity": 0.8661417322834646
        },
        {
          "duration": 0.15624983333331954,
          "durationTicks": 17,
          "midi": 75,
          "name": "D#5",
          "ticks": 10586,
          "time": 97.29769033333334,
          "velocity": 0.8661417322834646
        },
        {
          "duration": 0.2113968333333247,
          "durationTicks": 23,
          "midi": 73,
          "name": "C#5",
          "ticks": 10610,
          "time": 97.51827833333333,
          "velocity": 0.905511811023622
        },
        {
          "duration": 0.3676466666666727,
          "durationTicks": 40,
          "midi": 75,
          "name": "D#5",
          "ticks": 10634,
          "time": 97.73886633333333,
          "velocity": 0.8976377952755905
        },
        {
          "duration": 0.33088200000000256,
          "durationTicks": 36,
          "midi": 77,
          "name": "F5",
          "ticks": 10682,
          "time": 98.18004233333333,
          "velocity": 0.8661417322834646
        },
        {
          "duration": 0.4136024999999961,
          "durationTicks": 45,
          "midi": 75,
          "name": "D#5",
          "ticks": 10730,
          "time": 98.62121833333333,
          "velocity": 0.889763779527559
        },
        {
          "duration": 0.3400731666666701,
          "durationTicks": 37,
          "midi": 73,
          "name": "C#5",
          "ticks": 10778,
          "time": 99.06239433333333,
          "velocity": 0.9212598425196851
        },
        {
          "duration": 2.0404390000000063,
          "durationTicks": 222,
          "midi": 73,
          "name": "C#5",
          "ticks": 10826,
          "time": 99.50357033333333,
          "velocity": 0.8818897637795275
        },
        {
          "duration": 0.35845549999999093,
          "durationTicks": 39,
          "midi": 78,
          "name": "F#5",
          "ticks": 11066,
          "time": 101.70945033333334,
          "velocity": 0.9133858267716536
        },
        {
          "duration": 0.35845549999999093,
          "durationTicks": 39,
          "midi": 77,
          "name": "F5",
          "ticks": 11114,
          "time": 102.15062633333334,
          "velocity": 0.905511811023622
        },
        {
          "duration": 0.22058799999999223,
          "durationTicks": 24,
          "midi": 75,
          "name": "D#5",
          "ticks": 11162,
          "time": 102.59180233333333,
          "velocity": 0.8818897637795275
        },
        {
          "duration": 0.1378674999999987,
          "durationTicks": 15,
          "midi": 73,
          "name": "C#5",
          "ticks": 11186,
          "time": 102.81239033333333,
          "velocity": 0.9133858267716536
        },
        {
          "duration": 0.19301450000000386,
          "durationTicks": 21,
          "midi": 68,
          "name": "G#4",
          "ticks": 14978,
          "time": 137.66529433333335,
          "velocity": 0.8818897637795275
        },
        {
          "duration": 0.21139683333333892,
          "durationTicks": 23,
          "midi": 80,
          "name": "G#5",
          "ticks": 15002,
          "time": 137.88588233333334,
          "velocity": 0.9133858267716536
        },
        {
          "duration": 0.10110283333335701,
          "durationTicks": 11,
          "midi": 78,
          "name": "F#5",
          "ticks": 15026,
          "time": 138.10647033333333,
          "velocity": 0.8740157480314961
        },
        {
          "duration": 0.7352933333333453,
          "durationTicks": 80,
          "midi": 77,
          "name": "F5",
          "ticks": 15050,
          "time": 138.32705833333335,
          "velocity": 0.905511811023622
        },
        {
          "duration": 0.1102939999999819,
          "durationTicks": 12,
          "midi": 77,
          "name": "F5",
          "ticks": 15146,
          "time": 139.20941033333335,
          "velocity": 0.9133858267716536
        },
        {
          "duration": 0.3676466666666727,
          "durationTicks": 40,
          "midi": 78,
          "name": "F#5",
          "ticks": 15170,
          "time": 139.42999833333334,
          "velocity": 0.9212598425196851
        },
        {
          "duration": 0.36764666666664425,
          "durationTicks": 40,
          "midi": 77,
          "name": "F5",
          "ticks": 15218,
          "time": 139.87117433333336,
          "velocity": 0.9291338582677166
        },
        {
          "duration": 0.33088200000000256,
          "durationTicks": 36,
          "midi": 75,
          "name": "D#5",
          "ticks": 15266,
          "time": 140.31235033333334,
          "velocity": 0.8661417322834646
        },
        {
          "duration": 0.33088200000000256,
          "durationTicks": 36,
          "midi": 73,
          "name": "C#5",
          "ticks": 15314,
          "time": 140.75352633333335,
          "velocity": 0.9212598425196851
        },
        {
          "duration": 0.3400731666666559,
          "durationTicks": 37,
          "midi": 72,
          "name": "C5",
          "ticks": 15362,
          "time": 141.19470233333334,
          "velocity": 0.84251968503937
        },
        {
          "duration": 0.10110283333332859,
          "durationTicks": 11,
          "midi": 68,
          "name": "G#4",
          "ticks": 15410,
          "time": 141.63587833333335,
          "velocity": 0.9133858267716536
        },
        {
          "duration": 0.5147053333333531,
          "durationTicks": 56,
          "midi": 75,
          "name": "D#5",
          "ticks": 15434,
          "time": 141.85646633333334,
          "velocity": 0.8976377952755905
        },
        {
          "duration": 0.08272049999999354,
          "durationTicks": 9,
          "midi": 75,
          "name": "D#5",
          "ticks": 15506,
          "time": 142.51823033333335,
          "velocity": 0.8661417322834646
        },
        {
          "duration": 0.3676466666666727,
          "durationTicks": 40,
          "midi": 75,
          "name": "D#5",
          "ticks": 15530,
          "time": 142.73881833333334,
          "velocity": 0.905511811023622
        },
        {
          "duration": 0.19301450000000386,
          "durationTicks": 21,
          "midi": 73,
          "name": "C#5",
          "ticks": 15578,
          "time": 143.17999433333335,
          "velocity": 0.8503937007874016
        },
        {
          "duration": 0.3768378333333544,
          "durationTicks": 41,
          "midi": 75,
          "name": "D#5",
          "ticks": 15602,
          "time": 143.40058233333335,
          "velocity": 0.905511811023622
        },
        {
          "duration": 0.20220566666665718,
          "durationTicks": 22,
          "midi": 73,
          "name": "C#5",
          "ticks": 15650,
          "time": 143.84175833333336,
          "velocity": 0.8818897637795275
        },
        {
          "duration": 0.15624983333333375,
          "durationTicks": 17,
          "midi": 75,
          "name": "D#5",
          "ticks": 15674,
          "time": 144.06234633333335,
          "velocity": 0.8976377952755905
        },
        {
          "duration": 0.6433816666666701,
          "durationTicks": 70,
          "midi": 77,
          "name": "F5",
          "ticks": 15698,
          "time": 144.28293433333334,
          "velocity": 0.905511811023622
        },
        {
          "duration": 0.1654410000000155,
          "durationTicks": 18,
          "midi": 77,
          "name": "F5",
          "ticks": 15794,
          "time": 145.16528633333334,
          "velocity": 0.889763779527559
        },
        {
          "duration": 0.3033085000000142,
          "durationTicks": 33,
          "midi": 77,
          "name": "F5",
          "ticks": 15818,
          "time": 145.38587433333333,
          "velocity": 0.952755905511811
        },
        {
          "duration": 0.11029400000001033,
          "durationTicks": 12,
          "midi": 78,
          "name": "F#5",
          "ticks": 15866,
          "time": 145.82705033333335,
          "velocity": 0.8976377952755905
        },
        {
          "duration": 0.33088200000000256,
          "durationTicks": 36,
          "midi": 70,
          "name": "A#4",
          "ticks": 15890,
          "time": 146.04763833333334,
          "velocity": 0.9291338582677166
        },
        {
          "duration": 0.32169083333334925,
          "durationTicks": 35,
          "midi": 78,
          "name": "F#5",
          "ticks": 15938,
          "time": 146.48881433333335,
          "velocity": 0.952755905511811
        },
        {
          "duration": 0.09191166666667527,
          "durationTicks": 10,
          "midi": 78,
          "name": "F#5",
          "ticks": 15986,
          "time": 146.92999033333334,
          "velocity": 0.952755905511811
        },
        {
          "duration": 0.33088200000000256,
          "durationTicks": 36,
          "midi": 80,
          "name": "G#5",
          "ticks": 16010,
          "time": 147.15057833333336,
          "velocity": 0.8976377952755905
        },
        {
          "duration": 0.1746321666666688,
          "durationTicks": 19,
          "midi": 72,
          "name": "C5",
          "ticks": 16058,
          "time": 147.59175433333334,
          "velocity": 0.937007874015748
        },
        {
          "duration": 0.33088200000000256,
          "durationTicks": 36,
          "midi": 72,
          "name": "C5",
          "ticks": 16082,
          "time": 147.81234233333333,
          "velocity": 0.9291338582677166
        },
        {
          "duration": 0.32169083333334925,
          "durationTicks": 35,
          "midi": 75,
          "name": "D#5",
          "ticks": 16130,
          "time": 148.25351833333335,
          "velocity": 0.9212598425196851
        },
        {
          "duration": 0.15624983333333375,
          "durationTicks": 17,
          "midi": 75,
          "name": "D#5",
          "ticks": 16178,
          "time": 148.69469433333336,
          "velocity": 0.952755905511811
        },
        {
          "duration": 0.9926460000000077,
          "durationTicks": 108,
          "midi": 75,
          "name": "D#5",
          "ticks": 16202,
          "time": 148.91528233333335,
          "velocity": 0.9212598425196851
        },
        {
          "duration": 0.15624983333333375,
          "durationTicks": 17,
          "midi": 73,
          "name": "C#5",
          "ticks": 16322,
          "time": 150.01822233333334,
          "velocity": 0.9212598425196851
        },
        {
          "duration": 0.15624983333336218,
          "durationTicks": 17,
          "midi": 75,
          "name": "D#5",
          "ticks": 16346,
          "time": 150.23881033333333,
          "velocity": 0.952755905511811
        },
        {
          "duration": 0.9926459999999793,
          "durationTicks": 108,
          "midi": 77,
          "name": "F5",
          "ticks": 16370,
          "time": 150.45939833333335,
          "velocity": 0.9606299212598425
        },
        {
          "duration": 0.11029400000001033,
          "durationTicks": 12,
          "midi": 68,
          "name": "G#4",
          "ticks": 16514,
          "time": 151.78292633333334,
          "velocity": 0.984251968503937
        },
        {
          "duration": 0.21139683333333892,
          "durationTicks": 23,
          "midi": 80,
          "name": "G#5",
          "ticks": 16538,
          "time": 152.00351433333336,
          "velocity": 0.952755905511811
        },
        {
          "duration": 0.20220566666665718,
          "durationTicks": 22,
          "midi": 78,
          "name": "F#5",
          "ticks": 16562,
          "time": 152.22410233333335,
          "velocity": 0.889763779527559
        },
        {
          "duration": 0.606617,
          "durationTicks": 66,
          "midi": 77,
          "name": "F5",
          "ticks": 16586,
          "time": 152.44469033333334,
          "velocity": 0.905511811023622
        },
        {
          "duration": 0.10110283333335701,
          "durationTicks": 11,
          "midi": 77,
          "name": "F5",
          "ticks": 16682,
          "time": 153.32704233333334,
          "velocity": 0.952755905511811
        },
        {
          "duration": 0.376837833333326,
          "durationTicks": 41,
          "midi": 78,
          "name": "F#5",
          "ticks": 16706,
          "time": 153.54763033333336,
          "velocity": 0.9212598425196851
        },
        {
          "duration": 0.33088200000000256,
          "durationTicks": 36,
          "midi": 77,
          "name": "F5",
          "ticks": 16754,
          "time": 153.98880633333334,
          "velocity": 0.9212598425196851
        },
        {
          "duration": 0.36764666666664425,
          "durationTicks": 40,
          "midi": 75,
          "name": "D#5",
          "ticks": 16802,
          "time": 154.42998233333336,
          "velocity": 0.84251968503937
        },
        {
          "duration": 0.3124996666666675,
          "durationTicks": 34,
          "midi": 73,
          "name": "C#5",
          "ticks": 16850,
          "time": 154.87115833333334,
          "velocity": 0.8976377952755905
        },
        {
          "duration": 0.29411733333333245,
          "durationTicks": 32,
          "midi": 72,
          "name": "C5",
          "ticks": 16898,
          "time": 155.31233433333335,
          "velocity": 0.952755905511811
        },
        {
          "duration": 0.1746321666666688,
          "durationTicks": 19,
          "midi": 68,
          "name": "G#4",
          "ticks": 16946,
          "time": 155.75351033333334,
          "velocity": 0.9133858267716536
        },
        {
          "duration": 0.7261021666666352,
          "durationTicks": 79,
          "midi": 75,
          "name": "D#5",
          "ticks": 16970,
          "time": 155.97409833333336,
          "velocity": 0.9212598425196851
        },
        {
          "duration": 0.36764666666664425,
          "durationTicks": 40,
          "midi": 75,
          "name": "D#5",
          "ticks": 17066,
          "time": 156.85645033333336,
          "velocity": 0.905511811023622
        },
        {
          "duration": 0.14705866666665202,
          "durationTicks": 16,
          "midi": 73,
          "name": "C#5",
          "ticks": 17114,
          "time": 157.29762633333334,
          "velocity": 0.9212598425196851
        },
        {
          "duration": 0.4411760000000129,
          "durationTicks": 48,
          "midi": 75,
          "name": "D#5",
          "ticks": 17138,
          "time": 157.51821433333333,
          "velocity": 0.937007874015748
        },
        {
          "duration": 0.10110283333332859,
          "durationTicks": 11,
          "midi": 73,
          "name": "C#5",
          "ticks": 17186,
          "time": 157.95939033333335,
          "velocity": 0.9133858267716536
        },
        {
          "duration": 0.1654410000000155,
          "durationTicks": 18,
          "midi": 75,
          "name": "D#5",
          "ticks": 17210,
          "time": 158.17997833333334,
          "velocity": 0.9212598425196851
        },
        {
          "duration": 0.624999333333335,
          "durationTicks": 68,
          "midi": 77,
          "name": "F5",
          "ticks": 17234,
          "time": 158.40056633333336,
          "velocity": 0.952755905511811
        },
        {
          "duration": 0.14705866666665202,
          "durationTicks": 16,
          "midi": 77,
          "name": "F5",
          "ticks": 17330,
          "time": 159.28291833333336,
          "velocity": 0.952755905511811
        },
        {
          "duration": 0.32169083333334925,
          "durationTicks": 35,
          "midi": 77,
          "name": "F5",
          "ticks": 17354,
          "time": 159.50350633333335,
          "velocity": 0.952755905511811
        },
        {
          "duration": 0.1654410000000155,
          "durationTicks": 18,
          "midi": 70,
          "name": "A#4",
          "ticks": 17402,
          "time": 159.94468233333333,
          "velocity": 0.8976377952755905
        },
        {
          "duration": 0.4136024999999961,
          "durationTicks": 45,
          "midi": 73,
          "name": "C#5",
          "ticks": 17426,
          "time": 160.16527033333335,
          "velocity": 0.9291338582677166
        },
        {
          "duration": 0.3033085000000142,
          "durationTicks": 33,
          "midi": 75,
          "name": "D#5",
          "ticks": 17474,
          "time": 160.60644633333334,
          "velocity": 0.952755905511811
        },
        {
          "duration": 0.3400731666666559,
          "durationTicks": 37,
          "midi": 80,
          "name": "G#5",
          "ticks": 17522,
          "time": 161.04762233333335,
          "velocity": 0.968503937007874
        },
        {
          "duration": 0.19301450000000386,
          "durationTicks": 21,
          "midi": 80,
          "name": "G#5",
          "ticks": 17570,
          "time": 161.48879833333334,
          "velocity": 0.889763779527559
        },
        {
          "duration": 0.14705866666665202,
          "durationTicks": 16,
          "midi": 78,
          "name": "F#5",
          "ticks": 17594,
          "time": 161.70938633333336,
          "velocity": 0.905511811023622
        },
        {
          "duration": 0.19301450000000386,
          "durationTicks": 21,
          "midi": 78,
          "name": "F#5",
          "ticks": 17618,
          "time": 161.92997433333335,
          "velocity": 0.9212598425196851
        },
        {
          "duration": 0.11948516666666364,
          "durationTicks": 13,
          "midi": 77,
          "name": "F5",
          "ticks": 17642,
          "time": 162.15056233333334,
          "velocity": 0.9763779527559056
        },
        {
          "duration": 0.18382333333335055,
          "durationTicks": 20,
          "midi": 75,
          "name": "D#5",
          "ticks": 17666,
          "time": 162.37115033333333,
          "velocity": 0.9291338582677166
        },
        {
          "duration": 0.19301450000000386,
          "durationTicks": 21,
          "midi": 78,
          "name": "F#5",
          "ticks": 17690,
          "time": 162.59173833333335,
          "velocity": 0.952755905511811
        },
        {
          "duration": 1.9761008333333336,
          "durationTicks": 215,
          "midi": 77,
          "name": "F5",
          "ticks": 17714,
          "time": 162.81232633333335,
          "velocity": 0.968503937007874
        },
        {
          "duration": 0.19301450000000386,
          "durationTicks": 21,
          "midi": 68,
          "name": "G#4",
          "ticks": 18050,
          "time": 165.90055833333335,
          "velocity": 0.8818897637795275
        },
        {
          "duration": 0.21139683333333892,
          "durationTicks": 23,
          "midi": 80,
          "name": "G#5",
          "ticks": 18074,
          "time": 166.12114633333334,
          "velocity": 0.9133858267716536
        },
        {
          "duration": 0.10110283333335701,
          "durationTicks": 11,
          "midi": 78,
          "name": "F#5",
          "ticks": 18098,
          "time": 166.34173433333333,
          "velocity": 0.8740157480314961
        },
        {
          "duration": 0.44117599999998447,
          "durationTicks": 48,
          "midi": 77,
          "name": "F5",
          "ticks": 18122,
          "time": 166.56232233333336,
          "velocity": 0.905511811023622
        },
        {
          "duration": 0.14705866666665202,
          "durationTicks": 16,
          "midi": 77,
          "name": "F5",
          "ticks": 18218,
          "time": 167.44467433333335,
          "velocity": 0.9133858267716536
        },
        {
          "duration": 0.4044113333333428,
          "durationTicks": 44,
          "midi": 78,
          "name": "F#5",
          "ticks": 18242,
          "time": 167.66526233333335,
          "velocity": 0.9212598425196851
        },
        {
          "duration": 0.35845549999999093,
          "durationTicks": 39,
          "midi": 77,
          "name": "F5",
          "ticks": 18290,
          "time": 168.10643833333336,
          "velocity": 0.9291338582677166
        },
        {
          "duration": 0.3676466666666727,
          "durationTicks": 40,
          "midi": 75,
          "name": "D#5",
          "ticks": 18338,
          "time": 168.54761433333334,
          "velocity": 0.9133858267716536
        },
        {
          "duration": 0.33088200000000256,
          "durationTicks": 36,
          "midi": 73,
          "name": "C#5",
          "ticks": 18386,
          "time": 168.98879033333336,
          "velocity": 0.9212598425196851
        },
        {
          "duration": 0.35845550000001936,
          "durationTicks": 39,
          "midi": 72,
          "name": "C5",
          "ticks": 18434,
          "time": 169.42996633333334,
          "velocity": 0.952755905511811
        },
        {
          "duration": 0.10110283333332859,
          "durationTicks": 11,
          "midi": 68,
          "name": "G#4",
          "ticks": 18482,
          "time": 169.87114233333335,
          "velocity": 0.9133858267716536
        },
        {
          "duration": 0.707719833333357,
          "durationTicks": 77,
          "midi": 75,
          "name": "D#5",
          "ticks": 18506,
          "time": 170.09173033333335,
          "velocity": 0.9212598425196851
        },
        {
          "duration": 0.3676466666666727,
          "durationTicks": 40,
          "midi": 75,
          "name": "D#5",
          "ticks": 18602,
          "time": 170.97408233333334,
          "velocity": 0.9291338582677166
        },
        {
          "duration": 0.1378674999999987,
          "durationTicks": 15,
          "midi": 73,
          "name": "C#5",
          "ticks": 18650,
          "time": 171.41525833333336,
          "velocity": 0.8661417322834646
        },
        {
          "duration": 0.2849261666666507,
          "durationTicks": 31,
          "midi": 75,
          "name": "D#5",
          "ticks": 18674,
          "time": 171.63584633333335,
          "velocity": 0.937007874015748
        },
        {
          "duration": 0.1746321666666404,
          "durationTicks": 19,
          "midi": 73,
          "name": "C#5",
          "ticks": 18722,
          "time": 172.07702233333336,
          "velocity": 0.9133858267716536
        },
        {
          "duration": 0.1102939999999819,
          "durationTicks": 12,
          "midi": 75,
          "name": "D#5",
          "ticks": 18746,
          "time": 172.29761033333335,
          "velocity": 0.9212598425196851
        },
        {
          "duration": 0.624999333333335,
          "durationTicks": 68,
          "midi": 77,
          "name": "F5",
          "ticks": 18770,
          "time": 172.51819833333334,
          "velocity": 0.952755905511811
        },
        {
          "duration": 0.11029400000001033,
          "durationTicks": 12,
          "midi": 77,
          "name": "F5",
          "ticks": 18866,
          "time": 173.40055033333334,
          "velocity": 0.952755905511811
        },
        {
          "duration": 0.3033085000000142,
          "durationTicks": 33,
          "midi": 77,
          "name": "F5",
          "ticks": 18890,
          "time": 173.62113833333333,
          "velocity": 0.952755905511811
        },
        {
          "duration": 0.11029400000001033,
          "durationTicks": 12,
          "midi": 78,
          "name": "F#5",
          "ticks": 18938,
          "time": 174.06231433333335,
          "velocity": 0.8976377952755905
        },
        {
          "duration": 0.33088200000000256,
          "durationTicks": 36,
          "midi": 70,
          "name": "A#4",
          "ticks": 18962,
          "time": 174.28290233333334,
          "velocity": 0.9291338582677166
        },
        {
          "duration": 0.32169083333334925,
          "durationTicks": 35,
          "midi": 78,
          "name": "F#5",
          "ticks": 19010,
          "time": 174.72407833333335,
          "velocity": 0.952755905511811
        },
        {
          "duration": 0.09191166666667527,
          "durationTicks": 10,
          "midi": 78,
          "name": "F#5",
          "ticks": 19058,
          "time": 175.16525433333334,
          "velocity": 0.952755905511811
        },
        {
          "duration": 0.36764666666664425,
          "durationTicks": 40,
          "midi": 80,
          "name": "G#5",
          "ticks": 19082,
          "time": 175.38584233333336,
          "velocity": 0.8976377952755905
        },
        {
          "duration": 0.1378674999999987,
          "durationTicks": 15,
          "midi": 72,
          "name": "C5",
          "ticks": 19130,
          "time": 175.82701833333334,
          "velocity": 0.937007874015748
        },
        {
          "duration": 0.33088200000000256,
          "durationTicks": 36,
          "midi": 72,
          "name": "C5",
          "ticks": 19154,
          "time": 176.04760633333333,
          "velocity": 0.9291338582677166
        },
        {
          "duration": 0.32169083333334925,
          "durationTicks": 35,
          "midi": 75,
          "name": "D#5",
          "ticks": 19202,
          "time": 176.48878233333335,
          "velocity": 0.9212598425196851
        },
        {
          "duration": 0.1102939999999819,
          "durationTicks": 12,
          "midi": 75,
          "name": "D#5",
          "ticks": 19250,
          "time": 176.92995833333336,
          "velocity": 0.952755905511811
        },
        {
          "duration": 0.8272049999999922,
          "durationTicks": 90,
          "midi": 75,
          "name": "D#5",
          "ticks": 19274,
          "time": 177.15054633333335,
          "velocity": 0.952755905511811
        },
        {
          "duration": 0.19301450000000386,
          "durationTicks": 21,
          "midi": 73,
          "name": "C#5",
          "ticks": 19394,
          "time": 178.25348633333334,
          "velocity": 0.9212598425196851
        },
        {
          "duration": 0.07352933333334022,
          "durationTicks": 8,
          "midi": 75,
          "name": "D#5",
          "ticks": 19418,
          "time": 178.47407433333333,
          "velocity": 0.952755905511811
        },
        {
          "duration": 0.9283078333333208,
          "durationTicks": 101,
          "midi": 77,
          "name": "F5",
          "ticks": 19442,
          "time": 178.69466233333335,
          "velocity": 0.9606299212598425
        },
        {
          "duration": 0.09191166666667527,
          "durationTicks": 10,
          "midi": 68,
          "name": "G#4",
          "ticks": 19586,
          "time": 180.01819033333334,
          "velocity": 0.984251968503937
        },
        {
          "duration": 0.21139683333333892,
          "durationTicks": 23,
          "midi": 80,
          "name": "G#5",
          "ticks": 19610,
          "time": 180.23877833333336,
          "velocity": 0.952755905511811
        },
        {
          "duration": 0.20220566666665718,
          "durationTicks": 22,
          "midi": 78,
          "name": "F#5",
          "ticks": 19634,
          "time": 180.45936633333335,
          "velocity": 0.889763779527559
        },
        {
          "duration": 0.606617,
          "durationTicks": 66,
          "midi": 77,
          "name": "F5",
          "ticks": 19658,
          "time": 180.67995433333334,
          "velocity": 0.905511811023622
        },
        {
          "duration": 0.10110283333335701,
          "durationTicks": 11,
          "midi": 77,
          "name": "F5",
          "ticks": 19754,
          "time": 181.56230633333334,
          "velocity": 0.952755905511811
        },
        {
          "duration": 0.376837833333326,
          "durationTicks": 41,
          "midi": 78,
          "name": "F#5",
          "ticks": 19778,
          "time": 181.78289433333336,
          "velocity": 0.9212598425196851
        },
        {
          "duration": 0.33088200000000256,
          "durationTicks": 36,
          "midi": 77,
          "name": "F5",
          "ticks": 19826,
          "time": 182.22407033333334,
          "velocity": 0.9212598425196851
        },
        {
          "duration": 0.36764666666664425,
          "durationTicks": 40,
          "midi": 75,
          "name": "D#5",
          "ticks": 19874,
          "time": 182.66524633333336,
          "velocity": 0.84251968503937
        },
        {
          "duration": 0.3124996666666675,
          "durationTicks": 34,
          "midi": 73,
          "name": "C#5",
          "ticks": 19922,
          "time": 183.10642233333334,
          "velocity": 0.8976377952755905
        },
        {
          "duration": 0.29411733333333245,
          "durationTicks": 32,
          "midi": 72,
          "name": "C5",
          "ticks": 19970,
          "time": 183.54759833333335,
          "velocity": 0.952755905511811
        },
        {
          "duration": 0.19301450000000386,
          "durationTicks": 21,
          "midi": 68,
          "name": "G#4",
          "ticks": 20018,
          "time": 183.98877433333334,
          "velocity": 0.9133858267716536
        },
        {
          "duration": 0.7261021666666352,
          "durationTicks": 79,
          "midi": 75,
          "name": "D#5",
          "ticks": 20042,
          "time": 184.20936233333336,
          "velocity": 0.9212598425196851
        },
        {
          "duration": 0.36764666666664425,
          "durationTicks": 40,
          "midi": 75,
          "name": "D#5",
          "ticks": 20138,
          "time": 185.09171433333336,
          "velocity": 0.905511811023622
        },
        {
          "duration": 0.14705866666665202,
          "durationTicks": 16,
          "midi": 73,
          "name": "C#5",
          "ticks": 20186,
          "time": 185.53289033333334,
          "velocity": 0.9212598425196851
        },
        {
          "duration": 0.4411760000000129,
          "durationTicks": 48,
          "midi": 75,
          "name": "D#5",
          "ticks": 20210,
          "time": 185.75347833333333,
          "velocity": 0.937007874015748
        },
        {
          "duration": 0.11948516666666364,
          "durationTicks": 13,
          "midi": 80,
          "name": "G#5",
          "ticks": 20258,
          "time": 186.19465433333335,
          "velocity": 0.952755905511811
        },
        {
          "duration": 0.19301450000000386,
          "durationTicks": 21,
          "midi": 78,
          "name": "F#5",
          "ticks": 20282,
          "time": 186.41524233333334,
          "velocity": 0.9212598425196851
        },
        {
          "duration": 0.624999333333335,
          "durationTicks": 68,
          "midi": 77,
          "name": "F5",
          "ticks": 20306,
          "time": 186.63583033333336,
          "velocity": 0.952755905511811
        },
        {
          "duration": 0.18382333333332213,
          "durationTicks": 20,
          "midi": 77,
          "name": "F5",
          "ticks": 20402,
          "time": 187.51818233333336,
          "velocity": 0.952755905511811
        },
        {
          "duration": 0.32169083333334925,
          "durationTicks": 35,
          "midi": 77,
          "name": "F5",
          "ticks": 20426,
          "time": 187.73877033333335,
          "velocity": 0.952755905511811
        },
        {
          "duration": 0.19301450000000386,
          "durationTicks": 21,
          "midi": 70,
          "name": "A#4",
          "ticks": 20474,
          "time": 188.17994633333333,
          "velocity": 0.8976377952755905
        },
        {
          "duration": 0.4136024999999961,
          "durationTicks": 45,
          "midi": 73,
          "name": "C#5",
          "ticks": 20498,
          "time": 188.40053433333335,
          "velocity": 0.9291338582677166
        },
        {
          "duration": 0.3033085000000142,
          "durationTicks": 33,
          "midi": 75,
          "name": "D#5",
          "ticks": 20546,
          "time": 188.84171033333334,
          "velocity": 0.952755905511811
        },
        {
          "duration": 0.29411733333333245,
          "durationTicks": 32,
          "midi": 80,
          "name": "G#5",
          "ticks": 20594,
          "time": 189.28288633333335,
          "velocity": 0.968503937007874
        },
        {
          "duration": 0.19301450000000386,
          "durationTicks": 21,
          "midi": 80,
          "name": "G#5",
          "ticks": 20642,
          "time": 189.72406233333334,
          "velocity": 0.889763779527559
        },
        {
          "duration": 0.20220566666665718,
          "durationTicks": 22,
          "midi": 78,
          "name": "F#5",
          "ticks": 20666,
          "time": 189.94465033333336,
          "velocity": 0.905511811023622
        },
        {
          "duration": 0.19301450000000386,
          "durationTicks": 21,
          "midi": 78,
          "name": "F#5",
          "ticks": 20690,
          "time": 190.16523833333335,
          "velocity": 0.9212598425196851
        },
        {
          "duration": 0.10110283333335701,
          "durationTicks": 11,
          "midi": 77,
          "name": "F5",
          "ticks": 20714,
          "time": 190.38582633333334,
          "velocity": 0.9763779527559056
        },
        {
          "duration": 0.13786750000002712,
          "durationTicks": 15,
          "midi": 75,
          "name": "D#5",
          "ticks": 20738,
          "time": 190.60641433333333,
          "velocity": 0.9291338582677166
        },
        {
          "duration": 0.19301450000000386,
          "durationTicks": 21,
          "midi": 78,
          "name": "F#5",
          "ticks": 20762,
          "time": 190.82700233333335,
          "velocity": 0.952755905511811
        },
        {
          "duration": 1.2224251666666532,
          "durationTicks": 133,
          "midi": 77,
          "name": "F5",
          "ticks": 20786,
          "time": 191.04759033333335,
          "velocity": 0.968503937007874
        },
        {
          "duration": 0.44117599999998447,
          "durationTicks": 48,
          "midi": 77,
          "name": "F5",
          "ticks": 20930,
          "time": 192.37111833333336,
          "velocity": 0.9212598425196851
        },
        {
          "duration": 0.22058799999999223,
          "durationTicks": 24,
          "midi": 77,
          "name": "F5",
          "ticks": 20978,
          "time": 192.81229433333334,
          "velocity": 0.8818897637795275
        },
        {
          "duration": 0.22058800000002066,
          "durationTicks": 24,
          "midi": 75,
          "name": "D#5",
          "ticks": 21002,
          "time": 193.03288233333333,
          "velocity": 0.9212598425196851
        },
        {
          "duration": 0.6617640000000051,
          "durationTicks": 72,
          "midi": 73,
          "name": "C#5",
          "ticks": 21026,
          "time": 193.25347033333335,
          "velocity": 0.889763779527559
        },
        {
          "duration": 0.1378674999999987,
          "durationTicks": 15,
          "midi": 77,
          "name": "F5",
          "ticks": 21170,
          "time": 194.57699833333334,
          "velocity": 0.968503937007874
        },
        {
          "duration": 0.3860289999999793,
          "durationTicks": 42,
          "midi": 77,
          "name": "F5",
          "ticks": 21194,
          "time": 194.79758633333336,
          "velocity": 0.952755905511811
        },
        {
          "duration": 0.1654410000000155,
          "durationTicks": 18,
          "midi": 70,
          "name": "A#4",
          "ticks": 21242,
          "time": 195.23876233333334,
          "velocity": 0.8976377952755905
        },
        {
          "duration": 0.33088200000000256,
          "durationTicks": 36,
          "midi": 73,
          "name": "C#5",
          "ticks": 21266,
          "time": 195.45935033333333,
          "velocity": 0.9291338582677166
        },
        {
          "duration": 0.3033085000000142,
          "durationTicks": 33,
          "midi": 75,
          "name": "D#5",
          "ticks": 21314,
          "time": 195.90052633333335,
          "velocity": 0.952755905511811
        },
        {
          "duration": 0.4136024999999961,
          "durationTicks": 45,
          "midi": 80,
          "name": "G#5",
          "ticks": 21362,
          "time": 196.34170233333336,
          "velocity": 0.968503937007874
        },
        {
          "duration": 0.11029400000001033,
          "durationTicks": 12,
          "midi": 80,
          "name": "G#5",
          "ticks": 21410,
          "time": 196.78287833333334,
          "velocity": 0.952755905511811
        },
        {
          "duration": 0.19301450000000386,
          "durationTicks": 21,
          "midi": 78,
          "name": "F#5",
          "ticks": 21434,
          "time": 197.00346633333334,
          "velocity": 0.905511811023622
        },
        {
          "duration": 0.1102939999999819,
          "durationTicks": 12,
          "midi": 78,
          "name": "F#5",
          "ticks": 21458,
          "time": 197.22405433333336,
          "velocity": 0.9212598425196851
        },
        {
          "duration": 0.19301450000000386,
          "durationTicks": 21,
          "midi": 77,
          "name": "F5",
          "ticks": 21482,
          "time": 197.44464233333335,
          "velocity": 0.9763779527559056
        },
        {
          "duration": 0.11029400000001033,
          "durationTicks": 12,
          "midi": 75,
          "name": "D#5",
          "ticks": 21506,
          "time": 197.66523033333334,
          "velocity": 0.9291338582677166
        },
        {
          "duration": 0.11948516666666364,
          "durationTicks": 13,
          "midi": 78,
          "name": "F#5",
          "ticks": 21530,
          "time": 197.88581833333333,
          "velocity": 0.952755905511811
        },
        {
          "duration": 2.9779379999999946,
          "durationTicks": 324,
          "midi": 77,
          "name": "F5",
          "ticks": 21554,
          "time": 198.10640633333335,
          "velocity": 0.968503937007874
        },
        {
          "duration": 0.19301449999997544,
          "durationTicks": 21,
          "midi": 68,
          "name": "G#4",
          "ticks": 21890,
          "time": 201.19463833333336,
          "velocity": 0.952755905511811
        },
        {
          "duration": 0.21139683333333892,
          "durationTicks": 23,
          "midi": 80,
          "name": "G#5",
          "ticks": 21914,
          "time": 201.41522633333335,
          "velocity": 0.952755905511811
        },
        {
          "duration": 0.14705866666665202,
          "durationTicks": 16,
          "midi": 78,
          "name": "F#5",
          "ticks": 21938,
          "time": 201.63581433333334,
          "velocity": 0.9291338582677166
        },
        {
          "duration": 0.7352933333333453,
          "durationTicks": 80,
          "midi": 77,
          "name": "F5",
          "ticks": 21962,
          "time": 201.85640233333334,
          "velocity": 0.8267716535433071
        },
        {
          "duration": 0.1102939999999819,
          "durationTicks": 12,
          "midi": 77,
          "name": "F5",
          "ticks": 22058,
          "time": 202.73875433333336,
          "velocity": 0.8346456692913385
        },
        {
          "duration": 0.36764666666664425,
          "durationTicks": 40,
          "midi": 78,
          "name": "F#5",
          "ticks": 22082,
          "time": 202.95934233333335,
          "velocity": 0.84251968503937
        },
        {
          "duration": 0.3676466666666727,
          "durationTicks": 40,
          "midi": 77,
          "name": "F5",
          "ticks": 22130,
          "time": 203.40051833333334,
          "velocity": 0.7952755905511811
        },
        {
          "duration": 0.3860290000000077,
          "durationTicks": 42,
          "midi": 75,
          "name": "D#5",
          "ticks": 22178,
          "time": 203.84169433333335,
          "velocity": 0.8267716535433071
        },
        {
          "duration": 0.33088200000000256,
          "durationTicks": 36,
          "midi": 73,
          "name": "C#5",
          "ticks": 22226,
          "time": 204.28287033333334,
          "velocity": 0.8031496062992126
        },
        {
          "duration": 0.36764666666664425,
          "durationTicks": 40,
          "midi": 72,
          "name": "C5",
          "ticks": 22274,
          "time": 204.72404633333335,
          "velocity": 0.7637795275590551
        },
        {
          "duration": 0.1102939999999819,
          "durationTicks": 12,
          "midi": 68,
          "name": "G#4",
          "ticks": 22322,
          "time": 205.16522233333336,
          "velocity": 0.7874015748031497
        },
        {
          "duration": 0.6158081666666533,
          "durationTicks": 67,
          "midi": 75,
          "name": "D#5",
          "ticks": 22346,
          "time": 205.38581033333335,
          "velocity": 0.8188976377952756
        },
        {
          "duration": 0.18382333333332213,
          "durationTicks": 20,
          "midi": 75,
          "name": "D#5",
          "ticks": 22418,
          "time": 206.04757433333336,
          "velocity": 0.7637795275590551
        },
        {
          "duration": 0.36764666666664425,
          "durationTicks": 40,
          "midi": 75,
          "name": "D#5",
          "ticks": 22442,
          "time": 206.26816233333335,
          "velocity": 0.8031496062992126
        },
        {
          "duration": 0.1378674999999987,
          "durationTicks": 15,
          "midi": 73,
          "name": "C#5",
          "ticks": 22490,
          "time": 206.70933833333333,
          "velocity": 0.7559055118110236
        },
        {
          "duration": 0.4136024999999961,
          "durationTicks": 45,
          "midi": 75,
          "name": "D#5",
          "ticks": 22514,
          "time": 206.92992633333336,
          "velocity": 0.8031496062992126
        },
        {
          "duration": 0.11948516666666364,
          "durationTicks": 13,
          "midi": 73,
          "name": "C#5",
          "ticks": 22562,
          "time": 207.37110233333334,
          "velocity": 0.7637795275590551
        },
        {
          "duration": 0.1746321666666404,
          "durationTicks": 19,
          "midi": 75,
          "name": "D#5",
          "ticks": 22586,
          "time": 207.59169033333336,
          "velocity": 0.7874015748031497
        },
        {
          "duration": 1.1397046666666597,
          "durationTicks": 124,
          "midi": 77,
          "name": "F5",
          "ticks": 22610,
          "time": 207.81227833333335,
          "velocity": 0.8267716535433071
        }
      ]
    },
    {
      "channel": 15,
      "controlChanges": {
        "1": [
          {
            "number": 1,
            "ticks": 12437,
            "time": 114.31053983333334,
            "value": 0.5433070866141733
          },
          {
            "number": 1,
            "ticks": 12461,
            "time": 114.53112783333333,
            "value": 0
          },
          {
            "number": 1,
            "ticks": 12629,
            "time": 116.07524383333333,
            "value": 0.2677165354330709
          },
          {
            "number": 1,
            "ticks": 12653,
            "time": 116.29583183333332,
            "value": 0
          },
          {
            "number": 1,
            "ticks": 14090,
            "time": 129.50353833333332,
            "value": 0.3543307086614173
          },
          {
            "number": 1,
            "ticks": 14138,
            "time": 129.94471433333334,
            "value": 0
          }
        ],
        "11": [
          {
            "number": 11,
            "ticks": 14282,
            "time": 131.26824233333335,
            "value": 0.6141732283464567
          },
          {
            "number": 11,
            "ticks": 14309,
            "time": 131.51640383333336,
            "value": 0.4409448818897638
          }
        ],
        "71": [
          {
            "number": 71,
            "ticks": 12878,
            "time": 118.36384433333333,
            "value": 0.6299212598425197
          },
          {
            "number": 71,
            "ticks": 13129,
            "time": 120.67082716666667,
            "value": 0.5039370078740157
          },
          {
            "number": 71,
            "ticks": 13442,
            "time": 123.54766233333334,
            "value": 0.6141732283464567
          },
          {
            "number": 71,
            "ticks": 13490,
            "time": 123.98883833333333,
            "value": 0.5748031496062992
          }
        ],
        "74": [
          {
            "number": 74,
            "ticks": 11209,
            "time": 103.02378716666666,
            "value": 0.5748031496062992
          },
          {
            "number": 74,
            "ticks": 12883,
            "time": 118.40980016666667,
            "value": 0.4645669291338583
          },
          {
            "number": 74,
            "ticks": 12888,
            "time": 118.455756,
            "value": 0.4094488188976378
          },
          {
            "number": 74,
            "ticks": 12893,
            "time": 118.50171183333333,
            "value": 0.3543307086614173
          },
          {
            "number": 74,
            "ticks": 12898,
            "time": 118.54766766666667,
            "value": 0.2992125984251969
          },
          {
            "number": 74,
            "ticks": 12902,
            "time": 118.58443233333333,
            "value": 0.23622047244094488
          },
          {
            "number": 74,
            "ticks": 12940,
            "time": 118.93369666666668,
            "value": 0.31496062992125984
          },
          {
            "number": 74,
            "ticks": 12959,
            "time": 119.10832883333333,
            "value": 0.33070866141732286
          },
          {
            "number": 74,
            "ticks": 12978,
            "time": 119.28296099999999,
            "value": 0.3543307086614173
          },
          {
            "number": 74,
            "ticks": 12997,
            "time": 119.45759316666667,
            "value": 0.3779527559055118
          },
          {
            "number": 74,
            "ticks": 13016,
            "time": 119.63222533333332,
            "value": 0.3937007874015748
          },
          {
            "number": 74,
            "ticks": 13036,
            "time": 119.81604866666667,
            "value": 0.41732283464566927
          },
          {
            "number": 74,
            "ticks": 13055,
            "time": 119.99068083333333,
            "value": 0.4409448818897638
          },
          {
            "number": 74,
            "ticks": 13074,
            "time": 120.16531299999998,
            "value": 0.4566929133858268
          },
          {
            "number": 74,
            "ticks": 13093,
            "time": 120.33994516666667,
            "value": 0.48031496062992124
          },
          {
            "number": 74,
            "ticks": 13112,
            "time": 120.51457733333334,
            "value": 0.5039370078740157
          },
          {
            "number": 74,
            "ticks": 13422,
            "time": 123.36383899999998,
            "value": 0.4645669291338583
          },
          {
            "number": 74,
            "ticks": 13426,
            "time": 123.40060366666667,
            "value": 0.4094488188976378
          },
          {
            "number": 74,
            "ticks": 13430,
            "time": 123.43736833333332,
            "value": 0.3543307086614173
          },
          {
            "number": 74,
            "ticks": 13434,
            "time": 123.474133,
            "value": 0.2992125984251969
          },
          {
            "number": 74,
            "ticks": 13438,
            "time": 123.51089766666668,
            "value": 0.23622047244094488
          },
          {
            "number": 74,
            "ticks": 13444,
            "time": 123.56604466666667,
            "value": 0.2992125984251969
          },
          {
            "number": 74,
            "ticks": 13445,
            "time": 123.57523583333334,
            "value": 0.4094488188976378
          },
          {
            "number": 74,
            "ticks": 13448,
            "time": 123.60280933333333,
            "value": 0.5039370078740157
          },
          {
            "number": 74,
            "ticks": 13453,
            "time": 123.64876516666668,
            "value": 0.5039370078740157
          },
          {
            "number": 74,
            "ticks": 13466,
            "time": 123.76825033333333,
            "value": 0.5039370078740157
          },
          {
            "number": 74,
            "ticks": 13468,
            "time": 123.78663266666668,
            "value": 0.4645669291338583
          },
          {
            "number": 74,
            "ticks": 13470,
            "time": 123.80501499999998,
            "value": 0.4094488188976378
          },
          {
            "number": 74,
            "ticks": 13472,
            "time": 123.82339733333333,
            "value": 0.3543307086614173
          },
          {
            "number": 74,
            "ticks": 13474,
            "time": 123.84177966666667,
            "value": 0.2992125984251969
          },
          {
            "number": 74,
            "ticks": 13476,
            "time": 123.86016199999999,
            "value": 0.23622047244094488
          },
          {
            "number": 74,
            "ticks": 13480,
            "time": 123.89692666666667,
            "value": 0.2992125984251969
          },
          {
            "number": 74,
            "ticks": 13481,
            "time": 123.90611783333333,
            "value": 0.4094488188976378
          },
          {
            "number": 74,
            "ticks": 13484,
            "time": 123.93369133333333,
            "value": 0.5039370078740157
          },
          {
            "number": 74,
            "ticks": 13490,
            "time": 123.98883833333333,
            "value": 0.5039370078740157
          },
          {
            "number": 74,
            "ticks": 13670,
            "time": 125.64324833333333,
            "value": 0.48031496062992124
          },
          {
            "number": 74,
            "ticks": 13674,
            "time": 125.68001299999999,
            "value": 0.4645669291338583
          },
          {
            "number": 74,
            "ticks": 13679,
            "time": 125.72596883333333,
            "value": 0.4409448818897638
          },
          {
            "number": 74,
            "ticks": 13683,
            "time": 125.7627335,
            "value": 0.41732283464566927
          },
          {
            "number": 74,
            "ticks": 13688,
            "time": 125.80868933333333,
            "value": 0.4015748031496063
          },
          {
            "number": 74,
            "ticks": 13692,
            "time": 125.84545399999999,
            "value": 0.3779527559055118
          },
          {
            "number": 74,
            "ticks": 13697,
            "time": 125.89140983333333,
            "value": 0.3543307086614173
          },
          {
            "number": 74,
            "ticks": 13701,
            "time": 125.92817449999998,
            "value": 0.33070866141732286
          },
          {
            "number": 74,
            "ticks": 13706,
            "time": 125.97413033333333,
            "value": 0.5039370078740157
          }
        ]
      },
      "pitchBends": [
        {
          "ticks": 11210,
          "time": 103.03297833333333,
          "value": -0.155517578125
        },
        {
          "ticks": 11214,
          "time": 103.069743,
          "value": -0.122314453125
        },
        {
          "ticks": 11216,
          "time": 103.08812533333332,
          "value": -0.0889892578125
        },
        {
          "ticks": 11218,
          "time": 103.10650766666666,
          "value": -0.0556640625
        },
        {
          "ticks": 11220,
          "time": 103.12489000000001,
          "value": -0.0223388671875
        },
        {
          "ticks": 11222,
          "time": 103.14327233333333,
          "value": 0.010986328125
        },
        {
          "ticks": 11378,
          "time": 104.57709433333333,
          "value": -0.155517578125
        },
        {
          "ticks": 11382,
          "time": 104.613859,
          "value": -0.122314453125
        },
        {
          "ticks": 11384,
          "time": 104.63224133333333,
          "value": -0.0889892578125
        },
        {
          "ticks": 11386,
          "time": 104.65062366666666,
          "value": -0.0556640625
        },
        {
          "ticks": 11388,
          "time": 104.669006,
          "value": -0.0223388671875
        },
        {
          "ticks": 11390,
          "time": 104.68738833333333,
          "value": 0.010986328125
        },
        {
          "ticks": 11418,
          "time": 104.94474100000001,
          "value": -0.0223388671875
        },
        {
          "ticks": 11420,
          "time": 104.96312333333333,
          "value": -0.0556640625
        },
        {
          "ticks": 11422,
          "time": 104.98150566666666,
          "value": -0.0889892578125
        },
        {
          "ticks": 11426,
          "time": 105.01827033333333,
          "value": 0.010986328125
        },
        {
          "ticks": 11450,
          "time": 105.23885833333333,
          "value": -0.155517578125
        },
        {
          "ticks": 11454,
          "time": 105.275623,
          "value": -0.122314453125
        },
        {
          "ticks": 11456,
          "time": 105.29400533333333,
          "value": -0.0889892578125
        },
        {
          "ticks": 11458,
          "time": 105.31238766666667,
          "value": -0.0556640625
        },
        {
          "ticks": 11460,
          "time": 105.33077,
          "value": -0.0223388671875
        },
        {
          "ticks": 11462,
          "time": 105.34915233333334,
          "value": 0.010986328125
        },
        {
          "ticks": 11492,
          "time": 105.62488733333333,
          "value": -0.0223388671875
        },
        {
          "ticks": 11493,
          "time": 105.6340785,
          "value": -0.0556640625
        },
        {
          "ticks": 11494,
          "time": 105.64326966666665,
          "value": -0.0889892578125
        },
        {
          "ticks": 11495,
          "time": 105.65246083333334,
          "value": -0.122314453125
        },
        {
          "ticks": 11496,
          "time": 105.661652,
          "value": -0.155517578125
        },
        {
          "ticks": 11500,
          "time": 105.69841666666666,
          "value": -0.122314453125
        },
        {
          "ticks": 11502,
          "time": 105.716799,
          "value": -0.0889892578125
        },
        {
          "ticks": 11503,
          "time": 105.72599016666666,
          "value": -0.0556640625
        },
        {
          "ticks": 11504,
          "time": 105.73518133333333,
          "value": -0.0223388671875
        },
        {
          "ticks": 11505,
          "time": 105.7443725,
          "value": 0.010986328125
        },
        {
          "ticks": 11520,
          "time": 105.88224,
          "value": -0.0223388671875
        },
        {
          "ticks": 11521,
          "time": 105.89143116666666,
          "value": -0.0556640625
        },
        {
          "ticks": 11522,
          "time": 105.90062233333333,
          "value": -0.0889892578125
        },
        {
          "ticks": 11523,
          "time": 105.9098135,
          "value": -0.122314453125
        },
        {
          "ticks": 11524,
          "time": 105.91900466666667,
          "value": -0.155517578125
        },
        {
          "ticks": 11546,
          "time": 106.12121033333332,
          "value": 0.010986328125
        },
        {
          "ticks": 11588,
          "time": 106.50723933333333,
          "value": -0.072265625
        },
        {
          "ticks": 11589,
          "time": 106.5164305,
          "value": -0.155517578125
        },
        {
          "ticks": 11591,
          "time": 106.53481283333333,
          "value": -0.23876953125
        },
        {
          "ticks": 11594,
          "time": 106.56238633333334,
          "value": 0.010986328125
        },
        {
          "ticks": 11618,
          "time": 106.78297433333333,
          "value": -0.155517578125
        },
        {
          "ticks": 11641,
          "time": 106.99437116666665,
          "value": 0.010986328125
        },
        {
          "ticks": 11698,
          "time": 107.51826766666666,
          "value": -0.072265625
        },
        {
          "ticks": 11700,
          "time": 107.53665,
          "value": -0.155517578125
        },
        {
          "ticks": 11702,
          "time": 107.55503233333333,
          "value": -0.23876953125
        },
        {
          "ticks": 11704,
          "time": 107.57341466666666,
          "value": -0.322021484375
        },
        {
          "ticks": 11706,
          "time": 107.591797,
          "value": -0.4052734375
        },
        {
          "ticks": 11708,
          "time": 107.61017933333333,
          "value": -0.488525390625
        },
        {
          "ticks": 11713,
          "time": 107.65613516666666,
          "value": -0.322021484375
        },
        {
          "ticks": 11715,
          "time": 107.67451750000001,
          "value": -0.23876953125
        },
        {
          "ticks": 11716,
          "time": 107.68370866666666,
          "value": -0.155517578125
        },
        {
          "ticks": 11717,
          "time": 107.69289983333333,
          "value": -0.072265625
        },
        {
          "ticks": 11718,
          "time": 107.702091,
          "value": 0.010986328125
        },
        {
          "ticks": 11762,
          "time": 108.10650233333332,
          "value": -0.155517578125
        },
        {
          "ticks": 11764,
          "time": 108.12488466666666,
          "value": -0.072265625
        },
        {
          "ticks": 11766,
          "time": 108.143267,
          "value": 0.010986328125
        },
        {
          "ticks": 11896,
          "time": 109.33811866666666,
          "value": 0.2607421875
        },
        {
          "ticks": 11906,
          "time": 109.43003033333333,
          "value": 0.010986328125
        },
        {
          "ticks": 11914,
          "time": 109.50355966666666,
          "value": 0.09423828125
        },
        {
          "ticks": 11922,
          "time": 109.577089,
          "value": 0.010986328125
        },
        {
          "ticks": 11933,
          "time": 109.67819183333333,
          "value": -0.0150146484375
        },
        {
          "ticks": 11936,
          "time": 109.70576533333333,
          "value": -0.041015625
        },
        {
          "ticks": 11939,
          "time": 109.73333883333333,
          "value": -0.067138671875
        },
        {
          "ticks": 11942,
          "time": 109.76091233333334,
          "value": 0.010986328125
        },
        {
          "ticks": 11948,
          "time": 109.81605933333333,
          "value": 0.09423828125
        },
        {
          "ticks": 11954,
          "time": 109.87120633333333,
          "value": 0.010986328125
        },
        {
          "ticks": 11960,
          "time": 109.92635333333332,
          "value": 0.09423828125
        },
        {
          "ticks": 11962,
          "time": 109.94473566666666,
          "value": 0.010986328125
        },
        {
          "ticks": 11964,
          "time": 109.963118,
          "value": -0.0150146484375
        },
        {
          "ticks": 11966,
          "time": 109.98150033333333,
          "value": -0.041015625
        },
        {
          "ticks": 11968,
          "time": 109.99988266666666,
          "value": -0.067138671875
        },
        {
          "ticks": 11970,
          "time": 110.018265,
          "value": -0.09326171875
        },
        {
          "ticks": 11972,
          "time": 110.03664733333333,
          "value": -0.114990234375
        },
        {
          "ticks": 11974,
          "time": 110.05502966666666,
          "value": -0.155517578125
        },
        {
          "ticks": 11986,
          "time": 110.16532366666667,
          "value": -0.1278076171875
        },
        {
          "ticks": 11990,
          "time": 110.20208833333334,
          "value": -0.10009765625
        },
        {
          "ticks": 11994,
          "time": 110.238853,
          "value": -0.072265625
        },
        {
          "ticks": 11998,
          "time": 110.27561766666666,
          "value": -0.0445556640625
        },
        {
          "ticks": 12002,
          "time": 110.31238233333333,
          "value": -0.016845703125
        },
        {
          "ticks": 12006,
          "time": 110.349147,
          "value": 0.010986328125
        },
        {
          "ticks": 12043,
          "time": 110.68922016666666,
          "value": -0.016845703125
        },
        {
          "ticks": 12044,
          "time": 110.69841133333333,
          "value": -0.0445556640625
        },
        {
          "ticks": 12045,
          "time": 110.70760250000001,
          "value": -0.072265625
        },
        {
          "ticks": 12046,
          "time": 110.71679366666666,
          "value": -0.10009765625
        },
        {
          "ticks": 12048,
          "time": 110.735176,
          "value": -0.1278076171875
        },
        {
          "ticks": 12050,
          "time": 110.75355833333333,
          "value": -0.072265625
        },
        {
          "ticks": 12053,
          "time": 110.78113183333333,
          "value": 0.010986328125
        },
        {
          "ticks": 12082,
          "time": 111.04767566666666,
          "value": 0.177490234375
        },
        {
          "ticks": 12090,
          "time": 111.121205,
          "value": 0.010986328125
        },
        {
          "ticks": 12154,
          "time": 111.70943966666665,
          "value": 0.09423828125
        },
        {
          "ticks": 12162,
          "time": 111.782969,
          "value": 0.010986328125
        },
        {
          "ticks": 12226,
          "time": 112.37120366666666,
          "value": 0.177490234375
        },
        {
          "ticks": 12234,
          "time": 112.444733,
          "value": 0.010986328125
        },
        {
          "ticks": 12298,
          "time": 113.03296766666666,
          "value": 0.177490234375
        },
        {
          "ticks": 12306,
          "time": 113.106497,
          "value": 0.010986328125
        },
        {
          "ticks": 12362,
          "time": 113.62120233333333,
          "value": -0.155517578125
        },
        {
          "ticks": 12364,
          "time": 113.63958466666666,
          "value": -0.072265625
        },
        {
          "ticks": 12366,
          "time": 113.657967,
          "value": 0.010986328125
        },
        {
          "ticks": 12482,
          "time": 114.72414233333333,
          "value": -0.155517578125
        },
        {
          "ticks": 12484,
          "time": 114.74252466666667,
          "value": -0.072265625
        },
        {
          "ticks": 12486,
          "time": 114.76090699999999,
          "value": 0.010986328125
        },
        {
          "ticks": 12530,
          "time": 115.16531833333333,
          "value": -0.155517578125
        },
        {
          "ticks": 12534,
          "time": 115.20208299999999,
          "value": -0.072265625
        },
        {
          "ticks": 12536,
          "time": 115.22046533333334,
          "value": 0.010986328125
        },
        {
          "ticks": 12602,
          "time": 115.82708233333334,
          "value": -0.072265625
        },
        {
          "ticks": 12605,
          "time": 115.85465583333333,
          "value": 0.010986328125
        },
        {
          "ticks": 12703,
          "time": 116.75539016666667,
          "value": -0.072265625
        },
        {
          "ticks": 12708,
          "time": 116.801346,
          "value": -0.155517578125
        },
        {
          "ticks": 12713,
          "time": 116.84730183333333,
          "value": -0.23876953125
        },
        {
          "ticks": 12718,
          "time": 116.89325766666667,
          "value": -0.322021484375
        },
        {
          "ticks": 12723,
          "time": 116.9392135,
          "value": -0.4052734375
        },
        {
          "ticks": 12728,
          "time": 116.98516933333333,
          "value": -0.488525390625
        },
        {
          "ticks": 12740,
          "time": 117.09546333333333,
          "value": -0.322021484375
        },
        {
          "ticks": 12746,
          "time": 117.15061033333333,
          "value": 0.010986328125
        },
        {
          "ticks": 13154,
          "time": 120.90060633333333,
          "value": 0.09423828125
        },
        {
          "ticks": 13178,
          "time": 121.12119433333334,
          "value": 0.010986328125
        },
        {
          "ticks": 13282,
          "time": 122.07707566666667,
          "value": 0.177490234375
        },
        {
          "ticks": 13290,
          "time": 122.15060499999998,
          "value": 0.010986328125
        },
        {
          "ticks": 13442,
          "time": 123.54766233333334,
          "value": -0.072265625
        },
        {
          "ticks": 13443,
          "time": 123.55685349999999,
          "value": -0.0556640625
        },
        {
          "ticks": 13444,
          "time": 123.56604466666667,
          "value": -0.0389404296875
        },
        {
          "ticks": 13446,
          "time": 123.58442699999999,
          "value": -0.0223388671875
        },
        {
          "ticks": 13449,
          "time": 123.6120005,
          "value": -0.005615234375
        },
        {
          "ticks": 13451,
          "time": 123.63038283333333,
          "value": 0.010986328125
        },
        {
          "ticks": 13478,
          "time": 123.87854433333334,
          "value": -0.072265625
        },
        {
          "ticks": 13479,
          "time": 123.88773549999999,
          "value": -0.0556640625
        },
        {
          "ticks": 13480,
          "time": 123.89692666666667,
          "value": -0.0389404296875
        },
        {
          "ticks": 13482,
          "time": 123.915309,
          "value": -0.0223388671875
        },
        {
          "ticks": 13485,
          "time": 123.9428825,
          "value": -0.005615234375
        },
        {
          "ticks": 13487,
          "time": 123.96126483333333,
          "value": 0.010986328125
        },
        {
          "ticks": 13490,
          "time": 123.98883833333333,
          "value": -0.155517578125
        },
        {
          "ticks": 13493,
          "time": 124.01641183333334,
          "value": -0.072265625
        },
        {
          "ticks": 13496,
          "time": 124.04398533333332,
          "value": -0.01220703125
        },
        {
          "ticks": 13658,
          "time": 125.53295433333334,
          "value": 0.010986328125
        },
        {
          "ticks": 13670,
          "time": 125.64324833333333,
          "value": -0.155517578125
        },
        {
          "ticks": 13682,
          "time": 125.75354233333333,
          "value": 0.010986328125
        },
        {
          "ticks": 13690,
          "time": 125.82707166666667,
          "value": -0.155517578125
        },
        {
          "ticks": 13698,
          "time": 125.900601,
          "value": 0.010986328125
        },
        {
          "ticks": 13778,
          "time": 126.63589433333333,
          "value": -0.155517578125
        },
        {
          "ticks": 13784,
          "time": 126.69104133333333,
          "value": -0.122314453125
        },
        {
          "ticks": 13787,
          "time": 126.71861483333333,
          "value": -0.089111328125
        },
        {
          "ticks": 13790,
          "time": 126.74618833333334,
          "value": -0.0556640625
        },
        {
          "ticks": 13793,
          "time": 126.77376183333332,
          "value": -0.0224609375
        },
        {
          "ticks": 13796,
          "time": 126.80133533333333,
          "value": 0.010986328125
        },
        {
          "ticks": 13818,
          "time": 127.00354099999998,
          "value": -0.0057373046875
        },
        {
          "ticks": 13820,
          "time": 127.02192333333333,
          "value": -0.0223388671875
        },
        {
          "ticks": 13822,
          "time": 127.04030566666667,
          "value": -0.0390625
        },
        {
          "ticks": 13824,
          "time": 127.05868799999999,
          "value": -0.0556640625
        },
        {
          "ticks": 13826,
          "time": 127.07707033333332,
          "value": 0.010986328125
        },
        {
          "ticks": 13874,
          "time": 127.51824633333334,
          "value": -0.155517578125
        },
        {
          "ticks": 13880,
          "time": 127.57339333333333,
          "value": -0.122314453125
        },
        {
          "ticks": 13884,
          "time": 127.61015799999998,
          "value": -0.089111328125
        },
        {
          "ticks": 13888,
          "time": 127.64692266666667,
          "value": -0.0556640625
        },
        {
          "ticks": 13892,
          "time": 127.68368733333332,
          "value": -0.0224609375
        },
        {
          "ticks": 13896,
          "time": 127.720452,
          "value": 0.010986328125
        },
        {
          "ticks": 14026,
          "time": 128.9153036666667,
          "value": 0.09423828125
        },
        {
          "ticks": 14034,
          "time": 128.988833,
          "value": 0.010986328125
        },
        {
          "ticks": 14066,
          "time": 129.28295033333333,
          "value": -0.155517578125
        },
        {
          "ticks": 14069,
          "time": 129.31052383333335,
          "value": -0.072265625
        },
        {
          "ticks": 14071,
          "time": 129.32890616666668,
          "value": 0.010986328125
        },
        {
          "ticks": 14150,
          "time": 130.05500833333335,
          "value": -0.0057373046875
        },
        {
          "ticks": 14152,
          "time": 130.07339066666668,
          "value": -0.0223388671875
        },
        {
          "ticks": 14154,
          "time": 130.091773,
          "value": -0.0390625
        },
        {
          "ticks": 14156,
          "time": 130.11015533333335,
          "value": -0.0556640625
        },
        {
          "ticks": 14158,
          "time": 130.1285376666667,
          "value": -0.072265625
        },
        {
          "ticks": 14160,
          "time": 130.14692,
          "value": -0.082275390625
        },
        {
          "ticks": 14162,
          "time": 130.16530233333336,
          "value": -0.155517578125
        },
        {
          "ticks": 14177,
          "time": 130.30316983333336,
          "value": -0.122314453125
        },
        {
          "ticks": 14180,
          "time": 130.33074333333334,
          "value": -0.089111328125
        },
        {
          "ticks": 14182,
          "time": 130.34912566666668,
          "value": -0.0556640625
        },
        {
          "ticks": 14184,
          "time": 130.36750800000002,
          "value": -0.0224609375
        },
        {
          "ticks": 14187,
          "time": 130.3950815,
          "value": 0.010986328125
        },
        {
          "ticks": 14258,
          "time": 131.04765433333336,
          "value": 0.007080078125
        },
        {
          "ticks": 14261,
          "time": 131.07522783333334,
          "value": -0.00341796875
        },
        {
          "ticks": 14264,
          "time": 131.10280133333333,
          "value": -0.0140380859375
        },
        {
          "ticks": 14267,
          "time": 131.13037483333335,
          "value": -0.024658203125
        },
        {
          "ticks": 14270,
          "time": 131.15794833333334,
          "value": -0.0352783203125
        },
        {
          "ticks": 14273,
          "time": 131.18552183333335,
          "value": -0.0458984375
        },
        {
          "ticks": 14276,
          "time": 131.21309533333334,
          "value": -0.0565185546875
        },
        {
          "ticks": 14279,
          "time": 131.24066883333336,
          "value": -0.067138671875
        },
        {
          "ticks": 14282,
          "time": 131.26824233333335,
          "value": 0.010986328125
        },
        {
          "ticks": 14285,
          "time": 131.29581583333334,
          "value": 0.007080078125
        },
        {
          "ticks": 14288,
          "time": 131.32338933333335,
          "value": -0.00341796875
        },
        {
          "ticks": 14291,
          "time": 131.35096283333334,
          "value": -0.0140380859375
        },
        {
          "ticks": 14294,
          "time": 131.37853633333336,
          "value": -0.024658203125
        },
        {
          "ticks": 14297,
          "time": 131.40610983333335,
          "value": -0.0352783203125
        },
        {
          "ticks": 14300,
          "time": 131.43368333333333,
          "value": -0.0458984375
        },
        {
          "ticks": 14303,
          "time": 131.46125683333335,
          "value": -0.0565185546875
        },
        {
          "ticks": 14306,
          "time": 131.48883033333334,
          "value": -0.067138671875
        },
        {
          "ticks": 14309,
          "time": 131.51640383333336,
          "value": 0.010986328125
        },
        {
          "ticks": 14312,
          "time": 131.54397733333334,
          "value": 0.007080078125
        },
        {
          "ticks": 14315,
          "time": 131.57155083333333,
          "value": -0.00341796875
        },
        {
          "ticks": 14318,
          "time": 131.59912433333335,
          "value": -0.0140380859375
        },
        {
          "ticks": 14321,
          "time": 131.62669783333334,
          "value": -0.024658203125
        },
        {
          "ticks": 14324,
          "time": 131.65427133333336,
          "value": -0.0352783203125
        },
        {
          "ticks": 14327,
          "time": 131.68184483333334,
          "value": -0.0458984375
        },
        {
          "ticks": 14330,
          "time": 131.70941833333333,
          "value": -0.0565185546875
        },
        {
          "ticks": 14333,
          "time": 131.73699183333335,
          "value": -0.067138671875
        },
        {
          "ticks": 14473,
          "time": 133.0237551666667,
          "value": 0.010986328125
        }
      ],
      "instrument": {
        "family": "guitar",
        "number": 29,
        "name": "overdriven guitar"
      },
      "name": "",
      "notes": [
        {
          "duration": 1.1029400000000038,
          "durationTicks": 120,
          "midi": 77,
          "name": "F5",
          "ticks": 11210,
          "time": 103.03297833333333,
          "velocity": 0.8740157480314961
        },
        {
          "duration": 0.4411759999999987,
          "durationTicks": 48,
          "midi": 80,
          "name": "G#5",
          "ticks": 11330,
          "time": 104.13591833333334,
          "velocity": 0.8740157480314961
        },
        {
          "duration": 0.4136024999999961,
          "durationTicks": 45,
          "midi": 77,
          "name": "F5",
          "ticks": 11378,
          "time": 104.57709433333333,
          "velocity": 0.8346456692913385
        },
        {
          "duration": 0.2022056666666714,
          "durationTicks": 22,
          "midi": 80,
          "name": "G#5",
          "ticks": 11426,
          "time": 105.01827033333333,
          "velocity": 0.8740157480314961
        },
        {
          "duration": 0.43198483333333115,
          "durationTicks": 47,
          "midi": 77,
          "name": "F5",
          "ticks": 11450,
          "time": 105.23885833333333,
          "velocity": 0.8346456692913385
        },
        {
          "duration": 0.4136025000000103,
          "durationTicks": 45,
          "midi": 77,
          "name": "F5",
          "ticks": 11498,
          "time": 105.68003433333332,
          "velocity": 0.8740157480314961
        },
        {
          "duration": 0.21139683333333892,
          "durationTicks": 23,
          "midi": 73,
          "name": "C#5",
          "ticks": 11546,
          "time": 106.12121033333332,
          "velocity": 0.8740157480314961
        },
        {
          "duration": 0.22058799999999223,
          "durationTicks": 24,
          "midi": 72,
          "name": "C5",
          "ticks": 11569,
          "time": 106.33260716666666,
          "velocity": 0.8346456692913385
        },
        {
          "duration": 0.43198483333331694,
          "durationTicks": 47,
          "midi": 68,
          "name": "G#4",
          "ticks": 11594,
          "time": 106.56238633333334,
          "velocity": 0.8740157480314961
        },
        {
          "duration": 0.2113968333333247,
          "durationTicks": 23,
          "midi": 65,
          "name": "F4",
          "ticks": 11642,
          "time": 107.00356233333333,
          "velocity": 0.8740157480314961
        },
        {
          "duration": 0.3860290000000077,
          "durationTicks": 42,
          "midi": 61,
          "name": "C#4",
          "ticks": 11666,
          "time": 107.22415033333333,
          "velocity": 0.8740157480314961
        },
        {
          "duration": 0.42279366666667784,
          "durationTicks": 46,
          "midi": 73,
          "name": "C#5",
          "ticks": 11714,
          "time": 107.66532633333333,
          "velocity": 0.8740157480314961
        },
        {
          "duration": 0.42279366666667784,
          "durationTicks": 46,
          "midi": 75,
          "name": "D#5",
          "ticks": 11762,
          "time": 108.10650233333332,
          "velocity": 0.8740157480314961
        },
        {
          "duration": 0.22058799999999223,
          "durationTicks": 24,
          "midi": 73,
          "name": "C#5",
          "ticks": 11810,
          "time": 108.54767833333334,
          "velocity": 0.8740157480314961
        },
        {
          "duration": 0.2022056666666714,
          "durationTicks": 22,
          "midi": 75,
          "name": "D#5",
          "ticks": 11834,
          "time": 108.76826633333333,
          "velocity": 0.8740157480314961
        },
        {
          "duration": 0.4411759999999987,
          "durationTicks": 48,
          "midi": 77,
          "name": "F5",
          "ticks": 11857,
          "time": 108.97966316666665,
          "velocity": 0.8740157480314961
        },
        {
          "duration": 0.22058799999999223,
          "durationTicks": 24,
          "midi": 58,
          "name": "A#3",
          "ticks": 11906,
          "time": 109.43003033333333,
          "velocity": 0.8740157480314961
        },
        {
          "duration": 0.11029399999999612,
          "durationTicks": 12,
          "midi": 80,
          "name": "G#5",
          "ticks": 11922,
          "time": 109.577089,
          "velocity": 0.7007874015748031
        },
        {
          "duration": 0.11029400000001033,
          "durationTicks": 12,
          "midi": 82,
          "name": "A#5",
          "ticks": 11930,
          "time": 109.65061833333333,
          "velocity": 0.8740157480314961
        },
        {
          "duration": 0.16544099999998707,
          "durationTicks": 18,
          "midi": 58,
          "name": "A#3",
          "ticks": 11942,
          "time": 109.76091233333334,
          "velocity": 0.84251968503937
        },
        {
          "duration": 0.14705866666666623,
          "durationTicks": 16,
          "midi": 82,
          "name": "A#5",
          "ticks": 11962,
          "time": 109.94473566666666,
          "velocity": 0.8503937007874016
        },
        {
          "duration": 0.606617,
          "durationTicks": 66,
          "midi": 82,
          "name": "A#5",
          "ticks": 11982,
          "time": 110.128559,
          "velocity": 0.8740157480314961
        },
        {
          "duration": 0.15624983333333375,
          "durationTicks": 17,
          "midi": 80,
          "name": "G#5",
          "ticks": 12050,
          "time": 110.75355833333333,
          "velocity": 0.8346456692913385
        },
        {
          "duration": 0.20220566666665718,
          "durationTicks": 22,
          "midi": 78,
          "name": "F#5",
          "ticks": 12074,
          "time": 110.97414633333334,
          "velocity": 0.8740157480314961
        },
        {
          "duration": 0.2022056666666714,
          "durationTicks": 22,
          "midi": 77,
          "name": "F5",
          "ticks": 12098,
          "time": 111.19473433333333,
          "velocity": 0.8740157480314961
        },
        {
          "duration": 0.2022056666666714,
          "durationTicks": 22,
          "midi": 78,
          "name": "F#5",
          "ticks": 12122,
          "time": 111.41532233333334,
          "velocity": 0.8740157480314961
        },
        {
          "duration": 0.2022056666666714,
          "durationTicks": 22,
          "midi": 77,
          "name": "F5",
          "ticks": 12146,
          "time": 111.63591033333333,
          "velocity": 0.8740157480314961
        },
        {
          "duration": 0.2022056666666714,
          "durationTicks": 22,
          "midi": 75,
          "name": "D#5",
          "ticks": 12170,
          "time": 111.85649833333333,
          "velocity": 0.8740157480314961
        },
        {
          "duration": 0.2022056666666714,
          "durationTicks": 22,
          "midi": 77,
          "name": "F5",
          "ticks": 12194,
          "time": 112.07708633333333,
          "velocity": 0.8740157480314961
        },
        {
          "duration": 0.2022056666666714,
          "durationTicks": 22,
          "midi": 75,
          "name": "D#5",
          "ticks": 12218,
          "time": 112.29767433333333,
          "velocity": 0.8740157480314961
        },
        {
          "duration": 0.2022056666666714,
          "durationTicks": 22,
          "midi": 73,
          "name": "C#5",
          "ticks": 12242,
          "time": 112.51826233333333,
          "velocity": 0.8740157480314961
        },
        {
          "duration": 0.2022056666666714,
          "durationTicks": 22,
          "midi": 75,
          "name": "D#5",
          "ticks": 12266,
          "time": 112.73885033333333,
          "velocity": 0.8740157480314961
        },
        {
          "duration": 0.2022056666666714,
          "durationTicks": 22,
          "midi": 73,
          "name": "C#5",
          "ticks": 12290,
          "time": 112.95943833333332,
          "velocity": 0.8740157480314961
        },
        {
          "duration": 0.2022056666666714,
          "durationTicks": 22,
          "midi": 72,
          "name": "C5",
          "ticks": 12314,
          "time": 113.18002633333333,
          "velocity": 0.8740157480314961
        },
        {
          "duration": 0.20220566666665718,
          "durationTicks": 22,
          "midi": 73,
          "name": "C#5",
          "ticks": 12338,
          "time": 113.40061433333334,
          "velocity": 0.8740157480314961
        },
        {
          "duration": 0.2022056666666714,
          "durationTicks": 22,
          "midi": 78,
          "name": "F#5",
          "ticks": 12362,
          "time": 113.62120233333333,
          "velocity": 0.8740157480314961
        },
        {
          "duration": 0.2022056666666714,
          "durationTicks": 22,
          "midi": 77,
          "name": "F5",
          "ticks": 12386,
          "time": 113.84179033333334,
          "velocity": 0.8740157480314961
        },
        {
          "duration": 0.2022056666666714,
          "durationTicks": 22,
          "midi": 73,
          "name": "C#5",
          "ticks": 12410,
          "time": 114.06237833333333,
          "velocity": 0.8740157480314961
        },
        {
          "duration": 0.4227936666666494,
          "durationTicks": 46,
          "midi": 68,
          "name": "G#4",
          "ticks": 12434,
          "time": 114.28296633333333,
          "velocity": 0.8740157480314961
        },
        {
          "duration": 0.4227936666666494,
          "durationTicks": 46,
          "midi": 73,
          "name": "C#5",
          "ticks": 12482,
          "time": 114.72414233333333,
          "velocity": 0.8740157480314961
        },
        {
          "duration": 0.4227936666666636,
          "durationTicks": 46,
          "midi": 75,
          "name": "D#5",
          "ticks": 12530,
          "time": 115.16531833333333,
          "velocity": 0.8740157480314961
        },
        {
          "duration": 0.20220566666665718,
          "durationTicks": 22,
          "midi": 73,
          "name": "C#5",
          "ticks": 12578,
          "time": 115.60649433333333,
          "velocity": 0.8740157480314961
        },
        {
          "duration": 0.18382333333333634,
          "durationTicks": 20,
          "midi": 75,
          "name": "D#5",
          "ticks": 12602,
          "time": 115.82708233333334,
          "velocity": 0.8740157480314961
        },
        {
          "duration": 0.5974258333333466,
          "durationTicks": 65,
          "midi": 77,
          "name": "F5",
          "ticks": 12626,
          "time": 116.04767033333333,
          "velocity": 0.8740157480314961
        },
        {
          "duration": 0.027573500000002582,
          "durationTicks": 3,
          "midi": 80,
          "name": "G#5",
          "ticks": 12692,
          "time": 116.65428733333333,
          "velocity": 0.7007874015748031
        },
        {
          "duration": 0.33088200000000256,
          "durationTicks": 36,
          "midi": 51,
          "name": "D#3",
          "ticks": 12698,
          "time": 116.70943433333333,
          "velocity": 0.8740157480314961
        },
        {
          "duration": 0.08272049999999354,
          "durationTicks": 9,
          "midi": 51,
          "name": "D#3",
          "ticks": 12734,
          "time": 117.04031633333334,
          "velocity": 0.8740157480314961
        },
        {
          "duration": 0.22058799999999223,
          "durationTicks": 24,
          "midi": 58,
          "name": "A#3",
          "ticks": 12746,
          "time": 117.15061033333333,
          "velocity": 0.8740157480314961
        },
        {
          "duration": 0.22058800000000645,
          "durationTicks": 24,
          "midi": 65,
          "name": "F4",
          "ticks": 12770,
          "time": 117.37119833333333,
          "velocity": 0.8740157480314961
        },
        {
          "duration": 0.09191166666666106,
          "durationTicks": 10,
          "midi": 58,
          "name": "A#3",
          "ticks": 12794,
          "time": 117.59178633333333,
          "velocity": 0.8740157480314961
        },
        {
          "duration": 0.22058800000000645,
          "durationTicks": 24,
          "midi": 63,
          "name": "D#4",
          "ticks": 12806,
          "time": 117.70208033333333,
          "velocity": 0.8740157480314961
        },
        {
          "duration": 0.11029399999999612,
          "durationTicks": 12,
          "midi": 58,
          "name": "A#3",
          "ticks": 12830,
          "time": 117.92266833333333,
          "velocity": 0.8740157480314961
        },
        {
          "duration": 0.22058800000000645,
          "durationTicks": 24,
          "midi": 65,
          "name": "F4",
          "ticks": 12842,
          "time": 118.03296233333333,
          "velocity": 0.8740157480314961
        },
        {
          "duration": 0.11029399999999612,
          "durationTicks": 12,
          "midi": 58,
          "name": "A#3",
          "ticks": 12866,
          "time": 118.25355033333334,
          "velocity": 0.8740157480314961
        },
        {
          "duration": 0.22058799999999223,
          "durationTicks": 24,
          "midi": 63,
          "name": "D#4",
          "ticks": 12878,
          "time": 118.36384433333333,
          "velocity": 0.8740157480314961
        },
        {
          "duration": 0.11029400000001033,
          "durationTicks": 12,
          "midi": 58,
          "name": "A#3",
          "ticks": 12902,
          "time": 118.58443233333333,
          "velocity": 0.8740157480314961
        },
        {
          "duration": 0.22058799999999223,
          "durationTicks": 24,
          "midi": 65,
          "name": "F4",
          "ticks": 12914,
          "time": 118.69472633333334,
          "velocity": 0.8740157480314961
        },
        {
          "duration": 0.22058800000000645,
          "durationTicks": 24,
          "midi": 58,
          "name": "A#3",
          "ticks": 12938,
          "time": 118.91531433333333,
          "velocity": 0.8740157480314961
        },
        {
          "duration": 0.22058799999999223,
          "durationTicks": 24,
          "midi": 65,
          "name": "F4",
          "ticks": 12962,
          "time": 119.13590233333333,
          "velocity": 0.8740157480314961
        },
        {
          "duration": 0.1011028333333428,
          "durationTicks": 11,
          "midi": 58,
          "name": "A#3",
          "ticks": 12986,
          "time": 119.35649033333333,
          "velocity": 0.8740157480314961
        },
        {
          "duration": 0.22058799999999223,
          "durationTicks": 24,
          "midi": 63,
          "name": "D#4",
          "ticks": 12998,
          "time": 119.46678433333334,
          "velocity": 0.8740157480314961
        },
        {
          "duration": 0.11029399999999612,
          "durationTicks": 12,
          "midi": 58,
          "name": "A#3",
          "ticks": 13022,
          "time": 119.68737233333333,
          "velocity": 0.8740157480314961
        },
        {
          "duration": 0.22058800000000645,
          "durationTicks": 24,
          "midi": 65,
          "name": "F4",
          "ticks": 13034,
          "time": 119.79766633333332,
          "velocity": 0.8740157480314961
        },
        {
          "duration": 0.1011028333333428,
          "durationTicks": 11,
          "midi": 58,
          "name": "A#3",
          "ticks": 13058,
          "time": 120.01825433333333,
          "velocity": 0.8740157480314961
        },
        {
          "duration": 0.22058800000000645,
          "durationTicks": 24,
          "midi": 63,
          "name": "D#4",
          "ticks": 13070,
          "time": 120.12854833333333,
          "velocity": 0.8740157480314961
        },
        {
          "duration": 0.11029399999999612,
          "durationTicks": 12,
          "midi": 58,
          "name": "A#3",
          "ticks": 13094,
          "time": 120.34913633333333,
          "velocity": 0.8740157480314961
        },
        {
          "duration": 0.11029399999999612,
          "durationTicks": 12,
          "midi": 65,
          "name": "F4",
          "ticks": 13106,
          "time": 120.45943033333333,
          "velocity": 0.8740157480314961
        },
        {
          "duration": 0.018382333333349266,
          "durationTicks": 2,
          "midi": 65,
          "name": "F4",
          "ticks": 13118,
          "time": 120.56972433333333,
          "velocity": 0.952755905511811
        },
        {
          "duration": 0.4227936666666494,
          "durationTicks": 46,
          "midi": 65,
          "name": "F4",
          "ticks": 13130,
          "time": 120.68001833333334,
          "velocity": 0.8740157480314961
        },
        {
          "duration": 0.20220566666665718,
          "durationTicks": 22,
          "midi": 65,
          "name": "F4",
          "ticks": 13178,
          "time": 121.12119433333334,
          "velocity": 0.8740157480314961
        },
        {
          "duration": 0.06433816666665848,
          "durationTicks": 7,
          "midi": 85,
          "name": "C#6",
          "ticks": 13202,
          "time": 121.34178233333333,
          "velocity": 0.7795275590551181
        },
        {
          "duration": 0.42279366666667784,
          "durationTicks": 46,
          "midi": 61,
          "name": "C#4",
          "ticks": 13203,
          "time": 121.3509735,
          "velocity": 0.8740157480314961
        },
        {
          "duration": 0.19301450000000386,
          "durationTicks": 21,
          "midi": 63,
          "name": "D#4",
          "ticks": 13250,
          "time": 121.78295833333333,
          "velocity": 0.8740157480314961
        },
        {
          "duration": 0.21139683333333892,
          "durationTicks": 23,
          "midi": 61,
          "name": "C#4",
          "ticks": 13274,
          "time": 122.00354633333333,
          "velocity": 0.8740157480314961
        },
        {
          "duration": 0.22058800000000645,
          "durationTicks": 24,
          "midi": 60,
          "name": "C4",
          "ticks": 13298,
          "time": 122.22413433333332,
          "velocity": 0.8740157480314961
        },
        {
          "duration": 0.20220566666665718,
          "durationTicks": 22,
          "midi": 73,
          "name": "C#5",
          "ticks": 13322,
          "time": 122.44472233333333,
          "velocity": 0.7480314960629921
        },
        {
          "duration": 0.2022056666666856,
          "durationTicks": 22,
          "midi": 61,
          "name": "C#4",
          "ticks": 13323,
          "time": 122.45391349999998,
          "velocity": 0.8740157480314961
        },
        {
          "duration": 0.20220566666665718,
          "durationTicks": 22,
          "midi": 68,
          "name": "G#4",
          "ticks": 13346,
          "time": 122.66531033333334,
          "velocity": 0.7401574803149606
        },
        {
          "duration": 0.2022056666666856,
          "durationTicks": 22,
          "midi": 60,
          "name": "C4",
          "ticks": 13347,
          "time": 122.67450149999999,
          "velocity": 0.8267716535433071
        },
        {
          "duration": 0.20220566666665718,
          "durationTicks": 22,
          "midi": 73,
          "name": "C#5",
          "ticks": 13370,
          "time": 122.88589833333333,
          "velocity": 0.7322834645669292
        },
        {
          "duration": 0.2022056666666856,
          "durationTicks": 22,
          "midi": 61,
          "name": "C#4",
          "ticks": 13371,
          "time": 122.89508949999998,
          "velocity": 0.8267716535433071
        },
        {
          "duration": 0.22058799999999223,
          "durationTicks": 24,
          "midi": 75,
          "name": "D#5",
          "ticks": 13394,
          "time": 123.10648633333334,
          "velocity": 0.7480314960629921
        },
        {
          "duration": 0.21139683333333892,
          "durationTicks": 23,
          "midi": 63,
          "name": "D#4",
          "ticks": 13395,
          "time": 123.11567749999999,
          "velocity": 0.8267716535433071
        },
        {
          "duration": 0.22058800000000645,
          "durationTicks": 24,
          "midi": 68,
          "name": "G#4",
          "ticks": 13418,
          "time": 123.32707433333333,
          "velocity": 0.7007874015748031
        },
        {
          "duration": 0.19301449999998965,
          "durationTicks": 21,
          "midi": 82,
          "name": "A#5",
          "ticks": 13442,
          "time": 123.54766233333334,
          "velocity": 0.6141732283464567
        },
        {
          "duration": 0.19301449999998965,
          "durationTicks": 21,
          "midi": 70,
          "name": "A#4",
          "ticks": 13442,
          "time": 123.54766233333334,
          "velocity": 0.8740157480314961
        },
        {
          "duration": 0.11029399999999612,
          "durationTicks": 12,
          "midi": 70,
          "name": "A#4",
          "ticks": 13464,
          "time": 123.74986799999999,
          "velocity": 0.7007874015748031
        },
        {
          "duration": 1.4338219999999922,
          "durationTicks": 156,
          "midi": 82,
          "name": "A#5",
          "ticks": 13478,
          "time": 123.87854433333334,
          "velocity": 0.6141732283464567
        },
        {
          "duration": 1.4246308333333388,
          "durationTicks": 155,
          "midi": 70,
          "name": "A#4",
          "ticks": 13478,
          "time": 123.87854433333334,
          "velocity": 0.8740157480314961
        },
        {
          "duration": 0.22058799999999223,
          "durationTicks": 24,
          "midi": 70,
          "name": "A#4",
          "ticks": 13658,
          "time": 125.53295433333334,
          "velocity": 0.8740157480314961
        },
        {
          "duration": 0.22058800000000645,
          "durationTicks": 24,
          "midi": 70,
          "name": "A#4",
          "ticks": 13682,
          "time": 125.75354233333333,
          "velocity": 0.8740157480314961
        },
        {
          "duration": 0.20220566666665718,
          "durationTicks": 22,
          "midi": 73,
          "name": "C#5",
          "ticks": 13706,
          "time": 125.97413033333333,
          "velocity": 0.8740157480314961
        },
        {
          "duration": 0.20220566666665718,
          "durationTicks": 22,
          "midi": 70,
          "name": "A#4",
          "ticks": 13730,
          "time": 126.19471833333333,
          "velocity": 0.8740157480314961
        },
        {
          "duration": 0.16544100000000128,
          "durationTicks": 18,
          "midi": 73,
          "name": "C#5",
          "ticks": 13754,
          "time": 126.41530633333333,
          "velocity": 0.8740157480314961
        },
        {
          "duration": 0.027573500000002582,
          "durationTicks": 3,
          "midi": 75,
          "name": "D#5",
          "ticks": 13772,
          "time": 126.58074733333333,
          "velocity": 0.8740157480314961
        },
        {
          "duration": 0.43198483333334536,
          "durationTicks": 47,
          "midi": 77,
          "name": "F5",
          "ticks": 13778,
          "time": 126.63589433333333,
          "velocity": 0.8740157480314961
        },
        {
          "duration": 0.19301450000000386,
          "durationTicks": 21,
          "midi": 75,
          "name": "D#5",
          "ticks": 13826,
          "time": 127.07707033333332,
          "velocity": 0.8740157480314961
        },
        {
          "duration": 0.19301450000000386,
          "durationTicks": 21,
          "midi": 73,
          "name": "C#5",
          "ticks": 13850,
          "time": 127.29765833333333,
          "velocity": 0.8740157480314961
        },
        {
          "duration": 0.4136024999999961,
          "durationTicks": 45,
          "midi": 82,
          "name": "A#5",
          "ticks": 13874,
          "time": 127.51824633333334,
          "velocity": 0.8740157480314961
        },
        {
          "duration": 0.19301449999998965,
          "durationTicks": 21,
          "midi": 80,
          "name": "G#5",
          "ticks": 13922,
          "time": 127.95942233333334,
          "velocity": 0.8740157480314961
        },
        {
          "duration": 0.19301450000000386,
          "durationTicks": 21,
          "midi": 78,
          "name": "F#5",
          "ticks": 13946,
          "time": 128.18001033333334,
          "velocity": 0.8740157480314961
        },
        {
          "duration": 0.19301450000000386,
          "durationTicks": 21,
          "midi": 77,
          "name": "F5",
          "ticks": 13970,
          "time": 128.40059833333333,
          "velocity": 0.8740157480314961
        },
        {
          "duration": 0.19301450000000386,
          "durationTicks": 21,
          "midi": 78,
          "name": "F#5",
          "ticks": 13994,
          "time": 128.62118633333333,
          "velocity": 0.8740157480314961
        },
        {
          "duration": 0.20220566666665718,
          "durationTicks": 22,
          "midi": 77,
          "name": "F5",
          "ticks": 14018,
          "time": 128.84177433333335,
          "velocity": 0.8740157480314961
        },
        {
          "duration": 0.21139683333333892,
          "durationTicks": 23,
          "midi": 73,
          "name": "C#5",
          "ticks": 14042,
          "time": 129.06236233333334,
          "velocity": 0.8740157480314961
        },
        {
          "duration": 0.854778500000009,
          "durationTicks": 93,
          "midi": 75,
          "name": "D#5",
          "ticks": 14066,
          "time": 129.28295033333333,
          "velocity": 0.952755905511811
        },
        {
          "duration": 1.5992629999999792,
          "durationTicks": 174,
          "midi": 77,
          "name": "F5",
          "ticks": 14162,
          "time": 130.16530233333336,
          "velocity": 0.952755905511811
        }
      ]
    },
    {
      "channel": 0,
      "controlChanges": {},
      "pitchBends": [],
      "instrument": {
        "family": "piano",
        "number": 0,
        "name": "acoustic grand piano"
      },
      "name": "Exc",
      "notes": [],
      "endOfTrackTicks": 192
    }
  ]
}